<svg width="16" height="16" viewBox="0 0 16 16" fill="none" xmlns="http://www.w3.org/2000/svg">
<path d="M8.00063 1.33594C4.32066 1.33594 1.33398 4.3226 1.33398 8.0026C1.33398 11.6826 4.32066 14.6692 8.00063 14.6692C11.6806 14.6692 14.6674 11.6826 14.6674 8.0026C14.6674 4.3226 11.6806 1.33594 8.00063 1.33594ZM10.8674 11.1292C10.8006 11.156 10.734 11.1692 10.6674 11.1692C10.474 11.1692 10.294 11.056 10.2074 10.8692L8.00063 5.9026L7.28732 7.5026H8.00063C8.27399 7.5026 8.50063 7.72927 8.50063 8.0026C8.50063 8.27596 8.27399 8.5026 8.00063 8.5026H6.84732L5.79398 10.8692C5.68066 11.1226 5.38066 11.236 5.13399 11.1226C4.88066 11.0092 4.76733 10.716 4.88066 10.4626L5.75398 8.49596H5.33398C5.06066 8.49596 4.83398 8.26924 4.83398 7.99594C4.83398 7.7226 5.06066 7.49594 5.33398 7.49594H6.19398L7.54066 4.4626C7.70066 4.1026 8.29399 4.1026 8.45399 4.4626L11.1206 10.4626C11.234 10.716 11.1206 11.016 10.8674 11.1292Z" fill="white"/>
</svg>
