<svg width="16" height="16" viewBox="0 0 16 16" fill="none" xmlns="http://www.w3.org/2000/svg">
<path fill-rule="evenodd" clip-rule="evenodd" d="M7.73121 1.05571C7.90032 0.971013 8.09942 0.971013 8.26854 1.05571C10.6321 2.23942 12.8325 3.70014 14.8273 5.3952C14.9931 5.53605 15.0697 5.75558 15.0274 5.96897C14.9852 6.18234 14.8307 6.35614 14.6238 6.4232C12.3724 7.15281 10.2596 8.19086 8.33518 9.48766C8.13254 9.62422 7.86726 9.62422 7.66459 9.48766C7.12417 9.1235 6.5689 8.77974 5.99988 8.4575V7.51585C5.99988 7.32102 6.09248 7.14567 6.24122 7.04258C7.09032 6.45406 7.97301 5.91068 8.88582 5.41589C9.1771 5.25797 9.28526 4.89379 9.12734 4.60247C8.96942 4.31114 8.60526 4.20299 8.31398 4.36091C7.36249 4.87665 6.44251 5.443 5.55763 6.05632C5.07414 6.39143 4.79988 6.94144 4.79988 7.51585V7.82006C3.70157 7.27423 2.55788 6.80622 1.37598 6.4232C1.16905 6.35614 1.01463 6.18234 0.972382 5.96897C0.930126 5.75558 1.00668 5.53605 1.17244 5.3952C3.16725 3.70014 5.36768 2.23942 7.73121 1.05571ZM4.79988 9.16846C4.16157 8.83102 3.50628 8.52158 2.83565 8.24174C2.70079 9.06222 2.59637 9.89294 2.52361 10.7328C2.50217 10.9803 2.63552 11.2155 2.85898 11.3241C3.28133 11.5295 3.69585 11.7485 4.10197 11.9806C3.93501 12.2397 3.73807 12.4852 3.51116 12.7121C3.27685 12.9464 3.27685 13.3263 3.51116 13.5605C3.74548 13.7949 4.12537 13.7949 4.35969 13.5605C4.65541 13.2649 4.91115 12.9442 5.12691 12.6054C5.99864 13.1713 6.82625 13.7995 7.60341 14.4837C7.83008 14.6833 8.16974 14.6833 8.39638 14.4837C9.82134 13.2292 11.4158 12.163 13.1409 11.3241C13.3643 11.2155 13.4977 10.9803 13.4762 10.7328C13.4034 9.89294 13.299 9.06222 13.1641 8.24166C11.6992 8.85302 10.3074 9.60566 9.00582 10.4828C8.39782 10.8925 7.60201 10.8925 6.99398 10.4828C6.66648 10.2621 6.33325 10.0493 5.9946 9.84462C5.95283 10.8076 5.66356 11.7627 5.12691 12.6054C4.79167 12.3878 4.4499 12.1794 4.10197 11.9806C4.56728 11.2585 4.79988 10.4301 4.79988 9.60078V9.16846Z" fill="#0F172A"/>
</svg>
