<svg width="16" height="16" viewBox="0 0 16 16" fill="none" xmlns="http://www.w3.org/2000/svg">
<path d="M10.794 1.33594H5.20732C2.78066 1.33594 1.33398 2.7826 1.33398 5.20927V10.7892C1.33398 13.2226 2.78066 14.6692 5.20732 14.6692H10.7874C13.214 14.6692 14.6606 13.2226 14.6606 10.796V5.20927C14.6674 2.7826 13.2206 1.33594 10.794 1.33594ZM11.5074 6.6426L9.96735 8.62924C9.77399 8.87596 9.50063 9.03596 9.18735 9.06924C8.87399 9.10924 8.56735 9.0226 8.32063 8.82924L7.10066 7.86927C7.05398 7.82927 7.00066 7.82927 6.97398 7.83594C6.94732 7.83594 6.90066 7.84927 6.86066 7.9026L5.27398 9.9626C5.17398 10.0892 5.02732 10.156 4.88066 10.156C4.77398 10.156 4.66732 10.1226 4.57398 10.0492C4.35398 9.8826 4.31398 9.56924 4.48066 9.34924L6.06732 7.28927C6.26066 7.0426 6.53398 6.8826 6.84732 6.8426C7.15398 6.8026 7.46732 6.88927 7.71398 7.0826L8.93399 8.0426C8.98063 8.0826 9.02735 8.0826 9.06063 8.07596C9.08735 8.07596 9.13399 8.0626 9.17399 8.00924L10.714 6.0226C10.8806 5.8026 11.2006 5.7626 11.414 5.93594C11.634 6.11594 11.674 6.42927 11.5074 6.6426Z" fill="white"/>
</svg>
