<svg width="16" height="16" viewBox="0 0 16 16" fill="none" xmlns="http://www.w3.org/2000/svg">
<path d="M8.00063 1.33594C4.32732 1.33594 1.33398 4.32927 1.33398 8.0026C1.33398 11.676 4.32732 14.6692 8.00063 14.6692C11.674 14.6692 14.6674 11.676 14.6674 8.0026C14.6674 4.32927 11.674 1.33594 8.00063 1.33594ZM10.6674 8.5026H8.50063V10.6692C8.50063 10.9426 8.27399 11.1692 8.00063 11.1692C7.72732 11.1692 7.50066 10.9426 7.50066 10.6692V8.5026H5.33398C5.06066 8.5026 4.83398 8.27596 4.83398 8.0026C4.83398 7.72927 5.06066 7.5026 5.33398 7.5026H7.50066V5.33594C7.50066 5.0626 7.72732 4.83594 8.00063 4.83594C8.27399 4.83594 8.50063 5.0626 8.50063 5.33594V7.5026H10.6674C10.9406 7.5026 11.1674 7.72927 11.1674 8.0026C11.1674 8.27596 10.9406 8.5026 10.6674 8.5026Z" fill="white"/>
</svg>
