<svg width="16" height="16" viewBox="0 0 16 16" fill="none" xmlns="http://www.w3.org/2000/svg">
<path d="M10.794 1.33594H5.20732C2.78066 1.33594 1.33398 2.7826 1.33398 5.20927V10.7892C1.33398 13.2226 2.78066 14.6692 5.20732 14.6692H10.7874C13.214 14.6692 14.6606 13.2226 14.6606 10.796V5.20927C14.6674 2.7826 13.2206 1.33594 10.794 1.33594ZM12.0006 8.5026H8.50063V12.0026C8.50063 12.276 8.27399 12.5026 8.00063 12.5026C7.72732 12.5026 7.50066 12.276 7.50066 12.0026V8.5026H4.00066C3.72732 8.5026 3.50066 8.27596 3.50066 8.0026C3.50066 7.72927 3.72732 7.5026 4.00066 7.5026H7.50066V4.0026C7.50066 3.72927 7.72732 3.5026 8.00063 3.5026C8.27399 3.5026 8.50063 3.72927 8.50063 4.0026V7.5026H12.0006C12.274 7.5026 12.5006 7.72927 12.5006 8.0026C12.5006 8.27596 12.274 8.5026 12.0006 8.5026Z" fill="white"/>
</svg>
