<svg width="16" height="16" viewBox="0 0 16 16" fill="none" xmlns="http://www.w3.org/2000/svg">
<path d="M8.95399 3.6226V4.51594C7.20732 4.65594 6.21398 5.77594 6.21398 7.6226V10.6692H3.62066C2.09398 10.6692 1.33398 9.90924 1.33398 8.3826V3.6226C1.33398 2.09594 2.09398 1.33594 3.62066 1.33594H6.66732C8.19399 1.33594 8.95399 2.09594 8.95399 3.6226Z" fill="white"/>
<path d="M12.3802 5.33594H9.33352C7.80687 5.33594 7.04688 6.09594 7.04688 7.6226V12.3826C7.04688 13.9092 7.80687 14.6692 9.33352 14.6692H12.3802C13.9069 14.6692 14.6669 13.9092 14.6669 12.3826V7.6226C14.6669 6.09594 13.9069 5.33594 12.3802 5.33594ZM12.0869 10.5026H11.5002V11.0892C11.5002 11.3626 11.2735 11.5892 11.0002 11.5892C10.7269 11.5892 10.5002 11.3626 10.5002 11.0892V10.5026H9.91352C9.64024 10.5026 9.41352 10.276 9.41352 10.0026C9.41352 9.72924 9.64024 9.5026 9.91352 9.5026H10.5002V8.91596C10.5002 8.6426 10.7269 8.41596 11.0002 8.41596C11.2735 8.41596 11.5002 8.6426 11.5002 8.91596V9.5026H12.0869C12.3602 9.5026 12.5869 9.72924 12.5869 10.0026C12.5869 10.276 12.3602 10.5026 12.0869 10.5026Z" fill="white"/>
</svg>
