<svg width="16" height="16" viewBox="0 0 16 16" fill="none" xmlns="http://www.w3.org/2000/svg">
<path d="M13.6004 2.20156C13.6004 1.87019 13.3318 1.60156 13.0004 1.60156C12.669 1.60156 12.4004 1.87019 12.4004 2.20156V6.60156C12.4004 6.93293 12.669 7.20156 13.0004 7.20156C13.3318 7.20156 13.6004 6.93293 13.6004 6.60156V2.20156Z" fill="#0F172A"/>
<path d="M13.6004 12.6C13.6004 12.2686 13.3318 12 13.0004 12C12.669 12 12.4004 12.2686 12.4004 12.6V13.8C12.4004 14.1314 12.669 14.4 13.0004 14.4C13.3318 14.4 13.6004 14.1314 13.6004 13.8V12.6Z" fill="#0F172A"/>
<path d="M3.00039 12C3.33176 12 3.60039 12.2686 3.60039 12.6V13.8C3.60039 14.1314 3.33176 14.4 3.00039 14.4C2.66902 14.4 2.40039 14.1314 2.40039 13.8V12.6C2.40039 12.2686 2.66902 12 3.00039 12Z" fill="#0F172A"/>
<path d="M3.60039 2.20156C3.60039 1.87019 3.33176 1.60156 3.00039 1.60156C2.66902 1.60156 2.40039 1.87019 2.40039 2.20156V6.60156C2.40039 6.93293 2.66902 7.20156 3.00039 7.20156C3.33176 7.20156 3.60039 6.93293 3.60039 6.60156V2.20156Z" fill="#0F172A"/>
<path d="M8.00039 8.80078C8.33175 8.80078 8.60039 9.06942 8.60039 9.40078V13.8008C8.60039 14.1321 8.33175 14.4008 8.00039 14.4008C7.66902 14.4008 7.40039 14.1321 7.40039 13.8008V9.40078C7.40039 9.06942 7.66902 8.80078 8.00039 8.80078Z" fill="#0F172A"/>
<path d="M8.60039 2.20156C8.60039 1.87019 8.33175 1.60156 8.00039 1.60156C7.66902 1.60156 7.40039 1.87019 7.40039 2.20156V3.40156C7.40039 3.73293 7.66902 4.00156 8.00039 4.00156C8.33175 4.00156 8.60039 3.73293 8.60039 3.40156V2.20156Z" fill="#0F172A"/>
<path d="M8.00039 4.80078C7.11673 4.80078 6.40039 5.51713 6.40039 6.40078C6.40039 7.28444 7.11673 8.00078 8.00039 8.00078C8.88407 8.00078 9.60039 7.28444 9.60039 6.40078C9.60039 5.51713 8.88407 4.80078 8.00039 4.80078Z" fill="#0F172A"/>
<path d="M3.00039 8C2.11673 8 1.40039 8.71632 1.40039 9.6C1.40039 10.4837 2.11673 11.2 3.00039 11.2C3.88405 11.2 4.60039 10.4837 4.60039 9.6C4.60039 8.71632 3.88405 8 3.00039 8Z" fill="#0F172A"/>
<path d="M13.0004 8C12.1167 8 11.4004 8.71632 11.4004 9.6C11.4004 10.4837 12.1167 11.2 13.0004 11.2C13.8841 11.2 14.6004 10.4837 14.6004 9.6C14.6004 8.71632 13.8841 8 13.0004 8Z" fill="#0F172A"/>
</svg>
