<svg width="16" height="16" viewBox="0 0 16 16" fill="none" xmlns="http://www.w3.org/2000/svg">
<path d="M8.00078 2.99844C8.00078 2.11478 7.28444 1.39844 6.40078 1.39844C5.51713 1.39844 4.80078 2.11478 4.80078 2.99844C4.80078 3.88209 5.51713 4.59844 6.40078 4.59844C7.28444 4.59844 8.00078 3.88209 8.00078 2.99844Z" fill="#0F172A"/>
<path d="M13.8008 3.59844C14.1321 3.59844 14.4008 3.32981 14.4008 2.99844C14.4008 2.66707 14.1321 2.39844 13.8008 2.39844H9.40078C9.06942 2.39844 8.80078 2.66707 8.80078 2.99844C8.80078 3.32981 9.06942 3.59844 9.40078 3.59844H13.8008Z" fill="#0F172A"/>
<path d="M3.99961 2.99844C3.99961 3.32981 3.73098 3.59844 3.39961 3.59844H2.19961C1.86824 3.59844 1.59961 3.32981 1.59961 2.99844C1.59961 2.66707 1.86824 2.39844 2.19961 2.39844H3.39961C3.73098 2.39844 3.99961 2.66707 3.99961 2.99844Z" fill="#0F172A"/>
<path d="M3.39961 13.5984C3.73098 13.5984 3.99961 13.3298 3.99961 12.9984C3.99961 12.6671 3.73098 12.3984 3.39961 12.3984H2.19961C1.86824 12.3984 1.59961 12.6671 1.59961 12.9984C1.59961 13.3298 1.86824 13.5984 2.19961 13.5984H3.39961Z" fill="#0F172A"/>
<path d="M13.8008 13.5984C14.1321 13.5984 14.4008 13.3298 14.4008 12.9984C14.4008 12.6671 14.1321 12.3984 13.8008 12.3984H9.40078C9.06942 12.3984 8.80078 12.6671 8.80078 12.9984C8.80078 13.3298 9.06942 13.5984 9.40078 13.5984H13.8008Z" fill="#0F172A"/>
<path d="M7.19961 7.99844C7.19961 8.3298 6.93098 8.59844 6.59961 8.59844H2.19961C1.86824 8.59844 1.59961 8.3298 1.59961 7.99844C1.59961 7.66707 1.86824 7.39844 2.19961 7.39844H6.59961C6.93098 7.39844 7.19961 7.66707 7.19961 7.99844Z" fill="#0F172A"/>
<path d="M13.8 8.59844C14.1314 8.59844 14.4 8.3298 14.4 7.99844C14.4 7.66707 14.1314 7.39844 13.8 7.39844H12.6C12.2686 7.39844 12 7.66707 12 7.99844C12 8.3298 12.2686 8.59844 12.6 8.59844H13.8Z" fill="#0F172A"/>
<path d="M11.2 7.99844C11.2 7.11478 10.4837 6.39844 9.6 6.39844C8.71632 6.39844 8 7.11478 8 7.99844C8 8.88212 8.71632 9.59844 9.6 9.59844C10.4837 9.59844 11.2 8.88212 11.2 7.99844Z" fill="#0F172A"/>
<path d="M8.00078 12.9984C8.00078 12.1148 7.28444 11.3984 6.40078 11.3984C5.51713 11.3984 4.80078 12.1148 4.80078 12.9984C4.80078 13.8821 5.51713 14.5984 6.40078 14.5984C7.28444 14.5984 8.00078 13.8821 8.00078 12.9984Z" fill="#0F172A"/>
</svg>
