<svg width="16" height="16" viewBox="0 0 16 16" fill="none" xmlns="http://www.w3.org/2000/svg">
<path d="M9.41913 7.56033C9.67913 6.46701 8.72585 5.51368 7.63248 5.77368C7.11915 5.90035 6.69915 6.32035 6.57251 6.83367C6.31251 7.927 7.26582 8.88034 8.35913 8.62034C8.87913 8.4937 9.29913 8.0737 9.41913 7.56033Z" fill="white"/>
<path d="M4.01396 11.9826C3.89396 11.9826 3.7673 11.936 3.67396 11.8492C2.38062 10.6492 1.64062 8.95596 1.64062 7.19594C1.64062 3.68927 4.49396 0.835938 8.00066 0.835938C11.5073 0.835938 14.3606 3.68927 14.3606 7.19594C14.3606 8.96924 13.6473 10.6092 12.354 11.8292C12.154 12.016 11.834 12.0092 11.6473 11.8092C11.4606 11.6092 11.4673 11.2892 11.6673 11.1026C12.7606 10.076 13.3606 8.69596 13.3606 7.2026C13.3606 4.24927 10.954 1.8426 8.00066 1.8426C5.0473 1.8426 2.64063 4.24927 2.64063 7.2026C2.64063 8.70924 3.2473 10.096 4.35396 11.1226C4.55396 11.3092 4.5673 11.6292 4.38063 11.8292C4.28063 11.9292 4.1473 11.9826 4.01396 11.9826Z" fill="white"/>
<path d="M10.6657 10.199C10.5457 10.199 10.419 10.1524 10.3257 10.0657C10.1257 9.879 10.1123 9.559 10.3057 9.359C10.859 8.77236 11.1657 7.999 11.1657 7.19903C11.1657 5.4524 9.74569 4.03906 8.00569 4.03906C6.2657 4.03906 4.8457 5.45906 4.8457 7.19903C4.8457 8.00572 5.15237 8.77236 5.7057 9.359C5.89237 9.559 5.8857 9.879 5.6857 10.0657C5.4857 10.259 5.1657 10.2457 4.97903 10.0457C4.25237 9.27236 3.8457 8.259 3.8457 7.19903C3.8457 4.90573 5.71237 3.03906 8.00569 3.03906C10.299 3.03906 12.1657 4.90573 12.1657 7.19903C12.1657 8.259 11.7657 9.27236 11.0323 10.0457C10.9323 10.1457 10.799 10.199 10.6657 10.199Z" fill="white"/>
<path d="M6.86595 11.1066L5.90594 12.3C5.14594 13.2534 5.82595 14.6666 7.03928 14.6666H8.95258C10.1726 14.6666 10.8526 13.2534 10.0859 12.3066L9.12594 11.1134C8.55258 10.38 7.44595 10.38 6.86595 11.1066Z" fill="white"/>
</svg>
