<svg width="16" height="16" viewBox="0 0 16 16" fill="none" xmlns="http://www.w3.org/2000/svg">
<path d="M10.794 1.33594H5.20732C2.78066 1.33594 1.33398 2.7826 1.33398 5.20927V10.7892C1.33398 13.2226 2.78066 14.6692 5.20732 14.6692H10.7874C13.214 14.6692 14.6606 13.2226 14.6606 10.796V5.20927C14.6674 2.7826 13.2206 1.33594 10.794 1.33594ZM12.3406 8.79596C12.3406 9.19596 12.034 9.39596 11.6674 9.23596L9.43399 8.27596C9.17399 8.16924 8.96735 8.3026 8.96735 8.5826V9.81596C8.96735 9.9226 9.02735 10.076 9.10735 10.156L10.2006 11.256C10.314 11.3692 10.3674 11.596 10.314 11.7492L10.1006 12.3892C10.0074 12.6692 9.68735 12.8026 9.42735 12.6692L8.31399 11.7226C8.14063 11.5826 7.86066 11.5826 7.69398 11.7226L6.57398 12.6692C6.30732 12.8026 5.99398 12.6692 5.90066 12.3826L5.68732 11.7426C5.63398 11.5892 5.68732 11.3626 5.80066 11.2492L6.91398 10.156C6.98732 10.0826 7.05398 9.92924 7.05398 9.81596V8.5826C7.05398 8.3026 6.84066 8.1626 6.58732 8.27596L4.35398 9.23596C3.98066 9.39596 3.68066 9.19596 3.68066 8.79596V8.17596C3.68066 7.85594 3.92732 7.4826 4.22066 7.35594L6.84732 6.2226C6.95398 6.17594 7.04732 6.03594 7.04732 5.91594V4.53594C7.04732 4.0826 7.37398 3.5426 7.78066 3.3426C7.92732 3.26927 8.09399 3.26927 8.24063 3.3426C8.64063 3.54927 8.97399 4.0826 8.97399 4.53594V5.91594C8.97399 6.03594 9.06063 6.17594 9.17399 6.2226L11.8006 7.35594C12.1006 7.4826 12.3406 7.85594 12.3406 8.17596V8.79596Z" fill="white"/>
</svg>
