<svg width="16" height="16" viewBox="0 0 16 16" fill="none" xmlns="http://www.w3.org/2000/svg">
<path d="M13.3664 7.087L10.253 5.74703L9.55975 5.4537C9.45303 5.40037 9.35975 5.26037 9.35975 5.14037V3.10037C9.35975 2.46037 8.88639 1.70037 8.31303 1.40703C8.11303 1.30703 7.87306 1.30703 7.67306 1.40703C7.1064 1.70037 6.63305 2.46703 6.63305 3.10703V5.14703C6.63305 5.26703 6.53971 5.40703 6.43305 5.46037L2.63305 7.09366C2.21305 7.267 1.87305 7.79366 1.87305 8.24702V9.12702C1.87305 9.69366 2.29971 9.97366 2.82638 9.74702L6.16638 8.30702C6.42638 8.19366 6.63971 8.33366 6.63971 8.6203V9.3603V10.5603C6.63971 10.7137 6.55305 10.9337 6.44638 11.0403L4.89971 12.5937C4.73971 12.7537 4.66638 13.067 4.73971 13.2937L5.03971 14.2003C5.15971 14.5937 5.60638 14.7803 5.97305 14.5937L7.55973 13.2603C7.79973 13.0537 8.19303 13.0537 8.43303 13.2603L10.0198 14.5937C10.3864 14.7737 10.833 14.5937 10.9664 14.2003L11.2664 13.2937C11.3398 13.0737 11.2664 12.7537 11.1064 12.5937L9.55975 11.0403C9.44639 10.9337 9.35975 10.7137 9.35975 10.5603V8.6203C9.35975 8.33366 9.56639 8.2003 9.83303 8.30702L13.173 9.74702C13.6997 9.97366 14.1264 9.69366 14.1264 9.12702V8.24702C14.1264 7.79366 13.7864 7.267 13.3664 7.087Z" fill="white"/>
</svg>
