<svg width="16" height="16" viewBox="0 0 16 16" fill="none" xmlns="http://www.w3.org/2000/svg">
<path d="M10.0526 7.55863H5.94602C5.51934 7.55863 5.09934 7.3853 4.79934 7.07863C4.70602 6.9853 4.62602 6.8853 4.55934 6.77197C4.43934 6.57198 4.22602 6.44531 3.99268 6.44531H2.33268C1.96602 6.44531 1.66602 6.7453 1.66602 7.11197V11.6653C1.66602 13.3253 3.00602 14.6653 4.66602 14.6653H11.3326C12.9926 14.6653 14.3326 13.3253 14.3326 11.6653V7.11197C14.3326 6.7453 14.0326 6.44531 13.666 6.44531H11.9994C11.7594 6.44531 11.546 6.57865 11.426 6.7853C11.146 7.2453 10.6326 7.55863 10.0526 7.55863Z" fill="white"/>
<path d="M11.3326 1.33594H4.66602C3.00602 1.33594 1.66602 2.67594 1.66602 4.33594V4.7826C1.66602 5.14927 1.96602 5.44927 2.33268 5.44927H3.99934C4.23934 5.44927 4.45268 5.31594 4.57268 5.10927C4.85268 4.64927 5.36602 4.33594 5.94602 4.33594H9.93937C10.346 4.33594 10.9326 4.54927 11.2126 4.83594C11.2994 4.9226 11.366 5.01594 11.4326 5.11594C11.5526 5.31594 11.766 5.44927 12.006 5.44927H13.6726C14.0394 5.44927 14.3394 5.14927 14.3394 4.7826V4.33594C14.3326 2.67594 12.9926 1.33594 11.3326 1.33594Z" fill="white"/>
</svg>
