<svg width="16" height="16" viewBox="0 0 16 16" fill="none" xmlns="http://www.w3.org/2000/svg">
<path d="M5.11398 1.33594H3.85398C3.16066 1.33594 2.53398 1.61594 2.07398 2.07594C1.61398 2.53594 1.33398 3.1626 1.33398 3.85594C1.33398 5.2426 2.46732 6.37594 3.85398 6.37594H4.48066V11.4092C4.48066 11.896 4.76066 12.316 5.16732 12.5226C5.33398 12.616 5.53398 12.6692 5.74066 12.6692C5.88732 12.6692 6.03398 12.6426 6.16732 12.5892C6.65398 12.416 7.00066 11.956 7.00066 11.4092V3.2226C7.00066 2.18927 6.14732 1.33594 5.11398 1.33594ZM3.85398 3.9826C4.12732 3.9826 4.35398 4.20927 4.35398 4.4826C4.35398 4.75594 4.12732 4.9826 3.85398 4.9826C3.23398 4.9826 2.72732 4.47594 2.72732 3.84927C2.72732 3.2226 3.23398 2.7226 3.85398 2.7226C4.12732 2.7226 4.35398 2.94927 4.35398 3.2226C4.35398 3.49594 4.12732 3.7226 3.85398 3.7226C3.78066 3.7226 3.72732 3.7826 3.72732 3.84927C3.72732 3.91594 3.78066 3.9826 3.85398 3.9826Z" fill="white"/>
<path d="M13.9266 2.07594C13.4666 1.61594 12.84 1.33594 12.1466 1.33594H10.8866C9.84664 1.33594 9 2.18927 9 3.2226V11.4092C9 11.956 9.34664 12.416 9.83336 12.5892C9.96664 12.6426 10.1134 12.6692 10.26 12.6692C10.4666 12.6692 10.6666 12.616 10.8334 12.5226C11.24 12.316 11.52 11.896 11.52 11.4092V6.37594H12.1466C13.5334 6.37594 14.6666 5.2426 14.6666 3.85594C14.6666 3.1626 14.3866 2.53594 13.9266 2.07594ZM12.1466 4.9826C11.8734 4.9826 11.6466 4.75594 11.6466 4.4826C11.6466 4.20927 11.8734 3.9826 12.1466 3.9826C12.22 3.9826 12.2734 3.9226 12.2734 3.84927C12.2734 3.77594 12.2134 3.7226 12.1466 3.7226C11.8734 3.7226 11.6466 3.49594 11.6466 3.2226C11.6466 2.94927 11.8734 2.7226 12.1466 2.7226C12.7666 2.7226 13.2734 3.22927 13.2734 3.84927C13.2734 4.46927 12.7734 4.9826 12.1466 4.9826Z" fill="white"/>
<path d="M6.16602 12.5863V14.6663C6.16602 14.9395 5.93934 15.1663 5.66602 15.1663C5.39268 15.1663 5.16602 14.9395 5.16602 14.6663V12.5195C5.33268 12.6129 5.53268 12.6663 5.73934 12.6663C5.88602 12.6663 6.03268 12.6395 6.16602 12.5863Z" fill="white"/>
<path d="M10.834 12.5195V14.6663C10.834 14.9395 10.6073 15.1663 10.334 15.1663C10.0606 15.1663 9.83398 14.9395 9.83398 14.6663V12.5863C9.96734 12.6395 10.114 12.6663 10.2606 12.6663C10.4673 12.6663 10.6673 12.6129 10.834 12.5195Z" fill="white"/>
</svg>
