<svg width="16" height="16" viewBox="0 0 16 16" fill="none" xmlns="http://www.w3.org/2000/svg">
<g clip-path="url(#clip0_13_12201)">
<path d="M14.6674 14.1666H14.0006V10C14.0006 6.68666 11.314 4 8.00063 4C4.68732 4 2.00066 6.68666 2.00066 10V14.1666H1.33398C1.06066 14.1666 0.833984 14.3934 0.833984 14.6666C0.833984 14.94 1.06066 15.1666 1.33398 15.1666H14.6674C14.9406 15.1666 15.1674 14.94 15.1674 14.6666C15.1674 14.3934 14.9406 14.1666 14.6674 14.1666Z" fill="white"/>
<path d="M8 2.5026C7.72666 2.5026 7.5 2.27594 7.5 2.0026V1.33594C7.5 1.0626 7.72666 0.835938 8 0.835938C8.27336 0.835938 8.5 1.0626 8.5 1.33594V2.0026C8.5 2.27594 8.27336 2.5026 8 2.5026Z" fill="white"/>
<path d="M3.33297 3.83297C3.2063 3.83297 3.07963 3.7863 2.97963 3.6863L2.31297 3.01963C2.11963 2.8263 2.11963 2.5063 2.31297 2.31297C2.5063 2.11963 2.8263 2.11963 3.01963 2.31297L3.6863 2.97963C3.87963 3.17297 3.87963 3.49297 3.6863 3.6863C3.5863 3.7863 3.45963 3.83297 3.33297 3.83297Z" fill="white"/>
<path d="M12.6663 3.83297C12.5396 3.83297 12.413 3.7863 12.313 3.6863C12.1196 3.49297 12.1196 3.17297 12.313 2.97963L12.9796 2.31297C13.173 2.11963 13.493 2.11963 13.6863 2.31297C13.8796 2.5063 13.8796 2.8263 13.6863 3.01963L13.0196 3.6863C12.9196 3.7863 12.793 3.83297 12.6663 3.83297Z" fill="white"/>
</g>
<defs>
<clipPath id="clip0_13_12201">
<rect width="16" height="16" fill="white"/>
</clipPath>
</defs>
</svg>
