<svg width="16" height="16" viewBox="0 0 16 16" fill="none" xmlns="http://www.w3.org/2000/svg">
<path d="M10.6527 12.9193H11.346C12.406 12.9193 12.8327 12.5193 12.8327 11.506V3.58594H9.16602V11.506C9.17266 12.5193 9.59938 12.9193 10.6527 12.9193Z" fill="white"/>
<path d="M4.98666 9.58595H5.68C6.74 9.58595 7.16666 9.17931 7.16666 8.17259V3.58594H3.5V8.17259C3.50666 9.17931 3.93334 9.58595 4.98666 9.58595Z" fill="white"/>
<path d="M14.1674 4.07927H1.83398C1.56066 4.07927 1.33398 3.85927 1.33398 3.58594C1.33398 3.3126 1.56066 3.08594 1.83398 3.08594H14.1674C14.4406 3.08594 14.6674 3.3126 14.6674 3.58594C14.6674 3.85927 14.4406 4.07927 14.1674 4.07927Z" fill="white"/>
</svg>
