<svg width="16" height="16" viewBox="0 0 16 16" fill="none" xmlns="http://www.w3.org/2000/svg">
<path d="M12.9193 10.6508V11.3441C12.9193 12.4041 12.5193 12.8308 11.5059 12.8308H3.58594V9.16406H11.5059C12.5193 9.16406 12.9193 9.59078 12.9193 10.6508Z" fill="white"/>
<path d="M9.58594 4.98666V5.68C9.58594 6.74 9.1793 7.16666 8.17258 7.16666H3.58594V3.5H8.17258C9.1793 3.5 9.58594 3.92666 9.58594 4.98666Z" fill="white"/>
<path d="M3.58608 14.6692C3.31275 14.6692 3.08608 14.4426 3.08608 14.1692V1.83594C3.07941 1.55594 3.30608 1.33594 3.58608 1.33594C3.86608 1.33594 4.08608 1.5626 4.08608 1.83594V14.1692C4.07941 14.4426 3.85941 14.6692 3.58608 14.6692Z" fill="white"/>
</svg>
