<svg width="16" height="16" viewBox="0 0 16 16" fill="none" xmlns="http://www.w3.org/2000/svg">
<path d="M3.08008 10.6508V11.3441C3.08008 12.4041 3.48008 12.8308 4.49341 12.8308H12.4134V9.16406H4.49341C3.48008 9.16406 3.08008 9.59078 3.08008 10.6508Z" fill="white"/>
<path d="M6.41406 4.98666V5.68C6.41406 6.74 6.82072 7.16666 7.82738 7.16666H12.4141V3.5H7.82738C6.82072 3.5 6.41406 3.92666 6.41406 4.98666Z" fill="white"/>
<path d="M12.4141 14.6692C12.1407 14.6692 11.9141 14.4426 11.9141 14.1692V1.83594C11.9141 1.5626 12.1407 1.33594 12.4141 1.33594C12.6874 1.33594 12.9141 1.5626 12.9141 1.83594V14.1692C12.9207 14.4426 12.6941 14.6692 12.4141 14.6692Z" fill="white"/>
</svg>
