<svg width="16" height="16" viewBox="0 0 16 16" fill="none" xmlns="http://www.w3.org/2000/svg">
<path d="M11.6 12.8308H4.4C3.4 12.8308 3 12.4041 3 11.3441V10.6508C3 9.59078 3.4 9.16406 4.4 9.16406H11.6C12.6 9.16406 13 9.59078 13 10.6508V11.3441C13 12.4041 12.6 12.8308 11.6 12.8308Z" fill="white"/>
<path d="M8.5 12.8359V14.1692C8.5 14.4426 8.27336 14.6692 8 14.6692C7.72666 14.6692 7.5 14.4426 7.5 14.1692V12.8359H8.5Z" fill="white"/>
<path d="M8.5 7.16406H7.5V9.16404H8.5V7.16406Z" fill="white"/>
<path d="M8.5 1.83594V3.5026H7.5V1.83594C7.5 1.5626 7.72666 1.33594 8 1.33594C8.27336 1.33594 8.5 1.5626 8.5 1.83594Z" fill="white"/>
<path d="M10.2674 7.16666H5.73398C4.73398 7.16666 4.33398 6.74 4.33398 5.68V4.98666C4.33398 3.92666 4.73398 3.5 5.73398 3.5H10.2674C11.2674 3.5 11.6674 3.92666 11.6674 4.98666V5.68C11.6674 6.74 11.2674 7.16666 10.2674 7.16666Z" fill="white"/>
</svg>
