<svg width="16" height="16" viewBox="0 0 16 16" fill="none" xmlns="http://www.w3.org/2000/svg">
<path d="M3.16602 11.6V4.4C3.16602 3.4 3.59268 3 4.65268 3H5.34602C6.40602 3 6.83268 3.4 6.83268 4.4V11.6C6.83268 12.6 6.40602 13 5.34602 13H4.65268C3.59268 13 3.16602 12.6 3.16602 11.6Z" fill="white"/>
<path d="M3.16732 8.5H1.83398C1.56066 8.5 1.33398 8.27336 1.33398 8C1.33398 7.72666 1.56066 7.5 1.83398 7.5H3.16732V8.5Z" fill="white"/>
<path d="M8.83399 7.5H6.83398V8.5H8.83399V7.5Z" fill="white"/>
<path d="M14.1666 8.5H12.5V7.5H14.1666C14.44 7.5 14.6666 7.72666 14.6666 8C14.6666 8.27336 14.44 8.5 14.1666 8.5Z" fill="white"/>
<path d="M8.83398 10.2692V5.73594C8.83398 4.73594 9.26062 4.33594 10.3206 4.33594H11.014C12.074 4.33594 12.5006 4.73594 12.5006 5.73594V10.2692C12.5006 11.2692 12.074 11.6692 11.014 11.6692H10.3206C9.26062 11.6692 8.83398 11.2692 8.83398 10.2692Z" fill="white"/>
</svg>
