<svg width="16" height="16" viewBox="0 0 16 16" fill="none" xmlns="http://www.w3.org/2000/svg">
<path d="M7.33334 12V14C7.33334 14.3666 7.03334 14.6666 6.66666 14.6666C6.3 14.6666 6 14.3666 6 14V12H7.33334Z" fill="white"/>
<path d="M9.99938 12V14C9.99938 14.3666 9.69938 14.6666 9.33266 14.6666C8.96602 14.6666 8.66602 14.3666 8.66602 14V12H9.99938Z" fill="white"/>
<path d="M11.3326 7.33334V10.6666C11.3326 11.4 10.7326 12 9.99937 12H5.99934C5.26602 12 4.66602 11.4 4.66602 10.6666V7.33334C4.66602 6.6 5.26602 6 5.99934 6H9.99937C10.7326 6 11.3326 6.6 11.3326 7.33334Z" fill="white"/>
<path d="M3.33334 7.33073V9.9974C3.33334 10.364 3.03334 10.664 2.66666 10.664C2.3 10.664 2 10.364 2 9.9974V7.33073C2 6.96406 2.3 6.66406 2.66666 6.66406C3.03334 6.66406 3.33334 6.96406 3.33334 7.33073Z" fill="white"/>
<path d="M13.9994 7.33073V9.9974C13.9994 10.364 13.6994 10.664 13.3327 10.664C12.966 10.664 12.666 10.364 12.666 9.9974V7.33073C12.666 6.96406 12.966 6.66406 13.3327 6.66406C13.6994 6.66406 13.9994 6.96406 13.9994 7.33073Z" fill="white"/>
<path d="M6.40064 5.06927H9.60063C10.1874 5.06927 10.6674 4.58927 10.6674 4.0026C10.6674 2.52927 9.47399 1.33594 8.00063 1.33594C6.52732 1.33594 5.33398 2.52927 5.33398 4.0026C5.33398 4.58927 5.81398 5.06927 6.40064 5.06927Z" fill="white"/>
</svg>
