<svg width="16" height="16" viewBox="0 0 16 16" fill="none" xmlns="http://www.w3.org/2000/svg">
<path d="M13.9276 7.0176C13.6542 7.0176 13.4276 6.79093 13.4276 6.51761V4.60428L8.00094 1.89094L2.57422 4.60428V6.51761C2.57422 6.79093 2.34755 7.0176 2.07422 7.0176C1.80088 7.0176 1.57422 6.79093 1.57422 6.51761V4.29761C1.57422 4.11094 1.68091 3.93761 1.85425 3.85094L7.78091 0.890934C7.92091 0.817606 8.08758 0.817606 8.22758 0.890934L14.1542 3.85094C14.3209 3.93761 14.4342 4.11094 14.4342 4.29761V6.51761C14.4276 6.79093 14.2009 7.0176 13.9276 7.0176Z" fill="white"/>
<path d="M8.00094 15.1683C7.92091 15.1683 7.84758 15.1483 7.78091 15.1149L1.85425 12.1549C1.68759 12.0683 1.57422 11.8949 1.57422 11.7083V9.48828C1.57422 9.21492 1.80088 8.98828 2.07422 8.98828C2.34755 8.98828 2.57422 9.21492 2.57422 9.48828V11.4016L8.00094 14.1149L13.4276 11.4016V9.48828C13.4276 9.21492 13.6542 8.98828 13.9276 8.98828C14.2009 8.98828 14.4276 9.21492 14.4276 9.48828V11.7083C14.4276 11.8949 14.3209 12.0683 14.1475 12.1549L8.22094 15.1149C8.15422 15.1483 8.08094 15.1683 8.00094 15.1683Z" fill="white"/>
<path d="M10.9591 7.999C10.9591 6.36573 9.63242 5.03906 7.99909 5.03906C6.36573 5.03906 5.03906 6.36573 5.03906 7.999C5.03906 9.46572 6.11241 10.679 7.51242 10.9124C7.51242 10.9324 7.50576 10.9458 7.50576 10.9591V14.6657C7.50576 14.939 7.73242 15.1657 8.00578 15.1657C8.27906 15.1657 8.50578 14.939 8.50578 14.6657V10.9591C8.50578 10.9391 8.49906 10.9257 8.49906 10.9124C9.89242 10.679 10.9591 9.46572 10.9591 7.999Z" fill="white"/>
</svg>
