<svg width="16" height="16" viewBox="0 0 16 16" fill="none" xmlns="http://www.w3.org/2000/svg">
<path fill-rule="evenodd" clip-rule="evenodd" d="M12.7334 12.7708C13.1267 12.1708 13.2734 11.864 13.5734 11.1908C11.3601 10.3508 11.0067 7.1974 13.1934 5.99073C12.5267 5.15073 11.5867 4.66406 10.7001 4.66406C10.0601 4.66406 9.62008 4.83073 9.22672 4.98407C8.89336 5.11073 8.59336 5.22406 8.22008 5.22406C7.82006 5.22406 7.46673 5.09741 7.0934 4.96407C6.68673 4.81741 6.26004 4.66406 5.7267 4.66406C4.73337 4.66406 3.67338 5.27073 3.00005 6.31073C2.05338 7.7774 2.22005 10.524 3.74671 12.8708C4.29338 13.7108 5.02671 14.6508 5.98005 14.664C6.38005 14.6708 6.64005 14.5508 6.92673 14.424C7.2534 14.2774 7.60673 14.1174 8.22672 14.1174C8.84672 14.1108 9.19336 14.2774 9.52008 14.424C9.80008 14.5508 10.0534 14.6708 10.4467 14.664C11.4134 14.6508 12.1867 13.6108 12.7334 12.7708Z" fill="white"/>
<path fill-rule="evenodd" clip-rule="evenodd" d="M10.5603 1.33594C10.667 2.06927 10.367 2.79595 9.97362 3.30261C9.55362 3.84927 8.82034 4.27594 8.11362 4.24927C7.98697 3.5426 8.31362 2.81593 8.71362 2.32927C9.16034 1.79593 9.91362 1.3826 10.5603 1.33594Z" fill="white"/>
</svg>
