<svg width="16" height="16" viewBox="0 0 16 16" fill="none" xmlns="http://www.w3.org/2000/svg">
<path d="M13.1674 6.0026C13.1674 3.15594 10.8474 0.835938 8.00063 0.835938C5.15398 0.835938 2.83398 3.15594 2.83398 6.0026C2.83398 6.27594 3.06066 6.5026 3.33398 6.5026C3.60732 6.5026 3.83398 6.27594 3.83398 6.0026C3.83398 3.7026 5.70066 1.83594 8.00063 1.83594C10.3006 1.83594 12.1674 3.7026 12.1674 6.0026C12.1674 8.3026 10.3006 10.1692 8.00063 10.1692C7.72732 10.1692 7.50066 10.396 7.50066 10.6692V14.6692C7.50066 14.9426 7.72732 15.1692 8.00063 15.1692C8.27399 15.1692 8.50063 14.9426 8.50063 14.6692V11.1426C11.114 10.8892 13.1674 8.6826 13.1674 6.0026Z" fill="white"/>
<path d="M10 13.1641H6C5.72666 13.1641 5.5 12.9374 5.5 12.6641C5.5 12.3908 5.72666 12.1641 6 12.1641H10C10.2734 12.1641 10.5 12.3908 10.5 12.6641C10.5 12.9374 10.2734 13.1641 10 13.1641Z" fill="white"/>
</svg>
