<svg width="16" height="16" viewBox="0 0 16 16" fill="none" xmlns="http://www.w3.org/2000/svg">
<path d="M11.2129 1.27344H4.78623C3.37289 1.27344 2.21289 2.43344 2.21289 3.84677V13.2401C2.21289 14.4401 3.07289 14.9468 4.12623 14.3668L7.37955 12.5601C7.72622 12.3668 8.28625 12.3668 8.62625 12.5601L11.8795 14.3668C12.9329 14.9535 13.7929 14.4468 13.7929 13.2401V3.84677C13.7863 2.43344 12.6329 1.27344 11.2129 1.27344ZM10.4129 6.0201L7.74622 8.68684C7.64622 8.78684 7.51955 8.83348 7.39288 8.83348C7.26622 8.83348 7.13955 8.78684 7.03955 8.68684L6.03955 7.6868C5.84623 7.49346 5.84623 7.17346 6.03955 6.98013C6.23289 6.7868 6.55289 6.7868 6.74622 6.98013L7.39288 7.6268L9.70625 5.31344C9.89953 5.1201 10.2195 5.1201 10.4129 5.31344C10.6063 5.50677 10.6063 5.82677 10.4129 6.0201Z" fill="white"/>
</svg>
