<svg width="16" height="16" viewBox="0 0 16 16" fill="none" xmlns="http://www.w3.org/2000/svg">
<path d="M10.6666 6.5H5.33334C4.87334 6.5 4.5 6.87334 4.5 7.33334V8.03336C4.52 8.02664 4.53334 8.02 4.55334 8.01336C4.63334 7.97334 4.72 7.94666 4.80666 7.92C4.84666 7.90666 4.88666 7.89334 4.93334 7.88C5.06666 7.85334 5.2 7.83334 5.34 7.83334H10.6734C10.8134 7.83334 10.9466 7.85334 11.08 7.88C11.12 7.88666 11.16 7.90666 11.2066 7.92C11.2934 7.94666 11.38 7.97334 11.46 8.01336C11.48 8.02 11.5 8.02664 11.5134 8.03336V7.33334C11.5 6.87334 11.1266 6.5 10.6666 6.5Z" fill="white"/>
<path d="M10.6666 8.83594H5.33334C4.87334 8.83594 4.5 9.20922 4.5 9.66922V10.0026H6.33334C6.60666 10.0026 6.83334 10.2292 6.83334 10.5026C6.83334 11.1426 7.36 11.6692 8 11.6692C8.64 11.6692 9.16664 11.1426 9.16664 10.5026C9.16664 10.2292 9.39336 10.0026 9.66664 10.0026H11.5V9.66922C11.5 9.20922 11.1266 8.83594 10.6666 8.83594Z" fill="white"/>
<path d="M10.6666 4.33594H5.33334C4.87334 4.33594 4.5 4.70927 4.5 5.16927V5.70927C4.75334 5.5826 5.03334 5.5026 5.33334 5.5026H10.6666C10.9666 5.5026 11.2466 5.5826 11.5 5.70927V5.16927C11.5 4.70927 11.1266 4.33594 10.6666 4.33594Z" fill="white"/>
<path d="M10.794 1.33594H5.20732C2.78066 1.33594 1.33398 2.7826 1.33398 5.20927V10.7892C1.33398 13.2226 2.78066 14.6692 5.20732 14.6692H10.7874C13.214 14.6692 14.6606 13.2226 14.6606 10.796V5.20927C14.6674 2.7826 13.2206 1.33594 10.794 1.33594ZM12.6674 11.0026H12.0006H10.1074C9.88063 11.956 9.02063 12.6692 8.00063 12.6692C6.98066 12.6692 6.12066 11.956 5.89398 11.0026H4.00066H3.33398C3.06066 11.0026 2.83398 10.776 2.83398 10.5026C2.83398 10.2292 3.06066 10.0026 3.33398 10.0026H3.50066V9.66924V9.33596V7.33594V5.16927C3.50066 4.15594 4.32066 3.33594 5.33398 3.33594H10.6674C11.6806 3.33594 12.5006 4.15594 12.5006 5.16927V7.33594V9.33596V9.66924V10.0026H12.6674C12.9406 10.0026 13.1674 10.2292 13.1674 10.5026C13.1674 10.776 12.9406 11.0026 12.6674 11.0026Z" fill="white"/>
</svg>
