<svg width="16" height="16" viewBox="0 0 16 16" fill="none" xmlns="http://www.w3.org/2000/svg">
<path d="M9.95352 1.66927V5.6026C9.95352 5.89594 9.60688 6.0426 9.39352 5.84927L8.22688 4.77594C8.10024 4.65594 7.9002 4.65594 7.77354 4.77594L6.60687 5.8426C6.39355 6.0426 6.04688 5.88927 6.04688 5.6026V1.66927C6.04688 1.4826 6.19355 1.33594 6.38021 1.33594H9.62024C9.80688 1.33594 9.95352 1.4826 9.95352 1.66927Z" fill="white"/>
<path d="M11.32 1.37391C11.1266 1.34725 10.9534 1.51391 10.9534 1.70725V5.72058C10.9534 6.22725 10.6534 6.68727 10.1866 6.89394C9.72 7.09394 9.18 7.00727 8.80664 6.66058L8.22664 6.12725C8.1 6.00725 7.90666 6.00725 7.77334 6.12725L7.19334 6.66058C6.95334 6.88727 6.64 7.00061 6.32666 7.00061C6.15334 7.00061 5.98 6.96727 5.81334 6.89394C5.34666 6.68727 5.04666 6.22725 5.04666 5.72058V1.70725C5.04666 1.51391 4.87334 1.34725 4.68 1.37391C2.81334 1.60725 2 2.86725 2 4.66725V11.3339C2 13.3339 3 14.6673 5.33334 14.6673H10.6666C13 14.6673 14 13.3339 14 11.3339V4.66725C14 2.86725 13.1866 1.60725 11.32 1.37391ZM11.6666 12.5006H6C5.72666 12.5006 5.5 12.2739 5.5 12.0006C5.5 11.7273 5.72666 11.5006 6 11.5006H11.6666C11.94 11.5006 12.1666 11.7273 12.1666 12.0006C12.1666 12.2739 11.94 12.5006 11.6666 12.5006ZM11.6666 9.83394H8.83336C8.56 9.83394 8.33336 9.6073 8.33336 9.33394C8.33336 9.06058 8.56 8.83394 8.83336 8.83394H11.6666C11.94 8.83394 12.1666 9.06058 12.1666 9.33394C12.1666 9.6073 11.94 9.83394 11.6666 9.83394Z" fill="white"/>
</svg>
