<svg width="16" height="16" viewBox="0 0 16 16" fill="none" xmlns="http://www.w3.org/2000/svg">
<path d="M11.2129 1.33594H4.78623C3.36623 1.33594 2.21289 2.49594 2.21289 3.90927V13.3026C2.21289 14.5026 3.07289 15.0092 4.12623 14.4292L7.37955 12.6226C7.72622 12.4292 8.28625 12.4292 8.62625 12.6226L11.8795 14.4292C12.9329 15.016 13.7929 14.5092 13.7929 13.3026V3.90927C13.7863 2.49594 12.6329 1.33594 11.2129 1.33594ZM9.66625 7.6026H6.33289C6.05956 7.6026 5.83289 7.37594 5.83289 7.1026C5.83289 6.82927 6.05956 6.6026 6.33289 6.6026H9.66625C9.93953 6.6026 10.1663 6.82927 10.1663 7.1026C10.1663 7.37594 9.93953 7.6026 9.66625 7.6026Z" fill="white"/>
</svg>
