<svg width="16" height="16" viewBox="0 0 16 16" fill="none" xmlns="http://www.w3.org/2000/svg">
<path d="M1.60078 2.39844C1.15896 2.39844 0.800781 2.75661 0.800781 3.19844V3.99844C0.800781 4.44026 1.15896 4.79844 1.60078 4.79844H14.4008C14.8426 4.79844 15.2008 4.44026 15.2008 3.99844V3.19844C15.2008 2.75661 14.8426 2.39844 14.4008 2.39844H1.60078Z" fill="#0F172A"/>
<path fill-rule="evenodd" clip-rule="evenodd" d="M1.59961 6H14.3996L13.7504 12.1675C13.6646 12.9818 12.978 13.6 12.1592 13.6H3.84003C3.02122 13.6 2.33454 12.9818 2.24882 12.1675L1.59961 6ZM5.77535 7.37574C6.00966 7.14142 6.38956 7.14142 6.62387 7.37574L7.99961 8.75144L9.37537 7.37574C9.60969 7.14142 9.98953 7.14142 10.2238 7.37574C10.4582 7.61005 10.4582 7.98995 10.2238 8.22424L8.84817 9.6L10.2238 10.9758C10.4582 11.2101 10.4582 11.5899 10.2238 11.8242C9.98953 12.0586 9.60969 12.0586 9.37537 11.8242L7.99961 10.4486L6.62387 11.8242C6.38956 12.0586 6.00966 12.0586 5.77535 11.8242C5.54103 11.5899 5.54103 11.2101 5.77535 10.9758L7.15108 9.6L5.77535 8.22424C5.54103 7.98995 5.54103 7.61005 5.77535 7.37574Z" fill="#0F172A"/>
</svg>
