<svg width="16" height="16" viewBox="0 0 16 16" fill="none" xmlns="http://www.w3.org/2000/svg">
<path d="M1.60078 2.39844C1.15896 2.39844 0.800781 2.75661 0.800781 3.19844V3.99844C0.800781 4.44026 1.15896 4.79844 1.60078 4.79844H14.4008C14.8426 4.79844 15.2008 4.44026 15.2008 3.99844V3.19844C15.2008 2.75661 14.8426 2.39844 14.4008 2.39844H1.60078Z" fill="#0F172A"/>
<path fill-rule="evenodd" clip-rule="evenodd" d="M1.59961 6H14.3996L13.7504 12.1675C13.6646 12.9818 12.978 13.6 12.1592 13.6H3.84003C3.02122 13.6 2.33454 12.9818 2.24882 12.1675L1.59961 6ZM5.59961 8.8C5.59961 8.35816 5.95779 8 6.39961 8H9.59961C10.0414 8 10.3996 8.35816 10.3996 8.8C10.3996 9.24184 10.0414 9.6 9.59961 9.6H6.39961C5.95779 9.6 5.59961 9.24184 5.59961 8.8Z" fill="#0F172A"/>
</svg>
