<svg width="16" height="16" viewBox="0 0 16 16" fill="none" xmlns="http://www.w3.org/2000/svg">
<path d="M13.4129 2.58927L2.25955 13.7426C2.22623 13.6092 2.21289 13.4626 2.21289 13.3026V3.90927C2.21289 2.49594 3.36623 1.33594 4.78623 1.33594H11.2129C12.1463 1.33594 12.9663 1.83594 13.4129 2.58927Z" fill="white"/>
<path d="M14.5126 1.48594C14.3126 1.28594 13.9859 1.28594 13.7859 1.48594L1.48594 13.7926C1.28594 13.9926 1.28594 14.3193 1.48594 14.5193C1.58594 14.6126 1.7126 14.666 1.84594 14.666C1.97927 14.666 2.10594 14.6126 2.20594 14.5126L14.5126 2.20594C14.7193 2.00594 14.7193 1.68594 14.5126 1.48594Z" fill="white"/>
<path d="M12.8595 5.14296L7.93279 10.0696C7.62611 10.3763 7.68611 10.8896 8.05945 11.1096L12.9861 14.0629C13.4328 14.3296 13.9928 14.0096 13.9928 13.4896V5.60964C13.9995 5.0163 13.2795 4.72296 12.8595 5.14296Z" fill="white"/>
</svg>
