<svg width="16" height="16" viewBox="0 0 16 16" fill="none" xmlns="http://www.w3.org/2000/svg">
<path d="M14.6674 3.33594V4.66927C14.6674 5.88927 14.114 6.54927 13.0006 6.64927C12.894 6.6626 12.7806 6.66927 12.6674 6.66927H3.33398C3.22066 6.66927 3.10732 6.6626 3.00066 6.64927C1.88732 6.54927 1.33398 5.88927 1.33398 4.66927V3.33594C1.33398 2.0026 2.00066 1.33594 3.33398 1.33594H12.6674C14.0006 1.33594 14.6674 2.0026 14.6674 3.33594Z" fill="white"/>
<path d="M3.66666 7.5C3.3 7.5 3 7.8 3 8.16664V12.6666C3 14 3.33334 14.6666 5 14.6666H11C12.6666 14.6666 13 14 13 12.6666V8.16664C13 7.8 12.7 7.5 12.3334 7.5H3.66666ZM9.21336 10.5H6.78666C6.51334 10.5 6.28666 10.2734 6.28666 10C6.28666 9.72664 6.51334 9.5 6.78666 9.5H9.21336C9.48664 9.5 9.71336 9.72664 9.71336 10C9.71336 10.2734 9.48664 10.5 9.21336 10.5Z" fill="white"/>
</svg>
