<svg width="16" height="16" viewBox="0 0 16 16" fill="none" xmlns="http://www.w3.org/2000/svg">
<path fill-rule="evenodd" clip-rule="evenodd" d="M1.60078 2.39844C1.15896 2.39844 0.800781 2.75661 0.800781 3.19844V3.99844C0.800781 4.44026 1.15896 4.79844 1.60078 4.79844H14.4008C14.8426 4.79844 15.2008 4.44026 15.2008 3.99844V3.19844C15.2008 2.75661 14.8426 2.39844 14.4008 2.39844H1.60078ZM1.60078 5.99844H14.4008L13.7516 12.166C13.6658 12.9803 12.9792 13.5984 12.1604 13.5984H3.8412C3.02239 13.5984 2.33571 12.9803 2.24999 12.166L1.60078 5.99844ZM8.00078 7.19844C8.33214 7.19844 8.60078 7.46707 8.60078 7.79844V9.83484L9.35478 8.99708C9.57646 8.75076 9.95582 8.73076 10.2021 8.95244C10.4485 9.17412 10.4685 9.55348 10.2468 9.7998L8.44678 11.7998C8.33294 11.9263 8.17086 11.9984 8.00078 11.9984C7.83069 11.9984 7.66859 11.9263 7.55481 11.7998L5.75481 9.7998C5.53313 9.55348 5.55309 9.17412 5.79941 8.95244C6.04571 8.73076 6.42509 8.75076 6.64676 8.99708L7.40078 9.83484V7.79844C7.40078 7.46707 7.66941 7.19844 8.00078 7.19844Z" fill="#0F172A"/>
</svg>
