<svg width="16" height="16" viewBox="0 0 16 16" fill="none" xmlns="http://www.w3.org/2000/svg">
<path d="M8.00063 1.33594C4.32066 1.33594 1.33398 4.3226 1.33398 8.0026C1.33398 11.6826 4.32066 14.6692 8.00063 14.6692C11.6806 14.6692 14.6674 11.6826 14.6674 8.0026C14.6674 4.3226 11.6806 1.33594 8.00063 1.33594ZM7.28732 11.436C7.28732 11.5026 7.27398 11.5626 7.24732 11.6292C7.19398 11.7492 7.10066 11.8492 6.97398 11.9026C6.91398 11.9292 6.84732 11.9426 6.78066 11.9426C6.71398 11.9426 6.65398 11.9292 6.58732 11.9026C6.52732 11.876 6.47398 11.8426 6.42732 11.796L4.40066 9.76924C4.20732 9.57596 4.20732 9.25596 4.40066 9.0626C4.59398 8.86924 4.91398 8.86924 5.10732 9.0626L6.28066 10.236V4.56927C6.28066 4.29594 6.50732 4.06927 6.78066 4.06927C7.05398 4.06927 7.28066 4.29594 7.28066 4.56927V11.436H7.28732ZM11.594 6.94927C11.494 7.04927 11.3674 7.09594 11.2406 7.09594C11.114 7.09594 10.9874 7.04927 10.8874 6.94927L9.71399 5.77594V11.4426C9.71399 11.716 9.48735 11.9426 9.21399 11.9426C8.94063 11.9426 8.71399 11.716 8.71399 11.4426V4.56927C8.71399 4.5026 8.72735 4.4426 8.75399 4.37594C8.80735 4.25594 8.90063 4.15594 9.02735 4.1026C9.14735 4.04927 9.28735 4.04927 9.40735 4.1026C9.46735 4.12927 9.52063 4.1626 9.56735 4.20927L11.594 6.23594C11.7874 6.43594 11.7874 6.74927 11.594 6.94927Z" fill="white"/>
</svg>
