<svg width="16" height="16" viewBox="0 0 16 16" fill="none" xmlns="http://www.w3.org/2000/svg">
<path d="M10.794 1.33594H5.20732C2.78066 1.33594 1.33398 2.7826 1.33398 5.20927V10.7892C1.33398 13.2226 2.78066 14.6692 5.20732 14.6692H10.7874C13.214 14.6692 14.6606 13.2226 14.6606 10.796V5.20927C14.6674 2.7826 13.2206 1.33594 10.794 1.33594ZM11.9006 9.4026C11.874 9.4626 11.8406 9.51596 11.794 9.5626L9.76735 11.5892C9.66735 11.6892 9.54063 11.736 9.41399 11.736C9.28735 11.736 9.16063 11.6892 9.06063 11.5892C8.86735 11.396 8.86735 11.076 9.06063 10.8826L10.234 9.70924H4.56732C4.29398 9.70924 4.06732 9.4826 4.06732 9.20924C4.06732 8.93596 4.29398 8.70924 4.56732 8.70924H11.4406C11.5074 8.70924 11.5674 8.7226 11.634 8.74924C11.754 8.8026 11.854 8.89596 11.9074 9.0226C11.9474 9.1426 11.9474 9.2826 11.9006 9.4026ZM11.434 7.28927H4.56732C4.50066 7.28927 4.44066 7.27594 4.37398 7.24927C4.25398 7.19594 4.15398 7.1026 4.10066 6.97594C4.04732 6.85594 4.04732 6.71594 4.10066 6.59594C4.12732 6.53594 4.16066 6.4826 4.20732 6.43594L6.23398 4.40927C6.42732 4.21594 6.74732 4.21594 6.94066 4.40927C7.13398 4.6026 7.13398 4.9226 6.94066 5.11594L5.77398 6.28927H11.4406C11.714 6.28927 11.9406 6.51594 11.9406 6.78927C11.9406 7.0626 11.714 7.28927 11.434 7.28927Z" fill="white"/>
</svg>
