<svg width="16" height="16" viewBox="0 0 16 16" fill="none" xmlns="http://www.w3.org/2000/svg">
<path fill-rule="evenodd" clip-rule="evenodd" d="M12.2502 9.1379C11.6212 11.4851 9.20856 12.8781 6.86128 12.2492C6.08607 12.0414 5.41643 11.6401 4.88866 11.1113L4.63943 10.8621L6.58601 10.8618C6.91738 10.8617 7.18596 10.593 7.18591 10.2617C7.18584 9.9303 6.91717 9.66174 6.58579 9.66182L3.19105 9.66238C3.03191 9.66238 2.87932 9.72566 2.76681 9.83822C2.65431 9.95078 2.59112 10.1034 2.59116 10.2625L2.59188 13.656C2.59194 13.9873 2.86063 14.2559 3.192 14.2558C3.52337 14.2558 3.79194 13.9871 3.79188 13.6557L3.79147 11.7113L4.03935 11.9591C4.71217 12.6331 5.56631 13.1445 6.55071 13.4082C9.53808 14.2087 12.6088 12.4359 13.4093 9.44846C13.495 9.12838 13.3051 8.79942 12.985 8.71358C12.665 8.62782 12.3359 8.81782 12.2502 9.1379ZM13.2333 6.15997C13.3458 6.04743 13.409 5.89479 13.409 5.73564L13.4085 2.34208C13.4084 2.01072 13.1397 1.74213 12.8083 1.74219C12.477 1.74224 12.2084 2.01092 12.2085 2.34228L12.2087 4.28698L11.9609 4.03912C11.2881 3.36519 10.4338 2.85364 9.44944 2.58989C6.46207 1.78942 3.39138 3.56228 2.59091 6.54969C2.50514 6.86977 2.69509 7.19877 3.01517 7.28454C3.33525 7.3703 3.66425 7.18035 3.75002 6.86027C4.37896 4.51302 6.79164 3.12006 9.13888 3.749C9.91416 3.95673 10.5838 4.35807 11.1116 4.88685L11.3605 5.13574H9.41488C9.08352 5.13574 8.81488 5.40437 8.81488 5.73574C8.81488 6.06712 9.08352 6.33574 9.41488 6.33574H12.809C12.9682 6.33574 13.1208 6.27252 13.2333 6.15997Z" fill="#0F172A"/>
</svg>
