<svg width="16" height="16" viewBox="0 0 16 16" fill="none" xmlns="http://www.w3.org/2000/svg">
<path d="M8.00063 1.33594C4.32066 1.33594 1.33398 4.3226 1.33398 8.0026C1.33398 11.6826 4.32066 14.6692 8.00063 14.6692C11.6806 14.6692 14.6674 11.6826 14.6674 8.0026C14.6674 4.3226 11.6806 1.33594 8.00063 1.33594ZM10.354 8.68924L8.35399 10.6892C8.25399 10.7892 8.12735 10.836 8.00063 10.836C7.87398 10.836 7.74732 10.7892 7.64732 10.6892L5.64732 8.68924C5.45398 8.49596 5.45398 8.17596 5.64732 7.9826C5.84066 7.78927 6.16066 7.78927 6.35398 7.9826L7.50066 9.12924V5.66927C7.50066 5.39594 7.72732 5.16927 8.00063 5.16927C8.27399 5.16927 8.50063 5.39594 8.50063 5.66927V9.12924L9.64735 7.9826C9.84063 7.78927 10.1606 7.78927 10.354 7.9826C10.5474 8.17596 10.5474 8.49596 10.354 8.68924Z" fill="white"/>
</svg>
