<svg width="16" height="16" viewBox="0 0 16 16" fill="none" xmlns="http://www.w3.org/2000/svg">
<path d="M10.794 1.33594H5.20732C2.78066 1.33594 1.33398 2.7826 1.33398 5.20927V10.7892C1.33398 13.2226 2.78066 14.6692 5.20732 14.6692H10.7874C13.214 14.6692 14.6606 13.2226 14.6606 10.796V5.20927C14.6674 2.7826 13.2206 1.33594 10.794 1.33594ZM11.214 7.21594C11.0206 7.40927 10.7006 7.40927 10.5074 7.21594L8.50063 5.20927V12.0026C8.50063 12.276 8.27399 12.5026 8.00063 12.5026C7.72732 12.5026 7.50066 12.276 7.50066 12.0026V5.20927L5.49398 7.21594C5.30066 7.40927 4.98066 7.40927 4.78732 7.21594C4.68732 7.11594 4.64066 6.98927 4.64066 6.8626C4.64066 6.73594 4.69398 6.6026 4.78732 6.50927L7.64732 3.64927C7.74066 3.55594 7.86732 3.5026 8.00063 3.5026C8.13399 3.5026 8.26063 3.55594 8.35399 3.64927L11.214 6.50927C11.4074 6.7026 11.4074 7.01594 11.214 7.21594Z" fill="white"/>
</svg>
