<svg width="16" height="16" viewBox="0 0 16 16" fill="none" xmlns="http://www.w3.org/2000/svg">
<path d="M8.00063 1.33594C4.32066 1.33594 1.33398 4.3226 1.33398 8.0026C1.33398 11.6826 4.32066 14.6692 8.00063 14.6692C11.6806 14.6692 14.6674 11.6826 14.6674 8.0026C14.6674 4.3226 11.6806 1.33594 8.00063 1.33594ZM10.334 8.5026H6.87398L8.02063 9.64924C8.21399 9.8426 8.21399 10.1626 8.02063 10.356C7.92066 10.456 7.79398 10.5026 7.66732 10.5026C7.54066 10.5026 7.41398 10.456 7.31398 10.356L5.31398 8.35596C5.12066 8.1626 5.12066 7.8426 5.31398 7.64927L7.31398 5.64927C7.50732 5.45594 7.82732 5.45594 8.02063 5.64927C8.21399 5.8426 8.21399 6.1626 8.02063 6.35594L6.87398 7.5026H10.334C10.6074 7.5026 10.834 7.72927 10.834 8.0026C10.834 8.27596 10.6074 8.5026 10.334 8.5026Z" fill="white"/>
</svg>
