<svg width="16" height="16" viewBox="0 0 16 16" fill="none" xmlns="http://www.w3.org/2000/svg">
<path fill-rule="evenodd" clip-rule="evenodd" d="M7.99922 13.5984C7.66785 13.5984 7.39922 13.3298 7.39922 12.9984V4.4881L4.23172 7.8143C4.00204 8.05316 3.62222 8.0606 3.38336 7.83094C3.14449 7.60126 3.13704 7.22144 3.36672 6.98257L7.56672 2.58257C7.67984 2.46493 7.836 2.39844 7.99922 2.39844C8.16242 2.39844 8.31858 2.46493 8.4317 2.58257L12.6317 6.98257C12.8614 7.22144 12.8539 7.60126 12.6151 7.83093C12.3763 8.0606 11.9964 8.05316 11.7667 7.8143L8.59922 4.4881V12.9984C8.59922 13.3298 8.33058 13.5984 7.99922 13.5984Z" fill="#0F172A"/>
</svg>
