<svg width="16" height="16" viewBox="0 0 16 16" fill="none" xmlns="http://www.w3.org/2000/svg">
<path d="M8.00063 1.33594C4.32732 1.33594 1.33398 4.32927 1.33398 8.0026C1.33398 11.676 4.32732 14.6692 8.00063 14.6692C11.674 14.6692 14.6674 11.676 14.6674 8.0026C14.6674 4.32927 11.674 1.33594 8.00063 1.33594ZM10.7074 7.51594L8.35399 9.86924C8.25399 9.96924 8.12735 10.016 8.00063 10.016C7.87398 10.016 7.74732 9.96924 7.64732 9.86924L5.29398 7.51594C5.10066 7.3226 5.10066 7.0026 5.29398 6.80927C5.48732 6.61594 5.80732 6.61594 6.00066 6.80927L8.00063 8.80924L10.0006 6.80927C10.194 6.61594 10.514 6.61594 10.7074 6.80927C10.9006 7.0026 10.9006 7.31594 10.7074 7.51594Z" fill="white"/>
</svg>
