<svg width="16" height="16" viewBox="0 0 16 16" fill="none" xmlns="http://www.w3.org/2000/svg">
<path d="M10.794 1.33594H5.20732C2.78066 1.33594 1.33398 2.7826 1.33398 5.20927V10.7892C1.33398 13.2226 2.78066 14.6692 5.20732 14.6692H10.7874C13.214 14.6692 14.6606 13.2226 14.6606 10.796V5.20927C14.6674 2.7826 13.2206 1.33594 10.794 1.33594ZM12.354 8.35596L9.49399 11.216C9.39399 11.316 9.26735 11.3626 9.14063 11.3626C9.01399 11.3626 8.88735 11.316 8.78735 11.216C8.59399 11.0226 8.59399 10.7026 8.78735 10.5092L10.794 8.5026H4.00066C3.72732 8.5026 3.50066 8.27596 3.50066 8.0026C3.50066 7.72927 3.72732 7.5026 4.00066 7.5026H10.794L8.78735 5.49594C8.59399 5.3026 8.59399 4.9826 8.78735 4.78927C8.98063 4.59594 9.30063 4.59594 9.49399 4.78927L12.354 7.64927C12.4474 7.7426 12.5006 7.86927 12.5006 8.0026C12.5006 8.13596 12.4474 8.2626 12.354 8.35596Z" fill="white"/>
</svg>
