<svg width="16" height="16" viewBox="0 0 16 16" fill="none" xmlns="http://www.w3.org/2000/svg">
<g clip-path="url(#clip0_13_12284)">
<path d="M8 15.1692C7.72666 15.1692 7.5 14.9426 7.5 14.6692V13.3359C7.5 13.0626 7.72666 12.8359 8 12.8359C8.27336 12.8359 8.5 13.0626 8.5 13.3359V14.6692C8.5 14.9426 8.27336 15.1692 8 15.1692Z" fill="white"/>
<path d="M8 12.4974C7.72666 12.4974 7.5 12.2708 7.5 11.9974V10.6641C7.5 10.3908 7.72666 10.1641 8 10.1641C8.27336 10.1641 8.5 10.3908 8.5 10.6641V11.9974C8.5 12.2708 8.27336 12.4974 8 12.4974Z" fill="white"/>
<path d="M8 9.83076C7.72666 9.83076 7.5 9.60404 7.5 9.33076V7.33073C7.5 4.48406 9.82 2.16406 12.6666 2.16406H14.6666C14.94 2.16406 15.1666 2.39073 15.1666 2.66406C15.1666 2.9374 14.94 3.16406 14.6666 3.16406H12.6666C10.3666 3.16406 8.5 5.03073 8.5 7.33073V9.33076C8.5 9.60404 8.27336 9.83076 8 9.83076Z" fill="white"/>
<path d="M8.00063 9.83076C7.72732 9.83076 7.50066 9.60404 7.50066 9.33076V7.33073C7.50066 5.03073 5.63398 3.16406 3.33398 3.16406H1.33398C1.06066 3.16406 0.833984 2.9374 0.833984 2.66406C0.833984 2.39073 1.06066 2.16406 1.33398 2.16406H3.33398C6.18066 2.16406 8.50063 4.48406 8.50063 7.33073V9.33076C8.50063 9.60404 8.27399 9.83076 8.00063 9.83076Z" fill="white"/>
<path d="M2.6676 4.50094C2.54094 4.50094 2.41427 4.45427 2.31427 4.35427L0.98094 3.02094C0.787603 2.8276 0.787603 2.5076 0.98094 2.31427L2.31427 0.980938C2.5076 0.787604 2.8276 0.787604 3.02094 0.980938C3.21427 1.17427 3.21427 1.49427 3.02094 1.6876L2.04094 2.6676L3.02094 3.6476C3.21427 3.84094 3.21427 4.16094 3.02094 4.35427C2.92094 4.45427 2.79427 4.50094 2.6676 4.50094Z" fill="white"/>
<path d="M13.3343 4.50094C13.2076 4.50094 13.081 4.45427 12.981 4.35427C12.7876 4.16094 12.7876 3.84094 12.981 3.6476L13.961 2.6676L12.981 1.6876C12.7876 1.49427 12.7876 1.17427 12.981 0.980938C13.1743 0.787604 13.4943 0.787604 13.6876 0.980938L15.021 2.31427C15.2143 2.5076 15.2143 2.8276 15.021 3.02094L13.6876 4.35427C13.5876 4.45427 13.461 4.50094 13.3343 4.50094Z" fill="white"/>
</g>
<defs>
<clipPath id="clip0_13_12284">
<rect width="16" height="16" fill="white"/>
</clipPath>
</defs>
</svg>
