<svg width="16" height="16" viewBox="0 0 16 16" fill="none" xmlns="http://www.w3.org/2000/svg">
<path d="M10.794 1.33594H5.20732C2.78066 1.33594 1.33398 2.7826 1.33398 5.20927V10.7892C1.33398 13.2226 2.78066 14.6692 5.20732 14.6692H10.7874C13.214 14.6692 14.6606 13.2226 14.6606 10.796V5.20927C14.6674 2.7826 13.2206 1.33594 10.794 1.33594ZM9.19399 10.0026C9.38735 10.196 9.38735 10.516 9.19399 10.7092C9.09399 10.8092 8.96735 10.856 8.84063 10.856C8.71399 10.856 8.58735 10.8092 8.48735 10.7092L6.13398 8.35596C5.94066 8.1626 5.94066 7.8426 6.13398 7.64927L8.48735 5.29594C8.68063 5.1026 9.00063 5.1026 9.19399 5.29594C9.38735 5.48927 9.38735 5.80927 9.19399 6.0026L7.19398 8.0026L9.19399 10.0026Z" fill="white"/>
</svg>
