<svg width="16" height="16" viewBox="0 0 16 16" fill="none" xmlns="http://www.w3.org/2000/svg">
<path fill-rule="evenodd" clip-rule="evenodd" d="M8.00078 4C8.33214 4 8.60078 4.26863 8.60078 4.6V9.91032L10.1683 8.18416C10.398 7.94527 10.7778 7.93782 11.0166 8.16752C11.2555 8.3972 11.2629 8.77704 11.0333 9.01584L8.43326 11.8158C8.32014 11.9335 8.16398 12 8.00078 12C7.83757 12 7.68141 11.9335 7.56829 11.8158L4.96829 9.01584C4.73861 8.77704 4.74605 8.3972 4.98492 8.16752C5.22378 7.93782 5.60361 7.94527 5.83329 8.18416L7.40078 9.91032V4.6C7.40078 4.26863 7.66941 4 8.00078 4Z" fill="#0F172A"/>
</svg>
