<svg width="16" height="16" viewBox="0 0 16 16" fill="none" xmlns="http://www.w3.org/2000/svg">
<path fill-rule="evenodd" clip-rule="evenodd" d="M0.976517 4.17964C1.21083 3.94533 1.59073 3.94533 1.82504 4.17964L5.60078 7.95538L8.61558 4.94058C8.73574 4.8204 8.90126 4.75682 9.07102 4.76566C9.24078 4.7745 9.39878 4.8549 9.50582 4.98692C10.8593 6.65586 11.9112 8.61091 12.5559 10.7899L13.8156 8.60803C13.9813 8.32107 14.3482 8.22275 14.6352 8.38843C14.9221 8.55411 15.0205 8.92107 14.8548 9.20803L12.8749 12.6373C12.7093 12.9244 12.3423 13.0227 12.0553 12.857L8.62598 10.8771C8.33902 10.7114 8.2407 10.3444 8.40638 10.0575C8.57206 9.77043 8.93902 9.67211 9.22598 9.83787L11.3929 11.0888C10.8601 9.30603 10.0343 7.68712 8.98302 6.27018L6.02505 9.22819C5.91253 9.34067 5.75991 9.40387 5.60078 9.40387C5.44165 9.40387 5.28904 9.34067 5.17652 9.22819L0.976517 5.02817C0.742203 4.79386 0.742203 4.41395 0.976517 4.17964Z" fill="#0F172A"/>
</svg>
