<svg width="16" height="16" viewBox="0 0 16 16" fill="none" xmlns="http://www.w3.org/2000/svg">
<path fill-rule="evenodd" clip-rule="evenodd" d="M10.5599 1.79329C10.3345 2.03612 10.3485 2.41576 10.5914 2.64124L12.2717 4.20156H5.39961C5.06824 4.20156 4.79961 4.47019 4.79961 4.80156C4.79961 5.13294 5.06824 5.40156 5.39961 5.40156H12.2717L10.5914 6.96189C10.3485 7.18737 10.3345 7.56701 10.5599 7.80983C10.7854 8.05268 11.165 8.06676 11.4078 7.84124L14.2078 5.24124C14.3302 5.12771 14.3996 4.9684 14.3996 4.80156C14.3996 4.63472 14.3302 4.47542 14.2078 4.36189L11.4078 1.76189C11.165 1.53641 10.7854 1.55047 10.5599 1.79329ZM5.43928 8.19332C5.2138 7.95047 4.83416 7.93641 4.59134 8.16188L1.79134 10.7619C1.66908 10.8754 1.59961 11.0348 1.59961 11.2016C1.59961 11.3684 1.66908 11.5277 1.79134 11.6412L4.59134 14.2412C4.83416 14.4668 5.2138 14.4527 5.43928 14.2098C5.66477 13.967 5.65071 13.5874 5.40788 13.3619L3.72753 11.8016H10.5996C10.931 11.8016 11.1996 11.5329 11.1996 11.2016C11.1996 10.8702 10.931 10.6016 10.5996 10.6016H3.72753L5.40788 9.04124C5.65071 8.81572 5.66477 8.43612 5.43928 8.19332Z" fill="#0F172A"/>
</svg>
