<svg width="16" height="16" viewBox="0 0 16 16" fill="none" xmlns="http://www.w3.org/2000/svg">
<path d="M10.794 1.33594H5.20732C2.78066 1.33594 1.33398 2.7826 1.33398 5.20927V10.7892C1.33398 13.2226 2.78066 14.6692 5.20732 14.6692H10.7874C13.214 14.6692 14.6606 13.2226 14.6606 10.796V5.20927C14.6674 2.7826 13.2206 1.33594 10.794 1.33594ZM12.9006 5.89594C12.874 5.95594 12.8406 6.00927 12.794 6.05594L11.594 7.25594C11.494 7.35594 11.3674 7.4026 11.2406 7.4026C11.114 7.4026 10.9874 7.35594 10.8874 7.25594C10.694 7.0626 10.694 6.7426 10.8874 6.54927L11.234 6.2026H11.134C9.73399 6.2026 8.58735 7.3426 8.58735 8.7426V10.0492V11.496C8.58735 11.7692 8.36063 11.996 8.08735 11.996C7.81398 11.996 7.58732 11.7692 7.58732 11.496V10.0492V8.7426C7.58732 7.3426 6.44732 6.2026 5.04732 6.2026H4.76732L5.11398 6.54927C5.30732 6.7426 5.30732 7.0626 5.11398 7.25594C5.01398 7.35594 4.88732 7.4026 4.76066 7.4026C4.63398 7.4026 4.50732 7.35594 4.40732 7.25594L3.20732 6.05594C3.01398 5.8626 3.01398 5.5426 3.20732 5.34927L4.40732 4.14927C4.60066 3.95594 4.92066 3.95594 5.11398 4.14927C5.30732 4.3426 5.30732 4.6626 5.11398 4.85594L4.76732 5.2026H5.05398C6.35398 5.2026 7.48066 5.91594 8.09399 6.9626C8.70735 5.91594 9.83399 5.2026 11.1406 5.2026H11.2406L10.894 4.85594C10.7006 4.6626 10.7006 4.3426 10.894 4.14927C11.0874 3.95594 11.4074 3.95594 11.6006 4.14927L12.8006 5.34927C12.8474 5.39594 12.8806 5.44927 12.9074 5.50927C12.954 5.63594 12.954 5.77594 12.9006 5.89594Z" fill="white"/>
</svg>
