<svg width="16" height="16" viewBox="0 0 16 16" fill="none" xmlns="http://www.w3.org/2000/svg">
<path d="M10.6238 6.22583L13.1996 3.65009V5.80156C13.1996 6.13293 13.4682 6.40156 13.7996 6.40156C14.131 6.40156 14.3996 6.13293 14.3996 5.80156V2.20156C14.3996 1.87019 14.131 1.60156 13.7996 1.60156H10.1996C9.86825 1.60156 9.59961 1.87019 9.59961 2.20156C9.59961 2.53293 9.86825 2.80156 10.1996 2.80156H12.351L9.77537 5.3773C9.54105 5.61161 9.54105 5.99151 9.77537 6.22583C10.0097 6.46014 10.3895 6.46014 10.6238 6.22583Z" fill="#0F172A"/>
<path d="M1.59961 13.8016V10.2016C1.59961 9.8702 1.86824 9.60156 2.19961 9.60156C2.53098 9.60156 2.79961 9.8702 2.79961 10.2016V12.353L5.37535 9.77732C5.60966 9.543 5.98956 9.543 6.22387 9.77732C6.45819 10.0116 6.45819 10.3915 6.22387 10.6258L3.64814 13.2016H5.79961C6.13098 13.2016 6.39961 13.4702 6.39961 13.8016C6.39961 14.1329 6.13098 14.4016 5.79961 14.4016H2.19961C2.04606 14.4016 1.89251 14.343 1.77535 14.2258C1.71782 14.1683 1.67442 14.102 1.64514 14.0312C1.6158 13.9605 1.59961 13.8829 1.59961 13.8016Z" fill="#0F172A"/>
<path d="M9.77537 10.6258L12.351 13.2016H10.1996C9.86825 13.2016 9.59961 13.4702 9.59961 13.8016C9.59961 14.1329 9.86825 14.4016 10.1996 14.4016H13.7996C13.9531 14.4016 14.1067 14.343 14.2238 14.2258C14.2814 14.1683 14.3248 14.102 14.3541 14.0312C14.3834 13.9605 14.3996 13.8829 14.3996 13.8016V10.2016C14.3996 9.8702 14.131 9.60156 13.7996 9.60156C13.4682 9.60156 13.1996 9.8702 13.1996 10.2016V12.353L10.6238 9.77732C10.3895 9.543 10.0097 9.543 9.77537 9.77732C9.54105 10.0116 9.54105 10.3915 9.77537 10.6258Z" fill="#0F172A"/>
<path d="M2.79961 3.65009L5.37535 6.22583C5.60966 6.46014 5.98956 6.46014 6.22387 6.22583C6.45819 5.99151 6.45819 5.61161 6.22387 5.3773L3.64814 2.80156H5.79961C6.13098 2.80156 6.39961 2.53293 6.39961 2.20156C6.39961 1.87019 6.13098 1.60156 5.79961 1.60156H2.19961C1.86824 1.60156 1.59961 1.87019 1.59961 2.20156V5.80156C1.59961 6.13293 1.86824 6.40156 2.19961 6.40156C2.53098 6.40156 2.79961 6.13293 2.79961 5.80156V3.65009Z" fill="#0F172A"/>
</svg>
