<svg width="16" height="16" viewBox="0 0 16 16" fill="none" xmlns="http://www.w3.org/2000/svg">
<path fill-rule="evenodd" clip-rule="evenodd" d="M10.9992 5.60078H8.59922V2.9287L10.1595 4.60905C10.3851 4.85188 10.7647 4.86594 11.0075 4.64046C11.2503 4.41497 11.2643 4.03533 11.0389 3.79251L8.4389 0.992509C8.32538 0.870253 8.16602 0.800781 7.99922 0.800781C7.83238 0.800781 7.67307 0.870253 7.55954 0.992509L4.95954 3.79251C4.73406 4.03533 4.74812 4.41497 4.99095 4.64045C5.23377 4.86594 5.61341 4.85188 5.83889 4.60905L7.39922 2.9287V5.60078H4.99922C4.00511 5.60078 3.19922 6.40667 3.19922 7.40078V13.4008C3.19922 14.3949 4.00511 15.2008 4.99922 15.2008H10.9992C11.9933 15.2008 12.7992 14.3949 12.7992 13.4008V7.40078C12.7992 6.40667 11.9933 5.60078 10.9992 5.60078ZM8.59922 5.60078H7.39922V9.80078C7.39922 10.1321 7.66785 10.4008 7.99922 10.4008C8.33058 10.4008 8.59922 10.1321 8.59922 9.80078V5.60078Z" fill="#0F172A"/>
</svg>
