<svg width="16" height="16" viewBox="0 0 16 16" fill="none" xmlns="http://www.w3.org/2000/svg">
<path d="M8.00063 1.33594C4.32732 1.33594 1.33398 4.32927 1.33398 8.0026C1.33398 11.676 4.32732 14.6692 8.00063 14.6692C11.674 14.6692 14.6674 11.676 14.6674 8.0026C14.6674 4.32927 11.674 1.33594 8.00063 1.33594ZM10.7074 9.19596C10.6074 9.29596 10.4806 9.3426 10.354 9.3426C10.2274 9.3426 10.1006 9.29596 10.0006 9.19596L8.00063 7.19594L6.00066 9.19596C5.80732 9.38924 5.48732 9.38924 5.29398 9.19596C5.10066 9.0026 5.10066 8.6826 5.29398 8.48924L7.64732 6.13594C7.84066 5.9426 8.16063 5.9426 8.35399 6.13594L10.7074 8.48924C10.9006 8.68924 10.9006 9.0026 10.7074 9.19596Z" fill="white"/>
</svg>
