<svg width="16" height="16" viewBox="0 0 16 16" fill="none" xmlns="http://www.w3.org/2000/svg">
<path fill-rule="evenodd" clip-rule="evenodd" d="M8.00078 1.60156C8.33214 1.60156 8.60078 1.87019 8.60078 2.20156V12.2736L10.1611 10.5933C10.3866 10.3504 10.7662 10.3364 11.009 10.5619C11.2519 10.7874 11.266 11.167 11.0405 11.4098L8.44046 14.2098C8.32694 14.3321 8.16766 14.4016 8.00078 14.4016C7.83394 14.4016 7.67464 14.3321 7.56111 14.2098L4.96111 11.4098C4.73563 11.167 4.74968 10.7874 4.99251 10.5619C5.23534 10.3364 5.61498 10.3504 5.84046 10.5933L7.40078 12.2736V2.20156C7.40078 1.87019 7.66941 1.60156 8.00078 1.60156Z" fill="#0F172A"/>
</svg>
