<svg width="16" height="16" viewBox="0 0 16 16" fill="none" xmlns="http://www.w3.org/2000/svg">
<path d="M5.02426 4.17573C4.78995 3.94142 4.41005 3.94142 4.17573 4.17573C3.94142 4.41005 3.94142 4.78995 4.17573 5.02426L9.95144 10.8H5.4C5.06863 10.8 4.8 11.0686 4.8 11.4C4.8 11.7314 5.06863 12 5.4 12H11.4C11.4814 12 11.559 11.9838 11.6297 11.9545C11.6988 11.9258 11.7638 11.8838 11.8203 11.8282C11.823 11.8256 11.8256 11.823 11.8282 11.8203C11.8838 11.7638 11.9258 11.6988 11.9545 11.6297C11.9838 11.559 12 11.4814 12 11.4V5.4C12 5.06863 11.7314 4.8 11.4 4.8C11.0686 4.8 10.8 5.06863 10.8 5.4V9.95144L5.02426 4.17573Z" fill="#0F172A"/>
</svg>
