<svg width="16" height="16" viewBox="0 0 16 16" fill="none" xmlns="http://www.w3.org/2000/svg">
<path fill-rule="evenodd" clip-rule="evenodd" d="M6.2348 1.78728C6.4636 2.02698 6.45477 2.40677 6.21507 2.63558L2.89832 5.80156H10.9008C13.2756 5.80156 15.2008 7.72674 15.2008 10.1016C15.2008 12.4764 13.2756 14.4016 10.9008 14.4016H8.60078C8.26942 14.4016 8.00078 14.1329 8.00078 13.8016C8.00078 13.4702 8.26942 13.2016 8.60078 13.2016H10.9008C12.6129 13.2016 14.0008 11.8136 14.0008 10.1016C14.0008 8.38948 12.6129 7.00156 10.9008 7.00156H2.89832L6.21507 10.1676C6.45477 10.3964 6.4636 10.7761 6.2348 11.0159C6.00599 11.2556 5.6262 11.2644 5.38649 11.0356L0.986493 6.83558C0.867885 6.72236 0.800781 6.56553 0.800781 6.40156C0.800781 6.2376 0.867885 6.08077 0.986493 5.96755L5.38649 1.76755C5.6262 1.53875 6.00599 1.54758 6.2348 1.78728Z" fill="#0F172A"/>
</svg>
