<svg width="16" height="16" viewBox="0 0 16 16" fill="none" xmlns="http://www.w3.org/2000/svg">
<path fill-rule="evenodd" clip-rule="evenodd" d="M7.99922 2.39844C8.33058 2.39844 8.59922 2.66707 8.59922 2.99844V11.5088L11.7667 8.1826C11.9964 7.94371 12.3763 7.93626 12.6151 8.16596C12.8539 8.39564 12.8614 8.77548 12.6317 9.01428L8.4317 13.4143C8.31858 13.532 8.16242 13.5984 7.99922 13.5984C7.83601 13.5984 7.67984 13.532 7.56672 13.4143L3.36672 9.01428C3.13704 8.77548 3.14449 8.39564 3.38335 8.16596C3.62222 7.93626 4.00204 7.94371 4.23172 8.1826L7.39922 11.5088V2.99844C7.39922 2.66707 7.66785 2.39844 7.99922 2.39844Z" fill="#0F172A"/>
</svg>
