<svg width="16" height="16" viewBox="0 0 16 16" fill="none" xmlns="http://www.w3.org/2000/svg">
<path fill-rule="evenodd" clip-rule="evenodd" d="M10.0624 3.90189C10.1481 3.58181 10.4772 3.39186 10.7973 3.47763L14.6221 4.5025C14.7758 4.54368 14.9069 4.64424 14.9864 4.78205C15.066 4.91986 15.0876 5.08363 15.0464 5.23735L14.0215 9.06218C13.9357 9.38226 13.6067 9.57226 13.2866 9.4865C12.9665 9.40074 12.7766 9.0717 12.8624 8.75162L13.51 6.33482C11.705 7.44694 10.2041 8.8713 9.03558 10.497C8.93286 10.6399 8.77246 10.7306 8.59694 10.7448C8.4215 10.7591 8.24862 10.6955 8.12414 10.5711L5.60078 8.04778L1.82504 11.8235C1.59073 12.0578 1.21083 12.0578 0.976517 11.8235C0.742203 11.5891 0.742203 11.2093 0.976517 10.975L5.17652 6.77496C5.41083 6.54065 5.79073 6.54065 6.02505 6.77496L8.4839 9.23386C9.6847 7.70363 11.1714 6.3597 12.9201 5.28879L10.4866 4.63674C10.1665 4.55097 9.97662 4.22197 10.0624 3.90189Z" fill="#0F172A"/>
</svg>
