<svg width="16" height="16" viewBox="0 0 16 16" fill="none" xmlns="http://www.w3.org/2000/svg">
<path fill-rule="evenodd" clip-rule="evenodd" d="M7.99961 14.4016C11.5342 14.4016 14.3996 11.5362 14.3996 8.00156C14.3996 4.46694 11.5342 1.60156 7.99961 1.60156C4.46499 1.60156 1.59961 4.46694 1.59961 8.00156C1.59961 11.5362 4.46499 14.4016 7.99961 14.4016ZM8.59961 5.40156C8.59961 5.07019 8.33097 4.80156 7.99961 4.80156C7.66824 4.80156 7.39961 5.07019 7.39961 5.40156V9.07364L5.83928 7.39329C5.6138 7.15047 5.23416 7.1364 4.99134 7.36189C4.74851 7.58737 4.73445 7.96701 4.95994 8.2098L7.55994 11.0098C7.67346 11.1321 7.83277 11.2016 7.99961 11.2016C8.16649 11.2016 8.32577 11.1321 8.43929 11.0098L11.0393 8.2098C11.2647 7.96701 11.2507 7.58737 11.0078 7.36189C10.765 7.1364 10.3854 7.15047 10.1599 7.39329L8.59961 9.07364V5.40156Z" fill="#0F172A"/>
</svg>
