<svg width="16" height="16" viewBox="0 0 16 16" fill="none" xmlns="http://www.w3.org/2000/svg">
<path fill-rule="evenodd" clip-rule="evenodd" d="M8.00078 14.4016C7.66941 14.4016 7.40078 14.1329 7.40078 13.8016V3.72948L5.84046 5.40983C5.61498 5.65266 5.23534 5.66672 4.99251 5.44124C4.74968 5.21575 4.73563 4.83612 4.96111 4.59329L7.56111 1.79329C7.67464 1.67103 7.83394 1.60156 8.00078 1.60156C8.16766 1.60156 8.32694 1.67103 8.44046 1.79329L11.0405 4.59329C11.266 4.83611 11.2519 5.21575 11.009 5.44123C10.7662 5.66672 10.3866 5.65266 10.1611 5.40983L8.60078 3.72948V13.8016C8.60078 14.1329 8.33214 14.4016 8.00078 14.4016Z" fill="#0F172A"/>
</svg>
