<svg width="16" height="16" viewBox="0 0 16 16" fill="none" xmlns="http://www.w3.org/2000/svg">
<path fill-rule="evenodd" clip-rule="evenodd" d="M8.60039 4.80078H7.00039V8.20078C7.00039 8.53214 6.73176 8.80078 6.40039 8.80078C6.06902 8.80078 5.80039 8.53214 5.80039 8.20078V4.80078H7.00039L7.00038 2.96436L7.75441 3.80216C7.97609 4.04847 8.35543 4.06843 8.60175 3.84676C8.84807 3.62509 8.86807 3.24571 8.64639 2.99941L6.84637 0.999405C6.73257 0.872973 6.57048 0.800781 6.40038 0.800781C6.23029 0.800781 6.0682 0.872973 5.95441 0.999405L4.15441 2.99941C3.93273 3.24571 3.9527 3.62509 4.19901 3.84676C4.44531 4.06843 4.82469 4.04847 5.04636 3.80216L5.80038 2.96436L5.80039 4.80078H4.20039C3.20628 4.80078 2.40039 5.60667 2.40039 6.60078V10.2008C2.40039 11.1949 3.20628 12.0008 4.20039 12.0008H8.60039C9.59447 12.0008 10.4004 11.1949 10.4004 10.2008V6.60078C10.4004 5.60667 9.59447 4.80078 8.60039 4.80078ZM5.60039 13.4008V13.2008H8.60039C10.2573 13.2008 11.6004 11.8577 11.6004 10.2008V8.00078H11.8004C12.7945 8.00078 13.6004 8.8067 13.6004 9.80078V13.4008C13.6004 14.3949 12.7945 15.2008 11.8004 15.2008H7.40039C6.40628 15.2008 5.60039 14.3949 5.60039 13.4008Z" fill="#0F172A"/>
</svg>
