<svg width="16" height="16" viewBox="0 0 16 16" fill="none" xmlns="http://www.w3.org/2000/svg">
<path d="M10.9992 5.60078H8.59922V9.83718L10.1532 8.19942C10.3749 7.95309 10.7543 7.93313 11.0006 8.15478C11.2469 8.37646 11.2669 8.75582 11.0452 9.00214L8.44522 11.8021C8.33138 11.9286 8.1693 12.0008 7.99922 12.0008C7.82913 12.0008 7.66703 11.9286 7.55325 11.8021L4.95325 9.00214C4.73157 8.75582 4.75154 8.37646 4.99784 8.15478C5.24415 7.93313 5.62352 7.95309 5.8452 8.19942L7.39923 9.83718V5.60078H8.59922V1.40078C8.59922 1.06941 8.33058 0.800781 7.99922 0.800781C7.66785 0.800781 7.39922 1.06941 7.39922 1.40078L7.39923 5.60078H4.99922C4.00511 5.60078 3.19922 6.40667 3.19922 7.40078V13.4008C3.19922 14.3949 4.00511 15.2008 4.99922 15.2008H10.9992C11.9933 15.2008 12.7992 14.3949 12.7992 13.4008V7.40078C12.7992 6.40667 11.9933 5.60078 10.9992 5.60078Z" fill="#0F172A"/>
</svg>
