<svg width="16" height="16" viewBox="0 0 16 16" fill="none" xmlns="http://www.w3.org/2000/svg">
<path fill-rule="evenodd" clip-rule="evenodd" d="M2.40039 3.40156C2.40039 2.40745 3.20628 1.60156 4.20039 1.60156H8.60039C9.59447 1.60156 10.4004 2.40745 10.4004 3.40156V5.00156C10.4004 5.33293 10.1318 5.60156 9.80039 5.60156C9.46903 5.60156 9.20039 5.33293 9.20039 5.00156V3.40156C9.20039 3.07019 8.93175 2.80156 8.60039 2.80156H4.20039C3.86902 2.80156 3.60039 3.07019 3.60039 3.40156V12.6016C3.60039 12.9329 3.86902 13.2016 4.20039 13.2016H8.60039C8.93175 13.2016 9.20039 12.9329 9.20039 12.6016V11.0016C9.20039 10.6702 9.46903 10.4016 9.80039 10.4016C10.1318 10.4016 10.4004 10.6702 10.4004 11.0016V12.6016C10.4004 13.5956 9.59447 14.4016 8.60039 14.4016H4.20039C3.20628 14.4016 2.40039 13.5956 2.40039 12.6016V3.40156Z" fill="#0F172A"/>
<path fill-rule="evenodd" clip-rule="evenodd" d="M4.80078 8.00157C4.80078 7.6702 5.06941 7.40157 5.40078 7.40157H13.0372L12.1994 6.64755C11.9531 6.42587 11.9331 6.0465 12.1548 5.80019C12.3765 5.55388 12.7558 5.53391 13.0021 5.75559L15.0021 7.55559C15.1286 7.66938 15.2008 7.83147 15.2008 8.00157C15.2008 8.17165 15.1286 8.33373 15.0021 8.44757L13.0021 10.2476C12.7558 10.4693 12.3765 10.4493 12.1548 10.2029C11.9331 9.95661 11.9531 9.57725 12.1994 9.35557L13.0372 8.60157H5.40078C5.06941 8.60157 4.80078 8.33293 4.80078 8.00157Z" fill="#0F172A"/>
</svg>
