<svg width="16" height="16" viewBox="0 0 16 16" fill="none" xmlns="http://www.w3.org/2000/svg">
<path d="M10.794 1.33594H5.20732C2.78066 1.33594 1.33398 2.7826 1.33398 5.20927V10.7892C1.33398 13.2226 2.78066 14.6692 5.20732 14.6692H10.7874C13.214 14.6692 14.6606 13.2226 14.6606 10.796V5.20927C14.6674 2.7826 13.2206 1.33594 10.794 1.33594ZM10.7074 9.33596C10.6074 9.43596 10.4806 9.4826 10.354 9.4826C10.2274 9.4826 10.1006 9.42924 10.0006 9.33596L8.00063 7.33594L6.00066 9.33596C5.80732 9.52924 5.48732 9.52924 5.29398 9.33596C5.10066 9.1426 5.10066 8.8226 5.29398 8.62924L7.64732 6.27594C7.84066 6.0826 8.16063 6.0826 8.35399 6.27594L10.7074 8.62924C10.9006 8.8226 10.9006 9.13596 10.7074 9.33596Z" fill="white"/>
</svg>
