<svg width="16" height="16" viewBox="0 0 16 16" fill="none" xmlns="http://www.w3.org/2000/svg">
<path fill-rule="evenodd" clip-rule="evenodd" d="M14.2139 6.2348C13.9742 6.4636 13.5944 6.45477 13.3656 6.21507L10.1996 2.89832V10.9008C10.1996 13.2756 8.27441 15.2008 5.89961 15.2008C3.52479 15.2008 1.59961 13.2756 1.59961 10.9008V8.60078C1.59961 8.26942 1.86824 8.00078 2.19961 8.00078C2.53098 8.00078 2.79961 8.26942 2.79961 8.60078V10.9008C2.79961 12.6129 4.18753 14.0008 5.89961 14.0008C7.61169 14.0008 8.99961 12.6129 8.99961 10.9008V2.89832L5.83363 6.21507C5.60482 6.45477 5.22503 6.4636 4.98532 6.2348C4.74563 6.00599 4.73679 5.6262 4.96559 5.38649L9.16561 0.986493C9.27881 0.867885 9.43561 0.800781 9.59961 0.800781C9.76361 0.800781 9.92041 0.867885 10.0336 0.986493L14.2336 5.38649C14.4624 5.6262 14.4536 6.00599 14.2139 6.2348Z" fill="#0F172A"/>
</svg>
