<svg width="16" height="16" viewBox="0 0 16 16" fill="none" xmlns="http://www.w3.org/2000/svg">
<path fill-rule="evenodd" clip-rule="evenodd" d="M6.4004 0.800781C6.73177 0.800781 7.0004 1.06941 7.0004 1.40078V4.80078H5.8004V1.40078C5.8004 1.06941 6.06902 0.800781 6.4004 0.800781ZM5.8004 4.80078V7.43721L5.04637 6.5994C4.82469 6.35309 4.44533 6.33313 4.19901 6.55481C3.95271 6.77648 3.93274 7.15585 4.15442 7.40216L5.95442 9.40214C6.06821 9.52862 6.2303 9.60078 6.4004 9.60078C6.57049 9.60078 6.73259 9.52862 6.84637 9.40214L8.64639 7.40216C8.86807 7.15585 8.84807 6.77648 8.60175 6.55481C8.35543 6.33313 7.97609 6.35309 7.75442 6.5994L7.0004 7.43721V4.80078H8.60039C9.59447 4.80078 10.4004 5.60667 10.4004 6.60078V10.2008C10.4004 11.1949 9.59447 12.0008 8.60039 12.0008H4.20039C3.20628 12.0008 2.40039 11.1949 2.40039 10.2008V6.60078C2.40039 5.60667 3.20628 4.80078 4.20039 4.80078H5.8004ZM5.60039 13.4008V13.2008H8.60039C10.2573 13.2008 11.6004 11.8577 11.6004 10.2008V8.00078H11.8004C12.7945 8.00078 13.6004 8.8067 13.6004 9.80078V13.4008C13.6004 14.3949 12.7945 15.2008 11.8004 15.2008H7.40039C6.40628 15.2008 5.60039 14.3949 5.60039 13.4008Z" fill="#0F172A"/>
</svg>
