<svg width="16" height="16" viewBox="0 0 16 16" fill="none" xmlns="http://www.w3.org/2000/svg">
<path fill-rule="evenodd" clip-rule="evenodd" d="M2.40039 3.40156C2.40039 2.40745 3.20628 1.60156 4.20039 1.60156H8.60039C9.59447 1.60156 10.4004 2.40745 10.4004 3.40156V5.00156C10.4004 5.33293 10.1318 5.60156 9.80039 5.60156C9.46903 5.60156 9.20039 5.33293 9.20039 5.00156V3.40156C9.20039 3.07019 8.93175 2.80156 8.60039 2.80156H4.20039C3.86902 2.80156 3.60039 3.07019 3.60039 3.40156V12.6016C3.60039 12.9329 3.86902 13.2016 4.20039 13.2016H8.60039C8.93175 13.2016 9.20039 12.9329 9.20039 12.6016V11.0016C9.20039 10.6702 9.46903 10.4016 9.80039 10.4016C10.1318 10.4016 10.4004 10.6702 10.4004 11.0016V12.6016C10.4004 13.5956 9.59447 14.4016 8.60039 14.4016H4.20039C3.20628 14.4016 2.40039 13.5956 2.40039 12.6016V3.40156Z" fill="#0F172A"/>
<path fill-rule="evenodd" clip-rule="evenodd" d="M15.2008 8.00157C15.2008 7.6702 14.9321 7.40157 14.6008 7.40157H6.96436L7.80216 6.64755C8.04846 6.42587 8.06846 6.0465 7.84676 5.80019C7.62509 5.55388 7.24571 5.53391 6.99941 5.75559L4.99941 7.55559C4.87297 7.66938 4.80078 7.83147 4.80078 8.00157C4.80078 8.17165 4.87297 8.33373 4.99941 8.44757L6.99941 10.2476C7.24571 10.4693 7.62509 10.4493 7.84676 10.2029C8.06846 9.95661 8.04846 9.57725 7.80216 9.35557L6.96436 8.60157H14.6008C14.9321 8.60157 15.2008 8.33293 15.2008 8.00157Z" fill="#0F172A"/>
</svg>
