<svg width="16" height="16" viewBox="0 0 16 16" fill="none" xmlns="http://www.w3.org/2000/svg">
<path fill-rule="evenodd" clip-rule="evenodd" d="M1.78532 9.76678C2.02503 9.53798 2.40482 9.54678 2.63363 9.78646L5.79961 13.1033V5.10078C5.79961 2.72596 7.72479 0.800781 10.0996 0.800781C12.4744 0.800781 14.3996 2.72596 14.3996 5.10078V7.40078C14.3996 7.73215 14.131 8.00078 13.7996 8.00078C13.4683 8.00078 13.1996 7.73215 13.1996 7.40078V5.10078C13.1996 3.3887 11.8117 2.00078 10.0996 2.00078C8.38753 2.00078 6.99961 3.3887 6.99961 5.10078V13.1033L10.1656 9.78646C10.3944 9.54678 10.7742 9.53798 11.0139 9.76678C11.2536 9.99558 11.2624 10.3753 11.0336 10.6151L6.83363 15.0151C6.72041 15.1337 6.56358 15.2008 6.39961 15.2008C6.23564 15.2008 6.07882 15.1337 5.96559 15.0151L1.76559 10.6151C1.53679 10.3753 1.54563 9.99558 1.78532 9.76678Z" fill="#0F172A"/>
</svg>
