<svg width="16" height="16" viewBox="0 0 16 16" fill="none" xmlns="http://www.w3.org/2000/svg">
<g clip-path="url(#clip0_13_12337)">
<mask id="mask0_13_12337" style="mask-type:luminance" maskUnits="userSpaceOnUse" x="0" y="0" width="16" height="16">
<path d="M16 0H0V16H16V0Z" fill="white"/>
</mask>
<g mask="url(#mask0_13_12337)">
<path fill-rule="evenodd" clip-rule="evenodd" d="M7.99961 14.4016C11.5342 14.4016 14.3996 11.5362 14.3996 8.00156C14.3996 4.46694 11.5342 1.60156 7.99961 1.60156C4.46499 1.60156 1.59961 4.46694 1.59961 8.00156C1.59961 11.5362 4.46499 14.4016 7.99961 14.4016ZM10.5996 8.60156C10.931 8.60156 11.1996 8.33292 11.1996 8.00156C11.1996 7.67019 10.931 7.40156 10.5996 7.40156H6.92753L8.60785 5.84123C8.85073 5.61575 8.86473 5.23611 8.63929 4.99329C8.41377 4.75047 8.03417 4.7364 7.79134 4.96188L4.99134 7.56188C4.86908 7.67541 4.79961 7.83472 4.79961 8.00156C4.79961 8.16844 4.86908 8.32772 4.99134 8.44124L7.79134 11.0412C8.03417 11.2667 8.41377 11.2527 8.63929 11.0098C8.86473 10.767 8.85073 10.3874 8.60785 10.1619L6.92753 8.60156H10.5996Z" fill="#0F172A"/>
</g>
</g>
<defs>
<clipPath id="clip0_13_12337">
<rect width="16" height="16" fill="white"/>
</clipPath>
</defs>
</svg>
