<svg width="16" height="16" viewBox="0 0 16 16" fill="none" xmlns="http://www.w3.org/2000/svg">
<path fill-rule="evenodd" clip-rule="evenodd" d="M1.79134 5.44124C2.03417 5.66672 2.41381 5.65266 2.63929 5.40983L4.19961 3.72948V10.6016C4.19961 10.9329 4.46824 11.2016 4.79961 11.2016C5.13099 11.2016 5.39961 10.9329 5.39961 10.6016V3.72948L6.95994 5.40983C7.18542 5.65266 7.56506 5.66672 7.80788 5.44123C8.05073 5.21575 8.06481 4.83611 7.83929 4.59329L5.23929 1.79329C5.12576 1.67103 4.96645 1.60156 4.79961 1.60156C4.63277 1.60156 4.47346 1.67103 4.35994 1.79329L1.75994 4.59329C1.53446 4.83611 1.54851 5.21575 1.79134 5.44124ZM8.19137 10.5619C7.94851 10.7874 7.93446 11.167 8.15993 11.4098L10.7599 14.2098C10.8734 14.3321 11.0328 14.4016 11.1996 14.4016C11.3665 14.4016 11.5258 14.3321 11.6393 14.2098L14.2393 11.4098C14.4648 11.167 14.4507 10.7874 14.2078 10.5619C13.965 10.3364 13.5854 10.3504 13.3599 10.5933L11.7996 12.2736V5.40156C11.7996 5.07019 11.531 4.80156 11.1996 4.80156C10.8682 4.80156 10.5996 5.07019 10.5996 5.40156V12.2736L9.03929 10.5933C8.81377 10.3504 8.43417 10.3364 8.19137 10.5619Z" fill="#0F172A"/>
</svg>
