<svg width="16" height="16" viewBox="0 0 16 16" fill="none" xmlns="http://www.w3.org/2000/svg">
<path d="M7.32027 4.12666L4.84696 1.65334C4.80029 1.60666 4.74029 1.56666 4.67362 1.54C4.66696 1.54 4.66029 1.54 4.65362 1.53334C4.60029 1.51334 4.54696 1.5 4.48696 1.5C4.35362 1.5 4.22696 1.55334 4.13362 1.64666L1.64696 4.12666C1.45362 4.32 1.45362 4.64 1.64696 4.83334C1.84029 5.02666 2.16029 5.02666 2.35362 4.83334L3.98696 3.2V14C3.98696 14.2734 4.21362 14.5 4.48696 14.5C4.76029 14.5 4.98696 14.2734 4.98696 14V3.20666L6.61362 4.83334C6.7136 4.93334 6.84027 4.98 6.96694 4.98C7.0936 4.98 7.22027 4.93334 7.32027 4.83334C7.5136 4.64 7.5136 4.32666 7.32027 4.12666Z" fill="white"/>
<path d="M14.3535 11.1666C14.1602 10.9734 13.8402 10.9734 13.6468 11.1666L12.0135 12.8V2C12.0135 1.72666 11.7868 1.5 11.5135 1.5C11.2402 1.5 11.0135 1.72666 11.0135 2V12.7934L9.38682 11.1666C9.19354 10.9734 8.87354 10.9734 8.68018 11.1666C8.48682 11.36 8.48682 11.68 8.68018 11.8734L11.1535 14.3466C11.2002 14.3934 11.2602 14.4334 11.3268 14.46C11.3335 14.46 11.3402 14.46 11.3468 14.4666C11.4002 14.4866 11.4602 14.5 11.5202 14.5C11.6535 14.5 11.7802 14.4466 11.8735 14.3534L14.3535 11.8734C14.5468 11.6734 14.5468 11.36 14.3535 11.1666Z" fill="white"/>
</svg>
