<svg width="16" height="16" viewBox="0 0 16 16" fill="none" xmlns="http://www.w3.org/2000/svg">
<path d="M10.794 1.33594H5.20732C2.78066 1.33594 1.33398 2.7826 1.33398 5.20927V10.7892C1.33398 13.2226 2.78066 14.6692 5.20732 14.6692H10.7874C13.214 14.6692 14.6606 13.2226 14.6606 10.796V5.20927C14.6674 2.7826 13.2206 1.33594 10.794 1.33594ZM11.794 9.36924C11.7674 9.42924 11.734 9.4826 11.6874 9.52924L9.72063 11.496C9.62063 11.596 9.49399 11.6426 9.36735 11.6426C9.24063 11.6426 9.11399 11.596 9.01399 11.496C8.82063 11.3026 8.82063 10.9826 9.01399 10.7892L10.1274 9.67596H4.66732C4.39398 9.67596 4.16732 9.44924 4.16732 9.17596C4.16732 8.9026 4.39398 8.67596 4.66732 8.67596H11.334C11.4006 8.67596 11.4606 8.68924 11.5274 8.71596C11.6474 8.76924 11.7474 8.8626 11.8006 8.98924C11.8474 9.10924 11.8474 9.2426 11.794 9.36924ZM11.334 7.32927H4.66732C4.60066 7.32927 4.54066 7.31594 4.47398 7.28927C4.35398 7.23594 4.25398 7.1426 4.20066 7.01594C4.14732 6.89594 4.14732 6.75594 4.20066 6.63594C4.23398 6.57594 4.26732 6.5226 4.31398 6.47594L6.28066 4.50927C6.47398 4.31594 6.79398 4.31594 6.98732 4.50927C7.18065 4.7026 7.18065 5.0226 6.98732 5.21594L5.87398 6.32927H11.334C11.6074 6.32927 11.834 6.55594 11.834 6.82927C11.834 7.1026 11.6074 7.32927 11.334 7.32927Z" fill="white"/>
</svg>
