<svg width="16" height="16" viewBox="0 0 16 16" fill="none" xmlns="http://www.w3.org/2000/svg">
<path fill-rule="evenodd" clip-rule="evenodd" d="M12 8.00078C12 8.33214 11.7314 8.60078 11.4 8.60078H6.08966L7.81586 10.1683C8.05472 10.398 8.06216 10.7778 7.8325 11.0166C7.60282 11.2555 7.223 11.2629 6.98414 11.0333L4.18414 8.43326C4.06649 8.32014 4 8.16398 4 8.00078C4 7.83757 4.06649 7.68141 4.18414 7.56829L6.98414 4.96829C7.223 4.73861 7.60282 4.74605 7.8325 4.98492C8.06216 5.22378 8.05472 5.60361 7.81586 5.83329L6.08966 7.40078H11.4C11.7314 7.40078 12 7.66941 12 8.00078Z" fill="#0F172A"/>
</svg>
