<svg width="16" height="16" viewBox="0 0 16 16" fill="none" xmlns="http://www.w3.org/2000/svg">
<path fill-rule="evenodd" clip-rule="evenodd" d="M1.59961 8.00078C1.59961 7.66941 1.86824 7.40078 2.19961 7.40078H12.2717L10.5914 5.84046C10.3485 5.61498 10.3345 5.23534 10.5599 4.99251C10.7854 4.74968 11.165 4.73563 11.4078 4.96111L14.2078 7.56111C14.3302 7.67464 14.3996 7.83394 14.3996 8.00078C14.3996 8.16766 14.3302 8.32694 14.2078 8.44046L11.4078 11.0405C11.165 11.266 10.7854 11.2519 10.5599 11.009C10.3345 10.7662 10.3485 10.3866 10.5914 10.1611L12.2717 8.60078H2.19961C1.86824 8.60078 1.59961 8.33214 1.59961 8.00078Z" fill="#0F172A"/>
</svg>
