<svg width="16" height="16" viewBox="0 0 16 16" fill="none" xmlns="http://www.w3.org/2000/svg">
<path fill-rule="evenodd" clip-rule="evenodd" d="M13.6004 7.99922C13.6004 8.33058 13.3318 8.59922 13.0004 8.59922H4.49005L7.81625 11.7667C8.05511 11.9964 8.06255 12.3763 7.83289 12.6151C7.60321 12.8539 7.22339 12.8614 6.98453 12.6317L2.58453 8.4317C2.46688 8.31858 2.40039 8.16242 2.40039 7.99922C2.40039 7.83601 2.46688 7.67984 2.58453 7.56672L6.98453 3.36672C7.22339 3.13704 7.60321 3.14449 7.83289 3.38335C8.06255 3.62222 8.05511 4.00204 7.81625 4.23172L4.49005 7.39922H13.0004C13.3318 7.39922 13.6004 7.66785 13.6004 7.99922Z" fill="#0F172A"/>
</svg>
