<svg width="16" height="16" viewBox="0 0 16 16" fill="none" xmlns="http://www.w3.org/2000/svg">
<path fill-rule="evenodd" clip-rule="evenodd" d="M8.00078 12C7.66941 12 7.40078 11.7314 7.40078 11.4V6.08966L5.83329 7.81586C5.60361 8.05472 5.22378 8.06216 4.98492 7.8325C4.74605 7.60282 4.73861 7.223 4.96829 6.98414L7.56829 4.18414C7.68141 4.06649 7.83757 4 8.00078 4C8.16398 4 8.32014 4.06649 8.43326 4.18414L11.0333 6.98414C11.2629 7.223 11.2555 7.60282 11.0166 7.8325C10.7778 8.06216 10.398 8.05472 10.1683 7.81586L8.60078 6.08966V11.4C8.60078 11.7314 8.33214 12 8.00078 12Z" fill="#0F172A"/>
</svg>
