<svg width="16" height="16" viewBox="0 0 16 16" fill="none" xmlns="http://www.w3.org/2000/svg">
<path fill-rule="evenodd" clip-rule="evenodd" d="M8.00078 3.59844C8.97278 3.59844 9.93446 3.64231 10.8838 3.72815C11.1407 3.75138 11.3449 3.94989 11.3756 4.20591C11.4749 5.03605 11.542 5.87618 11.5756 6.72503L10.2251 5.37422C9.99078 5.13988 9.61086 5.13984 9.37654 5.37413C9.14222 5.60841 9.14214 5.98832 9.37646 6.22265L11.7759 8.6226C12.0101 8.85692 12.3901 8.857 12.6244 8.62268L15.025 6.22277C15.2593 5.98848 15.2594 5.60858 15.0251 5.37424C14.7908 5.13989 14.4109 5.13983 14.1765 5.37411L12.7783 6.77202C12.7447 5.85925 12.6738 4.95589 12.5671 4.06342C12.4692 3.24464 11.8131 2.60729 10.9919 2.53303C10.0066 2.44394 9.00894 2.39844 8.00078 2.39844C6.99263 2.39844 5.99495 2.44394 5.0097 2.53303C4.1885 2.60728 3.53237 3.24464 3.43446 4.06342C3.38343 4.49015 3.3406 4.91937 3.30612 5.35093C3.27973 5.68125 3.52611 5.97041 3.85643 5.99681C4.18674 6.0232 4.47591 5.77681 4.5023 5.44649C4.53553 5.03063 4.57681 4.61705 4.62597 4.20591C4.65658 3.94989 4.86089 3.75138 5.11777 3.72815C6.06713 3.64231 7.02876 3.59844 8.00078 3.59844ZM4.22569 7.37444C3.99141 7.14012 3.61154 7.14007 3.3772 7.37433L0.976589 9.77412C0.742236 10.0084 0.742169 10.3883 0.976445 10.6226C1.21072 10.857 1.59061 10.8571 1.82497 10.6228L3.22329 9.22492C3.25686 10.1377 3.32773 11.041 3.43446 11.9335C3.53237 12.7522 4.1885 13.3896 5.0097 13.4639C5.99495 13.5529 6.99263 13.5984 8.00078 13.5984C9.00894 13.5984 10.0066 13.5529 10.9919 13.4639C11.8131 13.3896 12.4692 12.7523 12.5671 11.9335C12.6181 11.5064 12.661 11.0768 12.6955 10.6449C12.7219 10.3146 12.4755 10.0255 12.1452 9.99908C11.8149 9.97268 11.5257 10.2191 11.4993 10.5494C11.4661 10.9656 11.4248 11.3795 11.3756 11.791C11.3449 12.047 11.1407 12.2455 10.8838 12.2688C9.93446 12.3546 8.97278 12.3984 8.00078 12.3984C7.02876 12.3984 6.06713 12.3546 5.11777 12.2688C4.86089 12.2455 4.65658 12.047 4.62597 11.791C4.5267 10.9608 4.4596 10.1208 4.42597 9.27196L5.77649 10.6227C6.01078 10.857 6.39068 10.857 6.62501 10.6228C6.85935 10.3884 6.85937 10.0085 6.62508 9.7742L4.22569 7.37444Z" fill="#0F172A"/>
</svg>
