<svg width="16" height="16" viewBox="0 0 16 16" fill="none" xmlns="http://www.w3.org/2000/svg">
<path fill-rule="evenodd" clip-rule="evenodd" d="M7.99961 14.4016C11.5342 14.4016 14.3996 11.5362 14.3996 8.00156C14.3996 4.46694 11.5342 1.60156 7.99961 1.60156C4.46499 1.60156 1.59961 4.46694 1.59961 8.00156C1.59961 11.5362 4.46499 14.4016 7.99961 14.4016ZM7.39961 10.6016C7.39961 10.9329 7.66824 11.2016 7.99961 11.2016C8.33097 11.2016 8.59961 10.9329 8.59961 10.6016V6.92948L10.1599 8.6098C10.3854 8.85268 10.765 8.86668 11.0078 8.64124C11.2507 8.41572 11.2647 8.03612 11.0393 7.79329L8.43929 4.99329C8.32577 4.87103 8.16649 4.80156 7.99961 4.80156C7.83277 4.80156 7.67346 4.87103 7.55994 4.99329L4.95994 7.79329C4.73445 8.03612 4.74851 8.41572 4.99134 8.64124C5.23416 8.86668 5.6138 8.85268 5.83929 8.6098L7.39961 6.92948V10.6016Z" fill="#0F172A"/>
</svg>
