<svg width="16" height="16" viewBox="0 0 16 16" fill="none" xmlns="http://www.w3.org/2000/svg">
<path fill-rule="evenodd" clip-rule="evenodd" d="M14.3996 8.00078C14.3996 8.33214 14.131 8.60078 13.7996 8.60078H3.72753L5.40788 10.1611C5.65071 10.3866 5.66477 10.7662 5.43928 11.009C5.2138 11.2519 4.83416 11.266 4.59134 11.0405L1.79134 8.44046C1.66908 8.32694 1.59961 8.16766 1.59961 8.00078C1.59961 7.83394 1.66908 7.67464 1.79134 7.56111L4.59134 4.96111C4.83416 4.73563 5.2138 4.74968 5.43928 4.99251C5.66477 5.23534 5.65071 5.61498 5.40788 5.84046L3.72753 7.40078H13.7996C14.131 7.40078 14.3996 7.66941 14.3996 8.00078Z" fill="#0F172A"/>
</svg>
