<svg width="16" height="16" viewBox="0 0 16 16" fill="none" xmlns="http://www.w3.org/2000/svg">
<path d="M8.00063 1.33594C4.32732 1.33594 1.33398 4.32927 1.33398 8.0026C1.33398 11.676 4.32732 14.6692 8.00063 14.6692C11.674 14.6692 14.6674 11.676 14.6674 8.0026C14.6674 4.32927 11.674 1.33594 8.00063 1.33594ZM9.86063 8.35596L7.50732 10.7092C7.40732 10.8092 7.28065 10.856 7.15398 10.856C7.02732 10.856 6.90066 10.8092 6.80066 10.7092C6.60732 10.516 6.60732 10.196 6.80066 10.0026L8.80063 8.0026L6.80066 6.0026C6.60732 5.80927 6.60732 5.48927 6.80066 5.29594C6.99398 5.1026 7.31398 5.1026 7.50732 5.29594L9.86063 7.64927C10.0606 7.8426 10.0606 8.1626 9.86063 8.35596Z" fill="white"/>
</svg>
