<svg width="16" height="16" viewBox="0 0 16 16" fill="none" xmlns="http://www.w3.org/2000/svg">
<path fill-rule="evenodd" clip-rule="evenodd" d="M2.40039 7.99922C2.40039 7.66785 2.66902 7.39922 3.00039 7.39922H11.5107L8.18455 4.23172C7.94566 4.00204 7.93821 3.62222 8.16791 3.38336C8.39759 3.14449 8.77743 3.13704 9.01623 3.36672L13.4162 7.56672C13.5339 7.67984 13.6004 7.83601 13.6004 7.99922C13.6004 8.16242 13.5339 8.31858 13.4162 8.4317L9.01623 12.6317C8.77743 12.8614 8.39759 12.8539 8.16791 12.6151C7.93821 12.3763 7.94566 11.9964 8.18455 11.7667L11.5107 8.59922H3.00039C2.66902 8.59922 2.40039 8.33058 2.40039 7.99922Z" fill="#0F172A"/>
</svg>
