<svg width="16" height="16" viewBox="0 0 16 16" fill="none" xmlns="http://www.w3.org/2000/svg">
<path d="M10.794 1.33594H5.20732C2.78066 1.33594 1.33398 2.7826 1.33398 5.20927V10.7892C1.33398 13.2226 2.78066 14.6692 5.20732 14.6692H10.7874C13.214 14.6692 14.6606 13.2226 14.6606 10.796V5.20927C14.6674 2.7826 13.2206 1.33594 10.794 1.33594ZM7.32732 11.336C7.32732 11.4026 7.31398 11.4626 7.28732 11.5292C7.23398 11.6492 7.14066 11.7492 7.01398 11.8026C6.95398 11.8292 6.88732 11.8426 6.82065 11.8426C6.75398 11.8426 6.69398 11.8292 6.62732 11.8026C6.56732 11.776 6.51398 11.7426 6.46732 11.696L4.50066 9.72924C4.30732 9.53596 4.30732 9.21596 4.50066 9.0226C4.69398 8.82924 5.01398 8.82924 5.20732 9.0226L6.32065 10.136V4.66927C6.32065 4.39594 6.54732 4.16927 6.82065 4.16927C7.09398 4.16927 7.32732 4.39594 7.32732 4.66927V11.336ZM11.494 6.98927C11.394 7.08927 11.2674 7.13594 11.1406 7.13594C11.014 7.13594 10.8874 7.08927 10.7874 6.98927L9.67399 5.87594V11.336C9.67399 11.6092 9.44735 11.836 9.17399 11.836C8.90063 11.836 8.67399 11.6092 8.67399 11.336V4.66927C8.67399 4.6026 8.68735 4.5426 8.71399 4.47594C8.76735 4.35594 8.86063 4.25594 8.98735 4.2026C9.10735 4.14927 9.24735 4.14927 9.36735 4.2026C9.42735 4.22927 9.48063 4.2626 9.52735 4.30927L11.494 6.27594C11.6874 6.47594 11.6874 6.79594 11.494 6.98927Z" fill="white"/>
</svg>
