<svg width="16" height="16" viewBox="0 0 16 16" fill="none" xmlns="http://www.w3.org/2000/svg">
<path fill-rule="evenodd" clip-rule="evenodd" d="M13.5996 3.40156C13.5996 2.40745 12.7937 1.60156 11.7996 1.60156H7.39961C6.4055 1.60156 5.59961 2.40745 5.59961 3.40156V5.00156C5.59961 5.33293 5.86824 5.60156 6.19961 5.60156C6.53098 5.60156 6.79961 5.33293 6.79961 5.00156V3.40156C6.79961 3.07019 7.06824 2.80156 7.39961 2.80156H11.7996C12.131 2.80156 12.3996 3.07019 12.3996 3.40156V12.6016C12.3996 12.9329 12.131 13.2016 11.7996 13.2016H7.39961C7.06824 13.2016 6.79961 12.9329 6.79961 12.6016V11.0016C6.79961 10.6702 6.53098 10.4016 6.19961 10.4016C5.86824 10.4016 5.59961 10.6702 5.59961 11.0016V12.6016C5.59961 13.5956 6.4055 14.4016 7.39961 14.4016H11.7996C12.7937 14.4016 13.5996 13.5956 13.5996 12.6016V3.40156Z" fill="#0F172A"/>
<path fill-rule="evenodd" clip-rule="evenodd" d="M11.2008 8.00157C11.2008 7.6702 10.9321 7.40157 10.6008 7.40157H2.96436L3.80216 6.64755C4.04847 6.42587 4.06844 6.0465 3.84676 5.80019C3.62509 5.55388 3.24571 5.53391 2.99941 5.75559L0.999405 7.55559C0.872973 7.66938 0.800781 7.83147 0.800781 8.00157C0.800781 8.17165 0.872973 8.33373 0.999405 8.44757L2.99941 10.2476C3.24571 10.4693 3.62509 10.4493 3.84676 10.2029C4.06844 9.95661 4.04847 9.57725 3.80216 9.35557L2.96436 8.60157H10.6008C10.9321 8.60157 11.2008 8.33293 11.2008 8.00157Z" fill="#0F172A"/>
</svg>
