<svg width="16" height="16" viewBox="0 0 16 16" fill="none" xmlns="http://www.w3.org/2000/svg">
<path fill-rule="evenodd" clip-rule="evenodd" d="M3.39961 4.39922C3.06824 4.39922 2.79961 4.66785 2.79961 4.99922V11.7992C2.79961 12.1306 3.06824 12.3992 3.39961 12.3992H10.1996C10.531 12.3992 10.7996 12.1306 10.7996 11.7992V8.59922C10.7996 8.26786 11.0683 7.99922 11.3996 7.99922C11.731 7.99922 11.9996 8.26786 11.9996 8.59922V11.7992C11.9996 12.7933 11.1937 13.5992 10.1996 13.5992H3.39961C2.4055 13.5992 1.59961 12.7933 1.59961 11.7992V4.99922C1.59961 4.00511 2.4055 3.19922 3.39961 3.19922H7.39961C7.73098 3.19922 7.99961 3.46785 7.99961 3.79922C7.99961 4.13059 7.73098 4.39922 7.39961 4.39922H3.39961Z" fill="#0F172A"/>
<path fill-rule="evenodd" clip-rule="evenodd" d="M4.95586 10.2041C5.17818 10.4498 5.55761 10.4688 5.80334 10.2465L13.2008 3.55355V5.80156C13.2008 6.13293 13.4694 6.40156 13.8008 6.40156C14.1321 6.40156 14.4008 6.13293 14.4008 5.80156V2.20156C14.4008 1.87019 14.1321 1.60156 13.8008 1.60156H10.2008C9.86942 1.60156 9.60078 1.87019 9.60078 2.20156C9.60078 2.53293 9.86942 2.80156 10.2008 2.80156H12.2433L4.99824 9.3566C4.75251 9.57892 4.73354 9.95836 4.95586 10.2041Z" fill="#0F172A"/>
</svg>
