<svg width="16" height="16" viewBox="0 0 16 16" fill="none" xmlns="http://www.w3.org/2000/svg">
<path d="M14.5 4.48615C14.5 4.35281 14.4466 4.22615 14.3534 4.13281L11.8734 1.65281C11.68 1.45948 11.36 1.45948 11.1666 1.65281C10.9734 1.84615 10.9734 2.16615 11.1666 2.35948L12.8 3.99281H2C1.72666 3.99281 1.5 4.21948 1.5 4.49281C1.5 4.76615 1.72666 4.98615 2 4.98615H12.7934L11.1666 6.61281C10.9734 6.80613 10.9734 7.12613 11.1666 7.31947C11.2666 7.41947 11.3934 7.46614 11.52 7.46614C11.6466 7.46614 11.7734 7.41947 11.8734 7.31947L14.3466 4.84615C14.3934 4.79948 14.4334 4.73948 14.46 4.67281C14.46 4.66615 14.46 4.65948 14.4666 4.65281C14.4866 4.59948 14.5 4.54615 14.5 4.48615Z" fill="white"/>
<path d="M14 11.0135H3.20666L4.83334 9.38684C5.02666 9.19348 5.02666 8.87348 4.83334 8.68012C4.64 8.48684 4.32 8.48684 4.12666 8.68012L1.65334 11.1535C1.60666 11.2001 1.56666 11.2601 1.54 11.3268C1.54 11.3335 1.54 11.3401 1.53334 11.3468C1.51334 11.4001 1.5 11.4601 1.5 11.5201C1.5 11.6535 1.55334 11.7801 1.64666 11.8735L4.12666 14.3535C4.22666 14.4535 4.35334 14.5001 4.48 14.5001C4.60666 14.5001 4.73334 14.4535 4.83334 14.3535C5.02666 14.1601 5.02666 13.8401 4.83334 13.6468L3.2 12.0135H14C14.2734 12.0135 14.5 11.7868 14.5 11.5135C14.5 11.2401 14.2734 11.0135 14 11.0135Z" fill="white"/>
</svg>
