<svg width="16" height="16" viewBox="0 0 16 16" fill="none" xmlns="http://www.w3.org/2000/svg">
<path d="M2.62387 1.7773C2.38956 1.54299 2.00966 1.54299 1.77535 1.7773C1.54103 2.01161 1.54103 2.39151 1.77535 2.62583L4.35108 5.20156H2.19961C1.86824 5.20156 1.59961 5.47019 1.59961 5.80156C1.59961 6.13293 1.86824 6.40156 2.19961 6.40156H5.79961C6.13098 6.40156 6.39961 6.13293 6.39961 5.80156V2.20156C6.39961 1.87019 6.13098 1.60156 5.79961 1.60156C5.46824 1.60156 5.19961 1.87019 5.19961 2.20156V4.35303L2.62387 1.7773Z" fill="#0F172A"/>
<path d="M10.7996 2.20156C10.7996 1.87019 10.531 1.60156 10.1996 1.60156C9.86825 1.60156 9.59961 1.87019 9.59961 2.20156V5.80156C9.59961 6.13293 9.86825 6.40156 10.1996 6.40156H13.7996C14.131 6.40156 14.3996 6.13293 14.3996 5.80156C14.3996 5.47019 14.131 5.20156 13.7996 5.20156H11.6482L14.2238 2.62583C14.4582 2.39151 14.4582 2.01161 14.2238 1.7773C13.9895 1.54299 13.6097 1.54299 13.3754 1.7773L10.7996 4.35303V2.20156Z" fill="#0F172A"/>
<path d="M2.62387 14.2258L5.19961 11.6501V13.8016C5.19961 14.1329 5.46824 14.4016 5.79961 14.4016C6.13098 14.4016 6.39961 14.1329 6.39961 13.8016V10.2016C6.39961 9.8702 6.13098 9.60156 5.79961 9.60156H2.19961C1.86824 9.60156 1.59961 9.8702 1.59961 10.2016C1.59961 10.5329 1.86824 10.8016 2.19961 10.8016H4.35108L1.77535 13.3773C1.54103 13.6116 1.54103 13.9915 1.77535 14.2258C2.00966 14.4601 2.38956 14.4601 2.62387 14.2258Z" fill="#0F172A"/>
<path d="M10.7996 11.6501L13.3754 14.2258C13.6097 14.4601 13.9895 14.4601 14.2238 14.2258C14.4582 13.9915 14.4582 13.6116 14.2238 13.3773L11.6482 10.8016H13.7996C14.131 10.8016 14.3996 10.5329 14.3996 10.2016C14.3996 9.8702 14.131 9.60156 13.7996 9.60156H10.1996C9.86825 9.60156 9.59961 9.8702 9.59961 10.2016V13.8016C9.59961 14.1329 9.86825 14.4016 10.1996 14.4016C10.531 14.4016 10.7996 14.1329 10.7996 13.8016V11.6501Z" fill="#0F172A"/>
</svg>
