<svg width="16" height="16" viewBox="0 0 16 16" fill="none" xmlns="http://www.w3.org/2000/svg">
<path d="M8.6 2.20156C8.6 1.87019 8.33136 1.60156 8 1.60156C7.66863 1.60156 7.4 1.87019 7.4 2.20156V9.09244L5.03621 6.58959C4.80868 6.34867 4.42894 6.33783 4.18802 6.56535C3.94712 6.79288 3.93626 7.17263 4.16379 7.41354L7.56379 11.0136C7.67714 11.1336 7.83493 11.2016 8 11.2016C8.16504 11.2016 8.32288 11.1336 8.43624 11.0136L11.8362 7.41354C12.0638 7.17263 12.0529 6.79288 11.812 6.56535C11.571 6.33783 11.1914 6.34867 10.9638 6.58959L8.6 9.09244V2.20156Z" fill="#0F172A"/>
<path d="M2.79961 10.2016C2.79961 9.8702 2.53098 9.60156 2.19961 9.60156C1.86824 9.60156 1.59961 9.8702 1.59961 10.2016V12.2016C1.59961 13.4166 2.58459 14.4016 3.79961 14.4016H12.1996C13.4146 14.4016 14.3996 13.4166 14.3996 12.2016V10.2016C14.3996 9.8702 14.131 9.60156 13.7996 9.60156C13.4682 9.60156 13.1996 9.8702 13.1996 10.2016V12.2016C13.1996 12.7539 12.7519 13.2016 12.1996 13.2016H3.79961C3.24732 13.2016 2.79961 12.7539 2.79961 12.2016V10.2016Z" fill="#0F172A"/>
</svg>
