<svg width="16" height="16" viewBox="0 0 16 16" fill="none" xmlns="http://www.w3.org/2000/svg">
<path d="M7.4 10.6016C7.4 10.9329 7.66863 11.2016 8 11.2016C8.33136 11.2016 8.6 10.9329 8.6 10.6016V3.7107L10.9638 6.21354C11.1913 6.45445 11.571 6.4653 11.812 6.23777C12.0529 6.01024 12.0638 5.6305 11.8362 5.38959L8.43624 1.78959C8.32288 1.66957 8.16504 1.60156 8 1.60156C7.83492 1.60156 7.67714 1.66957 7.56379 1.78959L4.1638 5.38959C3.93627 5.6305 3.94712 6.01024 4.18803 6.23777C4.42894 6.4653 4.80868 6.45445 5.03621 6.21354L7.4 3.7107V10.6016Z" fill="#0F172A"/>
<path d="M2.79961 10.2016C2.79961 9.8702 2.53098 9.60156 2.19961 9.60156C1.86824 9.60156 1.59961 9.8702 1.59961 10.2016V12.2016C1.59961 13.4166 2.58459 14.4016 3.79961 14.4016H12.1996C13.4146 14.4016 14.3996 13.4166 14.3996 12.2016V10.2016C14.3996 9.8702 14.131 9.60156 13.7996 9.60156C13.4682 9.60156 13.1996 9.8702 13.1996 10.2016V12.2016C13.1996 12.7539 12.7519 13.2016 12.1996 13.2016H3.79961C3.24732 13.2016 2.79961 12.7539 2.79961 12.2016V10.2016Z" fill="#0F172A"/>
</svg>
