<svg width="16" height="16" viewBox="0 0 16 16" fill="none" xmlns="http://www.w3.org/2000/svg">
<path fill-rule="evenodd" clip-rule="evenodd" d="M9.76678 1.78728C9.53798 2.02698 9.54678 2.40677 9.78646 2.63558L13.1033 5.80156H5.10078C2.72596 5.80156 0.800781 7.72674 0.800781 10.1016C0.800781 12.4764 2.72596 14.4016 5.10078 14.4016H7.40078C7.73215 14.4016 8.00078 14.1329 8.00078 13.8016C8.00078 13.4702 7.73215 13.2016 7.40078 13.2016H5.10078C3.3887 13.2016 2.00078 11.8136 2.00078 10.1016C2.00078 8.38948 3.3887 7.00156 5.10078 7.00156H13.1033L9.78646 10.1676C9.54678 10.3964 9.53798 10.7761 9.76678 11.0159C9.99558 11.2556 10.3753 11.2644 10.6151 11.0356L15.0151 6.83558C15.1337 6.72236 15.2008 6.56553 15.2008 6.40156C15.2008 6.2376 15.1337 6.08077 15.0151 5.96755L10.6151 1.76755C10.3753 1.53875 9.99558 1.54758 9.76678 1.78728Z" fill="#0F172A"/>
</svg>
