<svg width="16" height="16" viewBox="0 0 16 16" fill="none" xmlns="http://www.w3.org/2000/svg">
<path d="M10.794 1.33594H5.20732C2.78066 1.33594 1.33398 2.7826 1.33398 5.20927V10.7892C1.33398 13.2226 2.78066 14.6692 5.20732 14.6692H10.7874C13.214 14.6692 14.6606 13.2226 14.6606 10.796V5.20927C14.6674 2.7826 13.2206 1.33594 10.794 1.33594ZM11.214 9.49596L8.35399 12.356C8.26063 12.4492 8.13399 12.5026 8.00063 12.5026C7.86732 12.5026 7.74066 12.4492 7.64732 12.356L4.78732 9.49596C4.59398 9.3026 4.59398 8.9826 4.78732 8.78924C4.98066 8.59596 5.30066 8.59596 5.49398 8.78924L7.50066 10.796V4.0026C7.50066 3.72927 7.72732 3.5026 8.00063 3.5026C8.27399 3.5026 8.50063 3.72927 8.50063 4.0026V10.796L10.5074 8.78924C10.7006 8.59596 11.0206 8.59596 11.214 8.78924C11.314 8.88924 11.3606 9.01596 11.3606 9.1426C11.3606 9.26924 11.3074 9.4026 11.214 9.49596Z" fill="white"/>
</svg>
