<svg width="16" height="16" viewBox="0 0 16 16" fill="none" xmlns="http://www.w3.org/2000/svg">
<path fill-rule="evenodd" clip-rule="evenodd" d="M7.99961 14.4016C11.5342 14.4016 14.3996 11.5362 14.3996 8.00156C14.3996 4.46694 11.5342 1.60156 7.99961 1.60156C4.46499 1.60156 1.59961 4.46694 1.59961 8.00156C1.59961 11.5362 4.46499 14.4016 7.99961 14.4016ZM5.39961 7.40156C5.06824 7.40156 4.79961 7.67019 4.79961 8.00156C4.79961 8.33292 5.06824 8.60156 5.39961 8.60156H9.07169L7.39134 10.1619C7.14851 10.3874 7.13445 10.767 7.35994 11.0098C7.58542 11.2527 7.96506 11.2667 8.20785 11.0412L11.0078 8.44124C11.1302 8.32772 11.1996 8.16844 11.1996 8.00156C11.1996 7.83472 11.1302 7.67541 11.0078 7.56188L8.20785 4.96188C7.96506 4.7364 7.58542 4.75047 7.35993 4.99329C7.13445 5.23611 7.14851 5.61575 7.39134 5.84124L9.07169 7.40156H5.39961Z" fill="#0F172A"/>
</svg>
