<svg width="16" height="16" viewBox="0 0 16 16" fill="none" xmlns="http://www.w3.org/2000/svg">
<path fill-rule="evenodd" clip-rule="evenodd" d="M4 8.00078C4 7.66941 4.26863 7.40078 4.6 7.40078H9.91032L8.18416 5.83329C7.94527 5.60361 7.93782 5.22378 8.16752 4.98492C8.3972 4.74605 8.77704 4.73861 9.01584 4.96829L11.8158 7.56829C11.9335 7.68141 12 7.83757 12 8.00078C12 8.16398 11.9335 8.32014 11.8158 8.43326L9.01584 11.0333C8.77704 11.2629 8.3972 11.2555 8.16752 11.0166C7.93782 10.7778 7.94527 10.398 8.18416 10.1683L9.91032 8.60078H4.6C4.26863 8.60078 4 8.33214 4 8.00078Z" fill="#0F172A"/>
</svg>
