<svg width="16" height="16" viewBox="0 0 16 16" fill="none" xmlns="http://www.w3.org/2000/svg">
<path d="M10.794 1.33594H5.20732C2.78066 1.33594 1.33398 2.7826 1.33398 5.20927V10.7892C1.33398 13.2226 2.78066 14.6692 5.20732 14.6692H10.7874C13.214 14.6692 14.6606 13.2226 14.6606 10.796V5.20927C14.6674 2.7826 13.2206 1.33594 10.794 1.33594ZM12.0006 8.5026H5.20732L7.21398 10.5092C7.40732 10.7026 7.40732 11.0226 7.21398 11.216C7.11398 11.316 6.98732 11.3626 6.86066 11.3626C6.73398 11.3626 6.60732 11.316 6.50732 11.216L3.64732 8.35596C3.55398 8.2626 3.50066 8.13596 3.50066 8.0026C3.50066 7.86927 3.55398 7.7426 3.64732 7.64927L6.50732 4.78927C6.70066 4.59594 7.02066 4.59594 7.21398 4.78927C7.40732 4.9826 7.40732 5.3026 7.21398 5.49594L5.20732 7.5026H12.0006C12.274 7.5026 12.5006 7.72927 12.5006 8.0026C12.5006 8.27596 12.274 8.5026 12.0006 8.5026Z" fill="white"/>
</svg>
