<svg width="16" height="16" viewBox="0 0 16 16" fill="none" xmlns="http://www.w3.org/2000/svg">
<path d="M10.794 1.33594H5.20732C2.78066 1.33594 1.33398 2.7826 1.33398 5.20927V10.7892C1.33398 13.2226 2.78066 14.6692 5.20732 14.6692H10.7874C13.214 14.6692 14.6606 13.2226 14.6606 10.796V5.20927C14.6674 2.7826 13.2206 1.33594 10.794 1.33594ZM10.7074 7.44927L8.35399 9.8026C8.25399 9.9026 8.12735 9.94924 8.00063 9.94924C7.87398 9.94924 7.74732 9.9026 7.64732 9.8026L5.29398 7.44927C5.10066 7.25594 5.10066 6.93594 5.29398 6.7426C5.48732 6.54927 5.80732 6.54927 6.00066 6.7426L8.00063 8.7426L10.0006 6.7426C10.194 6.54927 10.514 6.54927 10.7074 6.7426C10.9006 6.93594 10.9006 7.24927 10.7074 7.44927Z" fill="white"/>
</svg>
