<svg width="16" height="16" viewBox="0 0 16 16" fill="none" xmlns="http://www.w3.org/2000/svg">
<path fill-rule="evenodd" clip-rule="evenodd" d="M4.32265 11.6785C2.29192 9.6478 2.29192 6.35533 4.32265 4.32461C6.35338 2.29388 9.64581 2.29388 11.6765 4.32461C12.6921 5.34009 13.1996 6.66983 13.1996 8.00156C13.1996 8.55388 12.7517 9.00156 12.1994 9.00156C11.6472 9.00156 11.1994 8.55388 11.1994 8.00156C11.1994 6.23425 9.76677 4.80156 7.99941 4.80156C6.23211 4.80156 4.79942 6.23425 4.79942 8.00156C4.79942 9.76884 6.23211 11.2016 7.99941 11.2016C9.16373 11.2016 10.1828 10.5798 10.7426 9.65012C11.1307 9.99332 11.6407 10.2016 12.1994 10.2016C13.4085 10.2016 14.3899 9.22612 14.3993 8.01916C14.3995 8.01332 14.3996 8.00748 14.3996 8.00156C14.3996 6.36459 13.7746 4.72564 12.5251 3.47608C10.0257 0.976723 5.97348 0.976723 3.47412 3.47608C0.974771 5.97543 0.974771 10.0277 3.47412 12.5271C5.97348 15.0264 10.0257 15.0264 12.5251 12.5271C12.7594 12.2928 12.7594 11.9128 12.5251 11.6785C12.2908 11.4442 11.9109 11.4442 11.6765 11.6785C9.64581 13.7092 6.35338 13.7092 4.32265 11.6785ZM7.99941 6.00156C6.89485 6.00156 5.99942 6.89699 5.99942 8.00156C5.99942 9.10612 6.89485 10.0016 7.99941 10.0016C9.10397 10.0016 9.99941 9.10612 9.99941 8.00156C9.99941 6.89699 9.10397 6.00156 7.99941 6.00156Z" fill="#0F172A"/>
</svg>
