<svg width="16" height="16" viewBox="0 0 16 16" fill="none" xmlns="http://www.w3.org/2000/svg">
<path d="M10.794 1.33594H5.20732C2.78066 1.33594 1.33398 2.7826 1.33398 5.20927V10.7892C1.33398 13.2226 2.78066 14.6692 5.20732 14.6692H10.7874C13.214 14.6692 14.6606 13.2226 14.6606 10.796V5.20927C14.6674 2.7826 13.2206 1.33594 10.794 1.33594ZM10.914 9.56924L9.43399 11.0492C9.07399 11.4092 8.60735 11.5826 8.14063 11.5826C7.67398 11.5826 7.20066 11.4026 6.84732 11.0492C6.50066 10.7026 6.30732 10.2426 6.30732 9.75596C6.30732 9.26924 6.50066 8.8026 6.84732 8.4626L7.78732 7.5226C7.98066 7.32927 8.30063 7.32927 8.49399 7.5226C8.68735 7.71594 8.68735 8.03596 8.49399 8.22924L7.55398 9.16924C7.39398 9.32924 7.30732 9.53596 7.30732 9.75596C7.30732 9.97596 7.39398 10.1892 7.55398 10.3426C7.88066 10.6692 8.40735 10.6692 8.73399 10.3426L10.214 8.8626C11.0606 8.01596 11.0606 6.6426 10.214 5.79594C9.36735 4.94927 7.99398 4.94927 7.14732 5.79594L5.53398 7.40927C5.19398 7.74927 5.00732 8.19596 5.00732 8.66924C5.00732 9.1426 5.19398 9.59596 5.53398 9.92924C5.72732 10.1226 5.72732 10.4426 5.53398 10.636C5.34066 10.8292 5.02066 10.8292 4.82732 10.636C4.29398 10.1226 4.00066 9.4226 4.00066 8.67596C4.00066 7.92927 4.28732 7.22927 4.81398 6.7026L6.42732 5.08927C7.66066 3.85594 9.67399 3.85594 10.9074 5.08927C12.1474 6.3226 12.1474 8.33596 10.914 9.56924Z" fill="white"/>
</svg>
