<svg width="16" height="16" viewBox="0 0 16 16" fill="none" xmlns="http://www.w3.org/2000/svg">
<path d="M6.44721 9.28125C5.95387 9.28125 5.56055 9.68125 5.56055 10.1745C5.56055 10.6679 5.96055 11.0613 6.44721 11.0613C6.94051 11.0613 7.34052 10.6613 7.34052 10.1745C7.34052 9.68125 6.94051 9.28125 6.44721 9.28125Z" fill="white"/>
<path d="M10.794 1.33594H5.20732C2.78066 1.33594 1.33398 2.7826 1.33398 5.20927V10.7892C1.33398 13.2226 2.78066 14.6692 5.20732 14.6692H10.7874C13.214 14.6692 14.6606 13.2226 14.6606 10.796V5.20927C14.6674 2.7826 13.2206 1.33594 10.794 1.33594ZM11.414 6.53594C11.414 6.9426 11.2406 7.3026 10.9474 7.51594C10.7606 7.64927 10.534 7.7226 10.294 7.7226C10.154 7.7226 10.014 7.69594 9.86735 7.64927L8.34063 7.1426C8.33399 7.1426 8.32063 7.13594 8.31399 7.12927V10.1692C8.31399 11.196 7.47398 12.036 6.44732 12.036C5.42066 12.036 4.58066 11.196 4.58066 10.1692C4.58066 9.1426 5.42066 8.3026 6.44732 8.3026C6.77398 8.3026 7.07398 8.39596 7.34066 8.53596V5.75594V5.34927C7.34066 4.9426 7.51398 4.5826 7.80732 4.36927C8.10735 4.15594 8.50063 4.1026 8.88735 4.23594L10.414 4.7426C10.9874 4.93594 11.4206 5.53594 11.4206 6.13594V6.53594H11.414Z" fill="white"/>
</svg>
