<svg width="16" height="16" viewBox="0 0 16 16" fill="none" xmlns="http://www.w3.org/2000/svg">
<path d="M8.00063 1.33594C4.32066 1.33594 1.33398 4.3226 1.33398 8.0026C1.33398 11.6826 4.32066 14.6692 8.00063 14.6692C11.6806 14.6692 14.6674 11.6826 14.6674 8.0026C14.6674 4.3226 11.6806 1.33594 8.00063 1.33594ZM5.55398 7.10927L7.22066 3.77594C7.30732 3.60927 7.48066 3.5026 7.66732 3.5026H8.33399C8.52063 3.5026 8.69399 3.60927 8.78063 3.77594L10.4474 7.10927C10.574 7.35594 10.474 7.65594 10.2206 7.7826C10.1474 7.81594 10.074 7.83594 10.0006 7.83594C9.82063 7.83594 9.64063 7.73594 9.55399 7.5626L8.02735 4.5026H7.98066L6.45398 7.5626C6.33398 7.80927 6.03398 7.90927 5.78066 7.78927C5.52732 7.6626 5.42732 7.3626 5.55398 7.10927ZM11.594 10.4292L8.26063 12.4292C8.18063 12.476 8.09399 12.5026 8.00063 12.5026C7.90732 12.5026 7.82066 12.476 7.74066 12.4292L4.40732 10.4292C4.18066 10.296 4.10066 10.0092 4.21398 9.77596L4.88066 8.4426C5.00732 8.19596 5.30732 8.09596 5.55398 8.21596C5.80066 8.3426 5.90066 8.6426 5.78066 8.88924L5.32066 9.80924L8.00063 11.416L10.6806 9.80924L10.2206 8.88924C10.094 8.6426 10.194 8.3426 10.4474 8.21596C10.694 8.09596 10.994 8.18924 11.1206 8.4426L11.7874 9.77596C11.9006 10.0092 11.814 10.296 11.594 10.4292Z" fill="white"/>
</svg>
