<svg width="16" height="16" viewBox="0 0 16 16" fill="none" xmlns="http://www.w3.org/2000/svg">
<path d="M8.00063 1.33594C4.32066 1.33594 1.33398 4.3226 1.33398 8.0026C1.33398 11.6826 4.32066 14.6692 8.00063 14.6692C11.6806 14.6692 14.6674 11.6826 14.6674 8.0026C14.6674 4.3226 11.6806 1.33594 8.00063 1.33594ZM7.13398 10.7626H4.29398C4.16732 10.7626 4.0873 10.6226 4.15398 10.5092L5.57398 8.1426C5.64065 8.03596 5.79398 8.03596 5.86064 8.1426L7.28066 10.5092C7.34732 10.6226 7.26732 10.7626 7.13398 10.7626ZM6.58066 6.7626C6.45398 6.7626 6.37397 6.62259 6.44063 6.50927L7.86066 4.14261C7.92732 4.03595 8.08063 4.03595 8.14735 4.14261L9.56735 6.50927C9.63399 6.62259 9.55399 6.7626 9.42735 6.7626H6.58066ZM11.7074 10.7626H8.86735C8.74063 10.7626 8.66063 10.6226 8.72735 10.5092L10.1474 8.1426C10.214 8.03596 10.3674 8.03596 10.434 8.1426L11.854 10.5092C11.914 10.6226 11.834 10.7626 11.7074 10.7626Z" fill="white"/>
</svg>
