<svg width="16" height="16" viewBox="0 0 16 16" fill="none" xmlns="http://www.w3.org/2000/svg">
<path d="M14.3727 7.15876L13.4726 6.10542C13.3059 5.90542 13.1659 5.53208 13.1659 5.26542V4.13208C13.1659 3.42542 12.5859 2.84542 11.8793 2.84542H10.7459C10.4793 2.84542 10.0993 2.70542 9.8993 2.53875L8.84594 1.63875C8.38594 1.24542 7.63262 1.24542 7.17262 1.63875L6.10594 2.53875C5.90594 2.70542 5.5326 2.84542 5.26594 2.84542H4.1126C3.40594 2.84542 2.82594 3.42542 2.82594 4.13208V5.26542C2.82594 5.52542 2.6926 5.89875 2.52594 6.09875L1.62594 7.15876C1.23927 7.62543 1.23927 8.37208 1.62594 8.82544L2.52594 9.88544C2.6926 10.0788 2.82594 10.4588 2.82594 10.7188V11.8588C2.82594 12.5654 3.40594 13.1454 4.1126 13.1454H5.2726C5.5326 13.1454 5.9126 13.2854 6.1126 13.4521L7.16595 14.3521C7.62595 14.7454 8.3793 14.7454 8.8393 14.3521L9.89258 13.4521C10.0926 13.2854 10.4659 13.1454 10.7326 13.1454H11.8659C12.5726 13.1454 13.1527 12.5654 13.1527 11.8588V10.7254C13.1527 10.4588 13.2926 10.0854 13.4593 9.88544L14.3593 8.83208C14.7659 8.3788 14.7659 7.62543 14.3727 7.15876ZM9.87258 10.8254L9.2193 9.3588C9.1993 9.3588 9.1793 9.37208 9.1593 9.37208H6.82595C6.80595 9.37208 6.78595 9.36544 6.76595 9.3588L6.1126 10.8254L5.19927 10.4188L7.53262 5.16542H8.44594L10.7793 10.4188L9.87258 10.8254Z" fill="white"/>
<path d="M7.21289 8.37218H8.78625L7.99956 6.60547L7.21289 8.37218Z" fill="white"/>
</svg>
