<svg width="16" height="16" viewBox="0 0 16 16" fill="none" xmlns="http://www.w3.org/2000/svg">
<path d="M8.00063 1.33594C4.32066 1.33594 1.33398 4.3226 1.33398 8.0026C1.33398 11.6826 4.32066 14.6692 8.00063 14.6692C11.6806 14.6692 14.6674 11.6826 14.6674 8.0026C14.6674 4.3226 11.6806 1.33594 8.00063 1.33594ZM7.14732 10.276C6.92732 10.6292 6.54065 10.8426 6.12065 10.8426H4.29398C4.06066 10.8426 3.91398 10.5892 4.03398 10.3892L7.77398 3.9826C7.88066 3.79594 8.14735 3.7826 8.27399 3.95594L9.31399 5.34927C9.61399 5.74927 9.63399 6.28927 9.37399 6.71594L7.14732 10.276ZM11.7006 10.8426H9.14063C8.90735 10.8426 8.76063 10.5892 8.88063 10.3826L10.1606 8.24924C10.2806 8.05596 10.5606 8.05596 10.6806 8.24924L11.9606 10.3826C12.0806 10.5826 11.934 10.8426 11.7006 10.8426Z" fill="white"/>
</svg>
