<svg width="16" height="16" viewBox="0 0 16 16" fill="none" xmlns="http://www.w3.org/2000/svg">
<path d="M11.8736 3.6626V4.15594L9.51361 2.78927C8.62025 2.27594 7.3736 2.27594 6.48695 2.78927L4.12695 4.1626V3.6626C4.12695 2.1626 4.94695 1.33594 6.44695 1.33594H9.55361C11.0536 1.33594 11.8736 2.1626 11.8736 3.6626Z" fill="white"/>
<path d="M11.894 5.31349L11.8006 5.26682L10.894 4.74682L9.01399 3.66016C8.44063 3.32682 7.56066 3.32682 6.98732 3.66016L5.10732 4.74016L4.20066 5.27349L4.08066 5.33349C2.91398 6.12016 2.83398 6.26682 2.83398 7.52681V10.5401C2.83398 11.8001 2.91398 11.9468 4.10732 12.7535L6.98732 14.4135C7.27398 14.5868 7.63398 14.6601 8.00063 14.6601C8.36063 14.6601 8.72735 14.5801 9.01399 14.4135L11.9206 12.7335C13.094 11.9468 13.1674 11.8068 13.1674 10.5401V7.52681C13.1674 6.26682 13.0874 6.12016 11.894 5.31349ZM9.86063 9.00014L9.45399 9.50014C9.38735 9.5735 9.34063 9.7135 9.34735 9.8135L9.38735 10.4535C9.41399 10.8468 9.13399 11.0468 8.76735 10.9068L8.17399 10.6668C8.08063 10.6335 7.92732 10.6335 7.83398 10.6668L7.24066 10.9001C6.87398 11.0468 6.59398 10.8401 6.62066 10.4468L6.66066 9.80678C6.66732 9.70678 6.62066 9.56678 6.55398 9.4935L6.14066 9.00014C5.88732 8.70014 6.00066 8.36678 6.38066 8.26678L7.00066 8.10678C7.10066 8.08014 7.21398 7.98681 7.26732 7.90681L7.61398 7.37347C7.82732 7.04013 8.16735 7.04013 8.38735 7.37347L8.73399 7.90681C8.78735 7.99347 8.90735 8.08014 9.00063 8.10678L9.62063 8.26678C10.0006 8.36678 10.114 8.70014 9.86063 9.00014Z" fill="white"/>
</svg>
