<svg width="16" height="16" viewBox="0 0 16 16" fill="none" xmlns="http://www.w3.org/2000/svg">
<path d="M10.794 1.33594H5.20732C2.78066 1.33594 1.33398 2.7826 1.33398 5.20927V10.7892C1.33398 13.2226 2.78066 14.6692 5.20732 14.6692H10.7874C13.214 14.6692 14.6606 13.2226 14.6606 10.796V5.20927C14.6674 2.7826 13.2206 1.33594 10.794 1.33594ZM9.28063 10.756H6.00066C5.72732 10.756 5.50066 10.5292 5.50066 10.256C5.50066 9.9826 5.72732 9.75596 6.00066 9.75596H9.28063C10.134 9.75596 10.834 9.0626 10.834 8.2026C10.834 7.3426 10.1406 6.64927 9.28063 6.64927H5.90066L6.07398 6.8226C6.26732 7.0226 6.26732 7.33594 6.06732 7.53594C5.96732 7.63594 5.84066 7.6826 5.71398 7.6826C5.58732 7.6826 5.46066 7.63594 5.36066 7.53594L4.31398 6.4826C4.12066 6.28927 4.12066 5.96927 4.31398 5.77594L5.36066 4.72927C5.55398 4.53594 5.87398 4.53594 6.06732 4.72927C6.26066 4.9226 6.26066 5.2426 6.06732 5.43594L5.84732 5.65594H9.28063C10.6874 5.65594 11.834 6.8026 11.834 8.20924C11.834 9.61596 10.6874 10.756 9.28063 10.756Z" fill="white"/>
</svg>
