<svg width="16" height="16" viewBox="0 0 16 16" fill="none" xmlns="http://www.w3.org/2000/svg">
<path d="M9.62094 11.2776H8.0943C7.82093 11.2776 7.59427 11.0509 7.59427 10.7776C7.59427 10.5043 7.82093 10.2776 8.0943 10.2776H9.62094C9.90758 10.2776 10.1409 10.0443 10.1409 9.75764C10.1409 9.47092 9.90758 9.23764 9.62094 9.23764H8.0943C7.93427 9.23764 7.78093 9.15764 7.6876 9.03092C7.59427 8.90428 7.5676 8.73092 7.62093 8.57764L8.12758 7.05095C8.1943 6.84427 8.38758 6.71094 8.60094 6.71094H10.6409C10.9143 6.71094 11.1409 6.93761 11.1409 7.21095C11.1409 7.48427 10.9143 7.71095 10.6409 7.71095H8.96094L8.78758 8.23764H9.62094C10.4609 8.23764 11.1409 8.91764 11.1409 9.75764C11.1409 10.5976 10.4543 11.2776 9.62094 11.2776Z" fill="white"/>
<path d="M6.36093 11.2818C6.08759 11.2818 5.86093 11.0552 5.86093 10.7818V8.52182L5.73425 8.66854C5.54759 8.87518 5.23425 8.88854 5.02759 8.70854C4.82759 8.52182 4.80759 8.20854 4.99425 8.00182L5.99425 6.88851C6.13425 6.73517 6.35425 6.68185 6.54759 6.75517C6.74092 6.82851 6.86758 7.01517 6.86758 7.22185V10.7885C6.86092 11.0618 6.64093 11.2818 6.36093 11.2818Z" fill="white"/>
<path d="M7.99973 2.31703C7.9464 2.31703 7.89306 2.3237 7.83973 2.3237L8.3864 1.6437C8.55976 1.43037 8.5264 1.11037 8.3064 0.943695C8.0864 0.777031 7.77973 0.803695 7.6064 1.02369L6.29307 2.66369C6.28641 2.67037 6.28641 2.67703 6.27973 2.69037C6.25973 2.71703 6.24641 2.75037 6.23307 2.77703C6.21973 2.81037 6.20641 2.83703 6.19973 2.86369C6.19307 2.89703 6.19307 2.9237 6.19307 2.95703C6.19307 2.99037 6.19307 3.0237 6.19307 3.05703C6.19307 3.07037 6.19307 3.07703 6.19307 3.09037C6.19973 3.11037 6.21307 3.1237 6.21973 3.1437C6.23307 3.17703 6.24641 3.2037 6.25973 3.23703C6.27973 3.2637 6.29973 3.29037 6.32641 3.31037C6.33973 3.33037 6.34641 3.35037 6.36641 3.3637C6.37973 3.37037 6.38641 3.37703 6.39973 3.38369C6.41307 3.39703 6.43307 3.4037 6.45307 3.41037C6.48641 3.43037 6.52641 3.4437 6.55973 3.45037C6.58641 3.4637 6.60641 3.4637 6.62641 3.4637C6.64641 3.4637 6.65973 3.47037 6.67973 3.47037C6.69973 3.47037 6.71306 3.46369 6.7264 3.45703C6.7464 3.45703 6.7664 3.46369 6.7864 3.45703C7.21306 3.35703 7.61306 3.31037 7.99306 3.31037C10.9864 3.31037 13.4198 5.74369 13.4198 8.73708C13.4198 11.7304 10.9864 14.1637 7.99306 14.1637C4.99973 14.1637 2.56641 11.7304 2.56641 8.73708C2.56641 7.57706 2.94641 6.45703 3.66641 5.49703C3.83307 5.27703 3.78641 4.9637 3.56641 4.79703C3.34641 4.63037 3.03307 4.67703 2.86641 4.89703C2.01307 6.03037 1.56641 7.35706 1.56641 8.73708C1.56641 12.2771 4.44641 15.1637 7.99306 15.1637C11.5398 15.1637 14.4198 12.2837 14.4198 8.73708C14.4198 5.19037 11.5398 2.31703 7.99973 2.31703Z" fill="white"/>
</svg>
