<svg width="16" height="16" viewBox="0 0 16 16" fill="none" xmlns="http://www.w3.org/2000/svg">
<path d="M14.166 3.43594V5.23594C14.166 6.4626 13.7927 6.83594 12.566 6.83594H10.766C9.53938 6.83594 9.16602 6.4626 9.16602 5.23594V3.43594C9.16602 2.20927 9.53938 1.83594 10.766 1.83594H12.566C13.7927 1.83594 14.166 2.20927 14.166 3.43594Z" fill="white"/>
<path d="M6.83398 10.7641V12.5641C6.83398 13.7908 6.46066 14.1641 5.23398 14.1641H3.43398C2.20732 14.1641 1.83398 13.7908 1.83398 12.5641V10.7641C1.83398 9.53742 2.20732 9.16406 3.43398 9.16406H5.23398C6.46066 9.16406 6.83398 9.53742 6.83398 10.7641Z" fill="white"/>
<path d="M10.7674 7.83404C10.9441 7.83404 11.0874 7.9773 11.0874 8.15405V9.08069C11.0874 10.6007 10.6007 11.0874 9.0807 11.0874H8.15406C7.97732 11.0874 7.83405 10.9441 7.83405 10.7674C7.83405 8.99405 7.00738 8.16741 5.23406 8.16741C5.05733 8.16741 4.91406 8.02413 4.91406 7.84737V6.9207C4.91406 5.40073 5.40073 4.91406 6.92072 4.91406H7.84738C8.02414 4.91406 8.16742 5.05733 8.16742 5.23407C8.16742 7.00737 8.99406 7.83404 10.7674 7.83404Z" fill="white"/>
</svg>
