<svg width="16" height="16" viewBox="0 0 16 16" fill="none" xmlns="http://www.w3.org/2000/svg">
<path fill-rule="evenodd" clip-rule="evenodd" d="M5.77534 2.57417C5.88786 2.46165 6.04048 2.39844 6.19961 2.39844H13.3996C14.3937 2.39844 15.1996 3.20433 15.1996 4.19844V11.7984C15.1996 12.7925 14.3937 13.5984 13.3996 13.5984H6.19961C6.04048 13.5984 5.88786 13.5352 5.77534 13.4227L0.775345 8.42268C0.541031 8.18836 0.541031 7.80849 0.775345 7.57417L5.77534 2.57417ZM8.22385 5.77417C7.98956 5.53986 7.60966 5.53986 7.37535 5.77417C7.14103 6.00849 7.14103 6.38839 7.37535 6.6227L8.75105 7.99844L7.37535 9.3742C7.14103 9.60852 7.14103 9.98836 7.37535 10.2227C7.60966 10.457 7.98956 10.457 8.22385 10.2227L9.59961 8.847L10.9754 10.2227C11.2097 10.457 11.5895 10.457 11.8238 10.2227C12.0582 9.98836 12.0582 9.60852 11.8238 9.3742L10.4482 7.99844L11.8238 6.6227C12.0582 6.38839 12.0582 6.00849 11.8238 5.77417C11.5895 5.53986 11.2097 5.53986 10.9754 5.77417L9.59961 7.14991L8.22385 5.77417Z" fill="#0F172A"/>
</svg>
