<svg width="16" height="16" viewBox="0 0 16 16" fill="none" xmlns="http://www.w3.org/2000/svg">
<path d="M6.36035 11.1139C6.08702 11.1139 5.86035 10.8872 5.86035 10.6139V8.35388L5.73369 8.50052C5.54702 8.70716 5.23369 8.72052 5.02702 8.54052C4.82035 8.35388 4.80702 8.04052 4.98702 7.83386L5.98702 6.72054C6.12702 6.56721 6.34702 6.51387 6.54035 6.58721C6.73372 6.66054 6.86038 6.8472 6.86038 7.05387V10.6205C6.86038 10.8939 6.64035 11.1139 6.36035 11.1139Z" fill="white"/>
<path d="M8.00009 2.31982C7.94673 2.31982 7.8934 2.32649 7.84006 2.32649L8.38673 1.64649C8.56009 1.43316 8.52673 1.11316 8.30673 0.946492C8.09337 0.773157 7.78006 0.806492 7.60673 1.02649L6.29341 2.66649C6.28674 2.67316 6.28674 2.67982 6.28008 2.69316C6.26008 2.71982 6.24674 2.75316 6.23341 2.77982C6.22008 2.81316 6.20674 2.83982 6.20008 2.86649C6.19341 2.89982 6.19341 2.92649 6.19341 2.95982C6.19341 2.99316 6.19341 3.02649 6.19341 3.05982C6.19341 3.07316 6.19341 3.07982 6.19341 3.09316C6.20008 3.11316 6.21341 3.12649 6.22008 3.15316C6.23341 3.18649 6.24008 3.21316 6.26008 3.23982C6.28008 3.26649 6.30008 3.29316 6.32674 3.31982C6.34008 3.33316 6.35341 3.35316 6.36674 3.36649C6.37341 3.37316 6.38674 3.37316 6.39341 3.37982C6.41341 3.39316 6.43341 3.40649 6.46008 3.41316C6.49341 3.43316 6.52674 3.44649 6.56008 3.45316C6.58674 3.46649 6.60674 3.46649 6.63341 3.46649C6.65341 3.46649 6.66673 3.47316 6.68673 3.47316C6.70006 3.47316 6.72006 3.46649 6.7334 3.45982C6.7534 3.45982 6.7734 3.45982 6.80006 3.45982C7.22673 3.35982 7.62673 3.31316 8.00673 3.31316C11.0001 3.31316 13.4334 5.74649 13.4334 8.7398C13.4334 11.7332 11.0001 14.1664 8.00673 14.1664C5.01341 14.1664 2.58008 11.7332 2.58008 8.7398C2.58008 7.5798 2.96008 6.45982 3.68008 5.49982C3.84674 5.27982 3.80008 4.96649 3.58008 4.79982C3.36008 4.63316 3.04674 4.67982 2.88008 4.89982C2.02674 6.03316 1.58008 7.3598 1.58008 8.7398C1.58008 12.2798 4.46008 15.1664 8.00673 15.1664C11.5534 15.1664 14.4334 12.2864 14.4334 8.7398C14.4334 5.19316 11.5401 2.31982 8.00009 2.31982Z" fill="white"/>
<path d="M9.33336 11.1135C8.32 11.1135 7.5 10.2935 7.5 9.28024V8.38024C7.5 7.36687 8.32 6.54688 9.33336 6.54688C10.3466 6.54688 11.1666 7.36687 11.1666 8.38024V9.28024C11.1666 10.2935 10.3466 11.1135 9.33336 11.1135ZM9.33336 7.55354C8.87336 7.55354 8.5 7.92687 8.5 8.38688V9.28688C8.5 9.74688 8.87336 10.1202 9.33336 10.1202C9.79336 10.1202 10.1666 9.74688 10.1666 9.28688V8.38688C10.1666 7.92687 9.79336 7.55354 9.33336 7.55354Z" fill="white"/>
</svg>
