<svg width="16" height="16" viewBox="0 0 16 16" fill="none" xmlns="http://www.w3.org/2000/svg">
<path d="M8.25374 11.2776H6.72705C6.45374 11.2776 6.22708 11.0509 6.22708 10.7776C6.22708 10.5043 6.45374 10.2776 6.72705 10.2776H8.25374C8.54038 10.2776 8.77374 10.0443 8.77374 9.75764C8.77374 9.47092 8.54038 9.23764 8.25374 9.23764H6.72705C6.56708 9.23764 6.41374 9.15764 6.32041 9.03092C6.22708 8.90428 6.20041 8.73092 6.25374 8.57764L6.76038 7.05095C6.82705 6.84427 7.02038 6.71094 7.23372 6.71094H9.27374C9.54702 6.71094 9.77374 6.93761 9.77374 7.21095C9.77374 7.48427 9.54702 7.71095 9.27374 7.71095H7.59372L7.42038 8.23764H8.25374C9.09374 8.23764 9.77374 8.91764 9.77374 9.75764C9.77374 10.5976 9.09374 11.2776 8.25374 11.2776Z" fill="white"/>
<path d="M7.99973 2.31703C7.9464 2.31703 7.89306 2.3237 7.83973 2.3237L8.3864 1.6437C8.55976 1.43037 8.5264 1.11037 8.3064 0.943695C8.0864 0.777031 7.77973 0.803695 7.6064 1.02369L6.29307 2.66369C6.28641 2.67037 6.28641 2.67703 6.27973 2.69037C6.25973 2.71703 6.24641 2.75037 6.23307 2.77703C6.21973 2.81037 6.20641 2.83703 6.19973 2.86369C6.19307 2.89703 6.19307 2.9237 6.19307 2.95703C6.19307 2.99037 6.19307 3.0237 6.19307 3.05703C6.19307 3.07037 6.19307 3.07703 6.19307 3.09037C6.19973 3.11037 6.21307 3.1237 6.21973 3.1437C6.23307 3.17703 6.24641 3.2037 6.25973 3.23703C6.27973 3.2637 6.29973 3.29037 6.32641 3.31037C6.33973 3.33037 6.34641 3.35037 6.36641 3.3637C6.37973 3.37037 6.38641 3.37703 6.39973 3.38369C6.41973 3.39703 6.43307 3.4037 6.45307 3.41037C6.48641 3.43037 6.52641 3.4437 6.56641 3.45037C6.58641 3.4637 6.60641 3.4637 6.62641 3.4637C6.64641 3.4637 6.65973 3.47037 6.67973 3.47037C6.69973 3.47037 6.71306 3.46369 6.7264 3.45703C6.7464 3.45703 6.7664 3.46369 6.7864 3.45703C7.21306 3.35703 7.61306 3.31037 7.99306 3.31037C10.9864 3.31037 13.4198 5.74369 13.4198 8.73708C13.4198 11.7304 10.9864 14.1637 7.99306 14.1637C4.99973 14.1637 2.56641 11.7304 2.56641 8.73708C2.56641 7.57706 2.94641 6.45703 3.66641 5.49703C3.83307 5.27703 3.78641 4.9637 3.56641 4.79703C3.34641 4.63037 3.03307 4.67703 2.86641 4.89703C2.01307 6.03037 1.56641 7.35706 1.56641 8.73708C1.56641 12.2771 4.44641 15.1637 7.99306 15.1637C11.5398 15.1637 14.4198 12.2837 14.4198 8.73708C14.4198 5.19037 11.5398 2.31703 7.99973 2.31703Z" fill="white"/>
</svg>
