<svg width="16" height="16" viewBox="0 0 16 16" fill="none" xmlns="http://www.w3.org/2000/svg">
<path d="M13.3058 5.97359C12.8591 5.48026 12.1858 5.19359 11.2525 5.09359V4.58693C11.2525 3.67359 10.8658 2.79359 10.1858 2.18026C9.49913 1.55359 8.60585 1.26026 7.67914 1.34693C6.08585 1.50026 4.74585 3.04026 4.74585 4.70693V5.09359C3.81251 5.19359 3.13918 5.48026 2.69251 5.97359C2.04585 6.6936 2.06585 7.6536 2.13918 8.3203L2.60585 12.0336C2.74585 13.3336 3.27251 14.6669 6.13918 14.6669H9.85913C12.7258 14.6669 13.2525 13.3336 13.3925 12.0403L13.8591 8.31358C13.9325 7.6536 13.9458 6.6936 13.3058 5.97359ZM7.77248 2.27359C8.43913 2.21359 9.07249 2.42026 9.56585 2.86693C10.0525 3.30693 10.3258 3.93359 10.3258 4.58693V5.05359H5.67251V4.70693C5.67251 3.52026 6.65251 2.38026 7.77248 2.27359ZM5.61251 8.76694H5.60585C5.23918 8.76694 4.93918 8.46694 4.93918 8.1003C4.93918 7.7336 5.23918 7.4336 5.60585 7.4336C5.97918 7.4336 6.27918 7.7336 6.27918 8.1003C6.27918 8.46694 5.97918 8.76694 5.61251 8.76694ZM10.2791 8.76694H10.2725C9.90585 8.76694 9.60585 8.46694 9.60585 8.1003C9.60585 7.7336 9.90585 7.4336 10.2725 7.4336C10.6458 7.4336 10.9458 7.7336 10.9458 8.1003C10.9458 8.46694 10.6458 8.76694 10.2791 8.76694Z" fill="white"/>
</svg>
