<svg width="16" height="16" viewBox="0 0 16 16" fill="none" xmlns="http://www.w3.org/2000/svg">
<path d="M13.3058 5.97359C12.8591 5.48026 12.1858 5.19359 11.2525 5.09359V4.58693C11.2525 3.67359 10.8658 2.79359 10.1858 2.18026C9.49913 1.55359 8.60585 1.26026 7.67914 1.34693C6.08585 1.50026 4.74585 3.04026 4.74585 4.70693V5.09359C3.81251 5.19359 3.13918 5.48026 2.69251 5.97359C2.04585 6.6936 2.06585 7.6536 2.13918 8.3203L2.60585 12.0336C2.74585 13.3336 3.27251 14.6669 6.13918 14.6669H9.85913C12.7258 14.6669 13.2525 13.3336 13.3925 12.0403L13.8591 8.31358C13.9325 7.6536 13.9525 6.6936 13.3058 5.97359ZM7.77248 2.27359C8.43913 2.21359 9.07249 2.42026 9.56585 2.86693C10.0525 3.30693 10.3258 3.93359 10.3258 4.58693V5.05359H5.67251V4.70693C5.67251 3.52026 6.65251 2.38026 7.77248 2.27359ZM7.99914 12.3869C6.60585 12.3869 5.47251 11.2536 5.47251 9.8603C5.47251 8.46694 6.60585 7.3336 7.99914 7.3336C9.39249 7.3336 10.5258 8.46694 10.5258 9.8603C10.5258 11.2536 9.39249 12.3869 7.99914 12.3869Z" fill="white"/>
<path d="M7.61928 11.0933C7.49262 11.0933 7.36596 11.0466 7.26596 10.9466L6.60594 10.2866C6.4126 10.0933 6.4126 9.77327 6.60594 9.57999C6.79928 9.38663 7.11928 9.38663 7.31262 9.57999L7.63262 9.89999L8.6993 8.91327C8.8993 8.72663 9.2193 8.73999 9.40594 8.93999C9.59258 9.13999 9.5793 9.45999 9.3793 9.64663L7.95928 10.96C7.85928 11.0466 7.73928 11.0933 7.61928 11.0933Z" fill="white"/>
</svg>
