<svg width="16" height="16" viewBox="0 0 16 16" fill="none" xmlns="http://www.w3.org/2000/svg">
<path d="M12.8274 3.72037H12.5606L10.3074 1.46703C10.1274 1.28703 9.83399 1.28703 9.64735 1.46703C9.46735 1.64703 9.46735 1.94037 9.64735 2.12703L11.2406 3.72037H4.76066L6.35398 2.12703C6.53398 1.94703 6.53398 1.6537 6.35398 1.46703C6.17398 1.28703 5.88066 1.28703 5.69398 1.46703L3.44732 3.72037H3.18066C2.58066 3.72037 1.33398 3.72037 1.33398 5.42703C1.33398 6.0737 1.46732 6.50037 1.74732 6.78033C1.90732 6.947 2.10066 7.03366 2.30732 7.08033C2.50066 7.127 2.70732 7.13366 2.90732 7.13366H13.094C13.3006 7.13366 13.494 7.12033 13.6806 7.08033C14.2406 6.947 14.6674 6.54703 14.6674 5.42703C14.6674 3.72037 13.4206 3.72037 12.8274 3.72037Z" fill="white"/>
<path d="M12.7258 8H3.27249C2.85915 8 2.54582 8.36664 2.61249 8.77336L3.17249 12.2C3.35915 13.3466 3.85915 14.6666 6.07915 14.6666H9.81913C12.0658 14.6666 12.4658 13.54 12.7058 12.28L13.3791 8.79336C13.4591 8.38 13.1458 8 12.7258 8ZM9.91913 10.7L7.75248 12.7C7.65914 12.7866 7.53914 12.8334 7.41248 12.8334C7.28581 12.8334 7.15914 12.7866 7.05914 12.6866L6.05915 11.6866C5.86582 11.4934 5.86582 11.1734 6.05915 10.98C6.25915 10.7866 6.57249 10.7866 6.77248 10.98L7.43248 11.64L9.24585 9.96664C9.44585 9.78 9.76585 9.79336 9.95249 9.99336C10.1391 10.2 10.1258 10.5134 9.91913 10.7Z" fill="white"/>
</svg>
