<svg width="16" height="16" viewBox="0 0 16 16" fill="none" xmlns="http://www.w3.org/2000/svg">
<path d="M12.8274 3.72037H12.5606L10.3074 1.46703C10.1274 1.28703 9.83399 1.28703 9.64735 1.46703C9.46735 1.64703 9.46735 1.94037 9.64735 2.12703L11.2406 3.72037H4.76066L6.35398 2.12703C6.53398 1.94703 6.53398 1.6537 6.35398 1.46703C6.17398 1.28703 5.88066 1.28703 5.69398 1.46703L3.44732 3.72037H3.18066C2.58066 3.72037 1.33398 3.72037 1.33398 5.42703C1.33398 6.0737 1.46732 6.50037 1.74732 6.78033C1.90732 6.947 2.10066 7.03366 2.30732 7.08033C2.50066 7.127 2.70732 7.13366 2.90732 7.13366H13.094C13.3006 7.13366 13.494 7.12033 13.6806 7.08033C14.2406 6.947 14.6674 6.54703 14.6674 5.42703C14.6674 3.72037 13.4206 3.72037 12.8274 3.72037Z" fill="white"/>
<path d="M12.7258 8H3.27249C2.85915 8 2.54582 8.36664 2.61249 8.77336L3.17249 12.2C3.35915 13.3466 3.85915 14.6666 6.07915 14.6666H9.81913C12.0658 14.6666 12.4658 13.54 12.7058 12.28L13.3791 8.79336C13.4591 8.38 13.1458 8 12.7258 8ZM9.27913 12.5934C9.18585 12.6934 9.05913 12.74 8.92585 12.74C8.79913 12.74 8.67249 12.6934 8.57249 12.5934L8.01249 12.0266L7.42581 12.6134C7.32581 12.7134 7.19914 12.76 7.07248 12.76C6.93914 12.76 6.81248 12.7134 6.71914 12.6134C6.51915 12.42 6.51915 12.1066 6.71914 11.9066L7.30581 11.32L6.73914 10.76C6.53915 10.56 6.53915 10.2466 6.73914 10.0534C6.93248 9.85336 7.24581 9.85336 7.44581 10.0534L8.01249 10.6134L8.55249 10.0734C8.75249 9.87336 9.06585 9.87336 9.25913 10.0734C9.45913 10.2666 9.45913 10.58 9.25913 10.78L8.71913 11.32L9.27913 11.8866C9.47913 12.0866 9.47913 12.4 9.27913 12.5934Z" fill="white"/>
</svg>
