<svg width="16" height="16" viewBox="0 0 16 16" fill="none" xmlns="http://www.w3.org/2000/svg">
<path d="M12.8274 3.72037H12.5606L10.3074 1.46703C10.1274 1.28703 9.83399 1.28703 9.64735 1.46703C9.46735 1.64703 9.46735 1.94037 9.64735 2.12703L11.2406 3.72037H4.76066L6.35398 2.12703C6.53398 1.94703 6.53398 1.6537 6.35398 1.46703C6.17398 1.28703 5.88066 1.28703 5.69398 1.46703L3.44732 3.72037H3.18066C2.58066 3.72037 1.33398 3.72037 1.33398 5.42703C1.33398 6.0737 1.46732 6.50037 1.74732 6.78033C1.90732 6.947 2.10066 7.03366 2.30732 7.08033C2.50066 7.127 2.70732 7.13366 2.90732 7.13366H13.094C13.3006 7.13366 13.494 7.12033 13.6806 7.08033C14.2406 6.947 14.6674 6.54703 14.6674 5.42703C14.6674 3.72037 13.4206 3.72037 12.8274 3.72037Z" fill="white"/>
<path d="M12.7005 8H3.2471C2.83377 8 2.52043 8.36664 2.5871 8.77336L3.1471 12.2C3.33377 13.3466 3.83377 14.6666 6.05377 14.6666H9.79382C12.0405 14.6666 12.4405 13.54 12.6805 12.28L13.3537 8.79336C13.4337 8.38 13.1205 8 12.7005 8ZM8.00045 13C6.44043 13 5.1671 11.7266 5.1671 10.1666C5.1671 9.89336 5.39377 9.66664 5.6671 9.66664C5.94043 9.66664 6.1671 9.89336 6.1671 10.1666C6.1671 11.18 6.98712 12 8.00045 12C9.01382 12 9.83382 11.18 9.83382 10.1666C9.83382 9.89336 10.0605 9.66664 10.3338 9.66664C10.6071 9.66664 10.8338 9.89336 10.8338 10.1666C10.8338 11.7266 9.56046 13 8.00045 13Z" fill="white"/>
</svg>
