<svg width="16" height="16" viewBox="0 0 16 16" fill="none" xmlns="http://www.w3.org/2000/svg">
<path d="M13.3058 5.97359C12.8591 5.48026 12.1858 5.19359 11.2525 5.09359V4.58693C11.2525 3.67359 10.8658 2.79359 10.1858 2.18026C9.49913 1.55359 8.60585 1.26026 7.67914 1.34693C6.08585 1.50026 4.74585 3.04026 4.74585 4.70693V5.09359C3.81251 5.19359 3.13918 5.48026 2.69251 5.97359C2.04585 6.6936 2.06585 7.6536 2.13918 8.3203L2.60585 12.0336C2.74585 13.3336 3.27251 14.6669 6.13918 14.6669H9.85913C12.7258 14.6669 13.2525 13.3336 13.3925 12.0403L13.8591 8.31358C13.9325 7.6536 13.9525 6.6936 13.3058 5.97359ZM7.77248 2.27359C8.43913 2.21359 9.07249 2.42026 9.56585 2.86693C10.0525 3.30693 10.3258 3.93359 10.3258 4.58693V5.05359H5.67251V4.70693C5.67251 3.52026 6.65251 2.38026 7.77248 2.27359ZM7.99914 12.3869C6.60585 12.3869 5.47251 11.2536 5.47251 9.8603C5.47251 8.46694 6.60585 7.3336 7.99914 7.3336C9.39249 7.3336 10.5258 8.46694 10.5258 9.8603C10.5258 11.2536 9.39249 12.3869 7.99914 12.3869Z" fill="white"/>
<path d="M7.33325 11.0547C7.16658 11.0547 6.99992 10.968 6.90659 10.8147C6.76659 10.5813 6.83992 10.268 7.07992 10.128L7.67325 9.77469V9.05469C7.67325 8.78133 7.89992 8.55469 8.17328 8.55469C8.44656 8.55469 8.66656 8.77469 8.66656 9.05469V10.0547C8.66656 10.228 8.57328 10.3947 8.42656 10.4813L7.59325 10.9813C7.51325 11.028 7.41992 11.0547 7.33325 11.0547Z" fill="white"/>
</svg>
