<svg width="16" height="16" viewBox="0 0 16 16" fill="none" xmlns="http://www.w3.org/2000/svg">
<path fill-rule="evenodd" clip-rule="evenodd" d="M0.800781 3.19844C0.800781 2.75661 1.15896 2.39844 1.60078 2.39844H14.4008C14.8426 2.39844 15.2008 2.75661 15.2008 3.19844V9.59844C15.2008 10.0403 14.8426 10.3984 14.4008 10.3984H1.60078C1.15896 10.3984 0.800781 10.0403 0.800781 9.59844V3.19844ZM10.4008 6.39844C10.4008 7.72392 9.3263 8.79844 8.00078 8.79844C6.6753 8.79844 5.60078 7.72392 5.60078 6.39844C5.60078 5.07296 6.6753 3.99844 8.00078 3.99844C9.3263 3.99844 10.4008 5.07296 10.4008 6.39844ZM3.20078 7.19844C3.64261 7.19844 4.00078 6.84026 4.00078 6.39844C4.00078 5.95661 3.64261 5.59844 3.20078 5.59844C2.75896 5.59844 2.40078 5.95661 2.40078 6.39844C2.40078 6.84026 2.75896 7.19844 3.20078 7.19844ZM13.6008 6.39844C13.6008 6.84026 13.2426 7.19844 12.8008 7.19844C12.3589 7.19844 12.0008 6.84026 12.0008 6.39844C12.0008 5.95661 12.3589 5.59844 12.8008 5.59844C13.2426 5.59844 13.6008 5.95661 13.6008 6.39844ZM1.40078 11.5984C1.06941 11.5984 0.800781 11.8671 0.800781 12.1984C0.800781 12.5298 1.06941 12.7984 1.40078 12.7984C4.93463 12.7984 8.35486 13.2807 11.5997 14.1825C12.4889 14.4296 13.4008 13.7731 13.4008 12.8253V12.1984C13.4008 11.8671 13.1321 11.5984 12.8008 11.5984C12.4694 11.5984 12.2008 11.8671 12.2008 12.1984V12.8253C12.2008 12.9546 12.0697 13.0676 11.9211 13.0264C8.57254 12.0956 5.04426 11.5984 1.40078 11.5984Z" fill="#0F172A"/>
</svg>
