<svg width="16" height="16" viewBox="0 0 16 16" fill="none" xmlns="http://www.w3.org/2000/svg">
<path d="M14.6674 12.6666V14.6666H1.33398V12.6666C1.33398 12.3 1.63398 12 2.00066 12H14.0006C14.3674 12 14.6674 12.3 14.6674 12.6666Z" fill="white" stroke="white" stroke-width="1.5" stroke-miterlimit="10" stroke-linecap="round" stroke-linejoin="round"/>
<path d="M4.66732 7.33594H3.33398V12.0026H4.66732V7.33594Z" fill="white"/>
<path d="M7.33334 7.33594H6V12.0026H7.33334V7.33594Z" fill="white"/>
<path d="M9.99938 7.33594H8.66602V12.0026H9.99938V7.33594Z" fill="white"/>
<path d="M12.6673 7.33594H11.334V12.0026H12.6673V7.33594Z" fill="white"/>
<path d="M15.3326 15.1641H0.666016C0.392682 15.1641 0.166016 14.9374 0.166016 14.6641C0.166016 14.3908 0.392682 14.1641 0.666016 14.1641H15.3326C15.606 14.1641 15.8326 14.3908 15.8326 14.6641C15.8326 14.9374 15.606 15.1641 15.3326 15.1641Z" fill="white"/>
<path d="M14.2474 3.83453L8.24735 1.43453C8.11399 1.3812 7.88732 1.3812 7.75398 1.43453L1.75398 3.83453C1.52066 3.92786 1.33398 4.2012 1.33398 4.45453V6.66786C1.33398 7.0345 1.63398 7.3345 2.00066 7.3345H14.0006C14.3674 7.3345 14.6674 7.0345 14.6674 6.66786V4.45453C14.6674 4.2012 14.4806 3.92786 14.2474 3.83453ZM8.00063 5.66786C7.44732 5.66786 7.00066 5.2212 7.00066 4.66786C7.00066 4.11453 7.44732 3.66786 8.00063 3.66786C8.55399 3.66786 9.00063 4.11453 9.00063 4.66786C9.00063 5.2212 8.55399 5.66786 8.00063 5.66786Z" fill="white"/>
</svg>
