<svg width="16" height="16" viewBox="0 0 16 16" fill="none" xmlns="http://www.w3.org/2000/svg">
<path d="M11.334 2.33594H4.66732C2.66732 2.33594 1.33398 3.33594 1.33398 5.66927V10.336C1.33398 12.6692 2.66732 13.6692 4.66732 13.6692H11.334C13.334 13.6692 14.6674 12.6692 14.6674 10.336V5.66927C14.6674 3.33594 13.334 2.33594 11.334 2.33594ZM4.50066 10.6692C4.50066 10.9426 4.27398 11.1692 4.00066 11.1692C3.72732 11.1692 3.50066 10.9426 3.50066 10.6692V5.33594C3.50066 5.0626 3.72732 4.83594 4.00066 4.83594C4.27398 4.83594 4.50066 5.0626 4.50066 5.33594V10.6692ZM6.50066 10.6692C6.50066 10.9426 6.27398 11.1692 6.00066 11.1692C5.72732 11.1692 5.50066 10.9426 5.50066 10.6692V10.0026C5.50066 9.72924 5.72732 9.5026 6.00066 9.5026C6.27398 9.5026 6.50066 9.72924 6.50066 10.0026V10.6692ZM6.50066 8.0026C6.50066 8.27596 6.27398 8.5026 6.00066 8.5026C5.72732 8.5026 5.50066 8.27596 5.50066 8.0026V5.33594C5.50066 5.0626 5.72732 4.83594 6.00066 4.83594C6.27398 4.83594 6.50066 5.0626 6.50066 5.33594V8.0026ZM8.50063 10.6692C8.50063 10.9426 8.27399 11.1692 8.00063 11.1692C7.72732 11.1692 7.50066 10.9426 7.50066 10.6692V5.33594C7.50066 5.0626 7.72732 4.83594 8.00063 4.83594C8.27399 4.83594 8.50063 5.0626 8.50063 5.33594V10.6692ZM10.5006 10.6692C10.5006 10.9426 10.274 11.1692 10.0006 11.1692C9.72735 11.1692 9.50063 10.9426 9.50063 10.6692V8.0026C9.50063 7.72927 9.72735 7.5026 10.0006 7.5026C10.274 7.5026 10.5006 7.72927 10.5006 8.0026V10.6692ZM10.5006 6.0026C10.5006 6.27594 10.274 6.5026 10.0006 6.5026C9.72735 6.5026 9.50063 6.27594 9.50063 6.0026V5.33594C9.50063 5.0626 9.72735 4.83594 10.0006 4.83594C10.274 4.83594 10.5006 5.0626 10.5006 5.33594V6.0026ZM12.5006 10.6692C12.5006 10.9426 12.274 11.1692 12.0006 11.1692C11.7274 11.1692 11.5006 10.9426 11.5006 10.6692V5.33594C11.5006 5.0626 11.7274 4.83594 12.0006 4.83594C12.274 4.83594 12.5006 5.0626 12.5006 5.33594V10.6692Z" fill="white"/>
</svg>
