<svg width="16" height="16" viewBox="0 0 16 16" fill="none" xmlns="http://www.w3.org/2000/svg">
<path fill-rule="evenodd" clip-rule="evenodd" d="M1.59961 2.99844C1.59961 2.66707 1.86824 2.39844 2.19961 2.39844H11.3996C11.731 2.39844 11.9996 2.66707 11.9996 2.99844C11.9996 3.32981 11.731 3.59844 11.3996 3.59844H2.19961C1.86824 3.59844 1.59961 3.32981 1.59961 2.99844ZM1.59961 5.99844C1.59961 5.66707 1.86824 5.39844 2.19961 5.39844H7.2914C7.62277 5.39844 7.8914 5.66707 7.8914 5.99844C7.8914 6.32981 7.62277 6.59844 7.2914 6.59844H2.19961C1.86824 6.59844 1.59961 6.32981 1.59961 5.99844ZM11.1996 5.59844C11.3665 5.59844 11.5258 5.66791 11.6393 5.79017L14.2393 8.5902C14.4647 8.833 14.4507 9.2126 14.2078 9.43812C13.965 9.66356 13.5854 9.64956 13.3599 9.40668L11.7996 7.72636V12.9984C11.7996 13.3298 11.531 13.5984 11.1996 13.5984C10.8682 13.5984 10.5996 13.3298 10.5996 12.9984V7.72636L9.03929 9.40668C8.81377 9.64956 8.43417 9.66356 8.19137 9.43812C7.94851 9.2126 7.93445 8.833 8.15993 8.5902L10.7599 5.79017C10.8734 5.66791 11.0327 5.59844 11.1996 5.59844ZM1.59961 8.99844C1.59961 8.66708 1.86824 8.39844 2.19961 8.39844H5.5996C5.93097 8.39844 6.1996 8.66708 6.1996 8.99844C6.1996 9.3298 5.93097 9.59844 5.5996 9.59844H2.19961C1.86824 9.59844 1.59961 9.3298 1.59961 8.99844Z" fill="#0F172A"/>
</svg>
