<svg width="16" height="16" viewBox="0 0 16 16" fill="none" xmlns="http://www.w3.org/2000/svg">
<path fill-rule="evenodd" clip-rule="evenodd" d="M1.59961 2.99844C1.59961 2.66707 1.86824 2.39844 2.19961 2.39844H13.7996C14.131 2.39844 14.3996 2.66707 14.3996 2.99844C14.3996 3.32981 14.131 3.59844 13.7996 3.59844H2.19961C1.86824 3.59844 1.59961 3.32981 1.59961 2.99844ZM1.59961 6.33177C1.59961 6.0004 1.86824 5.73177 2.19961 5.73177H13.7996C14.131 5.73177 14.3996 6.0004 14.3996 6.33177C14.3996 6.66314 14.131 6.93177 13.7996 6.93177H2.19961C1.86824 6.93177 1.59961 6.66314 1.59961 6.33177ZM1.59961 9.66508C1.59961 9.33372 1.86824 9.06508 2.19961 9.06508H13.7996C14.131 9.06508 14.3996 9.33372 14.3996 9.66508C14.3996 9.99644 14.131 10.2651 13.7996 10.2651H2.19961C1.86824 10.2651 1.59961 9.99644 1.59961 9.66508ZM1.59961 12.9984C1.59961 12.6671 1.86824 12.3984 2.19961 12.3984H13.7996C14.131 12.3984 14.3996 12.6671 14.3996 12.9984C14.3996 13.3298 14.131 13.5984 13.7996 13.5984H2.19961C1.86824 13.5984 1.59961 13.3298 1.59961 12.9984Z" fill="#0F172A"/>
</svg>
