<svg width="16" height="16" viewBox="0 0 16 16" fill="none" xmlns="http://www.w3.org/2000/svg">
<path fill-rule="evenodd" clip-rule="evenodd" d="M1.59961 2.99844C1.59961 2.66707 1.86824 2.39844 2.19961 2.39844H11.3996C11.731 2.39844 11.9996 2.66707 11.9996 2.99844C11.9996 3.32981 11.731 3.59844 11.3996 3.59844H2.19961C1.86824 3.59844 1.59961 3.32981 1.59961 2.99844ZM1.59961 5.99844C1.59961 5.66707 1.86824 5.39844 2.19961 5.39844H8.20617C8.53753 5.39844 8.80617 5.66707 8.80617 5.99844C8.80617 6.32981 8.53753 6.59844 8.20617 6.59844H2.19961C1.86824 6.59844 1.59961 6.32981 1.59961 5.99844ZM11.1996 5.59844C11.531 5.59844 11.7996 5.86707 11.7996 6.19844V11.4705L13.3599 9.7902C13.5854 9.54732 13.965 9.53332 14.2078 9.75876C14.4507 9.98428 14.4647 10.3639 14.2393 10.6067L11.6393 13.4067C11.5258 13.529 11.3664 13.5984 11.1996 13.5984C11.0327 13.5984 10.8734 13.529 10.7599 13.4067L8.15993 10.6067C7.93445 10.3639 7.94851 9.98428 8.19137 9.75876C8.43417 9.53332 8.81377 9.54732 9.03929 9.7902L10.5996 11.4705V6.19844C10.5996 5.86707 10.8682 5.59844 11.1996 5.59844ZM1.59961 8.99844C1.59961 8.66708 1.86824 8.39844 2.19961 8.39844H5.84925C6.18062 8.39844 6.44925 8.66708 6.44925 8.99844C6.44925 9.3298 6.18062 9.59844 5.84925 9.59844H2.19961C1.86824 9.59844 1.59961 9.3298 1.59961 8.99844Z" fill="#0F172A"/>
</svg>
