<svg width="16" height="16" viewBox="0 0 16 16" fill="none" xmlns="http://www.w3.org/2000/svg">
<path fill-rule="evenodd" clip-rule="evenodd" d="M1.59961 3.79922C1.59961 3.46785 1.86824 3.19922 2.19961 3.19922H13.7996C14.131 3.19922 14.3996 3.46785 14.3996 3.79922C14.3996 4.13059 14.131 4.39922 13.7996 4.39922H2.19961C1.86824 4.39922 1.59961 4.13059 1.59961 3.79922ZM1.59961 7.99922C1.59961 7.66785 1.86824 7.39922 2.19961 7.39922H13.7996C14.131 7.39922 14.3996 7.66785 14.3996 7.99922C14.3996 8.33058 14.131 8.59922 13.7996 8.59922H2.19961C1.86824 8.59922 1.59961 8.33058 1.59961 7.99922ZM1.59961 12.1992C1.59961 11.8679 1.86824 11.5992 2.19961 11.5992H13.7996C14.131 11.5992 14.3996 11.8679 14.3996 12.1992C14.3996 12.5306 14.131 12.7992 13.7996 12.7992H2.19961C1.86824 12.7992 1.59961 12.5306 1.59961 12.1992Z" fill="#0F172A"/>
</svg>
