<svg width="16" height="16" viewBox="0 0 16 16" fill="none" xmlns="http://www.w3.org/2000/svg">
<path d="M13.6141 6.00161C13.5208 5.99495 13.4008 5.98828 13.2674 5.98828C13.0074 5.98828 12.8008 6.19495 12.8008 6.45495V9.55494C12.8008 9.81494 13.0074 10.0217 13.2674 10.0217C13.4008 10.0217 13.5141 10.0149 13.6274 10.0083C14.6674 9.8883 14.6674 9.15494 14.6674 8.62166V7.38163C14.6674 6.8483 14.6674 6.11495 13.6141 6.00161Z" fill="white"/>
<path d="M8.62063 3.19531H4.90066C2.16732 3.19531 1.33398 4.02864 1.33398 6.762V9.24204C1.33398 11.9753 2.16732 12.8087 4.90066 12.8087H8.62063C11.354 12.8087 12.1874 11.9753 12.1874 9.24204V6.762C12.1874 4.02864 11.354 3.19531 8.62063 3.19531ZM4.73398 9.45532C4.68066 9.68204 4.47398 9.83532 4.24732 9.83532C4.20732 9.83532 4.16732 9.82868 4.12732 9.82204C3.86066 9.75532 3.69398 9.48204 3.76066 9.21532C3.96066 8.42204 3.96066 7.582 3.76066 6.78867C3.69398 6.52198 3.85398 6.24864 4.12732 6.18198C4.39398 6.11531 4.66732 6.28198 4.73398 6.54864C4.97398 7.502 4.97398 8.50204 4.73398 9.45532Z" fill="white"/>
</svg>
