<svg width="16" height="16" viewBox="0 0 16 16" fill="none" xmlns="http://www.w3.org/2000/svg">
<path d="M3.79922 6.39844C3.46785 6.39844 3.19922 6.66707 3.19922 6.99844V8.99844C3.19922 9.3298 3.46785 9.59844 3.79922 9.59844H11.3992C11.7306 9.59844 11.9992 9.3298 11.9992 8.99844V6.99844C11.9992 6.66707 11.7306 6.39844 11.3992 6.39844H3.79922Z" fill="#0F172A"/>
<path fill-rule="evenodd" clip-rule="evenodd" d="M0.800781 5.8C0.800781 4.80589 1.60667 4 2.60078 4H12.6008C13.5949 4 14.4008 4.80589 14.4008 5.8V6.66828C14.8669 6.83302 15.2008 7.27751 15.2008 7.8V8.2C15.2008 8.72248 14.8669 9.16696 14.4008 9.33168V10.2C14.4008 11.1941 13.5949 12 12.6008 12H2.60078C1.60667 12 0.800781 11.1941 0.800781 10.2V5.8ZM2.60078 5.2C2.26941 5.2 2.00078 5.46863 2.00078 5.8V10.2C2.00078 10.5314 2.26941 10.8 2.60078 10.8H12.6008C12.9321 10.8 13.2008 10.5314 13.2008 10.2V5.8C13.2008 5.46863 12.9321 5.2 12.6008 5.2H2.60078Z" fill="#0F172A"/>
</svg>
