<svg width="16" height="16" viewBox="0 0 16 16" fill="none" xmlns="http://www.w3.org/2000/svg">
<path d="M13.6141 6.00161C13.5208 5.99495 13.4008 5.98828 13.2674 5.98828C13.0074 5.98828 12.8008 6.19495 12.8008 6.45495V9.55494C12.8008 9.81494 13.0074 10.0217 13.2674 10.0217C13.4008 10.0217 13.5141 10.0149 13.6274 10.0083C14.6674 9.8883 14.6674 9.15494 14.6674 8.62166V7.38163C14.6674 6.8483 14.6674 6.11495 13.6141 6.00161Z" fill="white"/>
<path d="M12.1876 6.75903V9.23906C12.1876 11.2057 10.5876 12.8057 8.62094 12.8057H6.17426C5.64758 12.8057 5.32758 12.2257 5.60758 11.7857L10.4476 4.13236C10.6876 3.75236 11.2276 3.71903 11.5276 4.05903C12.0076 4.61236 12.1876 5.47236 12.1876 6.75903Z" fill="white"/>
<path d="M10.934 1.2456C10.7006 1.09894 10.394 1.1656 10.2474 1.39894L9.10735 3.2056C8.95399 3.19894 8.79399 3.19228 8.62063 3.19228H4.90066C2.16732 3.19228 1.33398 4.0256 1.33398 6.75896V9.23898C1.33398 11.2723 1.80066 12.2456 3.16066 12.6123L2.24732 14.0656C2.10066 14.299 2.16732 14.6056 2.40066 14.7523C2.48066 14.8056 2.57398 14.8323 2.66732 14.8323C2.83398 14.8323 2.99398 14.7523 3.08732 14.599L11.0874 1.93228C11.2406 1.69894 11.1674 1.39228 10.934 1.2456Z" fill="white"/>
</svg>
