<svg width="16" height="16" viewBox="0 0 16 16" fill="none" xmlns="http://www.w3.org/2000/svg">
<path d="M3.79922 6.39844C3.46785 6.39844 3.19922 6.66707 3.19922 6.99844V8.99844C3.19922 9.3298 3.46785 9.59844 3.79922 9.59844H7.59922C7.93059 9.59844 8.19922 9.3298 8.19922 8.99844V6.99844C8.19922 6.66707 7.93059 6.39844 7.59922 6.39844H3.79922Z" fill="#0F172A"/>
<path fill-rule="evenodd" clip-rule="evenodd" d="M2.60078 4C1.60667 4 0.800781 4.80589 0.800781 5.8V10.2C0.800781 11.1941 1.60667 12 2.60078 12H12.6008C13.5949 12 14.4008 11.1941 14.4008 10.2V9.33168C14.8669 9.16696 15.2008 8.72248 15.2008 8.2V7.8C15.2008 7.27751 14.8669 6.83302 14.4008 6.66828V5.8C14.4008 4.80589 13.5949 4 12.6008 4H2.60078ZM2.00078 5.8C2.00078 5.46863 2.26941 5.2 2.60078 5.2H12.6008C12.9321 5.2 13.2008 5.46863 13.2008 5.8V10.2C13.2008 10.5314 12.9321 10.8 12.6008 10.8H2.60078C2.26941 10.8 2.00078 10.5314 2.00078 10.2V5.8Z" fill="#0F172A"/>
</svg>
