<svg width="16" height="16" viewBox="0 0 16 16" fill="none" xmlns="http://www.w3.org/2000/svg">
<path d="M13.6141 6.00161C13.5208 5.99495 13.4008 5.98828 13.2674 5.98828C13.0074 5.98828 12.8008 6.19495 12.8008 6.45495V9.55494C12.8008 9.81494 13.0074 10.0217 13.2674 10.0217C13.4008 10.0217 13.5141 10.0149 13.6274 10.0083C14.6674 9.8883 14.6674 9.15494 14.6674 8.62166V7.38163C14.6674 6.8483 14.6674 6.11495 13.6141 6.00161Z" fill="white"/>
<path d="M8.62063 3.19531H4.90066C2.16732 3.19531 1.33398 4.02864 1.33398 6.762V9.24204C1.33398 11.9753 2.16732 12.8087 4.90066 12.8087H8.62063C11.354 12.8087 12.1874 11.9753 12.1874 9.24204V6.762C12.1874 4.02864 11.354 3.19531 8.62063 3.19531ZM8.35399 9.12204C8.34063 9.14868 8.32063 9.17532 8.30063 9.19532L7.05398 10.6553C6.95398 10.7687 6.81398 10.8287 6.67398 10.8287C6.56066 10.8287 6.44066 10.7887 6.34732 10.7087C6.14066 10.5287 6.11398 10.2153 6.29398 10.002L7.49398 8.59532C7.50066 8.57532 7.49398 8.55532 7.48066 8.53532C7.46732 8.50868 7.44066 8.49532 7.40732 8.49532H6.08066C5.68732 8.49532 5.34066 8.29532 5.14066 7.95534C4.94732 7.61534 4.94732 7.21534 5.14066 6.87534L6.28066 5.36864C6.44732 5.14864 6.76066 5.10198 6.98066 5.26864C7.20066 5.43531 7.24732 5.74864 7.08066 5.96864L5.98066 7.42867C6.00066 7.402 6.00066 7.42867 6.01398 7.462C6.02732 7.48867 6.05398 7.502 6.08732 7.502H7.42732C7.82066 7.502 8.16735 7.702 8.36735 8.04204C8.54735 8.38204 8.54735 8.78204 8.35399 9.12204Z" fill="white"/>
</svg>
