<svg width="16" height="16" viewBox="0 0 16 16" fill="none" xmlns="http://www.w3.org/2000/svg">
<path d="M6.00066 12.5H2.00066C1.36066 12.5 0.833984 11.9734 0.833984 11.3334V4.66666C0.833984 4.02666 1.36066 3.5 2.00066 3.5H5.33398C6.71398 3.5 7.83398 4.62 7.83398 6C7.83398 6.68666 7.55398 7.30666 7.10732 7.76C7.93398 8.16664 8.50063 9.02 8.50063 10C8.50063 11.38 7.38066 12.5 6.00066 12.5ZM1.83398 8.5V11.3334C1.83398 11.4266 1.90732 11.5 2.00066 11.5H6.00066C6.82732 11.5 7.50066 10.8266 7.50066 10C7.50066 9.17336 6.82732 8.5 6.00066 8.5H1.83398ZM1.83398 7.5H5.33398C6.16066 7.5 6.83398 6.82666 6.83398 6C6.83398 5.17334 6.16066 4.5 5.33398 4.5H2.00066C1.90732 4.5 1.83398 4.57334 1.83398 4.66666V7.5Z" fill="white"/>
<path d="M13.114 12.4974H12.0006C10.254 12.4974 8.83398 11.0774 8.83398 9.33076C8.83398 7.58406 10.254 6.16406 12.0006 6.16406C13.7473 6.16406 15.1673 7.58406 15.1673 9.33076C15.1673 9.60404 14.9406 9.83076 14.6673 9.83076H9.89398C10.1206 10.784 10.9806 11.4974 12.0006 11.4974H13.114C13.3873 11.4974 13.614 11.724 13.614 11.9974C13.614 12.2708 13.3873 12.4974 13.114 12.4974ZM9.89398 8.83076H14.114C13.8873 7.8774 13.0273 7.16406 12.0073 7.16406C10.9873 7.16406 10.1206 7.8774 9.89398 8.83076Z" fill="white"/>
<path d="M13 5.5H11C10.7266 5.5 10.5 5.27334 10.5 5C10.5 4.72666 10.7266 4.5 11 4.5H13C13.2734 4.5 13.5 4.72666 13.5 5C13.5 5.27334 13.2734 5.5 13 5.5Z" fill="white"/>
</svg>
