<svg width="16" height="16" viewBox="0 0 16 16" fill="none" xmlns="http://www.w3.org/2000/svg">
<path fill-rule="evenodd" clip-rule="evenodd" d="M6.79909 2.82392V6.53882C6.79909 7.1223 6.5673 7.68187 6.15472 8.09444L5.18159 9.06756C6.14793 9.03444 7.11522 9.2018 8.0211 9.56412L8.42278 9.72484C9.48398 10.1493 10.6469 10.2508 11.7655 10.0165L9.84342 8.09444C9.43086 7.68187 9.1991 7.1223 9.1991 6.53882V2.82392C8.80094 2.80906 8.40094 2.80156 7.99909 2.80156C7.59726 2.80156 7.19722 2.80906 6.79909 2.82392ZM10.3991 2.89131C10.4499 2.89512 10.5006 2.89905 10.5513 2.90311C10.8817 2.9295 11.1708 2.68311 11.1972 2.3528C11.2236 2.02248 10.9772 1.73331 10.6469 1.70691C10.3762 1.68529 10.1046 1.66695 9.83214 1.65193C9.22526 1.6185 8.61414 1.60156 7.99909 1.60156C7.38404 1.60156 6.77289 1.6185 6.16608 1.65193C5.89359 1.66695 5.62199 1.68529 5.3513 1.70691C5.02098 1.73331 4.7746 2.02248 4.80099 2.3528C4.82738 2.68311 5.11656 2.9295 5.44688 2.90311C5.49758 2.89905 5.54832 2.89512 5.59909 2.89131V6.53882C5.59909 6.80403 5.49373 7.05839 5.30619 7.24593L2.07937 10.4728C0.882175 11.67 1.42577 13.7928 3.20178 14.0532C4.76798 14.2828 6.36984 14.4016 7.99909 14.4016C9.62838 14.4016 11.2302 14.2828 12.7964 14.0532C14.5724 13.7928 15.116 11.67 13.9188 10.4728L10.692 7.24593C10.5045 7.05839 10.3991 6.80403 10.3991 6.53882V2.89131Z" fill="#0F172A"/>
</svg>
