<svg width="16" height="16" viewBox="0 0 16 16" fill="none" xmlns="http://www.w3.org/2000/svg">
<path fill-rule="evenodd" clip-rule="evenodd" d="M3.20076 6.40156C3.20076 3.75059 5.34979 1.60156 8.00076 1.60156C10.6517 1.60156 12.8008 3.75059 12.8008 6.40156C12.8008 7.91087 13.1637 9.33364 13.8066 10.589C13.892 10.7556 13.8946 10.9526 13.8138 11.1216C13.7329 11.2904 13.5779 11.4119 13.3945 11.45C12.5405 11.6273 11.6713 11.7634 10.7893 11.856C10.6609 13.2832 9.46142 14.4016 8.00078 14.4016C6.54015 14.4016 5.34073 13.2832 5.21219 11.856C4.33023 11.7634 3.46108 11.6273 2.60693 11.45C2.42359 11.4119 2.26853 11.2904 2.1877 11.1216C2.10686 10.9526 2.10951 10.7556 2.19486 10.589C2.83777 9.33364 3.20076 7.91087 3.20076 6.40156ZM8.00076 12.0016C7.47692 12.0016 6.9566 11.9863 6.44022 11.9562C6.60156 12.6692 7.239 13.2016 8.00078 13.2016C8.76254 13.2016 9.39998 12.6692 9.56134 11.9562C9.04494 11.9863 8.52462 12.0016 8.00076 12.0016ZM7.00078 4.80156C6.66941 4.80156 6.40078 5.07019 6.40078 5.40156C6.40078 5.73293 6.66941 6.00156 7.00078 6.00156H7.83487L6.51254 7.85282C6.38191 8.03572 6.36444 8.27628 6.46728 8.47612C6.57013 8.67596 6.77603 8.80156 7.00078 8.80156H9.00078C9.33214 8.80156 9.60078 8.53292 9.60078 8.20156C9.60078 7.87019 9.33214 7.60156 9.00078 7.60156H8.1667L9.48902 5.75031C9.61966 5.56742 9.6371 5.32686 9.5343 5.12701C9.43142 4.92717 9.2255 4.80156 9.00078 4.80156H7.00078Z" fill="#0F172A"/>
</svg>
