<svg width="16" height="16" viewBox="0 0 16 16" fill="none" xmlns="http://www.w3.org/2000/svg">
<path fill-rule="evenodd" clip-rule="evenodd" d="M8.00076 1.60156C5.34979 1.60156 3.20076 3.75059 3.20076 6.40156C3.20076 7.91087 2.83777 9.33364 2.19486 10.589C2.10951 10.7556 2.10686 10.9526 2.1877 11.1216C2.26853 11.2904 2.42359 11.4119 2.60693 11.45C3.46108 11.6273 4.33023 11.7634 5.21219 11.856C5.34073 13.2832 6.54015 14.4016 8.00078 14.4016C9.46142 14.4016 10.6609 13.2832 10.7893 11.856C11.6713 11.7634 12.5405 11.6273 13.3945 11.45C13.5779 11.4119 13.7329 11.2904 13.8138 11.1216C13.8946 10.9526 13.892 10.7556 13.8066 10.589C13.1637 9.33364 12.8008 7.91087 12.8008 6.40156C12.8008 3.75059 10.6517 1.60156 8.00076 1.60156ZM6.44022 11.9562C6.9566 11.9863 7.47692 12.0016 8.00076 12.0016C8.52462 12.0016 9.04494 11.9863 9.56134 11.9562C9.39998 12.6692 8.76254 13.2016 8.00078 13.2016C7.239 13.2016 6.60156 12.6692 6.44022 11.9562Z" fill="#0F172A"/>
</svg>
