<svg width="16" height="16" viewBox="0 0 16 16" fill="none" xmlns="http://www.w3.org/2000/svg">
<path d="M3.20076 6.40052C3.20076 6.19203 3.21405 5.98664 3.23983 5.78516L9.41782 11.9632C8.94854 11.988 8.47614 12.0005 8.00076 12.0005C7.47692 12.0005 6.9566 11.9852 6.44022 11.9552C6.60156 12.6681 7.239 13.2005 8.00078 13.2005C8.71934 13.2005 9.32726 12.7268 9.52934 12.0747L10.4368 12.9821C9.95534 13.8292 9.04478 14.4005 8.00078 14.4005C6.54015 14.4005 5.34073 13.2821 5.21219 11.8549C4.33023 11.7624 3.46108 11.6263 2.60693 11.4489C2.42359 11.4108 2.26853 11.2894 2.1877 11.1205C2.10686 10.9516 2.10951 10.7546 2.19486 10.588C2.83777 9.3326 3.20076 7.90983 3.20076 6.40052Z" fill="#0F172A"/>
<path d="M13.8128 11.1216C13.7971 11.1542 13.7787 11.1852 13.7578 11.214L5.11133 2.56754C5.915 1.96113 6.91538 1.60156 7.99974 1.60156C10.6507 1.60156 12.7998 3.75059 12.7998 6.40156C12.7998 7.91087 13.1627 9.33364 13.8056 10.589C13.891 10.7556 13.8936 10.9526 13.8128 11.1216Z" fill="#0F172A"/>
<path d="M2.62387 1.7773C2.38956 1.54298 2.00966 1.54298 1.77534 1.7773C1.54103 2.01161 1.54103 2.39151 1.77534 2.62582L13.3754 14.2258C13.6097 14.4601 13.9895 14.4601 14.2238 14.2258C14.4582 13.9915 14.4582 13.6116 14.2238 13.3773L2.62387 1.7773Z" fill="#0F172A"/>
</svg>
