<svg width="16" height="16" viewBox="0 0 16 16" fill="none" xmlns="http://www.w3.org/2000/svg">
<path d="M12.7594 5.14406C12.9526 5.64406 13.4326 5.9974 13.9994 5.9974C14.7327 5.9974 15.3326 5.3974 15.3326 4.66406C15.3326 3.93073 14.7327 3.33073 13.9994 3.33073C13.4326 3.33073 12.9526 3.68406 12.7594 4.18406C12.726 4.1774 12.6994 4.16406 12.666 4.16406H9.99937V3.66406C9.99937 3.1174 9.54601 2.66406 8.99937 2.66406H6.99935C6.45268 2.66406 5.99935 3.1174 5.99935 3.66406V4.16406H3.33268C3.29935 4.16406 3.27268 4.1774 3.23935 4.18406C3.04602 3.68406 2.56602 3.33073 1.99935 3.33073C1.26602 3.33073 0.666016 3.93073 0.666016 4.66406C0.666016 5.3974 1.26602 5.9974 1.99935 5.9974C2.56602 5.9974 3.04602 5.64406 3.23935 5.14406C3.27268 5.15073 3.29935 5.16406 3.33268 5.16406H5.04602C3.67935 6.1774 2.83268 7.8574 2.83268 9.66404C2.83268 9.7774 2.83935 9.88404 2.85268 9.9974H2.66602C2.11268 9.9974 1.66602 10.444 1.66602 10.9974V12.3308C1.66602 12.884 2.11268 13.3308 2.66602 13.3308H3.99935C4.14602 13.3308 4.27935 13.2974 4.40602 13.2374C4.75268 13.0908 4.99935 12.7374 4.99935 12.3308V10.9974C4.99935 10.444 4.55268 9.9974 3.99935 9.9974H3.84602C3.84602 9.9774 3.85268 9.9574 3.85268 9.9374C3.83935 9.84404 3.83935 9.7574 3.83935 9.66404C3.83935 8.0174 4.68602 6.51073 6.01268 5.73073C6.03935 6.24406 6.47268 6.66406 6.99935 6.66406H8.99937C9.52601 6.66406 9.95937 6.24406 9.99265 5.73073C11.3194 6.51073 12.166 8.02404 12.166 9.66404C12.166 9.7574 12.1594 9.84404 12.1526 9.9374C12.1526 9.9574 12.1594 9.9774 12.1594 9.9974H11.9994C11.446 9.9974 10.9994 10.444 10.9994 10.9974V12.3308C10.9994 12.7374 11.246 13.0908 11.5926 13.2374C11.7194 13.2974 11.8526 13.3308 11.9994 13.3308H13.3326C13.886 13.3308 14.3326 12.884 14.3326 12.3308V10.9974C14.3326 10.444 13.886 9.9974 13.3326 9.9974H13.146C13.1594 9.88404 13.166 9.7774 13.166 9.66404C13.166 7.8574 12.3194 6.1774 10.9526 5.16406H12.666C12.6994 5.16406 12.726 5.15073 12.7594 5.14406Z" fill="white"/>
</svg>
