<svg width="16" height="16" viewBox="0 0 16 16" fill="none" xmlns="http://www.w3.org/2000/svg">
<path d="M14.6674 2.16406H1.33398C1.06066 2.16406 0.833984 1.9374 0.833984 1.66406C0.833984 1.39073 1.06066 1.16406 1.33398 1.16406H14.6674C14.9406 1.16406 15.1674 1.39073 15.1674 1.66406C15.1674 1.9374 14.9406 2.16406 14.6674 2.16406Z" fill="white"/>
<path d="M2.44727 1.66406V9.64404C2.44727 10.2974 2.75394 10.9174 3.2806 11.3108L6.75392 13.9108C7.49392 14.464 8.51391 14.464 9.25391 13.9108L12.7273 11.3108C13.2539 10.9174 13.5606 10.2974 13.5606 9.64404V1.66406H2.44727ZM10.6673 9.16404H5.33394C5.0606 9.16404 4.83394 8.9374 4.83394 8.66404C4.83394 8.39076 5.0606 8.16404 5.33394 8.16404H10.6673C10.9406 8.16404 11.1673 8.39076 11.1673 8.66404C11.1673 8.9374 10.9406 9.16404 10.6673 9.16404ZM10.6673 5.83073H5.33394C5.0606 5.83073 4.83394 5.60406 4.83394 5.33073C4.83394 5.0574 5.0606 4.83073 5.33394 4.83073H10.6673C10.9406 4.83073 11.1673 5.0574 11.1673 5.33073C11.1673 5.60406 10.9406 5.83073 10.6673 5.83073Z" fill="white"/>
</svg>
