<svg width="16" height="16" viewBox="0 0 16 16" fill="none" xmlns="http://www.w3.org/2000/svg">
<path d="M7.76732 1.56765L4.24062 5.09433C4.10729 5.22765 4.10729 5.43433 4.24062 5.56765L5.10062 6.42765C5.23395 6.56099 5.44062 6.56099 5.57396 6.42765L7.76732 4.23433C7.90065 4.10099 8.10734 4.10099 8.24062 4.23433L10.434 6.42765C10.5673 6.56099 10.774 6.56099 10.9073 6.42765L11.7673 5.56765C11.9006 5.43433 11.9006 5.22765 11.7673 5.09433L8.24062 1.56765C8.10734 1.44099 7.89398 1.44099 7.76732 1.56765Z" fill="white"/>
<path d="M7.76732 14.4365L4.24062 10.9099C4.10729 10.7766 4.10729 10.5699 4.24062 10.4365L5.10062 9.57658C5.23395 9.44322 5.44062 9.44322 5.57396 9.57658L7.76732 11.7699C7.90065 11.9032 8.10734 11.9032 8.24062 11.7699L10.434 9.57658C10.5673 9.44322 10.774 9.44322 10.9073 9.57658L11.7673 10.4365C11.9006 10.5699 11.9006 10.7766 11.7673 10.9099L8.24062 14.4365C8.10734 14.5632 7.89398 14.5632 7.76732 14.4365Z" fill="white"/>
<path d="M13.4008 6.7317L14.4274 7.75837C14.5608 7.8917 14.5608 8.09834 14.4274 8.2317L13.4008 9.25834C13.2674 9.3917 13.0608 9.3917 12.9274 9.25834L11.9008 8.2317C11.7674 8.09834 11.7674 7.8917 11.9008 7.75837L12.9274 6.7317C13.0608 6.60506 13.2742 6.60506 13.4008 6.7317Z" fill="white"/>
<path d="M3.06679 6.7317L4.09346 7.75837C4.22679 7.8917 4.22679 8.09834 4.09346 8.2317L3.06679 9.25834C2.93346 9.3917 2.72679 9.3917 2.59346 9.25834L1.56679 8.2317C1.43346 8.09834 1.43346 7.8917 1.56679 7.75837L2.59346 6.7317C2.72679 6.60506 2.94013 6.60506 3.06679 6.7317Z" fill="white"/>
<path d="M8.23376 6.58828L9.41376 7.7683C9.54712 7.90164 9.54712 8.1083 9.41376 8.24166L8.23376 9.42166C8.10048 9.55494 7.89379 9.55494 7.76046 9.42166L6.58047 8.24166C6.44713 8.1083 6.44713 7.90164 6.58047 7.7683L7.76046 6.58828C7.89379 6.45495 8.10712 6.45495 8.23376 6.58828Z" fill="white"/>
</svg>
