<svg width="16" height="16" viewBox="0 0 16 16" fill="none" xmlns="http://www.w3.org/2000/svg">
<path d="M7.59974 1.56765L4.16641 5.00099C4.03307 5.13433 4.03307 5.34099 4.16641 5.47433L5.31974 6.62765C5.45308 6.76097 5.65974 6.76097 5.79307 6.62765L9.2264 3.19433C9.35976 3.06099 9.35976 2.85433 9.2264 2.72099L8.07304 1.56765C7.93974 1.44099 7.73307 1.44099 7.59974 1.56765Z" fill="white"/>
<path d="M10.1998 4.17031L4.16641 10.2036C4.03307 10.337 4.03307 10.5436 4.16641 10.677L5.31974 11.8304C5.45308 11.9636 5.65974 11.9636 5.79307 11.8304L11.8264 5.79697C11.9598 5.66364 11.9598 5.45697 11.8264 5.32364L10.673 4.17031C10.5464 4.03698 10.333 4.03698 10.1998 4.17031Z" fill="white"/>
<path d="M12.8072 6.77189L6.77385 12.8052C6.64049 12.9386 6.64049 13.1452 6.77385 13.2786L7.92718 14.4319C8.06047 14.5652 8.26719 14.5652 8.40047 14.4319L14.4338 8.39856C14.5672 8.2652 14.5672 8.05856 14.4338 7.92523L13.2805 6.77189C13.1472 6.63854 12.9338 6.63854 12.8072 6.77189Z" fill="white"/>
<path d="M2.72599 9.22766L1.57266 8.0743C1.43932 7.94097 1.43932 7.7343 1.57266 7.60097L2.72599 6.44765C2.85933 6.31432 3.06599 6.31432 3.19932 6.44765L4.35267 7.60097C4.48599 7.7343 4.48599 7.94097 4.35267 8.0743L3.19932 9.22766C3.06599 9.36094 2.85267 9.36094 2.72599 9.22766Z" fill="white"/>
</svg>
