<svg width="16" height="16" viewBox="0 0 16 16" fill="none" xmlns="http://www.w3.org/2000/svg">
<path d="M15.6874 8.0348C15.4941 7.84144 15.1741 7.84144 14.9808 8.0348L14.6741 8.34144V8.00144C14.6741 4.32145 11.6808 1.32812 8.00078 1.32812C5.96749 1.32812 4.06749 2.24145 2.79415 3.82812C2.62082 4.04145 2.65414 4.36145 2.87415 4.53479C3.08749 4.70145 3.40082 4.66812 3.57415 4.45479C4.66082 3.10145 6.27415 2.32813 8.00078 2.32813C11.1274 2.32813 13.6741 4.87479 13.6741 8.00144V8.3348L13.3674 8.02808C13.1741 7.83476 12.8541 7.83476 12.6608 8.02808C12.4674 8.22144 12.4674 8.54144 12.6608 8.7348L13.8208 9.8948C13.8674 9.94144 13.9208 9.9748 13.9808 10.0014C14.0408 10.0281 14.1074 10.0414 14.1741 10.0414C14.2408 10.0414 14.3008 10.0281 14.3674 10.0014C14.4274 9.9748 14.4808 9.94144 14.5274 9.8948L15.6874 8.7348C15.8808 8.54808 15.8808 8.22808 15.6874 8.0348Z" fill="white"/>
<path d="M13.1263 11.4665C12.913 11.2931 12.593 11.3265 12.4263 11.5465C11.3396 12.8998 9.72626 13.6731 7.99962 13.6731C4.87297 13.6731 2.3263 11.1265 2.3263 7.9998V7.66646L2.63297 7.97313C2.73297 8.07312 2.85963 8.11976 2.9863 8.11976C3.11297 8.11976 3.23963 8.06648 3.33297 7.96646C3.5263 7.77313 3.5263 7.45313 3.33297 7.2598L2.17963 6.09979C2.13297 6.05979 2.07297 6.01979 2.01297 5.99313C1.89297 5.93979 1.75297 5.93979 1.63297 5.99313C1.57297 6.01979 1.51963 6.05979 1.47297 6.09979L0.312969 7.2598C0.119635 7.45313 0.119635 7.77313 0.312969 7.96646C0.506302 8.15976 0.826299 8.15976 1.01963 7.96646L1.3263 7.6598V7.9998C1.3263 11.6798 4.31963 14.6731 7.99962 14.6731C10.033 14.6731 11.933 13.7598 13.2063 12.1731C13.3796 11.9598 13.3463 11.6398 13.1263 11.4665Z" fill="white"/>
<path d="M10.3 7.76C10.48 7.49334 10.58 7.18 10.58 6.83334C10.58 5.94666 9.8 5.16666 8.91336 5.16666H8.36664V4.5C8.36664 4.22666 8.14 4 7.86666 4C7.59334 4 7.36666 4.22666 7.36666 4.5V5.16666H6C5.72666 5.16666 5.5 5.39334 5.5 5.66666V8V10.3334C5.5 10.6066 5.72666 10.8334 6 10.8334H7.36666V11.5C7.36666 11.7734 7.59334 12 7.86666 12C8.14 12 8.36664 11.7734 8.36664 11.5V10.8334H9.33336C10.3466 10.8334 11.1666 10.0866 11.1666 9.16664C11.1666 8.57336 10.82 8.05336 10.3 7.76ZM6.5 6.16666H8.91336C9.28 6.16666 9.58 6.53334 9.58 6.83334C9.58 7.2 9.28 7.5 8.91336 7.5H6.5V6.16666ZM9.33336 9.83336H6.5V8.5H8.91336H9.33336C9.79336 8.5 10.1666 8.8 10.1666 9.16664C10.1666 9.53336 9.79336 9.83336 9.33336 9.83336Z" fill="white"/>
</svg>
