<svg width="16" height="16" viewBox="0 0 16 16" fill="none" xmlns="http://www.w3.org/2000/svg">
<path d="M11.586 7.16927C11.586 7.0226 11.426 6.83594 11.2527 6.83594H9.95938H9.66602V7.5026H11.2527C11.4327 7.5026 11.586 7.35594 11.586 7.16927Z" fill="white"/>
<path d="M11.546 8.5H11.246H9.66602V9.16664H9.95938H11.546C11.7927 9.16664 11.9994 9.01336 11.9994 8.83336C11.9994 8.65336 11.7927 8.5 11.546 8.5Z" fill="white"/>
<path d="M11.9006 2.26562H4.10066C2.57398 2.26562 1.33398 3.49896 1.33398 5.02562V10.9723C1.33398 12.499 2.57398 13.7323 4.10066 13.7323H11.9006C13.4274 13.7323 14.6674 12.499 14.6674 10.9723V5.02562C14.6674 3.49896 13.4274 2.26562 11.9006 2.26562ZM6.16732 8.49896H3.50066C3.22732 8.49896 3.00066 8.27232 3.00066 7.99897C3.00066 7.72563 3.22732 7.49897 3.50066 7.49897H6.16732C6.44066 7.49897 6.66732 7.72563 6.66732 7.99897C6.66732 8.27232 6.44066 8.49896 6.16732 8.49896ZM11.5474 10.1656H10.8406V10.499C10.8406 10.7723 10.614 10.999 10.3406 10.999C10.0674 10.999 9.84063 10.7723 9.84063 10.499V10.1656H9.16735H8.50063C8.22735 10.1656 8.00063 9.93896 8.00063 9.6656C8.00063 9.39232 8.22735 9.1656 8.50063 9.1656H8.66735V7.99897V6.8323H8.50063C8.22735 6.8323 8.00063 6.60562 8.00063 6.33229C8.00063 6.05896 8.22735 5.83229 8.50063 5.83229H9.16735H9.84063V5.49896C9.84063 5.22562 10.0674 4.99896 10.3406 4.99896C10.614 4.99896 10.8406 5.22562 10.8406 5.49896V5.83229H11.2474C11.9606 5.83229 12.5806 6.45229 12.5806 7.16563C12.5806 7.38563 12.5206 7.5923 12.4274 7.77897C12.774 8.0256 13.0006 8.4056 13.0006 8.83232C13.0006 9.5656 12.3474 10.1656 11.5474 10.1656Z" fill="white"/>
</svg>
