<svg width="16" height="16" viewBox="0 0 16 16" fill="none" xmlns="http://www.w3.org/2000/svg">
<g clip-path="url(#clip0_13_12617)">
<mask id="mask0_13_12617" style="mask-type:luminance" maskUnits="userSpaceOnUse" x="0" y="0" width="16" height="16">
<path d="M16 0H0V16H16V0Z" fill="white"/>
</mask>
<g mask="url(#mask0_13_12617)">
<path d="M15.333 10.1484C15.0596 10.1484 14.833 10.3751 14.833 10.6484C14.833 12.6218 13.4596 14.2751 11.613 14.7084L11.793 14.4084C11.933 14.1684 11.8596 13.8618 11.6196 13.7218C11.3863 13.5818 11.073 13.6551 10.933 13.8951L10.233 15.0618C10.1396 15.2151 10.1396 15.4084 10.2263 15.5618C10.313 15.7218 10.4796 15.8151 10.6596 15.8151C13.5063 15.8151 15.8263 13.4951 15.8263 10.6484C15.833 10.3751 15.6063 10.1484 15.333 10.1484Z" fill="white"/>
<path d="M5.33268 0.148438C2.48602 0.148438 0.166016 2.46843 0.166016 5.3151C0.166016 5.58843 0.392682 5.81511 0.666016 5.81511C0.939345 5.81511 1.16602 5.58843 1.16602 5.3151C1.16602 3.34177 2.53935 1.68843 4.38602 1.2551L4.20602 1.5551C4.06602 1.7951 4.13935 2.10177 4.37935 2.24177C4.61268 2.38177 4.92602 2.30843 5.06602 2.06843L5.76602 0.90177C5.85268 0.748435 5.85935 0.56177 5.76602 0.40177C5.67935 0.248437 5.51268 0.148438 5.33268 0.148438Z" fill="white"/>
<path d="M14.3334 5.7813C14.3334 7.83463 12.8402 9.52794 10.8868 9.8413C10.8868 9.83466 10.8868 9.83466 10.8868 9.82794C10.6934 7.3413 8.68016 5.31463 6.16016 5.11463C6.47348 3.1613 8.1668 1.66797 10.2202 1.66797C12.4934 1.66797 14.3334 3.50797 14.3334 5.7813Z" fill="white"/>
<path d="M6.53877 9.4682C6.53877 9.3682 6.42545 9.21484 6.28545 9.21484H4.91211V9.71484H6.28545C6.42545 9.72156 6.53877 9.6082 6.53877 9.4682Z" fill="white"/>
<path d="M6.55211 10.7188H6.28545H4.91211V11.2188H6.55878C6.7721 11.2188 6.91877 11.0855 6.91877 10.9655C6.91877 10.8455 6.76543 10.7188 6.55211 10.7188Z" fill="white"/>
<path d="M9.88601 9.90156C9.73265 7.88157 8.11937 6.26823 6.09934 6.1149C5.99268 6.10823 5.89268 6.10156 5.77934 6.10156C3.50602 6.10156 1.66602 7.94157 1.66602 10.2216C1.66602 12.4949 3.50602 14.3349 5.77934 14.3349C8.05265 14.3349 9.89937 12.4949 9.89937 10.2216C9.89937 10.1082 9.89265 10.0082 9.88601 9.90156ZM6.55268 12.2216H6.11268V12.4749C6.11268 12.7482 5.88602 12.9749 5.61268 12.9749C5.33934 12.9749 5.11268 12.7482 5.11268 12.4749V12.2216H4.41268C4.13934 12.2216 3.91268 11.9949 3.91268 11.7216V10.2216V8.72156C3.91268 8.4482 4.13934 8.22156 4.41268 8.22156H5.11268V7.96823C5.11268 7.69491 5.33934 7.46823 5.61268 7.46823C5.88602 7.46823 6.11268 7.69491 6.11268 7.96823V8.22156H6.28602C6.95268 8.22156 7.53934 8.8082 7.53934 9.47492C7.53934 9.6682 7.49268 9.8482 7.41268 10.0149C7.71934 10.2416 7.91268 10.5882 7.91268 10.9749C7.91268 11.6616 7.30602 12.2216 6.55268 12.2216Z" fill="white"/>
</g>
</g>
<defs>
<clipPath id="clip0_13_12617">
<rect width="16" height="16" fill="white"/>
</clipPath>
</defs>
</svg>
