<svg width="16" height="16" viewBox="0 0 16 16" fill="none" xmlns="http://www.w3.org/2000/svg">
<path d="M9.98015 8.5H9.46687H6.35352V10.3866H7.22685H9.98015C10.6135 10.3866 11.1335 9.96 11.1335 9.44C11.1335 8.92 10.6135 8.5 9.98015 8.5Z" fill="white"/>
<path d="M8.00063 1.33594C4.32066 1.33594 1.33398 4.3226 1.33398 8.0026C1.33398 11.6826 4.32066 14.6692 8.00063 14.6692C11.6806 14.6692 14.6674 11.6826 14.6674 8.0026C14.6674 4.3226 11.6806 1.33594 8.00063 1.33594ZM9.98063 11.3892H8.88063V12.336C8.88063 12.6092 8.65399 12.836 8.38063 12.836C8.10735 12.836 7.88066 12.6092 7.88066 12.336V11.3892H7.22732H7.07398V12.336C7.07398 12.6092 6.84732 12.836 6.57398 12.836C6.30066 12.836 6.07398 12.6092 6.07398 12.336V11.3892H5.85398H4.70066C4.42732 11.3892 4.20066 11.1626 4.20066 10.8892C4.20066 10.616 4.42732 10.3892 4.70066 10.3892H5.35398V8.0026V5.61594H4.70066C4.42732 5.61594 4.20066 5.38927 4.20066 5.11594C4.20066 4.8426 4.42732 4.61594 4.70066 4.61594H5.85398H6.07398V3.66927C6.07398 3.39594 6.30066 3.16927 6.57398 3.16927C6.84732 3.16927 7.07398 3.39594 7.07398 3.66927V4.61594H7.22732H7.88066V3.66927C7.88066 3.39594 8.10735 3.16927 8.38063 3.16927C8.65399 3.16927 8.88063 3.39594 8.88063 3.66927V4.61594H9.46735C10.5006 4.61594 11.414 5.5226 11.414 6.5626C11.414 7.00927 11.254 7.41594 11.0006 7.74927C11.674 8.07596 12.134 8.71596 12.134 9.45596C12.134 10.516 11.1674 11.3892 9.98063 11.3892Z" fill="white"/>
<path d="M10.4135 6.55214C10.4135 6.11214 10.0001 5.60547 9.46687 5.60547H7.22685H6.35352V7.49216H9.46687C9.98687 7.49883 10.4135 7.07216 10.4135 6.55214Z" fill="white"/>
</svg>
