<svg width="16" height="16" viewBox="0 0 16 16" fill="none" xmlns="http://www.w3.org/2000/svg">
<path d="M14.6462 8C14.6462 10.2066 12.8529 12 10.6462 12C10.1498 12 9.67241 11.9095 9.23361 11.7427C9.02113 11.6619 8.98153 11.3901 9.12945 11.2174C9.89073 10.3292 10.3129 9.19064 10.3129 8C10.3129 6.80546 9.88697 5.66288 9.13145 4.78311C8.98305 4.61029 9.02233 4.33747 9.23529 4.25662C9.67369 4.09025 10.1505 4 10.6462 4C12.8529 4 14.6462 5.79334 14.6462 8Z" fill="white"/>
<path d="M9.3125 8C9.3125 9.18 8.79914 10.2466 7.97915 10.9734C7.27248 11.6134 6.33916 12 5.3125 12C3.10584 12 1.3125 10.2066 1.3125 8C1.3125 5.79334 3.10584 4 5.3125 4C6.33916 4 7.27248 4.38666 7.97915 5.02666C8.79914 5.75334 9.3125 6.82 9.3125 8Z" fill="white"/>
</svg>
