<svg width="16" height="16" viewBox="0 0 16 16" fill="none" xmlns="http://www.w3.org/2000/svg">
<path d="M10.5991 5.3826C10.2991 3.09594 8.34578 1.33594 5.97917 1.33594C3.39917 1.33594 1.3125 3.4226 1.3125 6.0026C1.3125 8.36924 3.0725 10.3226 5.35916 10.6226C5.55916 10.656 5.76584 10.6692 5.97917 10.6692C6.05675 10.6692 6.13332 10.6672 6.20928 10.6632C6.3562 10.6555 6.41653 10.48 6.3125 10.376C6.11917 10.176 6.11917 9.8626 6.3125 9.66924C6.50584 9.46924 6.82581 9.46924 7.01915 9.66924L7.53881 10.1889C7.63221 10.2824 7.77248 10.3128 7.89315 10.2591C8.1481 10.1456 8.38938 10.0095 8.61674 9.85212C8.77954 9.73948 8.78986 9.50804 8.64914 9.36884L8.3125 9.03596C8.11914 8.8426 8.1125 8.52924 8.3125 8.32924C8.50578 8.13596 8.81914 8.12924 9.01914 8.3226L9.35818 8.65788C9.4981 8.7962 9.72778 8.78444 9.83978 8.62276C9.99362 8.40052 10.1275 8.16468 10.2375 7.91527C10.2904 7.79527 10.2595 7.65634 10.1668 7.5636L9.64578 7.0426C9.4525 6.8426 9.4525 6.52927 9.64578 6.33594C9.83914 6.13594 10.1591 6.13594 10.3525 6.33594C10.4566 6.43996 10.6321 6.37964 10.6398 6.23273C10.6438 6.15676 10.6458 6.08019 10.6458 6.0026C10.6458 5.78927 10.6325 5.5826 10.5991 5.3826Z" fill="white"/>
<path d="M14.6472 9.99966C14.6472 12.5797 12.5605 14.6663 9.98046 14.6663C8.02702 14.6663 6.35094 13.4663 5.66151 11.7549C5.57804 11.5476 5.75705 11.3329 5.98046 11.3329C6.21379 11.3329 6.43379 11.3197 6.66046 11.2863L6.99714 11.2413C7.10008 11.2277 7.20354 11.2627 7.27694 11.3361L7.62714 11.6863C7.72714 11.7863 7.85381 11.8329 7.98048 11.8329C8.11382 11.8329 8.24046 11.7863 8.33382 11.6863C8.53382 11.4929 8.53382 11.1729 8.33382 10.9797C8.26958 10.9153 8.28974 10.8065 8.37102 10.766C8.63702 10.6334 8.90958 10.4645 9.15486 10.2821C9.29342 10.1793 9.4879 10.1858 9.6107 10.3071L9.93382 10.6263C10.0338 10.7197 10.1605 10.7729 10.2872 10.7729C10.4138 10.7729 10.5472 10.7197 10.6405 10.6197C10.8338 10.4263 10.8338 10.1063 10.6338 9.91294L10.3151 9.59822C10.1933 9.4779 10.1832 9.28534 10.284 9.14694C10.4596 8.90614 10.6245 8.64406 10.7557 8.38742C10.7952 8.31014 10.8991 8.29158 10.9605 8.35294C11.0605 8.45294 11.1872 8.49966 11.3138 8.49966C11.4472 8.49966 11.5738 8.45294 11.6672 8.35294C11.8672 8.15966 11.8672 7.83965 11.6672 7.64631L11.3169 7.29611C11.2436 7.22271 11.2085 7.11925 11.2222 7.01631L11.2672 6.67965C11.3005 6.45295 11.3138 6.23295 11.3138 5.99961C11.3138 5.77631 11.5284 5.59747 11.7355 5.68114C13.442 6.37085 14.6472 8.04662 14.6472 9.99966Z" fill="white"/>
</svg>
