<svg width="16" height="16" viewBox="0 0 16 16" fill="none" xmlns="http://www.w3.org/2000/svg">
<path d="M9.33265 8.83594H6.66602C6.39268 8.83594 6.16602 9.06258 6.16602 9.33594C6.16602 9.60922 6.39268 9.83594 6.66602 9.83594H9.33265C9.60601 9.83594 9.83265 9.60922 9.83265 9.33594C9.83265 9.06258 9.60601 8.83594 9.33265 8.83594Z" fill="white"/>
<path d="M6.66602 7.16406H7.99934C8.27265 7.16406 8.49937 6.9374 8.49937 6.66406C8.49937 6.39073 8.27265 6.16406 7.99934 6.16406H6.66602C6.39268 6.16406 6.16602 6.39073 6.16602 6.66406C6.16602 6.9374 6.39268 7.16406 6.66602 7.16406Z" fill="white"/>
<path d="M10.7932 1.33594H5.21317C2.78651 1.33594 1.33984 2.7826 1.33984 5.20927V10.7892C1.33984 13.216 2.78651 14.6626 5.21317 14.6626H10.7932C13.2198 14.6626 14.6666 13.216 14.6666 10.7892V5.20927C14.6666 2.7826 13.2198 1.33594 10.7932 1.33594ZM11.9998 10.0026C11.9998 11.336 11.3332 12.0026 9.99984 12.0026H5.99984C4.66651 12.0026 3.99984 11.336 3.99984 10.0026V6.0026C3.99984 4.66927 4.66651 4.0026 5.99984 4.0026H8.66656C9.99984 4.0026 10.6666 4.66927 10.6666 6.0026V6.66927C10.6666 7.03594 10.9666 7.33594 11.3332 7.33594C11.6998 7.33594 11.9998 7.63594 11.9998 8.0026V10.0026Z" fill="white"/>
</svg>
