<svg width="16" height="16" viewBox="0 0 16 16" fill="none" xmlns="http://www.w3.org/2000/svg">
<path d="M8.61914 7.09634L10.1725 5.67636L8.61914 4.42969V7.09634Z" fill="white"/>
<path d="M10.794 1.33594H5.20732C2.78066 1.33594 1.33398 2.7826 1.33398 5.20927V10.7892C1.33398 13.2226 2.78066 14.6692 5.20732 14.6692H10.7874C13.214 14.6692 14.6606 13.2226 14.6606 10.796V5.20927C14.6674 2.7826 13.2206 1.33594 10.794 1.33594ZM10.8474 9.59596C11.054 9.78924 11.174 10.056 11.1674 10.3292C11.1606 10.6026 11.034 10.8626 10.814 11.0492L9.20063 12.396C8.92063 12.6292 8.66735 12.696 8.47399 12.696C8.32063 12.696 8.20063 12.656 8.13399 12.6226C7.98066 12.5492 7.62066 12.3092 7.62066 11.656V9.37596L5.67398 11.1626C5.47398 11.3492 5.15398 11.336 4.96732 11.1292C4.78066 10.9226 4.79398 10.6092 5.00066 10.4226L7.62066 8.0226V7.96927L4.99398 5.58927C4.79398 5.4026 4.78066 5.0826 4.96732 4.8826C5.15398 4.6826 5.47398 4.6626 5.67398 4.84927L7.62066 6.63594V4.35594C7.62066 3.7026 7.98066 3.4626 8.13399 3.38927C8.28735 3.31594 8.70063 3.19594 9.20063 3.61594L10.814 4.9626C11.034 5.1426 11.1606 5.40927 11.1674 5.6826C11.174 5.95594 11.0606 6.2226 10.8474 6.41594L9.11399 8.0026L10.8474 9.59596Z" fill="white"/>
<path d="M8.61914 11.5739L10.1725 10.2739L8.61914 8.86719V11.5739Z" fill="white"/>
</svg>
