<svg width="16" height="16" viewBox="0 0 16 16" fill="none" xmlns="http://www.w3.org/2000/svg">
<path d="M8.59961 7.05994L9.71297 6.03995L8.59961 5.11328V7.05994Z" fill="white"/>
<path d="M8.59961 10.888L9.71297 9.96141L8.59961 8.94141V10.888Z" fill="white"/>
<path d="M8.00063 1.33594C4.32066 1.33594 1.33398 4.3226 1.33398 8.0026C1.33398 11.6826 4.32066 14.6692 8.00063 14.6692C11.6806 14.6692 14.6674 11.6826 14.6674 8.0026C14.6674 4.3226 11.6806 1.33594 8.00063 1.33594ZM10.4806 9.3026C10.674 9.4826 10.7806 9.72924 10.774 9.9826C10.7674 10.236 10.6474 10.4826 10.4474 10.6492L9.06735 11.8026C8.81399 12.016 8.58063 12.076 8.40063 12.076C8.25399 12.076 8.14063 12.036 8.07399 12.0092C7.92732 11.9426 7.59398 11.7226 7.59398 11.116V9.33596L6.06066 10.7426C5.86066 10.9292 5.54066 10.916 5.35398 10.7092C5.16732 10.5026 5.18066 10.1892 5.38732 10.0026L7.57398 8.0026L5.38732 5.99594C5.18732 5.80927 5.17398 5.49594 5.36066 5.28927C5.54732 5.08927 5.86732 5.06927 6.06732 5.25594L7.60066 6.66927V4.88927C7.60066 4.28927 7.93398 4.06927 8.08063 3.99594C8.22063 3.92927 8.60735 3.81594 9.07399 4.19594L10.4474 5.3426C10.6474 5.50927 10.7674 5.75594 10.774 6.00927C10.7806 6.2626 10.674 6.51594 10.4806 6.68927L9.05399 8.0026L10.4806 9.3026Z" fill="white"/>
</svg>
