<svg width="16" height="16" viewBox="0 0 16 16" fill="none" xmlns="http://www.w3.org/2000/svg">
<path d="M8.59961 10.888L9.71297 9.96141L8.59961 8.94141V10.888Z" fill="white"/>
<path d="M8.59961 7.05994L9.71297 6.03995L8.59961 5.11328V7.05994Z" fill="white"/>
<path d="M9.99937 1.33594H5.99934C3.99934 1.33594 2.66602 2.66927 2.66602 4.66927V11.336C2.66602 13.336 3.99934 14.6692 5.99934 14.6692H9.99937C11.9994 14.6692 13.3326 13.336 13.3326 11.336V4.66927C13.3326 2.66927 11.9994 1.33594 9.99937 1.33594ZM10.4794 9.3026C10.6726 9.4826 10.7794 9.72924 10.7726 9.9826C10.766 10.236 10.646 10.4826 10.446 10.6492L9.06601 11.8026C8.81265 12.016 8.57937 12.076 8.39937 12.076C8.25265 12.076 8.13937 12.036 8.07265 12.0092C7.92602 11.9426 7.59268 11.7226 7.59268 11.116V9.33596L6.05934 10.7426C5.85934 10.9292 5.53934 10.916 5.35268 10.7092C5.16602 10.5026 5.17934 10.1892 5.38602 10.0026L7.57268 8.0026L5.38602 5.99594C5.18602 5.80927 5.17268 5.49594 5.35934 5.28927C5.54602 5.08927 5.86602 5.06927 6.06602 5.25594L7.59934 6.66927V4.88927C7.59934 4.28927 7.93268 4.06927 8.07937 3.99594C8.21937 3.92927 8.60601 3.80927 9.07265 4.19594L10.446 5.3426C10.646 5.50927 10.766 5.75594 10.7726 6.00927C10.7794 6.2626 10.6726 6.51594 10.4794 6.68927L9.05265 8.0026L10.4794 9.3026Z" fill="white"/>
</svg>
