<svg width="16" height="16" viewBox="0 0 16 16" fill="none" xmlns="http://www.w3.org/2000/svg">
<path d="M8.19922 11.5472L9.73922 10.2605L8.19922 8.86719V11.5472Z" fill="white"/>
<path d="M8.19922 4.45312V7.09313L9.73922 5.67979L8.19922 4.45312Z" fill="white"/>
<path d="M10.794 1.33594H5.20732C2.78066 1.33594 1.33398 2.7826 1.33398 5.20927V10.7892C1.33398 13.2226 2.78066 14.6692 5.20732 14.6692H10.7874C13.214 14.6692 14.6606 13.2226 14.6606 10.796V5.20927C14.6674 2.7826 13.2206 1.33594 10.794 1.33594ZM3.50066 8.0026C3.50066 7.49594 3.91398 7.0826 4.42066 7.0826C4.92732 7.0826 5.33398 7.49594 5.33398 8.0026C5.33398 8.50924 4.92066 8.9226 4.41398 8.9226C3.90732 8.9226 3.50066 8.50924 3.50066 8.0026ZM10.3806 11.0292L8.77399 12.3692C8.50063 12.6026 8.24735 12.6692 8.05399 12.6692C7.90066 12.6692 7.78066 12.6292 7.71398 12.596C7.56066 12.5226 7.20066 12.2892 7.20066 11.636V9.37596L5.26732 11.1426C5.06732 11.3292 4.74732 11.316 4.56066 11.1092C4.37398 10.9026 4.38732 10.5892 4.59398 10.4026L7.20066 8.01596V7.9626L4.59398 5.6026C4.38732 5.41594 4.37398 5.1026 4.56066 4.89594C4.74732 4.69594 5.06732 4.67594 5.26732 4.8626L7.20066 6.62927V4.37594C7.20066 3.7226 7.56066 3.4826 7.71398 3.41594C7.86732 3.3426 8.28063 3.2226 8.78063 3.6426L10.3874 4.9826C10.6074 5.1626 10.734 5.4226 10.7406 5.69594C10.7474 5.96927 10.634 6.23594 10.4274 6.42927L8.69399 8.0026L10.4206 9.5826C10.6274 9.77596 10.7474 10.0426 10.7406 10.316C10.7274 10.5892 10.6006 10.8492 10.3806 11.0292ZM11.5874 8.9226C11.0806 8.9226 10.6674 8.50924 10.6674 8.0026C10.6674 7.49594 11.0806 7.0826 11.5874 7.0826C12.094 7.0826 12.5074 7.49594 12.5074 8.0026C12.5074 8.50924 12.0874 8.9226 11.5874 8.9226Z" fill="white"/>
</svg>
