<svg width="16" height="16" viewBox="0 0 16 16" fill="none" xmlns="http://www.w3.org/2000/svg">
<path d="M8.98 4.93976L10.62 4.13308C10.82 4.03308 10.8734 3.77308 10.72 3.61308C10.1266 2.95976 9.52664 2.41308 9.04664 1.99976C8.82664 1.81308 8.5 1.96642 8.5 2.25308V4.63976C8.5 4.88642 8.76 5.04642 8.98 4.93976Z" fill="white"/>
<path d="M8.5 13.1602V14.2601C8.5 14.4601 8.68 14.6268 8.88 14.5935C10.7 14.2935 12.22 13.0735 12.94 11.4335C13.0666 11.1535 12.76 10.8736 12.48 11.0069L8.68664 12.8668C8.57336 12.9201 8.5 13.0336 8.5 13.1602Z" fill="white"/>
<path d="M7.49968 2.23975C7.49968 1.95309 7.17302 1.79975 6.95302 1.97975C5.37966 3.29975 2.58632 6.07975 2.59966 9.26642C2.59966 11.9464 4.55966 14.1664 7.11968 14.5931C7.31968 14.6264 7.49968 14.4597 7.49968 14.2597V2.23975Z" fill="white"/>
<path d="M8.96078 8.31428L12.4875 6.8343C12.6675 6.7543 12.7541 6.54761 12.6675 6.37427C12.4208 5.88761 12.1341 5.41427 11.8208 4.97427C11.7275 4.84094 11.5541 4.80094 11.4075 4.86761L8.68078 6.19427C8.5675 6.24761 8.49414 6.36761 8.49414 6.49427V8.00764C8.50078 8.241 8.74078 8.40764 8.96078 8.31428Z" fill="white"/>
<path d="M13.22 9.53788C13.3266 9.48452 13.3934 9.38452 13.3934 9.27116C13.3934 8.84452 13.34 8.42452 13.2466 8.01116C13.2 7.8112 12.98 7.70453 12.7934 7.78453L8.7 9.53116C8.58 9.58452 8.5 9.70452 8.5 9.83788V11.3045C8.5 11.5512 8.76 11.7112 8.98 11.6045L12.9134 9.69116L13.22 9.53788Z" fill="white"/>
</svg>
