<svg width="16" height="16" viewBox="0 0 16 16" fill="none" xmlns="http://www.w3.org/2000/svg">
<path fill-rule="evenodd" clip-rule="evenodd" d="M1.77534 1.7773C2.00966 1.54298 2.38956 1.54298 2.62387 1.7773L14.2238 13.3773C14.4582 13.6116 14.4582 13.9915 14.2238 14.2258C13.9895 14.4601 13.6097 14.4601 13.3754 14.2258L1.77534 2.62582C1.54103 2.39151 1.54103 2.01161 1.77534 1.7773Z" fill="#0F172A"/>
<path d="M3.78374 6.32812L1.75248 8.59833C1.59469 8.77473 1.55529 9.02729 1.65188 9.24337C1.74847 9.45937 1.963 9.59841 2.19962 9.59841H7.05405L3.78374 6.32812Z" fill="#0F172A"/>
<path d="M7.38706 9.93359L6.41376 14.4757C6.35675 14.7418 6.48591 15.0129 6.72845 15.1362C6.97097 15.2595 7.26615 15.2042 7.44758 15.0014L9.81219 12.3587L7.38706 9.93359Z" fill="#0F172A"/>
<path d="M12.2156 9.66873L14.2468 7.39852C14.4047 7.22217 14.444 6.96956 14.3475 6.75353C14.2509 6.53752 14.0364 6.39844 13.7997 6.39844H8.94531L12.2156 9.66873Z" fill="#0F172A"/>
<path d="M8.61256 6.06859L9.58592 1.52653C9.64288 1.26047 9.51376 0.98935 9.2712 0.865998C9.02864 0.742652 8.73352 0.797952 8.55208 1.00073L6.1875 3.64349L8.61256 6.06859Z" fill="#0F172A"/>
</svg>
