<svg width="16" height="16" viewBox="0 0 16 16" fill="none" xmlns="http://www.w3.org/2000/svg">
<path d="M9.58633 1.52653C9.64329 1.26047 9.51417 0.98935 9.27161 0.865998C9.02905 0.742652 8.73393 0.797952 8.55249 1.00073L1.75248 8.6007C1.59469 8.7771 1.55529 9.02966 1.65188 9.24574C1.74847 9.46174 1.963 9.60078 2.19962 9.60078H7.45743L6.41294 14.4751C6.35593 14.7412 6.48509 15.0123 6.72763 15.1356C6.97016 15.2589 7.26533 15.2037 7.44676 15.0009L14.2467 7.40089C14.4046 7.22454 14.4439 6.97193 14.3474 6.7559C14.2508 6.53989 14.0363 6.40081 13.7996 6.40081H8.54185L9.58633 1.52653Z" fill="#0F172A"/>
</svg>
