<svg width="16" height="16" viewBox="0 0 16 16" fill="none" xmlns="http://www.w3.org/2000/svg">
<path d="M7.50066 4.00135V13.2747C7.50066 13.748 7.02066 14.0747 6.58732 13.8947C5.34732 13.3747 3.80732 12.9214 2.71398 12.7747L2.50732 12.748C1.86066 12.668 1.33398 12.0747 1.33398 11.428V3.50135C1.33398 2.70135 1.98066 2.05469 2.78066 2.05469H2.82732C4.08066 2.16135 5.92732 2.74802 7.14732 3.40802C7.36732 3.52802 7.50066 3.74802 7.50066 4.00135Z" fill="white"/>
<path d="M13.22 2.05469H13.18C13.02 2.06802 12.8466 2.08802 12.6666 2.12135C11.8466 2.25469 10.8734 2.53469 10 2.88135C9.58664 3.04802 9.2 3.22802 8.86 3.40802C8.64 3.52802 8.5 3.75469 8.5 4.00135V13.2747C8.5 13.748 8.98 14.0747 9.41336 13.8947C10.6534 13.3747 12.1934 12.9214 13.2866 12.7747L13.4934 12.748C14.14 12.668 14.6666 12.0747 14.6666 11.428V3.50135C14.6666 2.70135 14.02 2.05469 13.22 2.05469ZM12.8466 9.15468C12.8466 9.41468 12.66 9.52804 12.4334 9.4014L11.7266 9.00804C11.6534 8.96804 11.5334 8.96804 11.4534 9.00804L10.7466 9.4014C10.52 9.52804 10.3334 9.41468 10.3334 9.15468V7.10803C10.3334 6.80137 10.5866 6.54802 10.8934 6.54802H12.2934C12.6 6.54802 12.8534 6.80137 12.8534 7.10803V9.15468H12.8466Z" fill="white"/>
</svg>
