<svg width="16" height="16" viewBox="0 0 16 16" fill="none" xmlns="http://www.w3.org/2000/svg">
<path d="M13.6009 3.61485V11.056L4.34766 1.80277C5.54727 1.6698 6.76621 1.60156 8.00086 1.60156C9.3739 1.60156 10.7276 1.68597 12.0569 1.84993C12.9562 1.96087 13.6009 2.73255 13.6009 3.61485Z" fill="#0F172A"/>
<path d="M2.40039 13.7997V4.94531L10.9234 13.4683L8.00039 12.0652L3.26003 14.3406C3.07411 14.4299 2.85539 14.4174 2.68085 14.3076C2.5063 14.1977 2.40039 14.006 2.40039 13.7997Z" fill="#0F172A"/>
<path d="M2.62387 1.7773C2.38956 1.54298 2.00966 1.54298 1.77534 1.7773C1.54103 2.01161 1.54103 2.39151 1.77534 2.62582L13.3754 14.2258C13.6097 14.4601 13.9895 14.4601 14.2238 14.2258C14.4582 13.9915 14.4582 13.6116 14.2238 13.3773L2.62387 1.7773Z" fill="#0F172A"/>
</svg>
