<svg width="16" height="16" viewBox="0 0 16 16" fill="none" xmlns="http://www.w3.org/2000/svg">
<path d="M13.6674 10.6666V12.3334C13.6674 13.62 12.6206 14.6666 11.334 14.6666H4.66732C3.38066 14.6666 2.33398 13.62 2.33398 12.3334V11.9C2.33398 10.8534 3.18732 10 4.23398 10H13.0006C13.3674 10 13.6674 10.3 13.6674 10.6666Z" fill="white"/>
<path d="M10.334 1.33594H5.66732C3.00066 1.33594 2.33398 2.0026 2.33398 4.66927V9.7226C2.84066 9.27596 3.50732 9.0026 4.23398 9.0026H13.0006C13.3674 9.0026 13.6674 8.7026 13.6674 8.33596V4.66927C13.6674 2.0026 13.0006 1.33594 10.334 1.33594ZM8.66735 7.16927H5.33398C5.06066 7.16927 4.83398 6.9426 4.83398 6.66927C4.83398 6.39594 5.06066 6.16927 5.33398 6.16927H8.66735C8.94063 6.16927 9.16735 6.39594 9.16735 6.66927C9.16735 6.9426 8.94063 7.16927 8.66735 7.16927ZM10.6674 4.83594H5.33398C5.06066 4.83594 4.83398 4.60927 4.83398 4.33594C4.83398 4.0626 5.06066 3.83594 5.33398 3.83594H10.6674C10.9406 3.83594 11.1674 4.0626 11.1674 4.33594C11.1674 4.60927 10.9406 4.83594 10.6674 4.83594Z" fill="white"/>
</svg>
