<svg width="16" height="16" viewBox="0 0 16 16" fill="none" xmlns="http://www.w3.org/2000/svg">
<path d="M8.59961 13.454C9.56593 12.7881 10.7366 12.3984 11.9996 12.3984C12.5678 12.3984 13.1167 12.4772 13.6363 12.6242C13.8172 12.6754 14.0116 12.6388 14.1615 12.5254C14.3115 12.412 14.3996 12.2348 14.3996 12.0468V3.24688C14.3996 2.9784 14.2213 2.7426 13.9629 2.66953C13.3381 2.49281 12.6794 2.39844 11.9996 2.39844C10.7705 2.39844 9.61241 2.70683 8.59961 3.25033V13.454Z" fill="#0F172A"/>
<path d="M7.39961 3.25033C6.38678 2.70683 5.22873 2.39844 3.99961 2.39844C3.31984 2.39844 2.66112 2.49281 2.03631 2.66953C1.77797 2.7426 1.59961 2.9784 1.59961 3.24688V12.0468C1.59961 12.2348 1.68772 12.412 1.83766 12.5254C1.98759 12.6388 2.18201 12.6754 2.36291 12.6242C2.8825 12.4772 3.43135 12.3984 3.99961 12.3984C5.26268 12.3984 6.43327 12.7881 7.39961 13.454V3.25033Z" fill="#0F172A"/>
</svg>
