<svg width="16" height="16" viewBox="0 0 16 16" fill="none" xmlns="http://www.w3.org/2000/svg">
<path fill-rule="evenodd" clip-rule="evenodd" d="M3.39961 1.60156C2.4055 1.60156 1.59961 2.40745 1.59961 3.40156V12.6016C1.59961 13.5956 2.4055 14.4016 3.39961 14.4016H12.5996C13.5937 14.4016 14.3996 13.5956 14.3996 12.6016V3.40156C14.3996 2.40745 13.5937 1.60156 12.5996 1.60156H3.39961ZM4.79961 10.6016V2.80156H11.1996V10.6016C11.1996 10.8062 11.0954 10.9967 10.923 11.107C10.7506 11.2172 10.5339 11.2321 10.3482 11.1464L7.99961 10.0624L5.65104 11.1464C5.46527 11.2321 5.24859 11.2172 5.07623 11.107C4.90388 10.9967 4.79961 10.8062 4.79961 10.6016Z" fill="#0F172A"/>
</svg>
