<svg width="16" height="16" viewBox="0 0 16 16" fill="none" xmlns="http://www.w3.org/2000/svg">
<path d="M14.6666 3.23573V11.1624C14.6666 11.8091 14.14 12.4024 13.4934 12.4824L13.2866 12.5091C12.1934 12.6557 10.6534 13.1091 9.41336 13.6291C8.98 13.8091 8.5 13.4824 8.5 13.0091V3.73573C8.5 3.48906 8.64 3.26239 8.86 3.14239C10.08 2.48239 11.9266 1.89573 13.18 1.78906H13.22C14.02 1.78906 14.6666 2.43573 14.6666 3.23573Z" fill="white"/>
<path d="M7.13949 3.14239C5.91951 2.48239 4.07284 1.89573 2.81951 1.78906H2.77284C1.97284 1.78906 1.32617 2.43573 1.32617 3.23573V11.1624C1.32617 11.8091 1.85284 12.4024 2.49951 12.4824L2.70617 12.5091C3.79951 12.6557 5.33951 13.1091 6.57951 13.6291C7.01282 13.8091 7.49282 13.4824 7.49282 13.0091V3.73573C7.49282 3.48239 7.35949 3.26239 7.13949 3.14239ZM3.33284 5.16239H4.83284C5.10617 5.16239 5.33284 5.38905 5.33284 5.66239C5.33284 5.94239 5.10617 6.16239 4.83284 6.16239H3.33284C3.05951 6.16239 2.83284 5.94239 2.83284 5.66239C2.83284 5.38905 3.05951 5.16239 3.33284 5.16239ZM5.33284 8.16244H3.33284C3.05951 8.16244 2.83284 7.9424 2.83284 7.6624C2.83284 7.38906 3.05951 7.1624 3.33284 7.1624H5.33284C5.60617 7.1624 5.83284 7.38906 5.83284 7.6624C5.83284 7.9424 5.60617 8.16244 5.33284 8.16244Z" fill="white"/>
</svg>
