<svg width="16" height="16" viewBox="0 0 16 16" fill="none" xmlns="http://www.w3.org/2000/svg">
<path d="M10.794 1.33594H5.20732C2.78066 1.33594 1.33398 2.7826 1.33398 5.20927V10.7892C1.33398 13.2226 2.78066 14.6692 5.20732 14.6692H10.7874C13.214 14.6692 14.6606 13.2226 14.6606 10.796V5.20927C14.6674 2.7826 13.2206 1.33594 10.794 1.33594ZM7.66732 11.5026C7.66732 11.7426 7.42732 11.9026 7.20732 11.8092C6.40066 11.4626 5.34732 11.1426 4.61398 11.0492L4.48732 11.036C4.08066 10.9826 3.74732 10.6026 3.74732 10.1892V5.05594C3.74732 4.5426 4.16066 4.1626 4.66732 4.2026C5.50066 4.26927 6.73398 4.66927 7.50732 5.10927C7.61398 5.16927 7.66732 5.2826 7.66732 5.39594V11.5026ZM12.254 10.1826C12.254 10.596 11.9206 10.976 11.514 11.0292L11.374 11.0426C10.6474 11.1426 9.60063 11.456 8.79399 11.796C8.57399 11.8892 8.33399 11.7292 8.33399 11.4892V5.38927C8.33399 5.26927 8.39399 5.15594 8.50063 5.09594C9.27399 4.6626 10.4806 4.27594 11.3006 4.2026H11.3274C11.8406 4.2026 12.254 4.61594 12.254 5.12927V10.1826Z" fill="white"/>
</svg>
