<svg width="16" height="16" viewBox="0 0 16 16" fill="none" xmlns="http://www.w3.org/2000/svg">
<path d="M11.3326 3.30927V8.05596C11.3326 9.3826 10.3926 9.89596 9.23937 9.2026L8.35937 8.66924C8.15937 8.54924 7.83934 8.54924 7.63934 8.66924L6.75934 9.2026C5.60602 9.89596 4.66602 9.3826 4.66602 8.05596V3.32927C4.67268 2.0026 5.33934 1.33594 6.66602 1.33594H9.33265C10.6526 1.33594 11.3194 1.99594 11.3326 3.30927Z" fill="white"/>
<path d="M14.6674 7.93256V9.95258C14.6674 13.3192 13.334 14.6659 10.0006 14.6659H6.00066C2.66732 14.6659 1.33398 13.3192 1.33398 9.95258V7.93256C1.33398 6.13925 1.71398 4.91925 2.56732 4.17259C3.00066 3.80592 3.66732 4.12592 3.66732 4.69259V8.05258C3.66732 9.04594 4.07398 9.84594 4.78066 10.2459C5.49398 10.6526 6.40066 10.5792 7.28066 10.0526L8.00063 9.61922L8.72735 10.0526C9.22063 10.3526 9.73399 10.5059 10.214 10.5059C10.574 10.5059 10.914 10.4192 11.2206 10.2459C11.9274 9.84594 12.334 9.04594 12.334 8.05258V4.68592C12.334 4.11925 13.0074 3.79925 13.434 4.17259C14.2874 4.91925 14.6674 6.13925 14.6674 7.93256Z" fill="white"/>
</svg>
