<svg width="16" height="16" viewBox="0 0 16 16" fill="none" xmlns="http://www.w3.org/2000/svg">
<path d="M8.44664 8.5H7V10.28H8.44664C8.94 10.28 9.33336 9.88 9.33336 9.39336C9.33336 8.90664 8.93336 8.5 8.44664 8.5Z" fill="white"/>
<path d="M8.44664 5.71875H7V7.49876H8.44664C8.94 7.49876 9.33336 7.09876 9.33336 6.61209C9.33336 6.12543 8.93336 5.71875 8.44664 5.71875Z" fill="white"/>
<path d="M15.3326 7.33334C14.5394 7.33334 13.8327 6.82666 13.5794 6.06667C13.4194 5.58001 13.3326 5.06666 13.3326 4.55333V4C13.3326 2.89334 12.4394 2 11.3326 2H4.66602C3.55935 2 2.66602 2.89334 2.66602 4V4.56C2.66602 5.07334 2.58602 5.57999 2.41935 6.07333C2.16602 6.82666 1.45935 7.34 0.666016 7.34V8.67336C1.45935 8.67336 2.16602 9.18 2.41935 9.94C2.57935 10.4266 2.66602 10.94 2.66602 11.4466V12C2.66602 13.1066 3.55935 14 4.66602 14H11.3326C12.4394 14 13.3326 13.1066 13.3326 12V11.44C13.3326 10.9266 13.4127 10.42 13.5794 9.93336C13.8327 9.18 14.5394 8.66664 15.3326 8.66664V7.33334ZM10.3326 9.38664C10.3326 10.4266 9.48601 11.2734 8.44601 11.2734H6.49935C6.22602 11.2734 5.99935 11.0466 5.99935 10.7734V5.21999C5.99935 4.94666 6.22602 4.71999 6.49935 4.71999H8.44601C9.48601 4.71999 10.3326 5.56666 10.3326 6.60666C10.3326 7.15334 10.0994 7.65334 9.71937 7.99334C10.0994 8.34664 10.3326 8.84 10.3326 9.38664Z" fill="white"/>
</svg>
