<svg width="16" height="16" viewBox="0 0 16 16" fill="none" xmlns="http://www.w3.org/2000/svg">
<path d="M13.3996 4.62927C13.3996 4.98927 13.2062 5.31594 12.8996 5.4826L11.7396 6.10927L10.753 6.63594L8.70625 7.7426C8.48625 7.8626 8.24625 7.9226 7.99961 7.9226C7.75295 7.9226 7.51295 7.8626 7.29295 7.7426L3.09961 5.4826C2.79295 5.31594 2.59961 4.98927 2.59961 4.62927C2.59961 4.26927 2.79295 3.9426 3.09961 3.77594L4.41295 3.06927L5.45961 2.5026L7.29295 1.51594C7.73295 1.27594 8.26625 1.27594 8.70625 1.51594L12.8996 3.77594C13.2062 3.9426 13.3996 4.26927 13.3996 4.62927Z" fill="white"/>
<path d="M6.59916 8.52676L2.69916 6.58009C2.39916 6.42676 2.0525 6.44676 1.76584 6.62009C1.47916 6.7934 1.3125 7.10007 1.3125 7.4334V11.12C1.3125 11.76 1.66584 12.3334 2.23916 12.62L6.13916 14.5668C6.2725 14.6334 6.41916 14.6668 6.56584 14.6668C6.73915 14.6668 6.91248 14.62 7.06581 14.52C7.35248 14.3468 7.51915 14.04 7.51915 13.7068V10.02C7.52581 9.38676 7.17248 8.8134 6.59916 8.52676Z" fill="white"/>
<path d="M14.686 7.43567V11.1224C14.686 11.7556 14.3327 12.329 13.7593 12.6156L9.8593 14.569C9.72602 14.6356 9.5793 14.669 9.43266 14.669C9.2593 14.669 9.08602 14.6224 8.92602 14.5224C8.64602 14.349 8.47266 14.0424 8.47266 13.709V10.029C8.47266 9.389 8.82602 8.81564 9.3993 8.529L10.8327 7.81567L11.8327 7.31567L13.2993 6.58236C13.5993 6.42903 13.946 6.44236 14.2327 6.62236C14.5127 6.79567 14.686 7.10234 14.686 7.43567Z" fill="white"/>
<path d="M11.7407 6.10666L10.7541 6.63334L4.41406 3.06666L5.46073 2.5L11.5807 5.95334C11.6474 5.99334 11.7007 6.04666 11.7407 6.10666Z" fill="white"/>
<path d="M11.834 7.3125V8.82584C11.834 9.0992 11.6073 9.32584 11.334 9.32584C11.0606 9.32584 10.834 9.0992 10.834 8.82584V7.8125L11.834 7.3125Z" fill="white"/>
</svg>
