<svg width="16" height="16" viewBox="0 0 16 16" fill="none" xmlns="http://www.w3.org/2000/svg">
<path d="M11.733 3.53823L7.96634 1.51156C7.56634 1.29823 7.09302 1.29823 6.69302 1.51156L2.93299 3.53823C2.65966 3.69156 2.48633 3.98489 2.48633 4.30489C2.48633 4.63156 2.65299 4.92489 2.93299 5.07156L6.69968 7.09823C6.89968 7.20489 7.11968 7.25823 7.33302 7.25823C7.54634 7.25823 7.77302 7.20489 7.96634 7.09823L11.733 5.07156C12.0063 4.92489 12.1797 4.63156 12.1797 4.30489C12.1797 3.98489 12.0063 3.69156 11.733 3.53823Z" fill="white"/>
<path d="M6.08066 7.80573L2.58066 6.05908C2.30732 5.91908 2.00066 5.93908 1.74066 6.09242C1.48732 6.25242 1.33398 6.52575 1.33398 6.82573V10.1324C1.33398 10.7057 1.65398 11.2191 2.16732 11.4791L5.66732 13.2257C5.78732 13.2857 5.92066 13.3191 6.05398 13.3191C6.20732 13.3191 6.36732 13.2724 6.50732 13.1924C6.76066 13.0324 6.91398 12.7591 6.91398 12.4591V9.15242C6.90732 8.57906 6.58732 8.0657 6.08066 7.80573Z" fill="white"/>
<path d="M13.3331 6.82573V8.4657C13.0131 8.37242 12.6731 8.33242 12.3331 8.33242C11.4265 8.33242 10.5397 8.6457 9.83975 9.2057C8.87975 9.95906 8.33311 11.0991 8.33311 12.3324C8.33311 12.6591 8.37311 12.9857 8.45975 13.2991C8.35975 13.2857 8.25975 13.2457 8.16647 13.1857C7.9131 13.0324 7.75977 12.7591 7.75977 12.4591V9.15242C7.75977 8.57906 8.07975 8.0657 8.58647 7.80573L12.0865 6.05908C12.3598 5.91908 12.6665 5.93908 12.9265 6.09242C13.1798 6.25242 13.3331 6.52575 13.3331 6.82573Z" fill="white"/>
<path d="M14.453 10.2164C13.8596 9.62301 13.0729 9.323 12.2929 9.33636C11.5396 9.343 10.7863 9.64301 10.213 10.2164C9.81299 10.6097 9.55299 11.103 9.42627 11.6164C9.35299 11.8964 9.32627 12.183 9.34627 12.4697V12.503C9.34627 12.5497 9.35291 12.5897 9.35963 12.643C9.35963 12.643 9.35963 12.643 9.36627 12.6497V12.6697C9.42627 13.323 9.70627 13.9564 10.213 14.4564C10.9863 15.2297 12.073 15.4897 13.053 15.243C13.3463 15.1697 13.633 15.0497 13.8996 14.8897C14.0996 14.7764 14.2863 14.6297 14.453 14.4564C14.953 13.9564 15.2396 13.323 15.2996 12.663C15.3063 12.663 15.3063 12.6497 15.3063 12.643C15.3196 12.5964 15.3196 12.543 15.3196 12.4964C15.3196 12.4897 15.3263 12.4764 15.3263 12.463C15.3663 11.6564 15.073 10.8297 14.453 10.2164ZM13.4863 13.4764C13.293 13.6697 12.9796 13.6697 12.7796 13.4764L12.3396 13.0364L11.8863 13.4897C11.6863 13.6897 11.3729 13.6897 11.1796 13.4897C10.9796 13.2964 10.9796 12.983 11.1796 12.783L11.6329 12.3297L11.1929 11.8897C10.9996 11.6897 10.9996 11.3764 11.1929 11.183C11.3929 10.983 11.7063 10.983 11.9063 11.183L12.3396 11.623L12.7596 11.1964C12.9596 11.003 13.273 11.003 13.473 11.1964C13.6663 11.3964 13.6663 11.7097 13.473 11.9097L13.0463 12.3297L13.4863 12.763C13.6863 12.963 13.6863 13.2764 13.4863 13.4764Z" fill="white"/>
</svg>
