<svg width="16" height="16" viewBox="0 0 16 16" fill="none" xmlns="http://www.w3.org/2000/svg">
<path d="M3.55341 12.9449C3.48008 12.9449 3.40008 12.9249 3.33341 12.8916L1.85341 12.1516C1.68674 12.0649 1.58008 11.8916 1.58008 11.7049V9.85156C1.58008 9.5782 1.80674 9.35156 2.08008 9.35156C2.35341 9.35156 2.58008 9.5782 2.58008 9.85156V11.3916L3.78008 11.9982C4.02674 12.1182 4.12674 12.4182 4.00008 12.6649C3.91341 12.8382 3.74008 12.9449 3.55341 12.9449Z" fill="white"/>
<path d="M7.99962 15.1659C7.95962 15.1659 7.91962 15.1592 7.88628 15.1525C7.84628 15.1459 7.80628 15.1259 7.76628 15.1059L6.29298 14.3725C6.04632 14.2459 5.94632 13.9459 6.06632 13.6992C6.19298 13.4525 6.49298 13.3525 6.73962 13.4725L7.49962 13.8525V12.8125C7.49962 12.5392 7.72628 12.3125 7.99962 12.3125C8.27298 12.3125 8.49962 12.5392 8.49962 12.8125V13.8525L9.25962 13.4725C9.50626 13.3525 9.80626 13.4525 9.93298 13.6992C10.0596 13.9459 9.95962 14.2459 9.70626 14.3725L8.23298 15.1059C8.19298 15.1259 8.15298 15.1392 8.11298 15.1525C8.07298 15.1592 8.03962 15.1659 7.99962 15.1659Z" fill="white"/>
<path d="M12.4468 12.9461C12.2668 12.9461 12.0868 12.8461 12.0001 12.6727C11.8735 12.4261 11.9735 12.1261 12.2268 11.9994L13.4335 11.3994V9.85938C13.4335 9.5861 13.6601 9.35938 13.9335 9.35938C14.2068 9.35938 14.4335 9.5861 14.4335 9.85938V11.7127C14.4335 11.8994 14.3268 12.0727 14.1601 12.1594L12.6668 12.8927C12.5935 12.9261 12.5201 12.9461 12.4468 12.9461Z" fill="white"/>
<path d="M7.99962 9.61532C7.72628 9.61532 7.49962 9.38868 7.49962 9.11532V7.57534L6.29298 6.97534C6.04632 6.84867 5.94632 6.54865 6.06632 6.30199C6.19298 6.05532 6.49298 5.95532 6.73962 6.07532L7.99962 6.702L9.25962 6.07532C9.50626 5.95532 9.80626 6.04865 9.93298 6.30199C10.0596 6.54865 9.95962 6.84867 9.70626 6.97534L8.49962 7.57534V9.11532C8.49962 9.38868 8.27298 9.61532 7.99962 9.61532Z" fill="white"/>
<path d="M2.07422 6.64538C1.80088 6.64538 1.57422 6.41871 1.57422 6.14538V4.30538V4.29871C1.57422 4.25871 1.58088 4.21871 1.58755 4.18538C1.60088 4.12538 1.62088 4.07871 1.64755 4.03204C1.66755 3.99871 1.69422 3.97204 1.72088 3.94538C1.74755 3.91871 1.78088 3.89204 1.81422 3.87204C1.82755 3.86538 1.84755 3.85204 1.86088 3.84538L3.33422 3.10538C3.58088 2.98538 3.88088 3.08538 4.00088 3.33204C4.12755 3.57871 4.02755 3.87871 3.78088 3.99871L3.19422 4.29204L3.78088 4.58538C4.02755 4.71204 4.12755 5.01204 4.00088 5.25871C3.88088 5.50538 3.58088 5.60537 3.33422 5.48537L2.57422 5.10538V6.14538C2.57422 6.42538 2.35422 6.64538 2.07422 6.64538Z" fill="white"/>
<path d="M9.47921 2.5737C9.40585 2.5737 9.32585 2.5537 9.25921 2.52036L7.99922 1.8937L6.73922 2.52036C6.49255 2.64703 6.19255 2.54703 6.07255 2.30036C5.94589 2.0537 6.04589 1.7537 6.29255 1.62703L7.77255 0.887027C7.91255 0.813699 8.07921 0.813699 8.21921 0.887027L9.69921 1.62703C9.94585 1.7537 10.0458 2.0537 9.92585 2.30036C9.83921 2.4737 9.66585 2.5737 9.47921 2.5737Z" fill="white"/>
<path d="M13.927 6.64538C13.6536 6.64538 13.427 6.41871 13.427 6.14538V5.10538L12.667 5.48537C12.4203 5.60537 12.1203 5.50538 12.0003 5.25871C11.8736 5.01204 11.9736 4.71204 12.227 4.58538L12.8136 4.29204L12.2203 3.99871C11.9736 3.87871 11.8736 3.57871 12.0003 3.33204C12.127 3.08538 12.4203 2.98538 12.667 3.10538L14.1403 3.83871C14.1536 3.84538 14.1736 3.85204 14.187 3.86538C14.227 3.88538 14.2603 3.91871 14.2936 3.95204C14.3136 3.97871 14.3336 4.00538 14.3536 4.03204C14.3803 4.07871 14.4003 4.12538 14.4136 4.17871C14.4203 4.21871 14.427 4.25871 14.427 4.29204V4.29871V6.13871C14.427 6.42538 14.2003 6.64538 13.927 6.64538Z" fill="white"/>
</svg>
