<svg width="16" height="16" viewBox="0 0 16 16" fill="none" xmlns="http://www.w3.org/2000/svg">
<path d="M11.733 3.53823L7.96634 1.51156C7.56634 1.29823 7.09302 1.29823 6.69302 1.51156L2.93299 3.53823C2.65966 3.69156 2.48633 3.98489 2.48633 4.30489C2.48633 4.63156 2.65299 4.92489 2.93299 5.07156L6.69968 7.09823C6.89968 7.20489 7.11968 7.25823 7.33302 7.25823C7.54634 7.25823 7.77302 7.20489 7.96634 7.09823L11.733 5.07156C12.0063 4.92489 12.1797 4.63156 12.1797 4.30489C12.1797 3.98489 12.0063 3.69156 11.733 3.53823Z" fill="white"/>
<path d="M6.08066 7.80573L2.58066 6.05908C2.30732 5.91908 2.00066 5.93908 1.74066 6.09242C1.48732 6.25242 1.33398 6.52575 1.33398 6.82573V10.1324C1.33398 10.7057 1.65398 11.2191 2.16732 11.4791L5.66732 13.2257C5.78732 13.2857 5.92066 13.3191 6.05398 13.3191C6.20732 13.3191 6.36732 13.2724 6.50732 13.1924C6.76066 13.0324 6.91398 12.7591 6.91398 12.4591V9.15242C6.90732 8.57906 6.58732 8.0657 6.08066 7.80573Z" fill="white"/>
<path d="M13.3331 6.82573V8.4657C13.0131 8.37242 12.6731 8.33242 12.3331 8.33242C11.4265 8.33242 10.5397 8.6457 9.83975 9.2057C8.87975 9.95906 8.33311 11.0991 8.33311 12.3324C8.33311 12.6591 8.37311 12.9857 8.45975 13.2991C8.35975 13.2857 8.25975 13.2457 8.16647 13.1857C7.9131 13.0324 7.75977 12.7591 7.75977 12.4591V9.15242C7.75977 8.57906 8.07975 8.0657 8.58647 7.80573L12.0865 6.05908C12.3598 5.91908 12.6665 5.93908 12.9265 6.09242C13.1798 6.25242 13.3331 6.52575 13.3331 6.82573Z" fill="white"/>
<path d="M15.054 14.3352L14.494 13.7752C14.7873 13.3352 14.9606 12.8019 14.9606 12.2352C14.9606 10.6819 13.7006 9.42188 12.1473 9.42188C10.594 9.42188 9.33398 10.6819 9.33398 12.2352C9.33398 13.7886 10.594 15.0486 12.1473 15.0486C12.714 15.0486 13.2473 14.8752 13.6873 14.5819L14.2473 15.1419C14.3606 15.2552 14.5006 15.3086 14.6473 15.3086C14.794 15.3086 14.9406 15.2552 15.0473 15.1419C15.274 14.9152 15.274 14.5552 15.054 14.3352Z" fill="white"/>
</svg>
