<svg width="16" height="16" viewBox="0 0 16 16" fill="none" xmlns="http://www.w3.org/2000/svg">
<path d="M11.733 3.53823L7.96634 1.51156C7.56634 1.29823 7.09302 1.29823 6.69302 1.51156L2.93299 3.53823C2.65966 3.69156 2.48633 3.98489 2.48633 4.30489C2.48633 4.63156 2.65299 4.92489 2.93299 5.07156L6.69968 7.09823C6.89968 7.20489 7.11968 7.25823 7.33302 7.25823C7.54634 7.25823 7.77302 7.20489 7.96634 7.09823L11.733 5.07156C12.0063 4.92489 12.1797 4.63156 12.1797 4.30489C12.1797 3.98489 12.0063 3.69156 11.733 3.53823Z" fill="white"/>
<path d="M6.08066 7.80573L2.58066 6.05908C2.30732 5.91908 2.00066 5.93908 1.74066 6.09242C1.48732 6.25242 1.33398 6.52575 1.33398 6.82573V10.1324C1.33398 10.7057 1.65398 11.2191 2.16732 11.4791L5.66732 13.2257C5.78732 13.2857 5.92066 13.3191 6.05398 13.3191C6.20732 13.3191 6.36732 13.2724 6.50732 13.1924C6.76066 13.0324 6.91398 12.7591 6.91398 12.4591V9.15242C6.90732 8.57906 6.58732 8.0657 6.08066 7.80573Z" fill="white"/>
<path d="M13.3331 6.82573V8.4657C13.0131 8.37242 12.6731 8.33242 12.3331 8.33242C11.4265 8.33242 10.5397 8.6457 9.83975 9.2057C8.87975 9.95906 8.33311 11.0991 8.33311 12.3324C8.33311 12.6591 8.37311 12.9857 8.45975 13.2991C8.35975 13.2857 8.25975 13.2457 8.16647 13.1857C7.9131 13.0324 7.75977 12.7591 7.75977 12.4591V9.15242C7.75977 8.57906 8.07975 8.0657 8.58647 7.80573L12.0865 6.05908C12.3598 5.91908 12.6665 5.93908 12.9265 6.09242C13.1798 6.25242 13.3331 6.52575 13.3331 6.82573Z" fill="white"/>
<path d="M14.6673 10.4692C14.6673 10.4626 14.6606 10.4559 14.654 10.4492C14.6273 10.4092 14.594 10.3692 14.5606 10.3359C14.554 10.3292 14.5473 10.3159 14.5406 10.3092C14.0006 9.70922 13.2073 9.33594 12.334 9.33594C11.494 9.33594 10.7273 9.68258 10.1806 10.2426C9.65398 10.7826 9.33398 11.5226 9.33398 12.3359C9.33398 12.8959 9.49398 13.4292 9.76734 13.8826C9.91398 14.1292 10.1006 14.3559 10.314 14.5426C10.3273 14.5492 10.334 14.5559 10.3406 14.5626C10.374 14.5959 10.4073 14.6226 10.4473 14.6559C10.4473 14.6559 10.4473 14.6559 10.454 14.6559C10.4606 14.6626 10.4673 14.6692 10.474 14.6692C10.974 15.0892 11.6206 15.3359 12.334 15.3359C13.4273 15.3359 14.3806 14.7492 14.9006 13.8826C15.054 13.6226 15.174 13.3359 15.2473 13.0359C15.3073 12.8092 15.334 12.5759 15.334 12.3359C15.334 11.6292 15.0873 10.9759 14.6673 10.4692ZM13.454 12.8226H12.834V13.4692C12.834 13.7426 12.6073 13.9692 12.334 13.9692C12.0606 13.9692 11.834 13.7426 11.834 13.4692V12.8226H11.214C10.9406 12.8226 10.714 12.5959 10.714 12.3226C10.714 12.0492 10.9406 11.8226 11.214 11.8226H11.834V11.2292C11.834 10.9559 12.0606 10.7292 12.334 10.7292C12.6073 10.7292 12.834 10.9559 12.834 11.2292V11.8226H13.454C13.7273 11.8226 13.954 12.0492 13.954 12.3226C13.954 12.5959 13.734 12.8226 13.454 12.8226Z" fill="white"/>
</svg>
