<svg width="16" height="16" viewBox="0 0 16 16" fill="none" xmlns="http://www.w3.org/2000/svg">
<path d="M11.733 3.53823L7.96634 1.51156C7.56634 1.29823 7.09302 1.29823 6.69302 1.51156L2.93299 3.53823C2.65966 3.69156 2.48633 3.98489 2.48633 4.30489C2.48633 4.63156 2.65299 4.92489 2.93299 5.07156L6.69968 7.09823C6.89968 7.20489 7.11968 7.25823 7.33302 7.25823C7.54634 7.25823 7.77302 7.20489 7.96634 7.09823L11.733 5.07156C12.0063 4.92489 12.1797 4.63156 12.1797 4.30489C12.1797 3.98489 12.0063 3.69156 11.733 3.53823Z" fill="white"/>
<path d="M6.08066 7.80573L2.58066 6.05908C2.30732 5.91908 2.00066 5.93908 1.74066 6.09242C1.48732 6.25242 1.33398 6.52575 1.33398 6.82573V10.1324C1.33398 10.7057 1.65398 11.2191 2.16732 11.4791L5.66732 13.2257C5.78732 13.2857 5.92066 13.3191 6.05398 13.3191C6.20732 13.3191 6.36732 13.2724 6.50732 13.1924C6.76066 13.0324 6.91398 12.7591 6.91398 12.4591V9.15242C6.90732 8.57906 6.58732 8.0657 6.08066 7.80573Z" fill="white"/>
<path d="M13.3331 6.82573V8.4657C13.0131 8.37242 12.6731 8.33242 12.3331 8.33242C11.4265 8.33242 10.5397 8.6457 9.83975 9.2057C8.87975 9.95906 8.33311 11.0991 8.33311 12.3324C8.33311 12.6591 8.37311 12.9857 8.45975 13.2991C8.35975 13.2857 8.25975 13.2457 8.16647 13.1857C7.9131 13.0324 7.75977 12.7591 7.75977 12.4591V9.15242C7.75977 8.57906 8.07975 8.0657 8.58647 7.80573L12.0865 6.05908C12.3598 5.91908 12.6665 5.93908 12.9265 6.09242C13.1798 6.25242 13.3331 6.52575 13.3331 6.82573Z" fill="white"/>
<path d="M14.654 10.4359C14.1073 9.76258 13.274 9.33594 12.334 9.33594C11.6273 9.33594 10.974 9.58258 10.4606 9.99594C9.76734 10.5426 9.33398 11.3892 9.33398 12.3359C9.33398 13.2759 9.76062 14.1092 10.434 14.6559C10.9473 15.0826 11.614 15.3359 12.334 15.3359C13.094 15.3359 13.7806 15.0492 14.314 14.5892C14.934 14.0359 15.334 13.2359 15.334 12.3359C15.334 11.6159 15.0806 10.9492 14.654 10.4359ZM13.0206 12.5226C13.0206 12.6959 12.9273 12.8626 12.7806 12.9492L11.8406 13.5092C11.7606 13.5559 11.674 13.5826 11.5806 13.5826C11.414 13.5826 11.2473 13.4959 11.154 13.3426C11.014 13.1026 11.0873 12.7959 11.3273 12.6559L12.0206 12.2426V11.4026C12.0206 11.1292 12.2473 10.9026 12.5206 10.9026C12.794 10.9026 13.0206 11.1292 13.0206 11.4026V12.5226Z" fill="white"/>
</svg>
