<svg width="16" height="16" viewBox="0 0 16 16" fill="none" xmlns="http://www.w3.org/2000/svg">
<path d="M13.4734 5.21428L8.34016 8.18764C8.13344 8.30764 7.87347 8.30764 7.66014 8.18764L2.52681 5.21428C2.16014 5.00094 2.06681 4.50094 2.34681 4.1876C2.54015 3.9676 2.76014 3.7876 2.99348 3.66094L6.60681 1.66094C7.38014 1.2276 8.63344 1.2276 9.4068 1.66094L13.0202 3.66094C13.2534 3.7876 13.4734 3.97428 13.6668 4.1876C13.9334 4.50094 13.8402 5.00094 13.4734 5.21428Z" fill="white"/>
<path d="M7.61968 9.42726V13.9739C7.61968 14.4806 7.10634 14.8139 6.65299 14.5939C5.27966 13.9206 2.96633 12.6606 2.96633 12.6606C2.15299 12.2006 1.48633 11.0406 1.48633 10.0873V6.64724C1.48633 6.12057 2.03966 5.78724 2.49299 6.04724L7.28634 8.82726C7.48634 8.9539 7.61968 9.18062 7.61968 9.42726Z" fill="white"/>
<path d="M8.38086 9.42726V13.9739C8.38086 14.4806 8.89422 14.8139 9.3475 14.5939C10.7209 13.9206 13.0342 12.6606 13.0342 12.6606C13.8475 12.2006 14.5142 11.0406 14.5142 10.0873V6.64724C14.5142 6.12057 13.9609 5.78724 13.5075 6.04724L8.71422 8.82726C8.51422 8.9539 8.38086 9.18062 8.38086 9.42726Z" fill="white"/>
</svg>
