<svg width="16" height="16" viewBox="0 0 16 16" fill="none" xmlns="http://www.w3.org/2000/svg">
<path fill-rule="evenodd" clip-rule="evenodd" d="M4.79961 3.00078C4.79961 1.78576 5.78459 0.800781 6.99961 0.800781H8.99961C10.2146 0.800781 11.1996 1.78576 11.1996 3.00078V3.35493C11.6572 3.39925 12.1122 3.45297 12.5642 3.51592C13.6417 3.66597 14.3996 4.59999 14.3996 5.65697V8.43166C14.3996 9.33302 13.8442 10.1849 12.936 10.4637C11.3744 10.943 9.71657 11.2008 7.99961 11.2008C6.28265 11.2008 4.6248 10.943 3.06322 10.4637C2.15499 10.1849 1.59961 9.33302 1.59961 8.43166V5.65697C1.59961 4.59999 2.35751 3.66597 3.43509 3.51592C3.88707 3.45297 4.34198 3.39925 4.79961 3.35493V3.00078ZM9.99961 3.00078V3.26077C9.33801 3.22097 8.67113 3.20078 7.99961 3.20078C7.3281 3.20078 6.66124 3.22097 5.99961 3.26077V3.00078C5.99961 2.44849 6.44732 2.00078 6.99961 2.00078H8.99961C9.55193 2.00078 9.99961 2.44849 9.99961 3.00078ZM7.99961 8.00078C7.55779 8.00078 7.19961 8.35894 7.19961 8.80078V8.80878C7.19961 9.25062 7.55779 9.60878 7.99961 9.60878H8.00761C8.44945 9.60878 8.80761 9.25062 8.80761 8.80878V8.80078C8.80761 8.35894 8.44945 8.00078 8.00761 8.00078H7.99961Z" fill="#0F172A"/>
<path d="M2.40039 12.0431V11.4961C2.50087 11.5384 2.60473 11.5762 2.71185 11.6091C4.38626 12.1231 6.16275 12.399 8.00039 12.399C9.83799 12.399 11.6146 12.1231 13.289 11.6091C13.3961 11.5762 13.4999 11.5384 13.6004 11.4961V12.0431C13.6004 13.1209 12.8127 14.0673 11.7099 14.1915C10.4922 14.3285 9.25439 14.3989 8.00039 14.3989C6.74641 14.3989 5.50865 14.3285 4.29088 14.1915C3.18808 14.0673 2.40039 13.1209 2.40039 12.0431Z" fill="#0F172A"/>
</svg>
