<svg width="16" height="16" viewBox="0 0 16 16" fill="none" xmlns="http://www.w3.org/2000/svg">
<path d="M7.4192 10.5859C7.25253 10.5859 7.08586 10.4992 6.99252 10.3459C6.85252 10.1126 6.92586 9.79922 7.16586 9.65922L7.7592 9.30594V8.58594C7.7592 8.31258 7.98586 8.08594 8.25922 8.08594C8.5325 8.08594 8.75922 8.31258 8.75922 8.58594V9.58594C8.75922 9.75922 8.66586 9.92594 8.51922 10.0126L7.68586 10.5126C7.59253 10.5592 7.50586 10.5859 7.4192 10.5859Z" fill="white"/>
<path d="M14.0606 4.65302C13.494 4.02635 12.554 3.71302 11.174 3.71302H11.014V3.68635C11.014 2.56635 11.014 1.17969 8.50734 1.17969H7.49398C4.98734 1.17969 4.98734 2.56635 4.98734 3.68635V3.71302H4.82734C3.44734 3.71302 2.50068 4.02635 1.94068 4.65302C1.28068 5.39302 1.30068 6.37301 1.36734 7.04633L1.37401 7.093L1.42006 7.63033C1.42886 7.73293 1.48456 7.8258 1.57104 7.8818C1.76017 8.0042 1.96137 8.13268 2.15401 8.23964C2.24734 8.29964 2.34734 8.353 2.44734 8.40636C3.20068 8.81964 4.00734 9.14636 4.83401 9.373C4.85401 11.0996 6.26734 12.4996 8.00065 12.4996C9.74734 12.4996 11.1673 11.0796 11.1673 9.333V9.30636C12.0073 9.053 12.814 8.69964 13.5673 8.25964C13.6073 8.23964 13.634 8.21964 13.6673 8.19964C13.9306 8.0566 14.2037 7.86933 14.4528 7.69266C14.5301 7.63786 14.58 7.55253 14.5905 7.4584L14.6006 7.36633L14.634 7.053C14.6406 7.013 14.6406 6.97966 14.6473 6.933C14.7006 6.26635 14.6873 5.34635 14.0606 4.65302ZM5.94068 3.68635C5.94068 2.55302 5.94068 2.12635 7.49398 2.12635H8.50734C10.0606 2.12635 10.0606 2.55302 10.0606 3.68635V3.71302H5.94068V3.68635ZM8.00065 11.4996C6.90065 11.4996 5.98734 10.673 5.85401 9.60636C5.84068 9.51964 5.83401 9.42636 5.83401 9.333C5.83401 8.13964 6.80732 7.16633 8.00065 7.16633C9.19398 7.16633 10.1673 8.13964 10.1673 9.333C10.1673 9.413 10.1606 9.48636 10.154 9.55964V9.56636C10.034 10.653 9.11398 11.4996 8.00065 11.4996Z" fill="white"/>
<path d="M14.0258 9.15089C14.1915 9.05889 14.4067 9.19233 14.3895 9.38121L14.1524 11.9709C14.0124 13.3043 13.4658 14.6643 10.5324 14.6643H5.45244C2.5191 14.6643 1.97244 13.3043 1.8391 11.9776L1.60852 9.50873C1.59062 9.31705 1.79563 9.18753 1.96576 9.27761C2.48576 9.56425 3.02576 9.81761 3.5791 10.0176C3.78576 10.0909 3.93244 10.2643 3.99244 10.4776C4.49244 12.2109 6.10576 13.4976 7.99909 13.4976C9.92577 13.4976 11.5524 12.1843 12.0258 10.3843C12.0791 10.1709 12.2258 9.99761 12.4324 9.91761C12.9924 9.69761 13.5258 9.43761 14.0258 9.15089Z" fill="white"/>
</svg>
