<svg width="16" height="16" viewBox="0 0 16 16" fill="none" xmlns="http://www.w3.org/2000/svg">
<path d="M14.0606 4.65302C13.494 4.02635 12.554 3.71302 11.174 3.71302H11.014V3.68635C11.014 2.56635 11.014 1.17969 8.50734 1.17969H7.49398C4.98734 1.17969 4.98734 2.56635 4.98734 3.68635V3.71302H4.82734C3.44734 3.71302 2.50068 4.02635 1.94068 4.65302C1.28068 5.39302 1.30068 6.37301 1.36734 7.04633L1.37401 7.093L1.42006 7.63033C1.42886 7.73293 1.48456 7.8258 1.57104 7.8818C1.76017 8.0042 1.96137 8.13268 2.15401 8.23964C2.24734 8.29964 2.34734 8.353 2.44734 8.40636C3.20068 8.81964 4.00734 9.14636 4.83401 9.373C4.85401 11.0996 6.26734 12.4996 8.00065 12.4996C9.74734 12.4996 11.1673 11.0796 11.1673 9.333V9.30636C12.0073 9.053 12.814 8.69964 13.5673 8.25964C13.6073 8.23964 13.634 8.21964 13.6673 8.19964C13.9305 8.05676 14.2033 7.86953 14.4524 7.693C14.5298 7.638 14.5798 7.55233 14.5901 7.45786L14.634 7.053C14.6406 7.013 14.6406 6.97966 14.6473 6.933C14.7006 6.26635 14.6873 5.34635 14.0606 4.65302ZM5.94068 3.68635C5.94068 2.55302 5.94068 2.12635 7.49398 2.12635H8.50734C10.0606 2.12635 10.0606 2.55302 10.0606 3.68635V3.71302H5.94068V3.68635ZM8.00065 11.4996C6.90065 11.4996 5.98734 10.673 5.85401 9.60636C5.84068 9.51964 5.83401 9.42636 5.83401 9.333C5.83401 8.13964 6.80732 7.16633 8.00065 7.16633C9.19398 7.16633 10.1673 8.13964 10.1673 9.333C10.1673 9.413 10.1606 9.48636 10.154 9.55964V9.56636C10.034 10.653 9.11398 11.4996 8.00065 11.4996Z" fill="white"/>
<path d="M7.61928 10.6882C7.49262 10.6882 7.36596 10.6416 7.26596 10.5416L6.60594 9.88819C6.4126 9.69483 6.4126 9.37483 6.60594 9.18155C6.79928 8.98819 7.11928 8.98819 7.31262 9.18155L7.63262 9.50155L8.70594 8.51483C8.90594 8.32819 9.22594 8.34155 9.41258 8.54155C9.5993 8.74155 9.58594 9.06155 9.38594 9.24819L7.96596 10.5616C7.85928 10.6416 7.73928 10.6882 7.61928 10.6882Z" fill="white"/>
<path d="M14.0278 9.15488C14.1935 9.06272 14.4086 9.19624 14.3914 9.38512L14.1544 11.9749C14.0144 13.3082 13.4678 14.6682 10.5344 14.6682H5.45438C2.52105 14.6682 1.97438 13.3082 1.84105 11.9815L1.61047 9.51264C1.59257 9.32096 1.79757 9.19144 1.96772 9.28152C2.48772 9.56824 3.02772 9.82152 3.58105 10.0215C3.78772 10.0949 3.93438 10.2682 3.99438 10.4815C4.49438 12.2149 6.10772 13.5015 8.00104 13.5015C9.92776 13.5015 11.5544 12.1882 12.0278 10.3882C12.081 10.1749 12.2278 10.0015 12.4344 9.92152C12.9944 9.70152 13.5278 9.44152 14.0278 9.15488Z" fill="white"/>
</svg>
