<svg width="16" height="16" viewBox="0 0 16 16" fill="none" xmlns="http://www.w3.org/2000/svg">
<path d="M9.06742 9.67549L8.71406 9.32221L9.04742 8.98885C9.2407 8.79549 9.2407 8.47549 9.04742 8.28221C8.85406 8.08885 8.53406 8.08885 8.3407 8.28221L8.00742 8.61549L7.65406 8.26221C7.46073 8.06885 7.14074 8.06885 6.9474 8.26221C6.75406 8.45549 6.75406 8.77549 6.9474 8.96885L7.30074 9.32221L6.93406 9.68885C6.74073 9.88221 6.74073 10.2022 6.93406 10.3955C7.03406 10.4955 7.16074 10.5422 7.2874 10.5422C7.41406 10.5422 7.54074 10.4955 7.64074 10.3955L8.00742 10.0288L8.3607 10.3822C8.4607 10.4822 8.58742 10.5288 8.71406 10.5288C8.8407 10.5288 8.96742 10.4822 9.06742 10.3822C9.2607 10.1888 9.2607 9.87549 9.06742 9.67549Z" fill="white"/>
<path d="M14.0606 4.65302C13.494 4.02635 12.554 3.71302 11.174 3.71302H11.014V3.68635C11.014 2.56635 11.014 1.17969 8.50734 1.17969H7.49398C4.98734 1.17969 4.98734 2.56635 4.98734 3.68635V3.71302H4.82734C3.44734 3.71302 2.50068 4.02635 1.94068 4.65302C1.28068 5.39302 1.30068 6.37301 1.36734 7.04633L1.37401 7.093L1.42006 7.63033C1.42886 7.73293 1.48456 7.8258 1.57104 7.8818C1.76017 8.0042 1.96137 8.13268 2.15401 8.23964C2.24734 8.29964 2.34734 8.353 2.44734 8.40636C3.20068 8.81964 4.00734 9.14636 4.83401 9.373C4.85401 11.0996 6.26734 12.4996 8.00065 12.4996C9.74734 12.4996 11.1673 11.0796 11.1673 9.333V9.30636C12.0073 9.053 12.814 8.69964 13.5673 8.25964C13.6073 8.23964 13.634 8.21964 13.6673 8.19964C13.9306 8.0566 14.2037 7.86933 14.4528 7.69266C14.5301 7.63786 14.58 7.55253 14.5905 7.4584L14.6006 7.36633L14.634 7.053C14.6406 7.013 14.6406 6.97966 14.6473 6.933C14.7006 6.26635 14.6873 5.34635 14.0606 4.65302ZM5.94068 3.68635C5.94068 2.55302 5.94068 2.12635 7.49398 2.12635H8.50734C10.0606 2.12635 10.0606 2.55302 10.0606 3.68635V3.71302H5.94068V3.68635ZM8.00065 11.4996C6.90065 11.4996 5.98734 10.673 5.85401 9.60636C5.84068 9.51964 5.83401 9.42636 5.83401 9.333C5.83401 8.13964 6.80732 7.16633 8.00065 7.16633C9.19398 7.16633 10.1673 8.13964 10.1673 9.333C10.1673 9.413 10.1606 9.48636 10.154 9.55964V9.56636C10.034 10.653 9.11398 11.4996 8.00065 11.4996Z" fill="white"/>
<path d="M14.0278 9.15488C14.1935 9.06272 14.4086 9.19624 14.3914 9.38512L14.1544 11.9749C14.0144 13.3082 13.4678 14.6682 10.5344 14.6682H5.45438C2.52105 14.6682 1.97438 13.3082 1.84105 11.9815L1.61047 9.51264C1.59257 9.32096 1.79757 9.19144 1.96772 9.28152C2.48772 9.56824 3.02772 9.82152 3.58105 10.0215C3.78772 10.0949 3.93438 10.2682 3.99438 10.4815C4.49438 12.2149 6.10772 13.5015 8.00104 13.5015C9.92776 13.5015 11.5544 12.1882 12.0278 10.3882C12.081 10.1749 12.2278 10.0015 12.4344 9.92152C12.9944 9.70152 13.5278 9.44152 14.0278 9.15488Z" fill="white"/>
</svg>
