<svg width="16" height="16" viewBox="0 0 16 16" fill="none" xmlns="http://www.w3.org/2000/svg">
<path d="M5.88003 3.26734L5.0267 1.85401C4.7067 1.33401 4.07337 1.04067 3.48003 1.21401C2.5867 1.48067 2.24003 2.48734 2.6867 3.22734L3.5667 4.67401C3.6667 4.82734 3.87337 4.88067 4.0267 4.78734L5.7667 3.72734C5.9267 3.62734 5.98003 3.42067 5.88003 3.26734Z" fill="white"/>
<path d="M13.161 9.4732L11.2876 6.93986C10.6342 6.0599 9.50095 5.64656 8.43423 5.93322C8.43423 5.92656 8.42759 5.92656 8.42759 5.9199L7.32092 4.0999C7.12092 3.78656 6.70758 3.68656 6.39423 3.8799L4.08089 5.28656C3.76089 5.47322 3.66089 5.89322 3.85423 6.21322L4.95423 8.0332C4.95423 8.0332 4.95423 8.03984 4.9609 8.03984C4.2209 8.85984 4.06089 10.0532 4.55423 11.0466L5.9409 13.8732C6.36756 14.7466 7.37425 15.0798 8.22759 14.6398C8.29423 14.6066 8.31423 14.5266 8.27423 14.4598L7.23425 12.7398C7.08758 12.4998 7.16092 12.1932 7.40092 12.0398C7.64092 11.8998 7.94758 11.9732 8.10095 12.2066L9.14759 13.9266C9.18759 13.9866 9.26759 14.0066 9.32759 13.9732L9.96759 13.5866C10.0276 13.5466 10.0476 13.4666 10.0142 13.4066L8.96759 11.6866C8.82759 11.4466 8.90095 11.1398 9.13423 10.9866C9.38095 10.8466 9.68759 10.9198 9.83423 11.1532L10.881 12.8732C10.921 12.9332 11.001 12.9532 11.061 12.9198L11.701 12.5332C11.761 12.4932 11.781 12.4132 11.7476 12.3532L10.701 10.6332C10.561 10.3932 10.6342 10.0866 10.8676 9.9332C11.1142 9.7932 11.421 9.86656 11.5676 10.0998L12.621 11.8132C12.661 11.8732 12.741 11.8932 12.801 11.8532C13.5742 11.2998 13.7476 10.2598 13.161 9.4732Z" fill="white"/>
</svg>
