<svg width="16" height="16" viewBox="0 0 16 16" fill="none" xmlns="http://www.w3.org/2000/svg">
<path d="M3.99934 1.33594H11.9994C12.7326 1.33594 13.3326 1.93594 13.3326 2.66927V4.8826C13.3326 5.24927 13.0326 5.54927 12.666 5.54927H3.33268C2.96602 5.54927 2.66602 5.24927 2.66602 4.8826V2.66927C2.66602 1.93594 3.26602 1.33594 3.99934 1.33594Z" fill="white"/>
<path d="M2.66602 6.8776V7.9176C2.66602 8.63756 3.05268 9.30428 3.68602 9.65764L5.65934 10.7709C6.07934 11.0043 6.33934 11.4509 6.33934 11.9309V13.3309C6.33934 14.0643 6.93934 14.6643 7.67268 14.6643H8.33937C9.07265 14.6643 9.67265 14.0643 9.67265 13.3309V11.9309C9.67265 11.4509 9.93265 11.0043 10.3526 10.7709L12.326 9.65764C12.9526 9.30428 13.346 8.63756 13.346 7.9176V6.8776C13.346 6.51095 13.046 6.21094 12.6794 6.21094H3.33268C2.96602 6.21094 2.66602 6.50427 2.66602 6.8776Z" fill="white"/>
</svg>
