<svg width="16" height="16" viewBox="0 0 16 16" fill="none" xmlns="http://www.w3.org/2000/svg">
<path d="M11.1009 3.19594H10.9142C10.8476 2.66927 10.6542 2.24927 10.3476 1.93594C9.94758 1.53594 9.36758 1.33594 8.62094 1.33594H4.90088C3.40088 1.33594 2.57422 2.1626 2.57422 3.6626C2.57422 4.40927 2.77422 4.98927 3.17422 5.38927C3.57422 5.78927 4.15422 5.98927 4.90088 5.98927H8.62094C9.95422 5.98927 10.7542 5.32927 10.9142 4.12927H11.1009C12.4942 4.12927 12.4942 4.31594 12.4942 5.5226V6.7626C12.4942 7.96927 12.4942 8.15596 11.1009 8.15596H8.62094C6.62755 8.15596 6.34088 9.1026 6.30088 10.0226C5.70088 10.0626 5.05422 10.3426 5.05422 11.4092V13.2692C5.05422 14.4226 5.81422 14.6626 6.44755 14.6626H7.06759C7.70092 14.6626 8.46094 14.4226 8.46094 13.2692V11.4092C8.46094 10.356 7.82759 10.0626 7.22759 10.0226C7.26092 9.34924 7.45425 9.0826 8.61422 9.0826H11.0942C13.2609 9.0826 13.4209 8.2026 13.4209 6.75594V5.5226C13.4276 4.07594 13.2676 3.19594 11.1009 3.19594Z" fill="white"/>
</svg>
