<svg width="16" height="16" viewBox="0 0 16 16" fill="none" xmlns="http://www.w3.org/2000/svg">
<path d="M6.33268 13.0026V12.0026H2.99934C2.63268 12.0026 2.29934 11.8559 2.05934 11.6092C1.81268 11.3692 1.66602 11.0359 1.66602 10.6692C1.66602 9.98258 2.19934 9.40922 2.87268 9.34258C2.91268 9.33594 2.95268 9.33594 2.99934 9.33594H12.9994C13.046 9.33594 13.086 9.33594 13.126 9.34258C13.446 9.36922 13.726 9.50922 13.9394 9.72922C14.2126 9.99594 14.3594 10.3759 14.326 10.7892C14.266 11.4892 13.6326 12.0026 12.926 12.0026H9.66601V13.0026C9.66601 13.9226 8.91937 14.6692 7.99934 14.6692C7.07934 14.6692 6.33268 13.9226 6.33268 13.0026Z" fill="white"/>
<path d="M11.4604 1.33594H8.83374C8.64702 1.33594 8.50038 1.4826 8.50038 1.66927V2.66927C8.50038 2.9426 8.27374 3.16927 8.00038 3.16927C7.94038 3.16927 7.88705 3.15594 7.83372 3.13594C7.64038 3.06927 7.50038 2.8826 7.50038 2.66927V1.66927C7.50038 1.4826 7.35372 1.33594 7.16705 1.33594H6.16038C5.97372 1.33594 5.82705 1.4826 5.82705 1.66927V4.66927C5.82705 4.9426 5.60038 5.16927 5.32705 5.16927C5.05372 5.16927 4.82705 4.9426 4.82705 4.66927V3.16927V1.66927C4.82705 1.48927 4.69372 1.34927 4.51372 1.33594H4.49372C3.33372 1.3626 2.43372 2.36927 2.55372 3.53594L2.80038 8.03596C2.82038 8.38924 3.11372 8.66924 3.46705 8.66924H12.5337C12.887 8.66924 13.1804 8.38924 13.2004 8.03596L13.447 3.53594C13.567 2.35594 12.6404 1.33594 11.4604 1.33594Z" fill="white"/>
</svg>
