<svg width="16" height="16" viewBox="0 0 16 16" fill="none" xmlns="http://www.w3.org/2000/svg">
<path d="M10.794 1.33594H5.20732C2.78066 1.33594 1.33398 2.7826 1.33398 5.20927V10.7892C1.33398 13.2226 2.78066 14.6692 5.20732 14.6692H10.7874C13.214 14.6692 14.6606 13.2226 14.6606 10.796V5.20927C14.6674 2.7826 13.2206 1.33594 10.794 1.33594ZM6.99398 11.1492C6.76732 11.376 6.46732 11.5292 6.10066 11.576L5.20066 11.676C4.70732 11.7292 4.28732 11.3092 4.34066 10.8092L4.44066 9.9026C4.52732 9.09596 5.20066 8.5826 5.91398 8.56924C5.98066 8.5626 6.06066 8.56924 6.13398 8.57596C6.44732 8.61596 6.74732 8.7626 7.00066 9.00924C7.24732 9.25596 7.38732 9.54924 7.42732 9.84924C7.43398 9.9226 7.44066 9.99596 7.44066 10.0626C7.44066 10.476 7.28732 10.856 6.99398 11.1492ZM11.6274 5.03594C11.1474 6.23594 10.0474 7.80927 9.00063 8.83596C8.84735 7.88927 8.09399 7.1426 7.13398 7.00927C8.16063 5.95594 9.74735 4.8426 10.954 4.35594C11.1674 4.27594 11.3806 4.33594 11.514 4.46927C11.6474 4.61594 11.714 4.8226 11.6274 5.03594Z" fill="white"/>
</svg>
