<svg width="16" height="16" viewBox="0 0 16 16" fill="none" xmlns="http://www.w3.org/2000/svg">
<path d="M14.5392 2.62803C13.6658 4.80803 11.6726 7.6547 9.77257 9.51468C9.49921 7.7947 8.12585 6.44803 6.39258 6.20803C8.25921 4.30136 11.1258 2.28136 13.3126 1.40136C13.6992 1.2547 14.0859 1.36803 14.3259 1.60803C14.5792 1.86136 14.6992 2.24136 14.5392 2.62803Z" fill="white"/>
<path d="M9.18673 10.058C9.05337 10.1713 8.92009 10.2847 8.78673 10.3913L7.5934 11.3447C7.5934 11.3247 7.58673 11.298 7.58673 11.2713C7.4934 10.558 7.16006 9.89804 6.62008 9.35804C6.07341 8.81132 5.39341 8.47804 4.64674 8.38468C4.62674 8.38468 4.60008 8.37804 4.58008 8.37804L5.54674 7.15802C5.64008 7.03802 5.74008 6.92469 5.84674 6.80469L6.30008 6.86469C7.7334 7.06469 8.88673 8.19132 9.11337 9.61804L9.18673 10.058Z" fill="white"/>
<path d="M6.95386 11.7472C6.95386 12.4806 6.67386 13.1806 6.1405 13.7072C5.73383 14.1206 5.18717 14.4006 4.5205 14.4806L2.88716 14.6606C1.99383 14.7606 1.22716 13.9939 1.32716 13.0939L1.50716 11.4539C1.66716 9.99385 2.88716 9.06057 4.1805 9.03385C4.30716 9.02721 4.44716 9.03385 4.5805 9.04721C5.14716 9.12057 5.69383 9.38057 6.15383 9.83385C6.6005 10.2806 6.85386 10.8072 6.92719 11.3606C6.94052 11.4939 6.95386 11.6206 6.95386 11.7472Z" fill="white"/>
</svg>
