<svg width="16" height="16" viewBox="0 0 16 16" fill="none" xmlns="http://www.w3.org/2000/svg">
<path d="M10.3933 1.16406C8.41329 1.16406 6.80664 2.77073 6.80664 4.75073C6.80664 6.73073 8.41329 8.3374 10.3933 8.3374C12.3733 8.3374 13.98 6.73073 13.98 4.75073C13.98 2.77073 12.3733 1.16406 10.3933 1.16406Z" fill="white"/>
<path d="M4.23953 8.6875C3.01953 8.6875 2.01953 9.68078 2.01953 10.9075C2.01953 12.1341 3.01287 13.1275 4.23953 13.1275C5.45953 13.1275 6.45953 12.1341 6.45953 10.9075C6.45953 9.68078 5.45953 8.6875 4.23953 8.6875Z" fill="white"/>
<path d="M11.0804 11.0781C10.047 11.0781 9.20703 11.9181 9.20703 12.9514C9.20703 13.9848 10.047 14.8248 11.0804 14.8248C12.1137 14.8248 12.9537 13.9848 12.9537 12.9514C12.9537 11.9181 12.1137 11.0781 11.0804 11.0781Z" fill="white"/>
</svg>
