<svg width="16" height="16" viewBox="0 0 16 16" fill="none" xmlns="http://www.w3.org/2000/svg">
<path d="M10.794 1.33594H5.20732C2.78066 1.33594 1.33398 2.7826 1.33398 5.20927V10.7892C1.33398 13.2226 2.78066 14.6692 5.20732 14.6692H10.7874C13.214 14.6692 14.6606 13.2226 14.6606 10.796V5.20927C14.6674 2.7826 13.2206 1.33594 10.794 1.33594ZM6.04066 10.836L4.33398 9.1226C4.04066 8.82924 3.90066 8.53596 3.90732 8.23596C3.91398 7.95594 4.06066 7.6826 4.33398 7.40927L6.73398 5.00927L6.36066 4.6426C6.23398 4.51594 6.23398 4.31594 6.36066 4.18927C6.48732 4.0626 6.68732 4.0626 6.81398 4.18927L7.18066 4.55594L10.314 7.68927C10.3806 7.75594 10.4274 7.85594 10.4274 7.94927C10.434 8.0626 10.4006 8.17596 10.314 8.2626L7.74732 10.8292C7.18732 11.4026 6.61398 11.4026 6.04066 10.836ZM11.094 11.9092C10.5406 11.9092 10.094 11.4626 10.094 10.9092C10.094 10.3492 10.754 9.60924 10.8874 9.4626C10.994 9.3426 11.2006 9.3426 11.314 9.4626C11.4474 9.6026 12.1074 10.3492 12.1074 10.9092C12.094 11.4626 11.6474 11.9092 11.094 11.9092Z" fill="white"/>
</svg>
