<svg width="16" height="16" viewBox="0 0 16 16" fill="none" xmlns="http://www.w3.org/2000/svg">
<path d="M11.3593 7.09372L6.45925 2.19375L5.87925 1.61375C5.68592 1.42042 5.36592 1.42042 5.17259 1.61375C4.97925 1.80708 4.97925 2.12708 5.17259 2.32042L5.75259 2.90042L1.99925 6.65375C1.57259 7.08038 1.34592 7.51371 1.33259 7.94705C1.31925 8.40704 1.54592 8.86704 1.99925 9.32704L4.67259 12.0004C5.56592 12.887 6.45925 12.887 7.34595 12.0004L11.3593 7.98705C11.4926 7.85372 11.5526 7.67372 11.5393 7.50038C11.5326 7.35372 11.4659 7.20038 11.3593 7.09372Z" fill="white"/>
<path d="M10.6666 15.1641H2C1.72666 15.1641 1.5 14.9374 1.5 14.6641C1.5 14.3908 1.72666 14.1641 2 14.1641H10.6666C10.94 14.1641 11.1666 14.3908 11.1666 14.6641C11.1666 14.9374 10.94 15.1641 10.6666 15.1641Z" fill="white"/>
<path d="M12.9 9.85092C12.7266 9.66428 12.4066 9.66428 12.2334 9.85092C12.0266 10.0776 11 11.2309 11 12.1109C11 12.9776 11.7 13.6776 12.5666 13.6776C13.4334 13.6776 14.1334 12.9776 14.1334 12.1109C14.1334 11.2376 13.1066 10.0776 12.9 9.85092Z" fill="white"/>
</svg>
