<svg width="16" height="16" viewBox="0 0 16 16" fill="none" xmlns="http://www.w3.org/2000/svg">
<path fill-rule="evenodd" clip-rule="evenodd" d="M5.2481 0.91182C5.51817 1.10383 5.58145 1.47842 5.38944 1.74849C5.23893 1.9602 5.11367 2.19077 5.01787 2.43589C5.1662 2.57267 5.32393 2.69935 5.48994 2.81486C6.07558 2.07556 6.98173 1.60024 7.99961 1.60024C9.01745 1.60024 9.92361 2.07556 10.5093 2.81485C10.6753 2.69935 10.833 2.57266 10.9814 2.43588C10.8855 2.19077 10.7603 1.9602 10.6098 1.74849C10.4178 1.47842 10.481 1.10383 10.7511 0.91182C11.0212 0.719811 11.3958 0.783092 11.5878 1.05316C11.8827 1.46801 12.1078 1.93668 12.2454 2.4418C12.2998 2.64171 12.2472 2.85555 12.1063 3.00745C11.7975 3.34047 11.4485 3.63592 11.067 3.88614C11.1533 4.17616 11.1996 4.48312 11.1996 4.80024C11.1996 5.21636 10.9586 5.57077 10.6212 5.74982C10.327 5.90593 10.0173 6.03657 9.69505 6.13884C9.79929 6.305 9.87977 6.48759 9.93177 6.68183C11.0622 6.54225 12.1548 6.28179 13.1965 5.91384C13.1986 5.80956 13.1996 5.70503 13.1996 5.60024C13.1996 5.07992 13.1742 4.56571 13.1245 4.05879C13.0921 3.729 13.3333 3.43544 13.663 3.40311C13.9928 3.37077 14.2864 3.61191 14.3187 3.9417C14.3722 4.48748 14.3996 5.04076 14.3996 5.60024C14.3996 5.85624 14.3939 6.11093 14.3826 6.36421C14.3719 6.60289 14.2206 6.81249 13.9974 6.8978C12.6932 7.3964 11.3112 7.73712 9.87489 7.8967C9.84969 7.96443 9.82097 8.0304 9.78897 8.09448C10.2506 8.14336 10.7068 8.21096 11.1567 8.29656C12.1341 8.4824 13.0816 8.75296 13.9912 9.10032C14.2343 9.19312 14.3899 9.43224 14.3763 9.69216C14.3022 11.107 14.053 12.4761 13.6498 13.7778C13.5518 14.0943 13.2157 14.2714 12.8991 14.1734C12.5826 14.0753 12.4055 13.7392 12.5035 13.4227C12.8358 12.3503 13.0554 11.2282 13.1487 10.0698C12.7524 9.93136 12.3489 9.8084 11.9387 9.70168C11.9787 9.92872 11.9996 10.1622 11.9996 10.4002C11.9996 11.8512 11.5862 13.0498 10.8586 13.8957C10.127 14.7463 9.10953 15.2002 7.99961 15.2002C6.88973 15.2002 5.87229 14.7463 5.14058 13.8957C4.41299 13.0498 3.99961 11.8512 3.99961 10.4002C3.99961 10.1622 4.02047 9.92872 4.0605 9.70168C3.65035 9.8084 3.24678 9.93136 2.8505 10.0698C2.94375 11.2282 3.16344 12.3503 3.49566 13.4227C3.59372 13.7392 3.41661 14.0753 3.10008 14.1734C2.78355 14.2714 2.44747 14.0943 2.3494 13.7778C1.94615 12.4761 1.69695 11.107 1.6229 9.69216C1.60929 9.43224 1.76486 9.19312 2.00804 9.10032C2.91761 8.75296 3.8651 8.4824 4.8425 8.29656C5.29242 8.21096 5.74861 8.14336 6.21029 8.09448C6.17823 8.0304 6.14951 7.96444 6.12435 7.89671C4.68804 7.73712 3.30599 7.3964 2.00183 6.89781C1.77865 6.81249 1.62737 6.6029 1.61668 6.36421C1.60534 6.11094 1.59961 5.85624 1.59961 5.60024C1.59961 5.04076 1.62698 4.48748 1.68049 3.9417C1.71282 3.61191 2.00638 3.37077 2.33617 3.40311C2.66595 3.43544 2.9071 3.729 2.87476 4.05879C2.82507 4.56571 2.79961 5.07992 2.79961 5.60024C2.79961 5.70503 2.80064 5.80956 2.8027 5.91384C3.84444 6.2818 4.93708 6.54225 6.06745 6.68183C6.11944 6.48759 6.19994 6.305 6.30419 6.13884C5.98192 6.03657 5.67219 5.90593 5.37799 5.74982C5.04058 5.57076 4.79961 5.21636 4.79961 4.80024C4.79961 4.48312 4.84591 4.17616 4.93224 3.88613C4.55069 3.63592 4.20171 3.34047 3.89286 3.00745C3.75197 2.85555 3.69943 2.64171 3.75386 2.4418C3.8914 1.93668 4.11648 1.46802 4.41143 1.05316C4.60343 0.783092 4.97803 0.719811 5.2481 0.91182Z" fill="#0F172A"/>
</svg>
