<svg width="16" height="16" viewBox="0 0 16 16" fill="none" xmlns="http://www.w3.org/2000/svg">
<path d="M2.30255 5.69841C3.23981 6.63567 4.75941 6.63567 5.69666 5.69841C5.81184 5.58323 5.91286 5.45927 5.99973 5.32867C6.42971 5.97525 7.1649 6.40138 7.99961 6.40138C8.83441 6.40138 9.56969 5.97514 9.99969 5.32841C10.0866 5.45911 10.1877 5.58318 10.3029 5.69843C11.2402 6.6357 12.7598 6.6357 13.697 5.69843C14.6342 4.76118 14.6342 3.24159 13.697 2.30432L13.4629 2.07019C13.1628 1.77013 12.7558 1.60156 12.3315 1.60156H3.66802C3.24368 1.60156 2.83671 1.77013 2.53666 2.07019L2.30255 2.3043C1.3653 3.24155 1.3653 4.76115 2.30255 5.69841Z" fill="#0F172A"/>
<path d="M2.39961 7.22444C3.542 7.7912 4.92275 7.71382 6.00007 6.9923C6.5716 7.37472 7.25938 7.59848 7.99961 7.59848C8.73993 7.59848 9.42777 7.37468 9.99929 6.99219C11.0766 7.71376 12.4572 7.79124 13.5996 7.22465V13.1987H13.7996C14.131 13.1987 14.3996 13.4673 14.3996 13.7987C14.3996 14.13 14.131 14.3987 13.7996 14.3987H10.1996C9.86825 14.3987 9.59961 14.13 9.59961 13.7987V10.9987C9.59961 10.6673 9.33097 10.3987 8.99961 10.3987H6.99961C6.66824 10.3987 6.39961 10.6673 6.39961 10.9987V13.7987C6.39961 14.13 6.13098 14.3987 5.79961 14.3987H2.19961C1.86824 14.3987 1.59961 14.13 1.59961 13.7987C1.59961 13.4673 1.86824 13.1987 2.19961 13.1987H2.39961V7.22444Z" fill="#0F172A"/>
</svg>
