<svg width="16" height="16" viewBox="0 0 16 16" fill="none" xmlns="http://www.w3.org/2000/svg">
<path fill-rule="evenodd" clip-rule="evenodd" d="M7.7389 1.66123C7.9037 1.58167 8.09577 1.58167 8.26057 1.66123L14.0606 4.46123C14.359 4.6053 14.4842 4.96399 14.3401 5.26241C14.2057 5.54078 13.8845 5.66837 13.5998 5.5673V13.2016H13.7998C14.1311 13.2016 14.3998 13.4702 14.3998 13.8016C14.3998 14.1329 14.1311 14.4016 13.7998 14.4016H2.19974C1.86838 14.4016 1.59974 14.1329 1.59974 13.8016C1.59974 13.4702 1.86838 13.2016 2.19974 13.2016H2.39974V5.5673C2.11497 5.66837 1.7938 5.54078 1.65942 5.26241C1.51535 4.96399 1.64048 4.6053 1.9389 4.46123L7.7389 1.66123ZM8.79961 4.80156C8.79961 5.24338 8.44145 5.60156 7.99961 5.60156C7.55778 5.60156 7.19961 5.24338 7.19961 4.80156C7.19961 4.35974 7.55778 4.00156 7.99961 4.00156C8.44145 4.00156 8.79961 4.35974 8.79961 4.80156ZM5.99961 7.80156C5.99961 7.47019 5.73098 7.20156 5.39961 7.20156C5.06824 7.20156 4.79961 7.47019 4.79961 7.80156V12.2016C4.79961 12.5329 5.06824 12.8016 5.39961 12.8016C5.73098 12.8016 5.99961 12.5329 5.99961 12.2016V7.80156ZM8.59961 7.80156C8.59961 7.47019 8.33097 7.20156 7.99961 7.20156C7.66824 7.20156 7.39961 7.47019 7.39961 7.80156V12.2016C7.39961 12.5329 7.66824 12.8016 7.99961 12.8016C8.33097 12.8016 8.59961 12.5329 8.59961 12.2016V7.80156ZM11.1996 7.80156C11.1996 7.47019 10.931 7.20156 10.5996 7.20156C10.2682 7.20156 9.99961 7.47019 9.99961 7.80156V12.2016C9.99961 12.5329 10.2682 12.8016 10.5996 12.8016C10.931 12.8016 11.1996 12.5329 11.1996 12.2016V7.80156Z" fill="#0F172A"/>
</svg>
