<svg width="16" height="16" viewBox="0 0 16 16" fill="none" xmlns="http://www.w3.org/2000/svg">
<path fill-rule="evenodd" clip-rule="evenodd" d="M0.800781 2.20156C0.800781 1.87019 1.06941 1.60156 1.40078 1.60156H9.80078C10.1321 1.60156 10.4008 1.87019 10.4008 2.20156C10.4008 2.53293 10.1321 2.80156 9.80078 2.80156H9.60078V13.8016C9.60078 14.1329 9.33214 14.4016 9.00078 14.4016H7.80078C7.46941 14.4016 7.20078 14.1329 7.20078 13.8016V11.8016C7.20078 11.4702 6.93215 11.2016 6.60078 11.2016H4.60078C4.26941 11.2016 4.00078 11.4702 4.00078 11.8016V13.8016C4.00078 14.1329 3.73215 14.4016 3.40078 14.4016H1.40078C1.06941 14.4016 0.800781 14.1329 0.800781 13.8016C0.800781 13.4702 1.06941 13.2016 1.40078 13.2016H1.60078V2.80156H1.40078C1.06941 2.80156 0.800781 2.53293 0.800781 2.20156ZM3.20078 4.40156C3.20078 4.18065 3.37987 4.00156 3.60078 4.00156H4.40078C4.62169 4.00156 4.80078 4.18065 4.80078 4.40156V5.20156C4.80078 5.42247 4.62169 5.60156 4.40078 5.60156H3.60078C3.37987 5.60156 3.20078 5.42247 3.20078 5.20156V4.40156ZM3.60078 7.20156C3.37987 7.20156 3.20078 7.38065 3.20078 7.60156V8.40156C3.20078 8.62244 3.37987 8.80156 3.60078 8.80156H4.40078C4.62169 8.80156 4.80078 8.62244 4.80078 8.40156V7.60156C4.80078 7.38065 4.62169 7.20156 4.40078 7.20156H3.60078ZM6.40078 4.40156C6.40078 4.18065 6.57987 4.00156 6.80078 4.00156H7.60078C7.82169 4.00156 8.00078 4.18065 8.00078 4.40156V5.20156C8.00078 5.42247 7.82169 5.60156 7.60078 5.60156H6.80078C6.57987 5.60156 6.40078 5.42247 6.40078 5.20156V4.40156ZM6.80078 7.20156C6.57987 7.20156 6.40078 7.38065 6.40078 7.60156V8.40156C6.40078 8.62244 6.57987 8.80156 6.80078 8.80156H7.60078C7.82169 8.80156 8.00078 8.62244 8.00078 8.40156V7.60156C8.00078 7.38065 7.82169 7.20156 7.60078 7.20156H6.80078Z" fill="#0F172A"/>
<path fill-rule="evenodd" clip-rule="evenodd" d="M11.4008 4.80078C11.0694 4.80078 10.8008 5.06941 10.8008 5.40078V13.6008C10.8008 14.0426 11.1589 14.4008 11.6008 14.4008H14.6008C14.9321 14.4008 15.2008 14.1321 15.2008 13.8008C15.2008 13.4694 14.9321 13.2008 14.6008 13.2008H14.4008V6.00078H14.6008C14.9321 6.00078 15.2008 5.73215 15.2008 5.40078C15.2008 5.06941 14.9321 4.80078 14.6008 4.80078H11.4008ZM11.8008 7.60078C11.8008 7.37987 11.9799 7.20078 12.2008 7.20078H13.0008C13.2217 7.20078 13.4008 7.37987 13.4008 7.60078V8.40078C13.4008 8.62166 13.2217 8.80078 13.0008 8.80078H12.2008C11.9799 8.80078 11.8008 8.62166 11.8008 8.40078V7.60078ZM12.2008 10.4008C11.9799 10.4008 11.8008 10.5799 11.8008 10.8008V11.6008C11.8008 11.8217 11.9799 12.0008 12.2008 12.0008H13.0008C13.2217 12.0008 13.4008 11.8217 13.4008 11.6008V10.8008C13.4008 10.5799 13.2217 10.4008 13.0008 10.4008H12.2008Z" fill="#0F172A"/>
</svg>
