<svg width="16" height="16" viewBox="0 0 16 16" fill="none" xmlns="http://www.w3.org/2000/svg">
<path d="M3.33398 5.33594C2.22732 5.33594 1.33398 6.22927 1.33398 7.33594V12.6692C1.33398 13.776 2.22732 14.6692 3.33398 14.6692H4.33398C5.06732 14.6692 5.66732 14.0692 5.66732 13.336V6.66927C5.66732 5.93594 5.06732 5.33594 4.33398 5.33594H3.33398ZM4.00066 11.336C4.00066 11.6092 3.77398 11.836 3.50066 11.836C3.22732 11.836 3.00066 11.6092 3.00066 11.336V8.66924C3.00066 8.39596 3.22732 8.16924 3.50066 8.16924C3.77398 8.16924 4.00066 8.39596 4.00066 8.66924V11.336Z" fill="white"/>
<path d="M12.666 1.33594H8.66601C7.55934 1.33594 6.66602 2.22927 6.66602 3.33594V12.6692C6.66602 13.776 7.55934 14.6692 8.66601 14.6692H8.99937C9.18601 14.6692 9.33265 14.5226 9.33265 14.336V12.0026C9.33265 11.636 9.63265 11.336 9.99937 11.336H11.3326C11.6994 11.336 11.9994 11.636 11.9994 12.0026V14.336C11.9994 14.5226 12.146 14.6692 12.3326 14.6692H12.666C13.7726 14.6692 14.666 13.776 14.666 12.6692V3.33594C14.666 2.22927 13.7726 1.33594 12.666 1.33594ZM9.83265 8.66924C9.83265 8.9426 9.60601 9.16924 9.33265 9.16924C9.05937 9.16924 8.83265 8.9426 8.83265 8.66924V5.33594C8.83265 5.0626 9.05937 4.83594 9.33265 4.83594C9.60601 4.83594 9.83265 5.0626 9.83265 5.33594V8.66924ZM12.4994 8.66924C12.4994 8.9426 12.2726 9.16924 11.9994 9.16924C11.726 9.16924 11.4994 8.9426 11.4994 8.66924V5.33594C11.4994 5.0626 11.726 4.83594 11.9994 4.83594C12.2726 4.83594 12.4994 5.0626 12.4994 5.33594V8.66924Z" fill="white"/>
</svg>
