<svg width="16" height="16" viewBox="0 0 16 16" fill="none" xmlns="http://www.w3.org/2000/svg">
<path d="M10 4.71323C10 4.26656 9.78 3.85323 9.40664 3.60656L6.74 1.82656C6.29334 1.52656 5.70666 1.52656 5.26 1.82656L2.59334 3.60656C2.22666 3.85323 2 4.26656 2 4.71323V8.49988C2 8.68652 2.14666 8.83316 2.33334 8.83316H9.66664C9.85336 8.83316 10 8.68652 10 8.49988V4.71323ZM6 7.16654C5.36 7.16654 4.83334 6.6399 4.83334 5.9999C4.83334 5.3599 5.36 4.83323 6 4.83323C6.64 4.83323 7.16666 5.3599 7.16666 5.9999C7.16666 6.6399 6.64 7.16654 6 7.16654Z" fill="white"/>
<path d="M14.6674 14.1661H13.8206V12.1661C14.454 11.9595 14.914 11.3661 14.914 10.6661V9.33274C14.914 8.45946 14.2006 7.74609 13.3274 7.74609C12.454 7.74609 11.7406 8.45946 11.7406 9.33274V10.6661C11.7406 11.3595 12.194 11.9461 12.814 12.1595V14.1661H10.0006V10.1661C10.0006 9.97946 9.85399 9.83274 9.66735 9.83274H2.33398C2.14732 9.83274 2.00066 9.97946 2.00066 10.1661V14.1661H1.33398C1.06066 14.1661 0.833984 14.3927 0.833984 14.6661C0.833984 14.9395 1.06066 15.1661 1.33398 15.1661H13.2874C13.3006 15.1661 13.3074 15.1727 13.3206 15.1727C13.334 15.1727 13.3406 15.1661 13.354 15.1661H14.6674C14.9406 15.1661 15.1674 14.9395 15.1674 14.6661C15.1674 14.3927 14.9406 14.1661 14.6674 14.1661ZM5.50066 12.1661C5.50066 11.8927 5.72732 11.6661 6.00066 11.6661C6.27398 11.6661 6.50066 11.8927 6.50066 12.1661V14.1661H5.50066V12.1661Z" fill="white"/>
</svg>
