<svg width="16" height="16" viewBox="0 0 16 16" fill="none" xmlns="http://www.w3.org/2000/svg">
<path fill-rule="evenodd" clip-rule="evenodd" d="M3.20039 13.2016V2.80156H3.00039C2.66902 2.80156 2.40039 2.53293 2.40039 2.20156C2.40039 1.87019 2.66902 1.60156 3.00039 1.60156H13.0004C13.3318 1.60156 13.6004 1.87019 13.6004 2.20156C13.6004 2.53293 13.3318 2.80156 13.0004 2.80156H12.8004V13.2016H13.0004C13.3318 13.2016 13.6004 13.4702 13.6004 13.8016C13.6004 14.1329 13.3318 14.4016 13.0004 14.4016H10.2004C9.86903 14.4016 9.60039 14.1329 9.60039 13.8016V11.8016C9.60039 11.4702 9.33175 11.2016 9.00039 11.2016H7.00039C6.66902 11.2016 6.40039 11.4702 6.40039 11.8016V13.8016C6.40039 14.1329 6.13176 14.4016 5.80039 14.4016H3.00039C2.66902 14.4016 2.40039 14.1329 2.40039 13.8016C2.40039 13.4702 2.66902 13.2016 3.00039 13.2016H3.20039ZM5.60039 4.40156C5.60039 4.18065 5.77948 4.00156 6.00039 4.00156H6.80039C7.0213 4.00156 7.20039 4.18065 7.20039 4.40156V5.20156C7.20039 5.42247 7.0213 5.60156 6.80039 5.60156H6.00039C5.77948 5.60156 5.60039 5.42247 5.60039 5.20156V4.40156ZM6.00039 7.20156C5.77948 7.20156 5.60039 7.38065 5.60039 7.60156V8.40156C5.60039 8.62244 5.77948 8.80156 6.00039 8.80156H6.80039C7.0213 8.80156 7.20039 8.62244 7.20039 8.40156V7.60156C7.20039 7.38065 7.0213 7.20156 6.80039 7.20156H6.00039ZM8.80039 4.40156C8.80039 4.18065 8.97951 4.00156 9.20039 4.00156H10.0004C10.2213 4.00156 10.4004 4.18065 10.4004 4.40156V5.20156C10.4004 5.42247 10.2213 5.60156 10.0004 5.60156H9.20039C8.97951 5.60156 8.80039 5.42247 8.80039 5.20156V4.40156ZM9.20039 7.20156C8.97951 7.20156 8.80039 7.38065 8.80039 7.60156V8.40156C8.80039 8.62244 8.97951 8.80156 9.20039 8.80156H10.0004C10.2213 8.80156 10.4004 8.62244 10.4004 8.40156V7.60156C10.4004 7.38065 10.2213 7.20156 10.0004 7.20156H9.20039Z" fill="#0F172A"/>
</svg>
