<svg width="16" height="16" viewBox="0 0 16 16" fill="none" xmlns="http://www.w3.org/2000/svg">
<path d="M7.54705 2H3.39373C2.06705 2 1.40039 2.67334 1.40039 4.01334V14.6666H5.00039V12.1666C5.00039 11.8934 5.22705 11.6666 5.50039 11.6666C5.77373 11.6666 6.00039 11.8866 6.00039 12.1666V14.6666H9.53375V4.01334C9.53375 2.67334 8.87375 2 7.54705 2ZM7.16706 8.5H3.86705C3.59373 8.5 3.36705 8.27336 3.36705 8C3.36705 7.72666 3.59373 7.5 3.86705 7.5H7.16706C7.44039 7.5 7.66706 7.72666 7.66706 8C7.66706 8.27336 7.44039 8.5 7.16706 8.5ZM7.16706 6H3.86705C3.59373 6 3.36705 5.77334 3.36705 5.5C3.36705 5.22666 3.59373 5 3.86705 5H7.16706C7.44039 5 7.66706 5.22666 7.66706 5.5C7.66706 5.77334 7.44039 6 7.16706 6Z" fill="white"/>
<path d="M15.3326 14.1661H13.8194V12.1661C14.4526 11.9595 14.9126 11.3661 14.9126 10.6661V9.33274C14.9126 8.45946 14.1994 7.74609 13.326 7.74609C12.4527 7.74609 11.7394 8.45946 11.7394 9.33274V10.6661C11.7394 11.3595 12.1926 11.9461 12.8126 12.1595V14.1661H0.666016C0.392682 14.1661 0.166016 14.3927 0.166016 14.6661C0.166016 14.9395 0.392682 15.1661 0.666016 15.1661H13.286C13.2994 15.1661 13.306 15.1727 13.3194 15.1727C13.3326 15.1727 13.3394 15.1661 13.3526 15.1661H15.3326C15.606 15.1661 15.8326 14.9395 15.8326 14.6661C15.8326 14.3927 15.606 14.1661 15.3326 14.1661Z" fill="white"/>
</svg>
