<svg width="16" height="16" viewBox="0 0 16 16" fill="none" xmlns="http://www.w3.org/2000/svg">
<path d="M7.16583 3.09617L4.21251 1.63617C2.61917 0.85617 1.3125 1.64951 1.3125 3.39617V13.2895C1.3125 14.0495 1.94584 14.6695 2.71917 14.6695H7.66583C8.0325 14.6695 8.3325 14.3695 8.3325 14.0028V4.94283C8.3325 4.24283 7.80583 3.40951 7.16583 3.09617ZM5.97917 9.16948H3.66584C3.3925 9.16948 3.16584 8.94284 3.16584 8.66948C3.16584 8.39612 3.3925 8.16948 3.66584 8.16948H5.97917C6.2525 8.16948 6.47917 8.39612 6.47917 8.66948C6.47917 8.94284 6.25917 9.16948 5.97917 9.16948ZM5.97917 6.50283H3.66584C3.3925 6.50283 3.16584 6.27617 3.16584 6.00283C3.16584 5.72951 3.3925 5.50283 3.66584 5.50283H5.97917C6.2525 5.50283 6.47917 5.72951 6.47917 6.00283C6.47917 6.27617 6.25917 6.50283 5.97917 6.50283Z" fill="white"/>
<path d="M14.6673 12.0234V12.9968C14.6673 13.9168 13.9206 14.6634 13.0006 14.6634H9.98062C9.62062 14.6634 9.33398 14.3768 9.33398 14.0168V12.5768C10.0473 12.6634 10.8006 12.4568 11.3406 12.0234C11.794 12.3902 12.374 12.6102 13.0073 12.6102C13.6273 12.6102 14.2073 12.3902 14.6673 12.0234Z" fill="white"/>
<path d="M14.6673 10.0349V10.0417C14.614 10.9149 13.9006 11.6149 13.0073 11.6149C12.0806 11.6149 11.3406 10.8617 11.3406 9.9483C11.3406 10.9683 10.4006 11.7883 9.33398 11.5817V8.00166C9.33398 7.57497 9.72734 7.25497 10.1473 7.34831L11.3406 7.61497L11.6606 7.68831L13.0206 7.99497C13.3473 8.06166 13.6473 8.17494 13.9073 8.34166C13.9073 8.3483 13.914 8.3483 13.914 8.3483C13.9806 8.39494 14.0473 8.4483 14.1073 8.5083C14.414 8.81494 14.614 9.26166 14.6606 9.91494C14.6606 9.95494 14.6673 9.99494 14.6673 10.0349Z" fill="white"/>
</svg>
