<svg width="16" height="16" viewBox="0 0 16 16" fill="none" xmlns="http://www.w3.org/2000/svg">
<path d="M7.06732 2.76927C7.06732 2.89594 6.96066 3.0026 6.83398 3.0026H6.08066C4.64066 3.0026 3.46732 4.17594 3.46732 5.61594V11.7692C3.46732 11.896 3.36066 12.0026 3.23398 12.0026H2.76732C1.97398 12.0026 1.33398 11.3626 1.33398 10.5692V2.76927C1.33398 1.97594 1.97398 1.33594 2.76732 1.33594H5.63398C6.42732 1.33594 7.06732 1.97594 7.06732 2.76927Z" fill="white"/>
<path d="M14.667 2.76927V10.5692C14.667 11.3626 14.027 12.0026 13.2336 12.0026H12.8136C12.687 12.0026 12.5802 11.896 12.5802 11.7692V5.61594C12.5802 4.17594 11.407 3.0026 9.96695 3.0026H9.16695C9.04023 3.0026 8.93359 2.89594 8.93359 2.76927C8.93359 1.97594 9.57359 1.33594 10.367 1.33594H13.2336C14.027 1.33594 14.667 1.97594 14.667 2.76927Z" fill="white"/>
<path d="M9.96681 4H6.08013C5.1868 4 4.4668 4.72 4.4668 5.61334V13.0534C4.4668 13.9466 5.1868 14.6666 6.08013 14.6666H7.1668C7.35347 14.6666 7.50013 14.52 7.50013 14.3334V12.6666C7.50013 12.3934 7.7268 12.1666 8.00017 12.1666C8.27345 12.1666 8.50017 12.3934 8.50017 12.6666V14.3334C8.50017 14.52 8.64681 14.6666 8.83345 14.6666H9.97345C10.8602 14.6666 11.5802 13.9466 11.5802 13.06V5.61334C11.5802 4.72 10.8602 4 9.96681 4ZM9.33345 9.83336H6.6668C6.39347 9.83336 6.1668 9.60664 6.1668 9.33336C6.1668 9.06 6.39347 8.83336 6.6668 8.83336H9.33345C9.60681 8.83336 9.83345 9.06 9.83345 9.33336C9.83345 9.60664 9.60681 9.83336 9.33345 9.83336ZM9.33345 7.83334H6.6668C6.39347 7.83334 6.1668 7.60666 6.1668 7.33334C6.1668 7.06 6.39347 6.83334 6.6668 6.83334H9.33345C9.60681 6.83334 9.83345 7.06 9.83345 7.33334C9.83345 7.60666 9.60681 7.83334 9.33345 7.83334Z" fill="white"/>
</svg>
