<svg width="16" height="16" viewBox="0 0 16 16" fill="none" xmlns="http://www.w3.org/2000/svg">
<path d="M14.6674 14.1641H1.33398C1.06066 14.1641 0.833984 14.3908 0.833984 14.6641C0.833984 14.9374 1.06066 15.1641 1.33398 15.1641H14.6674C14.9406 15.1641 15.1674 14.9374 15.1674 14.6641C15.1674 14.3908 14.9406 14.1641 14.6674 14.1641Z" fill="white"/>
<path d="M11.3334 1.33594H4.66666C2.66666 1.33594 2 2.52927 2 4.0026V14.6692H14V4.0026C14 2.52927 13.3334 1.33594 11.3334 1.33594ZM6.66666 11.5026H4.66666C4.39334 11.5026 4.16666 11.276 4.16666 11.0026C4.16666 10.7292 4.39334 10.5026 4.66666 10.5026H6.66666C6.94 10.5026 7.16666 10.7292 7.16666 11.0026C7.16666 11.276 6.94 11.5026 6.66666 11.5026ZM6.66666 8.5026H4.66666C4.39334 8.5026 4.16666 8.27596 4.16666 8.0026C4.16666 7.72927 4.39334 7.5026 4.66666 7.5026H6.66666C6.94 7.5026 7.16666 7.72927 7.16666 8.0026C7.16666 8.27596 6.94 8.5026 6.66666 8.5026ZM6.66666 5.5026H4.66666C4.39334 5.5026 4.16666 5.27594 4.16666 5.0026C4.16666 4.72927 4.39334 4.5026 4.66666 4.5026H6.66666C6.94 4.5026 7.16666 4.72927 7.16666 5.0026C7.16666 5.27594 6.94 5.5026 6.66666 5.5026ZM11.3334 11.5026H9.33336C9.06 11.5026 8.83336 11.276 8.83336 11.0026C8.83336 10.7292 9.06 10.5026 9.33336 10.5026H11.3334C11.6066 10.5026 11.8334 10.7292 11.8334 11.0026C11.8334 11.276 11.6066 11.5026 11.3334 11.5026ZM11.3334 8.5026H9.33336C9.06 8.5026 8.83336 8.27596 8.83336 8.0026C8.83336 7.72927 9.06 7.5026 9.33336 7.5026H11.3334C11.6066 7.5026 11.8334 7.72927 11.8334 8.0026C11.8334 8.27596 11.6066 8.5026 11.3334 8.5026ZM11.3334 5.5026H9.33336C9.06 5.5026 8.83336 5.27594 8.83336 5.0026C8.83336 4.72927 9.06 4.5026 9.33336 4.5026H11.3334C11.6066 4.5026 11.8334 4.72927 11.8334 5.0026C11.8334 5.27594 11.6066 5.5026 11.3334 5.5026Z" fill="white"/>
</svg>
