<svg width="16" height="16" viewBox="0 0 16 16" fill="none" xmlns="http://www.w3.org/2000/svg">
<path d="M2.66602 8.99742V12.5974C2.66602 13.7308 3.59268 14.6641 4.73268 14.6641H11.266C12.3994 14.6641 13.3326 13.7374 13.3326 12.5974V8.99742C13.3326 8.81078 13.186 8.66406 12.9994 8.66406H2.99934C2.81268 8.66406 2.66602 8.81078 2.66602 8.99742ZM5.91934 12.2508C5.76602 12.4108 5.55268 12.4974 5.33268 12.4974C5.27934 12.4974 5.22602 12.4908 5.17268 12.4841C5.11934 12.4708 5.06602 12.4574 5.01268 12.4308C4.96602 12.4108 4.91268 12.3841 4.87268 12.3574C4.82602 12.3241 4.77934 12.2908 4.74602 12.2508C4.58602 12.0974 4.49934 11.8841 4.49934 11.6641C4.49934 11.4441 4.58602 11.2308 4.74602 11.0774C4.77934 11.0374 4.82602 11.0041 4.87268 10.9708C4.91268 10.9441 4.96602 10.9174 5.01268 10.8974C5.06602 10.8708 5.11934 10.8574 5.17268 10.8441C5.43934 10.7908 5.72602 10.8841 5.91934 11.0774C6.07934 11.2308 6.16602 11.4441 6.16602 11.6641C6.16602 11.8841 6.07934 12.0974 5.91934 12.2508ZM11.2526 12.2508C11.2194 12.2908 11.1726 12.3241 11.126 12.3574C11.086 12.3841 11.0326 12.4108 10.986 12.4308C10.9326 12.4574 10.8794 12.4708 10.8326 12.4841C10.7726 12.4908 10.7194 12.4974 10.666 12.4974C10.6126 12.4974 10.5594 12.4908 10.506 12.4841C10.4526 12.4708 10.3994 12.4574 10.346 12.4308C10.2994 12.4108 10.246 12.3841 10.206 12.3574C10.1594 12.3241 10.1126 12.2908 10.0794 12.2508C9.91937 12.0974 9.83265 11.8841 9.83265 11.6641C9.83265 11.4441 9.91937 11.2308 10.0794 11.0774C10.1126 11.0374 10.1594 11.0041 10.206 10.9708C10.246 10.9441 10.2994 10.9174 10.346 10.8974C10.3994 10.8708 10.4526 10.8574 10.506 10.8441C10.6126 10.8241 10.7194 10.8241 10.8326 10.8441C10.8794 10.8574 10.9326 10.8708 10.986 10.8974C11.0326 10.9174 11.086 10.9441 11.126 10.9708C11.1726 11.0041 11.2194 11.0374 11.2526 11.0774C11.4126 11.2308 11.4994 11.4441 11.4994 11.6641C11.4994 11.8841 11.4126 12.0974 11.2526 12.2508Z" fill="white"/>
<path d="M11.266 1.33594H4.73268C3.59268 1.33594 2.66602 2.2626 2.66602 3.4026V5.0026C2.66602 5.18927 2.81268 5.33594 2.99934 5.33594H12.9994C13.186 5.33594 13.3326 5.18927 13.3326 5.0026V3.4026C13.3326 2.2626 12.406 1.33594 11.266 1.33594ZM9.66601 3.83594H6.33268C6.05934 3.83594 5.83268 3.60927 5.83268 3.33594C5.83268 3.0626 6.05934 2.83594 6.33268 2.83594H9.66601C9.93937 2.83594 10.166 3.0626 10.166 3.33594C10.166 3.60927 9.93937 3.83594 9.66601 3.83594Z" fill="white"/>
<path d="M12.9994 8H2.99934C2.81268 8 2.66602 7.85334 2.66602 7.66666V6.33334C2.66602 6.14666 2.81268 6 2.99934 6H12.9994C13.186 6 13.3326 6.14666 13.3326 6.33334V7.66666C13.3326 7.85334 13.186 8 12.9994 8Z" fill="white"/>
</svg>
