<svg width="16" height="16" viewBox="0 0 16 16" fill="none" xmlns="http://www.w3.org/2000/svg">
<path d="M14.6661 5.66927C14.6661 7.8426 13.0661 9.63596 10.9861 9.94924V9.90924C10.7794 7.3226 8.67945 5.2226 6.07273 5.01594H6.05273C6.36606 2.93594 8.15945 1.33594 10.3327 1.33594C12.7261 1.33594 14.6661 3.27594 14.6661 5.66927Z" fill="white"/>
<path d="M9.98735 9.98664C9.82063 7.87334 8.12735 6.18 6.01398 6.01334C5.90066 6.00666 5.78066 6 5.66732 6C3.27398 6 1.33398 7.94 1.33398 10.3334C1.33398 12.7266 3.27398 14.6666 5.66732 14.6666C8.06063 14.6666 10.0006 12.7266 10.0006 10.3334C10.0006 10.22 9.99399 10.1 9.98735 9.98664ZM6.25398 10.92L5.66732 12L5.08066 10.92L4.00066 10.3334L5.08066 9.74664L5.66732 8.66664L6.25398 9.74664L7.33398 10.3334L6.25398 10.92Z" fill="white"/>
</svg>
