<svg width="16" height="16" viewBox="0 0 16 16" fill="none" xmlns="http://www.w3.org/2000/svg">
<path d="M5.40038 0.785156L4.69329 1.49227C4.30276 1.8828 4.30276 2.51596 4.69329 2.90648C5.08381 3.29701 5.71697 3.29701 6.10749 2.90648C6.49802 2.51596 6.49802 1.8828 6.10749 1.49227L5.40038 0.785156Z" fill="#0F172A"/>
<path d="M10.5996 0.785156L9.89247 1.49227C9.50199 1.8828 9.50199 2.51596 9.89247 2.90648C10.283 3.29701 10.9161 3.29701 11.3067 2.90648C11.6972 2.51596 11.6972 1.8828 11.3067 1.49227L10.5996 0.785156Z" fill="#0F172A"/>
<path d="M7.99999 0.785156L8.70712 1.49227C9.0976 1.8828 9.0976 2.51596 8.70712 2.90648C8.31656 3.29701 7.68342 3.29701 7.2929 2.90648C6.90237 2.51596 6.90237 1.8828 7.2929 1.49227L7.99999 0.785156Z" fill="#0F172A"/>
<path d="M5.99922 4.6C5.99922 4.26863 5.73059 4 5.39922 4C5.06785 4 4.79922 4.26863 4.79922 4.6V4.97103C3.85619 5.21478 3.19922 6.08346 3.19922 7.06856V7.14418C3.27951 7.12768 3.36105 7.11383 3.4438 7.10275C4.9347 6.90301 6.4554 6.8 7.99922 6.8C9.54306 6.8 11.0637 6.90301 12.5547 7.10275C12.6374 7.11383 12.7189 7.12768 12.7992 7.14418V7.06856C12.7992 6.08346 12.1423 5.21478 11.1992 4.97103V4.6C11.1992 4.26863 10.9306 4 10.5992 4C10.2679 4 9.99922 4.26863 9.99922 4.6V4.85463C9.53482 4.8292 9.0681 4.81257 8.59922 4.8049V4.6C8.59922 4.26863 8.33058 4 7.99922 4C7.66785 4 7.39922 4.26863 7.39922 4.6V4.8049C6.93035 4.81257 6.46363 4.8292 5.99922 4.85463V4.6Z" fill="#0F172A"/>
<path d="M3.60354 8.29216C5.04176 8.09944 6.50923 8 7.99961 8C9.49001 8 10.9574 8.09944 12.3957 8.29216C13.5729 8.44984 14.3996 9.47032 14.3996 10.6231V11.1778C13.9434 11.1778 13.4871 11.073 13.0679 10.8634C11.8918 10.2753 10.5074 10.2753 9.33129 10.8634C8.49297 11.2826 7.50624 11.2826 6.66794 10.8634C5.4918 10.2753 4.10742 10.2753 2.93128 10.8634C2.51213 11.073 2.05587 11.1778 1.59961 11.1778V10.6231C1.59961 9.47032 2.42631 8.44984 3.60354 8.29216Z" fill="#0F172A"/>
<path d="M12.5313 11.9355C13.1194 12.2295 13.7594 12.3765 14.3996 12.3765V13.1988C14.3996 13.8616 13.8623 14.3988 13.1996 14.3988H2.79961C2.13687 14.3988 1.59961 13.8616 1.59961 13.1988V12.3765C2.23974 12.3765 2.87987 12.2295 3.46794 11.9355C4.30624 11.5163 5.29298 11.5163 6.13128 11.9355C7.30742 12.5235 8.69177 12.5235 9.86793 11.9355C10.7062 11.5163 11.693 11.5163 12.5313 11.9355Z" fill="#0F172A"/>
</svg>
