<svg width="16" height="16" viewBox="0 0 16 16" fill="none" xmlns="http://www.w3.org/2000/svg">
<path fill-rule="evenodd" clip-rule="evenodd" d="M8.00039 0.800781C6.62731 0.800781 5.27367 0.885189 3.94443 1.04915C3.04502 1.16009 2.40039 1.93177 2.40039 2.81407V13.4008C2.40039 14.3949 3.20628 15.2008 4.20039 15.2008H11.8004C12.7945 15.2008 13.6004 14.3949 13.6004 13.4008V2.81407C13.6004 1.93177 12.9558 1.16009 12.0564 1.04915C10.7271 0.885189 9.37343 0.800781 8.00039 0.800781ZM4.79257 7.00078C4.79257 6.66941 5.06121 6.40078 5.39257 6.40078H5.40057C5.73195 6.40078 6.00057 6.66941 6.00057 7.00078V7.00878C6.00057 7.34015 5.73195 7.60878 5.40057 7.60878H5.39257C5.06121 7.60878 4.79257 7.34015 4.79257 7.00878V7.00078ZM5.39257 8.13406C5.06121 8.13406 4.79257 8.4027 4.79257 8.73406V8.74206C4.79257 9.07342 5.06121 9.34206 5.39257 9.34206H5.40057C5.73195 9.34206 6.00057 9.07342 6.00057 8.74206V8.73406C6.00057 8.4027 5.73195 8.13406 5.40057 8.13406H5.39257ZM4.79257 10.4674C4.79257 10.136 5.06121 9.86742 5.39257 9.86742H5.40057C5.73195 9.86742 6.00057 10.136 6.00057 10.4674V10.4754C6.00057 10.8068 5.73195 11.0754 5.40057 11.0754H5.39257C5.06121 11.0754 4.79257 10.8068 4.79257 10.4754V10.4674ZM5.39257 11.6007C5.06121 11.6007 4.79257 11.8693 4.79257 12.2007V12.2087C4.79257 12.5401 5.06121 12.8087 5.39257 12.8087H5.40057C5.73195 12.8087 6.00057 12.5401 6.00057 12.2087V12.2007C6.00057 11.8693 5.73195 11.6007 5.40057 11.6007H5.39257ZM6.52592 7.00078C6.52592 6.66941 6.79454 6.40078 7.12592 6.40078H7.13392C7.46529 6.40078 7.73392 6.66941 7.73392 7.00078V7.00878C7.73392 7.34015 7.46529 7.60878 7.13392 7.60878H7.12592C6.79454 7.60878 6.52592 7.34015 6.52592 7.00878V7.00078ZM7.12592 8.13406C6.79454 8.13406 6.52592 8.4027 6.52592 8.73406V8.74206C6.52592 9.07342 6.79454 9.34206 7.12592 9.34206H7.13392C7.46529 9.34206 7.73392 9.07342 7.73392 8.74206V8.73406C7.73392 8.4027 7.46529 8.13406 7.13392 8.13406H7.12592ZM6.52592 10.4674C6.52592 10.136 6.79454 9.86742 7.12592 9.86742H7.13392C7.46529 9.86742 7.73392 10.136 7.73392 10.4674V10.4754C7.73392 10.8068 7.46529 11.0754 7.13392 11.0754H7.12592C6.79454 11.0754 6.52592 10.8068 6.52592 10.4754V10.4674ZM7.12592 11.6007C6.79454 11.6007 6.52592 11.8693 6.52592 12.2007V12.2087C6.52592 12.5401 6.79454 12.8087 7.12592 12.8087H7.13392C7.46529 12.8087 7.73392 12.5401 7.73392 12.2087V12.2007C7.73392 11.8693 7.46529 11.6007 7.13392 11.6007H7.12592ZM8.26191 7.00078C8.26191 6.66941 8.53055 6.40078 8.86191 6.40078H8.86991C9.20127 6.40078 9.46991 6.66941 9.46991 7.00078V7.00878C9.46991 7.34015 9.20127 7.60878 8.86991 7.60878H8.86191C8.53055 7.60878 8.26191 7.34015 8.26191 7.00878V7.00078ZM8.86191 8.13406C8.53055 8.13406 8.26191 8.4027 8.26191 8.73406V8.74206C8.26191 9.07342 8.53055 9.34206 8.86191 9.34206H8.86991C9.20127 9.34206 9.46991 9.07342 9.46991 8.74206V8.73406C9.46991 8.4027 9.20127 8.13406 8.86991 8.13406H8.86191ZM8.26191 10.4674C8.26191 10.136 8.53055 9.86742 8.86191 9.86742H8.86991C9.20127 9.86742 9.46991 10.136 9.46991 10.4674V10.4754C9.46991 10.8068 9.20127 11.0754 8.86991 11.0754H8.86191C8.53055 11.0754 8.26191 10.8068 8.26191 10.4754V10.4674ZM8.86191 11.6007C8.53055 11.6007 8.26191 11.8693 8.26191 12.2007V12.2087C8.26191 12.5401 8.53055 12.8087 8.86191 12.8087H8.86991C9.20127 12.8087 9.46991 12.5401 9.46991 12.2087V12.2007C9.46991 11.8693 9.20127 11.6007 8.86991 11.6007H8.86191ZM10.0006 7.00078C10.0006 6.66941 10.2692 6.40078 10.6006 6.40078H10.6086C10.9399 6.40078 11.2086 6.66941 11.2086 7.00078V7.00878C11.2086 7.34015 10.9399 7.60878 10.6086 7.60878H10.6006C10.2692 7.60878 10.0006 7.34015 10.0006 7.00878V7.00078ZM10.6006 8.13406C10.2692 8.13406 10.0006 8.4027 10.0006 8.73406V8.74206C10.0006 9.07342 10.2692 9.34206 10.6006 9.34206H10.6086C10.9399 9.34206 11.2086 9.07342 11.2086 8.74206V8.73406C11.2086 8.4027 10.9399 8.13406 10.6086 8.13406H10.6006ZM10.6006 9.8675C10.9319 9.8675 11.2006 10.1361 11.2006 10.4675V12.2008C11.2006 12.5322 10.9319 12.8008 10.6006 12.8008C10.2692 12.8008 10.0006 12.5322 10.0006 12.2008V10.4675C10.0006 10.1361 10.2692 9.8675 10.6006 9.8675ZM5.40039 3.20078C5.06902 3.20078 4.80039 3.46941 4.80039 3.80078V4.20078C4.80039 4.53215 5.06902 4.80078 5.40039 4.80078H10.6004C10.9318 4.80078 11.2004 4.53215 11.2004 4.20078V3.80078C11.2004 3.46941 10.9318 3.20078 10.6004 3.20078H5.40039Z" fill="#0F172A"/>
</svg>
