<svg width="16" height="16" viewBox="0 0 16 16" fill="none" xmlns="http://www.w3.org/2000/svg">
<path d="M8.00063 1.33594C4.32066 1.33594 1.33398 4.3226 1.33398 8.0026C1.33398 11.6826 4.32066 14.6692 8.00063 14.6692C11.6806 14.6692 14.6674 11.6826 14.6674 8.0026C14.6674 4.3226 11.6806 1.33594 8.00063 1.33594ZM4.56732 6.29594C4.84732 5.64927 5.37398 5.14927 6.10066 4.9226V4.38927C6.10066 4.11594 6.32732 3.88927 6.60066 3.88927C6.87398 3.88927 7.10066 4.11594 7.10066 4.38927V4.7826H8.90735V4.38927C8.90735 4.11594 9.13399 3.88927 9.40735 3.88927C9.68063 3.88927 9.90735 4.11594 9.90735 4.38927V4.91594C10.634 5.1426 11.1606 5.6426 11.4406 6.28927C11.534 6.50927 11.374 6.7626 11.134 6.7626H4.87398C4.63398 6.7626 4.47398 6.51594 4.56732 6.29594ZM11.6674 9.44924C11.6674 10.916 10.6674 12.116 9.00063 12.116H7.00066C5.33398 12.116 4.33398 10.916 4.33398 9.44924V7.7626C4.33398 7.57594 4.48066 7.42927 4.66732 7.42927H11.334C11.5206 7.42927 11.6674 7.57594 11.6674 7.7626V9.44924Z" fill="white"/>
</svg>
