<svg width="16" height="16" viewBox="0 0 16 16" fill="none" xmlns="http://www.w3.org/2000/svg">
<path d="M11.1662 2.37594V1.33594C11.1662 1.0626 10.9394 0.835938 10.6662 0.835938C10.3928 0.835938 10.1662 1.0626 10.1662 1.33594V2.33594H5.83283V1.33594C5.83283 1.0626 5.60617 0.835938 5.33283 0.835938C5.0595 0.835938 4.83283 1.0626 4.83283 1.33594V2.37594C3.03283 2.5426 2.1595 3.61594 2.02617 5.20927C2.01283 5.4026 2.17283 5.5626 2.3595 5.5626H13.6394C13.8328 5.5626 13.9928 5.39594 13.9728 5.20927C13.8394 3.61594 12.9662 2.5426 11.1662 2.37594Z" fill="white"/>
<path d="M13.3334 6.55859H2.66666C2.3 6.55859 2 6.85857 2 7.22523V11.3319C2 13.3319 3 14.6652 5.33334 14.6652H8.62C9.08 14.6652 9.4 14.2186 9.25336 13.7852C9.12 13.3986 9.00664 12.9719 9.00664 12.6652C9.00664 10.6452 10.6534 8.99858 12.6734 8.99858C12.8666 8.99858 13.06 9.01194 13.2466 9.04522C13.6466 9.10522 14.0066 8.79194 14.0066 8.39194V7.2319C14 6.85857 13.7 6.55859 13.3334 6.55859ZM6.14 11.8052C6.07334 11.8652 6 11.9119 5.92 11.9452C5.84 11.9786 5.75334 11.9986 5.66666 11.9986C5.58 11.9986 5.49334 11.9786 5.41334 11.9452C5.33334 11.9119 5.26 11.8652 5.19334 11.8052C5.07334 11.6786 5 11.5052 5 11.3319C5 11.2919 5.00666 11.2452 5.01334 11.2052C5.02 11.1586 5.03334 11.1186 5.05334 11.0786C5.06666 11.0386 5.08666 10.9986 5.11334 10.9586C5.13334 10.9252 5.16666 10.8919 5.19334 10.8586C5.26 10.7986 5.33334 10.7519 5.41334 10.7186C5.57334 10.6519 5.76 10.6519 5.92 10.7186C6 10.7519 6.07334 10.7986 6.14 10.8586C6.16666 10.8919 6.2 10.9252 6.22 10.9586C6.24666 10.9986 6.26666 11.0386 6.28 11.0786C6.3 11.1186 6.31334 11.1586 6.32 11.2052C6.32666 11.2452 6.33334 11.2919 6.33334 11.3319C6.33334 11.5052 6.26 11.6786 6.14 11.8052ZM6.14 9.47194C6.07334 9.53194 6 9.57858 5.92 9.61194C5.84 9.64522 5.75334 9.66522 5.66666 9.66522C5.58 9.66522 5.49334 9.64522 5.41334 9.61194C5.32666 9.57858 5.26 9.53194 5.19334 9.47194C5.07334 9.34522 5 9.17194 5 8.99858C5 8.82522 5.07334 8.65194 5.19334 8.52522C5.26 8.46522 5.33334 8.41858 5.41334 8.38522C5.57334 8.31858 5.76 8.31858 5.92 8.38522C6 8.41858 6.07334 8.46522 6.14 8.52522C6.16666 8.55858 6.2 8.59194 6.22 8.62522C6.24666 8.66522 6.26666 8.70522 6.28 8.74522C6.3 8.78522 6.31334 8.82522 6.32 8.86522C6.32666 8.91194 6.33334 8.95858 6.33334 8.99858C6.33334 9.17194 6.26 9.34522 6.14 9.47194ZM8.47336 9.47194C8.34664 9.59194 8.18 9.66522 8 9.66522C7.91334 9.66522 7.82666 9.64522 7.74666 9.61194C7.66 9.57858 7.59334 9.53194 7.52666 9.47194C7.40666 9.34522 7.33334 9.17194 7.33334 8.99858C7.33334 8.95858 7.34 8.91194 7.34666 8.86522C7.35334 8.82522 7.36666 8.78522 7.38666 8.74522C7.4 8.70522 7.42 8.66522 7.44666 8.62522C7.47334 8.59194 7.5 8.55858 7.52666 8.52522C7.77334 8.27858 8.22 8.27858 8.47336 8.52522C8.5 8.55858 8.52664 8.59194 8.55336 8.62522C8.58 8.66522 8.6 8.70522 8.61336 8.74522C8.63336 8.78522 8.64664 8.82522 8.65336 8.86522C8.66 8.91194 8.66664 8.95858 8.66664 8.99858C8.66664 9.17194 8.59336 9.34522 8.47336 9.47194Z" fill="white"/>
<path d="M14.5534 10.78C13.5134 9.74 11.82 9.74 10.78 10.78C9.74 11.82 9.74 13.5134 10.78 14.5534C11.82 15.5934 13.5134 15.5934 14.5534 14.5534C15.5934 13.5134 15.5934 11.82 14.5534 10.78ZM14.0466 13.04C13.96 13.1334 13.8334 13.1866 13.6934 13.1866H13.2V13.7066C13.2 13.8466 13.1466 13.9666 13.0534 14.06C12.96 14.1534 12.84 14.2066 12.7 14.2066C12.4266 14.2066 12.2 13.98 12.2 13.7066V13.1866H11.7C11.4266 13.1866 11.2 12.9666 11.2 12.6866C11.2 12.4134 11.4266 12.1866 11.7 12.1866H12.2V11.7134C12.2 11.44 12.42 11.2134 12.7 11.2134C12.9734 11.2134 13.2 11.44 13.2 11.7134V12.1866H13.6934C13.9734 12.1866 14.1934 12.4134 14.1934 12.6866C14.1934 12.8266 14.14 12.9534 14.0466 13.04Z" fill="white"/>
</svg>
