<svg width="16" height="16" viewBox="0 0 16 16" fill="none" xmlns="http://www.w3.org/2000/svg">
<path d="M11.1662 2.37594V1.33594C11.1662 1.0626 10.9394 0.835938 10.6662 0.835938C10.3928 0.835938 10.1662 1.0626 10.1662 1.33594V2.33594H5.83283V1.33594C5.83283 1.0626 5.60617 0.835938 5.33283 0.835938C5.0595 0.835938 4.83283 1.0626 4.83283 1.33594V2.37594C3.03283 2.5426 2.1595 3.61594 2.02617 5.20927C2.01283 5.4026 2.17283 5.5626 2.3595 5.5626H13.6394C13.8328 5.5626 13.9928 5.39594 13.9728 5.20927C13.8394 3.61594 12.9662 2.5426 11.1662 2.37594Z" fill="white"/>
<path d="M12.6666 10C11.1934 10 10 11.1934 10 12.6666C10 13.1666 10.14 13.64 10.3866 14.04C10.8466 14.8134 11.6934 15.3334 12.6666 15.3334C13.64 15.3334 14.4866 14.8134 14.9466 14.04C15.1934 13.64 15.3334 13.1666 15.3334 12.6666C15.3334 11.1934 14.14 10 12.6666 10ZM14.0466 12.38L12.6266 13.6934C12.5334 13.78 12.4066 13.8266 12.2866 13.8266C12.16 13.8266 12.0334 13.78 11.9334 13.68L11.2734 13.02C11.08 12.8266 11.08 12.5066 11.2734 12.3134C11.4666 12.12 11.7866 12.12 11.98 12.3134L12.3 12.6334L13.3666 11.6466C13.5666 11.46 13.8866 11.4734 14.0734 11.6734C14.26 11.8734 14.2466 12.1866 14.0466 12.38Z" fill="white"/>
<path d="M13.3334 6.55859H2.66666C2.3 6.55859 2 6.85857 2 7.22523V11.3319C2 13.3319 3 14.6652 5.33334 14.6652H8.62C9.08 14.6652 9.4 14.2186 9.25336 13.7852C9.12 13.3986 9.00664 12.9719 9.00664 12.6652C9.00664 10.6452 10.6534 8.99858 12.6734 8.99858C12.8666 8.99858 13.06 9.01194 13.2466 9.04522C13.6466 9.10522 14.0066 8.79194 14.0066 8.39194V7.2319C14 6.85857 13.7 6.55859 13.3334 6.55859ZM6.14 12.1386C6.01334 12.2586 5.84 12.3319 5.66666 12.3319C5.49334 12.3319 5.32 12.2586 5.19334 12.1386C5.07334 12.0119 5 11.8386 5 11.6652C5 11.4919 5.07334 11.3186 5.19334 11.1919C5.26 11.1319 5.32666 11.0852 5.41334 11.0519C5.66 10.9452 5.95334 11.0052 6.14 11.1919C6.26 11.3186 6.33334 11.4919 6.33334 11.6652C6.33334 11.8386 6.26 12.0119 6.14 12.1386ZM6.14 9.80522C6.10666 9.83194 6.07334 9.85858 6.04 9.88522C6 9.91194 5.96 9.93194 5.92 9.94522C5.88 9.96522 5.84 9.97858 5.8 9.98522C5.75334 9.99194 5.70666 9.99858 5.66666 9.99858C5.49334 9.99858 5.32 9.92522 5.19334 9.80522C5.07334 9.67858 5 9.50522 5 9.33194C5 9.15858 5.07334 8.98522 5.19334 8.85858C5.34666 8.70522 5.58 8.63194 5.8 8.67858C5.84 8.68522 5.88 8.69858 5.92 8.71858C5.96 8.73194 6 8.75194 6.04 8.77858C6.07334 8.80522 6.10666 8.83194 6.14 8.85858C6.26 8.98522 6.33334 9.15858 6.33334 9.33194C6.33334 9.50522 6.26 9.67858 6.14 9.80522ZM8.47336 9.80522C8.34664 9.92522 8.17336 9.99858 8 9.99858C7.82666 9.99858 7.65334 9.92522 7.52666 9.80522C7.40666 9.67858 7.33334 9.50522 7.33334 9.33194C7.33334 9.15858 7.40666 8.98522 7.52666 8.85858C7.78 8.61194 8.22664 8.61194 8.47336 8.85858C8.59336 8.98522 8.66664 9.15858 8.66664 9.33194C8.66664 9.50522 8.59336 9.67858 8.47336 9.80522Z" fill="white"/>
</svg>
