<svg width="16" height="16" viewBox="0 0 16 16" fill="none" xmlns="http://www.w3.org/2000/svg">
<path d="M11.1662 2.37594V1.33594C11.1662 1.0626 10.9394 0.835938 10.6662 0.835938C10.3928 0.835938 10.1662 1.0626 10.1662 1.33594V2.33594H5.83283V1.33594C5.83283 1.0626 5.60617 0.835938 5.33283 0.835938C5.0595 0.835938 4.83283 1.0626 4.83283 1.33594V2.37594C3.03283 2.5426 2.1595 3.61594 2.02617 5.20927C2.01283 5.4026 2.17283 5.5626 2.3595 5.5626H13.6394C13.8328 5.5626 13.9928 5.39594 13.9728 5.20927C13.8394 3.61594 12.9662 2.5426 11.1662 2.37594Z" fill="white"/>
<path d="M13.3334 6.55859H2.66666C2.3 6.55859 2 6.85857 2 7.22523V11.3319C2 13.3319 3 14.6652 5.33334 14.6652H10.6666C13 14.6652 14 13.3319 14 11.3319V7.22523C14 6.85857 13.7 6.55859 13.3334 6.55859ZM6.14 12.1386C6.07334 12.1986 6 12.2452 5.92 12.2786C5.84 12.3119 5.75334 12.3319 5.66666 12.3319C5.58 12.3319 5.49334 12.3119 5.41334 12.2786C5.33334 12.2452 5.26 12.1986 5.19334 12.1386C5.07334 12.0119 5 11.8386 5 11.6652C5 11.4919 5.07334 11.3186 5.19334 11.1919C5.26 11.1319 5.33334 11.0852 5.41334 11.0519C5.57334 10.9852 5.76 10.9852 5.92 11.0519C6 11.0852 6.07334 11.1319 6.14 11.1919C6.26 11.3186 6.33334 11.4919 6.33334 11.6652C6.33334 11.8386 6.26 12.0119 6.14 12.1386ZM6.28 9.58522C6.24666 9.66522 6.2 9.73858 6.14 9.80522C6.07334 9.86522 6 9.91194 5.92 9.94522C5.84 9.97858 5.75334 9.99858 5.66666 9.99858C5.58 9.99858 5.49334 9.97858 5.41334 9.94522C5.33334 9.91194 5.26 9.86522 5.19334 9.80522C5.13334 9.73858 5.08666 9.66522 5.05334 9.58522C5.02 9.50522 5 9.41858 5 9.33194C5 9.24522 5.02 9.15858 5.05334 9.07858C5.08666 8.99858 5.13334 8.92522 5.19334 8.85858C5.26 8.79858 5.33334 8.75194 5.41334 8.71858C5.57334 8.65194 5.76 8.65194 5.92 8.71858C6 8.75194 6.07334 8.79858 6.14 8.85858C6.2 8.92522 6.24666 8.99858 6.28 9.07858C6.31334 9.15858 6.33334 9.24522 6.33334 9.33194C6.33334 9.41858 6.31334 9.50522 6.28 9.58522ZM8.47336 9.80522C8.40664 9.86522 8.33336 9.91194 8.25336 9.94522C8.17336 9.97858 8.08664 9.99858 8 9.99858C7.91334 9.99858 7.82666 9.97858 7.74666 9.94522C7.66666 9.91194 7.59334 9.86522 7.52666 9.80522C7.40666 9.67858 7.33334 9.50522 7.33334 9.33194C7.33334 9.15858 7.40666 8.98522 7.52666 8.85858C7.59334 8.79858 7.66666 8.75194 7.74666 8.71858C7.90666 8.64522 8.09336 8.64522 8.25336 8.71858C8.33336 8.75194 8.40664 8.79858 8.47336 8.85858C8.59336 8.98522 8.66664 9.15858 8.66664 9.33194C8.66664 9.50522 8.59336 9.67858 8.47336 9.80522Z" fill="white"/>
</svg>
