<svg width="16" height="16" viewBox="0 0 16 16" fill="none" xmlns="http://www.w3.org/2000/svg">
<path d="M11.1662 2.37594V1.33594C11.1662 1.0626 10.9394 0.835938 10.6662 0.835938C10.3928 0.835938 10.1662 1.0626 10.1662 1.33594V2.33594H5.83283V1.33594C5.83283 1.0626 5.60617 0.835938 5.33283 0.835938C5.0595 0.835938 4.83283 1.0626 4.83283 1.33594V2.37594C3.03283 2.5426 2.1595 3.61594 2.02617 5.20927C2.01283 5.4026 2.17283 5.5626 2.3595 5.5626H13.6394C13.8328 5.5626 13.9928 5.39594 13.9728 5.20927C13.8394 3.61594 12.9662 2.5426 11.1662 2.37594Z" fill="white"/>
<path d="M13.3334 6.55859H2.66666C2.3 6.55859 2 6.85857 2 7.22523V11.3319C2 13.3319 3 14.6652 5.33334 14.6652H10.6666C13 14.6652 14 13.3319 14 11.3319V7.22523C14 6.85857 13.7 6.55859 13.3334 6.55859ZM9.89336 9.99194L9.56 10.3319H9.55336L7.53334 12.3519C7.44666 12.4386 7.26666 12.5319 7.14 12.5452L6.24 12.6786C5.91334 12.7252 5.68666 12.4919 5.73334 12.1719L5.86 11.2652C5.88 11.1386 5.96666 10.9652 6.05334 10.8719L8.08 8.85194L8.41336 8.51194C8.63336 8.29194 8.88 8.13194 9.14664 8.13194C9.37336 8.13194 9.62 8.23858 9.89336 8.51194C10.4934 9.11194 10.3 9.58522 9.89336 9.99194Z" fill="white"/>
</svg>
