<svg width="16" height="16" viewBox="0 0 16 16" fill="none" xmlns="http://www.w3.org/2000/svg">
<path d="M5.5 3.83594C5.22666 3.83594 5 3.60927 5 3.33594V1.33594C5 1.0626 5.22666 0.835938 5.5 0.835938C5.77334 0.835938 6 1.0626 6 1.33594V3.33594C6 3.60927 5.77334 3.83594 5.5 3.83594Z" fill="white"/>
<path d="M10.5 3.83594C10.2266 3.83594 10 3.60927 10 3.33594V1.33594C10 1.0626 10.2266 0.835938 10.5 0.835938C10.7734 0.835938 11 1.0626 11 1.33594V3.33594C11 3.60927 10.7734 3.83594 10.5 3.83594Z" fill="white"/>
<path d="M8.00039 9.39594C8.34703 9.39594 8.60039 9.18922 8.60039 8.86258C8.60039 8.52922 8.34703 8.33594 8.00039 8.33594C7.65373 8.33594 7.40039 8.52922 7.40039 8.86258C7.40039 9.18922 7.65373 9.39594 8.00039 9.39594Z" fill="white"/>
<path d="M8.00025 11.3338C8.41993 11.3338 8.76025 11.0562 8.76025 10.7138C8.76025 10.3714 8.41993 10.0938 8.00025 10.0938C7.58043 10.0938 7.24023 10.3714 7.24023 10.7138C7.24023 11.0562 7.58043 11.3338 8.00025 11.3338Z" fill="white"/>
<path d="M13.046 3.0026C12.606 2.67594 11.9726 2.98927 11.9726 3.5426V3.60927C11.9726 4.38927 11.4126 5.10927 10.6326 5.18927C9.73265 5.2826 8.97265 4.57594 8.97265 3.69594V3.0026C8.97265 2.63594 8.67265 2.33594 8.30601 2.33594H7.69268C7.32602 2.33594 7.02602 2.63594 7.02602 3.0026V3.69594C7.02602 4.2226 6.75268 4.68927 6.33934 4.94927C6.27934 4.98927 6.21268 5.0226 6.14602 5.05594C6.08602 5.08927 6.01934 5.11594 5.94602 5.13594C5.86602 5.1626 5.77934 5.1826 5.68602 5.18927C5.57934 5.2026 5.47268 5.2026 5.36602 5.18927C5.27268 5.1826 5.18602 5.1626 5.10602 5.13594C5.03934 5.11594 4.97268 5.08927 4.90602 5.05594C4.83934 5.0226 4.77268 4.98927 4.71268 4.94927C4.29268 4.65594 4.02602 4.14927 4.02602 3.60927V3.5426C4.02602 3.02927 3.47934 2.7226 3.04602 2.9426C3.03934 2.94927 3.03268 2.94927 3.02602 2.95594C2.99934 2.96927 2.97934 2.9826 2.95268 3.0026C2.93268 3.0226 2.90602 3.03594 2.88602 3.05594C2.69934 3.2026 2.53268 3.36927 2.39268 3.54927C2.31934 3.62927 2.25934 3.71594 2.20602 3.8026C2.19934 3.80927 2.19268 3.81594 2.18602 3.82927C2.12602 3.91594 2.07268 4.01594 2.02602 4.10927C2.01268 4.1226 2.00602 4.12927 2.00602 4.1426C1.96602 4.2226 1.92602 4.3026 1.89934 4.38927C1.87934 4.4226 1.87268 4.44927 1.85934 4.4826C1.81934 4.5826 1.79268 4.6826 1.76602 4.7826C1.73934 4.87594 1.71934 4.97594 1.70602 5.07594C1.69268 5.14927 1.68602 5.2226 1.67934 5.3026C1.67268 5.39594 1.66602 5.48927 1.66602 5.5826V11.4226C1.66602 13.216 3.11934 14.6692 4.91268 14.6692H11.086C12.8794 14.6692 14.3326 13.216 14.3326 11.4226V5.5826C14.3326 4.5226 13.826 3.59594 13.046 3.0026ZM7.99934 12.1692C6.96602 12.1692 6.33268 11.656 6.33268 10.8292C6.33268 10.376 6.56602 9.9826 6.97268 9.74924C6.67934 9.5426 6.48602 9.23596 6.48602 8.81596C6.48602 7.94927 7.17934 7.5026 7.99934 7.5026C8.81937 7.5026 9.50601 7.94927 9.50601 8.81596C9.50601 9.23596 9.31937 9.5426 9.01937 9.74924C9.43265 9.9826 9.66601 10.376 9.66601 10.8292C9.66601 11.656 9.02601 12.1692 7.99934 12.1692Z" fill="white"/>
</svg>
