<svg width="16" height="16" viewBox="0 0 16 16" fill="none" xmlns="http://www.w3.org/2000/svg">
<path fill-rule="evenodd" clip-rule="evenodd" d="M4.59961 1.60156C4.93098 1.60156 5.19961 1.87019 5.19961 2.20156V3.20156H10.7996V2.20156C10.7996 1.87019 11.0682 1.60156 11.3996 1.60156C11.731 1.60156 11.9996 1.87019 11.9996 2.20156V3.20156H12.1996C13.4146 3.20156 14.3996 4.18654 14.3996 5.40156V12.2016C14.3996 13.4166 13.4146 14.4016 12.1996 14.4016H3.79961C2.58459 14.4016 1.59961 13.4166 1.59961 12.2016V5.40156C1.59961 4.18654 2.58459 3.20156 3.79961 3.20156H3.99961V2.20156C3.99961 1.87019 4.26824 1.60156 4.59961 1.60156ZM3.79961 6.00156C3.24732 6.00156 2.79961 6.44927 2.79961 7.00156V12.2016C2.79961 12.7539 3.24732 13.2016 3.79961 13.2016H12.1996C12.7519 13.2016 13.1996 12.7539 13.1996 12.2016V7.00156C13.1996 6.44927 12.7519 6.00156 12.1996 6.00156H3.79961Z" fill="#0F172A"/>
</svg>
