<svg width="16" height="16" viewBox="0 0 16 16" fill="none" xmlns="http://www.w3.org/2000/svg">
<path d="M11.1662 2.37594V1.33594C11.1662 1.0626 10.9394 0.835938 10.6662 0.835938C10.3928 0.835938 10.1662 1.0626 10.1662 1.33594V2.33594H5.83283V1.33594C5.83283 1.0626 5.60617 0.835938 5.33283 0.835938C5.0595 0.835938 4.83283 1.0626 4.83283 1.33594V2.37594C3.03283 2.5426 2.1595 3.61594 2.02617 5.20927C2.01283 5.4026 2.17283 5.5626 2.3595 5.5626H13.6394C13.8328 5.5626 13.9928 5.39594 13.9728 5.20927C13.8394 3.61594 12.9662 2.5426 11.1662 2.37594Z" fill="white"/>
<path d="M13.3334 6.55859H2.66666C2.3 6.55859 2 6.85857 2 7.22523V11.3319C2 13.3319 3 14.6652 5.33334 14.6652H8.62C9.08 14.6652 9.4 14.2186 9.25336 13.7852C9.12 13.3986 9.00664 12.9719 9.00664 12.6652C9.00664 10.6452 10.6534 8.99858 12.6734 8.99858C12.8666 8.99858 13.06 9.01194 13.2466 9.04522C13.6466 9.10522 14.0066 8.79194 14.0066 8.39194V7.2319C14 6.85857 13.7 6.55859 13.3334 6.55859ZM6.14 11.8052C6.01334 11.9252 5.84 11.9986 5.66666 11.9986C5.58 11.9986 5.49334 11.9786 5.41334 11.9452C5.33334 11.9119 5.26 11.8652 5.19334 11.8052C5.07334 11.6786 5 11.5119 5 11.3319C5 11.2452 5.02 11.1586 5.05334 11.0786C5.08666 10.9919 5.13334 10.9252 5.19334 10.8586C5.26 10.7986 5.33334 10.7519 5.41334 10.7186C5.65334 10.6119 5.95334 10.6719 6.14 10.8586C6.2 10.9252 6.24666 10.9919 6.28 11.0786C6.31334 11.1586 6.33334 11.2452 6.33334 11.3319C6.33334 11.5119 6.26 11.6786 6.14 11.8052ZM6.14 9.47194C6.01334 9.59194 5.84 9.66522 5.66666 9.66522C5.58 9.66522 5.49334 9.65194 5.41334 9.61194C5.33334 9.57858 5.26 9.53194 5.19334 9.47194C5.07334 9.34522 5 9.17194 5 8.99858C5 8.91194 5.02 8.82522 5.05334 8.74522C5.08666 8.66522 5.13334 8.59194 5.19334 8.52522C5.26 8.46522 5.33334 8.41858 5.41334 8.38522C5.65334 8.28522 5.95334 8.33858 6.14 8.52522C6.2 8.59194 6.24666 8.66522 6.28 8.74522C6.31334 8.82522 6.33334 8.91194 6.33334 8.99858C6.33334 9.17194 6.26 9.34522 6.14 9.47194ZM8.61336 9.25194C8.58 9.33194 8.53336 9.40522 8.47336 9.47194C8.40664 9.53194 8.33336 9.57858 8.25336 9.61194C8.17336 9.65194 8.08664 9.66522 8 9.66522C7.82666 9.66522 7.65334 9.59194 7.52666 9.47194C7.46666 9.40522 7.42 9.33194 7.38666 9.25194C7.35334 9.17194 7.33334 9.08522 7.33334 8.99858C7.33334 8.82522 7.40666 8.65194 7.52666 8.52522C7.71334 8.33858 8.00664 8.27858 8.25336 8.38522C8.33336 8.41858 8.40664 8.46522 8.47336 8.52522C8.59336 8.65194 8.66664 8.82522 8.66664 8.99858C8.66664 9.08522 8.65336 9.17194 8.61336 9.25194Z" fill="white"/>
<path d="M12.6666 10C11.1934 10 10 11.1934 10 12.6666C10 14.14 11.1934 15.3334 12.6666 15.3334C14.14 15.3334 15.3334 14.14 15.3334 12.6666C15.3334 11.1934 14.14 10 12.6666 10ZM13.7334 13.76C13.6334 13.86 13.5066 13.9066 13.38 13.9066C13.2534 13.9066 13.1266 13.86 13.0266 13.76L12.6734 13.4066L12.3066 13.7734C12.2066 13.8734 12.08 13.92 11.9534 13.92C11.8266 13.92 11.7 13.8734 11.6 13.7734C11.4066 13.58 11.4066 13.26 11.6 13.0666L11.9666 12.7L11.6134 12.3466C11.42 12.1534 11.42 11.8334 11.6134 11.64C11.8066 11.4466 12.1266 11.4466 12.32 11.64L12.6734 12L13.0066 11.6666C13.2 11.4734 13.52 11.4734 13.7134 11.6666C13.9066 11.86 13.9066 12.18 13.7134 12.3734L13.38 12.7066L13.7334 13.06C13.9266 13.2534 13.9266 13.5666 13.7334 13.76Z" fill="white"/>
</svg>
