<svg width="16" height="16" viewBox="0 0 16 16" fill="none" xmlns="http://www.w3.org/2000/svg">
<path d="M11.1662 2.37594V1.33594C11.1662 1.0626 10.9394 0.835938 10.6662 0.835938C10.3928 0.835938 10.1662 1.0626 10.1662 1.33594V2.33594H5.83283V1.33594C5.83283 1.0626 5.60617 0.835938 5.33283 0.835938C5.0595 0.835938 4.83283 1.0626 4.83283 1.33594V2.37594C3.03283 2.5426 2.1595 3.61594 2.02617 5.20927C2.01283 5.4026 2.17283 5.5626 2.3595 5.5626H13.6394C13.8328 5.5626 13.9928 5.39594 13.9728 5.20927C13.8394 3.61594 12.9662 2.5426 11.1662 2.37594Z" fill="white"/>
<path d="M13.3334 6.55859H2.66666C2.3 6.55859 2 6.85857 2 7.22523V11.3319C2 13.3319 3 14.6652 5.33334 14.6652H10.6666C13 14.6652 14 13.3319 14 11.3319V7.22523C14 6.85857 13.7 6.55859 13.3334 6.55859ZM10.44 13.0186C10.34 13.1186 10.2134 13.1652 10.0866 13.1652C9.96 13.1652 9.83336 13.1186 9.73336 13.0186L9.24 12.5252C8.85336 12.7786 8.38664 12.9319 7.88666 12.9319C6.52666 12.9319 5.42 11.8252 5.42 10.4652C5.42 9.10522 6.52666 7.99857 7.88666 7.99857C9.24664 7.99857 10.3534 9.10522 10.3534 10.4652C10.3534 10.9652 10.2 11.4319 9.94664 11.8186L10.44 12.3119C10.6334 12.5052 10.6334 12.8252 10.44 13.0186Z" fill="white"/>
</svg>
