<svg width="16" height="16" viewBox="0 0 16 16" fill="none" xmlns="http://www.w3.org/2000/svg">
<path d="M4.19922 9.6C4.19922 9.26864 4.46785 9 4.79922 9H4.80722C5.13859 9 5.40722 9.26864 5.40722 9.6V9.608C5.40722 9.93936 5.13859 10.208 4.80722 10.208H4.79922C4.46785 10.208 4.19922 9.93936 4.19922 9.608V9.6Z" fill="#0F172A"/>
<path d="M4.79922 10.6016C4.46785 10.6016 4.19922 10.8702 4.19922 11.2016V11.2096C4.19922 11.5409 4.46785 11.8096 4.79922 11.8096H4.80722C5.13859 11.8096 5.40722 11.5409 5.40722 11.2096V11.2016C5.40722 10.8702 5.13859 10.6016 4.80722 10.6016H4.79922Z" fill="#0F172A"/>
<path d="M5.80078 9.6C5.80078 9.26864 6.06941 9 6.40078 9H6.40878C6.74015 9 7.00878 9.26864 7.00878 9.6V9.608C7.00878 9.93936 6.74015 10.208 6.40878 10.208H6.40078C6.06941 10.208 5.80078 9.93936 5.80078 9.608V9.6Z" fill="#0F172A"/>
<path d="M6.40078 10.6016C6.06941 10.6016 5.80078 10.8702 5.80078 11.2016V11.2096C5.80078 11.5409 6.06941 11.8096 6.40078 11.8096H6.40878C6.74015 11.8096 7.00878 11.5409 7.00878 11.2096V11.2016C7.00878 10.8702 6.74015 10.6016 6.40878 10.6016H6.40078Z" fill="#0F172A"/>
<path d="M7.40039 7.99844C7.40039 7.66707 7.66902 7.39844 8.00039 7.39844H8.00839C8.33975 7.39844 8.60839 7.66707 8.60839 7.99844V8.00644C8.60839 8.3378 8.33975 8.60644 8.00839 8.60644H8.00039C7.66902 8.60644 7.40039 8.3378 7.40039 8.00644V7.99844Z" fill="#0F172A"/>
<path d="M8.00039 9C7.66902 9 7.40039 9.26864 7.40039 9.6V9.608C7.40039 9.93936 7.66902 10.208 8.00039 10.208H8.00839C8.33975 10.208 8.60839 9.93936 8.60839 9.608V9.6C8.60839 9.26864 8.33975 9 8.00839 9H8.00039Z" fill="#0F172A"/>
<path d="M7.40039 11.2016C7.40039 10.8702 7.66902 10.6016 8.00039 10.6016H8.00839C8.33975 10.6016 8.60839 10.8702 8.60839 11.2016V11.2096C8.60839 11.5409 8.33975 11.8096 8.00839 11.8096H8.00039C7.66902 11.8096 7.40039 11.5409 7.40039 11.2096V11.2016Z" fill="#0F172A"/>
<path d="M9.6 7.39844C9.26864 7.39844 9 7.66707 9 7.99844V8.00644C9 8.3378 9.26864 8.60644 9.6 8.60644H9.608C9.93936 8.60644 10.208 8.3378 10.208 8.00644V7.99844C10.208 7.66707 9.93936 7.39844 9.608 7.39844H9.6Z" fill="#0F172A"/>
<path d="M9 9.6C9 9.26864 9.26864 9 9.6 9H9.608C9.93936 9 10.208 9.26864 10.208 9.6V9.608C10.208 9.93936 9.93936 10.208 9.608 10.208H9.6C9.26864 10.208 9 9.93936 9 9.608V9.6Z" fill="#0F172A"/>
<path d="M9.6 10.6016C9.26864 10.6016 9 10.8702 9 11.2016V11.2096C9 11.5409 9.26864 11.8096 9.6 11.8096H9.608C9.93936 11.8096 10.208 11.5409 10.208 11.2096V11.2016C10.208 10.8702 9.93936 10.6016 9.608 10.6016H9.6Z" fill="#0F172A"/>
<path d="M10.5996 7.99844C10.5996 7.66707 10.8682 7.39844 11.1996 7.39844H11.2076C11.539 7.39844 11.8076 7.66707 11.8076 7.99844V8.00644C11.8076 8.3378 11.539 8.60644 11.2076 8.60644H11.1996C10.8682 8.60644 10.5996 8.3378 10.5996 8.00644V7.99844Z" fill="#0F172A"/>
<path d="M11.1996 9C10.8682 9 10.5996 9.26864 10.5996 9.6V9.608C10.5996 9.93936 10.8682 10.208 11.1996 10.208H11.2076C11.539 10.208 11.8076 9.93936 11.8076 9.608V9.6C11.8076 9.26864 11.539 9 11.2076 9H11.1996Z" fill="#0F172A"/>
<path fill-rule="evenodd" clip-rule="evenodd" d="M4.59961 1.60156C4.93098 1.60156 5.19961 1.87019 5.19961 2.20156V3.20156H10.7996V2.20156C10.7996 1.87019 11.0682 1.60156 11.3996 1.60156C11.731 1.60156 11.9996 1.87019 11.9996 2.20156V3.20156H12.1996C13.4146 3.20156 14.3996 4.18654 14.3996 5.40156V12.2016C14.3996 13.4166 13.4146 14.4016 12.1996 14.4016H3.79961C2.58459 14.4016 1.59961 13.4166 1.59961 12.2016V5.40156C1.59961 4.18654 2.58459 3.20156 3.79961 3.20156H3.99961V2.20156C3.99961 1.87019 4.26824 1.60156 4.59961 1.60156ZM3.79961 6.00156C3.24732 6.00156 2.79961 6.44927 2.79961 7.00156V12.2016C2.79961 12.7539 3.24732 13.2016 3.79961 13.2016H12.1996C12.7519 13.2016 13.1996 12.7539 13.1996 12.2016V7.00156C13.1996 6.44927 12.7519 6.00156 12.1996 6.00156H3.79961Z" fill="#0F172A"/>
</svg>
