<svg width="16" height="16" viewBox="0 0 16 16" fill="none" xmlns="http://www.w3.org/2000/svg">
<path d="M14.6658 12.2194C14.6658 12.4594 14.6124 12.7061 14.4991 12.9461C14.3858 13.1861 14.2391 13.4127 14.0458 13.6261C13.7191 13.9861 13.3591 14.2461 12.9524 14.4127C12.5524 14.5794 12.1124 14.6661 11.6458 14.6661C10.9658 14.6661 10.2391 14.5061 9.47242 14.1794C8.70578 13.8527 7.93243 13.4127 7.17243 12.8594C6.78576 12.5727 6.40573 12.2794 6.03906 11.9594L8.21242 9.7861C8.21906 9.7861 8.21906 9.7861 8.22578 9.79274C8.57242 10.0861 8.85906 10.2861 9.08578 10.4061C9.11906 10.4194 9.15906 10.4394 9.20578 10.4594C9.25906 10.4794 9.31242 10.4861 9.37242 10.4861C9.48578 10.4861 9.57242 10.4461 9.64578 10.3727L10.1524 9.87274C10.3191 9.7061 10.4791 9.57938 10.6324 9.49938C10.7858 9.4061 10.9391 9.35938 11.1058 9.35938C11.2324 9.35938 11.3658 9.3861 11.5124 9.4461C11.6591 9.5061 11.8124 9.59274 11.9791 9.7061L14.1924 11.2727C14.3658 11.3927 14.4858 11.5327 14.5591 11.6994C14.6258 11.8661 14.6658 12.0327 14.6658 12.2194Z" fill="white"/>
<path d="M7.17398 8.82924L5.00066 11.0026C4.99398 11.0026 4.99398 11.0026 4.98732 10.996C4.30066 10.3026 3.68066 9.57596 3.12066 8.81596C2.58066 8.06924 2.14732 7.31594 1.82732 6.57594C1.82066 6.5626 1.82066 6.55594 1.81398 6.5426C1.49398 5.7826 1.33398 5.05594 1.33398 4.3626C1.33398 3.90927 1.41398 3.47594 1.57398 3.07594C1.70732 2.73594 1.90732 2.41594 2.18066 2.12927C2.22732 2.07594 2.28066 2.01594 2.34066 1.9626C2.44732 1.85594 2.55398 1.7626 2.66732 1.68927C2.67398 1.68927 2.67398 1.68927 2.67398 1.68927C3.00732 1.44927 3.36066 1.33594 3.73398 1.33594C3.92066 1.33594 4.10732 1.37594 4.27398 1.45594C4.43398 1.52927 4.57398 1.63594 4.68732 1.78927C4.70066 1.8026 4.70732 1.81594 4.72066 1.82927L6.26732 4.00927C6.38732 4.17594 6.47398 4.32927 6.53398 4.47594C6.59398 4.61594 6.62732 4.75594 6.62732 4.8826C6.62732 5.0426 6.58065 5.2026 6.48732 5.35594C6.40065 5.50927 6.27398 5.66927 6.11398 5.82927L5.60732 6.35594C5.53398 6.42927 5.50066 6.51594 5.50066 6.6226C5.50066 6.67594 5.50732 6.7226 5.52066 6.77594C5.54066 6.82927 5.56066 6.86927 5.57398 6.90927C5.69398 7.12927 5.90066 7.41594 6.19398 7.7626C6.49398 8.10924 6.81398 8.4626 7.16066 8.81596C7.16732 8.8226 7.16732 8.8226 7.17398 8.82924Z" fill="white"/>
<path d="M14.5126 1.48594C14.3126 1.28594 13.9859 1.28594 13.7859 1.48594L1.48594 13.7926C1.28594 13.9926 1.28594 14.3193 1.48594 14.5193C1.58594 14.6126 1.7126 14.666 1.84594 14.666C1.97927 14.666 2.10594 14.6126 2.20594 14.5126L14.5126 2.20594C14.7193 2.00594 14.7193 1.68594 14.5126 1.48594Z" fill="white"/>
</svg>
