<svg width="16" height="16" viewBox="0 0 16 16" fill="none" xmlns="http://www.w3.org/2000/svg">
<path d="M12.7073 3.99864L13.5339 3.17198C13.7273 2.97864 13.7273 2.65864 13.5339 2.46531C13.3406 2.27198 13.0206 2.27198 12.8273 2.46531L12.0006 3.29198L11.1739 2.46531C10.9806 2.27198 10.6606 2.27198 10.4673 2.46531C10.2739 2.65864 10.2739 2.97864 10.4673 3.17198L11.2939 3.99864L10.4673 4.82531C10.2739 5.01864 10.2739 5.33864 10.4673 5.53198C10.5673 5.63198 10.6939 5.67864 10.8206 5.67864C10.9473 5.67864 11.0739 5.63198 11.1739 5.53198L12.0006 4.70531L12.8273 5.53198C12.9273 5.63198 13.0539 5.67864 13.1806 5.67864C13.3073 5.67864 13.4339 5.63198 13.5339 5.53198C13.7273 5.33864 13.7273 5.01864 13.5339 4.82531L12.7073 3.99864Z" fill="white"/>
<path d="M7.36732 9.96924L6.13398 11.2026C5.87398 11.4626 5.46066 11.4626 5.19398 11.2092C5.12066 11.136 5.04732 11.0692 4.97398 10.996C4.28732 10.3026 3.66732 9.57596 3.11398 8.81596C2.56732 8.05596 2.12732 7.29594 1.80732 6.5426C1.49398 5.7826 1.33398 5.05594 1.33398 4.3626C1.33398 3.90927 1.41398 3.47594 1.57398 3.07594C1.73398 2.66927 1.98732 2.29594 2.34066 1.9626C2.76732 1.5426 3.23398 1.33594 3.72732 1.33594C3.91398 1.33594 4.10066 1.37594 4.26732 1.45594C4.44066 1.53594 4.59398 1.65594 4.71398 1.82927L6.26066 4.00927C6.38066 4.17594 6.46732 4.32927 6.52732 4.47594C6.58732 4.61594 6.62066 4.75594 6.62066 4.8826C6.62066 5.0426 6.57398 5.2026 6.48066 5.35594C6.39398 5.50927 6.26732 5.66927 6.10732 5.82927L5.60066 6.35594C5.52732 6.42927 5.49398 6.51594 5.49398 6.6226C5.49398 6.67594 5.50066 6.7226 5.51398 6.77594C5.53398 6.82927 5.55398 6.86927 5.56732 6.90927C5.68732 7.12927 5.89398 7.41594 6.18732 7.7626C6.48732 8.10924 6.80732 8.4626 7.15398 8.81596C7.22065 8.8826 7.29398 8.94924 7.36066 9.01596C7.62732 9.27596 7.63398 9.7026 7.36732 9.96924Z" fill="white"/>
<path d="M14.647 12.2194C14.647 12.4061 14.6138 12.5994 14.547 12.7861C14.527 12.8394 14.507 12.8927 14.4804 12.9461C14.367 13.1861 14.2204 13.4127 14.027 13.6261C13.7004 13.9861 13.3404 14.2461 12.9338 14.4127C12.927 14.4127 12.9204 14.4194 12.9138 14.4194C12.5204 14.5794 12.0938 14.6661 11.6338 14.6661C10.9538 14.6661 10.227 14.5061 9.46039 14.1794C8.69375 13.8527 7.92705 13.4127 7.16705 12.8594C6.90705 12.6661 6.64705 12.4727 6.40039 12.2661L8.58039 10.0861C8.76703 10.2261 8.93375 10.3327 9.07375 10.4061C9.10703 10.4194 9.14703 10.4394 9.19375 10.4594C9.24703 10.4794 9.30039 10.4861 9.36039 10.4861C9.47375 10.4861 9.56039 10.4461 9.63375 10.3727L10.1404 9.87274C10.307 9.7061 10.467 9.57938 10.6204 9.49938C10.7738 9.4061 10.927 9.35938 11.0938 9.35938C11.2204 9.35938 11.3538 9.3861 11.5004 9.4461C11.647 9.5061 11.8004 9.59274 11.967 9.7061L14.1738 11.2727C14.347 11.3927 14.467 11.5327 14.5404 11.6994C14.607 11.8661 14.647 12.0327 14.647 12.2194Z" fill="white"/>
</svg>
