<svg width="16" height="16" viewBox="0 0 16 16" fill="none" xmlns="http://www.w3.org/2000/svg">
<path fill-rule="evenodd" clip-rule="evenodd" d="M0.800781 6.39844C0.800781 5.51478 1.51713 4.79844 2.40078 4.79844H3.14449C3.67945 4.79844 4.17902 4.53108 4.47577 4.08596L5.1258 3.11092C5.42254 2.6658 5.92211 2.39844 6.45708 2.39844H9.54446C10.0794 2.39844 10.579 2.6658 10.8757 3.11092L11.5258 4.08596C11.8225 4.53108 12.3221 4.79844 12.8571 4.79844H13.6008C14.4845 4.79844 15.2008 5.51478 15.2008 6.39844V11.9984C15.2008 12.8821 14.4845 13.5984 13.6008 13.5984H2.40078C1.51713 13.5984 0.800781 12.8821 0.800781 11.9984V6.39844ZM11.6008 8.79844C11.6008 10.7867 9.98902 12.3984 8.00078 12.3984C6.01256 12.3984 4.40078 10.7867 4.40078 8.79844C4.40078 6.81021 6.01256 5.19844 8.00078 5.19844C9.98902 5.19844 11.6008 6.81021 11.6008 8.79844ZM8.00078 11.1984C9.3263 11.1984 10.4008 10.124 10.4008 8.79844C10.4008 7.47296 9.3263 6.39844 8.00078 6.39844C6.6753 6.39844 5.60078 7.47296 5.60078 8.79844C5.60078 10.124 6.6753 11.1984 8.00078 11.1984Z" fill="#0F172A"/>
</svg>
