<svg width="16" height="16" viewBox="0 0 16 16" fill="none" xmlns="http://www.w3.org/2000/svg">
<path d="M14.5126 1.48594C14.3126 1.28594 13.9859 1.28594 13.7859 1.48594L1.48594 13.7926C1.28594 13.9926 1.28594 14.3193 1.48594 14.5193C1.58594 14.6126 1.7126 14.666 1.84594 14.666C1.97927 14.666 2.10594 14.6126 2.20594 14.5126L14.5126 2.20594C14.7193 2.00594 14.7193 1.68594 14.5126 1.48594Z" fill="white"/>
<path d="M11.0328 3.40927L10.5528 2.4426C10.2462 1.83594 9.44617 1.33594 8.76617 1.33594H7.23948C6.5528 1.33594 5.7528 1.83594 5.44613 2.4426L4.96613 3.40927C4.77946 3.76927 4.40613 4.0026 3.99946 4.0026C2.5528 4.0026 1.40613 5.2226 1.49946 6.6626L1.84613 12.1692C1.87946 12.736 2.01946 13.2626 2.31946 13.6826L11.9995 4.0026C11.5928 4.0026 11.2195 3.76927 11.0328 3.40927ZM6.3328 7.16927H4.3328C4.05946 7.16927 3.8328 6.9426 3.8328 6.66927C3.8328 6.39594 4.05946 6.16927 4.3328 6.16927H6.3328C6.60613 6.16927 6.83282 6.39594 6.83282 6.66927C6.83282 6.9426 6.60613 7.16927 6.3328 7.16927Z" fill="white"/>
<path d="M14.5009 6.6602L14.1541 12.1669C14.0675 13.5402 13.3341 14.6669 11.4941 14.6669H4.94082C4.34749 14.6669 4.04749 13.9469 4.46749 13.5269L6.11416 11.8802C6.32082 11.6735 6.64082 11.6469 6.90085 11.7935C7.36085 12.0535 7.91418 12.1535 8.50087 12.0269C9.34751 11.8469 10.0341 11.1535 10.2009 10.3002C10.3141 9.7269 10.2141 9.1869 9.96087 8.74018C9.81415 8.48018 9.83415 8.15354 10.0475 7.94687L13.0475 4.94687C13.3209 4.67353 13.7809 4.70687 14.0141 5.0202C14.3609 5.47353 14.5409 6.04687 14.5009 6.6602Z" fill="white"/>
</svg>
