<svg width="16" height="16" viewBox="0 0 16 16" fill="none" xmlns="http://www.w3.org/2000/svg">
<path d="M15.1674 11.6641C15.1674 11.9374 14.9406 12.1641 14.6674 12.1641H10.0006V12.3308C10.0006 13.3308 9.40063 13.6641 8.66735 13.6641H4.66732C3.93398 13.6641 3.33398 13.3308 3.33398 12.3308V12.1641H1.33398C1.06066 12.1641 0.833984 11.9374 0.833984 11.6641C0.833984 11.3908 1.06066 11.1641 1.33398 11.1641H3.33398V10.9974C3.33398 9.99742 3.93398 9.66406 4.66732 9.66406H8.66735C9.40063 9.66406 10.0006 9.99742 10.0006 10.9974V11.1641H14.6674C14.9406 11.1641 15.1674 11.3908 15.1674 11.6641Z" fill="white"/>
<path d="M15.1674 4.33594C15.1674 4.60927 14.9406 4.83594 14.6674 4.83594H12.6674V5.0026C12.6674 6.0026 12.0674 6.33594 11.334 6.33594H7.33398C6.60066 6.33594 6.00066 6.0026 6.00066 5.0026V4.83594H1.33398C1.06066 4.83594 0.833984 4.60927 0.833984 4.33594C0.833984 4.0626 1.06066 3.83594 1.33398 3.83594H6.00066V3.66927C6.00066 2.66927 6.60066 2.33594 7.33398 2.33594H11.334C12.0674 2.33594 12.6674 2.66927 12.6674 3.66927V3.83594H14.6674C14.9406 3.83594 15.1674 4.0626 15.1674 4.33594Z" fill="white"/>
</svg>
