<svg width="16" height="16" viewBox="0 0 16 16" fill="none" xmlns="http://www.w3.org/2000/svg">
<path d="M5 3.0026H4.83334V1.33594C4.83334 1.0626 4.60666 0.835938 4.33334 0.835938C4.06 0.835938 3.83334 1.0626 3.83334 1.33594V3.0026H3.66666C2.60666 3.0026 2 3.60927 2 4.66927V8.66924C2 9.72924 2.60666 10.336 3.66666 10.336H3.83334V14.6692C3.83334 14.9426 4.06 15.1692 4.33334 15.1692C4.60666 15.1692 4.83334 14.9426 4.83334 14.6692V10.336H5C6.06 10.336 6.66666 9.72924 6.66666 8.66924V4.66927C6.66666 3.60927 6.06 3.0026 5 3.0026Z" fill="white"/>
<path d="M12.334 5.66927H12.1673V1.33594C12.1673 1.0626 11.9406 0.835938 11.6673 0.835938C11.394 0.835938 11.1673 1.0626 11.1673 1.33594V5.66927H11.0006C9.94062 5.66927 9.33398 6.27594 9.33398 7.33594V11.336C9.33398 12.396 9.94062 13.0026 11.0006 13.0026H11.1673V14.6692C11.1673 14.9426 11.394 15.1692 11.6673 15.1692C11.9406 15.1692 12.1673 14.9426 12.1673 14.6692V13.0026H12.334C13.394 13.0026 14.0006 12.396 14.0006 11.336V7.33594C14.0006 6.27594 13.394 5.66927 12.334 5.66927Z" fill="white"/>
</svg>
