<svg width="16" height="16" viewBox="0 0 16 16" fill="none" xmlns="http://www.w3.org/2000/svg">
<path d="M14.5 5.33338C14.5 5.60671 14.2734 5.83338 14 5.83338H2C1.72666 5.83338 1.5 5.60671 1.5 5.33338C1.5 5.06005 1.72666 4.83338 2 4.83338H2.68L2.93334 3.62672C3.17334 2.46005 3.67334 1.38672 5.66 1.38672H10.34C12.3266 1.38672 12.8266 2.46005 13.0666 3.62672L13.32 4.83338H14C14.2734 4.83338 14.5 5.06005 14.5 5.33338Z" fill="white"/>
<path d="M14.7864 9.10924C14.6864 8.00924 14.393 6.83594 12.253 6.83594H3.7464C1.6064 6.83594 1.31973 8.00924 1.21307 9.10924L0.839731 13.1692C0.793068 13.676 0.959731 14.1826 1.3064 14.5626C1.65973 14.9492 2.15973 15.1692 2.69307 15.1692H3.9464C5.0264 15.1692 5.23307 14.5492 5.3664 14.1426L5.49973 13.7426C5.65307 13.2826 5.69307 13.1692 6.29307 13.1692H9.7064C10.3064 13.1692 10.3264 13.236 10.4998 13.7426L10.633 14.1426C10.7664 14.5492 10.973 15.1692 12.053 15.1692H13.3064C13.833 15.1692 14.3398 14.9492 14.693 14.5626C15.0398 14.1826 15.2064 13.676 15.1598 13.1692L14.7864 9.10924ZM5.99973 10.5026H3.99973C3.7264 10.5026 3.49973 10.276 3.49973 10.0026C3.49973 9.72924 3.7264 9.5026 3.99973 9.5026H5.99973C6.27307 9.5026 6.49973 9.72924 6.49973 10.0026C6.49973 10.276 6.27307 10.5026 5.99973 10.5026ZM11.9998 10.5026H9.99976C9.7264 10.5026 9.49976 10.276 9.49976 10.0026C9.49976 9.72924 9.7264 9.5026 9.99976 9.5026H11.9998C12.273 9.5026 12.4998 9.72924 12.4998 10.0026C12.4998 10.276 12.273 10.5026 11.9998 10.5026Z" fill="white"/>
</svg>
