<svg width="16" height="16" viewBox="0 0 16 16" fill="none" xmlns="http://www.w3.org/2000/svg">
<path d="M14.6674 14.1641C14.6674 14.4374 14.4406 14.6641 14.1674 14.6641H1.83398C1.56066 14.6641 1.33398 14.4374 1.33398 14.1641C1.33398 13.8908 1.56066 13.6641 1.83398 13.6641H14.1674C14.4406 13.6641 14.6674 13.8908 14.6674 14.1641Z" fill="white"/>
<path d="M10.2596 3.01318L3.09964 10.1732C2.8263 10.4465 2.3863 10.4465 2.11964 10.1732H2.11297C1.1863 9.23986 1.1863 7.7332 2.11297 6.80653L6.87962 2.03985C7.81295 1.10651 9.31962 1.10651 10.253 2.03985C10.5263 2.29985 10.5263 2.74651 10.2596 3.01318Z" fill="white"/>
<path d="M13.8803 5.66021L11.847 3.62687C11.5736 3.35354 11.1336 3.35354 10.867 3.62687L3.70696 10.7869C3.43362 11.0535 3.43362 11.4935 3.70696 11.7669L5.74029 13.8069C6.6736 14.7335 8.18025 14.7335 9.11361 13.8069L13.8736 9.04024C14.8203 8.10688 14.8203 6.59354 13.8803 5.66021ZM8.50697 11.6802L7.70027 12.4935C7.5336 12.6602 7.26027 12.6602 7.08693 12.4935C6.92027 12.3269 6.92027 12.0535 7.08693 11.8802L7.90027 11.0669C8.06025 10.9069 8.34025 10.9069 8.50697 11.0669C8.67361 11.2335 8.67361 11.5202 8.50697 11.6802ZM11.1536 9.03352L9.52697 10.6669C9.36025 10.8269 9.08697 10.8269 8.91361 10.6669C8.74697 10.5002 8.74697 10.2269 8.91361 10.0535L10.547 8.42024C10.707 8.26024 10.987 8.26024 11.1536 8.42024C11.3203 8.59352 11.3203 8.86688 11.1536 9.03352Z" fill="white"/>
</svg>
