<svg width="16" height="16" viewBox="0 0 16 16" fill="none" xmlns="http://www.w3.org/2000/svg">
<path d="M12.6666 10C11.1934 10 10 11.1934 10 12.6666C10 13.1666 10.14 13.64 10.3866 14.04C10.8466 14.8134 11.6934 15.3334 12.6666 15.3334C13.64 15.3334 14.4866 14.8134 14.9466 14.04C15.1934 13.64 15.3334 13.1666 15.3334 12.6666C15.3334 11.1934 14.14 10 12.6666 10ZM14.0466 12.38L12.6266 13.6934C12.5334 13.78 12.4066 13.8266 12.2866 13.8266C12.16 13.8266 12.0334 13.78 11.9334 13.68L11.2734 13.02C11.08 12.8266 11.08 12.5066 11.2734 12.3134C11.4666 12.12 11.7866 12.12 11.98 12.3134L12.3 12.6334L13.3666 11.6466C13.5666 11.46 13.8866 11.4734 14.0734 11.6734C14.26 11.8734 14.2466 12.1866 14.0466 12.38Z" fill="white"/>
<path d="M14.6674 5.03229V5.33229C14.6674 5.69896 14.3674 5.99896 14.0006 5.99896H2.00066C1.63398 5.99896 1.33398 5.69896 1.33398 5.33229V5.02562C1.33398 3.49896 2.56732 2.26562 4.09398 2.26562H11.9006C13.4274 2.26562 14.6674 3.50562 14.6674 5.03229Z" fill="white"/>
<path d="M1.33398 7.66552V10.9722C1.33398 12.4988 2.56732 13.7322 4.09398 13.7322H8.26735C8.65399 13.7322 8.98735 13.4056 8.95399 13.0188C8.86063 11.9988 9.18735 10.8922 10.094 10.0122C10.4674 9.64556 10.9274 9.36555 11.4274 9.20555C12.2606 8.93883 13.0674 8.9722 13.7806 9.2122C14.214 9.35884 14.6674 9.04556 14.6674 8.58556V7.65885C14.6674 7.29219 14.3674 6.99219 14.0006 6.99219H2.00066C1.63398 6.99885 1.33398 7.29885 1.33398 7.66552ZM5.33398 11.4988H4.00066C3.72732 11.4988 3.50066 11.2722 3.50066 10.9988C3.50066 10.7256 3.72732 10.4988 4.00066 10.4988H5.33398C5.60732 10.4988 5.83398 10.7256 5.83398 10.9988C5.83398 11.2722 5.60732 11.4988 5.33398 11.4988Z" fill="white"/>
</svg>
