<svg width="16" height="16" viewBox="0 0 16 16" fill="none" xmlns="http://www.w3.org/2000/svg">
<path d="M13.3134 5.83073H11.3534C10.5066 5.83073 10 5.32406 10 4.4774V2.5174C10 1.67073 10.5066 1.16406 11.3534 1.16406H13.3134C14.16 1.16406 14.6666 1.67073 14.6666 2.5174V4.4774C14.6666 5.32406 14.16 5.83073 13.3134 5.83073ZM13.46 3.62406C13.38 3.54406 13.2734 3.50406 13.1666 3.50406C13.06 3.50406 12.9534 3.54406 12.8734 3.62406L12.7534 3.74406V2.25073C12.7534 2.0174 12.5666 1.83073 12.3334 1.83073C12.1 1.83073 11.9134 2.0174 11.9134 2.25073V3.74406L11.7934 3.62406C11.6334 3.46406 11.3666 3.46406 11.2066 3.62406C11.0466 3.78406 11.0466 4.05073 11.2066 4.21073L12.04 5.04406C12.0734 5.0774 12.12 5.10406 12.1666 5.12406C12.18 5.13073 12.1934 5.13073 12.2066 5.1374C12.24 5.15073 12.2734 5.1574 12.3134 5.1574C12.3266 5.1574 12.34 5.1574 12.3534 5.1574C12.4 5.1574 12.44 5.15073 12.4866 5.13073C12.4934 5.13073 12.4934 5.13073 12.5 5.13073C12.5466 5.11073 12.5866 5.08406 12.62 5.05073C12.6266 5.04406 12.6266 5.04406 12.6334 5.04406L13.4666 4.21073C13.6266 4.05073 13.6266 3.78406 13.46 3.62406Z" fill="white"/>
<path d="M1.33398 7.6426V10.976C1.33398 12.5026 2.56732 13.736 4.09398 13.736H11.9006C13.4274 13.736 14.6674 12.496 14.6674 10.9692V7.6426C14.6674 7.19594 14.3074 6.83594 13.8606 6.83594H2.14066C1.69398 6.83594 1.33398 7.19594 1.33398 7.6426ZM5.33398 11.5026H4.00066C3.72732 11.5026 3.50066 11.276 3.50066 11.0026C3.50066 10.7292 3.72732 10.5026 4.00066 10.5026H5.33398C5.60732 10.5026 5.83398 10.7292 5.83398 11.0026C5.83398 11.276 5.60732 11.5026 5.33398 11.5026ZM9.66735 11.5026H7.00066C6.72732 11.5026 6.50066 11.276 6.50066 11.0026C6.50066 10.7292 6.72732 10.5026 7.00066 10.5026H9.66735C9.94063 10.5026 10.1674 10.7292 10.1674 11.0026C10.1674 11.276 9.94063 11.5026 9.66735 11.5026Z" fill="white"/>
<path d="M9.00063 3.07229V5.02562C9.00063 5.47229 8.64063 5.83229 8.19399 5.83229H2.14066C1.68732 5.83229 1.33398 5.45896 1.33398 5.01229C1.34066 4.25896 1.64066 3.57229 2.14066 3.07229C2.64066 2.57229 3.33398 2.26562 4.09398 2.26562H8.19399C8.64063 2.26562 9.00063 2.62562 9.00063 3.07229Z" fill="white"/>
</svg>
