<svg width="16" height="16" viewBox="0 0 16 16" fill="none" xmlns="http://www.w3.org/2000/svg">
<path d="M10.1474 4.36719H3.85398C3.66732 4.36719 3.49398 4.37385 3.33398 4.38052C1.75398 4.47385 1.33398 5.05385 1.33398 6.85387V7.24053C1.33398 7.6072 1.63398 7.9072 2.00066 7.9072H12.0006C12.3674 7.9072 12.6674 7.6072 12.6674 7.24053V6.85387C12.6674 4.86719 12.1606 4.36719 10.1474 4.36719Z" fill="white"/>
<path d="M2.00066 8.90625C1.63398 8.90625 1.33398 9.20625 1.33398 9.57289V11.5129C1.33398 13.4996 1.84066 13.9996 3.85398 13.9996H10.1474C12.1274 13.9996 12.6474 13.5196 12.6674 11.6196V9.57289C12.6674 9.20625 12.3674 8.90625 12.0006 8.90625H2.00066ZM4.64066 12.3729H3.50066C3.22732 12.3729 3.00066 12.1462 3.00066 11.8729C3.00066 11.5996 3.22732 11.3729 3.50066 11.3729H4.64732C4.92066 11.3729 5.14732 11.5996 5.14732 11.8729C5.14732 12.1462 4.92066 12.3729 4.64066 12.3729ZM8.36735 12.3729H6.07398C5.80066 12.3729 5.57398 12.1462 5.57398 11.8729C5.57398 11.5996 5.80066 11.3729 6.07398 11.3729H8.36735C8.64063 11.3729 8.86735 11.5996 8.86735 11.8729C8.86735 12.1462 8.64735 12.3729 8.36735 12.3729Z" fill="white"/>
<path d="M14.667 8.88508V5.39177C14.667 3.3051 13.4737 2.39844 11.6737 2.39844H5.7204C5.21373 2.39844 4.7604 2.47177 4.3604 2.6251C4.04706 2.73844 3.76706 2.9051 3.5404 3.1251C3.4204 3.23844 3.51373 3.4251 3.68706 3.4251H10.9337C12.4337 3.4251 13.647 4.63844 13.647 6.13844V10.9184C13.647 11.0851 13.827 11.1784 13.947 11.0584C14.407 10.5718 14.667 9.85844 14.667 8.88508Z" fill="white"/>
</svg>
