<svg width="16" height="16" viewBox="0 0 16 16" fill="none" xmlns="http://www.w3.org/2000/svg">
<path d="M1.33398 7.6426V10.976C1.33398 12.5026 2.56732 13.736 4.09398 13.736H11.9006C13.4274 13.736 14.6674 12.496 14.6674 10.9692V7.6426C14.6674 7.19594 14.3074 6.83594 13.8606 6.83594H2.14066C1.69398 6.83594 1.33398 7.19594 1.33398 7.6426ZM5.33398 11.5026H4.00066C3.72732 11.5026 3.50066 11.276 3.50066 11.0026C3.50066 10.7292 3.72732 10.5026 4.00066 10.5026H5.33398C5.60732 10.5026 5.83398 10.7292 5.83398 11.0026C5.83398 11.276 5.60732 11.5026 5.33398 11.5026ZM9.66735 11.5026H7.00066C6.72732 11.5026 6.50066 11.276 6.50066 11.0026C6.50066 10.7292 6.72732 10.5026 7.00066 10.5026H9.66735C9.94063 10.5026 10.1674 10.7292 10.1674 11.0026C10.1674 11.276 9.94063 11.5026 9.66735 11.5026Z" fill="white"/>
<path d="M9.00063 3.07229V5.02562C9.00063 5.47229 8.64063 5.83229 8.19399 5.83229H2.14066C1.68732 5.83229 1.33398 5.45896 1.33398 5.01229C1.34066 4.25896 1.64066 3.57229 2.14066 3.07229C2.64066 2.57229 3.33398 2.26562 4.09398 2.26562H8.19399C8.64063 2.26562 9.00063 2.62562 9.00063 3.07229Z" fill="white"/>
<path d="M13.3134 1.33594H11.3534C10.5066 1.33594 10 1.8426 10 2.68927V4.64927C10 5.49594 10.5066 6.0026 11.3534 6.0026H13.3134C14.16 6.0026 14.6666 5.49594 14.6666 4.64927V2.68927C14.6666 1.8426 14.16 1.33594 13.3134 1.33594ZM13.7534 2.96927L12.1734 4.81594C12.1134 4.88927 12.02 4.93594 11.9266 4.93594C11.92 4.93594 11.92 4.93594 11.9134 4.93594C11.82 4.93594 11.7334 4.9026 11.6666 4.83594L10.9334 4.11594C10.8 3.9826 10.8 3.7626 10.9334 3.62927C11.0666 3.49594 11.2866 3.48927 11.42 3.62927L11.8866 4.08927L13.22 2.52927C13.3466 2.3826 13.56 2.36927 13.7066 2.48927C13.86 2.60927 13.8734 2.82927 13.7534 2.96927Z" fill="white"/>
</svg>
