<svg width="16" height="16" viewBox="0 0 16 16" fill="none" xmlns="http://www.w3.org/2000/svg">
<path d="M9.00063 3.07229V5.02562C9.00063 5.47229 8.64063 5.83229 8.19399 5.83229H2.14066C1.68732 5.83229 1.33398 5.45896 1.33398 5.01229C1.34066 4.25896 1.64066 3.57229 2.14066 3.07229C2.64066 2.57229 3.33398 2.26562 4.09398 2.26562H8.19399C8.64063 2.26562 9.00063 2.62562 9.00063 3.07229Z" fill="white"/>
<path d="M1.33398 7.6426V10.976C1.33398 12.5026 2.56732 13.736 4.09398 13.736H11.9006C13.4274 13.736 14.6674 12.496 14.6674 10.9692V7.6426C14.6674 7.19594 14.3074 6.83594 13.8606 6.83594H2.14066C1.69398 6.83594 1.33398 7.19594 1.33398 7.6426ZM5.33398 11.5026H4.00066C3.72732 11.5026 3.50066 11.276 3.50066 11.0026C3.50066 10.7292 3.72732 10.5026 4.00066 10.5026H5.33398C5.60732 10.5026 5.83398 10.7292 5.83398 11.0026C5.83398 11.276 5.60732 11.5026 5.33398 11.5026ZM9.66735 11.5026H7.00066C6.72732 11.5026 6.50066 11.276 6.50066 11.0026C6.50066 10.7292 6.72732 10.5026 7.00066 10.5026H9.66735C9.94063 10.5026 10.1674 10.7292 10.1674 11.0026C10.1674 11.276 9.94063 11.5026 9.66735 11.5026Z" fill="white"/>
<path d="M13.3134 1.16406H11.3534C10.5066 1.16406 10 1.67073 10 2.5174V4.4774C10 5.32406 10.5066 5.83073 11.3534 5.83073H13.3134C14.16 5.83073 14.6666 5.32406 14.6666 4.4774V2.5174C14.6666 1.67073 14.16 1.16406 13.3134 1.16406ZM12.0066 4.8774C11.9866 4.8974 11.94 4.92406 11.9066 4.92406L11.2134 5.02406C11.1934 5.03073 11.1666 5.03073 11.1466 5.03073C11.0466 5.03073 10.96 4.9974 10.9 4.93073C10.82 4.85073 10.7866 4.7374 10.8066 4.6174L10.9066 3.92406C10.9134 3.89073 10.9334 3.84406 10.9534 3.82406L12.0866 2.69073C12.1066 2.7374 12.1266 2.79073 12.1466 2.84406C12.1734 2.8974 12.2 2.94406 12.2266 2.99073C12.2466 3.03073 12.2734 3.07073 12.3 3.0974C12.3266 3.1374 12.3534 3.1774 12.3734 3.1974C12.3866 3.2174 12.3934 3.22406 12.4 3.23073C12.46 3.30406 12.5266 3.37073 12.5866 3.4174C12.6 3.43073 12.6134 3.44406 12.62 3.44406C12.6534 3.47073 12.6934 3.50406 12.72 3.52406C12.76 3.55073 12.7934 3.5774 12.8334 3.5974C12.88 3.62406 12.9334 3.65073 12.9866 3.6774C13.04 3.70406 13.0934 3.72406 13.14 3.7374L12.0066 4.8774ZM13.6 3.28406L13.38 3.50406C13.3734 3.5174 13.3534 3.52406 13.3334 3.52406C13.3266 3.52406 13.32 3.52406 13.3134 3.52406C12.8334 3.38406 12.4534 3.00406 12.3134 2.52406C12.3066 2.4974 12.3134 2.47073 12.3334 2.45073L12.5534 2.23073C12.9134 1.87073 13.2534 1.8774 13.6066 2.23073C13.7866 2.41073 13.8734 2.58406 13.8734 2.7574C13.8666 2.93073 13.78 3.10406 13.6 3.28406Z" fill="white"/>
</svg>
