<svg width="16" height="16" viewBox="0 0 16 16" fill="none" xmlns="http://www.w3.org/2000/svg">
<path d="M12.6002 10.0195C11.127 10.0195 9.93359 11.2129 9.93359 12.6863C9.93359 14.1595 11.127 15.3529 12.6002 15.3529C14.0736 15.3529 15.267 14.1595 15.267 12.6863C15.267 11.2129 14.0736 10.0195 12.6002 10.0195ZM13.667 13.7863C13.567 13.8863 13.4402 13.9329 13.3136 13.9329C13.187 13.9329 13.0602 13.8863 12.9602 13.7863L12.607 13.4329L12.2402 13.7995C12.1402 13.8995 12.0136 13.9463 11.887 13.9463C11.7602 13.9463 11.6336 13.8995 11.5336 13.7995C11.3402 13.6063 11.3402 13.2863 11.5336 13.0929L11.9002 12.7263L11.547 12.3729C11.3536 12.1795 11.3536 11.8595 11.547 11.6663C11.7402 11.4729 12.0602 11.4729 12.2536 11.6663L12.607 12.0195L12.9402 11.6863C13.1336 11.4929 13.4536 11.4929 13.647 11.6863C13.8402 11.8795 13.8402 12.1995 13.647 12.3929L13.3136 12.7263L13.667 13.0795C13.8602 13.2729 13.8602 13.5929 13.667 13.7863Z" fill="white"/>
<path d="M14.6674 5.03229V5.33229C14.6674 5.69896 14.3674 5.99896 14.0006 5.99896H2.00066C1.63398 5.99896 1.33398 5.69896 1.33398 5.33229V5.02562C1.33398 3.49896 2.56732 2.26562 4.09398 2.26562H11.9006C13.4274 2.26562 14.6674 3.50562 14.6674 5.03229Z" fill="white"/>
<path d="M1.33398 7.66552V10.9722C1.33398 12.4988 2.56732 13.7322 4.09398 13.7322H8.26735C8.65399 13.7322 8.98735 13.4056 8.95399 13.0188C8.86063 11.9988 9.18735 10.8922 10.094 10.0122C10.4674 9.64556 10.9274 9.36555 11.4274 9.20555C12.2606 8.93883 13.0674 8.9722 13.7806 9.2122C14.214 9.35884 14.6674 9.04556 14.6674 8.58556V7.65885C14.6674 7.29219 14.3674 6.99219 14.0006 6.99219H2.00066C1.63398 6.99885 1.33398 7.29885 1.33398 7.66552ZM5.33398 11.4988H4.00066C3.72732 11.4988 3.50066 11.2722 3.50066 10.9988C3.50066 10.7256 3.72732 10.4988 4.00066 10.4988H5.33398C5.60732 10.4988 5.83398 10.7256 5.83398 10.9988C5.83398 11.2722 5.60732 11.4988 5.33398 11.4988Z" fill="white"/>
</svg>
