<svg width="16" height="16" viewBox="0 0 16 16" fill="none" xmlns="http://www.w3.org/2000/svg">
<path d="M12.8474 2.43229L9.44735 5.83229H2.13398C1.69398 5.83229 1.33398 5.47229 1.33398 5.03229V5.02562C1.33398 3.49896 2.56732 2.26562 4.09398 2.26562H11.9006C12.234 2.26562 12.554 2.32562 12.8474 2.43229Z" fill="white"/>
<path d="M8.44735 6.83594L4.78066 10.5026H4.00066C3.72732 10.5026 3.50066 10.7292 3.50066 11.0026C3.50066 11.2092 3.63398 11.396 3.82066 11.4626L2.25398 13.0292C1.68732 12.5292 1.33398 11.796 1.33398 10.976V7.63594C1.33398 7.19594 1.69398 6.83594 2.13398 6.83594H8.44735Z" fill="white"/>
<path d="M14.6658 7.33073V10.9708C14.6658 12.4974 13.4325 13.7308 11.9058 13.7308H5.87247C5.27913 13.7308 4.97913 13.0108 5.39913 12.5908L6.29913 11.6908C6.4258 11.564 6.59247 11.4974 6.77249 11.4974H9.66578C9.93914 11.4974 10.1658 11.2708 10.1658 10.9974C10.1658 10.724 9.93914 10.4974 9.66578 10.4974H9.10578C8.5125 10.4974 8.2125 9.7774 8.6325 9.3574L10.9391 7.05073C11.1925 6.80406 11.5325 6.66406 11.8858 6.66406H13.9991C14.3658 6.66406 14.6658 6.96406 14.6658 7.33073Z" fill="white"/>
<path d="M14.5126 1.48594C14.3126 1.28594 13.9859 1.28594 13.7859 1.48594L1.48594 13.7926C1.28594 13.9926 1.28594 14.3193 1.48594 14.5193C1.58594 14.6126 1.7126 14.666 1.84594 14.666C1.97927 14.666 2.10594 14.6126 2.20594 14.5126L14.5126 2.20594C14.7193 2.00594 14.7193 1.68594 14.5126 1.48594Z" fill="white"/>
<path d="M14.5137 2.20703L13.7404 2.98037L10.887 5.8337L2.20703 14.5137C2.10703 14.6137 1.98037 14.667 1.84703 14.667C1.7137 14.667 1.58703 14.6137 1.48703 14.5137C1.28037 14.3137 1.28037 13.9937 1.48703 13.7937L2.2537 13.027L3.82037 11.4603L12.847 2.4337L13.7937 1.48703C13.9937 1.28037 14.3137 1.28037 14.5137 1.48703C14.7204 1.68703 14.7204 2.00703 14.5137 2.20703Z" fill="white"/>
<path d="M14.6657 4.94278C14.6657 4.34945 13.9457 4.04945 13.5257 4.46945L13.3324 4.66945L13.1391 4.86278C12.7191 5.28278 13.0124 6.00278 13.6057 6.00278H13.9991C14.3657 6.00278 14.6657 5.70278 14.6657 5.33612V4.94278Z" fill="white"/>
</svg>
