<svg width="16" height="16" viewBox="0 0 16 16" fill="none" xmlns="http://www.w3.org/2000/svg">
<path d="M11.4342 6.66927C11.8025 6.66927 12.1009 6.37079 12.1009 6.0026C12.1009 5.63442 11.8025 5.33594 11.4342 5.33594C11.0661 5.33594 10.7676 5.63442 10.7676 6.0026C10.7676 6.37079 11.0661 6.66927 11.4342 6.66927Z" fill="white"/>
<path d="M11.4342 10.6692C11.8025 10.6692 12.1009 10.3708 12.1009 10.0026C12.1009 9.63442 11.8025 9.33594 11.4342 9.33594C11.0661 9.33594 10.7676 9.63442 10.7676 10.0026C10.7676 10.3708 11.0661 10.6692 11.4342 10.6692Z" fill="white"/>
<path d="M13.1666 8.66924C13.5349 8.66924 13.8334 8.37084 13.8334 8.0026C13.8334 7.6344 13.5349 7.33594 13.1666 7.33594C12.7985 7.33594 12.5 7.6344 12.5 8.0026C12.5 8.37084 12.7985 8.66924 13.1666 8.66924Z" fill="white"/>
<path d="M4.53386 6.66927C4.90205 6.66927 5.20052 6.37079 5.20052 6.0026C5.20052 5.63442 4.90205 5.33594 4.53386 5.33594C4.16567 5.33594 3.86719 5.63442 3.86719 6.0026C3.86719 6.37079 4.16567 6.66927 4.53386 6.66927Z" fill="white"/>
<path d="M4.53386 10.6692C4.90205 10.6692 5.20052 10.3708 5.20052 10.0026C5.20052 9.63442 4.90205 9.33594 4.53386 9.33594C4.16567 9.33594 3.86719 9.63442 3.86719 10.0026C3.86719 10.3708 4.16567 10.6692 4.53386 10.6692Z" fill="white"/>
<path d="M2.79948 8.66924C3.16767 8.66924 3.46615 8.37084 3.46615 8.0026C3.46615 7.6344 3.16767 7.33594 2.79948 7.33594C2.43128 7.33594 2.13281 7.6344 2.13281 8.0026C2.13281 8.37084 2.43128 8.66924 2.79948 8.66924Z" fill="white"/>
<path d="M10.6002 4.13412C10.9685 4.13412 11.267 3.83564 11.267 3.46745C11.267 3.09925 10.9685 2.80078 10.6002 2.80078C10.2321 2.80078 9.93359 3.09925 9.93359 3.46745C9.93359 3.83564 10.2321 4.13412 10.6002 4.13412Z" fill="white"/>
<path d="M5.40105 4.13412C5.76923 4.13412 6.06771 3.83564 6.06771 3.46745C6.06771 3.09925 5.76923 2.80078 5.40105 2.80078C5.03285 2.80078 4.73438 3.09925 4.73438 3.46745C4.73438 3.83564 5.03285 4.13412 5.40105 4.13412Z" fill="white"/>
<path d="M8.03384 4.66927C8.40208 4.66927 8.70056 4.37079 8.70056 4.0026C8.70056 3.63442 8.40208 3.33594 8.03384 3.33594C7.66566 3.33594 7.36719 3.63442 7.36719 4.0026C7.36719 4.37079 7.66566 4.66927 8.03384 4.66927Z" fill="white"/>
<path d="M10.6002 13.3334C10.9685 13.3334 11.267 13.0349 11.267 12.6666C11.267 12.2985 10.9685 12 10.6002 12C10.2321 12 9.93359 12.2985 9.93359 12.6666C9.93359 13.0349 10.2321 13.3334 10.6002 13.3334Z" fill="white"/>
<path d="M5.40105 13.3334C5.76923 13.3334 6.06771 13.0349 6.06771 12.6666C6.06771 12.2985 5.76923 12 5.40105 12C5.03285 12 4.73438 12.2985 4.73438 12.6666C4.73438 13.0349 5.03285 13.3334 5.40105 13.3334Z" fill="white"/>
<path d="M8.03384 12.7982C8.40208 12.7982 8.70056 12.4997 8.70056 12.1316C8.70056 11.7633 8.40208 11.4648 8.03384 11.4648C7.66566 11.4648 7.36719 11.7633 7.36719 12.1316C7.36719 12.4997 7.66566 12.7982 8.03384 12.7982Z" fill="white"/>
<path d="M9.16734 6.83073C9.62758 6.83073 10.0006 6.45764 10.0006 5.9974C10.0006 5.53716 9.62758 5.16406 9.16734 5.16406C8.70702 5.16406 8.33398 5.53716 8.33398 5.9974C8.33398 6.45764 8.70702 6.83073 9.16734 6.83073Z" fill="white"/>
<path d="M6.83334 6.83073C7.2936 6.83073 7.66666 6.45764 7.66666 5.9974C7.66666 5.53716 7.2936 5.16406 6.83334 5.16406C6.3731 5.16406 6 5.53716 6 5.9974C6 6.45764 6.3731 6.83073 6.83334 6.83073Z" fill="white"/>
<path d="M10.3334 8.83076C10.7936 8.83076 11.1666 8.45764 11.1666 7.9974C11.1666 7.53713 10.7936 7.16406 10.3334 7.16406C9.87304 7.16406 9.5 7.53713 9.5 7.9974C9.5 8.45764 9.87304 8.83076 10.3334 8.83076Z" fill="white"/>
<path d="M5.66732 8.83076C6.12756 8.83076 6.50066 8.45764 6.50066 7.9974C6.50066 7.53713 6.12756 7.16406 5.66732 7.16406C5.20708 7.16406 4.83398 7.53713 4.83398 7.9974C4.83398 8.45764 5.20708 8.83076 5.66732 8.83076Z" fill="white"/>
<path d="M6.83334 10.8308C7.2936 10.8308 7.66666 10.4577 7.66666 9.99742C7.66666 9.53718 7.2936 9.16406 6.83334 9.16406C6.3731 9.16406 6 9.53718 6 9.99742C6 10.4577 6.3731 10.8308 6.83334 10.8308Z" fill="white"/>
<path d="M9.16734 10.8308C9.62758 10.8308 10.0006 10.4577 10.0006 9.99742C10.0006 9.53718 9.62758 9.16406 9.16734 9.16406C8.70702 9.16406 8.33398 9.53718 8.33398 9.99742C8.33398 10.4577 8.70702 10.8308 9.16734 10.8308Z" fill="white"/>
<path d="M8.00073 2.22021C7.67406 2.22021 7.41406 1.96021 7.41406 1.63355C7.41406 1.30687 7.67406 1.04688 8.00073 1.04688C8.32742 1.04688 8.58742 1.30687 8.58742 1.63355C8.58742 1.96021 8.32742 2.22021 8.00073 2.22021Z" fill="white"/>
<path d="M11.5008 2.39844C11.2208 2.39844 10.9941 2.17177 10.9941 1.89844C10.9941 1.6251 11.2208 1.39844 11.4941 1.39844C11.7675 1.39844 12.0008 1.6251 12.0008 1.89844C12.0008 2.17177 11.7808 2.39844 11.5008 2.39844Z" fill="white"/>
<path d="M4.5 2.39844C4.22666 2.39844 4 2.17177 4 1.89844C4 1.6251 4.22 1.39844 4.5 1.39844H4.50667C4.78001 1.39844 5.00667 1.6251 5.00667 1.89844C5.00667 2.17177 4.78 2.39844 4.5 2.39844Z" fill="white"/>
<path d="M8.00073 14.9195C7.67406 14.9195 7.41406 14.6595 7.41406 14.3327C7.41406 14.0061 7.67406 13.7461 8.00073 13.7461C8.32742 13.7461 8.58742 14.0061 8.58742 14.3327C8.58742 14.6595 8.32742 14.9195 8.00073 14.9195Z" fill="white"/>
<path d="M11.5008 14.5664C11.2208 14.5664 10.9941 14.3398 10.9941 14.0664C10.9941 13.7931 11.2208 13.5664 11.4941 13.5664C11.7675 13.5664 12.0008 13.7931 12.0008 14.0664C12.0008 14.3398 11.7808 14.5664 11.5008 14.5664Z" fill="white"/>
<path d="M4.5 14.5664C4.22666 14.5664 4 14.3398 4 14.0664C4 13.7931 4.22 13.5664 4.5 13.5664H4.50667C4.78001 13.5664 5.00667 13.7931 5.00667 14.0664C5.00667 14.3398 4.78 14.5664 4.5 14.5664Z" fill="white"/>
<path d="M1.03392 8.58741C0.713918 8.58741 0.447266 8.32741 0.447266 8.00741V8.00073C0.447266 7.68073 0.70725 7.41406 1.03392 7.41406C1.36058 7.41406 1.62058 7.67407 1.62058 8.00073C1.62058 8.32741 1.35392 8.58741 1.03392 8.58741Z" fill="white"/>
<path d="M2.5 11.8348C2.22666 11.8348 2 11.6148 2 11.3348V11.3281C2 11.0548 2.22666 10.8281 2.5 10.8281C2.77334 10.8281 3 11.0548 3 11.3281C3 11.6014 2.77334 11.8348 2.5 11.8348Z" fill="white"/>
<path d="M2.5 5.17188C2.22666 5.17188 2 4.94521 2 4.67188C2 4.39855 2.22666 4.17188 2.5 4.17188C2.77334 4.17188 3 4.39188 3 4.66521V4.67188C3 4.94521 2.77334 5.17188 2.5 5.17188Z" fill="white"/>
<path d="M15.0007 8.58741C14.6807 8.58741 14.4141 8.32741 14.4141 8.00741V8.00073C14.4141 7.68073 14.6741 7.41406 15.0007 7.41406C15.3274 7.41406 15.5874 7.67407 15.5874 8.00073C15.5874 8.32741 15.3207 8.58741 15.0007 8.58741Z" fill="white"/>
<path d="M13.5332 11.8348C13.2598 11.8348 13.0332 11.6148 13.0332 11.3348V11.3281C13.0332 11.0548 13.2598 10.8281 13.5332 10.8281C13.8066 10.8281 14.0332 11.0548 14.0332 11.3281C14.0332 11.6014 13.8066 11.8348 13.5332 11.8348Z" fill="white"/>
<path d="M13.5332 5.17188C13.2598 5.17188 13.0332 4.94521 13.0332 4.67188C13.0332 4.39855 13.2598 4.17188 13.5332 4.17188C13.8066 4.17188 14.0332 4.39188 14.0332 4.67188V4.67855C14.0332 4.94521 13.8066 5.17188 13.5332 5.17188Z" fill="white"/>
</svg>
