<svg width="16" height="16" viewBox="0 0 16 16" fill="none" xmlns="http://www.w3.org/2000/svg">
<path d="M14.6674 5.03229C14.6674 5.47229 14.3074 5.83229 13.8674 5.83229H2.13398C1.69398 5.83229 1.33398 5.47229 1.33398 5.03229V5.02562C1.33398 3.49896 2.56732 2.26562 4.09398 2.26562H11.9006C13.4274 2.26562 14.6674 3.50562 14.6674 5.03229Z" fill="white"/>
<path d="M1.33398 7.63594V10.976C1.33398 12.5026 2.56732 13.736 4.09398 13.736H11.9006C13.4274 13.736 14.6674 12.496 14.6674 10.9692V7.63594C14.6674 7.19594 14.3074 6.83594 13.8674 6.83594H2.13398C1.69398 6.83594 1.33398 7.19594 1.33398 7.63594ZM5.33398 11.5026H4.00066C3.72732 11.5026 3.50066 11.276 3.50066 11.0026C3.50066 10.7292 3.72732 10.5026 4.00066 10.5026H5.33398C5.60732 10.5026 5.83398 10.7292 5.83398 11.0026C5.83398 11.276 5.60732 11.5026 5.33398 11.5026ZM9.66735 11.5026H7.00066C6.72732 11.5026 6.50066 11.276 6.50066 11.0026C6.50066 10.7292 6.72732 10.5026 7.00066 10.5026H9.66735C9.94063 10.5026 10.1674 10.7292 10.1674 11.0026C10.1674 11.276 9.94063 11.5026 9.66735 11.5026Z" fill="white"/>
</svg>
