<svg width="16" height="16" viewBox="0 0 16 16" fill="none" xmlns="http://www.w3.org/2000/svg">
<path d="M4.82732 1.33594H3.56066C2.10066 1.33594 1.33398 2.1026 1.33398 3.55594V4.8226C1.33398 6.27594 2.10066 7.0426 3.55398 7.0426H4.82066C6.27398 7.0426 7.04066 6.27594 7.04066 4.8226V3.55594C7.04732 2.1026 6.28066 1.33594 4.82732 1.33594Z" fill="white"/>
<path d="M12.4476 1.33594H11.1809C9.72758 1.33594 8.96094 2.1026 8.96094 3.55594V4.8226C8.96094 6.27594 9.72758 7.0426 11.1809 7.0426H12.4476C13.9009 7.0426 14.6676 6.27594 14.6676 4.8226V3.55594C14.6676 2.1026 13.9009 1.33594 12.4476 1.33594Z" fill="white"/>
<path d="M12.4476 8.95312H11.1809C9.72758 8.95312 8.96094 9.71977 8.96094 11.1731V12.4398C8.96094 13.8931 9.72758 14.6598 11.1809 14.6598H12.4476C13.9009 14.6598 14.6676 13.8931 14.6676 12.4398V11.1731C14.6676 9.71977 13.9009 8.95312 12.4476 8.95312Z" fill="white"/>
<path d="M4.82732 8.95312H3.56066C2.10066 8.95312 1.33398 9.71977 1.33398 11.1731V12.4398C1.33398 13.8998 2.10066 14.6665 3.55398 14.6665H4.82066C6.27398 14.6665 7.04066 13.8998 7.04066 12.4465V11.1798C7.04732 9.71977 6.28066 8.95312 4.82732 8.95312Z" fill="white"/>
</svg>
