<svg width="16" height="16" viewBox="0 0 16 16" fill="none" xmlns="http://www.w3.org/2000/svg">
<path d="M12.4476 1.33594H11.1809C9.72758 1.33594 8.96094 2.1026 8.96094 3.55594V4.8226C8.96094 6.27594 9.72758 7.0426 11.1809 7.0426H12.4476C13.9009 7.0426 14.6676 6.27594 14.6676 4.8226V3.55594C14.6676 2.1026 13.9009 1.33594 12.4476 1.33594Z" fill="white"/>
<path d="M4.82732 8.95312H3.56066C2.10066 8.95312 1.33398 9.71977 1.33398 11.1731V12.4398C1.33398 13.8998 2.10066 14.6665 3.55398 14.6665H4.82066C6.27398 14.6665 7.04066 13.8998 7.04066 12.4465V11.1798C7.04732 9.71977 6.28066 8.95312 4.82732 8.95312Z" fill="white"/>
<path d="M4.19398 7.05594C5.77352 7.05594 7.05398 5.77547 7.05398 4.19594C7.05398 2.6164 5.77352 1.33594 4.19398 1.33594C2.61446 1.33594 1.33398 2.6164 1.33398 4.19594C1.33398 5.77547 2.61446 7.05594 4.19398 7.05594Z" fill="white"/>
<path d="M11.8073 14.6653C13.3868 14.6653 14.6673 13.3848 14.6673 11.8053C14.6673 10.2258 13.3868 8.94531 11.8073 8.94531C10.2277 8.94531 8.94727 10.2258 8.94727 11.8053C8.94727 13.3848 10.2277 14.6653 11.8073 14.6653Z" fill="white"/>
</svg>
