<svg width="16" height="16" viewBox="0 0 16 16" fill="none" xmlns="http://www.w3.org/2000/svg">
<path d="M6.00066 14.6692C8.57799 14.6692 10.6674 12.58 10.6674 10.0026C10.6674 7.42527 8.57799 5.33594 6.00066 5.33594C3.42333 5.33594 1.33398 7.42527 1.33398 10.0026C1.33398 12.58 3.42333 14.6692 6.00066 14.6692Z" fill="white"/>
<path d="M14.6659 6.0026C14.6659 7.82927 13.6193 9.40924 12.0927 10.1692C11.8859 10.276 11.6526 10.1092 11.6326 9.8826C11.4059 6.91594 9.06585 4.59594 6.11924 4.36927C5.8859 4.34927 5.72591 4.11594 5.83257 3.90927C6.59257 2.3826 8.17257 1.33594 9.99921 1.33594C12.5792 1.33594 14.6659 3.4226 14.6659 6.0026Z" fill="white"/>
</svg>
