<svg width="16" height="16" viewBox="0 0 16 16" fill="none" xmlns="http://www.w3.org/2000/svg">
<path d="M8.00063 1.33594C4.32066 1.33594 1.33398 4.3226 1.33398 8.0026C1.33398 11.6826 4.32066 14.6692 8.00063 14.6692C11.6806 14.6692 14.6674 11.6826 14.6674 8.0026C14.6674 4.3226 11.6806 1.33594 8.00063 1.33594ZM11.2874 10.496C10.5006 11.536 9.30063 12.1292 8.00063 12.1292C5.72732 12.1292 3.87398 10.276 3.87398 8.0026C3.87398 5.72927 5.72732 3.87594 8.00063 3.87594C8.90063 3.87594 9.76063 4.1626 10.4806 4.7026C10.7006 4.86927 10.7474 5.18261 10.5806 5.40261C10.414 5.62261 10.1006 5.66927 9.88063 5.5026C9.33399 5.08927 8.68735 4.87594 8.00063 4.87594C6.28066 4.87594 4.87398 6.27594 4.87398 8.0026C4.87398 9.72924 6.27398 11.1292 8.00063 11.1292C8.98735 11.1292 9.89399 10.676 10.494 9.88924C10.6606 9.66924 10.974 9.62924 11.194 9.79596C11.414 9.9626 11.454 10.276 11.2874 10.496ZM11.614 7.5626C11.1806 7.5626 10.834 7.21594 10.834 6.7826C10.834 6.34927 11.1806 6.0026 11.614 6.0026C12.0474 6.0026 12.394 6.34927 12.394 6.7826C12.394 7.21594 12.0474 7.5626 11.614 7.5626Z" fill="white"/>
</svg>
