<svg width="16" height="16" viewBox="0 0 16 16" fill="none" xmlns="http://www.w3.org/2000/svg">
<path fill-rule="evenodd" clip-rule="evenodd" d="M3.39961 1.60156C2.4055 1.60156 1.59961 2.40745 1.59961 3.40156V12.6016C1.59961 13.5956 2.4055 14.4016 3.39961 14.4016H12.5996C13.5937 14.4016 14.3996 13.5956 14.3996 12.6016V3.40156C14.3996 2.40745 13.5937 1.60156 12.5996 1.60156H3.39961ZM11.9996 4.60156C11.9996 4.27019 11.731 4.00156 11.3996 4.00156C11.0682 4.00156 10.7996 4.27019 10.7996 4.60156V11.4016C10.7996 11.7329 11.0682 12.0016 11.3996 12.0016C11.731 12.0016 11.9996 11.7329 11.9996 11.4016V4.60156ZM5.19961 9.40156C5.19961 9.0702 4.93098 8.80156 4.59961 8.80156C4.26824 8.80156 3.99961 9.0702 3.99961 9.40156V11.4016C3.99961 11.7329 4.26824 12.0016 4.59961 12.0016C4.93098 12.0016 5.19961 11.7329 5.19961 11.4016V9.40156ZM6.86641 7.20156C7.19778 7.20156 7.46641 7.47019 7.46641 7.80156V11.4016C7.46641 11.7329 7.19778 12.0016 6.86641 12.0016C6.53503 12.0016 6.26641 11.7329 6.26641 11.4016V7.80156C6.26641 7.47019 6.53503 7.20156 6.86641 7.20156ZM9.73049 6.20156C9.73049 5.87019 9.46185 5.60156 9.13049 5.60156C8.79913 5.60156 8.53049 5.87019 8.53049 6.20156V11.4016C8.53049 11.7329 8.79913 12.0016 9.13049 12.0016C9.46185 12.0016 9.73049 11.7329 9.73049 11.4016V6.20156Z" fill="#0F172A"/>
</svg>
