<svg width="16" height="16" viewBox="0 0 16 16" fill="none" xmlns="http://www.w3.org/2000/svg">
<path d="M9.60078 7.19905C9.15894 7.19905 8.80078 6.84088 8.80078 6.39905V2.39905C8.80078 1.95722 9.16102 1.59305 9.59838 1.65542C12.0529 2.00543 13.9944 3.94696 14.3444 6.40142C14.4068 6.83883 14.0426 7.19905 13.6008 7.19905H9.60078Z" fill="#0F172A"/>
<path d="M6.40199 3.25698C6.83939 3.19461 7.19961 3.55878 7.19961 4.00061V8.00058C7.19961 8.44242 7.55779 8.80058 7.99961 8.80058H11.9996C12.4414 8.80058 12.8056 9.16082 12.7432 9.59826C12.3561 12.3132 10.0216 14.4006 7.19961 14.4006C4.10682 14.4006 1.59961 11.8934 1.59961 8.80058C1.59961 5.97861 3.68699 3.64414 6.40199 3.25698Z" fill="#0F172A"/>
</svg>
