<svg width="16" height="16" viewBox="0 0 16 16" fill="none" xmlns="http://www.w3.org/2000/svg">
<path d="M8.00063 1.33594C4.32066 1.33594 1.33398 4.3226 1.33398 8.0026C1.33398 11.6826 4.32066 14.6692 8.00063 14.6692C11.6806 14.6692 14.6674 11.6826 14.6674 8.0026C14.6674 4.3226 11.6806 1.33594 8.00063 1.33594ZM8.00063 5.83594C7.72732 5.83594 7.50066 5.60927 7.50066 5.33594C7.50066 5.0626 7.72732 4.83594 8.00063 4.83594C9.74735 4.83594 11.1674 6.25594 11.1674 8.0026C11.1674 9.74924 9.74735 11.1692 8.00063 11.1692C7.72732 11.1692 7.50066 10.9426 7.50066 10.6692C7.50066 10.396 7.72732 10.1692 8.00063 10.1692C9.19399 10.1692 10.1674 9.19596 10.1674 8.0026C10.1674 6.80927 9.19399 5.83594 8.00063 5.83594ZM8.00063 13.1692C5.15398 13.1692 2.83398 10.8492 2.83398 8.0026C2.83398 7.72927 3.06066 7.5026 3.33398 7.5026C3.60732 7.5026 3.83398 7.72927 3.83398 8.0026C3.83398 10.3026 5.70066 12.1692 8.00063 12.1692C10.3006 12.1692 12.1674 10.3026 12.1674 8.0026C12.1674 5.7026 10.3006 3.83594 8.00063 3.83594C7.72732 3.83594 7.50066 3.60927 7.50066 3.33594C7.50066 3.0626 7.72732 2.83594 8.00063 2.83594C10.8474 2.83594 13.1674 5.15594 13.1674 8.0026C13.1674 10.8492 10.8474 13.1692 8.00063 13.1692Z" fill="white"/>
</svg>
