<svg width="16" height="16" viewBox="0 0 16 16" fill="none" xmlns="http://www.w3.org/2000/svg">
<path d="M14.6674 14.6641H1.33398C1.06066 14.6641 0.833984 14.4374 0.833984 14.1641C0.833984 13.8908 1.06066 13.6641 1.33398 13.6641H14.6674C14.9406 13.6641 15.1674 13.8908 15.1674 14.1641C15.1674 14.4374 14.9406 14.6641 14.6674 14.6641Z" fill="white"/>
<path d="M6.5 2.66927V14.6692H9.5V2.66927C9.5 1.93594 9.2 1.33594 8.3 1.33594H7.7C6.8 1.33594 6.5 1.93594 6.5 2.66927Z" fill="white"/>
<path d="M2 6.66927V14.6692H4.66666V6.66927C4.66666 5.93594 4.4 5.33594 3.6 5.33594H3.06666C2.26666 5.33594 2 5.93594 2 6.66927Z" fill="white"/>
<path d="M11.334 9.99742V14.6641H14.0006V9.99742C14.0006 9.26406 13.734 8.66406 12.934 8.66406H12.4006C11.6006 8.66406 11.334 9.26406 11.334 9.99742Z" fill="white"/>
</svg>
