<svg width="16" height="16" viewBox="0 0 16 16" fill="none" xmlns="http://www.w3.org/2000/svg">
<path d="M10.794 1.33594H5.20732C2.78066 1.33594 1.33398 2.7826 1.33398 5.20927V10.7892C1.33398 13.2226 2.78066 14.6692 5.20732 14.6692H10.7874C13.214 14.6692 14.6606 13.2226 14.6606 10.796V5.20927C14.6674 2.7826 13.2206 1.33594 10.794 1.33594ZM6.60732 10.796C6.60732 11.2226 6.26066 11.5692 5.82732 11.5692C5.40066 11.5692 5.05398 11.2226 5.05398 10.796V8.6226C5.05398 8.19596 5.40066 7.84927 5.82732 7.84927C6.26066 7.84927 6.60732 8.19596 6.60732 8.6226V10.796ZM10.9474 10.796C10.9474 11.2226 10.6006 11.5692 10.174 11.5692C9.74063 11.5692 9.39399 11.2226 9.39399 10.796V5.20927C9.39399 4.7826 9.74063 4.43594 10.174 4.43594C10.6006 4.43594 10.9474 4.7826 10.9474 5.20927V10.796Z" fill="white"/>
</svg>
