<svg width="16" height="16" viewBox="0 0 16 16" fill="none" xmlns="http://www.w3.org/2000/svg">
<path d="M12.3992 1.60156C11.7365 1.60156 11.1992 2.13882 11.1992 2.80156V13.2016C11.1992 13.8643 11.7365 14.4016 12.3992 14.4016H13.1992C13.8619 14.4016 14.3992 13.8643 14.3992 13.2016V2.80156C14.3992 2.13882 13.8619 1.60156 13.1992 1.60156H12.3992Z" fill="#0F172A"/>
<path d="M7.60039 4.80078C6.93765 4.80078 6.40039 5.33804 6.40039 6.00078V13.2008C6.40039 13.8635 6.93765 14.4008 7.60039 14.4008H8.40039C9.06311 14.4008 9.60039 13.8635 9.60039 13.2008V6.00078C9.60039 5.33804 9.06311 4.80078 8.40039 4.80078H7.60039Z" fill="#0F172A"/>
<path d="M2.79961 8C2.13687 8 1.59961 8.53728 1.59961 9.2V13.2C1.59961 13.8627 2.13687 14.4 2.79961 14.4H3.59961C4.26235 14.4 4.79961 13.8627 4.79961 13.2V9.2C4.79961 8.53728 4.26235 8 3.59961 8H2.79961Z" fill="#0F172A"/>
</svg>
