<svg width="16" height="16" viewBox="0 0 16 16" fill="none" xmlns="http://www.w3.org/2000/svg">
<path d="M14.6474 4.80927C14.4606 2.98927 13.014 1.5426 11.194 1.35594C11.0606 1.3426 10.9274 1.33594 10.794 1.33594H5.20732C5.07398 1.33594 4.94066 1.3426 4.80732 1.35594C2.98732 1.5426 1.54066 2.98927 1.35398 4.80927C1.34066 4.9426 1.33398 5.07594 1.33398 5.20927V10.796C1.33398 10.9292 1.34066 11.0626 1.35398 11.196C1.54066 13.016 2.98732 14.4626 4.80732 14.6492C4.94066 14.6626 5.07398 14.6692 5.20732 14.6692H9.33399C9.70063 14.6692 10.0006 14.3692 10.0006 14.0026V12.0226C10.0006 10.9092 10.9074 10.0026 12.0206 10.0026H14.0006C14.3674 10.0026 14.6674 9.7026 14.6674 9.33596V5.20927C14.6674 5.07594 14.6606 4.9426 14.6474 4.80927ZM5.16732 9.0026C5.16732 9.27596 4.94066 9.5026 4.66732 9.5026C4.39398 9.5026 4.16732 9.27596 4.16732 9.0026V7.0026C4.16732 6.72927 4.39398 6.5026 4.66732 6.5026C4.94066 6.5026 5.16732 6.72927 5.16732 7.0026V9.0026ZM8.50063 9.0026C8.50063 9.27596 8.27399 9.5026 8.00063 9.5026C7.72732 9.5026 7.50066 9.27596 7.50066 9.0026V7.0026C7.50066 6.72927 7.72732 6.5026 8.00063 6.5026C8.27399 6.5026 8.50063 6.72927 8.50063 7.0026V9.0026Z" fill="white"/>
<path d="M13.9794 10.6641H12.0194C11.1727 10.6641 10.666 11.1708 10.666 12.0174V13.9774C10.666 14.8241 11.1727 15.3308 12.0194 15.3308H13.9794C14.826 15.3308 15.3327 14.8241 15.3327 13.9774V12.0174C15.3327 11.1708 14.826 10.6641 13.9794 10.6641ZM14.3127 13.7041C14.4794 13.8708 14.4794 14.1441 14.3127 14.3108C14.226 14.3908 14.1127 14.4308 14.006 14.4308C13.8994 14.4308 13.786 14.3908 13.6994 14.3108L12.9927 13.6041L12.2994 14.3108C12.2127 14.3908 12.106 14.4308 11.986 14.4308C11.886 14.4308 11.7727 14.3908 11.6927 14.3108C11.526 14.1441 11.526 13.8708 11.6927 13.7041L12.3994 12.9974L11.6927 12.2974C11.526 12.1308 11.526 11.8574 11.6927 11.6908C11.8594 11.5241 12.1327 11.5241 12.2994 11.6908L12.9927 12.3974L13.6994 11.6908C13.866 11.5241 14.146 11.5241 14.3127 11.6908C14.4794 11.8574 14.4794 12.1308 14.3127 12.2974L13.606 12.9974L14.3127 13.7041Z" fill="white"/>
</svg>
