<svg width="16" height="16" viewBox="0 0 16 16" fill="none" xmlns="http://www.w3.org/2000/svg">
<path d="M10.794 1.33594H5.20732C2.78066 1.33594 1.33398 2.7826 1.33398 5.20927V10.796C1.33398 13.2226 2.78066 14.6692 5.20732 14.6692H10.794C13.2206 14.6692 14.6674 13.2226 14.6674 10.796V5.20927C14.6674 2.7826 13.2206 1.33594 10.794 1.33594ZM5.16732 9.06924C5.16732 9.3426 4.94066 9.56924 4.66732 9.56924C4.39398 9.56924 4.16732 9.3426 4.16732 9.06924V6.93594C4.16732 6.6626 4.39398 6.43594 4.66732 6.43594C4.94066 6.43594 5.16732 6.6626 5.16732 6.93594V9.06924ZM8.50063 10.2292C8.50063 10.5026 8.27399 10.7292 8.00063 10.7292C7.72732 10.7292 7.50066 10.5026 7.50066 10.2292V5.77594C7.50066 5.5026 7.72732 5.27594 8.00063 5.27594C8.27399 5.27594 8.50063 5.5026 8.50063 5.77594V10.2292ZM11.834 9.06924C11.834 9.3426 11.6074 9.56924 11.334 9.56924C11.0606 9.56924 10.834 9.3426 10.834 9.06924V6.93594C10.834 6.6626 11.0606 6.43594 11.334 6.43594C11.6074 6.43594 11.834 6.6626 11.834 6.93594V9.06924Z" fill="white"/>
</svg>
