<svg width="16" height="16" viewBox="0 0 16 16" fill="none" xmlns="http://www.w3.org/2000/svg">
<path d="M13.9794 10.6641H12.0194C11.1727 10.6641 10.666 11.1708 10.666 12.0174V13.9774C10.666 14.8241 11.1727 15.3308 12.0194 15.3308H13.9794C14.826 15.3308 15.3327 14.8241 15.3327 13.9774V12.0174C15.3327 11.1708 14.826 10.6641 13.9794 10.6641ZM14.4194 12.2974L12.8394 14.1441C12.7727 14.2174 12.686 14.2641 12.586 14.2641C12.586 14.2641 12.5794 14.2641 12.5727 14.2641C12.486 14.2641 12.3927 14.2308 12.3327 14.1641L11.5994 13.4441C11.466 13.3108 11.466 13.0908 11.5994 12.9508C11.7327 12.8174 11.9527 12.8174 12.0927 12.9508L12.5527 13.4108L13.8927 11.8508C14.0127 11.7041 14.2327 11.6841 14.3794 11.8108C14.526 11.9374 14.5394 12.1574 14.4194 12.2974Z" fill="white"/>
<path d="M13.9794 10.6641H12.0194C11.1727 10.6641 10.666 11.1708 10.666 12.0174V13.9774C10.666 14.8241 11.1727 15.3308 12.0194 15.3308H13.9794C14.826 15.3308 15.3327 14.8241 15.3327 13.9774V12.0174C15.3327 11.1708 14.826 10.6641 13.9794 10.6641ZM14.4194 12.2974L12.8394 14.1441C12.7727 14.2174 12.686 14.2641 12.586 14.2641C12.586 14.2641 12.5794 14.2641 12.5727 14.2641C12.486 14.2641 12.3927 14.2308 12.3327 14.1641L11.5994 13.4441C11.466 13.3108 11.466 13.0908 11.5994 12.9508C11.7327 12.8174 11.9527 12.8174 12.0927 12.9508L12.5527 13.4108L13.8927 11.8508C14.0127 11.7041 14.2327 11.6841 14.3794 11.8108C14.526 11.9374 14.5394 12.1574 14.4194 12.2974Z" fill="white"/>
<path d="M14.6474 4.80927C14.4606 2.98927 13.014 1.5426 11.194 1.35594C11.0606 1.3426 10.9274 1.33594 10.794 1.33594H5.20732C5.07398 1.33594 4.94066 1.3426 4.80732 1.35594C2.98732 1.5426 1.54066 2.98927 1.35398 4.80927C1.34066 4.9426 1.33398 5.07594 1.33398 5.20927V10.796C1.33398 10.9292 1.34066 11.0626 1.35398 11.196C1.54066 13.016 2.98732 14.4626 4.80732 14.6492C4.94066 14.6626 5.07398 14.6692 5.20732 14.6692H9.33399C9.70063 14.6692 10.0006 14.3692 10.0006 14.0026V12.0226C10.0006 10.9092 10.9074 10.0026 12.0206 10.0026H14.0006C14.3674 10.0026 14.6674 9.7026 14.6674 9.33596V5.20927C14.6674 5.07594 14.6606 4.9426 14.6474 4.80927ZM5.16732 9.0026C5.16732 9.27596 4.94066 9.5026 4.66732 9.5026C4.39398 9.5026 4.16732 9.27596 4.16732 9.0026V7.0026C4.16732 6.72927 4.39398 6.5026 4.66732 6.5026C4.94066 6.5026 5.16732 6.72927 5.16732 7.0026V9.0026ZM8.50063 9.0026C8.50063 9.27596 8.27399 9.5026 8.00063 9.5026C7.72732 9.5026 7.50066 9.27596 7.50066 9.0026V7.0026C7.50066 6.72927 7.72732 6.5026 8.00063 6.5026C8.27399 6.5026 8.50063 6.72927 8.50063 7.0026V9.0026Z" fill="white"/>
</svg>
