<svg width="16" height="16" viewBox="0 0 16 16" fill="none" xmlns="http://www.w3.org/2000/svg">
<path d="M14 15.1641H2C1.72666 15.1641 1.5 14.9374 1.5 14.6641C1.5 14.3908 1.72666 14.1641 2 14.1641H14C14.2734 14.1641 14.5 14.3908 14.5 14.6641C14.5 14.9374 14.2734 15.1641 14 15.1641Z" fill="white"/>
<path d="M3.73334 5.58594H2.66666C2.3 5.58594 2 5.88593 2 6.2526V11.9993C2 12.366 2.3 12.666 2.66666 12.666H3.73334C4.1 12.666 4.4 12.366 4.4 11.9993V6.2526C4.4 5.87927 4.1 5.58594 3.73334 5.58594Z" fill="white"/>
<path d="M8.53414 3.46094H7.46745C7.10078 3.46094 6.80078 3.76094 6.80078 4.1276V12.001C6.80078 12.3676 7.10078 12.6676 7.46745 12.6676H8.53414C8.90078 12.6676 9.20078 12.3676 9.20078 12.001V4.1276C9.20078 3.76094 8.90078 3.46094 8.53414 3.46094Z" fill="white"/>
<path d="M13.333 1.33594H12.2662C11.8996 1.33594 11.5996 1.63594 11.5996 2.0026V12.0026C11.5996 12.3692 11.8996 12.6692 12.2662 12.6692H13.333C13.6996 12.6692 13.9996 12.3692 13.9996 12.0026V2.0026C13.9996 1.63594 13.6996 1.33594 13.333 1.33594Z" fill="white"/>
</svg>
