<svg width="16" height="16" viewBox="0 0 16 16" fill="none" xmlns="http://www.w3.org/2000/svg">
<path d="M10.794 1.33594H5.20732C2.78066 1.33594 1.33398 2.7826 1.33398 5.20927V10.7892C1.33398 13.2226 2.78066 14.6692 5.20732 14.6692H10.7874C13.214 14.6692 14.6606 13.2226 14.6606 10.796V5.20927C14.6674 2.7826 13.2206 1.33594 10.794 1.33594ZM6.07398 11.2692C6.07398 11.456 5.92732 11.6026 5.74066 11.6026H3.88066C3.69398 11.6026 3.54732 11.456 3.54732 11.2692V8.18924C3.54732 7.76927 3.88732 7.42927 4.30732 7.42927H5.74066C5.92732 7.42927 6.07398 7.57594 6.07398 7.7626V11.2692ZM9.26063 11.2692C9.26063 11.456 9.11399 11.6026 8.92735 11.6026H7.06732C6.88066 11.6026 6.73398 11.456 6.73398 11.2692V5.1626C6.73398 4.7426 7.07398 4.4026 7.49398 4.4026H8.50735C8.92735 4.4026 9.26735 4.7426 9.26735 5.1626V11.2692H9.26063ZM12.454 11.2692C12.454 11.456 12.3074 11.6026 12.1206 11.6026H10.2606C10.074 11.6026 9.92735 11.456 9.92735 11.2692V8.9026C9.92735 8.71596 10.074 8.56924 10.2606 8.56924H11.694C12.114 8.56924 12.454 8.90924 12.454 9.32924V11.2692Z" fill="white"/>
</svg>
