<svg width="16" height="16" viewBox="0 0 16 16" fill="none" xmlns="http://www.w3.org/2000/svg">
<path fill-rule="evenodd" clip-rule="evenodd" d="M2.74459 2.02055C4.45633 1.7448 6.21204 1.60156 8.00078 1.60156C9.7895 1.60156 11.5453 1.7448 13.2569 2.02055C14.4061 2.20567 15.2008 3.21216 15.2008 4.34227V8.46084C15.2008 9.59092 14.4061 10.5975 13.2569 10.7826C12.3227 10.9331 11.3753 11.0441 10.4165 11.114C10.1927 11.1302 9.99982 11.2578 9.90278 11.4444L8.5331 14.0784C8.42982 14.277 8.22462 14.4016 8.00078 14.4016C7.77694 14.4016 7.57172 14.277 7.46845 14.0784L6.09876 11.4444C6.00174 11.2578 5.80886 11.1302 5.5851 11.114C4.62633 11.0441 3.67889 10.9331 2.74459 10.7826C1.59549 10.5975 0.800781 9.59092 0.800781 8.46084V4.34227C0.800781 3.21216 1.59549 2.20567 2.74459 2.02055Z" fill="#0F172A"/>
</svg>
