<svg width="16" height="16" viewBox="0 0 16 16" fill="none" xmlns="http://www.w3.org/2000/svg">
<path fill-rule="evenodd" clip-rule="evenodd" d="M2.74459 2.02055C4.45633 1.7448 6.21204 1.60156 8.00078 1.60156C9.7895 1.60156 11.5453 1.7448 13.2569 2.02055C14.4061 2.20567 15.2008 3.21216 15.2008 4.34227V8.46084C15.2008 9.59092 14.4061 10.5975 13.2569 10.7826C11.9005 11.0011 10.5165 11.1364 9.1103 11.1832C8.94734 11.1885 8.79702 11.2539 8.6883 11.3626L5.82505 14.2258C5.65345 14.3974 5.39537 14.4488 5.17117 14.3559C4.94697 14.263 4.80078 14.0442 4.80078 13.8016V11.0474C4.10892 10.9804 3.42329 10.8919 2.74459 10.7826C1.59549 10.5975 0.800781 9.591 0.800781 8.46084V4.34227C0.800781 3.21216 1.59549 2.20567 2.74459 2.02055Z" fill="#0F172A"/>
</svg>
