<svg width="16" height="16" viewBox="0 0 16 16" fill="none" xmlns="http://www.w3.org/2000/svg">
<path fill-rule="evenodd" clip-rule="evenodd" d="M8.00078 1.60156C6.21204 1.60156 4.45633 1.7448 2.74459 2.02055C1.59549 2.20567 0.800781 3.21216 0.800781 4.34227V8.46084C0.800781 9.591 1.59549 10.5975 2.74459 10.7826C3.42329 10.8919 4.10892 10.9804 4.80078 11.0474V13.8016C4.80078 14.0442 4.94697 14.263 5.17117 14.3559C5.39537 14.4488 5.65345 14.3974 5.82505 14.2258L8.6883 11.3626C8.79702 11.2539 8.94734 11.1885 9.1103 11.1832C10.5165 11.1364 11.9005 11.0011 13.2569 10.7826C14.4061 10.5975 15.2008 9.59092 15.2008 8.46084V4.34227C15.2008 3.21216 14.4061 2.20567 13.2569 2.02055C11.5453 1.7448 9.7895 1.60156 8.00078 1.60156ZM8.00078 7.20156C8.44262 7.20156 8.80078 6.84339 8.80078 6.40156C8.80078 5.95974 8.44262 5.60156 8.00078 5.60156C7.55895 5.60156 7.20078 5.95974 7.20078 6.40156C7.20078 6.84339 7.55895 7.20156 8.00078 7.20156ZM6.40078 6.40156C6.40078 6.84339 6.04261 7.20156 5.60078 7.20156C5.15896 7.20156 4.80078 6.84339 4.80078 6.40156C4.80078 5.95974 5.15896 5.60156 5.60078 5.60156C6.04261 5.60156 6.40078 5.95974 6.40078 6.40156ZM10.4008 7.20156C10.8426 7.20156 11.2008 6.84339 11.2008 6.40156C11.2008 5.95974 10.8426 5.60156 10.4008 5.60156C9.95894 5.60156 9.60078 5.95974 9.60078 6.40156C9.60078 6.84339 9.95894 7.20156 10.4008 7.20156Z" fill="#0F172A"/>
</svg>
