<svg width="16" height="16" viewBox="0 0 16 16" fill="none" xmlns="http://www.w3.org/2000/svg">
<path fill-rule="evenodd" clip-rule="evenodd" d="M1.59961 7.99844C1.59961 4.82516 4.55166 2.39844 7.99961 2.39844C11.4475 2.39844 14.3996 4.82516 14.3996 7.99844C14.3996 11.1717 11.4475 13.5984 7.99961 13.5984C7.58887 13.5984 7.18666 13.5646 6.79655 13.4997C6.00903 14.0652 5.04257 14.3984 3.99961 14.3984C3.88151 14.3984 3.76429 14.3942 3.64813 14.3857C3.43871 14.3705 3.25247 14.247 3.15705 14.06C3.06163 13.8729 3.07092 13.6496 3.18155 13.4712C3.43542 13.0616 3.58658 12.582 3.5988 12.0663C2.3824 11.0587 1.59961 9.61796 1.59961 7.99844Z" fill="#0F172A"/>
</svg>
