<svg width="16" height="16" viewBox="0 0 16 16" fill="none" xmlns="http://www.w3.org/2000/svg">
<path fill-rule="evenodd" clip-rule="evenodd" d="M8.00078 1.60156C6.21204 1.60156 4.45633 1.7448 2.74459 2.02055C1.59549 2.20567 0.800781 3.21216 0.800781 4.34227V8.46084C0.800781 9.59092 1.59549 10.5975 2.74459 10.7826C3.67889 10.9331 4.62633 11.0441 5.5851 11.114C5.80886 11.1302 6.00174 11.2578 6.09876 11.4444L7.46845 14.0784C7.57172 14.277 7.77694 14.4016 8.00078 14.4016C8.22462 14.4016 8.42982 14.277 8.5331 14.0784L9.90278 11.4444C9.99982 11.2578 10.1927 11.1302 10.4165 11.114C11.3753 11.0441 12.3227 10.9331 13.2569 10.7826C14.4061 10.5975 15.2008 9.59092 15.2008 8.46084V4.34227C15.2008 3.21216 14.4061 2.20567 13.2569 2.02055C11.5453 1.7448 9.7895 1.60156 8.00078 1.60156ZM5.40078 4.80156C5.06941 4.80156 4.80078 5.07019 4.80078 5.40156C4.80078 5.73293 5.06941 6.00156 5.40078 6.00156H10.6008C10.9321 6.00156 11.2008 5.73293 11.2008 5.40156C11.2008 5.07019 10.9321 4.80156 10.6008 4.80156H5.40078ZM5.40078 6.80156C5.06941 6.80156 4.80078 7.07019 4.80078 7.40156C4.80078 7.73293 5.06941 8.00156 5.40078 8.00156H8.20078C8.53214 8.00156 8.80078 7.73293 8.80078 7.40156C8.80078 7.07019 8.53214 6.80156 8.20078 6.80156H5.40078Z" fill="#0F172A"/>
</svg>
