<svg width="16" height="16" viewBox="0 0 16 16" fill="none" xmlns="http://www.w3.org/2000/svg">
<path fill-rule="evenodd" clip-rule="evenodd" d="M7.99961 2.39844C4.55166 2.39844 1.59961 4.82516 1.59961 7.99844C1.59961 9.61796 2.3824 11.0587 3.5988 12.0663C3.58658 12.582 3.43542 13.0616 3.18155 13.4712C3.07092 13.6496 3.06163 13.8729 3.15705 14.06C3.25247 14.247 3.43871 14.3705 3.64813 14.3857C3.76429 14.3942 3.88151 14.3984 3.99961 14.3984C5.04257 14.3984 6.00903 14.0652 6.79655 13.4997C7.18666 13.5646 7.58887 13.5984 7.99961 13.5984C11.4475 13.5984 14.3996 11.1717 14.3996 7.99844C14.3996 4.82516 11.4475 2.39844 7.99961 2.39844ZM7.99961 8.79844C8.44145 8.79844 8.79961 8.44028 8.79961 7.99844C8.79961 7.55661 8.44145 7.19844 7.99961 7.19844C7.55779 7.19844 7.19961 7.55661 7.19961 7.99844C7.19961 8.44028 7.55779 8.79844 7.99961 8.79844ZM6.39961 7.99844C6.39961 8.44028 6.04143 8.79844 5.59961 8.79844C5.15779 8.79844 4.79961 8.44028 4.79961 7.99844C4.79961 7.55661 5.15779 7.19844 5.59961 7.19844C6.04143 7.19844 6.39961 7.55661 6.39961 7.99844ZM10.3996 8.79844C10.8414 8.79844 11.1996 8.44028 11.1996 7.99844C11.1996 7.55661 10.8414 7.19844 10.3996 7.19844C9.95777 7.19844 9.59961 7.55661 9.59961 7.99844C9.59961 8.44028 9.95777 8.79844 10.3996 8.79844Z" fill="#0F172A"/>
</svg>
