<svg width="16" height="16" viewBox="0 0 16 16" fill="none" xmlns="http://www.w3.org/2000/svg">
<path d="M2.80471 1.89368C4.24293 1.701 5.7104 1.60156 7.20078 1.60156C8.69118 1.60156 10.1586 1.701 11.5969 1.89368C12.5942 2.02731 13.3401 2.7802 13.5446 3.7082C13.3948 3.68015 13.2409 3.66145 13.0833 3.65284C12.4599 3.61879 11.8323 3.60156 11.2008 3.60156C10.5693 3.60156 9.94166 3.61879 9.3183 3.65284C7.38409 3.75848 6.00078 5.38347 6.00078 7.19991V8.99172C6.00078 10.1224 6.53685 11.1796 7.40912 11.8417L5.02505 14.2258C4.85345 14.3974 4.59537 14.4488 4.37117 14.3559C4.14697 14.263 4.00078 14.0442 4.00078 13.8016V11.0474C3.59996 11.0086 3.20123 10.9626 2.80473 10.9095C1.6275 10.7517 0.800781 9.73132 0.800781 8.57844V4.22465C0.800781 3.07184 1.62748 2.0514 2.80471 1.89368Z" fill="#0F172A"/>
<path d="M11.1992 4.80078C10.5895 4.80078 9.98378 4.81742 9.38218 4.85028C8.12498 4.91894 7.19922 5.97848 7.19922 7.19913V8.99094C7.19922 10.206 8.11658 11.2624 9.36738 11.3389C9.53826 11.3493 9.70954 11.3585 9.88114 11.3662C10.0413 11.3736 10.1885 11.4386 10.2954 11.5455L12.175 13.425C12.3466 13.5966 12.6047 13.648 12.8288 13.5551C13.0531 13.4622 13.1992 13.2434 13.1992 13.0008V11.3444C14.3612 11.1885 15.1992 10.174 15.1992 9.01262V7.19913C15.1992 5.97848 14.2735 4.91894 13.0163 4.85028C12.4147 4.81742 11.8089 4.80078 11.1992 4.80078Z" fill="#0F172A"/>
</svg>
