<svg width="16" height="16" viewBox="0 0 16 16" fill="none" xmlns="http://www.w3.org/2000/svg">
<path fill-rule="evenodd" clip-rule="evenodd" d="M8.42502 2.7773C8.1907 2.54298 7.81083 2.54298 7.57652 2.7773L4.97652 5.3773C4.7422 5.61161 4.7422 5.99151 4.97652 6.22582C5.21083 6.46014 5.59073 6.46014 5.82504 6.22582L8.00078 4.05009L10.1765 6.22582C10.4109 6.46014 10.7907 6.46014 11.025 6.22582C11.2593 5.99151 11.2593 5.61161 11.025 5.3773L8.42502 2.7773ZM4.97652 10.6258L7.57652 13.2258C7.81083 13.4601 8.1907 13.4601 8.42502 13.2258L11.025 10.6258C11.2593 10.3915 11.2593 10.0116 11.025 9.77732C10.7907 9.543 10.4109 9.543 10.1765 9.77732L8.00078 11.953L5.82504 9.77732C5.59073 9.543 5.21083 9.543 4.97652 9.77732C4.7422 10.0116 4.7422 10.3915 4.97652 10.6258Z" fill="#0F172A"/>
</svg>
