<svg width="16" height="16" viewBox="0 0 16 16" fill="none" xmlns="http://www.w3.org/2000/svg">
<path fill-rule="evenodd" clip-rule="evenodd" d="M7.57573 3.7773C7.81005 3.54298 8.18992 3.54298 8.42424 3.7773L11.8242 7.1773C12.0586 7.41161 12.0586 7.79151 11.8242 8.0258C11.5899 8.26012 11.2101 8.26012 10.9758 8.0258L8 5.05009L5.02426 8.0258C4.78995 8.26012 4.41005 8.26012 4.17573 8.0258C3.94142 7.79151 3.94142 7.41161 4.17573 7.1773L7.57573 3.7773ZM4.17573 11.1773L7.57573 7.7773C7.81005 7.54298 8.18992 7.54298 8.42424 7.7773L11.8242 11.1773C12.0586 11.4116 12.0586 11.7915 11.8242 12.0258C11.5899 12.2601 11.2101 12.2601 10.9758 12.0258L8 9.05012L5.02426 12.0258C4.78995 12.2601 4.41005 12.2601 4.17573 12.0258C3.94142 11.7915 3.94142 11.4116 4.17573 11.1773Z" fill="#0F172A"/>
</svg>
