<svg width="16" height="16" viewBox="0 0 16 16" fill="none" xmlns="http://www.w3.org/2000/svg">
<path fill-rule="evenodd" clip-rule="evenodd" d="M3.77534 7.57573C3.54103 7.81005 3.54103 8.18992 3.77534 8.42424L7.17534 11.8242C7.40966 12.0586 7.78956 12.0586 8.02385 11.8242C8.25817 11.5899 8.25817 11.2101 8.02385 10.9758L5.04814 8L8.02385 5.02426C8.25817 4.78995 8.25817 4.41005 8.02385 4.17573C7.78956 3.94142 7.40966 3.94142 7.17534 4.17573L3.77534 7.57573ZM11.1754 4.17573L7.77534 7.57573C7.54103 7.81005 7.54103 8.18992 7.77534 8.42424L11.1754 11.8242C11.4097 12.0586 11.7895 12.0586 12.0238 11.8242C12.2582 11.5899 12.2582 11.2101 12.0238 10.9758L9.04817 8L12.0238 5.02426C12.2582 4.78995 12.2582 4.41005 12.0238 4.17573C11.7895 3.94142 11.4097 3.94142 11.1754 4.17573Z" fill="#0F172A"/>
</svg>
