<svg width="16" height="16" viewBox="0 0 16 16" fill="none" xmlns="http://www.w3.org/2000/svg">
<path fill-rule="evenodd" clip-rule="evenodd" d="M12.225 7.57573C12.4593 7.81005 12.4593 8.18992 12.225 8.42424L8.82502 11.8242C8.5907 12.0586 8.21086 12.0586 7.97652 11.8242C7.7422 11.5899 7.7422 11.2101 7.97652 10.9758L10.9522 8L7.97652 5.02426C7.7422 4.78995 7.7422 4.41005 7.97652 4.17573C8.21086 3.94142 8.5907 3.94142 8.82502 4.17573L12.225 7.57573ZM4.82504 4.17573L8.22502 7.57573C8.45934 7.81005 8.45934 8.18992 8.22502 8.42424L4.82504 11.8242C4.59073 12.0586 4.21083 12.0586 3.97652 11.8242C3.7422 11.5899 3.7422 11.2101 3.97652 10.9758L6.95225 8L3.97652 5.02426C3.7422 4.78995 3.7422 4.41005 3.97652 4.17573C4.21083 3.94142 4.59073 3.94142 4.82504 4.17573Z" fill="#0F172A"/>
</svg>
