<svg width="16" height="16" viewBox="0 0 16 16" fill="none" xmlns="http://www.w3.org/2000/svg">
<path fill-rule="evenodd" clip-rule="evenodd" d="M7.57573 12.225C7.81005 12.4593 8.18992 12.4593 8.42424 12.225L11.8242 8.82502C12.0586 8.5907 12.0586 8.21086 11.8242 7.97652C11.5899 7.7422 11.2101 7.7422 10.9758 7.97652L8 10.9522L5.02426 7.97652C4.78995 7.7422 4.41005 7.7422 4.17573 7.97652C3.94142 8.21086 3.94142 8.5907 4.17573 8.82502L7.57573 12.225ZM4.17573 4.82504L7.57573 8.22502C7.81005 8.45934 8.18992 8.45934 8.42424 8.22502L11.8242 4.82504C12.0586 4.59073 12.0586 4.21083 11.8242 3.97652C11.5899 3.7422 11.2101 3.7422 10.9758 3.97652L8 6.95225L5.02426 3.97652C4.78995 3.7422 4.41005 3.7422 4.17573 3.97652C3.94142 4.21083 3.94142 4.59073 4.17573 4.82504Z" fill="#0F172A"/>
</svg>
