<svg width="16" height="16" viewBox="0 0 16 16" fill="none" xmlns="http://www.w3.org/2000/svg">
<path d="M7.87902 4.6026C9.78569 4.18927 11.719 4.12927 13.6323 4.4426C12.4523 2.57594 10.3723 1.33594 7.99902 1.33594C5.9257 1.33594 4.07237 2.2826 2.8457 3.76927C3.13903 4.63594 3.51237 5.4626 3.95903 6.24927C4.21237 6.7026 4.85903 6.6826 5.11903 6.23594C5.6857 5.2826 6.70568 4.6426 7.87902 4.6026Z" fill="white"/>
<path d="M5.14603 9.81428C3.8127 8.38764 2.7727 6.76097 2.05936 4.96094C1.05936 6.93431 1.06603 9.35428 2.28603 11.3876C3.3527 13.1676 5.1127 14.2743 7.01935 14.561C7.61268 13.861 8.13265 13.1143 8.57937 12.3343C8.83937 11.881 8.48601 11.341 7.96602 11.341C6.85268 11.3476 5.77936 10.801 5.14603 9.81428Z" fill="white"/>
<path d="M5.71289 7.99876C5.71289 8.40544 5.81289 8.78544 6.01955 9.14544C6.42623 9.84544 7.17955 10.2854 7.99288 10.2854C8.80625 10.2854 9.56625 9.84544 9.96625 9.14544C10.1729 8.78544 10.2795 8.40544 10.2795 7.99876C10.2795 6.73876 9.25289 5.71878 7.99288 5.71878C6.73955 5.71211 5.71289 6.73876 5.71289 7.99876Z" fill="white"/>
<path d="M14.2274 5.61417C13.3141 5.42084 12.3874 5.31417 11.4674 5.30084C10.9408 5.29417 10.6408 5.86751 10.9008 6.32751C11.1674 6.80083 11.3208 7.3475 11.3208 7.9275C11.3208 8.4875 11.1741 9.04086 10.9008 9.53414C10.2741 11.4541 9.34078 13.1609 8.10742 14.6675C11.7408 14.6075 14.6674 11.6475 14.6674 8.00086C14.6674 7.16083 14.5141 6.35417 14.2274 5.61417Z" fill="white"/>
</svg>
