<svg width="16" height="16" viewBox="0 0 16 16" fill="none" xmlns="http://www.w3.org/2000/svg">
<path fill-rule="evenodd" clip-rule="evenodd" d="M8.00039 0.800781C11.0932 0.800781 13.6004 2.23347 13.6004 4.00078C13.6004 5.76809 11.0932 7.20078 8.00039 7.20078C4.9076 7.20078 2.40039 5.76809 2.40039 4.00078C2.40039 2.23347 4.9076 0.800781 8.00039 0.800781ZM12.5556 7.30541C12.9265 7.09349 13.2839 6.83867 13.6004 6.54298V8.00078C13.6004 9.76806 11.0932 11.2008 8.00039 11.2008C4.9076 11.2008 2.40039 9.76806 2.40039 8.00078V6.54298C2.71687 6.83867 3.07434 7.09349 3.44522 7.30541C4.67081 8.00574 6.28385 8.40078 8.00039 8.40078C9.71695 8.40078 11.33 8.00574 12.5556 7.30541ZM2.40039 10.5429V12.0008C2.40039 13.7681 4.9076 15.2008 8.00039 15.2008C11.0932 15.2008 13.6004 13.7681 13.6004 12.0008V10.5429C13.2839 10.8387 12.9265 11.0935 12.5556 11.3054C11.33 12.0057 9.71695 12.4008 8.00039 12.4008C6.28385 12.4008 4.67081 12.0057 3.44522 11.3054C3.07434 11.0935 2.71687 10.8387 2.40039 10.5429Z" fill="#0F172A"/>
</svg>
