<svg width="16" height="16" viewBox="0 0 16 16" fill="none" xmlns="http://www.w3.org/2000/svg">
<path d="M9.53406 6.75373C9.7207 7.48706 9.39406 8.16706 8.83406 8.5137V9.8337C8.83406 10.2937 8.4607 10.667 8.00072 10.667C7.54072 10.667 7.16738 10.2937 7.16738 9.8337V8.5137C6.71405 8.2337 6.41406 7.73366 6.41406 7.167C6.41406 6.1537 7.37405 5.36703 8.42742 5.64703C8.9607 5.78703 9.39406 6.22036 9.53406 6.75373Z" fill="white"/>
<path d="M8.00063 15.1692C4.04732 15.1692 0.833984 11.956 0.833984 8.0026C0.833984 4.04927 4.04732 0.835938 8.00063 0.835938C11.1606 0.835938 13.9074 2.8626 14.8474 5.86927C14.9274 6.13594 14.7806 6.41595 14.5206 6.49595C14.254 6.57595 13.974 6.42927 13.894 6.16927C13.0874 3.57594 10.7206 1.83594 8.00735 1.83594C4.60731 1.83594 1.84065 4.6026 1.84065 8.0026C1.84065 11.4026 4.60731 14.1692 8.00735 14.1692C10.714 14.1692 13.0806 12.436 13.8874 9.85596C13.9674 9.58924 14.2474 9.44924 14.514 9.52924C14.7806 9.60924 14.9206 9.89596 14.8406 10.156C13.894 13.156 11.1474 15.1692 8.00063 15.1692Z" fill="white"/>
</svg>
