<svg width="16" height="16" viewBox="0 0 16 16" fill="none" xmlns="http://www.w3.org/2000/svg">
<path d="M9.56719 1.33594H6.43383C5.74049 1.33594 5.17383 1.89594 5.17383 2.58927V3.21594C5.17383 3.90927 5.73383 4.46927 6.42716 4.46927H9.56719C10.2605 4.46927 10.8205 3.90927 10.8205 3.21594V2.58927C10.8272 1.89594 10.2605 1.33594 9.56719 1.33594Z" fill="white"/>
<path d="M11.4934 3.21429C11.4934 4.27429 10.6266 5.14096 9.56665 5.14096H6.43336C5.37336 5.14096 4.50669 4.27429 4.50669 3.21429C4.50669 2.84096 4.10669 2.60763 3.77336 2.78096C2.83336 3.28096 2.19336 4.27429 2.19336 5.41429V11.6877C2.19336 13.3277 3.53336 14.6677 5.17336 14.6677H10.8266C12.4666 14.6677 13.8066 13.3277 13.8066 11.6877V5.41429C13.8066 4.27429 13.1666 3.28096 12.2266 2.78096C11.8934 2.60763 11.4934 2.84096 11.4934 3.21429ZM10.3534 11.6877C10.2534 11.7877 10.1266 11.8343 10 11.8343C9.87337 11.8343 9.74665 11.7877 9.64665 11.6877L6.50002 8.54094V9.3343C6.50002 9.60766 6.27336 9.8343 6.00002 9.8343C5.72669 9.8343 5.50002 9.60766 5.50002 9.3343V7.3343C5.50002 7.06097 5.72669 6.8343 6.00002 6.8343H8.00001C8.27337 6.8343 8.50001 7.06097 8.50001 7.3343C8.50001 7.60764 8.27337 7.8343 8.00001 7.8343H7.20666L10.3534 10.9809C10.5466 11.1743 10.5466 11.4943 10.3534 11.6877Z" fill="white"/>
</svg>
