<svg width="16" height="16" viewBox="0 0 16 16" fill="none" xmlns="http://www.w3.org/2000/svg">
<path d="M9.56719 1.33594H6.43383C5.74049 1.33594 5.17383 1.89594 5.17383 2.58927V3.21594C5.17383 3.90927 5.73383 4.46927 6.42716 4.46927H9.56719C10.2605 4.46927 10.8205 3.90927 10.8205 3.21594V2.58927C10.8272 1.89594 10.2605 1.33594 9.56719 1.33594Z" fill="white"/>
<path d="M11.4934 3.21429C11.4934 4.27429 10.6266 5.14096 9.56665 5.14096H6.43336C5.37336 5.14096 4.50669 4.27429 4.50669 3.21429C4.50669 2.84096 4.10669 2.60763 3.77336 2.78096C2.83336 3.28096 2.19336 4.27429 2.19336 5.41429V11.6877C2.19336 13.3277 3.53336 14.6677 5.17336 14.6677H10.8266C12.4666 14.6677 13.8066 13.3277 13.8066 11.6877V5.41429C13.8066 4.27429 13.1666 3.28096 12.2266 2.78096C11.8934 2.60763 11.4934 2.84096 11.4934 3.21429ZM8.25337 11.3009H5.33336C5.06002 11.3009 4.83336 11.0743 4.83336 10.8009C4.83336 10.5277 5.06002 10.3009 5.33336 10.3009H8.25337C8.52665 10.3009 8.75337 10.5277 8.75337 10.8009C8.75337 11.0743 8.52665 11.3009 8.25337 11.3009ZM10 8.6343H5.33336C5.06002 8.6343 4.83336 8.40766 4.83336 8.1343C4.83336 7.86097 5.06002 7.6343 5.33336 7.6343H10C10.2734 7.6343 10.5 7.86097 10.5 8.1343C10.5 8.40766 10.2734 8.6343 10 8.6343Z" fill="white"/>
</svg>
