<svg width="16" height="16" viewBox="0 0 16 16" fill="none" xmlns="http://www.w3.org/2000/svg">
<path fill-rule="evenodd" clip-rule="evenodd" d="M12.7896 2.4107C13.6944 2.50566 14.3995 3.27087 14.3995 4.20078V9.40078C14.3995 10.3949 13.5936 11.2008 12.5995 11.2008H10.7995V5.60078C10.7995 4.49621 9.90409 3.60078 8.79953 3.60078H6.50195C6.72881 2.95893 7.30938 2.48417 8.00945 2.4107C8.10441 1.50594 8.86961 0.800781 9.79953 0.800781H10.9995C11.9294 0.800781 12.6946 1.50594 12.7896 2.4107ZM9.19953 2.60078C9.19953 2.26941 9.46817 2.00078 9.79953 2.00078H10.9995C11.3309 2.00078 11.5995 2.26941 11.5995 2.60078V2.80078H9.19953V2.60078Z" fill="#0F172A"/>
<path fill-rule="evenodd" clip-rule="evenodd" d="M1.59961 5.60078C1.59961 5.15895 1.95779 4.80078 2.39961 4.80078H8.79961C9.24145 4.80078 9.59961 5.15896 9.59961 5.60078V13.6008C9.59961 14.0426 9.24145 14.4008 8.79961 14.4008H2.39961C1.95779 14.4008 1.59961 14.0426 1.59961 13.6008V5.60078ZM3.19961 8.20078C3.19961 7.86941 3.46824 7.60078 3.79961 7.60078H7.39961C7.73098 7.60078 7.99961 7.86941 7.99961 8.20078C7.99961 8.53214 7.73098 8.80078 7.39961 8.80078H3.79961C3.46824 8.80078 3.19961 8.53214 3.19961 8.20078ZM3.19961 11.0008C3.19961 10.6694 3.46824 10.4008 3.79961 10.4008H7.39961C7.73098 10.4008 7.99961 10.6694 7.99961 11.0008C7.99961 11.3321 7.73098 11.6008 7.39961 11.6008H3.79961C3.46824 11.6008 3.19961 11.3321 3.19961 11.0008Z" fill="#0F172A"/>
</svg>
