<svg width="16" height="16" viewBox="0 0 16 16" fill="none" xmlns="http://www.w3.org/2000/svg">
<path d="M9.56719 1.33594H6.43383C5.74049 1.33594 5.17383 1.89594 5.17383 2.58927V3.21594C5.17383 3.90927 5.73383 4.46927 6.42716 4.46927H9.56719C10.2605 4.46927 10.8205 3.90927 10.8205 3.21594V2.58927C10.8272 1.89594 10.2605 1.33594 9.56719 1.33594Z" fill="white"/>
<path d="M11.4934 3.21429C11.4934 4.27429 10.6266 5.14096 9.56665 5.14096H6.43336C5.37336 5.14096 4.50669 4.27429 4.50669 3.21429C4.50669 2.84096 4.10669 2.60763 3.77336 2.78096C2.83336 3.28096 2.19336 4.27429 2.19336 5.41429V11.6877C2.19336 13.3277 3.53336 14.6677 5.17336 14.6677H10.8266C12.4666 14.6677 13.8066 13.3277 13.8066 11.6877V5.41429C13.8066 4.27429 13.1666 3.28096 12.2266 2.78096C11.8934 2.60763 11.4934 2.84096 11.4934 3.21429ZM10.2266 8.48766L7.56 11.1543C7.46 11.2543 7.33333 11.3009 7.20666 11.3009C7.08 11.3009 6.95333 11.2543 6.85333 11.1543L5.85336 10.1543C5.66002 9.96094 5.66002 9.64094 5.85336 9.44766C6.04669 9.2543 6.36669 9.2543 6.56002 9.44766L7.20666 10.0943L9.52001 7.78097C9.71337 7.58764 10.0334 7.58764 10.2266 7.78097C10.42 7.9743 10.42 8.2943 10.2266 8.48766Z" fill="white"/>
</svg>
