<svg width="16" height="16" viewBox="0 0 16 16" fill="none" xmlns="http://www.w3.org/2000/svg">
<path fill-rule="evenodd" clip-rule="evenodd" d="M12.7894 2.4107C13.6941 2.50566 14.3993 3.27087 14.3993 4.20078V9.40078C14.3993 10.3949 13.5934 11.2008 12.5993 11.2008H10.7993V8.49782C10.7993 7.86132 10.5464 7.25087 10.0963 6.80078L7.59928 4.30373C7.2877 3.99214 6.89926 3.77508 6.47852 3.67099C6.68677 2.99377 7.28384 2.48683 8.00922 2.4107C8.10418 1.50594 8.86938 0.800781 9.7993 0.800781H10.9993C11.9292 0.800781 12.6944 1.50594 12.7894 2.4107ZM9.1993 2.60078C9.1993 2.26941 9.46794 2.00078 9.7993 2.00078H10.9993C11.3307 2.00078 11.5993 2.26941 11.5993 2.60078V2.80078H9.1993V2.60078Z" fill="#0F172A"/>
<path d="M2.79961 4.80078C2.13687 4.80078 1.59961 5.33804 1.59961 6.00078V13.2008C1.59961 13.8635 2.13687 14.4008 2.79961 14.4008H8.39961C9.06233 14.4008 9.59961 13.8635 9.59961 13.2008V8.49782C9.59961 8.17958 9.47321 7.87435 9.24817 7.64931L6.75108 5.15225C6.52604 4.92721 6.22081 4.80078 5.90255 4.80078H2.79961Z" fill="#0F172A"/>
</svg>
