<svg width="16" height="16" viewBox="0 0 16 16" fill="none" xmlns="http://www.w3.org/2000/svg">
<path fill-rule="evenodd" clip-rule="evenodd" d="M14.3995 4.20078C14.3995 3.27087 13.6944 2.50566 12.7896 2.4107C12.6946 1.50594 11.9294 0.800781 10.9995 0.800781H9.79953C8.86961 0.800781 8.10441 1.50594 8.00945 2.4107C7.30938 2.48417 6.72881 2.95893 6.50195 3.60078H8.79953C9.90409 3.60078 10.7995 4.49621 10.7995 5.60078V11.2008H12.5995C13.5936 11.2008 14.3995 10.3949 14.3995 9.40078V4.20078ZM9.79953 2.00078C9.46817 2.00078 9.19953 2.26941 9.19953 2.60078V2.80078H11.5995V2.60078C11.5995 2.26941 11.3309 2.00078 10.9995 2.00078H9.79953Z" fill="#0F172A"/>
<path fill-rule="evenodd" clip-rule="evenodd" d="M2.39961 4.80078C1.95779 4.80078 1.59961 5.15895 1.59961 5.60078V13.6008C1.59961 14.0426 1.95779 14.4008 2.39961 14.4008H8.79961C9.24145 14.4008 9.59961 14.0426 9.59961 13.6008V5.60078C9.59961 5.15896 9.24145 4.80078 8.79961 4.80078H2.39961ZM7.89884 8.13358C8.08265 7.85789 8.00817 7.48537 7.73243 7.30155C7.45671 7.11774 7.08419 7.19225 6.90038 7.46796L4.90635 10.459L4.22387 9.77654C3.98956 9.54222 3.60966 9.54222 3.37535 9.77654C3.14103 10.0109 3.14103 10.3907 3.37535 10.625L4.57535 11.825C4.70245 11.9521 4.87985 12.0156 5.05873 11.9978C5.23761 11.9801 5.39913 11.8832 5.49884 11.7336L7.89884 8.13358Z" fill="#0F172A"/>
</svg>
