<svg width="16" height="16" viewBox="0 0 16 16" fill="none" xmlns="http://www.w3.org/2000/svg">
<path d="M9.56719 1.33594H6.43383C5.74049 1.33594 5.17383 1.89594 5.17383 2.58927V3.21594C5.17383 3.90927 5.73383 4.46927 6.42716 4.46927H9.56719C10.2605 4.46927 10.8205 3.90927 10.8205 3.21594V2.58927C10.8272 1.89594 10.2605 1.33594 9.56719 1.33594Z" fill="white"/>
<path d="M11.4934 3.21429C11.4934 4.27429 10.6266 5.14096 9.56665 5.14096H6.43336C5.37336 5.14096 4.50669 4.27429 4.50669 3.21429C4.50669 2.84096 4.10669 2.60763 3.77336 2.78096C2.83336 3.28096 2.19336 4.27429 2.19336 5.41429V11.6877C2.19336 13.3277 3.53336 14.6677 5.17336 14.6677H10.8266C12.4666 14.6677 13.8066 13.3277 13.8066 11.6877V5.41429C13.8066 4.27429 13.1666 3.28096 12.2266 2.78096C11.8934 2.60763 11.4934 2.84096 11.4934 3.21429ZM9.68665 11.1277C9.58665 11.2277 9.46001 11.2743 9.33337 11.2743C9.20665 11.2743 9.08001 11.2277 8.98001 11.1277L8.01337 10.1609L7.02 11.1543C6.92 11.2543 6.79333 11.3009 6.66666 11.3009C6.54002 11.3009 6.41336 11.2543 6.31336 11.1543C6.12002 10.9609 6.12002 10.6409 6.31336 10.4477L7.30666 9.4543L6.34002 8.48766C6.14669 8.2943 6.14669 7.9743 6.34002 7.78097C6.53336 7.58764 6.85333 7.58764 7.04666 7.78097L8.01337 8.74766L8.94665 7.8143C9.14001 7.62097 9.46001 7.62097 9.65337 7.8143C9.84665 8.00766 9.84665 8.32766 9.65337 8.52094L8.72001 9.4543L9.68665 10.4209C9.88001 10.6143 9.88001 10.9277 9.68665 11.1277Z" fill="white"/>
</svg>
