<svg width="16" height="16" viewBox="0 0 16 16" fill="none" xmlns="http://www.w3.org/2000/svg">
<path fill-rule="evenodd" clip-rule="evenodd" d="M11.1101 2.54629C11.4268 2.57609 11.7422 2.61038 12.0564 2.64913C12.9558 2.76007 13.6004 3.53175 13.6004 4.41405V13.4008C13.6004 14.3949 12.7945 15.2008 11.8004 15.2008H4.20039C3.20628 15.2008 2.40039 14.3949 2.40039 13.4008V4.41405C2.40039 3.53175 3.04502 2.76007 3.94443 2.64913C4.25852 2.61039 4.57397 2.57609 4.89072 2.54629C5.17561 1.53892 6.1018 0.800781 7.20039 0.800781H8.80039C9.89895 0.800781 10.8252 1.53892 11.1101 2.54629ZM6.00039 3.20078C6.00039 2.53804 6.53765 2.00078 7.20039 2.00078H8.80039C9.46311 2.00078 10.0004 2.53804 10.0004 3.20078V3.60078H6.00039V3.20078Z" fill="#0F172A"/>
</svg>
