<svg width="16" height="16" viewBox="0 0 16 16" fill="none" xmlns="http://www.w3.org/2000/svg">
<path fill-rule="evenodd" clip-rule="evenodd" d="M7.99961 14.4016C11.5342 14.4016 14.3996 11.5362 14.3996 8.00156C14.3996 4.46694 11.5342 1.60156 7.99961 1.60156C4.46499 1.60156 1.59961 4.46694 1.59961 8.00156C1.59961 11.5362 4.46499 14.4016 7.99961 14.4016ZM8.59961 4.00156C8.59961 3.67019 8.33097 3.40156 7.99961 3.40156C7.66824 3.40156 7.39961 3.67019 7.39961 4.00156V8.00156C7.39961 8.33292 7.66824 8.60156 7.99961 8.60156H11.1996C11.531 8.60156 11.7996 8.33292 11.7996 8.00156C11.7996 7.67019 11.531 7.40156 11.1996 7.40156H8.59961V4.00156Z" fill="#0F172A"/>
</svg>
