<svg width="16" height="16" viewBox="0 0 16 16" fill="none" xmlns="http://www.w3.org/2000/svg">
<path d="M9.81223 12.6635C10.0774 12.5601 10.3837 12.7861 10.3269 13.065C10.0003 14.3317 9.26695 14.665 8.36695 14.665H7.6403C6.7403 14.665 6.00028 14.3317 5.68028 13.0584C5.62546 12.779 5.9303 12.5548 6.19538 12.6587C6.76517 12.8819 7.37417 12.9984 8.0003 12.9984C8.62943 12.9984 9.24151 12.886 9.81223 12.6635Z" fill="white"/>
<path d="M10.3255 2.93594C10.3843 3.21775 10.0737 3.4472 9.80586 3.34175C9.2473 3.12187 8.63794 3.0026 7.99877 3.0026C7.36037 3.0026 6.75217 3.12335 6.1932 3.34345C5.92796 3.44789 5.62188 3.22195 5.67877 2.9426C5.99877 1.66927 6.73877 1.33594 7.63877 1.33594H8.36546C9.26546 1.33594 9.99874 1.66927 10.3255 2.93594Z" fill="white"/>
<path d="M7.99934 3.66406C5.60602 3.66406 3.66602 5.60406 3.66602 7.9974C3.66602 9.3974 4.32602 10.6374 5.35268 11.4308H5.35934C6.09268 11.9974 7.00602 12.3308 7.99934 12.3308C9.00601 12.3308 9.92601 11.9908 10.6594 11.4174H10.666C11.6794 10.624 12.3326 9.38404 12.3326 7.9974C12.3326 5.60406 10.3926 3.66406 7.99934 3.66406ZM9.28601 9.58404C9.18601 9.68404 9.05937 9.73076 8.93265 9.73076C8.80601 9.73076 8.67937 9.68404 8.57937 9.58404L7.64602 8.65076C7.55268 8.5574 7.49934 8.43076 7.49934 8.2974V6.4374C7.49934 6.16406 7.72602 5.9374 7.99934 5.9374C8.27265 5.9374 8.49937 6.16406 8.49937 6.4374V8.09076L9.28601 8.8774C9.47937 9.07076 9.47937 9.39076 9.28601 9.58404Z" fill="white"/>
</svg>
