<svg width="16" height="16" viewBox="0 0 16 16" fill="none" xmlns="http://www.w3.org/2000/svg">
<path d="M10.794 1.33594H5.20732C2.78066 1.33594 1.33398 2.7826 1.33398 5.20927V10.7892C1.33398 13.2226 2.78066 14.6692 5.20732 14.6692H10.7874C13.214 14.6692 14.6606 13.2226 14.6606 10.796V5.20927C14.6674 2.7826 13.2206 1.33594 10.794 1.33594ZM10.2406 9.53596C10.434 9.72924 10.434 10.0492 10.2406 10.2426C10.1406 10.3426 10.014 10.3892 9.88735 10.3892C9.76063 10.3892 9.63399 10.3426 9.53399 10.2426L8.00063 8.70924L6.46732 10.2426C6.36732 10.3426 6.24066 10.3892 6.11398 10.3892C5.98732 10.3892 5.86066 10.3426 5.76066 10.2426C5.56732 10.0492 5.56732 9.72924 5.76066 9.53596L7.29398 8.0026L5.76066 6.46927C5.56732 6.27594 5.56732 5.95594 5.76066 5.7626C5.95398 5.56927 6.27398 5.56927 6.46732 5.7626L8.00063 7.29594L9.53399 5.7626C9.72735 5.56927 10.0474 5.56927 10.2406 5.7626C10.434 5.95594 10.434 6.27594 10.2406 6.46927L8.70735 8.0026L10.2406 9.53596Z" fill="white"/>
</svg>
