<svg width="16" height="16" viewBox="0 0 16 16" fill="none" xmlns="http://www.w3.org/2000/svg">
<path d="M7.99934 7.6875C6.15934 7.6875 4.66602 9.1808 4.66602 11.0208C4.66602 11.5142 4.77268 11.9808 4.97268 12.3942C5.02602 12.5142 5.08602 12.6275 5.15268 12.7342C5.72602 13.7008 6.78602 14.3542 7.99934 14.3542C9.21265 14.3542 10.2726 13.7008 10.846 12.7342C10.9126 12.6275 10.9726 12.5142 11.026 12.3942C11.226 11.9808 11.3326 11.5142 11.3326 11.0208C11.3326 9.1808 9.83937 7.6875 7.99934 7.6875ZM9.37937 10.7342L7.95934 12.0475C7.86602 12.1342 7.73934 12.1808 7.61934 12.1808C7.49268 12.1808 7.36602 12.1342 7.26602 12.0342L6.60602 11.3742C6.41268 11.1808 6.41268 10.8608 6.60602 10.6675C6.79934 10.4742 7.11934 10.4742 7.31268 10.6675L7.63268 10.9875L8.69937 10.0008C8.90601 9.81416 9.21937 9.82752 9.40601 10.0275C9.59265 10.2275 9.57937 10.5408 9.37937 10.7342Z" fill="white"/>
<path d="M13.4662 11.3797C13.2262 11.593 12.9662 11.773 12.6862 11.9197C12.4462 12.0397 12.2062 11.8063 12.2462 11.5397C12.2729 11.3463 12.2862 11.1463 12.2862 10.9397C12.2862 8.55302 10.3395 6.60636 7.95288 6.60636C5.56623 6.60636 3.61955 8.55302 3.61955 10.9397C3.61955 11.2463 3.65289 11.5397 3.71289 11.8263C3.75955 12.0597 3.57955 12.293 3.34623 12.233C0.712891 11.593 0.699558 7.53967 3.64623 7.333H3.67955C1.53955 1.37969 10.5662 -1.00031 11.5995 5.25303C14.4862 5.61969 15.6529 9.4663 13.4662 11.3797Z" fill="white"/>
</svg>
