<svg width="16" height="16" viewBox="0 0 16 16" fill="none" xmlns="http://www.w3.org/2000/svg">
<path d="M13.2006 7.99823H2.80069C2.65402 7.99823 2.52069 7.89823 2.47402 7.75823C0.640686 1.69823 9.89406 -0.628433 10.9674 5.87823C12.0741 6.01823 12.9473 6.6449 13.4873 7.4849C13.6273 7.7049 13.4606 7.99823 13.2006 7.99823Z" fill="white"/>
<path d="M13.3326 10.5195H2.66602C2.39268 10.5195 2.16602 10.2929 2.16602 10.0195C2.16602 9.74625 2.39268 9.51953 2.66602 9.51953H13.3326C13.606 9.51953 13.8326 9.74625 13.8326 10.0195C13.8326 10.2929 13.606 10.5195 13.3326 10.5195Z" fill="white"/>
<path d="M12 12.5195H4C3.72666 12.5195 3.5 12.2929 3.5 12.0195C3.5 11.7463 3.72666 11.5195 4 11.5195H12C12.2734 11.5195 12.5 11.7463 12.5 12.0195C12.5 12.2929 12.2734 12.5195 12 12.5195Z" fill="white"/>
<path d="M10 14.5195H6C5.72666 14.5195 5.5 14.2929 5.5 14.0195C5.5 13.7463 5.72666 13.5195 6 13.5195H10C10.2734 13.5195 10.5 13.7463 10.5 14.0195C10.5 14.2929 10.2734 14.5195 10 14.5195Z" fill="white"/>
</svg>
