<svg width="16" height="16" viewBox="0 0 16 16" fill="none" xmlns="http://www.w3.org/2000/svg">
<path d="M13.4474 11.714C13.094 12.0406 12.6874 12.2872 12.2474 12.454C11.8074 12.6206 11.334 12.3006 11.334 11.8272V10.9472C11.334 9.64724 10.2806 8.59396 8.98063 8.59396H7.02066C5.72066 8.59396 4.66732 9.64724 4.66732 10.9472V12.0006C4.66732 12.3672 4.36732 12.6672 4.00066 12.6672H3.70066C2.06732 12.4206 1.33398 11.094 1.33398 9.90724C1.33398 8.78724 1.98732 7.54727 3.40732 7.2006C3.01398 5.64727 3.34732 4.18727 4.36066 3.12727C5.51398 1.92061 7.35398 1.44061 8.94063 1.93394C10.4006 2.38061 11.4274 3.58061 11.794 5.24727C13.0674 5.53394 14.0874 6.49395 14.494 7.82727C14.934 9.27396 14.534 10.7606 13.4474 11.714Z" fill="white"/>
<path d="M8.97937 9.59375H7.01934C6.17268 9.59375 5.66602 10.1004 5.66602 10.9471V12.9071C5.66602 13.7538 6.17268 14.2604 7.01934 14.2604H8.97937C9.82601 14.2604 10.3326 13.7538 10.3326 12.9071V10.9471C10.3326 10.1004 9.82601 9.59375 8.97937 9.59375ZM9.31265 12.6271C9.47937 12.7938 9.47937 13.0671 9.31265 13.2338C9.22601 13.3138 9.11937 13.3538 9.00601 13.3538C8.89937 13.3538 8.79265 13.3138 8.70601 13.2338L7.99934 12.5271L7.29934 13.2338C7.21268 13.3138 7.10602 13.3538 6.99268 13.3538C6.88602 13.3538 6.77934 13.3138 6.69268 13.2338C6.52602 13.0671 6.52602 12.7938 6.69268 12.6271L7.39934 11.9204L6.69268 11.2204C6.52602 11.0538 6.52602 10.7804 6.69268 10.6138C6.85934 10.4471 7.13268 10.4471 7.29934 10.6138L7.99934 11.3204L8.70601 10.6138C8.87265 10.4471 9.14601 10.4471 9.31265 10.6138C9.47937 10.7804 9.47937 11.0538 9.31265 11.2204L8.60601 11.9204L9.31265 12.6271Z" fill="white"/>
</svg>
