<svg width="16" height="16" viewBox="0 0 16 16" fill="none" xmlns="http://www.w3.org/2000/svg">
<path d="M0.800781 9.99844C0.800781 11.9867 2.41256 13.5984 4.40078 13.5984H12.0008C13.7681 13.5984 15.2008 12.1657 15.2008 10.3984C15.2008 9.17036 14.509 8.10388 13.4939 7.5674C13.5635 7.32307 13.6008 7.06511 13.6008 6.79844C13.6008 5.25204 12.3472 3.99844 10.8008 3.99844C10.4821 3.99844 10.1759 4.05168 9.89046 4.14974C9.26142 3.10061 8.1131 2.39844 6.80078 2.39844C4.81256 2.39844 3.20078 4.01021 3.20078 5.99844C3.20078 6.19879 3.21715 6.39532 3.24861 6.58676C1.82545 7.0672 0.800781 8.41316 0.800781 9.99844Z" fill="#0F172A"/>
</svg>
