<svg width="16" height="16" viewBox="0 0 16 16" fill="none" xmlns="http://www.w3.org/2000/svg">
<path d="M13.4474 11.714C13.094 12.0406 12.6874 12.2872 12.2474 12.454C11.8074 12.6206 11.334 12.3006 11.334 11.8272V10.9472C11.334 9.64724 10.2806 8.59396 8.98063 8.59396H7.02066C5.72066 8.59396 4.66732 9.64724 4.66732 10.9472V12.0006C4.66732 12.3672 4.36732 12.6672 4.00066 12.6672H3.70066C2.06732 12.4206 1.33398 11.094 1.33398 9.90724C1.33398 8.78724 1.98732 7.54727 3.40732 7.2006C3.01398 5.64727 3.34732 4.18727 4.36066 3.12727C5.51398 1.92061 7.35398 1.44061 8.94063 1.93394C10.4006 2.38061 11.4274 3.58061 11.794 5.24727C13.0674 5.53394 14.0874 6.49395 14.494 7.82727C14.934 9.27396 14.534 10.7606 13.4474 11.714Z" fill="white"/>
<path d="M8.97937 9.59375H7.01934C6.17268 9.59375 5.66602 10.1004 5.66602 10.9471V12.9071C5.66602 13.7538 6.17268 14.2604 7.01934 14.2604H8.97937C9.82601 14.2604 10.3326 13.7538 10.3326 12.9071V10.9471C10.3326 10.1004 9.82601 9.59375 8.97937 9.59375ZM7.80602 12.5604L6.97934 13.3804C6.91934 13.4404 6.83934 13.4737 6.76602 13.4737C6.67934 13.4737 6.60602 13.4404 6.54602 13.3804C6.42602 13.2604 6.42602 13.0671 6.54602 12.9471L7.36602 12.1204C7.49268 12.0004 7.68602 12.0004 7.80602 12.1204C7.92602 12.2404 7.92602 12.4404 7.80602 12.5604ZM7.80602 10.9071L6.97934 11.7338C6.91934 11.7938 6.83934 11.8271 6.76602 11.8271C6.67934 11.8271 6.60602 11.7938 6.54602 11.7338C6.42602 11.6138 6.42602 11.4138 6.54602 11.2938L7.36602 10.4738C7.49268 10.3538 7.68602 10.3538 7.80602 10.4738C7.92602 10.5938 7.92602 10.7871 7.80602 10.9071ZM9.45265 12.5604L8.63265 13.3804C8.56601 13.4404 8.49265 13.4737 8.41265 13.4737C8.33265 13.4737 8.25265 13.4404 8.19265 13.3804C8.07265 13.2604 8.07265 13.0671 8.19265 12.9471L9.01937 12.1204C9.13937 12.0004 9.33265 12.0004 9.45265 12.1204C9.57265 12.2404 9.57265 12.4404 9.45265 12.5604ZM9.45265 10.9071L8.63265 11.7338C8.56601 11.7938 8.49265 11.8271 8.41265 11.8271C8.33265 11.8271 8.25265 11.7938 8.19265 11.7338C8.07265 11.6138 8.07265 11.4138 8.19265 11.2938L9.01937 10.4738C9.13937 10.3538 9.33265 10.3538 9.45265 10.4738C9.57265 10.5938 9.57265 10.7871 9.45265 10.9071Z" fill="white"/>
</svg>
