<svg width="16" height="16" viewBox="0 0 16 16" fill="none" xmlns="http://www.w3.org/2000/svg">
<path fill-rule="evenodd" clip-rule="evenodd" d="M4.40078 13.5984C2.41256 13.5984 0.800781 11.9867 0.800781 9.99844C0.800781 8.41316 1.82545 7.0672 3.24861 6.58676C3.21715 6.39532 3.20078 6.19879 3.20078 5.99844C3.20078 4.01021 4.81256 2.39844 6.80078 2.39844C8.1131 2.39844 9.26142 3.10061 9.89046 4.14974C10.1759 4.05168 10.4821 3.99844 10.8008 3.99844C12.3472 3.99844 13.6008 5.25204 13.6008 6.79844C13.6008 7.06511 13.5635 7.32307 13.4939 7.5674C14.509 8.10388 15.2008 9.17036 15.2008 10.3984C15.2008 12.1657 13.7681 13.5984 12.0008 13.5984H4.40078ZM7.40078 11.3984C7.40078 11.7298 7.66941 11.9984 8.00078 11.9984C8.33214 11.9984 8.60078 11.7298 8.60078 11.3984V7.72636L10.1611 9.40668C10.3866 9.64956 10.7662 9.66356 11.009 9.43812C11.2519 9.2126 11.2659 8.833 11.0405 8.5902L8.44046 5.79017C8.32694 5.66791 8.16766 5.59844 8.00078 5.59844C7.83394 5.59844 7.67463 5.66791 7.56111 5.79017L4.96111 8.5902C4.73562 8.833 4.74969 9.2126 4.99251 9.43812C5.23533 9.66356 5.61497 9.64956 5.84046 9.40668L7.40078 7.72636V11.3984Z" fill="#0F172A"/>
</svg>
