<svg width="16" height="16" viewBox="0 0 16 16" fill="none" xmlns="http://www.w3.org/2000/svg">
<path d="M13.4474 11.714C13.094 12.0406 12.6874 12.2872 12.2474 12.454C11.8074 12.6206 11.334 12.3006 11.334 11.8272V10.9472C11.334 9.64724 10.2806 8.59396 8.98063 8.59396H7.02066C5.72066 8.59396 4.66732 9.64724 4.66732 10.9472V12.0006C4.66732 12.3672 4.36732 12.6672 4.00066 12.6672H3.70066C2.06732 12.4206 1.33398 11.094 1.33398 9.90724C1.33398 8.78724 1.98732 7.54727 3.40732 7.2006C3.01398 5.64727 3.34732 4.18727 4.36066 3.12727C5.51398 1.92061 7.35398 1.44061 8.94063 1.93394C10.4006 2.38061 11.4274 3.58061 11.794 5.24727C13.0674 5.53394 14.0874 6.49395 14.494 7.82727C14.934 9.27396 14.534 10.7606 13.4474 11.714Z" fill="white"/>
<path d="M8.97937 9.59375H7.01934C6.17268 9.59375 5.66602 10.1004 5.66602 10.9471V12.9071C5.66602 13.7538 6.17268 14.2604 7.01934 14.2604H8.97937C9.82601 14.2604 10.3326 13.7538 10.3326 12.9071V10.9471C10.3326 10.1004 9.82601 9.59375 8.97937 9.59375ZM9.11265 12.0338L7.99934 13.3004L7.86602 13.4538C7.68602 13.6604 7.53268 13.6071 7.53268 13.3271V12.1404H7.02602C6.79268 12.1404 6.73268 12.0004 6.88602 11.8271L7.99934 10.5604L8.13265 10.4071C8.31265 10.2004 8.46601 10.2538 8.46601 10.5338V11.7204H8.97265C9.20601 11.7138 9.26601 11.8604 9.11265 12.0338Z" fill="white"/>
</svg>
