<svg width="16" height="16" viewBox="0 0 16 16" fill="none" xmlns="http://www.w3.org/2000/svg">
<g clip-path="url(#clip0_13_13170)">
<path d="M5.4075 7.89856C3.5275 8.03186 3.53417 10.7652 5.4075 10.8986H9.85414C10.3941 10.9052 10.9142 10.6986 11.3142 10.3386C12.6342 9.18522 11.9275 6.8719 10.1942 6.65187C9.57422 2.89187 4.14084 4.31854 5.4275 7.89856" fill="white"/>
<path d="M6.00066 15.1666C3.15398 15.1666 0.833984 12.8466 0.833984 10C0.833984 9.72664 1.06066 9.5 1.33398 9.5C1.60732 9.5 1.83398 9.72664 1.83398 10C1.83398 11.9734 3.20732 13.6266 5.05398 14.06L4.87398 13.76C4.73398 13.52 4.80732 13.2134 5.04732 13.0734C5.28066 12.9334 5.59398 13.0066 5.73398 13.2466L6.43398 14.4134C6.52732 14.5666 6.52732 14.76 6.44066 14.9134C6.34732 15.0666 6.18066 15.1666 6.00066 15.1666Z" fill="white"/>
<path d="M14.667 6.5026C14.3936 6.5026 14.167 6.27594 14.167 6.0026C14.167 4.02927 12.7936 2.37594 10.947 1.9426L11.127 2.2426C11.267 2.4826 11.1936 2.78927 10.9536 2.92927C10.7203 3.06927 10.407 2.99594 10.267 2.75594L9.56697 1.58927C9.47361 1.43594 9.47361 1.2426 9.56033 1.08927C9.65361 0.935938 9.82033 0.835938 10.0003 0.835938C12.847 0.835938 15.167 3.15594 15.167 6.0026C15.167 6.27594 14.9403 6.5026 14.667 6.5026Z" fill="white"/>
</g>
<defs>
<clipPath id="clip0_13_13170">
<rect width="16" height="16" fill="white"/>
</clipPath>
</defs>
</svg>
