<svg width="16" height="16" viewBox="0 0 16 16" fill="none" xmlns="http://www.w3.org/2000/svg">
<path fill-rule="evenodd" clip-rule="evenodd" d="M4.40078 13.5984C2.41256 13.5984 0.800781 11.9867 0.800781 9.99844C0.800781 8.41316 1.82545 7.0672 3.24861 6.58676C3.21715 6.39532 3.20078 6.19879 3.20078 5.99844C3.20078 4.01021 4.81256 2.39844 6.80078 2.39844C8.1131 2.39844 9.26142 3.10061 9.89046 4.14974C10.1759 4.05168 10.4821 3.99844 10.8008 3.99844C12.3472 3.99844 13.6008 5.25204 13.6008 6.79844C13.6008 7.06511 13.5635 7.32307 13.4939 7.5674C14.509 8.10388 15.2008 9.17036 15.2008 10.3984C15.2008 12.1657 13.7681 13.5984 12.0008 13.5984H4.40078ZM8.60078 6.19844C8.60078 5.86707 8.33214 5.59844 8.00078 5.59844C7.66941 5.59844 7.40078 5.86707 7.40078 6.19844V9.87052L5.84045 8.1902C5.61497 7.94734 5.23533 7.93328 4.99251 8.15876C4.74969 8.38428 4.73562 8.76388 4.96111 9.00668L7.56111 11.8067C7.67463 11.929 7.83394 11.9984 8.00078 11.9984C8.16766 11.9984 8.32694 11.929 8.44046 11.8067L11.0405 9.00668C11.2659 8.76388 11.2519 8.38428 11.009 8.15876C10.7662 7.93328 10.3866 7.94734 10.1611 8.1902L8.60078 9.87052V6.19844Z" fill="#0F172A"/>
</svg>
