<svg width="16" height="16" viewBox="0 0 16 16" fill="none" xmlns="http://www.w3.org/2000/svg">
<path d="M7.99934 7.6875C6.15934 7.6875 4.66602 9.1808 4.66602 11.0208C4.66602 11.5142 4.77268 11.9808 4.97268 12.3942C5.02602 12.5142 5.08602 12.6275 5.15268 12.7342C5.72602 13.7008 6.78602 14.3542 7.99934 14.3542C9.21265 14.3542 10.2726 13.7008 10.846 12.7342C10.9126 12.6275 10.9726 12.5142 11.026 12.3942C11.226 11.9808 11.3326 11.5142 11.3326 11.0208C11.3326 9.1808 9.83937 7.6875 7.99934 7.6875ZM8.99937 12.0942C8.89937 12.1942 8.77265 12.2408 8.64601 12.2408C8.51937 12.2408 8.39265 12.1942 8.29265 12.0942L7.93934 11.7408L7.57268 12.1075C7.47268 12.2075 7.34602 12.2542 7.21934 12.2542C7.09268 12.2542 6.96602 12.2075 6.86602 12.1075C6.67268 11.9142 6.67268 11.5942 6.86602 11.4008L7.23268 11.0342L6.87934 10.6808C6.68602 10.4875 6.68602 10.1675 6.87934 9.97416C7.07268 9.7808 7.39268 9.7808 7.58602 9.97416L7.93934 10.3275L8.27265 9.99416C8.46601 9.8008 8.78601 9.8008 8.97937 9.99416C9.17265 10.1875 9.17265 10.5075 8.97937 10.7008L8.64601 11.0342L8.99937 11.3875C9.19265 11.5875 9.19265 11.9008 8.99937 12.0942Z" fill="white"/>
<path d="M13.4662 11.5247C13.2262 11.738 12.9662 11.918 12.6862 12.0647C12.4462 12.1847 12.2062 11.9513 12.2462 11.6847C12.2729 11.4913 12.2862 11.2913 12.2862 11.0847C12.2862 8.69804 10.3395 6.75133 7.95288 6.75133C5.56623 6.75133 3.61955 8.69804 3.61955 11.0847C3.61955 11.3913 3.65289 11.6847 3.71289 11.9713C3.75955 12.2047 3.57955 12.438 3.34623 12.378C0.712891 11.738 0.699558 7.68466 3.64623 7.47133H3.67955C1.53955 1.52469 10.5662 -0.855307 11.5995 5.39802C14.4862 5.76469 15.6529 9.61132 13.4662 11.5247Z" fill="white"/>
</svg>
