<svg width="16" height="16" viewBox="0 0 16 16" fill="none" xmlns="http://www.w3.org/2000/svg">
<path d="M14.1798 5.83855C14.1798 6.51855 13.8665 7.1319 13.3598 7.5319C12.9932 7.8319 12.5198 8.01192 12.0065 8.01192C10.8132 8.01192 9.83984 7.03856 9.83984 5.84521C9.83984 5.25188 10.0798 4.71188 10.4798 4.31855V4.31188C10.8732 3.91855 11.4132 3.67188 12.0065 3.67188C13.2065 3.67188 14.1798 4.64521 14.1798 5.83855Z" fill="white"/>
<path d="M13.4532 12.4885C12.7532 13.1285 11.8532 13.4818 10.8998 13.4818H3.97984C2.15318 13.3485 1.33984 11.9418 1.33984 10.6885C1.33984 9.56852 1.98652 8.32852 3.40652 7.98184C2.78652 5.5952 3.97318 3.92852 5.35984 3.13519C6.7332 2.35519 8.66656 2.22852 10.1198 3.30185C9.9932 3.39519 9.87984 3.49519 9.76656 3.60852L9.47984 3.90852V3.94852C9.06656 4.48852 8.83984 5.14852 8.83984 5.84186C8.83984 7.58851 10.2666 9.00852 12.0132 9.00852C12.7332 9.00852 13.4332 8.7618 13.9798 8.31516C14.0798 8.23516 14.1798 8.14852 14.2666 8.05516C14.9266 9.4418 14.8332 11.2818 13.4532 12.4885Z" fill="white"/>
</svg>
