<svg width="16" height="16" viewBox="0 0 16 16" fill="none" xmlns="http://www.w3.org/2000/svg">
<path d="M12.7998 9.85278C12.2265 10.3795 11.4665 10.6728 10.6865 10.6661H4.24648C1.53316 10.4728 1.52648 6.53279 4.24648 6.33945H4.27316C2.41316 1.16612 10.2731 -0.893878 11.1731 4.53279C13.6865 4.85279 14.7065 8.19278 12.7998 9.85278Z" fill="white"/>
<path d="M12.5 13.9974C12.5 14.2708 12.2734 14.4974 12 14.4974H9.33336C9.3 14.4974 9.27336 14.4974 9.24 14.4841C9.04664 14.9774 8.56 15.3308 8 15.3308C7.44 15.3308 6.95334 14.9774 6.76 14.4841C6.72666 14.4974 6.7 14.4974 6.66666 14.4974H4C3.72666 14.4974 3.5 14.2708 3.5 13.9974C3.5 13.7241 3.72666 13.4974 4 13.4974H6.66666C6.7 13.4974 6.72666 13.4974 6.76 13.5108C6.89334 13.1641 7.16666 12.8908 7.51334 12.7574C7.5 12.7241 7.5 12.6974 7.5 12.6641V10.6641H8.5V12.6641C8.5 12.6974 8.5 12.7241 8.48664 12.7574C8.83336 12.8908 9.10664 13.1641 9.24 13.5108C9.27336 13.4974 9.3 13.4974 9.33336 13.4974H12C12.2734 13.4974 12.5 13.7241 12.5 13.9974Z" fill="white"/>
</svg>
