<svg width="16" height="16" viewBox="0 0 16 16" fill="none" xmlns="http://www.w3.org/2000/svg">
<path d="M13.7398 7.21904C13.2266 6.60567 12.5666 6.20567 11.7998 6.03233C11.6266 5.259 11.3266 4.59233 10.8866 4.039C10.8732 4.019 10.8598 3.999 10.8466 3.98567C9.37984 2.21233 6.97987 2.219 5.35985 3.139C3.97318 3.93233 2.79318 5.60567 3.41318 7.9923C1.99318 8.33898 1.33984 9.57898 1.33984 10.699C1.33984 11.9523 2.15984 13.359 3.98652 13.4923H10.8798C10.8866 13.4923 10.8998 13.4923 10.9066 13.4923C11.8532 13.4923 12.7598 13.1391 13.4598 12.4991C15.1332 11.0191 14.9132 8.60562 13.7398 7.21904Z" fill="white"/>
<path d="M14.5062 5.82651C14.5062 6.05318 14.4795 6.27317 14.4128 6.48651C13.9262 5.91984 13.3062 5.49984 12.6195 5.23984C12.4062 4.57318 12.0995 3.97984 11.6995 3.45984C11.6795 3.43318 11.6595 3.40651 11.6328 3.37318C11.7595 3.34651 11.8928 3.33984 12.0195 3.33984C13.3928 3.33984 14.5062 4.45318 14.5062 5.82651Z" fill="white"/>
</svg>
