<svg width="16" height="16" viewBox="0 0 16 16" fill="none" xmlns="http://www.w3.org/2000/svg">
<path fill-rule="evenodd" clip-rule="evenodd" d="M5.02387 4.17573C5.25819 4.41005 5.25819 4.78995 5.02387 5.02426L2.04814 7.99998L5.02387 10.9757C5.25819 11.2101 5.25819 11.59 5.02387 11.8243C4.78956 12.0585 4.40966 12.0585 4.17534 11.8243L0.775345 8.4243C0.541031 8.18998 0.541031 7.81005 0.775345 7.57573L4.17534 4.17573C4.40966 3.94142 4.78956 3.94142 5.02387 4.17573ZM10.9754 4.17573C11.2097 3.94142 11.5895 3.94142 11.8238 4.17573L15.2238 7.57573C15.4582 7.81005 15.4582 8.18998 15.2238 8.4243L11.8238 11.8243C11.5895 12.0585 11.2097 12.0585 10.9754 11.8243C10.741 11.59 10.741 11.2101 10.9754 10.9757L13.9511 7.99998L10.9754 5.02426C10.741 4.78995 10.741 4.41005 10.9754 4.17573Z" fill="#0F172A"/>
<path fill-rule="evenodd" clip-rule="evenodd" d="M9.10241 1.61038C9.42897 1.66668 9.64809 1.97705 9.59177 2.3036L7.59176 13.9036C7.53547 14.2301 7.2251 14.4492 6.89855 14.3929C6.57199 14.3366 6.35291 14.0263 6.40921 13.6997L8.40921 2.09971C8.46553 1.77316 8.77585 1.55408 9.10241 1.61038Z" fill="#0F172A"/>
</svg>
