<svg width="16" height="16" viewBox="0 0 16 16" fill="none" xmlns="http://www.w3.org/2000/svg">
<path fill-rule="evenodd" clip-rule="evenodd" d="M3.39961 1.60156C2.4055 1.60156 1.59961 2.40745 1.59961 3.40156V12.6016C1.59961 13.5956 2.4055 14.4016 3.39961 14.4016H12.5996C13.5937 14.4016 14.3996 13.5956 14.3996 12.6016V3.40156C14.3996 2.40745 13.5937 1.60156 12.5996 1.60156H3.39961ZM6.62387 6.62583C6.85819 6.39151 6.85819 6.01161 6.62387 5.7773C6.38956 5.54299 6.00966 5.54299 5.77535 5.7773L3.97535 7.5773C3.74103 7.81161 3.74103 8.19148 3.97535 8.4258L5.77535 10.2258C6.00966 10.4601 6.38956 10.4601 6.62387 10.2258C6.85819 9.99148 6.85819 9.61164 6.62387 9.37732L5.24814 8.00156L6.62387 6.62583ZM10.2238 5.7773C9.98953 5.54299 9.60969 5.54299 9.37537 5.7773C9.14105 6.01161 9.14105 6.39151 9.37537 6.62583L10.751 8.00156L9.37537 9.37732C9.14105 9.61164 9.14105 9.99148 9.37537 10.2258C9.60969 10.4601 9.98953 10.4601 10.2238 10.2258L12.0238 8.4258C12.2582 8.19148 12.2582 7.81161 12.0238 7.5773L10.2238 5.7773Z" fill="#0F172A"/>
</svg>
