<svg width="16" height="16" viewBox="0 0 16 16" fill="none" xmlns="http://www.w3.org/2000/svg">
<path d="M8.00063 1.33594C4.32066 1.33594 1.33398 4.3226 1.33398 8.0026C1.33398 11.6826 4.32066 14.6692 8.00063 14.6692C11.6806 14.6692 14.6674 11.6826 14.6674 8.0026C14.6674 4.3226 11.6806 1.33594 8.00063 1.33594ZM5.68732 8.9826C5.88066 9.17596 5.88066 9.49596 5.68732 9.68924C5.58732 9.78924 5.46066 9.83596 5.33398 9.83596C5.20732 9.83596 5.08066 9.78924 4.98066 9.68924L3.64732 8.35596C3.45398 8.1626 3.45398 7.8426 3.64732 7.64927L4.98066 6.31594C5.17398 6.1226 5.49398 6.1226 5.68732 6.31594C5.88066 6.50927 5.88066 6.82927 5.68732 7.0226L4.70732 8.0026L5.68732 8.9826ZM9.12735 6.6426L7.79398 9.75596C7.71398 9.9426 7.52732 10.056 7.33398 10.056C7.26732 10.056 7.20066 10.0426 7.14066 10.016C6.88732 9.90924 6.76732 9.61596 6.88066 9.35596L8.21399 6.2426C8.32063 5.98927 8.61399 5.86927 8.86735 5.9826C9.12063 6.09594 9.23399 6.38927 9.12735 6.6426ZM12.354 8.35596L11.0206 9.68924C10.9206 9.78924 10.794 9.83596 10.6674 9.83596C10.5406 9.83596 10.414 9.78924 10.314 9.68924C10.1206 9.49596 10.1206 9.17596 10.314 8.9826L11.294 8.0026L10.314 7.0226C10.1206 6.82927 10.1206 6.50927 10.314 6.31594C10.5074 6.1226 10.8274 6.1226 11.0206 6.31594L12.354 7.64927C12.5474 7.8426 12.5474 8.1626 12.354 8.35596Z" fill="white"/>
</svg>
