<svg width="16" height="16" viewBox="0 0 16 16" fill="none" xmlns="http://www.w3.org/2000/svg">
<path d="M14.0006 6.66406H2.00066C1.63398 6.66406 1.33398 6.96406 1.33398 7.33073V10.7908C1.33398 10.924 1.34066 11.0574 1.35398 11.1908C1.48732 13.244 2.75398 14.5108 4.80732 14.644C4.94066 14.6574 5.07398 14.664 5.20732 14.664H10.794C10.9274 14.664 11.0606 14.6574 11.194 14.644C13.2474 14.5108 14.514 13.244 14.6474 11.1908C14.6606 11.0574 14.6674 10.924 14.6674 10.7908V7.33073C14.6674 6.96406 14.3674 6.66406 14.0006 6.66406ZM5.33398 10.764C5.56066 11.0974 5.86732 11.3708 6.22066 11.5508C6.47398 11.6708 6.57398 11.9708 6.44732 12.224C6.36066 12.3974 6.18066 12.4974 6.00066 12.4974C5.92732 12.4974 5.84732 12.4774 5.78066 12.444C5.26066 12.1908 4.82066 11.7974 4.50732 11.324C4.24066 10.924 4.24066 10.404 4.50732 10.004C4.82066 9.53076 5.26066 9.1374 5.78066 8.88404C6.02732 8.7574 6.32732 8.8574 6.44732 9.10404C6.57398 9.3574 6.47398 9.6574 6.22066 9.7774C5.86732 9.9574 5.56066 10.2308 5.33398 10.564C5.29398 10.624 5.29398 10.704 5.33398 10.764ZM11.634 11.324C11.314 11.7974 10.874 12.1908 10.3606 12.444C10.2874 12.4774 10.214 12.4974 10.1406 12.4974C9.95399 12.4974 9.78063 12.3974 9.69399 12.224C9.56735 11.9708 9.66735 11.6708 9.91399 11.5508C10.274 11.3708 10.5806 11.0974 10.8006 10.764C10.8474 10.704 10.8474 10.624 10.8006 10.564C10.5806 10.2308 10.274 9.9574 9.91399 9.7774C9.66735 9.6574 9.56735 9.3574 9.69399 9.10404C9.81399 8.8574 10.114 8.7574 10.3606 8.88404C10.874 9.1374 11.314 9.53076 11.634 10.004C11.9006 10.404 11.9006 10.924 11.634 11.324Z" fill="white"/>
<path d="M14.6674 5.20927V5.33594C14.6674 5.7026 14.3674 6.0026 14.0006 6.0026L2.00066 6.00927C1.63398 6.00927 1.33398 5.70927 1.33398 5.3426V5.20927C1.33398 5.07594 1.34066 4.9426 1.35398 4.80927C1.48732 2.75594 2.75398 1.48927 4.80732 1.35594C4.94066 1.3426 5.07398 1.33594 5.20732 1.33594H10.794C10.9274 1.33594 11.0606 1.3426 11.194 1.35594C13.2474 1.48927 14.514 2.75594 14.6474 4.80927C14.6606 4.9426 14.6674 5.07594 14.6674 5.20927Z" fill="white"/>
</svg>
