<svg width="16" height="16" viewBox="0 0 16 16" fill="none" xmlns="http://www.w3.org/2000/svg">
<path d="M10.794 1.33594H5.20732C2.78066 1.33594 1.33398 2.7826 1.33398 5.20927V10.7892C1.33398 13.2226 2.78066 14.6692 5.20732 14.6692H10.7874C13.214 14.6692 14.6606 13.2226 14.6606 10.796V5.20927C14.6674 2.7826 13.2206 1.33594 10.794 1.33594ZM6.62732 8.84924C6.17398 9.52924 5.54732 10.0826 4.81398 10.4492C4.74732 10.4826 4.66732 10.5026 4.59398 10.5026C4.40732 10.5026 4.23398 10.4026 4.14732 10.2292C4.02066 9.9826 4.12066 9.6826 4.37398 9.55596C4.95398 9.26924 5.44732 8.82924 5.80066 8.29596C5.92066 8.11596 5.92066 7.88927 5.80066 7.70927C5.44066 7.17594 4.94732 6.73594 4.37398 6.44927C4.12066 6.32927 4.02066 6.02927 4.14732 5.77594C4.26732 5.52927 4.56732 5.42927 4.81398 5.55594C5.54732 5.9226 6.17398 6.47594 6.62732 7.15594C6.97398 7.66927 6.97398 8.33596 6.62732 8.84924ZM11.334 10.5026H8.66735C8.39399 10.5026 8.16735 10.276 8.16735 10.0026C8.16735 9.72924 8.39399 9.5026 8.66735 9.5026H11.334C11.6074 9.5026 11.834 9.72924 11.834 10.0026C11.834 10.276 11.6074 10.5026 11.334 10.5026Z" fill="white"/>
</svg>
