<svg width="16" height="16" viewBox="0 0 16 16" fill="none" xmlns="http://www.w3.org/2000/svg">
<path d="M4 3.41277C3.72666 3.41277 3.5 3.18609 3.5 2.91277V1.74609C3.5 1.47277 3.72666 1.24609 4 1.24609C4.27334 1.24609 4.5 1.47277 4.5 1.74609V2.91277C4.5 3.19277 4.27334 3.41277 4 3.41277Z" fill="white"/>
<path d="M6.66602 3.41277C6.39268 3.41277 6.16602 3.18609 6.16602 2.91277V1.74609C6.16602 1.47277 6.39268 1.24609 6.66602 1.24609C6.93934 1.24609 7.16602 1.47277 7.16602 1.74609V2.91277C7.16602 3.19277 6.93934 3.41277 6.66602 3.41277Z" fill="white"/>
<path d="M9.33398 3.41277C9.06062 3.41277 8.83398 3.18609 8.83398 2.91277V1.74609C8.83398 1.47277 9.06062 1.24609 9.33398 1.24609C9.60734 1.24609 9.83398 1.47277 9.83398 1.74609V2.91277C9.83398 3.19277 9.60734 3.41277 9.33398 3.41277Z" fill="white"/>
<path d="M14.8326 8.83192C14.8326 7.08523 13.4794 5.67187 11.7726 5.52521C11.2794 4.71855 10.3994 4.17188 9.38601 4.17188H4.47268C2.92602 4.17188 1.66602 5.43187 1.66602 6.97856V7.3319H12.1926V6.97856C12.1926 6.8519 12.1726 6.72523 12.1526 6.60521C13.1194 6.8919 13.8326 7.7719 13.8326 8.83192C13.8326 9.87856 13.1394 10.7519 12.1926 11.0452V7.99856H1.66602V11.8586C1.66602 13.4052 2.92602 14.6652 4.47268 14.6652H9.38601C10.8526 14.6652 12.046 13.5319 12.166 12.0919C13.686 11.7852 14.8326 10.4386 14.8326 8.83192Z" fill="white"/>
</svg>
