<svg width="16" height="16" viewBox="0 0 16 16" fill="none" xmlns="http://www.w3.org/2000/svg">
<path fill-rule="evenodd" clip-rule="evenodd" d="M6.27176 1.44389C6.34655 1.06995 6.67488 0.800781 7.05623 0.800781H8.94455C9.32591 0.800781 9.65423 1.06995 9.72903 1.44389L9.99343 2.76581C10.5569 2.98045 11.0767 3.28344 11.5361 3.65785L12.8147 3.2253C13.1759 3.1031 13.5732 3.25285 13.7638 3.58311L14.708 5.21844C14.8987 5.54869 14.8297 5.96762 14.5433 6.21936L13.5299 7.10994C13.5763 7.40005 13.6004 7.69761 13.6004 8.00078C13.6004 8.30398 13.5763 8.6015 13.5299 8.89158L14.5433 9.78222C14.8297 10.0339 14.8987 10.4529 14.708 10.7831L13.7638 12.4185C13.5732 12.7487 13.1759 12.8985 12.8147 12.7762L11.5361 12.3437C11.0767 12.7181 10.5569 13.0211 9.99343 13.2357L9.72903 14.5577C9.65423 14.9316 9.32591 15.2008 8.94455 15.2008H7.05623C6.67488 15.2008 6.34655 14.9316 6.27176 14.5577L6.00738 13.2357C5.44393 13.0211 4.92407 12.7181 4.46473 12.3437L3.1861 12.7763C2.82487 12.8985 2.42759 12.7487 2.23692 12.4185L1.29276 10.7831C1.10209 10.4529 1.17103 10.034 1.45747 9.78222L2.47085 8.89158C2.42448 8.6015 2.40039 8.30398 2.40039 8.00078C2.40039 7.69761 2.42448 7.40006 2.47085 7.10996L1.45747 6.21937C1.17103 5.96764 1.10209 5.54871 1.29276 5.21845L2.23692 3.58313C2.42759 3.25287 2.82487 3.10311 3.1861 3.22531L4.46472 3.65785C4.92406 3.28344 5.44392 2.98045 6.00738 2.76581L6.27176 1.44389ZM8.00039 10.4008C9.32591 10.4008 10.4004 9.3263 10.4004 8.00078C10.4004 6.6753 9.32591 5.60078 8.00039 5.60078C6.67491 5.60078 5.60039 6.6753 5.60039 8.00078C5.60039 9.3263 6.67491 10.4008 8.00039 10.4008Z" fill="#0F172A"/>
</svg>
