<svg width="16" height="16" viewBox="0 0 16 16" fill="none" xmlns="http://www.w3.org/2000/svg">
<g clip-path="url(#clip0_13_13233)">
<path fill-rule="evenodd" clip-rule="evenodd" d="M6.67216 1.44389C6.74695 1.06995 7.07528 0.800781 7.45662 0.800781H8.54494C8.9263 0.800781 9.25462 1.06995 9.32942 1.44389L9.56502 2.62218C9.96254 2.73759 10.3418 2.89587 10.6975 3.09169L11.6977 2.42489C12.015 2.21336 12.4375 2.2552 12.7072 2.52485L13.4767 3.2944C13.7464 3.56405 13.7882 3.98655 13.5767 4.30385L12.9099 5.30405C13.1057 5.65973 13.264 6.03901 13.3793 6.4365L14.5577 6.67216C14.9316 6.74695 15.2008 7.07528 15.2008 7.45662V8.54494C15.2008 8.9263 14.9316 9.25462 14.5577 9.32942L13.3793 9.56502C13.264 9.96254 13.1057 10.3417 12.9099 10.6974L13.5768 11.6977C13.7883 12.015 13.7465 12.4375 13.4768 12.7072L12.7073 13.4767C12.4376 13.7464 12.0151 13.7882 11.6978 13.5767L10.6976 12.9098C10.3419 13.1057 9.96254 13.264 9.5651 13.3793L9.32942 14.5577C9.25462 14.9316 8.9263 15.2008 8.54494 15.2008H7.45662C7.07528 15.2008 6.74695 14.9316 6.67216 14.5577L6.4365 13.3793C6.03901 13.264 5.65974 13.1057 5.30405 12.9099L4.30384 13.5767C3.98654 13.7882 3.56405 13.7464 3.29439 13.4767L2.52484 12.7072C2.25519 12.4375 2.21335 12.015 2.42489 11.6977L3.09169 10.6975C2.89587 10.3418 2.73759 9.96254 2.62218 9.5651L1.44389 9.32942C1.06995 9.25462 0.800781 8.9263 0.800781 8.54494V7.45662C0.800781 7.07528 1.06995 6.74695 1.44389 6.67216L2.62218 6.4365C2.7376 6.03897 2.89589 5.65969 3.09173 5.30397L2.42497 4.30384C2.21344 3.98654 2.25528 3.56405 2.52493 3.29439L3.29448 2.52484C3.56413 2.25519 3.98663 2.21335 4.30393 2.42489L5.30409 3.09165C5.65977 2.89585 6.03902 2.73759 6.4365 2.62218L6.67216 1.44389ZM10.4008 8.00078C10.4008 9.3263 9.3263 10.4008 8.00078 10.4008C6.6753 10.4008 5.60078 9.3263 5.60078 8.00078C5.60078 6.6753 6.6753 5.60078 8.00078 5.60078C9.3263 5.60078 10.4008 6.6753 10.4008 8.00078Z" fill="#0F172A"/>
</g>
<defs>
<clipPath id="clip0_13_13233">
<rect width="16" height="16" fill="white"/>
</clipPath>
</defs>
</svg>
