<svg width="16" height="16" viewBox="0 0 16 16" fill="none" xmlns="http://www.w3.org/2000/svg">
<g clip-path="url(#clip0_13_13226)">
<path d="M10.4193 7.40077C10.7955 7.40077 11.081 7.05453 10.9291 6.71034C10.4329 5.58574 9.3081 4.80078 7.99994 4.80078C7.88294 4.80078 7.76742 4.80706 7.65369 4.81929C7.27937 4.85957 7.12193 5.28001 7.31017 5.60605L8.17314 7.10077C8.28034 7.28641 8.47842 7.40077 8.69274 7.40077H10.4193Z" fill="#0F172A"/>
<path d="M6.27237 6.20661C6.08407 5.88047 5.641 5.80655 5.41833 6.11027C5.03007 6.63987 4.80078 7.29332 4.80078 8.00033C4.80078 8.70737 5.03008 9.36081 5.41837 9.89041C5.64103 10.1942 6.0841 10.1203 6.2724 9.79409L7.13479 8.30041C7.24197 8.11473 7.24197 7.88602 7.13479 7.70038L6.27237 6.20661Z" fill="#0F172A"/>
<path d="M7.31017 10.3963C7.12193 10.7224 7.27938 11.1428 7.6537 11.1831C7.76742 11.1953 7.88292 11.2016 7.99989 11.2016C9.30805 11.2016 10.4328 10.4166 10.929 9.29196C11.0809 8.9478 10.7954 8.60156 10.4192 8.60156H8.69277C8.47845 8.60156 8.28037 8.71588 8.17317 8.90156L7.31017 10.3963Z" fill="#0F172A"/>
<path fill-rule="evenodd" clip-rule="evenodd" d="M11.3044 3.47857L11.8203 2.58501C11.986 2.29803 11.8877 1.93107 11.6007 1.76539C11.3137 1.5997 10.9468 1.69803 10.7811 1.98501L10.2657 2.8777C9.74734 2.6482 9.18758 2.49505 8.60078 2.43255V1.40078C8.60078 1.06941 8.33214 0.800781 8.00078 0.800781C7.66941 0.800781 7.40078 1.06941 7.40078 1.40078V2.43255C6.81397 2.49505 6.25425 2.6482 5.73587 2.87771L5.22048 1.98502C5.0548 1.69805 4.68784 1.59972 4.40086 1.76541C4.11389 1.93109 4.01557 2.29805 4.18125 2.58502L4.69715 3.47858C4.23105 3.81966 3.81965 4.23105 3.47858 4.69715L2.58485 4.18116C2.29788 4.01547 1.93092 4.1138 1.76524 4.40077C1.59955 4.68775 1.69788 5.0547 1.98485 5.22039L2.8777 5.73588C2.6482 6.25425 2.49505 6.81397 2.43255 7.40078H1.40078C1.06941 7.40078 0.800781 7.66941 0.800781 8.00078C0.800781 8.33214 1.06941 8.60078 1.40078 8.60078H2.43255C2.49505 9.18758 2.64819 9.74734 2.87769 10.2657L1.98485 10.7812C1.69788 10.9469 1.59955 11.3138 1.76524 11.6008C1.93092 11.8877 2.29788 11.9861 2.58485 11.8204L3.47857 11.3044C3.81962 11.7705 4.23098 12.1818 4.69703 12.5229L4.18109 13.4165C4.0154 13.7035 4.11373 14.0705 4.4007 14.2361C4.68767 14.4018 5.05463 14.3035 5.22031 14.0165L5.73574 13.1238C6.25415 13.3533 6.81393 13.5065 7.40078 13.569V14.6008C7.40078 14.9321 7.66941 15.2008 8.00078 15.2008C8.33214 15.2008 8.60078 14.9321 8.60078 14.6008V13.569C9.18766 13.5065 9.74742 13.3533 10.2658 13.1238L10.7813 14.0165C10.9469 14.3035 11.3139 14.4018 11.6009 14.2361C11.8878 14.0705 11.9861 13.7035 11.8205 13.4165L11.3045 12.5229C11.7705 12.1818 12.1819 11.7705 12.5229 11.3045L13.4166 11.8204C13.7036 11.9861 14.0705 11.8877 14.2362 11.6008C14.4019 11.3138 14.3036 10.9469 14.0166 10.7812L13.1238 10.2657C13.3533 9.74734 13.5065 9.18758 13.569 8.60078H14.6008C14.9321 8.60078 15.2008 8.33214 15.2008 8.00078C15.2008 7.66941 14.9321 7.40078 14.6008 7.40078H13.569C13.5065 6.81395 13.3533 6.25421 13.1238 5.73581L14.0166 5.22039C14.3036 5.0547 14.4019 4.68775 14.2362 4.40077C14.0705 4.1138 13.7036 4.01547 13.4166 4.18116L12.5229 4.6971C12.1819 4.23102 11.7705 3.81965 11.3044 3.47857ZM8.00078 3.60078C7.20974 3.60078 6.46745 3.80953 5.82601 4.17494C5.81779 4.18023 5.80941 4.18534 5.80086 4.19028C5.79261 4.19505 5.78428 4.1996 5.77589 4.20393C5.12613 4.5855 4.58299 5.1291 4.20197 5.77924C4.19817 5.78646 4.19422 5.79364 4.19011 5.80077C4.18582 5.80819 4.18141 5.81548 4.17686 5.82265C3.81026 6.46486 3.60078 7.20836 3.60078 8.00078C3.60078 8.7931 3.81021 9.53654 4.17674 10.1787C4.18133 10.1859 4.18579 10.1933 4.19011 10.2008C4.19426 10.208 4.19825 10.2152 4.20207 10.2225C4.58333 10.873 5.1269 11.4168 5.77718 11.7984C5.78507 11.8025 5.79292 11.8068 5.8007 11.8113C5.80878 11.816 5.81672 11.8208 5.8245 11.8257C6.46629 12.1917 7.20912 12.4008 8.00078 12.4008C8.79254 12.4008 9.5355 12.1917 10.1773 11.8256C10.185 11.8207 10.1929 11.8159 10.2009 11.8113C10.2085 11.8069 10.2163 11.8026 10.2241 11.7985C10.8738 11.4173 11.4171 10.8742 11.7983 10.2245C11.8025 10.2165 11.8068 10.2086 11.8113 10.2008C11.8161 10.1926 11.8209 10.1846 11.8259 10.1768C12.1917 9.5351 12.4008 8.7923 12.4008 8.00078C12.4008 7.20915 12.1917 6.46635 11.8258 5.82457C11.8209 5.81679 11.816 5.80885 11.8113 5.80077C11.8069 5.79298 11.8025 5.78513 11.7985 5.77724C11.4174 5.12791 10.8746 4.58497 10.2254 4.20378C10.2171 4.19949 10.2089 4.19498 10.2007 4.19026C10.1922 4.18537 10.1839 4.18031 10.1758 4.17509C9.5343 3.80958 8.7919 3.60078 8.00078 3.60078Z" fill="#0F172A"/>
</g>
<defs>
<clipPath id="clip0_13_13226">
<rect width="16" height="16" fill="white"/>
</clipPath>
</defs>
</svg>
