<svg width="16" height="16" viewBox="0 0 16 16" fill="none" xmlns="http://www.w3.org/2000/svg">
<path d="M7.99934 15.1669C5.33268 15.1669 3.16602 13.2536 3.16602 10.9003V8.43362C3.16602 8.16026 3.39268 7.93359 3.66602 7.93359C3.93934 7.93359 4.16602 8.16026 4.16602 8.43362C4.16602 10.1803 5.81268 11.5003 7.99934 11.5003C10.186 11.5003 11.8326 10.1803 11.8326 8.43362C11.8326 8.16026 12.0594 7.93359 12.3326 7.93359C12.606 7.93359 12.8326 8.16026 12.8326 8.43362V10.9003C12.8326 13.2536 10.666 15.1669 7.99934 15.1669ZM4.16602 10.9736C4.21268 12.7403 5.91268 14.1669 7.99934 14.1669C10.086 14.1669 11.786 12.7403 11.8326 10.9736C10.966 11.9136 9.59265 12.5003 7.99934 12.5003C6.40602 12.5003 5.03934 11.9136 4.16602 10.9736Z" fill="white"/>
<path d="M7.99934 9.16924C6.15934 9.16924 4.50601 8.3426 3.69934 7.00927C3.35267 6.4426 3.16602 5.7826 3.16602 5.1026C3.16602 3.95594 3.67934 2.87594 4.60602 2.0626C5.51268 1.26927 6.71934 0.835938 7.99934 0.835938C9.27937 0.835938 10.4794 1.26927 11.3926 2.05594C12.3194 2.87594 12.8326 3.95594 12.8326 5.1026C12.8326 5.7826 12.646 6.43594 12.2994 7.00927C11.4926 8.3426 9.83937 9.16924 7.99934 9.16924ZM7.99934 1.83594C6.95934 1.83594 5.98602 2.1826 5.25935 2.8226C4.55269 3.43594 4.16602 4.24927 4.16602 5.1026C4.16602 5.6026 4.29934 6.06927 4.55267 6.48927C5.18601 7.52927 6.50602 8.16924 7.99934 8.16924C9.49265 8.16924 10.8126 7.5226 11.446 6.48927C11.706 6.06927 11.8326 5.6026 11.8326 5.1026C11.8326 4.24927 11.446 3.43594 10.7326 2.80927C10.006 2.1826 9.03937 1.83594 7.99934 1.83594Z" fill="white"/>
<path d="M7.99934 12.5026C5.24602 12.5026 3.16602 10.756 3.16602 8.43596V5.1026C3.16602 2.74927 5.33268 0.835938 7.99934 0.835938C9.27937 0.835938 10.4794 1.26927 11.3926 2.05594C12.3194 2.87594 12.8326 3.95594 12.8326 5.1026V8.43596C12.8326 10.756 10.7526 12.5026 7.99934 12.5026ZM7.99934 1.83594C5.88602 1.83594 4.16602 3.3026 4.16602 5.1026V8.43596C4.16602 10.1826 5.81268 11.5026 7.99934 11.5026C10.186 11.5026 11.8326 10.1826 11.8326 8.43596V5.1026C11.8326 4.24927 11.446 3.43594 10.7326 2.80927C10.006 2.1826 9.03937 1.83594 7.99934 1.83594Z" fill="white"/>
</svg>
