<svg width="16" height="16" viewBox="0 0 16 16" fill="none" xmlns="http://www.w3.org/2000/svg">
<path d="M14.6126 11.1658C14.3926 12.9391 12.9393 14.3924 11.1659 14.6124C10.0926 14.7458 9.09257 14.4524 8.31257 13.8791C7.86592 13.5524 7.9726 12.8591 8.50593 12.6991C10.5126 12.0924 12.0926 10.5058 12.7059 8.49912C12.8659 7.97242 13.5593 7.86575 13.8859 8.30576C14.4526 9.0924 14.7459 10.0924 14.6126 11.1658Z" fill="white"/>
<path d="M6.66066 1.33594C3.72066 1.33594 1.33398 3.7226 1.33398 6.6626C1.33398 9.6026 3.72066 11.9892 6.66066 11.9892C9.60063 11.9892 11.9874 9.6026 11.9874 6.6626C11.9806 3.7226 9.60063 1.33594 6.66066 1.33594ZM6.03398 5.91594L7.64066 6.47594C8.22063 6.6826 8.50063 7.08927 8.50063 7.71594C8.50063 8.43596 7.92732 9.02924 7.22732 9.02924H7.16732V9.0626C7.16732 9.33596 6.94066 9.5626 6.66732 9.5626C6.39398 9.5626 6.16732 9.33596 6.16732 9.0626V9.0226C5.42732 8.98924 4.83398 8.36924 4.83398 7.59594C4.83398 7.3226 5.06066 7.09594 5.33398 7.09594C5.60732 7.09594 5.83398 7.3226 5.83398 7.59594C5.83398 7.83594 6.00732 8.02924 6.22066 8.02924H7.22066C7.37398 8.02924 7.49398 7.88927 7.49398 7.71594C7.49398 7.4826 7.45398 7.46927 7.30066 7.41594L5.69398 6.85594C5.12066 6.65594 4.83398 6.24927 4.83398 5.61594C4.83398 4.89594 5.40732 4.3026 6.10732 4.3026H6.16732V4.27594C6.16732 4.0026 6.39398 3.77594 6.66732 3.77594C6.94066 3.77594 7.16732 4.0026 7.16732 4.27594V4.31594C7.90732 4.34927 8.50063 4.96927 8.50063 5.7426C8.50063 6.01594 8.27399 6.2426 8.00063 6.2426C7.72732 6.2426 7.50066 6.01594 7.50066 5.7426C7.50066 5.5026 7.32732 5.30927 7.11398 5.30927H6.11398C5.96066 5.30927 5.84066 5.44927 5.84066 5.6226C5.83398 5.84927 5.87398 5.8626 6.03398 5.91594Z" fill="white"/>
</svg>
