<svg width="16" height="16" viewBox="0 0 16 16" fill="none" xmlns="http://www.w3.org/2000/svg">
<path d="M10.794 1.33594H5.20732C2.78066 1.33594 1.33398 2.7826 1.33398 5.20927V10.7892C1.33398 13.2226 2.78066 14.6692 5.20732 14.6692H10.7874C13.214 14.6692 14.6606 13.2226 14.6606 10.796V5.20927C14.6674 2.7826 13.2206 1.33594 10.794 1.33594ZM8.00063 4.0026C9.32735 4.0026 10.4006 5.07594 10.4006 6.4026C10.4006 6.71594 10.3406 7.01594 10.234 7.28927C9.96063 7.9826 9.36735 8.5226 8.63399 8.7226C8.43399 8.77596 8.22063 8.80924 8.00063 8.80924C7.78066 8.80924 7.56732 8.7826 7.36732 8.7226C6.63398 8.5226 6.04066 7.98927 5.76732 7.28927C5.66066 7.01594 5.60066 6.71594 5.60066 6.4026C5.60066 5.07594 6.67398 4.0026 8.00063 4.0026ZM6.40066 12.0026C5.07398 12.0026 4.00066 10.9292 4.00066 9.6026C4.00066 8.84764 4.35306 8.17348 4.89687 7.73334C5.05469 7.6056 5.2801 7.68607 5.37894 7.8634C5.76879 8.56276 6.43102 9.08228 7.20732 9.28924C7.46066 9.3626 7.72066 9.39596 8.00063 9.39596C8.16655 9.39596 8.32519 9.38364 8.47935 9.35908C8.63759 9.33388 8.80063 9.43572 8.80063 9.59596C8.80063 10.3026 8.49399 10.9426 8.00063 11.3826C7.57398 11.7692 7.01398 12.0026 6.40066 12.0026ZM9.60063 12.0026C9.36831 12.0026 9.14063 11.97 8.92583 11.9076C8.70815 11.8444 8.66831 11.5732 8.80455 11.3921C9.18799 10.8828 9.40063 10.2536 9.40063 9.6026C9.40063 9.46924 9.38735 9.32924 9.36735 9.2026C9.35535 9.12716 9.39383 9.053 9.46055 9.01572C9.94335 8.74628 10.3477 8.35084 10.6168 7.8654C10.7155 7.6874 10.941 7.6054 11.0998 7.7328C11.648 8.17292 12.0006 8.84724 12.0006 9.6026C12.0006 10.9292 10.9274 12.0026 9.60063 12.0026Z" fill="white"/>
</svg>
