<svg width="16" height="16" viewBox="0 0 16 16" fill="none" xmlns="http://www.w3.org/2000/svg">
<path d="M14.6673 11.0026V13.0026C14.6673 13.9226 13.9206 14.6692 13.0006 14.6692H8.24062C7.64727 14.6692 7.35393 13.9559 7.76727 13.5359L11.6806 9.53594C11.8073 9.40922 11.9806 9.33594 12.1539 9.33594H13.0006C13.9206 9.33594 14.6673 10.0826 14.6673 11.0026Z" fill="white"/>
<path d="M12.2468 7.52504L10.4402 9.3317L8.80016 10.9651C8.38016 11.3851 7.66016 11.0917 7.66016 10.4983C7.66016 8.35834 7.66016 4.83839 7.66016 4.83839C7.66016 4.65839 7.73348 4.49172 7.85348 4.36505L8.4668 3.75171C9.12016 3.09839 10.1735 3.09839 10.8268 3.75171L12.2402 5.16505C12.9002 5.81839 12.9002 6.8717 12.2468 7.52504Z" fill="white"/>
<path d="M5.00066 1.33594H3.00066C2.00066 1.33594 1.33398 2.0026 1.33398 3.0026V12.0026C1.33398 12.1826 1.35398 12.3626 1.38732 12.536C1.40732 12.6226 1.42732 12.7092 1.45398 12.796C1.48732 12.896 1.52066 12.996 1.56066 13.0892C1.56732 13.096 1.56732 13.1026 1.56732 13.1026C1.57398 13.1026 1.57398 13.1026 1.56732 13.1092C1.66066 13.296 1.76732 13.476 1.89398 13.6426C1.96732 13.7292 2.04066 13.8092 2.11398 13.8892C2.18732 13.9692 2.26732 14.036 2.35398 14.1026L2.36066 14.1092C2.52732 14.236 2.70732 14.3426 2.89398 14.436C2.90066 14.4292 2.90066 14.4292 2.90066 14.436C3.00066 14.4826 3.10066 14.516 3.20732 14.5492C3.29398 14.576 3.38066 14.596 3.46732 14.616C3.64066 14.6492 3.82066 14.6692 4.00066 14.6692C4.27398 14.6692 4.55398 14.6292 4.81398 14.5426C4.88732 14.516 4.96066 14.4892 5.03398 14.456C5.26732 14.3626 5.49398 14.2292 5.69398 14.056C5.75398 14.0092 5.82066 13.9492 5.88066 13.8892L5.90732 13.8626C6.37398 13.3826 6.66732 12.7226 6.66732 12.0026V3.0026C6.66732 2.0026 6.00066 1.33594 5.00066 1.33594ZM4.00066 13.0026C3.44732 13.0026 3.00066 12.556 3.00066 12.0026C3.00066 11.4492 3.44732 11.0026 4.00066 11.0026C4.55398 11.0026 5.00066 11.4492 5.00066 12.0026C5.00066 12.556 4.55398 13.0026 4.00066 13.0026Z" fill="white"/>
</svg>
