<svg width="16" height="16" viewBox="0 0 16 16" fill="none" xmlns="http://www.w3.org/2000/svg">
<path d="M9.33399 10.6668C9.33399 11.8468 8.82063 12.9134 8.00063 13.6402C7.29398 14.2802 6.36066 14.6668 5.33398 14.6668C3.12732 14.6668 1.33398 12.8734 1.33398 10.6668C1.33398 9.31696 2.00997 8.12096 3.03758 7.39832C3.20304 7.28199 3.42686 7.36159 3.51614 7.54306C4.14542 8.82216 5.30345 9.78008 6.68066 10.1534C7.10066 10.2734 7.54066 10.3334 8.00063 10.3334C8.32543 10.3334 8.63655 10.3026 8.93895 10.2459C9.13119 10.2098 9.32255 10.333 9.33095 10.5285C9.33295 10.5748 9.33399 10.621 9.33399 10.6668Z" fill="white"/>
<path d="M12 5.33594C12 5.85594 11.9 6.35594 11.72 6.80927C11.26 7.96927 10.2734 8.8626 9.05336 9.19596C8.72 9.28924 8.36664 9.33596 8 9.33596C7.63334 9.33596 7.28 9.28924 6.94666 9.19596C5.72666 8.8626 4.74 7.96927 4.28 6.80927C4.1 6.35594 4 5.85594 4 5.33594C4 3.12927 5.79334 1.33594 8 1.33594C10.2066 1.33594 12 3.12927 12 5.33594Z" fill="white"/>
<path d="M14.6677 10.6666C14.6677 12.8732 12.8744 14.6666 10.6677 14.6666C10.1713 14.6666 9.69391 14.576 9.25511 14.4092C9.04263 14.3285 9.00303 14.0566 9.15087 13.884C9.91223 12.9957 10.3344 11.8571 10.3344 10.6666C10.3344 10.4399 10.3144 10.2132 10.281 9.99992C10.2612 9.87688 10.324 9.756 10.4329 9.69568C11.3157 9.20704 12.0365 8.45824 12.4857 7.54343C12.5749 7.36169 12.7989 7.28189 12.9645 7.39836C13.9919 8.12112 14.6677 9.31688 14.6677 10.6666Z" fill="white"/>
</svg>
