<svg width="16" height="16" viewBox="0 0 16 16" fill="none" xmlns="http://www.w3.org/2000/svg">
<path d="M10.6674 5.33594H5.33398V10.6692H10.6674V5.33594Z" fill="white"/>
<path d="M1.33398 12.6641C1.33398 13.7641 2.23398 14.6641 3.33398 14.6641C4.43398 14.6641 5.33398 13.7641 5.33398 12.6641V10.6641H3.33398C2.23398 10.6641 1.33398 11.5641 1.33398 12.6641Z" fill="white"/>
<path d="M3.33398 1.33594C2.23398 1.33594 1.33398 2.23594 1.33398 3.33594C1.33398 4.43594 2.23398 5.33594 3.33398 5.33594H5.33398V3.33594C5.33398 2.23594 4.43398 1.33594 3.33398 1.33594Z" fill="white"/>
<path d="M14.666 3.33594C14.666 2.23594 13.766 1.33594 12.666 1.33594C11.566 1.33594 10.666 2.23594 10.666 3.33594V5.33594H12.666C13.766 5.33594 14.666 4.43594 14.666 3.33594Z" fill="white"/>
<path d="M12.666 10.6641H10.666V12.6641C10.666 13.7641 11.566 14.6641 12.666 14.6641C13.766 14.6641 14.666 13.7641 14.666 12.6641C14.666 11.5641 13.766 10.6641 12.666 10.6641Z" fill="white"/>
</svg>
