<svg width="16" height="16" viewBox="0 0 16 16" fill="none" xmlns="http://www.w3.org/2000/svg">
<path d="M10.794 1.33594H5.20732C2.78066 1.33594 1.33398 2.7826 1.33398 5.20927V10.7892C1.33398 13.2226 2.78066 14.6692 5.20732 14.6692H10.7874C13.214 14.6692 14.6606 13.2226 14.6606 10.796V5.20927C14.6674 2.7826 13.2206 1.33594 10.794 1.33594ZM6.40066 10.8026C6.40066 11.4626 5.86066 12.0026 5.20066 12.0026C4.54066 12.0026 4.00066 11.4626 4.00066 10.8026C4.00066 10.1426 4.54066 9.6026 5.20066 9.6026H5.73398C6.10066 9.6026 6.40066 9.9026 6.40066 10.2692V10.8026ZM6.40066 5.73594C6.40066 6.1026 6.10066 6.4026 5.73398 6.4026H5.20066C4.54066 6.4026 4.00066 5.8626 4.00066 5.2026C4.00066 4.5426 4.54066 4.0026 5.20066 4.0026C5.86066 4.0026 6.40066 4.5426 6.40066 5.2026V5.73594ZM9.43399 8.83596C9.43399 9.1626 9.16735 9.43596 8.83399 9.43596H7.16066C6.83398 9.43596 6.56066 9.16924 6.56066 8.83596V7.1626C6.56066 6.83594 6.82732 6.5626 7.16066 6.5626H8.83399C9.16063 6.5626 9.43399 6.82927 9.43399 7.1626V8.83596ZM10.8006 12.0026C10.1406 12.0026 9.60063 11.4626 9.60063 10.8026V10.2692C9.60063 9.9026 9.90063 9.6026 10.2674 9.6026H10.8006C11.4606 9.6026 12.0006 10.1426 12.0006 10.8026C12.0006 11.4626 11.4606 12.0026 10.8006 12.0026ZM10.8006 6.4026H10.2674C9.90063 6.4026 9.60063 6.1026 9.60063 5.73594V5.2026C9.60063 4.5426 10.1406 4.0026 10.8006 4.0026C11.4606 4.0026 12.0006 4.5426 12.0006 5.2026C12.0006 5.8626 11.4606 6.4026 10.8006 6.4026Z" fill="white"/>
</svg>
