<svg width="16" height="16" viewBox="0 0 16 16" fill="none" xmlns="http://www.w3.org/2000/svg">
<path fill-rule="evenodd" clip-rule="evenodd" d="M2.60078 2.39844C1.60667 2.39844 0.800781 3.20433 0.800781 4.19844V11.7984C0.800781 12.7925 1.60667 13.5984 2.60078 13.5984H13.4008C14.3949 13.5984 15.2008 12.7925 15.2008 11.7984V4.19844C15.2008 3.20433 14.3949 2.39844 13.4008 2.39844H2.60078ZM3.35481 9.3998C3.13313 9.15348 3.15309 8.77412 3.39941 8.55244L4.90387 7.19844L3.39941 5.84441C3.15309 5.62274 3.13313 5.24337 3.35481 4.99706C3.57648 4.75075 3.95585 4.73079 4.20216 4.95246L6.20216 6.75246C6.32859 6.86625 6.40078 7.02834 6.40078 7.19844C6.40078 7.36853 6.32859 7.53063 6.20216 7.64441L4.20216 9.44444C3.95585 9.66612 3.57648 9.64612 3.35481 9.3998ZM7.80078 8.19844C7.46941 8.19844 7.20078 8.46708 7.20078 8.79844C7.20078 9.1298 7.46941 9.39844 7.80078 9.39844H9.80078C10.1321 9.39844 10.4008 9.1298 10.4008 8.79844C10.4008 8.46708 10.1321 8.19844 9.80078 8.19844H7.80078Z" fill="#0F172A"/>
</svg>
