<svg width="16" height="16" viewBox="0 0 16 16" fill="none" xmlns="http://www.w3.org/2000/svg">
<path d="M13.9673 2.75391L2.75391 13.9673C3.38723 14.4273 4.21391 14.6673 5.20723 14.6673H10.7939C13.2206 14.6673 14.6673 13.2206 14.6673 10.7939V5.20723C14.6673 4.21391 14.4273 3.38723 13.9673 2.75391ZM12.3339 10.8339H11.2073V12.0006C11.2073 12.2739 10.9806 12.5006 10.7073 12.5006C10.4339 12.5006 10.2073 12.2739 10.2073 12.0006V10.8339H9.00062C8.72726 10.8339 8.50062 10.6073 8.50062 10.3339C8.50062 10.0606 8.72726 9.8339 9.00062 9.8339H10.2073V8.66726C10.2073 8.3939 10.4339 8.16726 10.7073 8.16726C10.9806 8.16726 11.2073 8.3939 11.2073 8.66726V9.8339H12.3339C12.6073 9.8339 12.8339 10.0606 12.8339 10.3339C12.8339 10.6073 12.6073 10.8339 12.3339 10.8339Z" fill="white"/>
<path d="M10.794 1.33594H5.20732C2.78066 1.33594 1.33398 2.7826 1.33398 5.20927V10.796C1.33398 11.7892 1.57398 12.616 2.03398 13.2492L13.2474 2.03594C12.614 1.57594 11.7874 1.33594 10.794 1.33594ZM7.00066 5.5026H3.66732C3.39398 5.5026 3.16732 5.27594 3.16732 5.0026C3.16732 4.72927 3.39398 4.5026 3.66732 4.5026H7.00066C7.27398 4.5026 7.50066 4.72927 7.50066 5.0026C7.50066 5.27594 7.27398 5.5026 7.00066 5.5026Z" fill="white"/>
</svg>
