<svg width="16" height="16" viewBox="0 0 16 16" fill="none" xmlns="http://www.w3.org/2000/svg">
<path fill-rule="evenodd" clip-rule="evenodd" d="M1.59961 3.40156C1.59961 2.40745 2.4055 1.60156 3.39961 1.60156H12.5996C13.5937 1.60156 14.3996 2.40745 14.3996 3.40156V10.2016C14.3996 11.1956 13.5937 12.0016 12.5996 12.0016H10.1154C10.273 12.5311 10.583 12.995 10.9955 13.3429C11.1881 13.5054 11.2586 13.7708 11.1722 14.0075C11.0857 14.2441 10.8606 14.4016 10.6086 14.4016H5.39066C5.13871 14.4016 4.91359 14.2441 4.82711 14.0075C4.74063 13.7708 4.8112 13.5054 5.00379 13.3429C5.4163 12.995 5.72631 12.5311 5.88381 12.0016H3.39961C2.4055 12.0016 1.59961 11.1956 1.59961 10.2016V3.40156ZM2.79961 3.40156C2.79961 3.07019 3.06824 2.80156 3.39961 2.80156H12.5996C12.931 2.80156 13.1996 3.07019 13.1996 3.40156V9.40156C13.1996 9.73292 12.931 10.0016 12.5996 10.0016H3.39961C3.06824 10.0016 2.79961 9.73292 2.79961 9.40156V3.40156Z" fill="#0F172A"/>
</svg>
