<svg width="16" height="16" viewBox="0 0 16 16" fill="none" xmlns="http://www.w3.org/2000/svg">
<path d="M8.02015 1.35156C6.72018 1.35156 5.50684 1.72489 4.48684 2.36489L9.06015 6.94489L9.06687 5.11823C9.06687 4.84489 9.29351 4.61823 9.56687 4.61823C9.84687 4.61823 10.0669 4.84489 10.0669 5.11823L10.0601 8.15155C10.0601 8.35819 9.93351 8.53819 9.74687 8.61155C9.68687 8.63819 9.62015 8.65155 9.56015 8.65155C9.42687 8.65155 9.30015 8.59819 9.20687 8.50491L3.74684 3.03823C3.72018 3.01156 3.70018 2.98489 3.68018 2.95823C2.25352 4.18489 1.35352 5.99823 1.35352 8.01819C1.35352 11.6982 4.34018 14.6849 8.02015 14.6849C9.32015 14.6849 10.5335 14.3116 11.5535 13.6716L6.98018 9.09155L6.97351 10.9182C6.97351 11.1916 6.74684 11.4182 6.47352 11.4182C6.19352 11.4182 5.97352 11.1916 5.97352 10.9182L5.98018 7.88489C5.98018 7.67823 6.10684 7.49823 6.29352 7.42489C6.47352 7.34489 6.69352 7.38489 6.83352 7.53156L12.2935 12.9982C12.3201 13.0249 12.3401 13.0516 12.3601 13.0782C13.7869 11.8516 14.6869 10.0382 14.6869 8.01819C14.6869 4.33823 11.7001 1.35156 8.02015 1.35156Z" fill="white"/>
</svg>
