<svg width="16" height="16" viewBox="0 0 16 16" fill="none" xmlns="http://www.w3.org/2000/svg">
<path d="M7.33398 10.7641V12.5641C7.33398 14.0641 6.73398 14.6641 5.23398 14.6641H3.43398C1.93398 14.6641 1.33398 14.0641 1.33398 12.5641V10.7641C1.33398 9.26406 1.93398 8.66406 3.43398 8.66406H5.23398C6.73398 8.66406 7.33398 9.26406 7.33398 10.7641Z" fill="white"/>
<path d="M11.666 7.33594C13.3229 7.33594 14.666 5.99279 14.666 4.33594C14.666 2.67908 13.3229 1.33594 11.666 1.33594C10.0091 1.33594 8.66602 2.67908 8.66602 4.33594C8.66602 5.99279 10.0091 7.33594 11.666 7.33594Z" fill="white"/>
<path d="M9.85299 14.6677C9.67299 14.6677 9.50635 14.5677 9.41963 14.4143C9.33299 14.2543 9.33299 14.0677 9.42635 13.9077L10.073 12.8277C10.213 12.5877 10.5196 12.5143 10.7596 12.6543C10.9996 12.7943 11.073 13.101 10.933 13.341L10.813 13.541C12.4597 13.1143 13.673 11.621 13.673 9.84766C13.673 9.5743 13.8996 9.34766 14.173 9.34766C14.4464 9.34766 14.6664 9.5743 14.6664 9.8543C14.6664 12.5077 12.5064 14.6677 9.85299 14.6677Z" fill="white"/>
<path d="M1.83398 6.64927C1.56066 6.64927 1.33398 6.42927 1.33398 6.14927C1.33398 3.49594 3.49398 1.33594 6.14732 1.33594C6.33398 1.33594 6.49398 1.43594 6.58732 1.58927C6.67398 1.74927 6.67398 1.93594 6.58066 2.09594L5.93398 3.16927C5.78732 3.40927 5.48066 3.48927 5.24732 3.3426C5.00732 3.2026 4.93398 2.89594 5.07398 2.65594L5.19398 2.45594C3.55398 2.8826 2.33398 4.37594 2.33398 6.14927C2.33398 6.42927 2.10732 6.64927 1.83398 6.64927Z" fill="white"/>
</svg>
