<svg width="16" height="16" viewBox="0 0 16 16" fill="none" xmlns="http://www.w3.org/2000/svg">
<path d="M14.666 3.43594V5.9026C14.666 7.4026 14.066 8.0026 12.566 8.0026H10.766C9.26602 8.0026 8.66602 7.4026 8.66602 5.9026V3.43594C8.66602 1.93594 9.26602 1.33594 10.766 1.33594H12.566C14.066 1.33594 14.666 1.93594 14.666 3.43594Z" fill="white"/>
<path d="M7.33398 10.1V12.5666C7.33398 14.0666 6.73398 14.6666 5.23398 14.6666H3.43398C1.93398 14.6666 1.33398 14.0666 1.33398 12.5666V10.1C1.33398 8.6 1.93398 8 3.43398 8H5.23398C6.73398 8 7.33398 8.6 7.33398 10.1Z" fill="white"/>
<path d="M9.85299 14.6677C9.67299 14.6677 9.50635 14.5677 9.41963 14.4143C9.33299 14.2543 9.33299 14.0677 9.42635 13.9077L10.073 12.8277C10.213 12.5877 10.5196 12.5143 10.7596 12.6543C10.9996 12.7943 11.073 13.101 10.933 13.341L10.813 13.541C12.4597 13.1143 13.673 11.621 13.673 9.84766C13.673 9.5743 13.8996 9.34766 14.173 9.34766C14.4464 9.34766 14.6664 9.5743 14.6664 9.8543C14.6664 12.5077 12.5064 14.6677 9.85299 14.6677Z" fill="white"/>
<path d="M1.83398 6.64927C1.56066 6.64927 1.33398 6.42927 1.33398 6.14927C1.33398 3.49594 3.49398 1.33594 6.14732 1.33594C6.33398 1.33594 6.49398 1.43594 6.58732 1.58927C6.67398 1.74927 6.67398 1.93594 6.58066 2.09594L5.93398 3.16927C5.78732 3.40927 5.48066 3.48927 5.24732 3.3426C5.00732 3.2026 4.93398 2.89594 5.07398 2.65594L5.19398 2.45594C3.55398 2.8826 2.33398 4.37594 2.33398 6.14927C2.33398 6.42927 2.10732 6.64927 1.83398 6.64927Z" fill="white"/>
</svg>
