<svg width="16" height="16" viewBox="0 0 16 16" fill="none" xmlns="http://www.w3.org/2000/svg">
<g clip-path="url(#clip0_13_13271)">
<path d="M9.99947 15.1666C9.81947 15.1666 9.65283 15.0666 9.56619 14.9134C9.47947 14.76 9.47947 14.5666 9.57283 14.4134L10.2728 13.2466C10.4128 13.0066 10.7195 12.9334 10.9595 13.0734C11.1995 13.2134 11.2728 13.52 11.1328 13.76L10.9528 14.06C12.7928 13.6266 14.1728 11.9734 14.1728 10C14.1728 9.72664 14.3995 9.5 14.6728 9.5C14.9462 9.5 15.1728 9.72664 15.1728 10C15.1662 12.8466 12.8462 15.1666 9.99947 15.1666Z" fill="white"/>
<path d="M1.33398 6.5026C1.06066 6.5026 0.833984 6.27594 0.833984 6.0026C0.833984 3.15594 3.15398 0.835938 6.00066 0.835938C6.18066 0.835938 6.34732 0.935938 6.43398 1.08927C6.52066 1.2426 6.52066 1.43594 6.42732 1.58927L5.72732 2.7626C5.58732 2.99594 5.28066 3.07594 5.04066 2.92927C4.80732 2.78927 4.72732 2.4826 4.87398 2.2426L5.05398 1.9426C3.20732 2.37594 1.83398 4.02927 1.83398 6.0026C1.83398 6.27594 1.60732 6.5026 1.33398 6.5026Z" fill="white"/>
<path d="M7.11268 9.23233L5.01932 8.10561C4.79932 7.98563 4.53266 7.98563 4.31266 8.10561L2.21932 9.23233C2.06598 9.31233 1.97266 9.47897 1.97266 9.65897C1.97266 9.83897 2.06598 10.0056 2.21932 10.0856L4.31266 11.2123C4.42598 11.2723 4.54598 11.299 4.66598 11.299C4.78598 11.299 4.90598 11.2723 5.01932 11.2123L7.11268 10.0856C7.26602 10.0056 7.35934 9.83897 7.35934 9.65897C7.35934 9.47897 7.25934 9.31897 7.11268 9.23233Z" fill="white"/>
<path d="M3.96732 11.6097L2.02066 10.6364C1.87398 10.563 1.70066 10.5697 1.55398 10.6564C1.42066 10.743 1.33398 10.8964 1.33398 11.063V12.903C1.33398 13.223 1.50732 13.5097 1.79398 13.6497L3.74066 14.623C3.80732 14.6497 3.88066 14.6697 3.95398 14.6697C4.04066 14.6697 4.12732 14.643 4.20732 14.5964C4.34732 14.5097 4.43398 14.3564 4.43398 14.1897V12.3497C4.43398 12.0364 4.25398 11.7497 3.96732 11.6097Z" fill="white"/>
<path d="M7.77372 10.6564C7.63372 10.5697 7.46038 10.563 7.30705 10.6364L5.36039 11.6097C5.07373 11.7497 4.90039 12.0364 4.90039 12.3564V14.1964C4.90039 14.363 4.98705 14.5164 5.12705 14.603C5.20705 14.643 5.29373 14.6697 5.38039 14.6697C5.45373 14.6697 5.52705 14.6497 5.59373 14.6164L7.54038 13.643C7.82705 13.503 8.00038 13.2164 8.00038 12.8964V11.0564C8.00038 10.8964 7.91372 10.743 7.77372 10.6564Z" fill="white"/>
<path d="M13.7806 2.55261L11.6873 1.42594C11.4673 1.30594 11.2006 1.30594 10.9806 1.42594L8.88727 2.55261C8.73399 2.63261 8.64062 2.79927 8.64062 2.97927C8.64062 3.15927 8.73399 3.32594 8.88727 3.40594L10.9806 4.53261C11.094 4.59261 11.214 4.61927 11.334 4.61927C11.454 4.61927 11.574 4.59261 11.6873 4.53261L13.7806 3.40594C13.934 3.32594 14.0273 3.15927 14.0273 2.97927C14.0273 2.79261 13.9273 2.63261 13.7806 2.55261Z" fill="white"/>
<path d="M10.6334 4.92219L8.68664 3.94886C8.54 3.87552 8.36664 3.88219 8.22 3.96885C8.08664 4.05551 8 4.20885 8 4.37551V6.21551C8 6.53551 8.17336 6.8222 8.46 6.9622L10.4066 7.93554C10.4734 7.96887 10.5466 7.98887 10.62 7.98887C10.7066 7.98887 10.7934 7.9622 10.8734 7.91554C11.0134 7.82887 11.1 7.67554 11.1 7.50887V5.66886C11.1 5.34886 10.92 5.06219 10.6334 4.92219Z" fill="white"/>
<path d="M14.4398 3.96885C14.2998 3.88219 14.1264 3.87552 13.973 3.94886L12.0264 4.92219C11.7398 5.06219 11.5664 5.34886 11.5664 5.66886V7.50887C11.5664 7.67554 11.653 7.82887 11.793 7.91554C11.873 7.9622 11.9598 7.98887 12.0464 7.98887C12.1198 7.98887 12.193 7.96887 12.2598 7.93554L14.2064 6.9622C14.493 6.81554 14.6664 6.52885 14.6664 6.21551V4.37551C14.6664 4.20885 14.5798 4.05551 14.4398 3.96885Z" fill="white"/>
</g>
<defs>
<clipPath id="clip0_13_13271">
<rect width="16" height="16" fill="white"/>
</clipPath>
</defs>
</svg>
