<svg width="16" height="16" viewBox="0 0 16 16" fill="none" xmlns="http://www.w3.org/2000/svg">
<g clip-path="url(#clip0_13_13280)">
<mask id="mask0_13_13280" style="mask-type:luminance" maskUnits="userSpaceOnUse" x="0" y="0" width="16" height="16">
<path d="M16 0H0V16H16V0Z" fill="white"/>
</mask>
<g mask="url(#mask0_13_13280)">
<path d="M14.6666 10C14.6666 12.58 12.58 14.6666 10 14.6666L10.7 13.5" stroke="white" stroke-width="1.5" stroke-linecap="round" stroke-linejoin="round"/>
<path d="M1.33398 6.0026C1.33398 3.4226 3.42066 1.33594 6.00066 1.33594L5.30066 2.5026" stroke="white" stroke-width="1.5" stroke-linecap="round" stroke-linejoin="round"/>
<path d="M14.6666 2.8026V2.87594C14.6666 3.0626 14.52 3.20927 14.3334 3.20927H8.33336C8.14664 3.20927 8 3.0626 8 2.87594V2.8026C8 1.62927 8.29336 1.33594 9.48 1.33594H13.1866C14.3734 1.33594 14.6666 1.62927 14.6666 2.8026Z" fill="white"/>
<path d="M8.33336 3.875C8.14664 3.875 8 4.02166 8 4.20834V4.875V5.535C8 6.7083 8.29336 7.00163 9.48 7.00163H13.1866C14.3734 7.00163 14.6666 6.7083 14.6666 5.535V4.875V4.20834C14.6666 4.02166 14.52 3.875 14.3334 3.875H8.33336Z" fill="white"/>
<path d="M8.00063 10.4666V10.54C8.00063 10.7266 7.85398 10.8734 7.66732 10.8734H1.66732C1.48066 10.8734 1.33398 10.7266 1.33398 10.54V10.4666C1.33398 9.29336 1.62732 9 2.81398 9H6.52066C7.70732 9 8.00063 9.29336 8.00063 10.4666Z" fill="white"/>
<path d="M1.66732 11.543C1.48066 11.543 1.33398 11.6896 1.33398 11.8762V12.543V13.203C1.33398 14.3762 1.62732 14.6696 2.81398 14.6696H6.52066C7.70732 14.6696 8.00063 14.3762 8.00063 13.203V12.543V11.8762C8.00063 11.6896 7.85398 11.543 7.66732 11.543H1.66732Z" fill="white"/>
</g>
</g>
<defs>
<clipPath id="clip0_13_13280">
<rect width="16" height="16" fill="white"/>
</clipPath>
</defs>
</svg>
