<svg width="16" height="16" viewBox="0 0 16 16" fill="none" xmlns="http://www.w3.org/2000/svg">
<path d="M11.3991 1.33594H8.59906C6.54365 1.33594 5.57969 2.06533 5.37887 3.82861C5.33686 4.19751 5.64237 4.5026 6.01365 4.5026H7.39907C10.1991 4.5026 11.4991 5.8026 11.4991 8.6026V9.98804C11.4991 10.3592 11.8041 10.6648 12.1731 10.6228C13.9363 10.422 14.6657 9.45804 14.6657 7.4026V4.6026C14.6657 2.26927 13.7324 1.33594 11.3991 1.33594Z" fill="white"/>
<path d="M7.40066 5.33594H4.60066C2.26732 5.33594 1.33398 6.26927 1.33398 8.6026V11.4026C1.33398 13.736 2.26732 14.6692 4.60066 14.6692H7.40066C9.73399 14.6692 10.6674 13.736 10.6674 11.4026V8.6026C10.6674 6.26927 9.73399 5.33594 7.40066 5.33594ZM8.19399 9.1026L5.72066 11.576C5.62732 11.6692 5.50732 11.716 5.38066 11.716C5.25398 11.716 5.13398 11.6692 5.04066 11.576L3.80066 10.336C3.61398 10.1492 3.61398 9.84924 3.80066 9.6626C3.98732 9.47596 4.28732 9.47596 4.47398 9.6626L5.37398 10.5626L7.51398 8.4226C7.70066 8.23596 8.00063 8.23596 8.18735 8.4226C8.37399 8.60924 8.38063 8.91596 8.19399 9.1026Z" fill="white"/>
</svg>
