<svg width="16" height="16" viewBox="0 0 16 16" fill="none" xmlns="http://www.w3.org/2000/svg">
<path d="M8.00063 1.33594C4.32066 1.33594 1.33398 4.3226 1.33398 8.0026C1.33398 11.6826 4.32066 14.6692 8.00063 14.6692C11.6806 14.6692 14.6674 11.6826 14.6674 8.0026C14.6674 4.3226 11.6806 1.33594 8.00063 1.33594ZM8.16063 10.1692C8.68063 10.1692 9.19399 9.97596 9.58735 9.62924C9.79399 9.44924 10.114 9.46924 10.294 9.67596C10.474 9.8826 10.454 10.2026 10.2474 10.3826C9.66735 10.896 8.92735 11.176 8.16063 11.176C6.41398 11.176 4.99398 9.75596 4.99398 8.00924C4.99398 6.2626 6.41398 4.8426 8.16063 4.8426C8.92735 4.8426 9.67399 5.1226 10.2474 5.63594C10.454 5.81594 10.474 6.13594 10.294 6.3426C10.1074 6.54927 9.79399 6.56927 9.58735 6.38927C9.19399 6.0426 8.68735 5.84927 8.16063 5.84927C6.96732 5.84927 5.99398 6.8226 5.99398 8.01596C5.99398 9.20924 6.96732 10.1692 8.16063 10.1692Z" fill="white"/>
</svg>
