<svg width="16" height="16" viewBox="0 0 16 16" fill="none" xmlns="http://www.w3.org/2000/svg">
<path d="M10.6674 8.6026V11.4026C10.6674 13.736 9.73399 14.6692 7.40066 14.6692H4.60066C2.26732 14.6692 1.33398 13.736 1.33398 11.4026V8.6026C1.33398 6.26927 2.26732 5.33594 4.60066 5.33594H7.40066C9.73399 5.33594 10.6674 6.26927 10.6674 8.6026Z" fill="white"/>
<path d="M11.3991 1.33594H8.59906C6.54365 1.33594 5.57969 2.06533 5.37887 3.82861C5.33686 4.19751 5.64237 4.5026 6.01365 4.5026H7.39907C10.1991 4.5026 11.4991 5.8026 11.4991 8.6026V9.98804C11.4991 10.3592 11.8041 10.6648 12.1731 10.6228C13.9363 10.422 14.6657 9.45804 14.6657 7.4026V4.6026C14.6657 2.26927 13.7324 1.33594 11.3991 1.33594Z" fill="white"/>
</svg>
