<svg width="16" height="16" viewBox="0 0 16 16" fill="none" xmlns="http://www.w3.org/2000/svg">
<g clip-path="url(#clip0_13_13309)">
<path d="M14.6674 14.1661H13.834V7.3328C13.834 5.71948 12.9474 4.83281 11.334 4.83281H8.50063V4.01281C8.88735 4.10614 9.27399 4.15948 9.66735 4.15948C10.294 4.15948 10.9206 4.03948 11.5206 3.79948C11.7074 3.72614 11.834 3.53948 11.834 3.33281V1.33281C11.834 1.16614 11.754 1.01281 11.614 0.919477C11.474 0.826141 11.3006 0.806141 11.1474 0.866141C10.194 1.24614 9.14063 1.24614 8.18735 0.866141C8.03399 0.806141 7.86066 0.826141 7.72066 0.919477C7.58066 1.01281 7.50066 1.16614 7.50066 1.33281V3.33281V4.83281H4.66732C3.05398 4.83281 2.16732 5.71948 2.16732 7.3328V14.1661H1.33398C1.06066 14.1661 0.833984 14.3928 0.833984 14.6661C0.833984 14.9395 1.06066 15.1661 1.33398 15.1661H2.66732H13.334H14.6674C14.9406 15.1661 15.1674 14.9395 15.1674 14.6661C15.1674 14.3928 14.9406 14.1661 14.6674 14.1661ZM4.82732 14.1661H3.16732V8.4995H4.82732V14.1661ZM7.49398 14.1661H5.82732V8.4995H7.49398V14.1661ZM10.1606 14.1661H8.49399V8.4995H10.1606V14.1661ZM12.834 14.1661H11.1606V8.4995H12.834V14.1661Z" fill="white"/>
</g>
<defs>
<clipPath id="clip0_13_13309">
<rect width="16" height="16" fill="white"/>
</clipPath>
</defs>
</svg>
