<svg width="16" height="16" viewBox="0 0 16 16" fill="none" xmlns="http://www.w3.org/2000/svg">
<g clip-path="url(#clip0_13_13317)">
<path d="M11.2008 4.80078H4.80078V11.2008H11.2008V4.80078Z" fill="#0F172A"/>
<path fill-rule="evenodd" clip-rule="evenodd" d="M7.40078 2.40078V1.40078C7.40078 1.06941 7.66941 0.800781 8.00078 0.800781C8.33214 0.800781 8.60078 1.06941 8.60078 1.40078V2.40078H9.80078V1.40078C9.80078 1.06941 10.0694 0.800781 10.4008 0.800781C10.7321 0.800781 11.0008 1.06941 11.0008 1.40078V2.40078H11.4008C12.6158 2.40078 13.6008 3.38576 13.6008 4.60078V5.00078H14.6008C14.9321 5.00078 15.2008 5.26941 15.2008 5.60078C15.2008 5.93215 14.9321 6.20078 14.6008 6.20078H13.6008V7.40078H14.6008C14.9321 7.40078 15.2008 7.66941 15.2008 8.00078C15.2008 8.33214 14.9321 8.60078 14.6008 8.60078H13.6008V9.80078H14.6008C14.9321 9.80078 15.2008 10.0694 15.2008 10.4008C15.2008 10.7321 14.9321 11.0008 14.6008 11.0008H13.6008V11.4008C13.6008 12.6158 12.6158 13.6008 11.4008 13.6008H11.0008V14.6008C11.0008 14.9321 10.7321 15.2008 10.4008 15.2008C10.0694 15.2008 9.80078 14.9321 9.80078 14.6008V13.6008H8.60078V14.6008C8.60078 14.9321 8.33214 15.2008 8.00078 15.2008C7.66941 15.2008 7.40078 14.9321 7.40078 14.6008V13.6008H6.20078V14.6008C6.20078 14.9321 5.93215 15.2008 5.60078 15.2008C5.26941 15.2008 5.00078 14.9321 5.00078 14.6008V13.6008H4.60078C3.38576 13.6008 2.40078 12.6158 2.40078 11.4008V11.0008H1.40078C1.06941 11.0008 0.800781 10.7321 0.800781 10.4008C0.800781 10.0694 1.06941 9.80078 1.40078 9.80078H2.40078V8.60078H1.40078C1.06941 8.60078 0.800781 8.33214 0.800781 8.00078C0.800781 7.66941 1.06941 7.40078 1.40078 7.40078H2.40078V6.20078H1.40078C1.06941 6.20078 0.800781 5.93215 0.800781 5.60078C0.800781 5.26941 1.06941 5.00078 1.40078 5.00078H2.40078V4.60078C2.40078 3.38576 3.38576 2.40078 4.60078 2.40078H5.00078V1.40078C5.00078 1.06941 5.26941 0.800781 5.60078 0.800781C5.93215 0.800781 6.20078 1.06941 6.20078 1.40078V2.40078H7.40078ZM3.60078 4.60078C3.60078 4.04849 4.04849 3.60078 4.60078 3.60078H11.4008C11.9531 3.60078 12.4008 4.04849 12.4008 4.60078V11.4008C12.4008 11.9531 11.9531 12.4008 11.4008 12.4008H4.60078C4.04849 12.4008 3.60078 11.9531 3.60078 11.4008V4.60078Z" fill="#0F172A"/>
</g>
<defs>
<clipPath id="clip0_13_13317">
<rect width="16" height="16" fill="white"/>
</clipPath>
</defs>
</svg>
