<svg width="16" height="16" viewBox="0 0 16 16" fill="none" xmlns="http://www.w3.org/2000/svg">
<path d="M2.72602 5.38406C2.69268 5.58406 2.66602 5.78406 2.66602 5.9974C2.66602 5.79073 2.69268 5.58406 2.72602 5.38406ZM2.66602 9.9974C2.66602 10.2108 2.69268 10.4108 2.72602 10.6108C2.69268 10.4108 2.66602 10.204 2.66602 9.9974ZM5.39268 13.2708C5.58602 13.304 5.79268 13.3308 5.99934 13.3308C5.79268 13.3308 5.59268 13.304 5.39268 13.2708ZM5.39268 2.72406C5.59268 2.69073 5.79268 2.66406 5.99934 2.66406C5.79268 2.66406 5.58602 2.69073 5.39268 2.72406ZM10.6126 2.72406C10.4126 2.69073 10.2126 2.66406 9.99937 2.66406C10.206 2.66406 10.4126 2.69073 10.6126 2.72406ZM13.2726 5.38406C13.306 5.58406 13.3326 5.79073 13.3326 5.9974C13.3326 5.78406 13.306 5.58406 13.2726 5.38406Z" fill="white"/>
<path d="M14.6674 5.53594C14.6674 5.81594 14.4474 6.03594 14.1674 6.03594H13.334V7.26067C13.334 7.48307 13.0926 7.62154 12.9006 7.50927C12.614 7.3426 12.2806 7.28927 11.9606 7.37594C11.7554 7.4252 11.5074 7.29254 11.5074 7.08147V6.49594C11.5074 5.39594 10.6074 4.49594 9.50735 4.49594H6.49398C5.39398 4.49594 4.49398 5.39594 4.49398 6.49594V9.50924C4.49398 10.6092 5.39398 11.5092 6.49398 11.5092H6.79398C6.87132 11.5092 6.93398 11.572 6.93398 11.6492C6.93398 12.2916 7.39946 12.8316 8.01231 12.9558C8.12759 12.9792 8.20551 13.117 8.16735 13.2281C8.14543 13.2917 8.08743 13.336 8.02015 13.336H6.04066V14.1692C6.04066 14.4426 5.81398 14.6692 5.54066 14.6692C5.26066 14.6692 5.04066 14.4426 5.04066 14.1692V13.1892C3.97398 12.8626 3.14066 12.0292 2.82066 10.9692H1.83398C1.56066 10.9692 1.33398 10.7426 1.33398 10.4692C1.33398 10.1892 1.56066 9.96924 1.83398 9.96924H2.66732V8.5026H1.83398C1.56066 8.5026 1.33398 8.27596 1.33398 8.0026C1.33398 7.7226 1.56066 7.5026 1.83398 7.5026H2.66732V6.03594H1.83398C1.56066 6.03594 1.33398 5.81594 1.33398 5.53594C1.33398 5.2626 1.56066 5.03594 1.83398 5.03594H2.82066C3.14066 3.97594 3.97398 3.1426 5.04066 2.81594V1.83594C5.04066 1.5626 5.26066 1.33594 5.54066 1.33594C5.81398 1.33594 6.04066 1.5626 6.04066 1.83594V2.66927H7.50066V1.83594C7.50066 1.5626 7.72732 1.33594 8.00063 1.33594C8.27399 1.33594 8.50063 1.5626 8.50063 1.83594V2.66927H9.96735V1.83594C9.96735 1.5626 10.194 1.33594 10.4674 1.33594C10.7406 1.33594 10.9674 1.5626 10.9674 1.83594V2.8226C12.0274 3.1426 12.8606 3.97594 13.1806 5.03594H14.1674C14.4474 5.03594 14.6674 5.2626 14.6674 5.53594Z" fill="white"/>
<path d="M13.993 10.3543C13.5396 10.3543 13.2796 10.1277 13.2796 9.79433C13.2796 9.66097 13.3196 9.50769 13.413 9.34769C13.5996 9.02769 13.4862 8.61433 13.1662 8.43433L12.5596 8.08097C12.2796 7.91434 11.9196 8.01433 11.753 8.29433L11.713 8.36097C11.393 8.91433 10.873 8.91433 10.553 8.36097L10.513 8.29433C10.353 8.01433 9.98625 7.91434 9.71297 8.08097L9.09961 8.43433C8.88625 8.55433 8.75961 8.78097 8.75961 9.01433C8.75961 9.12769 8.79297 9.24097 8.85297 9.34769C8.94625 9.50769 8.99297 9.66097 8.99297 9.79433C8.99297 10.1277 8.72625 10.3543 8.27297 10.3543C7.90627 10.3543 7.59961 10.6543 7.59961 11.021V11.6477C7.59961 12.0143 7.90627 12.3143 8.27297 12.3143C8.72625 12.3143 8.99297 12.541 8.99297 12.8743C8.99297 13.0077 8.94625 13.161 8.85297 13.321C8.66625 13.641 8.77961 14.0543 9.09961 14.2343L9.71297 14.5877C9.98625 14.7543 10.353 14.6543 10.513 14.3743L10.553 14.3077C10.873 13.7543 11.393 13.7543 11.713 14.3077L11.753 14.3743C11.9196 14.6543 12.2796 14.7543 12.5596 14.5877L13.1662 14.2343C13.3796 14.1143 13.5062 13.8877 13.5062 13.6543C13.5062 13.541 13.473 13.4277 13.413 13.321C13.3196 13.161 13.2796 13.0077 13.2796 12.8743C13.2796 12.541 13.5396 12.3143 13.993 12.3143C14.3662 12.3143 14.6662 12.0143 14.6662 11.6477V11.021C14.6662 10.6543 14.3662 10.3543 13.993 10.3543ZM11.133 12.481C10.4996 12.481 9.98625 11.9677 9.98625 11.3343C9.98625 10.701 10.4996 10.1877 11.133 10.1877C11.7662 10.1877 12.2796 10.701 12.2796 11.3343C12.2796 11.9677 11.7662 12.481 11.133 12.481Z" fill="white"/>
<path d="M10.8326 6.6774V7.05906C10.8326 7.2818 10.5358 7.423 10.3194 7.37073C9.98601 7.28406 9.65265 7.33073 9.37937 7.4974L8.77265 7.85073C8.35265 8.08404 8.09265 8.53076 8.09265 9.01076C8.09265 9.05044 8.09433 9.09044 8.09769 9.13044C8.11953 9.38796 7.93955 9.70036 7.70554 9.81012C7.38382 9.961 7.13128 10.2359 7.01034 10.5724C6.95862 10.7164 6.83242 10.8308 6.67934 10.8308C5.83934 10.8308 5.16602 10.1574 5.16602 9.3174V6.6774C5.16602 5.8374 5.83934 5.16406 6.67934 5.16406H9.31937C10.1594 5.16406 10.8326 5.8374 10.8326 6.6774Z" fill="white"/>
</svg>
