<svg width="16" height="16" viewBox="0 0 16 16" fill="none" xmlns="http://www.w3.org/2000/svg">
<path d="M9.32016 5.16406H6.67347C5.84015 5.16406 5.16016 5.8374 5.16016 6.6774V9.32404C5.16016 10.1574 5.83348 10.8374 6.67347 10.8374H9.32016C10.1534 10.8374 10.8334 10.164 10.8334 9.32404V6.6774C10.8334 5.8374 10.1602 5.16406 9.32016 5.16406ZM9.00016 8.65076L8.4068 9.68404C8.32016 9.8374 8.16016 9.9174 8.00016 9.9174C7.92013 9.9174 7.83347 9.8974 7.7668 9.8574C7.54013 9.73076 7.46013 9.44404 7.59347 9.2174L8.02016 8.4774H7.6468C7.3468 8.4774 7.10013 8.34404 6.9668 8.1174C6.83347 7.89073 6.8468 7.61073 7.00013 7.35073L7.59347 6.3174C7.7268 6.09073 8.01344 6.0174 8.23344 6.14406C8.46016 6.27073 8.54016 6.5574 8.4068 6.78406L7.98013 7.52406H8.35344C8.65344 7.52406 8.90016 7.6574 9.03344 7.88406C9.1668 8.11076 9.15344 8.39076 9.00016 8.65076Z" fill="white"/>
<path d="M14.1674 8.5026C14.4474 8.5026 14.6674 8.27596 14.6674 8.0026C14.6674 7.7226 14.4474 7.5026 14.1674 7.5026H13.334V6.03594H14.1674C14.4474 6.03594 14.6674 5.81594 14.6674 5.53594C14.6674 5.2626 14.4474 5.03594 14.1674 5.03594H13.1806C12.8606 3.97594 12.0274 3.1426 10.9674 2.8226V1.83594C10.9674 1.5626 10.7406 1.33594 10.4674 1.33594C10.194 1.33594 9.96735 1.5626 9.96735 1.83594V2.66927H8.50063V1.83594C8.50063 1.5626 8.27399 1.33594 8.00063 1.33594C7.72732 1.33594 7.50066 1.5626 7.50066 1.83594V2.66927H6.04066V1.83594C6.04066 1.5626 5.81398 1.33594 5.54066 1.33594C5.26066 1.33594 5.04066 1.5626 5.04066 1.83594V2.8226C3.97398 3.1426 3.14066 3.97594 2.82066 5.03594H1.83398C1.56066 5.03594 1.33398 5.2626 1.33398 5.53594C1.33398 5.81594 1.56066 6.03594 1.83398 6.03594H2.66732V7.5026H1.83398C1.56066 7.5026 1.33398 7.7226 1.33398 8.0026C1.33398 8.27596 1.56066 8.5026 1.83398 8.5026H2.66732V9.96924H1.83398C1.56066 9.96924 1.33398 10.1892 1.33398 10.4692C1.33398 10.7426 1.56066 10.9692 1.83398 10.9692H2.82066C3.13398 12.0292 3.97398 12.8626 5.04066 13.1826V14.1692C5.04066 14.4426 5.26066 14.6692 5.54066 14.6692C5.81398 14.6692 6.04066 14.4426 6.04066 14.1692V13.336H7.50732V14.1692C7.50732 14.4426 7.72732 14.6692 8.00735 14.6692C8.28063 14.6692 8.50735 14.4426 8.50735 14.1692V13.336H9.96735V14.1692C9.96735 14.4426 10.194 14.6692 10.4674 14.6692C10.7406 14.6692 10.9674 14.4426 10.9674 14.1692V13.1826C12.0274 12.8626 12.8606 12.0292 13.1806 10.9692H14.1674C14.4474 10.9692 14.6674 10.7426 14.6674 10.4692C14.6674 10.1892 14.4474 9.96924 14.1674 9.96924H13.334V8.5026H14.1674ZM11.5074 9.50924C11.5074 10.6092 10.6074 11.5092 9.50735 11.5092H6.49398C5.39398 11.5092 4.49398 10.6092 4.49398 9.50924V6.49594C4.49398 5.39594 5.39398 4.49594 6.49398 4.49594H9.50735C10.6074 4.49594 11.5074 5.39594 11.5074 6.49594V9.50924Z" fill="white"/>
</svg>
