<svg width="16" height="16" viewBox="0 0 16 16" fill="none" xmlns="http://www.w3.org/2000/svg">
<path d="M8.00063 1.33594C4.32066 1.33594 1.33398 4.3226 1.33398 8.0026C1.33398 11.6826 4.32066 14.6692 8.00063 14.6692C11.6806 14.6692 14.6674 11.6826 14.6674 8.0026C14.6674 4.3226 11.6806 1.33594 8.00063 1.33594ZM5.99398 9.41596C6.33398 9.41596 6.66732 9.28924 6.92732 9.0626C7.13398 8.8826 7.45398 8.9026 7.63398 9.10924C7.81398 9.31596 7.79398 9.63596 7.58732 9.81596C7.14732 10.2026 6.58066 10.416 5.99398 10.416C4.66066 10.416 3.58066 9.33596 3.58066 8.0026C3.58066 6.66927 4.66066 5.58927 5.99398 5.58927C6.58066 5.58927 7.14066 5.8026 7.58732 6.18927C7.79398 6.36927 7.81398 6.68927 7.63398 6.89594C7.45398 7.1026 7.13398 7.1226 6.92732 6.9426C6.66732 6.71594 6.33398 6.58927 5.99398 6.58927C5.21398 6.58927 4.58066 7.2226 4.58066 8.0026C4.58066 8.7826 5.21398 9.41596 5.99398 9.41596ZM10.6606 9.41596C11.0006 9.41596 11.334 9.28924 11.594 9.0626C11.8006 8.8826 12.1206 8.9026 12.3006 9.10924C12.4806 9.31596 12.4606 9.63596 12.254 9.81596C11.814 10.2026 11.2474 10.416 10.6606 10.416C9.32735 10.416 8.24735 9.33596 8.24735 8.0026C8.24735 6.66927 9.32735 5.58927 10.6606 5.58927C11.2474 5.58927 11.8074 5.8026 12.254 6.18927C12.4606 6.36927 12.4806 6.68927 12.3006 6.89594C12.1206 7.1026 11.8006 7.1226 11.594 6.9426C11.334 6.71594 11.0074 6.58927 10.6606 6.58927C9.88063 6.58927 9.24735 7.2226 9.24735 8.0026C9.24735 8.7826 9.88063 9.41596 10.6606 9.41596Z" fill="white"/>
</svg>
