<svg width="16" height="16" viewBox="0 0 16 16" fill="none" xmlns="http://www.w3.org/2000/svg">
<path fill-rule="evenodd" clip-rule="evenodd" d="M2.00078 3.19922C1.33804 3.19922 0.800781 3.73647 0.800781 4.39922V4.79922H15.2008V4.39922C15.2008 3.73647 14.6635 3.19922 14.0008 3.19922H2.00078ZM15.2008 6.79922H0.800781V11.5992C0.800781 12.2619 1.33804 12.7992 2.00078 12.7992H14.0008C14.6635 12.7992 15.2008 12.2619 15.2008 11.5992V6.79922ZM2.40078 10.5992C2.40078 10.2679 2.66941 9.99922 3.00078 9.99922H4.20078C4.53215 9.99922 4.80078 10.2679 4.80078 10.5992C4.80078 10.9306 4.53215 11.1992 4.20078 11.1992H3.00078C2.66941 11.1992 2.40078 10.9306 2.40078 10.5992ZM6.20078 9.99922C5.86941 9.99922 5.60078 10.2679 5.60078 10.5992C5.60078 10.9306 5.86941 11.1992 6.20078 11.1992H9.00078C9.33214 11.1992 9.60078 10.9306 9.60078 10.5992C9.60078 10.2679 9.33214 9.99922 9.00078 9.99922H6.20078Z" fill="#0F172A"/>
</svg>
