<svg width="16" height="16" viewBox="0 0 16 16" fill="none" xmlns="http://www.w3.org/2000/svg">
<path d="M3.68732 1.33594C3.40732 1.33594 3.18732 1.5626 3.18732 1.83594V3.18927H1.83398C1.56066 3.18927 1.33398 3.40927 1.33398 3.68927C1.33398 3.96927 1.56066 4.18927 1.83398 4.18927H3.68732C3.96066 4.18927 4.18732 3.9626 4.18732 3.68927V1.83594C4.18732 1.5626 3.96066 1.33594 3.68732 1.33594Z" fill="white"/>
<path d="M14.1659 11.8125H12.3125C12.0391 11.8125 11.8125 12.0392 11.8125 12.3125V14.1659C11.8125 14.4392 12.0391 14.6659 12.3125 14.6659C12.5859 14.6659 12.8125 14.4392 12.8125 14.1659V12.8125H14.1659C14.4391 12.8125 14.6659 12.5859 14.6659 12.3125C14.6659 12.0392 14.4391 11.8125 14.1659 11.8125Z" fill="white"/>
<path d="M11.1474 12.3109C11.1474 11.6709 11.6741 11.1443 12.3141 11.1443H12.7741V6.6976C12.7741 4.77094 11.2141 3.21094 9.28735 3.21094H4.85404V3.67095C4.85404 4.31094 4.32737 4.83761 3.68737 4.83761H3.2207V9.28428C3.2207 11.2109 4.7807 12.7709 6.70738 12.7709H11.1541V12.3109H11.1474Z" fill="white"/>
</svg>
