<svg width="16" height="16" viewBox="0 0 16 16" fill="none" xmlns="http://www.w3.org/2000/svg">
<path d="M11.3326 14.6641H4.66602C4.39268 14.6641 4.16602 14.4374 4.16602 14.1641C4.16602 13.8908 4.39268 13.6641 4.66602 13.6641H11.3326C11.606 13.6641 11.8326 13.8908 11.8326 14.1641C11.8326 14.4374 11.606 14.6641 11.3326 14.6641Z" fill="white"/>
<path d="M13.5668 3.67937L10.9002 5.58604C10.5468 5.83937 10.0402 5.68604 9.8868 5.27937L8.6268 1.91938C8.41344 1.33938 7.59347 1.33938 7.38014 1.91938L6.11348 5.27271C5.96015 5.68604 5.46015 5.83937 5.10682 5.57937L2.44015 3.67271C1.90682 3.29937 1.20015 3.82604 1.42015 4.44604L4.19348 12.2127C4.28682 12.4794 4.54015 12.6527 4.82015 12.6527H11.1734C11.4534 12.6527 11.7068 12.4727 11.8002 12.2127L14.5734 4.44604C14.8002 3.82604 14.0934 3.29937 13.5668 3.67937ZM9.6668 9.83272H6.33348C6.06015 9.83272 5.83348 9.60608 5.83348 9.33272C5.83348 9.05944 6.06015 8.83272 6.33348 8.83272H9.6668C9.94016 8.83272 10.1668 9.05944 10.1668 9.33272C10.1668 9.60608 9.94016 9.83272 9.6668 9.83272Z" fill="white"/>
</svg>
