<svg width="16" height="16" viewBox="0 0 16 16" fill="none" xmlns="http://www.w3.org/2000/svg">
<path d="M14.6675 3.80764V10.1943C14.6675 12.0343 13.1742 13.5277 11.3342 13.5277H4.66753C4.36086 13.5277 4.06753 13.4877 3.78086 13.4077C3.36753 13.2943 3.23419 12.7677 3.54086 12.4609L10.6275 5.37431C10.7742 5.22764 10.9942 5.19431 11.2009 5.23431C11.4142 5.27431 11.6475 5.21431 11.8142 5.05431L13.5275 3.33431C14.1542 2.70764 14.6675 2.91431 14.6675 3.80764Z" fill="white"/>
<path d="M9.76063 4.90766L2.78066 11.8877C2.46066 12.2077 1.92732 12.1277 1.71398 11.7277C1.46732 11.2743 1.33398 10.7477 1.33398 10.1943V3.80766C1.33398 2.91433 1.84732 2.70766 2.47398 3.33433L4.19398 5.06099C4.45398 5.31433 4.88066 5.31433 5.14066 5.06099L7.52732 2.66766C7.78732 2.40766 8.21399 2.40766 8.47399 2.66766L9.76735 3.96099C10.0206 4.22099 10.0206 4.64766 9.76063 4.90766Z" fill="white"/>
</svg>
