<svg width="16" height="16" viewBox="0 0 16 16" fill="none" xmlns="http://www.w3.org/2000/svg">
<g clip-path="url(#clip0_13_13343)">
<path d="M14.6674 6.5026C14.394 6.5026 14.1674 6.27594 14.1674 6.0026V4.66927C14.1674 2.94927 13.054 1.83594 11.334 1.83594H4.66732C2.94732 1.83594 1.83398 2.94927 1.83398 4.66927V6.0026C1.83398 6.27594 1.60732 6.5026 1.33398 6.5026C1.06066 6.5026 0.833984 6.27594 0.833984 6.0026V4.66927C0.833984 2.37594 2.37398 0.835938 4.66732 0.835938H11.334C13.6274 0.835938 15.1674 2.37594 15.1674 4.66927V6.0026C15.1674 6.27594 14.9406 6.5026 14.6674 6.5026Z" fill="white"/>
<path d="M11.334 15.1666H4.66732C2.37398 15.1666 0.833984 13.6266 0.833984 11.3334V10C0.833984 9.72664 1.06066 9.5 1.33398 9.5C1.60732 9.5 1.83398 9.72664 1.83398 10V11.3334C1.83398 13.0534 2.94732 14.1666 4.66732 14.1666H11.334C13.054 14.1666 14.1674 13.0534 14.1674 11.3334V10C14.1674 9.72664 14.394 9.5 14.6674 9.5C14.9406 9.5 15.1674 9.72664 15.1674 10V11.3334C15.1674 13.6266 13.6274 15.1666 11.334 15.1666Z" fill="white"/>
<path d="M10.9334 5.47396L8.4268 4.12062C8.16016 3.98062 7.8468 3.98062 7.58013 4.12062L5.06677 5.47396C4.88677 5.57396 4.77344 5.76729 4.77344 5.98062C4.77344 6.20062 4.88677 6.39396 5.06677 6.49396L7.57346 7.84726C7.7068 7.9206 7.85346 7.95393 8.00016 7.95393C8.1468 7.95393 8.29344 7.9206 8.4268 7.84726L10.9334 6.49396C11.1134 6.39396 11.2268 6.20062 11.2268 5.98062C11.2268 5.76729 11.1134 5.57396 10.9334 5.47396Z" fill="white"/>
<path d="M7.16 8.31228L4.82666 7.14565C4.64666 7.05897 4.44 7.06565 4.26666 7.17231C4.1 7.27897 4 7.45897 4 7.65897V9.86564C4 10.2456 4.21334 10.5923 4.55334 10.759L6.88666 11.9256C6.96666 11.9656 7.05334 11.9856 7.14666 11.9856C7.25334 11.9856 7.35334 11.959 7.44666 11.899C7.62 11.7923 7.72 11.6123 7.72 11.4123V9.20564C7.71334 8.82564 7.50666 8.48564 7.16 8.31228Z" fill="white"/>
<path d="M11.7259 7.17231C11.5527 7.06565 11.3459 7.05897 11.1659 7.14565L8.83266 8.31228C8.49266 8.48564 8.2793 8.82564 8.2793 9.20564V11.4123C8.2793 11.6123 8.3793 11.7923 8.55266 11.899C8.64594 11.959 8.74594 11.9856 8.85266 11.9856C8.9393 11.9856 9.02594 11.9656 9.11266 11.9256L11.4459 10.759C11.7859 10.5856 11.9993 10.2456 11.9993 9.86564V7.65897C11.9993 7.45897 11.8993 7.27897 11.7259 7.17231Z" fill="white"/>
</g>
<defs>
<clipPath id="clip0_13_13343">
<rect width="16" height="16" fill="white"/>
</clipPath>
</defs>
</svg>
