<svg width="16" height="16" viewBox="0 0 16 16" fill="none" xmlns="http://www.w3.org/2000/svg">
<path fill-rule="evenodd" clip-rule="evenodd" d="M7.70976 0.875437C7.89018 0.775896 8.10905 0.775896 8.28945 0.875437L9.88945 1.75819C10.1796 1.91827 10.285 2.28324 10.125 2.57339C9.96489 2.86352 9.59993 2.96896 9.30977 2.80888L7.99961 2.08604L6.68946 2.80888C6.39931 2.96896 6.03434 2.86352 5.87427 2.57339C5.71419 2.28324 5.81963 1.91827 6.10976 1.75819L7.70976 0.875437ZM4.32167 3.42999C4.48175 3.72012 4.37631 4.0851 4.08618 4.24518L3.44165 4.60078L4.08618 4.95638C4.37631 5.11646 4.48175 5.48144 4.32167 5.77157C4.16159 6.06172 3.79663 6.16716 3.50648 6.00708L2.79961 5.61708V6.20078C2.79961 6.53215 2.53098 6.80078 2.19961 6.80078C1.86824 6.80078 1.59961 6.53215 1.59961 6.20078V4.60078C1.59961 4.38225 1.71843 4.181 1.90976 4.07544L3.50648 3.19448C3.79663 3.0344 4.16159 3.13984 4.32167 3.42999ZM11.6775 3.42999C11.8376 3.13984 12.2026 3.0344 12.4927 3.19448L14.0895 4.07544C14.2808 4.181 14.3996 4.38225 14.3996 4.60078V6.20078C14.3996 6.53215 14.131 6.80078 13.7996 6.80078C13.4682 6.80078 13.1996 6.53215 13.1996 6.20078V5.61708L12.4927 6.00708C12.2026 6.16716 11.8376 6.06172 11.6775 5.77157C11.5174 5.48144 11.6229 5.11646 11.913 4.95638L12.5576 4.60078L11.913 4.24518C11.6229 4.0851 11.5174 3.72012 11.6775 3.42999ZM5.87427 6.62817C6.03434 6.33804 6.39931 6.2326 6.68946 6.39268L7.99961 7.11552L9.30977 6.39268C9.59993 6.2326 9.96489 6.33804 10.125 6.62817C10.285 6.91832 10.1796 7.28329 9.88945 7.44337L8.59961 8.15502V9.40078C8.59961 9.73214 8.33097 10.0008 7.99961 10.0008C7.66824 10.0008 7.39961 9.73214 7.39961 9.40078V8.15502L6.10976 7.44337C5.81963 7.28329 5.71419 6.91832 5.87427 6.62817ZM2.19961 9.20078C2.53098 9.20078 2.79961 9.46942 2.79961 9.80078V11.0465L4.08618 11.7564C4.37631 11.9165 4.48175 12.2814 4.32167 12.5716C4.16159 12.8617 3.79663 12.9672 3.50648 12.8071L1.90976 11.9261C1.71843 11.8205 1.59961 11.6193 1.59961 11.4008V9.80078C1.59961 9.46942 1.86824 9.20078 2.19961 9.20078ZM13.7996 9.20078C14.131 9.20078 14.3996 9.46942 14.3996 9.80078V11.4008C14.3996 11.6193 14.2808 11.8205 14.0895 11.9261L12.4927 12.8071C12.2026 12.9672 11.8376 12.8617 11.6775 12.5716C11.5174 12.2814 11.6229 11.9165 11.913 11.7564L13.1996 11.0465V9.80078C13.1996 9.46942 13.4682 9.20078 13.7996 9.20078ZM7.99961 12.4008C8.33097 12.4008 8.59961 12.6694 8.59961 13.0008V13.5845L9.30977 13.1927C9.59993 13.0326 9.96489 13.1381 10.125 13.4281C10.285 13.7183 10.1796 14.0833 9.88945 14.2433L8.28945 15.1261C8.10905 15.2257 7.89018 15.2257 7.70976 15.1261L6.10976 14.2433C5.81962 14.0833 5.71419 13.7183 5.87427 13.4281C6.03434 13.1381 6.39931 13.0326 6.68946 13.1927L7.39961 13.5845V13.0008C7.39961 12.6694 7.66824 12.4008 7.99961 12.4008Z" fill="#0F172A"/>
</svg>
