<svg width="16" height="16" viewBox="0 0 16 16" fill="none" xmlns="http://www.w3.org/2000/svg">
<path d="M7.5 12.1673H6C5.26666 12.1673 4.66666 12.7673 4.66666 13.5006V13.6673H4C3.72666 13.6673 3.5 13.8939 3.5 14.1673C3.5 14.4406 3.72666 14.6673 4 14.6673H12C12.2734 14.6673 12.5 14.4406 12.5 14.1673C12.5 13.8939 12.2734 13.6673 12 13.6673H11.3334V13.5006C11.3334 12.7673 10.7334 12.1673 10 12.1673H8.5V10.6406C8.33336 10.6606 8.16664 10.6673 8 10.6673C7.83334 10.6673 7.66666 10.6606 7.5 10.6406V12.1673Z" fill="white"/>
<path d="M12.3195 7.7626C12.7595 7.59594 13.1462 7.3226 13.4529 7.01594C14.0729 6.32927 14.4795 5.50927 14.4795 4.54927C14.4795 3.58927 13.7262 2.83594 12.7662 2.83594H12.3929C11.9595 1.94927 11.0529 1.33594 9.99954 1.33594H5.99953C4.9462 1.33594 4.03953 1.94927 3.60619 2.83594H3.23287C2.27287 2.83594 1.51953 3.58927 1.51953 4.54927C1.51953 5.50927 1.9262 6.32927 2.5462 7.01594C2.85287 7.3226 3.23953 7.59594 3.67953 7.7626C4.37287 9.46924 6.03953 10.6692 7.99954 10.6692C9.95954 10.6692 11.6262 9.46924 12.3195 7.7626ZM9.8929 5.63594L9.47954 6.1426C9.4129 6.21594 9.36618 6.3626 9.3729 6.4626L9.4129 7.11594C9.43954 7.51594 9.1529 7.7226 8.77954 7.57594L8.1729 7.33594C8.07954 7.3026 7.91955 7.3026 7.82622 7.33594L7.21955 7.57594C6.84622 7.7226 6.55953 7.51594 6.58619 7.11594L6.62619 6.4626C6.63287 6.3626 6.58619 6.21594 6.51953 6.1426L6.10619 5.63594C5.84619 5.32927 5.95953 4.98927 6.34619 4.88927L6.97955 4.72927C7.07955 4.7026 7.19955 4.60927 7.25288 4.5226L7.60622 3.97594C7.82622 3.63594 8.1729 3.63594 8.3929 3.97594L8.74618 4.5226C8.79954 4.60927 8.91954 4.7026 9.01954 4.72927L9.6529 4.88927C10.0395 4.98927 10.1529 5.32927 9.8929 5.63594Z" fill="white"/>
</svg>
