<svg width="16" height="16" viewBox="0 0 16 16" fill="none" xmlns="http://www.w3.org/2000/svg">
<path fill-rule="evenodd" clip-rule="evenodd" d="M7.99961 14.4016C11.5342 14.4016 14.3996 11.5362 14.3996 8.00156C14.3996 4.46694 11.5342 1.60156 7.99961 1.60156C4.46499 1.60156 1.59961 4.46694 1.59961 8.00156C1.59961 11.5362 4.46499 14.4016 7.99961 14.4016ZM4.79963 4.60156C4.79963 4.27019 5.06826 4.00156 5.39963 4.00156H10.5996C10.931 4.00156 11.1996 4.27019 11.1996 4.60156C11.1996 4.93293 10.931 5.20156 10.5996 5.20156H8.89777C9.21793 5.60094 9.44433 6.07874 9.54345 6.60156H10.5996C10.931 6.60156 11.1996 6.87019 11.1996 7.20156C11.1996 7.53293 10.931 7.80156 10.5996 7.80156H9.54345C9.28825 9.14684 8.19105 10.194 6.8207 10.3741L8.22393 11.7773C8.45817 12.0116 8.45817 12.3915 8.22393 12.6258C7.98958 12.8601 7.60968 12.8601 7.37536 12.6258L4.97536 10.2258C4.80376 10.0542 4.75243 9.79612 4.8453 9.57196C4.93817 9.34772 5.15695 9.20156 5.39963 9.20156H6.39963C7.29515 9.20156 8.05321 8.613 8.30809 7.80156H5.39961C5.06824 7.80156 4.79961 7.53293 4.79961 7.20156C4.79961 6.87019 5.06824 6.60156 5.39961 6.60156H8.30809C8.05321 5.79014 7.29515 5.20156 6.39963 5.20156H5.39963C5.06826 5.20156 4.79963 4.93293 4.79963 4.60156Z" fill="#0F172A"/>
</svg>
