<svg width="16" height="16" viewBox="0 0 16 16" fill="none" xmlns="http://www.w3.org/2000/svg">
<path d="M8.59961 8.65234V10.7442C8.94497 10.6804 9.25929 10.5619 9.50977 10.3982C9.89553 10.1459 9.99961 9.87986 9.99961 9.69826C9.99961 9.51666 9.89553 9.25058 9.50977 8.99834C9.25929 8.83458 8.94497 8.7161 8.59961 8.65234Z" fill="#0F172A"/>
<path d="M6.66408 6.89431C6.70709 6.93907 6.7561 6.98315 6.81162 7.02606C6.97797 7.1546 7.17923 7.25295 7.40039 7.31625V5.28125C7.34075 5.29832 7.28256 5.31794 7.22611 5.34001C7.19016 5.35407 7.15491 5.36912 7.12045 5.38515C7.00836 5.43726 6.90454 5.49964 6.81162 5.57144C6.50965 5.80479 6.40039 6.07275 6.40039 6.29875C6.40039 6.44583 6.44666 6.61067 6.56221 6.77219C6.59157 6.81323 6.6254 6.85405 6.66408 6.89431Z" fill="#0F172A"/>
<path fill-rule="evenodd" clip-rule="evenodd" d="M14.3996 8.00156C14.3996 11.5362 11.5342 14.4016 7.99961 14.4016C4.46499 14.4016 1.59961 11.5362 1.59961 8.00156C1.59961 4.46694 4.46499 1.60156 7.99961 1.60156C11.5342 1.60156 14.3996 4.46694 14.3996 8.00156ZM7.99956 3.20156C8.33097 3.20156 8.59953 3.47019 8.59953 3.80156V4.05423C9.07345 4.13841 9.53417 4.32498 9.92209 4.62471C10.263 4.88819 10.517 5.21625 10.6622 5.58473C10.7837 5.89302 10.6322 6.24144 10.324 6.36295C10.0157 6.48447 9.66729 6.33306 9.54577 6.02477C9.48753 5.87706 9.37561 5.71896 9.18833 5.57425C9.02201 5.44571 8.82073 5.34736 8.59953 5.28406V7.44111C9.15801 7.51543 9.70577 7.69611 10.1664 7.9973C10.796 8.409 11.1995 9.01308 11.1995 9.70156C11.1995 10.39 10.796 10.9941 10.1664 11.4058C9.70577 11.707 9.15801 11.8877 8.59953 11.962V12.2016C8.59953 12.5329 8.33097 12.8016 7.99956 12.8016C7.66819 12.8016 7.39956 12.5329 7.39956 12.2016V11.962C6.8411 11.8877 6.29337 11.707 5.83274 11.4058C5.44671 11.1534 5.14657 10.8316 4.97031 10.4553C4.82977 10.1552 4.95911 9.79796 5.2592 9.65748C5.55929 9.51692 5.9165 9.64628 6.05703 9.94636C6.12167 10.0844 6.25315 10.2469 6.48944 10.4015C6.73991 10.5652 7.05425 10.6836 7.39956 10.7475V8.54892C6.92571 8.46468 6.46495 8.27812 6.07706 7.97842C5.51987 7.54787 5.19956 6.9457 5.19956 6.30156C5.19956 5.65743 5.51988 5.05526 6.07706 4.62471C6.46495 4.32498 6.92571 4.13841 7.39956 4.05423V3.80156C7.39956 3.47019 7.66819 3.20156 7.99956 3.20156Z" fill="#0F172A"/>
</svg>
