<svg width="16" height="16" viewBox="0 0 16 16" fill="none" xmlns="http://www.w3.org/2000/svg">
<path fill-rule="evenodd" clip-rule="evenodd" d="M7.99961 14.4016C11.5342 14.4016 14.3996 11.5362 14.3996 8.00156C14.3996 4.46694 11.5342 1.60156 7.99961 1.60156C4.46499 1.60156 1.59961 4.46694 1.59961 8.00156C1.59961 11.5362 4.46499 14.4016 7.99961 14.4016ZM6.98539 4.98735C7.76644 4.2063 9.03281 4.2063 9.81385 4.98735C10.0482 5.22167 10.428 5.22167 10.6623 4.98735C10.8966 4.75303 10.8966 4.37314 10.6623 4.13882C9.41265 2.88915 7.38655 2.88915 6.13687 4.13882C5.51215 4.76354 5.19961 5.58354 5.19961 6.40156V6.53341C5.19961 6.82512 5.22667 7.11574 5.28019 7.40156H4.99961C4.66824 7.40156 4.39961 7.67019 4.39961 8.00156C4.39961 8.33292 4.66824 8.60156 4.99961 8.60156H5.5894C5.73961 9.42716 5.63974 10.284 5.29523 11.0591L5.25132 11.1579C5.15931 11.3649 5.19175 11.6061 5.33519 11.7815C5.47863 11.9568 5.70861 12.0364 5.92977 11.9872L6.94786 11.761C7.37114 11.667 7.8105 11.6728 8.23113 11.7779C8.86697 11.9368 9.53225 11.9368 10.1681 11.7779L10.9451 11.5836C11.2666 11.5032 11.4621 11.1775 11.3817 10.856C11.3013 10.5346 10.9755 10.3391 10.6541 10.4195L9.87705 10.6137C9.43225 10.7249 8.96697 10.7249 8.52217 10.6137C7.92998 10.4657 7.31182 10.4554 6.71523 10.5836C6.86714 9.93428 6.89751 9.26212 6.80465 8.60156H7.79961C8.13097 8.60156 8.39961 8.33292 8.39961 8.00156C8.39961 7.67019 8.13097 7.40156 7.79961 7.40156H6.50843C6.43625 7.11815 6.39961 6.82653 6.39961 6.53341V6.40156C6.39961 5.88879 6.59475 5.37799 6.98539 4.98735Z" fill="#0F172A"/>
</svg>
