<svg width="16" height="16" viewBox="0 0 16 16" fill="none" xmlns="http://www.w3.org/2000/svg">
<path fill-rule="evenodd" clip-rule="evenodd" d="M7.99961 14.4016C11.5342 14.4016 14.3996 11.5362 14.3996 8.00156C14.3996 4.46694 11.5342 1.60156 7.99961 1.60156C4.46499 1.60156 1.59961 4.46694 1.59961 8.00156C1.59961 11.5362 4.46499 14.4016 7.99961 14.4016ZM5.87626 4.23707C5.67496 3.97385 5.2984 3.92364 5.03517 4.12493C4.77195 4.32622 4.72174 4.70279 4.92303 4.96602L7.24431 8.00155H5.39964C5.06827 8.00155 4.79964 8.2702 4.79964 8.60156C4.79964 8.93292 5.06827 9.20156 5.39964 9.20156H7.39964V10.0016H5.39964C5.06827 10.0016 4.79964 10.2702 4.79964 10.6016C4.79964 10.9329 5.06827 11.2016 5.39964 11.2016H7.39964V12.2016C7.39964 12.5329 7.66827 12.8016 7.99961 12.8016C8.33105 12.8016 8.59961 12.5329 8.59961 12.2016V11.2016H10.5996C10.931 11.2016 11.1996 10.9329 11.1996 10.6016C11.1996 10.2702 10.931 10.0016 10.5996 10.0016H8.59961V9.20156H10.5996C10.931 9.20156 11.1996 8.93292 11.1996 8.60156C11.1996 8.2702 10.931 8.00155 10.5996 8.00155H8.75497L11.0762 4.96602C11.2775 4.70279 11.2274 4.32622 10.9641 4.12493C10.7009 3.92364 10.3243 3.97385 10.123 4.23707L7.99961 7.01381L5.87626 4.23707Z" fill="#0F172A"/>
</svg>
