<svg width="16" height="16" viewBox="0 0 16 16" fill="none" xmlns="http://www.w3.org/2000/svg">
<path fill-rule="evenodd" clip-rule="evenodd" d="M7.99961 1.60156C4.46499 1.60156 1.59961 4.46694 1.59961 8.00156C1.59961 11.5362 4.46499 14.4016 7.99961 14.4016C11.5342 14.4016 14.3996 11.5362 14.3996 8.00156C14.3996 4.46694 11.5342 1.60156 7.99961 1.60156ZM4.75108 4.40153C5.50703 3.64558 6.79961 4.18097 6.79961 5.25006V6.40156H11.3996C11.731 6.40156 11.9996 6.67019 11.9996 7.00156C11.9996 7.33293 11.731 7.60156 11.3996 7.60156H6.79961V11.0216C6.79961 11.2584 6.91451 11.3856 7.00702 11.4207C7.31473 11.5374 7.64899 11.6016 7.99961 11.6016C9.11449 11.6016 10.0785 10.9498 10.5289 10.0045H10.1996C9.86825 10.0045 9.59961 9.73588 9.59961 9.40452C9.59961 9.07316 9.86825 8.80452 10.1996 8.80452H10.6294C10.9991 8.80452 11.3391 8.97348 11.5543 9.24948C11.7761 9.53396 11.8606 9.93156 11.7014 10.3195C11.1041 11.7748 9.67241 12.8016 7.99961 12.8016C7.50136 12.8016 7.02307 12.7101 6.58152 12.5427C5.90043 12.2844 5.59961 11.612 5.59961 11.0216V7.60156H4.59961C4.26824 7.60156 3.99961 7.33293 3.99961 7.00156C3.99961 6.67019 4.26824 6.40156 4.59961 6.40156H5.59961V5.25006L5.42387 5.42579C5.18956 5.66011 4.80966 5.66011 4.57535 5.42579C4.34103 5.19148 4.34103 4.81159 4.57535 4.57727L4.75108 4.40153Z" fill="#0F172A"/>
</svg>
