<svg width="16" height="16" viewBox="0 0 16 16" fill="none" xmlns="http://www.w3.org/2000/svg">
<path fill-rule="evenodd" clip-rule="evenodd" d="M7.99961 14.4016C11.5342 14.4016 14.3996 11.5362 14.3996 8.00156C14.3996 4.46694 11.5342 1.60156 7.99961 1.60156C4.46499 1.60156 1.59961 4.46694 1.59961 8.00156C1.59961 11.5362 4.46499 14.4016 7.99961 14.4016ZM7.03775 5.96187C7.44787 5.42556 7.94588 5.20156 8.39961 5.20156C8.85337 5.20156 9.35137 5.42556 9.76145 5.96187C9.96273 6.2251 10.3394 6.27531 10.6026 6.07401C10.8658 5.87272 10.916 5.49615 10.7147 5.23293C10.1094 4.44145 9.27665 4.00156 8.39961 4.00156C7.52254 4.00156 6.68976 4.44145 6.08451 5.23293C5.81695 5.58282 5.61007 5.97943 5.46386 6.40156H4.59961C4.26824 6.40156 3.99961 6.67019 3.99961 7.00156C3.99961 7.33293 4.26824 7.60156 4.59961 7.60156H5.21543C5.19434 7.86751 5.19434 8.13564 5.21543 8.40156H4.59961C4.26824 8.40156 3.99961 8.6702 3.99961 9.00156C3.99961 9.33292 4.26824 9.60156 4.59961 9.60156H5.46386C5.61007 10.0237 5.81695 10.4203 6.08451 10.7702C6.68976 11.5616 7.52254 12.0016 8.39961 12.0016C9.27665 12.0016 10.1094 11.5616 10.7147 10.7702C10.916 10.507 10.8658 10.1304 10.6026 9.92908C10.3394 9.7278 9.96273 9.77804 9.76145 10.0412C9.35137 10.5776 8.85337 10.8016 8.39961 10.8016C7.94588 10.8016 7.44787 10.5776 7.03775 10.0412C6.93349 9.90492 6.842 9.7574 6.76329 9.60156H8.19961C8.53097 9.60156 8.79961 9.33292 8.79961 9.00156C8.79961 8.6702 8.53097 8.40156 8.19961 8.40156H6.42035C6.3927 8.13636 6.3927 7.86678 6.42035 7.60156H8.19961C8.53097 7.60156 8.79961 7.33293 8.79961 7.00156C8.79961 6.67019 8.53097 6.40156 8.19961 6.40156H6.76329C6.842 6.24568 6.93349 6.09821 7.03775 5.96187Z" fill="#0F172A"/>
</svg>
