<svg width="16" height="16" viewBox="0 0 16 16" fill="none" xmlns="http://www.w3.org/2000/svg">
<path d="M8.00063 5.16406H5.83398V6.16406H10.1406C9.62063 5.5574 8.86063 5.16406 8.00063 5.16406Z" fill="white"/>
<path d="M10.834 7.9974C10.834 7.70406 10.774 7.43073 10.694 7.16406H5.83398V8.83076H10.694C10.774 8.56404 10.834 8.29076 10.834 7.9974Z" fill="white"/>
<path d="M8.00063 1.33594C4.32066 1.33594 1.33398 4.3226 1.33398 8.0026C1.33398 11.6826 4.32066 14.6692 8.00063 14.6692C11.6806 14.6692 14.6674 11.6826 14.6674 8.0026C14.6674 4.3226 11.6806 1.33594 8.00063 1.33594ZM12.3474 9.83596H11.3674C10.714 11.0292 9.45399 11.836 8.00063 11.836H5.33398C5.06066 11.836 4.83398 11.6092 4.83398 11.336V9.83596H4.32064C4.0473 9.83596 3.82064 9.60924 3.82064 9.33596C3.82064 9.0626 4.0473 8.83596 4.32064 8.83596H4.83398V7.16927H4.32064C4.0473 7.16927 3.82064 6.9426 3.82064 6.66927C3.82064 6.39594 4.0473 6.16927 4.32064 6.16927H4.83398V4.66927C4.83398 4.39594 5.06066 4.16927 5.33398 4.16927H8.00063C9.45399 4.16927 10.714 4.97594 11.3674 6.16927H12.3474C12.6206 6.16927 12.8474 6.39594 12.8474 6.66927C12.8474 6.9426 12.6206 7.16927 12.3474 7.16927H11.7406C11.8006 7.43594 11.834 7.71594 11.834 8.0026C11.834 8.28924 11.8006 8.56924 11.7406 8.83596H12.3474C12.6206 8.83596 12.8474 9.0626 12.8474 9.33596C12.8474 9.60924 12.6206 9.83596 12.3474 9.83596Z" fill="white"/>
<path d="M5.83398 10.8359H8.00063C8.86063 10.8359 9.62063 10.4426 10.1406 9.83594H5.83398V10.8359Z" fill="white"/>
</svg>
