<svg width="16" height="16" viewBox="0 0 16 16" fill="none" xmlns="http://www.w3.org/2000/svg">
<path d="M14.5077 10.616L10.241 2.93594C9.66767 1.9026 8.87431 1.33594 8.00095 1.33594C7.12765 1.33594 6.33429 1.9026 5.76096 2.93594L1.49429 10.616C0.954295 11.596 0.894294 12.536 1.32763 13.276C1.76096 14.016 2.61429 14.4226 3.73429 14.4226H12.2677C13.3877 14.4226 14.241 14.016 14.6743 13.276C15.1077 12.536 15.0477 11.5892 14.5077 10.616ZM7.50098 6.0026C7.50098 5.72927 7.72765 5.5026 8.00095 5.5026C8.27431 5.5026 8.50095 5.72927 8.50095 6.0026V9.33596C8.50095 9.60924 8.27431 9.83596 8.00095 9.83596C7.72765 9.83596 7.50098 9.60924 7.50098 9.33596V6.0026ZM8.47431 11.8092C8.44095 11.836 8.40767 11.8626 8.37431 11.8892C8.33431 11.916 8.29431 11.936 8.25431 11.9492C8.21431 11.9692 8.17431 11.9826 8.12767 11.9892C8.08767 11.996 8.04095 12.0026 8.00095 12.0026C7.96098 12.0026 7.91432 11.996 7.86765 11.9892C7.82765 11.9826 7.78765 11.9692 7.74765 11.9492C7.70765 11.936 7.66765 11.916 7.62765 11.8892C7.59432 11.8626 7.56098 11.836 7.52765 11.8092C7.40765 11.6826 7.33432 11.5092 7.33432 11.336C7.33432 11.1626 7.40765 10.9892 7.52765 10.8626C7.56098 10.836 7.59432 10.8092 7.62765 10.7826C7.66765 10.756 7.70765 10.736 7.74765 10.7226C7.78765 10.7026 7.82765 10.6892 7.86765 10.6826C7.95432 10.6626 8.04767 10.6626 8.12767 10.6826C8.17431 10.6892 8.21431 10.7026 8.25431 10.7226C8.29431 10.736 8.33431 10.756 8.37431 10.7826C8.40767 10.8092 8.44095 10.836 8.47431 10.8626C8.59431 10.9892 8.66767 11.1626 8.66767 11.336C8.66767 11.5092 8.59431 11.6826 8.47431 11.8092Z" fill="white"/>
</svg>
