<svg width="16" height="16" viewBox="0 0 16 16" fill="none" xmlns="http://www.w3.org/2000/svg">
<path d="M4.74695 2.33594H10.667C13.3336 2.33594 14.667 4.0026 14.667 6.33594V8.0026C14.667 11.336 12.667 13.6692 9.00023 13.6692H2.62695L3.33363 10.836H8.29359C10.667 10.836 11.8336 9.33596 11.8336 7.29594V7.16927C11.8336 6.0026 11.3336 5.16927 9.83359 5.16927H4.04029L4.74695 2.33594Z" fill="white"/>
<path d="M8.2743 6.82031H3.13432C2.41432 6.82031 1.78765 7.31365 1.60765 8.007L1.44098 8.687C1.38098 8.93364 1.56765 9.17364 1.82098 9.17364H6.96097C7.68097 9.17364 8.30766 8.68028 8.48766 7.98698L8.6543 7.30698C8.72094 7.06031 8.52766 6.82031 8.2743 6.82031Z" fill="white"/>
</svg>
