<svg width="16" height="16" viewBox="0 0 16 16" fill="none" xmlns="http://www.w3.org/2000/svg">
<path d="M4.66732 5.33594H2.66732C1.93398 5.33594 1.33398 4.73594 1.33398 4.0026V2.66927C1.33398 1.93594 1.93398 1.33594 2.66732 1.33594H4.66732C5.40066 1.33594 6.00066 1.93594 6.00066 2.66927V4.0026C6.00066 4.73594 5.40066 5.33594 4.66732 5.33594Z" fill="white"/>
<path d="M13.866 4.66666H11.466C11.026 4.66666 10.666 4.30666 10.666 3.86666V2.8C10.666 2.36 11.026 2 11.466 2H13.866C14.306 2 14.666 2.36 14.666 2.8V3.86666C14.666 4.30666 14.306 4.66666 13.866 4.66666Z" fill="white"/>
<path d="M13.866 9.66664H11.466C11.026 9.66664 10.666 9.30664 10.666 8.86664V7.8C10.666 7.36 11.026 7 11.466 7H13.866C14.306 7 14.666 7.36 14.666 7.8V8.86664C14.666 9.30664 14.306 9.66664 13.866 9.66664Z" fill="white"/>
<path opacity="0.96" d="M10.6666 8.83596C10.94 8.83596 11.1666 8.60924 11.1666 8.33596C11.1666 8.0626 10.94 7.83594 10.6666 7.83594H8.83336V3.83594H10.6666C10.94 3.83594 11.1666 3.60927 11.1666 3.33594C11.1666 3.0626 10.94 2.83594 10.6666 2.83594H6C5.72666 2.83594 5.5 3.0626 5.5 3.33594C5.5 3.60927 5.72666 3.83594 6 3.83594H7.83334V12.0026C7.83334 13.016 8.65336 13.836 9.66664 13.836H10.6666C10.94 13.836 11.1666 13.6092 11.1666 13.336C11.1666 13.0626 10.94 12.836 10.6666 12.836H9.66664C9.20664 12.836 8.83336 12.4626 8.83336 12.0026V8.83596H10.6666Z" fill="white"/>
<path d="M13.866 14.6666H11.466C11.026 14.6666 10.666 14.3066 10.666 13.8666V12.8C10.666 12.36 11.026 12 11.466 12H13.866C14.306 12 14.666 12.36 14.666 12.8V13.8666C14.666 14.3066 14.306 14.6666 13.866 14.6666Z" fill="white"/>
</svg>
