<svg width="16" height="16" viewBox="0 0 16 16" fill="none" xmlns="http://www.w3.org/2000/svg">
<path d="M13.334 9.5C14.1624 9.5 14.834 8.8284 14.834 8C14.834 7.1716 14.1624 6.5 13.334 6.5C12.5056 6.5 11.834 7.1716 11.834 8C11.834 8.8284 12.5056 9.5 13.334 9.5Z" fill="white"/>
<path d="M13.334 4.16406C14.1624 4.16406 14.834 3.49249 14.834 2.66406C14.834 1.83564 14.1624 1.16406 13.334 1.16406C12.5056 1.16406 11.834 1.83564 11.834 2.66406C11.834 3.49249 12.5056 4.16406 13.334 4.16406Z" fill="white"/>
<path d="M13.334 14.8359C14.1624 14.8359 14.834 14.1643 14.834 13.3359C14.834 12.5075 14.1624 11.8359 13.334 11.8359C12.5056 11.8359 11.834 12.5075 11.834 13.3359C11.834 14.1643 12.5056 14.8359 13.334 14.8359Z" fill="white"/>
<path d="M2.66602 9.5C3.49444 9.5 4.16602 8.8284 4.16602 8C4.16602 7.1716 3.49444 6.5 2.66602 6.5C1.83758 6.5 1.16602 7.1716 1.16602 8C1.16602 8.8284 1.83758 9.5 2.66602 9.5Z" fill="white"/>
<path d="M12.6674 8.4974C12.9406 8.4974 13.1674 8.27076 13.1674 7.9974C13.1674 7.72406 12.9406 7.4974 12.6674 7.4974H7.83398V4.66406C7.83398 3.61073 8.28063 3.16406 9.33399 3.16406H12.6674C12.9406 3.16406 13.1674 2.9374 13.1674 2.66406C13.1674 2.39073 12.9406 2.16406 12.6674 2.16406H9.33399C7.72066 2.16406 6.83398 3.05073 6.83398 4.66406V7.4974H3.33398C3.06066 7.4974 2.83398 7.72406 2.83398 7.9974C2.83398 8.27076 3.06066 8.4974 3.33398 8.4974H6.83398V11.3308C6.83398 12.944 7.72066 13.8308 9.33399 13.8308H12.6674C12.9406 13.8308 13.1674 13.604 13.1674 13.3308C13.1674 13.0574 12.9406 12.8308 12.6674 12.8308H9.33399C8.28063 12.8308 7.83398 12.384 7.83398 11.3308V8.4974H12.6674Z" fill="white"/>
</svg>
