<svg width="16" height="16" viewBox="0 0 16 16" fill="none" xmlns="http://www.w3.org/2000/svg">
<path d="M3.7665 5.09739L1.89984 3.23073C1.69317 3.02407 1.83984 2.66406 2.13318 2.66406H4.52651C4.61317 2.66406 4.69984 2.69739 4.75984 2.76405L8.0932 6.09739C8.29984 6.30405 8.1532 6.66406 7.85987 6.66406H5.66651C4.37984 6.66406 3.33317 7.71073 3.33317 8.9974C3.33317 10.284 4.37984 11.3308 5.66651 11.3308H6.66651L8.09976 12.764C8.30656 12.9708 8.15976 13.3308 7.86647 13.3308H5.67318C3.27985 13.3308 1.33984 11.3908 1.33984 8.9974C1.33984 7.3374 2.27318 5.89073 3.65318 5.16406L3.7665 5.09739Z" fill="white"/>
<path d="M12.2327 10.8974L14.0994 12.764C14.306 12.9708 14.1594 13.3308 13.866 13.3308H11.4727C11.386 13.3308 11.2994 13.2974 11.2394 13.2308L7.90603 9.8974C7.69937 9.69076 7.84603 9.33076 8.13937 9.33076H10.3327C11.6194 9.33076 12.666 8.28404 12.666 6.9974C12.666 5.71073 11.6194 4.66406 10.3327 4.66406H9.33273L7.89937 3.23073C7.6927 3.02407 7.83937 2.66406 8.13273 2.66406H10.326C12.7194 2.66406 14.6594 4.60406 14.6594 6.9974C14.6594 8.6574 13.726 10.104 12.346 10.8308L12.2327 10.8974Z" fill="white"/>
</svg>
