<svg width="16" height="16" viewBox="0 0 16 16" fill="none" xmlns="http://www.w3.org/2000/svg">
<path d="M8.00063 1.33594C4.32066 1.33594 1.33398 4.3226 1.33398 8.0026C1.33398 11.6826 4.32066 14.6692 8.00063 14.6692C11.6806 14.6692 14.6674 11.6826 14.6674 8.0026C14.6674 4.3226 11.6806 1.33594 8.00063 1.33594ZM10.254 8.28924L11.2274 8.84924C11.6474 9.08924 11.7874 9.62924 11.5474 10.0492C11.3074 10.4692 10.7674 10.6092 10.3474 10.3692L9.37399 9.80924C9.15399 9.6826 8.87399 9.8426 8.87399 10.096V11.216C8.87399 11.696 8.48063 12.096 7.99398 12.096C7.50732 12.096 7.11398 11.7026 7.11398 11.216V10.096C7.11398 9.8426 6.83398 9.67596 6.61398 9.80924L5.64066 10.3692C5.22066 10.6092 4.68066 10.4692 4.44066 10.0492C4.20066 9.62924 4.34066 9.08924 4.76066 8.84924L5.73398 8.28924C5.95398 8.1626 5.95398 7.8426 5.73398 7.70927L4.76066 7.14927C4.34066 6.90927 4.20066 6.36927 4.44066 5.94927C4.68066 5.52927 5.22066 5.38927 5.64066 5.62927L6.61398 6.18927C6.83398 6.31594 7.11398 6.15595 7.11398 5.90261V4.7826C7.11398 4.3026 7.50732 3.90261 7.99398 3.90261C8.48063 3.90261 8.87399 4.29594 8.87399 4.7826V5.90261C8.87399 6.15595 9.15399 6.3226 9.37399 6.18927L10.3474 5.62927C10.7674 5.38927 11.3074 5.52927 11.5474 5.94927C11.7874 6.36927 11.6474 6.90927 11.2274 7.14927L10.254 7.70927C10.034 7.8426 10.034 8.1626 10.254 8.28924Z" fill="white"/>
</svg>
