<svg width="16" height="16" viewBox="0 0 16 16" fill="none" xmlns="http://www.w3.org/2000/svg">
<path d="M10.4802 6.45969C9.11359 5.08635 6.88693 5.08635 5.52023 6.45969C4.1469 7.833 4.1469 10.053 5.52023 11.4196C6.8936 12.793 9.11359 12.793 10.4802 11.4196C11.8536 10.0464 11.8536 7.82633 10.4802 6.45969ZM8.35359 9.293L7.2936 10.353C7.1936 10.453 7.06693 10.4996 6.94027 10.4996C6.8136 10.4996 6.68027 10.453 6.5869 10.353C6.39357 10.1596 6.39357 9.83964 6.5869 9.63964L7.64693 8.57964C7.84027 8.38636 8.16023 8.38636 8.36023 8.57964C8.55359 8.77964 8.55359 9.09964 8.35359 9.293Z" fill="white"/>
<path d="M13.0667 3.87511C12.9201 3.72844 12.7334 3.64844 12.5267 3.64844C12.3201 3.64844 12.1334 3.72844 11.9867 3.86844C11.6867 4.16844 11.6867 4.64844 11.9867 4.94844C12.1334 5.09511 12.3201 5.17511 12.5267 5.17511C12.7334 5.17511 12.9201 5.09511 13.0667 4.95511C13.2134 4.80844 13.2934 4.62177 13.2934 4.41511C13.2934 4.20844 13.2134 4.01511 13.0667 3.87511Z" fill="white"/>
<path d="M4.0137 12.9259C3.86703 12.7792 3.68037 12.6992 3.4737 12.6992C3.26703 12.6992 3.08037 12.7792 2.9337 12.9192C2.78703 13.0659 2.70703 13.2526 2.70703 13.4592C2.70703 13.6659 2.78703 13.8526 2.9337 13.9992C3.08037 14.1459 3.28037 14.2192 3.4737 14.2192C3.66703 14.2192 3.86703 14.1459 4.0137 13.9926C4.30703 13.7059 4.30703 13.2192 4.0137 12.9259Z" fill="white"/>
<path d="M14.9398 8.3986C14.7998 8.25188 14.6065 8.17859 14.3998 8.17188C14.1931 8.17188 14.0065 8.25188 13.8598 8.3986C13.5598 8.6986 13.5598 9.17859 13.8598 9.47859C14.0065 9.62523 14.2065 9.6986 14.3998 9.6986C14.5931 9.6986 14.7931 9.62523 14.9398 9.47859C15.2398 9.17859 15.2398 8.69188 14.9398 8.3986Z" fill="white"/>
<path d="M2.14094 8.4022C1.8476 8.10884 1.36094 8.1022 1.06094 8.4022C0.760936 8.7022 0.760936 9.1822 1.06094 9.4822C1.2076 9.62884 1.4076 9.7022 1.60094 9.7022C1.79427 9.7022 1.99427 9.62884 2.14094 9.4822C2.43427 9.1822 2.43427 8.69556 2.14094 8.4022Z" fill="white"/>
<path d="M13.0667 12.9281C12.7667 12.6281 12.2867 12.6281 11.9867 12.9281C11.6867 13.2281 11.6867 13.7081 11.9867 14.0081C12.1334 14.1548 12.3334 14.2281 12.5267 14.2281C12.7201 14.2281 12.9201 14.1548 13.0667 14.0081C13.2134 13.8614 13.2934 13.6681 13.2934 13.4681C13.2934 13.2614 13.2134 13.0681 13.0667 12.9281Z" fill="white"/>
<path d="M4.0137 3.87511C3.86703 3.72844 3.68037 3.64844 3.4737 3.64844C3.26703 3.64844 3.08037 3.72844 2.9337 3.86844C2.78703 4.01511 2.70703 4.20177 2.70703 4.40844C2.70703 4.61511 2.78703 4.80844 2.9337 4.94844C3.08037 5.09511 3.26703 5.17511 3.4737 5.17511C3.68037 5.17511 3.86703 5.09511 4.0137 4.95511C4.30703 4.65511 4.30703 4.16844 4.0137 3.87511Z" fill="white"/>
<path d="M8.53905 1.99844C8.53905 1.99177 8.53905 1.99177 8.53905 1.99844C8.23905 1.69844 7.75909 1.69844 7.45909 1.99844C7.31242 2.1451 7.23242 2.33844 7.23242 2.53844C7.23242 2.7451 7.31242 2.93177 7.45242 3.07844C7.59909 3.2251 7.78575 3.3051 7.99242 3.3051C8.19905 3.3051 8.38577 3.2251 8.53241 3.07844C8.83905 2.77844 8.83905 2.29177 8.53905 1.99844Z" fill="white"/>
</svg>
