<svg width="16" height="16" viewBox="0 0 16 16" fill="none" xmlns="http://www.w3.org/2000/svg">
<path fill-rule="evenodd" clip-rule="evenodd" d="M3.99961 0.800781C2.67413 0.800781 1.59961 1.8753 1.59961 3.20078V12.8008C1.59961 14.1263 2.67413 15.2008 3.99961 15.2008H11.9996C13.3251 15.2008 14.3996 14.1263 14.3996 12.8008V3.20078C14.3996 1.8753 13.3251 0.800781 11.9996 0.800781H3.99961ZM2.79961 3.20078C2.79961 2.53804 3.33687 2.00078 3.99961 2.00078H11.9996C12.6623 2.00078 13.1996 2.53804 13.1996 3.20078V12.8008C13.1996 13.4635 12.6623 14.0008 11.9996 14.0008H3.99961C3.33687 14.0008 2.79961 13.4635 2.79961 12.8008V3.20078ZM6.99961 12.4008C6.66824 12.4008 6.39961 12.6694 6.39961 13.0008C6.39961 13.3321 6.66824 13.6008 6.99961 13.6008H8.99961C9.33097 13.6008 9.59961 13.3321 9.59961 13.0008C9.59961 12.6694 9.33097 12.4008 8.99961 12.4008H6.99961Z" fill="#0F172A"/>
</svg>
