<svg width="16" height="16" viewBox="0 0 16 16" fill="none" xmlns="http://www.w3.org/2000/svg">
<path d="M6.40039 12.9984C6.40039 12.6671 6.66902 12.3984 7.00039 12.3984H9.00039C9.33175 12.3984 9.60039 12.6671 9.60039 12.9984C9.60039 13.3298 9.33175 13.5984 9.00039 13.5984H7.00039C6.66902 13.5984 6.40039 13.3298 6.40039 12.9984Z" fill="#0F172A"/>
<path fill-rule="evenodd" clip-rule="evenodd" d="M3.19922 3.20078C3.19922 1.8753 4.27374 0.800781 5.59922 0.800781H10.3992C11.7247 0.800781 12.7992 1.8753 12.7992 3.20078V12.8008C12.7992 14.1263 11.7247 15.2008 10.3992 15.2008H5.59922C4.27374 15.2008 3.19922 14.1263 3.19922 12.8008V3.20078ZM6.39922 2.00078V2.60078C6.39922 2.93215 6.66785 3.20078 6.99922 3.20078H8.99922C9.33058 3.20078 9.59922 2.93215 9.59922 2.60078V2.00078H10.3992C11.0619 2.00078 11.5992 2.53804 11.5992 3.20078V12.8008C11.5992 13.4635 11.0619 14.0008 10.3992 14.0008H5.59922C4.93647 14.0008 4.39922 13.4635 4.39922 12.8008V3.20078C4.39922 2.53804 4.93647 2.00078 5.59922 2.00078H6.39922Z" fill="#0F172A"/>
</svg>
