<svg width="16" height="16" viewBox="0 0 16 16" fill="none" xmlns="http://www.w3.org/2000/svg">
<path d="M12.5006 9.26404H11.2698C11.1378 9.26404 11.0087 9.30324 10.899 9.37676L9.39399 10.384C9.15399 10.544 8.87399 10.6174 8.60063 10.6174C8.36735 10.6174 8.13399 10.564 7.92066 10.444C7.59946 10.2743 7.36352 9.96236 7.24766 9.61276C7.15486 9.33268 6.96978 9.07316 6.70312 8.947C6.39694 8.80228 6.12094 8.611 5.88732 8.3774C5.31398 7.80406 5.00066 6.9974 5.00066 6.0974V3.4974V3.33073C5.00066 2.96254 4.70218 2.66406 4.33398 2.66406C2.53398 2.66406 1.33398 3.56406 1.33398 5.66406V9.26404C1.33398 11.364 2.53398 12.264 4.33398 12.264H6.83398V14.164H4.93398C4.66066 14.164 4.43398 14.3908 4.43398 14.664C4.43398 14.9374 4.66066 15.164 4.93398 15.164H9.73399C10.0074 15.164 10.234 14.9374 10.234 14.664C10.234 14.3908 10.0074 14.164 9.73399 14.164H7.83398V12.264H10.334C11.931 12.264 13.0556 11.5556 13.289 9.9294C13.3414 9.56492 13.0355 9.26404 12.6674 9.26404H12.5006Z" fill="white"/>
<path d="M12.5 1.33594H8.16664C7.17334 1.33594 6.42666 1.8426 6.13334 2.66927C6.04666 2.9226 6 3.2026 6 3.5026V6.1026C6 6.74927 6.21334 7.29594 6.59334 7.67594C6.97334 8.05596 7.52 8.26924 8.16664 8.26924V9.19596C8.16664 9.53596 8.55336 9.7426 8.84 9.55596L10.7666 8.26924H12.5C12.8 8.26924 13.08 8.2226 13.3334 8.13596C14.16 7.8426 14.6666 7.09594 14.6666 6.1026V3.5026C14.6666 2.2026 13.8 1.33594 12.5 1.33594ZM8.41336 5.33594C8.13336 5.33594 7.91334 5.10927 7.91334 4.83594C7.91334 4.5626 8.13336 4.33594 8.41336 4.33594C8.69336 4.33594 8.91336 4.5626 8.91336 4.83594C8.91336 5.10927 8.69336 5.33594 8.41336 5.33594ZM10.2934 5.33594C10.0134 5.33594 9.79336 5.10927 9.79336 4.83594C9.79336 4.5626 10.02 4.33594 10.2934 4.33594C10.5666 4.33594 10.7934 4.5626 10.7934 4.83594C10.7934 5.10927 10.5666 5.33594 10.2934 5.33594ZM12.1666 5.33594C11.8866 5.33594 11.6666 5.10927 11.6666 4.83594C11.6666 4.5626 11.8934 4.33594 12.1666 4.33594C12.44 4.33594 12.6666 4.5626 12.6666 4.83594C12.6666 5.10927 12.44 5.33594 12.1666 5.33594Z" fill="white"/>
<path d="M14.6666 3.5026V6.1026C14.6666 7.09594 14.16 7.8426 13.3334 8.13596C13.08 8.2226 12.8 8.26924 12.5 8.26924H10.7666L8.84 9.55596C8.55336 9.7426 8.16664 9.53596 8.16664 9.19596V8.26924C7.52 8.26924 6.97334 8.05596 6.59334 7.67594C6.21334 7.29594 6 6.74927 6 6.1026V3.5026C6 3.2026 6.04666 2.9226 6.13334 2.66927C6.42666 1.8426 7.17334 1.33594 8.16664 1.33594H12.5C13.8 1.33594 14.6666 2.2026 14.6666 3.5026Z" fill="white"/>
</svg>
