<svg width="16" height="16" viewBox="0 0 16 16" fill="none" xmlns="http://www.w3.org/2000/svg">
<path d="M13.334 4.0026V4.1626H9.91399C7.93398 4.1626 7.01398 5.0826 7.01398 7.0626V10.4692H6.50066V12.836H7.01398V13.836H3.30066C3.02732 13.836 2.80066 13.6092 2.80066 13.336C2.80066 13.0626 3.02732 12.836 3.30066 12.836H5.50066V10.4692H4.00066C1.91398 10.4692 1.35398 9.95596 1.33398 7.93594V4.0026C1.33398 1.86927 1.86732 1.33594 4.00066 1.33594H10.6674C12.8006 1.33594 13.334 1.86927 13.334 4.0026Z" fill="white"/>
<path d="M13.3337 5.19349C13.167 5.17349 12.9737 5.16016 12.767 5.16016H9.91367C8.48703 5.16016 8.01367 5.63349 8.01367 7.06013V12.8335C8.02031 13.2468 8.06703 13.5735 8.16703 13.8335C8.40031 14.4401 8.92703 14.6668 9.91367 14.6668H12.767C14.1937 14.6668 14.667 14.1935 14.667 12.7668V7.06013C14.667 5.84016 14.3203 5.32016 13.3337 5.19349ZM11.3403 6.7268C11.9203 6.7268 12.387 7.19347 12.387 7.77347C12.387 8.3535 11.9203 8.82014 11.3403 8.82014C10.7603 8.82014 10.2937 8.3535 10.2937 7.77347C10.2937 7.19347 10.7603 6.7268 11.3403 6.7268ZM11.3403 12.7668C10.5537 12.7668 9.91367 12.1268 9.91367 11.3401C9.91367 11.0135 10.027 10.7068 10.2137 10.4668C10.4737 10.1335 10.8803 9.9135 11.3403 9.9135C11.7003 9.9135 12.027 10.0468 12.2737 10.2601C12.5737 10.5268 12.767 10.9135 12.767 11.3401C12.767 12.1268 12.127 12.7668 11.3403 12.7668Z" fill="white"/>
<path d="M13.3337 5.19349C13.167 5.17349 12.9737 5.16016 12.767 5.16016H9.91367C8.48703 5.16016 8.01367 5.63349 8.01367 7.06013V12.8335C8.02031 13.2468 8.06703 13.5735 8.16703 13.8335C8.40031 14.4401 8.92703 14.6668 9.91367 14.6668H12.767C14.1937 14.6668 14.667 14.1935 14.667 12.7668V7.06013C14.667 5.84016 14.3203 5.32016 13.3337 5.19349ZM11.3403 6.7268C11.9203 6.7268 12.387 7.19347 12.387 7.77347C12.387 8.3535 11.9203 8.82014 11.3403 8.82014C10.7603 8.82014 10.2937 8.3535 10.2937 7.77347C10.2937 7.19347 10.7603 6.7268 11.3403 6.7268ZM11.3403 12.7668C10.5537 12.7668 9.91367 12.1268 9.91367 11.3401C9.91367 11.0135 10.027 10.7068 10.2137 10.4668C10.4737 10.1335 10.8803 9.9135 11.3403 9.9135C11.7003 9.9135 12.027 10.0468 12.2737 10.2601C12.5737 10.5268 12.767 10.9135 12.767 11.3401C12.767 12.1268 12.127 12.7668 11.3403 12.7668Z" fill="white"/>
</svg>
