<svg width="16" height="16" viewBox="0 0 16 16" fill="none" xmlns="http://www.w3.org/2000/svg">
<g clip-path="url(#clip0_13_13435)">
<path d="M14.6674 15.1692H3.33398C1.95398 15.1692 0.833984 14.0492 0.833984 12.6692V1.33594C0.833984 1.0626 1.06066 0.835938 1.33398 0.835938C1.60732 0.835938 1.83398 1.0626 1.83398 1.33594V12.6692C1.83398 13.496 2.50732 14.1692 3.33398 14.1692H14.6674C14.9406 14.1692 15.1674 14.396 15.1674 14.6692C15.1674 14.9426 14.9406 15.1692 14.6674 15.1692Z" fill="white"/>
<path d="M3.33386 11.8306C3.22054 11.8306 3.10054 11.7906 3.0072 11.7106C2.80054 11.5306 2.77386 11.2172 2.95386 11.004L6.01386 7.4306C6.3472 7.04393 6.82718 6.8106 7.33386 6.7906C7.84052 6.77726 8.34055 6.96393 8.70055 7.32393L9.33383 7.95726C9.50055 8.12396 9.71383 8.20396 9.95383 8.20396C10.1872 8.19724 10.4006 8.0906 10.5538 7.9106L13.6138 4.33728C13.7938 4.13061 14.1072 4.10394 14.3206 4.28394C14.5272 4.46394 14.5538 4.77728 14.3738 4.99061L11.3138 8.56396C10.9806 8.9506 10.5006 9.18396 9.99383 9.20396C9.48055 9.21724 8.98719 9.0306 8.62719 8.6706L8.00055 8.03724C7.83386 7.8706 7.61386 7.78393 7.38052 7.7906C7.14718 7.79726 6.93386 7.90393 6.78052 8.08396L3.72054 11.6572C3.61386 11.7706 3.47386 11.8306 3.33386 11.8306Z" fill="white"/>
</g>
<defs>
<clipPath id="clip0_13_13435">
<rect width="16" height="16" fill="white"/>
</clipPath>
</defs>
</svg>
