<svg width="16" height="16" viewBox="0 0 16 16" fill="none" xmlns="http://www.w3.org/2000/svg">
<path d="M12.666 5.33594C13.7707 5.33594 14.666 4.44051 14.666 3.33594C14.666 2.23137 13.7707 1.33594 12.666 1.33594C11.5615 1.33594 10.666 2.23137 10.666 3.33594C10.666 4.44051 11.5615 5.33594 12.666 5.33594Z" fill="white"/>
<path d="M13.5606 8.47938H11.354C10.734 8.47938 10.1806 8.82602 9.90063 9.37266L9.36735 10.426C9.24063 10.6794 8.98735 10.8327 8.70735 10.8327H6.63398C6.44066 10.8327 6.15398 10.7927 5.97398 10.4194L5.44732 9.37266C5.16732 8.81938 4.61398 8.47266 3.99398 8.47266H1.77398C1.53398 8.47938 1.33398 8.67938 1.33398 8.91938V10.9794C1.33398 13.2927 2.71398 14.666 5.02066 14.666H10.3274C12.5006 14.666 13.8406 13.4727 14.0006 11.3594V8.91938C14.0006 8.67938 13.8006 8.47938 13.5606 8.47938Z" fill="white"/>
<path d="M14.0006 6.93334V7.55334C13.8606 7.50666 13.714 7.48 13.5606 7.48H11.354C10.354 7.48 9.45399 8.03336 9.01399 8.92664L8.54735 9.84H6.79398L6.34066 8.93336C5.88732 8.03336 4.99398 7.48 3.99398 7.48H1.77398C1.62066 7.48 1.47398 7.50666 1.33398 7.55334V5.68C1.33398 3.64666 2.98066 2 5.01398 2H9.06735C9.49399 2 9.80063 2.38666 9.72063 2.8C9.61399 3.33334 9.66063 3.91334 9.92063 4.52666C10.2206 5.22 10.7806 5.78 11.474 6.08C12.0874 6.34 12.6674 6.38666 13.2006 6.28C13.614 6.2 14.0006 6.50666 14.0006 6.93334Z" fill="white"/>
</svg>
