<svg width="16" height="16" viewBox="0 0 16 16" fill="none" xmlns="http://www.w3.org/2000/svg">
<path d="M1.80607 11.3474L2.96607 9.02742C3.28607 8.38078 3.28607 7.62744 2.96607 6.98077L1.80607 4.65413C0.812736 2.66746 2.95274 0.567464 4.9194 1.60746L5.94607 2.15413C6.09274 2.22746 6.20606 2.34746 6.26606 2.49413L10.0594 10.9274C10.2127 11.2741 10.0727 11.6808 9.73938 11.8541L4.91274 14.3941C2.95274 15.4341 0.812736 13.3341 1.80607 11.3474Z" fill="white"/>
<path d="M10.8728 10.4003L8.38617 4.88029C8.10617 4.26029 8.77281 3.63363 9.37281 3.95363L13.2195 5.98029C14.8528 6.84026 14.8528 9.17356 13.2195 10.0336L11.8595 10.7469C11.4928 10.9336 11.0462 10.7803 10.8728 10.4003Z" fill="white"/>
</svg>
