<svg width="16" height="16" viewBox="0 0 16 16" fill="none" xmlns="http://www.w3.org/2000/svg">
<path d="M14.2006 8.15234H11.8806C11.2274 8.15234 10.6474 8.51234 10.354 9.09898L9.79399 10.2057C9.66063 10.4723 9.39399 10.639 9.10063 10.639H6.91398C6.70732 10.639 6.41398 10.5923 6.22066 10.2057L5.66066 9.1057C5.36732 8.5257 4.78066 8.15898 4.13398 8.15898H1.80066C1.54066 8.15898 1.33398 8.3657 1.33398 8.6257V10.799C1.33398 13.219 2.78732 14.6657 5.21398 14.6657H10.8006C13.0874 14.6657 14.494 13.4123 14.6674 11.1857V8.61898C14.6674 8.3657 14.4606 8.15234 14.2006 8.15234Z" fill="white"/>
<path d="M10.794 1.33594H5.20732C2.78066 1.33594 1.33398 2.7826 1.33398 5.20927V7.23594C1.48066 7.1826 1.64066 7.15594 1.80066 7.15594H4.13398C5.16732 7.15594 6.09398 7.72927 6.55398 8.65596L7.05398 9.63596H8.96063L9.46063 8.64924C9.92063 7.72927 10.8474 7.15594 11.8806 7.15594H14.2006C14.3606 7.15594 14.5206 7.1826 14.6674 7.23594V5.20927C14.6674 2.7826 13.2206 1.33594 10.794 1.33594ZM6.96732 3.60927H9.03399C9.28735 3.60927 9.50063 3.81594 9.50063 4.06927C9.50063 4.32927 9.28735 4.53594 9.03399 4.53594H6.96732C6.71398 4.53594 6.50066 4.32927 6.50066 4.06927C6.50066 3.81594 6.71398 3.60927 6.96732 3.60927ZM9.55399 6.39594H6.44732C6.19398 6.39594 5.98732 6.18927 5.98732 5.93594C5.98732 5.67594 6.19398 5.46927 6.44732 5.46927H9.55399C9.80735 5.46927 10.014 5.67594 10.014 5.93594C10.014 6.18927 9.80735 6.39594 9.55399 6.39594Z" fill="white"/>
</svg>
