<svg width="16" height="16" viewBox="0 0 16 16" fill="none" xmlns="http://www.w3.org/2000/svg">
<path d="M12.4598 7.68849C12.0798 7.58849 11.6331 7.53516 11.0998 7.53516C10.3598 7.53516 10.0865 7.71516 9.70648 8.00182C9.68648 8.01518 9.66648 8.03518 9.64648 8.05518L9.01312 8.72846C8.48648 9.29518 7.5198 9.29518 6.98646 8.72846L6.35313 8.06182C6.33313 8.03518 6.31312 8.01518 6.29312 8.00182C5.90645 7.71516 5.63313 7.53516 4.89979 7.53516C4.36645 7.53516 3.91979 7.58182 3.53979 7.68849C1.95312 8.11518 1.95312 9.37518 1.95312 10.4818V11.1018C1.95312 12.7752 1.95312 14.6685 5.51979 14.6685H10.4798C12.8465 14.6685 14.0465 13.4685 14.0465 11.1018V10.4818C14.0465 9.37518 14.0465 8.11518 12.4598 7.68849Z" fill="white"/>
<path d="M9.86001 1.33594H6.14002C3.19336 1.33594 3.19336 2.9026 3.19336 4.2826V6.74927C3.22002 6.73594 3.25336 6.72927 3.28002 6.7226C3.74669 6.59594 4.27336 6.53594 4.90002 6.53594C5.92669 6.53594 6.41336 6.83594 6.89333 7.2026C6.96 7.24927 7.02666 7.30927 7.08666 7.37594L7.71333 8.03596C7.78 8.10924 7.88666 8.14924 8.00001 8.14924C8.11337 8.14924 8.22001 8.10924 8.28001 8.0426L8.92001 7.36927C8.97337 7.31594 9.03337 7.25594 9.10001 7.20927C9.59337 6.83594 10.0734 6.53594 11.1 6.53594C11.7266 6.53594 12.2534 6.59594 12.72 6.7226C12.7466 6.72927 12.78 6.73594 12.8066 6.74927V4.2826C12.8066 2.9026 12.8066 1.33594 9.86001 1.33594ZM9.03337 5.66927H6.96666C6.71333 5.66927 6.50002 5.45594 6.50002 5.2026C6.50002 4.9426 6.71333 4.73594 6.96666 4.73594H9.03337C9.28665 4.73594 9.50001 4.9426 9.50001 5.2026C9.50001 5.45594 9.28665 5.66927 9.03337 5.66927ZM9.55337 3.80927H6.44669C6.19336 3.80927 5.98669 3.59594 5.98669 3.3426C5.98669 3.0826 6.19336 2.87594 6.44669 2.87594H9.55337C9.80665 2.87594 10.0134 3.0826 10.0134 3.3426C10.0134 3.59594 9.80665 3.80927 9.55337 3.80927Z" fill="white"/>
</svg>
