<svg width="16" height="16" viewBox="0 0 16 16" fill="none" xmlns="http://www.w3.org/2000/svg">
<path d="M14.1931 11.3452L13.0331 9.02524C12.7131 8.3786 12.7131 7.62523 13.0331 6.97856L14.1931 4.65858C15.1865 2.66525 13.0465 0.571916 11.0798 1.61192L10.0531 2.15858C9.91312 2.23192 9.79976 2.35192 9.73312 2.49858L5.93312 10.9252C5.77979 11.2719 5.91979 11.6786 6.25313 11.8519L11.0798 14.3919C13.0465 15.4319 15.1865 13.3319 14.1931 11.3452Z" fill="white"/>
<path d="M5.12635 10.4003L7.613 4.88029C7.893 4.26029 7.22634 3.63363 6.62635 3.95363L2.77969 5.97363C1.14635 6.8336 1.14635 9.16692 2.77969 10.0269L4.13969 10.7403C4.50635 10.9336 4.95303 10.7803 5.12635 10.4003Z" fill="white"/>
</svg>
