<svg width="16" height="16" viewBox="0 0 16 16" fill="none" xmlns="http://www.w3.org/2000/svg">
<path d="M14.2006 8.15234H11.8806C11.2274 8.15234 10.6474 8.51234 10.354 9.09898L9.79399 10.2057C9.66063 10.4723 9.39399 10.639 9.10063 10.639H6.91398C6.70732 10.639 6.41398 10.5923 6.22066 10.2057L5.66066 9.1057C5.36732 8.5257 4.78066 8.15898 4.13398 8.15898H1.80066C1.54066 8.15898 1.33398 8.3657 1.33398 8.6257V10.799C1.33398 13.219 2.78732 14.6657 5.21398 14.6657H10.8006C13.0874 14.6657 14.494 13.4123 14.6674 11.1857V8.61898C14.6674 8.3657 14.4606 8.15234 14.2006 8.15234Z" fill="white"/>
<path d="M8.5 1.33594C8.5 1.0626 8.27336 0.835938 8 0.835938C7.72666 0.835938 7.5 1.0626 7.5 1.33594V2.66927H8.5V1.33594Z" fill="white"/>
<path d="M14.6674 6.5374V7.23073C14.5206 7.1774 14.3606 7.15073 14.2006 7.15073H11.8806C10.8474 7.15073 9.92063 7.72406 9.46063 8.64404L8.96063 9.63076H7.05398L6.55398 8.65076C6.09398 7.72406 5.16732 7.15073 4.13398 7.15073H1.80066C1.64066 7.15073 1.48066 7.1774 1.33398 7.23073V6.5374C1.33398 4.11073 2.78066 2.66406 5.20732 2.66406H7.50066V4.79073L7.02066 4.31073C6.82732 4.1174 6.50732 4.1174 6.31398 4.31073C6.12066 4.50406 6.12066 4.82406 6.31398 5.0174L7.64732 6.35073C7.65398 6.3574 7.66066 6.3574 7.66066 6.36406C7.70732 6.40406 7.75398 6.4374 7.80732 6.4574C7.87398 6.48406 7.93398 6.4974 8.00063 6.4974C8.06735 6.4974 8.12735 6.48406 8.18735 6.4574C8.24735 6.4374 8.30735 6.3974 8.35399 6.35073L9.68735 5.0174C9.88063 4.82406 9.88063 4.50406 9.68735 4.31073C9.49399 4.1174 9.17399 4.1174 8.98063 4.31073L8.50063 4.79073V2.66406H10.794C13.2206 2.66406 14.6674 4.11073 14.6674 6.5374Z" fill="white"/>
</svg>
