<svg width="16" height="16" viewBox="0 0 16 16" fill="none" xmlns="http://www.w3.org/2000/svg">
<path d="M14.2006 8.15234H11.8806C11.2274 8.15234 10.6474 8.51234 10.354 9.09898L9.79399 10.2057C9.66063 10.4723 9.39399 10.639 9.10063 10.639H6.91398C6.70732 10.639 6.41398 10.5923 6.22066 10.2057L5.66066 9.1057C5.36732 8.5257 4.78066 8.15898 4.13398 8.15898H1.80066C1.54066 8.15898 1.33398 8.3657 1.33398 8.6257V10.799C1.33398 13.219 2.78732 14.6657 5.21398 14.6657H10.8006C13.0874 14.6657 14.494 13.4123 14.6674 11.1857V8.61898C14.6674 8.3657 14.4606 8.15234 14.2006 8.15234Z" fill="white"/>
<path d="M8.50078 2.54145L8.98078 3.02145C9.08078 3.12145 9.20742 3.16813 9.33414 3.16813C9.46078 3.16813 9.58742 3.12145 9.68742 3.02145C9.88078 2.82813 9.88078 2.50813 9.68742 2.31479L8.35414 0.981453C8.34742 0.974789 8.34078 0.974789 8.34078 0.968125C8.30078 0.928125 8.24742 0.894789 8.19414 0.868125C8.18742 0.868125 8.18742 0.868125 8.18078 0.861453C8.12742 0.841453 8.07414 0.834789 8.02078 0.828125C8.00078 0.828125 7.98745 0.828125 7.96745 0.828125C7.92745 0.828125 7.88745 0.841453 7.84745 0.854789C7.82745 0.861453 7.81412 0.868125 7.80078 0.874789C7.74745 0.901453 7.69412 0.928125 7.65412 0.974789L6.32078 2.30813C6.12745 2.50145 6.12745 2.82145 6.32078 3.01479C6.51412 3.20813 6.83412 3.20813 7.02745 3.01479L7.50745 2.53479V3.33479H8.50742V2.54145H8.50078Z" fill="white"/>
<path d="M14.6674 7.20927V7.23594C14.5206 7.1826 14.3606 7.15594 14.2006 7.15594H11.8806C10.8474 7.15594 9.92063 7.72927 9.46063 8.64924L8.96063 9.63596H7.05398L6.55398 8.65596C6.09398 7.72927 5.16732 7.15594 4.13398 7.15594H1.80066C1.64066 7.15594 1.48066 7.1826 1.33398 7.23594V7.20927C1.33398 4.7826 2.78066 3.33594 5.20732 3.33594H7.50066V6.0026C7.50066 6.27594 7.72732 6.5026 8.00063 6.5026C8.27399 6.5026 8.50063 6.27594 8.50063 6.0026V3.33594H10.794C13.2206 3.33594 14.6674 4.7826 14.6674 7.20927Z" fill="white"/>
</svg>
