<svg width="16" height="16" viewBox="0 0 16 16" fill="none" xmlns="http://www.w3.org/2000/svg">
<path d="M11.3474 14.1931L9.02742 13.0331C8.38078 12.7131 7.62745 12.7131 6.98078 13.0331L4.66076 14.1931C2.66742 15.1865 0.567422 13.0465 1.60742 11.0798L2.15409 10.0531C2.22742 9.91314 2.34742 9.79978 2.49409 9.73314L10.9208 5.93312C11.2674 5.77979 11.6741 5.9198 11.8474 6.25312L14.3874 11.0798C15.4274 13.0465 13.3341 15.1865 11.3474 14.1931Z" fill="white"/>
<path d="M10.4002 5.12635L4.88029 7.613C4.26029 7.893 3.63363 7.22634 3.95363 6.62635L5.98029 2.77969C6.84026 1.14635 9.1736 1.14635 10.0336 2.77969L10.747 4.13969C10.9336 4.50635 10.7736 4.95969 10.4002 5.12635Z" fill="white"/>
</svg>
