<svg width="16" height="16" viewBox="0 0 16 16" fill="none" xmlns="http://www.w3.org/2000/svg">
<path d="M12.4598 7.68849C12.0798 7.58849 11.6331 7.53516 11.0998 7.53516C10.3598 7.53516 10.0865 7.71516 9.70648 8.00182C9.68648 8.01518 9.66648 8.03518 9.64648 8.05518L9.01312 8.72846C8.47976 9.28846 7.5198 9.29518 6.98646 8.72182L6.35313 8.05518C6.33313 8.03518 6.31312 8.01518 6.29312 8.00182C5.91312 7.71516 5.63979 7.53516 4.89979 7.53516C4.36645 7.53516 3.91979 7.58849 3.53979 7.68849C1.95312 8.11518 1.95312 9.37518 1.95312 10.4818V11.1018C1.95312 12.7752 1.95312 14.6685 5.51979 14.6685H10.4798C12.8465 14.6685 14.0465 13.4685 14.0465 11.1018V10.4818C14.0465 9.37518 14.0465 8.11518 12.4598 7.68849ZM9.55312 12.2685H6.44645C6.19313 12.2685 5.98645 12.0618 5.98645 11.8018C5.98645 11.5418 6.19313 11.3352 6.44645 11.3352H9.55312C9.80648 11.3352 10.0131 11.5418 10.0131 11.8018C10.0131 12.0618 9.80648 12.2685 9.55312 12.2685Z" fill="white"/>
<path d="M8.44625 2.86927L8.87961 3.3026C9.05297 3.47594 9.33961 3.47594 9.51297 3.3026C9.68625 3.12927 9.68625 2.8426 9.51297 2.66927L8.31297 1.46927C8.27297 1.42927 8.21961 1.39594 8.16625 1.36927C8.11297 1.34927 8.05961 1.33594 7.99961 1.33594C7.93962 1.33594 7.88628 1.34927 7.82628 1.36927C7.77295 1.38927 7.73295 1.4226 7.69295 1.45594C7.68628 1.4626 7.68628 1.4626 7.67962 1.4626L6.47961 2.66927C6.30628 2.8426 6.30628 3.12927 6.47961 3.3026C6.65295 3.47594 6.93962 3.47594 7.11295 3.3026L7.54628 2.86927V4.0026H8.44625V2.86927Z" fill="white"/>
<path d="M12.8066 6.74666C12.78 6.73334 12.7466 6.72666 12.72 6.72H12.7134C12.24 6.59334 11.7134 6.53334 11.1 6.53334C10.0734 6.53334 9.58665 6.83334 9.14665 7.16666C9.05337 7.23334 8.98665 7.3 8.92001 7.36666L8.28665 8.04C8.22001 8.10664 8.11337 8.14664 8.00001 8.14664C7.96 8.14664 7.81333 8.14 7.71333 8.03336L7.06 7.34666C6.99333 7.27334 6.91333 7.21334 6.89333 7.2C6.41336 6.83334 5.92669 6.53334 4.90002 6.53334C4.28669 6.53334 3.76002 6.59334 3.28002 6.72C3.25336 6.72666 3.22002 6.73334 3.19336 6.74666C3.20002 5.42 3.33336 4 6.14002 4H7.55333V6.05334C7.55333 6.3 7.75333 6.5 8.00001 6.5C8.24665 6.5 8.44665 6.3 8.44665 6.05334V4H9.86001C12.6666 4 12.8 5.42 12.8066 6.74666Z" fill="white"/>
</svg>
