<svg width="16" height="16" viewBox="0 0 16 16" fill="none" xmlns="http://www.w3.org/2000/svg">
<path d="M11.3474 1.81216L9.02742 2.97216C8.38078 3.29216 7.62746 3.29216 6.98078 2.97216L4.65413 1.8055C2.66746 0.812163 0.567463 2.95883 1.60746 4.9255L2.15413 5.95216C2.22746 6.09216 2.34746 6.2055 2.49413 6.27216L10.9274 10.0655C11.2741 10.2188 11.6808 10.0788 11.8541 9.74548L14.3941 4.91883C15.4274 2.95883 13.3341 0.812163 11.3474 1.81216Z" fill="white"/>
<path d="M10.4002 10.8728L4.88029 8.38617C4.26029 8.10617 3.63363 8.77281 3.95363 9.37281L5.98029 13.2195C6.84026 14.8528 9.1736 14.8528 10.0336 13.2195L10.747 11.8594C10.9336 11.4928 10.7736 11.0462 10.4002 10.8728Z" fill="white"/>
</svg>
