<svg width="16" height="16" viewBox="0 0 16 16" fill="none" xmlns="http://www.w3.org/2000/svg">
<path d="M8.00063 1.33594C4.32066 1.33594 1.33398 4.3226 1.33398 8.0026C1.33398 11.6826 4.32066 14.6692 8.00063 14.6692C11.6806 14.6692 14.6674 11.6826 14.6674 8.0026C14.6674 4.3226 11.6806 1.33594 8.00063 1.33594ZM6.00066 5.33594C6.36732 5.33594 6.66732 5.63594 6.66732 6.0026C6.66732 6.36927 6.37398 6.66927 6.00066 6.66927C5.63398 6.66927 5.33398 6.36927 5.33398 6.0026C5.33398 5.63594 5.63398 5.33594 6.00066 5.33594ZM6.35398 10.356C6.25398 10.456 6.12732 10.5026 6.00066 10.5026C5.87398 10.5026 5.74732 10.456 5.64732 10.356C5.45398 10.1626 5.45398 9.8426 5.64732 9.64924L9.64735 5.64927C9.84063 5.45594 10.1606 5.45594 10.354 5.64927C10.5474 5.8426 10.5474 6.1626 10.354 6.35594L6.35398 10.356ZM10.0006 10.6692C9.62735 10.6692 9.32735 10.3692 9.32735 10.0026C9.32735 9.63596 9.62735 9.33596 9.99399 9.33596C10.3606 9.33596 10.6606 9.63596 10.6606 10.0026C10.6606 10.3692 10.3674 10.6692 10.0006 10.6692Z" fill="white"/>
</svg>
