<svg width="16" height="16" viewBox="0 0 16 16" fill="none" xmlns="http://www.w3.org/2000/svg">
<path d="M14.3526 7.24597L13.3393 6.23261C13.1659 6.05927 13.0259 5.71927 13.0259 5.47927V4.03927C13.0259 3.45261 12.5459 2.97261 11.9593 2.97261H10.5259C10.2859 2.97261 9.94594 2.83261 9.77258 2.65927L8.7593 1.64593C8.34594 1.23261 7.66595 1.23261 7.25262 1.64593L6.22594 2.65927C6.05927 2.83261 5.71927 2.97261 5.4726 2.97261H4.03927C3.4526 2.97261 2.9726 3.45261 2.9726 4.03927V5.47261C2.9726 5.71261 2.8326 6.05261 2.65928 6.22594L1.64594 7.23929C1.2326 7.65263 1.2326 8.3326 1.64594 8.74596L2.65928 9.75932C2.8326 9.9326 2.9726 10.2726 2.9726 10.5126V11.946C2.9726 12.5326 3.4526 13.0126 4.03927 13.0126H5.4726C5.7126 13.0126 6.0526 13.1526 6.22594 13.326L7.23928 14.3393C7.65262 14.7526 8.33258 14.7526 8.74594 14.3393L9.7593 13.326C9.93258 13.1526 10.2726 13.0126 10.5126 13.0126H11.9459C12.5326 13.0126 13.0126 12.5326 13.0126 11.946V10.5126C13.0126 10.2726 13.1526 9.9326 13.3259 9.75932L14.3393 8.74596C14.7726 8.33932 14.7726 7.65929 14.3526 7.24597ZM5.3326 5.99927C5.3326 5.63261 5.6326 5.33261 5.99927 5.33261C6.36594 5.33261 6.66594 5.63261 6.66594 5.99927C6.66594 6.36594 6.3726 6.66597 5.99927 6.66597C5.6326 6.66597 5.3326 6.36594 5.3326 5.99927ZM6.3526 10.3526C6.2526 10.4526 6.12594 10.4993 5.99927 10.4993C5.8726 10.4993 5.74594 10.4526 5.64594 10.3526C5.4526 10.1593 5.4526 9.83932 5.64594 9.64596L9.64594 5.64593C9.8393 5.45261 10.1593 5.45261 10.3526 5.64593C10.5459 5.83927 10.5459 6.15927 10.3526 6.35261L6.3526 10.3526ZM9.9993 10.666C9.62594 10.666 9.32594 10.366 9.32594 9.99932C9.32594 9.6326 9.62594 9.3326 9.99258 9.3326C10.3593 9.3326 10.6593 9.6326 10.6593 9.99932C10.6593 10.366 10.3659 10.666 9.9993 10.666Z" fill="white"/>
</svg>
