<svg width="16" height="16" viewBox="0 0 16 16" fill="none" xmlns="http://www.w3.org/2000/svg">
<path d="M13.9873 2.0139C13.4073 1.4339 12.5873 1.20722 11.7939 1.40722L5.26056 3.04056C4.16056 3.3139 3.3139 4.16722 3.04056 5.26056L1.40722 11.8005C1.20722 12.5939 1.4339 13.4139 2.0139 13.9939C2.4539 14.4272 3.0339 14.6672 3.63389 14.6672C3.82056 14.6672 4.0139 14.6472 4.20056 14.5939L10.7406 12.9605C11.8339 12.6872 12.6873 11.8405 12.9606 10.7405L14.5939 4.20056C14.7939 3.40722 14.5673 2.58722 13.9873 2.0139ZM8.00058 10.5872C6.57389 10.5872 5.41389 9.42716 5.41389 8.00052C5.41389 6.57389 6.57389 5.4139 8.00058 5.4139C9.42726 5.4139 10.5873 6.57389 10.5873 8.00052C10.5873 9.42716 9.42726 10.5872 8.00058 10.5872Z" fill="white"/>
</svg>
