<svg width="16" height="16" viewBox="0 0 16 16" fill="none" xmlns="http://www.w3.org/2000/svg">
<path d="M10.4073 3.66505V10.4383C10.4073 10.7051 10.3273 10.9651 10.1806 11.1851L8.36062 13.8917C8.07398 14.3251 7.36065 14.6317 6.75398 14.4051C6.10066 14.1851 5.66733 13.4517 5.80733 12.7983L6.154 10.6183C6.18066 10.4183 6.12733 10.2383 6.014 10.0983C5.90066 9.9717 5.734 9.8917 5.554 9.8917H2.814C2.28733 9.8917 1.834 9.67834 1.56733 9.30506C1.314 8.94506 1.26733 8.47834 1.434 8.00506L3.074 3.01172C3.28066 2.18505 4.18066 1.51172 5.074 1.51172H7.67398C8.12062 1.51172 8.74734 1.66505 9.03398 1.95172L9.88734 2.61172C10.214 2.86505 10.4073 3.25172 10.4073 3.66505Z" fill="white"/>
<path d="M12.5276 11.739H13.2142C14.2476 11.739 14.6676 11.339 14.6676 10.3523V3.65229C14.6676 2.66563 14.2476 2.26562 13.2142 2.26562H12.5276C11.4942 2.26562 11.0742 2.66563 11.0742 3.65229V10.359C11.0742 11.339 11.4942 11.739 12.5276 11.739Z" fill="white"/>
</svg>
