<svg width="16" height="16" viewBox="0 0 16 16" fill="none" xmlns="http://www.w3.org/2000/svg">
<path d="M13.666 6.79594H11.7394C10.1594 6.79594 8.87265 5.50927 8.87265 3.92927V2.0026C8.87265 1.63594 8.57265 1.33594 8.20601 1.33594H5.37934C3.32602 1.33594 1.66602 2.66927 1.66602 5.04927V10.956C1.66602 13.336 3.32602 14.6692 5.37934 14.6692H10.6194C12.6726 14.6692 14.3326 13.336 14.3326 10.956V7.4626C14.3326 7.09594 14.0326 6.79594 13.666 6.79594Z" fill="white"/>
<path d="M10.5337 1.47366C10.2605 1.20032 9.78711 1.38698 9.78711 1.76698V4.09366C9.78711 5.06699 10.6137 5.87366 11.6205 5.87366C12.2537 5.88032 13.1337 5.88032 13.8871 5.88032C14.2671 5.88032 14.4671 5.43366 14.2005 5.16699C13.2405 4.20032 11.5205 2.46032 10.5337 1.47366Z" fill="white"/>
</svg>
