<svg width="16" height="16" viewBox="0 0 16 16" fill="none" xmlns="http://www.w3.org/2000/svg">
<path d="M10.334 8.76404H8.88735C7.70066 8.76404 6.73398 7.80406 6.73398 6.61073V5.16406C6.73398 4.89073 6.51398 4.66406 6.23398 4.66406H4.12066C2.58066 4.66406 1.33398 5.66406 1.33398 7.45073V11.8774C1.33398 13.664 2.58066 14.664 4.12066 14.664H8.04735C9.58735 14.664 10.834 13.664 10.834 11.8774V9.26404C10.834 8.98404 10.6074 8.76404 10.334 8.76404Z" fill="white"/>
<path d="M11.8805 1.33594H10.5672H9.84055H7.95384C6.44716 1.33594 5.22716 2.29594 5.17383 4.00927C5.21383 4.00927 5.24716 4.0026 5.28716 4.0026H7.17384H7.90052H9.21383C10.7538 4.0026 12.0005 5.0026 12.0005 6.78927V8.1026V9.90924V11.2226C12.0005 11.2626 11.9938 11.296 11.9938 11.3292C13.4805 11.2826 14.6672 10.296 14.6672 8.55596V7.2426V5.43594V4.1226C14.6672 2.33594 13.4205 1.33594 11.8805 1.33594Z" fill="white"/>
<path d="M7.98578 4.7665C7.77912 4.55983 7.42578 4.69983 7.42578 4.9865V6.7332C7.42578 7.46653 8.04578 8.0665 8.80578 8.0665C9.27914 8.07322 9.93914 8.07322 10.5058 8.07322C10.7924 8.07322 10.9391 7.73987 10.7391 7.53987C10.0124 6.8132 8.71914 5.51317 7.98578 4.7665Z" fill="white"/>
</svg>
