<svg width="16" height="16" viewBox="0 0 16 16" fill="none" xmlns="http://www.w3.org/2000/svg">
<path fill-rule="evenodd" clip-rule="evenodd" d="M3.60039 1.60156C2.93765 1.60156 2.40039 2.13882 2.40039 2.80156V13.2016C2.40039 13.8643 2.93765 14.4016 3.60039 14.4016H12.4004C13.0631 14.4016 13.6004 13.8643 13.6004 13.2016V6.09862C13.6004 5.78036 13.474 5.47514 13.249 5.25009L9.95183 1.95303C9.72679 1.72799 9.42159 1.60156 9.10335 1.60156H3.60039ZM8.00039 6.40156C8.33175 6.40156 8.60039 6.67019 8.60039 7.00156V8.20156H9.80039C10.1318 8.20156 10.4004 8.4702 10.4004 8.80156C10.4004 9.13292 10.1318 9.40156 9.80039 9.40156H8.60039V10.6016C8.60039 10.9329 8.33175 11.2016 8.00039 11.2016C7.66902 11.2016 7.40039 10.9329 7.40039 10.6016V9.40156H6.20039C5.86902 9.40156 5.60039 9.13292 5.60039 8.80156C5.60039 8.4702 5.86902 8.20156 6.20039 8.20156H7.40039V7.00156C7.40039 6.67019 7.66902 6.40156 8.00039 6.40156Z" fill="#0F172A"/>
</svg>
