<svg width="16" height="16" viewBox="0 0 16 16" fill="none" xmlns="http://www.w3.org/2000/svg">
<path d="M13.8066 5.41429V11.6877C13.8066 13.3277 12.4666 14.6677 10.8266 14.6677H5.17336C3.53336 14.6677 2.19336 13.3277 2.19336 11.6877V5.41429C2.19336 4.27429 2.83336 3.28096 3.77336 2.78096C4.10002 2.60763 4.50669 2.84096 4.50669 3.21429C4.50669 4.27429 5.37336 5.14096 6.43336 5.14096H9.56665C10.6266 5.14096 11.4934 4.27429 11.4934 3.21429C11.4934 2.84096 11.8934 2.60763 12.2266 2.78096C13.1666 3.28096 13.8066 4.27429 13.8066 5.41429Z" fill="white"/>
<path d="M9.56719 1.33594H6.43383C5.74049 1.33594 5.17383 1.89594 5.17383 2.58927V3.21594C5.17383 3.90927 5.73383 4.46927 6.42716 4.46927H9.56719C10.2605 4.46927 10.8205 3.90927 10.8205 3.21594V2.58927C10.8272 1.89594 10.2605 1.33594 9.56719 1.33594Z" fill="white"/>
</svg>
