<svg width="16" height="16" viewBox="0 0 16 16" fill="none" xmlns="http://www.w3.org/2000/svg">
<path d="M13.666 6.79594H11.7394C10.1594 6.79594 8.87265 5.50927 8.87265 3.92927V2.0026C8.87265 1.63594 8.57265 1.33594 8.20601 1.33594H5.37934C3.32602 1.33594 1.66602 2.66927 1.66602 5.04927V10.956C1.66602 13.336 3.32602 14.6692 5.37934 14.6692H10.6194C12.6726 14.6692 14.3326 13.336 14.3326 10.956V7.4626C14.3326 7.09594 14.0326 6.79594 13.666 6.79594ZM9.16601 9.9626C9.16601 9.99596 9.16601 10.036 9.16601 10.0692C9.15265 10.1626 9.11265 10.2492 9.04601 10.3292C9.03937 10.336 9.02601 10.3492 9.01937 10.356L7.68602 11.6892C7.58602 11.7892 7.45934 11.836 7.33268 11.836C7.20602 11.836 7.07934 11.7892 6.97934 11.6892C6.78602 11.496 6.78602 11.176 6.97934 10.9826L7.45934 10.5026H4.66602C4.39268 10.5026 4.16602 10.276 4.16602 10.0026C4.16602 9.72924 4.39268 9.5026 4.66602 9.5026H7.45934L6.97934 9.0226C6.87934 8.9226 6.83268 8.79596 6.83268 8.66924C6.83268 8.5426 6.87934 8.41596 6.97934 8.31596C7.17268 8.1226 7.49268 8.1226 7.68602 8.31596L9.01937 9.64924C9.10601 9.7426 9.15265 9.84924 9.16601 9.9626Z" fill="white"/>
<path d="M11.6205 5.87366C12.2537 5.88032 13.1337 5.88032 13.8871 5.88032C14.2671 5.88032 14.4671 5.43366 14.2005 5.16699C13.2405 4.20032 11.5205 2.46032 10.5337 1.47366C10.2605 1.20032 9.78711 1.38698 9.78711 1.76698V4.09366C9.78711 5.06699 10.6137 5.87366 11.6205 5.87366Z" fill="white"/>
</svg>
