<svg width="16" height="16" viewBox="0 0 16 16" fill="none" xmlns="http://www.w3.org/2000/svg">
<path fill-rule="evenodd" clip-rule="evenodd" d="M3.60039 1.60156C2.93765 1.60156 2.40039 2.13882 2.40039 2.80156V13.2016C2.40039 13.8643 2.93765 14.4016 3.60039 14.4016H12.4004C13.0631 14.4016 13.6004 13.8643 13.6004 13.2016V6.09862C13.6004 5.78036 13.474 5.47514 13.249 5.25009L9.95183 1.95303C9.72679 1.72799 9.42159 1.60156 9.10335 1.60156H3.60039ZM7.40039 7.00156C7.40039 6.67019 7.66902 6.40156 8.00039 6.40156C8.33175 6.40156 8.60039 6.67019 8.60039 7.00156V9.03796L9.35439 8.2002C9.57607 7.95387 9.95543 7.93391 10.2018 8.15556C10.4481 8.37724 10.4681 8.7566 10.2464 9.00292L8.44639 11.0029C8.33255 11.1294 8.17047 11.2016 8.00039 11.2016C7.8303 11.2016 7.6682 11.1294 7.55441 11.0029L5.75441 9.00292C5.53274 8.7566 5.5527 8.37724 5.79901 8.15556C6.04532 7.93391 6.42469 7.95387 6.64637 8.2002L7.40039 9.03796V7.00156Z" fill="#0F172A"/>
</svg>
