<svg width="16" height="16" viewBox="0 0 16 16" fill="none" xmlns="http://www.w3.org/2000/svg">
<path d="M10.6666 1.33594H5.33334C3 1.33594 2 2.66927 2 4.66927V11.336C2 13.336 3 14.6692 5.33334 14.6692H10.6666C13 14.6692 14 13.336 14 11.336V4.66927C14 2.66927 13 1.33594 10.6666 1.33594ZM5.33334 8.16924H8C8.27336 8.16924 8.5 8.39596 8.5 8.66924C8.5 8.9426 8.27336 9.16924 8 9.16924H5.33334C5.06 9.16924 4.83334 8.9426 4.83334 8.66924C4.83334 8.39596 5.06 8.16924 5.33334 8.16924ZM10.6666 11.836H5.33334C5.06 11.836 4.83334 11.6092 4.83334 11.336C4.83334 11.0626 5.06 10.836 5.33334 10.836H10.6666C10.94 10.836 11.1666 11.0626 11.1666 11.336C11.1666 11.6092 10.94 11.836 10.6666 11.836ZM12.3334 6.16927H11C9.98664 6.16927 9.16664 5.34927 9.16664 4.33594V3.0026C9.16664 2.72927 9.39336 2.5026 9.66664 2.5026C9.94 2.5026 10.1666 2.72927 10.1666 3.0026V4.33594C10.1666 4.79594 10.54 5.16927 11 5.16927H12.3334C12.6066 5.16927 12.8334 5.39594 12.8334 5.66927C12.8334 5.9426 12.6066 6.16927 12.3334 6.16927Z" fill="white"/>
</svg>
