<svg width="16" height="16" viewBox="0 0 16 16" fill="none" xmlns="http://www.w3.org/2000/svg">
<path d="M10.6666 1.33594H5.33334C3 1.33594 2 2.66927 2 4.66927V7.64927C2 7.8826 2.22666 8.0426 2.44 7.9626C3.17334 7.67594 4.00666 7.5826 4.86666 7.75594C6.6 8.1026 7.98 9.52924 8.26664 11.2692C8.44 12.3292 8.22664 13.336 7.74 14.1692C7.60666 14.3892 7.76666 14.6692 8.02664 14.6692H10.6666C13 14.6692 14 13.336 14 11.336V4.66927C14 2.66927 13 1.33594 10.6666 1.33594ZM12.3334 6.16927H11C9.98664 6.16927 9.16664 5.34927 9.16664 4.33594V3.0026C9.16664 2.72927 9.39336 2.5026 9.66664 2.5026C9.94 2.5026 10.1666 2.72927 10.1666 3.0026V4.33594C10.1666 4.79594 10.54 5.16927 11 5.16927H12.3334C12.6066 5.16927 12.8334 5.39594 12.8334 5.66927C12.8334 5.9426 12.6066 6.16927 12.3334 6.16927Z" fill="white"/>
<path d="M3.99935 8.66406C2.15935 8.66406 0.666016 10.1574 0.666016 11.9974C0.666016 13.8374 2.15935 15.3308 3.99935 15.3308C5.83935 15.3308 7.33268 13.8374 7.33268 11.9974C7.33268 10.1574 5.83935 8.66406 3.99935 8.66406ZM3.43935 12.8441C3.60602 13.0108 3.60602 13.2841 3.43935 13.4574C3.35268 13.5441 3.24602 13.5841 3.13268 13.5841C3.01935 13.5841 2.91268 13.5441 2.82602 13.4574L1.67268 12.3041C1.50602 12.1374 1.50602 11.8641 1.67268 11.6908L2.82602 10.5374C2.99268 10.3708 3.26602 10.3708 3.43935 10.5374C3.60602 10.7041 3.60602 10.9774 3.43935 11.1508L2.59268 11.9974L3.43935 12.8441ZM6.31935 12.3041L5.16602 13.4574C5.07935 13.5441 4.97268 13.5841 4.85935 13.5841C4.74602 13.5841 4.63935 13.5441 4.55268 13.4574C4.38602 13.2908 4.38602 13.0174 4.55268 12.8441L5.40602 11.9974L4.55935 11.1508C4.39268 10.9841 4.39268 10.7108 4.55935 10.5374C4.72602 10.3708 4.99935 10.3708 5.17268 10.5374L6.32602 11.6908C6.48602 11.8641 6.48602 12.1308 6.31935 12.3041Z" fill="white"/>
</svg>
