<svg width="16" height="16" viewBox="0 0 16 16" fill="none" xmlns="http://www.w3.org/2000/svg">
<path d="M10.6666 1.33594H5.33334C3 1.33594 2 2.66927 2 4.66927V11.336C2 13.336 3 14.6692 5.33334 14.6692H10.6666C13 14.6692 14 13.336 14 11.336V4.66927C14 2.66927 13 1.33594 10.6666 1.33594ZM7.02 10.9826C7.21334 11.176 7.21334 11.496 7.02 11.6892C6.92 11.7892 6.79334 11.836 6.66666 11.836C6.54 11.836 6.41334 11.7892 6.31334 11.6892L4.98 10.356C4.78666 10.1626 4.78666 9.8426 4.98 9.64924L6.31334 8.31596C6.50666 8.1226 6.82666 8.1226 7.02 8.31596C7.21334 8.50924 7.21334 8.82924 7.02 9.0226L6.04 10.0026L7.02 10.9826ZM11.02 10.356L9.68664 11.6892C9.58664 11.7892 9.46 11.836 9.33336 11.836C9.20664 11.836 9.08 11.7892 8.98 11.6892C8.78664 11.496 8.78664 11.176 8.98 10.9826L9.96 10.0026L8.98 9.0226C8.78664 8.82924 8.78664 8.50924 8.98 8.31596C9.17336 8.1226 9.49336 8.1226 9.68664 8.31596L11.02 9.64924C11.2134 9.8426 11.2134 10.1626 11.02 10.356ZM12.3334 6.16927H11C9.98664 6.16927 9.16664 5.34927 9.16664 4.33594V3.0026C9.16664 2.72927 9.39336 2.5026 9.66664 2.5026C9.94 2.5026 10.1666 2.72927 10.1666 3.0026V4.33594C10.1666 4.79594 10.54 5.16927 11 5.16927H12.3334C12.6066 5.16927 12.8334 5.39594 12.8334 5.66927C12.8334 5.9426 12.6066 6.16927 12.3334 6.16927Z" fill="white"/>
</svg>
