<svg width="16" height="16" viewBox="0 0 16 16" fill="none" xmlns="http://www.w3.org/2000/svg">
<path d="M5.59961 2.80156C5.59961 2.13882 6.13687 1.60156 6.79961 1.60156H9.90257C10.2208 1.60156 10.526 1.72799 10.751 1.95303L13.2482 4.45009C13.4732 4.67514 13.5996 4.98036 13.5996 5.29862V10.0016C13.5996 10.6643 13.0623 11.2016 12.3996 11.2016H11.5996V8.4986C11.5996 7.8621 11.3467 7.25165 10.8966 6.80156L8.39961 4.30451C7.94952 3.85442 7.33907 3.60156 6.70255 3.60156H5.59961V2.80156Z" fill="#0F172A"/>
<path d="M3.60039 4.80078C2.93765 4.80078 2.40039 5.33804 2.40039 6.00078V13.2008C2.40039 13.8635 2.93765 14.4008 3.60039 14.4008H9.20039C9.86311 14.4008 10.4004 13.8635 10.4004 13.2008V8.49782C10.4004 8.17958 10.274 7.87436 10.049 7.64931L7.55186 5.15225C7.32682 4.92721 7.02159 4.80078 6.70333 4.80078H3.60039Z" fill="#0F172A"/>
</svg>
