<svg width="16" height="16" viewBox="0 0 16 16" fill="none" xmlns="http://www.w3.org/2000/svg">
<path d="M13.666 6.79594H11.7394C10.1594 6.79594 8.87265 5.50927 8.87265 3.92927V2.0026C8.87265 1.63594 8.57265 1.33594 8.20601 1.33594H5.37934C3.32602 1.33594 1.66602 2.66927 1.66602 5.04927V10.956C1.66602 13.336 3.32602 14.6692 5.37934 14.6692H10.6194C12.6726 14.6692 14.3326 13.336 14.3326 10.956V7.4626C14.3326 7.09594 14.0326 6.79594 13.666 6.79594ZM8.31937 10.4692C7.97268 11.5826 6.75268 12.1826 6.33268 12.1826C5.90602 12.1826 4.71268 11.6026 4.34602 10.4692C4.10602 9.72924 4.37934 8.7626 5.22602 8.48924C5.61268 8.3626 6.02602 8.43596 6.32602 8.66924C6.62602 8.43596 7.03934 8.3626 7.43268 8.48924C8.28601 8.7626 8.55265 9.72924 8.31937 10.4692Z" fill="white"/>
<path d="M11.6205 5.87366C12.2537 5.88032 13.1337 5.88032 13.8871 5.88032C14.2671 5.88032 14.4671 5.43366 14.2005 5.16699C13.2405 4.20032 11.5205 2.46032 10.5337 1.47366C10.2605 1.20032 9.78711 1.38698 9.78711 1.76698V4.09366C9.78711 5.06699 10.6137 5.87366 11.6205 5.87366Z" fill="white"/>
</svg>
