<svg width="16" height="16" viewBox="0 0 16 16" fill="none" xmlns="http://www.w3.org/2000/svg">
<path d="M10.6666 1.33594H5.33334C3 1.33594 2 2.66927 2 4.66927V11.336C2 13.336 3 14.6692 5.33334 14.6692H10.6666C13 14.6692 14 13.336 14 11.336V4.66927C14 2.66927 13 1.33594 10.6666 1.33594ZM8.71336 10.3292C8.37336 11.416 7.18 11.9826 6.84666 11.9826C6.52 11.976 5.34 11.4226 4.98666 10.3292C4.76666 9.6426 5.02666 8.79596 5.74 8.5626C6.12 8.4426 6.58666 8.5426 6.84666 8.90924C7.09334 8.52924 7.58 8.4426 7.95334 8.5626C8.67336 8.79596 8.92664 9.6426 8.71336 10.3292ZM12.3334 6.16927H11C9.98664 6.16927 9.16664 5.34927 9.16664 4.33594V3.0026C9.16664 2.72927 9.39336 2.5026 9.66664 2.5026C9.94 2.5026 10.1666 2.72927 10.1666 3.0026V4.33594C10.1666 4.79594 10.54 5.16927 11 5.16927H12.3334C12.6066 5.16927 12.8334 5.39594 12.8334 5.66927C12.8334 5.9426 12.6066 6.16927 12.3334 6.16927Z" fill="white"/>
</svg>
