<svg width="16" height="16" viewBox="0 0 16 16" fill="none" xmlns="http://www.w3.org/2000/svg">
<path d="M6.40039 8.00078C6.40039 7.33804 6.93765 6.80078 7.60039 6.80078C8.26311 6.80078 8.80039 7.33804 8.80039 8.00078C8.80039 8.3323 8.66671 8.6315 8.44895 8.84934C8.23111 9.0671 7.93193 9.20078 7.60039 9.20078C6.93765 9.20078 6.40039 8.6635 6.40039 8.00078Z" fill="#0F172A"/>
<path fill-rule="evenodd" clip-rule="evenodd" d="M3.60039 1.60156C2.93765 1.60156 2.40039 2.13882 2.40039 2.80156V13.2016C2.40039 13.8643 2.93765 14.4016 3.60039 14.4016H12.4004C13.0631 14.4016 13.6004 13.8643 13.6004 13.2016V6.09862C13.6004 5.78036 13.474 5.47514 13.249 5.25009L9.95183 1.95303C9.72679 1.72799 9.42159 1.60156 9.10335 1.60156H3.60039ZM7.60039 5.60156C6.27491 5.60156 5.20039 6.67608 5.20039 8.00156C5.20039 9.32708 6.27491 10.4016 7.60039 10.4016C8.04519 10.4016 8.46223 10.2802 8.81951 10.0692L9.77615 11.0258C10.0105 11.2601 10.3903 11.2601 10.6246 11.0258C10.859 10.7915 10.859 10.4116 10.6246 10.1773L9.66799 9.22068C9.87903 8.8634 10.0004 8.44636 10.0004 8.00156C10.0004 6.67608 8.92591 5.60156 7.60039 5.60156Z" fill="#0F172A"/>
</svg>
