<svg width="16" height="16" viewBox="0 0 16 16" fill="none" xmlns="http://www.w3.org/2000/svg">
<path fill-rule="evenodd" clip-rule="evenodd" d="M3.60039 1.60156C2.93765 1.60156 2.40039 2.13882 2.40039 2.80156V13.2016C2.40039 13.8643 2.93765 14.4016 3.60039 14.4016H12.4004C13.0631 14.4016 13.6004 13.8643 13.6004 13.2016V6.09862C13.6004 5.78036 13.474 5.47514 13.249 5.25009L9.95183 1.95303C9.72679 1.72799 9.42159 1.60156 9.10335 1.60156H3.60039ZM7.40039 10.6016C7.40039 10.9329 7.66902 11.2016 8.00039 11.2016C8.33175 11.2016 8.60039 10.9329 8.60039 10.6016V8.56516L9.35439 9.40292C9.57607 9.64924 9.95543 9.66924 10.2018 9.44756C10.4481 9.22588 10.4681 8.84652 10.2464 8.6002L8.44639 6.60019C8.33255 6.47375 8.17047 6.40156 8.00039 6.40156C7.8303 6.40156 7.6682 6.47375 7.55441 6.60019L5.75441 8.6002C5.53274 8.84652 5.5527 9.22588 5.79901 9.44756C6.04532 9.66924 6.42469 9.64924 6.64637 9.40292L7.40039 8.56516V10.6016Z" fill="#0F172A"/>
</svg>
