<svg width="16" height="16" viewBox="0 0 16 16" fill="none" xmlns="http://www.w3.org/2000/svg">
<path d="M10.5337 1.47366C10.2605 1.20032 9.78711 1.38698 9.78711 1.76698V4.09366C9.78711 5.06699 10.6137 5.87366 11.6205 5.87366C12.2537 5.88032 13.1337 5.88032 13.8871 5.88032C14.2671 5.88032 14.4671 5.43366 14.2005 5.16699C13.2405 4.20032 11.5205 2.46032 10.5337 1.47366Z" fill="white"/>
<path d="M13.666 6.79594H11.7394C10.1594 6.79594 8.87265 5.50927 8.87265 3.92927V2.0026C8.87265 1.63594 8.57265 1.33594 8.20601 1.33594H5.37934C3.32602 1.33594 1.66602 2.66927 1.66602 5.04927V10.956C1.66602 13.336 3.32602 14.6692 5.37934 14.6692H10.6194C12.6726 14.6692 14.3326 13.336 14.3326 10.956V7.4626C14.3326 7.09594 14.0326 6.79594 13.666 6.79594ZM8.66601 10.5026H5.87268L6.35268 10.9826C6.54602 11.176 6.54602 11.496 6.35268 11.6892C6.25268 11.7892 6.12602 11.836 5.99934 11.836C5.87268 11.836 5.74602 11.7892 5.64602 11.6892L4.31268 10.356C4.26602 10.3092 4.23934 10.2626 4.21268 10.2092C4.20602 10.196 4.19934 10.176 4.19268 10.1626C4.17934 10.1226 4.17268 10.0826 4.16602 10.0426C4.16602 10.0226 4.16602 10.0092 4.16602 9.98924C4.16602 9.93596 4.17934 9.8826 4.19934 9.82924C4.19934 9.8226 4.19934 9.8226 4.20602 9.81596C4.22602 9.7626 4.26602 9.70924 4.30602 9.66924C4.31268 9.6626 4.31268 9.65596 4.31934 9.65596L5.65268 8.3226C5.84602 8.12924 6.16602 8.12924 6.35934 8.3226C6.55268 8.51596 6.55268 8.83596 6.35934 9.02924L5.87934 9.50924H8.66601C8.93937 9.50924 9.16601 9.73596 9.16601 10.0092C9.16601 10.2826 8.93937 10.5026 8.66601 10.5026Z" fill="white"/>
</svg>
