<svg width="16" height="16" viewBox="0 0 16 16" fill="none" xmlns="http://www.w3.org/2000/svg">
<path fill-rule="evenodd" clip-rule="evenodd" d="M2.40039 2.80156C2.40039 2.13882 2.93765 1.60156 3.60039 1.60156H9.10335C9.42159 1.60156 9.72679 1.72799 9.95183 1.95303L13.249 5.25009C13.474 5.47514 13.6004 5.78036 13.6004 6.09862V13.2016C13.6004 13.8643 13.0631 14.4016 12.4004 14.4016H3.60039C2.93765 14.4016 2.40039 13.8643 2.40039 13.2016V2.80156ZM10.6004 7.20156C10.9318 7.20156 11.2004 7.47019 11.2004 7.80156V11.4016C11.2004 11.7329 10.9318 12.0016 10.6004 12.0016C10.269 12.0016 10.0004 11.7329 10.0004 11.4016V7.80156C10.0004 7.47019 10.269 7.20156 10.6004 7.20156ZM5.40039 10.4016C5.73176 10.4016 6.00039 10.6702 6.00039 11.0016V11.4016C6.00039 11.7329 5.73176 12.0016 5.40039 12.0016C5.06902 12.0016 4.80039 11.7329 4.80039 11.4016V11.0016C4.80039 10.6702 5.06902 10.4016 5.40039 10.4016ZM8.60039 9.40156C8.60039 9.0702 8.33175 8.80156 8.00039 8.80156C7.66902 8.80156 7.40039 9.0702 7.40039 9.40156V11.4016C7.40039 11.7329 7.66902 12.0016 8.00039 12.0016C8.33175 12.0016 8.60039 11.7329 8.60039 11.4016V9.40156Z" fill="#0F172A"/>
</svg>
