<svg width="16" height="16" viewBox="0 0 16 16" fill="none" xmlns="http://www.w3.org/2000/svg">
<path fill-rule="evenodd" clip-rule="evenodd" d="M2.40039 2.80156C2.40039 2.13882 2.93765 1.60156 3.60039 1.60156H9.10335C9.42159 1.60156 9.72679 1.72799 9.95183 1.95303L13.249 5.25009C13.474 5.47514 13.6004 5.78036 13.6004 6.09862V13.2016C13.6004 13.8643 13.0631 14.4016 12.4004 14.4016H3.60039C2.93765 14.4016 2.40039 13.8643 2.40039 13.2016V2.80156ZM11.0857 7.35447C11.2806 7.08647 11.2213 6.71123 10.9533 6.51632C10.6853 6.32142 10.3101 6.38067 10.1151 6.64866L7.32814 10.4808L5.82465 8.97732C5.59034 8.743 5.21044 8.743 4.97613 8.97732C4.74181 9.21164 4.74181 9.59148 4.97613 9.8258L6.97613 11.8258C7.10021 11.9499 7.27238 12.0135 7.44733 11.9997C7.62226 11.986 7.78242 11.8964 7.88563 11.7544L11.0857 7.35447Z" fill="#0F172A"/>
</svg>
