<svg width="16" height="16" viewBox="0 0 16 16" fill="none" xmlns="http://www.w3.org/2000/svg">
<path fill-rule="evenodd" clip-rule="evenodd" d="M3.60039 1.60156C2.93765 1.60156 2.40039 2.13882 2.40039 2.80156V13.2016C2.40039 13.8643 2.93765 14.4016 3.60039 14.4016H12.4004C13.0631 14.4016 13.6004 13.8643 13.6004 13.2016V6.09862C13.6004 5.78036 13.474 5.47514 13.249 5.25009L9.95183 1.95303C9.72679 1.72799 9.42159 1.60156 9.10335 1.60156H3.60039ZM5.40039 8.40156C5.06902 8.40156 4.80039 8.6702 4.80039 9.00156C4.80039 9.33292 5.06902 9.60156 5.40039 9.60156H10.6004C10.9318 9.60156 11.2004 9.33292 11.2004 9.00156C11.2004 8.6702 10.9318 8.40156 10.6004 8.40156H5.40039ZM5.40039 10.8016C5.06902 10.8016 4.80039 11.0702 4.80039 11.4016C4.80039 11.7329 5.06902 12.0016 5.40039 12.0016H10.6004C10.9318 12.0016 11.2004 11.7329 11.2004 11.4016C11.2004 11.0702 10.9318 10.8016 10.6004 10.8016H5.40039Z" fill="#0F172A"/>
</svg>
