<svg width="16" height="16" viewBox="0 0 16 16" fill="none" xmlns="http://www.w3.org/2000/svg">
<path d="M10.5337 1.47366C10.2605 1.20032 9.78711 1.38698 9.78711 1.76698V4.09366C9.78711 5.06699 10.6137 5.87366 11.6205 5.87366C12.2537 5.88032 13.1337 5.88032 13.8871 5.88032C14.2671 5.88032 14.4671 5.43366 14.2005 5.16699C13.2405 4.20032 11.5205 2.46032 10.5337 1.47366Z" fill="white"/>
<path d="M9.83904 12.8386C8.2724 12.9519 8.2724 15.2186 9.83904 15.3319H13.5457C13.9924 15.3319 14.4324 15.1652 14.759 14.8652C15.859 13.9052 15.2724 11.9852 13.8257 11.8052C13.3057 8.67859 8.78568 9.86523 9.8524 12.8452" fill="white"/>
<path d="M14.3326 7.4626V9.62924C14.3326 9.82924 14.0394 9.9226 13.8926 9.7826C13.5726 9.46924 13.1794 9.22924 12.726 9.08924C11.606 8.7426 10.306 9.0826 9.49937 9.93596C8.95937 10.496 8.68601 11.2092 8.69265 11.9826C8.69265 12.1092 8.63265 12.2226 8.53265 12.296C7.99934 12.7026 7.66602 13.3426 7.66602 14.0826C7.66602 14.136 7.66602 14.1892 7.67268 14.2426C7.68602 14.456 7.53268 14.6626 7.31268 14.6626H5.37934C3.32602 14.6626 1.66602 13.3292 1.66602 10.9492V5.04927C1.66602 2.66927 3.32602 1.33594 5.37934 1.33594H8.20601C8.57265 1.33594 8.87265 1.63594 8.87265 2.0026V3.92927C8.87265 5.51594 10.1526 6.79594 11.7394 6.79594H13.666C14.0326 6.79594 14.3326 7.09594 14.3326 7.4626Z" fill="white"/>
</svg>
