<svg width="16" height="16" viewBox="0 0 16 16" fill="none" xmlns="http://www.w3.org/2000/svg">
<path d="M2.15398 0.664062H7.57398C8.02735 0.664062 8.39399 1.0374 8.39399 1.4974V2.41073C8.39399 2.74406 8.18735 3.1574 7.98066 3.36406L6.22066 4.95073C5.97398 5.1574 5.81398 5.57073 5.81398 5.90406V7.69073C5.81398 7.9374 5.64732 8.27076 5.44732 8.3974L4.86732 8.7774C4.33398 9.11076 3.59398 8.7374 3.59398 8.07076V5.86406C3.59398 5.57073 3.42732 5.1974 3.26732 4.99073L1.70732 3.32406C1.50066 3.1174 1.33398 2.74406 1.33398 2.4974V1.5374C1.33398 1.0374 1.70066 0.664062 2.15398 0.664062Z" fill="white"/>
<path d="M11.334 1.33594H9.73399C9.54735 1.33594 9.40063 1.4826 9.40063 1.66927C9.40063 1.98927 9.40063 2.41594 9.40063 2.41594C9.40063 3.07594 9.04735 3.7226 8.70063 4.07594L6.88732 5.69594C6.86732 5.7426 6.83398 5.80927 6.81398 5.8626V7.69594C6.81398 8.3026 6.45398 8.9626 5.96066 9.2626L5.41398 9.61596C5.10732 9.80924 4.76732 9.9026 4.42732 9.9026C4.12066 9.9026 3.81398 9.8226 3.53398 9.66924C3.18902 9.4782 2.92854 9.18996 2.76938 8.85164C2.68807 8.67884 2.66732 8.48564 2.66732 8.2946V6.80927C2.66732 6.7226 2.63398 6.63594 2.56732 6.57594L1.90066 5.90927C1.69398 5.69594 1.33398 5.8426 1.33398 6.1426V11.336C1.33398 13.176 2.82732 14.6692 4.66732 14.6692H11.334C13.174 14.6692 14.6674 13.176 14.6674 11.336V4.66927C14.6674 2.82927 13.174 1.33594 11.334 1.33594ZM12.0006 11.836H7.33398C7.06066 11.836 6.83398 11.6092 6.83398 11.336C6.83398 11.0626 7.06066 10.836 7.33398 10.836H12.0006C12.274 10.836 12.5006 11.0626 12.5006 11.336C12.5006 11.6092 12.274 11.836 12.0006 11.836ZM12.0006 9.16924H8.66735C8.39399 9.16924 8.16735 8.9426 8.16735 8.66924C8.16735 8.39596 8.39399 8.16924 8.66735 8.16924H12.0006C12.274 8.16924 12.5006 8.39596 12.5006 8.66924C12.5006 8.9426 12.274 9.16924 12.0006 9.16924Z" fill="white"/>
</svg>
