<svg width="16" height="16" viewBox="0 0 16 16" fill="none" xmlns="http://www.w3.org/2000/svg">
<path d="M13.666 6.79594H11.7394C10.1594 6.79594 8.87265 5.50927 8.87265 3.92927V2.0026C8.87265 1.63594 8.57265 1.33594 8.20601 1.33594H5.37934C3.32602 1.33594 1.66602 2.66927 1.66602 5.04927V10.956C1.66602 13.336 3.32602 14.6692 5.37934 14.6692H10.6194C12.6726 14.6692 14.3326 13.336 14.3326 10.956V7.4626C14.3326 7.09594 14.0326 6.79594 13.666 6.79594ZM7.68602 9.0226C7.58602 9.1226 7.45934 9.16924 7.33268 9.16924C7.20602 9.16924 7.07934 9.1226 6.97934 9.0226L6.49934 8.5426V11.336C6.49934 11.6092 6.27268 11.836 5.99934 11.836C5.72602 11.836 5.49934 11.6092 5.49934 11.336V8.5426L5.01934 9.0226C4.82602 9.21596 4.50602 9.21596 4.31268 9.0226C4.11934 8.82924 4.11934 8.50924 4.31268 8.31596L5.64602 6.9826C5.69268 6.9426 5.73934 6.90927 5.79268 6.8826C5.80602 6.87594 5.82602 6.86927 5.83934 6.8626C5.87934 6.84927 5.91934 6.8426 5.96602 6.83594C5.98602 6.83594 5.99934 6.83594 6.01934 6.83594C6.07268 6.83594 6.12602 6.84927 6.17934 6.86927C6.18602 6.86927 6.18602 6.86927 6.19268 6.86927C6.24602 6.88927 6.29934 6.92927 6.33934 6.96927C6.34602 6.97594 6.35268 6.97594 6.35268 6.9826L7.68602 8.31596C7.87934 8.50924 7.87934 8.82924 7.68602 9.0226Z" fill="white"/>
<path d="M11.6205 5.87366C12.2537 5.88032 13.1337 5.88032 13.8871 5.88032C14.2671 5.88032 14.4671 5.43366 14.2005 5.16699C13.2405 4.20032 11.5205 2.46032 10.5337 1.47366C10.2605 1.20032 9.78711 1.38698 9.78711 1.76698V4.09366C9.78711 5.06699 10.6137 5.87366 11.6205 5.87366Z" fill="white"/>
</svg>
