<svg width="16" height="16" viewBox="0 0 16 16" fill="none" xmlns="http://www.w3.org/2000/svg">
<path d="M7.49928 5.38672V7.29339L6.82595 7.06006C6.48596 6.94006 6.2793 6.82673 6.2793 6.24671C6.2793 5.77338 6.63263 5.38672 7.06595 5.38672H7.49928Z" fill="white"/>
<path d="M9.72 9.75367C9.72 10.227 9.36664 10.6137 8.93336 10.6137H8.5V8.70703L9.17336 8.94039C9.51336 9.06039 9.72 9.17367 9.72 9.75367Z" fill="white"/>
<path d="M10.794 1.33594H5.20732C2.78066 1.33594 1.33398 2.7826 1.33398 5.20927V10.796C1.33398 13.2226 2.78066 14.6692 5.20732 14.6692H10.794C13.2206 14.6692 14.6674 13.2226 14.6674 10.796V5.20927C14.6674 2.7826 13.2206 1.33594 10.794 1.33594ZM9.50735 8.0026C10.0274 8.1826 10.7206 8.5626 10.7206 9.75596C10.7206 10.7826 9.92063 11.616 8.93399 11.616H8.50063V12.0026C8.50063 12.276 8.27399 12.5026 8.00063 12.5026C7.72732 12.5026 7.50066 12.276 7.50066 12.0026V11.616H7.26066C6.16732 11.616 5.28066 10.6892 5.28066 9.55596C5.28066 9.2826 5.50066 9.05596 5.78066 9.05596C6.05398 9.05596 6.28066 9.2826 6.28066 9.55596C6.28066 10.1426 6.72066 10.616 7.26066 10.616H7.50066V8.35596L6.49398 8.0026C5.97398 7.8226 5.28066 7.4426 5.28066 6.24927C5.28066 5.2226 6.08066 4.38927 7.06732 4.38927H7.50066V4.0026C7.50066 3.72927 7.72732 3.5026 8.00063 3.5026C8.27399 3.5026 8.50063 3.72927 8.50063 4.0026V4.38927H8.74063C9.83399 4.38927 10.7206 5.31594 10.7206 6.44927C10.7206 6.7226 10.5006 6.94927 10.2206 6.94927C9.94735 6.94927 9.72063 6.7226 9.72063 6.44927C9.72063 5.8626 9.28063 5.38927 8.74063 5.38927H8.50063V7.64927L9.50735 8.0026Z" fill="white"/>
</svg>
