<svg width="16" height="16" viewBox="0 0 16 16" fill="none" xmlns="http://www.w3.org/2000/svg">
<path d="M8.5 10.6109H8.93336C9.36664 10.6109 9.72664 10.2243 9.72664 9.75766C9.72664 9.17766 9.52 9.0643 9.18 8.9443L8.50664 8.71094V10.6109H8.5Z" fill="white"/>
<path d="M7.98072 1.26564C4.30069 1.27896 1.32069 4.2723 1.33403 7.95229C1.34736 11.6323 4.34069 14.6123 8.02071 14.599C11.7007 14.5856 14.6807 11.5923 14.6673 7.91229C14.6541 4.2323 11.6607 1.25896 7.98072 1.26564ZM9.50735 7.99896C10.0273 8.17896 10.7273 8.5656 10.7273 9.75896C10.7273 10.7856 9.92071 11.6123 8.93407 11.6123H8.50071V11.999C8.50071 12.2723 8.27407 12.499 8.00071 12.499C7.72738 12.499 7.50072 12.2723 7.50072 11.999V11.6123H7.26072C6.16736 11.6123 5.28069 10.6923 5.28069 9.55896C5.28069 9.2856 5.50736 9.05896 5.78069 9.05896C6.05403 9.05896 6.28069 9.2856 6.28069 9.55896C6.28069 10.139 6.72072 10.6123 7.26072 10.6123H7.50072V8.35896L6.49403 7.99896C5.97403 7.81896 5.27403 7.43229 5.27403 6.23896C5.27403 5.2123 6.08069 4.38564 7.06738 4.38564H7.50072V3.99896C7.50072 3.72564 7.72738 3.49896 8.00071 3.49896C8.27407 3.49896 8.50071 3.72564 8.50071 3.99896V4.38564H8.74071C9.83407 4.38564 10.7207 5.30564 10.7207 6.43896C10.7207 6.71229 10.4941 6.93896 10.2207 6.93896C9.94735 6.93896 9.72071 6.71229 9.72071 6.43896C9.72071 5.85896 9.28071 5.38564 8.74071 5.38564H8.50071V7.63896L9.50735 7.99896Z" fill="white"/>
<path d="M6.2793 6.24671C6.2793 6.82673 6.48596 6.94006 6.82595 7.06006L7.49928 7.29339V5.38672H7.06595C6.63263 5.38672 6.2793 5.77338 6.2793 6.24671Z" fill="white"/>
</svg>
