<svg width="16" height="16" viewBox="0 0 16 16" fill="none" xmlns="http://www.w3.org/2000/svg">
<path fill-rule="evenodd" clip-rule="evenodd" d="M10.587 13.9459C10.607 14.0526 10.547 14.1659 10.447 14.2059C9.69368 14.5059 8.86696 14.6659 8.01368 14.6659C6.54032 14.6659 5.1803 14.1926 4.0803 13.3792C3.98697 13.3126 3.96033 13.1792 4.02033 13.0792C4.38699 12.4259 5.82029 10.3259 8.98696 9.15259C9.10696 9.10587 9.24032 9.16587 9.28032 9.28587C10.0737 11.4126 10.447 13.2126 10.587 13.9459Z" fill="white"/>
<path fill-rule="evenodd" clip-rule="evenodd" d="M14.5478 9.26135C14.2411 10.9013 13.321 12.328 12.0344 13.3013C11.8944 13.408 11.6944 13.328 11.661 13.1613C11.521 12.4413 11.181 10.888 10.5277 9.04135C10.481 8.90135 10.5745 8.74799 10.7211 8.72799C12.3811 8.52799 13.8345 8.84799 14.3811 8.99471C14.4945 9.03471 14.5678 9.14799 14.5478 9.26135Z" fill="white"/>
<path fill-rule="evenodd" clip-rule="evenodd" d="M14.3928 7.88171C13.7128 7.76171 11.9796 7.50837 10.2062 7.70171C10.0996 7.71504 10.0062 7.65504 9.95956 7.55504C9.93284 7.49504 9.91284 7.43504 9.8862 7.37504C9.77956 7.12837 9.6662 6.87504 9.55284 6.62839C9.49284 6.50839 9.55284 6.36172 9.67284 6.30839C11.5396 5.50172 12.5796 4.46172 12.9862 3.99505C13.0862 3.88172 13.2596 3.8884 13.3528 4.0084C14.1196 5.0284 14.5928 6.27505 14.6662 7.62171C14.6728 7.78837 14.5396 7.90837 14.3928 7.88171Z" fill="white"/>
<path fill-rule="evenodd" clip-rule="evenodd" d="M12.2934 3.19317C11.9466 3.61317 10.9734 4.61316 9.12664 5.34649C9.02 5.39316 8.89336 5.34649 8.83336 5.23983C7.98 3.69316 7.07327 2.39316 6.65329 1.8065C6.55329 1.6665 6.63331 1.46651 6.8 1.43984C7.18667 1.37317 7.59333 1.33984 8.00664 1.33984C9.62 1.33984 11.1066 1.91316 12.26 2.87316C12.36 2.9465 12.3734 3.09317 12.2934 3.19317Z" fill="white"/>
<path fill-rule="evenodd" clip-rule="evenodd" d="M7.34718 5.89555C4.8205 6.52888 2.58713 6.61556 1.7738 6.62889C1.62047 6.62889 1.50716 6.48223 1.54716 6.33556C2.02716 4.46889 3.30715 2.90889 4.99381 2.04889C5.09381 1.99556 5.22048 2.02888 5.28715 2.12222C5.63381 2.60222 6.57381 3.95556 7.49378 5.54889C7.56711 5.68223 7.50051 5.85555 7.34718 5.89555Z" fill="white"/>
<path fill-rule="evenodd" clip-rule="evenodd" d="M8.61312 7.73503C8.67312 7.86169 8.59984 8.015 8.46656 8.06172C5.51318 9.015 3.74651 11.3817 3.21317 12.195C3.12651 12.3284 2.93984 12.335 2.83984 12.215C1.90652 11.0684 1.33984 9.755 1.33984 8.16172V8.04172C1.33984 7.90836 1.4465 7.80169 1.57984 7.80836C2.41984 7.84169 5.15984 7.72836 8.00656 6.90836C8.1132 6.87503 8.23312 6.92836 8.27976 7.02836C8.39312 7.26169 8.50648 7.49503 8.61312 7.73503Z" fill="white"/>
</svg>
