<svg width="16" height="16" viewBox="0 0 16 16" fill="none" xmlns="http://www.w3.org/2000/svg">
<path d="M12.8806 1.33594H3.12066C2.14066 1.33594 1.33398 2.1426 1.33398 3.1226V4.87594C1.33398 5.8626 2.14066 6.66927 3.12066 6.66927H12.874C13.8606 6.66927 14.6674 5.8626 14.6674 4.8826V3.1226C14.6674 2.1426 13.8606 1.33594 12.8806 1.33594ZM4.50066 4.66927C4.50066 4.9426 4.27398 5.16927 4.00066 5.16927C3.72732 5.16927 3.50066 4.9426 3.50066 4.66927V3.33594C3.50066 3.0626 3.72732 2.83594 4.00066 2.83594C4.27398 2.83594 4.50066 3.0626 4.50066 3.33594V4.66927ZM7.16732 4.66927C7.16732 4.9426 6.94066 5.16927 6.66732 5.16927C6.39398 5.16927 6.16732 4.9426 6.16732 4.66927V3.33594C6.16732 3.0626 6.39398 2.83594 6.66732 2.83594C6.94066 2.83594 7.16732 3.0626 7.16732 3.33594V4.66927ZM12.0006 4.5026H9.33399C9.06063 4.5026 8.83399 4.27594 8.83399 4.0026C8.83399 3.72927 9.06063 3.5026 9.33399 3.5026H12.0006C12.274 3.5026 12.5006 3.72927 12.5006 4.0026C12.5006 4.27594 12.274 4.5026 12.0006 4.5026Z" fill="white"/>
<path d="M12.8806 9.33594H3.12066C2.14066 9.33594 1.33398 10.1426 1.33398 11.1226V12.8759C1.33398 13.8626 2.14066 14.6692 3.12066 14.6692H12.874C13.8606 14.6692 14.6606 13.8626 14.6606 12.8826V11.1292C14.6674 10.1426 13.8606 9.33594 12.8806 9.33594ZM4.50066 12.6692C4.50066 12.9426 4.27398 13.1692 4.00066 13.1692C3.72732 13.1692 3.50066 12.9426 3.50066 12.6692V11.3359C3.50066 11.0626 3.72732 10.8359 4.00066 10.8359C4.27398 10.8359 4.50066 11.0626 4.50066 11.3359V12.6692ZM7.16732 12.6692C7.16732 12.9426 6.94066 13.1692 6.66732 13.1692C6.39398 13.1692 6.16732 12.9426 6.16732 12.6692V11.3359C6.16732 11.0626 6.39398 10.8359 6.66732 10.8359C6.94066 10.8359 7.16732 11.0626 7.16732 11.3359V12.6692ZM12.0006 12.5026H9.33399C9.06063 12.5026 8.83399 12.2759 8.83399 12.0026C8.83399 11.7292 9.06063 11.5026 9.33399 11.5026H12.0006C12.274 11.5026 12.5006 11.7292 12.5006 12.0026C12.5006 12.2759 12.274 12.5026 12.0006 12.5026Z" fill="white"/>
</svg>
