<svg width="16" height="16" viewBox="0 0 16 16" fill="none" xmlns="http://www.w3.org/2000/svg">
<path d="M6.62066 8.5H2.00066C1.63398 8.5 1.33398 8.8 1.33398 9.16664V10.7934C1.33398 12.9334 3.06732 14.6666 5.20732 14.6666H6.34066C6.85398 14.6666 7.16732 14.12 6.92066 13.6666C6.39398 12.6866 6.18732 11.5066 6.44732 10.2666C6.54066 9.81336 6.70066 9.38664 6.91398 8.98664C7.02732 8.76664 6.87398 8.5 6.62066 8.5ZM4.50066 12C4.50066 12.2734 4.27398 12.5 4.00066 12.5C3.72732 12.5 3.50066 12.2734 3.50066 12V10.6666C3.50066 10.3934 3.72732 10.1666 4.00066 10.1666C4.27398 10.1666 4.50066 10.3934 4.50066 10.6666V12Z" fill="white"/>
<path d="M10.794 1.33594H5.20732C3.06732 1.33594 1.33398 3.06927 1.33398 5.20927V6.83594C1.33398 7.2026 1.63398 7.5026 2.00066 7.5026H7.89398C8.04063 7.5026 8.18063 7.44927 8.30063 7.35594C8.87399 6.91594 9.54735 6.59594 10.2674 6.44927C11.5074 6.18927 12.6874 6.39594 13.6674 6.9226C14.1206 7.1626 14.6674 6.85594 14.6674 6.3426V5.20927C14.6674 3.06927 12.934 1.33594 10.794 1.33594ZM4.50066 5.5026C4.50066 5.77594 4.27398 6.0026 4.00066 6.0026C3.72732 6.0026 3.50066 5.77594 3.50066 5.5026V4.16927C3.50066 3.89594 3.72732 3.66927 4.00066 3.66927C4.27398 3.66927 4.50066 3.89594 4.50066 4.16927V5.5026ZM7.16732 5.5026C7.16732 5.77594 6.94066 6.0026 6.66732 6.0026C6.39398 6.0026 6.16732 5.77594 6.16732 5.5026V4.16927C6.16732 3.89594 6.39398 3.66927 6.66732 3.66927C6.94066 3.66927 7.16732 3.89594 7.16732 4.16927V5.5026ZM12.0006 5.33594H9.33399C9.06063 5.33594 8.83399 5.10927 8.83399 4.83594C8.83399 4.5626 9.06063 4.33594 9.33399 4.33594H12.0006C12.274 4.33594 12.5006 4.5626 12.5006 4.83594C12.5006 5.10927 12.274 5.33594 12.0006 5.33594Z" fill="white"/>
<path d="M11.334 7.33594C9.12735 7.33594 7.33398 9.12924 7.33398 11.336C7.33398 13.5426 9.12735 15.336 11.334 15.336C13.5406 15.336 15.334 13.5426 15.334 11.336C15.334 9.12924 13.5406 7.33594 11.334 7.33594ZM13.2874 12.136C13.1806 12.396 13.0274 12.6292 12.8274 12.8292C12.4274 13.2292 11.9006 13.4492 11.334 13.4492C10.8806 13.4492 10.454 13.3026 10.094 13.036V13.1292C10.094 13.336 9.92735 13.5092 9.71399 13.5092C9.50063 13.5026 9.33399 13.336 9.33399 13.1226V12.1626C9.33399 11.956 9.50063 11.7826 9.71399 11.7826H10.674C10.8806 11.7826 11.054 11.9492 11.054 12.1626C11.054 12.356 10.914 12.5026 10.7274 12.5292C11.234 12.776 11.8806 12.696 12.2874 12.2892C12.414 12.1626 12.514 12.0092 12.5806 11.8426C12.6606 11.6492 12.8806 11.556 13.074 11.636C13.274 11.716 13.3674 11.9426 13.2874 12.136ZM13.334 10.5092C13.334 10.716 13.1674 10.8892 12.954 10.8892H11.994C11.7874 10.8892 11.614 10.7226 11.614 10.5092C11.614 10.316 11.754 10.1692 11.9406 10.1426C11.434 9.89596 10.7874 9.97596 10.374 10.3826C10.2606 10.496 10.174 10.6226 10.1074 10.7626C10.0406 10.9026 9.90735 10.9826 9.76735 10.9826C9.71399 10.9826 9.66063 10.9692 9.60735 10.9492C9.42063 10.8626 9.33399 10.636 9.42735 10.4426C9.53399 10.2226 9.67399 10.0226 9.84063 9.84924C10.2406 9.44924 10.7674 9.22924 11.334 9.22924C11.7874 9.22924 12.214 9.37596 12.574 9.6426V9.55596C12.574 9.34924 12.7406 9.17596 12.954 9.17596C13.1674 9.17596 13.334 9.33596 13.334 9.54924V10.5092Z" fill="white"/>
</svg>
