<svg width="16" height="16" viewBox="0 0 16 16" fill="none" xmlns="http://www.w3.org/2000/svg">
<g clip-path="url(#clip0_13_13586)">
<path d="M8 12.5026C7.72666 12.5026 7.5 12.2759 7.5 12.0026V11.3359C7.5 11.0626 7.72666 10.8359 8 10.8359C8.27336 10.8359 8.5 11.0626 8.5 11.3359V12.0026C8.5 12.2759 8.27336 12.5026 8 12.5026Z" fill="white"/>
<path d="M8 15.1666C7.72666 15.1666 7.5 14.94 7.5 14.6666V14C7.5 13.7266 7.72666 13.5 8 13.5C8.27336 13.5 8.5 13.7266 8.5 14V14.6666C8.5 14.94 8.27336 15.1666 8 15.1666Z" fill="white"/>
<path d="M1.3334 15.168C1.2934 15.168 1.2534 15.1614 1.2134 15.1547C0.94673 15.088 0.780067 14.8147 0.846731 14.548L1.5134 11.8814C1.58007 11.6147 1.84673 11.448 2.12007 11.5147C2.38673 11.5814 2.5534 11.8547 2.48673 12.1214L1.82007 14.788C1.76007 15.0147 1.56007 15.168 1.3334 15.168Z" fill="white"/>
<path d="M14.5024 15.0044C14.2757 15.0044 14.0757 14.851 14.0157 14.6244L13.3491 11.9577C13.2824 11.691 13.4424 11.4177 13.7157 11.351C13.9824 11.2844 14.2557 11.4444 14.3224 11.7177L14.9891 14.3844C15.0557 14.651 14.8957 14.9244 14.6224 14.991C14.5824 14.9977 14.5424 15.0044 14.5024 15.0044Z" fill="white"/>
<path d="M12.7595 3.53073C12.7595 3.73073 12.5928 3.89073 12.3995 3.89073H3.68617C3.48617 3.89073 3.32617 3.72406 3.32617 3.53073C3.32617 3.33073 3.49284 3.17073 3.68617 3.17073H4.17951L4.36617 2.2974C4.53951 1.44406 4.89951 0.664062 6.33951 0.664062H9.73281C11.1728 0.664062 11.5395 1.44406 11.7128 2.29073L11.8995 3.16406H12.3928C12.5928 3.16406 12.7595 3.33073 12.7595 3.53073Z" fill="white"/>
<path d="M12.9661 6.26385C12.8927 5.46385 12.6795 4.61719 11.1261 4.61719H4.95278C3.39944 4.61719 3.19278 5.47052 3.11278 6.26385L2.83944 9.21052C2.80612 9.57716 2.92612 9.94388 3.17944 10.2239C3.43944 10.5039 3.79944 10.6639 4.18612 10.6639H5.09278C5.87944 10.6639 6.02612 10.2172 6.12612 9.91716L6.22612 9.62388C6.33944 9.29052 6.36612 9.21052 6.79942 9.21052H9.27945C9.71273 9.21052 9.72609 9.25716 9.85273 9.62388L9.95273 9.91716C10.0461 10.2172 10.1995 10.6639 10.9795 10.6639H11.8861C12.2661 10.6639 12.6327 10.5039 12.8927 10.2239C13.1461 9.95052 13.2661 9.57716 13.2327 9.21052L12.9661 6.26385ZM6.58612 7.2772H5.13944C4.93944 7.2772 4.77944 7.11052 4.77944 6.9172C4.77944 6.72386 4.94612 6.55719 5.13944 6.55719H6.59278C6.79276 6.55719 6.95276 6.72386 6.95276 6.9172C6.95276 7.11052 6.78608 7.2772 6.58612 7.2772ZM10.9395 7.2772H9.48609C9.28609 7.2772 9.12609 7.11052 9.12609 6.9172C9.12609 6.72386 9.29273 6.55719 9.48609 6.55719H10.9395C11.1395 6.55719 11.2995 6.72386 11.2995 6.9172C11.2995 7.11052 11.1395 7.2772 10.9395 7.2772Z" fill="white"/>
</g>
<defs>
<clipPath id="clip0_13_13586">
<rect width="16" height="16" fill="white"/>
</clipPath>
</defs>
</svg>
