<svg width="16" height="16" viewBox="0 0 16 16" fill="none" xmlns="http://www.w3.org/2000/svg">
<path d="M10.794 1.33594H5.20732C3.06732 1.33594 1.33398 3.06927 1.33398 5.20927V6.83594C1.33398 7.2026 1.63398 7.5026 2.00066 7.5026H14.0006C14.3674 7.5026 14.6674 7.2026 14.6674 6.83594V5.20927C14.6674 3.06927 12.934 1.33594 10.794 1.33594ZM4.50066 5.5026C4.50066 5.77594 4.27398 6.0026 4.00066 6.0026C3.72732 6.0026 3.50066 5.77594 3.50066 5.5026V4.16927C3.50066 3.89594 3.72732 3.66927 4.00066 3.66927C4.27398 3.66927 4.50066 3.89594 4.50066 4.16927V5.5026ZM7.16732 5.5026C7.16732 5.77594 6.94066 6.0026 6.66732 6.0026C6.39398 6.0026 6.16732 5.77594 6.16732 5.5026V4.16927C6.16732 3.89594 6.39398 3.66927 6.66732 3.66927C6.94066 3.66927 7.16732 3.89594 7.16732 4.16927V5.5026ZM12.0006 5.33594H9.33399C9.06063 5.33594 8.83399 5.10927 8.83399 4.83594C8.83399 4.5626 9.06063 4.33594 9.33399 4.33594H12.0006C12.274 4.33594 12.5006 4.5626 12.5006 4.83594C12.5006 5.10927 12.274 5.33594 12.0006 5.33594Z" fill="white"/>
<path d="M1.33398 10.7934C1.33398 12.9334 3.06732 14.6666 5.20732 14.6666H10.7874C12.934 14.6666 14.6674 12.9334 14.6674 10.7934V9.16664C14.6674 8.8 14.3674 8.5 14.0006 8.5H2.00066C1.63398 8.5 1.33398 8.8 1.33398 9.16664V10.7934ZM9.33399 10.8334H12.0006C12.274 10.8334 12.5006 11.06 12.5006 11.3334C12.5006 11.6066 12.274 11.8334 12.0006 11.8334H9.33399C9.06063 11.8334 8.83399 11.6066 8.83399 11.3334C8.83399 11.06 9.06063 10.8334 9.33399 10.8334ZM6.16732 10.6666C6.16732 10.3934 6.39398 10.1666 6.66732 10.1666C6.94066 10.1666 7.16732 10.3934 7.16732 10.6666V12C7.16732 12.2734 6.94066 12.5 6.66732 12.5C6.39398 12.5 6.16732 12.2734 6.16732 12V10.6666ZM3.50066 10.6666C3.50066 10.3934 3.72732 10.1666 4.00066 10.1666C4.27398 10.1666 4.50066 10.3934 4.50066 10.6666V12C4.50066 12.2734 4.27398 12.5 4.00066 12.5C3.72732 12.5 3.50066 12.2734 3.50066 12V10.6666Z" fill="white"/>
</svg>
