<svg width="16" height="16" viewBox="0 0 16 16" fill="none" xmlns="http://www.w3.org/2000/svg">
<path d="M7.99961 3.99825L4.29291 6.66491L2.12624 5.19824C1.73958 4.93824 1.73292 4.37825 2.11292 4.10491L4.66624 2.26491C4.89291 2.10491 5.19958 2.09825 5.42625 2.25159L7.99961 3.99825Z" fill="white"/>
<path d="M13.8734 5.2018L11.7066 6.6685L8 4.00181L10.5734 2.26183C10.8066 2.10849 11.1066 2.10848 11.3334 2.27516L13.8866 4.11516C14.2666 4.38183 14.26 4.9418 13.8734 5.2018Z" fill="white"/>
<path d="M7.99928 9.33076L5.0393 11.3308L3.33263 10.104L2.10596 9.22404C1.73263 8.95076 1.73929 8.39076 2.11929 8.13076L4.28596 6.66406L7.99928 9.33076Z" fill="white"/>
<path d="M13.8741 8.13076C14.2608 8.39076 14.2675 8.95076 13.8875 9.22404L12.6608 10.104L10.9541 11.3308L7.99414 9.33076L11.7008 6.66406L13.8741 8.13076Z" fill="white"/>
<path d="M12.454 11.5613C12.5406 11.4947 12.6674 11.5613 12.6674 11.6681V12.1547C12.6674 12.4147 12.514 12.6481 12.2806 12.7613L8.28063 14.6081C8.10063 14.6881 7.90066 14.6881 7.72066 14.6081L3.72065 12.7613C3.48731 12.6481 3.33398 12.4147 3.33398 12.1547V11.6681C3.33398 11.5613 3.45399 11.4947 3.54733 11.5613L4.83398 12.4881C4.94732 12.5681 5.10066 12.5747 5.21399 12.4947L7.81398 10.7347C7.92732 10.6613 8.07399 10.6613 8.18735 10.7347L10.7874 12.4947C10.9006 12.5747 11.054 12.5681 11.1674 12.4881L12.454 11.5613Z" fill="white"/>
</svg>
