<svg width="16" height="16" viewBox="0 0 16 16" fill="none" xmlns="http://www.w3.org/2000/svg">
<path d="M10.794 1.33594H5.20732C2.78066 1.33594 1.33398 2.7826 1.33398 5.20927V10.7892C1.33398 13.2226 2.78066 14.6692 5.20732 14.6692H10.7874C13.214 14.6692 14.6606 13.2226 14.6606 10.796V5.20927C14.6674 2.7826 13.2206 1.33594 10.794 1.33594ZM7.30066 11.676C7.10732 11.8692 6.74066 12.056 6.47398 12.096L4.83398 12.3292C4.77398 12.336 4.71398 12.3426 4.65398 12.3426C4.38066 12.3426 4.12732 12.2492 3.94732 12.0692C3.72732 11.8492 3.63398 11.5292 3.68732 11.176L3.92066 9.53596C3.96066 9.2626 4.14066 8.9026 4.34066 8.70924L7.31398 5.73594C7.36732 5.87594 7.42066 6.01594 7.49398 6.17594C7.56066 6.31594 7.63398 6.4626 7.71398 6.59594C7.78066 6.70927 7.85398 6.81594 7.91398 6.89594C7.98732 7.00927 8.07399 7.11594 8.12735 7.17594C8.16063 7.2226 8.18735 7.25594 8.20063 7.26927C8.36735 7.46927 8.56063 7.65594 8.72735 7.79594C8.77399 7.8426 8.80063 7.86927 8.81399 7.87594C8.91399 7.95594 9.01399 8.03596 9.10063 8.09596C9.20735 8.17596 9.31399 8.24924 9.42735 8.30924C9.56063 8.38924 9.70735 8.4626 9.85399 8.53596C10.0074 8.6026 10.1474 8.6626 10.2874 8.70924L7.30066 11.676ZM11.5806 7.39594L10.9674 8.01596C10.9274 8.05596 10.874 8.07596 10.8206 8.07596C10.8006 8.07596 10.774 8.07596 10.7606 8.06924C9.40735 7.6826 8.32735 6.6026 7.94066 5.24927C7.92066 5.17594 7.94066 5.09594 7.99398 5.04927L8.61399 4.42927C9.62735 3.41594 10.594 3.43594 11.5874 4.42927C12.094 4.93594 12.3406 5.4226 12.3406 5.92927C12.334 6.40927 12.0874 6.88927 11.5806 7.39594Z" fill="white"/>
</svg>
