<svg width="16" height="16" viewBox="0 0 16 16" fill="none" xmlns="http://www.w3.org/2000/svg">
<path d="M14 14.6641H2C1.72666 14.6641 1.5 14.4374 1.5 14.1641C1.5 13.8908 1.72666 13.6641 2 13.6641H14C14.2734 13.6641 14.5 13.8908 14.5 14.1641C14.5 14.4374 14.2734 14.6641 14 14.6641Z" fill="white"/>
<path d="M12.6804 2.31848C11.387 1.02514 10.1204 0.991813 8.79374 2.31848L7.98705 3.12514C7.92037 3.19181 7.89371 3.29848 7.92037 3.39181C8.42702 5.15848 9.84038 6.57181 11.607 7.07849C11.6337 7.08517 11.6604 7.09183 11.687 7.09183C11.7604 7.09183 11.827 7.06517 11.8804 7.01183L12.6804 6.20514C13.3404 5.55181 13.6604 4.91848 13.6604 4.27848C13.667 3.61848 13.347 2.97848 12.6804 2.31848Z" fill="white"/>
<path d="M10.4075 7.68807C10.2142 7.59473 10.0275 7.5014 9.84751 7.39473C9.70087 7.30807 9.56087 7.21473 9.42087 7.11473C9.30751 7.0414 9.17415 6.93473 9.04751 6.82806C9.03415 6.8214 8.98751 6.7814 8.93415 6.72806C8.71415 6.54138 8.46751 6.30139 8.24751 6.03472C8.22751 6.02139 8.19415 5.97472 8.14751 5.91472C8.08087 5.83472 7.96752 5.70139 7.86752 5.54805C7.78752 5.44805 7.69419 5.30139 7.60752 5.15472C7.50085 4.97472 7.40752 4.79472 7.31418 4.60805C7.30005 4.57779 7.28639 4.54768 7.27319 4.51774C7.17479 4.29553 6.88499 4.23057 6.71319 4.40241L2.8942 8.2214C2.80753 8.30804 2.72753 8.47476 2.70753 8.58804L2.34753 11.1414C2.28087 11.5948 2.40753 12.0214 2.68753 12.308C2.92753 12.5414 3.26087 12.668 3.62087 12.668C3.70087 12.668 3.78087 12.6614 3.86087 12.648L6.42087 12.288C6.54087 12.268 6.70752 12.188 6.78752 12.1014L10.6018 8.28716C10.7748 8.11412 10.7095 7.8172 10.4845 7.72113C10.4591 7.71033 10.4334 7.69927 10.4075 7.68807Z" fill="white"/>
</svg>
