<svg width="16" height="16" viewBox="0 0 16 16" fill="none" xmlns="http://www.w3.org/2000/svg">
<path d="M5.28735 3.65166L7.37406 5.73834C7.72072 6.085 8.28735 6.085 8.63407 5.73834L10.7207 3.65166C11.2807 3.09166 10.8874 2.125 10.0874 2.125H5.91402C5.12069 2.125 4.72069 3.09166 5.28735 3.65166Z" fill="white"/>
<path d="M5.28735 12.3466L7.37406 10.26C7.72072 9.91334 8.28735 9.91334 8.63407 10.26L10.7207 12.3466C11.2807 12.9066 10.8874 13.8733 10.0874 13.8733H5.91402C5.12069 13.8733 4.72069 12.9066 5.28735 12.3466Z" fill="white"/>
<path d="M1.44094 7.62136L2.96763 5.22135C3.20763 4.84135 3.74097 4.78135 4.06097 5.10135L6.46095 7.50136C6.73431 7.7747 6.73431 8.22134 6.46095 8.4947L4.06097 10.8947C3.74097 11.2147 3.2143 11.1547 2.96763 10.7747L1.44094 8.3747C1.30094 8.14806 1.30094 7.8547 1.44094 7.62136Z" fill="white"/>
<path d="M14.561 7.62136L13.0343 5.22135C12.7943 4.84135 12.261 4.78135 11.941 5.10135L9.54096 7.50136C9.2676 7.7747 9.2676 8.22134 9.54096 8.4947L11.941 10.8947C12.261 11.2147 12.7876 11.1547 13.0343 10.7747L14.561 8.3747C14.701 8.14806 14.701 7.8547 14.561 7.62136Z" fill="white"/>
</svg>
