<svg width="16" height="16" viewBox="0 0 16 16" fill="none" xmlns="http://www.w3.org/2000/svg">
<path d="M10.394 3.33594H10.1674V1.33594C10.1674 1.0626 9.94063 0.835938 9.66735 0.835938C9.39399 0.835938 9.16735 1.0626 9.16735 1.33594V3.33594H6.83398V1.33594C6.83398 1.0626 6.60732 0.835938 6.33398 0.835938C6.06066 0.835938 5.83398 1.0626 5.83398 1.33594V3.33594H5.60732C4.90732 3.33594 4.33398 3.90927 4.33398 4.60927V8.0026C4.33398 9.46924 5.33398 10.6692 7.00066 10.6692H7.50066V14.6692C7.50066 14.9426 7.72732 15.1692 8.00063 15.1692C8.27399 15.1692 8.50063 14.9426 8.50063 14.6692V10.6692H9.00063C10.6674 10.6692 11.6674 9.46924 11.6674 8.0026V4.60927C11.6674 3.90927 11.094 3.33594 10.394 3.33594Z" fill="white"/>
</svg>
