<svg width="16" height="16" viewBox="0 0 16 16" fill="none" xmlns="http://www.w3.org/2000/svg">
<path d="M14.6666 5.6826V2.65594C14.6666 1.71594 14.24 1.33594 13.18 1.33594H10.4866C9.42664 1.33594 9 1.71594 9 2.65594V5.67594C9 6.6226 9.42664 6.99594 10.4866 6.99594H13.18C14.24 7.0026 14.6666 6.6226 14.6666 5.6826Z" fill="white"/>
<path d="M14.6666 13.18V10.4866C14.6666 9.42664 14.24 9 13.18 9H10.4866C9.42664 9 9 9.42664 9 10.4866V13.18C9 14.24 9.42664 14.6666 10.4866 14.6666H13.18C14.24 14.6666 14.6666 14.24 14.6666 13.18Z" fill="white"/>
<path d="M7.00066 5.6826V2.65594C7.00066 1.71594 6.57398 1.33594 5.51398 1.33594H2.82066C1.76066 1.33594 1.33398 1.71594 1.33398 2.65594V5.67594C1.33398 6.6226 1.76066 6.99594 2.82066 6.99594H5.51398C6.57398 7.0026 7.00066 6.6226 7.00066 5.6826Z" fill="white"/>
<path d="M7.00066 13.18V10.4866C7.00066 9.42664 6.57398 9 5.51398 9H2.82066C1.76066 9 1.33398 9.42664 1.33398 10.4866V13.18C1.33398 14.24 1.76066 14.6666 2.82066 14.6666H5.51398C6.57398 14.6666 7.00066 14.24 7.00066 13.18Z" fill="white"/>
</svg>
