<svg width="16" height="16" viewBox="0 0 16 16" fill="none" xmlns="http://www.w3.org/2000/svg">
<path d="M14 10.8359H10C9.72664 10.8359 9.5 10.6092 9.5 10.3359C9.5 10.0626 9.72664 9.83594 10 9.83594H14C14.2734 9.83594 14.5 10.0626 14.5 10.3359C14.5 10.6092 14.2734 10.8359 14 10.8359Z" fill="white"/>
<path d="M14 13.5H10C9.72664 13.5 9.5 13.2734 9.5 13C9.5 12.7266 9.72664 12.5 10 12.5H14C14.2734 12.5 14.5 12.7266 14.5 13C14.5 13.2734 14.2734 13.5 14 13.5Z" fill="white"/>
<path d="M14.6666 5.6826V2.65594C14.6666 1.71594 14.24 1.33594 13.18 1.33594H10.4866C9.42664 1.33594 9 1.71594 9 2.65594V5.67594C9 6.6226 9.42664 6.99594 10.4866 6.99594H13.18C14.24 7.0026 14.6666 6.6226 14.6666 5.6826Z" fill="white"/>
<path d="M7.00066 5.6826V2.65594C7.00066 1.71594 6.57398 1.33594 5.51398 1.33594H2.82066C1.76066 1.33594 1.33398 1.71594 1.33398 2.65594V5.67594C1.33398 6.6226 1.76066 6.99594 2.82066 6.99594H5.51398C6.57398 7.0026 7.00066 6.6226 7.00066 5.6826Z" fill="white"/>
<path d="M7.00066 13.18V10.4866C7.00066 9.42664 6.57398 9 5.51398 9H2.82066C1.76066 9 1.33398 9.42664 1.33398 10.4866V13.18C1.33398 14.24 1.76066 14.6666 2.82066 14.6666H5.51398C6.57398 14.6666 7.00066 14.24 7.00066 13.18Z" fill="white"/>
</svg>
