<svg width="16" height="16" viewBox="0 0 16 16" fill="none" xmlns="http://www.w3.org/2000/svg">
<path d="M14.3327 7.26927V2.73594C14.3327 1.73594 13.906 1.33594 12.846 1.33594H10.1527C9.09266 1.33594 8.66602 1.73594 8.66602 2.73594V7.26927C8.66602 8.26924 9.09266 8.66924 10.1527 8.66924H12.846C13.906 8.66924 14.3327 8.26924 14.3327 7.26927Z" fill="white"/>
<path d="M7.33268 8.73596V13.2692C7.33268 14.2692 6.90602 14.6692 5.84602 14.6692H3.15268C2.09268 14.6692 1.66602 14.2692 1.66602 13.2692V8.73596C1.66602 7.73594 2.09268 7.33594 3.15268 7.33594H5.84602C6.90602 7.33594 7.33268 7.73594 7.33268 8.73596Z" fill="white"/>
<path d="M14.3327 13.2666V11.4C14.3327 10.4 13.906 10 12.846 10H10.1527C9.09266 10 8.66602 10.4 8.66602 11.4V13.2666C8.66602 14.2666 9.09266 14.6666 10.1527 14.6666H12.846C13.906 14.6666 14.3327 14.2666 14.3327 13.2666Z" fill="white"/>
<path d="M7.33268 4.6026V2.73594C7.33268 1.73594 6.90602 1.33594 5.84602 1.33594H3.15268C2.09268 1.33594 1.66602 1.73594 1.66602 2.73594V4.6026C1.66602 5.6026 2.09268 6.0026 3.15268 6.0026H5.84602C6.90602 6.0026 7.33268 5.6026 7.33268 4.6026Z" fill="white"/>
</svg>
