<svg width="16" height="16" viewBox="0 0 16 16" fill="none" xmlns="http://www.w3.org/2000/svg">
<path d="M2.40039 8.00078C2.40039 7.33804 2.93765 6.80078 3.60039 6.80078C4.26313 6.80078 4.80039 7.33804 4.80039 8.00078C4.80039 8.6635 4.26313 9.20078 3.60039 9.20078C2.93765 9.20078 2.40039 8.6635 2.40039 8.00078Z" fill="#0F172A"/>
<path d="M6.80078 8.00078C6.80078 7.33804 7.33804 6.80078 8.00078 6.80078C8.6635 6.80078 9.20078 7.33804 9.20078 8.00078C9.20078 8.6635 8.6635 9.20078 8.00078 9.20078C7.33804 9.20078 6.80078 8.6635 6.80078 8.00078Z" fill="#0F172A"/>
<path d="M12.3992 6.80078C11.7365 6.80078 11.1992 7.33804 11.1992 8.00078C11.1992 8.6635 11.7365 9.20078 12.3992 9.20078C13.0619 9.20078 13.5992 8.6635 13.5992 8.00078C13.5992 7.33804 13.0619 6.80078 12.3992 6.80078Z" fill="#0F172A"/>
</svg>
