<svg width="16" height="16" viewBox="0 0 16 16" fill="none" xmlns="http://www.w3.org/2000/svg">
<path fill-rule="evenodd" clip-rule="evenodd" d="M1.59961 8.00156C1.59961 4.46694 4.46499 1.60156 7.99961 1.60156C11.5342 1.60156 14.3996 4.46694 14.3996 8.00156C14.3996 11.5362 11.5342 14.4016 7.99961 14.4016C4.46499 14.4016 1.59961 11.5362 1.59961 8.00156ZM7.99961 8.80156C8.44145 8.80156 8.79961 8.4434 8.79961 8.00156C8.79961 7.55974 8.44145 7.20156 7.99961 7.20156C7.55779 7.20156 7.19961 7.55974 7.19961 8.00156C7.19961 8.4434 7.55779 8.80156 7.99961 8.80156ZM5.59961 8.00156C5.59961 8.4434 5.24143 8.80156 4.79961 8.80156C4.35779 8.80156 3.99961 8.4434 3.99961 8.00156C3.99961 7.55974 4.35779 7.20156 4.79961 7.20156C5.24143 7.20156 5.59961 7.55974 5.59961 8.00156ZM11.1996 8.80156C11.6414 8.80156 11.9996 8.4434 11.9996 8.00156C11.9996 7.55974 11.6414 7.20156 11.1996 7.20156C10.7578 7.20156 10.3996 7.55974 10.3996 8.00156C10.3996 8.4434 10.7578 8.80156 11.1996 8.80156Z" fill="#0F172A"/>
</svg>
