<svg width="16" height="16" viewBox="0 0 16 16" fill="none" xmlns="http://www.w3.org/2000/svg">
<path d="M8.00078 2.39844C8.6635 2.39844 9.20078 2.93569 9.20078 3.59844C9.20078 4.26118 8.6635 4.79844 8.00078 4.79844C7.33804 4.79844 6.80078 4.26118 6.80078 3.59844C6.80078 2.93569 7.33804 2.39844 8.00078 2.39844Z" fill="#0F172A"/>
<path d="M8.00078 6.80078C8.6635 6.80078 9.20078 7.33804 9.20078 8.00078C9.20078 8.6635 8.6635 9.20078 8.00078 9.20078C7.33804 9.20078 6.80078 8.6635 6.80078 8.00078C6.80078 7.33804 7.33804 6.80078 8.00078 6.80078Z" fill="#0F172A"/>
<path d="M9.20078 12.3992C9.20078 11.7365 8.6635 11.1992 8.00078 11.1992C7.33804 11.1992 6.80078 11.7365 6.80078 12.3992C6.80078 13.0619 7.33804 13.5992 8.00078 13.5992C8.6635 13.5992 9.20078 13.0619 9.20078 12.3992Z" fill="#0F172A"/>
</svg>
