<svg width="16" height="16" viewBox="0 0 16 16" fill="none" xmlns="http://www.w3.org/2000/svg">
<path d="M8.00063 1.33594C4.32066 1.33594 1.33398 4.3226 1.33398 8.0026C1.33398 11.6826 4.32066 14.6692 8.00063 14.6692C11.6806 14.6692 14.6674 11.6826 14.6674 8.0026C14.6674 4.3226 11.6806 1.33594 8.00063 1.33594ZM11.5006 10.6692C11.5006 10.9426 11.274 11.1692 11.0006 11.1692H5.00066C4.72732 11.1692 4.50066 10.9426 4.50066 10.6692C4.50066 10.396 4.72732 10.1692 5.00066 10.1692H10.5006V5.83594H8.83399V8.0026C8.83399 8.27596 8.60735 8.5026 8.33399 8.5026H5.00066C4.72732 8.5026 4.50066 8.27596 4.50066 8.0026C4.50066 7.72927 4.72732 7.5026 5.00066 7.5026H7.83398V5.83594H5.00066C4.72732 5.83594 4.50066 5.60927 4.50066 5.33594C4.50066 5.0626 4.72732 4.83594 5.00066 4.83594H11.0006C11.274 4.83594 11.5006 5.0626 11.5006 5.33594V10.6692Z" fill="white"/>
</svg>
