<svg width="16" height="16" viewBox="0 0 16 16" fill="none" xmlns="http://www.w3.org/2000/svg">
<path d="M10.794 1.33594H5.20732C2.78066 1.33594 1.33398 2.7826 1.33398 5.20927V10.7892C1.33398 13.2226 2.78066 14.6692 5.20732 14.6692H10.7874C13.214 14.6692 14.6606 13.2226 14.6606 10.796V5.20927C14.6674 2.7826 13.2206 1.33594 10.794 1.33594ZM4.31398 6.18927C4.12066 5.99594 4.12066 5.67594 4.31398 5.4826C5.17398 4.6226 6.58066 4.6226 7.44732 5.4826C7.64066 5.67594 7.64066 5.99594 7.44732 6.18927C7.34732 6.28927 7.22066 6.33594 7.09398 6.33594C6.96732 6.33594 6.84066 6.28927 6.74066 6.18927C6.26732 5.71594 5.49398 5.71594 5.02066 6.18927C4.82732 6.38927 4.50732 6.38927 4.31398 6.18927ZM10.4006 12.056H5.60066C5.13398 12.056 4.75398 11.676 4.75398 11.2026C4.75398 9.40924 6.21398 7.94927 8.00735 7.94927C9.80063 7.94927 11.2606 9.40924 11.2606 11.2026C11.254 11.6692 10.8674 12.056 10.4006 12.056ZM11.6874 6.18927C11.494 6.3826 11.174 6.3826 10.9806 6.18927C10.5074 5.71594 9.73399 5.71594 9.26063 6.18927C9.16063 6.28927 9.03399 6.33594 8.90735 6.33594C8.78063 6.33594 8.65399 6.28927 8.55399 6.18927C8.36063 5.99594 8.36063 5.67594 8.55399 5.4826C9.41399 4.6226 10.8206 4.6226 11.6874 5.4826C11.8806 5.6826 11.8806 5.99594 11.6874 6.18927Z" fill="white"/>
</svg>
