<svg width="16" height="16" viewBox="0 0 16 16" fill="none" xmlns="http://www.w3.org/2000/svg">
<path d="M10.794 1.33594H5.20732C2.78066 1.33594 1.33398 2.7826 1.33398 5.20927V10.7892C1.33398 13.2226 2.78066 14.6692 5.20732 14.6692H10.7874C13.214 14.6692 14.6606 13.2226 14.6606 10.796V5.20927C14.6674 2.7826 13.2206 1.33594 10.794 1.33594ZM5.66732 4.25594C6.35398 4.25594 6.92066 4.81594 6.92066 5.50927C6.92066 6.2026 6.36066 6.7626 5.66732 6.7626C4.97398 6.7626 4.41398 6.18927 4.41398 5.5026C4.41398 4.81594 4.98066 4.25594 5.66732 4.25594ZM8.00063 12.7226C6.20732 12.7226 4.74732 11.2626 4.74732 9.46924C4.74732 9.0026 5.12732 8.61596 5.59398 8.61596H10.394C10.8606 8.61596 11.2406 8.99596 11.2406 9.46924C11.254 11.2626 9.79399 12.7226 8.00063 12.7226ZM10.334 6.74927C9.64735 6.74927 9.08063 6.18927 9.08063 5.49594C9.08063 4.8026 9.64063 4.2426 10.334 4.2426C11.0274 4.2426 11.5874 4.8026 11.5874 5.49594C11.5874 6.18927 11.0206 6.74927 10.334 6.74927Z" fill="white"/>
</svg>
