<svg width="16" height="16" viewBox="0 0 16 16" fill="none" xmlns="http://www.w3.org/2000/svg">
<path d="M10.794 1.33594H5.20732C2.78066 1.33594 1.33398 2.7826 1.33398 5.20927V10.7892C1.33398 13.2226 2.78066 14.6692 5.20732 14.6692H10.7874C13.214 14.6692 14.6606 13.2226 14.6606 10.796V5.20927C14.6674 2.7826 13.2206 1.33594 10.794 1.33594ZM4.31398 5.14927C4.50732 4.95594 4.82732 4.95594 5.02066 5.14927C5.49398 5.6226 6.26732 5.6226 6.74066 5.14927C6.93398 4.95594 7.25398 4.95594 7.44732 5.14927C7.64066 5.3426 7.64066 5.6626 7.44732 5.85594C7.01398 6.28927 6.44732 6.5026 5.88066 6.5026C5.31398 6.5026 4.74732 6.28927 4.31398 5.85594C4.12066 5.65594 4.12066 5.3426 4.31398 5.14927ZM8.00063 12.5226C6.20732 12.5226 4.74732 11.0626 4.74732 9.26924C4.74732 8.8026 5.12732 8.41596 5.59398 8.41596H10.394C10.8606 8.41596 11.2406 8.79596 11.2406 9.26924C11.254 11.0626 9.79399 12.5226 8.00063 12.5226ZM11.6874 5.85594C11.254 6.28927 10.6874 6.5026 10.1206 6.5026C9.55399 6.5026 8.98735 6.28927 8.55399 5.85594C8.36063 5.6626 8.36063 5.3426 8.55399 5.14927C8.74735 4.95594 9.06735 4.95594 9.26063 5.14927C9.73399 5.6226 10.5074 5.6226 10.9806 5.14927C11.174 4.95594 11.494 4.95594 11.6874 5.14927C11.8806 5.3426 11.8806 5.65594 11.6874 5.85594Z" fill="white"/>
</svg>
