<svg width="16" height="16" viewBox="0 0 16 16" fill="none" xmlns="http://www.w3.org/2000/svg">
<path d="M9.89937 2.63385V5.16719H8.89937V2.63385C8.89937 2.45385 8.73937 2.36719 8.63265 2.36719C8.59937 2.36719 8.56601 2.37385 8.53265 2.38719L3.24602 4.38053C2.89268 4.51386 2.66602 4.84719 2.66602 5.22719V5.67385C2.05934 6.12719 1.66602 6.85385 1.66602 7.67385V5.22719C1.66602 4.43385 2.15268 3.72719 2.89268 3.44719L8.18601 1.44719C8.33265 1.39385 8.48601 1.36719 8.63265 1.36719C9.29937 1.36719 9.89937 1.90719 9.89937 2.63385Z" fill="white"/>
<path d="M14.3331 9.66922V10.3359C14.3331 10.5159 14.1931 10.6626 14.0065 10.6692H13.0331C12.6798 10.6692 12.3598 10.4092 12.3331 10.0626C12.3131 9.85594 12.3931 9.66258 12.5265 9.52922C12.6465 9.40258 12.8131 9.33594 12.9931 9.33594H13.9998C14.1931 9.34258 14.3331 9.48922 14.3331 9.66922Z" fill="white"/>
<path d="M3.33268 10C2.70602 10 2.12602 10.22 1.66602 10.5866C1.05268 11.0734 0.666016 11.8266 0.666016 12.6666C0.666016 13.1666 0.806017 13.64 1.05268 14.04C1.51268 14.8134 2.35935 15.3334 3.33268 15.3334C4.00602 15.3334 4.61935 15.0866 5.08602 14.6666C5.29268 14.4934 5.47268 14.28 5.61268 14.04C5.85935 13.64 5.99935 13.1666 5.99935 12.6666C5.99935 11.1934 4.80602 10 3.33268 10ZM2.27935 12.3066C2.08602 12.1134 2.08602 11.7934 2.27935 11.6C2.47935 11.4066 2.79268 11.4066 2.99268 11.6L3.33935 11.9534L3.67268 11.6134C3.87268 11.42 4.18602 11.42 4.38602 11.6134C4.57935 11.8134 4.57935 12.1266 4.38602 12.3266L4.04602 12.66L4.39935 13.0066C4.59268 13.2066 4.59268 13.52 4.39935 13.72C4.29935 13.8134 4.17268 13.86 4.04602 13.86C3.91935 13.86 3.79268 13.8134 3.69268 13.72L3.33935 13.3666L2.97268 13.7334C2.87268 13.8334 2.74602 13.88 2.61935 13.88C2.49268 13.88 2.36602 13.8334 2.26602 13.7334C2.07268 13.54 2.07268 13.22 2.26602 13.0266L2.63268 12.66L2.27935 12.3066Z" fill="white"/>
<path d="M12.986 8.63076H13.666C14.0326 8.63076 14.3326 8.33076 14.3326 7.96406V7.67073C14.3326 6.29073 13.206 5.16406 11.826 5.16406H4.17268C3.60602 5.16406 3.08602 5.35073 2.66602 5.67073C2.05934 6.12406 1.66602 6.85073 1.66602 7.67073V8.8574C1.66602 9.11076 1.93268 9.27076 2.17268 9.19076C2.54602 9.06404 2.93934 8.9974 3.33268 8.9974C5.35268 8.9974 6.99934 10.644 6.99934 12.664C6.99934 13.144 6.87268 13.6708 6.67268 14.1374C6.56602 14.3774 6.73268 14.664 6.99268 14.664H11.826C13.206 14.664 14.3326 13.5374 14.3326 12.1574V12.0308C14.3326 11.664 14.0326 11.364 13.666 11.364H13.086C12.446 11.364 11.8326 10.9708 11.666 10.3508C11.5326 9.84404 11.6926 9.35076 12.026 9.03076C12.2726 8.7774 12.6126 8.63076 12.986 8.63076ZM9.33265 8.4974H5.99934C5.72602 8.4974 5.49934 8.27076 5.49934 7.9974C5.49934 7.72406 5.72602 7.4974 5.99934 7.4974H9.33265C9.60601 7.4974 9.83265 7.72406 9.83265 7.9974C9.83265 8.27076 9.60601 8.4974 9.33265 8.4974Z" fill="white"/>
</svg>
