<svg width="16" height="16" viewBox="0 0 16 16" fill="none" xmlns="http://www.w3.org/2000/svg">
<path d="M5.50543 14.1634C5.93674 13.732 6.18451 13.1814 6.24875 12.6124C6.33594 11.8554 6.08357 11.0707 5.50543 10.4926C5.16129 10.1484 4.73915 9.91903 4.29407 9.81351C3.4452 9.59783 2.50457 9.82263 1.83465 10.4926C1.37122 10.956 1.11885 11.5479 1.08673 12.1582C1.06378 12.4197 1.08673 12.6904 1.15556 12.952C1.2611 13.3971 1.49051 13.8192 1.83465 14.1634C2.8487 15.1774 4.49137 15.1774 5.50543 14.1634ZM4.64279 11.8508C4.90892 11.8508 5.12917 12.071 5.12917 12.3372C5.12459 12.6078 4.90892 12.8235 4.6382 12.8281L4.15642 12.8235L4.161 13.287C4.15642 13.5577 3.94075 13.7733 3.67003 13.7779C3.39931 13.7733 3.18366 13.5577 3.17906 13.287L3.18366 12.8235L2.70187 12.8281C2.43115 12.8235 2.2155 12.6078 2.2109 12.3372C2.2155 12.2041 2.27055 12.0848 2.35774 11.9976C2.44491 11.9104 2.56422 11.8554 2.69728 11.8508H3.18366V11.346C3.18366 11.2084 3.23872 11.0891 3.32591 11.0019C3.41308 10.9147 3.53239 10.8596 3.67003 10.8596C3.93617 10.8596 4.15642 11.0799 4.15642 11.346V11.8508H4.64279Z" fill="white"/>
<path d="M10.0628 2.56496V5.03081H9.08943V2.56496C9.08943 2.38975 8.93375 2.30539 8.82991 2.30539C8.79743 2.30539 8.76503 2.31189 8.73263 2.32486L3.58674 4.2651C3.24281 4.39487 3.02219 4.71933 3.02219 5.08921V5.52398C2.43168 5.96523 2.04883 6.6725 2.04883 7.4707V5.08921C2.04883 4.31701 2.52253 3.62917 3.24281 3.35662L8.39511 1.4099C8.53783 1.35799 8.68711 1.33203 8.82991 1.33203C9.47879 1.33203 10.0628 1.85766 10.0628 2.56496Z" fill="white"/>
<path d="M14.3794 9.41042V10.0592C14.3794 10.2345 14.2431 10.3772 14.0614 10.3837H13.114C12.7702 10.3837 12.4586 10.1307 12.4326 9.79322C12.4132 9.59202 12.491 9.40394 12.6209 9.2741C12.7377 9.15082 12.8998 9.08594 13.075 9.08594H14.055C14.2431 9.09242 14.3794 9.23522 14.3794 9.41042Z" fill="white"/>
<path d="M13.0673 8.40162H13.7291C14.0861 8.40162 14.3781 8.10962 14.3781 7.75278V7.46724C14.3781 6.12398 13.2814 5.02734 11.9382 5.02734H4.48872C3.93715 5.02734 3.431 5.20903 3.02219 5.5205C2.43168 5.96176 2.04883 6.66904 2.04883 7.46724V8.62234C2.04883 8.86882 2.3084 9.02458 2.542 8.94674C2.90539 8.82346 3.28824 8.75858 3.67109 8.75858C5.63728 8.75858 7.24007 10.3614 7.24007 12.3275C7.24007 12.7947 7.1168 13.3074 6.92213 13.7616C6.81827 13.9952 6.98053 14.2743 7.2336 14.2743H11.9382C13.2814 14.2743 14.3781 13.1775 14.3781 11.8343V11.7111C14.3781 11.3542 14.0861 11.0622 13.7291 11.0622H13.1646C12.5417 11.0622 11.9446 10.6793 11.7824 10.0759C11.6526 9.58266 11.8084 9.10242 12.1329 8.79098C12.3729 8.54442 12.7038 8.40162 13.0673 8.40162ZM9.51127 8.27186H6.26672C6.00067 8.27186 5.78004 8.05122 5.78004 7.78518C5.78004 7.5191 6.00067 7.2985 6.26672 7.2985H9.51127C9.77735 7.2985 9.99791 7.5191 9.99791 7.78518C9.99791 8.05122 9.77735 8.27186 9.51127 8.27186Z" fill="white"/>
</svg>
