<svg width="16" height="16" viewBox="0 0 16 16" fill="none" xmlns="http://www.w3.org/2000/svg">
<path d="M3.33464 10C2.70797 10 2.12797 10.22 1.66797 10.5866C1.05464 11.0734 0.667969 11.8266 0.667969 12.6666C0.667969 13.1666 0.807966 13.64 1.05464 14.04C1.51464 14.8134 2.3613 15.3334 3.33464 15.3334C4.00797 15.3334 4.6213 15.0866 5.08797 14.6666C5.29464 14.4934 5.47464 14.28 5.61464 14.04C5.8613 13.64 6.0013 13.1666 6.0013 12.6666C6.0013 11.1934 4.80797 10 3.33464 10ZM4.71464 12.38L3.29464 13.6934C3.2013 13.78 3.07464 13.8266 2.95464 13.8266C2.82797 13.8266 2.7013 13.78 2.6013 13.68L1.9413 13.02C1.74797 12.8266 1.74797 12.5066 1.9413 12.3134C2.13464 12.12 2.45464 12.12 2.64797 12.3134L2.96797 12.6334L4.03464 11.6466C4.23464 11.46 4.55464 11.4734 4.7413 11.6734C4.92797 11.8734 4.91464 12.1934 4.71464 12.38Z" fill="white"/>
<path d="M9.90134 2.63385V5.16719H8.90134V2.63385C8.90134 2.45385 8.74135 2.36719 8.63463 2.36719C8.60135 2.36719 8.56799 2.37385 8.53463 2.38719L3.24797 4.38053C2.89464 4.51386 2.66797 4.84719 2.66797 5.22719V5.67385C2.0613 6.12719 1.66797 6.85385 1.66797 7.67385V5.22719C1.66797 4.43385 2.15464 3.72719 2.89464 3.44719L8.18799 1.44719C8.33463 1.39385 8.48799 1.36719 8.63463 1.36719C9.30135 1.36719 9.90134 1.90719 9.90134 2.63385Z" fill="white"/>
<path d="M14.3331 9.66922V10.3359C14.3331 10.5159 14.1931 10.6626 14.0065 10.6692H13.0331C12.6798 10.6692 12.3598 10.4092 12.3331 10.0626C12.3131 9.85594 12.3931 9.66258 12.5265 9.52922C12.6465 9.40258 12.8131 9.33594 12.9931 9.33594H13.9998C14.1931 9.34258 14.3331 9.48922 14.3331 9.66922Z" fill="white"/>
<path d="M12.988 8.63076H13.668C14.0346 8.63076 14.3346 8.33076 14.3346 7.96406V7.67073C14.3346 6.29073 13.208 5.16406 11.828 5.16406H4.17464C3.60797 5.16406 3.08797 5.35073 2.66797 5.67073C2.0613 6.12406 1.66797 6.85073 1.66797 7.67073V8.8574C1.66797 9.11076 1.93464 9.27076 2.17464 9.19076C2.54797 9.06404 2.9413 8.9974 3.33464 8.9974C5.35464 8.9974 7.00132 10.644 7.00132 12.664C7.00132 13.144 6.87465 13.6708 6.67465 14.1374C6.56797 14.3774 6.73465 14.664 6.99465 14.664H11.828C13.208 14.664 14.3346 13.5374 14.3346 12.1574V12.0308C14.3346 11.664 14.0346 11.364 13.668 11.364H13.088C12.448 11.364 11.8346 10.9708 11.668 10.3508C11.5346 9.84404 11.6946 9.35076 12.028 9.03076C12.2746 8.7774 12.6146 8.63076 12.988 8.63076ZM9.33463 8.4974H6.0013C5.72797 8.4974 5.5013 8.27076 5.5013 7.9974C5.5013 7.72406 5.72797 7.4974 6.0013 7.4974H9.33463C9.60799 7.4974 9.83463 7.72406 9.83463 7.9974C9.83463 8.27076 9.60799 8.4974 9.33463 8.4974Z" fill="white"/>
</svg>
