<svg width="16" height="16" viewBox="0 0 16 16" fill="none" xmlns="http://www.w3.org/2000/svg">
<path d="M9.89937 2.63385V5.16719H8.89937V2.63385C8.89937 2.45385 8.73937 2.36719 8.63265 2.36719C8.59937 2.36719 8.56601 2.37385 8.53265 2.38719L3.24602 4.38053C2.89268 4.51386 2.66602 4.84719 2.66602 5.22719V5.67385C2.05934 6.12719 1.66602 6.85385 1.66602 7.67385V5.22719C1.66602 4.43385 2.15268 3.72719 2.89268 3.44719L8.18601 1.44719C8.33265 1.39385 8.48601 1.36719 8.63265 1.36719C9.29937 1.36719 9.89937 1.90719 9.89937 2.63385Z" fill="white"/>
<path d="M14.3331 9.66922V10.3359C14.3331 10.5159 14.1931 10.6626 14.0065 10.6692H13.0331C12.6798 10.6692 12.3598 10.4092 12.3331 10.0626C12.3131 9.85594 12.3931 9.66258 12.5265 9.52922C12.6465 9.40258 12.8131 9.33594 12.9931 9.33594H13.9998C14.1931 9.34258 14.3331 9.48922 14.3331 9.66922Z" fill="white"/>
<path d="M12.986 8.63076H13.666C14.0326 8.63076 14.3326 8.33076 14.3326 7.96406V7.67073C14.3326 6.29073 13.206 5.16406 11.826 5.16406H4.17268C3.60602 5.16406 3.08602 5.35073 2.66602 5.67073C2.05934 6.12406 1.66602 6.85073 1.66602 7.67073V12.1574C1.66602 13.5374 2.79268 14.664 4.17268 14.664H11.826C13.206 14.664 14.3326 13.5374 14.3326 12.1574V12.0308C14.3326 11.664 14.0326 11.364 13.666 11.364H13.086C12.446 11.364 11.8326 10.9708 11.666 10.3508C11.526 9.84404 11.6926 9.3574 12.026 9.03076C12.2726 8.7774 12.6126 8.63076 12.986 8.63076ZM9.33265 8.4974H4.66602C4.39268 8.4974 4.16602 8.27076 4.16602 7.9974C4.16602 7.72406 4.39268 7.4974 4.66602 7.4974H9.33265C9.60601 7.4974 9.83265 7.72406 9.83265 7.9974C9.83265 8.27076 9.60601 8.4974 9.33265 8.4974Z" fill="white"/>
</svg>
