<svg width="16" height="16" viewBox="0 0 16 16" fill="none" xmlns="http://www.w3.org/2000/svg">
<path d="M3.33268 10C2.65268 10 2.02602 10.26 1.55268 10.6866C1.44602 10.78 1.34602 10.88 1.25935 10.9934C0.886017 11.4534 0.666016 12.0334 0.666016 12.6666C0.666016 14.14 1.86602 15.3334 3.33268 15.3334C3.97268 15.3334 4.55268 15.1066 5.01268 14.74C5.38602 14.4266 5.67935 14.02 5.83935 13.5534C5.94602 13.28 5.99935 12.98 5.99935 12.6666C5.99935 11.2 4.80602 10 3.33268 10ZM4.93268 12.1534C4.93268 12.34 4.78602 12.48 4.60602 12.48C4.42602 12.48 4.27935 12.34 4.27935 12.1534V12.0866C4.27935 12.0134 4.22602 11.9534 4.15268 11.9534H2.81935C2.88602 12.08 2.87268 12.2334 2.76602 12.34C2.70602 12.4 2.62602 12.4334 2.53268 12.4334C2.45268 12.4334 2.36602 12.4 2.30602 12.34L1.82602 11.86C1.79935 11.8334 1.77268 11.7934 1.75268 11.7534C1.72602 11.6734 1.72602 11.5866 1.75268 11.5066C1.77268 11.4734 1.79268 11.4266 1.82602 11.4L2.30602 10.9266C2.43268 10.7934 2.63935 10.7934 2.75935 10.9266C2.86602 11.0266 2.87935 11.1866 2.81268 11.3066H4.15268C4.57935 11.3066 4.92602 11.6534 4.92602 12.0866V12.1534H4.93268ZM4.13268 14.5066C4.04602 14.5066 3.95935 14.48 3.89935 14.4134C3.79268 14.3134 3.77935 14.1534 3.84602 14.0334H2.50602C2.07935 14.0334 1.73268 13.6866 1.73268 13.2534V13.1866C1.73268 13 1.87935 12.86 2.05935 12.86C2.23935 12.86 2.38602 13 2.38602 13.1866V13.2534C2.38602 13.3266 2.43935 13.3866 2.51268 13.3866H3.85268C3.78602 13.26 3.79935 13.1066 3.90602 13C4.03268 12.8734 4.23935 12.8734 4.35935 13L4.83935 13.48C4.86602 13.5066 4.89268 13.5466 4.91268 13.5866C4.93935 13.6666 4.93935 13.7534 4.91268 13.8334C4.89268 13.8666 4.86602 13.9066 4.83935 13.9334L4.35935 14.4066C4.29935 14.4734 4.21268 14.5066 4.13268 14.5066Z" fill="white"/>
<path d="M9.89937 2.63385V5.16719H8.89937V2.63385C8.89937 2.45385 8.73937 2.36719 8.63265 2.36719C8.59937 2.36719 8.56601 2.37385 8.53265 2.38719L3.24602 4.38052C2.89268 4.51385 2.66602 4.84719 2.66602 5.22719V5.67385C2.05934 6.12719 1.66602 6.85387 1.66602 7.67387V5.22719C1.66602 4.43385 2.15268 3.72719 2.89268 3.44719L8.18601 1.44719C8.33265 1.39385 8.48601 1.36719 8.63265 1.36719C9.29937 1.36719 9.89937 1.90719 9.89937 2.63385Z" fill="white"/>
<path d="M14.3331 9.66922V10.3359C14.3331 10.5159 14.1931 10.6626 14.0065 10.6692H13.0331C12.6798 10.6692 12.3598 10.4092 12.3331 10.0626C12.3131 9.85594 12.3931 9.66258 12.5265 9.52922C12.6465 9.40258 12.8131 9.33594 12.9931 9.33594H13.9998C14.1931 9.34258 14.3331 9.48922 14.3331 9.66922Z" fill="white"/>
<path d="M12.986 8.63076H13.666C14.0326 8.63076 14.3326 8.33076 14.3326 7.96406V7.67073C14.3326 6.29073 13.206 5.16406 11.826 5.16406H4.17268C3.60602 5.16406 3.08602 5.35073 2.66602 5.67073C2.05934 6.12406 1.66602 6.85073 1.66602 7.67073V8.8574C1.66602 9.11076 1.93268 9.27076 2.17268 9.19076C2.54602 9.06404 2.93934 8.9974 3.33268 8.9974C5.35268 8.9974 6.99934 10.644 6.99934 12.664C6.99934 13.144 6.87268 13.6708 6.67268 14.1374C6.56602 14.3774 6.73268 14.664 6.99268 14.664H11.826C13.206 14.664 14.3326 13.5374 14.3326 12.1574V12.0308C14.3326 11.664 14.0326 11.364 13.666 11.364H13.086C12.446 11.364 11.8326 10.9708 11.666 10.3508C11.5326 9.84404 11.6926 9.35076 12.026 9.03076C12.2726 8.7774 12.6126 8.63076 12.986 8.63076ZM9.33265 8.4974H5.99934C5.72602 8.4974 5.49934 8.27076 5.49934 7.9974C5.49934 7.72406 5.72602 7.4974 5.99934 7.4974H9.33265C9.60601 7.4974 9.83265 7.72406 9.83265 7.9974C9.83265 8.27076 9.60601 8.4974 9.33265 8.4974Z" fill="white"/>
</svg>
