<svg width="16" height="16" viewBox="0 0 16 16" fill="none" xmlns="http://www.w3.org/2000/svg">
<path d="M8.00063 1.33594C4.32066 1.33594 1.33398 4.3226 1.33398 8.0026C1.33398 11.6826 4.32066 14.6692 8.00063 14.6692C11.6806 14.6692 14.6674 11.6826 14.6674 8.0026C14.6674 4.3226 11.6806 1.33594 8.00063 1.33594ZM10.5006 7.5026C10.774 7.5026 11.0006 7.72927 11.0006 8.0026C11.0006 8.27596 10.774 8.5026 10.5006 8.5026H5.66732V8.66924C5.66732 9.49596 6.34066 10.1692 7.16732 10.1692H10.5006C10.774 10.1692 11.0006 10.396 11.0006 10.6692C11.0006 10.9426 10.774 11.1692 10.5006 11.1692H7.16732C5.78732 11.1692 4.66732 10.0492 4.66732 8.66924V7.33594C4.66732 5.95594 5.78732 4.83594 7.16732 4.83594H10.5006C10.774 4.83594 11.0006 5.0626 11.0006 5.33594C11.0006 5.60927 10.774 5.83594 10.5006 5.83594H7.16732C6.34066 5.83594 5.66732 6.50927 5.66732 7.33594V7.5026H10.5006Z" fill="white"/>
</svg>
