<svg width="16" height="16" viewBox="0 0 16 16" fill="none" xmlns="http://www.w3.org/2000/svg">
<path fill-rule="evenodd" clip-rule="evenodd" d="M1.68524 5.15642C1.14318 5.42744 0.800781 5.98147 0.800781 6.5875V12.7986C0.800781 13.6823 1.51713 14.3986 2.40078 14.3986H13.6008C14.4845 14.3986 15.2008 13.6823 15.2008 12.7986V6.5875C15.2008 5.98147 14.8584 5.42744 14.3163 5.15642L8.7163 2.35642C8.2659 2.13119 7.73569 2.13119 7.28524 2.35642L1.68524 5.15642ZM2.86911 8.36199C2.57273 8.21383 2.21232 8.33391 2.06413 8.63031C1.91593 8.92671 2.03607 9.28711 2.33245 9.43527L7.01691 11.7775C7.63627 12.0872 8.36526 12.0872 8.98462 11.7775L13.6666 9.43655C13.963 9.28839 14.0831 8.92799 13.9349 8.63159C13.7868 8.33519 13.4263 8.21503 13.13 8.36327L8.44798 10.7042C8.16646 10.845 7.83509 10.845 7.55357 10.7042L2.86911 8.36199Z" fill="#0F172A"/>
</svg>
