<svg width="16" height="16" viewBox="0 0 16 16" fill="none" xmlns="http://www.w3.org/2000/svg">
<path d="M6.1874 13.5383C6.30073 13.8583 5.95406 14.1516 5.66072 13.9783L3.56073 12.785C3.18073 12.565 2.9474 12.0383 3.0274 11.6116L3.65407 8.49826C3.7274 8.13162 4.23407 8.09826 4.36074 8.44498L6.1874 13.5383Z" fill="white"/>
<path d="M12.4405 12.7859L10.3338 13.9859C10.0405 14.1525 9.69382 13.8659 9.80718 13.5459L11.6405 8.40588C11.7672 8.05924 12.2738 8.09252 12.3472 8.45924L12.9805 11.6125C13.0538 12.0392 12.8205 12.5659 12.4405 12.7859Z" fill="white"/>
<path d="M11.3866 4.87761C11.5466 5.07761 11.5934 5.34427 11.5066 5.58427L8.34664 14.4176C8.23336 14.7443 7.77334 14.7443 7.66 14.4176L4.49999 5.59094C4.41333 5.35094 4.45999 5.08427 4.61999 4.88427L7.16667 1.75093C7.62667 1.19761 8.38664 1.19761 8.85336 1.75093L11.3866 4.87761Z" fill="white"/>
</svg>
