<svg width="16" height="16" viewBox="0 0 16 16" fill="none" xmlns="http://www.w3.org/2000/svg">
<path d="M14.0195 14.6641H9.32617C9.04617 14.6641 8.82617 14.4374 8.82617 14.1641C8.82617 13.8908 9.05281 13.6641 9.32617 13.6641H14.0195C14.2995 13.6641 14.5195 13.8908 14.5195 14.1641C14.5195 14.4374 14.2995 14.6641 14.0195 14.6641Z" fill="white"/>
<path d="M9.09265 11.1236C9.35265 11.3836 9.35265 11.8036 9.09265 12.0704L7.10602 14.057C6.36602 14.797 5.17935 14.837 4.39268 14.177C4.34602 14.137 4.30602 14.097 4.26602 14.057L3.68602 13.477L2.49268 12.2836L1.91935 11.7104C1.87268 11.6636 1.83268 11.617 1.79268 11.5704C1.13935 10.7836 1.18602 9.61036 1.91935 8.877L3.90602 6.89032C4.16602 6.63031 4.58602 6.63031 4.84602 6.89032L9.09265 11.1236Z" fill="white"/>
<path d="M14.0802 7.09431L10.747 10.4276C10.487 10.6876 10.067 10.6876 9.80695 10.4276L5.56023 6.19427C5.30023 5.93427 5.30023 5.51427 5.56023 5.2476L8.89359 1.92094C9.67359 1.14094 10.9536 1.14094 11.7336 1.92094L14.0802 4.26094C14.8602 5.04094 14.8602 6.31427 14.0802 7.09431Z" fill="white"/>
</svg>
