<svg width="16" height="16" viewBox="0 0 16 16" fill="none" xmlns="http://www.w3.org/2000/svg">
<path d="M10.794 1.33594H5.20732C2.78066 1.33594 1.33398 2.7826 1.33398 5.20927V10.7892C1.33398 13.2226 2.78066 14.6692 5.20732 14.6692H10.7874C13.214 14.6692 14.6606 13.2226 14.6606 10.796V5.20927C14.6674 2.7826 13.2206 1.33594 10.794 1.33594ZM8.34735 10.5026L7.50732 11.3426C7.08066 11.776 6.38066 11.776 5.94732 11.3426L4.66066 10.056C4.22732 9.6226 4.23398 8.92924 4.66066 8.49596L5.50732 7.65594C5.64066 7.52927 5.84732 7.52927 5.98066 7.65594L8.35399 10.0292C8.48063 10.1626 8.48063 10.376 8.34735 10.5026ZM11.3406 7.50927L9.28735 9.5626C9.15399 9.69596 8.94735 9.69596 8.81399 9.5626L6.44066 7.18927C6.30732 7.05594 6.30732 6.84927 6.44066 6.71594L8.49399 4.6626C8.92063 4.22927 9.62063 4.22927 10.054 4.6626L11.3406 5.94927C11.774 6.3826 11.774 7.0826 11.3406 7.50927Z" fill="white"/>
</svg>
