<svg width="16" height="16" viewBox="0 0 16 16" fill="none" xmlns="http://www.w3.org/2000/svg">
<path d="M5.84739 9.61881L6.92072 10.0988C7.60738 10.4054 8.39407 10.4054 9.08735 10.0988L10.1607 9.61881C11.1207 9.19209 12.0074 10.3521 11.3407 11.1654L9.03407 13.9854C8.46735 14.6788 7.54072 14.6788 6.96738 13.9854L4.66739 11.1654C3.99406 10.3521 4.88073 9.19209 5.84739 9.61881Z" fill="white"/>
<path d="M5.71286 7.78124C5.51286 7.9279 5.53953 8.23456 5.76619 8.34792L7.33287 9.12792C7.69954 9.31456 8.29288 9.31456 8.65288 9.12792L10.2195 8.34792C10.4395 8.23456 10.4662 7.93457 10.2729 7.78124L8.19952 6.22125C8.07952 6.13458 7.91954 6.13458 7.79954 6.22125L5.71286 7.78124Z" fill="white"/>
<path d="M11.9202 5.49282L9.14023 2.02616C9.08687 1.95949 9.02687 1.89949 8.96687 1.83949C8.79351 1.67282 8.54688 1.82616 8.54688 2.06616V4.93282C8.54688 5.03949 8.59351 5.13949 8.68023 5.19949L11.4469 7.27947L11.5669 7.36613C11.6869 7.4528 11.8535 7.4528 11.9535 7.34613C12.4202 6.83947 12.4135 6.10616 11.9202 5.49282Z" fill="white"/>
<path d="M4.07389 5.55128L6.84058 2.03128C6.89392 1.96461 6.94725 1.90461 7.00725 1.84461C7.18058 1.67794 7.42725 1.82461 7.42725 2.07128V4.98461C7.42725 5.09128 7.38058 5.18461 7.29392 5.25128L4.54055 7.3646L4.42721 7.45126C4.30721 7.53793 4.14056 7.53793 4.03389 7.4246C3.58056 6.91126 3.58722 6.17794 4.07389 5.55128Z" fill="white"/>
</svg>
