<svg width="16" height="16" viewBox="0 0 16 16" fill="none" xmlns="http://www.w3.org/2000/svg">
<path d="M4.60008 6.06479L7.78006 4.65145C7.92006 4.59145 8.08008 4.59145 8.21344 4.65145L11.3934 6.06479C11.6734 6.19145 11.9334 5.85145 11.7401 5.61145L8.40672 1.53812C8.18008 1.25812 7.80673 1.25812 7.58006 1.53812L4.24673 5.61145C4.06006 5.85145 4.32008 6.19145 4.60008 6.06479Z" fill="white"/>
<path d="M4.59907 9.93368L7.78569 11.347C7.92569 11.407 8.08578 11.407 8.21906 11.347L11.4057 9.93368C11.6857 9.80696 11.9457 10.147 11.7523 10.387L8.41906 14.4603C8.19234 14.7403 7.81909 14.7403 7.59242 14.4603L4.25906 10.387C4.05906 10.147 4.31241 9.80696 4.59907 9.93368Z" fill="white"/>
<path d="M7.85242 6.32406L5.09906 7.6974C4.8524 7.8174 4.8524 8.17076 5.09906 8.29076L7.85242 9.66404C7.94576 9.71076 8.05906 9.71076 8.15234 9.66404L10.9057 8.29076C11.1523 8.17076 11.1523 7.8174 10.9057 7.6974L8.15234 6.32406C8.05234 6.2774 7.94576 6.2774 7.85242 6.32406Z" fill="white"/>
</svg>
