<svg width="16" height="16" viewBox="0 0 16 16" fill="none" xmlns="http://www.w3.org/2000/svg">
<path fill-rule="evenodd" clip-rule="evenodd" d="M14.3996 8.00156C14.3996 11.5362 11.5342 14.4016 7.99961 14.4016C4.46499 14.4016 1.59961 11.5362 1.59961 8.00156C1.59961 4.46694 4.46499 1.60156 7.99961 1.60156C11.5342 1.60156 14.3996 4.46694 14.3996 8.00156ZM7.99961 4.00156C8.33097 4.00156 8.59961 4.27019 8.59961 4.60156V8.20156C8.59961 8.53292 8.33097 8.80156 7.99961 8.80156C7.66824 8.80156 7.39961 8.53292 7.39961 8.20156V4.60156C7.39961 4.27019 7.66824 4.00156 7.99961 4.00156ZM7.99961 12.0016C8.44145 12.0016 8.79961 11.6434 8.79961 11.2016C8.79961 10.7597 8.44145 10.4016 7.99961 10.4016C7.55778 10.4016 7.19961 10.7597 7.19961 11.2016C7.19961 11.6434 7.55778 12.0016 7.99961 12.0016Z" fill="#0F172A"/>
</svg>
