<svg width="16" height="16" viewBox="0 0 16 16" fill="none" xmlns="http://www.w3.org/2000/svg">
<path fill-rule="evenodd" clip-rule="evenodd" d="M6.78682 1.99687C7.32568 1.06354 8.67282 1.06354 9.2117 1.99688L14.2347 10.6969C14.7735 11.6302 14.0999 12.7969 13.0222 12.7969H2.97631C1.89859 12.7969 1.22501 11.6302 1.76387 10.6969L6.78682 1.99687ZM7.99922 4.00088C8.33058 4.00088 8.59922 4.26951 8.59922 4.60088V7.40088C8.59922 7.73225 8.33058 8.00088 7.99922 8.00088C7.66785 8.00088 7.39922 7.73225 7.39922 7.40088V4.60088C7.39922 4.26951 7.66785 4.00088 7.99922 4.00088ZM7.99922 11.2009C8.44106 11.2009 8.79922 10.8427 8.79922 10.4009C8.79922 9.95904 8.44106 9.60088 7.99922 9.60088C7.55739 9.60088 7.19922 9.95904 7.19922 10.4009C7.19922 10.8427 7.55739 11.2009 7.99922 11.2009Z" fill="#0F172A"/>
</svg>
