<svg width="16" height="16" viewBox="0 0 16 16" fill="none" xmlns="http://www.w3.org/2000/svg">
<path d="M8.00063 1.33594C4.32066 1.33594 1.33398 4.3226 1.33398 8.0026C1.33398 11.6826 4.32066 14.6692 8.00063 14.6692C11.6806 14.6692 14.6674 11.6826 14.6674 8.0026C14.6674 4.3226 11.6806 1.33594 8.00063 1.33594ZM11.5006 8.2226C11.5006 8.49596 11.274 8.7226 11.0006 8.7226C10.7274 8.7226 10.5006 8.49596 10.5006 8.2226V6.20927L5.35398 11.356C5.25398 11.456 5.12732 11.5026 5.00066 11.5026C4.87398 11.5026 4.74732 11.456 4.64732 11.356C4.45398 11.1626 4.45398 10.8426 4.64732 10.6492L9.79399 5.5026H7.78066C7.50732 5.5026 7.28066 5.27594 7.28066 5.0026C7.28066 4.72927 7.50732 4.5026 7.78066 4.5026H11.0006C11.274 4.5026 11.5006 4.72927 11.5006 5.0026V8.2226Z" fill="white"/>
</svg>
