<svg width="16" height="16" viewBox="0 0 16 16" fill="none" xmlns="http://www.w3.org/2000/svg">
<path d="M11.2006 6H8.50063V10.1666C8.50063 10.44 8.27399 10.6666 8.00063 10.6666C7.72732 10.6666 7.50066 10.44 7.50066 10.1666V6H4.80066C2.66732 6 1.33398 7.33334 1.33398 9.46664V11.1934C1.33398 13.3334 2.66732 14.6666 4.80066 14.6666H11.194C13.3274 14.6666 14.6606 13.3334 14.6606 11.2V9.46664C14.6674 7.33334 13.334 6 11.2006 6Z" fill="white"/>
<path d="M8.49921 3.04094L9.87921 4.42094C9.97921 4.52094 10.1059 4.5676 10.2326 4.5676C10.3592 4.5676 10.4859 4.52094 10.5859 4.42094C10.7792 4.2276 10.7792 3.9076 10.5859 3.71428L8.35257 1.48094C8.15921 1.2876 7.83922 1.2876 7.64588 1.48094L5.41258 3.71428C5.21924 3.9076 5.21924 4.2276 5.41258 4.42094C5.60592 4.61428 5.92592 4.61428 6.11924 4.42094L7.49922 3.04094V6.00094H8.49921V3.04094Z" fill="white"/>
</svg>
