<svg width="16" height="16" viewBox="0 0 16 16" fill="none" xmlns="http://www.w3.org/2000/svg">
<path d="M14.094 6.60156H8.50063V10.2549C8.50063 10.5282 8.27399 10.7549 8.00063 10.7549C7.72732 10.7549 7.50066 10.5282 7.50066 10.2549V6.60156H1.90732C1.58732 6.60156 1.33398 6.85491 1.33398 7.17491C1.33398 11.1016 4.07398 13.8416 8.00063 13.8416C11.9274 13.8416 14.6674 11.1016 14.6674 7.17491C14.6674 6.85491 14.414 6.60156 14.094 6.60156Z" fill="white"/>
<path d="M8.49961 3.86906L9.53961 4.90907C9.73297 5.10239 10.053 5.10239 10.2462 4.90907C10.4396 4.71573 10.4396 4.39573 10.2462 4.20239L8.34625 2.30906C8.15297 2.11573 7.83295 2.11573 7.63962 2.30906L5.74627 4.20906C5.65295 4.30906 5.59961 4.43573 5.59961 4.56239C5.59961 4.68906 5.64627 4.81573 5.74627 4.91573C5.93961 5.10906 6.25961 5.10906 6.45295 4.91573L7.49295 3.87573V6.60239H8.49297V3.86906H8.49961Z" fill="white"/>
</svg>
