<svg width="16" height="16" viewBox="0 0 16 16" fill="none" xmlns="http://www.w3.org/2000/svg">
<path d="M11.3326 1.33594H5.33268C3.85934 1.33594 2.66602 2.52927 2.66602 4.0026V8.83596C2.66602 9.2026 2.96602 9.5026 3.33268 9.5026H13.3326C13.6994 9.5026 13.9994 9.2026 13.9994 8.83596V4.0026C13.9994 2.52927 12.806 1.33594 11.3326 1.33594ZM5.33268 8.5026H4.66602C4.39268 8.5026 4.16602 8.27596 4.16602 8.0026C4.16602 7.72927 4.39268 7.5026 4.66602 7.5026H5.33268C5.60602 7.5026 5.83268 7.72927 5.83268 8.0026C5.83268 8.27596 5.60602 8.5026 5.33268 8.5026ZM5.33268 6.83594H4.66602C4.39268 6.83594 4.16602 6.60927 4.16602 6.33594C4.16602 6.0626 4.39268 5.83594 4.66602 5.83594H5.33268C5.60602 5.83594 5.83268 6.0626 5.83268 6.33594C5.83268 6.60927 5.60602 6.83594 5.33268 6.83594ZM5.33268 5.16927H4.66602C4.39268 5.16927 4.16602 4.9426 4.16602 4.66927C4.16602 4.39594 4.39268 4.16927 4.66602 4.16927H5.33268C5.60602 4.16927 5.83268 4.39594 5.83268 4.66927C5.83268 4.9426 5.60602 5.16927 5.33268 5.16927Z" fill="white"/>
<path d="M2.66602 11.1666V12C2.66602 13.4734 3.85934 14.6666 5.33268 14.6666H11.3326C12.806 14.6666 13.9994 13.4734 13.9994 12V11.1666C13.9994 10.8 13.6994 10.5 13.3326 10.5H3.33268C2.96602 10.5 2.66602 10.8 2.66602 11.1666ZM11.806 12.9734C11.6794 13.0934 11.506 13.1666 11.3326 13.1666C11.1594 13.1666 10.986 13.0934 10.8594 12.9734C10.7394 12.8466 10.666 12.6734 10.666 12.5C10.666 12.3266 10.7394 12.1534 10.8594 12.0266C11.106 11.78 11.5526 11.78 11.806 12.0266C11.926 12.1534 11.9994 12.3266 11.9994 12.5C11.9994 12.6734 11.926 12.8466 11.806 12.9734Z" fill="white"/>
</svg>
