<svg width="16" height="16" viewBox="0 0 16 16" fill="none" xmlns="http://www.w3.org/2000/svg">
<g clip-path="url(#clip0_13_13730)">
<path fill-rule="evenodd" clip-rule="evenodd" d="M9.68062 2.93413C9.97974 1.70958 11.0841 0.800781 12.4008 0.800781C12.4125 0.80078 12.4241 0.800853 12.4358 0.800997C12.7466 0.804805 13.0453 0.859269 13.3238 0.956501C13.7099 1.09086 14.0725 1.31222 14.3811 1.62081C15.1144 2.35412 15.3552 3.39265 15.1062 4.32497C14.9833 4.78541 14.741 5.22061 14.3811 5.5806C14.1374 5.82426 13.8593 6.014 13.5622 6.14929C13.4108 6.21843 13.2521 6.27446 13.0876 6.31593L12.8008 6.39278V8.00076C12.8008 8.1599 12.7376 8.31254 12.625 8.42502L12.425 8.62502C12.1907 8.85934 11.8109 8.85934 11.5765 8.62502L10.9008 7.94929L5.77652 13.0736C5.43895 13.4111 4.98111 13.6008 4.50373 13.6008H4.09784C3.93871 13.6008 3.78609 13.664 3.67357 13.7765L2.42505 15.025C2.19073 15.2593 1.81083 15.2593 1.57652 15.025L0.976517 14.425C0.742203 14.1907 0.742203 13.8108 0.976517 13.5765L2.22504 12.328C2.33756 12.2154 2.40078 12.0629 2.40078 11.9037V11.4978C2.40078 11.0205 2.59042 10.5626 2.92799 10.225L8.05222 5.10076L7.37652 4.42503C7.14221 4.19071 7.14221 3.81081 7.37652 3.5765L7.57652 3.3765C7.68904 3.26397 7.84165 3.20077 8.00078 3.20077H9.60918L9.68062 2.93413ZM3.77652 11.0736L8.90078 5.94929L10.0522 7.10076L4.92799 12.225C4.81547 12.3376 4.66285 12.4008 4.50373 12.4008H4.09784C3.89147 12.4008 3.68876 12.4362 3.49784 12.5037C3.56534 12.3128 3.60078 12.1101 3.60078 11.9037V11.4978C3.60078 11.3387 3.664 11.1861 3.77652 11.0736Z" fill="#0F172A"/>
</g>
<defs>
<clipPath id="clip0_13_13730">
<rect width="16" height="16" fill="white"/>
</clipPath>
</defs>
</svg>
