<svg width="16" height="16" viewBox="0 0 16 16" fill="none" xmlns="http://www.w3.org/2000/svg">
<path fill-rule="evenodd" clip-rule="evenodd" d="M2.62387 1.7773C2.38956 1.54298 2.00966 1.54298 1.77534 1.7773C1.54103 2.01161 1.54103 2.39151 1.77534 2.62582L13.3754 14.2258C13.6097 14.4601 13.9895 14.4601 14.2238 14.2258C14.4582 13.9915 14.4582 13.6116 14.2238 13.3773L12.8278 11.9812C14.0047 11.0891 14.9272 9.87876 15.4671 8.47828C15.5847 8.17308 15.5849 7.83458 15.4674 7.52926C14.3132 4.52997 11.4044 2.40156 7.99848 2.40156C6.62526 2.40156 5.33286 2.74755 4.20369 3.35711L2.62387 1.7773ZM6.20116 5.35458L7.07454 6.22797C7.35122 6.08334 7.66594 6.00156 7.99977 6.00156C9.10433 6.00156 9.99977 6.89699 9.99977 8.00156C9.99977 8.3354 9.91801 8.65012 9.77337 8.92676L10.6469 9.80028C10.9959 9.28772 11.1999 8.66844 11.1999 8.00156C11.1999 6.23425 9.76721 4.80156 7.99993 4.80156C7.33301 4.80156 6.71375 5.00557 6.20116 5.35458Z" fill="#0F172A"/>
<path d="M8.59872 11.1448L10.6169 13.163C9.79696 13.4466 8.91664 13.6007 8.00032 13.6007C4.59438 13.6007 1.68558 11.4723 0.531404 8.47297C0.413914 8.16761 0.414014 7.82916 0.531688 7.52392C0.924824 6.50411 1.52086 5.58511 2.27033 4.81641L4.85616 7.40224C4.81949 7.59609 4.8003 7.79613 4.8003 8.00065C4.8003 9.76793 6.23298 11.2007 8.00032 11.2007C8.2048 11.2007 8.40488 11.1815 8.59872 11.1448Z" fill="#0F172A"/>
</svg>
