<svg width="16" height="16" viewBox="0 0 16 16" fill="none" xmlns="http://www.w3.org/2000/svg">
<path d="M8 10C9.10456 10 10 9.10456 10 8C10 6.89543 9.10456 6 8 6C6.89543 6 6 6.89543 6 8C6 9.10456 6.89543 10 8 10Z" fill="#0F172A"/>
<path fill-rule="evenodd" clip-rule="evenodd" d="M0.531404 8.47076C0.413914 8.1654 0.414014 7.82694 0.531688 7.5217C1.68702 4.52474 4.59464 2.39844 7.99887 2.39844C11.4048 2.39844 14.3136 4.52685 15.4678 7.52613C15.5853 7.83145 15.5851 8.16996 15.4675 8.47516C14.3122 11.4721 11.4046 13.5984 8.00032 13.5984C4.59438 13.5984 1.68558 11.47 0.531404 8.47076ZM11.2003 7.99844C11.2003 9.76572 9.7676 11.1984 8.00032 11.1984C6.23298 11.1984 4.8003 9.76572 4.8003 7.99844C4.8003 6.23113 6.23298 4.79844 8.00032 4.79844C9.7676 4.79844 11.2003 6.23113 11.2003 7.99844Z" fill="#0F172A"/>
</svg>
