<svg width="16" height="16" viewBox="0 0 16 16" fill="none" xmlns="http://www.w3.org/2000/svg">
<path d="M14.6674 10.796C14.6674 13.2226 13.2206 14.6692 10.794 14.6692H10.0006C9.63399 14.6692 9.33399 14.3692 9.33399 14.0026V10.156C9.33399 9.97596 9.48063 9.8226 9.66063 9.8226L10.834 9.8026C10.9274 9.79596 11.0074 9.72924 11.0274 9.63596L11.2606 8.3626C11.2806 8.2426 11.1874 8.12924 11.0606 8.12924L9.64063 8.14924C9.45399 8.14924 9.30735 8.0026 9.30063 7.8226L9.27399 6.18927C9.27399 6.0826 9.36063 5.98927 9.47399 5.98927L11.074 5.9626C11.1874 5.9626 11.274 5.87595 11.274 5.76261L11.2474 4.16259C11.2474 4.04927 11.1606 3.9626 11.0474 3.9626L9.24735 3.98927C8.14063 4.00927 7.26066 4.91594 7.28066 6.0226L7.31398 7.85594C7.32066 8.0426 7.17398 8.18924 6.98732 8.19596L6.18732 8.20924C6.07398 8.20924 5.98733 8.29596 5.98733 8.40924L6.00733 9.67596C6.00733 9.78924 6.09398 9.87596 6.20732 9.87596L7.00732 9.8626C7.19398 9.8626 7.34066 10.0092 7.34732 10.1892L7.40732 13.9892C7.41398 14.3626 7.11398 14.6692 6.74066 14.6692H5.20732C2.78066 14.6692 1.33398 13.2226 1.33398 10.7892V5.20927C1.33398 2.7826 2.78066 1.33594 5.20732 1.33594H10.794C13.2206 1.33594 14.6674 2.7826 14.6674 5.20927V10.796Z" fill="white"/>
</svg>
