<svg width="16" height="16" viewBox="0 0 16 16" fill="none" xmlns="http://www.w3.org/2000/svg">
<path fill-rule="evenodd" clip-rule="evenodd" d="M7.99961 14.4016C11.5342 14.4016 14.3996 11.5362 14.3996 8.00156C14.3996 4.46694 11.5342 1.60156 7.99961 1.60156C4.46499 1.60156 1.59961 4.46694 1.59961 8.00156C1.59961 11.5362 4.46499 14.4016 7.99961 14.4016ZM5.17119 11.6216C5.4055 11.856 5.78539 11.856 6.01971 11.6216C7.11318 10.5282 8.88601 10.5282 9.97953 11.6216C10.2138 11.856 10.5937 11.856 10.828 11.6216C11.0623 11.3874 11.0623 11.0075 10.828 10.7732C9.26593 9.21108 6.73328 9.21108 5.17119 10.7732C4.93687 11.0075 4.93687 11.3874 5.17119 11.6216ZM7.19961 6.80156C7.19961 7.46431 6.84143 8.00156 6.39961 8.00156C5.95779 8.00156 5.59961 7.46431 5.59961 6.80156C5.59961 6.13882 5.95779 5.60156 6.39961 5.60156C6.84143 5.60156 7.19961 6.13882 7.19961 6.80156ZM9.59961 8.00156C10.0414 8.00156 10.3996 7.46431 10.3996 6.80156C10.3996 6.13882 10.0414 5.60156 9.59961 5.60156C9.15777 5.60156 8.79961 6.13882 8.79961 6.80156C8.79961 7.46431 9.15777 8.00156 9.59961 8.00156Z" fill="#0F172A"/>
</svg>
