<svg width="16" height="16" viewBox="0 0 16 16" fill="none" xmlns="http://www.w3.org/2000/svg">
<path fill-rule="evenodd" clip-rule="evenodd" d="M7.99961 14.4016C11.5342 14.4016 14.3996 11.5362 14.3996 8.00156C14.3996 4.46694 11.5342 1.60156 7.99961 1.60156C4.46499 1.60156 1.59961 4.46694 1.59961 8.00156C1.59961 11.5362 4.46499 14.4016 7.99961 14.4016ZM10.828 10.83C11.0623 10.5956 11.0623 10.2158 10.828 9.98148C10.5937 9.74716 10.2138 9.74716 9.97953 9.98148C8.88601 11.0749 7.11318 11.0749 6.01971 9.98148C5.78539 9.74716 5.4055 9.74716 5.17119 9.98148C4.93687 10.2158 4.93687 10.5956 5.17119 10.83C6.73328 12.392 9.26593 12.392 10.828 10.83ZM7.19961 6.80156C7.19961 7.46431 6.84143 8.00156 6.39961 8.00156C5.95779 8.00156 5.59961 7.46431 5.59961 6.80156C5.59961 6.13882 5.95779 5.60156 6.39961 5.60156C6.84143 5.60156 7.19961 6.13882 7.19961 6.80156ZM9.59961 8.00156C10.0414 8.00156 10.3996 7.46431 10.3996 6.80156C10.3996 6.13882 10.0414 5.60156 9.59961 5.60156C9.15777 5.60156 8.79961 6.13882 8.79961 6.80156C8.79961 7.46431 9.15777 8.00156 9.59961 8.00156Z" fill="#0F172A"/>
</svg>
