<svg width="16" height="16" viewBox="0 0 16 16" fill="none" xmlns="http://www.w3.org/2000/svg">
<path d="M13.2674 9H2.73398C1.73398 9 1.33398 9.42664 1.33398 10.4866V13.18C1.33398 14.24 1.73398 14.6666 2.73398 14.6666H13.2674C14.2674 14.6666 14.6674 14.24 14.6674 13.18V10.4866C14.6674 9.42664 14.2674 9 13.2674 9Z" fill="white"/>
<path d="M8.60063 1.33594H2.73398C1.73398 1.33594 1.33398 1.7626 1.33398 2.8226V5.51594C1.33398 6.57594 1.73398 7.0026 2.73398 7.0026H8.60063C9.60063 7.0026 10.0006 6.57594 10.0006 5.51594V2.8226C10.0006 1.7626 9.60063 1.33594 8.60063 1.33594Z" fill="white"/>
</svg>
