<svg width="16" height="16" viewBox="0 0 16 16" fill="none" xmlns="http://www.w3.org/2000/svg">
<path d="M12.7473 9.9609L12.9606 10.3943C13.0673 10.6076 13.3406 10.8076 13.5673 10.8476L13.8539 10.8943C14.7273 11.0409 14.9273 11.6809 14.3073 12.3076L14.0406 12.5743C13.8606 12.7543 13.7673 13.1009 13.8206 13.3543L13.8539 13.5143C14.0939 14.5676 13.5339 14.9743 12.6206 14.4209L12.4273 14.3009C12.1939 14.1609 11.8073 14.1609 11.5739 14.3009L11.3806 14.4209C10.4606 14.9743 9.90728 14.5676 10.1473 13.5143L10.1806 13.3543C10.2339 13.1076 10.1406 12.7543 9.96064 12.5743L9.69392 12.3076C9.07392 11.6743 9.27392 11.0409 10.1473 10.8943L10.4339 10.8476C10.6673 10.8076 10.9339 10.6076 11.0406 10.3943L11.2539 9.9609C11.6673 9.12762 12.3339 9.12762 12.7473 9.9609Z" fill="white"/>
<path d="M10.794 1.33594H5.20732C2.78066 1.33594 1.33398 2.7826 1.33398 5.20927V10.796C1.33398 13.2226 2.78066 14.6692 5.20732 14.6692H8.72735C8.96063 14.6692 9.12735 14.4292 9.10063 14.196C9.07399 13.9426 9.08735 13.6426 9.16735 13.296C9.18063 13.2492 9.16735 13.196 9.12735 13.156L8.98063 13.0092C8.41399 12.436 8.20735 11.7426 8.40735 11.1092C8.61399 10.4826 9.18735 10.0426 9.98063 9.90924L10.1806 9.87596L10.3606 9.51596C10.7274 8.76924 11.3274 8.33596 12.0006 8.33596C12.674 8.33596 13.274 8.76924 13.6406 9.51596L13.7406 9.7226C13.7874 9.8226 13.8806 9.88924 13.9874 9.90924C14.0474 9.9226 14.1074 9.93596 14.1674 9.94924C14.4006 10.0092 14.6674 9.8226 14.6674 9.57596V5.20927C14.6674 2.7826 13.2206 1.33594 10.794 1.33594ZM10.8406 5.97594L9.30063 7.9626C9.10735 8.20924 8.83399 8.36924 8.52063 8.4026C8.21399 8.4426 7.90066 8.35596 7.66066 8.1626L6.44066 7.21594C6.39398 7.17594 6.34066 7.17594 6.31398 7.1826C6.28732 7.1826 6.24066 7.19594 6.20066 7.24927L4.61398 9.30924C4.51398 9.43596 4.36732 9.5026 4.21398 9.5026C4.10732 9.5026 4.00066 9.46924 3.90732 9.39596C3.68732 9.22924 3.64732 8.91596 3.81398 8.69596L5.40066 6.63594C5.59398 6.38927 5.86732 6.22927 6.18066 6.18927C6.49398 6.14927 6.80066 6.23594 7.04732 6.42927L8.26735 7.38927C8.31399 7.42927 8.36063 7.4226 8.39399 7.4226C8.42063 7.4226 8.46735 7.40927 8.50735 7.35594L10.0474 5.36927C10.214 5.14927 10.5274 5.10927 10.7474 5.2826C10.974 5.44927 11.0074 5.7626 10.8406 5.97594Z" fill="white"/>
</svg>
