<svg width="16" height="16" viewBox="0 0 16 16" fill="none" xmlns="http://www.w3.org/2000/svg">
<path d="M8.00055 1.33594H5.78051C4.55385 1.33594 3.56055 2.32927 3.56055 3.55593C3.56055 4.78259 4.55385 5.77594 5.78051 5.77594H8.00055V1.33594Z" fill="white"/>
<path d="M8.00055 5.78125H5.78051C4.55385 5.78125 3.56055 6.77457 3.56055 8.0012C3.56055 9.22792 4.55385 10.2212 5.78051 10.2212H8.00055V5.78125Z" fill="white"/>
<path d="M8.00055 10.2188H5.78051C4.55385 10.2188 3.56055 11.2121 3.56055 12.4387C3.56055 13.6655 4.55385 14.6588 5.78051 14.6588C7.00719 14.6588 8.00055 13.6655 8.00055 12.4387V10.2188Z" fill="white"/>
<path d="M8 1.33594H10.22C11.4466 1.33594 12.44 2.32927 12.44 3.55593C12.44 4.78259 11.4466 5.77594 10.22 5.77594H8V1.33594Z" fill="white"/>
<path d="M10.22 5.78125C11.4466 5.78125 12.44 6.77457 12.44 8.0012C12.44 9.22792 11.4466 10.2212 10.22 10.2212C8.99336 10.2212 8 9.22792 8 8.0012C8 6.77457 8.99336 5.78125 10.22 5.78125Z" fill="white"/>
</svg>
