<svg width="16" height="16" viewBox="0 0 16 16" fill="none" xmlns="http://www.w3.org/2000/svg">
<path d="M8 7.9974C8 7.26406 8.6 6.66406 9.33336 6.66406H8V7.9974Z" fill="white"/>
<path d="M8.00063 1.33594C4.32066 1.33594 1.33398 4.3226 1.33398 8.0026C1.33398 11.6826 4.32066 14.6692 8.00063 14.6692C11.6806 14.6692 14.6674 11.6826 14.6674 8.0026C14.6674 4.3226 11.6806 1.33594 8.00063 1.33594ZM10.6674 8.0026C10.6674 8.73596 10.0674 9.33596 9.33399 9.33596C8.60063 9.33596 8.00063 8.73596 8.00063 8.0026V9.33596V10.6692C8.00063 11.4026 7.40066 12.0026 6.66732 12.0026C5.93398 12.0026 5.33398 11.4026 5.33398 10.6692C5.33398 9.93596 5.93398 9.33596 6.66732 9.33596C5.93398 9.33596 5.33398 8.73596 5.33398 8.0026C5.33398 7.26927 5.93398 6.66927 6.66732 6.66927C5.93398 6.66927 5.33398 6.06927 5.33398 5.33594C5.33398 4.6026 5.93398 4.0026 6.66732 4.0026H8.00063H9.33399C10.0674 4.0026 10.6674 4.6026 10.6674 5.33594C10.6674 6.06927 10.0674 6.66927 9.33399 6.66927C10.0674 6.66927 10.6674 7.26927 10.6674 8.0026Z" fill="white"/>
</svg>
