<svg width="16" height="16" viewBox="0 0 16 16" fill="none" xmlns="http://www.w3.org/2000/svg">
<path fill-rule="evenodd" clip-rule="evenodd" d="M0.800781 3.79844C0.800781 3.02524 1.42758 2.39844 2.20078 2.39844H13.8008C14.574 2.39844 15.2008 3.02524 15.2008 3.79844V12.2104C15.2008 12.9836 14.574 13.6104 13.8008 13.6104H12.6008C12.5383 13.6104 12.4769 13.6064 12.4165 13.5984H3.585C3.52472 13.6064 3.46323 13.6104 3.40078 13.6104H2.20078C1.42758 13.6104 0.800781 12.9836 0.800781 12.2104V3.79844ZM14.0008 9.70644V8.80644C14.0008 8.69596 13.9113 8.60644 13.8008 8.60644H12.6008C12.4903 8.60644 12.4008 8.69596 12.4008 8.80644V9.70644C12.4008 9.81692 12.4903 9.90644 12.6008 9.90644H13.8008C13.9113 9.90644 14.0008 9.81692 14.0008 9.70644ZM14.0008 11.3104C14.0008 11.2 13.9113 11.1104 13.8008 11.1104H12.6008C12.4903 11.1104 12.4008 11.2 12.4008 11.3104V12.2104C12.4008 12.2968 12.4556 12.3705 12.5324 12.3984H13.8008C13.9113 12.3984 14.0008 12.3089 14.0008 12.1984V11.3104ZM2.00078 12.1984V11.3104C2.00078 11.2 2.09033 11.1104 2.20078 11.1104H3.40078C3.51124 11.1104 3.60078 11.2 3.60078 11.3104V12.2104C3.60078 12.2968 3.54597 12.3705 3.46921 12.3984H2.20078C2.09033 12.3984 2.00078 12.3089 2.00078 12.1984ZM3.60078 8.80644V9.70644C3.60078 9.81692 3.51124 9.90644 3.40078 9.90644H2.20078C2.09033 9.90644 2.00078 9.81692 2.00078 9.70644V8.80644C2.00078 8.69596 2.09033 8.60644 2.20078 8.60644H3.40078C3.51124 8.60644 3.60078 8.69596 3.60078 8.80644ZM14.0008 7.20244V6.30244C14.0008 6.19198 13.9113 6.10244 13.8008 6.10244H12.6008C12.4903 6.10244 12.4008 6.19198 12.4008 6.30244V7.20244C12.4008 7.3129 12.4903 7.40244 12.6008 7.40244H13.8008C13.9113 7.40244 14.0008 7.3129 14.0008 7.20244ZM3.40078 6.10244C3.51124 6.10244 3.60078 6.19198 3.60078 6.30244V7.20244C3.60078 7.3129 3.51124 7.40244 3.40078 7.40244H2.20078C2.09033 7.40244 2.00078 7.3129 2.00078 7.20244V6.30244C2.00078 6.19198 2.09033 6.10244 2.20078 6.10244H3.40078ZM3.40078 3.59844C3.51124 3.59844 3.60078 3.68798 3.60078 3.79844V4.69844C3.60078 4.80889 3.51124 4.89844 3.40078 4.89844H2.20078C2.09033 4.89844 2.00078 4.80889 2.00078 4.69844V3.79844C2.00078 3.68798 2.09033 3.59844 2.20078 3.59844H3.40078ZM12.6008 4.89844C12.4903 4.89844 12.4008 4.80889 12.4008 4.69844V3.79844C12.4008 3.68798 12.4903 3.59844 12.6008 3.59844H13.8008C13.9113 3.59844 14.0008 3.68798 14.0008 3.79844V4.69844C14.0008 4.80889 13.9113 4.89844 13.8008 4.89844H12.6008ZM5.40078 7.39844C5.06941 7.39844 4.80078 7.66707 4.80078 7.99844C4.80078 8.3298 5.06941 8.59844 5.40078 8.59844H10.6008C10.9321 8.59844 11.2008 8.3298 11.2008 7.99844C11.2008 7.66707 10.9321 7.39844 10.6008 7.39844H5.40078Z" fill="#0F172A"/>
</svg>
