<svg width="16" height="16" viewBox="0 0 16 16" fill="none" xmlns="http://www.w3.org/2000/svg">
<path d="M11.9459 6.74406C11.7259 6.69073 11.4926 6.66406 11.2526 6.66406C9.50594 6.66406 8.08594 8.08404 8.08594 9.83076C8.08594 10.424 8.25258 10.984 8.54594 11.464C8.79258 11.8774 9.13258 12.2308 9.54594 12.484C10.0393 12.8108 10.6259 12.9974 11.2526 12.9974C12.4126 12.9974 13.4193 12.3774 13.9659 11.464C14.2593 10.984 14.4193 10.424 14.4193 9.83076C14.4193 8.32404 13.3659 7.0574 11.9459 6.74406ZM12.8326 9.4174L11.1393 10.9774C11.0459 11.064 10.9193 11.1108 10.7993 11.1108C10.6726 11.1108 10.5459 11.064 10.4459 10.964L9.66594 10.184C9.47258 9.99076 9.47258 9.67076 9.66594 9.4774C9.8593 9.28404 10.1793 9.28404 10.3726 9.4774L10.8126 9.9174L12.1526 8.68404C12.3593 8.4974 12.6726 8.51076 12.8593 8.71076C13.0459 8.9174 13.0326 9.23076 12.8326 9.4174Z" fill="white"/>
<path d="M13.7193 2.6826V4.1626C13.7193 4.7026 13.3859 5.37594 13.0526 5.71594L12.9326 5.8226C12.8393 5.90927 12.6993 5.92927 12.5793 5.88927C12.4459 5.8426 12.3126 5.80927 12.1793 5.77594C11.8859 5.7026 11.5726 5.66927 11.2526 5.66927C8.95265 5.66927 7.08595 7.53594 7.08595 9.83596C7.08595 10.596 7.29262 11.3426 7.68595 11.9826C8.01929 12.5426 8.48593 13.0092 8.99265 13.3226C9.14593 13.4226 9.20593 13.636 9.07265 13.756C9.02593 13.796 8.97929 13.8292 8.93265 13.8626L7.99928 14.4692C7.13262 15.0092 5.9393 14.4026 5.9393 13.3226V9.75596C5.9393 9.2826 5.67263 8.67596 5.40596 8.3426L2.8793 5.64927C2.54596 5.30927 2.2793 4.7026 2.2793 4.3026V2.74927C2.2793 1.9426 2.8793 1.33594 3.60596 1.33594H12.3926C13.1193 1.33594 13.7193 1.9426 13.7193 2.6826Z" fill="white"/>
</svg>
