<svg width="16" height="16" viewBox="0 0 16 16" fill="none" xmlns="http://www.w3.org/2000/svg">
<path d="M11.9459 4.24406C11.7259 4.19073 11.4926 4.16406 11.2526 4.16406C9.50594 4.16406 8.08594 5.58406 8.08594 7.33073C8.08594 7.92406 8.25258 8.48404 8.54594 8.96404C8.79258 9.3774 9.13258 9.73076 9.54594 9.98404C10.0393 10.3108 10.6259 10.4974 11.2526 10.4974C12.4126 10.4974 13.4193 9.8774 13.9659 8.96404C14.2593 8.48404 14.4193 7.92406 14.4193 7.33073C14.4193 5.82406 13.3659 4.5574 11.9459 4.24406ZM12.5526 7.04406L10.9326 8.66404C10.8726 8.72404 10.7459 8.78404 10.6593 8.7974L10.0393 8.88404C9.81258 8.9174 9.6593 8.7574 9.69258 8.5374L9.7793 7.9174C9.79258 7.83073 9.85258 7.71073 9.91258 7.64406L11.2993 6.2574L11.5326 6.02406C11.8126 5.74406 12.1393 5.61073 12.5459 6.02406C12.9526 6.4374 12.8326 6.76406 12.5526 7.04406Z" fill="white"/>
<path d="M13.7193 2.6826V3.3226C13.7193 3.59594 13.4059 3.7626 13.1593 3.63594C12.8526 3.47594 12.5259 3.35594 12.1793 3.27594C11.8859 3.2026 11.5726 3.16927 11.2526 3.16927C8.95265 3.16927 7.08595 5.03594 7.08595 7.33594C7.08595 8.09596 7.29262 8.8426 7.68595 9.4826C8.01929 10.0426 8.48593 10.5092 8.99265 10.8226C9.10593 10.896 9.22593 10.9626 9.33929 11.0292C9.45265 11.0892 9.53265 11.2092 9.53265 11.336V12.716C9.53265 13.1226 9.26593 13.6626 8.93265 13.8626L7.99928 14.4692C7.13262 15.0092 5.9393 14.4026 5.9393 13.3226V9.75596C5.9393 9.2826 5.67263 8.67596 5.40596 8.3426L2.8793 5.64927C2.54596 5.30927 2.2793 4.7026 2.2793 4.3026V2.74927C2.2793 1.9426 2.8793 1.33594 3.60596 1.33594H12.3926C13.1193 1.33594 13.7193 1.9426 13.7193 2.6826Z" fill="white"/>
</svg>
