<svg width="16" height="16" viewBox="0 0 16 16" fill="none" xmlns="http://www.w3.org/2000/svg">
<path d="M13.8124 12.1574L13.1858 11.5308C13.5124 11.0374 13.7058 10.444 13.7058 9.80404C13.7058 8.07076 12.2991 6.66406 10.5658 6.66406C8.83242 6.66406 7.42578 8.07076 7.42578 9.80404C7.42578 11.5374 8.83242 12.944 10.5658 12.944C11.2058 12.944 11.7924 12.7508 12.2924 12.424L12.9191 13.0508C13.0458 13.1774 13.2058 13.2374 13.3724 13.2374C13.5391 13.2374 13.6991 13.1774 13.8258 13.0508C14.0591 12.8108 14.0591 12.4108 13.8124 12.1574Z" fill="white"/>
<path d="M13.0533 2.6826V4.1626C13.0533 4.7026 12.7199 5.37594 12.3866 5.71594L12.2666 5.8226C12.1733 5.90927 12.0333 5.92927 11.9133 5.88927C11.7799 5.8426 11.6466 5.80927 11.5133 5.77594C11.2199 5.7026 10.9066 5.66927 10.5866 5.66927C8.28664 5.66927 6.41995 7.53594 6.41995 9.83596C6.41995 10.596 6.62662 11.3426 7.01994 11.9826C7.35327 12.5426 7.81994 13.0092 8.32664 13.3226C8.47992 13.4226 8.53992 13.636 8.40664 13.756C8.35992 13.796 8.31328 13.8292 8.26664 13.8626L7.33327 14.4692C6.46662 15.0092 5.27328 14.4026 5.27328 13.3226V9.75596C5.27328 9.2826 5.00662 8.67596 4.73995 8.3426L2.21328 5.64927C1.87995 5.30927 1.61328 4.7026 1.61328 4.3026V2.74927C1.61328 1.9426 2.21328 1.33594 2.93995 1.33594H11.7266C12.4533 1.33594 13.0533 1.9426 13.0533 2.6826Z" fill="white"/>
</svg>
