<svg width="16" height="16" viewBox="0 0 16 16" fill="none" xmlns="http://www.w3.org/2000/svg">
<path d="M11.2526 6.66406C9.50594 6.66406 8.08594 8.08404 8.08594 9.83076C8.08594 10.424 8.25258 10.984 8.54594 11.464C9.09258 12.384 10.0993 12.9974 11.2526 12.9974C12.4059 12.9974 13.4126 12.3774 13.9593 11.464C14.2526 10.9908 14.4193 10.424 14.4193 9.83076C14.4193 8.08404 13.0059 6.66406 11.2526 6.66406ZM12.4526 11.0108C12.3526 11.1108 12.2259 11.1574 12.0993 11.1574C11.9726 11.1574 11.8459 11.1108 11.7459 11.0108L11.2659 10.5308L10.7659 11.0308C10.6659 11.1308 10.5393 11.1774 10.4126 11.1774C10.2859 11.1774 10.1593 11.1308 10.0593 11.0308C9.86594 10.8374 9.86594 10.5174 10.0593 10.324L10.5593 9.82404L10.0793 9.3374C9.88594 9.14404 9.88594 8.82404 10.0793 8.63076C10.2726 8.4374 10.5926 8.4374 10.7859 8.63076L11.2659 9.11076L11.7326 8.64404C11.9259 8.45076 12.2459 8.45076 12.4393 8.64404C12.6326 8.8374 12.6326 9.1574 12.4393 9.35076L11.9726 9.8174L12.4526 10.304C12.6526 10.4974 12.6526 10.8174 12.4526 11.0108Z" fill="white"/>
<path d="M13.7193 2.6826V4.1626C13.7193 4.7026 13.3859 5.37594 13.0526 5.71594L12.9326 5.8226C12.8393 5.90927 12.6993 5.92927 12.5793 5.88927C12.4459 5.8426 12.3126 5.80927 12.1793 5.77594C11.8859 5.7026 11.5726 5.66927 11.2526 5.66927C8.95265 5.66927 7.08595 7.53594 7.08595 9.83596C7.08595 10.596 7.29262 11.3426 7.68595 11.9826C8.01929 12.5426 8.48593 13.0092 8.99265 13.3226C9.14593 13.4226 9.20593 13.636 9.07265 13.756C9.02593 13.796 8.97929 13.8292 8.93265 13.8626L7.99928 14.4692C7.13262 15.0092 5.9393 14.4026 5.9393 13.3226V9.75596C5.9393 9.2826 5.67263 8.67596 5.40596 8.3426L2.8793 5.64927C2.54596 5.30927 2.2793 4.7026 2.2793 4.3026V2.74927C2.2793 1.9426 2.8793 1.33594 3.60596 1.33594H12.3926C13.1193 1.33594 13.7193 1.9426 13.7193 2.6826Z" fill="white"/>
</svg>
