<svg width="16" height="16" viewBox="0 0 16 16" fill="none" xmlns="http://www.w3.org/2000/svg">
<path d="M11.2526 6.66406C9.50594 6.66406 8.08594 8.08404 8.08594 9.83076C8.08594 10.424 8.25258 10.984 8.54594 11.464C9.09258 12.384 10.0993 12.9974 11.2526 12.9974C12.4059 12.9974 13.4126 12.3774 13.9593 11.464C14.2526 10.9908 14.4193 10.424 14.4193 9.83076C14.4193 8.08404 13.0059 6.66406 11.2526 6.66406ZM12.4393 10.3174H11.7526V11.0308C11.7526 11.304 11.5259 11.5308 11.2526 11.5308C10.9793 11.5308 10.7526 11.304 10.7526 11.0308V10.3174H10.0726C9.7993 10.3174 9.57258 10.0908 9.57258 9.8174C9.57258 9.54404 9.7993 9.3174 10.0726 9.3174H10.7526V8.66404C10.7526 8.39076 10.9793 8.16404 11.2526 8.16404C11.5259 8.16404 11.7526 8.39076 11.7526 8.66404V9.3174H12.4393C12.7126 9.3174 12.9393 9.54404 12.9393 9.8174C12.9393 10.0908 12.7126 10.3174 12.4393 10.3174Z" fill="white"/>
<path d="M13.7193 2.6826V4.1626C13.7193 4.7026 13.3859 5.37594 13.0526 5.71594L12.9326 5.8226C12.8393 5.90927 12.6993 5.92927 12.5793 5.88927C12.4459 5.8426 12.3126 5.80927 12.1793 5.77594C11.8859 5.7026 11.5726 5.66927 11.2526 5.66927C8.95265 5.66927 7.08595 7.53594 7.08595 9.83596C7.08595 10.596 7.29262 11.3426 7.68595 11.9826C8.01929 12.5426 8.48593 13.0092 8.99265 13.3226C9.14593 13.4226 9.20593 13.636 9.07265 13.756C9.02593 13.796 8.97929 13.8292 8.93265 13.8626L7.99928 14.4692C7.13262 15.0092 5.9393 14.4026 5.9393 13.3226V9.75596C5.9393 9.2826 5.67263 8.67596 5.40596 8.3426L2.8793 5.64927C2.54596 5.30927 2.2793 4.7026 2.2793 4.3026V2.74927C2.2793 1.9426 2.8793 1.33594 3.60596 1.33594H12.3926C13.1193 1.33594 13.7193 1.9426 13.7193 2.6826Z" fill="white"/>
</svg>
