<svg width="16" height="16" viewBox="0 0 16 16" fill="none" xmlns="http://www.w3.org/2000/svg">
<path d="M13.9674 2.75594C13.774 2.47594 13.5274 2.22927 13.2474 2.03594C12.614 1.57594 11.7874 1.33594 10.794 1.33594H5.20732C5.07398 1.33594 4.94066 1.3426 4.81398 1.35594C2.62732 1.49594 1.33398 2.91594 1.33398 5.20927V10.796C1.33398 11.7892 1.57398 12.616 2.03398 13.2492C2.22732 13.5292 2.47398 13.776 2.75398 13.9692C3.30066 14.3692 3.99398 14.6026 4.81398 14.656C4.94066 14.6626 5.07398 14.6692 5.20732 14.6692H10.794C13.2206 14.6692 14.6674 13.2226 14.6674 10.796V5.20927C14.6674 4.21594 14.4274 3.38927 13.9674 2.75594ZM5.64066 7.1226L5.31398 6.7826C5.14066 6.60927 5.00066 6.29594 5.00066 6.0826V5.2826C5.00066 4.8626 5.31398 4.54927 5.70066 4.54927H7.12732C7.40065 4.54927 7.56732 4.84927 7.42066 5.0826L6.18732 7.06927C6.06732 7.2626 5.79398 7.28927 5.64066 7.1226ZM11.0006 6.01594C11.0006 6.29594 10.8274 6.6426 10.654 6.81594L9.15399 8.1426C8.94735 8.31596 8.80735 8.6626 8.80735 8.9426V10.4426C8.80735 10.6492 8.66735 10.9292 8.49399 11.036L8.00063 11.3492C7.54732 11.6292 6.92066 11.316 6.92066 10.756V8.90924C6.92066 8.6626 6.78066 8.34924 6.64066 8.17596L6.48066 8.0026C6.37398 7.88927 6.35398 7.71594 6.43398 7.57594L8.22063 4.70927C8.28735 4.60927 8.39399 4.5426 8.51399 4.5426H10.3006C10.6874 4.5426 11.0006 4.85594 11.0006 5.2426V6.01594Z" fill="white"/>
</svg>
