<svg width="16" height="16" viewBox="0 0 16 16" fill="none" xmlns="http://www.w3.org/2000/svg">
<path d="M13.7326 2.73177V4.19844C13.7326 4.73177 13.3993 5.39844 13.0659 5.73177L10.1993 8.26508C9.7993 8.59844 9.53258 9.26508 9.53258 9.79844V12.6651C9.53258 13.0651 9.26594 13.5984 8.93258 13.7984L7.9993 14.3984C7.13261 14.9318 5.9326 14.3318 5.9326 13.2651V9.7318C5.9326 9.26508 5.66594 8.66508 5.39927 8.3318L5.08594 8.00508C4.87927 7.78509 4.83927 7.45177 5.00594 7.19177L8.4193 1.71177C8.5393 1.51844 8.75258 1.39844 8.98594 1.39844H12.3993C13.1326 1.39844 13.7326 1.99844 13.7326 2.73177Z" fill="white"/>
<path d="M6.90092 2.41844L4.53425 6.21177C4.30758 6.57844 3.78758 6.63177 3.48758 6.31844L2.86758 5.6651C2.53425 5.33177 2.26758 4.73177 2.26758 4.33177V2.79844C2.26758 1.99844 2.86758 1.39844 3.60091 1.39844H6.33425C6.85426 1.39844 7.17426 1.97177 6.90092 2.41844Z" fill="white"/>
</svg>
