<svg width="16" height="16" viewBox="0 0 16 16" fill="none" xmlns="http://www.w3.org/2000/svg">
<path d="M8.00063 5.30078C6.80732 5.30078 5.83398 6.27412 5.83398 7.46744V8.53406C5.83398 9.72742 6.80732 10.7008 8.00063 10.7008C9.19399 10.7008 10.1674 9.72742 10.1674 8.53406V7.46744C10.1674 6.27412 9.19399 5.30078 8.00063 5.30078ZM8.60063 8.82742C8.60063 9.16078 8.33399 9.42742 8.00063 9.42742C7.66732 9.42742 7.40066 9.16078 7.40066 8.82742V7.18077C7.40066 6.8541 7.66732 6.58078 8.00063 6.58078C8.33399 6.58078 8.60063 6.84744 8.60063 7.18077V8.82742Z" fill="white"/>
<path d="M8.00063 1.33594C4.32066 1.33594 1.33398 4.3226 1.33398 8.0026C1.33398 11.6826 4.32066 14.6692 8.00063 14.6692C11.6806 14.6692 14.6674 11.6826 14.6674 8.0026C14.6674 4.3226 11.6806 1.33594 8.00063 1.33594ZM11.1674 8.53596C11.1674 10.2826 9.74735 11.7026 8.00063 11.7026C6.25398 11.7026 4.83398 10.2826 4.83398 8.53596V7.46927C4.83398 5.7226 6.25398 4.3026 8.00063 4.3026C9.74735 4.3026 11.1674 5.7226 11.1674 7.46927V8.53596Z" fill="white"/>
</svg>
