<svg width="16" height="16" viewBox="0 0 16 16" fill="none" xmlns="http://www.w3.org/2000/svg">
<path fill-rule="evenodd" clip-rule="evenodd" d="M7.99911 2.00078C6.9515 2.00078 5.97793 2.30994 5.16246 2.84184C4.88491 3.02287 4.51316 2.94462 4.33212 2.66708C4.15109 2.38953 4.22933 2.01777 4.50688 1.83673C5.51141 1.18153 6.71171 0.800781 7.99911 0.800781C11.5337 0.800781 14.3991 3.66616 14.3991 7.20078C14.3991 9.25918 14.0533 11.2381 13.4162 13.0819C13.308 13.3951 12.9664 13.5613 12.6532 13.453C12.34 13.3449 12.1738 13.0032 12.2821 12.69C12.8761 10.9706 13.1991 9.12406 13.1991 7.20078C13.1991 4.3289 10.871 2.00078 7.99911 2.00078ZM3.46541 3.5338C3.74295 3.71483 3.8212 4.08658 3.64017 4.36413C3.10827 5.17961 2.79911 6.15317 2.79911 7.20078C2.79911 8.48702 2.41904 9.68638 1.76489 10.6904C1.584 10.968 1.21228 11.0464 0.934645 10.8655C0.657001 10.6846 0.578573 10.3129 0.759467 10.0353C1.29049 9.22022 1.59911 8.2475 1.59911 7.20078C1.59911 5.91338 1.97986 4.71309 2.63507 3.70856C2.8161 3.43101 3.18785 3.35277 3.46541 3.5338ZM7.99911 4.89678C6.67363 4.89678 5.59911 5.97129 5.59911 7.29678C5.59911 7.30781 5.59881 7.31877 5.59823 7.32965C5.56793 9.5343 4.76149 11.5529 3.44043 13.1222C3.22703 13.3757 2.84853 13.4082 2.59501 13.1949C2.3415 12.9814 2.30899 12.6029 2.52238 12.3494C3.69385 10.9577 4.39911 9.16238 4.39911 7.20078C4.39911 7.17853 4.40032 7.15655 4.40268 7.13492C4.48733 5.22181 6.06512 3.69678 7.99911 3.69678C9.93303 3.69678 11.5108 5.22168 11.5955 7.13481C11.5979 7.15691 11.5992 7.17937 11.5991 7.20211L11.5989 7.26598L11.5991 7.29385C11.5991 7.30282 11.599 7.31176 11.5986 7.32065C11.5981 7.40016 11.5968 7.47953 11.5949 7.55877C11.5873 7.89005 11.3125 8.15238 10.9813 8.1447C10.65 8.1371 10.3877 7.8623 10.3953 7.53102C10.3973 7.44376 10.3985 7.35629 10.3989 7.26863C10.3839 5.95619 9.31519 4.89678 7.99911 4.89678ZM7.99911 6.60078C8.33047 6.60078 8.59911 6.86941 8.59911 7.20078C8.59911 10.009 7.64954 12.5972 6.05432 14.6593C5.85157 14.9215 5.47473 14.9696 5.21263 14.7669C4.95052 14.5641 4.90241 14.1873 5.10516 13.9251C6.54351 12.0657 7.39911 9.73406 7.39911 7.20078C7.39911 6.86941 7.66774 6.60078 7.99911 6.60078ZM10.8221 9.55902C11.1468 9.6255 11.3561 9.94262 11.2895 10.2673C10.9465 11.9417 10.3281 13.5157 9.48407 14.9398C9.31511 15.2249 8.94711 15.319 8.66199 15.1501C8.37695 14.9811 8.28279 14.6131 8.45175 14.3281C9.22903 13.0165 9.79815 11.5676 10.114 10.0264C10.1805 9.70174 10.4976 9.49246 10.8221 9.55902Z" fill="#0F172A"/>
</svg>
