<svg width="16" height="16" viewBox="0 0 16 16" fill="none" xmlns="http://www.w3.org/2000/svg">
<g clip-path="url(#clip0_13_13783)">
<path d="M14.6666 6.5026C14.3934 6.5026 14.1666 6.27594 14.1666 6.0026V4.66927C14.1666 2.94927 13.0534 1.83594 11.3334 1.83594H10C9.72664 1.83594 9.5 1.60927 9.5 1.33594C9.5 1.0626 9.72664 0.835938 10 0.835938H11.3334C13.6266 0.835938 15.1666 2.37594 15.1666 4.66927V6.0026C15.1666 6.27594 14.94 6.5026 14.6666 6.5026Z" fill="white"/>
<path d="M1.33398 6.5026C1.06066 6.5026 0.833984 6.27594 0.833984 6.0026V4.66927C0.833984 2.37594 2.37398 0.835938 4.66732 0.835938H6.00066C6.27398 0.835938 6.50066 1.0626 6.50066 1.33594C6.50066 1.60927 6.27398 1.83594 6.00066 1.83594H4.66732C2.94732 1.83594 1.83398 2.94927 1.83398 4.66927V6.0026C1.83398 6.27594 1.60732 6.5026 1.33398 6.5026Z" fill="white"/>
<path d="M11.3334 15.1666H10C9.72664 15.1666 9.5 14.94 9.5 14.6666C9.5 14.3934 9.72664 14.1666 10 14.1666H11.3334C13.0534 14.1666 14.1666 13.0534 14.1666 11.3334V10C14.1666 9.72664 14.3934 9.5 14.6666 9.5C14.94 9.5 15.1666 9.72664 15.1666 10V11.3334C15.1666 13.6266 13.6266 15.1666 11.3334 15.1666Z" fill="white"/>
<path d="M6.00066 15.1666H4.66732C2.37398 15.1666 0.833984 13.6266 0.833984 11.3334V10C0.833984 9.72664 1.06066 9.5 1.33398 9.5C1.60732 9.5 1.83398 9.72664 1.83398 10V11.3334C1.83398 13.0534 2.94732 14.1666 4.66732 14.1666H6.00066C6.27398 14.1666 6.50066 14.3934 6.50066 14.6666C6.50066 14.94 6.27398 15.1666 6.00066 15.1666Z" fill="white"/>
<path d="M8.00039 6.57812C7.67373 6.57812 7.40039 6.84476 7.40039 7.17809V8.8248C7.40039 9.15808 7.66705 9.4248 8.00039 9.4248C8.33375 9.4248 8.60039 9.15808 8.60039 8.8248V7.17809C8.60039 6.84476 8.32703 6.57812 8.00039 6.57812Z" fill="white"/>
<path d="M10.3538 4.93313C10.1272 4.70645 9.86719 4.51313 9.58719 4.35313C9.49383 4.30645 9.39383 4.25979 9.29383 4.21312C9.19383 4.17312 9.09383 4.13312 8.98719 4.10645C8.88055 4.07312 8.77383 4.04645 8.66719 4.01979C8.66055 4.01979 8.64719 4.01979 8.64055 4.01312C8.43383 3.97312 8.22055 3.95312 8.00719 3.95312H7.99384C7.78052 3.95312 7.57384 3.97312 7.36718 4.01312C7.34052 4.01979 7.31384 4.01979 7.29384 4.03312C7.20052 4.05312 7.10718 4.07312 7.01384 4.10645C6.90052 4.13312 6.78718 4.17979 6.67384 4.22645C6.58716 4.26645 6.50049 4.31313 6.42049 4.35313C6.32049 4.40645 6.23383 4.46645 6.14049 4.52645C5.96716 4.64645 5.80049 4.77979 5.64716 4.93313C5.57383 5.00645 5.50049 5.08645 5.43383 5.16645C5.36716 5.25312 5.30049 5.33313 5.24049 5.42645C5.18049 5.51313 5.12716 5.60645 5.07383 5.69979C4.82049 6.17313 4.67383 6.71313 4.67383 7.28646V8.71312C4.67383 9.86648 5.26049 10.8798 6.14049 11.4731C6.22049 11.5331 6.30716 11.5798 6.39383 11.6331L6.76052 11.8065C6.94718 11.8798 7.14051 11.9398 7.33384 11.9798C7.54718 12.0198 7.76718 12.0465 7.99384 12.0465C8.00055 12.0465 8.00055 12.0465 8.00719 12.0465C8.23383 12.0465 8.45383 12.0198 8.66719 11.9798C8.86719 11.9398 9.06055 11.8798 9.24719 11.8065C9.37383 11.7531 9.49383 11.6931 9.60719 11.6331C10.6338 11.0665 11.3272 9.96648 11.3272 8.71312V7.28646C11.3272 6.36645 10.9538 5.53313 10.3538 4.93313ZM9.60055 8.82648C9.60055 9.70648 8.88055 10.4265 8.00055 10.4265C7.12051 10.4265 6.40049 9.70648 6.40049 8.82648V7.1798C6.40049 6.29979 7.12051 5.57979 8.00055 5.57979C8.88055 5.57979 9.60055 6.29979 9.60055 7.1798V8.82648Z" fill="white"/>
</g>
<defs>
<clipPath id="clip0_13_13783">
<rect width="16" height="16" fill="white"/>
</clipPath>
</defs>
</svg>
