<svg width="16" height="16" viewBox="0 0 16 16" fill="none" xmlns="http://www.w3.org/2000/svg">
<path fill-rule="evenodd" clip-rule="evenodd" d="M10.7994 3.94932C13.4778 5.49572 14.3955 8.92066 12.8491 11.5991C11.3027 14.2775 7.87781 15.1952 5.19937 13.6488C2.52094 12.1024 1.60323 8.67754 3.14963 5.99906C3.28434 5.76572 3.43332 5.54575 3.59482 5.3396C3.7561 5.13372 4.06731 5.16485 4.22932 5.37016C4.4515 5.65174 4.70456 5.90784 4.98338 6.13333C5.24949 6.34856 5.61278 6.09476 5.60204 5.75268C5.60043 5.70172 5.59963 5.65055 5.59963 5.5992C5.59963 4.86436 5.76475 4.1681 6.05992 3.54548C6.48644 2.6458 7.1845 1.89988 8.04825 1.4136C8.24585 1.30236 8.48857 1.40098 8.58985 1.60389C9.06337 2.55338 9.81169 3.37906 10.7994 3.94932ZM11.1996 9.59922C11.1996 11.3665 9.76697 12.7992 7.99961 12.7992C6.469 12.7992 5.18289 11.6805 4.87174 10.2539C4.79689 9.91074 5.22334 9.73914 5.52278 9.92282C5.91159 10.1612 6.34946 10.3163 6.80391 10.374C7.04602 10.4047 7.22848 10.1823 7.21146 9.9389C7.20362 9.82674 7.19962 9.71346 7.19962 9.59922C7.19962 8.4577 7.5981 7.40925 8.26353 6.58537C8.34657 6.48256 8.47881 6.43209 8.60857 6.45709C10.0846 6.74146 11.1996 8.0401 11.1996 9.59922Z" fill="#0F172A"/>
</svg>
