<svg width="16" height="16" viewBox="0 0 16 16" fill="none" xmlns="http://www.w3.org/2000/svg">
<path d="M14.0006 3.5H9.33398C9.06062 3.5 8.83398 3.27334 8.83398 3C8.83398 2.72666 9.06062 2.5 9.33398 2.5H14.0006C14.274 2.5 14.5006 2.72666 14.5006 3C14.5006 3.27334 14.274 3.5 14.0006 3.5Z" fill="white"/>
<path d="M14.0006 6.83594H9.33398C9.06062 6.83594 8.83398 6.60927 8.83398 6.33594C8.83398 6.0626 9.06062 5.83594 9.33398 5.83594H14.0006C14.274 5.83594 14.5006 6.0626 14.5006 6.33594C14.5006 6.60927 14.274 6.83594 14.0006 6.83594Z" fill="white"/>
<path d="M14 10.1641H2C1.72666 10.1641 1.5 9.93742 1.5 9.66406C1.5 9.39078 1.72666 9.16406 2 9.16406H14C14.2734 9.16406 14.5 9.39078 14.5 9.66406C14.5 9.93742 14.2734 10.1641 14 10.1641Z" fill="white"/>
<path d="M14 13.5H2C1.72666 13.5 1.5 13.2734 1.5 13C1.5 12.7266 1.72666 12.5 2 12.5H14C14.2734 12.5 14.5 12.7266 14.5 13C14.5 13.2734 14.2734 13.5 14 13.5Z" fill="white"/>
<path d="M5.28 2.33594H3.38666C2.45334 2.33594 2 2.78927 2 3.7226V5.6226C2 6.55594 2.45334 7.00927 3.38666 7.00927H5.28666C6.22 7.00927 6.67334 6.55594 6.67334 5.6226V3.7226C6.66666 2.78927 6.21334 2.33594 5.28 2.33594Z" fill="white"/>
</svg>
