<svg width="16" height="16" viewBox="0 0 16 16" fill="none" xmlns="http://www.w3.org/2000/svg">
<path d="M2.79961 2.20156C2.79961 1.87019 2.53098 1.60156 2.19961 1.60156C1.86824 1.60156 1.59961 1.87019 1.59961 2.20156V13.8016C1.59961 14.1329 1.86824 14.4016 2.19961 14.4016C2.53098 14.4016 2.79961 14.1329 2.79961 13.8016V10.2884L4.12555 10.0092C5.28327 9.76548 6.48959 9.92716 7.54235 10.467C9.01745 11.2235 10.7296 11.374 12.314 10.8864L13.9761 10.375C14.2278 10.2976 14.3996 10.065 14.3996 9.80156V3.00156C14.3996 2.82075 14.3181 2.64957 14.1777 2.53564C14.0372 2.42171 13.853 2.37718 13.676 2.41443L11.7722 2.81523C10.6517 3.05112 9.48641 2.95007 8.42329 2.52481L8.02161 2.36414C6.73848 1.85089 5.33214 1.72893 3.9798 2.01363L2.79961 2.26209V2.20156Z" fill="#0F172A"/>
</svg>
