<svg width="16" height="16" viewBox="0 0 16 16" fill="none" xmlns="http://www.w3.org/2000/svg">
<path d="M6.21394 8.85432H8.27391V13.6543C8.27391 14.361 9.15391 14.6943 9.62055 14.161L14.6673 8.4276C15.1073 7.92764 14.7539 7.14764 14.0873 7.14764H12.0273V2.34762C12.0273 1.64096 11.1473 1.30762 10.6806 1.84096L5.63394 7.5743C5.20061 8.07432 5.55394 8.85432 6.21394 8.85432Z" fill="white"/>
<path d="M5.66666 3.16406H1C0.726666 3.16406 0.5 2.9374 0.5 2.66406C0.5 2.39073 0.726666 2.16406 1 2.16406H5.66666C5.94 2.16406 6.16666 2.39073 6.16666 2.66406C6.16666 2.9374 5.94 3.16406 5.66666 3.16406Z" fill="white"/>
<path d="M5 13.8359H1C0.726666 13.8359 0.5 13.6092 0.5 13.3359C0.5 13.0626 0.726666 12.8359 1 12.8359H5C5.27334 12.8359 5.5 13.0626 5.5 13.3359C5.5 13.6092 5.27334 13.8359 5 13.8359Z" fill="white"/>
<path d="M3 8.5H1C0.726666 8.5 0.5 8.27336 0.5 8C0.5 7.72666 0.726666 7.5 1 7.5H3C3.27334 7.5 3.5 7.72666 3.5 8C3.5 8.27336 3.27334 8.5 3 8.5Z" fill="white"/>
</svg>
