<svg width="16" height="16" viewBox="0 0 16 16" fill="none" xmlns="http://www.w3.org/2000/svg">
<path d="M7.97915 1.33594C4.29916 1.33594 1.3125 4.3226 1.3125 8.0026C1.3125 11.6826 4.29916 14.6692 7.97915 14.6692C11.6591 14.6692 14.6458 11.6826 14.6458 8.0026C14.6458 4.3226 11.6658 1.33594 7.97915 1.33594ZM10.4791 8.23596L7.99915 11.056L7.70581 11.3892C7.29915 11.8492 6.96581 11.7292 6.96581 11.1092V8.46924H5.8325C5.31916 8.46924 5.17916 8.15596 5.51916 7.76927L7.99915 4.94927L8.2925 4.61594C8.69914 4.15594 9.0325 4.27594 9.0325 4.89594V7.53594H10.1658C10.6791 7.53594 10.8191 7.84927 10.4791 8.23596Z" fill="white"/>
</svg>
