<svg width="16" height="16" viewBox="0 0 16 16" fill="none" xmlns="http://www.w3.org/2000/svg">
<path d="M8.00063 1.33594C4.32066 1.33594 1.33398 4.3226 1.33398 8.0026C1.33398 11.6826 4.32066 14.6692 8.00063 14.6692C11.6806 14.6692 14.6674 11.6826 14.6674 8.0026C14.6674 4.3226 11.6806 1.33594 8.00063 1.33594ZM10.354 8.8226L6.90066 11.216C6.39398 11.5692 6.10066 11.3626 6.24732 10.7692L6.88066 8.20924L5.78066 7.93594C5.28066 7.81594 5.22066 7.46927 5.64066 7.17594L9.09399 4.7826C9.60063 4.42927 9.89399 4.63594 9.74735 5.22927L9.11399 7.78927L10.214 8.0626C10.714 8.18924 10.774 8.52924 10.354 8.8226Z" fill="white"/>
</svg>
