<svg width="16" height="16" viewBox="0 0 16 16" fill="none" xmlns="http://www.w3.org/2000/svg">
<path d="M14.5126 1.48594C14.3126 1.28594 13.9859 1.28594 13.7859 1.48594L1.48594 13.7926C1.28594 13.9926 1.28594 14.3193 1.48594 14.5193C1.58594 14.6126 1.7126 14.666 1.84594 14.666C1.97927 14.666 2.10594 14.6126 2.20594 14.5126L14.5126 2.20594C14.7193 2.00594 14.7193 1.68594 14.5126 1.48594Z" fill="white"/>
<path d="M9.87898 2.34985V6.12319L6.11903 9.88324V8.85652H4.05903C3.1257 8.85652 2.8657 8.28324 3.4857 7.58321L7.99902 2.44985L8.53234 1.84319C9.27234 1.00319 9.87898 1.22985 9.87898 2.34985Z" fill="white"/>
<path d="M12.5125 8.42181L7.99915 13.5551L7.46582 14.1618C6.72582 15.0018 6.11914 14.7751 6.11914 13.6551V11.8818L10.8525 7.14844H11.9391C12.8725 7.14844 13.1325 7.72177 12.5125 8.42181Z" fill="white"/>
</svg>
