<svg width="16" height="16" viewBox="0 0 16 16" fill="none" xmlns="http://www.w3.org/2000/svg">
<path d="M14.0119 5.33043C14.2772 5.70815 13.961 6.16927 13.4994 6.16927H2.00066C1.63246 6.16927 1.33398 5.87079 1.33398 5.5026V4.2826C1.33398 2.65594 2.65398 1.33594 4.28066 1.33594H5.82732C6.91398 1.33594 7.25398 1.68927 7.68732 2.26927L8.62063 3.50927C8.82735 3.7826 8.85399 3.81594 9.24063 3.81594H11.1006C12.3038 3.81594 13.3684 4.41399 14.0119 5.33043Z" fill="white"/>
<path d="M14.6562 7.82846C14.655 7.4612 14.3569 7.16406 13.9896 7.16406L2.00064 7.16426C1.63246 7.16426 1.33398 7.46273 1.33398 7.83093V11.0976C1.33398 13.0643 2.93398 14.6643 4.90066 14.6643H11.1006C13.0674 14.6643 14.6674 13.0643 14.6674 11.0976L14.6562 7.82846ZM9.56063 12.1843C9.46063 12.2776 9.33399 12.3309 9.20735 12.3309C9.08063 12.3309 8.94735 12.2776 8.85399 12.1843L8.02735 11.3576L7.17398 12.2109C7.08066 12.3043 6.94732 12.3576 6.82065 12.3576C6.69398 12.3576 6.56732 12.3043 6.46732 12.2109C6.27398 12.0176 6.27398 11.6976 6.46732 11.5043L7.32065 10.6509L6.49398 9.82428C6.30066 9.63092 6.30066 9.31092 6.49398 9.11756C6.69398 8.92428 7.00732 8.92428 7.20066 9.11756L8.02735 9.94428L8.82735 9.14428C9.02063 8.95092 9.33399 8.95092 9.53399 9.14428C9.72735 9.34428 9.72735 9.65756 9.53399 9.85092L8.73399 10.6509L9.56063 11.4776C9.75399 11.6709 9.75399 11.9909 9.56063 12.1843Z" fill="white"/>
</svg>
