<svg width="16" height="16" viewBox="0 0 16 16" fill="none" xmlns="http://www.w3.org/2000/svg">
<path d="M10.387 13.1324C8.98037 13.2324 8.98037 15.2724 10.387 15.3724H13.727C14.1337 15.3724 14.5204 15.2257 14.8204 14.9524C15.807 14.0924 15.2804 12.3591 13.9804 12.1991C13.5137 9.38571 9.44037 10.4524 10.407 13.1324" fill="white"/>
<path d="M10.387 13.1324C8.98037 13.2324 8.98037 15.2724 10.387 15.3724H13.727C14.1337 15.3724 14.5204 15.2257 14.8204 14.9524C15.807 14.0924 15.2804 12.3591 13.9804 12.1991C13.5137 9.38571 9.44037 10.4524 10.407 13.1324" fill="white"/>
<path d="M14.6674 7.3826V10.2292C14.6674 10.4426 14.3274 10.536 14.1806 10.3826C13.8674 10.056 13.474 9.80924 13.0206 9.66924C11.974 9.3426 10.7674 9.6626 10.0074 10.4492C9.52735 10.9626 9.26735 11.6026 9.25399 12.296C9.25399 12.416 9.19399 12.5226 9.10063 12.596C8.62063 12.976 8.32735 13.5692 8.32735 14.2492V14.256C8.32735 14.4692 8.17399 14.6626 7.96065 14.6626H4.89398C2.93398 14.6692 1.33398 13.0692 1.33398 11.1026V4.2826C1.33398 2.65594 2.65398 1.33594 4.28066 1.33594H5.82732C6.91398 1.33594 7.25398 1.68927 7.68732 2.26927L8.62063 3.50927C8.82735 3.7826 8.85399 3.81594 9.24063 3.81594H11.1006C12.6874 3.81594 14.034 4.85594 14.494 6.29594C14.594 6.59594 14.6474 6.9026 14.6606 7.22927C14.6674 7.27594 14.6674 7.33594 14.6674 7.3826Z" fill="white"/>
</svg>
