<svg width="16" height="16" viewBox="0 0 16 16" fill="none" xmlns="http://www.w3.org/2000/svg">
<path fill-rule="evenodd" clip-rule="evenodd" d="M1.59961 3.79844C1.59961 3.02524 2.22641 2.39844 2.99961 2.39844H6.86824C7.23955 2.39844 7.59563 2.54593 7.85819 2.80849L8.98953 3.93986C9.02705 3.97737 9.07793 3.99844 9.13097 3.99844H12.9996C13.7728 3.99844 14.3996 4.62524 14.3996 5.39844V12.1984C14.3996 12.9716 13.7728 13.5984 12.9996 13.5984H2.99961C2.22641 13.5984 1.59961 12.9716 1.59961 12.1984V3.79844ZM8.59961 6.99844C8.59961 6.66707 8.33097 6.39844 7.99961 6.39844C7.66824 6.39844 7.39961 6.66707 7.39961 6.99844V9.03484L6.64559 8.19708C6.42391 7.95075 6.04454 7.93078 5.79823 8.15244C5.55192 8.37412 5.53196 8.75348 5.75363 8.9998L7.55363 10.9998C7.66742 11.1263 7.82951 11.1984 7.99961 11.1984C8.16969 11.1984 8.33177 11.1263 8.44561 10.9998L10.2456 8.9998C10.4673 8.75348 10.4473 8.37412 10.201 8.15244C9.95465 7.93078 9.57529 7.95075 9.35361 8.19708L8.59961 9.03484V6.99844Z" fill="#0F172A"/>
</svg>
