<svg width="16" height="16" viewBox="0 0 16 16" fill="none" xmlns="http://www.w3.org/2000/svg">
<path d="M14.0119 5.33043C14.2772 5.70815 13.961 6.16927 13.4994 6.16927H2.00066C1.63246 6.16927 1.33398 5.87079 1.33398 5.5026V4.2826C1.33398 2.65594 2.65398 1.33594 4.28066 1.33594H5.82732C6.91398 1.33594 7.25398 1.68927 7.68732 2.26927L8.62063 3.50927C8.82735 3.7826 8.85399 3.81594 9.24063 3.81594H11.1006C12.3038 3.81594 13.3684 4.41399 14.0119 5.33043Z" fill="white"/>
<path d="M14.6562 7.82846C14.655 7.4612 14.3569 7.16406 13.9896 7.16406H2.00066C1.63246 7.16406 1.33398 7.46253 1.33398 7.83073V11.0974C1.33398 13.064 2.93398 14.664 4.90066 14.664H11.1006C13.0674 14.664 14.6674 13.064 14.6674 11.0974L14.6562 7.82846ZM9.69399 11.3108L8.26063 12.564C8.18735 12.6308 8.09399 12.664 8.00063 12.664C7.90732 12.664 7.81398 12.6308 7.74066 12.564L6.30732 11.3108C5.85398 10.9108 5.79398 10.2308 6.17398 9.7574C6.55398 9.2774 7.24066 9.19076 7.73398 9.5574L8.00063 9.7574L8.26735 9.5574C8.76063 9.19076 9.44735 9.2774 9.82735 9.7574C10.2074 10.2308 10.1474 10.9108 9.69399 11.3108Z" fill="white"/>
</svg>
