<svg width="16" height="16" viewBox="0 0 16 16" fill="none" xmlns="http://www.w3.org/2000/svg">
<path d="M2.99961 2.39844C2.22641 2.39844 1.59961 3.02524 1.59961 3.79844V6.40717C2.00373 6.14844 2.48415 5.99844 2.99961 5.99844H12.9996C13.515 5.99844 13.9955 6.14844 14.3996 6.40717V5.39844C14.3996 4.62524 13.7728 3.99844 12.9996 3.99844H9.13097C9.07793 3.99844 9.02705 3.97737 8.98953 3.93986L7.85819 2.80849C7.59563 2.54593 7.23955 2.39844 6.86824 2.39844H2.99961Z" fill="#0F172A"/>
<path d="M2.99961 7.19922C2.22641 7.19922 1.59961 7.82602 1.59961 8.59922V12.1992C1.59961 12.9724 2.22641 13.5992 2.99961 13.5992H12.9996C13.7728 13.5992 14.3996 12.9724 14.3996 12.1992V8.59922C14.3996 7.82602 13.7728 7.19922 12.9996 7.19922H2.99961Z" fill="#0F172A"/>
</svg>
