<svg width="16" height="16" viewBox="0 0 16 16" fill="none" xmlns="http://www.w3.org/2000/svg">
<path d="M3.80039 2.39844C3.02719 2.39844 2.40039 3.02524 2.40039 3.79844V5.99971C2.42793 5.99886 2.45561 5.99844 2.48341 5.99844H13.5171C13.545 5.99844 13.5727 5.99887 13.6004 5.99973V5.39844C13.6004 4.62524 12.9736 3.99844 12.2004 3.99844H9.13175C9.07871 3.99844 9.02783 3.97737 8.99031 3.93986L7.85897 2.80849C7.59642 2.54593 7.24033 2.39844 6.86902 2.39844H3.80039Z" fill="#0F172A"/>
<path d="M2.48298 7.19922C1.54105 7.19922 0.867887 8.11066 1.14489 9.01098L2.25258 12.611C2.43333 13.1983 2.97607 13.5992 3.59068 13.5992H12.409C13.0236 13.5992 13.5663 13.1983 13.747 12.611L14.8547 9.01098C15.1318 8.11066 14.4586 7.19922 13.5166 7.19922H2.48298Z" fill="#0F172A"/>
</svg>
