<svg width="16" height="16" viewBox="0 0 16 16" fill="none" xmlns="http://www.w3.org/2000/svg">
<path d="M14.0119 5.33043C14.2772 5.70815 13.961 6.16927 13.4994 6.16927H2.00066C1.63246 6.16927 1.33398 5.87079 1.33398 5.5026V4.2826C1.33398 2.65594 2.65398 1.33594 4.28066 1.33594H5.82732C6.91398 1.33594 7.25398 1.68927 7.68732 2.26927L8.62063 3.50927C8.82735 3.7826 8.85399 3.81594 9.24063 3.81594H11.1006C12.3038 3.81594 13.3684 4.41399 14.0119 5.33043Z" fill="white"/>
<path d="M14.6562 7.82846C14.655 7.4612 14.3569 7.16406 13.9896 7.16406L2.00064 7.16426C1.63246 7.16426 1.33398 7.4628 1.33398 7.83093V11.0976C1.33398 13.0644 2.93398 14.6644 4.90066 14.6644H11.1006C13.0674 14.6644 14.6674 13.0644 14.6674 11.0976L14.6562 7.82846ZM9.66735 11.1644H8.54063V12.331C8.54063 12.6044 8.31399 12.831 8.04063 12.831C7.76066 12.831 7.54066 12.6044 7.54066 12.331V11.1644H6.33398C6.06066 11.1644 5.83398 10.9376 5.83398 10.6644C5.83398 10.391 6.06066 10.1644 6.33398 10.1644H7.54066V8.99764C7.54066 8.72436 7.76066 8.49764 8.04063 8.49764C8.31399 8.49764 8.54063 8.72436 8.54063 8.99764V10.1644H9.66735C9.94063 10.1644 10.1674 10.391 10.1674 10.6644C10.1674 10.9376 9.94063 11.1644 9.66735 11.1644Z" fill="white"/>
</svg>
