<svg width="16" height="16" viewBox="0 0 16 16" fill="none" xmlns="http://www.w3.org/2000/svg">
<path fill-rule="evenodd" clip-rule="evenodd" d="M1.59961 3.79844C1.59961 3.02524 2.22641 2.39844 2.99961 2.39844H6.86824C7.23955 2.39844 7.59563 2.54593 7.85819 2.80849L8.98953 3.93986C9.02705 3.97737 9.07793 3.99844 9.13097 3.99844H12.9996C13.7728 3.99844 14.3996 4.62524 14.3996 5.39844V12.1984C14.3996 12.9716 13.7728 13.5984 12.9996 13.5984H2.99961C2.22641 13.5984 1.59961 12.9716 1.59961 12.1984V3.79844ZM9.79961 9.39844C10.131 9.39844 10.3996 9.1298 10.3996 8.79844C10.3996 8.46708 10.131 8.19844 9.79961 8.19844H6.19961C5.86824 8.19844 5.59961 8.46708 5.59961 8.79844C5.59961 9.1298 5.86824 9.39844 6.19961 9.39844H9.79961Z" fill="#0F172A"/>
</svg>
