<svg width="16" height="16" viewBox="0 0 16 16" fill="none" xmlns="http://www.w3.org/2000/svg">
<path d="M12.9572 2.69226C13.0455 2.83087 12.8944 2.99235 12.7341 2.95594C12.4208 2.8626 12.0741 2.81594 11.7208 2.81594H9.52069C9.41581 2.81594 9.31717 2.76663 9.25413 2.68285L8.48749 1.6626C8.39365 1.52956 8.48237 1.33594 8.64525 1.33594H10.4808C11.5215 1.33594 12.4382 1.87643 12.9572 2.69226Z" fill="white"/>
<path d="M13.4274 4.3626C13.1406 4.15594 12.814 4.0026 12.4606 3.91594C12.2206 3.84927 11.974 3.81594 11.7206 3.81594H9.24063C8.85399 3.81594 8.82735 3.7826 8.62063 3.50927L7.68732 2.26927C7.25398 1.68927 6.91398 1.33594 5.82732 1.33594H4.28066C2.65398 1.33594 1.33398 2.65594 1.33398 4.2826V11.7226C1.33398 13.3492 2.65398 14.6692 4.28066 14.6692H11.7206C13.3474 14.6692 14.6674 13.3492 14.6674 11.7226V6.7626C14.6674 5.76927 14.1806 4.89594 13.4274 4.3626ZM9.59399 10.896H6.40066C6.14066 10.896 5.94066 10.6892 5.94066 10.4292C5.94066 10.176 6.14066 9.9626 6.40066 9.9626H9.59399C9.85399 9.9626 10.0606 10.176 10.0606 10.4292C10.0606 10.6892 9.85399 10.896 9.59399 10.896Z" fill="white"/>
</svg>
