<svg width="16" height="16" viewBox="0 0 16 16" fill="none" xmlns="http://www.w3.org/2000/svg">
<path fill-rule="evenodd" clip-rule="evenodd" d="M2.99961 2.39844C2.22641 2.39844 1.59961 3.02524 1.59961 3.79844V12.1984C1.59961 12.9716 2.22641 13.5984 2.99961 13.5984H12.9996C13.7728 13.5984 14.3996 12.9716 14.3996 12.1984V5.39844C14.3996 4.62524 13.7728 3.99844 12.9996 3.99844H9.13097C9.07793 3.99844 9.02705 3.97737 8.98953 3.93986L7.85819 2.80849C7.59563 2.54593 7.23955 2.39844 6.86824 2.39844H2.99961ZM7.99961 6.39844C8.33097 6.39844 8.59961 6.66707 8.59961 6.99844V8.19844H9.79961C10.131 8.19844 10.3996 8.46708 10.3996 8.79844C10.3996 9.1298 10.131 9.39844 9.79961 9.39844H8.59961V10.5984C8.59961 10.9298 8.33097 11.1984 7.99961 11.1984C7.66824 11.1984 7.39961 10.9298 7.39961 10.5984V9.39844H6.19961C5.86824 9.39844 5.59961 9.1298 5.59961 8.79844C5.59961 8.46708 5.86824 8.19844 6.19961 8.19844H7.39961V6.99844C7.39961 6.66707 7.66824 6.39844 7.99961 6.39844Z" fill="#0F172A"/>
</svg>
