<svg width="16" height="16" viewBox="0 0 16 16" fill="none" xmlns="http://www.w3.org/2000/svg">
<path d="M8.50063 10.6692H10.334C12.2006 10.6692 12.6674 10.2026 12.6674 8.33596V5.53594C12.6674 3.66927 12.2006 3.2026 10.334 3.2026H8.93399C8.46735 3.2026 8.36735 3.0626 8.18735 2.82927L7.48732 1.89594C7.22066 1.5426 7.06732 1.33594 6.36732 1.33594H5.66732C3.80066 1.33594 3.33398 1.8026 3.33398 3.66927V8.33596C3.33398 10.2026 3.80066 10.6692 5.66732 10.6692H7.50066V12.6692C7.50066 12.7026 7.51398 12.7292 7.52066 12.7626C7.17398 12.896 6.89398 13.176 6.76066 13.5226C6.72732 13.516 6.70066 13.5026 6.66732 13.5026H4.00066C3.72732 13.5026 3.50066 13.7292 3.50066 14.0026C3.50066 14.276 3.72732 14.5026 4.00066 14.5026H6.66732C6.70066 14.5026 6.72732 14.4892 6.76066 14.4826C6.95398 14.9826 7.43398 15.336 8.00063 15.336C8.56735 15.336 9.04735 14.9826 9.24063 14.4826C9.27399 14.4892 9.30063 14.5026 9.33399 14.5026H12.0006C12.274 14.5026 12.5006 14.276 12.5006 14.0026C12.5006 13.7292 12.274 13.5026 12.0006 13.5026H9.33399C9.30063 13.5026 9.27399 13.516 9.24063 13.5226C9.10735 13.176 8.82735 12.896 8.48063 12.7626C8.48735 12.7292 8.50063 12.7026 8.50063 12.6692V10.6692Z" fill="white"/>
</svg>
