<svg width="16" height="16" viewBox="0 0 16 16" fill="none" xmlns="http://www.w3.org/2000/svg">
<path d="M11.3474 1.9226C11.0274 1.6026 10.3874 1.33594 9.93399 1.33594H6.06732C5.61398 1.33594 4.97398 1.6026 4.65398 1.9226L1.92066 4.65594C1.60066 4.97594 1.33398 5.61594 1.33398 6.06927V9.93596C1.33398 10.3892 1.60066 11.0292 1.92066 11.3492L2.94066 12.3692L12.3674 2.9426L11.3474 1.9226Z" fill="white"/>
<path d="M14.0798 4.65511L13.0731 3.64844L3.64648 13.0751L4.65316 14.0818C4.97316 14.4018 5.61316 14.6684 6.06648 14.6684H9.93313C10.3865 14.6684 11.0265 14.4018 11.3465 14.0818L14.0798 11.3484C14.3998 11.0284 14.6665 10.3884 14.6665 9.93509V6.06844C14.6665 5.61511 14.3998 4.97511 14.0798 4.65511Z" fill="white"/>
<path d="M1.66062 13.6472C1.46729 13.8405 1.46729 14.1605 1.66062 14.3539C1.76062 14.4539 1.88729 14.5005 2.01396 14.5005C2.14062 14.5005 2.26729 14.4539 2.36729 14.3539L3.64729 13.0739L2.94062 12.3672L1.66062 13.6472Z" fill="white"/>
<path d="M14.3538 2.36729C14.5472 2.17396 14.5472 1.85396 14.3538 1.66063C14.1605 1.46729 13.8405 1.46729 13.6472 1.66063L12.3672 2.94063L13.0738 3.64729L14.3538 2.36729Z" fill="white"/>
</svg>
