<svg width="16" height="16" viewBox="0 0 16 16" fill="none" xmlns="http://www.w3.org/2000/svg">
<path d="M14.0806 4.65594L11.3474 1.9226C11.0274 1.6026 10.3874 1.33594 9.93399 1.33594H6.06732C5.61398 1.33594 4.97398 1.6026 4.65398 1.9226L1.92066 4.65594C1.60066 4.97594 1.33398 5.61594 1.33398 6.06927V9.93596C1.33398 10.3892 1.60066 11.0292 1.92066 11.3492L4.65398 14.0826C4.97398 14.4026 5.61398 14.6692 6.06732 14.6692H9.93399C10.3874 14.6692 11.0274 14.4026 11.3474 14.0826L14.0806 11.3492C14.4006 11.0292 14.6674 10.3892 14.6674 9.93596V6.06927C14.6674 5.61594 14.4006 4.97594 14.0806 4.65594ZM10.6874 9.9826C10.8806 10.176 10.8806 10.496 10.6874 10.6892C10.5874 10.7892 10.4606 10.836 10.334 10.836C10.2074 10.836 10.0806 10.7892 9.98063 10.6892L8.00063 8.70924L6.02066 10.6892C5.92066 10.7892 5.79398 10.836 5.66732 10.836C5.54066 10.836 5.41398 10.7892 5.31398 10.6892C5.12066 10.496 5.12066 10.176 5.31398 9.9826L7.29398 8.0026L5.31398 6.0226C5.12066 5.82927 5.12066 5.50927 5.31398 5.31594C5.50732 5.1226 5.82732 5.1226 6.02066 5.31594L8.00063 7.29594L9.98063 5.31594C10.174 5.1226 10.494 5.1226 10.6874 5.31594C10.8806 5.50927 10.8806 5.82927 10.6874 6.0226L8.70735 8.0026L10.6874 9.9826Z" fill="white"/>
</svg>
