<svg width="16" height="16" viewBox="0 0 16 16" fill="none" xmlns="http://www.w3.org/2000/svg">
<g clip-path="url(#clip0_13_13856)">
<path d="M13.834 11.0026V5.0026C14.6274 4.66927 15.1674 3.88927 15.1674 3.0026C15.1674 1.80927 14.194 0.835938 13.0006 0.835938C12.1206 0.835938 11.334 1.37594 11.0006 2.16927H5.00066C4.66732 1.37594 3.88732 0.835938 3.00066 0.835938C1.80732 0.835938 0.833984 1.80927 0.833984 3.0026C0.833984 3.8826 1.37398 4.66927 2.16732 5.0026V11.0026C1.37398 11.336 0.833984 12.116 0.833984 13.0026C0.833984 14.196 1.80732 15.1692 3.00066 15.1692C3.88066 15.1692 4.66732 14.6292 5.00066 13.836H11.0006C11.334 14.6292 12.114 15.1692 13.0006 15.1692C14.194 15.1692 15.1674 14.196 15.1674 13.0026C15.1674 12.1226 14.6274 11.336 13.834 11.0026ZM12.774 10.8492C12.7006 10.856 12.634 10.8692 12.5606 10.8826C12.3806 10.916 12.2074 10.976 12.0406 11.0626C12.0006 11.0826 11.9606 11.1026 11.9206 11.1292C11.5874 11.316 11.314 11.5892 11.1274 11.9226C11.1006 11.9626 11.0806 12.0026 11.0606 12.0426C10.974 12.2092 10.914 12.3826 10.8806 12.5626C10.8674 12.636 10.854 12.7026 10.8474 12.776C10.8406 12.796 10.8406 12.816 10.8406 12.836H5.16066C5.14732 12.6692 5.11398 12.5092 5.06732 12.356C5.05398 12.3026 5.03398 12.2426 5.00732 12.1892C4.98732 12.1426 4.96732 12.096 4.94066 12.0426C4.92066 12.0026 4.90066 11.9626 4.87398 11.9226C4.68732 11.5892 4.41398 11.316 4.08066 11.1292C4.04066 11.1026 4.00066 11.0826 3.96066 11.0626C3.90732 11.036 3.86066 11.016 3.81398 10.996C3.76066 10.9692 3.70066 10.9492 3.64732 10.936C3.49398 10.8892 3.33398 10.856 3.16732 10.8426V5.1626C3.34066 5.14927 3.50066 5.11594 3.66066 5.0626C3.72066 5.04927 3.78732 5.0226 3.84732 4.99594C3.88066 4.9826 3.92066 4.9626 3.96066 4.9426C4.00066 4.9226 4.04066 4.9026 4.08066 4.87594C4.41398 4.68927 4.68732 4.41594 4.87398 4.0826C4.90066 4.0426 4.92066 4.0026 4.94066 3.9626C4.96066 3.9226 4.98066 3.8826 4.99398 3.84927C5.02066 3.78927 5.04732 3.7226 5.06066 3.6626C5.11398 3.5026 5.14732 3.3426 5.16066 3.16927H10.8406C10.854 3.34927 10.8874 3.51594 10.9474 3.6826C10.9606 3.73594 10.9806 3.79594 11.0074 3.84927C11.0206 3.88927 11.0406 3.9226 11.0606 3.9626C11.0806 4.0026 11.1006 4.0426 11.1274 4.0826C11.314 4.41594 11.5874 4.68927 11.9206 4.87594C11.9606 4.9026 12.0006 4.9226 12.0406 4.9426C12.0806 4.9626 12.114 4.9826 12.154 4.99594C12.2074 5.0226 12.2674 5.0426 12.3206 5.05594C12.4874 5.11594 12.654 5.14927 12.834 5.1626V10.8426C12.814 10.8426 12.794 10.8426 12.774 10.8492Z" fill="white"/>
</g>
<defs>
<clipPath id="clip0_13_13856">
<rect width="16" height="16" fill="white"/>
</clipPath>
</defs>
</svg>
