<svg width="16" height="16" viewBox="0 0 16 16" fill="none" xmlns="http://www.w3.org/2000/svg">
<path d="M14.0674 5.24927C14.454 4.8226 14.6674 4.26927 14.6674 3.68927C14.6674 2.38927 13.614 1.33594 12.314 1.33594C11.734 1.33594 11.1874 1.54927 10.7606 1.93594C9.90063 1.53594 8.97399 1.33594 8.00063 1.33594C7.04732 1.33594 6.10066 1.5426 5.24732 1.93594C4.82066 1.54927 4.26732 1.33594 3.68732 1.33594C2.38732 1.33594 1.33398 2.38927 1.33398 3.68927C1.33398 4.26927 1.54732 4.8226 1.93398 5.24927C1.54066 6.1026 1.33398 7.04927 1.33398 8.0026C1.33398 8.97596 1.53398 9.9026 1.93398 10.7626C1.54732 11.1892 1.33398 11.736 1.33398 12.316C1.33398 13.616 2.38732 14.6692 3.68732 14.6692C4.26732 14.6692 4.82066 14.456 5.24732 14.0692C6.10066 14.4626 7.04732 14.6692 8.00063 14.6692C8.97399 14.6692 9.90063 14.4692 10.7606 14.0692C11.1874 14.456 11.734 14.6692 12.314 14.6692C13.614 14.6692 14.6674 13.616 14.6674 12.316C14.6674 11.736 14.454 11.1892 14.0674 10.7626C14.4674 9.9026 14.6674 8.97596 14.6674 8.0026C14.6674 7.04927 14.4606 6.1026 14.0674 5.24927ZM13.1206 10.116C13.0474 10.0892 12.974 10.0626 12.9006 10.0426C12.7874 10.016 12.6674 9.99596 12.554 9.9826C12.474 9.97596 12.394 9.96924 12.314 9.96924C11.0206 9.96924 9.96735 11.0226 9.96735 12.316C9.96735 12.396 9.97399 12.476 9.98063 12.556C9.99399 12.6692 10.014 12.7892 10.0406 12.9026C10.0606 12.976 10.0874 13.0492 10.114 13.1226C10.114 13.1426 10.1206 13.1626 10.134 13.1826C10.1406 13.2026 10.1474 13.2226 10.154 13.2426C8.81399 13.8026 7.21398 13.8092 5.84732 13.2426C5.85398 13.2226 5.86066 13.2026 5.86732 13.1826C5.88066 13.1626 5.88732 13.1426 5.88732 13.1226C5.91398 13.0492 5.94066 12.976 5.96066 12.9026C5.98732 12.7892 6.00732 12.6692 6.02066 12.556C6.02732 12.476 6.03398 12.396 6.03398 12.316C6.03398 11.0226 4.98066 9.96924 3.68732 9.96924C3.60732 9.96924 3.52732 9.97596 3.44732 9.9826C3.33398 9.99596 3.21398 10.016 3.10066 10.0426C3.02732 10.0626 2.95398 10.0892 2.88066 10.116C2.86066 10.116 2.84066 10.1226 2.82066 10.136C2.80066 10.1426 2.78066 10.1492 2.76066 10.156C2.47398 9.4826 2.33398 8.75596 2.33398 8.0026C2.33398 7.2626 2.48066 6.5226 2.76066 5.84927C2.76732 5.84927 2.78066 5.85594 2.78732 5.85594C2.70732 5.8226 2.62066 5.7826 2.54732 5.7426C2.44066 5.6826 2.33398 5.61594 2.23398 5.53594C2.43398 5.68927 2.64732 5.80927 2.88066 5.88927C2.96066 5.9226 3.04732 5.94927 3.12732 5.96927C3.18066 5.9826 3.22732 5.98927 3.27398 5.99594C3.33398 6.00927 3.38732 6.01594 3.44732 6.0226C3.52732 6.02927 3.60732 6.03594 3.68732 6.03594C4.98066 6.03594 6.03398 4.9826 6.03398 3.68927C6.03398 3.60927 6.02732 3.52927 6.02066 3.44927C6.01398 3.38927 6.00732 3.33594 5.99398 3.27594C5.98732 3.22927 5.98066 3.1826 5.96732 3.12927C5.94732 3.04927 5.92066 2.9626 5.88732 2.8826C5.80732 2.64927 5.68732 2.43594 5.53398 2.23594C5.61398 2.33594 5.68066 2.4426 5.74066 2.54927C5.78066 2.6226 5.82066 2.70927 5.85398 2.78927C5.85398 2.7826 5.84732 2.76927 5.84732 2.7626C7.20732 2.19594 8.81399 2.2026 10.154 2.7626C10.1474 2.7826 10.1406 2.8026 10.134 2.8226C10.1206 2.8426 10.114 2.8626 10.114 2.8826C10.0874 2.95594 10.0606 3.02927 10.0406 3.1026C10.014 3.21594 9.99399 3.33594 9.98063 3.44927C9.97399 3.52927 9.96735 3.60927 9.96735 3.68927C9.96735 4.9826 11.0206 6.03594 12.314 6.03594C12.394 6.03594 12.474 6.02927 12.554 6.0226C12.6674 6.00927 12.7874 5.98927 12.9006 5.9626C12.974 5.9426 13.0474 5.91594 13.1206 5.88927C13.1406 5.88927 13.1606 5.8826 13.1806 5.86927C13.2006 5.8626 13.2206 5.85594 13.2406 5.84927C13.5206 6.5226 13.6674 7.2626 13.6674 8.0026C13.6674 8.75596 13.5274 9.4826 13.2406 10.156C13.2206 10.1492 13.2006 10.1426 13.1806 10.136C13.1606 10.1226 13.1406 10.116 13.1206 10.116Z" fill="white"/>
</svg>
