<svg width="16" height="16" viewBox="0 0 16 16" fill="none" xmlns="http://www.w3.org/2000/svg">
<path d="M14.1678 3.84927V6.0026C14.1678 7.41234 13.6959 7.93527 12.4216 8.00716C12.2378 8.01748 12.0878 7.86667 12.0878 7.6826V6.9226C12.0878 4.8426 11.1611 3.91594 9.0811 3.91594H8.3211C8.13702 3.91594 7.9862 3.7659 7.9966 3.5821C8.06838 2.30775 8.59142 1.83594 10.0011 1.83594H12.1545C13.6811 1.83594 14.1678 2.3226 14.1678 3.84927Z" fill="white"/>
<path d="M11.0874 6.9207V9.08069C11.0874 10.6007 10.6007 11.0874 9.0807 11.0874H6.92072C5.40073 11.0874 4.91406 10.6007 4.91406 9.08069V6.9207C4.91406 5.40073 5.40073 4.91406 6.92072 4.91406H9.0807C10.6007 4.91406 11.0874 5.40073 11.0874 6.9207Z" fill="white"/>
<path d="M7.68066 12.0839C7.86472 12.0839 8.01551 12.2339 8.00519 12.4177C7.93332 13.692 7.41038 14.1639 6.00066 14.1639H3.84732C2.32066 14.1639 1.83398 13.6772 1.83398 12.1506V9.99724C1.83398 8.58748 2.30581 8.06452 3.58014 7.9927C3.76394 7.9823 3.91398 8.13308 3.91398 8.31724V9.07724C3.91398 11.1572 4.84066 12.0839 6.92066 12.0839H7.68066Z" fill="white"/>
</svg>
