<svg width="16" height="16" viewBox="0 0 16 16" fill="none" xmlns="http://www.w3.org/2000/svg">
<path d="M9.62094 11.2776H8.0943C7.82093 11.2776 7.59427 11.0509 7.59427 10.7776C7.59427 10.5043 7.82093 10.2776 8.0943 10.2776H9.62094C9.90758 10.2776 10.1409 10.0443 10.1409 9.75764C10.1409 9.47092 9.90758 9.23764 9.62094 9.23764H8.0943C7.93427 9.23764 7.78093 9.15764 7.6876 9.03092C7.59427 8.90428 7.5676 8.73092 7.62093 8.57764L8.12758 7.05095C8.1943 6.84427 8.38758 6.71094 8.60094 6.71094H10.6409C10.9143 6.71094 11.1409 6.93761 11.1409 7.21095C11.1409 7.48427 10.9143 7.71095 10.6409 7.71095H8.96094L8.78758 8.23764H9.62094C10.4609 8.23764 11.1409 8.91764 11.1409 9.75764C11.1409 10.5976 10.4543 11.2776 9.62094 11.2776Z" fill="white"/>
<path d="M6.36093 11.2818C6.08759 11.2818 5.86093 11.0552 5.86093 10.7818V8.52182L5.73425 8.66854C5.54759 8.87518 5.23425 8.88854 5.02759 8.70854C4.82759 8.52182 4.80759 8.20854 4.99425 8.00182L5.99425 6.88851C6.13425 6.73517 6.35425 6.68185 6.54759 6.75517C6.74092 6.82851 6.86758 7.01517 6.86758 7.22185V10.7885C6.86092 11.0618 6.64093 11.2818 6.36093 11.2818Z" fill="white"/>
<path d="M13.1264 4.9005C12.9598 4.6805 12.6464 4.63384 12.4264 4.8005C12.2064 4.96717 12.1598 5.2805 12.3264 5.5005C13.0464 6.4605 13.4264 7.58053 13.4264 8.74054C13.4264 11.7339 10.993 14.1672 7.99973 14.1672C5.00641 14.1672 2.57307 11.7339 2.57307 8.74054C2.57307 5.74717 5.00641 3.3205 7.99973 3.3205C8.3864 3.3205 8.77976 3.36717 9.2064 3.46717C9.2264 3.47384 9.2464 3.46717 9.2664 3.46717C9.2864 3.46717 9.29976 3.4805 9.31304 3.4805C9.33304 3.4805 9.3464 3.47384 9.3664 3.47384C9.3864 3.47384 9.4064 3.46717 9.43304 3.4605C9.47304 3.45384 9.5064 3.43384 9.53976 3.4205C9.55976 3.40717 9.57976 3.4005 9.59976 3.38717C9.6064 3.3805 9.61976 3.3805 9.6264 3.37384C9.6464 3.3605 9.65304 3.3405 9.6664 3.32717C9.69304 3.3005 9.71304 3.2805 9.73304 3.24717C9.75304 3.2205 9.75976 3.18717 9.77304 3.15384C9.77976 3.13384 9.79304 3.11384 9.79976 3.09384C9.79976 3.0805 9.79976 3.07384 9.79976 3.0605C9.8064 3.02717 9.8064 2.99384 9.79976 2.9605C9.79976 2.92717 9.79976 2.9005 9.79304 2.86717C9.7864 2.8405 9.77304 2.81384 9.75976 2.7805C9.7464 2.74717 9.73304 2.71384 9.71304 2.68717C9.71304 2.6805 9.71304 2.67384 9.7064 2.66717L8.3864 1.0205C8.21304 0.807173 7.89973 0.767171 7.6864 0.940501C7.47306 1.11384 7.43973 1.42717 7.6064 1.6405L8.15304 2.3205C8.09976 2.3205 8.0464 2.31384 7.99306 2.31384C4.45307 2.31384 1.56641 5.19384 1.56641 8.74054C1.56641 12.2872 4.44641 15.1672 7.99306 15.1672C11.5398 15.1672 14.4198 12.2872 14.4198 8.74054C14.4264 7.36053 13.973 6.03384 13.1264 4.9005Z" fill="white"/>
</svg>
