<svg width="16" height="16" viewBox="0 0 16 16" fill="none" xmlns="http://www.w3.org/2000/svg">
<path d="M12.9873 4.72441C12.814 4.51108 12.5006 4.47774 12.2873 4.65108C12.074 4.82441 12.0406 5.13774 12.214 5.35108C12.9673 6.28441 13.3873 7.39106 13.4273 8.55108C13.534 11.5377 11.1873 14.0577 8.19398 14.1577C5.20067 14.2644 2.68734 11.9177 2.58067 8.93108C2.47401 5.94441 4.82067 3.42441 7.81399 3.32441C8.19398 3.31108 8.59398 3.34441 9.02734 3.43108C9.05398 3.43774 9.08062 3.43108 9.10734 3.43108C9.17398 3.46441 9.25398 3.48441 9.32734 3.48441C9.44062 3.48441 9.54734 3.45108 9.64062 3.37108C9.85398 3.19774 9.88734 2.88441 9.72062 2.67108L8.40062 1.02441C8.22734 0.811077 7.91399 0.771076 7.70065 0.944413C7.48732 1.11774 7.45399 1.43108 7.62065 1.64441L8.17398 2.33108C8.04734 2.32441 7.91399 2.31774 7.78732 2.32441C4.24734 2.44441 1.46734 5.43108 1.59401 8.97108C1.72067 12.5111 4.70067 15.2911 8.24062 15.1644C11.7806 15.0377 14.5606 12.0577 14.434 8.51772C14.374 7.13773 13.8806 5.82441 12.9873 4.72441Z" fill="white"/>
<path d="M8.25374 11.2776H6.72705C6.45374 11.2776 6.22708 11.0509 6.22708 10.7776C6.22708 10.5043 6.45374 10.2776 6.72705 10.2776H8.25374C8.54038 10.2776 8.77374 10.0443 8.77374 9.75764C8.77374 9.47092 8.54038 9.23764 8.25374 9.23764H6.72705C6.56708 9.23764 6.41374 9.15764 6.32041 9.03092C6.22708 8.90428 6.20041 8.73092 6.25374 8.57764L6.76038 7.05095C6.82705 6.84427 7.02038 6.71094 7.23372 6.71094H9.27374C9.54702 6.71094 9.77374 6.93761 9.77374 7.21095C9.77374 7.48427 9.54702 7.71095 9.27374 7.71095H7.59372L7.42038 8.23764H8.25374C9.09374 8.23764 9.77374 8.91764 9.77374 9.75764C9.77374 10.5976 9.09374 11.2776 8.25374 11.2776Z" fill="white"/>
</svg>
