<svg width="16" height="16" viewBox="0 0 16 16" fill="none" xmlns="http://www.w3.org/2000/svg">
<path d="M13.1264 4.90159C12.9598 4.68159 12.6464 4.63493 12.4264 4.80159C12.2064 4.96827 12.1598 5.28159 12.3264 5.50159C13.0464 6.4616 13.4264 7.58157 13.4264 8.74156C13.4264 11.7349 10.993 14.1682 7.99973 14.1682C5.00641 14.1682 2.57307 11.7349 2.57307 8.74156C2.57307 5.74827 5.00641 3.3216 7.99973 3.3216C8.3864 3.3216 8.77976 3.36827 9.2064 3.46827C9.2264 3.47493 9.2464 3.46827 9.27304 3.46827C9.2864 3.46827 9.3064 3.4816 9.31976 3.4816C9.33976 3.4816 9.35304 3.47493 9.37304 3.47493C9.39976 3.47493 9.41976 3.46827 9.43976 3.4616C9.47304 3.45493 9.5064 3.4416 9.53976 3.4216C9.55976 3.40827 9.5864 3.40159 9.6064 3.38827C9.61304 3.38159 9.6264 3.3816 9.63304 3.37493C9.65304 3.3616 9.65976 3.3416 9.67304 3.32827C9.69976 3.3016 9.71976 3.2816 9.73976 3.24827C9.75976 3.2216 9.7664 3.18827 9.77976 3.1616C9.7864 3.1416 9.79976 3.1216 9.8064 3.1016C9.8064 3.08827 9.8064 3.0816 9.8064 3.06827C9.81304 3.03493 9.81304 3.0016 9.8064 2.96827C9.8064 2.93493 9.8064 2.90827 9.79976 2.87493C9.79304 2.84827 9.77976 2.8216 9.7664 2.78827C9.75304 2.75493 9.73976 2.7216 9.71976 2.69493C9.71304 2.6816 9.71304 2.67493 9.7064 2.66827L8.3864 1.0216C8.21304 0.808267 7.89973 0.774932 7.6864 0.941595C7.47306 1.11493 7.43973 1.42827 7.6064 1.64159L8.15304 2.32159C8.09976 2.32159 8.0464 2.31493 7.99306 2.31493C4.45307 2.31493 1.56641 5.19493 1.56641 8.74156C1.56641 12.2882 4.44641 15.1682 7.99306 15.1682C11.5398 15.1682 14.4198 12.2882 14.4198 8.74156C14.4264 7.36157 13.973 6.03493 13.1264 4.90159Z" fill="white"/>
<path d="M6.36035 11.1139C6.08702 11.1139 5.86035 10.8872 5.86035 10.6139V8.35388L5.73369 8.50052C5.54702 8.70716 5.23369 8.72052 5.02702 8.54052C4.82035 8.35388 4.80702 8.04052 4.98702 7.83386L5.98702 6.72054C6.12702 6.56721 6.34702 6.51387 6.54035 6.58721C6.73372 6.66054 6.86038 6.8472 6.86038 7.05387V10.6205C6.86038 10.8939 6.64035 11.1139 6.36035 11.1139Z" fill="white"/>
<path d="M9.33336 11.1135C8.32 11.1135 7.5 10.2935 7.5 9.28024V8.38024C7.5 7.36687 8.32 6.54688 9.33336 6.54688C10.3466 6.54688 11.1666 7.36687 11.1666 8.38024V9.28024C11.1666 10.2935 10.3466 11.1135 9.33336 11.1135ZM9.33336 7.55354C8.87336 7.55354 8.5 7.92687 8.5 8.38688V9.28688C8.5 9.74688 8.87336 10.1202 9.33336 10.1202C9.79336 10.1202 10.1666 9.74688 10.1666 9.28688V8.38688C10.1666 7.92687 9.79336 7.55354 9.33336 7.55354Z" fill="white"/>
</svg>
