<svg width="16" height="16" viewBox="0 0 16 16" fill="none" xmlns="http://www.w3.org/2000/svg">
<path d="M10.794 1.33594H5.20732C2.78066 1.33594 1.33398 2.7826 1.33398 5.20927V10.7892C1.33398 13.2226 2.78066 14.6692 5.20732 14.6692H10.7874C13.214 14.6692 14.6606 13.2226 14.6606 10.796V5.20927C14.6674 2.7826 13.2206 1.33594 10.794 1.33594ZM11.6874 6.4826L10.6406 7.52927C10.5406 7.62927 10.414 7.67594 10.2874 7.67594C10.1606 7.67594 10.034 7.62927 9.93399 7.52927C9.74063 7.33594 9.74063 7.01594 9.93399 6.8226L10.1074 6.64927H6.72066C5.86732 6.64927 5.16732 7.3426 5.16732 8.2026C5.16732 9.0626 5.86066 9.75596 6.72066 9.75596H10.0006C10.274 9.75596 10.5006 9.9826 10.5006 10.256C10.5006 10.5292 10.274 10.756 10.0006 10.756H6.72066C5.31398 10.756 4.16732 9.60924 4.16732 8.2026C4.16732 6.79594 5.31398 5.64927 6.72066 5.64927H10.154L9.93399 5.43594C9.74063 5.2426 9.74063 4.9226 9.93399 4.72927C10.1274 4.53594 10.4474 4.53594 10.6406 4.72927L11.6874 5.77594C11.8806 5.97594 11.8806 6.28927 11.6874 6.4826Z" fill="white"/>
</svg>
