<svg width="16" height="16" viewBox="0 0 16 16" fill="none" xmlns="http://www.w3.org/2000/svg">
<path d="M13.6058 4.64094V5.86094C13.6058 6.2876 13.4058 6.68763 13.0592 6.93431L5.72591 12.3076C5.25258 12.6543 4.60591 12.6543 4.13924 12.301L3.17924 11.581C2.74591 11.2543 2.39258 10.5476 2.39258 10.0076V4.64094C2.39258 3.89427 2.96591 3.0676 3.66591 2.8076L7.31255 1.44094C7.69255 1.30094 8.30585 1.30094 8.68585 1.44094L12.3326 2.8076C13.0326 3.0676 13.6058 3.89427 13.6058 4.64094Z" fill="white"/>
<path d="M12.5464 8.22629C12.9864 7.90628 13.6064 8.21965 13.6064 8.76629V10.0197C13.6064 10.5597 13.253 11.2597 12.8198 11.5863L9.17304 14.3129C8.85304 14.5463 8.4264 14.6663 7.99974 14.6663C7.57306 14.6663 7.1464 14.5463 6.8264 14.3063L6.27308 13.8929C5.91308 13.6263 5.91308 13.0863 6.27974 12.8197L12.5464 8.22629Z" fill="white"/>
</svg>
