<svg width="16" height="16" viewBox="0 0 16 16" fill="none" xmlns="http://www.w3.org/2000/svg">
<path d="M5.34602 3.07812H4.65268C3.59268 3.07812 3.16602 3.47812 3.16602 4.49145V12.4114H6.83268V4.49145C6.82602 3.47812 6.39935 3.07812 5.34602 3.07812Z" fill="white"/>
<path d="M11.014 6.41406H10.3206C9.26062 6.41406 8.83398 6.82071 8.83398 7.82737V12.414H12.5006V7.82737C12.5006 6.82071 12.0673 6.41406 11.014 6.41406Z" fill="white"/>
<path d="M1.83398 11.9219H14.1674C14.4406 11.9219 14.6674 12.1486 14.6674 12.4219C14.6674 12.6952 14.4406 12.9219 14.1674 12.9219H1.83398C1.56066 12.9219 1.33398 12.6952 1.33398 12.4152C1.33398 12.1352 1.56066 11.9219 1.83398 11.9219Z" fill="white"/>
</svg>
