<svg width="16" height="16" viewBox="0 0 16 16" fill="none" xmlns="http://www.w3.org/2000/svg">
<path d="M3 6.9947V10.9547C3 11.1614 3.09334 11.3614 3.24666 11.4947L6.82 14.5546C7.28666 14.9546 8 14.6214 8 14.0147V11.2814H11.2734C11.9066 11.2814 12.2266 10.5147 11.78 10.0614L8 6.28135H3.71334C3.32001 6.27469 3 6.59466 3 6.9947Z" fill="white"/>
<path d="M12.2866 1.27344H4.72654C4.0932 1.27344 3.77319 2.04009 4.21986 2.49342L7.99987 6.27344H12.2866C12.6798 6.27344 12.9998 5.95343 12.9998 5.56009V1.98677C12.9998 1.59344 12.6798 1.27344 12.2866 1.27344Z" fill="white"/>
</svg>
