<svg width="16" height="16" viewBox="0 0 16 16" fill="none" xmlns="http://www.w3.org/2000/svg">
<path d="M7.33268 13.2692V2.73594C7.33268 1.73594 6.90602 1.33594 5.84602 1.33594H3.15268C2.09268 1.33594 1.66602 1.73594 1.66602 2.73594V13.2692C1.66602 14.2692 2.09268 14.6692 3.15268 14.6692H5.84602C6.90602 14.6692 7.33268 14.2692 7.33268 13.2692Z" fill="white"/>
<path d="M14.3327 13.0908V10.2374C14.3327 9.37078 13.666 8.66406 12.846 8.66406H10.1527C9.33266 8.66406 8.66602 9.37078 8.66602 10.2374V13.0908C8.66602 13.9574 9.33266 14.6641 10.1527 14.6641H12.846C13.666 14.6641 14.3327 13.9574 14.3327 13.0908Z" fill="white"/>
<path d="M14.3327 5.7626V2.90927C14.3327 2.0426 13.666 1.33594 12.846 1.33594H10.1527C9.33266 1.33594 8.66602 2.0426 8.66602 2.90927V5.7626C8.66602 6.62927 9.33266 7.33594 10.1527 7.33594H12.846C13.666 7.33594 14.3327 6.62927 14.3327 5.7626Z" fill="white"/>
</svg>
