<svg width="16" height="16" viewBox="0 0 16 16" fill="none" xmlns="http://www.w3.org/2000/svg">
<path d="M12.666 5.33594C13.7707 5.33594 14.666 4.44051 14.666 3.33594C14.666 2.23137 13.7707 1.33594 12.666 1.33594C11.5615 1.33594 10.666 2.23137 10.666 3.33594C10.666 4.44051 11.5615 5.33594 12.666 5.33594Z" fill="white"/>
<path d="M11.8601 6.22748C10.8534 5.96081 10.0401 5.14748 9.77343 4.14081C9.60015 3.50081 9.64015 2.88748 9.83343 2.34081C9.96679 1.96748 9.74015 1.55415 9.35343 1.47415C8.37343 1.26748 7.31347 1.27415 6.2068 1.57415C3.6868 2.28081 1.76014 4.46081 1.40014 7.05412C0.786806 11.4674 4.5268 15.2074 8.94015 14.6008C11.5401 14.2408 13.7134 12.3141 14.4134 9.78742C14.7201 8.68742 14.7268 7.62744 14.5201 6.64081C14.4401 6.25415 14.0268 6.03415 13.6534 6.16081C13.1134 6.35415 12.5001 6.39415 11.8601 6.22748Z" fill="white"/>
</svg>
