<svg width="16" height="16" viewBox="0 0 16 16" fill="none" xmlns="http://www.w3.org/2000/svg">
<path d="M8.00063 1.33594C6.25398 1.33594 4.83398 2.75594 4.83398 4.5026C4.83398 6.21594 6.17398 7.6026 7.92066 7.6626C7.97398 7.65594 8.02735 7.65594 8.06735 7.6626C8.08063 7.6626 8.08735 7.6626 8.10063 7.6626C8.10735 7.6626 8.10735 7.6626 8.11399 7.6626C9.82063 7.6026 11.1606 6.21594 11.1674 4.5026C11.1674 2.75594 9.74735 1.33594 8.00063 1.33594Z" fill="white"/>
<path d="M11.3866 9.43391C9.52663 8.19391 6.49331 8.19391 4.61998 9.43391C3.77331 10.0005 3.30664 10.7673 3.30664 11.5873C3.30664 12.4073 3.77331 13.1673 4.61331 13.7273C5.54664 14.3539 6.77334 14.6673 8 14.6673C9.22663 14.6673 10.4534 14.3539 11.3866 13.7273C12.2266 13.1605 12.6934 12.4005 12.6934 11.5739C12.6866 10.7539 12.2266 9.99391 11.3866 9.43391Z" fill="white"/>
</svg>
