<svg width="16" height="16" viewBox="0 0 16 16" fill="none" xmlns="http://www.w3.org/2000/svg">
<path d="M14.0006 1.33594H6.00066C5.63398 1.33594 5.33398 1.63594 5.33398 2.0026V4.0026C5.33398 4.36927 5.63398 4.66927 6.00066 4.66927H14.0006C14.3674 4.66927 14.6674 4.36927 14.6674 4.0026V2.0026C14.6674 1.63594 14.3674 1.33594 14.0006 1.33594Z" fill="white"/>
<path d="M7.33268 11.3359H5.33268C4.96602 11.3359 4.66602 11.6359 4.66602 12.0026V14.0026C4.66602 14.3692 4.96602 14.6692 5.33268 14.6692H7.33268C7.69934 14.6692 7.99934 14.3692 7.99934 14.0026V12.0026C7.99934 11.6359 7.69934 11.3359 7.33268 11.3359Z" fill="white"/>
<path d="M4.00066 6.33594H2.00066C1.63398 6.33594 1.33398 6.63594 1.33398 7.0026V9.0026C1.33398 9.36924 1.63398 9.66924 2.00066 9.66924H4.00066C4.36732 9.66924 4.66732 9.36924 4.66732 9.0026V7.0026C4.66732 6.63594 4.36732 6.33594 4.00066 6.33594Z" fill="white"/>
<path d="M11.334 6.42969H7.00066C6.63398 6.42969 6.33398 6.72967 6.33398 7.09634V8.90964C6.33398 9.27636 6.63398 9.57636 7.00066 9.57636H11.334C11.7006 9.57636 12.0006 9.27636 12.0006 8.90964V7.09634C12.0006 6.72967 11.7006 6.42969 11.334 6.42969Z" fill="white"/>
</svg>
