<svg width="16" height="16" viewBox="0 0 16 16" fill="none" xmlns="http://www.w3.org/2000/svg">
<path fill-rule="evenodd" clip-rule="evenodd" d="M2.10203 1.2816C4.02135 0.965261 5.9915 0.800781 7.99961 0.800781C10.0077 0.800781 11.9778 0.965261 13.8972 1.2816C14.187 1.32936 14.3996 1.57989 14.3996 1.87361V3.70373C14.3996 4.18112 14.2099 4.63895 13.8724 4.97652L10.1268 8.72214C9.78929 9.05966 9.59961 9.5175 9.59961 9.99486V12.4241C9.59961 12.9709 9.35105 13.488 8.92409 13.8296L7.37443 15.0693C7.19432 15.2134 6.94758 15.2415 6.7397 15.1416C6.53182 15.0417 6.39961 14.8314 6.39961 14.6008V9.99486C6.39961 9.5175 6.20997 9.05966 5.8724 8.72214L2.12682 4.97652C1.78925 4.63895 1.59961 4.18112 1.59961 3.70373V1.87361C1.59961 1.57989 1.81223 1.32936 2.10203 1.2816Z" fill="#0F172A"/>
</svg>
