<svg width="16" height="16" viewBox="0 0 16 16" fill="none" xmlns="http://www.w3.org/2000/svg">
<path d="M1.72052 12.6716L1.70719 12.6849C1.52719 12.2916 1.41385 11.8449 1.36719 11.3516C1.41385 11.8382 1.54052 12.2782 1.72052 12.6716Z" fill="white"/>
<path d="M6.00073 6.91941C6.87705 6.91941 7.58738 6.20905 7.58738 5.33277C7.58738 4.45647 6.87705 3.74609 6.00073 3.74609C5.12444 3.74609 4.41406 4.45647 4.41406 5.33277C4.41406 6.20905 5.12444 6.91941 6.00073 6.91941Z" fill="white"/>
<path d="M10.794 1.33594H5.20732C2.78066 1.33594 1.33398 2.7826 1.33398 5.20927V10.796C1.33398 11.5226 1.46066 12.156 1.70732 12.6892C2.28066 13.956 3.50732 14.6692 5.20732 14.6692H10.794C13.2206 14.6692 14.6674 13.2226 14.6674 10.796V9.26924V5.20927C14.6674 2.7826 13.2206 1.33594 10.794 1.33594ZM13.5806 8.33596C13.0606 7.88927 12.2206 7.88927 11.7006 8.33596L8.92735 10.716C8.40735 11.1626 7.56732 11.1626 7.04732 10.716L6.82065 10.5292C6.34732 10.116 5.59398 10.076 5.06066 10.436L2.56732 12.1092C2.42066 11.736 2.33398 11.3026 2.33398 10.796V5.20927C2.33398 3.32927 3.32732 2.33594 5.20732 2.33594H10.794C12.674 2.33594 13.6674 3.32927 13.6674 5.20927V8.40924L13.5806 8.33596Z" fill="white"/>
</svg>
