<svg width="16" height="16" viewBox="0 0 16 16" fill="none" xmlns="http://www.w3.org/2000/svg">
<path d="M6.00073 6.91941C6.87705 6.91941 7.58738 6.20905 7.58738 5.33277C7.58738 4.45647 6.87705 3.74609 6.00073 3.74609C5.12444 3.74609 4.41406 4.45647 4.41406 5.33277C4.41406 6.20905 5.12444 6.91941 6.00073 6.91941Z" fill="white"/>
<path d="M13.9806 5.33594H13.6674V8.40924L13.5806 8.33596C13.0606 7.88927 12.2206 7.88927 11.7006 8.33596L8.92735 10.716C8.40735 11.1626 7.56732 11.1626 7.04732 10.716L6.82065 10.5292C6.34732 10.116 5.59398 10.076 5.06066 10.436L2.56732 12.1092C2.42066 11.736 2.33398 11.3026 2.33398 10.796V5.20927C2.33398 3.32927 3.32732 2.33594 5.20732 2.33594H10.6674V2.0226C10.6674 1.75594 10.714 1.52927 10.8206 1.33594H5.20732C2.78066 1.33594 1.33398 2.7826 1.33398 5.20927V10.796C1.33398 11.5226 1.46066 12.156 1.70732 12.6892C2.28066 13.956 3.50732 14.6692 5.20732 14.6692H10.794C13.2206 14.6692 14.6674 13.2226 14.6674 10.796V5.1826C14.474 5.28927 14.2474 5.33594 13.9806 5.33594Z" fill="white"/>
<path d="M13.9794 0.664062H12.0194C11.4394 0.664062 11.0127 0.904062 10.8194 1.33073C10.7127 1.52406 10.666 1.75073 10.666 2.0174V2.33073V3.9774C10.666 4.82406 11.1727 5.33073 12.0194 5.33073H13.666H13.9794C14.246 5.33073 14.4727 5.28406 14.666 5.1774C15.0927 4.98406 15.3327 4.5574 15.3327 3.9774V2.0174C15.3327 1.17073 14.826 0.664062 13.9794 0.664062ZM13.5327 4.1374C13.3194 4.26406 13.1127 4.33073 12.9994 4.33073C12.6994 4.33073 11.846 3.9174 11.5927 3.1174C11.5527 2.9974 11.5327 2.86406 11.5327 2.7374C11.5327 2.62406 11.546 2.51073 11.5794 2.40406C11.666 2.09073 11.8727 1.8174 12.2194 1.70406C12.3527 1.66406 12.4927 1.65073 12.6194 1.6774C12.7527 1.6974 12.8794 1.75073 12.9927 1.8374C13.206 1.67073 13.4994 1.6174 13.7794 1.70406C14.386 1.90406 14.5794 2.59073 14.406 3.1174C14.3794 3.1974 14.346 3.2774 14.306 3.35073C14.126 3.71073 13.8194 3.9774 13.5327 4.1374Z" fill="white"/>
</svg>
