<svg width="16" height="16" viewBox="0 0 16 16" fill="none" xmlns="http://www.w3.org/2000/svg">
<path d="M13.9794 0.664062H12.0194C11.1727 0.664062 10.666 1.17073 10.666 2.0174V3.9774C10.666 4.82406 11.1727 5.33073 12.0194 5.33073H13.9794C14.826 5.33073 15.3327 4.82406 15.3327 3.9774V2.0174C15.3327 1.17073 14.826 0.664062 13.9794 0.664062ZM14.3127 3.70406C14.4794 3.87073 14.4794 4.14406 14.3127 4.31073C14.226 4.39073 14.1194 4.43073 14.006 4.43073C13.8994 4.43073 13.7927 4.39073 13.706 4.31073L12.9994 3.60406L12.2994 4.31073C12.2127 4.39073 12.106 4.43073 11.9927 4.43073C11.886 4.43073 11.7794 4.39073 11.6927 4.31073C11.526 4.14406 11.526 3.87073 11.6927 3.70406L12.3994 2.9974L11.6927 2.2974C11.526 2.13073 11.526 1.8574 11.6927 1.69073C11.8594 1.52406 12.1327 1.52406 12.2994 1.69073L12.9994 2.3974L13.706 1.69073C13.8727 1.52406 14.146 1.52406 14.3127 1.69073C14.4794 1.8574 14.4794 2.13073 14.3127 2.2974L13.606 2.9974L14.3127 3.70406Z" fill="white"/>
<path d="M6.00073 6.91941C6.87705 6.91941 7.58738 6.20905 7.58738 5.33277C7.58738 4.45647 6.87705 3.74609 6.00073 3.74609C5.12444 3.74609 4.41406 4.45647 4.41406 5.33277C4.41406 6.20905 5.12444 6.91941 6.00073 6.91941Z" fill="white"/>
<path d="M13.9806 5.33594H13.6674V8.40924L13.5806 8.33596C13.0606 7.88927 12.2206 7.88927 11.7006 8.33596L8.92735 10.716C8.40735 11.1626 7.56732 11.1626 7.04732 10.716L6.82065 10.5292C6.34732 10.116 5.59398 10.076 5.06066 10.436L2.56732 12.1092C2.42066 11.736 2.33398 11.3026 2.33398 10.796V5.20927C2.33398 3.32927 3.32732 2.33594 5.20732 2.33594H10.6674V2.0226C10.6674 1.75594 10.714 1.52927 10.8206 1.33594H5.20732C2.78066 1.33594 1.33398 2.7826 1.33398 5.20927V10.796C1.33398 11.5226 1.46066 12.156 1.70732 12.6892C2.28066 13.956 3.50732 14.6692 5.20732 14.6692H10.794C13.2206 14.6692 14.6674 13.2226 14.6674 10.796V5.1826C14.474 5.28927 14.2474 5.33594 13.9806 5.33594Z" fill="white"/>
</svg>
