<svg width="16" height="16" viewBox="0 0 16 16" fill="none" xmlns="http://www.w3.org/2000/svg">
<path d="M13.9794 0.664062H12.0194C11.1727 0.664062 10.666 1.17073 10.666 2.0174V3.9774C10.666 4.82406 11.1727 5.33073 12.0194 5.33073H13.9794C14.826 5.33073 15.3327 4.82406 15.3327 3.9774V2.0174C15.3327 1.17073 14.826 0.664062 13.9794 0.664062ZM12.6727 4.3774C12.6527 4.3974 12.606 4.42406 12.5727 4.42406L11.8794 4.52406C11.8594 4.53073 11.8327 4.53073 11.8127 4.53073C11.7127 4.53073 11.626 4.4974 11.566 4.43073C11.486 4.35073 11.4527 4.2374 11.4727 4.1174L11.5727 3.42406C11.5794 3.39073 11.5994 3.34406 11.6194 3.32406L12.7527 2.19073C12.7727 2.2374 12.7927 2.29073 12.8127 2.34406C12.8394 2.3974 12.866 2.44406 12.8927 2.49073C12.9127 2.53073 12.9394 2.57073 12.966 2.5974C12.9927 2.6374 13.0194 2.6774 13.0394 2.6974C13.0527 2.7174 13.0594 2.72406 13.066 2.73073C13.126 2.80406 13.1927 2.87073 13.2527 2.9174C13.266 2.93073 13.2794 2.94406 13.286 2.94406C13.3194 2.97073 13.3594 3.00406 13.386 3.02406C13.426 3.05073 13.4594 3.0774 13.4994 3.0974C13.546 3.12406 13.5994 3.15073 13.6527 3.1774C13.706 3.20406 13.7594 3.22406 13.806 3.2374L12.6727 4.3774ZM14.266 2.78406L14.0527 2.9974C14.0394 3.0174 14.0194 3.02406 13.9994 3.02406C13.9927 3.02406 13.986 3.02406 13.9794 3.02406C13.4994 2.88406 13.1194 2.50406 12.9794 2.02406C12.9727 1.9974 12.9794 1.97073 12.9994 1.95073L13.2194 1.73073C13.5794 1.37073 13.9194 1.3774 14.2727 1.73073C14.4527 1.91073 14.5394 2.08406 14.5394 2.2574C14.5327 2.43073 14.446 2.60406 14.266 2.78406Z" fill="white"/>
<path d="M6.00073 6.91941C6.87705 6.91941 7.58738 6.20905 7.58738 5.33277C7.58738 4.45647 6.87705 3.74609 6.00073 3.74609C5.12444 3.74609 4.41406 4.45647 4.41406 5.33277C4.41406 6.20905 5.12444 6.91941 6.00073 6.91941Z" fill="white"/>
<path d="M13.9806 5.33594H13.6674V8.40924L13.5806 8.33596C13.0606 7.88927 12.2206 7.88927 11.7006 8.33596L8.92735 10.716C8.40735 11.1626 7.56732 11.1626 7.04732 10.716L6.82065 10.5292C6.34732 10.116 5.59398 10.076 5.06066 10.436L2.56732 12.1092C2.42066 11.736 2.33398 11.3026 2.33398 10.796V5.20927C2.33398 3.32927 3.32732 2.33594 5.20732 2.33594H10.6674V2.0226C10.6674 1.75594 10.714 1.52927 10.8206 1.33594H5.20732C2.78066 1.33594 1.33398 2.7826 1.33398 5.20927V10.796C1.33398 11.5226 1.46066 12.156 1.70732 12.6892C2.28066 13.956 3.50732 14.6692 5.20732 14.6692H10.794C13.2206 14.6692 14.6674 13.2226 14.6674 10.796V5.1826C14.474 5.28927 14.2474 5.33594 13.9806 5.33594Z" fill="white"/>
</svg>
