<svg width="16" height="16" viewBox="0 0 16 16" fill="none" xmlns="http://www.w3.org/2000/svg">
<path d="M13.9794 5.33073H12.0194C11.1727 5.33073 10.666 4.82406 10.666 3.9774V2.0174C10.666 1.17073 11.1727 0.664062 12.0194 0.664062H13.9794C14.826 0.664062 15.3327 1.17073 15.3327 2.0174V3.9774C15.3327 4.82406 14.826 5.33073 13.9794 5.33073ZM14.126 3.12406C14.046 3.04406 13.9394 3.00406 13.8327 3.00406C13.726 3.00406 13.6194 3.04406 13.5394 3.12406L13.4194 3.24406V1.75073C13.4194 1.5174 13.2327 1.33073 12.9994 1.33073C12.766 1.33073 12.5794 1.5174 12.5794 1.75073V3.24406L12.4594 3.12406C12.2994 2.96406 12.0327 2.96406 11.8727 3.12406C11.7127 3.28406 11.7127 3.55073 11.8727 3.71073L12.706 4.54406C12.7394 4.5774 12.786 4.60406 12.8327 4.62406C12.846 4.63073 12.8594 4.63073 12.8727 4.6374C12.906 4.65073 12.9394 4.6574 12.9794 4.6574C12.9927 4.6574 13.006 4.6574 13.0194 4.6574C13.066 4.6574 13.106 4.65073 13.1527 4.63073C13.1594 4.63073 13.1594 4.63073 13.166 4.63073C13.2127 4.61073 13.2527 4.58406 13.286 4.55073C13.2927 4.54406 13.2927 4.54406 13.2994 4.54406L14.1327 3.71073C14.2927 3.55073 14.2927 3.28406 14.126 3.12406Z" fill="white"/>
<path d="M6.00073 6.91941C6.87705 6.91941 7.58738 6.20905 7.58738 5.33277C7.58738 4.45647 6.87705 3.74609 6.00073 3.74609C5.12444 3.74609 4.41406 4.45647 4.41406 5.33277C4.41406 6.20905 5.12444 6.91941 6.00073 6.91941Z" fill="white"/>
<path d="M13.9806 5.33594H13.6674V8.40924L13.5806 8.33596C13.0606 7.88927 12.2206 7.88927 11.7006 8.33596L8.92735 10.716C8.40735 11.1626 7.56732 11.1626 7.04732 10.716L6.82065 10.5292C6.34732 10.116 5.59398 10.076 5.06066 10.436L2.56732 12.1092C2.42066 11.736 2.33398 11.3026 2.33398 10.796V5.20927C2.33398 3.32927 3.32732 2.33594 5.20732 2.33594H10.6674V2.0226C10.6674 1.75594 10.714 1.52927 10.8206 1.33594H5.20732C2.78066 1.33594 1.33398 2.7826 1.33398 5.20927V10.796C1.33398 11.5226 1.46066 12.156 1.70732 12.6892C2.28066 13.956 3.50732 14.6692 5.20732 14.6692H10.794C13.2206 14.6692 14.6674 13.2226 14.6674 10.796V5.1826C14.474 5.28927 14.2474 5.33594 13.9806 5.33594Z" fill="white"/>
</svg>
