<svg width="16" height="16" viewBox="0 0 16 16" fill="none" xmlns="http://www.w3.org/2000/svg">
<path d="M13.9794 0.664062H12.0194C11.1727 0.664062 10.666 1.17073 10.666 2.0174V3.9774C10.666 4.82406 11.1727 5.33073 12.0194 5.33073H13.9794C14.826 5.33073 15.3327 4.82406 15.3327 3.9774V2.0174C15.3327 1.17073 14.826 0.664062 13.9794 0.664062ZM14.126 2.87073C14.046 2.95073 13.9394 2.99073 13.8327 2.99073C13.726 2.99073 13.6194 2.95073 13.5394 2.87073L13.4194 2.75073V4.24406C13.4194 4.4774 13.2327 4.66406 12.9994 4.66406C12.766 4.66406 12.5794 4.4774 12.5794 4.24406V2.75073L12.4594 2.87073C12.2994 3.03073 12.0327 3.03073 11.8727 2.87073C11.7127 2.71073 11.7127 2.44406 11.8727 2.28406L12.706 1.45073C12.7394 1.4174 12.786 1.39073 12.8327 1.37073C12.846 1.36406 12.8594 1.36406 12.8727 1.3574C12.906 1.34406 12.9394 1.3374 12.9794 1.3374C12.9927 1.3374 13.006 1.3374 13.0194 1.3374C13.066 1.3374 13.106 1.34406 13.1527 1.36406C13.1594 1.36406 13.1594 1.36406 13.166 1.36406C13.2127 1.38406 13.2527 1.41073 13.286 1.44406C13.2927 1.45073 13.2927 1.45073 13.2994 1.45073L14.1327 2.28406C14.2927 2.44406 14.2927 2.71073 14.126 2.87073Z" fill="white"/>
<path d="M6.00073 6.91941C6.87705 6.91941 7.58738 6.20905 7.58738 5.33277C7.58738 4.45647 6.87705 3.74609 6.00073 3.74609C5.12444 3.74609 4.41406 4.45647 4.41406 5.33277C4.41406 6.20905 5.12444 6.91941 6.00073 6.91941Z" fill="white"/>
<path d="M13.9806 5.33594H13.6674V8.40924L13.5806 8.33596C13.0606 7.88927 12.2206 7.88927 11.7006 8.33596L8.92735 10.716C8.40735 11.1626 7.56732 11.1626 7.04732 10.716L6.82065 10.5292C6.34732 10.116 5.59398 10.076 5.06066 10.436L2.56732 12.1092C2.42066 11.736 2.33398 11.3026 2.33398 10.796V5.20927C2.33398 3.32927 3.32732 2.33594 5.20732 2.33594H10.6674V2.0226C10.6674 1.75594 10.714 1.52927 10.8206 1.33594H5.20732C2.78066 1.33594 1.33398 2.7826 1.33398 5.20927V10.796C1.33398 11.5226 1.46066 12.156 1.70732 12.6892C2.28066 13.956 3.50732 14.6692 5.20732 14.6692H10.794C13.2206 14.6692 14.6674 13.2226 14.6674 10.796V5.1826C14.474 5.28927 14.2474 5.33594 13.9806 5.33594Z" fill="white"/>
</svg>
