<svg width="16" height="16" viewBox="0 0 16 16" fill="none" xmlns="http://www.w3.org/2000/svg">
<path d="M14.5126 1.48594C14.3126 1.28594 13.9859 1.28594 13.7859 1.48594L1.48594 13.7926C1.28594 13.9926 1.28594 14.3193 1.48594 14.5193C1.58594 14.6126 1.7126 14.666 1.84594 14.666C1.97927 14.666 2.10594 14.6126 2.20594 14.5126L14.5126 2.20594C14.7193 2.00594 14.7193 1.68594 14.5126 1.48594Z" fill="white"/>
<path d="M6.00073 6.91941C6.87705 6.91941 7.58738 6.20905 7.58738 5.33277C7.58738 4.45647 6.87705 3.74609 6.00073 3.74609C5.12444 3.74609 4.41406 4.45647 4.41406 5.33277C4.41406 6.20905 5.12444 6.91941 6.00073 6.91941Z" fill="white"/>
<path d="M14.4063 3.59375L13.593 4.40709C13.6462 4.65376 13.6662 4.92042 13.6662 5.20709V8.40704L13.5796 8.33376C13.0596 7.88707 12.2196 7.88707 11.6996 8.33376L8.92625 10.7138C8.45297 11.1204 7.70628 11.1604 7.18628 10.8138L3.59961 14.4004C3.62627 14.4138 3.65295 14.4204 3.67961 14.427C3.85961 14.487 4.03961 14.5338 4.23295 14.5738C4.29961 14.587 4.36627 14.6004 4.43961 14.607C4.68627 14.6404 4.93961 14.667 5.20627 14.667H10.793C13.2196 14.667 14.6662 13.2204 14.6662 10.7938V5.20709C14.6662 4.60709 14.5796 4.06708 14.4063 3.59375Z" fill="white"/>
<path d="M14.407 3.59375L13.5937 4.40709C13.647 4.65376 13.667 4.92042 13.667 5.20709V8.40704L13.5804 8.33376C13.0604 7.88707 12.2204 7.88707 11.7004 8.33376L8.92702 10.7138C8.45374 11.1204 7.70705 11.1604 7.18705 10.8138L3.59375 14.407C4.06709 14.5804 4.60709 14.667 5.20709 14.667H10.7937C13.2204 14.667 14.667 13.2204 14.667 10.7938V5.20709C14.667 4.60709 14.5804 4.06708 14.407 3.59375Z" fill="white"/>
<path d="M13.6406 2.3626L12.934 3.06927C12.454 2.5826 11.734 2.33594 10.794 2.33594H5.20732C3.32732 2.33594 2.33398 3.32927 2.33398 5.20927V10.796C2.33398 11.3026 2.42066 11.736 2.56732 12.1092L5.06066 10.436C5.28732 10.2826 5.54732 10.2026 5.80732 10.196L2.36066 13.6426C2.09398 13.376 1.87398 13.056 1.70732 12.6892C1.46066 12.156 1.33398 11.5226 1.33398 10.796V5.20927C1.33398 2.7826 2.78066 1.33594 5.20732 1.33594H10.794C12.0074 1.33594 12.974 1.69594 13.6406 2.3626Z" fill="white"/>
</svg>
