<svg width="16" height="16" viewBox="0 0 16 16" fill="none" xmlns="http://www.w3.org/2000/svg">
<path d="M13.9794 0.664062H12.0194C11.4394 0.664062 11.0127 0.904062 10.8194 1.33073C10.7127 1.52406 10.666 1.75073 10.666 2.0174V3.9774C10.666 4.82406 11.1727 5.33073 12.0194 5.33073H13.9794C14.246 5.33073 14.4727 5.28406 14.666 5.1774C15.0927 4.98406 15.3327 4.5574 15.3327 3.9774V2.0174C15.3327 1.17073 14.826 0.664062 13.9794 0.664062ZM14.606 3.28406C14.5394 3.35073 14.4394 3.3974 14.3327 3.40406H13.3927V3.74406L13.3994 4.33073C13.3927 4.44406 13.3527 4.5374 13.2727 4.6174C13.206 4.68406 13.106 4.73073 12.9994 4.73073C12.7794 4.73073 12.5994 4.55073 12.5994 4.33073V3.3974L11.666 3.40406C11.446 3.40406 11.266 3.2174 11.266 2.9974C11.266 2.7774 11.446 2.5974 11.666 2.5974L12.2527 2.60406H12.5994V1.67073C12.5994 1.45073 12.7794 1.26406 12.9994 1.26406C13.2194 1.26406 13.3994 1.45073 13.3994 1.67073L13.3927 2.14406V2.5974H14.3327C14.5527 2.5974 14.7327 2.7774 14.7327 2.9974C14.726 3.11073 14.6794 3.20406 14.606 3.28406Z" fill="white"/>
<path d="M6.00073 6.91941C6.87705 6.91941 7.58738 6.20905 7.58738 5.33277C7.58738 4.45647 6.87705 3.74609 6.00073 3.74609C5.12444 3.74609 4.41406 4.45647 4.41406 5.33277C4.41406 6.20905 5.12444 6.91941 6.00073 6.91941Z" fill="white"/>
<path d="M13.9806 5.33594H13.6674V8.40924L13.5806 8.33596C13.0606 7.88927 12.2206 7.88927 11.7006 8.33596L8.92735 10.716C8.40735 11.1626 7.56732 11.1626 7.04732 10.716L6.82065 10.5292C6.34732 10.116 5.59398 10.076 5.06066 10.436L2.56732 12.1092C2.42066 11.736 2.33398 11.3026 2.33398 10.796V5.20927C2.33398 3.32927 3.32732 2.33594 5.20732 2.33594H10.6674V2.0226C10.6674 1.75594 10.714 1.52927 10.8206 1.33594H5.20732C2.78066 1.33594 1.33398 2.7826 1.33398 5.20927V10.796C1.33398 11.5226 1.46066 12.156 1.70732 12.6892C2.28066 13.956 3.50732 14.6692 5.20732 14.6692H10.794C13.2206 14.6692 14.6674 13.2226 14.6674 10.796V5.1826C14.474 5.28927 14.2474 5.33594 13.9806 5.33594Z" fill="white"/>
</svg>
