<svg width="16" height="16" viewBox="0 0 16 16" fill="none" xmlns="http://www.w3.org/2000/svg">
<path d="M11.3334 1.33594H4.66666C3.2 1.33594 2 2.53594 2 4.0026V12.0026C2 13.4692 3.2 14.6692 4.66666 14.6692H11.3334C12.8 14.6692 14 13.4692 14 12.0026V4.0026C14 2.53594 12.8 1.33594 11.3334 1.33594ZM7.24 12.096C7.14 12.196 7.01334 12.2426 6.88666 12.2426C6.76 12.2426 6.63334 12.196 6.53334 12.096L6.1 11.6626L5.68666 12.076C5.58666 12.176 5.46 12.2226 5.33334 12.2226C5.20666 12.2226 5.08 12.176 4.98 12.076C4.78666 11.8826 4.78666 11.5626 4.98 11.3692L5.39334 10.956L5 10.5626C4.80666 10.3692 4.80666 10.0492 5 9.85596C5.19334 9.6626 5.51334 9.6626 5.70666 9.85596L6.1 10.2492L6.51334 9.83596C6.70666 9.6426 7.02666 9.6426 7.22 9.83596C7.41334 10.0292 7.41334 10.3492 7.22 10.5426L6.80666 10.956L7.24 11.3892C7.43334 11.5826 7.43334 11.9026 7.24 12.096ZM9.66 12.3292C9.29336 12.3292 8.99336 12.036 8.99336 11.6692V11.656C8.99336 11.2892 9.29336 10.9892 9.66 10.9892C10.0266 10.9892 10.3266 11.2892 10.3266 11.656C10.3266 12.0226 10.0266 12.3292 9.66 12.3292ZM11.0066 10.8892C10.64 10.8892 10.3334 10.5892 10.3334 10.2226C10.3334 9.85596 10.6266 9.55596 10.9934 9.55596H11.0066C11.3734 9.55596 11.6734 9.85596 11.6734 10.2226C11.6734 10.5892 11.3734 10.8892 11.0066 10.8892ZM12 6.16927C12 6.80927 11.4734 7.33594 10.8334 7.33594H5.16666C4.52666 7.33594 4 6.80927 4 6.16927V4.5026C4 3.8626 4.52666 3.33594 5.16666 3.33594H10.8334C11.4734 3.33594 12 3.8626 12 4.5026V6.16927Z" fill="white"/>
</svg>
