<svg width="16" height="16" viewBox="0 0 16 16" fill="none" xmlns="http://www.w3.org/2000/svg">
<path d="M11.1006 3.8125H4.90066C2.93398 3.8125 1.33398 5.4125 1.33398 7.37917V11.0992C1.33398 13.0658 2.93398 14.6658 4.90066 14.6658H11.1006C13.0674 14.6658 14.6674 13.0658 14.6674 11.0992V7.37917C14.6674 5.4125 13.0674 3.8125 11.1006 3.8125ZM9.66735 8.01248C9.66735 7.64584 9.96735 7.34584 10.334 7.34584C10.7006 7.34584 11.0006 7.64584 11.0006 8.01248C11.0006 8.3792 10.7006 8.68584 10.334 8.68584C9.96735 8.68584 9.66735 8.39248 9.66735 8.02584V8.01248ZM6.75398 10.7125C6.65398 10.8125 6.52732 10.8592 6.40066 10.8592C6.27398 10.8592 6.14732 10.8125 6.04732 10.7125L5.36066 10.0258L4.70066 10.6858C4.60066 10.7858 4.47398 10.8325 4.34732 10.8325C4.22066 10.8325 4.09398 10.7858 3.99398 10.6858C3.80066 10.4925 3.80066 10.1725 3.99398 9.9792L4.65398 9.3192L4.01398 8.6792C3.82066 8.48584 3.82066 8.16584 4.01398 7.97251C4.20732 7.77917 4.52732 7.77917 4.72066 7.97251L5.36066 8.61248L6.02066 7.95251C6.21398 7.75917 6.53398 7.75917 6.72732 7.95251C6.92066 8.14584 6.92066 8.46584 6.72732 8.6592L6.06732 9.3192L6.75398 10.0058C6.94732 10.1992 6.94732 10.5192 6.75398 10.7125ZM9.02735 9.9992C8.66063 9.9992 8.35399 9.6992 8.35399 9.33248C8.35399 8.96584 8.64735 8.66584 9.01399 8.66584H9.02735C9.39399 8.66584 9.69399 8.96584 9.69399 9.33248C9.69399 9.6992 9.40063 9.9992 9.02735 9.9992ZM10.334 11.3125C9.96735 11.3125 9.66735 11.0192 9.66735 10.6525V10.6392C9.66735 10.2725 9.96735 9.97248 10.334 9.97248C10.7006 9.97248 11.0006 10.2725 11.0006 10.6392C11.0006 11.0058 10.7074 11.3125 10.334 11.3125ZM11.654 9.9992C11.2874 9.9992 10.9806 9.6992 10.9806 9.33248C10.9806 8.96584 11.274 8.66584 11.6406 8.66584H11.654C12.0206 8.66584 12.3206 8.96584 12.3206 9.33248C12.3206 9.6992 12.0274 9.9992 11.654 9.9992Z" fill="white"/>
<path d="M9.0929 1.80927L9.08626 2.43594C9.07962 3.0226 8.5929 3.50927 7.99962 3.50927C7.89959 3.50927 7.83959 3.57594 7.83959 3.6626C7.83959 3.74927 7.90625 3.81594 7.99291 3.81594H6.91959C6.91291 3.76927 6.90625 3.71594 6.90625 3.6626C6.90625 3.0626 7.39291 2.57594 7.98625 2.57594C8.08626 2.57594 8.1529 2.50927 8.1529 2.4226L8.15962 1.79594C8.16626 1.5426 8.3729 1.33594 8.62626 1.33594H8.6329C8.8929 1.33594 9.0929 1.54927 9.0929 1.80927Z" fill="white"/>
</svg>
