<svg width="16" height="16" viewBox="0 0 16 16" fill="none" xmlns="http://www.w3.org/2000/svg">
<path d="M14.894 6.2226L13.5606 5.55594C13.314 5.43594 13.0074 5.52927 12.8874 5.77594C12.7606 6.02927 12.8606 6.32927 13.1074 6.44927L14.1674 6.97594V10.1692L11.6674 10.176V3.33594C11.6674 2.0026 10.774 1.33594 9.66735 1.33594H4.33398C3.22732 1.33594 2.33398 2.0026 2.33398 3.33594V14.1692H1.33398C1.06066 14.1692 0.833984 14.396 0.833984 14.6692C0.833984 14.9426 1.06066 15.1692 1.33398 15.1692H12.6674C12.9406 15.1692 13.1674 14.9426 13.1674 14.6692C13.1674 14.396 12.9406 14.1692 12.6674 14.1692H11.6674V11.176L14.6674 11.1692C14.9474 11.1692 15.1674 10.9426 15.1674 10.6692V6.66927C15.1674 6.4826 15.0606 6.30927 14.894 6.2226ZM4.00066 4.59594C4.00066 3.66927 4.56732 3.33594 5.26066 3.33594H8.74735C9.43399 3.33594 10.0006 3.66927 10.0006 4.59594V5.41594C10.0006 6.33594 9.43399 6.66927 8.74063 6.66927H5.26066C4.56732 6.66927 4.00066 6.33594 4.00066 5.40927V4.59594ZM4.33398 8.16924H6.33398C6.60732 8.16924 6.83398 8.39596 6.83398 8.66924C6.83398 8.9426 6.60732 9.16924 6.33398 9.16924H4.33398C4.06066 9.16924 3.83398 8.9426 3.83398 8.66924C3.83398 8.39596 4.06066 8.16924 4.33398 8.16924Z" fill="white"/>
</svg>
