<svg width="16" height="16" viewBox="0 0 16 16" fill="none" xmlns="http://www.w3.org/2000/svg">
<path d="M8.00063 1.33594C4.33398 1.33594 1.33398 4.38927 1.33398 8.1226V13.3826C1.33398 14.2226 1.83398 14.4492 2.44732 13.8892L3.11398 13.2826C3.36066 13.056 3.76066 13.056 4.00732 13.2826L5.34066 14.5026C5.58732 14.7292 5.98732 14.7292 6.23398 14.5026L7.56732 13.2826C7.81398 13.056 8.21399 13.056 8.46063 13.2826L9.79399 14.5026C10.0406 14.7292 10.4406 14.7292 10.6874 14.5026L12.0206 13.2826C12.2674 13.056 12.6674 13.056 12.914 13.2826L13.5806 13.8892C14.194 14.4492 14.694 14.2226 14.694 13.3826V8.1226C14.6674 4.38927 11.6674 1.33594 8.00063 1.33594ZM8.00063 4.41594C8.87399 4.41594 9.58735 5.12927 9.58735 6.0026C9.58735 6.87594 8.87399 7.58927 8.00063 7.58927C7.12732 7.58927 6.41398 6.87594 6.41398 6.0026C6.41398 5.12927 7.12732 4.41594 8.00063 4.41594ZM10.9674 9.73596C10.094 10.3892 9.04735 10.716 8.00063 10.716C6.95398 10.716 5.90732 10.3892 5.03398 9.73596C4.81398 9.56924 4.76732 9.25596 4.93398 9.03596C5.10066 8.81596 5.41398 8.76924 5.63398 8.93596C7.02732 9.9826 8.97399 9.9826 10.3674 8.93596C10.5874 8.76924 10.9006 8.81596 11.0674 9.03596C11.234 9.25596 11.1874 9.56924 10.9674 9.73596Z" fill="white"/>
</svg>
