<svg width="16" height="16" viewBox="0 0 16 16" fill="none" xmlns="http://www.w3.org/2000/svg">
<path fill-rule="evenodd" clip-rule="evenodd" d="M0.800781 4.19844C0.800781 3.20433 1.60667 2.39844 2.60078 2.39844H13.4008C14.3949 2.39844 15.2008 3.20433 15.2008 4.19844V11.7984C15.2008 12.7925 14.3949 13.5984 13.4008 13.5984H2.60078C1.60667 13.5984 0.800781 12.7925 0.800781 11.7984V4.19844ZM4.0213 6.50149C4.28609 6.11903 4.57774 5.99844 4.80078 5.99844C5.02382 5.99844 5.31549 6.11903 5.58026 6.50149C5.76888 6.77393 6.14265 6.84189 6.4151 6.65328C6.68755 6.46465 6.75551 6.09089 6.56689 5.81844C6.12873 5.18553 5.49906 4.79844 4.80078 4.79844C4.1025 4.79844 3.47284 5.18553 3.03468 5.81844C2.60051 6.44556 2.40078 7.23649 2.40078 7.99844C2.40078 8.76036 2.60051 9.55132 3.03468 10.1784C3.47284 10.8113 4.1025 11.1984 4.80078 11.1984C5.49906 11.1984 6.12873 10.8113 6.56689 10.1784C6.63636 10.0781 6.67357 9.959 6.67357 9.83692V7.99844C6.67357 7.66707 6.40494 7.39844 6.07357 7.39844H5.00078C4.66941 7.39844 4.40078 7.66707 4.40078 7.99844C4.40078 8.3298 4.66941 8.59844 5.00078 8.59844H5.47357V9.6342C5.23923 9.90772 4.99421 9.99844 4.80078 9.99844C4.57774 9.99844 4.28609 9.87788 4.0213 9.4954C3.75253 9.10716 3.60078 8.56732 3.60078 7.99844C3.60078 7.42958 3.75253 6.88973 4.0213 6.50149ZM8.60078 4.79844C8.93214 4.79844 9.20078 5.06707 9.20078 5.39844V10.5984C9.20078 10.9298 8.93214 11.1984 8.60078 11.1984C8.26942 11.1984 8.00078 10.9298 8.00078 10.5984V5.39844C8.00078 5.06707 8.26942 4.79844 8.60078 4.79844ZM11.0008 4.79844H13.0008C13.3321 4.79844 13.6008 5.06707 13.6008 5.39844C13.6008 5.72981 13.3321 5.99844 13.0008 5.99844H11.6008V7.39844H12.2008C12.5321 7.39844 12.8008 7.66707 12.8008 7.99844C12.8008 8.3298 12.5321 8.59844 12.2008 8.59844H11.6008V10.5984C11.6008 10.9298 11.3321 11.1984 11.0008 11.1984C10.6694 11.1984 10.4008 10.9298 10.4008 10.5984V5.39844C10.4008 5.06707 10.6694 4.79844 11.0008 4.79844Z" fill="#0F172A"/>
</svg>
