<svg width="16" height="16" viewBox="0 0 16 16" fill="none" xmlns="http://www.w3.org/2000/svg">
<path fill-rule="evenodd" clip-rule="evenodd" d="M7.39961 2.39844H2.79961C2.13687 2.39844 1.59961 2.93569 1.59961 3.59844V7.39844H4.29159C3.48915 6.53568 3.50792 5.18549 4.34788 4.34553C5.18746 3.50596 6.5368 3.48683 7.39961 4.28815V2.39844ZM1.59961 8.59844V12.3984C1.59961 13.0612 2.13687 13.5984 2.79961 13.5984H7.39961V9.69732C6.7759 10.9432 5.48763 11.7984 3.99961 11.7984C3.66824 11.7984 3.39961 11.5298 3.39961 11.1984C3.39961 10.8671 3.66824 10.5984 3.99961 10.5984C5.22904 10.5984 6.25917 9.74516 6.53003 8.59844H1.59961ZM8.59961 13.5984H13.1996C13.8623 13.5984 14.3996 13.0612 14.3996 12.3984V8.59844H9.46921C9.74001 9.74516 10.7702 10.5984 11.9996 10.5984C12.331 10.5984 12.5996 10.8671 12.5996 11.1984C12.5996 11.5298 12.331 11.7984 11.9996 11.7984C10.5116 11.7984 9.22329 10.9432 8.59961 9.69732V13.5984ZM14.3996 7.39844V3.59844C14.3996 2.93569 13.8623 2.39844 13.1996 2.39844H8.59961V4.28815C9.46241 3.48683 10.8118 3.50596 11.6514 4.34553C12.4913 5.18549 12.5101 6.53568 11.7076 7.39844H14.3996ZM10.8028 5.19406C10.4122 4.80354 9.77913 4.80354 9.38857 5.19406C9.10105 5.4816 8.96801 5.99351 8.94137 6.55197C8.93273 6.73442 8.93609 6.90609 8.94433 7.05255C9.09081 7.06077 9.26241 7.06417 9.44489 7.05547C10.0034 7.02888 10.5153 6.89581 10.8028 6.60828C11.1934 6.21775 11.1934 5.58459 10.8028 5.19406ZM6.61063 5.19406C6.2201 4.80354 5.58693 4.80354 5.19641 5.19406C4.80588 5.58459 4.80588 6.21775 5.19641 6.60828C5.48395 6.89581 5.99586 7.02888 6.55431 7.05547C6.73677 7.06417 6.90843 7.06077 7.0549 7.05255C7.06311 6.90609 7.06651 6.73442 7.05782 6.55197C7.03123 5.99351 6.89815 5.4816 6.61063 5.19406Z" fill="#0F172A"/>
</svg>
