<svg width="16" height="16" viewBox="0 0 16 16" fill="none" xmlns="http://www.w3.org/2000/svg">
<path fill-rule="evenodd" clip-rule="evenodd" d="M11.1998 4.80156C11.4508 4.4673 11.5996 4.0518 11.5996 3.60156C11.5996 2.49699 10.7042 1.60156 9.59961 1.60156C8.94537 1.60156 8.36449 1.9157 7.99961 2.40137C7.63472 1.9157 7.05385 1.60156 6.39961 1.60156C5.29504 1.60156 4.39961 2.49699 4.39961 3.60156C4.39961 4.0518 4.54839 4.4673 4.79947 4.80156H2.59961C2.04732 4.80156 1.59961 5.24927 1.59961 5.80156V6.20156C1.59961 6.75385 2.04732 7.20156 2.59961 7.20156H7.39961V4.80156H8.59961V7.20156H13.3996C13.9519 7.20156 14.3996 6.75385 14.3996 6.20156V5.80156C14.3996 5.24927 13.9519 4.80156 13.3996 4.80156H11.1998ZM10.3996 3.60156C10.3996 4.04339 10.0414 4.40156 9.59961 4.40156H8.79961V3.60156C8.79961 3.15974 9.15777 2.80156 9.59961 2.80156C10.0414 2.80156 10.3996 3.15974 10.3996 3.60156ZM5.59961 3.60156C5.59961 4.04339 5.95779 4.40156 6.39961 4.40156H7.19961V3.60156C7.19961 3.15974 6.84143 2.80156 6.39961 2.80156C5.95779 2.80156 5.59961 3.15974 5.59961 3.60156Z" fill="#0F172A"/>
<path d="M7.40039 8.39844H2.40039V12.1984C2.40039 13.4135 3.38537 14.3984 4.60039 14.3984H7.40039V8.39844Z" fill="#0F172A"/>
<path d="M8.59961 14.3984V8.39844H13.5996V12.1984C13.5996 13.4135 12.6146 14.3984 11.3996 14.3984H8.59961Z" fill="#0F172A"/>
</svg>
