<svg width="16" height="16" viewBox="0 0 16 16" fill="none" xmlns="http://www.w3.org/2000/svg">
<path d="M11.8072 1.33594H11.1738C10.9138 1.33594 10.7005 1.54927 10.7005 1.80927C10.7005 2.07594 10.9138 2.28927 11.1738 2.28927H11.8072C12.9472 2.28927 13.8738 3.21594 13.8738 4.34927V8.26924C13.6338 8.1426 13.3672 8.07596 13.0805 8.07596H10.5405C9.58055 8.07596 8.79383 8.85596 8.79383 9.8226V10.8626H7.20718V9.8226C7.20718 8.85596 6.42049 8.07596 5.46048 8.07596H2.92049C2.63383 8.07596 2.36716 8.1426 2.12716 8.26924V4.34927C2.12716 3.21594 3.05383 2.28927 4.19383 2.28927H4.82716C5.08716 2.28927 5.30049 2.07594 5.30049 1.80927C5.30049 1.54927 5.08716 1.33594 4.82716 1.33594H4.19383C2.52716 1.33594 1.17383 2.68927 1.17383 4.34927V9.8226V12.9226C1.17383 13.8892 1.96049 14.6692 2.92049 14.6692H5.46048C6.42049 14.6692 7.20718 13.8892 7.20718 12.9226V11.8092H8.79383V12.9226C8.79383 13.8892 9.58055 14.6692 10.5405 14.6692H13.0805C14.0405 14.6692 14.8272 13.8892 14.8272 12.9226V9.8226V4.34927C14.8272 2.68927 13.4738 1.33594 11.8072 1.33594Z" fill="white"/>
</svg>
