<svg width="16" height="16" viewBox="0 0 16 16" fill="none" xmlns="http://www.w3.org/2000/svg">
<path d="M10.5591 14.6669H5.43909C2.64575 14.6669 2.09242 12.9802 2.99909 10.9269L3.95909 8.74688C3.95909 8.74688 5.99909 8.66688 7.99908 9.33352C9.99906 10.0002 11.8858 8.74016 11.8858 8.74016L12.0124 8.66016L13.0058 10.9335C13.8991 12.9869 13.3124 14.6669 10.5591 14.6669Z" fill="white"/>
<path d="M10.2935 4.49594H10.1869L11.6069 7.73594L11.3335 7.90927C11.3202 7.91594 9.81352 8.8826 8.31352 8.38924C6.74688 7.8626 5.17355 7.76927 4.40021 7.75594L5.82687 4.49594H5.62687C5.19355 4.49594 4.79355 4.3226 4.50688 4.03594C4.22021 3.74927 4.04688 3.34927 4.04688 2.91594C4.04688 2.04927 4.75355 1.33594 5.62687 1.33594H10.3669C10.8069 1.33594 11.2002 1.51594 11.4869 1.8026C11.8602 2.17594 12.0535 2.7226 11.9069 3.3026C11.7335 4.0226 11.0402 4.49594 10.2935 4.49594Z" fill="white"/>
</svg>
