<svg width="16" height="16" viewBox="0 0 16 16" fill="none" xmlns="http://www.w3.org/2000/svg">
<path d="M13.2433 4.32945C12.5472 3.33683 11.5765 2.5509 10.4414 2.08203C11.064 3.17821 11.5189 4.38204 11.7714 5.65866C12.3246 5.28919 12.8207 4.84075 13.2433 4.32945Z" fill="#0F172A"/>
<path d="M10.6609 6.26139C10.3845 4.5547 9.70806 2.98207 8.73094 1.6428C8.49118 1.61556 8.24742 1.60156 8.00038 1.60156C7.75335 1.60156 7.50958 1.61556 7.26984 1.6428C6.29272 2.98207 5.6163 4.55469 5.33984 6.26139C6.15703 6.60915 7.05624 6.80156 8.00038 6.80156C8.94454 6.80156 9.84374 6.60915 10.6609 6.26139Z" fill="#0F172A"/>
<path d="M5.21056 7.5C6.07887 7.82296 7.01843 7.99946 7.99922 7.99946C8.98002 7.99946 9.91954 7.82296 10.7879 7.5C10.7954 7.66554 10.7992 7.83206 10.7992 7.99946C10.7992 8.86266 10.6979 9.70218 10.5067 10.5069C9.70194 10.6982 8.86242 10.7995 7.99922 10.7995C7.13601 10.7995 6.29646 10.6982 5.49179 10.5069C5.30049 9.70218 5.19922 8.86266 5.19922 7.99946C5.19922 7.83206 5.20303 7.66554 5.21056 7.5Z" fill="#0F172A"/>
<path d="M4.22776 5.65866C4.48021 4.38204 4.93516 3.17821 5.55773 2.08203C4.42268 2.5509 3.45192 3.33683 2.75586 4.32945C3.17852 4.84075 3.67452 5.28919 4.22776 5.65866Z" fill="#0F172A"/>
<path d="M13.8676 5.4375C14.2105 6.22178 14.4007 7.08805 14.4007 7.99876C14.4007 8.2458 14.3867 8.48956 14.3594 8.72932C13.5837 9.29532 12.7295 9.76044 11.8164 10.1054C11.9375 9.4214 12.0007 8.71748 12.0007 7.99876C12.0007 7.64684 11.9856 7.29846 11.9559 6.95424C12.6689 6.54792 13.3134 6.03512 13.8676 5.4375Z" fill="#0F172A"/>
<path d="M2.1327 5.4375C2.68697 6.03512 3.33143 6.54792 4.04444 6.95424C4.01476 7.29846 3.99961 7.64684 3.99961 7.99876C3.99961 8.71748 4.06279 9.4214 4.18391 10.1054C3.27079 9.76044 2.41667 9.29532 1.64085 8.72932C1.61361 8.48956 1.59961 8.2458 1.59961 7.99876C1.59961 7.08805 1.78983 6.22178 2.1327 5.4375Z" fill="#0F172A"/>
<path d="M7.99919 12.0007C8.71791 12.0007 9.42183 11.9375 10.1058 11.8164C9.76087 12.7295 9.29575 13.5837 8.72975 14.3595C8.48999 14.3867 8.24623 14.4007 7.99919 14.4007C7.75215 14.4007 7.50839 14.3867 7.26864 14.3595C6.70262 13.5837 6.2375 12.7295 5.89258 11.8164C6.57652 11.9375 7.28047 12.0007 7.99919 12.0007Z" fill="#0F172A"/>
<path d="M11.4855 11.4855C11.2264 12.3404 10.8744 13.1549 10.4414 13.9173C12.0123 13.2684 13.2684 12.0123 13.9173 10.4414C13.1549 10.8744 12.3404 11.2264 11.4855 11.4855Z" fill="#0F172A"/>
<path d="M5.55794 13.9173C3.98708 13.2684 2.73092 12.0123 2.08203 10.4414C2.84447 10.8744 3.65899 11.2264 4.51387 11.4855C4.77298 12.3404 5.12491 13.1549 5.55794 13.9173Z" fill="#0F172A"/>
</svg>
