<svg width="16" height="16" viewBox="0 0 16 16" fill="none" xmlns="http://www.w3.org/2000/svg">
<path d="M5.09906 13.9412C5.07906 13.9412 5.0524 13.9545 5.0324 13.9545C3.73906 13.3145 2.68573 12.2545 2.03906 10.9612C2.03906 10.9412 2.0524 10.9145 2.0524 10.8945C2.86573 11.1345 3.70573 11.3145 4.53906 11.4545C4.68573 12.2945 4.85906 13.1279 5.09906 13.9412Z" fill="white"/>
<path d="M13.9594 10.9679C13.2994 12.2945 12.1994 13.3679 10.8594 14.0145C11.1127 13.1679 11.326 12.3145 11.466 11.4545C12.306 11.3145 13.1327 11.1345 13.946 10.8945C13.9394 10.9212 13.9594 10.9479 13.9594 10.9679Z" fill="white"/>
<path d="M14.0127 5.14161C13.1727 4.88828 12.326 4.68161 11.466 4.53495C11.326 3.67495 11.1194 2.82161 10.8594 1.98828C12.2394 2.64827 13.3527 3.76161 14.0127 5.14161Z" fill="white"/>
<path d="M5.09966 2.05906C4.85966 2.8724 4.68633 3.69906 4.54633 4.53906C3.68633 4.6724 2.83299 4.88573 1.98633 5.13906C2.63299 3.79906 3.70633 2.69906 5.03299 2.03906C5.05299 2.03906 5.07966 2.05906 5.09966 2.05906Z" fill="white"/>
<path d="M10.3272 4.39594C8.78055 4.2226 7.22052 4.2226 5.67383 4.39594C5.84049 3.4826 6.05383 2.56927 6.35383 1.68927C6.36716 1.63594 6.36049 1.59594 6.36716 1.5426C6.89384 1.41594 7.43384 1.33594 8.00055 1.33594C8.56055 1.33594 9.10719 1.41594 9.62719 1.5426C9.63383 1.59594 9.63383 1.63594 9.64719 1.68927C9.94719 2.57594 10.1605 3.4826 10.3272 4.39594Z" fill="white"/>
<path d="M4.39398 10.3252C3.47398 10.1586 2.56732 9.9452 1.68732 9.6452C1.63398 9.63192 1.59398 9.63856 1.54066 9.63192C1.41398 9.1052 1.33398 8.5652 1.33398 7.99856C1.33398 7.43856 1.41398 6.8919 1.54066 6.37188C1.59398 6.36521 1.63398 6.36521 1.68732 6.35187C2.57398 6.05855 3.47398 5.83855 4.39398 5.67188C4.22732 7.21856 4.22732 8.77856 4.39398 10.3252Z" fill="white"/>
<path d="M14.6674 7.99856C14.6674 8.5652 14.5874 9.1052 14.4608 9.63192C14.4074 9.63856 14.3674 9.63192 14.3141 9.6452C13.4274 9.93856 12.5208 10.1586 11.6074 10.3252C11.7808 8.77856 11.7808 7.21856 11.6074 5.67188C12.5208 5.83855 13.4341 6.05187 14.3141 6.35187C14.3674 6.36521 14.4074 6.37188 14.4608 6.37188C14.5874 6.89856 14.6674 7.43856 14.6674 7.99856Z" fill="white"/>
<path d="M10.3272 11.6055C10.1605 12.5255 9.94719 13.4321 9.64719 14.3121C9.63383 14.3655 9.63383 14.4055 9.62719 14.4588C9.10719 14.5855 8.56055 14.6655 8.00055 14.6655C7.43384 14.6655 6.89384 14.5855 6.36716 14.4588C6.36049 14.4055 6.36716 14.3655 6.35383 14.3121C6.06049 13.4255 5.84049 12.5255 5.67383 11.6055C6.44716 11.6921 7.22051 11.7521 8.00055 11.7521C8.78055 11.7521 9.56055 11.6921 10.3272 11.6055Z" fill="white"/>
<path d="M10.5095 10.5115C8.84215 10.7219 7.15918 10.7219 5.49177 10.5115C5.28139 8.84404 5.28139 7.16114 5.49177 5.49371C7.15918 5.28335 8.84215 5.28335 10.5095 5.49371C10.7199 7.16114 10.7199 8.84404 10.5095 10.5115Z" fill="white"/>
</svg>
