<svg width="16" height="16" viewBox="0 0 16 16" fill="none" xmlns="http://www.w3.org/2000/svg">
<path fill-rule="evenodd" clip-rule="evenodd" d="M14.3996 8.00156C14.3996 11.5362 11.5342 14.4016 7.99961 14.4016C4.46499 14.4016 1.59961 11.5362 1.59961 8.00156C1.59961 4.46694 4.46499 1.60156 7.99961 1.60156C11.5342 1.60156 14.3996 4.46694 14.3996 8.00156ZM13.1996 8.00156C13.1996 10.8735 10.8715 13.2016 7.99961 13.2016C5.12773 13.2016 2.79961 10.8735 2.79961 8.00156C2.79961 6.52687 3.41347 5.19556 4.39961 4.24922V4.60745C4.39961 5.35006 4.69461 6.06225 5.21971 6.58735L6.63392 8.00156L6.39961 8.23588C6.08719 8.54828 6.08719 9.05484 6.39961 9.36724L7.24814 10.2158C7.47319 10.4408 7.59961 10.746 7.59961 11.0643V11.3544C7.59961 11.6574 7.77081 11.9344 8.04185 12.0699L8.26297 12.1804C8.65817 12.378 9.13865 12.2179 9.33625 11.8227L10.4995 9.4962C10.7305 9.0342 10.6399 8.4762 10.2747 8.111L9.65729 7.49352C9.44297 7.27926 9.12609 7.20444 8.83857 7.30027L8.53137 7.40268C8.34249 7.46563 8.13609 7.38014 8.04705 7.20209L7.81036 6.72864C7.73628 6.58048 7.76532 6.40154 7.88245 6.2844C7.99959 6.16727 8.17849 6.13823 8.32665 6.21231L8.53625 6.31711C8.64737 6.37264 8.76985 6.40156 8.89401 6.40156H9.04465C9.59065 6.40156 9.97625 5.8666 9.80361 5.34858L9.74921 5.18539C9.69777 5.0311 9.74489 4.86103 9.86833 4.75519L11.0199 3.76813C12.3394 4.71124 13.1996 6.25595 13.1996 8.00156Z" fill="#0F172A"/>
</svg>
