<svg width="16" height="16" viewBox="0 0 16 16" fill="none" xmlns="http://www.w3.org/2000/svg">
<path d="M14.526 13.8374L14.046 13.3574C14.2927 12.9841 14.4394 12.5308 14.4394 12.0508C14.4394 10.7308 13.3727 9.66406 12.0527 9.66406C10.7327 9.66406 9.66602 10.7308 9.66602 12.0508C9.66602 13.3708 10.7327 14.4374 12.0527 14.4374C12.5394 14.4374 12.986 14.2908 13.3594 14.0441L13.8394 14.5241C13.9327 14.6174 14.0594 14.6641 14.1794 14.6641C14.306 14.6641 14.426 14.6174 14.5194 14.5241C14.7127 14.3308 14.7127 14.0241 14.526 13.8374Z" fill="white"/>
<path d="M1.35318 9.75391C1.35318 9.77391 1.33984 9.80055 1.33984 9.82055C1.95318 11.0473 2.95318 12.0539 4.17984 12.6605C4.19984 12.6605 4.22652 12.6473 4.24652 12.6473C4.01984 11.8739 3.84652 11.0805 3.71984 10.2873C2.91984 10.1539 2.12652 9.98055 1.35318 9.75391Z" fill="white"/>
<path d="M12.7141 4.2863C12.0873 2.97297 11.0273 1.91297 9.7207 1.29297C9.9607 2.0863 10.1607 2.89963 10.2941 3.71297C11.1073 3.8463 11.9207 4.03963 12.7141 4.2863Z" fill="white"/>
<path d="M1.28711 4.28766C2.08711 4.04766 2.90045 3.84766 3.71377 3.71433C3.84711 2.92099 4.01377 2.13433 4.24045 1.36099C4.22045 1.36099 4.19377 1.34766 4.17377 1.34766C2.92044 1.96766 1.90045 3.01433 1.28711 4.28766Z" fill="white"/>
<path d="M9.21375 3.57073C9.05375 2.70406 8.85375 1.8374 8.56711 0.997398C8.55375 0.950726 8.55375 0.910726 8.54711 0.857398C8.05375 0.737396 7.53378 0.664062 7.00045 0.664062C6.46044 0.664062 5.94711 0.737396 5.44711 0.864062C5.44045 0.910726 5.44711 0.950726 5.43377 1.00406C5.15377 1.84406 4.94711 2.70406 4.78711 3.57073C6.26045 3.41073 7.74045 3.41073 9.21375 3.57073Z" fill="white"/>
<path d="M3.57268 4.78906C2.69935 4.94905 1.84602 5.15573 0.999345 5.43573C0.952681 5.44905 0.912681 5.44906 0.866017 5.45573C0.739348 5.94906 0.666016 6.46905 0.666016 7.0024C0.666016 7.5424 0.739348 8.05572 0.866017 8.55572C0.912681 8.56244 0.952681 8.55572 1.00602 8.56908C1.84602 8.84908 2.70602 9.05572 3.57934 9.21572C3.41268 7.7424 3.41268 6.26239 3.57268 4.78906Z" fill="white"/>
<path d="M13.1333 5.45573C13.0866 5.45573 13.0466 5.44905 12.9933 5.43573C12.1533 5.15573 11.2866 4.94905 10.4199 4.78906C10.5866 6.26239 10.5866 7.7424 10.4199 9.20908C11.2866 9.04908 12.1533 8.84908 12.9933 8.56236C13.0399 8.54908 13.0799 8.55572 13.1333 8.54908C13.2533 8.04908 13.3333 7.53573 13.3333 6.99573C13.3333 6.46906 13.2599 5.95573 13.1333 5.45573Z" fill="white"/>
<path d="M4.78711 10.4286C4.94711 11.3019 5.14711 12.1619 5.43377 13.0019C5.44711 13.0486 5.44045 13.0886 5.44711 13.1419C5.94711 13.2619 6.46044 13.3352 7.00045 13.3352C7.53378 13.3352 8.05375 13.2619 8.54711 13.1352C8.55375 13.0886 8.55375 13.0486 8.56711 12.9952C8.84711 12.1552 9.05375 11.2952 9.21375 10.4219C8.48047 10.5019 7.74045 10.5619 7.00045 10.5619C6.26044 10.5619 5.52045 10.5086 4.78711 10.4286Z" fill="white"/>
<path d="M4.63242 4.63438C4.43242 6.20771 4.43242 7.79437 4.63242 9.3744C6.20575 9.5744 7.79241 9.5744 9.37241 9.3744C9.57241 7.80103 9.57241 6.21438 9.37241 4.63438C7.79241 4.43437 6.20575 4.43437 4.63242 4.63438Z" fill="white"/>
</svg>
