<svg width="16" height="16" viewBox="0 0 16 16" fill="none" xmlns="http://www.w3.org/2000/svg">
<path fill-rule="evenodd" clip-rule="evenodd" d="M14.3996 8.00156C14.3996 11.5362 11.5342 14.4016 7.99961 14.4016C4.46499 14.4016 1.59961 11.5362 1.59961 8.00156C1.59961 4.46694 4.46499 1.60156 7.99961 1.60156C11.5342 1.60156 14.3996 4.46694 14.3996 8.00156ZM13.1971 8.16484C13.1108 10.9612 10.8169 13.2016 7.99961 13.2016C5.12773 13.2016 2.79961 10.8735 2.79961 8.00156C2.79961 5.70281 4.29122 3.75245 6.35936 3.06555L5.54098 4.49771C5.28098 4.95271 5.35768 5.52544 5.72823 5.896C6.08193 6.2497 6.62227 6.33738 7.06967 6.11368L7.20945 6.04379C7.26499 6.01602 7.32624 6.00156 7.38834 6.00156H7.50506C7.65657 6.00156 7.79507 6.08716 7.86283 6.22267C7.91913 6.33529 7.91913 6.46783 7.86283 6.58045L7.84059 6.62491C7.78647 6.73318 7.67581 6.80156 7.55477 6.80156H7.15305C6.54852 6.80156 5.98399 7.10369 5.64866 7.60669L5.61362 7.65926C5.32623 8.09036 5.25397 8.62996 5.4178 9.1214C5.58522 9.62364 5.98191 10.0173 6.48231 10.1841C6.67159 10.2472 6.79948 10.4249 6.79948 10.6215V11.4612C6.79948 11.9806 7.22047 12.4016 7.73979 12.4016C8.02545 12.4016 8.29561 12.2717 8.47409 12.0487L9.76313 10.4372C9.91617 10.246 9.99945 10.0084 9.99945 9.76356C9.99945 9.51084 10.1019 9.26484 10.2821 9.08468C10.6466 8.72012 10.7087 8.14428 10.4202 7.71147L10.049 7.15472C10.0167 7.10629 9.99945 7.04939 9.99945 6.99119C9.99945 6.74825 10.2768 6.60958 10.4712 6.75534L10.7454 6.96096C10.998 7.15043 11.3359 7.18055 11.618 7.03953C11.7986 6.94921 12.0169 6.98466 12.1593 7.12707L13.1971 8.16484Z" fill="#0F172A"/>
</svg>
