<svg width="16" height="16" viewBox="0 0 16 16" fill="none" xmlns="http://www.w3.org/2000/svg">
<path fill-rule="evenodd" clip-rule="evenodd" d="M14.3996 8.00156C14.3996 11.5362 11.5342 14.4016 7.99961 14.4016C4.46499 14.4016 1.59961 11.5362 1.59961 8.00156C1.59961 4.46694 4.46499 1.60156 7.99961 1.60156C11.5342 1.60156 14.3996 4.46694 14.3996 8.00156ZM9.19961 13.0624C8.81441 13.1534 8.41265 13.2016 7.99961 13.2016C6.38627 13.2016 4.94453 12.4668 3.99074 11.3137L4.3832 10.5288C4.47429 10.3466 4.70443 10.2855 4.87391 10.3985L5.10936 10.5555C5.42406 10.7652 5.84308 10.7238 6.11052 10.4564C6.32303 10.2438 6.39723 9.92948 6.30219 9.64436L6.14402 9.16988C6.11233 9.07484 6.15537 8.97092 6.245 8.92604L7.82375 8.13668C8.22729 7.93492 8.36273 7.4251 8.11241 7.04968C7.99389 6.87187 8.09377 6.63064 8.30337 6.58873L8.40337 6.56873C9.08505 6.4324 9.64137 5.94129 9.86113 5.28183L9.90089 5.16258C9.99673 4.87511 9.92193 4.55818 9.70761 4.34391L8.51673 3.15303C8.44177 3.07802 8.39961 2.97627 8.39961 2.87019V2.81671C11.0846 3.02097 13.1996 5.26427 13.1996 8.00156C13.1996 8.78732 13.0253 9.53244 12.7133 10.2003C12.5562 10.0918 12.3703 10.0222 12.1692 10.0055L11.7167 9.553C11.4917 9.32796 11.1865 9.20156 10.8682 9.20156H10.731C10.4127 9.20156 10.1075 9.32796 9.88249 9.553L9.40857 10.0269C9.37817 10.0573 9.34305 10.0826 9.30457 10.1019L8.04185 10.7332C7.77081 10.8688 7.59961 11.1457 7.59961 11.4488V11.6016C7.59961 12.0434 7.95779 12.4016 8.39961 12.4016H8.79961C9.02049 12.4016 9.19961 12.5807 9.19961 12.8016V13.0624Z" fill="#0F172A"/>
</svg>
