<svg width="16" height="16" viewBox="0 0 16 16" fill="none" xmlns="http://www.w3.org/2000/svg">
<path d="M3.95976 11.1782L2.85311 13.0582C2.77311 13.1982 2.56641 13.1982 2.47975 13.0582L1.35311 11.1782C1.26645 11.0316 1.3731 10.8516 1.53976 10.8516H3.77307C3.93975 10.8516 4.03976 11.0382 3.95976 11.1782Z" fill="white"/>
<path d="M7.79229 5.60563L5.15896 9.91896C5.09896 10.019 4.9923 10.0723 4.87897 10.0723H1.49897C1.24564 10.0723 1.08564 9.8056 1.2123 9.59232L5.51899 2.48563C5.64566 2.27897 5.95897 2.2723 6.08564 2.48563L7.79229 5.2923C7.85229 5.38563 7.85229 5.50563 7.79229 5.60563Z" fill="white"/>
<path d="M9.14665 9.65818H6.82666C6.69333 9.65818 6.6067 9.51154 6.67339 9.39154L7.83339 7.42485C7.90006 7.31151 8.06673 7.31151 8.13337 7.42485L9.29337 9.39154C9.36673 9.51154 9.28001 9.65818 9.14665 9.65818Z" fill="white"/>
<path d="M9.10758 2.26666L8.14102 3.91334C8.0743 4.02666 7.90101 4.02666 7.83433 3.91334L6.86761 2.26666C6.80093 2.14666 6.88101 2 7.02101 2H8.9543C9.0943 2 9.1743 2.14666 9.10758 2.26666Z" fill="white"/>
<path d="M14.7803 9.57896C14.9137 9.79896 14.747 10.079 14.4937 10.079H11.247C11.1337 10.079 11.0337 10.019 10.9737 9.9256L8.43367 5.6123C8.37367 5.5123 8.37367 5.3923 8.43367 5.2923L10.0803 2.48563C10.2003 2.27897 10.507 2.2723 10.627 2.48563C11.4403 3.8923 13.927 8.11896 14.7803 9.57896Z" fill="white"/>
<path d="M14.6198 11.181C14.2531 11.801 13.8598 12.4677 13.4998 13.0743C13.4131 13.221 13.2064 13.2143 13.1198 13.0677L12.0132 11.181C11.9265 11.0343 12.0331 10.8477 12.2064 10.8477H14.4265C14.5998 10.8543 14.7064 11.0343 14.6198 11.181Z" fill="white"/>
<path d="M12.0131 14.0022H3.9598C3.7198 14.0022 3.57312 13.7422 3.69312 13.5355L5.24645 10.8955C5.29979 10.8022 5.39981 10.7422 5.51314 10.7422H10.4598C10.5665 10.7422 10.6731 10.8022 10.7265 10.8955L12.2798 13.5355C12.3998 13.7422 12.2531 14.0022 12.0131 14.0022Z" fill="white"/>
</svg>
