<svg width="16" height="16" viewBox="0 0 16 16" fill="none" xmlns="http://www.w3.org/2000/svg">
<g clip-path="url(#clip0_13_14043)">
<path d="M15.1673 8.00176C15.1673 8.27512 14.9406 8.50176 14.6673 8.50176H13.3073C13.0739 11.0418 11.0406 13.0751 8.50062 13.3084V14.6684C8.50062 14.9418 8.2739 15.1684 8.00058 15.1684C7.72726 15.1684 7.50058 14.9418 7.50058 14.6684V13.3084C7.09392 13.2751 6.69392 13.1884 6.31394 13.0618C5.84061 12.9018 5.69394 12.3018 6.04728 11.9484L7.92058 10.0751C7.94725 10.0818 7.96725 10.0818 7.99392 10.0818C9.14726 10.0818 10.0739 9.15512 10.0739 8.00176C10.0739 7.9751 10.0739 7.9551 10.0673 7.92844L11.9406 6.05509C12.2939 5.70176 12.8939 5.84842 13.0539 6.32176C13.1806 6.70177 13.2673 7.0951 13.3006 7.50844H14.6673C14.9406 7.50177 15.1673 7.72844 15.1673 8.00176Z" fill="white"/>
<path d="M14.514 1.48927C14.314 1.28927 13.9874 1.28927 13.7874 1.48927L11.3806 3.89594C10.5806 3.23594 9.58063 2.8026 8.49399 2.7026V1.33594C8.49399 1.0626 8.26735 0.835938 7.99398 0.835938C7.72066 0.835938 7.49398 1.0626 7.49398 1.33594V2.69594C4.95398 2.93594 2.92066 4.9626 2.68732 7.5026H1.33398C1.06066 7.5026 0.833984 7.72927 0.833984 8.0026C0.833984 8.27596 1.06066 8.5026 1.33398 8.5026H2.69398C2.79398 9.58924 3.22732 10.5892 3.88732 11.3892L1.48066 13.796C1.28066 13.996 1.28066 14.3226 1.48066 14.5226C1.58732 14.616 1.71398 14.6692 1.84732 14.6692C1.98066 14.6692 2.10732 14.616 2.20732 14.516L14.514 2.20927C14.7206 2.00927 14.7206 1.68927 14.514 1.48927ZM5.92066 8.0026C5.92066 6.85594 6.85398 5.9226 8.00063 5.9226C8.38735 5.9226 8.74735 6.03594 9.05399 6.2226L6.22066 9.05596C6.03398 8.74924 5.92066 8.38924 5.92066 8.0026Z" fill="white"/>
</g>
<defs>
<clipPath id="clip0_13_14043">
<rect width="16" height="16" fill="white"/>
</clipPath>
</defs>
</svg>
