<svg width="16" height="16" viewBox="0 0 16 16" fill="none" xmlns="http://www.w3.org/2000/svg">
<g clip-path="url(#clip0_13_14041)">
<path d="M14.6674 7.5026H13.3074C13.0674 4.9626 11.0406 2.92927 8.50063 2.69594V1.33594C8.50063 1.0626 8.27399 0.835938 8.00063 0.835938C7.72732 0.835938 7.50066 1.0626 7.50066 1.33594V2.69594C4.96066 2.93594 2.92732 4.9626 2.69398 7.5026H1.33398C1.06066 7.5026 0.833984 7.72927 0.833984 8.0026C0.833984 8.27596 1.06066 8.5026 1.33398 8.5026H2.69398C2.93398 11.0426 4.96066 13.076 7.50066 13.3092V14.6692C7.50066 14.9426 7.72732 15.1692 8.00063 15.1692C8.27399 15.1692 8.50063 14.9426 8.50063 14.6692V13.3092C11.0406 13.0692 13.074 11.0426 13.3074 8.5026H14.6674C14.9406 8.5026 15.1674 8.27596 15.1674 8.0026C15.1674 7.72927 14.9406 7.5026 14.6674 7.5026ZM8.00063 10.0826C6.85398 10.0826 5.92066 9.14924 5.92066 8.0026C5.92066 6.85594 6.85398 5.9226 8.00063 5.9226C9.14735 5.9226 10.0806 6.85594 10.0806 8.0026C10.0806 9.14924 9.14735 10.0826 8.00063 10.0826Z" fill="white"/>
</g>
<defs>
<clipPath id="clip0_13_14041">
<rect width="16" height="16" fill="white"/>
</clipPath>
</defs>
</svg>
