<svg width="16" height="16" viewBox="0 0 16 16" fill="none" xmlns="http://www.w3.org/2000/svg">
<path d="M12.741 3.30656C10.1343 0.699896 5.90095 0.699896 3.29429 3.30656C0.640955 5.9599 0.687619 10.2865 3.42762 12.8865C5.96095 15.2799 10.0677 15.2799 12.601 12.8865C15.3477 10.2865 15.3943 5.9599 12.741 3.30656ZM10.9209 11.0999C10.1209 11.8599 9.06767 12.2399 8.01431 12.2399C6.96099 12.2399 5.90762 11.8599 5.10762 11.0999C4.90762 10.9065 4.90095 10.5932 5.08762 10.3932C5.28095 10.1932 5.59429 10.1865 5.79429 10.3732C7.01432 11.5265 9.00767 11.5332 10.2343 10.3732C10.4343 10.1865 10.7543 10.1932 10.941 10.3932C11.1343 10.5932 11.1209 10.9065 10.9209 11.0999Z" fill="white"/>
</svg>
