<svg width="16" height="16" viewBox="0 0 16 16" fill="none" xmlns="http://www.w3.org/2000/svg">
<path d="M14.4468 4.63555C14.0201 3.18888 12.8134 1.98222 11.3668 1.55555C10.2668 1.23555 9.5068 1.26222 8.98008 1.65555C8.3468 2.12888 8.27344 2.98221 8.27344 3.58888V5.24888C8.27344 6.88887 9.02008 7.7222 10.4868 7.7222H12.4001C13.0001 7.7222 13.8601 7.64887 14.3334 7.01553C14.7401 6.49555 14.7734 5.73555 14.4468 4.63555Z" fill="white"/>
<path d="M12.6076 8.90484C12.4342 8.70484 12.1809 8.59148 11.9209 8.59148H9.53422C8.36094 8.59148 7.40757 7.63817 7.40757 6.46481V4.07815C7.40757 3.81815 7.29424 3.56481 7.09424 3.39148C6.90091 3.21815 6.63425 3.13815 6.38091 3.17148C4.81424 3.37148 3.37425 4.23148 2.43425 5.52481C1.48757 6.82484 1.14091 8.41148 1.44091 9.9982C1.87425 12.2915 3.70757 14.1248 6.00757 14.5582C6.37425 14.6315 6.74091 14.6648 7.10757 14.6648C8.31422 14.6648 9.48094 14.2915 10.4742 13.5648C11.7676 12.6248 12.6276 11.1848 12.8276 9.6182C12.8609 9.3582 12.7809 9.0982 12.6076 8.90484Z" fill="white"/>
</svg>
