<svg width="16" height="16" viewBox="0 0 16 16" fill="none" xmlns="http://www.w3.org/2000/svg">
<path d="M5.16732 1.33594V5.2026H1.33398C1.33398 2.79594 2.76732 1.34927 5.16732 1.33594Z" fill="white"/>
<path d="M14.6673 5.2026H10.834V1.33594C13.234 1.34927 14.6673 2.79594 14.6673 5.2026Z" fill="white"/>
<path d="M14.6673 10.8672C14.6406 13.2339 13.214 14.6539 10.834 14.6672V10.8672H14.6673Z" fill="white"/>
<path d="M5.16732 10.8672V14.6672C2.78732 14.6539 1.36066 13.2339 1.33398 10.8672H5.16732Z" fill="white"/>
<path d="M5.16732 6.19922H1.33398V9.86594H5.16732V6.19922Z" fill="white"/>
<path d="M14.6673 6.19922H10.834V9.86594H14.6673V6.19922Z" fill="white"/>
<path d="M9.83265 6.19922H6.16602V9.86594H9.83265V6.19922Z" fill="white"/>
<path d="M9.83265 1.33594H6.16602V5.2026H9.83265V1.33594Z" fill="white"/>
<path d="M9.83265 10.8672H6.16602V14.6672H9.83265V10.8672Z" fill="white"/>
</svg>
