<svg width="16" height="16" viewBox="0 0 16 16" fill="none" xmlns="http://www.w3.org/2000/svg">
<path d="M14.2196 9.77998C13.5196 9.07998 12.9663 9.30662 12.4863 9.77998L9.71961 12.5466C9.61297 12.6533 9.51297 12.86 9.48633 13.0066L9.33297 14.0666C9.27961 14.4466 9.54633 14.72 9.92633 14.66L10.9863 14.5066C11.133 14.4866 11.3396 14.38 11.4463 14.2733L14.213 11.5066C14.6996 11.0333 14.9196 10.48 14.2196 9.77998Z" fill="white"/>
<path d="M4.49698 1.37599C4.86356 1.3285 5.16577 1.63308 5.16577 2.00271V4.53233C5.16577 4.90053 4.86728 5.199 4.4991 5.199H1.9991C1.63091 5.199 1.32696 4.89918 1.37154 4.53369C1.58998 2.74265 2.71368 1.60703 4.49698 1.37599Z" fill="white"/>
<path d="M13.954 5.1985H11.5006C11.1325 5.1985 10.834 4.90002 10.834 4.53183V2.00266C10.834 1.63286 11.1367 1.32822 11.5034 1.37606C13.2592 1.60502 14.3769 2.71057 14.6206 4.45183C14.674 4.84517 14.354 5.1985 13.954 5.1985Z" fill="white"/>
<path d="M4.50001 10.8672C4.8682 10.8672 5.16668 11.1657 5.16668 11.5339V13.9472C5.16668 14.3472 4.81334 14.6672 4.41334 14.6139C2.7006 14.359 1.62006 13.2612 1.3825 11.5406C1.33169 11.1726 1.63701 10.8672 2.0085 10.8672H4.50001Z" fill="white"/>
<path d="M5.16732 6.8659C5.16732 6.4977 4.86884 6.19922 4.50066 6.19922H2.00066C1.63246 6.19922 1.33398 6.4977 1.33398 6.8659V9.19922C1.33398 9.56746 1.63246 9.86594 2.00066 9.86594H4.50066C4.86884 9.86594 5.16732 9.56746 5.16732 9.19922V6.8659Z" fill="white"/>
<path d="M9.83265 6.8659C9.83265 6.4977 9.53425 6.19922 9.16601 6.19922H6.83268C6.4645 6.19922 6.16602 6.4977 6.16602 6.8659V9.19922C6.16602 9.56746 6.4645 9.86594 6.83268 9.86594H9.16601C9.53265 9.86594 9.83265 9.56594 9.83265 9.19922V6.8659Z" fill="white"/>
<path d="M9.83265 2.0026C9.83265 1.63441 9.53425 1.33594 9.16601 1.33594H6.83268C6.4645 1.33594 6.16602 1.63442 6.16602 2.0026V4.53594C6.16602 4.90413 6.4645 5.2026 6.83268 5.2026H9.16601C9.53425 5.2026 9.83265 4.90412 9.83265 4.53594V2.0026Z" fill="white"/>
</svg>
