<svg width="16" height="16" viewBox="0 0 16 16" fill="none" xmlns="http://www.w3.org/2000/svg">
<path d="M15.123 10.1992C15.123 10.7515 14.6754 11.1992 14.123 11.1992C13.5708 11.1992 13.123 10.7515 13.123 10.1992V4.19922C13.123 3.64693 13.5708 3.19922 14.123 3.19922C14.6754 3.19922 15.123 3.64693 15.123 4.19922V10.1992Z" fill="#0F172A"/>
<path d="M7.12483 13.5984V14.6383C7.12483 14.8525 7.01304 15.0592 6.80888 15.1239C6.65618 15.1724 6.49355 15.1984 6.32483 15.1984C5.44118 15.1984 4.72483 14.4821 4.72483 13.5984C4.72483 12.8024 4.87016 12.0404 5.13574 11.3372C5.29903 10.905 5.00291 10.3984 4.5408 10.3984H2.52483C1.53072 10.3984 0.715963 9.59076 0.807866 8.60092C0.962346 6.93715 1.32911 5.33495 1.88081 3.82169C2.20208 2.94045 3.06699 2.39844 4.00496 2.39844H6.55827C6.93086 2.39844 7.29833 2.48518 7.63159 2.65181L9.81809 3.74506C10.1514 3.91169 10.5188 3.99844 10.8914 3.99844H11.9248V9.59844H11.1542C10.6067 9.59844 10.148 9.98444 9.86449 10.4529C9.47377 11.0986 8.86113 11.5951 8.13233 11.8366C7.78612 11.9514 7.44946 12.1456 7.32285 12.4877C7.19479 12.8337 7.12483 13.208 7.12483 13.5984Z" fill="#0F172A"/>
</svg>
