<svg width="16" height="16" viewBox="0 0 16 16" fill="none" xmlns="http://www.w3.org/2000/svg">
<path fill-rule="evenodd" clip-rule="evenodd" d="M8.80039 1.60078C8.80039 1.15896 8.44223 0.800781 8.00039 0.800781C7.55857 0.800781 7.20039 1.15896 7.20039 1.60078V6.40078V6.80078C7.20039 7.02169 7.0213 7.20078 6.80039 7.20078C6.57948 7.20078 6.40039 7.02169 6.40039 6.80078V6.40078V2.40078C6.40039 1.95896 6.04222 1.60078 5.60039 1.60078C5.15856 1.60078 4.80039 1.95896 4.80039 2.40078V6.40078V6.80078C4.80039 7.02169 4.6213 7.20078 4.40039 7.20078C4.17948 7.20078 4.00039 7.02169 4.00039 6.80078V6.40078V4.00078C4.00039 3.55896 3.64222 3.20078 3.20039 3.20078C2.75856 3.20078 2.40039 3.55896 2.40039 4.00078V8.80078V9.60078C2.40039 12.6936 4.9076 15.2008 8.00039 15.2008C11.0932 15.2008 13.6004 12.6936 13.6004 9.60078V8.80078V6.40078C13.6004 5.95896 13.2422 5.60078 12.8004 5.60078C12.3586 5.60078 12.0004 5.95896 12.0004 6.40078V8.80078V9.20078C12.0004 9.42166 11.8213 9.60078 11.6004 9.60078C11.3795 9.60078 11.2004 9.42166 11.2004 9.20078V8.80078V8.00078V6.40078V2.40078C11.2004 1.95896 10.8422 1.60078 10.4004 1.60078C9.95855 1.60078 9.60039 1.95896 9.60039 2.40078V6.40078V6.80078C9.60039 7.02169 9.42127 7.20078 9.20039 7.20078C8.97951 7.20078 8.80039 7.02169 8.80039 6.80078V6.40078V1.60078Z" fill="#0F172A"/>
</svg>
