<svg width="16" height="16" viewBox="0 0 16 16" fill="none" xmlns="http://www.w3.org/2000/svg">
<path d="M0.800781 6.60156C0.800781 6.04927 1.24849 5.60156 1.80078 5.60156C2.35307 5.60156 2.80078 6.04927 2.80078 6.60156V12.6016C2.80078 13.1539 2.35307 13.6016 1.80078 13.6016C1.24849 13.6016 0.800781 13.1539 0.800781 12.6016V6.60156Z" fill="#0F172A"/>
<path d="M8.8 2.40078V1.36091C8.8 1.14673 8.91176 0.940029 9.11592 0.875309C9.26864 0.826893 9.43128 0.800781 9.6 0.800781C10.4837 0.800781 11.2 1.51713 11.2 2.40078C11.2 3.19681 11.0546 3.95889 10.7891 4.66195C10.6258 5.09425 10.9219 5.60078 11.384 5.60078H13.4C14.3941 5.60078 15.2089 6.40844 15.117 7.39829C14.9625 9.06206 14.5958 10.6643 14.044 12.1775C13.7227 13.0588 12.8578 13.6008 11.9198 13.6008H9.36656C8.994 13.6008 8.62648 13.5141 8.29328 13.3474L6.10675 12.2541C5.7735 12.0875 5.40602 12.0008 5.03344 12.0008H4V6.40078H4.77056C5.3181 6.40078 5.77684 6.01477 6.06033 5.54633C6.4511 4.90062 7.0637 4.40417 7.79249 4.16261C8.13872 4.04785 8.47536 3.85354 8.602 3.51147C8.73008 3.16548 8.8 2.7913 8.8 2.40078Z" fill="#0F172A"/>
</svg>
