<svg width="16" height="16" viewBox="0 0 16 16" fill="none" xmlns="http://www.w3.org/2000/svg">
<path d="M7.97915 1.33594C4.29916 1.33594 1.3125 4.3226 1.3125 8.0026C1.3125 11.6826 4.29916 14.6692 7.97915 14.6692C11.6591 14.6692 14.6458 11.6826 14.6458 8.0026C14.6458 4.3226 11.6658 1.33594 7.97915 1.33594ZM11.5991 10.956C10.7791 12.136 9.4325 12.836 7.99915 12.836C6.56584 12.836 5.21916 12.136 4.39916 10.956C4.23916 10.7292 4.29916 10.416 4.52584 10.2626C4.7525 10.1026 5.06584 10.1626 5.21916 10.3892C5.8525 11.296 6.89248 11.8426 7.99915 11.8426C9.10578 11.8426 10.1458 11.3026 10.7791 10.3892C10.9391 10.1626 11.2458 10.1092 11.4725 10.2626C11.7058 10.416 11.7591 10.7292 11.5991 10.956Z" fill="white"/>
</svg>
