<svg width="16" height="16" viewBox="0 0 16 16" fill="none" xmlns="http://www.w3.org/2000/svg">
<path d="M14.6673 3.82812V12.1748C14.6673 13.5481 13.5473 14.6681 12.174 14.6681H11.8273C10.454 14.6681 9.33398 13.5481 9.33398 12.1748V7.92144C9.56734 7.89476 9.79398 7.86144 10.0073 7.81476C11.3673 7.5681 12.4006 7.10144 13.1473 6.62812C14.1073 6.02812 14.6673 4.96145 14.6673 3.82812Z" fill="white"/>
<path d="M14.6674 3.82927C14.6674 4.96261 14.1074 6.02927 13.1474 6.62927C12.4006 7.1026 11.3674 7.56927 10.0074 7.81594C9.79399 7.8626 9.56735 7.89594 9.33399 7.9226V8.4226C8.54063 8.5226 7.69398 8.46924 6.71398 8.56924L6.66732 8.57596V12.176C6.66732 13.5492 5.54733 14.6692 4.17399 14.6692H3.82731C2.45398 14.6692 1.33398 13.5492 1.33398 12.176C1.33398 12.116 1.334 12.0492 1.34734 11.9892C1.40066 10.9226 1.94734 9.9426 2.85401 9.37596C3.60067 8.9026 4.63398 8.43596 5.9873 8.18924C6.20064 8.1426 6.43398 8.10924 6.66732 8.0826V7.56927C7.70732 7.47594 8.50063 7.52927 9.27399 7.42927L9.33399 7.4226V3.82927C9.33399 2.45595 10.454 1.33594 11.8274 1.33594H12.174C13.394 1.33594 14.4206 2.2226 14.6274 3.38927C14.654 3.52927 14.6674 3.67595 14.6674 3.82927Z" fill="white"/>
<path d="M6.66732 3.82927V8.0826C6.43398 8.10924 6.20064 8.1426 5.9873 8.18924C4.63398 8.43596 3.60067 8.9026 2.85401 9.37596C1.94734 9.9426 1.40066 10.9226 1.34734 11.9892C1.34066 11.996 1.33398 12.0026 1.33398 12.0026V3.82927C1.33398 2.45595 2.45398 1.33594 3.82731 1.33594H4.17399C5.54733 1.33594 6.66732 2.45595 6.66732 3.82927Z" fill="white"/>
</svg>
