<svg width="16" height="16" viewBox="0 0 16 16" fill="none" xmlns="http://www.w3.org/2000/svg">
<path d="M6.7207 7.88792H7.8207L7.94737 6.78125H6.84737L6.7207 7.88792Z" fill="white"/>
<path d="M14.6474 4.80927C14.514 2.75594 13.2474 1.48927 11.194 1.35594C11.0606 1.3426 10.9274 1.33594 10.794 1.33594H5.20732C5.07398 1.33594 4.94066 1.3426 4.80732 1.35594C2.75398 1.48927 1.48732 2.75594 1.35398 4.80927C1.34066 4.9426 1.33398 5.07594 1.33398 5.20927V10.796C1.33398 10.9292 1.34066 11.0626 1.35398 11.196C1.48732 13.2492 2.75398 14.516 4.80732 14.6492C4.94066 14.6626 5.07398 14.6692 5.20732 14.6692H9.00063C9.36735 14.6692 9.66735 14.3692 9.66735 14.0026V12.0226C9.66735 10.7226 10.7206 9.66924 12.0206 9.66924H14.0006C14.3674 9.66924 14.6674 9.36924 14.6674 9.0026V5.20927C14.6674 5.07594 14.6606 4.9426 14.6474 4.80927ZM10.6674 6.7826H8.95399L8.82735 7.88927H10.314C10.594 7.88927 10.814 8.11596 10.814 8.38924C10.814 8.6626 10.594 8.88924 10.314 8.88924H8.72063L8.53399 10.5492C8.50735 10.8026 8.28735 10.996 8.03399 10.996C8.02063 10.996 8.00063 10.996 7.98066 10.9892C7.70732 10.9626 7.50732 10.716 7.54066 10.436L7.71398 8.88924H6.61398L6.42732 10.5492C6.40066 10.8026 6.18066 10.996 5.93398 10.996C5.91398 10.996 5.89398 10.996 5.87398 10.9892C5.60066 10.9626 5.40066 10.716 5.43398 10.436L5.60732 8.88924H4.00066C3.72732 8.88924 3.50066 8.6626 3.50066 8.38924C3.50066 8.11596 3.72732 7.88927 4.00066 7.88927H5.71398L5.84066 6.7826H4.35398C4.07398 6.7826 3.85398 6.55594 3.85398 6.2826C3.85398 6.00927 4.07398 5.7826 4.35398 5.7826H5.94732L6.13398 4.1226C6.16732 3.84927 6.41398 3.64927 6.68732 3.6826C6.96066 3.70927 7.16065 3.95594 7.12732 4.23594L6.95398 5.7826H8.05399L8.24063 4.1226C8.27399 3.84927 8.52063 3.64927 8.79399 3.6826C9.06735 3.70927 9.26735 3.95594 9.23399 4.23594L9.06063 5.7826H10.6674C10.9406 5.7826 11.1674 6.00927 11.1674 6.2826C11.1674 6.55594 10.9406 6.7826 10.6674 6.7826Z" fill="white"/>
<path d="M13.9794 15.3308H12.0194C11.1727 15.3308 10.666 14.8241 10.666 13.9774V12.0174C10.666 11.1708 11.1727 10.6641 12.0194 10.6641H13.9794C14.826 10.6641 15.3327 11.1708 15.3327 12.0174V13.9774C15.3327 14.8241 14.826 15.3308 13.9794 15.3308ZM14.126 13.1241C14.046 13.0441 13.9394 13.0041 13.8327 13.0041C13.726 13.0041 13.6194 13.0441 13.5394 13.1241L13.4194 13.2441V11.7508C13.4194 11.5174 13.2327 11.3308 12.9994 11.3308C12.766 11.3308 12.5794 11.5174 12.5794 11.7508V13.2441L12.4594 13.1241C12.2994 12.9641 12.0327 12.9641 11.8727 13.1241C11.7127 13.2841 11.7127 13.5508 11.8727 13.7108L12.706 14.5441C12.7394 14.5774 12.786 14.6041 12.8327 14.6241C12.846 14.6308 12.8594 14.6308 12.8727 14.6374C12.906 14.6508 12.9394 14.6574 12.9794 14.6574C12.9927 14.6574 13.006 14.6574 13.0194 14.6574C13.066 14.6574 13.106 14.6508 13.1527 14.6308C13.1594 14.6308 13.1594 14.6308 13.166 14.6308C13.2127 14.6108 13.2527 14.5841 13.286 14.5508C13.2927 14.5441 13.2927 14.5441 13.2994 14.5441L14.1327 13.7108C14.2927 13.5508 14.2927 13.2841 14.126 13.1241Z" fill="white"/>
</svg>
