<svg width="16" height="16" viewBox="0 0 16 16" fill="none" xmlns="http://www.w3.org/2000/svg">
<path fill-rule="evenodd" clip-rule="evenodd" d="M7.59406 2.28362C7.63933 1.95536 7.40993 1.65254 7.08166 1.60726C6.7534 1.56199 6.45058 1.79139 6.4053 2.11965L6.03538 4.80164H3.35826C3.02689 4.80164 2.75826 5.07027 2.75826 5.40164C2.75826 5.73301 3.02689 6.00164 3.35826 6.00164H5.86986L5.31814 10.0016H2.64102C2.30964 10.0016 2.04102 10.2703 2.04102 10.6016C2.04102 10.933 2.30964 11.2016 2.64102 11.2016H5.15262L4.80531 13.7196C4.76003 14.0479 4.98943 14.3508 5.3177 14.396C5.64596 14.4413 5.94878 14.2119 5.99406 13.8836L6.36398 11.2016H8.75265L8.40529 13.7196C8.36001 14.0479 8.58945 14.3508 8.91769 14.396C9.24593 14.4413 9.54881 14.2119 9.59409 13.8836L9.96401 11.2016H12.641C12.9724 11.2016 13.241 10.933 13.241 10.6016C13.241 10.2703 12.9724 10.0016 12.641 10.0016H10.1295L10.6812 6.00164H13.3582C13.6896 6.00164 13.9582 5.73301 13.9582 5.40164C13.9582 5.07027 13.6896 4.80164 13.3582 4.80164H10.8467L11.1941 2.28362C11.2394 1.95536 11.0099 1.65254 10.6817 1.60726C10.3534 1.56199 10.0506 1.79139 10.0053 2.11965L9.63537 4.80164H7.24674L7.59406 2.28362ZM7.08122 6.00164L6.5295 10.0016H8.91817L9.46985 6.00164H7.08122Z" fill="#0F172A"/>
</svg>
