<svg width="16" height="16" viewBox="0 0 16 16" fill="none" xmlns="http://www.w3.org/2000/svg">
<path d="M5.36719 6.76053V7.53387H7.54052V5.36719H6.76719C5.99385 5.36719 5.36719 5.99385 5.36719 6.76053Z" fill="white"/>
<path d="M5.36719 9.2382C5.36719 10.0048 5.99385 10.6316 6.76052 10.6316H7.53385V8.46484H5.36719V9.2382Z" fill="white"/>
<path d="M8.4668 10.6316H9.24016C10.0068 10.6316 10.6334 10.0048 10.6334 9.2382V8.46484H8.4668V10.6316Z" fill="white"/>
<path d="M10.794 1.33594H5.20732C2.78066 1.33594 1.33398 2.7826 1.33398 5.20927V10.7892C1.33398 13.2226 2.78066 14.6692 5.20732 14.6692H10.7874C13.214 14.6692 14.6606 13.2226 14.6606 10.796V5.20927C14.6674 2.7826 13.2206 1.33594 10.794 1.33594ZM11.5674 9.2426C11.5674 10.5226 10.5206 11.5692 9.24063 11.5692H6.76066C5.48066 11.5692 4.43398 10.5292 4.43398 9.2426V6.7626C4.43398 5.4826 5.48066 4.43594 6.76066 4.43594H9.24063C10.5206 4.43594 11.5674 5.47594 11.5674 6.7626V9.2426Z" fill="white"/>
<path d="M9.24016 5.36719H8.4668V7.54053H10.6402V6.7672C10.6334 5.99385 10.0068 5.36719 9.24016 5.36719Z" fill="white"/>
</svg>
