<svg width="16" height="16" viewBox="0 0 16 16" fill="none" xmlns="http://www.w3.org/2000/svg">
<path d="M6.7207 7.88792H7.8207L7.94737 6.78125H6.84737L6.7207 7.88792Z" fill="white"/>
<path d="M14.6474 4.80927C14.514 2.75594 13.2474 1.48927 11.194 1.35594C11.0606 1.3426 10.9274 1.33594 10.794 1.33594H5.20732C5.07398 1.33594 4.94066 1.3426 4.80732 1.35594C2.75398 1.48927 1.48732 2.75594 1.35398 4.80927C1.34066 4.9426 1.33398 5.07594 1.33398 5.20927V10.796C1.33398 10.9292 1.34066 11.0626 1.35398 11.196C1.48732 13.2492 2.75398 14.516 4.80732 14.6492C4.94066 14.6626 5.07398 14.6692 5.20732 14.6692H9.00063C9.36735 14.6692 9.66735 14.3692 9.66735 14.0026V12.0226C9.66735 10.7226 10.7206 9.66924 12.0206 9.66924H14.0006C14.3674 9.66924 14.6674 9.36924 14.6674 9.0026V5.20927C14.6674 5.07594 14.6606 4.9426 14.6474 4.80927ZM10.6674 6.7826H8.95399L8.82735 7.88927H10.314C10.594 7.88927 10.814 8.11596 10.814 8.38924C10.814 8.6626 10.594 8.88924 10.314 8.88924H8.72063L8.53399 10.5492C8.50735 10.8026 8.28735 10.996 8.03399 10.996C8.02063 10.996 8.00063 10.996 7.98066 10.9892C7.70732 10.9626 7.50732 10.716 7.54066 10.436L7.71398 8.88924H6.61398L6.42732 10.5492C6.40066 10.8026 6.18066 10.996 5.93398 10.996C5.91398 10.996 5.89398 10.996 5.87398 10.9892C5.60066 10.9626 5.40066 10.716 5.43398 10.436L5.60732 8.88924H4.00066C3.72732 8.88924 3.50066 8.6626 3.50066 8.38924C3.50066 8.11596 3.72732 7.88927 4.00066 7.88927H5.71398L5.84066 6.7826H4.35398C4.07398 6.7826 3.85398 6.55594 3.85398 6.2826C3.85398 6.00927 4.07398 5.7826 4.35398 5.7826H5.94732L6.13398 4.1226C6.16732 3.84927 6.41398 3.64927 6.68732 3.6826C6.96066 3.70927 7.16065 3.95594 7.12732 4.23594L6.95398 5.7826H8.05399L8.24063 4.1226C8.27399 3.84927 8.52063 3.64927 8.79399 3.6826C9.06735 3.70927 9.26735 3.95594 9.23399 4.23594L9.06063 5.7826H10.6674C10.9406 5.7826 11.1674 6.00927 11.1674 6.2826C11.1674 6.55594 10.9406 6.7826 10.6674 6.7826Z" fill="white"/>
<path d="M13.9794 10.6641H12.0194C11.1727 10.6641 10.666 11.1708 10.666 12.0174V13.9774C10.666 14.8241 11.1727 15.3308 12.0194 15.3308H13.9794C14.826 15.3308 15.3327 14.8241 15.3327 13.9774V12.0174C15.3327 11.1708 14.826 10.6641 13.9794 10.6641ZM14.126 12.8708C14.046 12.9508 13.9394 12.9908 13.8327 12.9908C13.726 12.9908 13.6194 12.9508 13.5394 12.8708L13.4194 12.7508V14.2441C13.4194 14.4774 13.2327 14.6641 12.9994 14.6641C12.766 14.6641 12.5794 14.4774 12.5794 14.2441V12.7508L12.4594 12.8708C12.2994 13.0308 12.0327 13.0308 11.8727 12.8708C11.7127 12.7108 11.7127 12.4441 11.8727 12.2841L12.706 11.4508C12.7394 11.4174 12.786 11.3908 12.8327 11.3708C12.846 11.3641 12.8594 11.3641 12.8727 11.3574C12.906 11.3441 12.9394 11.3374 12.9794 11.3374C12.9927 11.3374 13.006 11.3374 13.0194 11.3374C13.066 11.3374 13.106 11.3441 13.1527 11.3641C13.1594 11.3641 13.1594 11.3641 13.166 11.3641C13.2127 11.3841 13.2527 11.4108 13.286 11.4441C13.2927 11.4508 13.2927 11.4508 13.2994 11.4508L14.1327 12.2841C14.2927 12.4441 14.2927 12.7108 14.126 12.8708Z" fill="white"/>
</svg>
