<svg width="16" height="16" viewBox="0 0 16 16" fill="none" xmlns="http://www.w3.org/2000/svg">
<path d="M5.66602 8.5C5.39268 8.5 5.16602 8.27336 5.16602 8V4C5.16602 3.72666 5.39268 3.5 5.66602 3.5C5.93934 3.5 6.16602 3.72666 6.16602 4V8C6.16602 8.27336 5.93934 8.5 5.66602 8.5Z" fill="white"/>
<path d="M5.66602 15.1666C5.39268 15.1666 5.16602 14.94 5.16602 14.6666V12C5.16602 11.7266 5.39268 11.5 5.66602 11.5C5.93934 11.5 6.16602 11.7266 6.16602 12V14.6666C6.16602 14.94 5.93934 15.1666 5.66602 15.1666Z" fill="white"/>
<path d="M10.334 15.1666C10.0606 15.1666 9.83398 14.94 9.83398 14.6666V4C9.83398 3.72666 10.0606 3.5 10.334 3.5C10.6073 3.5 10.834 3.72666 10.834 4V14.6666C10.834 14.94 10.6073 15.1666 10.334 15.1666Z" fill="white"/>
<path d="M6.7332 3.53594C6.7332 3.8626 6.59987 4.1626 6.37987 4.3826C6.15987 4.6026 5.85987 4.73594 5.5332 4.73594H4.0332C4.21987 4.48927 4.3332 4.16927 4.3332 3.83594V3.23594C4.3332 2.9026 4.21987 2.5826 4.0332 2.33594H5.5332C6.1932 2.33594 6.7332 2.87594 6.7332 3.53594Z" fill="white"/>
<path d="M4.33398 3.23223V3.83223C4.33398 4.16556 4.22066 4.48556 4.03398 4.73223C3.52732 5.40556 2.48732 5.63222 1.52066 4.77223C1.41398 4.6789 1.33398 4.4789 1.33398 4.3389V2.7789C1.33398 2.64556 1.40066 2.46556 1.48732 2.37223C2.32732 1.49222 3.34066 1.6189 3.89398 2.17223C3.94066 2.2189 3.99398 2.27223 4.03398 2.33223C4.22066 2.5789 4.33398 2.8989 4.33398 3.23223Z" fill="white"/>
<path d="M9.26758 3.53594C9.26758 3.8626 9.40094 4.1626 9.62094 4.3826C9.84094 4.6026 10.1409 4.73594 10.4676 4.73594H11.9676C11.7809 4.48927 11.6676 4.16927 11.6676 3.83594V3.23594C11.6676 2.9026 11.7809 2.5826 11.9676 2.33594H10.4676C9.80758 2.33594 9.26758 2.87594 9.26758 3.53594Z" fill="white"/>
<path d="M11.666 3.23223V3.83223C11.666 4.16556 11.7794 4.48556 11.966 4.73223C12.4727 5.40556 13.5127 5.63222 14.4794 4.77223C14.586 4.6789 14.666 4.4789 14.666 4.3389V2.7789C14.666 2.65223 14.5994 2.46556 14.5127 2.37223C13.6727 1.49222 12.6594 1.6189 12.106 2.17223C12.0594 2.2189 12.0127 2.27223 11.966 2.33223C11.7794 2.5789 11.666 2.8989 11.666 3.23223Z" fill="white"/>
<path d="M6.66602 9V11.6666C6.66602 12.22 6.21934 12.6666 5.66602 12.6666C5.11268 12.6666 4.66602 12.22 4.66602 11.6666V9C4.66602 8.44664 5.11268 8 5.66602 8C6.21934 8 6.66602 8.44664 6.66602 9Z" fill="white"/>
</svg>
