<svg width="16" height="16" viewBox="0 0 16 16" fill="none" xmlns="http://www.w3.org/2000/svg">
<path d="M1.83321 12.4339C1.55988 12.4339 1.33321 12.2072 1.33321 11.9339V8.13388C1.29988 6.32719 1.97321 4.62052 3.22654 3.34052C4.47988 2.06719 6.15988 1.36719 7.96652 1.36719C11.6598 1.36719 14.6666 4.37385 14.6666 8.06716V11.8672C14.6666 12.1405 14.4398 12.3672 14.1666 12.3672C13.8932 12.3672 13.6666 12.1405 13.6666 11.8672V8.06716C13.6666 4.92719 11.1132 2.36719 7.96652 2.36719C6.42654 2.36719 4.99988 2.96052 3.93988 4.04052C2.87321 5.12719 2.30654 6.57385 2.33321 8.12052V11.9272C2.33321 12.2072 2.11321 12.4339 1.83321 12.4339Z" fill="white"/>
<path d="M3.96066 8.30078H3.87398C2.47398 8.30078 1.33398 9.44078 1.33398 10.8408V12.0941C1.33398 13.4941 2.47398 14.6341 3.87398 14.6341H3.96066C5.36066 14.6341 6.50066 13.4941 6.50066 12.0941V10.8408C6.50066 9.44078 5.36066 8.30078 3.96066 8.30078Z" fill="white"/>
<path d="M12.1266 8.30078H12.04C10.64 8.30078 9.5 9.44078 9.5 10.8408V12.0941C9.5 13.4941 10.64 14.6341 12.04 14.6341H12.1266C13.5266 14.6341 14.6666 13.4941 14.6666 12.0941V10.8408C14.6666 9.44078 13.5266 8.30078 12.1266 8.30078Z" fill="white"/>
</svg>
