<svg width="16" height="16" viewBox="0 0 16 16" fill="none" xmlns="http://www.w3.org/2000/svg">
<path d="M14.6674 5.20927V8.33596H11.9474C11.8674 8.32924 11.694 8.22924 11.654 8.15596L10.9606 6.8426C10.6874 6.3226 10.214 6.02927 9.70735 6.05594C9.20063 6.0826 8.76735 6.4226 8.54735 6.97594L7.62732 9.2826L7.49398 8.93596C7.16732 8.08924 6.23398 7.44927 5.31398 7.44927L1.33398 7.46927V5.20927C1.33398 2.7826 2.78066 1.33594 5.20732 1.33594H10.794C13.2206 1.33594 14.6674 2.7826 14.6674 5.20927Z" fill="white"/>
<path d="M14.6674 10.7951V9.33508H11.9474C11.5006 9.33508 10.974 9.01508 10.7674 8.62172L10.074 7.30839C9.88735 6.95506 9.62063 6.97506 9.47399 7.34172L7.94066 11.2151C7.77398 11.6484 7.49398 11.6484 7.32065 11.2151L6.56066 9.29508C6.38066 8.82836 5.82066 8.44836 5.32066 8.44836L1.33398 8.46836V10.7951C1.33398 13.1817 2.73398 14.6217 5.08732 14.6617C5.16066 14.6684 5.24066 14.6684 5.31398 14.6684H10.6474C10.7474 14.6684 10.8474 14.6684 10.9406 14.6617C13.2806 14.6084 14.6674 13.1751 14.6674 10.7951Z" fill="white"/>
<path d="M1.3325 8.46484V10.6716C1.31916 10.4582 1.3125 10.2316 1.3125 9.9982V8.46484H1.3325Z" fill="white"/>
</svg>
