<svg width="16" height="16" viewBox="0 0 16 16" fill="none" xmlns="http://www.w3.org/2000/svg">
<path d="M7.72199 13.5304L7.71769 13.5281L7.70291 13.5204C7.69034 13.5137 7.67243 13.5042 7.64951 13.4918C7.6037 13.4671 7.53786 13.431 7.45486 13.384C7.28892 13.2901 7.05396 13.1524 6.77291 12.9749C6.21206 12.6206 5.46146 12.1036 4.70792 11.4542C3.23519 10.185 1.59961 8.28028 1.59961 5.99844C1.59961 4.01021 3.21139 2.39844 5.19961 2.39844C6.33113 2.39844 7.33995 2.92034 7.99961 3.7357C8.65929 2.92034 9.66809 2.39844 10.7996 2.39844C12.7878 2.39844 14.3996 4.01021 14.3996 5.99844C14.3996 8.28028 12.764 10.185 11.2913 11.4542C10.5378 12.1036 9.78713 12.6206 9.22633 12.9749C8.94529 13.1524 8.71033 13.2901 8.54433 13.384C8.46137 13.431 8.39553 13.4671 8.34969 13.4918C8.32681 13.5042 8.30889 13.5137 8.29633 13.5204L8.28153 13.5281L8.27721 13.5304L8.27585 13.5311C8.10361 13.6224 7.89561 13.6224 7.72384 13.5313L7.72199 13.5304Z" fill="#0F172A"/>
</svg>
