<svg width="16" height="16" viewBox="0 0 16 16" fill="none" xmlns="http://www.w3.org/2000/svg">
<path d="M13.7942 9.27898C13.7876 9.27898 13.7876 9.27234 13.7876 9.27234V9.26563C13.2009 8.65234 12.3809 8.26562 11.4676 8.26562C9.70094 8.26562 8.26758 9.69898 8.26758 11.4656C8.26758 12.2856 8.58094 13.0323 9.08758 13.599C9.67422 14.2523 10.5209 14.6656 11.4676 14.6656C13.2342 14.6656 14.6676 13.2323 14.6676 11.4656C14.6676 10.619 14.3342 9.85234 13.7942 9.27898ZM12.6742 12.7123C12.5809 12.8056 12.4476 12.859 12.3209 12.859C12.1942 12.859 12.0676 12.8056 11.9676 12.7123L11.4742 12.219L10.9676 12.7323C10.8676 12.8256 10.7409 12.879 10.6142 12.879C10.5476 12.879 10.4876 12.8656 10.4276 12.839C10.3676 12.819 10.3076 12.779 10.2609 12.7323C10.0609 12.5323 10.0609 12.219 10.2609 12.0256L10.7676 11.5123L10.2809 11.019C10.0809 10.8256 10.0809 10.5056 10.2809 10.3123C10.4742 10.119 10.7876 10.119 10.9876 10.3123L11.4742 10.8056L11.9476 10.3323C12.1476 10.139 12.4609 10.139 12.6542 10.3323C12.7676 10.4456 12.8142 10.5923 12.7942 10.739C12.7876 10.8523 12.7409 10.959 12.6542 11.039L12.1809 11.5123L12.6742 12.0056C12.8742 12.199 12.8742 12.5123 12.6742 12.7123Z" fill="white"/>
<path d="M14.6674 5.82041C14.6674 6.61374 14.5406 7.34706 14.3206 8.02704C14.2806 8.16704 14.114 8.20704 13.994 8.1204C13.2674 7.5804 12.3806 7.29373 11.4674 7.29373C9.15399 7.29373 7.26732 9.1804 7.26732 11.4938C7.26732 12.2138 7.45398 12.9204 7.80732 13.547C7.91398 13.7338 7.78732 13.9738 7.58732 13.9004C5.98066 13.3538 2.73398 11.3604 1.68066 8.02704C1.46066 7.34706 1.33398 6.61374 1.33398 5.82041C1.33398 3.76041 2.99398 2.09375 5.04066 2.09375C6.24732 2.09375 7.32732 2.68041 8.00063 3.58041C8.67399 2.68041 9.75399 2.09375 10.9606 2.09375C13.0074 2.09374 14.6674 3.76041 14.6674 5.82041Z" fill="white"/>
</svg>
