<svg width="16" height="16" viewBox="0 0 16 16" fill="none" xmlns="http://www.w3.org/2000/svg">
<path d="M14.4927 13.6735L13.9194 13.1002C14.2194 12.6469 14.3927 12.1069 14.3927 11.5269C14.3927 9.94688 13.1127 8.66016 11.526 8.66016C9.93938 8.66016 8.66602 9.94688 8.66602 11.5335C8.66602 13.1202 9.94602 14.4002 11.5327 14.4002C12.1127 14.4002 12.6527 14.2269 13.106 13.9269L13.6794 14.5002C13.7927 14.6135 13.9394 14.6735 14.0927 14.6735C14.246 14.6735 14.3927 14.6135 14.506 14.5002C14.726 14.2669 14.726 13.9002 14.4927 13.6735Z" fill="white"/>
<path d="M14.6674 5.82041C14.6674 6.61374 14.5406 7.34706 14.3206 8.02704C14.2806 8.16704 14.114 8.20704 13.994 8.1204C13.2674 7.5804 12.3806 7.29373 11.4674 7.29373C9.15399 7.29373 7.26732 9.1804 7.26732 11.4938C7.26732 12.2138 7.45398 12.9204 7.80732 13.547C7.91398 13.7338 7.78732 13.9738 7.58732 13.9004C5.98066 13.3538 2.73398 11.3604 1.68066 8.02704C1.46066 7.34706 1.33398 6.61374 1.33398 5.82041C1.33398 3.76041 2.99398 2.09375 5.04066 2.09375C6.24732 2.09375 7.32732 2.68041 8.00063 3.58041C8.67399 2.68041 9.75399 2.09375 10.9606 2.09375C13.0074 2.09374 14.6674 3.76041 14.6674 5.82041Z" fill="white"/>
</svg>
