<svg width="16" height="16" viewBox="0 0 16 16" fill="none" xmlns="http://www.w3.org/2000/svg">
<path d="M8.00063 1.33594C4.32066 1.33594 1.33398 4.3226 1.33398 8.0026C1.33398 11.6826 4.32066 14.6692 8.00063 14.6692C11.6806 14.6692 14.6674 11.6826 14.6674 8.0026C14.6674 4.3226 11.6806 1.33594 8.00063 1.33594ZM8.22063 11.336C8.10063 11.376 7.89398 11.376 7.77398 11.336C6.73398 10.9826 4.40066 9.49596 4.40066 6.97594C4.40066 5.8626 5.29398 4.9626 6.40066 4.9626C7.05398 4.9626 7.63398 5.27594 8.00063 5.76927C8.36063 5.2826 8.94735 4.9626 9.60063 4.9626C10.7074 4.9626 11.6006 5.8626 11.6006 6.97594C11.6006 9.49596 9.26735 10.9826 8.22063 11.336Z" fill="white"/>
</svg>
