<svg width="16" height="16" viewBox="0 0 16 16" fill="none" xmlns="http://www.w3.org/2000/svg">
<path d="M10.9606 2.06641C9.75399 2.06641 8.67399 2.65307 8.00063 3.55307C7.32732 2.65307 6.24732 2.06641 5.04066 2.06641C2.99398 2.06641 1.33398 3.73307 1.33398 5.79307C1.33398 6.58641 1.46066 7.31973 1.68066 7.99973C2.73398 11.3331 5.98066 13.3264 7.58732 13.8731C7.81398 13.9531 8.18735 13.9531 8.41399 13.8731C10.0206 13.3264 13.2674 11.3331 14.3206 7.99973C14.5406 7.31973 14.6674 6.58641 14.6674 5.79307C14.6674 3.73307 13.0074 2.06641 10.9606 2.06641ZM9.89399 7.5864L7.53398 9.94638C7.44066 10.0397 7.26732 10.1264 7.14066 10.1464L6.24066 10.2664C5.91398 10.3131 5.68732 10.0864 5.73398 9.75974L5.86066 8.85974C5.88066 8.7331 5.96732 8.5531 6.06066 8.46638L8.42063 6.10641C8.82735 5.69974 9.30063 5.50641 9.90063 6.10641C10.494 6.7064 10.3006 7.17973 9.89399 7.5864Z" fill="white"/>
</svg>
