<svg width="16" height="16" viewBox="0 0 16 16" fill="none" xmlns="http://www.w3.org/2000/svg">
<g clip-path="url(#clip0_13_14184)">
<path d="M14.6666 5.79143C14.6666 6.58477 14.5399 7.3181 14.3199 7.9981C13.2666 11.3314 10.0199 13.3248 8.41329 13.8714C8.18657 13.9514 7.81326 13.9514 7.58659 13.8714C7.15993 13.7248 6.61991 13.4781 6.03991 13.1314C5.66658 12.9114 5.60658 12.3914 5.91325 12.0848L13.4333 4.56477C13.7933 4.20477 14.4266 4.3581 14.5533 4.85143C14.6266 5.15143 14.6666 5.46477 14.6666 5.79143Z" fill="white"/>
<path d="M15.0209 0.980938C14.8276 0.787604 14.5076 0.787604 14.3142 0.980938L12.7542 2.54094C12.2276 2.24094 11.6142 2.0676 10.9609 2.0676C9.75422 2.0676 8.67422 2.65427 8.00094 3.55427C7.32758 2.65427 6.2476 2.0676 5.04094 2.0676C2.99427 2.0676 1.33427 3.73427 1.33427 5.79427C1.33427 6.5876 1.46094 7.32097 1.68094 8.00097C2.11427 9.381 2.9276 10.5343 3.8476 11.4476L0.98094 14.3143C0.787603 14.5076 0.787603 14.8276 0.98094 15.021C1.08094 15.121 1.2076 15.1676 1.33427 15.1676C1.46094 15.1676 1.5876 15.121 1.6876 15.021L15.0209 1.6876C15.2142 1.49427 15.2142 1.17427 15.0209 0.980938Z" fill="white"/>
</g>
<defs>
<clipPath id="clip0_13_14184">
<rect width="16" height="16" fill="white"/>
</clipPath>
</defs>
</svg>
