<svg width="16" height="16" viewBox="0 0 16 16" fill="none" xmlns="http://www.w3.org/2000/svg">
<path d="M13.7876 9.27234V9.26563C13.2009 8.64563 12.3809 8.26562 11.4676 8.26562C9.70094 8.26562 8.26758 9.69898 8.26758 11.4656C8.26758 12.2856 8.58094 13.0323 9.08758 13.599C9.67422 14.2523 10.5209 14.6656 11.4676 14.6656C13.2342 14.6656 14.6676 13.2323 14.6676 11.4656C14.6676 10.619 14.3342 9.84562 13.7876 9.27234ZM12.6609 12.0056H11.9676V12.7323C11.9676 13.0056 11.7409 13.2323 11.4676 13.2323C11.1942 13.2323 10.9676 13.0056 10.9676 12.7323V12.0056H10.2742C9.99422 12.0056 9.77422 11.7856 9.77422 11.5056C9.77422 11.2323 9.98758 11.0123 10.2676 11.0056H10.9676V10.339C10.9676 10.3256 10.9676 10.3123 10.9742 10.299C10.9876 10.0456 11.2076 9.83899 11.4676 9.83899C11.7342 9.83899 11.9542 10.0523 11.9676 10.319V11.0056H12.6609C12.9409 11.0056 13.1609 11.2323 13.1609 11.5056C13.1609 11.7856 12.9409 12.0056 12.6609 12.0056Z" fill="white"/>
<path d="M14.6674 5.82041C14.6674 6.61374 14.5406 7.34706 14.3206 8.02704C14.2806 8.16704 14.114 8.20704 13.994 8.1204C13.2674 7.5804 12.3806 7.29373 11.4674 7.29373C9.15399 7.29373 7.26732 9.1804 7.26732 11.4938C7.26732 12.2138 7.45398 12.9204 7.80732 13.547C7.91398 13.7338 7.78732 13.9738 7.58732 13.9004C5.98066 13.3538 2.73398 11.3604 1.68066 8.02704C1.46066 7.34706 1.33398 6.61374 1.33398 5.82041C1.33398 3.76041 2.99398 2.09375 5.04066 2.09375C6.24732 2.09375 7.32732 2.68041 8.00063 3.58041C8.67399 2.68041 9.75399 2.09375 10.9606 2.09375C13.0074 2.09374 14.6674 3.76041 14.6674 5.82041Z" fill="white"/>
</svg>
