<svg width="16" height="16" viewBox="0 0 16 16" fill="none" xmlns="http://www.w3.org/2000/svg">
<path d="M11.4676 8.26562C9.70094 8.26562 8.26758 9.69898 8.26758 11.4656C8.26758 12.0656 8.43422 12.6323 8.73422 13.1123C9.28758 14.039 10.3009 14.6656 11.4676 14.6656C12.6342 14.6656 13.6542 14.039 14.2009 13.1123C14.4942 12.6323 14.6676 12.0656 14.6676 11.4656C14.6676 9.69898 13.2342 8.26562 11.4676 8.26562ZM13.0542 11.0456L11.3476 12.619C11.2542 12.7056 11.1276 12.7523 11.0076 12.7523C10.8809 12.7523 10.7542 12.7056 10.6542 12.6056L9.86758 11.819C9.67422 11.6256 9.67422 11.3056 9.86758 11.1123C10.0609 10.919 10.3809 10.919 10.5742 11.1123L11.0209 11.559L12.3742 10.3056C12.5742 10.119 12.8942 10.1323 13.0809 10.3323C13.2676 10.539 13.2542 10.859 13.0542 11.0456Z" fill="white"/>
<path d="M14.6674 5.82041C14.6674 6.61374 14.5406 7.34706 14.3206 8.02704C14.2806 8.16704 14.114 8.20704 13.994 8.1204C13.2674 7.5804 12.3806 7.29373 11.4674 7.29373C9.15399 7.29373 7.26732 9.1804 7.26732 11.4938C7.26732 12.2138 7.45398 12.9204 7.80732 13.547C7.91398 13.7338 7.78732 13.9738 7.58732 13.9004C5.98066 13.3538 2.73398 11.3604 1.68066 8.02704C1.46066 7.34706 1.33398 6.61374 1.33398 5.82041C1.33398 3.76041 2.99398 2.09375 5.04066 2.09375C6.24732 2.09375 7.32732 2.68041 8.00063 3.58041C8.67399 2.68041 9.75399 2.09375 10.9606 2.09375C13.0074 2.09374 14.6674 3.76041 14.6674 5.82041Z" fill="white"/>
</svg>
