<svg width="16" height="16" viewBox="0 0 16 16" fill="none" xmlns="http://www.w3.org/2000/svg">
<path d="M10 7.25391H6V8.7539H10V7.25391Z" fill="white"/>
<path d="M8.00063 1.33594C4.32066 1.33594 1.33398 4.3226 1.33398 8.0026C1.33398 11.6826 4.32066 14.6692 8.00063 14.6692C11.6806 14.6692 14.6674 11.6826 14.6674 8.0026C14.6674 4.3226 11.6806 1.33594 8.00063 1.33594ZM11.0006 11.0026C11.0006 11.276 10.774 11.5026 10.5006 11.5026C10.2274 11.5026 10.0006 11.276 10.0006 11.0026V9.74924H6.00066V11.0026C6.00066 11.276 5.77398 11.5026 5.50066 11.5026C5.22732 11.5026 5.00066 11.276 5.00066 11.0026V5.0026C5.00066 4.72927 5.22732 4.5026 5.50066 4.5026C5.77398 4.5026 6.00066 4.72927 6.00066 5.0026V6.25594H10.0006V5.0026C10.0006 4.72927 10.2274 4.5026 10.5006 4.5026C10.774 4.5026 11.0006 4.72927 11.0006 5.0026V11.0026Z" fill="white"/>
</svg>
