<svg width="16" height="16" viewBox="0 0 16 16" fill="none" xmlns="http://www.w3.org/2000/svg">
<path opacity="0.13" d="M7.24588 9.33594L8.53257 11.5559L7.25262 13.7759H4.66592L3.39258 11.5692L4.68592 9.33594H7.24588Z" fill="white"/>
<path d="M7.02705 9.38672H4.74705C4.62705 9.38672 4.52038 9.45336 4.46038 9.55336L3.32039 11.5267C3.26039 11.6267 3.26039 11.76 3.32039 11.86L4.46038 13.8334C4.52038 13.9334 4.62705 14 4.74705 14H7.02705C7.14705 14 7.25373 13.9334 7.31373 13.8334L8.45375 11.86C8.51375 11.76 8.51375 11.6267 8.45375 11.5267L7.31373 9.55336C7.25373 9.44672 7.14705 9.38672 7.02705 9.38672Z" fill="white"/>
<path d="M14.8274 7.8255C14.8874 7.93216 14.8874 8.06548 14.8274 8.1722L11.5408 13.8588C11.4942 13.9455 11.4008 13.9988 11.3008 13.9988C11.0874 13.9988 10.9542 13.7655 11.0608 13.5855L13.2542 9.78548C13.3142 9.67884 13.3142 9.54548 13.2542 9.43884L10.3208 4.35886C10.2608 4.2522 10.1474 4.18552 10.0208 4.18552H4.14742C4.02076 4.18552 3.91408 4.2522 3.84741 4.35886L1.66742 8.14548C1.55409 8.34548 1.26742 8.34548 1.14742 8.14548C1.09409 8.0522 1.09409 7.93884 1.14742 7.8455L4.42743 2.16552C4.48076 2.05886 4.60075 1.99219 4.72742 1.99219H11.2542C11.3808 1.99219 11.4874 2.05886 11.5541 2.16552L14.8274 7.8255Z" fill="white"/>
<path d="M12.06 9.78768L9.72665 13.8277C9.66665 13.9344 9.55337 14.001 9.42665 14.001H9.02665C8.76001 14.001 8.59337 13.7144 8.72665 13.481L9.66001 11.8677C9.72001 11.761 9.72001 11.6277 9.66001 11.521L7.92666 8.52104C7.86 8.4144 7.74 8.34768 7.61333 8.34768H4.14669C4.02002 8.34768 3.91334 8.4144 3.84667 8.52104L2.91334 10.1344C2.78001 10.3677 2.44669 10.3677 2.31335 10.1344L2.11336 9.7944C2.05336 9.68768 2.05336 9.5544 2.11336 9.44768L4.44002 5.40771C4.50002 5.30104 4.61334 5.23438 4.74001 5.23438H9.40001C9.52665 5.23438 9.63337 5.30104 9.70001 5.40771L12.0334 9.44768C12.1134 9.54768 12.1134 9.68768 12.06 9.78768Z" fill="white"/>
</svg>
