<svg width="16" height="16" viewBox="0 0 16 16" fill="none" xmlns="http://www.w3.org/2000/svg">
<path d="M12.5006 14.6692C13.6973 14.6692 14.6673 13.6992 14.6673 12.5026C14.6673 11.306 13.6973 10.3359 12.5006 10.3359C11.3041 10.3359 10.334 11.306 10.334 12.5026C10.334 13.6992 11.3041 14.6692 12.5006 14.6692Z" fill="white"/>
<path d="M12.666 5.33594C13.7707 5.33594 14.666 4.44051 14.666 3.33594C14.666 2.23137 13.7707 1.33594 12.666 1.33594C11.5615 1.33594 10.666 2.23137 10.666 3.33594C10.666 4.44051 11.5615 5.33594 12.666 5.33594Z" fill="white"/>
<path d="M3.33398 5.33594C4.43855 5.33594 5.33398 4.44051 5.33398 3.33594C5.33398 2.23137 4.43855 1.33594 3.33398 1.33594C2.22942 1.33594 1.33398 2.23137 1.33398 3.33594C1.33398 4.44051 2.22942 5.33594 3.33398 5.33594Z" fill="white"/>
<path d="M3.22033 5.34927C3.86699 7.2026 5.61365 8.44924 7.58033 8.44924C7.587 8.44924 7.59366 8.44924 7.60033 8.44924L9.95368 8.4426C10.967 8.42924 11.8737 9.11596 12.147 10.1026V11.336C12.147 11.616 12.3737 11.8426 12.6603 11.8426C12.9403 11.8426 13.167 11.616 13.167 11.336V3.8426C13.167 3.5626 12.9403 3.33594 12.6603 3.33594C12.3803 3.33594 12.147 3.5626 12.147 3.8426V8.25596C11.5603 7.73594 10.7937 7.41594 9.96032 7.41594C9.95368 7.41594 9.95368 7.41594 9.94696 7.41594L7.59366 7.4226C7.587 7.4226 7.587 7.4226 7.58033 7.4226C6.05365 7.4226 4.68699 6.45594 4.18699 5.00927C4.10699 4.8026 3.91365 4.66927 3.70033 4.66927C3.64699 4.66927 3.58699 4.6826 3.53365 4.69594C3.26699 4.78927 3.12699 5.0826 3.22033 5.34927Z" fill="white"/>
</svg>
