<svg width="16" height="16" viewBox="0 0 16 16" fill="none" xmlns="http://www.w3.org/2000/svg">
<path d="M3.33398 5.33594C4.43855 5.33594 5.33398 4.44051 5.33398 3.33594C5.33398 2.23137 4.43855 1.33594 3.33398 1.33594C2.22942 1.33594 1.33398 2.23137 1.33398 3.33594C1.33398 4.44051 2.22942 5.33594 3.33398 5.33594Z" fill="white"/>
<path d="M12.666 10C13.7707 10 14.666 9.10456 14.666 8C14.666 6.8954 13.7707 6 12.666 6C11.5615 6 10.666 6.8954 10.666 8C10.666 9.10456 11.5615 10 12.666 10Z" fill="white"/>
<path d="M3.33398 14.6641C4.43855 14.6641 5.33398 13.7687 5.33398 12.6641C5.33398 11.5595 4.43855 10.6641 3.33398 10.6641C2.22942 10.6641 1.33398 11.5595 1.33398 12.6641C1.33398 13.7687 2.22942 14.6641 3.33398 14.6641Z" fill="white"/>
<path d="M3.33398 11.1692C3.06066 11.1692 2.83398 10.9426 2.83398 10.6692V5.33594C2.83398 5.0626 3.06066 4.83594 3.33398 4.83594C3.60732 4.83594 3.83398 5.0626 3.83398 5.33594C3.83398 6.79594 4.54066 7.5026 6.00066 7.5026H10.6674C10.9406 7.5026 11.1674 7.72927 11.1674 8.0026C11.1674 8.27596 10.9406 8.5026 10.6674 8.5026H6.00066C5.09398 8.5026 4.36732 8.26924 3.83398 7.82927V10.6692C3.83398 10.9426 3.60732 11.1692 3.33398 11.1692Z" fill="white"/>
</svg>
