<svg width="16" height="16" viewBox="0 0 16 16" fill="none" xmlns="http://www.w3.org/2000/svg">
<path d="M10.794 1.33594H5.20732C2.78066 1.33594 1.33398 2.7826 1.33398 5.20927V10.7892C1.33398 13.2226 2.78066 14.6692 5.20732 14.6692H10.7874C13.214 14.6692 14.6606 13.2226 14.6606 10.796V5.20927C14.6674 2.7826 13.2206 1.33594 10.794 1.33594ZM6.56732 10.9692C6.56732 11.7226 5.95398 12.336 5.20066 12.336C4.44732 12.336 3.83398 11.7226 3.83398 10.9692C3.83398 10.3892 4.19398 9.9026 4.70066 9.7026V6.8426C4.14066 6.63594 3.73398 6.1026 3.73398 5.46927C3.73398 4.6626 4.39398 4.0026 5.20066 4.0026C6.00732 4.0026 6.66732 4.6626 6.66732 5.46927C6.66732 6.1026 6.26066 6.63594 5.70066 6.8426V9.7026C6.20732 9.9026 6.56732 10.396 6.56732 10.9692ZM11.1674 12.336C10.414 12.336 9.80063 11.7226 9.80063 10.9692C9.80063 10.3892 10.1606 9.9026 10.6674 9.7026V5.83594C10.6674 5.7426 10.594 5.66927 10.5006 5.66927H9.74735L9.88735 5.7826C10.1006 5.9626 10.1274 6.27594 9.95399 6.48927C9.85399 6.60927 9.70735 6.66927 9.56735 6.66927C9.45399 6.66927 9.34063 6.62927 9.24735 6.55594L8.04735 5.55594C7.93398 5.45594 7.86732 5.31594 7.86732 5.16927C7.86732 5.0226 7.93398 4.8826 8.04735 4.7826L9.24735 3.7826C9.46063 3.60927 9.77399 3.63594 9.95399 3.84927C10.134 4.0626 10.1006 4.37594 9.88735 4.55594L9.74735 4.66927H10.5006C11.1406 4.66927 11.6674 5.19594 11.6674 5.83594V9.7026C12.174 9.9026 12.534 10.396 12.534 10.9692C12.534 11.7226 11.9206 12.336 11.1674 12.336Z" fill="white"/>
</svg>
