<svg width="16" height="16" viewBox="0 0 16 16" fill="none" xmlns="http://www.w3.org/2000/svg">
<path d="M10.794 1.33594H5.20732C2.78066 1.33594 1.33398 2.7826 1.33398 5.20927V10.7892C1.33398 13.2226 2.78066 14.6692 5.20732 14.6692H10.7874C13.214 14.6692 14.6606 13.2226 14.6606 10.796V5.20927C14.6674 2.7826 13.2206 1.33594 10.794 1.33594ZM10.8006 12.1692C10.0474 12.1692 9.43399 11.556 9.43399 10.8026C9.43399 10.3626 9.64735 9.97596 9.97399 9.7226C9.69399 8.98924 8.99399 8.4826 8.20735 8.50924L6.83398 8.51596H6.82732C6.42066 8.51596 6.03398 8.39596 5.70732 8.18924V9.53596C6.21398 9.73596 6.57398 10.2292 6.57398 10.8026C6.57398 11.556 5.96066 12.1692 5.20732 12.1692C4.45398 12.1692 3.84066 11.556 3.84066 10.8026C3.84066 10.2226 4.20066 9.73596 4.70732 9.53596V6.63594C4.20066 6.4026 3.84066 5.89594 3.84066 5.3026C3.84066 4.49594 4.50066 3.83594 5.30732 3.83594C6.11398 3.83594 6.77398 4.49594 6.77398 5.3026C6.77398 5.95594 6.34066 6.5026 5.74732 6.69594C5.88066 7.1826 6.32066 7.5226 6.82732 7.5226C6.82732 7.5226 6.82732 7.5226 6.83398 7.5226L8.20735 7.51594C8.21399 7.51594 8.21399 7.51594 8.22063 7.51594C9.44735 7.51594 10.5474 8.29596 10.9474 9.45596C11.634 9.52924 12.174 10.1026 12.174 10.8092C12.1674 11.556 11.554 12.1692 10.8006 12.1692Z" fill="white"/>
</svg>
