<svg width="16" height="16" viewBox="0 0 16 16" fill="none" xmlns="http://www.w3.org/2000/svg">
<path d="M10.794 1.33594H5.20732C2.78066 1.33594 1.33398 2.7826 1.33398 5.20927V10.7892C1.33398 13.2226 2.78066 14.6692 5.20732 14.6692H10.7874C13.214 14.6692 14.6606 13.2226 14.6606 10.796V5.20927C14.6674 2.7826 13.2206 1.33594 10.794 1.33594ZM10.9406 6.55594C10.534 7.71594 9.44063 8.49596 8.21399 8.49596C8.20735 8.49596 8.20735 8.49596 8.20063 8.49596L6.82732 8.48924C6.82732 8.48924 6.82732 8.48924 6.82065 8.48924C6.31398 8.48924 5.87398 8.82924 5.74066 9.31596C6.33398 9.5026 6.76732 10.056 6.76732 10.7092C6.76732 11.516 6.10732 12.176 5.30066 12.176C4.49398 12.176 3.83398 11.516 3.83398 10.7092C3.83398 10.116 4.19398 9.6026 4.70066 9.37596V6.46927C4.19398 6.26927 3.83398 5.77594 3.83398 5.2026C3.83398 4.44927 4.44732 3.83594 5.20066 3.83594C5.95398 3.83594 6.56732 4.44927 6.56732 5.2026C6.56732 5.7826 6.20732 6.26927 5.70066 6.46927V7.81594C6.02732 7.60927 6.41398 7.48927 6.82065 7.48927H6.82732L8.20063 7.49594C8.98735 7.5226 9.68735 7.01594 9.96735 6.2826C9.64063 6.02927 9.42735 5.6426 9.42735 5.2026C9.42735 4.44927 10.0406 3.83594 10.794 3.83594C11.5474 3.83594 12.1606 4.44927 12.1606 5.2026C12.1674 5.90927 11.6274 6.4826 10.9406 6.55594Z" fill="white"/>
</svg>
