<svg width="16" height="16" viewBox="0 0 16 16" fill="none" xmlns="http://www.w3.org/2000/svg">
<path d="M3.50066 5.66927C4.69727 5.66927 5.66732 4.69923 5.66732 3.5026C5.66732 2.30599 4.69727 1.33594 3.50066 1.33594C2.30403 1.33594 1.33398 2.30599 1.33398 3.5026C1.33398 4.69923 2.30403 5.66927 3.50066 5.66927Z" fill="white"/>
<path d="M3.33398 14.6641C4.43855 14.6641 5.33398 13.7687 5.33398 12.6641C5.33398 11.5595 4.43855 10.6641 3.33398 10.6641C2.22942 10.6641 1.33398 11.5595 1.33398 12.6641C1.33398 13.7687 2.22942 14.6641 3.33398 14.6641Z" fill="white"/>
<path d="M12.666 14.6641C13.7707 14.6641 14.666 13.7687 14.666 12.6641C14.666 11.5595 13.7707 10.6641 12.666 10.6641C11.5615 10.6641 10.666 11.5595 10.666 12.6641C10.666 13.7687 11.5615 14.6641 12.666 14.6641Z" fill="white"/>
<path d="M12.7806 10.6508C12.134 8.7974 10.3874 7.55073 8.42063 7.55073C8.41399 7.55073 8.40735 7.55073 8.40063 7.55073L6.04732 7.5574C5.03398 7.57073 4.12732 6.88406 3.85398 5.8974V4.67073C3.85398 4.39073 3.62732 4.16406 3.34066 4.16406C3.05398 4.16406 2.83398 4.39073 2.83398 4.67073V12.1508C2.83398 12.4308 3.06066 12.6574 3.34066 12.6574C3.62066 12.6574 3.85398 12.4308 3.85398 12.1508V7.7374C4.44066 8.2574 5.20732 8.5774 6.04066 8.5774C6.04732 8.5774 6.04732 8.5774 6.05398 8.5774L8.40735 8.57076C8.41399 8.57076 8.41399 8.57076 8.42063 8.57076C9.94735 8.57076 11.314 9.5374 11.814 10.984C11.894 11.1974 12.0874 11.3308 12.3006 11.3308C12.354 11.3308 12.414 11.324 12.4674 11.304C12.734 11.2108 12.874 10.9174 12.7806 10.6508Z" fill="white"/>
</svg>
