<svg width="16" height="16" viewBox="0 0 16 16" fill="none" xmlns="http://www.w3.org/2000/svg">
<path d="M13.3595 4.54776L9.51945 1.8611C8.47281 1.12776 6.86616 1.16776 5.85951 1.94776L2.51951 4.55444C1.85284 5.07444 1.32617 6.1411 1.32617 6.98111V11.5811C1.32617 13.2811 2.70617 14.6678 4.40617 14.6678H11.5928C13.2928 14.6678 14.6728 13.2878 14.6728 11.5878V7.06777C14.6728 6.16776 14.0928 5.0611 13.3595 4.54776ZM11.2528 10.7944C11.2528 10.8544 11.2395 10.9144 11.2195 10.9744C11.1728 11.0878 11.0795 11.1811 10.9662 11.2278C10.9062 11.2544 10.8462 11.2611 10.7862 11.2611H9.54617C9.28617 11.2611 9.07945 11.0544 9.07945 10.7944C9.07945 10.5344 9.28617 10.3278 9.54617 10.3278H9.66617L8.25945 8.92108L7.57949 9.93444C7.49949 10.0478 7.37948 10.1278 7.23948 10.1411C7.09282 10.1544 6.96616 10.1078 6.86616 10.0078L4.87951 8.02108C4.69951 7.84111 4.69951 7.54777 4.87951 7.36111C5.05951 7.17444 5.35284 7.18111 5.53952 7.36111L7.12616 8.9478L7.80616 7.93444C7.88616 7.82111 8.00617 7.74111 8.14617 7.72777C8.29281 7.71444 8.41945 7.76111 8.51945 7.86111L10.3328 9.67444V9.55444C10.3328 9.29444 10.5395 9.0878 10.7995 9.0878C11.0595 9.0878 11.2662 9.29444 11.2662 9.55444V10.7944H11.2528Z" fill="white"/>
</svg>
