<svg width="16" height="16" viewBox="0 0 16 16" fill="none" xmlns="http://www.w3.org/2000/svg">
<path fill-rule="evenodd" clip-rule="evenodd" d="M7.43395 1.83587C7.74637 1.52346 8.25289 1.52346 8.56529 1.83587L14.1653 7.43587C14.3941 7.66467 14.4626 8.00876 14.3387 8.30772C14.2149 8.60668 13.9232 8.80156 13.5996 8.80156H12.7996V13.6016C12.7996 14.0434 12.4414 14.4016 11.9996 14.4016H10.3996C9.95777 14.4016 9.59961 14.0434 9.59961 13.6016V11.2016C9.59961 10.7597 9.24145 10.4016 8.79961 10.4016H7.19963C6.7578 10.4016 6.39963 10.7597 6.39963 11.2016V13.6016C6.39963 14.0434 6.04146 14.4016 5.59963 14.4016H3.99963C3.5578 14.4016 3.19963 14.0434 3.19963 13.6016V8.80156H2.39963C2.07607 8.80156 1.78435 8.60668 1.66053 8.30772C1.53671 8.00876 1.60515 7.66467 1.83395 7.43587L7.43395 1.83587Z" fill="#0F172A"/>
</svg>
