<svg width="16" height="16" viewBox="0 0 16 16" fill="none" xmlns="http://www.w3.org/2000/svg">
<path d="M13.8873 5.34262L9.52063 1.84928C8.66735 1.16928 7.33398 1.16262 6.48729 1.84262L2.12062 5.34262C1.49396 5.84262 1.11396 6.8426 1.24729 7.62927L2.08729 12.656C2.28062 13.7826 3.32729 14.6692 4.46729 14.6692H11.534C12.6606 14.6692 13.7273 13.7626 13.9206 12.6492L14.7606 7.6226C14.8806 6.8426 14.5006 5.84262 13.8873 5.34262ZM8.50063 12.0026C8.50063 12.276 8.27399 12.5026 8.00063 12.5026C7.72732 12.5026 7.50065 12.276 7.50065 12.0026V10.0026C7.50065 9.72924 7.72732 9.5026 8.00063 9.5026C8.27399 9.5026 8.50063 9.72924 8.50063 10.0026V12.0026Z" fill="white"/>
</svg>
