<svg width="16" height="16" viewBox="0 0 16 16" fill="none" xmlns="http://www.w3.org/2000/svg">
<path d="M13.9075 5.58121L9.2875 1.88787C8.57422 1.31453 7.42085 1.31453 6.71418 1.88121L2.09416 5.58121C1.57416 5.99453 1.24083 6.86784 1.35416 7.52117L2.24083 12.8278C2.40083 13.7745 3.3075 14.5412 4.2675 14.5412H11.7342C12.6875 14.5412 13.6009 13.7678 13.7609 12.8278L14.6475 7.52117C14.7542 6.86784 14.4209 5.99453 13.9075 5.58121ZM8.47422 11.4679C8.34086 11.6013 8.17422 11.6678 8.00086 11.6678C7.82752 11.6678 7.66085 11.6012 7.52752 11.4745C7.26752 11.2145 7.26752 10.7945 7.52752 10.5345C7.78752 10.2745 8.21422 10.2745 8.47422 10.5345C8.73422 10.7878 8.73422 11.2079 8.47422 11.4679ZM9.77422 9.93454C9.67422 10.0345 9.5475 10.0878 9.41422 10.0878C9.2875 10.0878 9.1675 10.0412 9.0675 9.94782C8.42086 9.32782 7.58085 9.32782 6.92752 9.94782C6.72752 10.1412 6.41416 10.1345 6.22083 9.93454C6.0275 9.73454 6.03417 9.42118 6.23417 9.22782C7.26752 8.23446 8.71422 8.23446 9.75422 9.22782C9.96086 9.41446 9.9675 9.73454 9.77422 9.93454ZM11.1875 8.52118C11.0875 8.62118 10.9609 8.67446 10.8275 8.67446C10.7009 8.67446 10.5742 8.62782 10.4809 8.53446C10.1675 8.22782 9.81422 7.98117 9.44086 7.80117C8.5075 7.3545 7.48752 7.3545 6.56083 7.80117C6.1875 7.98117 5.84082 8.22782 5.52082 8.53446C5.32749 8.72782 5.00749 8.72782 4.81416 8.52782C4.62082 8.32782 4.6275 8.01454 4.82083 7.82117C5.21416 7.4345 5.65416 7.12784 6.12749 6.90117C7.33418 6.32121 8.6675 6.32121 9.8675 6.90117C10.3409 7.12784 10.7809 7.4345 11.1742 7.82117C11.3742 8.00782 11.3809 8.32782 11.1875 8.52118Z" fill="white"/>
</svg>
