<svg width="16" height="16" viewBox="0 0 16 16" fill="none" xmlns="http://www.w3.org/2000/svg">
<path d="M11.9333 1.92488C12.0861 2.21887 11.9717 2.58114 11.6777 2.73401L11.2008 2.98202V13.6017C11.2008 14.0435 10.8426 14.4017 10.4008 14.4017H8.59278C8.26142 14.4017 7.99278 14.133 7.99278 13.8017V11.0017C7.99278 10.6703 7.72415 10.4017 7.39278 10.4017H5.40078C5.06941 10.4017 4.80078 10.6703 4.80078 11.0017V13.8017C4.80078 14.133 4.53215 14.4017 4.20078 14.4017H1.40078C1.06941 14.4017 0.800782 14.133 0.800782 13.8017C0.800782 13.4703 1.06941 13.2017 1.40078 13.2017H1.60078V7.96749C1.32315 8.06593 1.00835 7.94729 0.868574 7.6785C0.715697 7.3845 0.830094 7.02224 1.12409 6.86936L1.60078 6.62148V4.60168C1.60078 4.27032 1.86941 4.00168 2.20078 4.00168C2.53215 4.00168 2.80078 4.27032 2.80078 4.60168V5.99748L11.1241 1.66936C11.4181 1.51648 11.7804 1.63088 11.9333 1.92488Z" fill="#0F172A"/>
<path d="M12.6896 6.85664C12.8687 6.74786 13.0918 6.74049 13.2778 6.8372L14.8772 7.66893C15.1712 7.82181 15.2856 8.18406 15.1327 8.47806C14.993 8.74686 14.6782 8.8655 14.4006 8.7671V13.2013H14.6004C14.9318 13.2013 15.2004 13.4699 15.2004 13.8013C15.2004 14.1326 14.9318 14.4013 14.6004 14.4013H13.0004C12.8413 14.4013 12.6886 14.3381 12.5761 14.2255C12.4636 14.1129 12.4004 13.9604 12.4004 13.8012L12.4009 7.36948C12.401 7.15985 12.5104 6.96542 12.6896 6.85664Z" fill="#0F172A"/>
</svg>
