<svg width="16" height="16" viewBox="0 0 16 16" fill="none" xmlns="http://www.w3.org/2000/svg">
<path d="M13.3595 4.54776L9.51945 1.8611C8.47281 1.12776 6.86616 1.16776 5.85951 1.94776L2.51951 4.55444C1.85284 5.07444 1.32617 6.1411 1.32617 6.98111V11.5811C1.32617 13.2811 2.70617 14.6678 4.40617 14.6678H11.5928C13.2928 14.6678 14.6728 13.2878 14.6728 11.5878V7.06777C14.6728 6.16776 14.0928 5.0611 13.3595 4.54776ZM8.49945 12.0011C8.49945 12.2744 8.27281 12.5011 7.99949 12.5011C7.72616 12.5011 7.49949 12.2744 7.49949 12.0011V10.0011C7.49949 9.7278 7.72616 9.50108 7.99949 9.50108C8.27281 9.50108 8.49945 9.7278 8.49945 10.0011V12.0011Z" fill="white"/>
</svg>
