<svg width="16" height="16" viewBox="0 0 16 16" fill="none" xmlns="http://www.w3.org/2000/svg">
<path d="M8.4668 11.2545H8.93344C9.70016 11.2545 10.3268 10.6279 10.3268 9.86117V9.39453H8.4668V11.2545Z" fill="white"/>
<path d="M5.67383 9.86117C5.67383 10.6279 6.30049 11.2545 7.06718 11.2545H7.53384V9.39453H5.67383V9.86117Z" fill="white"/>
<path d="M5.67383 7.99883V8.46546H7.53384V6.60547H7.06718C6.30049 6.60547 5.67383 7.23216 5.67383 7.99883Z" fill="white"/>
<path d="M13.354 4.54776L9.52063 1.8611C8.47399 1.12776 6.87398 1.16776 5.86732 1.94776L2.52732 4.55444C1.85398 5.07444 1.33398 6.1411 1.33398 6.98111V11.5811C1.33398 13.2811 2.71398 14.6678 4.40732 14.6678H11.5874C13.2806 14.6678 14.6606 13.2878 14.6606 11.5878V7.06777C14.6674 6.16776 14.0874 5.0611 13.354 4.54776ZM11.254 9.86108C11.254 11.1411 10.2074 12.1878 8.92735 12.1878H7.06732C5.78732 12.1878 4.74066 11.1478 4.74066 9.86108V8.00111C4.74066 6.72111 5.78732 5.67444 7.06732 5.67444H8.92735C10.2074 5.67444 11.254 6.71444 11.254 8.00111V9.86108Z" fill="white"/>
<path d="M8.93344 6.60547H8.4668V8.46546H10.3268V7.99883C10.3268 7.23216 9.70016 6.60547 8.93344 6.60547Z" fill="white"/>
</svg>
