<svg width="16" height="16" viewBox="0 0 16 16" fill="none" xmlns="http://www.w3.org/2000/svg">
<path d="M13.3595 4.54776L9.51945 1.8611C8.47281 1.12776 6.86616 1.16776 5.85951 1.94776L2.51951 4.55444C1.85284 5.07444 1.32617 6.1411 1.32617 6.98111V11.5811C1.32617 13.2811 2.70617 14.6678 4.40617 14.6678H11.5928C13.2928 14.6678 14.6728 13.2878 14.6728 11.5878V7.06777C14.6728 6.16776 14.0928 5.0611 13.3595 4.54776ZM11.2528 8.93444C11.2528 9.19444 11.0462 9.40108 10.7862 9.40108C10.5262 9.40108 10.3195 9.19444 10.3195 8.93444V8.81444L8.50617 10.6278C8.40617 10.7278 8.27281 10.7744 8.13281 10.7611C7.99948 10.7478 7.87282 10.6678 7.79948 10.5544L7.11948 9.54108L5.53284 11.1278C5.43951 11.2211 5.32617 11.2611 5.20617 11.2611C5.08617 11.2611 4.96617 11.2144 4.87951 11.1278C4.69951 10.9478 4.69951 10.6544 4.87951 10.4678L6.86616 8.48108C6.96616 8.38108 7.09948 8.33444 7.23948 8.3478C7.37948 8.36108 7.50616 8.43444 7.57949 8.55444L8.25945 9.5678L9.66617 8.16108H9.54617C9.28617 8.16108 9.07945 7.95444 9.07945 7.69444C9.07945 7.43444 9.28617 7.22777 9.54617 7.22777H10.7862C10.8462 7.22777 10.9062 7.24111 10.9662 7.26111C11.0795 7.30777 11.1728 7.40111 11.2195 7.51444C11.2462 7.57444 11.2528 7.63444 11.2528 7.69444V8.93444Z" fill="white"/>
</svg>
