<svg width="16" height="16" viewBox="0 0 16 16" fill="none" xmlns="http://www.w3.org/2000/svg">
<path d="M14.6674 14.1641H1.33398C1.06066 14.1641 0.833984 14.3908 0.833984 14.6641C0.833984 14.9374 1.06066 15.1641 1.33398 15.1641H14.6674C14.9406 15.1641 15.1674 14.9374 15.1674 14.6641C15.1674 14.3908 14.9406 14.1641 14.6674 14.1641Z" fill="white"/>
<path d="M11.3334 1.33594H4.66666C2.66666 1.33594 2 2.52927 2 4.0026V14.6692H6V10.6292C6 10.2826 6.28 10.0026 6.62666 10.0026H9.38C9.72 10.0026 10.0066 10.2826 10.0066 10.6292V14.6692H14.0066V4.0026C14 2.52927 13.3334 1.33594 11.3334 1.33594ZM9.66664 6.16927H8.5V7.33594C8.5 7.60927 8.27336 7.83594 8 7.83594C7.72666 7.83594 7.5 7.60927 7.5 7.33594V6.16927H6.33334C6.06 6.16927 5.83334 5.9426 5.83334 5.66927C5.83334 5.39594 6.06 5.16927 6.33334 5.16927H7.5V4.0026C7.5 3.72927 7.72666 3.5026 8 3.5026C8.27336 3.5026 8.5 3.72927 8.5 4.0026V5.16927H9.66664C9.94 5.16927 10.1666 5.39594 10.1666 5.66927C10.1666 5.9426 9.94 6.16927 9.66664 6.16927Z" fill="white"/>
</svg>
