<svg width="16" height="16" viewBox="0 0 16 16" fill="none" xmlns="http://www.w3.org/2000/svg">
<path d="M6.66602 10.3359C6.39268 10.3359 6.16602 10.5626 6.16602 10.8359V11.8359C6.16602 12.1092 6.39268 12.3359 6.66602 12.3359C6.93934 12.3359 7.16602 12.1092 7.16602 11.8359V10.8359C7.16602 10.5626 6.93934 10.3359 6.66602 10.3359Z" fill="white"/>
<path d="M14.6674 14.1658H14.0006V6.65249C14.0006 6.23916 13.814 5.85249 13.4874 5.59916L8.82063 1.9725C8.34063 1.5925 7.66066 1.5925 7.18066 1.9725L2.51398 5.59916C2.18732 5.85249 2.00066 6.23916 2.00066 6.64583L1.96732 14.1658H1.33398C1.06066 14.1658 0.833984 14.3858 0.833984 14.6658C0.833984 14.9392 1.06066 15.1658 1.33398 15.1658H14.6674C14.9406 15.1658 15.1674 14.9392 15.1674 14.6658C15.1674 14.3858 14.9406 14.1658 14.6674 14.1658ZM7.00066 4.49916H9.00063C9.27399 4.49916 9.50063 4.72583 9.50063 4.99916C9.50063 5.27249 9.27399 5.49916 9.00063 5.49916H7.00066C6.72732 5.49916 6.50066 5.27249 6.50066 4.99916C6.50066 4.72583 6.72732 4.49916 7.00066 4.49916ZM11.334 14.1658H4.66732V8.33248C4.66732 7.77916 5.11398 7.3325 5.66732 7.3325H10.334C10.8874 7.3325 11.334 7.77916 11.334 8.33248V14.1658Z" fill="white"/>
</svg>
