<svg width="16" height="16" viewBox="0 0 16 16" fill="none" xmlns="http://www.w3.org/2000/svg">
<path d="M14.6674 14.1658H14.0006V6.65249C14.0006 6.23916 13.814 5.85249 13.4874 5.59916L12.6674 4.95916L12.654 3.32583C12.654 2.95916 12.354 2.66583 11.9874 2.66583H9.71399L8.82063 1.9725C8.34063 1.5925 7.66066 1.5925 7.18066 1.9725L2.51398 5.59916C2.18732 5.85249 2.00066 6.23916 2.00066 6.64583L1.96732 14.1658H1.33398C1.06066 14.1658 0.833984 14.3925 0.833984 14.6658C0.833984 14.9392 1.06066 15.1658 1.33398 15.1658H14.6674C14.9406 15.1658 15.1674 14.9392 15.1674 14.6658C15.1674 14.3925 14.9406 14.1658 14.6674 14.1658ZM4.33398 8.4992V7.49916C4.33398 7.1325 4.63398 6.8325 5.00066 6.8325H6.33398C6.70066 6.8325 7.00066 7.1325 7.00066 7.49916V8.4992C7.00066 8.86584 6.70066 9.16584 6.33398 9.16584H5.00066C4.63398 9.16584 4.33398 8.86584 4.33398 8.4992ZM9.66735 14.1658H6.33398V12.3325C6.33398 11.7792 6.78066 11.3325 7.33398 11.3325H8.66735C9.22063 11.3325 9.66735 11.7792 9.66735 12.3325V14.1658ZM11.6674 8.4992C11.6674 8.86584 11.3674 9.16584 11.0006 9.16584H9.66735C9.30063 9.16584 9.00063 8.86584 9.00063 8.4992V7.49916C9.00063 7.1325 9.30063 6.8325 9.66735 6.8325H11.0006C11.3674 6.8325 11.6674 7.1325 11.6674 7.49916V8.4992Z" fill="white"/>
</svg>
