<svg width="16" height="16" viewBox="0 0 16 16" fill="none" xmlns="http://www.w3.org/2000/svg">
<path d="M13.2523 1.33594H2.73891C2.33891 1.33594 2.03225 1.6826 2.07892 2.07594L3.27891 12.8892C3.30558 13.156 3.49893 13.3826 3.75893 13.456L7.81222 14.616C7.93222 14.6492 8.05898 14.6492 8.17898 14.616L12.2323 13.456C12.4923 13.3826 12.679 13.156 12.7123 12.8892L13.9123 2.07594C13.9589 1.6826 13.6523 1.33594 13.2523 1.33594ZM10.8323 5.0026H5.72561L5.94558 7.0026H10.4989C10.6389 7.0026 10.7723 7.0626 10.8723 7.16927C10.9655 7.27594 11.0123 7.41594 10.9989 7.55594L10.6655 10.8892C10.6455 11.096 10.5056 11.2626 10.3056 11.3226L7.97229 11.9892C7.92562 12.0026 7.87889 12.0092 7.83222 12.0092C7.78556 12.0092 7.73889 12.0026 7.69222 11.9892L5.35891 11.3226C5.14558 11.2626 4.99892 11.0626 4.99892 10.8426V9.50924C4.99892 9.23596 5.22559 9.00924 5.49892 9.00924C5.77226 9.00924 5.99892 9.23596 5.99892 9.50924V10.4626L7.83222 10.9892L9.6989 10.456L9.94554 8.00924H5.49892C5.24559 8.00924 5.03226 7.81594 4.99892 7.5626L4.66559 4.5626C4.65226 4.4226 4.69226 4.28259 4.79226 4.17593C4.88559 4.06927 5.02559 4.00927 5.16559 4.00927H10.8323C11.1055 4.00927 11.3323 4.23593 11.3323 4.50927C11.3323 4.78259 11.1055 5.0026 10.8323 5.0026Z" fill="white"/>
</svg>
