<svg width="16" height="16" viewBox="0 0 16 16" fill="none" xmlns="http://www.w3.org/2000/svg">
<path d="M13.2534 1.33594H2.74673C2.34673 1.33594 2.04007 1.68259 2.08673 2.07593L3.28673 12.8892C3.3134 13.156 3.50673 13.3826 3.76673 13.456L7.82007 14.616C7.94007 14.6492 8.06672 14.6492 8.18672 14.616L12.2401 13.456C12.5001 13.3826 12.6867 13.156 12.7201 12.8892L13.9201 2.07593C13.9601 1.68259 13.6534 1.33594 13.2534 1.33594ZM10.8334 10.7226C10.8134 10.9226 10.6667 11.0892 10.4734 11.1492L8.14008 11.816C8.09336 11.8292 8.04672 11.836 8.00008 11.836C7.9534 11.836 7.90673 11.8292 7.86007 11.816L5.52673 11.1492C5.3534 11.1026 5.22007 10.9626 5.18007 10.7892L4.84673 9.45596C4.78007 9.18924 4.94007 8.91596 5.2134 8.84924C5.48007 8.7826 5.7534 8.9426 5.82007 9.21596L6.08673 10.2692L8.00672 10.816L9.88008 10.2826L10.1534 7.83594H5.3334C5.06007 7.83594 4.8334 7.60927 4.8334 7.33594C4.8334 7.0626 5.06007 6.83594 5.3334 6.83594H10.2534L10.4401 5.16927L5.00007 5.15595C4.72673 5.15595 4.50007 4.92927 4.50007 4.65595C4.50007 4.38261 4.72673 4.15595 5.00007 4.15595L11.0001 4.16927C11.1401 4.16927 11.2801 4.22927 11.3734 4.33594C11.4667 4.4426 11.5134 4.58259 11.5001 4.72259L10.8334 10.7226Z" fill="white"/>
</svg>
