<svg width="16" height="16" viewBox="0 0 16 16" fill="none" xmlns="http://www.w3.org/2000/svg">
<path d="M10.7742 6.66406C10.7742 6.66406 10.6742 7.33073 8.60759 9.9974C6.66759 12.5108 9.47423 14.424 9.80759 14.644C9.82759 14.6574 9.84759 14.6574 9.87423 14.644C10.3276 14.364 15.3742 11.1174 10.7742 6.66406Z" fill="white"/>
<path d="M9.1732 5.19338C9.1732 3.66004 8.5732 2.26004 7.9732 1.46004C7.7732 1.26004 7.43986 1.3267 7.3732 1.59338C7.10653 2.59338 6.30651 4.7267 4.37318 7.26006C1.90651 10.4601 4.17318 13.9267 6.50652 14.5934C7.7732 14.9267 6.17319 13.9267 5.97319 11.8601C5.77319 9.26008 9.1732 7.32674 9.1732 5.19338Z" fill="white"/>
</svg>
