<svg width="16" height="16" viewBox="0 0 16 16" fill="none" xmlns="http://www.w3.org/2000/svg">
<path d="M13.5059 3.5C12.9525 3.5 12.5059 3.05334 12.5059 2.5C12.5059 1.94666 12.9525 1.5 13.5059 1.5H13.5125C14.0658 1.5 14.5125 1.94666 14.5125 2.5C14.5125 3.05334 14.0592 3.5 13.5059 3.5Z" fill="white"/>
<path d="M2.50586 14.5C1.95253 14.5 1.50586 14.0534 1.50586 13.5C1.50586 12.9466 1.95253 12.5 2.50586 12.5H2.51251C3.06584 12.5 3.51251 12.9466 3.51251 13.5C3.51251 14.0534 3.0592 14.5 2.50586 14.5Z" fill="white"/>
<path d="M4.02066 10.936C3.85398 10.936 3.68733 10.8492 3.59399 10.696C3.10066 9.88924 2.83398 8.95596 2.83398 8.0026C2.83398 5.15594 5.15398 2.83594 8.00063 2.83594C8.94063 2.83594 9.86063 3.08927 10.6606 3.56927C10.894 3.70927 10.974 4.01594 10.834 4.25594C10.694 4.48927 10.3874 4.56927 10.1474 4.42927C9.50063 4.0426 8.76063 3.83594 8.00735 3.83594C5.70733 3.83594 3.84066 5.7026 3.84066 8.0026C3.84066 8.76924 4.05398 9.5226 4.45398 10.176C4.60065 10.4092 4.52731 10.716 4.28731 10.8626C4.20065 10.916 4.10732 10.936 4.02066 10.936Z" fill="white"/>
<path d="M8.00008 13.1695C7.04006 13.1695 6.10675 12.9028 5.30008 12.4095C5.06675 12.2628 4.99342 11.9561 5.13342 11.7228C5.28008 11.4895 5.58674 11.4161 5.82008 11.5561C6.47341 11.9561 7.22673 12.1695 8.00008 12.1695C10.3001 12.1695 12.1667 10.3028 12.1667 8.00284C12.1667 7.23614 11.9534 6.48279 11.5534 5.82946C11.4067 5.59612 11.4801 5.28946 11.7201 5.14279C11.9534 5.00279 12.2601 5.06946 12.4067 5.30946C12.9001 6.12279 13.1667 7.04947 13.1667 8.00948C13.1667 10.8495 10.8467 13.1695 8.00008 13.1695Z" fill="white"/>
</svg>
