<svg width="16" height="16" viewBox="0 0 16 16" fill="none" xmlns="http://www.w3.org/2000/svg">
<path d="M10.7932 1.33594H5.21319C2.78652 1.33594 1.33984 2.7826 1.33984 5.20927V10.7892C1.33984 13.216 2.78652 14.6626 5.21319 14.6626H10.7932C13.2198 14.6626 14.6666 13.216 14.6666 10.7892V5.20927C14.6666 2.7826 13.2198 1.33594 10.7932 1.33594ZM7.3332 5.0026C7.3332 5.18927 7.18653 5.33594 6.99987 5.33594H5.99985C5.63318 5.33594 5.33318 5.63594 5.33318 6.0026V7.0026C5.33318 7.18927 5.18652 7.33594 4.99985 7.33594H3.66652C3.47985 7.33594 3.33318 7.18927 3.33318 7.0026V6.0026C3.33318 4.52927 4.52652 3.33594 5.99985 3.33594H6.99987C7.18653 3.33594 7.3332 3.4826 7.3332 3.66927V5.0026ZM12.6666 10.0026C12.6666 11.476 11.4732 12.6692 9.99984 12.6692H8.99984C8.8132 12.6692 8.66656 12.5226 8.66656 12.336V11.0026C8.66656 10.816 8.8132 10.6692 8.99984 10.6692H9.99984C10.3666 10.6692 10.6666 10.3692 10.6666 10.0026V9.0026C10.6666 8.81596 10.8132 8.66924 10.9998 8.66924H12.3332C12.5198 8.66924 12.6666 8.81596 12.6666 9.0026V10.0026Z" fill="white"/>
</svg>
