<svg width="16" height="16" viewBox="0 0 16 16" fill="none" xmlns="http://www.w3.org/2000/svg">
<path d="M8.00063 1.33594C4.32066 1.33594 1.33398 4.3226 1.33398 8.0026C1.33398 11.6826 4.32066 14.6692 8.00063 14.6692C11.6806 14.6692 14.6674 11.6826 14.6674 8.0026C14.6674 4.3226 11.6806 1.33594 8.00063 1.33594ZM8.00063 4.74927C8.87399 4.74927 9.58735 5.4626 9.58735 6.33594C9.58735 7.20927 8.87399 7.9226 8.00063 7.9226C7.12732 7.9226 6.41398 7.20927 6.41398 6.33594C6.41398 5.4626 7.12732 4.74927 8.00063 4.74927ZM9.64735 11.396C9.55399 11.4692 9.44735 11.5026 9.34063 11.5026C9.19399 11.5026 9.04735 11.436 8.94735 11.316L8.00735 10.1292L7.06732 11.316C6.90066 11.5292 6.58065 11.5692 6.36731 11.396C6.15398 11.2226 6.11398 10.9092 6.28731 10.696L7.08066 9.68924C6.86732 9.62924 6.65398 9.55596 6.45398 9.45596C6.20731 9.32924 6.1073 9.02924 6.23398 8.7826C6.35398 8.53596 6.65398 8.43596 6.90732 8.5626C7.60066 8.90924 8.42735 8.90924 9.12063 8.5626C9.36063 8.4426 9.66735 8.53596 9.78735 8.77596C9.91399 9.01596 9.82735 9.31596 9.58735 9.4426C9.38063 9.54924 9.16063 9.6226 8.94063 9.6826L9.74063 10.6892C9.89399 10.9092 9.86063 11.2226 9.64735 11.396Z" fill="white"/>
</svg>
