<svg width="16" height="16" viewBox="0 0 16 16" fill="none" xmlns="http://www.w3.org/2000/svg">
<path fill-rule="evenodd" clip-rule="evenodd" d="M0.800781 4.79844C0.800781 3.47296 1.8753 2.39844 3.20078 2.39844H12.8008C14.1263 2.39844 15.2008 3.47296 15.2008 4.79844V11.1984C15.2008 12.524 14.1263 13.5984 12.8008 13.5984H3.20078C1.8753 13.5984 0.800781 12.524 0.800781 11.1984V4.79844ZM4.00078 5.99844C4.00078 5.11478 4.71713 4.39844 5.60078 4.39844C6.48444 4.39844 7.20078 5.11478 7.20078 5.99844C7.20078 6.88209 6.48444 7.59844 5.60078 7.59844C4.71713 7.59844 4.00078 6.88209 4.00078 5.99844ZM5.60068 8.39844C4.289 8.39844 3.16296 9.18756 2.66886 10.3144C2.60313 10.4644 2.6015 10.6346 2.66435 10.7858C2.7272 10.9369 2.84907 11.0558 3.00172 11.1149C3.80869 11.4274 4.68541 11.5984 5.60068 11.5984C6.51594 11.5984 7.39268 11.4274 8.19966 11.1149C8.3523 11.0558 8.47414 10.9369 8.53702 10.7858C8.59982 10.6346 8.59822 10.4644 8.53254 10.3144C8.03838 9.18756 6.91236 8.39844 5.60068 8.39844ZM9.60078 5.39844C9.60078 5.06707 9.86942 4.79844 10.2008 4.79844H12.2008C12.5321 4.79844 12.8008 5.06707 12.8008 5.39844C12.8008 5.72981 12.5321 5.99844 12.2008 5.99844H10.2008C9.86942 5.99844 9.60078 5.72981 9.60078 5.39844ZM9.60078 10.5984C9.60078 10.2671 9.86942 9.99844 10.2008 9.99844H12.2008C12.5321 9.99844 12.8008 10.2671 12.8008 10.5984C12.8008 10.9298 12.5321 11.1984 12.2008 11.1984H10.2008C9.86942 11.1984 9.60078 10.9298 9.60078 10.5984ZM10.2008 7.39844C9.86942 7.39844 9.60078 7.66707 9.60078 7.99844C9.60078 8.3298 9.86942 8.59844 10.2008 8.59844H12.2008C12.5321 8.59844 12.8008 8.3298 12.8008 7.99844C12.8008 7.66707 12.5321 7.39844 12.2008 7.39844H10.2008Z" fill="#0F172A"/>
</svg>
