<svg width="16" height="16" viewBox="0 0 16 16" fill="none" xmlns="http://www.w3.org/2000/svg">
<path d="M10.794 1.33594H5.20732C2.78066 1.33594 1.33398 2.7826 1.33398 5.20927V10.7892C1.33398 13.216 2.78066 14.6626 5.20732 14.6626H10.7874C13.214 14.6626 14.6606 13.216 14.6606 10.7892V5.20927C14.6674 2.7826 13.2206 1.33594 10.794 1.33594ZM8.70735 11.1226C8.65399 11.1426 8.60063 11.1492 8.54735 11.1492C8.34063 11.1492 8.14063 11.016 8.07399 10.8092L7.60066 9.38924H5.54732L4.89398 10.856C4.78066 11.1092 4.48732 11.2226 4.23398 11.1092C3.98066 10.996 3.86732 10.7026 3.98066 10.4492L6.33398 5.16259C6.42066 4.97593 6.60066 4.84927 6.81398 4.86927C7.02066 4.87593 7.20066 5.01594 7.26732 5.20927L9.02735 10.496C9.10735 10.7492 8.96735 11.036 8.70735 11.1226ZM11.4006 10.6492C11.4006 10.9226 11.174 11.1492 10.9006 11.1492C10.6274 11.1492 10.4006 10.9226 10.4006 10.6492V7.1226C10.4006 6.84927 10.6274 6.62259 10.9006 6.62259C11.174 6.62259 11.4006 6.84927 11.4006 7.1226V10.6492ZM11.514 5.61595C11.4806 5.69595 11.434 5.76927 11.3674 5.82927C11.3074 5.88927 11.234 5.94259 11.154 5.97593C11.074 6.00927 10.9874 6.0226 10.9006 6.0226C10.7206 6.0226 10.554 5.95593 10.4274 5.82927C10.3674 5.76927 10.314 5.69595 10.2806 5.61595C10.2474 5.52927 10.234 5.44927 10.234 5.35594C10.234 5.26927 10.2474 5.18259 10.2806 5.10259C10.3206 5.02259 10.3674 4.94927 10.4274 4.88927C10.4874 4.82259 10.5606 4.77593 10.6406 4.74259C10.8874 4.64259 11.1874 4.70259 11.3674 4.88927C11.434 4.94927 11.4806 5.02259 11.514 5.10259C11.5474 5.18259 11.5674 5.26927 11.5674 5.35594C11.5674 5.44927 11.5474 5.53595 11.514 5.61595Z" fill="white"/>
<path d="M5.98633 8.3822H7.26634L6.71967 6.74219L5.98633 8.3822Z" fill="white"/>
</svg>
