<svg width="16" height="16" viewBox="0 0 16 16" fill="none" xmlns="http://www.w3.org/2000/svg">
<path d="M14.6791 11.2136L12.5924 6.33351C12.2124 5.44018 11.6458 4.93351 10.9991 4.90018C10.3591 4.86685 9.73906 5.31351 9.26578 6.16685L7.99908 8.4402C7.73242 8.9202 7.35242 9.20684 6.93908 9.2402C6.51911 9.2802 6.09911 9.0602 5.75911 8.62684L5.61245 8.4402C5.13911 7.84686 4.55245 7.5602 3.95245 7.6202C3.35245 7.6802 2.83911 8.09356 2.49911 8.76684L1.34578 11.0668C0.93245 11.9002 0.97245 12.8668 1.45911 13.6536C1.94578 14.4402 2.79245 14.9136 3.71911 14.9136H12.2258C13.1191 14.9136 13.9524 14.4668 14.4458 13.7202C14.9524 12.9736 15.0324 12.0336 14.6791 11.2136Z" fill="white"/>
<path d="M4.64591 5.58479C5.8904 5.58479 6.89922 4.57593 6.89922 3.33145C6.89922 2.08697 5.8904 1.07812 4.64591 1.07812C3.40143 1.07812 2.39258 2.08697 2.39258 3.33145C2.39258 4.57593 3.40143 5.58479 4.64591 5.58479Z" fill="white"/>
</svg>
