<svg width="16" height="16" viewBox="0 0 16 16" fill="none" xmlns="http://www.w3.org/2000/svg">
<path d="M11.2006 6H8.50063V8.96L9.88063 7.58C9.98063 7.48 10.1074 7.43334 10.234 7.43334C10.3606 7.43334 10.4874 7.48 10.5874 7.58C10.7806 7.77334 10.7806 8.09336 10.5874 8.28664L8.35399 10.52C8.16063 10.7134 7.84066 10.7134 7.64732 10.52L5.41398 8.28664C5.22066 8.09336 5.22066 7.77334 5.41398 7.58C5.60732 7.38666 5.92732 7.38666 6.12066 7.58L7.50066 8.96V6H4.80066C2.66732 6 1.33398 7.33334 1.33398 9.46664V11.1934C1.33398 13.3334 2.66732 14.6666 4.80066 14.6666H11.194C13.3274 14.6666 14.6606 13.3334 14.6606 11.2V9.46664C14.6674 7.33334 13.334 6 11.2006 6Z" fill="white"/>
<path d="M8.5 1.83594C8.5 1.5626 8.27336 1.33594 8 1.33594C7.72666 1.33594 7.5 1.5626 7.5 1.83594V6.0026H8.5V1.83594Z" fill="white"/>
</svg>
