<svg width="16" height="16" viewBox="0 0 16 16" fill="none" xmlns="http://www.w3.org/2000/svg">
<path d="M8.00063 1.33594C4.32066 1.33594 1.33398 4.3226 1.33398 8.0026C1.33398 11.6826 4.32066 14.6692 8.00063 14.6692C11.6806 14.6692 14.6674 11.6826 14.6674 8.0026C14.6674 4.3226 11.6806 1.33594 8.00063 1.33594ZM11.6874 5.0226L6.54066 10.1692H8.55399C8.82735 10.1692 9.05399 10.396 9.05399 10.6692C9.05399 10.9426 8.82735 11.1692 8.55399 11.1692H5.33398C5.06066 11.1692 4.83398 10.9426 4.83398 10.6692V7.44927C4.83398 7.17594 5.06066 6.94927 5.33398 6.94927C5.60732 6.94927 5.83398 7.17594 5.83398 7.44927V9.4626L10.9806 4.31594C11.0806 4.21594 11.2074 4.16927 11.334 4.16927C11.4606 4.16927 11.5874 4.21594 11.6874 4.31594C11.8806 4.50927 11.8806 4.82927 11.6874 5.0226Z" fill="white"/>
</svg>
