<svg width="16" height="16" viewBox="0 0 16 16" fill="none" xmlns="http://www.w3.org/2000/svg">
<path d="M10.794 1.33594H5.20732C2.78066 1.33594 1.33398 2.7826 1.33398 5.20927V10.7892C1.33398 13.2226 2.78066 14.6692 5.20732 14.6692H10.7874C13.214 14.6692 14.6606 13.2226 14.6606 10.796V5.20927C14.6674 2.7826 13.2206 1.33594 10.794 1.33594ZM11.6874 5.0226L6.54066 10.1692H8.55399C8.82735 10.1692 9.05399 10.396 9.05399 10.6692C9.05399 10.9426 8.82735 11.1692 8.55399 11.1692H5.33398C5.06066 11.1692 4.83398 10.9426 4.83398 10.6692V7.44927C4.83398 7.17594 5.06066 6.94927 5.33398 6.94927C5.60732 6.94927 5.83398 7.17594 5.83398 7.44927V9.4626L10.9806 4.31594C11.0806 4.21594 11.2074 4.16927 11.334 4.16927C11.4606 4.16927 11.5874 4.21594 11.6874 4.31594C11.8806 4.50927 11.8806 4.82927 11.6874 5.0226Z" fill="white"/>
</svg>
