<svg width="16" height="16" viewBox="0 0 16 16" fill="none" xmlns="http://www.w3.org/2000/svg">
<path fill-rule="evenodd" clip-rule="evenodd" d="M0.836469 5.56456C0.870549 5.37765 0.928805 5.19539 1.01018 5.02247L2.02555 2.86481C2.38841 2.09372 3.16395 1.60156 4.01615 1.60156H11.9854C12.8376 1.60156 13.6132 2.09372 13.976 2.86481L14.9914 5.02247C15.0728 5.19539 15.131 5.37765 15.1651 5.56456C15.1883 5.63945 15.2008 5.71905 15.2008 5.80156V7.00156C15.2008 8.2166 14.2158 9.20156 13.0008 9.20156H3.00078C1.78576 9.20156 0.800781 8.2166 0.800781 7.00156V5.80156C0.800781 5.71905 0.813277 5.63945 0.836469 5.56456ZM3.11133 3.37576C3.27627 3.02527 3.62879 2.80156 4.01615 2.80156H11.9854C12.3728 2.80156 12.7253 3.02527 12.8902 3.37576L13.6553 5.00156H11.2008C10.9185 5.00156 10.657 5.15037 10.5129 5.39313L10.0279 6.20999C9.88374 6.45275 9.6223 6.60156 9.33998 6.60156H6.58964C6.28662 6.60156 6.00961 6.43036 5.87409 6.15933L5.51633 5.44379C5.38081 5.17276 5.1038 5.00156 4.80078 5.00156H2.34625L3.11133 3.37576Z" fill="#0F172A"/>
<path d="M0.800781 11.1984C0.800781 10.7566 1.15896 10.3984 1.60078 10.3984H4.80078C5.1038 10.3984 5.38081 10.5696 5.51633 10.8407L5.87409 11.5562C6.00961 11.8272 6.28662 11.9984 6.58964 11.9984H9.33998C9.6223 11.9984 9.88374 11.8496 10.0279 11.6068L10.5129 10.79C10.657 10.5472 10.9185 10.3984 11.2008 10.3984H14.4008C14.8426 10.3984 15.2008 10.7566 15.2008 11.1984V12.7984C15.2008 13.6821 14.4845 14.3984 13.6008 14.3984H2.40078C1.51713 14.3984 0.800781 13.6821 0.800781 12.7984V11.1984Z" fill="#0F172A"/>
</svg>
