<svg width="16" height="16" viewBox="0 0 16 16" fill="none" xmlns="http://www.w3.org/2000/svg">
<path fill-rule="evenodd" clip-rule="evenodd" d="M0.800781 9.01508C0.800781 8.8174 0.827429 8.6206 0.879997 8.43004L2.09838 4.0134C2.36157 3.05933 3.22945 2.39844 4.21917 2.39844H11.7824C12.7721 2.39844 13.64 3.05932 13.9032 4.0134L15.1216 8.43004C15.1741 8.6206 15.2008 8.8174 15.2008 9.01508V11.9984C15.2008 12.8821 14.4845 13.5984 13.6008 13.5984H2.40078C1.51713 13.5984 0.800781 12.8821 0.800781 11.9984V9.01508ZM3.25517 4.33251C3.37481 3.89884 3.7693 3.59844 4.21917 3.59844H11.7824C12.2323 3.59844 12.6268 3.89884 12.7464 4.33251L13.9648 8.74916C13.9693 8.76548 13.9733 8.78196 13.977 8.79844H11.2008C10.9185 8.79844 10.657 8.94724 10.5129 9.19004L10.0279 10.0068C9.88374 10.2496 9.6223 10.3984 9.33998 10.3984H6.58964C6.28662 10.3984 6.00961 10.2272 5.87409 9.9562L5.51633 9.24068C5.38081 8.96964 5.1038 8.79844 4.80078 8.79844H2.02453C2.0282 8.78196 2.03229 8.76548 2.03679 8.74916L3.25517 4.33251Z" fill="#0F172A"/>
</svg>
