<svg width="16" height="16" viewBox="0 0 16 16" fill="none" xmlns="http://www.w3.org/2000/svg">
<path d="M8.00078 1.60156C8.33214 1.60156 8.60078 1.87019 8.60078 2.20156V6.67364L10.1611 4.99329C10.3866 4.75047 10.7662 4.7364 11.009 4.96189C11.2519 5.18737 11.2659 5.56701 11.0405 5.80983L8.44046 8.6098C8.32694 8.73212 8.16766 8.80156 8.00078 8.80156C7.83394 8.80156 7.67463 8.73212 7.56111 8.6098L4.96111 5.80983C4.73562 5.56701 4.74969 5.18737 4.99251 4.96189C5.23534 4.7364 5.61498 4.75047 5.84046 4.99329L7.40078 6.67364V2.20156C7.40078 1.87019 7.66942 1.60156 8.00078 1.60156Z" fill="#0F172A"/>
<path d="M4.21917 3.59844C3.7693 3.59844 3.37481 3.89884 3.25517 4.33251L2.03679 8.74916C2.03229 8.76548 2.0282 8.78196 2.02453 8.79844H4.80078C5.1038 8.79844 5.38081 8.96964 5.51633 9.24068L5.87409 9.9562C6.00961 10.2272 6.28662 10.3984 6.58964 10.3984H9.33998C9.6223 10.3984 9.88374 10.2496 10.0279 10.0068L10.5129 9.19004C10.657 8.94724 10.9185 8.79844 11.2008 8.79844H13.977C13.9733 8.78196 13.9693 8.76548 13.9648 8.74916L12.7464 4.33251C12.6268 3.89884 12.2323 3.59844 11.7824 3.59844H11.0008C10.6694 3.59844 10.4008 3.32981 10.4008 2.99844C10.4008 2.66707 10.6694 2.39844 11.0008 2.39844H11.7824C12.7721 2.39844 13.64 3.05932 13.9032 4.0134L15.1216 8.43004C15.1741 8.6206 15.2008 8.8174 15.2008 9.01508V11.9984C15.2008 12.8821 14.4845 13.5984 13.6008 13.5984H2.40078C1.51713 13.5984 0.800781 12.8821 0.800781 11.9984V9.01508C0.800781 8.8174 0.827429 8.6206 0.879997 8.43004L2.09838 4.0134C2.36157 3.05933 3.22945 2.39844 4.21917 2.39844H5.00078C5.33215 2.39844 5.60078 2.66707 5.60078 2.99844C5.60078 3.32981 5.33215 3.59844 5.00078 3.59844H4.21917Z" fill="#0F172A"/>
</svg>
