<svg width="16" height="16" viewBox="0 0 16 16" fill="none" xmlns="http://www.w3.org/2000/svg">
<path fill-rule="evenodd" clip-rule="evenodd" d="M14.3996 8.00156C14.3996 11.5362 11.5342 14.4016 7.99961 14.4016C4.46499 14.4016 1.59961 11.5362 1.59961 8.00156C1.59961 4.46694 4.46499 1.60156 7.99961 1.60156C11.5342 1.60156 14.3996 4.46694 14.3996 8.00156ZM8.79961 4.80156C8.79961 5.24339 8.44145 5.60156 7.99961 5.60156C7.55778 5.60156 7.19961 5.24339 7.19961 4.80156C7.19961 4.35974 7.55778 4.00156 7.99961 4.00156C8.44145 4.00156 8.79961 4.35974 8.79961 4.80156ZM7.19961 7.20156C6.86824 7.20156 6.59961 7.47019 6.59961 7.80156C6.59961 8.13292 6.86824 8.40156 7.19961 8.40156H7.40231C7.53027 8.40156 7.62531 8.52004 7.59755 8.64492L7.23024 10.2979C7.03595 11.1722 7.70126 12.0016 8.59689 12.0016H8.79961C9.13097 12.0016 9.39961 11.7329 9.39961 11.4016C9.39961 11.0702 9.13097 10.8016 8.79961 10.8016H8.59689C8.46897 10.8016 8.37393 10.6831 8.40169 10.5582L8.76897 8.90524C8.96329 8.03092 8.29793 7.20156 7.40231 7.20156H7.19961Z" fill="#0F172A"/>
</svg>
