<svg width="16" height="16" viewBox="0 0 16 16" fill="none" xmlns="http://www.w3.org/2000/svg">
<path d="M8.00063 1.33594C4.32732 1.33594 1.33398 4.32927 1.33398 8.0026C1.33398 11.676 4.32732 14.6692 8.00063 14.6692C11.674 14.6692 14.6674 11.676 14.6674 8.0026C14.6674 4.32927 11.674 1.33594 8.00063 1.33594ZM7.50066 5.33594C7.50066 5.0626 7.72732 4.83594 8.00063 4.83594C8.27399 4.83594 8.50063 5.0626 8.50063 5.33594V8.66924C8.50063 8.9426 8.27399 9.16924 8.00063 9.16924C7.72732 9.16924 7.50066 8.9426 7.50066 8.66924V5.33594ZM8.61399 10.9226C8.58063 11.0092 8.53399 11.076 8.47399 11.1426C8.40735 11.2026 8.33399 11.2492 8.25399 11.2826C8.17399 11.316 8.08735 11.336 8.00063 11.336C7.91398 11.336 7.82732 11.316 7.74732 11.2826C7.66732 11.2492 7.59398 11.2026 7.52732 11.1426C7.46732 11.076 7.42066 11.0092 7.38732 10.9226C7.35398 10.8426 7.33398 10.756 7.33398 10.6692C7.33398 10.5826 7.35398 10.496 7.38732 10.416C7.42066 10.336 7.46732 10.2626 7.52732 10.196C7.59398 10.136 7.66732 10.0892 7.74732 10.056C7.90732 9.98924 8.09399 9.98924 8.25399 10.056C8.33399 10.0892 8.40735 10.136 8.47399 10.196C8.53399 10.2626 8.58063 10.336 8.61399 10.416C8.64735 10.496 8.66735 10.5826 8.66735 10.6692C8.66735 10.756 8.64735 10.8426 8.61399 10.9226Z" fill="white"/>
</svg>
