<svg width="16" height="16" viewBox="0 0 16 16" fill="none" xmlns="http://www.w3.org/2000/svg">
<path d="M10.794 1.33594H5.20732C2.78066 1.33594 1.33398 2.7826 1.33398 5.20927V10.7892C1.33398 13.2226 2.78066 14.6692 5.20732 14.6692H10.7874C13.214 14.6692 14.6606 13.2226 14.6606 10.796V5.20927C14.6674 2.7826 13.2206 1.33594 10.794 1.33594ZM8.00063 10.5892C6.57398 10.5892 5.41398 9.42924 5.41398 8.0026C5.41398 6.57594 6.57398 5.41594 8.00063 5.41594C9.42735 5.41594 10.5874 6.57594 10.5874 8.0026C10.5874 9.42924 9.42735 10.5892 8.00063 10.5892ZM11.9474 4.58927C11.914 4.66927 11.8674 4.7426 11.8074 4.80927C11.7406 4.86927 11.6674 4.91594 11.5874 4.94927C11.5074 4.9826 11.4206 5.0026 11.334 5.0026C11.154 5.0026 10.9874 4.93594 10.8606 4.80927C10.8006 4.7426 10.754 4.66927 10.7206 4.58927C10.6874 4.50927 10.6674 4.4226 10.6674 4.33594C10.6674 4.24927 10.6874 4.1626 10.7206 4.0826C10.754 3.99594 10.8006 3.92927 10.8606 3.8626C11.014 3.70927 11.2474 3.63594 11.4606 3.6826C11.5074 3.68927 11.5474 3.7026 11.5874 3.7226C11.6274 3.73594 11.6674 3.75594 11.7074 3.7826C11.7406 3.8026 11.774 3.83594 11.8074 3.8626C11.8674 3.92927 11.914 3.99594 11.9474 4.0826C11.9806 4.1626 12.0006 4.24927 12.0006 4.33594C12.0006 4.4226 11.9806 4.50927 11.9474 4.58927Z" fill="white"/>
</svg>
