<svg width="16" height="16" viewBox="0 0 16 16" fill="none" xmlns="http://www.w3.org/2000/svg">
<path d="M13.0063 4.27854L8.67289 1.73187C8.25289 1.48521 7.73948 1.48521 7.31948 1.73187L2.98616 4.27854C2.5795 4.51854 2.32617 4.95854 2.32617 5.4252V10.5652C2.32617 11.0386 2.5795 11.4719 2.98616 11.7119L7.31948 14.2586C7.73948 14.5052 8.25289 14.5052 8.67289 14.2586L13.0063 11.7119C13.4129 11.4719 13.6662 11.0319 13.6662 10.5652V5.4252C13.6662 4.95854 13.4129 4.51854 13.0063 4.27854ZM11.5929 10.4252L8.25953 12.4252C8.17953 12.4719 8.09281 12.4986 7.99948 12.4986C7.90616 12.4986 7.81948 12.4719 7.73948 12.4252L4.40617 10.4252C4.16617 10.2852 4.09284 9.97856 4.23284 9.73856C4.37284 9.49856 4.67952 9.4252 4.91952 9.5652L7.99282 11.4119L10.3529 9.99192L9.11281 9.2452L8.67953 9.67856C8.57953 9.77856 8.45281 9.8252 8.32617 9.8252C8.19945 9.8252 8.07289 9.77856 7.97288 9.67856C7.77956 9.4852 7.77956 9.1652 7.97288 8.97192L8.22625 8.71856L7.02616 7.99856L6.67956 8.3452C6.57952 8.4452 6.45284 8.49192 6.32617 8.49192C6.19951 8.49192 6.07287 8.4452 5.97287 8.3452C5.77953 8.15192 5.77953 7.8319 5.97287 7.63856L6.14616 7.46522L4.40617 6.41854C4.25284 6.3252 4.16618 6.16521 4.16618 5.99187C4.16618 5.81854 4.25951 5.65187 4.40617 5.56521L7.73948 3.56521C7.89948 3.47187 8.09945 3.47187 8.25281 3.56521L11.5862 5.56521C11.8262 5.70521 11.8995 6.01187 11.7595 6.25187C11.6195 6.4852 11.3128 6.5652 11.0728 6.4252L7.99948 4.57853L5.63953 5.99854L6.87956 6.74523L7.31282 6.31187C7.50616 6.11854 7.82622 6.11854 8.01953 6.31187C8.21289 6.5052 8.21289 6.82523 8.01953 7.01856L7.76622 7.2719L8.96625 7.9919L9.31281 7.64523C9.50617 7.4519 9.82625 7.4519 10.0195 7.64523C10.2129 7.83856 10.2129 8.15856 10.0195 8.35192L9.84625 8.5252L11.5862 9.57192C11.7395 9.6652 11.8262 9.8252 11.8262 9.99856C11.8262 10.1719 11.7395 10.3386 11.5929 10.4252Z" fill="white"/>
</svg>
