<svg width="16" height="16" viewBox="0 0 16 16" fill="none" xmlns="http://www.w3.org/2000/svg">
<path d="M13.2523 1.33594H2.73891C2.33891 1.33594 2.03225 1.6826 2.07892 2.07594L3.27891 12.8892C3.30558 13.156 3.49893 13.3826 3.75893 13.456L7.81222 14.616C7.93222 14.6492 8.05898 14.6492 8.17898 14.616L12.2323 13.456C12.4923 13.3826 12.679 13.156 12.7123 12.8892L13.9123 2.07594C13.9589 1.6826 13.6523 1.33594 13.2523 1.33594ZM7.57889 10.6626C7.57889 10.8226 7.50562 10.9692 7.37896 11.0626C7.29229 11.1292 7.18556 11.1626 7.07889 11.1626C7.03222 11.1626 6.98556 11.156 6.93889 11.1426L4.85891 10.5426C4.59224 10.4626 4.43894 10.1892 4.51894 9.9226C4.59228 9.65596 4.87227 9.50924 5.13894 9.5826L6.57892 9.99596V4.67593C6.57892 4.40259 6.80556 4.17593 7.07889 4.17593C7.35222 4.17593 7.57889 4.40259 7.57889 4.67593V10.6626ZM11.4989 10.0692C11.4989 10.296 11.3455 10.496 11.1189 10.556L8.71898 11.156C8.67898 11.1692 8.63898 11.1692 8.59898 11.1692C8.37226 11.1692 8.17226 11.016 8.11226 10.7892C8.04554 10.5226 8.20554 10.2492 8.4789 10.1826L10.4989 9.67596V8.5426L8.97226 8.7626C8.82562 8.7826 8.68554 8.7426 8.57226 8.6426C8.46554 8.54924 8.3989 8.40924 8.3989 8.2626V4.9626C8.3989 4.71594 8.5789 4.5026 8.82554 4.46927L10.9256 4.16927C11.199 4.12927 11.4523 4.3226 11.4923 4.59594C11.5323 4.86927 11.3389 5.12261 11.0655 5.16261L9.39226 5.40261V7.68927L10.919 7.46927C11.0656 7.44927 11.2055 7.48927 11.3189 7.58927C11.4255 7.6826 11.4923 7.8226 11.4923 7.96927V10.0692H11.4989Z" fill="white"/>
</svg>
