<svg width="16" height="16" viewBox="0 0 16 16" fill="none" xmlns="http://www.w3.org/2000/svg">
<path d="M10.1674 11.1666H9.00063C8.08063 11.1666 7.33398 10.42 7.33398 9.5C7.33398 9.22664 7.56066 9 7.83398 9C8.10735 9 8.33399 9.22664 8.33399 9.5C8.33399 9.86664 8.63399 10.1666 9.00063 10.1666H10.1674C10.534 10.1666 10.834 9.86664 10.834 9.5C10.834 9.13336 10.534 8.83336 10.1674 8.83336H9.00063C8.08063 8.83336 7.33398 8.08664 7.33398 7.16666C7.33398 6.24666 8.08063 5.5 9.00063 5.5H10.1674C11.0874 5.5 11.834 6.24666 11.834 7.16666C11.834 7.44 11.6074 7.66666 11.334 7.66666C11.0606 7.66666 10.834 7.44 10.834 7.16666C10.834 6.8 10.534 6.5 10.1674 6.5H9.00063C8.63399 6.5 8.33399 6.8 8.33399 7.16666C8.33399 7.53334 8.63399 7.83334 9.00063 7.83334H10.1674C11.0874 7.83334 11.834 8.58 11.834 9.5C11.834 10.42 11.0874 11.1666 10.1674 11.1666Z" fill="white"/>
<path d="M8.00079 15.073C7.80745 15.073 7.61419 15.0264 7.43419 14.9264L6.44747 14.453C6.2008 14.333 6.09415 14.033 6.21415 13.7864C6.33415 13.5396 6.62748 13.433 6.88085 13.553L7.88752 14.0396C7.96085 14.0796 8.02743 14.0796 8.07415 14.053L13.4074 11.0931C13.4608 11.0664 13.4941 11.0064 13.4941 10.9464V5.06636C13.4941 5.00636 13.4608 4.95302 13.4074 4.91969L8.07415 1.95969C8.02079 1.93302 7.96079 1.93302 7.91412 1.95969L2.58081 4.91969C2.52748 4.94636 2.49414 5.00636 2.49414 5.06636V10.9464C2.49414 11.0064 2.52748 11.0597 2.58081 11.0931L4.25415 12.0196C4.51415 12.1664 4.82081 12.1596 5.08081 12.0064C5.34081 11.853 5.49414 11.5864 5.49414 11.2864L5.50081 5.99969C5.50081 5.72636 5.72748 5.49969 6.00081 5.49969C6.27415 5.49969 6.50081 5.72636 6.50081 5.99969L6.49414 11.2864C6.49414 11.9396 6.15415 12.533 5.58748 12.8664C5.02082 13.1996 4.34083 13.2064 3.7675 12.8864L2.09416 11.9596C1.72083 11.753 1.49414 11.3596 1.49414 10.9396V5.05969C1.49414 4.63969 1.72083 4.24635 2.09416 4.03969L7.42752 1.07969C7.78085 0.879688 8.20751 0.879688 8.56087 1.07969L13.8941 4.03969C14.2675 4.24635 14.4941 4.63969 14.4941 5.05969V10.9396C14.4941 11.3596 14.2675 11.753 13.8941 11.9596L8.56087 14.9196C8.38751 15.0196 8.19415 15.073 8.00079 15.073Z" fill="white"/>
</svg>
