<svg width="16" height="16" viewBox="0 0 16 16" fill="none" xmlns="http://www.w3.org/2000/svg">
<path d="M13.6941 12.6941C13.5941 12.7941 13.4675 12.8408 13.3409 12.8408C13.2141 12.8408 13.0875 12.7941 12.9875 12.6941L9.6875 9.39414L10.0409 9.04078L10.3941 8.6875L13.6941 11.9875C13.8875 12.1808 13.8875 12.5008 13.6941 12.6941Z" fill="white"/>
<path d="M4.31357 6.18803L8.18023 10.0547C8.44023 10.3147 8.44023 10.7347 8.18023 10.9947L7.58027 11.6014C7.04027 12.1347 6.1869 12.1347 5.65357 11.6014L2.76023 8.70804C2.23357 8.1814 2.23357 7.32137 2.76023 6.78804L3.3669 6.18136C3.6269 5.92803 4.05357 5.92803 4.31357 6.18803Z" fill="white"/>
<path d="M12.3932 6.79313L9.8532 9.32648C9.58656 9.59312 9.15984 9.59312 8.8932 9.32648L5.03984 5.47313C4.77318 5.20646 4.77318 4.77979 5.03984 4.51313L7.57987 1.97313C8.10656 1.44646 8.96656 1.44646 9.49984 1.97313L12.3932 4.86646C12.9198 5.39979 12.9198 6.25313 12.3932 6.79313Z" fill="white"/>
<path d="M5.33398 14.5H1.33398C1.06066 14.5 0.833984 14.2734 0.833984 14C0.833984 13.7266 1.06066 13.5 1.33398 13.5H5.33398C5.60732 13.5 5.83398 13.7266 5.83398 14C5.83398 14.2734 5.60732 14.5 5.33398 14.5Z" fill="white"/>
</svg>
