<svg width="16" height="16" viewBox="0 0 16 16" fill="none" xmlns="http://www.w3.org/2000/svg">
<path d="M7.00066 13.2692V2.73594C7.00066 1.73594 6.57398 1.33594 5.51398 1.33594H2.82066C1.76066 1.33594 1.33398 1.73594 1.33398 2.73594V13.2692C1.33398 14.2692 1.76066 14.6692 2.82066 14.6692H5.51398C6.57398 14.6692 7.00066 14.2692 7.00066 13.2692Z" fill="white"/>
<path d="M14.6666 8.6026V2.73594C14.6666 1.73594 14.24 1.33594 13.18 1.33594H10.4866C9.42664 1.33594 9 1.73594 9 2.73594V8.6026C9 9.6026 9.42664 10.0026 10.4866 10.0026H13.18C14.24 10.0026 14.6666 9.6026 14.6666 8.6026Z" fill="white"/>
</svg>
