<svg width="16" height="16" viewBox="0 0 16 16" fill="none" xmlns="http://www.w3.org/2000/svg">
<path d="M8.83336 8.0026C9.2936 8.0026 9.66664 7.62954 9.66664 7.16927C9.66664 6.709 9.2936 6.33594 8.83336 6.33594C8.37304 6.33594 8 6.709 8 7.16927C8 7.62954 8.37304 8.0026 8.83336 8.0026Z" fill="white"/>
<path d="M10.794 1.33594H5.20732C2.78066 1.33594 1.33398 2.7826 1.33398 5.20927V10.7892C1.33398 13.2226 2.78066 14.6692 5.20732 14.6692H10.7874C13.214 14.6692 14.6606 13.2226 14.6606 10.796V5.20927C14.6674 2.7826 13.2206 1.33594 10.794 1.33594ZM10.594 8.9826C9.90735 9.6626 8.92735 9.87596 8.06063 9.6026L7.35398 10.3026C7.29398 10.3626 7.18732 10.3626 7.12066 10.3026L6.47398 9.65596C6.38066 9.5626 6.22066 9.5626 6.12066 9.65596C6.02066 9.74924 6.02732 9.90924 6.12066 10.0092L6.76732 10.656C6.83398 10.7226 6.83398 10.8292 6.76732 10.8892L6.49398 11.1626C6.38066 11.2826 6.16066 11.356 6.00066 11.336L5.27398 11.236C5.03398 11.2026 4.81398 10.976 4.77398 10.736L4.67398 10.0092C4.64732 9.84924 4.72732 9.62924 4.83398 9.51596L6.40066 7.94927C6.13398 7.0826 6.34066 6.1026 7.02732 5.41594C8.00735 4.43594 9.60735 4.43594 10.594 5.41594C11.5806 6.39594 11.5806 7.99594 10.594 8.9826Z" fill="white"/>
</svg>
