<svg width="16" height="16" viewBox="0 0 16 16" fill="none" xmlns="http://www.w3.org/2000/svg">
<path fill-rule="evenodd" clip-rule="evenodd" d="M6.39961 5.60156C6.39961 3.39243 8.19049 1.60156 10.3996 1.60156C12.6087 1.60156 14.3996 3.39243 14.3996 5.60156C14.3996 7.8107 12.6087 9.60156 10.3996 9.60156C10.0138 9.60156 9.64065 9.54692 9.28761 9.44492L7.7653 10.9672C7.61527 11.1172 7.41179 11.2016 7.19961 11.2016H6.39961V12.0016C6.39961 12.4434 6.04143 12.8016 5.59961 12.8016H4.79961V13.6016C4.79961 14.0434 4.44143 14.4016 3.99961 14.4016H2.39961C1.95779 14.4016 1.59961 14.0434 1.59961 13.6016V12.0016C1.59961 11.7894 1.6839 11.5859 1.83392 11.4359L6.55622 6.71359C6.45425 6.36055 6.39961 5.98743 6.39961 5.60156ZM10.3996 3.20156C10.0682 3.20156 9.79961 3.47019 9.79961 3.80156C9.79961 4.13293 10.0682 4.40156 10.3996 4.40156C11.0623 4.40156 11.5996 4.93882 11.5996 5.60156C11.5996 5.93293 11.8682 6.20156 12.1996 6.20156C12.531 6.20156 12.7996 5.93293 12.7996 5.60156C12.7996 4.27608 11.7251 3.20156 10.3996 3.20156Z" fill="#0F172A"/>
</svg>
