<svg width="16" height="16" viewBox="0 0 16 16" fill="none" xmlns="http://www.w3.org/2000/svg">
<path d="M12.1794 2.23073C11.866 2.18406 11.506 2.16406 10.9994 2.16406H4.99934C4.49934 2.16406 4.13268 2.18406 3.83934 2.22406C1.60602 2.47073 1.16602 3.7974 1.16602 5.9974V9.9974C1.16602 12.1974 1.60602 13.524 3.81934 13.764C4.13268 13.8108 4.49268 13.8308 4.99934 13.8308H10.9994C11.4994 13.8308 11.866 13.8108 12.1594 13.7708C14.3926 13.524 14.8326 12.204 14.8326 9.9974V5.9974C14.8326 3.7974 14.3926 2.47073 12.1794 2.23073ZM6.72602 5.9974C7.09934 5.9974 7.39935 6.2974 7.39935 6.66406C7.39935 7.03073 7.09935 7.33073 6.73268 7.33073C6.36602 7.33073 6.06602 7.03073 6.06602 6.66406C6.06602 6.2974 6.35934 5.9974 6.72602 5.9974ZM4.72602 5.9974C5.10602 5.9974 5.39935 6.2974 5.39935 6.66406C5.39935 7.03073 5.09934 7.33073 4.73268 7.33073C4.36602 7.33073 4.06602 7.03073 4.06602 6.66406C4.06602 6.2974 4.35934 5.9974 4.72602 5.9974ZM11.3326 10.8308H4.67934C4.40602 10.8308 4.17268 10.604 4.17268 10.3308C4.17268 10.0574 4.39268 9.83076 4.66602 9.83076H11.3326C11.606 9.83076 11.8326 10.0574 11.8326 10.3308C11.8326 10.604 11.606 10.8308 11.3326 10.8308ZM11.3326 7.16406H8.99937C8.72601 7.16406 8.49937 6.9374 8.49937 6.66406C8.49937 6.39073 8.72601 6.16406 8.99937 6.16406H11.3326C11.606 6.16406 11.8326 6.39073 11.8326 6.66406C11.8326 6.9374 11.606 7.16406 11.3326 7.16406Z" fill="white"/>
</svg>
