<svg width="16" height="16" viewBox="0 0 16 16" fill="none" xmlns="http://www.w3.org/2000/svg">
<path d="M11.3326 15.1641H4.66602C4.39268 15.1641 4.16602 14.9374 4.16602 14.6641C4.16602 14.3908 4.39268 14.1641 4.66602 14.1641H11.3326C11.606 14.1641 11.8326 14.3908 11.8326 14.6641C11.8326 14.9374 11.606 15.1641 11.3326 15.1641Z" fill="white"/>
<path d="M12.0006 1.33594H4.00066C2.52732 1.33594 1.33398 2.52927 1.33398 4.0026V10.0026C1.33398 11.476 2.52732 12.6692 4.00066 12.6692H12.0006C13.474 12.6692 14.6674 11.476 14.6674 10.0026V4.0026C14.6674 2.52927 13.474 1.33594 12.0006 1.33594ZM6.66066 4.8826C7.03398 4.8826 7.33398 5.1826 7.33398 5.54927C7.33398 5.91594 7.03398 6.21594 6.66732 6.21594C6.30066 6.21594 6.00066 5.91594 6.00066 5.54927C6.00066 5.1826 6.29398 4.8826 6.66066 4.8826ZM4.56066 4.8826C4.93398 4.8826 5.23398 5.1826 5.23398 5.54927C5.23398 5.91594 4.93398 6.21594 4.56732 6.21594C4.20066 6.21594 3.90066 5.91594 3.90066 5.54927C3.90066 5.1826 4.18732 4.8826 4.56066 4.8826ZM11.5074 9.90924H4.50732C4.22732 9.90924 4.00066 9.6826 4.00066 9.40924C4.00066 9.13596 4.22066 8.90924 4.49398 8.90924H11.514C11.7874 8.90924 12.014 9.13596 12.014 9.40924C12.014 9.6826 11.7874 9.90924 11.5074 9.90924ZM11.5074 6.04927H9.05399C8.78063 6.04927 8.55399 5.8226 8.55399 5.54927C8.55399 5.27594 8.78063 5.04927 9.05399 5.04927H11.5074C11.7806 5.04927 12.0074 5.27594 12.0074 5.54927C12.0074 5.8226 11.7874 6.04927 11.5074 6.04927Z" fill="white"/>
</svg>
