<svg width="16" height="16" viewBox="0 0 16 16" fill="none" xmlns="http://www.w3.org/2000/svg">
<path d="M11.8804 5.80002C12.3537 5.54002 12.9337 5.88002 12.927 6.42002L12.9004 10.0333C12.8937 10.58 12.3004 10.9133 11.8337 10.6333L8.71367 8.76668C8.24703 8.48668 8.26039 7.80666 8.73367 7.54666L11.8804 5.80002Z" fill="white"/>
<path d="M12.8337 4.18449C12.9337 4.43783 12.7803 4.69783 12.5403 4.83117L8.78704 6.90453C8.25368 7.19786 7.62703 6.72453 7.76035 6.13784L8.57368 2.45117C8.67368 1.98449 9.20032 1.75784 9.61368 1.99117L12.2271 3.48449C12.5138 3.65117 12.7203 3.89783 12.8337 4.18449Z" fill="white"/>
<path d="M8.0064 1.7811L6.62641 7.98111C6.60641 8.0744 6.60641 8.1744 6.62641 8.2744L7.77973 14.0611C7.85973 14.4611 7.51981 14.8411 7.18647 14.5944L3.65974 12.0811C3.28641 11.8144 3.06641 11.3878 3.06641 10.9344V4.72777C3.06641 4.22111 3.33307 3.75443 3.77973 3.50111L7.30641 1.49444C7.40641 1.43444 7.51307 1.39443 7.61973 1.3611C7.87307 1.27443 8.05976 1.52777 8.0064 1.7811Z" fill="white"/>
<path d="M11.7526 11.2091C12.1859 11.4691 12.2126 12.0892 11.8059 12.3825L9.49258 14.0624C9.0793 14.3624 8.48594 14.1357 8.38594 13.6291L7.70595 10.1625C7.58595 9.56252 8.23258 9.10908 8.7593 9.42244L11.7526 11.2091Z" fill="white"/>
</svg>
