<svg width="16" height="16" viewBox="0 0 16 16" fill="none" xmlns="http://www.w3.org/2000/svg">
<path d="M8.33313 3.65416C8.38649 3.65416 8.43977 3.65416 8.49977 3.66083V1.68749C8.49977 1.41416 8.27313 1.1875 7.99977 1.1875C7.72647 1.1875 7.4998 1.41416 7.4998 1.68749V3.66083C7.55313 3.65416 7.60647 3.65416 7.66647 3.65416C4.59316 3.80749 2.14648 6.34083 2.14648 9.45416V10.7475C2.14648 11.4808 2.74648 12.0808 3.47982 12.0808H12.5198C13.2531 12.0808 13.8531 11.4808 13.8531 10.7475V9.45416C13.8531 6.34083 11.4065 3.80749 8.33313 3.65416Z" fill="white"/>
<path d="M9.8207 12.7422C10.0407 12.7422 10.2007 12.9488 10.1474 13.1622C9.89406 14.1155 9.02742 14.8155 8.00072 14.8155C6.97405 14.8155 6.10741 14.1155 5.85407 13.1622C5.80074 12.9488 5.96074 12.7422 6.18074 12.7422H9.8207Z" fill="white"/>
</svg>
