<svg width="16" height="16" viewBox="0 0 16 16" fill="none" xmlns="http://www.w3.org/2000/svg">
<path d="M13.6198 7.85594L12.153 2.46927C11.9864 1.84927 11.313 1.33594 10.673 1.33594H5.32641C4.68641 1.33594 4.01308 1.84927 3.84641 2.46927L2.37975 7.85594C2.08641 8.9226 2.75308 9.79596 3.85975 9.79596H7.49973V13.6692H5.33308C5.05975 13.6692 4.83308 13.896 4.83308 14.1692C4.83308 14.4426 5.05975 14.6692 5.33308 14.6692H10.6664C10.9398 14.6692 11.1664 14.4426 11.1664 14.1692C11.1664 13.896 10.9398 13.6692 10.6664 13.6692H8.49975V9.79596H12.1398C13.2464 9.79596 13.913 8.9226 13.6198 7.85594Z" fill="white"/>
</svg>
