<svg width="16" height="16" viewBox="0 0 16 16" fill="none" xmlns="http://www.w3.org/2000/svg">
<path d="M12.8065 4.24099C12.1131 2.84099 10.7731 1.80765 9.21977 1.46765C7.59313 1.10765 5.92648 1.49431 4.65316 2.52099C3.37316 3.54099 2.64648 5.06765 2.64648 6.70097C2.64648 8.42764 3.67982 10.2343 5.23982 11.281V11.8343C5.23316 12.021 5.22648 12.3076 5.45316 12.541C5.68648 12.781 6.03316 12.8076 6.30648 12.8076H9.72649C10.0865 12.8076 10.3598 12.7076 10.5465 12.521C10.7998 12.261 10.7931 11.9276 10.7865 11.7476V11.281C12.8531 9.88764 14.1531 6.94763 12.8065 4.24099Z" fill="white"/>
<path d="M10.1728 14.6669C10.1328 14.6669 10.0862 14.6603 10.0462 14.6469C8.70618 14.2669 7.29948 14.2669 5.95945 14.6469C5.71279 14.7136 5.45279 14.5736 5.38612 14.3269C5.31279 14.0803 5.45945 13.8203 5.70612 13.7536C7.21282 13.3269 8.79946 13.3269 10.3062 13.7536C10.5528 13.8269 10.6995 14.0803 10.6262 14.3269C10.5595 14.5336 10.3728 14.6669 10.1728 14.6669Z" fill="white"/>
</svg>
