<svg width="16" height="16" viewBox="0 0 16 16" fill="none" xmlns="http://www.w3.org/2000/svg">
<path d="M10.4665 2.90199L4.26648 9.10204C3.95316 9.41532 3.40648 9.34868 3.20648 8.94868C2.84648 8.23532 2.64648 7.45535 2.64648 6.70202C2.64648 5.06866 3.37316 3.54199 4.64648 2.51533C5.91982 1.48866 7.58647 1.10866 9.21977 1.46866C9.57977 1.54866 9.93313 1.66199 10.2665 1.81533C10.6931 2.00866 10.7998 2.56866 10.4665 2.90199Z" fill="white"/>
<path d="M10.3002 13.7536C8.79361 13.3269 7.20693 13.3269 5.70026 13.7536C5.45359 13.8269 5.30693 14.0803 5.38026 14.3269C5.45359 14.5736 5.70693 14.7136 5.95359 14.6469C7.2936 14.2669 8.70025 14.2669 10.0402 14.6469C10.0802 14.6603 10.127 14.6669 10.167 14.6669C10.367 14.6669 10.5536 14.5336 10.6136 14.3269C10.687 14.0803 10.547 13.8269 10.3002 13.7536Z" fill="white"/>
<path d="M13.7074 1.30125C13.5141 1.10792 13.1941 1.10792 13.0007 1.30125L2.43406 11.8679C2.24073 12.0612 2.24073 12.3812 2.43406 12.5746C2.53406 12.6746 2.66073 12.7212 2.7874 12.7212C2.91406 12.7212 3.04074 12.6746 3.14074 12.5746L4.78073 10.9346C4.9274 11.0546 5.08073 11.1746 5.24073 11.2812V11.8346C5.23406 12.0212 5.2274 12.3079 5.4474 12.5412C5.68074 12.7746 6.0274 12.8079 6.30074 12.8079H9.7207C10.0807 12.8079 10.3541 12.7079 10.5407 12.5212C10.8007 12.2546 10.7874 11.9212 10.7807 11.7479V11.2812C12.8541 9.88792 14.1541 6.9479 12.8074 4.24125C12.6607 3.95458 12.4807 3.68125 12.2807 3.42792L13.7007 2.00792C13.9007 1.81458 13.9007 1.49458 13.7074 1.30125Z" fill="white"/>
</svg>
