<svg width="16" height="16" viewBox="0 0 16 16" fill="none" xmlns="http://www.w3.org/2000/svg">
<path d="M8.00063 1.33594C4.32066 1.33594 1.33398 4.3226 1.33398 8.0026C1.33398 11.6826 4.32066 14.6692 8.00063 14.6692C11.6806 14.6692 14.6674 11.6826 14.6674 8.0026C14.6674 4.3226 11.6806 1.33594 8.00063 1.33594ZM11.334 11.6492C10.194 11.6492 9.12735 11.156 8.27399 10.2426C7.30732 11.116 6.04732 11.6492 4.66732 11.6492C4.39398 11.6492 4.16732 11.4226 4.16732 11.1492C4.16732 10.876 4.39398 10.6492 4.66732 10.6492C6.98066 10.6492 8.89399 8.81596 9.14063 6.46927H8.00063H4.67398C4.40066 6.46927 4.17398 6.2426 4.17398 5.96927C4.17398 5.69594 4.40066 5.47594 4.67398 5.47594H7.50066V4.85594C7.50066 4.5826 7.72732 4.35594 8.00063 4.35594C8.27399 4.35594 8.50063 4.5826 8.50063 4.85594V5.47594H9.62735C9.64063 5.47594 9.65399 5.46927 9.66735 5.46927C9.68063 5.46927 9.69399 5.47594 9.70735 5.47594H11.3274C11.6006 5.47594 11.8274 5.7026 11.8274 5.97594C11.8274 6.24927 11.6006 6.47594 11.3274 6.47594H10.1406C10.0406 7.61594 9.61399 8.6626 8.96063 9.51596C9.62735 10.256 10.4606 10.656 11.334 10.656C11.6074 10.656 11.834 10.8826 11.834 11.156C11.834 11.4292 11.6074 11.6492 11.334 11.6492Z" fill="white"/>
</svg>
