<svg width="16" height="16" viewBox="0 0 16 16" fill="none" xmlns="http://www.w3.org/2000/svg">
<path d="M6.19968 2.20156C6.19968 1.87019 5.93105 1.60156 5.59968 1.60156C5.26831 1.60156 4.99968 1.87019 4.99968 2.20156V3.2083C4.0262 3.23019 3.06561 3.30519 2.12075 3.43058C1.79226 3.47417 1.5613 3.7758 1.60489 4.10429C1.64848 4.43278 1.95012 4.66374 2.27861 4.62015C3.36488 4.47599 4.47344 4.40156 5.59968 4.40156C6.05613 4.40156 6.50968 4.41379 6.96 4.43793C6.62569 5.56705 6.16694 6.64291 5.59958 7.64957C5.30165 7.12096 5.03368 6.57329 4.79796 6.00886C4.67025 5.70308 4.31885 5.55873 4.01308 5.68643C3.7073 5.81413 3.56294 6.16554 3.69064 6.47131C4.02895 7.28136 4.42881 8.05916 4.88436 8.79892C4.02886 10.0494 2.99592 11.1692 1.82164 12.122C1.56432 12.3308 1.52497 12.7087 1.73376 12.966C1.94255 13.2233 2.3204 13.2627 2.57772 13.0539C3.7181 12.1286 4.73496 11.0567 5.59958 9.86668C5.67593 9.9718 5.75348 10.076 5.83218 10.1792C6.03311 10.4427 6.4096 10.4934 6.67311 10.2925C6.93661 10.0916 6.98735 9.71508 6.78642 9.45156C6.62377 9.23828 6.4665 9.02068 6.31481 8.79892C7.12334 7.48599 7.75643 6.0532 8.18121 4.53319C8.42881 4.55858 8.67537 4.58759 8.92073 4.62015C9.24921 4.66374 9.55089 4.43278 9.59449 4.10429C9.63809 3.7758 9.40713 3.47417 9.07857 3.43058C8.64873 3.37353 8.21561 3.32691 7.77952 3.29099C7.25704 3.24794 6.73028 3.22023 6.19968 3.2083V2.20156Z" fill="#0F172A"/>
<path fill-rule="evenodd" clip-rule="evenodd" d="M10.4006 6.39844C10.6278 6.39844 10.8355 6.52684 10.9372 6.73011L14.3372 13.5301C14.4854 13.8265 14.3653 14.1869 14.0689 14.3351C13.7725 14.4833 13.4121 14.3632 13.2638 14.0668L12.6297 12.7984H8.17135L7.53718 14.0668C7.38898 14.3632 7.02858 14.4833 6.73219 14.3351C6.43581 14.1869 6.31567 13.8265 6.46386 13.5301L9.86383 6.73011C9.96551 6.52684 10.1733 6.39844 10.4006 6.39844ZM12.0297 11.5984L10.4006 8.34012L8.77135 11.5984H12.0297Z" fill="#0F172A"/>
</svg>
