<svg width="16" height="16" viewBox="0 0 16 16" fill="none" xmlns="http://www.w3.org/2000/svg">
<path d="M12.9131 3.25813L9.00648 1.51813C8.43312 1.26479 7.56646 1.26479 6.99313 1.51813L3.08645 3.25813C2.09979 3.69813 1.95312 4.29813 1.95312 4.61813C1.95312 4.93813 2.09979 5.53813 3.08645 5.97813L6.99313 7.71809C7.2798 7.84477 7.6398 7.91143 7.9998 7.91143C8.35976 7.91143 8.71976 7.84477 9.00648 7.71809L12.9131 5.97813C13.8998 5.53813 14.0465 4.93813 14.0465 4.61813C14.0465 4.29813 13.9065 3.69813 12.9131 3.25813Z" fill="white"/>
<path d="M8.00024 11.3626C7.74688 11.3626 7.49354 11.3092 7.2602 11.2092L2.76687 9.20924C2.08021 8.9026 1.54688 8.0826 1.54688 7.32927C1.54688 7.05594 1.76688 6.83594 2.04021 6.83594C2.31355 6.83594 2.53355 7.05594 2.53355 7.32927C2.53355 7.68927 2.83355 8.15596 3.16688 8.3026L7.6602 10.3026C7.87354 10.396 8.12024 10.396 8.33352 10.3026L12.8269 8.3026C13.1602 8.15596 13.4602 7.69594 13.4602 7.32927C13.4602 7.05594 13.6802 6.83594 13.9535 6.83594C14.2269 6.83594 14.4469 7.05594 14.4469 7.32927C14.4469 8.07596 13.9135 8.9026 13.2269 9.20924L8.73352 11.2092C8.50688 11.3092 8.25352 11.3626 8.00024 11.3626Z" fill="white"/>
<path d="M8.00024 14.6673C7.74688 14.6673 7.49354 14.6139 7.2602 14.5139L2.76687 12.5139C2.02687 12.1873 1.54688 11.4473 1.54688 10.6339C1.54688 10.3606 1.76688 10.1406 2.04021 10.1406C2.31355 10.1406 2.53355 10.3606 2.53355 10.6339C2.53355 11.0539 2.78021 11.4339 3.16688 11.6073L7.6602 13.6073C7.87354 13.7006 8.12024 13.7006 8.33352 13.6073L12.8269 11.6073C13.2069 11.4406 13.4602 11.0539 13.4602 10.6339C13.4602 10.3606 13.6802 10.1406 13.9535 10.1406C14.2269 10.1406 14.4469 10.3606 14.4469 10.6339C14.4469 11.4473 13.9669 12.1806 13.2269 12.5139L8.73352 14.5139C8.50688 14.6139 8.25352 14.6673 8.00024 14.6673Z" fill="white"/>
</svg>
