<svg width="16" height="16" viewBox="0 0 16 16" fill="none" xmlns="http://www.w3.org/2000/svg">
<path d="M8.00063 1.33594C4.32066 1.33594 1.33398 4.3226 1.33398 8.0026C1.33398 11.6826 4.32066 14.6692 8.00063 14.6692C11.6806 14.6692 14.6674 11.6826 14.6674 8.0026C14.6674 4.3226 11.6806 1.33594 8.00063 1.33594ZM4.66732 8.5026H3.33398C3.06066 8.5026 2.83398 8.27596 2.83398 8.0026C2.83398 7.72927 3.06066 7.5026 3.33398 7.5026H4.66732C4.94066 7.5026 5.16732 7.72927 5.16732 8.0026C5.16732 8.27596 4.94066 8.5026 4.66732 8.5026ZM8.00063 9.5026C7.17398 9.5026 6.50066 8.82924 6.50066 8.0026C6.50066 7.17594 7.17398 6.5026 8.00063 6.5026C8.82735 6.5026 9.50063 7.17594 9.50063 8.0026C9.50063 8.82924 8.82735 9.5026 8.00063 9.5026ZM12.6674 8.5026H11.334C11.0606 8.5026 10.834 8.27596 10.834 8.0026C10.834 7.72927 11.0606 7.5026 11.334 7.5026H12.6674C12.9406 7.5026 13.1674 7.72927 13.1674 8.0026C13.1674 8.27596 12.9406 8.5026 12.6674 8.5026Z" fill="white"/>
</svg>
