<svg width="16" height="16" viewBox="0 0 16 16" fill="none" xmlns="http://www.w3.org/2000/svg">
<path fill-rule="evenodd" clip-rule="evenodd" d="M5.7365 3.31812L7.29439 5.29146C7.75642 5.17159 8.24281 5.17159 8.70481 5.29146L10.2627 3.31812C8.83737 2.62938 7.16182 2.62938 5.7365 3.31812ZM12.683 5.73845L10.7097 7.29634C10.8296 7.75837 10.8296 8.24476 10.7097 8.70676L12.683 10.2647C13.3718 8.83932 13.3718 7.16377 12.683 5.73845ZM10.2627 12.685L8.70481 10.7116C8.24281 10.8316 7.75642 10.8316 7.29439 10.7116L5.7365 12.685C7.16182 13.3737 8.83737 13.3737 10.2627 12.685ZM3.31617 10.2647L5.2895 8.70676C5.16964 8.24476 5.16964 7.75837 5.2895 7.29634L3.31617 5.73845C2.62742 7.16377 2.62742 8.83932 3.31617 10.2647ZM4.50434 2.6389C6.62215 1.25578 9.37705 1.25578 11.4949 2.6389C11.8598 2.87725 12.2054 3.15641 12.5251 3.47608C12.8447 3.79574 13.1239 4.14133 13.3622 4.50629C14.7454 6.6241 14.7454 9.379 13.3622 11.4968C13.1239 11.8618 12.8447 12.2074 12.5251 12.5271C12.2054 12.8467 11.8598 13.1259 11.4949 13.3642C9.37705 14.7473 6.62215 14.7473 4.50434 13.3642C4.13937 13.1259 3.79379 12.8467 3.47413 12.5271C3.15446 12.2074 2.8753 11.8618 2.63694 11.4968C1.25383 9.379 1.25383 6.6241 2.63694 4.50629C2.8753 4.14133 3.15446 3.79574 3.47413 3.47608C3.79379 3.15641 4.13938 2.87725 4.50434 2.6389ZM8.66257 6.54474C8.24289 6.35384 7.7563 6.35384 7.33662 6.54474C7.1676 6.62161 7.00867 6.72975 6.86824 6.87019C6.7278 7.01062 6.61966 7.16955 6.54278 7.33857C6.35189 7.75826 6.35189 8.24484 6.54278 8.66452C6.61966 8.83356 6.7278 8.99252 6.86824 9.13292C7.00867 9.2734 7.1676 9.38148 7.33662 9.45836C7.7563 9.64932 8.24289 9.64932 8.66257 9.45836C8.83161 9.38148 8.99057 9.2734 9.13097 9.13292C9.27145 8.99252 9.37953 8.83356 9.45641 8.66452C9.64737 8.24484 9.64737 7.75826 9.45641 7.33857C9.37953 7.16955 9.27145 7.01062 9.13097 6.87019C8.99057 6.72975 8.83161 6.62161 8.66257 6.54474Z" fill="#0F172A"/>
</svg>
