<svg width="16" height="16" viewBox="0 0 16 16" fill="none" xmlns="http://www.w3.org/2000/svg">
<path d="M7.99922 0.800781C5.34825 0.800781 3.19922 2.94981 3.19922 5.60078C3.19922 7.09293 3.88079 8.42638 4.94737 9.30582C5.78919 9.9999 6.39922 10.7549 6.39922 11.5653V12.081C6.39922 12.3575 6.58822 12.5982 6.85686 12.6639C7.22359 12.7534 7.60628 12.8008 7.99922 12.8008C8.39218 12.8008 8.77482 12.7534 9.14162 12.6639C9.41018 12.5982 9.59922 12.3575 9.59922 12.081V11.5653C9.59922 10.7549 10.2092 9.9999 11.0511 9.30582C12.1176 8.42638 12.7992 7.09293 12.7992 5.60078C12.7992 2.94981 10.6502 0.800781 7.99922 0.800781Z" fill="#0F172A"/>
<path d="M7.09063 13.9327C6.76302 13.8829 6.45708 14.1081 6.40729 14.4357C6.35749 14.7633 6.5827 15.0693 6.91031 15.1191C7.26616 15.1731 7.63024 15.2011 8.00047 15.2011C8.37071 15.2011 8.73479 15.1731 9.09063 15.1191C9.41823 15.0693 9.64343 14.7633 9.59367 14.4357C9.54383 14.1081 9.23791 13.8829 8.91031 13.9327C8.61391 13.9778 8.31015 14.0011 8.00047 14.0011C7.69081 14.0011 7.387 13.9778 7.09063 13.9327Z" fill="#0F172A"/>
</svg>
