<svg width="16" height="16" viewBox="0 0 16 16" fill="none" xmlns="http://www.w3.org/2000/svg">
<path d="M12 1.33594H4C2.89334 1.33594 2 2.2226 2 3.31594V10.5892C2 11.6826 2.89334 12.5692 4 12.5692H4.50666C5.04 12.5692 5.54666 12.776 5.92 13.1492L7.06 14.276C7.58 14.7892 8.42664 14.7892 8.94664 14.276L10.0866 13.1492C10.46 12.776 10.9734 12.5692 11.5 12.5692H12C13.1066 12.5692 14 11.6826 14 10.5892V3.31594C14 2.2226 13.1066 1.33594 12 1.33594ZM8.18664 9.97596C8.08664 10.0092 7.92 10.0092 7.81334 9.97596C6.94666 9.67596 5 8.4426 5 6.3426C5.00666 5.41594 5.74666 4.66927 6.66666 4.66927C7.21334 4.66927 7.69334 4.92927 8 5.33594C8.30664 4.92927 8.78664 4.66927 9.33336 4.66927C10.2534 4.66927 11 5.41594 11 6.3426C10.9934 8.4426 9.05336 9.67596 8.18664 9.97596Z" fill="white"/>
</svg>
