<svg width="16" height="16" viewBox="0 0 16 16" fill="none" xmlns="http://www.w3.org/2000/svg">
<path d="M12 1.33594H4C2.89334 1.33594 2 2.2226 2 3.31594V10.5892C2 11.6826 2.89334 12.5692 4 12.5692H4.50666C5.04 12.5692 5.54666 12.776 5.92 13.1492L7.06 14.276C7.58 14.7892 8.42664 14.7892 8.94664 14.276L10.0866 13.1492C10.46 12.776 10.9734 12.5692 11.5 12.5692H12C13.1066 12.5692 14 11.6826 14 10.5892V3.31594C14 2.2226 13.1066 1.33594 12 1.33594ZM11.12 7.0026L10.34 9.37596C10.24 9.76924 9.82 10.0892 9.39336 10.0892H8.16C7.94666 10.0892 7.64666 10.016 7.51334 9.8826L6.53334 9.11596C6.51334 9.5426 6.32 9.7226 5.84666 9.7226H5.52666C5.03334 9.7226 4.83334 9.52924 4.83334 9.0626V5.8826C4.83334 5.41594 5.03334 5.2226 5.52666 5.2226H5.85334C6.34666 5.2226 6.54666 5.41594 6.54666 5.8826V6.1226L7.84 4.2026C7.97334 3.99594 8.31336 3.84927 8.6 3.9626C8.91336 4.06927 9.11336 4.41594 9.04664 4.7226L8.88664 5.7626C8.86664 5.84927 8.88664 5.9426 8.94664 6.0026C9 6.0626 9.08 6.1026 9.16664 6.1026H10.4666C10.72 6.1026 10.9334 6.2026 11.06 6.3826C11.18 6.55594 11.2 6.77594 11.12 7.0026Z" fill="white"/>
</svg>
