<svg width="16" height="16" viewBox="0 0 16 16" fill="none" xmlns="http://www.w3.org/2000/svg">
<path d="M14.3726 7.16033L13.4659 6.10703C13.2926 5.90703 13.1526 5.5337 13.1526 5.26703V4.1337C13.1526 3.42703 12.5726 2.84703 11.8659 2.84703H10.7326C10.4726 2.84703 10.0926 2.70703 9.89258 2.5337L8.8393 1.62703C8.3793 1.2337 7.62594 1.2337 7.15928 1.62703L6.1126 2.54036C5.9126 2.70703 5.5326 2.84703 5.2726 2.84703H4.11927C3.4126 2.84703 2.8326 3.42703 2.8326 4.1337V5.2737C2.8326 5.5337 2.6926 5.90703 2.52594 6.10703L1.62594 7.167C1.23927 7.627 1.23927 8.37366 1.62594 8.83366L2.52594 9.89366C2.6926 10.0937 2.8326 10.467 2.8326 10.727V11.867C2.8326 12.5737 3.4126 13.1537 4.11927 13.1537H5.2726C5.5326 13.1537 5.9126 13.2937 6.1126 13.467L7.16594 14.3737C7.62594 14.767 8.3793 14.767 8.84594 14.3737L9.8993 13.467C10.0993 13.2937 10.4726 13.1537 10.7393 13.1537H11.8726C12.5793 13.1537 13.1593 12.5737 13.1593 11.867V10.7337C13.1593 10.4737 13.2993 10.0937 13.4726 9.89366L14.3793 8.8403C14.7659 8.3803 14.7659 7.62033 14.3726 7.16033ZM11.1193 8.00033L10.3393 10.3737C10.2393 10.767 9.8193 11.087 9.39258 11.087H8.1593C7.94594 11.087 7.64595 11.0137 7.51262 10.8803L6.5326 10.1137C6.5126 10.5403 6.31927 10.7203 5.84594 10.7203H5.52594C5.0326 10.7203 4.8326 10.527 4.8326 10.0603V6.87366C4.8326 6.40703 5.0326 6.2137 5.52594 6.2137H5.8526C6.34594 6.2137 6.54594 6.40703 6.54594 6.87366V7.11366L7.83928 5.1937C7.97262 4.98703 8.31258 4.84036 8.5993 4.9537C8.91258 5.06036 9.11258 5.40703 9.04594 5.7137L8.88594 6.75366C8.87258 6.847 8.89258 6.93366 8.95258 7.00033C9.00594 7.06033 9.08594 7.10033 9.17258 7.10033H10.4726C10.7259 7.10033 10.9393 7.20033 11.0659 7.38033C11.1793 7.55367 11.1993 7.77366 11.1193 8.00033Z" fill="white"/>
</svg>
