<svg width="16" height="16" viewBox="0 0 16 16" fill="none" xmlns="http://www.w3.org/2000/svg">
<path d="M8.76735 10.2472C8.62063 10.0339 8.36063 9.91388 8.06063 9.91388H6.50732C6.40732 9.91388 6.30732 9.87388 6.24732 9.79388C6.18066 9.71388 6.15398 9.61388 6.16732 9.5006L6.36066 8.2606C6.44066 7.8939 6.19398 7.4739 5.82732 7.34724C5.48066 7.22057 5.08066 7.3939 4.91398 7.64057L3.37398 9.93388V9.64724C3.37398 9.08724 3.13398 8.8606 2.54732 8.8606H2.16066C1.57398 8.86724 1.33398 9.09388 1.33398 9.65388V13.4606C1.33398 14.0206 1.57398 14.2472 2.16066 14.2472H2.54732C3.10732 14.2472 3.34066 14.0272 3.36066 13.5206L4.52732 14.4206C4.69398 14.5806 5.04732 14.6672 5.30066 14.6672H6.77398C7.28066 14.6672 7.78732 14.2872 7.90732 13.8206L8.84063 10.9872C8.94063 10.7139 8.91399 10.4539 8.76735 10.2472Z" fill="white"/>
<path d="M14.0725 1.74031H13.6859C13.1259 1.74031 12.8925 1.96031 12.8659 2.46698L11.6992 1.56698C11.5392 1.40698 11.1792 1.32031 10.9259 1.32031H9.4525C8.94586 1.32031 8.43922 1.70031 8.31922 2.16698L7.38587 5.00031C7.28587 5.27365 7.3192 5.53365 7.4592 5.74031C7.60587 5.95365 7.86587 6.07365 8.16586 6.07365H9.71922C9.81922 6.07365 9.91922 6.11365 9.97922 6.19365C10.0459 6.27365 10.0725 6.37365 10.0592 6.48698L9.86586 7.727C9.78586 8.09364 10.0325 8.51364 10.3992 8.64036C10.7459 8.767 11.1459 8.59364 11.3125 8.347L12.8525 6.05365V6.34031C12.8525 6.90034 13.0925 7.127 13.6792 7.127H14.0659C14.6525 7.127 14.8925 6.90034 14.8925 6.34031V2.52031C14.8992 1.96698 14.6592 1.74031 14.0725 1.74031Z" fill="white"/>
</svg>
