<svg width="16" height="16" viewBox="0 0 16 16" fill="none" xmlns="http://www.w3.org/2000/svg">
<path d="M5.59375 12.3245V5.5512C5.59375 5.28453 5.67375 5.02453 5.82041 4.80453L7.64038 2.09787C7.92705 1.66453 8.64038 1.35787 9.24702 1.58453C9.90038 1.80453 10.3337 2.53787 10.1937 3.1912L9.84702 5.3712C9.82038 5.5712 9.87374 5.7512 9.98702 5.8912C10.1004 6.01787 10.267 6.09787 10.447 6.09787H13.187C13.7137 6.09787 14.167 6.3112 14.4337 6.68452C14.687 7.04452 14.7337 7.5112 14.567 7.98452L12.927 12.9779C12.7204 13.8045 11.8204 14.4779 10.927 14.4779H8.32702C7.88038 14.4779 7.25372 14.3245 6.96705 14.0379L6.11375 13.3779C5.78709 13.1312 5.59375 12.7379 5.59375 12.3245Z" fill="white"/>
<path d="M3.47398 4.25391H2.78732C1.75398 4.25391 1.33398 4.65391 1.33398 5.64057V12.3473C1.33398 13.3339 1.75398 13.7339 2.78732 13.7339H3.47398C4.50732 13.7339 4.92732 13.3339 4.92732 12.3473V5.64057C4.92732 4.65391 4.50732 4.25391 3.47398 4.25391Z" fill="white"/>
</svg>
