<svg width="16" height="16" viewBox="0 0 16 16" fill="none" xmlns="http://www.w3.org/2000/svg">
<path d="M8.00063 1.33594C4.32066 1.33594 1.33398 4.3226 1.33398 8.0026C1.33398 11.6826 4.32066 14.6692 8.00063 14.6692C11.6806 14.6692 14.6674 11.6826 14.6674 8.0026C14.6674 4.3226 11.6806 1.33594 8.00063 1.33594ZM5.76732 9.84924C5.69398 10.0492 5.50066 10.176 5.30066 10.176C5.24066 10.176 5.18732 10.1692 5.12732 10.1426C4.58732 9.9426 4.13398 9.54924 3.84732 9.03596C3.18066 7.83594 3.59398 6.26927 4.76066 5.5426L6.32065 4.57594C6.89398 4.2226 7.56732 4.11594 8.20735 4.2826C8.84735 4.44927 9.38735 4.86927 9.71399 5.45594C10.3806 6.65594 9.96735 8.2226 8.80063 8.94924L8.62735 9.07596C8.40063 9.23596 8.08735 9.1826 7.92732 8.9626C7.76732 8.73596 7.82066 8.4226 8.04063 8.2626L8.24735 8.11596C8.99399 7.64927 9.24735 6.6826 8.84063 5.9426C8.64735 5.59594 8.33399 5.34927 7.96065 5.24927C7.58732 5.14927 7.19398 5.20927 6.85398 5.4226L5.28066 6.39594C4.56066 6.8426 4.30732 7.80927 4.71398 8.55596C4.88066 8.85596 5.14732 9.08924 5.46732 9.20924C5.72732 9.3026 5.86066 9.58924 5.76732 9.84924ZM11.2806 10.436L9.72063 11.4026C9.32735 11.6492 8.88735 11.7692 8.44063 11.7692C8.24063 11.7692 8.03399 11.7426 7.83398 11.6892C7.19398 11.5226 6.65398 11.1026 6.33398 10.516C5.66732 9.31596 6.08066 7.74927 7.24732 7.0226L7.42066 6.89594C7.64732 6.73594 7.96066 6.78927 8.12063 7.00927C8.28063 7.23594 8.22735 7.54927 8.00735 7.70927L7.80066 7.85594C7.05398 8.3226 6.80066 9.28924 7.20732 10.0292C7.40066 10.376 7.71398 10.6226 8.08735 10.7226C8.46063 10.8226 8.85399 10.7626 9.19399 10.5492L10.754 9.5826C11.474 9.13596 11.7274 8.16924 11.3206 7.4226C11.154 7.1226 10.8874 6.88927 10.5674 6.76927C10.3074 6.67594 10.174 6.38927 10.274 6.12927C10.3674 5.86927 10.6606 5.73594 10.914 5.83594C11.454 6.03594 11.9074 6.42927 12.194 6.9426C12.854 8.1426 12.4474 9.70924 11.2806 10.436Z" fill="white"/>
</svg>
