<svg width="16" height="16" viewBox="0 0 16 16" fill="none" xmlns="http://www.w3.org/2000/svg">
<path d="M10.794 1.33594H5.20732C2.78066 1.33594 1.33398 2.7826 1.33398 5.20927V10.7892C1.33398 13.2226 2.78066 14.6692 5.20732 14.6692H10.7874C13.214 14.6692 14.6606 13.2226 14.6606 10.796V5.20927C14.6674 2.7826 13.2206 1.33594 10.794 1.33594ZM5.45398 11.1826C5.44066 11.1826 5.42066 11.1826 5.40732 11.1826C4.76066 11.1226 4.15398 10.8226 3.70066 10.3426C2.63398 9.2226 2.63398 7.4026 3.70066 6.2826L5.16066 4.74927C5.68066 4.2026 6.38066 3.89594 7.12732 3.89594C7.87398 3.89594 8.57399 4.19594 9.09399 4.74927C10.1606 5.86927 10.1606 7.68927 9.09399 8.80924L8.36735 9.57596C8.17399 9.77596 7.86066 9.7826 7.66066 9.59596C7.46066 9.4026 7.45398 9.08924 7.64066 8.88924L8.36735 8.1226C9.07399 7.3826 9.07399 6.17594 8.36735 5.4426C7.70732 4.74927 6.54732 4.74927 5.88066 5.4426L4.42066 6.97594C3.71398 7.71594 3.71398 8.9226 4.42066 9.65596C4.70732 9.9626 5.09398 10.1492 5.50066 10.1892C5.77398 10.216 5.97398 10.4626 5.94732 10.736C5.92732 10.9892 5.70732 11.1826 5.45398 11.1826ZM12.3006 9.72924L10.8406 11.2626C10.3206 11.8092 9.62063 12.116 8.87399 12.116C8.12735 12.116 7.42732 11.816 6.90732 11.2626C5.84066 10.1426 5.84066 8.3226 6.90732 7.2026L7.63398 6.43594C7.82732 6.23594 8.14063 6.22927 8.34063 6.41594C8.54063 6.60927 8.54735 6.9226 8.36063 7.1226L7.63398 7.88927C6.92732 8.62924 6.92732 9.83596 7.63398 10.5692C8.29399 11.2626 9.45399 11.2692 10.1206 10.5692L11.5806 9.03596C12.2874 8.29596 12.2874 7.08927 11.5806 6.35594C11.294 6.04927 10.9074 5.8626 10.5006 5.8226C10.2274 5.79594 10.0274 5.54927 10.054 5.27594C10.0806 5.0026 10.3206 4.79594 10.6006 4.82927C11.2474 4.89594 11.854 5.18927 12.3074 5.66927C13.3674 6.7826 13.3674 8.60924 12.3006 9.72924Z" fill="white"/>
</svg>
