<svg width="16" height="16" viewBox="0 0 16 16" fill="none" xmlns="http://www.w3.org/2000/svg">
<path d="M10.2734 12.3933C10.0067 12.3933 9.78672 12.1733 9.78672 11.9066C9.78672 11.6399 10.0067 11.4199 10.2734 11.4199C12.1534 11.4199 13.6867 9.88663 13.6867 8.00663C13.6867 6.12662 12.1534 4.59329 10.2734 4.59329C8.39336 4.59329 6.86006 6.12662 6.86006 8.00663C6.86006 8.27327 6.64005 8.49326 6.37338 8.49326C6.10672 8.49326 5.88672 8.27327 5.88672 8.00663C5.88672 5.58662 7.8534 3.61328 10.2801 3.61328C12.7067 3.61328 14.6667 5.57995 14.6667 7.99994C14.6667 10.4199 12.7001 12.3933 10.2734 12.3933Z" fill="white"/>
<path d="M5.72732 3.60547C5.99398 3.60547 6.21398 3.82547 6.21398 4.09214C6.21398 4.3588 5.99398 4.5788 5.72732 4.5788C3.84732 4.5788 2.31398 6.11214 2.31398 7.99217C2.31398 9.87218 3.84732 11.4055 5.72732 11.4055C7.60732 11.4055 9.14063 9.87218 9.14063 7.99217C9.14063 7.7255 9.36063 7.5055 9.62735 7.5055C9.89399 7.5055 10.114 7.7255 10.114 7.99217C10.114 10.4122 8.14735 12.3855 5.72066 12.3855C3.29398 12.3855 1.33398 10.4188 1.33398 7.99883C1.33398 5.5788 3.30066 3.60547 5.72732 3.60547Z" fill="white"/>
</svg>
