<svg width="16" height="16" viewBox="0 0 16 16" fill="none" xmlns="http://www.w3.org/2000/svg">
<path d="M4.83261 8.0026C4.83261 7.72927 5.05928 7.5026 5.33261 7.5026H7.33262V5.0026C7.33262 4.63594 7.03262 4.33594 6.66595 4.33594H5.17928C3.07928 4.33594 1.25261 6.05594 1.33261 8.14924C1.37261 9.1026 1.77261 9.9626 2.40595 10.596C3.07261 11.256 3.98595 11.6692 4.99928 11.6692H6.66595C7.03262 11.6692 7.33262 11.3692 7.33262 11.0026V8.5026H5.33261C5.05928 8.5026 4.83261 8.27596 4.83261 8.0026Z" fill="white"/>
<path d="M13.5927 5.40927C12.926 4.74927 12.0127 4.33594 10.9994 4.33594H9.33266C8.96602 4.33594 8.66602 4.63594 8.66602 5.0026V7.5026H10.666C10.9394 7.5026 11.166 7.72927 11.166 8.0026C11.166 8.27596 10.9394 8.5026 10.666 8.5026H8.66602V11.0026C8.66602 11.3692 8.96602 11.6692 9.33266 11.6692H10.8194C12.9194 11.6692 14.746 9.94924 14.6594 7.85594C14.626 6.9026 14.2194 6.0426 13.5927 5.40927Z" fill="white"/>
<path d="M8.66735 7.5H7.33398V8.5H8.66735V7.5Z" fill="white"/>
</svg>
