<svg width="16" height="16" viewBox="0 0 16 16" fill="none" xmlns="http://www.w3.org/2000/svg">
<path d="M12.7135 9.4931C12.5202 9.68638 12.2135 9.68638 12.0269 9.4931C11.8335 9.29974 11.8335 8.9931 12.0269 8.80638C13.3602 7.47307 13.3602 5.3064 12.0269 3.97974C10.6935 2.65308 8.52687 2.6464 7.2002 3.97974C5.87352 5.31308 5.86685 7.47973 7.2002 8.80638C7.39353 8.99974 7.39353 9.30638 7.2002 9.4931C7.00687 9.68638 6.7002 9.68638 6.51352 9.4931C4.80018 7.77973 4.80018 4.99308 6.51352 3.2864C8.22687 1.57974 11.0135 1.57308 12.7202 3.2864C14.4269 4.99974 14.4269 7.77973 12.7135 9.4931Z" fill="white"/>
<path d="M3.28584 6.50828C3.47917 6.31495 3.78584 6.31495 3.9725 6.50828C4.16584 6.70164 4.16584 7.0083 3.9725 7.19496C2.63917 8.5283 2.63917 10.6949 3.9725 12.0217C5.30584 13.3483 7.47248 13.3549 8.79914 12.0217C10.1258 10.6883 10.1325 8.52166 8.79914 7.19496C8.60578 7.00164 8.60578 6.69496 8.79914 6.50828C8.9925 6.31495 9.29914 6.31495 9.48578 6.50828C11.1991 8.22166 11.1991 11.0083 9.48578 12.7149C7.77248 14.4217 4.98584 14.4283 3.27917 12.7149C1.5725 11.0017 1.5725 8.22166 3.28584 6.50828Z" fill="white"/>
</svg>
