<svg width="16" height="16" viewBox="0 0 16 16" fill="none" xmlns="http://www.w3.org/2000/svg">
<path d="M9.78537 3.38734C10.5664 2.6063 11.8328 2.6063 12.6138 3.38734C13.3949 4.16839 13.3949 5.43473 12.6138 6.21578L11.6343 7.19524C11.4 7.42955 11.4 7.80946 11.6343 8.0438C11.8686 8.27812 12.2486 8.27812 12.4829 8.0438L13.4623 7.0643C14.712 5.81462 14.712 3.7885 13.4623 2.53882C12.2126 1.28914 10.1866 1.28914 8.93689 2.53882L6.53686 4.93882C5.28719 6.1885 5.28719 8.2146 6.53686 9.46428C6.5952 9.5226 6.65531 9.57828 6.71705 9.63132C6.96846 9.84716 7.34726 9.81836 7.56314 9.56692C7.779 9.31556 7.75018 8.93676 7.49877 8.72084C7.46006 8.68764 7.42223 8.6526 7.38539 8.6158C6.60434 7.83472 6.60434 6.56839 7.38539 5.78734L9.78537 3.38734Z" fill="#0F172A"/>
<path d="M9.28217 6.37135C9.03073 6.15548 8.65193 6.1843 8.43609 6.43572C8.22025 6.68712 8.24905 7.06593 8.50041 7.2818C8.53913 7.31504 8.57697 7.35007 8.61385 7.3869C9.39489 8.16792 9.39489 9.43424 8.61385 10.2154L6.21382 12.6154C5.43278 13.3964 4.16644 13.3964 3.38539 12.6154C2.60434 11.8342 2.60434 10.5679 3.38539 9.78688L4.36486 8.80744C4.59918 8.57312 4.59918 8.1932 4.36486 7.95891C4.13054 7.72459 3.75065 7.72459 3.51633 7.95891L2.53686 8.9384C1.28719 10.1881 1.28719 12.2142 2.53686 13.4638C3.78654 14.7135 5.81267 14.7135 7.06235 13.4638L9.46233 11.0638C10.712 9.81416 10.712 7.78805 9.46233 6.53837C9.40401 6.48004 9.34393 6.42436 9.28217 6.37135Z" fill="#0F172A"/>
</svg>
