<svg width="16" height="16" viewBox="0 0 16 16" fill="none" xmlns="http://www.w3.org/2000/svg">
<path fill-rule="evenodd" clip-rule="evenodd" d="M4.80078 3.79922C4.80078 3.46785 5.06941 3.19922 5.40078 3.19922H13.8008C14.1321 3.19922 14.4008 3.46785 14.4008 3.79922C14.4008 4.13059 14.1321 4.39922 13.8008 4.39922H5.40078C5.06941 4.39922 4.80078 4.13059 4.80078 3.79922ZM4.80078 7.99922C4.80078 7.66785 5.06941 7.39922 5.40078 7.39922H13.8008C14.1321 7.39922 14.4008 7.66785 14.4008 7.99922C14.4008 8.33058 14.1321 8.59922 13.8008 8.59922H5.40078C5.06941 8.59922 4.80078 8.33058 4.80078 7.99922ZM4.80078 12.1992C4.80078 11.8679 5.06941 11.5992 5.40078 11.5992H13.8008C14.1321 11.5992 14.4008 11.8679 14.4008 12.1992C14.4008 12.5306 14.1321 12.7992 13.8008 12.7992H5.40078C5.06941 12.7992 4.80078 12.5306 4.80078 12.1992Z" fill="#0F172A"/>
<path fill-rule="evenodd" clip-rule="evenodd" d="M1.5918 3.8C1.5918 3.35818 1.94997 3 2.3918 3H2.3998C2.84163 3 3.1998 3.35818 3.1998 3.8V3.808C3.1998 4.24982 2.84163 4.608 2.3998 4.608H2.3918C1.94997 4.608 1.5918 4.24982 1.5918 3.808V3.8Z" fill="#0F172A"/>
<path fill-rule="evenodd" clip-rule="evenodd" d="M1.5918 12.1984C1.5918 11.7566 1.94997 11.3984 2.3918 11.3984H2.3998C2.84163 11.3984 3.1998 11.7566 3.1998 12.1984V12.2064C3.1998 12.6483 2.84163 13.0064 2.3998 13.0064H2.3918C1.94997 13.0064 1.5918 12.6483 1.5918 12.2064V12.1984Z" fill="#0F172A"/>
<path fill-rule="evenodd" clip-rule="evenodd" d="M1.5918 7.99922C1.5918 7.55739 1.94997 7.19922 2.3918 7.19922H2.3998C2.84163 7.19922 3.1998 7.55739 3.1998 7.99922V8.00722C3.1998 8.44906 2.84163 8.80722 2.3998 8.80722H2.3918C1.94997 8.80722 1.5918 8.44906 1.5918 8.00722V7.99922Z" fill="#0F172A"/>
</svg>
