<svg width="16" height="16" viewBox="0 0 16 16" fill="none" xmlns="http://www.w3.org/2000/svg">
<path d="M8.00063 1.33594C4.32066 1.33594 1.33398 4.3226 1.33398 8.0026C1.33398 11.6826 4.32066 14.6692 8.00063 14.6692C11.6806 14.6692 14.6674 11.6826 14.6674 8.0026C14.6674 4.3226 11.6806 1.33594 8.00063 1.33594ZM10.5474 10.8826C10.4874 11.2026 10.214 11.4292 9.89399 11.4292H6.20065C5.76065 11.4292 5.44066 11.0026 5.56066 10.5826L6.12065 8.61596L4.98066 8.8426C4.94732 8.84924 4.91399 8.84924 4.88066 8.84924C4.64733 8.84924 4.44066 8.6826 4.39398 8.44924C4.34066 8.17596 4.51398 7.91594 4.78731 7.8626L6.43398 7.53594L7.30732 4.48927C7.34732 4.34927 7.48065 4.24927 7.62732 4.24927H8.53399C8.97399 4.24927 9.29399 4.6626 9.18063 5.08927L8.64063 7.09594L9.92735 6.83594C10.194 6.7826 10.4606 6.95594 10.514 7.22927C10.5674 7.5026 10.394 7.7626 10.1206 7.81594L8.34735 8.16924L7.98066 9.53596H10.0006C10.414 9.53596 10.7274 9.90924 10.654 10.3226L10.5474 10.8826Z" fill="white"/>
</svg>
