<svg width="16" height="16" viewBox="0 0 16 16" fill="none" xmlns="http://www.w3.org/2000/svg">
<path d="M13.7467 5.63073C13.0467 2.55073 10.3601 1.16406 8.00009 1.16406C8.00009 1.16406 8.00009 1.16406 7.99339 1.16406C5.64007 1.16406 2.94673 2.54406 2.24673 5.62406C1.46673 9.06404 3.57339 11.9774 5.48007 13.8108C6.18673 14.4908 7.09339 14.8308 8.00009 14.8308C8.90673 14.8308 9.81337 14.4908 10.5134 13.8108C12.4201 11.9774 14.5267 9.07076 13.7467 5.63073ZM8.00009 8.97076C6.84007 8.97076 5.90007 8.03076 5.90007 6.87073C5.90007 5.71073 6.84007 4.77073 8.00009 4.77073C9.16009 4.77073 10.1001 5.71073 10.1001 6.87073C10.1001 8.03076 9.16009 8.97076 8.00009 8.97076Z" fill="white"/>
</svg>
