<svg width="16" height="16" viewBox="0 0 16 16" fill="none" xmlns="http://www.w3.org/2000/svg">
<path d="M13.7465 5.8026C13.0532 2.71594 10.3598 1.33594 7.99987 1.33594C7.99987 1.33594 7.9998 1.33594 7.99313 1.33594C5.63983 1.33594 2.95317 2.71594 2.25317 5.79594C1.4665 9.23596 3.57317 12.1492 5.47983 13.9892C6.1865 14.6692 7.0932 15.0092 7.99987 15.0092C8.90655 15.0092 9.81319 14.6692 10.5132 13.9892C12.4198 12.1492 14.5265 9.2426 13.7465 5.8026ZM9.68647 8.99596C9.58647 9.09596 9.45983 9.1426 9.33319 9.1426C9.20655 9.1426 9.07983 9.09596 8.97983 8.99596L8.01319 8.02924L7.0198 9.0226C6.9198 9.1226 6.7932 9.16924 6.6665 9.16924C6.53983 9.16924 6.41317 9.1226 6.31317 9.0226C6.11983 8.82924 6.11983 8.50924 6.31317 8.31596L7.30653 7.3226L6.33983 6.35594C6.1465 6.1626 6.1465 5.8426 6.33983 5.64927C6.53317 5.45594 6.85313 5.45594 7.04647 5.64927L8.01319 6.61594L8.94655 5.6826C9.13983 5.48927 9.45983 5.48927 9.65311 5.6826C9.84647 5.87594 9.84647 6.19594 9.65311 6.38927L8.71983 7.3226L9.68647 8.28924C9.87983 8.4826 9.87983 8.79596 9.68647 8.99596Z" fill="white"/>
</svg>
