<svg width="16" height="16" viewBox="0 0 16 16" fill="none" xmlns="http://www.w3.org/2000/svg">
<path d="M10.5198 13.9873C9.81305 14.6673 8.90641 15.0073 7.99977 15.0073C7.09306 15.0073 6.18643 14.6606 5.47977 13.9806C5.23977 13.7539 4.99977 13.5006 4.75977 13.2406L13.3598 4.64062C13.5264 5.00062 13.653 5.38063 13.7464 5.80063C14.5264 9.24056 12.4198 12.1473 10.5198 13.9873Z" fill="white"/>
<path d="M14.5126 1.48594C14.3126 1.28594 13.9859 1.28594 13.7859 1.48594L1.48594 13.7926C1.28594 13.9926 1.28594 14.3193 1.48594 14.5193C1.58594 14.6126 1.7126 14.666 1.84594 14.666C1.97927 14.666 2.10594 14.6126 2.20594 14.5126L14.5126 2.20594C14.7193 2.00594 14.7193 1.68594 14.5126 1.48594Z" fill="white"/>
<path d="M5.89976 6.87594C5.89976 5.71594 6.83973 4.77594 7.99977 4.77594C8.87305 4.77594 9.61977 5.30927 9.93977 6.06927L12.5931 3.41594C11.4131 1.98927 9.62641 1.33594 7.99977 1.33594C6.81973 1.33594 5.55976 1.6826 4.50642 2.40927C3.45308 3.1426 2.59976 4.25594 2.25308 5.79594C1.69308 8.2426 2.59976 10.4292 3.85976 12.1426L7.19307 8.80924C6.43308 8.49596 5.89976 7.7426 5.89976 6.87594Z" fill="white"/>
</svg>
