<svg width="16" height="16" viewBox="0 0 16 16" fill="none" xmlns="http://www.w3.org/2000/svg">
<path d="M8 5.16406C6.74 5.16406 6.5 5.69073 6.5 6.66406V7.0774H9.5V6.66406C9.5 5.69073 9.26 5.16406 8 5.16406Z" fill="white"/>
<path d="M8.00095 10.0682C8.40591 10.0682 8.73423 9.73988 8.73423 9.33492C8.73423 8.92988 8.40591 8.60156 8.00095 8.60156C7.59591 8.60156 7.26758 8.92988 7.26758 9.33492C7.26758 9.73988 7.59591 10.0682 8.00095 10.0682Z" fill="white"/>
<path d="M8.00063 1.33594C4.32066 1.33594 1.33398 4.3226 1.33398 8.0026C1.33398 11.6826 4.32066 14.6692 8.00063 14.6692C11.6806 14.6692 14.6674 11.6826 14.6674 8.0026C14.6674 4.3226 11.6806 1.33594 8.00063 1.33594ZM11.5874 9.66924C11.5874 11.136 11.134 11.5892 9.66735 11.5892H6.33398C4.86732 11.5892 4.41398 11.136 4.41398 9.66924V9.0026C4.41398 7.8626 4.68732 7.33594 5.50066 7.15594V6.66927C5.50066 6.04927 5.50066 4.16927 8.00063 4.16927C10.5006 4.16927 10.5006 6.04927 10.5006 6.66927V7.15594C11.314 7.33594 11.5874 7.8626 11.5874 9.0026V9.66924Z" fill="white"/>
</svg>
