<svg width="16" height="16" viewBox="0 0 16 16" fill="none" xmlns="http://www.w3.org/2000/svg">
<g clip-path="url(#clip0_13_14420)">
<path fill-rule="evenodd" clip-rule="evenodd" d="M11.6008 0.800781C9.61254 0.800781 8.00078 2.41256 8.00078 4.40078V7.20078H2.40078C1.51713 7.20078 0.800781 7.91713 0.800781 8.80078V13.6008C0.800781 14.4845 1.51713 15.2008 2.40078 15.2008H10.4008C11.2845 15.2008 12.0008 14.4845 12.0008 13.6008V8.80078C12.0008 7.91713 11.2845 7.20078 10.4008 7.20078H9.20078V4.40078C9.20078 3.0753 10.2753 2.00078 11.6008 2.00078C12.9263 2.00078 14.0008 3.0753 14.0008 4.40078V6.60078C14.0008 6.93215 14.2694 7.20078 14.6008 7.20078C14.9321 7.20078 15.2008 6.93215 15.2008 6.60078V4.40078C15.2008 2.41256 13.589 0.800781 11.6008 0.800781Z" fill="#0F172A"/>
</g>
<defs>
<clipPath id="clip0_13_14420">
<rect width="16" height="16" fill="white"/>
</clipPath>
</defs>
</svg>
