<svg width="16" height="16" viewBox="0 0 16 16" fill="none" xmlns="http://www.w3.org/2000/svg">
<path fill-rule="evenodd" clip-rule="evenodd" d="M8.00039 0.800781C6.01217 0.800781 4.40039 2.41256 4.40039 4.40078V7.20078H4.00039C3.11673 7.20078 2.40039 7.91713 2.40039 8.80078V13.6008C2.40039 14.4845 3.11673 15.2008 4.00039 15.2008H12.0004C12.8841 15.2008 13.6004 14.4845 13.6004 13.6008V8.80078C13.6004 7.91713 12.8841 7.20078 12.0004 7.20078H11.6004V4.40078C11.6004 2.41256 9.98863 0.800781 8.00039 0.800781ZM10.4004 7.20078V4.40078C10.4004 3.0753 9.32591 2.00078 8.00039 2.00078C6.67491 2.00078 5.60039 3.0753 5.60039 4.40078V7.20078H10.4004Z" fill="#0F172A"/>
</svg>
