<svg width="16" height="16" viewBox="0 0 16 16" fill="none" xmlns="http://www.w3.org/2000/svg">
<path d="M8.00073 11.5679C8.60086 11.5679 9.08742 11.0814 9.08742 10.4812C9.08742 9.88109 8.60086 9.39453 8.00073 9.39453C7.4006 9.39453 6.91406 9.88109 6.91406 10.4812C6.91406 11.0814 7.4006 11.5679 8.00073 11.5679Z" fill="white"/>
<path d="M12.1874 6.35594V5.5226C12.1874 3.7226 11.754 1.33594 8.00063 1.33594C4.24732 1.33594 3.81398 3.7226 3.81398 5.5226V6.35594C1.94732 6.58927 1.33398 7.53594 1.33398 9.8626V11.1026C1.33398 13.836 2.16732 14.6692 4.90066 14.6692H11.1006C13.834 14.6692 14.6674 13.836 14.6674 11.1026V9.8626C14.6674 7.53594 14.054 6.58927 12.1874 6.35594ZM8.00063 12.496C6.88732 12.496 5.98732 11.5892 5.98732 10.4826C5.98732 9.36924 6.89398 8.46924 8.00063 8.46924C9.10735 8.46924 10.014 9.37596 10.014 10.4826C10.014 11.596 9.11399 12.496 8.00063 12.496ZM4.90066 6.29594C4.84732 6.29594 4.80066 6.29594 4.74732 6.29594V5.5226C4.74732 3.56927 5.30066 2.26927 8.00063 2.26927C10.7006 2.26927 11.254 3.56927 11.254 5.5226V6.3026C11.2006 6.3026 11.154 6.3026 11.1006 6.3026H4.90066V6.29594Z" fill="white"/>
</svg>
