<svg width="16" height="16" viewBox="0 0 16 16" fill="none" xmlns="http://www.w3.org/2000/svg">
<path d="M9.08655 10.4784C9.08655 11.0784 8.59983 11.5651 7.99987 11.5651C7.5732 11.5651 7.20653 11.3184 7.0332 10.9651L8.48655 9.51172C8.83983 9.68508 9.08655 10.0517 9.08655 10.4784Z" fill="white"/>
<path d="M14.5134 1.48927C14.3134 1.28927 13.9867 1.28927 13.7867 1.48927L11.9134 3.3626C11.4001 2.01594 10.0867 1.33594 8.00009 1.33594C4.24674 1.33594 3.81341 3.7226 3.81341 5.5226V6.35594C3.82008 6.35594 3.82674 6.35594 3.83341 6.35594C1.94674 6.5826 1.33341 7.5226 1.33341 9.8626V11.1026C1.33341 12.1692 1.46008 12.9426 1.78008 13.496L1.48008 13.796C1.28008 13.996 1.28008 14.3226 1.48008 14.5226C1.58674 14.616 1.71341 14.6692 1.84674 14.6692C1.98008 14.6692 2.10674 14.616 2.20674 14.516L14.5134 2.20927C14.7201 2.00927 14.7201 1.68927 14.5134 1.48927ZM4.90008 6.29594C4.84674 6.29594 4.80008 6.29594 4.74674 6.29594V5.5226C4.74674 3.56927 5.30008 2.26927 8.00009 2.26927C10.2667 2.26927 10.9801 3.13594 11.1801 4.1026L8.98673 6.29594H4.90008Z" fill="white"/>
<path d="M14.6664 9.8607V11.1007C14.6664 13.834 13.833 14.6673 11.0998 14.6673H4.93971C4.34638 14.6673 4.05304 13.9473 4.47304 13.5273L6.35304 11.6473C6.39971 11.714 6.45304 11.774 6.50638 11.834C6.97307 12.3407 7.6664 12.6073 8.43303 12.4473C8.49303 12.434 8.55303 12.4207 8.61303 12.394C8.67303 12.3807 8.72639 12.3607 8.77975 12.334C8.91303 12.2873 9.03975 12.214 9.15975 12.1273C9.20639 12.1007 9.24639 12.0673 9.27975 12.034C9.37975 11.954 9.47303 11.8607 9.55303 11.7607C9.58639 11.7273 9.61975 11.6873 9.64639 11.6407C9.73303 11.5207 9.80639 11.394 9.85303 11.2607C9.87975 11.2073 9.89975 11.154 9.91303 11.094C9.93975 11.034 9.95303 10.974 9.96639 10.914C10.1264 10.1473 9.85975 9.45398 9.35303 8.98734C9.29975 8.93398 9.23303 8.8807 9.16639 8.83398L11.2464 6.754C11.2798 6.72067 11.3064 6.694 11.3398 6.66733C11.6064 6.4473 11.9464 6.34064 12.2864 6.3673C12.3464 6.37396 12.413 6.38064 12.473 6.39396C12.5864 6.41396 12.6998 6.44064 12.8064 6.4673C12.913 6.49396 13.013 6.5273 13.113 6.56064C13.3064 6.63396 13.473 6.72067 13.6264 6.82067C13.7798 6.92067 13.9064 7.04067 14.0264 7.18067C14.0864 7.254 14.1464 7.334 14.193 7.42067C14.2398 7.494 14.2798 7.574 14.3198 7.66067C14.3598 7.74733 14.393 7.84067 14.4264 7.934C14.4664 8.04734 14.4998 8.17398 14.5264 8.30734C14.553 8.4007 14.5664 8.5007 14.5864 8.60734C14.5998 8.70734 14.613 8.81398 14.6264 8.92734C14.653 9.20734 14.6664 9.5207 14.6664 9.8607Z" fill="white"/>
</svg>
