<svg width="16" height="16" viewBox="0 0 16 16" fill="none" xmlns="http://www.w3.org/2000/svg">
<path d="M12.5 5.33594V6.73594C12.2066 6.69594 11.8734 6.67594 11.5 6.66927V5.33594C11.5 3.23594 10.9066 1.83594 8 1.83594C5.09334 1.83594 4.5 3.23594 4.5 5.33594V6.66927C4.12666 6.67594 3.79334 6.69594 3.5 6.73594V5.33594C3.5 3.4026 3.96666 0.835938 8 0.835938C12.0334 0.835938 12.5 3.4026 12.5 5.33594Z" fill="white"/>
<path d="M12.5006 6.73073C12.2074 6.69073 11.874 6.67073 11.5006 6.66406H4.50066C4.12732 6.67073 3.79398 6.69073 3.50066 6.73073C1.80066 6.9374 1.33398 7.77073 1.33398 9.9974V11.3308C1.33398 13.9974 2.00066 14.664 4.66732 14.664H11.334C14.0006 14.664 14.6674 13.9974 14.6674 11.3308V9.9974C14.6674 7.77073 14.2006 6.9374 12.5006 6.73073ZM5.80732 11.1374C5.68066 11.2574 5.50732 11.3308 5.33398 11.3308C5.24732 11.3308 5.16066 11.3108 5.08066 11.2774C4.99398 11.244 4.92732 11.1974 4.86066 11.1374C4.74066 11.0108 4.66732 10.8374 4.66732 10.664C4.66732 10.5774 4.68732 10.4908 4.72066 10.4108C4.75398 10.3308 4.80066 10.2574 4.86066 10.1908C4.92732 10.1308 4.99398 10.084 5.08066 10.0508C5.32732 9.94404 5.62066 10.004 5.80732 10.1908C5.86732 10.2574 5.91398 10.3308 5.94732 10.4108C5.98066 10.4908 6.00066 10.5774 6.00066 10.664C6.00066 10.8374 5.92732 11.0108 5.80732 11.1374ZM8.61399 10.9174C8.58063 10.9974 8.53399 11.0708 8.47399 11.1374C8.34735 11.2574 8.17399 11.3308 8.00063 11.3308C7.82066 11.3308 7.65398 11.2574 7.52732 11.1374C7.46732 11.0708 7.42066 10.9974 7.38732 10.9174C7.35398 10.8374 7.33398 10.7508 7.33398 10.664C7.33398 10.484 7.40732 10.3174 7.52732 10.1908C7.77398 9.94404 8.22063 9.94404 8.47399 10.1908C8.59399 10.3174 8.66735 10.484 8.66735 10.664C8.66735 10.7508 8.64735 10.8374 8.61399 10.9174ZM11.1406 11.1374C11.014 11.2574 10.8406 11.3308 10.6674 11.3308C10.494 11.3308 10.3206 11.2574 10.194 11.1374C10.074 11.0108 10.0006 10.844 10.0006 10.664C10.0006 10.484 10.074 10.3174 10.194 10.1908C10.4474 9.94404 10.894 9.94404 11.1406 10.1908C11.1674 10.224 11.194 10.2574 11.2206 10.2974C11.2474 10.3308 11.2674 10.3708 11.2806 10.4108C11.3006 10.4508 11.314 10.4908 11.3206 10.5308C11.3274 10.5774 11.334 10.624 11.334 10.664C11.334 10.8374 11.2606 11.0108 11.1406 11.1374Z" fill="white"/>
</svg>
