<svg width="16" height="16" viewBox="0 0 16 16" fill="none" xmlns="http://www.w3.org/2000/svg">
<path d="M11.2 1.33594H9.46664C7.33334 1.33594 6 2.66927 6 4.8026V7.5026H8.96L7.58 6.1226C7.48 6.0226 7.43334 5.89594 7.43334 5.76927C7.43334 5.6426 7.48 5.51594 7.58 5.41594C7.77334 5.2226 8.09336 5.2226 8.28664 5.41594L10.52 7.64927C10.7134 7.8426 10.7134 8.1626 10.52 8.35596L8.28664 10.5892C8.09336 10.7826 7.77334 10.7826 7.58 10.5892C7.38666 10.396 7.38666 10.076 7.58 9.8826L8.96 8.5026H6V11.2026C6 13.336 7.33334 14.6692 9.46664 14.6692H11.1934C13.3266 14.6692 14.66 13.336 14.66 11.2026V4.8026C14.6666 2.66927 13.3334 1.33594 11.2 1.33594Z" fill="white"/>
<path d="M1.83398 7.5C1.56066 7.5 1.33398 7.72666 1.33398 8C1.33398 8.27336 1.56066 8.5 1.83398 8.5H6.00066V7.5H1.83398Z" fill="white"/>
</svg>
