<svg width="16" height="16" viewBox="0 0 16 16" fill="none" xmlns="http://www.w3.org/2000/svg">
<path d="M7.17295 1.33594C6.85295 1.33594 6.59961 1.58927 6.59961 1.90927V7.54927H9.04625L7.99961 6.5026C7.80628 6.30927 7.80628 5.98927 7.99961 5.79594C8.19297 5.6026 8.51297 5.6026 8.70625 5.79594L10.5996 7.69594C10.793 7.88927 10.793 8.20924 10.5996 8.4026L8.70625 10.3026C8.60625 10.4026 8.47961 10.4492 8.35297 10.4492C8.22625 10.4492 8.09961 10.4026 7.99961 10.3026C7.80628 10.1092 7.80628 9.78924 7.99961 9.59596L9.03961 8.55596H6.59961V14.1092C6.59961 14.4226 6.85295 14.6826 7.17295 14.6826C11.0996 14.6826 13.8396 11.9426 13.8396 8.01596C13.8396 4.08927 11.093 1.33594 7.17295 1.33594Z" fill="white"/>
<path d="M2.66016 7.54688C2.38682 7.54688 2.16016 7.77355 2.16016 8.04688C2.16016 8.32024 2.38682 8.54688 2.66016 8.54688H6.59348V7.54688H2.66016Z" fill="white"/>
</svg>
