<svg width="16" height="16" viewBox="0 0 16 16" fill="none" xmlns="http://www.w3.org/2000/svg">
<path d="M5.25348 8.04924C5.25348 7.77594 5.48016 7.54927 5.75348 7.54927H9.4068V1.90927C9.40016 1.58927 9.1468 1.33594 8.8268 1.33594C4.90015 1.33594 2.16016 4.07594 2.16016 8.0026C2.16016 11.9292 4.90015 14.6692 8.8268 14.6692C9.14016 14.6692 9.40016 14.416 9.40016 14.096V8.5426H5.75348C5.47348 8.54924 5.25348 8.3226 5.25348 8.04924Z" fill="white"/>
<path d="M13.6938 7.69346L11.8004 5.79344C11.607 5.6001 11.287 5.6001 11.0938 5.79344C10.9004 5.98678 10.9004 6.30678 11.0938 6.5001L12.1338 7.54014H9.40039V8.54012H12.127L11.087 9.58012C10.8938 9.77348 10.8938 10.0935 11.087 10.2868C11.187 10.3868 11.3138 10.4335 11.4404 10.4335C11.567 10.4335 11.6938 10.3868 11.7938 10.2868L13.687 8.38684C13.887 8.20012 13.887 7.8868 13.6938 7.69346Z" fill="white"/>
</svg>
