<svg width="16" height="16" viewBox="0 0 16 16" fill="none" xmlns="http://www.w3.org/2000/svg">
<path d="M11.2 1.33594H9.46664C7.33334 1.33594 6 2.66927 6 4.8026V7.5026H10.1666C10.44 7.5026 10.6666 7.72927 10.6666 8.0026C10.6666 8.27596 10.44 8.5026 10.1666 8.5026H6V11.2026C6 13.336 7.33334 14.6692 9.46664 14.6692H11.1934C13.3266 14.6692 14.66 13.336 14.66 11.2026V4.8026C14.6666 2.66927 13.3334 1.33594 11.2 1.33594Z" fill="white"/>
<path d="M3.04094 7.50117L4.42094 6.1212C4.52094 6.0212 4.5676 5.89453 4.5676 5.76786C4.5676 5.6412 4.52094 5.50786 4.42094 5.41453C4.2276 5.2212 3.9076 5.2212 3.71427 5.41453L1.48094 7.64784C1.2876 7.84117 1.2876 8.16118 1.48094 8.35454L3.71427 10.5878C3.9076 10.7812 4.2276 10.7812 4.42094 10.5878C4.61427 10.3945 4.61427 10.0745 4.42094 9.88118L3.04094 8.50118H6.00094V7.50117H3.04094Z" fill="white"/>
</svg>
