<svg width="16" height="16" viewBox="0 0 16 16" fill="none" xmlns="http://www.w3.org/2000/svg">
<path d="M12.5332 6.60547C11.7798 6.60547 11.1065 6.97216 10.6865 7.53216C10.2665 6.97216 9.59319 6.60547 8.83983 6.60547C7.56653 6.60547 6.5332 7.6455 6.5332 8.92546C6.5332 9.41882 6.6132 9.87882 6.74653 10.2988C7.39987 12.3722 9.42655 13.6188 10.4265 13.9588C10.5665 14.0055 10.7998 14.0055 10.9398 13.9588C11.9398 13.6188 13.9665 12.3788 14.6198 10.2988C14.7598 9.87218 14.8332 9.41882 14.8332 8.92546C14.8398 7.6455 13.8065 6.60547 12.5332 6.60547Z" fill="white"/>
<path d="M13.834 5.55974C13.834 5.71307 13.6806 5.81307 13.534 5.77307C12.634 5.53974 11.6474 5.73307 10.9006 6.26641C10.754 6.37307 10.554 6.37307 10.414 6.26641C9.88735 5.87974 9.24735 5.66641 8.57399 5.66641C6.85398 5.66641 5.45398 7.07307 5.45398 8.80638C5.45398 10.6864 6.35398 12.0931 7.26066 13.0331C7.30732 13.0797 7.26732 13.1597 7.20732 13.1331C5.38732 12.5131 1.33398 9.93974 1.33398 5.55974C1.33398 3.62641 2.88732 2.06641 4.80732 2.06641C5.94732 2.06641 6.95398 2.61307 7.58732 3.45974C8.22735 2.61307 9.23399 2.06641 10.3674 2.06641C12.2806 2.06641 13.834 3.62641 13.834 5.55974Z" fill="white"/>
</svg>
