<svg width="16" height="16" viewBox="0 0 16 16" fill="none" xmlns="http://www.w3.org/2000/svg">
<path d="M11.5262 2.76263L11.4795 5.2893C11.4729 5.63597 11.6929 6.09597 11.9729 6.30263L13.6262 7.55594C14.6862 8.35596 14.5129 9.33596 13.2462 9.73596L11.0929 10.4092C10.7329 10.5226 10.3529 10.916 10.2595 11.2826L9.74625 13.2426C9.33953 14.7892 8.32625 14.9426 7.48622 13.5826L6.31287 11.6826C6.09953 11.336 5.59287 11.076 5.19287 11.096L2.96619 11.2092C1.37286 11.2892 0.919529 10.3692 1.95953 9.15596L3.27953 7.62261C3.52619 7.33594 3.63953 6.80261 3.52619 6.44263L2.84619 4.28263C2.45286 3.01597 3.15953 2.31597 4.41953 2.7293L6.38619 3.37597C6.71955 3.48263 7.21955 3.4093 7.49955 3.20263L9.55289 1.72263C10.6662 0.929298 11.5529 1.39597 11.5262 2.76263Z" fill="white"/>
<path d="M14.2935 13.6455L12.2735 11.6255C12.0803 11.4321 11.7603 11.4321 11.5669 11.6255C11.3735 11.8188 11.3735 12.1388 11.5669 12.3321L13.5869 14.3521C13.6869 14.4521 13.8135 14.4988 13.9403 14.4988C14.0669 14.4988 14.1935 14.4521 14.2935 14.3521C14.4869 14.1588 14.4869 13.8388 14.2935 13.6455Z" fill="white"/>
</svg>
