<svg width="16" height="16" viewBox="0 0 16 16" fill="none" xmlns="http://www.w3.org/2000/svg">
<path d="M12.9992 4.99927L12.0059 5.9926L10.0059 3.9926L10.9992 2.99927C11.2792 2.71927 11.6392 2.58594 11.9992 2.58594C12.3592 2.58594 12.7192 2.71927 12.9992 2.99927C13.5525 3.5526 13.5525 4.44594 12.9992 4.99927Z" fill="white"/>
<path d="M11.5396 6.46484L4.33297 13.6648C3.77963 14.2182 2.8863 14.2182 2.33297 13.6648C1.77963 13.1115 1.77963 12.2182 2.33297 11.6648L9.53962 4.46484L11.5396 6.46484Z" fill="white"/>
<path d="M6.63302 2.33237L6.90633 1.4057C6.933 1.31904 6.90633 1.2257 6.84633 1.15904C6.78633 1.09237 6.67966 1.0657 6.59302 1.09237L5.66635 1.3657L4.73969 1.09237C4.65302 1.0657 4.55969 1.09237 4.49302 1.15237C4.42635 1.21904 4.40635 1.31237 4.43302 1.39904L4.69969 2.33237L4.42635 3.25904C4.39969 3.3457 4.42635 3.43904 4.48635 3.5057C4.55302 3.57237 4.64635 3.59237 4.73302 3.5657L5.66635 3.29904L6.59302 3.57237C6.61969 3.57904 6.63969 3.5857 6.66635 3.5857C6.733 3.5857 6.793 3.55904 6.84633 3.51237C6.913 3.4457 6.933 3.35237 6.90633 3.2657L6.63302 2.33237Z" fill="white"/>
<path d="M3.96701 6.33237L4.24034 5.4057C4.26701 5.31904 4.24034 5.2257 4.18034 5.15904C4.11367 5.09237 4.02034 5.07237 3.93367 5.09904L3.00034 5.3657L2.07367 5.09237C1.98701 5.0657 1.89367 5.09237 1.82701 5.15237C1.76034 5.21904 1.74034 5.31237 1.76701 5.39904L2.03367 6.33237L1.76034 7.25902C1.73367 7.34568 1.76034 7.43901 1.82034 7.50568C1.88701 7.57235 1.98034 7.59235 2.06701 7.56569L2.99367 7.29235L3.92034 7.56569C3.94034 7.57235 3.96701 7.57235 3.99367 7.57235C4.06034 7.57235 4.12034 7.54569 4.17367 7.49902C4.24034 7.43235 4.26034 7.33902 4.23367 7.25235L3.96701 6.33237Z" fill="white"/>
<path d="M13.9665 9.66665L14.2399 8.74001C14.2665 8.65329 14.2399 8.56001 14.1799 8.49329C14.1131 8.42665 14.0199 8.40665 13.9331 8.43329L13.0065 8.70665L12.0799 8.43329C11.9931 8.40665 11.8999 8.43329 11.8331 8.49329C11.7665 8.56001 11.7465 8.65329 11.7731 8.74001L12.0465 9.66665L11.7731 10.5933C11.7465 10.68 11.7731 10.7733 11.8331 10.84C11.8999 10.9066 11.9931 10.9266 12.0799 10.9L13.0065 10.6266L13.9331 10.9C13.9531 10.9066 13.9799 10.9066 14.0065 10.9066C14.0731 10.9066 14.1331 10.88 14.1865 10.8333C14.2531 10.7666 14.2731 10.6733 14.2465 10.5866L13.9665 9.66665Z" fill="white"/>
</svg>
