<svg width="16" height="16" viewBox="0 0 16 16" fill="none" xmlns="http://www.w3.org/2000/svg">
<path d="M5.19922 7.19922C5.19922 6.09465 6.09465 5.19922 7.19922 5.19922C8.30378 5.19922 9.19922 6.09465 9.19922 7.19922C9.19922 7.75167 8.97602 8.25082 8.61346 8.61346C8.25082 8.97602 7.75167 9.19922 7.19922 9.19922C6.09465 9.19922 5.19922 8.30378 5.19922 7.19922Z" fill="#0F172A"/>
<path fill-rule="evenodd" clip-rule="evenodd" d="M7.99961 14.4016C11.5342 14.4016 14.3996 11.5362 14.3996 8.00156C14.3996 4.46694 11.5342 1.60156 7.99961 1.60156C4.46499 1.60156 1.59961 4.46694 1.59961 8.00156C1.59961 11.5362 4.46499 14.4016 7.99961 14.4016ZM7.19961 4.00156C5.4323 4.00156 3.99961 5.43425 3.99961 7.20156C3.99961 8.96884 5.4323 10.4016 7.19961 10.4016C7.86617 10.4016 8.48569 10.1973 8.99809 9.8486L10.1754 11.0258C10.4097 11.2601 10.7895 11.2601 11.0238 11.0258C11.2582 10.7915 11.2582 10.4116 11.0238 10.1773L9.84665 9.00004C10.1954 8.48764 10.3996 7.86812 10.3996 7.20156C10.3996 5.43425 8.96689 4.00156 7.19961 4.00156Z" fill="#0F172A"/>
</svg>
