<svg width="16" height="16" viewBox="0 0 16 16" fill="none" xmlns="http://www.w3.org/2000/svg">
<path fill-rule="evenodd" clip-rule="evenodd" d="M7.19961 2.80156C4.76955 2.80156 2.79961 4.77151 2.79961 7.20156C2.79961 9.63164 4.76955 11.6016 7.19961 11.6016C8.41481 11.6016 9.51401 11.1097 10.3109 10.3128C11.1078 9.51596 11.5996 8.41676 11.5996 7.20156C11.5996 4.77151 9.62969 2.80156 7.19961 2.80156ZM1.59961 7.20156C1.59961 4.10877 4.10682 1.60156 7.19961 1.60156C10.2924 1.60156 12.7996 4.10877 12.7996 7.20156C12.7996 8.53156 12.3354 9.75404 11.561 10.7144L14.2238 13.3773C14.4582 13.6116 14.4582 13.9915 14.2238 14.2258C13.9895 14.4601 13.6097 14.4601 13.3754 14.2258L10.7125 11.5629C9.75209 12.3373 8.52961 12.8016 7.19961 12.8016C4.10682 12.8016 1.59961 10.2944 1.59961 7.20156Z" fill="#0F172A"/>
</svg>
