<svg width="16" height="16" viewBox="0 0 16 16" fill="none" xmlns="http://www.w3.org/2000/svg">
<path d="M5.40078 6.60156C5.06941 6.60156 4.80078 6.87019 4.80078 7.20156C4.80078 7.53293 5.06941 7.80156 5.40078 7.80156H9.00078C9.33214 7.80156 9.60078 7.53293 9.60078 7.20156C9.60078 6.87019 9.33214 6.60156 9.00078 6.60156H5.40078Z" fill="#0F172A"/>
<path fill-rule="evenodd" clip-rule="evenodd" d="M7.19961 1.60156C4.10682 1.60156 1.59961 4.10877 1.59961 7.20156C1.59961 10.2944 4.10682 12.8016 7.19961 12.8016C8.52961 12.8016 9.75209 12.3373 10.7125 11.5629L13.3754 14.2258C13.6097 14.4601 13.9895 14.4601 14.2238 14.2258C14.4582 13.9915 14.4582 13.6116 14.2238 13.3773L11.561 10.7144C12.3354 9.75404 12.7996 8.53156 12.7996 7.20156C12.7996 4.10877 10.2924 1.60156 7.19961 1.60156ZM2.79961 7.20156C2.79961 4.77151 4.76955 2.80156 7.19961 2.80156C9.62969 2.80156 11.5996 4.77151 11.5996 7.20156C11.5996 8.41676 11.1078 9.51596 10.3109 10.3128C9.51401 11.1097 8.41481 11.6016 7.19961 11.6016C4.76955 11.6016 2.79961 9.63164 2.79961 7.20156Z" fill="#0F172A"/>
</svg>
