<svg width="16" height="16" viewBox="0 0 16 16" fill="none" xmlns="http://www.w3.org/2000/svg">
<path d="M11.0072 3.3426L9.70055 2.03594C8.76719 1.1026 7.23384 1.1026 6.30049 2.03594L4.99383 3.3426C4.73383 3.6026 4.73383 4.02928 4.99383 4.28928L7.53384 6.82928C7.79384 7.08928 8.21383 7.08928 8.47383 6.82928L11.0138 4.28928C11.2672 4.02928 11.2672 3.6026 11.0072 3.3426Z" fill="white"/>
<path d="M3.34065 4.99187L2.03398 6.29855C1.10065 7.2319 1.10065 8.7652 2.03398 9.69856L3.34065 11.0052C3.60065 11.2652 4.02065 11.2652 4.28065 11.0052L6.82065 8.4652C7.08065 8.2052 7.08065 7.78524 6.82065 7.52524L4.28732 4.99187C4.02732 4.73188 3.60065 4.73188 3.34065 4.99187Z" fill="white"/>
<path d="M13.966 6.29855L12.6594 4.99187C12.3994 4.73188 11.9794 4.73188 11.7194 4.99187L9.17937 7.5319C8.91938 7.7919 8.91938 8.21192 9.17937 8.47192L11.7194 11.0119C11.9794 11.2719 12.3994 11.2719 12.6594 11.0119L13.966 9.7052C14.8994 8.7652 14.8994 7.2319 13.966 6.29855Z" fill="white"/>
<path d="M4.99272 12.6594L6.29939 13.9661C7.23275 14.8994 8.7661 14.8994 9.69938 13.9661L11.0061 12.6594C11.2661 12.3994 11.2661 11.9794 11.0061 11.7194L8.4661 9.17937C8.2061 8.91938 7.78608 8.91938 7.52608 9.17937L4.98605 11.7194C4.73272 11.9727 4.73272 12.3994 4.99272 12.6594Z" fill="white"/>
</svg>
