<svg width="16" height="16" viewBox="0 0 16 16" fill="none" xmlns="http://www.w3.org/2000/svg">
<path d="M8.00063 1.33594C4.32066 1.33594 1.33398 4.3226 1.33398 8.0026C1.33398 11.6826 4.32066 14.6692 8.00063 14.6692C11.6806 14.6692 14.6674 11.6826 14.6674 8.0026C14.6674 4.3226 11.6806 1.33594 8.00063 1.33594ZM7.66732 9.66924C7.66732 9.9426 7.44066 10.1692 7.16732 10.1692C6.89398 10.1692 6.66732 9.9426 6.66732 9.66924V8.2826L4.88734 7.21594V9.66924C4.88734 9.9426 4.66066 10.1692 4.38734 10.1692C4.114 10.1692 3.88734 9.9426 3.88734 9.66924V6.33594C3.88734 6.15594 3.98734 5.98927 4.14066 5.9026C4.294 5.81594 4.48734 5.81594 4.64066 5.90927L7.42066 7.57594C7.57398 7.66927 7.66066 7.82927 7.66066 8.0026V9.66924H7.66732ZM12.114 9.66924C12.114 9.9426 11.8874 10.1692 11.614 10.1692C11.3406 10.1692 11.114 9.9426 11.114 9.66924V7.21594L9.33399 8.2826V9.66924C9.33399 9.9426 9.10735 10.1692 8.83399 10.1692C8.56063 10.1692 8.33399 9.9426 8.33399 9.66924V8.0026C8.33399 7.82927 8.42735 7.6626 8.57399 7.57594L11.354 5.90927C11.5074 5.81594 11.7006 5.81594 11.854 5.9026C12.014 5.98927 12.1074 6.15594 12.1074 6.33594V9.66924H12.114Z" fill="white"/>
</svg>
