<svg width="16" height="16" viewBox="0 0 16 16" fill="none" xmlns="http://www.w3.org/2000/svg">
<path d="M14.7926 1.47073C14.746 1.35073 14.646 1.25073 14.526 1.20406C14.4594 1.1774 14.3994 1.16406 14.3326 1.16406H9.99937C9.72601 1.16406 9.49937 1.39073 9.49937 1.66406C9.49937 1.9374 9.72601 2.16406 9.99937 2.16406H13.126L10.1194 5.1774H10.1126C9.21937 4.4374 8.07937 3.9974 6.83268 3.9974C3.97934 3.9974 1.66602 6.31073 1.66602 9.16404C1.66602 12.0174 3.97934 14.3308 6.83268 14.3308C9.68601 14.3308 11.9994 12.0174 11.9994 9.16404C11.9994 7.9174 11.5594 6.7774 10.8194 5.88406L13.8326 2.87073V5.9974C13.8326 6.27073 14.0594 6.4974 14.3326 6.4974C14.606 6.4974 14.8326 6.27073 14.8326 5.9974V1.66406C14.8326 1.5974 14.8194 1.5374 14.7926 1.47073Z" fill="white"/>
</svg>
