<svg width="16" height="16" viewBox="0 0 16 16" fill="none" xmlns="http://www.w3.org/2000/svg">
<path fill-rule="evenodd" clip-rule="evenodd" d="M7.75245 15.148L7.75469 15.1489C7.91239 15.2176 8.00039 15.2016 8.00039 15.2016C8.00039 15.2016 8.08839 15.2176 8.24671 15.1487L8.24831 15.148L8.25295 15.1459L8.26743 15.1392C8.27943 15.1336 8.29615 15.1257 8.31711 15.1156C8.35911 15.0954 8.41839 15.066 8.49263 15.0273C8.64103 14.95 8.84935 14.8351 9.09775 14.6812C9.59335 14.374 10.2543 13.9076 10.9168 13.2691C12.2422 11.9916 13.6004 9.99556 13.6004 7.20156C13.6004 4.10877 11.0932 1.60156 8.00039 1.60156C4.9076 1.60156 2.40039 4.10877 2.40039 7.20156C2.40039 9.99556 3.75865 11.9916 5.08401 13.2691C5.7465 13.9076 6.40741 14.374 6.90306 14.6812C7.15142 14.8351 7.35977 14.95 7.50813 15.0273C7.58235 15.066 7.64169 15.0954 7.68366 15.1156C7.70465 15.1257 7.72132 15.1336 7.73334 15.1392L7.74787 15.1459L7.75245 15.148ZM8.00039 9.00156C8.99447 9.00156 9.80039 8.19564 9.80039 7.20156C9.80039 6.20745 8.99447 5.40156 8.00039 5.40156C7.00628 5.40156 6.20039 6.20745 6.20039 7.20156C6.20039 8.19564 7.00628 9.00156 8.00039 9.00156Z" fill="#0F172A"/>
</svg>
