<svg width="16" height="16" viewBox="0 0 16 16" fill="none" xmlns="http://www.w3.org/2000/svg">
<path d="M5.08734 2.37978C5.20694 2.31454 5.33402 2.4149 5.33402 2.55112V11.5883C5.33402 11.7372 5.2324 11.863 5.10082 11.9325C5.0963 11.9349 5.09181 11.9373 5.08734 11.9398L3.52068 12.8331C2.42734 13.4598 1.52734 12.9398 1.52734 11.6731V5.18644C1.52734 4.76644 1.82734 4.24644 2.20068 4.03311L5.08734 2.37978Z" fill="white"/>
<path d="M9.81456 4.07103C9.92816 4.12727 10 4.24303 10 4.36974V13.1385C10 13.3842 9.74336 13.5454 9.522 13.4388L6.68866 12.0738C6.57332 12.0182 6.5 11.9014 6.5 11.7734V2.96657C6.5 2.71933 6.75974 2.55814 6.98126 2.66786L9.81456 4.07103Z" fill="white"/>
<path d="M14.666 4.3241V10.8108C14.666 11.2308 14.366 11.7508 13.9927 11.9641L11.6651 13.298C11.4429 13.4255 11.166 13.265 11.166 13.0088V4.21765C11.166 4.09798 11.2302 3.98749 11.3341 3.92817L12.6727 3.16411C13.766 2.53744 14.666 3.05744 14.666 4.3241Z" fill="white"/>
</svg>
