<svg width="16" height="16" viewBox="0 0 16 16" fill="none" xmlns="http://www.w3.org/2000/svg">
<path fill-rule="evenodd" clip-rule="evenodd" d="M6.5251 1.73962C6.2313 1.61804 5.90126 1.61804 5.60746 1.73962L2.34079 3.09135C1.89217 3.27698 1.59961 3.71465 1.59961 4.20016V12.9015C1.59961 13.7565 2.46836 14.3372 3.25843 14.0103L6.06627 12.8484L9.47409 14.2586C9.76793 14.3802 10.0979 14.3802 10.3918 14.2586L13.6584 12.9069C14.107 12.7212 14.3996 12.2835 14.3996 11.798V3.09672C14.3996 2.24168 13.5309 1.66097 12.7408 1.98789L9.93297 3.14976L6.5251 1.73962ZM6.06367 3.99912C6.39504 3.99912 6.66367 4.26776 6.66367 4.59912V9.79912C6.66367 10.1305 6.39504 10.3991 6.06367 10.3991C5.7323 10.3991 5.46367 10.1305 5.46367 9.79912V4.59912C5.46367 4.26776 5.7323 3.99912 6.06367 3.99912ZM10.5355 6.19912C10.5355 5.86776 10.2669 5.59912 9.93553 5.59912C9.60417 5.59912 9.33553 5.86776 9.33553 6.19912V11.3991C9.33553 11.7305 9.60417 11.9991 9.93553 11.9991C10.2669 11.9991 10.5355 11.7305 10.5355 11.3991V6.19912Z" fill="#0F172A"/>
</svg>
