<svg width="16" height="16" viewBox="0 0 16 16" fill="none" xmlns="http://www.w3.org/2000/svg">
<path d="M10.8274 6.34649L13.9674 9.48643C14.154 9.67315 14.4808 9.57316 14.534 9.31316C14.6208 8.88644 14.6674 8.44644 14.6674 7.9998C14.6674 6.47316 14.1474 5.06649 13.2874 3.94649C13.1674 3.78649 12.9274 3.77983 12.7874 3.91983L10.8274 5.87983C10.7008 6.00649 10.7008 6.21983 10.8274 6.34649Z" fill="white"/>
<path d="M9.65307 7.05594L8.47307 8.23596C8.33971 8.36924 8.33971 8.57596 8.47307 8.70924L12.3531 12.5892C12.4864 12.7226 12.6997 12.7226 12.8264 12.5892C13.2397 12.156 13.5931 11.6692 13.8797 11.1426C13.9464 11.016 13.9197 10.8492 13.8197 10.7492L10.1264 7.05594C9.99307 6.92927 9.77971 6.92927 9.65307 7.05594Z" fill="white"/>
<path d="M7.29288 9.41621L6.11953 10.5895C5.9862 10.7229 5.9862 10.9295 6.11953 11.0628L9.39954 14.3495C9.48618 14.4361 9.6129 14.4695 9.72618 14.4361C10.3462 14.2695 10.9329 14.0161 11.4662 13.6829C11.6462 13.5695 11.6729 13.3161 11.5195 13.1628L7.76622 9.40949C7.63288 9.28949 7.41956 9.28949 7.29288 9.41621Z" fill="white"/>
<path d="M12.0525 2.71442C10.7325 1.69442 9.01913 1.16108 7.17914 1.38108C4.17246 1.74109 1.73913 4.18109 1.37913 7.1811C1.15913 9.0211 1.69246 10.7277 2.71246 12.0545C2.83246 12.2145 3.07246 12.2211 3.21246 12.0811L12.0791 3.21442C12.2191 3.07442 12.2125 2.83442 12.0525 2.71442Z" fill="white"/>
<path d="M4.93316 11.7797L3.91982 12.793C3.77982 12.933 3.7865 13.173 3.9465 13.293C4.95316 14.073 6.1865 14.5663 7.5398 14.6597C7.82646 14.6797 7.96646 14.3397 7.7598 14.133L5.4065 11.7797C5.27982 11.6463 5.0665 11.6463 4.93316 11.7797Z" fill="white"/>
</svg>
