<svg width="16" height="16" viewBox="0 0 16 16" fill="none" xmlns="http://www.w3.org/2000/svg">
<path d="M8.00063 1.33594C4.32066 1.33594 1.33398 4.3226 1.33398 8.0026C1.33398 11.6826 4.32066 14.6692 8.00063 14.6692C11.6806 14.6692 14.6674 11.6826 14.6674 8.0026C14.6674 4.3226 11.6806 1.33594 8.00063 1.33594ZM8.00063 11.336C6.16066 11.336 4.66732 9.8426 4.66732 8.0026C4.66732 6.1626 6.16066 4.66927 8.00063 4.66927C9.84063 4.66927 11.334 6.1626 11.334 8.0026C11.334 9.8426 9.84063 11.336 8.00063 11.336Z" fill="white"/>
<path d="M7.99934 4.66406V11.3308C6.15934 11.3308 4.66602 9.8374 4.66602 7.9974C4.66602 6.1574 6.15934 4.66406 7.99934 4.66406Z" fill="white"/>
</svg>
