<svg width="16" height="16" viewBox="0 0 16 16" fill="none" xmlns="http://www.w3.org/2000/svg">
<path d="M12.4335 3.05823C11.2602 1.99156 9.70687 1.35156 8.00019 1.35156C4.33351 1.35156 1.35352 4.33156 1.35352 7.99823C1.35352 11.6649 4.33351 14.6449 8.00019 14.6449C9.70687 14.6449 11.2602 14.0049 12.4335 12.9382C13.7935 11.7316 14.6469 9.95819 14.6469 7.99823C14.6469 6.03823 13.7935 4.26489 12.4335 3.05823ZM7.9802 10.9249C7.96687 12.0249 7.14687 12.2916 6.38018 11.9849C4.80018 11.3516 3.68684 9.80491 3.68684 7.99823C3.68684 6.19156 4.80018 4.64489 6.38018 4.00489C7.14687 3.69823 7.96687 3.97156 7.9802 5.06489V10.9249Z" fill="white"/>
</svg>
