<svg width="16" height="16" viewBox="0 0 16 16" fill="none" xmlns="http://www.w3.org/2000/svg">
<path d="M10.794 1.33594H5.20732C2.78066 1.33594 1.33398 2.7826 1.33398 5.20927V10.7892C1.33398 13.2226 2.78066 14.6692 5.20732 14.6692H10.7874C13.214 14.6692 14.6606 13.2226 14.6606 10.796V5.20927C14.6674 2.7826 13.2206 1.33594 10.794 1.33594ZM7.35398 11.776C7.54732 11.9692 7.54732 12.2892 7.35398 12.4826C7.25398 12.5826 7.12732 12.6292 7.00066 12.6292C6.87398 12.6292 6.74732 12.5826 6.64732 12.4826L5.50066 11.336L4.35398 12.4826C4.25398 12.576 4.12732 12.6292 4.00066 12.6292C3.87398 12.6292 3.74732 12.5826 3.64732 12.4826C3.45398 12.2892 3.45398 11.9692 3.64732 11.776L4.79398 10.6292L3.64732 9.4826C3.45398 9.28924 3.45398 8.96924 3.64732 8.77596C3.84066 8.5826 4.16066 8.5826 4.35398 8.77596L5.50066 9.9226L6.64732 8.77596C6.84066 8.5826 7.16066 8.5826 7.35398 8.77596C7.54732 8.96924 7.54732 9.28924 7.35398 9.4826L6.20732 10.6292L7.35398 11.776ZM7.00066 5.87594H4.00066C3.72732 5.87594 3.50066 5.64927 3.50066 5.37594C3.50066 5.1026 3.72732 4.87594 4.00066 4.87594H7.00066C7.27398 4.87594 7.50066 5.1026 7.50066 5.37594C7.50066 5.64927 7.27398 5.87594 7.00066 5.87594ZM12.0006 12.376H9.00063C8.72735 12.376 8.50063 12.1492 8.50063 11.876C8.50063 11.6026 8.72735 11.376 9.00063 11.376H12.0006C12.274 11.376 12.5006 11.6026 12.5006 11.876C12.5006 12.1492 12.274 12.376 12.0006 12.376ZM12.0006 9.87596H9.00063C8.72735 9.87596 8.50063 9.64924 8.50063 9.37596C8.50063 9.1026 8.72735 8.87596 9.00063 8.87596H12.0006C12.274 8.87596 12.5006 9.1026 12.5006 9.37596C12.5006 9.64924 12.274 9.87596 12.0006 9.87596ZM12.0006 5.87594H11.014V6.87594C11.014 7.14927 10.7874 7.37594 10.514 7.37594C10.2406 7.37594 10.014 7.14927 10.014 6.87594V5.87594H9.00063C8.72735 5.87594 8.50063 5.64927 8.50063 5.37594C8.50063 5.1026 8.72735 4.87594 9.00063 4.87594H10.014V3.87594C10.014 3.6026 10.2406 3.37594 10.514 3.37594C10.7874 3.37594 11.014 3.6026 11.014 3.87594V4.87594H12.0006C12.274 4.87594 12.5006 5.1026 12.5006 5.37594C12.5006 5.64927 12.274 5.87594 12.0006 5.87594Z" fill="white"/>
</svg>
