<svg width="16" height="16" viewBox="0 0 16 16" fill="none" xmlns="http://www.w3.org/2000/svg">
<path d="M13.9674 2.75594C13.774 2.47594 13.5274 2.22927 13.2474 2.03594C12.614 1.57594 11.7874 1.33594 10.794 1.33594H5.20732C5.07398 1.33594 4.94066 1.3426 4.81398 1.35594C2.62732 1.49594 1.33398 2.91594 1.33398 5.20927V10.796C1.33398 11.7892 1.57398 12.616 2.03398 13.2492C2.22732 13.5292 2.47398 13.776 2.75398 13.9692C3.30066 14.3692 3.99398 14.6026 4.81398 14.656C4.94066 14.6626 5.07398 14.6692 5.20732 14.6692H10.794C13.2206 14.6692 14.6674 13.2226 14.6674 10.796V5.20927C14.6674 4.21594 14.4274 3.38927 13.9674 2.75594ZM12.5006 6.66927C12.5006 6.9426 12.274 7.16927 12.0006 7.16927C11.7274 7.16927 11.5006 6.9426 11.5006 6.66927V5.20927L8.70735 8.0026L11.5006 10.796V9.33596C11.5006 9.0626 11.7274 8.83596 12.0006 8.83596C12.274 8.83596 12.5006 9.0626 12.5006 9.33596V12.0026C12.5006 12.0692 12.4874 12.1292 12.4606 12.196C12.4074 12.316 12.314 12.416 12.1874 12.4692C12.1274 12.496 12.0606 12.5092 11.994 12.5092H9.32735C9.05399 12.5092 8.82735 12.2826 8.82735 12.0092C8.82735 11.736 9.05399 11.5092 9.32735 11.5092H10.7874L8.00063 8.70924L5.20732 11.5026H6.66732C6.94066 11.5026 7.16732 11.7292 7.16732 12.0026C7.16732 12.276 6.94066 12.5026 6.66732 12.5026H4.00066C3.93398 12.5026 3.86732 12.4892 3.80732 12.4626C3.68732 12.4092 3.58732 12.316 3.53398 12.1892C3.51398 12.1292 3.50066 12.0692 3.50066 12.0026V9.33596C3.50066 9.0626 3.72732 8.83596 4.00066 8.83596C4.27398 8.83596 4.50066 9.0626 4.50066 9.33596V10.796L7.29398 8.0026L4.50066 5.20927V6.66927C4.50066 6.9426 4.27398 7.16927 4.00066 7.16927C3.72732 7.16927 3.50066 6.9426 3.50066 6.66927V4.0026C3.50066 3.93594 3.51398 3.87594 3.54066 3.80927C3.59398 3.68927 3.68732 3.58927 3.81398 3.53594C3.87398 3.51594 3.93398 3.5026 4.00066 3.5026H6.66732C6.94066 3.5026 7.16732 3.72927 7.16732 4.0026C7.16732 4.27594 6.94066 4.5026 6.66732 4.5026H5.20732L8.00063 7.29594L10.794 4.5026H9.33399C9.06063 4.5026 8.83399 4.27594 8.83399 4.0026C8.83399 3.72927 9.06063 3.5026 9.33399 3.5026H12.0006C12.0674 3.5026 12.1274 3.51594 12.194 3.5426C12.314 3.59594 12.414 3.68927 12.4674 3.81594C12.4874 3.87594 12.5006 3.93594 12.5006 4.0026V6.66927Z" fill="white"/>
</svg>
