<svg width="16" height="16" viewBox="0 0 16 16" fill="none" xmlns="http://www.w3.org/2000/svg">
<g clip-path="url(#clip0_13_14504)">
<path d="M14.4603 1.80666C14.407 1.68666 14.3136 1.58666 14.187 1.53334C14.127 1.51334 14.067 1.5 14.0003 1.5H11.3336C11.0603 1.5 10.8336 1.72666 10.8336 2C10.8336 2.27334 11.0603 2.5 11.3336 2.5H12.7936L9.64697 5.64666C9.45361 5.84 9.45361 6.16 9.64697 6.35334C9.74697 6.45334 9.87361 6.5 10.0003 6.5C10.127 6.5 10.2536 6.45334 10.3536 6.35334L13.5003 3.20666V4.66666C13.5003 4.94 13.727 5.16666 14.0003 5.16666C14.2736 5.16666 14.5003 4.94 14.5003 4.66666V2C14.5003 1.93334 14.487 1.87334 14.4603 1.80666Z" fill="white"/>
<path d="M5.64666 9.64496L2.5 12.7917V11.3317C2.5 11.0583 2.27334 10.8317 2 10.8317C1.72666 10.8317 1.5 11.0583 1.5 11.3317V13.9983C1.5 14.065 1.51334 14.125 1.54 14.1917C1.59334 14.3117 1.68666 14.4117 1.81334 14.465C1.86666 14.485 1.93334 14.4983 2 14.4983H4.66666C4.94 14.4983 5.16666 14.2717 5.16666 13.9983C5.16666 13.725 4.94 13.4983 4.66666 13.4983H3.20666L6.35334 10.3517C6.54666 10.1583 6.54666 9.83832 6.35334 9.64496C6.16 9.45168 5.84 9.45168 5.64666 9.64496Z" fill="white"/>
<path d="M1.46732 9.83596C1.23398 9.83596 1.02732 9.66924 0.980656 9.43596C0.88732 8.96924 0.833984 8.4826 0.833984 8.0026C0.833984 4.04927 4.04732 0.835938 8.00063 0.835938C8.48735 0.835938 8.97399 0.882602 9.44735 0.982602C9.72063 1.03594 9.89399 1.3026 9.84063 1.56927C9.78735 1.8426 9.51399 2.00927 9.25399 1.9626C8.83399 1.87594 8.42063 1.83594 8.00063 1.83594C4.60066 1.83594 1.83398 4.6026 1.83398 8.0026C1.83398 8.41596 1.87398 8.83596 1.96066 9.23596C2.01398 9.50924 1.84066 9.76924 1.56732 9.8226C1.53398 9.83596 1.50066 9.83596 1.46732 9.83596Z" fill="white"/>
<path d="M8.00001 15.1682C7.51333 15.1682 7.02667 15.1215 6.55335 15.0215C6.28002 14.9682 6.10669 14.7015 6.16002 14.4348C6.21335 14.1615 6.48669 13.9948 6.74667 14.0415C7.15333 14.1215 7.57333 14.1682 7.99333 14.1682C11.3934 14.1682 14.16 11.4015 14.16 8.00152C14.16 7.58817 14.12 7.17484 14.04 6.76817C13.9867 6.49484 14.16 6.23484 14.4334 6.1815C14.7066 6.12817 14.9666 6.3015 15.02 6.57484C15.1134 7.0415 15.16 7.5215 15.16 8.00152C15.1666 11.9548 11.9534 15.1682 8.00001 15.1682Z" fill="white"/>
</g>
<defs>
<clipPath id="clip0_13_14504">
<rect width="16" height="16" fill="white"/>
</clipPath>
</defs>
</svg>
