<svg width="16" height="16" viewBox="0 0 16 16" fill="none" xmlns="http://www.w3.org/2000/svg">
<path d="M7.33398 10.7641V12.5641C7.33398 14.0641 6.73398 14.6641 5.23398 14.6641H3.43398C1.93398 14.6641 1.33398 14.0641 1.33398 12.5641V10.7641C1.33398 9.26406 1.93398 8.66406 3.43398 8.66406H5.23398C6.73398 8.66406 7.33398 9.26406 7.33398 10.7641Z" fill="white"/>
<path d="M10.9866 1.33594H5.68C3.64666 1.33594 2 2.9826 2 5.01594V7.0026C2 7.36927 2.3 7.66927 2.66666 7.66927H5.66666C7.14 7.66927 8.33336 8.8626 8.33336 10.336V13.336C8.33336 13.7026 8.63336 14.0026 9 14.0026H10.9866C13.2866 14.0026 14.6666 12.6292 14.6666 10.3226V5.01594C14.6666 2.9826 13.02 1.33594 10.9866 1.33594ZM12.5066 6.6626C12.5066 6.93594 12.28 7.1626 12.0066 7.1626C11.7334 7.1626 11.5066 6.93594 11.5066 6.6626V5.19594L9.02 7.68927C8.92 7.78927 8.79336 7.83594 8.66664 7.83594C8.54 7.83594 8.41336 7.78927 8.31336 7.68927C8.12 7.49594 8.12 7.17594 8.31336 6.9826L10.8 4.4826H9.33336C9.05336 4.4826 8.83336 4.2626 8.83336 3.9826C8.83336 3.70927 9.05336 3.4826 9.33336 3.4826H12.0066C12.0666 3.4826 12.1266 3.5026 12.18 3.5226C12.2 3.52927 12.2134 3.53594 12.2266 3.5426C12.2666 3.5626 12.3 3.5826 12.3334 3.61594C12.3466 3.6226 12.36 3.63594 12.3734 3.64927C12.4066 3.68927 12.4334 3.72927 12.46 3.77594C12.46 3.7826 12.4666 3.78927 12.4666 3.79594C12.4934 3.84927 12.5 3.90927 12.5 3.96927C12.5066 3.97594 12.5066 3.97594 12.5066 3.9826V6.6626Z" fill="white"/>
</svg>
