<svg width="16" height="16" viewBox="0 0 16 16" fill="none" xmlns="http://www.w3.org/2000/svg">
<path d="M10.794 1.33594H5.20732C2.78066 1.33594 1.33398 2.7826 1.33398 5.20927V10.7892C1.33398 13.2226 2.78066 14.6692 5.20732 14.6692H10.7874C13.214 14.6692 14.6606 13.2226 14.6606 10.796V5.20927C14.6674 2.7826 13.2206 1.33594 10.794 1.33594ZM12.5006 9.33596C12.5006 9.60924 12.274 9.83596 12.0006 9.83596C11.7274 9.83596 11.5006 9.60924 11.5006 9.33596V8.5026H8.50063V11.5026H9.33399C9.60735 11.5026 9.83399 11.7292 9.83399 12.0026C9.83399 12.276 9.60735 12.5026 9.33399 12.5026H6.66732C6.39398 12.5026 6.16732 12.276 6.16732 12.0026C6.16732 11.7292 6.39398 11.5026 6.66732 11.5026H7.50066V8.5026H4.50066V9.33596C4.50066 9.60924 4.27398 9.83596 4.00066 9.83596C3.72732 9.83596 3.50066 9.60924 3.50066 9.33596V6.66927C3.50066 6.39594 3.72732 6.16927 4.00066 6.16927C4.27398 6.16927 4.50066 6.39594 4.50066 6.66927V7.5026H7.50066V4.5026H6.66732C6.39398 4.5026 6.16732 4.27594 6.16732 4.0026C6.16732 3.72927 6.39398 3.5026 6.66732 3.5026H9.33399C9.60735 3.5026 9.83399 3.72927 9.83399 4.0026C9.83399 4.27594 9.60735 4.5026 9.33399 4.5026H8.50063V7.5026H11.5006V6.66927C11.5006 6.39594 11.7274 6.16927 12.0006 6.16927C12.274 6.16927 12.5006 6.39594 12.5006 6.66927V9.33596Z" fill="white"/>
</svg>
