<svg width="16" height="16" viewBox="0 0 16 16" fill="none" xmlns="http://www.w3.org/2000/svg">
<path d="M10.794 1.33594H5.20732C2.78066 1.33594 1.33398 2.7826 1.33398 5.20927V10.7892C1.33398 13.2226 2.78066 14.6692 5.20732 14.6692H10.7874C13.214 14.6692 14.6606 13.2226 14.6606 10.796V5.20927C14.6674 2.7826 13.2206 1.33594 10.794 1.33594ZM6.81398 14.0026H5.27398C3.46732 14.0026 2.00066 12.536 2.00066 10.7292V9.18924C2.00066 8.91596 2.22732 8.68924 2.50066 8.68924C2.77398 8.68924 3.00066 8.91596 3.00066 9.18924V10.7292C3.00066 11.9826 4.02066 13.0026 5.27398 13.0026H6.81398C7.08732 13.0026 7.31398 13.2292 7.31398 13.5026C7.31398 13.776 7.09398 14.0026 6.81398 14.0026ZM6.81398 3.0026H5.27398C4.02066 3.0026 3.00066 4.0226 3.00066 5.27594V6.81594C3.00066 7.08927 2.77398 7.31594 2.50066 7.31594C2.22732 7.31594 2.00066 7.09594 2.00066 6.81594V5.27594C2.00066 3.46927 3.46732 2.0026 5.27398 2.0026H6.81398C7.08732 2.0026 7.31398 2.22927 7.31398 2.5026C7.31398 2.77594 7.09398 3.0026 6.81398 3.0026ZM14.0006 10.7292C14.0006 12.536 12.534 14.0026 10.7274 14.0026H9.80063C9.52735 14.0026 9.30063 13.776 9.30063 13.5026C9.30063 13.2292 9.52735 13.0026 9.80063 13.0026H10.7274C11.9806 13.0026 13.0006 11.9826 13.0006 10.7292V9.8026C13.0006 9.52924 13.2274 9.3026 13.5006 9.3026C13.774 9.3026 14.0006 9.52924 14.0006 9.8026V10.7292ZM14.0006 6.81594C14.0006 7.08927 13.774 7.31594 13.5006 7.31594C13.2274 7.31594 13.0006 7.08927 13.0006 6.81594V5.27594C13.0006 4.0226 11.9806 3.0026 10.7274 3.0026H9.18735C8.91399 3.0026 8.68735 2.77594 8.68735 2.5026C8.68735 2.22927 8.90735 2.0026 9.18735 2.0026H10.7274C12.534 2.0026 14.0006 3.46927 14.0006 5.27594V6.81594Z" fill="white"/>
</svg>
