<svg width="16" height="16" viewBox="0 0 16 16" fill="none" xmlns="http://www.w3.org/2000/svg">
<path d="M10.794 1.33594H5.20732C2.78066 1.33594 1.33398 2.7826 1.33398 5.20927V10.7892C1.33398 13.2226 2.78066 14.6692 5.20732 14.6692H10.7874C13.214 14.6692 14.6606 13.2226 14.6606 10.796V5.20927C14.6674 2.7826 13.2206 1.33594 10.794 1.33594ZM12.5006 6.66927C12.5006 6.9426 12.274 7.16927 12.0006 7.16927C11.7274 7.16927 11.5006 6.9426 11.5006 6.66927V5.20927L5.20732 11.5026H6.66732C6.94066 11.5026 7.16732 11.7292 7.16732 12.0026C7.16732 12.276 6.94066 12.5026 6.66732 12.5026H4.00066C3.93398 12.5026 3.86732 12.4892 3.80732 12.4626C3.68732 12.4092 3.58732 12.316 3.53398 12.1892C3.51398 12.1292 3.50066 12.0692 3.50066 12.0026V9.33596C3.50066 9.0626 3.72732 8.83596 4.00066 8.83596C4.27398 8.83596 4.50066 9.0626 4.50066 9.33596V10.796L10.794 4.5026H9.33399C9.06063 4.5026 8.83399 4.27594 8.83399 4.0026C8.83399 3.72927 9.06063 3.5026 9.33399 3.5026H12.0006C12.0674 3.5026 12.1274 3.51594 12.194 3.5426C12.314 3.59594 12.414 3.68927 12.4674 3.81594C12.4874 3.87594 12.5006 3.93594 12.5006 4.0026V6.66927Z" fill="white"/>
</svg>
