<svg width="16" height="16" viewBox="0 0 16 16" fill="none" xmlns="http://www.w3.org/2000/svg">
<path d="M8 10.0026C10.4853 10.0026 12.5 8.06252 12.5 5.66927C12.5 3.27603 10.4853 1.33594 8 1.33594C5.51472 1.33594 3.5 3.27603 3.5 5.66927C3.5 8.06252 5.51472 10.0026 8 10.0026Z" fill="white"/>
<path d="M10.5266 10.4035C10.7466 10.2901 11 10.4568 11 10.7035V13.9368C11 14.5368 10.58 14.8301 10.06 14.5835L8.27336 13.7368C8.12 13.6701 7.88 13.6701 7.72666 13.7368L5.94 14.5835C5.42 14.8235 5 14.5301 5 13.9301L5.01334 10.7035C5.01334 10.4568 5.27334 10.2968 5.48666 10.4035C6.24 10.7835 7.09334 10.9968 8 10.9968C8.90664 10.9968 9.76664 10.7835 10.5266 10.4035Z" fill="white"/>
</svg>
