<svg width="16" height="16" viewBox="0 0 16 16" fill="none" xmlns="http://www.w3.org/2000/svg">
<path d="M14.1668 12.3108L13.0668 12.5708C12.8202 12.6308 12.6268 12.8174 12.5735 13.0641L12.3402 14.0441C12.2135 14.5774 11.5335 14.7441 11.1802 14.3241L9.18681 12.0308C9.02681 11.8441 9.11353 11.5508 9.35353 11.4908C10.5335 11.2041 11.5935 10.5441 12.3735 9.60409C12.5002 9.45081 12.7268 9.43081 12.8668 9.57081L14.3468 11.0508C14.8535 11.5574 14.6735 12.1908 14.1668 12.3108Z" fill="white"/>
<path d="M1.80011 12.3108L2.90011 12.5708C3.14678 12.6308 3.34011 12.8174 3.39344 13.0641L3.62678 14.0441C3.75344 14.5774 4.43344 14.7441 4.78678 14.3241L6.78014 12.0308C6.94014 11.8441 6.85347 11.5508 6.61344 11.4908C5.43344 11.2041 4.37344 10.5441 3.59344 9.60409C3.46678 9.45081 3.24011 9.43081 3.10011 9.57081L1.62011 11.0508C1.11344 11.5574 1.29344 12.1908 1.80011 12.3108Z" fill="white"/>
<path d="M8.00063 1.33594C5.42066 1.33594 3.33398 3.4226 3.33398 6.0026C3.33398 6.96927 3.62066 7.85594 4.11398 8.59596C4.83398 9.6626 5.97398 10.416 7.30066 10.6092C7.52732 10.6492 7.76066 10.6692 8.00063 10.6692C8.24063 10.6692 8.47399 10.6492 8.70063 10.6092C10.0274 10.416 11.1674 9.6626 11.8874 8.59596C12.3806 7.85594 12.6674 6.96927 12.6674 6.0026C12.6674 3.4226 10.5806 1.33594 8.00063 1.33594ZM10.0406 5.85594L9.48735 6.40927C9.39399 6.5026 9.34063 6.6826 9.37399 6.81594L9.53399 7.5026C9.66063 8.0426 9.37399 8.25596 8.89399 7.96927L8.22735 7.57594C8.10735 7.5026 7.90732 7.5026 7.78732 7.57594L7.12066 7.96927C6.64066 8.24924 6.35398 8.0426 6.48066 7.5026L6.64066 6.81594C6.66732 6.68927 6.62066 6.5026 6.52732 6.40927L5.96066 5.85594C5.63398 5.52927 5.74066 5.2026 6.19398 5.12927L6.90732 5.00927C7.02732 4.98927 7.16732 4.8826 7.22066 4.77594L7.61398 3.98927C7.82732 3.5626 8.17399 3.5626 8.38735 3.98927L8.78063 4.77594C8.83399 4.8826 8.97399 4.98927 9.10063 5.00927L9.81399 5.12927C10.2606 5.2026 10.3674 5.52927 10.0406 5.85594Z" fill="white"/>
</svg>
