<svg width="16" height="16" viewBox="0 0 16 16" fill="none" xmlns="http://www.w3.org/2000/svg">
<path d="M11.1369 3.07422C9.5895 3.87167 7.89173 4.41774 6.09721 4.65869C5.41179 4.75072 4.712 4.79827 4.00078 4.79827C2.23347 4.79827 0.800781 6.23096 0.800781 7.99827C0.800781 9.62899 2.0206 10.9748 3.59756 11.1731C3.83104 12.0833 4.16861 12.9798 4.61441 13.8461C4.93166 14.4627 5.688 14.6451 6.25489 14.3179L6.94771 13.9179C7.52889 13.5823 7.70013 12.861 7.41861 12.3008C7.28573 12.0364 7.16625 11.7686 7.05993 11.498C8.50022 11.7843 9.86902 12.2689 11.1369 12.9223C11.6959 11.3861 12.0008 9.72779 12.0008 7.99827C12.0008 6.26876 11.6959 4.61047 11.1369 3.07422Z" fill="#0F172A"/>
<path d="M12.1942 2.47837C12.8442 4.19517 13.2 6.0566 13.2 8.00113C13.2 9.94569 12.8442 11.8071 12.1942 13.5239L12.1708 13.5857C12.0522 13.895 12.2068 14.2421 12.5162 14.3607C12.8256 14.4794 13.1726 14.3248 13.2913 14.0154C13.3602 13.8358 13.426 13.6547 13.4889 13.4722C13.9322 12.1846 14.2233 10.8264 14.341 9.41945C14.8516 9.15217 15.2 8.61769 15.2 8.00113C15.2 7.38456 14.8516 6.85009 14.341 6.58285C14.2233 5.17586 13.9322 3.81768 13.4889 2.53004C13.426 2.34753 13.3602 2.16646 13.2913 1.98688C13.1726 1.67748 12.8256 1.52285 12.5162 1.64151C12.2068 1.76017 12.0522 2.10718 12.1708 2.41658L12.1942 2.47837C12.1942 2.47834 12.1942 2.4784 12.1942 2.47837Z" fill="#0F172A"/>
</svg>
