<svg width="16" height="16" viewBox="0 0 16 16" fill="none" xmlns="http://www.w3.org/2000/svg">
<path d="M10.794 1.33594H5.20732C2.78066 1.33594 1.33398 2.7826 1.33398 5.20927V10.7892C1.33398 13.2226 2.78066 14.6692 5.20732 14.6692H10.7874C13.214 14.6692 14.6606 13.2226 14.6606 10.796V5.20927C14.6674 2.7826 13.2206 1.33594 10.794 1.33594ZM11.334 11.5026H4.66732C4.39398 11.5026 4.16732 11.276 4.16732 11.0026C4.16732 10.7292 4.39398 10.5026 4.66732 10.5026H11.334C11.6074 10.5026 11.834 10.7292 11.834 11.0026C11.834 11.276 11.6074 11.5026 11.334 11.5026ZM11.334 8.5026H4.66732C4.39398 8.5026 4.16732 8.27596 4.16732 8.0026C4.16732 7.72927 4.39398 7.5026 4.66732 7.5026H11.334C11.6074 7.5026 11.834 7.72927 11.834 8.0026C11.834 8.27596 11.6074 8.5026 11.334 8.5026ZM11.334 5.5026H4.66732C4.39398 5.5026 4.16732 5.27594 4.16732 5.0026C4.16732 4.72927 4.39398 4.5026 4.66732 4.5026H11.334C11.6074 4.5026 11.834 4.72927 11.834 5.0026C11.834 5.27594 11.6074 5.5026 11.334 5.5026Z" fill="white"/>
</svg>
