<svg width="16" height="16" viewBox="0 0 16 16" fill="none" xmlns="http://www.w3.org/2000/svg">
<path d="M13.9339 6.56666L14.3273 13.16C14.3405 13.34 14.2539 13.46 14.2073 13.5134C14.1539 13.5734 14.0405 13.6666 13.8539 13.6666H12.0339L13.4739 6.56666H13.9339ZM14.6673 4L14.6605 4.01334C14.6739 4.17334 14.6605 4.34 14.6205 4.50666L9.70727 13.5266C9.54727 14.2 8.94727 14.6666 8.25391 14.6666H13.8539C14.7139 14.6666 15.3939 13.94 15.3273 13.08L14.6673 4Z" fill="white"/>
<path d="M7.63282 1.49424C7.69949 1.22758 7.53282 0.95424 7.26616 0.887576C6.99949 0.827576 6.72616 0.987576 6.65951 1.25424L6.32617 2.63424H7.35282L7.63282 1.49424Z" fill="white"/>
<path d="M12.0339 1.47239C12.0939 1.19906 11.9205 0.939059 11.6473 0.879059C11.3805 0.819059 11.1139 0.992387 11.0539 1.26572L10.7539 2.64572H11.7805L12.0339 1.47239Z" fill="white"/>
<path d="M14.5458 3.55166C14.3258 3.01834 13.8058 2.63834 13.1658 2.63834H11.7792L11.4058 4.365C11.3526 4.59834 11.1458 4.75834 10.9192 4.75834C10.8858 4.75834 10.8458 4.75834 10.8126 4.745C10.5458 4.685 10.3726 4.41834 10.4258 4.15166L10.7526 2.63166H7.35255L6.93255 4.365C6.87922 4.59166 6.67255 4.745 6.44585 4.745C6.40585 4.745 6.36585 4.73834 6.32585 4.73166C6.05919 4.665 5.89252 4.39834 5.95919 4.125L6.31919 2.625H4.96585C4.31252 2.625 3.73252 3.05166 3.53919 3.67834L0.732517 12.7117C0.439187 13.6784 1.15252 14.665 2.15919 14.665H10.9192C11.6126 14.665 12.2126 14.1984 12.3726 13.525L14.6192 4.505C14.6592 4.33834 14.6726 4.17166 14.6592 4.01166C14.6458 3.85166 14.6126 3.69166 14.5458 3.55166ZM9.79921 11.165H4.46585C4.19252 11.165 3.96585 10.9384 3.96585 10.665C3.96585 10.3917 4.19252 10.165 4.46585 10.165H9.79921C10.0726 10.165 10.2992 10.3917 10.2992 10.665C10.2992 10.9384 10.0726 11.165 9.79921 11.165ZM10.4658 8.4984H5.13252C4.85919 8.4984 4.63252 8.27168 4.63252 7.99837C4.63252 7.72503 4.85919 7.49837 5.13252 7.49837H10.4658C10.7392 7.49837 10.9658 7.72503 10.9658 7.99837C10.9658 8.27168 10.7392 8.4984 10.4658 8.4984Z" fill="white"/>
</svg>
