<svg width="16" height="16" viewBox="0 0 16 16" fill="none" xmlns="http://www.w3.org/2000/svg">
<path d="M11.6941 5.87636C12.7838 5.87636 13.6673 4.99286 13.6673 3.90302C13.6673 2.81318 12.7838 1.92969 11.6941 1.92969C10.6041 1.92969 9.7207 2.81318 9.7207 3.90302C9.7207 4.99286 10.6041 5.87636 11.6941 5.87636Z" fill="white"/>
<path d="M4.30732 5.87636C5.39716 5.87636 6.28066 4.99286 6.28066 3.90302C6.28066 2.81318 5.39716 1.92969 4.30732 1.92969C3.21748 1.92969 2.33398 2.81318 2.33398 3.90302C2.33398 4.99286 3.21748 5.87636 4.30732 5.87636Z" fill="white"/>
<path d="M11.6941 14.0717C12.7838 14.0717 13.6673 13.1882 13.6673 12.0984C13.6673 11.0085 12.7838 10.125 11.6941 10.125C10.6041 10.125 9.7207 11.0085 9.7207 12.0984C9.7207 13.1882 10.6041 14.0717 11.6941 14.0717Z" fill="white"/>
<path d="M4.30732 14.0717C5.39716 14.0717 6.28066 13.1882 6.28066 12.0984C6.28066 11.0085 5.39716 10.125 4.30732 10.125C3.21748 10.125 2.33398 11.0085 2.33398 12.0984C2.33398 13.1882 3.21748 14.0717 4.30732 14.0717Z" fill="white"/>
</svg>
