<svg width="16" height="16" viewBox="0 0 16 16" fill="none" xmlns="http://www.w3.org/2000/svg">
<path d="M10.394 8.26664V10.98C10.394 11.22 10.3674 11.4466 10.3074 11.6534C10.0606 12.6334 9.24735 13.2466 8.12735 13.2466H6.31399L4.30066 14.5866C4.00066 14.7934 3.60066 14.5734 3.60066 14.2134V13.2466C2.92066 13.2466 2.35398 13.02 1.96066 12.6266C1.56066 12.2266 1.33398 11.66 1.33398 10.98V8.26664C1.33398 7 2.12066 6.12666 3.33398 6.01334C3.42066 6.00666 3.50732 6 3.60066 6H8.12735C9.48735 6 10.394 6.90666 10.394 8.26664Z" fill="white"/>
<path d="M11.834 10.4026C12.6806 10.4026 13.394 10.1226 13.8874 9.6226C14.3874 9.12924 14.6674 8.41596 14.6674 7.56927V4.16927C14.6674 2.6026 13.4006 1.33594 11.834 1.33594H6.16732C4.60066 1.33594 3.33398 2.6026 3.33398 4.16927V4.66927C3.33398 4.85594 3.48066 5.0026 3.66732 5.0026H8.12735C9.93399 5.0026 11.394 6.4626 11.394 8.26924V10.0692C11.394 10.256 11.5406 10.4026 11.7274 10.4026H11.834Z" fill="white"/>
</svg>
