<svg width="16" height="16" viewBox="0 0 16 16" fill="none" xmlns="http://www.w3.org/2000/svg">
<path d="M10.6674 1.3125H5.33398C2.66732 1.3125 1.33398 2.64584 1.33398 5.3125V8.64584C1.33398 11.9792 2.66732 12.6458 5.33398 12.6458H5.66732C5.85398 12.6458 6.09398 12.7658 6.20066 12.9125L7.20066 14.2458C7.64066 14.8325 8.36063 14.8325 8.80063 14.2458L9.80063 12.9125C9.92735 12.7458 10.1274 12.6458 10.334 12.6458H10.6674C13.334 12.6458 14.6674 11.3125 14.6674 8.64584V5.3125C14.6674 2.64584 13.334 1.3125 10.6674 1.3125ZM5.68732 8.11248C5.88066 8.30584 5.88066 8.62584 5.68732 8.8192C5.58732 8.9192 5.46066 8.96584 5.33398 8.96584C5.20732 8.96584 5.08066 8.9192 4.98066 8.8192L3.64732 7.48584C3.45398 7.2925 3.45398 6.9725 3.64732 6.77917L4.98066 5.44584C5.17398 5.2525 5.49398 5.2525 5.68732 5.44584C5.88066 5.63917 5.88066 5.95917 5.68732 6.1525L4.70732 7.1325L5.68732 8.11248ZM9.12735 5.7725L7.79398 8.88584C7.71398 9.07248 7.52732 9.18584 7.33398 9.18584C7.26732 9.18584 7.20066 9.17248 7.13398 9.14584C6.88066 9.0392 6.76066 8.74584 6.87398 8.48584L8.20735 5.37251C8.31399 5.11917 8.60735 4.99917 8.86735 5.1125C9.12063 5.22584 9.23399 5.51917 9.12735 5.7725ZM12.354 7.48584L11.0206 8.8192C10.9206 8.9192 10.794 8.96584 10.6674 8.96584C10.5406 8.96584 10.414 8.9192 10.314 8.8192C10.1206 8.62584 10.1206 8.30584 10.314 8.11248L11.294 7.1325L10.314 6.1525C10.1206 5.95917 10.1206 5.63917 10.314 5.44584C10.5074 5.2525 10.8274 5.2525 11.0206 5.44584L12.354 6.77917C12.5474 6.9725 12.5474 7.2925 12.354 7.48584Z" fill="white"/>
</svg>
