<svg width="16" height="16" viewBox="0 0 16 16" fill="none" xmlns="http://www.w3.org/2000/svg">
<path d="M11.334 1.33594H4.66732C2.82732 1.33594 1.33398 2.8226 1.33398 4.65594V8.6426V9.30924C1.33398 11.1426 2.82732 12.6292 4.66732 12.6292H5.66732C5.84732 12.6292 6.08732 12.7492 6.20066 12.896L7.20066 14.2226C7.64066 14.8092 8.36063 14.8092 8.80063 14.2226L9.80063 12.896C9.92735 12.7292 10.1274 12.6292 10.334 12.6292H11.334C13.174 12.6292 14.6674 11.1426 14.6674 9.30924V4.65594C14.6674 2.8226 13.174 1.33594 11.334 1.33594ZM5.33398 8.0026C4.96066 8.0026 4.66732 7.7026 4.66732 7.33594C4.66732 6.96927 4.96732 6.66927 5.33398 6.66927C5.70066 6.66927 6.00066 6.96927 6.00066 7.33594C6.00066 7.7026 5.70732 8.0026 5.33398 8.0026ZM8.00063 8.0026C7.62732 8.0026 7.33398 7.7026 7.33398 7.33594C7.33398 6.96927 7.63398 6.66927 8.00063 6.66927C8.36735 6.66927 8.66735 6.96927 8.66735 7.33594C8.66735 7.7026 8.37399 8.0026 8.00063 8.0026ZM10.6674 8.0026C10.294 8.0026 10.0006 7.7026 10.0006 7.33594C10.0006 6.96927 10.3006 6.66927 10.6674 6.66927C11.034 6.66927 11.334 6.96927 11.334 7.33594C11.334 7.7026 11.0406 8.0026 10.6674 8.0026Z" fill="white"/>
</svg>
