<svg width="16" height="16" viewBox="0 0 16 16" fill="none" xmlns="http://www.w3.org/2000/svg">
<path d="M10.6674 1.33594H5.33398C2.66732 1.33594 1.33398 2.66927 1.33398 5.33594V14.0026C1.33398 14.3692 1.63398 14.6692 2.00066 14.6692H10.6674C13.334 14.6692 14.6674 13.336 14.6674 10.6692V5.33594C14.6674 2.66927 13.334 1.33594 10.6674 1.33594ZM10.334 8.5026H8.50063V10.336C8.50063 10.6092 8.27399 10.836 8.00063 10.836C7.72732 10.836 7.50066 10.6092 7.50066 10.336V8.5026H5.66732C5.39398 8.5026 5.16732 8.27596 5.16732 8.0026C5.16732 7.72927 5.39398 7.5026 5.66732 7.5026H7.50066V5.66927C7.50066 5.39594 7.72732 5.16927 8.00063 5.16927C8.27399 5.16927 8.50063 5.39594 8.50063 5.66927V7.5026H10.334C10.6074 7.5026 10.834 7.72927 10.834 8.0026C10.834 8.27596 10.6074 8.5026 10.334 8.5026Z" fill="white"/>
</svg>
