<svg width="16" height="16" viewBox="0 0 16 16" fill="none" xmlns="http://www.w3.org/2000/svg">
<path d="M10.794 1.33594H5.20732C2.78066 1.33594 1.33398 2.7826 1.33398 5.20927V10.7892C1.33398 13.2226 2.78066 14.6692 5.20732 14.6692H10.7874C13.214 14.6692 14.6606 13.2226 14.6606 10.796V5.20927C14.6674 2.7826 13.2206 1.33594 10.794 1.33594ZM12.1874 8.60924C12.1874 8.7426 12.1806 8.87596 12.1674 9.0026C12.0474 10.416 11.214 11.1226 9.68063 11.1226H9.46735C9.33399 11.1226 9.20735 11.1826 9.13399 11.2892L8.50735 12.1292C8.22735 12.5026 7.78066 12.5026 7.50066 12.1292L6.87398 11.2892C6.80732 11.2026 6.65398 11.1226 6.54066 11.1226H6.32732C4.65398 11.1226 3.82066 10.7092 3.82066 8.61596V6.50927C3.82066 4.97594 4.52732 4.1426 5.94066 4.0226C6.05398 4.00927 6.18732 4.0026 6.32732 4.0026H9.68063C11.354 4.0026 12.1874 4.8426 12.1874 6.50927V8.60924Z" fill="white"/>
</svg>
