<svg width="16" height="16" viewBox="0 0 16 16" fill="none" xmlns="http://www.w3.org/2000/svg">
<path d="M11.334 1.33594H4.66732C2.82732 1.33594 1.33398 2.8226 1.33398 4.65594V8.6426V9.30924C1.33398 11.1426 2.82732 12.6292 4.66732 12.6292H5.66732C5.84732 12.6292 6.08732 12.7492 6.20066 12.896L7.20066 14.2226C7.64066 14.8092 8.36063 14.8092 8.80063 14.2226L9.80063 12.896C9.92735 12.7292 10.1274 12.6292 10.334 12.6292H11.334C13.174 12.6292 14.6674 11.1426 14.6674 9.30924V4.65594C14.6674 2.8226 13.174 1.33594 11.334 1.33594ZM8.66735 9.16924H4.66732C4.39398 9.16924 4.16732 8.9426 4.16732 8.66924C4.16732 8.39596 4.39398 8.16924 4.66732 8.16924H8.66735C8.94063 8.16924 9.16735 8.39596 9.16735 8.66924C9.16735 8.9426 8.94063 9.16924 8.66735 9.16924ZM11.334 5.83594H4.66732C4.39398 5.83594 4.16732 5.60927 4.16732 5.33594C4.16732 5.0626 4.39398 4.83594 4.66732 4.83594H11.334C11.6074 4.83594 11.834 5.0626 11.834 5.33594C11.834 5.60927 11.6074 5.83594 11.334 5.83594Z" fill="white"/>
</svg>
