<svg width="16" height="16" viewBox="0 0 16 16" fill="none" xmlns="http://www.w3.org/2000/svg">
<path d="M13.3334 4.5026C14.3458 4.5026 15.1666 3.68179 15.1666 2.66927C15.1666 1.65675 14.3458 0.835938 13.3334 0.835938C12.3208 0.835938 11.5 1.65675 11.5 2.66927C11.5 3.68179 12.3208 4.5026 13.3334 4.5026Z" fill="white"/>
<path d="M12.694 5.43594C11.6474 5.20927 10.794 4.35594 10.5674 3.30927C10.4806 2.9026 10.474 2.50927 10.5474 2.13594C10.634 1.7226 10.3274 1.33594 9.90063 1.33594H4.66732C2.82732 1.33594 1.33398 2.82927 1.33398 4.66927V9.3026C1.33398 11.1426 2.82732 12.636 4.66732 12.636H5.66732C5.85398 12.636 6.09398 12.756 6.20066 12.9026L7.20066 14.2292C7.64066 14.816 8.36063 14.816 8.80063 14.2292L9.80063 12.9026C9.92735 12.736 10.1206 12.636 10.334 12.636H11.3406C13.1806 12.636 14.6674 11.1492 14.6674 9.30924V6.1026C14.6674 5.6826 14.2806 5.37594 13.8674 5.45594C13.494 5.5226 13.1006 5.5226 12.694 5.43594ZM5.33398 8.0026C4.96066 8.0026 4.66732 7.7026 4.66732 7.33594C4.66732 6.96927 4.96066 6.66927 5.33398 6.66927C5.70066 6.66927 6.00066 6.96927 6.00066 7.33594C6.00066 7.7026 5.70732 8.0026 5.33398 8.0026ZM8.00063 8.0026C7.62732 8.0026 7.33398 7.7026 7.33398 7.33594C7.33398 6.96927 7.62732 6.66927 8.00063 6.66927C8.36735 6.66927 8.66735 6.96927 8.66735 7.33594C8.66735 7.7026 8.37399 8.0026 8.00063 8.0026ZM10.6674 8.0026C10.294 8.0026 10.0006 7.7026 10.0006 7.33594C10.0006 6.96927 10.294 6.66927 10.6674 6.66927C11.034 6.66927 11.334 6.96927 11.334 7.33594C11.334 7.7026 11.0406 8.0026 10.6674 8.0026Z" fill="white"/>
</svg>
