<svg width="16" height="16" viewBox="0 0 16 16" fill="none" xmlns="http://www.w3.org/2000/svg">
<path d="M8.00063 1.33594C4.32066 1.33594 1.33398 4.10261 1.33398 7.50927C1.33398 9.4426 2.29398 11.1626 3.78731 12.296V13.5292C3.78731 14.0426 4.33398 14.3626 4.78064 14.1092L6.02067 13.4092C6.64734 13.5892 7.30732 13.6826 7.99398 13.6826C11.674 13.6826 14.6606 10.916 14.6606 7.50927C14.6674 4.10261 11.6806 1.33594 8.00063 1.33594ZM10.3406 6.9626L8.67399 8.95596C8.56735 9.0826 8.39399 9.10924 8.25399 9.02924L7.58066 8.63596C7.50732 8.59596 7.42066 8.5826 7.33398 8.6026L5.99398 8.92924C5.68065 9.0026 5.45398 8.63596 5.66065 8.38924L7.35398 6.37594C7.45398 6.25594 7.62732 6.2226 7.76732 6.29594L8.55399 6.70927C8.62735 6.74927 8.71399 6.75594 8.79399 6.73594L10.0074 6.4226C10.314 6.3426 10.5474 6.71594 10.3406 6.9626Z" fill="white"/>
</svg>
