<svg width="16" height="16" viewBox="0 0 16 16" fill="none" xmlns="http://www.w3.org/2000/svg">
<path d="M8.00063 1.33594C4.32066 1.33594 1.33398 4.3226 1.33398 8.0026C1.33398 11.6826 4.32066 14.6692 8.00063 14.6692C11.6806 14.6692 14.6674 11.6826 14.6674 8.0026C14.6674 4.3226 11.6806 1.33594 8.00063 1.33594ZM11.5006 8.5426C11.5006 8.65596 11.494 8.7626 11.4806 8.86924C11.3806 10.0492 10.6806 10.636 9.40063 10.636H9.22735C9.12063 10.636 9.01399 10.6892 8.94735 10.776L8.42063 11.476C8.18735 11.7892 7.81398 11.7892 7.58066 11.476L7.05398 10.776C6.99398 10.7026 6.86732 10.636 6.77398 10.636H6.60066C5.20732 10.636 4.50066 10.2892 4.50066 8.53596V6.7826C4.50066 5.5026 5.09398 4.8026 6.26732 4.7026C6.37398 4.69594 6.48732 4.69594 6.60066 4.69594H9.40063C10.794 4.69594 11.5006 5.39594 11.5006 6.79594V8.5426Z" fill="white"/>
</svg>
