<svg width="16" height="16" viewBox="0 0 16 16" fill="none" xmlns="http://www.w3.org/2000/svg">
<path d="M11.334 1.33594H4.66732C2.82732 1.33594 1.33398 2.8226 1.33398 4.65594V8.6426V9.30924C1.33398 11.1426 2.82732 12.6292 4.66732 12.6292H5.66732C5.84732 12.6292 6.08732 12.7492 6.20066 12.896L7.20066 14.2226C7.64066 14.8092 8.36063 14.8092 8.80063 14.2226L9.80063 12.896C9.92735 12.7292 10.1274 12.6292 10.334 12.6292H11.334C13.174 12.6292 14.6674 11.1426 14.6674 9.30924V4.65594C14.6674 2.8226 13.174 1.33594 11.334 1.33594ZM10.4406 9.68924C10.3406 9.78924 10.214 9.83596 10.0874 9.83596C9.96063 9.83596 9.83399 9.78924 9.73399 9.68924L9.24063 9.19596C8.85399 9.44924 8.38735 9.6026 7.88732 9.6026C6.52732 9.6026 5.42066 8.49596 5.42066 7.13594C5.42066 5.77594 6.52066 4.66927 7.88732 4.66927C9.25399 4.66927 10.354 5.77594 10.354 7.13594C10.354 7.63594 10.2006 8.1026 9.94735 8.48924L10.4406 8.9826C10.634 9.17596 10.634 9.49596 10.4406 9.68924Z" fill="white"/>
</svg>
