<svg width="16" height="16" viewBox="0 0 16 16" fill="none" xmlns="http://www.w3.org/2000/svg">
<path d="M3.33268 9C1.85935 9 0.666016 10.1934 0.666016 11.6666C0.666016 12.1666 0.806017 12.64 1.05268 13.04C1.51268 13.8134 2.35935 14.3334 3.33268 14.3334C4.30602 14.3334 5.15268 13.8134 5.61268 13.04C5.85935 12.64 5.99935 12.1666 5.99935 11.6666C5.99935 10.1934 4.80602 9 3.33268 9ZM4.64602 11.4466L3.22602 12.76C3.13268 12.8466 3.00602 12.8934 2.88602 12.8934C2.75935 12.8934 2.63268 12.8466 2.53268 12.7466L1.87268 12.0866C1.67935 11.8934 1.67935 11.5734 1.87268 11.38C2.06602 11.1866 2.38602 11.1866 2.57935 11.38L2.89935 11.7L3.96602 10.7134C4.16602 10.5266 4.48602 10.54 4.67268 10.74C4.85935 10.94 4.84602 11.26 4.64602 11.4466Z" fill="white"/>
<path d="M11.5 1.61719H5.16666C3.26666 1.61719 2 2.88385 2 4.78385V7.7572C2 7.99052 2.24 8.15716 2.46666 8.09716C2.74666 8.03052 3.03334 7.9972 3.33334 7.9972C5.24 7.9972 6.81334 9.54388 6.98666 11.4172C7 11.6039 7.15334 11.7505 7.33334 11.7505H7.7L10.52 13.6305C10.9334 13.9105 11.5 13.6039 11.5 13.0972V11.7505C12.4466 11.7505 13.24 11.4305 13.7934 10.8839C14.3466 10.3239 14.6666 9.53052 14.6666 8.58388V4.78385C14.6666 2.88385 13.4 1.61719 11.5 1.61719ZM10.5534 7.20386H6.11334C5.85334 7.20386 5.64 6.99052 5.64 6.73052C5.64 6.46385 5.85334 6.25052 6.11334 6.25052H10.5534C10.8134 6.25052 11.0266 6.46385 11.0266 6.73052C11.0266 6.99052 10.8134 7.20386 10.5534 7.20386Z" fill="white"/>
</svg>
