<svg width="16" height="16" viewBox="0 0 16 16" fill="none" xmlns="http://www.w3.org/2000/svg">
<path d="M13.9794 0.664062H12.0194C11.1727 0.664062 10.666 1.17073 10.666 2.0174V3.9774C10.666 4.82406 11.1727 5.33073 12.0194 5.33073H13.9794C14.826 5.33073 15.3327 4.82406 15.3327 3.9774V2.0174C15.3327 1.17073 14.826 0.664062 13.9794 0.664062ZM14.406 3.1174C14.1594 3.90406 13.2994 4.33073 12.9994 4.33073C12.6994 4.33073 11.846 3.9174 11.5927 3.1174C11.5527 2.9974 11.5327 2.86406 11.5327 2.7374C11.5327 2.30406 11.7527 1.8574 12.2127 1.71073C12.486 1.62406 12.7794 1.67073 12.986 1.84406C13.1994 1.6774 13.4927 1.62406 13.7727 1.71073C14.386 1.90406 14.5794 2.59073 14.406 3.1174Z" fill="white"/>
<path d="M12.0206 6.33594C10.7206 6.33594 9.66735 5.2826 9.66735 3.9826V2.0026C9.66735 1.63594 9.36735 1.33594 9.00063 1.33594H4.66732C2.82732 1.33594 1.33398 2.8226 1.33398 4.65594V9.3026C1.33398 11.1426 2.82732 12.636 4.66732 12.636H5.66732C5.85398 12.636 6.09398 12.756 6.20066 12.9026L7.20066 14.2292C7.64066 14.816 8.36063 14.816 8.80063 14.2292L9.80063 12.9026C9.92735 12.736 10.1274 12.636 10.334 12.636H11.3406C13.1806 12.636 14.6674 11.1492 14.6674 9.30924V7.0026C14.6674 6.63594 14.3674 6.33594 14.0006 6.33594H12.0206ZM5.33398 8.0026C4.96066 8.0026 4.66732 7.7026 4.66732 7.33594C4.66732 6.96927 4.96066 6.66927 5.33398 6.66927C5.70066 6.66927 6.00066 6.96927 6.00066 7.33594C6.00066 7.7026 5.70732 8.0026 5.33398 8.0026ZM8.00063 8.0026C7.62732 8.0026 7.33398 7.7026 7.33398 7.33594C7.33398 6.96927 7.62732 6.66927 8.00063 6.66927C8.36735 6.66927 8.66735 6.96927 8.66735 7.33594C8.66735 7.7026 8.37399 8.0026 8.00063 8.0026Z" fill="white"/>
</svg>
