<svg width="16" height="16" viewBox="0 0 16 16" fill="none" xmlns="http://www.w3.org/2000/svg">
<path d="M3.47268 9.00522C2.74602 8.95858 1.99934 9.22522 1.44602 9.77858C0.406015 10.8186 0.406015 12.5052 1.44602 13.5519C1.79934 13.9052 2.23268 14.1386 2.69268 14.2519C2.94602 14.3186 3.21268 14.3386 3.47934 14.3252C4.11268 14.2986 4.73268 14.0452 5.21934 13.5586C5.90602 12.8719 6.13934 11.9052 5.91934 11.0319C5.81268 10.5719 5.57268 10.1386 5.21934 9.78522C4.73934 9.29858 4.11268 9.03858 3.47268 9.00522ZM4.82602 11.6519C4.82602 11.7919 4.77268 11.9119 4.67934 12.0052C4.58602 12.0986 4.46602 12.1519 4.32602 12.1519H3.83268V12.6719C3.83268 12.8119 3.77934 12.9319 3.68602 13.0252C3.59268 13.1186 3.47268 13.1719 3.33268 13.1719C3.05934 13.1719 2.83268 12.9452 2.83268 12.6719V12.1519H2.33268C2.05934 12.1519 1.83268 11.9252 1.83268 11.6519C1.83268 11.3786 2.05934 11.1519 2.33268 11.1519H2.83268V10.6786C2.83268 10.4052 3.05934 10.1786 3.33268 10.1786C3.60602 10.1786 3.83268 10.4052 3.83268 10.6786V11.1519H4.32602C4.60602 11.1519 4.82602 11.3786 4.82602 11.6519Z" fill="white"/>
<path d="M11.5 1.61719H5.16666C3.26666 1.61719 2 2.88385 2 4.78385V7.7572C2 7.99052 2.24 8.15716 2.46666 8.09716C2.74666 8.03052 3.03334 7.9972 3.33334 7.9972C5.24 7.9972 6.81334 9.54388 6.98666 11.4172C7 11.6039 7.15334 11.7505 7.33334 11.7505H7.7L10.52 13.6305C10.9334 13.9105 11.5 13.6039 11.5 13.0972V11.7505C12.4466 11.7505 13.24 11.4305 13.7934 10.8839C14.3466 10.3239 14.6666 9.53052 14.6666 8.58388V4.78385C14.6666 2.88385 13.4 1.61719 11.5 1.61719ZM10.5534 7.20386H6.11334C5.85334 7.20386 5.64 6.99052 5.64 6.73052C5.64 6.46385 5.85334 6.25052 6.11334 6.25052H10.5534C10.8134 6.25052 11.0266 6.46385 11.0266 6.73052C11.0266 6.99052 10.8134 7.20386 10.5534 7.20386Z" fill="white"/>
</svg>
