<svg width="16" height="16" viewBox="0 0 16 16" fill="none" xmlns="http://www.w3.org/2000/svg">
<path d="M11.334 1.61719H4.66732C2.66732 1.61719 1.33398 2.95052 1.33398 4.95052V8.95052C1.33398 10.9505 2.66732 12.2839 4.66732 12.2839V13.7039C4.66732 14.2372 5.26066 14.5572 5.70066 14.2572L8.66735 12.2839H11.334C13.334 12.2839 14.6674 10.9505 14.6674 8.95052V4.95052C14.6674 2.95052 13.334 1.61719 11.334 1.61719ZM8.00063 9.73052C7.72066 9.73052 7.50066 9.50388 7.50066 9.23052C7.50066 8.95716 7.72066 8.73052 8.00063 8.73052C8.28063 8.73052 8.50063 8.95716 8.50063 9.23052C8.50063 9.50388 8.28063 9.73052 8.00063 9.73052ZM8.84063 6.96386C8.58063 7.1372 8.50063 7.25052 8.50063 7.4372V7.5772C8.50063 7.85052 8.27399 8.07716 8.00063 8.07716C7.72732 8.07716 7.50066 7.85052 7.50066 7.5772V7.4372C7.50066 6.66385 8.06735 6.28385 8.28063 6.13719C8.52735 5.97052 8.60735 5.85719 8.60735 5.68385C8.60735 5.35052 8.33399 5.07719 8.00063 5.07719C7.66732 5.07719 7.39398 5.35052 7.39398 5.68385C7.39398 5.95719 7.16732 6.18385 6.89398 6.18385C6.62066 6.18385 6.39398 5.95719 6.39398 5.68385C6.39398 4.79719 7.11398 4.07719 8.00063 4.07719C8.88735 4.07719 9.60735 4.79719 9.60735 5.68385C9.60735 6.44385 9.04735 6.82386 8.84063 6.96386Z" fill="white"/>
</svg>
