<svg width="16" height="16" viewBox="0 0 16 16" fill="none" xmlns="http://www.w3.org/2000/svg">
<path d="M8.79399 4H4.52732C4.35398 4 4.18732 4.00666 4.02732 4.02666C2.23398 4.18 1.33398 5.24 1.33398 7.19334V9.86C1.33398 12.5266 2.40066 13.0534 4.52732 13.0534H4.79398C4.94066 13.0534 5.13398 13.1534 5.22066 13.2666L6.02066 14.3334C6.37398 14.8066 6.94732 14.8066 7.30066 14.3334L8.10063 13.2666C8.20063 13.1334 8.36063 13.0534 8.52735 13.0534H8.79399C10.7474 13.0534 11.8074 12.16 11.9606 10.36C11.9806 10.2 11.9874 10.0334 11.9874 9.86V7.19334C11.9874 5.06666 10.9206 4 8.79399 4ZM4.33398 9.33336C3.96066 9.33336 3.66732 9.03336 3.66732 8.66664C3.66732 8.3 3.96732 8 4.33398 8C4.70066 8 5.00066 8.3 5.00066 8.66664C5.00066 9.03336 4.70066 9.33336 4.33398 9.33336ZM6.66066 9.33336C6.28732 9.33336 5.99398 9.03336 5.99398 8.66664C5.99398 8.3 6.29398 8 6.66066 8C7.02732 8 7.32732 8.3 7.32732 8.66664C7.32732 9.03336 7.03398 9.33336 6.66066 9.33336ZM8.99399 9.33336C8.62063 9.33336 8.32735 9.03336 8.32735 8.66664C8.32735 8.3 8.62735 8 8.99399 8C9.36063 8 9.66063 8.3 9.66063 8.66664C9.66063 9.03336 9.36063 9.33336 8.99399 9.33336Z" fill="white"/>
<path d="M14.6542 4.52927V7.19594C14.6542 8.52924 14.2408 9.43596 13.4142 9.93596C13.2142 10.056 12.9808 9.89596 12.9808 9.6626L12.9874 7.19594C12.9874 4.52927 11.4608 3.0026 8.79415 3.0026L4.73415 3.00927C4.50082 3.00927 4.34082 2.77594 4.46082 2.57594C4.96082 1.74927 5.86748 1.33594 7.19412 1.33594H11.4608C13.5874 1.33594 14.6542 2.4026 14.6542 4.52927Z" fill="white"/>
</svg>
