<svg width="16" height="16" viewBox="0 0 16 16" fill="none" xmlns="http://www.w3.org/2000/svg">
<path d="M14.6666 8.5717C14.6666 10.0983 13.8799 11.4517 12.6666 12.3051L11.7733 14.2717C11.5666 14.7183 10.9666 14.8051 10.6533 14.4251L9.66663 13.2383C8.42663 13.2383 7.2866 12.8183 6.41992 12.1183L6.81994 11.6451C9.89991 11.4117 12.3333 8.9717 12.3333 5.99839C12.3333 5.49173 12.2599 4.99173 12.1266 4.51172C13.6399 5.31173 14.6666 6.8317 14.6666 8.5717Z" fill="white"/>
<path d="M10.8674 4.04927C10.0874 2.44927 8.34735 1.33594 6.33398 1.33594C3.57398 1.33594 1.33398 3.4226 1.33398 6.0026C1.33398 7.52927 2.12066 8.8826 3.33398 9.73596L4.22732 11.7026C4.43398 12.1492 5.03398 12.2292 5.34732 11.856L5.71398 11.416L6.33398 10.6692C9.09399 10.6692 11.334 8.5826 11.334 6.0026C11.334 5.3026 11.1674 4.6426 10.8674 4.04927ZM8.00063 6.5026H4.66732C4.39398 6.5026 4.16732 6.27594 4.16732 6.0026C4.16732 5.72927 4.39398 5.5026 4.66732 5.5026H8.00063C8.27399 5.5026 8.50063 5.72927 8.50063 6.0026C8.50063 6.27594 8.27399 6.5026 8.00063 6.5026Z" fill="white"/>
</svg>
