<svg width="16" height="16" viewBox="0 0 16 16" fill="none" xmlns="http://www.w3.org/2000/svg">
<path d="M12.3142 11.2226L12.5742 13.3292C12.641 13.8826 12.0476 14.2692 11.5742 13.9826L9.26759 12.6092C9.10759 12.516 9.06759 12.316 9.15423 12.156C9.48759 11.5426 9.66759 10.8492 9.66759 10.156C9.66759 7.71594 7.57426 5.72927 5.0009 5.72927C4.47424 5.72927 3.9609 5.80927 3.4809 5.96927C3.23424 6.04927 2.99424 5.8226 3.05424 5.56927C3.6609 3.1426 5.99424 1.33594 8.78095 1.33594C12.0342 1.33594 14.6676 3.79594 14.6676 6.82927C14.6676 8.62924 13.741 10.2226 12.3142 11.2226Z" fill="white"/>
<path d="M8.66735 10.1532C8.66735 10.9466 8.37399 11.6799 7.88066 12.2599C7.22066 13.0599 6.17398 13.5732 5.00066 13.5732L3.26066 14.6065C2.96732 14.7865 2.59398 14.5399 2.63398 14.1999L2.80066 12.8865C1.90732 12.2665 1.33398 11.2732 1.33398 10.1532C1.33398 8.97988 1.96066 7.94656 2.92066 7.33323C3.51398 6.94656 4.22732 6.72656 5.00066 6.72656C7.02732 6.72656 8.66735 8.25988 8.66735 10.1532Z" fill="white"/>
</svg>
