<svg width="16" height="16" viewBox="0 0 16 16" fill="none" xmlns="http://www.w3.org/2000/svg">
<path d="M11.334 1.61719H4.66732C2.66732 1.61719 1.33398 2.95052 1.33398 4.95052V8.95052C1.33398 10.9505 2.66732 12.2839 4.66732 12.2839H7.33398L10.3006 14.2572C10.7406 14.5505 11.334 14.2372 11.334 13.7039V12.2839C13.334 12.2839 14.6674 10.9505 14.6674 8.95052V4.95052C14.6674 2.95052 13.334 1.61719 11.334 1.61719ZM10.334 7.4972H5.66732C5.39398 7.4972 5.16732 7.27052 5.16732 6.9972C5.16732 6.72386 5.39398 6.49719 5.66732 6.49719H10.334C10.6074 6.49719 10.834 6.72386 10.834 6.9972C10.834 7.27052 10.6074 7.4972 10.334 7.4972Z" fill="white"/>
</svg>
