<svg width="16" height="16" viewBox="0 0 16 16" fill="none" xmlns="http://www.w3.org/2000/svg">
<path d="M3.33268 9C2.70602 9 2.12602 9.22 1.66602 9.58664C1.05268 10.0734 0.666016 10.8266 0.666016 11.6666C0.666016 13.14 1.85935 14.3334 3.33268 14.3334C4.00602 14.3334 4.61935 14.08 5.09268 13.6666C5.64602 13.18 5.99935 12.4666 5.99935 11.6666C5.99935 10.1934 4.80602 9 3.33268 9ZM3.99935 11.8334C3.99935 12.0066 3.90602 12.1734 3.75935 12.26L2.92602 12.76C2.84602 12.8134 2.75268 12.8334 2.66602 12.8334C2.49935 12.8334 2.33268 12.7466 2.23935 12.5934C2.09935 12.3534 2.17268 12.0466 2.41268 11.9066L3.00602 11.5534V10.8334C3.00602 10.56 3.23268 10.3334 3.50602 10.3334C3.77935 10.3334 3.99935 10.56 3.99935 10.8334V11.8334Z" fill="white"/>
<path d="M11.5 1.61719H5.16666C3.26666 1.61719 2 2.88385 2 4.78385V7.7572C2 7.99052 2.24 8.15716 2.46666 8.09716C2.74666 8.03052 3.03334 7.9972 3.33334 7.9972C5.24 7.9972 6.81334 9.54388 6.98666 11.4172C7 11.6039 7.15334 11.7505 7.33334 11.7505H7.7L10.52 13.6305C10.9334 13.9105 11.5 13.6039 11.5 13.0972V11.7505C12.4466 11.7505 13.24 11.4305 13.7934 10.8839C14.3466 10.3239 14.6666 9.53052 14.6666 8.58388V4.78385C14.6666 2.88385 13.4 1.61719 11.5 1.61719ZM10.5534 7.20386H6.11334C5.85334 7.20386 5.64 6.99052 5.64 6.73052C5.64 6.46385 5.85334 6.25052 6.11334 6.25052H10.5534C10.8134 6.25052 11.0266 6.46385 11.0266 6.73052C11.0266 6.99052 10.8134 7.20386 10.5534 7.20386Z" fill="white"/>
</svg>
