<svg width="16" height="16" viewBox="0 0 16 16" fill="none" xmlns="http://www.w3.org/2000/svg">
<path d="M10.6674 1.33594H5.33398C2.66732 1.33594 1.33398 2.66927 1.33398 5.33594V14.0026C1.33398 14.3692 1.63398 14.6692 2.00066 14.6692H10.6674C13.334 14.6692 14.6674 13.336 14.6674 10.6692V5.33594C14.6674 2.66927 13.334 1.33594 10.6674 1.33594ZM9.33399 10.1692H4.66732C4.39398 10.1692 4.16732 9.9426 4.16732 9.66924C4.16732 9.39596 4.39398 9.16924 4.66732 9.16924H9.33399C9.60735 9.16924 9.83399 9.39596 9.83399 9.66924C9.83399 9.9426 9.60735 10.1692 9.33399 10.1692ZM11.334 6.83594H4.66732C4.39398 6.83594 4.16732 6.60927 4.16732 6.33594C4.16732 6.0626 4.39398 5.83594 4.66732 5.83594H11.334C11.6074 5.83594 11.834 6.0626 11.834 6.33594C11.834 6.60927 11.6074 6.83594 11.334 6.83594Z" fill="white"/>
</svg>
