<svg width="16" height="16" viewBox="0 0 16 16" fill="none" xmlns="http://www.w3.org/2000/svg">
<path d="M10.6674 1.33594H5.33398C2.66732 1.33594 1.33398 2.66927 1.33398 5.33594V14.0026C1.33398 14.3692 1.63398 14.6692 2.00066 14.6692H10.6674C13.334 14.6692 14.6674 13.336 14.6674 10.6692V5.33594C14.6674 2.66927 13.334 1.33594 10.6674 1.33594ZM7.40732 11.1092C7.24066 11.276 6.93398 11.4292 6.70732 11.4626L5.32066 11.656C5.26732 11.6626 5.21398 11.6692 5.16732 11.6692C4.93398 11.6692 4.72066 11.5892 4.56732 11.436C4.38066 11.2492 4.30066 10.976 4.34732 10.6826L4.54066 9.29596C4.57398 9.06924 4.72732 8.75596 4.89398 8.59596L7.40732 6.0826C7.44732 6.2026 7.50066 6.3226 7.56066 6.45594C7.62066 6.57594 7.68066 6.69594 7.74732 6.80927C7.80066 6.9026 7.86066 6.99594 7.91398 7.0626C7.98066 7.1626 8.04735 7.24927 8.09399 7.29594C8.12063 7.33594 8.14735 7.3626 8.15399 7.37594C8.30063 7.5426 8.45399 7.7026 8.60063 7.8226C8.64063 7.8626 8.66735 7.8826 8.67399 7.88927C8.76063 7.95594 8.84063 8.02924 8.92063 8.07596C9.00735 8.1426 9.10063 8.2026 9.19399 8.25596C9.30735 8.3226 9.42735 8.38924 9.55399 8.44924C9.68063 8.50924 9.80063 8.55596 9.92063 8.59596L7.40732 11.1092ZM11.034 7.48927L10.514 8.00924C10.4806 8.0426 10.434 8.0626 10.3874 8.0626C10.374 8.0626 10.3474 8.0626 10.334 8.05596C9.18735 7.72927 8.27399 6.81594 7.94732 5.66927C7.92732 5.60927 7.94732 5.5426 7.99398 5.49594L8.52063 4.96927C9.38063 4.10927 10.194 4.12927 11.034 4.96927C11.4606 5.39594 11.674 5.80927 11.6674 6.23594C11.6674 6.65594 11.4606 7.0626 11.034 7.48927Z" fill="white"/>
</svg>
