<svg width="16" height="16" viewBox="0 0 16 16" fill="none" xmlns="http://www.w3.org/2000/svg">
<path d="M5.31268 9.88664C4.83268 9.34 4.11935 9 3.33268 9C1.85935 9 0.666016 10.1934 0.666016 11.6666C0.666016 12.1666 0.806017 12.64 1.05268 13.04C1.18602 13.2666 1.35935 13.4734 1.55935 13.6466C2.02602 14.0734 2.64602 14.3334 3.33268 14.3334C4.30602 14.3334 5.15268 13.8134 5.61268 13.04C5.85935 12.64 5.99935 12.1666 5.99935 11.6666C5.99935 10.9866 5.73935 10.36 5.31268 9.88664ZM4.39935 12.72C4.29935 12.82 4.17268 12.8666 4.04602 12.8666C3.91935 12.8666 3.79268 12.82 3.69268 12.72L3.33935 12.3666L2.97268 12.7334C2.87268 12.8334 2.74602 12.88 2.61935 12.88C2.49268 12.88 2.36602 12.8334 2.26602 12.7334C2.07268 12.54 2.07268 12.22 2.26602 12.0266L2.63268 11.66L2.27935 11.3066C2.08602 11.1134 2.08602 10.7934 2.27935 10.6C2.47268 10.4066 2.79268 10.4066 2.98602 10.6L3.33935 10.9534L3.67268 10.62C3.86602 10.4266 4.18602 10.4266 4.37935 10.62C4.57268 10.8134 4.57268 11.1334 4.37935 11.3266L4.04602 11.66L4.39935 12.0134C4.59268 12.2066 4.59268 12.52 4.39935 12.72Z" fill="white"/>
<path d="M11.5 1.61719H5.16666C3.26666 1.61719 2 2.88385 2 4.78385V7.7572C2 7.99052 2.24 8.15716 2.46666 8.09716C2.74666 8.03052 3.03334 7.9972 3.33334 7.9972C5.24 7.9972 6.81334 9.54388 6.98666 11.4172C7 11.6039 7.15334 11.7505 7.33334 11.7505H7.7L10.52 13.6305C10.9334 13.9105 11.5 13.6039 11.5 13.0972V11.7505C12.4466 11.7505 13.24 11.4305 13.7934 10.8839C14.3466 10.3239 14.6666 9.53052 14.6666 8.58388V4.78385C14.6666 2.88385 13.4 1.61719 11.5 1.61719ZM10.5534 7.20386H6.11334C5.85334 7.20386 5.64 6.99052 5.64 6.73052C5.64 6.46385 5.85334 6.25052 6.11334 6.25052H10.5534C10.8134 6.25052 11.0266 6.46385 11.0266 6.73052C11.0266 6.99052 10.8134 7.20386 10.5534 7.20386Z" fill="white"/>
</svg>
