<svg width="16" height="16" viewBox="0 0 16 16" fill="none" xmlns="http://www.w3.org/2000/svg">
<path d="M10.9461 4.27976V5.0531L6.09273 9.90642C5.45273 9.32642 5.05273 8.47306 5.05273 7.55973V4.27976C5.05273 2.90644 5.98606 1.76644 7.25274 1.43976C7.37941 1.40644 7.49941 1.5131 7.49941 1.63976V2.66644C7.49941 2.93976 7.72608 3.16644 7.99941 3.16644C8.27273 3.16644 8.49945 2.93976 8.49945 2.66644V1.63976C8.49945 1.5131 8.61945 1.40644 8.74609 1.43976C10.0127 1.76644 10.9461 2.90644 10.9461 4.27976Z" fill="white"/>
<path d="M13.2059 6.54203V7.60202C13.2059 10.3153 11.1192 12.5487 8.46585 12.782V14.202C8.46585 14.462 8.25921 14.6687 7.99921 14.6687C7.73921 14.6687 7.53255 14.462 7.53255 14.202V12.782C6.80588 12.7153 6.1192 12.502 5.50586 12.162L6.19253 11.4753C6.73921 11.7287 7.35255 11.8753 7.99921 11.8753C10.3592 11.8753 12.2792 9.95534 12.2792 7.60202V6.54203C12.2792 6.2887 12.4859 6.08203 12.7459 6.08203C12.9992 6.08203 13.2059 6.2887 13.2059 6.54203Z" fill="white"/>
<path d="M10.9468 6.71875V7.68541C10.9468 9.40544 9.4668 10.7854 7.70682 10.6187C7.52016 10.5987 7.33348 10.5654 7.16016 10.5054L10.9468 6.71875Z" fill="white"/>
<path d="M14.5134 1.48594C14.3134 1.28594 13.9867 1.28594 13.7867 1.48594L4.82008 10.4526C4.13341 9.69932 3.72008 8.69932 3.72008 7.59929V6.53927C3.72008 6.28594 3.51341 6.07927 3.25341 6.07927C3.00008 6.07927 2.79341 6.28594 2.79341 6.53927V7.59929C2.79341 8.9526 3.31341 10.186 4.16008 11.1126L1.48008 13.7926C1.28008 13.9926 1.28008 14.3193 1.48008 14.5193C1.58674 14.6126 1.71341 14.666 1.84674 14.666C1.98008 14.666 2.10674 14.6126 2.20674 14.5126L14.5134 2.20594C14.7201 2.00594 14.7201 1.68594 14.5134 1.48594Z" fill="white"/>
</svg>
