<svg width="16" height="16" viewBox="0 0 16 16" fill="none" xmlns="http://www.w3.org/2000/svg">
<path d="M5.59961 3.20078C5.59961 1.8753 6.67413 0.800781 7.99961 0.800781C9.32513 0.800781 10.3996 1.8753 10.3996 3.20078V8.00078C10.3996 9.3263 9.32513 10.4008 7.99961 10.4008C6.67413 10.4008 5.59961 9.3263 5.59961 8.00078V3.20078Z" fill="#0F172A"/>
<path d="M4.39922 7.71328C4.39922 7.38191 4.13059 7.11328 3.79922 7.11328C3.46785 7.11328 3.19922 7.38191 3.19922 7.71328V7.999C3.19922 10.4468 5.03143 12.4666 7.39922 12.7618V13.999H6.19922C5.86785 13.999 5.59922 14.2677 5.59922 14.599C5.59922 14.9304 5.86785 15.199 6.19922 15.199H9.79922C10.1306 15.199 10.3992 14.9304 10.3992 14.599C10.3992 14.2677 10.1306 13.999 9.79922 13.999H8.59922V12.7618C10.967 12.4666 12.7992 10.4468 12.7992 7.999V7.71328C12.7992 7.38191 12.5306 7.11328 12.1992 7.11328C11.8679 7.11328 11.5992 7.38191 11.5992 7.71328V7.999C11.5992 9.98719 9.98746 11.599 7.99922 11.599C6.01099 11.599 4.39922 9.98719 4.39922 7.999V7.71328Z" fill="#0F172A"/>
</svg>
