<svg width="16" height="16" viewBox="0 0 16 16" fill="none" xmlns="http://www.w3.org/2000/svg">
<path d="M12.7471 6.08088C12.4871 6.08088 12.2805 6.28755 12.2805 6.54755V7.60092C12.2805 9.9609 10.3605 11.8809 8.00047 11.8809C5.64044 11.8809 3.72045 9.9609 3.72045 7.60092V6.54088C3.72045 6.28088 3.51377 6.07422 3.25377 6.07422C2.99377 6.07422 2.78711 6.28088 2.78711 6.54088V7.59425C2.78711 10.3076 4.87377 12.5409 7.53378 12.7809V14.2009C7.53378 14.4609 7.74045 14.6676 8.00047 14.6676C8.26047 14.6676 8.46711 14.4609 8.46711 14.2009V12.7809C11.1205 12.5476 13.2137 10.3076 13.2137 7.59425V6.54088C13.2071 6.28755 13.0005 6.08088 12.7471 6.08088Z" fill="white"/>
<path d="M7.99941 1.33594C6.37273 1.33594 5.05273 2.65594 5.05273 4.2826V7.69594C5.05273 9.3226 6.37273 10.6426 7.99941 10.6426C9.62609 10.6426 10.9461 9.3226 10.9461 7.69594V4.2826C10.9461 2.65594 9.62609 1.33594 7.99941 1.33594ZM8.87273 5.96927C8.82609 6.1426 8.67273 6.25594 8.49945 6.25594C8.46609 6.25594 8.43273 6.24927 8.39945 6.2426C8.13945 6.16927 7.86608 6.16927 7.60608 6.2426C7.39274 6.3026 7.18608 6.17594 7.13274 5.96927C7.07274 5.7626 7.19941 5.54927 7.40608 5.49594C7.79941 5.38927 8.21273 5.38927 8.60609 5.49594C8.80609 5.54927 8.92609 5.7626 8.87273 5.96927ZM9.22609 4.67594C9.16609 4.83594 9.01945 4.92927 8.85945 4.92927C8.81273 4.92927 8.77273 4.9226 8.72609 4.90927C8.25945 4.73594 7.73941 4.73594 7.27274 4.90927C7.07274 4.9826 6.84608 4.87594 6.77274 4.67594C6.69941 4.47594 6.80608 4.24927 7.00608 4.1826C7.64608 3.94927 8.35273 3.94927 8.99273 4.1826C9.19273 4.25594 9.29945 4.47594 9.22609 4.67594Z" fill="white"/>
</svg>
