<svg width="16" height="16" viewBox="0 0 16 16" fill="none" xmlns="http://www.w3.org/2000/svg">
<path d="M11.7466 3.81594L4.67326 10.8892C4.18659 10.2292 3.91992 9.4226 3.91992 8.54924V5.40927C3.91992 4.1826 4.46659 3.0826 5.33326 2.33594V5.09594C5.33326 5.35594 5.54659 5.56927 5.79992 5.56927C6.05992 5.56927 6.27326 5.35594 6.27326 5.09594V1.71594C6.57992 1.5626 6.9066 1.45594 7.2466 1.39594V3.83594C7.2466 4.1026 7.45994 4.30927 7.71994 4.30927C7.97994 4.30927 8.19327 4.1026 8.19327 3.83594V1.33594C9.78663 1.40927 11.1599 2.40927 11.7466 3.81594Z" fill="white"/>
<path d="M12.0795 5.91797V8.54466C12.0795 10.7913 10.2462 12.6247 7.99948 12.6247C7.87948 12.6247 7.75949 12.618 7.63949 12.6047C7.58615 12.6047 7.53281 12.598 7.48615 12.5913C7.39948 12.578 7.31281 12.5647 7.23281 12.5513C7.19949 12.5513 7.17281 12.538 7.13281 12.5313C7.03949 12.5113 6.94615 12.4847 6.85948 12.458C6.71281 12.418 6.57279 12.3647 6.43945 12.3113C6.35279 12.278 6.27279 12.2447 6.19279 12.198C6.17279 12.1913 6.15945 12.178 6.13945 12.1713C6.07279 12.138 6.00613 12.1047 5.93945 12.058L12.0795 5.91797Z" fill="white"/>
<path d="M14.4991 7.33594V8.66924C14.4991 12.256 11.5859 15.1692 7.99915 15.1692C6.58581 15.1692 5.23248 14.716 4.11914 13.8826L4.83914 13.1626C5.75914 13.816 6.85248 14.1692 7.99915 14.1692C11.0325 14.1692 13.4991 11.7026 13.4991 8.66924V7.33594C13.4991 7.0626 13.7259 6.83594 13.9991 6.83594C14.2725 6.83594 14.4991 7.0626 14.4991 7.33594Z" fill="white"/>
<path d="M14.5126 1.48594C14.3126 1.28594 13.9859 1.28594 13.7859 1.48594L1.48594 13.7926C1.28594 13.9926 1.28594 14.3193 1.48594 14.5193C1.58594 14.6126 1.7126 14.666 1.84594 14.666C1.97927 14.666 2.10594 14.6126 2.20594 14.5126L14.5126 2.20594C14.7193 2.00594 14.7193 1.68594 14.5126 1.48594Z" fill="white"/>
</svg>
