<svg width="16" height="16" viewBox="0 0 16 16" fill="none" xmlns="http://www.w3.org/2000/svg">
<path d="M9.89311 7.26837L13.6665 4.74168C14.0465 4.48835 14.1465 3.96835 13.8931 3.59502L12.6797 1.78835C12.4265 1.40835 11.9065 1.30835 11.5331 1.56168L7.75977 4.08835L9.89311 7.26837Z" fill="white"/>
<path d="M9.68047 6.94509L8.50711 7.73177L6.72712 8.92508L6.49377 9.07844L6.38711 8.91844L4.89377 6.69177L4.78711 6.53177L7.97378 4.39844L9.68047 6.94509Z" fill="white"/>
<path d="M3.76072 10.682L6.39405 8.92196L4.90072 6.69531L2.26738 8.45532C1.96072 8.66196 1.88072 9.07532 2.08738 9.38196L2.84072 10.502C3.04072 10.8087 3.45405 10.8887 3.76072 10.682Z" fill="white"/>
<path d="M11.0409 14.541C10.9742 14.5677 10.9009 14.5877 10.8342 14.5877C10.6409 14.5877 10.4609 14.4744 10.3742 14.2877L7.88759 8.7944L5.36757 14.2944C5.28091 14.4744 5.10091 14.5877 4.90757 14.5877C4.84091 14.5877 4.76757 14.5677 4.70091 14.541C4.45424 14.421 4.34091 14.1277 4.45424 13.8744L6.72759 8.92768L8.50758 7.73438L11.2876 13.881C11.4009 14.1277 11.2876 14.4277 11.0409 14.541Z" fill="white"/>
</svg>
