<svg width="16" height="16" viewBox="0 0 16 16" fill="none" xmlns="http://www.w3.org/2000/svg">
<path d="M12 10.6681V12.6681C12 13.7681 11.1 14.6681 10 14.6681H6C4.9 14.6681 4 13.7681 4 12.6681V9.99476C4 9.62812 4.3 9.32812 4.67334 9.32812L6.59334 9.33476C7.05334 9.33476 7.50666 9.43476 7.92666 9.63476C8.38664 9.84812 8.87336 10.0014 9.38664 10.0014H11.3334C11.7 10.0014 12 10.3014 12 10.6681Z" fill="white"/>
<path d="M11.6066 6.27594L10.1934 4.8626C10.0666 4.73594 10 4.56927 10 4.39594V3.27594C10.3866 3.1426 10.6666 2.76927 10.6666 2.33594C10.6666 1.7826 10.22 1.33594 9.66664 1.33594H6.33334C5.78 1.33594 5.33334 1.7826 5.33334 2.33594C5.33334 2.76927 5.61334 3.1426 6 3.27594V4.39594C6 4.56927 5.93334 4.73594 5.80666 4.8626L4.39334 6.27594C4.18 6.48927 4 6.9226 4 7.2226V7.65594C4 8.0226 4.29334 8.3226 4.66 8.3226L6.6 8.33596C7.25334 8.33596 7.91334 8.49596 8.5 8.8026C8.78 8.94924 9.1 9.0026 9.41336 9.0026H11.3334C11.7 9.0026 12 8.7026 12 8.33596V7.2226C12 6.9226 11.82 6.48927 11.6066 6.27594Z" fill="white"/>
</svg>
