<svg width="16" height="16" viewBox="0 0 16 16" fill="none" xmlns="http://www.w3.org/2000/svg">
<path opacity="0.4" d="M13.8065 11.6797C13.5598 12.493 13.0732 13.1197 12.3798 13.5063C12.3532 13.3997 12.3398 13.2863 12.3398 13.173C12.3398 12.3597 12.9998 11.693 13.8065 11.6797Z" fill="white"/>
<path d="M14.0006 5.01594V6.32525C14.0006 6.6736 13.7246 6.95554 13.3874 7.0426L11.4206 7.58927C10.3806 7.85594 9.68735 8.75596 9.68735 9.82924V10.8592C9.68735 11.1756 9.45887 11.4396 9.17479 11.5788C8.49775 11.9105 7.98052 12.5836 7.78532 13.3431C7.69366 13.6996 7.40218 14.0026 7.03398 14.0026H5.01398C2.71398 14.0026 1.33398 12.6292 1.33398 10.3226V5.01594C1.33398 2.70927 2.71398 1.33594 5.01398 1.33594H10.3206C12.6206 1.33594 14.0006 2.70927 14.0006 5.01594Z" fill="white"/>
<path d="M14.8734 8.16472C14.7 8.03808 14.42 7.90473 14 7.94473C13.8934 7.95139 13.78 7.97139 13.6534 8.00472L11.6667 8.55136C11.0734 8.70472 10.6867 9.20472 10.6867 9.82472V12.4314C10.5334 12.3781 10.3667 12.3447 10.1934 12.3447C9.36672 12.3447 8.69336 13.0114 8.69336 13.8381C8.69336 13.8914 8.69336 13.9447 8.7 13.9981C8.78 14.7447 9.42 15.3314 10.1934 15.3314C11.0067 15.3314 11.6667 14.6714 11.68 13.8647C11.68 13.8514 11.6867 13.8447 11.6867 13.8381V11.3781L13.9867 10.7447L14.3334 10.6514V11.7714C14.18 11.7181 14.0134 11.6781 13.8334 11.6781H13.8067C13 11.6914 12.34 12.3581 12.34 13.1714C12.34 13.2847 12.3534 13.3981 12.38 13.5047C12.5334 14.1714 13.1267 14.6714 13.8334 14.6714C14.6534 14.6714 15.3134 14.0114 15.3267 13.1981C15.3267 13.1914 15.3334 13.1847 15.3334 13.1714V9.28472C15.3334 8.77808 15.18 8.40472 14.8734 8.16472ZM10.1934 14.3314C9.97336 14.3314 9.78672 14.1914 9.72672 13.9981C9.7 13.9514 9.69336 13.8914 9.69336 13.8381C9.69336 13.5647 9.92 13.3447 10.1934 13.3447C10.46 13.3447 10.6867 13.5647 10.6867 13.8381C10.6867 13.8914 10.68 13.9381 10.66 13.9847C10.6 14.1847 10.4134 14.3314 10.1934 14.3314ZM13.8334 13.6714C13.5667 13.6714 13.34 13.4447 13.34 13.1714C13.34 12.9047 13.5667 12.6781 13.8334 12.6781C14.1067 12.6781 14.3334 12.9047 14.3334 13.1714C14.3334 13.4447 14.1067 13.6714 13.8334 13.6714Z" fill="white"/>
</svg>
