<svg width="16" height="16" viewBox="0 0 16 16" fill="none" xmlns="http://www.w3.org/2000/svg">
<path d="M11.334 2H4.66732C2.82732 2 1.33398 3.49334 1.33398 5.33334V6V10.6666C1.33398 12.5066 2.82732 14 4.66732 14H10.6674H11.334C13.174 14 14.6674 12.5066 14.6674 10.6666V5.33334C14.6674 3.49334 13.174 2 11.334 2ZM6.99398 11.2066C6.97398 11.2066 6.95398 11.2134 6.92732 11.2134C6.68066 11.2134 6.46732 11.0266 6.43398 10.78C6.34732 10.1 5.85398 9.60664 5.17398 9.52C4.90066 9.48664 4.70732 9.23336 4.74066 8.96C4.77398 8.68664 5.02732 8.49336 5.30066 8.52664C6.42732 8.67336 7.28066 9.52664 7.42732 10.6534C7.46066 10.92 7.26732 11.1734 6.99398 11.2066ZM9.02735 10.8666C9.00735 10.8666 8.98735 10.8734 8.96063 10.8734C8.71399 10.8734 8.50063 10.6866 8.46735 10.44C8.26063 8.85336 7.10732 7.69334 5.51398 7.48666C5.24066 7.45334 5.04732 7.2 5.08066 6.92666C5.11398 6.65334 5.36732 6.46 5.64066 6.49334C7.69398 6.76 9.19399 8.25336 9.46063 10.3134C9.49399 10.58 9.30063 10.8266 9.02735 10.8666ZM10.8274 10.2866C10.8074 10.2866 10.7874 10.2934 10.7606 10.2934C10.514 10.2934 10.3006 10.1066 10.2674 9.86C9.98063 7.60666 8.34063 5.96666 6.08732 5.68C5.81398 5.64666 5.62066 5.39334 5.65398 5.12C5.68732 4.84666 5.94066 4.65334 6.21398 4.68666C8.92735 5.03334 10.9074 7.01334 11.2606 9.73336C11.294 10.0066 11.1006 10.2534 10.8274 10.2866Z" fill="white"/>
</svg>
