<svg width="16" height="16" viewBox="0 0 16 16" fill="none" xmlns="http://www.w3.org/2000/svg">
<path d="M11.9994 8.66406C10.1594 8.66406 8.66602 10.1574 8.66602 11.9974C8.66602 13.8374 10.1594 15.3308 11.9994 15.3308C13.8394 15.3308 15.3327 13.8374 15.3327 11.9974C15.3327 10.1574 13.8394 8.66406 11.9994 8.66406ZM11.4394 12.8441C11.606 13.0108 11.606 13.2841 11.4394 13.4574C11.3527 13.5441 11.246 13.5841 11.1327 13.5841C11.0194 13.5841 10.9127 13.5441 10.826 13.4574L9.67266 12.3041C9.50602 12.1374 9.50602 11.8641 9.67266 11.6908L10.826 10.5374C10.9927 10.3708 11.266 10.3708 11.4394 10.5374C11.606 10.7041 11.606 10.9774 11.4394 11.1508L10.5927 11.9974L11.4394 12.8441ZM14.3194 12.3041L13.166 13.4574C13.0794 13.5441 12.9727 13.5841 12.8594 13.5841C12.746 13.5841 12.6394 13.5441 12.5527 13.4574C12.386 13.2908 12.386 13.0174 12.5527 12.8441L13.406 11.9974L12.5594 11.1508C12.3927 10.9841 12.3927 10.7108 12.5594 10.5374C12.726 10.3708 12.9994 10.3708 13.1727 10.5374L14.326 11.6908C14.486 11.8641 14.486 12.1308 14.3194 12.3041Z" fill="white"/>
<path d="M14 4.66848V7.6485C14 7.88183 13.7734 8.04182 13.56 7.96183C12.82 7.67516 11.9934 7.58183 11.1266 7.75516C9.39336 8.10182 8.01336 9.52182 7.72666 11.2685C7.55334 12.3352 7.76666 13.3418 8.25336 14.1618C8.38664 14.3885 8.22664 14.6685 7.96666 14.6685H5.33334C3 14.6685 2 13.3352 2 11.3352V4.66848C2 2.89515 2.78666 1.64848 4.59334 1.38848C4.78666 1.36182 4.96 1.51515 4.96666 1.71515L4.98666 2.38848C5.00666 3.45515 5.90666 4.33515 6.98666 4.33515H9C10.1 4.33515 11 3.43515 11 2.33515V1.71515C11 1.51515 11.1734 1.35515 11.3666 1.38182C13.2 1.62848 14 2.88182 14 4.66848Z" fill="white"/>
<path d="M9.99976 2.0026V2.33594C9.99976 2.8826 9.5464 3.33594 8.99976 3.33594H6.97972C6.43975 3.33594 5.99308 2.9026 5.97975 2.3626L5.97308 2.0226C5.95975 1.6426 6.25975 1.33594 6.63975 1.33594H9.33304C9.69976 1.33594 9.99976 1.63594 9.99976 2.0026Z" fill="white"/>
</svg>
