<svg width="16" height="16" viewBox="0 0 16 16" fill="none" xmlns="http://www.w3.org/2000/svg">
<path d="M10.826 1.33594H5.17268C3.33268 1.33594 2.66602 2.0026 2.66602 3.87594V12.1292C2.66602 14.0026 3.33268 14.6692 5.17268 14.6692H10.8194C12.666 14.6692 13.3326 14.0026 13.3326 12.1292V3.87594C13.3326 2.0026 12.666 1.33594 10.826 1.33594ZM7.99934 12.8692C7.35934 12.8692 6.83268 12.3426 6.83268 11.7026C6.83268 11.0626 7.35934 10.536 7.99934 10.536C8.63937 10.536 9.16601 11.0626 9.16601 11.7026C9.16601 12.3426 8.63937 12.8692 7.99934 12.8692ZM9.33265 4.16927H6.66602C6.39268 4.16927 6.16602 3.9426 6.16602 3.66927C6.16602 3.39594 6.39268 3.16927 6.66602 3.16927H9.33265C9.60601 3.16927 9.83265 3.39594 9.83265 3.66927C9.83265 3.9426 9.60601 4.16927 9.33265 4.16927Z" fill="white"/>
</svg>
