<svg width="16" height="16" viewBox="0 0 16 16" fill="none" xmlns="http://www.w3.org/2000/svg">
<path d="M6.83398 6.68406C6.83398 7.04406 6.93398 7.0974 7.16066 7.1774L7.50066 7.2974V6.16406H7.30066C7.04732 6.16406 6.83398 6.3974 6.83398 6.68406Z" fill="white"/>
<path d="M8.5 9.83258H8.7C8.96 9.83258 9.16664 9.59922 9.16664 9.31258C9.16664 8.95258 9.06664 8.89922 8.84 8.81922L8.5 8.69922V9.83258Z" fill="white"/>
<path d="M13.054 3.65594L11.6874 5.0226C11.5874 5.1226 11.4606 5.16927 11.334 5.16927C11.2074 5.16927 11.0806 5.1226 10.9806 5.0226C10.7874 4.82927 10.7874 4.50927 10.9806 4.31594L12.3474 2.94927C11.174 1.94927 9.66063 1.33594 8.00063 1.33594C4.32066 1.33594 1.33398 4.3226 1.33398 8.0026C1.33398 11.6826 4.32066 14.6692 8.00063 14.6692C11.6806 14.6692 14.6674 11.6826 14.6674 8.0026C14.6674 6.3426 14.054 4.82927 13.054 3.65594ZM9.16735 7.8826C9.59399 8.03596 10.1674 8.3426 10.1674 9.3226C10.1674 10.156 9.50735 10.8426 8.70063 10.8426H8.50063V11.0092C8.50063 11.2826 8.27399 11.5092 8.00063 11.5092C7.72732 11.5092 7.50066 11.2826 7.50066 11.0092V10.8426H7.44732C6.56066 10.8426 5.83398 10.096 5.83398 9.17596C5.83398 8.89596 6.06066 8.66924 6.33398 8.66924C6.60732 8.66924 6.83398 8.89596 6.83398 9.16924C6.83398 9.53596 7.10732 9.83596 7.44732 9.83596H7.50066V8.35596L6.83398 8.1226C6.40732 7.96927 5.83398 7.6626 5.83398 6.6826C5.83398 5.84927 6.49398 5.1626 7.30066 5.1626H7.50066V5.0026C7.50066 4.72927 7.72732 4.5026 8.00063 4.5026C8.27399 4.5026 8.50063 4.72927 8.50063 5.0026V5.16927H8.55399C9.44063 5.16927 10.1674 5.91594 10.1674 6.83594C10.1674 7.10927 9.94063 7.33594 9.66735 7.33594C9.39399 7.33594 9.16735 7.10927 9.16735 6.83594C9.16735 6.46927 8.89399 6.16927 8.55399 6.16927H8.50063V7.64927L9.16735 7.8826Z" fill="white"/>
<path d="M15.1266 1.1426C15.0734 1.0226 14.98 0.922602 14.8534 0.869274C14.7934 0.849274 14.7334 0.835938 14.6666 0.835938H12C11.7266 0.835938 11.5 1.0626 11.5 1.33594C11.5 1.60927 11.7266 1.83594 12 1.83594H13.46L12.3466 2.94927C12.6 3.16927 12.8334 3.4026 13.0534 3.65594L14.1666 2.5426V4.0026C14.1666 4.27594 14.3934 4.5026 14.6666 4.5026C14.94 4.5026 15.1666 4.27594 15.1666 4.0026V1.33594C15.1666 1.26927 15.1534 1.20927 15.1266 1.1426Z" fill="white"/>
</svg>
