<svg width="16" height="16" viewBox="0 0 16 16" fill="none" xmlns="http://www.w3.org/2000/svg">
<path d="M12.5391 4.16567H13.4457C13.3191 3.98567 13.1857 3.81901 13.0457 3.65234L12.5391 4.16567Z" fill="white"/>
<path d="M12.3473 2.94688C12.1806 2.80688 12.014 2.67355 11.834 2.54688V3.45355L12.3473 2.94688Z" fill="white"/>
<path d="M13.0524 3.65427L15.0191 1.6876C15.2123 1.49427 15.2123 1.17427 15.0191 0.980938C14.8257 0.787604 14.5057 0.787604 14.3123 0.980938L12.3457 2.9476C12.5991 3.1676 12.8324 3.4076 13.0524 3.65427Z" fill="white"/>
<path d="M11.8332 2C11.8332 1.72666 11.6065 1.5 11.3332 1.5C11.0665 1.5 10.8532 1.71334 10.8398 1.97334C11.1865 2.14 11.5198 2.32666 11.8332 2.54666V2Z" fill="white"/>
<path d="M14.5006 4.66406C14.5006 4.39073 14.2739 4.16406 14.0006 4.16406H13.4473C13.6673 4.4774 13.8606 4.81073 14.0206 5.1574C14.2873 5.14406 14.5006 4.93073 14.5006 4.66406Z" fill="white"/>
<path d="M8.5 9.83258H8.7C8.96 9.83258 9.16664 9.59922 9.16664 9.31258C9.16664 8.95258 9.06664 8.89922 8.84 8.81922L8.5 8.69922V9.83258Z" fill="white"/>
<path d="M14.0274 5.1626C14.0206 5.1626 14.014 5.16927 14.0006 5.16927H11.334C11.2674 5.16927 11.2074 5.15594 11.1406 5.12927C11.0206 5.07594 10.9206 4.9826 10.8674 4.85594C10.8474 4.79594 10.834 4.73594 10.834 4.66927V2.0026C10.834 1.99594 10.8406 1.98927 10.8406 1.97594C9.97399 1.56927 9.01399 1.33594 8.00063 1.33594C4.32066 1.33594 1.33398 4.3226 1.33398 8.0026C1.33398 11.6826 4.32066 14.6692 8.00063 14.6692C11.6806 14.6692 14.6674 11.6826 14.6674 8.0026C14.6674 6.98927 14.434 6.02927 14.0274 5.1626ZM9.16735 7.8826C9.59399 8.02924 10.1674 8.3426 10.1674 9.3226C10.1674 10.156 9.50735 10.8426 8.70063 10.8426H8.50063V11.0092C8.50063 11.2826 8.27399 11.5092 8.00063 11.5092C7.72732 11.5092 7.50066 11.2826 7.50066 11.0092V10.8426H7.44732C6.56066 10.8426 5.83398 10.096 5.83398 9.17596C5.83398 8.89596 6.06066 8.66924 6.33398 8.66924C6.60732 8.66924 6.83398 8.89596 6.83398 9.16924C6.83398 9.53596 7.10732 9.83596 7.44732 9.83596H7.50066V8.35596L6.83398 8.1226C6.40732 7.97594 5.83398 7.6626 5.83398 6.6826C5.83398 5.84927 6.49398 5.1626 7.30066 5.1626H7.50066V5.0026C7.50066 4.72927 7.72732 4.5026 8.00063 4.5026C8.27399 4.5026 8.50063 4.72927 8.50063 5.0026V5.16927H8.55399C9.44063 5.16927 10.1674 5.91594 10.1674 6.83594C10.1674 7.10927 9.94063 7.33594 9.66735 7.33594C9.39399 7.33594 9.16735 7.10927 9.16735 6.83594C9.16735 6.46927 8.89399 6.16927 8.55399 6.16927H8.50063V7.64927L9.16735 7.8826Z" fill="white"/>
<path d="M6.83398 6.68406C6.83398 7.04406 6.93398 7.0974 7.16066 7.1774L7.50066 7.2974V6.16406H7.30066C7.04732 6.16406 6.83398 6.3974 6.83398 6.68406Z" fill="white"/>
</svg>
