<svg width="16" height="16" viewBox="0 0 16 16" fill="none" xmlns="http://www.w3.org/2000/svg">
<path d="M11.334 2.33594H4.66732C2.66732 2.33594 1.33398 3.33594 1.33398 5.66927V10.336C1.33398 12.6692 2.66732 13.6692 4.66732 13.6692H11.334C13.334 13.6692 14.6674 12.6692 14.6674 10.336V5.66927C14.6674 3.33594 13.334 2.33594 11.334 2.33594ZM5.33398 11.836H3.33398C3.06066 11.836 2.83398 11.6092 2.83398 11.336C2.83398 11.0626 3.06066 10.836 3.33398 10.836H5.33398C5.60732 10.836 5.83398 11.0626 5.83398 11.336C5.83398 11.6092 5.60732 11.836 5.33398 11.836ZM8.00063 10.0026C6.89398 10.0026 6.00066 9.10924 6.00066 8.0026C6.00066 6.89594 6.89398 6.0026 8.00063 6.0026C9.10735 6.0026 10.0006 6.89594 10.0006 8.0026C10.0006 9.10924 9.10735 10.0026 8.00063 10.0026ZM12.6674 5.16927H10.6674C10.394 5.16927 10.1674 4.9426 10.1674 4.66927C10.1674 4.39594 10.394 4.16927 10.6674 4.16927H12.6674C12.9406 4.16927 13.1674 4.39594 13.1674 4.66927C13.1674 4.9426 12.9406 5.16927 12.6674 5.16927Z" fill="white"/>
</svg>
