<svg width="16" height="16" viewBox="0 0 16 16" fill="none" xmlns="http://www.w3.org/2000/svg">
<path d="M2.11981 10.0206C1.88647 10.0206 1.71981 10.254 1.80647 10.4673C2.78647 12.934 5.19315 14.6673 7.99977 14.6673C10.8131 14.6673 13.2198 12.9206 14.1998 10.4473C14.2865 10.234 14.1131 10.0006 13.8865 10.0006H11.6665C11.4798 10.0006 11.3331 9.85398 11.3331 9.66734V7.84065C11.3331 7.22731 10.5665 6.94065 10.1665 7.40731L8.25313 9.69398C8.11977 9.85398 7.87315 9.85398 7.73981 9.69398L5.82647 7.40731C5.43315 6.94065 4.66647 7.22731 4.66647 7.84065V9.66734C4.66647 9.85398 4.51981 10.0006 4.33315 10.0006L2.11981 10.0206Z" fill="white"/>
<path d="M14.6674 8.09572C14.6674 8.30244 14.654 8.50908 14.6274 8.70908C14.6074 8.87572 14.4606 9.00244 14.2874 9.00244H12.6674C12.4806 9.00244 12.334 8.85572 12.334 8.66908V7.93574C12.334 7.26241 11.974 6.60909 11.3606 6.32909C10.674 6.01576 9.89399 6.18909 9.40063 6.76908L8.25399 8.13572C8.12063 8.29572 7.87398 8.29572 7.74066 8.13572L6.58732 6.75574C6.10732 6.18909 5.33398 6.01576 4.64066 6.32909C4.02732 6.60909 3.66732 7.26241 3.66732 7.93574V8.58908C3.66732 8.86908 3.52066 9.01572 3.33398 9.01572L1.70732 9.02244C1.54066 9.02244 1.38732 8.89572 1.36732 8.72908C1.34732 8.48908 1.33398 8.24908 1.33398 8.00244C1.33398 3.96909 4.92732 0.762422 9.08735 1.42242C12.3074 1.92909 14.714 4.82909 14.6674 8.09572Z" fill="white"/>
</svg>
