<svg width="16" height="16" viewBox="0 0 16 16" fill="none" xmlns="http://www.w3.org/2000/svg">
<path d="M11.334 2.66406H4.66732C2.66732 2.66406 1.33398 3.66406 1.33398 5.9974V8.37076C1.33398 8.6174 1.58732 8.77076 1.80732 8.67076C2.46066 8.37076 3.21398 8.2574 4.00732 8.3974C5.76066 8.71076 7.04732 10.3374 7.00066 12.1174C6.99398 12.3974 6.95398 12.6708 6.88066 12.9374C6.82732 13.144 6.99398 13.3374 7.20732 13.3374H11.334C13.334 13.3374 14.6674 12.3374 14.6674 10.004V5.9974C14.6674 3.66406 13.334 2.66406 11.334 2.66406ZM8.00063 9.66404C7.08066 9.66404 6.33398 8.9174 6.33398 7.9974C6.33398 7.0774 7.08066 6.33073 8.00063 6.33073C8.92063 6.33073 9.66735 7.0774 9.66735 7.9974C9.66735 8.9174 8.92063 9.66404 8.00063 9.66404ZM12.834 9.33076C12.834 9.60404 12.6074 9.83076 12.334 9.83076C12.0606 9.83076 11.834 9.60404 11.834 9.33076V6.66406C11.834 6.39073 12.0606 6.16406 12.334 6.16406C12.6074 6.16406 12.834 6.39073 12.834 6.66406V9.33076Z" fill="white"/>
<path d="M3.33268 9.33594C2.49935 9.33594 1.74602 9.72922 1.25935 10.3292C0.886017 10.7892 0.666016 11.3692 0.666016 12.0026C0.666016 13.4759 1.86602 14.6692 3.33268 14.6692C4.49268 14.6692 5.48602 13.9292 5.84602 12.8892C5.94602 12.6159 5.99935 12.3159 5.99935 12.0026C5.99935 10.5359 4.80602 9.33594 3.33268 9.33594ZM4.90602 13.1626C4.89268 13.2026 4.86602 13.2426 4.83935 13.2692L4.35935 13.7426C4.29935 13.8092 4.21935 13.8359 4.13268 13.8359C4.04602 13.8359 3.95935 13.8092 3.89935 13.7426C3.79268 13.6426 3.77935 13.4826 3.84602 13.3626H2.50602C2.07935 13.3626 1.73268 13.0159 1.73268 12.5826V12.5159C1.73268 12.3292 1.87935 12.1892 2.05935 12.1892C2.23935 12.1892 2.38602 12.3292 2.38602 12.5159V12.5826C2.38602 12.6559 2.43935 12.7159 2.51268 12.7159H3.85268C3.78602 12.5892 3.79935 12.4359 3.90602 12.3292C4.03268 12.2026 4.23935 12.2026 4.35935 12.3292L4.83935 12.8092C4.86602 12.8359 4.89268 12.8759 4.91268 12.9159C4.93935 12.9892 4.93935 13.0826 4.90602 13.1626ZM4.93268 11.4892C4.93268 11.6759 4.78602 11.8159 4.60602 11.8159C4.42602 11.8159 4.27935 11.6759 4.27935 11.4892V11.4226C4.27935 11.3492 4.22602 11.2892 4.15268 11.2892H2.81935C2.88602 11.4159 2.87268 11.5692 2.76602 11.6759C2.70602 11.7359 2.62602 11.7692 2.53268 11.7692C2.45268 11.7692 2.36602 11.7359 2.30602 11.6759L1.82602 11.1959C1.79935 11.1692 1.77268 11.1292 1.75268 11.0892C1.72602 11.0092 1.72602 10.9226 1.75268 10.8426C1.77268 10.8092 1.79268 10.7626 1.82602 10.7359L2.30602 10.2626C2.43268 10.1292 2.63935 10.1292 2.75935 10.2626C2.86602 10.3626 2.87935 10.5226 2.81268 10.6426H4.15268C4.57935 10.6426 4.92602 10.9892 4.92602 11.4226V11.4892H4.93268Z" fill="white"/>
</svg>
