<svg width="16" height="16" viewBox="0 0 16 16" fill="none" xmlns="http://www.w3.org/2000/svg">
<path d="M11.334 2.66406H4.66732C2.66732 2.66406 1.33398 3.66406 1.33398 5.9974V8.37076C1.33398 8.6174 1.58732 8.77076 1.80732 8.67076C2.46066 8.37076 3.21398 8.2574 4.00732 8.3974C5.76066 8.71076 7.04732 10.3374 7.00066 12.1174C6.99398 12.3974 6.95398 12.6708 6.88066 12.9374C6.82732 13.144 6.99398 13.3374 7.20732 13.3374H11.334C13.334 13.3374 14.6674 12.3374 14.6674 10.004V5.9974C14.6674 3.66406 13.334 2.66406 11.334 2.66406ZM8.00063 9.66404C7.08066 9.66404 6.33398 8.9174 6.33398 7.9974C6.33398 7.0774 7.08066 6.33073 8.00063 6.33073C8.92063 6.33073 9.66735 7.0774 9.66735 7.9974C9.66735 8.9174 8.92063 9.66404 8.00063 9.66404ZM12.834 9.33076C12.834 9.60404 12.6074 9.83076 12.334 9.83076C12.0606 9.83076 11.834 9.60404 11.834 9.33076V6.66406C11.834 6.39073 12.0606 6.16406 12.334 6.16406C12.6074 6.16406 12.834 6.39073 12.834 6.66406V9.33076Z" fill="white"/>
<path d="M3.33268 9.33594C2.53268 9.33594 1.81935 9.68922 1.33268 10.2426C0.919345 10.7159 0.666016 11.3292 0.666016 12.0026C0.666016 12.5026 0.806017 12.9759 1.05268 13.3759C1.51268 14.1492 2.35935 14.6692 3.33268 14.6692C4.00602 14.6692 4.61935 14.4226 5.08602 14.0026C5.29268 13.8292 5.47268 13.6159 5.61268 13.3759C5.85935 12.9759 5.99935 12.5026 5.99935 12.0026C5.99935 10.5292 4.80602 9.33594 3.33268 9.33594ZM4.39935 13.0559C4.29935 13.1559 4.17268 13.2026 4.04602 13.2026C3.91935 13.2026 3.79268 13.1559 3.69268 13.0559L3.33935 12.7026L2.97268 13.0692C2.87268 13.1692 2.74602 13.2159 2.61935 13.2159C2.49268 13.2159 2.36602 13.1692 2.26602 13.0692C2.07268 12.8759 2.07268 12.5559 2.26602 12.3626L2.63268 11.9959L2.27935 11.6426C2.08602 11.4492 2.08602 11.1292 2.27935 10.9359C2.47268 10.7426 2.79268 10.7426 2.98602 10.9359L3.33935 11.2892L3.67268 10.9559C3.86602 10.7626 4.18602 10.7626 4.37935 10.9559C4.57268 11.1492 4.57268 11.4692 4.37935 11.6626L4.04602 11.9959L4.39935 12.3492C4.59268 12.5426 4.59268 12.8559 4.39935 13.0559Z" fill="white"/>
</svg>
