<svg width="16" height="16" viewBox="0 0 16 16" fill="none" xmlns="http://www.w3.org/2000/svg">
<path d="M12.7806 4.42766C12.494 2.98099 11.4206 2.34766 9.92734 2.34766H4.07396C2.31396 2.34766 1.14062 3.22766 1.14062 5.28099V8.7143C1.14062 10.1943 1.7473 11.0609 2.7473 11.4343C2.89396 11.4877 3.05396 11.5343 3.22062 11.5609C3.4873 11.6209 3.77396 11.6477 4.07396 11.6477H9.93398C11.694 11.6477 12.8673 10.7677 12.8673 8.7143V5.28099C12.8673 4.96766 12.8406 4.68766 12.7806 4.42766ZM3.6873 8.00094C3.6873 8.2743 3.46062 8.50094 3.1873 8.50094C2.91396 8.50094 2.6873 8.2743 2.6873 8.00094V6.00099C2.6873 5.72766 2.91396 5.50099 3.1873 5.50099C3.46062 5.50099 3.6873 5.72766 3.6873 6.00099V8.00094ZM7.00066 8.76094C6.0273 8.76094 5.24062 7.9743 5.24062 7.00098C5.24062 6.02766 6.0273 5.24099 7.00066 5.24099C7.97398 5.24099 8.76062 6.02766 8.76062 7.00098C8.76062 7.9743 7.97398 8.76094 7.00066 8.76094ZM11.3073 8.00094C11.3073 8.2743 11.0806 8.50094 10.8073 8.50094C10.534 8.50094 10.3073 8.2743 10.3073 8.00094V6.00099C10.3073 5.72766 10.534 5.50099 10.8073 5.50099C11.0806 5.50099 11.3073 5.72766 11.3073 6.00099V8.00094Z" fill="white"/>
<path d="M14.8666 7.27889V10.7122C14.8666 12.7656 13.6932 13.6522 11.9266 13.6522H6.07318C5.57318 13.6522 5.12651 13.5789 4.73985 13.4322C4.42651 13.3189 4.15318 13.1522 3.93318 12.9389C3.81318 12.8256 3.90651 12.6456 4.07318 12.6456H9.92656C12.3932 12.6456 13.8598 11.1789 13.8598 8.71892V5.27888C13.8598 5.11888 14.0398 5.01888 14.1532 5.13888C14.6066 5.61888 14.8666 6.31888 14.8666 7.27889Z" fill="white"/>
</svg>
