<svg width="16" height="16" viewBox="0 0 16 16" fill="none" xmlns="http://www.w3.org/2000/svg">
<path d="M11.334 2.33594H4.66732C2.66732 2.33594 1.33398 3.33594 1.33398 5.66927V10.336C1.33398 12.6692 2.66732 13.6692 4.66732 13.6692H11.334C13.334 13.6692 14.6674 12.6692 14.6674 10.336V5.66927C14.6674 3.33594 13.334 2.33594 11.334 2.33594ZM4.16732 9.66924C4.16732 9.9426 3.94066 10.1692 3.66732 10.1692C3.39398 10.1692 3.16732 9.9426 3.16732 9.66924V6.33594C3.16732 6.0626 3.39398 5.83594 3.66732 5.83594C3.94066 5.83594 4.16732 6.0626 4.16732 6.33594V9.66924ZM8.00063 10.0026C6.89398 10.0026 6.00066 9.10924 6.00066 8.0026C6.00066 6.89594 6.89398 6.0026 8.00063 6.0026C9.10735 6.0026 10.0006 6.89594 10.0006 8.0026C10.0006 9.10924 9.10735 10.0026 8.00063 10.0026ZM12.834 9.66924C12.834 9.9426 12.6074 10.1692 12.334 10.1692C12.0606 10.1692 11.834 9.9426 11.834 9.66924V6.33594C11.834 6.0626 12.0606 5.83594 12.334 5.83594C12.6074 5.83594 12.834 6.0626 12.834 6.33594V9.66924Z" fill="white"/>
</svg>
