<svg width="16" height="16" viewBox="0 0 16 16" fill="none" xmlns="http://www.w3.org/2000/svg">
<path d="M1.13268 13.4959C1.13935 13.4892 1.13935 13.4826 1.13935 13.4826L4.80602 9.81594C4.81268 9.80922 4.81935 9.80922 4.82602 9.80258C4.40602 9.50922 3.89268 9.33594 3.33268 9.33594C1.85935 9.33594 0.666016 10.5292 0.666016 12.0026C0.666016 12.5026 0.806017 12.9759 1.05268 13.3759C1.07935 13.4159 1.10602 13.4559 1.13268 13.4959Z" fill="white"/>
<path d="M5.53398 10.5C5.52732 10.5066 5.52732 10.5134 5.52066 10.52L1.85398 14.1866C1.84732 14.1934 1.84066 14.1934 1.83398 14.2C2.26066 14.4934 2.77398 14.6666 3.33398 14.6666C4.30732 14.6666 5.15398 14.1466 5.61398 13.3734C5.86066 12.9734 6.00066 12.5 6.00066 12C6.00066 11.44 5.82732 10.9266 5.53398 10.5Z" fill="white"/>
<path d="M11.334 2.66406H4.66732C2.66732 2.66406 1.33398 3.66406 1.33398 5.9974V8.37076C1.33398 8.6174 1.58732 8.77076 1.80732 8.67076C2.46066 8.37076 3.21398 8.2574 4.00732 8.3974C5.76066 8.71076 7.04732 10.3374 7.00066 12.1174C6.99398 12.3974 6.95398 12.6708 6.88066 12.9374C6.82732 13.144 6.99398 13.3374 7.20732 13.3374H11.334C13.334 13.3374 14.6674 12.3374 14.6674 10.004V5.9974C14.6674 3.66406 13.334 2.66406 11.334 2.66406ZM8.00063 9.66404C7.08066 9.66404 6.33398 8.9174 6.33398 7.9974C6.33398 7.0774 7.08066 6.33073 8.00063 6.33073C8.92063 6.33073 9.66735 7.0774 9.66735 7.9974C9.66735 8.9174 8.92063 9.66404 8.00063 9.66404ZM12.834 9.33076C12.834 9.60404 12.6074 9.83076 12.334 9.83076C12.0606 9.83076 11.834 9.60404 11.834 9.33076V6.66406C11.834 6.39073 12.0606 6.16406 12.334 6.16406C12.6074 6.16406 12.834 6.39073 12.834 6.66406V9.33076Z" fill="white"/>
</svg>
