<svg width="16" height="16" viewBox="0 0 16 16" fill="none" xmlns="http://www.w3.org/2000/svg">
<path d="M3.33268 9.33594C1.85935 9.33594 0.666016 10.5292 0.666016 12.0026C0.666016 13.4759 1.85935 14.6692 3.33268 14.6692C4.80602 14.6692 5.99935 13.4759 5.99935 12.0026C5.99935 10.5292 4.80602 9.33594 3.33268 9.33594ZM3.99935 11.7892C3.99935 12.1959 3.77935 12.5826 3.43268 12.7892L2.92602 13.0959C2.84602 13.1492 2.75268 13.1692 2.66602 13.1692C2.49935 13.1692 2.33268 13.0826 2.23935 12.9292C2.09935 12.6959 2.17268 12.3826 2.41268 12.2426L2.91935 11.9359C2.96602 11.9092 2.99935 11.8492 2.99935 11.7959V11.1759C2.99935 10.8959 3.22602 10.6692 3.49935 10.6692C3.77268 10.6692 3.99935 10.8959 3.99935 11.1692V11.7892Z" fill="white"/>
<path d="M11.334 2.66406H4.66732C2.66732 2.66406 1.33398 3.66406 1.33398 5.9974V8.37076C1.33398 8.6174 1.58732 8.77076 1.80732 8.67076C2.46066 8.37076 3.21398 8.2574 4.00732 8.3974C5.76066 8.71076 7.04732 10.3374 7.00066 12.1174C6.99398 12.3974 6.95398 12.6708 6.88066 12.9374C6.82732 13.144 6.99398 13.3374 7.20732 13.3374H11.334C13.334 13.3374 14.6674 12.3374 14.6674 10.004V5.9974C14.6674 3.66406 13.334 2.66406 11.334 2.66406ZM8.00063 9.66404C7.08066 9.66404 6.33398 8.9174 6.33398 7.9974C6.33398 7.0774 7.08066 6.33073 8.00063 6.33073C8.92063 6.33073 9.66735 7.0774 9.66735 7.9974C9.66735 8.9174 8.92063 9.66404 8.00063 9.66404ZM12.834 9.33076C12.834 9.60404 12.6074 9.83076 12.334 9.83076C12.0606 9.83076 11.834 9.60404 11.834 9.33076V6.66406C11.834 6.39073 12.0606 6.16406 12.334 6.16406C12.6074 6.16406 12.834 6.39073 12.834 6.66406V9.33076Z" fill="white"/>
</svg>
