<svg width="16" height="16" viewBox="0 0 16 16" fill="none" xmlns="http://www.w3.org/2000/svg">
<path d="M11.334 2.33594H4.66732C2.66732 2.33594 1.33398 3.33594 1.33398 5.66927V10.336C1.33398 12.6692 2.66732 13.6692 4.66732 13.6692H11.334C13.334 13.6692 14.6674 12.6692 14.6674 10.336V5.66927C14.6674 3.33594 13.334 2.33594 11.334 2.33594ZM2.50066 5.66927C2.50066 4.47594 3.47398 3.5026 4.66732 3.5026H5.66732C5.94066 3.5026 6.16732 3.72927 6.16732 4.0026C6.16732 4.27594 5.94066 4.5026 5.66732 4.5026H4.66732C4.02732 4.5026 3.50066 5.02927 3.50066 5.66927V6.66927C3.50066 6.9426 3.27398 7.16927 3.00066 7.16927C2.72732 7.16927 2.50066 6.9426 2.50066 6.66927V5.66927ZM5.66732 12.5026H4.66732C3.47398 12.5026 2.50066 11.5292 2.50066 10.336V9.33596C2.50066 9.0626 2.72732 8.83596 3.00066 8.83596C3.27398 8.83596 3.50066 9.0626 3.50066 9.33596V10.336C3.50066 10.976 4.02732 11.5026 4.66732 11.5026H5.66732C5.94066 11.5026 6.16732 11.7292 6.16732 12.0026C6.16732 12.276 5.94066 12.5026 5.66732 12.5026ZM8.00063 10.0026C6.89398 10.0026 6.00066 9.10924 6.00066 8.0026C6.00066 6.89594 6.89398 6.0026 8.00063 6.0026C9.10735 6.0026 10.0006 6.89594 10.0006 8.0026C10.0006 9.10924 9.10735 10.0026 8.00063 10.0026ZM13.5006 10.336C13.5006 11.5292 12.5274 12.5026 11.334 12.5026H10.334C10.0606 12.5026 9.83399 12.276 9.83399 12.0026C9.83399 11.7292 10.0606 11.5026 10.334 11.5026H11.334C11.974 11.5026 12.5006 10.976 12.5006 10.336V9.33596C12.5006 9.0626 12.7274 8.83596 13.0006 8.83596C13.274 8.83596 13.5006 9.0626 13.5006 9.33596V10.336ZM13.5006 6.66927C13.5006 6.9426 13.274 7.16927 13.0006 7.16927C12.7274 7.16927 12.5006 6.9426 12.5006 6.66927V5.66927C12.5006 5.02927 11.974 4.5026 11.334 4.5026H10.334C10.0606 4.5026 9.83399 4.27594 9.83399 4.0026C9.83399 3.72927 10.0606 3.5026 10.334 3.5026H11.334C12.5274 3.5026 13.5006 4.47594 13.5006 5.66927V6.66927Z" fill="white"/>
</svg>
