<svg width="16" height="16" viewBox="0 0 16 16" fill="none" xmlns="http://www.w3.org/2000/svg">
<path d="M8 10C9.10456 10 10 9.10456 10 8C10 6.8954 9.10456 6 8 6C6.8954 6 6 6.8954 6 8C6 9.10456 6.8954 10 8 10Z" fill="white"/>
<path d="M11.334 2.33594H4.66732C2.66732 2.33594 1.33398 3.33594 1.33398 5.66927V6.0026V10.0026V10.336C1.33398 12.6692 2.66732 13.6692 4.66732 13.6692H11.334C13.334 13.6692 14.6674 12.6692 14.6674 10.336V10.0026V6.0026V5.66927C14.6674 3.33594 13.334 2.33594 11.334 2.33594ZM4.66732 12.6692C4.66732 10.7892 4.06066 10.096 2.33398 10.016V10.0026V6.0026V5.98927C4.06066 5.90927 4.66732 5.21594 4.66732 3.33594H11.334C11.334 5.21594 11.9406 5.90927 13.6674 5.98927V6.0026V10.0026V10.016C11.9406 10.096 11.334 10.7892 11.334 12.6692H4.66732Z" fill="white"/>
</svg>
