<svg width="16" height="16" viewBox="0 0 16 16" fill="none" xmlns="http://www.w3.org/2000/svg">
<path d="M13.9934 6.47594C13.7666 6.3826 13.4666 6.33594 13.0934 6.33594H9.57336C8.41336 6.33594 8 6.74927 8 7.9226V13.0826C8 13.4692 8.04664 13.7692 8.14664 14.0026C8.35336 14.4826 8.79336 14.6692 9.57336 14.6692H13.0934C14.2534 14.6692 14.6666 14.2492 14.6666 13.0826V7.9226C14.6666 7.12927 14.48 6.6826 13.9934 6.47594ZM12 13.1692H10.6666C10.6534 13.1692 10.6334 13.1692 10.62 13.1626C10.52 13.156 10.4334 13.1226 10.36 13.056C10.24 12.9692 10.1666 12.8292 10.1666 12.6692C10.1666 12.396 10.3934 12.1692 10.6666 12.1692H12C12.2734 12.1692 12.5 12.396 12.5 12.6692C12.5 12.9426 12.2734 13.1692 12 13.1692Z" fill="white"/>
<path d="M13.9932 4.12927V4.66927C13.9932 5.03594 13.6932 5.33594 13.3266 5.33594H9.5732C7.86653 5.33594 6.99987 6.20927 6.99987 7.9226V14.0026C6.99987 14.3692 6.69987 14.6692 6.33318 14.6692H5.03318C4.76652 14.6692 4.55318 14.456 4.55318 14.196C4.55318 13.9292 4.76652 13.7226 5.03318 13.7226H6.33318V11.1692H3.99984C2.51984 11.096 1.33984 9.87596 1.33984 8.37596V4.12927C1.33984 2.58927 2.59318 1.33594 4.13984 1.33594H11.1998C12.7398 1.33594 13.9932 2.58927 13.9932 4.12927Z" fill="white"/>
</svg>
