<svg width="16" height="16" viewBox="0 0 16 16" fill="none" xmlns="http://www.w3.org/2000/svg">
<path d="M11.7074 1.33594H4.27398C2.65398 1.33594 1.33398 2.65594 1.33398 4.27594V8.60924V8.7426C1.33398 10.3692 2.65398 11.6826 4.27398 11.6826H6.83398C7.20066 11.6826 7.50066 11.9826 7.50066 12.3492V12.996C7.50066 13.3626 7.20066 13.6626 6.83398 13.6626H5.22066C4.94732 13.6626 4.72066 13.8892 4.72066 14.1626C4.72066 14.436 4.94066 14.6692 5.22066 14.6692H10.7874C11.0606 14.6692 11.2874 14.4426 11.2874 14.1692C11.2874 13.896 11.0606 13.6692 10.7874 13.6692H9.17399C8.80735 13.6692 8.50735 13.3692 8.50735 13.0026V12.356C8.50735 11.9892 8.80735 11.6892 9.17399 11.6892H11.714C13.3406 11.6892 14.654 10.3692 14.654 8.74924V8.61596V4.2826C14.6474 2.65594 13.3274 1.33594 11.7074 1.33594Z" fill="white"/>
</svg>
