<svg width="16" height="16" viewBox="0 0 16 16" fill="none" xmlns="http://www.w3.org/2000/svg">
<path d="M13.9806 6.91334V9.04C13.9806 10.5866 12.7274 11.84 11.1806 11.84H8.80735C8.44063 11.84 8.14063 12.1334 8.14063 12.5066V13.0534C8.14063 13.42 8.44063 13.72 8.80735 13.72H10.314C10.574 13.72 10.7874 13.9266 10.7874 14.1934C10.7874 14.4534 10.574 14.6666 10.314 14.6666H5.02066C4.76066 14.6666 4.54732 14.4534 4.54732 14.1934C4.54732 13.9266 4.76066 13.72 5.02066 13.72H6.52732C6.89398 13.72 7.19398 13.42 7.19398 13.0534V12.5066C7.19398 12.1334 6.89398 11.84 6.52732 11.84H4.12732C2.58732 11.84 1.33398 10.5866 1.33398 9.04V4.79334C1.33398 3.25334 2.58732 2 4.12732 2H7.00066C7.36732 2 7.66732 2.3 7.66732 2.66666V4.1C7.66732 5.38666 8.52735 6.24666 9.80735 6.24666H13.314C13.6806 6.24666 13.9806 6.54666 13.9806 6.91334Z" fill="white"/>
<path d="M14.6594 1.57308L13.906 2.09975V1.81975C13.906 1.18641 13.3927 0.679746 12.766 0.679746H9.91266C9.22602 0.67308 8.66602 1.23308 8.66602 1.91975V4.10641C8.66602 4.67975 8.95266 5.24641 9.80602 5.24641H12.7594C13.3927 5.24641 13.8994 4.73308 13.8994 4.10641V3.81975L14.6527 4.34641C15.0327 4.60641 15.3327 4.44641 15.3327 3.99308V1.92641C15.3327 1.47308 15.0327 1.31975 14.6594 1.57308Z" fill="white"/>
</svg>
