<svg width="16" height="16" viewBox="0 0 16 16" fill="none" xmlns="http://www.w3.org/2000/svg">
<path fill-rule="evenodd" clip-rule="evenodd" d="M5.96376 1.60385C6.14775 1.75081 6.22878 1.9918 6.17092 2.22007C6.05915 2.66106 5.99961 3.12347 5.99961 3.60065C5.99961 6.69344 8.50681 9.20069 11.5996 9.20069C12.5144 9.20069 13.3764 8.98173 14.1375 8.59405C14.3474 8.48709 14.6003 8.51285 14.7843 8.65981C14.9683 8.80677 15.0494 9.04781 14.9915 9.27605C14.2451 12.2211 11.5776 14.4007 8.39961 14.4007C4.64407 14.4007 1.59961 11.3562 1.59961 7.60065C1.59961 4.9538 3.11199 2.66122 5.31698 1.53803C5.52681 1.43114 5.77976 1.45689 5.96376 1.60385Z" fill="#0F172A"/>
</svg>
