<svg width="16" height="16" viewBox="0 0 16 16" fill="none" xmlns="http://www.w3.org/2000/svg">
<path d="M10.794 1.33594H5.20732C2.78066 1.33594 1.33398 2.7826 1.33398 5.20927V10.7892C1.33398 13.2226 2.78066 14.6692 5.20732 14.6692H10.7874C13.214 14.6692 14.6606 13.2226 14.6606 10.796V5.20927C14.6674 2.7826 13.2206 1.33594 10.794 1.33594ZM4.66732 8.87596C4.18732 8.87596 3.79398 8.4826 3.79398 8.0026C3.79398 7.5226 4.18732 7.12927 4.66732 7.12927C5.14732 7.12927 5.54066 7.5226 5.54066 8.0026C5.54066 8.4826 5.14732 8.87596 4.66732 8.87596ZM8.00063 8.87596C7.52066 8.87596 7.12732 8.4826 7.12732 8.0026C7.12732 7.5226 7.52066 7.12927 8.00063 7.12927C8.48063 7.12927 8.87399 7.5226 8.87399 8.0026C8.87399 8.4826 8.48063 8.87596 8.00063 8.87596ZM11.334 8.87596C10.854 8.87596 10.4606 8.4826 10.4606 8.0026C10.4606 7.5226 10.854 7.12927 11.334 7.12927C11.814 7.12927 12.2074 7.5226 12.2074 8.0026C12.2074 8.4826 11.814 8.87596 11.334 8.87596Z" fill="white"/>
</svg>
