<svg width="16" height="16" viewBox="0 0 16 16" fill="none" xmlns="http://www.w3.org/2000/svg">
<path d="M10.794 1.33594H5.20732C2.78066 1.33594 1.33398 2.7826 1.33398 5.20927V10.7892C1.33398 13.2226 2.78066 14.6692 5.20732 14.6692H10.7874C13.214 14.6692 14.6606 13.2226 14.6606 10.796V5.20927C14.6674 2.7826 13.2206 1.33594 10.794 1.33594ZM5.33398 8.66924C4.96066 8.66924 4.66732 8.36924 4.66732 8.0026C4.66732 7.63594 4.96732 7.33594 5.33398 7.33594C5.70066 7.33594 6.00066 7.63594 6.00066 8.0026C6.00066 8.36924 5.70732 8.66924 5.33398 8.66924ZM8.00063 8.66924C7.62732 8.66924 7.33398 8.36924 7.33398 8.0026C7.33398 7.63594 7.63398 7.33594 8.00063 7.33594C8.36735 7.33594 8.66735 7.63594 8.66735 8.0026C8.66735 8.36924 8.37399 8.66924 8.00063 8.66924ZM10.6674 8.66924C10.294 8.66924 10.0006 8.36924 10.0006 8.0026C10.0006 7.63594 10.3006 7.33594 10.6674 7.33594C11.034 7.33594 11.334 7.63594 11.334 8.0026C11.334 8.36924 11.0406 8.66924 10.6674 8.66924Z" fill="white"/>
</svg>
