<svg width="16" height="16" viewBox="0 0 16 16" fill="none" xmlns="http://www.w3.org/2000/svg">
<path opacity="0.97" d="M10.794 1.33594H5.20732C2.78066 1.33594 1.33398 2.7826 1.33398 5.20927V10.7892C1.33398 13.2226 2.78066 14.6692 5.20732 14.6692H10.7874C13.214 14.6692 14.6606 13.2226 14.6606 10.796V5.20927C14.6674 2.7826 13.2206 1.33594 10.794 1.33594ZM5.54066 10.876C5.06066 10.876 4.66732 10.4826 4.66732 10.0026C4.66732 9.5226 5.06066 9.12924 5.54066 9.12924C6.02066 9.12924 6.41398 9.5226 6.41398 10.0026C6.41398 10.4826 6.02066 10.876 5.54066 10.876ZM8.00063 6.87594C7.52066 6.87594 7.12732 6.4826 7.12732 6.0026C7.12732 5.5226 7.52066 5.12927 8.00063 5.12927C8.48063 5.12927 8.87399 5.5226 8.87399 6.0026C8.87399 6.4826 8.48063 6.87594 8.00063 6.87594ZM10.4606 10.876C9.98063 10.876 9.58735 10.4826 9.58735 10.0026C9.58735 9.5226 9.98063 9.12924 10.4606 9.12924C10.9406 9.12924 11.334 9.5226 11.334 10.0026C11.334 10.4826 10.9406 10.876 10.4606 10.876Z" fill="white"/>
</svg>
