<svg width="16" height="16" viewBox="0 0 16 16" fill="none" xmlns="http://www.w3.org/2000/svg">
<path d="M13.9737 11.8949L12.8871 12.2616C12.5871 12.3616 12.3471 12.5949 12.2471 12.9016L11.8804 13.9883C11.5671 14.9283 10.2471 14.9083 9.95372 13.9683L8.72044 10.0016C8.48044 9.21492 9.20708 8.48164 9.98708 8.72828L13.9604 9.96164C14.8937 10.2549 14.9071 11.5816 13.9737 11.8949Z" fill="white"/>
<path d="M14.0009 7.66757C14.0009 7.95424 13.9809 8.24086 13.9476 8.52086C13.9209 8.72086 13.7142 8.84086 13.5209 8.78086L10.2876 7.77424C9.56758 7.55424 8.80094 7.7409 8.26758 8.26758C7.73426 8.80086 7.54093 9.58086 7.76759 10.3009L8.76758 13.5209C8.82758 13.7142 8.70094 13.9209 8.50094 13.9476C8.22094 13.9809 7.94759 14.0009 7.66759 14.0009C4.10758 14.0009 1.24092 11.0742 1.33425 7.48757C1.42758 4.18092 4.18092 1.42758 7.48759 1.33425C11.0742 1.24092 14.0009 4.10758 14.0009 7.66757Z" fill="white"/>
</svg>
