<svg width="16" height="16" viewBox="0 0 16 16" fill="none" xmlns="http://www.w3.org/2000/svg">
<path d="M14.0006 5.01594V8.93596C14.0006 9.1626 13.7806 9.3226 13.5674 9.25596L10.9474 8.4426C10.2274 8.2226 9.45399 8.40924 8.92735 8.93596C8.39399 9.46924 8.20063 10.2492 8.42735 10.9692L9.23399 13.5692C9.30063 13.7826 9.14063 14.0026 8.91399 14.0026H5.01398C2.71398 14.0026 1.33398 12.6292 1.33398 10.3226V5.01594C1.33398 2.70927 2.71398 1.33594 5.01398 1.33594H10.3206C12.6206 1.33594 14.0006 2.70927 14.0006 5.01594Z" fill="white"/>
<path d="M14.6397 12.5591L13.5531 12.9257C13.2531 13.0257 13.0131 13.2591 12.9131 13.5657L12.5465 14.6523C12.2331 15.5923 10.9131 15.5723 10.6197 14.6323L9.38646 10.6657C9.14646 9.87906 9.8731 9.1457 10.6531 9.39234L14.6265 10.6257C15.5597 10.9191 15.5731 12.2457 14.6397 12.5591Z" fill="white"/>
</svg>
