<svg width="16" height="16" viewBox="0 0 16 16" fill="none" xmlns="http://www.w3.org/2000/svg">
<path d="M8.8652 1.411C8.67096 1.37681 8.5 1.53183 8.5 1.72911V3.63629C8.5 3.76853 8.58056 3.88497 8.69056 3.95843C9.02608 4.18256 9.24664 4.56519 9.24664 5.00058V6.33392C9.24664 7.02061 8.68664 7.58728 8 7.58728C7.30666 7.58728 6.74666 7.02061 6.74666 6.33392V5.00058C6.74666 4.56506 6.9722 4.18233 7.30926 3.95824C7.4194 3.88502 7.5 3.76853 7.5 3.63629V1.72953C7.5 1.5321 7.329 1.37701 7.1346 1.41129C6.10162 1.59344 5.17719 2.09005 4.46666 2.80058C3.56 3.70725 3 4.96058 3 6.33392V9.66728C3 12.4206 5.24666 14.6673 8 14.6673C10.7534 14.6673 13 12.4206 13 9.66728V6.33392C13 3.87359 11.2086 1.8234 8.8652 1.411Z" fill="white"/>
</svg>
