<svg width="16" height="16" viewBox="0 0 16 16" fill="none" xmlns="http://www.w3.org/2000/svg">
<path d="M8.00063 1.33594C4.32066 1.33594 1.33398 4.3226 1.33398 8.0026C1.33398 11.6826 4.32066 14.6692 8.00063 14.6692C11.6806 14.6692 14.6674 11.6826 14.6674 8.0026C14.6674 4.3226 11.6806 1.33594 8.00063 1.33594ZM10.7674 8.55596L9.61399 8.9426C9.29399 9.04924 9.04735 9.29596 8.94063 9.61596L8.55399 10.7692C8.22735 11.7626 6.82732 11.7426 6.52066 10.7492L5.22066 6.5626C4.96732 5.72927 5.73398 4.9626 6.55398 5.21594L10.7474 6.51594C11.7406 6.82927 11.754 8.22924 10.7674 8.55596Z" fill="white"/>
</svg>
