<svg width="16" height="16" viewBox="0 0 16 16" fill="none" xmlns="http://www.w3.org/2000/svg">
<path d="M11.334 3.16406H10.6674V2.17073C10.6674 1.6174 10.214 1.16406 9.66063 1.16406H6.34066C5.78732 1.16406 5.33398 1.6174 5.33398 2.17073V3.16406H4.66732C3.93398 3.16406 3.33398 3.76406 3.33398 4.4974V4.58406C3.54732 4.52406 3.76732 4.4974 4.00066 4.4974H12.0006C12.234 4.4974 12.454 4.52406 12.6674 4.58406V4.4974C12.6674 3.76406 12.0674 3.16406 11.334 3.16406Z" fill="white"/>
<path d="M9.28625 11.2891C9.07289 11.2891 8.90625 11.4623 8.90625 11.6691C8.90625 11.8757 9.07961 12.0491 9.28625 12.0491C9.49289 12.0491 9.66625 11.8757 9.66625 11.6691C9.66625 11.4623 9.49289 11.2891 9.28625 11.2891Z" fill="white"/>
<path d="M6.04602 11.875C5.83268 11.875 5.66602 12.0483 5.66602 12.255C5.66602 12.4616 5.83934 12.635 6.04602 12.635C6.25268 12.635 6.42602 12.4616 6.42602 12.255C6.42602 12.0483 6.25934 11.875 6.04602 11.875Z" fill="white"/>
<path d="M12.6674 5.58666C12.454 5.52666 12.234 5.5 12.0006 5.5H4.00066C3.76732 5.5 3.54732 5.52666 3.33398 5.58666C2.18732 5.88666 1.33398 6.93334 1.33398 8.16664V12.1666C1.33398 13.6334 2.53398 14.8334 4.00066 14.8334H12.0006C13.4674 14.8334 14.6674 13.6334 14.6674 12.1666V8.16664C14.6674 6.93334 13.814 5.88666 12.6674 5.58666ZM10.6674 8.85336V11.6666C10.6674 12.4266 10.0474 13.0466 9.28735 13.0466C8.52735 13.0466 7.90732 12.4266 7.90732 11.6666C7.90732 10.9066 8.52735 10.2866 9.28735 10.2866C9.42063 10.2866 9.54735 10.3134 9.66735 10.3466V9.50664L7.43398 10.1134V12.2534C7.43398 12.26 7.43398 12.2666 7.42732 12.2734C7.42066 13.0266 6.80066 13.64 6.04732 13.64C5.28732 13.64 4.66732 13.02 4.66732 12.2534C4.66732 11.4866 5.28732 10.8734 6.04732 10.8734C6.18066 10.8734 6.30732 10.9 6.43398 10.9334V9.73336V8.7C6.43398 8.12664 6.79398 7.66 7.34066 7.51334L9.10735 7.02666C9.67399 6.87334 10.034 7.02 10.234 7.17334C10.434 7.32666 10.6674 7.62666 10.6674 8.22V8.85336Z" fill="white"/>
</svg>
