<svg width="16" height="16" viewBox="0 0 16 16" fill="none" xmlns="http://www.w3.org/2000/svg">
<path d="M12 3.5H4C3.72666 3.5 3.5 3.27334 3.5 3C3.5 2.72666 3.72666 2.5 4 2.5H12C12.2734 2.5 12.5 2.72666 12.5 3C12.5 3.27334 12.2734 3.5 12 3.5Z" fill="white"/>
<path d="M10 1.83594H6C5.72666 1.83594 5.5 1.60927 5.5 1.33594C5.5 1.0626 5.72666 0.835938 6 0.835938H10C10.2734 0.835938 10.5 1.0626 10.5 1.33594C10.5 1.60927 10.2734 1.83594 10 1.83594Z" fill="white"/>
<path d="M9.27273 10.8047C9.04601 10.8047 8.85938 10.9913 8.85938 11.218C8.85938 11.4447 9.04601 11.6313 9.27273 11.6313C9.49937 11.6313 9.68601 11.4447 9.68601 11.218C9.68601 10.9913 9.49937 10.8047 9.27273 10.8047Z" fill="white"/>
<path d="M6.34034 11.8286C6.34034 11.6019 6.15367 11.4219 5.92701 11.4219C5.70034 11.4219 5.51367 11.6086 5.51367 11.8352C5.51367 12.0619 5.70034 12.2486 5.92701 12.2486C6.15367 12.2419 6.34034 12.0552 6.34034 11.8286Z" fill="white"/>
<path d="M12.0006 4.66406H4.00066C2.53398 4.66406 1.33398 5.86406 1.33398 7.33073V11.9974C1.33398 13.464 2.53398 14.664 4.00066 14.664H12.0006C13.4674 14.664 14.6674 13.464 14.6674 11.9974V7.33073C14.6674 5.86406 13.4674 4.66406 12.0006 4.66406ZM10.6874 8.30404V11.2174C10.6874 11.2308 10.6806 11.2374 10.6806 11.2508C10.6606 12.0108 10.0406 12.6308 9.27399 12.6308C8.49399 12.6308 7.86066 11.9974 7.86066 11.2174C7.86066 10.4374 8.49399 9.80404 9.27399 9.80404C9.42063 9.80404 9.55399 9.83076 9.68735 9.87076V8.9574L7.34066 9.5974V11.8174V11.824C7.34066 12.604 6.70732 13.2374 5.92732 13.2374C5.14732 13.2374 4.51398 12.604 4.51398 11.824C4.51398 11.044 5.14732 10.4108 5.92732 10.4108C6.07398 10.4108 6.20732 10.4374 6.34066 10.4774V9.21076V8.14404C6.34066 7.55073 6.70732 7.07073 7.27398 6.92406L9.09399 6.42406C9.68063 6.27073 10.0406 6.42406 10.2474 6.58406C10.4474 6.7374 10.6874 7.05073 10.6874 7.64406V8.30404Z" fill="white"/>
</svg>
