<svg width="16" height="16" viewBox="0 0 16 16" fill="none" xmlns="http://www.w3.org/2000/svg">
<g clip-path="url(#clip0_13_14716)">
<path d="M1.72041 6.28082C1.66707 6.28082 1.60707 6.27416 1.55373 6.25416C1.29373 6.16082 1.16041 5.87415 1.24707 5.61415C1.69373 4.36082 2.46707 3.26082 3.50041 2.42749C3.71373 2.25416 4.02707 2.28749 4.20041 2.50082C4.37373 2.71416 4.34041 3.02749 4.12707 3.20749C3.24707 3.92082 2.57373 4.86749 2.19373 5.94749C2.12041 6.15416 1.92707 6.28082 1.72041 6.28082Z" fill="white"/>
<path d="M1.72066 10.72C1.51398 10.72 1.32066 10.5934 1.24732 10.3866C0.973984 9.61336 0.833984 8.80664 0.833984 8C0.833984 7.72666 1.06066 7.5 1.33398 7.5C1.60732 7.5 1.83398 7.72666 1.83398 8C1.83398 8.69336 1.95398 9.38664 2.19398 10.0534C2.28732 10.3134 2.14732 10.6 1.88732 10.6934C1.83398 10.7134 1.77398 10.72 1.72066 10.72Z" fill="white"/>
<path d="M8.00038 15.1677C7.29372 15.1677 6.59373 15.061 5.91373 14.8544C5.64706 14.7744 5.5004 14.4944 5.5804 14.2277C5.6604 13.961 5.9404 13.8144 6.20706 13.8944C6.78705 14.0744 7.39372 14.161 8.00038 14.161C11.4004 14.161 14.167 11.3944 14.167 7.99437C14.167 7.6477 14.1337 7.2877 14.067 6.9077C14.0204 6.63434 14.2004 6.37434 14.4737 6.32767C14.7404 6.281 15.007 6.461 15.0537 6.73437C15.1337 7.17437 15.1737 7.5877 15.1737 8.00103C15.167 11.9544 11.9537 15.1677 8.00038 15.1677Z" fill="white"/>
<path d="M3.81347 13.668C3.70015 13.668 3.59347 13.6347 3.50014 13.5547C3.12014 13.248 2.81347 12.9547 2.55347 12.6547C2.37347 12.448 2.40015 12.128 2.60681 11.948C2.82015 11.768 3.13347 11.7947 3.31347 12.0014C3.53347 12.2547 3.80015 12.508 4.12681 12.7747C4.34015 12.948 4.37347 13.2614 4.20014 13.4747C4.10681 13.6014 3.96015 13.668 3.81347 13.668Z" fill="white"/>
<path d="M13.4942 4.72927C13.3342 4.72927 13.1809 4.65594 13.0809 4.50927C11.9342 2.83594 10.0276 1.83594 8.00095 1.83594C7.39424 1.83594 6.78758 1.9226 6.20758 2.1026C5.94758 2.1826 5.66758 2.03594 5.58092 1.76927C5.49425 1.5026 5.64758 1.2226 5.91425 1.1426C6.59425 0.942602 7.29424 0.835938 8.00095 0.835938C10.3609 0.835938 12.5676 2.0026 13.9076 3.94927C14.0609 4.17594 14.0076 4.48927 13.7809 4.6426C13.6942 4.7026 13.5942 4.72927 13.4942 4.72927Z" fill="white"/>
<path d="M10.686 4.33495C10.466 4.16828 10.066 4.00161 9.42601 4.17494L7.29934 4.74828C6.68602 4.92161 6.28602 5.44161 6.28602 6.08161V7.17497V8.895C6.11268 8.82828 5.92602 8.78828 5.72602 8.78828C4.86602 8.78828 4.16602 9.48828 4.16602 10.3483C4.16602 11.2083 4.86602 11.9083 5.72602 11.9083C6.57934 11.9083 7.26602 11.2216 7.27934 10.375C7.27934 10.3683 7.28602 10.3616 7.28602 10.3483V7.55497L10.166 6.76831V8.18828C9.99265 8.12164 9.80601 8.08164 9.60601 8.08164C8.74601 8.08164 8.04601 8.78164 8.04601 9.64164C8.04601 10.5016 8.74601 11.2016 9.60601 11.2016C10.466 11.2016 11.166 10.5016 11.166 9.64164V6.11494V5.50161C11.166 4.96828 11.006 4.57495 10.686 4.33495ZM5.72602 10.9083C5.41934 10.9083 5.16602 10.655 5.16602 10.3483C5.16602 10.0416 5.41934 9.78828 5.72602 9.78828C6.03268 9.78828 6.28602 10.0416 6.28602 10.3483C6.28602 10.655 6.03268 10.9083 5.72602 10.9083ZM9.60601 10.2016C9.29937 10.2016 9.04601 9.94828 9.04601 9.64164C9.04601 9.335 9.29937 9.08164 9.60601 9.08164C9.91265 9.08164 10.166 9.335 10.166 9.64164C10.166 9.94828 9.91265 10.2016 9.60601 10.2016Z" fill="white"/>
</g>
<defs>
<clipPath id="clip0_13_14716">
<rect width="16" height="16" fill="white"/>
</clipPath>
</defs>
</svg>
