<svg width="16" height="16" viewBox="0 0 16 16" fill="none" xmlns="http://www.w3.org/2000/svg">
<path d="M15.194 14.5092L14.714 14.0292C14.9606 13.6559 15.1073 13.2026 15.1073 12.7226C15.1073 11.4026 14.0406 10.3359 12.7206 10.3359C11.4006 10.3359 10.334 11.4026 10.334 12.7226C10.334 14.0426 11.4006 15.1092 12.7206 15.1092C13.2073 15.1092 13.654 14.9626 14.0273 14.7159L14.5073 15.1959C14.6006 15.2892 14.7273 15.3359 14.8473 15.3359C14.974 15.3359 15.094 15.2892 15.1873 15.1959C15.3806 15.0026 15.3806 14.6959 15.194 14.5092Z" fill="white"/>
<path d="M8.15352 8.04688C7.88016 8.04688 7.66016 8.26687 7.66016 8.54023C7.66016 8.81351 7.88016 9.03351 8.15352 9.03351C8.4268 9.03351 8.6468 8.81351 8.6468 8.54023C8.6468 8.26687 8.4268 8.04688 8.15352 8.04688Z" fill="white"/>
<path d="M4.50701 8.70703C4.23367 8.70703 4.01367 8.92703 4.01367 9.20039C4.01367 9.47367 4.23367 9.69367 4.50701 9.69367C4.78034 9.69367 5.00034 9.47367 5.00034 9.20039C5.00034 8.92703 4.78034 8.70703 4.50701 8.70703Z" fill="white"/>
<path d="M10.794 1.33594H5.20732C5.02066 1.33594 4.84066 1.3426 4.66732 1.36927C2.56732 1.5626 1.33398 2.96927 1.33398 5.20927V10.796C1.33398 13.036 2.56732 14.4426 4.66732 14.636C4.84066 14.6626 5.02066 14.6692 5.20732 14.6692H9.00063C9.26063 14.6692 9.42735 14.376 9.32735 14.136C9.13399 13.676 9.00063 13.1426 9.00063 12.6692C9.00063 10.6492 10.6474 9.0026 12.6674 9.0026C13.174 9.0026 13.6674 9.1026 14.1206 9.3026C14.3674 9.40924 14.6674 9.2426 14.6674 8.97596V5.20927C14.6674 2.7826 13.2206 1.33594 10.794 1.33594ZM9.65399 5.36927V8.5426C9.65399 8.54924 9.64735 8.55596 9.64735 8.56924C9.63399 9.3826 8.97399 10.0426 8.15399 10.0426C7.32732 10.0426 6.66066 9.36924 6.66066 8.54924C6.66066 7.7226 7.33398 7.05594 8.15399 7.05594C8.32735 7.05594 8.49399 7.08927 8.65399 7.14927V6.0226L6.00732 6.7426V9.20924C6.00732 9.21596 6.00066 9.2226 6.00066 9.22924C5.98732 10.0426 5.32732 10.696 4.50732 10.696C3.68066 10.696 3.01398 10.0226 3.01398 9.2026C3.01398 8.3826 3.68732 7.70927 4.50732 7.70927C4.68066 7.70927 4.84732 7.7426 5.00066 7.8026V6.3626V5.19594C5.00066 4.57594 5.38732 4.07594 5.98066 3.91594L7.96732 3.36927C8.58735 3.2026 8.96735 3.36927 9.18063 3.52927C9.48735 3.7626 9.64063 4.1426 9.64063 4.64927V5.36927H9.65399Z" fill="white"/>
</svg>
