<svg width="16" height="16" viewBox="0 0 16 16" fill="none" xmlns="http://www.w3.org/2000/svg">
<path d="M13.9276 3.45501V10.9884C13.9276 12.3084 12.8542 13.3817 11.5342 13.3817C10.2209 13.3817 9.14094 12.3084 9.14094 10.9884C9.14094 9.675 10.2209 8.60172 11.5342 8.60172C12.0942 8.60172 12.5942 8.795 13.0009 9.115V5.14834L6.86091 6.89503V12.275C6.86091 13.595 5.78088 14.6684 4.46755 14.6684C3.14755 14.6684 2.07422 13.595 2.07422 12.275C2.07422 10.9617 3.14755 9.88836 4.46755 9.88836C5.02088 9.88836 5.52088 10.0817 5.92755 10.395V4.50167C5.92755 3.52167 6.52088 2.76167 7.46091 2.50834L11.3142 1.45501C12.0942 1.24167 12.7542 1.31501 13.2209 1.67501C13.6942 2.02834 13.9276 2.62834 13.9276 3.45501Z" fill="white"/>
</svg>
