<svg width="16" height="16" viewBox="0 0 16 16" fill="none" xmlns="http://www.w3.org/2000/svg">
<path d="M14.4798 4.18716V4.96716C14.4798 5.62049 14.2198 6.18049 13.7598 6.50716C13.4731 6.72047 13.1198 6.82047 12.7531 6.82047C12.5265 6.82047 12.2998 6.78713 12.0665 6.70713L8.47977 5.51383V12.0005C8.47977 13.7471 7.0598 15.1671 5.31316 15.1671C3.56648 15.1671 2.14648 13.7471 2.14648 12.0005C2.14648 10.2538 3.56648 8.83382 5.31316 8.83382C6.15316 8.83382 6.91313 9.1671 7.4798 9.70046V2.66716C7.4798 2.02049 7.74647 1.46049 8.20649 1.12716C8.66649 0.800494 9.27977 0.727161 9.89313 0.927164L12.8398 1.91383C13.7465 2.21383 14.4798 3.23383 14.4798 4.18716Z" fill="white"/>
</svg>
