<svg width="16" height="16" viewBox="0 0 16 16" fill="none" xmlns="http://www.w3.org/2000/svg">
<path fill-rule="evenodd" clip-rule="evenodd" d="M14.1764 1.27759C14.3175 1.3915 14.3996 1.56315 14.3996 1.74454V10.7762C14.3996 11.6238 13.8084 12.3565 12.98 12.5356L11.3474 12.8886C10.2428 13.1274 9.19961 12.2858 9.19961 11.1555C9.19961 10.321 9.78161 9.59935 10.5972 9.42263L12.7266 8.96119C13.0026 8.90143 13.1996 8.65719 13.1996 8.37479V4.88813L6.79961 6.27191V12.4195C6.79961 13.267 6.20839 13.9998 5.38001 14.1789L3.74679 14.532C2.64247 14.7708 1.59961 13.9293 1.59961 12.7994C1.59961 11.9644 2.18244 11.2426 2.99876 11.0666L5.12601 10.6082C5.40233 10.5487 5.59961 10.3044 5.59961 10.0217V3.38778C5.59961 3.10527 5.79668 2.86103 6.07281 2.80133L13.6728 1.15809C13.8501 1.11975 14.0352 1.16368 14.1764 1.27759Z" fill="#0F172A"/>
</svg>
