<svg width="16" height="16" viewBox="0 0 16 16" fill="none" xmlns="http://www.w3.org/2000/svg">
<path d="M14.6674 2.5H1.33398C1.06066 2.5 0.833984 2.27334 0.833984 2C0.833984 1.72666 1.06066 1.5 1.33398 1.5H14.6674C14.9406 1.5 15.1674 1.72666 15.1674 2C15.1674 2.27334 14.9406 2.5 14.6674 2.5Z" fill="white"/>
<path d="M7.33398 6.5H1.33398C1.06066 6.5 0.833984 6.27334 0.833984 6C0.833984 5.72666 1.06066 5.5 1.33398 5.5H7.33398C7.60732 5.5 7.83398 5.72666 7.83398 6C7.83398 6.27334 7.60732 6.5 7.33398 6.5Z" fill="white"/>
<path d="M5.33398 10.5H1.33398C1.06066 10.5 0.833984 10.2734 0.833984 10C0.833984 9.72664 1.06066 9.5 1.33398 9.5H5.33398C5.60732 9.5 5.83398 9.72664 5.83398 10C5.83398 10.2734 5.60732 10.5 5.33398 10.5Z" fill="white"/>
<path d="M4.00066 14.5H1.33398C1.06066 14.5 0.833984 14.2734 0.833984 14C0.833984 13.7266 1.06066 13.5 1.33398 13.5H4.00066C4.27398 13.5 4.50066 13.7266 4.50066 14C4.50066 14.2734 4.27398 14.5 4.00066 14.5Z" fill="white"/>
<path d="M14.5728 5.11884C14.1795 4.81884 13.6395 4.75884 13.0062 4.93217L10.1062 5.71884C9.32617 5.93217 8.84617 6.5655 8.84617 7.36549V9.06548V11.5188C8.56617 11.3588 8.23945 11.2588 7.89282 11.2588C6.81949 11.2588 5.93945 12.1322 5.93945 13.2122C5.93945 14.2855 6.81282 15.1655 7.89282 15.1655C8.97281 15.1655 9.84617 14.2922 9.84617 13.2122V9.44548L14.1662 8.26548V10.5522C13.8862 10.3922 13.5595 10.2922 13.2128 10.2922C12.1395 10.2922 11.2595 11.1655 11.2595 12.2455C11.2595 13.3188 12.1328 14.1988 13.2128 14.1988C14.2928 14.1988 15.1662 13.3255 15.1662 12.2455V7.61216V6.57884C15.1662 5.9055 14.9662 5.41217 14.5728 5.11884ZM7.89282 14.1655C7.36615 14.1655 6.93949 13.7388 6.93949 13.2122C6.93949 12.6855 7.36615 12.2588 7.89282 12.2588C8.41945 12.2588 8.84617 12.6855 8.84617 13.2122C8.84617 13.7388 8.41945 14.1655 7.89282 14.1655ZM13.2128 13.1988C12.6862 13.1988 12.2595 12.7722 12.2595 12.2455C12.2595 11.7188 12.6862 11.2922 13.2128 11.2922C13.7395 11.2922 14.1662 11.7188 14.1662 12.2455C14.1662 12.7722 13.7395 13.1988 13.2128 13.1988Z" fill="white"/>
</svg>
