<svg width="16" height="16" viewBox="0 0 16 16" fill="none" xmlns="http://www.w3.org/2000/svg">
<path d="M4.66732 2.16785V13.8345C4.66732 14.2612 4.26066 14.6012 3.84732 14.4878C2.24732 14.0345 1.33398 12.7278 1.33398 10.7945V5.20785C1.33398 3.27452 2.24732 1.96785 3.84732 1.51452C4.26066 1.40119 4.66732 1.73452 4.66732 2.16785Z" fill="white"/>
<path d="M8.31273 9.57812C8.05937 9.57812 7.85938 9.78476 7.85938 10.0314C7.85938 10.2781 8.06601 10.4848 8.31273 10.4848C8.56601 10.4848 8.77273 10.2781 8.77273 10.0314C8.77273 9.78476 8.56601 9.57812 8.31273 9.57812Z" fill="white"/>
<path d="M11.6807 8.96484C11.4273 8.96484 11.2207 9.17156 11.2207 9.42484C11.2207 9.6782 11.4273 9.8782 11.6807 9.8782C11.9341 9.8782 12.1407 9.67156 12.1407 9.42484C12.1407 9.1782 11.9341 8.96484 11.6807 8.96484Z" fill="white"/>
<path d="M10.7926 1.33594H6.33268C5.96602 1.33594 5.66602 1.63594 5.66602 2.0026V14.0026C5.66602 14.3692 5.96602 14.6692 6.33268 14.6692H10.7926C12.9326 14.6692 14.666 12.936 14.666 10.796V5.20927C14.666 3.06927 12.9326 1.33594 10.7926 1.33594ZM13.066 6.49594V9.42924C13.066 9.43596 13.0594 9.4426 13.0594 9.44924C13.046 10.2026 12.4326 10.8092 11.6794 10.8092C10.9194 10.8092 10.2994 10.1892 10.2994 9.42924C10.2994 8.66924 10.9194 8.04924 11.6794 8.04924C11.8394 8.04924 11.9926 8.0826 12.1394 8.13596V7.1026L9.69265 7.76927V10.0492C9.69265 10.056 9.68601 10.0626 9.68601 10.0692C9.67265 10.8226 9.05937 11.4292 8.30601 11.4292C7.54602 11.4292 6.92602 10.8092 6.92602 10.0492C6.92602 9.28924 7.54602 8.66924 8.30601 8.66924C8.46601 8.66924 8.61937 8.7026 8.76601 8.75596V7.4226V6.33594C8.76601 5.7626 9.11937 5.29594 9.67265 5.15594L11.506 4.64927C12.0794 4.49594 12.4326 4.64927 12.6326 4.8026C12.9194 5.0226 13.0594 5.36927 13.0594 5.83594V6.49594H13.066Z" fill="white"/>
</svg>
