<svg width="16" height="16" viewBox="0 0 16 16" fill="none" xmlns="http://www.w3.org/2000/svg">
<path d="M12.8066 10.0052C12.08 9.95858 11.3334 10.2252 10.78 10.7786C9.74 11.8186 9.74 13.5052 10.78 14.5519C11.1334 14.9052 11.5666 15.1386 12.0266 15.2519C12.28 15.3186 12.5466 15.3386 12.8134 15.3252C13.4466 15.2986 14.0666 15.0452 14.5534 14.5586C15.24 13.8719 15.4734 12.9052 15.2534 12.0319C15.1466 11.5719 14.9066 11.1386 14.5534 10.7852C14.0734 10.2986 13.4466 10.0386 12.8066 10.0052ZM14.16 12.6519C14.16 12.7919 14.1066 12.9119 14.0134 13.0052C13.92 13.0986 13.8 13.1519 13.66 13.1519H13.1666V13.6719C13.1666 13.8119 13.1134 13.9319 13.02 14.0252C12.9266 14.1186 12.8066 14.1719 12.6666 14.1719C12.3934 14.1719 12.1666 13.9452 12.1666 13.6719V13.1519H11.6666C11.3934 13.1519 11.1666 12.9252 11.1666 12.6519C11.1666 12.3786 11.3934 12.1519 11.6666 12.1519H12.1666V11.6786C12.1666 11.4052 12.3934 11.1786 12.6666 11.1786C12.94 11.1786 13.1666 11.4052 13.1666 11.6786V12.1519H13.66C13.94 12.1519 14.16 12.3786 14.16 12.6519Z" fill="white"/>
<path d="M8.15352 8.04688C7.88016 8.04688 7.66016 8.26687 7.66016 8.54023C7.66016 8.81351 7.88016 9.03351 8.15352 9.03351C8.4268 9.03351 8.6468 8.81351 8.6468 8.54023C8.6468 8.26687 8.4268 8.04688 8.15352 8.04688Z" fill="white"/>
<path d="M4.50701 8.70703C4.23367 8.70703 4.01367 8.92703 4.01367 9.20039C4.01367 9.47367 4.23367 9.69367 4.50701 9.69367C4.78034 9.69367 5.00034 9.47367 5.00034 9.20039C5.00034 8.92703 4.78034 8.70703 4.50701 8.70703Z" fill="white"/>
<path d="M10.794 1.33594H5.20732C5.02066 1.33594 4.84066 1.3426 4.66732 1.36927C2.56732 1.5626 1.33398 2.96927 1.33398 5.20927V10.796C1.33398 13.036 2.56732 14.4426 4.66732 14.636C4.84066 14.6626 5.02066 14.6692 5.20732 14.6692H9.00063C9.26063 14.6692 9.42735 14.376 9.32735 14.136C9.13399 13.676 9.00063 13.1426 9.00063 12.6692C9.00063 10.6492 10.6474 9.0026 12.6674 9.0026C13.174 9.0026 13.6674 9.1026 14.1206 9.3026C14.3674 9.40924 14.6674 9.2426 14.6674 8.97596V5.20927C14.6674 2.7826 13.2206 1.33594 10.794 1.33594ZM9.65399 5.36927V8.5426C9.65399 8.54924 9.64735 8.55596 9.64735 8.56924C9.63399 9.3826 8.97399 10.0426 8.15399 10.0426C7.32732 10.0426 6.66066 9.36924 6.66066 8.54924C6.66066 7.7226 7.33398 7.05594 8.15399 7.05594C8.32735 7.05594 8.49399 7.08927 8.65399 7.14927V6.0226L6.00732 6.7426V9.20924C6.00732 9.21596 6.00066 9.2226 6.00066 9.22924C5.98732 10.0426 5.32732 10.696 4.50732 10.696C3.68066 10.696 3.01398 10.0226 3.01398 9.2026C3.01398 8.3826 3.68732 7.70927 4.50732 7.70927C4.68066 7.70927 4.84732 7.7426 5.00066 7.8026V6.3626V5.19594C5.00066 4.57594 5.38732 4.07594 5.98066 3.91594L7.96732 3.36927C8.58735 3.2026 8.96735 3.36927 9.18063 3.52927C9.48735 3.7626 9.64063 4.1426 9.64063 4.64927V5.36927H9.65399Z" fill="white"/>
</svg>
