<svg width="16" height="16" viewBox="0 0 16 16" fill="none" xmlns="http://www.w3.org/2000/svg">
<path d="M9.69313 9.11328C9.45313 9.11328 9.25977 9.30664 9.25977 9.54664C9.25977 9.78664 9.45313 9.98 9.69313 9.98C9.93313 9.98 10.1265 9.78664 10.1265 9.54664C10.1198 9.30664 9.92649 9.11328 9.69313 9.11328Z" fill="white"/>
<path d="M6.04076 9.77344C5.80076 9.77344 5.60742 9.96672 5.60742 10.2067C5.60742 10.4467 5.80076 10.6401 6.04076 10.6401C6.28076 10.6401 6.47409 10.4467 6.47409 10.2067C6.47409 9.96672 6.28076 9.77344 6.04076 9.77344Z" fill="white"/>
<path d="M10.794 1.33594H5.20732C2.78066 1.33594 1.33398 2.7826 1.33398 5.20927V10.7892C1.33398 13.2226 2.78066 14.6692 5.20732 14.6692H10.7874C13.214 14.6692 14.6606 13.2226 14.6606 10.796V5.20927C14.6674 2.7826 13.2206 1.33594 10.794 1.33594ZM11.254 6.36927V9.5426C11.254 10.4026 10.554 11.1026 9.69399 11.1026C8.83399 11.1026 8.13399 10.4026 8.13399 9.5426C8.13399 8.6826 8.83399 7.9826 9.69399 7.9826C9.84735 7.9826 9.98735 8.00924 10.1274 8.04924V7.1026L7.60732 7.78927V10.2026C7.60732 10.2092 7.60066 10.216 7.60066 10.2226C7.59398 11.076 6.89398 11.7626 6.04066 11.7626C5.18066 11.7626 4.48066 11.0626 4.48066 10.2026C4.48066 9.3426 5.18066 8.6426 6.04066 8.6426C6.19398 8.6426 6.33398 8.66924 6.47398 8.70924V7.35594V6.19594C6.47398 5.54927 6.87398 5.0226 7.50066 4.85594L9.49399 4.30927C10.134 4.13594 10.534 4.3026 10.7606 4.47594C10.9806 4.64927 11.254 4.98927 11.254 5.65594V6.36927Z" fill="white"/>
</svg>
