<svg width="16" height="16" viewBox="0 0 16 16" fill="none" xmlns="http://www.w3.org/2000/svg">
<path d="M8.00063 1.33594C4.32066 1.33594 1.33398 4.3226 1.33398 8.0026C1.33398 11.6826 4.32066 14.6692 8.00063 14.6692C11.6806 14.6692 14.6674 11.6826 14.6674 8.0026C14.6674 4.3226 11.6806 1.33594 8.00063 1.33594ZM9.00063 9.83596L8.79399 9.76924L8.66735 10.1692L8.00063 12.1692L6.33398 9.04924L6.26731 8.9226L4.00066 8.16924L5.45398 7.4426L6.66732 6.83594L6.98066 6.69594L8.00063 3.5026L9.03399 5.76927L9.66735 7.16927L9.39399 7.30927L12.0006 8.16924L9.00063 9.83596Z" fill="white"/>
</svg>
