<svg width="16" height="16" viewBox="0 0 16 16" fill="none" xmlns="http://www.w3.org/2000/svg">
<path d="M10.0459 11.9208L9.3725 13.4008C9.19914 13.7742 8.94586 14.1008 8.60586 14.3275C8.25914 14.5608 7.80583 14.5808 7.44583 14.3542C6.35248 13.6608 3.96584 11.8808 2.51917 8.79415C2.46584 8.68751 2.61248 8.58079 2.70582 8.64751C3.08582 8.91415 3.49248 9.10079 3.93914 9.20751C4.21248 9.26751 4.4925 9.29415 4.75916 9.29415C5.99916 9.29415 7.11916 8.66079 7.86583 8.11415C8.08586 7.95416 8.37914 7.92083 8.60586 8.06079C9.3525 8.52751 9.8525 9.08751 10.0991 9.72079C10.5259 10.8408 10.0591 11.8741 10.0459 11.9208Z" fill="white"/>
<path d="M11.2328 12.0345C11.1795 12.0945 11.0728 12.0277 11.0995 11.9545C11.3928 10.9811 11.7728 8.41446 8.37282 6.78776C8.16618 6.68776 8.01282 6.50108 7.98614 6.27441C7.57281 2.56775 10.7662 1.90108 10.7662 1.90108C11.0262 1.84775 11.2995 1.84774 11.5528 1.92108C12.2728 2.1144 13.0062 2.38108 13.7462 2.74108C14.3795 3.04775 14.7462 3.71441 14.6528 4.41441C14.4328 6.06775 13.6995 9.25446 11.2328 12.0345Z" fill="white"/>
<path d="M7.03935 6.80439L7.05942 6.93772C7.10608 7.19106 6.99935 7.45106 6.78602 7.58439C5.3527 8.48435 3.00603 9.16435 1.5727 5.22437C1.43936 4.86437 1.35937 4.59771 1.3327 4.21104C1.29937 3.70438 1.58604 3.12438 2.03937 2.91104C3.2127 2.36438 5.69272 1.41104 8.68609 1.49771C8.81945 1.50438 8.86601 1.67771 8.75937 1.75103C7.60602 2.63103 6.6127 4.21771 7.03935 6.80439Z" fill="white"/>
</svg>
