<svg width="16" height="16" viewBox="0 0 16 16" fill="none" xmlns="http://www.w3.org/2000/svg">
<path fill-rule="evenodd" clip-rule="evenodd" d="M1.59961 2.80156C1.59961 2.13882 2.13687 1.60156 2.79961 1.60156H9.99961C10.6623 1.60156 11.1996 2.13882 11.1996 2.80156V12.2016C11.1996 13.4166 12.1846 14.4016 13.3996 14.4016H3.79961C2.58459 14.4016 1.59961 13.4166 1.59961 12.2016V2.80156ZM4.59961 8.40156C4.26824 8.40156 3.99961 8.6702 3.99961 9.00156C3.99961 9.33292 4.26824 9.60156 4.59961 9.60156H8.19961C8.53097 9.60156 8.79961 9.33292 8.79961 9.00156C8.79961 8.6702 8.53097 8.40156 8.19961 8.40156H4.59961ZM4.59961 10.8016C4.26824 10.8016 3.99961 11.0702 3.99961 11.4016C3.99961 11.7329 4.26824 12.0016 4.59961 12.0016H8.19961C8.53097 12.0016 8.79961 11.7329 8.79961 11.4016C8.79961 11.0702 8.53097 10.8016 8.19961 10.8016H4.59961ZM3.99961 4.60156C3.99961 4.27019 4.26824 4.00156 4.59961 4.00156H8.19961C8.53097 4.00156 8.79961 4.27019 8.79961 4.60156V6.60156C8.79961 6.93293 8.53097 7.20156 8.19961 7.20156H4.59961C4.26824 7.20156 3.99961 6.93293 3.99961 6.60156V4.60156Z" fill="#0F172A"/>
<path d="M13.2004 5.19922H12.4004V12.1992C12.4004 12.7515 12.8481 13.1992 13.4004 13.1992C13.9527 13.1992 14.4004 12.7515 14.4004 12.1992V6.39922C14.4004 5.73647 13.8631 5.19922 13.2004 5.19922Z" fill="#0F172A"/>
</svg>
