<svg width="16" height="16" viewBox="0 0 16 16" fill="none" xmlns="http://www.w3.org/2000/svg">
<path d="M14.666 4.18906V11.8091C14.666 11.9291 14.606 12.0357 14.506 12.0957L12.5794 13.2491C12.4726 13.3091 12.346 13.3091 12.2394 13.2491L5.83268 9.52244C5.73268 9.46244 5.66602 9.35572 5.66602 9.23572V8.34908C5.66602 8.08908 5.94601 7.92907 6.17267 8.06236L11.8326 11.4557C12.0526 11.5891 12.3394 11.4291 12.3394 11.1691V5.61572C12.3394 5.49572 12.2794 5.38907 12.1794 5.32907L9.45937 3.69572C9.24601 3.56906 9.24601 3.25572 9.45937 3.12239L11.1726 2.08907C11.2794 2.02239 11.4126 2.02239 11.5194 2.08907L14.5194 3.88906C14.606 3.96239 14.666 4.07572 14.666 4.18906Z" fill="white"/>
<path d="M7.52653 12.2847L4.83984 13.898C4.73318 13.9647 4.59984 13.9647 4.49984 13.898L1.49984 12.098C1.39984 12.038 1.33984 11.9313 1.33984 11.8113V4.19135C1.33984 4.07135 1.39984 3.96468 1.49984 3.90468L4.49984 2.10469C4.60652 2.03802 4.73984 2.03802 4.83984 2.10469L11.1732 5.90468C11.2732 5.96468 11.3332 6.07135 11.3332 6.19135V9.41132C11.3332 9.67132 11.0532 9.83132 10.8266 9.69796L5.16652 6.30469C4.94652 6.17136 4.65985 6.33135 4.65985 6.59135V9.81132C4.65985 9.93132 4.71984 10.038 4.81984 10.098L7.5132 11.718C7.73987 11.8447 7.73987 12.1513 7.52653 12.2847Z" fill="white"/>
</svg>
