<svg width="16" height="16" viewBox="0 0 16 16" fill="none" xmlns="http://www.w3.org/2000/svg">
<path fill-rule="evenodd" clip-rule="evenodd" d="M4.7713 3.92472L12.0764 11.2299C12.78 10.3428 13.1996 9.22156 13.1996 8.00156C13.1996 5.12968 10.8715 2.80156 7.99961 2.80156C6.77961 2.80156 5.65843 3.22113 4.7713 3.92472ZM11.2279 12.0784L3.92277 4.77325C3.21918 5.66039 2.79961 6.78156 2.79961 8.00156C2.79961 10.8735 5.12773 13.2016 7.99961 13.2016C9.21961 13.2016 10.3408 12.782 11.2279 12.0784ZM3.47413 3.47608C4.63164 2.31856 6.23247 1.60156 7.99961 1.60156C11.5342 1.60156 14.3996 4.46694 14.3996 8.00156C14.3996 9.76868 13.6826 11.3696 12.5251 12.5271C11.3676 13.6845 9.76673 14.4016 7.99961 14.4016C4.46499 14.4016 1.59961 11.5362 1.59961 8.00156C1.59961 6.23442 2.31661 4.63359 3.47413 3.47608Z" fill="#0F172A"/>
</svg>
