<svg width="16" height="16" viewBox="0 0 16 16" fill="none" xmlns="http://www.w3.org/2000/svg">
<path d="M8.452 13.3047C8.6352 13.3473 8.65192 13.5872 8.47352 13.6466L7.4202 13.9933C4.77356 14.8466 3.38022 14.1333 2.52022 11.4866L1.6669 8.85332C0.81356 6.20664 1.52022 4.80664 4.1669 3.9533L4.51622 3.83762C4.7848 3.74867 5.04618 4.01805 4.96991 4.2905C4.93211 4.42554 4.89574 4.56648 4.86022 4.7133L4.2069 7.50662C3.47356 10.6466 4.5469 12.38 7.68686 13.1266L8.452 13.3047Z" fill="white"/>
<path d="M11.4474 2.14033L10.3341 1.88033C8.10743 1.35367 6.78078 1.78699 6.00077 3.40033C5.80077 3.80699 5.64077 4.30033 5.50744 4.86699L4.8541 7.66033C4.20077 10.447 5.06077 11.8203 7.84078 12.4803L8.96079 12.747C9.34743 12.8403 9.70743 12.9003 10.0408 12.927C12.1208 13.127 13.2274 12.1537 13.7874 9.74698L14.4408 6.96033C15.0941 4.17367 14.2408 2.79367 11.4474 2.14033ZM10.1941 8.88698C10.1341 9.1137 9.93415 9.26034 9.70743 9.26034C9.66743 9.26034 9.62743 9.2537 9.58079 9.24698L7.64078 8.7537C7.37412 8.68698 7.21412 8.4137 7.28078 8.14698C7.34745 7.88033 7.62078 7.72033 7.88745 7.78699L9.82743 8.28034C10.1008 8.34698 10.2608 8.62034 10.1941 8.88698ZM12.1474 6.63367C12.0874 6.86033 11.8874 7.00699 11.6608 7.00699C11.6208 7.00699 11.5808 7.00033 11.5341 6.99367L8.30079 6.17367C8.03415 6.10699 7.87412 5.83367 7.94078 5.56699C8.00743 5.30033 8.28079 5.14033 8.54743 5.20699L11.7808 6.02699C12.0541 6.08699 12.2141 6.36033 12.1474 6.63367Z" fill="white"/>
</svg>
