<svg width="16" height="16" viewBox="0 0 16 16" fill="none" xmlns="http://www.w3.org/2000/svg">
<path d="M14.4126 8.0686L13.9993 7.9286L12.8859 7.56194C12.4993 7.43527 12.1059 7.48194 11.8059 7.69527C11.5126 7.91527 11.3393 8.2686 11.3393 8.68196V11.8752C11.0726 11.7286 10.7726 11.6352 10.4459 11.6352C9.4193 11.6352 8.58594 12.4752 8.58594 13.502C8.58594 13.6752 8.61258 13.842 8.65258 14.002C8.87258 14.7952 9.59258 15.3686 10.4459 15.3686C11.4659 15.3686 12.2926 14.5552 12.3126 13.542V10.4686C12.3259 10.4686 12.3326 10.4752 12.3459 10.482L13.8659 10.9886C13.8926 10.9952 13.9259 11.0086 13.9526 11.0086C14.0726 11.042 14.1793 11.0552 14.2926 11.0552C14.5326 11.0552 14.7593 10.9886 14.9459 10.8486C15.2459 10.6352 15.4126 10.282 15.4126 9.8686V9.4686C15.4126 8.86196 14.9859 8.26196 14.4126 8.0686ZM10.4459 14.3952C10.1393 14.3952 9.87258 14.242 9.71258 14.002C9.61258 13.862 9.5593 13.6886 9.5593 13.502C9.5593 13.0152 9.9593 12.6152 10.4459 12.6152C10.9393 12.6152 11.3393 13.0152 11.3393 13.502C11.3393 13.6552 11.2993 13.7952 11.2326 13.9152C11.0859 14.202 10.7859 14.3952 10.4459 14.3952Z" fill="white"/>
<path d="M15.4126 9.4686V9.8686C15.4126 10.282 15.2459 10.6352 14.9459 10.8486C14.7593 10.9886 14.5326 11.0552 14.2926 11.0552C14.1793 11.0552 14.0726 11.042 13.9526 11.0086C13.9259 11.0086 13.8926 10.9952 13.8659 10.9886L12.3459 10.482C12.3326 10.4752 12.3259 10.4686 12.3126 10.4686V13.542C12.2926 14.5552 11.4659 15.3686 10.4459 15.3686C9.59258 15.3686 8.87258 14.7952 8.65258 14.002C8.61258 13.842 8.58594 13.6752 8.58594 13.502C8.58594 12.4752 9.4193 11.6352 10.4459 11.6352C10.7726 11.6352 11.0726 11.7286 11.3393 11.8752V8.68196C11.3393 8.2686 11.5126 7.91527 11.8059 7.69527C12.1059 7.48194 12.4993 7.43527 12.8859 7.56194L13.9993 7.9286L14.4126 8.0686C14.9859 8.26196 15.4126 8.86196 15.4126 9.4686Z" fill="white"/>
<path d="M14.0006 5.01594V6.41594C14.0006 6.6426 13.7806 6.8026 13.5606 6.72927L13.2006 6.60927C12.5006 6.38927 11.7874 6.4826 11.2074 6.89594C10.654 7.30927 10.3406 7.9626 10.3406 8.6826V10.316C10.3406 10.496 10.2006 10.6426 10.0206 10.6692C8.64735 10.876 7.58732 12.0692 7.58732 13.5026C7.58732 13.536 7.58732 13.5692 7.58732 13.6026C7.59398 13.8092 7.44066 14.0026 7.22732 14.0026H5.01398C2.71398 14.0026 1.33398 12.6292 1.33398 10.3226V5.01594C1.33398 2.70927 2.71398 1.33594 5.01398 1.33594H10.3206C12.6206 1.33594 14.0006 2.70927 14.0006 5.01594Z" fill="white"/>
</svg>
