<svg width="16" height="16" viewBox="0 0 16 16" fill="none" xmlns="http://www.w3.org/2000/svg">
<path d="M10.6674 2.83594C10.6674 3.6626 9.99399 4.33594 9.16735 4.33594H6.83398C6.42066 4.33594 6.04732 4.16927 5.77398 3.89594C5.50066 3.6226 5.33398 3.24927 5.33398 2.83594C5.33398 2.00927 6.00732 1.33594 6.83398 1.33594H9.16735C9.58063 1.33594 9.95399 1.5026 10.2274 1.77594C10.5006 2.04927 10.6674 2.4226 10.6674 2.83594Z" fill="white"/>
<path d="M12.5526 3.3538C12.3994 3.22713 12.226 3.12713 12.0394 3.0538C11.846 2.98046 11.6526 3.1338 11.6126 3.3338C11.386 4.4738 10.3794 5.3338 9.16601 5.3338H6.83268C6.16602 5.3338 5.53934 5.0738 5.06602 4.60046C4.71934 4.2538 4.47934 3.8138 4.38602 3.34046C4.34602 3.14046 4.14602 2.98046 3.95268 3.06046C3.17934 3.3738 2.66602 4.08046 2.66602 5.50046V12.0005C2.66602 14.0005 3.85934 14.6671 5.33268 14.6671H10.666C12.1394 14.6671 13.3326 14.0005 13.3326 12.0005V5.50046C13.3326 4.4138 13.0326 3.74713 12.5526 3.3538ZM5.33268 8.1671H7.99934C8.27265 8.1671 8.49937 8.39382 8.49937 8.6671C8.49937 8.94046 8.27265 9.1671 7.99934 9.1671H5.33268C5.05934 9.1671 4.83268 8.94046 4.83268 8.6671C4.83268 8.39382 5.05934 8.1671 5.33268 8.1671ZM10.666 11.8338H5.33268C5.05934 11.8338 4.83268 11.6071 4.83268 11.3338C4.83268 11.0605 5.05934 10.8338 5.33268 10.8338H10.666C10.9394 10.8338 11.166 11.0605 11.166 11.3338C11.166 11.6071 10.9394 11.8338 10.666 11.8338Z" fill="white"/>
</svg>
