<svg width="16" height="16" viewBox="0 0 16 16" fill="none" xmlns="http://www.w3.org/2000/svg">
<path d="M5.52734 4.19594C5.24734 4.19594 5.02734 3.96927 5.02734 3.69594V1.83594C5.02734 1.5626 5.24734 1.33594 5.52734 1.33594C5.80734 1.33594 6.02734 1.5626 6.02734 1.83594V3.68927C6.02734 3.96927 5.80734 4.19594 5.52734 4.19594Z" fill="white"/>
<path d="M10.4727 4.19594C10.1927 4.19594 9.97266 3.96927 9.97266 3.69594V1.83594C9.97266 1.55594 10.1993 1.33594 10.4727 1.33594C10.7527 1.33594 10.9727 1.5626 10.9727 1.83594V3.68927C10.9727 3.96927 10.7527 4.19594 10.4727 4.19594Z" fill="white"/>
<path d="M13.046 3.0026C12.606 2.67594 11.9726 2.98927 11.9726 3.5426V3.60927C11.9726 4.38927 11.4126 5.10927 10.6326 5.18927C9.73265 5.2826 8.97265 4.57594 8.97265 3.69594V3.0026C8.97265 2.63594 8.67265 2.33594 8.30601 2.33594H7.69268C7.32602 2.33594 7.02602 2.63594 7.02602 3.0026V3.69594C7.02602 4.2226 6.75268 4.68927 6.33934 4.94927C6.27934 4.98927 6.21268 5.0226 6.14602 5.05594C6.08602 5.08927 6.01934 5.11594 5.94602 5.13594C5.86602 5.1626 5.77934 5.1826 5.68602 5.18927C5.57934 5.2026 5.47268 5.2026 5.36602 5.18927C5.27268 5.1826 5.18602 5.1626 5.10602 5.13594C5.03934 5.11594 4.97268 5.08927 4.90602 5.05594C4.83934 5.0226 4.77268 4.98927 4.71268 4.94927C4.29268 4.65594 4.02602 4.14927 4.02602 3.60927V3.5426C4.02602 3.02927 3.47934 2.7226 3.04602 2.9426C3.03934 2.94927 3.03268 2.94927 3.02602 2.95594C2.99934 2.96927 2.97934 2.9826 2.95268 3.0026C2.93268 3.0226 2.90602 3.03594 2.88602 3.05594C2.69934 3.2026 2.53268 3.36927 2.39268 3.54927C2.31934 3.62927 2.25934 3.71594 2.20602 3.8026C2.19934 3.80927 2.19268 3.81594 2.18602 3.82927C2.12602 3.91594 2.07268 4.01594 2.02602 4.10927C2.01268 4.1226 2.00602 4.12927 2.00602 4.1426C1.96602 4.2226 1.92602 4.3026 1.89934 4.38927C1.87934 4.4226 1.87268 4.44927 1.85934 4.4826C1.81934 4.5826 1.79268 4.6826 1.76602 4.7826C1.73934 4.87594 1.71934 4.97594 1.70602 5.07594C1.69268 5.14927 1.68602 5.2226 1.67934 5.3026C1.67268 5.39594 1.66602 5.48927 1.66602 5.5826V11.4226C1.66602 13.216 3.11934 14.6692 4.91268 14.6692H11.086C12.8794 14.6692 14.3326 13.216 14.3326 11.4226V5.5826C14.3326 4.5226 13.826 3.59594 13.046 3.0026ZM7.99934 11.616H4.90602C4.63268 11.616 4.40602 11.3892 4.40602 11.116C4.40602 10.836 4.63268 10.6092 4.90602 10.6092H7.99934C8.27937 10.6092 8.49937 10.836 8.49937 11.116C8.49937 11.3892 8.27937 11.616 7.99934 11.616ZM9.85265 9.1426H4.90602C4.63268 9.1426 4.40602 8.91596 4.40602 8.6426C4.40602 8.3626 4.63268 8.13596 4.90602 8.13596H9.85265C10.1326 8.13596 10.3594 8.3626 10.3594 8.6426C10.3594 8.91596 10.1326 9.1426 9.85265 9.1426Z" fill="white"/>
</svg>
