<svg width="16" height="16" viewBox="0 0 16 16" fill="none" xmlns="http://www.w3.org/2000/svg">
<path d="M3.97935 0.664062H2.01935C1.17268 0.664062 0.666016 1.17073 0.666016 2.0174V3.9774C0.666016 4.82406 1.17268 5.33073 2.01935 5.33073H3.97935C4.82602 5.33073 5.33268 4.82406 5.33268 3.9774V2.0174C5.33268 1.17073 4.82602 0.664062 3.97935 0.664062ZM4.31268 3.70406C4.47935 3.87073 4.47935 4.14406 4.31268 4.31073C4.22602 4.39073 4.11268 4.43073 4.00602 4.43073C3.89935 4.43073 3.79268 4.39073 3.70602 4.31073L2.99268 3.60406L2.29935 4.31073C2.21268 4.39073 2.10602 4.43073 1.98602 4.43073C1.87935 4.43073 1.77268 4.39073 1.68602 4.31073C1.51935 4.14406 1.51935 3.87073 1.68602 3.70406L2.39935 2.9974L1.69268 2.2974C1.52602 2.13073 1.52602 1.8574 1.69268 1.69073C1.85935 1.52406 2.13268 1.52406 2.29935 1.69073L2.99268 2.3974L3.69935 1.69073C3.86602 1.52406 4.13935 1.52406 4.30602 1.69073C4.47268 1.8574 4.47268 2.13073 4.30602 2.2974L3.60602 2.9974L4.31268 3.70406Z" fill="white"/>
<path d="M14.333 10.5439C14.333 10.6439 14.2996 10.7439 14.213 10.8305C13.2463 11.8039 11.5263 13.5372 10.5396 14.5305C10.453 14.6239 10.3396 14.6639 10.2263 14.6639C10.0063 14.6639 9.79297 14.4905 9.79297 14.2372V11.9039C9.79297 10.9305 10.6196 10.1239 11.633 10.1239C12.2663 10.1172 13.1463 10.1172 13.8996 10.1172C14.1596 10.1172 14.333 10.3239 14.333 10.5439Z" fill="white"/>
<path d="M14.333 10.5439C14.333 10.6439 14.2996 10.7439 14.213 10.8305C13.2463 11.8039 11.5263 13.5372 10.5396 14.5305C10.453 14.6239 10.3396 14.6639 10.2263 14.6639C10.0063 14.6639 9.79297 14.4905 9.79297 14.2372V11.9039C9.79297 10.9305 10.6196 10.1239 11.633 10.1239C12.2663 10.1172 13.1463 10.1172 13.8996 10.1172C14.1596 10.1172 14.333 10.3239 14.333 10.5439Z" fill="white"/>
<path d="M11.086 1.33594H6.99934C6.63268 1.33594 6.33268 1.63594 6.33268 2.0026V4.33594C6.33268 5.4426 5.43934 6.33594 4.33268 6.33594H2.33268C1.96602 6.33594 1.66602 6.63594 1.66602 7.0026V11.4226C1.66602 13.216 3.11934 14.6692 4.91268 14.6692H8.12601C8.49265 14.6692 8.79265 14.3692 8.79265 14.0026V11.9092C8.79265 10.376 10.066 9.12924 11.6326 9.12924C11.986 9.1226 12.846 9.1226 13.666 9.1226C14.0326 9.1226 14.3326 8.82924 14.3326 8.45596V4.5826C14.3326 2.78927 12.8794 1.33594 11.086 1.33594ZM5.81268 11.3426H4.05268C3.77934 11.3426 3.55268 11.116 3.55268 10.8426C3.55268 10.5626 3.77934 10.336 4.05268 10.336H5.81268C6.09934 10.336 6.31268 10.5626 6.31268 10.8426C6.31268 11.116 6.09934 11.3426 5.81268 11.3426ZM7.67268 8.86924H4.05268C3.77934 8.86924 3.55268 8.6426 3.55268 8.36924C3.55268 8.08924 3.77934 7.8626 4.05268 7.8626H7.67268C7.94602 7.8626 8.17937 8.08924 8.17937 8.36924C8.17937 8.6426 7.94602 8.86924 7.67268 8.86924Z" fill="white"/>
</svg>
