<svg width="16" height="16" viewBox="0 0 16 16" fill="none" xmlns="http://www.w3.org/2000/svg">
<path d="M5.16602 2.33594V1.33594C5.16602 1.0626 4.93934 0.835938 4.66602 0.835938C4.39268 0.835938 4.16602 1.0626 4.16602 1.33594V2.37594C4.33268 2.35594 4.48602 2.33594 4.66602 2.33594H5.16602Z" fill="white"/>
<path d="M10.5 2.37594V1.33594C10.5 1.0626 10.2734 0.835938 10 0.835938C9.72664 0.835938 9.5 1.0626 9.5 1.33594V2.33594H10C10.18 2.33594 10.3334 2.35594 10.5 2.37594Z" fill="white"/>
<path d="M14.194 9.98258C13.6806 9.57594 13.034 9.33594 12.334 9.33594C11.634 9.33594 10.974 9.58258 10.4606 9.99594C9.76734 10.5426 9.33398 11.3959 9.33398 12.3359C9.33398 12.8959 9.49398 13.4359 9.76734 13.8759C9.98062 14.2226 10.254 14.5292 10.5806 14.7626C11.074 15.1226 11.674 15.3359 12.334 15.3359C13.094 15.3359 13.7806 15.0559 14.3073 14.5892C14.5406 14.3959 14.7406 14.1559 14.9006 13.8826C15.174 13.4359 15.334 12.8959 15.334 12.3359C15.334 11.3826 14.8873 10.5292 14.194 9.98258ZM12.334 13.7626C12.334 12.9759 11.694 12.3359 10.9073 12.3359C11.694 12.3359 12.334 11.6959 12.334 10.9092C12.334 11.6959 12.974 12.3359 13.7606 12.3359C12.974 12.3359 12.334 12.9759 12.334 13.7626Z" fill="white"/>
<path d="M10.5006 2.37594V3.33594C10.5006 3.60927 10.274 3.83594 10.0006 3.83594C9.72735 3.83594 9.50063 3.60927 9.50063 3.33594V2.33594H5.16732V3.33594C5.16732 3.60927 4.94066 3.83594 4.66732 3.83594C4.39398 3.83594 4.16732 3.60927 4.16732 3.33594V2.37594C2.20066 2.55594 1.33398 3.8226 1.33398 5.66927V11.336C1.33398 13.336 2.33398 14.6692 4.66732 14.6692H7.42066C7.92732 14.6692 8.26735 14.1026 8.14063 13.6092C8.04735 13.2492 8.00063 12.876 8.00063 12.5026C8.00063 11.116 8.62063 9.83596 9.69399 8.98924C10.474 8.35596 11.474 8.0026 12.5006 8.0026H12.5274C12.9474 8.0026 13.334 7.69594 13.334 7.27594V5.66927C13.334 3.8226 12.4674 2.55594 10.5006 2.37594ZM6.00066 11.1692H4.66732C4.39398 11.1692 4.16732 10.9426 4.16732 10.6692C4.16732 10.396 4.39398 10.1692 4.66732 10.1692H6.00066C6.27398 10.1692 6.50066 10.396 6.50066 10.6692C6.50066 10.9426 6.27398 11.1692 6.00066 11.1692ZM8.00063 7.83594H4.66732C4.39398 7.83594 4.16732 7.60927 4.16732 7.33594C4.16732 7.0626 4.39398 6.83594 4.66732 6.83594H8.00063C8.27399 6.83594 8.50063 7.0626 8.50063 7.33594C8.50063 7.60927 8.27399 7.83594 8.00063 7.83594Z" fill="white"/>
</svg>
