<svg width="16" height="16" viewBox="0 0 16 16" fill="none" xmlns="http://www.w3.org/2000/svg">
<path d="M5.83398 2.33594V1.33594C5.83398 1.0626 5.60732 0.835938 5.33398 0.835938C5.06066 0.835938 4.83398 1.0626 4.83398 1.33594V2.37594C5.00066 2.35594 5.15398 2.33594 5.33398 2.33594H5.83398Z" fill="white"/>
<path d="M11.166 2.37594V1.33594C11.166 1.0626 10.9394 0.835938 10.666 0.835938C10.3927 0.835938 10.166 1.0626 10.166 1.33594V2.33594H10.666C10.846 2.33594 10.9994 2.35594 11.166 2.37594Z" fill="white"/>
<path d="M11.1666 2.37594V3.33594C11.1666 3.60927 10.94 3.83594 10.6666 3.83594C10.3934 3.83594 10.1666 3.60927 10.1666 3.33594V2.33594H5.83334V3.33594C5.83334 3.60927 5.60666 3.83594 5.33334 3.83594C5.06 3.83594 4.83334 3.60927 4.83334 3.33594V2.37594C2.86666 2.55594 2 3.8226 2 5.66927V11.336C2 13.336 3 14.6692 5.33334 14.6692H10.6666C13 14.6692 14 13.336 14 11.336V5.66927C14 3.8226 13.1334 2.55594 11.1666 2.37594ZM8 11.1692H5.33334C5.06 11.1692 4.83334 10.9426 4.83334 10.6692C4.83334 10.396 5.06 10.1692 5.33334 10.1692H8C8.27336 10.1692 8.5 10.396 8.5 10.6692C8.5 10.9426 8.27336 11.1692 8 11.1692ZM10.6666 7.83594H5.33334C5.06 7.83594 4.83334 7.60927 4.83334 7.33594C4.83334 7.0626 5.06 6.83594 5.33334 6.83594H10.6666C10.94 6.83594 11.1666 7.0626 11.1666 7.33594C11.1666 7.60927 10.94 7.83594 10.6666 7.83594Z" fill="white"/>
</svg>
