<svg width="16" height="16" viewBox="0 0 16 16" fill="none" xmlns="http://www.w3.org/2000/svg">
<path d="M9.03352 13.4399C8.86024 13.5133 8.67352 13.5799 8.47352 13.6466L7.4202 13.9933C4.77356 14.8466 3.38022 14.1333 2.52022 11.4866L1.6669 8.85327C0.81356 6.20662 1.52022 4.80662 4.1669 3.95329L5.19356 3.61328C5.0669 3.93329 4.96022 4.29995 4.86022 4.71329L4.2069 7.50661C3.47356 10.6466 4.5469 12.3799 7.68686 13.1266L8.80688 13.3933C8.88024 13.4133 8.96024 13.4266 9.03352 13.4399Z" fill="white"/>
<path d="M11.4474 2.14033L10.3341 1.88033C8.10743 1.35367 6.78078 1.78699 6.00077 3.40033C5.80077 3.80699 5.64077 4.30033 5.50744 4.86699L4.8541 7.66033C4.20077 10.447 5.06077 11.8203 7.84078 12.4803L8.96079 12.747C9.34743 12.8403 9.70743 12.9003 10.0408 12.927C12.1208 13.127 13.2274 12.1537 13.7874 9.74698L14.4408 6.96033C15.0941 4.17367 14.2408 2.79367 11.4474 2.14033Z" fill="white"/>
</svg>
