<svg width="16" height="16" viewBox="0 0 16 16" fill="none" xmlns="http://www.w3.org/2000/svg">
<path d="M13.4595 9.37388L12.7062 8.12052C12.5395 7.84719 12.3928 7.32052 12.3928 7.00052V5.75385C12.3928 3.33385 10.4262 1.36719 8.01282 1.36719C5.59282 1.37385 3.62615 3.33385 3.62615 5.75385V6.99386C3.62615 7.31386 3.47948 7.84052 3.31948 8.11388L2.56615 9.36716C2.27948 9.85388 2.21282 10.4072 2.39282 10.8872C2.57282 11.3739 2.97948 11.7605 3.51282 11.9339C4.23282 12.1739 4.95948 12.3472 5.69948 12.4739C5.77282 12.4872 5.84615 12.4939 5.91948 12.5072C6.01282 12.5205 6.11282 12.5339 6.21282 12.5472C6.38615 12.5739 6.55948 12.5939 6.73948 12.6072C7.15948 12.6472 7.58615 12.6672 8.01282 12.6672C8.43282 12.6672 8.85282 12.6472 9.26618 12.6072C9.41946 12.5939 9.57282 12.5805 9.71946 12.5605C9.83946 12.5472 9.95946 12.5339 10.0795 12.5139C10.1528 12.5072 10.2262 12.4939 10.2995 12.4805C11.0462 12.3605 11.7862 12.1739 12.5062 11.9339C13.0195 11.7605 13.4128 11.3739 13.5995 10.8805C13.7862 10.3805 13.7328 9.83388 13.4595 9.37388ZM8.49946 6.66719C8.49946 6.94719 8.27282 7.17385 7.99282 7.17385C7.71282 7.17385 7.48615 6.94719 7.48615 6.66719V4.60053C7.48615 4.32053 7.71282 4.09385 7.99282 4.09385C8.27282 4.09385 8.49946 4.32053 8.49946 4.60053V6.66719Z" fill="white"/>
<path d="M9.88585 13.3426C9.60585 14.1159 8.86585 14.6692 7.99915 14.6692C7.47248 14.6692 6.95248 14.4559 6.58581 14.0759C6.37248 13.8759 6.21248 13.6092 6.11914 13.3359C6.20581 13.3492 6.29248 13.3559 6.38581 13.3692C6.53914 13.3892 6.69915 13.4092 6.85915 13.4226C7.23915 13.4559 7.62582 13.4759 8.01249 13.4759C8.39249 13.4759 8.77249 13.4559 9.14585 13.4226C9.28585 13.4092 9.42585 13.4026 9.55913 13.3826C9.66585 13.3692 9.77249 13.3559 9.88585 13.3426Z" fill="white"/>
</svg>
