<svg width="16" height="16" viewBox="0 0 16 16" fill="none" xmlns="http://www.w3.org/2000/svg">
<path d="M12.8926 9.6626L12.2259 8.55596C12.0859 8.30924 11.9593 7.8426 11.9593 7.56927V5.8826C11.9593 4.31594 11.0393 2.9626 9.71265 2.32927C9.36593 1.71594 8.72593 1.33594 7.99262 1.33594C7.26595 1.33594 6.61264 1.72927 6.26598 2.34927C4.96598 2.99594 4.06598 4.33594 4.06598 5.8826V7.56927C4.06598 7.8426 3.93931 8.30924 3.79931 8.54924L3.12598 9.6626C2.85931 10.1092 2.79931 10.6026 2.96598 11.056C3.12598 11.5026 3.50598 11.8492 3.99931 12.016C5.29264 12.456 6.65264 12.6692 8.01265 12.6692C9.37265 12.6692 10.7326 12.456 12.0259 12.0226C12.4926 11.8692 12.8526 11.516 13.0259 11.056C13.1993 10.596 13.1526 10.0892 12.8926 9.6626Z" fill="white"/>
<path d="M9.88585 13.3426C9.60585 14.1159 8.86585 14.6692 7.99915 14.6692C7.47248 14.6692 6.95248 14.4559 6.58581 14.0759C6.37248 13.8759 6.21248 13.6092 6.11914 13.3359C6.20581 13.3492 6.29248 13.3559 6.38581 13.3692C6.53914 13.3892 6.69915 13.4092 6.85915 13.4226C7.23915 13.4559 7.62582 13.4759 8.01249 13.4759C8.39249 13.4759 8.77249 13.4559 9.14585 13.4226C9.28585 13.4092 9.42585 13.4026 9.55913 13.3826C9.66585 13.3692 9.77249 13.3559 9.88585 13.3426Z" fill="white"/>
</svg>
