<svg width="16" height="16" viewBox="0 0 16 16" fill="none" xmlns="http://www.w3.org/2000/svg">
<path d="M12.666 5.33594C13.7707 5.33594 14.666 4.44051 14.666 3.33594C14.666 2.23137 13.7707 1.33594 12.666 1.33594C11.5615 1.33594 10.666 2.23137 10.666 3.33594C10.666 4.44051 11.5615 5.33594 12.666 5.33594Z" fill="white"/>
<path d="M13.2006 6.28C13.1806 6.28666 13.1606 6.28666 13.1406 6.29334C13.0874 6.3 13.0406 6.30666 12.9806 6.31334C12.8806 6.32666 12.774 6.33334 12.6674 6.33334C12.3806 6.33334 12.1074 6.29334 11.8474 6.21334C11.734 6.18666 11.6274 6.15334 11.5274 6.10666C11.4274 6.06666 11.3206 6.01334 11.2274 5.96C10.7274 5.68666 10.314 5.27334 10.0406 4.77334C9.98735 4.68 9.93399 4.57334 9.89399 4.47334C9.84735 4.37334 9.81399 4.26666 9.78735 4.15334C9.70735 3.89334 9.66735 3.62 9.66735 3.33334C9.66735 3.22666 9.67399 3.12 9.68735 3.02C9.69399 2.96 9.70063 2.91334 9.70735 2.86C9.71399 2.84 9.71399 2.82 9.72063 2.8C9.80063 2.38666 9.49399 2 9.06735 2H5.01398C4.92066 2 4.82732 2.00666 4.74066 2.01334C4.66066 2.02 4.58732 2.02666 4.50732 2.04C4.42732 2.04666 4.34732 2.06 4.27398 2.07334C2.66732 2.30666 1.64066 3.32666 1.40732 4.94C1.39398 5.01334 1.38066 5.09334 1.37398 5.17334C1.36066 5.25334 1.35398 5.32666 1.34732 5.40666C1.34066 5.49334 1.33398 5.58666 1.33398 5.68V10.9866C1.33398 11.08 1.34066 11.1734 1.34732 11.26C1.35398 11.34 1.36066 11.4134 1.37398 11.4934C1.38066 11.5734 1.39398 11.6534 1.40732 11.7266C1.64066 13.34 2.66732 14.36 4.27398 14.5934C4.34732 14.6066 4.42732 14.62 4.50732 14.6266C4.58732 14.64 4.66066 14.6466 4.74066 14.6534C4.82732 14.66 4.92066 14.6666 5.01398 14.6666H10.3206C10.414 14.6666 10.5074 14.66 10.594 14.6534C10.674 14.6466 10.7474 14.64 10.8274 14.6266C10.9074 14.62 10.9874 14.6066 11.0606 14.5934C12.6674 14.36 13.694 13.34 13.9274 11.7266C13.9406 11.6534 13.954 11.5734 13.9606 11.4934C13.974 11.4134 13.9806 11.34 13.9874 11.26C13.994 11.1734 14.0006 11.08 14.0006 10.9866V6.93334C14.0006 6.50666 13.614 6.2 13.2006 6.28ZM8.18735 10.1666C7.83398 11.28 6.62066 11.88 6.20066 11.88C5.77398 11.88 4.58066 11.2934 4.22066 10.1666H4.21398C3.98066 9.42664 4.24732 8.46 5.09398 8.18664C5.48066 8.06 5.89398 8.13336 6.19398 8.36664C6.49398 8.13336 6.91398 8.06 7.30732 8.18664C8.15399 8.46 8.42063 9.42664 8.18735 10.1666Z" fill="white"/>
</svg>
