<svg width="16" height="16" viewBox="0 0 16 16" fill="none" xmlns="http://www.w3.org/2000/svg">
<path d="M12.666 5.33594C13.7707 5.33594 14.666 4.44051 14.666 3.33594C14.666 2.23137 13.7707 1.33594 12.666 1.33594C11.5615 1.33594 10.666 2.23137 10.666 3.33594C10.666 4.44051 11.5615 5.33594 12.666 5.33594Z" fill="white"/>
<path d="M14.0006 6.93334V10.9866C14.0006 11.08 13.994 11.1734 13.9874 11.26C13.9806 11.34 13.974 11.4134 13.9606 11.4934C13.954 11.5734 13.9406 11.6534 13.9274 11.7266C13.694 13.34 12.6674 14.36 11.0606 14.5934C10.9874 14.6066 10.9074 14.62 10.8274 14.6266C10.7474 14.64 10.674 14.6466 10.594 14.6534C10.5074 14.66 10.414 14.6666 10.3206 14.6666H5.01398C4.92066 14.6666 4.82732 14.66 4.74066 14.6534C4.66066 14.6466 4.58732 14.64 4.50732 14.6266C4.42732 14.62 4.34732 14.6066 4.27398 14.5934C2.66732 14.36 1.64066 13.34 1.40732 11.7266C1.39398 11.6534 1.38066 11.5734 1.37398 11.4934C1.36066 11.4134 1.35398 11.34 1.34732 11.26C1.34066 11.1734 1.33398 11.08 1.33398 10.9866V5.68C1.33398 5.58666 1.34066 5.49334 1.34732 5.40666C1.35398 5.32666 1.36066 5.25334 1.37398 5.17334C1.38066 5.09334 1.39398 5.01334 1.40732 4.94C1.64066 3.32666 2.66732 2.30666 4.27398 2.07334C4.34732 2.06 4.42732 2.04666 4.50732 2.04C4.58732 2.02666 4.66066 2.02 4.74066 2.01334C4.82732 2.00666 4.92066 2 5.01398 2H9.06735C9.49399 2 9.80063 2.38666 9.72063 2.8C9.72063 2.81334 9.71399 2.82666 9.71399 2.84C9.70063 2.90666 9.69399 2.97334 9.68063 3.04666C9.65399 3.32666 9.66735 3.62666 9.72735 3.93334C9.74735 4.01334 9.76063 4.08 9.78735 4.15334C9.84063 4.37334 9.92735 4.58 10.0406 4.77334C10.0806 4.85334 10.134 4.93334 10.1806 5.00666C10.4006 5.32666 10.674 5.6 10.994 5.82C11.0674 5.86666 11.1474 5.92 11.2274 5.96C11.4206 6.07334 11.6274 6.16 11.8474 6.21334C11.9206 6.24 11.9874 6.25334 12.0674 6.27334C12.374 6.33334 12.674 6.34666 12.954 6.32C13.0274 6.30666 13.094 6.3 13.1606 6.28666C13.174 6.28666 13.1874 6.28 13.2006 6.28C13.614 6.2 14.0006 6.50666 14.0006 6.93334Z" fill="white"/>
</svg>
