<svg width="16" height="16" viewBox="0 0 16 16" fill="none" xmlns="http://www.w3.org/2000/svg">
<path d="M8 3.16364C7.93334 3.16364 7.86666 3.15698 7.80666 3.14364C7.74 3.13031 7.68 3.1103 7.62 3.0903C7.56 3.06364 7.5 3.03031 7.44666 2.99698C7.39334 2.95698 7.34 2.91697 7.29334 2.8703C7.10666 2.68364 7 2.43031 7 2.16364C7 1.89698 7.10666 1.64364 7.29334 1.45698C7.34 1.41031 7.39334 1.37031 7.44666 1.33031C7.5 1.29698 7.56 1.26364 7.62 1.24364C7.68 1.21697 7.74 1.19697 7.80666 1.18364C8.12664 1.11697 8.47336 1.22364 8.70664 1.45698C8.89336 1.64364 9 1.89698 9 2.16364C9 2.43031 8.89336 2.68364 8.70664 2.8703C8.52 3.05697 8.26 3.16364 8 3.16364Z" fill="white"/>
<path d="M8 6.16406C7.93334 6.16406 7.86666 6.1574 7.80666 6.14406C7.74 6.13072 7.68 6.11072 7.62 6.09072C7.56 6.06406 7.5 6.03072 7.44666 5.9974C7.39334 5.9574 7.34 5.9174 7.29334 5.87072C7.10666 5.68406 7 5.43072 7 5.16406C7 4.8974 7.10666 4.64406 7.29334 4.4574C7.34 4.41072 7.39334 4.37072 7.44666 4.33072C7.5 4.2974 7.56 4.26406 7.62 4.24406C7.68 4.2174 7.74 4.1974 7.80666 4.18406C7.93334 4.1574 8.06664 4.1574 8.19336 4.18406C8.26 4.1974 8.32 4.2174 8.38 4.24406C8.44 4.26406 8.5 4.2974 8.55336 4.33072C8.60664 4.37072 8.66 4.41072 8.70664 4.4574C8.89336 4.64406 9 4.8974 9 5.16406C9 5.43072 8.89336 5.68406 8.70664 5.87072C8.66 5.9174 8.60664 5.9574 8.55336 5.9974C8.5 6.03072 8.44 6.06406 8.38 6.09072C8.32 6.11072 8.26 6.13072 8.19336 6.14406C8.13336 6.1574 8.06664 6.16406 8 6.16406Z" fill="white"/>
<path d="M8 8.83548C7.93334 8.83548 7.86666 8.82884 7.80666 8.81548C7.74 8.8022 7.68 8.7822 7.62 8.7622C7.56 8.73548 7.5 8.7022 7.44666 8.66884C7.39334 8.62884 7.34 8.58884 7.29334 8.5422C7.24666 8.49548 7.20666 8.44884 7.16666 8.38884C7.13334 8.33548 7.1 8.27548 7.07334 8.21548C7.05334 8.15548 7.03334 8.09548 7.02 8.02884C7.00666 7.96885 7 7.90218 7 7.83551C7 7.56885 7.10666 7.31551 7.29334 7.12885C7.34 7.08218 7.39334 7.04218 7.44666 7.00218C7.5 6.96885 7.56 6.93551 7.62 6.90885C7.68 6.88885 7.74 6.86885 7.80666 6.85551C8.12664 6.78885 8.47336 6.89551 8.70664 7.12885C8.89336 7.31551 9 7.56885 9 7.83551C9 7.90218 8.99336 7.96885 8.98 8.02884C8.96664 8.09548 8.94664 8.15548 8.92 8.21548C8.9 8.27548 8.86664 8.33548 8.83336 8.38884C8.79336 8.44884 8.75336 8.49548 8.70664 8.5422C8.66 8.58884 8.60664 8.62884 8.55336 8.66884C8.5 8.7022 8.44 8.73548 8.38 8.7622C8.32 8.7822 8.26 8.8022 8.19336 8.81548C8.13336 8.82884 8.06664 8.83548 8 8.83548Z" fill="white"/>
<path d="M8.00063 11.1673C7.82732 11.1673 7.65398 11.094 7.52732 10.974C7.40732 10.8473 7.33398 10.674 7.33398 10.5007C7.33398 10.3273 7.40732 10.154 7.52732 10.0273C7.68066 9.87397 7.91398 9.80733 8.12735 9.84733C8.17399 9.85397 8.21399 9.86733 8.25399 9.88733C8.29399 9.90069 8.33399 9.92069 8.36735 9.94733C8.40735 9.97397 8.44063 10.0007 8.47399 10.0273C8.59399 10.154 8.66735 10.3273 8.66735 10.5007C8.66735 10.674 8.59399 10.8473 8.47399 10.974C8.44063 11.0007 8.40735 11.0273 8.36735 11.054C8.33399 11.0807 8.29399 11.1007 8.25399 11.114C8.21399 11.134 8.17399 11.1473 8.12735 11.154C8.08735 11.1607 8.04063 11.1673 8.00063 11.1673Z" fill="white"/>
<path d="M8 13.336C7.93334 13.336 7.86666 13.3226 7.80666 13.296C7.74666 13.2692 7.69334 13.236 7.64666 13.1892C7.6 13.1426 7.56 13.0892 7.54 13.0292C7.51334 12.9692 7.5 12.9026 7.5 12.836C7.5 12.7026 7.55334 12.576 7.64666 12.4826C7.69334 12.436 7.74666 12.4026 7.80666 12.376C7.93334 12.3226 8.06664 12.3226 8.19336 12.376C8.25336 12.4026 8.30664 12.436 8.35336 12.4826C8.4 12.5292 8.43336 12.5826 8.46 12.6426C8.48664 12.7026 8.5 12.7692 8.5 12.836C8.5 12.9026 8.48664 12.9692 8.46 13.0292C8.43336 13.0892 8.4 13.1426 8.35336 13.1892C8.30664 13.236 8.25336 13.2692 8.19336 13.296C8.12664 13.3226 8.06664 13.336 8 13.336Z" fill="white"/>
<path d="M7.99934 14.7164C7.91268 14.7164 7.82602 14.683 7.76602 14.6164C7.69934 14.5564 7.66602 14.4697 7.66602 14.383C7.66602 14.2964 7.69934 14.2097 7.76602 14.1497C7.88602 14.023 8.11265 14.023 8.23265 14.1497C8.29937 14.2097 8.33265 14.2964 8.33265 14.383C8.33265 14.4697 8.29937 14.5564 8.23265 14.6164C8.17265 14.683 8.08601 14.7164 7.99934 14.7164Z" fill="white"/>
<path d="M2.33398 6.16635C2.06732 6.16635 1.81398 6.05969 1.62732 5.87302C1.44066 5.68635 1.33398 5.43302 1.33398 5.16635C1.33398 4.90635 1.44066 4.64635 1.62732 4.45969C1.99398 4.08635 2.66732 4.08635 3.04066 4.45969C3.22732 4.64635 3.33398 4.90635 3.33398 5.16635C3.33398 5.43302 3.22732 5.68635 3.04066 5.87302C2.99398 5.91969 2.94066 5.95969 2.88734 5.99969C2.834 6.03302 2.77399 6.06635 2.71399 6.08635C2.65399 6.11302 2.59398 6.13302 2.5273 6.14635C2.4673 6.15969 2.40066 6.16635 2.33398 6.16635Z" fill="white"/>
<path d="M13.666 6.16406C13.406 6.16406 13.146 6.0574 12.9594 5.87072C12.7727 5.68406 12.666 5.42406 12.666 5.16406C12.666 5.0974 12.6727 5.03073 12.686 4.97073C12.6994 4.90407 12.7194 4.84405 12.7394 4.78405C12.766 4.72405 12.7994 4.66406 12.8327 4.61072C12.8727 4.5574 12.9127 4.50406 12.9594 4.4574C13.006 4.41072 13.0594 4.37072 13.1127 4.33072C13.166 4.2974 13.226 4.26406 13.286 4.24406C13.346 4.2174 13.406 4.1974 13.4727 4.18406C13.5994 4.1574 13.7327 4.1574 13.8594 4.18406C13.926 4.1974 13.986 4.2174 14.046 4.24406C14.106 4.26406 14.166 4.2974 14.2194 4.33072C14.2727 4.37072 14.326 4.41072 14.3727 4.4574C14.4194 4.50406 14.4594 4.5574 14.4994 4.61072C14.5327 4.66406 14.566 4.72405 14.586 4.78405C14.6127 4.84405 14.6327 4.90407 14.646 4.97073C14.6594 5.03073 14.666 5.0974 14.666 5.16406C14.666 5.43072 14.5594 5.68406 14.3727 5.87072C14.326 5.9174 14.2727 5.9574 14.2194 5.9974C14.166 6.03072 14.106 6.06406 14.046 6.09072C13.986 6.11072 13.926 6.13072 13.8594 6.14406C13.7927 6.1574 13.7327 6.16406 13.666 6.16406Z" fill="white"/>
<path d="M13.6666 8.49908C13.6266 8.49908 13.58 8.49236 13.54 8.48572C13.4934 8.47908 13.4534 8.46572 13.4134 8.44572C13.3734 8.43236 13.3334 8.41236 13.2934 8.38572C13.26 8.36572 13.2266 8.33236 13.1934 8.30572C13.1666 8.27236 13.1334 8.23908 13.1134 8.20572C13.0866 8.16572 13.0666 8.12572 13.0534 8.08572C13.0334 8.04572 13.02 8.00572 13.0134 7.96573C13.0066 7.91906 13 7.87906 13 7.8324C13 7.65906 13.0734 7.48573 13.1934 7.35906C13.2266 7.3324 13.26 7.30573 13.2934 7.27906C13.3334 7.2524 13.3734 7.2324 13.4134 7.21906C13.4534 7.19906 13.4934 7.18573 13.54 7.17906C13.62 7.15906 13.7066 7.15906 13.7934 7.17906C13.84 7.18573 13.88 7.19906 13.92 7.21906C13.96 7.2324 14 7.2524 14.0334 7.27906C14.0734 7.30573 14.1066 7.3324 14.14 7.35906C14.26 7.48573 14.3334 7.65906 14.3334 7.8324C14.3334 7.87906 14.3266 7.91906 14.32 7.96573C14.3134 8.00572 14.3 8.04572 14.28 8.08572C14.2666 8.12572 14.2466 8.16572 14.22 8.20572C14.1934 8.23908 14.1666 8.27236 14.14 8.30572C14.1066 8.33236 14.0734 8.36572 14.0334 8.38572C14 8.41236 13.96 8.43236 13.92 8.44572C13.88 8.46572 13.84 8.47908 13.7934 8.48572C13.7534 8.49236 13.7066 8.49908 13.6666 8.49908Z" fill="white"/>
<path d="M2.33268 8.50058C2.15934 8.50058 1.986 8.42722 1.85934 8.30722C1.73934 8.18058 1.66602 8.00722 1.66602 7.8339C1.66602 7.66057 1.73934 7.48723 1.85934 7.36057C2.046 7.17389 2.33934 7.11389 2.58602 7.22056C2.67268 7.25389 2.73936 7.30057 2.80602 7.36057C2.92602 7.48723 2.99934 7.66057 2.99934 7.8339C2.99934 8.00722 2.92602 8.18058 2.80602 8.30722C2.67936 8.42722 2.50602 8.50058 2.33268 8.50058Z" fill="white"/>
<path d="M13.666 10.3349C13.5327 10.3349 13.406 10.2817 13.3127 10.1883C13.2194 10.0949 13.166 9.9683 13.166 9.83494C13.166 9.7683 13.1794 9.7083 13.206 9.64166C13.2327 9.58166 13.266 9.5283 13.3127 9.48166C13.4527 9.34166 13.6727 9.29494 13.8594 9.37494C13.9194 9.40166 13.9727 9.43494 14.0194 9.48166C14.066 9.5283 14.0994 9.58166 14.126 9.64166C14.1527 9.7083 14.166 9.7683 14.166 9.83494C14.166 9.9683 14.1127 10.0949 14.0194 10.1883C13.9727 10.2349 13.9194 10.2683 13.8594 10.2949C13.7927 10.3217 13.7327 10.3349 13.666 10.3349Z" fill="white"/>
<path d="M2.33398 10.3332C2.20066 10.3332 2.07397 10.2799 1.98063 10.1865C1.93397 10.1399 1.89398 10.0865 1.87398 10.0265C1.84732 9.96652 1.83398 9.89988 1.83398 9.83316C1.83398 9.76652 1.84732 9.70652 1.87398 9.63988C1.89398 9.57988 1.93397 9.52652 1.98063 9.47988C2.16063 9.29316 2.50067 9.29316 2.68734 9.47988C2.73401 9.52652 2.76732 9.57988 2.79398 9.63988C2.82066 9.70652 2.83398 9.76652 2.83398 9.83316C2.83398 9.89988 2.82066 9.96652 2.79398 10.0265C2.76732 10.0865 2.73401 10.1399 2.68734 10.1865C2.59401 10.2799 2.46732 10.3332 2.33398 10.3332Z" fill="white"/>
<path d="M13.6673 11.9976C13.6206 11.9976 13.5806 11.9909 13.5406 11.9709C13.5006 11.9576 13.4606 11.9309 13.434 11.8976C13.3673 11.8376 13.334 11.7509 13.334 11.6643C13.334 11.5776 13.3673 11.4909 13.434 11.4309C13.554 11.3043 13.7806 11.3043 13.9006 11.4309C13.9673 11.4909 14.0006 11.5776 14.0006 11.6643C14.0006 11.7509 13.9673 11.8376 13.9006 11.8976C13.8406 11.9643 13.754 11.9976 13.6673 11.9976Z" fill="white"/>
<path d="M2.33334 11.9976C2.24666 11.9976 2.16002 11.9643 2.10002 11.8976C2.03334 11.8376 2 11.7509 2 11.6643C2 11.5776 2.03334 11.4909 2.10002 11.4309C2.22002 11.3043 2.44666 11.3043 2.56666 11.4309C2.63332 11.4909 2.66666 11.5776 2.66666 11.6643C2.66666 11.7509 2.63332 11.8376 2.56666 11.8976C2.50666 11.9643 2.42 11.9976 2.33334 11.9976Z" fill="white"/>
<path d="M5.16602 4.66635C5.09934 4.66635 5.0327 4.65969 4.9727 4.64635C4.90602 4.63302 4.84601 4.61302 4.78601 4.58635C4.71934 4.56635 4.666 4.53302 4.61266 4.49969C4.55266 4.45969 4.50602 4.41969 4.45934 4.37302C4.27268 4.18635 4.16602 3.92635 4.16602 3.66635C4.16602 3.40635 4.27268 3.14635 4.45934 2.95969C4.83268 2.58635 5.49934 2.58635 5.87268 2.95969C6.05934 3.14635 6.16602 3.39969 6.16602 3.66635C6.16602 3.93302 6.05934 4.18635 5.87268 4.37302C5.82602 4.41969 5.7727 4.45969 5.71936 4.49969C5.66602 4.53302 5.60602 4.56635 5.54602 4.58635C5.48602 4.61302 5.426 4.63302 5.35934 4.64635C5.29934 4.65969 5.23268 4.66635 5.16602 4.66635Z" fill="white"/>
<path d="M10.834 4.66406C10.7673 4.66406 10.7006 4.6574 10.6406 4.64406C10.574 4.63072 10.514 4.61073 10.454 4.58407C10.394 4.56407 10.334 4.53072 10.2806 4.4974C10.2273 4.4574 10.174 4.4174 10.1273 4.37072C10.0806 4.32406 10.0406 4.27072 10.0006 4.2174C9.96734 4.16406 9.93398 4.10407 9.90734 4.04407C9.88734 3.98407 9.86734 3.92405 9.85398 3.85739C9.84062 3.79739 9.83398 3.73072 9.83398 3.66406C9.83398 3.40406 9.94062 3.14406 10.1273 2.9574C10.174 2.91072 10.2273 2.87072 10.2806 2.83072C10.334 2.7974 10.394 2.76406 10.454 2.74406C10.514 2.7174 10.574 2.6974 10.6406 2.68406C10.7673 2.6574 10.9006 2.6574 11.0273 2.68406C11.094 2.6974 11.154 2.7174 11.214 2.74406C11.274 2.76406 11.334 2.7974 11.3873 2.83072C11.4406 2.87072 11.494 2.91072 11.5406 2.9574C11.7273 3.14406 11.834 3.40406 11.834 3.66406C11.834 3.73072 11.8273 3.79739 11.814 3.85739C11.8006 3.92405 11.7806 3.98407 11.7606 4.04407C11.734 4.10407 11.7006 4.16406 11.6673 4.2174C11.6273 4.27072 11.5873 4.32406 11.5406 4.37072C11.494 4.4174 11.4406 4.4574 11.3873 4.4974C11.334 4.53072 11.274 4.56407 11.214 4.58407C11.154 4.61073 11.094 4.63072 11.0273 4.64406C10.9673 4.6574 10.9006 4.66406 10.834 4.66406Z" fill="white"/>
<path d="M5.16602 7.49836C5.09934 7.49836 5.0327 7.4917 4.9727 7.47836C4.90602 7.46503 4.84601 7.44503 4.78601 7.42503C4.72601 7.39836 4.666 7.36503 4.61266 7.3317C4.55266 7.2917 4.50602 7.2517 4.45934 7.20503C4.27268 7.01836 4.16602 6.75836 4.16602 6.49838C4.16602 6.23171 4.27268 5.97838 4.45934 5.79172C4.83268 5.41838 5.49934 5.41838 5.87268 5.79172C6.05934 5.97838 6.16602 6.23171 6.16602 6.49838C6.16602 6.76503 6.05934 7.01836 5.87268 7.20503C5.68602 7.3917 5.42602 7.49836 5.16602 7.49836Z" fill="white"/>
<path d="M10.834 7.5C10.7673 7.5 10.7006 7.49333 10.6406 7.48C10.574 7.46666 10.514 7.44666 10.454 7.42C10.394 7.4 10.334 7.36666 10.2806 7.33333C10.2273 7.29333 10.174 7.25333 10.1273 7.20666C10.0806 7.16 10.0406 7.10666 10.0006 7.05333C9.96734 7 9.93398 6.94 9.90734 6.88C9.88734 6.82 9.86734 6.76 9.85398 6.69333C9.84062 6.63333 9.83398 6.56666 9.83398 6.5C9.83398 6.24 9.94062 5.98 10.1273 5.79333C10.174 5.74666 10.2273 5.70666 10.2806 5.66666C10.334 5.63333 10.394 5.6 10.454 5.58C10.514 5.55333 10.574 5.53333 10.6406 5.52C10.7673 5.49333 10.9006 5.49333 11.0273 5.52C11.094 5.53333 11.154 5.55333 11.214 5.58C11.274 5.6 11.334 5.63333 11.3873 5.66666C11.4406 5.70666 11.494 5.74666 11.5406 5.79333C11.7273 5.98 11.834 6.24 11.834 6.5C11.834 6.56666 11.8273 6.63333 11.814 6.69333C11.8006 6.76 11.7806 6.82 11.7606 6.88C11.734 6.94 11.7006 7 11.6673 7.05333C11.6273 7.10666 11.5873 7.16 11.5406 7.20666C11.494 7.25333 11.4406 7.29333 11.3873 7.33333C11.334 7.36666 11.274 7.4 11.214 7.42C11.154 7.44666 11.094 7.46666 11.0273 7.48C10.9673 7.49333 10.9006 7.5 10.834 7.5Z" fill="white"/>
<path d="M5.16666 9.83285C5.08 9.83285 4.99334 9.81285 4.91334 9.77949C4.82666 9.74613 4.75332 9.69949 4.69332 9.63949C4.63332 9.57285 4.58668 9.49949 4.55334 9.41949C4.52002 9.33949 4.5 9.25285 4.5 9.16613C4.5 8.99285 4.57332 8.81949 4.69332 8.69285C4.93998 8.44613 5.39334 8.44613 5.64002 8.69285C5.76002 8.81949 5.83334 8.99285 5.83334 9.16613C5.83334 9.25285 5.81332 9.33949 5.77998 9.41949C5.74666 9.49949 5.70002 9.57285 5.64002 9.63949C5.51334 9.75949 5.34 9.83285 5.16666 9.83285Z" fill="white"/>
<path d="M10.8327 9.83285C10.6594 9.83285 10.486 9.75949 10.3594 9.63949C10.2394 9.51285 10.166 9.33949 10.166 9.16613C10.166 8.99285 10.2394 8.81949 10.3594 8.69285C10.606 8.44613 11.0527 8.44613 11.306 8.69285C11.426 8.81949 11.4994 8.99285 11.4994 9.16613C11.4994 9.21285 11.4927 9.25285 11.486 9.29949C11.4794 9.33949 11.466 9.37949 11.446 9.41949C11.4327 9.45949 11.4127 9.49949 11.386 9.53285C11.3594 9.57285 11.3327 9.60613 11.306 9.63949C11.1794 9.75949 11.006 9.83285 10.8327 9.83285Z" fill="white"/>
<path d="M5.16602 11.836C5.03268 11.836 4.90599 11.7826 4.81266 11.6892C4.76599 11.6426 4.73268 11.5892 4.70602 11.5292C4.67934 11.4692 4.66602 11.4026 4.66602 11.336C4.66602 11.2692 4.67934 11.2092 4.70602 11.1426C4.73268 11.0826 4.76599 11.0292 4.81266 10.9826C4.85933 10.936 4.9127 10.9026 4.9727 10.876C5.0927 10.8226 5.23266 10.8226 5.35934 10.876C5.41934 10.9026 5.4727 10.936 5.51937 10.9826C5.6127 11.076 5.66602 11.2026 5.66602 11.336C5.66602 11.4026 5.65268 11.4692 5.62602 11.5292C5.59934 11.5892 5.56603 11.6426 5.51937 11.6892C5.42603 11.7826 5.29934 11.836 5.16602 11.836Z" fill="white"/>
<path d="M10.834 11.836C10.7673 11.836 10.7006 11.8226 10.6406 11.796C10.5806 11.7692 10.5273 11.736 10.4806 11.6892C10.434 11.6426 10.394 11.5892 10.374 11.5292C10.3473 11.4692 10.334 11.4026 10.334 11.336C10.334 11.2692 10.3473 11.2026 10.374 11.1426C10.4006 11.0826 10.434 11.0292 10.4806 10.9826C10.5273 10.936 10.5806 10.9026 10.6406 10.876C10.7606 10.8226 10.9006 10.8226 11.0273 10.876C11.0873 10.9026 11.1406 10.936 11.1873 10.9826C11.234 11.0292 11.2673 11.0826 11.294 11.1426C11.3206 11.2026 11.334 11.2692 11.334 11.336C11.334 11.4026 11.3206 11.4692 11.294 11.5292C11.2673 11.5892 11.234 11.6426 11.1873 11.6892C11.094 11.7826 10.9673 11.836 10.834 11.836Z" fill="white"/>
<path d="M5.16732 13.3335C5.08066 13.3335 4.994 13.3002 4.934 13.2335C4.86734 13.1735 4.83398 13.0869 4.83398 13.0002C4.83398 12.9135 4.86734 12.8269 4.934 12.7669C5.054 12.6402 5.28064 12.6402 5.40064 12.7669C5.4673 12.8269 5.50066 12.9135 5.50066 13.0002C5.50066 13.0869 5.4673 13.1735 5.40064 13.2335C5.34064 13.3002 5.25398 13.3335 5.16732 13.3335Z" fill="white"/>
<path d="M10.8334 13.3335C10.7866 13.3335 10.7466 13.3269 10.7066 13.3069C10.6666 13.2935 10.6266 13.2669 10.6 13.2335C10.5666 13.2069 10.54 13.1669 10.5266 13.1269C10.5066 13.0869 10.5 13.0469 10.5 13.0002C10.5 12.9135 10.5334 12.8269 10.6 12.7669C10.72 12.6402 10.9466 12.6402 11.0666 12.7669C11.1334 12.8269 11.1666 12.9135 11.1666 13.0002C11.1666 13.0469 11.16 13.0869 11.14 13.1269C11.1266 13.1669 11.1 13.2069 11.0666 13.2335C11.0066 13.3002 10.92 13.3335 10.8334 13.3335Z" fill="white"/>
</svg>
