<svg width="16" height="16" viewBox="0 0 16 16" fill="none" xmlns="http://www.w3.org/2000/svg">
<path d="M11.3334 4.66406C11.3334 6.50406 9.84 7.9974 8 7.9974C9.84 7.9974 11.3334 9.49076 11.3334 11.3308C13.1734 11.3308 14.6666 9.8374 14.6666 7.9974C14.6666 6.1574 13.1734 4.66406 11.3334 4.66406Z" fill="white"/>
<path d="M7.99934 8C7.99934 9.84 6.50602 11.3334 4.66602 11.3334C4.66602 13.1734 6.15934 14.6666 7.99934 14.6666C9.83937 14.6666 11.3326 13.1734 11.3326 11.3334C9.49265 11.3334 7.99934 9.84 7.99934 8Z" fill="white"/>
<path d="M7.99934 8.0026C7.99934 6.1626 9.49265 4.66927 11.3326 4.66927C11.3326 2.82927 9.83937 1.33594 7.99934 1.33594C6.15934 1.33594 4.66602 2.82927 4.66602 4.66927C6.50602 4.66927 7.99934 6.1626 7.99934 8.0026Z" fill="white"/>
<path d="M8.00063 7.9974C6.16066 7.9974 4.66732 6.50406 4.66732 4.66406C2.82732 4.66406 1.33398 6.1574 1.33398 7.9974C1.33398 9.8374 2.82732 11.3308 4.66732 11.3308C4.66732 9.49076 6.16066 7.9974 8.00063 7.9974Z" fill="white"/>
</svg>
