<svg width="16" height="16" viewBox="0 0 16 16" fill="none" xmlns="http://www.w3.org/2000/svg">
<path d="M8.00063 1.33594C4.32066 1.33594 1.33398 4.3226 1.33398 8.0026C1.33398 11.6826 4.32066 14.6692 8.00063 14.6692C11.6806 14.6692 14.6674 11.6826 14.6674 8.0026C14.6674 4.3226 11.6806 1.33594 8.00063 1.33594ZM11.334 11.5026H9.26735C9.06735 11.5026 8.88735 11.3892 8.80735 11.2026C8.72735 11.016 8.76063 10.8092 8.89399 10.6626L9.97399 9.46924C10.4206 8.96924 10.674 8.33596 10.674 7.6826C10.674 7.01594 10.4006 6.38927 9.90063 5.91594C9.40063 5.4426 8.70735 5.16927 8.00063 5.16927C7.29398 5.16927 6.60066 5.4426 6.10066 5.91594C5.60066 6.38927 5.32732 7.01594 5.32732 7.6826C5.32732 8.33596 5.57398 8.96924 6.02732 9.46924L7.10066 10.6692C7.23398 10.816 7.26732 11.0292 7.18732 11.2092C7.10732 11.3892 6.92732 11.5092 6.72732 11.5092H4.66732C4.39398 11.5092 4.16732 11.2826 4.16732 11.0092C4.16732 10.736 4.39398 10.5026 4.66732 10.5026H5.60732L5.28066 10.1426C4.66732 9.4626 4.32732 8.58924 4.32732 7.6826C4.32732 6.75594 4.72066 5.8426 5.41398 5.18927C6.10732 4.52927 7.02066 4.16927 8.00063 4.16927C8.98063 4.16927 9.89399 4.52927 10.5874 5.18927C11.274 5.8426 11.674 6.75594 11.674 7.6826C11.674 8.5826 11.334 9.45596 10.7206 10.1426L10.394 10.5026H11.334C11.6074 10.5026 11.834 10.7292 11.834 11.0026C11.834 11.276 11.6074 11.5026 11.334 11.5026Z" fill="white"/>
</svg>
