<svg width="16" height="16" viewBox="0 0 16 16" fill="none" xmlns="http://www.w3.org/2000/svg">
<path d="M10.794 1.33594H5.20732C2.78066 1.33594 1.33398 2.7826 1.33398 5.20927V10.7892C1.33398 13.2226 2.78066 14.6692 5.20732 14.6692H10.7874C13.214 14.6692 14.6606 13.2226 14.6606 10.796V5.20927C14.6674 2.7826 13.2206 1.33594 10.794 1.33594ZM11.334 11.6692H9.26735C9.06735 11.6692 8.88735 11.556 8.80735 11.3692C8.72735 11.1826 8.76063 10.976 8.89399 10.8292L9.97399 9.63596C10.4206 9.13596 10.674 8.5026 10.674 7.84927C10.674 7.1826 10.4006 6.55594 9.90063 6.0826C9.40063 5.60927 8.70735 5.33594 8.00063 5.33594C7.29398 5.33594 6.60066 5.60927 6.10066 6.0826C5.60066 6.55594 5.32732 7.1826 5.32732 7.84927C5.32732 8.5026 5.57398 9.13596 6.02732 9.63596L7.10732 10.8292C7.24066 10.976 7.27398 11.1892 7.19398 11.3692C7.11398 11.5492 6.93398 11.6692 6.73398 11.6692H4.66732C4.39398 11.6692 4.16732 11.4426 4.16732 11.1692C4.16732 10.896 4.39398 10.6692 4.66732 10.6692H5.60732L5.28066 10.3092C4.66732 9.62924 4.32732 8.75596 4.32732 7.84927C4.32732 6.9226 4.72066 6.00927 5.41398 5.35594C6.10732 4.69594 7.02066 4.33594 8.00063 4.33594C8.98063 4.33594 9.89399 4.69594 10.5874 5.35594C11.274 6.00927 11.674 6.9226 11.674 7.84927C11.674 8.74924 11.334 9.6226 10.7206 10.3092L10.394 10.6692H11.334C11.6074 10.6692 11.834 10.896 11.834 11.1692C11.834 11.4426 11.6074 11.6692 11.334 11.6692Z" fill="white"/>
</svg>
