<svg width="16" height="16" viewBox="0 0 16 16" fill="none" xmlns="http://www.w3.org/2000/svg">
<path d="M12.74 4.97966L10.3934 2.633C8.28664 0.533 7.18 1.30633 5.8467 2.633L2.07337 6.40633C1.3067 7.17301 0.886696 7.66635 0.733365 8.21302C0.733365 8.21966 0.726699 8.21966 0.726699 8.21966C0.726699 8.22638 0.726699 8.22638 0.726699 8.22638C0.726699 8.23302 0.726699 8.23302 0.726699 8.23302V8.25302C0.453364 9.22638 1.17337 10.053 2.07337 10.953L4.4267 13.293C5.2667 14.1397 5.9467 14.6664 6.7 14.6664C7.45334 14.6664 8.1 14.1597 8.96664 13.293L12.74 9.52638C13.0666 9.19302 13.3066 8.91966 13.4934 8.65966C13.4934 8.65302 13.4934 8.65302 13.4934 8.65302C13.4934 8.65302 13.4934 8.65302 13.5 8.65302C14.3534 7.45968 14.1266 6.35966 12.74 4.97966ZM12.0534 7.57968H12.0466C11.8466 7.53301 11.64 7.49302 11.4334 7.45302C11.42 7.45302 11.4066 7.44635 11.3866 7.44635C10.92 7.35968 10.4466 7.28635 9.96664 7.22635H9.94C9.46 7.16635 8.97336 7.11968 8.48664 7.09302H8.43336C8.00664 7.06635 7.57334 7.05301 7.14666 7.05301C6.6267 7.05301 6.1067 7.07968 5.59337 7.11302C5.5067 7.11968 5.4267 7.12635 5.3467 7.13301C4.96003 7.15968 4.57337 7.19968 4.19337 7.24635C4.0867 7.25968 3.9867 7.27302 3.8867 7.28635C3.50003 7.34635 3.12003 7.40635 2.74003 7.47968C2.65337 7.49968 2.57337 7.51301 2.4867 7.52635C2.45337 7.53301 2.41337 7.53968 2.38003 7.54635C2.50003 7.41302 2.64003 7.27302 2.79337 7.11968L6.56003 3.353C7.77334 2.153 8.18664 1.86633 9.68 3.353L12.02 5.69966C12.38 6.053 12.62 6.353 12.7666 6.613C12.7666 6.613 12.7666 6.61966 12.7734 6.61966C13.0534 7.10635 12.6 7.68635 12.0534 7.57968Z" fill="white"/>
<path d="M13.9666 11.2441C13.7133 10.9308 13.4933 10.6641 12.9999 10.6641C12.5066 10.6641 12.2866 10.9308 12.0399 11.2441C11.5066 11.9041 11.2666 12.6241 11.3533 13.3174C11.4533 14.1108 12.1333 14.6641 12.9999 14.6641C13.8666 14.6641 14.5466 14.1108 14.6466 13.3108C14.7333 12.6174 14.4999 11.9041 13.9666 11.2441Z" fill="white"/>
</svg>
