<svg width="16" height="16" viewBox="0 0 16 16" fill="none" xmlns="http://www.w3.org/2000/svg">
<path d="M12.7942 1.10853C13.0552 0.908925 13.3747 0.800781 13.7032 0.800781C14.5297 0.800781 15.1998 1.47079 15.1998 2.29729C15.1998 2.62587 15.0916 2.94532 14.892 3.20633L11.6681 7.42217C10.7567 8.61406 9.59785 9.5847 8.27881 10.272C7.94812 9.03022 6.97029 8.05238 5.72852 7.72174C6.4158 6.40267 7.38648 5.24382 8.57833 4.33241L12.7942 1.10853Z" fill="#0F172A"/>
<path d="M4.79982 8.80078C3.47434 8.80078 2.39982 9.87526 2.39982 11.2008C2.39982 11.4217 2.22073 11.6008 1.99982 11.6008C1.93545 11.6008 1.87624 11.586 1.82384 11.5602C1.60369 11.452 1.3398 11.4886 1.15749 11.6528C0.975183 11.8169 0.911199 12.0756 0.995919 12.3058C1.44554 13.5277 2.61996 14.4008 3.99982 14.4008C5.76594 14.4008 7.19788 12.9698 7.19982 11.2041V11.2008C7.19982 10.8168 7.10918 10.4521 6.94757 10.1289C6.71517 9.6639 6.33671 9.28542 5.87175 9.05302C5.54843 8.89142 5.18385 8.80078 4.79982 8.80078Z" fill="#0F172A"/>
</svg>
