<svg width="16" height="16" viewBox="0 0 16 16" fill="none" xmlns="http://www.w3.org/2000/svg">
<path d="M2.48499 1.83017C2.28368 1.80163 2.08161 1.87699 1.94815 2.03037C1.81469 2.18377 1.76798 2.3943 1.82407 2.58973L2.95499 6.53044C3.10265 7.04492 3.57318 7.39941 4.10843 7.39941H9.00078C9.33214 7.39941 9.60078 7.66805 9.60078 7.99941C9.60078 8.33077 9.33214 8.59941 9.00078 8.59941H4.10844C3.57318 8.59941 3.10265 8.95389 2.955 9.46837L1.82407 13.4091C1.76798 13.6045 1.81469 13.8151 1.94815 13.9685C2.08161 14.1219 2.28368 14.1973 2.48499 14.1687C7.15521 13.5068 11.3776 11.4544 14.7194 8.44533C14.8458 8.33149 14.918 8.16949 14.918 7.99941C14.918 7.82938 14.8458 7.66733 14.7194 7.55354C11.3776 4.54445 7.15521 2.49209 2.48499 1.83017Z" fill="#0F172A"/>
</svg>
