<svg width="16" height="16" viewBox="0 0 16 16" fill="none" xmlns="http://www.w3.org/2000/svg">
<path d="M10.794 1.33594H5.20732C2.78066 1.33594 1.33398 2.7826 1.33398 5.20927V10.7892C1.33398 13.2226 2.78066 14.6692 5.20732 14.6692H10.7874C13.214 14.6692 14.6606 13.2226 14.6606 10.796V5.20927C14.6674 2.7826 13.2206 1.33594 10.794 1.33594ZM10.914 9.75596L9.43399 11.236C9.07399 11.596 8.60735 11.7692 8.14063 11.7692C7.67398 11.7692 7.20066 11.5892 6.84732 11.236C6.13398 10.5226 6.13398 9.35596 6.84732 8.6426L7.78732 7.7026C7.98066 7.50927 8.30063 7.50927 8.49399 7.7026C8.68735 7.89594 8.68735 8.21596 8.49399 8.40924L7.55398 9.34924C7.22732 9.67596 7.22732 10.2026 7.55398 10.5292C7.88066 10.856 8.40735 10.856 8.73399 10.5292L10.214 9.04924C10.6206 8.6426 10.8474 8.09596 10.8474 7.51594C10.8474 6.93594 10.6206 6.39594 10.214 5.9826C9.39399 5.1626 7.96732 5.1626 7.14732 5.9826L5.52732 7.6026C4.83398 8.29596 4.83398 9.42924 5.52732 10.1292C5.72066 10.3226 5.72066 10.6426 5.52732 10.836C5.33398 11.0292 5.01398 11.0292 4.82066 10.836C3.73398 9.74924 3.73398 7.9826 4.82066 6.89594L6.43398 5.2826C7.03398 4.6826 7.82732 4.35594 8.67399 4.35594C9.52063 4.35594 10.314 4.6826 10.914 5.2826C11.514 5.8826 11.8406 6.67594 11.8406 7.5226C11.8406 8.36924 11.514 9.1626 10.914 9.75596Z" fill="white"/>
</svg>
