<svg width="16" height="16" viewBox="0 0 16 16" fill="none" xmlns="http://www.w3.org/2000/svg">
<path fill-rule="evenodd" clip-rule="evenodd" d="M12.4966 3.50451C11.5594 2.56725 10.0398 2.56725 9.10257 3.50451L3.50255 9.10452C2.5653 10.0418 2.5653 11.5613 3.50255 12.4986C4.43957 13.4356 5.95863 13.4359 6.89595 12.4993L6.89667 12.4986L7.29395 12.0987C7.52749 11.8636 7.90739 11.8624 8.14249 12.0959C8.37753 12.3294 8.37881 12.7093 8.14529 12.9444L7.74659 13.3457L7.74519 13.3472C6.33931 14.753 4.05991 14.753 2.65403 13.3472C1.24814 11.9412 1.24814 9.66188 2.65403 8.25596L8.25401 2.65598C9.65993 1.25009 11.9393 1.25009 13.3452 2.65598C14.75 4.06082 14.751 6.33787 13.3483 7.74401L10.5846 10.5865C9.76449 11.4067 8.43481 11.4066 7.61469 10.5865C6.79459 9.76636 6.79459 8.43676 7.61469 7.61665L10.3754 4.85599C10.6097 4.62168 10.9895 4.62168 11.2238 4.85599C11.4582 5.09031 11.4582 5.47021 11.2238 5.70452L8.46321 8.46516C8.11177 8.81668 8.11177 9.38652 8.46321 9.73796C8.81385 10.0886 9.38169 10.0895 9.73337 9.7406L12.4966 6.89858C13.4338 5.96132 13.4339 4.44176 12.4966 3.50451Z" fill="#0F172A"/>
</svg>
