<svg width="16" height="16" viewBox="0 0 16 16" fill="none" xmlns="http://www.w3.org/2000/svg">
<path d="M10.794 1.33594H5.20732C2.78066 1.33594 1.33398 2.7826 1.33398 5.20927V10.7892C1.33398 13.2226 2.78066 14.6692 5.20732 14.6692H10.7874C13.214 14.6692 14.6606 13.2226 14.6606 10.796V5.20927C14.6674 2.7826 13.2206 1.33594 10.794 1.33594ZM11.1674 9.1426C11.1674 10.156 10.3474 10.976 9.33399 10.976C8.32063 10.976 7.50066 10.156 7.50066 9.1426V7.80927C7.50066 7.53594 7.72732 7.30927 8.00063 7.30927C8.27399 7.30927 8.50063 7.53594 8.50063 7.80927V9.1426C8.50063 9.6026 8.87399 9.97596 9.33399 9.97596C9.79399 9.97596 10.1674 9.6026 10.1674 9.1426V7.04927C10.1674 5.85594 9.19399 4.8826 8.00063 4.8826C6.80732 4.8826 5.83398 5.85594 5.83398 7.04927V9.33596C5.83398 10.3226 6.63398 11.1226 7.62066 11.1226C7.89398 11.1226 8.12063 11.3492 8.12063 11.6226C8.12063 11.896 7.89398 12.1226 7.62066 12.1226C6.08732 12.1226 4.83398 10.8692 4.83398 9.33596V7.04927C4.83398 5.3026 6.25398 3.8826 8.00063 3.8826C9.74735 3.8826 11.1674 5.3026 11.1674 7.04927V9.1426Z" fill="white"/>
</svg>
