<svg width="16" height="16" viewBox="0 0 16 16" fill="none" xmlns="http://www.w3.org/2000/svg">
<path d="M12 2.66927H10.5V1.83594C10.5 1.5626 10.2734 1.33594 10 1.33594C9.72664 1.33594 9.5 1.5626 9.5 1.83594V14.1692C9.5 14.4426 9.72664 14.6692 10 14.6692C10.2734 14.6692 10.5 14.4426 10.5 14.1692V13.336H12C13.4734 13.336 14.6666 12.1426 14.6666 10.6692V5.33594C14.6666 3.8626 13.4734 2.66927 12 2.66927Z" fill="white"/>
<path d="M4.33268 2.66406C2.85934 2.66406 1.66602 3.8574 1.66602 5.33073V10.664C1.66602 12.1374 2.85934 13.3308 4.33268 13.3308H7.66602C8.03265 13.3308 8.33265 13.0308 8.33265 12.664V3.33073C8.33265 2.96406 8.03265 2.66406 7.66602 2.66406H4.33268ZM4.44602 8.25076C4.41268 8.33076 4.36602 8.40404 4.30602 8.47076C4.23934 8.53076 4.16602 8.5774 4.08602 8.61076C4.00602 8.64404 3.91934 8.66404 3.83268 8.66404C3.74602 8.66404 3.65934 8.64404 3.57934 8.61076C3.49934 8.5774 3.42602 8.53076 3.35934 8.47076C3.29934 8.40404 3.25268 8.33076 3.21268 8.25076C3.17934 8.17076 3.16602 8.08404 3.16602 7.9974C3.16602 7.82406 3.23934 7.65073 3.35934 7.52406C3.39268 7.4974 3.42602 7.47073 3.45934 7.44406C3.49934 7.4174 3.53934 7.3974 3.57934 7.38406C3.61934 7.36406 3.65934 7.35073 3.69934 7.34406C3.92602 7.2974 4.15268 7.37073 4.30602 7.52406C4.42602 7.65073 4.49934 7.82406 4.49934 7.9974C4.49934 8.08404 4.47934 8.17076 4.44602 8.25076ZM6.77934 8.25076C6.74602 8.33076 6.69934 8.40404 6.63934 8.47076C6.57268 8.53076 6.49934 8.5774 6.41934 8.61076C6.33934 8.64404 6.25268 8.66404 6.16602 8.66404C6.07934 8.66404 5.99268 8.64404 5.91268 8.61076C5.83268 8.5774 5.75934 8.53076 5.69268 8.47076C5.56602 8.34404 5.49934 8.1774 5.49934 7.9974C5.49934 7.91073 5.51934 7.82406 5.55268 7.74406C5.58602 7.6574 5.63268 7.59073 5.69268 7.52406C5.93934 7.2774 6.38602 7.2774 6.63934 7.52406C6.75934 7.65073 6.83268 7.82406 6.83268 7.9974C6.83268 8.08404 6.81268 8.17076 6.77934 8.25076Z" fill="white"/>
</svg>
