<svg width="16" height="16" viewBox="0 0 16 16" fill="none" xmlns="http://www.w3.org/2000/svg">
<path d="M13.3466 7.1336L11.9333 8.02696C11.6666 8.1936 11.3266 8.1536 11.1066 7.9336L8.08656 4.91361C7.86659 4.69361 7.82659 4.35361 7.99325 4.08694L8.88656 2.67361C9.43328 1.81361 10.5266 1.77361 11.3333 2.57361L13.4533 4.69361C14.1999 5.44693 14.1533 6.62027 13.3466 7.1336Z" fill="white"/>
<path d="M9.80616 13.3012L3.99278 13.9812C3.941 13.9881 3.88988 13.9929 3.83948 13.9959C3.38273 14.0229 3.26948 13.4845 3.59301 13.1609L5.31945 11.4345C5.53278 11.2278 5.53278 10.9012 5.31945 10.6945C5.11945 10.4878 4.79278 10.4878 4.57945 10.6945L2.85301 12.4209C2.52948 12.7445 1.99606 12.6307 2.02033 12.1738C2.02288 12.1258 2.02702 12.0772 2.03278 12.0278L2.71945 6.21447C2.89278 4.76113 3.42612 4.28113 4.95945 4.37447L5.95945 4.43447C6.28612 4.45447 6.59278 4.59447 6.82614 4.82781L11.1928 9.19454C11.4262 9.42782 11.5662 9.73454 11.5794 10.0612L11.6394 11.0612C11.7928 12.6012 11.2662 13.1345 9.80616 13.3012Z" fill="white"/>
</svg>
