<svg width="16" height="16" viewBox="0 0 16 16" fill="none" xmlns="http://www.w3.org/2000/svg">
<path d="M9.43431 14.6695H6.55429C5.52763 14.6695 4.76763 13.8361 4.96763 12.9495L5.31429 11.4028C5.38096 11.0961 5.65429 10.8828 5.96763 10.8828H10.0277C10.3409 10.8828 10.6077 11.0961 10.6809 11.4028L11.0277 12.9428C11.2409 13.8961 10.5277 14.6695 9.43431 14.6695Z" fill="white"/>
<path d="M12.5459 9.12514L11.8326 9.75178C11.5859 9.96514 11.2726 10.0851 10.9526 10.0851H5.05923C4.73257 10.0851 4.41257 9.96514 4.17257 9.74514L3.47257 9.1185C2.32591 8.1785 2.31923 7.45847 3.19923 6.35181L6.68588 1.94514C6.71028 1.91243 6.73528 1.88097 6.76088 1.85071C7.05482 1.50338 7.51255 1.80172 7.51255 2.25676V4.57181C7.50588 4.85847 7.73255 5.08514 8.01257 5.07847C8.29257 5.08514 8.51257 4.85847 8.51921 4.57181V2.25676C8.51921 1.80172 8.97017 1.51021 9.27185 1.85079C9.29689 1.87899 9.32153 1.90821 9.34585 1.93847L12.8192 6.35181C13.6859 7.45847 13.6526 8.14514 12.5459 9.12514Z" fill="white"/>
</svg>
