<svg width="16" height="16" viewBox="0 0 16 16" fill="none" xmlns="http://www.w3.org/2000/svg">
<path d="M10.794 1.33594H5.20732C2.78066 1.33594 1.33398 2.7826 1.33398 5.20927V10.7892C1.33398 13.2226 2.78066 14.6692 5.20732 14.6692H10.7874C13.214 14.6692 14.6606 13.2226 14.6606 10.796V5.20927C14.6674 2.7826 13.2206 1.33594 10.794 1.33594ZM11.1074 7.5026L10.0274 8.1826L10.1206 9.7826C10.2074 10.676 9.90063 10.9826 9.05399 11.0826L5.67398 11.4826C5.4885 11.5079 5.42554 11.2977 5.55791 11.1653L6.58732 10.136C6.78066 9.9426 6.78066 9.6226 6.58732 9.42924C6.38732 9.23596 6.07398 9.23596 5.87398 9.42924L4.8505 10.458C4.71865 10.5904 4.50873 10.5279 4.53398 10.3426L4.92732 6.9626C5.03398 6.11594 5.34066 5.8426 6.23398 5.89594L7.82732 5.98927L8.51399 4.9026C8.82735 4.40927 9.46735 4.3826 9.93399 4.84927L11.1674 6.0826C11.6074 6.51594 11.5806 7.2026 11.1074 7.5026Z" fill="white"/>
</svg>
