<svg width="16" height="16" viewBox="0 0 16 16" fill="none" xmlns="http://www.w3.org/2000/svg">
<path fill-rule="evenodd" clip-rule="evenodd" d="M1.59961 8.00156C1.59961 4.46694 4.46499 1.60156 7.99961 1.60156C11.5342 1.60156 14.3996 4.46694 14.3996 8.00156C14.3996 11.5362 11.5342 14.4016 7.99961 14.4016C4.46499 14.4016 1.59961 11.5362 1.59961 8.00156ZM5.59961 6.20156C5.59961 5.87019 5.86824 5.60156 6.19961 5.60156H6.59961C6.93098 5.60156 7.19961 5.87019 7.19961 6.20156V9.80156C7.19961 10.1329 6.93098 10.4016 6.59961 10.4016H6.19961C5.86824 10.4016 5.59961 10.1329 5.59961 9.80156V6.20156ZM8.79961 6.20156C8.79961 5.87019 9.06825 5.60156 9.39961 5.60156H9.79961C10.131 5.60156 10.3996 5.87019 10.3996 6.20156V9.80156C10.3996 10.1329 10.131 10.4016 9.79961 10.4016H9.39961C9.06825 10.4016 8.79961 10.1329 8.79961 9.80156V6.20156Z" fill="#0F172A"/>
</svg>
