<svg width="16" height="16" viewBox="0 0 16 16" fill="none" xmlns="http://www.w3.org/2000/svg">
<path d="M4.6 2.39844C4.26863 2.39844 4 2.66707 4 2.99844V12.9984C4 13.3298 4.26863 13.5984 4.6 13.5984H5.8C6.13137 13.5984 6.4 13.3298 6.4 12.9984V2.99844C6.4 2.66707 6.13137 2.39844 5.8 2.39844H4.6Z" fill="#0F172A"/>
<path d="M10.1996 2.39844C9.86825 2.39844 9.59961 2.66707 9.59961 2.99844V12.9984C9.59961 13.3298 9.86825 13.5984 10.1996 13.5984H11.3996C11.731 13.5984 11.9996 13.3298 11.9996 12.9984V2.99844C11.9996 2.66707 11.731 2.39844 11.3996 2.39844H10.1996Z" fill="#0F172A"/>
</svg>
