<svg width="16" height="16" viewBox="0 0 16 16" fill="none" xmlns="http://www.w3.org/2000/svg">
<path d="M12.6674 4.66927C12.6674 4.78927 12.6608 4.90259 12.6474 5.01593C12.5674 5.98259 12.1408 6.85594 11.4941 7.49594C10.7741 8.2226 9.77414 8.66924 8.66742 8.66924H6.5808C6.24746 8.66924 5.96747 8.91596 5.9208 9.2426L5.41413 12.7626C5.37413 13.0226 5.18747 13.236 4.9408 13.3026C4.8808 13.3292 4.8208 13.336 4.75413 13.336H3.45412C3.04079 13.336 2.72746 12.9692 2.79413 12.5626L4.38745 3.00927C4.54745 2.04261 5.3808 1.33594 6.3608 1.33594H9.33414C11.1741 1.33594 12.6674 2.82927 12.6674 4.66927Z" fill="white"/>
<path d="M13.9991 7.33574C13.9991 8.25572 13.6259 9.08908 13.0259 9.69572C12.4191 10.2957 11.5859 10.6691 10.6659 10.6691H9.2325C8.90586 10.6691 8.62586 10.9024 8.5725 11.2291L8.0925 14.1091C8.03914 14.4357 7.75916 14.6691 7.43249 14.6691H5.47918C5.35918 14.6691 5.2525 14.6424 5.15917 14.5891C5.0125 14.5091 5.10584 14.3157 5.26584 14.2491C5.86584 14.0557 6.30584 13.5424 6.39918 12.9024L6.82582 9.95572C6.85249 9.78908 6.99249 9.66908 7.15249 9.66908H8.66586C10.0059 9.66908 11.2659 9.14908 12.1991 8.20908C12.7525 7.6624 13.1659 6.98907 13.4059 6.26239C13.4591 6.09571 13.6791 6.06239 13.7525 6.21571C13.9125 6.56239 13.9991 6.93574 13.9991 7.33574Z" fill="white"/>
</svg>
