<svg width="16" height="16" viewBox="0 0 16 16" fill="none" xmlns="http://www.w3.org/2000/svg">
<path d="M13.6994 6.29531H12.9661C12.8661 6.29531 12.7661 6.31531 12.6727 6.34198L9.3461 3.01531C9.6661 2.60198 9.63938 2.00864 9.25938 1.63531L8.73938 1.11531C8.3461 0.721979 7.65275 0.721979 7.25275 1.11531L6.73275 1.63531C6.35943 2.00864 6.33277 2.60198 6.65277 3.01531L3.32609 6.34198C3.23277 6.31531 3.13277 6.29531 3.03277 6.29531H2.29943C1.71943 6.29531 1.24609 6.76862 1.24609 7.34862V8.08196C1.24609 8.66196 1.71943 9.13532 2.29943 9.13532H3.03277C3.61277 9.13532 4.08609 8.66196 4.08609 8.08196V7.34862C4.08609 7.24862 4.06609 7.14862 4.03943 7.05528L7.36609 3.72864C7.54609 3.86864 7.77275 3.94198 7.99938 3.94198C8.2261 3.94198 8.45274 3.86198 8.63938 3.72198L11.9661 7.04862C11.9394 7.14195 11.9194 7.24195 11.9194 7.34195V8.07532C11.9194 8.65532 12.3927 9.1286 12.9727 9.1286H13.7061C14.2861 9.1286 14.7594 8.65532 14.7594 8.07532V7.34195C14.7461 6.76195 14.2794 6.29531 13.6994 6.29531Z" fill="white"/>
<path d="M10.4994 11.0341L9.40602 12.0008H6.56605L5.47272 11.0341C4.83938 10.5141 4.83938 10.1141 5.31938 9.50078L7.24602 7.06078C7.37935 6.89412 7.53275 6.78078 7.70609 6.72078C7.88609 6.66078 8.07938 6.66078 8.26602 6.72078C8.43266 6.78078 8.58602 6.89412 8.72602 7.06078L10.6527 9.50078C11.1327 10.1074 11.1127 10.4874 10.4994 11.0341Z" fill="white"/>
<path d="M8.8593 14.6679H7.13262C6.51928 14.6679 6.05928 14.1679 6.17928 13.6345L6.38595 12.7079C6.42595 12.5212 6.59261 12.3945 6.77929 12.3945H9.21258C9.3993 12.3945 9.5593 12.5212 9.60594 12.7079L9.81258 13.6345C9.94594 14.2012 9.51258 14.6679 8.8593 14.6679Z" fill="white"/>
</svg>
