<svg width="16" height="16" viewBox="0 0 16 16" fill="none" xmlns="http://www.w3.org/2000/svg">
<path d="M10.6675 14.1935L4.42754 14.9268C3.99421 14.9801 3.60754 14.9135 3.28088 14.7535C2.93421 14.5801 2.66088 14.3135 2.48754 13.9601C2.32754 13.6335 2.26754 13.2535 2.31421 12.8268L2.88088 8.06012C2.93421 8.08012 2.98754 8.10012 3.04088 8.11348C3.44754 8.26012 3.88088 8.33348 4.33421 8.33348C5.30754 8.33348 6.24754 7.98013 6.96085 7.3468C7.26752 7.08013 7.54085 6.76013 7.76085 6.39344C7.94752 6.0801 8.08751 5.74677 8.18087 5.4201C8.22751 5.24677 8.26751 5.0601 8.29415 4.87344C8.30087 4.8401 8.30087 4.80677 8.30087 4.77344L8.41415 4.7801L12.4675 8.84012L12.6409 11.7868C12.8075 13.4401 12.2342 14.0135 10.6675 14.1935Z" fill="white"/>
<path d="M4.33398 1.33594C3.62732 1.33594 2.97398 1.5826 2.46066 1.99594C1.76732 2.5426 1.33398 3.38927 1.33398 4.33594C1.33398 4.89594 1.49398 5.42927 1.76732 5.8826C2.06066 6.36927 2.48732 6.76927 3.00732 7.0226C3.12066 7.0826 3.24732 7.13594 3.37398 7.17594C3.67398 7.2826 3.99398 7.33594 4.33398 7.33594C5.09398 7.33594 5.78066 7.05594 6.30732 6.58927C6.54066 6.38927 6.74066 6.14927 6.90066 5.8826C7.04066 5.64927 7.14732 5.4026 7.22066 5.13594C7.26066 5.0026 7.28732 4.8626 7.30732 4.71594C7.32732 4.58927 7.33398 4.4626 7.33398 4.33594C7.33398 2.67594 5.99398 1.33594 4.33398 1.33594ZM5.48732 5.47594C5.39398 5.56927 5.26066 5.6226 5.13398 5.6226C5.00732 5.6226 4.88066 5.56927 4.78066 5.47594L4.34066 5.03594L3.88732 5.48927C3.78732 5.58927 3.66066 5.63594 3.53398 5.63594C3.40732 5.63594 3.27398 5.58927 3.18066 5.48927C2.98732 5.29594 2.98732 4.97594 3.18066 4.7826L3.64066 4.3226L3.19398 3.88927C3.00066 3.69594 3.00066 3.37594 3.19398 3.1826C3.38732 2.98927 3.70732 2.98927 3.90066 3.1826L4.34066 3.6226L4.76066 3.2026C4.95398 3.00927 5.27398 3.00927 5.46732 3.2026C5.66066 3.39594 5.66066 3.71594 5.46732 3.90927L5.04732 4.32927L5.48732 4.76927C5.68732 4.9626 5.68732 5.27594 5.48732 5.47594Z" fill="white"/>
<path d="M14.667 6.85457L13.287 7.72791C13.027 7.88791 12.6937 7.85457 12.4804 7.63457L9.527 4.68124C9.31372 4.46791 9.27372 4.13457 9.43372 3.87457L10.307 2.49457C10.8404 1.65457 11.907 1.61457 12.7004 2.39457L14.7737 4.46791C15.5004 5.20791 15.4537 6.35457 14.667 6.85457Z" fill="white"/>
</svg>
