<svg width="16" height="16" viewBox="0 0 16 16" fill="none" xmlns="http://www.w3.org/2000/svg">
<path d="M13.9863 7.13334C13.8397 4.53334 11.913 2.36666 9.33968 1.92666C9.29968 1.41334 8.87304 1 8.34632 1H7.67966C7.153 1 6.733 1.40666 6.68634 1.92C4.09969 2.34666 2.15969 4.52 2.01302 7.13334C1.53969 7.21334 1.17969 7.62 1.17969 8.11336V8.78C1.17969 9.33336 1.62635 9.78 2.17969 9.78H2.84635C3.39969 9.78 3.84635 9.33336 3.84635 8.78V8.11336C3.84635 7.62 3.48635 7.21334 3.01302 7.13334C3.15302 5.05334 4.67969 3.32666 6.71966 2.92666C6.833 3.35334 7.21966 3.66666 7.67966 3.66666H8.34632C8.80632 3.66666 9.18632 3.35334 9.30632 2.93334C11.333 3.34 12.8463 5.06666 12.9863 7.13334C12.513 7.21334 12.153 7.62 12.153 8.11336V8.78C12.153 9.33336 12.5997 9.78 13.153 9.78H13.8197C14.373 9.78 14.8197 9.33336 14.8197 8.78V8.11336C14.8197 7.62 14.4597 7.20666 13.9863 7.13334Z" fill="white"/>
<path d="M10.5142 11.0341L9.42087 12.0008H6.58754L5.4942 11.0341C4.86087 10.5141 4.86087 10.1141 5.34087 9.50078L7.26752 7.06078C7.40086 6.8941 7.55419 6.78078 7.72752 6.72078C7.90752 6.66078 8.10087 6.66078 8.28751 6.72078C8.45415 6.78078 8.60751 6.8941 8.74751 7.06078L10.6675 9.49414C11.1542 10.1074 11.1275 10.4874 10.5142 11.0341Z" fill="white"/>
<path d="M8.88079 14.6679H7.15411C6.54076 14.6679 6.08076 14.1679 6.20076 13.6345L6.40743 12.7079C6.44743 12.5212 6.61409 12.3945 6.80078 12.3945H9.23415C9.42079 12.3945 9.58079 12.5212 9.62743 12.7079L9.83415 13.6345C9.96079 14.2012 9.53415 14.6679 8.88079 14.6679Z" fill="white"/>
</svg>
