<svg width="16" height="16" viewBox="0 0 16 16" fill="none" xmlns="http://www.w3.org/2000/svg">
<path d="M4.33398 1.33594C3.62732 1.33594 2.97398 1.5826 2.46066 1.99594C1.76732 2.5426 1.33398 3.38927 1.33398 4.33594C1.33398 4.89594 1.49398 5.42927 1.76732 5.8826C2.12732 6.4826 2.69398 6.94927 3.37398 7.17594C3.67398 7.2826 3.99398 7.33594 4.33398 7.33594C5.09398 7.33594 5.78066 7.05594 6.30732 6.58927C6.54066 6.38927 6.74066 6.14927 6.90066 5.8826C7.04066 5.64927 7.14732 5.4026 7.22066 5.13594C7.29398 4.8826 7.33398 4.60927 7.33398 4.33594C7.33398 2.67594 5.99398 1.33594 4.33398 1.33594ZM5.44066 4.83594H4.84732V5.45594C4.84732 5.72927 4.62066 5.95594 4.34732 5.95594C4.07398 5.95594 3.84732 5.73594 3.84732 5.45594V4.83594H3.20066C2.92732 4.83594 2.70066 4.60927 2.70066 4.33594C2.70066 4.0626 2.92732 3.83594 3.20066 3.83594H3.84732V3.21594C3.84732 2.9426 4.07398 2.71594 4.34732 2.71594C4.62066 2.71594 4.84732 2.93594 4.84732 3.21594V3.83594H5.44066C5.71398 3.83594 5.94066 4.0626 5.94066 4.33594C5.94066 4.60927 5.72066 4.83594 5.44066 4.83594Z" fill="white"/>
<path d="M10.6675 14.1935L4.42754 14.9268C3.99421 14.9801 3.60754 14.9135 3.28088 14.7535C2.93421 14.5801 2.66088 14.3135 2.48754 13.9601C2.32754 13.6335 2.26754 13.2535 2.31421 12.8268L2.88088 8.06012C2.93421 8.08012 2.98754 8.10012 3.04088 8.11348C3.44754 8.26012 3.88088 8.33348 4.33421 8.33348C5.30754 8.33348 6.24754 7.98013 6.96085 7.3468C7.26752 7.08013 7.54085 6.76013 7.76085 6.39344C7.94752 6.0801 8.08751 5.74677 8.18087 5.4201C8.22751 5.24677 8.26751 5.0601 8.29415 4.87344C8.30087 4.8401 8.30087 4.80677 8.30087 4.77344L8.41415 4.7801L12.4675 8.84012L12.6409 11.7868C12.8075 13.4401 12.2342 14.0135 10.6675 14.1935Z" fill="white"/>
<path d="M14.667 6.85457L13.287 7.72791C13.027 7.88791 12.6937 7.85457 12.4804 7.63457L9.527 4.68124C9.31372 4.46791 9.27372 4.13457 9.43372 3.87457L10.307 2.49457C10.8404 1.65457 11.907 1.61457 12.7004 2.39457L14.7737 4.46791C15.5004 5.20791 15.4537 6.35457 14.667 6.85457Z" fill="white"/>
</svg>
