<svg width="16" height="16" viewBox="0 0 16 16" fill="none" xmlns="http://www.w3.org/2000/svg">
<path d="M4.34606 11.1338L5.35549 8.61023C5.51643 8.20783 5.75743 7.84238 6.06387 7.53595L11.5992 2.00096C12.2619 1.33822 13.3365 1.33822 13.9992 2.00097C14.6619 2.6637 14.6619 3.73822 13.9992 4.40097L8.46385 9.93591C8.15745 10.2424 7.79194 10.4833 7.38958 10.6443L4.866 11.6537C4.53948 11.7844 4.21545 11.4603 4.34606 11.1338Z" fill="#0F172A"/>
<path d="M2.79961 4.59844C2.79961 4.04615 3.24732 3.59844 3.79961 3.59844H7.99961C8.33097 3.59844 8.59961 3.32981 8.59961 2.99844C8.59961 2.66707 8.33097 2.39844 7.99961 2.39844H3.79961C2.58459 2.39844 1.59961 3.38341 1.59961 4.59844V12.1984C1.59961 13.4135 2.58459 14.3984 3.79961 14.3984H11.3996C12.6146 14.3984 13.5996 13.4135 13.5996 12.1984V7.99844C13.5996 7.66707 13.331 7.39844 12.9996 7.39844C12.6682 7.39844 12.3996 7.66707 12.3996 7.99844V12.1984C12.3996 12.7508 11.9519 13.1984 11.3996 13.1984H3.79961C3.24732 13.1984 2.79961 12.7508 2.79961 12.1984V4.59844Z" fill="#0F172A"/>
</svg>
