<svg width="16" height="16" viewBox="0 0 16 16" fill="none" xmlns="http://www.w3.org/2000/svg">
<path d="M11.6867 5.1826C11.64 5.17594 11.5934 5.17594 11.5467 5.1826C10.5134 5.14927 9.69336 4.3026 9.69336 3.2626C9.69336 2.2026 10.5534 1.33594 11.62 1.33594C12.68 1.33594 13.5467 2.19594 13.5467 3.2626C13.54 4.3026 12.72 5.14927 11.6867 5.1826Z" fill="white"/>
<path d="M13.8598 9.80024C13.113 10.3002 12.0664 10.487 11.0998 10.3602C11.353 9.8136 11.4864 9.20696 11.493 8.56696C11.493 7.90027 11.3464 7.26694 11.0664 6.7136C12.053 6.58027 13.0998 6.76694 13.853 7.26694C14.9064 7.96027 14.9064 9.10024 13.8598 9.80024Z" fill="white"/>
<path d="M4.29279 5.1826C4.33945 5.17594 4.38613 5.17594 4.43279 5.1826C5.46613 5.14927 6.28613 4.3026 6.28613 3.2626C6.28613 2.19594 5.42613 1.33594 4.35945 1.33594C3.29945 1.33594 2.43945 2.19594 2.43945 3.2626C2.43945 4.3026 3.25945 5.14927 4.29279 5.1826Z" fill="white"/>
<path d="M4.36674 8.56704C4.36674 9.21376 4.50674 9.82704 4.76008 10.3804C3.82008 10.4804 2.84008 10.2804 2.12008 9.80704C1.06674 9.10704 1.06674 7.96706 2.12008 7.26706C2.83341 6.78706 3.84008 6.59372 4.78674 6.7004C4.51341 7.2604 4.36674 7.89373 4.36674 8.56704Z" fill="white"/>
<path d="M8.07922 10.58C8.02586 10.5734 7.96588 10.5734 7.90588 10.58C6.67922 10.54 5.69922 9.53336 5.69922 8.29336C5.70588 7.02666 6.72588 6 7.99922 6C9.26586 6 10.2926 7.02666 10.2926 8.29336C10.2859 9.53336 9.31258 10.54 8.07922 10.58Z" fill="white"/>
<path d="M5.91321 11.9578C4.90654 12.6312 4.90654 13.7378 5.91321 14.4045C7.05987 15.1712 8.93983 15.1712 10.0866 14.4045C11.0932 13.7312 11.0932 12.6245 10.0866 11.9578C8.94655 11.1912 7.06654 11.1912 5.91321 11.9578Z" fill="white"/>
</svg>
