<svg width="16" height="16" viewBox="0 0 16 16" fill="none" xmlns="http://www.w3.org/2000/svg">
<path d="M10.794 1.33594H5.20732C2.78066 1.33594 1.33398 2.7826 1.33398 5.20927V10.7892C1.33398 13.2226 2.78066 14.6692 5.20732 14.6692H10.7874C13.214 14.6692 14.6606 13.2226 14.6606 10.796V5.20927C14.6674 2.7826 13.2206 1.33594 10.794 1.33594ZM5.16732 6.09594C5.16732 5.55594 5.60732 5.10927 6.15398 5.10927C6.69398 5.10927 7.14066 5.54927 7.14066 6.09594C7.14066 6.63594 6.70065 7.0826 6.15398 7.0826C5.60732 7.07594 5.16732 6.63594 5.16732 6.09594ZM5.88066 10.6826C5.75398 10.6826 5.62732 10.636 5.52732 10.536C5.33398 10.3426 5.33398 10.0292 5.52732 9.82924L9.89399 5.4626C10.0874 5.26927 10.4074 5.26927 10.6006 5.4626C10.794 5.65594 10.794 5.97594 10.6006 6.16927L6.23398 10.536C6.13398 10.636 6.00732 10.6826 5.88066 10.6826ZM10.514 10.896C9.97399 10.896 9.52735 10.456 9.52735 9.90924C9.52735 9.36924 9.96735 8.9226 10.514 8.9226C11.054 8.9226 11.5006 9.3626 11.5006 9.90924C11.5006 10.456 11.0606 10.896 10.514 10.896Z" fill="white"/>
</svg>
