<svg width="16" height="16" viewBox="0 0 16 16" fill="none" xmlns="http://www.w3.org/2000/svg">
<path d="M8.00063 1.33594C4.32066 1.33594 1.33398 4.3226 1.33398 8.0026C1.33398 11.6826 4.32066 14.6692 8.00063 14.6692C11.6806 14.6692 14.6674 11.6826 14.6674 8.0026C14.6674 4.3226 11.6806 1.33594 8.00063 1.33594ZM5.82066 5.10927C6.36065 5.10927 6.80732 5.54927 6.80732 6.09594C6.80732 6.63594 6.36732 7.0826 5.82066 7.0826C5.28066 7.0826 4.83398 6.6426 4.83398 6.09594C4.83398 5.54927 5.27398 5.10927 5.82066 5.10927ZM5.90066 10.536C5.80066 10.636 5.67398 10.6826 5.54732 10.6826C5.42066 10.6826 5.29398 10.636 5.19398 10.536C5.00066 10.3426 5.00066 10.0226 5.19398 9.82924L9.56063 5.4626C9.75399 5.26927 10.074 5.26927 10.2674 5.4626C10.4606 5.65594 10.4606 5.97594 10.2674 6.16927L5.90066 10.536ZM10.1806 10.896C9.64063 10.896 9.19399 10.456 9.19399 9.90924C9.19399 9.36924 9.63399 8.9226 10.1806 8.9226C10.7206 8.9226 11.1674 9.3626 11.1674 9.90924C11.1674 10.456 10.7274 10.896 10.1806 10.896Z" fill="white"/>
</svg>
