<svg width="16" height="16" viewBox="0 0 16 16" fill="none" xmlns="http://www.w3.org/2000/svg">
<path d="M12.0006 2H4.00066C2.52732 2 1.33398 3.18666 1.33398 4.64666V11.3534C1.33398 12.8134 2.52732 14 4.00066 14H12.0006C13.474 14 14.6674 12.8134 14.6674 11.3534V4.64666C14.6674 3.18666 13.474 2 12.0006 2ZM5.66732 4.78C6.51398 4.78 7.20732 5.47334 7.20732 6.32C7.20732 7.16666 6.51398 7.86 5.66732 7.86C4.82066 7.86 4.12732 7.16666 4.12732 6.32C4.12732 5.47334 4.82066 4.78 5.66732 4.78ZM8.24735 11.1066C8.18735 11.1734 8.09399 11.2134 8.00063 11.2134H3.33398C3.24066 11.2134 3.14732 11.1734 3.08732 11.1066C3.02732 11.04 2.99398 10.9466 3.00066 10.8534C3.11398 9.73336 4.00732 8.84664 5.12732 8.74C5.48066 8.70664 5.84732 8.70664 6.20066 8.74C7.32066 8.84664 8.22063 9.73336 8.32735 10.8534C8.34063 10.9466 8.30735 11.04 8.24735 11.1066ZM12.6674 11.1666H11.334C11.0606 11.1666 10.834 10.94 10.834 10.6666C10.834 10.3934 11.0606 10.1666 11.334 10.1666H12.6674C12.9406 10.1666 13.1674 10.3934 13.1674 10.6666C13.1674 10.94 12.9406 11.1666 12.6674 11.1666ZM12.6674 8.5H10.0006C9.72735 8.5 9.50063 8.27336 9.50063 8C9.50063 7.72666 9.72735 7.5 10.0006 7.5H12.6674C12.9406 7.5 13.1674 7.72666 13.1674 8C13.1674 8.27336 12.9406 8.5 12.6674 8.5ZM12.6674 5.83334H9.33399C9.06063 5.83334 8.83399 5.60666 8.83399 5.33334C8.83399 5.06 9.06063 4.83334 9.33399 4.83334H12.6674C12.9406 4.83334 13.1674 5.06 13.1674 5.33334C13.1674 5.60666 12.9406 5.83334 12.6674 5.83334Z" fill="white"/>
</svg>
