<svg width="16" height="16" viewBox="0 0 16 16" fill="none" xmlns="http://www.w3.org/2000/svg">
<path d="M12.7195 10.4776C12.3262 8.12428 10.0662 6.21094 7.67955 6.21094C5.0862 6.21094 2.8062 8.31092 2.5862 10.8976C2.49953 11.8976 2.81953 12.8443 3.47953 13.5576C4.13287 14.2709 5.05287 14.6643 6.05287 14.6643H9.17289C10.2995 14.6643 11.2862 14.2243 11.9595 13.4309C12.6329 12.6376 12.8995 11.5843 12.7195 10.4776Z" fill="white"/>
<path d="M6.85372 5.2426C7.93252 5.2426 8.80703 4.36807 8.80703 3.28927C8.80703 2.21047 7.93252 1.33594 6.85372 1.33594C5.77493 1.33594 4.90039 2.21047 4.90039 3.28927C4.90039 4.36807 5.77493 5.2426 6.85372 5.2426Z" fill="white"/>
<path d="M11.2927 6.01896C12.1911 6.01896 12.9194 5.29068 12.9194 4.39229C12.9194 3.49391 12.1911 2.76562 11.2927 2.76562C10.3943 2.76562 9.66602 3.49391 9.66602 4.39229C9.66602 5.29068 10.3943 6.01896 11.2927 6.01896Z" fill="white"/>
<path d="M13.7004 8.6195C14.4184 8.6195 15.0004 8.0375 15.0004 7.31953C15.0004 6.60156 14.4184 6.01953 13.7004 6.01953C12.9825 6.01953 12.4004 6.60156 12.4004 7.31953C12.4004 8.0375 12.9825 8.6195 13.7004 8.6195Z" fill="white"/>
<path d="M2.62666 7.31973C3.52505 7.31973 4.25334 6.59145 4.25334 5.69307C4.25334 4.79469 3.52505 4.06641 2.62666 4.06641C1.72829 4.06641 1 4.79469 1 5.69307C1 6.59145 1.72829 7.31973 2.62666 7.31973Z" fill="white"/>
</svg>
