<svg width="16" height="16" viewBox="0 0 16 16" fill="none" xmlns="http://www.w3.org/2000/svg">
<path d="M14 15.1641H2C1.72666 15.1641 1.5 14.9374 1.5 14.6641C1.5 14.3908 1.72666 14.1641 2 14.1641H14C14.2734 14.1641 14.5 14.3908 14.5 14.6641C14.5 14.9374 14.2734 15.1641 14 15.1641Z" fill="white"/>
<path d="M14 1.83594H2C1.72666 1.83594 1.5 1.60927 1.5 1.33594C1.5 1.0626 1.72666 0.835938 2 0.835938H14C14.2734 0.835938 14.5 1.0626 14.5 1.33594C14.5 1.60927 14.2734 1.83594 14 1.83594Z" fill="white"/>
<path d="M9.53359 10.239L8.50023 11.2723V4.46562L9.53359 5.49896C9.63359 5.59896 9.76023 5.64562 9.88695 5.64562C10.0136 5.64562 10.1402 5.59896 10.2402 5.49896C10.4336 5.30562 10.4336 4.98562 10.2402 4.79229L8.35359 2.90562C8.16695 2.71896 7.8336 2.71896 7.64693 2.90562L5.76023 4.79229C5.5669 4.98562 5.5669 5.30562 5.76023 5.49896C5.95357 5.69229 6.27357 5.69229 6.4669 5.49896L7.50027 4.46562V11.2723L6.4669 10.239C6.27357 10.0456 5.95357 10.0456 5.76023 10.239C5.5669 10.4323 5.5669 10.7523 5.76023 10.9456L7.64693 12.8323C7.74027 12.9256 7.86693 12.979 8.00027 12.979C8.13359 12.979 8.26023 12.9256 8.35359 12.8323L10.2402 10.9456C10.4336 10.7523 10.4336 10.4323 10.2402 10.239C10.047 10.0456 9.72695 10.0456 9.53359 10.239Z" fill="white"/>
</svg>
