<svg width="16" height="16" viewBox="0 0 16 16" fill="none" xmlns="http://www.w3.org/2000/svg">
<path fill-rule="evenodd" clip-rule="evenodd" d="M2.79961 1.60156C2.13687 1.60156 1.59961 2.13882 1.59961 2.80156V4.00156C1.59961 4.92041 1.71891 5.81229 1.9432 6.66217C2.89487 10.2683 5.73293 13.1063 9.33897 14.058C10.1889 14.2823 11.0807 14.4016 11.9996 14.4016H13.1996C13.8623 14.4016 14.3996 13.8643 14.3996 13.2016V12.2828C14.3996 11.7204 14.009 11.2335 13.4599 11.1114L10.8815 10.5384C10.2617 10.4008 9.64185 10.7697 9.46745 11.3802L9.25417 12.1264C9.16033 12.4551 8.81033 12.6407 8.49433 12.5104C6.23262 11.5776 4.42362 9.76852 3.49078 7.50683C3.36047 7.19088 3.54609 6.84087 3.87471 6.74697L4.62095 6.53376C5.23148 6.35932 5.60045 5.73947 5.46271 5.11962L4.88973 2.54124C4.76772 1.9922 4.28075 1.60156 3.71831 1.60156H2.79961ZM10.6238 1.7773C10.3895 1.54299 10.0097 1.54299 9.77537 1.7773C9.54105 2.01161 9.54105 2.39151 9.77537 2.62583L11.151 4.00156L9.77537 5.3773C9.54105 5.61161 9.54105 5.99151 9.77537 6.22583C10.0097 6.46014 10.3895 6.46014 10.6238 6.22583L11.9996 4.85009L13.3754 6.22583C13.6097 6.46014 13.9895 6.46014 14.2238 6.22583C14.4582 5.99151 14.4582 5.61161 14.2238 5.3773L12.8482 4.00156L14.2238 2.62583C14.4582 2.39151 14.4582 2.01161 14.2238 1.7773C13.9895 1.54299 13.6097 1.54299 13.3754 1.7773L11.9996 3.15303L10.6238 1.7773Z" fill="#0F172A"/>
</svg>
