<svg width="16" height="16" viewBox="0 0 16 16" fill="none" xmlns="http://www.w3.org/2000/svg">
<path fill-rule="evenodd" clip-rule="evenodd" d="M1.59961 2.80156C1.59961 2.13882 2.13687 1.60156 2.79961 1.60156H3.71831C4.28075 1.60156 4.76772 1.9922 4.88973 2.54124L5.46271 5.11962C5.60045 5.73947 5.23148 6.35932 4.62095 6.53376L3.87471 6.74697C3.54609 6.84087 3.36047 7.19088 3.49078 7.50683C4.42362 9.76852 6.23262 11.5776 8.49433 12.5104C8.81033 12.6407 9.16033 12.4551 9.25417 12.1264L9.46745 11.3802C9.64185 10.7697 10.2617 10.4008 10.8815 10.5384L13.4599 11.1114C14.009 11.2335 14.3996 11.7204 14.3996 12.2828V13.2016C14.3996 13.8643 13.8623 14.4016 13.1996 14.4016H11.9996C11.0807 14.4016 10.1889 14.2823 9.33897 14.058C5.73293 13.1063 2.89487 10.2683 1.9432 6.66217C1.71891 5.81229 1.59961 4.92041 1.59961 4.00156V2.80156Z" fill="#0F172A"/>
</svg>
