<svg width="16" height="16" viewBox="0 0 16 16" fill="none" xmlns="http://www.w3.org/2000/svg">
<path d="M2.79961 1.60156C2.13687 1.60156 1.59961 2.13882 1.59961 2.80156V4.00156C1.59961 4.92041 1.71891 5.81229 1.9432 6.66217C2.89487 10.2683 5.73293 13.1063 9.33897 14.058C10.1889 14.2823 11.0807 14.4016 11.9996 14.4016H13.1996C13.8623 14.4016 14.3996 13.8643 14.3996 13.2016V12.2828C14.3996 11.7204 14.009 11.2335 13.4599 11.1114L10.8815 10.5384C10.2617 10.4008 9.64185 10.7697 9.46745 11.3802L9.25417 12.1264C9.16033 12.4551 8.81033 12.6407 8.49433 12.5104C6.23262 11.5776 4.42362 9.76852 3.49078 7.50683C3.36047 7.19088 3.54609 6.84087 3.87471 6.74697L4.62095 6.53376C5.23148 6.35932 5.60045 5.73947 5.46271 5.11962L4.88973 2.54124C4.76772 1.9922 4.28075 1.60156 3.71831 1.60156H2.79961Z" fill="#0F172A"/>
<path d="M13.1996 3.65009L10.6238 6.22583C10.3895 6.46014 10.0097 6.46014 9.77537 6.22583C9.54105 5.99151 9.54105 5.61161 9.77537 5.3773L12.351 2.80156H10.1996C9.86825 2.80156 9.59961 2.53293 9.59961 2.20156C9.59961 1.87019 9.86825 1.60156 10.1996 1.60156H13.7996C14.131 1.60156 14.3996 1.87019 14.3996 2.20156V5.80156C14.3996 6.13293 14.131 6.40156 13.7996 6.40156C13.4682 6.40156 13.1996 6.13293 13.1996 5.80156V3.65009Z" fill="#0F172A"/>
</svg>
