<svg width="16" height="16" viewBox="0 0 16 16" fill="none" xmlns="http://www.w3.org/2000/svg">
<path fill-rule="evenodd" clip-rule="evenodd" d="M0.800781 4.19844C0.800781 3.20433 1.60667 2.39844 2.60078 2.39844H13.4008C14.3949 2.39844 15.2008 3.20433 15.2008 4.19844V11.7984C15.2008 12.7925 14.3949 13.5984 13.4008 13.5984H2.60078C1.60667 13.5984 0.800781 12.7925 0.800781 11.7984V4.19844ZM2.00078 8.847V11.7984C2.00078 12.1298 2.26941 12.3984 2.60078 12.3984H13.4008C13.7321 12.3984 14.0008 12.1298 14.0008 11.7984V9.647L12.225 7.87123C11.9907 7.63692 11.6109 7.63692 11.3765 7.87123L9.84934 9.39844L10.225 9.7742C10.4593 10.0085 10.4593 10.3884 10.225 10.6227C9.9907 10.857 9.61086 10.857 9.37654 10.6227L5.22505 6.47123C4.99073 6.23692 4.61083 6.23692 4.37652 6.47123L2.00078 8.847ZM9.60078 5.59844C9.60078 6.04026 9.24262 6.39844 8.80078 6.39844C8.35894 6.39844 8.00078 6.04026 8.00078 5.59844C8.00078 5.15661 8.35894 4.79844 8.80078 4.79844C9.24262 4.79844 9.60078 5.15661 9.60078 5.59844Z" fill="#0F172A"/>
</svg>
