<svg width="16" height="16" viewBox="0 0 16 16" fill="none" xmlns="http://www.w3.org/2000/svg">
<path d="M6.33334 5.83594H5.5V7.5026H6.33334C6.79334 7.5026 7.16666 7.12927 7.16666 6.66927C7.16666 6.20927 6.79334 5.83594 6.33334 5.83594Z" fill="white"/>
<path d="M10.7932 1.33594H5.21317C2.78651 1.33594 1.33984 2.7826 1.33984 5.20927V10.7892C1.33984 13.216 2.78651 14.6626 5.21317 14.6626H10.7932C13.2198 14.6626 14.6666 13.216 14.6666 10.7892V5.20927C14.6666 2.7826 13.2198 1.33594 10.7932 1.33594ZM6.33317 8.5026H5.49984V10.6692C5.49984 10.9426 5.27317 11.1692 4.99984 11.1692C4.72651 11.1692 4.49984 10.9426 4.49984 10.6692V5.33594C4.49984 5.0626 4.72651 4.83594 4.99984 4.83594H6.33317C7.34653 4.83594 8.16656 5.65594 8.16656 6.66927C8.16656 7.6826 7.34653 8.5026 6.33317 8.5026ZM10.1666 8.5026C10.8998 8.5026 11.4998 9.1026 11.4998 9.83596C11.4998 10.5692 10.8998 11.1692 10.1666 11.1692H9.3332C9.05984 11.1692 8.8332 10.9426 8.8332 10.6692C8.8332 10.396 9.05984 10.1692 9.3332 10.1692H10.1666C10.3532 10.1692 10.4998 10.0226 10.4998 9.83596C10.4998 9.64924 10.3532 9.5026 10.1666 9.5026C9.4332 9.5026 8.8332 8.9026 8.8332 8.16924C8.8332 7.43594 9.4332 6.83594 10.1666 6.83594H10.9998C11.2732 6.83594 11.4998 7.0626 11.4998 7.33594C11.4998 7.60927 11.2732 7.83594 10.9998 7.83594H10.1666C9.97984 7.83594 9.8332 7.9826 9.8332 8.16924C9.8332 8.35596 9.97984 8.5026 10.1666 8.5026Z" fill="white"/>
</svg>
