<svg width="16" height="16" viewBox="0 0 16 16" fill="none" xmlns="http://www.w3.org/2000/svg">
<path d="M7.00732 7.4826L5.54066 1.59594C5.50732 1.4426 5.36732 1.33594 5.20732 1.33594C3.06732 1.33594 1.33398 3.06927 1.33398 5.20927V9.00924C1.33398 9.23596 1.55398 9.4026 1.77398 9.33596L6.77398 7.88927C6.94732 7.8426 7.05398 7.6626 7.00732 7.4826Z" fill="white"/>
<path d="M7.41398 9.11929C7.36732 8.93257 7.17398 8.81929 6.98732 8.87257L1.58066 10.4459C1.43398 10.4926 1.33398 10.6259 1.33398 10.7793V10.7926C1.33398 12.9326 3.06732 14.6659 5.20732 14.6659H8.35399C8.57399 14.6659 8.74063 14.4593 8.68735 14.2393L7.41398 9.11929Z" fill="white"/>
<path d="M10.7938 1.33594H6.96052C6.74052 1.33594 6.57387 1.5426 6.62721 1.7626L9.78718 14.4092C9.82718 14.5626 9.96054 14.6692 10.1205 14.6692H10.7872C12.9338 14.6692 14.6672 12.936 14.6672 10.796V5.20927C14.6672 3.06927 12.9338 1.33594 10.7938 1.33594Z" fill="white"/>
</svg>
