<svg width="16" height="16" viewBox="0 0 16 16" fill="none" xmlns="http://www.w3.org/2000/svg">
<path fill-rule="evenodd" clip-rule="evenodd" d="M1.59961 8.00156C1.59961 4.46694 4.46499 1.60156 7.99961 1.60156C11.5342 1.60156 14.3996 4.46694 14.3996 8.00156C14.3996 11.5362 11.5342 14.4016 7.99961 14.4016C4.46499 14.4016 1.59961 11.5362 1.59961 8.00156ZM6.7121 5.67494C6.90474 5.56976 7.13944 5.57817 7.32407 5.69686L10.1241 7.49686C10.2958 7.60726 10.3996 7.7974 10.3996 8.00156C10.3996 8.20572 10.2958 8.39588 10.1241 8.50628L7.32407 10.3063C7.13944 10.4249 6.90474 10.4334 6.7121 10.3282C6.51945 10.223 6.39961 10.0211 6.39961 9.80156V6.20156C6.39961 5.98208 6.51945 5.78011 6.7121 5.67494Z" fill="#0F172A"/>
</svg>
