<svg width="16" height="16" viewBox="0 0 16 16" fill="none" xmlns="http://www.w3.org/2000/svg">
<path d="M14.1866 10.48C13.7534 10.18 13.2266 10 12.6666 10C12.04 10 11.46 10.22 11 10.5866C10.3866 11.0734 10 11.8266 10 12.6666C10 13.1666 10.14 13.64 10.3866 14.04C10.4134 14.0866 10.4466 14.1334 10.4866 14.18C10.9534 14.8734 11.7534 15.3334 12.6666 15.3334C13.34 15.3334 13.9534 15.0866 14.42 14.6666C14.6266 14.4934 14.8066 14.28 14.9466 14.04C15.1934 13.64 15.3334 13.1666 15.3334 12.6666C15.3334 11.76 14.88 10.96 14.1866 10.48ZM13.7334 13.72C13.6334 13.82 13.5066 13.8666 13.38 13.8666C13.2534 13.8666 13.1266 13.82 13.0266 13.72L12.6734 13.3666L12.3066 13.7334C12.2066 13.8334 12.08 13.88 11.9534 13.88C11.8266 13.88 11.7 13.8334 11.6 13.7334C11.4066 13.54 11.4066 13.22 11.6 13.0266L11.9666 12.66L11.6134 12.3066C11.42 12.1134 11.42 11.7934 11.6134 11.6C11.8066 11.4066 12.1266 11.4066 12.32 11.6L12.6734 11.9534L13.0066 11.62C13.2 11.4266 13.52 11.4266 13.7134 11.62C13.9066 11.8134 13.9066 12.1334 13.7134 12.3266L13.38 12.66L13.7334 13.0134C13.9266 13.2066 13.9266 13.52 13.7334 13.72Z" fill="white"/>
<path d="M14.5671 6.83373C14.0471 3.8671 11.4938 1.5671 8.4871 1.35377C4.42046 1.06043 1.06046 4.4271 1.3538 8.48708C1.56713 11.4937 3.86713 14.0404 6.83378 14.5604C7.60045 14.6937 8.3471 14.6937 9.06046 14.5737C9.2671 14.5404 9.3871 14.3137 9.3071 14.1271C9.1071 13.6737 9.00046 13.1737 9.00046 12.6604C9.00046 11.5337 9.50046 10.4937 10.3805 9.80044C11.0271 9.28044 11.8405 8.99372 12.6671 8.99372C13.1871 8.99372 13.6805 9.10044 14.1271 9.30044C14.3205 9.38708 14.5405 9.26044 14.5805 9.05372C14.7005 8.34708 14.7005 7.6004 14.5671 6.83373ZM9.6671 9.04708L8.8671 9.50708L8.0671 9.96708C7.07378 10.5404 6.26046 10.0737 6.26046 8.92044V8.00044V7.07373C6.26046 5.9271 7.07378 5.45377 8.0671 6.0271L8.8671 6.4871L9.6671 6.94706C10.6605 7.53373 10.6605 8.46708 9.6671 9.04708Z" fill="white"/>
</svg>
