<svg width="16" height="16" viewBox="0 0 16 16" fill="none" xmlns="http://www.w3.org/2000/svg">
<g clip-path="url(#clip0_13_14982)">
<path d="M12.7132 13.214C12.5865 13.214 12.4599 13.1674 12.3599 13.0674C12.1665 12.874 12.1665 12.554 12.3599 12.3607C14.7665 9.95404 14.7665 6.04073 12.3599 3.64073C12.1665 3.44739 12.1665 3.12739 12.3599 2.93406C12.5532 2.74073 12.8732 2.74073 13.0665 2.93406C15.8599 5.72739 15.8599 10.274 13.0665 13.0674C12.9665 13.1674 12.8399 13.214 12.7132 13.214Z" fill="white"/>
<path d="M3.28623 13.214C3.15955 13.214 3.03289 13.1674 2.93289 13.0674C0.139558 10.274 0.139558 5.72739 2.93289 2.93406C3.12623 2.74073 3.44623 2.74073 3.63955 2.93406C3.83289 3.12739 3.83289 3.44739 3.63955 3.64073C1.23289 6.04739 1.23289 9.96068 3.63955 12.3607C3.83289 12.554 3.83289 12.874 3.63955 13.0674C3.53955 13.1674 3.41289 13.214 3.28623 13.214Z" fill="white"/>
<path d="M7.99922 15.1413C7.16588 15.1346 6.37252 15.0013 5.63252 14.7413C5.37252 14.6479 5.23252 14.3613 5.32586 14.1013C5.41918 13.8413 5.69918 13.7013 5.96586 13.7946C6.60586 14.0146 7.28588 14.1346 8.00586 14.1346C8.71922 14.1346 9.40586 14.0146 10.0392 13.7946C10.2992 13.7079 10.5859 13.8413 10.6792 14.1013C10.7726 14.3613 10.6326 14.6479 10.3726 14.7413C9.62586 15.0013 8.83258 15.1413 7.99922 15.1413Z" fill="white"/>
<path d="M10.1992 2.22604C10.1459 2.22604 10.0859 2.21937 10.0326 2.19937C9.39922 1.97271 8.71258 1.85937 7.99921 1.85937C7.28588 1.85937 6.60586 1.97937 5.96586 2.19937C5.69918 2.28604 5.41918 2.15271 5.32586 1.89271C5.23252 1.63271 5.37252 1.34604 5.63252 1.25271C6.37918 0.992711 7.17254 0.859375 7.99921 0.859375C8.82586 0.859375 9.62586 0.992711 10.3659 1.25271C10.6259 1.34604 10.7659 1.63271 10.6726 1.89271C10.5992 2.09937 10.4059 2.22604 10.1992 2.22604Z" fill="white"/>
<path d="M5.82617 8.00134V6.88804C5.82617 5.5014 6.80616 4.93473 8.00617 5.62806L8.97281 6.18807L9.93945 6.74804C11.1395 7.44137 11.1395 8.5747 9.93945 9.26806L8.97281 9.82806L8.00617 10.3881C6.80616 11.0813 5.82617 10.5147 5.82617 9.12806V8.00134Z" fill="white"/>
</g>
<defs>
<clipPath id="clip0_13_14982">
<rect width="16" height="16" fill="white"/>
</clipPath>
</defs>
</svg>
