<svg width="16" height="16" viewBox="0 0 16 16" fill="none" xmlns="http://www.w3.org/2000/svg">
<path d="M10.1996 3.19922C9.86825 3.19922 9.59961 3.46785 9.59961 3.79922V12.1992C9.59961 12.5306 9.86825 12.7992 10.1996 12.7992H10.5996C10.931 12.7992 11.1996 12.5306 11.1996 12.1992V3.79922C11.1996 3.46785 10.931 3.19922 10.5996 3.19922H10.1996Z" fill="#0F172A"/>
<path d="M14.1996 3.19922C13.8682 3.19922 13.5996 3.46785 13.5996 3.79922V12.1992C13.5996 12.5306 13.8682 12.7992 14.1996 12.7992H14.5996C14.931 12.7992 15.1996 12.5306 15.1996 12.1992V3.79922C15.1996 3.46785 14.931 3.19922 14.5996 3.19922H14.1996Z" fill="#0F172A"/>
<path d="M2.63137 3.85673C1.83191 3.36293 0.800781 3.93801 0.800781 4.87768V11.1261C0.800781 12.0657 1.8319 12.6408 2.63137 12.1471L7.68959 9.02281C8.44878 8.55393 8.44878 7.44984 7.68959 6.98091L2.63137 3.85673Z" fill="#0F172A"/>
</svg>
