<svg width="16" height="16" viewBox="0 0 16 16" fill="none" xmlns="http://www.w3.org/2000/svg">
<path d="M8.60078 5.40078C8.60078 5.06941 8.33214 4.80078 8.00078 4.80078C7.66941 4.80078 7.40078 5.06941 7.40078 5.40078V7.40078H5.40078C5.06941 7.40078 4.80078 7.66941 4.80078 8.00078C4.80078 8.33214 5.06941 8.60078 5.40078 8.60078H7.40078V10.6008C7.40078 10.9321 7.66941 11.2008 8.00078 11.2008C8.33214 11.2008 8.60078 10.9321 8.60078 10.6008V8.60078H10.6008C10.9321 8.60078 11.2008 8.33214 11.2008 8.00078C11.2008 7.66941 10.9321 7.40078 10.6008 7.40078H8.60078V5.40078Z" fill="#0F172A"/>
</svg>
