<svg width="16" height="16" viewBox="0 0 16 16" fill="none" xmlns="http://www.w3.org/2000/svg">
<path d="M8.59922 3.79922C8.59922 3.46785 8.33058 3.19922 7.99922 3.19922C7.66785 3.19922 7.39922 3.46785 7.39922 3.79922V7.39922H3.79922C3.46785 7.39922 3.19922 7.66785 3.19922 7.99922C3.19922 8.33058 3.46785 8.59922 3.79922 8.59922H7.39922V12.1992C7.39922 12.5306 7.66785 12.7992 7.99922 12.7992C8.33058 12.7992 8.59922 12.5306 8.59922 12.1992V8.59922H12.1992C12.5306 8.59922 12.7992 8.33058 12.7992 7.99922C12.7992 7.66785 12.5306 7.39922 12.1992 7.39922H8.59922V3.79922Z" fill="#0F172A"/>
</svg>
