<svg width="16" height="16" viewBox="0 0 16 16" fill="none" xmlns="http://www.w3.org/2000/svg">
<path fill-rule="evenodd" clip-rule="evenodd" d="M7.99961 14.4016C11.5342 14.4016 14.3996 11.5362 14.3996 8.00156C14.3996 4.46694 11.5342 1.60156 7.99961 1.60156C4.46499 1.60156 1.59961 4.46694 1.59961 8.00156C1.59961 11.5362 4.46499 14.4016 7.99961 14.4016ZM8.59961 5.40156C8.59961 5.07019 8.33097 4.80156 7.99961 4.80156C7.66824 4.80156 7.39961 5.07019 7.39961 5.40156V7.40156H5.39961C5.06824 7.40156 4.79961 7.67019 4.79961 8.00156C4.79961 8.33292 5.06824 8.60156 5.39961 8.60156H7.39961V10.6016C7.39961 10.9329 7.66824 11.2016 7.99961 11.2016C8.33097 11.2016 8.59961 10.9329 8.59961 10.6016V8.60156H10.5996C10.931 8.60156 11.1996 8.33292 11.1996 8.00156C11.1996 7.67019 10.931 7.40156 10.5996 7.40156H8.59961V5.40156Z" fill="#0F172A"/>
</svg>
