<svg width="16" height="16" viewBox="0 0 16 16" fill="none" xmlns="http://www.w3.org/2000/svg">
<path d="M5.33252 14.5026C5.31919 14.5026 5.30585 14.5026 5.29919 14.5026C5.03919 14.4826 4.83252 14.2692 4.83252 14.0026C4.83252 13.6226 4.87919 13.2692 4.97919 12.9426L6.17253 4.59594C6.21253 4.3226 6.46585 4.13594 6.73921 4.16927C7.01255 4.20927 7.20588 4.4626 7.16588 4.73594L6.2192 11.3426C7.04588 10.8426 7.94588 10.836 7.99921 10.836C10.4792 10.836 12.4992 8.81596 12.4992 6.33594C12.4992 3.85594 10.4792 1.83594 7.99921 1.83594C5.51919 1.83594 3.49919 3.85594 3.49919 6.33594C3.49919 7.06927 3.67919 7.79594 4.01919 8.43596C4.14585 8.6826 4.05252 8.9826 3.81252 9.10924C3.56585 9.23596 3.26585 9.1426 3.13919 8.9026C2.72585 8.11596 2.50586 7.22927 2.50586 6.33594C2.50586 3.3026 4.97253 0.835938 8.00585 0.835938C11.0392 0.835938 13.5059 3.3026 13.5059 6.33594C13.5059 9.36924 11.0392 11.836 8.00585 11.836C7.94588 11.836 6.53252 11.8626 6.02585 13.0026C6.00585 13.056 5.97919 13.1092 5.96585 13.1626L5.8392 14.0692C5.79253 14.3226 5.57919 14.5026 5.33252 14.5026Z" fill="white"/>
<path d="M9.33266 14.6685C9.15938 14.6685 8.98602 14.5952 8.85938 14.4752C8.73938 14.3485 8.66602 14.1752 8.66602 14.0019C8.66602 13.9152 8.68602 13.8285 8.71938 13.7485C8.75266 13.6619 8.79938 13.5952 8.85938 13.5285C9.04602 13.3419 9.33938 13.2819 9.58602 13.3885C9.67266 13.4219 9.73938 13.4685 9.80602 13.5285C9.86602 13.5952 9.91266 13.6619 9.94602 13.7485C9.97938 13.8285 9.99938 13.9152 9.99938 14.0019C9.99938 14.1752 9.92602 14.3485 9.80602 14.4752C9.73938 14.5352 9.67266 14.5819 9.58602 14.6152C9.50602 14.6485 9.41938 14.6685 9.33266 14.6685Z" fill="white"/>
</svg>
