<svg width="16" height="16" viewBox="0 0 16 16" fill="none" xmlns="http://www.w3.org/2000/svg">
<path d="M14.2541 7.63217L11.2541 5.89886C11.1008 5.81219 10.9074 5.81219 10.7541 5.89886L7.75412 7.63217C7.75412 7.63217 7.75412 7.63884 7.74745 7.63884L5.0008 9.22548L2.5008 7.77884V4.89219L5.0008 3.44552L7.50079 4.89219V5.6522C7.50079 5.92553 7.72745 6.1522 8.00079 6.1522C8.27415 6.1522 8.50079 5.92553 8.50079 5.6522V4.59886C8.50079 4.41886 8.40743 4.25219 8.24743 4.16552L5.24747 2.43219C5.09413 2.34552 4.9008 2.34552 4.74747 2.43219L1.74747 4.16552C1.59413 4.25219 1.49414 4.41886 1.49414 4.59886V8.06548C1.49414 8.24548 1.58747 8.4122 1.74747 8.49884L4.74747 10.2322C4.82747 10.2788 4.91414 10.2988 5.0008 10.2988C5.08747 10.2988 5.17414 10.2788 5.25414 10.2322L8.25415 8.49884C8.25415 8.49884 8.25415 8.4922 8.26079 8.4922L11.0074 6.9055L13.5074 8.3522V11.2388L11.0074 12.6855L8.50743 11.2388V10.4255C8.50743 10.1522 8.28079 9.92548 8.00743 9.92548C7.73412 9.92548 7.50745 10.1522 7.50745 10.4255V11.5255C7.50745 11.7055 7.60078 11.8722 7.76078 11.9588L10.7608 13.6922C10.8408 13.7388 10.9274 13.7588 11.0141 13.7588C11.1008 13.7588 11.1874 13.7388 11.2674 13.6922L14.2674 11.9588C14.4208 11.8722 14.5208 11.7055 14.5208 11.5255V8.05884C14.5008 7.8855 14.4074 7.71884 14.2541 7.63217Z" fill="white"/>
<path d="M3 5.56948V7.10948C3 7.34948 3.12666 7.56948 3.33334 7.68948L4.66666 8.45613C4.87334 8.57613 5.12666 8.57613 5.33334 8.45613L6.66666 7.68948C6.87334 7.56948 7 7.34948 7 7.10948V5.56948C7 5.32948 6.87334 5.10948 6.66666 4.98948L5.33334 4.22281C5.12666 4.10281 4.87334 4.10281 4.66666 4.22281L3.33334 4.98948C3.12666 5.10948 3 5.32948 3 5.56948Z" fill="white"/>
<path d="M9 9.0343V10.5743C9 10.8143 9.12664 11.0343 9.33336 11.1543L10.6666 11.921C10.8734 12.041 11.1266 12.041 11.3334 11.921L12.6666 11.1543C12.8734 11.0343 13 10.8143 13 10.5743V9.0343C13 8.7943 12.8734 8.5743 12.6666 8.4543L11.3334 7.68766C11.1266 7.56766 10.8734 7.56766 10.6666 7.68766L9.33336 8.4543C9.12664 8.5743 9 8.7943 9 9.0343Z" fill="white"/>
</svg>
