<svg width="16" height="16" viewBox="0 0 16 16" fill="none" xmlns="http://www.w3.org/2000/svg">
<path d="M9.66735 11.9974H2.33398C2.06066 11.9974 1.83398 11.7708 1.83398 11.4974C1.83398 11.224 2.06066 10.9974 2.33398 10.9974H9.66735C11.9674 10.9974 13.834 9.13076 13.834 6.83073C13.834 4.53073 11.9674 2.66406 9.66735 2.66406H6.33398C6.06066 2.66406 5.83398 2.4374 5.83398 2.16406C5.83398 1.89073 6.06066 1.66406 6.33398 1.66406H9.66735C12.514 1.66406 14.834 3.98406 14.834 6.83073C14.834 9.6774 12.514 11.9974 9.66735 11.9974Z" fill="white"/>
<path d="M9.20664 9.9278H5.3333C5.05996 9.9278 4.8333 9.70116 4.8333 9.4278C4.8333 9.15452 5.05996 8.9278 5.3333 8.9278H9.20664C10.2866 8.9278 11.1666 8.0478 11.1666 6.96784C11.1666 5.88781 10.2866 5.00781 9.20664 5.00781H2.11328C1.83995 5.00781 1.61328 4.78115 1.61328 4.50781C1.61328 4.23448 1.83995 4.00781 2.11328 4.00781H9.20664C10.8399 4.00781 12.1666 5.33448 12.1666 6.96784C12.1666 8.60116 10.8399 9.9278 9.20664 9.9278Z" fill="white"/>
<path d="M5.66602 7.66406H3.66602C3.39268 7.66406 3.16602 7.4374 3.16602 7.16406C3.16602 6.89073 3.39268 6.66406 3.66602 6.66406H5.66602C5.93934 6.66406 6.16602 6.89073 6.16602 7.16406C6.16602 7.4374 5.93934 7.66406 5.66602 7.66406Z" fill="white"/>
<path d="M4.33268 14.3359H1.66602C1.39268 14.3359 1.16602 14.1092 1.16602 13.8359C1.16602 13.5626 1.39268 13.3359 1.66602 13.3359H4.33268C4.60602 13.3359 4.83268 13.5626 4.83268 13.8359C4.83268 14.1092 4.60602 14.3359 4.33268 14.3359Z" fill="white"/>
</svg>
