<svg width="16" height="16" viewBox="0 0 16 16" fill="none" xmlns="http://www.w3.org/2000/svg">
<path fill-rule="evenodd" clip-rule="evenodd" d="M7.99961 1.60156C8.33097 1.60156 8.59961 1.87019 8.59961 2.20156V8.20156C8.59961 8.53292 8.33097 8.80156 7.99961 8.80156C7.66824 8.80156 7.39961 8.53292 7.39961 8.20156V2.20156C7.39961 1.87019 7.66824 1.60156 7.99961 1.60156ZM4.32266 3.47608C4.55697 3.71039 4.55697 4.09029 4.32266 4.32461C2.29193 6.35533 2.29193 9.6478 4.32266 11.6785C6.35338 13.7092 9.64585 13.7092 11.6766 11.6785C13.7073 9.6478 13.7073 6.35533 11.6766 4.32461C11.4422 4.09029 11.4422 3.71039 11.6766 3.47608C11.9109 3.24176 12.2908 3.24176 12.5251 3.47608C15.0244 5.97543 15.0244 10.0277 12.5251 12.5271C10.0258 15.0264 5.97348 15.0264 3.47413 12.5271C0.974769 10.0277 0.974769 5.97543 3.47413 3.47608C3.70844 3.24176 4.08834 3.24176 4.32266 3.47608Z" fill="#0F172A"/>
</svg>
