<svg width="16" height="16" viewBox="0 0 16 16" fill="none" xmlns="http://www.w3.org/2000/svg">
<g clip-path="url(#clip0_13_15019)">
<path d="M14.6674 1.83594H1.33398C1.06066 1.83594 0.833984 1.60927 0.833984 1.33594C0.833984 1.0626 1.06066 0.835938 1.33398 0.835938H14.6674C14.9406 0.835938 15.1674 1.0626 15.1674 1.33594C15.1674 1.60927 14.9406 1.83594 14.6674 1.83594Z" fill="white"/>
<path d="M11.1135 14.8959C11.0269 15.0692 10.8469 15.1692 10.6669 15.1692C10.5935 15.1692 10.5135 15.1492 10.4469 15.1159L8.00016 13.8959L5.55351 15.1159C5.48684 15.1492 5.40684 15.1692 5.33351 15.1692C5.15351 15.1692 4.97351 15.0692 4.88684 14.8959C4.76017 14.6426 4.86017 14.3426 5.11351 14.2226L7.50019 13.0292V11.3359H8.50016V13.0292L10.8869 14.2226C11.1402 14.3426 11.2402 14.6426 11.1135 14.8959Z" fill="white"/>
<path d="M2 1.33594V9.4026C2 10.6692 2.66666 11.336 3.93334 11.336H12.0666C13.3334 11.336 14 10.6692 14 9.4026V1.33594H2ZM11.32 5.7226L9.22 7.47594C9.02664 7.63594 8.78 7.7026 8.54664 7.6626C8.30664 7.6226 8.1 7.47594 7.97334 7.2626L7.27334 6.09594L5.32 7.7226C5.22666 7.8026 5.11334 7.83594 5 7.83594C4.86 7.83594 4.71334 7.77594 4.61334 7.65594C4.43334 7.4426 4.46666 7.12927 4.68 6.94927L6.78 5.19594C6.97334 5.03594 7.22 4.96927 7.45334 5.00927C7.69334 5.04927 7.9 5.19594 8.02664 5.40927L8.72664 6.57594L10.68 4.94927C10.8934 4.76927 11.2066 4.8026 11.3866 5.01594C11.56 5.22927 11.5334 5.5426 11.32 5.7226Z" fill="white"/>
</g>
<defs>
<clipPath id="clip0_13_15019">
<rect width="16" height="16" fill="white"/>
</clipPath>
</defs>
</svg>
