<svg width="16" height="16" viewBox="0 0 16 16" fill="none" xmlns="http://www.w3.org/2000/svg">
<path fill-rule="evenodd" clip-rule="evenodd" d="M0.800781 2.20156C0.800781 1.87019 1.06941 1.60156 1.40078 1.60156H14.6008C14.9321 1.60156 15.2008 1.87019 15.2008 2.20156C15.2008 2.53293 14.9321 2.80156 14.6008 2.80156H14.4008V9.80156C14.4008 11.0166 13.4158 12.0016 12.2008 12.0016H11.3428L11.9815 14.45C12.0652 14.7707 11.873 15.0984 11.5524 15.1821C11.2317 15.2657 10.904 15.0736 10.8204 14.753L10.7287 14.4015H5.27318L5.1815 14.753C5.09785 15.0736 4.77012 15.2657 4.44948 15.1821C4.12884 15.0984 3.93671 14.7707 4.02036 14.45L4.65909 12.0016H3.80078C2.58576 12.0016 1.60078 11.0166 1.60078 9.80156V2.80156H1.40078C1.06941 2.80156 0.800781 2.53293 0.800781 2.20156ZM5.89925 12.0016L5.58622 13.2015H10.4157L10.1026 12.0016H5.89925ZM11.8908 4.8566C12.0833 5.12635 12.0206 5.50105 11.7509 5.69351C10.7429 6.41268 9.83246 7.24725 9.03318 8.17228C8.92414 8.29844 8.76758 8.37356 8.60102 8.37964C8.43438 8.38564 8.27278 8.32212 8.15494 8.20428L6.80078 6.85015L5.02505 8.62588C4.79073 8.8602 4.41083 8.8602 4.17652 8.62588C3.94221 8.39156 3.94221 8.01164 4.17652 7.77735L6.37652 5.57735C6.61083 5.34303 6.99073 5.34303 7.22505 5.57735L8.55582 6.90816C9.30854 6.10167 10.144 5.36583 11.0539 4.71665C11.3237 4.52419 11.6983 4.58685 11.8908 4.8566Z" fill="#0F172A"/>
</svg>
