<svg width="16" height="16" viewBox="0 0 16 16" fill="none" xmlns="http://www.w3.org/2000/svg">
<g clip-path="url(#clip0_13_15028)">
<path d="M4 4.66406C2.66666 4.66406 2 5.33073 2 6.66406V9.9974C2 11.3308 2.66666 11.9974 4 11.9974L5.33334 10.664V9.9974H6L11.3334 4.66406H4ZM4.66666 7.83073C4.39334 7.83073 4.16666 7.60406 4.16666 7.33073C4.16666 7.0574 4.39334 6.83073 4.66666 6.83073H6C6.27334 6.83073 6.5 7.0574 6.5 7.33073C6.5 7.60406 6.27334 7.83073 6 7.83073H4.66666Z" fill="white"/>
<path d="M6.00066 10L5.33398 10.6666V10H6.00066Z" fill="white"/>
<path d="M11.3326 3.33594V4.66927H4.66602V3.33594C4.66602 2.22927 5.55934 1.33594 6.66602 1.33594H9.33265C10.4394 1.33594 11.3326 2.22927 11.3326 3.33594Z" fill="white"/>
<path d="M15.0209 0.980938C14.8276 0.787604 14.5076 0.787604 14.3142 0.980938L0.98094 14.3143C0.787603 14.5076 0.787603 14.8276 0.98094 15.021C1.08094 15.121 1.2076 15.1676 1.33427 15.1676C1.46094 15.1676 1.5876 15.121 1.6876 15.021L15.0209 1.6876C15.2142 1.49427 15.2142 1.17427 15.0209 0.980938Z" fill="white"/>
<path d="M11.3341 9.5H8.63879C8.55039 9.5 8.46559 9.53512 8.40311 9.5976L8.00071 10L7.50072 10.5L5.86739 12.1334C5.44073 12.56 5.35406 13.3334 5.70073 13.8266C6.06073 14.3334 6.66073 14.6666 7.33405 14.6666H8.66735C9.77407 14.6666 10.6674 13.7734 10.6674 12.6666V10.5H11.3341C11.6074 10.5 11.8341 10.2734 11.8341 10C11.8341 9.72664 11.6074 9.5 11.3341 9.5Z" fill="white"/>
<path d="M12.6806 5.31682L10.3073 7.69013C9.88734 8.11012 10.1873 8.83012 10.7806 8.83012H11.274C11.854 8.83012 12.394 9.22348 12.4873 9.79684C12.5881 10.4071 12.2093 10.9562 11.6629 11.1164C11.4862 11.1684 11.334 11.3128 11.334 11.4968V11.6635C11.334 11.8476 11.4833 11.9968 11.6673 11.9968H12.0006C13.1073 11.9968 14.0006 11.1035 14.0006 9.99684V6.66349C14.0006 6.13682 13.894 5.71016 13.6873 5.39016C13.4606 5.05016 12.9673 5.03016 12.6806 5.31682Z" fill="white"/>
</g>
<defs>
<clipPath id="clip0_13_15028">
<rect width="16" height="16" fill="white"/>
</clipPath>
</defs>
</svg>
