<svg width="16" height="16" viewBox="0 0 16 16" fill="none" xmlns="http://www.w3.org/2000/svg">
<path fill-rule="evenodd" clip-rule="evenodd" d="M3.99961 2.20078C3.99961 1.42758 4.62641 0.800781 5.39961 0.800781H10.5996C11.3728 0.800781 11.9996 1.42758 11.9996 2.20078V5.00078C11.9996 5.01465 11.9994 5.02845 11.999 5.04222C12.3008 5.07892 12.6014 5.11972 12.9007 5.16456C13.7793 5.29622 14.3996 6.05789 14.3996 6.92316V10.2008C14.3996 11.1949 13.5937 12.0008 12.5996 12.0008H12.4065L12.6506 13.5879C12.7811 14.436 12.125 15.2008 11.267 15.2008H4.73194C3.87391 15.2008 3.21775 14.436 3.34822 13.5879L3.59239 12.0008H3.39961C2.4055 12.0008 1.59961 11.1949 1.59961 10.2008V6.92317C1.59961 6.05789 2.21991 5.29622 3.09855 5.16456C3.39782 5.11972 3.69839 5.07892 4.00021 5.04222C3.99981 5.02845 3.99961 5.01465 3.99961 5.00078V2.20078ZM10.7996 4.91865C9.87649 4.8406 8.94265 4.80078 7.99961 4.80078C7.05656 4.80078 6.1227 4.8406 5.19961 4.91865V2.20078C5.19961 2.09033 5.28915 2.00078 5.39961 2.00078H10.5996C10.7101 2.00078 10.7996 2.09033 10.7996 2.20078V4.91865ZM5.28579 10.0008C5.18707 10.0008 5.10312 10.0728 5.08811 10.1704L4.53427 13.7704C4.51563 13.8915 4.60936 14.0008 4.73194 14.0008H11.267C11.3895 14.0008 11.4833 13.8915 11.4646 13.7704L10.9108 10.1704C10.8958 10.0728 10.8118 10.0008 10.7131 10.0008H5.28579Z" fill="#0F172A"/>
</svg>
