<svg width="16" height="16" viewBox="0 0 16 16" fill="none" xmlns="http://www.w3.org/2000/svg">
<path d="M6.00066 1.33594C4.25398 1.33594 2.83398 2.75594 2.83398 4.5026C2.83398 6.21594 4.17398 7.6026 5.92066 7.6626C5.97398 7.65594 6.02732 7.65594 6.06732 7.6626C6.08066 7.6626 6.08732 7.6626 6.10066 7.6626C6.10732 7.6626 6.10732 7.6626 6.11398 7.6626C7.82066 7.6026 9.16063 6.21594 9.16735 4.5026C9.16735 2.75594 7.74732 1.33594 6.00066 1.33594Z" fill="white"/>
<path d="M9.38663 9.43391C7.52667 8.19391 4.49331 8.19391 2.61998 9.43391C1.77331 10.0005 1.30664 10.7673 1.30664 11.5873C1.30664 12.4073 1.77331 13.1673 2.61331 13.7273C3.54664 14.3539 4.77331 14.6673 5.99998 14.6673C7.22667 14.6673 8.45335 14.3539 9.38663 13.7273C10.2266 13.1605 10.6934 12.4005 10.6934 11.5739C10.6866 10.7539 10.2266 9.99391 9.38663 9.43391Z" fill="white"/>
<path d="M13.3263 4.8921C13.4329 6.18543 12.5129 7.31877 11.2396 7.4721C11.2329 7.4721 11.2329 7.4721 11.2263 7.4721H11.2063C11.1663 7.4721 11.1263 7.4721 11.0929 7.48543C10.4463 7.51877 9.85289 7.3121 9.40625 6.9321C10.0929 6.31877 10.4863 5.39877 10.4063 4.39877C10.3596 3.85877 10.1729 3.36543 9.89289 2.94543C10.1463 2.81877 10.4396 2.73877 10.7396 2.7121C12.0463 2.59877 13.2129 3.5721 13.3263 4.8921Z" fill="white"/>
<path d="M14.6595 11.0628C14.6062 11.7096 14.1928 12.2696 13.4995 12.6496C12.8328 13.0162 11.9928 13.1896 11.1595 13.1696C11.6395 12.7362 11.9195 12.1962 11.9728 11.6228C12.0395 10.7962 11.6462 10.0028 10.8595 9.36956C10.4128 9.0162 9.89281 8.7362 9.32617 8.52956C10.7995 8.10284 12.6528 8.38956 13.7928 9.30956C14.4062 9.80284 14.7195 10.4228 14.6595 11.0628Z" fill="white"/>
</svg>
