<svg width="16" height="16" viewBox="0 0 16 16" fill="none" xmlns="http://www.w3.org/2000/svg">
<path d="M13.154 10.7364C13.154 10.7164 13.1674 10.6964 13.1674 10.6697V4.33638C13.1674 3.32305 12.3474 2.50305 11.334 2.50305H8.71399L9.65399 1.72305C9.86735 1.54305 9.89399 1.22971 9.72063 1.01638C9.54063 0.803049 9.22735 0.776379 9.01399 0.949713L7.01398 2.61638C6.90066 2.70971 6.83398 2.84971 6.83398 3.00305C6.83398 3.15638 6.90066 3.28971 7.01398 3.38971L9.01399 5.05638C9.10735 5.13638 9.22063 5.16971 9.33399 5.16971C9.47399 5.16971 9.62063 5.10971 9.72063 4.98971C9.90063 4.77638 9.86735 4.46305 9.65399 4.28305L8.71399 3.50305H11.334C11.794 3.50305 12.1674 3.87638 12.1674 4.33638V10.6697C12.1674 10.6964 12.1806 10.7164 12.1806 10.7364C11.314 10.9564 10.6674 11.7364 10.6674 12.6697C10.6674 13.7764 11.5606 14.6697 12.6674 14.6697C13.774 14.6697 14.6674 13.7764 14.6674 12.6697C14.6674 11.7364 14.0206 10.9564 13.154 10.7364Z" fill="white"/>
<path d="M8.98735 12.616L6.98732 10.9492C6.77398 10.7692 6.46066 10.8026 6.28066 11.016C6.10066 11.2292 6.13398 11.5426 6.34732 11.7226L7.28732 12.5026H4.66732C4.20732 12.5026 3.83398 12.1292 3.83398 11.6692V5.33594C3.83398 5.30927 3.82066 5.28927 3.82066 5.26927C4.68732 5.04927 5.33398 4.26927 5.33398 3.33594C5.33398 2.22927 4.44066 1.33594 3.33398 1.33594C2.22732 1.33594 1.33398 2.22927 1.33398 3.33594C1.33398 4.26927 1.98066 5.04927 2.84732 5.26927C2.84732 5.28927 2.83398 5.30927 2.83398 5.33594V11.6692C2.83398 12.6826 3.65398 13.5026 4.66732 13.5026H7.28732L6.34732 14.2826C6.13398 14.4626 6.10732 14.776 6.28066 14.9892C6.38066 15.1092 6.52066 15.1692 6.66732 15.1692C6.78066 15.1692 6.89398 15.1292 6.98732 15.056L8.98735 13.3892C9.10063 13.296 9.16735 13.156 9.16735 13.0026C9.16735 12.8492 9.10063 12.716 8.98735 12.616Z" fill="white"/>
</svg>
