<svg width="16" height="16" viewBox="0 0 16 16" fill="none" xmlns="http://www.w3.org/2000/svg">
<path d="M3.83398 10.7426V5.2626C4.69398 5.0426 5.33398 4.26927 5.33398 3.33594C5.33398 2.22927 4.44066 1.33594 3.33398 1.33594C2.22732 1.33594 1.33398 2.22927 1.33398 3.33594C1.33398 4.26927 1.97398 5.0426 2.83398 5.2626V10.736C1.97398 10.9626 1.33398 11.736 1.33398 12.6692C1.33398 13.776 2.22732 14.6692 3.33398 14.6692C4.44066 14.6692 5.33398 13.776 5.33398 12.6692C5.33398 11.736 4.69398 10.9626 3.83398 10.7426Z" fill="white"/>
<path d="M13.1666 10.7431V4.33638C13.1666 3.32305 12.3466 2.50305 11.3334 2.50305H9.38L10.32 1.72305C10.5334 1.54305 10.56 1.22971 10.3866 1.01638C10.2066 0.803049 9.89336 0.776379 9.68 0.949713L7.68 2.61638C7.56666 2.70971 7.5 2.84971 7.5 3.00305C7.5 3.15638 7.56666 3.28971 7.68 3.38971L9.68 5.05638C9.77336 5.13638 9.88664 5.16971 10 5.16971C10.14 5.16971 10.2866 5.10971 10.3866 4.98971C10.5666 4.77638 10.5334 4.46305 10.32 4.28305L9.38 3.50305H11.3334C11.7934 3.50305 12.1666 3.87638 12.1666 4.33638V10.7431C11.3066 10.9631 10.6666 11.7364 10.6666 12.6697C10.6666 13.7764 11.56 14.6697 12.6666 14.6697C13.7734 14.6697 14.6666 13.7764 14.6666 12.6697C14.6666 11.7364 14.0266 10.9631 13.1666 10.7431Z" fill="white"/>
</svg>
