<svg width="16" height="16" viewBox="0 0 16 16" fill="none" xmlns="http://www.w3.org/2000/svg">
<path d="M9.60078 3.57431C9.60078 3.25005 9.81062 2.97371 10.0478 2.75266C10.2686 2.54693 10.4008 2.28543 10.4008 2.00078C10.4008 1.33804 9.68446 0.800781 8.80078 0.800781C7.91713 0.800781 7.20078 1.33804 7.20078 2.00078C7.20078 2.29038 7.33757 2.55603 7.56533 2.76335C7.79805 2.97518 8.00078 3.24387 8.00078 3.55856C8.00078 4.00634 7.62883 4.36555 7.18193 4.33738C6.36923 4.28616 5.56496 4.20422 4.77025 4.09274C4.58375 4.06657 4.3958 4.12949 4.26263 4.26265C4.12947 4.39582 4.06655 4.58377 4.09272 4.77027C4.2042 5.56498 4.28613 6.36925 4.33736 7.18195C4.36553 7.62884 4.00633 8.00078 3.55855 8.00078C3.24386 8.00078 2.97518 7.79805 2.76336 7.56533C2.55603 7.33757 2.29039 7.20078 2.00078 7.20078C1.33804 7.20078 0.800781 7.91713 0.800781 8.80078C0.800781 9.68446 1.33804 10.4008 2.00078 10.4008C2.28544 10.4008 2.54694 10.2686 2.75267 10.0478C2.97371 9.81062 3.25005 9.60078 3.5743 9.60078C4.02773 9.60078 4.39478 9.97142 4.37753 10.4245C4.33913 11.4333 4.25346 12.4298 4.1227 13.412C4.07915 13.7391 4.30787 14.0399 4.63467 14.0854C5.47405 14.2024 6.32351 14.2875 7.18179 14.3397C7.62897 14.3669 8.00078 14.0073 8.00078 13.5593C8.00078 13.2441 7.79771 12.9751 7.56477 12.7629C7.33735 12.5556 7.20078 12.2901 7.20078 12.0008C7.20078 11.3381 7.91713 10.8008 8.80078 10.8008C9.68446 10.8008 10.4008 11.3381 10.4008 12.0008C10.4008 12.2853 10.2687 12.5469 10.048 12.7525C9.8107 12.9737 9.60078 13.2501 9.60078 13.5745C9.60078 14.0279 9.97134 14.395 10.4245 14.3784C11.4947 14.3391 12.552 14.2485 13.594 14.1091C13.8621 14.0732 14.0732 13.8622 14.109 13.594C14.2485 12.5521 14.3391 11.4947 14.3784 10.4245C14.395 9.97134 14.0279 9.60078 13.5745 9.60078C13.2501 9.60078 12.9737 9.8107 12.7525 10.048C12.5469 10.2687 12.2853 10.4008 12.0008 10.4008C11.3381 10.4008 10.8008 9.68446 10.8008 8.80078C10.8008 7.91713 11.3381 7.20078 12.0008 7.20078C12.2901 7.20078 12.5556 7.33735 12.7629 7.56478C12.9751 7.79772 13.2441 8.00078 13.5593 8.00078C14.0073 8.00078 14.3668 7.62897 14.3397 7.18181C14.2875 6.32353 14.2024 5.47407 14.0854 4.63469C14.0399 4.30789 13.739 4.07917 13.412 4.12273C12.4298 4.25349 11.4333 4.33916 10.4245 4.37756C9.97142 4.39481 9.60078 4.02774 9.60078 3.57431Z" fill="#0F172A"/>
</svg>
