<svg width="16" height="16" viewBox="0 0 16 16" fill="none" xmlns="http://www.w3.org/2000/svg">
<path d="M10.0137 1.48703C8.68032 1.28037 7.32039 1.28037 5.98703 1.48703C5.44037 1.5737 5.04036 2.04036 5.04036 2.58702V5.04035H2.58702C2.04036 5.04035 1.57369 5.44037 1.48703 5.98703C1.28037 7.32033 1.28037 8.6803 1.48703 10.0137C1.57369 10.5603 2.04036 10.9603 2.58702 10.9603H3.70702C3.89369 10.9603 4.04036 10.8137 4.04036 10.627V9.4803C4.04036 8.11366 5.15369 7.00033 6.52036 7.00033H9.48032C9.74696 7.00033 9.9604 6.787 9.9604 6.52035V4.37369C9.9604 4.18702 10.107 4.04035 10.2938 4.04035H10.627C10.8137 4.04035 10.9604 3.89369 10.9604 3.70702V2.58702C10.9604 2.04036 10.5603 1.5737 10.0137 1.48703ZM6.88699 3.72034C6.61368 3.72034 6.35369 3.46035 6.35369 3.18702C6.35369 2.90702 6.61368 2.64702 6.88699 2.64702C7.02033 2.64702 7.16705 2.70703 7.26039 2.80037C7.36039 2.8937 7.42705 3.04702 7.42705 3.18702C7.42705 3.46035 7.16699 3.72034 6.88699 3.72034Z" fill="white"/>
<path d="M14.5124 5.98573C14.4257 5.43907 13.9591 5.03906 13.4124 5.03906H11.2924C11.1058 5.03906 10.9591 5.18573 10.9591 5.3724V6.51906C10.9591 7.33237 10.2991 7.999 9.47906 7.999H6.51906C5.69906 7.999 5.03906 8.65908 5.03906 9.47908V13.4124C5.03906 13.959 5.43907 14.4257 5.98574 14.5124C7.31909 14.719 8.67906 14.719 10.0124 14.5124C10.5591 14.4257 10.9591 13.959 10.9591 13.4124V10.9591H13.4124C13.9591 10.9591 14.4257 10.559 14.5124 10.0124C14.7191 8.679 14.7191 7.31909 14.5124 5.98573ZM9.11242 13.3524C8.83906 13.3524 8.57234 13.0924 8.57234 12.8124C8.57234 12.5324 8.83242 12.2724 9.11242 12.2724C9.23906 12.2724 9.39242 12.3324 9.48578 12.4191C9.58578 12.5124 9.65242 12.6724 9.65242 12.8057C9.64578 13.0924 9.38578 13.3524 9.11242 13.3524Z" fill="white"/>
</svg>
