<svg width="16" height="16" viewBox="0 0 16 16" fill="none" xmlns="http://www.w3.org/2000/svg">
<path fill-rule="evenodd" clip-rule="evenodd" d="M2.99961 1.60156C2.22641 1.60156 1.59961 2.22836 1.59961 3.00156V5.80156C1.59961 6.57476 2.22641 7.20156 2.99961 7.20156H5.79961C6.57281 7.20156 7.19961 6.57476 7.19961 5.80156V3.00156C7.19961 2.22836 6.57281 1.60156 5.79961 1.60156H2.99961ZM2.79961 3.00156C2.79961 2.89111 2.88915 2.80156 2.99961 2.80156H5.79961C5.91007 2.80156 5.99961 2.89111 5.99961 3.00156V5.80156C5.99961 5.91202 5.91007 6.00156 5.79961 6.00156H2.99961C2.88915 6.00156 2.79961 5.91202 2.79961 5.80156V3.00156ZM2.99961 8.80156C2.22641 8.80156 1.59961 9.42836 1.59961 10.2016V13.0016C1.59961 13.7748 2.22641 14.4016 2.99961 14.4016H5.79961C6.57281 14.4016 7.19961 13.7748 7.19961 13.0016V10.2016C7.19961 9.42836 6.57281 8.80156 5.79961 8.80156H2.99961ZM2.79961 10.2016C2.79961 10.0911 2.88915 10.0016 2.99961 10.0016H5.79961C5.91007 10.0016 5.99961 10.0911 5.99961 10.2016V13.0016C5.99961 13.112 5.91007 13.2016 5.79961 13.2016H2.99961C2.88915 13.2016 2.79961 13.112 2.79961 13.0016V10.2016ZM8.79961 3.00156C8.79961 2.22836 9.42641 1.60156 10.1996 1.60156H12.9996C13.7728 1.60156 14.3996 2.22836 14.3996 3.00156V5.80156C14.3996 6.57476 13.7728 7.20156 12.9996 7.20156H10.1996C9.42641 7.20156 8.79961 6.57476 8.79961 5.80156V3.00156ZM10.1996 2.80156C10.0891 2.80156 9.99961 2.89111 9.99961 3.00156V5.80156C9.99961 5.91202 10.0891 6.00156 10.1996 6.00156H12.9996C13.1101 6.00156 13.1996 5.91202 13.1996 5.80156V3.00156C13.1996 2.89111 13.1101 2.80156 12.9996 2.80156H10.1996ZM4.39179 3.60156C3.94997 3.60156 3.59179 3.95974 3.59179 4.40156V4.40956C3.59179 4.85139 3.94997 5.20956 4.39179 5.20956H4.39979C4.84163 5.20956 5.19979 4.85139 5.19979 4.40956V4.40156C5.19979 3.95974 4.84163 3.60156 4.39979 3.60156H4.39179ZM11.5918 3.60156C11.1499 3.60156 10.7918 3.95974 10.7918 4.40156V4.40956C10.7918 4.85139 11.1499 5.20956 11.5918 5.20956H11.5998C12.0416 5.20956 12.3998 4.85139 12.3998 4.40956V4.40156C12.3998 3.95974 12.0416 3.60156 11.5998 3.60156H11.5918ZM4.39179 10.8016C3.94997 10.8016 3.59179 11.1597 3.59179 11.6016V11.6096C3.59179 12.0514 3.94997 12.4096 4.39179 12.4096H4.39979C4.84163 12.4096 5.19979 12.0514 5.19979 11.6096V11.6016C5.19979 11.1597 4.84163 10.8016 4.39979 10.8016H4.39179ZM11.5918 10.8016C11.1499 10.8016 10.7918 11.1597 10.7918 11.6016V11.6096C10.7918 12.0514 11.1499 12.4096 11.5918 12.4096H11.5998C12.0416 12.4096 12.3998 12.0514 12.3998 11.6096V11.6016C12.3998 11.1597 12.0416 10.8016 11.5998 10.8016H11.5918ZM8.79177 9.60156C8.79177 9.15972 9.14993 8.80156 9.59177 8.80156H9.59977C10.0416 8.80156 10.3998 9.15972 10.3998 9.60156V9.60956C10.3998 10.0514 10.0416 10.4096 9.59977 10.4096H9.59177C9.14993 10.4096 8.79177 10.0514 8.79177 9.60956V9.60156ZM13.5918 8.80156C13.1499 8.80156 12.7918 9.15972 12.7918 9.60156V9.60956C12.7918 10.0514 13.1499 10.4096 13.5918 10.4096H13.5998C14.0416 10.4096 14.3998 10.0514 14.3998 9.60956V9.60156C14.3998 9.15972 14.0416 8.80156 13.5998 8.80156H13.5918ZM12.7918 13.6016C12.7918 13.1597 13.1499 12.8016 13.5918 12.8016H13.5998C14.0416 12.8016 14.3998 13.1597 14.3998 13.6016V13.6096C14.3998 14.0514 14.0416 14.4096 13.5998 14.4096H13.5918C13.1499 14.4096 12.7918 14.0514 12.7918 13.6096V13.6016ZM9.59177 12.8016C9.14993 12.8016 8.79177 13.1597 8.79177 13.6016V13.6096C8.79177 14.0514 9.14993 14.4096 9.59177 14.4096H9.59977C10.0416 14.4096 10.3998 14.0514 10.3998 13.6096V13.6016C10.3998 13.1597 10.0416 12.8016 9.59977 12.8016H9.59177Z" fill="#0F172A"/>
</svg>
