<svg width="16" height="16" viewBox="0 0 16 16" fill="none" xmlns="http://www.w3.org/2000/svg">
<path d="M13.6591 4.47469L8.32585 1.51469C8.12585 1.40135 7.87921 1.40135 7.67921 1.51469L2.34587 4.47469C2.13253 4.59469 2.00586 4.81469 2.00586 5.05469V10.9347C2.00586 11.1747 2.1392 11.4014 2.34587 11.5147L7.69248 14.488C7.88581 14.5947 8.11913 14.6014 8.31249 14.5014L10.9992 13.1614C11.2059 13.0547 11.4525 13.068 11.6525 13.1947L12.9791 14.028C13.4259 14.308 13.9992 13.988 13.9992 13.4614V11.7214C13.9992 11.4814 13.8659 11.2547 13.6591 11.1414L11.6591 10.0347C11.4591 9.9214 11.2126 9.9214 11.0126 10.0347L8.32585 11.528C8.12585 11.6414 7.87921 11.6414 7.67921 11.528L5.01253 10.048C4.7992 9.92804 4.67253 9.70804 4.67253 9.46804V6.54802C4.67253 6.30802 4.80587 6.08135 5.01253 5.96802L7.67921 4.48801C7.87921 4.37468 8.12585 4.37468 8.32585 4.48801L10.9925 5.96802C11.2059 6.08802 11.3326 6.30802 11.3326 6.54802V8.58804C11.3326 9.12804 11.9392 9.4414 12.3792 9.13468L13.7126 8.20804C13.8926 8.0814 13.9992 7.88137 13.9992 7.66137V5.06802C13.9992 4.82135 13.8659 4.59469 13.6591 4.47469Z" fill="white"/>
<path d="M10.5724 6.9477V9.04768C10.5724 9.28104 10.4458 9.4944 10.2391 9.60768L8.31242 10.681C8.11906 10.7877 7.87916 10.7877 7.68582 10.681L5.75912 9.60768C5.55245 9.4944 5.42578 9.28104 5.42578 9.04768V6.9477C5.42578 6.71437 5.55245 6.50104 5.75912 6.38771L7.68582 5.31437C7.87916 5.20771 8.11906 5.20771 8.31242 5.31437L10.2391 6.38771C10.4458 6.50104 10.5724 6.71437 10.5724 6.9477Z" fill="white"/>
</svg>
