<svg width="16" height="16" viewBox="0 0 16 16" fill="none" xmlns="http://www.w3.org/2000/svg">
<path d="M1.59961 3.60156C1.59961 2.49699 2.49504 1.60156 3.59961 1.60156H12.3996C13.5042 1.60156 14.3996 2.49699 14.3996 3.60156C14.3996 4.70613 13.5042 5.60156 12.3996 5.60156H3.59961C2.49504 5.60156 1.59961 4.70613 1.59961 3.60156Z" fill="#0F172A"/>
<path d="M2.19961 7.26562C1.86824 7.26562 1.59961 7.53426 1.59961 7.86563C1.59961 8.19701 1.86824 8.46565 2.19961 8.46565H13.7996C14.131 8.46565 14.3996 8.19701 14.3996 7.86563C14.3996 7.53426 14.131 7.26562 13.7996 7.26562H2.19961Z" fill="#0F172A"/>
<path d="M2.19961 10.1289C1.86824 10.1289 1.59961 10.3975 1.59961 10.7289C1.59961 11.0603 1.86824 11.3289 2.19961 11.3289H13.7996C14.131 11.3289 14.3996 11.0603 14.3996 10.7289C14.3996 10.3975 14.131 10.1289 13.7996 10.1289H2.19961Z" fill="#0F172A"/>
<path d="M2.19961 13C1.86824 13 1.59961 13.2686 1.59961 13.6C1.59961 13.9314 1.86824 14.2 2.19961 14.2H13.7996C14.131 14.2 14.3996 13.9314 14.3996 13.6C14.3996 13.2686 14.131 13 13.7996 13H2.19961Z" fill="#0F172A"/>
</svg>
