<svg width="16" height="16" viewBox="0 0 16 16" fill="none" xmlns="http://www.w3.org/2000/svg">
<path d="M8.00063 1.33594C4.32066 1.33594 1.33398 4.3226 1.33398 8.0026C1.33398 11.6826 4.32066 14.6692 8.00063 14.6692C11.6806 14.6692 14.6674 11.6826 14.6674 8.0026C14.6674 4.3226 11.6806 1.33594 8.00063 1.33594ZM7.74066 7.89594C7.74066 9.94924 7.29398 10.4092 6.10066 11.116C6.02066 11.1626 5.93398 11.1826 5.84732 11.1826C5.67398 11.1826 5.50732 11.096 5.41398 10.936C5.27398 10.696 5.35398 10.3892 5.58732 10.2492C6.39398 9.76924 6.67398 9.59596 6.72732 8.38924H5.46066C4.73398 8.38924 4.16732 7.8226 4.16732 7.09594V6.10927C4.16732 5.3826 4.73398 4.81594 5.46066 4.81594H6.45398C7.16732 4.81594 7.74732 5.39594 7.74732 6.10927V7.89594H7.74066ZM11.834 7.89594C11.834 9.94924 11.3874 10.4092 10.194 11.116C10.114 11.1626 10.0274 11.1826 9.94063 11.1826C9.76735 11.1826 9.60063 11.096 9.50735 10.936C9.36735 10.696 9.44735 10.3892 9.68063 10.2492C10.4874 9.76924 10.7674 9.59596 10.8206 8.38924H9.54735C8.82063 8.38924 8.25399 7.8226 8.25399 7.09594V6.10927C8.25399 5.3826 8.82063 4.81594 9.54735 4.81594H10.5406C11.254 4.81594 11.834 5.39594 11.834 6.10927V7.89594Z" fill="white"/>
</svg>
