<svg width="16" height="16" viewBox="0 0 16 16" fill="none" xmlns="http://www.w3.org/2000/svg">
<path d="M10.6061 8.24504H13.7328C13.6794 11.3584 13.0661 11.8717 11.1528 13.005C10.9328 13.1384 10.8594 13.4184 10.9928 13.645C11.1261 13.865 11.4061 13.9384 11.6328 13.805C13.8861 12.4717 14.6728 11.6584 14.6728 7.77837V4.185C14.6728 3.045 13.7461 2.125 12.6128 2.125H10.6128C9.43941 2.125 8.55277 3.01166 8.55277 4.185V6.185C8.54605 7.35837 9.43277 8.24504 10.6061 8.24504Z" fill="white"/>
<path d="M3.39398 8.24504H6.52066C6.46732 11.3584 5.85398 11.8717 3.94066 13.005C3.72066 13.1384 3.64732 13.4184 3.78066 13.645C3.91398 13.865 4.19398 13.9384 4.42066 13.805C6.67398 12.4717 7.46065 11.6584 7.46065 7.77837V4.185C7.46065 3.045 6.53398 2.125 5.40066 2.125H3.40066C2.22066 2.125 1.33398 3.01166 1.33398 4.185V6.185C1.33398 7.35837 2.22066 8.24504 3.39398 8.24504Z" fill="white"/>
</svg>
