<svg width="16" height="16" viewBox="0 0 16 16" fill="none" xmlns="http://www.w3.org/2000/svg">
<path d="M5.39398 7.7517H2.26732C2.32066 4.63835 2.93398 4.12502 4.84732 2.99169C5.06732 2.85835 5.14066 2.57835 5.00732 2.35169C4.88066 2.13169 4.59398 2.05835 4.37398 2.19169C2.12066 3.52502 1.33398 4.33835 1.33398 8.21168V11.805C1.33398 12.945 2.26066 13.865 3.39398 13.865H5.39398C6.56732 13.865 7.45398 12.9784 7.45398 11.805V9.80504C7.45398 8.6384 6.56732 7.7517 5.39398 7.7517Z" fill="white"/>
<path d="M12.6057 7.7517H9.47906C9.53242 4.63835 10.1457 4.12502 12.0591 2.99169C12.2791 2.85835 12.3524 2.57835 12.2191 2.35169C12.0857 2.13169 11.8057 2.05835 11.5791 2.19169C9.3257 3.52502 8.53906 4.33835 8.53906 8.2184V11.8117C8.53906 12.9517 9.4657 13.8717 10.5991 13.8717H12.5991C13.7724 13.8717 14.6591 12.985 14.6591 11.8117V9.81168C14.6657 8.6384 13.7791 7.7517 12.6057 7.7517Z" fill="white"/>
</svg>
