<svg width="16" height="16" viewBox="0 0 16 16" fill="none" xmlns="http://www.w3.org/2000/svg">
<path d="M8.00063 1.33594C4.32066 1.33594 1.33398 4.3226 1.33398 8.0026C1.33398 11.6826 4.32066 14.6692 8.00063 14.6692C11.6806 14.6692 14.6674 11.6826 14.6674 8.0026C14.6674 4.3226 11.6806 1.33594 8.00063 1.33594ZM7.74066 9.89596C7.74066 10.6226 7.17398 11.1892 6.44732 11.1892H5.46066C4.74732 11.1892 4.16732 10.6092 4.16732 9.89596V8.11596C4.16732 6.0626 4.61398 5.6026 5.80732 4.89594C5.88732 4.84927 5.97398 4.82927 6.06066 4.82927C6.23398 4.82927 6.40066 4.91594 6.49398 5.07594C6.63398 5.31594 6.55398 5.6226 6.32065 5.7626C5.51398 6.22927 5.23398 6.4026 5.18066 7.60927H6.45398C7.18066 7.60927 7.74732 8.17596 7.74732 8.9026V9.89596H7.74066ZM11.834 9.89596C11.834 10.6226 11.2674 11.1892 10.5406 11.1892H9.54735C8.83399 11.1892 8.25399 10.6092 8.25399 9.89596V8.11596C8.25399 6.0626 8.70063 5.6026 9.89399 4.89594C9.97399 4.84927 10.0606 4.82927 10.1474 4.82927C10.3206 4.82927 10.4874 4.91594 10.5806 5.07594C10.7206 5.31594 10.6406 5.6226 10.4074 5.7626C9.60063 6.2426 9.32063 6.41594 9.26735 7.6226H10.5406C11.2674 7.6226 11.834 8.18924 11.834 8.91596V9.89596Z" fill="white"/>
</svg>
