<svg width="16" height="16" viewBox="0 0 16 16" fill="none" xmlns="http://www.w3.org/2000/svg">
<path d="M8.00072 9.58741C8.87702 9.58741 9.58742 8.87701 9.58742 8.00071C9.58742 7.12444 8.87702 6.41406 8.00072 6.41406C7.12445 6.41406 6.41406 7.12444 6.41406 8.00071C6.41406 8.87701 7.12445 9.58741 8.00072 9.58741Z" fill="white"/>
<path d="M13.3342 12.5002C13.2275 12.5002 13.1275 12.4669 13.0342 12.4002C12.8142 12.2335 12.7675 11.9202 12.9342 11.7002C13.7409 10.6269 14.1675 9.34688 14.1675 8.00024C14.1675 6.65351 13.7409 5.37351 12.9342 4.30018C12.7675 4.08018 12.8142 3.76685 13.0342 3.60018C13.2542 3.43351 13.5675 3.48018 13.7342 3.70018C14.6742 4.94685 15.1675 6.43351 15.1675 8.00024C15.1675 9.56688 14.6742 11.0535 13.7342 12.3002C13.6342 12.4335 13.4875 12.5002 13.3342 12.5002Z" fill="white"/>
<path d="M2.66732 12.5002C2.51398 12.5002 2.36732 12.4335 2.26732 12.3002C1.32732 11.0535 0.833984 9.56688 0.833984 8.00024C0.833984 6.43351 1.32732 4.94685 2.26732 3.70018C2.43398 3.48018 2.74732 3.43351 2.96732 3.60018C3.18732 3.76685 3.23398 4.08018 3.06732 4.30018C2.26066 5.37351 1.83398 6.65351 1.83398 8.00024C1.83398 9.34688 2.26066 10.6269 3.06732 11.7002C3.23398 11.9202 3.18732 12.2335 2.96732 12.4002C2.88066 12.4669 2.77398 12.5002 2.66732 12.5002Z" fill="white"/>
<path d="M11.1994 10.9018C11.0927 10.9018 10.9927 10.8684 10.8994 10.8018C10.6794 10.6351 10.6327 10.3218 10.7994 10.1018C11.2594 9.49508 11.4994 8.76844 11.4994 8.0018C11.4994 7.23511 11.2594 6.50841 10.7994 5.90175C10.6327 5.68175 10.6794 5.36841 10.8994 5.20175C11.1194 5.03507 11.4327 5.08175 11.5994 5.30175C12.1861 6.08841 12.4994 7.02177 12.4994 8.0018C12.4994 8.9818 12.1861 9.9218 11.5994 10.7018C11.4994 10.8351 11.3527 10.9018 11.1994 10.9018Z" fill="white"/>
<path d="M4.8 10.9018C4.64666 10.9018 4.5 10.8351 4.4 10.7018C3.81334 9.9218 3.5 8.9818 3.5 8.0018C3.5 7.02177 3.81334 6.08175 4.4 5.30175C4.56666 5.08175 4.88 5.03507 5.1 5.20175C5.32 5.36841 5.36666 5.68175 5.2 5.90175C4.74 6.50841 4.5 7.23511 4.5 8.0018C4.5 8.76844 4.74 9.49508 5.2 10.1018C5.36666 10.3218 5.32 10.6351 5.1 10.8018C5.01334 10.8684 4.90666 10.9018 4.8 10.9018Z" fill="white"/>
</svg>
