<svg width="16" height="16" viewBox="0 0 16 16" fill="none" xmlns="http://www.w3.org/2000/svg">
<path d="M8.00063 1.33594C4.32066 1.33594 1.33398 4.3226 1.33398 8.0026C1.33398 11.6826 4.32066 14.6692 8.00063 14.6692C11.6806 14.6692 14.6674 11.6826 14.6674 8.0026C14.6674 4.3226 11.6806 1.33594 8.00063 1.33594ZM8.00063 13.1692C5.15398 13.1692 2.83398 10.8492 2.83398 8.0026C2.83398 7.09594 3.07398 6.20927 3.52066 5.42927C3.65398 5.18927 3.96066 5.10927 4.20066 5.2426L8.24735 7.56927C8.48735 7.70927 8.56735 8.00924 8.43399 8.24924C8.29399 8.48924 7.99398 8.56924 7.75398 8.43596L4.16066 6.37594C3.94732 6.88927 3.83398 7.4426 3.83398 8.0026C3.83398 10.3026 5.70066 12.1692 8.00063 12.1692C10.3006 12.1692 12.1674 10.3026 12.1674 8.0026C12.1674 5.7026 10.3006 3.83594 8.00063 3.83594C7.09398 3.83594 6.22732 4.1226 5.50066 4.66927C5.28066 4.83594 4.96732 4.78927 4.80066 4.56927C4.63398 4.34927 4.68066 4.03594 4.90066 3.86927C5.80066 3.19594 6.87398 2.83594 8.00063 2.83594C10.8474 2.83594 13.1674 5.15594 13.1674 8.0026C13.1674 10.8492 10.8474 13.1692 8.00063 13.1692Z" fill="white"/>
</svg>
