<svg width="16" height="16" viewBox="0 0 16 16" fill="none" xmlns="http://www.w3.org/2000/svg">
<path fill-rule="evenodd" clip-rule="evenodd" d="M13.9605 2.78011C14.28 2.69199 14.4675 2.3616 14.3793 2.04216C14.2913 1.72272 13.9609 1.5352 13.6414 1.62332L4.25076 4.21384C3.57903 4.29031 2.9134 4.38708 2.25452 4.50353C1.39715 4.65505 0.800781 5.40635 0.800781 6.25457V12.6018C0.800781 13.5958 1.60667 14.4018 2.60078 14.4018H13.4008C14.3949 14.4018 15.2008 13.5958 15.2008 12.6018V6.25457C15.2008 5.40634 14.6044 4.65505 13.747 4.50353C12.3344 4.25386 10.8907 4.09465 9.42238 4.03202L13.9605 2.78011ZM12.8008 7.60176C12.8008 8.26448 12.2635 8.80176 11.6008 8.80176C10.9381 8.80176 10.4008 8.26448 10.4008 7.60176C10.4008 6.93901 10.9381 6.40176 11.6008 6.40176C12.2635 6.40176 12.8008 6.93901 12.8008 7.60176ZM11.6008 12.8018C12.2635 12.8018 12.8008 12.2645 12.8008 11.6018C12.8008 10.939 12.2635 10.4018 11.6008 10.4018C10.9381 10.4018 10.4008 10.939 10.4008 11.6018C10.4008 12.2645 10.9381 12.8018 11.6008 12.8018ZM4.19297 8.80176C4.19297 8.4704 4.4616 8.20176 4.79297 8.20176H4.80097C5.13234 8.20176 5.40097 8.4704 5.40097 8.80176V8.80976C5.40097 9.14112 5.13234 9.40976 4.80097 9.40976H4.79297C4.4616 9.40976 4.19297 9.14112 4.19297 8.80976V8.80176ZM6.39297 8.20176C6.0616 8.20176 5.79297 8.4704 5.79297 8.80176V8.80976C5.79297 9.14112 6.0616 9.40976 6.39297 9.40976H6.40097C6.73234 9.40976 7.00097 9.14112 7.00097 8.80976V8.80176C7.00097 8.4704 6.73234 8.20176 6.40097 8.20176H6.39297ZM4.99297 7.00176C4.99297 6.67039 5.2616 6.40176 5.59297 6.40176H5.60097C5.93234 6.40176 6.20097 6.67039 6.20097 7.00176V7.00976C6.20097 7.34113 5.93234 7.60976 5.60097 7.60976H5.59297C5.2616 7.60976 4.99297 7.34113 4.99297 7.00976V7.00176ZM7.85942 7.33735C7.62511 7.10304 7.24521 7.10304 7.01089 7.33735L7.00524 7.34301C6.77092 7.57732 6.77092 7.95722 7.00524 8.19152L7.01089 8.1972C7.24521 8.43152 7.62511 8.43152 7.85942 8.1972L7.86508 8.19152C8.09942 7.95722 8.09942 7.57732 7.86508 7.34301L7.85942 7.33735ZM8.20078 9.00176C8.53214 9.00176 8.80078 9.2704 8.80078 9.60176V9.60976C8.80078 9.94112 8.53214 10.2098 8.20078 10.2098H8.19278C7.86141 10.2098 7.59278 9.94112 7.59278 9.60976V9.60176C7.59278 9.2704 7.86141 9.00176 8.19278 9.00176H8.20078ZM7.86519 11.8685C8.0995 11.6342 8.0995 11.2543 7.86519 11.02L7.85953 11.0143C7.62522 10.78 7.24532 10.78 7.01101 11.0143L7.00535 11.02C6.77103 11.2543 6.77103 11.6342 7.00535 11.8685L7.01101 11.8742C7.24532 12.1085 7.62522 12.1085 7.85953 11.8742L7.86519 11.8685ZM4.99297 12.2018C4.99297 11.8704 5.2616 11.6018 5.59297 11.6018H5.60097C5.93234 11.6018 6.20097 11.8704 6.20097 12.2018V12.2098C6.20097 12.5411 5.93234 12.8098 5.60097 12.8098H5.59297C5.2616 12.8098 4.99297 12.5411 4.99297 12.2098V12.2018ZM4.18247 11.0143C3.94815 10.78 3.56825 10.78 3.33394 11.0143L3.32829 11.02C3.09397 11.2542 3.09397 11.6342 3.32829 11.8685L3.33394 11.8742C3.56825 12.1085 3.94815 12.1085 4.18247 11.8742L4.18813 11.8685C4.42244 11.6342 4.42244 11.2542 4.18813 11.02L4.18247 11.0143ZM3.00078 9.00176C3.33215 9.00176 3.60078 9.2704 3.60078 9.60176V9.60976C3.60078 9.94112 3.33215 10.2098 3.00078 10.2098H2.99278C2.66141 10.2098 2.39278 9.94112 2.39278 9.60976V9.60176C2.39278 9.2704 2.66141 9.00176 2.99278 9.00176H3.00078ZM4.18824 8.19152C4.42255 7.95724 4.42255 7.57733 4.18824 7.34302L4.18258 7.33737C3.94826 7.10305 3.56837 7.10305 3.33405 7.33737L3.3284 7.34302C3.09408 7.57733 3.09408 7.95724 3.3284 8.19152L3.33405 8.1972C3.56837 8.43152 3.94826 8.43152 4.18258 8.1972L4.18824 8.19152ZM5.79297 10.4018C5.79297 10.0704 6.0616 9.80176 6.39297 9.80176H6.40097C6.73234 9.80176 7.00097 10.0704 7.00097 10.4018V10.4098C7.00097 10.7411 6.73234 11.0098 6.40097 11.0098H6.39297C6.0616 11.0098 5.79297 10.7411 5.79297 10.4098V10.4018ZM4.79297 9.80176C4.4616 9.80176 4.19297 10.0704 4.19297 10.4018V10.4098C4.19297 10.7411 4.4616 11.0098 4.79297 11.0098H4.80097C5.13234 11.0098 5.40097 10.7411 5.40097 10.4098V10.4018C5.40097 10.0704 5.13234 9.80176 4.80097 9.80176H4.79297Z" fill="#0F172A"/>
</svg>
