<svg width="16" height="16" viewBox="0 0 16 16" fill="none" xmlns="http://www.w3.org/2000/svg">
<path d="M10.6735 13.9826C10.6773 14.3533 10.3778 14.6559 10.007 14.6559H5.99582C5.62938 14.6559 5.33162 14.3602 5.32918 13.9937L5.32031 12.6692C5.32031 11.9359 5.91365 11.3359 6.65365 11.3359H9.32696C10.0603 11.3359 10.6537 11.9292 10.6603 12.6626L10.6735 13.9826Z" fill="white"/>
<path d="M12.334 6.66709V8.1138C12.334 8.46708 12.474 8.80708 12.7274 9.06044L13.274 9.60708C13.5274 9.86044 13.6674 10.2004 13.6674 10.5538V11.3338C13.6674 12.8678 13.0614 13.9962 11.7378 14.4445C11.537 14.5126 11.3399 14.354 11.3392 14.142L11.334 12.6538C11.3206 11.5604 10.4206 10.6671 9.33399 10.6671H6.66066C5.55398 10.6671 4.66066 11.5671 4.66066 12.6671V14.1498C4.66066 14.3615 4.46485 14.5207 4.26392 14.4542C2.92466 14.011 2.33398 12.8758 2.33398 11.3338V4.66709C2.33398 3.06306 2.96851 1.88961 4.43081 1.49143C4.63118 1.43686 4.81792 1.5979 4.81494 1.80554L4.79398 3.26709C4.78732 3.58042 4.90066 3.88042 5.11398 4.10709C5.33398 4.33375 5.62066 4.46042 5.96066 4.46709C6.30343 4.46709 6.60867 4.32525 6.81698 4.09438C6.89178 4.01146 7.03506 4.00812 7.11398 4.08709C7.32732 4.31375 7.62066 4.44708 7.96066 4.45375C8.30351 4.45375 8.61631 4.30305 8.82975 4.06047C8.89983 3.98075 9.04343 3.97439 9.11399 4.05375C9.32735 4.28042 9.62063 4.41375 9.96063 4.42042C10.6006 4.42042 11.114 3.92042 11.1274 3.27375L11.1538 1.79151C11.1574 1.58865 11.341 1.43467 11.5371 1.48679C13.0065 1.8773 13.6674 3.05854 13.6674 4.66709V5.33375C13.6674 5.70042 13.3674 6.00042 13.0006 6.00042C12.634 6.00042 12.334 6.30042 12.334 6.66709Z" fill="white"/>
<path d="M6.15128 1.33594C6.3384 1.33474 6.48987 1.48779 6.48671 1.6749L6.45913 3.30707C6.45247 3.58041 6.23247 3.80041 5.95913 3.80041H5.95248C5.67248 3.79374 5.45247 3.56707 5.45913 3.28707V1.6716C5.45913 1.48834 5.60707 1.33946 5.79032 1.33827L6.15128 1.33594Z" fill="white"/>
<path d="M8.15337 1.33594C8.33977 1.33594 8.48985 1.48864 8.48673 1.67491L8.45913 3.3026C8.45249 3.56927 8.23249 3.78927 7.95913 3.78927H7.95247C7.67247 3.7826 7.45247 3.55594 7.45913 3.2826V1.66927C7.45913 1.48518 7.60833 1.33594 7.79247 1.33594H8.15337Z" fill="white"/>
<path d="M10.1554 1.33822C10.341 1.33938 10.4898 1.49182 10.4866 1.67733L10.4591 3.26034C10.4525 3.53367 10.2325 3.75367 9.95913 3.75367H9.95249C9.67249 3.74701 9.45249 3.52034 9.45913 3.24701V1.66927C9.45913 1.48435 9.60969 1.33478 9.79457 1.33594L10.1554 1.33822Z" fill="white"/>
</svg>
