<svg width="16" height="16" viewBox="0 0 16 16" fill="none" xmlns="http://www.w3.org/2000/svg">
<path d="M13.0006 6.0026C13.3674 6.0026 13.6674 5.7026 13.6674 5.33594V4.66927C13.6674 2.66927 12.6474 1.33594 10.334 1.33594H5.66732C3.31398 1.33594 2.33398 2.66927 2.33398 4.66927V11.336C2.33398 12.8785 2.9195 14.0196 4.26394 14.4584C4.46498 14.524 4.65995 14.364 4.65921 14.1525L4.65398 12.6692C4.65398 11.5626 5.55398 10.6692 6.65398 10.6692H9.32735C10.4206 10.6692 11.3206 11.5626 11.3274 12.656L11.3378 14.154C11.3393 14.3649 11.5351 14.5227 11.7352 14.4556C13.0606 14.011 13.6674 12.8711 13.6674 11.336V10.556C13.6674 10.2026 13.5274 9.8626 13.274 9.60924L12.7274 9.0626C12.474 8.80924 12.334 8.46924 12.334 8.11596V6.66927C12.334 6.3026 12.634 6.0026 13.0006 6.0026ZM9.31399 5.68927H5.31398C5.04066 5.68927 4.81398 5.4626 4.81398 5.18927C4.81398 4.91594 5.04066 4.68927 5.31398 4.68927H9.31399C9.58735 4.68927 9.81399 4.91594 9.81399 5.18927C9.81399 5.4626 9.59399 5.68927 9.31399 5.68927Z" fill="white"/>
<path d="M10.6735 13.9826C10.6773 14.3533 10.3778 14.6559 10.007 14.6559H5.99582C5.62938 14.6559 5.33162 14.3602 5.32918 13.9937L5.32031 12.6692C5.32031 11.9359 5.91365 11.3359 6.65365 11.3359H9.32696C10.0603 11.3359 10.6537 11.9292 10.6603 12.6626L10.6735 13.9826Z" fill="white"/>
</svg>
