<svg width="16" height="16" viewBox="0 0 16 16" fill="none" xmlns="http://www.w3.org/2000/svg">
<path d="M8.86735 5.40948L9.74735 7.16947C9.86735 7.40947 10.1874 7.64947 10.454 7.68947L12.0474 7.95613C13.0674 8.12948 13.3074 8.86276 12.574 9.59612L11.334 10.8428C11.1274 11.0495 11.0074 11.4561 11.074 11.7495L11.4274 13.2895C11.7074 14.5028 11.0606 14.9761 9.98735 14.3428L8.49399 13.4561C8.22063 13.2961 7.78065 13.2961 7.50732 13.4561L6.0073 14.3361C4.93397 14.9695 4.2873 14.4961 4.5673 13.2828L4.92063 11.7428C4.9873 11.4561 4.8673 11.0495 4.66063 10.8361L3.4273 9.60276C2.69397 8.86948 2.93397 8.12948 3.95397 7.9628L5.5473 7.69614C5.81397 7.64947 6.13397 7.41613 6.25397 7.17613L7.13399 5.41615C7.60732 4.45615 8.39399 4.45615 8.86735 5.40948Z" fill="white"/>
<path d="M4 6.5026C3.72666 6.5026 3.5 6.27594 3.5 6.0026V1.33594C3.5 1.0626 3.72666 0.835938 4 0.835938C4.27334 0.835938 4.5 1.0626 4.5 1.33594V6.0026C4.5 6.27594 4.27334 6.5026 4 6.5026Z" fill="white"/>
<path d="M12 6.5026C11.7266 6.5026 11.5 6.27594 11.5 6.0026V1.33594C11.5 1.0626 11.7266 0.835938 12 0.835938C12.2734 0.835938 12.5 1.0626 12.5 1.33594V6.0026C12.5 6.27594 12.2734 6.5026 12 6.5026Z" fill="white"/>
<path d="M8 3.16927C7.72666 3.16927 7.5 2.9426 7.5 2.66927V1.33594C7.5 1.0626 7.72666 0.835938 8 0.835938C8.27336 0.835938 8.5 1.0626 8.5 1.33594V2.66927C8.5 2.9426 8.27336 3.16927 8 3.16927Z" fill="white"/>
</svg>
