<svg width="16" height="16" viewBox="0 0 16 16" fill="none" xmlns="http://www.w3.org/2000/svg">
<path d="M4.44732 9.33594H2.66732C1.93398 9.33594 1.33398 9.93594 1.33398 10.6692V14.0026C1.33398 14.3692 1.63398 14.6692 2.00066 14.6692H4.44732C4.81398 14.6692 5.11398 14.3692 5.11398 14.0026V10.0026C5.11398 9.63594 4.81398 9.33594 4.44732 9.33594Z" fill="white"/>
<path d="M8.8868 6.66406H7.1068C6.37344 6.66406 5.77344 7.26406 5.77344 7.9974V13.9974C5.77344 14.364 6.07344 14.664 6.4401 14.664H9.55344C9.92016 14.664 10.2202 14.364 10.2202 13.9974V7.9974C10.2202 7.26406 9.6268 6.66406 8.8868 6.66406Z" fill="white"/>
<path d="M13.3334 11.3359H11.5534C11.1867 11.3359 10.8867 11.6359 10.8867 12.0026V14.0026C10.8867 14.3692 11.1867 14.6692 11.5534 14.6692H14.0001C14.3667 14.6692 14.6667 14.3692 14.6667 14.0026V12.6692C14.6667 11.9359 14.0667 11.3359 13.3334 11.3359Z" fill="white"/>
<path d="M10.0063 3.23495C10.213 3.02828 10.293 2.78161 10.2263 2.56828C10.1596 2.35495 9.95298 2.20161 9.65962 2.15495L9.01962 2.04828C8.99298 2.04828 8.93298 2.00161 8.91962 1.97495L8.56626 1.26828C8.29962 0.72828 7.69295 0.72828 7.42628 1.26828L7.07295 1.97495C7.06628 2.00161 7.00628 2.04828 6.97961 2.04828L6.33963 2.15495C6.0463 2.20161 5.8463 2.35495 5.77297 2.56828C5.7063 2.78161 5.7863 3.02828 5.99297 3.23495L6.4863 3.73495C6.51297 3.75495 6.53297 3.83495 6.5263 3.86161L6.3863 4.47495C6.27963 4.93495 6.45297 5.14161 6.5663 5.22161C6.67961 5.30161 6.92628 5.40828 7.33295 5.16828L7.93295 4.81495C7.95961 4.79495 8.04626 4.79495 8.07298 4.81495L8.66626 5.16828C8.85298 5.28161 9.00626 5.31495 9.12626 5.31495C9.26626 5.31495 9.36626 5.26161 9.42626 5.22161C9.53962 5.14161 9.71298 4.93495 9.60626 4.47495L9.46626 3.86161C9.45962 3.82828 9.47962 3.75495 9.50626 3.73495L10.0063 3.23495Z" fill="white"/>
</svg>
