<svg width="16" height="16" viewBox="0 0 16 16" fill="none" xmlns="http://www.w3.org/2000/svg">
<path d="M10.5206 1.33594H5.48066C2.96066 1.33594 2.33398 2.00927 2.33398 4.69594V12.2026C2.33398 13.976 3.30732 14.396 4.48732 13.1292L4.49398 13.1226C5.04066 12.5426 5.87398 12.5892 6.34732 13.2226L7.02066 14.1226C7.56066 14.836 8.43399 14.836 8.97399 14.1226L9.64735 13.2226C10.1274 12.5826 10.9606 12.536 11.5074 13.1226C12.694 14.3892 13.6606 13.9692 13.6606 12.196V4.69594C13.6674 2.00927 13.0406 1.33594 10.5206 1.33594ZM10.0006 7.83594H6.00066C5.72732 7.83594 5.50066 7.60927 5.50066 7.33594C5.50066 7.0626 5.72732 6.83594 6.00066 6.83594H10.0006C10.274 6.83594 10.5006 7.0626 10.5006 7.33594C10.5006 7.60927 10.274 7.83594 10.0006 7.83594ZM10.6674 5.16927H5.33398C5.06066 5.16927 4.83398 4.9426 4.83398 4.66927C4.83398 4.39594 5.06066 4.16927 5.33398 4.16927H10.6674C10.9406 4.16927 11.1674 4.39594 11.1674 4.66927C11.1674 4.9426 10.9406 5.16927 10.6674 5.16927Z" fill="white"/>
</svg>
