<svg width="16" height="16" viewBox="0 0 16 16" fill="none" xmlns="http://www.w3.org/2000/svg">
<path fill-rule="evenodd" clip-rule="evenodd" d="M3.94443 1.84993C5.27367 1.68597 6.62731 1.60156 8.00039 1.60156C9.37343 1.60156 10.7271 1.68597 12.0564 1.84993C12.9558 1.96087 13.6004 2.73255 13.6004 3.61485V13.8016C13.6004 14.0078 13.4945 14.1996 13.3199 14.3094C13.1454 14.4192 12.9266 14.4317 12.7408 14.3424L10.5004 13.2671L8.25999 14.3424C8.09591 14.4212 7.90488 14.4212 7.74075 14.3424L5.50039 13.2671L3.26003 14.3424C3.07411 14.4317 2.85539 14.4192 2.68085 14.3094C2.5063 14.1996 2.40039 14.0078 2.40039 13.8016V3.61485C2.40039 2.73255 3.04502 1.96087 3.94443 1.84993ZM7.80177 5.04754C8.04807 4.82587 8.06807 4.44649 7.84637 4.20019C7.62469 3.95387 7.24532 3.93391 6.99901 4.15559L4.99901 5.95559C4.87258 6.06937 4.80039 6.23147 4.80039 6.40156C4.80039 6.57166 4.87258 6.73375 4.99901 6.84754L6.99901 8.64756C7.24532 8.86924 7.62469 8.84924 7.84637 8.60292C8.06807 8.3566 8.04807 7.97726 7.80177 7.75559L6.96397 7.00156H8.50039C9.32879 7.00156 10.0004 7.67314 10.0004 8.50156C10.0004 9.32996 9.32879 10.0016 8.50039 10.0016C8.16903 10.0016 7.90039 10.2702 7.90039 10.6016C7.90039 10.9329 8.16903 11.2016 8.50039 11.2016C9.99159 11.2016 11.2004 9.99276 11.2004 8.50156C11.2004 7.01039 9.99159 5.80156 8.50039 5.80156H6.96397L7.80177 5.04754Z" fill="#0F172A"/>
</svg>
