<svg width="16" height="16" viewBox="0 0 16 16" fill="none" xmlns="http://www.w3.org/2000/svg">
<path d="M12.006 2.33594C12.446 2.33594 12.866 2.51594 13.1727 2.81594C13.4927 3.1426 13.666 3.5626 13.666 4.0026V5.61594C13.666 6.10927 13.446 6.33594 12.946 6.33594H11.666V2.67594C11.666 2.48927 11.8194 2.33594 12.006 2.33594ZM12.006 1.33594C11.266 1.33594 10.666 1.93594 10.666 2.67594V7.33594H12.946C13.9994 7.33594 14.666 6.66927 14.666 5.61594V4.0026C14.666 3.26927 14.366 2.6026 13.886 2.11594C13.3994 1.63594 12.7394 1.3426 12.006 1.33594Z" fill="white"/>
<path d="M4.66732 1.33594H4.00066C2.00066 1.33594 1.33398 2.52927 1.33398 4.0026V4.66927V14.0026C1.33398 14.556 1.96066 14.8692 2.40066 14.536L3.54066 13.6826C3.80732 13.4826 4.18066 13.5092 4.42066 13.7492L5.52732 14.8626C5.78732 15.1226 6.21398 15.1226 6.47398 14.8626L7.59398 13.7426C7.82732 13.5092 8.20063 13.4826 8.46063 13.6826L9.60063 14.536C10.0406 14.8626 10.6674 14.5492 10.6674 14.0026V2.66927C10.6674 1.93594 11.2674 1.33594 12.0006 1.33594H4.66732ZM7.83398 7.16927H6.50066V8.5026C6.50066 8.77596 6.27398 9.0026 6.00066 9.0026C5.72732 9.0026 5.50066 8.77596 5.50066 8.5026V7.16927H4.16732C3.89398 7.16927 3.66732 6.9426 3.66732 6.66927C3.66732 6.39594 3.89398 6.16927 4.16732 6.16927H5.50066V4.83594C5.50066 4.5626 5.72732 4.33594 6.00066 4.33594C6.27398 4.33594 6.50066 4.5626 6.50066 4.83594V6.16927H7.83398C8.10735 6.16927 8.33399 6.39594 8.33399 6.66927C8.33399 6.9426 8.10735 7.16927 7.83398 7.16927Z" fill="white"/>
</svg>
