<svg width="16" height="16" viewBox="0 0 16 16" fill="none" xmlns="http://www.w3.org/2000/svg">
<path d="M10.794 1.33594H5.20732C2.78066 1.33594 1.33398 2.7826 1.33398 5.20927V10.7892C1.33398 13.2226 2.78066 14.6692 5.20732 14.6692H10.7874C13.214 14.6692 14.6606 13.2226 14.6606 10.796V5.20927C14.6674 2.7826 13.2206 1.33594 10.794 1.33594ZM5.64732 7.3226C5.84066 7.12927 6.16066 7.12927 6.35398 7.3226L7.50066 8.46924V4.3426C7.50066 4.06927 7.72732 3.8426 8.00063 3.8426C8.27399 3.8426 8.50063 4.06927 8.50063 4.3426V8.46924L9.64735 7.3226C9.84063 7.12927 10.1606 7.12927 10.354 7.3226C10.5474 7.51594 10.5474 7.83594 10.354 8.02924L8.35399 10.0292C8.30735 10.076 8.25399 10.1092 8.19399 10.136C8.13399 10.1626 8.06735 10.176 8.00063 10.176C7.93398 10.176 7.87398 10.1626 7.80732 10.136C7.74732 10.1092 7.69398 10.076 7.64732 10.0292L5.64732 8.02924C5.45398 7.83594 5.45398 7.5226 5.64732 7.3226ZM12.1606 11.4826C10.8206 11.9292 9.41399 12.156 8.00063 12.156C6.58732 12.156 5.18066 11.9292 3.84066 11.4826C3.58066 11.396 3.44066 11.1092 3.52732 10.8492C3.61398 10.5892 3.89398 10.4426 4.16066 10.536C6.64066 11.3626 9.36735 11.3626 11.8474 10.536C12.1074 10.4492 12.394 10.5892 12.4806 10.8492C12.5606 11.116 12.4206 11.396 12.1606 11.4826Z" fill="white"/>
</svg>
