<svg width="16" height="16" viewBox="0 0 16 16" fill="none" xmlns="http://www.w3.org/2000/svg">
<path fill-rule="evenodd" clip-rule="evenodd" d="M3.94443 1.84993C5.27367 1.68597 6.62731 1.60156 8.00039 1.60156C9.37343 1.60156 10.7271 1.68597 12.0564 1.84993C12.9558 1.96087 13.6004 2.73255 13.6004 3.61485V13.8016C13.6004 14.0078 13.4945 14.1996 13.3199 14.3094C13.1454 14.4192 12.9266 14.4317 12.7408 14.3424L10.5004 13.2671L8.25999 14.3424C8.09591 14.4212 7.90488 14.4212 7.74075 14.3424L5.50039 13.2671L3.26003 14.3424C3.07411 14.4317 2.85539 14.4192 2.68085 14.3094C2.5063 14.1996 2.40039 14.0078 2.40039 13.8016V3.61485C2.40039 2.73255 3.04502 1.96087 3.94443 1.84993ZM11.0246 5.82583C11.259 5.59151 11.259 5.21161 11.0246 4.9773C10.7903 4.74299 10.4105 4.74299 10.1762 4.9773L4.97613 10.1773C4.74181 10.4116 4.74181 10.7915 4.97613 11.0258C5.21044 11.2601 5.59034 11.2601 5.82465 11.0258L11.0246 5.82583ZM7.20039 6.40156C7.20039 6.84339 6.84221 7.20156 6.40039 7.20156C5.95857 7.20156 5.60039 6.84339 5.60039 6.40156C5.60039 5.95974 5.95857 5.60156 6.40039 5.60156C6.84221 5.60156 7.20039 5.95974 7.20039 6.40156ZM9.60039 10.4016C10.0422 10.4016 10.4004 10.0434 10.4004 9.60156C10.4004 9.15972 10.0422 8.80156 9.60039 8.80156C9.15855 8.80156 8.80039 9.15972 8.80039 9.60156C8.80039 10.0434 9.15855 10.4016 9.60039 10.4016Z" fill="#0F172A"/>
</svg>
