<svg width="16" height="16" viewBox="0 0 16 16" fill="none" xmlns="http://www.w3.org/2000/svg">
<path d="M10.5206 1.33594H5.48066C2.96066 1.33594 2.33398 2.00927 2.33398 4.69594V12.2026C2.33398 13.976 3.30732 14.396 4.48732 13.1292L4.49398 13.1226C5.04066 12.5426 5.87398 12.5892 6.34732 13.2226L7.02066 14.1226C7.56066 14.836 8.43399 14.836 8.97399 14.1226L9.64735 13.2226C10.1274 12.5826 10.9606 12.536 11.5074 13.1226C12.694 14.3892 13.6606 13.9692 13.6606 12.196V4.69594C13.6674 2.00927 13.0406 1.33594 10.5206 1.33594ZM10.4406 9.68924C10.3406 9.78924 10.214 9.83596 10.0874 9.83596C9.96063 9.83596 9.83399 9.78924 9.73399 9.68924L9.24063 9.19596C8.85399 9.44924 8.38735 9.6026 7.88732 9.6026C6.52732 9.6026 5.42066 8.49596 5.42066 7.13594C5.42066 5.77594 6.52066 4.66927 7.88732 4.66927C9.25399 4.66927 10.354 5.77594 10.354 7.13594C10.354 7.63594 10.2006 8.1026 9.94735 8.48924L10.4406 8.9826C10.634 9.17596 10.634 9.49596 10.4406 9.68924Z" fill="white"/>
</svg>
