<svg width="16" height="16" viewBox="0 0 16 16" fill="none" xmlns="http://www.w3.org/2000/svg">
<path d="M13 2.44927C13 2.4426 13 2.43594 12.9866 2.42927C12.84 2.2426 12.6466 2.1426 12.42 2.1426C12.0666 2.1426 11.64 2.37594 11.18 2.86927C10.6334 3.45594 9.79336 3.40927 9.31336 2.76927L8.64 1.87594C8.37336 1.51594 8.02 1.33594 7.66666 1.33594C7.31334 1.33594 6.96 1.51594 6.69334 1.87594L6.01334 2.77594C5.54 3.40927 4.70666 3.45594 4.16 2.87594L4.15334 2.86927C3.4 2.0626 2.72666 1.9426 2.34666 2.42927C2.33334 2.43594 2.33334 2.4426 2.33334 2.44927C2.09334 2.9626 2 3.6826 2 4.69594V11.3092C2 12.3226 2.09334 13.0426 2.33334 13.556C2.33334 13.5626 2.34 13.576 2.34666 13.5826C2.73334 14.0626 3.4 13.9426 4.15334 13.136L4.16 13.1292C4.70666 12.5492 5.54 12.596 6.01334 13.2292L6.69334 14.1292C6.96 14.4892 7.31334 14.6692 7.66666 14.6692C8.02 14.6692 8.37336 14.4892 8.64 14.1292L9.31336 13.236C9.79336 12.596 10.6334 12.5492 11.18 13.136C11.64 13.6292 12.0666 13.8626 12.42 13.8626C12.6466 13.8626 12.84 13.7692 12.9866 13.5826C12.9934 13.576 13 13.5626 13 13.556C13.24 13.0426 13.3334 12.3226 13.3334 11.3092V4.69594C13.3334 3.6826 13.24 2.9626 13 2.44927ZM9.33336 9.66924H5.33334C5.06 9.66924 4.83334 9.4426 4.83334 9.16924C4.83334 8.89596 5.06 8.66924 5.33334 8.66924H9.33336C9.60664 8.66924 9.83336 8.89596 9.83336 9.16924C9.83336 9.4426 9.60664 9.66924 9.33336 9.66924ZM10.6666 7.33594H5.33334C5.06 7.33594 4.83334 7.10927 4.83334 6.83594C4.83334 6.5626 5.06 6.33594 5.33334 6.33594H10.6666C10.94 6.33594 11.1666 6.5626 11.1666 6.83594C11.1666 7.10927 10.94 7.33594 10.6666 7.33594Z" fill="white"/>
</svg>
