<svg width="16" height="16" viewBox="0 0 16 16" fill="none" xmlns="http://www.w3.org/2000/svg">
<path d="M4.66732 1.33594H4.00065C2.00065 1.33594 1.33398 2.52927 1.33398 4.0026V4.66927V14.0026C1.33398 14.556 1.96065 14.8692 2.40065 14.536L3.54065 13.6826C3.80732 13.4826 4.18065 13.5092 4.42065 13.7492L5.52732 14.8626C5.78732 15.1226 6.21398 15.1226 6.47398 14.8626L7.594 13.7426C7.82733 13.5092 8.20065 13.4826 8.46065 13.6826L9.60065 14.536C10.0406 14.8626 10.6674 14.5492 10.6674 14.0026V2.66927C10.6674 1.93594 11.2674 1.33594 12.0006 1.33594H4.66732ZM7.834 7.16927H4.16732C3.89398 7.16927 3.66732 6.9426 3.66732 6.66927C3.66732 6.39594 3.89398 6.16927 4.16732 6.16927H7.834C8.10737 6.16927 8.33401 6.39594 8.33401 6.66927C8.33401 6.9426 8.10737 7.16927 7.834 7.16927Z" fill="white"/>
<path d="M12.008 2.33594C12.448 2.33594 12.868 2.51594 13.1746 2.81594C13.4946 3.1426 13.668 3.5626 13.668 4.0026V5.61594C13.668 6.10927 13.448 6.33594 12.948 6.33594H11.668V2.67594C11.668 2.48927 11.8213 2.33594 12.008 2.33594ZM12.008 1.33594C11.268 1.33594 10.668 1.93594 10.668 2.67594V7.33594H12.948C14.0013 7.33594 14.668 6.66927 14.668 5.61594V4.0026C14.668 3.26927 14.368 2.6026 13.888 2.11594C13.4013 1.63594 12.7413 1.3426 12.008 1.33594Z" fill="white"/>
</svg>
