<svg width="16" height="16" viewBox="0 0 16 16" fill="none" xmlns="http://www.w3.org/2000/svg">
<path d="M10.5206 1.33594H5.48066C2.96066 1.33594 2.33398 2.00927 2.33398 4.69594V12.2026C2.33398 13.976 3.30732 14.396 4.48732 13.1292L4.49398 13.1226C5.04066 12.5426 5.87398 12.5892 6.34732 13.2226L7.02066 14.1226C7.56066 14.836 8.43399 14.836 8.97399 14.1226L9.64735 13.2226C10.1274 12.5826 10.9606 12.536 11.5074 13.1226C12.694 14.3892 13.6606 13.9692 13.6606 12.196V4.69594C13.6674 2.00927 13.0406 1.33594 10.5206 1.33594ZM6.00066 4.66927C6.36732 4.66927 6.66732 4.96927 6.66732 5.33594C6.66732 5.7026 6.37398 6.0026 6.00066 6.0026C5.62732 6.0026 5.33398 5.7026 5.33398 5.33594C5.33398 4.96927 5.62732 4.66927 6.00066 4.66927ZM10.0006 9.33596C9.62735 9.33596 9.33399 9.03596 9.33399 8.66924C9.33399 8.3026 9.63399 8.0026 10.0006 8.0026C10.3674 8.0026 10.6674 8.3026 10.6674 8.66924C10.6674 9.03596 10.374 9.33596 10.0006 9.33596ZM10.6006 5.0626L6.11398 9.54924C6.01398 9.64924 5.88732 9.69596 5.76066 9.69596C5.63398 9.69596 5.50732 9.64924 5.40732 9.54924C5.21398 9.35596 5.21398 9.03596 5.40732 8.8426L9.89399 4.35594C10.0874 4.1626 10.4074 4.1626 10.6006 4.35594C10.794 4.54927 10.794 4.86927 10.6006 5.0626Z" fill="white"/>
</svg>
