<svg width="16" height="16" viewBox="0 0 16 16" fill="none" xmlns="http://www.w3.org/2000/svg">
<path d="M10.794 1.33594H5.20732C2.78066 1.33594 1.33398 2.7826 1.33398 5.20927V10.7892C1.33398 13.2226 2.78066 14.6692 5.20732 14.6692H10.7874C13.214 14.6692 14.6606 13.2226 14.6606 10.796V5.20927C14.6674 2.7826 13.2206 1.33594 10.794 1.33594ZM11.334 10.476C11.334 11.5226 10.7606 11.7692 10.0674 11.0226C9.74735 10.6826 9.25399 10.7092 8.97399 11.0826L8.58063 11.6092C8.26735 12.0292 7.74732 12.0292 7.43398 11.6092L7.03398 11.076C6.75398 10.7026 6.26066 10.676 5.94066 11.016C5.24066 11.7626 4.66732 11.516 4.66732 10.476V6.05594C4.66732 4.47594 5.04066 4.0826 6.52066 4.0826H9.48063C10.9606 4.0826 11.334 4.47594 11.334 6.05594V10.476Z" fill="white"/>
</svg>
