<svg width="16" height="16" viewBox="0 0 16 16" fill="none" xmlns="http://www.w3.org/2000/svg">
<path d="M3.14066 12.1276C3.20732 12.1543 3.26732 12.1676 3.33398 12.1676H10.1806C10.454 12.1676 10.6806 11.941 10.6806 11.6676C10.6806 11.3943 10.454 11.1676 10.1806 11.1676H4.54066L13.0206 2.6876C13.214 2.49428 13.214 2.17428 13.0206 1.98094C12.8274 1.7876 12.5074 1.7876 12.314 1.98094L3.83398 10.461V4.82094C3.83398 4.5476 3.60732 4.32094 3.33398 4.32094C3.06066 4.32094 2.83398 4.5476 2.83398 4.82094V11.6676C2.83398 11.7343 2.84732 11.7943 2.87398 11.861C2.92066 11.981 3.02066 12.081 3.14066 12.1276Z" fill="white"/>
<path d="M13.6674 14.1641H2.33398C2.06066 14.1641 1.83398 14.3908 1.83398 14.6641C1.83398 14.9374 2.06066 15.1641 2.33398 15.1641H13.6674C13.9406 15.1641 14.1674 14.9374 14.1674 14.6641C14.1674 14.3908 13.9406 14.1641 13.6674 14.1641Z" fill="white"/>
</svg>
