<svg width="16" height="16" viewBox="0 0 16 16" fill="none" xmlns="http://www.w3.org/2000/svg">
<path d="M13.0865 4.82823C13.2865 5.14157 13.1798 5.56157 12.8598 5.75489L12.4665 5.98823L3.72645 11.2282C3.40645 11.4216 2.98645 11.3149 2.79978 10.9882C2.13311 9.82824 1.83311 8.41488 2.09311 6.9349C2.53311 4.42157 4.59978 2.42157 7.12646 2.06157C9.62648 1.70823 11.8865 2.90823 13.0865 4.82823Z" fill="white"/>
<path d="M13.9274 8.95124C13.4741 11.7846 10.9674 13.9512 8.09414 13.998C6.82745 14.018 5.65408 13.6512 4.68075 12.9912C4.26742 12.718 4.28075 12.1046 4.70742 11.8512L12.9807 6.99125C13.4141 6.73792 13.9474 7.03125 13.9874 7.53125C14.0208 7.99792 14.0008 8.47124 13.9274 8.95124Z" fill="white"/>
</svg>
