<svg width="16" height="16" viewBox="0 0 16 16" fill="none" xmlns="http://www.w3.org/2000/svg">
<g clip-path="url(#clip0_13_15171)">
<path d="M9.99947 15.1655C9.81947 15.1655 9.65283 15.0655 9.56619 14.9122C9.47947 14.7522 9.47947 14.5655 9.57283 14.4055L10.2728 13.2388C10.4128 12.9988 10.7262 12.9255 10.9595 13.0655C11.1995 13.2055 11.2728 13.5122 11.1328 13.7522L10.9528 14.0522C12.7928 13.6188 14.1728 11.9655 14.1728 9.99219C14.1728 9.71883 14.3995 9.49219 14.6728 9.49219C14.9462 9.49219 15.1728 9.71883 15.1728 9.99219C15.1662 12.8455 12.8462 15.1655 9.99947 15.1655Z" fill="white"/>
<path d="M1.33398 6.5026C1.06066 6.5026 0.833984 6.27594 0.833984 6.0026C0.833984 3.15594 3.15398 0.835938 6.00066 0.835938C6.18066 0.835938 6.34732 0.935938 6.43398 1.08927C6.52066 1.24927 6.52066 1.43594 6.42732 1.59594L5.72732 2.7626C5.58732 2.99594 5.28066 3.07594 5.04066 2.92927C4.80732 2.78927 4.72732 2.4826 4.87398 2.2426L5.05398 1.9426C3.20732 2.37594 1.83398 4.02927 1.83398 6.0026C1.83398 6.27594 1.60732 6.5026 1.33398 6.5026Z" fill="white"/>
<path d="M9.86735 8.41948V10.3795C9.86735 12.0128 9.21399 12.6661 7.58066 12.6661H5.62066C3.98732 12.6661 3.33398 12.0128 3.33398 10.3795V8.41948C3.33398 6.78613 3.98732 6.13281 5.62066 6.13281H7.58066C9.21399 6.13281 9.86735 6.78613 9.86735 8.41948Z" fill="white"/>
<path d="M10.3806 3.33594H8.42063C6.81399 3.33594 6.16062 3.97594 6.14062 5.54927H7.58066C9.54062 5.54927 10.4473 6.4626 10.4473 8.41596V9.85596C12.0273 9.83596 12.6606 9.1826 12.6606 7.57594V5.6226C12.6673 3.98927 12.014 3.33594 10.3806 3.33594Z" fill="white"/>
</g>
<defs>
<clipPath id="clip0_13_15171">
<rect width="16" height="16" fill="white"/>
</clipPath>
</defs>
</svg>
