<svg width="16" height="16" viewBox="0 0 16 16" fill="none" xmlns="http://www.w3.org/2000/svg">
<path fill-rule="evenodd" clip-rule="evenodd" d="M2.00078 2.39844C1.33804 2.39844 0.800781 2.93569 0.800781 3.59844V6.79844C0.800781 7.46118 1.33804 7.99844 2.00078 7.99844H6.80078C7.46353 7.99844 8.00078 7.46118 8.00078 6.79844V3.59844C8.00078 2.93569 7.46353 2.39844 6.80078 2.39844H2.00078ZM10.8008 3.99844C10.1381 3.99844 9.60078 4.53569 9.60078 5.19844V10.7984C9.60078 11.4612 10.1381 11.9984 10.8008 11.9984H14.0008C14.6635 11.9984 15.2008 11.4612 15.2008 10.7984V5.19844C15.2008 4.53569 14.6635 3.99844 14.0008 3.99844H10.8008ZM2.80078 9.59844C2.13804 9.59844 1.60078 10.1357 1.60078 10.7984V12.3984C1.60078 13.0612 2.13804 13.5984 2.80078 13.5984H7.60078C8.2635 13.5984 8.80078 13.0612 8.80078 12.3984V10.7984C8.80078 10.1357 8.2635 9.59844 7.60078 9.59844H2.80078Z" fill="#0F172A"/>
</svg>
