<svg width="16" height="16" viewBox="0 0 16 16" fill="none" xmlns="http://www.w3.org/2000/svg">
<path d="M4.10156 2.80314C4.13415 2.80209 4.16686 2.80156 4.1997 2.80156H11.7997C11.8326 2.80156 11.8652 2.80209 11.8979 2.80314C11.6512 2.1032 10.984 1.60156 10.1997 1.60156H5.7997C5.01538 1.60156 4.34822 2.1032 4.10156 2.80314Z" fill="#0F172A"/>
<path d="M0.800781 8.19844C0.800781 7.20433 1.60667 6.39844 2.60078 6.39844H13.4008C14.3949 6.39844 15.2008 7.20433 15.2008 8.19844V12.5984C15.2008 13.5925 14.3949 14.3984 13.4008 14.3984H2.60078C1.60667 14.3984 0.800781 13.5925 0.800781 12.5984V8.19844Z" fill="#0F172A"/>
<path d="M2.60009 5.2C2.56725 5.2 2.53454 5.20053 2.50195 5.20158C2.74861 4.50164 3.41577 4 4.20009 4H11.8001C12.5844 4 13.2516 4.50164 13.4982 5.20158C13.4656 5.20053 13.433 5.2 13.4001 5.2H2.60009Z" fill="#0F172A"/>
</svg>
