<svg width="16" height="16" viewBox="0 0 16 16" fill="none" xmlns="http://www.w3.org/2000/svg">
<path d="M10.794 1.33594H5.20732C2.78066 1.33594 1.33398 2.7826 1.33398 5.20927V10.7892C1.33398 13.2226 2.78066 14.6692 5.20732 14.6692H10.7874C13.214 14.6692 14.6606 13.2226 14.6606 10.796V5.20927C14.6674 2.7826 13.2206 1.33594 10.794 1.33594ZM11.6874 6.81594L10.6406 7.8626C10.5406 7.9626 10.414 8.00924 10.2874 8.00924C10.1606 8.00924 10.034 7.9626 9.93399 7.8626C9.74063 7.66927 9.74063 7.34927 9.93399 7.15594L10.1074 6.9826H6.72066C5.86732 6.9826 5.16732 7.67594 5.16732 8.53596C5.16732 9.39596 5.86066 10.0892 6.72066 10.0892H10.0006C10.274 10.0892 10.5006 10.316 10.5006 10.5892C10.5006 10.8626 10.274 11.0892 10.0006 11.0892H6.72066C5.31398 11.0892 4.16732 9.9426 4.16732 8.53596C4.16732 7.12927 5.31398 5.9826 6.72066 5.9826H10.154L9.93399 5.76927C9.74063 5.57594 9.74063 5.25594 9.93399 5.0626C10.1274 4.86927 10.4474 4.86927 10.6406 5.0626L11.6874 6.10927C11.8806 6.30927 11.8806 6.6226 11.6874 6.81594Z" fill="white"/>
</svg>
