<svg width="16" height="16" viewBox="0 0 16 16" fill="none" xmlns="http://www.w3.org/2000/svg">
<path d="M10.794 1.33594H5.20732C2.78066 1.33594 1.33398 2.7826 1.33398 5.20927V10.7892C1.33398 13.2226 2.78066 14.6692 5.20732 14.6692H10.7874C13.214 14.6692 14.6606 13.2226 14.6606 10.796V5.20927C14.6674 2.7826 13.2206 1.33594 10.794 1.33594ZM3.50066 7.92927C3.52066 6.75594 3.98732 5.64927 4.81398 4.8226C5.66732 3.96927 6.80066 3.5026 8.00063 3.5026C9.20063 3.5026 10.334 3.96927 11.1806 4.8226C11.2006 4.8426 11.2206 4.86927 11.2406 4.89594V4.3226C11.2406 4.04927 11.4674 3.8226 11.7406 3.8226C12.014 3.8226 12.2406 4.04927 12.2406 4.3226V6.08927C12.2406 6.3626 12.014 6.58927 11.7406 6.58927H9.97399C9.70063 6.58927 9.47399 6.3626 9.47399 6.08927C9.47399 5.81594 9.70063 5.58927 9.97399 5.58927H10.5274C10.5074 5.56927 10.494 5.54927 10.474 5.52927C9.81399 4.86927 8.93399 4.5026 8.00063 4.5026C7.06732 4.5026 6.18732 4.86927 5.52732 5.52927C4.88066 6.17594 4.52066 7.03594 4.50732 7.94927C4.50066 8.21596 4.27398 8.43596 4.00066 8.43596H3.99398C3.72066 8.43596 3.50066 8.2026 3.50066 7.92927ZM11.1806 11.1826C10.334 12.0292 9.20063 12.5026 8.00063 12.5026C6.80066 12.5026 5.66732 12.036 4.82066 11.1826C4.80066 11.1626 4.78066 11.136 4.76066 11.1092V11.676C4.76066 11.9492 4.53398 12.176 4.26066 12.176C3.98732 12.176 3.76066 11.9492 3.76066 11.676V9.90924C3.76066 9.63596 3.98732 9.40924 4.26066 9.40924H6.02732C6.30066 9.40924 6.52732 9.63596 6.52732 9.90924C6.52732 10.1826 6.30066 10.4092 6.02732 10.4092H5.47398C5.49398 10.4292 5.50732 10.4492 5.52732 10.4692C6.18732 11.1292 7.06732 11.496 8.00063 11.496C8.93399 11.496 9.81399 11.1292 10.474 10.4692C11.1274 9.81596 11.494 8.9426 11.494 8.00924C11.494 7.73594 11.7206 7.50927 11.994 7.50927C12.2674 7.50927 12.494 7.73594 12.494 8.00924C12.494 9.21596 12.0274 10.3426 11.1806 11.1826Z" fill="white"/>
</svg>
