<svg width="16" height="16" viewBox="0 0 16 16" fill="none" xmlns="http://www.w3.org/2000/svg">
<path d="M10.794 1.33594H5.20732C2.78066 1.33594 1.33398 2.7826 1.33398 5.20927V10.7892C1.33398 13.2226 2.78066 14.6692 5.20732 14.6692H10.7874C13.214 14.6692 14.6606 13.2226 14.6606 10.796V5.20927C14.6674 2.7826 13.2206 1.33594 10.794 1.33594ZM8.00063 12.0092C5.88732 12.0092 4.16732 10.2892 4.16732 8.17596C4.16732 6.0626 5.88732 4.3426 8.00063 4.3426C8.09399 4.3426 8.19399 4.35594 8.28735 4.3626L8.10063 4.14927C7.92065 3.9426 7.94066 3.6226 8.14735 3.4426C8.35399 3.2626 8.67399 3.2826 8.85399 3.48927L9.96735 4.7626C9.97399 4.76927 9.97399 4.77594 9.98063 4.7826C9.98735 4.78927 9.99399 4.78927 9.99399 4.79594C10.0074 4.81594 10.014 4.8426 10.0274 4.86927C10.0406 4.9026 10.0606 4.92927 10.0674 4.9626C10.074 4.99594 10.074 5.0226 10.0806 5.05594C10.0806 5.08927 10.0874 5.11594 10.0874 5.14927C10.0874 5.1826 10.074 5.20927 10.0606 5.2426C10.0474 5.27594 10.0406 5.30927 10.0274 5.33594C10.014 5.3626 9.98735 5.38927 9.96735 5.41594C9.94735 5.43594 9.94063 5.4626 9.92063 5.47594C9.91399 5.4826 9.90735 5.4826 9.90063 5.48927C9.89399 5.49594 9.89399 5.5026 9.88735 5.5026L8.59399 6.44927C8.50735 6.51594 8.40063 6.5426 8.30063 6.5426C8.14735 6.5426 7.99398 6.46927 7.89398 6.33594C7.73398 6.11594 7.78066 5.8026 8.00063 5.63594L8.37399 5.3626C8.24735 5.35594 8.12735 5.3426 8.00063 5.3426C6.44066 5.3426 5.16732 6.61594 5.16732 8.17596C5.16732 9.73596 6.44066 11.0092 8.00063 11.0092C9.56063 11.0092 10.834 9.73596 10.834 8.17596C10.834 7.60927 10.6674 7.06927 10.3606 6.6026C10.2074 6.37594 10.2674 6.0626 10.5006 5.90927C10.7274 5.75594 11.0406 5.81594 11.194 6.04927C11.614 6.6826 11.8406 7.41594 11.8406 8.17596C11.834 10.296 10.114 12.0092 8.00063 12.0092Z" fill="white"/>
</svg>
