<svg width="16" height="16" viewBox="0 0 16 16" fill="none" xmlns="http://www.w3.org/2000/svg">
<path d="M8.00063 1.33594C4.32066 1.33594 1.33398 4.3226 1.33398 8.0026C1.33398 11.6826 4.32066 14.6692 8.00063 14.6692C11.6806 14.6692 14.6674 11.6826 14.6674 8.0026C14.6674 4.3226 11.6806 1.33594 8.00063 1.33594ZM4.40066 7.48927C4.51398 6.69594 4.86732 5.9826 5.42066 5.4226C6.75398 4.09594 8.85399 4.0226 10.2806 5.1826V4.54927C10.2806 4.27594 10.5074 4.04927 10.7806 4.04927C11.054 4.04927 11.2806 4.27594 11.2806 4.54927V6.32927C11.2806 6.6026 11.054 6.82927 10.7806 6.82927H9.00063C8.72735 6.82927 8.50063 6.6026 8.50063 6.32927C8.50063 6.05594 8.72735 5.82927 9.00063 5.82927H9.50063C8.46735 5.10927 7.04066 5.20927 6.12066 6.12927C5.72066 6.52927 5.46732 7.04927 5.38066 7.62927C5.34732 7.87594 5.13398 8.05596 4.88732 8.05596C4.86066 8.05596 4.84066 8.05596 4.81398 8.04924C4.55398 8.01596 4.36066 7.7626 4.40066 7.48927ZM10.5806 10.5826C9.86735 11.296 8.93399 11.6492 8.00063 11.6492C7.18732 11.6492 6.38066 11.3626 5.71398 10.8226V11.4492C5.71398 11.7226 5.48732 11.9492 5.21398 11.9492C4.94066 11.9492 4.71398 11.7226 4.71398 11.4492V9.66924C4.71398 9.39596 4.94066 9.16924 5.21398 9.16924H6.99398C7.26732 9.16924 7.49398 9.39596 7.49398 9.66924C7.49398 9.9426 7.26732 10.1692 6.99398 10.1692H6.49398C7.52732 10.8892 8.95399 10.7892 9.87399 9.86924C10.274 9.46924 10.5274 8.94924 10.614 8.36924C10.654 8.09596 10.9006 7.9026 11.1806 7.9426C11.454 7.9826 11.6406 8.23596 11.6074 8.50924C11.4874 9.31596 11.134 10.0292 10.5806 10.5826Z" fill="white"/>
</svg>
