<svg width="16" height="16" viewBox="0 0 16 16" fill="none" xmlns="http://www.w3.org/2000/svg">
<path d="M10.794 1.33594H5.20732C2.78066 1.33594 1.33398 2.7826 1.33398 5.20927V10.7892C1.33398 13.2226 2.78066 14.6692 5.20732 14.6692H10.7874C13.214 14.6692 14.6606 13.2226 14.6606 10.796V5.20927C14.6674 2.7826 13.2206 1.33594 10.794 1.33594ZM8.00063 12.1692C6.80732 12.1692 5.87398 11.576 5.24066 10.9892V11.4626C5.24066 11.736 5.01398 11.9626 4.74066 11.9626C4.46732 11.9626 4.24066 11.736 4.24066 11.4626V9.62924C4.24066 9.35596 4.46732 9.12924 4.74066 9.12924H6.39398C6.66732 9.12924 6.89398 9.35596 6.89398 9.62924C6.89398 9.9026 6.66732 10.1292 6.39398 10.1292H5.79398C6.28732 10.6226 7.05398 11.1692 8.00063 11.1692C9.74735 11.1692 11.1674 9.74924 11.1674 8.0026C11.1674 7.72927 11.394 7.5026 11.6674 7.5026C11.9406 7.5026 12.1674 7.72927 12.1674 8.0026C12.1674 10.3026 10.3006 12.1692 8.00063 12.1692ZM12.1674 6.3626C12.1674 6.3826 12.1674 6.4026 12.1674 6.41594C12.1606 6.48927 12.1406 6.55594 12.1074 6.61594C12.074 6.67594 12.0274 6.72927 11.9674 6.77594C11.9206 6.80927 11.8674 6.83594 11.8074 6.85594C11.7606 6.86927 11.714 6.87594 11.6674 6.87594H10.0474C9.77399 6.87594 9.54735 6.64927 9.54735 6.37594C9.54735 6.1026 9.77399 5.87594 10.0474 5.87594H10.6006C10.0674 5.3826 9.20735 4.83594 8.01399 4.83594C6.26732 4.83594 4.84732 6.25594 4.84732 8.0026C4.84732 8.27596 4.62066 8.5026 4.34732 8.5026C4.07398 8.5026 3.83398 8.27596 3.83398 8.0026C3.83398 5.7026 5.70066 3.83594 8.00063 3.83594C9.43399 3.83594 10.4874 4.45594 11.1674 5.04927V4.5426C11.1674 4.26927 11.394 4.0426 11.6674 4.0426C11.9406 4.0426 12.1674 4.26927 12.1674 4.5426V6.3626Z" fill="white"/>
</svg>
