<svg width="16" height="16" viewBox="0 0 16 16" fill="none" xmlns="http://www.w3.org/2000/svg">
<path d="M10.794 1.33594H5.20732C2.78066 1.33594 1.33398 2.7826 1.33398 5.20927V10.7892C1.33398 13.2226 2.78066 14.6692 5.20732 14.6692H10.7874C13.214 14.6692 14.6606 13.2226 14.6606 10.796V5.20927C14.6674 2.7826 13.2206 1.33594 10.794 1.33594ZM8.00063 12.0092C5.88732 12.0092 4.16732 10.2892 4.16732 8.17596C4.16732 7.41594 4.38732 6.67594 4.81398 6.04927C4.96732 5.81594 5.28066 5.75594 5.50732 5.90927C5.73398 6.0626 5.80066 6.37594 5.64066 6.6026C5.33398 7.06927 5.16732 7.61594 5.16732 8.17596C5.16732 9.73596 6.44066 11.0092 8.00063 11.0092C9.56063 11.0092 10.834 9.73596 10.834 8.17596C10.834 6.61594 9.56063 5.3426 8.00063 5.3426C7.87398 5.3426 7.75398 5.35594 7.62732 5.36927L8.00063 5.6426C8.22063 5.8026 8.27399 6.11594 8.10735 6.3426C8.00735 6.47594 7.85398 6.54927 7.70066 6.54927C7.60066 6.54927 7.49398 6.51594 7.40732 6.45594L6.11398 5.5026C6.11398 5.5026 6.10732 5.49594 6.10066 5.48927C6.09398 5.4826 6.08732 5.4826 6.08066 5.47594C6.06066 5.4626 6.05398 5.43594 6.03398 5.41594C6.01398 5.38927 5.99398 5.36927 5.97398 5.33594C5.96066 5.30927 5.95398 5.27594 5.94066 5.24927C5.93398 5.21594 5.92066 5.18927 5.92066 5.15594C5.92066 5.1226 5.92066 5.09594 5.92732 5.0626C5.92732 5.02927 5.92732 5.0026 5.94066 4.96927C5.94066 4.93594 5.96066 4.90927 5.97398 4.87594C5.98732 4.85594 5.98732 4.82927 6.00732 4.8026C6.01398 4.8026 6.02066 4.79594 6.02732 4.78927C6.03398 4.7826 6.03398 4.77594 6.04066 4.76927L7.15398 3.49594C7.33398 3.28927 7.65398 3.2626 7.86066 3.44927C8.06735 3.62927 8.08735 3.94927 7.90732 4.15594L7.72066 4.36927C7.81398 4.3626 7.90732 4.34927 8.00735 4.34927C10.1206 4.34927 11.8406 6.06927 11.8406 8.1826C11.8406 10.296 10.114 12.0092 8.00063 12.0092Z" fill="white"/>
</svg>
