<svg width="16" height="16" viewBox="0 0 16 16" fill="none" xmlns="http://www.w3.org/2000/svg">
<g clip-path="url(#clip0_13_15184)">
<path d="M9.70063 14.9492C9.48063 14.9492 9.27399 14.8026 9.21399 14.576C9.14735 14.3092 9.30063 14.036 9.56735 13.9626C12.274 13.2492 14.1606 10.796 14.1606 7.99594C14.1606 4.59594 11.394 1.82927 7.99398 1.82927C5.10732 1.82927 3.21398 3.51594 2.32732 4.53594H4.28732C4.56066 4.53594 4.78732 4.7626 4.78732 5.03594C4.78732 5.30927 4.57398 5.5426 4.29398 5.5426H1.34066C1.29398 5.5426 1.24732 5.53594 1.20066 5.5226C1.14066 5.5026 1.08732 5.47594 1.04066 5.4426C0.980656 5.4026 0.933984 5.34927 0.900656 5.28927C0.86732 5.2226 0.840656 5.15594 0.833984 5.0826C0.833984 5.0626 0.833984 5.04927 0.833984 5.02927V2.0026C0.833984 1.72927 1.06066 1.5026 1.33398 1.5026C1.60732 1.5026 1.83398 1.72927 1.83398 2.0026V3.59594C2.92066 2.42927 4.96732 0.835938 8.00063 0.835938C11.954 0.835938 15.1674 4.04927 15.1674 8.0026C15.1674 11.256 12.974 14.1092 9.82735 14.936C9.78735 14.9426 9.74063 14.9492 9.70063 14.9492Z" fill="white"/>
<path d="M7.52732 15.1534C7.51398 15.1534 7.49398 15.1534 7.48066 15.1466C6.76732 15.1 6.06732 14.94 5.40066 14.68C5.20732 14.6066 5.08066 14.4134 5.08066 14.2066C5.08066 14.1466 5.09398 14.0866 5.11398 14.0334C5.21398 13.78 5.50732 13.6466 5.76066 13.7466C6.33398 13.9734 6.94066 14.1066 7.55398 14.1534H7.56066C7.82732 14.1666 8.02735 14.3934 8.02735 14.66C8.02735 14.6666 8.02735 14.68 8.02735 14.6866C8.00735 14.9466 7.78732 15.1534 7.52732 15.1534ZM3.85398 13.72C3.74066 13.72 3.63398 13.6866 3.54066 13.6134C2.98066 13.1666 2.49398 12.64 2.08732 12.0466C2.02732 11.96 1.99398 11.8666 1.99398 11.7666C1.99398 11.6 2.07398 11.4466 2.21398 11.3534C2.43398 11.2 2.76066 11.26 2.90732 11.48C3.26066 11.9934 3.68066 12.4466 4.16732 12.8266C4.28066 12.92 4.35398 13.06 4.35398 13.2134C4.35398 13.3266 4.32066 13.44 4.24732 13.5334C4.15398 13.6534 4.00732 13.72 3.85398 13.72ZM1.62732 10.4666C1.40732 10.4666 1.21398 10.3266 1.15398 10.12C0.940656 9.43336 0.833984 8.72 0.833984 8C0.833984 7.72666 1.06066 7.5 1.33398 7.5C1.60732 7.5 1.83398 7.72666 1.83398 8C1.83398 8.62 1.92732 9.23336 2.10732 9.82C2.12066 9.86664 2.12732 9.92 2.12732 9.97336C2.12732 10.1934 1.98732 10.38 1.78066 10.4466C1.72732 10.46 1.68066 10.4666 1.62732 10.4666Z" fill="white"/>
<path d="M8.00063 10.6692C9.47335 10.6692 10.6674 9.47532 10.6674 8.0026C10.6674 6.52984 9.47335 5.33594 8.00063 5.33594C6.5279 5.33594 5.33398 6.52984 5.33398 8.0026C5.33398 9.47532 6.5279 10.6692 8.00063 10.6692Z" fill="white"/>
</g>
<defs>
<clipPath id="clip0_13_15184">
<rect width="16" height="16" fill="white"/>
</clipPath>
</defs>
</svg>
