<svg width="16" height="16" viewBox="0 0 16 16" fill="none" xmlns="http://www.w3.org/2000/svg">
<path d="M11.6134 2.94094H3.59338L4.84672 1.6876C5.04005 1.49427 5.04005 1.17427 4.84672 0.980938C4.65338 0.787604 4.33338 0.787604 4.14005 0.980938L2.03338 3.0876C1.98672 3.13427 1.95338 3.1876 1.92672 3.2476C1.90005 3.3076 1.88672 3.37427 1.88672 3.44094C1.88672 3.5076 1.90005 3.57427 1.92672 3.63427C1.95338 3.69427 1.98672 3.7476 2.03338 3.79427L4.14005 5.90094C4.24005 6.00094 4.36672 6.0476 4.49338 6.0476C4.62005 6.0476 4.74672 6.00094 4.84672 5.90094C5.04005 5.7076 5.04005 5.3876 4.84672 5.19427L3.59338 3.94094H11.6134C12.4401 3.94094 13.1134 4.61427 13.1134 5.44094V7.65431C13.1134 7.92763 13.3401 8.15428 13.6134 8.15428C13.8867 8.15428 14.1134 7.92763 14.1134 7.65431V5.44094C14.1134 4.06094 12.9934 2.94094 11.6134 2.94094Z" fill="white"/>
<path d="M14.1134 12.561C14.1134 12.4943 14.1001 12.4277 14.0734 12.3677C14.0467 12.3077 14.0134 12.2543 13.9667 12.2077L11.8601 10.101C11.6667 9.90766 11.3467 9.90766 11.1534 10.101C10.9601 10.2943 10.9601 10.6143 11.1534 10.8077L12.4067 12.061H4.38672C3.56005 12.061 2.88672 11.3877 2.88672 10.561V8.34766C2.88672 8.0743 2.66005 7.84766 2.38672 7.84766C2.11338 7.84766 1.88672 8.0743 1.88672 8.34766V10.561C1.88672 11.941 3.00672 13.061 4.38672 13.061H12.4067L11.1534 14.3143C10.9601 14.5077 10.9601 14.8277 11.1534 15.021C11.2534 15.121 11.3801 15.1677 11.5067 15.1677C11.6334 15.1677 11.7601 15.121 11.8601 15.021L13.9667 12.9143C14.0134 12.8677 14.0467 12.8143 14.0734 12.7543C14.1001 12.6943 14.1134 12.6277 14.1134 12.561Z" fill="white"/>
</svg>
