<svg width="16" height="16" viewBox="0 0 16 16" fill="none" xmlns="http://www.w3.org/2000/svg">
<path d="M8.00063 1.33594C4.32066 1.33594 1.33398 4.3226 1.33398 8.0026C1.33398 11.6826 4.32066 14.6692 8.00063 14.6692C11.6806 14.6692 14.6674 11.6826 14.6674 8.0026C14.6674 4.3226 11.6806 1.33594 8.00063 1.33594ZM11.4606 10.6292C11.434 10.6892 11.4006 10.7426 11.354 10.7892L10.2274 11.916C10.1274 12.016 10.0006 12.0626 9.87399 12.0626C9.74735 12.0626 9.62063 12.016 9.52063 11.916C9.32735 11.7226 9.32735 11.4026 9.52063 11.2092L9.79399 10.936H6.06732C5.20066 10.936 4.50066 10.2292 4.50066 9.36924V8.18924C4.50066 7.91594 4.72732 7.68927 5.00066 7.68927C5.27398 7.68927 5.50066 7.91594 5.50066 8.18924V9.36924C5.50066 9.6826 5.75398 9.93596 6.06732 9.93596H9.79399L9.52063 9.6626C9.32735 9.46924 9.32735 9.14924 9.52063 8.95596C9.71399 8.7626 10.034 8.7626 10.2274 8.95596L11.354 10.0826C11.4006 10.1292 11.434 10.1826 11.4606 10.2426C11.514 10.3692 11.514 10.5092 11.4606 10.6292ZM11.5006 7.81594C11.5006 8.08924 11.274 8.31596 11.0006 8.31596C10.7274 8.31596 10.5006 8.08924 10.5006 7.81594V6.63594C10.5006 6.3226 10.2474 6.06927 9.93399 6.06927H6.20732L6.48066 6.33594C6.67398 6.52927 6.67398 6.84927 6.48066 7.0426C6.38066 7.1426 6.25398 7.18927 6.12732 7.18927C6.00066 7.18927 5.87398 7.1426 5.77398 7.0426L4.64732 5.91594C4.60066 5.86927 4.56732 5.81594 4.54066 5.75594C4.48732 5.63594 4.48732 5.49594 4.54066 5.37594C4.56732 5.31594 4.60066 5.25594 4.64732 5.20927L5.77398 4.0826C5.96732 3.88927 6.28732 3.88927 6.48066 4.0826C6.67398 4.27594 6.67398 4.59594 6.48066 4.78927L6.20732 5.0626H9.93399C10.8006 5.0626 11.5006 5.76927 11.5006 6.62927V7.81594Z" fill="white"/>
</svg>
