<svg width="16" height="16" viewBox="0 0 16 16" fill="none" xmlns="http://www.w3.org/2000/svg">
<path d="M2.60732 11.4542C2.48066 11.4542 2.35398 11.4076 2.25398 11.3076C1.34066 10.3876 0.833984 9.17424 0.833984 7.88757C0.833984 5.21426 3.00066 3.04093 5.66732 3.04093L9.71399 3.05426L8.98735 2.36093C8.78735 2.16759 8.78063 1.85426 8.97399 1.65426C9.16735 1.45426 9.48063 1.44759 9.68063 1.64093L11.3074 3.20093C11.454 3.34093 11.5006 3.56093 11.4274 3.74759C11.354 3.93426 11.1674 4.06093 10.9606 4.06093L5.66732 4.04759C3.55398 4.04759 1.83398 5.77426 1.83398 7.89423C1.83398 8.91424 2.23398 9.88088 2.96066 10.6076C3.15398 10.8009 3.15398 11.1209 2.96066 11.3142C2.86066 11.4076 2.73398 11.4542 2.60732 11.4542Z" fill="white"/>
<path d="M6.6666 14.4974C6.53994 14.4974 6.41994 14.4508 6.31994 14.3574L4.69326 12.7974C4.5466 12.6574 4.49994 12.4374 4.57326 12.2508C4.65326 12.064 4.83994 11.964 5.03994 11.9374L10.3399 11.9508C12.4533 11.9508 14.1733 10.224 14.1733 8.10404C14.1733 7.08406 13.7733 6.1174 13.0466 5.39073C12.8533 5.1974 12.8533 4.8774 13.0466 4.68406C13.2399 4.49073 13.5599 4.49073 13.7533 4.68406C14.6666 5.60406 15.1733 6.8174 15.1733 8.10404C15.1733 10.7774 13.0066 12.9508 10.3399 12.9508L6.29326 12.9374L7.01994 13.6308C7.21994 13.824 7.2266 14.1374 7.03326 14.3374C6.9266 14.444 6.79994 14.4974 6.6666 14.4974Z" fill="white"/>
<path d="M8.16696 10.2768C7.89366 10.2768 7.667 10.0501 7.667 9.77683V7.5168L7.54033 7.6568C7.35366 7.86346 7.04033 7.87679 6.83366 7.69679C6.62699 7.51679 6.61366 7.1968 6.79366 6.99013L7.79366 5.87679C7.93366 5.72346 8.15368 5.67012 8.34696 5.74346C8.54032 5.82346 8.66696 6.00346 8.66696 6.21679V9.78348C8.66696 10.0568 8.44032 10.2768 8.16696 10.2768Z" fill="white"/>
</svg>
