<svg width="16" height="16" viewBox="0 0 16 16" fill="none" xmlns="http://www.w3.org/2000/svg">
<path d="M14.6458 12.0026V12.6692C14.6458 13.7692 14.6458 14.6692 12.6458 14.6692H3.3125C1.3125 14.6692 1.3125 13.7692 1.3125 12.6692V12.0026C1.3125 11.6359 1.6125 11.3359 1.97916 11.3359H13.9791C14.3458 11.3359 14.6458 11.6359 14.6458 12.0026Z" fill="white"/>
<path d="M9.60632 3.45318C9.63968 3.31985 9.65968 3.19318 9.66632 3.05318C9.68632 2.27985 9.21304 1.59985 8.46632 1.39985C7.34634 1.09318 6.33302 1.93318 6.33302 2.99985C6.33302 3.15985 6.35302 3.30651 6.39302 3.45318C3.98635 3.96651 2.17969 6.10651 2.17969 8.66652V9.66652C2.17969 10.0332 2.47969 10.3332 2.84635 10.3332H13.1463C13.513 10.3332 13.813 10.0332 13.813 9.66652V8.66652C13.813 6.10651 12.013 3.97318 9.60632 3.45318ZM9.99968 7.8332H5.99969C5.72635 7.8332 5.49969 7.60653 5.49969 7.3332C5.49969 7.05987 5.72635 6.8332 5.99969 6.8332H9.99968C10.273 6.8332 10.4997 7.05987 10.4997 7.3332C10.4997 7.60653 10.273 7.8332 9.99968 7.8332Z" fill="white"/>
</svg>
