<svg width="16" height="16" viewBox="0 0 16 16" fill="none" xmlns="http://www.w3.org/2000/svg">
<g clip-path="url(#clip0_13_15214)">
<path fill-rule="evenodd" clip-rule="evenodd" d="M3.68439 10.3734C3.88718 10.6355 3.83911 11.0124 3.57704 11.2152C3.10301 11.582 2.79961 12.1545 2.79961 12.7982C2.79961 12.9237 2.81111 13.0462 2.83303 13.1647C2.95158 13.1866 3.07407 13.1982 3.19961 13.1982C3.84327 13.1982 4.41579 12.8948 4.78259 12.4207C4.98539 12.1586 5.36223 12.1106 5.62431 12.3134C5.88638 12.5162 5.93444 12.893 5.73165 13.1551C5.14737 13.9102 4.23033 14.3982 3.19961 14.3982C2.83163 14.3982 2.47695 14.3358 2.14633 14.2206C1.97339 14.1603 1.83743 14.0244 1.77717 13.8514C1.66196 13.5208 1.59961 13.1662 1.59961 12.7982C1.59961 11.7674 2.08759 10.8504 2.84267 10.2662C3.10475 10.0634 3.48159 10.1114 3.68439 10.3734Z" fill="#0F172A"/>
<path fill-rule="evenodd" clip-rule="evenodd" d="M4.60267 9.60078C5.12649 10.2709 5.73068 10.8751 6.40078 11.3989V14.6008C6.40078 14.9321 6.66941 15.2008 7.00078 15.2008C9.2099 15.2008 11.0008 13.4099 11.0008 11.2008C11.0008 10.8085 10.9441 10.4288 10.8385 10.0697C13.4781 8.18454 15.2008 5.09399 15.2008 1.60078C15.2008 1.53065 15.2001 1.46067 15.1987 1.39085C15.1923 1.0688 14.9328 0.809245 14.6107 0.802861C14.5409 0.801477 14.4709 0.800781 14.4008 0.800781C10.9076 0.800781 7.81704 2.52343 5.93188 5.16311C5.57275 5.05741 5.19301 5.00078 4.80078 5.00078C2.59165 5.00078 0.800781 6.79165 0.800781 9.00078C0.800781 9.33214 1.06941 9.60078 1.40078 9.60078H4.60267ZM10.4008 7.20078C11.2845 7.20078 12.0008 6.48444 12.0008 5.60078C12.0008 4.71713 11.2845 4.00078 10.4008 4.00078C9.5171 4.00078 8.80078 4.71713 8.80078 5.60078C8.80078 6.48444 9.5171 7.20078 10.4008 7.20078Z" fill="#0F172A"/>
</g>
<defs>
<clipPath id="clip0_13_15214">
<rect width="16" height="16" fill="white"/>
</clipPath>
</defs>
</svg>
