<svg width="16" height="16" viewBox="0 0 16 16" fill="none" xmlns="http://www.w3.org/2000/svg">
<path d="M11.166 14.664H8.16601C5.66602 14.664 4.66602 13.664 4.66602 11.164V8.16404C4.66602 5.66406 5.66602 4.66406 8.16601 4.66406H11.166C13.666 4.66406 14.666 5.66406 14.666 8.16404V11.164C14.666 13.664 13.666 14.664 11.166 14.664Z" fill="white"/>
<path d="M1.83398 7.0026C2.10732 7.0026 2.33398 6.77594 2.33398 6.5026C2.33398 4.52927 3.70732 2.87594 5.55398 2.4426L5.37398 2.7426C5.23398 2.9826 5.30732 3.28927 5.54732 3.42927C5.78732 3.56927 6.09398 3.49594 6.23398 3.25594L6.93398 2.08927C7.02732 1.93594 7.02732 1.7426 6.94066 1.58927C6.84732 1.43594 6.68066 1.33594 6.50066 1.33594C3.65398 1.33594 1.33398 3.65594 1.33398 6.5026C1.33398 6.77594 1.56066 7.0026 1.83398 7.0026Z" fill="white"/>
</svg>
