<svg width="16" height="16" viewBox="0 0 16 16" fill="none" xmlns="http://www.w3.org/2000/svg">
<g clip-path="url(#clip0_13_15217)">
<path d="M9.99947 15.1655C9.81947 15.1655 9.65283 15.0655 9.56619 14.9122C9.47947 14.7522 9.47947 14.5655 9.57283 14.4055L10.2728 13.2388C10.4128 13.0055 10.7195 12.9255 10.9595 13.0655C11.1995 13.2055 11.2728 13.5122 11.1328 13.7522L10.9528 14.0522C12.7928 13.6188 14.1728 11.9655 14.1728 9.99219C14.1728 9.71883 14.3995 9.49219 14.6728 9.49219C14.9462 9.49219 15.1728 9.71883 15.1728 9.99219C15.1662 12.8455 12.8462 15.1655 9.99947 15.1655Z" fill="white"/>
<path d="M1.33398 6.5026C1.06066 6.5026 0.833984 6.27594 0.833984 6.0026C0.833984 3.15594 3.15398 0.835938 6.00066 0.835938C6.18066 0.835938 6.34732 0.935938 6.43398 1.08927C6.52066 1.24927 6.52066 1.43594 6.42732 1.59594L5.72732 2.7626C5.58732 2.99594 5.28066 3.07594 5.04066 2.92927C4.80732 2.78927 4.72732 2.4826 4.87398 2.2426L5.05398 1.9426C3.20732 2.37594 1.83398 4.02927 1.83398 6.0026C1.83398 6.27594 1.60732 6.5026 1.33398 6.5026Z" fill="white"/>
<path d="M10.9334 5.47396L8.4268 4.12062C8.16016 3.98062 7.8468 3.98062 7.58013 4.12062L5.06677 5.47396C4.88677 5.57396 4.77344 5.76729 4.77344 5.98062C4.77344 6.20062 4.88677 6.39396 5.06677 6.49396L7.57346 7.84726C7.7068 7.9206 7.85346 7.95393 8.00016 7.95393C8.1468 7.95393 8.29344 7.9206 8.4268 7.84726L10.9334 6.49396C11.1134 6.39396 11.2268 6.20062 11.2268 5.98062C11.2268 5.76729 11.1134 5.57396 10.9334 5.47396Z" fill="white"/>
<path d="M7.16 8.31228L4.82666 7.14565C4.64666 7.05897 4.44 7.06565 4.26666 7.17231C4.1 7.27897 4 7.45897 4 7.65897V9.86564C4 10.2456 4.21334 10.5923 4.55334 10.759L6.88666 11.9256C6.96666 11.9656 7.05334 11.9856 7.14666 11.9856C7.25334 11.9856 7.35334 11.959 7.44666 11.899C7.62 11.7923 7.72 11.6123 7.72 11.4123V9.20564C7.71334 8.82564 7.50666 8.48564 7.16 8.31228Z" fill="white"/>
<path d="M11.7259 7.17231C11.5527 7.06565 11.3459 7.05897 11.1659 7.14565L8.83266 8.31228C8.49266 8.48564 8.2793 8.82564 8.2793 9.20564V11.4123C8.2793 11.6123 8.3793 11.7923 8.55266 11.899C8.64594 11.959 8.74594 11.9856 8.85266 11.9856C8.9393 11.9856 9.02594 11.9656 9.11266 11.9256L11.4459 10.759C11.7859 10.5856 11.9993 10.2456 11.9993 9.86564V7.65897C11.9993 7.45897 11.8993 7.27897 11.7259 7.17231Z" fill="white"/>
</g>
<defs>
<clipPath id="clip0_13_15217">
<rect width="16" height="16" fill="white"/>
</clipPath>
</defs>
</svg>
