<svg width="16" height="16" viewBox="0 0 16 16" fill="none" xmlns="http://www.w3.org/2000/svg">
<path d="M10.794 1.33594H5.20732C2.78066 1.33594 1.33398 2.7826 1.33398 5.20927V10.7892C1.33398 13.2226 2.78066 14.6692 5.20732 14.6692H10.7874C13.214 14.6692 14.6606 13.2226 14.6606 10.796V5.20927C14.6674 2.7826 13.2206 1.33594 10.794 1.33594ZM8.00063 12.3892C5.88732 12.3892 4.16732 10.6692 4.16732 8.55596C4.16732 7.79594 4.38732 7.05594 4.81398 6.42927C4.96732 6.2026 5.28066 6.13594 5.50732 6.28927C5.73398 6.4426 5.80066 6.75594 5.64732 6.9826C5.33398 7.44927 5.17398 7.99594 5.17398 8.55596C5.17398 10.116 6.44732 11.3892 8.00735 11.3892C9.56735 11.3892 10.8406 10.116 10.8406 8.55596C10.8406 7.0626 9.68063 5.83594 8.21399 5.72927L8.48735 5.92927C8.70735 6.08927 8.76063 6.4026 8.59399 6.62927C8.43399 6.84927 8.12063 6.9026 7.89398 6.73594L6.60066 5.79594C6.55398 5.7626 6.51398 5.7226 6.48066 5.67594C6.47398 5.66927 6.46732 5.6626 6.46066 5.64927C6.43398 5.6026 6.41398 5.54927 6.40066 5.49594C6.38732 5.42927 6.38732 5.36927 6.39398 5.3026C6.40066 5.27594 6.40732 5.24927 6.41398 5.2226C6.42732 5.17594 6.45398 5.13594 6.48066 5.08927C6.49398 5.0826 6.50732 5.06927 6.52066 5.05594L7.62732 3.78927C7.80732 3.5826 8.12735 3.5626 8.33399 3.7426C8.54063 3.9226 8.56063 4.2426 8.38063 4.44927L8.13399 4.73594C10.1874 4.8026 11.8406 6.49594 11.8406 8.56924C11.834 10.6692 10.114 12.3892 8.00063 12.3892Z" fill="white"/>
</svg>
