<svg width="16" height="16" viewBox="0 0 16 16" fill="none" xmlns="http://www.w3.org/2000/svg">
<path d="M10.794 1.33594H5.20732C2.78066 1.33594 1.33398 2.7826 1.33398 5.20927V10.7892C1.33398 13.2226 2.78066 14.6692 5.20732 14.6692H10.7874C13.214 14.6692 14.6606 13.2226 14.6606 10.796V5.20927C14.6674 2.7826 13.2206 1.33594 10.794 1.33594ZM8.00063 12.3892C5.88732 12.3892 4.16732 10.6692 4.16732 8.55596C4.16732 6.4826 5.82066 4.79594 7.87398 4.7226L7.62732 4.43594C7.44732 4.22927 7.46732 3.90927 7.67398 3.72927C7.88066 3.54927 8.20063 3.56927 8.38063 3.77594L9.48735 5.0426C9.50063 5.05594 9.50735 5.06927 9.52063 5.0826C9.54735 5.1226 9.57399 5.16927 9.58735 5.21594C9.59399 5.2426 9.60063 5.26927 9.60735 5.29594C9.62063 5.35594 9.61399 5.4226 9.60063 5.4826C9.58735 5.53594 9.56735 5.58927 9.54063 5.6426C9.53399 5.65594 9.52063 5.66927 9.51399 5.6826C9.48735 5.7226 9.44735 5.75594 9.40735 5.7826C9.40735 5.7826 9.40063 5.7826 9.40063 5.78927L8.10735 6.73594C7.88066 6.89594 7.57398 6.84927 7.40732 6.62927C7.24732 6.40927 7.29398 6.09594 7.51398 5.92927L7.78732 5.72927C6.32066 5.83594 5.16066 7.0626 5.16066 8.55596C5.16066 10.116 6.43398 11.3892 7.99398 11.3892C9.55399 11.3892 10.8274 10.116 10.8274 8.55596C10.8274 7.99594 10.6606 7.44927 10.354 6.9826C10.2006 6.75594 10.2606 6.4426 10.494 6.28927C10.7274 6.13594 11.034 6.19594 11.1874 6.42927C11.6074 7.0626 11.834 7.79594 11.834 8.55596C11.834 10.6692 10.114 12.3892 8.00063 12.3892Z" fill="white"/>
</svg>
