<svg width="16" height="16" viewBox="0 0 16 16" fill="none" xmlns="http://www.w3.org/2000/svg">
<path d="M4.83398 14.664H7.83398C10.334 14.664 11.334 13.664 11.334 11.164V8.16404C11.334 5.66406 10.334 4.66406 7.83398 4.66406H4.83398C2.33398 4.66406 1.33398 5.66406 1.33398 8.16404V11.164C1.33398 13.664 2.33398 14.664 4.83398 14.664Z" fill="white"/>
<path d="M14.167 7.0026C13.8936 7.0026 13.667 6.77594 13.667 6.5026C13.667 4.52927 12.2936 2.87594 10.447 2.4426L10.627 2.7426C10.767 2.9826 10.6936 3.28927 10.4536 3.42927C10.2136 3.56927 9.90697 3.49594 9.76697 3.25594L9.06697 2.08927C8.97361 1.93594 8.97361 1.7426 9.06033 1.58927C9.15361 1.43594 9.32033 1.33594 9.50033 1.33594C12.347 1.33594 14.667 3.65594 14.667 6.5026C14.667 6.77594 14.4403 7.0026 14.167 7.0026Z" fill="white"/>
</svg>
