<svg width="16" height="16" viewBox="0 0 16 16" fill="none" xmlns="http://www.w3.org/2000/svg">
<path d="M7.99967 13.1692H6.21297C5.43963 13.1692 4.7663 12.7026 4.49963 11.9826C4.2263 11.2626 4.4263 10.4692 5.0063 9.95596L10.333 5.29594C10.653 5.01594 10.6597 4.63594 10.5663 4.37594C10.4663 4.11594 10.213 3.83594 9.78632 3.83594H7.99967C7.72634 3.83594 7.49967 3.60927 7.49967 3.33594C7.49967 3.0626 7.72634 2.83594 7.99967 2.83594H9.78632C10.5597 2.83594 11.233 3.3026 11.4997 4.0226C11.773 4.7426 11.573 5.53594 10.993 6.04927L5.6663 10.7092C5.3463 10.9892 5.33963 11.3692 5.43297 11.6292C5.53297 11.8892 5.7863 12.1692 6.21297 12.1692H7.99967C8.27304 12.1692 8.49968 12.396 8.49968 12.6692C8.49968 12.9426 8.27304 13.1692 7.99967 13.1692Z" fill="white"/>
<path d="M13.3334 10H11.3334C10.6 10 10 10.6 10 11.3334V13.3334C10 14.0666 10.6 14.6666 11.3334 14.6666H13.3334C14.0666 14.6666 14.6666 14.0666 14.6666 13.3334V11.3334C14.6666 10.6 14.0666 10 13.3334 10ZM12.34 13C11.9734 13 11.6734 12.7 11.6734 12.3334C11.6734 11.9666 11.9666 11.6666 12.34 11.6666H12.3466C12.7134 11.6666 13.0134 11.9666 13.0134 12.3334C13.0134 12.7 12.7134 13 12.34 13Z" fill="white"/>
<path d="M3.64584 1.33594C2.35917 1.33594 1.3125 2.3826 1.3125 3.66927C1.3125 4.95594 2.35917 6.0026 3.64584 6.0026C4.9325 6.0026 5.97917 4.95594 5.97917 3.66927C5.97917 2.3826 4.93917 1.33594 3.64584 1.33594ZM3.6725 4.33594C3.30584 4.33594 3.00584 4.03594 3.00584 3.66927C3.00584 3.3026 3.29916 3.0026 3.6725 3.0026H3.67917C4.04584 3.0026 4.34584 3.3026 4.34584 3.66927C4.34584 4.03594 4.04584 4.33594 3.6725 4.33594Z" fill="white"/>
</svg>
