<svg width="16" height="16" viewBox="0 0 16 16" fill="none" xmlns="http://www.w3.org/2000/svg">
<path d="M10.794 1.33594H5.20732C2.78066 1.33594 1.33398 2.7826 1.33398 5.20927V10.7892C1.33398 13.2226 2.78066 14.6692 5.20732 14.6692H10.7874C13.214 14.6692 14.6606 13.2226 14.6606 10.796V5.20927C14.6674 2.7826 13.2206 1.33594 10.794 1.33594ZM11.5674 6.03594L10.0074 11.0626C9.63399 12.256 7.96066 12.276 7.56732 11.0892L7.10066 9.70924C6.97398 9.32924 6.67398 9.0226 6.29398 8.9026L4.90732 8.43596C3.73398 8.0426 3.74732 6.35594 4.94066 5.99594L9.96735 4.42927C10.954 4.12927 11.8806 5.05594 11.5674 6.03594Z" fill="white"/>
</svg>
