<svg width="16" height="16" viewBox="0 0 16 16" fill="none" xmlns="http://www.w3.org/2000/svg">
<path d="M5.92067 3.06844C5.38734 0.761773 1.914 0.755106 1.38067 3.06844C1.06733 4.42177 1.92734 5.56844 2.674 6.28177C3.22067 6.79511 4.08067 6.79511 4.62734 6.28177C5.374 5.56844 6.22734 4.42177 5.92067 3.06844ZM3.674 4.13511C3.30734 4.13511 3.00734 3.83511 3.00734 3.46844C3.00734 3.10177 3.30067 2.80177 3.66734 2.80177H3.674C4.04734 2.80177 4.34067 3.10177 4.34067 3.46844C4.34067 3.83511 4.04734 4.13511 3.674 4.13511Z" fill="white"/>
<path d="M14.6066 11.0684C14.0734 8.7618 10.5866 8.75508 10.0466 11.0684C9.73336 12.4218 10.5934 13.5684 11.3466 14.2818C11.8934 14.7951 12.76 14.7951 13.3066 14.2818C14.06 13.5684 14.92 12.4218 14.6066 11.0684ZM12.3534 12.1351C11.9866 12.1351 11.6866 11.8351 11.6866 11.4684C11.6866 11.1018 11.98 10.8018 12.3466 10.8018H12.3534C12.72 10.8018 13.02 11.1018 13.02 11.4684C13.02 11.8351 12.72 12.1351 12.3534 12.1351Z" fill="white"/>
<path d="M7.99967 13.1692H6.21297C5.43963 13.1692 4.7663 12.7026 4.49963 11.9826C4.2263 11.2626 4.4263 10.4692 5.0063 9.95596L10.333 5.29594C10.653 5.01594 10.6597 4.63594 10.5663 4.37594C10.4663 4.11594 10.213 3.83594 9.78632 3.83594H7.99967C7.72634 3.83594 7.49967 3.60927 7.49967 3.33594C7.49967 3.0626 7.72634 2.83594 7.99967 2.83594H9.78632C10.5597 2.83594 11.233 3.3026 11.4997 4.0226C11.773 4.7426 11.573 5.53594 10.993 6.04927L5.6663 10.7092C5.3463 10.9892 5.33963 11.3692 5.43297 11.6292C5.53297 11.8892 5.7863 12.1692 6.21297 12.1692H7.99967C8.27304 12.1692 8.49968 12.396 8.49968 12.6692C8.49968 12.9426 8.27304 13.1692 7.99967 13.1692Z" fill="white"/>
</svg>
