<svg width="16" height="16" viewBox="0 0 16 16" fill="none" xmlns="http://www.w3.org/2000/svg">
<path d="M3.00039 2.39844C2.66902 2.39844 2.40039 2.66707 2.40039 2.99844V3.39844C2.40039 3.72981 2.66902 3.99844 3.00039 3.99844H3.20039C8.06047 3.99844 12.0004 7.93833 12.0004 12.7984V12.9984C12.0004 13.3298 12.269 13.5984 12.6004 13.5984H13.0004C13.3318 13.5984 13.6004 13.3298 13.6004 12.9984V12.7984C13.6004 7.05468 8.94415 2.39844 3.20039 2.39844H3.00039Z" fill="#0F172A"/>
<path d="M2.40039 6.99844C2.40039 6.66707 2.66902 6.39844 3.00039 6.39844H3.20039C6.73501 6.39844 9.60039 9.2638 9.60039 12.7984V12.9984C9.60039 13.3298 9.33175 13.5984 9.00039 13.5984H8.60039C8.26903 13.5984 8.00039 13.3298 8.00039 12.9984V12.7984C8.00039 10.1475 5.85136 7.99844 3.20039 7.99844H3.00039C2.66902 7.99844 2.40039 7.72981 2.40039 7.39844V6.99844Z" fill="#0F172A"/>
<path d="M5.60039 11.9984C5.60039 12.8821 4.88405 13.5984 4.00039 13.5984C3.11673 13.5984 2.40039 12.8821 2.40039 11.9984C2.40039 11.1148 3.11673 10.3984 4.00039 10.3984C4.88405 10.3984 5.60039 11.1148 5.60039 11.9984Z" fill="#0F172A"/>
</svg>
