<svg width="16" height="16" viewBox="0 0 16 16" fill="none" xmlns="http://www.w3.org/2000/svg">
<path d="M12.6674 4.66406C12.574 4.66406 12.5006 4.7374 12.5006 4.83073V7.9974C12.5006 8.27076 12.274 8.4974 12.0006 8.4974C11.7274 8.4974 11.5006 8.27076 11.5006 7.9974V4.83073C11.5006 4.7374 11.4274 4.66406 11.334 4.66406H10.0006C9.90735 4.66406 9.83399 4.7374 9.83399 4.83073V6.3974C9.83399 6.67073 9.60735 6.8974 9.33399 6.8974C9.06063 6.8974 8.83399 6.67073 8.83399 6.3974V4.83073C8.83399 4.7374 8.76063 4.66406 8.66735 4.66406H7.36066C7.26732 4.66406 7.19398 4.7374 7.19398 4.83073L7.16732 8.00404C7.16732 8.2774 6.94066 8.4974 6.66732 8.4974C6.66732 8.4974 6.66732 8.4974 6.66066 8.4974C6.38732 8.4974 6.16732 8.27076 6.16732 7.99073L6.19398 4.83073C6.19398 4.7374 6.12066 4.66406 6.02732 4.66406H4.66732C4.57398 4.66406 4.50066 4.7374 4.50066 4.83073V7.1974C4.50066 7.47073 4.27398 7.6974 4.00066 7.6974C3.72732 7.6974 3.50066 7.47073 3.50066 7.1974V4.83073C3.50066 4.7374 3.42732 4.66406 3.33398 4.66406C2.22732 4.66406 1.33398 5.5574 1.33398 6.66406V9.33076C1.33398 10.4374 2.22732 11.3308 3.33398 11.3308H12.6674C13.774 11.3308 14.6674 10.4374 14.6674 9.33076V6.66406C14.6674 5.5574 13.774 4.66406 12.6674 4.66406Z" fill="white"/>
</svg>
