<svg width="16" height="16" viewBox="0 0 16 16" fill="none" xmlns="http://www.w3.org/2000/svg">
<path d="M12.3132 1.33594H9.64647C8.65127 1.33594 7.82861 2.19315 7.67301 3.17063C7.64408 3.35243 7.79575 3.5026 7.97981 3.5026H10.9798C11.2532 3.5026 11.4798 3.72927 11.4798 4.0026C11.4798 4.27594 11.2532 4.5026 10.9798 4.5026H7.97981C7.79575 4.5026 7.64648 4.65184 7.64648 4.83594V5.83594C7.64648 6.02003 7.79575 6.16927 7.97981 6.16927H9.51983C9.79319 6.16927 10.0198 6.39594 10.0198 6.66927C10.0198 6.9426 9.79319 7.16927 9.51983 7.16927H7.97981C7.79575 7.16927 7.64648 7.31854 7.64648 7.5026V8.4726C7.64648 8.6554 7.79368 8.80404 7.97648 8.80588L10.9798 8.83596C11.2598 8.83596 11.4798 9.0626 11.4798 9.3426C11.4732 9.61596 11.2532 9.83596 10.9798 9.83596C10.9732 9.83596 10.9732 9.83596 10.9732 9.83596L7.98315 9.80604C7.79775 9.80412 7.64648 9.95388 7.64648 10.1392V11.1692C7.64648 11.3533 7.79575 11.5026 7.97981 11.5026H10.2465C10.5265 11.5026 10.7465 11.7292 10.7465 12.0026C10.7465 12.276 10.5265 12.5026 10.2465 12.5026H7.97981C7.79575 12.5026 7.64408 12.6528 7.67301 12.8346C7.82861 13.812 8.65127 14.6692 9.64647 14.6692H12.3132C13.4132 14.6692 14.3132 13.776 14.3132 12.6692V3.33594C14.3132 2.22927 13.4132 1.33594 12.3132 1.33594Z" fill="white"/>
<path d="M5.6275 3.3026V3.83594C5.6275 4.02003 5.47827 4.16927 5.29416 4.16927H2.02084C1.83674 4.16927 1.6875 4.02003 1.6875 3.83594V3.3026C1.6875 2.2226 2.57416 1.33594 3.66084 1.33594C4.74084 1.33594 5.6275 2.2226 5.6275 3.3026Z" fill="white"/>
<path d="M1.6875 11.9374C1.6875 12.2374 1.81416 12.6974 1.97416 12.9508L2.51416 13.8574C3.1475 14.9108 4.17416 14.9108 4.80084 13.8574L5.3475 12.9508C5.50084 12.6974 5.6275 12.2374 5.6275 11.9374V5.4974C5.6275 5.3133 5.47827 5.16406 5.29416 5.16406H2.02084C1.83674 5.16406 1.6875 5.3133 1.6875 5.4974V11.9374Z" fill="white"/>
</svg>
