<svg width="16" height="16" viewBox="0 0 16 16" fill="none" xmlns="http://www.w3.org/2000/svg">
<path d="M15.3326 10.2463V11.7063C15.3326 13.3329 14.1459 14.8663 12.5326 15.3129C12.4192 15.3396 12.2992 15.3396 12.1926 15.3129C11.4059 15.0996 10.7126 14.6196 10.2259 13.9996C9.69922 13.3463 9.39258 12.5396 9.39258 11.7063V10.2463C9.39258 9.96631 9.59922 9.65959 9.85258 9.55295L11.7059 8.79295C12.1259 8.62631 12.5926 8.62631 13.0126 8.79295L13.6792 9.06631L14.8726 9.55295C15.1259 9.65959 15.3326 9.96631 15.3326 10.2463Z" fill="white"/>
<path d="M13.9662 7.33953L13.8462 8.05286L13.3795 7.8662C12.7195 7.59953 11.9995 7.59953 11.3262 7.8662L9.46618 8.63286C8.8329 8.8995 8.3929 9.5595 8.3929 10.2462V11.7062C8.3929 12.4995 8.6129 13.2929 9.01954 13.9995H4.11954C3.2062 13.9995 2.3462 13.2729 2.19287 12.3729L1.35287 7.33953C1.2462 6.71953 1.55954 5.8862 2.05287 5.49287L6.43954 1.9862C7.11288 1.4462 8.20618 1.4462 8.87954 1.99287L13.2662 5.49287C13.7529 5.8862 14.0729 6.71953 13.9662 7.33953Z" fill="white"/>
</svg>
