<svg width="16" height="16" viewBox="0 0 16 16" fill="none" xmlns="http://www.w3.org/2000/svg">
<path d="M14.4602 1.80666C14.4069 1.68666 14.3136 1.58666 14.1869 1.53334C14.1269 1.51334 14.0669 1.5 14.0002 1.5H8.00026C7.72693 1.5 7.50026 1.72666 7.50026 2C7.50026 2.27334 7.72693 2.5 8.00026 2.5H12.7936L1.64695 13.6466C1.45362 13.84 1.45362 14.16 1.64695 14.3534C1.74695 14.4534 1.87362 14.5 2.00029 14.5C2.12695 14.5 2.25362 14.4534 2.35362 14.3534L13.5002 3.20666V8C13.5002 8.27336 13.7269 8.5 14.0002 8.5C14.2736 8.5 14.5002 8.27336 14.5002 8V2C14.5002 1.93334 14.4869 1.87334 14.4602 1.80666Z" fill="white"/>
<path d="M11.6006 12.0968C11.474 12.0968 11.3473 12.0501 11.2473 11.9501L4.04734 4.7501C3.85401 4.55678 3.85401 4.23678 4.04734 4.04344C4.24068 3.8501 4.56068 3.8501 4.75401 4.04344L11.954 11.2435C12.1473 11.4368 12.1473 11.7568 11.954 11.9501C11.854 12.0501 11.7273 12.0968 11.6006 12.0968Z" fill="white"/>
</svg>
