<svg width="16" height="16" viewBox="0 0 16 16" fill="none" xmlns="http://www.w3.org/2000/svg">
<path d="M14.6658 3.40927V10.9826C14.6658 11.9492 13.9726 12.356 13.1258 11.8892L11.8392 11.1692C11.7326 11.1092 11.6658 10.996 11.6658 10.876V5.99594C11.6658 4.3026 10.2858 2.9226 8.59257 2.9226H5.87924C5.63258 2.9226 5.45924 2.6626 5.57258 2.44927C5.91924 1.78927 6.61258 1.33594 7.40588 1.33594H12.5926C13.7326 1.33594 14.6658 2.26927 14.6658 3.40927Z" fill="white"/>
<path d="M8.59399 3.92188H3.40732C2.26732 3.92188 1.33398 4.85521 1.33398 5.99521V13.5686C1.33398 14.5352 2.02732 14.9419 2.87398 14.4752L5.49398 13.0152C5.77398 12.8619 6.22732 12.8619 6.50732 13.0152L9.12735 14.4752C9.97399 14.9419 10.6674 14.5352 10.6674 13.5686V5.99521C10.6674 4.85521 9.73399 3.92188 8.59399 3.92188ZM7.33398 8.50192H4.66732C4.39398 8.50192 4.16732 8.2752 4.16732 8.00192C4.16732 7.72857 4.39398 7.50191 4.66732 7.50191H7.33398C7.60732 7.50191 7.83398 7.72857 7.83398 8.00192C7.83398 8.2752 7.60732 8.50192 7.33398 8.50192Z" fill="white"/>
</svg>
