<svg width="16" height="16" viewBox="0 0 16 16" fill="none" xmlns="http://www.w3.org/2000/svg">
<path fill-rule="evenodd" clip-rule="evenodd" d="M7.99971 1.60156C8.33115 1.60156 8.59971 1.87019 8.59971 2.20156V2.40825C9.78451 2.43468 10.9503 2.53919 12.092 2.71691C12.7135 2.81363 13.3277 2.93204 13.9341 3.07133C14.2571 3.14551 14.4587 3.46747 14.3845 3.79043C14.3103 4.11339 13.9883 4.31506 13.6654 4.24087C13.3731 4.17373 13.079 4.11167 12.7829 4.0548L14.1448 10.0914C14.2049 10.3577 14.0777 10.631 13.8352 10.7564C13.2848 11.0411 12.6602 11.2016 11.9997 11.2016C11.3393 11.2016 10.7147 11.0411 10.1643 10.7564C9.92179 10.631 9.79459 10.3577 9.85467 10.0914L11.2714 3.81193C10.3943 3.69826 9.50299 3.62966 8.59971 3.60856V12.8126C9.63539 12.8508 10.6463 12.9875 11.6234 13.2138C11.9462 13.2885 12.1473 13.6108 12.0725 13.9336C11.9978 14.2565 11.6755 14.4576 11.3527 14.3828C10.2759 14.1335 9.15363 14.0016 7.99971 14.0016C6.84588 14.0016 5.7236 14.1335 4.64685 14.3828C4.32402 14.4576 4.00172 14.2565 3.92696 13.9336C3.8522 13.6108 4.0533 13.2885 4.37612 13.2138C5.35317 12.9875 6.36413 12.8508 7.39974 12.8126V3.60856C6.49648 3.62966 5.60514 3.69826 4.72812 3.81193L6.14484 10.0914C6.20492 10.3577 6.07768 10.631 5.8352 10.7564C5.28483 11.0411 4.66016 11.2016 3.99974 11.2016C3.33933 11.2016 2.71466 11.0411 2.16428 10.7564C1.92181 10.631 1.79455 10.3577 1.85463 10.0914L3.21657 4.0548C2.92052 4.11167 2.62632 4.17373 2.33407 4.24087C2.01111 4.31506 1.68916 4.11339 1.61497 3.79043C1.54079 3.46747 1.74245 3.14551 2.06541 3.07133C2.67175 2.93204 3.28603 2.81363 3.90747 2.71691C5.04924 2.53919 6.215 2.43468 7.39974 2.40825V2.20156C7.39974 1.87019 7.66837 1.60156 7.99971 1.60156ZM3.99974 6.03603L3.13568 9.86588C3.4074 9.95388 3.69764 10.0016 3.99974 10.0016C4.30185 10.0016 4.59208 9.95388 4.8638 9.86588L3.99974 6.03603ZM11.9997 6.03604L11.1357 9.86588C11.4074 9.95388 11.6976 10.0016 11.9997 10.0016C12.3019 10.0016 12.5921 9.95388 12.8638 9.86588L11.9997 6.03604Z" fill="#0F172A"/>
</svg>
