<svg width="16" height="16" viewBox="0 0 16 16" fill="none" xmlns="http://www.w3.org/2000/svg">
<g clip-path="url(#clip0_13_15287)">
<path d="M1.33398 6.5026C1.06066 6.5026 0.833984 6.27594 0.833984 6.0026V4.33594C0.833984 2.4026 2.40732 0.835938 4.33398 0.835938H6.00066C6.27398 0.835938 6.50066 1.0626 6.50066 1.33594C6.50066 1.60927 6.27398 1.83594 6.00066 1.83594H4.33398C2.95398 1.83594 1.83398 2.95594 1.83398 4.33594V6.0026C1.83398 6.27594 1.60732 6.5026 1.33398 6.5026Z" fill="white"/>
<path d="M14.6666 6.5026C14.3934 6.5026 14.1666 6.27594 14.1666 6.0026V4.33594C14.1666 2.95594 13.0466 1.83594 11.6666 1.83594H10C9.72664 1.83594 9.5 1.60927 9.5 1.33594C9.5 1.0626 9.72664 0.835938 10 0.835938H11.6666C13.5934 0.835938 15.1666 2.4026 15.1666 4.33594V6.0026C15.1666 6.27594 14.94 6.5026 14.6666 6.5026Z" fill="white"/>
<path d="M11.666 15.1641H10.666C10.3927 15.1641 10.166 14.9374 10.166 14.6641C10.166 14.3908 10.3927 14.1641 10.666 14.1641H11.666C13.046 14.1641 14.166 13.0441 14.166 11.6641V10.6641C14.166 10.3908 14.3927 10.1641 14.666 10.1641C14.9394 10.1641 15.166 10.3908 15.166 10.6641V11.6641C15.166 13.5974 13.5927 15.1641 11.666 15.1641Z" fill="white"/>
<path d="M6.00066 15.1666H4.33398C2.40732 15.1666 0.833984 13.6 0.833984 11.6666V10C0.833984 9.72664 1.06066 9.5 1.33398 9.5C1.60732 9.5 1.83398 9.72664 1.83398 10V11.6666C1.83398 13.0466 2.95398 14.1666 4.33398 14.1666H6.00066C6.27398 14.1666 6.50066 14.3934 6.50066 14.6666C6.50066 14.94 6.27398 15.1666 6.00066 15.1666Z" fill="white"/>
<path d="M6 3.5H4.66666C3.90666 3.5 3.5 3.9 3.5 4.66666V6C3.5 6.76666 3.90666 7.16666 4.66666 7.16666H6C6.76 7.16666 7.16666 6.76666 7.16666 6V4.66666C7.16666 3.9 6.76 3.5 6 3.5Z" fill="white"/>
<path d="M11.334 3.5H10.0006C9.24062 3.5 8.83398 3.9 8.83398 4.66666V6C8.83398 6.76666 9.24062 7.16666 10.0006 7.16666H11.334C12.094 7.16666 12.5006 6.76666 12.5006 6V4.66666C12.5006 3.9 12.094 3.5 11.334 3.5Z" fill="white"/>
<path d="M6 8.83594H4.66666C3.90666 8.83594 3.5 9.23594 3.5 10.0026V11.3359C3.5 12.1026 3.90666 12.5026 4.66666 12.5026H6C6.76 12.5026 7.16666 12.1026 7.16666 11.3359V10.0026C7.16666 9.23594 6.76 8.83594 6 8.83594Z" fill="white"/>
<path d="M11.334 8.83594H10.0006C9.24062 8.83594 8.83398 9.23594 8.83398 10.0026V11.3359C8.83398 12.1026 9.24062 12.5026 10.0006 12.5026H11.334C12.094 12.5026 12.5006 12.1026 12.5006 11.3359V10.0026C12.5006 9.23594 12.094 8.83594 11.334 8.83594Z" fill="white"/>
</g>
<defs>
<clipPath id="clip0_13_15287">
<rect width="16" height="16" fill="white"/>
</clipPath>
</defs>
</svg>
