<svg width="16" height="16" viewBox="0 0 16 16" fill="none" xmlns="http://www.w3.org/2000/svg">
<g clip-path="url(#clip0_13_15302)">
<path d="M1.33398 6.5026C1.06066 6.5026 0.833984 6.27594 0.833984 6.0026V4.33594C0.833984 2.4026 2.40732 0.835938 4.33398 0.835938H6.00066C6.27398 0.835938 6.50066 1.0626 6.50066 1.33594C6.50066 1.60927 6.27398 1.83594 6.00066 1.83594H4.33398C2.95398 1.83594 1.83398 2.95594 1.83398 4.33594V6.0026C1.83398 6.27594 1.60732 6.5026 1.33398 6.5026Z" fill="white"/>
<path d="M14.6666 6.5026C14.3934 6.5026 14.1666 6.27594 14.1666 6.0026V4.33594C14.1666 2.95594 13.0466 1.83594 11.6666 1.83594H10C9.72664 1.83594 9.5 1.60927 9.5 1.33594C9.5 1.0626 9.72664 0.835938 10 0.835938H11.6666C13.5934 0.835938 15.1666 2.4026 15.1666 4.33594V6.0026C15.1666 6.27594 14.94 6.5026 14.6666 6.5026Z" fill="white"/>
<path d="M11.666 15.1641H10.666C10.3927 15.1641 10.166 14.9374 10.166 14.6641C10.166 14.3908 10.3927 14.1641 10.666 14.1641H11.666C13.046 14.1641 14.166 13.0441 14.166 11.6641V10.6641C14.166 10.3908 14.3927 10.1641 14.666 10.1641C14.9394 10.1641 15.166 10.3908 15.166 10.6641V11.6641C15.166 13.5974 13.5927 15.1641 11.666 15.1641Z" fill="white"/>
<path d="M6.00066 15.1666H4.33398C2.40732 15.1666 0.833984 13.6 0.833984 11.6666V10C0.833984 9.72664 1.06066 9.5 1.33398 9.5C1.60732 9.5 1.83398 9.72664 1.83398 10V11.6666C1.83398 13.0466 2.95398 14.1666 4.33398 14.1666H6.00066C6.27398 14.1666 6.50066 14.3934 6.50066 14.6666C6.50066 14.94 6.27398 15.1666 6.00066 15.1666Z" fill="white"/>
<path d="M5.66609 7.58607C6.72649 7.58607 7.58609 6.72647 7.58609 5.66609C7.58609 4.60571 6.72649 3.74609 5.66609 3.74609C4.60571 3.74609 3.74609 4.60571 3.74609 5.66609C3.74609 6.72647 4.60571 7.58607 5.66609 7.58607Z" fill="white"/>
<path d="M4.99943 12.2527C5.69162 12.2527 6.25277 11.6916 6.25277 10.9995C6.25277 10.3072 5.69162 9.74609 4.99943 9.74609C4.30723 9.74609 3.74609 10.3072 3.74609 10.9995C3.74609 11.6916 4.30723 12.2527 4.99943 12.2527Z" fill="white"/>
<path d="M10.9995 6.25277C11.6916 6.25277 12.2527 5.69163 12.2527 4.99943C12.2527 4.30724 11.6916 3.74609 10.9995 3.74609C10.3072 3.74609 9.74609 4.30724 9.74609 4.99943C9.74609 5.69163 10.3072 6.25277 10.9995 6.25277Z" fill="white"/>
<path d="M10.3341 12.2541C11.3945 12.2541 12.2541 11.3945 12.2541 10.3341C12.2541 9.27374 11.3945 8.41406 10.3341 8.41406C9.27366 8.41406 8.41406 9.27374 8.41406 10.3341C8.41406 11.3945 9.27366 12.2541 10.3341 12.2541Z" fill="white"/>
</g>
<defs>
<clipPath id="clip0_13_15302">
<rect width="16" height="16" fill="white"/>
</clipPath>
</defs>
</svg>
