<svg width="16" height="16" viewBox="0 0 16 16" fill="none" xmlns="http://www.w3.org/2000/svg">
<g clip-path="url(#clip0_13_15296)">
<path d="M14.6674 6.5026C14.394 6.5026 14.1674 6.27594 14.1674 6.0026V4.66927C14.1674 2.94927 13.054 1.83594 11.334 1.83594H4.66732C2.94732 1.83594 1.83398 2.94927 1.83398 4.66927V6.0026C1.83398 6.27594 1.60732 6.5026 1.33398 6.5026C1.06066 6.5026 0.833984 6.27594 0.833984 6.0026V4.66927C0.833984 2.37594 2.37398 0.835938 4.66732 0.835938H11.334C13.6274 0.835938 15.1674 2.37594 15.1674 4.66927V6.0026C15.1674 6.27594 14.9406 6.5026 14.6674 6.5026Z" fill="white"/>
<path d="M11.334 15.1666H4.66732C2.37398 15.1666 0.833984 13.6266 0.833984 11.3334V10C0.833984 9.72664 1.06066 9.5 1.33398 9.5C1.60732 9.5 1.83398 9.72664 1.83398 10V11.3334C1.83398 13.0534 2.94732 14.1666 4.66732 14.1666H11.334C13.054 14.1666 14.1674 13.0534 14.1674 11.3334V10C14.1674 9.72664 14.394 9.5 14.6674 9.5C14.9406 9.5 15.1674 9.72664 15.1674 10V11.3334C15.1674 13.6266 13.6274 15.1666 11.334 15.1666Z" fill="white"/>
<path d="M14.6674 8.5H1.33398C1.06066 8.5 0.833984 8.27336 0.833984 8C0.833984 7.72666 1.06066 7.5 1.33398 7.5H14.6674C14.9406 7.5 15.1674 7.72666 15.1674 8C15.1674 8.27336 14.9406 8.5 14.6674 8.5Z" fill="white"/>
<path d="M10.9994 6.0026H4.99934C4.81268 6.0026 4.66602 5.85594 4.66602 5.66927V4.33594C4.66602 3.7826 5.11268 3.33594 5.66602 3.33594H10.3326C10.886 3.33594 11.3326 3.7826 11.3326 4.33594V5.66927C11.3326 5.85594 11.186 6.0026 10.9994 6.0026Z" fill="white"/>
<path d="M10.9994 10H4.99934C4.81268 10 4.66602 10.1466 4.66602 10.3334V11.6666C4.66602 12.22 5.11268 12.6666 5.66602 12.6666H10.3326C10.8794 12.6666 11.3326 12.22 11.3326 11.6666V10.3334C11.3326 10.1466 11.186 10 10.9994 10Z" fill="white"/>
</g>
<defs>
<clipPath id="clip0_13_15296">
<rect width="16" height="16" fill="white"/>
</clipPath>
</defs>
</svg>
