<svg width="16" height="16" viewBox="0 0 16 16" fill="none" xmlns="http://www.w3.org/2000/svg">
<path d="M1.84732 6.66927C1.56066 6.66927 1.33398 6.4426 1.33398 6.15594V4.61594C1.33398 2.80927 2.80732 1.33594 4.61398 1.33594H6.15398C6.44065 1.33594 6.66732 1.5626 6.66732 1.84927C6.66732 2.13594 6.44065 2.3626 6.15398 2.3626H4.61398C3.36732 2.3626 2.36066 3.37594 2.36066 4.61594V6.15594C2.36066 6.4426 2.12732 6.66927 1.84732 6.66927Z" fill="white"/>
<path d="M14.154 6.66927C13.874 6.66927 13.6406 6.4426 13.6406 6.15594V4.61594C13.6406 3.36927 12.6273 2.3626 11.3873 2.3626H9.84734C9.56062 2.3626 9.33398 2.12927 9.33398 1.84927C9.33398 1.56927 9.56062 1.33594 9.84734 1.33594H11.3873C13.194 1.33594 14.6673 2.80927 14.6673 4.61594V6.15594C14.6673 6.4426 14.4406 6.66927 14.154 6.66927Z" fill="white"/>
<path d="M11.3873 14.6665H10.4606C10.1806 14.6665 9.94727 14.4398 9.94727 14.1531C9.94727 13.8731 10.1739 13.6398 10.4606 13.6398H11.3873C12.6339 13.6398 13.6406 12.6265 13.6406 11.3865V10.4665C13.6406 10.1865 13.8673 9.95312 14.1539 9.95312C14.4339 9.95312 14.6673 10.1798 14.6673 10.4665V11.3865C14.6673 13.1931 13.1939 14.6665 11.3873 14.6665Z" fill="white"/>
<path d="M6.15398 14.6692H4.61398C2.80732 14.6692 1.33398 13.1959 1.33398 11.3892V9.84922C1.33398 9.56258 1.56066 9.33594 1.84732 9.33594C2.13398 9.33594 2.36066 9.56258 2.36066 9.84922V11.3892C2.36066 12.6359 3.37398 13.6426 4.61398 13.6426H6.15398C6.43398 13.6426 6.66732 13.8692 6.66732 14.1559C6.66732 14.4426 6.44065 14.6692 6.15398 14.6692Z" fill="white"/>
<path d="M12.3063 7.48828H11.3997H4.59969H3.69302C3.40635 7.48828 3.17969 7.72161 3.17969 8.00158C3.17969 8.28158 3.40635 8.51494 3.69302 8.51494H4.59969H11.3997H12.3063C12.593 8.51494 12.8197 8.28158 12.8197 8.00158C12.8197 7.72161 12.593 7.48828 12.3063 7.48828Z" fill="white"/>
<path d="M4.59961 9.29234V9.51234C4.59961 10.619 5.49295 11.5123 6.59961 11.5123H9.39961C10.5062 11.5123 11.3996 10.619 11.3996 9.51234V9.29234C11.3996 9.21234 11.3396 9.15234 11.2596 9.15234H4.73961C4.65961 9.15234 4.59961 9.21234 4.59961 9.29234Z" fill="white"/>
<path d="M4.59961 6.7083V6.48827C4.59961 5.38161 5.49295 4.48828 6.59961 4.48828H9.39961C10.5062 4.48828 11.3996 5.38161 11.3996 6.48827V6.7083C11.3996 6.7883 11.3396 6.8483 11.2596 6.8483H4.73961C4.65961 6.8483 4.59961 6.7883 4.59961 6.7083Z" fill="white"/>
</svg>
