<svg width="16" height="16" viewBox="0 0 16 16" fill="none" xmlns="http://www.w3.org/2000/svg">
<path d="M3.66732 6.66666C4.95598 6.66666 6.00066 5.622 6.00066 4.33334C6.00066 3.04466 4.95598 2 3.66732 2C2.37866 2 1.33398 3.04466 1.33398 4.33334C1.33398 5.622 2.37866 6.66666 3.66732 6.66666Z" fill="white"/>
<path d="M3.66732 14.0026C4.95598 14.0026 6.00066 12.9579 6.00066 11.6692C6.00066 10.3806 4.95598 9.33594 3.66732 9.33594C2.37866 9.33594 1.33398 10.3806 1.33398 11.6692C1.33398 12.9579 2.37866 14.0026 3.66732 14.0026Z" fill="white"/>
<path d="M10.1674 7.98687L14.9674 4.40018C15.1874 4.23351 15.2341 3.92018 15.0674 3.70018C14.9007 3.48018 14.5874 3.43351 14.3674 3.60018L9.33406 7.36687L5.63404 4.59351C5.41404 4.43351 5.1007 4.47351 4.93404 4.69351C4.76737 4.91351 4.81404 5.22685 5.03404 5.39351L8.5007 7.98687L4.56737 10.9335C4.34737 11.1002 4.3007 11.4135 4.46737 11.6335C4.56737 11.7669 4.71404 11.8335 4.86737 11.8335C4.97404 11.8335 5.07404 11.8002 5.16737 11.7335L9.33406 8.61352L14.3674 12.3802C14.4541 12.4469 14.5607 12.4802 14.6674 12.4802C14.8207 12.4802 14.9674 12.4135 15.0674 12.2802C15.2341 12.0602 15.1874 11.7469 14.9674 11.5802L10.1674 7.98687Z" fill="white"/>
</svg>
