<svg width="16" height="16" viewBox="0 0 16 16" fill="none" xmlns="http://www.w3.org/2000/svg">
<path d="M10.794 1.33594H5.20732C2.78066 1.33594 1.33398 2.7826 1.33398 5.20927V10.7892C1.33398 13.2226 2.78066 14.6692 5.20732 14.6692H10.7874C13.214 14.6692 14.6606 13.2226 14.6606 10.796V5.20927C14.6674 2.7826 13.2206 1.33594 10.794 1.33594ZM11.8406 9.78924C12.0606 9.95596 12.1074 10.2692 11.9406 10.4892C11.8406 10.6226 11.694 10.6892 11.5406 10.6892C11.434 10.6892 11.334 10.656 11.2406 10.5892L8.60735 8.6226L7.00066 9.8226C7.00732 9.88924 7.02066 9.95596 7.02066 10.0226C7.02066 10.8692 6.33398 11.556 5.48732 11.556C4.64066 11.556 3.95398 10.8692 3.95398 10.0226C3.95398 9.17596 4.64066 8.48924 5.48732 8.48924C5.90066 8.48924 6.26732 8.65596 6.54066 8.91596L7.76732 7.99594L6.54732 7.0826C6.27398 7.34927 5.89398 7.51594 5.48066 7.51594C4.63398 7.51594 3.94732 6.82927 3.94732 5.9826C3.94732 5.13594 4.63398 4.44927 5.48066 4.44927C6.32732 4.44927 7.01398 5.13594 7.01398 5.9826C7.01398 6.04927 7.00066 6.10927 6.99398 6.16927L8.59399 7.36927L11.2274 5.4026C11.4474 5.23594 11.7606 5.2826 11.9274 5.5026C12.094 5.7226 12.0474 6.03594 11.8274 6.2026L9.42735 7.99594L11.8406 9.78924Z" fill="white"/>
</svg>
