<svg width="16" height="16" viewBox="0 0 16 16" fill="none" xmlns="http://www.w3.org/2000/svg">
<path fill-rule="evenodd" clip-rule="evenodd" d="M1.17442 2.99812C0.401226 4.33734 0.860078 6.04979 2.19929 6.82299C3.36016 7.49321 4.80146 7.23771 5.66837 6.28551L6.37501 6.69349C6.39486 6.76759 6.49221 6.78701 6.54216 6.72879C6.66315 6.5878 6.79721 6.45805 6.94273 6.34143C7.17177 6.15785 7.18261 5.77412 6.9284 5.62735L6.26837 5.24628C6.65953 4.01942 6.16016 2.64347 4.99929 1.97325C3.66008 1.20005 1.94762 1.6589 1.17442 2.99812ZM2.79929 5.78377C2.03403 5.34193 1.77183 4.36339 2.21365 3.59812C2.65549 2.83285 3.63403 2.57065 4.39929 3.01248C5.16457 3.45431 5.42677 4.43285 4.98493 5.19812C4.54311 5.96339 3.56457 6.22559 2.79929 5.78377Z" fill="#0F172A"/>
<path fill-rule="evenodd" clip-rule="evenodd" d="M7.96386 6.65871C7.33835 6.92261 6.86973 7.46052 6.69401 8.11625L6.37523 9.30601L5.66844 9.71409C4.80153 8.76185 3.36019 8.50625 2.19929 9.17649C0.860078 9.94969 0.401226 11.6622 1.17442 13.0014C1.94762 14.3406 3.66008 14.7995 4.99929 14.0263C6.16013 13.356 6.6595 11.9802 6.2684 10.7533L14.8115 5.82096C15.0217 5.69963 15.1381 5.46364 15.1064 5.22304C15.0747 4.98244 14.9012 4.7846 14.6668 4.7218L14.1042 4.57106C13.6317 4.44444 13.1304 4.47894 12.6797 4.66912L7.96386 6.65871ZM2.21365 12.4014C1.77183 11.6361 2.03403 10.6576 2.79929 10.2158C3.56457 9.77393 4.54311 10.0361 4.98493 10.8014C5.42677 11.5667 5.16457 12.5452 4.39929 12.9871C3.63403 13.4289 2.65549 13.1667 2.21365 12.4014Z" fill="#0F172A"/>
<path d="M10.0164 9.51188C9.73025 9.67708 9.75649 10.0984 10.061 10.2268L12.6803 11.332C13.1311 11.5221 13.6323 11.5566 14.1049 11.43L14.6675 11.2792C14.9019 11.2164 15.0754 11.0186 15.1071 10.778C15.1387 10.5374 15.0223 10.3015 14.8122 10.1801L12.0356 8.57708C11.9119 8.50556 11.7594 8.50556 11.6356 8.57708L10.0164 9.51188Z" fill="#0F172A"/>
</svg>
