<svg width="16" height="16" viewBox="0 0 16 16" fill="none" xmlns="http://www.w3.org/2000/svg">
<path d="M10.794 1.33594H5.20732C2.78066 1.33594 1.33398 2.7826 1.33398 5.20927V10.7892C1.33398 13.2226 2.78066 14.6692 5.20732 14.6692H10.7874C13.214 14.6692 14.6606 13.2226 14.6606 10.796V5.20927C14.6674 2.7826 13.2206 1.33594 10.794 1.33594ZM12.334 10.936C12.334 11.936 11.934 12.336 10.934 12.336H8.40063C7.40066 12.336 7.00066 11.936 7.00066 10.936V9.73596C7.00066 8.73596 7.40066 8.33596 8.40063 8.33596H10.934C11.934 8.33596 12.334 8.73596 12.334 9.73596V10.936Z" fill="white"/>
</svg>
