<svg width="16" height="16" viewBox="0 0 16 16" fill="none" xmlns="http://www.w3.org/2000/svg">
<path d="M10.794 1.33594H5.20732C2.78066 1.33594 1.33398 2.7826 1.33398 5.20927V10.7892C1.33398 13.2226 2.78066 14.6692 5.20732 14.6692H10.7874C13.214 14.6692 14.6606 13.2226 14.6606 10.796V5.20927C14.6674 2.7826 13.2206 1.33594 10.794 1.33594ZM6.75398 9.66924C6.94732 9.8626 6.94732 10.1826 6.75398 10.376C6.65398 10.476 6.52732 10.5226 6.40066 10.5226C6.27398 10.5226 6.14732 10.476 6.04732 10.376L4.38732 8.71596C3.99398 8.3226 3.99398 7.68927 4.38732 7.29594L6.04732 5.63594C6.24066 5.4426 6.56066 5.4426 6.75398 5.63594C6.94732 5.82927 6.94732 6.14927 6.75398 6.3426L5.09398 8.0026L6.75398 9.66924ZM11.614 8.70924L9.95399 10.3692C9.85399 10.4692 9.72735 10.516 9.60063 10.516C9.47399 10.516 9.34735 10.4692 9.24735 10.3692C9.05399 10.176 9.05399 9.85596 9.24735 9.6626L10.9074 8.0026L9.24735 6.33594C9.05399 6.1426 9.05399 5.8226 9.24735 5.62927C9.44063 5.43594 9.76063 5.43594 9.95399 5.62927L11.614 7.28927C12.0074 7.6826 12.0074 8.3226 11.614 8.70924Z" fill="white"/>
</svg>
