<svg width="16" height="16" viewBox="0 0 16 16" fill="none" xmlns="http://www.w3.org/2000/svg">
<path d="M7.66732 1.33594C4.17398 1.33594 1.33398 4.17594 1.33398 7.66927C1.33398 11.1626 4.17398 14.0026 7.66732 14.0026C11.1606 14.0026 14.0006 11.1626 14.0006 7.66927C14.0006 4.17594 11.1606 1.33594 7.66732 1.33594ZM7.66732 9.16924H5.66732C5.39398 9.16924 5.16732 8.9426 5.16732 8.66924C5.16732 8.39596 5.39398 8.16924 5.66732 8.16924H7.66732C7.94066 8.16924 8.16735 8.39596 8.16735 8.66924C8.16735 8.9426 7.94066 9.16924 7.66732 9.16924ZM9.66735 7.16927H5.66732C5.39398 7.16927 5.16732 6.9426 5.16732 6.66927C5.16732 6.39594 5.39398 6.16927 5.66732 6.16927H9.66735C9.94063 6.16927 10.1674 6.39594 10.1674 6.66927C10.1674 6.9426 9.94063 7.16927 9.66735 7.16927Z" fill="white"/>
<path d="M14.1997 14.6645C14.0797 14.6645 13.9597 14.6178 13.873 14.5311L12.633 13.2911C12.453 13.1111 12.453 12.8178 12.633 12.6311C12.813 12.4511 13.1064 12.4511 13.293 12.6311L14.533 13.8711C14.713 14.0511 14.713 14.3445 14.533 14.5311C14.4397 14.6178 14.3197 14.6645 14.1997 14.6645Z" fill="white"/>
</svg>
