<svg width="16" height="16" viewBox="0 0 16 16" fill="none" xmlns="http://www.w3.org/2000/svg">
<path d="M7.33282 1.32812C4.01951 1.32812 1.32617 4.02145 1.32617 7.33476C1.32617 10.6481 4.01951 13.3414 7.33282 13.3414C10.6462 13.3414 13.3395 10.6481 13.3395 7.33476C13.3395 4.02145 10.6462 1.32812 7.33282 1.32812ZM7.33282 8.8348H5.33284C5.05951 8.8348 4.83284 8.60808 4.83284 8.3348C4.83284 8.06144 5.05951 7.83476 5.33284 7.83476H7.33282C7.60615 7.83476 7.83282 8.06144 7.83282 8.3348C7.83282 8.60808 7.60615 8.8348 7.33282 8.8348ZM9.33281 6.83476H5.33284C5.05951 6.83476 4.83284 6.60812 4.83284 6.33479C4.83284 6.06145 5.05951 5.83479 5.33284 5.83479H9.33281C9.60617 5.83479 9.83281 6.06145 9.83281 6.33479C9.83281 6.60812 9.60617 6.83476 9.33281 6.83476Z" fill="white"/>
<path d="M14.6594 12.6334C14.4394 12.2266 13.9727 12 13.3461 12C12.8727 12 12.4661 12.1934 12.2261 12.5266C11.9861 12.86 11.9327 13.3066 12.0794 13.7534C12.3661 14.62 12.8661 14.8134 13.1394 14.8466C13.1794 14.8534 13.2194 14.8534 13.2661 14.8534C13.5594 14.8534 14.0127 14.7266 14.4527 14.0666C14.8061 13.5534 14.8727 13.04 14.6594 12.6334Z" fill="white"/>
</svg>
