<svg width="16" height="16" viewBox="0 0 16 16" fill="none" xmlns="http://www.w3.org/2000/svg">
<path d="M14.1997 14.6683C14.0797 14.6683 13.9597 14.6216 13.873 14.535L12.633 13.2949C12.453 13.1149 12.453 12.8216 12.633 12.635C12.813 12.455 13.1064 12.455 13.293 12.635L14.533 13.8749C14.713 14.0549 14.713 14.3483 14.533 14.535C14.4397 14.6216 14.3197 14.6683 14.1997 14.6683Z" fill="white"/>
<path d="M7.66732 1.33594C4.17398 1.33594 1.33398 4.17594 1.33398 7.66927C1.33398 11.1626 4.17398 14.0026 7.66732 14.0026C11.1606 14.0026 14.0006 11.1626 14.0006 7.66927C14.0006 4.17594 11.1606 1.33594 7.66732 1.33594ZM9.33399 8.3026H6.00066C5.72732 8.3026 5.50066 8.07596 5.50066 7.8026C5.50066 7.52927 5.72732 7.3026 6.00066 7.3026H9.33399C9.60735 7.3026 9.83399 7.52927 9.83399 7.8026C9.83399 8.07596 9.60735 8.3026 9.33399 8.3026Z" fill="white"/>
</svg>
