<svg width="16" height="16" viewBox="0 0 16 16" fill="none" xmlns="http://www.w3.org/2000/svg">
<path d="M7.34066 1.33594C4.02732 1.33594 1.33398 4.02927 1.33398 7.3426C1.33398 10.656 4.02732 13.3492 7.34066 13.3492C10.654 13.3492 13.3474 10.656 13.3474 7.3426C13.3474 4.02927 10.654 1.33594 7.34066 1.33594ZM9.00063 7.83594H5.66732C5.39398 7.83594 5.16732 7.60927 5.16732 7.33594C5.16732 7.0626 5.39398 6.83594 5.66732 6.83594H9.00063C9.27399 6.83594 9.50063 7.0626 9.50063 7.33594C9.50063 7.60927 9.27399 7.83594 9.00063 7.83594Z" fill="white"/>
<path d="M14.6594 12.6334C14.4394 12.2266 13.9727 12 13.3461 12C12.8727 12 12.4661 12.1934 12.2261 12.5266C11.9861 12.86 11.9327 13.3066 12.0794 13.7534C12.3661 14.62 12.8661 14.8134 13.1394 14.8466C13.1794 14.8534 13.2194 14.8534 13.2661 14.8534C13.5594 14.8534 14.0127 14.7266 14.4527 14.0666C14.8061 13.5534 14.8727 13.04 14.6594 12.6334Z" fill="white"/>
</svg>
