<svg width="16" height="16" viewBox="0 0 16 16" fill="none" xmlns="http://www.w3.org/2000/svg">
<path d="M13.9405 7.41093V4.48427C13.9405 3.9376 13.5272 3.3176 13.0138 3.11093L9.30055 1.59093C8.46719 1.25094 7.52718 1.25094 6.69385 1.59093L2.98055 3.11093C2.47387 3.3176 2.06055 3.9376 2.06055 4.48427V7.41093C2.06055 10.6709 4.42721 13.7243 7.66051 14.6176C7.88051 14.6776 8.12055 14.6776 8.34055 14.6176C11.5738 13.7243 13.9405 10.6709 13.9405 7.41093ZM8.50055 8.57764V10.3309C8.50055 10.6043 8.27383 10.8309 8.00055 10.8309C7.72718 10.8309 7.50052 10.6043 7.50052 10.3309V8.57764C6.82719 8.36428 6.33387 7.7376 6.33387 6.9976C6.33387 6.0776 7.08052 5.33093 8.00055 5.33093C8.92055 5.33093 9.66719 6.0776 9.66719 6.9976C9.66719 7.74426 9.17383 8.36428 8.50055 8.57764Z" fill="white"/>
</svg>
