<svg width="16" height="16" viewBox="0 0 16 16" fill="none" xmlns="http://www.w3.org/2000/svg">
<path d="M8.00063 5.5C6.80732 5.5 5.83398 6.47334 5.83398 7.66666C5.83398 8.86 6.80732 9.83336 8.00063 9.83336C9.19399 9.83336 10.1674 8.86 10.1674 7.66666C10.1674 6.47334 9.19399 5.5 8.00063 5.5ZM8.66735 7.45334C8.66735 7.86 8.44735 8.24664 8.10063 8.45336L7.58732 8.76C7.50732 8.80664 7.42066 8.83336 7.32732 8.83336C7.16066 8.83336 6.99398 8.74664 6.90066 8.59336C6.76066 8.35336 6.83398 8.04664 7.07398 7.90666L7.58066 7.6C7.63398 7.56666 7.66066 7.51334 7.66066 7.46V6.84C7.66066 6.56666 7.88732 6.34 8.16063 6.34C8.43399 6.34 8.66735 6.56 8.66735 6.83334V7.45334Z" fill="white"/>
<path d="M12.3605 2.78302L8.69382 1.40968C8.31382 1.26969 7.69385 1.26969 7.31385 1.40968L3.64719 2.78302C2.94052 3.04969 2.36719 3.87635 2.36719 4.62969V10.0296C2.36719 10.5696 2.72052 11.283 3.15385 11.603L6.82052 14.343C7.46719 14.8296 8.52718 14.8296 9.17382 14.343L12.8405 11.603C13.2738 11.2764 13.6272 10.5696 13.6272 10.0296V4.62969C13.6338 3.87635 13.0605 3.04969 12.3605 2.78302ZM8.00052 10.8364C6.25385 10.8364 4.83385 9.41636 4.83385 7.66967C4.83385 5.92302 6.25385 4.50303 8.00052 4.50303C9.74718 4.50303 11.1672 5.92302 11.1672 7.66967C11.1672 9.41636 9.74718 10.8364 8.00052 10.8364Z" fill="white"/>
</svg>
