<svg width="16" height="16" viewBox="0 0 16 16" fill="none" xmlns="http://www.w3.org/2000/svg">
<path d="M12.3334 2.73761L9.0068 1.49094C8.45344 1.28427 7.5468 1.28427 6.99346 1.49094L3.66677 2.73761C2.9001 3.02427 2.27344 3.93093 2.27344 4.74427V9.69764C2.27344 10.4843 2.79344 11.5176 3.42677 11.9909L6.29344 14.1309C7.23346 14.8376 8.78016 14.8376 9.72016 14.1309L12.5868 11.9909C13.2202 11.5176 13.7402 10.4843 13.7402 9.69764V4.74427C13.7268 3.93093 13.1002 3.02427 12.3334 2.73761ZM7.95346 4.68427C8.74016 4.68427 9.38016 5.32427 9.38016 6.11094C9.38016 6.88426 8.77344 7.50426 8.0068 7.53093H7.99346H7.98013C7.9668 7.53093 7.95346 7.53093 7.94013 7.53093C7.14013 7.50426 6.5401 6.88426 6.5401 6.11094C6.53344 5.32427 7.17346 4.68427 7.95346 4.68427ZM9.46016 10.9043C9.05344 11.1709 8.5268 11.3109 8.00016 11.3109C7.47346 11.3109 6.94013 11.1776 6.5401 10.9043C6.1601 10.6509 5.95344 10.3043 5.94677 9.92428C5.94677 9.55092 6.1601 9.19092 6.5401 8.93764C7.3468 8.40428 8.66016 8.40428 9.4668 8.93764C9.8468 9.19092 10.0602 9.53764 10.0602 9.91764C10.0534 10.2909 9.84016 10.6509 9.46016 10.9043Z" fill="white"/>
</svg>
