<svg width="16" height="16" viewBox="0 0 16 16" fill="none" xmlns="http://www.w3.org/2000/svg">
<path d="M8.99266 8.92188H7.33266C7.13266 8.92188 6.97266 9.08187 6.97266 9.28187C6.97266 9.48187 7.13266 9.64188 7.33266 9.64188H8.99266C9.19266 9.64188 9.35266 9.48187 9.35266 9.28187C9.35266 9.08187 9.19266 8.92188 8.99266 8.92188Z" fill="white"/>
<path d="M6.29295 8.92188H5.45961C5.25961 8.92188 5.09961 9.08187 5.09961 9.28187C5.09961 9.48187 5.25961 9.64188 5.45961 9.64188H6.29295C6.49295 9.64188 6.65295 9.48187 6.65295 9.28187C6.65295 9.08187 6.49295 8.92188 6.29295 8.92188Z" fill="white"/>
<path d="M12.3605 2.81427L8.69382 1.44094C8.31382 1.30094 7.69385 1.30094 7.31385 1.44094L3.64719 2.81427C2.94052 3.08094 2.36719 3.9076 2.36719 4.66094V10.061C2.36719 10.601 2.72052 11.3143 3.15385 11.6343L6.82052 14.3743C7.46719 14.861 8.52718 14.861 9.17382 14.3743L12.8405 11.6343C13.2738 11.3076 13.6272 10.601 13.6272 10.061V4.66094C13.6338 3.9076 13.0605 3.08094 12.3605 2.81427ZM12.1138 9.101C12.1005 10.481 11.7205 10.8276 10.2872 10.8276H5.72052C4.26052 10.8276 3.89385 10.4676 3.89385 9.021V7.46763C3.89385 7.28097 4.04052 7.13431 4.22719 7.13431H11.7805C11.9672 7.13431 12.1138 7.28097 12.1138 7.46763V9.101ZM12.1138 6.07427C12.1138 6.26094 11.9672 6.4076 11.7805 6.4076H4.22719C4.04052 6.4076 3.89385 6.26094 3.89385 6.07427V5.6476C3.89385 4.34094 4.20052 3.92094 5.34052 3.8476C5.46052 3.8476 5.58719 3.84094 5.72052 3.84094H10.2872C11.7472 3.84094 12.1138 4.20094 12.1138 5.6476V6.07427Z" fill="white"/>
</svg>
