<svg width="16" height="16" viewBox="0 0 16 16" fill="none" xmlns="http://www.w3.org/2000/svg">
<path d="M12.2194 3.7826L4.39273 11.6092C4.0994 11.9026 3.60606 11.8626 3.36606 11.516C2.5394 10.3092 2.05273 8.8826 2.05273 7.41594V4.48927C2.05273 3.9426 2.46606 3.3226 2.97273 3.11594L6.68608 1.59594C7.52608 1.24927 8.45945 1.24927 9.29945 1.59594L11.9994 2.69594C12.4394 2.87594 12.5527 3.44927 12.2194 3.7826Z" fill="white"/>
<path d="M12.8474 4.69309C13.2806 4.32642 13.9406 4.63976 13.9406 5.20642V7.41307C13.9406 10.6731 11.574 13.7264 8.34063 14.6197C8.12063 14.6797 7.88065 14.6797 7.65398 14.6197C6.70732 14.3531 5.82732 13.9064 5.07399 13.3197C4.75399 13.0731 4.72065 12.6064 5.00065 12.3197C6.45399 10.8331 10.7074 6.49976 12.8474 4.69309Z" fill="white"/>
</svg>
