<svg width="16" height="16" viewBox="0 0 16 16" fill="none" xmlns="http://www.w3.org/2000/svg">
<path d="M10.794 1.33594H5.20732C2.78066 1.33594 1.33398 2.7826 1.33398 5.20927V10.7892C1.33398 13.2226 2.78066 14.6692 5.20732 14.6692H10.7874C13.214 14.6692 14.6606 13.2226 14.6606 10.796V5.20927C14.6674 2.7826 13.2206 1.33594 10.794 1.33594ZM5.64732 5.98927L7.64732 3.98927C7.69398 3.9426 7.74732 3.90927 7.80732 3.8826C7.92732 3.82927 8.06735 3.82927 8.18735 3.8826C8.24735 3.90927 8.30063 3.9426 8.34735 3.98927L10.3474 5.98927C10.5406 6.1826 10.5406 6.5026 10.3474 6.69594C10.2474 6.79594 10.1206 6.8426 9.99399 6.8426C9.86735 6.8426 9.74063 6.79594 9.64063 6.69594L8.49399 5.54927V9.67596C8.49399 9.94924 8.26735 10.176 7.99398 10.176C7.72066 10.176 7.49398 9.94924 7.49398 9.67596V5.54927L6.34732 6.69594C6.15398 6.88927 5.83398 6.88927 5.64066 6.69594C5.44732 6.5026 5.45398 6.18927 5.64732 5.98927ZM12.1606 11.4826C10.8206 11.9292 9.41399 12.156 8.00063 12.156C6.58732 12.156 5.18066 11.9292 3.84066 11.4826C3.58066 11.396 3.44066 11.1092 3.52732 10.8492C3.61398 10.5892 3.90066 10.4426 4.16066 10.536C6.64066 11.3626 9.36735 11.3626 11.8474 10.536C12.1074 10.4492 12.394 10.5892 12.4806 10.8492C12.5606 11.116 12.4206 11.396 12.1606 11.4826Z" fill="white"/>
</svg>
