<svg width="16" height="16" viewBox="0 0 16 16" fill="none" xmlns="http://www.w3.org/2000/svg">
<path d="M10.794 1.33594H5.20732C2.78066 1.33594 1.33398 2.7826 1.33398 5.20927V10.7892C1.33398 13.2226 2.78066 14.6692 5.20732 14.6692H10.7874C13.214 14.6692 14.6606 13.2226 14.6606 10.796V5.20927C14.6674 2.7826 13.2206 1.33594 10.794 1.33594ZM5.76066 8.5426L8.68063 5.6226H7.06066C6.78732 5.6226 6.56066 5.39594 6.56066 5.1226C6.56066 4.84927 6.78732 4.6226 7.06066 4.6226H9.88735C9.95399 4.6226 10.014 4.63594 10.0806 4.6626C10.2006 4.71594 10.3006 4.80927 10.354 4.93594C10.3806 4.99594 10.394 5.0626 10.394 5.12927V7.95594C10.394 8.22924 10.1674 8.45596 9.89399 8.45596C9.62063 8.45596 9.39399 8.22924 9.39399 7.95594V6.33594L6.46732 9.24924C6.36732 9.34924 6.24066 9.39596 6.11398 9.39596C5.98732 9.39596 5.86066 9.34924 5.76066 9.24924C5.56732 9.05596 5.56732 8.73596 5.76066 8.5426ZM12.1606 11.4826C10.8206 11.9292 9.41399 12.156 8.00063 12.156C6.58732 12.156 5.18066 11.9292 3.84066 11.4826C3.58066 11.396 3.44066 11.1092 3.52732 10.8492C3.61398 10.5892 3.89398 10.4426 4.16066 10.536C6.64066 11.3626 9.36735 11.3626 11.8474 10.536C12.1074 10.4492 12.394 10.5892 12.4806 10.8492C12.5606 11.116 12.4206 11.396 12.1606 11.4826Z" fill="white"/>
</svg>
