<svg width="16" height="16" viewBox="0 0 16 16" fill="none" xmlns="http://www.w3.org/2000/svg">
<path d="M10.7601 1.97531L4.74008 3.97531C0.693411 5.32865 0.693411 7.53534 4.74008 8.88196L6.52674 9.47532L7.12006 11.262C8.46673 15.3087 10.6801 15.3087 12.0267 11.262L14.0334 5.24865C14.9267 2.54865 13.4601 1.07531 10.7601 1.97531ZM10.9734 5.56198L8.44009 8.10868C8.34009 8.20868 8.21337 8.25532 8.08673 8.25532C7.96006 8.25532 7.8334 8.20868 7.7334 8.10868C7.54006 7.91534 7.54006 7.59534 7.7334 7.402L10.2667 4.85531C10.4601 4.66198 10.7801 4.66198 10.9734 4.85531C11.1667 5.04865 11.1667 5.36865 10.9734 5.56198Z" fill="white"/>
</svg>
