<svg width="16" height="16" viewBox="0 0 16 16" fill="none" xmlns="http://www.w3.org/2000/svg">
<path d="M12.0469 5.67245L6.34017 2.81911C2.50684 0.899113 0.93351 2.47245 2.85351 6.30578L3.43351 7.46577C3.60017 7.80577 3.60017 8.19912 3.43351 8.53912L2.85351 9.6924C0.93351 13.5258 2.50017 15.0991 6.34017 13.1791L12.0469 10.3258C14.6069 9.04576 14.6069 6.95243 12.0469 5.67245ZM9.89351 8.49912H6.29351C6.02017 8.49912 5.79351 8.2724 5.79351 7.9991C5.79351 7.72577 6.02017 7.4991 6.29351 7.4991H9.89351C10.1669 7.4991 10.3935 7.72577 10.3935 7.9991C10.3935 8.2724 10.1669 8.49912 9.89351 8.49912Z" fill="white"/>
</svg>
