<svg width="16" height="16" viewBox="0 0 16 16" fill="none" xmlns="http://www.w3.org/2000/svg">
<path d="M13.6674 14.1641H2.33398C2.06066 14.1641 1.83398 14.3908 1.83398 14.6641C1.83398 14.9374 2.06066 15.1641 2.33398 15.1641H13.6674C13.9406 15.1641 14.1674 14.9374 14.1674 14.6641C14.1674 14.3908 13.9406 14.1641 13.6674 14.1641Z" fill="white"/>
<path d="M3.33398 9.6826C3.60732 9.6826 3.83398 9.45596 3.83398 9.1826V3.5426L12.314 12.0226C12.414 12.1226 12.5406 12.1692 12.6674 12.1692C12.794 12.1692 12.9206 12.1226 13.0206 12.0226C13.214 11.8292 13.214 11.5092 13.0206 11.316L4.54066 2.83594H10.1806C10.454 2.83594 10.6806 2.60927 10.6806 2.33594C10.6806 2.0626 10.454 1.83594 10.1806 1.83594H3.33398C3.26732 1.83594 3.20732 1.84927 3.14066 1.87594C3.02066 1.9226 2.92066 2.0226 2.87398 2.1426C2.84732 2.20927 2.83398 2.26927 2.83398 2.33594V9.1826C2.83398 9.45596 3.06066 9.6826 3.33398 9.6826Z" fill="white"/>
</svg>
