<svg width="16" height="16" viewBox="0 0 16 16" fill="none" xmlns="http://www.w3.org/2000/svg">
<path d="M3.57051 2.53107C3.83204 1.96443 4.39917 1.60156 5.02325 1.60156H10.9758C11.5998 1.60156 12.167 1.96443 12.4285 2.53107L13.3516 4.53107C13.405 4.64678 13.4434 4.76428 13.4678 4.8818C13.2536 4.82937 13.0299 4.80156 12.7995 4.80156H3.19952C2.96921 4.80156 2.74539 4.82937 2.53125 4.88181C2.55568 4.76428 2.59403 4.64679 2.64744 4.53107L3.57051 2.53107Z" fill="#0F172A"/>
<path fill-rule="evenodd" clip-rule="evenodd" d="M1.59961 7.6C1.59961 6.71634 2.31595 6 3.19961 6H12.7996C13.6833 6 14.3996 6.71634 14.3996 7.6C14.3996 8.48368 13.6833 9.2 12.7996 9.2H3.19961C2.31595 9.2 1.59961 8.48368 1.59961 7.6ZM12.1918 7.6C12.1918 7.26863 12.4604 7 12.7918 7H12.7998C13.1311 7 13.3998 7.26863 13.3998 7.6V7.608C13.3998 7.93937 13.1311 8.208 12.7998 8.208H12.7918C12.4604 8.208 12.1918 7.93937 12.1918 7.608V7.6ZM10.3918 7C10.0604 7 9.79177 7.26863 9.79177 7.6V7.608C9.79177 7.93937 10.0604 8.208 10.3918 8.208H10.3998C10.7311 8.208 10.9998 7.93937 10.9998 7.608V7.6C10.9998 7.26863 10.7311 7 10.3998 7H10.3918Z" fill="#0F172A"/>
<path fill-rule="evenodd" clip-rule="evenodd" d="M1.59961 11.9984C1.59961 11.1148 2.31595 10.3984 3.19961 10.3984H12.7996C13.6833 10.3984 14.3996 11.1148 14.3996 11.9984C14.3996 12.8821 13.6833 13.5984 12.7996 13.5984H3.19961C2.31595 13.5984 1.59961 12.8821 1.59961 11.9984ZM12.1918 11.9984C12.1918 11.6671 12.4604 11.3984 12.7918 11.3984H12.7998C13.1311 11.3984 13.3998 11.6671 13.3998 11.9984V12.0064C13.3998 12.3378 13.1311 12.6064 12.7998 12.6064H12.7918C12.4604 12.6064 12.1918 12.3378 12.1918 12.0064V11.9984ZM10.3918 11.3984C10.0604 11.3984 9.79177 11.6671 9.79177 11.9984V12.0064C9.79177 12.3378 10.0604 12.6064 10.3918 12.6064H10.3998C10.7311 12.6064 10.9998 12.3378 10.9998 12.0064V11.9984C10.9998 11.6671 10.7311 11.3984 10.3998 11.3984H10.3918Z" fill="#0F172A"/>
</svg>
