<svg width="16" height="16" viewBox="0 0 16 16" fill="none" xmlns="http://www.w3.org/2000/svg">
<path d="M3.70596 2.82817C3.87862 2.10878 4.52196 1.60156 5.26178 1.60156H10.7389C11.4787 1.60156 12.1221 2.10877 12.2947 2.82816L13.8757 9.41548C13.5446 9.27764 13.1814 9.20156 12.8003 9.20156H3.20034C2.81934 9.20156 2.4561 9.27764 2.125 9.41548L3.70596 2.82817Z" fill="#0F172A"/>
<path fill-rule="evenodd" clip-rule="evenodd" d="M3.19961 10.3984C2.31595 10.3984 1.59961 11.1148 1.59961 11.9984C1.59961 12.8821 2.31595 13.5984 3.19961 13.5984H12.7996C13.6833 13.5984 14.3996 12.8821 14.3996 11.9984C14.3996 11.1148 13.6833 10.3984 12.7996 10.3984H3.19961ZM12.1918 11.9984C12.1918 11.6671 12.4604 11.3984 12.7918 11.3984H12.7998C13.1311 11.3984 13.3998 11.6671 13.3998 11.9984V12.0064C13.3998 12.3378 13.1311 12.6064 12.7998 12.6064H12.7918C12.4604 12.6064 12.1918 12.3378 12.1918 12.0064V11.9984ZM10.3918 11.3984C10.0604 11.3984 9.79177 11.6671 9.79177 11.9984V12.0064C9.79177 12.3378 10.0604 12.6064 10.3918 12.6064H10.3998C10.7311 12.6064 10.9998 12.3378 10.9998 12.0064V11.9984C10.9998 11.6671 10.7311 11.3984 10.3998 11.3984H10.3918Z" fill="#0F172A"/>
</svg>
