<svg width="16" height="16" viewBox="0 0 16 16" fill="none" xmlns="http://www.w3.org/2000/svg">
<path d="M8 11C9.65688 11 11 9.65688 11 8C11 6.34314 9.65688 5 8 5C6.34314 5 5 6.34314 5 8C5 9.65688 6.34314 11 8 11Z" fill="white"/>
<path d="M6.66732 8.5H1.33398C1.06066 8.5 0.833984 8.27336 0.833984 8C0.833984 7.72666 1.06066 7.5 1.33398 7.5H6.66732C6.94066 7.5 7.16732 7.72666 7.16732 8C7.16732 8.27336 6.94066 8.5 6.66732 8.5Z" fill="white"/>
<path d="M14.6673 8.5H9.33398C9.06062 8.5 8.83398 8.27336 8.83398 8C8.83398 7.72666 9.06062 7.5 9.33398 7.5H14.6673C14.9406 7.5 15.1673 7.72666 15.1673 8C15.1673 8.27336 14.9406 8.5 14.6673 8.5Z" fill="white"/>
</svg>
