<svg width="16" height="16" viewBox="0 0 16 16" fill="none" xmlns="http://www.w3.org/2000/svg">
<path d="M12.6267 3.61427L9.18008 1.62094C8.52008 1.24094 7.48673 1.24094 6.82673 1.62094L3.34672 3.6276C1.96672 4.56094 1.88672 4.70094 1.88672 6.1876V9.80764C1.88672 11.2943 1.96672 11.441 3.37338 12.3876L6.82006 14.381C7.1534 14.5743 7.58006 14.6676 8.00008 14.6676C8.42008 14.6676 8.84672 14.5743 9.17336 14.381L12.6534 12.3743C14.0334 11.441 14.1134 11.301 14.1134 9.81428V6.1876C14.1134 4.70094 14.0334 4.56094 12.6267 3.61427ZM8.00008 10.1676C6.80673 10.1676 5.83338 9.19428 5.83338 8.00097C5.83338 6.80763 6.80673 5.83427 8.00008 5.83427C9.19336 5.83427 10.1667 6.80763 10.1667 8.00097C10.1667 9.19428 9.19336 10.1676 8.00008 10.1676Z" fill="white"/>
</svg>
