<svg width="16" height="16" viewBox="0 0 16 16" fill="none" xmlns="http://www.w3.org/2000/svg">
<path d="M14.2003 5.05052H10.4803C10.2203 5.05052 10.0137 4.84385 10.0137 4.58385C10.0137 4.32385 10.2203 4.11719 10.4803 4.11719H14.2003C14.4603 4.11719 14.667 4.32385 14.667 4.58385C14.667 4.84385 14.4603 5.05052 14.2003 5.05052Z" fill="white"/>
<path d="M4.28066 5.05052H1.80066C1.54066 5.05052 1.33398 4.84385 1.33398 4.58385C1.33398 4.32385 1.54066 4.11719 1.80066 4.11719H4.28066C4.54066 4.11719 4.74732 4.32385 4.74732 4.58385C4.74732 4.84385 4.53398 5.05052 4.28066 5.05052Z" fill="white"/>
<path d="M6.76027 7.2198C8.21465 7.2198 9.39361 6.0408 9.39361 4.58645C9.39361 3.1321 8.21465 1.95312 6.76027 1.95312C5.30594 1.95312 4.12695 3.1321 4.12695 4.58645C4.12695 6.0408 5.30594 7.2198 6.76027 7.2198Z" fill="white"/>
<path d="M14.2005 11.8747H11.7205C11.4605 11.8747 11.2539 11.668 11.2539 11.408C11.2539 11.148 11.4605 10.9414 11.7205 10.9414H14.2005C14.4605 10.9414 14.6673 11.148 14.6673 11.408C14.6673 11.668 14.4605 11.8747 14.2005 11.8747Z" fill="white"/>
<path d="M5.52066 11.8747H1.80066C1.54066 11.8747 1.33398 11.668 1.33398 11.408C1.33398 11.148 1.54066 10.9414 1.80066 10.9414H5.52066C5.78066 10.9414 5.98732 11.148 5.98732 11.408C5.98732 11.668 5.77398 11.8747 5.52066 11.8747Z" fill="white"/>
<path d="M9.24079 14.0479C10.6951 14.0479 11.8741 12.8688 11.8741 11.4145C11.8741 9.96021 10.6951 8.78125 9.24079 8.78125C7.78638 8.78125 6.60742 9.96021 6.60742 11.4145C6.60742 12.8688 7.78638 14.0479 9.24079 14.0479Z" fill="white"/>
</svg>
