<svg width="16" height="16" viewBox="0 0 16 16" fill="none" xmlns="http://www.w3.org/2000/svg">
<path d="M10.794 1.33594H5.20732C2.78066 1.33594 1.33398 2.7826 1.33398 5.20927V10.7892C1.33398 13.2226 2.78066 14.6692 5.20732 14.6692H10.7874C13.214 14.6692 14.6606 13.2226 14.6606 10.796V5.20927C14.6674 2.7826 13.2206 1.33594 10.794 1.33594ZM5.11398 3.66927C5.11398 3.39594 5.34066 3.16927 5.61398 3.16927C5.88732 3.16927 6.11398 3.39594 6.11398 3.66927V6.26927C6.11398 6.5426 5.88732 6.76927 5.61398 6.76927C5.34066 6.76927 5.11398 6.5426 5.11398 6.26927V3.66927ZM6.3492 10.9568C6.21358 11.017 6.11398 11.1448 6.11398 11.2932V12.336C6.11398 12.6092 5.88732 12.836 5.61398 12.836C5.34066 12.836 5.11398 12.6092 5.11398 12.336V11.2932C5.11398 11.1448 5.01438 11.017 4.87881 10.9567C4.24249 10.6736 3.80066 10.0412 3.80066 9.3026C3.80066 8.3026 4.61398 7.4826 5.61398 7.4826C6.61398 7.4826 7.43398 8.29596 7.43398 9.3026C7.43398 10.0414 6.98672 10.6736 6.3492 10.9568ZM10.8874 12.336C10.8874 12.6092 10.6606 12.836 10.3874 12.836C10.114 12.836 9.88735 12.6092 9.88735 12.336V9.73596C9.88735 9.4626 10.114 9.23596 10.3874 9.23596C10.6606 9.23596 10.8874 9.4626 10.8874 9.73596V12.336ZM10.3874 8.51596C9.38735 8.51596 8.56735 7.7026 8.56735 6.69594C8.56735 5.95717 9.01455 5.32488 9.65215 5.04175C9.78775 4.98153 9.88735 4.85381 9.88735 4.70541V3.66927C9.88735 3.39594 10.114 3.16927 10.3874 3.16927C10.6606 3.16927 10.8874 3.39594 10.8874 3.66927V4.71207C10.8874 4.86047 10.987 4.98817 11.1226 5.04851C11.7588 5.33167 12.2006 5.96391 12.2006 6.7026C12.2006 7.7026 11.3874 8.51596 10.3874 8.51596Z" fill="white"/>
</svg>
