<svg width="16" height="16" viewBox="0 0 16 16" fill="none" xmlns="http://www.w3.org/2000/svg">
<path d="M12.3402 5.49922C12.6735 5.49922 12.9402 5.23255 12.9402 4.89922V1.79922C12.9402 1.46588 12.6735 1.19922 12.3402 1.19922C12.0069 1.19922 11.7402 1.46588 11.7402 1.79922V4.89922C11.7402 5.22588 12.0135 5.49922 12.3402 5.49922Z" fill="white"/>
<path d="M8.00039 10.5C7.66705 10.5 7.40039 10.7666 7.40039 11.1V14.2C7.40039 14.5334 7.66705 14.8 8.00039 14.8C8.33375 14.8 8.60039 14.5334 8.60039 14.2V11.1C8.60039 10.7734 8.33375 10.5 8.00039 10.5Z" fill="white"/>
<path d="M3.66055 5.49922C3.99387 5.49922 4.26055 5.23255 4.26055 4.89922V1.79922C4.26055 1.46588 3.99387 1.19922 3.66055 1.19922C3.32721 1.19922 3.06055 1.46588 3.06055 1.79922V4.89922C3.06055 5.22588 3.32721 5.49922 3.66055 5.49922Z" fill="white"/>
<path d="M4.90031 6.78125H2.42031C2.08698 6.78125 1.82031 7.04792 1.82031 7.38125C1.82031 7.71459 2.08698 7.98125 2.42031 7.98125H3.06031V14.2013C3.06031 14.5346 3.32698 14.8013 3.66031 14.8013C3.99365 14.8013 4.26031 14.5346 4.26031 14.2013V7.98125H4.90031C5.23365 7.98125 5.50031 7.71459 5.50031 7.38125C5.50031 7.04792 5.22698 6.78125 4.90031 6.78125Z" fill="white"/>
<path d="M13.58 6.78125H11.1C10.7666 6.78125 10.5 7.04792 10.5 7.38125C10.5 7.71459 10.7666 7.98125 11.1 7.98125H11.74V14.2013C11.74 14.5346 12.0066 14.8013 12.34 14.8013C12.6734 14.8013 12.94 14.5346 12.94 14.2013V7.98125H13.58C13.9134 7.98125 14.18 7.71459 14.18 7.38125C14.18 7.04792 13.9134 6.78125 13.58 6.78125Z" fill="white"/>
<path d="M9.24016 8.01922H8.60016V1.79922C8.60016 1.46588 8.33344 1.19922 8.00016 1.19922C7.6668 1.19922 7.40013 1.46588 7.40013 1.79922V8.01922H6.76013C6.42682 8.01922 6.16016 8.28594 6.16016 8.61922C6.16016 8.95258 6.42682 9.21922 6.76013 9.21922H9.24016C9.57344 9.21922 9.84016 8.95258 9.84016 8.61922C9.84016 8.28594 9.57344 8.01922 9.24016 8.01922Z" fill="white"/>
</svg>
