<svg width="16" height="16" viewBox="0 0 16 16" fill="none" xmlns="http://www.w3.org/2000/svg">
<path d="M13.4006 6.1463C12.194 6.1463 11.7006 5.29297 12.3006 4.2463C12.6474 3.63963 12.4406 2.8663 11.834 2.51963L10.6806 1.85963C10.154 1.5463 9.47399 1.73297 9.16063 2.25963L9.08735 2.3863C8.48735 3.43297 7.50066 3.43297 6.89398 2.3863L6.82065 2.25963C6.52065 1.73297 5.84066 1.5463 5.31398 1.85963L4.16066 2.51963C3.55398 2.8663 3.34732 3.6463 3.69398 4.25297C4.30066 5.29297 3.80732 6.1463 2.60066 6.1463C1.90732 6.1463 1.33398 6.71293 1.33398 7.41293V8.5863C1.33398 9.27958 1.90066 9.85294 2.60066 9.85294C3.80732 9.85294 4.30066 10.7063 3.69398 11.7529C3.34732 12.3596 3.55398 13.1329 4.16066 13.4796L5.31398 14.1396C5.84066 14.4529 6.52066 14.2663 6.83398 13.7396L6.90732 13.6129C7.50732 12.5663 8.49399 12.5663 9.10063 13.6129L9.17399 13.7396C9.48735 14.2663 10.1674 14.4529 10.694 14.1396L11.8474 13.4796C12.454 13.1329 12.6606 12.3529 12.314 11.7529C11.7074 10.7063 12.2006 9.85294 13.4074 9.85294C14.1006 9.85294 14.674 9.2863 14.674 8.5863V7.41293C14.6674 6.7196 14.1006 6.1463 13.4006 6.1463ZM8.00063 10.1663C6.80732 10.1663 5.83398 9.19294 5.83398 7.9996C5.83398 6.80627 6.80732 5.83297 8.00063 5.83297C9.19399 5.83297 10.1674 6.80627 10.1674 7.9996C10.1674 9.19294 9.19399 10.1663 8.00063 10.1663Z" fill="white"/>
</svg>
