<svg width="16" height="16" viewBox="0 0 16 16" fill="none" xmlns="http://www.w3.org/2000/svg">
<path d="M8.95415 10.0009H2.93421C1.72088 10.0009 0.947542 8.70092 1.53421 7.63425L3.08754 4.8076L4.54087 2.16094C5.14754 1.06094 6.73418 1.06094 7.34085 2.16094L8.80087 4.8076L9.50087 6.08094L10.3541 7.63425C10.9409 8.70092 10.1675 10.0009 8.95415 10.0009Z" fill="white"/>
<path d="M15.0992 10.666C15.0992 13.0593 13.1592 14.9993 10.7659 14.9993C8.73258 14.9993 7.03255 13.606 6.5592 11.7127C6.51253 11.5127 6.66587 11.3327 6.87255 11.3327H9.38586C10.3126 11.3327 11.1526 10.8527 11.6259 10.0593C12.0926 9.25932 12.1126 8.29932 11.6592 7.48602L11.3259 6.87269C11.1992 6.64599 11.3792 6.37265 11.6326 6.41932C13.6059 6.81935 15.0992 8.56604 15.0992 10.666Z" fill="white"/>
</svg>
