<svg width="16" height="16" viewBox="0 0 16 16" fill="none" xmlns="http://www.w3.org/2000/svg">
<path d="M7.83398 4.66406H7.33398H4.66732C2.82732 4.66406 1.33398 6.1574 1.33398 7.9974V11.3308C1.33398 13.1708 2.82732 14.664 4.66732 14.664H8.00063C9.84063 14.664 11.334 13.1708 11.334 11.3308V8.66404V8.16404C11.334 6.23073 9.76735 4.66406 7.83398 4.66406Z" fill="white"/>
<path d="M14.5867 4.22283C14.9365 5.92921 14.1083 7.47747 12.7729 8.20661C12.5678 8.31853 12.3334 8.15885 12.3334 7.92514V7.83614C12.3334 5.54283 10.4601 3.66949 8.16671 3.66949H8.07775C7.84414 3.66949 7.68434 3.43513 7.79634 3.23007C8.52551 1.89467 10.0737 1.06643 11.7801 1.41616C13.1734 1.70283 14.3001 2.82949 14.5867 4.22283Z" fill="white"/>
</svg>
