<svg width="16" height="16" viewBox="0 0 16 16" fill="none" xmlns="http://www.w3.org/2000/svg">
<path d="M10.3996 3.60156C10.3996 2.49699 11.295 1.60156 12.3996 1.60156C13.5042 1.60156 14.3996 2.49699 14.3996 3.60156C14.3996 4.70613 13.5042 5.60156 12.3996 5.60156C11.835 5.60156 11.3251 5.36766 10.9615 4.99147L5.57468 7.68488C5.59109 7.78803 5.59961 7.8938 5.59961 8.00156C5.59961 8.10932 5.59108 8.21516 5.57467 8.31828L10.9614 11.0117C11.3251 10.6355 11.835 10.4016 12.3996 10.4016C13.5042 10.4016 14.3996 11.297 14.3996 12.4016C14.3996 13.5061 13.5042 14.4016 12.3996 14.4016C11.295 14.4016 10.3996 13.5061 10.3996 12.4016C10.3996 12.2938 10.4082 12.188 10.4246 12.0848L5.03772 9.39148C4.67407 9.76764 4.16415 10.0016 3.59961 10.0016C2.49504 10.0016 1.59961 9.10612 1.59961 8.00156C1.59961 6.89699 2.49504 6.00156 3.59961 6.00156C4.16418 6.00156 4.67411 6.23549 5.03776 6.6117L10.4246 3.91831C10.4082 3.81514 10.3996 3.70935 10.3996 3.60156Z" fill="#0F172A"/>
</svg>
