<svg width="16" height="16" viewBox="0 0 16 16" fill="none" xmlns="http://www.w3.org/2000/svg">
<path fill-rule="evenodd" clip-rule="evenodd" d="M7.72848 1.78906C7.88528 1.65885 8.11393 1.65885 8.27073 1.78906C9.82177 3.07694 11.7848 3.88578 13.9329 3.98861C14.126 3.99785 14.2909 4.13732 14.3162 4.32895C14.3712 4.74484 14.3996 5.16912 14.3996 5.60003C14.3996 9.72997 11.7917 13.2508 8.13281 14.6056C8.04705 14.6373 7.95243 14.6373 7.86663 14.6056C4.20764 13.2508 1.59961 9.72997 1.59961 5.59993C1.59961 5.16905 1.62799 4.74481 1.683 4.32896C1.70835 4.13732 1.87323 3.99785 2.06631 3.98861C4.21441 3.88579 6.17746 3.07695 7.72848 1.78906ZM11.0849 6.55271C11.2798 6.28472 11.2205 5.90947 10.9525 5.71457C10.6845 5.51966 10.3093 5.57891 10.1143 5.8469L7.32736 9.67901L5.82387 8.17557C5.58956 7.94123 5.20966 7.94123 4.97535 8.17557C4.74103 8.40989 4.74103 8.78973 4.97535 9.02405L6.97535 11.024C7.09943 11.1481 7.2716 11.2117 7.44655 11.198C7.62148 11.1842 7.78164 11.0946 7.88485 10.9527L11.0849 6.55271Z" fill="#0F172A"/>
</svg>
