<svg width="16" height="16" viewBox="0 0 16 16" fill="none" xmlns="http://www.w3.org/2000/svg">
<path fill-rule="evenodd" clip-rule="evenodd" d="M8.27073 1.78906C8.11393 1.65885 7.88528 1.65885 7.72848 1.78906C6.17746 3.07695 4.21441 3.88579 2.06631 3.98861C1.87323 3.99785 1.70835 4.13732 1.683 4.32896C1.62799 4.74481 1.59961 5.16905 1.59961 5.59993C1.59961 9.73 4.20764 13.2509 7.86663 14.6056C7.95243 14.6374 8.04705 14.6374 8.13281 14.6056C11.7917 13.2508 14.3996 9.73 14.3996 5.60004C14.3996 5.16912 14.3712 4.74484 14.3162 4.32895C14.2909 4.13732 14.126 3.99785 13.9329 3.98861C11.7848 3.88579 9.82177 3.07695 8.27073 1.78906ZM7.99961 4.79976C8.33097 4.79976 8.59961 5.06839 8.59961 5.39976V8.19976C8.59961 8.53112 8.33097 8.79976 7.99961 8.79976C7.66824 8.79976 7.39961 8.53112 7.39961 8.19976V5.39976C7.39961 5.06839 7.66824 4.79976 7.99961 4.79976ZM7.99961 11.9998C8.44145 11.9998 8.79961 11.6416 8.79961 11.1998C8.79961 10.7579 8.44145 10.3998 7.99961 10.3998C7.55779 10.3998 7.19961 10.7579 7.19961 11.1998C7.19961 11.6416 7.55779 11.9998 7.99961 11.9998Z" fill="#0F172A"/>
</svg>
