<svg width="16" height="16" viewBox="0 0 16 16" fill="none" xmlns="http://www.w3.org/2000/svg">
<path d="M12.9666 4.62969V6.30302C12.9666 6.77634 12.4866 7.083 12.04 6.91634C11.48 6.70967 10.86 6.62968 10.2066 6.69634C8.62001 6.86967 6.99333 8.39636 6.72666 9.97636C6.50669 11.2896 6.92666 12.5164 7.73333 13.383C8.10001 13.783 7.85333 14.4296 7.31333 14.4896C6.85333 14.543 6.40002 14.5296 6.14669 14.343L2.48002 11.603C2.04669 11.2764 1.69336 10.5696 1.69336 10.023V4.62969C1.69336 3.87635 2.26669 3.04969 2.96669 2.78302L6.63336 1.40968C7.01333 1.26969 7.64 1.26969 8.02001 1.40968L11.6866 2.78302C12.3934 3.04969 12.9666 3.87635 12.9666 4.62969Z" fill="white"/>
<path d="M10.666 7.67188C9.01265 7.67188 7.66602 9.01856 7.66602 10.6718C7.66602 12.3252 9.01265 13.6718 10.666 13.6718C12.3194 13.6718 13.666 12.3252 13.666 10.6718C13.666 9.01184 12.3194 7.67188 10.666 7.67188Z" fill="white"/>
<path d="M14.0006 14.6699C13.8206 14.6699 13.654 14.5965 13.5273 14.4765C13.5006 14.4432 13.4673 14.4099 13.4473 14.3699C13.4206 14.3365 13.4006 14.2965 13.3873 14.2565C13.3673 14.2165 13.354 14.1765 13.3473 14.1365C13.3406 14.0899 13.334 14.0499 13.334 14.0032C13.334 13.9165 13.354 13.8299 13.3873 13.7499C13.4206 13.6632 13.4673 13.5965 13.5273 13.5299C13.6806 13.3765 13.914 13.3032 14.1273 13.3499C14.174 13.3565 14.214 13.3699 14.254 13.3899C14.294 13.4032 14.334 13.4232 14.3673 13.4499C14.4073 13.4699 14.4406 13.5032 14.474 13.5299C14.534 13.5965 14.5806 13.6632 14.614 13.7499C14.6473 13.8299 14.6673 13.9165 14.6673 14.0032C14.6673 14.1765 14.594 14.3499 14.474 14.4765C14.4406 14.5032 14.4073 14.5299 14.3673 14.5565C14.334 14.5832 14.294 14.6032 14.254 14.6165C14.214 14.6365 14.174 14.6499 14.1273 14.6565C14.0873 14.6632 14.0406 14.6699 14.0006 14.6699Z" fill="white"/>
</svg>
