<svg width="16" height="16" viewBox="0 0 16 16" fill="none" xmlns="http://www.w3.org/2000/svg">
<path d="M12.3605 2.74786L8.69382 1.37453C8.31382 1.23453 7.69385 1.23453 7.31385 1.37453L3.64719 2.74786C2.94052 3.01453 2.36719 3.8412 2.36719 4.59453V9.99454C2.36719 10.5345 2.72052 11.2478 3.15385 11.5678L6.82052 14.3078C7.46719 14.7945 8.52718 14.7945 9.17382 14.3078L12.8405 11.5678C13.2738 11.2412 13.6272 10.5345 13.6272 9.99454V4.59453C13.6338 3.8412 13.0605 3.01453 12.3605 2.74786ZM10.3205 6.4812L7.45385 9.34782C7.35385 9.44782 7.22719 9.49454 7.10052 9.49454C6.97385 9.49454 6.84719 9.44782 6.74719 9.34782L5.68052 8.26782C5.48719 8.07454 5.48719 7.7545 5.68052 7.56117C5.87385 7.36784 6.19385 7.36784 6.38719 7.56117L7.10719 8.28118L9.62054 5.76786C9.81382 5.57453 10.1338 5.57453 10.3272 5.76786C10.5205 5.9612 10.5205 6.28786 10.3205 6.4812Z" fill="white"/>
</svg>
