<svg width="16" height="16" viewBox="0 0 16 16" fill="none" xmlns="http://www.w3.org/2000/svg">
<path d="M12.9072 3.09453L3.88719 12.1145L3.15385 11.5678C2.72052 11.2412 2.36719 10.5345 2.36719 9.98782V4.59453C2.36719 3.8412 2.94052 3.01453 3.64052 2.74786L7.30719 1.37453C7.68719 1.23453 8.31382 1.23453 8.69382 1.37453L12.3605 2.74786C12.5538 2.8212 12.7405 2.9412 12.9072 3.09453Z" fill="white"/>
<path d="M13.634 9.98848C13.634 10.5352 13.2806 11.2418 12.8473 11.5685L9.18062 14.3085C8.52734 14.7885 7.47398 14.7885 6.82065 14.3085L5.64731 13.4352C5.32065 13.1952 5.28731 12.7152 5.57397 12.4285L12.494 5.50851C12.914 5.08851 13.634 5.38851 13.634 5.98184V9.98848Z" fill="white"/>
<path d="M14.5126 1.48594C14.3126 1.28594 13.9859 1.28594 13.7859 1.48594L1.48594 13.7926C1.28594 13.9926 1.28594 14.3193 1.48594 14.5193C1.58594 14.6126 1.7126 14.666 1.84594 14.666C1.97927 14.666 2.10594 14.6126 2.20594 14.5126L14.5126 2.20594C14.7193 2.00594 14.7193 1.68594 14.5126 1.48594Z" fill="white"/>
</svg>
