<svg width="16" height="16" viewBox="0 0 16 16" fill="none" xmlns="http://www.w3.org/2000/svg">
<path d="M14.4205 9.77258L14.1471 11.0126C13.6737 13.1459 12.0005 14.6659 9.58711 14.6659H6.41381C4.00048 14.6659 2.32714 13.1459 1.85381 11.0126L1.58048 9.77258C1.44714 9.16586 1.80714 8.47922 2.38714 8.24586L3.33381 7.8659L7.00712 6.39255C7.32712 6.26588 7.66712 6.19922 8.00047 6.19922C8.33375 6.19922 8.67375 6.26588 8.99375 6.39255L12.6671 7.8659L13.6138 8.24586C14.1938 8.47922 14.5537 9.16586 14.4205 9.77258Z" fill="white"/>
<path d="M12.6674 5.33594V6.29594C12.6674 6.52927 12.4274 6.69594 12.2074 6.6026L9.36063 5.4626C8.48735 5.1226 7.51398 5.1226 6.63398 5.46927L3.79398 6.60927C3.57398 6.7026 3.33398 6.53594 3.33398 6.3026V5.33594C3.33398 4.23594 4.23398 3.33594 5.33398 3.33594H10.6674C11.7674 3.33594 12.6674 4.23594 12.6674 5.33594Z" fill="white"/>
<path d="M9.66735 3.33594H6.33398V2.0026C6.33398 1.63594 6.63398 1.33594 7.00066 1.33594H9.00063C9.36735 1.33594 9.66735 1.63594 9.66735 2.0026V3.33594Z" fill="white"/>
</svg>
