<svg width="16" height="16" viewBox="0 0 16 16" fill="none" xmlns="http://www.w3.org/2000/svg">
<path d="M14.9064 5.51594L14.713 3.66927C14.433 1.65594 13.5198 0.835938 11.5665 0.835938H9.99304H9.00648H6.9798H5.9931H4.3931C2.4331 0.835938 1.52643 1.65594 1.23977 3.68927L1.05977 5.5226C0.993096 6.23594 1.18643 6.92927 1.60643 7.46927C2.1131 8.12924 2.8931 8.5026 3.75977 8.5026C4.59977 8.5026 5.40643 8.0826 5.9131 7.40927C6.36643 8.0826 7.1398 8.5026 7.9998 8.5026C8.85976 8.5026 9.61304 8.1026 10.073 7.43594C10.5864 8.09596 11.3798 8.5026 12.2064 8.5026C13.093 8.5026 13.893 8.10924 14.393 7.41594C14.793 6.8826 14.973 6.20927 14.9064 5.51594Z" fill="white"/>
<path d="M7.56673 11.1094C6.72006 11.1962 6.08008 11.9162 6.08008 12.7694V14.5962C6.08008 14.7762 6.22674 14.9228 6.40674 14.9228H9.58673C9.76673 14.9228 9.91337 14.7762 9.91337 14.5962V13.0028C9.92009 11.6094 9.10009 10.9494 7.56673 11.1094Z" fill="white"/>
<path d="M14.2473 9.6V11.5867C14.2473 13.4267 12.7539 14.92 10.9139 14.92C10.7339 14.92 10.5873 14.7734 10.5873 14.5934V13C10.5873 12.1467 10.3273 11.48 9.82062 11.0267C9.3739 10.62 8.76726 10.42 8.0139 10.42C7.84725 10.42 7.68059 10.4267 7.50059 10.4467C6.31391 10.5667 5.41391 11.5667 5.41391 12.7667V14.5934C5.41391 14.7734 5.26723 14.92 5.08723 14.92C3.24723 14.92 1.75391 13.4267 1.75391 11.5867V9.61336C1.75391 9.14672 2.21391 8.83336 2.64723 8.98672C2.82723 9.04672 3.00723 9.09336 3.19391 9.12C3.27391 9.13336 3.36057 9.14672 3.44057 9.14672C3.54723 9.16 3.65391 9.16672 3.76057 9.16672C4.53391 9.16672 5.29391 8.88 5.89391 8.38672C6.46723 8.88 7.21391 9.16672 8.00059 9.16672C8.7939 9.16672 9.52726 8.89336 10.1006 8.4C10.7006 8.88672 11.4473 9.16672 12.2073 9.16672C12.3273 9.16672 12.4473 9.16 12.5606 9.14672C12.6406 9.14 12.7139 9.13336 12.7873 9.12C12.9939 9.09336 13.1806 9.03336 13.3673 8.97336C13.8006 8.82672 14.2473 9.14672 14.2473 9.6Z" fill="white"/>
</svg>
