<svg width="16" height="16" viewBox="0 0 16 16" fill="none" xmlns="http://www.w3.org/2000/svg">
<g clip-path="url(#clip0_13_15448)">
<path d="M0.800781 1.40078C0.800781 1.06941 1.06941 0.800781 1.40078 0.800781H2.70355C3.40283 0.800781 3.99487 1.31677 4.09042 2.00949L4.14442 2.40097C7.80807 2.41089 11.3833 2.79976 14.8326 3.53067C15.1524 3.59843 15.3591 3.90969 15.2975 4.2307C14.9724 5.92517 14.5381 7.5809 14.0024 9.1903C13.9208 9.43542 13.6915 9.60078 13.4331 9.60078H4.80078C4.70932 9.60078 4.61959 9.60686 4.53193 9.61862C3.82914 9.71278 3.24152 10.173 2.96715 10.8008H13.8008C14.1321 10.8008 14.4008 11.0694 14.4008 11.4008C14.4008 11.7321 14.1321 12.0008 13.8008 12.0008H2.20837C2.04133 12.0008 1.88185 11.9312 1.7683 11.8086C1.65476 11.6861 1.59742 11.5218 1.61009 11.3553C1.70931 10.051 2.58899 8.9663 3.78341 8.56606L2.90168 2.17345C2.88803 2.07449 2.80345 2.00078 2.70355 2.00078H1.40078C1.06941 2.00078 0.800781 1.73215 0.800781 1.40078Z" fill="#0F172A"/>
<path d="M4.80039 14.0008C4.80039 14.6635 4.26313 15.2008 3.60039 15.2008C2.93765 15.2008 2.40039 14.6635 2.40039 14.0008C2.40039 13.3381 2.93765 12.8008 3.60039 12.8008C4.26313 12.8008 4.80039 13.3381 4.80039 14.0008Z" fill="#0F172A"/>
<path d="M12.3992 15.2008C13.0619 15.2008 13.5992 14.6635 13.5992 14.0008C13.5992 13.3381 13.0619 12.8008 12.3992 12.8008C11.7365 12.8008 11.1992 13.3381 11.1992 14.0008C11.1992 14.6635 11.7365 15.2008 12.3992 15.2008Z" fill="#0F172A"/>
</g>
<defs>
<clipPath id="clip0_13_15448">
<rect width="16" height="16" fill="white"/>
</clipPath>
</defs>
</svg>
