<svg width="16" height="16" viewBox="0 0 16 16" fill="none" xmlns="http://www.w3.org/2000/svg">
<path fill-rule="evenodd" clip-rule="evenodd" d="M4.79922 4.00078V4.80078H3.73285C3.00666 4.80078 2.40102 5.35604 2.33812 6.0795L1.67724 13.6795C1.60611 14.4975 2.25092 15.2008 3.07198 15.2008H12.9268C13.7479 15.2008 14.3927 14.4975 14.3215 13.6795L13.6607 6.0795C13.5978 5.35604 12.9921 4.80078 12.2659 4.80078H11.1992V4.00078C11.1992 2.23347 9.7665 0.800781 7.99922 0.800781C6.23191 0.800781 4.79922 2.23347 4.79922 4.00078ZM7.99922 2.00078C6.89465 2.00078 5.99922 2.89621 5.99922 4.00078V4.80078H9.99922V4.00078C9.99922 2.89621 9.10378 2.00078 7.99922 2.00078ZM5.99922 8.00078C5.99922 9.10534 6.89465 10.0008 7.99922 10.0008C9.10378 10.0008 9.99922 9.10534 9.99922 8.00078V7.00078C9.99922 6.66941 10.2679 6.40078 10.5992 6.40078C10.9306 6.40078 11.1992 6.66941 11.1992 7.00078V8.00078C11.1992 9.76806 9.7665 11.2008 7.99922 11.2008C6.23191 11.2008 4.79922 9.76806 4.79922 8.00078V7.00078C4.79922 6.66941 5.06785 6.40078 5.39922 6.40078C5.73059 6.40078 5.99922 6.66941 5.99922 7.00078V8.00078Z" fill="#0F172A"/>
</svg>
