<svg width="16" height="16" viewBox="0 0 16 16" fill="none" xmlns="http://www.w3.org/2000/svg">
<path d="M5.2008 14.7655C3.43414 14.7655 1.99414 13.3322 1.99414 11.5588V9.66555C1.99414 9.21883 2.43414 8.91883 2.85414 9.06555C3.02747 9.12555 3.2008 9.16555 3.3808 9.19219C3.4608 9.20555 3.5408 9.21883 3.6208 9.21883C3.7208 9.23219 3.82747 9.23883 3.92747 9.23883C4.66747 9.23883 5.4008 8.96555 5.9808 8.49219C6.53414 8.96555 7.24745 9.23883 8.00743 9.23883C8.76743 9.23883 9.47415 8.97883 10.0274 8.49883C10.6008 8.96555 11.3208 9.23883 12.0541 9.23883C12.1674 9.23883 12.2874 9.23219 12.3941 9.21883C12.4741 9.21219 12.5408 9.20555 12.6141 9.19219C12.8141 9.16555 12.9941 9.11219 13.1741 9.05219C13.5874 8.91219 14.0208 9.21883 14.0208 9.65219V11.5588C14.0208 13.3255 12.5874 14.7655 10.8141 14.7655H5.2008Z" fill="white"/>
<path d="M14.6539 5.72771L14.4673 3.95437C14.2005 2.02104 13.3205 1.23438 11.4473 1.23438H4.54722C2.66722 1.23438 1.79388 2.02104 1.52055 3.97438L1.34722 5.73438C1.28055 6.42104 1.46722 7.0877 1.87388 7.6077C2.36055 8.24104 3.10722 8.60104 3.94055 8.60104C4.74722 8.60104 5.52055 8.1944 6.01388 7.5477C6.44722 8.1944 7.18725 8.60104 8.01391 8.60104C8.84055 8.60104 9.56727 8.2144 10.0073 7.57437C10.5005 8.20768 11.2673 8.60104 12.0605 8.60104C12.9139 8.60104 13.6805 8.22104 14.1605 7.55437C14.5473 7.04103 14.7205 6.39437 14.6539 5.72771ZM9.00055 5.15437H7.00058C6.72725 5.15437 6.50055 4.93437 6.50055 4.65437C6.50055 4.38104 6.72725 4.15437 7.00058 4.15437H9.00055C9.27391 4.15437 9.50055 4.38104 9.50055 4.65437C9.50055 4.93437 9.27391 5.15437 9.00055 5.15437Z" fill="white"/>
</svg>
