<svg width="16" height="16" viewBox="0 0 16 16" fill="none" xmlns="http://www.w3.org/2000/svg">
<path d="M14.4992 11.9885C14.4992 11.9752 14.4925 11.9619 14.4925 11.9485C14.4859 11.8952 14.4792 11.8419 14.4592 11.7952C14.4325 11.7352 14.3992 11.6885 14.3592 11.6419C14.3592 11.6419 14.3592 11.6352 14.3525 11.6352C14.3059 11.5885 14.2525 11.5552 14.1925 11.5285C14.1325 11.5019 14.0659 11.4885 13.9992 11.4885L10.8859 11.5019C10.8859 11.5019 10.8859 11.5019 10.8792 11.5019C10.4792 11.5019 10.0925 11.3152 9.85253 10.9952L9.03917 9.94854C8.87253 9.72854 8.55917 9.68854 8.33917 9.8619C8.11917 10.0352 8.07917 10.3419 8.25253 10.5619L9.06589 11.6085C9.49917 12.1685 10.1792 12.5019 10.8859 12.5019H10.8925L12.7925 12.4952L12.3192 12.9685C12.1259 13.1619 12.1259 13.4819 12.3192 13.6752C12.4192 13.7752 12.5459 13.8219 12.6725 13.8219C12.7992 13.8219 12.9259 13.7752 13.0259 13.6752L14.3592 12.3419C14.4059 12.2952 14.4392 12.2419 14.4659 12.1819C14.4859 12.1152 14.4992 12.0485 14.4992 11.9885Z" fill="white"/>
<path d="M5.61334 4.46115C5.18 3.86115 4.48666 3.50781 3.74666 3.50781C3.74 3.50781 3.74 3.50781 3.73334 3.50781L2 3.51448C1.72666 3.51448 1.5 3.74115 1.5 4.01448C1.5 4.28781 1.72666 4.51448 2 4.51448L3.74 4.50781H3.74666C4.16666 4.50781 4.56 4.70781 4.8 5.04781L5.52 6.04781C5.62 6.18115 5.77334 6.25448 5.92666 6.25448C6.02666 6.25448 6.13334 6.22115 6.22 6.16115C6.44666 5.99448 6.49334 5.68114 6.33334 5.46114L5.61334 4.46115Z" fill="white"/>
<path d="M14.4934 4.0525C14.4934 4.03917 14.5 4.02583 14.5 4.01917C14.5 3.9525 14.4866 3.88583 14.46 3.82583C14.4334 3.76583 14.4 3.7125 14.3534 3.66583L13.02 2.3325C12.8266 2.13917 12.5066 2.13917 12.3134 2.3325C12.12 2.52583 12.12 2.84583 12.3134 3.03917L12.7866 3.5125L10.9666 3.50583C10.96 3.50583 10.96 3.50583 10.9534 3.50583C10.1866 3.50583 9.46664 3.88583 9.04 4.5325L4.78 10.9192C4.54 11.2792 4.13334 11.4992 3.7 11.4992H3.69334L2 11.4858C1.72666 11.4858 1.5 11.7058 1.5 11.9858C1.5 12.2592 1.72 12.4858 2 12.4858L3.7 12.4925C3.70666 12.4925 3.70666 12.4925 3.71334 12.4925C4.48666 12.4925 5.2 12.1125 5.62666 11.4658L9.88664 5.07917C10.1266 4.71917 10.5334 4.49917 10.9666 4.49917H10.9734L14 4.5125C14.0666 4.5125 14.1266 4.49917 14.1934 4.4725C14.2534 4.44583 14.3066 4.4125 14.3534 4.36583C14.3534 4.36583 14.3534 4.35917 14.36 4.35917C14.4 4.3125 14.44 4.26583 14.46 4.20583C14.48 4.15917 14.4866 4.10583 14.4934 4.0525Z" fill="white"/>
</svg>
