<svg width="16" height="16" viewBox="0 0 16 16" fill="none" xmlns="http://www.w3.org/2000/svg">
<g clip-path="url(#clip0_13_15459)">
<path d="M8.00063 15.1692C4.04732 15.1692 0.833984 11.956 0.833984 8.0026C0.833984 7.00927 1.03399 6.05594 1.42733 5.14927C1.54066 4.89594 1.83398 4.7826 2.08732 4.88927C2.34066 5.0026 2.454 5.29595 2.34734 5.54927C2.014 6.32261 1.84066 7.14927 1.84066 8.0026C1.84066 11.4026 4.60733 14.1692 8.00735 14.1692C11.4074 14.1692 14.174 11.4026 14.174 8.0026C14.174 4.6026 11.4074 1.83594 8.00735 1.83594C7.14732 1.83594 6.3073 2.00927 5.5273 2.35594C5.28064 2.46927 4.98065 2.35593 4.86731 2.10259C4.75398 1.84927 4.86731 1.55594 5.12065 1.4426C6.03398 1.0426 7.00066 0.835938 8.00735 0.835938C11.9606 0.835938 15.174 4.04927 15.174 8.0026C15.174 11.956 11.954 15.1692 8.00063 15.1692Z" fill="white"/>
<path d="M10.6666 10.164V7.9974C10.6666 6.43073 9.4 5.16406 7.83334 5.16406C6.26666 5.16406 5 6.43073 5 7.9974C5 9.56404 6.26666 10.8308 7.83334 10.8308H10C10.3666 10.8308 10.6666 10.5308 10.6666 10.164Z" fill="white"/>
<path d="M3.33341 4.5848C4.02561 4.5848 4.58675 4.02365 4.58675 3.33146C4.58675 2.63926 4.02561 2.07812 3.33341 2.07812C2.64121 2.07812 2.08008 2.63926 2.08008 3.33146C2.08008 4.02365 2.64121 4.5848 3.33341 4.5848Z" fill="white"/>
</g>
<defs>
<clipPath id="clip0_13_15459">
<rect width="16" height="16" fill="white"/>
</clipPath>
</defs>
</svg>
