<svg width="16" height="16" viewBox="0 0 16 16" fill="none" xmlns="http://www.w3.org/2000/svg">
<path d="M13.9669 2.75594C13.7735 2.47594 13.5269 2.22927 13.2469 2.03594C12.6135 1.57594 11.7869 1.33594 10.7935 1.33594H5.20684C2.91352 1.33594 1.49352 2.62927 1.35352 4.81594H14.6535C14.6002 3.99594 14.3669 3.3026 13.9669 2.75594Z" fill="white"/>
<path d="M1.33398 10.7925C1.33398 11.7858 1.57398 12.6125 2.03398 13.2458C2.22732 13.5258 2.47398 13.7725 2.75398 13.9658C3.38732 14.4258 4.21398 14.6658 5.20732 14.6658H10.794C13.2206 14.6658 14.6674 13.2192 14.6674 10.7925V5.8125H1.33398V10.7925ZM5.94066 9.62584L7.64732 7.91917C7.84066 7.72584 8.16063 7.72584 8.35399 7.91917L10.0606 9.62584C10.1606 9.72584 10.2074 9.85248 10.2074 9.9792C10.2074 10.1058 10.1606 10.2325 10.0606 10.3325C9.86735 10.5258 9.54735 10.5258 9.35399 10.3325L8.00063 8.98584L6.64732 10.3325C6.45398 10.5258 6.13398 10.5258 5.94066 10.3325C5.74732 10.1392 5.74732 9.82584 5.94066 9.62584Z" fill="white"/>
</svg>
