<svg width="16" height="16" viewBox="0 0 16 16" fill="none" xmlns="http://www.w3.org/2000/svg">
<path d="M1.33398 5.20489V10.7916C1.33398 11.7849 1.57398 12.6116 2.03398 13.2449C2.22732 13.5249 2.47398 13.7716 2.75398 13.9649C3.30066 14.3649 3.99398 14.5982 4.81398 14.6516V1.35156C2.62732 1.49156 1.33398 2.91156 1.33398 5.20489Z" fill="white"/>
<path d="M13.9658 2.75594C13.7725 2.47594 13.5258 2.22927 13.2458 2.03594C12.6125 1.57594 11.7858 1.33594 10.7925 1.33594H5.8125V14.6692H10.7925C13.2191 14.6692 14.6658 13.2226 14.6658 10.796V5.20927C14.6658 4.21594 14.4258 3.38927 13.9658 2.75594ZM10.3325 9.35596C10.5258 9.54924 10.5258 9.86924 10.3325 10.0626C10.2325 10.1626 10.1058 10.2092 9.97914 10.2092C9.8525 10.2092 9.72578 10.1626 9.62578 10.0626L7.91915 8.35596C7.72581 8.1626 7.72581 7.8426 7.91915 7.64927L9.62578 5.9426C9.81914 5.74927 10.1391 5.74927 10.3325 5.9426C10.5258 6.13594 10.5258 6.45594 10.3325 6.64927L8.98578 8.0026L10.3325 9.35596Z" fill="white"/>
</svg>
