<svg width="16" height="16" viewBox="0 0 16 16" fill="none" xmlns="http://www.w3.org/2000/svg">
<path d="M2.03237 13.2475C2.2257 13.5275 2.47237 13.7741 2.75237 13.9675C3.3857 14.4275 4.21237 14.6675 5.2057 14.6675H10.7923C13.0857 14.6675 14.5057 13.3741 14.6457 11.1875H1.3457C1.39903 12.0075 1.63237 12.7008 2.03237 13.2475Z" fill="white"/>
<path d="M13.9674 2.75594C13.774 2.47594 13.5274 2.22927 13.2474 2.03594C12.614 1.57594 11.7874 1.33594 10.794 1.33594H5.20732C2.78066 1.33594 1.33398 2.7826 1.33398 5.20927V10.1892H14.6674V5.20927C14.6674 4.21594 14.4274 3.38927 13.9674 2.75594ZM10.0606 6.37594L8.35399 8.0826C8.16063 8.27596 7.84066 8.27596 7.64732 8.0826L5.94066 6.37594C5.84066 6.27594 5.79398 6.14927 5.79398 6.0226C5.79398 5.89594 5.84066 5.7626 5.94066 5.66927C6.13398 5.46927 6.45398 5.46927 6.64732 5.66927L8.00063 7.01594L9.35399 5.6626C9.54735 5.46927 9.86735 5.46927 10.0606 5.6626C10.254 5.85594 10.254 6.17594 10.0606 6.37594Z" fill="white"/>
</svg>
