<svg width="16" height="16" viewBox="0 0 16 16" fill="none" xmlns="http://www.w3.org/2000/svg">
<path d="M5.20732 1.33594C4.21398 1.33594 3.38732 1.57594 2.75398 2.03594C2.47398 2.22927 2.22732 2.47594 2.03398 2.75594C1.57398 3.38927 1.33398 4.21594 1.33398 5.20927V10.796C1.33398 13.2226 2.78066 14.6692 5.20732 14.6692H10.1874V1.33594H5.20732ZM8.08063 8.35596L6.37398 10.0626C6.27398 10.1626 6.14732 10.2092 6.02066 10.2092C5.89398 10.2092 5.76732 10.1626 5.66732 10.0626C5.47398 9.86924 5.47398 9.54924 5.66732 9.35596L7.01398 8.0026L5.66732 6.64927C5.46732 6.45594 5.46732 6.13594 5.66732 5.9426C5.86732 5.74927 6.18066 5.74927 6.37398 5.9426L8.08063 7.64927C8.27399 7.8426 8.27399 8.1626 8.08063 8.35596Z" fill="white"/>
<path d="M11.1875 1.35156V14.6516C12.0075 14.5982 12.7009 14.3649 13.2475 13.9649C13.5275 13.7716 13.7741 13.5249 13.9675 13.2449C14.4275 12.6116 14.6675 11.7849 14.6675 10.7916V5.20489C14.6675 2.91156 13.3741 1.49156 11.1875 1.35156Z" fill="white"/>
</svg>
