<svg width="16" height="16" viewBox="0 0 16 16" fill="none" xmlns="http://www.w3.org/2000/svg">
<path d="M13.0907 2.91011C12.8564 2.6758 12.4765 2.6758 12.2421 2.91011C12.0078 3.14443 12.0078 3.52433 12.2421 3.75864C14.5853 6.10178 14.5853 9.90079 12.2421 12.2439C12.0078 12.4782 12.0078 12.8581 12.2421 13.0925C12.4765 13.3268 12.8564 13.3268 13.0907 13.0925C15.9025 10.2807 15.9025 5.72188 13.0907 2.91011Z" fill="#0F172A"/>
<path d="M3.75814 3.75864C3.99245 3.52433 3.99245 3.14443 3.75814 2.91011C3.52383 2.6758 3.14393 2.6758 2.90961 2.91011C0.0978372 5.72188 0.0978372 10.2807 2.90961 13.0925C3.14393 13.3268 3.52383 13.3268 3.75814 13.0925C3.99245 12.8581 3.99245 12.4782 3.75814 12.2439C1.415 9.90079 1.415 6.10178 3.75814 3.75864Z" fill="#0F172A"/>
<path d="M9.98043 5.17183C10.2147 4.93752 10.5946 4.93752 10.8289 5.17183C12.3911 6.73393 12.3911 9.26656 10.8289 10.8287C10.5946 11.063 10.2147 11.063 9.98043 10.8287C9.74611 10.5944 9.74611 10.2145 9.98043 9.98016C11.0739 8.88672 11.0739 7.11383 9.98043 6.02036C9.74611 5.78604 9.74611 5.40615 9.98043 5.17183Z" fill="#0F172A"/>
<path d="M6.02011 5.17183C6.25442 5.40615 6.25442 5.78604 6.02011 6.02036C4.92663 7.11383 4.92663 8.88672 6.02011 9.98016C6.25442 10.2145 6.25442 10.5944 6.02011 10.8287C5.78579 11.063 5.40589 11.063 5.17158 10.8287C3.60947 9.26656 3.60947 6.73393 5.17158 5.17183C5.40589 4.93752 5.78579 4.93752 6.02011 5.17183Z" fill="#0F172A"/>
<path d="M8.79922 7.99922C8.79922 8.44106 8.44106 8.79922 7.99922 8.79922C7.55739 8.79922 7.19922 8.44106 7.19922 7.99922C7.19922 7.55739 7.55739 7.19922 7.99922 7.19922C8.44106 7.19922 8.79922 7.55739 8.79922 7.99922Z" fill="#0F172A"/>
</svg>
