<svg width="16" height="16" viewBox="0 0 16 16" fill="none" xmlns="http://www.w3.org/2000/svg">
<path d="M12.2266 9.4226L10.7732 8.25596C10.5666 8.09596 10.3066 8.0026 10.0398 8.0026H8.49984V6.0026H11.4798C12.1266 6.0026 12.6466 5.4826 12.6466 4.83594V2.5026C12.6466 1.85594 12.1266 1.33594 11.4798 1.33594H5.97323C5.71323 1.33594 5.45323 1.42927 5.24656 1.58927L3.78656 2.75594C3.20656 3.2226 3.20656 4.11594 3.78656 4.5826L5.24656 5.74927C5.45323 5.90927 5.71323 6.0026 5.97323 6.0026H7.49987V8.0026H4.53323C3.88656 8.0026 3.36656 8.5226 3.36656 9.16924V11.5026C3.36656 12.1492 3.88656 12.6692 4.53323 12.6692H7.49987V14.1692H5.9999C5.72656 14.1692 5.4999 14.396 5.4999 14.6692C5.4999 14.9426 5.72656 15.1692 5.9999 15.1692H9.99984C10.2732 15.1692 10.4998 14.9426 10.4998 14.6692C10.4998 14.396 10.2732 14.1692 9.99984 14.1692H8.49984V12.6692H10.0398C10.3066 12.6692 10.5666 12.576 10.7732 12.416L12.2266 11.2492C12.8132 10.7826 12.8132 9.88924 12.2266 9.4226Z" fill="white"/>
</svg>
