<svg width="16" height="16" viewBox="0 0 16 16" fill="none" xmlns="http://www.w3.org/2000/svg">
<path d="M1.77534 1.7773C2.00966 1.54298 2.38956 1.54298 2.62387 1.7773L8.04969 7.2031C8.45161 7.22792 8.77321 7.54954 8.79809 7.95149L14.2238 13.3773C14.4582 13.6116 14.4582 13.9915 14.2238 14.2258C13.9895 14.4601 13.6097 14.4601 13.3754 14.2258L7.94954 8.80004C7.54759 8.77516 7.22597 8.45356 7.20115 8.05164L1.77534 2.62582C1.54103 2.39151 1.54103 2.01161 1.77534 1.7773Z" fill="#0F172A"/>
<path d="M2.90961 13.0929C0.537329 10.7206 0.166532 7.10478 1.79722 4.34375L2.67958 5.22611C1.49892 7.48802 1.85844 10.3447 3.75814 12.2444C3.99245 12.4787 3.99245 12.8586 3.75814 13.0929C3.52383 13.3272 3.14392 13.3272 2.90961 13.0929Z" fill="#0F172A"/>
<path d="M5.17158 10.8283C4.06729 9.72401 3.74365 8.13465 4.20066 6.74609L5.21058 7.75601C5.14144 8.55153 5.41129 9.37097 6.0201 9.97977C6.25442 10.2141 6.25442 10.594 6.0201 10.8283C5.78578 11.0626 5.40589 11.0626 5.17158 10.8283Z" fill="#0F172A"/>
<path d="M13.0907 2.91011C15.4629 5.28239 15.8337 8.89823 14.2031 11.6593L13.3207 10.7769C14.5013 8.51495 14.1418 5.65834 12.2421 3.75864C12.0078 3.52433 12.0078 3.14443 12.2421 2.91011C12.4765 2.6758 12.8564 2.6758 13.0907 2.91011Z" fill="#0F172A"/>
<path d="M10.8289 5.17183C11.9332 6.27611 12.2568 7.86542 11.7999 9.254L10.7899 8.24408C10.8591 7.44859 10.5892 6.62917 9.98043 6.02036C9.74611 5.78604 9.74611 5.40615 9.98043 5.17183C10.2147 4.93751 10.5946 4.93751 10.8289 5.17183Z" fill="#0F172A"/>
</svg>
