<svg width="16" height="16" viewBox="0 0 16 16" fill="none" xmlns="http://www.w3.org/2000/svg">
<path d="M13.0266 4.3626L10.98 2.31594C10.3534 1.68927 9.50664 1.33594 8.62 1.33594H5.33334C3.33334 1.33594 2 2.66927 2 4.66927V11.336C2 13.336 3.33334 14.6692 5.33334 14.6692H10.6666C12.6666 14.6692 14 13.336 14 11.336V6.71594C14 5.82927 13.6466 4.9826 13.0266 4.3626ZM7.66666 12.0026C7.66666 12.1867 7.5174 12.336 7.33334 12.336H6.66666C5.56666 12.336 4.66666 11.436 4.66666 10.336V10.0026C4.66666 9.81852 4.8159 9.66924 5 9.66924H7.5C7.59334 9.66924 7.66666 9.7426 7.66666 9.83596V12.0026ZM7.66666 8.83596C7.66666 8.92924 7.59334 9.0026 7.5 9.0026H5C4.8159 9.0026 4.66666 8.85332 4.66666 8.66924V8.33596C4.66666 7.23594 5.56666 6.33594 6.66666 6.33594H7.33334C7.5174 6.33594 7.66666 6.48518 7.66666 6.66927V8.83596ZM11.3334 10.336C11.3334 11.436 10.4334 12.336 9.33336 12.336H8.66664C8.48256 12.336 8.33336 12.1867 8.33336 12.0026V9.83596C8.33336 9.7426 8.40664 9.66924 8.5 9.66924H11C11.1841 9.66924 11.3334 9.81852 11.3334 10.0026V10.336ZM11.3334 8.66924C11.3334 8.85332 11.1841 9.0026 11 9.0026H8.5C8.40664 9.0026 8.33336 8.92924 8.33336 8.83596V6.66927C8.33336 6.48518 8.48256 6.33594 8.66664 6.33594H9.33336C10.4334 6.33594 11.3334 7.23594 11.3334 8.33596V8.66924Z" fill="white"/>
</svg>
