<svg width="16" height="16" viewBox="0 0 16 16" fill="none" xmlns="http://www.w3.org/2000/svg">
<path d="M13.0266 4.3626L10.98 2.31594C10.3534 1.68927 9.50664 1.33594 8.62 1.33594H5.33334C3.33334 1.33594 2 2.66927 2 4.66927V11.336C2 13.336 3.33334 14.6692 5.33334 14.6692H10.6666C12.6666 14.6692 14 13.336 14 11.336V6.71594C14 5.82927 13.6466 4.9826 13.0266 4.3626ZM6.68666 11.6492C6.88 11.8426 6.88 12.1626 6.68666 12.356C6.58666 12.456 6.46 12.5026 6.33334 12.5026C6.20666 12.5026 6.08 12.456 5.98 12.356L4.64666 11.0226C4.45334 10.8292 4.45334 10.5092 4.64666 10.316L5.98 8.9826C6.17334 8.78924 6.49334 8.78924 6.68666 8.9826C6.88 9.17596 6.88 9.49596 6.68666 9.68924L5.70666 10.6692L6.68666 11.6492ZM11.3534 11.0226L10.02 12.356C9.92 12.456 9.79336 12.5026 9.66664 12.5026C9.54 12.5026 9.41336 12.456 9.31336 12.356C9.12 12.1626 9.12 11.8426 9.31336 11.6492L10.2934 10.6692L9.31336 9.68924C9.12 9.49596 9.12 9.17596 9.31336 8.9826C9.50664 8.78924 9.82664 8.78924 10.02 8.9826L11.3534 10.316C11.5466 10.5092 11.5466 10.8292 11.3534 11.0226Z" fill="white"/>
</svg>
