<svg width="16" height="16" viewBox="0 0 16 16" fill="none" xmlns="http://www.w3.org/2000/svg">
<path d="M10.6674 8.4612V12.0546C10.6674 13.6146 9.62735 14.6479 8.07399 14.6479H3.92732C2.37398 14.6479 1.33398 13.6146 1.33398 12.0546V6.87457C1.33398 5.31459 2.37398 4.28125 3.92732 4.28125H6.48066C7.16732 4.28125 7.82732 4.55459 8.31399 5.04125L9.90735 6.62792C10.394 7.11457 10.6674 7.77457 10.6674 8.4612Z" fill="white"/>
<path d="M14.6657 5.49917V9.09248C14.6657 10.6458 13.6257 11.6858 12.0723 11.6858H11.3323V8.4592C11.3323 7.59917 10.9857 6.75917 10.379 6.1525L8.78569 4.56584C8.17905 3.95917 7.33902 3.61251 6.47903 3.61251H5.3457C5.4657 2.22584 6.47237 1.3125 7.92568 1.3125H10.479C11.1657 1.3125 11.8257 1.58584 12.3123 2.0725L13.9057 3.66584C14.3923 4.15251 14.6657 4.81251 14.6657 5.49917Z" fill="white"/>
</svg>
