<svg width="16" height="16" viewBox="0 0 16 16" fill="none" xmlns="http://www.w3.org/2000/svg">
<path d="M14.6466 3.66927V6.33594C14.6466 7.51027 13.7803 8.48476 12.6457 8.64588C12.4634 8.6718 12.3133 8.52004 12.3133 8.33596V8.16924C12.3133 5.68927 10.3 3.66927 7.81331 3.66927H7.64665C7.46257 3.66927 7.31085 3.51918 7.33691 3.33694C7.49871 2.20712 8.47279 1.33594 9.64663 1.33594H12.3133C13.6066 1.33594 14.6466 2.3826 14.6466 3.66927Z" fill="white"/>
<path d="M7.81248 4.66406H7.31248H4.64584C2.80584 4.66406 1.3125 6.1574 1.3125 7.9974V11.3308C1.3125 13.1708 2.80584 14.664 4.64584 14.664H7.97915C9.81914 14.664 11.3125 13.1708 11.3125 11.3308V8.66404V8.16404C11.3125 6.23073 9.74578 4.66406 7.81248 4.66406Z" fill="white"/>
</svg>
