<svg width="16" height="16" viewBox="0 0 16 16" fill="none" xmlns="http://www.w3.org/2000/svg">
<path d="M9.69367 1.25391C8.87367 1.25391 8.20703 1.92055 8.20703 2.74055V5.8339C8.20703 6.6539 8.87367 7.32059 9.69367 7.32059C10.5137 7.32059 11.1804 6.6539 11.1804 5.8339V2.74055C11.1804 1.92723 10.5137 1.25391 9.69367 1.25391Z" fill="white"/>
<path d="M13.4535 4.74219C12.7402 4.74219 12.1602 5.32219 12.1602 6.03552V7.0822C12.1602 7.2222 12.2735 7.33554 12.4135 7.33554H13.4602C14.1735 7.33554 14.7535 6.75553 14.7535 6.0422C14.7535 5.32886 14.1668 4.74219 13.4535 4.74219Z" fill="white"/>
<path d="M5.66594 4.66016H2.5726C1.7526 4.66016 1.08594 5.32684 1.08594 6.14684C1.08594 6.9668 1.7526 7.63353 2.5726 7.63353H5.66594C6.48594 7.63353 7.15262 6.9668 7.15262 6.14684C7.15262 5.32684 6.48594 4.66016 5.66594 4.66016Z" fill="white"/>
<path d="M5.85973 1.07812C5.14639 1.07812 4.56641 1.65813 4.56641 2.37145C4.56641 3.08479 5.14639 3.6648 5.85973 3.6648H6.90641C7.04641 3.6648 7.15973 3.55145 7.15973 3.41145V2.36478C7.15307 1.66478 6.57306 1.07812 5.85973 1.07812Z" fill="white"/>
<path d="M6.28744 8.6875C5.46744 8.6875 4.80078 9.35414 4.80078 10.1741V13.2675C4.80078 14.0875 5.46744 14.7541 6.28744 14.7541C7.10745 14.7541 7.77412 14.0875 7.77412 13.2675V10.1741C7.77412 9.35414 7.10745 8.6875 6.28744 8.6875Z" fill="white"/>
<path d="M3.57437 8.6875H2.52769C1.81437 8.6875 1.23438 9.2675 1.23438 9.98078C1.23438 10.6941 1.81437 11.2741 2.52769 11.2741C3.24104 11.2741 3.82104 10.6941 3.82104 9.98078V8.93414C3.82104 8.80078 3.7077 8.6875 3.57437 8.6875Z" fill="white"/>
<path d="M13.4062 8.38281H10.3128C9.49281 8.38281 8.82617 9.04945 8.82617 9.86945C8.82617 10.6895 9.49281 11.3561 10.3128 11.3561H13.4062C14.2262 11.3561 14.8928 10.6895 14.8928 9.86945C14.8928 9.04945 14.2262 8.38281 13.4062 8.38281Z" fill="white"/>
<path d="M10.1203 12.3125H9.07367C8.93367 12.3125 8.82031 12.4259 8.82031 12.5659V13.6125C8.82031 14.3259 9.40031 14.9059 10.1137 14.9059C10.827 14.9059 11.407 14.3259 11.407 13.6125C11.4137 12.8925 10.8337 12.3125 10.1203 12.3125Z" fill="white"/>
</svg>
