<svg width="16" height="16" viewBox="0 0 16 16" fill="none" xmlns="http://www.w3.org/2000/svg">
<path d="M13.0206 3.68927L3.68732 13.0226C3.67398 13.036 3.66732 13.0426 3.65398 13.0492C3.40066 12.836 3.16732 12.6026 2.95398 12.3492C1.94066 11.1826 1.33398 9.6626 1.33398 8.0026C1.33398 4.3226 4.32066 1.33594 8.00063 1.33594C9.66063 1.33594 11.1806 1.9426 12.3474 2.95594C12.6006 3.16927 12.834 3.4026 13.0474 3.65594C13.0406 3.66927 13.034 3.67594 13.0206 3.68927Z" fill="white"/>
<path d="M14.6666 8.00182C14.6666 11.6618 11.6599 14.6685 7.99993 14.6685C6.99993 14.6685 6.05324 14.4485 5.19991 14.0485C4.78657 13.8552 4.70657 13.3018 5.02657 12.9752L12.9733 5.02853C13.2933 4.70853 13.8533 4.78853 14.0466 5.20186C14.4466 6.04853 14.6666 7.00184 14.6666 8.00182Z" fill="white"/>
<path d="M14.5126 1.48594C14.3126 1.28594 13.9859 1.28594 13.7859 1.48594L1.48594 13.7926C1.28594 13.9926 1.28594 14.3193 1.48594 14.5193C1.58594 14.6126 1.7126 14.666 1.84594 14.666C1.97927 14.666 2.10594 14.6126 2.20594 14.5126L14.5126 2.20594C14.7193 2.00594 14.7193 1.68594 14.5126 1.48594Z" fill="white"/>
</svg>
