<svg width="16" height="16" viewBox="0 0 16 16" fill="none" xmlns="http://www.w3.org/2000/svg">
<path d="M6 14.6692H10C11.1066 14.6692 12 13.776 12 12.6692V3.33594C12 2.22927 11.1066 1.33594 10 1.33594H6C4.89334 1.33594 4 2.22927 4 3.33594V12.6692C4 13.776 4.89334 14.6692 6 14.6692Z" fill="white"/>
<path d="M3.00066 3.95021V12.0436C3.00066 12.2568 2.80732 12.4102 2.60066 12.3702C1.61398 12.1902 1.33398 11.6168 1.33398 10.2168V5.77689C1.33398 4.37689 1.61398 3.80355 2.60066 3.62355C2.80732 3.58355 3.00066 3.73689 3.00066 3.95021Z" fill="white"/>
<path d="M14.6666 5.77689V10.2168C14.6666 11.6168 14.3866 12.1902 13.4 12.3702C13.1934 12.4102 13 12.2502 13 12.0436V3.95021C13 3.73689 13.1934 3.58355 13.4 3.62355C14.3866 3.80355 14.6666 4.37689 14.6666 5.77689Z" fill="white"/>
</svg>
