<svg width="16" height="16" viewBox="0 0 16 16" fill="none" xmlns="http://www.w3.org/2000/svg">
<path d="M12.0006 10.6719C12.3674 10.6719 12.6674 10.9719 12.6674 11.3386V11.9986C12.6674 13.4652 11.6674 14.6652 10.0006 14.6652H6.00066C4.33398 14.6652 3.33398 13.4652 3.33398 11.9986V11.3386C3.33398 10.9719 3.63398 10.6719 4.00066 10.6719H12.0006Z" fill="white"/>
<path d="M12.6674 4.0026V9.0026C12.6674 9.36924 12.3674 9.66924 12.0006 9.66924H4.00066C3.63398 9.66924 3.33398 9.36924 3.33398 9.0026V4.0026C3.33398 2.53594 4.33398 1.33594 6.00066 1.33594H10.0006C11.6674 1.33594 12.6674 2.53594 12.6674 4.0026Z" fill="white"/>
<path d="M2 13.8308C1.72666 13.8308 1.5 13.604 1.5 13.3308V2.66406C1.5 2.39073 1.72666 2.16406 2 2.16406C2.27334 2.16406 2.5 2.39073 2.5 2.66406V13.3308C2.5 13.604 2.27334 13.8308 2 13.8308Z" fill="white"/>
<path d="M14 13.8308C13.7266 13.8308 13.5 13.604 13.5 13.3308V2.66406C13.5 2.39073 13.7266 2.16406 14 2.16406C14.2734 2.16406 14.5 2.39073 14.5 2.66406V13.3308C14.5 13.604 14.2734 13.8308 14 13.8308Z" fill="white"/>
</svg>
