<svg width="16" height="16" viewBox="0 0 16 16" fill="none" xmlns="http://www.w3.org/2000/svg">
<path d="M2.33398 3.375V12.6283C2.33398 12.9016 2.10732 13.1283 1.83398 13.1283C1.56066 13.1283 1.33398 12.9016 1.33398 12.6283V3.375C1.33398 3.10166 1.56066 2.875 1.83398 2.875C2.10732 2.875 2.33398 3.10166 2.33398 3.375Z" fill="white"/>
<path d="M14.666 3.375V12.6283C14.666 12.9016 14.4394 13.1283 14.166 13.1283C13.8927 13.1283 13.666 12.9016 13.666 12.6283V3.375C13.666 3.10166 13.8927 2.875 14.166 2.875C14.4394 2.875 14.666 3.10166 14.666 3.375Z" fill="white"/>
<path d="M5.33398 14.1692H10.6674C11.774 14.1692 12.6674 13.276 12.6674 12.1692V3.83594C12.6674 2.72927 11.774 1.83594 10.6674 1.83594H5.33398C4.22732 1.83594 3.33398 2.72927 3.33398 3.83594V12.1692C3.33398 13.276 4.22732 14.1692 5.33398 14.1692Z" fill="white"/>
</svg>
