<svg width="16" height="16" viewBox="0 0 16 16" fill="none" xmlns="http://www.w3.org/2000/svg">
<path d="M12.6264 2.33594H3.37305C3.09971 2.33594 2.87305 2.10927 2.87305 1.83594C2.87305 1.5626 3.09971 1.33594 3.37305 1.33594H12.6264C12.8998 1.33594 13.1264 1.5626 13.1264 1.83594C13.1264 2.10927 12.8998 2.33594 12.6264 2.33594Z" fill="white"/>
<path d="M12.6264 14.6641H3.37305C3.09971 14.6641 2.87305 14.4374 2.87305 14.1641C2.87305 13.8908 3.09971 13.6641 3.37305 13.6641H12.6264C12.8998 13.6641 13.1264 13.8908 13.1264 14.1641C13.1264 14.4374 12.8998 14.6641 12.6264 14.6641Z" fill="white"/>
<path d="M1.83398 5.33594V10.6692C1.83398 11.776 2.72732 12.6692 3.83398 12.6692H12.1674C13.274 12.6692 14.1674 11.776 14.1674 10.6692V5.33594C14.1674 4.22927 13.274 3.33594 12.1674 3.33594H3.83398C2.72732 3.33594 1.83398 4.22927 1.83398 5.33594Z" fill="white"/>
</svg>
