<svg width="16" height="16" viewBox="0 0 16 16" fill="none" xmlns="http://www.w3.org/2000/svg">
<path d="M14.6674 10V6C14.6674 4.89334 13.774 4 12.6674 4H3.33398C2.22732 4 1.33398 4.89334 1.33398 6V10C1.33398 11.1066 2.22732 12 3.33398 12H12.6674C13.774 12 14.6674 11.1066 14.6674 10Z" fill="white"/>
<path d="M3.95413 13H12.0474C12.2608 13 12.4141 13.1934 12.3741 13.4C12.1941 14.3866 11.6141 14.6666 10.2208 14.6666H5.78079C4.38079 14.6666 3.80746 14.3866 3.62746 13.4C3.58746 13.1934 3.74079 13 3.95413 13Z" fill="white"/>
<path d="M5.78079 1.33594H10.2208C11.6208 1.33594 12.1941 1.61594 12.3741 2.6026C12.4141 2.80927 12.2541 3.0026 12.0474 3.0026H3.95413C3.74079 3.0026 3.58746 2.80927 3.62746 2.6026C3.80746 1.61594 4.38079 1.33594 5.78079 1.33594Z" fill="white"/>
</svg>
