<svg width="16" height="16" viewBox="0 0 16 16" fill="none" xmlns="http://www.w3.org/2000/svg">
<path d="M13.9674 2.75594C13.774 2.47594 13.5274 2.22927 13.2474 2.03594C12.614 1.57594 11.7874 1.33594 10.794 1.33594H5.20732C5.07398 1.33594 4.94066 1.3426 4.81398 1.35594C2.62732 1.49594 1.33398 2.91594 1.33398 5.20927V10.796C1.33398 11.7892 1.57398 12.616 2.03398 13.2492C2.22732 13.5292 2.47398 13.776 2.75398 13.9692C3.30066 14.3692 3.99398 14.6026 4.81398 14.656C4.94066 14.6626 5.07398 14.6692 5.20732 14.6692H10.794C13.2206 14.6692 14.6674 13.2226 14.6674 10.796V5.20927C14.6674 4.21594 14.4274 3.38927 13.9674 2.75594ZM7.59398 10.5892H5.68066C5.40732 10.5892 5.18066 10.3626 5.18066 10.0892C5.18066 9.81596 5.40732 9.58924 5.68066 9.58924H6.34732V5.27594H4.63398C4.56066 5.27594 4.50066 5.33594 4.50066 5.40927V5.92927C4.50066 6.2026 4.27398 6.4226 4.00066 6.4226C3.72732 6.4226 3.50066 6.2026 3.50066 5.9226V5.4026C3.50066 4.77594 4.00732 4.26927 4.63398 4.26927H9.06063C9.68735 4.26927 10.194 4.77594 10.194 5.4026V5.9226C10.194 6.19594 9.96735 6.4226 9.69399 6.4226C9.42063 6.4226 9.19399 6.19594 9.19399 5.9226V5.4026C9.19399 5.32927 9.13399 5.26927 9.06063 5.26927H7.34732V9.58924H7.59398C7.86732 9.58924 8.09399 9.81596 8.09399 10.0892C8.09399 10.3626 7.86732 10.5892 7.59398 10.5892ZM12.5006 8.15596C12.5006 8.42924 12.274 8.65596 12.0006 8.65596C11.7274 8.65596 11.5006 8.42924 11.5006 8.15596V7.93594H10.4674V10.736H10.7006C10.974 10.736 11.2006 10.9626 11.2006 11.236C11.2006 11.5092 10.974 11.736 10.7006 11.736H9.23399C8.96063 11.736 8.73399 11.5092 8.73399 11.236C8.73399 10.9626 8.96063 10.736 9.23399 10.736H9.46735V7.93594H9.14735C8.87399 7.93594 8.64735 7.70927 8.64735 7.43594C8.64735 7.1626 8.87399 6.93594 9.14735 6.93594H11.5474C12.074 6.93594 12.5006 7.3626 12.5006 7.88927V8.15596Z" fill="white"/>
</svg>
