<svg width="16" height="16" viewBox="0 0 16 16" fill="none" xmlns="http://www.w3.org/2000/svg">
<path d="M13.9075 5.70621L9.2875 2.01287C8.57422 1.43953 7.42085 1.43953 6.71418 2.00621L2.09416 5.70621C1.57416 6.11953 1.24083 6.99287 1.35416 7.64621L2.24083 12.9529C2.40083 13.8995 3.3075 14.6662 4.2675 14.6662H11.7342C12.6875 14.6662 13.6009 13.8929 13.7609 12.9529L14.6475 7.64621C14.7542 6.99287 14.4209 6.11953 13.9075 5.70621ZM6.25416 11.5862C5.88083 11.5862 5.5875 11.2862 5.5875 10.9195C5.5875 10.5529 5.8875 10.2529 6.25416 10.2529C6.62083 10.2529 6.92085 10.5529 6.92085 10.9195C6.92085 11.2862 6.62083 11.5862 6.25416 11.5862ZM8.26086 11.4129C8.25422 11.4129 8.25422 11.4129 8.2475 11.4129C7.97418 11.4129 7.75418 11.1929 7.74752 10.9262C7.72752 10.0262 7.13418 9.43286 6.23417 9.41286C5.96083 9.40622 5.74083 9.1795 5.7475 8.8995C5.75416 8.62622 5.97416 8.41286 6.2475 8.41286C6.25416 8.41286 6.25417 8.41286 6.26083 8.41286C7.69418 8.44622 8.72086 9.46622 8.7475 10.8995C8.75422 11.1795 8.54086 11.4129 8.26086 11.4129ZM10.2542 11.4129C9.97422 11.4129 9.75422 11.1929 9.7475 10.9195C9.74086 10.4795 9.6675 10.0595 9.53422 9.66622C9.19422 8.69286 8.4675 7.97287 7.49418 7.62621C7.10085 7.48621 6.68085 7.41287 6.24082 7.41287C5.96749 7.41287 5.74083 7.18621 5.7475 6.90621C5.7475 6.63287 5.97416 6.41287 6.2475 6.41287H6.25416C6.80752 6.41953 7.33418 6.51287 7.82752 6.68621C9.0875 7.13287 10.0275 8.07286 10.4742 9.33286C10.6475 9.82622 10.7409 10.3595 10.7475 10.9062C10.7542 11.1862 10.5342 11.4129 10.2542 11.4129Z" fill="white"/>
</svg>
