<svg width="16" height="16" viewBox="0 0 16 16" fill="none" xmlns="http://www.w3.org/2000/svg">
<path d="M12.4733 6.32699C12.4066 6.32699 12.3399 6.31366 12.2733 6.28699C12.0199 6.17366 11.9066 5.88033 12.0133 5.62699C12.1399 5.34033 12.0666 4.92033 11.8333 4.57366C11.5999 4.22033 11.2466 3.98033 10.9266 4.00033C10.6333 4.00033 10.4266 3.78033 10.4199 3.50699C10.4199 3.22699 10.6399 3.00699 10.9133 3.00033C11.5999 2.98699 12.2466 3.38033 12.6666 4.01366C13.0933 4.65366 13.1933 5.42033 12.9333 6.02033C12.8533 6.21366 12.6666 6.32699 12.4733 6.32699Z" fill="white"/>
<path d="M14.5461 6.98496C14.4994 6.98496 14.4594 6.9783 14.4128 6.96496C14.1461 6.89163 13.9928 6.61827 14.0661 6.35161C14.3194 5.44494 14.1061 4.36494 13.4994 3.45827C12.8928 2.55161 11.9728 1.94494 11.0328 1.83161C10.7594 1.79827 10.5661 1.55161 10.5994 1.27827C10.6328 1.00494 10.8861 0.804945 11.1528 0.844945C12.3728 0.991609 13.5594 1.76494 14.3261 2.91161C15.0928 4.05827 15.3528 5.44494 15.0261 6.63161C14.9661 6.8383 14.7661 6.98496 14.5461 6.98496Z" fill="white"/>
<path d="M11.4133 7.85654C11.4133 8.05652 11.2466 8.22324 11.0466 8.22324H2.28659C2.08659 8.22324 1.91992 8.05652 1.91992 7.85654C1.91992 7.65654 2.08659 7.48987 2.28659 7.48987H2.77992L2.96659 6.6099C3.13992 5.75656 3.50659 4.97656 4.95992 4.97656H8.37991C9.83327 4.97656 10.1933 5.76323 10.3733 6.6099L10.5599 7.48987H11.0533C11.2466 7.48987 11.4133 7.65654 11.4133 7.85654Z" fill="white"/>
<path d="M11.6191 10.6053C11.5458 9.80531 11.3324 8.94531 9.77242 8.94531H3.55905C1.99905 8.94531 1.78572 9.80531 1.71239 10.6053L1.43905 13.572C1.40572 13.9387 1.52573 14.312 1.77905 14.592C2.03905 14.872 2.39905 15.032 2.79239 15.032H3.70572C4.49239 15.032 4.64572 14.5787 4.74572 14.2853L4.84572 13.992C4.95905 13.6587 4.98572 13.572 5.42572 13.572H7.91908C8.35906 13.572 8.37242 13.6187 8.49906 13.992L8.59906 14.2853C8.69906 14.5853 8.84578 15.032 9.63906 15.032H10.5524C10.9391 15.032 11.3058 14.872 11.5658 14.592C11.8191 14.312 11.9391 13.9453 11.9058 13.572L11.6191 10.6053ZM5.20572 11.6187H3.74572C3.54572 11.6187 3.37905 11.452 3.37905 11.252C3.37905 11.052 3.54572 10.8853 3.74572 10.8853H5.20572C5.40572 10.8853 5.57239 11.052 5.57239 11.252C5.57239 11.452 5.40572 11.6187 5.20572 11.6187ZM9.58578 11.6187H8.12578C7.92575 11.6187 7.75908 11.452 7.75908 11.252C7.75908 11.052 7.92575 10.8853 8.12578 10.8853H9.58578C9.78578 10.8853 9.95242 11.052 9.95242 11.252C9.95242 11.452 9.78578 11.6187 9.58578 11.6187Z" fill="white"/>
</svg>
