<svg width="16" height="16" viewBox="0 0 16 16" fill="none" xmlns="http://www.w3.org/2000/svg">
<path d="M6.66602 0.664062H2.66602C1.55935 0.664062 0.666016 1.5574 0.666016 2.66406V6.66406C0.666016 7.77073 1.55935 8.66404 2.66602 8.66404H5.66602C5.66602 7.01073 7.01268 5.66406 8.66601 5.66406V2.66406C8.66601 1.5574 7.77268 0.664062 6.66602 0.664062ZM2.51268 2.84406C3.02602 2.4774 3.72602 2.47073 4.25268 2.83073C4.47935 2.98406 4.53935 3.2974 4.38602 3.52406C4.23268 3.75073 3.91935 3.81073 3.69268 3.6574C3.51268 3.53073 3.26602 3.53073 3.08602 3.66406C2.99935 3.72406 2.89935 3.75073 2.79935 3.75073C2.64602 3.75073 2.48602 3.6774 2.39268 3.54406C2.23268 3.3174 2.28602 3.00406 2.51268 2.84406ZM6.17935 5.49073C6.00602 5.71073 5.69268 5.74406 5.47935 5.57073C5.24602 5.38406 4.96602 5.28406 4.66602 5.28406C3.99935 5.28406 3.44602 5.79073 3.37268 6.44406H4.77268C5.04602 6.44406 5.27268 6.67073 5.27268 6.94406C5.27268 7.2174 5.04602 7.44406 4.77268 7.44406H3.22602C2.75268 7.44406 2.36602 7.0574 2.36602 6.58406C2.36602 5.3174 3.39935 4.28406 4.66602 4.28406C5.18602 4.28406 5.69935 4.46406 6.10602 4.79073C6.31935 4.96406 6.35268 5.2774 6.17935 5.49073ZM7.05268 3.52406C6.89935 3.75073 6.58602 3.81073 6.35935 3.6574C6.17935 3.53073 5.93268 3.53073 5.75268 3.66406C5.66602 3.72406 5.56602 3.75073 5.46602 3.75073C5.31268 3.75073 5.15268 3.6774 5.05935 3.54406C4.89935 3.3174 4.95268 3.00406 5.17935 2.84406C5.69268 2.4774 6.39268 2.47073 6.91935 2.83073C7.14602 2.98406 7.20602 3.2974 7.05268 3.52406Z" fill="white"/>
<path d="M12.1465 11.1191C12.0998 11.0657 12.0331 11.0391 11.9598 11.0391H9.37313C9.29985 11.0391 9.23313 11.0657 9.18649 11.1191C9.13985 11.1723 9.11313 11.2457 9.12649 11.3123C9.21313 12.0991 9.87313 12.6991 10.6665 12.6991C11.4598 12.6991 12.1198 12.1057 12.2065 11.3123C12.2131 11.2391 12.1931 11.1723 12.1465 11.1191Z" fill="white"/>
<path d="M12.666 6.66406H8.66601C7.56602 6.66406 6.66602 7.56406 6.66602 8.66404V12.664C6.66602 13.764 7.56602 14.664 8.66601 14.664H12.666C13.766 14.664 14.666 13.764 14.666 12.664V8.66404C14.666 7.56406 13.766 6.66406 12.666 6.66406ZM8.39265 8.7774C8.55265 8.55076 8.86601 8.4974 9.09265 8.6574C9.27265 8.78404 9.51265 8.78404 9.69265 8.66404C9.91937 8.50404 10.2326 8.56404 10.386 8.7974C10.5394 9.02404 10.486 9.3374 10.2526 9.49076C9.99265 9.66404 9.69265 9.7574 9.39265 9.7574C9.07937 9.7574 8.77265 9.66404 8.51265 9.4774C8.28601 9.31076 8.23265 8.9974 8.39265 8.7774ZM10.666 13.444C9.39937 13.444 8.36601 12.4108 8.36601 11.144C8.36601 10.6708 8.75265 10.284 9.22601 10.284H12.106C12.5794 10.284 12.966 10.6708 12.966 11.144C12.966 12.4108 11.9326 13.444 10.666 13.444ZM12.9194 9.48404C12.6594 9.6574 12.3594 9.75076 12.0594 9.75076C11.746 9.75076 11.4394 9.6574 11.1794 9.47076C10.9526 9.31076 10.8994 8.9974 11.0594 8.77076C11.2194 8.54404 11.5326 8.49076 11.7594 8.65076C11.9394 8.7774 12.1794 8.7774 12.3594 8.6574C12.586 8.4974 12.8994 8.5574 13.0526 8.79076C13.206 9.02404 13.146 9.33076 12.9194 9.48404Z" fill="white"/>
</svg>
