<svg width="16" height="16" viewBox="0 0 16 16" fill="none" xmlns="http://www.w3.org/2000/svg">
<path d="M11.334 2H4.66732C2.66732 2 1.33398 3 1.33398 5.33334V10C1.33398 12.3334 2.66732 13.3334 4.66732 13.3334H7.04732C7.44066 13.3334 7.76066 12.9866 7.70732 12.5934C7.64066 12.12 7.65398 11.6266 7.75398 11.12C8.10735 9.38664 9.53399 8.00664 11.2806 7.72C12.154 7.58 12.9874 7.7 13.7206 8.02C14.1674 8.21336 14.6674 7.90666 14.6674 7.42V5.33334C14.6674 3 13.334 2 11.334 2ZM11.6474 5.72666L9.56063 7.39334C9.12063 7.74666 8.56063 7.92 8.00063 7.92C7.44066 7.92 6.87398 7.74666 6.44066 7.39334L4.35398 5.72666C4.14066 5.55334 4.10732 5.24 4.27398 5.02C4.44732 4.80666 4.76066 4.76666 4.97398 4.94L7.06066 6.60666C7.56732 7.01334 8.42735 7.01334 8.93399 6.60666L11.0206 4.94C11.234 4.76666 11.554 4.8 11.7206 5.02C11.894 5.24 11.8606 5.55334 11.6474 5.72666Z" fill="white"/>
<path d="M11.9994 8.66406C10.1594 8.66406 8.66602 10.1508 8.66602 11.9974C8.66602 13.8374 10.1594 15.3308 11.9994 15.3308C13.846 15.3308 15.3327 13.8374 15.3327 11.9974C15.3327 10.1508 13.846 8.66406 11.9994 8.66406ZM13.366 11.6974L13.1194 11.9374L11.666 13.3974C11.5994 13.4574 11.4727 13.5241 11.3794 13.5374L10.726 13.6308C10.4927 13.6641 10.326 13.4974 10.3594 13.2641L10.4527 12.6108C10.466 12.5174 10.526 12.3908 10.5927 12.3241L12.046 10.8774L12.286 10.6308C12.446 10.4708 12.626 10.3641 12.8127 10.3641C12.9727 10.3641 13.1527 10.4374 13.3527 10.6308C13.7994 11.0641 13.6594 11.4041 13.366 11.6974Z" fill="white"/>
</svg>
