<svg width="16" height="16" viewBox="0 0 16 16" fill="none" xmlns="http://www.w3.org/2000/svg">
<path d="M13.0006 5.33334C13.9211 5.33334 14.6673 4.58714 14.6673 3.66666C14.6673 2.74619 13.9211 2 13.0006 2C12.0801 2 11.334 2.74619 11.334 3.66666C11.334 4.58714 12.0801 5.33334 13.0006 5.33334Z" fill="white"/>
<path d="M13.0006 5.33334C13.9211 5.33334 14.6673 4.58714 14.6673 3.66666C14.6673 2.74619 13.9211 2 13.0006 2C12.0801 2 11.334 2.74619 11.334 3.66666C11.334 4.58714 12.0801 5.33334 13.0006 5.33334Z" fill="white"/>
<path d="M13.814 6.20927C13.3474 6.35594 12.834 6.3826 12.3006 6.24927C11.4074 6.01594 10.6806 5.3026 10.434 4.40927C10.314 3.97594 10.3074 3.54927 10.3806 3.1626C10.4674 2.73594 10.1674 2.33594 9.74063 2.33594H4.66732C2.66732 2.33594 1.33398 3.33594 1.33398 5.66927V10.336C1.33398 12.6692 2.66732 13.6692 4.66732 13.6692H11.334C13.334 13.6692 14.6674 12.6692 14.6674 10.336V6.8426C14.6674 6.4026 14.2406 6.06927 13.814 6.20927ZM10.3474 7.43594L9.56063 8.0626C9.12063 8.41596 8.56063 8.58924 8.00063 8.58924C7.44066 8.58924 6.87398 8.41596 6.44066 8.0626L4.35398 6.39594C4.14066 6.2226 4.10732 5.9026 4.27398 5.68927C4.44732 5.47594 4.76066 5.43594 4.97398 5.60927L7.06066 7.27594C7.56732 7.6826 8.42735 7.6826 8.93399 7.27594L9.72063 6.64927C9.93399 6.47594 10.254 6.50927 10.4206 6.72927C10.594 6.9426 10.5606 7.2626 10.3474 7.43594Z" fill="white"/>
</svg>
