<svg width="16" height="16" viewBox="0 0 16 16" fill="none" xmlns="http://www.w3.org/2000/svg">
<path d="M11.334 2H4.66732C2.66732 2 1.33398 3 1.33398 5.33334V10.64C1.33398 12.1666 2.56732 13.4 4.09398 13.4H8.26735C8.65399 13.4 8.98735 13.0734 8.94735 12.6866C8.85399 11.6666 9.18735 10.5666 10.094 9.68C10.4674 9.31336 10.9274 9.03336 11.4274 8.87336C12.2606 8.60664 13.0674 8.64 13.7806 8.88664C14.214 9.03336 14.6674 8.72 14.6674 8.26V5.33334C14.6674 3 13.334 2 11.334 2ZM11.6474 5.72666L9.56063 7.39334C9.12063 7.74666 8.56063 7.92 8.00063 7.92C7.44066 7.92 6.87398 7.74666 6.44066 7.39334L4.35398 5.72666C4.14066 5.55334 4.10732 5.24 4.27398 5.02C4.44732 4.80666 4.76066 4.76666 4.97398 4.94L7.06066 6.60666C7.56732 7.01334 8.42735 7.01334 8.93399 6.60666L11.0206 4.94C11.234 4.76666 11.554 4.8 11.7206 5.02C11.894 5.24 11.8606 5.55334 11.6474 5.72666Z" fill="white"/>
<path d="M15.1 14.3019L14.6 13.8019C14.86 13.4086 15.0134 12.9352 15.0134 12.4286C15.0134 11.0419 13.8934 9.92188 12.5066 9.92188C11.12 9.92188 10 11.0419 10 12.4219C10 13.8019 11.12 14.9286 12.5066 14.9286C13.0134 14.9286 13.4866 14.7752 13.88 14.5152L14.38 15.0152C14.48 15.1152 14.6066 15.1619 14.74 15.1619C14.8734 15.1619 15 15.1152 15.1 15.0152C15.3 14.8219 15.3 14.5019 15.1 14.3019Z" fill="white"/>
</svg>
