<svg width="16" height="16" viewBox="0 0 16 16" fill="none" xmlns="http://www.w3.org/2000/svg">
<path d="M3.99935 8.66406C2.15935 8.66406 0.666016 10.1508 0.666016 11.9974C0.666016 13.8441 2.15935 15.3308 3.99935 15.3308C5.83935 15.3308 7.33268 13.8374 7.33268 11.9974C7.33268 10.1574 5.84602 8.66406 3.99935 8.66406ZM2.63935 10.6374H3.99935C4.25268 10.6374 4.45268 10.8441 4.45268 11.0908C4.45268 11.3374 4.25268 11.5441 3.99935 11.5441H2.63935C2.38602 11.5441 2.18602 11.3374 2.18602 11.0908C2.18602 10.8441 2.38602 10.6374 2.63935 10.6374ZM5.35935 13.3574H2.63935C2.38602 13.3574 2.18602 13.1508 2.18602 12.9041C2.18602 12.6574 2.39268 12.4508 2.63935 12.4508H5.36602C5.61935 12.4508 5.81935 12.6574 5.81935 12.9041C5.81935 13.1508 5.61268 13.3574 5.35935 13.3574Z" fill="white"/>
<path d="M11.334 2H4.66732C2.66732 2 1.33398 3 1.33398 5.33334V7.42666C1.33398 7.91334 1.83398 8.22 2.28066 8.02664C3.01398 7.70666 3.84732 7.58666 4.72066 7.72666C6.46732 8.01336 7.89398 9.39336 8.24735 11.1266C8.34735 11.6334 8.36063 12.1266 8.29399 12.6C8.24063 12.9934 8.56063 13.34 8.95399 13.34H11.334C13.334 13.34 14.6674 12.34 14.6674 10.0066V5.33334C14.6674 3 13.334 2 11.334 2ZM11.6474 5.72666L9.56063 7.39334C9.12063 7.74666 8.56063 7.92 8.00063 7.92C7.44066 7.92 6.87398 7.74666 6.44066 7.39334L4.35398 5.72666C4.14066 5.55334 4.10732 5.23334 4.27398 5.02C4.44732 4.80666 4.76066 4.76666 4.97398 4.94L7.06066 6.60666C7.56732 7.01334 8.42735 7.01334 8.93399 6.60666L11.0206 4.94C11.234 4.76666 11.554 4.8 11.7206 5.02C11.894 5.23334 11.8606 5.55334 11.6474 5.72666Z" fill="white"/>
</svg>
