<svg width="16" height="16" viewBox="0 0 16 16" fill="none" xmlns="http://www.w3.org/2000/svg">
<path d="M12.9862 1.88177L13.1728 2.26177C13.2662 2.44844 13.4994 2.62177 13.7062 2.66177L13.9594 2.70177C14.7194 2.82844 14.8994 3.38844 14.3528 3.94177L14.1194 4.17511C13.9662 4.33511 13.8794 4.64177 13.9262 4.85511L13.9594 4.99511C14.1662 5.91511 13.6794 6.26844 12.8794 5.78844L12.7062 5.68844C12.4994 5.56844 12.1662 5.56844 11.9594 5.68844L11.7862 5.78844C10.9794 6.27511 10.4928 5.91511 10.7062 4.99511L10.7394 4.85511C10.7862 4.64177 10.6994 4.33511 10.5462 4.17511L10.3128 3.93511C9.76616 3.38177 9.94616 2.82177 10.7062 2.69511L10.9594 2.65511C11.1594 2.62177 11.3994 2.44177 11.4928 2.25511L11.6794 1.87511C12.0394 1.15511 12.6262 1.15511 12.9862 1.88177Z" fill="white"/>
<path d="M14.3806 6.72927C14.1406 6.9026 13.4674 7.2226 12.5074 6.72927C12.4006 6.67594 12.2674 6.66927 12.1606 6.72927C11.7806 6.9226 11.434 7.0026 11.1606 7.0026C10.734 7.0026 10.434 6.83594 10.2874 6.72927C10.0406 6.54927 9.52063 6.03594 9.70063 4.94927C9.72063 4.83594 9.68735 4.7226 9.61399 4.63594C9.15399 4.10927 8.90063 3.4026 9.08063 2.84927C9.14735 2.62927 9.00735 2.33594 8.78063 2.33594H4.66732C2.66732 2.33594 1.33398 3.33594 1.33398 5.66927V10.336C1.33398 12.6692 2.66732 13.6692 4.66732 13.6692H11.334C13.334 13.6692 14.6674 12.6692 14.6674 10.336V6.84927C14.6674 6.7226 14.4874 6.65594 14.3806 6.72927ZM9.56063 8.0626C9.12063 8.41596 8.56063 8.58924 8.00063 8.58924C7.44066 8.58924 6.87398 8.41596 6.44066 8.0626L4.35398 6.39594C4.14066 6.2226 4.10732 5.9026 4.27398 5.68927C4.44732 5.47594 4.76066 5.43594 4.97398 5.60927L7.06066 7.27594C7.56732 7.6826 8.42735 7.6826 8.93399 7.27594C9.14735 7.1026 9.46063 7.13594 9.63399 7.35594C9.81399 7.56927 9.78063 7.88927 9.56063 8.0626Z" fill="white"/>
</svg>
