<svg width="16" height="16" viewBox="0 0 16 16" fill="none" xmlns="http://www.w3.org/2000/svg">
<path d="M11.334 2.33594H4.66732C2.66732 2.33594 1.33398 3.33594 1.33398 5.66927V10.336C1.33398 12.6692 2.66732 13.6692 4.66732 13.6692H11.334C13.334 13.6692 14.6674 12.6692 14.6674 10.336V5.66927C14.6674 3.33594 13.334 2.33594 11.334 2.33594ZM11.6474 6.39594L9.56063 8.0626C9.12063 8.41596 8.56063 8.58924 8.00063 8.58924C7.44066 8.58924 6.87398 8.41596 6.44066 8.0626L4.35398 6.39594C4.14066 6.2226 4.10732 5.9026 4.27398 5.68927C4.44732 5.47594 4.76066 5.43594 4.97398 5.60927L7.06066 7.27594C7.56732 7.6826 8.42735 7.6826 8.93399 7.27594L11.0206 5.60927C11.234 5.43594 11.554 5.46927 11.7206 5.68927C11.894 5.9026 11.8606 6.2226 11.6474 6.39594Z" fill="white"/>
</svg>
