<svg width="16" height="16" viewBox="0 0 16 16" fill="none" xmlns="http://www.w3.org/2000/svg">
<path fill-rule="evenodd" clip-rule="evenodd" d="M8.00063 1.33594C4.32066 1.33594 1.33398 4.3226 1.33398 8.0026C1.33398 11.6826 4.32066 14.6692 8.00063 14.6692C11.6806 14.6692 14.6674 11.6826 14.6674 8.0026C14.6674 4.3226 11.6806 1.33594 8.00063 1.33594ZM11.5406 10.2092C11.3474 10.316 11.1874 10.3626 11.054 10.396C10.9406 10.4226 10.8474 10.4492 10.7674 10.5026C10.6806 10.556 10.674 10.6426 10.6606 10.7226C10.6474 10.796 10.6406 10.856 10.5874 10.896C10.5274 10.936 10.414 10.9426 10.2606 10.9492C10.0606 10.9626 9.80735 10.9692 9.50063 11.0626C9.35399 11.116 9.22063 11.196 9.08735 11.276C8.82063 11.4426 8.52063 11.6226 7.99398 11.6226C7.47398 11.6226 7.17398 11.4426 6.90732 11.276C6.77398 11.1892 6.64066 11.1092 6.48733 11.056C6.18733 10.9626 5.92732 10.9492 5.72732 10.9426C5.57398 10.936 5.46733 10.9292 5.40066 10.8892C5.34733 10.856 5.34065 10.7892 5.32731 10.716C5.31398 10.636 5.30731 10.5492 5.22065 10.496C5.14065 10.4426 5.04065 10.416 4.93398 10.3826C4.80065 10.3492 4.64066 10.3092 4.44733 10.2026C4.22066 10.076 4.35399 10.0026 4.42733 9.9626C5.71399 9.3426 5.91398 8.3826 5.92066 8.30924C5.92066 8.3026 5.92066 8.3026 5.92066 8.29596C5.93398 8.21596 5.94065 8.14924 5.84731 8.0626C5.78731 8.0026 5.58066 7.86927 5.41398 7.7626C5.34065 7.70927 5.27399 7.66927 5.23399 7.64927C5.04733 7.51594 4.96733 7.38927 5.02733 7.2226C5.06733 7.10927 5.17399 7.06927 5.28066 7.06927C5.31399 7.06927 5.35399 7.07594 5.38066 7.0826C5.50066 7.10927 5.62066 7.15594 5.72732 7.19594C5.80066 7.22927 5.86065 7.24927 5.90731 7.2626C5.92065 7.26927 5.94066 7.26927 5.94733 7.26927C6.01399 7.26927 6.03399 7.23594 6.02733 7.16927C6.02733 7.14927 6.02732 7.12927 6.02066 7.10927C6.00732 6.87594 5.98731 6.46927 6.01398 6.09595C6.06731 5.53595 6.24732 5.24927 6.46066 5.00927C6.56732 4.88927 7.05398 4.37594 7.98066 4.37594C8.91399 4.37594 9.39399 4.88927 9.50063 5.0026C9.71399 5.24927 9.89399 5.52927 9.94735 6.09595C9.98063 6.48927 9.95399 6.90927 9.93399 7.1426V7.1626C9.92735 7.23594 9.94735 7.2626 10.014 7.2626C10.0274 7.2626 10.0406 7.2626 10.054 7.25594C10.1006 7.2426 10.1606 7.2226 10.234 7.19594C10.334 7.15594 10.454 7.10927 10.5806 7.0826C10.614 7.06927 10.6474 7.06927 10.6806 7.06927C10.794 7.06927 10.894 7.11594 10.934 7.22927C10.994 7.38927 10.914 7.51594 10.7274 7.64927C10.694 7.67594 10.6274 7.7226 10.5474 7.7626C10.3874 7.86927 10.174 8.0026 10.114 8.0626C10.0206 8.14924 10.0274 8.21596 10.0406 8.29596C10.0406 8.3026 10.0406 8.30924 10.0406 8.30924C10.054 8.3826 10.254 9.3426 11.534 9.9626C11.634 10.0026 11.7674 10.0826 11.5406 10.2092Z" fill="white"/>
</svg>
