<svg width="16" height="16" viewBox="0 0 16 16" fill="none" xmlns="http://www.w3.org/2000/svg">
<path d="M13.3328 2.33594H3.66613C3.45946 2.33594 3.25947 2.43594 3.1328 2.6026L2.1328 3.93594C1.80613 4.37594 2.11946 5.0026 2.66613 5.0026H12.3328C12.5395 5.0026 12.7395 4.9026 12.8662 4.73594L13.8662 3.4026C14.1928 2.9626 13.8795 2.33594 13.3328 2.33594Z" fill="white"/>
<path d="M2.66613 6.66406H12.3328C12.5395 6.66406 12.7395 6.76406 12.8662 6.93073L13.8662 8.26404C14.1928 8.70404 13.8795 9.33076 13.3328 9.33076H3.66613C3.45946 9.33076 3.25947 9.23076 3.1328 9.06404L2.1328 7.73073C1.80613 7.29073 2.11946 6.66406 2.66613 6.66406Z" fill="white"/>
<path d="M13.3328 11H3.66613C3.45946 11 3.25947 11.1 3.1328 11.2666L2.1328 12.6C1.80613 13.04 2.11946 13.6666 2.66613 13.6666H12.3328C12.5395 13.6666 12.7395 13.5666 12.8662 13.4L13.8662 12.0666C14.1928 11.6266 13.8795 11 13.3328 11Z" fill="white"/>
</svg>
