<svg width="16" height="16" viewBox="0 0 16 16" fill="none" xmlns="http://www.w3.org/2000/svg">
<path d="M10.794 1.33594H5.20732C2.78066 1.33594 1.33398 2.7826 1.33398 5.20927V10.7892C1.33398 13.2226 2.78066 14.6692 5.20732 14.6692H10.7874C13.214 14.6692 14.6606 13.2226 14.6606 10.796V5.20927C14.6674 2.7826 13.2206 1.33594 10.794 1.33594ZM8.88735 11.336H7.10732C6.83398 11.336 6.60732 11.1092 6.60732 10.836C6.60732 10.5626 6.83398 10.336 7.10732 10.336H8.88735C9.16063 10.336 9.38735 10.5626 9.38735 10.836C9.38735 11.1092 9.16735 11.336 8.88735 11.336ZM10.6674 8.5026H5.33398C5.06066 8.5026 4.83398 8.27596 4.83398 8.0026C4.83398 7.72927 5.06066 7.5026 5.33398 7.5026H10.6674C10.9406 7.5026 11.1674 7.72927 11.1674 8.0026C11.1674 8.27596 10.9406 8.5026 10.6674 8.5026ZM12.0006 5.66927H4.00066C3.72732 5.66927 3.50066 5.4426 3.50066 5.16927C3.50066 4.89594 3.72732 4.66927 4.00066 4.66927H12.0006C12.274 4.66927 12.5006 4.89594 12.5006 5.16927C12.5006 5.4426 12.274 5.66927 12.0006 5.66927Z" fill="white"/>
</svg>
