<svg width="16" height="16" viewBox="0 0 16 16" fill="none" xmlns="http://www.w3.org/2000/svg">
<path d="M2 11C1.72666 11 1.5 10.7734 1.5 10.5V5.5C1.5 5.22666 1.72666 5 2 5C2.27334 5 2.5 5.22666 2.5 5.5V10.5C2.5 10.7734 2.27334 11 2 11Z" fill="white"/>
<path d="M5 12.6692C4.72666 12.6692 4.5 12.4426 4.5 12.1692V3.83594C4.5 3.5626 4.72666 3.33594 5 3.33594C5.27334 3.33594 5.5 3.5626 5.5 3.83594V12.1692C5.5 12.4426 5.27334 12.6692 5 12.6692Z" fill="white"/>
<path d="M8 14.3308C7.72666 14.3308 7.5 14.104 7.5 13.8308V2.16406C7.5 1.89073 7.72666 1.66406 8 1.66406C8.27336 1.66406 8.5 1.89073 8.5 2.16406V13.8308C8.5 14.104 8.27336 14.3308 8 14.3308Z" fill="white"/>
<path d="M11 12.6692C10.7266 12.6692 10.5 12.4426 10.5 12.1692V3.83594C10.5 3.5626 10.7266 3.33594 11 3.33594C11.2734 3.33594 11.5 3.5626 11.5 3.83594V12.1692C11.5 12.4426 11.2734 12.6692 11 12.6692Z" fill="white"/>
<path d="M14 11C13.7266 11 13.5 10.7734 13.5 10.5V5.5C13.5 5.22666 13.7266 5 14 5C14.2734 5 14.5 5.22666 14.5 5.5V10.5C14.5 10.7734 14.2734 11 14 11Z" fill="white"/>
</svg>
