<svg width="16" height="16" viewBox="0 0 16 16" fill="none" xmlns="http://www.w3.org/2000/svg">
<g clip-path="url(#clip0_13_15578)">
<path d="M12.7853 1.44389C12.7105 1.06995 12.3821 0.800781 12.0008 0.800781C11.6194 0.800781 11.2911 1.06995 11.2163 1.44389L11.0255 2.39793C10.9621 2.71462 10.7146 2.96217 10.3979 3.02551L9.4439 3.21632C9.06998 3.2911 8.80078 3.61944 8.80078 4.00078C8.80078 4.38213 9.06998 4.71046 9.4439 4.78525L10.3979 4.97605C10.7146 5.03939 10.9621 5.28694 11.0255 5.60363L11.2163 6.55768C11.2911 6.93161 11.6194 7.20078 12.0008 7.20078C12.3821 7.20078 12.7105 6.93161 12.7853 6.55768L12.9761 5.60363C13.0394 5.28694 13.2869 5.03939 13.6037 4.97605L14.5577 4.78525C14.9316 4.71046 15.2008 4.38213 15.2008 4.00078C15.2008 3.61944 14.9316 3.2911 14.5577 3.21632L13.6037 3.02551C13.2869 2.96217 13.0394 2.71462 12.9761 2.39793L12.7853 1.44389Z" fill="#0F172A"/>
<path d="M5.55973 4.54702C5.45084 4.22034 5.14513 4 4.80078 4C4.45644 4 4.15073 4.22034 4.04184 4.54702L3.49481 6.18807C3.41519 6.42695 3.22773 6.61441 2.98885 6.69403L1.3478 7.24106C1.02113 7.34994 0.800781 7.65566 0.800781 8C0.800781 8.34432 1.02113 8.65008 1.3478 8.75896L2.98885 9.306C3.22773 9.3856 3.41519 9.57304 3.49481 9.81192L4.04184 11.453C4.15073 11.7797 4.45644 12 4.80078 12C5.14513 12 5.45084 11.7797 5.55973 11.453L6.10675 9.81192C6.18637 9.57304 6.37383 9.3856 6.61271 9.306L8.25374 8.75896C8.58046 8.65008 8.80078 8.34432 8.80078 8C8.80078 7.65566 8.58046 7.34994 8.25374 7.24106L6.61271 6.69403C6.37383 6.61441 6.18637 6.42695 6.10675 6.18807L5.55973 4.54702Z" fill="#0F172A"/>
<path d="M11.159 10.9455C11.0501 10.6188 10.7443 10.3984 10.4 10.3984C10.0557 10.3984 9.74992 10.6188 9.64104 10.9455L9.494 11.3865C9.4144 11.6254 9.22696 11.8128 8.98808 11.8924L8.54704 12.0395C8.22032 12.1484 8 12.4541 8 12.7984C8 13.1428 8.22032 13.4485 8.54704 13.5574L8.98808 13.7044C9.22696 13.784 9.4144 13.9715 9.494 14.2104L9.64104 14.6514C9.74992 14.9781 10.0557 15.1984 10.4 15.1984C10.7443 15.1984 11.0501 14.9781 11.159 14.6514L11.306 14.2104C11.3856 13.9715 11.573 13.784 11.8119 13.7044L12.253 13.5574C12.5797 13.4485 12.8 13.1428 12.8 12.7984C12.8 12.4541 12.5797 12.1484 12.253 12.0395L11.8119 11.8924C11.573 11.8128 11.3856 11.6254 11.306 11.3865L11.159 10.9455Z" fill="#0F172A"/>
</g>
<defs>
<clipPath id="clip0_13_15578">
<rect width="16" height="16" fill="white"/>
</clipPath>
</defs>
</svg>
