<svg width="16" height="16" viewBox="0 0 16 16" fill="none" xmlns="http://www.w3.org/2000/svg">
<path d="M8.39922 2.99845C8.39922 2.75908 8.2569 2.54261 8.03722 2.44766C7.81746 2.35273 7.56231 2.39747 7.388 2.56153L4.16127 5.59845H2.13301C1.88502 5.59845 1.66258 5.75103 1.57327 5.98238C1.33149 6.60873 1.19922 7.28885 1.19922 7.99844C1.19922 8.70804 1.33149 9.3882 1.57327 10.0145C1.66258 10.2459 1.88502 10.3984 2.13301 10.3984H4.16127L7.388 13.4354C7.56231 13.5994 7.81746 13.6442 8.03722 13.5492C8.2569 13.4543 8.39922 13.2378 8.39922 12.9984V2.99845Z" fill="#0F172A"/>
<path d="M13.1591 4.03902C12.9247 3.8047 12.5448 3.8047 12.3105 4.03902C12.0762 4.27333 12.0762 4.65323 12.3105 4.88754C14.0288 6.60585 14.0288 9.39174 12.3105 11.1101C12.0762 11.3444 12.0762 11.7243 12.3105 11.9586C12.5448 12.1929 12.9247 12.1929 13.1591 11.9586C15.3459 9.77166 15.3459 6.22595 13.1591 4.03902Z" fill="#0F172A"/>
<path d="M11.4638 5.73824C11.2294 5.50392 10.8495 5.50392 10.6152 5.73824C10.3809 5.97255 10.3809 6.35245 10.6152 6.58677C11.3962 7.36782 11.3962 8.63416 10.6152 9.4152C10.3809 9.64952 10.3809 10.0294 10.6152 10.2638C10.8495 10.498 11.2294 10.498 11.4638 10.2638C12.7134 9.01408 12.7134 6.98791 11.4638 5.73824Z" fill="#0F172A"/>
</svg>
