<svg width="16" height="16" viewBox="0 0 16 16" fill="none" xmlns="http://www.w3.org/2000/svg">
<path d="M8.03722 2.44766C8.2569 2.54261 8.39922 2.75908 8.39922 2.99845V12.9984C8.39922 13.2378 8.2569 13.4543 8.03722 13.5492C7.81746 13.6442 7.56231 13.5994 7.388 13.4354L4.16127 10.3984H2.13301C1.88502 10.3984 1.66258 10.2459 1.57327 10.0145C1.33149 9.3882 1.19922 8.70804 1.19922 7.99844C1.19922 7.28885 1.33149 6.60873 1.57327 5.98238C1.66258 5.75103 1.88502 5.59845 2.13301 5.59845H4.16127L7.388 2.56153C7.56231 2.39747 7.81746 2.35273 8.03722 2.44766Z" fill="#0F172A"/>
<path d="M11.0242 5.7773C10.7899 5.54298 10.4101 5.54298 10.1757 5.7773C9.94142 6.01161 9.94142 6.39151 10.1757 6.62582L11.5514 8.00154L10.1757 9.3773C9.94142 9.61162 9.94142 9.99154 10.1757 10.2259C10.4101 10.4602 10.7899 10.4602 11.0242 10.2259L12.4 8.8501L13.7757 10.2259C14.0101 10.4602 14.3899 10.4602 14.6242 10.2259C14.8585 9.99154 14.8585 9.61162 14.6242 9.3773L13.2485 8.00154L14.6242 6.62582C14.8585 6.39151 14.8585 6.01161 14.6242 5.7773C14.3899 5.54298 14.0101 5.54298 13.7757 5.7773L12.4 7.15303L11.0242 5.7773Z" fill="#0F172A"/>
</svg>
