<svg width="16" height="16" viewBox="0 0 16 16" fill="none" xmlns="http://www.w3.org/2000/svg">
<path d="M10.0001 1.07812H6.00008C3.87341 1.07812 3.08008 1.87145 3.08008 3.99812V11.9981C3.08008 14.1248 3.87341 14.9181 6.00008 14.9181H10.0001C12.1267 14.9181 12.9201 14.1248 12.9201 11.9981V3.99812C12.9201 1.87145 12.1267 1.07812 10.0001 1.07812ZM8.00009 3.99812C8.55337 3.99812 9.00009 4.44479 9.00009 4.99812C9.00009 5.55145 8.55337 5.99812 8.00009 5.99812C7.44673 5.99812 7.00006 5.55145 7.00006 4.99812C7.00006 4.44479 7.44673 3.99812 8.00009 3.99812ZM8.00009 11.9981C6.8934 11.9981 6.00008 11.1048 6.00008 9.99808C6.00008 8.89144 6.8934 7.99809 8.00009 7.99809C9.10673 7.99809 10.0001 8.89144 10.0001 9.99808C10.0001 11.1048 9.10673 11.9981 8.00009 11.9981Z" fill="white"/>
</svg>
