<svg width="16" height="16" viewBox="0 0 16 16" fill="none" xmlns="http://www.w3.org/2000/svg">
<path d="M12.7606 13.4974C12.634 13.4974 12.5074 13.4508 12.4074 13.3574C12.2074 13.164 12.2074 12.8508 12.4006 12.6508C13.5406 11.4908 14.1674 9.9574 14.1674 8.33076C14.1674 4.93073 11.4006 2.16406 8.00063 2.16406C4.60066 2.16406 1.83398 4.93073 1.83398 8.33076C1.83398 9.95076 2.45398 11.4774 3.58732 12.6374C3.78066 12.8374 3.77398 13.1508 3.58066 13.344C3.38066 13.5374 3.06732 13.5308 2.87398 13.3374C1.56066 11.9908 0.833984 10.2108 0.833984 8.33076C0.833984 4.3774 4.04732 1.16406 8.00063 1.16406C11.954 1.16406 15.1674 4.3774 15.1674 8.33076C15.1674 10.2174 14.4406 12.004 13.114 13.3508C13.0206 13.4508 12.8874 13.4974 12.7606 13.4974Z" fill="white"/>
<path d="M8.00072 14.6655C9.42934 14.6655 10.5874 13.5075 10.5874 12.0788C10.5874 10.6503 9.42934 9.49219 8.00072 9.49219C6.57215 9.49219 5.41406 10.6503 5.41406 12.0788C5.41406 13.5075 6.57215 14.6655 8.00072 14.6655Z" fill="white"/>
<path d="M10.6673 5.66406C9.93398 5.66406 9.33398 6.26406 9.33398 6.9974V7.4974C9.33398 7.9574 9.70734 8.33076 10.1673 8.33076H10.6673C11.4006 8.33076 12.0006 7.73073 12.0006 6.9974C12.0006 6.26406 11.4006 5.66406 10.6673 5.66406Z" fill="white"/>
</svg>
