<svg width="16" height="16" viewBox="0 0 16 16" fill="none" xmlns="http://www.w3.org/2000/svg">
<path d="M8.00063 1.33594C4.32066 1.33594 1.33398 4.3226 1.33398 8.0026C1.33398 11.6826 4.32066 14.6692 8.00063 14.6692C11.6806 14.6692 14.6674 11.6826 14.6674 8.0026C14.6674 4.3226 11.6806 1.33594 8.00063 1.33594ZM10.2806 11.056C10.1806 11.196 10.0274 11.2626 9.87399 11.2626C9.77399 11.2626 9.67399 11.2292 9.58063 11.1692C8.55399 10.436 7.24066 10.276 6.06733 10.736C5.81399 10.836 5.52066 10.7092 5.42066 10.456C5.32066 10.196 5.44732 9.90924 5.70066 9.80924C7.19398 9.21596 8.86063 9.4226 10.1606 10.356C10.394 10.5226 10.4406 10.836 10.2806 11.056ZM11.014 9.19596C10.914 9.33596 10.7606 9.4026 10.6074 9.4026C10.5074 9.4026 10.4074 9.36924 10.314 9.30924C8.90063 8.29596 7.09398 8.07596 5.47399 8.71596C5.22066 8.81596 4.92733 8.68924 4.82733 8.43596C4.72733 8.17596 4.85398 7.88927 5.10732 7.78927C7.04066 7.0226 9.20735 7.28927 10.894 8.5026C11.1206 8.6626 11.174 8.97596 11.014 9.19596ZM12.0606 7.40927C11.9606 7.54927 11.8074 7.61594 11.654 7.61594C11.554 7.61594 11.454 7.5826 11.3606 7.5226C9.37399 6.09594 6.82732 5.7826 4.56066 6.68927C4.30066 6.78927 4.01398 6.66259 3.91398 6.40927C3.81398 6.15593 3.94065 5.86261 4.19398 5.76261C6.78066 4.73595 9.68063 5.08927 11.9474 6.71594C12.174 6.86927 12.2274 7.1826 12.0606 7.40927Z" fill="white"/>
</svg>
