<svg width="16" height="16" viewBox="0 0 16 16" fill="none" xmlns="http://www.w3.org/2000/svg">
<path d="M10.794 1.55469H5.20732C2.78066 1.55469 1.33398 3.00802 1.33398 5.43469V11.0147C1.33398 13.4414 2.78066 14.888 5.20732 14.888H10.7874C13.214 14.888 14.6606 13.4414 14.6606 11.0147V5.43469C14.6674 3.00802 13.2206 1.55469 10.794 1.55469ZM7.71398 11.4147C7.71398 11.6147 7.61398 11.7947 7.44066 11.9014C7.34732 11.9614 7.24732 11.988 7.14066 11.988C7.05398 11.988 6.96732 11.968 6.88066 11.928L4.54732 10.7614C4.21398 10.588 4.00066 10.248 4.00066 9.86804V7.66137C4.00066 7.46137 4.10066 7.28137 4.27398 7.1747C4.44732 7.06803 4.65398 7.06137 4.83398 7.14803L7.16732 8.31468C7.50732 8.48804 7.72066 8.82804 7.72066 9.20804V11.4147H7.71398ZM7.57398 7.84803L5.06732 6.49469C4.88732 6.39469 4.77398 6.20135 4.77398 5.98135C4.77398 5.76802 4.88732 5.56802 5.06732 5.46802L7.57398 4.11469C7.84066 3.97469 8.15399 3.97469 8.42063 4.11469L10.9274 5.46802C11.1074 5.56802 11.2206 5.76135 11.2206 5.98135C11.2206 6.20135 11.1074 6.39469 10.9274 6.49469L8.42063 7.84803C8.28735 7.92137 8.14063 7.95469 7.99398 7.95469C7.84732 7.95469 7.70732 7.92137 7.57398 7.84803ZM12.0006 9.86804C12.0006 10.248 11.7874 10.5947 11.4474 10.7614L9.11399 11.928C9.03399 11.968 8.94735 11.988 8.85399 11.988C8.74735 11.988 8.64735 11.9614 8.55399 11.9014C8.38063 11.7947 8.28063 11.6147 8.28063 11.4147V9.20804C8.28063 8.82804 8.49399 8.4814 8.83399 8.31468L11.1674 7.14803C11.3474 7.06137 11.554 7.06803 11.7274 7.1747C11.9006 7.28137 12.0006 7.46137 12.0006 7.66137V9.86804Z" fill="white"/>
</svg>
