<svg width="16" height="16" viewBox="0 0 16 16" fill="none" xmlns="http://www.w3.org/2000/svg">
<path d="M8.00063 12.3334V12.92C8.00063 14.1666 7.50066 14.6666 6.24732 14.6666H3.08066C2.11398 14.6666 1.33398 13.8866 1.33398 12.92V9.75336C1.33398 8.5 1.83398 8 3.08066 8H3.66732V10.3334C3.66732 11.44 4.56066 12.3334 5.66732 12.3334H8.00063Z" fill="white"/>
<path d="M11.3326 8.9974V9.5774C11.3326 10.544 10.546 11.3308 9.57937 11.3308H6.41268C5.16602 11.3308 4.66602 10.8308 4.66602 9.5774V6.41073C4.66602 5.44406 5.44602 4.66406 6.41268 4.66406H6.99934V6.9974C6.99934 8.10404 7.89268 8.9974 8.99937 8.9974H11.3326Z" fill="white"/>
<path d="M14.6666 3.0826V6.24927C14.6666 7.5026 14.1666 8.0026 12.9134 8.0026H9.74664C8.5 8.0026 8 7.5026 8 6.24927V3.0826C8 1.83594 8.5 1.33594 9.74664 1.33594H12.9134C14.1666 1.33594 14.6666 1.83594 14.6666 3.0826Z" fill="white"/>
</svg>
