<svg width="16" height="16" viewBox="0 0 16 16" fill="none" xmlns="http://www.w3.org/2000/svg">
<path d="M2.55616 10.2969L1.89618 10.6838C1.71247 10.7914 1.59961 10.9884 1.59961 11.2014C1.59961 11.4143 1.71247 11.6113 1.89618 11.719L7.69618 15.119C7.88355 15.2288 8.11569 15.2288 8.30305 15.119L14.103 11.719C14.2867 11.6113 14.3996 11.4143 14.3996 11.2014C14.3996 10.9884 14.2867 10.7914 14.103 10.6838L13.443 10.2969L8.90993 12.9542C8.34777 13.2838 7.65144 13.2838 7.08931 12.9542L2.55616 10.2969Z" fill="#0F172A"/>
<path d="M2.55616 7.09375L1.89618 7.48064C1.71247 7.58833 1.59961 7.78531 1.59961 7.99825C1.59961 8.21121 1.71247 8.40817 1.89618 8.51585L7.69618 11.9159C7.88355 12.0257 8.11569 12.0257 8.30305 11.9159L14.103 8.51585C14.2867 8.40817 14.3996 8.21121 14.3996 7.99825C14.3996 7.78531 14.2867 7.58833 14.103 7.48064L13.443 7.09375L8.90993 9.75113C8.34777 10.0807 7.65144 10.0807 7.08931 9.75113L2.55616 7.09375Z" fill="#0F172A"/>
<path d="M8.30305 0.883164C8.11569 0.77332 7.88355 0.77332 7.69618 0.883164L1.89618 4.28316C1.71247 4.39085 1.59961 4.58784 1.59961 4.80078C1.59961 5.01372 1.71247 5.21071 1.89618 5.3184L7.69618 8.71838C7.88355 8.82822 8.11569 8.82822 8.30305 8.71838L14.103 5.3184C14.2867 5.21071 14.3996 5.01372 14.3996 4.80078C14.3996 4.58784 14.2867 4.39085 14.103 4.28316L8.30305 0.883164Z" fill="#0F172A"/>
</svg>
