<svg width="16" height="16" viewBox="0 0 16 16" fill="none" xmlns="http://www.w3.org/2000/svg">
<path fill-rule="evenodd" clip-rule="evenodd" d="M3.39961 1.60156C2.4055 1.60156 1.59961 2.40745 1.59961 3.40156V5.40156C1.59961 6.39567 2.4055 7.20156 3.39961 7.20156H5.39961C6.39372 7.20156 7.19961 6.39567 7.19961 5.40156V3.40156C7.19961 2.40745 6.39372 1.60156 5.39961 1.60156H3.39961ZM3.39961 8.80156C2.4055 8.80156 1.59961 9.60748 1.59961 10.6016V12.6016C1.59961 13.5956 2.4055 14.4016 3.39961 14.4016H5.39961C6.39372 14.4016 7.19961 13.5956 7.19961 12.6016V10.6016C7.19961 9.60748 6.39372 8.80156 5.39961 8.80156H3.39961ZM10.5996 1.60156C9.60553 1.60156 8.79961 2.40745 8.79961 3.40156V5.40156C8.79961 6.39567 9.60553 7.20156 10.5996 7.20156H12.5996C13.5937 7.20156 14.3996 6.39567 14.3996 5.40156V3.40156C14.3996 2.40745 13.5937 1.60156 12.5996 1.60156H10.5996ZM10.5996 8.80156C9.60553 8.80156 8.79961 9.60748 8.79961 10.6016V12.6016C8.79961 13.5956 9.60553 14.4016 10.5996 14.4016H12.5996C13.5937 14.4016 14.3996 13.5956 14.3996 12.6016V10.6016C14.3996 9.60748 13.5937 8.80156 12.5996 8.80156H10.5996Z" fill="#0F172A"/>
</svg>
