<svg width="16" height="16" viewBox="0 0 16 16" fill="none" xmlns="http://www.w3.org/2000/svg">
<path d="M1.59961 3.40156C1.59961 2.40745 2.4055 1.60156 3.39961 1.60156H5.39961C6.39372 1.60156 7.19961 2.40745 7.19961 3.40156V5.40156C7.19961 6.39567 6.39372 7.20156 5.39961 7.20156H3.39961C2.4055 7.20156 1.59961 6.39567 1.59961 5.40156V3.40156Z" fill="#0F172A"/>
<path d="M1.59961 10.6008C1.59961 9.6067 2.4055 8.80078 3.39961 8.80078H5.39961C6.39372 8.80078 7.19961 9.6067 7.19961 10.6008V12.6008C7.19961 13.5949 6.39372 14.4008 5.39961 14.4008H3.39961C2.4055 14.4008 1.59961 13.5949 1.59961 12.6008V10.6008Z" fill="#0F172A"/>
<path d="M8.80078 3.40156C8.80078 2.40745 9.6067 1.60156 10.6008 1.60156H12.6008C13.5949 1.60156 14.4008 2.40745 14.4008 3.40156V5.40156C14.4008 6.39567 13.5949 7.20156 12.6008 7.20156H10.6008C9.6067 7.20156 8.80078 6.39567 8.80078 5.40156V3.40156Z" fill="#0F172A"/>
<path d="M12.2008 9.40078C12.2008 9.06942 11.9321 8.80078 11.6008 8.80078C11.2694 8.80078 11.0008 9.06942 11.0008 9.40078V11.0008H9.40078C9.06942 11.0008 8.80078 11.2694 8.80078 11.6008C8.80078 11.9321 9.06942 12.2008 9.40078 12.2008H11.0008V13.8008C11.0008 14.1321 11.2694 14.4008 11.6008 14.4008C11.9321 14.4008 12.2008 14.1321 12.2008 13.8008V12.2008H13.8008C14.1321 12.2008 14.4008 11.9321 14.4008 11.6008C14.4008 11.2694 14.1321 11.0008 13.8008 11.0008H12.2008V9.40078Z" fill="#0F172A"/>
</svg>
