<svg width="16" height="16" viewBox="0 0 16 16" fill="none" xmlns="http://www.w3.org/2000/svg">
<path d="M1.59961 3.40156C1.59961 2.40745 2.4055 1.60156 3.39961 1.60156H8.59961C9.59369 1.60156 10.3996 2.40745 10.3996 3.40156V4.40156H7.39961C5.74275 4.40156 4.39961 5.74471 4.39961 7.40156V10.4016H3.39961C2.4055 10.4016 1.59961 9.59564 1.59961 8.60156V3.40156Z" fill="#0F172A"/>
<path d="M7.39961 5.60156C6.4055 5.60156 5.59961 6.40745 5.59961 7.40156V12.6016C5.59961 13.5956 6.4055 14.4016 7.39961 14.4016H12.5996C13.5937 14.4016 14.3996 13.5956 14.3996 12.6016V7.40156C14.3996 6.40745 13.5937 5.60156 12.5996 5.60156H7.39961Z" fill="#0F172A"/>
</svg>
