<svg width="16" height="16" viewBox="0 0 16 16" fill="none" xmlns="http://www.w3.org/2000/svg">
<path d="M8.00063 1.33594C4.32066 1.33594 1.33398 4.3226 1.33398 8.0026C1.33398 11.6826 4.32066 14.6692 8.00063 14.6692C11.6806 14.6692 14.6674 11.6826 14.6674 8.0026C14.6674 4.3226 11.6806 1.33594 8.00063 1.33594ZM11.0006 9.5026H8.96735L10.294 11.3826C10.454 11.6092 10.4006 11.9226 10.174 12.076C10.0874 12.136 9.98735 12.1692 9.88735 12.1692C9.72735 12.1692 9.57399 12.096 9.48063 11.956L7.94732 9.7826L6.41398 11.956C6.31398 12.096 6.16066 12.1692 6.00733 12.1692C5.90733 12.1692 5.80731 12.1426 5.72065 12.076C5.49398 11.916 5.44065 11.6026 5.60065 11.3826L6.92732 9.5026H5.01398C4.74065 9.5026 4.51398 9.27596 4.51398 9.0026C4.51398 8.72924 4.74065 8.5026 5.01398 8.5026H11.014C11.2874 8.5026 11.514 8.72924 11.514 9.0026C11.514 9.27596 11.274 9.5026 11.0006 9.5026ZM11.0006 7.5026H5.00066C4.72732 7.5026 4.50066 7.27594 4.50066 7.0026C4.50066 6.72927 4.72732 6.5026 5.00066 6.5026H6.91398L5.58732 4.62259C5.42733 4.39593 5.48066 4.0826 5.70732 3.92927C5.93398 3.76927 6.24733 3.82261 6.40066 4.04927L7.93398 6.2226L9.46735 4.04927C9.62735 3.82261 9.94063 3.76927 10.1606 3.92927C10.3874 4.08927 10.4406 4.40259 10.2806 4.62259L8.95399 6.5026H10.9874C11.2606 6.5026 11.4874 6.72927 11.4874 7.0026C11.4874 7.27594 11.274 7.5026 11.0006 7.5026Z" fill="white"/>
</svg>
