<svg width="16" height="16" viewBox="0 0 16 16" fill="none" xmlns="http://www.w3.org/2000/svg">
<path d="M3.8269 10.6692C3.90024 10.3426 3.7669 9.87596 3.53356 9.6426L1.91356 8.0226C1.4069 7.51594 1.2069 6.97594 1.35356 6.50927C1.5069 6.0426 1.98024 5.7226 2.6869 5.6026L4.7669 5.25594C5.0669 5.2026 5.43356 4.93594 5.57356 4.6626L6.7202 2.3626C7.05353 1.7026 7.50687 1.33594 8.00017 1.33594C8.49353 1.33594 8.94689 1.7026 9.28017 2.3626L10.4269 4.6626C10.5135 4.83594 10.6935 5.0026 10.8869 5.11594L3.7069 12.296C3.61356 12.3892 3.45356 12.3026 3.48024 12.1692L3.8269 10.6692Z" fill="white"/>
<path d="M12.4672 9.6412C12.2272 9.8812 12.0938 10.3412 12.1738 10.6679L12.6338 12.6746C12.8272 13.5079 12.7072 14.1346 12.2938 14.4346C12.1272 14.5546 11.9272 14.6146 11.6938 14.6146C11.3538 14.6146 10.9538 14.4879 10.5138 14.2279L8.56054 13.0679C8.25382 12.8879 7.74719 12.8879 7.44052 13.0679L5.48719 14.2279C4.74719 14.6612 4.11385 14.7346 3.70719 14.4346C3.55385 14.3212 3.44052 14.1679 3.36719 13.9679L11.4738 5.86123C11.7805 5.55457 12.2138 5.41457 12.6338 5.4879L13.3072 5.60123C14.0138 5.72123 14.4872 6.04123 14.6405 6.50789C14.7872 6.97457 14.5872 7.51457 14.0805 8.0212L12.4672 9.6412Z" fill="white"/>
</svg>
