<svg width="16" height="16" viewBox="0 0 16 16" fill="none" xmlns="http://www.w3.org/2000/svg">
<path d="M12.4662 9.6416C12.2328 9.87496 12.0995 10.3416 12.1728 10.6616L12.6328 12.675C12.8262 13.5083 12.7062 14.135 12.2928 14.435C12.1262 14.555 11.9262 14.615 11.6928 14.615C11.3528 14.615 10.9528 14.4883 10.5128 14.2283L8.55946 13.0683C8.25282 12.8883 7.74615 12.8883 7.43948 13.0683L5.48615 14.2283C4.74615 14.6616 4.11281 14.735 3.70615 14.435C3.67948 14.415 3.65281 14.395 3.63281 14.3683L12.0462 5.95498C12.3528 5.64832 12.7862 5.50832 13.2128 5.58165L13.3128 5.60165C14.0195 5.72165 14.4928 6.04165 14.6462 6.50832C14.7928 6.97497 14.5928 7.51497 14.0862 8.0216L12.4662 9.6416Z" fill="white"/>
<path d="M3.8269 10.6692C3.90024 10.3492 3.7669 9.87596 3.53356 9.6426L1.91356 8.0226C1.4069 7.51594 1.2069 6.97594 1.35356 6.50927C1.5069 6.0426 1.98024 5.7226 2.6869 5.6026L4.7669 5.25594C5.0669 5.2026 5.43356 4.93594 5.57356 4.6626L6.7202 2.3626C7.05353 1.7026 7.50687 1.33594 8.00017 1.33594C8.49353 1.33594 8.94689 1.7026 9.28017 2.3626L10.4269 4.6626C10.5135 4.83594 10.6935 5.0026 10.8869 5.11594L3.38024 12.6226L3.8269 10.6692Z" fill="white"/>
<path d="M14.5126 1.48594C14.3126 1.28594 13.9859 1.28594 13.7859 1.48594L1.48594 13.7926C1.28594 13.9926 1.28594 14.3193 1.48594 14.5193C1.58594 14.6126 1.7126 14.666 1.84594 14.666C1.97927 14.666 2.10594 14.6126 2.20594 14.5126L14.5126 2.20594C14.7193 2.00594 14.7193 1.68594 14.5126 1.48594Z" fill="white"/>
</svg>
