<svg width="16" height="16" viewBox="0 0 16 16" fill="none" xmlns="http://www.w3.org/2000/svg">
<path d="M10.794 1.33594H5.20732C2.78066 1.33594 1.33398 2.7826 1.33398 5.20927V10.7892C1.33398 13.2226 2.78066 14.6692 5.20732 14.6692H10.7874C13.214 14.6692 14.6606 13.2226 14.6606 10.796V5.20927C14.6674 2.7826 13.2206 1.33594 10.794 1.33594ZM5.08732 12.1026C5.08732 12.376 4.86066 12.6026 4.58732 12.6026C4.31398 12.6026 4.08732 12.376 4.08732 12.1026V10.7226C4.08732 10.4492 4.31398 10.2226 4.58732 10.2226C4.86066 10.2226 5.08732 10.4492 5.08732 10.7226V12.1026ZM8.50063 12.1026C8.50063 12.376 8.27399 12.6026 8.00063 12.6026C7.72732 12.6026 7.50066 12.376 7.50066 12.1026V9.33596C7.50066 9.0626 7.72732 8.83596 8.00063 8.83596C8.27399 8.83596 8.50063 9.0626 8.50063 9.33596V12.1026ZM11.914 12.1026C11.914 12.376 11.6874 12.6026 11.414 12.6026C11.1406 12.6026 10.914 12.376 10.914 12.1026V7.95594C10.914 7.6826 11.1406 7.45594 11.414 7.45594C11.6874 7.45594 11.914 7.6826 11.914 7.95594V12.1026ZM11.914 5.84927C11.914 6.1226 11.6874 6.34927 11.414 6.34927C11.1406 6.34927 10.914 6.1226 10.914 5.84927V5.2026C9.21399 6.94927 7.08732 8.1826 4.70732 8.77596C4.66732 8.78924 4.62732 8.78924 4.58732 8.78924C4.36066 8.78924 4.16066 8.63596 4.10066 8.40924C4.03398 8.1426 4.19398 7.86927 4.46732 7.8026C6.71398 7.2426 8.71399 6.0626 10.3006 4.39594H9.46735C9.19399 4.39594 8.96735 4.16927 8.96735 3.89594C8.96735 3.6226 9.19399 3.39594 9.46735 3.39594H11.4206C11.4474 3.39594 11.4674 3.40927 11.494 3.40927C11.5274 3.41594 11.5606 3.41594 11.594 3.42927C11.6274 3.4426 11.654 3.4626 11.6874 3.4826C11.7074 3.49594 11.7274 3.5026 11.7474 3.51594C11.754 3.5226 11.754 3.52927 11.7606 3.52927C11.7874 3.55594 11.8074 3.5826 11.8274 3.60927C11.8474 3.63594 11.8674 3.65594 11.874 3.6826C11.8874 3.70927 11.8874 3.73594 11.894 3.76927C11.9006 3.8026 11.914 3.83594 11.914 3.87594C11.914 3.8826 11.9206 3.88927 11.9206 3.89594V5.84927H11.914Z" fill="white"/>
</svg>
