<svg width="16" height="16" viewBox="0 0 16 16" fill="none" xmlns="http://www.w3.org/2000/svg">
<path d="M5.99991 9.48047H2.61324C2.20658 9.48047 1.83324 9.68711 1.61991 10.0337C1.40658 10.3737 1.38658 10.7805 1.55991 11.1405C2.37991 12.8205 3.85991 14.1405 5.61991 14.7605C5.73991 14.8005 5.87324 14.8271 5.99991 14.8271C6.23324 14.8271 6.46658 14.7537 6.66658 14.6137C6.97993 14.3937 7.1666 14.0337 7.1666 13.6537L7.17326 10.6537C7.17326 10.3405 7.05327 10.0471 6.83327 9.82711C6.60658 9.60711 6.31324 9.48047 5.99991 9.48047Z" fill="white"/>
<path d="M14.9859 6.4026C14.2393 3.1226 11.3659 0.835938 7.99928 0.835938C4.63263 0.835938 1.7593 3.1226 1.01263 6.4026C0.932634 6.74927 1.01263 7.1026 1.2393 7.3826C1.46597 7.6626 1.7993 7.8226 2.1593 7.8226H13.8459C14.2059 7.8226 14.5393 7.6626 14.7659 7.3826C14.9859 7.1026 15.0659 6.7426 14.9859 6.4026Z" fill="white"/>
<path d="M13.374 9.51445L10.0006 9.50781C9.68734 9.50781 9.39398 9.62781 9.17398 9.84781C8.95398 10.0678 8.83398 10.3612 8.83398 10.6745L8.84062 13.6612C8.84062 14.0412 9.02734 14.4012 9.34062 14.6212C9.54062 14.7612 9.77398 14.8345 10.0073 14.8345C10.134 14.8345 10.2606 14.8145 10.3806 14.7678C12.1273 14.1545 13.6073 12.8412 14.4273 11.1812C14.6006 10.8278 14.5806 10.4145 14.374 10.0812C14.154 9.72117 13.7806 9.51445 13.374 9.51445Z" fill="white"/>
</svg>
