<svg width="16" height="16" viewBox="0 0 16 16" fill="none" xmlns="http://www.w3.org/2000/svg">
<path d="M15.1063 3.09334C14.973 2.85334 14.6664 2.76 14.4264 2.89334L3.13306 9.10664C3.05306 8.74664 2.99972 8.37336 2.99972 8C2.99972 5.24 5.23972 3 7.99974 3C8.93976 3 9.85304 3.26 10.6398 3.75334C10.873 3.9 11.1798 3.82666 11.3264 3.59334C11.473 3.36 11.3998 3.05334 11.1664 2.90666C10.2198 2.31334 9.1264 2 7.99974 2C4.69305 2 1.99972 4.69334 1.99972 8C1.99972 8.54 2.07305 9.07336 2.21305 9.59336C2.21305 9.6 2.21973 9.6 2.21973 9.60664L1.09306 10.2266C0.853062 10.36 0.759734 10.6666 0.89307 10.9066C0.986398 11.0734 1.15305 11.1666 1.33305 11.1666C1.41305 11.1666 1.49971 11.1466 1.57304 11.1066L14.9064 3.77334C15.1464 3.64 15.2397 3.33334 15.1063 3.09334Z" fill="white"/>
<path d="M15.1063 5.4251C14.973 5.1851 14.6664 5.09176 14.4264 5.2251L13.0198 5.99843C12.9998 6.01176 12.973 6.01843 12.953 6.03843L1.09306 12.5584C0.853062 12.6918 0.759734 12.9984 0.89307 13.2384C0.986398 13.4051 1.15305 13.4984 1.33305 13.4984C1.41305 13.4984 1.49971 13.4784 1.57304 13.4384L12.9264 7.19176C12.9664 7.45843 12.9998 7.7251 12.9998 7.99843C12.9998 10.7584 10.7598 12.9984 7.99974 12.9984C7.05308 12.9984 6.13973 12.7318 5.34639 12.2384C5.11306 12.0918 4.80638 12.1651 4.65971 12.3984C4.51305 12.6318 4.57971 12.9384 4.81971 13.0851C5.77304 13.6851 6.87308 13.9984 8.0064 13.9984C11.313 13.9984 14.0064 11.3051 14.0064 7.99843C14.0064 7.55176 13.9398 7.11843 13.8464 6.69176L14.913 6.1051C15.1464 5.97177 15.2397 5.6651 15.1063 5.4251Z" fill="white"/>
</svg>
