<svg width="16" height="16" viewBox="0 0 16 16" fill="none" xmlns="http://www.w3.org/2000/svg">
<path d="M14.6397 7.77648C13.8463 7.27648 12.9263 7.00314 11.9797 7.00314C9.2197 7.00314 6.97968 9.24316 6.97968 12.0032C6.97968 12.9498 7.24634 13.8632 7.74634 14.6564C7.43968 14.6498 7.12634 14.6164 6.80634 14.5698C4.06634 14.1032 1.85966 11.8832 1.40634 9.13644C0.652997 4.56977 4.54634 0.67644 9.11298 1.42977C11.8597 1.88311 14.0797 4.08977 14.5463 6.8298C14.5997 7.1498 14.633 7.4698 14.6397 7.77648Z" fill="white"/>
<path d="M8.92046 14.5734C8.33382 13.88 7.98047 12.98 7.98047 12C7.98047 9.79336 9.77382 8 11.9805 8C12.9605 8 13.8605 8.35336 14.5538 8.94" fill="white"/>
</svg>
