<svg width="16" height="16" viewBox="0 0 16 16" fill="none" xmlns="http://www.w3.org/2000/svg">
<path d="M5.52734 4.19594C5.24734 4.19594 5.02734 3.96927 5.02734 3.69594V1.83594C5.02734 1.5626 5.24734 1.33594 5.52734 1.33594C5.80734 1.33594 6.02734 1.5626 6.02734 1.83594V3.68927C6.02734 3.96927 5.80734 4.19594 5.52734 4.19594Z" fill="white"/>
<path d="M10.4727 4.19594C10.1927 4.19594 9.97266 3.96927 9.97266 3.69594V1.83594C9.97266 1.55594 10.1993 1.33594 10.4727 1.33594C10.7527 1.33594 10.9727 1.5626 10.9727 1.83594V3.68927C10.9727 3.96927 10.7527 4.19594 10.4727 4.19594Z" fill="white"/>
<path d="M14.333 10.5439C14.333 10.6439 14.2996 10.7439 14.213 10.8305C13.2463 11.8039 11.5263 13.5372 10.5396 14.5305C10.453 14.6239 10.3396 14.6639 10.2263 14.6639C10.0063 14.6639 9.79297 14.4905 9.79297 14.2372V11.9039C9.79297 10.9305 10.6196 10.1239 11.633 10.1239C12.2663 10.1172 13.1463 10.1172 13.8996 10.1172C14.1596 10.1172 14.333 10.3239 14.333 10.5439Z" fill="white"/>
<path d="M14.333 10.5439C14.333 10.6439 14.2996 10.7439 14.213 10.8305C13.2463 11.8039 11.5263 13.5372 10.5396 14.5305C10.453 14.6239 10.3396 14.6639 10.2263 14.6639C10.0063 14.6639 9.79297 14.4905 9.79297 14.2372V11.9039C9.79297 10.9305 10.6196 10.1239 11.633 10.1239C12.2663 10.1172 13.1463 10.1172 13.8996 10.1172C14.1596 10.1172 14.333 10.3239 14.333 10.5439Z" fill="white"/>
<path d="M13.046 3.0026C12.606 2.67594 11.9726 2.98927 11.9726 3.5426V3.60927C11.9726 4.38927 11.4126 5.10927 10.6326 5.18927C9.73265 5.2826 8.97265 4.57594 8.97265 3.69594V3.0026C8.97265 2.63594 8.67265 2.33594 8.30601 2.33594H7.69268C7.32602 2.33594 7.02602 2.63594 7.02602 3.0026V3.60927C7.02602 4.19594 6.71268 4.7426 6.22602 5.00927C6.19934 5.02927 6.17268 5.0426 6.14602 5.05594C6.13934 5.05594 6.13934 5.0626 6.13268 5.0626C6.08602 5.0826 6.03934 5.1026 5.98602 5.1226C5.97268 5.12927 5.95934 5.12927 5.94602 5.13594C5.86602 5.1626 5.77934 5.1826 5.68602 5.18927H5.67934C5.57934 5.2026 5.47268 5.2026 5.37268 5.18927H5.36602C5.27268 5.1826 5.18602 5.1626 5.10602 5.13594C5.03934 5.11594 4.97268 5.08927 4.90602 5.05594C4.38602 4.8226 4.02602 4.3026 4.02602 3.69594V3.5426C4.02602 3.02927 3.47934 2.7226 3.04602 2.9426C3.03934 2.94927 3.03268 2.94927 3.02602 2.95594H3.01934C2.97268 2.98927 2.93268 3.0226 2.88602 3.05594C2.81268 3.11594 2.73934 3.17594 2.67268 3.2426C2.62602 3.28927 2.57934 3.33594 2.53934 3.3826C2.48602 3.43594 2.43934 3.48927 2.39268 3.54927C2.35934 3.58927 2.31934 3.62927 2.29268 3.67594C2.25934 3.71594 2.23268 3.7626 2.20602 3.8026C2.19934 3.80927 2.19268 3.81594 2.18602 3.82927C2.12602 3.91594 2.07268 4.01594 2.02602 4.10927C2.01268 4.1226 2.00602 4.12927 2.00602 4.1426C1.96602 4.2226 1.92602 4.3026 1.89934 4.38927C1.87934 4.4226 1.87268 4.44927 1.85934 4.4826C1.84602 4.50927 1.83934 4.5426 1.82602 4.56927C1.80602 4.63594 1.78602 4.70927 1.76602 4.7826C1.73934 4.87594 1.71934 4.97594 1.70602 5.07594C1.69268 5.14927 1.68602 5.2226 1.67934 5.3026C1.67268 5.39594 1.66602 5.48927 1.66602 5.5826V11.4226C1.66602 13.216 3.11934 14.6692 4.91268 14.6692H8.12601C8.49265 14.6692 8.79265 14.3692 8.79265 14.0026V11.9092C8.79265 10.376 10.066 9.12924 11.6326 9.12924C11.986 9.1226 12.846 9.1226 13.666 9.1226C14.0326 9.1226 14.3326 8.8226 14.3326 8.45596V5.5826C14.3326 4.5226 13.826 3.59594 13.046 3.0026ZM7.41934 10.6092C7.35934 10.8092 7.17268 10.9492 6.95268 10.9492H4.52602C4.49268 10.9492 4.46602 10.9492 4.43934 10.936C4.19934 10.9026 4.02602 10.696 4.02602 10.4492C4.02602 10.1692 4.24602 9.9426 4.52602 9.9426H6.95268C7.22602 9.9426 7.45268 10.1692 7.45268 10.4492C7.45268 10.5026 7.44602 10.5626 7.41934 10.6092ZM9.27265 8.13596C9.21265 8.33596 9.02601 8.47596 8.80601 8.47596H4.52602C4.49268 8.47596 4.46602 8.47596 4.43934 8.4626C4.19934 8.42924 4.02602 8.2226 4.02602 7.97594C4.02602 7.69594 4.24602 7.46927 4.52602 7.46927H8.80601C9.08601 7.46927 9.30601 7.69594 9.30601 7.97594C9.30601 8.02924 9.29937 8.08924 9.27265 8.13596Z" fill="white"/>
</svg>
