<svg width="16" height="16" viewBox="0 0 16 16" fill="none" xmlns="http://www.w3.org/2000/svg">
<path d="M10.9474 5.29813C12.574 6.92477 12.574 9.5648 10.9474 11.1914C9.32063 12.8181 6.68065 12.8181 5.05398 11.1914C3.42732 9.5648 3.42732 6.92477 5.05398 5.29813C6.68065 3.67146 9.32063 3.67146 10.9474 5.29813Z" fill="white"/>
<path d="M5.50067 14.9273C5.44067 14.9273 5.37401 14.9139 5.31401 14.8939C3.81401 14.2939 2.60067 13.2339 1.78734 11.8339C1.00067 10.4673 0.687338 8.92054 0.894005 7.34723C0.927341 7.07389 1.18734 6.88056 1.45401 6.91389C1.72734 6.94723 1.92067 7.20056 1.88734 7.47389C1.71401 8.82726 1.98067 10.1605 2.65401 11.3339C3.34734 12.5339 4.39401 13.4473 5.68067 13.9605C5.93401 14.0673 6.06067 14.3539 5.96067 14.6139C5.88734 14.8073 5.69401 14.9273 5.50067 14.9273Z" fill="white"/>
<path d="M3.89974 3.48364C3.75308 3.48364 3.60641 3.41698 3.50641 3.29031C3.33308 3.07698 3.37308 2.76365 3.59308 2.59031C4.85974 1.59698 6.38641 1.07031 7.99973 1.07031C9.57304 1.07031 11.073 1.57698 12.333 2.53698C12.553 2.70364 12.593 3.01698 12.4264 3.23698C12.2598 3.45698 11.9464 3.49698 11.7264 3.33031C10.6398 2.50364 9.35304 2.07031 7.99973 2.07031C6.61308 2.07031 5.29974 2.52365 4.20641 3.37698C4.11308 3.45031 4.00641 3.48364 3.89974 3.48364Z" fill="white"/>
<path d="M10.4999 14.9244C10.2999 14.9244 10.1131 14.8044 10.0331 14.6112C9.93314 14.3578 10.0531 14.0644 10.3131 13.9578C11.5999 13.4378 12.6465 12.5312 13.3399 11.3312C14.0199 10.1578 14.2865 8.82444 14.1065 7.4778C14.0731 7.20447 14.2665 6.95113 14.5399 6.9178C14.8065 6.88447 15.0665 7.0778 15.0999 7.35113C15.2999 8.9178 14.9931 10.4712 14.2065 11.8378C13.3999 13.2378 12.1799 14.2912 10.6799 14.8978C10.6265 14.9112 10.5665 14.9244 10.4999 14.9244Z" fill="white"/>
</svg>
