<svg width="16" height="16" viewBox="0 0 16 16" fill="none" xmlns="http://www.w3.org/2000/svg">
<path d="M10.794 1.33594H5.20732C2.78065 1.33594 1.33398 2.7826 1.33398 5.20927V10.7892C1.33398 13.2226 2.78065 14.6692 5.20732 14.6692H10.7874C13.214 14.6692 14.6606 13.2226 14.6606 10.796V5.20927C14.6674 2.7826 13.2206 1.33594 10.794 1.33594ZM12.6674 5.49594C12.6674 5.8626 12.3674 6.1626 12.0006 6.1626H10.6674C10.394 6.1626 10.1674 6.38927 10.1674 6.6626C10.1674 6.9426 10.394 7.1626 10.6674 7.1626H12.0006C12.3674 7.1626 12.6674 7.4626 12.6674 7.82927V8.16924C12.6674 8.53596 12.3674 8.83596 12.0006 8.83596H10.6674C10.394 8.83596 10.1674 9.0626 10.1674 9.33596C10.1674 9.60924 10.394 9.83596 10.6674 9.83596H12.0006C12.3674 9.83596 12.6674 10.136 12.6674 10.5026V10.6692C12.6674 11.776 11.774 12.6692 10.6674 12.6692H5.33398C4.22732 12.6692 3.33398 11.776 3.33398 10.6692V10.336C3.33398 9.96924 3.63398 9.66924 4.00065 9.66924H4.98732C5.96732 9.66924 6.74733 8.82924 6.64732 7.82927C6.56065 6.9626 5.76732 6.33594 4.89398 6.33594H4.00065C3.63398 6.33594 3.33398 6.03594 3.33398 5.66927V5.33594C3.33398 4.22927 4.22732 3.33594 5.33398 3.33594H10.6674C11.774 3.33594 12.6674 4.22927 12.6674 5.33594V5.49594ZM3.33398 8.0026C3.33398 7.63594 3.63398 7.33594 4.00065 7.33594H4.66732C5.03398 7.33594 5.33398 7.63594 5.33398 8.0026C5.33398 8.36924 5.03398 8.66924 4.66732 8.66924H4.00065C3.63398 8.66924 3.33398 8.36924 3.33398 8.0026Z" fill="white"/>
</svg>
