<svg width="16" height="16" viewBox="0 0 16 16" fill="none" xmlns="http://www.w3.org/2000/svg">
<path d="M8.83399 8.38676V9.70676C8.83399 10.1668 8.46063 10.5401 8.00063 10.5401C7.54066 10.5401 7.16732 10.1668 7.16732 9.70676V8.38676C6.92732 8.24012 6.74066 8.02676 6.60732 7.77344H2.00066C1.63398 7.77344 1.33398 8.0734 1.33398 8.44012V10.7935C1.33398 12.9335 3.06732 14.6668 5.20732 14.6668H10.7874C12.934 14.6668 14.6674 12.9335 14.6674 10.7935V8.44012C14.6674 8.0734 14.3674 7.77344 14.0006 7.77344H9.39399C9.26063 8.02676 9.07399 8.24012 8.83399 8.38676Z" fill="white"/>
<path d="M10.794 1.33594H5.20732C3.06732 1.33594 1.33398 3.06927 1.33398 5.20927V6.10927C1.33398 6.47594 1.63398 6.77594 2.00066 6.77594H6.44732C6.60066 5.89594 7.47398 5.26927 8.42735 5.5226C8.96063 5.6626 9.39399 6.09594 9.53399 6.62927C9.54735 6.67594 9.54735 6.72927 9.55399 6.77594H14.0006C14.3674 6.77594 14.6674 6.47594 14.6674 6.10927V5.20927C14.6674 3.06927 12.934 1.33594 10.794 1.33594Z" fill="white"/>
</svg>
