<svg width="16" height="16" viewBox="0 0 16 16" fill="none" xmlns="http://www.w3.org/2000/svg">
<path d="M10.794 1.33594H5.20732C2.78066 1.33594 1.33398 2.7826 1.33398 5.20927V10.7892C1.33398 13.2226 2.78066 14.6692 5.20732 14.6692H10.7874C13.214 14.6692 14.6606 13.2226 14.6606 10.796V5.20927C14.6674 2.7826 13.2206 1.33594 10.794 1.33594ZM4.33398 8.3826H6.18066C6.45398 8.3826 6.68066 8.60924 6.68066 8.8826C6.68066 9.15596 6.45398 9.3826 6.18066 9.3826H4.33398C4.06066 9.3826 3.83398 9.15596 3.83398 8.8826C3.83398 8.60924 4.06066 8.3826 4.33398 8.3826ZM8.64735 11.8892H4.33398C4.06066 11.8892 3.83398 11.6626 3.83398 11.3892C3.83398 11.116 4.06066 10.8892 4.33398 10.8892H8.64735C8.92063 10.8892 9.14735 11.116 9.14735 11.3892C9.14735 11.6626 8.92735 11.8892 8.64735 11.8892ZM11.6674 11.8892H10.434C10.1606 11.8892 9.93399 11.6626 9.93399 11.3892C9.93399 11.116 10.1606 10.8892 10.434 10.8892H11.6674C11.9406 10.8892 12.1674 11.116 12.1674 11.3892C12.1674 11.6626 11.9406 11.8892 11.6674 11.8892ZM11.6674 9.3826H7.98066C7.70732 9.3826 7.48066 9.15596 7.48066 8.8826C7.48066 8.60924 7.70732 8.3826 7.98066 8.3826H11.6674C11.9406 8.3826 12.1674 8.60924 12.1674 8.8826C12.1674 9.15596 11.9406 9.3826 11.6674 9.3826Z" fill="white"/>
</svg>
