<svg width="16" height="16" viewBox="0 0 16 16" fill="none" xmlns="http://www.w3.org/2000/svg">
<path d="M12.3198 8.16664C12.5065 8.16664 12.6665 8.00664 12.6531 7.82C12.4731 5.4 10.4598 3.5 7.9998 3.5C5.53982 3.5 3.52648 5.4 3.34648 7.82C3.33315 8.00664 3.49315 8.16664 3.67982 8.16664H12.3198Z" fill="white"/>
<path d="M14.666 8.66404H14.6126C14.246 8.66404 13.946 8.36404 13.946 7.9974C13.946 7.63073 14.246 7.33073 14.6126 7.33073C14.9794 7.33073 15.306 7.63073 15.306 7.9974C15.306 8.36404 15.0326 8.66404 14.666 8.66404ZM1.38602 8.66404H1.33268C0.966017 8.66404 0.666016 8.36404 0.666016 7.9974C0.666016 7.63073 0.966017 7.33073 1.33268 7.33073C1.69935 7.33073 2.02602 7.63073 2.02602 7.9974C2.02602 8.36404 1.75268 8.66404 1.38602 8.66404ZM12.6726 3.99073C12.4994 3.99073 12.3326 3.92406 12.1994 3.7974C11.9394 3.5374 11.9394 3.1174 12.1994 2.8574L12.286 2.77073C12.546 2.51073 12.966 2.51073 13.226 2.77073C13.486 3.03073 13.486 3.45073 13.226 3.71073L13.1394 3.7974C13.0126 3.92406 12.846 3.99073 12.6726 3.99073ZM3.32602 3.99073C3.15268 3.99073 2.98602 3.92406 2.85268 3.7974L2.76602 3.70406C2.50602 3.44406 2.50602 3.02406 2.76602 2.76406C3.02602 2.50406 3.44602 2.50406 3.70602 2.76406L3.79268 2.85073C4.05268 3.11073 4.05268 3.53073 3.79268 3.79073C3.66602 3.92406 3.49268 3.99073 3.32602 3.99073ZM7.99934 2.02406C7.63268 2.02406 7.33268 1.75073 7.33268 1.38406V1.33073C7.33268 0.964062 7.63268 0.664062 7.99934 0.664062C8.36601 0.664062 8.66601 0.964062 8.66601 1.33073C8.66601 1.6974 8.36601 2.02406 7.99934 2.02406Z" fill="white"/>
<path d="M13.3326 10.5H2.66602C2.39268 10.5 2.16602 10.2734 2.16602 10C2.16602 9.72664 2.39268 9.5 2.66602 9.5H13.3326C13.606 9.5 13.8326 9.72664 13.8326 10C13.8326 10.2734 13.606 10.5 13.3326 10.5Z" fill="white"/>
<path d="M12 12.5H4C3.72666 12.5 3.5 12.2734 3.5 12C3.5 11.7266 3.72666 11.5 4 11.5H12C12.2734 11.5 12.5 11.7266 12.5 12C12.5 12.2734 12.2734 12.5 12 12.5Z" fill="white"/>
<path d="M10 14.5H6C5.72666 14.5 5.5 14.2734 5.5 14C5.5 13.7266 5.72666 13.5 6 13.5H10C10.2734 13.5 10.5 13.7266 10.5 14C10.5 14.2734 10.2734 14.5 10 14.5Z" fill="white"/>
</svg>
