<svg width="16" height="16" viewBox="0 0 16 16" fill="none" xmlns="http://www.w3.org/2000/svg">
<g clip-path="url(#clip0_13_15672)">
<mask id="mask0_13_15672" style="mask-type:luminance" maskUnits="userSpaceOnUse" x="0" y="0" width="16" height="16">
<path d="M16 0H0V16H16V0Z" fill="white"/>
</mask>
<g mask="url(#mask0_13_15672)">
<path d="M8.00063 12.6653C10.578 12.6653 12.6674 10.5761 12.6674 7.9987C12.6674 5.42137 10.578 3.33203 8.00063 3.33203C5.42333 3.33203 3.33398 5.42137 3.33398 7.9987C3.33398 10.5761 5.42333 12.6653 8.00063 12.6653Z" fill="white"/>
<path d="M7.99934 15.304C7.63268 15.304 7.33268 15.0308 7.33268 14.664V14.6108C7.33268 14.244 7.63268 13.944 7.99934 13.944C8.36601 13.944 8.66601 14.244 8.66601 14.6108C8.66601 14.9774 8.36601 15.304 7.99934 15.304ZM12.7594 13.424C12.586 13.424 12.4194 13.3574 12.286 13.2308L12.1994 13.144C11.9394 12.884 11.9394 12.464 12.1994 12.204C12.4594 11.944 12.8794 11.944 13.1394 12.204L13.226 12.2908C13.486 12.5508 13.486 12.9708 13.226 13.2308C13.0994 13.3574 12.9326 13.424 12.7594 13.424ZM3.23935 13.424C3.06602 13.424 2.89935 13.3574 2.76602 13.2308C2.50602 12.9708 2.50602 12.5508 2.76602 12.2908L2.85268 12.204C3.11268 11.944 3.53268 11.944 3.79268 12.204C4.05268 12.464 4.05268 12.884 3.79268 13.144L3.70602 13.2308C3.57934 13.3574 3.40602 13.424 3.23935 13.424ZM14.666 8.66404H14.6126C14.246 8.66404 13.946 8.36404 13.946 7.9974C13.946 7.63073 14.246 7.33073 14.6126 7.33073C14.9794 7.33073 15.306 7.63073 15.306 7.9974C15.306 8.36404 15.0326 8.66404 14.666 8.66404ZM1.38602 8.66404H1.33268C0.966017 8.66404 0.666016 8.36404 0.666016 7.9974C0.666016 7.63073 0.966017 7.33073 1.33268 7.33073C1.69935 7.33073 2.02602 7.63073 2.02602 7.9974C2.02602 8.36404 1.75268 8.66404 1.38602 8.66404ZM12.6726 3.99073C12.4994 3.99073 12.3326 3.92406 12.1994 3.7974C11.9394 3.5374 11.9394 3.1174 12.1994 2.8574L12.286 2.77073C12.546 2.51073 12.966 2.51073 13.226 2.77073C13.486 3.03073 13.486 3.45073 13.226 3.71073L13.1394 3.7974C13.0126 3.92406 12.846 3.99073 12.6726 3.99073ZM3.32602 3.99073C3.15268 3.99073 2.98602 3.92406 2.85268 3.7974L2.76602 3.70406C2.50602 3.44406 2.50602 3.02406 2.76602 2.76406C3.02602 2.50406 3.44602 2.50406 3.70602 2.76406L3.79268 2.85073C4.05268 3.11073 4.05268 3.53073 3.79268 3.79073C3.66602 3.92406 3.49268 3.99073 3.32602 3.99073ZM7.99934 2.02406C7.63268 2.02406 7.33268 1.75073 7.33268 1.38406V1.33073C7.33268 0.964062 7.63268 0.664062 7.99934 0.664062C8.36601 0.664062 8.66601 0.964062 8.66601 1.33073C8.66601 1.6974 8.36601 2.02406 7.99934 2.02406Z" fill="white"/>
</g>
</g>
<defs>
<clipPath id="clip0_13_15672">
<rect width="16" height="16" fill="white"/>
</clipPath>
</defs>
</svg>
