<svg width="16" height="16" viewBox="0 0 16 16" fill="none" xmlns="http://www.w3.org/2000/svg">
<path d="M8.00039 1.60156C8.33175 1.60156 8.60039 1.87019 8.60039 2.20156V3.40156C8.60039 3.73293 8.33175 4.00156 8.00039 4.00156C7.66902 4.00156 7.40039 3.73293 7.40039 3.40156V2.20156C7.40039 1.87019 7.66902 1.60156 8.00039 1.60156Z" fill="#0F172A"/>
<path d="M8.00039 12C8.33175 12 8.60039 12.2686 8.60039 12.6V13.8C8.60039 14.1314 8.33175 14.4 8.00039 14.4C7.66902 14.4 7.40039 14.1314 7.40039 13.8V12.6C7.40039 12.2686 7.66902 12 8.00039 12Z" fill="#0F172A"/>
<path d="M7.99961 5.60156C6.67413 5.60156 5.59961 6.67608 5.59961 8.00156C5.59961 9.32708 6.67413 10.4016 7.99961 10.4016C9.32513 10.4016 10.3996 9.32708 10.3996 8.00156C10.3996 6.67608 9.32513 5.60156 7.99961 5.60156Z" fill="#0F172A"/>
<path d="M12.5251 4.32114C12.7594 4.08682 12.7594 3.70693 12.5251 3.47262C12.2908 3.2383 11.9109 3.2383 11.6766 3.47262L10.8281 4.32114C10.5938 4.55545 10.5938 4.93535 10.8281 5.16967C11.0624 5.40398 11.4422 5.40398 11.6766 5.16967L12.5251 4.32114Z" fill="#0F172A"/>
<path d="M5.17162 11.6766C5.40594 11.4423 5.40594 11.0624 5.17162 10.8281C4.9373 10.5938 4.55741 10.5938 4.3231 10.8281L3.47457 11.6766C3.24025 11.9109 3.24025 12.2908 3.47457 12.5251C3.70888 12.7594 4.08878 12.7594 4.3231 12.5251L5.17162 11.6766Z" fill="#0F172A"/>
<path d="M14.4 7.99844C14.4 8.3298 14.1314 8.59844 13.8 8.59844H12.6C12.2686 8.59844 12 8.3298 12 7.99844C12 7.66707 12.2686 7.39844 12.6 7.39844H13.8C14.1314 7.39844 14.4 7.66707 14.4 7.99844Z" fill="#0F172A"/>
<path d="M3.99961 7.99844C3.99961 8.3298 3.73098 8.59844 3.39961 8.59844H2.19961C1.86824 8.59844 1.59961 8.3298 1.59961 7.99844C1.59961 7.66707 1.86824 7.39844 2.19961 7.39844H3.39961C3.73098 7.39844 3.99961 7.66707 3.99961 7.99844Z" fill="#0F172A"/>
<path d="M11.6766 12.5251C11.9109 12.7594 12.2908 12.7594 12.5251 12.5251C12.7594 12.2908 12.7594 11.9109 12.5251 11.6766L11.6766 10.8281C11.4422 10.5938 11.0624 10.5938 10.8281 10.8281C10.5938 11.0624 10.5938 11.4422 10.8281 11.6766L11.6766 12.5251Z" fill="#0F172A"/>
<path d="M4.32309 5.16967C4.55741 5.40398 4.93731 5.40398 5.17162 5.16967C5.40594 4.93535 5.40594 4.55545 5.17162 4.32114L4.32309 3.47262C4.08878 3.2383 3.70888 3.2383 3.47456 3.47262C3.24025 3.70693 3.24025 4.08682 3.47456 4.32114L4.32309 5.16967Z" fill="#0F172A"/>
</svg>
