<svg width="16" height="16" viewBox="0 0 16 16" fill="none" xmlns="http://www.w3.org/2000/svg">
<path d="M12 1.33594H4C2.89334 1.33594 2 2.2226 2 3.31594V10.5892C2 11.6826 2.89334 12.5692 4 12.5692H4.50666C5.04 12.5692 5.54666 12.776 5.92 13.1492L7.06 14.276C7.58 14.7892 8.42664 14.7892 8.94664 14.276L10.0866 13.1492C10.46 12.776 10.9734 12.5692 11.5 12.5692H12C13.1066 12.5692 14 11.6826 14 10.5892V3.31594C14 2.2226 13.1066 1.33594 12 1.33594ZM6.92 8.67596C7.19334 8.67596 7.42 8.9026 7.42 9.17596C7.42 9.44924 7.19334 9.67596 6.92 9.67596H5.13334C4.84 9.67596 4.56666 9.53596 4.39334 9.29596C4.22666 9.06924 4.18666 8.78924 4.26666 8.5226C4.5 7.80927 5.07334 7.4226 5.58 7.07594C6.11334 6.71594 6.41334 6.48927 6.41334 6.1026C6.41334 5.75594 6.13334 5.47594 5.78666 5.47594C5.44 5.47594 5.16666 5.7626 5.16666 6.10927C5.16666 6.3826 4.94 6.60927 4.66666 6.60927C4.39334 6.60927 4.16666 6.3826 4.16666 6.10927C4.16666 5.21594 4.89334 4.4826 5.79334 4.4826C6.69334 4.4826 7.42 5.20927 7.42 6.10927C7.42 7.04927 6.71334 7.52927 6.14666 7.91594C5.79334 8.15596 5.46 8.3826 5.29334 8.6826H6.92V8.67596ZM11.3334 8.7226H11.1934V9.1826C11.1934 9.45596 10.9666 9.6826 10.6934 9.6826C10.42 9.6826 10.1934 9.45596 10.1934 9.1826V8.7226H8.88664C8.88664 8.7226 8.88664 8.7226 8.88 8.7226C8.55336 8.7226 8.25336 8.54924 8.08664 8.26924C7.92 7.9826 7.92 7.62927 8.08664 7.34927C8.54 6.56927 9.06664 5.6826 9.54664 4.90927C9.76 4.56927 10.1666 4.41594 10.5466 4.5226C10.9266 4.63594 11.1934 4.9826 11.1866 5.3826V7.72927H11.3334C11.6066 7.72927 11.8334 7.95594 11.8334 8.22924C11.8334 8.5026 11.6066 8.7226 11.3334 8.7226Z" fill="white"/>
<path d="M10.194 7.7178V5.75781C9.8007 6.39781 9.39398 7.08446 9.02734 7.71113H10.194V7.7178Z" fill="white"/>
</svg>
