<svg width="16" height="16" viewBox="0 0 16 16" fill="none" xmlns="http://www.w3.org/2000/svg">
<path fill-rule="evenodd" clip-rule="evenodd" d="M2.79961 1.60156C2.13687 1.60156 1.59961 2.13882 1.59961 2.80156V12.0016C1.59961 13.3271 2.67413 14.4016 3.99961 14.4016C5.32509 14.4016 6.39961 13.3271 6.39961 12.0016V2.80156C6.39961 2.13882 5.86235 1.60156 5.19961 1.60156H2.79961ZM12.202 7.19322L7.59961 11.7956V5.00741L8.80793 3.79911C9.27657 3.33047 10.0363 3.33047 10.505 3.79911L12.202 5.49616C12.6706 5.96479 12.6706 6.72459 12.202 7.19322ZM6.69077 14.4016H13.1996C13.8623 14.4016 14.3996 13.8643 14.3996 13.2016V10.8016C14.3996 10.1388 13.8623 9.60156 13.1996 9.60156H11.4908L6.69077 14.4016ZM3.99961 12.8016C4.44143 12.8016 4.79961 12.4434 4.79961 12.0016C4.79961 11.5597 4.44143 11.2016 3.99961 11.2016C3.55779 11.2016 3.19961 11.5597 3.19961 12.0016C3.19961 12.4434 3.55779 12.8016 3.99961 12.8016Z" fill="#0F172A"/>
</svg>
