<svg width="16" height="16" viewBox="0 0 16 16" fill="none" xmlns="http://www.w3.org/2000/svg">
<path fill-rule="evenodd" clip-rule="evenodd" d="M0.791016 4.19043C0.791016 3.19632 1.60491 2.39844 2.59902 2.39844H13.399C14.3931 2.39844 15.199 3.20433 15.199 4.19844L15.207 11.7984C15.207 12.7925 14.4012 13.5984 13.407 13.5984C10.3404 13.5984 5.6737 13.5984 2.60703 13.5984C1.61292 13.5984 0.799024 12.7845 0.799024 11.7904L0.791016 4.19043ZM7.39902 11.8064V11.3064C7.39902 10.9751 7.13039 10.7064 6.79902 10.7064H2.59902C2.26766 10.7064 1.99902 10.9751 1.99902 11.3064V11.7984C1.99902 12.1298 2.26766 12.3984 2.59902 12.3984H6.89729C7.18191 12.3516 7.39902 12.1044 7.39902 11.8064ZM8.59902 11.8064C8.59902 12.1044 8.81614 12.3516 9.10078 12.3984H13.399C13.7304 12.3984 13.999 12.1298 13.999 11.7984V11.3064C13.999 10.9751 13.7304 10.7064 13.399 10.7064H9.19902C8.86766 10.7064 8.59902 10.9751 8.59902 11.3064V11.8064ZM13.999 8.90244V8.40244C13.999 8.07108 13.7304 7.80244 13.399 7.80244H9.19902C8.86766 7.80244 8.59902 8.07108 8.59902 8.40244V8.90244C8.59902 9.2338 8.86766 9.50244 9.19902 9.50244H13.399C13.7304 9.50244 13.999 9.2338 13.999 8.90244ZM7.39902 8.90244V8.40244C7.39902 8.07108 7.13039 7.80244 6.79902 7.80244H2.59902C2.26766 7.80244 1.99902 8.07108 1.99902 8.40244V8.90244C1.99902 9.2338 2.26766 9.50244 2.59902 9.50244H6.79902C7.13039 9.50244 7.39902 9.2338 7.39902 8.90244ZM13.999 5.99844V5.49844C13.999 5.16707 13.7304 4.89844 13.399 4.89844H9.19902C8.86766 4.89844 8.59902 5.16707 8.59902 5.49844V5.99844C8.59902 6.32981 8.86766 6.59844 9.19902 6.59844H13.399C13.7304 6.59844 13.999 6.32981 13.999 5.99844ZM7.39902 5.99844V5.49844C7.39902 5.16707 7.13039 4.89844 6.79902 4.89844H2.59902C2.26766 4.89844 1.99902 5.16707 1.99902 5.49844V5.99844C1.99902 6.32981 2.26766 6.59844 2.59902 6.59844H6.79902C7.13039 6.59844 7.39902 6.32981 7.39902 5.99844Z" fill="#0F172A"/>
</svg>
