<svg width="16" height="16" viewBox="0 0 16 16" fill="none" xmlns="http://www.w3.org/2000/svg">
<path d="M11.9204 4.07974L2.61372 13.3864C2.32705 13.6731 1.84705 13.6464 1.61372 13.3197C1.28038 12.8597 1.21372 12.2197 1.56038 11.6664L3.40038 8.7131C3.64706 8.31974 3.64706 7.67973 3.40038 7.2864L1.56038 4.33307C0.940383 3.34641 1.65372 2.06641 2.81372 2.06641H10.447C10.9004 2.06641 11.4604 2.37974 11.7004 2.75974L12.0138 3.25307C12.1738 3.51974 12.1404 3.85974 11.9204 4.07974Z" fill="white"/>
<path d="M14.4206 8.73998L10.9673 13.34C10.7273 13.6667 10.1939 13.9333 9.78055 13.9333H5.00723C4.4139 13.9333 4.1139 13.2133 4.5339 12.7933L12.2139 5.12C12.5139 4.82 13.0273 4.87332 13.2539 5.24L14.4873 7.22C14.7539 7.64667 14.7273 8.33334 14.4206 8.73998Z" fill="white"/>
</svg>
