<svg width="16" height="16" viewBox="0 0 16 16" fill="none" xmlns="http://www.w3.org/2000/svg">
<path d="M11.3331 2.5H6.85313C5.91313 2.5 5.01979 2.89334 4.38645 3.59334L2.03312 6.18C1.09313 7.21334 1.09313 8.78664 2.03312 9.82L4.38645 12.4066C5.01979 13.1 5.91313 13.5 6.85313 13.5H11.3331C13.1731 13.5 14.6665 12.0066 14.6665 10.1666V5.83334C14.6665 3.99334 13.1731 2.5 11.3331 2.5ZM11.0198 9.29336C11.2131 9.48664 11.2131 9.80664 11.0198 10C10.9198 10.1 10.7931 10.1466 10.6665 10.1466C10.5398 10.1466 10.4131 10.1 10.3131 10L9.01976 8.70664L7.72646 10C7.62646 10.1 7.4998 10.1466 7.37312 10.1466C7.24646 10.1466 7.1198 10.1 7.0198 10C6.82646 9.80664 6.82646 9.48664 7.0198 9.29336L8.31312 8L7.0198 6.70666C6.82646 6.51334 6.82646 6.19334 7.0198 6C7.21312 5.80666 7.53313 5.80666 7.72646 6L9.01976 7.29334L10.3131 6C10.5065 5.80666 10.8265 5.80666 11.0198 6C11.2131 6.19334 11.2131 6.51334 11.0198 6.70666L9.72648 8L11.0198 9.29336Z" fill="white"/>
</svg>
