<svg width="16" height="16" viewBox="0 0 16 16" fill="none" xmlns="http://www.w3.org/2000/svg">
<path d="M13.2203 5.80247L10.2003 2.78247C9.56704 2.14914 8.69368 1.80914 7.80034 1.85581L4.46698 2.01581C3.13364 2.07581 2.07364 3.13581 2.00698 4.46247L1.84698 7.79581C1.80698 8.68916 2.14031 9.56244 2.77364 10.1958L5.79364 13.2158C7.03367 14.4558 9.04704 14.4558 10.2937 13.2158L13.2203 10.2892C14.467 9.0558 14.467 7.04247 13.2203 5.80247ZM6.33364 8.2558C5.28031 8.2558 4.41364 7.39581 4.41364 6.33581C4.41364 5.27581 5.28031 4.41581 6.33364 4.41581C7.387 4.41581 8.25368 5.27581 8.25368 6.33581C8.25368 7.39581 7.387 8.2558 6.33364 8.2558ZM11.687 9.02244L9.02032 11.6892C8.92032 11.7892 8.79368 11.8358 8.66704 11.8358C8.54032 11.8358 8.41368 11.7892 8.31368 11.6892C8.12032 11.4958 8.12032 11.1758 8.31368 10.9824L10.9803 8.3158C11.1737 8.12244 11.4937 8.12244 11.687 8.3158C11.8803 8.50916 11.8803 8.82916 11.687 9.02244Z" fill="white"/>
</svg>
