<svg width="16" height="16" viewBox="0 0 16 16" fill="none" xmlns="http://www.w3.org/2000/svg">
<path d="M12 1.33594H4C2.89334 1.33594 2 2.2226 2 3.31594V10.5892C2 11.6826 2.89334 12.576 4 12.576H4.50666C5.03334 12.576 5.54666 12.7826 5.92 13.156L7.06 14.2826C7.58 14.796 8.42 14.796 8.94 14.2826L10.08 13.156C10.4534 12.7826 10.9666 12.576 11.4934 12.576H12C13.1066 12.576 14 11.6826 14 10.5892V3.31594C14 2.2226 13.1066 1.33594 12 1.33594ZM8 3.7026C8.72 3.7026 9.3 4.28927 9.3 5.0026C9.3 5.70927 8.74 6.27594 8.04664 6.3026C8.02 6.3026 7.98 6.3026 7.94666 6.3026C7.24666 6.27594 6.69334 5.70927 6.69334 5.0026C6.7 4.28927 7.28 3.7026 8 3.7026ZM9.83336 9.79596C8.82664 10.4692 7.17334 10.4692 6.16666 9.79596C5.28 9.20924 5.28 8.23596 6.16666 7.6426C7.18 6.96927 8.83336 6.96927 9.83336 7.6426C10.72 8.23596 10.72 9.2026 9.83336 9.79596Z" fill="white"/>
</svg>
