<svg width="16" height="16" viewBox="0 0 16 16" fill="none" xmlns="http://www.w3.org/2000/svg">
<path fill-rule="evenodd" clip-rule="evenodd" d="M3.59961 1.60156C2.49504 1.60156 1.59961 2.49699 1.59961 3.60156V6.70451C1.59961 7.23494 1.81032 7.74365 2.18539 8.11868L8.18537 14.1187C8.96641 14.8998 10.2328 14.8998 11.0138 14.1187L14.1167 11.0158C14.8978 10.2348 14.8978 8.96836 14.1167 8.18732L8.11673 2.18735C7.7417 1.81227 7.23299 1.60156 6.70255 1.60156H3.59961ZM3.99961 4.80156C4.44143 4.80156 4.79961 4.44339 4.79961 4.00156C4.79961 3.55974 4.44143 3.20156 3.99961 3.20156C3.55779 3.20156 3.19961 3.55974 3.19961 4.00156C3.19961 4.44339 3.55779 4.80156 3.99961 4.80156Z" fill="#0F172A"/>
</svg>
