<svg width="16" height="16" viewBox="0 0 16 16" fill="none" xmlns="http://www.w3.org/2000/svg">
<path d="M13.3335 12.8395H7.2869C6.9869 12.8395 6.74023 12.5927 6.74023 12.2927C6.74023 11.9927 6.9869 11.7461 7.2869 11.7461H13.3335C13.6335 11.7461 13.8802 11.9927 13.8802 12.2927C13.8802 12.5995 13.6335 12.8395 13.3335 12.8395Z" fill="white"/>
<path d="M13.3335 8.64804H7.2869C6.9869 8.64804 6.74023 8.40132 6.74023 8.10132C6.74023 7.80135 6.9869 7.55469 7.2869 7.55469H13.3335C13.6335 7.55469 13.8802 7.80135 13.8802 8.10132C13.8802 8.40132 13.6335 8.64804 13.3335 8.64804Z" fill="white"/>
<path d="M13.3335 4.44489H7.2869C6.9869 4.44489 6.74023 4.19823 6.74023 3.89823C6.74023 3.59823 6.9869 3.35156 7.2869 3.35156H13.3335C13.6335 3.35156 13.8802 3.59823 13.8802 3.89823C13.8802 4.19823 13.6335 4.44489 13.3335 4.44489Z" fill="white"/>
<path d="M3.27247 5.35198C3.12581 5.35198 2.98581 5.29198 2.88581 5.19198L2.27914 4.58531C2.06581 4.37198 2.06581 4.02531 2.27914 3.81198C2.49247 3.59864 2.83914 3.59864 3.05247 3.81198L3.27247 4.03198L4.69914 2.60531C4.91247 2.39198 5.25914 2.39198 5.47247 2.60531C5.68581 2.81864 5.68581 3.16531 5.47247 3.37864L3.65914 5.19198C3.55247 5.29198 3.41914 5.35198 3.27247 5.35198Z" fill="white"/>
<path d="M3.27247 9.55508C3.13247 9.55508 2.99247 9.5018 2.88581 9.39508L2.27914 8.78844C2.06581 8.57508 2.06581 8.22844 2.27914 8.01508C2.49247 7.80177 2.83914 7.80177 3.05247 8.01508L3.27247 8.23508L4.69914 6.80843C4.91247 6.59511 5.25914 6.59511 5.47247 6.80843C5.68581 7.02177 5.68581 7.36843 5.47247 7.58177L3.65914 9.39508C3.55247 9.5018 3.41247 9.55508 3.27247 9.55508Z" fill="white"/>
<path d="M3.27247 13.5551C3.13247 13.5551 2.99247 13.5018 2.88581 13.3951L2.27914 12.7885C2.06581 12.5751 2.06581 12.2285 2.27914 12.0151C2.49247 11.8018 2.83914 11.8018 3.05247 12.0151L3.27247 12.2351L4.69914 10.8085C4.91247 10.5951 5.25914 10.5951 5.47247 10.8085C5.68581 11.0218 5.68581 11.3685 5.47247 11.5818L3.65914 13.3951C3.55247 13.5018 3.41247 13.5551 3.27247 13.5551Z" fill="white"/>
</svg>
