<svg width="16" height="16" viewBox="0 0 16 16" fill="none" xmlns="http://www.w3.org/2000/svg">
<path d="M10.794 1.33594H5.20732C2.78066 1.33594 1.33398 2.7826 1.33398 5.20927V10.796C1.33398 13.2226 2.78066 14.6692 5.20732 14.6692H10.794C13.2206 14.6692 14.6674 13.2226 14.6674 10.796V5.20927C14.6674 2.7826 13.2206 1.33594 10.794 1.33594ZM6.64732 9.93596L5.14732 11.436C5.04732 11.536 4.92066 11.5826 4.79398 11.5826C4.66732 11.5826 4.53398 11.536 4.44066 11.436L3.94066 10.936C3.74066 10.7426 3.74066 10.4226 3.94066 10.2292C4.13398 10.036 4.44732 10.036 4.64732 10.2292L4.79398 10.376L5.94066 9.22924C6.13398 9.03596 6.44732 9.03596 6.64732 9.22924C6.84066 9.4226 6.84066 9.7426 6.64732 9.93596ZM6.64732 5.26927L5.14732 6.76927C5.04732 6.86927 4.92066 6.91594 4.79398 6.91594C4.66732 6.91594 4.53398 6.86927 4.44066 6.76927L3.94066 6.26927C3.74066 6.07594 3.74066 5.75594 3.94066 5.5626C4.13398 5.36927 4.44732 5.36927 4.64732 5.5626L4.79398 5.70927L5.94066 4.5626C6.13398 4.36927 6.44732 4.36927 6.64732 4.5626C6.84066 4.75594 6.84066 5.07594 6.64732 5.26927ZM11.7074 11.0826H8.20735C7.93398 11.0826 7.70732 10.856 7.70732 10.5826C7.70732 10.3092 7.93398 10.0826 8.20735 10.0826H11.7074C11.9874 10.0826 12.2074 10.3092 12.2074 10.5826C12.2074 10.856 11.9874 11.0826 11.7074 11.0826ZM11.7074 6.41594H8.20735C7.93398 6.41594 7.70732 6.18927 7.70732 5.91594C7.70732 5.6426 7.93398 5.41594 8.20735 5.41594H11.7074C11.9874 5.41594 12.2074 5.6426 12.2074 5.91594C12.2074 6.18927 11.9874 6.41594 11.7074 6.41594Z" fill="white"/>
</svg>
