<svg width="16" height="16" viewBox="0 0 16 16" fill="none" xmlns="http://www.w3.org/2000/svg">
<path d="M11.2194 10.4268C11.6661 10.1334 12.2527 10.4534 12.2527 10.9868V11.8468C12.2527 12.6934 11.5927 13.6001 10.7994 13.8668L8.67274 14.5734C8.29938 14.7001 7.69275 14.7001 7.32609 14.5734L5.19943 13.8668C4.39943 13.6001 3.74609 12.6934 3.74609 11.8468V10.9801C3.74609 10.4534 4.33277 10.1334 4.77277 10.4201L6.14609 11.3134C6.67275 11.6668 7.33941 11.8401 8.0061 11.8401C8.67274 11.8401 9.33938 11.6668 9.8661 11.3134L11.2194 10.4268Z" fill="white"/>
<path d="M13.319 4.30703L9.32569 1.68703C8.60569 1.2137 7.41902 1.2137 6.69902 1.68703L2.68571 4.30703C1.39904 5.14036 1.39904 7.027 2.68571 7.867L3.75237 8.5603L6.69902 10.4803C7.41902 10.9537 8.60569 10.9537 9.32569 10.4803L12.2523 8.5603L13.1657 7.96033V10.0003C13.1657 10.2737 13.3923 10.5003 13.6657 10.5003C13.939 10.5003 14.1657 10.2737 14.1657 10.0003V6.72033C14.4323 5.86036 14.159 4.86036 13.319 4.30703Z" fill="white"/>
</svg>
