<svg width="16" height="16" viewBox="0 0 16 16" fill="none" xmlns="http://www.w3.org/2000/svg">
<path d="M8.00063 1.33594C4.32066 1.33594 1.33398 4.3226 1.33398 8.0026C1.33398 11.6826 4.32066 14.6692 8.00063 14.6692C11.6806 14.6692 14.6674 11.6826 14.6674 8.0026C14.6674 4.3226 11.6806 1.33594 8.00063 1.33594ZM11.8606 8.47596L10.634 9.7026C10.374 9.9626 9.95399 9.9626 9.69399 9.7026L8.00063 8.0026L6.30731 9.69596C6.04731 9.95596 5.62731 9.95596 5.36731 9.69596L4.14065 8.46924C3.88065 8.20924 3.88065 7.78927 4.14065 7.52927L5.36731 6.3026C5.62731 6.0426 6.04731 6.0426 6.30731 6.3026L8.00063 8.0026L9.69399 6.30927C9.95399 6.04927 10.374 6.04927 10.634 6.30927L11.8606 7.53594C12.1206 7.78927 12.1206 8.21596 11.8606 8.47596Z" fill="white"/>
</svg>
