<svg width="16" height="16" viewBox="0 0 16 16" fill="none" xmlns="http://www.w3.org/2000/svg">
<path d="M14.4741 6.60218L12.8741 3.38885C12.5607 2.75552 11.7274 2.24219 11.0207 2.24219H4.98072C4.27405 2.24219 3.44072 2.75552 3.12738 3.38885L1.52738 6.60218C1.14071 7.37553 1.35405 8.47556 1.98738 9.05556L6.60738 13.2488C7.37405 13.9422 8.62071 13.9422 9.38735 13.2488L14.0074 9.05556C14.6474 8.47556 14.8607 7.36887 14.4741 6.60218ZM10.6674 6.16885H8.50071V9.66884C8.50071 9.9422 8.27407 10.1688 8.00071 10.1688C7.72738 10.1688 7.50072 9.9422 7.50072 9.66884V6.16885H5.33405C5.06072 6.16885 4.83405 5.94219 4.83405 5.66885C4.83405 5.39552 5.06072 5.16885 5.33405 5.16885H10.6674C10.9407 5.16885 11.1674 5.39552 11.1674 5.66885C11.1674 5.94219 10.9407 6.16885 10.6674 6.16885Z" fill="white"/>
</svg>
