<svg width="16" height="16" viewBox="0 0 16 16" fill="none" xmlns="http://www.w3.org/2000/svg">
<path d="M14 3.5H2C1.72666 3.5 1.5 3.27334 1.5 3C1.5 2.72666 1.72666 2.5 2 2.5H14C14.2734 2.5 14.5 2.72666 14.5 3C14.5 3.27334 14.2734 3.5 14 3.5Z" fill="white"/>
<path d="M11.1598 6.83594H4.83984C4.56652 6.83594 4.33984 6.60927 4.33984 6.33594C4.33984 6.0626 4.56652 5.83594 4.83984 5.83594H11.1532C11.4266 5.83594 11.6532 6.0626 11.6532 6.33594C11.6532 6.60927 11.4332 6.83594 11.1598 6.83594Z" fill="white"/>
<path d="M14 10.1641H2C1.72666 10.1641 1.5 9.93742 1.5 9.66406C1.5 9.39078 1.72666 9.16406 2 9.16406H14C14.2734 9.16406 14.5 9.39078 14.5 9.66406C14.5 9.93742 14.2734 10.1641 14 10.1641Z" fill="white"/>
<path d="M11.1598 13.5H4.83984C4.56652 13.5 4.33984 13.2734 4.33984 13C4.33984 12.7266 4.56652 12.5 4.83984 12.5H11.1532C11.4266 12.5 11.6532 12.7266 11.6532 13C11.6532 13.2734 11.4332 13.5 11.1598 13.5Z" fill="white"/>
</svg>
