<svg width="16" height="16" viewBox="0 0 16 16" fill="none" xmlns="http://www.w3.org/2000/svg">
<path d="M13.9674 2.75594C13.774 2.47594 13.5274 2.22927 13.2474 2.03594C12.614 1.57594 11.7874 1.33594 10.794 1.33594H5.20732C5.07398 1.33594 4.94066 1.3426 4.81398 1.35594C2.62732 1.49594 1.33398 2.91594 1.33398 5.20927V10.796C1.33398 11.7892 1.57398 12.616 2.03398 13.2492C2.22732 13.5292 2.47398 13.776 2.75398 13.9692C3.30066 14.3692 3.99398 14.6026 4.81398 14.656C4.94066 14.6626 5.07398 14.6692 5.20732 14.6692H10.794C13.2206 14.6692 14.6674 13.2226 14.6674 10.796V5.20927C14.6674 4.21594 14.4274 3.38927 13.9674 2.75594ZM11.2206 12.6426H4.78066C4.50732 12.6426 4.28066 12.416 4.28066 12.1426C4.28066 11.8692 4.50732 11.6426 4.78066 11.6426H11.2274C11.5006 11.6426 11.7274 11.8692 11.7274 12.1426C11.7274 12.416 11.5006 12.6426 11.2206 12.6426ZM11.7206 7.0826C11.7206 9.13596 10.054 10.8026 8.00063 10.8026C5.94732 10.8026 4.28066 9.13596 4.28066 7.0826V3.8626C4.28066 3.58927 4.50732 3.3626 4.78066 3.3626C5.05398 3.3626 5.28066 3.58927 5.28066 3.8626V7.0826C5.28066 8.5826 6.50066 9.8026 8.00063 9.8026C9.50063 9.8026 10.7206 8.5826 10.7206 7.0826V3.8626C10.7206 3.58927 10.9474 3.3626 11.2206 3.3626C11.494 3.3626 11.7206 3.58927 11.7206 3.8626V7.0826Z" fill="white"/>
</svg>
