<svg width="16" height="16" viewBox="0 0 16 16" fill="none" xmlns="http://www.w3.org/2000/svg">
<path d="M13.9674 2.75594C13.774 2.47594 13.5274 2.22927 13.2474 2.03594C12.614 1.57594 11.7874 1.33594 10.794 1.33594H5.20732C5.07398 1.33594 4.94066 1.3426 4.81398 1.35594C2.62732 1.49594 1.33398 2.91594 1.33398 5.20927V10.796C1.33398 11.7892 1.57398 12.616 2.03398 13.2492C2.22732 13.5292 2.47398 13.776 2.75398 13.9692C3.30066 14.3692 3.99398 14.6026 4.81398 14.656C4.94066 14.6626 5.07398 14.6692 5.20732 14.6692H10.794C13.2206 14.6692 14.6674 13.2226 14.6674 10.796V5.20927C14.6674 4.21594 14.4274 3.38927 13.9674 2.75594ZM10.5806 5.00927H9.28063L7.78732 10.9892H9.01399C9.28735 10.9892 9.51399 11.216 9.51399 11.4892C9.51399 11.7626 9.28735 11.9892 9.01399 11.9892H5.42066C5.14732 11.9892 4.92066 11.7626 4.92066 11.4892C4.92066 11.216 5.14732 10.9892 5.42066 10.9892H6.75398L8.24735 5.00927H6.98732C6.71398 5.00927 6.48732 4.7826 6.48732 4.50927C6.48732 4.23594 6.71398 4.00927 6.98732 4.00927H10.574C10.8474 4.00927 11.074 4.23594 11.074 4.50927C11.074 4.7826 10.854 5.00927 10.5806 5.00927Z" fill="white"/>
</svg>
