<svg width="16" height="16" viewBox="0 0 16 16" fill="none" xmlns="http://www.w3.org/2000/svg">
<path d="M14 3.5H2C1.72666 3.5 1.5 3.27334 1.5 3C1.5 2.72666 1.72666 2.5 2 2.5H14C14.2734 2.5 14.5 2.72666 14.5 3C14.5 3.27334 14.2734 3.5 14 3.5Z" fill="white"/>
<path d="M14.0009 6.83594H7.6875C7.41416 6.83594 7.1875 6.60927 7.1875 6.33594C7.1875 6.0626 7.41416 5.83594 7.6875 5.83594H14.0009C14.2741 5.83594 14.5009 6.0626 14.5009 6.33594C14.5009 6.60927 14.2741 6.83594 14.0009 6.83594Z" fill="white"/>
<path d="M14 10.1641H2C1.72666 10.1641 1.5 9.93742 1.5 9.66406C1.5 9.39078 1.72666 9.16406 2 9.16406H14C14.2734 9.16406 14.5 9.39078 14.5 9.66406C14.5 9.93742 14.2734 10.1641 14 10.1641Z" fill="white"/>
<path d="M14.0009 13.5H7.6875C7.41416 13.5 7.1875 13.2734 7.1875 13C7.1875 12.7266 7.41416 12.5 7.6875 12.5H14.0009C14.2741 12.5 14.5009 12.7266 14.5009 13C14.5009 13.2734 14.2741 13.5 14.0009 13.5Z" fill="white"/>
</svg>
