<svg width="16" height="16" viewBox="0 0 16 16" fill="none" xmlns="http://www.w3.org/2000/svg">
<path d="M10.794 1.33594H5.20732C2.78066 1.33594 1.33398 2.7826 1.33398 5.20927V10.7892C1.33398 13.2226 2.78066 14.6692 5.20732 14.6692H10.7874C13.214 14.6692 14.6606 13.2226 14.6606 10.796V5.20927C14.6674 2.7826 13.2206 1.33594 10.794 1.33594ZM11.7806 6.14927C11.654 6.39594 11.3606 6.49594 11.1074 6.37594C10.2874 5.9626 9.40063 5.73594 8.50063 5.66927V10.8626C8.50063 11.136 8.27399 11.3626 8.00063 11.3626C7.72732 11.3626 7.50066 11.136 7.50066 10.8626V5.66927C6.60066 5.73594 5.71398 5.9626 4.89398 6.37594C4.82066 6.40927 4.74066 6.4226 4.66732 6.4226C4.48732 6.4226 4.30732 6.3226 4.22066 6.14927C4.09398 5.9026 4.19398 5.6026 4.44066 5.47594C6.66732 4.3626 9.32735 4.3626 11.554 5.47594C11.8074 5.6026 11.9074 5.9026 11.7806 6.14927Z" fill="white"/>
</svg>
