<svg width="16" height="16" viewBox="0 0 16 16" fill="none" xmlns="http://www.w3.org/2000/svg">
<path d="M14 3.5H8C7.72666 3.5 7.5 3.27334 7.5 3C7.5 2.72666 7.72666 2.5 8 2.5H14C14.2734 2.5 14.5 2.72666 14.5 3C14.5 3.27334 14.2734 3.5 14 3.5Z" fill="white"/>
<path d="M14 6.83594H8C7.72666 6.83594 7.5 6.60927 7.5 6.33594C7.5 6.0626 7.72666 5.83594 8 5.83594H14C14.2734 5.83594 14.5 6.0626 14.5 6.33594C14.5 6.60927 14.2734 6.83594 14 6.83594Z" fill="white"/>
<path d="M14 10.1641H2C1.72666 10.1641 1.5 9.93742 1.5 9.66406C1.5 9.39078 1.72666 9.16406 2 9.16406H14C14.2734 9.16406 14.5 9.39078 14.5 9.66406C14.5 9.93742 14.2734 10.1641 14 10.1641Z" fill="white"/>
<path d="M14 13.5H2C1.72666 13.5 1.5 13.2734 1.5 13C1.5 12.7266 1.72666 12.5 2 12.5H14C14.2734 12.5 14.5 12.7266 14.5 13C14.5 13.2734 14.2734 13.5 14 13.5Z" fill="white"/>
</svg>
