<svg width="16" height="16" viewBox="0 0 16 16" fill="none" xmlns="http://www.w3.org/2000/svg">
<path d="M13.9674 2.75594C13.774 2.47594 13.5274 2.22927 13.2474 2.03594C12.614 1.57594 11.7874 1.33594 10.794 1.33594H5.20732C5.07398 1.33594 4.94066 1.3426 4.81398 1.35594C2.62732 1.49594 1.33398 2.91594 1.33398 5.20927V10.796C1.33398 11.7892 1.57398 12.616 2.03398 13.2492C2.22732 13.5292 2.47398 13.776 2.75398 13.9692C3.30066 14.3692 3.99398 14.6026 4.81398 14.656C4.94066 14.6626 5.07398 14.6692 5.20732 14.6692H10.794C13.2206 14.6692 14.6674 13.2226 14.6674 10.796V5.20927C14.6674 4.21594 14.4274 3.38927 13.9674 2.75594ZM12.5006 5.93594C12.5006 6.20927 12.274 6.43594 12.0006 6.43594C11.7274 6.43594 11.5006 6.20927 11.5006 5.93594V5.14927C11.5006 4.93594 11.3274 4.7626 11.114 4.7626H8.50063V11.2426H9.68735C9.96063 11.2426 10.1874 11.4692 10.1874 11.7426C10.1874 12.016 9.96063 12.2426 9.68735 12.2426H6.31398C6.04066 12.2426 5.81398 12.016 5.81398 11.7426C5.81398 11.4692 6.04066 11.2426 6.31398 11.2426H7.50066V4.7626H4.88732C4.67398 4.7626 4.50066 4.93594 4.50066 5.14927V5.93594C4.50066 6.20927 4.27398 6.43594 4.00066 6.43594C3.72732 6.43594 3.50066 6.20927 3.50066 5.93594V5.14927C3.50066 4.3826 4.12066 3.7626 4.88732 3.7626H11.1074C11.874 3.7626 12.494 4.3826 12.494 5.14927V5.93594H12.5006Z" fill="white"/>
</svg>
