<svg width="16" height="16" viewBox="0 0 16 16" fill="none" xmlns="http://www.w3.org/2000/svg">
<path d="M9.16601 8.5H8.16601H5.66602V11.16C5.66602 11.3466 5.81934 11.5 6.00602 11.5H9.16601C9.99265 11.5 10.666 10.8266 10.666 10C10.666 9.17336 9.99265 8.5 9.16601 8.5Z" fill="white"/>
<path d="M9.66601 6C9.66601 5.17334 8.99265 4.5 8.16601 4.5H6.00602C5.81934 4.5 5.66602 4.65334 5.66602 4.84V7.5H8.16601C8.99265 7.5 9.66601 6.82666 9.66601 6Z" fill="white"/>
<path d="M13.9674 2.75594C13.774 2.47594 13.5274 2.22927 13.2474 2.03594C12.614 1.57594 11.7874 1.33594 10.794 1.33594H5.20732C5.07398 1.33594 4.94066 1.3426 4.81398 1.35594C2.62732 1.49594 1.33398 2.91594 1.33398 5.20927V10.796C1.33398 11.7892 1.57398 12.616 2.03398 13.2492C2.22732 13.5292 2.47398 13.776 2.75398 13.9692C3.30066 14.3692 3.99398 14.6026 4.81398 14.656C4.94066 14.6626 5.07398 14.6692 5.20732 14.6692H10.794C13.2206 14.6692 14.6674 13.2226 14.6674 10.796V5.20927C14.6674 4.21594 14.4274 3.38927 13.9674 2.75594ZM9.16735 12.5026H6.00732C5.26732 12.5026 4.66732 11.9026 4.66732 11.1626V8.0026V4.8426C4.66732 4.1026 5.26732 3.5026 6.00732 3.5026H8.16735C9.54735 3.5026 10.6674 4.6226 10.6674 6.0026C10.6674 6.6426 10.4206 7.2226 10.0206 7.6626C10.974 8.01596 11.6674 8.9226 11.6674 10.0026C11.6674 11.3826 10.5474 12.5026 9.16735 12.5026Z" fill="white"/>
</svg>
