<svg width="16" height="16" viewBox="0 0 16 16" fill="none" xmlns="http://www.w3.org/2000/svg">
<path d="M8.00063 1.33594C4.32066 1.33594 1.33398 4.3226 1.33398 8.0026C1.33398 11.6826 4.32066 14.6692 8.00063 14.6692C11.6806 14.6692 14.6674 11.6826 14.6674 8.0026C14.6674 4.3226 11.6806 1.33594 8.00063 1.33594ZM5.29398 7.0426C5.29398 5.8026 6.30066 4.78927 7.54732 4.78927C8.79399 4.78927 9.80063 5.79594 9.80063 7.0426C9.80063 8.28924 8.79399 9.29596 7.54732 9.29596C6.30066 9.29596 5.29398 8.28924 5.29398 7.0426ZM10.394 10.2292L8.39399 12.2292C8.29399 12.3292 8.16735 12.376 8.04063 12.376C7.91398 12.376 7.78732 12.3292 7.68732 12.2292C7.49398 12.036 7.49398 11.716 7.68732 11.5226L9.68735 9.5226C9.88063 9.32924 10.2006 9.32924 10.394 9.5226C10.5874 9.71596 10.594 10.036 10.394 10.2292ZM11.0074 5.5426C10.6406 5.5426 10.3406 5.2426 10.3406 4.87594C10.3406 4.50927 10.634 4.20927 11.0074 4.20927H11.014C11.3806 4.20927 11.6806 4.50927 11.6806 4.87594C11.6806 5.2426 11.374 5.5426 11.0074 5.5426Z" fill="white"/>
</svg>
