<svg width="16" height="16" viewBox="0 0 16 16" fill="none" xmlns="http://www.w3.org/2000/svg">
<path d="M9.33265 6.4974H8.49937V5.66406C8.49937 5.39073 8.27265 5.16406 7.99934 5.16406C7.72602 5.16406 7.49934 5.39073 7.49934 5.66406V6.4974H6.66602C6.39268 6.4974 6.16602 6.72406 6.16602 6.9974C6.16602 7.27073 6.39268 7.4974 6.66602 7.4974H9.33265C9.60601 7.4974 9.83265 7.27073 9.83265 6.9974C9.83265 6.72406 9.60601 6.4974 9.33265 6.4974Z" fill="white"/>
<path d="M9.33265 8.5H6.66602C6.39268 8.5 6.16602 8.72664 6.16602 9C6.16602 9.27336 6.39268 9.5 6.66602 9.5H7.49934V10.3334C7.49934 10.6066 7.72602 10.8334 7.99934 10.8334C8.27265 10.8334 8.49937 10.6066 8.49937 10.3334V9.5H9.33265C9.60601 9.5 9.83265 9.27336 9.83265 9C9.83265 8.72664 9.60601 8.5 9.33265 8.5Z" fill="white"/>
<path d="M10.7932 1.33594H5.21317C2.78651 1.33594 1.33984 2.7826 1.33984 5.20927V10.7892C1.33984 13.216 2.78651 14.6626 5.21317 14.6626H10.7932C13.2198 14.6626 14.6666 13.216 14.6666 10.7892V5.20927C14.6666 2.7826 13.2198 1.33594 10.7932 1.33594ZM11.3332 10.7692C11.3332 11.4492 10.7798 12.0026 10.0998 12.0026H5.89982C5.21982 12.0026 4.66651 11.4492 4.66651 10.7692V5.23594C4.66651 4.55594 5.21982 4.0026 5.89982 4.0026H10.0998C10.7798 4.0026 11.3332 4.55594 11.3332 5.23594V10.7692Z" fill="white"/>
</svg>
