<svg width="16" height="16" viewBox="0 0 16 16" fill="none" xmlns="http://www.w3.org/2000/svg">
<path d="M8.00063 1.33594C4.32732 1.33594 1.33398 4.32927 1.33398 8.0026C1.33398 11.676 4.32732 14.6692 8.00063 14.6692C11.674 14.6692 14.6674 11.676 14.6674 8.0026C14.6674 4.32927 11.674 1.33594 8.00063 1.33594ZM11.1874 6.46927L7.40732 10.2492C7.31398 10.3426 7.18732 10.396 7.05398 10.396C6.92066 10.396 6.79398 10.3426 6.70066 10.2492L4.81398 8.3626C4.62066 8.16924 4.62066 7.84927 4.81398 7.65594C5.00732 7.4626 5.32732 7.4626 5.52066 7.65594L7.05398 9.18924L10.4806 5.7626C10.674 5.56927 10.994 5.56927 11.1874 5.7626C11.3806 5.95594 11.3806 6.26927 11.1874 6.46927Z" fill="white"/>
</svg>
