<svg width="16" height="16" viewBox="0 0 16 16" fill="none" xmlns="http://www.w3.org/2000/svg">
<path d="M13.2334 8.6246C13.2334 9.15796 13.6667 9.59796 14.2001 9.59796C14.4534 9.59796 14.6667 9.8046 14.6667 10.058C14.6667 12.618 13.8934 13.3912 11.3334 13.3912H7.8334V12.3312C7.8334 12.0712 7.6334 11.858 7.38007 11.838C7.36674 11.8312 7.34674 11.8312 7.3334 11.8312C7.06007 11.8312 6.8334 12.058 6.8334 12.3312V13.3912H5.66006C4.40673 13.3912 3.76006 12.4512 3.17339 11.0312L3.06006 10.7512C2.96673 10.5112 3.08006 10.238 3.32006 10.1446C3.56673 10.0512 3.76006 9.85796 3.86006 9.6046C3.96673 9.35796 3.96673 9.0846 3.86673 8.83796C3.65339 8.3246 3.06673 8.07796 2.54673 8.2846C2.43339 8.33796 2.30006 8.33796 2.18673 8.2846C2.07339 8.23796 1.98673 8.1446 1.93339 8.0246L1.83339 7.75793C0.840064 5.34459 1.27339 4.31125 3.68673 3.31125L5.32006 2.63792C5.56006 2.53792 5.83339 2.65125 5.92673 2.89125L7.38007 6.05792C7.10674 6.05792 6.8334 6.27792 6.8334 6.55125V9.4446C6.8334 9.71796 7.06007 9.9446 7.3334 9.9446C7.34674 9.9446 7.36674 9.9446 7.38007 9.93796C7.6334 9.91796 7.8334 9.7046 7.8334 9.4446V6.55125C7.8334 6.29125 7.6334 6.07792 7.38007 6.05792V3.28459H11.3334C13.8934 3.28459 14.6667 4.05792 14.6667 6.61792V7.1846C14.6667 7.4446 14.4534 7.65126 14.2001 7.65126C13.6667 7.65126 13.2334 8.0846 13.2334 8.6246Z" fill="white"/>
</svg>
