<svg width="16" height="16" viewBox="0 0 16 16" fill="none" xmlns="http://www.w3.org/2000/svg">
<path d="M14.2006 7.22366C14.4606 7.22366 14.6674 7.01699 14.6674 6.75699V6.13698C14.6674 3.40365 13.834 2.57031 11.1006 2.57031H4.90066C2.16732 2.57031 1.33398 3.40365 1.33398 6.13698V6.45031C1.33398 6.71033 1.54066 6.91699 1.80066 6.91699C2.40066 6.91699 2.88732 7.40366 2.88732 8.00364C2.88732 8.60364 2.40066 9.08364 1.80066 9.08364C1.54066 9.08364 1.33398 9.29036 1.33398 9.55036V9.86364C1.33398 12.597 2.16732 13.4304 4.90066 13.4304H11.1006C13.834 13.4304 14.6674 12.597 14.6674 9.86364C14.6674 9.60364 14.4606 9.397 14.2006 9.397C13.6006 9.397 13.114 8.91036 13.114 8.31036C13.114 7.71033 13.6006 7.22366 14.2006 7.22366ZM6.00066 5.91698C6.36732 5.91698 6.66732 6.21698 6.66732 6.58365C6.66732 6.95033 6.37398 7.25033 6.00066 7.25033C5.63398 7.25033 5.33398 6.95033 5.33398 6.58365C5.33398 6.21698 5.62732 5.91698 6.00066 5.91698ZM10.0006 10.5836C9.62735 10.5836 9.32735 10.2836 9.32735 9.917C9.32735 9.55036 9.62735 9.25036 9.99399 9.25036C10.3606 9.25036 10.6606 9.55036 10.6606 9.917C10.6606 10.2836 10.374 10.5836 10.0006 10.5836ZM10.6006 6.31698L6.11398 10.8036C6.01398 10.9036 5.88732 10.9504 5.76066 10.9504C5.63398 10.9504 5.50732 10.9036 5.40732 10.8036C5.21398 10.6104 5.21398 10.2904 5.40732 10.097L9.89399 5.61031C10.0874 5.41698 10.4074 5.41698 10.6006 5.61031C10.794 5.80365 10.794 6.12364 10.6006 6.31698Z" fill="white"/>
</svg>
