<svg width="16" height="16" viewBox="0 0 16 16" fill="none" xmlns="http://www.w3.org/2000/svg">
<path fill-rule="evenodd" clip-rule="evenodd" d="M12.5996 2.39844C13.5937 2.39844 14.3996 3.20433 14.3996 4.19844V5.16926C14.3996 5.50832 14.1777 5.79993 13.8934 5.98471C13.235 6.41265 12.7996 7.15469 12.7996 7.99844C12.7996 8.8422 13.235 9.5842 13.8934 10.0122C14.1777 10.1969 14.3996 10.4886 14.3996 10.8276V11.7984C14.3996 12.7925 13.5937 13.5984 12.5996 13.5984H3.39961C2.4055 13.5984 1.59961 12.7925 1.59961 11.7984V10.8276C1.59961 10.4886 1.82156 10.1969 2.10584 10.0122C2.76421 9.5842 3.19961 8.8422 3.19961 7.99844C3.19961 7.15469 2.76421 6.41265 2.10584 5.98471C1.82156 5.79993 1.59961 5.50832 1.59961 5.16926V4.19844C1.59961 3.20433 2.4055 2.39844 3.39961 2.39844H12.5996ZM10.7996 5.9151C10.7996 5.58373 10.531 5.3151 10.1996 5.3151C9.86825 5.3151 9.59961 5.58373 9.59961 5.9151V6.74844C9.59961 7.07981 9.86825 7.34844 10.1996 7.34844C10.531 7.34844 10.7996 7.07981 10.7996 6.74844V5.9151ZM10.7996 9.24844C10.7996 8.91708 10.531 8.64844 10.1996 8.64844C9.86825 8.64844 9.59961 8.91708 9.59961 9.24844V10.0818C9.59961 10.4132 9.86825 10.6818 10.1996 10.6818C10.531 10.6818 10.7996 10.4132 10.7996 10.0818V9.24844Z" fill="#0F172A"/>
</svg>
