<svg width="16" height="16" viewBox="0 0 16 16" fill="none" xmlns="http://www.w3.org/2000/svg">
<path d="M11.1004 2.57031H6.60707V4.58365C6.60707 4.84365 6.39374 5.05031 6.1404 5.05031C5.88707 5.05031 5.67374 4.84365 5.67374 4.58365V2.57031H4.9004C2.26707 2.57031 1.4004 3.35698 1.3404 5.81698C1.33374 5.93698 1.38707 6.06364 1.47374 6.15031C1.5604 6.24364 1.67374 6.29031 1.80707 6.29031C2.7404 6.29031 3.50707 7.06366 3.50707 7.99699C3.50707 8.93036 2.7404 9.70364 1.80707 9.70364C1.6804 9.70364 1.5604 9.75036 1.47374 9.84364C1.38707 9.93036 1.33374 10.057 1.3404 10.177C1.4004 12.637 2.26707 13.4236 4.9004 13.4236H5.67374V11.4104C5.67374 11.1504 5.88707 10.9436 6.1404 10.9436C6.39374 10.9436 6.60707 11.1504 6.60707 11.4104V13.4236H11.1004C13.8337 13.4236 14.667 12.5904 14.667 9.857V6.13698C14.667 3.40365 13.8337 2.57031 11.1004 2.57031ZM12.3137 7.93033L11.6937 8.53036C11.667 8.55036 11.6604 8.59036 11.667 8.62364L11.8137 9.47036C11.8404 9.62364 11.7804 9.78364 11.647 9.877C11.5204 9.97036 11.3537 9.98364 11.2137 9.91036L10.447 9.51036C10.4204 9.497 10.3804 9.497 10.3537 9.51036L9.58702 9.91036C9.52702 9.94364 9.46038 9.957 9.39374 9.957C9.30702 9.957 9.22702 9.93036 9.15374 9.877C9.02702 9.78364 8.96038 9.63036 8.98702 9.47036L9.13374 8.62364C9.14038 8.59036 9.12702 8.557 9.10702 8.53036L8.48702 7.93033C8.37374 7.82366 8.33374 7.65699 8.38038 7.51033C8.42702 7.35699 8.55374 7.25033 8.71374 7.23033L9.56702 7.10366C9.60038 7.09699 9.62702 7.07699 9.64702 7.05033L10.027 6.27698C10.1004 6.13698 10.2404 6.05031 10.4004 6.05031C10.5604 6.05031 10.7004 6.13698 10.767 6.27698L11.147 7.05033C11.1604 7.08366 11.187 7.10366 11.2204 7.10366L12.0737 7.23033C12.2337 7.25033 12.3604 7.36366 12.407 7.51033C12.467 7.65699 12.427 7.81699 12.3137 7.93033Z" fill="white"/>
</svg>
