<svg width="16" height="16" viewBox="0 0 16 16" fill="none" xmlns="http://www.w3.org/2000/svg">
<path d="M11.4591 3.30927C11.4591 3.31594 11.4591 3.31594 11.4591 3.3226C11.2925 3.31594 11.1258 3.30927 10.9458 3.30927H5.8125L6.52584 2.6026C7.17915 1.9426 7.89915 1.33594 8.7325 1.33594C9.5725 1.33594 10.2925 1.9426 10.9458 2.6026L11.3191 2.97594C11.4125 3.0626 11.4591 3.1826 11.4591 3.30927Z" fill="white"/>
<path d="M13.894 8.78078C14.154 8.78078 14.3606 8.56742 14.3606 8.30078V7.7141C14.3606 5.09412 13.5606 4.30078 10.9473 4.30078H6.74732H5.05396C2.44063 4.30078 1.64062 5.10078 1.64062 7.7141V8.00077C1.64062 8.26742 1.8473 8.47406 2.1073 8.47406C2.6673 8.47406 3.11396 8.92742 3.11396 9.48078C3.11396 10.0341 2.6673 10.4941 2.1073 10.4941C1.8473 10.4941 1.64062 10.7008 1.64062 10.9674V11.2541C1.64062 13.8741 2.44063 14.6674 5.05396 14.6674H6.74066H10.9406C13.554 14.6674 14.354 13.8674 14.354 11.2541C14.354 10.9941 14.1473 10.7808 13.8873 10.7808C13.3273 10.7808 12.8806 10.3341 12.8806 9.78078C12.8873 9.22742 13.334 8.78078 13.894 8.78078ZM7.21399 12.5741C7.21399 12.8341 7.00066 13.0474 6.74066 13.0474C6.48063 13.0474 6.2673 12.8341 6.2673 12.5741V10.7874C6.2673 10.5274 6.48063 10.3141 6.74066 10.3141C7.00066 10.3141 7.21399 10.5274 7.21399 10.7874V12.5741ZM7.21399 8.18078C7.21399 8.44078 7.00066 8.65414 6.74066 8.65414C6.48063 8.65414 6.2673 8.44078 6.2673 8.18078V6.39412C6.2673 6.13412 6.48063 5.92078 6.74066 5.92078C7.00066 5.92078 7.21399 6.13412 7.21399 6.39412V8.18078Z" fill="white"/>
</svg>
