<svg width="16" height="16" viewBox="0 0 16 16" fill="none" xmlns="http://www.w3.org/2000/svg">
<path d="M9.92702 2.3026H6.07375C5.80709 2.3026 5.59375 2.08927 5.59375 1.8226C5.59375 1.55594 5.80709 1.33594 6.07375 1.33594H9.92702C10.1937 1.33594 10.407 1.54927 10.407 1.81594C10.407 2.0826 10.1937 2.3026 9.92702 2.3026Z" fill="white"/>
<path d="M13.3134 10H11.3534C10.5066 10 10 10.5066 10 11.3534V13.3134C10 14.16 10.5066 14.6666 11.3534 14.6666H13.3134C14.16 14.6666 14.6666 14.16 14.6666 13.3134V11.3534C14.6666 10.5066 14.16 10 13.3134 10ZM13.1266 12.9734L12.34 13.4266C12.18 13.52 12.02 13.5666 11.8734 13.5666C11.76 13.5666 11.66 13.54 11.5666 13.4866C11.3534 13.36 11.2334 13.1134 11.2334 12.7866V11.88C11.2334 11.5534 11.3534 11.3066 11.5666 11.18C11.78 11.0534 12.0534 11.08 12.34 11.24L13.1266 11.6934C13.4066 11.86 13.5666 12.0866 13.5666 12.3334C13.5666 12.58 13.4134 12.8066 13.1266 12.9734Z" fill="white"/>
<path d="M9.33407 13.3149V11.3549C9.33407 10.1482 10.1474 9.33492 11.3541 9.33492H13.3141C13.4674 9.33492 13.6141 9.3482 13.7541 9.37492C13.7674 9.21492 13.7807 9.05492 13.7807 8.8882C13.7807 5.6949 11.1874 3.10156 8.00071 3.10156C4.81404 3.10156 2.2207 5.6949 2.2207 8.8882C2.2207 12.0749 4.81404 14.6682 8.00071 14.6682C8.56735 14.6682 9.10735 14.5749 9.62735 14.4282C9.44071 14.1149 9.33407 13.7416 9.33407 13.3149ZM8.50071 8.6682C8.50071 8.94156 8.27407 9.1682 8.00071 9.1682C7.72738 9.1682 7.50072 8.94156 7.50072 8.6682V5.3349C7.50072 5.06156 7.72738 4.8349 8.00071 4.8349C8.27407 4.8349 8.50071 5.06156 8.50071 5.3349V8.6682Z" fill="white"/>
</svg>
