<svg width="16" height="16" viewBox="0 0 16 16" fill="none" xmlns="http://www.w3.org/2000/svg">
<path d="M9.92702 2.3026H6.07375C5.80709 2.3026 5.59375 2.08927 5.59375 1.8226C5.59375 1.55594 5.80709 1.33594 6.07375 1.33594H9.92702C10.1937 1.33594 10.407 1.54927 10.407 1.81594C10.407 2.0826 10.1937 2.3026 9.92702 2.3026Z" fill="white"/>
<path d="M9.33407 13.3149V11.3549C9.33407 10.1482 10.1474 9.33492 11.3541 9.33492H13.3141C13.4674 9.33492 13.6141 9.3482 13.7541 9.37492C13.7674 9.21492 13.7807 9.05492 13.7807 8.8882C13.7807 5.6949 11.1874 3.10156 8.00071 3.10156C4.81404 3.10156 2.2207 5.6949 2.2207 8.8882C2.2207 12.0749 4.81404 14.6682 8.00071 14.6682C8.56735 14.6682 9.10735 14.5749 9.62735 14.4282C9.44071 14.1149 9.33407 13.7416 9.33407 13.3149ZM8.50071 8.6682C8.50071 8.94156 8.27407 9.1682 8.00071 9.1682C7.72738 9.1682 7.50072 8.94156 7.50072 8.6682V5.3349C7.50072 5.06156 7.72738 4.8349 8.00071 4.8349C8.27407 4.8349 8.50071 5.06156 8.50071 5.3349V8.6682Z" fill="white"/>
<path d="M13.3134 10H11.36C10.5066 10 10 10.5066 10 11.3534V13.3134C10 14.16 10.5066 14.6666 11.36 14.6666H13.3134C14.16 14.6666 14.6666 14.16 14.6666 13.3134V11.3534C14.6666 10.5066 14.16 10 13.3134 10ZM11.9466 13.3734C11.9466 13.5866 11.7734 13.76 11.5534 13.76C11.34 13.76 11.1666 13.5866 11.1666 13.3734V11.2934C11.1666 11.08 11.34 10.9066 11.5534 10.9066C11.7734 10.9066 11.9466 11.08 11.9466 11.2934V13.3734ZM13.5 13.3734C13.5 13.5866 13.3266 13.76 13.1134 13.76C12.9 13.76 12.72 13.5866 12.72 13.3734V11.2934C12.72 11.08 12.9 10.9066 13.1134 10.9066C13.3266 10.9066 13.5 11.08 13.5 11.2934V13.3734Z" fill="white"/>
</svg>
