<svg width="16" height="16" viewBox="0 0 16 16" fill="none" xmlns="http://www.w3.org/2000/svg">
<path d="M11.5937 10.4466L8.90033 8H7.09366L4.40031 10.4466C3.64698 11.1266 3.40031 12.1734 3.76698 13.12C4.13364 14.06 5.02698 14.6666 6.03364 14.6666H9.96033C10.9737 14.6666 11.8603 14.06 12.227 13.12C12.5937 12.1734 12.347 11.1266 11.5937 10.4466ZM9.21369 12.0934H6.787C6.53364 12.0934 6.33364 11.8866 6.33364 11.64C6.33364 11.3934 6.54031 11.1866 6.787 11.1866H9.21369C9.46697 11.1866 9.66697 11.3934 9.66697 11.64C9.66697 11.8866 9.46033 12.0934 9.21369 12.0934Z" fill="white"/>
<path d="M12.2331 2.8826C11.8665 1.9426 10.9731 1.33594 9.96647 1.33594H6.03312C5.02645 1.33594 4.13312 1.9426 3.76645 2.8826C3.40645 3.82927 3.65312 4.87594 4.40645 5.55594L7.0998 8.0026H8.90647L11.5998 5.55594C12.3465 4.87594 12.5931 3.82927 12.2331 2.8826ZM9.21311 4.8226H6.78647C6.53312 4.8226 6.33312 4.61594 6.33312 4.36927C6.33312 4.1226 6.53978 3.91594 6.78647 3.91594H9.21311C9.46647 3.91594 9.66647 4.1226 9.66647 4.36927C9.66647 4.61594 9.45983 4.8226 9.21311 4.8226Z" fill="white"/>
</svg>
