<svg width="16" height="16" viewBox="0 0 16 16" fill="none" xmlns="http://www.w3.org/2000/svg">
<path d="M8.00071 3.10156C4.81404 3.10156 2.2207 5.6949 2.2207 8.88156C2.2207 12.0682 4.81404 14.6682 8.00071 14.6682C11.1874 14.6682 13.7807 12.0749 13.7807 8.8882C13.7807 5.70156 11.1874 3.10156 8.00071 3.10156ZM8.50071 8.6682C8.50071 8.94156 8.27407 9.1682 8.00071 9.1682C7.72738 9.1682 7.50072 8.94156 7.50072 8.6682V5.3349C7.50072 5.06156 7.72738 4.8349 8.00071 4.8349C8.27407 4.8349 8.50071 5.06156 8.50071 5.3349V8.6682Z" fill="white"/>
<path d="M9.92702 2.3026H6.07375C5.80709 2.3026 5.59375 2.08927 5.59375 1.8226C5.59375 1.55594 5.80709 1.33594 6.07375 1.33594H9.92702C10.1937 1.33594 10.407 1.54927 10.407 1.81594C10.407 2.0826 10.1937 2.3026 9.92702 2.3026Z" fill="white"/>
</svg>
