<svg width="16" height="16" viewBox="0 0 16 16" fill="none" xmlns="http://www.w3.org/2000/svg">
<path d="M11.1006 2.57031H4.90066C2.16732 2.57031 1.33398 3.40365 1.33398 6.13698V9.857C1.33398 12.5904 2.16732 13.4236 4.90066 13.4236H11.1006C13.834 13.4236 14.6674 12.5904 14.6674 9.857V6.13698C14.6674 3.40365 13.834 2.57031 11.1006 2.57031ZM12.494 8.74364C12.494 10.2436 11.794 10.9436 10.294 10.9436H8.80735C7.30732 10.9436 6.60732 10.2436 6.60732 8.74364V7.25699C6.60732 5.75698 7.30732 5.05698 8.80735 5.05698H10.294C11.794 5.05698 12.494 5.75698 12.494 7.25699V8.74364Z" fill="white"/>
</svg>
