<svg width="16" height="16" viewBox="0 0 16 16" fill="none" xmlns="http://www.w3.org/2000/svg">
<path d="M11.1006 2.57031H4.90066C2.16732 2.57031 1.33398 3.40365 1.33398 6.13698V9.857C1.33398 12.5904 2.16732 13.4236 4.90066 13.4236H11.1006C13.834 13.4236 14.6674 12.5904 14.6674 9.857V6.13698C14.6674 3.40365 13.834 2.57031 11.1006 2.57031ZM9.39399 8.74364C9.39399 10.2436 8.69399 10.9436 7.19398 10.9436H5.70732C4.20732 10.9436 3.50732 10.2436 3.50732 8.74364V7.25699C3.50732 5.75698 4.20732 5.05698 5.70732 5.05698H7.19398C8.69399 5.05698 9.39399 5.75698 9.39399 7.25699V8.74364Z" fill="white"/>
</svg>
