<svg width="16" height="16" viewBox="0 0 16 16" fill="none" xmlns="http://www.w3.org/2000/svg">
<path d="M10.0006 10.3334C10.0006 12.7266 8.06063 14.6666 5.66732 14.6666C3.27398 14.6666 1.33398 12.7266 1.33398 10.3334C1.33398 7.94 3.27398 6 5.66732 6C5.78066 6 5.90066 6.00666 6.01398 6.01334C8.12735 6.18 9.82063 7.87334 9.98735 9.98664C9.99399 10.1 10.0006 10.22 10.0006 10.3334Z" fill="white"/>
<path d="M14.6661 5.66927C14.6661 7.8426 13.0661 9.63596 10.9861 9.94924V9.90924C10.7794 7.3226 8.67945 5.2226 6.07273 5.01594H6.05273C6.36606 2.93594 8.15945 1.33594 10.3327 1.33594C12.7261 1.33594 14.6661 3.27594 14.6661 5.66927Z" fill="white"/>
<path d="M3.72732 1.33594H2.00066C1.63398 1.33594 1.33398 1.63594 1.33398 2.0026V3.72927C1.33398 4.3226 2.05398 4.6226 2.47398 4.2026L4.20066 2.47594C4.61398 2.05594 4.32066 1.33594 3.72732 1.33594Z" fill="white"/>
<path d="M12.2738 14.6642H14.0005C14.3671 14.6642 14.6671 14.3642 14.6671 13.9976V12.2709C14.6671 11.6776 13.9471 11.3776 13.5271 11.7976L11.8005 13.5242C11.3871 13.9442 11.6805 14.6642 12.2738 14.6642Z" fill="white"/>
</svg>
