<svg width="16" height="16" viewBox="0 0 16 16" fill="none" xmlns="http://www.w3.org/2000/svg">
<g clip-path="url(#clip0_13_15814)">
<path d="M5.95398 1.33594H3.34732C2.00066 1.33594 1.33398 2.0026 1.33398 3.34927V5.9626C1.33398 7.33594 2.00066 8.0026 3.34732 7.96927H5.96066C7.33398 8.0026 8.00063 7.33594 7.96732 5.95594V3.34927C8.00063 2.0026 7.33398 1.33594 5.95398 1.33594ZM6.00732 6.50927C5.55398 6.50927 5.11398 6.33594 4.74732 6.02927C4.33398 6.32927 3.83398 6.50927 3.29398 6.50927C3.02066 6.50927 2.79398 6.2826 2.79398 6.00927C2.79398 5.73594 3.02066 5.50927 3.29398 5.50927C3.97398 5.50927 4.54066 5.0426 4.74732 4.4026H3.29398C3.02066 4.4026 2.79398 4.17594 2.79398 3.9026C2.79398 3.62927 3.02066 3.4026 3.29398 3.4026H4.15398C4.18066 3.14927 4.38732 2.94927 4.64732 2.94927C4.90732 2.94927 5.11398 3.14927 5.14066 3.4026H5.31398C5.32066 3.4026 5.32732 3.4026 5.32732 3.4026H5.34066H6.00066C6.27398 3.4026 6.50066 3.62927 6.50066 3.9026C6.50066 4.17594 6.28066 4.4026 6.00066 4.4026H5.78066C5.72066 4.7226 5.59398 5.0226 5.42732 5.29594C5.60732 5.42927 5.80066 5.50927 6.00732 5.50927C6.28066 5.50927 6.50732 5.73594 6.50732 6.00927C6.50732 6.2826 6.28066 6.50927 6.00732 6.50927Z" fill="white"/>
<path d="M6.00066 15.1666C3.15398 15.1666 0.833984 12.8466 0.833984 10C0.833984 9.72664 1.06066 9.5 1.33398 9.5C1.60732 9.5 1.83398 9.72664 1.83398 10C1.83398 11.9734 3.20732 13.6266 5.05398 14.06L4.87398 13.76C4.73398 13.52 4.80732 13.2134 5.04732 13.0734C5.28066 12.9334 5.59398 13.0066 5.73398 13.2466L6.43398 14.4134C6.52732 14.5666 6.52732 14.76 6.44066 14.9134C6.34732 15.0666 6.18066 15.1666 6.00066 15.1666Z" fill="white"/>
<path d="M14.667 6.5026C14.3936 6.5026 14.167 6.27594 14.167 6.0026C14.167 4.02927 12.7936 2.37594 10.947 1.9426L11.127 2.2426C11.267 2.4826 11.1936 2.78927 10.9536 2.92927C10.7203 3.06927 10.407 2.99594 10.267 2.75594L9.56697 1.58927C9.47361 1.43594 9.47361 1.2426 9.56033 1.08927C9.65361 0.935938 9.82033 0.835938 10.0003 0.835938C12.847 0.835938 15.167 3.15594 15.167 6.0026C15.167 6.27594 14.9403 6.5026 14.667 6.5026Z" fill="white"/>
<path d="M11.2792 7.89844C9.41257 7.89844 7.89258 9.4118 7.89258 11.2851C7.89258 13.1518 9.40593 14.6718 11.2792 14.6718C13.1459 14.6718 14.6659 13.1584 14.6659 11.2851C14.6659 9.4118 13.1526 7.89844 11.2792 7.89844ZM12.9326 12.8918C12.6859 13.0118 12.3859 12.9184 12.2592 12.6651L12.1459 12.4384H10.4192L10.3059 12.6651C10.2192 12.8384 10.0392 12.9384 9.85921 12.9384C9.78593 12.9384 9.70593 12.9184 9.63921 12.8851C9.39257 12.7584 9.29257 12.4584 9.41257 12.2118L10.8392 9.36508C10.9259 9.19844 11.0992 9.0918 11.2859 9.0918C11.4726 9.0918 11.6459 9.19844 11.7326 9.3718L13.1592 12.2184C13.2792 12.4651 13.1792 12.7651 12.9326 12.8918Z" fill="white"/>
<path d="M10.9199 11.4377H11.6466L11.2799 10.7109L10.9199 11.4377Z" fill="white"/>
</g>
<defs>
<clipPath id="clip0_13_15814">
<rect width="16" height="16" fill="white"/>
</clipPath>
</defs>
</svg>
