<svg width="16" height="16" viewBox="0 0 16 16" fill="none" xmlns="http://www.w3.org/2000/svg">
<path fill-rule="evenodd" clip-rule="evenodd" d="M7.00039 0.800781C5.78537 0.800781 4.80039 1.78576 4.80039 3.00078V3.35494C4.16417 3.41656 3.53321 3.49636 2.90805 3.59381C2.58064 3.64486 2.35659 3.95166 2.40764 4.27908C2.45868 4.60649 2.76549 4.83054 3.0929 4.77949L3.21123 4.76128L3.88442 13.1762C3.97589 14.3196 4.93042 15.2008 6.07742 15.2008H9.92319C11.0701 15.2008 12.0247 14.3196 12.1162 13.1762L12.7894 4.76122L12.9081 4.77949C13.2354 4.83054 13.5423 4.60649 13.5933 4.27908C13.6444 3.95166 13.4203 3.64486 13.0929 3.59381C12.4677 3.49635 11.8367 3.41654 11.2004 3.35493V3.00078C11.2004 1.78576 10.2154 0.800781 9.00039 0.800781H7.00039ZM8.00047 3.20078C8.67199 3.20078 9.33879 3.22097 10.0004 3.26077V3.00078C10.0004 2.44849 9.55271 2.00078 9.00039 2.00078H7.00039C6.4481 2.00078 6.00039 2.44849 6.00039 3.00078V3.26078C6.66205 3.22097 7.32893 3.20078 8.00047 3.20078ZM6.86397 6.1768C6.85073 5.84569 6.57157 5.58801 6.24047 5.60126C5.90937 5.61451 5.65169 5.89365 5.66493 6.22477L5.90494 12.2248C5.91819 12.5559 6.19734 12.8136 6.52845 12.8003C6.85955 12.787 7.11723 12.5079 7.10398 12.1768L6.86397 6.1768ZM10.336 6.22477C10.3492 5.89365 10.0916 5.6145 9.76047 5.60126C9.42935 5.58801 9.15015 5.84569 9.13695 6.1768L8.89695 12.1768C8.88367 12.5079 9.14135 12.787 9.47247 12.8003C9.80359 12.8136 10.0827 12.5559 10.096 12.2248L10.336 6.22477Z" fill="#0F172A"/>
</svg>
