<svg width="16" height="16" viewBox="0 0 16 16" fill="none" xmlns="http://www.w3.org/2000/svg">
<path d="M10.7802 6.70687H5.22021C4.43355 6.70687 4.16021 6.18021 4.62021 5.54021L7.40019 1.64687C7.72687 1.18021 8.27353 1.18021 8.60017 1.64687L11.3802 5.54021C11.8402 6.18021 11.5669 6.70687 10.7802 6.70687Z" fill="white"/>
<path d="M11.7264 12.0004H4.27306C3.21973 12.0004 2.85973 11.3004 3.47973 10.447L6.13973 6.70703H9.85976L12.5198 10.447C13.1398 11.3004 12.7798 12.0004 11.7264 12.0004Z" fill="white"/>
<path d="M8.5 12V14.6666C8.5 14.94 8.27336 15.1666 8 15.1666C7.72666 15.1666 7.5 14.94 7.5 14.6666V12H8.5Z" fill="white"/>
</svg>
