<svg width="16" height="16" viewBox="0 0 16 16" fill="none" xmlns="http://www.w3.org/2000/svg">
<path d="M10.7932 1.33594H5.21317C2.78651 1.33594 1.33984 2.7826 1.33984 5.20927V10.7892C1.33984 13.216 2.78651 14.6626 5.21317 14.6626H10.7932C13.2198 14.6626 14.6666 13.216 14.6666 10.7892V5.20927C14.6666 2.7826 13.2198 1.33594 10.7932 1.33594ZM7.17987 10.996C7.17987 11.4426 6.81313 11.8092 6.36649 11.8092H4.73316C4.28648 11.8092 3.91984 11.4426 3.91984 10.996V5.00927C3.91984 4.56261 4.28648 4.19595 4.73316 4.19595H6.36649C6.81313 4.19595 7.17987 4.56261 7.17987 5.00927V10.996ZM12.0798 8.43596C12.0798 8.79596 11.7866 9.08924 11.4266 9.08924H9.46656C9.10656 9.08924 8.81312 8.79596 8.81312 8.43596V4.84261C8.81312 4.48261 9.10656 4.18927 9.46656 4.18927H11.4266C11.7866 4.18927 12.0798 4.48261 12.0798 4.84261V8.43596Z" fill="white"/>
</svg>
