<svg width="16" height="16" viewBox="0 0 16 16" fill="none" xmlns="http://www.w3.org/2000/svg">
<path d="M10.794 1.33594H5.20732C2.78066 1.33594 1.33398 2.7826 1.33398 5.20927V10.7892C1.33398 13.2226 2.78066 14.6692 5.20732 14.6692H10.7874C13.214 14.6692 14.6606 13.2226 14.6606 10.796V5.20927C14.6674 2.7826 13.2206 1.33594 10.794 1.33594ZM11.254 7.68927C11.254 7.94927 11.0474 8.15596 10.7874 8.15596C10.5274 8.15596 10.3206 7.94927 10.3206 7.68927V7.56927L8.50735 9.3826C8.40735 9.4826 8.27399 9.52924 8.13399 9.51596C7.99398 9.5026 7.86732 9.42924 7.79398 9.30924L7.11398 8.29596L5.52732 9.8826C5.43398 9.97596 5.32066 10.016 5.20066 10.016C5.08066 10.016 4.96066 9.96924 4.87398 9.8826C4.69398 9.7026 4.69398 9.40924 4.87398 9.2226L6.86066 7.23594C6.96066 7.13594 7.09398 7.08927 7.23398 7.1026C7.37398 7.11594 7.50066 7.18927 7.57398 7.30927L8.25399 8.3226L9.66063 6.91594H9.54063C9.28063 6.91594 9.07399 6.70927 9.07399 6.44927C9.07399 6.18927 9.28063 5.9826 9.54063 5.9826H10.7806C10.8406 5.9826 10.9006 5.99594 10.9606 6.01594C11.074 6.0626 11.1674 6.15594 11.214 6.26927C11.2406 6.32927 11.2474 6.38927 11.2474 6.44927V7.68927H11.254Z" fill="white"/>
</svg>
