<svg width="16" height="16" viewBox="0 0 16 16" fill="none" xmlns="http://www.w3.org/2000/svg">
<path d="M10.794 1.33594H5.20732C2.78066 1.33594 1.33398 2.7826 1.33398 5.20927V10.7892C1.33398 13.2226 2.78066 14.6692 5.20732 14.6692H10.7874C13.214 14.6692 14.6606 13.2226 14.6606 10.796V5.20927C14.6674 2.7826 13.2206 1.33594 10.794 1.33594ZM11.254 9.55596C11.254 9.61596 11.2406 9.67596 11.2206 9.73596C11.174 9.84924 11.0806 9.9426 10.9674 9.98924C10.9074 10.016 10.8474 10.0226 10.7874 10.0226H9.54735C9.28735 10.0226 9.08063 9.81596 9.08063 9.55596C9.08063 9.29596 9.28735 9.08924 9.54735 9.08924H9.66735L8.26063 7.6826L7.58066 8.69596C7.50066 8.80924 7.38066 8.88924 7.24066 8.9026C7.10066 8.91596 6.96732 8.86924 6.86732 8.76924L4.88066 6.7826C4.70066 6.6026 4.70066 6.30927 4.88066 6.1226C5.06066 5.93594 5.35398 5.9426 5.54066 6.1226L7.12732 7.70927L7.80732 6.69594C7.88732 6.5826 8.00735 6.5026 8.14735 6.48927C8.29399 6.47594 8.42063 6.5226 8.52063 6.6226L10.334 8.43596V8.31596C10.334 8.05596 10.5406 7.84927 10.8006 7.84927C11.0606 7.84927 11.2674 8.05596 11.2674 8.31596V9.55596H11.254Z" fill="white"/>
</svg>
