<svg width="16" height="16" viewBox="0 0 16 16" fill="none" xmlns="http://www.w3.org/2000/svg">
<path d="M7.49914 2.60039V8.61374C7.49914 8.83374 7.39248 9.03374 7.21248 9.16038L2.40581 12.5271C2.01247 12.8004 1.45247 12.5871 1.36581 12.1137C1.26581 11.5404 1.39914 10.8671 1.79914 10.1404L3.87914 6.40039L5.83914 2.87372C5.99247 2.60039 6.15914 2.36039 6.33247 2.15372C6.73248 1.68706 7.49914 1.98706 7.49914 2.60039Z" fill="white"/>
<path d="M13.5934 12.5271L8.78664 9.16038C8.60664 9.03374 8.5 8.83374 8.5 8.61374V2.60039C8.5 1.98706 9.26664 1.68706 9.66664 2.15372C9.84 2.36039 10.0066 2.60039 10.16 2.87372L12.12 6.40039L14.2 10.1404C14.6 10.8671 14.7334 11.5404 14.6334 12.1137C14.5466 12.5871 13.9866 12.8004 13.5934 12.5271Z" fill="white"/>
<path d="M3.50614 12.7574L7.60615 10.024C7.82615 9.8774 8.18617 9.8774 8.40617 10.024L12.5062 12.7574C13.5928 13.484 13.4128 14.0774 12.1062 14.0774H3.89947C2.59947 14.0708 2.41947 13.4774 3.50614 12.7574Z" fill="white"/>
</svg>
