<svg width="16" height="16" viewBox="0 0 16 16" fill="none" xmlns="http://www.w3.org/2000/svg">
<path d="M12.9338 7.0192C13.2804 6.95253 13.5204 7.34586 13.307 7.62586L8.67376 13.5259C8.4404 13.8259 7.96041 13.6325 8.0004 13.2592L8.46704 8.1925C8.4804 8.02586 8.60704 7.88586 8.77376 7.85253L12.9338 7.0192Z" fill="white"/>
<path d="M14.4272 5.12615C14.5738 5.28615 14.4938 5.54615 14.2872 5.59282L8.66054 6.71947C8.29382 6.7928 8.05382 6.34615 8.32054 6.07948L11.6672 2.73281C11.8205 2.57948 12.0672 2.58615 12.2138 2.73948L14.4272 5.12615Z" fill="white"/>
<path d="M9.79335 2.12476C10.1066 2.16476 10.2334 2.54476 10.0134 2.77142L7.64006 5.14475C7.50006 5.28475 7.27333 5.29142 7.11999 5.15809L3.56004 1.99142C3.28004 1.74476 3.49334 1.28476 3.86001 1.33142L9.79335 2.12476Z" fill="white"/>
<path d="M7.14647 6.71006C7.32647 6.87006 7.41313 7.1034 7.3998 7.33673L6.82653 14.31C6.7932 14.71 6.23985 14.79 6.09319 14.4168L1.5265 2.6367C1.37983 2.26337 1.83319 1.95004 2.13319 2.2167L7.14647 6.71006Z" fill="white"/>
</svg>
