<svg width="16" height="16" viewBox="0 0 16 16" fill="none" xmlns="http://www.w3.org/2000/svg">
<path d="M14.334 10.336C14.5206 10.336 14.6674 10.4826 14.6674 10.6692V11.336C14.6674 12.4426 13.774 13.336 12.6674 13.336C12.6674 12.236 11.7674 11.336 10.6674 11.336C9.56735 11.336 8.66735 12.236 8.66735 13.336H7.33398C7.33398 12.236 6.43398 11.336 5.33398 11.336C4.23398 11.336 3.33398 12.236 3.33398 13.336C2.22732 13.336 1.33398 12.4426 1.33398 11.336V10.0026C1.33398 9.63596 1.63398 9.33596 2.00066 9.33596H8.33399C9.25399 9.33596 10.0006 8.58924 10.0006 7.66927V4.0026C10.0006 3.63594 10.3006 3.33594 10.6674 3.33594H11.2274C11.7074 3.33594 12.1474 3.59594 12.3874 4.00927L12.814 4.75594C12.874 4.8626 12.794 5.0026 12.6674 5.0026C11.7474 5.0026 11.0006 5.74927 11.0006 6.66927V8.66924C11.0006 9.58924 11.7474 10.336 12.6674 10.336H14.334Z" fill="white"/>
<path d="M5.33334 14.6666C6.06971 14.6666 6.66666 14.0698 6.66666 13.3334C6.66666 12.597 6.06971 12 5.33334 12C4.59695 12 4 12.597 4 13.3334C4 14.0698 4.59695 14.6666 5.33334 14.6666Z" fill="white"/>
<path d="M10.6673 14.6666C11.4037 14.6666 12.0006 14.0698 12.0006 13.3334C12.0006 12.597 11.4037 12 10.6673 12C9.93094 12 9.33398 12.597 9.33398 13.3334C9.33398 14.0698 9.93094 14.6666 10.6673 14.6666Z" fill="white"/>
<path d="M14.6666 8.35336V9.33336H12.6666C12.3 9.33336 12 9.03336 12 8.66664V6.66666C12 6.3 12.3 6 12.6666 6H13.5266L14.4934 7.69334C14.6066 7.89334 14.6666 8.12 14.6666 8.35336Z" fill="white"/>
<path d="M8.72063 1.32031H3.79398C2.43398 1.32031 1.33398 2.42031 1.33398 3.78031V8.04036C1.33398 8.407 1.63398 8.707 2.00066 8.707H8.10063C8.78063 8.707 9.33399 8.15364 9.33399 7.47367V1.93365C9.33399 1.59365 9.06063 1.32031 8.72063 1.32031ZM6.40066 6.06698C6.30066 6.16031 6.17398 6.20698 6.04732 6.20698C5.92066 6.20698 5.79398 6.16031 5.69398 6.06698L5.34066 5.71365L4.97398 6.08031C4.87398 6.18031 4.74732 6.22698 4.62066 6.22698C4.49398 6.22698 4.36732 6.18031 4.26732 6.08031C4.07398 5.88698 4.07398 5.56698 4.26732 5.37365L4.63398 5.00698L4.28066 4.65365C4.08732 4.46031 4.08732 4.14031 4.28066 3.94698C4.48066 3.75365 4.79398 3.75365 4.99398 3.94698L5.34066 4.30031L5.67398 3.96031C5.87398 3.76698 6.18732 3.76698 6.38732 3.96031C6.58066 4.16031 6.58066 4.47365 6.38732 4.67365L6.04732 5.00698L6.40066 5.35365C6.59398 5.55365 6.59398 5.86698 6.40066 6.06698Z" fill="white"/>
</svg>
