<svg width="16" height="16" viewBox="0 0 16 16" fill="none" xmlns="http://www.w3.org/2000/svg">
<path d="M5.19961 2.39844C4.35865 2.39844 3.52496 2.4301 2.69971 2.49231C2.07123 2.53969 1.59961 3.06605 1.59961 3.68346V8.39844H8.79961V3.68346C8.79961 3.06605 8.32801 2.53969 7.69951 2.49231C6.87426 2.4301 6.04057 2.39844 5.19961 2.39844Z" fill="#0F172A"/>
<path d="M1.59961 9.60156V11.6016C1.59961 12.2643 2.13687 12.8016 2.79961 12.8016H2.83279C3.02323 11.6664 4.01041 10.8016 5.19961 10.8016C6.38881 10.8016 7.37599 11.6664 7.56643 12.8016H8.19961C8.53097 12.8016 8.79961 12.5329 8.79961 12.2016V9.60156H1.59961Z" fill="#0F172A"/>
<path d="M5.2 14.4C5.86274 14.4 6.4 13.8627 6.4 13.2C6.4 12.5373 5.86274 12 5.2 12C4.53726 12 4 12.5373 4 13.2C4 13.8627 4.53726 14.4 5.2 14.4Z" fill="#0F172A"/>
<path d="M10.6 4C10.2686 4 10 4.26863 10 4.6V11.4111C10.4246 11.0311 10.9853 10.8 11.6 10.8C12.7051 10.8 13.6358 11.5469 13.9146 12.5634C14.2111 12.3431 14.403 11.9882 14.3906 11.5818C14.3174 9.17112 13.8174 6.86676 12.9632 4.74246C12.7794 4.2855 12.3365 4 11.8583 4H10.6Z" fill="#0F172A"/>
<path d="M11.6004 14.4C12.2631 14.4 12.8004 13.8627 12.8004 13.2C12.8004 12.5373 12.2631 12 11.6004 12C10.9377 12 10.4004 12.5373 10.4004 13.2C10.4004 13.8627 10.9377 14.4 11.6004 14.4Z" fill="#0F172A"/>
</svg>
