<svg width="16" height="16" viewBox="0 0 16 16" fill="none" xmlns="http://www.w3.org/2000/svg">
<path d="M10.794 1.33594H5.20732C2.78066 1.33594 1.33398 2.7826 1.33398 5.20927V10.7892C1.33398 13.2226 2.78066 14.6692 5.20732 14.6692H10.7874C13.214 14.6692 14.6606 13.2226 14.6606 10.796V5.20927C14.6674 2.7826 13.2206 1.33594 10.794 1.33594ZM10.5074 10.5092C10.4674 11.076 10.4206 11.7826 9.14063 11.7826H6.86066C5.58732 11.7826 5.53398 11.076 5.49398 10.5092L5.28732 7.86927C5.27398 7.69594 5.33398 7.52927 5.44732 7.4026C5.56066 7.27594 5.72732 7.20927 5.89398 7.20927H10.1074C10.274 7.20927 10.4406 7.2826 10.554 7.4026C10.6674 7.52927 10.7274 7.69594 10.714 7.8626L10.5074 10.5092ZM11.2006 6.54927C11.1874 6.54927 11.174 6.54927 11.1606 6.54927C10.4674 6.4826 9.83399 6.43594 9.22735 6.40927C8.41399 6.36927 7.60066 6.35594 6.78066 6.38927C6.38066 6.40927 5.97398 6.43594 5.57398 6.47594L4.84732 6.54927C4.83398 6.54927 4.81398 6.54927 4.80066 6.54927C4.56732 6.54927 4.36732 6.37594 4.34732 6.13594C4.32066 5.88927 4.50732 5.6626 4.75398 5.6426L5.48066 5.56927C5.76732 5.5426 6.04732 5.5226 6.33398 5.50927L6.38732 5.19594C6.44066 4.8626 6.54066 4.2226 7.54066 4.2226H8.46735C9.47399 4.2226 9.57399 4.8826 9.62063 5.2026L9.67399 5.5226C10.174 5.54927 10.6874 5.58927 11.2474 5.6426C11.5006 5.66927 11.6806 5.88927 11.6606 6.1426C11.634 6.37594 11.434 6.54927 11.2006 6.54927Z" fill="white"/>
</svg>
