<svg width="16" height="16" viewBox="0 0 16 16" fill="none" xmlns="http://www.w3.org/2000/svg">
<path d="M3.19922 4H12.7992V9.6H3.19922V4Z" fill="#0F172A"/>
<path fill-rule="evenodd" clip-rule="evenodd" d="M0.800781 2.80156C0.800781 2.13882 1.33804 1.60156 2.00078 1.60156H14.0008C14.6635 1.60156 15.2008 2.13882 15.2008 2.80156V10.8016C15.2008 11.4643 14.6635 12.0016 14.0008 12.0016H9.60078V13.2016H12.2008C12.5321 13.2016 12.8008 13.4702 12.8008 13.8016C12.8008 14.1329 12.5321 14.4016 12.2008 14.4016H3.80078C3.46941 14.4016 3.20078 14.1329 3.20078 13.8016C3.20078 13.4702 3.46941 13.2016 3.80078 13.2016H6.40078V12.0016H2.00078C1.33804 12.0016 0.800781 11.4643 0.800781 10.8016V2.80156ZM14.0008 2.80156H2.00078V10.8016H14.0008V2.80156Z" fill="#0F172A"/>
</svg>
