<svg width="16" height="16" viewBox="0 0 16 16" fill="none" xmlns="http://www.w3.org/2000/svg">
<path fill-rule="evenodd" clip-rule="evenodd" d="M13.666 1.33594H3.35934C3.13934 1.33594 2.92602 1.44927 2.80602 1.63595L1.77934 3.16927C1.70602 3.27594 1.66602 3.40927 1.66602 3.53593V12.0026C1.66602 12.3692 1.96602 12.6692 2.33268 12.6692H3.66602C4.03268 12.6692 4.33268 12.9692 4.33268 13.336V14.0026C4.33268 14.3692 4.63268 14.6692 4.99934 14.6692H5.97269C6.19269 14.6692 6.40601 14.556 6.52601 14.3692L7.46602 12.9626C7.59268 12.776 7.79934 12.6626 8.01937 12.6626H10.7194C10.8994 12.6626 11.066 12.5892 11.1926 12.4692L14.1326 9.52924C14.2594 9.4026 14.326 9.23596 14.326 9.05596V2.0026C14.3326 1.63594 14.0326 1.33594 13.666 1.33594ZM7.19268 8.57596C7.19268 8.78924 7.01934 8.95596 6.81268 8.95596H6.05268C5.83934 8.95596 5.67267 8.7826 5.67267 8.57596V4.76927C5.67267 4.55593 5.84602 4.38927 6.05268 4.38927H6.81268C7.02602 4.38927 7.19268 4.56259 7.19268 4.76927V8.57596ZM10.9994 8.57596C10.9994 8.78924 10.826 8.95596 10.6194 8.95596H9.85937C9.64601 8.95596 9.47937 8.7826 9.47937 8.57596V4.76927C9.47937 4.55593 9.65265 4.38927 9.85937 4.38927H10.6194C10.8326 4.38927 10.9994 4.56259 10.9994 4.76927V8.57596Z" fill="white"/>
</svg>
