<svg width="16" height="16" viewBox="0 0 16 16" fill="none" xmlns="http://www.w3.org/2000/svg">
<path d="M11.9999 4.22656C11.9066 4.22656 11.6133 4.24658 11.6133 4.52658C11.6133 4.71991 11.7599 4.83323 11.9999 4.83323C12.2399 4.83323 12.3866 4.71991 12.3866 4.52658C12.3866 4.30658 12.1866 4.22656 11.9999 4.22656Z" fill="white"/>
<path d="M12.0004 3.67188C12.1804 3.67188 12.2937 3.57188 12.2937 3.41854C12.2937 3.23188 12.1404 3.17188 12.0004 3.17188C11.8604 3.17188 11.707 3.23854 11.707 3.41854C11.707 3.57188 11.8204 3.67188 12.0004 3.67188Z" fill="white"/>
<path d="M12.0006 1.33594C10.6006 1.33594 9.46062 2.40927 9.34734 3.77594C9.33398 3.84927 9.33398 3.92927 9.33398 4.0026C9.33398 5.47594 10.5273 6.66927 12.0006 6.66927C12.234 6.66927 12.454 6.6426 12.6673 6.5826C13.8206 6.28927 14.6673 5.2426 14.6673 4.0026C14.6673 2.52927 13.474 1.33594 12.0006 1.33594ZM12.0006 5.46927C11.3406 5.46927 10.934 5.13595 10.934 4.59595C10.934 4.33595 11.054 4.1026 11.2673 3.9426C11.1073 3.8026 11.0206 3.60927 11.0206 3.38927C11.0206 2.87593 11.414 2.53593 11.994 2.53593C12.574 2.53593 12.9673 2.88259 12.9673 3.38927C12.9673 3.60927 12.8873 3.8026 12.7206 3.9426C12.9406 4.09594 13.0606 4.32927 13.0606 4.59595C13.0673 5.13595 12.6606 5.46927 12.0006 5.46927Z" fill="white"/>
<path d="M12.0006 7.66693C11.234 7.66693 10.5206 7.4336 9.93399 7.02693C9.88735 6.9936 9.82735 7.02693 9.82735 7.08026L9.83399 10.2936C9.83399 10.5736 9.60735 10.7936 9.33399 10.7936C9.06063 10.7936 8.83399 10.5736 8.83399 10.2936V7.00026C8.83399 6.78026 8.98063 6.59361 9.18063 6.52694C9.23399 6.50694 9.26735 6.43359 9.22735 6.39359C8.67399 5.75359 8.33399 4.92027 8.33399 4.00694C8.33399 3.89361 8.34063 3.77359 8.35399 3.66026C8.35399 3.63359 8.36063 3.6136 8.36063 3.58693C8.38063 3.4336 8.30063 3.28692 8.16735 3.22025L7.56732 2.93359C7.20732 2.76693 6.79398 2.76693 6.43398 2.93359L2.10065 4.97359C1.63398 5.19359 1.33398 5.66026 1.33398 6.18026V11.1536C1.33398 11.6736 1.63398 12.1403 2.10065 12.3603L6.43398 14.4003C6.79398 14.5669 7.20732 14.5669 7.56732 14.4003L11.9006 12.3603C12.3674 12.1403 12.6674 11.6736 12.6674 11.1536V8.01362C12.6674 7.80693 12.474 7.64693 12.2674 7.66026C12.1806 7.66693 12.094 7.66693 12.0006 7.66693ZM7.83398 9.00026C7.83398 10.0136 7.01398 10.8336 6.00066 10.8336C4.98732 10.8336 4.16732 10.0136 4.16732 9.00026V7.00026C4.16732 6.72693 4.39398 6.50026 4.66732 6.50026C4.94066 6.50026 5.16732 6.72693 5.16732 7.00026V9.00026C5.16732 9.46026 5.54066 9.83362 6.00066 9.83362C6.46066 9.83362 6.83398 9.46026 6.83398 9.00026V7.00026C6.83398 6.72693 7.06066 6.50026 7.33398 6.50026C7.60732 6.50026 7.83398 6.72693 7.83398 7.00026V9.00026Z" fill="white"/>
</svg>
