<svg width="16" height="16" viewBox="0 0 16 16" fill="none" xmlns="http://www.w3.org/2000/svg">
<path d="M10.794 1.33594H5.20732C2.78066 1.33594 1.33398 2.7826 1.33398 5.20927V10.7892C1.33398 13.2226 2.78066 14.6692 5.20732 14.6692H10.7874C13.214 14.6692 14.6606 13.2226 14.6606 10.796V5.20927C14.6674 2.7826 13.2206 1.33594 10.794 1.33594ZM9.28063 11.0892H6.00066C5.72732 11.0892 5.50066 10.8626 5.50066 10.5892C5.50066 10.316 5.72732 10.0892 6.00066 10.0892H9.28063C10.134 10.0892 10.834 9.39596 10.834 8.53596C10.834 7.67594 10.1406 6.9826 9.28063 6.9826H5.90066L6.07398 7.15594C6.26732 7.34927 6.26732 7.66927 6.07398 7.8626C5.97398 7.9626 5.84732 8.00924 5.72066 8.00924C5.59398 8.00924 5.46732 7.9626 5.36732 7.8626L4.32066 6.81594C4.12732 6.6226 4.12732 6.3026 4.32066 6.10927L5.36732 5.0626C5.56066 4.86927 5.88066 4.86927 6.07398 5.0626C6.26732 5.25594 6.26732 5.57594 6.07398 5.76927L5.84732 5.98927H9.28063C10.6874 5.98927 11.834 7.13594 11.834 8.5426C11.834 9.94924 10.6874 11.0892 9.28063 11.0892Z" fill="white"/>
</svg>
