<svg width="16" height="16" viewBox="0 0 16 16" fill="none" xmlns="http://www.w3.org/2000/svg">
<path d="M11.6328 11.532C10.5128 11.532 9.47945 11.0053 8.80617 10.0786C8.64617 9.8586 8.69281 9.54532 8.91281 9.3786C9.13281 9.21196 9.44617 9.26532 9.61281 9.48532C10.0995 10.1453 10.8328 10.5253 11.6328 10.5253C13.0262 10.5253 14.1662 9.39196 14.1662 7.99197C14.1662 6.59198 13.0328 5.45865 11.6328 5.45865C10.6862 5.45865 9.79281 5.96531 9.30617 6.77197L7.53948 9.71196C6.87282 10.8253 5.65284 11.512 4.35951 11.512C2.41284 11.512 0.826172 9.92532 0.826172 7.97863C0.826172 6.03198 2.41284 4.44531 4.35951 4.44531C5.47951 4.44531 6.51284 4.97198 7.18616 5.89865C7.34616 6.11865 7.29949 6.43198 7.07949 6.59865C6.85282 6.7653 6.54617 6.71197 6.37951 6.49198C5.89951 5.84531 5.16617 5.46531 4.36617 5.46531C2.97284 5.46531 1.83284 6.59865 1.83284 7.9986C1.83284 9.3986 2.96617 10.532 4.36617 10.532C5.31284 10.532 6.20617 10.0253 6.69282 9.2186L8.45945 6.27865C9.12617 5.16531 10.3462 4.47865 11.6395 4.47865C13.5862 4.47865 15.1728 6.06531 15.1728 8.01196C15.1728 9.9586 13.5795 11.532 11.6328 11.532Z" fill="white"/>
<path d="M4.33334 9.33076C5.06971 9.33076 5.66666 8.7338 5.66666 7.9974C5.66666 7.261 5.06971 6.66406 4.33334 6.66406C3.59695 6.66406 3 7.261 3 7.9974C3 8.7338 3.59695 9.33076 4.33334 9.33076Z" fill="white"/>
<path d="M11.6673 9.33076C12.4037 9.33076 13.0006 8.7338 13.0006 7.9974C13.0006 7.261 12.4037 6.66406 11.6673 6.66406C10.9309 6.66406 10.334 7.261 10.334 7.9974C10.334 8.7338 10.9309 9.33076 11.6673 9.33076Z" fill="white"/>
</svg>
