<svg width="16" height="16" viewBox="0 0 16 16" fill="none" xmlns="http://www.w3.org/2000/svg">
<path d="M8.5 9.67766H8.65336C8.87336 9.67766 9.06 9.47766 9.06 9.23094C9.06 8.91766 8.98664 8.87766 8.77336 8.8043L8.5 8.71094V9.67766Z" fill="white"/>
<path d="M8.00063 1.33594C4.32066 1.33594 1.33398 4.3226 1.33398 8.0026C1.33398 11.6826 4.32066 14.6692 8.00063 14.6692C11.6806 14.6692 14.6674 11.6826 14.6674 8.0026C14.6674 4.3226 11.6806 1.33594 8.00063 1.33594ZM5.05398 10.9492C5.24731 11.1426 5.24731 11.4626 5.05398 11.656C4.95398 11.756 4.82731 11.8026 4.70065 11.8026C4.57398 11.8026 4.44731 11.756 4.34731 11.656C3.37398 10.6826 2.83398 9.3826 2.83398 8.0026C2.83398 6.6226 3.37398 5.3226 4.34731 4.34927C4.54065 4.15594 4.86065 4.15594 5.05398 4.34927C5.24731 4.5426 5.24731 4.8626 5.05398 5.05594C4.26731 5.8426 3.83398 6.88927 3.83398 8.0026C3.83398 9.11596 4.26731 10.1626 5.05398 10.9492ZM9.10063 7.85594C9.74063 8.0826 10.054 8.52924 10.054 9.22924C10.054 10.0292 9.42735 10.676 8.64735 10.676H8.49399V10.796C8.49399 11.0692 8.26735 11.296 7.99398 11.296C7.72066 11.296 7.49398 11.0692 7.49398 10.796V10.676H7.47398C6.62731 10.676 5.93398 9.9626 5.93398 9.08924C5.93398 8.81596 6.16065 8.58924 6.43398 8.58924C6.70732 8.58924 6.93398 8.81596 6.93398 9.08924C6.93398 9.41596 7.17398 9.67596 7.47398 9.67596H7.49398V8.35596L6.89398 8.1426C6.25398 7.91594 5.94066 7.46927 5.94066 6.76927C5.94066 5.96927 6.56731 5.3226 7.34732 5.3226H7.50066V5.2026C7.50066 4.92927 7.72732 4.7026 8.00063 4.7026C8.27399 4.7026 8.50063 4.92927 8.50063 5.2026V5.3226H8.52063C9.36735 5.3226 10.0606 6.03594 10.0606 6.90927C10.0606 7.1826 9.83399 7.40927 9.56063 7.40927C9.28735 7.40927 9.06063 7.1826 9.06063 6.90927C9.06063 6.5826 8.82063 6.3226 8.52063 6.3226H8.50063V7.6426L9.10063 7.85594ZM11.654 11.656C11.554 11.756 11.4274 11.8026 11.3006 11.8026C11.174 11.8026 11.0474 11.756 10.9474 11.656C10.754 11.4626 10.754 11.1426 10.9474 10.9492C11.734 10.1626 12.1674 9.11596 12.1674 8.0026C12.1674 6.88927 11.734 5.8426 10.9474 5.05594C10.754 4.8626 10.754 4.5426 10.9474 4.34927C11.1406 4.15594 11.4606 4.15594 11.654 4.34927C12.6274 5.3226 13.1674 6.6226 13.1674 8.0026C13.1674 9.3826 12.6274 10.6826 11.654 11.656Z" fill="white"/>
<path d="M6.94727 6.77367C6.94727 7.087 7.0206 7.127 7.23394 7.20034L7.50727 7.29367V6.32031H7.35394C7.12727 6.32031 6.94727 6.52698 6.94727 6.77367Z" fill="white"/>
</svg>
