<svg width="16" height="16" viewBox="0 0 16 16" fill="none" xmlns="http://www.w3.org/2000/svg">
<path d="M7.99922 4.00156C7.99922 5.32704 6.9247 6.40156 5.59922 6.40156C4.27374 6.40156 3.19922 5.32704 3.19922 4.00156C3.19922 2.67608 4.27374 1.60156 5.59922 1.60156C6.9247 1.60156 7.99922 2.67608 7.99922 4.00156Z" fill="#0F172A"/>
<path d="M1.29261 13.1424C0.974774 12.9389 0.790668 12.5768 0.83723 12.2023C1.13172 9.8336 3.15194 8 5.60031 8C8.04871 8 10.0689 9.83312 10.3634 12.2018C10.41 12.5762 10.2258 12.9383 9.90799 13.1418C8.66455 13.938 7.18633 14.4 5.60031 14.4C4.01429 14.4 2.53606 13.9385 1.29261 13.1424Z" fill="#0F172A"/>
<path d="M12.9996 4.6C12.9996 4.26863 12.731 4 12.3996 4C12.0682 4 11.7996 4.26863 11.7996 4.6V6.2H10.1996C9.86825 6.2 9.59961 6.46863 9.59961 6.8C9.59961 7.13137 9.86825 7.4 10.1996 7.4H11.7996V9C11.7996 9.33136 12.0682 9.6 12.3996 9.6C12.731 9.6 12.9996 9.33136 12.9996 9V7.4H14.5996C14.931 7.4 15.1996 7.13137 15.1996 6.8C15.1996 6.46863 14.931 6.2 14.5996 6.2H12.9996V4.6Z" fill="#0F172A"/>
</svg>
