<svg width="16" height="16" viewBox="0 0 16 16" fill="none" xmlns="http://www.w3.org/2000/svg">
<path d="M7.99948 9.33594C4.65946 9.33594 1.93945 11.5759 1.93945 14.3359C1.93945 14.5226 2.08613 14.6692 2.27279 14.6692H13.7262C13.9128 14.6692 14.0595 14.5226 14.0595 14.3359C14.0595 11.5759 11.3395 9.33594 7.99948 9.33594Z" fill="white"/>
<path d="M11.233 3.86672C11.153 3.54006 11.0198 3.22006 10.833 2.92672C10.7064 2.71339 10.5398 2.50006 10.3598 2.31339C9.75975 1.71339 8.97975 1.38672 8.17975 1.34672C7.27307 1.28672 6.3464 1.62006 5.6464 2.31339C4.9864 2.96672 4.65307 3.84006 4.6664 4.72006C4.67307 5.55339 5.0064 6.38672 5.63974 7.02674C6.07974 7.46674 6.61974 7.76007 7.19974 7.8934C7.51307 7.9734 7.8464 8.01338 8.17975 7.98674C8.97303 7.9534 9.74639 7.64007 10.353 7.02674C11.213 6.16672 11.5064 4.96006 11.233 3.86672ZM9.33303 6.00006C9.09303 6.24006 8.69303 6.24006 8.45303 6.00006L7.99307 5.54006L7.55307 5.98006C7.31307 6.22006 6.91307 6.22006 6.67307 5.98006C6.4264 5.73339 6.4264 5.34006 6.6664 5.10006L7.1064 4.66006L6.67974 4.24672C6.43974 4.00006 6.43974 3.60672 6.67974 3.35339C6.9264 3.11339 7.31974 3.11339 7.57307 3.35339L7.9864 3.78006L8.43303 3.33339C8.67303 3.09339 9.06639 3.09339 9.31303 3.33339C9.55303 3.57339 9.55303 3.97339 9.31303 4.21339L8.87303 4.65339L9.33303 5.12006C9.57303 5.36006 9.57303 5.76006 9.33303 6.00006Z" fill="white"/>
</svg>
