<svg width="16" height="16" viewBox="0 0 16 16" fill="none" xmlns="http://www.w3.org/2000/svg">
<path d="M7.99961 7.19844C9.32513 7.19844 10.3996 6.12392 10.3996 4.79844C10.3996 3.47296 9.32513 2.39844 7.99961 2.39844C6.67413 2.39844 5.59961 3.47296 5.59961 4.79844C5.59961 6.12392 6.67413 7.19844 7.99961 7.19844Z" fill="#0F172A"/>
<path d="M4.79961 6.40078C4.79961 7.28444 4.08327 8.00078 3.19961 8.00078C2.31595 8.00078 1.59961 7.28444 1.59961 6.40078C1.59961 5.51713 2.31595 4.80078 3.19961 4.80078C4.08327 4.80078 4.79961 5.51713 4.79961 6.40078Z" fill="#0F172A"/>
<path d="M1.19329 12.2613C1.05764 12.1825 0.952949 12.0582 0.906757 11.9082C0.837869 11.6846 0.800781 11.447 0.800781 11.2008C0.800781 9.87526 1.8753 8.80078 3.20078 8.80078C3.61838 8.80078 4.01108 8.90742 4.3531 9.09502C3.51541 9.9199 2.95609 11.0268 2.82861 12.2621C2.81022 12.4403 2.81789 12.6161 2.84875 12.7855C2.24927 12.7333 1.68767 12.5487 1.19329 12.2613Z" fill="#0F172A"/>
<path d="M13.1529 12.7855C13.7523 12.7332 14.3137 12.5487 14.808 12.2613C14.9436 12.1825 15.0484 12.0582 15.0945 11.9082C15.1634 11.6846 15.2005 11.447 15.2005 11.2008C15.2005 9.87526 14.126 8.80078 12.8005 8.80078C12.383 8.80078 11.9904 8.90742 11.6484 9.09486C12.4862 9.91974 13.0456 11.0267 13.173 12.2621C13.1914 12.4403 13.1837 12.6161 13.1529 12.7855Z" fill="#0F172A"/>
<path d="M14.3992 6.40078C14.3992 7.28444 13.6829 8.00078 12.7992 8.00078C11.9155 8.00078 11.1992 7.28444 11.1992 6.40078C11.1992 5.51713 11.9155 4.80078 12.7992 4.80078C13.6829 4.80078 14.3992 5.51713 14.3992 6.40078Z" fill="#0F172A"/>
<path d="M4.24267 12.9535C4.08339 12.8093 3.99899 12.599 4.02104 12.3853C4.22887 10.3714 5.93087 8.80078 7.99969 8.80078C10.0686 8.80078 11.7706 10.3714 11.9784 12.3853C12.0005 12.599 11.9161 12.8093 11.7568 12.9535C10.7632 13.8529 9.44545 14.4008 7.99969 14.4008C6.55399 14.4008 5.23622 13.8529 4.24267 12.9535Z" fill="#0F172A"/>
</svg>
