<svg width="16" height="16" viewBox="0 0 16 16" fill="none" xmlns="http://www.w3.org/2000/svg">
<path d="M7.99948 9.33594C4.65946 9.33594 1.93945 11.5759 1.93945 14.3359C1.93945 14.5226 2.08613 14.6692 2.27279 14.6692H13.7262C13.9128 14.6692 14.0595 14.5226 14.0595 14.3359C14.0595 11.5759 11.3395 9.33594 7.99948 9.33594Z" fill="white"/>
<path d="M7.99934 1.33594C7.21268 1.33594 6.49268 1.60927 5.91934 2.06927C5.15268 2.67594 4.66602 3.61594 4.66602 4.66927C4.66602 5.29594 4.83934 5.8826 5.15268 6.3826C5.72602 7.34927 6.77934 8.0026 7.99934 8.0026C8.83937 8.0026 9.60601 7.69594 10.1926 7.16927C10.4526 6.94927 10.6794 6.6826 10.8526 6.3826C11.1594 5.8826 11.3326 5.29594 11.3326 4.66927C11.3326 2.82927 9.83937 1.33594 7.99934 1.33594ZM9.72601 4.30927L7.94602 5.94927C7.82602 6.0626 7.67268 6.11594 7.51934 6.11594C7.35934 6.11594 7.19934 6.05594 7.07934 5.93594L6.25934 5.10927C6.01268 4.8626 6.01268 4.46927 6.25934 4.2226C6.50602 3.97594 6.89934 3.97594 7.14602 4.2226L7.53934 4.61594L8.87937 3.3826C9.13265 3.14927 9.52601 3.1626 9.75937 3.41594C9.99265 3.67594 9.97937 4.07594 9.72601 4.30927Z" fill="white"/>
</svg>
