<svg width="16" height="16" viewBox="0 0 16 16" fill="none" xmlns="http://www.w3.org/2000/svg">
<path d="M14.6466 1.55073C14.1666 1.00406 13.4534 0.664062 12.6666 0.664062C11.92 0.664062 11.24 0.970726 10.7534 1.47073C10.4734 1.7574 10.26 2.10406 10.1334 2.49073C10.0466 2.7574 10 3.0374 10 3.33073C10 3.83073 10.14 4.30406 10.3866 4.70406C10.52 4.93073 10.6934 5.1374 10.8934 5.31073C11.36 5.7374 11.98 5.9974 12.6666 5.9974C12.96 5.9974 13.24 5.95073 13.5 5.8574C14.1134 5.66406 14.6266 5.24406 14.9466 4.70406C15.0866 4.4774 15.1934 4.2174 15.2534 3.95073C15.3066 3.75073 15.3334 3.54406 15.3334 3.33073C15.3334 2.65073 15.0734 2.02406 14.6466 1.55073ZM13.66 3.8174H13.1666V4.3374C13.1666 4.61073 12.94 4.8374 12.6666 4.8374C12.3934 4.8374 12.1666 4.61073 12.1666 4.3374V3.8174H11.6734C11.4 3.8174 11.1734 3.59073 11.1734 3.3174C11.1734 3.04406 11.4 2.8174 11.6734 2.8174H12.1666V2.34406C12.1666 2.07073 12.3934 1.84406 12.6666 1.84406C12.94 1.84406 13.1666 2.07073 13.1666 2.34406V2.8174H13.66C13.9334 2.8174 14.16 3.04406 14.16 3.3174C14.16 3.59073 13.94 3.8174 13.66 3.8174Z" fill="white"/>
<path d="M14.6674 8.0026C14.6674 7.12927 14.5006 6.28927 14.1874 5.5226C13.9806 5.66927 13.7474 5.7826 13.5006 5.8626C13.4274 5.88927 13.354 5.90927 13.274 5.92927C13.5274 6.56927 13.6674 7.26927 13.6674 8.0026C13.6674 9.54924 13.0406 10.956 12.0274 11.9826C11.834 11.736 11.5874 11.5092 11.294 11.316C9.48735 10.1026 6.52732 10.1026 4.70732 11.316C4.41398 11.5092 4.17398 11.736 3.97398 11.9826C2.96066 10.956 2.33398 9.54924 2.33398 8.0026C2.33398 4.87594 4.87398 2.33594 8.00063 2.33594C8.72735 2.33594 9.42735 2.47594 10.0674 2.72927C10.0874 2.64927 10.1074 2.57594 10.134 2.49594C10.214 2.24927 10.3274 2.0226 10.4806 1.81594C9.71399 1.5026 8.87399 1.33594 8.00063 1.33594C4.32732 1.33594 1.33398 4.32927 1.33398 8.0026C1.33398 9.93596 2.16732 11.676 3.48732 12.896C3.48732 12.9026 3.48732 12.9026 3.48066 12.9092C3.54732 12.976 3.62732 13.0292 3.69398 13.0892C3.73398 13.1226 3.76732 13.156 3.80732 13.1826C3.92732 13.2826 4.06066 13.376 4.18732 13.4692C4.23398 13.5026 4.27398 13.5292 4.32066 13.5626C4.44732 13.6492 4.58066 13.7292 4.72066 13.8026C4.76732 13.8292 4.82066 13.8626 4.86732 13.8892C5.00066 13.9626 5.14066 14.0292 5.28732 14.0892C5.34066 14.116 5.39398 14.1426 5.44732 14.1626C5.59398 14.2226 5.74066 14.276 5.88732 14.3226C5.94066 14.3426 5.99398 14.3626 6.04732 14.376C6.20732 14.4226 6.36732 14.4626 6.52732 14.5026C6.57398 14.516 6.62066 14.5292 6.67398 14.536C6.86066 14.576 7.04732 14.6026 7.24066 14.6226C7.26732 14.6226 7.29398 14.6292 7.32065 14.636C7.54732 14.656 7.77398 14.6692 8.00063 14.6692C8.22735 14.6692 8.45399 14.656 8.67399 14.636C8.70063 14.636 8.72735 14.6292 8.75399 14.6226C8.94735 14.6026 9.13399 14.576 9.32063 14.536C9.36735 14.5292 9.41399 14.5092 9.46735 14.5026C9.62735 14.4626 9.79399 14.4292 9.94735 14.376C10.0006 14.356 10.054 14.336 10.1074 14.3226C10.254 14.2692 10.4074 14.2226 10.5474 14.1626C10.6006 14.1426 10.654 14.116 10.7074 14.0892C10.8474 14.0292 10.9874 13.9626 11.1274 13.8892C11.1806 13.8626 11.2274 13.8292 11.274 13.8026C11.4074 13.7226 11.5406 13.6492 11.674 13.5626C11.7206 13.536 11.7606 13.5026 11.8074 13.4692C11.9406 13.376 12.0674 13.2826 12.1874 13.1826C12.2274 13.1492 12.2606 13.116 12.3006 13.0892C12.374 13.0292 12.4474 12.9692 12.514 12.9092C12.514 12.9026 12.514 12.9026 12.5074 12.896C13.834 11.676 14.6674 9.93596 14.6674 8.0026Z" fill="white"/>
<path d="M8 4.61719C6.62 4.61719 5.5 5.73719 5.5 7.1172C5.5 8.47052 6.56 9.57052 7.96666 9.61052C7.98666 9.61052 8.01336 9.61052 8.02664 9.61052C8.04 9.61052 8.06 9.61052 8.07336 9.61052C8.08 9.61052 8.08664 9.61052 8.08664 9.61052C9.43336 9.56388 10.4934 8.47052 10.5 7.1172C10.5 5.73719 9.38 4.61719 8 4.61719Z" fill="white"/>
</svg>
