<svg width="16" height="16" viewBox="0 0 16 16" fill="none" xmlns="http://www.w3.org/2000/svg">
<path d="M8.8 4.00156C8.8 5.32704 7.72548 6.40156 6.4 6.40156C5.07452 6.40156 4 5.32704 4 4.00156C4 2.67608 5.07452 1.60156 6.4 1.60156C7.72548 1.60156 8.8 2.67608 8.8 4.00156Z" fill="#0F172A"/>
<path d="M1.63606 12.2023C1.5895 12.5768 1.7736 12.9389 2.09144 13.1424C3.33489 13.9385 4.81311 14.4 6.39914 14.4C7.98516 14.4 9.46338 13.938 10.7068 13.1418C11.0247 12.9383 11.2088 12.5762 11.1622 12.2018C10.8677 9.83312 8.84754 8 6.39914 8C3.95077 8 1.93055 9.8336 1.63606 12.2023Z" fill="#0F172A"/>
<path d="M10.1996 6.19922C9.86825 6.19922 9.59961 6.46785 9.59961 6.79922C9.59961 7.13059 9.86825 7.39922 10.1996 7.39922H14.5996C14.931 7.39922 15.1996 7.13059 15.1996 6.79922C15.1996 6.46785 14.931 6.19922 14.5996 6.19922H10.1996Z" fill="#0F172A"/>
</svg>
