<svg width="16" height="16" viewBox="0 0 16 16" fill="none" xmlns="http://www.w3.org/2000/svg">
<path d="M10.794 1.33594H5.20732C2.78066 1.33594 1.33398 2.7826 1.33398 5.20927V10.796C1.33398 12.6692 2.19398 13.956 3.70732 14.4426C4.14732 14.596 4.65398 14.6692 5.20732 14.6692H10.794C11.3474 14.6692 11.854 14.596 12.294 14.4426C13.8074 13.956 14.6674 12.6692 14.6674 10.796V5.20927C14.6674 2.7826 13.2206 1.33594 10.794 1.33594ZM13.6674 10.796C13.6674 12.2226 13.1074 13.1226 11.9806 13.496C11.334 12.2226 9.80063 11.316 8.00063 11.316C6.20066 11.316 4.67398 12.216 4.02066 13.496H4.01398C2.90066 13.136 2.33398 12.2292 2.33398 10.8026V5.20927C2.33398 3.32927 3.32732 2.33594 5.20732 2.33594H10.794C12.674 2.33594 13.6674 3.32927 13.6674 5.20927V10.796Z" fill="white"/>
<path d="M7.99994 5.33594C6.67994 5.33594 5.61328 6.4026 5.61328 7.7226C5.61328 9.0426 6.67994 10.116 7.99994 10.116C9.31992 10.116 10.3866 9.0426 10.3866 7.7226C10.3866 6.4026 9.31992 5.33594 7.99994 5.33594Z" fill="white"/>
</svg>
