<svg width="16" height="16" viewBox="0 0 16 16" fill="none" xmlns="http://www.w3.org/2000/svg">
<path d="M5.59922 6.40156C6.9247 6.40156 7.99922 5.32704 7.99922 4.00156C7.99922 2.67608 6.9247 1.60156 5.59922 1.60156C4.27374 1.60156 3.19922 2.67608 3.19922 4.00156C3.19922 5.32704 4.27374 6.40156 5.59922 6.40156Z" fill="#0F172A"/>
<path d="M11.5996 7.19922C12.7042 7.19922 13.5996 6.30379 13.5996 5.19922C13.5996 4.09465 12.7042 3.19922 11.5996 3.19922C10.495 3.19922 9.59961 4.09465 9.59961 5.19922C9.59961 6.30379 10.495 7.19922 11.5996 7.19922Z" fill="#0F172A"/>
<path d="M1.29261 13.1424C0.974774 12.9389 0.790668 12.5768 0.83723 12.2023C1.13172 9.8336 3.15194 8 5.60031 8C8.04871 8 10.0689 9.83312 10.3634 12.2018C10.41 12.5762 10.2258 12.9383 9.90799 13.1418C8.66455 13.938 7.18633 14.4 5.60031 14.4C4.01429 14.4 2.53606 13.9385 1.29261 13.1424Z" fill="#0F172A"/>
<path d="M11.6001 12.8008C11.5718 12.8008 11.5436 12.8006 11.5154 12.8002C11.5705 12.5628 11.5858 12.3116 11.5538 12.0545C11.4134 10.9257 10.9601 9.89438 10.2832 9.05006C10.6917 8.88918 11.1366 8.80078 11.6022 8.80078C13.1541 8.80078 14.4765 9.78262 14.9823 11.159C15.091 11.4549 14.9636 11.7801 14.6937 11.9428C13.7903 12.4874 12.7318 12.8008 11.6001 12.8008Z" fill="#0F172A"/>
</svg>
