<svg width="16" height="16" viewBox="0 0 16 16" fill="none" xmlns="http://www.w3.org/2000/svg">
<path d="M7.99948 9.33594C4.65946 9.33594 1.93945 11.5759 1.93945 14.3359C1.93945 14.5226 2.08613 14.6692 2.27279 14.6692H13.7262C13.9128 14.6692 14.0595 14.5226 14.0595 14.3359C14.0595 11.5759 11.3395 9.33594 7.99948 9.33594Z" fill="white"/>
<path d="M11.146 6.9026L10.506 6.2626C10.8394 5.7626 11.0326 5.1626 11.0326 4.51594C11.0326 2.75594 9.60601 1.33594 7.85268 1.33594C6.09934 1.33594 4.66602 2.7626 4.66602 4.51594C4.66602 6.26927 6.09268 7.69594 7.84602 7.69594C8.49265 7.69594 9.09265 7.5026 9.59265 7.16927L10.2326 7.80927C10.3594 7.93594 10.526 7.99594 10.686 7.99594C10.8526 7.99594 11.0194 7.93594 11.1394 7.80927C11.3926 7.5626 11.3926 7.15594 11.146 6.9026Z" fill="white"/>
</svg>
