<svg width="16" height="16" viewBox="0 0 16 16" fill="none" xmlns="http://www.w3.org/2000/svg">
<path d="M13.0073 3.9026L9.04727 1.61594C8.40055 1.2426 7.60059 1.2426 6.94726 1.61594L2.99394 3.9026C2.34727 4.27594 1.94727 4.96928 1.94727 5.7226V10.2826C1.94727 11.0292 2.34727 11.7226 2.99394 12.1026L6.95392 14.3892C7.60059 14.7626 8.40055 14.7626 9.05391 14.3892L13.0139 12.1026C13.6606 11.7292 14.0606 11.036 14.0606 10.2826V5.7226C14.0539 4.96928 13.6539 4.2826 13.0073 3.9026ZM8.00055 4.89594C8.86055 4.89594 9.55391 5.58928 9.55391 6.44928C9.55391 7.30928 8.86055 8.0026 8.00055 8.0026C7.14059 8.0026 6.44727 7.30928 6.44727 6.44928C6.44727 5.59594 7.14059 4.89594 8.00055 4.89594ZM9.78727 11.1092H6.21394C5.67394 11.1092 5.3606 10.5092 5.6606 10.0626C6.11394 9.38924 6.99392 8.93596 8.00055 8.93596C9.00727 8.93596 9.88727 9.38924 10.3406 10.0626C10.6406 10.5026 10.3206 11.1092 9.78727 11.1092Z" fill="white"/>
</svg>
