<svg width="16" height="16" viewBox="0 0 16 16" fill="none" xmlns="http://www.w3.org/2000/svg">
<path d="M7.99948 10C4.65946 10 1.93945 12.24 1.93945 15C1.93945 15.1866 2.08613 15.3334 2.27279 15.3334H13.7262C13.9128 15.3334 14.0595 15.1866 14.0595 15C14.0595 12.24 11.3395 10 7.99948 10Z" fill="white"/>
<path d="M10.4726 2.4426C9.87265 1.7626 8.97937 1.33594 7.99934 1.33594C7.06602 1.33594 6.21268 1.71594 5.60602 2.3426C5.02602 2.9426 4.66602 3.76927 4.66602 4.66927C4.66602 5.29594 4.83934 5.8826 5.15268 6.3826C5.31934 6.66927 5.53268 6.92927 5.78602 7.1426C6.36602 7.67594 7.13934 8.0026 7.99934 8.0026C9.21937 8.0026 10.2726 7.34927 10.8526 6.3826C11.026 6.09594 11.1594 5.77594 11.2326 5.4426C11.2994 5.19594 11.3326 4.93594 11.3326 4.66927C11.3326 3.81594 11.006 3.03594 10.4726 2.4426ZM9.24601 5.2826H8.62601V5.92927C8.62601 6.27594 8.34601 6.55594 7.99934 6.55594C7.65268 6.55594 7.37268 6.27594 7.37268 5.92927V5.2826H6.75268C6.40602 5.2826 6.12602 5.0026 6.12602 4.65594C6.12602 4.30927 6.40602 4.02927 6.75268 4.02927H7.37268V3.43594C7.37268 3.08927 7.65268 2.80927 7.99934 2.80927C8.34601 2.80927 8.62601 3.08927 8.62601 3.43594V4.02927H9.24601C9.59265 4.02927 9.87265 4.30927 9.87265 4.65594C9.87265 5.0026 9.59265 5.2826 9.24601 5.2826Z" fill="white"/>
</svg>
