<svg width="16" height="16" viewBox="0 0 16 16" fill="none" xmlns="http://www.w3.org/2000/svg">
<path d="M7.99961 6.40156C9.32513 6.40156 10.3996 5.32704 10.3996 4.00156C10.3996 2.67608 9.32513 1.60156 7.99961 1.60156C6.67413 1.60156 5.59961 2.67608 5.59961 4.00156C5.59961 5.32704 6.67413 6.40156 7.99961 6.40156Z" fill="#0F172A"/>
<path d="M2.77253 11.5948C2.61662 12.0013 2.75587 12.4568 3.09975 12.7237C4.45364 13.7744 6.15401 14.4 8.00047 14.4C9.84887 14.4 11.5508 13.7731 12.9054 12.7205C13.249 12.4534 13.388 11.9977 13.2318 11.5914C12.4245 9.4908 10.3877 8 8.00287 8C5.61665 8 3.57902 9.49248 2.77253 11.5948Z" fill="#0F172A"/>
</svg>
