<svg width="16" height="16" viewBox="0 0 16 16" fill="none" xmlns="http://www.w3.org/2000/svg">
<path d="M7.99934 1.33594C6.15934 1.33594 4.66602 2.82927 4.66602 4.66927C4.66602 6.50927 6.15934 8.0026 7.99934 8.0026C9.83937 8.0026 11.3326 6.50927 11.3326 4.66927C11.3326 2.82927 9.83937 1.33594 7.99934 1.33594ZM9.44601 4.3426L7.64602 6.1426C7.57934 6.20927 7.43934 6.27594 7.34602 6.29594L6.65934 6.38927C6.40602 6.4226 6.23268 6.24927 6.27268 6.0026L6.37268 5.31594C6.38602 5.2226 6.45268 5.0826 6.52602 5.01594L8.32601 3.21594C8.63265 2.90927 8.99937 2.7626 9.45265 3.21594C9.89937 3.67594 9.75265 4.03594 9.44601 4.3426Z" fill="white"/>
<path d="M7.99948 9.33594C4.65946 9.33594 1.93945 11.5759 1.93945 14.3359C1.93945 14.5226 2.08613 14.6692 2.27279 14.6692H13.7262C13.9128 14.6692 14.0595 14.5226 14.0595 14.3359C14.0595 11.5759 11.3395 9.33594 7.99948 9.33594Z" fill="white"/>
</svg>
