<svg width="16" height="16" viewBox="0 0 16 16" fill="none" xmlns="http://www.w3.org/2000/svg">
<path fill-rule="evenodd" clip-rule="evenodd" d="M14.3996 8.00156C14.3996 11.5362 11.5342 14.4016 7.99961 14.4016C4.46499 14.4016 1.59961 11.5362 1.59961 8.00156C1.59961 4.46694 4.46499 1.60156 7.99961 1.60156C11.5342 1.60156 14.3996 4.46694 14.3996 8.00156ZM9.99961 6.00156C9.99961 7.10613 9.10417 8.00156 7.99961 8.00156C6.89504 8.00156 5.99961 7.10613 5.99961 6.00156C5.99961 4.89699 6.89504 4.00156 7.99961 4.00156C9.10417 4.00156 9.99961 4.89699 9.99961 6.00156ZM7.99961 9.60156C6.43267 9.60156 5.04111 10.3524 4.16504 11.5139C5.11568 12.5512 6.48169 13.2016 7.99961 13.2016C9.51753 13.2016 10.8835 12.5512 11.8342 11.5139C10.9581 10.3524 9.56657 9.60156 7.99961 9.60156Z" fill="#0F172A"/>
</svg>
