<svg width="16" height="16" viewBox="0 0 16 16" fill="none" xmlns="http://www.w3.org/2000/svg">
<path d="M12 1.33594H4C2.89334 1.33594 2 2.2226 2 3.31594V10.5892C2 11.6826 2.89334 12.5692 4 12.5692H4.50666C5.04 12.5692 5.54666 12.776 5.92 13.1492L7.06 14.276C7.58 14.7892 8.42664 14.7892 8.94664 14.276L10.0866 13.1492C10.46 12.776 10.9734 12.5692 11.5 12.5692H12C13.1066 12.5692 14 11.6826 14 10.5892V3.31594C14 2.2226 13.1066 1.33594 12 1.33594ZM8 3.83594C8.86 3.83594 9.55336 4.52927 9.55336 5.38927C9.55336 6.24927 8.86 6.9426 8 6.9426C7.14 6.9426 6.44666 6.2426 6.44666 5.38927C6.44666 4.52927 7.14 3.83594 8 3.83594ZM9.78664 10.0426H6.21334C5.67334 10.0426 5.36 9.4426 5.66 8.99596C6.11334 8.3226 6.99334 7.86927 8 7.86927C9.00664 7.86927 9.88664 8.3226 10.34 8.99596C10.64 9.4426 10.32 10.0426 9.78664 10.0426Z" fill="white"/>
</svg>
