<svg width="16" height="16" viewBox="0 0 16 16" fill="none" xmlns="http://www.w3.org/2000/svg">
<path fill-rule="evenodd" clip-rule="evenodd" d="M12.1692 1.6649C12.4656 1.51686 12.826 1.63718 12.974 1.93364C13.8866 3.76102 14.3996 5.8223 14.3996 8.00166C14.3996 10.1811 13.8866 12.2424 12.974 14.0697C12.826 14.3662 12.4656 14.4865 12.1692 14.3385C11.8727 14.1905 11.7524 13.8301 11.9004 13.5337C12.7317 11.869 13.1996 9.99086 13.1996 8.00166C13.1996 6.01253 12.7317 4.1344 11.9004 2.46974C11.7524 2.17328 11.8727 1.81294 12.1692 1.6649ZM3.83003 1.6649C4.1265 1.81294 4.24682 2.17328 4.09879 2.46974C3.26754 4.13439 2.79961 6.01253 2.79961 8.00166C2.79961 9.99086 3.26754 11.869 4.09879 13.5337C4.24682 13.8301 4.1265 14.1905 3.83003 14.3385C3.53357 14.4865 3.17323 14.3662 3.02519 14.0697C2.11269 12.2424 1.59961 10.1811 1.59961 8.00166C1.59961 5.8223 2.11269 3.76102 3.02519 1.93364C3.17323 1.63718 3.53357 1.51686 3.83003 1.6649ZM5.65783 4.50844C6.28791 4.08839 7.14475 4.34978 7.43308 5.05L8.11825 6.71391L9.03497 5.29712C9.58025 4.45439 10.7094 4.2205 11.5446 4.77728L11.7324 4.90247C12.0082 5.08628 12.0826 5.4588 11.8988 5.73452C11.715 6.01023 11.3425 6.08473 11.0668 5.90092L10.879 5.77575C10.6006 5.59015 10.2242 5.66811 10.0425 5.94903L8.67409 8.06382L9.67577 10.4965L10.2668 10.1025C10.5425 9.91862 10.915 9.99318 11.0988 10.2689C11.2826 10.5446 11.2082 10.9171 10.9324 11.1009L10.3414 11.4949C9.71129 11.915 8.85449 11.6536 8.56617 10.9534L7.88099 9.2895L6.96424 10.7063C6.41895 11.549 5.28973 11.7829 4.45456 11.2261L4.26679 11.1009C3.99107 10.9171 3.91657 10.5446 4.10038 10.2689C4.28419 9.99318 4.65671 9.91862 4.93243 10.1025L5.1202 10.2277C5.39859 10.4133 5.77499 10.3353 5.95676 10.0544L7.32515 7.93957L6.32347 5.5069L5.73243 5.90092C5.45671 6.08473 5.08419 6.01023 4.90038 5.73452C4.71657 5.4588 4.79107 5.08628 5.06679 4.90246L5.65783 4.50844Z" fill="#0F172A"/>
</svg>
