<svg width="16" height="16" viewBox="0 0 16 16" fill="none" xmlns="http://www.w3.org/2000/svg">
<path d="M14.3726 7.16033L13.4659 6.10703C13.2926 5.90703 13.1526 5.5337 13.1526 5.26703V4.1337C13.1526 3.42703 12.5726 2.84703 11.8659 2.84703H10.7326C10.4726 2.84703 10.0926 2.70703 9.89258 2.5337L8.8393 1.62703C8.3793 1.2337 7.62594 1.2337 7.15928 1.62703L6.1126 2.54036C5.9126 2.70703 5.5326 2.84703 5.2726 2.84703H4.11927C3.4126 2.84703 2.8326 3.42703 2.8326 4.1337V5.2737C2.8326 5.5337 2.6926 5.90703 2.52594 6.10703L1.62594 7.167C1.23927 7.627 1.23927 8.37366 1.62594 8.83366L2.52594 9.89366C2.6926 10.0937 2.8326 10.467 2.8326 10.727V11.867C2.8326 12.5737 3.4126 13.1537 4.11927 13.1537H5.2726C5.5326 13.1537 5.9126 13.2937 6.1126 13.467L7.16594 14.3737C7.62594 14.767 8.3793 14.767 8.84594 14.3737L9.8993 13.467C10.0993 13.2937 10.4726 13.1537 10.7393 13.1537H11.8726C12.5793 13.1537 13.1593 12.5737 13.1593 11.867V10.7337C13.1593 10.4737 13.2993 10.0937 13.4726 9.89366L14.3793 8.8403C14.7659 8.3803 14.7659 7.62033 14.3726 7.16033ZM10.7726 6.74033L7.55262 9.9603C7.45928 10.0537 7.33262 10.107 7.19928 10.107C7.06595 10.107 6.93928 10.0537 6.84595 9.9603L5.2326 8.34702C5.03927 8.15366 5.03927 7.83366 5.2326 7.64033C5.42594 7.447 5.74594 7.447 5.93926 7.64033L7.19928 8.9003L10.0659 6.0337C10.2593 5.84036 10.5793 5.84036 10.7726 6.0337C10.9659 6.22703 10.9659 6.54703 10.7726 6.74033Z" fill="white"/>
</svg>
