<svg width="16" height="16" viewBox="0 0 16 16" fill="none" xmlns="http://www.w3.org/2000/svg">
<path d="M8.00063 1.33594C4.32066 1.33594 1.33398 4.3226 1.33398 8.0026C1.33398 11.6826 4.32066 14.6692 8.00063 14.6692C11.6806 14.6692 14.6674 11.6826 14.6674 8.0026C14.6674 4.3226 11.6806 1.33594 8.00063 1.33594ZM6.03398 5.52927C6.08731 5.41593 6.20732 5.34259 6.33398 5.34259H9.66735C9.79399 5.34259 9.90735 5.41593 9.96735 5.52927C10.0274 5.64259 10.014 5.77594 9.93399 5.87594L8.26735 8.09596C8.20735 8.1826 8.10735 8.22924 8.00063 8.22924C7.89398 8.22924 7.79398 8.1826 7.73398 8.09596L6.0673 5.87594C5.99398 5.7826 5.98065 5.64259 6.03398 5.52927ZM11.7406 6.9626L8.40735 11.6292C8.31399 11.7626 8.16063 11.836 8.00063 11.836C7.84066 11.836 7.68732 11.756 7.59398 11.6292L4.26066 6.9626C4.10066 6.73594 4.15398 6.4226 4.37398 6.2626C4.60066 6.1026 4.91398 6.15594 5.07398 6.37594L8.00063 10.476L10.9274 6.37594C11.0874 6.14927 11.4006 6.09594 11.6274 6.2626C11.8474 6.4226 11.9006 6.73594 11.7406 6.9626Z" fill="white"/>
</svg>
