<svg width="16" height="16" viewBox="0 0 16 16" fill="none" xmlns="http://www.w3.org/2000/svg">
<path d="M9.81968 1.33594H6.17969V4.2426H9.81968V1.33594Z" fill="white"/>
<path d="M10.8203 1.33594V4.2426H14.5803C14.2403 2.40927 12.887 1.3426 10.8203 1.33594Z" fill="white"/>
<path d="M1.33398 5.24219V10.7956C1.33398 13.2222 2.78066 14.6688 5.20732 14.6688H10.794C13.2206 14.6688 14.6674 13.2222 14.6674 10.7956V5.24219H1.33398ZM9.62735 10.7888L8.24063 11.5888C7.94732 11.7556 7.66066 11.8422 7.39398 11.8422C7.19398 11.8422 7.01398 11.7956 6.84732 11.7022C6.46066 11.4822 6.24732 11.0288 6.24732 10.4422V8.8422C6.24732 8.25556 6.46066 7.8022 6.84732 7.5822C7.23398 7.35553 7.72732 7.39553 8.24063 7.69553L9.62735 8.49556C10.1406 8.78884 10.4206 9.2022 10.4206 9.64884C10.4206 10.0956 10.134 10.4888 9.62735 10.7888Z" fill="white"/>
<path d="M5.17992 1.33594C3.11326 1.3426 1.75992 2.40927 1.41992 4.2426H5.17992V1.33594Z" fill="white"/>
</svg>
