<svg width="16" height="16" viewBox="0 0 16 16" fill="none" xmlns="http://www.w3.org/2000/svg">
<path d="M0.800781 11.0005V5.74609L7.8552 12.8005H2.60078C1.60667 12.8005 0.800781 11.9946 0.800781 11.0005Z" fill="#0F172A"/>
<path d="M10.4001 4.99922V10.2536L3.3457 3.19922H8.60012C9.5942 3.19922 10.4001 4.00511 10.4001 4.99922Z" fill="#0F172A"/>
<path d="M15.1996 3.79923C15.1996 3.55656 15.0534 3.33778 14.8292 3.24491C14.605 3.15204 14.347 3.20337 14.1754 3.37497L11.7754 5.77497C11.6628 5.88749 11.5996 6.04011 11.5996 6.19924V9.79922C11.5996 9.95834 11.6628 10.111 11.7754 10.2235L14.1754 12.6235C14.347 12.7951 14.605 12.8464 14.8292 12.7535C15.0534 12.6607 15.1996 12.4419 15.1996 12.1992V3.79923Z" fill="#0F172A"/>
<path d="M1.82504 3.37495C1.59073 3.14064 1.21083 3.14064 0.976517 3.37495C0.742203 3.60926 0.742203 3.98917 0.976517 4.22348L9.37654 12.6235C9.61086 12.8578 9.9907 12.8578 10.225 12.6235C10.4593 12.3891 10.4593 12.0093 10.225 11.775L1.82504 3.37495Z" fill="#0F172A"/>
</svg>
