<svg width="16" height="16" viewBox="0 0 16 16" fill="none" xmlns="http://www.w3.org/2000/svg">
<path d="M14.654 10.4492C14.6273 10.4092 14.594 10.3692 14.5606 10.3359C14.0206 9.71594 13.2206 9.33594 12.334 9.33594C11.494 9.33594 10.7273 9.68258 10.1806 10.2426C9.65398 10.7826 9.33398 11.5226 9.33398 12.3359C9.33398 12.8959 9.49398 13.4292 9.76734 13.8826C9.92062 14.1359 10.114 14.3692 10.3406 14.5626C10.374 14.5959 10.4073 14.6226 10.4473 14.6559C10.4473 14.6559 10.4473 14.6559 10.454 14.6559C10.9606 15.0826 11.614 15.3359 12.334 15.3359C13.4273 15.3359 14.3806 14.7492 14.9006 13.8826C15.054 13.6226 15.174 13.3359 15.2473 13.0359C15.3073 12.8092 15.334 12.5759 15.334 12.3359C15.334 11.6226 15.0806 10.9626 14.654 10.4492ZM13.4873 13.4759C13.3873 13.5759 13.2606 13.6226 13.134 13.6226C13.0073 13.6226 12.8806 13.5759 12.7806 13.4759L12.3406 13.0359L11.8806 13.4959C11.7806 13.5959 11.654 13.6426 11.5273 13.6426C11.4006 13.6426 11.274 13.5959 11.174 13.4959C10.9806 13.3026 10.9806 12.9826 11.174 12.7892L11.634 12.3292L11.194 11.8892C11.0006 11.6959 11.0006 11.3759 11.194 11.1826C11.3873 10.9892 11.7073 10.9892 11.9006 11.1826L12.3406 11.6226L12.7606 11.2026C12.954 11.0092 13.274 11.0092 13.4673 11.2026C13.6606 11.3959 13.6606 11.7159 13.4673 11.9092L13.0473 12.3292L13.4873 12.7692C13.6873 12.9626 13.6873 13.2759 13.4873 13.4759Z" fill="white"/>
<path d="M9.81968 3.90927V1.66927C9.81968 1.4826 9.67304 1.33594 9.48632 1.33594H6.51302C6.32635 1.33594 6.17969 1.4826 6.17969 1.66927V3.90927C6.17969 4.09594 6.32635 4.2426 6.51302 4.2426H9.48632C9.67304 4.2426 9.81968 4.09594 9.81968 3.90927Z" fill="white"/>
<path d="M4.83365 1.34843C3.12698 1.4551 1.96031 2.3351 1.52698 3.80176C1.46031 4.02176 1.62031 4.24176 1.84698 4.24176H4.84698C5.03365 4.24176 5.18031 4.0951 5.18031 3.90843V1.68176C5.18031 1.4951 5.02031 1.3351 4.83365 1.34843Z" fill="white"/>
<path d="M11.167 1.34062C12.8737 1.44729 14.0403 2.32729 14.4737 3.79396C14.5403 4.01396 14.3803 4.23396 14.1537 4.23396H11.1537C10.967 4.23396 10.8203 4.08729 10.8203 3.90062V1.67396C10.8203 1.48729 10.9803 1.32729 11.167 1.34062Z" fill="white"/>
<path d="M14.6674 5.57552V8.49556C14.6674 8.7422 14.4074 8.9022 14.1874 8.78884C13.6274 8.49556 12.9874 8.33556 12.334 8.33556C11.2606 8.33556 10.214 8.77556 9.46735 9.5422C8.73399 10.2888 8.33399 11.2822 8.33399 12.3356C8.33399 12.8756 8.54735 13.5688 8.81399 14.1488C8.92063 14.3822 8.76063 14.6688 8.50063 14.6688H5.20732C3.06732 14.6688 1.33398 12.9356 1.33398 10.7956V5.57552C1.33398 5.38885 1.48066 5.24219 1.66732 5.24219H14.334C14.5206 5.24219 14.6674 5.38885 14.6674 5.57552Z" fill="white"/>
</svg>
