<svg width="16" height="16" viewBox="0 0 16 16" fill="none" xmlns="http://www.w3.org/2000/svg">
<path d="M2.60078 3.19922C1.60667 3.19922 0.800781 4.00511 0.800781 4.99922V10.9992C0.800781 11.9933 1.60667 12.7992 2.60078 12.7992H8.60078C9.59486 12.7992 10.4008 11.9933 10.4008 10.9992V4.99922C10.4008 4.00511 9.59486 3.19922 8.60078 3.19922H2.60078Z" fill="#0F172A"/>
<path d="M15.1996 3.79923C15.1996 3.55656 15.0534 3.33778 14.8292 3.24491C14.605 3.15204 14.347 3.20337 14.1754 3.37497L11.7754 5.77497C11.6628 5.88749 11.5996 6.04011 11.5996 6.19924V9.79922C11.5996 9.95834 11.6628 10.111 11.7754 10.2235L14.1754 12.6235C14.347 12.7951 14.605 12.8464 14.8292 12.7535C15.0534 12.6607 15.1996 12.4419 15.1996 12.1992V3.79923Z" fill="#0F172A"/>
</svg>
