<svg width="16" height="16" viewBox="0 0 16 16" fill="none" xmlns="http://www.w3.org/2000/svg">
<path d="M9.81968 3.90927V1.66927C9.81968 1.4826 9.67304 1.33594 9.48632 1.33594H6.51302C6.32635 1.33594 6.17969 1.4826 6.17969 1.66927V3.90927C6.17969 4.09594 6.32635 4.2426 6.51302 4.2426H9.48632C9.67304 4.2426 9.81968 4.09594 9.81968 3.90927Z" fill="white"/>
<path d="M4.83365 1.34843C3.12698 1.4551 1.96031 2.3351 1.52698 3.80176C1.46031 4.02176 1.62031 4.24176 1.84698 4.24176H4.84698C5.03365 4.24176 5.18031 4.0951 5.18031 3.90843V1.68176C5.18031 1.4951 5.02031 1.3351 4.83365 1.34843Z" fill="white"/>
<path d="M11.167 1.34062C12.8737 1.44729 14.0403 2.32729 14.4737 3.79396C14.5403 4.01396 14.3803 4.23396 14.1537 4.23396H11.1537C10.967 4.23396 10.8203 4.08729 10.8203 3.90062V1.67396C10.8203 1.48729 10.9803 1.32729 11.167 1.34062Z" fill="white"/>
<path d="M14.6673 10.4692C14.6673 10.4626 14.6606 10.4559 14.654 10.4492C14.6273 10.4092 14.594 10.3692 14.5606 10.3359C14.554 10.3292 14.5473 10.3159 14.5406 10.3092C14.0006 9.70922 13.2073 9.33594 12.334 9.33594C11.494 9.33594 10.7273 9.68258 10.1806 10.2426C9.65398 10.7826 9.33398 11.5226 9.33398 12.3359C9.33398 12.8959 9.49398 13.4292 9.76734 13.8826C9.91398 14.1292 10.1006 14.3559 10.314 14.5426C10.3273 14.5492 10.334 14.5559 10.3406 14.5626C10.374 14.5959 10.4073 14.6226 10.4473 14.6559C10.4473 14.6559 10.4473 14.6559 10.454 14.6559C10.4606 14.6626 10.4673 14.6692 10.474 14.6692C10.974 15.0892 11.6206 15.3359 12.334 15.3359C13.4273 15.3359 14.3806 14.7492 14.9006 13.8826C15.054 13.6226 15.174 13.3359 15.2473 13.0359C15.3073 12.8092 15.334 12.5759 15.334 12.3359C15.334 11.6292 15.0873 10.9759 14.6673 10.4692ZM13.454 12.8226H12.834V13.4692C12.834 13.7426 12.6073 13.9692 12.334 13.9692C12.0606 13.9692 11.834 13.7426 11.834 13.4692V12.8226H11.214C10.9406 12.8226 10.714 12.5959 10.714 12.3226C10.714 12.0492 10.9406 11.8226 11.214 11.8226H11.834V11.2292C11.834 10.9559 12.0606 10.7292 12.334 10.7292C12.6073 10.7292 12.834 10.9559 12.834 11.2292V11.8226H13.454C13.7273 11.8226 13.954 12.0492 13.954 12.3226C13.954 12.5959 13.734 12.8226 13.454 12.8226Z" fill="white"/>
<path d="M14.6674 5.57552V8.49556C14.6674 8.7422 14.4074 8.9022 14.1874 8.78884C13.6274 8.49556 12.9874 8.33556 12.334 8.33556C11.2606 8.33556 10.214 8.77556 9.46735 9.5422C8.73399 10.2888 8.33399 11.2822 8.33399 12.3356C8.33399 12.8756 8.54735 13.5688 8.81399 14.1488C8.92063 14.3822 8.76063 14.6688 8.50063 14.6688H5.20732C3.06732 14.6688 1.33398 12.9356 1.33398 10.7956V5.57552C1.33398 5.38885 1.48066 5.24219 1.66732 5.24219H14.334C14.5206 5.24219 14.6674 5.38885 14.6674 5.57552Z" fill="white"/>
</svg>
