<svg width="16" height="16" viewBox="0 0 16 16" fill="none" xmlns="http://www.w3.org/2000/svg">
<path d="M14.654 10.4359C14.1073 9.76258 13.274 9.33594 12.334 9.33594C11.6273 9.33594 10.974 9.58258 10.4606 9.99594C9.76734 10.5426 9.33398 11.3892 9.33398 12.3359C9.33398 12.8959 9.49398 13.4292 9.76734 13.8826C9.94734 14.1826 10.174 14.4426 10.4406 14.6559H10.4473C10.9606 15.0826 11.6206 15.3359 12.334 15.3359C13.094 15.3359 13.7806 15.0559 14.3073 14.5892C14.5406 14.3892 14.7406 14.1492 14.9006 13.8826C15.174 13.4292 15.334 12.8959 15.334 12.3359C15.334 11.6159 15.0806 10.9492 14.654 10.4359ZM13.8406 11.9626L12.2406 13.4426C12.1473 13.5292 12.0206 13.5759 11.9006 13.5759C11.774 13.5759 11.6473 13.5292 11.5473 13.4292L10.8073 12.6892C10.614 12.4959 10.614 12.1759 10.8073 11.9826C11.0006 11.7892 11.3206 11.7892 11.514 11.9826L11.914 12.3826L13.1606 11.2292C13.3606 11.0426 13.6806 11.0559 13.8673 11.2559C14.0606 11.4626 14.0473 11.7759 13.8406 11.9626Z" fill="white"/>
<path d="M9.81968 3.90927V1.66927C9.81968 1.4826 9.67304 1.33594 9.48632 1.33594H6.51302C6.32635 1.33594 6.17969 1.4826 6.17969 1.66927V3.90927C6.17969 4.09594 6.32635 4.2426 6.51302 4.2426H9.48632C9.67304 4.2426 9.81968 4.09594 9.81968 3.90927Z" fill="white"/>
<path d="M4.83365 1.34843C3.12698 1.4551 1.96031 2.3351 1.52698 3.80176C1.46031 4.02176 1.62031 4.24176 1.84698 4.24176H4.84698C5.03365 4.24176 5.18031 4.0951 5.18031 3.90843V1.68176C5.18031 1.4951 5.02031 1.3351 4.83365 1.34843Z" fill="white"/>
<path d="M11.167 1.34062C12.8737 1.44729 14.0403 2.32729 14.4737 3.79396C14.5403 4.01396 14.3803 4.23396 14.1537 4.23396H11.1537C10.967 4.23396 10.8203 4.08729 10.8203 3.90062V1.67396C10.8203 1.48729 10.9803 1.32729 11.167 1.34062Z" fill="white"/>
<path d="M14.6674 5.57552V8.49556C14.6674 8.7422 14.4074 8.9022 14.1874 8.78884C13.6274 8.49556 12.9874 8.33556 12.334 8.33556C11.2606 8.33556 10.214 8.77556 9.46735 9.5422C8.73399 10.2888 8.33399 11.2822 8.33399 12.3356C8.33399 12.8756 8.54735 13.5688 8.81399 14.1488C8.92063 14.3822 8.76063 14.6688 8.50063 14.6688H5.20732C3.06732 14.6688 1.33398 12.9356 1.33398 10.7956V5.57552C1.33398 5.38885 1.48066 5.24219 1.66732 5.24219H14.334C14.5206 5.24219 14.6674 5.38885 14.6674 5.57552Z" fill="white"/>
</svg>
