<svg width="16" height="16" viewBox="0 0 16 16" fill="none" xmlns="http://www.w3.org/2000/svg">
<path d="M7.50066 5.24219H1.33398V10.7956C1.33398 10.8356 1.33398 10.8756 1.34066 10.9088H7.50066V5.24219Z" fill="white"/>
<path d="M5.12695 4.2426H7.50027V1.33594H5.14695V4.1626C5.14695 4.18927 5.13362 4.21594 5.12695 4.2426Z" fill="white"/>
<path d="M4.14659 4.16141V1.44141C2.66659 1.74807 1.69992 2.73474 1.41992 4.24141H4.15992C4.15326 4.21474 4.14659 4.18807 4.14659 4.16141Z" fill="white"/>
<path d="M10.8134 1.33594H8.5V4.2426H10.8134V1.33594Z" fill="white"/>
<path d="M11.8066 4.24026H14.58C14.3 2.72026 13.32 1.72693 11.8133 1.43359V4.22026C11.8133 4.22693 11.8066 4.23359 11.8066 4.24026Z" fill="white"/>
<path d="M11.8125 14.5662C13.2725 14.2796 14.2325 13.3462 14.5459 11.9062H11.8125V14.5662Z" fill="white"/>
<path d="M10.8134 11.9062H8.5V14.6662H10.8134V11.9062Z" fill="white"/>
<path d="M8.5 10.9088H14.66C14.6666 10.8756 14.6666 10.8356 14.6666 10.7956V5.24219H8.5V10.9088Z" fill="white"/>
<path d="M7.4998 11.9062H5.14648V14.6662H7.4998V11.9062Z" fill="white"/>
<path d="M1.45312 11.9062C1.76645 13.3329 2.71313 14.2662 4.14645 14.5596V11.9062H1.45312Z" fill="white"/>
</svg>
