<svg width="16" height="16" viewBox="0 0 16 16" fill="none" xmlns="http://www.w3.org/2000/svg">
<path d="M4.24066 5.1875H1.33398V7.50083H4.24066V5.1875Z" fill="white"/>
<path d="M4.24027 4.19521V1.42188C2.72027 1.70187 1.72693 2.68188 1.43359 4.18855H4.22027C4.22693 4.18855 4.23359 4.19521 4.24027 4.19521Z" fill="white"/>
<path d="M4.24066 10.8734V8.5H1.33398V10.8534H4.16066C4.18732 10.8534 4.21398 10.8666 4.24066 10.8734Z" fill="white"/>
<path d="M14.5662 4.18645C14.2796 2.72645 13.3462 1.76645 11.9062 1.45312V4.18645H14.5662Z" fill="white"/>
<path d="M10.907 7.5026V1.3426C10.8736 1.33594 10.8336 1.33594 10.7936 1.33594H5.24023V7.5026H10.907Z" fill="white"/>
<path d="M14.6662 8.5H11.9062V10.8534H14.6662V8.5Z" fill="white"/>
<path d="M11.9062 14.5449C13.3329 14.2316 14.2663 13.2849 14.5596 11.8516H11.9062V14.5449Z" fill="white"/>
<path d="M4.15945 11.8531H1.43945C1.74613 13.3331 2.73279 14.2998 4.23945 14.5798V11.8398C4.21279 11.8465 4.18613 11.8531 4.15945 11.8531Z" fill="white"/>
<path d="M14.6662 5.1875H11.9062V7.50083H14.6662V5.1875Z" fill="white"/>
<path d="M5.24023 8.5V14.6666H10.7936C10.8336 14.6666 10.8736 14.6666 10.907 14.66V8.5H5.24023Z" fill="white"/>
</svg>
