<svg width="16" height="16" viewBox="0 0 16 16" fill="none" xmlns="http://www.w3.org/2000/svg">
<path d="M13.0073 3.9026L9.04727 1.61594C8.40055 1.2426 7.60059 1.2426 6.94726 1.61594L2.99394 3.9026C2.34727 4.27594 1.94727 4.96928 1.94727 5.7226V10.2826C1.94727 11.0292 2.34727 11.7226 2.99394 12.1026L6.95392 14.3892C7.60059 14.7626 8.40055 14.7626 9.05391 14.3892L13.0139 12.1026C13.6606 11.7292 14.0606 11.036 14.0606 10.2826V5.7226C14.0539 4.96928 13.6539 4.2826 13.0073 3.9026ZM9.50055 8.93596L8.80727 9.33596L8.11391 9.73596C7.22726 10.2492 6.5006 9.82924 6.5006 8.8026V8.0026V7.2026C6.5006 6.17594 7.22726 5.75594 8.11391 6.26927L8.80727 6.66927L9.50055 7.06927C10.3873 7.5826 10.3873 8.4226 9.50055 8.93596Z" fill="white"/>
</svg>
