<svg width="16" height="16" viewBox="0 0 16 16" fill="none" xmlns="http://www.w3.org/2000/svg">
<path opacity="0.4" d="M11.827 5.04688C11.8337 5.09355 11.8337 5.14688 11.827 5.19355C11.827 5.14688 11.8203 5.10021 11.8203 5.05355L11.827 5.04688Z" fill="white"/>
<path d="M11.5206 4.37073L2.55391 13.3374C1.62057 12.744 1.25391 11.684 1.25391 10.664V5.33073C1.25391 3.05073 2.14057 2.16406 4.42057 2.16406H8.42062C10.3473 2.16406 11.2739 2.7974 11.5206 4.37073Z" fill="white"/>
<path d="M14.2674 1.48594C14.0674 1.28594 13.7406 1.28594 13.5406 1.48594L1.23398 13.7926C1.03398 13.9926 1.03398 14.3193 1.23398 14.5193C1.33398 14.6126 1.46732 14.666 1.59398 14.666C1.72732 14.666 1.85398 14.6126 1.95398 14.5126L14.2674 2.20594C14.4674 2.00594 14.4674 1.68594 14.2674 1.48594Z" fill="white"/>
<path d="M14.9195 5.58828V10.4149C14.9195 11.3683 14.4528 11.7483 14.1862 11.8883C14.0595 11.9549 13.8595 12.0283 13.6128 12.0283C13.3262 12.0283 12.9728 11.9349 12.5595 11.6417L11.5728 10.9483C11.5262 12.4217 11.0595 13.2617 9.99945 13.6149C9.57281 13.7683 9.04617 13.8349 8.41281 13.8349H4.41279C4.25279 13.8349 4.09945 13.8283 3.93945 13.8083L9.99945 7.75496L13.7662 3.98828C13.9395 4.00161 14.0795 4.05495 14.1862 4.11495C14.4528 4.25495 14.9195 4.63495 14.9195 5.58828Z" fill="white"/>
</svg>
