<svg width="16" height="16" viewBox="0 0 16 16" fill="none" xmlns="http://www.w3.org/2000/svg">
<path d="M10.794 1.33594H5.20732C2.78066 1.33594 1.33398 2.7826 1.33398 5.20927V10.7892C1.33398 13.2226 2.78066 14.6692 5.20732 14.6692H10.7874C13.214 14.6692 14.6606 13.2226 14.6606 10.796V5.20927C14.6674 2.7826 13.2206 1.33594 10.794 1.33594ZM9.77399 9.15596L8.92063 9.64924L8.06735 10.1426C6.96732 10.776 6.06732 10.256 6.06732 8.98924V8.0026V7.01594C6.06732 5.7426 6.96732 5.22927 8.06735 5.8626L8.92063 6.35594L9.77399 6.84927C10.874 7.4826 10.874 8.5226 9.77399 9.15596Z" fill="white"/>
</svg>
