<svg width="16" height="16" viewBox="0 0 16 16" fill="none" xmlns="http://www.w3.org/2000/svg">
<path d="M14.0994 4.11073C13.826 3.96406 13.2526 3.81073 12.4726 4.3574L11.4926 5.05073C11.4194 2.9774 10.5194 2.16406 8.33265 2.16406H4.33268C2.05268 2.16406 1.16602 3.05073 1.16602 5.33073V10.664C1.16602 12.1974 1.99934 13.8308 4.33268 13.8308H8.33265C10.5194 13.8308 11.4194 13.0174 11.4926 10.944L12.4726 11.6374C12.886 11.9308 13.246 12.024 13.5326 12.024C13.7794 12.024 13.9726 11.9508 14.0994 11.884C14.3726 11.744 14.8326 11.364 14.8326 10.4108V5.58406C14.8326 4.63073 14.3726 4.25073 14.0994 4.11073ZM7.33268 7.58406C6.64602 7.58406 6.07934 7.02406 6.07934 6.33073C6.07934 5.6374 6.64602 5.0774 7.33268 5.0774C8.01937 5.0774 8.58601 5.6374 8.58601 6.33073C8.58601 7.02406 8.01937 7.58406 7.33268 7.58406Z" fill="white"/>
</svg>
