<svg width="16" height="16" viewBox="0 0 16 16" fill="none" xmlns="http://www.w3.org/2000/svg">
<path d="M3.39961 1.60156C2.4055 1.60156 1.59961 2.40745 1.59961 3.40156V5.00156C1.59961 5.33293 1.86824 5.60156 2.19961 5.60156C2.53098 5.60156 2.79961 5.33293 2.79961 5.00156V3.40156C2.79961 3.07019 3.06824 2.80156 3.39961 2.80156H4.99961C5.33098 2.80156 5.59961 2.53293 5.59961 2.20156C5.59961 1.87019 5.33098 1.60156 4.99961 1.60156H3.39961Z" fill="#0F172A"/>
<path d="M11.0004 1.60156C10.669 1.60156 10.4004 1.87019 10.4004 2.20156C10.4004 2.53293 10.669 2.80156 11.0004 2.80156H12.6004C12.9318 2.80156 13.2004 3.07019 13.2004 3.40156V5.00156C13.2004 5.33293 13.469 5.60156 13.8004 5.60156C14.1318 5.60156 14.4004 5.33293 14.4004 5.00156V3.40156C14.4004 2.40745 13.5945 1.60156 12.6004 1.60156H11.0004Z" fill="#0F172A"/>
<path d="M2.79961 10.9984C2.79961 10.6671 2.53098 10.3984 2.19961 10.3984C1.86824 10.3984 1.59961 10.6671 1.59961 10.9984V12.5984C1.59961 13.5925 2.4055 14.3984 3.39961 14.3984H4.99961C5.33098 14.3984 5.59961 14.1298 5.59961 13.7984C5.59961 13.4671 5.33098 13.1984 4.99961 13.1984H3.39961C3.06824 13.1984 2.79961 12.9298 2.79961 12.5984V10.9984Z" fill="#0F172A"/>
<path d="M14.4004 10.9984C14.4004 10.6671 14.1318 10.3984 13.8004 10.3984C13.469 10.3984 13.2004 10.6671 13.2004 10.9984V12.5984C13.2004 12.9298 12.9318 13.1984 12.6004 13.1984H11.0004C10.669 13.1984 10.4004 13.4671 10.4004 13.7984C10.4004 14.1298 10.669 14.3984 11.0004 14.3984H12.6004C13.5945 14.3984 14.4004 13.5925 14.4004 12.5984V10.9984Z" fill="#0F172A"/>
<path d="M5.59961 8.00156C5.59961 6.67608 6.67413 5.60156 7.99961 5.60156C9.32513 5.60156 10.3996 6.67608 10.3996 8.00156C10.3996 9.32708 9.32513 10.4016 7.99961 10.4016C6.67413 10.4016 5.59961 9.32708 5.59961 8.00156Z" fill="#0F172A"/>
</svg>
