<svg width="16" height="16" viewBox="0 0 16 16" fill="none" xmlns="http://www.w3.org/2000/svg">
<path d="M8.00063 1.33594C4.32066 1.33594 1.33398 4.3226 1.33398 8.0026C1.33398 11.6826 4.32066 14.6692 8.00063 14.6692C11.6806 14.6692 14.6674 11.6826 14.6674 8.0026C14.6674 4.3226 11.6806 1.33594 8.00063 1.33594ZM4.50066 9.42924C4.50066 9.7026 4.27398 9.92924 4.00066 9.92924C3.72732 9.92924 3.50066 9.7026 3.50066 9.42924V6.57594C3.50066 6.3026 3.72732 6.07594 4.00066 6.07594C4.27398 6.07594 4.50066 6.3026 4.50066 6.57594V9.42924ZM6.50066 10.3826C6.50066 10.656 6.27398 10.8826 6.00066 10.8826C5.72732 10.8826 5.50066 10.656 5.50066 10.3826V5.6226C5.50066 5.34927 5.72732 5.1226 6.00066 5.1226C6.27398 5.1226 6.50066 5.34927 6.50066 5.6226V10.3826ZM8.50063 11.336C8.50063 11.6092 8.27399 11.836 8.00063 11.836C7.72732 11.836 7.50066 11.6092 7.50066 11.336V4.66927C7.50066 4.39594 7.72732 4.16927 8.00063 4.16927C8.27399 4.16927 8.50063 4.39594 8.50063 4.66927V11.336ZM10.5006 10.3826C10.5006 10.656 10.274 10.8826 10.0006 10.8826C9.72735 10.8826 9.50063 10.656 9.50063 10.3826V5.6226C9.50063 5.34927 9.72735 5.1226 10.0006 5.1226C10.274 5.1226 10.5006 5.34927 10.5006 5.6226V10.3826ZM12.5006 9.42924C12.5006 9.7026 12.274 9.92924 12.0006 9.92924C11.7274 9.92924 11.5006 9.7026 11.5006 9.42924V6.57594C11.5006 6.3026 11.7274 6.07594 12.0006 6.07594C12.274 6.07594 12.5006 6.3026 12.5006 6.57594V9.42924Z" fill="white"/>
</svg>
