<svg width="16" height="16" viewBox="0 0 16 16" fill="none" xmlns="http://www.w3.org/2000/svg">
<path d="M14.6666 8.5H12C11.7266 8.5 11.5 8.27336 11.5 8C11.5 7.72666 11.7266 7.5 12 7.5H14.6666C14.94 7.5 15.1666 7.72666 15.1666 8C15.1666 8.27336 14.94 8.5 14.6666 8.5Z" fill="white"/>
<path d="M9.34735 2.52111C8.60063 2.10779 7.64732 2.21445 6.67398 2.82111L4.72732 4.04111C4.59398 4.12111 4.44066 4.16779 4.28732 4.16779H3.66732H3.33398C1.72066 4.16779 0.833984 5.05445 0.833984 6.66779V9.33444C0.833984 10.9478 1.72066 11.8344 3.33398 11.8344H3.66732H4.28732C4.44066 11.8344 4.59398 11.8811 4.72732 11.9611L6.67398 13.1811C7.26066 13.5478 7.83398 13.7278 8.36735 13.7278C8.71399 13.7278 9.04735 13.6478 9.34735 13.4811C10.0874 13.0678 10.5006 12.2078 10.5006 11.0611V4.94111C10.5006 3.79445 10.0874 2.93445 9.34735 2.52111Z" fill="white"/>
</svg>
