<svg width="16" height="16" viewBox="0 0 16 16" fill="none" xmlns="http://www.w3.org/2000/svg">
<path d="M12.8869 11.1695C12.7802 11.1695 12.6802 11.1361 12.5869 11.0695C12.3669 10.9028 12.3202 10.5895 12.4869 10.3695C13.5336 8.97612 13.5336 7.02947 12.4869 5.63612C12.3202 5.41612 12.3669 5.10279 12.5869 4.93612C12.8069 4.76945 13.1202 4.81612 13.2869 5.03612C14.6002 6.7828 14.6002 9.22284 13.2869 10.9695C13.1936 11.1028 13.0402 11.1695 12.8869 11.1695Z" fill="white"/>
<path d="M10.2341 2.52111C9.48735 2.10779 8.53407 2.21445 7.56072 2.82111L5.61404 4.04111C5.4807 4.12111 5.32737 4.16779 5.17404 4.16779H4.55404H4.2207C2.60737 4.16779 1.7207 5.05445 1.7207 6.66779V9.33444C1.7207 10.9478 2.60737 11.8344 4.2207 11.8344H4.55404H5.17404C5.32737 11.8344 5.4807 11.8811 5.61404 11.9611L7.56072 13.1811C8.14735 13.5478 8.72071 13.7278 9.25407 13.7278C9.60071 13.7278 9.93407 13.6478 10.2341 13.4811C10.9741 13.0678 11.3874 12.2078 11.3874 11.0611V4.94111C11.3874 3.79445 10.9741 2.93445 10.2341 2.52111Z" fill="white"/>
</svg>
