<svg width="16" height="16" viewBox="0 0 16 16" fill="none" xmlns="http://www.w3.org/2000/svg">
<path d="M12.0002 11.1695C11.8935 11.1695 11.7935 11.1361 11.7002 11.0695C11.4802 10.9028 11.4335 10.5895 11.6002 10.3695C12.6469 8.97612 12.6469 7.02947 11.6002 5.63612C11.4335 5.41612 11.4802 5.10279 11.7002 4.93612C11.9202 4.76945 12.2335 4.81612 12.4002 5.03612C13.7069 6.7828 13.7069 9.22284 12.4002 10.9695C12.3002 11.1028 12.1535 11.1695 12.0002 11.1695Z" fill="white"/>
<path d="M13.2209 12.8309C13.1142 12.8309 13.0142 12.7976 12.9209 12.7309C12.7009 12.5643 12.6542 12.2509 12.8209 12.0309C14.6009 9.65763 14.6009 6.33758 12.8209 3.96424C12.6542 3.74424 12.7009 3.43091 12.9209 3.26424C13.1409 3.09758 13.4542 3.14424 13.6209 3.36424C15.6676 6.09091 15.6676 9.90427 13.6209 12.6309C13.5276 12.7643 13.3742 12.8309 13.2209 12.8309Z" fill="white"/>
<path d="M9.34735 2.52111C8.60063 2.10779 7.64732 2.21445 6.67398 2.82111L4.72732 4.04111C4.59398 4.12111 4.44066 4.16779 4.28732 4.16779H3.66732H3.33398C1.72066 4.16779 0.833984 5.05445 0.833984 6.66779V9.33444C0.833984 10.9478 1.72066 11.8344 3.33398 11.8344H3.66732H4.28732C4.44066 11.8344 4.59398 11.8811 4.72732 11.9611L6.67398 13.1811C7.26066 13.5478 7.83398 13.7278 8.36735 13.7278C8.71399 13.7278 9.04735 13.6478 9.34735 13.4811C10.0874 13.0678 10.5006 12.2078 10.5006 11.0611V4.94111C10.5006 3.79445 10.0874 2.93445 9.34735 2.52111Z" fill="white"/>
</svg>
