<svg width="16" height="16" viewBox="0 0 16 16" fill="none" xmlns="http://www.w3.org/2000/svg">
<path d="M15.0203 8.94908L14.0536 7.9824L14.987 7.04906C15.1803 6.85574 15.1803 6.53573 14.987 6.34239C14.7936 6.14906 14.4736 6.14906 14.2803 6.34239L13.347 7.27574L12.3803 6.30906C12.187 6.11573 11.867 6.11573 11.6736 6.30906C11.4803 6.50239 11.4803 6.8224 11.6736 7.01574L12.6403 7.9824L11.647 8.97572C11.4536 9.16908 11.4536 9.48908 11.647 9.68244C11.747 9.78244 11.8736 9.82908 12.0003 9.82908C12.127 9.82908 12.2536 9.78244 12.3536 9.68244L13.347 8.68908L14.3136 9.65572C14.4136 9.75572 14.5403 9.80244 14.667 9.80244C14.7936 9.80244 14.9203 9.75572 15.0203 9.65572C15.2136 9.46244 15.2136 9.14908 15.0203 8.94908Z" fill="white"/>
<path d="M9.34735 2.52111C8.60063 2.10779 7.64732 2.21445 6.67398 2.82111L4.72732 4.04111C4.59398 4.12111 4.44066 4.16779 4.28732 4.16779H3.66732H3.33398C1.72066 4.16779 0.833984 5.05445 0.833984 6.66779V9.33444C0.833984 10.9478 1.72066 11.8344 3.33398 11.8344H3.66732H4.28732C4.44066 11.8344 4.59398 11.8811 4.72732 11.9611L6.67398 13.1811C7.26066 13.5478 7.83398 13.7278 8.36735 13.7278C8.71399 13.7278 9.04735 13.6478 9.34735 13.4811C10.0874 13.0678 10.5006 12.2078 10.5006 11.0611V4.94111C10.5006 3.79445 10.0874 2.93445 9.34735 2.52111Z" fill="white"/>
</svg>
