<svg width="16" height="16" viewBox="0 0 16 16" fill="none" xmlns="http://www.w3.org/2000/svg">
<path d="M12.0002 11.1669C11.8935 11.1669 11.7935 11.1335 11.7002 11.0669C11.4802 10.9002 11.4335 10.5869 11.6002 10.3669C12.4402 9.24688 12.6202 7.7602 12.0802 6.47355C11.9735 6.22021 12.0935 5.92688 12.3469 5.82021C12.6002 5.71355 12.8935 5.83355 13.0002 6.08688C13.6802 7.7002 13.4469 9.57352 12.4002 10.9735C12.3002 11.1002 12.1535 11.1669 12.0002 11.1669Z" fill="white"/>
<path d="M13.2209 12.8315C13.1142 12.8315 13.0142 12.7982 12.9209 12.7315C12.7009 12.5648 12.6542 12.2515 12.8209 12.0315C14.2476 10.1315 14.5609 7.58484 13.6409 5.39151C13.5342 5.13818 13.6542 4.84484 13.9076 4.73818C14.1609 4.63151 14.4542 4.75151 14.5609 5.00484C15.6209 7.52484 15.2609 10.4448 13.6209 12.6315C13.5276 12.7648 13.3742 12.8315 13.2209 12.8315Z" fill="white"/>
<path d="M9.36095 8.64132C9.78095 8.22132 10.501 8.52132 10.501 9.11468V11.068C10.501 12.2147 10.0877 13.0747 9.34767 13.488C9.04767 13.6547 8.71431 13.7347 8.36767 13.7347C7.83432 13.7347 7.26098 13.5547 6.67432 13.188L6.24763 12.9213C5.88763 12.6947 5.82763 12.188 6.12763 11.888L9.36095 8.64132Z" fill="white"/>
<path d="M14.514 1.48594C14.314 1.28594 13.9874 1.28594 13.7874 1.48594L10.4874 4.78594C10.4474 3.71927 10.0474 2.91927 9.34063 2.52594C8.59399 2.11261 7.64066 2.21927 6.66732 2.82594L4.72732 4.03927C4.59398 4.11927 4.44066 4.16594 4.28732 4.16594H3.66732H3.33398C1.72066 4.16594 0.833984 5.05261 0.833984 6.66594V9.3326C0.833984 10.946 1.72066 11.8326 3.33398 11.8326H3.44066L1.48066 13.7926C1.28066 13.9926 1.28066 14.3193 1.48066 14.5193C1.58732 14.6126 1.71398 14.666 1.84732 14.666C1.98066 14.666 2.10732 14.6126 2.20732 14.5126L14.514 2.20594C14.7206 2.00594 14.7206 1.68594 14.514 1.48594Z" fill="white"/>
</svg>
