<svg width="16" height="16" viewBox="0 0 16 16" fill="none" xmlns="http://www.w3.org/2000/svg">
<path d="M11.6794 2.52111C10.9326 2.10779 9.97937 2.21445 9.00601 2.82111L7.05934 4.04111C6.92602 4.12111 6.77268 4.16779 6.61934 4.16779H5.99934H5.66602C4.05268 4.16779 3.16602 5.05445 3.16602 6.66779V9.33444C3.16602 10.9478 4.05268 11.8344 5.66602 11.8344H5.99934H6.61934C6.77268 11.8344 6.92602 11.8811 7.05934 11.9611L9.00601 13.1811C9.59265 13.5478 10.166 13.7278 10.6994 13.7278C11.046 13.7278 11.3794 13.6478 11.6794 13.4811C12.4194 13.0678 12.8326 12.2078 12.8326 11.0611V4.94111C12.8326 3.79445 12.4194 2.93445 11.6794 2.52111Z" fill="white"/>
</svg>
