<svg width="16" height="16" viewBox="0 0 16 16" fill="none" xmlns="http://www.w3.org/2000/svg">
<path d="M14.6666 7.4974H13.8334V6.66406C13.8334 6.39073 13.6066 6.16406 13.3334 6.16406C13.06 6.16406 12.8334 6.39073 12.8334 6.66406V7.4974H12C11.7266 7.4974 11.5 7.72406 11.5 7.9974C11.5 8.27076 11.7266 8.4974 12 8.4974H12.8334V9.33076C12.8334 9.60404 13.06 9.83076 13.3334 9.83076C13.6066 9.83076 13.8334 9.60404 13.8334 9.33076V8.4974H14.6666C14.94 8.4974 15.1666 8.27076 15.1666 7.9974C15.1666 7.72406 14.94 7.4974 14.6666 7.4974Z" fill="white"/>
<path d="M9.34735 2.52111C8.60063 2.10779 7.64732 2.21445 6.67398 2.82111L4.72732 4.04111C4.59398 4.12111 4.44066 4.16779 4.28732 4.16779H3.66732H3.33398C1.72066 4.16779 0.833984 5.05445 0.833984 6.66779V9.33444C0.833984 10.9478 1.72066 11.8344 3.33398 11.8344H3.66732H4.28732C4.44066 11.8344 4.59398 11.8811 4.72732 11.9611L6.67398 13.1811C7.26066 13.5478 7.83398 13.7278 8.36735 13.7278C8.71399 13.7278 9.04735 13.6478 9.34735 13.4811C10.0874 13.0678 10.5006 12.2078 10.5006 11.0611V4.94111C10.5006 3.79445 10.0874 2.93445 9.34735 2.52111Z" fill="white"/>
</svg>
