<svg width="16" height="16" viewBox="0 0 16 16" fill="none" xmlns="http://www.w3.org/2000/svg">
<path d="M7.99922 15.1658C7.83254 15.1658 7.67254 15.0791 7.57922 14.9391L1.55255 5.60577C1.40589 5.37244 1.47255 5.06577 1.69922 4.91243C1.93255 4.76577 2.23922 4.82577 2.39256 5.05909L7.99254 13.7391L13.5726 5.05909C13.7192 4.82577 14.0326 4.75909 14.2658 4.90576C14.4992 5.05242 14.5658 5.36577 14.4192 5.59909L8.41921 14.9324C8.32585 15.0791 8.17257 15.1658 7.99922 15.1658Z" fill="white"/>
<path d="M2.61316 2.66406H3.82648C3.93982 2.66406 4.03983 2.7174 4.10649 2.81073L7.73315 8.24404C7.86647 8.44404 8.15312 8.44404 8.28648 8.24404L11.9131 2.81073C11.9731 2.7174 12.0798 2.66406 12.1931 2.66406H13.4065C13.6731 2.66406 13.8265 2.95739 13.6865 3.17739L8.29984 11.564C8.16648 11.7708 7.87315 11.7708 7.73981 11.564L2.35315 3.17739C2.18649 2.95739 2.3465 2.66406 2.61316 2.66406Z" fill="white"/>
<path d="M6.28098 2.33594C5.98098 2.22927 5.71431 2.56927 5.89431 2.83594L7.72764 5.58927C7.86097 5.78927 8.14766 5.78927 8.28094 5.58927L10.1143 2.84261C10.2943 2.57595 10.0277 2.23595 9.72766 2.34261L8.80766 2.66927V1.66927C8.80766 1.4826 8.66094 1.33594 8.4743 1.33594H7.54097C7.35431 1.33594 7.20764 1.4826 7.20764 1.66927V2.66927L6.28098 2.33594Z" fill="white"/>
</svg>
