<svg width="16" height="16" viewBox="0 0 16 16" fill="none" xmlns="http://www.w3.org/2000/svg">
<path d="M0.800781 3.40135C1.30218 3.02473 1.92542 2.80156 2.60078 2.80156H13.4008C14.0761 2.80156 14.6994 3.02473 15.2008 3.40135C15.2007 2.40733 14.3949 1.60156 13.4008 1.60156H2.60078C1.60674 1.60156 0.800901 2.40733 0.800781 3.40135Z" fill="#0F172A"/>
<path d="M0.800781 5.79978C1.30218 5.42317 1.92542 5.2 2.60078 5.2H13.4008C14.0761 5.2 14.6994 5.42317 15.2008 5.79978C15.2007 4.80577 14.3949 4 13.4008 4H2.60078C1.60674 4 0.800901 4.80577 0.800781 5.79978Z" fill="#0F172A"/>
<path d="M5.60078 6.39844C6.04261 6.39844 6.40078 6.75661 6.40078 7.19844C6.40078 8.08212 7.11713 8.79844 8.00078 8.79844C8.88446 8.79844 9.60078 8.08212 9.60078 7.19844C9.60078 6.75661 9.95894 6.39844 10.4008 6.39844H13.4008C14.3949 6.39844 15.2008 7.20433 15.2008 8.19844V12.5984C15.2008 13.5925 14.3949 14.3984 13.4008 14.3984H2.60078C1.60667 14.3984 0.800781 13.5925 0.800781 12.5984V8.19844C0.800781 7.20433 1.60667 6.39844 2.60078 6.39844H5.60078Z" fill="#0F172A"/>
</svg>
