<svg width="16" height="16" viewBox="0 0 16 16" fill="none" xmlns="http://www.w3.org/2000/svg">
<path d="M7.96013 1.47192L6.35347 5.21192H4.7468C4.48013 5.21192 4.22013 5.23192 3.9668 5.28525L4.63347 3.68525L4.66013 3.62525L4.70013 3.51858C4.72013 3.47192 4.73347 3.43192 4.75347 3.39858C5.5268 1.60525 6.39347 1.04525 7.96013 1.47192Z" fill="white"/>
<path d="M12.4867 5.39302L12.4734 5.38635C12.0734 5.27302 11.6667 5.21302 11.2534 5.21302H7.08008L8.58007 1.72635L8.60007 1.67969C8.69343 1.71302 8.79343 1.75969 8.89343 1.79302L10.3667 2.41302C11.1867 2.75302 11.7601 3.10635 12.1134 3.53302C12.1734 3.61302 12.2267 3.68635 12.2801 3.77302C12.3401 3.86635 12.3867 3.95969 12.4134 4.05969C12.4401 4.11969 12.4601 4.17302 12.4734 4.23302C12.5734 4.57302 12.5801 4.95969 12.4867 5.39302Z" fill="white"/>
<path d="M12.1941 6.34427C11.8941 6.25761 11.5808 6.21094 11.2541 6.21094H4.74747C4.29414 6.21094 3.86747 6.29761 3.46747 6.47094C2.30747 6.97094 1.49414 8.12428 1.49414 9.46428V10.7643C1.49414 10.9243 1.50747 11.0776 1.52747 11.2376C1.67414 13.3576 2.80747 14.4909 4.92747 14.6309C5.0808 14.6509 5.23414 14.6643 5.4008 14.6643H10.6008C13.0674 14.6643 14.3674 13.4909 14.4941 11.1576C14.5008 11.0309 14.5074 10.8976 14.5074 10.7643V9.46428C14.5074 7.99094 13.5274 6.75094 12.1941 6.34427ZM9.66743 11.1643H6.33414C6.0608 11.1643 5.83414 10.9376 5.83414 10.6643C5.83414 10.3909 6.0608 10.1643 6.33414 10.1643H9.66743C9.94079 10.1643 10.1674 10.3909 10.1674 10.6643C10.1674 10.9376 9.94079 11.1643 9.66743 11.1643Z" fill="white"/>
</svg>
