<svg width="16" height="16" viewBox="0 0 16 16" fill="none" xmlns="http://www.w3.org/2000/svg">
<path d="M14.334 8.33594H12.6673C11.934 8.33594 11.334 8.93594 11.334 9.66922C11.334 10.4026 11.934 11.0026 12.6673 11.0026H14.334C14.5206 11.0026 14.6673 10.8559 14.6673 10.6692V8.66922C14.6673 8.48258 14.5206 8.33594 14.334 8.33594Z" fill="white"/>
<path d="M3.33268 10C2.53268 10 1.81935 10.3534 1.33268 10.9066C0.919345 11.38 0.666016 11.9934 0.666016 12.6666C0.666016 13.1666 0.806017 13.64 1.05268 14.04C1.51268 14.8134 2.35935 15.3334 3.33268 15.3334C4.00602 15.3334 4.61935 15.0866 5.08602 14.6666C5.29268 14.4934 5.47268 14.28 5.61268 14.04C5.85935 13.64 5.99935 13.1666 5.99935 12.6666C5.99935 11.1934 4.80602 10 3.33268 10ZM4.39935 13.72C4.29935 13.82 4.17268 13.8666 4.04602 13.8666C3.91935 13.8666 3.79268 13.82 3.69268 13.72L3.33935 13.3666L2.97268 13.7334C2.87268 13.8334 2.74602 13.88 2.61935 13.88C2.49268 13.88 2.36602 13.8334 2.26602 13.7334C2.07268 13.54 2.07268 13.22 2.26602 13.0266L2.63268 12.66L2.27935 12.3066C2.08602 12.1134 2.08602 11.7934 2.27935 11.6C2.47268 11.4066 2.79268 11.4066 2.98602 11.6L3.33935 11.9534L3.67268 11.62C3.86602 11.4266 4.18602 11.4266 4.37935 11.62C4.57268 11.8134 4.57268 12.1334 4.37935 12.3266L4.04602 12.66L4.39935 13.0134C4.59268 13.2066 4.59268 13.52 4.39935 13.72Z" fill="white"/>
<path d="M11.0208 3.60141C11.2208 3.79474 11.0541 4.09474 10.7741 4.09474L5.25412 4.08807C4.93412 4.08807 4.77412 3.70141 5.00079 3.47474L6.16745 2.30141C7.15411 1.32141 8.74742 1.32141 9.73414 2.30141L10.9941 3.57474C11.0008 3.58141 11.0141 3.59474 11.0208 3.60141Z" fill="white"/>
<path d="M14.5796 12.4374C14.173 13.8108 12.9996 14.664 11.3996 14.664H7.06628C6.80628 14.664 6.63959 14.3774 6.74628 14.1374C6.94628 13.6708 7.07295 13.144 7.07295 12.664C7.07295 10.644 5.42625 8.9974 3.40625 8.9974C2.89959 8.9974 2.40625 9.10404 1.95291 9.30404C1.70625 9.41076 1.40625 9.24404 1.40625 8.9774V7.9974C1.40625 6.18406 2.49959 4.9174 4.19959 4.70406C4.36625 4.6774 4.54625 4.66406 4.73291 4.66406H11.3996C11.573 4.66406 11.7396 4.67073 11.8996 4.6974C13.2463 4.85073 14.2196 5.67073 14.5796 6.89073C14.6463 7.11073 14.4863 7.33073 14.2596 7.33073H12.733C11.2863 7.33073 10.1396 8.65076 10.453 10.1508C10.673 11.244 11.6863 11.9974 12.7996 11.9974H14.2596C14.493 11.9974 14.6463 12.224 14.5796 12.4374Z" fill="white"/>
</svg>
