<svg width="16" height="16" viewBox="0 0 16 16" fill="none" xmlns="http://www.w3.org/2000/svg">
<path d="M13.9806 10.7226C13.8206 12.5026 12.534 13.6692 10.6674 13.6692H4.66732C2.82732 13.6692 1.33398 12.176 1.33398 10.336V5.66927C1.33398 3.85594 2.42732 2.58927 4.12732 2.37594C4.30066 2.34927 4.48066 2.33594 4.66732 2.33594H10.6674C10.8406 2.33594 11.0074 2.3426 11.1674 2.36927C12.7606 2.55594 13.8406 3.66927 13.9806 5.2826C14.0006 5.47594 13.8406 5.63594 13.6474 5.63594H12.614C11.974 5.63594 11.3806 5.8826 10.954 6.3226C10.4474 6.81594 10.194 7.50927 10.254 8.2026C10.3606 9.41596 11.4274 10.3692 12.694 10.3692H13.6474C13.8406 10.3692 14.0006 10.5292 13.9806 10.7226Z" fill="white"/>
<path d="M14.6674 7.3128V8.68612C14.6674 9.05284 14.3741 9.35284 14.0008 9.36612H12.6941C11.9741 9.36612 11.3141 8.83948 11.2541 8.11948C11.2141 7.69947 11.3741 7.30613 11.6541 7.0328C11.9008 6.77947 12.2408 6.63281 12.6141 6.63281H14.0008C14.3741 6.64615 14.6674 6.94613 14.6674 7.3128Z" fill="white"/>
</svg>
