<svg width="16" height="16" viewBox="0 0 16 16" fill="none" xmlns="http://www.w3.org/2000/svg">
<path d="M14.6674 8.4144V9.78768C14.6674 10.161 14.3608 10.4677 13.9808 10.4677H12.6941C11.9741 10.4677 11.3141 9.94104 11.2541 9.22104C11.2141 8.80104 11.3741 8.40768 11.6541 8.1344C11.9008 7.88104 12.2408 7.73438 12.6141 7.73438H13.9808C14.3608 7.73438 14.6674 8.04104 14.6674 8.4144Z" fill="white"/>
<path d="M10.254 9.3082C10.194 8.6082 10.4474 7.92157 10.954 7.42157C11.3806 6.98823 11.974 6.7349 12.614 6.7349H12.994C13.1806 6.7349 13.334 6.58156 13.3074 6.3949C13.1274 5.10156 12.0074 4.10156 10.6674 4.10156H4.00066C2.52732 4.10156 1.33398 5.2949 1.33398 6.76823V11.4349C1.33398 12.9082 2.52732 14.1016 4.00066 14.1016H10.6674C12.014 14.1016 13.1274 13.1016 13.3074 11.8082C13.334 11.6216 13.1806 11.4682 12.994 11.4682H12.694C11.4274 11.4682 10.3606 10.5216 10.254 9.3082ZM8.66735 7.9349H4.66732C4.39398 7.9349 4.16732 7.7149 4.16732 7.4349C4.16732 7.1549 4.39398 6.9349 4.66732 6.9349H8.66735C8.94063 6.9349 9.16735 7.16157 9.16735 7.4349C9.16735 7.70823 8.94063 7.9349 8.66735 7.9349Z" fill="white"/>
<path d="M9.47311 2.65177C9.64647 2.83177 9.49311 3.09844 9.23983 3.09844H4.01977C3.29311 3.09844 2.61311 3.31177 2.04644 3.67844C1.78644 3.8451 1.43311 3.6651 1.55977 3.37844C1.93311 2.5051 2.80644 1.89844 3.81311 1.89844H7.5598C8.33311 1.89844 9.01983 2.17177 9.47311 2.65177Z" fill="white"/>
</svg>
