<svg width="16" height="16" viewBox="0 0 16 16" fill="none" xmlns="http://www.w3.org/2000/svg">
<path d="M7.96013 1.47192L6.35347 5.21192H4.7468C4.48013 5.21192 4.22013 5.23192 3.9668 5.28525L4.63347 3.68525L4.66013 3.62525L4.70013 3.51858C4.72013 3.47192 4.73347 3.43192 4.75347 3.39858C5.5268 1.60525 6.39347 1.04525 7.96013 1.47192Z" fill="white"/>
<path d="M12.4867 5.39302L12.4734 5.38635C12.0734 5.27302 11.6667 5.21302 11.2534 5.21302H7.08008L8.58007 1.72635L8.60007 1.67969C8.69343 1.71302 8.79343 1.75969 8.89343 1.79302L10.3667 2.41302C11.1867 2.75302 11.7601 3.10635 12.1134 3.53302C12.1734 3.61302 12.2267 3.68635 12.2801 3.77302C12.3401 3.86635 12.3867 3.95969 12.4134 4.05969C12.4401 4.11969 12.4601 4.17302 12.4734 4.23302C12.5734 4.57302 12.5801 4.95969 12.4867 5.39302Z" fill="white"/>
<path d="M8.3457 11.7734H8.51242C8.71242 11.7734 8.87906 11.5934 8.87906 11.3734C8.87906 11.0934 8.79906 11.0534 8.6257 10.9867L8.3457 10.8867V11.7734Z" fill="white"/>
<path d="M12.1941 6.34427C11.8941 6.25761 11.5808 6.21094 11.2541 6.21094H4.74747C4.29414 6.21094 3.86747 6.29761 3.46747 6.47094C2.30747 6.97094 1.49414 8.12428 1.49414 9.46428V10.7643C1.49414 10.9243 1.50747 11.0776 1.52747 11.2376C1.67414 13.3576 2.80747 14.4909 4.92747 14.6309C5.0808 14.6509 5.23414 14.6643 5.4008 14.6643H10.6008C13.0674 14.6643 14.3674 13.4909 14.4941 11.1576C14.5008 11.0309 14.5074 10.8976 14.5074 10.7643V9.46428C14.5074 7.99094 13.5274 6.75094 12.1941 6.34427ZM8.85415 10.3309C9.16079 10.4376 9.57415 10.6643 9.57415 11.3709C9.57415 11.9776 9.10079 12.4643 8.51415 12.4643H8.34743V12.6109C8.34743 12.8043 8.19415 12.9576 8.00079 12.9576C7.80745 12.9576 7.65412 12.8043 7.65412 12.6109V12.4643H7.59412C6.95412 12.4643 6.42747 11.9243 6.42747 11.2576C6.42747 11.0643 6.5808 10.9109 6.77412 10.9109C6.96745 10.9109 7.12079 11.0643 7.12079 11.2576C7.12079 11.5376 7.33412 11.7709 7.59412 11.7709H7.65412V10.6443L7.14745 10.4643C6.84078 10.3576 6.42747 10.1309 6.42747 9.42428C6.42747 8.81764 6.90079 8.33092 7.48745 8.33092H7.65412V8.18428C7.65412 7.99094 7.80745 7.8376 8.00079 7.8376C8.19415 7.8376 8.34743 7.99094 8.34743 8.18428V8.33092H8.40743C9.04743 8.33092 9.57415 8.87092 9.57415 9.53764C9.57415 9.73092 9.42079 9.88428 9.22743 9.88428C9.03415 9.88428 8.88079 9.73092 8.88079 9.53764C8.88079 9.25764 8.66743 9.02428 8.40743 9.02428H8.34743V10.1509L8.85415 10.3309Z" fill="white"/>
<path d="M7.11914 9.42352C7.11914 9.70352 7.19914 9.74352 7.37248 9.81016L7.65248 9.91016V9.02344H7.48581C7.27914 9.02344 7.11914 9.20352 7.11914 9.42352Z" fill="white"/>
</svg>
