<svg width="16" height="16" viewBox="0 0 16 16" fill="none" xmlns="http://www.w3.org/2000/svg">
<path d="M14.6674 7.3128V8.68612C14.6674 9.05284 14.3741 9.35284 14.0008 9.36612H12.6941C11.9741 9.36612 11.3141 8.83948 11.2541 8.11948C11.2141 7.69947 11.3741 7.30613 11.6541 7.0328C11.9008 6.77947 12.2408 6.63281 12.6141 6.63281H14.0008C14.3741 6.64615 14.6674 6.94613 14.6674 7.3128Z" fill="white"/>
<path d="M13.6474 10.3692H12.694C11.4274 10.3692 10.3606 9.41596 10.254 8.2026C10.194 7.50927 10.4474 6.81594 10.954 6.3226C11.3806 5.8826 11.974 5.63594 12.614 5.63594H13.6474C13.8406 5.63594 14.0006 5.47594 13.9806 5.2826C13.834 3.6626 12.7606 2.55594 11.1674 2.36927C11.0074 2.3426 10.8406 2.33594 10.6674 2.33594H4.66732C4.48066 2.33594 4.30066 2.34927 4.12732 2.37594C2.42732 2.58927 1.33398 3.85594 1.33398 5.66927V10.336C1.33398 12.176 2.82732 13.6692 4.66732 13.6692H10.6674C12.534 13.6692 13.8206 12.5026 13.9806 10.7226C14.0006 10.5292 13.8406 10.3692 13.6474 10.3692ZM8.66735 6.5026H4.66732C4.39398 6.5026 4.16732 6.27594 4.16732 6.0026C4.16732 5.72927 4.39398 5.5026 4.66732 5.5026H8.66735C8.94063 5.5026 9.16735 5.72927 9.16735 6.0026C9.16735 6.27594 8.94063 6.5026 8.66735 6.5026Z" fill="white"/>
</svg>
