<svg width="16" height="16" viewBox="0 0 16 16" fill="none" xmlns="http://www.w3.org/2000/svg">
<path d="M3.33268 10C1.85935 10 0.666016 11.1934 0.666016 12.6666C0.666016 13.1666 0.806017 13.64 1.05268 14.04C1.51268 14.8134 2.35935 15.3334 3.33268 15.3334C4.30602 15.3334 5.15268 14.8134 5.61268 14.04C5.85935 13.64 5.99935 13.1666 5.99935 12.6666C5.99935 11.1934 4.80602 10 3.33268 10ZM4.32602 13.1534H3.83268V13.6734C3.83268 13.9466 3.60602 14.1734 3.33268 14.1734C3.05935 14.1734 2.83268 13.9466 2.83268 13.6734V13.1534H2.33935C2.06602 13.1534 1.83935 12.9266 1.83935 12.6534C1.83935 12.38 2.06602 12.1534 2.33935 12.1534H2.83268V11.68C2.83268 11.4066 3.05935 11.18 3.33268 11.18C3.60602 11.18 3.83268 11.4066 3.83268 11.68V12.1534H4.32602C4.59935 12.1534 4.82602 12.38 4.82602 12.6534C4.82602 12.9266 4.60602 13.1534 4.32602 13.1534Z" fill="white"/>
<path d="M14.334 8.33594H12.6673C11.934 8.33594 11.334 8.93594 11.334 9.66922C11.334 10.4026 11.934 11.0026 12.6673 11.0026H14.334C14.5206 11.0026 14.6673 10.8559 14.6673 10.6692V8.66922C14.6673 8.48258 14.5206 8.33594 14.334 8.33594Z" fill="white"/>
<path d="M11.0208 3.60141C11.2208 3.79474 11.0541 4.09474 10.7741 4.09474L5.25412 4.08807C4.93412 4.08807 4.77412 3.70141 5.00079 3.47474L6.16745 2.30141C7.15411 1.32141 8.74742 1.32141 9.73414 2.30141L10.9941 3.57474C11.0008 3.58141 11.0141 3.59474 11.0208 3.60141Z" fill="white"/>
<path d="M14.5796 12.4374C14.173 13.8108 12.9996 14.664 11.3996 14.664H7.06628C6.80628 14.664 6.63959 14.3774 6.74628 14.1374C6.94628 13.6708 7.07295 13.144 7.07295 12.664C7.07295 10.644 5.42625 8.9974 3.40625 8.9974C2.89959 8.9974 2.40625 9.10404 1.95291 9.30404C1.70625 9.41076 1.40625 9.24404 1.40625 8.9774V7.9974C1.40625 6.18406 2.49959 4.9174 4.19959 4.70406C4.36625 4.6774 4.54625 4.66406 4.73291 4.66406H11.3996C11.573 4.66406 11.7396 4.67073 11.8996 4.6974C13.2463 4.85073 14.2196 5.67073 14.5796 6.89073C14.6463 7.11073 14.4863 7.33073 14.2596 7.33073H12.733C11.2863 7.33073 10.1396 8.65076 10.453 10.1508C10.673 11.244 11.6863 11.9974 12.7996 11.9974H14.2596C14.493 11.9974 14.6463 12.224 14.5796 12.4374Z" fill="white"/>
</svg>
