<svg width="16" height="16" viewBox="0 0 16 16" fill="none" xmlns="http://www.w3.org/2000/svg">
<path d="M0.819907 14.4545L1.32657 13.9478C1.05991 13.5478 0.906571 13.0678 0.906571 12.5545C0.906571 11.1478 2.04657 10.0078 3.45324 10.0078C4.85991 10.0078 5.99991 11.1412 5.99991 12.5478C5.99991 13.9545 4.85991 15.0945 3.45324 15.0945C2.93991 15.0945 2.45991 14.9412 2.05991 14.6745L1.55324 15.1812C1.44658 15.2812 1.31324 15.3345 1.17991 15.3345C1.04658 15.3345 0.913243 15.2812 0.813243 15.1812C0.613239 14.9812 0.613239 14.6545 0.819907 14.4545Z" fill="white"/>
<path d="M14.334 8.33594H12.6673C11.934 8.33594 11.334 8.93594 11.334 9.66922C11.334 10.4026 11.934 11.0026 12.6673 11.0026H14.334C14.5206 11.0026 14.6673 10.8559 14.6673 10.6692V8.66922C14.6673 8.48258 14.5206 8.33594 14.334 8.33594Z" fill="white"/>
<path d="M11.0208 3.60141C11.2208 3.79474 11.0542 4.09474 10.7742 4.09474L5.25412 4.08807C4.93412 4.08807 4.77412 3.70141 5.00079 3.47474L6.16746 2.30141C7.15414 1.32141 8.74744 1.32141 9.73416 2.30141L10.9942 3.57474C11.0008 3.58141 11.0142 3.59474 11.0208 3.60141Z" fill="white"/>
<path d="M14.5815 12.4374C14.1749 13.8108 13.0015 14.664 11.4015 14.664H7.06818C6.80818 14.664 6.64153 14.3774 6.74818 14.1374C6.94818 13.6708 7.07484 13.144 7.07484 12.664C7.07484 10.644 5.4282 8.9974 3.4082 8.9974C2.90153 8.9974 2.4082 9.10404 1.95487 9.30404C1.7082 9.41076 1.4082 9.24404 1.4082 8.9774V7.9974C1.4082 6.18406 2.50153 4.9174 4.20153 4.70406C4.3682 4.6774 4.5482 4.66406 4.73487 4.66406H11.4015C11.5749 4.66406 11.7415 4.67073 11.9015 4.6974C13.2481 4.85073 14.2215 5.67073 14.5815 6.89073C14.6481 7.11073 14.4881 7.33073 14.2615 7.33073H12.7349C11.2881 7.33073 10.1415 8.65076 10.4549 10.1508C10.6749 11.244 11.6881 11.9974 12.8015 11.9974H14.2615C14.4949 11.9974 14.6481 12.224 14.5815 12.4374Z" fill="white"/>
</svg>
