<svg width="16" height="16" viewBox="0 0 16 16" fill="none" xmlns="http://www.w3.org/2000/svg">
<path d="M8.00063 1.33594C4.32066 1.33594 1.33398 4.3226 1.33398 8.0026C1.33398 11.6826 4.32066 14.6692 8.00063 14.6692C11.6806 14.6692 14.6674 11.6826 14.6674 8.0026C14.6674 4.3226 11.6806 1.33594 8.00063 1.33594ZM9.78063 10.956L8.28063 11.956C8.19399 12.0092 8.10063 12.0426 8.00063 12.0426C7.90066 12.0426 7.80732 12.016 7.72066 11.956L6.22066 10.956C5.99398 10.8026 5.92732 10.4892 6.08066 10.2626C6.23398 10.0292 6.54732 9.96924 6.77398 10.1226L7.99398 10.936L9.21399 10.1226C9.44063 9.96924 9.75399 10.0292 9.90735 10.2626C10.0674 10.496 10.0074 10.8026 9.78063 10.956ZM11.0006 8.6626C11.0006 9.1826 10.434 9.5026 9.99399 9.23596L8.34735 8.24924C8.13399 8.1226 7.87398 8.1226 7.66066 8.24924L6.01398 9.23596C5.56732 9.5026 5.00731 9.1826 5.00731 8.6626V6.10927C5.00731 5.8826 5.12732 5.66927 5.31398 5.54927L7.64732 4.06927C7.86732 3.92927 8.14063 3.92927 8.36063 4.06927L10.694 5.54927C10.8874 5.66927 11.0006 5.8826 11.0006 6.10927V8.6626Z" fill="white"/>
</svg>
