<svg width="16" height="16" viewBox="0 0 16 16" fill="none" xmlns="http://www.w3.org/2000/svg">
<path d="M7.83412 6.28666L5.66742 10L5.24742 10.7266L3.60076 13.54C3.48076 13.7534 3.17409 13.76 3.04076 13.5534L0.787422 10.1866C0.714088 10.0734 0.714088 9.92664 0.787422 9.81336L3.23409 6.14666C3.29409 6.05334 3.40075 6 3.51408 6H7.66745L7.83412 6.28666Z" fill="white"/>
<path d="M15.2261 9.82L10.7594 2.16666C10.7061 2.06 10.5927 2 10.4727 2H5.91277C5.65277 2 5.49277 2.28 5.62609 2.5L7.66609 6L7.83275 6.28666L9.7061 9.5C9.83938 9.72 9.67938 10 9.41938 10H5.66609L5.24609 10.7266C5.36609 10.5134 5.67276 10.5066 5.80609 10.7134L7.89941 13.8534C7.95941 13.9466 8.0661 14 8.17938 14H12.4861C12.5994 14 12.7061 13.9466 12.7661 13.8534L15.2194 10.1734C15.2861 10.0666 15.2927 9.93336 15.2261 9.82Z" fill="white"/>
</svg>
