<svg width="16" height="16" viewBox="0 0 16 16" fill="none" xmlns="http://www.w3.org/2000/svg">
<path d="M13.0073 3.9026L9.04727 1.61594C8.40055 1.2426 7.60059 1.2426 6.94726 1.61594L2.99394 3.9026C2.34727 4.27594 1.94727 4.96928 1.94727 5.7226V10.2826C1.94727 11.0292 2.34727 11.7226 2.99394 12.1026L6.95392 14.3892C7.60059 14.7626 8.40055 14.7626 9.05391 14.3892L13.0139 12.1026C13.6606 11.7292 14.0606 11.036 14.0606 10.2826V5.7226C14.0539 4.96928 13.6539 4.2826 13.0073 3.9026ZM7.50059 5.16928C7.50059 4.89594 7.72726 4.66928 8.00055 4.66928C8.27391 4.66928 8.50055 4.89594 8.50055 5.16928V8.66924C8.50055 8.9426 8.27391 9.16924 8.00055 9.16924C7.72726 9.16924 7.50059 8.9426 7.50059 8.66924V5.16928ZM8.61391 11.0892C8.58055 11.1692 8.53391 11.2426 8.47391 11.3092C8.34727 11.436 8.18055 11.5026 8.00055 11.5026C7.91392 11.5026 7.82726 11.4826 7.74726 11.4492C7.66059 11.416 7.59392 11.3692 7.52726 11.3092C7.46726 11.2426 7.42059 11.1692 7.38059 11.0892C7.34726 11.0092 7.33392 10.9226 7.33392 10.836C7.33392 10.6626 7.40059 10.4892 7.52726 10.3626C7.59392 10.3026 7.66059 10.256 7.74726 10.2226C7.99392 10.116 8.28727 10.176 8.47391 10.3626C8.53391 10.4292 8.58055 10.496 8.61391 10.5826C8.64727 10.6626 8.66727 10.7492 8.66727 10.836C8.66727 10.9226 8.64727 11.0092 8.61391 11.0892Z" fill="white"/>
</svg>
