<svg width="16" height="16" viewBox="0 0 16 16" fill="none" xmlns="http://www.w3.org/2000/svg">
<path d="M10.6674 2.5H5.33398C5.06066 2.5 4.83398 2.27334 4.83398 2C4.83398 1.72666 5.06066 1.5 5.33398 1.5H10.6674C10.9406 1.5 11.1674 1.72666 11.1674 2C11.1674 2.27334 10.9406 2.5 10.6674 2.5Z" fill="white"/>
<path d="M10.6674 14.5H5.33398C5.06066 14.5 4.83398 14.2734 4.83398 14C4.83398 13.7266 5.06066 13.5 5.33398 13.5H10.6674C10.9406 13.5 11.1674 13.7266 11.1674 14C11.1674 14.2734 10.9406 14.5 10.6674 14.5Z" fill="white"/>
<path d="M10.334 3.33594H5.66732C4.11398 3.33594 3.33398 4.11594 3.33398 5.66927V10.336C3.33398 11.8892 4.11398 12.6692 5.66732 12.6692H10.334C11.8874 12.6692 12.6674 11.8892 12.6674 10.336V5.66927C12.6674 4.11594 11.8874 3.33594 10.334 3.33594ZM9.66735 8.83596H7.66732C7.39398 8.83596 7.16732 8.60924 7.16732 8.33596V6.33594C7.16732 6.0626 7.39398 5.83594 7.66732 5.83594C7.94066 5.83594 8.16735 6.0626 8.16735 6.33594V7.83594H9.66735C9.94063 7.83594 10.1674 8.0626 10.1674 8.33596C10.1674 8.60924 9.94063 8.83596 9.66735 8.83596Z" fill="white"/>
</svg>
