<svg width="16" height="16" viewBox="0 0 16 16" fill="none" xmlns="http://www.w3.org/2000/svg">
<path d="M11.4531 3.5C10.3131 3.5 8.95312 3.93334 8.95312 6V10C8.95312 12.0666 10.3131 12.5 11.4531 12.5C12.5931 12.5 13.9531 12.0666 13.9531 10V6C13.9531 3.93334 12.5931 3.5 11.4531 3.5Z" fill="white"/>
<path d="M4.54688 3.5C3.40688 3.5 2.04688 3.93334 2.04688 6V10C2.04688 12.0666 3.40688 12.5 4.54688 12.5C5.68688 12.5 7.04688 12.0666 7.04688 10V6C7.04688 3.93334 5.68688 3.5 4.54688 3.5Z" fill="white"/>
<path d="M8.95352 7.5H7.04688V8.5H8.95352V7.5Z" fill="white"/>
<path d="M15 10.1692C14.7266 10.1692 14.5 9.9426 14.5 9.66924V6.33594C14.5 6.0626 14.7266 5.83594 15 5.83594C15.2734 5.83594 15.5 6.0626 15.5 6.33594V9.66924C15.5 9.9426 15.2734 10.1692 15 10.1692Z" fill="white"/>
<path d="M1 10.1692C0.726666 10.1692 0.5 9.9426 0.5 9.66924V6.33594C0.5 6.0626 0.726666 5.83594 1 5.83594C1.27334 5.83594 1.5 6.0626 1.5 6.33594V9.66924C1.5 9.9426 1.27334 10.1692 1 10.1692Z" fill="white"/>
</svg>
