<svg width="16" height="16" viewBox="0 0 16 16" fill="none" xmlns="http://www.w3.org/2000/svg">
<path d="M10.6666 1.33594H5.33334C3.33334 1.33594 2 2.66927 2 4.66927V11.336C2 13.336 3.33334 14.6692 5.33334 14.6692H10.6666C12.6666 14.6692 14 13.336 14 11.336V4.66927C14 2.66927 12.6666 1.33594 10.6666 1.33594ZM11.7134 5.65594L10.26 7.98927C10.22 8.04924 10.1534 8.09596 10.0866 8.1026C10.0734 8.1026 10.06 8.1026 10.0534 8.1026C9.99336 8.1026 9.93336 8.0826 9.88664 8.0426C8.81336 7.08927 7.2 7.08927 6.12666 8.0426C6.07334 8.08924 6 8.11596 5.92666 8.1026C5.85334 8.08924 5.78666 8.04924 5.75334 7.98927L4.3 5.65594C4.22 5.55594 4.24 5.4226 4.33334 5.33594C6.42 3.47594 9.57336 3.47594 11.6666 5.33594C11.76 5.4226 11.78 5.55594 11.7134 5.65594Z" fill="white"/>
</svg>
