<svg width="16" height="16" viewBox="0 0 16 16" fill="none" xmlns="http://www.w3.org/2000/svg">
<path d="M14.6523 7.60954C14.4255 3.7429 10.9123 0.762904 6.86555 1.42957C4.07889 1.88957 1.84556 4.14955 1.41223 6.9362C1.15889 8.54956 1.49224 10.0762 2.21892 11.3362L1.62556 13.5428C1.49224 14.0428 1.95222 14.4962 2.44556 14.3562L4.61889 13.7562C5.60556 14.3362 6.75889 14.6696 7.99223 14.6696C11.7523 14.6696 14.8723 11.3562 14.6523 7.60954ZM11.2523 10.4828C11.1923 10.6028 11.1189 10.7162 11.0255 10.8228C10.8589 11.0028 10.6789 11.1362 10.4789 11.2162C10.2789 11.3028 10.0589 11.3428 9.82554 11.3428C9.48554 11.3428 9.1189 11.2629 8.7389 11.0963C8.35226 10.9296 7.97223 10.7096 7.59223 10.4362C7.20555 10.1562 6.84556 9.84284 6.4989 9.50284C6.15224 9.1562 5.84555 8.78956 5.56555 8.40956C5.29222 8.02956 5.07223 7.64954 4.91223 7.26954C4.75223 6.88954 4.67224 6.52291 4.67224 6.17623C4.67224 5.94956 4.71223 5.72956 4.79223 5.52956C4.87223 5.3229 4.99891 5.13623 5.17891 4.96957C5.39224 4.75623 5.62556 4.65623 5.87223 4.65623C5.96556 4.65623 6.05888 4.67624 6.14555 4.71624C6.23221 4.75624 6.31223 4.81623 6.37223 4.9029L7.14556 5.99623C7.20556 6.08289 7.25223 6.15623 7.27889 6.22955C7.31223 6.30289 7.32556 6.36956 7.32556 6.43623C7.32556 6.51623 7.29889 6.59623 7.25223 6.6762C7.20556 6.7562 7.14555 6.8362 7.06555 6.9162L6.81223 7.18287C6.77223 7.22287 6.75889 7.26288 6.75889 7.3162C6.75889 7.34288 6.76555 7.36954 6.77223 7.3962C6.78555 7.42288 6.79223 7.44288 6.79889 7.46288C6.85889 7.5762 6.96555 7.7162 7.11223 7.88954C7.26555 8.06284 7.42555 8.24284 7.59889 8.4162C7.77889 8.5962 7.95223 8.7562 8.13226 8.90956C8.30554 9.0562 8.45226 9.1562 8.56554 9.2162C8.58554 9.22284 8.60554 9.2362 8.62554 9.24284C8.65226 9.2562 8.6789 9.2562 8.71226 9.2562C8.77226 9.2562 8.81226 9.2362 8.85226 9.1962L9.10554 8.94284C9.19226 8.8562 9.27226 8.7962 9.34554 8.7562C9.42554 8.70956 9.4989 8.68284 9.58554 8.68284C9.65226 8.68284 9.7189 8.6962 9.79226 8.72956C9.86554 8.76284 9.94554 8.80284 10.0255 8.86284L11.1323 9.64956C11.2189 9.70956 11.2789 9.78284 11.3189 9.86284C11.3523 9.94956 11.3723 10.0296 11.3723 10.1228C11.3323 10.2362 11.3055 10.3628 11.2523 10.4828Z" fill="white"/>
</svg>
