<svg width="16" height="16" viewBox="0 0 16 16" fill="none" xmlns="http://www.w3.org/2000/svg">
<path d="M10.794 1.33594H5.20732C2.78066 1.33594 1.33398 2.7826 1.33398 5.20927V10.7892C1.33398 13.2226 2.78066 14.6692 5.20732 14.6692H10.7874C13.214 14.6692 14.6606 13.2226 14.6606 10.796V5.20927C14.6674 2.7826 13.2206 1.33594 10.794 1.33594ZM9.86063 11.0692C9.76063 11.196 9.61399 11.2626 9.46735 11.2626C9.36063 11.2626 9.25399 11.2292 9.16063 11.156C8.45399 10.6092 7.54066 10.6092 6.83398 11.156C6.61398 11.3226 6.30066 11.2826 6.13398 11.0692C5.96732 10.8492 6.00732 10.536 6.22066 10.3692C7.28066 9.54924 8.70735 9.54924 9.76735 10.3692C9.99399 10.536 10.034 10.8492 9.86063 11.0692ZM11.334 9.00924C11.234 9.13596 11.0874 9.2026 10.9406 9.2026C10.834 9.2026 10.7274 9.16924 10.634 9.09596C9.03399 7.8626 6.97398 7.8626 5.37398 9.09596C5.15398 9.26924 4.84066 9.22924 4.66732 9.00924C4.49398 8.78924 4.54066 8.47596 4.75398 8.30924C6.72066 6.78927 9.26735 6.78927 11.234 8.30924C11.4606 8.47596 11.5006 8.78924 11.334 9.00924ZM12.394 6.94927C12.294 7.07594 12.1474 7.1426 12.0006 7.1426C11.894 7.1426 11.7874 7.10927 11.694 7.03594C9.44735 5.3026 6.54732 5.3026 4.30732 7.03594C4.08732 7.2026 3.77398 7.1626 3.60732 6.94927C3.44066 6.72927 3.48066 6.41594 3.69398 6.24927C6.30732 4.22927 9.68735 4.22927 12.3074 6.24927C12.5274 6.41594 12.5674 6.72927 12.394 6.94927Z" fill="white"/>
</svg>
