<svg width="16" height="16" viewBox="0 0 16 16" fill="none" xmlns="http://www.w3.org/2000/svg">
<path fill-rule="evenodd" clip-rule="evenodd" d="M0.540789 5.55137C2.42982 3.60737 5.07427 2.39844 8 2.39844C10.9258 2.39844 13.5702 3.60737 15.4593 5.55137C15.6878 5.78661 15.6851 6.16183 15.4532 6.39377L15.1703 6.67665C15.0567 6.79027 14.9022 6.85357 14.7416 6.85237C14.5809 6.85117 14.4274 6.78557 14.3155 6.67025C12.7155 5.02169 10.4778 3.99844 8 3.99844C5.52225 3.99844 3.28451 5.02169 1.68453 6.67025C1.57262 6.78557 1.41914 6.85117 1.25846 6.85237C1.09778 6.85357 0.943328 6.79027 0.829704 6.67665L0.546829 6.39377C0.314888 6.16183 0.312197 5.78661 0.540789 5.55137ZM2.80098 7.81746C4.11078 6.45065 5.95638 5.59844 8 5.59844C10.0437 5.59844 11.8893 6.45065 13.199 7.81746C13.4249 8.05316 13.421 8.42604 13.1902 8.65684L12.9072 8.9398C12.793 9.05396 12.6376 9.11732 12.4762 9.11548C12.3146 9.11364 12.1607 9.04676 12.0492 8.93004C11.0288 7.86232 9.59248 7.19844 8 7.19844C6.40761 7.19844 4.97125 7.86232 3.95086 8.93004C3.8393 9.04676 3.68538 9.11364 3.5239 9.11548C3.36242 9.11732 3.20702 9.05396 3.09283 8.9398L2.80992 8.65684C2.57913 8.42604 2.57515 8.05316 2.80098 7.81746ZM5.05649 10.09C5.78668 9.29676 6.8356 8.79844 8 8.79844C9.16448 8.79844 10.2134 9.29676 10.9435 10.09C11.1614 10.3267 11.1538 10.6931 10.9264 10.9206L10.6433 11.2037C10.5273 11.3197 10.3689 11.3832 10.205 11.3793C10.041 11.3755 9.88576 11.3047 9.77536 11.1834C9.33552 10.7003 8.70344 10.3984 8 10.3984C7.2966 10.3984 6.66453 10.7003 6.22472 11.1834C6.11431 11.3047 5.95907 11.3755 5.7951 11.3793C5.63114 11.3832 5.47275 11.3197 5.35678 11.2037L5.07366 10.9206C4.84617 10.6931 4.83859 10.3267 5.05649 10.09ZM7.29292 12.2913C7.47322 12.111 7.72405 11.9984 8 11.9984C8.276 11.9984 8.5268 12.111 8.70712 12.2913C8.94144 12.5256 8.94144 12.9056 8.70712 13.1399L8.42432 13.4227C8.19 13.657 7.81007 13.657 7.57576 13.4227L7.29292 13.1399C7.0586 12.9056 7.0586 12.5256 7.29292 12.2913Z" fill="#0F172A"/>
</svg>
