<svg width="16" height="16" viewBox="0 0 16 16" fill="none" xmlns="http://www.w3.org/2000/svg">
<path fill-rule="evenodd" clip-rule="evenodd" d="M3.39961 1.60156C2.4055 1.60156 1.59961 2.40745 1.59961 3.40156V12.6016C1.59961 13.5956 2.4055 14.4016 3.39961 14.4016H12.5996C13.5937 14.4016 14.3996 13.5956 14.3996 12.6016V3.40156C14.3996 2.40745 13.5937 1.60156 12.5996 1.60156H3.39961ZM2.79961 6.40156V12.6016C2.79961 12.9329 3.06824 13.2016 3.39961 13.2016H12.5996C12.931 13.2016 13.1996 12.9329 13.1996 12.6016V6.40156H2.79961ZM3.99961 3.40156C3.66824 3.40156 3.39961 3.67019 3.39961 4.00156V4.00956C3.39961 4.34093 3.66824 4.60956 3.99961 4.60956H4.00761C4.33898 4.60956 4.60761 4.34093 4.60761 4.00956V4.00156C4.60761 3.67019 4.33898 3.40156 4.00761 3.40156H3.99961ZM5.79961 4.00156C5.79961 3.67019 6.06824 3.40156 6.39961 3.40156H6.40761C6.73898 3.40156 7.00761 3.67019 7.00761 4.00156V4.00956C7.00761 4.34093 6.73898 4.60956 6.40761 4.60956H6.39961C6.06824 4.60956 5.79961 4.34093 5.79961 4.00956V4.00156ZM8.79961 3.40156C8.46825 3.40156 8.19961 3.67019 8.19961 4.00156V4.00956C8.19961 4.34093 8.46825 4.60956 8.79961 4.60956H8.80761C9.13897 4.60956 9.40761 4.34093 9.40761 4.00956V4.00156C9.40761 3.67019 9.13897 3.40156 8.80761 3.40156H8.79961Z" fill="#0F172A"/>
</svg>
