<svg width="16" height="16" viewBox="0 0 16 16" fill="none" xmlns="http://www.w3.org/2000/svg">
<path d="M14.6666 9.23392C14.5799 9.23392 14.4933 9.21392 14.4133 9.16064L12.7466 8.16064C11.8799 7.64061 10.7999 7.64061 9.92664 8.16064C8.73992 8.87392 7.2666 8.87392 6.07992 8.16064C5.21326 7.64061 4.13326 7.64061 3.25992 8.16064L1.59326 9.16064C1.35326 9.30064 1.04659 9.22728 0.906591 8.98728C0.766587 8.75392 0.839919 8.44064 1.07992 8.30064L2.74659 7.30061C3.93326 6.5873 5.40658 6.5873 6.59326 7.30061C7.45994 7.82061 8.53992 7.82061 9.41328 7.30061C10.5999 6.5873 12.0733 6.5873 13.2599 7.30061L14.9266 8.30064C15.1666 8.44064 15.2399 8.74728 15.0999 8.98728C14.9999 9.14728 14.8333 9.23392 14.6666 9.23392Z" fill="white"/>
<path d="M4.66591 4.56555C3.99924 4.56555 3.33258 4.38555 2.73924 4.03221L1.07258 3.03221C0.839243 2.88555 0.759243 2.57888 0.905907 2.34555C1.04591 2.10555 1.35258 2.03221 1.59258 2.17221L3.25924 3.17221C4.12591 3.69221 5.20591 3.69221 6.07924 3.17221C7.26588 2.45888 8.73922 2.45888 9.92586 3.17221C10.7926 3.69221 11.8726 3.69221 12.7459 3.17221L14.4126 2.17221C14.6526 2.03221 14.9592 2.10555 15.0992 2.34555C15.2392 2.57888 15.1659 2.89221 14.9259 3.03221L13.2592 4.03221C12.0726 4.74555 10.5992 4.74555 9.41258 4.03221C8.54586 3.51221 7.46588 3.51221 6.59258 4.03221C5.99924 4.38555 5.33258 4.56555 4.66591 4.56555Z" fill="white"/>
<path d="M14.6666 13.8981C14.5799 13.8981 14.4933 13.8781 14.4133 13.8247L12.7466 12.8247C11.8799 12.3047 10.7999 12.3047 9.92664 12.8247C8.73992 13.5381 7.2666 13.5381 6.07992 12.8247C5.21326 12.3047 4.13326 12.3047 3.25992 12.8247L1.59326 13.8247C1.35326 13.9647 1.04659 13.8913 0.906591 13.6513C0.766587 13.4181 0.839919 13.1047 1.07992 12.9647L2.74659 11.9647C3.93326 11.2513 5.40658 11.2513 6.59326 11.9647C7.45994 12.4847 8.53992 12.4847 9.41328 11.9647C10.5999 11.2513 12.0733 11.2513 13.2599 11.9647L14.9266 12.9647C15.1666 13.1047 15.2399 13.4113 15.0999 13.6513C14.9999 13.8113 14.8333 13.8981 14.6666 13.8981Z" fill="white"/>
</svg>
