<svg width="16" height="16" viewBox="0 0 16 16" fill="none" xmlns="http://www.w3.org/2000/svg">
<path fill-rule="evenodd" clip-rule="evenodd" d="M13.8666 1.49299L8.53336 2.55966C8.22 2.61966 8 2.89299 8 3.21299V6.66633C8 7.03299 8.3 7.33299 8.66664 7.33299H14C14.3666 7.33299 14.6666 7.03299 14.6666 6.66633V2.14633C14.6666 1.72633 14.28 1.41299 13.8666 1.49299Z" fill="white"/>
<path fill-rule="evenodd" clip-rule="evenodd" d="M13.8666 14.5041L8.53336 13.4374C8.22 13.3774 8 13.1041 8 12.7841V9.33078C8 8.96406 8.3 8.66406 8.66664 8.66406H14C14.3666 8.66406 14.6666 8.96406 14.6666 9.33078V13.8508C14.6666 14.2708 14.28 14.5841 13.8666 14.5041Z" fill="white"/>
<path fill-rule="evenodd" clip-rule="evenodd" d="M5.86064 3.03973L1.86064 3.88639C1.55398 3.95306 1.33398 4.22639 1.33398 4.53973V6.66639C1.33398 7.03307 1.63398 7.33307 2.00066 7.33307H6.00066C6.36732 7.33307 6.66732 7.03307 6.66732 6.66639V3.68639C6.66732 3.26639 6.27398 2.94639 5.86064 3.03973Z" fill="white"/>
<path fill-rule="evenodd" clip-rule="evenodd" d="M5.86064 12.9574L1.86064 12.1108C1.55398 12.0441 1.33398 11.7708 1.33398 11.4574V9.33078C1.33398 8.96406 1.63398 8.66406 2.00066 8.66406H6.00066C6.36732 8.66406 6.66732 8.96406 6.66732 9.33078V12.3108C6.66732 12.7308 6.27398 13.0508 5.86064 12.9574Z" fill="white"/>
</svg>
