<svg width="16" height="16" viewBox="0 0 16 16" fill="none" xmlns="http://www.w3.org/2000/svg">
<path d="M12.334 15.1666C10.774 15.1666 9.50063 13.8934 9.50063 12.3334V12C9.50063 11.7266 9.72735 11.5 10.0006 11.5C10.274 11.5 10.5006 11.7266 10.5006 12V12.3334C10.5006 13.3466 11.3206 14.1666 12.334 14.1666C13.3474 14.1666 14.1674 13.3466 14.1674 12.3334C14.1674 11.32 13.3474 10.5 12.334 10.5H1.33398C1.06066 10.5 0.833984 10.2734 0.833984 10C0.833984 9.72664 1.06066 9.5 1.33398 9.5H12.334C13.894 9.5 15.1674 10.7734 15.1674 12.3334C15.1674 13.8934 13.894 15.1666 12.334 15.1666Z" fill="white"/>
<path d="M12.334 8.5026H1.33398C1.06066 8.5026 0.833984 8.27596 0.833984 8.0026C0.833984 7.72927 1.06066 7.5026 1.33398 7.5026H12.334C13.3474 7.5026 14.1674 6.6826 14.1674 5.66927C14.1674 4.65594 13.3474 3.83594 12.334 3.83594C11.3206 3.83594 10.5006 4.65594 10.5006 5.66927V6.0026C10.5006 6.27594 10.274 6.5026 10.0006 6.5026C9.72735 6.5026 9.50063 6.27594 9.50063 6.0026V5.66927C9.50063 4.10927 10.774 2.83594 12.334 2.83594C13.894 2.83594 15.1674 4.10927 15.1674 5.66927C15.1674 7.22927 13.894 8.5026 12.334 8.5026Z" fill="white"/>
<path d="M6.20732 6.50073H1.33398C1.06066 6.50073 0.833984 6.27407 0.833984 6.00073C0.833984 5.7274 1.06066 5.50073 1.33398 5.50073H6.20732C6.92066 5.50073 7.50066 4.92073 7.50066 4.2074C7.50066 3.49407 6.92066 2.91407 6.20732 2.91407C5.49398 2.91407 4.91398 3.49407 4.91398 4.2074V4.46073C4.91398 4.73407 4.68732 4.96073 4.41398 4.96073C4.14066 4.96073 3.91398 4.74073 3.91398 4.46073V4.2074C3.91398 2.94073 4.94066 1.91406 6.20732 1.91406C7.47398 1.91406 8.50063 2.94073 8.50063 4.2074C8.50063 5.47407 7.47398 6.50073 6.20732 6.50073Z" fill="white"/>
</svg>
