<svg width="16" height="16" viewBox="0 0 16 16" fill="none" xmlns="http://www.w3.org/2000/svg">
<path d="M11.239 3.33594H12.8056C12.9256 3.33594 13.0323 3.4026 13.0923 3.5026L14.699 6.3026C14.759 6.4026 14.759 6.52927 14.699 6.62927L11.6056 12.1626C11.479 12.3892 11.159 12.3892 11.0256 12.1692L10.1856 10.7626C10.1256 10.656 10.1256 10.5292 10.1856 10.4292L12.359 6.62927C12.419 6.52927 12.419 6.4026 12.359 6.29594L10.939 3.82927C10.8256 3.61595 10.9856 3.33594 11.239 3.33594Z" fill="white"/>
<path d="M6.57294 3.33594H8.13961C8.25961 3.33594 8.36625 3.4026 8.42625 3.5026L10.033 6.3026C10.093 6.4026 10.093 6.52927 10.033 6.62927L6.93961 12.1626C6.81295 12.3892 6.49295 12.3892 6.35962 12.1692L5.51961 10.7626C5.45961 10.656 5.45961 10.5292 5.51961 10.4292L7.69295 6.62927C7.75295 6.52927 7.75295 6.4026 7.69295 6.29594L6.27295 3.82927C6.15962 3.61595 6.3196 3.33594 6.57294 3.33594Z" fill="white"/>
<path d="M1.19922 3.33594H3.33924C3.45924 3.33594 3.57257 3.4026 3.63257 3.5026L5.24589 6.36259C5.30589 6.46259 5.30589 6.58927 5.24589 6.69594L4.49924 7.97594C4.37256 8.19596 4.05257 8.19596 3.92591 7.97594L1.19922 3.33594Z" fill="white"/>
</svg>
