<svg width="16" height="16" viewBox="0 0 16 16" fill="none" xmlns="http://www.w3.org/2000/svg">
<path d="M12.6674 6.0026C12.6674 3.4226 10.5806 1.33594 8.00063 1.33594C5.42066 1.33594 3.33398 3.4226 3.33398 6.0026C3.33398 8.41596 5.16066 10.396 7.50066 10.6426V12.1692H6.00066C5.72732 12.1692 5.50066 12.396 5.50066 12.6692C5.50066 12.9426 5.72732 13.1692 6.00066 13.1692H7.50066V14.6692C7.50066 14.9426 7.72732 15.1692 8.00063 15.1692C8.27399 15.1692 8.50063 14.9426 8.50063 14.6692V13.1692H10.0006C10.274 13.1692 10.5006 12.9426 10.5006 12.6692C10.5006 12.396 10.274 12.1692 10.0006 12.1692H8.50063V10.6426C10.8406 10.396 12.6674 8.41596 12.6674 6.0026Z" fill="white"/>
</svg>
