<svg width="16" height="16" viewBox="0 0 16 16" fill="none" xmlns="http://www.w3.org/2000/svg">
<g clip-path="url(#clip0_13_16172)">
<path fill-rule="evenodd" clip-rule="evenodd" d="M15.2008 4.40078C15.2008 6.38901 13.589 8.00078 11.6008 8.00078C11.5225 8.00078 11.4449 7.99829 11.3678 7.99337C10.6694 7.94876 9.9219 8.09542 9.4739 8.63302L4.65423 14.4166C4.24018 14.9135 3.62683 15.2008 2.98006 15.2008C1.77648 15.2008 0.800781 14.2251 0.800781 13.0215C0.800781 12.3747 1.08806 11.7614 1.58492 11.3473L7.36857 6.52762C7.90617 6.07962 8.05278 5.33213 8.00822 4.63376C8.00326 4.55673 8.00078 4.47905 8.00078 4.40078C8.00078 2.41256 9.61254 0.800781 11.6008 0.800781C11.9866 0.800781 12.3583 0.861485 12.7068 0.973869C12.9661 1.05752 13.0196 1.38216 12.8269 1.57486L10.6726 3.72912C10.5683 3.83349 10.5273 3.98801 10.5841 4.12423C10.8275 4.70759 11.2945 5.17434 11.8781 5.41737C12.0142 5.47409 12.1686 5.43311 12.2729 5.3288L14.4268 3.17496C14.6195 2.98225 14.9441 3.03572 15.0278 3.29511C15.1401 3.64349 15.2008 4.01505 15.2008 4.40078ZM3.20078 13.6008C3.64261 13.6008 4.00078 13.2426 4.00078 12.8008C4.00078 12.3589 3.64261 12.0008 3.20078 12.0008C2.75896 12.0008 2.40078 12.3589 2.40078 12.8008C2.40078 13.2426 2.75896 13.6008 3.20078 13.6008Z" fill="#0F172A"/>
</g>
<defs>
<clipPath id="clip0_13_16172">
<rect width="16" height="16" fill="white"/>
</clipPath>
</defs>
</svg>
