<svg width="16" height="16" viewBox="0 0 16 16" fill="none" xmlns="http://www.w3.org/2000/svg">
<g clip-path="url(#clip0_13_16174)">
<path fill-rule="evenodd" clip-rule="evenodd" d="M11.6008 8.00078C13.589 8.00078 15.2008 6.38901 15.2008 4.40078C15.2008 4.01505 15.1401 3.64349 15.0278 3.29511C14.9441 3.03572 14.6195 2.98225 14.4268 3.17496L12.2729 5.3288C12.1686 5.43311 12.0142 5.47409 11.8781 5.41737C11.2945 5.17434 10.8275 4.70759 10.5841 4.12423C10.5273 3.98801 10.5683 3.83349 10.6726 3.72912L12.8269 1.57486C13.0196 1.38216 12.9661 1.05752 12.7068 0.973869C12.3583 0.861485 11.9866 0.800781 11.6008 0.800781C9.61254 0.800781 8.00078 2.41256 8.00078 4.40078C8.00078 4.47905 8.00326 4.55673 8.00822 4.63376C8.05278 5.33213 7.90617 6.07962 7.36857 6.52762L1.58492 11.3473C1.08806 11.7614 0.800781 12.3747 0.800781 13.0215C0.800781 14.2251 1.77648 15.2008 2.98006 15.2008C3.62683 15.2008 4.24018 14.9135 4.65423 14.4166L9.4739 8.63302C9.9219 8.09542 10.6694 7.94876 11.3678 7.99337C11.4449 7.99829 11.5225 8.00078 11.6008 8.00078ZM4.00078 12.8008C4.00078 13.2426 3.64261 13.6008 3.20078 13.6008C2.75896 13.6008 2.40078 13.2426 2.40078 12.8008C2.40078 12.3589 2.75896 12.0008 3.20078 12.0008C3.64261 12.0008 4.00078 12.3589 4.00078 12.8008Z" fill="#0F172A"/>
<path d="M11.6009 9.20095C11.7394 9.20095 11.8765 9.19511 12.012 9.18359L15.0152 12.1868C15.7962 12.9678 15.7962 14.2342 15.0152 15.0152C14.2341 15.7962 12.9678 15.7962 12.1868 15.0152L8.6582 11.4866L10.396 9.40135C10.4373 9.35175 10.514 9.29143 10.6695 9.24511C10.8312 9.19703 11.0449 9.17535 11.2915 9.19111C11.394 9.19767 11.4971 9.20095 11.6009 9.20095Z" fill="#0F172A"/>
<path d="M4.80002 3.66866L6.66445 5.53308C6.64216 5.56502 6.61997 5.58798 6.59957 5.60498L5.43995 6.57132L3.66866 4.80002H2.64724C2.49573 4.80002 2.35722 4.71442 2.28947 4.57891L0.92896 1.8579C0.85196 1.7039 0.882144 1.51791 1.00389 1.39617L1.39617 1.00389C1.51791 0.882144 1.7039 0.85196 1.8579 0.92896L4.57891 2.28947C4.71442 2.35722 4.80002 2.49573 4.80002 2.64724V3.66866Z" fill="#0F172A"/>
</g>
<defs>
<clipPath id="clip0_13_16174">
<rect width="16" height="16" fill="white"/>
</clipPath>
</defs>
</svg>
