<svg width="16" height="16" viewBox="0 0 16 16" fill="none" xmlns="http://www.w3.org/2000/svg">
<path fill-rule="evenodd" clip-rule="evenodd" d="M7.99961 14.4016C11.5342 14.4016 14.3996 11.5362 14.3996 8.00156C14.3996 4.46694 11.5342 1.60156 7.99961 1.60156C4.46499 1.60156 1.59961 4.46694 1.59961 8.00156C1.59961 11.5362 4.46499 14.4016 7.99961 14.4016ZM6.62387 5.7773C6.38956 5.54299 6.00966 5.54299 5.77535 5.7773C5.54103 6.01161 5.54103 6.39151 5.77535 6.62583L7.15108 8.00156L5.77535 9.37732C5.54103 9.61164 5.54103 9.99148 5.77535 10.2258C6.00966 10.4601 6.38956 10.4601 6.62387 10.2258L7.99961 8.85012L9.37537 10.2258C9.60969 10.4601 9.98953 10.4601 10.2238 10.2258C10.4582 9.99148 10.4582 9.61164 10.2238 9.37732L8.84817 8.00156L10.2238 6.62583C10.4582 6.39151 10.4582 6.01161 10.2238 5.7773C9.98953 5.54299 9.60969 5.54299 9.37537 5.7773L7.99961 7.15303L6.62387 5.7773Z" fill="#0F172A"/>
</svg>
