<svg width="16" height="16" viewBox="0 0 16 16" fill="none" xmlns="http://www.w3.org/2000/svg">
<path d="M5.02426 4.17573C4.78995 3.94142 4.41005 3.94142 4.17573 4.17573C3.94142 4.41005 3.94142 4.78995 4.17573 5.02426L7.15147 8L4.17573 10.9758C3.94142 11.2101 3.94142 11.5899 4.17573 11.8242C4.41005 12.0586 4.78995 12.0586 5.02426 11.8242L8 8.84856L10.9758 11.8242C11.2101 12.0586 11.5899 12.0586 11.8242 11.8242C12.0586 11.5899 12.0586 11.2101 11.8242 10.9758L8.84856 8L11.8242 5.02426C12.0586 4.78995 12.0586 4.41005 11.8242 4.17573C11.5899 3.94142 11.2101 3.94142 10.9758 4.17573L8 7.15147L5.02426 4.17573Z" fill="#0F172A"/>
</svg>
