<svg width="16" height="16" viewBox="0 0 16 16" fill="none" xmlns="http://www.w3.org/2000/svg">
<path d="M10.1133 9.18128C10.1133 9.55464 10.4199 9.86128 10.7933 9.86128H11.4733V8.50792H10.7933C10.4199 8.50128 10.1133 8.80792 10.1133 9.18128Z" fill="white"/>
<path d="M10.7932 1.33594H5.21319C2.78652 1.33594 1.33984 2.7826 1.33984 5.20927V10.7892C1.33984 13.216 2.78652 14.6626 5.21319 14.6626H10.7932C13.2198 14.6626 14.6666 13.216 14.6666 10.7892V5.20927C14.6666 2.7826 13.2198 1.33594 10.7932 1.33594ZM8.18656 10.0426C8.35984 10.256 8.32656 10.576 8.10656 10.7426C8.0132 10.816 7.90653 10.8492 7.7932 10.8492C7.64653 10.8492 7.49987 10.7826 7.39987 10.6626L5.90652 8.79596L4.41318 10.6626C4.31318 10.7826 4.16652 10.8492 4.01984 10.8492C3.91318 10.8492 3.79984 10.816 3.70652 10.7426C3.49318 10.5692 3.45318 10.256 3.62652 10.0426L5.25985 8.0026L3.62652 5.9626C3.45318 5.74927 3.48652 5.42927 3.70652 5.26261C3.91984 5.08927 4.23984 5.12261 4.40652 5.34261L5.89985 7.20927L7.3932 5.34261C7.56653 5.12927 7.87987 5.08927 8.0932 5.26261C8.30656 5.43595 8.34656 5.74927 8.1732 5.9626L6.53984 8.0026L8.18656 10.0426ZM12.4732 10.356C12.4732 10.6292 12.2466 10.856 11.9732 10.856H10.7932C9.86656 10.856 9.1132 10.1026 9.1132 9.17596C9.1132 8.24924 9.86656 7.49594 10.7932 7.49594H11.4732V5.64259C11.4732 5.36927 11.6998 5.14259 11.9732 5.14259C12.2466 5.14259 12.4732 5.36927 12.4732 5.64259V10.356Z" fill="white"/>
</svg>
