<svg width="16" height="16" viewBox="0 0 16 16" fill="none" xmlns="http://www.w3.org/2000/svg">
<path d="M8.00063 1.33594C4.32066 1.33594 1.33398 4.3226 1.33398 8.0026C1.33398 11.6826 4.32066 14.6692 8.00063 14.6692C11.6806 14.6692 14.6674 11.6826 14.6674 8.0026C14.6674 4.3226 11.6806 1.33594 8.00063 1.33594ZM7.50066 10.0026C7.50066 10.276 7.27398 10.5026 7.00066 10.5026C6.72732 10.5026 6.50066 10.276 6.50066 10.0026V8.0026C6.50066 7.72927 6.72732 7.5026 7.00066 7.5026C7.27398 7.5026 7.50066 7.72927 7.50066 8.0026V10.0026ZM9.50063 10.0026C9.50063 10.276 9.27399 10.5026 9.00063 10.5026C8.72735 10.5026 8.50063 10.276 8.50063 10.0026V7.33594C8.50063 6.87594 8.12735 6.5026 7.66732 6.5026H5.50066V10.0026C5.50066 10.276 5.27398 10.5026 5.00066 10.5026C4.72732 10.5026 4.50066 10.276 4.50066 10.0026V6.0026C4.50066 5.72927 4.72732 5.5026 5.00066 5.5026H7.66732C8.68063 5.5026 9.50063 6.3226 9.50063 7.33594V10.0026ZM11.5006 10.0026C11.5006 10.276 11.274 10.5026 11.0006 10.5026C10.7274 10.5026 10.5006 10.276 10.5006 10.0026V6.0026C10.5006 5.72927 10.7274 5.5026 11.0006 5.5026C11.274 5.5026 11.5006 5.72927 11.5006 6.0026V10.0026Z" fill="white"/>
</svg>
