<svg width="16" height="16" viewBox="0 0 16 16" fill="none" xmlns="http://www.w3.org/2000/svg">
<path d="M3.63898 1.33594H2.69896C2.07896 1.33594 1.76563 2.08927 2.20563 2.52927L6.02562 6.34927C7.11896 7.4426 8.88562 7.4426 9.97898 6.34927L13.799 2.52927C14.239 2.08927 13.9256 1.33594 13.3056 1.33594H12.3656C11.8123 1.33594 11.279 1.55594 10.8856 1.94927L8.49898 4.33594C8.22562 4.60927 7.78563 4.60927 7.51229 4.33594L5.12563 1.94927C4.72563 1.55594 4.19231 1.33594 3.63898 1.33594Z" fill="white"/>
<path d="M3.63898 14.6458H2.69896C2.07896 14.6458 1.76563 13.8925 2.20563 13.4525L6.02562 9.63246C7.11896 8.53918 8.88562 8.53918 9.97898 9.63246L13.799 13.4525C14.239 13.8925 13.9256 14.6458 13.3056 14.6458H12.3656C11.8123 14.6458 11.279 14.4258 10.8856 14.0325L8.49898 11.6458C8.22562 11.3725 7.78563 11.3725 7.51229 11.6458L5.12563 14.0325C4.72563 14.4258 4.19231 14.6458 3.63898 14.6458Z" fill="white"/>
</svg>
