<svg width="16" height="16" viewBox="0 0 16 16" fill="none" xmlns="http://www.w3.org/2000/svg">
<path d="M8.00063 1.33594C4.32066 1.33594 1.33398 4.3226 1.33398 8.0026C1.33398 11.6826 4.32066 14.6692 8.00063 14.6692C11.6806 14.6692 14.6674 11.6826 14.6674 8.0026C14.6674 4.3226 11.6806 1.33594 8.00063 1.33594ZM12.334 9.34924C12.334 9.46924 12.2674 9.57596 12.1674 9.63596L10.834 10.4026C10.734 10.4626 10.6074 10.4626 10.5006 10.4026L9.16735 9.63596C9.06063 9.57596 9.00063 9.46924 9.00063 9.34924V8.79596L8.16735 9.27596C8.06735 9.33596 7.94066 9.33596 7.83398 9.27596L7.00066 8.79596V9.34924C7.00066 9.46924 6.93398 9.57596 6.83398 9.63596L5.50066 10.4026C5.40066 10.4626 5.27398 10.4626 5.16732 10.4026L3.83398 9.63596C3.72732 9.57596 3.66732 9.46924 3.66732 9.34924V7.82927C3.66732 7.70927 3.73398 7.6026 3.83398 7.5426L5.16732 6.77594C5.26732 6.71594 5.40066 6.71594 5.50066 6.77594L6.16732 7.1626V6.40927C6.16732 6.28927 6.23398 6.18259 6.33398 6.12259L7.83398 5.2626C7.93398 5.2026 8.06063 5.2026 8.16735 5.2626L9.66735 6.12259C9.77399 6.18259 9.83399 6.28927 9.83399 6.40927V7.1626L10.5006 6.77594C10.6006 6.71594 10.7274 6.71594 10.834 6.77594L12.1674 7.5426C12.274 7.6026 12.334 7.70927 12.334 7.82927V9.34924Z" fill="white"/>
</svg>
