<svg width="16" height="16" viewBox="0 0 16 16" fill="none" xmlns="http://www.w3.org/2000/svg">
<path d="M8.00063 1.33594C4.32066 1.33594 1.33398 4.3226 1.33398 8.0026C1.33398 11.6826 4.32066 14.6692 8.00063 14.6692C11.6806 14.6692 14.6674 11.6826 14.6674 8.0026C14.6674 4.3226 11.6806 1.33594 8.00063 1.33594ZM9.08735 9.52924C9.08735 9.86924 8.81399 10.1426 8.47399 10.1426L6.02066 10.1626C4.99398 10.1692 4.16065 9.3426 4.16065 8.31596V6.44927C4.16065 6.10927 4.43398 5.83594 4.77398 5.83594H7.23398C8.25399 5.83594 9.08063 6.66259 9.08063 7.6826V9.52924H9.08735ZM11.834 9.33596C11.834 9.6226 11.514 9.79596 11.274 9.63596L9.99399 8.7826C9.89399 8.71596 9.83399 8.6026 9.83399 8.4826V7.53594C9.83399 7.41594 9.89399 7.3026 9.99399 7.23594L11.274 6.38261C11.514 6.22261 11.834 6.39593 11.834 6.6826V9.33596Z" fill="white"/>
</svg>
