<svg width="24" height="24" viewBox="0 0 24 24" fill="none" xmlns="http://www.w3.org/2000/svg">
<path d="M20.8904 10.5303C20.4804 10.5303 20.1404 10.1903 20.1404 9.78032V6.91032L12.0004 2.84031L3.86035 6.91032V9.78032C3.86035 10.1903 3.52035 10.5303 3.11035 10.5303C2.70035 10.5303 2.36035 10.1903 2.36035 9.78032V6.45031C2.36035 6.17031 2.5204 5.91031 2.7804 5.78031L11.6703 1.34031C11.8803 1.23031 12.1304 1.23031 12.3404 1.34031L21.2303 5.78031C21.4803 5.91031 21.6504 6.17031 21.6504 6.45031V9.78032C21.6404 10.1903 21.3004 10.5303 20.8904 10.5303Z" fill="white"/>
<path d="M12.0004 22.7505C11.8804 22.7505 11.7703 22.7205 11.6703 22.6705L2.7804 18.2305C2.5304 18.1005 2.36035 17.8405 2.36035 17.5605V14.2305C2.36035 13.8205 2.70035 13.4805 3.11035 13.4805C3.52035 13.4805 3.86035 13.8205 3.86035 14.2305V17.1005L12.0004 21.1705L20.1404 17.1005V14.2305C20.1404 13.8205 20.4804 13.4805 20.8904 13.4805C21.3004 13.4805 21.6404 13.8205 21.6404 14.2305V17.5605C21.6404 17.8405 21.4803 18.1005 21.2203 18.2305L12.3304 22.6705C12.2304 22.7205 12.1204 22.7505 12.0004 22.7505Z" fill="white"/>
<path d="M12 22.7504C11.59 22.7504 11.25 22.4104 11.25 22.0004V16.4404C11.25 16.0304 11.59 15.6904 12 15.6904C12.41 15.6904 12.75 16.0304 12.75 16.4404V22.0004C12.75 22.4104 12.41 22.7504 12 22.7504Z" fill="white"/>
<path d="M11.9996 17.1896C9.13957 17.1896 6.80957 14.8596 6.80957 11.9996C6.80957 9.13957 9.13957 6.80957 11.9996 6.80957C14.8596 6.80957 17.1896 9.13957 17.1896 11.9996C17.1896 14.8596 14.8596 17.1896 11.9996 17.1896ZM11.9996 8.30957C9.95957 8.30957 8.30957 9.96957 8.30957 11.9996C8.30957 14.0296 9.96957 15.6896 11.9996 15.6896C14.0296 15.6896 15.6896 14.0296 15.6896 11.9996C15.6896 9.96957 14.0396 8.30957 11.9996 8.30957Z" fill="white"/>
</svg>
