<svg width="24" height="24" viewBox="0 0 24 24" fill="none" xmlns="http://www.w3.org/2000/svg">
<path d="M15 22.75H9C3.57 22.75 1.25 20.43 1.25 15V9C1.25 3.57 3.57 1.25 9 1.25H15C20.43 1.25 22.75 3.57 22.75 9V15C22.75 20.43 20.43 22.75 15 22.75ZM9 2.75C4.39 2.75 2.75 4.39 2.75 9V15C2.75 19.61 4.39 21.25 9 21.25H15C19.61 21.25 21.25 19.61 21.25 15V9C21.25 4.39 19.61 2.75 15 2.75H9Z" fill="white"/>
<path d="M14.1108 17.6098C13.9208 17.6098 13.7308 17.5398 13.5808 17.3898C13.2908 17.0998 13.2908 16.6198 13.5808 16.3298L16.6208 13.2898C16.9108 12.9998 17.3908 12.9998 17.6808 13.2898C17.9708 13.5798 17.9708 14.0598 17.6808 14.3498L14.6408 17.3898C14.5008 17.5298 14.3108 17.6098 14.1108 17.6098Z" fill="white"/>
<path d="M17.1496 14.5703H6.84961C6.43961 14.5703 6.09961 14.2303 6.09961 13.8203C6.09961 13.4103 6.43961 13.0703 6.84961 13.0703H17.1596C17.5696 13.0703 17.9096 13.4103 17.9096 13.8203C17.9096 14.2303 17.5696 14.5703 17.1496 14.5703Z" fill="white"/>
<path d="M6.84906 10.9301C6.65906 10.9301 6.46906 10.8601 6.31906 10.7101C6.02906 10.4201 6.02906 9.94008 6.31906 9.65008L9.35906 6.61008C9.64906 6.32008 10.1291 6.32008 10.4191 6.61008C10.7091 6.90008 10.7091 7.38008 10.4191 7.67008L7.37906 10.7101C7.22906 10.8601 7.03906 10.9301 6.84906 10.9301Z" fill="white"/>
<path d="M17.1496 10.9297H6.84961C6.43961 10.9297 6.09961 10.5897 6.09961 10.1797C6.09961 9.76969 6.43961 9.42969 6.84961 9.42969H17.1596C17.5696 9.42969 17.9096 9.76969 17.9096 10.1797C17.9096 10.5897 17.5696 10.9297 17.1496 10.9297Z" fill="white"/>
</svg>
