<svg width="24" height="24" viewBox="0 0 24 24" fill="none" xmlns="http://www.w3.org/2000/svg">
<path d="M18.0691 10.3204C17.8791 10.3204 17.6891 10.2504 17.5391 10.1004L11.9991 4.56043L6.45914 10.1004C6.16914 10.3904 5.68914 10.3904 5.39914 10.1004C5.10914 9.81043 5.10914 9.33043 5.39914 9.04043L11.4691 2.97043C11.7591 2.68043 12.2391 2.68043 12.5291 2.97043L18.5991 9.04043C18.8891 9.33043 18.8891 9.81043 18.5991 10.1004C18.4591 10.2504 18.2591 10.3204 18.0691 10.3204Z" fill="white"/>
<path d="M12 21.2499C11.59 21.2499 11.25 20.9099 11.25 20.4999V3.66992C11.25 3.25992 11.59 2.91992 12 2.91992C12.41 2.91992 12.75 3.25992 12.75 3.66992V20.4999C12.75 20.9099 12.41 21.2499 12 21.2499Z" fill="white"/>
</svg>
