<svg width="24" height="24" viewBox="0 0 24 24" fill="none" xmlns="http://www.w3.org/2000/svg">
<path d="M12 22.75C6.07 22.75 1.25 17.93 1.25 12C1.25 6.07 6.07 1.25 12 1.25C17.93 1.25 22.75 6.07 22.75 12C22.75 17.93 17.93 22.75 12 22.75ZM12 2.75C6.9 2.75 2.75 6.9 2.75 12C2.75 17.1 6.9 21.25 12 21.25C17.1 21.25 21.25 17.1 21.25 12C21.25 6.9 17.1 2.75 12 2.75Z" fill="white"/>
<path d="M12 16.25C11.59 16.25 11.25 15.91 11.25 15.5V9.5C11.25 9.09 11.59 8.75 12 8.75C12.41 8.75 12.75 9.09 12.75 9.5V15.5C12.75 15.91 12.41 16.25 12 16.25Z" fill="white"/>
<path d="M14.9995 12.2504C14.8095 12.2504 14.6195 12.1804 14.4695 12.0304L11.9995 9.56043L9.52945 12.0304C9.23945 12.3204 8.75945 12.3204 8.46945 12.0304C8.17945 11.7404 8.17945 11.2604 8.46945 10.9704L11.4695 7.97043C11.7595 7.68043 12.2395 7.68043 12.5295 7.97043L15.5295 10.9704C15.8195 11.2604 15.8195 11.7404 15.5295 12.0304C15.3795 12.1804 15.1895 12.2504 14.9995 12.2504Z" fill="white"/>
</svg>
