<svg width="24" height="24" viewBox="0 0 24 24" fill="none" xmlns="http://www.w3.org/2000/svg">
<path d="M17.2788 11.2002C17.0888 11.2002 16.8988 11.1302 16.7488 10.9802C16.4588 10.6902 16.4588 10.2102 16.7488 9.9202L19.9388 6.7302L16.7488 3.54019C16.4588 3.25019 16.4588 2.7702 16.7488 2.4802C17.0387 2.1902 17.5187 2.1902 17.8087 2.4802L21.5288 6.20023C21.6688 6.34023 21.7488 6.5302 21.7488 6.7302C21.7488 6.9302 21.6688 7.12022 21.5288 7.26022L17.8087 10.9802C17.6587 11.1202 17.4688 11.2002 17.2788 11.2002Z" fill="white"/>
<path d="M21 7.48047H3C2.59 7.48047 2.25 7.14047 2.25 6.73047C2.25 6.32047 2.59 5.98047 3 5.98047H21C21.41 5.98047 21.75 6.32047 21.75 6.73047C21.75 7.14047 21.41 7.48047 21 7.48047Z" fill="white"/>
<path d="M6.71997 21.75C6.52997 21.75 6.34 21.68 6.19 21.53L2.46997 17.81C2.32997 17.67 2.25 17.48 2.25 17.28C2.25 17.08 2.32997 16.89 2.46997 16.75L6.19 13.03C6.48 12.74 6.96 12.74 7.25 13.03C7.54 13.32 7.54 13.8 7.25 14.09L4.06 17.28L7.25 20.4699C7.54 20.7599 7.54 21.24 7.25 21.53C7.11 21.68 6.91997 21.75 6.71997 21.75Z" fill="white"/>
<path d="M21 18.0195H3C2.59 18.0195 2.25 17.6795 2.25 17.2695C2.25 16.8595 2.59 16.5195 3 16.5195H21C21.41 16.5195 21.75 16.8595 21.75 17.2695C21.75 17.6795 21.41 18.0195 21 18.0195Z" fill="white"/>
</svg>
