<svg width="24" height="24" viewBox="0 0 24 24" fill="none" xmlns="http://www.w3.org/2000/svg">
<path d="M12.1406 15.8198C11.7306 15.8198 11.3906 15.4798 11.3906 15.0698V13.1098C11.3906 10.1798 13.7706 7.7998 16.7106 7.7998H18.6706C19.0806 7.7998 19.4206 8.1398 19.4206 8.5498C19.4206 8.9598 19.0806 9.2998 18.6706 9.2998H16.7106C14.6106 9.2998 12.8906 11.0098 12.8906 13.1098V15.0698C12.8906 15.4898 12.5506 15.8198 12.1406 15.8198Z" fill="white"/>
<path d="M12.1411 17.9996C11.7311 17.9996 11.3911 17.6596 11.3911 17.2496V13.1196C11.3911 11.0196 9.68112 9.30957 7.58112 9.30957H5.62109C5.21109 9.30957 4.87109 8.96957 4.87109 8.55957C4.87109 8.14957 5.21109 7.80957 5.62109 7.80957H7.58112C10.5111 7.80957 12.8911 10.1896 12.8911 13.1196V17.2496C12.8911 17.6596 12.5511 17.9996 12.1411 17.9996Z" fill="white"/>
<path d="M7.13931 11.1004C6.94931 11.1004 6.75928 11.0304 6.60928 10.8804L4.8093 9.08043C4.5193 8.79043 4.5193 8.31043 4.8093 8.02043L6.60928 6.22043C6.89928 5.93043 7.37928 5.93043 7.66928 6.22043C7.95928 6.51043 7.95928 6.99043 7.66928 7.28043L6.39932 8.55043L7.66928 9.82044C7.95928 10.1104 7.95928 10.5904 7.66928 10.8804C7.51928 11.0304 7.32931 11.1004 7.13931 11.1004Z" fill="white"/>
<path d="M16.8607 11.1004C16.6707 11.1004 16.4808 11.0304 16.3308 10.8804C16.0408 10.5904 16.0408 10.1104 16.3308 9.82044L17.6007 8.55043L16.3308 7.28043C16.0408 6.99043 16.0408 6.51043 16.3308 6.22043C16.6208 5.93043 17.1008 5.93043 17.3908 6.22043L19.1908 8.02043C19.4808 8.31043 19.4808 8.79043 19.1908 9.08043L17.3908 10.8804C17.2508 11.0304 17.0507 11.1004 16.8607 11.1004Z" fill="white"/>
<path d="M15 22.75H9C3.57 22.75 1.25 20.43 1.25 15V9C1.25 3.57 3.57 1.25 9 1.25H15C20.43 1.25 22.75 3.57 22.75 9V15C22.75 20.43 20.43 22.75 15 22.75ZM9 2.75C4.39 2.75 2.75 4.39 2.75 9V15C2.75 19.61 4.39 21.25 9 21.25H15C19.61 21.25 21.25 19.61 21.25 15V9C21.25 4.39 19.61 2.75 15 2.75H9Z" fill="white"/>
</svg>
