<svg width="24" height="24" viewBox="0 0 24 24" fill="none" xmlns="http://www.w3.org/2000/svg">
<path d="M15.4897 20.7604C15.2997 20.7604 15.1097 20.6904 14.9597 20.5404C14.6697 20.2504 14.6697 19.7704 14.9597 19.4804L19.9697 14.4704C20.2597 14.1804 20.7397 14.1804 21.0297 14.4704C21.3197 14.7604 21.3197 15.2404 21.0297 15.5304L16.0197 20.5404C15.8697 20.6804 15.6797 20.7604 15.4897 20.7604Z" fill="white"/>
<path d="M20.5 15.7402H3.5C3.09 15.7402 2.75 15.4002 2.75 14.9902C2.75 14.5802 3.09 14.2402 3.5 14.2402H20.5C20.91 14.2402 21.25 14.5802 21.25 14.9902C21.25 15.4002 20.91 15.7402 20.5 15.7402Z" fill="white"/>
<path d="M3.49945 9.76043C3.30945 9.76043 3.11945 9.69043 2.96945 9.54043C2.67945 9.25043 2.67945 8.77043 2.96945 8.48043L7.97945 3.47043C8.26945 3.18043 8.74945 3.18043 9.03945 3.47043C9.32945 3.76043 9.32945 4.24043 9.03945 4.53043L4.02945 9.54043C3.88945 9.68043 3.68945 9.76043 3.49945 9.76043Z" fill="white"/>
<path d="M20.5 9.75977H3.5C3.09 9.75977 2.75 9.41977 2.75 9.00977C2.75 8.59977 3.09 8.25977 3.5 8.25977H20.5C20.91 8.25977 21.25 8.59977 21.25 9.00977C21.25 9.41977 20.91 9.75977 20.5 9.75977Z" fill="white"/>
</svg>
