<svg width="24" height="24" viewBox="0 0 24 24" fill="none" xmlns="http://www.w3.org/2000/svg">
<path d="M9.19046 17.0104H6.45047C6.02047 17.0104 5.62043 16.7804 5.41043 16.4104C5.20043 16.0404 5.20043 15.5804 5.41043 15.2004L11.0105 5.5904C11.2105 5.2404 11.5804 5.0204 11.9804 4.9904C12.3804 4.9604 12.7705 5.15041 13.0105 5.47041L14.5805 7.5604C15.2105 8.4004 15.2605 9.5604 14.7005 10.4604L11.3604 15.8104C10.8904 16.5604 10.0805 17.0104 9.19046 17.0104ZM6.96048 15.5104H9.18045C9.55045 15.5104 9.89047 15.3204 10.0805 15.0104L13.4204 9.66041C13.6504 9.29041 13.6305 8.8104 13.3705 8.4604L12.0705 6.73041L6.96048 15.5104Z" fill="white"/>
<path d="M17.5502 17.0099H13.7102C13.2802 17.0099 12.8802 16.7799 12.6602 16.3999C12.4502 16.0199 12.4502 15.5599 12.6702 15.1899L14.5902 11.9899C15.0302 11.2599 16.2102 11.2599 16.6502 11.9899L18.5702 15.1899C18.7902 15.5599 18.8002 16.0299 18.5802 16.3999C18.3902 16.7699 17.9802 17.0099 17.5502 17.0099ZM14.2402 15.5099H17.0302L15.6302 13.1799L14.2402 15.5099Z" fill="white"/>
<path d="M12 22.75C6.07 22.75 1.25 17.93 1.25 12C1.25 6.07 6.07 1.25 12 1.25C17.93 1.25 22.75 6.07 22.75 12C22.75 17.93 17.93 22.75 12 22.75ZM12 2.75C6.9 2.75 2.75 6.9 2.75 12C2.75 17.1 6.9 21.25 12 21.25C17.1 21.25 21.25 17.1 21.25 12C21.25 6.9 17.1 2.75 12 2.75Z" fill="white"/>
</svg>
