<svg width="24" height="24" viewBox="0 0 24 24" fill="none" xmlns="http://www.w3.org/2000/svg">
<path d="M15 22.75H9C3.57 22.75 1.25 20.43 1.25 15V9C1.25 3.57 3.57 1.25 9 1.25H15C20.43 1.25 22.75 3.57 22.75 9V15C22.75 20.43 20.43 22.75 15 22.75ZM9 2.75C4.39 2.75 2.75 4.39 2.75 9V15C2.75 19.61 4.39 21.25 9 21.25H15C19.61 21.25 21.25 19.61 21.25 15V9C21.25 4.39 19.61 2.75 15 2.75H9Z" fill="white"/>
<path d="M13.9204 16.1297H9.00039C8.59039 16.1297 8.25039 15.7897 8.25039 15.3797C8.25039 14.9697 8.59039 14.6297 9.00039 14.6297H13.9204C15.2004 14.6297 16.2504 13.5897 16.2504 12.2997C16.2504 11.0097 15.2104 9.96973 13.9204 9.96973H7.15039C6.74039 9.96973 6.40039 9.62973 6.40039 9.21973C6.40039 8.80973 6.74039 8.46973 7.15039 8.46973H13.9204C16.0304 8.46973 17.7504 10.1897 17.7504 12.2997C17.7504 14.4097 16.0304 16.1297 13.9204 16.1297Z" fill="white"/>
<path d="M8.56945 11.5203C8.37945 11.5203 8.18945 11.4503 8.03945 11.3003L6.46945 9.73032C6.17945 9.44032 6.17945 8.96031 6.46945 8.67031L8.03945 7.10031C8.32945 6.81031 8.80945 6.81031 9.09945 7.10031C9.38945 7.39031 9.38945 7.87032 9.09945 8.16032L8.05945 9.20031L9.09945 10.2403C9.38945 10.5303 9.38945 11.0103 9.09945 11.3003C8.95945 11.4403 8.76945 11.5203 8.56945 11.5203Z" fill="white"/>
</svg>
