<svg width="24" height="24" viewBox="0 0 24 24" fill="none" xmlns="http://www.w3.org/2000/svg">
<path d="M5.18988 6.38043C4.99988 6.38043 4.79988 6.30043 4.65988 6.16043C4.36988 5.87043 4.36988 5.39043 4.65988 5.10043L8.28988 1.47043C8.57988 1.18043 9.05988 1.18043 9.34988 1.47043C9.63988 1.76043 9.63988 2.24043 9.34988 2.53043L5.71988 6.16043C5.56988 6.30043 5.37988 6.38043 5.18988 6.38043Z" fill="white"/>
<path d="M18.8101 6.38043C18.6201 6.38043 18.4301 6.31043 18.2801 6.16043L14.6501 2.53043C14.3601 2.24043 14.3601 1.76043 14.6501 1.47043C14.9401 1.18043 15.4201 1.18043 15.7101 1.47043L19.3401 5.10043C19.6301 5.39043 19.6301 5.87043 19.3401 6.16043C19.2001 6.30043 19.0001 6.38043 18.8101 6.38043Z" fill="white"/>
<path d="M20.21 10.5996C20.14 10.5996 20.07 10.5996 20 10.5996H19.77H4C3.3 10.6096 2.5 10.6096 1.92 10.0296C1.46 9.57961 1.25 8.87961 1.25 7.84961C1.25 5.09961 3.26 5.09961 4.22 5.09961H19.78C20.74 5.09961 22.75 5.09961 22.75 7.84961C22.75 8.88961 22.54 9.57961 22.08 10.0296C21.56 10.5496 20.86 10.5996 20.21 10.5996ZM4.22 9.09961H20.01C20.46 9.10961 20.88 9.10961 21.02 8.96961C21.09 8.89961 21.24 8.65961 21.24 7.84961C21.24 6.71961 20.96 6.59961 19.77 6.59961H4.22C3.03 6.59961 2.75 6.71961 2.75 7.84961C2.75 8.65961 2.91 8.89961 2.97 8.96961C3.11 9.09961 3.54 9.09961 3.98 9.09961H4.22Z" fill="white"/>
<path d="M9.75977 18.3C9.34977 18.3 9.00977 17.96 9.00977 17.55V14C9.00977 13.59 9.34977 13.25 9.75977 13.25C10.1698 13.25 10.5098 13.59 10.5098 14V17.55C10.5098 17.97 10.1698 18.3 9.75977 18.3Z" fill="white"/>
<path d="M14.3604 18.3C13.9504 18.3 13.6104 17.96 13.6104 17.55V14C13.6104 13.59 13.9504 13.25 14.3604 13.25C14.7704 13.25 15.1104 13.59 15.1104 14V17.55C15.1104 17.97 14.7704 18.3 14.3604 18.3Z" fill="white"/>
<path d="M14.8898 22.7498H8.85975C5.27975 22.7498 4.47975 20.6198 4.16975 18.7698L2.75975 10.1198C2.68975 9.70975 2.96975 9.32975 3.37975 9.25975C3.78975 9.18975 4.16975 9.46975 4.23975 9.87975L5.64975 18.5198C5.93975 20.2898 6.53975 21.2498 8.85975 21.2498H14.8898C17.4598 21.2498 17.7498 20.3498 18.0798 18.6098L19.7598 9.85975C19.8398 9.44975 20.2298 9.17975 20.6398 9.26975C21.0498 9.34975 21.3098 9.73975 21.2298 10.1498L19.5498 18.8998C19.1598 20.9298 18.5098 22.7498 14.8898 22.7498Z" fill="white"/>
</svg>
