<svg width="24" height="24" viewBox="0 0 24 24" fill="none" xmlns="http://www.w3.org/2000/svg">
<path d="M8.33979 10.8299C8.01979 10.8299 7.69979 10.7099 7.45979 10.4599L5.7298 8.72988C5.2398 8.23988 5.2398 7.44988 5.7298 6.95988L10.8798 1.80988C11.3698 1.31988 12.1598 1.31988 12.6498 1.80988L14.3798 3.53988C14.8698 4.02988 14.8698 4.81988 14.3798 5.30988L9.2298 10.4599C8.9798 10.7099 8.65979 10.8299 8.33979 10.8299ZM6.95979 7.84988L8.33979 9.22988L13.1298 4.43988L11.7498 3.05988L6.95979 7.84988Z" fill="white"/>
<path d="M8.33979 18.64C8.01979 18.64 7.69979 18.52 7.45979 18.27L5.7298 16.54C5.2398 16.05 5.2398 15.26 5.7298 14.77L14.7798 5.72004C15.2698 5.23004 16.0598 5.23004 16.5498 5.72004L18.2798 7.45004C18.7698 7.94004 18.7698 8.73004 18.2798 9.22004L9.2298 18.27C8.9798 18.52 8.65979 18.64 8.33979 18.64ZM6.95979 15.66L8.33979 17.04L17.0398 8.34004L15.6598 6.96004L6.95979 15.66Z" fill="white"/>
<path d="M12.2402 22.5404C11.9202 22.5404 11.6002 22.4204 11.3602 22.1704L9.6302 20.4404C9.1402 19.9504 9.1402 19.1604 9.6302 18.6704L18.6802 9.62043C19.1702 9.13043 19.9602 9.13043 20.4502 9.62043L22.1802 11.3504C22.6702 11.8404 22.6702 12.6304 22.1802 13.1204L13.1302 22.1704C12.8802 22.4204 12.5602 22.5404 12.2402 22.5404ZM10.8702 19.5604L12.2502 20.9404L20.9502 12.2404L19.5702 10.8604L10.8702 19.5604Z" fill="white"/>
<path d="M4.44041 14.7397C4.12041 14.7397 3.8004 14.6197 3.5604 14.3797L1.83039 12.6497C1.34039 12.1597 1.34039 11.3697 1.83039 10.8797L3.5604 9.14973C4.0504 8.65973 4.84039 8.65973 5.33039 9.14973L7.0604 10.8797C7.5504 11.3697 7.5504 12.1597 7.0604 12.6497L5.33039 14.3797C5.08039 14.6197 4.76041 14.7397 4.44041 14.7397ZM3.0604 11.7597L4.44041 13.1397L5.82041 11.7597L4.44041 10.3797L3.0604 11.7597Z" fill="white"/>
</svg>
