<svg width="24" height="24" viewBox="0 0 24 24" fill="none" xmlns="http://www.w3.org/2000/svg">
<path d="M16.0004 10.7504C15.8104 10.7504 15.6204 10.6804 15.4704 10.5304L12.0004 7.06043L8.53043 10.5304C8.24043 10.8204 7.76043 10.8204 7.47043 10.5304L5.47043 8.53043C5.18043 8.24043 5.18043 7.76043 5.47043 7.47043L11.4704 1.47043C11.7604 1.18043 12.2404 1.18043 12.5304 1.47043L18.5304 7.47043C18.8204 7.76043 18.8204 8.24043 18.5304 8.53043L16.5304 10.5304C16.3804 10.6804 16.1904 10.7504 16.0004 10.7504ZM12.0004 5.25043C12.1904 5.25043 12.3804 5.32043 12.5304 5.47043L16.0004 8.94043L16.9404 8.00043L12.0004 3.06043L7.06043 8.00043L8.00043 8.94043L11.4704 5.47043C11.6204 5.32043 11.8104 5.25043 12.0004 5.25043Z" fill="white"/>
<path d="M12.0004 22.7504C11.8104 22.7504 11.6204 22.6804 11.4704 22.5304L5.47043 16.5304C5.18043 16.2404 5.18043 15.7604 5.47043 15.4704L7.47043 13.4704C7.76043 13.1804 8.24043 13.1804 8.53043 13.4704L12.0004 16.9404L15.4704 13.4704C15.7604 13.1804 16.2404 13.1804 16.5304 13.4704L18.5304 15.4704C18.8204 15.7604 18.8204 16.2404 18.5304 16.5304L12.5304 22.5304C12.3804 22.6804 12.1904 22.7504 12.0004 22.7504ZM7.06043 16.0004L12.0004 20.9404L16.9404 16.0004L16.0004 15.0604L12.5304 18.5304C12.2404 18.8204 11.7604 18.8204 11.4704 18.5304L8.00043 15.0604L7.06043 16.0004Z" fill="white"/>
<path d="M19.7504 15.0004C19.5604 15.0004 19.3704 14.9304 19.2204 14.7804L16.9704 12.5304C16.6804 12.2404 16.6804 11.7604 16.9704 11.4704L19.2204 9.22043C19.5104 8.93043 19.9904 8.93043 20.2804 9.22043L22.5304 11.4704C22.8204 11.7604 22.8204 12.2404 22.5304 12.5304L20.2804 14.7804C20.1304 14.9304 19.9404 15.0004 19.7504 15.0004ZM18.5604 12.0004L19.7504 13.1904L20.9404 12.0004L19.7504 10.8104L18.5604 12.0004Z" fill="white"/>
<path d="M4.25043 15.0004C4.06043 15.0004 3.87043 14.9304 3.72043 14.7804L1.47043 12.5304C1.18043 12.2404 1.18043 11.7604 1.47043 11.4704L3.72043 9.22043C4.01043 8.93043 4.49043 8.93043 4.78043 9.22043L7.03043 11.4704C7.32043 11.7604 7.32043 12.2404 7.03043 12.5304L4.78043 14.7804C4.63043 14.9304 4.44043 15.0004 4.25043 15.0004ZM3.06043 12.0004L4.25043 13.1904L5.44043 12.0004L4.25043 10.8104L3.06043 12.0004Z" fill="white"/>
<path d="M12 15.23C11.81 15.23 11.62 15.16 11.47 15.01L8.98996 12.53C8.69996 12.24 8.69996 11.76 8.98996 11.47L11.47 8.98996C11.76 8.69996 12.24 8.69996 12.53 8.98996L15.01 11.47C15.3 11.76 15.3 12.24 15.01 12.53L12.53 15.01C12.38 15.15 12.19 15.23 12 15.23ZM10.58 12L12 13.42L13.42 12L12 10.58L10.58 12Z" fill="white"/>
</svg>
