<svg width="24" height="24" viewBox="0 0 24 24" fill="none" xmlns="http://www.w3.org/2000/svg">
<path d="M8.96973 16.75C8.57973 16.75 8.23973 16.72 7.91973 16.67C4.11973 16.17 1.21973 12.87 1.21973 9C1.21973 4.73 4.69973 1.25 8.96973 1.25C12.8397 1.25 16.1397 4.14 16.6397 7.97C16.6897 8.27 16.7197 8.61 16.7197 9C16.7197 13.27 13.2497 16.75 8.96973 16.75ZM8.96973 2.75C5.51973 2.75 2.71973 5.55 2.71973 9C2.71973 12.12 5.04973 14.78 8.13973 15.19C8.39973 15.23 8.66973 15.25 8.96973 15.25C12.4197 15.25 15.2197 12.45 15.2197 9C15.2197 8.7 15.1997 8.43 15.1597 8.19C14.7497 5.08 12.0997 2.75 8.96973 2.75Z" fill="white"/>
<path d="M14.9701 22.7497C11.1001 22.7497 7.80013 19.8597 7.30013 16.0297C7.27013 15.7897 7.35013 15.5597 7.52013 15.3897C7.69013 15.2197 7.94013 15.1497 8.17013 15.1897C8.41013 15.2297 8.67013 15.2497 8.97013 15.2497C12.4201 15.2497 15.2201 12.4497 15.2201 8.99973C15.2201 8.69973 15.2001 8.42973 15.1601 8.18973C15.1201 7.95973 15.2001 7.71973 15.3601 7.54973C15.5201 7.37973 15.7501 7.28973 16.0001 7.32973C19.8301 7.82973 22.7201 11.1297 22.7201 14.9997C22.7201 19.2697 19.2501 22.7497 14.9701 22.7497ZM8.98013 16.7497C9.74013 19.3697 12.1701 21.2497 14.9701 21.2497C18.4201 21.2497 21.2201 18.4497 21.2201 14.9997C21.2201 12.1997 19.3401 9.75973 16.7201 9.00973C16.7201 13.2697 13.2501 16.7497 8.98013 16.7497Z" fill="white"/>
<path d="M15.4295 16.1603C15.2395 16.1603 15.0495 16.0903 14.8995 15.9503L13.5995 14.6703C13.3095 14.3803 13.2995 13.9003 13.5895 13.6103C13.8795 13.3203 14.3495 13.3103 14.6495 13.6003L15.9495 14.8803C16.2395 15.1703 16.2495 15.6503 15.9595 15.9403C15.8195 16.0803 15.6195 16.1603 15.4295 16.1603Z" fill="white"/>
<path d="M16.9702 12.7504C16.7802 12.7504 16.5902 12.6804 16.4402 12.5304L15.4402 11.5304C15.1502 11.2404 15.1502 10.7604 15.4402 10.4704C15.7302 10.1804 16.2102 10.1804 16.5002 10.4704L17.5002 11.4704C17.7902 11.7604 17.7902 12.2404 17.5002 12.5304C17.3602 12.6804 17.1702 12.7504 16.9702 12.7504Z" fill="white"/>
<path d="M11.9702 17.7504C11.7802 17.7504 11.5902 17.6804 11.4402 17.5304L10.4402 16.5304C10.1502 16.2404 10.1502 15.7604 10.4402 15.4704C10.7302 15.1804 11.2102 15.1804 11.5002 15.4704L12.5002 16.4704C12.7902 16.7604 12.7902 17.2404 12.5002 17.5304C12.3602 17.6804 12.1702 17.7504 11.9702 17.7504Z" fill="white"/>
</svg>
