<svg width="24" height="24" viewBox="0 0 24 24" fill="none" xmlns="http://www.w3.org/2000/svg">
<path d="M14.9697 22.75H8.96973C3.53973 22.75 1.21973 20.43 1.21973 15V9C1.21973 3.57 3.53973 1.25 8.96973 1.25H10.9697C11.3797 1.25 11.7197 1.59 11.7197 2C11.7197 2.41 11.3797 2.75 10.9697 2.75H8.96973C4.35973 2.75 2.71973 4.39 2.71973 9V15C2.71973 19.61 4.35973 21.25 8.96973 21.25H14.9697C19.5797 21.25 21.2197 19.61 21.2197 15V13C21.2197 12.59 21.5597 12.25 21.9697 12.25C22.3797 12.25 22.7197 12.59 22.7197 13V15C22.7197 20.43 20.4097 22.75 14.9697 22.75Z" fill="white"/>
<path d="M12.7796 15.2399C12.6296 15.2399 12.4896 15.1999 12.3596 15.1099C12.1496 14.9699 12.0296 14.7399 12.0296 14.4899C12.0296 14.3799 12.0196 14.2599 11.9996 14.1399C11.9296 13.6099 11.6896 13.1399 11.2896 12.7299C10.8796 12.3199 10.3796 12.0599 9.8296 11.9899C9.7496 11.9799 9.6196 11.9699 9.4996 11.9799C9.2496 11.9999 8.9996 11.8899 8.8496 11.6899C8.6996 11.4899 8.6596 11.2199 8.7396 10.9799C8.8596 10.6399 9.0496 10.3199 9.2696 10.0699L10.4996 8.52989C12.6396 5.85989 16.9496 2.65989 20.1296 1.38989C20.8596 1.10989 21.6296 1.26989 22.1596 1.79989C22.7096 2.34989 22.8696 3.12989 22.5796 3.83989C21.3096 7.00989 18.1096 11.3299 15.4496 13.4599L13.8796 14.7199C13.5696 14.9399 13.3196 15.0899 13.0596 15.1899C12.9696 15.2199 12.8696 15.2399 12.7796 15.2399ZM10.7196 10.6699C11.3296 10.8699 11.8796 11.2099 12.3496 11.6699C12.8096 12.1299 13.1396 12.6599 13.3296 13.2299L14.5096 12.2799C16.9996 10.2799 19.9996 6.23989 21.1896 3.26989C21.2696 3.07989 21.1796 2.93989 21.0996 2.84989C21.0496 2.79989 20.9096 2.68989 20.6796 2.77989C17.7196 3.96989 13.6796 6.96989 11.6796 9.45989L10.7196 10.6699Z" fill="white"/>
<path d="M7.69999 18.7502C7.05999 18.7502 6.44999 18.5002 5.98999 18.0402C5.45999 17.5102 5.19999 16.7802 5.28999 16.0302L5.49999 14.0702C5.71999 12.0402 7.36999 10.5402 9.43999 10.5002C9.59999 10.4902 9.79999 10.5002 9.98999 10.5102C10.9 10.6302 11.71 11.0302 12.35 11.6802C12.99 12.3202 13.38 13.0802 13.49 13.9402C13.52 14.1302 13.53 14.3202 13.53 14.5002C13.53 15.5902 13.11 16.6202 12.34 17.3902C11.71 18.0202 10.89 18.4102 9.95999 18.5302L7.97999 18.7402C7.87999 18.7502 7.78999 18.7502 7.69999 18.7502ZM9.59999 11.9902C9.56999 11.9902 9.52999 11.9902 9.49999 11.9902C8.34999 12.0202 7.13999 12.7902 6.98999 14.2302L6.77999 16.2002C6.74999 16.4902 6.84999 16.7802 7.04999 16.9802C7.24999 17.1802 7.52999 17.2802 7.80999 17.2502L9.77999 17.0402C10.36 16.9702 10.88 16.7202 11.27 16.3302C11.75 15.8402 12.02 15.2002 12.02 14.5002C12.02 14.3902 12.01 14.2702 11.99 14.1502C11.92 13.6202 11.68 13.1502 11.28 12.7402C10.87 12.3302 10.37 12.0702 9.81999 12.0002C9.76999 11.9902 9.68999 11.9902 9.59999 11.9902Z" fill="white"/>
<path d="M15.8203 12.7304C15.4103 12.7304 15.0703 12.3904 15.0703 11.9804C15.0703 10.3104 13.7103 8.94043 12.0303 8.94043C11.6203 8.94043 11.2803 8.60043 11.2803 8.19043C11.2803 7.78043 11.6203 7.44043 12.0303 7.44043C14.5303 7.44043 16.5703 9.47043 16.5703 11.9804C16.5703 12.3904 16.2403 12.7304 15.8203 12.7304Z" fill="white"/>
</svg>
