<svg width="24" height="24" viewBox="0 0 24 24" fill="none" xmlns="http://www.w3.org/2000/svg">
<path d="M11.9996 18.1896C8.58957 18.1896 5.80957 15.4096 5.80957 11.9996C5.80957 8.58957 8.58957 5.80957 11.9996 5.80957C13.3496 5.80957 14.6396 6.23958 15.7196 7.04958C16.0496 7.29958 16.1196 7.76958 15.8696 8.09958C15.6196 8.42958 15.1496 8.49957 14.8196 8.24957C13.9996 7.62957 13.0296 7.30957 11.9996 7.30957C9.41957 7.30957 7.30957 9.40957 7.30957 11.9996C7.30957 14.5896 9.40957 16.6896 11.9996 16.6896C13.4796 16.6896 14.8396 16.0096 15.7396 14.8296C15.9896 14.4996 16.4596 14.4396 16.7896 14.6896C17.1196 14.9396 17.1796 15.4096 16.9296 15.7396C15.7496 17.2896 13.9496 18.1896 11.9996 18.1896Z" fill="white"/>
<path d="M17.42 12.09C16.36 12.09 15.5 11.23 15.5 10.17C15.5 9.11 16.36 8.25 17.42 8.25C18.48 8.25 19.34 9.11 19.34 10.17C19.34 11.23 18.48 12.09 17.42 12.09ZM17.42 9.75C17.19 9.75 17 9.94 17 10.17C17 10.4 17.19 10.59 17.42 10.59C17.65 10.59 17.84 10.4 17.84 10.17C17.84 9.94 17.65 9.75 17.42 9.75Z" fill="white"/>
<path d="M12 22.75C6.07 22.75 1.25 17.93 1.25 12C1.25 6.07 6.07 1.25 12 1.25C17.93 1.25 22.75 6.07 22.75 12C22.75 17.93 17.93 22.75 12 22.75ZM12 2.75C6.9 2.75 2.75 6.9 2.75 12C2.75 17.1 6.9 21.25 12 21.25C17.1 21.25 21.25 17.1 21.25 12C21.25 6.9 17.1 2.75 12 2.75Z" fill="white"/>
</svg>
