<svg width="24" height="24" viewBox="0 0 24 24" fill="none" xmlns="http://www.w3.org/2000/svg">
<path d="M13 22.75H9C3.57 22.75 1.25 20.43 1.25 15V9C1.25 3.57 3.57 1.25 9 1.25H15C20.43 1.25 22.75 3.57 22.75 9V13C22.75 13.41 22.41 13.75 22 13.75C21.59 13.75 21.25 13.41 21.25 13V9C21.25 4.39 19.61 2.75 15 2.75H9C4.39 2.75 2.75 4.39 2.75 9V15C2.75 19.61 4.39 21.25 9 21.25H13C13.41 21.25 13.75 21.59 13.75 22C13.75 22.41 13.41 22.75 13 22.75Z" fill="white"/>
<path d="M13 22.75H9C3.57 22.75 1.25 20.43 1.25 15V9C1.25 3.57 3.57 1.25 9 1.25H15C20.43 1.25 22.75 3.57 22.75 9V13C22.75 13.41 22.41 13.75 22 13.75C21.59 13.75 21.25 13.41 21.25 13V9C21.25 4.39 19.61 2.75 15 2.75H9C4.39 2.75 2.75 4.39 2.75 9V15C2.75 19.61 4.39 21.25 9 21.25H13C13.41 21.25 13.75 21.59 13.75 22C13.75 22.41 13.41 22.75 13 22.75Z" fill="white"/>
<path d="M7 14.6905C6.59 14.6905 6.25 14.3505 6.25 13.9405V10.7305C6.25 10.3205 6.59 9.98047 7 9.98047C7.41 9.98047 7.75 10.3205 7.75 10.7305V13.9405C7.75 14.3605 7.41 14.6905 7 14.6905Z" fill="white"/>
<path d="M17 14.6905C16.59 14.6905 16.25 14.3505 16.25 13.9405V10.7305C16.25 10.3205 16.59 9.98047 17 9.98047C17.41 9.98047 17.75 10.3205 17.75 10.7305V13.9405C17.75 14.3605 17.41 14.6905 17 14.6905Z" fill="white"/>
<path d="M13 22.75H9C3.57 22.75 1.25 20.43 1.25 15V9C1.25 3.57 3.57 1.25 9 1.25H15C20.43 1.25 22.75 3.57 22.75 9V13C22.75 13.41 22.41 13.75 22 13.75C21.59 13.75 21.25 13.41 21.25 13V9C21.25 4.39 19.61 2.75 15 2.75H9C4.39 2.75 2.75 4.39 2.75 9V15C2.75 19.61 4.39 21.25 9 21.25H13C13.41 21.25 13.75 21.59 13.75 22C13.75 22.41 13.41 22.75 13 22.75Z" fill="white"/>
<path d="M17.5803 21.7502C17.3803 21.7502 17.1903 21.6702 17.0503 21.5302L15.4703 19.9602C15.1803 19.6702 15.1703 19.1902 15.4703 18.9002C15.7603 18.6102 16.2403 18.6002 16.5303 18.9002L17.5403 19.9002L20.4403 16.5102C20.7103 16.1902 21.1803 16.1602 21.5003 16.4302C21.8103 16.7002 21.8503 17.1702 21.5803 17.4902L18.1603 21.4902C18.0203 21.6502 17.8303 21.7402 17.6203 21.7502C17.6003 21.7502 17.5903 21.7502 17.5803 21.7502Z" fill="white"/>
<path d="M12 14.25C11.59 14.25 11.25 13.91 11.25 13.5V10.5C11.25 10.09 11.59 9.75 12 9.75C12.41 9.75 12.75 10.09 12.75 10.5V13.5C12.75 13.91 12.41 14.25 12 14.25Z" fill="white"/>
</svg>
