<svg width="24" height="24" viewBox="0 0 24 24" fill="none" xmlns="http://www.w3.org/2000/svg">
<path d="M12.0001 16.7495C10.9001 16.7495 10.0001 15.8495 10.0001 14.7495V13.1495C9.29012 12.5595 8.87012 11.6895 8.87012 10.7495C8.87012 9.77954 9.31012 8.87953 10.0901 8.27953C10.8701 7.67953 11.8701 7.47954 12.8401 7.73954C13.9001 8.01954 14.7601 8.87954 15.0301 9.93954C15.3401 11.1495 14.9301 12.3895 14.0001 13.1495V14.7495C14.0001 15.8495 13.1001 16.7495 12.0001 16.7495ZM12.0001 9.12954C11.6401 9.12954 11.3001 9.24954 11.0101 9.46954C10.6101 9.77954 10.3801 10.2495 10.3801 10.7495C10.3801 11.3195 10.6701 11.8295 11.1501 12.1295L11.5101 12.3495V14.7495C11.5101 15.0295 11.7301 15.2495 12.0101 15.2495C12.2901 15.2495 12.5101 15.0295 12.5101 14.7495V12.3495L12.8701 12.1295C13.4901 11.7495 13.7701 11.0295 13.5901 10.3095C13.4501 9.77953 13.0001 9.32954 12.4701 9.18954C12.3001 9.14954 12.1501 9.12954 12.0001 9.12954Z" fill="white"/>
<path d="M12 22.75C6.07 22.75 1.25 17.93 1.25 12C1.25 6.07 6.07 1.25 12 1.25C16.74 1.25 20.86 4.29 22.27 8.8C22.39 9.2 22.17 9.62001 21.78 9.74001C21.38 9.86001 20.96 9.64 20.84 9.25C19.63 5.36 16.08 2.75 12.01 2.75C6.90999 2.75 2.75999 6.9 2.75999 12C2.75999 17.1 6.90999 21.25 12.01 21.25C16.07 21.25 19.62 18.65 20.83 14.78C20.95 14.38 21.37 14.17 21.77 14.29C22.17 14.41 22.38 14.84 22.26 15.23C20.84 19.73 16.72 22.75 12 22.75Z" fill="white"/>
</svg>
