<svg width="24" height="24" viewBox="0 0 24 24" fill="none" xmlns="http://www.w3.org/2000/svg">
<path d="M9.17035 15.5804C8.98035 15.5804 8.79035 15.5104 8.64035 15.3604C8.35035 15.0704 8.35035 14.5904 8.64035 14.3004L14.3004 8.64035C14.5904 8.35035 15.0704 8.35035 15.3604 8.64035C15.6504 8.93035 15.6504 9.41035 15.3604 9.70035L9.70035 15.3604C9.56035 15.5104 9.36035 15.5804 9.17035 15.5804Z" fill="white"/>
<path d="M14.8304 15.5804C14.6404 15.5804 14.4504 15.5104 14.3004 15.3604L8.64035 9.70035C8.35035 9.41035 8.35035 8.93035 8.64035 8.64035C8.93035 8.35035 9.41035 8.35035 9.70035 8.64035L15.3604 14.3004C15.6504 14.5904 15.6504 15.0704 15.3604 15.3604C15.2104 15.5104 15.0204 15.5804 14.8304 15.5804Z" fill="white"/>
<path d="M15 22.75H9C3.57 22.75 1.25 20.43 1.25 15V9C1.25 3.57 3.57 1.25 9 1.25H15C20.43 1.25 22.75 3.57 22.75 9V15C22.75 20.43 20.43 22.75 15 22.75ZM9 2.75C4.39 2.75 2.75 4.39 2.75 9V15C2.75 19.61 4.39 21.25 9 21.25H15C19.61 21.25 21.25 19.61 21.25 15V9C21.25 4.39 19.61 2.75 15 2.75H9Z" fill="white"/>
</svg>
