<svg width="24" height="24" viewBox="0 0 24 24" fill="none" xmlns="http://www.w3.org/2000/svg">
<path d="M16.6693 20.8295C16.6493 20.8295 16.6393 20.8295 16.6293 20.8295H5.5393C2.5993 20.6195 1.2793 18.3495 1.2793 16.3395C1.2793 14.5395 2.3293 12.5395 4.6093 11.9895C3.9793 9.46952 4.5293 7.10952 6.1893 5.39952C8.0693 3.45952 11.0593 2.70952 13.6093 3.53952C13.9993 3.66952 14.2193 4.08952 14.0893 4.47952C13.9593 4.86952 13.5393 5.08952 13.1493 4.95952C11.1193 4.30952 8.7493 4.89952 7.2593 6.44952C5.8093 7.94952 5.4693 10.0395 6.2993 12.3495C6.3793 12.5795 6.3493 12.8395 6.2093 13.0295C6.0693 13.2195 5.8393 13.3495 5.5993 13.3495C3.6593 13.4895 2.7893 14.9495 2.7893 16.3395C2.7893 17.7295 3.6593 19.1895 5.5993 19.3395H16.6393C17.7793 19.3495 18.9193 18.9195 19.7693 18.1395C20.9193 17.1295 21.4193 15.6595 21.1693 14.0995C21.0993 13.6895 21.3793 13.3095 21.7893 13.2395C22.1993 13.1695 22.5793 13.4495 22.6493 13.8595C22.9893 15.9195 22.2793 17.9395 20.7793 19.2595C19.6593 20.2595 18.1993 20.8295 16.6693 20.8295Z" fill="white"/>
<path d="M7.25984 13.7598C7.14984 13.7598 7.02984 13.7298 6.92984 13.6798C6.50984 13.4698 6.04984 13.3598 5.57984 13.3498C5.16984 13.3398 4.83984 12.9998 4.83984 12.5898C4.84984 12.1798 5.23984 11.8398 5.59984 11.8498C6.28984 11.8598 6.97984 12.0298 7.58984 12.3398C7.95984 12.5198 8.10984 12.9798 7.92984 13.3498C7.79984 13.6098 7.53984 13.7598 7.25984 13.7598Z" fill="white"/>
<path d="M18.4707 12.7498C16.1307 12.7498 14.2207 10.8398 14.2207 8.49977C14.2207 7.39977 14.6407 6.35977 15.4007 5.57977C15.4207 5.54977 15.4407 5.52977 15.4607 5.50977C16.2607 4.69977 17.3207 4.25977 18.4607 4.25977C20.8007 4.25977 22.7107 6.16977 22.7107 8.50977C22.7107 9.80977 22.1307 11.0198 21.1107 11.8298C20.3807 12.4198 19.4407 12.7498 18.4707 12.7498ZM16.6007 6.49977C16.5807 6.52977 16.5607 6.54977 16.5307 6.57977C16.0107 7.08977 15.7207 7.77977 15.7207 8.50977C15.7207 10.0298 16.9507 11.2598 18.4707 11.2598C19.0907 11.2598 19.7007 11.0498 20.1807 10.6598C20.8507 10.1298 21.2207 9.34977 21.2207 8.50977C21.2207 6.98977 19.9907 5.75977 18.4707 5.75977C17.7607 5.74977 17.1007 6.01977 16.6007 6.49977Z" fill="white"/>
</svg>
