<svg width="24" height="24" viewBox="0 0 24 24" fill="none" xmlns="http://www.w3.org/2000/svg">
<path d="M7.99945 14.7495C7.80945 14.7495 7.61945 14.6795 7.46945 14.5295L5.46945 12.5295C5.17945 12.2395 5.17945 11.7595 5.46945 11.4695L7.46945 9.46945C7.75945 9.17945 8.23945 9.17945 8.52945 9.46945C8.81945 9.75945 8.81945 10.2395 8.52945 10.5295L7.05945 11.9995L8.52945 13.4695C8.81945 13.7595 8.81945 14.2395 8.52945 14.5295C8.37945 14.6795 8.18945 14.7495 7.99945 14.7495Z" fill="white"/>
<path d="M15.9995 14.7495C15.8095 14.7495 15.6195 14.6795 15.4695 14.5295C15.1795 14.2395 15.1795 13.7595 15.4695 13.4695L16.9395 11.9995L15.4695 10.5295C15.1795 10.2395 15.1795 9.75945 15.4695 9.46945C15.7595 9.17945 16.2395 9.17945 16.5295 9.46945L18.5295 11.4695C18.8195 11.7595 18.8195 12.2395 18.5295 12.5295L16.5295 14.5295C16.3795 14.6795 16.1895 14.7495 15.9995 14.7495Z" fill="white"/>
<path d="M12 22.75C6.07 22.75 1.25 17.93 1.25 12C1.25 6.07 6.07 1.25 12 1.25C17.93 1.25 22.75 6.07 22.75 12C22.75 17.93 17.93 22.75 12 22.75ZM12 2.75C6.9 2.75 2.75 6.9 2.75 12C2.75 17.1 6.9 21.25 12 21.25C17.1 21.25 21.25 17.1 21.25 12C21.25 6.9 17.1 2.75 12 2.75Z" fill="white"/>
<path d="M11.0001 15.0806C10.9001 15.0806 10.8001 15.0606 10.7101 15.0206C10.3301 14.8606 10.1501 14.4206 10.3201 14.0306L12.3201 9.36053C12.4801 8.98053 12.9201 8.80051 13.3001 8.97051C13.6801 9.13051 13.8601 9.57056 13.6901 9.96056L11.6901 14.6305C11.5701 14.9105 11.2901 15.0806 11.0001 15.0806Z" fill="white"/>
</svg>
