<svg width="24" height="24" viewBox="0 0 24 24" fill="none" xmlns="http://www.w3.org/2000/svg">
<path d="M12.005 22.7326C6.08732 22.7326 1.27734 17.9227 1.27734 12.005C1.27734 6.08732 6.08732 1.27734 12.005 1.27734C17.9227 1.27734 22.7326 6.08732 22.7326 12.005C22.7326 17.9227 17.9127 22.7326 12.005 22.7326ZM12.005 2.77423C6.9156 2.77423 2.77423 6.9156 2.77423 12.005C2.77423 17.0944 6.9156 21.2358 12.005 21.2358C17.0944 21.2358 21.2358 17.0944 21.2358 12.005C21.2358 6.9156 17.0944 2.77423 12.005 2.77423Z" fill="white"/>
<path d="M14.2996 12.9527C14.1 12.9527 13.9104 12.8729 13.7707 12.7332L5.60767 4.55023C5.31828 4.26084 5.31828 3.78184 5.60767 3.49244C5.89707 3.20304 6.37607 3.20304 6.66547 3.49244L13.5611 10.3981L13.5711 7.66375C13.5711 7.2546 13.9104 6.91531 14.3195 6.91531C14.7287 6.88537 15.068 7.2546 15.068 7.66375L15.058 12.2043C15.058 12.5037 14.8784 12.7831 14.5989 12.8929C14.4991 12.9328 14.3994 12.9527 14.2996 12.9527Z" fill="white"/>
<path d="M17.863 20.7272C17.6734 20.7272 17.4838 20.6573 17.3341 20.5076L10.4385 13.602L10.4285 16.3363C10.4285 16.7455 10.0892 17.0848 9.68008 17.0848C9.27093 17.0848 8.93164 16.7455 8.93164 16.3363L8.94162 11.7958C8.94162 11.4964 9.12125 11.217 9.40066 11.1072C9.68008 10.9875 9.99942 11.0573 10.219 11.2669L18.382 19.4498C18.6714 19.7392 18.6714 20.2182 18.382 20.5076C18.2522 20.6573 18.0526 20.7272 17.863 20.7272Z" fill="white"/>
</svg>
