<svg width="24" height="24" viewBox="0 0 24 24" fill="none" xmlns="http://www.w3.org/2000/svg">
<path d="M12 14.75C11.59 14.75 11.25 14.41 11.25 14V9C11.25 8.59 11.59 8.25 12 8.25C12.41 8.25 12.75 8.59 12.75 9V14C12.75 14.41 12.41 14.75 12 14.75Z" fill="white"/>
<path d="M12 17.9996C11.94 17.9996 11.87 17.9896 11.8 17.9796C11.74 17.9696 11.68 17.9496 11.62 17.9196C11.56 17.8996 11.5 17.8696 11.44 17.8296C11.39 17.7896 11.34 17.7496 11.29 17.7096C11.11 17.5196 11 17.2596 11 16.9996C11 16.7396 11.11 16.4796 11.29 16.2896C11.34 16.2496 11.39 16.2096 11.44 16.1696C11.5 16.1296 11.56 16.0996 11.62 16.0796C11.68 16.0496 11.74 16.0296 11.8 16.0196C11.93 15.9896 12.07 15.9896 12.19 16.0196C12.26 16.0296 12.32 16.0496 12.38 16.0796C12.44 16.0996 12.5 16.1296 12.56 16.1696C12.61 16.2096 12.66 16.2496 12.71 16.2896C12.89 16.4796 13 16.7396 13 16.9996C13 17.2596 12.89 17.5196 12.71 17.7096C12.66 17.7496 12.61 17.7896 12.56 17.8296C12.5 17.8696 12.44 17.8996 12.38 17.9196C12.32 17.9496 12.26 17.9696 12.19 17.9796C12.13 17.9896 12.06 17.9996 12 17.9996Z" fill="white"/>
<path d="M18.0605 22.1598H5.94046C3.99046 22.1598 2.50046 21.4498 1.74046 20.1698C0.990464 18.8898 1.09046 17.2398 2.04046 15.5298L8.10046 4.62984C9.10046 2.82984 10.4805 1.83984 12.0005 1.83984C13.5205 1.83984 14.9005 2.82984 15.9005 4.62984L21.9605 15.5398C22.9105 17.2498 23.0205 18.8898 22.2605 20.1798C21.5005 21.4498 20.0105 22.1598 18.0605 22.1598ZM12.0005 3.33984C11.0605 3.33984 10.1405 4.05984 9.41046 5.35984L3.36046 16.2698C2.68046 17.4898 2.57046 18.6098 3.04046 19.4198C3.51046 20.2298 4.55046 20.6698 5.95046 20.6698H18.0705C19.4705 20.6698 20.5005 20.2298 20.9805 19.4198C21.4605 18.6098 21.3405 17.4998 20.6605 16.2698L14.5905 5.35984C13.8605 4.05984 12.9405 3.33984 12.0005 3.33984Z" fill="white"/>
</svg>
