<svg width="24" height="24" viewBox="0 0 24 24" fill="none" xmlns="http://www.w3.org/2000/svg">
<path d="M10.4299 18.3699C10.2799 18.3699 10.1399 18.3299 10.0099 18.2399C9.79991 18.0999 9.67991 17.8699 9.67991 17.6199C9.67991 17.4699 9.66991 17.3099 9.64991 17.1499C9.55991 16.4399 9.23991 15.8199 8.69991 15.2799C8.15991 14.7399 7.48991 14.3999 6.76991 14.3099C6.64991 14.2999 6.47991 14.2899 6.31991 14.2999C6.05991 14.3199 5.81991 14.2099 5.66991 13.9999C5.51991 13.7999 5.47991 13.5299 5.55991 13.2899C5.70991 12.8799 5.92991 12.5099 6.18991 12.2099L7.72991 10.2699C10.3799 6.95992 15.7499 2.97992 19.6799 1.39992C20.5199 1.07992 21.3999 1.26992 22.0099 1.86992C22.6399 2.49992 22.8299 3.39992 22.4999 4.21992C20.9199 8.15992 16.9499 13.5199 13.6399 16.1699L11.6699 17.7499C11.2999 18.0199 10.9999 18.1899 10.6999 18.3099C10.6199 18.3499 10.5199 18.3699 10.4299 18.3699ZM7.53991 12.9399C8.37991 13.1599 9.12991 13.5999 9.75991 14.2299C10.3899 14.8499 10.8099 15.5699 11.0199 16.3699L12.7099 15.0099C15.8499 12.4999 19.6199 7.40992 21.1099 3.66992C21.2599 3.29992 21.0499 3.03992 20.9499 2.94992C20.8799 2.87992 20.6199 2.65992 20.2199 2.80992C16.4999 4.30992 11.4099 8.07992 8.88991 11.2199L7.53991 12.9399Z" fill="white"/>
<path d="M4.08035 22.7501C3.33035 22.7501 2.61035 22.4501 2.07035 21.9101C1.45035 21.2901 1.15035 20.4301 1.25035 19.5501L1.52035 17.0901C1.78035 14.6501 3.78035 12.8401 6.26035 12.7901C6.45035 12.7801 6.70035 12.7901 6.93035 12.8101C8.02035 12.9501 8.99036 13.4401 9.77036 14.2201C10.5404 14.9901 11.0004 15.9101 11.1404 16.9401C11.1704 17.1601 11.1904 17.4001 11.1904 17.6101C11.1904 18.9301 10.6804 20.1601 9.76035 21.0901C8.99036 21.8501 8.00035 22.3201 6.88035 22.4601L4.41035 22.7301C4.30035 22.7401 4.19035 22.7501 4.08035 22.7501ZM6.45035 14.3001C6.41035 14.3001 6.36035 14.3001 6.32035 14.3001C4.81035 14.3301 3.21035 15.3601 3.01035 17.2601L2.74035 19.7201C2.69035 20.1401 2.84035 20.5501 3.13035 20.8501C3.42035 21.1401 3.83035 21.2901 4.24035 21.2401L6.70035 20.9701C7.47035 20.8701 8.16036 20.5501 8.68036 20.0301C9.32036 19.3901 9.68036 18.5301 9.68036 17.6101C9.68036 17.4601 9.67035 17.3001 9.65035 17.1401C9.56035 16.4301 9.24035 15.8101 8.70035 15.2701C8.16035 14.7301 7.49035 14.3901 6.77035 14.3001C6.69035 14.3001 6.57035 14.3001 6.45035 14.3001Z" fill="white"/>
<path d="M14.2398 15.2202C13.8298 15.2202 13.4898 14.8802 13.4898 14.4702C13.4898 12.2702 11.6998 10.4902 9.50977 10.4902C9.09977 10.4902 8.75977 10.1502 8.75977 9.74023C8.75977 9.33023 9.08977 8.99023 9.49977 8.99023C12.5198 8.99023 14.9798 11.4502 14.9798 14.4702C14.9898 14.8902 14.6498 15.2202 14.2398 15.2202Z" fill="white"/>
<path d="M15.6804 22.7297C14.7504 22.7297 13.8204 22.2897 12.9304 21.3997C12.6404 21.1097 12.6404 20.6297 12.9304 20.3397C13.2204 20.0497 13.7004 20.0497 13.9904 20.3397C15.1704 21.5197 16.1804 21.5197 17.3604 20.3397L20.3204 17.3797C21.5104 16.1897 21.5104 15.1797 20.3204 13.9997L19.5804 13.2697C19.2904 12.9797 19.2804 12.4997 19.5704 12.2097C19.8604 11.9097 20.3404 11.9097 20.6304 12.1997L21.3704 12.9297C23.1504 14.7097 23.1504 16.6597 21.3704 18.4397L18.4104 21.3997C17.5404 22.2797 16.6104 22.7297 15.6804 22.7297Z" fill="white"/>
<path d="M3.10977 11.2598C2.91977 11.2598 2.71977 11.1898 2.57977 11.0398C0.819766 9.26977 0.819766 7.30977 2.57977 5.53977L5.53977 2.57977C7.29977 0.819766 9.27977 0.819766 11.0398 2.57977L11.7798 3.31977C12.0698 3.60977 12.0698 4.08977 11.7798 4.37977C11.4898 4.66977 11.0098 4.66977 10.7198 4.37977L9.96977 3.63977C8.78977 2.45977 7.76977 2.45977 6.59977 3.63977L3.63977 6.59977C2.45977 7.78977 2.45977 8.79977 3.63977 9.98977C3.92977 10.2798 3.92977 10.7598 3.63977 11.0498C3.48977 11.1898 3.29977 11.2598 3.10977 11.2598Z" fill="white"/>
<path d="M7.55023 8.30004C7.36023 8.30004 7.17023 8.23004 7.02023 8.08004C6.73023 7.79004 6.73023 7.31004 7.02023 7.02004L10.7202 3.32004C11.0102 3.03004 11.4902 3.03004 11.7802 3.32004C12.0702 3.61004 12.0702 4.09004 11.7802 4.38004L8.08023 8.08004C7.93023 8.23004 7.74023 8.30004 7.55023 8.30004Z" fill="white"/>
<path d="M17.1596 16.4302C16.9696 16.4302 16.7796 16.3602 16.6296 16.2102C16.3396 15.9202 16.3396 15.4402 16.6296 15.1502L19.5896 12.1902C19.8796 11.9002 20.3596 11.9002 20.6496 12.1902C20.9396 12.4802 20.9396 12.9602 20.6496 13.2502L17.6896 16.2102C17.5496 16.3602 17.3596 16.4302 17.1596 16.4302Z" fill="white"/>
</svg>
