<svg width="24" height="24" viewBox="0 0 24 24" fill="none" xmlns="http://www.w3.org/2000/svg">
<path d="M17.81 22.0604C17.18 22.0604 16.55 21.9104 15.95 21.5904L4.36 15.4904C3.06 14.8104 2.25 13.4704 2.25 12.0004C2.25 10.5304 3.06 9.19037 4.36 8.51037L15.95 2.41037C17.5 1.60037 19.3 1.86037 20.55 3.08037C21.8 4.30037 22.1 6.10037 21.32 7.66037L19.7 10.9004C19.36 11.5804 19.36 12.4004 19.7 13.0904L21.32 16.3304C22.1 17.8904 21.8 19.6904 20.55 20.9104C19.78 21.6704 18.81 22.0604 17.81 22.0604ZM17.8 3.44037C17.44 3.44037 17.05 3.53037 16.65 3.74037L5.06 9.84037C4.24 10.2704 3.75 11.0804 3.75 12.0004C3.75 12.9204 4.24 13.7304 5.06 14.1604L16.65 20.2604C17.81 20.8704 18.89 20.4504 19.5 19.8404C20.12 19.2404 20.56 18.1704 19.98 17.0004L18.36 13.7604C17.81 12.6504 17.81 11.3404 18.36 10.2304L19.98 6.99037C20.57 5.82037 20.12 4.75037 19.5 4.15037C19.1 3.76037 18.5 3.44037 17.8 3.44037Z" fill="white"/>
</svg>
