<svg width="24" height="24" viewBox="0 0 24 24" fill="none" xmlns="http://www.w3.org/2000/svg">
<path d="M12.0004 8.75048C11.5904 8.75048 11.2504 8.41048 11.2504 8.00048V3.81048L10.5304 4.53048C10.2404 4.82048 9.76043 4.82048 9.47043 4.53048C9.18043 4.24048 9.18043 3.76048 9.47043 3.47048L11.4704 1.47048C11.6804 1.26048 12.0104 1.19048 12.2904 1.31048C12.5704 1.42048 12.7504 1.70048 12.7504 2.00048V8.00048C12.7504 8.41048 12.4104 8.75048 12.0004 8.75048Z" fill="white"/>
<path d="M14.0004 4.75043C13.8104 4.75043 13.6204 4.68043 13.4704 4.53043L11.4704 2.53043C11.1804 2.24043 11.1804 1.76043 11.4704 1.47043C11.7604 1.18043 12.2404 1.18043 12.5304 1.47043L14.5304 3.47043C14.8204 3.76043 14.8204 4.24043 14.5304 4.53043C14.3804 4.68043 14.1904 4.75043 14.0004 4.75043Z" fill="white"/>
<path d="M16 22.75H8C2.25 22.75 2.25 19.7 2.25 17V16C2.25 13.77 2.25 11.25 7 11.25C8.19 11.25 8.63 11.54 9.25 12C9.28 12.03 9.32 12.05 9.35 12.09L10.37 13.17C11.23 14.08 12.79 14.08 13.65 13.17L14.67 12.09C14.7 12.06 14.73 12.03 14.77 12C15.39 11.53 15.83 11.25 17.02 11.25C21.77 11.25 21.77 13.77 21.77 16V17C21.75 20.82 19.82 22.75 16 22.75ZM7 12.75C3.75 12.75 3.75 13.77 3.75 16V17C3.75 19.74 3.75 21.25 8 21.25H16C18.98 21.25 20.25 19.98 20.25 17V16C20.25 13.77 20.25 12.75 17 12.75C16.28 12.75 16.13 12.84 15.7 13.16L14.73 14.19C14.01 14.95 13.04 15.37 12 15.37C10.96 15.37 9.99 14.95 9.27 14.19L8.3 13.16C7.87 12.84 7.72 12.75 7 12.75Z" fill="white"/>
<path d="M5 12.7502C4.59 12.7502 4.25 12.4102 4.25 12.0002V10.0002C4.25 8.06022 4.25 5.65022 7.93 5.30022C8.33 5.25022 8.71 5.56022 8.75 5.98022C8.79 6.39022 8.49 6.76022 8.07 6.80022C5.75 7.01022 5.75 7.95022 5.75 10.0002V12.0002C5.75 12.4102 5.41 12.7502 5 12.7502Z" fill="white"/>
<path d="M19.0004 12.7502C18.5904 12.7502 18.2504 12.4102 18.2504 12.0002V10.0002C18.2504 7.95022 18.2504 7.01022 15.9304 6.79022C15.5204 6.75022 15.2204 6.38022 15.2604 5.97022C15.3004 5.56022 15.6604 5.25022 16.0804 5.30022C19.7604 5.65022 19.7604 8.06022 19.7604 10.0002V12.0002C19.7504 12.4102 19.4104 12.7502 19.0004 12.7502Z" fill="white"/>
</svg>
