<svg width="24" height="24" viewBox="0 0 24 24" fill="none" xmlns="http://www.w3.org/2000/svg">
<path d="M15 22.75H9C3.57 22.75 1.25 20.43 1.25 15V9C1.25 3.57 3.57 1.25 9 1.25H14C14.41 1.25 14.75 1.59 14.75 2C14.75 2.41 14.41 2.75 14 2.75H9C4.39 2.75 2.75 4.39 2.75 9V15C2.75 19.61 4.39 21.25 9 21.25H15C19.61 21.25 21.25 19.61 21.25 15V10C21.25 9.59 21.59 9.25 22 9.25C22.41 9.25 22.75 9.59 22.75 10V15C22.75 20.43 20.43 22.75 15 22.75Z" fill="white"/>
<path d="M22 10.7505H18C14.58 10.7505 13.25 9.42048 13.25 6.00048V2.00048C13.25 1.70048 13.43 1.42048 13.71 1.31048C13.99 1.19048 14.31 1.26048 14.53 1.47048L22.53 9.47048C22.74 9.68048 22.81 10.0105 22.69 10.2905C22.57 10.5705 22.3 10.7505 22 10.7505ZM14.75 3.81048V6.00048C14.75 8.58048 15.42 9.25048 18 9.25048H20.19L14.75 3.81048Z" fill="white"/>
<path d="M9.42036 18.9496C8.55036 18.9496 6.53036 17.8896 5.91036 15.9496C5.48036 14.6096 5.98036 12.8596 7.53036 12.3596C8.18036 12.1496 8.87036 12.2396 9.42036 12.5796C9.96036 12.2396 10.6604 12.1496 11.3204 12.3596C12.8704 12.8596 13.3704 14.6096 12.9404 15.9496C12.3104 17.9296 10.1904 18.9496 9.42036 18.9496ZM7.33036 15.4996C7.75036 16.8096 9.17036 17.4296 9.43036 17.4496C9.71036 17.4196 11.1104 16.7296 11.5004 15.4996C11.7104 14.8396 11.5004 13.9996 10.8504 13.7896C10.5804 13.6996 10.2104 13.7496 10.0404 14.0096C9.90036 14.2196 9.68036 14.3396 9.43036 14.3496C9.16036 14.3496 8.95036 14.2396 8.81036 14.0396C8.60036 13.7496 8.24036 13.7096 7.98036 13.7996C7.34036 13.9996 7.12036 14.8396 7.33036 15.4996Z" fill="white"/>
</svg>
