<svg width="24" height="24" viewBox="0 0 24 24" fill="none" xmlns="http://www.w3.org/2000/svg">
<path d="M6.86957 12.2795C6.44957 12.2795 6.01955 12.2595 5.59955 12.2195L2.42956 11.9295C2.01956 11.8895 1.70957 11.5295 1.74957 11.1095C1.78957 10.6995 2.13958 10.3895 2.56958 10.4295L5.73956 10.7195C10.6396 11.1695 15.3995 8.68955 17.8495 4.40955C18.0595 4.04955 18.5096 3.92955 18.8696 4.12955C19.2296 4.33955 19.3496 4.78954 19.1496 5.14954C16.6296 9.57954 11.8996 12.2795 6.86957 12.2795Z" fill="white"/>
<path d="M5.50027 20.1198C5.37027 20.1198 5.25028 20.0898 5.13028 20.0198C4.77027 19.8098 4.65025 19.3598 4.85025 18.9998C7.59025 14.2098 12.9103 11.4298 18.4003 11.9398L21.5703 12.2298C21.9803 12.2698 22.2903 12.6298 22.2503 13.0498C22.2103 13.4598 21.8603 13.7598 21.4303 13.7298L18.2603 13.4398C13.3603 12.9898 8.60029 15.4698 6.15029 19.7498C6.01029 19.9898 5.76027 20.1198 5.50027 20.1198Z" fill="white"/>
<path d="M12 22.75C6.07 22.75 1.25 17.93 1.25 12C1.25 6.07 6.07 1.25 12 1.25C17.93 1.25 22.75 6.07 22.75 12C22.75 17.93 17.93 22.75 12 22.75ZM12 2.75C6.9 2.75 2.75 6.9 2.75 12C2.75 17.1 6.9 21.25 12 21.25C17.1 21.25 21.25 17.1 21.25 12C21.25 6.9 17.1 2.75 12 2.75Z" fill="white"/>
<path d="M16.4704 21.7003C16.1304 21.7003 15.8304 21.4703 15.7404 21.1303L14.5305 16.1403C13.7605 12.9803 12.2804 9.97029 10.2304 7.43029L7.05042 3.48031C6.79042 3.16031 6.84041 2.69029 7.16041 2.43029C7.48041 2.17029 7.95045 2.22031 8.21045 2.54031L11.3904 6.49029C13.5704 9.20029 15.1604 12.4103 15.9804 15.7803L17.1904 20.7703C17.2904 21.1703 17.0404 21.5803 16.6404 21.6803C16.5904 21.6903 16.5304 21.7003 16.4704 21.7003Z" fill="white"/>
</svg>
