<svg width="24" height="24" viewBox="0 0 24 24" fill="none" xmlns="http://www.w3.org/2000/svg">
<path d="M17.2802 9.88961C17.1202 9.88961 16.9501 9.85961 16.7901 9.78961L12.0202 7.66961L7.20018 9.78961C6.70018 10.0096 6.11019 9.86961 5.77019 9.42961C5.43019 8.98961 5.44016 8.37961 5.80016 7.95961L10.8002 1.84961C11.4102 1.09961 12.5902 1.09961 13.2102 1.84961L18.2102 7.95961C18.5602 8.38961 18.5702 8.98961 18.2402 9.42961C17.9902 9.71961 17.6402 9.88961 17.2802 9.88961ZM12.0002 6.15961C12.2102 6.15961 12.4302 6.19961 12.6302 6.28961L16.2102 7.87961L12.0401 2.78961L7.81017 7.86961L11.3702 6.28961C11.5702 6.19961 11.7802 6.15961 12.0002 6.15961Z" fill="white"/>
<path d="M11.9995 22.7497C11.5395 22.7497 11.0995 22.5397 10.7995 22.1597L5.7995 16.0497C5.4495 15.6197 5.43953 15.0197 5.76953 14.5797C6.10953 14.1397 6.68953 13.9897 7.19953 14.2097L11.9795 16.3297L16.7995 14.2097C17.3095 13.9897 17.8895 14.1397 18.2295 14.5797C18.5595 15.0197 18.5495 15.6197 18.1995 16.0497L13.1995 22.1597C12.8995 22.5397 12.4595 22.7497 11.9995 22.7497ZM7.78949 16.1197L11.9495 21.2097L16.1795 16.1297L12.6295 17.7097C12.2295 17.8897 11.7695 17.8897 11.3695 17.7097L7.78949 16.1197Z" fill="white"/>
<path d="M12 15.3704C11.88 15.3704 11.77 15.3404 11.67 15.2904L6.41998 12.6704C6.16998 12.5404 6 12.2804 6 12.0004C6 11.7204 6.15998 11.4604 6.41998 11.3304L11.67 8.71043C11.88 8.60043 12.13 8.60043 12.34 8.71043L17.59 11.3304C17.84 11.4604 18.01 11.7204 18.01 12.0004C18.01 12.2804 17.85 12.5404 17.59 12.6704L12.34 15.2904C12.23 15.3504 12.12 15.3704 12 15.3704ZM8.42999 12.0004L12 13.7804L15.57 12.0004L12 10.2204L8.42999 12.0004Z" fill="white"/>
</svg>
