<svg width="24" height="24" viewBox="0 0 24 24" fill="none" xmlns="http://www.w3.org/2000/svg">
<path d="M10.9298 22.7495C10.4498 22.7495 9.96985 22.6296 9.52985 22.3896C8.63985 21.8896 8.1098 20.9995 8.1098 19.9895V14.6396C8.1098 14.1296 7.77979 13.3795 7.46979 12.9895L3.6698 8.99954C3.0398 8.36954 2.5498 7.26953 2.5498 6.45953V4.13956C2.5498 2.52956 3.76982 1.26953 5.31982 1.26953H18.6598C20.1898 1.26953 21.4298 2.50955 21.4298 4.03955V6.25955C21.4298 7.30955 20.7998 8.51953 20.1998 9.10953C19.9098 9.39953 19.4298 9.39953 19.1398 9.10953C18.8498 8.81953 18.8498 8.33953 19.1398 8.04953C19.5098 7.67953 19.9298 6.84955 19.9298 6.25955V4.03955C19.9298 3.33955 19.3598 2.76953 18.6598 2.76953H5.31982C4.60982 2.76953 4.0498 3.36956 4.0498 4.13956V6.45953C4.0498 6.82953 4.34981 7.55955 4.73981 7.94955L8.58984 11.9995C9.09984 12.6295 9.59979 13.6896 9.59979 14.6396V19.9895C9.59979 20.6495 10.0498 20.9695 10.2498 21.0795C10.6798 21.3195 11.1898 21.3095 11.5898 21.0695L12.9898 20.1696C13.3398 19.9496 13.7998 20.0495 14.0298 20.3995C14.2498 20.7495 14.1498 21.2095 13.8098 21.4395L12.3998 22.3495C11.9498 22.6095 11.4398 22.7495 10.9298 22.7495Z" fill="white"/>
<path d="M13.6907 18.8898C13.3107 18.8898 12.9507 18.7497 12.6907 18.4897C12.3807 18.1797 12.2407 17.7297 12.3107 17.2597L12.5007 15.9097C12.5507 15.5597 12.7607 15.1497 13.0107 14.8997L16.5506 11.3597C17.0306 10.8797 17.5007 10.6297 18.0107 10.5797C18.6307 10.5197 19.2507 10.7797 19.8307 11.3597C20.4107 11.9397 20.6706 12.5497 20.6106 13.1797C20.5606 13.6797 20.3007 14.1598 19.8307 14.6398L16.2906 18.1797C16.0406 18.4297 15.6207 18.6397 15.2707 18.6897L13.9206 18.8797C13.8406 18.8897 13.7707 18.8898 13.6907 18.8898ZM18.1807 12.0597C18.1707 12.0597 18.1607 12.0597 18.1507 12.0597C18.0107 12.0697 17.8206 12.1897 17.6106 12.4097L14.0707 15.9498C14.0407 15.9798 13.9907 16.0797 13.9907 16.1197L13.8107 17.3697L15.0607 17.1897C15.1007 17.1797 15.2006 17.1297 15.2306 17.0997L18.7707 13.5597C18.9807 13.3497 19.1107 13.1597 19.1207 13.0197C19.1407 12.8197 18.9407 12.5797 18.7707 12.4097C18.6107 12.2497 18.3807 12.0597 18.1807 12.0597Z" fill="white"/>
<path d="M18.7897 15.3603C18.7197 15.3603 18.6498 15.3503 18.5898 15.3303C17.2698 14.9603 16.2197 13.9103 15.8497 12.5903C15.7397 12.1903 15.9697 11.7803 16.3697 11.6603C16.7697 11.5503 17.1797 11.7803 17.2897 12.1803C17.5197 13.0003 18.1697 13.6503 18.9897 13.8803C19.3897 13.9903 19.6198 14.4103 19.5098 14.8103C19.4198 15.1503 19.1197 15.3603 18.7897 15.3603Z" fill="white"/>
</svg>
