<svg width="24" height="24" viewBox="0 0 24 24" fill="none" xmlns="http://www.w3.org/2000/svg">
<path d="M12 22.75C6.07 22.75 1.25 17.93 1.25 12C1.25 6.07 6.07 1.25 12 1.25C17.93 1.25 22.75 6.07 22.75 12C22.75 17.93 17.93 22.75 12 22.75ZM12 2.75C6.9 2.75 2.75 6.9 2.75 12C2.75 17.1 6.9 21.25 12 21.25C17.1 21.25 21.25 17.1 21.25 12C21.25 6.9 17.1 2.75 12 2.75Z" fill="white"/>
<path d="M11.9996 15.6304C10.6796 15.6304 9.59961 14.5503 9.59961 13.2303V10.7604C9.59961 9.44038 10.6796 8.36035 11.9996 8.36035C13.3196 8.36035 14.3996 9.44038 14.3996 10.7604V13.2303C14.3996 14.5603 13.3196 15.6304 11.9996 15.6304ZM11.9996 9.87036C11.5096 9.87036 11.0996 10.2704 11.0996 10.7704V13.2404C11.0996 13.7404 11.4996 14.1404 11.9996 14.1404C12.4996 14.1404 12.8996 13.7404 12.8996 13.2404V10.7704C12.8996 10.2704 12.4896 9.87036 11.9996 9.87036Z" fill="white"/>
<path d="M12 18.8197C8.83 18.8197 6.25 16.2397 6.25 13.0697V10.9297C6.25 7.75969 8.83 5.17969 12 5.17969C14.96 5.17969 17.42 7.39972 17.72 10.3397C17.76 10.7497 17.46 11.1197 17.05 11.1597C16.64 11.2097 16.27 10.8997 16.23 10.4897C16.01 8.31968 14.19 6.67969 12 6.67969C9.66 6.67969 7.75 8.58969 7.75 10.9297V13.0697C7.75 15.4097 9.66 17.3197 12 17.3197C14.2 17.3197 16.06 15.5997 16.24 13.4097C16.27 12.9997 16.63 12.6897 17.05 12.7197C17.46 12.7497 17.77 13.1097 17.74 13.5297C17.5 16.4997 14.98 18.8197 12 18.8197Z" fill="white"/>
</svg>
