<svg width="24" height="24" viewBox="0 0 24 24" fill="none" xmlns="http://www.w3.org/2000/svg">
<path d="M11.0703 18.1696C10.9003 18.1696 10.7403 18.1396 10.5703 18.0796C10.0203 17.8696 9.66032 17.3596 9.66032 16.7696V13.4696H8.68032C8.12032 13.4696 7.63032 13.1496 7.40032 12.6496C7.17032 12.1396 7.26032 11.5696 7.63032 11.1496L11.8903 6.30963C12.2803 5.86963 12.8803 5.71963 13.4303 5.92963C13.9803 6.13963 14.3403 6.64963 14.3403 7.23963V10.5396H15.3303C15.8903 10.5396 16.3803 10.8596 16.6103 11.3596C16.8403 11.8696 16.7503 12.4396 16.3803 12.8596L12.1203 17.6996C11.8403 17.9996 11.4603 18.1696 11.0703 18.1696ZM8.90032 11.9696H10.4103C10.8203 11.9696 11.1603 12.3096 11.1603 12.7196V16.4996L15.1003 12.0296H13.5903C13.1803 12.0296 12.8403 11.6896 12.8403 11.2796V7.49963L8.90032 11.9696Z" fill="white"/>
<path d="M11.9697 22.75C6.04973 22.75 1.21973 17.93 1.21973 12C1.21973 6.07 6.04973 1.25 11.9697 1.25C17.8897 1.25 22.7197 6.07 22.7197 12C22.7197 17.93 17.8997 22.75 11.9697 22.75ZM11.9697 2.75C6.86973 2.75 2.71973 6.9 2.71973 12C2.71973 17.1 6.86973 21.25 11.9697 21.25C17.0697 21.25 21.2197 17.1 21.2197 12C21.2197 6.9 17.0697 2.75 11.9697 2.75Z" fill="white"/>
</svg>
