<svg width="24" height="24" viewBox="0 0 24 24" fill="none" xmlns="http://www.w3.org/2000/svg">
<path d="M9.98959 22.7496C9.78959 22.7496 9.62959 22.7096 9.50959 22.6596C9.10959 22.5096 8.42959 22.0196 8.42959 20.4696V14.0196H6.08959C4.74959 14.0196 4.26959 13.3896 4.09959 13.0196C3.92959 12.6396 3.77959 11.8696 4.65959 10.8596L12.2296 2.25964C13.2496 1.09964 14.0796 1.17964 14.4796 1.32964C14.8796 1.47964 15.5596 1.96964 15.5596 3.51964V9.96964H17.8996C19.2396 9.96964 19.7196 10.5996 19.8896 10.9696C20.0596 11.3496 20.2096 12.1196 19.3296 13.1296L11.7596 21.7296C11.0496 22.5396 10.4296 22.7496 9.98959 22.7496ZM13.9296 2.73964C13.8996 2.77964 13.6896 2.87964 13.3596 3.25964L5.78959 11.8596C5.50959 12.1796 5.46959 12.3796 5.46959 12.4196C5.48959 12.4296 5.66959 12.5296 6.08959 12.5296H9.17959C9.58959 12.5296 9.92959 12.8696 9.92959 13.2796V20.4796C9.92959 20.9796 10.0196 21.1996 10.0596 21.2596C10.0896 21.2196 10.2996 21.1196 10.6296 20.7396L18.1996 12.1396C18.4796 11.8196 18.5196 11.6196 18.5196 11.5796C18.4996 11.5696 18.3196 11.4696 17.8996 11.4696H14.8096C14.3996 11.4696 14.0596 11.1296 14.0596 10.7196V3.51964C14.0696 3.01964 13.9696 2.80964 13.9296 2.73964Z" fill="white"/>
</svg>
