<svg width="24" height="24" viewBox="0 0 24 24" fill="none" xmlns="http://www.w3.org/2000/svg">
<path d="M9 10.75C7.48 10.75 6.25 9.52 6.25 8C6.25 6.48 7.48 5.25 9 5.25C10.52 5.25 11.75 6.48 11.75 8C11.75 9.52 10.52 10.75 9 10.75ZM9 6.75C8.31 6.75 7.75 7.31 7.75 8C7.75 8.69 8.31 9.25 9 9.25C9.69 9.25 10.25 8.69 10.25 8C10.25 7.31 9.69 6.75 9 6.75Z" fill="white"/>
<path d="M15 22.75H9C3.57 22.75 1.25 20.43 1.25 15V9C1.25 3.57 3.57 1.25 9 1.25H13C13.41 1.25 13.75 1.59 13.75 2C13.75 2.41 13.41 2.75 13 2.75H9C4.39 2.75 2.75 4.39 2.75 9V15C2.75 19.61 4.39 21.25 9 21.25H15C19.61 21.25 21.25 19.61 21.25 15V10C21.25 9.59 21.59 9.25 22 9.25C22.41 9.25 22.75 9.59 22.75 10V15C22.75 20.43 20.43 22.75 15 22.75Z" fill="white"/>
<path d="M15.6709 9.75043C15.2809 9.75043 14.9209 9.61043 14.6609 9.34043C14.3509 9.03043 14.2009 8.57043 14.2709 8.10043L14.4709 6.71043C14.5209 6.36043 14.7309 5.93043 14.9909 5.68043L18.6209 2.05043C20.0709 0.600427 21.3309 1.43043 21.9509 2.05043C22.5409 2.64043 22.8109 3.26043 22.7509 3.90043C22.7009 4.41043 22.4409 4.90043 21.9509 5.38043L18.3209 9.01043C18.0709 9.26043 17.6409 9.47043 17.2909 9.53043L15.9009 9.73043C15.8209 9.75043 15.7409 9.75043 15.6709 9.75043ZM19.6709 3.12043L16.0409 6.75043C16.0109 6.78043 15.9609 6.89043 15.9509 6.94043L15.7609 8.24043L17.0709 8.06043C17.1109 8.05043 17.2209 8.00043 17.2609 7.96043L20.8909 4.33043C21.1109 4.11043 21.2409 3.91043 21.2509 3.76043C21.2709 3.55043 21.0609 3.29043 20.8909 3.12043C20.3709 2.60043 20.1309 2.66043 19.6709 3.12043Z" fill="white"/>
<path d="M20.9003 6.12976C20.8303 6.12976 20.7603 6.11976 20.7003 6.09976C19.3603 5.71976 18.2903 4.64976 17.9103 3.30976C17.8003 2.90976 18.0303 2.49976 18.4303 2.38976C18.8303 2.27976 19.2403 2.50976 19.3503 2.90976C19.5903 3.74976 20.2603 4.42976 21.1103 4.66976C21.5103 4.77976 21.7403 5.19976 21.6303 5.58976C21.5203 5.90976 21.2203 6.12976 20.9003 6.12976Z" fill="white"/>
<path d="M2.66932 19.6996C2.42932 19.6996 2.18932 19.5796 2.04932 19.3696C1.81932 19.0296 1.90932 18.5596 2.24932 18.3296L7.17932 15.0196C8.25932 14.2996 9.74932 14.3796 10.7293 15.2096L11.0593 15.4996C11.5593 15.9296 12.4093 15.9296 12.8993 15.4996L17.0593 11.9296C18.1193 11.0196 19.7893 11.0196 20.8593 11.9296L22.4893 13.3296C22.7993 13.5996 22.8393 14.0696 22.5693 14.3896C22.2993 14.6996 21.8293 14.7396 21.5093 14.4696L19.8793 13.0696C19.3793 12.6396 18.5293 12.6396 18.0393 13.0696L13.8793 16.6396C12.8193 17.5496 11.1493 17.5496 10.0793 16.6396L9.74932 16.3496C9.28932 15.9596 8.52932 15.9196 8.01932 16.2696L3.09932 19.5796C2.95932 19.6596 2.80932 19.6996 2.66932 19.6996Z" fill="white"/>
</svg>
