<svg width="24" height="24" viewBox="0 0 24 24" fill="none" xmlns="http://www.w3.org/2000/svg">
<path d="M12 22.75C6.07 22.75 1.25 17.93 1.25 12C1.25 6.07 6.07 1.25 12 1.25C17.93 1.25 22.75 6.07 22.75 12C22.75 12.41 22.41 12.75 22 12.75C21.59 12.75 21.25 12.41 21.25 12C21.25 6.9 17.1 2.75 12 2.75C6.9 2.75 2.75 6.9 2.75 12C2.75 17.1 6.9 21.25 12 21.25C12.41 21.25 12.75 21.59 12.75 22C12.75 22.41 12.41 22.75 12 22.75Z" fill="white"/>
<path d="M9.00024 21.75H8.00024C7.59024 21.75 7.25024 21.41 7.25024 21C7.25024 20.59 7.57023 20.26 7.98023 20.25C6.41023 14.89 6.41023 9.11 7.98023 3.75C7.58023 3.74 7.25024 3.41 7.25024 3C7.25024 2.59 7.59024 2.25 8.00024 2.25H9.00024C9.24024 2.25 9.47024 2.37 9.61024 2.56C9.75024 2.76 9.79025 3.00999 9.71025 3.23999C7.83025 8.88999 7.83025 15.12 9.71025 20.77C9.79025 21 9.75024 21.25 9.61024 21.45C9.47024 21.65 9.24024 21.75 9.00024 21.75Z" fill="white"/>
<path d="M16.4604 12.7505C16.0504 12.7505 15.7104 12.4105 15.7104 12.0005C15.7104 9.02045 15.2304 6.07044 14.2904 3.24044C14.1604 2.85044 14.3704 2.42043 14.7604 2.29043C15.1504 2.16043 15.5804 2.37046 15.7104 2.76046C16.7004 5.74046 17.2104 8.85045 17.2104 12.0005C17.2104 12.4105 16.8704 12.7505 16.4604 12.7505Z" fill="white"/>
<path d="M12 17.2098C9.2 17.2098 6.43 16.8098 3.75 16.0198C3.74 16.4198 3.41 16.7498 3 16.7498C2.59 16.7498 2.25 16.4098 2.25 15.9998V14.9998C2.25 14.7598 2.37 14.5298 2.56 14.3898C2.75 14.2498 3.01001 14.2098 3.24001 14.2898C6.07001 15.2298 9.02 15.7098 12 15.7098C12.41 15.7098 12.75 16.0498 12.75 16.4598C12.75 16.8698 12.41 17.2098 12 17.2098Z" fill="white"/>
<path d="M21.0007 9.75037C20.9207 9.75037 20.8407 9.7404 20.7607 9.7104C15.1107 7.8304 8.88066 7.8304 3.23066 9.7104C2.84066 9.8404 2.41067 9.63036 2.28067 9.24036C2.15067 8.85036 2.36067 8.42035 2.75067 8.29035C8.71067 6.30035 15.2707 6.30035 21.2207 8.29035C21.6107 8.42035 21.8207 8.85036 21.6907 9.24036C21.6107 9.55036 21.3107 9.75037 21.0007 9.75037Z" fill="white"/>
<path d="M15.8196 22.7503C15.4396 22.7503 15.0796 22.6103 14.8196 22.3503C14.5096 22.0403 14.3696 21.5903 14.4396 21.1203L14.6296 19.7703C14.6796 19.4203 14.8896 19.0003 15.1396 18.7503L18.6796 15.2103C19.1596 14.7303 19.6296 14.4803 20.1396 14.4303C20.7696 14.3703 21.3796 14.6303 21.9596 15.2103C22.5396 15.7903 22.7996 16.4003 22.7396 17.0303C22.6896 17.5303 22.4296 18.0103 21.9596 18.4903L18.4196 22.0303C18.1696 22.2803 17.7596 22.4903 17.4096 22.5403L16.0596 22.7303C15.9696 22.7403 15.8996 22.7503 15.8196 22.7503ZM20.3096 15.9203C20.2996 15.9203 20.2896 15.9203 20.2796 15.9203C20.1396 15.9303 19.9496 16.0503 19.7396 16.2703L16.1996 19.8103C16.1696 19.8403 16.1196 19.9403 16.1196 19.9803L15.9396 21.2303L17.1896 21.0503C17.2296 21.0403 17.3296 20.9903 17.3596 20.9603L20.8996 17.4203C21.1096 17.2103 21.2396 17.0203 21.2496 16.8803C21.2696 16.6803 21.0696 16.4403 20.8996 16.2703C20.7396 16.1103 20.5096 15.9203 20.3096 15.9203Z" fill="white"/>
<path d="M20.9206 19.2203C20.8506 19.2203 20.7806 19.2104 20.7206 19.1904C19.4006 18.8204 18.3506 17.7704 17.9806 16.4504C17.8706 16.0504 18.1006 15.6404 18.5006 15.5304C18.9006 15.4204 19.3106 15.6503 19.4306 16.0503C19.6606 16.8703 20.3106 17.5204 21.1306 17.7504C21.5306 17.8604 21.7606 18.2803 21.6506 18.6703C21.5506 19.0003 21.2506 19.2203 20.9206 19.2203Z" fill="white"/>
</svg>
