<svg width="24" height="24" viewBox="0 0 24 24" fill="none" xmlns="http://www.w3.org/2000/svg">
<path d="M12 22.75C6.07 22.75 1.25 17.93 1.25 12C1.25 6.07 6.07 1.25 12 1.25C17.93 1.25 22.75 6.07 22.75 12C22.75 17.93 17.93 22.75 12 22.75ZM12 2.75C6.9 2.75 2.75 6.9 2.75 12C2.75 17.1 6.9 21.25 12 21.25C17.1 21.25 21.25 17.1 21.25 12C21.25 6.9 17.1 2.75 12 2.75Z" fill="white"/>
<path d="M9.00023 21.75H8.00023C7.59023 21.75 7.25023 21.41 7.25023 21C7.25023 20.59 7.57023 20.26 7.98023 20.25C6.41023 14.89 6.41023 9.11 7.98023 3.75C7.57023 3.74 7.25023 3.41 7.25023 3C7.25023 2.59 7.59023 2.25 8.00023 2.25H9.00023C9.24023 2.25 9.47023 2.37 9.61023 2.56C9.75023 2.76 9.79023 3.01 9.71023 3.24C7.83023 8.89 7.83023 15.11 9.71023 20.77C9.79023 21 9.75023 21.25 9.61023 21.45C9.47023 21.63 9.24023 21.75 9.00023 21.75Z" fill="white"/>
<path d="M15.0004 21.7497C14.9204 21.7497 14.8404 21.7397 14.7604 21.7097C14.3704 21.5797 14.1504 21.1497 14.2904 20.7597C16.1704 15.1097 16.1704 8.88969 14.2904 3.22969C14.1604 2.83969 14.3704 2.40969 14.7604 2.27969C15.1604 2.14969 15.5804 2.35969 15.7104 2.74969C17.7004 8.70969 17.7004 15.2697 15.7104 21.2197C15.6104 21.5497 15.3104 21.7497 15.0004 21.7497Z" fill="white"/>
<path d="M12 17.1998C9.21 17.1998 6.43 16.8098 3.75 16.0198C3.74 16.4198 3.41 16.7498 3 16.7498C2.59 16.7498 2.25 16.4098 2.25 15.9998V14.9998C2.25 14.7598 2.37 14.5298 2.56 14.3898C2.76 14.2498 3.01 14.2098 3.24 14.2898C8.89 16.1698 15.12 16.1698 20.77 14.2898C21 14.2098 21.25 14.2498 21.45 14.3898C21.65 14.5298 21.76 14.7598 21.76 14.9998V15.9998C21.76 16.4098 21.42 16.7498 21.01 16.7498C20.6 16.7498 20.27 16.4298 20.26 16.0198C17.57 16.8098 14.79 17.1998 12 17.1998Z" fill="white"/>
<path d="M20.9998 9.75035C20.9198 9.75035 20.8398 9.74035 20.7598 9.71035C15.1098 7.83035 8.87978 7.83035 3.22978 9.71035C2.82978 9.84035 2.40978 9.63035 2.27978 9.24035C2.15978 8.84035 2.36978 8.42035 2.75978 8.29035C8.71978 6.30035 15.2798 6.30035 21.2298 8.29035C21.6198 8.42035 21.8398 8.85035 21.6998 9.24035C21.6098 9.55035 21.3098 9.75035 20.9998 9.75035Z" fill="white"/>
</svg>
