<svg width="24" height="24" viewBox="0 0 24 24" fill="none" xmlns="http://www.w3.org/2000/svg">
<path d="M10 22.75H9C3.57 22.75 1.25 20.43 1.25 15V9C1.25 3.57 3.57 1.25 9 1.25H15C20.43 1.25 22.75 3.57 22.75 9V11C22.75 11.41 22.41 11.75 22 11.75C21.59 11.75 21.25 11.41 21.25 11V9C21.25 4.39 19.61 2.75 15 2.75H9C4.39 2.75 2.75 4.39 2.75 9V15C2.75 19.61 4.39 21.25 9 21.25H10C10.41 21.25 10.75 21.59 10.75 22C10.75 22.41 10.41 22.75 10 22.75Z" fill="white"/>
<path d="M22.0003 9.25H2.03027C1.62027 9.25 1.28027 8.91 1.28027 8.5C1.28027 8.09 1.62027 7.75 2.03027 7.75H22.0003C22.4103 7.75 22.7503 8.09 22.7503 8.5C22.7503 8.91 22.4103 9.25 22.0003 9.25Z" fill="white"/>
<path d="M12.0003 16.25H2.03027C1.62027 16.25 1.28027 15.91 1.28027 15.5C1.28027 15.09 1.62027 14.75 2.03027 14.75H12.0003C12.4103 14.75 12.7503 15.09 12.7503 15.5C12.7503 15.91 12.4103 16.25 12.0003 16.25Z" fill="white"/>
<path d="M8.50977 22.7395C8.09977 22.7395 7.75977 22.3995 7.75977 21.9895V2.01953C7.75977 1.60953 8.09977 1.26953 8.50977 1.26953C8.91977 1.26953 9.25977 1.60953 9.25977 2.01953V21.9895C9.25977 22.3995 8.92977 22.7395 8.50977 22.7395Z" fill="white"/>
<path d="M15.5098 12.7395C15.0998 12.7395 14.7598 12.3995 14.7598 11.9895V2.01953C14.7598 1.60953 15.0998 1.26953 15.5098 1.26953C15.9198 1.26953 16.2598 1.60953 16.2598 2.01953V11.9895C16.2598 12.3995 15.9298 12.7395 15.5098 12.7395Z" fill="white"/>
<path d="M20.3996 17.95C19.9896 17.95 19.6496 17.61 19.6496 17.2V16.4C19.6496 15.28 19.3996 14.75 17.9996 14.75C16.5996 14.75 16.3496 15.28 16.3496 16.4V17.2C16.3496 17.61 16.0096 17.95 15.5996 17.95C15.1896 17.95 14.8496 17.61 14.8496 17.2V16.4C14.8496 14.31 15.9096 13.25 17.9996 13.25C20.0896 13.25 21.1496 14.31 21.1496 16.4V17.2C21.1496 17.61 20.8096 17.95 20.3996 17.95Z" fill="white"/>
<path d="M20 22.7502H16C14 22.7502 13.25 22.0002 13.25 20.0002V19.2002C13.25 17.2002 14 16.4502 16 16.4502H20C22 16.4502 22.75 17.2002 22.75 19.2002V20.0002C22.75 22.0002 22 22.7502 20 22.7502ZM16 17.9502C14.81 17.9502 14.75 18.0102 14.75 19.2002V20.0002C14.75 21.1802 14.82 21.2502 16 21.2502H20C21.18 21.2502 21.25 21.1802 21.25 20.0002V19.2002C21.25 18.0102 21.19 17.9502 20 17.9502H16Z" fill="white"/>
</svg>
