<svg width="24" height="24" viewBox="0 0 24 24" fill="none" xmlns="http://www.w3.org/2000/svg">
<path d="M15 22.75H9C3.57 22.75 1.25 20.43 1.25 15V9C1.25 3.57 3.57 1.25 9 1.25H15C20.43 1.25 22.75 3.57 22.75 9V13C22.75 13.41 22.41 13.75 22 13.75C21.59 13.75 21.25 13.41 21.25 13V9C21.25 4.39 19.61 2.75 15 2.75H9C4.39 2.75 2.75 4.39 2.75 9V15C2.75 19.61 4.39 21.25 9 21.25H15C15.41 21.25 15.75 21.59 15.75 22C15.75 22.41 15.41 22.75 15 22.75Z" fill="white"/>
<path d="M19.0004 22.7505C18.5904 22.7505 18.2504 22.4105 18.2504 22.0005V17.8105L17.5304 18.5305C17.2404 18.8205 16.7604 18.8205 16.4704 18.5305C16.1804 18.2405 16.1804 17.7605 16.4704 17.4705L18.4704 15.4705C18.6804 15.2605 19.0104 15.1905 19.2904 15.3105C19.5704 15.4305 19.7504 15.7005 19.7504 16.0005V22.0005C19.7504 22.4105 19.4104 22.7505 19.0004 22.7505Z" fill="white"/>
<path d="M21.0004 18.7504C20.8104 18.7504 20.6204 18.6804 20.4704 18.5304L18.4704 16.5304C18.1804 16.2404 18.1804 15.7604 18.4704 15.4704C18.7604 15.1804 19.2404 15.1804 19.5304 15.4704L21.5304 17.4704C21.8204 17.7604 21.8204 18.2404 21.5304 18.5304C21.3804 18.6804 21.1904 18.7504 21.0004 18.7504Z" fill="white"/>
<path d="M8.89974 16.4901C8.86974 16.4901 8.83974 16.4901 8.81974 16.4901C8.40974 16.4401 8.10974 16.0701 8.15974 15.6601L9.19974 6.1801C9.24974 5.7701 9.61974 5.4701 10.0297 5.5201C10.4397 5.5701 10.7397 5.9401 10.6897 6.3501L9.63975 15.8201C9.59975 16.2001 9.26974 16.4901 8.89974 16.4901Z" fill="white"/>
<path d="M12.0501 16.4899C12.0201 16.4899 11.9901 16.4899 11.9701 16.4899C11.5601 16.4399 11.2601 16.0699 11.3101 15.6599L12.3601 6.18986C12.4101 5.77986 12.7801 5.47986 13.1901 5.52986C13.6001 5.57986 13.9001 5.94986 13.8501 6.35986L12.8001 15.8299C12.7601 16.1999 12.4301 16.4899 12.0501 16.4899Z" fill="white"/>
<path d="M16.0003 10.1699H6.53027C6.12027 10.1699 5.78027 9.82992 5.78027 9.41992C5.78027 9.00992 6.12027 8.66992 6.53027 8.66992H16.0003C16.4103 8.66992 16.7503 9.00992 16.7503 9.41992C16.7503 9.82992 16.4103 10.1699 16.0003 10.1699Z" fill="white"/>
<path d="M15.47 13.3301H6C5.59 13.3301 5.25 12.9901 5.25 12.5801C5.25 12.1701 5.59 11.8301 6 11.8301H15.47C15.88 11.8301 16.22 12.1701 16.22 12.5801C16.22 12.9901 15.89 13.3301 15.47 13.3301Z" fill="white"/>
</svg>
