<svg width="24" height="24" viewBox="0 0 24 24" fill="none" xmlns="http://www.w3.org/2000/svg">
<path d="M17.2004 22.7504C15.6304 22.7504 14.1304 22.0804 13.0704 20.9004C12.1504 19.8704 11.6504 18.5604 11.6504 17.2004C11.6504 14.1404 14.1404 11.6504 17.2004 11.6504C18.7404 11.6504 20.1704 12.2704 21.2404 13.3904C21.2704 13.4204 21.3004 13.4604 21.3204 13.4904C22.2604 14.5504 22.7504 15.8404 22.7504 17.1904C22.7504 20.2604 20.2604 22.7504 17.2004 22.7504ZM17.2004 13.1504C14.9704 13.1504 13.1504 14.9704 13.1504 17.2004C13.1504 18.1904 13.5204 19.1504 14.1904 19.9004C14.9604 20.7604 16.0604 21.2504 17.2004 21.2504C19.4304 21.2504 21.2504 19.4304 21.2504 17.2004C21.2504 16.1704 20.8604 15.1904 20.1404 14.4304C20.1204 14.4104 20.1004 14.3804 20.0804 14.3604C19.3104 13.5804 18.2904 13.1504 17.2004 13.1504Z" fill="white"/>
<path d="M18.4799 19.2895C18.2899 19.2895 18.0999 19.2195 17.9499 19.0695L15.4099 16.5295C15.1199 16.2395 15.1199 15.7595 15.4099 15.4695C15.6999 15.1795 16.1799 15.1795 16.4699 15.4695L19.0099 18.0095C19.2999 18.2995 19.2999 18.7795 19.0099 19.0695C18.8699 19.2095 18.6699 19.2895 18.4799 19.2895Z" fill="white"/>
<path d="M15.9193 19.3197C15.7293 19.3197 15.5394 19.2497 15.3894 19.0997C15.0994 18.8097 15.0994 18.3297 15.3894 18.0397L17.9294 15.4997C18.2194 15.2097 18.6994 15.2097 18.9894 15.4997C19.2794 15.7897 19.2794 16.2697 18.9894 16.5597L16.4494 19.0997C16.2994 19.2397 16.1093 19.3197 15.9193 19.3197Z" fill="white"/>
<path d="M12 21.6497C11.69 21.6497 11.38 21.6097 11.13 21.5197C8.57 20.6497 1.25 16.4096 1.25 8.68964C1.25 5.18964 4.08 2.34961 7.56 2.34961C9.23 2.34961 10.83 3.01964 12 4.18964C13.17 3.01964 14.78 2.34961 16.44 2.34961C19.92 2.34961 22.75 5.18964 22.75 8.68964C22.75 10.6396 22.28 12.5096 21.35 14.2596C21.24 14.4696 21.03 14.6197 20.79 14.6497C20.55 14.6797 20.31 14.5996 20.14 14.4196C19.36 13.5996 18.31 13.1396 17.19 13.1396C14.96 13.1396 13.14 14.9596 13.14 17.1896C13.14 18.1796 13.51 19.1396 14.18 19.8896C14.34 20.0696 14.4 20.3096 14.35 20.5396C14.3 20.7696 14.14 20.9696 13.93 21.0696C13.53 21.2496 13.17 21.3996 12.84 21.5096C12.61 21.6096 12.31 21.6497 12 21.6497ZM7.56 3.84961C4.91 3.84961 2.75 6.01964 2.75 8.68964C2.75 15.5296 9.32 19.3096 11.62 20.0996C11.8 20.1696 12.19 20.1596 12.37 20.0996C12.4 20.0896 12.43 20.0796 12.46 20.0696C11.94 19.2096 11.65 18.2196 11.65 17.1996C11.65 14.1396 14.14 11.6497 17.2 11.6497C18.38 11.6497 19.5 12.0196 20.44 12.6896C20.98 11.4096 21.25 10.0696 21.25 8.68964C21.25 6.01964 19.09 3.84961 16.44 3.84961C14.94 3.84961 13.5 4.56966 12.6 5.77966C12.32 6.15966 11.68 6.15966 11.4 5.77966C10.5 4.56966 9.06 3.84961 7.56 3.84961Z" fill="white"/>
</svg>
