<svg width="24" height="24" viewBox="0 0 24 24" fill="none" xmlns="http://www.w3.org/2000/svg">
<path d="M12 22.75C6.07 22.75 1.25 17.93 1.25 12C1.25 6.07 6.07 1.25 12 1.25C17.93 1.25 22.75 6.07 22.75 12C22.75 17.93 17.93 22.75 12 22.75ZM12 2.75C6.9 2.75 2.75 6.9 2.75 12C2.75 17.1 6.9 21.25 12 21.25C17.1 21.25 21.25 17.1 21.25 12C21.25 6.9 17.1 2.75 12 2.75Z" fill="white"/>
<path d="M11.9994 18.2496C11.7894 18.2496 11.5894 18.2196 11.4194 18.1596C9.26937 17.4296 5.85938 14.8096 5.85938 10.9096C5.85938 8.82964 7.53938 7.13965 9.60938 7.13965C10.5094 7.13965 11.3394 7.44964 12.0094 8.00964C12.6794 7.44964 13.5194 7.13965 14.3994 7.13965C16.4694 7.13965 18.1494 8.82964 18.1494 10.9096C18.1494 14.7996 14.7394 17.4196 12.5794 18.1596C12.4094 18.2196 12.1994 18.2496 11.9994 18.2496ZM9.59938 8.64963C8.35938 8.64963 7.34938 9.66965 7.34938 10.9196C7.34938 14.4096 10.7194 16.3496 11.8994 16.7496C11.9394 16.7596 12.0394 16.7596 12.0794 16.7496C13.2594 16.3496 16.6294 14.4096 16.6294 10.9196C16.6294 9.66965 15.6194 8.64963 14.3794 8.64963C13.6794 8.64963 13.0094 8.98963 12.5894 9.55963C12.3094 9.93963 11.6694 9.93963 11.3894 9.55963C10.9694 8.97963 10.3194 8.64963 9.59938 8.64963Z" fill="white"/>
</svg>
