<svg width="24" height="24" viewBox="0 0 24 24" fill="none" xmlns="http://www.w3.org/2000/svg">
<path d="M6.10999 18.2496C5.92999 18.2496 5.73998 18.1796 5.59998 18.0496C3.61998 16.1896 1.25 13.0596 1.25 8.68964C1.25 5.18964 4.08 2.34961 7.56 2.34961C9.25 2.34961 10.83 3.00964 12 4.18964C13.17 3.00964 14.75 2.34961 16.44 2.34961C17.7 2.34961 18.92 2.72963 19.97 3.42963C20.31 3.65963 20.4 4.1296 20.17 4.4696C19.94 4.8096 19.47 4.89962 19.13 4.66962C18.34 4.12962 17.41 3.83966 16.45 3.83966C14.93 3.83966 13.52 4.54966 12.61 5.77966C12.33 6.15966 11.69 6.15966 11.41 5.77966C10.49 4.54966 9.09001 3.83966 7.57001 3.83966C4.92001 3.83966 2.76001 6.00963 2.76001 8.67963C2.76001 12.5196 4.87001 15.2896 6.64001 16.9496C6.94001 17.2296 6.95999 17.7096 6.67999 18.0096C6.50999 18.1696 6.30999 18.2496 6.10999 18.2496Z" fill="white"/>
<path d="M11.9994 21.6498C11.6894 21.6498 11.3894 21.6098 11.1394 21.5198C10.3894 21.2598 9.49942 20.8398 8.63942 20.3298C8.27942 20.1198 8.16941 19.6598 8.37941 19.2998C8.58941 18.9498 9.04938 18.8298 9.40938 19.0398C10.1894 19.4998 10.9794 19.8798 11.6294 20.0998C11.8094 20.1598 12.1994 20.1598 12.3794 20.0998C14.6794 19.3098 21.2594 15.5198 21.2594 8.6798C21.2594 8.1798 21.1794 7.68978 21.0394 7.21978C20.9194 6.81978 21.1294 6.39984 21.5294 6.27984C21.9294 6.15984 22.3494 6.37983 22.4694 6.76983C22.6594 7.38983 22.7594 8.0298 22.7594 8.6798C22.7594 15.5598 16.6894 20.1998 12.8694 21.5098C12.6094 21.6098 12.3094 21.6498 11.9994 21.6498Z" fill="white"/>
<path d="M1.99948 22.7495C1.80948 22.7495 1.61945 22.6795 1.46945 22.5295C1.17945 22.2395 1.17945 21.7595 1.46945 21.4695L21.4695 1.46945C21.7595 1.17945 22.2395 1.17945 22.5295 1.46945C22.8195 1.75945 22.8195 2.23951 22.5295 2.52951L2.52951 22.5295C2.37951 22.6795 2.18948 22.7495 1.99948 22.7495Z" fill="white"/>
</svg>
