<svg width="24" height="24" viewBox="0 0 24 24" fill="none" xmlns="http://www.w3.org/2000/svg">
<path d="M14.7602 22.72C14.5902 22.72 14.4302 22.68 14.3002 22.6C13.8502 22.31 11.6102 20.76 11.2002 18.4C10.9802 17.09 11.3502 15.79 12.3102 14.55C15.1002 10.94 15.4102 9.89005 15.4202 9.85005C15.4602 9.57005 15.6502 9.37005 15.9202 9.28005C16.1902 9.19005 16.4702 9.28005 16.6802 9.48005C18.9602 11.69 20.0002 13.97 19.7602 16.26C19.3802 19.85 15.9002 22.2 15.2102 22.63C15.0902 22.68 14.9202 22.72 14.7602 22.72ZM16.3802 11.3101C15.9202 12.1201 15.0802 13.42 13.5002 15.45C12.7902 16.36 12.5302 17.24 12.6802 18.13C12.9202 19.52 14.1402 20.61 14.7702 21.08C15.7602 20.39 18.0002 18.57 18.2602 16.06C18.4302 14.52 17.8002 12.9301 16.3802 11.3101Z" fill="white"/>
<path d="M10.2796 22.7304C10.0196 22.7304 9.75959 22.6604 9.56959 22.6104C7.35959 21.9804 5.3596 19.9604 4.5796 17.5904C3.7796 15.1604 4.26956 12.6204 5.96956 10.4304C9.06956 6.37037 10.0996 3.10037 10.3396 2.20037C10.4496 1.77037 10.7696 1.44037 11.2096 1.31037C11.6596 1.19037 12.1496 1.32037 12.4896 1.66037C12.5196 1.68037 12.5396 1.71037 12.5596 1.74037C13.4996 3.00037 14.5096 5.25037 14.5096 7.79037C14.5096 9.53037 13.2896 11.1104 12.1096 12.6304C10.8596 14.2504 9.56961 15.9204 9.70961 17.7304C9.83961 19.0704 10.4196 20.0904 10.8096 20.7704C11.1396 21.3404 11.4496 21.8804 11.0596 22.3904C10.8496 22.6504 10.5696 22.7304 10.2796 22.7304ZM9.74959 21.9704H9.75959H9.74959ZM11.6496 3.06037C11.1896 4.57037 9.98956 7.63037 7.15956 11.3504C5.38956 13.6404 5.55959 15.7604 6.00959 17.1304C6.53959 18.7404 7.7396 20.1404 9.1396 20.8404C8.7596 20.1004 8.33956 19.1004 8.21956 17.8604C8.03956 15.4604 9.56958 13.4704 10.9296 11.7104C11.9996 10.3204 13.0096 9.01037 13.0096 7.78037C13.0096 5.88037 12.3296 4.14037 11.6496 3.06037ZM11.7896 2.57037C11.7896 2.57037 11.7896 2.58037 11.7896 2.57037C11.7896 2.58037 11.7896 2.57037 11.7896 2.57037Z" fill="white"/>
</svg>
