<svg width="24" height="24" viewBox="0 0 24 24" fill="none" xmlns="http://www.w3.org/2000/svg">
<path d="M12 22.4296C11.52 22.4296 11.04 22.2996 10.61 22.0496L4.10999 18.2296C3.26999 17.7396 2.75 16.8296 2.75 15.8596V8.14964C2.75 7.17964 3.26999 6.26964 4.10999 5.77964L10.61 1.95965C11.47 1.44965 12.54 1.44965 13.4 1.95965L19.9 5.77964C20.74 6.26964 21.26 7.17964 21.26 8.14964V15.8596C21.26 16.8296 20.74 17.7396 19.9 18.2296L13.4 22.0496C12.96 22.2996 12.48 22.4296 12 22.4296ZM11.37 3.23965L4.87 7.05964C4.49 7.27964 4.25 7.69964 4.25 8.13964V15.8496C4.25 16.2896 4.49 16.6996 4.87 16.9296L11.37 20.7496C11.76 20.9796 12.25 20.9796 12.64 20.7496L19.14 16.9296C19.52 16.7096 19.76 16.2896 19.76 15.8496V8.13964C19.76 7.69964 19.52 7.28964 19.14 7.05964L12.64 3.23965C12.24 3.00965 11.76 3.00965 11.37 3.23965Z" fill="white"/>
<path d="M12.0002 18.7501C11.8702 18.7501 11.7302 18.7101 11.6102 18.6401L6.61023 15.6401C6.25023 15.4301 6.14022 14.9701 6.35022 14.6101C6.56022 14.2501 7.02025 14.1401 7.38025 14.3501L11.9902 17.1201L15.5303 14.9901L6.60022 9.63012C6.37022 9.49012 6.24023 9.25012 6.24023 8.99012C6.24023 8.73012 6.38022 8.48012 6.60022 8.35012L11.6002 5.35012C11.8402 5.21012 12.1402 5.21012 12.3702 5.35012L17.3702 8.35012C17.7302 8.56012 17.8402 9.02012 17.6302 9.38012C17.4202 9.73012 16.9602 9.85011 16.6002 9.64011L11.9902 6.87011L8.45026 9.00011L17.3802 14.3601C17.6102 14.5001 17.7402 14.7401 17.7402 15.0001C17.7402 15.2601 17.6002 15.5101 17.3802 15.6401L12.3802 18.6401C12.2702 18.7101 12.1302 18.7501 12.0002 18.7501Z" fill="white"/>
<path d="M9.49948 12.7504C9.30948 12.7504 9.11945 12.6804 8.96945 12.5304C8.67945 12.2404 8.67945 11.7604 8.96945 11.4704L10.9695 9.47043C11.2595 9.18043 11.7395 9.18043 12.0295 9.47043C12.3195 9.76043 12.3195 10.2404 12.0295 10.5304L10.0295 12.5304C9.87951 12.6804 9.68948 12.7504 9.49948 12.7504Z" fill="white"/>
<path d="M12.4995 14.7504C12.3095 14.7504 12.1195 14.6804 11.9695 14.5304C11.6795 14.2404 11.6795 13.7604 11.9695 13.4704L13.9695 11.4704C14.2595 11.1804 14.7395 11.1804 15.0295 11.4704C15.3195 11.7604 15.3195 12.2404 15.0295 12.5304L13.0295 14.5304C12.8795 14.6804 12.6895 14.7504 12.4995 14.7504Z" fill="white"/>
</svg>
