<svg width="24" height="24" viewBox="0 0 24 24" fill="none" xmlns="http://www.w3.org/2000/svg">
<path d="M15 22.75H9C3.57 22.75 1.25 20.43 1.25 15V9C1.25 3.57 3.57 1.25 9 1.25H15C20.43 1.25 22.75 3.57 22.75 9V15C22.75 20.43 20.43 22.75 15 22.75ZM9 2.75C4.39 2.75 2.75 4.39 2.75 9V15C2.75 19.61 4.39 21.25 9 21.25H15C19.61 21.25 21.25 19.61 21.25 15V9C21.25 4.39 19.61 2.75 15 2.75H9Z" fill="white"/>
<path d="M8.80974 18.2503C8.73974 18.2503 8.65974 18.2503 8.58974 18.2303L7.39974 18.0703C6.67974 17.9703 6.04974 17.3503 5.93974 16.6103L5.76974 15.4003C5.69974 14.9203 5.89974 14.3103 6.24974 13.9503L8.52974 11.6703C8.18974 10.0503 8.67974 8.37031 9.86974 7.19031C11.7797 5.28031 14.8997 5.28031 16.8097 7.19031C17.7397 8.12031 18.2497 9.35031 18.2497 10.6603C18.2497 11.9703 17.7397 13.2103 16.8097 14.1303C15.6197 15.3103 13.9397 15.8003 12.3297 15.4603L10.0397 17.7403C9.74974 18.0503 9.25974 18.2503 8.80974 18.2503ZM13.3397 7.25031C12.4697 7.25031 11.5897 7.58031 10.9297 8.25031C10.0297 9.15031 9.70974 10.4603 10.0797 11.6803C10.1597 11.9503 10.0897 12.2303 9.88974 12.4303L7.30974 15.0103C7.28974 15.0403 7.24974 15.1503 7.24974 15.1903L7.41974 16.3903C7.42974 16.4503 7.53974 16.5603 7.59974 16.5703L8.79974 16.7403C8.84974 16.7303 8.94974 16.7103 8.97974 16.6803L11.5697 14.0903C11.7697 13.8903 12.0597 13.8303 12.3197 13.9103C13.5297 14.2903 14.8397 13.9703 15.7397 13.0703C16.3797 12.4303 16.7397 11.5703 16.7397 10.6603C16.7397 9.75031 16.3897 8.89031 15.7397 8.25031C15.0897 7.59031 14.2097 7.25031 13.3397 7.25031Z" fill="white"/>
<path d="M10.4503 17.0304C10.2603 17.0304 10.0703 16.9604 9.92027 16.8104L9.06027 15.9504C8.77027 15.6604 8.77027 15.1804 9.06027 14.8904C9.35027 14.6004 9.83027 14.6004 10.1203 14.8904L10.9803 15.7504C11.2703 16.0404 11.2703 16.5204 10.9803 16.8104C10.8403 16.9604 10.6503 17.0304 10.4503 17.0304Z" fill="white"/>
<path d="M13.3801 11.7996C13.2401 11.7996 13.1101 11.7796 12.9901 11.7296C12.8701 11.6796 12.7601 11.5996 12.6701 11.5096C12.4801 11.3196 12.3701 11.0696 12.3701 10.7996C12.3701 10.5396 12.4801 10.2796 12.6701 10.0996C12.9001 9.85963 13.2501 9.74963 13.5701 9.81963C13.6301 9.83963 13.7001 9.84963 13.7601 9.87963C13.8201 9.90963 13.8801 9.93963 13.9301 9.96963C13.9801 10.0096 14.0401 10.0496 14.0801 10.0996C14.2701 10.2796 14.3801 10.5396 14.3801 10.7996C14.3801 10.9396 14.3501 11.0596 14.3001 11.1896C14.2501 11.3096 14.1801 11.4196 14.0801 11.5096C13.8901 11.6996 13.6401 11.7996 13.3801 11.7996Z" fill="white"/>
</svg>
