<svg width="24" height="24" viewBox="0 0 24 24" fill="none" xmlns="http://www.w3.org/2000/svg">
<path d="M20.7797 19.3397H3.21973C2.80973 19.3397 2.46973 18.9997 2.46973 18.5897V13.6497C2.46973 8.42969 6.71973 4.17969 11.9397 4.17969H12.0597C17.2797 4.17969 21.5297 8.42969 21.5297 13.6497V18.5897C21.5297 18.9997 21.1897 19.3397 20.7797 19.3397ZM3.96973 17.8397H20.0297V13.6497C20.0297 9.24969 16.4497 5.67969 12.0597 5.67969H11.9397C7.53973 5.67969 3.96973 9.25969 3.96973 13.6497V17.8397V17.8397Z" fill="white"/>
<path d="M12 5.67999C11.59 5.67999 11.25 5.33999 11.25 4.92999V2C11.25 1.59 11.59 1.25 12 1.25C12.41 1.25 12.75 1.59 12.75 2V4.92999C12.75 5.33999 12.41 5.67999 12 5.67999Z" fill="white"/>
<path d="M12.0005 22.7498C9.69054 22.7498 7.76055 20.9398 7.60055 18.6398C7.59055 18.4298 7.66053 18.2298 7.80053 18.0798C7.94053 17.9298 8.14055 17.8398 8.35055 17.8398H15.6505C15.8605 17.8398 16.0606 17.9298 16.2006 18.0798C16.3406 18.2298 16.4105 18.4398 16.4005 18.6398C16.2405 20.9398 14.3105 22.7498 12.0005 22.7498ZM9.27053 19.3398C9.68053 20.4598 10.7605 21.2498 12.0005 21.2498C13.2405 21.2498 14.3206 20.4598 14.7306 19.3398H9.27053Z" fill="white"/>
</svg>
