<svg width="24" height="24" viewBox="0 0 24 24" fill="none" xmlns="http://www.w3.org/2000/svg">
<path d="M11.9995 22.7501C6.91954 22.7501 2.48954 19.1401 1.46954 14.1701C1.38954 13.7601 1.64954 13.3701 2.04954 13.2801C2.45954 13.2001 2.84954 13.4601 2.93954 13.8601C3.81954 18.1401 7.62954 21.2501 11.9995 21.2501C16.3595 21.2501 20.1695 18.1601 21.0595 13.9001C21.1395 13.4901 21.5395 13.2301 21.9495 13.3201C22.3595 13.4001 22.6195 13.8001 22.5295 14.2101C21.4895 19.1501 17.0695 22.7501 11.9995 22.7501Z" fill="white"/>
<path d="M21.81 10.8102C21.46 10.8102 21.15 10.5603 21.08 10.2003C20.23 5.88026 16.41 2.74023 12 2.74023C7.61995 2.74023 3.80996 5.85025 2.93996 10.1302C2.85996 10.5402 2.45996 10.7902 2.04996 10.7102C1.63996 10.6302 1.37996 10.2303 1.46996 9.82025C2.48996 4.85025 6.91995 1.24023 12 1.24023C17.13 1.24023 21.56 4.89025 22.55 9.91025C22.63 10.3202 22.36 10.7103 21.96 10.7903C21.91 10.8103 21.86 10.8102 21.81 10.8102Z" fill="white"/>
<path d="M12 14.25C10.76 14.25 9.75 13.24 9.75 12C9.75 10.76 10.76 9.75 12 9.75C13.24 9.75 14.25 10.76 14.25 12C14.25 13.24 13.24 14.25 12 14.25ZM12 11.25C11.59 11.25 11.25 11.59 11.25 12C11.25 12.41 11.59 12.75 12 12.75C12.41 12.75 12.75 12.41 12.75 12C12.75 11.59 12.41 11.25 12 11.25Z" fill="white"/>
</svg>
