<svg width="24" height="24" viewBox="0 0 24 24" fill="none" xmlns="http://www.w3.org/2000/svg">
<path d="M16.2804 22.1005H12.4804C11.9204 22.1005 10.7004 21.9305 10.0504 21.2805L7.02035 18.9405L7.94035 17.7505L11.0404 20.1505C11.2904 20.3905 11.9204 20.5905 12.4804 20.5905H16.2804C17.1804 20.5905 18.1504 19.8705 18.3504 19.0605L20.7704 11.7105C20.9304 11.2705 20.9004 10.8705 20.6904 10.5805C20.4704 10.2705 20.0704 10.0905 19.5804 10.0905H15.5804C15.0604 10.0905 14.5804 9.87048 14.2504 9.49048C13.9104 9.10048 13.7604 8.58048 13.8404 8.04048L14.3404 4.83048C14.4604 4.27048 14.0804 3.64048 13.5404 3.46048C13.0504 3.28048 12.4204 3.54048 12.2004 3.86048L8.10035 9.96048L6.86035 9.13048L10.9604 3.03048C11.5904 2.09048 12.9704 1.64048 14.0504 2.05048C15.3004 2.46048 16.1004 3.84048 15.8204 5.12048L15.3304 8.27048C15.3204 8.34048 15.3204 8.44048 15.3904 8.52048C15.4404 8.57048 15.5104 8.60048 15.5904 8.60048H19.5904C20.5704 8.60048 21.4204 9.01048 21.9204 9.72048C22.4104 10.4105 22.5104 11.3205 22.1904 12.2005L19.8004 19.4805C19.4304 20.9305 17.8904 22.1005 16.2804 22.1005Z" fill="white"/>
<path d="M5.37988 21.0004H4.37988C2.52988 21.0004 1.62988 20.1304 1.62988 18.3504V8.55039C1.62988 6.77039 2.52988 5.90039 4.37988 5.90039H5.37988C7.22988 5.90039 8.12988 6.77039 8.12988 8.55039V18.3504C8.12988 20.1304 7.22988 21.0004 5.37988 21.0004ZM4.37988 7.40039C3.28988 7.40039 3.12988 7.66039 3.12988 8.55039V18.3504C3.12988 19.2404 3.28988 19.5004 4.37988 19.5004H5.37988C6.46988 19.5004 6.62988 19.2404 6.62988 18.3504V8.55039C6.62988 7.66039 6.46988 7.40039 5.37988 7.40039H4.37988Z" fill="white"/>
</svg>
