<svg width="24" height="24" viewBox="0 0 24 24" fill="none" xmlns="http://www.w3.org/2000/svg">
<path d="M10.4199 13.7502C10.2899 13.7502 10.1599 13.7202 10.0399 13.6502C8.85988 12.9602 8.12988 11.6802 8.12988 10.3202C8.12988 8.1902 9.85988 6.4502 11.9999 6.4502C13.3699 6.4502 14.6499 7.1802 15.3399 8.3702C15.5499 8.7302 15.4299 9.1902 15.0699 9.4002C14.7099 9.6102 14.2499 9.4902 14.0399 9.1302C13.6199 8.3902 12.8399 7.9402 11.9999 7.9402C10.6999 7.9402 9.62988 9.0002 9.62988 10.3102C9.62988 11.1502 10.0799 11.9302 10.7999 12.3502C11.1599 12.5602 11.2799 13.0202 11.0699 13.3802C10.9299 13.6102 10.6799 13.7502 10.4199 13.7502Z" fill="white"/>
<path d="M5.98975 18.5601C5.75975 18.5601 5.52975 18.4501 5.37975 18.2501C2.97975 14.9601 2.13975 11.6201 2.88975 8.32007C3.66975 4.89007 6.18975 2.35007 9.62975 1.52007C13.2297 0.650071 17.0097 1.82007 19.2397 4.49007C19.5097 4.81007 19.4597 5.28007 19.1497 5.55007C18.8297 5.82007 18.3597 5.77007 18.0897 5.45007C16.2197 3.21007 13.0397 2.24007 9.97975 2.97007C7.05975 3.67007 5.00975 5.74007 4.34975 8.64007C3.69975 11.5001 4.44975 14.4301 6.58975 17.3501C6.82975 17.6801 6.75975 18.1501 6.42975 18.4001C6.29975 18.5101 6.13975 18.5601 5.98975 18.5601Z" fill="white"/>
<path d="M12.0001 22.7603C10.5201 22.7603 9.03006 22.2003 7.87006 21.0903C7.57006 20.8003 7.56006 20.3303 7.85006 20.0303C8.14006 19.7303 8.61006 19.7203 8.91006 20.0103C10.6401 21.6803 13.3501 21.6803 15.0801 20.0103C17.7501 17.4403 20.7101 13.3803 19.6501 8.67026C19.5601 8.27026 19.8101 7.86026 20.2201 7.77026C20.6201 7.68026 21.0301 7.93026 21.1201 8.34026C22.3401 13.7303 19.0801 18.2503 16.1301 21.0903C14.9701 22.2003 13.4801 22.7603 12.0001 22.7603Z" fill="white"/>
<path d="M2.00043 22.7504C1.81043 22.7504 1.62043 22.6804 1.47043 22.5304C1.18043 22.2404 1.18043 21.7604 1.47043 21.4704L21.4704 1.47043C21.7604 1.18043 22.2404 1.18043 22.5304 1.47043C22.8204 1.76043 22.8204 2.24043 22.5304 2.53043L2.53043 22.5304C2.38043 22.6804 2.19043 22.7504 2.00043 22.7504Z" fill="white"/>
</svg>
