<svg width="24" height="24" viewBox="0 0 24 24" fill="none" xmlns="http://www.w3.org/2000/svg">
<path d="M11.9997 22.76C10.5197 22.76 9.02969 22.2 7.86969 21.09C4.91969 18.25 1.65969 13.72 2.88969 8.33C3.99969 3.44 8.26969 1.25 11.9997 1.25C11.9997 1.25 11.9997 1.25 12.0097 1.25C15.7397 1.25 20.0097 3.44 21.1197 8.34C22.3397 13.73 19.0797 18.25 16.1297 21.09C14.9697 22.2 13.4797 22.76 11.9997 22.76ZM11.9997 2.75C9.08969 2.75 5.34969 4.3 4.35969 8.66C3.27969 13.37 6.23969 17.43 8.91969 20C10.6497 21.67 13.3597 21.67 15.0897 20C17.7597 17.43 20.7197 13.37 19.6597 8.66C18.6597 4.3 14.9097 2.75 11.9997 2.75Z" fill="white"/>
<path d="M10.7495 13.7504C10.5595 13.7504 10.3695 13.6804 10.2195 13.5304L8.71945 12.0304C8.42945 11.7404 8.42945 11.2604 8.71945 10.9704C9.00945 10.6804 9.48945 10.6804 9.77945 10.9704L10.7495 11.9404L14.2195 8.47043C14.5095 8.18043 14.9895 8.18043 15.2795 8.47043C15.5695 8.76043 15.5695 9.24043 15.2795 9.53043L11.2795 13.5304C11.1295 13.6804 10.9395 13.7504 10.7495 13.7504Z" fill="white"/>
</svg>
