<svg width="24" height="24" viewBox="0 0 24 24" fill="none" xmlns="http://www.w3.org/2000/svg">
<path d="M17.4409 15.3704C17.2509 15.3704 17.0609 15.3004 16.9109 15.1504C16.6209 14.8604 16.6209 14.3804 16.9109 14.0904L18.9409 12.0604L16.9109 10.0304C16.6209 9.74043 16.6209 9.26043 16.9109 8.97043C17.2009 8.68043 17.6809 8.68043 17.9709 8.97043L20.5309 11.5304C20.8209 11.8204 20.8209 12.3004 20.5309 12.5904L17.9709 15.1504C17.8209 15.3004 17.6309 15.3704 17.4409 15.3704Z" fill="white"/>
<path d="M19.9298 12.8096H9.75977C9.34977 12.8096 9.00977 12.4696 9.00977 12.0596C9.00977 11.6496 9.34977 11.3096 9.75977 11.3096H19.9298C20.3398 11.3096 20.6798 11.6496 20.6798 12.0596C20.6798 12.4696 20.3398 12.8096 19.9298 12.8096Z" fill="white"/>
<path d="M11.7598 20.75C6.60977 20.75 3.00977 17.15 3.00977 12C3.00977 6.85 6.60977 3.25 11.7598 3.25C12.1698 3.25 12.5098 3.59 12.5098 4C12.5098 4.41 12.1698 4.75 11.7598 4.75C7.48977 4.75 4.50977 7.73 4.50977 12C4.50977 16.27 7.48977 19.25 11.7598 19.25C12.1698 19.25 12.5098 19.59 12.5098 20C12.5098 20.41 12.1698 20.75 11.7598 20.75Z" fill="white"/>
</svg>
