<svg width="24" height="24" viewBox="0 0 24 24" fill="none" xmlns="http://www.w3.org/2000/svg">
<path d="M10.92 19.7496C10.63 19.7496 10.35 19.7096 10.12 19.6196C6.7 18.4496 1.25 14.2696 1.25 8.0896C1.25 4.9196 3.80999 2.34961 6.95999 2.34961C8.46999 2.34961 9.87999 2.92959 10.93 3.95959C11.99 2.92959 13.39 2.34961 14.9 2.34961C18.05 2.34961 20.61 4.9196 20.61 8.0896C20.61 8.5196 20.58 8.95961 20.52 9.40961C20.49 9.63961 20.35 9.8496 20.15 9.9696C19.95 10.0896 19.7 10.0996 19.48 10.0096C18.25 9.47961 16.72 9.87962 15.92 10.9496C15.78 11.1396 15.51 11.2396 15.32 11.2496C15.08 11.2496 14.86 11.1396 14.72 10.9496C14.15 10.1896 13.28 9.75961 12.34 9.75961C10.71 9.75961 9.38 11.0996 9.38 12.7496C9.38 15.3496 10.87 17.1996 12.13 18.3096C12.31 18.4696 12.4 18.6996 12.38 18.9396C12.36 19.1796 12.23 19.3896 12.02 19.5196C11.91 19.5796 11.82 19.6196 11.77 19.6296C11.51 19.7096 11.22 19.7496 10.92 19.7496ZM6.95999 3.84961C4.63999 3.84961 2.75 5.7496 2.75 8.0896C2.75 13.3196 7.10001 16.5396 9.60001 17.7796C8.65001 16.5096 7.87 14.8296 7.87 12.7396C7.87 10.2596 9.86999 8.2496 12.33 8.2496C13.45 8.2496 14.5 8.65962 15.31 9.38962C16.32 8.48962 17.76 8.07959 19.1 8.32959C19.1 8.24959 19.1 8.16961 19.1 8.09961C19.1 5.75961 17.21 3.85959 14.89 3.85959C13.56 3.85959 12.33 4.47959 11.52 5.54959C11.38 5.73959 11.16 5.84961 10.92 5.84961C10.68 5.84961 10.46 5.73959 10.32 5.54959C9.53001 4.46959 8.29999 3.84961 6.95999 3.84961Z" fill="white"/>
<path d="M15.3206 21.65C15.0906 21.65 14.8506 21.62 14.6606 21.55C13.8006 21.26 12.4106 20.55 11.1406 19.42C9.66062 18.11 7.89062 15.89 7.89062 12.74C7.89062 10.26 9.89062 8.25 12.3506 8.25C13.4706 8.25 14.5206 8.66001 15.3306 9.39001C16.5906 8.26001 18.5106 7.94 20.0906 8.63C21.7106 9.35 22.7606 10.97 22.7606 12.75C22.7606 17.49 18.6006 20.67 15.9806 21.56C15.7806 21.62 15.5506 21.65 15.3206 21.65ZM12.3406 9.75C10.7106 9.75 9.38062 11.09 9.38062 12.74C9.38062 15.34 10.8706 17.19 12.1306 18.3C13.2406 19.28 14.4106 19.89 15.1406 20.13C15.2206 20.16 15.4106 20.16 15.4806 20.13C16.9806 19.62 21.2506 17.17 21.2506 12.74C21.2506 11.55 20.5506 10.47 19.4806 10C18.2706 9.47 16.7206 9.87 15.9206 10.94C15.7806 11.13 15.5106 11.23 15.3206 11.24C15.0806 11.24 14.8606 11.13 14.7206 10.94C14.1506 10.18 13.2806 9.75 12.3406 9.75Z" fill="white"/>
</svg>
