<svg width="24" height="24" viewBox="0 0 24 24" fill="none" xmlns="http://www.w3.org/2000/svg">
<path d="M20.3795 21.13C20.1795 21.13 19.9895 21.05 19.8495 20.91L13.4695 14.53C13.1795 14.24 13.1795 13.76 13.4695 13.47L21.1995 5.74001C21.3895 5.55001 21.6795 5.48001 21.9395 5.55001C22.1995 5.63001 22.3994 5.84001 22.4594 6.10001C22.6494 6.95001 22.7495 7.90001 22.7495 9.00001V15C22.7495 17.77 22.1695 19.64 20.9095 20.91C20.7695 21.05 20.5595 21.08 20.3795 21.13ZM15.0594 14L20.3195 19.26C20.9495 18.29 21.2495 16.91 21.2495 15V9.00001C21.2495 8.59001 21.2394 8.21001 21.2094 7.85001L15.0594 14Z" fill="white"/>
<path d="M6.26999 22.48C6.20999 22.48 6.16001 22.47 6.10001 22.46C2.79001 21.7 1.25 19.33 1.25 15V9C1.25 3.57 3.57 1.25 9 1.25H15C19.33 1.25 21.7 2.79001 22.46 6.10001C22.52 6.35001 22.44 6.62 22.26 6.8L6.79999 22.26C6.65999 22.4 6.46999 22.48 6.26999 22.48ZM9 2.75C4.39 2.75 2.75 4.39 2.75 9V15C2.75 18.47 3.71001 20.21 6.04001 20.9L20.89 6.05C20.21 3.72 18.46 2.75999 14.99 2.75999H9V2.75Z" fill="white"/>
<path d="M15.0004 22.7504H9.00037C7.90037 22.7504 6.96038 22.6604 6.10038 22.4604C5.83038 22.4004 5.62036 22.2004 5.55036 21.9404C5.47036 21.6804 5.55036 21.4004 5.74036 21.2004L13.4704 13.4704C13.7604 13.1804 14.2404 13.1804 14.5304 13.4704L20.9104 19.8504C21.0504 19.9904 21.1304 20.1804 21.1304 20.3804C21.1304 20.5804 21.0504 20.7704 20.9104 20.9104C19.6404 22.1704 17.7704 22.7504 15.0004 22.7504ZM7.85038 21.2104C8.21038 21.2404 8.59037 21.2504 9.00037 21.2504H15.0004C16.9204 21.2504 18.2904 20.9504 19.2604 20.3204L14.0004 15.0604L7.85038 21.2104Z" fill="white"/>
<path d="M9.11994 13.31C8.48994 13.31 7.85993 13.08 7.35993 12.61C5.76993 11.1 5.12996 9.44005 5.50996 7.82005C5.88996 6.16005 7.33994 5.04004 9.11994 5.04004C10.8999 5.04004 12.35 6.16005 12.73 7.82005C13.1 9.45005 12.4599 11.1 10.8699 12.61C10.3799 13.07 9.74994 13.31 9.11994 13.31ZM6.96995 8.15004C6.64995 9.51004 7.56994 10.7301 8.39994 11.5201C8.80994 11.9101 9.43994 11.9101 9.83994 11.5201C10.6599 10.7401 11.5799 9.52004 11.2699 8.15004C10.9999 6.96004 9.93994 6.53004 9.11994 6.53004C8.29994 6.53004 7.24995 6.96004 6.96995 8.15004Z" fill="white"/>
<path d="M9.15039 9.49023C8.60039 9.49023 8.15039 9.04023 8.15039 8.49023C8.15039 7.94023 8.59039 7.49023 9.15039 7.49023H9.1604C9.7104 7.49023 10.1604 7.94023 10.1604 8.49023C10.1604 9.04023 9.70039 9.49023 9.15039 9.49023Z" fill="white"/>
</svg>
