<svg width="24" height="24" viewBox="0 0 24 24" fill="none" xmlns="http://www.w3.org/2000/svg">
<path d="M12.0003 22.7203C6.09027 22.7203 1.28027 17.9103 1.28027 12.0003C1.28027 6.09027 6.09027 1.28027 12.0003 1.28027C14.6503 1.28027 17.1903 2.26027 19.1503 4.03027C21.4203 6.04027 22.7203 8.95027 22.7203 12.0003C22.7203 15.0503 21.4203 17.9603 19.1403 19.9803C17.1903 21.7503 14.6503 22.7203 12.0003 22.7203ZM12.0003 2.78027C6.91027 2.78027 2.78027 6.92027 2.78027 12.0003C2.78027 17.0803 6.92027 21.2203 12.0003 21.2203C14.2803 21.2203 16.4603 20.3803 18.1503 18.8503C20.1103 17.1103 21.2303 14.6203 21.2303 11.9903C21.2303 9.36027 20.1103 6.87027 18.1603 5.14027C16.4603 3.62027 14.2803 2.78027 12.0003 2.78027Z" fill="white"/>
<path d="M10.4403 18.9104C10.0703 18.9104 9.68027 18.8304 9.30027 18.6804C6.56027 17.5804 4.78027 14.9504 4.78027 12.0004C4.78027 9.05038 6.55027 6.42038 9.30027 5.32038C10.1703 4.97038 11.0503 5.02038 11.7103 5.46038C12.3503 5.89038 12.7103 6.65038 12.7303 7.60038V16.3904V16.4004C12.7203 17.3504 12.3603 18.1204 11.7103 18.5404C11.3403 18.7904 10.9003 18.9104 10.4403 18.9104ZM10.4403 6.59038C10.2603 6.59038 10.0603 6.63038 9.86027 6.71038C7.68027 7.58038 6.28027 9.66038 6.28027 12.0004C6.28027 14.3404 7.68027 16.4204 9.86027 17.2904C10.2603 17.4504 10.6403 17.4504 10.8803 17.3004C11.1603 17.1104 11.2203 16.7004 11.2303 16.3904V7.61038C11.2303 7.31038 11.1603 6.89038 10.8803 6.70038C10.7603 6.63038 10.6103 6.59038 10.4403 6.59038Z" fill="white"/>
</svg>
