<svg width="24" height="24" viewBox="0 0 24 24" fill="none" xmlns="http://www.w3.org/2000/svg">
<path d="M21.6997 6.38965H14.4297C14.0197 6.38965 13.6797 6.04965 13.6797 5.63965C13.6797 5.22965 14.0197 4.88965 14.4297 4.88965H21.6997C22.1097 4.88965 22.4497 5.22965 22.4497 5.63965C22.4497 6.04965 22.1097 6.38965 21.6997 6.38965Z" fill="white"/>
<path d="M9.58078 6.38965H2.30078C1.89078 6.38965 1.55078 6.04965 1.55078 5.63965C1.55078 5.22965 1.89078 4.88965 2.30078 4.88965H9.57078C9.98078 4.88965 10.3208 5.22965 10.3208 5.63965C10.3208 6.04965 9.99078 6.38965 9.58078 6.38965Z" fill="white"/>
<path d="M21.6997 16.0801H14.4297C14.0197 16.0801 13.6797 15.7401 13.6797 15.3301C13.6797 14.9201 14.0197 14.5801 14.4297 14.5801H21.6997C22.1097 14.5801 22.4497 14.9201 22.4497 15.3301C22.4497 15.7401 22.1097 16.0801 21.6997 16.0801Z" fill="white"/>
<path d="M21.6997 22.1396H14.4297C14.0197 22.1396 13.6797 21.7996 13.6797 21.3896C13.6797 20.9796 14.0197 20.6396 14.4297 20.6396H21.6997C22.1097 20.6396 22.4497 20.9796 22.4497 21.3896C22.4497 21.7996 22.1097 22.1396 21.6997 22.1396Z" fill="white"/>
<path d="M18.0898 10.02C17.6798 10.02 17.3398 9.68 17.3398 9.27V2C17.3398 1.59 17.6798 1.25 18.0898 1.25C18.4998 1.25 18.8398 1.59 18.8398 2V9.27C18.8398 9.69 18.5098 10.02 18.0898 10.02Z" fill="white"/>
<path d="M2.30023 22.7499C2.11023 22.7499 1.92023 22.6799 1.77023 22.5299C1.48023 22.2399 1.48023 21.7599 1.77023 21.4699L9.04023 14.1999C9.33023 13.9099 9.81023 13.9099 10.1002 14.1999C10.3902 14.4899 10.3902 14.9699 10.1002 15.2599L2.83023 22.5299C2.69023 22.6799 2.50023 22.7499 2.30023 22.7499Z" fill="white"/>
<path d="M9.58 22.7499C9.39 22.7499 9.2 22.6799 9.05 22.5299L1.78 15.2599C1.49 14.9699 1.49 14.4899 1.78 14.1999C2.07 13.9099 2.55 13.9099 2.84 14.1999L10.11 21.4699C10.4 21.7599 10.4 22.2399 10.11 22.5299C9.96 22.6799 9.77 22.7499 9.58 22.7499Z" fill="white"/>
</svg>
