<svg width="24" height="24" viewBox="0 0 24 24" fill="none" xmlns="http://www.w3.org/2000/svg">
<path d="M12.0003 22.7504C7.3003 22.7504 3.1803 19.7404 1.7603 15.2704C1.6903 15.0404 1.7303 14.8004 1.8703 14.6004C2.0103 14.4104 2.2303 14.2904 2.4703 14.2904L6.2603 14.2604V9.00038C6.2603 8.68038 6.4603 8.40038 6.7503 8.29038C7.0503 8.18038 7.3803 8.27038 7.5803 8.52038L12.0003 13.8304L16.4203 8.52038C16.6203 8.28038 16.9603 8.19038 17.2503 8.29038C17.5503 8.40038 17.7403 8.68038 17.7403 9.00038V14.2504H21.5303C21.7703 14.2504 21.9903 14.3604 22.1303 14.5604C22.2703 14.7504 22.3103 15.0004 22.2403 15.2304C20.8403 19.7304 16.7103 22.7504 12.0003 22.7504ZM3.5503 15.7804C5.0303 19.0904 8.3003 21.2504 12.0003 21.2504C15.7103 21.2504 18.9903 19.0804 20.4603 15.7504H17.0003C16.5903 15.7504 16.2503 15.4104 16.2503 15.0004V11.0704L12.5803 15.4804C12.2903 15.8204 11.7103 15.8204 11.4303 15.4804L7.7603 11.0704V15.0004C7.7603 15.4104 7.4303 15.7504 7.0203 15.7504L3.5503 15.7804Z" fill="white"/>
<path d="M2.47 15.79C2.14 15.79 1.85 15.58 1.75 15.26C1.42 14.19 1.25 13.09 1.25 12C1.25 6.07 6.07 1.25 12 1.25C17.93 1.25 22.75 6.07 22.75 12C22.75 13.1 22.58 14.19 22.26 15.23C22.16 15.54 21.87 15.75 21.54 15.75H17C16.59 15.75 16.25 15.41 16.25 15V11.07L12.58 15.48C12.29 15.82 11.71 15.82 11.43 15.48L7.76 11.07V15C7.76 15.41 7.43 15.75 7.02 15.75L2.47 15.79ZM12 2.75C6.9 2.75 2.75 6.9 2.75 12C2.75 12.76 2.85 13.53 3.04 14.29L6.25 14.26V9C6.25 8.68 6.45 8.4 6.74 8.29C7.04 8.18 7.37 8.27 7.57 8.52L12 13.83L16.42 8.52C16.62 8.28 16.96 8.19 17.25 8.29C17.55 8.4 17.74 8.68 17.74 9V14.25H20.96C21.14 13.52 21.24 12.76 21.24 12C21.25 6.9 17.1 2.75 12 2.75Z" fill="white"/>
</svg>
