<svg width="24" height="24" viewBox="0 0 24 24" fill="none" xmlns="http://www.w3.org/2000/svg">
<path d="M12.0303 22.8496L11.6602 22.6696C11.5602 22.6196 1.24023 17.3196 1.24023 4.99956V4.57956L1.60022 4.35956C1.70022 4.29956 12.1102 -1.80044 22.3702 4.35956L22.7302 4.57956V4.99956C22.7302 5.46956 22.6102 16.4996 12.3702 22.6396L12.0303 22.8496ZM2.75024 5.43956C2.96024 15.2796 10.2702 20.1296 11.9802 21.1296C20.0602 16.0496 21.1002 7.41956 21.2302 5.41956C12.9202 0.699556 4.59024 4.48956 2.75024 5.43956Z" fill="white"/>
<path d="M7.10033 13.2105C6.76033 13.2105 6.42036 13.1705 6.07036 13.0905C3.99036 12.6005 2.42036 10.6505 1.38036 7.29047C1.26036 6.89047 1.48036 6.47046 1.88036 6.35046C2.28036 6.23046 2.70036 6.45046 2.82036 6.85046C3.69036 9.66046 4.90034 11.2705 6.42034 11.6305C8.23034 12.0505 10.2904 10.5805 11.2004 9.73047C10.3804 3.44047 15.8603 2.21046 15.9203 2.20046L16.5204 2.08047C16.9204 2.00047 17.3204 2.27046 17.4004 2.67046C17.4804 3.07046 17.2104 3.47047 16.8104 3.55047L16.2203 3.66047C16.0603 3.70047 11.8803 4.67047 12.7403 9.86047C12.7803 10.0905 12.7103 10.3305 12.5403 10.5005C12.4303 10.6405 9.95033 13.2105 7.10033 13.2105Z" fill="white"/>
<path d="M16.3501 19.2601C16.2401 19.2601 16.1301 19.2401 16.0301 19.1901C15.6601 19.0101 15.5001 18.5701 15.6801 18.1901C15.6901 18.1701 16.5401 16.3301 15.7901 14.3601C15.2101 12.8401 13.8401 11.6101 11.7101 10.6901C11.3301 10.5301 11.1501 10.0901 11.3201 9.71012C11.4901 9.33012 11.9201 9.15012 12.3101 9.32012C14.8401 10.4001 16.4801 11.9301 17.2101 13.8601C18.1801 16.4401 17.0901 18.7501 17.0401 18.8501C16.9001 19.1001 16.6301 19.2601 16.3501 19.2601Z" fill="white"/>
</svg>
