<svg width="24" height="24" viewBox="0 0 24 24" fill="none" xmlns="http://www.w3.org/2000/svg">
<path d="M17 21.7497C16.87 21.7497 16.73 21.7097 16.61 21.6397L6.61 15.6397C6.38 15.4997 6.25 15.2597 6.25 14.9997V8.99965C6.25 8.72965 6.4 8.47966 6.63 8.34966C6.87 8.21966 7.15 8.21965 7.39 8.35965L16.25 13.6796V9.42965L11.61 6.64965C11.38 6.50965 11.25 6.26965 11.25 6.00965C11.25 5.74965 11.39 5.49965 11.61 5.36965L16.61 2.36965C16.85 2.22965 17.14 2.22965 17.38 2.36965L22.38 5.36965C22.61 5.50965 22.74 5.74965 22.74 6.00965V18.0096C22.74 18.2696 22.6 18.5196 22.38 18.6496L17.38 21.6496C17.27 21.7096 17.13 21.7497 17 21.7497ZM7.75 14.5797L17 20.1297L21.25 17.5797V6.42965L17 3.87966L13.46 6.00965L17.39 8.36965C17.62 8.50965 17.75 8.74965 17.75 9.00965V15.0096C17.75 15.2796 17.6 15.5297 17.37 15.6597C17.14 15.7897 16.85 15.7896 16.61 15.6496L7.75 10.3297V14.5797V14.5797Z" fill="white"/>
<path d="M7 21.7499C6.87 21.7499 6.73 21.7099 6.61 21.6399L1.61 18.6399C1.38 18.4999 1.25 18.2599 1.25 17.9999V5.99988C1.25 5.73988 1.39 5.48988 1.61 5.35988L6.61 2.35988C6.85 2.21988 7.14 2.21988 7.38 2.35988L12.38 5.35988C12.74 5.56988 12.85 6.02988 12.64 6.38988C12.43 6.74988 11.97 6.85988 11.61 6.64988L7 3.87989L2.75 6.42987V17.5799L6.98 20.1199L11.29 17.2499C11.63 17.0199 12.1 17.1099 12.33 17.4599C12.56 17.8099 12.47 18.2699 12.12 18.4999L7.42 21.6299C7.29 21.7099 7.15 21.7499 7 21.7499Z" fill="white"/>
</svg>
