<svg width="24" height="24" viewBox="0 0 24 24" fill="none" xmlns="http://www.w3.org/2000/svg">
<path d="M11.7005 22.7503C11.6005 22.7503 11.5105 22.7503 11.4105 22.7503C5.93046 22.6003 1.48047 17.8803 1.48047 12.2403V5.21027C1.48047 4.70027 1.78046 4.25026 2.25046 4.06026C2.72046 3.87026 3.25044 3.97027 3.61044 4.33027L18.4405 19.1603C18.5905 19.3103 18.6705 19.5103 18.6605 19.7203C18.6505 19.9303 18.5605 20.1203 18.4005 20.2603C16.5405 21.8703 14.1705 22.7503 11.7005 22.7503ZM2.98047 5.81026V12.2403C2.98047 17.0803 6.78047 21.1203 11.4505 21.2503C13.3805 21.2903 15.2505 20.7303 16.7805 19.6203L2.98047 5.81026Z" fill="white"/>
<path d="M21.2696 19.9001C20.9496 19.9001 20.6296 19.7701 20.3896 19.5301L5.68959 4.83008C5.53959 4.68008 5.45959 4.48008 5.46959 4.27008C5.47959 4.06008 5.5696 3.87007 5.7296 3.73007C7.6396 2.06007 10.1096 1.17008 12.6696 1.25008C18.0996 1.40008 22.5196 6.08007 22.5196 11.6801V18.6401C22.5196 19.1501 22.2196 19.6001 21.7496 19.7901C21.5996 19.8601 21.4396 19.9001 21.2696 19.9001ZM7.34959 4.37007L21.0296 18.0501V11.6901C21.0296 6.90008 17.2596 2.89007 12.6296 2.76007C10.7196 2.72007 8.86959 3.27007 7.34959 4.37007Z" fill="white"/>
</svg>
