<svg width="24" height="24" viewBox="0 0 24 24" fill="none" xmlns="http://www.w3.org/2000/svg">
<path d="M10.0595 21.5797C9.05952 21.5797 8.04952 20.8997 6.69952 19.5597L3.23952 16.0997C0.299518 13.1597 0.599518 12.0297 3.23952 9.37971L8.80952 3.79971C10.7795 1.82971 12.4095 0.679708 15.5295 3.79971L18.9895 7.25971C21.7995 10.0697 21.1195 11.8497 18.9895 13.9797L13.4195 19.5497C12.0695 20.8997 11.0695 21.5797 10.0595 21.5797ZM4.29952 15.0297L7.75952 18.4897C9.87952 20.6097 10.2295 20.6197 12.3595 18.4897L17.9295 12.9197C19.5995 11.2497 20.0295 10.4197 17.9295 8.31971L14.4695 4.85971C12.2795 2.66971 11.6195 3.11971 9.86952 4.85971L4.29952 10.4297C2.17952 12.5597 1.99952 12.7297 4.29952 15.0297Z" fill="white"/>
<path d="M20.1399 21.4604C18.9999 21.4604 18.0999 21.0204 17.6599 20.2504C17.2199 19.4804 17.3099 18.4804 17.8999 17.5004L18.5599 16.4104C18.9499 15.7704 19.5199 15.4004 20.1399 15.4004C20.7599 15.4004 21.3399 15.7704 21.7199 16.4104L22.3799 17.5004C22.9699 18.4804 23.0499 19.4804 22.6199 20.2504C22.1899 21.0204 21.2699 21.4604 20.1399 21.4604ZM20.1399 16.9004C20.0899 16.9004 19.9699 16.9804 19.8399 17.1804L19.1799 18.2704C18.8799 18.7704 18.7999 19.2204 18.9599 19.5104C19.1199 19.8004 19.5499 19.9604 20.1299 19.9604C20.7099 19.9604 21.1399 19.8004 21.2999 19.5104C21.4599 19.2204 21.3799 18.7804 21.0799 18.2704L20.4199 17.1804C20.3099 16.9704 20.1899 16.9004 20.1399 16.9004Z" fill="white"/>
<path d="M1.99965 12.9901C1.66965 12.9901 1.36965 12.7701 1.27965 12.4401C1.16965 12.0401 1.40965 11.6301 1.80965 11.5201C7.47965 9.98011 13.4896 9.93011 19.1896 11.3901L19.6896 11.5201C20.0896 11.6201 20.3296 12.0301 20.2296 12.4301C20.1296 12.8301 19.7196 13.0701 19.3196 12.9701L18.8196 12.8401C13.3696 11.4401 7.62965 11.4901 2.20965 12.9701C2.12965 12.9901 2.05965 12.9901 1.99965 12.9901Z" fill="white"/>
</svg>
