<svg width="24" height="24" viewBox="0 0 24 24" fill="none" xmlns="http://www.w3.org/2000/svg">
<path d="M12.3291 21.3404C11.2391 21.3404 10.1491 20.9304 9.31906 20.1004C7.65906 18.4404 7.65906 15.7504 9.31906 14.0904L11.7991 11.6204C12.0891 11.3304 12.5691 11.3304 12.8591 11.6204C13.1491 11.9104 13.1491 12.3904 12.8591 12.6804L10.3791 15.1504C9.30906 16.2204 9.30906 17.9704 10.3791 19.0404C11.4491 20.1104 13.1991 20.1104 14.2691 19.0404L18.1591 15.1504C19.3391 13.9704 19.9891 12.4004 19.9891 10.7304C19.9891 9.06035 19.3391 7.49035 18.1591 6.31035C15.7191 3.87035 11.7591 3.87035 9.31906 6.31035L5.07906 10.5504C4.08906 11.5404 3.53906 12.8604 3.53906 14.2604C3.53906 15.6604 4.08906 16.9804 5.07906 17.9704C5.36906 18.2604 5.36906 18.7404 5.07906 19.0304C4.78906 19.3204 4.30906 19.3204 4.01906 19.0304C2.74906 17.7504 2.03906 16.0604 2.03906 14.2604C2.03906 12.4604 2.73906 10.7604 4.01906 9.49035L8.25906 5.25035C11.2791 2.23035 16.1991 2.23035 19.2191 5.25035C20.6791 6.71035 21.4891 8.66035 21.4891 10.7304C21.4891 12.8004 20.6791 14.7504 19.2191 16.2104L15.3291 20.1004C14.4991 20.9304 13.4191 21.3404 12.3291 21.3404Z" fill="white"/>
</svg>
