<svg width="24" height="24" viewBox="0 0 24 24" fill="none" xmlns="http://www.w3.org/2000/svg">
<path d="M15.0401 13.0198C14.8501 13.0198 14.6501 12.9398 14.5101 12.7998L11.2201 9.50978C10.9701 9.25978 10.9301 8.87978 11.1201 8.57978L12.1501 6.94978C12.4801 6.41978 13.0001 6.08978 13.5901 6.02978C14.2401 5.95978 14.9201 6.21978 15.4401 6.73978L17.2901 8.58978C17.7901 9.08978 18.0401 9.76978 17.9701 10.4398C17.9001 11.0398 17.5801 11.5598 17.0801 11.8798L15.4501 12.9098C15.3101 12.9898 15.1701 13.0198 15.0401 13.0198ZM12.7001 8.86978L15.1501 11.3198L16.2701 10.6098C16.4101 10.5198 16.4601 10.3798 16.4701 10.2698C16.4901 10.0598 16.4001 9.81978 16.2201 9.63978L14.3701 7.79978C14.1701 7.59978 13.9401 7.49978 13.7501 7.51978C13.6101 7.53978 13.5001 7.60978 13.4101 7.74978L12.7001 8.86978Z" fill="white"/>
<path d="M8.2902 17.9795C7.6702 17.9795 7.0902 17.7495 6.6802 17.3395C6.2002 16.8595 5.9702 16.1595 6.0602 15.4195L6.6602 10.3495C6.8602 8.65954 7.6802 7.97954 9.4002 8.08954L11.7902 8.22954C12.2002 8.25954 12.5202 8.60954 12.4902 9.01954C12.4602 9.42954 12.1102 9.74954 11.7002 9.71954L9.3002 9.58954C8.3302 9.52954 8.2402 9.67954 8.1402 10.5295L7.5402 15.5995C7.5102 15.8795 7.5802 16.1295 7.7302 16.2795C7.8902 16.4395 8.1302 16.5095 8.4102 16.4695L13.4802 15.8695C14.4002 15.7595 14.5102 15.6195 14.4302 14.7395L14.2802 12.3195C14.2602 11.9095 14.5702 11.5495 14.9802 11.5295C15.3902 11.4995 15.7502 11.8195 15.7702 12.2295L15.9102 14.6195C16.0802 16.2995 15.3802 17.1595 13.6502 17.3595L8.5802 17.9595C8.4902 17.9795 8.3902 17.9795 8.2902 17.9795Z" fill="white"/>
<path d="M7.48969 17.2704C7.29969 17.2704 7.10969 17.2004 6.95969 17.0504C6.66969 16.7604 6.66969 16.2804 6.95969 15.9904L8.80969 14.1404C9.09969 13.8504 9.57969 13.8504 9.86969 14.1404C10.1597 14.4304 10.1597 14.9104 9.86969 15.2004L8.01969 17.0504C7.87969 17.2004 7.68969 17.2704 7.48969 17.2704Z" fill="white"/>
<path d="M15 22.75H9C3.57 22.75 1.25 20.43 1.25 15V9C1.25 3.57 3.57 1.25 9 1.25H15C20.43 1.25 22.75 3.57 22.75 9V15C22.75 20.43 20.43 22.75 15 22.75ZM9 2.75C4.39 2.75 2.75 4.39 2.75 9V15C2.75 19.61 4.39 21.25 9 21.25H15C19.61 21.25 21.25 19.61 21.25 15V9C21.25 4.39 19.61 2.75 15 2.75H9Z" fill="white"/>
</svg>
