<svg width="24" height="24" viewBox="0 0 24 24" fill="none" xmlns="http://www.w3.org/2000/svg">
<path d="M14.1502 22.7496H9.87022C8.85022 22.7496 7.91022 22.3196 7.31022 21.5596C6.78022 20.8996 6.59022 20.0596 6.77022 19.2596L7.46022 16.1796C7.54022 15.8396 7.84022 15.5996 8.19022 15.5996H15.8302C16.1802 15.5996 16.4802 15.8396 16.5602 16.1796L17.2602 19.2596C17.4502 20.1196 17.2702 20.9496 16.7502 21.5996C16.1702 22.3296 15.2202 22.7496 14.1502 22.7496ZM8.79022 17.0996L8.23022 19.5996C8.15022 19.9596 8.24022 20.3196 8.48022 20.6296C8.79022 21.0196 9.31022 21.2496 9.87022 21.2496H14.1602C14.7702 21.2496 15.2902 21.0396 15.5802 20.6696C15.8202 20.3796 15.8902 19.9996 15.8002 19.5996L15.2402 17.0996H8.79022V17.0996Z" fill="white"/>
<path d="M8.18957 17.1C8.00957 17.1 7.82957 17.04 7.68957 16.91L4.74957 14.3C2.81957 12.71 2.65957 11.17 4.24957 9.15L9.43957 2.57C10.1096 1.72 11.0296 1.25 12.0096 1.25C12.9996 1.25 13.9096 1.72 14.5796 2.57L19.7696 9.15C21.3396 11.14 21.1996 12.59 19.2696 14.3L16.3296 16.91C16.0196 17.18 15.5396 17.16 15.2696 16.85C14.9996 16.54 15.0196 16.07 15.3296 15.79L18.2696 13.18C19.5896 12.01 19.6496 11.43 18.5896 10.08L13.4096 3.5C12.6496 2.53 11.3796 2.53 10.6196 3.5L5.42957 10.08C4.33957 11.46 4.38957 12.07 5.71957 13.16L8.67957 15.79C8.98957 16.06 9.01957 16.54 8.73957 16.85C8.59957 17.01 8.39957 17.1 8.18957 17.1Z" fill="white"/>
<path d="M12.0098 7.71992C11.5998 7.71992 11.2598 7.37992 11.2598 6.96992V2.66992C11.2598 2.25992 11.5998 1.91992 12.0098 1.91992C12.4198 1.91992 12.7598 2.25992 12.7598 2.66992V6.96992C12.7598 7.37992 12.4198 7.71992 12.0098 7.71992Z" fill="white"/>
<path d="M14.1502 22.7496H9.87022C8.85022 22.7496 7.91022 22.3196 7.31022 21.5596C6.78022 20.8996 6.59022 20.0596 6.77022 19.2596L7.46022 16.1796C7.54022 15.8396 7.84022 15.5996 8.19022 15.5996H15.8302C16.1802 15.5996 16.4802 15.8396 16.5602 16.1796L17.2602 19.2596C17.4502 20.1196 17.2702 20.9496 16.7502 21.5996C16.1702 22.3296 15.2202 22.7496 14.1502 22.7496ZM8.79022 17.0996L8.23022 19.5996C8.15022 19.9596 8.24022 20.3196 8.48022 20.6296C8.79022 21.0196 9.31022 21.2496 9.87022 21.2496H14.1602C14.7702 21.2496 15.2902 21.0396 15.5802 20.6696C15.8202 20.3796 15.8902 19.9996 15.8002 19.5996L15.2402 17.0996H8.79022V17.0996Z" fill="white"/>
<path d="M8.18957 17.1C8.00957 17.1 7.82957 17.04 7.68957 16.91L4.74957 14.3C2.81957 12.71 2.65957 11.17 4.24957 9.15L9.43957 2.57C10.1096 1.72 11.0296 1.25 12.0096 1.25C12.9996 1.25 13.9096 1.72 14.5796 2.57L19.7696 9.15C21.3396 11.14 21.1996 12.59 19.2696 14.3L16.3296 16.91C16.0196 17.18 15.5396 17.16 15.2696 16.85C14.9996 16.54 15.0196 16.07 15.3296 15.79L18.2696 13.18C19.5896 12.01 19.6496 11.43 18.5896 10.08L13.4096 3.5C12.6496 2.53 11.3796 2.53 10.6196 3.5L5.42957 10.08C4.33957 11.46 4.38957 12.07 5.71957 13.16L8.67957 15.79C8.98957 16.06 9.01957 16.54 8.73957 16.85C8.59957 17.01 8.39957 17.1 8.18957 17.1Z" fill="white"/>
<path d="M12.0098 7.71992C11.5998 7.71992 11.2598 7.37992 11.2598 6.96992V2.66992C11.2598 2.25992 11.5998 1.91992 12.0098 1.91992C12.4198 1.91992 12.7598 2.25992 12.7598 2.66992V6.96992C12.7598 7.37992 12.4198 7.71992 12.0098 7.71992Z" fill="white"/>
</svg>
