<svg width="24" height="24" viewBox="0 0 24 24" fill="none" xmlns="http://www.w3.org/2000/svg">
<path d="M16.9802 13.1996C16.7902 13.1996 16.5902 13.1196 16.4502 12.9796L11.0502 7.56958C10.8002 7.31958 10.7602 6.93958 10.9502 6.63958L12.6402 3.96958C13.1102 3.22958 13.8202 2.76958 14.6502 2.67958C15.5802 2.58958 16.5402 2.94958 17.2902 3.69958L20.3202 6.72958C21.0402 7.44958 21.4002 8.41958 21.2902 9.37958C21.2002 10.2196 20.7502 10.9496 20.0502 11.3896L17.3802 13.0796C17.2602 13.1596 17.1202 13.1996 16.9802 13.1996ZM12.5302 6.93958L17.0902 11.4996L19.2602 10.1296C19.5702 9.92958 19.7702 9.60958 19.8102 9.21958C19.8702 8.71958 19.6602 8.18958 19.2702 7.79958L16.2402 4.76958C15.8102 4.33958 15.2902 4.10958 14.8202 4.17958C14.4402 4.21958 14.1302 4.42958 13.9102 4.77958L12.5302 6.93958Z" fill="white"/>
<path d="M5.89038 21.3395C5.00038 21.3395 4.20038 21.0195 3.60038 20.4295C2.90038 19.7295 2.59038 18.7595 2.72038 17.6795L3.70038 9.34954C4.00038 6.82954 5.11038 5.90954 7.70038 6.05954L11.6204 6.28954C12.0304 6.31954 12.3504 6.66954 12.3204 7.07954C12.2904 7.48954 11.9404 7.80954 11.5304 7.77954L7.61038 7.55954C5.83038 7.44954 5.39038 7.79954 5.19038 9.52954L4.21038 17.8495C4.14038 18.4595 4.30038 18.9995 4.66038 19.3595C5.03038 19.7195 5.57038 19.8895 6.18038 19.8095L14.5004 18.8295C16.2504 18.6195 16.6404 18.1595 16.4704 16.4395L16.2304 12.4895C16.2104 12.0795 16.5204 11.7195 16.9304 11.6995C17.3404 11.6695 17.7004 11.9895 17.7204 12.3995L17.9504 16.3195C18.1904 18.8095 17.2104 20.0095 14.6604 20.3195L6.34038 21.2995C6.20038 21.3295 6.04038 21.3395 5.89038 21.3395Z" fill="white"/>
<path d="M4.6098 20.1703C4.4198 20.1703 4.2298 20.1003 4.0798 19.9503C3.7898 19.6603 3.7898 19.1803 4.0798 18.8903L7.1198 15.8503C7.4098 15.5603 7.88981 15.5603 8.17981 15.8503C8.46981 16.1403 8.46981 16.6203 8.17981 16.9103L5.1398 19.9503C4.9898 20.1003 4.7998 20.1703 4.6098 20.1703Z" fill="white"/>
</svg>
