<svg width="24" height="24" viewBox="0 0 24 24" fill="none" xmlns="http://www.w3.org/2000/svg">
<path d="M14.0402 22.75H9.2502C7.6302 22.75 6.1602 22.12 5.1002 20.96C4.0402 19.81 3.5302 18.29 3.6702 16.68C4.0102 12.58 7.6302 9.25 11.7502 9.25C15.5402 9.25 19.1202 12.29 19.7502 16.02C20.0502 17.8 19.6102 19.48 18.5302 20.76C17.4302 22.04 15.8402 22.75 14.0402 22.75ZM11.7402 10.75C8.3902 10.75 5.4402 13.47 5.1602 16.81C5.0602 18 5.4302 19.11 6.2002 19.95C6.9702 20.79 8.0502 21.25 9.2402 21.25H14.0302C15.3802 21.25 16.5702 20.73 17.3602 19.8C18.1502 18.87 18.4702 17.61 18.2502 16.27C17.7502 13.23 14.8302 10.75 11.7402 10.75Z" fill="white"/>
<path d="M10.4697 8.25C8.67973 8.25 7.21973 6.79 7.21973 5C7.21973 3.21 8.67973 1.75 10.4697 1.75C12.2597 1.75 13.7197 3.21 13.7197 5C13.7197 6.79 12.2697 8.25 10.4697 8.25ZM10.4697 3.25C9.50973 3.25 8.71973 4.04 8.71973 5C8.71973 5.96 9.50973 6.75 10.4697 6.75C11.4297 6.75 12.2197 5.96 12.2197 5C12.2197 4.04 11.4397 3.25 10.4697 3.25Z" fill="white"/>
<path d="M17.2998 9.4502C15.7798 9.4502 14.5498 8.2202 14.5498 6.7002C14.5498 5.1802 15.7798 3.9502 17.2998 3.9502C18.8198 3.9502 20.0498 5.1802 20.0498 6.7002C20.0498 8.2202 18.8198 9.4502 17.2998 9.4502ZM17.2998 5.4502C16.6098 5.4502 16.0498 6.0102 16.0498 6.7002C16.0498 7.3902 16.6098 7.9502 17.2998 7.9502C17.9898 7.9502 18.5498 7.3902 18.5498 6.7002C18.5498 6.0102 17.9898 5.4502 17.2998 5.4502Z" fill="white"/>
<path d="M21 13.4502C19.76 13.4502 18.75 12.4402 18.75 11.2002C18.75 9.9602 19.76 8.9502 21 8.9502C22.24 8.9502 23.25 9.9602 23.25 11.2002C23.25 12.4402 22.24 13.4502 21 13.4502ZM21 10.4502C20.59 10.4502 20.25 10.7902 20.25 11.2002C20.25 11.6102 20.59 11.9502 21 11.9502C21.41 11.9502 21.75 11.6102 21.75 11.2002C21.75 10.7902 21.41 10.4502 21 10.4502Z" fill="white"/>
<path d="M3.96973 11.4502C2.44973 11.4502 1.21973 10.2202 1.21973 8.7002C1.21973 7.1802 2.44973 5.9502 3.96973 5.9502C5.48973 5.9502 6.71973 7.1802 6.71973 8.7002C6.71973 10.2202 5.48973 11.4502 3.96973 11.4502ZM3.96973 7.4502C3.27973 7.4502 2.71973 8.0102 2.71973 8.7002C2.71973 9.3902 3.27973 9.9502 3.96973 9.9502C4.65973 9.9502 5.21973 9.3902 5.21973 8.7002C5.21973 8.0102 4.65973 7.4502 3.96973 7.4502Z" fill="white"/>
</svg>
