<svg width="24" height="24" viewBox="0 0 24 24" fill="none" xmlns="http://www.w3.org/2000/svg">
<path d="M15 22.75H9C3.57 22.75 1.25 20.43 1.25 15V9C1.25 3.57 3.57 1.25 9 1.25H15C20.43 1.25 22.75 3.57 22.75 9V15C22.75 20.43 20.43 22.75 15 22.75ZM9 2.75C4.39 2.75 2.75 4.39 2.75 9V15C2.75 19.61 4.39 21.25 9 21.25H15C19.61 21.25 21.25 19.61 21.25 15V9C21.25 4.39 19.61 2.75 15 2.75H9Z" fill="white"/>
<path d="M13.9501 22.7497C13.6101 22.7497 13.31 22.5197 13.22 22.1797L8.2701 2.17969C8.1701 1.77969 8.42009 1.3697 8.82009 1.2697C9.22009 1.1697 9.63006 1.4097 9.73006 1.8197L14.6801 21.8197C14.7801 22.2197 14.5301 22.6297 14.1301 22.7297C14.0701 22.7397 14.0101 22.7497 13.9501 22.7497Z" fill="white"/>
<path d="M1.99985 15.7496C1.66985 15.7496 1.37988 15.5396 1.27988 15.2096C1.15988 14.8096 1.38983 14.3996 1.78983 14.2796L11.3199 11.4996C11.7199 11.3796 12.1299 11.6096 12.2499 12.0096C12.3699 12.4096 12.1398 12.8196 11.7398 12.9396L2.20987 15.7196C2.13987 15.7396 2.06985 15.7496 1.99985 15.7496Z" fill="white"/>
</svg>
