<svg width="24" height="24" viewBox="0 0 24 24" fill="none" xmlns="http://www.w3.org/2000/svg">
<path d="M12 22.7495C10.95 22.7495 9.90002 22.6695 8.86002 22.5095C7.67002 22.3295 6.81002 21.3195 6.80002 20.1195V14.2195C6.80002 12.5795 8.13002 11.2495 9.77002 11.2495H14.21C15.02 11.2495 15.68 10.5895 15.68 9.77952V3.88954C15.68 3.42954 15.35 3.04953 14.89 2.97953C12.96 2.67953 11.01 2.67953 9.08002 2.97953C8.63002 3.04953 8.29004 3.43952 8.29004 3.89952V7.56953C8.29004 7.97953 7.95004 8.31953 7.54004 8.31953C7.13004 8.31953 6.79004 7.97953 6.79004 7.56953V3.89952C6.80004 2.69952 7.66004 1.68953 8.85004 1.50953C10.93 1.18953 13.04 1.18953 15.12 1.50953C16.31 1.68953 17.17 2.69952 17.18 3.89952V9.79951C17.18 11.4395 15.85 12.7695 14.21 12.7695H9.77002C8.96002 12.7695 8.30002 13.4295 8.30002 14.2395V20.1295C8.30002 20.5895 8.63003 20.9695 9.09003 21.0395C11.02 21.3395 12.97 21.3395 14.9 21.0395C15.35 20.9695 15.69 20.5795 15.69 20.1195V16.4495C15.69 16.0395 16.03 15.6995 16.44 15.6995C16.85 15.6995 17.19 16.0395 17.19 16.4495V20.1195C17.18 21.3195 16.32 22.3295 15.13 22.5095C14.1 22.6695 13.05 22.7495 12 22.7495Z" fill="white"/>
<path d="M12 17.1898C11.59 17.1898 11.25 16.8498 11.25 16.4398C11.25 16.0298 11.59 15.6898 12 15.6898H20.12C20.58 15.6898 20.96 15.3598 21.03 14.8998C21.33 12.9698 21.33 11.0198 21.03 9.08981C20.96 8.62981 20.58 8.2998 20.12 8.2998H16.45C16.04 8.2998 15.7 7.9598 15.7 7.5498C15.7 7.1398 16.04 6.7998 16.45 6.7998H20.12C21.32 6.8098 22.33 7.6698 22.51 8.8598C22.83 10.9398 22.83 13.0498 22.51 15.1298C22.33 16.3198 21.32 17.1798 20.12 17.1898H12V17.1898Z" fill="white"/>
<path d="M7.55976 17.1898H3.88978C2.68978 17.1798 1.67977 16.3198 1.49977 15.1298C1.17977 13.0498 1.17977 10.9398 1.49977 8.8598C1.67977 7.6698 2.68978 6.8098 3.88978 6.7998H11.9998C12.4098 6.7998 12.7498 7.1398 12.7498 7.5498C12.7498 7.9598 12.4098 8.2998 11.9998 8.2998H3.87977C3.41977 8.2998 3.03977 8.62981 2.96977 9.08981C2.66977 11.0198 2.66977 12.9698 2.96977 14.8998C3.03977 15.3598 3.41977 15.6898 3.87977 15.6898H7.54975C7.95975 15.6898 8.29975 16.0298 8.29975 16.4398C8.29975 16.8498 7.96976 17.1898 7.55976 17.1898Z" fill="white"/>
<path d="M10.3295 5.57971C9.91953 5.57971 9.51953 5.18971 9.51953 4.76971C9.51953 4.34971 9.90953 3.96973 10.3295 3.96973C10.5195 3.96973 10.7496 4.05973 10.8896 4.18973C11.0396 4.32973 11.1396 4.56971 11.1396 4.76971C11.1396 5.18971 10.7495 5.57971 10.3295 5.57971Z" fill="white"/>
<path d="M13.6704 20.0302C13.2604 20.0302 12.8604 19.6402 12.8604 19.2202C12.8604 18.8002 13.2504 18.4102 13.6704 18.4102C13.8604 18.4102 14.0904 18.5002 14.2304 18.6302C14.3804 18.7702 14.4804 19.0101 14.4804 19.2101C14.4704 19.6401 14.0804 20.0302 13.6704 20.0302Z" fill="white"/>
</svg>
