<svg width="24" height="24" viewBox="0 0 24 24" fill="none" xmlns="http://www.w3.org/2000/svg">
<path d="M22.0011 12.3995H16.2011C14.3011 12.3995 12.8711 10.9695 12.8711 9.06952V5.84949C12.8711 3.94949 14.3011 2.51953 16.2011 2.51953H19.4211C21.2511 2.51953 22.7511 4.00949 22.7511 5.84949V11.6495C22.7511 12.0695 22.4111 12.3995 22.0011 12.3995ZM16.2011 4.02954C15.1411 4.02954 14.3711 4.7995 14.3711 5.8595V9.07953C14.3711 10.1395 15.1411 10.9095 16.2011 10.9095H21.2511V5.8595C21.2511 4.8495 20.4311 4.02954 19.4211 4.02954H16.2011V4.02954Z" fill="white"/>
<path d="M17.4705 21.4703C17.2105 21.4703 16.9605 21.3403 16.8205 21.1003C16.6105 20.7403 16.7305 20.2804 17.0805 20.0704C20.3105 18.1504 21.2505 17.3504 21.2505 11.6504C21.2505 11.2404 21.5905 10.9004 22.0005 10.9004C22.4105 10.9004 22.7505 11.2404 22.7505 11.6504C22.7505 17.9004 21.4805 19.2104 17.8505 21.3604C17.7305 21.4404 17.6005 21.4703 17.4705 21.4703Z" fill="white"/>
<path d="M10.3702 12.3995H4.57023C2.67023 12.3995 1.24023 10.9695 1.24023 9.06952V5.84949C1.24023 3.94949 2.67023 2.51953 4.57023 2.51953H7.80023C9.63023 2.51953 11.1302 4.00949 11.1302 5.84949V11.6495C11.1202 12.0695 10.7902 12.3995 10.3702 12.3995ZM4.58023 4.02954C3.52023 4.02954 2.75023 4.7995 2.75023 5.8595V9.07953C2.75023 10.1395 3.52023 10.9095 4.58023 10.9095H9.63023V5.8595C9.63023 4.8495 8.81023 4.02954 7.80023 4.02954H4.58023V4.02954Z" fill="white"/>
<path d="M5.83964 21.4703C5.57964 21.4703 5.32964 21.3403 5.18964 21.1003C4.97964 20.7403 5.09964 20.2804 5.44964 20.0704C8.67964 18.1504 9.61964 17.3504 9.61964 11.6504C9.61964 11.2404 9.95964 10.9004 10.3696 10.9004C10.7796 10.9004 11.1196 11.2404 11.1196 11.6504C11.1196 17.9004 9.84964 19.2104 6.21964 21.3604C6.09964 21.4404 5.96964 21.4703 5.83964 21.4703Z" fill="white"/>
</svg>
