<svg width="24" height="24" viewBox="0 0 24 24" fill="none" xmlns="http://www.w3.org/2000/svg">
<path d="M11.9707 22.75C6.0507 22.75 1.2207 17.93 1.2207 12C1.2207 6.07 6.0507 1.25 11.9707 1.25C17.8907 1.25 22.7207 6.07 22.7207 12C22.7207 17.93 17.9007 22.75 11.9707 22.75ZM11.9707 2.75C6.8707 2.75 2.7207 6.9 2.7207 12C2.7207 17.1 6.8707 21.25 11.9707 21.25C17.0707 21.25 21.2207 17.1 21.2207 12C21.2207 6.9 17.0707 2.75 11.9707 2.75Z" fill="white"/>
<path d="M11.9995 16.9795C9.24953 16.9795 7.01953 14.7495 7.01953 11.9995C7.01953 9.24953 9.24953 7.01953 11.9995 7.01953C14.7495 7.01953 16.9795 9.24953 16.9795 11.9995C16.9795 14.7495 14.7495 16.9795 11.9995 16.9795ZM11.9995 8.51953C10.0795 8.51953 8.51953 10.0795 8.51953 11.9995C8.51953 13.9195 10.0795 15.4795 11.9995 15.4795C13.9195 15.4795 15.4795 13.9195 15.4795 11.9995C15.4795 10.0795 13.9195 8.51953 11.9995 8.51953Z" fill="white"/>
</svg>
