<svg width="24" height="24" viewBox="0 0 24 24" fill="none" xmlns="http://www.w3.org/2000/svg">
<path d="M16.8691 19.0596H8.86914C5.69914 19.0596 3.11914 16.4796 3.11914 13.3096C3.11914 10.1396 5.69914 7.55957 8.86914 7.55957H19.8691C20.2791 7.55957 20.6191 7.89957 20.6191 8.30957C20.6191 8.71957 20.2791 9.05957 19.8691 9.05957H8.86914C6.52914 9.05957 4.61914 10.9696 4.61914 13.3096C4.61914 15.6496 6.52914 17.5596 8.86914 17.5596H16.8691C17.2791 17.5596 17.6191 17.8996 17.6191 18.3096C17.6191 18.7196 17.2891 19.0596 16.8691 19.0596Z" fill="white"/>
<path d="M17.5698 11.5599C17.3798 11.5599 17.1898 11.4899 17.0398 11.3399C16.7498 11.0499 16.7498 10.5699 17.0398 10.2799L19.0698 8.24988L17.0398 6.21988C16.7498 5.92988 16.7498 5.44988 17.0398 5.15988C17.3298 4.86988 17.8098 4.86988 18.0998 5.15988L20.6598 7.71988C20.9498 8.00988 20.9498 8.48988 20.6598 8.77988L18.0998 11.3399C17.9498 11.4899 17.7598 11.5599 17.5698 11.5599Z" fill="white"/>
</svg>
