<svg width="24" height="24" viewBox="0 0 24 24" fill="none" xmlns="http://www.w3.org/2000/svg">
<path d="M5.46967 10.75C4.75967 10.75 4.03967 10.49 3.48967 9.96C1.64967 8.21 0.909667 6.3 1.33967 4.43C1.84967 2.23 3.77967 1.25 5.46967 1.25C7.15967 1.25 9.09967 2.24 9.59967 4.43C10.0297 6.3 9.27967 8.21 7.44967 9.96C6.89967 10.49 6.18967 10.75 5.46967 10.75ZM2.79967 4.77C2.41967 6.44 3.52967 7.92 4.52967 8.87C5.05967 9.38 5.88967 9.37 6.41967 8.87C7.41967 7.92 8.52967 6.44 8.13967 4.76C7.79967 3.28 6.48967 2.75 5.47967 2.75C4.45967 2.75 3.14967 3.28 2.79967 4.77Z" fill="white"/>
<path d="M5.50977 6.2002C4.95977 6.2002 4.50977 5.7502 4.50977 5.2002C4.50977 4.6502 4.94977 4.2002 5.50977 4.2002H5.51977C6.06977 4.2002 6.51977 4.6502 6.51977 5.2002C6.51977 5.7502 6.06977 6.2002 5.50977 6.2002Z" fill="white"/>
<path d="M18.4904 22.7502C17.7804 22.7502 17.0604 22.4902 16.5004 21.9602C14.6504 20.2102 13.9004 18.3002 14.3404 16.4202C14.8504 14.2302 16.7904 13.2402 18.4904 13.2402C20.1904 13.2402 22.1304 14.2302 22.6404 16.4202C23.0704 18.2902 22.3204 20.2102 20.4704 21.9502C19.9204 22.4902 19.2104 22.7502 18.4904 22.7502ZM18.4904 14.7502C17.4704 14.7502 16.1504 15.2802 15.8004 16.7702C15.4104 18.4402 16.5304 19.9302 17.5304 20.8802C18.0604 21.3902 18.9004 21.3902 19.4404 20.8802C20.4404 19.9302 21.5604 18.4502 21.1704 16.7802C20.8404 15.2802 19.5204 14.7502 18.4904 14.7502Z" fill="white"/>
<path d="M18.5303 18.2002C17.9803 18.2002 17.5303 17.7502 17.5303 17.2002C17.5303 16.6502 17.9703 16.2002 18.5303 16.2002H18.5403C19.0903 16.2002 19.5403 16.6502 19.5403 17.2002C19.5403 17.7502 19.0803 18.2002 18.5303 18.2002Z" fill="white"/>
<path d="M12.0004 19.75H9.32043C8.16043 19.75 7.15043 19.05 6.75043 17.97C6.34043 16.89 6.64043 15.7 7.51043 14.93L15.5004 7.94C15.9804 7.52 15.9904 6.95 15.8504 6.56C15.7004 6.17 15.3204 5.75 14.6804 5.75H12.0004C11.5904 5.75 11.2504 5.41 11.2504 5C11.2504 4.59 11.5904 4.25 12.0004 4.25H14.6804C15.8404 4.25 16.8504 4.95 17.2504 6.03C17.6604 7.11 17.3604 8.3 16.4904 9.07L8.50043 16.06C8.02043 16.48 8.01043 17.05 8.15043 17.44C8.30043 17.83 8.68043 18.25 9.32043 18.25H12.0004C12.4104 18.25 12.7504 18.59 12.7504 19C12.7504 19.41 12.4104 19.75 12.0004 19.75Z" fill="white"/>
<path d="M12.0004 19.75H9.32043C8.16043 19.75 7.15043 19.05 6.75043 17.97C6.34043 16.89 6.64043 15.7 7.51043 14.93L15.5004 7.94C15.9804 7.52 15.9904 6.95 15.8504 6.56C15.7004 6.17 15.3204 5.75 14.6804 5.75H12.0004C11.5904 5.75 11.2504 5.41 11.2504 5C11.2504 4.59 11.5904 4.25 12.0004 4.25H14.6804C15.8404 4.25 16.8504 4.95 17.2504 6.03C17.6604 7.11 17.3604 8.3 16.4904 9.07L8.50043 16.06C8.02043 16.48 8.01043 17.05 8.15043 17.44C8.30043 17.83 8.68043 18.25 9.32043 18.25H12.0004C12.4104 18.25 12.7504 18.59 12.7504 19C12.7504 19.41 12.4104 19.75 12.0004 19.75Z" fill="white"/>
</svg>
