<svg width="24" height="24" viewBox="0 0 24 24" fill="none" xmlns="http://www.w3.org/2000/svg">
<path d="M11.5 21.75C5.85 21.75 1.25 17.15 1.25 11.5C1.25 5.85 5.85 1.25 11.5 1.25C11.91 1.25 12.25 1.59 12.25 2C12.25 2.41 11.91 2.75 11.5 2.75C6.67 2.75 2.75 6.68 2.75 11.5C2.75 16.32 6.67 20.25 11.5 20.25C16.33 20.25 20.25 16.32 20.25 11.5C20.25 11.09 20.59 10.75 21 10.75C21.41 10.75 21.75 11.09 21.75 11.5C21.75 17.15 17.15 21.75 11.5 21.75Z" fill="white"/>
<path d="M22.0004 22.7504C21.8104 22.7504 21.6204 22.6804 21.4704 22.5304L19.4704 20.5304C19.1804 20.2404 19.1804 19.7604 19.4704 19.4704C19.7604 19.1804 20.2404 19.1804 20.5304 19.4704L22.5304 21.4704C22.8204 21.7604 22.8204 22.2404 22.5304 22.5304C22.3804 22.6804 22.1904 22.7504 22.0004 22.7504Z" fill="white"/>
<path d="M17.4999 9.54018C16.5799 9.54018 14.4399 8.42018 13.7799 6.36018C13.3299 4.95018 13.8499 3.10018 15.4799 2.57018C16.1799 2.34018 16.9099 2.45018 17.4899 2.82018C18.0599 2.45018 18.8099 2.35018 19.5099 2.57018C21.1399 3.10018 21.6699 4.95018 21.2099 6.36018C20.5599 8.46018 18.3099 9.54018 17.4999 9.54018ZM15.2099 5.91018C15.6699 7.36018 17.2299 8.02018 17.5099 8.05018C17.8299 8.02018 19.3599 7.28018 19.7799 5.92018C20.0099 5.19018 19.7799 4.25018 19.0499 4.01018C18.7399 3.91018 18.3199 3.97018 18.1199 4.26018C17.9799 4.47018 17.7599 4.59018 17.5099 4.60018C17.2899 4.61018 17.0299 4.49018 16.8899 4.29018C16.6599 3.96018 16.2399 3.91018 15.9399 4.00018C15.2199 4.24018 14.9799 5.18018 15.2099 5.91018Z" fill="white"/>
</svg>
