<svg width="24" height="24" viewBox="0 0 24 24" fill="none" xmlns="http://www.w3.org/2000/svg">
<path d="M12.0004 22.7604C10.9104 22.7604 9.83041 22.4404 8.98041 21.8104L4.68039 18.6004C3.54039 17.7504 2.65039 15.9704 2.65039 14.5604V7.12043C2.65039 5.58043 3.78041 3.94043 5.23041 3.40043L10.2204 1.53043C11.2104 1.16043 12.7704 1.16043 13.7604 1.53043L18.7504 3.40043C20.2004 3.94043 21.3304 5.58043 21.3304 7.12043V14.5504C21.3304 15.9704 20.4404 17.7404 19.3004 18.5904L15.0004 21.8004C14.1704 22.4404 13.0904 22.7604 12.0004 22.7604ZM10.7504 2.94043L5.76041 4.81043C4.91041 5.13043 4.1604 6.21043 4.1604 7.13043V14.5604C4.1604 15.5104 4.83038 16.8404 5.58038 17.4004L9.8804 20.6104C11.0304 21.4704 12.9704 21.4704 14.1304 20.6104L18.4304 17.4004C19.1904 16.8304 19.8504 15.5104 19.8504 14.5604V7.12043C19.8504 6.21043 19.1004 5.13043 18.2504 4.80043L13.2604 2.93043C12.5804 2.69043 11.4204 2.69043 10.7504 2.94043Z" fill="white"/>
<path d="M12 16.25C9.38 16.25 7.25 14.12 7.25 11.5C7.25 8.88 9.38 6.75 12 6.75C14.62 6.75 16.75 8.88 16.75 11.5C16.75 14.12 14.62 16.25 12 16.25ZM12 8.25C10.21 8.25 8.75 9.71 8.75 11.5C8.75 13.29 10.21 14.75 12 14.75C13.79 14.75 15.25 13.29 15.25 11.5C15.25 9.71 13.79 8.25 12 8.25Z" fill="white"/>
<path d="M10.9999 13.2498C10.7499 13.2498 10.4999 13.1198 10.3599 12.8898C10.1499 12.5298 10.2599 12.0698 10.6199 11.8598L11.3799 11.3998C11.4599 11.3498 11.4999 11.2698 11.4999 11.1898V10.2598C11.4999 9.84977 11.8399 9.50977 12.2499 9.50977C12.6599 9.50977 12.9999 9.83977 12.9999 10.2498V11.1798C12.9999 11.7898 12.6699 12.3698 12.1499 12.6798L11.3799 13.1398C11.2699 13.2198 11.1299 13.2498 10.9999 13.2498Z" fill="white"/>
</svg>
