<svg width="24" height="24" viewBox="0 0 24 24" fill="none" xmlns="http://www.w3.org/2000/svg">
<path d="M15 22.75H9C3.57 22.75 1.25 20.43 1.25 15V9C1.25 3.57 3.57 1.25 9 1.25H15C20.43 1.25 22.75 3.57 22.75 9V15C22.75 20.43 20.43 22.75 15 22.75ZM9 2.75C4.39 2.75 2.75 4.39 2.75 9V15C2.75 19.61 4.39 21.25 9 21.25H15C19.61 21.25 21.25 19.61 21.25 15V9C21.25 4.39 19.61 2.75 15 2.75H9Z" fill="white"/>
<path d="M14.8298 12.6804C14.4198 12.6804 14.0798 12.3404 14.0798 11.9304V8.44043H10.5898C10.1798 8.44043 9.83984 8.10043 9.83984 7.69043C9.83984 7.28043 10.1798 6.94043 10.5898 6.94043H14.8298C15.2398 6.94043 15.5798 7.28043 15.5798 7.69043V11.9304C15.5798 12.3404 15.2398 12.6804 14.8298 12.6804Z" fill="white"/>
<path d="M9.16937 14.0901C8.97937 14.0901 8.78938 14.0201 8.63938 13.8701C8.34938 13.5801 8.34938 13.1001 8.63938 12.8101L14.2994 7.15012C14.5894 6.86012 15.0694 6.86012 15.3594 7.15012C15.6494 7.44012 15.6494 7.92013 15.3594 8.21013L9.69937 13.8701C9.55937 14.0201 9.35937 14.0901 9.16937 14.0901Z" fill="white"/>
<path d="M12.0004 18.2302C9.89044 18.2302 7.77043 17.8902 5.76043 17.2202C5.37043 17.0902 5.16043 16.6602 5.29043 16.2702C5.42043 15.8802 5.85045 15.6602 6.24045 15.8002C9.96045 17.0402 14.0504 17.0402 17.7704 15.8002C18.1604 15.6702 18.5904 15.8802 18.7204 16.2702C18.8504 16.6602 18.6404 17.0902 18.2504 17.2202C16.2304 17.9002 14.1104 18.2302 12.0004 18.2302Z" fill="white"/>
</svg>
