<svg width="24" height="24" viewBox="0 0 24 24" fill="none" xmlns="http://www.w3.org/2000/svg">
<path d="M11.7197 22.75H7.21973C3.06973 22.75 1.21973 20.9 1.21973 16.75V12.25C1.21973 8.1 3.06973 6.25 7.21973 6.25H11.7197C15.8697 6.25 17.7197 8.1 17.7197 12.25V16.75C17.7197 20.9 15.8697 22.75 11.7197 22.75ZM7.21973 7.75C3.89973 7.75 2.71973 8.93 2.71973 12.25V16.75C2.71973 20.07 3.89973 21.25 7.21973 21.25H11.7197C15.0397 21.25 16.2197 20.07 16.2197 16.75V12.25C16.2197 8.93 15.0397 7.75 11.7197 7.75H7.21973Z" fill="white"/>
<path d="M16.9702 13.7198C16.7802 13.7198 16.6002 13.6498 16.4602 13.5198C16.3002 13.3798 16.2202 13.1798 16.2202 12.9698V12.2498C16.2202 8.92977 15.0402 7.74977 11.7202 7.74977H11.0002C10.7902 7.74977 10.5902 7.65977 10.4502 7.50977C10.3102 7.34977 10.2402 7.14977 10.2602 6.93977C10.5502 3.69977 13.2202 1.25977 16.4802 1.25977C19.6002 1.25977 22.2602 3.58977 22.6602 6.67977C22.7002 6.91977 22.7302 7.20977 22.7302 7.50977C22.7302 10.7698 20.2902 13.4398 17.0502 13.7298C17.0202 13.7198 17.0002 13.7198 16.9702 13.7198ZM11.8902 6.24977C15.8602 6.29977 17.6702 8.09977 17.7202 12.0798C19.7602 11.5398 21.2202 9.68977 21.2202 7.49977C21.2202 7.28977 21.2002 7.08977 21.1702 6.89977C20.8602 4.51977 18.8402 2.74977 16.4702 2.74977C14.2802 2.74977 12.4402 4.20977 11.8902 6.24977Z" fill="white"/>
</svg>
