<svg width="24" height="24" viewBox="0 0 24 24" fill="none" xmlns="http://www.w3.org/2000/svg">
<path d="M12.0004 22.7504C10.8704 22.7504 9.79039 22.4204 8.98039 21.8104L4.68039 18.6004C3.54039 17.7504 2.65039 15.9804 2.65039 14.5604V7.12043C2.65039 5.58043 3.78039 3.94043 5.23039 3.40043L10.2204 1.53043C11.2104 1.16043 12.7704 1.16043 13.7604 1.53043L18.7604 3.40043C20.2104 3.94043 21.3404 5.58043 21.3404 7.12043V10.5504C21.3404 10.9604 21.0004 11.3004 20.5904 11.3004C20.1804 11.3004 19.8404 10.9604 19.8404 10.5504V7.12043C19.8404 6.21043 19.0904 5.13043 18.2304 4.80043L13.2404 2.93043C12.5804 2.68043 11.4104 2.68043 10.7504 2.93043L5.76039 4.81043C4.90039 5.13043 4.15039 6.21043 4.15039 7.13043V14.5604C4.15039 15.5104 4.82039 16.8404 5.57039 17.4004L9.87039 20.6104C10.4204 21.0204 11.1904 21.2504 11.9904 21.2504C12.4004 21.2504 12.7404 21.5904 12.7404 22.0004C12.7404 22.4104 12.4104 22.7504 12.0004 22.7504Z" fill="white"/>
<path d="M16 20.75C13.38 20.75 11.25 18.62 11.25 16C11.25 13.38 13.38 11.25 16 11.25C18.62 11.25 20.75 13.38 20.75 16C20.75 18.62 18.62 20.75 16 20.75ZM16 12.76C14.21 12.76 12.75 14.22 12.75 16.01C12.75 17.8 14.21 19.26 16 19.26C17.79 19.26 19.25 17.8 19.25 16.01C19.25 14.22 17.79 12.76 16 12.76Z" fill="white"/>
<path d="M21 22.0002C20.93 22.0002 20.87 21.9902 20.8 21.9802C20.74 21.9702 20.68 21.9502 20.62 21.9202C20.56 21.9002 20.5 21.8702 20.44 21.8302C20.39 21.7902 20.34 21.7502 20.29 21.7102C20.11 21.5202 20 21.2602 20 21.0002C20 20.8702 20.03 20.7402 20.08 20.6202C20.13 20.5002 20.2 20.3902 20.29 20.2902C20.66 19.9202 21.34 19.9202 21.71 20.2902C21.8 20.3902 21.87 20.5002 21.92 20.6202C21.97 20.7402 22 20.8702 22 21.0002C22 21.2602 21.89 21.5202 21.71 21.7102C21.52 21.8902 21.26 22.0002 21 22.0002Z" fill="white"/>
</svg>
