<svg width="24" height="24" viewBox="0 0 24 24" fill="none" xmlns="http://www.w3.org/2000/svg">
<path d="M12.0001 22.7601C10.9101 22.7601 9.83012 22.4401 8.98012 21.8101L7.39012 20.6201C7.06012 20.3701 6.99012 19.9001 7.24012 19.5701C7.49012 19.2401 7.96012 19.1701 8.29012 19.4201L9.88012 20.6101C11.0301 21.4701 12.9801 21.4701 14.1301 20.6101L18.4301 17.4001C19.1901 16.8301 19.8501 15.5001 19.8501 14.5601V7.12012C19.8501 6.71012 20.1901 6.37012 20.6001 6.37012C21.0101 6.37012 21.3501 6.71012 21.3501 7.12012V14.5501C21.3501 15.9701 20.4601 17.7401 19.3201 18.5901L15.0201 21.8001C14.1701 22.4401 13.0901 22.7601 12.0001 22.7601Z" fill="white"/>
<path d="M5.33039 18.9004C5.17039 18.9004 5.02039 18.8504 4.88039 18.7504L4.68039 18.6004C3.54039 17.7504 2.65039 15.9704 2.65039 14.5604V7.12043C2.65039 5.58043 3.78039 3.94043 5.23039 3.40043L10.2204 1.53043C11.2104 1.16043 12.7704 1.16043 13.7604 1.53043L18.7604 3.40043C18.9704 3.48043 19.1704 3.58043 19.3704 3.70043C19.7204 3.92043 19.8304 4.38043 19.6104 4.73043C19.3904 5.08043 18.9304 5.19043 18.5804 4.97043C18.4704 4.90043 18.3604 4.84043 18.2404 4.80043L13.2404 2.93043C12.5804 2.68043 11.4104 2.68043 10.7504 2.93043L5.76039 4.81043C4.90039 5.13043 4.15039 6.21043 4.15039 7.13043V14.5604C4.15039 15.5104 4.82039 16.8404 5.57039 17.4004L5.77039 17.5504C6.10039 17.8004 6.17039 18.2704 5.92039 18.6004C5.79039 18.7904 5.56039 18.9004 5.33039 18.9004Z" fill="white"/>
<path d="M2.00043 22.7504C1.81043 22.7504 1.62043 22.6804 1.47043 22.5304C1.18043 22.2404 1.18043 21.7604 1.47043 21.4704L21.4704 1.47043C21.7604 1.18043 22.2404 1.18043 22.5304 1.47043C22.8204 1.76043 22.8204 2.24043 22.5304 2.53043L2.53043 22.5304C2.38043 22.6804 2.19043 22.7504 2.00043 22.7504Z" fill="white"/>
</svg>
