<svg width="24" height="24" viewBox="0 0 24 24" fill="none" xmlns="http://www.w3.org/2000/svg">
<path d="M14.9697 22.75H8.96973C3.53973 22.75 1.21973 20.43 1.21973 15V9C1.21973 3.57 3.53973 1.25 8.96973 1.25H14.9697C20.3997 1.25 22.7197 3.57 22.7197 9V15C22.7197 20.43 20.4097 22.75 14.9697 22.75ZM8.96973 2.75C4.35973 2.75 2.71973 4.39 2.71973 9V15C2.71973 19.61 4.35973 21.25 8.96973 21.25H14.9697C19.5797 21.25 21.2197 19.61 21.2197 15V9C21.2197 4.39 19.5797 2.75 14.9697 2.75H8.96973Z" fill="white"/>
<path d="M22 16.25H2C1.59 16.25 1.25 15.91 1.25 15.5C1.25 15.09 1.59 14.75 2 14.75H22C22.41 14.75 22.75 15.09 22.75 15.5C22.75 15.91 22.41 16.25 22 16.25Z" fill="white"/>
<path d="M11.9999 11.8104C11.8099 11.8104 11.6199 11.7404 11.4699 11.5904L8.90988 9.03043C8.61988 8.74043 8.61988 8.26043 8.90988 7.97043C9.19988 7.68043 9.67988 7.68043 9.96988 7.97043L11.9999 10.0004L14.0299 7.97043C14.3199 7.68043 14.7999 7.68043 15.0899 7.97043C15.3799 8.26043 15.3799 8.74043 15.0899 9.03043L12.5299 11.5904C12.3799 11.7404 12.1899 11.8104 11.9999 11.8104Z" fill="white"/>
</svg>
