<svg width="24" height="24" viewBox="0 0 24 24" fill="none" xmlns="http://www.w3.org/2000/svg">
<path d="M16 22.75H8C4.56 22.75 2.25 20.44 2.25 17V7C2.25 3.56 4.56 1.25 8 1.25H12.93C14.47 1.25 15.91 1.84999 17 2.92999L20.07 6C21.16 7.08 21.75 8.53001 21.75 10.07V17C21.75 20.44 19.44 22.75 16 22.75ZM8 2.75C5.42 2.75 3.75 4.42 3.75 7V17C3.75 19.58 5.42 21.25 8 21.25H16C18.58 21.25 20.25 19.58 20.25 17V10.07C20.25 8.93001 19.81 7.87001 19 7.07001L15.93 4C15.13 3.2 14.06 2.76001 12.92 2.76001H8V2.75Z" fill="white"/>
<path d="M9.49945 18.7495C9.30945 18.7495 9.11945 18.6795 8.96945 18.5295L6.96945 16.5295C6.67945 16.2395 6.67945 15.7595 6.96945 15.4695L8.96945 13.4695C9.25945 13.1795 9.73945 13.1795 10.0295 13.4695C10.3195 13.7595 10.3195 14.2395 10.0295 14.5295L8.55945 15.9995L10.0295 17.4695C10.3195 17.7595 10.3195 18.2395 10.0295 18.5295C9.87945 18.6795 9.68945 18.7495 9.49945 18.7495Z" fill="white"/>
<path d="M14.4995 18.7495C14.3095 18.7495 14.1195 18.6795 13.9695 18.5295C13.6795 18.2395 13.6795 17.7595 13.9695 17.4695L15.4395 15.9995L13.9695 14.5295C13.6795 14.2395 13.6795 13.7595 13.9695 13.4695C14.2595 13.1795 14.7395 13.1795 15.0295 13.4695L17.0295 15.4695C17.3195 15.7595 17.3195 16.2395 17.0295 16.5295L15.0295 18.5295C14.8795 18.6795 14.6895 18.7495 14.4995 18.7495Z" fill="white"/>
</svg>
