<svg width="24" height="24" viewBox="0 0 24 24" fill="none" xmlns="http://www.w3.org/2000/svg">
<path d="M14.5397 11.3698C13.0997 11.3698 11.9297 10.1998 11.9297 8.75977V4.11975C11.9297 2.67975 13.0997 1.50977 14.5397 1.50977C15.9797 1.50977 17.1497 2.67975 17.1497 4.11975V8.75977C17.1497 10.1998 15.9797 11.3698 14.5397 11.3698ZM14.5397 3.00977C13.9297 3.00977 13.4297 3.50975 13.4297 4.11975V8.75977C13.4297 9.36977 13.9297 9.86975 14.5397 9.86975C15.1497 9.86975 15.6497 9.36977 15.6497 8.75977V4.11975C15.6497 3.50975 15.1497 3.00977 14.5397 3.00977Z" fill="white"/>
<path d="M20.1803 11.3705H18.6104C18.2004 11.3705 17.8604 11.0305 17.8604 10.6205V9.05045C17.8604 7.77045 18.9003 6.73047 20.1803 6.73047C21.4603 6.73047 22.5004 7.77045 22.5004 9.05045C22.5004 10.3304 21.4603 11.3705 20.1803 11.3705ZM19.3703 9.87045H20.1904C20.6404 9.87045 21.0103 9.50045 21.0103 9.05045C21.0103 8.60045 20.6404 8.23047 20.1904 8.23047C19.7404 8.23047 19.3703 8.60045 19.3703 9.05045V9.87045Z" fill="white"/>
<path d="M8.5 11.8304H3.86C2.42 11.8304 1.25 10.6604 1.25 9.22037C1.25 7.78037 2.42 6.61035 3.86 6.61035H8.5C9.94 6.61035 11.11 7.78037 11.11 9.22037C11.11 10.6604 9.94 11.8304 8.5 11.8304ZM3.86 8.12036C3.25 8.12036 2.75 8.62038 2.75 9.23038C2.75 9.84038 3.25 10.3404 3.86 10.3404H8.5C9.11 10.3404 9.61 9.84038 9.61 9.23038C9.61 8.62038 9.11 8.12036 8.5 8.12036H3.86Z" fill="white"/>
<path d="M10.3597 5.88025H8.78972C7.50972 5.88025 6.46973 4.84024 6.46973 3.56024C6.46973 2.28024 7.50972 1.24023 8.78972 1.24023C10.0697 1.24023 11.1097 2.28024 11.1097 3.56024V5.13025C11.1097 5.55025 10.7697 5.88025 10.3597 5.88025ZM8.78972 2.75024C8.33972 2.75024 7.96973 3.12025 7.96973 3.57025C7.96973 4.02025 8.33972 4.39026 8.78972 4.39026H9.60973V3.57025C9.60973 3.12025 9.23972 2.75024 8.78972 2.75024Z" fill="white"/>
<path d="M9.4303 22.5201C7.9903 22.5201 6.82031 21.3502 6.82031 19.9102V15.2701C6.82031 13.8301 7.9903 12.6602 9.4303 12.6602C10.8703 12.6602 12.0403 13.8301 12.0403 15.2701V19.9102C12.0403 21.3502 10.8703 22.5201 9.4303 22.5201ZM9.4303 14.1602C8.8203 14.1602 8.32031 14.6601 8.32031 15.2701V19.9102C8.32031 20.5202 8.8203 21.0201 9.4303 21.0201C10.0403 21.0201 10.5403 20.5202 10.5403 19.9102V15.2701C10.5403 14.6501 10.0403 14.1602 9.4303 14.1602Z" fill="white"/>
<path d="M3.78972 17.2904C2.50972 17.2904 1.46973 16.2504 1.46973 14.9704C1.46973 13.6904 2.50972 12.6504 3.78972 12.6504H5.35973C5.76973 12.6504 6.10973 12.9904 6.10973 13.4004V14.9704C6.10973 16.2504 5.06972 17.2904 3.78972 17.2904ZM3.78972 14.1604C3.33972 14.1604 2.96973 14.5304 2.96973 14.9804C2.96973 15.4304 3.33972 15.8004 3.78972 15.8004C4.23972 15.8004 4.60973 15.4304 4.60973 14.9804V14.1604H3.78972Z" fill="white"/>
<path d="M20.1104 17.4104H15.4704C14.0304 17.4104 12.8604 16.2404 12.8604 14.8004C12.8604 13.3604 14.0304 12.1904 15.4704 12.1904H20.1104C21.5504 12.1904 22.7204 13.3604 22.7204 14.8004C22.7204 16.2404 21.5504 17.4104 20.1104 17.4104ZM15.4704 13.6904C14.8604 13.6904 14.3604 14.1904 14.3604 14.8004C14.3604 15.4104 14.8604 15.9104 15.4704 15.9104H20.1104C20.7204 15.9104 21.2204 15.4104 21.2204 14.8004C21.2204 14.1904 20.7204 13.6904 20.1104 13.6904H15.4704Z" fill="white"/>
<path d="M15.1803 22.7299C13.9003 22.7299 12.8604 21.6899 12.8604 20.4099V18.8398C12.8604 18.4298 13.2004 18.0898 13.6104 18.0898H15.1803C16.4603 18.0898 17.5004 19.1299 17.5004 20.4099C17.5004 21.6899 16.4503 22.7299 15.1803 22.7299ZM14.3604 19.5898V20.4099C14.3604 20.8599 14.7303 21.2299 15.1803 21.2299C15.6303 21.2299 16.0004 20.8599 16.0004 20.4099C16.0004 19.9599 15.6303 19.5898 15.1803 19.5898H14.3604Z" fill="white"/>
</svg>
