<svg width="24" height="24" viewBox="0 0 24 24" fill="none" xmlns="http://www.w3.org/2000/svg">
<path d="M18.6102 6.68031C18.2002 6.68031 17.8602 6.34031 17.8602 5.93031V4.42031C17.8602 3.82031 17.3702 3.32031 16.7602 3.32031H3.83023C3.23023 3.32031 2.73023 3.81031 2.73023 4.42031V5.93031C2.73023 6.34031 2.39023 6.68031 1.98023 6.68031C1.57023 6.68031 1.24023 6.34031 1.24023 5.93031V4.42031C1.24023 2.99031 2.41023 1.82031 3.84023 1.82031H16.7602C18.1902 1.82031 19.3602 2.98031 19.3602 4.42031V5.93031C19.3602 6.34031 19.0202 6.68031 18.6102 6.68031Z" fill="white"/>
<path d="M10.3008 18.8503C9.89078 18.8503 9.55078 18.5103 9.55078 18.1003V3.32031C9.55078 2.91031 9.89078 2.57031 10.3008 2.57031C10.7108 2.57031 11.0508 2.91031 11.0508 3.32031V18.1003C11.0508 18.5203 10.7108 18.8503 10.3008 18.8503Z" fill="white"/>
<path d="M12.4804 18.8496H6.90039C6.49039 18.8496 6.15039 18.5096 6.15039 18.0996C6.15039 17.6896 6.49039 17.3496 6.90039 17.3496H12.4804C12.8904 17.3496 13.2304 17.6896 13.2304 18.0996C13.2304 18.5096 12.8904 18.8496 12.4804 18.8496Z" fill="white"/>
<path d="M22.0097 13.2001C21.5997 13.2001 21.2597 12.8601 21.2597 12.4501V11.6501C21.2597 11.3401 20.9997 11.0801 20.6897 11.0801H13.6797C13.2697 11.0801 12.9297 10.7401 12.9297 10.3301C12.9297 9.92008 13.2697 9.58008 13.6797 9.58008H20.6897C21.8297 9.58008 22.7597 10.5101 22.7597 11.6501V12.4501C22.7597 12.8701 22.4297 13.2001 22.0097 13.2001Z" fill="white"/>
<path d="M16.0801 22.1801C15.6701 22.1801 15.3301 21.8401 15.3301 21.4301V10.8701C15.3301 10.4601 15.6701 10.1201 16.0801 10.1201C16.4901 10.1201 16.8301 10.4601 16.8301 10.8701V21.4301C16.8301 21.8401 16.4901 22.1801 16.0801 22.1801Z" fill="white"/>
<path d="M18.2195 22.1797H13.9395C13.5295 22.1797 13.1895 21.8397 13.1895 21.4297C13.1895 21.0197 13.5295 20.6797 13.9395 20.6797H18.2195C18.6295 20.6797 18.9695 21.0197 18.9695 21.4297C18.9695 21.8397 18.6295 22.1797 18.2195 22.1797Z" fill="white"/>
</svg>
