<svg width="24" height="24" viewBox="0 0 24 24" fill="none" xmlns="http://www.w3.org/2000/svg">
<path d="M10 14.75H6.2C2.78 14.75 1.25 13.22 1.25 9.80005V6.19995C1.25 2.77995 2.78 1.25 6.2 1.25H9.8C13.22 1.25 14.75 2.77995 14.75 6.19995V10C14.75 10.41 14.42 10.74 14.01 10.75C11.61 10.79 10.79 11.62 10.75 14.01C10.74 14.42 10.41 14.75 10 14.75ZM6.2 2.75C3.62 2.75 2.75 3.61995 2.75 6.19995V9.80005C2.75 12.38 3.62 13.25 6.2 13.25H9.29C9.53 10.81 10.81 9.54004 13.25 9.29004V6.19995C13.25 3.61995 12.38 2.75 9.8 2.75H6.2Z" fill="white"/>
<path d="M5.19952 6.62965C4.96952 6.62965 4.72952 6.51971 4.58952 6.30971C4.34952 5.96971 4.42952 5.49966 4.76952 5.25966C5.54952 4.70966 6.59951 4.69964 7.38951 5.23964C7.72951 5.46964 7.81952 5.93968 7.58952 6.27968C7.35952 6.61968 6.88951 6.70963 6.54951 6.47963C6.27951 6.29963 5.91952 6.29964 5.64952 6.48964C5.49952 6.58964 5.34952 6.62965 5.19952 6.62965Z" fill="white"/>
<path d="M9.19952 6.62965C8.96952 6.62965 8.72952 6.51971 8.58952 6.30971C8.34952 5.96971 8.42952 5.49966 8.76952 5.25966C9.54952 4.70966 10.5995 4.69964 11.3895 5.23964C11.7295 5.46964 11.8195 5.93968 11.5895 6.27968C11.3595 6.61968 10.8895 6.70963 10.5495 6.47963C10.2795 6.29963 9.91952 6.29964 9.64952 6.48964C9.49952 6.58964 9.34952 6.62965 9.19952 6.62965Z" fill="white"/>
<path d="M8.15981 12.1697H5.83981C5.12981 12.1697 4.5498 11.5896 4.5498 10.8796C4.5498 8.97964 6.09981 7.42969 7.99981 7.42969C8.77981 7.42969 9.54981 7.69958 10.1598 8.18958C10.4798 8.44958 10.5398 8.91962 10.2798 9.23962C10.0198 9.55962 9.5498 9.60962 9.2298 9.35962C8.8798 9.07962 8.4598 8.92969 8.0098 8.92969C7.0098 8.92969 6.17981 9.68968 6.06981 10.6697H8.1698C8.5798 10.6697 8.9198 11.0097 8.9198 11.4197C8.9198 11.8297 8.56981 12.1697 8.15981 12.1697Z" fill="white"/>
<path d="M17.8 22.75H14.2C10.78 22.75 9.25 21.22 9.25 17.8V14C9.31 10.81 10.81 9.31 13.99 9.25H17.8C21.22 9.25 22.75 10.78 22.75 14.2V17.8C22.75 21.22 21.22 22.75 17.8 22.75ZM14 10.75C11.62 10.79 10.79 11.62 10.75 14.01V17.8C10.75 20.38 11.62 21.25 14.2 21.25H17.8C20.38 21.25 21.25 20.38 21.25 17.8V14.2C21.25 11.62 20.38 10.75 17.8 10.75H14Z" fill="white"/>
<path d="M14.0895 14.6301C13.6195 14.6301 13.1595 14.4901 12.7695 14.2101C12.4295 13.9701 12.3495 13.5002 12.5895 13.1602C12.8295 12.8202 13.2995 12.7401 13.6395 12.9801C13.9095 13.1701 14.2695 13.1701 14.5395 12.9901C14.8795 12.7601 15.3495 12.8401 15.5795 13.1901C15.8095 13.5301 15.7295 14.0001 15.3795 14.2301C14.9895 14.5001 14.5395 14.6301 14.0895 14.6301Z" fill="white"/>
<path d="M18.0895 14.6301C17.6195 14.6301 17.1595 14.4901 16.7695 14.2101C16.4295 13.9701 16.3495 13.5002 16.5895 13.1602C16.8295 12.8202 17.2995 12.7401 17.6395 12.9801C17.9095 13.1701 18.2695 13.1701 18.5395 12.9901C18.8795 12.7601 19.3495 12.8401 19.5795 13.1901C19.8095 13.5301 19.7295 14.0001 19.3795 14.2301C18.9895 14.5001 18.5395 14.6301 18.0895 14.6301Z" fill="white"/>
<path d="M15.9998 20.1697C14.0998 20.1697 12.5498 18.6196 12.5498 16.7196C12.5498 16.0096 13.1298 15.4297 13.8398 15.4297H18.1598C18.8698 15.4297 19.4498 16.0096 19.4498 16.7196C19.4498 18.6196 17.8998 20.1697 15.9998 20.1697ZM14.0598 16.9297C14.1598 17.9097 14.9898 18.6697 15.9998 18.6697C17.0098 18.6697 17.8298 17.9097 17.9398 16.9297H14.0598Z" fill="white"/>
</svg>
