<svg width="24" height="24" viewBox="0 0 24 24" fill="none" xmlns="http://www.w3.org/2000/svg">
<path d="M12 22.75C6.07 22.75 1.25 17.93 1.25 12C1.25 6.07 6.07 1.25 12 1.25C17.93 1.25 22.75 6.07 22.75 12C22.75 17.93 17.93 22.75 12 22.75ZM12 2.75C6.9 2.75 2.75 6.9 2.75 12C2.75 17.1 6.9 21.25 12 21.25C17.1 21.25 21.25 17.1 21.25 12C21.25 6.9 17.1 2.75 12 2.75Z" fill="white"/>
<path d="M17.4797 11.4202C17.3297 11.4202 17.1797 11.3701 17.0397 11.2801C14.0597 9.14014 10.2397 8.67014 6.83973 10.0301C6.44973 10.1801 6.01973 9.99013 5.86973 9.61013C5.71973 9.23013 5.90973 8.79016 6.28973 8.64016C10.1697 7.10016 14.5197 7.63015 17.9197 10.0701C18.2597 10.3101 18.3297 10.7801 18.0897 11.1201C17.9497 11.3101 17.7197 11.4202 17.4797 11.4202Z" fill="white"/>
<path d="M15.9098 14.1097C15.7598 14.1097 15.6098 14.0597 15.4698 13.9697C13.3498 12.4497 10.6399 12.1197 8.20985 13.0797C7.82985 13.2297 7.38985 13.0397 7.23985 12.6597C7.08985 12.2697 7.27985 11.8397 7.65985 11.6897C10.5598 10.5397 13.8098 10.9397 16.3398 12.7597C16.6798 12.9997 16.7498 13.4697 16.5098 13.8097C16.3698 13.9997 16.1398 14.1097 15.9098 14.1097Z" fill="white"/>
<path d="M14.8105 16.8996C14.6605 16.8996 14.5105 16.8496 14.3705 16.7596C12.8305 15.6596 10.8605 15.4196 9.10048 16.1096C8.72048 16.2596 8.28047 16.0696 8.13047 15.6896C7.98047 15.2996 8.17047 14.8696 8.55047 14.7196C10.7905 13.8296 13.2905 14.1396 15.2405 15.5396C15.5805 15.7796 15.6505 16.2496 15.4105 16.5896C15.2805 16.7896 15.0505 16.8996 14.8105 16.8996Z" fill="white"/>
</svg>
