<svg width="24" height="24" viewBox="0 0 24 24" fill="none" xmlns="http://www.w3.org/2000/svg">
<path d="M16.5 11.25H7.5C7.09 11.25 6.75 10.91 6.75 10.5C6.75 10.09 7.09 9.75 7.5 9.75H16.5C16.91 9.75 17.25 10.09 17.25 10.5C17.25 10.91 16.91 11.25 16.5 11.25Z" fill="white"/>
<path d="M11.8203 11.2503C11.5803 11.2503 11.3503 11.1403 11.2103 10.9303L8.3903 6.93029C8.1503 6.59029 8.23029 6.12029 8.57029 5.89029C8.91029 5.65029 9.38027 5.7303 9.61027 6.0703L12.4303 10.0703C12.6703 10.4103 12.5903 10.8803 12.2503 11.1103C12.1203 11.2103 11.9703 11.2503 11.8203 11.2503Z" fill="white"/>
<path d="M12.0003 11.2503C11.8503 11.2503 11.7003 11.2103 11.5703 11.1103C11.2303 10.8703 11.1503 10.4003 11.3903 10.0703L14.2103 6.0703C14.4503 5.7303 14.9203 5.65029 15.2503 5.89029C15.5903 6.13029 15.6703 6.60029 15.4303 6.93029L12.6103 10.9303C12.4703 11.1403 12.2303 11.2503 12.0003 11.2503Z" fill="white"/>
<path d="M16.5 14.25H7.5C7.09 14.25 6.75 13.91 6.75 13.5C6.75 13.09 7.09 12.75 7.5 12.75H16.5C16.91 12.75 17.25 13.09 17.25 13.5C17.25 13.91 16.91 14.25 16.5 14.25Z" fill="white"/>
<path d="M9.00028 18.2503C8.85028 18.2503 8.70029 18.2103 8.57029 18.1103C8.23029 17.8703 8.1503 17.4003 8.3903 17.0703L11.2103 13.0703C11.4503 12.7303 11.9203 12.6503 12.2503 12.8903C12.5903 13.1303 12.6703 13.6003 12.4303 13.9303L9.61027 17.9303C9.47027 18.1403 9.23028 18.2503 9.00028 18.2503Z" fill="white"/>
<path d="M14.8203 18.2503C14.5803 18.2503 14.3503 18.1403 14.2103 17.9303L11.3903 13.9303C11.1503 13.5903 11.2303 13.1203 11.5703 12.8903C11.9103 12.6503 12.3803 12.7303 12.6103 13.0703L15.4303 17.0703C15.6703 17.4103 15.5903 17.8803 15.2503 18.1103C15.1203 18.2103 14.9703 18.2503 14.8203 18.2503Z" fill="white"/>
<path d="M12 22.75C6.07 22.75 1.25 17.93 1.25 12C1.25 6.07 6.07 1.25 12 1.25C17.93 1.25 22.75 6.07 22.75 12C22.75 17.93 17.93 22.75 12 22.75ZM12 2.75C6.9 2.75 2.75 6.9 2.75 12C2.75 17.1 6.9 21.25 12 21.25C17.1 21.25 21.25 17.1 21.25 12C21.25 6.9 17.1 2.75 12 2.75Z" fill="white"/>
</svg>
