<svg width="24" height="24" viewBox="0 0 24 24" fill="none" xmlns="http://www.w3.org/2000/svg">
<path d="M4.03998 14.94C3.70998 14.94 3.41001 14.72 3.32001 14.39C3.11001 13.61 3 12.81 3 12C3 7.04 7.04 3 12 3C13.69 3 15.33 3.47 16.75 4.36C17.1 4.58 17.21 5.04 16.99 5.39C16.77 5.74 16.31 5.85 15.96 5.63C14.77 4.89 13.4 4.5 12 4.5C7.86 4.5 4.5 7.86 4.5 12C4.5 12.68 4.59002 13.35 4.77002 13.99C4.88002 14.39 4.63999 14.8 4.23999 14.91C4.17999 14.93 4.10998 14.94 4.03998 14.94Z" fill="white"/>
<path d="M11.9998 20.9996C10.2998 20.9996 8.64979 20.5196 7.21979 19.6296C6.86979 19.4096 6.7598 18.9496 6.9798 18.5996C7.1998 18.2496 7.65983 18.1396 8.00983 18.3596C9.19983 19.1096 10.5798 19.4996 11.9898 19.4996C16.1298 19.4996 19.4898 16.1396 19.4898 11.9996C19.4898 11.2696 19.3798 10.5396 19.1798 9.84958C19.0598 9.44958 19.2898 9.03958 19.6798 8.91958C20.0798 8.79958 20.4898 9.02958 20.6098 9.41958C20.8598 10.2496 20.9898 11.1196 20.9898 11.9996C20.9998 16.9596 16.9598 20.9996 11.9998 20.9996Z" fill="white"/>
<path d="M1.99965 16.7497C1.73965 16.7497 1.47968 16.6097 1.33968 16.3597C1.13968 15.9997 1.26967 15.5397 1.63967 15.3397L21.6397 4.33968C21.9997 4.13968 22.4596 4.26968 22.6596 4.63968C22.8596 4.99968 22.7296 5.45968 22.3596 5.65968L2.35964 16.6597C2.24964 16.7197 2.11965 16.7497 1.99965 16.7497Z" fill="white"/>
<path d="M1.99965 20.2497C1.73965 20.2497 1.47968 20.1097 1.33968 19.8597C1.13968 19.4997 1.26967 19.0397 1.63967 18.8397L21.6397 7.83968C21.9997 7.63968 22.4596 7.76968 22.6596 8.13968C22.8596 8.49968 22.7296 8.95968 22.3596 9.15968L2.35964 20.1597C2.24964 20.2197 2.11965 20.2497 1.99965 20.2497Z" fill="white"/>
</svg>
