<svg width="24" height="24" viewBox="0 0 24 24" fill="none" xmlns="http://www.w3.org/2000/svg">
<path d="M11.9703 22.7502C11.3603 22.7502 10.7303 22.7002 10.0903 22.5902C5.6903 21.8402 2.1003 18.2402 1.3703 13.8202C0.790296 10.3102 1.8803 6.88015 4.3703 4.39015C6.8603 1.90015 10.2903 0.820153 13.7903 1.39015C18.2003 2.12015 21.8103 5.70015 22.5603 10.1002C22.7203 11.0702 22.7603 12.0202 22.6803 12.9202V12.9302C22.6603 13.1602 22.6203 13.3802 22.5603 13.6002C22.4903 13.8502 22.3003 14.0402 22.0603 14.1202C21.8203 14.2002 21.5503 14.1402 21.3503 13.9802C20.4103 13.1902 19.2103 12.7502 17.9703 12.7502C15.0703 12.7502 12.7203 15.1102 12.7203 18.0002C12.7203 19.2402 13.1603 20.4402 13.9503 21.3802C14.1203 21.5802 14.1703 21.8402 14.0903 22.0902C14.0103 22.3402 13.8203 22.5202 13.5703 22.5902C13.3503 22.6502 13.1303 22.6902 12.9003 22.7102C12.6003 22.7402 12.2903 22.7502 11.9703 22.7502ZM11.9703 2.75015C9.5203 2.75015 7.2003 3.70015 5.4403 5.46015C3.3003 7.60015 2.3603 10.5602 2.8603 13.5802C3.4903 17.3702 6.5603 20.4702 10.3503 21.1102C10.9503 21.2102 11.5203 21.2702 12.0703 21.2502C11.5303 20.2602 11.2403 19.1402 11.2403 18.0002C11.2403 14.2802 14.2703 11.2502 17.9903 11.2502C19.1303 11.2502 20.2503 11.5402 21.2403 12.0802C21.2503 11.5302 21.2003 10.9602 21.1003 10.3602C20.4603 6.58015 17.3603 3.50015 13.5703 2.88015C13.0203 2.79015 12.4903 2.75015 11.9703 2.75015Z" fill="white"/>
<path d="M13.3797 22.61C13.1597 22.61 12.9497 22.52 12.8097 22.34C11.7897 21.13 11.2197 19.59 11.2197 18C11.2197 14.28 14.2497 11.25 17.9697 11.25C19.5597 11.25 21.0997 11.81 22.3097 12.84C22.5397 13.03 22.6297 13.34 22.5497 13.62C22.3697 14.24 22.0497 14.78 21.5897 15.24L15.2097 21.62C14.7497 22.08 14.1997 22.4 13.5897 22.58C13.5197 22.6 13.4497 22.61 13.3797 22.61ZM17.9697 12.75C15.0697 12.75 12.7197 15.11 12.7197 18C12.7197 19.06 13.0397 20.09 13.6297 20.95C13.8197 20.85 13.9897 20.72 14.1497 20.56L20.5297 14.18C20.6897 14.02 20.8197 13.85 20.9197 13.66C20.0597 13.07 19.0297 12.75 17.9697 12.75Z" fill="white"/>
</svg>
