<svg width="24" height="24" viewBox="0 0 24 24" fill="none" xmlns="http://www.w3.org/2000/svg">
<path d="M14.6694 21.6496H4.21943C3.11943 21.6496 2.14945 21.0796 1.61945 20.1196C1.08945 19.1596 1.11947 18.0296 1.69947 17.0996L4.46943 12.6696C4.68943 12.3196 4.68943 11.6696 4.46943 11.3296L1.69947 6.89961C1.11947 5.96961 1.08945 4.83961 1.61945 3.87961C2.14945 2.91961 3.12943 2.34961 4.21943 2.34961H15.6594C16.5994 2.34961 17.6894 2.94961 18.1794 3.74961L22.3594 10.4296C22.9194 11.3296 22.8694 12.7096 22.2294 13.5596L17.0494 20.4596C16.5394 21.1396 15.5194 21.6496 14.6694 21.6496ZM4.21943 3.84961C3.67943 3.84961 3.18945 4.12961 2.92945 4.60961C2.66945 5.08961 2.67943 5.64961 2.96943 6.10961L5.73945 10.5396C6.25945 11.3796 6.25945 12.6396 5.73945 13.4796L2.96943 17.9096C2.67943 18.3696 2.66945 18.9296 2.92945 19.4096C3.18945 19.8896 3.67943 20.1696 4.21943 20.1696H14.6694C15.0494 20.1696 15.6194 19.8796 15.8494 19.5796L21.0295 12.6796C21.2995 12.3196 21.3295 11.6296 21.0895 11.2496L16.9094 4.56961C16.6894 4.20961 16.0794 3.87961 15.6594 3.87961H4.21943V3.84961Z" fill="white"/>
</svg>
