<svg width="24" height="24" viewBox="0 0 24 24" fill="none" xmlns="http://www.w3.org/2000/svg">
<path d="M21 20.25H11C10.59 20.25 10.25 19.91 10.25 19.5C10.25 19.09 10.59 18.75 11 18.75H21C21.41 18.75 21.75 19.09 21.75 19.5C21.75 19.91 21.41 20.25 21 20.25Z" fill="white"/>
<path d="M21 13.25H11C10.59 13.25 10.25 12.91 10.25 12.5C10.25 12.09 10.59 11.75 11 11.75H21C21.41 11.75 21.75 12.09 21.75 12.5C21.75 12.91 21.41 13.25 21 13.25Z" fill="white"/>
<path d="M21 6.25H11C10.59 6.25 10.25 5.91 10.25 5.5C10.25 5.09 10.59 4.75 11 4.75H21C21.41 4.75 21.75 5.09 21.75 5.5C21.75 5.91 21.41 6.25 21 6.25Z" fill="white"/>
<path d="M4.00043 7.25043C3.81043 7.25043 3.62043 7.18043 3.47043 7.03043L2.47043 6.03043C2.18043 5.74043 2.18043 5.26043 2.47043 4.97043C2.76043 4.68043 3.24043 4.68043 3.53043 4.97043L4.00043 5.44043L6.47043 2.97043C6.76043 2.68043 7.24043 2.68043 7.53043 2.97043C7.82043 3.26043 7.82043 3.74043 7.53043 4.03043L4.53043 7.03043C4.38043 7.18043 4.19043 7.25043 4.00043 7.25043Z" fill="white"/>
<path d="M4.00043 14.2504C3.81043 14.2504 3.62043 14.1804 3.47043 14.0304L2.47043 13.0304C2.18043 12.7404 2.18043 12.2604 2.47043 11.9704C2.76043 11.6804 3.24043 11.6804 3.53043 11.9704L4.00043 12.4404L6.47043 9.97043C6.76043 9.68043 7.24043 9.68043 7.53043 9.97043C7.82043 10.2604 7.82043 10.7404 7.53043 11.0304L4.53043 14.0304C4.38043 14.1804 4.19043 14.2504 4.00043 14.2504Z" fill="white"/>
<path d="M4.00043 21.2504C3.81043 21.2504 3.62043 21.1804 3.47043 21.0304L2.47043 20.0304C2.18043 19.7404 2.18043 19.2604 2.47043 18.9704C2.76043 18.6804 3.24043 18.6804 3.53043 18.9704L4.00043 19.4404L6.47043 16.9704C6.76043 16.6804 7.24043 16.6804 7.53043 16.9704C7.82043 17.2604 7.82043 17.7404 7.53043 18.0304L4.53043 21.0304C4.38043 21.1804 4.19043 21.2504 4.00043 21.2504Z" fill="white"/>
</svg>
