<svg width="24" height="24" viewBox="0 0 24 24" fill="none" xmlns="http://www.w3.org/2000/svg">
<path d="M15.2504 16.0004C15.0604 16.0004 14.8704 15.9304 14.7204 15.7804L12.0004 13.0604L9.28043 15.7804C8.99043 16.0704 8.51043 16.0704 8.22043 15.7804L4.97043 12.5304C4.68043 12.2404 4.68043 11.7604 4.97043 11.4704L8.22043 8.22043C8.51043 7.93043 8.99043 7.93043 9.28043 8.22043L12.0004 10.9404L14.7204 8.22043C15.0104 7.93043 15.4904 7.93043 15.7804 8.22043L19.0304 11.4704C19.3204 11.7604 19.3204 12.2404 19.0304 12.5304L15.7804 15.7804C15.6304 15.9304 15.4404 16.0004 15.2504 16.0004ZM13.0604 12.0004L15.2504 14.1904L17.4404 12.0004L15.2504 9.81043L13.0604 12.0004ZM6.56043 12.0004L8.75043 14.1904L10.9404 12.0004L8.75043 9.81043L6.56043 12.0004Z" fill="white"/>
<path d="M12 22.75C6.07 22.75 1.25 17.93 1.25 12C1.25 6.07 6.07 1.25 12 1.25C17.93 1.25 22.75 6.07 22.75 12C22.75 17.93 17.93 22.75 12 22.75ZM12 2.75C6.9 2.75 2.75 6.9 2.75 12C2.75 17.1 6.9 21.25 12 21.25C17.1 21.25 21.25 17.1 21.25 12C21.25 6.9 17.1 2.75 12 2.75Z" fill="white"/>
</svg>
