<svg width="24" height="24" viewBox="0 0 24 24" fill="none" xmlns="http://www.w3.org/2000/svg">
<path d="M11.9997 21.4004C11.0597 21.4004 10.1197 21.0804 9.40973 20.4304L2.47972 14.1404C1.26972 13.0404 0.889723 11.0304 1.61972 9.57035L4.01973 4.75035C4.61973 3.55035 6.12973 2.61035 7.46973 2.61035H16.5297C17.8697 2.61035 19.3797 3.55035 19.9797 4.75035L22.3797 9.57035C23.1097 11.0304 22.7297 13.0404 21.5197 14.1404L14.5897 20.4304C13.8797 21.0704 12.9397 21.4004 11.9997 21.4004ZM7.46973 4.10035C6.68973 4.10035 5.70973 4.71035 5.35973 5.41035L2.95973 10.2304C2.53973 11.0804 2.77973 12.3804 3.48973 13.0204L10.4197 19.3104C11.2797 20.0904 12.7297 20.0904 13.5797 19.3104L20.5097 13.0204C21.2097 12.3804 21.4597 11.0804 21.0397 10.2304L18.6397 5.41035C18.2897 4.72035 17.3097 4.11035 16.5297 4.11035H7.46973V4.10035Z" fill="white"/>
<path d="M12 15.25C11.59 15.25 11.25 14.91 11.25 14.5V8.5C11.25 8.09 11.59 7.75 12 7.75C12.41 7.75 12.75 8.09 12.75 8.5V14.5C12.75 14.91 12.41 15.25 12 15.25Z" fill="white"/>
<path d="M16 9.25H8C7.59 9.25 7.25 8.91 7.25 8.5C7.25 8.09 7.59 7.75 8 7.75H16C16.41 7.75 16.75 8.09 16.75 8.5C16.75 8.91 16.41 9.25 16 9.25Z" fill="white"/>
</svg>
