<svg width="24" height="24" viewBox="0 0 24 24" fill="none" xmlns="http://www.w3.org/2000/svg">
<path d="M15 22.75H9C3.57 22.75 1.25 20.43 1.25 15V9C1.25 3.57 3.57 1.25 9 1.25H15C20.43 1.25 22.75 3.57 22.75 9V15C22.75 20.43 20.43 22.75 15 22.75ZM9 2.75C4.39 2.75 2.75 4.39 2.75 9V15C2.75 19.61 4.39 21.25 9 21.25H15C19.61 21.25 21.25 19.61 21.25 15V9C21.25 4.39 19.61 2.75 15 2.75H9Z" fill="white"/>
<path d="M7.00051 9.62953C6.73051 9.62953 6.46051 9.47953 6.33051 9.21953C6.14051 8.84953 6.29051 8.39953 6.66051 8.20953C10.0005 6.53953 13.9905 6.53953 17.3305 8.20953C17.7005 8.39953 17.8505 8.84953 17.6705 9.21953C17.4805 9.58953 17.0405 9.73953 16.6605 9.55953C13.7405 8.09953 10.2505 8.09953 7.33051 9.55953C7.23051 9.60953 7.11051 9.62953 7.00051 9.62953Z" fill="white"/>
<path d="M12 17.0397C11.59 17.0397 11.25 16.6997 11.25 16.2897V7.92969C11.25 7.51969 11.59 7.17969 12 7.17969C12.41 7.17969 12.75 7.51969 12.75 7.92969V16.2997C12.75 16.7097 12.41 17.0397 12 17.0397Z" fill="white"/>
</svg>
