<svg width="24" height="24" viewBox="0 0 24 24" fill="none" xmlns="http://www.w3.org/2000/svg">
<path d="M15 22.75H9C3.57 22.75 1.25 20.43 1.25 15V9C1.25 3.57 3.57 1.25 9 1.25H15C20.43 1.25 22.75 3.57 22.75 9V15C22.75 20.43 20.43 22.75 15 22.75ZM9 2.75C4.39 2.75 2.75 4.39 2.75 9V15C2.75 19.61 4.39 21.25 9 21.25H15C19.61 21.25 21.25 19.61 21.25 15V9C21.25 4.39 19.61 2.75 15 2.75H9Z" fill="white"/>
<path d="M9.54987 18.4703H7.09985C6.00985 18.4703 5.12988 17.5803 5.12988 16.4903V7.51028C5.12988 6.42028 6.01985 5.53027 7.09985 5.53027H9.54987C10.6399 5.53027 11.5299 6.42028 11.5299 7.51028V16.4903C11.5299 17.5803 10.6399 18.4703 9.54987 18.4703ZM7.09985 7.03027C6.83985 7.03027 6.62988 7.25028 6.62988 7.51028V16.4903C6.62988 16.7503 6.84985 16.9703 7.09985 16.9703H9.54987C9.80987 16.9703 10.0299 16.7503 10.0299 16.4903V7.51028C10.0299 7.25028 9.80987 7.03027 9.54987 7.03027H7.09985Z" fill="white"/>
<path d="M17.1398 14.3803H14.1998C13.2398 14.3803 12.4697 13.6003 12.4697 12.6503V7.26028C12.4697 6.30028 13.2498 5.53027 14.1998 5.53027H17.1398C18.0998 5.53027 18.8698 6.31028 18.8698 7.26028V12.6503C18.8798 13.6103 18.0998 14.3803 17.1398 14.3803ZM14.2098 7.03027C14.0798 7.03027 13.9797 7.14028 13.9797 7.26028V12.6503C13.9797 12.7803 14.0898 12.8803 14.2098 12.8803H17.1498C17.2798 12.8803 17.3798 12.7703 17.3798 12.6503V7.26028C17.3798 7.13028 17.2698 7.03027 17.1498 7.03027H14.2098Z" fill="white"/>
</svg>
