<svg width="24" height="24" viewBox="0 0 24 24" fill="none" xmlns="http://www.w3.org/2000/svg">
<path d="M15.1309 19.0596H7.13086C6.72086 19.0596 6.38086 18.7196 6.38086 18.3096C6.38086 17.8996 6.72086 17.5596 7.13086 17.5596H15.1309C17.4709 17.5596 19.3809 15.6496 19.3809 13.3096C19.3809 10.9696 17.4709 9.05957 15.1309 9.05957H4.13086C3.72086 9.05957 3.38086 8.71957 3.38086 8.30957C3.38086 7.89957 3.72086 7.55957 4.13086 7.55957H15.1309C18.3009 7.55957 20.8809 10.1396 20.8809 13.3096C20.8809 16.4796 18.3009 19.0596 15.1309 19.0596Z" fill="white"/>
<path d="M6.43055 11.5599C6.24055 11.5599 6.05055 11.4899 5.90055 11.3399L3.34055 8.77988C3.05055 8.48988 3.05055 8.00988 3.34055 7.71988L5.90055 5.15988C6.19055 4.86988 6.67055 4.86988 6.96055 5.15988C7.25055 5.44988 7.25055 5.92988 6.96055 6.21988L4.93055 8.24988L6.96055 10.2799C7.25055 10.5699 7.25055 11.0499 6.96055 11.3399C6.82055 11.4899 6.62055 11.5599 6.43055 11.5599Z" fill="white"/>
</svg>
