<svg width="24" height="24" viewBox="0 0 24 24" fill="none" xmlns="http://www.w3.org/2000/svg">
<path d="M12 12.75C8.83 12.75 6.25 10.17 6.25 7C6.25 3.83 8.83 1.25 12 1.25C15.17 1.25 17.75 3.83 17.75 7C17.75 10.17 15.17 12.75 12 12.75ZM12 2.75C9.66 2.75 7.75 4.66 7.75 7C7.75 9.34 9.66 11.25 12 11.25C14.34 11.25 16.25 9.34 16.25 7C16.25 4.66 14.34 2.75 12 2.75Z" fill="white"/>
<path d="M15.8196 22.7504C15.4396 22.7504 15.0796 22.6103 14.8196 22.3503C14.5096 22.0403 14.3696 21.5904 14.4396 21.1204L14.6296 19.7704C14.6796 19.4204 14.8896 19.0104 15.1396 18.7504L18.6796 15.2104C20.0996 13.7904 21.3496 14.6004 21.9596 15.2104C22.4796 15.7304 22.7496 16.2903 22.7496 16.8503C22.7496 17.4203 22.4896 17.9503 21.9596 18.4803L18.4195 22.0204C18.1695 22.2704 17.7496 22.4804 17.3996 22.5304L16.0495 22.7203C15.9695 22.7403 15.8996 22.7504 15.8196 22.7504ZM20.3096 15.9203C20.1296 15.9203 19.9696 16.0404 19.7396 16.2704L16.1996 19.8104C16.1696 19.8404 16.1196 19.9403 16.1196 19.9803L15.9396 21.2303L17.1896 21.0504C17.2296 21.0404 17.3295 20.9904 17.3595 20.9604L20.8996 17.4203C21.0596 17.2603 21.2496 17.0303 21.2496 16.8503C21.2496 16.7003 21.1296 16.4904 20.8996 16.2704C20.6596 16.0304 20.4796 15.9203 20.3096 15.9203Z" fill="white"/>
<path d="M20.9206 19.2203C20.8506 19.2203 20.7806 19.2104 20.7206 19.1904C19.4006 18.8204 18.3506 17.7704 17.9806 16.4504C17.8706 16.0504 18.1006 15.6404 18.5006 15.5304C18.9006 15.4204 19.3106 15.6503 19.4206 16.0503C19.6506 16.8703 20.3006 17.5204 21.1206 17.7504C21.5206 17.8604 21.7506 18.2803 21.6406 18.6703C21.5506 19.0003 21.2506 19.2203 20.9206 19.2203Z" fill="white"/>
<path d="M3.41016 22.75C3.00016 22.75 2.66016 22.41 2.66016 22C2.66016 17.73 6.85018 14.25 12.0002 14.25C13.0902 14.25 14.1702 14.41 15.1802 14.71C15.5802 14.83 15.8002 15.25 15.6802 15.64C15.5602 16.04 15.1402 16.26 14.7502 16.14C13.8702 15.88 12.9502 15.74 12.0002 15.74C7.68018 15.74 4.16016 18.54 4.16016 21.99C4.16016 22.41 3.82016 22.75 3.41016 22.75Z" fill="white"/>
</svg>
