<svg width="24" height="24" viewBox="0 0 24 24" fill="none" xmlns="http://www.w3.org/2000/svg">
<path d="M22 3.78027H2C1.59 3.78027 1.25 3.44027 1.25 3.03027C1.25 2.62027 1.59 2.28027 2 2.28027H22C22.41 2.28027 22.75 2.62027 22.75 3.03027C22.75 3.44027 22.41 3.78027 22 3.78027Z" fill="white"/>
<path d="M11.9997 21.7204C11.3597 21.7204 10.7797 21.4004 10.4297 20.8704L2.46966 8.48035C2.09966 7.91035 2.07965 7.18035 2.39965 6.58035C2.72965 5.98035 3.34966 5.61035 4.02966 5.61035H19.9597C20.6397 5.61035 21.2697 5.98035 21.5897 6.58035C21.9197 7.18035 21.8896 7.91035 21.5196 8.48035L13.5597 20.8704C13.2197 21.4004 12.6397 21.7204 11.9997 21.7204ZM4.03967 7.11035C3.84967 7.11035 3.74966 7.24035 3.71966 7.30035C3.68966 7.36035 3.62967 7.51035 3.72967 7.67035L11.6897 20.0603C11.7797 20.2003 11.9196 20.2304 11.9896 20.2304C12.0596 20.2304 12.1997 20.2103 12.2897 20.0603L20.2497 7.67035C20.3497 7.51035 20.2897 7.36035 20.2597 7.30035C20.2297 7.24035 20.1397 7.11035 19.9397 7.11035H4.03967Z" fill="white"/>
</svg>
