<svg width="24" height="24" viewBox="0 0 24 24" fill="none" xmlns="http://www.w3.org/2000/svg">
<path d="M11.9996 12.5995C11.7596 12.5995 11.5396 12.4895 11.3996 12.2995L8.89964 8.96953C8.72964 8.73953 8.69963 8.43952 8.82963 8.17952C8.95963 7.91952 9.21962 7.76953 9.49962 7.76953H14.4996C14.7796 7.76953 15.0396 7.92952 15.1696 8.17952C15.2996 8.42952 15.2696 8.73953 15.0996 8.96953L12.5996 12.2995C12.4596 12.4895 12.2396 12.5995 11.9996 12.5995ZM10.9996 9.26953L11.9996 10.5995L12.9996 9.26953H10.9996Z" fill="white"/>
<path d="M12 22.75C6.07 22.75 1.25 17.93 1.25 12C1.25 6.07 6.07 1.25 12 1.25C17.93 1.25 22.75 6.07 22.75 12C22.75 17.93 17.93 22.75 12 22.75ZM12 2.75C6.9 2.75 2.75 6.9 2.75 12C2.75 17.1 6.9 21.25 12 21.25C17.1 21.25 21.25 17.1 21.25 12C21.25 6.9 17.1 2.75 12 2.75Z" fill="white"/>
<path d="M11.9999 17.7502C11.7599 17.7502 11.5299 17.6302 11.3899 17.4402L6.38992 10.4402C6.14992 10.1002 6.2299 9.63024 6.5599 9.39024C6.8999 9.15024 7.36989 9.23024 7.60989 9.56024L11.9999 15.7102L16.3899 9.56024C16.6299 9.22024 17.0999 9.14024 17.4399 9.39024C17.7799 9.63024 17.8599 10.1002 17.6099 10.4402L12.6099 17.4402C12.4699 17.6302 12.2399 17.7502 11.9999 17.7502Z" fill="white"/>
</svg>
