<svg width="24" height="24" viewBox="0 0 24 24" fill="none" xmlns="http://www.w3.org/2000/svg">
<path d="M12.55 20.5896C11.76 20.5896 10.89 20.3096 10.02 19.7596L7.1 17.9296C6.9 17.8096 6.67 17.7396 6.44 17.7396H5C2.58 17.7396 1.25 16.4096 1.25 13.9896V9.98962C1.25 7.56962 2.58 6.23962 5 6.23962H6.43C6.66 6.23962 6.89 6.16962 7.09 6.04962L10.01 4.21962C11.47 3.30962 12.89 3.13962 14.01 3.75962C15.13 4.37962 15.74 5.66962 15.74 7.39962V16.5696C15.74 18.2896 15.12 19.5896 14.01 20.2096C13.57 20.4696 13.07 20.5896 12.55 20.5896ZM5 7.74962C3.42 7.74962 2.75 8.41962 2.75 9.99962V13.9996C2.75 15.5796 3.42 16.2496 5 16.2496H6.43C6.95 16.2496 7.45 16.3896 7.89 16.6696L10.81 18.4996C11.78 19.0996 12.68 19.2596 13.29 18.9196C13.9 18.5796 14.25 17.7296 14.25 16.5996V7.40962C14.25 6.26962 13.9 5.41962 13.29 5.08962C12.68 4.74962 11.77 4.89962 10.81 5.50962L7.88 7.32962C7.45 7.60962 6.94 7.74962 6.43 7.74962H5Z" fill="white"/>
<path d="M22.0005 14.7104C21.8105 14.7104 21.6205 14.6404 21.4705 14.4904L17.5105 10.5304C17.2205 10.2404 17.2205 9.76043 17.5105 9.47043C17.8005 9.18043 18.2805 9.18043 18.5705 9.47043L22.5305 13.4304C22.8205 13.7204 22.8205 14.2004 22.5305 14.4904C22.3805 14.6304 22.1905 14.7104 22.0005 14.7104Z" fill="white"/>
<path d="M17.9995 14.7505C17.8095 14.7505 17.6195 14.6805 17.4695 14.5305C17.1795 14.2405 17.1795 13.7605 17.4695 13.4705L21.4295 9.51047C21.7195 9.22047 22.1995 9.22047 22.4895 9.51047C22.7795 9.80047 22.7795 10.2805 22.4895 10.5705L18.5295 14.5305C18.3795 14.6805 18.1895 14.7505 17.9995 14.7505Z" fill="white"/>
</svg>
