<svg width="24" height="24" viewBox="0 0 24 24" fill="none" xmlns="http://www.w3.org/2000/svg">
<path d="M14 22.75H10C4.57 22.75 2.25 20.43 2.25 15V9C2.25 3.57 4.57 1.25 10 1.25H14C19.43 1.25 21.75 3.57 21.75 9V15C21.75 20.43 19.43 22.75 14 22.75ZM10 2.75C5.39 2.75 3.75 4.39 3.75 9V15C3.75 19.61 5.39 21.25 10 21.25H14C18.61 21.25 20.25 19.61 20.25 15V9C20.25 4.39 18.61 2.75 14 2.75H10Z" fill="white"/>
<path d="M15.0696 12.5396C14.8896 12.5396 14.7096 12.4696 14.5696 12.3496C13.1096 11.0496 10.8896 11.0496 9.42963 12.3496C9.26963 12.4996 9.04962 12.5596 8.81962 12.5296C8.59962 12.4996 8.40962 12.3696 8.28962 12.1796L6.10963 8.67961C5.91963 8.36961 5.97962 7.96961 6.24962 7.71961C9.52962 4.80961 14.4696 4.80961 17.7496 7.71961C18.0196 7.95961 18.0796 8.36961 17.8896 8.67961L15.7096 12.1796C15.5896 12.3696 15.3996 12.4896 15.1796 12.5296C15.1396 12.5296 15.0996 12.5396 15.0696 12.5396ZM11.9996 9.86961C12.9996 9.86961 13.9896 10.1496 14.8596 10.6996L16.2596 8.44961C13.7296 6.56961 10.2596 6.56961 7.72962 8.44961L9.12963 10.6996C10.0096 10.1396 10.9996 9.86961 11.9996 9.86961Z" fill="white"/>
</svg>
