<svg width="24" height="24" viewBox="0 0 24 24" fill="none" xmlns="http://www.w3.org/2000/svg">
<path d="M15 22.75H9C3.57 22.75 1.25 20.43 1.25 15V9C1.25 3.57 3.57 1.25 9 1.25H15C20.43 1.25 22.75 3.57 22.75 9V15C22.75 20.43 20.43 22.75 15 22.75ZM9 2.75C4.39 2.75 2.75 4.39 2.75 9V15C2.75 19.61 4.39 21.25 9 21.25H15C19.61 21.25 21.25 19.61 21.25 15V9C21.25 4.39 19.61 2.75 15 2.75H9Z" fill="white"/>
<path d="M17.9599 16.28H16.1899C14.7999 16.28 13.6699 15.15 13.6699 13.76C13.6699 12.37 14.7999 11.24 16.1899 11.24H17.2099V8.45996C17.2099 8.04996 17.5499 7.70996 17.9599 7.70996C18.3699 7.70996 18.7099 8.04996 18.7099 8.45996V15.52C18.7099 15.95 18.3699 16.28 17.9599 16.28ZM16.1899 12.75C15.6299 12.75 15.1699 13.21 15.1699 13.77C15.1699 14.33 15.6299 14.79 16.1899 14.79H17.2099V12.76H16.1899V12.75Z" fill="white"/>
<path d="M11.69 16.2804C11.47 16.2804 11.25 16.1804 11.1 16.0004L5.45001 8.94043C5.19001 8.62043 5.24002 8.14044 5.57002 7.89044C5.89002 7.63044 6.37 7.68044 6.62 8.01044L12.27 15.0704C12.53 15.3904 12.48 15.8704 12.15 16.1204C12.02 16.2304 11.86 16.2804 11.69 16.2804Z" fill="white"/>
<path d="M6.03981 16.2802C5.87981 16.2802 5.70983 16.2302 5.56983 16.1202C5.24983 15.8602 5.18981 15.3902 5.44981 15.0702L11.0998 8.01025C11.3598 7.69025 11.8298 7.63025 12.1498 7.89025C12.4698 8.15025 12.5298 8.62024 12.2698 8.94024L6.61981 16.0002C6.47981 16.1802 6.25981 16.2802 6.03981 16.2802Z" fill="white"/>
</svg>
