<svg width="24" height="24" viewBox="0 0 24 24" fill="none" xmlns="http://www.w3.org/2000/svg">
<path d="M8.76999 15.99C7.83999 15.99 6.96001 15.63 6.29001 14.97C5.62001 14.3 5.25 13.42 5.25 12.47V9.67001C5.25 8.75001 6.00001 8 6.92001 8H10.61C12.55 8 14.13 9.57999 14.13 11.52V14.29C14.13 15.21 13.38 15.96 12.47 15.96L8.79001 15.99C8.79001 15.99 8.77999 15.99 8.76999 15.99ZM6.92001 9.51001C6.82001 9.51001 6.75 9.58999 6.75 9.67999V12.48C6.75 13.02 6.96001 13.53 7.35001 13.91C7.73001 14.29 8.25001 14.53 8.79001 14.5L12.47 14.47C12.56 14.47 12.64 14.39 12.64 14.3V11.53C12.64 10.42 11.73 9.51001 10.62 9.51001H6.92001V9.51001Z" fill="white"/>
<path d="M18.0005 15.5296C17.8505 15.5296 17.7104 15.4896 17.5804 15.3996L14.8105 13.5496C14.6005 13.4096 14.4805 13.1796 14.4805 12.9296V11.0796C14.4805 10.8296 14.6105 10.5896 14.8105 10.4596L17.5804 8.60959C17.8104 8.45959 18.1105 8.43961 18.3505 8.56961C18.5905 8.69961 18.7505 8.94961 18.7505 9.22961V14.7696C18.7505 15.0496 18.6005 15.2996 18.3505 15.4296C18.2405 15.4996 18.1205 15.5296 18.0005 15.5296ZM15.9805 12.5296L17.2505 13.3796V10.6396L15.9805 11.4896V12.5296Z" fill="white"/>
<path d="M12 22.75C6.07 22.75 1.25 17.93 1.25 12C1.25 6.07 6.07 1.25 12 1.25C17.93 1.25 22.75 6.07 22.75 12C22.75 17.93 17.93 22.75 12 22.75ZM12 2.75C6.9 2.75 2.75 6.9 2.75 12C2.75 17.1 6.9 21.25 12 21.25C17.1 21.25 21.25 17.1 21.25 12C21.25 6.9 17.1 2.75 12 2.75Z" fill="white"/>
</svg>
