<svg width="20" height="20" viewBox="0 0 20 20" fill="none" xmlns="http://www.w3.org/2000/svg">
<path fill-rule="evenodd" clip-rule="evenodd" d="M18.3333 10.0001C18.3333 14.6025 14.6024 18.3334 9.99999 18.3334C5.39762 18.3334 1.66666 14.6025 1.66666 10.0001C1.66666 5.39771 5.39762 1.66675 9.99999 1.66675C14.6024 1.66675 18.3333 5.39771 18.3333 10.0001ZM7.47468 7.47479C7.71876 7.23071 8.11449 7.23071 8.35856 7.47479L9.99996 9.11619L11.6413 7.47481C11.8854 7.23073 12.2812 7.23073 12.5252 7.47481C12.7693 7.71888 12.7693 8.11461 12.5252 8.35869L10.8838 10.0001L12.5252 11.6414C12.7693 11.8855 12.7693 12.2812 12.5252 12.5253C12.2811 12.7694 11.8854 12.7694 11.6413 12.5253L9.99996 10.884L8.35858 12.5253C8.1145 12.7694 7.71878 12.7694 7.4747 12.5253C7.23062 12.2813 7.23062 11.8855 7.4747 11.6415L9.11608 10.0001L7.47468 8.35867C7.2306 8.1146 7.2306 7.71887 7.47468 7.47479Z" fill="#BFBFBF"/>
</svg>
