<svg width="24" height="24" viewBox="0 0 24 24" fill="none" xmlns="http://www.w3.org/2000/svg">
<path fill-rule="evenodd" clip-rule="evenodd" d="M2 4.17004C2 2.99368 2.92957 2 4.12661 2H19.8734C21.0704 2 22 2.99368 22 4.17004V5.70487C22 6.27967 21.7776 6.83618 21.3709 7.24664C21.3707 7.24691 21.3704 7.24717 21.3701 7.24743L14.6796 14.0327V19.1556C14.6796 19.4536 14.5076 19.7247 14.238 19.8516L9.82911 21.9268C9.59083 22.0389 9.31174 22.0214 9.08938 21.8803C8.86702 21.7392 8.73229 21.4941 8.73229 21.2308V14.0141L2.56658 7.21563C2.19978 6.8117 2 6.28339 2 5.73997V4.17004ZM4.12661 3.53846C3.82414 3.53846 3.53846 3.79774 3.53846 4.17004V5.73997C3.53846 5.90892 3.6006 6.06592 3.70515 6.18097L10.0713 13.2005C10.1997 13.342 10.2708 13.5262 10.2708 13.7172V20.0185L13.1412 18.6675V13.7172C13.1412 13.5151 13.2208 13.3211 13.3627 13.1772L20.2762 6.16566L20.2778 6.16407C20.3918 6.04917 20.4615 5.88488 20.4615 5.70487V4.17004C20.4615 3.79774 20.1759 3.53846 19.8734 3.53846H4.12661Z" fill="#7F7F7F"/>
</svg>
