<svg width="16" height="16" viewBox="0 0 16 16" fill="none" xmlns="http://www.w3.org/2000/svg">
<path fill-rule="evenodd" clip-rule="evenodd" d="M8 2C8.28403 2 8.51429 2.23025 8.51429 2.51429V7.48571H13.4857C13.7697 7.48571 14 7.71597 14 8C14 8.28403 13.7697 8.51429 13.4857 8.51429H8.51429V13.4857C8.51429 13.7697 8.28403 14 8 14C7.71597 14 7.48571 13.7697 7.48571 13.4857V8.51429H2.51429C2.23025 8.51429 2 8.28403 2 8C2 7.71597 2.23025 7.48571 2.51429 7.48571H7.48571V2.51429C7.48571 2.23025 7.71597 2 8 2Z" fill="#555555"/>
</svg>
