<svg width="24" height="24" viewBox="0 0 24 24" fill="none" xmlns="http://www.w3.org/2000/svg">
<path fill-rule="evenodd" clip-rule="evenodd" d="M11.4171 3.75C7.1827 3.75 3.75 7.1827 3.75 11.4171C3.75 15.6516 7.1827 19.0843 11.4171 19.0843C15.6516 19.0843 19.0843 15.6516 19.0843 11.4171C19.0843 7.1827 15.6516 3.75 11.4171 3.75ZM2.25 11.4171C2.25 6.35427 6.35427 2.25 11.4171 2.25C16.48 2.25 20.5843 6.35427 20.5843 11.4171C20.5843 13.79 19.6828 15.9522 18.2036 17.5801L21.5304 20.9069C21.8233 21.1998 21.8233 21.6746 21.5304 21.9675C21.2375 22.2604 20.7626 22.2604 20.4697 21.9675L17.1072 18.6051C15.5439 19.8443 13.567 20.5843 11.4171 20.5843C6.35427 20.5843 2.25 16.48 2.25 11.4171Z" fill="#7F7F7F"/>
</svg>
