<svg width="503" height="437" viewBox="0 0 503 437" fill="none" xmlns="http://www.w3.org/2000/svg">
<path d="M130.09 416.633C163.09 438.435 210 436.441 254.11 431.538C298.19 426.529 325.58 424.23 365.21 434.431C404.81 444.631 437.81 421.642 420.41 399.535C406.71 382.042 383.29 370.639 377.58 357.743C375.99 354.333 375.71 350.74 377.31 346.934C380.2 339.732 390.3 337.342 402.19 336.033C420.31 334.13 442.6 334.739 450.21 325.132C455.89 317.93 455.11 311.338 446.98 305.431C437.3 298.336 417.01 292.337 384.48 287.831C337.99 281.33 309.51 285.03 274.09 297.438C246.91 306.938 221.31 304.73 200.99 306.04C194.91 306.436 189.3 307.136 184.2 308.643C162.41 314.931 151.61 322.939 157.49 335.332C163.4 347.741 190.49 351.242 193.31 357.439C195.31 361.93 186.99 366.543 171.12 370.639C165.1 372.237 158 373.729 149.91 375.039C145.39 375.83 141 376.835 136.99 378.038C114.6 384.63 102.19 398.241 130.09 416.633Z" fill="#809DF9"/>
<path d="M198.3 348.537C183.9 341.637 156.7 338.633 166.4 323.536C171.6 315.436 191.2 309.538 201 306.036C194.9 306.437 189.3 307.135 184.2 308.633C162.4 314.938 151.6 322.936 157.5 335.339C163.4 347.736 190.5 351.237 193.3 357.439C195.3 361.935 187 366.534 171.1 370.636C211.4 368.834 210.4 354.338 198.3 348.537Z" fill="#E1ECFF"/>
<path d="M447.1 305.436C448.9 311.534 449.2 319.735 440.3 324.238C424.6 332.135 397.4 328.234 382.5 333.835C369.3 338.736 365.1 350.535 377.6 357.736C376 354.337 375.7 350.739 377.3 346.936C380.2 339.735 390.3 337.334 402.2 336.037C420.3 334.139 442.6 334.735 450.2 325.138C455.9 317.936 455.1 311.336 447.1 305.436Z" fill="#E1ECFF"/>
<path d="M377.19 347.039C380.12 339.835 390.19 337.434 402.11 336.132C397.01 335.94 391.59 336.132 386.21 336.737C366.8 339.038 365.71 353.537 377.19 369.238C388.7 384.837 423.01 403.04 409.51 416.732C396.01 430.435 368.89 421.939 330.1 418.236C294.21 414.835 274.21 418.438 229.42 423.735C184.69 428.931 148.89 421.535 130.6 402.838C120.89 392.94 125.5 383.838 137 378.036C114.61 384.635 102.2 398.237 130.1 416.631C163.1 438.436 210.01 436.438 254.11 431.535C298.19 426.54 325.59 424.239 365.19 434.441C404.69 444.733 437.69 421.636 420.3 399.64C402.92 377.532 369.91 365.141 377.19 347.039Z" fill="#E1ECFF"/>
<path d="M192.3 397.236C209.1 402.036 226.4 392.236 226.4 392.236C226.4 392.236 208.5 395.737 196.9 392.236C185.3 388.737 187.7 381.736 187.7 381.736C187.7 381.736 175.5 392.436 192.3 397.236Z" fill="#E1ECFF"/>
<path d="M317.3 392.036C326.2 393.436 352.4 400.636 365.7 396.436C379 392.336 371.5 381.336 371.5 381.336C371.5 381.336 373 386.237 367.3 389.636C361.6 393.036 340.8 391.936 323.8 388.436C306.7 384.936 292.1 393.036 292.1 393.036C292.1 393.036 304.3 390.036 317.3 392.036Z" fill="#E1ECFF"/>
<path d="M407.9 305.435C417.1 312.237 411.5 318.536 411.5 318.536C411.5 318.536 423.4 315.137 416.5 306.936C407.3 295.937 373.2 295.736 373.2 295.736C373.2 295.736 398.7 298.636 407.9 305.435Z" fill="#E1ECFF"/>
<path d="M205.1 322.536C208 328.336 226.7 330.936 226.7 330.936C226.7 330.936 217.5 327.336 212.7 322.937C207.9 318.536 218.3 315.336 218.3 315.336C218.3 315.336 202.2 316.636 205.1 322.536Z" fill="#E1ECFF"/>
<path d="M382.8 322.136C385.6 318.838 385.2 315.834 381.29 313.034C376.49 309.736 366.5 307.033 350.49 304.933C327.49 301.936 313.5 303.638 296.01 309.337C282.6 313.636 269.91 312.635 259.89 313.237C256.91 313.44 254.1 313.734 251.6 314.434C240.8 317.34 235.5 321.036 238.4 326.736C241.31 332.337 254.61 334.038 256 336.839C257.01 338.939 253 341.04 245.1 342.937C242.09 343.637 238.6 344.337 234.6 344.939C232.3 345.339 230.2 345.738 228.2 346.34C217.2 349.434 210.99 355.638 224.8 364.138C241.1 374.234 264.2 373.338 285.99 371.034C307.7 368.738 321.3 367.638 340.8 372.336C360.31 377.034 376.59 366.539 368.01 356.338C361.3 348.335 349.7 343.035 346.9 337.14C346.2 335.536 346 333.835 346.8 332.134C348.19 328.836 353.19 327.737 359.1 327.135C368.11 326.238 379.09 326.54 382.8 322.136Z" fill="#E1ECFF"/>
<path d="M242.1 343.837C233 346.537 227.9 352.136 239.3 359.639C252.8 368.535 272 367.739 289.99 365.736C308 363.739 319.21 362.737 335.4 366.937C351.6 371.036 365.09 361.636 358.01 352.634C352.41 345.536 342.8 340.839 340.5 335.538C339.9 334.138 339.8 332.739 340.4 331.134C341.59 328.135 345.69 327.133 350.6 326.636C358.01 325.839 367.1 326.038 370.19 322.138C372.5 319.239 372.2 316.439 369.1 314.237C365.09 311.338 356.8 308.837 343.5 307.039C324.5 304.339 312.8 305.838 298.3 310.933C287.2 314.834 276.69 313.938 268.4 314.436C265.9 314.635 263.6 314.934 261.5 315.537C252.6 318.138 248.2 321.335 250.6 326.437C253 331.438 264.1 332.938 265.2 335.439C265.99 337.237 262.6 339.134 256.1 340.839C253.6 341.436 250.71 342.139 247.4 342.637C245.49 342.935 243.7 343.333 242.1 343.837Z" fill="#809DF9"/>
<path d="M125.2 356.736C123.5 362.636 136.8 364.036 151.1 363.535C165.5 362.936 167.8 356.337 165.7 353.237C162.9 348.637 153.8 347.536 144.8 348.037C134.4 348.536 127 350.837 125.2 356.736Z" fill="#E1ECFF"/>
<path d="M401.8 352.137C399.8 357.336 415.1 358.636 431.6 358.136C448.1 357.637 446.9 351.836 445 348.837C443.2 345.836 434.6 344.036 424.3 344.436C412.4 344.837 403.8 346.936 401.8 352.137Z" fill="#E1ECFF"/>
<path d="M434.7 377.635C438.8 386.335 454.3 389.037 478.6 388.136C503 387.237 504.6 378.537 501.9 373.336C499.2 368.136 483 363.437 467.8 364.137C450.2 364.937 430.6 369.037 434.7 377.635Z" fill="#E1ECFF"/>
<path d="M50.2998 47.3364C43.6998 47.3364 38.2998 52.7374 38.2998 59.4364V65.9354C38.2998 66.5384 38.2998 67.0374 38.3998 67.6364C39.2098 73.4354 44.1998 77.9364 50.2998 77.9364H232.5C238.5 77.9364 243.59 73.4354 244.4 67.6364C244.4 67.1384 244.5 66.5384 244.5 65.9354V59.4364C244.5 52.7374 239.1 47.3364 232.4 47.3364H50.2998Z" fill="#E1ECFF"/>
<path d="M288.91 171.332C286.31 132.447 268.2 97.7284 240.79 73.3364H48.41C33.81 86.3404 21.81 102.349 13.39 120.327C4.80001 138.835 0 159.439 0 181.23C0 261.146 64.69 325.836 144.6 325.836C224.51 325.836 289.2 261.146 289.2 181.23C289.2 177.947 289.11 174.639 288.91 171.332Z" fill="#E1ECFF"/>
<path d="M38.3999 67.6364C39.1999 73.4364 44.2099 77.9363 50.2999 77.9363H232.4C238.39 77.9363 243.5 73.4364 244.3 67.6364H38.3999Z" fill="#C5DFFF"/>
<path d="M288.91 171.341L34.0101 124.138L13.5101 120.336C4.90013 138.831 0.100098 159.443 0.100098 181.246C0.100098 261.145 64.8001 325.836 144.71 325.836C156.21 325.836 167.4 324.542 178.1 321.932C241.79 306.828 289.2 249.534 289.2 181.246C289.2 178.143 289.11 174.938 288.91 171.341Z" fill="#E1ECFF"/>
<path d="M288.9 171.338L33.99 124.137L13.5 120.336C13.5 120.336 15.81 134.335 150.59 158.037C232.8 172.435 272.6 176.235 288.9 171.839C288.9 171.636 288.9 171.338 288.9 171.338Z" fill="#B2C2F9"/>
<path d="M48.8002 251.24C21.9902 201.344 28.4001 149.127 33.9901 124.138L13.5001 120.336C4.91012 138.831 0.100098 159.443 0.100098 181.246C0.100098 261.145 64.8001 325.836 144.71 325.836C156.21 325.836 167.4 324.542 178.1 321.932C133.71 316.342 77.0002 303.745 48.8002 251.24Z" fill="#B2C2F9"/>
<path d="M38.4002 121.438L39.2001 121.535C41.1001 121.736 42.9001 120.636 43.5001 118.837C44.6001 115.536 46.7002 110.036 49.8002 104.637C52.3002 100.136 56.0001 95.6363 59.0001 92.3383C61.0001 90.1363 59.9002 86.4363 56.8002 85.7363C55.5002 85.4383 54.1001 85.8363 53.1001 86.8353C50.4001 89.5363 44.7001 95.3373 41.1001 101.035C38.1001 105.837 36.1002 112.235 34.9002 116.437C34.3002 118.837 35.9002 121.236 38.4002 121.438Z" fill="#C5DFFF"/>
<path d="M239.1 101.938L238.3 102.938C236.2 105.339 236.1 108.938 238 111.435C241.5 116.136 247.2 124.239 251.9 133.635C255.7 141.336 258.5 150.738 260.3 158.038C261.5 163.134 267.8 164.936 271.6 161.337C273.3 159.738 274 157.439 273.6 155.139C272.4 148.738 269.6 135.437 265.1 125.035C261.3 116.334 254.3 107.435 249.4 101.836C246.7 98.7344 241.8 98.7344 239.1 101.938Z" fill="white"/>
<path d="M87.1997 169.437C90.1997 169.735 91.5998 171.636 93.2998 174.136C94.7998 176.235 96.3998 178.537 99.2998 179.837C105.3 182.337 108.9 181.335 109.3 181.237C110.4 180.837 110.9 179.737 110.6 178.735C110.2 177.736 109.1 177.137 108.1 177.437C108.1 177.437 105.5 178.136 100.9 176.137C99.0998 175.336 97.8997 173.736 96.5997 171.837C94.6997 169.036 92.4997 165.936 87.6997 165.437C80.8997 164.736 75.1998 168.536 71.8998 176.235C70.0998 180.336 63.1997 179.036 63.1997 179.036C62.1997 178.735 61.0998 179.436 60.8998 180.536C60.5998 181.636 61.2998 182.736 62.3998 182.936C62.5998 182.936 63.8997 183.236 65.6997 183.236C68.8997 183.236 73.5998 182.337 75.3998 177.836C78.0998 171.736 82.0997 168.936 87.1997 169.437Z" fill="#B2C2F9"/>
<path d="M248.6 187.936C246.9 185.537 244.4 182.336 238.6 182.336C231 182.336 227.8 188.637 227.2 191.936C227 193.036 227.7 194.036 228.8 194.237C229.8 194.436 230.9 193.737 231.1 192.636C231.2 192.436 232.4 186.337 238.6 186.337C242.4 186.337 243.8 188.236 245.4 190.337C246.5 191.836 247.8 193.636 250.1 194.237C251.4 194.636 252.6 194.736 253.7 194.736C256.8 194.736 259.1 193.737 259.2 193.636C260.2 193.236 260.7 192.037 260.2 191.036C259.8 190.037 258.6 189.536 257.6 190.037C257.6 190.037 254.6 191.336 251.2 190.436C250.3 190.136 249.6 189.336 248.6 187.936Z" fill="#B2C2F9"/>
<path d="M220 281.837C218.6 281.437 217.4 280.836 216.1 280.136C213.4 278.737 210.5 277.136 206.2 278.436C201.3 279.936 199.7 283.036 198.7 285.036C198.3 285.837 197.6 286.636 197.6 286.636C195.8 287.236 190.7 287.136 188 286.937C186.9 286.836 185.9 287.736 185.9 288.836C185.9 289.936 186.7 290.836 187.8 290.937C188.2 290.937 190.2 291.036 192.4 291.036C194.7 291.036 197.3 290.937 198.8 290.436C200.8 289.837 201.6 288.236 202.3 286.836C203.2 285.036 204.1 283.236 207.4 282.236C210.1 281.437 211.9 282.337 214.3 283.637C215.7 284.337 217.3 285.136 219.1 285.637C222.9 286.636 228 285.837 228 285.837C229 285.637 229.8 284.636 229.6 283.536C229.4 282.537 228.4 281.736 227.3 281.936C226.1 282.136 222.5 282.436 220 281.837Z" fill="#B2C2F9"/>
<path d="M245.2 224.837C248.679 224.837 251.5 222.016 251.5 218.537C251.5 215.057 248.679 212.237 245.2 212.237C241.721 212.237 238.9 215.057 238.9 218.537C238.9 222.016 241.721 224.837 245.2 224.837Z" fill="white"/>
<path d="M167.7 300.837C171.179 300.837 174 298.016 174 294.537C174 291.057 171.179 288.237 167.7 288.237C164.221 288.237 161.4 291.057 161.4 294.537C161.4 298.016 164.221 300.837 167.7 300.837Z" fill="white"/>
<path d="M106.1 285.037C111.181 285.037 115.3 280.918 115.3 275.837C115.3 270.756 111.181 266.637 106.1 266.637C101.019 266.637 96.8999 270.756 96.8999 275.837C96.8999 280.918 101.019 285.037 106.1 285.037Z" fill="white"/>
<path d="M55.9999 165.737C59.9211 165.737 63.0999 162.558 63.0999 158.637C63.0999 154.715 59.9211 151.537 55.9999 151.537C52.0787 151.537 48.8999 154.715 48.8999 158.637C48.8999 162.558 52.0787 165.737 55.9999 165.737Z" fill="white"/>
<path d="M51.4001 217.039C51.7001 228.737 55.1001 244.837 58.9001 254.233C60.1001 257.339 61.4 259.635 62.7 260.838C65.9 263.839 69.5001 264.134 73.9001 262.937C76.6001 262.139 79.6001 260.838 82.9001 259.236C85.1001 258.137 87.4 256.836 89.7 255.338C98.7 249.636 107.9 242.038 107.9 242.038C107.9 242.038 106.5 238.736 105.1 234.138C103.2 228.136 101.2 219.837 101.6 213.337C101.6 213.337 92.2 208.636 80.2 205.334C77.1 204.536 73.8001 203.738 70.4001 203.136C67.8001 202.639 65.4001 202.339 63.3001 202.234C55.6001 201.933 51.0001 204.837 51.4001 217.039Z" fill="#FEC272"/>
<path d="M105.1 234.136C103.2 228.136 101.2 219.836 101.6 213.336C101.6 213.336 92.2 208.636 80.2 205.336C78.8 209.636 77.1 217.836 78.7 230.236C79.5 236.236 81.3 241.536 83.6 246.036C85.5 249.536 87.6 252.736 89.7 255.336C98.7 249.636 107.9 242.036 107.9 242.036C107.9 242.036 106.5 238.736 105.1 234.136Z" fill="#FC7059"/>
<path d="M68.6 252.237C66.7 247.836 65.0001 243.036 63.9001 237.733C60.6001 222.334 62.0001 209.039 63.3001 202.134C55.6001 201.833 51.0001 204.737 51.4001 216.939C51.7001 228.637 55.1001 244.737 58.9001 254.133C60.1001 257.239 61.4 259.535 62.7 260.738C65.9 263.739 69.5001 264.034 73.9001 262.837C72.1001 259.737 70.2 256.239 68.6 252.237Z" fill="#FC7059"/>
<path d="M105.1 234.136C96.1999 239.335 77.9999 249.537 70.5999 251.837C66.2999 253.136 62.1999 253.837 58.8999 254.235C60.0999 257.337 61.3998 259.637 62.6998 260.836C65.8998 263.835 69.4999 264.136 73.8999 262.937C76.5999 262.135 79.5999 260.836 82.8999 259.237C85.0999 258.135 87.3998 256.836 89.6998 255.337C98.6998 249.637 107.9 242.037 107.9 242.037C107.9 242.037 106.5 238.738 105.1 234.136Z" fill="#FCAA51"/>
<path d="M105.1 234.136C99.8001 237.236 91.2001 242.137 83.6001 246.036C85.5001 249.536 87.6001 252.737 89.7001 255.336C98.7001 249.636 107.9 242.035 107.9 242.035C107.9 242.035 106.5 238.737 105.1 234.136Z" fill="#F74F3E"/>
<path d="M68.4999 252.336C64.9999 253.237 61.6999 253.836 58.8999 254.136C60.0999 257.237 61.3998 259.536 62.6998 260.737C65.8998 263.737 69.4999 264.036 73.8999 262.836C72.0999 259.736 70.1999 256.236 68.4999 252.336Z" fill="#F74F3E"/>
<path d="M131.1 260.138C133.8 260.636 136.5 261.133 139.31 261.537C152.3 263.534 166.5 263.939 179.4 262.136C197.89 259.54 213.7 252.436 219.9 238.734C221.01 236.24 221.91 233.434 222.3 230.434C226.29 203.536 204.8 187.339 178.1 185.738C172 185.334 165.59 185.637 159.2 186.733C153.2 187.735 147.3 189.033 141.7 190.533C132.5 192.935 124.3 196.036 117.4 199.634C102.7 207.235 94 216.934 94.1 226.836C94.1 230.535 94.2 235.237 96.3 239.838C99 246.133 105.5 252.638 120.3 257.333C123.5 258.335 127.11 259.338 131.1 260.138Z" fill="#FEC272"/>
<path d="M179.4 262.036C176.3 258.437 173.2 254.038 170.7 249.235C167 242.233 164.3 234.135 163.8 224.933C162.7 203.436 171.9 191.234 178 185.638C171.9 185.234 165.5 185.537 159.1 186.633C153.1 187.635 147.2 188.933 141.6 190.433C137.1 199.037 133.4 210.632 133.4 225.539C133.4 234.236 134.1 241.533 135.3 247.634C136.4 253.137 137.8 257.738 139.3 261.437C152.3 263.434 166.5 263.839 179.4 262.036Z" fill="#FC7059"/>
<path d="M115.1 244.438C113.8 240.238 112.9 235.737 112.6 230.839C111.6 216.737 114.4 206.235 117.3 199.536C102.6 207.135 93.8999 216.835 93.9999 226.736C93.9999 230.435 94.0998 235.137 96.1998 239.736C98.8998 246.037 105.4 252.534 120.2 257.236C118.2 253.538 116.4 249.239 115.1 244.438Z" fill="#FC7059"/>
<path d="M168.9 249.136C133.7 249.836 107.3 243.136 96.2998 239.736C98.9898 246.036 105.5 252.536 120.3 257.237C123.5 258.237 127.1 259.236 131.11 260.036C133.8 260.537 136.49 261.035 139.3 261.435C152.3 263.436 166.5 263.836 179.4 262.037C197.9 259.437 213.7 252.337 219.9 238.636C212.9 242.937 198.1 248.537 168.9 249.136Z" fill="#FCAA51"/>
<path d="M170.6 249.036C170 249.137 169.4 249.137 168.8 249.137C156.5 249.437 145.2 248.736 135.3 247.636C136.4 253.136 137.8 257.736 139.3 261.436C152.3 263.436 166.5 263.836 179.4 262.037C176.3 258.437 173.2 254.036 170.6 249.036Z" fill="#F74F3E"/>
<path d="M115 244.437C106.8 242.836 100.4 241.037 96.2002 239.736C98.9002 246.036 105.4 252.536 120.2 257.236C118.2 253.537 116.4 249.237 115 244.437Z" fill="#F74F3E"/>
<path d="M204.7 220.237C208.29 220.237 211.2 217.326 211.2 213.737C211.2 210.147 208.29 207.237 204.7 207.237C201.11 207.237 198.2 210.147 198.2 213.737C198.2 217.326 201.11 220.237 204.7 220.237Z" fill="#1C3177"/>
<path d="M216 234.737C214.8 233.137 208.1 231.536 201.9 236.736C196.6 241.136 197.1 245.436 198.5 247.437C198.8 247.736 199 248.037 199.3 248.237C201.1 249.536 205.7 249.136 211.4 245.936C214.7 244.137 216.1 241.336 216.6 238.936C216.9 237.136 216.6 235.436 216 234.737Z" fill="#1C3177"/>
<path d="M202.7 241.237C200.1 243.437 198.9 245.537 198.5 247.436C198.8 247.736 199 248.037 199.3 248.236C201.1 249.536 205.7 249.136 211.4 245.937C214.7 244.136 216.1 241.337 216.6 238.936C215 237.436 208.6 236.136 202.7 241.237Z" fill="#FC7059"/>
<path d="M171.8 253.637C168.7 251.237 155.7 241.138 151.3 236.836C151.3 236.836 138.4 241.938 135.6 255.835C135.6 256.037 135.5 256.235 135.5 256.437C133.1 270.038 140.6 282.035 157.2 276.834C172.2 272.137 172.5 254.235 172.5 254.235C172.5 254.235 172.2 254.037 171.8 253.637Z" fill="#FCAA51"/>
<path d="M151.3 236.736C151.3 236.736 138.4 241.837 135.6 255.736C135.6 255.936 135.5 256.135 135.5 256.337C136.3 266.737 143.8 274.135 157.5 269.835C166.6 266.936 170.3 259.236 171.8 253.638C168.7 251.237 155.7 241.136 151.3 236.736Z" fill="#FEC272"/>
<path d="M184.1 185.936C184.1 185.936 189.2 175.837 177 172.735C164.8 169.636 141 190.636 141 190.636C152.1 187.837 184.1 185.936 184.1 185.936Z" fill="#FEC272"/>
<path fill-rule="evenodd" clip-rule="evenodd" d="M318.4 194.937C320 193.736 320.3 191.436 319.1 189.836C317.9 188.237 315.6 187.936 314 189.137L297.7 201.336C297.1 201.836 296.8 202.737 297.2 203.437C297.6 204.236 298.6 204.636 299.4 204.236L317.7 195.437C317.9 195.336 318.2 195.236 318.4 194.937ZM269.2 211.538L251.5 238.54L252.2 260.034L251.5 270.436L260.04 255.988C265.73 261.496 275.62 272.616 282 288.436C291.4 311.733 290 339.739 290 339.739C290 339.739 301.5 347.834 314.7 344.842C327.9 341.838 330.7 328.734 330.7 328.734C330.7 328.734 325.1 294.837 303.2 265.138C290.35 247.722 274.19 236.449 266.85 231.868L266.7 224.737L274.1 213.438L271.4 193.836L269.2 211.538ZM328.3 221.536C330.3 221.236 331.7 219.436 331.4 217.436C331.1 215.436 329.3 214.036 327.3 214.336L298.9 218.036C298 218.136 297.3 218.936 297.3 219.836C297.3 220.836 298.1 221.636 299.1 221.636L327.8 221.536H328.3ZM310.6 247.237C312.4 248.136 314.6 247.437 315.5 245.637C316.4 243.837 315.7 241.637 313.9 240.737L299.1 233.037C298.4 232.636 297.5 232.736 296.9 233.437C296.2 234.236 296.3 235.437 297.1 236.036L309.9 246.737C310.1 246.936 310.4 247.136 310.6 247.237Z" fill="#809DF9"/>
<path fill-rule="evenodd" clip-rule="evenodd" d="M326.1 96.6343L366.1 18.4323C367.9 14.9353 366.1 10.6373 362.4 9.43533L335 0.339336C331.4 -0.863664 327.6 1.24033 326.7 4.93733L307 89.5413C306.3 92.6363 307.9 95.7323 310.9 96.9343L318 99.7393C321.1 100.931 324.6 99.6393 326.1 96.6343ZM306.1 131.536C313.06 131.536 318.7 125.895 318.7 118.936C318.7 111.978 313.06 106.336 306.1 106.336C299.14 106.336 293.5 111.978 293.5 118.936C293.5 125.895 299.14 131.536 306.1 131.536Z" fill="#FEC272"/>
</svg>
