<svg width="251" height="160" viewBox="0 0 251 160" fill="none" xmlns="http://www.w3.org/2000/svg">
<path fill-rule="evenodd" clip-rule="evenodd" d="M166.5 114H209.5C213.366 114 216.5 110.866 216.5 107C216.5 103.134 213.366 100 209.5 100H203.5C199.634 100 196.5 96.866 196.5 93C196.5 89.134 199.634 86 203.5 86H222.5C226.366 86 229.5 82.866 229.5 79C229.5 75.134 226.366 72 222.5 72H200.5C204.366 72 207.5 68.866 207.5 65C207.5 61.134 204.366 58 200.5 58H136.5C140.366 58 143.5 54.866 143.5 51C143.5 47.134 140.366 44 136.5 44H79.5C75.634 44 72.5 47.134 72.5 51C72.5 54.866 75.634 58 79.5 58H39.5C35.634 58 32.5 61.134 32.5 65C32.5 68.866 35.634 72 39.5 72H64.5C68.366 72 71.5 75.134 71.5 79C71.5 82.866 68.366 86 64.5 86H24.5C20.634 86 17.5 89.134 17.5 93C17.5 96.866 20.634 100 24.5 100H63.5C59.634 100 56.5 103.134 56.5 107C56.5 110.866 59.634 114 63.5 114H84.5V92.3066H112.504C112.501 92.2047 112.5 92.1025 112.5 92C112.5 91.7674 112.506 91.5362 112.518 91.3066H84.5L94.0604 63.0389C94.4726 61.8202 95.6159 61 96.9023 61H154.098C155.384 61 156.527 61.8202 156.94 63.0389L166.5 91.3066H138.482C138.494 91.5362 138.5 91.7674 138.5 92C138.5 92.1025 138.499 92.2047 138.496 92.3066H166.5V114ZM136.297 99.2423C134.351 103.243 130.248 106 125.5 106C120.752 106 116.649 103.243 114.703 99.2423C117.036 102.715 121.001 105 125.5 105C129.999 105 133.964 102.715 136.297 99.2423ZM226.5 114C230.366 114 233.5 110.866 233.5 107C233.5 103.134 230.366 100 226.5 100C222.634 100 219.5 103.134 219.5 107C219.5 110.866 222.634 114 226.5 114Z" fill="#EE0033" fill-opacity="0.05"/>
<path fill-rule="evenodd" clip-rule="evenodd" d="M136.598 92.9545C136.598 98.5025 131.629 104 125.5 104C119.371 104 114.402 98.5025 114.402 92.9545C114.402 92.7748 114.408 91.5962 114.418 91.4188H93.5L101.661 71.5755C102.013 70.6338 102.989 70 104.087 70H146.913C148.011 70 148.987 70.6338 149.339 71.5755L157.5 91.4188H136.582C136.592 91.5962 136.598 92.7748 136.598 92.9545Z" fill="#EE0033" fill-opacity="0.1"/>
<path fill-rule="evenodd" clip-rule="evenodd" d="M85.75 91.5123V118C85.75 118.966 86.5335 119.75 87.5 119.75H163.5C164.466 119.75 165.25 118.966 165.25 118V91.5123L155.755 63.4393C155.515 62.7285 154.848 62.25 154.098 62.25H96.9023C96.1519 62.25 95.485 62.7285 95.2446 63.4393L85.75 91.5123Z" stroke="#EE0033" stroke-width="2.5"/>
<path d="M98.5 91C102.437 91 106.685 91 111.245 91C113.121 91 113.121 92.3186 113.121 93C113.121 99.6274 118.617 105 125.397 105C132.177 105 137.673 99.6274 137.673 93C137.673 92.3186 137.673 91 139.55 91H164.5M91.0737 91H93.5" stroke="#EE0033" stroke-width="2.5" stroke-linecap="round" stroke-linejoin="round"/>
<path d="M150.6 38.3027L139.5 50.7559M124.6 34V50.7559M98.5 38.3027L109.6 50.7559" stroke="#EE0033" stroke-opacity="0.5" stroke-width="2.5" stroke-linecap="round" stroke-linejoin="round"/>
</svg>
