<svg width="56" height="56" viewBox="0 0 56 56" fill="none" xmlns="http://www.w3.org/2000/svg">
<g opacity="0.52">
<path fill-rule="evenodd" clip-rule="evenodd" d="M48.2368 23.4396C49.0701 23.8719 49.6848 24.4537 49.9434 25.0367C49.3916 25.3564 48.5523 25.4657 47.6239 25.3258C47.1917 26.1591 46.6099 26.7738 46.0269 27.0323C45.7072 26.4806 45.5979 25.6413 45.7378 24.7129C44.9045 24.2807 44.2898 23.6989 44.0313 23.1159C44.583 22.7962 45.4223 22.6868 46.3507 22.8268C46.7829 21.9935 47.3647 21.3788 47.9477 21.1202C48.2674 21.672 48.3768 22.5113 48.2368 23.4396ZM8.89389 30.5669C8.53706 30.3085 8.23197 29.8094 8.05944 29.1839C7.4118 29.1453 6.86025 28.9506 6.53333 28.6552C6.79171 28.2984 7.29084 27.9935 7.9163 27.8209C7.95494 27.1733 8.14965 26.6216 8.445 26.2946C8.80183 26.553 9.10675 27.0522 9.27928 27.6776C9.92692 27.7164 10.4786 27.911 10.8056 28.2063C10.5472 28.5631 10.0481 28.8682 9.42259 29.0408C9.38378 29.6882 9.18924 30.24 8.89389 30.5669ZM12.8763 39.4492C13.2975 39.5786 13.8796 39.522 14.4831 39.2832C14.9036 39.7773 15.391 40.1007 15.8237 40.1842C15.9533 39.763 15.8965 39.1807 15.6579 38.5775C16.1518 38.1568 16.4754 37.6694 16.5587 37.2366C16.1375 37.1073 15.5554 37.1639 14.952 37.4026C14.5313 36.9085 14.0439 36.5851 13.6113 36.5016C13.4818 36.9228 13.5386 37.5051 13.7772 38.1084C13.2832 38.5291 12.9597 39.0164 12.8763 39.4492Z" fill="#354563"/>
</g>
<path d="M22.8431 41.7729L28.1044 43.0939L33.3656 41.7729C34.9285 41.3807 35.9093 39.8315 35.5953 38.251L34.6265 33.3718C34.3454 31.9564 33.1034 30.9368 31.6604 30.9368H24.5485C23.1054 30.9368 21.8633 31.9564 21.5823 33.3718L20.6134 38.251C20.2994 39.8315 21.2802 41.3807 22.8431 41.7729Z" fill="url(#paint0_linear_908_748)"/>
<path d="M26.6737 21.9381C24.9394 20.2039 22.4386 19.7017 20.2552 20.4302C19.5269 22.6133 20.0291 25.1142 21.7634 26.8486C23.4976 28.5829 25.9986 29.085 28.1818 28.3566C28.9103 26.1734 28.4081 23.6726 26.6737 21.9381Z" fill="url(#paint1_linear_908_748)"/>
<path d="M21.8432 22.2847L26.5472 26.9047" stroke="white" stroke-width="0.54" stroke-linecap="round"/>
<path d="M25.0352 23.1249V25.3089" stroke="white" stroke-width="0.54" stroke-linecap="round"/>
<path d="M36.4595 18.6049C34.2763 17.8765 31.7755 18.3787 30.041 20.1131C28.3068 21.8473 27.8046 24.3484 28.5329 26.5315C30.7162 27.26 33.2171 26.7576 34.9513 25.0234C36.6858 23.2891 37.1879 20.7881 36.4595 18.6049Z" fill="white"/>
<path d="M30.6672 24.6715C29.028 25.204 27.9127 26.6001 27.6679 28.1857C28.7979 29.3244 30.5209 29.7983 32.1601 29.2658C33.7992 28.7332 34.9146 27.337 35.1595 25.7516C34.0294 24.6127 32.3064 24.1388 30.6672 24.6715Z" fill="url(#paint2_linear_908_748)"/>
<path d="M33.1832 26.3168L29.5712 27.7448" stroke="white" stroke-width="0.54" stroke-linecap="round"/>
<path d="M31.3352 27.0729L32.6792 27.4929" stroke="white" stroke-width="0.54" stroke-linecap="round"/>
<path d="M27.4181 19.3843C28.454 18.1593 28.776 16.4015 28.1025 14.815C27.4292 13.2285 25.941 12.2391 24.3402 12.1333C23.3043 13.3583 22.9824 15.1161 23.6557 16.7026C24.3292 18.2891 25.8172 19.2785 27.4181 19.3843Z" fill="white"/>
<path d="M34.4432 20.4368L31.0832 23.8808" stroke="#9CEC97" stroke-width="0.54" stroke-linecap="round"/>
<path d="M32.5952 20.2688L32.9312 21.7808" stroke="#9CEC97" stroke-width="0.54" stroke-linecap="round"/>
<path d="M33.8552 22.8728H32.1752" stroke="#9CEC97" stroke-width="0.54" stroke-linecap="round"/>
<path d="M25.2032 14.2208L26.8702 17.8001" stroke="#9CEC97" stroke-width="0.54" stroke-linecap="round"/>
<path d="M25.5392 17.2448H26.5472" stroke="#9CEC97" stroke-width="0.54" stroke-linecap="round"/>
<defs>
<linearGradient id="paint0_linear_908_748" x1="22.5931" y1="29.5691" x2="35.6538" y2="43.0939" gradientUnits="userSpaceOnUse">
<stop stop-color="#FF8298"/>
<stop offset="1" stop-color="#FFA073"/>
</linearGradient>
<linearGradient id="paint1_linear_908_748" x1="17.8001" y1="22.8853" x2="30.637" y2="25.9015" gradientUnits="userSpaceOnUse">
<stop stop-color="#B0E881"/>
<stop offset="1" stop-color="#72F7C5"/>
</linearGradient>
<linearGradient id="paint2_linear_908_748" x1="28.4142" y1="30.4829" x2="34.4131" y2="23.4543" gradientUnits="userSpaceOnUse">
<stop stop-color="#B0E881"/>
<stop offset="1" stop-color="#72F7C5"/>
</linearGradient>
</defs>
</svg>
