<svg width="32" height="32" viewBox="0 0 32 32" fill="none" xmlns="http://www.w3.org/2000/svg">
<path fill-rule="evenodd" clip-rule="evenodd" d="M15.982 4.29251C9.51618 4.29251 4.27456 9.53412 4.27456 16C4.27456 22.4658 9.51618 27.7075 15.982 27.7075C22.4479 27.7075 27.6895 22.4658 27.6895 16C27.6895 15.4802 28.1109 15.0588 28.6307 15.0588C29.1505 15.0588 29.5719 15.4802 29.5719 16C29.5719 23.5054 23.4875 29.5898 15.982 29.5898C8.47658 29.5898 2.39221 23.5054 2.39221 16C2.39221 8.49453 8.47658 2.41016 15.982 2.41016C18.1499 2.41016 20.2018 2.91847 22.0225 3.82328C22.488 4.05461 22.6778 4.61948 22.4465 5.08497C22.2152 5.55046 21.6503 5.74028 21.1848 5.50895C19.6186 4.73061 17.8528 4.29251 15.982 4.29251ZM29.9989 5.49675C30.3665 5.8643 30.3665 6.46022 29.9989 6.82777L16.6477 20.179C16.4712 20.3555 16.2318 20.4546 15.9822 20.4546C15.7326 20.4546 15.4932 20.3555 15.3167 20.179L8.9922 13.8545C8.62465 13.487 8.62465 12.891 8.9922 12.5235C9.35975 12.1559 9.95567 12.1559 10.3232 12.5235L15.9822 18.1824L28.6679 5.49675C29.0354 5.1292 29.6314 5.1292 29.9989 5.49675Z" fill="white"/>
</svg>
