<svg width="32" height="32" viewBox="0 0 32 32" fill="none" xmlns="http://www.w3.org/2000/svg">
<path fill-rule="evenodd" clip-rule="evenodd" d="M16.0014 11.0439C16.5902 11.0439 17.0676 11.5028 17.0676 12.0688V18.6063C17.0676 19.1724 16.5902 19.6312 16.0014 19.6312C15.4125 19.6312 14.9351 19.1724 14.9351 18.6063V12.0688C14.9351 11.5028 15.4125 11.0439 16.0014 11.0439Z" fill="white"/>
<path fill-rule="evenodd" clip-rule="evenodd" d="M16.0013 4.71641C14.9364 4.71641 13.6327 5.41909 12.5268 7.33629L4.2841 21.5879C3.25458 23.3728 3.30434 24.7698 3.84778 25.6598C4.39061 26.5487 5.63289 27.2702 7.75857 27.2702H16.0013C16.0594 27.2702 16.1164 27.2747 16.172 27.2833H24.244C26.3617 27.2833 27.6053 26.5625 28.1502 25.672C28.6952 24.7814 28.7472 23.3844 27.7184 21.601L19.4763 7.33715C18.3703 5.41995 17.0661 4.71641 16.0013 4.71641ZM15.8305 29.3201H7.75857C5.16442 29.3201 3.06066 28.4202 2.00868 26.6975C0.957298 24.9757 1.16348 22.7707 2.41907 20.5939L10.6618 6.34219C11.9769 4.06286 13.87 2.6665 16.0013 2.6665C18.1326 2.6665 20.0251 4.062 21.3403 6.34133L29.5832 20.6065C30.8396 22.7847 31.0414 24.9903 29.9883 26.7114C28.9349 28.4327 26.8324 29.3332 24.244 29.3332H16.0013C15.9431 29.3332 15.8861 29.3287 15.8305 29.3201Z" fill="white"/>
<path fill-rule="evenodd" clip-rule="evenodd" d="M14.6339 22.5288C14.6339 21.8067 15.2428 21.2213 15.9941 21.2213H16.0063C16.7575 21.2213 17.3665 21.8067 17.3665 22.5288C17.3665 23.2509 16.7575 23.8362 16.0063 23.8362H15.9941C15.2428 23.8362 14.6339 23.2509 14.6339 22.5288Z" fill="white"/>
</svg>
