<svg width="24" height="24" viewBox="0 0 24 24" fill="none" xmlns="http://www.w3.org/2000/svg">
<path fill-rule="evenodd" clip-rule="evenodd" d="M11.5968 1.58356C11.8505 1.45652 12.1491 1.45652 12.4028 1.58356C15.9481 3.35913 19.2488 5.55021 22.241 8.0928C22.4896 8.30408 22.6045 8.63337 22.5411 8.95345C22.4778 9.27351 22.246 9.53421 21.9357 9.6348C18.5586 10.7292 15.3894 12.2863 12.5028 14.2315C12.1988 14.4363 11.8009 14.4363 11.4969 14.2315C10.6863 13.6853 9.85335 13.1696 8.99982 12.6863V11.2738C8.99982 10.9815 9.13872 10.7185 9.36183 10.5639C10.6355 9.68109 11.9595 8.86602 13.3287 8.12383C13.7657 7.88696 13.9279 7.34068 13.691 6.9037C13.4541 6.46671 12.9079 6.30448 12.471 6.54136C11.0437 7.31498 9.66376 8.1645 8.33644 9.08448C7.61121 9.58714 7.19982 10.4122 7.19982 11.2738V11.7301C5.55236 10.9113 3.83682 10.2093 2.06397 9.6348C1.75358 9.53421 1.52194 9.27351 1.45857 8.95345C1.39519 8.63337 1.51002 8.30408 1.75866 8.0928C4.75087 5.55021 8.05152 3.35913 11.5968 1.58356ZM7.19982 13.7527C6.24235 13.2465 5.25942 12.7824 4.25348 12.3626C4.05118 13.5933 3.89456 14.8394 3.78542 16.0992C3.75325 16.4705 3.95328 16.8233 4.28847 16.9862C4.92199 17.2943 5.54378 17.6228 6.15296 17.9709C5.90251 18.3596 5.6071 18.7278 5.26674 19.0681C4.91527 19.4196 4.91527 19.9895 5.26674 20.3408C5.61822 20.6923 6.18806 20.6923 6.53953 20.3408C6.98311 19.8973 7.36672 19.4163 7.69036 18.9081C8.99796 19.7569 10.2394 20.6993 11.4051 21.7256C11.7451 22.025 12.2546 22.025 12.5946 21.7256C14.732 19.8438 17.1237 18.2445 19.7113 16.9862C20.0465 16.8233 20.2465 16.4705 20.2143 16.0992C20.1051 14.8394 19.9485 13.5933 19.7462 12.3625C17.5488 13.2795 15.4611 14.4085 13.5087 15.7242C12.5967 16.3388 11.403 16.3388 10.491 15.7242C9.99972 15.3932 9.49988 15.0739 8.9919 14.7669C8.92924 16.2114 8.49534 17.6441 7.69036 18.9081C7.1875 18.5817 6.67485 18.2691 6.15296 17.9709C6.85092 16.8878 7.19982 15.6452 7.19982 14.4012V13.7527Z" fill="#0F172A"/>
</svg>
