<svg width="24" height="24" viewBox="0 0 24 24" fill="none" xmlns="http://www.w3.org/2000/svg">
<path d="M20.3996 3.29844C20.3996 2.80139 19.9966 2.39844 19.4996 2.39844C19.0026 2.39844 18.5996 2.80139 18.5996 3.29844V9.89844C18.5996 10.3955 19.0026 10.7984 19.4996 10.7984C19.9966 10.7984 20.3996 10.3955 20.3996 9.89844V3.29844Z" fill="#0F172A"/>
<path d="M20.3996 18.9C20.3996 18.403 19.9966 18 19.4996 18C19.0026 18 18.5996 18.403 18.5996 18.9V20.7C18.5996 21.197 19.0026 21.6 19.4996 21.6C19.9966 21.6 20.3996 21.197 20.3996 20.7V18.9Z" fill="#0F172A"/>
<path d="M4.49961 18C4.99666 18 5.39961 18.403 5.39961 18.9V20.7C5.39961 21.197 4.99666 21.6 4.49961 21.6C4.00256 21.6 3.59961 21.197 3.59961 20.7V18.9C3.59961 18.403 4.00256 18 4.49961 18Z" fill="#0F172A"/>
<path d="M5.39961 3.29844C5.39961 2.80139 4.99666 2.39844 4.49961 2.39844C4.00256 2.39844 3.59961 2.80139 3.59961 3.29844V9.89844C3.59961 10.3955 4.00256 10.7984 4.49961 10.7984C4.99666 10.7984 5.39961 10.3955 5.39961 9.89844V3.29844Z" fill="#0F172A"/>
<path d="M11.9996 13.1992C12.4966 13.1992 12.8996 13.6022 12.8996 14.0992V20.6992C12.8996 21.1963 12.4966 21.5992 11.9996 21.5992C11.5026 21.5992 11.0996 21.1963 11.0996 20.6992V14.0992C11.0996 13.6022 11.5026 13.1992 11.9996 13.1992Z" fill="#0F172A"/>
<path d="M12.8996 3.29844C12.8996 2.80139 12.4966 2.39844 11.9996 2.39844C11.5026 2.39844 11.0996 2.80139 11.0996 3.29844V5.09844C11.0996 5.59549 11.5026 5.99844 11.9996 5.99844C12.4966 5.99844 12.8996 5.59549 12.8996 5.09844V3.29844Z" fill="#0F172A"/>
<path d="M11.9996 7.19922C10.6741 7.19922 9.59961 8.27373 9.59961 9.59922C9.59961 10.9247 10.6741 11.9992 11.9996 11.9992C13.3251 11.9992 14.3996 10.9247 14.3996 9.59922C14.3996 8.27373 13.3251 7.19922 11.9996 7.19922Z" fill="#0F172A"/>
<path d="M4.49961 12C3.17413 12 2.09961 13.0745 2.09961 14.4C2.09961 15.7255 3.17413 16.8 4.49961 16.8C5.82509 16.8 6.89961 15.7255 6.89961 14.4C6.89961 13.0745 5.82509 12 4.49961 12Z" fill="#0F172A"/>
<path d="M19.4996 12C18.1741 12 17.0996 13.0745 17.0996 14.4C17.0996 15.7255 18.1741 16.8 19.4996 16.8C20.8251 16.8 21.8996 15.7255 21.8996 14.4C21.8996 13.0745 20.8251 12 19.4996 12Z" fill="#0F172A"/>
</svg>
