<svg width="24" height="24" viewBox="0 0 24 24" fill="none" xmlns="http://www.w3.org/2000/svg">
<path d="M11.9992 4.50156C11.9992 3.17608 10.9247 2.10156 9.59922 2.10156C8.27373 2.10156 7.19922 3.17608 7.19922 4.50156C7.19922 5.82705 8.27373 6.90156 9.59922 6.90156C10.9247 6.90156 11.9992 5.82705 11.9992 4.50156Z" fill="#0F172A"/>
<path d="M20.6992 5.40156C21.1963 5.40156 21.5992 4.99861 21.5992 4.50156C21.5992 4.00451 21.1963 3.60156 20.6992 3.60156H14.0992C13.6022 3.60156 13.1992 4.00451 13.1992 4.50156C13.1992 4.99861 13.6022 5.40156 14.0992 5.40156H20.6992Z" fill="#0F172A"/>
<path d="M6.00039 4.50156C6.00039 4.99861 5.59744 5.40156 5.10039 5.40156H3.30039C2.80334 5.40156 2.40039 4.99861 2.40039 4.50156C2.40039 4.00451 2.80334 3.60156 3.30039 3.60156H5.10039C5.59744 3.60156 6.00039 4.00451 6.00039 4.50156Z" fill="#0F172A"/>
<path d="M5.10039 20.4016C5.59744 20.4016 6.00039 19.9986 6.00039 19.5016C6.00039 19.0045 5.59744 18.6016 5.10039 18.6016H3.30039C2.80334 18.6016 2.40039 19.0045 2.40039 19.5016C2.40039 19.9986 2.80334 20.4016 3.30039 20.4016H5.10039Z" fill="#0F172A"/>
<path d="M20.6992 20.4016C21.1963 20.4016 21.5992 19.9986 21.5992 19.5016C21.5992 19.0045 21.1963 18.6016 20.6992 18.6016H14.0992C13.6022 18.6016 13.1992 19.0045 13.1992 19.5016C13.1992 19.9986 13.6022 20.4016 14.0992 20.4016H20.6992Z" fill="#0F172A"/>
<path d="M10.8004 12.0016C10.8004 12.4986 10.3974 12.9016 9.90039 12.9016H3.30039C2.80334 12.9016 2.40039 12.4986 2.40039 12.0016C2.40039 11.5045 2.80334 11.1016 3.30039 11.1016H9.90039C10.3974 11.1016 10.8004 11.5045 10.8004 12.0016Z" fill="#0F172A"/>
<path d="M20.7 12.9016C21.197 12.9016 21.6 12.4986 21.6 12.0016C21.6 11.5045 21.197 11.1016 20.7 11.1016H18.9C18.403 11.1016 18 11.5045 18 12.0016C18 12.4986 18.403 12.9016 18.9 12.9016H20.7Z" fill="#0F172A"/>
<path d="M16.8 12.0016C16.8 10.6761 15.7255 9.60156 14.4 9.60156C13.0745 9.60156 12 10.6761 12 12.0016C12 13.3271 13.0745 14.4016 14.4 14.4016C15.7255 14.4016 16.8 13.3271 16.8 12.0016Z" fill="#0F172A"/>
<path d="M11.9992 19.5016C11.9992 18.176 10.9247 17.1016 9.59922 17.1016C8.27373 17.1016 7.19922 18.176 7.19922 19.5016C7.19922 20.8271 8.27373 21.9016 9.59922 21.9016C10.9247 21.9016 11.9992 20.8271 11.9992 19.5016Z" fill="#0F172A"/>
</svg>
