<svg width="24" height="24" viewBox="0 0 24 24" fill="none" xmlns="http://www.w3.org/2000/svg">
<path d="M14.1297 11.3425C14.5197 9.70248 13.0898 8.27247 11.4497 8.66247C10.6797 8.85248 10.0497 9.48248 9.85974 10.2525C9.46974 11.8925 10.8997 13.3225 12.5397 12.9325C13.3197 12.7425 13.9497 12.1125 14.1297 11.3425Z" fill="white"/>
<path d="M6.01899 17.97C5.83899 17.97 5.64899 17.9 5.50899 17.77C3.56898 15.97 2.45898 13.43 2.45898 10.79C2.45898 5.53001 6.73899 1.25 11.999 1.25C17.2591 1.25 21.539 5.53001 21.539 10.79C21.539 13.45 20.4691 15.91 18.529 17.74C18.229 18.02 17.749 18.01 17.4691 17.71C17.189 17.41 17.1991 16.93 17.4991 16.65C19.139 15.11 20.039 13.04 20.039 10.8C20.039 6.37 16.429 2.76 11.999 2.76C7.56899 2.76 3.95898 6.37 3.95898 10.8C3.95898 13.06 4.86899 15.14 6.52899 16.68C6.82899 16.96 6.84899 17.44 6.56898 17.74C6.41898 17.89 6.21899 17.97 6.01899 17.97Z" fill="white"/>
<path d="M15.9995 15.3024C15.8195 15.3024 15.6295 15.2324 15.4895 15.1025C15.1895 14.8224 15.1695 14.3424 15.4595 14.0424C16.2895 13.1624 16.7495 12.0024 16.7495 10.8025C16.7495 8.1825 14.6195 6.0625 12.0095 6.0625C9.39953 6.0625 7.26953 8.1925 7.26953 10.8025C7.26953 12.0125 7.72953 13.1624 8.55953 14.0424C8.83953 14.3424 8.82953 14.8224 8.52953 15.1025C8.22953 15.3924 7.74953 15.3725 7.46952 15.0725C6.37953 13.9124 5.76953 12.3924 5.76953 10.8025C5.76953 7.3625 8.56953 4.5625 12.0095 4.5625C15.4495 4.5625 18.2495 7.3625 18.2495 10.8025C18.2495 12.3924 17.6495 13.9124 16.5495 15.0725C16.3995 15.2225 16.1995 15.3024 15.9995 15.3024Z" fill="white"/>
<path d="M10.3009 16.66L8.86086 18.45C7.72086 19.88 8.74087 22 10.5609 22H13.4308C15.2608 22 16.2808 19.88 15.1309 18.46L13.6909 16.67C12.8308 15.57 11.1709 15.57 10.3009 16.66Z" fill="white"/>
</svg>
