<svg width="24" height="24" viewBox="0 0 24 24" fill="none" xmlns="http://www.w3.org/2000/svg">
<path d="M20.0486 10.6285L15.3786 8.61859L14.3386 8.1786C14.1786 8.0986 14.0386 7.8886 14.0386 7.7086V4.6486C14.0386 3.6886 13.3286 2.5486 12.4686 2.10859C12.1686 1.95859 11.8086 1.95859 11.5086 2.10859C10.6586 2.5486 9.94859 3.69859 9.94859 4.65859V7.71859C9.94859 7.89859 9.80859 8.10859 9.64859 8.1886L3.94859 10.6385C3.31859 10.8985 2.80859 11.6885 2.80859 12.3686V13.6886C2.80859 14.5385 3.44859 14.9585 4.2386 14.6186L9.2486 12.4586C9.6386 12.2885 9.95859 12.4985 9.95859 12.9285V14.0385V15.8385C9.95859 16.0685 9.82859 16.3985 9.6686 16.5585L7.34859 18.8885C7.10859 19.1285 6.9986 19.5986 7.10859 19.9385L7.55859 21.2985C7.73859 21.8885 8.4086 22.1685 8.95859 21.8885L11.3386 19.8885C11.6986 19.5785 12.2886 19.5785 12.6486 19.8885L15.0286 21.8885C15.5786 22.1585 16.2486 21.8885 16.4486 21.2985L16.8986 19.9385C17.0086 19.6085 16.8986 19.1285 16.6586 18.8885L14.3386 16.5585C14.1686 16.3985 14.0386 16.0685 14.0386 15.8385V12.9285C14.0386 12.4985 14.3486 12.2985 14.7486 12.4586L19.7586 14.6186C20.5486 14.9585 21.1886 14.5385 21.1886 13.6886V12.3686C21.1886 11.6885 20.6786 10.8985 20.0486 10.6285Z" fill="white"/>
</svg>
