<svg width="24" height="24" viewBox="0 0 24 24" fill="none" xmlns="http://www.w3.org/2000/svg">
<path d="M15.0799 11.3419H8.92C8.27999 11.3419 7.64999 11.0819 7.19999 10.6219C7.06 10.4819 6.94 10.3319 6.83999 10.1619C6.65999 9.86188 6.34 9.67188 5.99 9.67188H3.5C2.95 9.67188 2.5 10.1219 2.5 10.6719V17.5019C2.5 19.9919 4.51 22.0019 7 22.0019H16.9999C19.4899 22.0019 21.4999 19.9919 21.4999 17.5019V10.6719C21.4999 10.1219 21.0499 9.67188 20.5 9.67188H18C17.64 9.67188 17.32 9.87188 17.14 10.1819C16.72 10.8719 15.9499 11.3419 15.0799 11.3419Z" fill="white"/>
<path d="M16.9999 2H7C4.51 2 2.5 4.01 2.5 6.5V7.17C2.5 7.72 2.95 8.17 3.5 8.17H5.99999C6.35999 8.17 6.68 7.97 6.86 7.66C7.28 6.97 8.05 6.5 8.92 6.5H14.91C15.52 6.5 16.3999 6.82 16.8199 7.25C16.95 7.38 17.05 7.52 17.1499 7.67C17.3299 7.97 17.65 8.17 18.01 8.17H20.5099C21.06 8.17 21.51 7.72 21.51 7.17V6.5C21.4999 4.01 19.4899 2 16.9999 2Z" fill="white"/>
</svg>
