<svg width="24" height="24" viewBox="0 0 24 24" fill="none" xmlns="http://www.w3.org/2000/svg">
<path d="M22.0001 21.25H21V15C21 10.03 16.97 6 12 6C7.03 6 3.00001 10.03 3.00001 15V21.25H2C1.59001 21.25 1.25 21.59 1.25 22C1.25 22.41 1.59001 22.75 2 22.75H22.0001C22.41 22.75 22.7501 22.41 22.7501 22C22.7501 21.59 22.41 21.25 22.0001 21.25Z" fill="white"/>
<path d="M12 3.75C11.59 3.75 11.25 3.41 11.25 3V2C11.25 1.59 11.59 1.25 12 1.25C12.41 1.25 12.75 1.59 12.75 2V3C12.75 3.41 12.41 3.75 12 3.75Z" fill="white"/>
<path d="M5.00141 5.75141C4.8114 5.75141 4.62141 5.6814 4.47141 5.5314L3.47141 4.53141C3.18141 4.2414 3.18141 3.7614 3.47141 3.47141C3.7614 3.18141 4.2414 3.18141 4.53141 3.47141L5.5314 4.47141C5.82141 4.76141 5.82141 5.24141 5.5314 5.5314C5.3814 5.6814 5.19141 5.75141 5.00141 5.75141Z" fill="white"/>
<path d="M19.0015 5.75141C18.8114 5.75141 18.6214 5.6814 18.4714 5.5314C18.1814 5.24141 18.1814 4.76141 18.4714 4.47141L19.4714 3.47141C19.7614 3.18141 20.2414 3.18141 20.5315 3.47141C20.8214 3.7614 20.8214 4.2414 20.5315 4.53141L19.5314 5.5314C19.3814 5.6814 19.1914 5.75141 19.0015 5.75141Z" fill="white"/>
</svg>
