<svg width="24" height="24" viewBox="0 0 24 24" fill="none" xmlns="http://www.w3.org/2000/svg">
<path d="M17.4 19.2501H6.6C5.1 19.2501 4.5 18.61 4.5 17.02V15.9801C4.5 14.3901 5.1 13.75 6.6 13.75H17.4C18.9 13.75 19.5 14.3901 19.5 15.9801V17.02C19.5 18.61 18.9 19.2501 17.4 19.2501Z" fill="white"/>
<path d="M12.75 19.25V21.2499C12.75 21.66 12.41 21.9999 12 21.9999C11.59 21.9999 11.25 21.66 11.25 21.2499V19.25H12.75Z" fill="white"/>
<path d="M12.75 10.75H11.25V13.75H12.75V10.75Z" fill="white"/>
<path d="M12.75 2.75V5.25H11.25V2.75C11.25 2.34 11.59 2 12 2C12.41 2 12.75 2.34 12.75 2.75Z" fill="white"/>
<path d="M15.4001 10.75H8.6C7.1 10.75 6.5 10.11 6.5 8.52V7.48C6.5 5.89 7.1 5.25 8.6 5.25H15.4001C16.9001 5.25 17.5001 5.89 17.5001 7.48V8.52C17.5001 10.11 16.9001 10.75 15.4001 10.75Z" fill="white"/>
</svg>
