<svg width="24" height="24" viewBox="0 0 24 24" fill="none" xmlns="http://www.w3.org/2000/svg">
<path d="M19.3809 15.9801V17.02C19.3809 18.61 18.7809 19.2501 17.2609 19.2501H5.38086V13.75H17.2609C18.7809 13.75 19.3809 14.3901 19.3809 15.9801Z" fill="white"/>
<path d="M14.3809 7.48V8.52C14.3809 10.11 13.7709 10.75 12.2608 10.75H5.38086V5.25H12.2608C13.7709 5.25 14.3809 5.89 14.3809 7.48Z" fill="white"/>
<path d="M5.38107 22C4.97107 22 4.63107 21.66 4.63107 21.25V2.75C4.62107 2.33 4.96107 2 5.38107 2C5.80107 2 6.13107 2.34 6.13107 2.75V21.25C6.12107 21.66 5.79107 22 5.38107 22Z" fill="white"/>
</svg>
