<svg width="24" height="24" viewBox="0 0 24 24" fill="none" xmlns="http://www.w3.org/2000/svg">
<path d="M15.98 19.3829H17.02C18.61 19.3829 19.25 18.7829 19.25 17.2628V5.38281H13.75V17.2628C13.76 18.7829 14.4 19.3829 15.98 19.3829Z" fill="white"/>
<path d="M7.48 14.3828H8.52C10.11 14.3828 10.75 13.7729 10.75 12.2628V5.38281H5.25V12.2628C5.26 13.7729 5.9 14.3828 7.48 14.3828Z" fill="white"/>
<path d="M21.2501 6.1228H2.75C2.34001 6.1228 2 5.7928 2 5.38281C2 4.97281 2.34001 4.63281 2.75 4.63281H21.2501C21.66 4.63281 22.0001 4.97281 22.0001 5.38281C22.0001 5.7928 21.66 6.1228 21.2501 6.1228Z" fill="white"/>
</svg>
