<svg width="24" height="24" viewBox="0 0 24 24" fill="none" xmlns="http://www.w3.org/2000/svg">
<path d="M4.62109 15.9801V17.02C4.62109 18.61 5.22109 19.2501 6.74109 19.2501H18.621V13.75H6.74109C5.22109 13.75 4.62109 14.3901 4.62109 15.9801Z" fill="white"/>
<path d="M9.61914 7.48V8.52C9.61914 10.11 10.2291 10.75 11.7391 10.75H18.6191V5.25H11.7391C10.2291 5.25 9.61914 5.89 9.61914 7.48Z" fill="white"/>
<path d="M18.6191 22C18.2091 22 17.8691 21.66 17.8691 21.25V2.75C17.8691 2.34 18.2091 2 18.6191 2C19.0292 2 19.3691 2.34 19.3691 2.75V21.25C19.3791 21.66 19.0391 22 18.6191 22Z" fill="white"/>
</svg>
