<svg width="24" height="24" viewBox="0 0 24 24" fill="none" xmlns="http://www.w3.org/2000/svg">
<path d="M20.8894 10.5303C20.4794 10.5303 20.1394 10.1903 20.1394 9.78033V6.91032L11.9995 2.84032L3.85938 6.91032V9.78033C3.85938 10.1903 3.51937 10.5303 3.10938 10.5303C2.69937 10.5303 2.35938 10.1903 2.35938 9.78033V6.45031C2.35938 6.17032 2.51942 5.91033 2.77942 5.78032L11.6694 1.34031C11.8794 1.23031 12.1294 1.23031 12.3394 1.34031L21.2294 5.78032C21.4795 5.91033 21.6494 6.17032 21.6494 6.45031V9.78033C21.6394 10.1903 21.2995 10.5303 20.8894 10.5303Z" fill="white"/>
<path d="M11.9995 22.7505C11.8794 22.7505 11.7694 22.7205 11.6694 22.6704L2.77942 18.2304C2.52943 18.1005 2.35938 17.8404 2.35938 17.5605V14.2305C2.35938 13.8204 2.69937 13.4805 3.10938 13.4805C3.51937 13.4805 3.85938 13.8204 3.85938 14.2305V17.1004L11.9995 21.1704L20.1394 17.1004V14.2305C20.1394 13.8204 20.4794 13.4805 20.8894 13.4805C21.2995 13.4805 21.6394 13.8204 21.6394 14.2305V17.5605C21.6394 17.8404 21.4793 18.1005 21.2193 18.2304L12.3295 22.6704C12.2294 22.7205 12.1195 22.7505 11.9995 22.7505Z" fill="white"/>
<path d="M16.4405 12.0024C16.4405 9.5525 14.4506 7.5625 12.0006 7.5625C9.55055 7.5625 7.56055 9.5525 7.56055 12.0024C7.56055 14.2025 9.17058 16.0224 11.2706 16.3724C11.2706 16.4024 11.2606 16.4226 11.2606 16.4425V22.0025C11.2606 22.4124 11.6006 22.7525 12.0106 22.7525C12.4205 22.7525 12.7606 22.4124 12.7606 22.0025V16.4425C12.7606 16.4125 12.7505 16.3925 12.7505 16.3724C14.8406 16.0224 16.4405 14.2025 16.4405 12.0024Z" fill="white"/>
</svg>
