<svg width="24" height="24" viewBox="0 0 24 24" fill="none" xmlns="http://www.w3.org/2000/svg">
<path fill-rule="evenodd" clip-rule="evenodd" d="M19.1 19.16C19.6901 18.26 19.91 17.8 20.36 16.79C17.0401 15.53 16.5101 10.8 19.79 8.99C18.7901 7.73 17.3801 7 16.0501 7C15.0901 7 14.4301 7.25001 13.8401 7.48001C13.34 7.67001 12.89 7.84 12.3301 7.84C11.7301 7.84 11.2001 7.65002 10.6401 7.45001C10.0301 7.23002 9.39006 7 8.59006 7C7.10005 7 5.51006 7.91 4.50007 9.47C3.08006 11.67 3.33007 15.79 5.62007 19.31C6.44006 20.57 7.54007 21.98 8.97007 22C9.57007 22.01 9.96007 21.83 10.3901 21.64C10.8801 21.42 11.4101 21.18 12.3401 21.18C13.2701 21.17 13.79 21.42 14.2801 21.64C14.7001 21.83 15.08 22.01 15.6701 22C17.12 21.98 18.2801 20.42 19.1 19.16Z" fill="white"/>
<path fill-rule="evenodd" clip-rule="evenodd" d="M15.8405 2C16.0005 3.1 15.5505 4.19001 14.9604 4.95001C14.3304 5.77 13.2305 6.41 12.1704 6.37C11.9805 5.31 12.4704 4.21999 13.0704 3.48999C13.7405 2.68999 14.8704 2.07 15.8405 2Z" fill="white"/>
</svg>
