<svg width="24" height="24" viewBox="0 0 24 24" fill="none" xmlns="http://www.w3.org/2000/svg">
<path d="M2.39922 3.60156C1.73648 3.60156 1.19922 4.13883 1.19922 4.80156V6.00156C1.19922 6.6643 1.73648 7.20156 2.39922 7.20156H21.5992C22.262 7.20156 22.7992 6.6643 22.7992 6.00156V4.80156C22.7992 4.13883 22.262 3.60156 21.5992 3.60156H2.39922Z" fill="#0F172A"/>
<path fill-rule="evenodd" clip-rule="evenodd" d="M2.40039 9H21.6004L20.6266 18.2513C20.498 19.4728 19.468 20.4 18.2398 20.4H5.76101C4.5328 20.4 3.50278 19.4728 3.3742 18.2513L2.40039 9ZM8.66399 11.0636C9.01546 10.7121 9.58532 10.7121 9.93679 11.0636L12.0004 13.1272L14.064 11.0636C14.4155 10.7121 14.9853 10.7121 15.3368 11.0636C15.6882 11.4151 15.6882 11.9849 15.3368 12.3364L13.2732 14.4L15.3368 16.4636C15.6882 16.8151 15.6882 17.3849 15.3368 17.7364C14.9853 18.0878 14.4155 18.0878 14.064 17.7364L12.0004 15.6728L9.93679 17.7364C9.58532 18.0878 9.01546 18.0878 8.66399 17.7364C8.31253 17.3849 8.31253 16.8151 8.66399 16.4636L10.7276 14.4L8.66399 12.3364C8.31253 11.9849 8.31253 11.4151 8.66399 11.0636Z" fill="#0F172A"/>
</svg>
