<svg width="24" height="24" viewBox="0 0 24 24" fill="none" xmlns="http://www.w3.org/2000/svg">
<path fill-rule="evenodd" clip-rule="evenodd" d="M2.39922 3.60156C1.73648 3.60156 1.19922 4.13883 1.19922 4.80156V6.00156C1.19922 6.6643 1.73648 7.20156 2.39922 7.20156H21.5992C22.262 7.20156 22.7992 6.6643 22.7992 6.00156V4.80156C22.7992 4.13883 22.262 3.60156 21.5992 3.60156H2.39922ZM2.39922 9.00156H21.5992L20.6254 18.2528C20.4968 19.4743 19.4668 20.4016 18.2386 20.4016H5.75984C4.53163 20.4016 3.50161 19.4743 3.37303 18.2528L2.39922 9.00156ZM11.9992 10.8016C12.4963 10.8016 12.8992 11.2045 12.8992 11.7016V14.7562L14.0302 13.4995C14.3627 13.13 14.9318 13.1 15.3013 13.4326C15.6707 13.7651 15.7007 14.3341 15.3682 14.7036L12.6682 17.7036C12.4975 17.8933 12.2543 18.0016 11.9992 18.0016C11.7441 18.0016 11.5009 17.8933 11.3303 17.7036L8.63026 14.7036C8.29774 14.3341 8.32769 13.7651 8.69716 13.4326C9.06661 13.1 9.63568 13.13 9.96818 13.4995L11.0992 14.7562V11.7016C11.0992 11.2045 11.5022 10.8016 11.9992 10.8016Z" fill="#0F172A"/>
</svg>
