<svg width="24" height="24" viewBox="0 0 24 24" fill="none" xmlns="http://www.w3.org/2000/svg">
<path d="M20.1203 3.88L3.39031 20.61C3.34032 20.41 3.32031 20.19 3.32031 19.95V5.86C3.32031 3.74 5.05032 2 7.18032 2H16.8203C18.2204 2 19.4504 2.75 20.1203 3.88Z" fill="white"/>
<path d="M21.7708 2.23282C21.4708 1.93281 20.9809 1.93281 20.6809 2.23282L2.23086 20.6928C1.93086 20.9928 1.93086 21.4829 2.23086 21.7829C2.38086 21.9228 2.57086 22.0028 2.77086 22.0028C2.97086 22.0028 3.16086 21.9228 3.31086 21.7728L21.7708 3.31282C22.0809 3.01281 22.0809 2.53282 21.7708 2.23282Z" fill="white"/>
<path d="M19.2903 7.71054L11.9002 15.1006C11.4401 15.5605 11.5301 16.3306 12.0902 16.6606L19.4801 21.0905C20.1502 21.4906 20.9902 21.0106 20.9902 20.2306V8.41055C21.0002 7.52054 19.9203 7.08054 19.2903 7.71054Z" fill="white"/>
</svg>
