<svg width="24" height="24" viewBox="0 0 24 24" fill="none" xmlns="http://www.w3.org/2000/svg">
<path d="M14.9303 2.5V8.4C14.9303 8.84 14.4103 9.06 14.0903 8.77L12.3403 7.16C12.1504 6.98 11.8503 6.98 11.6603 7.16L9.91031 8.76C9.59032 9.06 9.07031 8.83 9.07031 8.4V2.5C9.07031 2.22 9.29032 2 9.57032 2H14.4304C14.7103 2 14.9303 2.22 14.9303 2.5Z" fill="white"/>
<path d="M16.98 2.06282C16.69 2.02282 16.43 2.27282 16.43 2.56282V8.58282C16.43 9.34282 15.98 10.0329 15.28 10.3429C14.58 10.6429 13.77 10.5129 13.21 9.99283L12.34 9.19282C12.15 9.01282 11.86 9.01282 11.66 9.19282L10.79 9.99283C10.43 10.3329 9.96 10.5029 9.49 10.5029C9.23 10.5029 8.97 10.4529 8.72 10.3429C8.02 10.0329 7.57 9.34282 7.57 8.58282V2.56282C7.57 2.27282 7.31 2.02282 7.02 2.06282C4.22 2.41282 3 4.30282 3 7.00282V17.0029C3 20.0029 4.5 22.0029 8 22.0029H16C19.5 22.0029 21 20.0029 21 17.0029V7.00282C21 4.30282 19.78 2.41282 16.98 2.06282ZM17.5 18.7528H9C8.59 18.7528 8.25 18.4129 8.25 18.0028C8.25 17.5929 8.59 17.2528 9 17.2528H17.5C17.91 17.2528 18.25 17.5929 18.25 18.0028C18.25 18.4129 17.91 18.7528 17.5 18.7528ZM17.5 14.7529H13.25C12.84 14.7529 12.5 14.4129 12.5 14.0029C12.5 13.5928 12.84 13.2529 13.25 13.2529H17.5C17.91 13.2529 18.25 13.5928 18.25 14.0029C18.25 14.4129 17.91 14.7529 17.5 14.7529Z" fill="white"/>
</svg>
