<svg width="24" height="24" viewBox="0 0 24 24" fill="none" xmlns="http://www.w3.org/2000/svg">
<path d="M2.39922 3.60156C1.73648 3.60156 1.19922 4.13883 1.19922 4.80156V6.00156C1.19922 6.6643 1.73648 7.20156 2.39922 7.20156H21.5992C22.262 7.20156 22.7992 6.6643 22.7992 6.00156V4.80156C22.7992 4.13883 22.262 3.60156 21.5992 3.60156H2.39922Z" fill="#0F172A"/>
<path fill-rule="evenodd" clip-rule="evenodd" d="M2.40039 9H21.6004L20.6266 18.2513C20.498 19.4728 19.468 20.4 18.2398 20.4H5.76101C4.5328 20.4 3.50278 19.4728 3.3742 18.2513L2.40039 9ZM8.40039 13.2C8.40039 12.5372 8.93765 12 9.60039 12H14.4004C15.0632 12 15.6004 12.5372 15.6004 13.2C15.6004 13.8628 15.0632 14.4 14.4004 14.4H9.60039C8.93765 14.4 8.40039 13.8628 8.40039 13.2Z" fill="#0F172A"/>
</svg>
