<svg width="24" height="24" viewBox="0 0 24 24" fill="none" xmlns="http://www.w3.org/2000/svg">
<path d="M16.8203 1.91406H7.18032C5.06031 1.91406 3.32031 3.65406 3.32031 5.77407V19.8641C3.32031 21.6641 4.61031 22.4242 6.19032 21.5542L11.0703 18.8441C11.5903 18.5542 12.4304 18.5542 12.9404 18.8441L17.8203 21.5542C19.4003 22.4341 20.6903 21.6742 20.6903 19.8641V5.77407C20.6804 3.65406 18.9503 1.91406 16.8203 1.91406ZM15.6203 9.03406L11.6203 13.0342C11.4703 13.1842 11.2803 13.2541 11.0903 13.2541C10.9003 13.2541 10.7103 13.1842 10.5603 13.0342L9.06031 11.5341C8.77032 11.2441 8.77032 10.7641 9.06031 10.4741C9.35031 10.1841 9.83031 10.1841 10.1203 10.4741L11.0903 11.4441L14.5604 7.97406C14.8503 7.68406 15.3303 7.68406 15.6203 7.97406C15.9104 8.26407 15.9104 8.74407 15.6203 9.03406Z" fill="white"/>
</svg>
