<svg width="24" height="24" viewBox="0 0 24 24" fill="none" xmlns="http://www.w3.org/2000/svg">
<path fill-rule="evenodd" clip-rule="evenodd" d="M11.9992 18C11.5022 18 11.0992 17.597 11.0992 17.1V9.1345L8.74797 11.7238C8.40345 12.0821 7.83372 12.0932 7.47542 11.7487C7.11713 11.4042 7.10595 10.8345 7.45047 10.4762L11.3505 6.2762C11.5202 6.09973 11.7544 6 11.9992 6C12.244 6 12.4783 6.09973 12.6479 6.2762L16.5479 10.4762C16.8925 10.8345 16.8813 11.4042 16.523 11.7487C16.1648 12.0932 15.595 12.0821 15.2505 11.7238L12.8992 9.1345V17.1C12.8992 17.597 12.4963 18 11.9992 18Z" fill="#0F172A"/>
</svg>
