<svg width="24" height="24" viewBox="0 0 24 24" fill="none" xmlns="http://www.w3.org/2000/svg">
<path fill-rule="evenodd" clip-rule="evenodd" d="M2.67896 14.6482C3.03852 14.305 3.6082 14.3182 3.95142 14.6777L8.70039 19.6529V7.64922C8.70039 4.08698 11.5882 1.19922 15.1504 1.19922C18.7126 1.19922 21.6004 4.08698 21.6004 7.64922V11.0992C21.6004 11.5963 21.1974 11.9992 20.7004 11.9992C20.2034 11.9992 19.8004 11.5963 19.8004 11.0992V7.64922C19.8004 5.0811 17.7185 2.99922 15.1504 2.99922C12.5823 2.99922 10.5004 5.0811 10.5004 7.64922V19.6529L15.2494 14.6777C15.5926 14.3182 16.1622 14.305 16.5219 14.6482C16.8814 14.9914 16.8946 15.5611 16.5514 15.9207L10.2514 22.5207C10.0816 22.6985 9.84634 22.7992 9.60039 22.7992C9.35444 22.7992 9.1192 22.6985 8.94937 22.5207L2.64937 15.9207C2.30617 15.5611 2.31942 14.9914 2.67896 14.6482Z" fill="#0F172A"/>
</svg>
