<svg width="24" height="24" viewBox="0 0 24 24" fill="none" xmlns="http://www.w3.org/2000/svg">
<path fill-rule="evenodd" clip-rule="evenodd" d="M12.0008 3.60156C12.4978 3.60156 12.9008 4.00451 12.9008 4.50156V17.267L17.6521 12.2778C17.9966 11.9195 18.5663 11.9083 18.9245 12.2528C19.2829 12.5974 19.294 13.1671 18.9495 13.5253L12.6495 20.1253C12.4798 20.3018 12.2456 20.4016 12.0008 20.4016C11.756 20.4016 11.5217 20.3018 11.352 20.1253L5.05204 13.5253C4.70752 13.1671 4.71869 12.5974 5.07699 12.2528C5.43528 11.9083 6.00502 11.9195 6.34954 12.2778L11.1008 17.267V4.50156C11.1008 4.00451 11.5037 3.60156 12.0008 3.60156Z" fill="#0F172A"/>
</svg>
