<svg width="24" height="24" viewBox="0 0 24 24" fill="none" xmlns="http://www.w3.org/2000/svg">
<path fill-rule="evenodd" clip-rule="evenodd" d="M21.6004 11.9992C21.6004 12.4963 21.1974 12.8992 20.7004 12.8992H5.59227L8.1128 15.2397C8.47704 15.578 8.49813 16.1474 8.1599 16.5116C7.82168 16.8759 7.25222 16.897 6.88798 16.5587L2.68798 12.6587C2.5046 12.4885 2.40039 12.2495 2.40039 11.9992C2.40039 11.749 2.5046 11.51 2.68798 11.3397L6.88798 7.43971C7.25222 7.10149 7.82168 7.12257 8.1599 7.48681C8.49813 7.85106 8.47704 8.42052 8.1128 8.75874L5.59227 11.0992H20.7004C21.1974 11.0992 21.6004 11.5022 21.6004 11.9992Z" fill="#0F172A"/>
</svg>
