<svg width="24" height="24" viewBox="0 0 24 24" fill="none" xmlns="http://www.w3.org/2000/svg">
<path fill-rule="evenodd" clip-rule="evenodd" d="M5.10039 6.60078C4.60334 6.60078 4.20039 7.00373 4.20039 7.50078V17.7008C4.20039 18.1978 4.60334 18.6008 5.10039 18.6008H15.3004C15.7974 18.6008 16.2004 18.1978 16.2004 17.7008V12.9008C16.2004 12.4037 16.6034 12.0008 17.1004 12.0008C17.5974 12.0008 18.0004 12.4037 18.0004 12.9008V17.7008C18.0004 19.1919 16.7915 20.4008 15.3004 20.4008H5.10039C3.60922 20.4008 2.40039 19.1919 2.40039 17.7008V7.50078C2.40039 6.00961 3.60922 4.80078 5.10039 4.80078H11.1004C11.5974 4.80078 12.0004 5.20373 12.0004 5.70078C12.0004 6.19783 11.5974 6.60078 11.1004 6.60078H5.10039Z" fill="#0F172A"/>
<path fill-rule="evenodd" clip-rule="evenodd" d="M7.43184 15.3023C7.76532 15.6708 8.33446 15.6994 8.70305 15.3659L19.7992 5.32643V8.69844C19.7992 9.19549 20.2022 9.59844 20.6992 9.59844C21.1963 9.59844 21.5992 9.19549 21.5992 8.69844V3.29844C21.5992 2.80139 21.1963 2.39844 20.6992 2.39844H15.2992C14.8022 2.39844 14.3992 2.80139 14.3992 3.29844C14.3992 3.79549 14.8022 4.19844 15.2992 4.19844H18.3631L7.49541 14.031C7.12682 14.3645 7.09836 14.9336 7.43184 15.3023Z" fill="#0F172A"/>
</svg>
