<svg width="24" height="24" viewBox="0 0 24 24" fill="none" xmlns="http://www.w3.org/2000/svg">
<path fill-rule="evenodd" clip-rule="evenodd" d="M12.0008 20.4016C11.5037 20.4016 11.1008 19.9986 11.1008 19.5016V6.73606L6.34953 11.7254C6.00502 12.0836 5.43528 12.0948 5.07699 11.7503C4.71869 11.4058 4.70752 10.8361 5.05203 10.4778L11.352 3.87777C11.5217 3.70129 11.756 3.60156 12.0008 3.60156C12.2456 3.60156 12.4798 3.70129 12.6495 3.87777L18.9495 10.4778C19.294 10.8361 19.2829 11.4058 18.9245 11.7503C18.5663 12.0948 17.9966 12.0836 17.6521 11.7254L12.9008 6.73606V19.5016C12.9008 19.9986 12.4978 20.4016 12.0008 20.4016Z" fill="#0F172A"/>
</svg>
