<svg width="24" height="24" viewBox="0 0 24 24" fill="none" xmlns="http://www.w3.org/2000/svg">
<path d="M21.75 6.73313C21.75 6.53313 21.67 6.34313 21.53 6.20313L17.81 2.48313C17.52 2.19312 17.04 2.19312 16.75 2.48313C16.46 2.77313 16.46 3.25313 16.75 3.54312L19.2 5.99313H3C2.59 5.99313 2.25 6.33312 2.25 6.74313C2.25 7.15313 2.59 7.48313 3 7.48313H19.19L16.75 9.92313C16.46 10.2131 16.46 10.6931 16.75 10.9831C16.9 11.1331 17.09 11.2031 17.28 11.2031C17.47 11.2031 17.66 11.1331 17.81 10.9831L21.52 7.27313C21.59 7.20312 21.65 7.11312 21.69 7.01313C21.69 7.00313 21.69 6.99312 21.7 6.98313C21.73 6.90312 21.75 6.82313 21.75 6.73313Z" fill="white"/>
<path d="M21 16.5183H4.81L7.25 14.0783C7.54 13.7883 7.54 13.3083 7.25 13.0182C6.96 12.7283 6.48 12.7283 6.19 13.0182L2.48 16.7283C2.41 16.7982 2.35 16.8882 2.31 16.9883C2.31 16.9983 2.31 17.0082 2.3 17.0183C2.27 17.0982 2.25 17.1882 2.25 17.2782C2.25 17.4783 2.33 17.6682 2.47 17.8083L6.19 21.5283C6.34 21.6783 6.53 21.7482 6.72 21.7482C6.91 21.7482 7.1 21.6783 7.25 21.5283C7.54 21.2382 7.54 20.7582 7.25 20.4683L4.8 18.0183H21C21.41 18.0183 21.75 17.6783 21.75 17.2683C21.75 16.8582 21.41 16.5183 21 16.5183Z" fill="white"/>
</svg>
