<svg width="24" height="24" viewBox="0 0 24 24" fill="none" xmlns="http://www.w3.org/2000/svg">
<g clip-path="url(#clip0_13_12337)">
<mask id="mask0_13_12337" style="mask-type:luminance" maskUnits="userSpaceOnUse" x="0" y="0" width="24" height="24">
<path d="M24 0H0V24H24V0Z" fill="white"/>
</mask>
<g mask="url(#mask0_13_12337)">
<path fill-rule="evenodd" clip-rule="evenodd" d="M12.0004 21.5984C17.3024 21.5984 21.6004 17.3004 21.6004 11.9984C21.6004 6.6965 17.3024 2.39844 12.0004 2.39844C6.69845 2.39844 2.40039 6.6965 2.40039 11.9984C2.40039 17.3004 6.69845 21.5984 12.0004 21.5984ZM15.9004 12.8984C16.3974 12.8984 16.8004 12.4955 16.8004 11.9984C16.8004 11.5014 16.3974 11.0984 15.9004 11.0984H10.3923L12.9128 8.75795C13.2771 8.41973 13.2981 7.85027 12.9599 7.48603C12.6216 7.12179 12.0522 7.1007 11.688 7.43892L7.48798 11.3389C7.3046 11.5092 7.20039 11.7482 7.20039 11.9984C7.20039 12.2488 7.3046 12.4877 7.48798 12.658L11.688 16.558C12.0522 16.8961 12.6216 16.8751 12.9599 16.5108C13.2981 16.1466 13.2771 15.5772 12.9128 15.2389L10.3923 12.8984H15.9004Z" fill="#0F172A"/>
</g>
</g>
<defs>
<clipPath id="clip0_13_12337">
<rect width="24" height="24" fill="white"/>
</clipPath>
</defs>
</svg>
