<svg width="24" height="24" viewBox="0 0 24 24" fill="none" xmlns="http://www.w3.org/2000/svg">
<path fill-rule="evenodd" clip-rule="evenodd" d="M6 11.9992C6 11.5022 6.40295 11.0992 6.9 11.0992H14.8655L12.2762 8.74797C11.9179 8.40345 11.9067 7.83372 12.2513 7.47542C12.5958 7.11713 13.1656 7.10595 13.5238 7.45047L17.7238 11.3505C17.9003 11.5202 18 11.7544 18 11.9992C18 12.244 17.9003 12.4783 17.7238 12.6479L13.5238 16.5479C13.1656 16.8925 12.5958 16.8813 12.2513 16.523C11.9067 16.1648 11.9179 15.595 12.2762 15.2505L14.8655 12.8992H6.9C6.40295 12.8992 6 12.4963 6 11.9992Z" fill="#0F172A"/>
</svg>
