<svg width="24" height="24" viewBox="0 0 24 24" fill="none" xmlns="http://www.w3.org/2000/svg">
<path fill-rule="evenodd" clip-rule="evenodd" d="M15.8409 2.68603C15.5027 3.05028 15.5237 3.61974 15.888 3.95796L18.4085 6.29844H8.10039C7.60334 6.29844 7.20039 6.70139 7.20039 7.19844C7.20039 7.6955 7.60334 8.09844 8.10039 8.09844H18.4085L15.888 10.4389C15.5237 10.7771 15.5027 11.3466 15.8409 11.7108C16.1792 12.0751 16.7486 12.0962 17.1128 11.758L21.3128 7.85796C21.4962 7.68767 21.6004 7.4487 21.6004 7.19844C21.6004 6.94818 21.4962 6.70922 21.3128 6.53893L17.1128 2.63893C16.7486 2.30071 16.1792 2.32179 15.8409 2.68603ZM8.1599 12.2861C7.82168 11.9218 7.25222 11.9007 6.88798 12.2389L2.68798 16.1389C2.5046 16.3092 2.40039 16.5482 2.40039 16.7984C2.40039 17.0488 2.5046 17.2877 2.68798 17.458L6.88798 21.358C7.25222 21.6962 7.82168 21.6751 8.1599 21.3108C8.49813 20.9466 8.47704 20.3772 8.1128 20.0389L5.59227 17.6984H15.9004C16.3974 17.6984 16.8004 17.2955 16.8004 16.7984C16.8004 16.3014 16.3974 15.8984 15.9004 15.8984H5.59227L8.1128 13.558C8.47704 13.2197 8.49813 12.6503 8.1599 12.2861Z" fill="#0F172A"/>
</svg>
