<svg width="24" height="24" viewBox="0 0 24 24" fill="none" xmlns="http://www.w3.org/2000/svg">
<path fill-rule="evenodd" clip-rule="evenodd" d="M11.9992 5.40156C13.4572 5.40156 14.8997 5.46737 16.3238 5.59613C16.7091 5.63098 17.0155 5.92873 17.0614 6.31277C17.2103 7.55799 17.311 8.81818 17.3614 10.0915L15.3357 8.06524C14.9842 7.71372 14.4143 7.71366 14.0629 8.06509C13.7114 8.41653 13.7113 8.98638 14.0627 9.33789L17.6619 12.9378C18.0133 13.2893 18.5831 13.2894 18.9346 12.9379L22.5356 9.33805C22.8871 8.98662 22.8872 8.41678 22.5357 8.06526C22.1842 7.71373 21.6145 7.71365 21.2629 8.06507L19.1655 10.1619C19.1151 8.79277 19.0088 7.43773 18.8487 6.09904C18.7018 4.87086 17.7177 3.91483 16.4859 3.80345C15.008 3.66982 13.5115 3.60156 11.9992 3.60156C10.487 3.60156 8.99047 3.66982 7.5126 3.80345C6.2808 3.91482 5.29661 4.87086 5.14974 6.09904C5.07319 6.73913 5.00894 7.38297 4.95722 8.03029C4.91763 8.52577 5.28721 8.95953 5.78269 8.99911C6.27816 9.0387 6.71191 8.66913 6.7515 8.17365C6.80133 7.54985 6.86325 6.92947 6.93699 6.31277C6.98292 5.92873 7.28939 5.63098 7.67469 5.59613C9.09875 5.46737 10.5412 5.40156 11.9992 5.40156ZM6.33657 11.0656C5.98515 10.7141 5.41536 10.714 5.06384 11.0654L1.46293 14.6651C1.1114 15.0164 1.1113 15.5863 1.46271 15.9378C1.81412 16.2894 2.38397 16.2895 2.73551 15.938L4.83299 13.8413C4.88334 15.2105 4.98965 16.5654 5.14974 17.9041C5.29661 19.1322 6.2808 20.0882 7.5126 20.1997C8.99047 20.3333 10.487 20.4016 11.9992 20.4016C13.5115 20.4016 15.008 20.3333 16.4859 20.1997C17.7177 20.0882 18.7018 19.1323 18.8487 17.9041C18.9253 17.2634 18.9896 16.6192 19.0413 15.9713C19.0809 15.4758 18.7113 15.0421 18.2158 15.0025C17.7203 14.9629 17.2867 15.3325 17.2471 15.828C17.1971 16.4524 17.1352 17.0731 17.0614 17.6904C17.0155 18.0744 16.7091 18.3721 16.3238 18.407C14.8997 18.5358 13.4572 18.6016 11.9992 18.6016C10.5412 18.6016 9.09875 18.5358 7.67469 18.407C7.28939 18.3721 6.98292 18.0744 6.93699 17.6904C6.7881 16.4452 6.68744 15.185 6.63699 13.9118L8.66277 15.9379C9.01422 16.2894 9.58406 16.2894 9.93557 15.938C10.2871 15.5866 10.2871 15.0167 9.93566 14.6652L6.33657 11.0656Z" fill="#0F172A"/>
</svg>
