<svg width="24" height="24" viewBox="0 0 24 24" fill="none" xmlns="http://www.w3.org/2000/svg">
<path fill-rule="evenodd" clip-rule="evenodd" d="M2.40039 11.9992C2.40039 11.5022 2.80334 11.0992 3.30039 11.0992H18.4085L15.888 8.75874C15.5237 8.42052 15.5027 7.85106 15.8409 7.48681C16.1792 7.12257 16.7486 7.10149 17.1128 7.43971L21.3128 11.3397C21.4962 11.51 21.6004 11.749 21.6004 11.9992C21.6004 12.2495 21.4962 12.4885 21.3128 12.6587L17.1128 16.5587C16.7486 16.897 16.1792 16.8759 15.8409 16.5116C15.5027 16.1474 15.5237 15.578 15.888 15.2397L18.4085 12.8992H3.30039C2.80334 12.8992 2.40039 12.4963 2.40039 11.9992Z" fill="#0F172A"/>
</svg>
