<svg width="24" height="24" viewBox="0 0 24 24" fill="none" xmlns="http://www.w3.org/2000/svg">
<path fill-rule="evenodd" clip-rule="evenodd" d="M12.8996 7.19922H10.4996V12.2992C10.4996 12.7963 10.0967 13.1992 9.59961 13.1992C9.10256 13.1992 8.69961 12.7963 8.69961 12.2992V7.19922H10.4996L10.4996 4.44458L11.6306 5.70128C11.9632 6.07075 12.5322 6.10069 12.9016 5.76818C13.2711 5.43567 13.3011 4.86661 12.9686 4.49715L10.2686 1.49715C10.0979 1.30751 9.85474 1.19922 9.5996 1.19922C9.34447 1.19922 9.10132 1.30751 8.93063 1.49715L6.23063 4.49715C5.89813 4.86661 5.92808 5.43567 6.29753 5.76818C6.66699 6.10069 7.23605 6.07075 7.56856 5.70128L8.6996 4.44458L8.69961 7.19922H6.29961C4.80844 7.19922 3.59961 8.40805 3.59961 9.89922V15.2992C3.59961 16.7903 4.80844 17.9992 6.29961 17.9992H12.8996C14.3907 17.9992 15.5996 16.7903 15.5996 15.2992V9.89922C15.5996 8.40805 14.3907 7.19922 12.8996 7.19922ZM8.39961 20.0992V19.7992H12.8996C15.3849 19.7992 17.3996 17.7845 17.3996 15.2992V11.9992H17.6996C19.1907 11.9992 20.3996 13.2081 20.3996 14.6992V20.0992C20.3996 21.5903 19.1907 22.7992 17.6996 22.7992H11.0996C9.60844 22.7992 8.39961 21.5903 8.39961 20.0992Z" fill="#0F172A"/>
</svg>
