<svg width="24" height="24" viewBox="0 0 24 24" fill="none" xmlns="http://www.w3.org/2000/svg">
<path fill-rule="evenodd" clip-rule="evenodd" d="M14.6482 2.67701C14.305 3.03656 14.3182 3.60625 14.6777 3.94946L19.6529 8.69844H7.64922C4.08698 8.69844 1.19922 11.5862 1.19922 15.1484C1.19922 18.7106 4.08698 21.5984 7.64922 21.5984H11.0992C11.5963 21.5984 11.9992 21.1955 11.9992 20.6984C11.9992 20.2014 11.5963 19.7984 11.0992 19.7984H7.64922C5.0811 19.7984 2.99922 17.7166 2.99922 15.1484C2.99922 12.5803 5.0811 10.4984 7.64922 10.4984H19.6529L14.6777 15.2474C14.3182 15.5906 14.305 16.1603 14.6482 16.5199C14.9914 16.8794 15.5611 16.8926 15.9207 16.5494L22.5207 10.2495C22.6985 10.0796 22.7992 9.84439 22.7992 9.59844C22.7992 9.35249 22.6985 9.11725 22.5207 8.94742L15.9207 2.64742C15.5611 2.30422 14.9914 2.31746 14.6482 2.67701Z" fill="#0F172A"/>
</svg>
