<svg width="24" height="24" viewBox="0 0 24 24" fill="none" xmlns="http://www.w3.org/2000/svg">
<path fill-rule="evenodd" clip-rule="evenodd" d="M11.9992 6C12.4963 6 12.8992 6.40295 12.8992 6.9V14.8655L15.2505 12.2762C15.595 11.9179 16.1648 11.9067 16.523 12.2513C16.8813 12.5958 16.8925 13.1656 16.5479 13.5238L12.6479 17.7238C12.4783 17.9003 12.244 18 11.9992 18C11.7544 18 11.5202 17.9003 11.3505 17.7238L7.45047 13.5238C7.10595 13.1656 7.11713 12.5958 7.47542 12.2513C7.83372 11.9067 8.40345 11.9179 8.74797 12.2762L11.0992 14.8655V6.9C11.0992 6.40295 11.5022 6 11.9992 6Z" fill="#0F172A"/>
</svg>
