<svg width="24" height="24" viewBox="0 0 24 24" fill="none" xmlns="http://www.w3.org/2000/svg">
<path fill-rule="evenodd" clip-rule="evenodd" d="M20.4004 5.09844C20.4004 3.60727 19.1915 2.39844 17.7004 2.39844H11.1004C9.60922 2.39844 8.40039 3.60727 8.40039 5.09844V7.49844C8.40039 7.99549 8.80334 8.39844 9.30039 8.39844C9.79744 8.39844 10.2004 7.99549 10.2004 7.49844V5.09844C10.2004 4.60139 10.6033 4.19844 11.1004 4.19844H17.7004C18.1974 4.19844 18.6004 4.60139 18.6004 5.09844V18.8984C18.6004 19.3955 18.1974 19.7984 17.7004 19.7984H11.1004C10.6033 19.7984 10.2004 19.3955 10.2004 18.8984V16.4984C10.2004 16.0014 9.79744 15.5984 9.30039 15.5984C8.80334 15.5984 8.40039 16.0014 8.40039 16.4984V18.8984C8.40039 20.3896 9.60922 21.5984 11.1004 21.5984H17.7004C19.1915 21.5984 20.4004 20.3896 20.4004 18.8984V5.09844Z" fill="#0F172A"/>
<path fill-rule="evenodd" clip-rule="evenodd" d="M16.7992 11.9984C16.7992 11.5014 16.3963 11.0984 15.8992 11.0984H4.44458L5.70128 9.96741C6.07075 9.63491 6.1007 9.06584 5.76818 8.69638C5.43567 8.32692 4.86661 8.29696 4.49715 8.62948L1.49715 11.3295C1.30751 11.5002 1.19922 11.7433 1.19922 11.9984C1.19922 12.2536 1.30751 12.4967 1.49715 12.6674L4.49715 15.3674C4.86661 15.7 5.43567 15.67 5.76818 15.3005C6.1007 14.931 6.07075 14.362 5.70128 14.0294L4.44458 12.8984H15.8992C16.3963 12.8984 16.7992 12.4955 16.7992 11.9984Z" fill="#0F172A"/>
</svg>
