<svg width="24" height="24" viewBox="0 0 24 24" fill="none" xmlns="http://www.w3.org/2000/svg">
<path d="M16.19 2H7.81C4.17001 2 2 4.17 2 7.81V16.18C2 19.83 4.17001 22 7.81 22H16.1801C19.82 22 21.99 19.83 21.99 16.19V7.81C22.0001 4.17 19.83 2 16.19 2ZM16.0601 11.17L12.53 14.7C12.38 14.85 12.1901 14.92 12 14.92C11.81 14.92 11.62 14.85 11.47 14.7L7.94 11.17C7.65001 10.88 7.65001 10.4 7.94 10.11C8.23 9.81999 8.71 9.81999 9.00001 10.11L12 13.11L15 10.11C15.29 9.81999 15.77 9.81999 16.0601 10.11C16.35 10.4 16.35 10.87 16.0601 11.17Z" fill="white"/>
</svg>
