<svg width="24" height="24" viewBox="0 0 24 24" fill="none" xmlns="http://www.w3.org/2000/svg">
<path fill-rule="evenodd" clip-rule="evenodd" d="M9.35024 2.67701C9.69344 3.03656 9.6802 3.60625 9.32065 3.94946L4.34552 8.69844H16.3492C19.9114 8.69844 22.7992 11.5862 22.7992 15.1484C22.7992 18.7106 19.9114 21.5984 16.3492 21.5984H12.8992C12.4022 21.5984 11.9992 21.1955 11.9992 20.6984C11.9992 20.2014 12.4022 19.7984 12.8992 19.7984H16.3492C18.9173 19.7984 20.9992 17.7166 20.9992 15.1484C20.9992 12.5803 18.9173 10.4984 16.3492 10.4984H4.34552L9.32065 15.2474C9.6802 15.5906 9.69344 16.1603 9.35024 16.5199C9.00703 16.8794 8.43734 16.8926 8.07779 16.5494L1.47779 10.2495C1.29987 10.0796 1.19922 9.84439 1.19922 9.59844C1.19922 9.35249 1.29987 9.11725 1.47779 8.94742L8.07779 2.64742C8.43734 2.30422 9.00703 2.31746 9.35024 2.67701Z" fill="#0F172A"/>
</svg>
