<svg width="24" height="24" viewBox="0 0 24 24" fill="none" xmlns="http://www.w3.org/2000/svg">
<path d="M11.1 15.8984C11.1 16.3955 11.5029 16.7984 12 16.7984C12.497 16.7984 12.9 16.3955 12.9 15.8984V5.56214L16.4456 9.3164C16.7869 9.67777 17.3566 9.69404 17.718 9.35275C18.0793 9.01146 18.0956 8.44184 17.7544 8.08047L12.6544 2.68047C12.4843 2.50045 12.2476 2.39844 12 2.39844C11.7524 2.39844 11.5157 2.50045 11.3457 2.68047L6.24569 8.08047C5.9044 8.44184 5.92067 9.01146 6.28204 9.35275C6.64341 9.69404 7.21302 9.67777 7.55432 9.3164L11.1 5.56214V15.8984Z" fill="#0F172A"/>
<path d="M4.20039 15.2984C4.20039 14.8014 3.79744 14.3984 3.30039 14.3984C2.80334 14.3984 2.40039 14.8014 2.40039 15.2984V18.2984C2.40039 20.121 3.87785 21.5984 5.70039 21.5984H18.3004C20.123 21.5984 21.6004 20.121 21.6004 18.2984V15.2984C21.6004 14.8014 21.1974 14.3984 20.7004 14.3984C20.2034 14.3984 19.8004 14.8014 19.8004 15.2984V18.2984C19.8004 19.1269 19.1289 19.7984 18.3004 19.7984H5.70039C4.87196 19.7984 4.20039 19.1269 4.20039 18.2984V15.2984Z" fill="#0F172A"/>
</svg>
