<svg width="24" height="24" viewBox="0 0 24 24" fill="none" xmlns="http://www.w3.org/2000/svg">
<path d="M12 2C6.49 2 2 6.49 2 12C2 17.51 6.49 22 12 22C17.51 22 22.0001 17.51 22.0001 12C22.0001 6.49 17.51 2 12 2ZM13.79 15C14.0801 15.29 14.0801 15.77 13.79 16.06C13.64 16.21 13.4501 16.28 13.26 16.28C13.07 16.28 12.8801 16.21 12.7301 16.06L9.2 12.53C8.91001 12.24 8.91001 11.76 9.2 11.47L12.7301 7.94C13.02 7.65 13.5 7.65 13.79 7.94C14.0801 8.23 14.0801 8.71 13.79 9L10.79 12L13.79 15Z" fill="white"/>
</svg>
