<svg width="24" height="24" viewBox="0 0 24 24" fill="none" xmlns="http://www.w3.org/2000/svg">
<path fill-rule="evenodd" clip-rule="evenodd" d="M16.5008 8.39922H12.9008V4.3911L15.2413 6.91163C15.5795 7.27586 16.1489 7.29696 16.5131 6.95874C16.8775 6.62051 16.8985 6.05105 16.5603 5.68681L12.6603 1.48681C12.49 1.30343 12.251 1.19922 12.0008 1.19922C11.7505 1.19922 11.5116 1.30343 11.3413 1.48681L7.44126 5.68681C7.10304 6.05105 7.12414 6.62051 7.48837 6.95873C7.85261 7.29696 8.42207 7.27586 8.76029 6.91163L11.1008 4.3911V8.39922H7.50078C6.00961 8.39922 4.80078 9.60805 4.80078 11.0992V20.0992C4.80078 21.5903 6.00961 22.7992 7.50078 22.7992H16.5008C17.9919 22.7992 19.2008 21.5903 19.2008 20.0992V11.0992C19.2008 9.60805 17.9919 8.39922 16.5008 8.39922ZM12.9008 8.39922H11.1008V14.6992C11.1008 15.1963 11.5037 15.5992 12.0008 15.5992C12.4978 15.5992 12.9008 15.1963 12.9008 14.6992V8.39922Z" fill="#0F172A"/>
</svg>
