<svg width="24" height="24" viewBox="0 0 24 24" fill="none" xmlns="http://www.w3.org/2000/svg">
<path fill-rule="evenodd" clip-rule="evenodd" d="M21.3219 9.35024C20.9622 9.69344 20.3926 9.6802 20.0494 9.32065L15.3004 4.34552V16.3492C15.3004 19.9114 12.4126 22.7992 8.85039 22.7992C5.28815 22.7992 2.40039 19.9114 2.40039 16.3492V12.8992C2.40039 12.4022 2.80334 11.9992 3.30039 11.9992C3.79744 11.9992 4.20039 12.4022 4.20039 12.8992V16.3492C4.20039 18.9173 6.28227 20.9992 8.85039 20.9992C11.4185 20.9992 13.5004 18.9173 13.5004 16.3492V4.34552L8.75141 9.32065C8.4082 9.6802 7.83851 9.69344 7.47896 9.35024C7.11941 9.00703 7.10617 8.43734 7.44937 8.07779L13.7494 1.47779C13.9192 1.29987 14.1544 1.19922 14.4004 1.19922C14.6464 1.19922 14.8816 1.29987 15.0514 1.47779L21.3514 8.07779C21.6946 8.43734 21.6814 9.00703 21.3219 9.35024Z" fill="#0F172A"/>
</svg>
