<svg width="24" height="24" viewBox="0 0 24 24" fill="none" xmlns="http://www.w3.org/2000/svg">
<path fill-rule="evenodd" clip-rule="evenodd" d="M20.4004 5.09844C20.4004 3.60727 19.1915 2.39844 17.7004 2.39844H11.1004C9.60922 2.39844 8.40039 3.60727 8.40039 5.09844V7.49844C8.40039 7.99549 8.80334 8.39844 9.30039 8.39844C9.79744 8.39844 10.2004 7.99549 10.2004 7.49844V5.09844C10.2004 4.60139 10.6033 4.19844 11.1004 4.19844H17.7004C18.1974 4.19844 18.6004 4.60139 18.6004 5.09844V18.8984C18.6004 19.3955 18.1974 19.7984 17.7004 19.7984H11.1004C10.6033 19.7984 10.2004 19.3955 10.2004 18.8984V16.4984C10.2004 16.0014 9.79744 15.5984 9.30039 15.5984C8.80334 15.5984 8.40039 16.0014 8.40039 16.4984V18.8984C8.40039 20.3896 9.60922 21.5984 11.1004 21.5984H17.7004C19.1915 21.5984 20.4004 20.3896 20.4004 18.8984V5.09844Z" fill="#0F172A"/>
<path fill-rule="evenodd" clip-rule="evenodd" d="M1.19922 11.9984C1.19922 11.5014 1.60217 11.0984 2.09922 11.0984H13.5538L12.2972 9.96741C11.9277 9.63491 11.8977 9.06584 12.2302 8.69638C12.5627 8.32692 13.1318 8.29696 13.5013 8.62948L16.5013 11.3295C16.691 11.5002 16.7992 11.7433 16.7992 11.9984C16.7992 12.2536 16.691 12.4967 16.5013 12.6674L13.5013 15.3674C13.1318 15.7 12.5627 15.67 12.2302 15.3005C11.8977 14.931 11.9277 14.362 12.2972 14.0294L13.5538 12.8984H2.09922C1.60217 12.8984 1.19922 12.4955 1.19922 11.9984Z" fill="#0F172A"/>
</svg>
