<svg width="24" height="24" viewBox="0 0 24 24" fill="none" xmlns="http://www.w3.org/2000/svg">
<path fill-rule="evenodd" clip-rule="evenodd" d="M11.9992 2.39844C12.4963 2.39844 12.8992 2.80139 12.8992 3.29844V18.4066L15.2397 15.8861C15.578 15.5218 16.1474 15.5008 16.5116 15.8389C16.8759 16.1772 16.897 16.7466 16.5587 17.1108L12.6587 21.3108C12.4885 21.4943 12.2495 21.5984 11.9992 21.5984C11.749 21.5984 11.51 21.4943 11.3397 21.3108L7.43971 17.1108C7.10149 16.7466 7.12257 16.1772 7.48681 15.8389C7.85106 15.5008 8.42052 15.5218 8.75874 15.8861L11.0992 18.4066V3.29844C11.0992 2.80139 11.5022 2.39844 11.9992 2.39844Z" fill="#0F172A"/>
</svg>
