<svg width="24" height="24" viewBox="0 0 24 24" fill="none" xmlns="http://www.w3.org/2000/svg">
<path fill-rule="evenodd" clip-rule="evenodd" d="M1.46282 6.26751C1.81429 5.91604 2.38415 5.91604 2.73561 6.26751L8.39922 11.9311L12.9214 7.40892C13.1017 7.22865 13.3499 7.13328 13.6046 7.14653C13.8592 7.15979 14.0962 7.2804 14.2568 7.47843C16.2871 9.98184 17.8648 12.9144 18.8319 16.1829L20.7214 12.9101C20.9699 12.4797 21.5204 12.3322 21.9508 12.5807C22.3813 12.8292 22.5289 13.3797 22.2802 13.8101L19.3105 18.954C19.0619 19.3846 18.5115 19.5321 18.0811 19.2835L12.937 16.3137C12.5066 16.0651 12.3591 15.5147 12.6076 15.0843C12.8561 14.6537 13.4066 14.5062 13.837 14.7549L17.0873 16.6313C16.2881 13.9571 15.0495 11.5287 13.4726 9.40332L9.03561 13.8403C8.86683 14.0091 8.63791 14.1039 8.39922 14.1039C8.16053 14.1039 7.9316 14.0091 7.76282 13.8403L1.46282 7.5403C1.11135 7.18883 1.11135 6.61898 1.46282 6.26751Z" fill="#0F172A"/>
</svg>
