<svg width="24" height="24" viewBox="0 0 24 24" fill="none" xmlns="http://www.w3.org/2000/svg">
<path fill-rule="evenodd" clip-rule="evenodd" d="M3.59961 12.0008C3.59961 11.5037 4.00256 11.1008 4.49961 11.1008H17.2651L12.2758 6.34953C11.9175 6.00502 11.9063 5.43528 12.2509 5.07699C12.5954 4.71869 13.1652 4.70752 13.5234 5.05203L20.1234 11.352C20.2999 11.5217 20.3996 11.756 20.3996 12.0008C20.3996 12.2456 20.2999 12.4798 20.1234 12.6495L13.5234 18.9495C13.1652 19.294 12.5954 19.2829 12.2509 18.9245C11.9063 18.5663 11.9175 17.9966 12.2758 17.6521L17.2651 12.9008H4.49961C4.00256 12.9008 3.59961 12.4978 3.59961 12.0008Z" fill="#0F172A"/>
</svg>
