<svg width="24" height="24" viewBox="0 0 24 24" fill="none" xmlns="http://www.w3.org/2000/svg">
<path fill-rule="evenodd" clip-rule="evenodd" d="M3.59961 5.09844C3.59961 3.60727 4.80844 2.39844 6.29961 2.39844H12.8996C14.3907 2.39844 15.5996 3.60727 15.5996 5.09844V7.49844C15.5996 7.99549 15.1966 8.39844 14.6996 8.39844C14.2026 8.39844 13.7996 7.99549 13.7996 7.49844V5.09844C13.7996 4.60139 13.3966 4.19844 12.8996 4.19844H6.29961C5.80256 4.19844 5.39961 4.60139 5.39961 5.09844V18.8984C5.39961 19.3955 5.80256 19.7984 6.29961 19.7984H12.8996C13.3966 19.7984 13.7996 19.3955 13.7996 18.8984V16.4984C13.7996 16.0014 14.2026 15.5984 14.6996 15.5984C15.1966 15.5984 15.5996 16.0014 15.5996 16.4984V18.8984C15.5996 20.3896 14.3907 21.5984 12.8996 21.5984H6.29961C4.80844 21.5984 3.59961 20.3896 3.59961 18.8984V5.09844Z" fill="#0F172A"/>
<path fill-rule="evenodd" clip-rule="evenodd" d="M7.19922 11.9984C7.19922 11.5014 7.60217 11.0984 8.09922 11.0984H19.5538L18.2972 9.96741C17.9277 9.63491 17.8977 9.06584 18.2302 8.69638C18.5627 8.32692 19.1318 8.29696 19.5013 8.62948L22.5013 11.3295C22.691 11.5002 22.7992 11.7433 22.7992 11.9984C22.7992 12.2536 22.691 12.4967 22.5013 12.6674L19.5013 15.3674C19.1318 15.7 18.5627 15.67 18.2302 15.3005C17.8977 14.931 17.9277 14.362 18.2972 14.0294L19.5538 12.8984H8.09922C7.60217 12.8984 7.19922 12.4955 7.19922 11.9984Z" fill="#0F172A"/>
</svg>
