<svg width="24" height="24" viewBox="0 0 24 24" fill="none" xmlns="http://www.w3.org/2000/svg">
<path d="M16.19 2H7.81C4.17001 2 2 4.17 2 7.81V16.18C2 19.83 4.17001 22 7.81 22H16.1801C19.82 22 21.99 19.83 21.99 16.19V7.81C22.0001 4.17 19.83 2 16.19 2ZM16.0601 14C15.9101 14.15 15.72 14.22 15.53 14.22C15.3401 14.22 15.15 14.14 15 14L12 11L9.00001 14C8.71 14.29 8.23 14.29 7.94 14C7.65001 13.71 7.65001 13.23 7.94 12.94L11.47 9.41C11.76 9.12 12.24 9.12 12.53 9.41L16.0601 12.94C16.35 13.23 16.35 13.7 16.0601 14Z" fill="white"/>
</svg>
