<svg width="24" height="24" viewBox="0 0 24 24" fill="none" xmlns="http://www.w3.org/2000/svg">
<path fill-rule="evenodd" clip-rule="evenodd" d="M15.0916 5.85479C15.2203 5.37467 15.7138 5.08974 16.1939 5.21839L21.9311 6.7557C22.1618 6.81748 22.3583 6.96832 22.4776 7.17503C22.597 7.38174 22.6294 7.6274 22.5676 7.85797L21.0303 13.5952C20.9017 14.0753 20.4081 14.3603 19.928 14.2317C19.4479 14.1031 19.163 13.6095 19.2916 13.1294L20.263 9.50418C17.5556 11.1724 15.3041 13.3089 13.5514 15.7474C13.3973 15.9619 13.1567 16.0978 12.8935 16.1192C12.6303 16.1407 12.371 16.0453 12.1843 15.8585L8.39922 12.0736L2.73561 17.7371C2.38415 18.0886 1.81429 18.0886 1.46282 17.7371C1.11135 17.3857 1.11135 16.8159 1.46282 16.4644L7.76282 10.1644C8.11429 9.81293 8.68415 9.81293 9.03561 10.1644L12.7239 13.8527C14.5251 11.5574 16.7552 9.5415 19.3783 7.93514L15.728 6.95706C15.2479 6.82841 14.963 6.33491 15.0916 5.85479Z" fill="#0F172A"/>
</svg>
