<svg width="24" height="24" viewBox="0 0 24 24" fill="none" xmlns="http://www.w3.org/2000/svg">
<path d="M16.19 2H7.81C4.17001 2 2 4.17 2 7.81V16.18C2 19.83 4.17001 22 7.81 22H16.1801C19.82 22 21.99 19.83 21.99 16.19V7.81C22.0001 4.17 19.83 2 16.19 2ZM10.99 17C10.99 17.1 10.97 17.19 10.93 17.29C10.85 17.47 10.71 17.62 10.52 17.7C10.43 17.74 10.33 17.76 10.23 17.76C10.13 17.76 10.04 17.74 9.94 17.7C9.85 17.66 9.77 17.61 9.7 17.54L6.75001 14.59C6.46 14.3 6.46 13.82 6.75001 13.53C7.04 13.24 7.52 13.24 7.81 13.53L9.48 15.2V7C9.48 6.59 9.82 6.25 10.23 6.25C10.64 6.25 10.99 6.59 10.99 7V17ZM17.24 10.48C17.09 10.63 16.9001 10.7 16.71 10.7C16.52 10.7 16.3301 10.63 16.1801 10.48L14.51 8.81V17C14.51 17.41 14.1701 17.75 13.76 17.75C13.35 17.75 13.01 17.41 13.01 17V7C13.01 6.9 13.0301 6.81 13.07 6.71C13.1501 6.53 13.29 6.38 13.4801 6.3C13.6601 6.22 13.8701 6.22 14.0501 6.3C14.1401 6.34 14.22 6.39 14.2901 6.46L17.24 9.41C17.5301 9.71 17.5301 10.19 17.24 10.48Z" fill="white"/>
</svg>
