<svg width="24" height="24" viewBox="0 0 24 24" fill="none" xmlns="http://www.w3.org/2000/svg">
<path fill-rule="evenodd" clip-rule="evenodd" d="M12.0004 21.5984C17.3024 21.5984 21.6004 17.3004 21.6004 11.9984C21.6004 6.6965 17.3024 2.39844 12.0004 2.39844C6.69845 2.39844 2.40039 6.6965 2.40039 11.9984C2.40039 17.3004 6.69845 21.5984 12.0004 21.5984ZM12.9004 8.09844C12.9004 7.60139 12.4974 7.19844 12.0004 7.19844C11.5033 7.19844 11.1004 7.60139 11.1004 8.09844V13.6066L8.7599 11.086C8.42168 10.7218 7.85222 10.7007 7.48798 11.0389C7.12375 11.3771 7.10265 11.9466 7.44088 12.3108L11.3409 16.5108C11.5112 16.6943 11.7501 16.7984 12.0004 16.7984C12.2507 16.7984 12.4896 16.6943 12.6599 16.5108L16.5599 12.3108C16.8981 11.9466 16.8771 11.3771 16.5128 11.0389C16.1486 10.7007 15.5792 10.7218 15.2409 11.086L12.9004 13.6066V8.09844Z" fill="#0F172A"/>
</svg>
