<svg width="24" height="24" viewBox="0 0 24 24" fill="none" xmlns="http://www.w3.org/2000/svg">
<path fill-rule="evenodd" clip-rule="evenodd" d="M18 11.9992C18 12.4963 17.597 12.8992 17.1 12.8992H9.1345L11.7238 15.2505C12.0821 15.595 12.0932 16.1648 11.7487 16.523C11.4042 16.8813 10.8345 16.8925 10.4762 16.5479L6.2762 12.6479C6.09973 12.4783 6 12.244 6 11.9992C6 11.7544 6.09973 11.5202 6.2762 11.3505L10.4762 7.45047C10.8345 7.10595 11.4042 7.11713 11.7487 7.47542C12.0932 7.83372 12.0821 8.40345 11.7238 8.74797L9.1345 11.0992H17.1C17.597 11.0992 18 11.5022 18 11.9992Z" fill="#0F172A"/>
</svg>
