<svg width="24" height="24" viewBox="0 0 24 24" fill="none" xmlns="http://www.w3.org/2000/svg">
<path fill-rule="evenodd" clip-rule="evenodd" d="M12.0004 21.5984C17.3024 21.5984 21.6004 17.3004 21.6004 11.9984C21.6004 6.6965 17.3024 2.39844 12.0004 2.39844C6.69845 2.39844 2.40039 6.6965 2.40039 11.9984C2.40039 17.3004 6.69845 21.5984 12.0004 21.5984ZM8.10039 11.0984C7.60334 11.0984 7.20039 11.5014 7.20039 11.9984C7.20039 12.4955 7.60334 12.8984 8.10039 12.8984H13.6085L11.088 15.2389C10.7237 15.5772 10.7027 16.1466 11.0409 16.5108C11.3791 16.8751 11.9486 16.8961 12.3128 16.558L16.5128 12.658C16.6962 12.4877 16.8004 12.2488 16.8004 11.9984C16.8004 11.7482 16.6962 11.5092 16.5128 11.3389L12.3128 7.43892C11.9486 7.1007 11.3791 7.12179 11.0409 7.48603C10.7027 7.85027 10.7237 8.41973 11.088 8.75796L13.6085 11.0984H8.10039Z" fill="#0F172A"/>
</svg>
