<svg width="24" height="24" viewBox="0 0 24 24" fill="none" xmlns="http://www.w3.org/2000/svg">
<path d="M15.9368 9.33483L19.8004 5.47123V8.69844C19.8004 9.19549 20.2034 9.59844 20.7004 9.59844C21.1974 9.59844 21.6004 9.19549 21.6004 8.69844V3.29844C21.6004 2.80139 21.1974 2.39844 20.7004 2.39844H15.3004C14.8034 2.39844 14.4004 2.80139 14.4004 3.29844C14.4004 3.79549 14.8034 4.19844 15.3004 4.19844H18.5275L14.664 8.06204C14.3126 8.41351 14.3126 8.98337 14.664 9.33483C15.0155 9.6863 15.5853 9.6863 15.9368 9.33483Z" fill="#0F172A"/>
<path d="M2.40039 20.6984V15.2984C2.40039 14.8014 2.80334 14.3984 3.30039 14.3984C3.79744 14.3984 4.20039 14.8014 4.20039 15.2984V18.5256L8.06399 14.6621C8.41546 14.3106 8.98532 14.3106 9.33679 14.6621C9.68825 15.0136 9.68825 15.5833 9.33679 15.9348L5.47318 19.7984H8.70039C9.19744 19.7984 9.60039 20.2014 9.60039 20.6984C9.60039 21.1955 9.19744 21.5984 8.70039 21.5984H3.30039C3.07006 21.5984 2.83973 21.5106 2.66399 21.3348C2.5777 21.2485 2.5126 21.149 2.46868 21.043C2.42468 20.9369 2.40039 20.8205 2.40039 20.6984Z" fill="#0F172A"/>
<path d="M14.664 15.9348L18.5275 19.7984H15.3004C14.8034 19.7984 14.4004 20.2014 14.4004 20.6984C14.4004 21.1955 14.8034 21.5984 15.3004 21.5984H20.7004C20.9307 21.5984 21.1611 21.5106 21.3368 21.3348C21.423 21.2485 21.4882 21.149 21.5321 21.043C21.5762 20.9369 21.6004 20.8205 21.6004 20.6984V15.2984C21.6004 14.8014 21.1974 14.3984 20.7004 14.3984C20.2034 14.3984 19.8004 14.8014 19.8004 15.2984V18.5256L15.9368 14.6621C15.5853 14.3106 15.0155 14.3106 14.664 14.6621C14.3126 15.0136 14.3126 15.5833 14.664 15.9348Z" fill="#0F172A"/>
<path d="M4.20039 5.47123L8.06399 9.33483C8.41546 9.6863 8.98532 9.6863 9.33679 9.33483C9.68825 8.98337 9.68825 8.41351 9.33679 8.06204L5.47318 4.19844H8.70039C9.19744 4.19844 9.60039 3.79549 9.60039 3.29844C9.60039 2.80139 9.19744 2.39844 8.70039 2.39844H3.30039C2.80334 2.39844 2.40039 2.80139 2.40039 3.29844V8.69844C2.40039 9.19549 2.80334 9.59844 3.30039 9.59844C3.79744 9.59844 4.20039 9.19549 4.20039 8.69844V5.47123Z" fill="#0F172A"/>
</svg>
