<svg width="24" height="24" viewBox="0 0 24 24" fill="none" xmlns="http://www.w3.org/2000/svg">
<path d="M12.9 3.29844C12.9 2.80139 12.497 2.39844 12 2.39844C11.5029 2.39844 11.1 2.80139 11.1 3.29844V13.6348L7.55431 9.88047C7.21302 9.51911 6.6434 9.50283 6.28204 9.84412C5.92068 10.1854 5.9044 10.755 6.24569 11.1164L11.3457 16.5164C11.5157 16.6964 11.7524 16.7984 12 16.7984C12.2476 16.7984 12.4843 16.6964 12.6544 16.5164L17.7544 11.1164C18.0956 10.755 18.0793 10.1854 17.718 9.84412C17.3566 9.50283 16.787 9.51911 16.4456 9.88047L12.9 13.6348V3.29844Z" fill="#0F172A"/>
<path d="M4.20039 15.2984C4.20039 14.8014 3.79744 14.3984 3.30039 14.3984C2.80334 14.3984 2.40039 14.8014 2.40039 15.2984V18.2984C2.40039 20.121 3.87785 21.5984 5.70039 21.5984H18.3004C20.123 21.5984 21.6004 20.121 21.6004 18.2984V15.2984C21.6004 14.8014 21.1974 14.3984 20.7004 14.3984C20.2034 14.3984 19.8004 14.8014 19.8004 15.2984V18.2984C19.8004 19.1269 19.1289 19.7984 18.3004 19.7984H5.70039C4.87196 19.7984 4.20039 19.1269 4.20039 18.2984V15.2984Z" fill="#0F172A"/>
</svg>
