<svg width="24" height="24" viewBox="0 0 24 24" fill="none" xmlns="http://www.w3.org/2000/svg">
<path fill-rule="evenodd" clip-rule="evenodd" d="M9.59962 1.19922C10.0967 1.19922 10.4996 1.60217 10.4996 2.09922V7.19922H8.69962V2.09922C8.69962 1.60217 9.10256 1.19922 9.59962 1.19922ZM8.69962 7.19922V11.1539L7.56858 9.89715C7.23606 9.52769 6.66701 9.49773 6.29755 9.83025C5.92809 10.1628 5.89814 10.7318 6.23066 11.1013L8.93066 14.1013C9.10133 14.291 9.34448 14.3992 9.59962 14.3992C9.85475 14.3992 10.0979 14.291 10.2686 14.1013L12.9686 11.1013C13.3011 10.7318 13.2711 10.1628 12.9016 9.83025C12.5322 9.49773 11.9632 9.52769 11.6307 9.89715L10.4996 11.1539V7.19922H12.8996C14.3907 7.19922 15.5996 8.40805 15.5996 9.89922V15.2992C15.5996 16.7903 14.3907 17.9992 12.8996 17.9992H6.29961C4.80844 17.9992 3.59961 16.7903 3.59961 15.2992V9.89922C3.59961 8.40805 4.80844 7.19922 6.29961 7.19922H8.69962ZM8.39961 20.0992V19.7992H12.8996C15.3849 19.7992 17.3996 17.7845 17.3996 15.2992V11.9992H17.6996C19.1907 11.9992 20.3996 13.2081 20.3996 14.6992V20.0992C20.3996 21.5903 19.1907 22.7992 17.6996 22.7992H11.0996C9.60844 22.7992 8.39961 21.5903 8.39961 20.0992Z" fill="#0F172A"/>
</svg>
