<svg width="24" height="24" viewBox="0 0 24 24" fill="none" xmlns="http://www.w3.org/2000/svg">
<path d="M12 22.7499C11.59 22.7499 11.25 22.41 11.25 21.9999V20C11.25 19.59 11.59 19.25 12 19.25C12.41 19.25 12.75 19.59 12.75 20V21.9999C12.75 22.41 12.41 22.7499 12 22.7499Z" fill="white"/>
<path d="M12 18.75C11.59 18.75 11.25 18.4101 11.25 18V16C11.25 15.5901 11.59 15.25 12 15.25C12.41 15.25 12.75 15.5901 12.75 16V18C12.75 18.4101 12.41 18.75 12 18.75Z" fill="white"/>
<path d="M12 14.75C11.59 14.75 11.25 14.41 11.25 14V11C11.25 6.73 14.73 3.25 19 3.25H22C22.41 3.25 22.75 3.59 22.75 4C22.75 4.41 22.41 4.75 22 4.75H19C15.55 4.75 12.75 7.55 12.75 11V14C12.75 14.41 12.41 14.75 12 14.75Z" fill="white"/>
<path d="M12 14.75C11.59 14.75 11.25 14.41 11.25 14V11C11.25 7.55 8.45 4.75 5 4.75H2C1.59001 4.75 1.25 4.41 1.25 4C1.25 3.59 1.59001 3.25 2 3.25H5C9.27001 3.25 12.75 6.73 12.75 11V14C12.75 14.41 12.41 14.75 12 14.75Z" fill="white"/>
<path d="M3.99945 6.7475C3.80946 6.7475 3.61945 6.6775 3.46945 6.5275L1.46946 4.5275C1.17945 4.2375 1.17945 3.7575 1.46946 3.46751L3.46945 1.4675C3.75945 1.1775 4.23945 1.1775 4.52946 1.4675C4.81945 1.75751 4.81945 2.23751 4.52946 2.5275L3.05946 3.9975L4.52946 5.4675C4.81945 5.7575 4.81945 6.2375 4.52946 6.5275C4.37946 6.6775 4.18945 6.7475 3.99945 6.7475Z" fill="white"/>
<path d="M19.9995 6.7475C19.8094 6.7475 19.6195 6.6775 19.4695 6.5275C19.1794 6.2375 19.1794 5.7575 19.4695 5.4675L20.9395 3.9975L19.4695 2.5275C19.1794 2.23751 19.1794 1.75751 19.4695 1.4675C19.7595 1.1775 20.2395 1.1775 20.5294 1.4675L22.5295 3.46751C22.8195 3.7575 22.8195 4.2375 22.5295 4.5275L20.5294 6.5275C20.3794 6.6775 20.1895 6.7475 19.9995 6.7475Z" fill="white"/>
</svg>
