<svg width="24" height="24" viewBox="0 0 24 24" fill="none" xmlns="http://www.w3.org/2000/svg">
<path fill-rule="evenodd" clip-rule="evenodd" d="M18.3752 13.7068C17.4318 17.2276 13.8128 19.3171 10.2919 18.3738C9.1291 18.0621 8.12465 17.4602 7.33299 16.667L6.95914 16.2932L9.87902 16.2927C10.3761 16.2926 10.7789 15.8895 10.7789 15.3925C10.7788 14.8954 10.3758 14.4926 9.87869 14.4927L4.78658 14.4936C4.54787 14.4936 4.31897 14.5885 4.15022 14.7573C3.98146 14.9262 3.88668 15.1551 3.88673 15.3938L3.88781 20.484C3.88791 20.981 4.29094 21.3838 4.78799 21.3837C5.28506 21.3837 5.68791 20.9806 5.68781 20.4836L5.6872 17.5669L6.05902 17.9386C7.06826 18.9496 8.34947 19.7167 9.82606 20.1123C14.3071 21.313 18.9132 18.6538 20.1139 14.1727C20.2426 13.6926 19.9577 13.1991 19.4776 13.0704C18.9974 12.9417 18.5039 13.2267 18.3752 13.7068ZM19.8499 9.23996C20.0188 9.07114 20.1136 8.84218 20.1134 8.60347L20.1127 3.51312C20.1126 3.01607 19.7095 2.6132 19.2125 2.61328C18.7154 2.61335 18.3126 3.01637 18.3127 3.51343L18.3131 6.43047L17.9413 6.05868C16.9321 5.04778 15.6506 4.28045 14.1742 3.88484C9.6931 2.68413 5.08707 5.34341 3.88636 9.82454C3.75771 10.3047 4.04264 10.7982 4.52276 10.9268C5.00288 11.0554 5.49638 10.7705 5.62503 10.2904C6.56844 6.76953 10.1875 4.68009 13.7083 5.6235C14.8712 5.9351 15.8756 6.5371 16.6674 7.33028L17.0407 7.70361H14.1223C13.6253 7.70361 13.2223 8.10656 13.2223 8.60361C13.2223 9.10067 13.6253 9.50361 14.1223 9.50361H19.2134C19.4522 9.50361 19.6812 9.40877 19.8499 9.23996Z" fill="#0F172A"/>
</svg>
