<svg width="24" height="24" viewBox="0 0 24 24" fill="none" xmlns="http://www.w3.org/2000/svg">
<path d="M7.53639 6.2636C7.18493 5.91213 6.61507 5.91213 6.2636 6.2636C5.91213 6.61507 5.91213 7.18493 6.2636 7.53639L14.9272 16.2H8.1C7.60295 16.2 7.2 16.603 7.2 17.1C7.2 17.597 7.60295 18 8.1 18H17.1C17.222 18 17.3384 17.9758 17.4445 17.9317C17.5482 17.8888 17.6456 17.8256 17.7305 17.7422C17.7344 17.7384 17.7384 17.7344 17.7422 17.7305C17.8256 17.6456 17.8888 17.5482 17.9317 17.4445C17.9758 17.3384 18 17.222 18 17.1V8.1C18 7.60295 17.597 7.2 17.1 7.2C16.603 7.2 16.2 7.60295 16.2 8.1V14.9272L7.53639 6.2636Z" fill="#0F172A"/>
</svg>
