<svg width="24" height="24" viewBox="0 0 24 24" fill="none" xmlns="http://www.w3.org/2000/svg">
<path d="M16.5008 8.39922H12.9008V14.7538L15.2318 12.2972C15.5643 11.9277 16.1333 11.8977 16.5028 12.2302C16.8723 12.5627 16.9023 13.1318 16.5698 13.5013L12.6698 17.7013C12.499 17.891 12.2559 17.9992 12.0008 17.9992C11.7456 17.9992 11.5025 17.891 11.3318 17.7013L7.43183 13.5013C7.09931 13.1318 7.12926 12.5627 7.49872 12.2302C7.86819 11.8977 8.43724 11.9277 8.76976 12.2972L11.1008 14.7538V8.39922H12.9008V2.09922C12.9008 1.60217 12.4978 1.19922 12.0008 1.19922C11.5037 1.19922 11.1008 1.60217 11.1008 2.09922L11.1008 8.39922H7.50078C6.00961 8.39922 4.80078 9.60805 4.80078 11.0992V20.0992C4.80078 21.5903 6.00961 22.7992 7.50078 22.7992H16.5008C17.9919 22.7992 19.2008 21.5903 19.2008 20.0992V11.0992C19.2008 9.60805 17.9919 8.39922 16.5008 8.39922Z" fill="#0F172A"/>
</svg>
