<svg width="24" height="24" viewBox="0 0 24 24" fill="none" xmlns="http://www.w3.org/2000/svg">
<path fill-rule="evenodd" clip-rule="evenodd" d="M20.3996 12.0008C20.3996 12.4978 19.9966 12.9008 19.4996 12.9008H6.73411L11.7234 17.6521C12.0817 17.9966 12.0928 18.5663 11.7484 18.9245C11.4038 19.2829 10.8341 19.294 10.4758 18.9495L3.87581 12.6495C3.69934 12.4798 3.59961 12.2456 3.59961 12.0008C3.59961 11.756 3.69934 11.5217 3.87581 11.352L10.4758 5.05204C10.8341 4.70752 11.4038 4.71869 11.7484 5.07699C12.0928 5.43528 12.0817 6.00502 11.7234 6.34954L6.73411 11.1008H19.4996C19.9966 11.1008 20.3996 11.5037 20.3996 12.0008Z" fill="#0F172A"/>
</svg>
