<svg width="24" height="24" viewBox="0 0 24 24" fill="none" xmlns="http://www.w3.org/2000/svg">
<path fill-rule="evenodd" clip-rule="evenodd" d="M11.9992 21.5984C11.5022 21.5984 11.0992 21.1955 11.0992 20.6984V5.59032L8.75874 8.11085C8.42052 8.47508 7.85106 8.49618 7.48681 8.15796C7.12257 7.81973 7.10149 7.25028 7.43971 6.88603L11.3397 2.68603C11.51 2.50265 11.749 2.39844 11.9992 2.39844C12.2495 2.39844 12.4885 2.50265 12.6587 2.68603L16.5587 6.88603C16.897 7.25027 16.8759 7.81973 16.5116 8.15795C16.1474 8.49618 15.578 8.47508 15.2397 8.11085L12.8992 5.59032V20.6984C12.8992 21.1955 12.4963 21.5984 11.9992 21.5984Z" fill="#0F172A"/>
</svg>
