<svg width="24" height="24" viewBox="0 0 24 24" fill="none" xmlns="http://www.w3.org/2000/svg">
<path fill-rule="evenodd" clip-rule="evenodd" d="M12.0004 21.5984C17.3024 21.5984 21.6004 17.3004 21.6004 11.9984C21.6004 6.6965 17.3024 2.39844 12.0004 2.39844C6.69845 2.39844 2.40039 6.6965 2.40039 11.9984C2.40039 17.3004 6.69845 21.5984 12.0004 21.5984ZM11.1004 15.8984C11.1004 16.3955 11.5033 16.7984 12.0004 16.7984C12.4974 16.7984 12.9004 16.3955 12.9004 15.8984V10.3903L15.2409 12.9108C15.5792 13.2751 16.1486 13.2961 16.5128 12.958C16.8771 12.6197 16.8981 12.0503 16.5599 11.686L12.6599 7.48603C12.4896 7.30265 12.2507 7.19844 12.0004 7.19844C11.7501 7.19844 11.5112 7.30265 11.3409 7.48603L7.44088 11.686C7.10265 12.0503 7.12375 12.6197 7.48798 12.958C7.85222 13.2961 8.42168 13.2751 8.75991 12.9108L11.1004 10.3903V15.8984Z" fill="#0F172A"/>
</svg>
