<svg width="24" height="24" viewBox="0 0 24 24" fill="none" xmlns="http://www.w3.org/2000/svg">
<path fill-rule="evenodd" clip-rule="evenodd" d="M2.68798 8.15796C3.05223 8.49618 3.62169 8.47508 3.95991 8.11085L6.30039 5.59032V15.8984C6.30039 16.3955 6.70334 16.7984 7.20039 16.7984C7.69745 16.7984 8.10039 16.3955 8.10039 15.8984V5.59032L10.4409 8.11085C10.7791 8.47508 11.3486 8.49618 11.7128 8.15795C12.0771 7.81973 12.0982 7.25027 11.7599 6.88603L7.85991 2.68603C7.68962 2.50265 7.45065 2.39844 7.20039 2.39844C6.95013 2.39844 6.71117 2.50265 6.54088 2.68603L2.64088 6.88603C2.30266 7.25027 2.32375 7.81973 2.68798 8.15796ZM12.288 15.8389C11.9237 16.1772 11.9027 16.7466 12.2409 17.1108L16.1409 21.3108C16.3112 21.4943 16.5502 21.5984 16.8004 21.5984C17.0507 21.5984 17.2896 21.4943 17.4599 21.3108L21.3599 17.1108C21.6982 16.7466 21.6771 16.1772 21.3127 15.8389C20.9485 15.5008 20.3791 15.5218 20.0409 15.8861L17.7004 18.4066V8.09844C17.7004 7.60139 17.2974 7.19844 16.8004 7.19844C16.3034 7.19844 15.9004 7.60139 15.9004 8.09844V18.4066L13.5599 15.8861C13.2216 15.5218 12.6522 15.5008 12.288 15.8389Z" fill="#0F172A"/>
</svg>
