<svg width="24" height="24" viewBox="0 0 24 24" fill="none" xmlns="http://www.w3.org/2000/svg">
<path fill-rule="evenodd" clip-rule="evenodd" d="M6.48495 17.5139C3.43886 14.4678 3.43886 9.52909 6.48495 6.48301C9.53105 3.43692 14.4697 3.43692 17.5158 6.48301C19.0391 8.00623 19.8003 10.0008 19.8003 11.9984C19.8003 12.8269 19.1286 13.4984 18.3001 13.4984C17.4717 13.4984 16.8001 12.8269 16.8001 11.9984C16.8001 9.34747 14.6511 7.19844 12.0001 7.19844C9.34914 7.19844 7.20011 9.34747 7.20011 11.9984C7.20011 14.6494 9.34914 16.7984 12.0001 16.7984C13.7466 16.7984 15.2751 15.8658 16.1149 14.4713C16.697 14.9861 17.462 15.2984 18.3001 15.2984C20.1138 15.2984 21.5858 13.8353 21.6 12.0248C21.6002 12.0161 21.6003 12.0073 21.6003 11.9984C21.6003 9.54297 20.6629 7.08456 18.7886 5.21022C15.0396 1.46118 8.96119 1.46118 5.21216 5.21022C1.46313 8.95925 1.46313 15.0377 5.21216 18.7867C8.96119 22.5356 15.0396 22.5356 18.7886 18.7867C19.1401 18.4352 19.1401 17.8654 18.7886 17.5139C18.4371 17.1624 17.8673 17.1624 17.5158 17.5139C14.4697 20.56 9.53105 20.56 6.48495 17.5139ZM12.0001 8.99844C10.3433 8.99844 9.00011 10.3416 9.00011 11.9984C9.00011 13.6553 10.3433 14.9984 12.0001 14.9984C13.6569 14.9984 15.0001 13.6553 15.0001 11.9984C15.0001 10.3416 13.6569 8.99844 12.0001 8.99844Z" fill="#0F172A"/>
</svg>
