<svg width="24" height="24" viewBox="0 0 24 24" fill="none" xmlns="http://www.w3.org/2000/svg">
<path d="M12 2C6.48001 2 2 6.48 2 12C2 17.52 6.48001 22 12 22C17.52 22 22.0001 17.52 22.0001 12C22.0001 6.48 17.52 2 12 2ZM10.7 16.14H6.44C6.25 16.14 6.12998 15.93 6.22999 15.76L8.35999 12.21C8.46 12.05 8.68999 12.05 8.78998 12.21L10.92 15.76C11.02 15.93 10.9 16.14 10.7 16.14ZM9.87001 10.14C9.68 10.14 9.55997 9.92998 9.65997 9.75999L11.79 6.21001C11.89 6.05001 12.12 6.05001 12.2201 6.21001L14.3501 9.75999C14.45 9.92998 14.33 10.14 14.1401 10.14H9.87001ZM17.5601 16.14H13.3001C13.11 16.14 12.99 15.93 13.0901 15.76L15.2201 12.21C15.32 12.05 15.5501 12.05 15.65 12.21L17.78 15.76C17.87 15.93 17.75 16.14 17.5601 16.14Z" fill="white"/>
</svg>
