<svg width="24" height="24" viewBox="0 0 24 24" fill="none" xmlns="http://www.w3.org/2000/svg">
<path d="M17.8114 5.49V6.23L14.2714 4.18C12.9313 3.41 11.0614 3.41 9.73141 4.18L6.19141 6.24V5.49C6.19141 3.24 7.42141 2 9.67141 2H14.3314C16.5814 2 17.8114 3.24 17.8114 5.49Z" fill="white"/>
<path d="M17.84 7.96829L17.7 7.89828L16.34 7.11828L13.52 5.48828C12.66 4.98828 11.34 4.98828 10.48 5.48828L7.66 7.10828L6.30001 7.90829L6.12001 7.99829C4.37 9.17828 4.25 9.39828 4.25 11.2883V15.8083C4.25 17.6983 4.37 17.9182 6.16 19.1283L10.48 21.6183C10.91 21.8782 11.45 21.9883 12 21.9883C12.54 21.9883 13.0901 21.8683 13.52 21.6183L17.88 19.0983C19.64 17.9182 19.7501 17.7082 19.7501 15.8083V11.2883C19.7501 9.39828 19.6301 9.17828 17.84 7.96829ZM14.79 13.4983L14.18 14.2483C14.0801 14.3583 14.01 14.5683 14.0201 14.7183L14.0801 15.6783C14.12 16.2682 13.7 16.5682 13.1501 16.3582L12.26 15.9982C12.12 15.9483 11.89 15.9483 11.75 15.9982L10.86 16.3483C10.31 16.5682 9.89 16.2583 9.93001 15.6682L9.99001 14.7082C10 14.5582 9.93001 14.3482 9.83 14.2383L9.21001 13.4983C8.83 13.0483 9.00001 12.5482 9.57001 12.3982L10.5 12.1582C10.65 12.1183 10.82 11.9783 10.9 11.8583L11.42 11.0583C11.74 10.5582 12.2501 10.5582 12.5801 11.0583L13.1 11.8583C13.1801 11.9883 13.3601 12.1183 13.5 12.1582L14.43 12.3982C15 12.5482 15.17 13.0483 14.79 13.4983Z" fill="white"/>
</svg>
