<svg width="24" height="24" viewBox="0 0 24 24" fill="none" xmlns="http://www.w3.org/2000/svg">
<path d="M12.3787 16.9204H10.0886C9.67866 16.9204 9.33866 16.5803 9.33866 16.1704C9.33866 15.7603 9.67866 15.4204 10.0886 15.4204H12.3787C12.8086 15.4204 13.1587 15.0703 13.1587 14.6404C13.1587 14.2103 12.8086 13.8604 12.3787 13.8604H10.0886C9.84866 13.8604 9.61866 13.7404 9.47867 13.5503C9.33866 13.3603 9.29867 13.1003 9.37866 12.8704L10.1386 10.5803C10.2386 10.2703 10.5286 10.0703 10.8486 10.0703H13.9087C14.3186 10.0703 14.6587 10.4103 14.6587 10.8203C14.6587 11.2303 14.3186 11.5703 13.9087 11.5703H11.3886L11.1286 12.3604H12.3787C13.6387 12.3604 14.6587 13.3804 14.6587 14.6404C14.6587 15.9004 13.6387 16.9204 12.3787 16.9204Z" fill="white"/>
<path d="M11.9996 3.47945C11.9196 3.47945 11.8396 3.48945 11.7596 3.48945L12.5796 2.46945C12.8396 2.14946 12.7896 1.66946 12.4596 1.41945C12.1296 1.16945 11.6696 1.20945 11.4096 1.53945L9.43961 3.99945C9.42961 4.00946 9.42961 4.01945 9.4196 4.03946C9.3896 4.07945 9.36961 4.12946 9.34961 4.16945C9.3296 4.21946 9.30961 4.25945 9.2996 4.29945C9.28961 4.34945 9.28961 4.38945 9.28961 4.43945C9.28961 4.48946 9.28961 4.53945 9.28961 4.58945C9.28961 4.60946 9.28961 4.61945 9.28961 4.63946C9.2996 4.66946 9.31961 4.68945 9.3296 4.71945C9.34961 4.76945 9.36961 4.80945 9.3896 4.85945C9.4196 4.89945 9.4496 4.93946 9.48961 4.96946C9.5096 4.99946 9.51961 5.02946 9.54961 5.04945C9.5696 5.05946 9.57961 5.06945 9.5996 5.07945C9.6296 5.09945 9.64961 5.10945 9.67961 5.11946C9.72961 5.14946 9.78961 5.16945 9.84961 5.17946C9.87961 5.19945 9.90961 5.19945 9.93961 5.19945C9.96961 5.19945 9.9896 5.20946 10.0196 5.20946C10.0496 5.20946 10.0696 5.19945 10.0896 5.18945C10.1196 5.18945 10.1496 5.19945 10.1796 5.18945C10.8196 5.03945 11.4196 4.96946 11.9896 4.96946C16.4796 4.96946 20.1296 8.61945 20.1296 13.1095C20.1296 17.5994 16.4796 21.2495 11.9896 21.2495C7.4996 21.2495 3.84961 17.5994 3.84961 13.1095C3.84961 11.3695 4.41961 9.68945 5.49961 8.24945C5.74961 7.91945 5.67961 7.44945 5.34961 7.19945C5.01961 6.94946 4.54961 7.01945 4.29961 7.34945C3.01961 9.04946 2.34961 11.0395 2.34961 13.1095C2.34961 18.4195 6.66961 22.7495 11.9896 22.7495C17.3096 22.7495 21.6296 18.4295 21.6296 13.1095C21.6296 7.78946 17.3096 3.47945 11.9996 3.47945Z" fill="white"/>
</svg>
