<svg width="24" height="24" viewBox="0 0 24 24" fill="none" xmlns="http://www.w3.org/2000/svg">
<path d="M16.19 2H7.81C4.17001 2 2 4.17 2 7.81V16.18C2 19.83 4.17001 22 7.81 22H16.1801C19.82 22 21.99 19.83 21.99 16.19V7.81C22.0001 4.17 19.83 2 16.19 2ZM13.92 16.13H9.00001C8.59 16.13 8.25001 15.79 8.25001 15.38C8.25001 14.97 8.59 14.63 9.00001 14.63H13.92C15.2 14.63 16.25 13.59 16.25 12.3C16.25 11.01 15.21 9.97 13.92 9.97H8.85001L9.11 10.23C9.4 10.53 9.4 11 9.1 11.3C8.95 11.45 8.76001 11.52 8.57 11.52C8.38 11.52 8.19001 11.45 8.04001 11.3L6.47 9.72C6.18001 9.43 6.18001 8.95 6.47 8.66L8.04001 7.09C8.33 6.8 8.81 6.8 9.1 7.09C9.39001 7.38 9.39001 7.86 9.1 8.15L8.77 8.48H13.92C16.0301 8.48 17.75 10.2 17.75 12.31C17.75 14.42 16.0301 16.13 13.92 16.13Z" fill="white"/>
</svg>
