<svg width="24" height="24" viewBox="0 0 24 24" fill="none" xmlns="http://www.w3.org/2000/svg">
<path d="M9.53955 16.6669C9.12955 16.6669 8.78955 16.3268 8.78955 15.9169V12.5269L8.59956 12.7469C8.31955 13.0568 7.84956 13.0769 7.53955 12.8069C7.22955 12.5269 7.20955 12.0569 7.47955 11.7469L8.97955 10.0769C9.18955 9.84691 9.51955 9.7669 9.80955 9.87691C10.0996 9.9869 10.2896 10.2669 10.2896 10.5769V15.9269C10.2896 16.3369 9.95955 16.6669 9.53955 16.6669Z" fill="white"/>
<path d="M12.0011 3.48364C11.9211 3.48364 11.8411 3.49364 11.7611 3.49364L12.5811 2.47364C12.8411 2.15364 12.7911 1.67364 12.4611 1.42364C12.141 1.16364 11.6711 1.21364 11.4111 1.54364L9.44109 4.00364C9.43109 4.01364 9.43109 4.02364 9.42109 4.04364C9.39109 4.08364 9.37109 4.13364 9.35109 4.17364C9.33109 4.22364 9.31109 4.26364 9.30109 4.30364C9.29108 4.35364 9.29109 4.39364 9.29109 4.44364C9.29109 4.49364 9.29109 4.54364 9.29109 4.59364C9.29109 4.61364 9.29109 4.62364 9.29109 4.64364C9.30109 4.67364 9.32109 4.69364 9.33109 4.73364C9.35109 4.78364 9.36109 4.82364 9.39109 4.86364C9.42109 4.90365 9.45109 4.94364 9.49109 4.98364C9.51109 5.00364 9.53109 5.03364 9.55109 5.05365C9.56109 5.06364 9.58109 5.06364 9.59109 5.07364C9.62109 5.09364 9.65109 5.11365 9.69109 5.12364C9.74109 5.15364 9.79109 5.17364 9.84109 5.18364C9.88109 5.20364 9.91109 5.20365 9.95109 5.20365C9.98109 5.20365 10.0011 5.21364 10.0311 5.21364C10.0511 5.21364 10.0811 5.20364 10.1011 5.19364C10.1311 5.19364 10.1611 5.19364 10.2011 5.19364C10.8411 5.04364 11.4411 4.97364 12.0111 4.97364C16.5011 4.97364 20.151 8.62364 20.151 13.1136C20.151 17.6036 16.5011 21.2536 12.0111 21.2536C7.52109 21.2536 3.87109 17.6036 3.87109 13.1136C3.87109 11.3736 4.44109 9.69364 5.52109 8.25364C5.77109 7.92364 5.70109 7.45364 5.37109 7.20364C5.04109 6.95364 4.57109 7.02364 4.32109 7.35364C3.04109 9.05364 2.37109 11.0436 2.37109 13.1136C2.37109 18.4236 6.69109 22.7536 12.0111 22.7536C17.331 22.7536 21.651 18.4336 21.651 13.1136C21.651 7.79364 17.3111 3.48364 12.0011 3.48364Z" fill="white"/>
<path d="M14 16.6703C12.48 16.6703 11.25 15.4403 11.25 13.9204V12.5704C11.25 11.0503 12.48 9.82031 14 9.82031C15.52 9.82031 16.75 11.0503 16.75 12.5704V13.9204C16.75 15.4403 15.52 16.6703 14 16.6703ZM14 11.3303C13.31 11.3303 12.75 11.8903 12.75 12.5803V13.9303C12.75 14.6203 13.31 15.1804 14 15.1804C14.69 15.1804 15.25 14.6203 15.25 13.9303V12.5803C15.25 11.8903 14.69 11.3303 14 11.3303Z" fill="white"/>
</svg>
