<svg width="24" height="24" viewBox="0 0 24 24" fill="none" xmlns="http://www.w3.org/2000/svg">
<path fill-rule="evenodd" clip-rule="evenodd" d="M8.66399 3.86517C8.83277 3.69639 9.0617 3.60156 9.30039 3.60156H20.1004C21.5915 3.60156 22.8004 4.81039 22.8004 6.30156V17.7016C22.8004 19.1927 21.5915 20.4016 20.1004 20.4016H9.30039C9.0617 20.4016 8.83277 20.3068 8.66399 20.1379L1.16399 12.6379C0.812523 12.2864 0.812523 11.7166 1.16399 11.3652L8.66399 3.86517ZM12.3368 8.66517C11.9853 8.3137 11.4155 8.3137 11.064 8.66517C10.7125 9.01663 10.7125 9.58649 11.064 9.93796L13.1275 12.0016L11.064 14.0652C10.7125 14.4167 10.7125 14.9864 11.064 15.3379C11.4155 15.6894 11.9853 15.6894 12.3368 15.3379L14.4004 13.2744L16.464 15.3379C16.8155 15.6894 17.3853 15.6894 17.7367 15.3379C18.0882 14.9864 18.0882 14.4167 17.7367 14.0652L15.6732 12.0016L17.7367 9.93796C18.0882 9.58649 18.0882 9.01663 17.7367 8.66517C17.3853 8.3137 16.8155 8.3137 16.464 8.66517L14.4004 10.7288L12.3368 8.66517Z" fill="#0F172A"/>
</svg>
