<svg width="24" height="24" viewBox="0 0 24 24" fill="none" xmlns="http://www.w3.org/2000/svg">
<path d="M21.25 5.15V7.85C21.25 9.69 20.69 10.25 18.85 10.25H16.15C14.31 10.25 13.75 9.69 13.75 7.85V5.15C13.75 3.31 14.31 2.75 16.15 2.75H18.85C20.69 2.75 21.25 3.31 21.25 5.15Z" fill="white"/>
<path d="M10.25 16.15V18.85C10.25 20.6901 9.69001 21.25 7.85 21.25H5.15C3.31 21.25 2.75 20.6901 2.75 18.85V16.15C2.75 14.31 3.31 13.75 5.15 13.75H7.85C9.69001 13.75 10.25 14.31 10.25 16.15Z" fill="white"/>
<path d="M16.1492 11.7472C16.4143 11.7472 16.6292 11.962 16.6292 12.2272V13.6171C16.6292 15.8971 15.8991 16.6272 13.6191 16.6272H12.2291C11.964 16.6272 11.7491 16.4123 11.7491 16.1472C11.7491 13.4872 10.5091 12.2472 7.84914 12.2472C7.58404 12.2472 7.36914 12.0323 7.36914 11.7672V10.3771C7.36914 8.0972 8.09915 7.36719 10.3791 7.36719H11.7691C12.0343 7.36719 12.2492 7.5821 12.2492 7.8472C12.2492 10.5072 13.4891 11.7472 16.1492 11.7472Z" fill="white"/>
</svg>
