<svg width="24" height="24" viewBox="0 0 24 24" fill="none" xmlns="http://www.w3.org/2000/svg">
<path d="M19.2401 5.5786H18.84L15.4601 2.19859C15.1901 1.92859 14.75 1.92859 14.4701 2.19859C14.2001 2.46859 14.2001 2.9086 14.4701 3.18859L16.86 5.5786H7.14001L9.53 3.18859C9.8 2.91859 9.8 2.4786 9.53 2.19859C9.26 1.92859 8.82001 1.92859 8.54 2.19859L5.17 5.5786H4.77001C3.87001 5.5786 2 5.5786 2 8.13859C2 9.1086 2.2 9.7486 2.62 10.1685C2.86 10.4185 3.15001 10.5485 3.46 10.6185C3.75001 10.6885 4.06 10.6985 4.36 10.6985H19.64C19.95 10.6985 20.24 10.6785 20.52 10.6185C21.36 10.4185 22.0001 9.81859 22.0001 8.13859C22.0001 5.5786 20.13 5.5786 19.2401 5.5786Z" fill="white"/>
<path d="M19.0897 12H4.90971C4.2897 12 3.8197 12.55 3.91971 13.16L4.75971 18.3C5.0397 20.02 5.7897 22 9.1197 22H14.7297C18.0997 22 18.6997 20.31 19.0597 18.42L20.0697 13.19C20.1897 12.57 19.7197 12 19.0897 12ZM13.9197 18.89C13.7797 19.04 13.5897 19.11 13.3897 19.11C13.1997 19.11 13.0097 19.04 12.8597 18.89L12.0197 18.04L11.1397 18.92C10.9897 19.07 10.7997 19.14 10.6097 19.14C10.4097 19.14 10.2197 19.07 10.0797 18.92C9.7797 18.63 9.7797 18.16 10.0797 17.86L10.9597 16.98L10.1097 16.14C9.8097 15.84 9.8097 15.37 10.1097 15.08C10.3997 14.78 10.8697 14.78 11.1697 15.08L12.0197 15.92L12.8297 15.11C13.1297 14.81 13.5997 14.81 13.8897 15.11C14.1897 15.4 14.1897 15.87 13.8897 16.17L13.0797 16.98L13.9197 17.83C14.2197 18.13 14.2197 18.6 13.9197 18.89Z" fill="white"/>
</svg>
