<svg width="24" height="24" viewBox="0 0 24 24" fill="none" xmlns="http://www.w3.org/2000/svg">
<path d="M19.9597 8.95843C19.2897 8.21844 18.2797 7.78843 16.8797 7.63843V6.87843C16.8797 5.50843 16.2997 4.18843 15.2797 3.26844C14.2497 2.32843 12.9097 1.88844 11.5197 2.01843C9.12975 2.24844 7.11975 4.55844 7.11975 7.05843V7.63843C5.71974 7.78843 4.70974 8.21844 4.03975 8.95843C3.06975 10.0384 3.09975 11.4784 3.20974 12.4785L3.90975 18.0484C4.11975 19.9984 4.90974 21.9985 9.20974 21.9985H14.7897C19.0897 21.9985 19.8797 19.9984 20.0897 18.0585L20.7897 12.4684C20.8997 11.4784 20.9297 10.0384 19.9597 8.95843ZM11.6597 3.40843C12.6597 3.31843 13.6097 3.62844 14.3497 4.29843C15.0797 4.95843 15.4897 5.89843 15.4897 6.87843V7.57843H8.50974V7.05843C8.50974 5.27844 9.97974 3.56844 11.6597 3.40843ZM11.9997 18.5785C9.90975 18.5785 8.20974 16.8784 8.20974 14.7885C8.20974 12.6985 9.90975 10.9984 11.9997 10.9984C14.0897 10.9984 15.7897 12.6985 15.7897 14.7885C15.7897 16.8784 14.0897 18.5785 11.9997 18.5785Z" fill="white"/>
<path d="M11.4309 16.6399C11.2409 16.6399 11.0509 16.5699 10.9009 16.4199L9.91086 15.4299C9.62086 15.1399 9.62086 14.6599 9.91086 14.37C10.2009 14.0799 10.6809 14.0799 10.9709 14.37L11.4509 14.85L13.0509 13.3699C13.3509 13.0899 13.8309 13.11 14.1109 13.41C14.3908 13.71 14.3709 14.19 14.0709 14.4699L11.9409 16.44C11.7909 16.5699 11.6109 16.6399 11.4309 16.6399Z" fill="white"/>
</svg>
