<svg width="24" height="24" viewBox="0 0 24 24" fill="none" xmlns="http://www.w3.org/2000/svg">
<path d="M19.9597 8.95843C19.2897 8.21844 18.2798 7.78843 16.8797 7.63843V6.87843C16.8797 5.50843 16.2997 4.18843 15.2797 3.26844C14.2497 2.32843 12.9097 1.88844 11.5197 2.01843C9.12975 2.24844 7.11975 4.55844 7.11975 7.05843V7.63843C5.71974 7.78843 4.70974 8.21844 4.03975 8.95843C3.06975 10.0384 3.09975 11.4784 3.20974 12.4785L3.90975 18.0484C4.11975 19.9984 4.90974 21.9985 9.20974 21.9985H14.7897C19.0898 21.9985 19.8797 19.9984 20.0897 18.0585L20.7897 12.4684C20.8997 11.4784 20.9197 10.0384 19.9597 8.95843ZM11.6597 3.40843C12.6597 3.31843 13.6097 3.62844 14.3497 4.29843C15.0797 4.95843 15.4897 5.89843 15.4897 6.87843V7.57843H8.50974V7.05843C8.50974 5.27844 9.97975 3.56844 11.6597 3.40843ZM8.41975 13.1485H8.40975C7.85974 13.1485 7.40974 12.6985 7.40974 12.1485C7.40974 11.5984 7.85974 11.1484 8.40975 11.1484C8.96974 11.1484 9.41974 11.5984 9.41974 12.1485C9.41974 12.6985 8.96974 13.1485 8.41975 13.1485ZM15.4197 13.1485H15.4097C14.8597 13.1485 14.4098 12.6985 14.4098 12.1485C14.4098 11.5984 14.8597 11.1484 15.4097 11.1484C15.9697 11.1484 16.4198 11.5984 16.4198 12.1485C16.4198 12.6985 15.9697 13.1485 15.4197 13.1485Z" fill="white"/>
</svg>
