<svg width="24" height="24" viewBox="0 0 24 24" fill="none" xmlns="http://www.w3.org/2000/svg">
<path d="M19.9597 8.95843C19.2897 8.21844 18.2797 7.78843 16.8797 7.63843V6.87843C16.8797 5.50843 16.2997 4.18843 15.2797 3.26844C14.2497 2.32843 12.9097 1.88844 11.5197 2.01843C9.12975 2.24844 7.11975 4.55844 7.11975 7.05843V7.63843C5.71974 7.78843 4.70974 8.21844 4.03975 8.95843C3.06975 10.0384 3.09975 11.4784 3.20974 12.4785L3.90975 18.0484C4.11975 19.9984 4.90974 21.9985 9.20974 21.9985H14.7897C19.0897 21.9985 19.8797 19.9984 20.0897 18.0585L20.7897 12.4684C20.8997 11.4784 20.9297 10.0384 19.9597 8.95843ZM11.6597 3.40843C12.6597 3.31843 13.6097 3.62844 14.3497 4.29843C15.0797 4.95843 15.4897 5.89843 15.4897 6.87843V7.57843H8.50974V7.05843C8.50974 5.27844 9.97974 3.56844 11.6597 3.40843ZM11.9997 18.5785C9.90975 18.5785 8.20974 16.8784 8.20974 14.7885C8.20974 12.6985 9.90975 10.9984 11.9997 10.9984C14.0897 10.9984 15.7897 12.6985 15.7897 14.7885C15.7897 16.8784 14.0897 18.5785 11.9997 18.5785Z" fill="white"/>
<path d="M10.9999 16.5781C10.7499 16.5781 10.4999 16.4482 10.3599 16.2181C10.1499 15.8681 10.2599 15.3982 10.6199 15.1882L11.5099 14.6581V13.5781C11.5099 13.1681 11.8499 12.8281 12.2599 12.8281C12.6698 12.8281 12.9998 13.1581 12.9998 13.5781V15.0781C12.9998 15.3382 12.8599 15.5881 12.6398 15.7181L11.3899 16.4681C11.2699 16.5382 11.1299 16.5781 10.9999 16.5781Z" fill="white"/>
</svg>
