<svg width="24" height="24" viewBox="0 0 24 24" fill="none" xmlns="http://www.w3.org/2000/svg">
<path d="M19.9597 8.95843C19.2897 8.21844 18.2797 7.78843 16.8797 7.63843V6.87843C16.8797 5.50843 16.2997 4.18843 15.2797 3.26844C14.2497 2.32843 12.9097 1.88844 11.5197 2.01843C9.12975 2.24844 7.11975 4.55844 7.11975 7.05843V7.63843C5.71974 7.78843 4.70974 8.21844 4.03975 8.95843C3.06975 10.0384 3.09975 11.4784 3.20974 12.4785L3.90975 18.0484C4.11975 19.9984 4.90974 21.9985 9.20974 21.9985H14.7897C19.0897 21.9985 19.8797 19.9984 20.0897 18.0585L20.7897 12.4684C20.8997 11.4784 20.9297 10.0384 19.9597 8.95843ZM11.6597 3.40843C12.6597 3.31843 13.6097 3.62844 14.3497 4.29843C15.0797 4.95843 15.4897 5.89843 15.4897 6.87843V7.57843H8.50974V7.05843C8.50974 5.27844 9.97974 3.56844 11.6597 3.40843ZM11.9997 18.5785C9.90975 18.5785 8.20974 16.8784 8.20974 14.7885C8.20974 12.6985 9.90975 10.9984 11.9997 10.9984C14.0897 10.9984 15.7897 12.6985 15.7897 14.7885C15.7897 16.8784 14.0897 18.5785 11.9997 18.5785Z" fill="white"/>
<path d="M13.5992 15.314L13.0691 14.7841L13.5692 14.2841C13.8591 13.994 13.8591 13.514 13.5692 13.224C13.2791 12.9341 12.7991 12.9341 12.5091 13.224L12.0092 13.724L11.4791 13.1941C11.1891 12.9041 10.7092 12.9041 10.4191 13.1941C10.1291 13.484 10.1291 13.964 10.4191 14.2541L10.9492 14.7841L10.3991 15.3341C10.1091 15.6241 10.1091 16.104 10.3991 16.394C10.5491 16.544 10.7392 16.6141 10.9291 16.6141C11.1191 16.6141 11.3092 16.544 11.4592 16.394L12.0092 15.8441L12.5391 16.374C12.6891 16.524 12.8792 16.5941 13.0691 16.5941C13.2591 16.5941 13.4492 16.524 13.5992 16.374C13.8891 16.0841 13.8891 15.614 13.5992 15.314Z" fill="white"/>
</svg>
