<svg width="24" height="24" viewBox="0 0 24 24" fill="none" xmlns="http://www.w3.org/2000/svg">
<path d="M19.2401 5.5786H18.84L15.4601 2.19859C15.1901 1.92859 14.75 1.92859 14.4701 2.19859C14.2001 2.46859 14.2001 2.9086 14.4701 3.18859L16.86 5.5786H7.14001L9.53 3.18859C9.8 2.91859 9.8 2.4786 9.53 2.19859C9.26 1.92859 8.82001 1.92859 8.54 2.19859L5.17 5.5786H4.77001C3.87001 5.5786 2 5.5786 2 8.13859C2 9.1086 2.2 9.7486 2.62 10.1685C2.86 10.4185 3.15001 10.5485 3.46 10.6185C3.75001 10.6885 4.06 10.6985 4.36 10.6985H19.64C19.95 10.6985 20.24 10.6785 20.52 10.6185C21.36 10.4185 22.0001 9.81859 22.0001 8.13859C22.0001 5.5786 20.13 5.5786 19.2401 5.5786Z" fill="white"/>
<path d="M19.0487 12H4.86869C4.2487 12 3.77869 12.55 3.87869 13.16L4.71869 18.3C4.9987 20.02 5.7487 22 9.0787 22H14.6888C18.0587 22 18.6587 20.31 19.0187 18.42L20.0287 13.19C20.1487 12.57 19.6787 12 19.0487 12ZM11.9987 19.5C9.65869 19.5 7.74869 17.59 7.74869 15.25C7.74869 14.84 8.0887 14.5 8.49869 14.5C8.90869 14.5 9.24869 14.84 9.24869 15.25C9.24869 16.77 10.4787 18 11.9987 18C13.5188 18 14.7488 16.77 14.7488 15.25C14.7488 14.84 15.0887 14.5 15.4988 14.5C15.9087 14.5 16.2488 14.84 16.2488 15.25C16.2488 17.59 14.3387 19.5 11.9987 19.5Z" fill="white"/>
</svg>
