<svg width="24" height="24" viewBox="0 0 24 24" fill="none" xmlns="http://www.w3.org/2000/svg">
<path d="M19.2401 5.5786H18.84L15.4601 2.19859C15.1901 1.92859 14.75 1.92859 14.4701 2.19859C14.2001 2.46859 14.2001 2.9086 14.4701 3.18859L16.86 5.5786H7.14001L9.53 3.18859C9.8 2.91859 9.8 2.4786 9.53 2.19859C9.26 1.92859 8.82001 1.92859 8.54 2.19859L5.17 5.5786H4.77001C3.87001 5.5786 2 5.5786 2 8.13859C2 9.1086 2.2 9.7486 2.62 10.1685C2.86 10.4185 3.15001 10.5485 3.46 10.6185C3.75001 10.6885 4.06 10.6985 4.36 10.6985H19.64C19.95 10.6985 20.24 10.6785 20.52 10.6185C21.36 10.4185 22.0001 9.81859 22.0001 8.13859C22.0001 5.5786 20.13 5.5786 19.2401 5.5786Z" fill="white"/>
<path d="M19.0487 12H4.86869C4.2487 12 3.77869 12.55 3.87869 13.16L4.71869 18.3C4.9987 20.02 5.7487 22 9.0787 22H14.6888C18.0587 22 18.6587 20.31 19.0187 18.42L20.0287 13.19C20.1487 12.57 19.6787 12 19.0487 12ZM10.6087 18.45C10.6087 18.84 10.2987 19.15 9.9187 19.15C9.5287 19.15 9.21869 18.84 9.21869 18.45V15.15C9.21869 14.77 9.5287 14.45 9.9187 14.45C10.2987 14.45 10.6087 14.77 10.6087 15.15V18.45ZM14.8887 18.45C14.8887 18.84 14.5787 19.15 14.1887 19.15C13.8087 19.15 13.4888 18.84 13.4888 18.45V15.15C13.4888 14.77 13.8087 14.45 14.1887 14.45C14.5787 14.45 14.8887 14.77 14.8887 15.15V18.45Z" fill="white"/>
</svg>
