<svg width="24" height="24" viewBox="0 0 24 24" fill="none" xmlns="http://www.w3.org/2000/svg">
<path fill-rule="evenodd" clip-rule="evenodd" d="M1.19922 4.80156C1.19922 4.13883 1.73648 3.60156 2.39922 3.60156H21.5992C22.262 3.60156 22.7992 4.13883 22.7992 4.80156V14.4016C22.7992 15.0643 22.262 15.6016 21.5992 15.6016H2.39922C1.73648 15.6016 1.19922 15.0643 1.19922 14.4016V4.80156ZM15.5992 9.60156C15.5992 11.5898 13.9875 13.2016 11.9992 13.2016C10.011 13.2016 8.39922 11.5898 8.39922 9.60156C8.39922 7.61334 10.011 6.00156 11.9992 6.00156C13.9875 6.00156 15.5992 7.61334 15.5992 9.60156ZM4.79922 10.8016C5.46195 10.8016 5.99922 10.2643 5.99922 9.60156C5.99922 8.93883 5.46195 8.40156 4.79922 8.40156C4.13648 8.40156 3.59922 8.93883 3.59922 9.60156C3.59922 10.2643 4.13648 10.8016 4.79922 10.8016ZM20.3992 9.60156C20.3992 10.2643 19.862 10.8016 19.1992 10.8016C18.5365 10.8016 17.9992 10.2643 17.9992 9.60156C17.9992 8.93883 18.5365 8.40156 19.1992 8.40156C19.862 8.40156 20.3992 8.93883 20.3992 9.60156ZM2.09922 17.4016C1.60217 17.4016 1.19922 17.8045 1.19922 18.3016C1.19922 18.7986 1.60217 19.2016 2.09922 19.2016C7.39999 19.2016 12.5303 19.9249 17.3977 21.2777C18.7315 21.6484 20.0992 20.6635 20.0992 19.2419V18.3016C20.0992 17.8045 19.6963 17.4016 19.1992 17.4016C18.7022 17.4016 18.2992 17.8045 18.2992 18.3016V19.2419C18.2992 19.4358 18.1025 19.6054 17.8797 19.5434C12.8569 18.1474 7.56444 17.4016 2.09922 17.4016Z" fill="#0F172A"/>
</svg>
