<svg width="24" height="24" viewBox="0 0 24 24" fill="none" xmlns="http://www.w3.org/2000/svg">
<path d="M17 3.5H7C4 3.5 2 5 2 8.5V15.5C2 19 4 20.5 7 20.5H17C20 20.5 22.0001 19 22.0001 15.5V8.5C22.0001 5 20 3.5 17 3.5ZM6.75001 16C6.75001 16.41 6.41 16.75 6.00001 16.75C5.59 16.75 5.25001 16.41 5.25001 16V8C5.25001 7.59 5.59 7.25 6.00001 7.25C6.41 7.25 6.75001 7.59 6.75001 8V16ZM9.75001 16C9.75001 16.41 9.41 16.75 9.00001 16.75C8.59 16.75 8.25001 16.41 8.25001 16V15C8.25001 14.59 8.59 14.25 9.00001 14.25C9.41 14.25 9.75001 14.59 9.75001 15V16ZM9.75001 12C9.75001 12.41 9.41 12.75 9.00001 12.75C8.59 12.75 8.25001 12.41 8.25001 12V8C8.25001 7.59 8.59 7.25 9.00001 7.25C9.41 7.25 9.75001 7.59 9.75001 8V12ZM12.75 16C12.75 16.41 12.41 16.75 12 16.75C11.59 16.75 11.25 16.41 11.25 16V8C11.25 7.59 11.59 7.25 12 7.25C12.41 7.25 12.75 7.59 12.75 8V16ZM15.75 16C15.75 16.41 15.41 16.75 15 16.75C14.5901 16.75 14.25 16.41 14.25 16V12C14.25 11.59 14.5901 11.25 15 11.25C15.41 11.25 15.75 11.59 15.75 12V16ZM15.75 9C15.75 9.41 15.41 9.75 15 9.75C14.5901 9.75 14.25 9.41 14.25 9V8C14.25 7.59 14.5901 7.25 15 7.25C15.41 7.25 15.75 7.59 15.75 8V9ZM18.75 16C18.75 16.41 18.41 16.75 18 16.75C17.5901 16.75 17.25 16.41 17.25 16V8C17.25 7.59 17.5901 7.25 18 7.25C18.41 7.25 18.75 7.59 18.75 8V16Z" fill="white"/>
</svg>
