<svg width="24" height="24" viewBox="0 0 24 24" fill="none" xmlns="http://www.w3.org/2000/svg">
<path fill-rule="evenodd" clip-rule="evenodd" d="M2.40039 5.70078C2.40039 5.20373 2.80334 4.80078 3.30039 4.80078H20.7004C21.1974 4.80078 21.6004 5.20373 21.6004 5.70078C21.6004 6.19783 21.1974 6.60078 20.7004 6.60078H3.30039C2.80334 6.60078 2.40039 6.19783 2.40039 5.70078ZM2.40039 18.3008C2.40039 17.8037 2.80334 17.4008 3.30039 17.4008H20.7004C21.1974 17.4008 21.6004 17.8037 21.6004 18.3008C21.6004 18.7978 21.1974 19.2008 20.7004 19.2008H3.30039C2.80334 19.2008 2.40039 18.7978 2.40039 18.3008Z" fill="#0F172A"/>
<path fill-rule="evenodd" clip-rule="evenodd" d="M2.40039 12.0016C2.40039 11.5045 2.80334 11.1016 3.30039 11.1016H12.3004C12.7974 11.1016 13.2004 11.5045 13.2004 12.0016C13.2004 12.4986 12.7974 12.9016 12.3004 12.9016H3.30039C2.80334 12.9016 2.40039 12.4986 2.40039 12.0016Z" fill="#0F172A"/>
</svg>
