<svg width="24" height="24" viewBox="0 0 24 24" fill="none" xmlns="http://www.w3.org/2000/svg">
<path fill-rule="evenodd" clip-rule="evenodd" d="M2.40039 4.50156C2.40039 4.00451 2.80334 3.60156 3.30039 3.60156H17.1004C17.5974 3.60156 18.0004 4.00451 18.0004 4.50156C18.0004 4.99861 17.5974 5.40156 17.1004 5.40156H3.30039C2.80334 5.40156 2.40039 4.99861 2.40039 4.50156ZM2.40039 9.00156C2.40039 8.50451 2.80334 8.10156 3.30039 8.10156H12.3102C12.8073 8.10156 13.2102 8.50451 13.2102 9.00156C13.2102 9.49861 12.8073 9.90156 12.3102 9.90156H3.30039C2.80334 9.90156 2.40039 9.49861 2.40039 9.00156ZM16.8004 8.40156C17.2974 8.40156 17.7004 8.80451 17.7004 9.30156V17.2097L20.0409 14.6892C20.3791 14.3249 20.9485 14.3039 21.3127 14.642C21.6771 14.9803 21.6981 15.5497 21.3599 15.9139L17.4599 20.1139C17.2896 20.2974 17.0506 20.4016 16.8004 20.4016C16.5501 20.4016 16.3112 20.2974 16.1409 20.1139L12.2409 15.9139C11.9027 15.5497 11.9237 14.9803 12.288 14.642C12.6522 14.3039 13.2216 14.3249 13.5599 14.6892L15.9004 17.2097V9.30156C15.9004 8.80451 16.3033 8.40156 16.8004 8.40156ZM2.40039 13.5016C2.40039 13.0045 2.80334 12.6016 3.30039 12.6016H8.77485C9.2719 12.6016 9.67485 13.0045 9.67485 13.5016C9.67485 13.9986 9.2719 14.4016 8.77485 14.4016H3.30039C2.80334 14.4016 2.40039 13.9986 2.40039 13.5016Z" fill="#0F172A"/>
</svg>
