<svg width="24" height="24" viewBox="0 0 24 24" fill="none" xmlns="http://www.w3.org/2000/svg">
<path fill-rule="evenodd" clip-rule="evenodd" d="M2.40039 4.50156C2.40039 4.00451 2.80334 3.60156 3.30039 3.60156H20.7004C21.1974 3.60156 21.6004 4.00451 21.6004 4.50156C21.6004 4.99861 21.1974 5.40156 20.7004 5.40156H3.30039C2.80334 5.40156 2.40039 4.99861 2.40039 4.50156ZM2.40039 9.50157C2.40039 9.0045 2.80334 8.60157 3.30039 8.60157H20.7004C21.1974 8.60157 21.6004 9.0045 21.6004 9.50157C21.6004 9.99862 21.1974 10.4016 20.7004 10.4016H3.30039C2.80334 10.4016 2.40039 9.99862 2.40039 9.50157ZM2.40039 14.5015C2.40039 14.0045 2.80334 13.6015 3.30039 13.6015H20.7004C21.1974 13.6015 21.6004 14.0045 21.6004 14.5015C21.6004 14.9986 21.1974 15.4015 20.7004 15.4015H3.30039C2.80334 15.4015 2.40039 14.9986 2.40039 14.5015ZM2.40039 19.5016C2.40039 19.0045 2.80334 18.6016 3.30039 18.6016H20.7004C21.1974 18.6016 21.6004 19.0045 21.6004 19.5016C21.6004 19.9986 21.1974 20.4016 20.7004 20.4016H3.30039C2.80334 20.4016 2.40039 19.9986 2.40039 19.5016Z" fill="#0F172A"/>
</svg>
