<svg width="24" height="24" viewBox="0 0 24 24" fill="none" xmlns="http://www.w3.org/2000/svg">
<path fill-rule="evenodd" clip-rule="evenodd" d="M2.40039 4.50156C2.40039 4.00451 2.80334 3.60156 3.30039 3.60156H17.1004C17.5974 3.60156 18.0004 4.00451 18.0004 4.50156C18.0004 4.99861 17.5974 5.40156 17.1004 5.40156H3.30039C2.80334 5.40156 2.40039 4.99861 2.40039 4.50156ZM2.40039 9.00156C2.40039 8.50451 2.80334 8.10156 3.30039 8.10156H10.9381C11.4351 8.10156 11.8381 8.50451 11.8381 9.00156C11.8381 9.49861 11.4351 9.90156 10.9381 9.90156H3.30039C2.80334 9.90156 2.40039 9.49861 2.40039 9.00156ZM16.8004 8.40156C17.0507 8.40156 17.2896 8.50577 17.4599 8.68915L21.3599 12.8892C21.6981 13.2534 21.6771 13.8228 21.3127 14.1611C20.9485 14.4992 20.3791 14.4782 20.0409 14.1139L17.7004 11.5934V19.5016C17.7004 19.9986 17.2974 20.4016 16.8004 20.4016C16.3033 20.4016 15.9004 19.9986 15.9004 19.5016V11.5934L13.5599 14.1139C13.2216 14.4782 12.6522 14.4992 12.288 14.1611C11.9237 13.8228 11.9027 13.2534 12.2409 12.8892L16.1409 8.68915C16.3112 8.50577 16.5501 8.40156 16.8004 8.40156ZM2.40039 13.5016C2.40039 13.0045 2.80334 12.6016 3.30039 12.6016H8.40038C8.89743 12.6016 9.30038 13.0045 9.30038 13.5016C9.30038 13.9986 8.89743 14.4016 8.40038 14.4016H3.30039C2.80334 14.4016 2.40039 13.9986 2.40039 13.5016Z" fill="#0F172A"/>
</svg>
