<svg width="24" height="24" viewBox="0 0 24 24" fill="none" xmlns="http://www.w3.org/2000/svg">
<path d="M20.4193 9.00046C20.2792 8.99047 20.0992 8.98047 19.8992 8.98047C19.5092 8.98047 19.1992 9.29046 19.1992 9.68046V14.3305C19.1992 14.7205 19.5092 15.0305 19.8992 15.0305C20.0992 15.0305 20.2693 15.0205 20.4392 15.0105C21.9992 14.8305 21.9992 13.7305 21.9992 12.9305V11.0705C21.9992 10.2705 21.9992 9.17047 20.4193 9.00046Z" fill="white"/>
<path d="M18.2794 10.1405V13.8605C18.2794 16.8105 15.8794 19.2105 12.9295 19.2105H9.25943C8.46942 19.2105 7.98942 18.3405 8.40942 17.6805L15.6694 6.2005C16.0294 5.6305 16.8394 5.5805 17.2894 6.0905C18.0094 6.9205 18.2794 8.2105 18.2794 10.1405Z" fill="white"/>
<path d="M16.4 1.87036C16.05 1.65036 15.59 1.75036 15.3701 2.10036L13.6601 4.81036C13.43 4.80036 13.19 4.79037 12.93 4.79037H7.35001C3.25 4.79037 2 6.04036 2 10.1404V13.8604C2 16.9103 2.70001 18.3704 4.74001 18.9203L3.37 21.1004C3.15001 21.4504 3.25 21.9104 3.60001 22.1303C3.72001 22.2104 3.86 22.2503 4 22.2503C4.25 22.2503 4.49 22.1303 4.63 21.9004L16.6301 2.90037C16.86 2.55036 16.7501 2.09037 16.4 1.87036Z" fill="white"/>
</svg>
