<svg width="24" height="24" viewBox="0 0 24 24" fill="none" xmlns="http://www.w3.org/2000/svg">
<path d="M20.4193 9.00046C20.2792 8.99047 20.0992 8.98047 19.8992 8.98047C19.5092 8.98047 19.1992 9.29046 19.1992 9.68046V14.3305C19.1992 14.7205 19.5092 15.0305 19.8992 15.0305C20.0992 15.0305 20.2693 15.0205 20.4392 15.0105C21.9992 14.8305 21.9992 13.7305 21.9992 12.9305V11.0705C21.9992 10.2705 21.9992 9.17047 20.4193 9.00046Z" fill="white"/>
<path d="M12.93 4.78906H7.35001C3.25 4.78906 2 6.03905 2 10.1391V13.8592C2 17.9591 3.25 19.2091 7.35001 19.2091H12.93C17.03 19.2091 18.2801 17.9591 18.2801 13.8592V10.1391C18.2801 6.03905 17.03 4.78906 12.93 4.78906ZM12.53 13.6792C12.51 13.7191 12.48 13.7591 12.45 13.7891L10.58 15.9791C10.43 16.1491 10.22 16.2391 10.01 16.2391C9.84001 16.2391 9.66001 16.1791 9.52 16.0591C9.21001 15.7891 9.17 15.3191 9.44 14.9992L11.24 12.8891C11.25 12.8591 11.24 12.8291 11.22 12.7991C11.2 12.7591 11.16 12.7391 11.11 12.7391H9.12001C8.53 12.7391 8.01001 12.4391 7.71001 11.9291C7.42 11.4191 7.42 10.8191 7.71001 10.3091L9.42001 8.04905C9.67 7.71905 10.14 7.64906 10.47 7.89905C10.8 8.14906 10.87 8.61905 10.62 8.94905L8.97001 11.1391C9.00001 11.0991 9.00001 11.1391 9.02 11.1891C9.04 11.2291 9.08 11.2491 9.13 11.2491H11.14C11.73 11.2491 12.2501 11.5491 12.5501 12.0592C12.8201 12.5692 12.8201 13.1692 12.53 13.6792Z" fill="white"/>
</svg>
