<svg width="24" height="24" viewBox="0 0 24 24" fill="none" xmlns="http://www.w3.org/2000/svg">
<path d="M20.4193 9.00046C20.2792 8.99047 20.0992 8.98047 19.8992 8.98047C19.5092 8.98047 19.1992 9.29046 19.1992 9.68046V14.3305C19.1992 14.7205 19.5092 15.0305 19.8992 15.0305C20.0992 15.0305 20.2693 15.0205 20.4392 15.0105C21.9992 14.8305 21.9992 13.7305 21.9992 12.9305V11.0705C21.9992 10.2705 21.9992 9.17047 20.4193 9.00046Z" fill="white"/>
<path d="M12.93 4.78906H7.35001C3.25 4.78906 2 6.03905 2 10.1391V13.8592C2 17.9591 3.25 19.2091 7.35001 19.2091H12.93C17.03 19.2091 18.2801 17.9591 18.2801 13.8592V10.1391C18.2801 6.03905 17.03 4.78906 12.93 4.78906ZM7.1 14.1791C7.02001 14.5192 6.71 14.7491 6.37 14.7491C6.31 14.7491 6.25 14.7391 6.19 14.7292C5.79001 14.6291 5.54 14.2192 5.64001 13.8191C5.94001 12.6292 5.94001 11.3691 5.64001 10.1791C5.54 9.77906 5.78 9.36905 6.19 9.26906C6.60001 9.16906 7 9.41906 7.1 9.81906C7.46 11.2491 7.46 12.7492 7.1 14.1791ZM10.6 14.1791C10.52 14.5192 10.21 14.7491 9.87001 14.7491C9.81001 14.7491 9.75001 14.7391 9.69001 14.7292C9.29 14.6291 9.04 14.2192 9.14 13.8191C9.44 12.6292 9.44 11.3691 9.14 10.1791C9.04 9.77906 9.28 9.36905 9.69001 9.26906C10.09 9.16906 10.5 9.40906 10.6 9.81906C10.96 11.2491 10.96 12.7492 10.6 14.1791ZM14.1 14.1791C14.0201 14.5192 13.71 14.7491 13.37 14.7491C13.31 14.7491 13.25 14.7391 13.19 14.7292C12.7901 14.6291 12.54 14.2192 12.6401 13.8191C12.9401 12.6292 12.9401 11.3691 12.6401 10.1791C12.54 9.77906 12.78 9.36905 13.19 9.26906C13.59 9.16906 14 9.40906 14.1 9.81906C14.46 11.2491 14.46 12.7492 14.1 14.1791Z" fill="white"/>
</svg>
