<svg width="24" height="24" viewBox="0 0 24 24" fill="none" xmlns="http://www.w3.org/2000/svg">
<path fill-rule="evenodd" clip-rule="evenodd" d="M1.19922 8.7C1.19922 7.20883 2.40805 6 3.89922 6H18.8992C20.3903 6 21.5992 7.20883 21.5992 8.7V10.0024C22.2983 10.2495 22.7992 10.9163 22.7992 11.7V12.3C22.7992 13.0837 22.2983 13.7504 21.5992 13.9975V15.3C21.5992 16.7911 20.3903 18 18.8992 18H3.89922C2.40805 18 1.19922 16.7911 1.19922 15.3V8.7ZM3.89922 7.8C3.40217 7.8 2.99922 8.20295 2.99922 8.7V15.3C2.99922 15.797 3.40217 16.2 3.89922 16.2H18.8992C19.3963 16.2 19.7992 15.797 19.7992 15.3V8.7C19.7992 8.20295 19.3963 7.8 18.8992 7.8H3.89922Z" fill="#0F172A"/>
</svg>
