<svg width="24" height="24" viewBox="0 0 24 24" fill="none" xmlns="http://www.w3.org/2000/svg">
<path d="M5.70078 9.60156C5.20373 9.60156 4.80078 10.0045 4.80078 10.5016V13.5016C4.80078 13.9986 5.20373 14.4016 5.70078 14.4016H11.4008C11.8978 14.4016 12.3008 13.9986 12.3008 13.5016V10.5016C12.3008 10.0045 11.8978 9.60156 11.4008 9.60156H5.70078Z" fill="#0F172A"/>
<path fill-rule="evenodd" clip-rule="evenodd" d="M3.89922 6C2.40805 6 1.19922 7.20883 1.19922 8.7V15.3C1.19922 16.7911 2.40805 18 3.89922 18H18.8992C20.3903 18 21.5992 16.7911 21.5992 15.3V13.9975C22.2983 13.7504 22.7992 13.0837 22.7992 12.3V11.7C22.7992 10.9163 22.2983 10.2495 21.5992 10.0024V8.7C21.5992 7.20883 20.3903 6 18.8992 6H3.89922ZM2.99922 8.7C2.99922 8.20295 3.40217 7.8 3.89922 7.8H18.8992C19.3963 7.8 19.7992 8.20295 19.7992 8.7V15.3C19.7992 15.797 19.3963 16.2 18.8992 16.2H3.89922C3.40217 16.2 2.99922 15.797 2.99922 15.3V8.7Z" fill="#0F172A"/>
</svg>
