<svg width="24" height="24" viewBox="0 0 24 24" fill="none" xmlns="http://www.w3.org/2000/svg">
<path fill-rule="evenodd" clip-rule="evenodd" d="M10.1996 4.23198V9.80432C10.1996 10.6795 9.85193 11.5189 9.23306 12.1378L7.77336 13.5974C9.22287 13.5478 10.6738 13.7988 12.0326 14.3423L12.6351 14.5834C14.2269 15.2201 15.9714 15.3722 17.6492 15.0209L14.7661 12.1378C14.1473 11.5189 13.7996 10.6795 13.7996 9.80432V4.23198C13.2024 4.20968 12.6024 4.19844 11.9996 4.19844C11.3969 4.19844 10.7968 4.20968 10.1996 4.23198ZM15.5996 4.33305C15.6758 4.33878 15.7519 4.34467 15.828 4.35075C16.3235 4.39034 16.7571 4.02077 16.7967 3.5253C16.8363 3.02982 16.4667 2.59605 15.9713 2.55647C15.5653 2.52403 15.1579 2.49651 14.7492 2.47399C13.8389 2.42384 12.9222 2.39844 11.9996 2.39844C11.077 2.39844 10.1603 2.42384 9.2501 2.47399C8.84136 2.49651 8.43396 2.52403 8.02792 2.55647C7.53245 2.59605 7.16288 3.02982 7.20246 3.5253C7.24205 4.02077 7.67582 4.39034 8.1713 4.35075C8.24734 4.34467 8.32346 4.33878 8.39961 4.33305V9.80432C8.39961 10.2021 8.24157 10.5837 7.96026 10.865L3.12003 15.7052C1.32424 17.501 2.13963 20.6854 4.80365 21.0758C7.15294 21.4202 9.55574 21.5984 11.9996 21.5984C14.4435 21.5984 16.8463 21.4202 19.1955 21.0758C21.8595 20.6854 22.6749 17.501 20.8791 15.7052L16.0389 10.865C15.7577 10.5837 15.5996 10.2021 15.5996 9.80432V4.33305Z" fill="#0F172A"/>
</svg>
