<svg width="24" height="24" viewBox="0 0 24 24" fill="none" xmlns="http://www.w3.org/2000/svg">
<path fill-rule="evenodd" clip-rule="evenodd" d="M4.79918 9.59844C4.79918 5.62199 8.02273 2.39844 11.9992 2.39844C15.9757 2.39844 19.1992 5.62199 19.1992 9.59844C19.1992 11.8624 19.7437 13.9966 20.708 15.8796C20.836 16.1296 20.84 16.425 20.7188 16.6784C20.5975 16.9318 20.3649 17.1139 20.0899 17.171C18.8087 17.4371 17.5051 17.6412 16.1821 17.78C15.9893 19.9208 14.1902 21.5984 11.9992 21.5984C9.80827 21.5984 8.00915 19.9208 7.81633 17.78C6.49339 17.6412 5.18966 17.4371 3.90845 17.171C3.63343 17.1139 3.40085 16.9318 3.2796 16.6784C3.15834 16.425 3.16231 16.1296 3.29034 15.8796C4.25471 13.9966 4.79918 11.8624 4.79918 9.59844ZM11.9992 17.9984C11.2134 17.9984 10.4329 17.9755 9.65838 17.9304C9.90038 18.9998 10.8565 19.7984 11.9992 19.7984C13.1419 19.7984 14.098 18.9998 14.3401 17.9304C13.5655 17.9755 12.785 17.9984 11.9992 17.9984ZM10.4992 7.19844C10.0022 7.19844 9.59922 7.60139 9.59922 8.09844C9.59922 8.59549 10.0022 8.99844 10.4992 8.99844H11.7504L9.76686 11.7753C9.57091 12.0497 9.5447 12.4105 9.69896 12.7103C9.85324 13.01 10.1621 13.1984 10.4992 13.1984H13.4992C13.9963 13.1984 14.3992 12.7955 14.3992 12.2984C14.3992 11.8014 13.9963 11.3984 13.4992 11.3984H12.2481L14.2316 8.62155C14.4275 8.34722 14.4537 7.98638 14.2995 7.68661C14.1452 7.38685 13.8363 7.19844 13.4992 7.19844H10.4992Z" fill="#0F172A"/>
</svg>
