<svg width="24" height="24" viewBox="0 0 24 24" fill="none" xmlns="http://www.w3.org/2000/svg">
<path d="M4.79918 9.59883C4.79918 9.28609 4.81912 8.97801 4.85779 8.67578L14.1248 17.9428C13.4209 17.98 12.7123 17.9988 11.9992 17.9988C11.2134 17.9988 10.4329 17.9759 9.65838 17.9308C9.90038 19.0002 10.8565 19.7988 11.9992 19.7988C13.0771 19.7988 13.9889 19.0883 14.2921 18.1101L15.6532 19.4712C14.9311 20.7418 13.5652 21.5988 11.9992 21.5988C9.80827 21.5988 8.00915 19.9212 7.81633 17.7804C6.49339 17.6416 5.18966 17.4375 3.90845 17.1714C3.63343 17.1143 3.40085 16.9322 3.2796 16.6788C3.15834 16.4254 3.16231 16.13 3.29034 15.88C4.25471 13.997 4.79918 11.8628 4.79918 9.59883Z" fill="#0F172A"/>
<path d="M20.7202 16.6784C20.6967 16.7274 20.6691 16.7738 20.6377 16.8172L7.66797 3.8474C8.87348 2.93779 10.3741 2.39844 12.0006 2.39844C15.9771 2.39844 19.2006 5.62199 19.2006 9.59844C19.2006 11.8624 19.7451 13.9966 20.7094 15.8796C20.8374 16.1296 20.8414 16.425 20.7202 16.6784Z" fill="#0F172A"/>
<path d="M3.93678 2.66204C3.58532 2.31057 3.01546 2.31057 2.66399 2.66204C2.31252 3.01351 2.31252 3.58336 2.66399 3.93483L20.064 21.3348C20.4155 21.6863 20.9853 21.6863 21.3367 21.3348C21.6882 20.9833 21.6882 20.4136 21.3367 20.0621L3.93678 2.66204Z" fill="#0F172A"/>
</svg>
