<svg width="24" height="24" viewBox="0 0 24 24" fill="none" xmlns="http://www.w3.org/2000/svg">
<path d="M5.05772 3.87164C5.37428 3.48842 5.32025 2.92115 4.93703 2.60459C4.55382 2.28803 3.98653 2.34206 3.66997 2.72527C2.59084 4.03163 1.8123 5.59738 1.44223 7.3159C1.33759 7.80181 1.64669 8.28055 2.1326 8.38519C2.61852 8.48983 3.09726 8.18075 3.2019 7.69483C3.50971 6.26539 4.15752 4.96139 5.05772 3.87164Z" fill="#0F172A"/>
<path d="M20.3303 2.72527C20.0137 2.34206 19.4464 2.28803 19.0632 2.60459C18.6799 2.92115 18.6259 3.48842 18.9425 3.87164C19.8427 4.96139 20.4905 6.26539 20.7983 7.69483C20.9029 8.18075 21.3817 8.48983 21.8676 8.38519C22.3535 8.28055 22.6626 7.80181 22.558 7.3159C22.1879 5.59738 21.4093 4.03163 20.3303 2.72527Z" fill="#0F172A"/>
<path fill-rule="evenodd" clip-rule="evenodd" d="M11.9992 2.39844C8.02273 2.39844 4.79918 5.62199 4.79918 9.59844C4.79918 11.8624 4.25471 13.9966 3.29034 15.8796C3.16231 16.1296 3.15834 16.425 3.2796 16.6784C3.40085 16.9318 3.63343 17.1139 3.90845 17.171C5.18966 17.4371 6.49339 17.6412 7.81633 17.78C8.00915 19.9208 9.80827 21.5984 11.9992 21.5984C14.1902 21.5984 15.9893 19.9208 16.1821 17.78C17.5051 17.6412 18.8087 17.4371 20.0899 17.171C20.3649 17.1139 20.5975 16.9318 20.7188 16.6784C20.84 16.425 20.836 16.1296 20.708 15.8796C19.7437 13.9966 19.1992 11.8624 19.1992 9.59844C19.1992 5.62199 15.9757 2.39844 11.9992 2.39844ZM11.9992 19.7984C10.8565 19.7984 9.90038 18.9998 9.65838 17.9304C10.4329 17.9755 11.2134 17.9984 11.9992 17.9984C12.785 17.9984 13.5655 17.9755 14.3401 17.9304C14.098 18.9998 13.1419 19.7984 11.9992 19.7984Z" fill="#0F172A"/>
</svg>
