<svg width="24" height="24" viewBox="0 0 24 24" fill="none" xmlns="http://www.w3.org/2000/svg">
<path d="M22.0001 3.25H2C1.59001 3.25 1.25 2.91 1.25 2.5C1.25 2.09 1.59001 1.75 2 1.75H22.0001C22.41 1.75 22.7501 2.09 22.7501 2.5C22.7501 2.91 22.41 3.25 22.0001 3.25Z" fill="white"/>
<path d="M3.66992 2.5V14.47C3.66992 15.45 4.12993 16.38 4.91993 16.97L10.1299 20.87C11.2399 21.7 12.7699 21.7 13.8799 20.87L19.0899 16.97C19.8799 16.38 20.3399 15.45 20.3399 14.47V2.5H3.66992ZM15.9999 13.75H7.99993C7.58993 13.75 7.24993 13.41 7.24993 13C7.24993 12.59 7.58993 12.25 7.99993 12.25H15.9999C16.4099 12.25 16.7499 12.59 16.7499 13C16.7499 13.41 16.4099 13.75 15.9999 13.75ZM15.9999 8.75H7.99993C7.58993 8.75 7.24993 8.41 7.24993 8C7.24993 7.59 7.58993 7.25 7.99993 7.25H15.9999C16.4099 7.25 16.7499 7.59 16.7499 8C16.7499 8.41 16.4099 8.75 15.9999 8.75Z" fill="white"/>
</svg>
