<svg width="24" height="24" viewBox="0 0 24 24" fill="none" xmlns="http://www.w3.org/2000/svg">
<path d="M11.649 2.34953L6.35898 7.63954C6.15899 7.83953 6.15899 8.14954 6.35898 8.34953L7.64898 9.63953C7.84897 9.83953 8.15898 9.83953 8.35898 9.63953L11.649 6.34954C11.849 6.14953 12.1591 6.14953 12.359 6.34954L15.649 9.63953C15.8491 9.83953 16.159 9.83953 16.3591 9.63953L17.6491 8.34953C17.849 8.14954 17.849 7.83953 17.6491 7.63954L12.359 2.34953C12.1591 2.15953 11.839 2.15953 11.649 2.34953Z" fill="white"/>
<path d="M11.649 21.6508L6.35898 16.3609C6.15899 16.161 6.15899 15.8509 6.35898 15.6508L7.64898 14.361C7.84897 14.1609 8.15898 14.1609 8.35898 14.361L11.649 17.6509C11.849 17.8509 12.1591 17.8509 12.359 17.6509L15.649 14.361C15.8491 14.1609 16.159 14.1609 16.3591 14.361L17.6491 15.6508C17.849 15.8509 17.849 16.161 17.6491 16.3609L12.359 21.6508C12.1591 21.8409 11.839 21.8409 11.649 21.6508Z" fill="white"/>
<path d="M20.0992 10.0995L21.6392 11.6395C21.8392 11.8395 21.8392 12.1495 21.6392 12.3495L20.0992 13.8895C19.8992 14.0895 19.5892 14.0895 19.3892 13.8895L17.8492 12.3495C17.6492 12.1495 17.6492 11.8395 17.8492 11.6395L19.3892 10.0995C19.5892 9.90954 19.9093 9.90954 20.0992 10.0995Z" fill="white"/>
<path d="M4.60117 10.0995L6.14116 11.6395C6.34117 11.8395 6.34117 12.1495 6.14116 12.3495L4.60117 13.8895C4.40117 14.0895 4.09117 14.0895 3.89116 13.8895L2.35117 12.3495C2.15117 12.1495 2.15117 11.8395 2.35117 11.6395L3.89116 10.0995C4.09117 9.90954 4.41117 9.90954 4.60117 10.0995Z" fill="white"/>
<path d="M12.3506 9.88047L14.1206 11.6505C14.3207 11.8505 14.3207 12.1605 14.1206 12.3605L12.3506 14.1305C12.1507 14.3305 11.8407 14.3305 11.6407 14.1305L9.87071 12.3605C9.6707 12.1605 9.6707 11.8505 9.87071 11.6505L11.6407 9.88047C11.8407 9.68047 12.1607 9.68047 12.3506 9.88047Z" fill="white"/>
</svg>
