<svg width="24" height="24" viewBox="0 0 24 24" fill="none" xmlns="http://www.w3.org/2000/svg">
<path d="M11.3996 2.34953L6.24961 7.49953C6.04961 7.69954 6.04961 8.00953 6.24961 8.20954L7.97962 9.93953C8.17962 10.1395 8.4896 10.1395 8.68961 9.93953L13.8396 4.78954C14.0396 4.58953 14.0396 4.27954 13.8396 4.07953L12.1096 2.34953C11.9096 2.15953 11.5996 2.15953 11.3996 2.34953Z" fill="white"/>
<path d="M15.2996 6.25937L6.24961 15.3094C6.04961 15.5094 6.04961 15.8194 6.24961 16.0194L7.97962 17.7494C8.17962 17.9494 8.4896 17.9494 8.68961 17.7494L17.7396 8.69937C17.9396 8.49936 17.9396 8.18936 17.7396 7.98936L16.0096 6.25937C15.8196 6.05938 15.4996 6.05938 15.2996 6.25937Z" fill="white"/>
<path d="M19.2098 10.1578L10.1598 19.2078C9.95976 19.4078 9.95976 19.7178 10.1598 19.9178L11.8898 21.6479C12.0897 21.8478 12.3998 21.8478 12.5997 21.6479L21.6498 12.5978C21.8498 12.3978 21.8498 12.0878 21.6498 11.8878L19.9197 10.1578C19.7198 9.95781 19.3998 9.95781 19.2098 10.1578Z" fill="white"/>
<path d="M4.09094 13.8395L2.36094 12.1095C2.16094 11.9095 2.16094 11.5995 2.36094 11.3995L4.09094 9.66953C4.29095 9.46953 4.60093 9.46953 4.80094 9.66953L6.53095 11.3995C6.73094 11.5995 6.73094 11.9095 6.53095 12.1095L4.80094 13.8395C4.60093 14.0395 4.28095 14.0395 4.09094 13.8395Z" fill="white"/>
</svg>
