<svg width="24" height="24" viewBox="0 0 24 24" fill="none" xmlns="http://www.w3.org/2000/svg">
<g clip-path="url(#clip0_13_12617)">
<mask id="mask0_13_12617" style="mask-type:luminance" maskUnits="userSpaceOnUse" x="0" y="0" width="24" height="24">
<path d="M24 0H0V24H24V0Z" fill="white"/>
</mask>
<g mask="url(#mask0_13_12617)">
<path d="M23.0005 15.2188C22.5904 15.2188 22.2505 15.5587 22.2505 15.9687C22.2505 18.9288 20.1904 21.4087 17.4204 22.0587L17.6905 21.6087C17.9005 21.2487 17.7904 20.7888 17.4304 20.5788C17.0805 20.3688 16.6105 20.4787 16.4005 20.8387L15.3505 22.5888C15.2104 22.8187 15.2104 23.1087 15.3405 23.3388C15.4704 23.5788 15.7204 23.7187 15.9904 23.7187C20.2605 23.7187 23.7405 20.2387 23.7405 15.9687C23.7504 15.5587 23.4105 15.2188 23.0005 15.2188Z" fill="white"/>
<path d="M8 0.21875C3.73 0.21875 0.25 3.69874 0.25 7.96874C0.25 8.37874 0.59 8.71875 1 8.71875C1.40999 8.71875 1.75 8.37874 1.75 7.96874C1.75 5.00875 3.80999 2.52875 6.58 1.87874L6.31 2.32874C6.1 2.68874 6.20999 3.14875 6.56999 3.35875C6.92 3.56875 7.39 3.45875 7.6 3.09875L8.65 1.34875C8.78 1.11875 8.78999 0.838749 8.65 0.598749C8.51999 0.36875 8.27 0.21875 8 0.21875Z" fill="white"/>
<path d="M21.5002 8.6661C21.5002 11.7461 19.2602 14.2861 16.3302 14.7561C16.3302 14.7461 16.3302 14.7461 16.3302 14.7361C16.0402 11.0061 13.0202 7.96609 9.24023 7.66609C9.71023 4.7361 12.2502 2.49609 15.3302 2.49609C18.7402 2.49609 21.5002 5.25609 21.5002 8.6661Z" fill="white"/>
<path d="M9.81109 14.1964C9.81109 14.0464 9.6411 13.8164 9.4311 13.8164H7.37109V14.5664H9.4311C9.6411 14.5765 9.81109 14.4064 9.81109 14.1964Z" fill="white"/>
<path d="M9.83109 16.0781H9.4311H7.37109V16.8281H9.8411C10.1611 16.8281 10.3811 16.6282 10.3811 16.4482C10.3811 16.2682 10.1511 16.0781 9.83109 16.0781Z" fill="white"/>
<path d="M14.83 14.8484C14.5999 11.8184 12.18 9.39843 9.14999 9.16844C8.99 9.15843 8.84 9.14844 8.66999 9.14844C5.26 9.14844 2.5 11.9084 2.5 15.3284C2.5 18.7385 5.26 21.4985 8.66999 21.4985C12.0799 21.4985 14.85 18.7385 14.85 15.3284C14.85 15.1584 14.8399 15.0084 14.83 14.8484ZM9.83 18.3284H9.17V18.7085C9.17 19.1184 8.83 19.4585 8.42 19.4585C8.00999 19.4585 7.67 19.1184 7.67 18.7085V18.3284H6.62C6.20999 18.3284 5.87 17.9885 5.87 17.5784V15.3284V13.0784C5.87 12.6684 6.20999 12.3284 6.62 12.3284H7.67V11.9484C7.67 11.5385 8.00999 11.1984 8.42 11.1984C8.83 11.1984 9.17 11.5385 9.17 11.9484V12.3284H9.43C10.43 12.3284 11.31 13.2084 11.31 14.2085C11.31 14.4984 11.24 14.7684 11.12 15.0185C11.58 15.3584 11.87 15.8784 11.87 16.4585C11.87 17.4884 10.96 18.3284 9.83 18.3284Z" fill="white"/>
</g>
</g>
<defs>
<clipPath id="clip0_13_12617">
<rect width="24" height="24" fill="white"/>
</clipPath>
</defs>
</svg>
