<svg width="24" height="24" viewBox="0 0 24 24" fill="none" xmlns="http://www.w3.org/2000/svg">
<path d="M23.5292 12.0522C23.2393 11.7622 22.7593 11.7622 22.4692 12.0522L22.0093 12.5122V12.0022C22.0093 6.48218 17.5192 1.99219 11.9992 1.99219C8.94928 1.99219 6.09928 3.36218 4.18927 5.74219C3.92927 6.06218 3.97926 6.54218 4.30927 6.80218C4.62928 7.05218 5.09927 7.00219 5.35927 6.68218C6.98927 4.65218 9.40927 3.49219 11.9992 3.49219C16.6892 3.49219 20.5093 7.31218 20.5093 12.0022V12.5022L20.0492 12.0421C19.7593 11.7521 19.2793 11.7521 18.9892 12.0421C18.6992 12.3322 18.6992 12.8122 18.9892 13.1022L20.7292 14.8422C20.7992 14.9122 20.8792 14.9622 20.9692 15.0022C21.0592 15.0421 21.1592 15.0622 21.2593 15.0622C21.3592 15.0622 21.4492 15.0421 21.5492 15.0022C21.6392 14.9622 21.7192 14.9122 21.7892 14.8422L23.5292 13.1022C23.8192 12.8221 23.8192 12.3421 23.5292 12.0522Z" fill="white"/>
<path d="M19.6913 17.1997C19.3714 16.9397 18.8914 16.9897 18.6413 17.3197C17.0114 19.3496 14.5913 20.5097 12.0014 20.5097C7.31141 20.5097 3.4914 16.6897 3.4914 11.9997V11.4997L3.95141 11.9597C4.10141 12.1097 4.29141 12.1796 4.4814 12.1796C4.67141 12.1796 4.86141 12.0997 5.00141 11.9497C5.2914 11.6597 5.2914 11.1797 5.00141 10.8897L3.2714 9.14969C3.20141 9.08969 3.11141 9.02969 3.02141 8.98969C2.84141 8.90969 2.63141 8.90969 2.45141 8.98969C2.36141 9.02969 2.28141 9.08969 2.21141 9.14969L0.471407 10.8897C0.181406 11.1797 0.181406 11.6597 0.471407 11.9497C0.761406 12.2396 1.2414 12.2396 1.5314 11.9497L1.9914 11.4897V11.9997C1.9914 17.5196 6.48141 22.0097 12.0014 22.0097C15.0514 22.0097 17.9014 20.6396 19.8113 18.2597C20.0714 17.9396 20.0213 17.4596 19.6913 17.1997Z" fill="white"/>
<path d="M15.45 11.64C15.72 11.24 15.87 10.77 15.87 10.25C15.87 8.92 14.7 7.75 13.37 7.75H12.55V6.75C12.55 6.34 12.21 6 11.8 6C11.39 6 11.05 6.34 11.05 6.75V7.75H9C8.59 7.75 8.25 8.09 8.25 8.5V12V15.5C8.25 15.91 8.59 16.25 9 16.25H11.05V17.25C11.05 17.66 11.39 18 11.8 18C12.21 18 12.55 17.66 12.55 17.25V16.25H14C15.52 16.25 16.75 15.13 16.75 13.75C16.75 12.86 16.23 12.08 15.45 11.64ZM9.75 9.25H13.37C13.92 9.25 14.37 9.8 14.37 10.25C14.37 10.8 13.92 11.25 13.37 11.25H9.75V9.25ZM14 14.75H9.75V12.75H13.37H14C14.69 12.75 15.25 13.2 15.25 13.75C15.25 14.3 14.69 14.75 14 14.75Z" fill="white"/>
</svg>
