<svg width="24" height="24" viewBox="0 0 24 24" fill="none" xmlns="http://www.w3.org/2000/svg">
<path d="M17.38 10.75C17.38 10.53 17.14 10.25 16.88 10.25H14.94H14.5V11.25H16.88C17.15 11.25 17.38 11.03 17.38 10.75Z" fill="white"/>
<path d="M17.32 12.75H16.87H14.5V13.75H14.94H17.32C17.69 13.75 18 13.52 18 13.25C18 12.98 17.69 12.75 17.32 12.75Z" fill="white"/>
<path d="M17.85 3.39844H6.15001C3.86 3.39844 2 5.24844 2 7.53844V16.4585C2 18.7484 3.86 20.5985 6.15001 20.5985H17.85C20.1401 20.5985 22.0001 18.7484 22.0001 16.4585V7.53844C22.0001 5.24844 20.1401 3.39844 17.85 3.39844ZM9.25 12.7484H5.25001C4.84 12.7484 4.50001 12.4085 4.50001 11.9985C4.50001 11.5884 4.84 11.2485 5.25001 11.2485H9.25C9.66001 11.2485 10 11.5884 10 11.9985C10 12.4085 9.66001 12.7484 9.25 12.7484ZM17.3201 15.2484H16.26V15.7484C16.26 16.1585 15.92 16.4984 15.51 16.4984C15.1001 16.4984 14.76 16.1585 14.76 15.7484V15.2484H13.7501H12.75C12.3401 15.2484 12 14.9084 12 14.4984C12 14.0885 12.3401 13.7484 12.75 13.7484H13.0001V11.9985V10.2484H12.75C12.3401 10.2484 12 9.90844 12 9.49843C12 9.08844 12.3401 8.74843 12.75 8.74843H13.7501H14.76V8.24844C14.76 7.83844 15.1001 7.49844 15.51 7.49844C15.92 7.49844 16.26 7.83844 16.26 8.24844V8.74843H16.8701C17.94 8.74843 18.87 9.67843 18.87 10.7484C18.87 11.0784 18.78 11.3884 18.6401 11.6685C19.16 12.0384 19.5 12.6084 19.5 13.2485C19.5 14.3484 18.5201 15.2484 17.3201 15.2484Z" fill="white"/>
</svg>
