<svg width="24" height="24" viewBox="0 0 24 24" fill="none" xmlns="http://www.w3.org/2000/svg">
<path d="M15.9007 8.07C15.4507 4.64 12.5206 2 8.97071 2C5.10071 2 1.9707 5.13 1.9707 9C1.9707 12.55 4.6107 15.48 8.0407 15.93C8.3407 15.98 8.65071 16 8.97071 16C9.08707 16 9.20194 15.997 9.31588 15.991C9.53626 15.9793 9.62675 15.716 9.4707 15.56C9.18071 15.26 9.18071 14.79 9.4707 14.5C9.76071 14.2 10.2407 14.2 10.5307 14.5L11.3102 15.2795C11.4503 15.4196 11.6607 15.4654 11.8417 15.3847C12.2241 15.2146 12.586 15.0103 12.9271 14.7743C13.1713 14.6053 13.1867 14.2582 12.9757 14.0494L12.4707 13.55C12.1807 13.26 12.1707 12.79 12.4707 12.49C12.7606 12.2 13.2307 12.19 13.5307 12.48L14.0392 12.9829C14.2491 13.1904 14.5936 13.1728 14.7616 12.9302C14.9924 12.5969 15.1931 12.2431 15.3581 11.869C15.4376 11.689 15.3913 11.4806 15.2522 11.3415L14.4706 10.56C14.1807 10.26 14.1807 9.79 14.4706 9.5C14.7607 9.2 15.2407 9.2 15.5307 9.5C15.6868 9.65604 15.9501 9.56556 15.9616 9.34519C15.9676 9.23124 15.9706 9.11637 15.9706 9C15.9706 8.68 15.9507 8.37 15.9007 8.07Z" fill="white"/>
<path d="M21.9688 14.9975C21.9688 18.8675 18.8387 21.9975 14.9687 21.9975C12.0386 21.9975 9.52445 20.1975 8.49031 17.6303C8.36511 17.3194 8.63362 16.9975 8.96874 16.9975C9.31873 16.9975 9.64873 16.9775 9.98874 16.9275L10.4938 16.8601C10.6482 16.8395 10.8034 16.8921 10.9135 17.0023L11.4388 17.5275C11.5888 17.6775 11.7788 17.7475 11.9688 17.7475C12.1688 17.7475 12.3587 17.6775 12.4988 17.5275C12.7988 17.2375 12.7988 16.7575 12.4988 16.4675C12.4024 16.3711 12.4327 16.2079 12.5546 16.147C12.9536 15.9482 13.3624 15.6947 13.7303 15.4213C13.9382 15.2669 14.2299 15.2768 14.4141 15.4587L14.8988 15.9375C15.0488 16.0775 15.2387 16.1575 15.4288 16.1575C15.6188 16.1575 15.8188 16.0775 15.9587 15.9275C16.2488 15.6375 16.2488 15.1575 15.9488 14.8675L15.4707 14.3954C15.2879 14.2149 15.2728 13.9261 15.424 13.7185C15.6874 13.3573 15.9349 12.9641 16.1315 12.5792C16.1908 12.4633 16.3467 12.4354 16.4387 12.5275C16.5887 12.6775 16.7788 12.7475 16.9688 12.7475C17.1688 12.7475 17.3588 12.6775 17.4988 12.5275C17.7988 12.2375 17.7988 11.7575 17.4988 11.4675L16.9735 10.9422C16.8634 10.8321 16.8107 10.6769 16.8314 10.5225L16.8988 10.0175C16.9487 9.67747 16.9688 9.34747 16.9688 8.99747C16.9688 8.66251 17.2906 8.39425 17.6013 8.51976C20.161 9.55433 21.9688 12.068 21.9688 14.9975Z" fill="white"/>
</svg>
