<svg width="24" height="24" viewBox="0 0 24 24" fill="none" xmlns="http://www.w3.org/2000/svg">
<path d="M21.9702 12C21.9702 15.31 19.2803 18 15.9702 18C15.2257 18 14.5096 17.8643 13.8514 17.6141C13.5327 17.4929 13.4733 17.0851 13.6951 16.8262C14.8371 15.4938 15.4703 13.786 15.4703 12C15.4703 10.2082 14.8314 8.49432 13.6981 7.17467C13.4755 6.91543 13.5345 6.50621 13.8539 6.38494C14.5115 6.13537 15.2267 6 15.9702 6C19.2803 6 21.9702 8.69 21.9702 12Z" fill="white"/>
<path d="M13.9707 12C13.9707 13.77 13.2007 15.37 11.9707 16.46C10.9107 17.42 9.5107 18 7.9707 18C4.66071 18 1.9707 15.31 1.9707 12C1.9707 8.69 4.66071 6 7.9707 6C9.5107 6 10.9107 6.58 11.9707 7.54C13.2007 8.63 13.9707 10.23 13.9707 12Z" fill="white"/>
</svg>
