<svg width="24" height="24" viewBox="0 0 24 24" fill="none" xmlns="http://www.w3.org/2000/svg">
<path d="M12.3008 17.3247L14.6108 15.3947L12.3008 13.3047V17.3247Z" fill="white"/>
<path d="M12.3008 6.67969V10.6397L14.6108 8.51968L12.3008 6.67969Z" fill="white"/>
<path d="M16.19 2H7.81C4.17001 2 2 4.17 2 7.81V16.18C2 19.83 4.17001 22 7.81 22H16.1801C19.82 22 21.99 19.83 21.99 16.19V7.81C22.0001 4.17 19.83 2 16.19 2ZM5.25001 12C5.25001 11.24 5.87 10.62 6.63001 10.62C7.39 10.62 8 11.24 8 12C8 12.76 7.38001 13.38 6.62 13.38C5.86 13.38 5.25001 12.76 5.25001 12ZM15.57 16.54L13.16 18.55C12.75 18.9 12.3701 19 12.08 19C11.85 19 11.67 18.94 11.57 18.89C11.34 18.78 10.8 18.43 10.8 17.45V14.06L7.9 16.71C7.6 16.99 7.12 16.97 6.84001 16.66C6.56 16.35 6.58 15.88 6.89 15.6L10.8 12.02V11.94L6.89 8.4C6.58 8.12 6.56 7.65 6.84001 7.34C7.12 7.04 7.6 7.01 7.9 7.29L10.8 9.93999V6.56C10.8 5.58 11.34 5.22 11.57 5.12C11.8 5.01 12.42 4.83 13.17 5.46L15.5801 7.47C15.9101 7.74 16.1 8.13 16.11 8.54C16.1201 8.95 15.95 9.35 15.6401 9.64001L13.04 12L15.63 14.37C15.9401 14.66 16.1201 15.06 16.11 15.47C16.0901 15.88 15.9 16.27 15.57 16.54ZM17.3801 13.38C16.62 13.38 16.0001 12.76 16.0001 12C16.0001 11.24 16.62 10.62 17.3801 10.62C18.14 10.62 18.7601 11.24 18.7601 12C18.7601 12.76 18.1301 13.38 17.3801 13.38Z" fill="white"/>
</svg>
