<svg width="24" height="24" viewBox="0 0 24 24" fill="none" xmlns="http://www.w3.org/2000/svg">
<path d="M13.47 7.41159L15.93 6.20158C16.23 6.05158 16.31 5.66158 16.08 5.42158C15.19 4.44159 14.29 3.62158 13.57 3.00159C13.24 2.72158 12.75 2.95158 12.75 3.38158V6.96159C12.75 7.33158 13.14 7.57158 13.47 7.41159Z" fill="white"/>
<path d="M12.75 19.7383V21.3882C12.75 21.6882 13.02 21.9383 13.32 21.8883C16.05 21.4383 18.33 19.6083 19.41 17.1483C19.6 16.7283 19.14 16.3084 18.72 16.5084L13.03 19.2983C12.86 19.3782 12.75 19.5484 12.75 19.7383Z" fill="white"/>
<path d="M11.2505 3.36158C11.2505 2.93159 10.7605 2.70158 10.4305 2.97158C8.07046 4.95158 3.88046 9.12158 3.90046 13.9016C3.90046 17.9216 6.84046 21.2516 10.6805 21.8915C10.9805 21.9416 11.2505 21.6915 11.2505 21.3915V3.36158Z" fill="white"/>
<path d="M13.4402 12.4675L18.7303 10.2475C19.0003 10.1275 19.1302 9.81751 19.0003 9.55751C18.6302 8.82751 18.2002 8.11751 17.7302 7.45751C17.5903 7.2575 17.3302 7.1975 17.1103 7.29751L13.0202 9.28751C12.8503 9.36751 12.7402 9.54751 12.7402 9.7375V12.0076C12.7502 12.3576 13.1102 12.6076 13.4402 12.4675Z" fill="white"/>
<path d="M19.83 14.3107C19.99 14.2307 20.09 14.0807 20.09 13.9106C20.09 13.2707 20.01 12.6407 19.87 12.0206C19.8 11.7207 19.47 11.5607 19.19 11.6807L13.05 14.3006C12.87 14.3807 12.75 14.5607 12.75 14.7607V16.9607C12.75 17.3306 13.14 17.5706 13.47 17.4107L19.37 14.5406L19.83 14.3107Z" fill="white"/>
</svg>
