<svg width="24" height="24" viewBox="0 0 24 24" fill="none" xmlns="http://www.w3.org/2000/svg">
<path d="M14.3805 2.28784C14.4659 1.88875 14.2722 1.48207 13.9084 1.29704C13.5446 1.11203 13.1019 1.19498 12.8297 1.49915L2.62969 12.8991C2.39301 13.1637 2.33391 13.5425 2.47879 13.8667C2.62368 14.1907 2.94547 14.3992 3.30041 14.3992H11.1871L9.62039 21.7107C9.53487 22.1098 9.72861 22.5165 10.0924 22.7014C10.4562 22.8865 10.899 22.8035 11.1711 22.4993L21.3711 11.0994C21.6078 10.8349 21.6669 10.4559 21.522 10.1319C21.3772 9.80788 21.0554 9.59925 20.7004 9.59925H12.8138L14.3805 2.28784Z" fill="#0F172A"/>
</svg>
