<svg width="24" height="24" viewBox="0 0 24 24" fill="none" xmlns="http://www.w3.org/2000/svg">
<path fill-rule="evenodd" clip-rule="evenodd" d="M2.66399 2.66204C3.01546 2.31057 3.58532 2.31057 3.93678 2.66204L21.3367 20.0621C21.6882 20.4136 21.6882 20.9833 21.3367 21.3348C20.9853 21.6863 20.4155 21.6863 20.064 21.3348L2.66399 3.93483C2.31252 3.58336 2.31252 3.01351 2.66399 2.66204Z" fill="#0F172A"/>
<path d="M5.67659 9.49609L2.62969 12.9014C2.39301 13.166 2.33391 13.5448 2.47879 13.869C2.62368 14.193 2.94547 14.4015 3.30041 14.4015H10.5821L5.67659 9.49609Z" fill="#0F172A"/>
<path d="M11.0796 14.8984L9.61966 21.7116C9.53415 22.1107 9.72789 22.5174 10.0917 22.7023C10.4555 22.8873 10.8982 22.8044 11.1704 22.5002L14.7173 18.5361L11.0796 14.8984Z" fill="#0F172A"/>
<path d="M18.3234 14.507L21.3702 11.1017C21.607 10.8372 21.666 10.4582 21.5212 10.1342C21.3764 9.81018 21.0545 9.60156 20.6996 9.60156H13.418L18.3234 14.507Z" fill="#0F172A"/>
<path d="M12.9208 9.10093L14.3808 2.28784C14.4663 1.88875 14.2726 1.48207 13.9088 1.29704C13.5449 1.11203 13.1022 1.19498 12.8301 1.49915L9.2832 5.46329L12.9208 9.10093Z" fill="#0F172A"/>
</svg>
