<svg width="24" height="24" viewBox="0 0 24 24" fill="none" xmlns="http://www.w3.org/2000/svg">
<path d="M16.9999 4.96V12.08C16.9999 14.07 15.5899 14.84 13.86 13.8L12.54 13C12.24 12.82 11.76 12.82 11.46 13L10.14 13.8C8.41 14.84 7 14.07 7 12.08V4.99C7.01 3 8.00999 2 10 2H13.9999C15.9799 2 16.98 2.99 16.9999 4.96Z" fill="white"/>
<path d="M22.0001 11.9008V14.9308C22.0001 19.9808 20 22.0009 15 22.0009H9.00001C4 22.0009 2 19.9808 2 14.9308V11.9008C2 9.21083 2.57 7.38083 3.85 6.26084C4.50001 5.71084 5.5 6.19084 5.5 7.04084V12.0808C5.5 13.5709 6.11 14.7709 7.17001 15.3709C8.24 15.9808 9.60001 15.8708 10.92 15.0808L12 14.4308L13.0901 15.0808C13.83 15.5308 14.6 15.7609 15.32 15.7609C15.86 15.7609 16.37 15.6308 16.83 15.3709C17.8901 14.7709 18.5 13.5709 18.5 12.0808V7.03084C18.5 6.18083 19.5101 5.70083 20.15 6.26084C21.4301 7.38083 22.0001 9.21083 22.0001 11.9008Z" fill="white"/>
</svg>
