<svg width="24" height="24" viewBox="0 0 24 24" fill="none" xmlns="http://www.w3.org/2000/svg">
<path d="M11.25 5.99812V19.9081C11.25 20.6182 10.53 21.1081 9.88 20.8381C8.02 20.0581 5.71 19.3782 4.07 19.1581L3.76 19.1182C2.79001 18.9982 2 18.1081 2 17.1382V5.24812C2 4.04812 2.97001 3.07812 4.17001 3.07812H4.24C6.12001 3.23812 8.89 4.11812 10.72 5.10812C11.05 5.28812 11.25 5.61812 11.25 5.99812Z" fill="white"/>
<path d="M19.83 3.07812H19.77C19.53 3.09812 19.27 3.12812 19 3.17812C17.77 3.37812 16.31 3.79812 15 4.31812C14.38 4.56812 13.8 4.83812 13.29 5.10812C12.96 5.28812 12.75 5.62812 12.75 5.99812V19.9081C12.75 20.6182 13.47 21.1081 14.12 20.8381C15.98 20.0581 18.29 19.3782 19.93 19.1581L20.24 19.1182C21.21 18.9982 22 18.1081 22 17.1382V5.24812C22 4.04812 21.03 3.07812 19.83 3.07812ZM19.27 13.7281C19.27 14.1181 18.99 14.2882 18.65 14.0982L17.59 13.5082C17.48 13.4482 17.3 13.4482 17.18 13.5082L16.12 14.0982C15.78 14.2882 15.5 14.1181 15.5 13.7281V10.6581C15.5 10.1981 15.88 9.81812 16.34 9.81812H18.44C18.9 9.81812 19.28 10.1981 19.28 10.6581V13.7281H19.27Z" fill="white"/>
</svg>
