<svg width="24" height="24" viewBox="0 0 24 24" fill="none" xmlns="http://www.w3.org/2000/svg">
<path d="M22 4.84968V16.7398C22 17.7097 21.21 18.5998 20.24 18.7198L19.93 18.7597C18.29 18.9797 15.98 19.6597 14.12 20.4397C13.47 20.7097 12.75 20.2198 12.75 19.5097V5.59968C12.75 5.22969 12.96 4.88968 13.29 4.70968C15.12 3.71968 17.89 2.83968 19.77 2.67969H19.83C21.03 2.67969 22 3.64968 22 4.84968Z" fill="white"/>
<path d="M10.7102 4.70968C8.88024 3.71968 6.11024 2.83968 4.23024 2.67969H4.16024C2.96024 2.67969 1.99023 3.64968 1.99023 4.84968V16.7398C1.99023 17.7097 2.78024 18.5998 3.75024 18.7198L4.06023 18.7597C5.70024 18.9797 8.01024 19.6597 9.87024 20.4397C10.5202 20.7097 11.2402 20.2198 11.2402 19.5097V5.59968C11.2402 5.21968 11.0402 4.88968 10.7102 4.70968ZM5.00024 7.73968H7.25024C7.66023 7.73968 8.00024 8.07968 8.00024 8.48968C8.00024 8.90968 7.66023 9.23968 7.25024 9.23968H5.00024C4.59024 9.23968 4.25024 8.90968 4.25024 8.48968C4.25024 8.07968 4.59024 7.73968 5.00024 7.73968ZM8.00024 12.2398H5.00024C4.59024 12.2398 4.25024 11.9097 4.25024 11.4897C4.25024 11.0797 4.59024 10.7397 5.00024 10.7397H8.00024C8.41023 10.7397 8.75024 11.0797 8.75024 11.4897C8.75024 11.9097 8.41023 12.2398 8.00024 12.2398Z" fill="white"/>
</svg>
