<svg width="24" height="24" viewBox="0 0 24 24" fill="none" xmlns="http://www.w3.org/2000/svg">
<path fill-rule="evenodd" clip-rule="evenodd" d="M5.10039 2.39844C3.60922 2.39844 2.40039 3.60727 2.40039 5.09844V18.8984C2.40039 20.3896 3.60922 21.5984 5.10039 21.5984H18.9004C20.3915 21.5984 21.6004 20.3896 21.6004 18.8984V5.09844C21.6004 3.60727 20.3915 2.39844 18.9004 2.39844H5.10039ZM7.20039 15.8984V4.19844H16.8004V15.8984C16.8004 16.2054 16.644 16.4911 16.3854 16.6566C16.127 16.822 15.8019 16.8443 15.5232 16.7156L12.0004 15.0896L8.47754 16.7156C8.19887 16.8443 7.87387 16.822 7.61533 16.6566C7.3568 16.4911 7.20039 16.2054 7.20039 15.8984Z" fill="#0F172A"/>
</svg>
