<svg width="24" height="24" viewBox="0 0 24 24" fill="none" xmlns="http://www.w3.org/2000/svg">
<path d="M20.3993 5.41837V16.58L6.51953 2.70025C8.31896 2.5008 10.1474 2.39844 11.9993 2.39844C14.0589 2.39844 16.0894 2.52505 18.0833 2.77099C19.4324 2.93739 20.3993 4.09493 20.3993 5.41837Z" fill="#0F172A"/>
<path d="M3.59961 20.6996V7.41797L16.384 20.2024L11.9996 18.0979L4.88907 21.5109C4.61019 21.6448 4.28211 21.6261 4.02029 21.4614C3.75848 21.2966 3.59961 21.009 3.59961 20.6996Z" fill="#0F172A"/>
<path d="M3.93678 2.66204C3.58532 2.31057 3.01546 2.31057 2.66399 2.66204C2.31252 3.01351 2.31252 3.58336 2.66399 3.93483L20.064 21.3348C20.4155 21.6863 20.9853 21.6863 21.3367 21.3348C21.6882 20.9833 21.6882 20.4136 21.3367 20.0621L3.93678 2.66204Z" fill="#0F172A"/>
</svg>
