<svg width="24" height="24" viewBox="0 0 24 24" fill="none" xmlns="http://www.w3.org/2000/svg">
<path d="M20.5001 16V18.5C20.5001 20.43 18.93 22 17 22H7C5.07001 22 3.5 20.43 3.5 18.5V17.85C3.5 16.28 4.78 15 6.35 15H19.5C20.0501 15 20.5001 15.45 20.5001 16Z" fill="white"/>
<path d="M15.5 2H8.5C4.50001 2 3.5 3 3.5 7V14.58C4.26001 13.91 5.26 13.5 6.35 13.5H19.5C20.0501 13.5 20.5001 13.05 20.5001 12.5V7C20.5001 3 19.5 2 15.5 2ZM13.0001 10.75H8C7.59001 10.75 7.25 10.41 7.25 10C7.25 9.59 7.59001 9.25 8 9.25H13.0001C13.41 9.25 13.7501 9.59 13.7501 10C13.7501 10.41 13.41 10.75 13.0001 10.75ZM16.0001 7.25H8C7.59001 7.25 7.25 6.91 7.25 6.5C7.25 6.09 7.59001 5.75 8 5.75H16.0001C16.41 5.75 16.7501 6.09 16.7501 6.5C16.7501 6.91 16.41 7.25 16.0001 7.25Z" fill="white"/>
</svg>
