<svg width="24" height="24" viewBox="0 0 24 24" fill="none" xmlns="http://www.w3.org/2000/svg">
<path d="M12.9004 20.185C14.3499 19.1861 16.1058 18.6016 18.0004 18.6016C18.8528 18.6016 19.6761 18.7198 20.4555 18.9402C20.7268 19.017 21.0184 18.9622 21.2433 18.792C21.4683 18.6218 21.6004 18.3562 21.6004 18.0742V4.87422C21.6004 4.4715 21.3329 4.1178 20.9453 4.00819C20.0081 3.74311 19.02 3.60156 18.0004 3.60156C16.1567 3.60156 14.4196 4.06415 12.9004 4.87941V20.185Z" fill="#0F172A"/>
<path d="M11.1004 4.87941C9.58114 4.06415 7.84407 3.60156 6.00039 3.60156C4.98074 3.60156 3.99266 3.74311 3.05545 4.00819C2.66793 4.1178 2.40039 4.4715 2.40039 4.87422V18.0742C2.40039 18.3562 2.53256 18.6218 2.75746 18.792C2.98235 18.9622 3.27399 19.017 3.54533 18.9402C4.32472 18.7198 5.14799 18.6016 6.00039 18.6016C7.895 18.6016 9.65089 19.1861 11.1004 20.185V4.87941Z" fill="#0F172A"/>
</svg>
