<svg width="24" height="24" viewBox="0 0 24 24" fill="none" xmlns="http://www.w3.org/2000/svg">
<path d="M20.1004 6.94C20.1004 7.48 19.8104 7.97 19.3504 8.22L17.6104 9.16L16.1304 9.95L13.0604 11.61C12.7304 11.79 12.3704 11.88 12.0004 11.88C11.6304 11.88 11.2704 11.79 10.9404 11.61L4.65039 8.22C4.19039 7.97 3.90039 7.48 3.90039 6.94C3.90039 6.4 4.19039 5.91 4.65039 5.66L6.6204 4.6L8.19039 3.75L10.9404 2.27C11.6004 1.91 12.4004 1.91 13.0604 2.27L19.3504 5.66C19.8104 5.91 20.1004 6.4 20.1004 6.94Z" fill="white"/>
<path d="M9.9007 12.7862L4.0507 9.86623C3.6007 9.63624 3.0807 9.66624 2.65071 9.92623C2.2207 10.1862 1.9707 10.6462 1.9707 11.1462V16.6762C1.9707 17.6362 2.50071 18.4962 3.3607 18.9262L9.2107 21.8462C9.4107 21.9462 9.6307 21.9962 9.85071 21.9962C10.1107 21.9962 10.3707 21.9262 10.6007 21.7762C11.0307 21.5162 11.2807 21.0562 11.2807 20.5562V15.0262C11.2907 14.0762 10.7607 13.2162 9.9007 12.7862Z" fill="white"/>
<path d="M22.031 11.1496V16.6796C22.031 17.6296 21.5009 18.4896 20.6409 18.9196L14.7909 21.8496C14.591 21.9496 14.3709 21.9996 14.1509 21.9996C13.8909 21.9996 13.631 21.9296 13.391 21.7796C12.971 21.5196 12.7109 21.0596 12.7109 20.5596V15.0396C12.7109 14.0796 13.241 13.2196 14.1009 12.7896L16.2509 11.7196L17.7509 10.9696L19.9509 9.86964C20.4009 9.63964 20.921 9.65964 21.3509 9.92964C21.7709 10.1896 22.031 10.6496 22.031 11.1496Z" fill="white"/>
<path d="M17.6091 9.16L16.1291 9.95L6.61914 4.6L8.18914 3.75L17.3691 8.93C17.4692 8.99 17.5491 9.07 17.6091 9.16Z" fill="white"/>
<path d="M17.75 10.9688V13.2388C17.75 13.6488 17.41 13.9888 17 13.9888C16.59 13.9888 16.25 13.6488 16.25 13.2388V11.7188L17.75 10.9688Z" fill="white"/>
</svg>
