<svg width="24" height="24" viewBox="0 0 24 24" fill="none" xmlns="http://www.w3.org/2000/svg">
<path d="M17.6005 5.31125L11.9505 2.27125C11.3505 1.95125 10.6405 1.95125 10.0405 2.27125L4.40046 5.31125C3.99046 5.54125 3.73047 5.98125 3.73047 6.46125C3.73047 6.95125 3.98046 7.39125 4.40046 7.61125L10.0505 10.6512C10.3505 10.8112 10.6805 10.8912 11.0005 10.8912C11.3205 10.8912 11.6605 10.8112 11.9505 10.6512L17.6005 7.61125C18.0105 7.39125 18.2705 6.95125 18.2705 6.46125C18.2705 5.98125 18.0105 5.54125 17.6005 5.31125Z" fill="white"/>
<path d="M9.12001 11.7105L3.87001 9.09058C3.46 8.88058 3.00001 8.91058 2.61001 9.14058C2.23 9.38058 2 9.79057 2 10.2406V15.2006C2 16.0605 2.48 16.8305 3.25 17.2205L8.5 19.8405C8.68 19.9305 8.88001 19.9805 9.08 19.9805C9.31 19.9805 9.55 19.9106 9.76 19.7906C10.14 19.5506 10.37 19.1405 10.37 18.6905V13.7306C10.36 12.8705 9.88 12.1005 9.12001 11.7105Z" fill="white"/>
<path d="M19.9987 10.2406V12.7005C19.5187 12.5606 19.0087 12.5006 18.4987 12.5006C17.1387 12.5006 15.8086 12.9705 14.7586 13.8105C13.3186 14.9405 12.4987 16.6505 12.4987 18.5006C12.4987 18.9905 12.5587 19.4805 12.6886 19.9505C12.5386 19.9305 12.3886 19.8705 12.2487 19.7805C11.8687 19.5506 11.6387 19.1405 11.6387 18.6905V13.7306C11.6387 12.8705 12.1186 12.1005 12.8787 11.7106L18.1287 9.09058C18.5386 8.88058 18.9987 8.91058 19.3887 9.14058C19.7686 9.38058 19.9987 9.79057 19.9987 10.2406Z" fill="white"/>
<path d="M21.98 15.6695C21.16 14.6595 19.91 14.0195 18.5 14.0195C17.44 14.0195 16.46 14.3895 15.69 15.0095C14.65 15.8295 14 17.0996 14 18.5195C14 19.3595 14.24 20.1596 14.65 20.8395C14.92 21.2895 15.26 21.6795 15.66 21.9995H15.67C16.44 22.6395 17.43 23.0195 18.5 23.0195C19.64 23.0195 20.67 22.5995 21.46 21.8996C21.81 21.5996 22.11 21.2396 22.35 20.8395C22.76 20.1596 23 19.3595 23 18.5195C23 17.4395 22.62 16.4396 21.98 15.6695ZM20.76 17.9595L18.36 20.1795C18.22 20.3096 18.03 20.3795 17.85 20.3795C17.66 20.3795 17.47 20.3096 17.32 20.1596L16.21 19.0496C15.92 18.7595 15.92 18.2795 16.21 17.9895C16.5 17.6996 16.98 17.6996 17.27 17.9895L17.87 18.5895L19.74 16.8596C20.04 16.5795 20.52 16.5995 20.8 16.8995C21.09 17.2095 21.07 17.6795 20.76 17.9595Z" fill="white"/>
</svg>
