<svg width="24" height="24" viewBox="0 0 24 24" fill="none" xmlns="http://www.w3.org/2000/svg">
<path d="M17.6005 5.31125L11.9505 2.27125C11.3505 1.95125 10.6405 1.95125 10.0405 2.27125L4.40046 5.31125C3.99046 5.54125 3.73047 5.98125 3.73047 6.46125C3.73047 6.95125 3.98046 7.39125 4.40046 7.61125L10.0505 10.6512C10.3505 10.8112 10.6805 10.8912 11.0005 10.8912C11.3205 10.8912 11.6605 10.8112 11.9505 10.6512L17.6005 7.61125C18.0105 7.39125 18.2705 6.95125 18.2705 6.46125C18.2705 5.98125 18.0105 5.54125 17.6005 5.31125Z" fill="white"/>
<path d="M9.12001 11.7105L3.87001 9.09058C3.46 8.88058 3.00001 8.91058 2.61001 9.14058C2.23 9.38058 2 9.79057 2 10.2406V15.2006C2 16.0605 2.48 16.8305 3.25 17.2205L8.5 19.8405C8.68 19.9305 8.88001 19.9805 9.08 19.9805C9.31 19.9805 9.55 19.9106 9.76 19.7906C10.14 19.5506 10.37 19.1405 10.37 18.6905V13.7306C10.36 12.8705 9.88 12.1005 9.12001 11.7105Z" fill="white"/>
<path d="M19.9987 10.2406V12.7005C19.5187 12.5606 19.0087 12.5006 18.4987 12.5006C17.1387 12.5006 15.8086 12.9705 14.7586 13.8105C13.3186 14.9405 12.4987 16.6505 12.4987 18.5006C12.4987 18.9905 12.5587 19.4805 12.6886 19.9505C12.5386 19.9305 12.3886 19.8705 12.2487 19.7805C11.8687 19.5506 11.6387 19.1405 11.6387 18.6905V13.7306C11.6387 12.8705 12.1186 12.1005 12.8787 11.7106L18.1287 9.09058C18.5386 8.88058 18.9987 8.91058 19.3887 9.14058C19.7686 9.38058 19.9987 9.79057 19.9987 10.2406Z" fill="white"/>
<path d="M21.6814 15.3206C20.7914 14.4306 19.6113 13.9806 18.4413 14.0006C17.3114 14.0106 16.1814 14.4606 15.3214 15.3206C14.7214 15.9107 14.3314 16.6506 14.1414 17.4206C14.0314 17.8406 13.9914 18.2706 14.0214 18.7007V18.7506C14.0214 18.8207 14.0313 18.8807 14.0414 18.9606C14.0414 18.9606 14.0414 18.9606 14.0514 18.9707V19.0007C14.1414 19.9806 14.5614 20.9306 15.3214 21.6806C16.4814 22.8407 18.1114 23.2307 19.5814 22.8606C20.0214 22.7507 20.4514 22.5707 20.8514 22.3307C21.1514 22.1606 21.4314 21.9407 21.6814 21.6806C22.4314 20.9306 22.8614 19.9806 22.9514 18.9906C22.9614 18.9906 22.9614 18.9707 22.9614 18.9606C22.9814 18.8906 22.9814 18.8106 22.9814 18.7406C22.9814 18.7307 22.9914 18.7106 22.9914 18.6906C23.0514 17.4806 22.6114 16.2407 21.6814 15.3206ZM20.2314 20.2106C19.9414 20.5007 19.4714 20.5007 19.1714 20.2106L18.5114 19.5506L17.8314 20.2307C17.5314 20.5307 17.0613 20.5307 16.7714 20.2307C16.4714 19.9406 16.4714 19.4706 16.7714 19.1706L17.4513 18.4907L16.7913 17.8307C16.5014 17.5307 16.5014 17.0606 16.7913 16.7706C17.0913 16.4706 17.5614 16.4706 17.8614 16.7706L18.5114 17.4306L19.1414 16.7906C19.4414 16.5006 19.9114 16.5006 20.2114 16.7906C20.5014 17.0906 20.5014 17.5607 20.2114 17.8607L19.5714 18.4907L20.2314 19.1406C20.5314 19.4406 20.5314 19.9106 20.2314 20.2106Z" fill="white"/>
</svg>
