<svg width="24" height="24" viewBox="0 0 24 24" fill="none" xmlns="http://www.w3.org/2000/svg">
<path d="M17.6005 5.31125L11.9505 2.27125C11.3505 1.95125 10.6405 1.95125 10.0405 2.27125L4.40046 5.31125C3.99046 5.54125 3.73047 5.98125 3.73047 6.46125C3.73047 6.95125 3.98046 7.39125 4.40046 7.61125L10.0505 10.6512C10.3505 10.8112 10.6805 10.8912 11.0005 10.8912C11.3205 10.8912 11.6605 10.8112 11.9505 10.6512L17.6005 7.61125C18.0105 7.39125 18.2705 6.95125 18.2705 6.46125C18.2705 5.98125 18.0105 5.54125 17.6005 5.31125Z" fill="white"/>
<path d="M9.12001 11.7105L3.87001 9.09058C3.46 8.88058 3.00001 8.91058 2.61001 9.14058C2.23 9.38058 2 9.79057 2 10.2406V15.2006C2 16.0605 2.48 16.8305 3.25 17.2205L8.5 19.8405C8.68 19.9305 8.88001 19.9805 9.08 19.9805C9.31 19.9805 9.55 19.9106 9.76 19.7906C10.14 19.5506 10.37 19.1405 10.37 18.6905V13.7306C10.36 12.8705 9.88 12.1005 9.12001 11.7105Z" fill="white"/>
<path d="M19.9987 10.2406V12.7005C19.5187 12.5606 19.0087 12.5006 18.4987 12.5006C17.1387 12.5006 15.8086 12.9705 14.7586 13.8105C13.3186 14.9405 12.4987 16.6505 12.4987 18.5006C12.4987 18.9905 12.5587 19.4805 12.6886 19.9505C12.5386 19.9305 12.3886 19.8705 12.2487 19.7805C11.8687 19.5506 11.6387 19.1405 11.6387 18.6905V13.7306C11.6387 12.8705 12.1186 12.1005 12.8787 11.7106L18.1287 9.09058C18.5386 8.88058 18.9987 8.91058 19.3887 9.14058C19.7686 9.38058 19.9987 9.79057 19.9987 10.2406Z" fill="white"/>
<path d="M21.98 15.65C21.16 14.64 19.91 14 18.5 14C17.44 14 16.46 14.37 15.69 14.99C14.65 15.81 14 17.0799 14 18.5C14 19.91 14.64 21.1599 15.65 21.98C16.42 22.62 17.42 23 18.5 23C19.64 23 20.67 22.5699 21.47 21.8799C22.4 21.05 23 19.85 23 18.5C23 17.42 22.62 16.4199 21.98 15.65ZM19.53 18.78C19.53 19.04 19.39 19.29 19.17 19.4199L17.76 20.2599C17.64 20.33 17.51 20.37 17.37 20.37C17.12 20.37 16.87 20.24 16.73 20.01C16.52 19.65 16.63 19.19 16.99 18.98L18.03 18.36V17.1C18.03 16.6899 18.37 16.35 18.78 16.35C19.19 16.35 19.53 16.6899 19.53 17.1V18.78Z" fill="white"/>
</svg>
