<svg width="24" height="24" viewBox="0 0 24 24" fill="none" xmlns="http://www.w3.org/2000/svg">
<path d="M17.6005 5.31125L11.9505 2.27125C11.3505 1.95125 10.6405 1.95125 10.0405 2.27125L4.40046 5.31125C3.99046 5.54125 3.73047 5.98125 3.73047 6.46125C3.73047 6.95125 3.98046 7.39125 4.40046 7.61125L10.0505 10.6512C10.3505 10.8112 10.6805 10.8912 11.0005 10.8912C11.3205 10.8912 11.6605 10.8112 11.9505 10.6512L17.6005 7.61125C18.0105 7.39125 18.2705 6.95125 18.2705 6.46125C18.2705 5.98125 18.0105 5.54125 17.6005 5.31125Z" fill="white"/>
<path d="M9.12001 11.7105L3.87001 9.09058C3.46 8.88058 3.00001 8.91058 2.61001 9.14058C2.23 9.38058 2 9.79057 2 10.2406V15.2006C2 16.0605 2.48 16.8305 3.25 17.2205L8.5 19.8405C8.68 19.9305 8.88001 19.9805 9.08 19.9805C9.31 19.9805 9.55 19.9106 9.76 19.7906C10.14 19.5506 10.37 19.1405 10.37 18.6905V13.7306C10.36 12.8705 9.88 12.1005 9.12001 11.7105Z" fill="white"/>
<path d="M19.9987 10.2406V12.7005C19.5187 12.5606 19.0087 12.5006 18.4987 12.5006C17.1387 12.5006 15.8086 12.9705 14.7586 13.8105C13.3186 14.9405 12.4987 16.6505 12.4987 18.5006C12.4987 18.9905 12.5587 19.4805 12.6886 19.9505C12.5386 19.9305 12.3886 19.8705 12.2487 19.7805C11.8687 19.5506 11.6387 19.1405 11.6387 18.6905V13.7306C11.6387 12.8705 12.1186 12.1005 12.8787 11.7106L18.1287 9.09058C18.5386 8.88058 18.9987 8.91058 19.3887 9.14058C19.7686 9.38058 19.9987 9.79057 19.9987 10.2406Z" fill="white"/>
<path d="M22 15.6999C22 15.69 21.99 15.68 21.98 15.6699C21.94 15.6099 21.89 15.5499 21.84 15.5C21.83 15.4899 21.82 15.47 21.81 15.4599C21 14.5599 19.81 14 18.5 14C17.24 14 16.09 14.52 15.27 15.36C14.48 16.17 14 17.28 14 18.5C14 19.34 14.24 20.1399 14.65 20.82C14.87 21.1899 15.15 21.53 15.47 21.81C15.49 21.8199 15.5 21.83 15.51 21.84C15.56 21.89 15.61 21.93 15.67 21.98C15.67 21.98 15.67 21.98 15.68 21.98C15.69 21.99 15.7 21.9999 15.71 21.9999C16.46 22.6299 17.43 23 18.5 23C20.14 23 21.57 22.1199 22.35 20.82C22.58 20.43 22.76 20 22.87 19.55C22.96 19.2099 23 18.86 23 18.5C23 17.4399 22.63 16.46 22 15.6999ZM20.18 19.23H19.25V20.1999C19.25 20.61 18.91 20.9499 18.5 20.9499C18.09 20.9499 17.75 20.61 17.75 20.1999V19.23H16.82C16.41 19.23 16.07 18.89 16.07 18.48C16.07 18.0699 16.41 17.73 16.82 17.73H17.75V16.8399C17.75 16.43 18.09 16.0899 18.5 16.0899C18.91 16.0899 19.25 16.43 19.25 16.8399V17.73H20.18C20.59 17.73 20.93 18.0699 20.93 18.48C20.93 18.89 20.6 19.23 20.18 19.23Z" fill="white"/>
</svg>
