<svg width="24" height="24" viewBox="0 0 24 24" fill="none" xmlns="http://www.w3.org/2000/svg">
<path d="M5.33109 19.4213C5.22109 19.4213 5.10109 19.3913 5.00109 19.3413L2.78109 18.2313C2.53109 18.1013 2.37109 17.8413 2.37109 17.5613V14.7813C2.37109 14.3712 2.71109 14.0312 3.12109 14.0312C3.53109 14.0312 3.87109 14.3712 3.87109 14.7813V17.0913L5.67109 18.0012C6.04109 18.1812 6.19109 18.6312 6.00109 19.0013C5.87109 19.2612 5.61109 19.4213 5.33109 19.4213Z" fill="white"/>
<path d="M12.0014 22.7488C11.9414 22.7488 11.8814 22.7388 11.8314 22.7287C11.7714 22.7188 11.7114 22.6888 11.6514 22.6588L9.44142 21.5587C9.07143 21.3688 8.92143 20.9188 9.10143 20.5488C9.29142 20.1788 9.74142 20.0287 10.1114 20.2087L11.2514 20.7787V19.2187C11.2514 18.8088 11.5914 18.4688 12.0014 18.4688C12.4114 18.4688 12.7514 18.8088 12.7514 19.2187V20.7787L13.8914 20.2087C14.2613 20.0287 14.7113 20.1788 14.9014 20.5488C15.0914 20.9188 14.9414 21.3688 14.5613 21.5587L12.3514 22.6588C12.2914 22.6888 12.2314 22.7088 12.1714 22.7287C12.1114 22.7388 12.0614 22.7488 12.0014 22.7488Z" fill="white"/>
<path d="M18.6702 19.4191C18.4002 19.4191 18.1302 19.2691 18.0002 19.0091C17.8102 18.6391 17.9602 18.1891 18.3402 17.9991L20.1502 17.0991V14.7891C20.1502 14.3791 20.4902 14.0391 20.9002 14.0391C21.3102 14.0391 21.6502 14.3791 21.6502 14.7891V17.5691C21.6502 17.8491 21.4902 18.1091 21.2402 18.2391L19.0002 19.3391C18.8902 19.3891 18.7802 19.4191 18.6702 19.4191Z" fill="white"/>
<path d="M12.0014 14.4191C11.5914 14.4191 11.2514 14.0791 11.2514 13.6691V11.3591L9.44142 10.4591C9.07143 10.2691 8.92143 9.81907 9.10143 9.44908C9.29142 9.07907 9.74142 8.92907 10.1114 9.10907L12.0014 10.0491L13.8914 9.10907C14.2613 8.92907 14.7113 9.06907 14.9014 9.44908C15.0914 9.81907 14.9414 10.2691 14.5613 10.4591L12.7514 11.3591V13.6691C12.7514 14.0791 12.4114 14.4191 12.0014 14.4191Z" fill="white"/>
<path d="M3.10937 9.97197C2.69937 9.97197 2.35938 9.63197 2.35938 9.22197V6.46197V6.45196C2.35938 6.39196 2.36937 6.33196 2.37937 6.28197C2.39937 6.19197 2.42937 6.12196 2.46937 6.05197C2.49937 6.00196 2.53938 5.96197 2.57937 5.92197C2.61937 5.88197 2.66937 5.84197 2.71937 5.81197C2.73937 5.80197 2.76937 5.78197 2.78937 5.77197L4.99937 4.66197C5.36937 4.48197 5.81937 4.63197 5.99937 5.00197C6.18937 5.37196 6.03937 5.82196 5.66937 6.00196L4.78937 6.44197L5.66937 6.88197C6.03937 7.07197 6.18937 7.52197 5.99937 7.89196C5.81937 8.26197 5.36937 8.41196 4.99937 8.23196L3.85937 7.66197V9.22197C3.85937 9.64197 3.52937 9.97197 3.10937 9.97197Z" fill="white"/>
<path d="M14.2198 3.8586C14.1097 3.8586 13.9898 3.8286 13.8898 3.77859L11.9998 2.8386L10.1098 3.77859C9.73981 3.96859 9.28981 3.81859 9.10981 3.44859C8.91981 3.0786 9.06981 2.6286 9.43981 2.43859L11.6598 1.32859C11.8698 1.2186 12.1198 1.2186 12.3298 1.32859L14.5498 2.43859C14.9198 2.6286 15.0697 3.0786 14.8897 3.44859C14.7598 3.7086 14.4997 3.8586 14.2198 3.8586Z" fill="white"/>
<path d="M20.8904 9.97197C20.4804 9.97197 20.1404 9.63197 20.1404 9.22197V7.66197L19.0004 8.23196C18.6305 8.41196 18.1805 8.26197 18.0005 7.89196C17.8104 7.52197 17.9604 7.07197 18.3404 6.88197L19.2204 6.44197L18.3305 6.00196C17.9604 5.82196 17.8104 5.37196 18.0005 5.00197C18.1904 4.63197 18.6305 4.48197 19.0004 4.66197L21.2105 5.76197C21.2304 5.77197 21.2604 5.78197 21.2804 5.80197C21.3404 5.83197 21.3905 5.88196 21.4404 5.93197C21.4704 5.97196 21.5004 6.01197 21.5304 6.05197C21.5705 6.12196 21.6005 6.19197 21.6204 6.27196C21.6305 6.33196 21.6404 6.39197 21.6404 6.44197V6.45196V9.21197C21.6404 9.64197 21.3005 9.97197 20.8904 9.97197Z" fill="white"/>
</svg>
