<svg width="24" height="24" viewBox="0 0 24 24" fill="none" xmlns="http://www.w3.org/2000/svg">
<path d="M20.2102 7.81751L12.5102 12.2776C12.2002 12.4576 11.8102 12.4576 11.4902 12.2776L3.79021 7.81751C3.24022 7.4975 3.10021 6.7475 3.52021 6.2775C3.81022 5.9475 4.14022 5.6775 4.49022 5.4875L9.91021 2.4875C11.0702 1.8375 12.9502 1.8375 14.1102 2.4875L19.5302 5.4875C19.8802 5.6775 20.2102 5.95751 20.5002 6.2775C20.9002 6.7475 20.7602 7.4975 20.2102 7.81751Z" fill="white"/>
<path d="M11.4305 14.1389V20.9589C11.4305 21.719 10.6605 22.2189 9.98046 21.8889C7.92047 20.879 4.45047 18.989 4.45047 18.989C3.23046 18.299 2.23047 16.559 2.23047 15.1289V9.9689C2.23047 9.17891 3.06047 8.6789 3.74046 9.0689L10.9305 13.2389C11.2305 13.4289 11.4305 13.769 11.4305 14.1389Z" fill="white"/>
<path d="M12.5703 14.1389V20.9589C12.5703 21.719 13.3404 22.2189 14.0203 21.8889C16.0803 20.879 19.5504 18.989 19.5504 18.989C20.7703 18.299 21.7704 16.559 21.7704 15.1289V9.9689C21.7704 9.17891 20.9403 8.6789 20.2603 9.0689L13.0704 13.2389C12.7704 13.4289 12.5703 13.769 12.5703 14.1389Z" fill="white"/>
</svg>
