<svg width="24" height="24" viewBox="0 0 24 24" fill="none" xmlns="http://www.w3.org/2000/svg">
<path fill-rule="evenodd" clip-rule="evenodd" d="M7.20039 4.49922C7.20039 2.67668 8.67785 1.19922 10.5004 1.19922H13.5004C15.323 1.19922 16.8004 2.67668 16.8004 4.49922V5.03045C17.4868 5.09691 18.1692 5.17751 18.8472 5.27192C20.4635 5.49701 21.6004 6.89803 21.6004 8.4835V12.6455C21.6004 13.9976 20.7674 15.2753 19.405 15.6935C17.0626 16.4126 14.5758 16.7992 12.0004 16.7992C9.42495 16.7992 6.93818 16.4126 4.5958 15.6935C3.23347 15.2753 2.40039 13.9976 2.40039 12.6455V8.4835C2.40039 6.89803 3.53723 5.49701 5.15361 5.27192C5.83159 5.17751 6.51394 5.09691 7.20039 5.03045V4.49922ZM15.0004 4.49922V4.88921C14.008 4.82949 13.0077 4.79922 12.0004 4.79922C10.9931 4.79922 9.99284 4.82949 9.00039 4.88921V4.49922C9.00039 3.67079 9.67196 2.99922 10.5004 2.99922H13.5004C14.3289 2.99922 15.0004 3.67079 15.0004 4.49922ZM12.0004 11.9992C11.3377 11.9992 10.8004 12.5365 10.8004 13.1992V13.2112C10.8004 13.874 11.3377 14.4112 12.0004 14.4112H12.0124C12.6752 14.4112 13.2124 13.874 13.2124 13.2112V13.1992C13.2124 12.5365 12.6752 11.9992 12.0124 11.9992H12.0004Z" fill="#0F172A"/>
<path d="M3.59961 18.0667V17.2461C3.75033 17.3096 3.90611 17.3662 4.06681 17.4155C6.57842 18.1865 9.24315 18.6004 11.9996 18.6004C14.756 18.6004 17.4208 18.1865 19.9324 17.4155C20.0931 17.3662 20.2489 17.3096 20.3996 17.2461V18.0667C20.3996 19.6833 19.2181 21.1029 17.5639 21.2891C15.7372 21.4947 13.8806 21.6003 11.9996 21.6003C10.1186 21.6003 8.26201 21.4947 6.43534 21.2891C4.78114 21.1029 3.59961 19.6833 3.59961 18.0667Z" fill="#0F172A"/>
</svg>
