<svg width="24" height="24" viewBox="0 0 24 24" fill="none" xmlns="http://www.w3.org/2000/svg">
<path d="M11.1307 15.8828C10.8807 15.8828 10.6307 15.7527 10.4907 15.5228C10.2807 15.1728 10.3907 14.7027 10.7507 14.4927L11.6407 13.9628V12.8828C11.6407 12.4728 11.9807 12.1328 12.3908 12.1328C12.8007 12.1328 13.1408 12.4728 13.1408 12.8828V14.3828C13.1408 14.6427 13.0007 14.8928 12.7808 15.0228L11.5307 15.7728C11.3907 15.8427 11.2607 15.8828 11.1307 15.8828Z" fill="white"/>
<path d="M21.089 6.97562C20.239 6.03562 18.829 5.56562 16.759 5.56562H16.519V5.52562C16.519 3.84562 16.519 1.76562 12.7591 1.76562H11.239C7.47906 1.76562 7.47906 3.84562 7.47906 5.52562V5.56562H7.23906C5.16906 5.56562 3.74906 6.03562 2.90906 6.97562C1.91906 8.08562 1.94906 9.55562 2.04906 10.5656L2.05907 10.6356L2.12814 11.4416C2.14134 11.5955 2.22488 11.7348 2.3546 11.8188C2.63829 12.0024 2.94011 12.1951 3.22907 12.3556C3.36906 12.4456 3.51906 12.5256 3.66906 12.6056C4.79906 13.2256 6.00906 13.7156 7.24907 14.0556C7.27907 16.6456 9.39906 18.7456 11.999 18.7456C14.6191 18.7456 16.7491 16.6156 16.7491 13.9956V13.9556C18.0091 13.5756 19.219 13.0456 20.3491 12.3856C20.4091 12.3556 20.449 12.3256 20.4991 12.2956C20.894 12.081 21.3035 11.8001 21.6772 11.5351C21.7931 11.4529 21.868 11.3249 21.8837 11.1837L21.899 11.0456L21.949 10.5756C21.959 10.5156 21.959 10.4656 21.9691 10.3956C22.049 9.39562 22.0291 8.01562 21.089 6.97562ZM8.90906 5.52562C8.90906 3.82562 8.90906 3.18562 11.239 3.18562H12.7591C15.089 3.18562 15.089 3.82562 15.089 5.52562V5.56562H8.90906V5.52562ZM11.999 17.2456C10.349 17.2456 8.97906 16.0056 8.77907 14.4056C8.75906 14.2756 8.74907 14.1356 8.74907 13.9956C8.74907 12.2056 10.209 10.7456 11.999 10.7456C13.789 10.7456 15.2491 12.2056 15.2491 13.9956C15.2491 14.1156 15.239 14.2256 15.229 14.3356V14.3456C15.049 15.9756 13.669 17.2456 11.999 17.2456Z" fill="white"/>
<path d="M21.0396 13.7283C21.2883 13.5903 21.6111 13.7905 21.5852 14.0738L21.2296 17.9583C21.0196 19.9583 20.1996 21.9983 15.7996 21.9983H8.17963C3.77963 21.9983 2.95963 19.9583 2.75963 17.9684L2.41375 14.2651C2.38691 13.9775 2.69442 13.7833 2.94962 13.9184C3.72962 14.3483 4.53962 14.7284 5.36963 15.0284C5.67962 15.1383 5.89963 15.3983 5.98963 15.7184C6.73963 18.3183 9.15962 20.2484 11.9996 20.2484C14.8896 20.2484 17.3296 18.2783 18.0396 15.5783C18.1197 15.2583 18.3396 14.9984 18.6496 14.8784C19.4896 14.5484 20.2896 14.1584 21.0396 13.7283Z" fill="white"/>
</svg>
