<svg width="24" height="24" viewBox="0 0 24 24" fill="none" xmlns="http://www.w3.org/2000/svg">
<path d="M21.089 6.97562C20.239 6.03562 18.829 5.56562 16.759 5.56562H16.519V5.52562C16.519 3.84562 16.519 1.76562 12.7591 1.76562H11.239C7.47906 1.76562 7.47906 3.84562 7.47906 5.52562V5.56562H7.23906C5.16906 5.56562 3.74906 6.03562 2.90906 6.97562C1.91906 8.08562 1.94906 9.55562 2.04906 10.5656L2.05907 10.6356L2.12814 11.4416C2.14134 11.5955 2.22488 11.7348 2.3546 11.8188C2.63829 12.0024 2.94011 12.1951 3.22907 12.3556C3.36906 12.4456 3.51906 12.5256 3.66906 12.6056C4.79906 13.2256 6.00906 13.7156 7.24907 14.0556C7.27907 16.6456 9.39906 18.7456 11.999 18.7456C14.6191 18.7456 16.7491 16.6156 16.7491 13.9956V13.9556C18.0091 13.5756 19.219 13.0456 20.3491 12.3856C20.4091 12.3556 20.449 12.3256 20.4991 12.2956C20.8937 12.0812 21.3031 11.8004 21.6766 11.5356C21.7928 11.4531 21.8678 11.3246 21.8833 11.1829L21.949 10.5756C21.959 10.5156 21.959 10.4656 21.9691 10.3956C22.049 9.39562 22.0291 8.01562 21.089 6.97562ZM8.90906 5.52562C8.90906 3.82562 8.90906 3.18562 11.239 3.18562H12.7591C15.089 3.18562 15.089 3.82562 15.089 5.52562V5.56562H8.90906V5.52562ZM11.999 17.2456C10.349 17.2456 8.97906 16.0056 8.77907 14.4056C8.75906 14.2756 8.74907 14.1356 8.74907 13.9956C8.74907 12.2056 10.209 10.7456 11.999 10.7456C13.789 10.7456 15.2491 12.2056 15.2491 13.9956C15.2491 14.1156 15.239 14.2256 15.229 14.3356V14.3456C15.049 15.9756 13.669 17.2456 11.999 17.2456Z" fill="white"/>
<path d="M11.4309 16.0284C11.2409 16.0284 11.0509 15.9584 10.9009 15.8084L9.91086 14.8284C9.62086 14.5383 9.62086 14.0583 9.91086 13.7684C10.2009 13.4784 10.6809 13.4784 10.9709 13.7684L11.4509 14.2484L13.0609 12.7683C13.3609 12.4884 13.8409 12.5084 14.1208 12.8084C14.4009 13.1084 14.3809 13.5884 14.0809 13.8684L11.9509 15.8384C11.7909 15.9584 11.6109 16.0284 11.4309 16.0284Z" fill="white"/>
<path d="M21.0416 13.7323C21.2903 13.5941 21.613 13.7944 21.587 14.0777L21.2316 17.9623C21.0216 19.9624 20.2016 22.0024 15.8016 22.0024H8.18157C3.78157 22.0024 2.96157 19.9624 2.76157 17.9723L2.41571 14.269C2.38885 13.9814 2.69636 13.7872 2.95158 13.9223C3.73158 14.3524 4.54158 14.7323 5.37157 15.0323C5.68158 15.1423 5.90157 15.4024 5.99157 15.7223C6.74157 18.3223 9.16158 20.2523 12.0016 20.2523C14.8916 20.2523 17.3316 18.2824 18.0416 15.5824C18.1216 15.2623 18.3416 15.0023 18.6516 14.8823C19.4916 14.5523 20.2916 14.1623 21.0416 13.7323Z" fill="white"/>
</svg>
