<svg width="24" height="24" viewBox="0 0 24 24" fill="none" xmlns="http://www.w3.org/2000/svg">
<path d="M5.99999 2H18C19.0999 2 19.9999 2.9 19.9999 4V7.32C19.9999 7.87 19.5499 8.32 19 8.32H5C4.45 8.32 4 7.87 4 7.32V4C4 2.9 4.9 2 5.99999 2Z" fill="white"/>
<path d="M4 10.3203V11.8803C4 12.9602 4.58 13.9603 5.53 14.4904L8.48999 16.1603C9.11999 16.5103 9.50999 17.1803 9.50999 17.9003V20.0003C9.50999 21.1003 10.41 22.0003 11.51 22.0003H12.51C13.6099 22.0003 14.5099 21.1003 14.5099 20.0003V17.9003C14.5099 17.1803 14.8999 16.5103 15.5299 16.1603L18.49 14.4904C19.4299 13.9603 20.02 12.9602 20.02 11.8803V10.3203C20.02 9.77032 19.57 9.32031 19.02 9.32031H5C4.45 9.32031 4 9.76032 4 10.3203Z" fill="white"/>
</svg>
