<svg width="24" height="24" viewBox="0 0 24 24" fill="none" xmlns="http://www.w3.org/2000/svg">
<path d="M21.8098 3.93813C20.4998 7.20813 17.5098 11.4781 14.6598 14.2681C14.2498 11.6881 12.1898 9.66813 9.58984 9.30813C12.3898 6.44814 16.6898 3.41814 19.9698 2.09814C20.5498 1.87814 21.1298 2.04813 21.4898 2.40813C21.8698 2.78814 22.0498 3.35814 21.8098 3.93813Z" fill="white"/>
<path d="M13.7811 15.091C13.581 15.2609 13.3811 15.4309 13.1811 15.5909L11.3911 17.0209C11.3911 16.9909 11.3811 16.951 11.3811 16.9109C11.2411 15.841 10.7411 14.851 9.93109 14.041C9.11109 13.2209 8.09109 12.721 6.97109 12.5809C6.94109 12.5809 6.90109 12.571 6.87109 12.571L8.32109 10.7409C8.46109 10.5609 8.61109 10.3909 8.77109 10.2109L9.45109 10.3009C11.6011 10.6009 13.3311 12.2909 13.671 14.431L13.7811 15.091Z" fill="white"/>
<path d="M10.4298 17.6208C10.4298 18.7209 10.0098 19.7709 9.20977 20.5608C8.59977 21.1809 7.77978 21.6009 6.77978 21.7209L4.32976 21.9909C2.98977 22.1409 1.83976 20.9908 1.98976 19.6408L2.25976 17.1808C2.49976 14.9908 4.32976 13.5909 6.26977 13.5508C6.45976 13.5408 6.66977 13.5508 6.86977 13.5708C7.71977 13.6809 8.53977 14.0709 9.22977 14.7508C9.89977 15.4209 10.2798 16.2108 10.3898 17.0409C10.4098 17.2408 10.4298 17.4309 10.4298 17.6208Z" fill="white"/>
</svg>
