<svg width="24" height="24" viewBox="0 0 24 24" fill="none" xmlns="http://www.w3.org/2000/svg">
<path d="M16.6495 4.79H16.3694C16.2694 4 15.9794 3.37 15.5194 2.9C14.9194 2.3 14.0494 2 12.9295 2H7.34937C5.09937 2 3.85938 3.24 3.85938 5.49C3.85938 6.61 4.15938 7.48 4.75938 8.08C5.35938 8.68 6.22938 8.97999 7.34937 8.97999H12.9295C14.9294 8.97999 16.1294 7.99 16.3694 6.19H16.6495C18.7394 6.19 18.7394 6.47 18.7394 8.28V10.14C18.7394 11.95 18.7394 12.23 16.6495 12.23H12.9295C9.93937 12.23 9.50937 13.65 9.44937 15.03C8.54937 15.09 7.57938 15.51 7.57938 17.11V19.9C7.57938 21.63 8.71938 21.99 9.66937 21.99H10.5994C11.5494 21.99 12.6895 21.63 12.6895 19.9V17.11C12.6895 15.53 11.7394 15.09 10.8394 15.03C10.8894 14.02 11.1794 13.62 12.9194 13.62H16.6394C19.8895 13.62 20.1295 12.3 20.1295 10.13V8.28C20.1394 6.11 19.8994 4.79 16.6495 4.79Z" fill="white"/>
</svg>
