<svg width="24" height="24" viewBox="0 0 24 24" fill="none" xmlns="http://www.w3.org/2000/svg">
<path d="M15.5909 1.75C12.6209 1.75 10.2109 4.16 10.2109 7.13C10.2109 10.1 12.6209 12.51 15.5909 12.51C18.5609 12.51 20.971 10.1 20.971 7.13C20.971 4.16 18.5609 1.75 15.5909 1.75Z" fill="white"/>
<path d="M6.36125 13.0312C4.53125 13.0312 3.03125 14.5212 3.03125 16.3613C3.03125 18.2012 4.52125 19.6913 6.36125 19.6913C8.19125 19.6913 9.69125 18.2012 9.69125 16.3613C9.69125 14.5212 8.19125 13.0312 6.36125 13.0312Z" fill="white"/>
<path d="M16.6186 16.6172C15.0686 16.6172 13.8086 17.8772 13.8086 19.4271C13.8086 20.9771 15.0686 22.2371 16.6186 22.2371C18.1686 22.2371 19.4286 20.9771 19.4286 19.4271C19.4286 17.8772 18.1686 16.6172 16.6186 16.6172Z" fill="white"/>
</svg>
