<svg width="24" height="24" viewBox="0 0 24 24" fill="none" xmlns="http://www.w3.org/2000/svg">
<path d="M17.0409 10.6406L9.69083 3.29063L8.82083 2.42063C8.53084 2.13062 8.05084 2.13062 7.76083 2.42063C7.47083 2.71062 7.47083 3.19062 7.76083 3.48062L8.63083 4.35062L3.00083 9.98063C2.36083 10.6206 2.02084 11.2706 2.00083 11.9206C1.98083 12.6106 2.32084 13.3006 3.00083 13.9906L7.01083 18.0006C8.35084 19.3306 9.69083 19.3306 11.0209 18.0006L17.0409 11.9806C17.2408 11.7806 17.3308 11.5106 17.3109 11.2506C17.3008 11.0306 17.2009 10.8006 17.0409 10.6406Z" fill="white"/>
<path d="M16 22.75H3C2.59 22.75 2.25 22.41 2.25 22C2.25 21.5901 2.59 21.25 3 21.25H16C16.41 21.25 16.75 21.5901 16.75 22C16.75 22.41 16.41 22.75 16 22.75Z" fill="white"/>
<path d="M19.35 14.7803C19.09 14.5003 18.61 14.5003 18.35 14.7803C18.04 15.1204 16.5 16.8503 16.5 18.1703C16.5 19.4704 17.55 20.5204 18.85 20.5204C20.15 20.5204 21.2 19.4704 21.2 18.1703C21.2 16.8604 19.66 15.1204 19.35 14.7803Z" fill="white"/>
</svg>
