<svg width="24" height="24" viewBox="0 0 24 24" fill="none" xmlns="http://www.w3.org/2000/svg">
<path fill-rule="evenodd" clip-rule="evenodd" d="M7.87312 1.36578C8.27823 1.65379 8.37315 2.21568 8.08514 2.62079C7.85937 2.93834 7.67147 3.28421 7.52777 3.65189C7.75028 3.85705 7.98687 4.04707 8.23588 4.22034C9.11434 3.11139 10.4736 2.39841 12.0004 2.39841C13.5272 2.39841 14.8864 3.11138 15.7649 4.22033C16.0139 4.04707 16.2506 3.85704 16.473 3.65187C16.3293 3.28421 16.1415 2.93834 15.9156 2.62079C15.6276 2.21568 15.7226 1.65379 16.1277 1.36578C16.5328 1.07776 17.0946 1.17269 17.3826 1.57779C17.8251 2.20007 18.1628 2.90306 18.369 3.66075C18.4506 3.96061 18.3718 4.28137 18.1605 4.50923C17.6973 5.00875 17.1737 5.45193 16.6014 5.82726C16.7309 6.26229 16.8004 6.72273 16.8004 7.19841C16.8004 7.82258 16.439 8.35421 15.9328 8.62278C15.4916 8.85695 15.0269 9.05291 14.5436 9.2063C14.6999 9.45555 14.8206 9.72943 14.8986 10.0208C16.5942 9.81143 18.2332 9.42073 19.7957 8.8688C19.7988 8.71239 19.8004 8.55559 19.8004 8.39841C19.8004 7.61792 19.7622 6.84661 19.6877 6.08623C19.6391 5.59154 20.0009 5.1512 20.4956 5.10271C20.9902 5.05421 21.4306 5.41591 21.4791 5.9106C21.5594 6.72926 21.6004 7.55918 21.6004 8.39841C21.6004 8.7824 21.5918 9.16445 21.5748 9.54437C21.5588 9.90238 21.3318 10.2168 20.997 10.3448C19.0408 11.0926 16.9678 11.6037 14.8133 11.8431C14.7755 11.9447 14.7324 12.0437 14.6844 12.1398C15.377 12.2131 16.0612 12.3145 16.7361 12.4429C18.2021 12.7217 19.6234 13.1275 20.9878 13.6485C21.3525 13.7877 21.5859 14.1464 21.5655 14.5363C21.4544 16.6586 21.0806 18.7122 20.4758 20.6647C20.3286 21.1395 19.8245 21.4052 19.3497 21.2581C18.8748 21.111 18.6093 20.6069 18.7563 20.1321C19.2546 18.5235 19.5842 16.8403 19.7241 15.1028C19.1296 14.8951 18.5243 14.7107 17.9091 14.5506C17.9691 14.8911 18.0004 15.2413 18.0004 15.5984C18.0004 17.7749 17.3804 19.5728 16.289 20.8416C15.1914 22.1175 13.6653 22.7984 12.0004 22.7984C10.3356 22.7984 8.80941 22.1175 7.71184 20.8416C6.62045 19.5728 6.00039 17.7749 6.00039 15.5984C6.00039 15.2413 6.03169 14.8911 6.09172 14.5506C5.47651 14.7107 4.87114 14.8951 4.27672 15.1028C4.41659 16.8403 4.74614 18.5235 5.24446 20.1321C5.39156 20.6069 5.12589 21.111 4.6511 21.2581C4.17631 21.4052 3.67217 21.1395 3.52508 20.6647C2.92021 18.7122 2.54641 16.6586 2.43532 14.5363C2.41491 14.1464 2.64826 13.7877 3.01304 13.6485C4.37739 13.1275 5.79862 12.7217 7.26472 12.4429C7.9396 12.3145 8.62389 12.2131 9.31641 12.1398C9.26833 12.0437 9.22525 11.9447 9.18751 11.8431C7.03304 11.6037 4.95997 11.0927 3.00371 10.3448C2.66895 10.2168 2.44203 9.9024 2.426 9.54437C2.40898 9.16446 2.40039 8.7824 2.40039 8.39841C2.40039 7.55918 2.44144 6.72926 2.52171 5.9106C2.5702 5.41591 3.01054 5.05421 3.50523 5.10271C3.99991 5.1512 4.36162 5.59154 4.31312 6.08623C4.23857 6.84661 4.20039 7.61792 4.20039 8.39841C4.20039 8.55559 4.20194 8.71239 4.20502 8.86881C5.76764 9.42074 7.4066 9.81143 9.10215 10.0208C9.18014 9.72943 9.30088 9.45555 9.45726 9.2063C8.97386 9.05291 8.50925 8.85695 8.06797 8.62278C7.56184 8.35419 7.20039 7.82258 7.20039 7.19841C7.20039 6.72273 7.26983 6.26229 7.39934 5.82724C6.82701 5.45193 6.30355 5.00875 5.84026 4.50923C5.62893 4.28137 5.55011 3.96061 5.63176 3.66075C5.83808 2.90306 6.1757 2.20008 6.61811 1.57779C6.90613 1.17269 7.46801 1.07776 7.87312 1.36578Z" fill="#0F172A"/>
</svg>
