<svg width="24" height="24" viewBox="0 0 24 24" fill="none" xmlns="http://www.w3.org/2000/svg">
<path fill-rule="evenodd" clip-rule="evenodd" d="M11.6093 2.48794C11.8565 2.3686 12.1446 2.3686 12.3918 2.48794L21.0918 6.68794C21.5396 6.90404 21.7272 7.44208 21.5111 7.88971C21.3095 8.30727 20.8277 8.49865 20.4006 8.34705V19.7984H20.7006C21.1977 19.7984 21.6006 20.2014 21.6006 20.6984C21.6006 21.1955 21.1977 21.5984 20.7006 21.5984H3.30059C2.80354 21.5984 2.40059 21.1955 2.40059 20.6984C2.40059 20.2014 2.80354 19.7984 3.30059 19.7984H3.60059V8.34705C3.17343 8.49865 2.69168 8.30727 2.4901 7.88971C2.27401 7.44208 2.4617 6.90404 2.90932 6.68794L11.6093 2.48794ZM13.2004 7.19843C13.2004 7.86117 12.6631 8.39843 12.0004 8.39843C11.3377 8.39843 10.8004 7.86117 10.8004 7.19843C10.8004 6.5357 11.3377 5.99843 12.0004 5.99843C12.6631 5.99843 13.2004 6.5357 13.2004 7.19843ZM9.00039 11.6984C9.00039 11.2014 8.59744 10.7984 8.10039 10.7984C7.60334 10.7984 7.20039 11.2014 7.20039 11.6984V18.2984C7.20039 18.7955 7.60334 19.1984 8.10039 19.1984C8.59744 19.1984 9.00039 18.7955 9.00039 18.2984V11.6984ZM12.9004 11.6984C12.9004 11.2014 12.4974 10.7984 12.0004 10.7984C11.5033 10.7984 11.1004 11.2014 11.1004 11.6984V18.2984C11.1004 18.7955 11.5033 19.1984 12.0004 19.1984C12.4974 19.1984 12.9004 18.7955 12.9004 18.2984V11.6984ZM16.8004 11.6984C16.8004 11.2014 16.3974 10.7984 15.9004 10.7984C15.4033 10.7984 15.0004 11.2014 15.0004 11.6984V18.2984C15.0004 18.7955 15.4033 19.1984 15.9004 19.1984C16.3974 19.1984 16.8004 18.7955 16.8004 18.2984V11.6984Z" fill="#0F172A"/>
</svg>
