<svg width="24" height="24" viewBox="0 0 24 24" fill="none" xmlns="http://www.w3.org/2000/svg">
<path fill-rule="evenodd" clip-rule="evenodd" d="M1.19922 3.29844C1.19922 2.80139 1.60217 2.39844 2.09922 2.39844H14.6992C15.1963 2.39844 15.5992 2.80139 15.5992 3.29844C15.5992 3.79549 15.1963 4.19844 14.6992 4.19844H14.3992V20.6984C14.3992 21.1955 13.9963 21.5984 13.4992 21.5984H11.6992C11.2022 21.5984 10.7992 21.1955 10.7992 20.6984V17.6984C10.7992 17.2014 10.3963 16.7984 9.89922 16.7984H6.89922C6.40217 16.7984 5.99922 17.2014 5.99922 17.6984V20.6984C5.99922 21.1955 5.59627 21.5984 5.09922 21.5984H2.09922C1.60217 21.5984 1.19922 21.1955 1.19922 20.6984C1.19922 20.2014 1.60217 19.7984 2.09922 19.7984H2.39922V4.19844H2.09922C1.60217 4.19844 1.19922 3.79549 1.19922 3.29844ZM4.79922 6.59844C4.79922 6.26707 5.06785 5.99844 5.39922 5.99844H6.59922C6.93059 5.99844 7.19922 6.26707 7.19922 6.59844V7.79844C7.19922 8.12981 6.93059 8.39844 6.59922 8.39844H5.39922C5.06785 8.39844 4.79922 8.12981 4.79922 7.79844V6.59844ZM5.39922 10.7984C5.06785 10.7984 4.79922 11.0671 4.79922 11.3984V12.5984C4.79922 12.9298 5.06785 13.1984 5.39922 13.1984H6.59922C6.93059 13.1984 7.19922 12.9298 7.19922 12.5984V11.3984C7.19922 11.0671 6.93059 10.7984 6.59922 10.7984H5.39922ZM9.59922 6.59844C9.59922 6.26707 9.86785 5.99844 10.1992 5.99844H11.3992C11.7306 5.99844 11.9992 6.26707 11.9992 6.59844V7.79844C11.9992 8.12981 11.7306 8.39844 11.3992 8.39844H10.1992C9.86785 8.39844 9.59922 8.12981 9.59922 7.79844V6.59844ZM10.1992 10.7984C9.86785 10.7984 9.59922 11.0671 9.59922 11.3984V12.5984C9.59922 12.9298 9.86785 13.1984 10.1992 13.1984H11.3992C11.7306 13.1984 11.9992 12.9298 11.9992 12.5984V11.3984C11.9992 11.0671 11.7306 10.7984 11.3992 10.7984H10.1992Z" fill="#0F172A"/>
<path fill-rule="evenodd" clip-rule="evenodd" d="M17.0992 7.19922C16.6022 7.19922 16.1992 7.60217 16.1992 8.09922V20.3992C16.1992 21.062 16.7365 21.5992 17.3992 21.5992H21.8992C22.3963 21.5992 22.7992 21.1963 22.7992 20.6992C22.7992 20.2022 22.3963 19.7992 21.8992 19.7992H21.5992V8.99922H21.8992C22.3963 8.99922 22.7992 8.59627 22.7992 8.09922C22.7992 7.60217 22.3963 7.19922 21.8992 7.19922H17.0992ZM17.6992 11.3992C17.6992 11.0679 17.9679 10.7992 18.2992 10.7992H19.4992C19.8305 10.7992 20.0992 11.0679 20.0992 11.3992V12.5992C20.0992 12.9305 19.8305 13.1992 19.4992 13.1992H18.2992C17.9679 13.1992 17.6992 12.9305 17.6992 12.5992V11.3992ZM18.2992 15.5992C17.9679 15.5992 17.6992 15.8679 17.6992 16.1992V17.3992C17.6992 17.7305 17.9679 17.9992 18.2992 17.9992H19.4992C19.8305 17.9992 20.0992 17.7305 20.0992 17.3992V16.1992C20.0992 15.8679 19.8305 15.5992 19.4992 15.5992H18.2992Z" fill="#0F172A"/>
</svg>
