<svg width="24" height="24" viewBox="0 0 24 24" fill="none" xmlns="http://www.w3.org/2000/svg">
<path d="M10.6 4.15C10.6 4.34 10.44 4.5 10.25 4.5H9.12001C6.96001 4.5 5.2 6.26 5.2 8.42V17.65C5.2 17.84 5.04001 18 4.85 18H4.15C2.96 18 2 17.04 2 15.85V4.15C2 2.96 2.96 2 4.15 2H8.45C9.64 2 10.6 2.96 10.6 4.15Z" fill="white"/>
<path d="M22.0004 4.15V15.85C22.0004 17.04 21.0404 18 19.8504 18H19.2204C19.0304 18 18.8704 17.84 18.8704 17.65V8.42C18.8704 6.26 17.1104 4.5 14.9504 4.5H13.7504C13.5604 4.5 13.4004 4.34 13.4004 4.15C13.4004 2.96 14.3604 2 15.5504 2H19.8504C21.0404 2 22.0004 2.96 22.0004 4.15Z" fill="white"/>
<path d="M14.9512 6H9.12118C7.78117 6 6.70117 7.08 6.70117 8.42V19.58C6.70117 20.92 7.78117 22 9.12118 22H10.7512C11.0312 22 11.2512 21.78 11.2512 21.5V19C11.2512 18.59 11.5912 18.25 12.0012 18.25C12.4112 18.25 12.7512 18.59 12.7512 19V21.5C12.7512 21.78 12.9712 22 13.2512 22H14.9612C16.2912 22 17.3712 20.92 17.3712 19.59V8.42C17.3712 7.08 16.2912 6 14.9512 6ZM14.0012 14.75H10.0012C9.59118 14.75 9.25117 14.41 9.25117 14C9.25117 13.59 9.59118 13.25 10.0012 13.25H14.0012C14.4112 13.25 14.7512 13.59 14.7512 14C14.7512 14.41 14.4112 14.75 14.0012 14.75ZM14.0012 11.75H10.0012C9.59118 11.75 9.25117 11.41 9.25117 11C9.25117 10.59 9.59118 10.25 10.0012 10.25H14.0012C14.4112 10.25 14.7512 10.59 14.7512 11C14.7512 11.41 14.4112 11.75 14.0012 11.75Z" fill="white"/>
</svg>
