<svg width="24" height="24" viewBox="0 0 24 24" fill="none" xmlns="http://www.w3.org/2000/svg">
<path d="M15 7.06593C15 6.39594 14.67 5.77593 14.11 5.40594L10.11 2.73594C9.44 2.28594 8.56 2.28594 7.89 2.73594L3.89 5.40594C3.34 5.77593 3 6.39594 3 7.06593V12.7459C3 13.0259 3.22 13.2458 3.5 13.2458H14.5C14.78 13.2458 15 13.0259 15 12.7459V7.06593ZM9 10.7459C8.04 10.7459 7.25 9.95594 7.25 8.99594C7.25 8.03594 8.04 7.24593 9 7.24593C9.96 7.24593 10.75 8.03594 10.75 8.99594C10.75 9.95594 9.96 10.7459 9 10.7459Z" fill="white"/>
<path d="M22.0001 21.2511H20.73V18.2511C21.68 17.9411 22.37 17.0511 22.37 16.0011V14.0011C22.37 12.6911 21.3 11.6211 19.9901 11.6211C18.68 11.6211 17.61 12.6911 17.61 14.0011V16.0011C17.61 17.0411 18.29 17.9211 19.22 18.2411V21.2511H15V15.2511C15 14.9711 14.78 14.7511 14.5001 14.7511H3.5C3.22 14.7511 3.00001 14.9711 3.00001 15.2511V21.2511H2C1.59001 21.2511 1.25 21.5911 1.25 22.0011C1.25 22.4111 1.59001 22.7511 2 22.7511H19.9301C19.95 22.7511 19.96 22.7611 19.98 22.7611C20 22.7611 20.01 22.7511 20.03 22.7511H22.0001C22.41 22.7511 22.7501 22.4111 22.7501 22.0011C22.7501 21.5911 22.41 21.2511 22.0001 21.2511ZM8.25001 18.2511C8.25001 17.8411 8.59 17.5011 9.00001 17.5011C9.41 17.5011 9.75001 17.8411 9.75001 18.2511V21.2511H8.25001V18.2511Z" fill="white"/>
</svg>
