<svg width="24" height="24" viewBox="0 0 24 24" fill="none" xmlns="http://www.w3.org/2000/svg">
<path fill-rule="evenodd" clip-rule="evenodd" d="M4.79961 19.7984V4.19844H4.49961C4.00256 4.19844 3.59961 3.79549 3.59961 3.29844C3.59961 2.80139 4.00256 2.39844 4.49961 2.39844H19.4996C19.9966 2.39844 20.3996 2.80139 20.3996 3.29844C20.3996 3.79549 19.9966 4.19844 19.4996 4.19844H19.1996V19.7984H19.4996C19.9966 19.7984 20.3996 20.2014 20.3996 20.6984C20.3996 21.1955 19.9966 21.5984 19.4996 21.5984H15.2996C14.8026 21.5984 14.3996 21.1955 14.3996 20.6984V17.6984C14.3996 17.2014 13.9966 16.7984 13.4996 16.7984H10.4996C10.0026 16.7984 9.59961 17.2014 9.59961 17.6984V20.6984C9.59961 21.1955 9.19666 21.5984 8.69961 21.5984H4.49961C4.00256 21.5984 3.59961 21.1955 3.59961 20.6984C3.59961 20.2014 4.00256 19.7984 4.49961 19.7984H4.79961ZM8.39961 6.59844C8.39961 6.26707 8.66824 5.99844 8.99961 5.99844H10.1996C10.531 5.99844 10.7996 6.26707 10.7996 6.59844V7.79844C10.7996 8.12981 10.531 8.39844 10.1996 8.39844H8.99961C8.66824 8.39844 8.39961 8.12981 8.39961 7.79844V6.59844ZM8.99961 10.7984C8.66824 10.7984 8.39961 11.0671 8.39961 11.3984V12.5984C8.39961 12.9298 8.66824 13.1984 8.99961 13.1984H10.1996C10.531 13.1984 10.7996 12.9298 10.7996 12.5984V11.3984C10.7996 11.0671 10.531 10.7984 10.1996 10.7984H8.99961ZM13.1996 6.59844C13.1996 6.26707 13.4683 5.99844 13.7996 5.99844H14.9996C15.3309 5.99844 15.5996 6.26707 15.5996 6.59844V7.79844C15.5996 8.12981 15.3309 8.39844 14.9996 8.39844H13.7996C13.4683 8.39844 13.1996 8.12981 13.1996 7.79844V6.59844ZM13.7996 10.7984C13.4683 10.7984 13.1996 11.0671 13.1996 11.3984V12.5984C13.1996 12.9298 13.4683 13.1984 13.7996 13.1984H14.9996C15.3309 13.1984 15.5996 12.9298 15.5996 12.5984V11.3984C15.5996 11.0671 15.3309 10.7984 14.9996 10.7984H13.7996Z" fill="#0F172A"/>
</svg>
