<svg width="24" height="24" viewBox="0 0 24 24" fill="none" xmlns="http://www.w3.org/2000/svg">
<path d="M3.4548 8.54371C4.86069 9.94959 7.14009 9.94959 8.54597 8.54371C8.71874 8.37095 8.87026 8.18499 9.00057 7.98911C9.64554 8.95897 10.7483 9.59816 12.0004 9.59816C13.2526 9.59816 14.3555 8.9588 15.0005 7.98871C15.1308 8.18477 15.2825 8.37086 15.4553 8.54375C16.8612 9.94964 19.1406 9.94964 20.5465 8.54375C21.9523 7.13786 21.9523 4.85847 20.5465 3.45258L20.1953 3.10139C19.7452 2.65129 19.1347 2.39844 18.4983 2.39844H5.50301C4.8665 2.39844 4.25604 2.65129 3.80596 3.10139L3.4548 3.45254C2.04892 4.85843 2.04892 7.13783 3.4548 8.54371Z" fill="#0F172A"/>
<path d="M3.60039 10.8406C5.31398 11.6907 7.38511 11.5746 9.00107 10.4924C9.85838 11.066 10.89 11.4016 12.0004 11.4016C13.1109 11.4016 14.1426 11.0659 14.9999 10.4922C16.6158 11.5746 18.6868 11.6908 20.4004 10.8409V19.8019H20.7004C21.1974 19.8019 21.6004 20.2049 21.6004 20.7019C21.6004 21.1989 21.1974 21.6019 20.7004 21.6019H15.3004C14.8034 21.6019 14.4004 21.1989 14.4004 20.7019V16.5019C14.4004 16.0049 13.9974 15.6019 13.5004 15.6019H10.5004C10.0033 15.6019 9.60039 16.0049 9.60039 16.5019V20.7019C9.60039 21.1989 9.19744 21.6019 8.70039 21.6019H3.30039C2.80334 21.6019 2.40039 21.1989 2.40039 20.7019C2.40039 20.2049 2.80334 19.8019 3.30039 19.8019H3.60039V10.8406Z" fill="#0F172A"/>
</svg>
