<svg width="24" height="24" viewBox="0 0 24 24" fill="none" xmlns="http://www.w3.org/2000/svg">
<path d="M4 13.5V18.9C4 20.6001 5.39 22 7.1 22H16.9C18.6 22 19.9999 20.61 19.9999 18.9V13.5C19.9999 13.2201 19.78 13 19.5 13H4.49999C4.22 13 4 13.2201 4 13.5ZM8.87999 18.3801C8.65 18.6201 8.33 18.75 8 18.75C7.91999 18.75 7.84 18.7401 7.76 18.73C7.67999 18.7101 7.6 18.69 7.52 18.6501C7.45 18.6201 7.37 18.58 7.31 18.54C7.24 18.49 7.16999 18.4401 7.12 18.3801C6.88 18.15 6.74999 17.83 6.74999 17.5C6.74999 17.17 6.88 16.8501 7.12 16.62C7.16999 16.56 7.24 16.51 7.31 16.4601C7.37 16.42 7.45 16.38 7.52 16.35C7.6 16.3101 7.67999 16.29 7.76 16.27C8.15999 16.1901 8.59 16.33 8.87999 16.62C9.11999 16.8501 9.25 17.17 9.25 17.5C9.25 17.83 9.11999 18.15 8.87999 18.3801ZM16.8799 18.3801C16.83 18.4401 16.7599 18.49 16.69 18.54C16.63 18.58 16.5499 18.6201 16.48 18.6501C16.3999 18.69 16.32 18.7101 16.2499 18.73C16.1599 18.7401 16.08 18.75 16 18.75C15.9199 18.75 15.84 18.7401 15.76 18.73C15.6799 18.7101 15.6 18.69 15.52 18.6501C15.45 18.6201 15.37 18.58 15.31 18.54C15.24 18.49 15.1699 18.4401 15.12 18.3801C14.88 18.15 14.7499 17.83 14.7499 17.5C14.7499 17.17 14.88 16.8501 15.12 16.62C15.1699 16.56 15.24 16.51 15.31 16.4601C15.37 16.42 15.45 16.38 15.52 16.35C15.6 16.3101 15.6799 16.29 15.76 16.27C15.9199 16.24 16.08 16.24 16.2499 16.27C16.32 16.29 16.3999 16.3101 16.48 16.35C16.5499 16.38 16.63 16.42 16.69 16.4601C16.7599 16.51 16.83 16.56 16.8799 16.62C17.1199 16.8501 17.25 17.17 17.25 17.5C17.25 17.83 17.1199 18.15 16.8799 18.3801Z" fill="white"/>
<path d="M16.9 2H7.1C5.39 2 4 3.39 4 5.1V7.5C4 7.78 4.22 8 4.49999 8H19.5C19.78 8 19.9999 7.78 19.9999 7.5V5.1C19.9999 3.39 18.61 2 16.9 2ZM14.5 5.75H9.5C9.08999 5.75 8.75 5.41 8.75 5C8.75 4.59 9.08999 4.25 9.5 4.25H14.5C14.91 4.25 15.25 4.59 15.25 5C15.25 5.41 14.91 5.75 14.5 5.75Z" fill="white"/>
<path d="M19.5 12H4.49999C4.22 12 4 11.78 4 11.5V9.5C4 9.22 4.22 9 4.49999 9H19.5C19.78 9 19.9999 9.22 19.9999 9.5V11.5C19.9999 11.78 19.78 12 19.5 12Z" fill="white"/>
</svg>
