<svg width="24" height="24" viewBox="0 0 24 24" fill="none" xmlns="http://www.w3.org/2000/svg">
<path d="M8.0996 1.17578L7.03895 2.23645C6.45316 2.82224 6.45316 3.77199 7.03895 4.35777C7.62473 4.94357 8.57449 4.94357 9.16027 4.35777C9.74606 3.77199 9.74606 2.82224 9.16027 2.23645L8.0996 1.17578Z" fill="#0F172A"/>
<path d="M15.9004 1.17578L14.8397 2.23645C14.254 2.82224 14.254 3.77199 14.8397 4.35777C15.4255 4.94357 16.3752 4.94357 16.961 4.35777C17.5468 3.77199 17.5468 2.82224 16.961 2.23645L15.9004 1.17578Z" fill="#0F172A"/>
<path d="M12 1.17578L13.0607 2.23645C13.6464 2.82224 13.6464 3.77199 13.0607 4.35777C12.4748 4.94357 11.5251 4.94357 10.9393 4.35777C10.3536 3.77199 10.3536 2.82224 10.9393 2.23645L12 1.17578Z" fill="#0F172A"/>
<path d="M9.00078 6.9C9.00078 6.40295 8.59783 6 8.10078 6C7.60373 6 7.20078 6.40295 7.20078 6.9V7.45655C5.78625 7.82216 4.80078 9.12518 4.80078 10.6028V10.7163C4.92121 10.6915 5.04353 10.6707 5.16766 10.6541C7.404 10.3545 9.68506 10.2 12.0008 10.2C14.3165 10.2 16.5975 10.3545 18.8339 10.6541C18.958 10.6707 19.0803 10.6915 19.2008 10.7163V10.6028C19.2008 9.12518 18.2153 7.82216 16.8008 7.45655V6.9C16.8008 6.40295 16.3978 6 15.9008 6C15.4037 6 15.0008 6.40295 15.0008 6.9V7.28195C14.3042 7.2438 13.6041 7.21885 12.9008 7.20736V6.9C12.9008 6.40295 12.4978 6 12.0008 6C11.5037 6 11.1008 6.40295 11.1008 6.9V7.20736C10.3975 7.21885 9.69739 7.2438 9.00078 7.28195V6.9Z" fill="#0F172A"/>
<path d="M5.40628 12.4382C7.56362 12.1492 9.76481 12 12.0004 12C14.236 12 16.4372 12.1492 18.5945 12.4382C20.3603 12.6748 21.6004 14.2055 21.6004 15.9347V16.7666C20.916 16.7666 20.2317 16.6094 19.6029 16.295C17.8386 15.4129 15.7622 15.4129 13.9979 16.295C12.7404 16.9238 11.2603 16.9238 10.0029 16.295C8.23868 15.4129 6.1621 15.4129 4.3979 16.295C3.76917 16.6094 3.08477 16.7666 2.40039 16.7666V15.9347C2.40039 14.2055 3.64043 12.6748 5.40628 12.4382Z" fill="#0F172A"/>
<path d="M18.7979 17.9052C19.68 18.3462 20.6402 18.5668 21.6004 18.5668V19.8001C21.6004 20.7943 20.7945 21.6001 19.8004 21.6001H4.20039C3.20627 21.6001 2.40039 20.7943 2.40039 19.8001V18.5668C3.36058 18.5668 4.32077 18.3462 5.20288 17.9052C6.46034 17.2764 7.94044 17.2764 9.1979 17.9052C10.9621 18.7872 13.0386 18.7872 14.8029 17.9052C16.0604 17.2764 17.5404 17.2764 18.7979 17.9052Z" fill="#0F172A"/>
</svg>
