<svg width="24" height="24" viewBox="0 0 24 24" fill="none" xmlns="http://www.w3.org/2000/svg">
<path fill-rule="evenodd" clip-rule="evenodd" d="M11.9996 1.19922C9.93999 1.19922 7.90953 1.32583 5.91567 1.57177C4.56656 1.73817 3.59961 2.89571 3.59961 4.21915V20.0992C3.59961 21.5903 4.80844 22.7992 6.29961 22.7992H17.6996C19.1907 22.7992 20.3996 21.5903 20.3996 20.0992V4.21915C20.3996 2.89571 19.4326 1.73817 18.0836 1.57177C16.0897 1.32583 14.0592 1.19922 11.9996 1.19922ZM7.18789 10.4992C7.18789 10.0022 7.59083 9.59922 8.08789 9.59922H8.09988C8.59695 9.59922 8.99988 10.0022 8.99988 10.4992V10.5112C8.99988 11.0083 8.59695 11.4112 8.09988 11.4112H8.08789C7.59083 11.4112 7.18789 11.0083 7.18789 10.5112V10.4992ZM8.08789 12.1991C7.59083 12.1991 7.18789 12.6021 7.18789 13.0991V13.1111C7.18789 13.6082 7.59083 14.0111 8.08789 14.0111H8.09988C8.59695 14.0111 8.99988 13.6082 8.99988 13.1111V13.0991C8.99988 12.6021 8.59695 12.1991 8.09988 12.1991H8.08789ZM7.18789 15.6992C7.18789 15.202 7.59083 14.7992 8.08789 14.7992H8.09988C8.59695 14.7992 8.99988 15.202 8.99988 15.6992V15.7112C8.99988 16.2082 8.59695 16.6112 8.09988 16.6112H8.08789C7.59083 16.6112 7.18789 16.2082 7.18789 15.7112V15.6992ZM8.08789 17.3991C7.59083 17.3991 7.18789 17.8021 7.18789 18.2991V18.3111C7.18789 18.8081 7.59083 19.2111 8.08789 19.2111H8.09988C8.59695 19.2111 8.99988 18.8081 8.99988 18.3111V18.2991C8.99988 17.8021 8.59695 17.3991 8.09988 17.3991H8.08789ZM9.7879 10.4992C9.7879 10.0022 10.1908 9.59922 10.6879 9.59922H10.6999C11.197 9.59922 11.5999 10.0022 11.5999 10.4992V10.5112C11.5999 11.0083 11.197 11.4112 10.6999 11.4112H10.6879C10.1908 11.4112 9.7879 11.0083 9.7879 10.5112V10.4992ZM10.6879 12.1991C10.1908 12.1991 9.7879 12.6021 9.7879 13.0991V13.1111C9.7879 13.6082 10.1908 14.0111 10.6879 14.0111H10.6999C11.197 14.0111 11.5999 13.6082 11.5999 13.1111V13.0991C11.5999 12.6021 11.197 12.1991 10.6999 12.1991H10.6879ZM9.7879 15.6992C9.7879 15.202 10.1908 14.7992 10.6879 14.7992H10.6999C11.197 14.7992 11.5999 15.202 11.5999 15.6992V15.7112C11.5999 16.2082 11.197 16.6112 10.6999 16.6112H10.6879C10.1908 16.6112 9.7879 16.2082 9.7879 15.7112V15.6992ZM10.6879 17.3991C10.1908 17.3991 9.7879 17.8021 9.7879 18.2991V18.3111C9.7879 18.8081 10.1908 19.2111 10.6879 19.2111H10.6999C11.197 19.2111 11.5999 18.8081 11.5999 18.3111V18.2991C11.5999 17.8021 11.197 17.3991 10.6999 17.3991H10.6879ZM12.3919 10.4992C12.3919 10.0022 12.7948 9.59922 13.2919 9.59922H13.3039C13.8009 9.59922 14.2039 10.0022 14.2039 10.4992V10.5112C14.2039 11.0083 13.8009 11.4112 13.3039 11.4112H13.2919C12.7948 11.4112 12.3919 11.0083 12.3919 10.5112V10.4992ZM13.2919 12.1991C12.7948 12.1991 12.3919 12.6021 12.3919 13.0991V13.1111C12.3919 13.6082 12.7948 14.0111 13.2919 14.0111H13.3039C13.8009 14.0111 14.2039 13.6082 14.2039 13.1111V13.0991C14.2039 12.6021 13.8009 12.1991 13.3039 12.1991H13.2919ZM12.3919 15.6992C12.3919 15.202 12.7948 14.7992 13.2919 14.7992H13.3039C13.8009 14.7992 14.2039 15.202 14.2039 15.6992V15.7112C14.2039 16.2082 13.8009 16.6112 13.3039 16.6112H13.2919C12.7948 16.6112 12.3919 16.2082 12.3919 15.7112V15.6992ZM13.2919 17.3991C12.7948 17.3991 12.3919 17.8021 12.3919 18.2991V18.3111C12.3919 18.8081 12.7948 19.2111 13.2919 19.2111H13.3039C13.8009 19.2111 14.2039 18.8081 14.2039 18.3111V18.2991C14.2039 17.8021 13.8009 17.3991 13.3039 17.3991H13.2919ZM14.9998 10.4992C14.9998 10.0022 15.4028 9.59922 15.8998 9.59922H15.9118C16.4089 9.59922 16.8118 10.0022 16.8118 10.4992V10.5112C16.8118 11.0083 16.4089 11.4112 15.9118 11.4112H15.8998C15.4028 11.4112 14.9998 11.0083 14.9998 10.5112V10.4992ZM15.8998 12.1991C15.4028 12.1991 14.9998 12.6021 14.9998 13.0991V13.1111C14.9998 13.6082 15.4028 14.0111 15.8998 14.0111H15.9118C16.4089 14.0111 16.8118 13.6082 16.8118 13.1111V13.0991C16.8118 12.6021 16.4089 12.1991 15.9118 12.1991H15.8998ZM15.8998 14.7993C16.3969 14.7993 16.7998 15.2023 16.7998 15.6993V18.2992C16.7998 18.7964 16.3969 19.1992 15.8998 19.1992C15.4028 19.1992 14.9998 18.7964 14.9998 18.2992V15.6993C14.9998 15.2023 15.4028 14.7993 15.8998 14.7993ZM8.09961 4.79922C7.60256 4.79922 7.19961 5.20217 7.19961 5.69922V6.29922C7.19961 6.79627 7.60256 7.19922 8.09961 7.19922H15.8996C16.3966 7.19922 16.7996 6.79627 16.7996 6.29922V5.69922C16.7996 5.20217 16.3966 4.79922 15.8996 4.79922H8.09961Z" fill="#0F172A"/>
</svg>
