<svg width="24" height="24" viewBox="0 0 24 24" fill="none" xmlns="http://www.w3.org/2000/svg">
<path fill-rule="evenodd" clip-rule="evenodd" d="M6.90039 2.39844C7.39744 2.39844 7.80039 2.80139 7.80039 3.29844V4.79844H16.2004V3.29844C16.2004 2.80139 16.6034 2.39844 17.1004 2.39844C17.5974 2.39844 18.0004 2.80139 18.0004 3.29844V4.79844H18.3004C20.123 4.79844 21.6004 6.2759 21.6004 8.09844V18.2984C21.6004 20.121 20.123 21.5984 18.3004 21.5984H5.70039C3.87785 21.5984 2.40039 20.121 2.40039 18.2984V8.09844C2.40039 6.2759 3.87785 4.79844 5.70039 4.79844H6.00039V3.29844C6.00039 2.80139 6.40334 2.39844 6.90039 2.39844ZM5.70039 8.99844C4.87196 8.99844 4.20039 9.67001 4.20039 10.4984V18.2984C4.20039 19.1269 4.87196 19.7984 5.70039 19.7984H18.3004C19.1289 19.7984 19.8004 19.1269 19.8004 18.2984V10.4984C19.8004 9.67001 19.1289 8.99844 18.3004 8.99844H5.70039Z" fill="#0F172A"/>
</svg>
