<svg width="24" height="24" viewBox="0 0 24 24" fill="none" xmlns="http://www.w3.org/2000/svg">
<path d="M6.30078 14.4C6.30078 13.903 6.70373 13.5 7.20078 13.5H7.21278C7.70983 13.5 8.11278 13.903 8.11278 14.4V14.412C8.11278 14.909 7.70983 15.312 7.21278 15.312H7.20078C6.70373 15.312 6.30078 14.909 6.30078 14.412V14.4Z" fill="#0F172A"/>
<path d="M7.20078 15.8984C6.70373 15.8984 6.30078 16.3014 6.30078 16.7984V16.8104C6.30078 17.3075 6.70373 17.7104 7.20078 17.7104H7.21278C7.70983 17.7104 8.11278 17.3075 8.11278 16.8104V16.7984C8.11278 16.3014 7.70983 15.8984 7.21278 15.8984H7.20078Z" fill="#0F172A"/>
<path d="M8.69922 14.4C8.69922 13.903 9.10217 13.5 9.59922 13.5H9.61122C10.1083 13.5 10.5112 13.903 10.5112 14.4V14.412C10.5112 14.909 10.1083 15.312 9.61122 15.312H9.59922C9.10217 15.312 8.69922 14.909 8.69922 14.412V14.4Z" fill="#0F172A"/>
<path d="M9.59922 15.8984C9.10217 15.8984 8.69922 16.3014 8.69922 16.7984V16.8104C8.69922 17.3075 9.10217 17.7104 9.59922 17.7104H9.61122C10.1083 17.7104 10.5112 17.3075 10.5112 16.8104V16.7984C10.5112 16.3014 10.1083 15.8984 9.61122 15.8984H9.59922Z" fill="#0F172A"/>
<path d="M11.0996 12.0016C11.0996 11.5045 11.5026 11.1016 11.9996 11.1016H12.0116C12.5086 11.1016 12.9116 11.5045 12.9116 12.0016V12.0136C12.9116 12.5106 12.5086 12.9136 12.0116 12.9136H11.9996C11.5026 12.9136 11.0996 12.5106 11.0996 12.0136V12.0016Z" fill="#0F172A"/>
<path d="M11.9996 13.5C11.5026 13.5 11.0996 13.903 11.0996 14.4V14.412C11.0996 14.909 11.5026 15.312 11.9996 15.312H12.0116C12.5086 15.312 12.9116 14.909 12.9116 14.412V14.4C12.9116 13.903 12.5086 13.5 12.0116 13.5H11.9996Z" fill="#0F172A"/>
<path d="M11.0996 16.7984C11.0996 16.3014 11.5026 15.8984 11.9996 15.8984H12.0116C12.5086 15.8984 12.9116 16.3014 12.9116 16.7984V16.8104C12.9116 17.3075 12.5086 17.7104 12.0116 17.7104H11.9996C11.5026 17.7104 11.0996 17.3075 11.0996 16.8104V16.7984Z" fill="#0F172A"/>
<path d="M14.4 11.1016C13.903 11.1016 13.5 11.5045 13.5 12.0016V12.0136C13.5 12.5106 13.903 12.9136 14.4 12.9136H14.412C14.909 12.9136 15.312 12.5106 15.312 12.0136V12.0016C15.312 11.5045 14.909 11.1016 14.412 11.1016H14.4Z" fill="#0F172A"/>
<path d="M13.5 14.4C13.5 13.903 13.903 13.5 14.4 13.5H14.412C14.909 13.5 15.312 13.903 15.312 14.4V14.412C15.312 14.909 14.909 15.312 14.412 15.312H14.4C13.903 15.312 13.5 14.909 13.5 14.412V14.4Z" fill="#0F172A"/>
<path d="M14.4 15.8984C13.903 15.8984 13.5 16.3014 13.5 16.7984V16.8104C13.5 17.3075 13.903 17.7104 14.4 17.7104H14.412C14.909 17.7104 15.312 17.3075 15.312 16.8104V16.7984C15.312 16.3014 14.909 15.8984 14.412 15.8984H14.4Z" fill="#0F172A"/>
<path d="M15.9004 12.0016C15.9004 11.5045 16.3034 11.1016 16.8004 11.1016H16.8124C17.3094 11.1016 17.7124 11.5045 17.7124 12.0016V12.0136C17.7124 12.5106 17.3094 12.9136 16.8124 12.9136H16.8004C16.3034 12.9136 15.9004 12.5106 15.9004 12.0136V12.0016Z" fill="#0F172A"/>
<path d="M16.8004 13.5C16.3034 13.5 15.9004 13.903 15.9004 14.4V14.412C15.9004 14.909 16.3034 15.312 16.8004 15.312H16.8124C17.3094 15.312 17.7124 14.909 17.7124 14.412V14.4C17.7124 13.903 17.3094 13.5 16.8124 13.5H16.8004Z" fill="#0F172A"/>
<path fill-rule="evenodd" clip-rule="evenodd" d="M6.90039 2.39844C7.39744 2.39844 7.80039 2.80139 7.80039 3.29844V4.79844H16.2004V3.29844C16.2004 2.80139 16.6034 2.39844 17.1004 2.39844C17.5974 2.39844 18.0004 2.80139 18.0004 3.29844V4.79844H18.3004C20.123 4.79844 21.6004 6.2759 21.6004 8.09844V18.2984C21.6004 20.121 20.123 21.5984 18.3004 21.5984H5.70039C3.87785 21.5984 2.40039 20.121 2.40039 18.2984V8.09844C2.40039 6.2759 3.87785 4.79844 5.70039 4.79844H6.00039V3.29844C6.00039 2.80139 6.40334 2.39844 6.90039 2.39844ZM5.70039 8.99844C4.87196 8.99844 4.20039 9.67001 4.20039 10.4984V18.2984C4.20039 19.1269 4.87196 19.7984 5.70039 19.7984H18.3004C19.1289 19.7984 19.8004 19.1269 19.8004 18.2984V10.4984C19.8004 9.67001 19.1289 8.99844 18.3004 8.99844H5.70039Z" fill="#0F172A"/>
</svg>
