<svg width="24" height="24" viewBox="0 0 24 24" fill="none" xmlns="http://www.w3.org/2000/svg">
<path d="M22.0006 18.3291C22.0006 18.6891 21.9206 19.0591 21.7505 19.4191C21.5806 19.7791 21.3605 20.1191 21.0706 20.4391C20.5805 20.9791 20.0405 21.3691 19.4306 21.6191C18.8306 21.8691 18.1706 21.9991 17.4706 21.9991C16.4506 21.9991 15.3605 21.7591 14.2106 21.2691C13.0606 20.7791 11.9006 20.1191 10.7606 19.2891C10.1806 18.8591 9.61055 18.4191 9.06055 17.9391L12.3206 14.6791C12.3305 14.6791 12.3305 14.6791 12.3406 14.6891C12.8606 15.1291 13.2905 15.4291 13.6306 15.6091C13.6805 15.6291 13.7405 15.6591 13.8106 15.6891C13.8905 15.7191 13.9706 15.7291 14.0606 15.7291C14.2306 15.7291 14.3606 15.6691 14.4706 15.5591L15.2306 14.8091C15.4805 14.5591 15.7205 14.3691 15.9506 14.2491C16.1806 14.1091 16.4105 14.0391 16.6606 14.0391C16.8506 14.0391 17.0506 14.0791 17.2706 14.1691C17.4905 14.2591 17.7206 14.3891 17.9705 14.5591L21.2906 16.9091C21.5506 17.0891 21.7306 17.2991 21.8405 17.5491C21.9406 17.7991 22.0006 18.0491 22.0006 18.3291Z" fill="white"/>
<path d="M10.76 13.24L7.50001 16.5C7.49 16.5 7.49 16.5 7.48 16.49C6.45001 15.45 5.52001 14.36 4.68001 13.22C3.87001 12.1 3.22 10.97 2.74 9.86C2.73001 9.84 2.73001 9.83 2.72 9.81C2.24 8.67 2 7.58 2 6.54C2 5.86 2.12 5.21 2.36 4.61C2.56 4.1 2.86 3.62 3.27001 3.19C3.34 3.11 3.42001 3.02 3.51001 2.94C3.67 2.78 3.83 2.64 4 2.53C4.01 2.53 4.01 2.53 4.01 2.53C4.51 2.17 5.04001 2 5.6 2C5.88001 2 6.16 2.06 6.41 2.18C6.65 2.29 6.86 2.45 7.03 2.68C7.05001 2.7 7.06 2.72 7.08001 2.74L9.4 6.01C9.58 6.26 9.71 6.49 9.8 6.71C9.89 6.92 9.94 7.13 9.94 7.32C9.94 7.56 9.87 7.8 9.73 8.03C9.6 8.26 9.41 8.5 9.17 8.74L8.41 9.53C8.3 9.64 8.25001 9.77 8.25001 9.93C8.25001 10.01 8.26 10.08 8.28001 10.16C8.31001 10.24 8.34001 10.3 8.36 10.36C8.54 10.69 8.85001 11.12 9.29 11.64C9.74 12.16 10.22 12.69 10.74 13.22C10.75 13.23 10.75 13.23 10.76 13.24Z" fill="white"/>
<path d="M21.7708 2.23282C21.4708 1.93281 20.9809 1.93281 20.6809 2.23282L2.23086 20.6928C1.93086 20.9928 1.93086 21.4829 2.23086 21.7829C2.38086 21.9228 2.57086 22.0028 2.77086 22.0028C2.97086 22.0028 3.16086 21.9228 3.31086 21.7728L21.7708 3.31282C22.0809 3.01281 22.0809 2.53282 21.7708 2.23282Z" fill="white"/>
</svg>
