<svg width="24" height="24" viewBox="0 0 24 24" fill="none" xmlns="http://www.w3.org/2000/svg">
<path fill-rule="evenodd" clip-rule="evenodd" d="M1.19922 9.60156C1.19922 8.27608 2.27373 7.20156 3.59922 7.20156H4.71477C5.51723 7.20156 6.26658 6.80052 6.71169 6.13284L7.68674 4.67028C8.13186 4.0026 8.88121 3.60156 9.68366 3.60156H14.3147C15.1172 3.60156 15.8666 4.0026 16.3117 4.67028L17.2868 6.13284C17.7319 6.80052 18.4813 7.20156 19.2837 7.20156H20.3992C21.7247 7.20156 22.7992 8.27608 22.7992 9.60156V18.0016C22.7992 19.3271 21.7247 20.4016 20.3992 20.4016H3.59922C2.27373 20.4016 1.19922 19.3271 1.19922 18.0016V9.60156ZM17.3992 13.2016C17.3992 16.1839 14.9816 18.6016 11.9992 18.6016C9.01688 18.6016 6.59922 16.1839 6.59922 13.2016C6.59922 10.2192 9.01688 7.80156 11.9992 7.80156C14.9816 7.80156 17.3992 10.2192 17.3992 13.2016ZM11.9992 16.8016C13.9875 16.8016 15.5992 15.1898 15.5992 13.2016C15.5992 11.2133 13.9875 9.60156 11.9992 9.60156C10.011 9.60156 8.39922 11.2133 8.39922 13.2016C8.39922 15.1898 10.011 16.8016 11.9992 16.8016Z" fill="#0F172A"/>
</svg>
