<svg width="24" height="24" viewBox="0 0 24 24" fill="none" xmlns="http://www.w3.org/2000/svg">
<path d="M21.7708 2.23282C21.4708 1.93281 20.9809 1.93281 20.6809 2.23282L2.23086 20.6928C1.93086 20.9928 1.93086 21.4829 2.23086 21.7829C2.38086 21.9228 2.57086 22.0028 2.77086 22.0028C2.97086 22.0028 3.16086 21.9228 3.31086 21.7728L21.7708 3.31282C22.0809 3.01281 22.0809 2.53282 21.7708 2.23282Z" fill="white"/>
<path d="M16.5502 5.11L15.8302 3.66C15.3702 2.75 14.1702 2 13.1502 2H10.8602C9.83017 2 8.63017 2.75 8.17017 3.66L7.45017 5.11C7.17017 5.65 6.61017 6 6.00017 6C3.83017 6 2.11017 7.83 2.25017 9.99L2.77017 18.25C2.82017 19.1 3.03017 19.89 3.48017 20.52L18.0002 6C17.3902 6 16.8302 5.65 16.5502 5.11ZM9.50017 10.75H6.50017C6.09017 10.75 5.75017 10.41 5.75017 10C5.75017 9.59 6.09017 9.25 6.50017 9.25H9.50017C9.91017 9.25 10.2502 9.59 10.2502 10C10.2502 10.41 9.91017 10.75 9.50017 10.75Z" fill="white"/>
<path d="M21.7503 9.99226L21.2302 18.2523C21.1003 20.3122 20.0002 22.0023 17.2402 22.0023H7.41025C6.52026 22.0023 6.07026 20.9223 6.70026 20.2923L9.17026 17.8222C9.48025 17.5123 9.96025 17.4723 10.3503 17.6923C11.0403 18.0823 11.8703 18.2323 12.7503 18.0423C14.0203 17.7723 15.0502 16.7323 15.3003 15.4522C15.4702 14.5923 15.3202 13.7823 14.9403 13.1122C14.7202 12.7222 14.7502 12.2323 15.0703 11.9223L19.5703 7.42226C19.9803 7.01225 20.6703 7.06226 21.0202 7.53226C21.5403 8.21225 21.8103 9.07226 21.7503 9.99226Z" fill="white"/>
</svg>
