<svg width="24" height="24" viewBox="0 0 24 24" fill="none" xmlns="http://www.w3.org/2000/svg">
<path d="M22.7501 17.5C22.7501 17.91 22.41 18.25 22.0001 18.25H15V18.5001C15 20.0001 14.1 20.5 13.0001 20.5H7C5.9 20.5 5 20.0001 5 18.5001V18.25H2C1.59001 18.25 1.25 17.91 1.25 17.5C1.25 17.0901 1.59001 16.75 2 16.75H5V16.5C5 15 5.9 14.5 7 14.5H13.0001C14.1 14.5 15 15 15 16.5V16.75H22.0001C22.41 16.75 22.7501 17.0901 22.7501 17.5Z" fill="white"/>
<path d="M22.7501 6.5C22.7501 6.91 22.41 7.25 22.0001 7.25H19.0001V7.5C19.0001 9 18.1001 9.5 17 9.5H11C9.90001 9.5 9.00001 9 9.00001 7.5V7.25H2C1.59001 7.25 1.25 6.91 1.25 6.5C1.25 6.09 1.59001 5.75 2 5.75H9.00001V5.5C9.00001 4 9.90001 3.5 11 3.5H17C18.1001 3.5 19.0001 4 19.0001 5.5V5.75H22.0001C22.41 5.75 22.7501 6.09 22.7501 6.5Z" fill="white"/>
</svg>
