<svg width="24" height="24" viewBox="0 0 24 24" fill="none" xmlns="http://www.w3.org/2000/svg">
<path d="M19 15C16.79 15 15 16.79 15 19C15 19.75 15.21 20.46 15.58 21.06C16.27 22.22 17.54 23 19 23C20.46 23 21.73 22.22 22.42 21.06C22.79 20.46 23 19.75 23 19C23 16.79 21.21 15 19 15ZM21.07 18.57L18.94 20.54C18.8 20.67 18.61 20.74 18.43 20.74C18.24 20.74 18.05 20.67 17.9 20.52L16.91 19.53C16.62 19.24 16.62 18.76 16.91 18.47C17.2 18.18 17.68 18.18 17.97 18.47L18.45 18.95L20.05 17.47C20.35 17.19 20.83 17.21 21.11 17.51C21.39 17.81 21.37 18.28 21.07 18.57Z" fill="white"/>
<path d="M22.0001 7.54843V7.99843C22.0001 8.54844 21.55 8.99844 21 8.99844H3.00001C2.45 8.99844 2 8.54844 2 7.99843V7.53844C2 5.24844 3.85 3.39844 6.14 3.39844H17.85C20.1401 3.39844 22.0001 5.25844 22.0001 7.54843Z" fill="white"/>
<path d="M2 11.5022V16.4622C2 18.7522 3.85 20.6022 6.14 20.6022H12.4001C12.98 20.6022 13.4801 20.1122 13.43 19.5322C13.29 18.0022 13.7801 16.3422 15.14 15.0222C15.7001 14.4722 16.3901 14.0522 17.1401 13.8122C18.39 13.4122 19.6001 13.4622 20.67 13.8222C21.32 14.0422 22.0001 13.5722 22.0001 12.8822V11.4922C22.0001 10.9422 21.55 10.4922 21 10.4922H3.00001C2.45 10.5022 2 10.9522 2 11.5022ZM8 17.2522H6.00001C5.59 17.2522 5.25001 16.9122 5.25001 16.5022C5.25001 16.0922 5.59 15.7522 6.00001 15.7522H8C8.41 15.7522 8.75 16.0922 8.75 16.5022C8.75 16.9122 8.41 17.2522 8 17.2522Z" fill="white"/>
</svg>
