<svg width="24" height="24" viewBox="0 0 24 24" fill="none" xmlns="http://www.w3.org/2000/svg">
<path d="M19.2701 3.64843L14.1701 8.74843H3.2C2.54 8.74843 2 8.20843 2 7.54843V7.53844C2 5.24844 3.85 3.39844 6.14 3.39844H17.85C18.35 3.39844 18.83 3.48844 19.2701 3.64843Z" fill="white"/>
<path d="M12.6701 10.25L7.17001 15.75H6.00001C5.59 15.75 5.25001 16.09 5.25001 16.5C5.25001 16.81 5.45 17.09 5.73001 17.19L3.38 19.54C2.53 18.79 2 17.69 2 16.46V11.45C2 10.79 2.54 10.25 3.2 10.25H12.6701Z" fill="white"/>
<path d="M22.0006 11V16.46C22.0006 18.75 20.1507 20.6 17.8606 20.6H8.81066C7.92065 20.6 7.47065 19.52 8.10065 18.89L9.45065 17.54C9.64066 17.35 9.89066 17.25 10.1607 17.25H14.5006C14.9107 17.25 15.2506 16.91 15.2506 16.5C15.2506 16.09 14.9107 15.75 14.5006 15.75H13.6606C12.7707 15.75 12.3207 14.67 12.9507 14.04L16.4107 10.58C16.7907 10.21 17.3007 10 17.8306 10H21.0007C21.5506 10 22.0006 10.45 22.0006 11Z" fill="white"/>
<path d="M21.7708 2.23282C21.4708 1.93281 20.9809 1.93281 20.6809 2.23282L2.23086 20.6928C1.93086 20.9928 1.93086 21.4829 2.23086 21.7829C2.38086 21.9228 2.57086 22.0028 2.77086 22.0028C2.97086 22.0028 3.16086 21.9228 3.31086 21.7728L21.7708 3.31282C22.0809 3.01281 22.0809 2.53282 21.7708 2.23282Z" fill="white"/>
<path d="M21.7687 3.30859L20.6086 4.46859L16.3286 8.7486L3.30859 21.7685C3.15859 21.9185 2.96859 21.9986 2.76859 21.9986C2.5686 21.9986 2.37859 21.9185 2.22859 21.7685C1.91859 21.4685 1.91859 20.9885 2.22859 20.6885L3.3786 19.5386L5.72859 17.1885L19.2686 3.6486L20.6887 2.22859C20.9887 1.91859 21.4687 1.91859 21.7687 2.22859C22.0786 2.52859 22.0786 3.00859 21.7687 3.30859Z" fill="white"/>
<path d="M22.0005 7.41027C22.0005 6.52026 20.9205 6.07026 20.2905 6.70026L20.0006 7.00026L19.7105 7.29027C19.0805 7.92027 19.5206 9.00027 20.4105 9.00027H21.0005C21.5505 9.00027 22.0005 8.55027 22.0005 8.00027V7.41027Z" fill="white"/>
</svg>
