<svg width="24" height="24" viewBox="0 0 24 24" fill="none" xmlns="http://www.w3.org/2000/svg">
<path d="M15.2201 6.54688H5.78C5.5 6.54688 5.24 6.55687 5 6.56688C2.63 6.70687 2 7.57687 2 10.2769V10.8569C2 11.4069 2.45 11.8569 3.00001 11.8569H18C18.5501 11.8569 19.0001 11.4069 19.0001 10.8569V10.2769C19.0001 7.29688 18.24 6.54688 15.2201 6.54688Z" fill="white"/>
<path d="M3.00001 13.3594C2.45 13.3594 2 13.8094 2 14.3593V17.2693C2 20.2494 2.76001 20.9994 5.78 20.9994H15.2201C18.1901 20.9994 18.9701 20.2794 19.0001 17.4294V14.3593C19.0001 13.8094 18.5501 13.3594 18 13.3594H3.00001ZM6.96001 18.5593H5.25001C4.84 18.5593 4.50001 18.2194 4.50001 17.8093C4.50001 17.3994 4.84 17.0593 5.25001 17.0593H6.97C7.38001 17.0593 7.72 17.3994 7.72 17.8093C7.72 18.2194 7.38001 18.5593 6.96001 18.5593ZM12.5501 18.5593H9.11C8.70001 18.5593 8.36 18.2194 8.36 17.8093C8.36 17.3994 8.70001 17.0593 9.11 17.0593H12.5501C12.96 17.0593 13.3001 17.3994 13.3001 17.8093C13.3001 18.2194 12.9701 18.5593 12.5501 18.5593Z" fill="white"/>
<path d="M21.9996 13.3315V8.09157C21.9996 4.96156 20.2096 3.60156 17.5096 3.60156H8.57962C7.81962 3.60156 7.13962 3.71157 6.53962 3.94156C6.06961 4.11156 5.64962 4.36156 5.30962 4.69156C5.12962 4.86156 5.26962 5.14156 5.52961 5.14156H16.3996C18.6496 5.14156 20.4696 6.96156 20.4696 9.21156V16.3816C20.4696 16.6315 20.7396 16.7716 20.9196 16.5916C21.6096 15.8616 21.9996 14.7916 21.9996 13.3315Z" fill="white"/>
</svg>
