<svg width="24" height="24" viewBox="0 0 24 24" fill="none" xmlns="http://www.w3.org/2000/svg">
<path d="M22.0001 7.54843C22.0001 8.20843 21.4601 8.74843 20.8001 8.74843H3.2C2.54 8.74843 2 8.20843 2 7.54843V7.53844C2 5.24844 3.85 3.39844 6.14 3.39844H17.85C20.1401 3.39844 22.0001 5.25844 22.0001 7.54843Z" fill="white"/>
<path d="M2 11.45V16.46C2 18.75 3.85 20.6 6.14 20.6H17.85C20.1401 20.6 22.0001 18.74 22.0001 16.45V11.45C22.0001 10.79 21.4601 10.25 20.8001 10.25H3.2C2.54 10.25 2 10.79 2 11.45ZM8 17.25H6.00001C5.59 17.25 5.25001 16.91 5.25001 16.5C5.25001 16.09 5.59 15.75 6.00001 15.75H8C8.41 15.75 8.75 16.09 8.75 16.5C8.75 16.91 8.41 17.25 8 17.25ZM14.5001 17.25H10.5C10.09 17.25 9.75001 16.91 9.75001 16.5C9.75001 16.09 10.09 15.75 10.5 15.75H14.5001C14.91 15.75 15.2501 16.09 15.2501 16.5C15.2501 16.91 14.91 17.25 14.5001 17.25Z" fill="white"/>
</svg>
