<svg width="24" height="24" viewBox="0 0 24 24" fill="none" xmlns="http://www.w3.org/2000/svg">
<path d="M18.9004 15.0273C16.6904 15.0273 14.9004 16.8174 14.9004 19.0274C14.9004 21.2373 16.6904 23.0274 18.9004 23.0274C21.1104 23.0274 22.9004 21.2373 22.9004 19.0274C22.9004 16.8174 21.1104 15.0273 18.9004 15.0273ZM20.5004 20.6774C20.3504 20.8274 20.1604 20.8974 19.9704 20.8974C19.7804 20.8974 19.5904 20.8274 19.4404 20.6774L18.9104 20.1474L18.3604 20.6973C18.2104 20.8473 18.0204 20.9174 17.8304 20.9174C17.6404 20.9174 17.4504 20.8473 17.3004 20.6973C17.0104 20.4074 17.0104 19.9274 17.3004 19.6374L17.8504 19.0874L17.3204 18.5574C17.0304 18.2673 17.0304 17.7873 17.3204 17.4974C17.6104 17.2074 18.0904 17.2074 18.3804 17.4974L18.9104 18.0273L19.4104 17.5274C19.7004 17.2374 20.1804 17.2374 20.4704 17.5274C20.7604 17.8173 20.7604 18.2973 20.4704 18.5874L19.9704 19.0874L20.5004 19.6173C20.7904 19.9074 20.7904 20.3874 20.5004 20.6774Z" fill="white"/>
<path d="M22.0001 7.54843V7.99843C22.0001 8.54844 21.55 8.99844 21 8.99844H3.00001C2.45 8.99844 2 8.54844 2 7.99843V7.53844C2 5.24844 3.85 3.39844 6.14 3.39844H17.85C20.1401 3.39844 22.0001 5.25844 22.0001 7.54843Z" fill="white"/>
<path d="M2 11.5022V16.4622C2 18.7522 3.85 20.6022 6.14 20.6022H12.4001C12.98 20.6022 13.4801 20.1122 13.43 19.5322C13.29 18.0022 13.7801 16.3422 15.14 15.0222C15.7001 14.4722 16.3901 14.0522 17.1401 13.8122C18.39 13.4122 19.6001 13.4622 20.67 13.8222C21.32 14.0422 22.0001 13.5722 22.0001 12.8822V11.4922C22.0001 10.9422 21.55 10.4922 21 10.4922H3.00001C2.45 10.5022 2 10.9522 2 11.5022ZM8 17.2522H6.00001C5.59 17.2522 5.25001 16.9122 5.25001 16.5022C5.25001 16.0922 5.59 15.7522 6.00001 15.7522H8C8.41 15.7522 8.75 16.0922 8.75 16.5022C8.75 16.9122 8.41 17.2522 8 17.2522Z" fill="white"/>
</svg>
