<svg width="24" height="24" viewBox="0 0 24 24" fill="none" xmlns="http://www.w3.org/2000/svg">
<path d="M2 11.46V16.46C2 18.75 3.85 20.6 6.14 20.6H17.85C20.1401 20.6 22.0001 18.74 22.0001 16.45V11.46C22.0001 10.79 21.4601 10.25 20.79 10.25H3.21001C2.54 10.25 2 10.79 2 11.46ZM8 17.25H6.00001C5.59 17.25 5.25001 16.91 5.25001 16.5C5.25001 16.09 5.59 15.75 6.00001 15.75H8C8.41 15.75 8.75 16.09 8.75 16.5C8.75 16.91 8.41 17.25 8 17.25ZM14.5001 17.25H10.5C10.09 17.25 9.75001 16.91 9.75001 16.5C9.75001 16.09 10.09 15.75 10.5 15.75H14.5001C14.91 15.75 15.2501 16.09 15.2501 16.5C15.2501 16.91 14.91 17.25 14.5001 17.25Z" fill="white"/>
<path d="M13.5 4.60843V7.53844C13.5 8.20843 12.96 8.74843 12.29 8.74843H3.21001C2.53 8.74843 2 8.18844 2 7.51843C2.01001 6.38844 2.46001 5.35843 3.21001 4.60843C3.96001 3.85843 5 3.39844 6.14 3.39844H12.29C12.96 3.39844 13.5 3.93844 13.5 4.60843Z" fill="white"/>
<path d="M19.97 2H17.03C15.76 2 15 2.76 15 4.03V6.97C15 8.24 15.76 9 17.03 9H19.97C21.24 9 22 8.24 22 6.97V4.03C22 2.76 21.24 2 19.97 2ZM20.63 4.45L18.26 7.22C18.17 7.33 18.03 7.4 17.89 7.4C17.88 7.4 17.88 7.4 17.87 7.4C17.73 7.4 17.6 7.35 17.5 7.25L16.4 6.17C16.2 5.97 16.2 5.64 16.4 5.44C16.6 5.24 16.93 5.23 17.13 5.44L17.83 6.13L19.83 3.79C20.02 3.57 20.34 3.55 20.56 3.73C20.79 3.91 20.81 4.24 20.63 4.45Z" fill="white"/>
</svg>
