<svg width="24" height="24" viewBox="0 0 24 24" fill="none" xmlns="http://www.w3.org/2000/svg">
<path d="M22.0001 21.25C22.0001 21.66 21.66 22 21.2501 22H2.75C2.34001 22 2 21.66 2 21.25C2 20.8401 2.34001 20.5 2.75 20.5H21.2501C21.66 20.5 22.0001 20.8401 22.0001 21.25Z" fill="white"/>
<path d="M15.3914 4.52173L4.65141 15.2618C4.2414 15.6717 3.5814 15.6717 3.18141 15.2618H3.17141C1.7814 13.8617 1.7814 11.6018 3.17141 10.2118L10.3214 3.06172C11.7214 1.66172 13.9814 1.66172 15.3814 3.06172C15.7913 3.45172 15.7913 4.12172 15.3914 4.52173Z" fill="white"/>
<path d="M20.8214 8.49031L17.7714 5.44031C17.3614 5.03031 16.7014 5.03031 16.3014 5.44031L5.56141 16.1803C5.15141 16.5803 5.15141 17.2403 5.56141 17.6503L8.61141 20.7103C10.0114 22.1003 12.2714 22.1003 13.6714 20.7103L20.8114 13.5604C22.2314 12.1603 22.2314 9.89031 20.8214 8.49031ZM12.7614 17.5204L11.5514 18.7403C11.3014 18.9904 10.8914 18.9904 10.6314 18.7403C10.3814 18.4903 10.3814 18.0803 10.6314 17.8204L11.8514 16.6003C12.0914 16.3603 12.5114 16.3603 12.7614 16.6003C13.0114 16.8503 13.0114 17.2804 12.7614 17.5204ZM16.7314 13.5503L14.2914 16.0003C14.0414 16.2403 13.6314 16.2403 13.3714 16.0003C13.1214 15.7504 13.1214 15.3403 13.3714 15.0803L15.8214 12.6304C16.0614 12.3904 16.4814 12.3904 16.7314 12.6304C16.9814 12.8903 16.9814 13.3003 16.7314 13.5503Z" fill="white"/>
</svg>
