<svg width="24" height="24" viewBox="0 0 24 24" fill="none" xmlns="http://www.w3.org/2000/svg">
<path d="M17.1504 10C17.7027 10 18.1504 9.55228 18.1504 9C18.1504 8.44772 17.7027 8 17.1504 8C16.5981 8 16.1504 8.44772 16.1504 9C16.1504 9.55228 16.5981 10 17.1504 10Z" fill="white"/>
<path d="M17.1504 15.9999C17.7027 15.9999 18.1504 15.5523 18.1504 15C18.1504 14.4477 17.7027 14 17.1504 14C16.5981 14 16.1504 14.4477 16.1504 15C16.1504 15.5523 16.5981 15.9999 17.1504 15.9999Z" fill="white"/>
<path d="M19.75 13C20.3023 13 20.75 12.5524 20.75 12C20.75 11.4477 20.3023 11 19.75 11C19.1977 11 18.75 11.4477 18.75 12C18.75 12.5524 19.1977 13 19.75 13Z" fill="white"/>
<path d="M6.80079 10C7.35308 10 7.80079 9.55228 7.80079 9C7.80079 8.44772 7.35308 8 6.80079 8C6.2485 8 5.80078 8.44772 5.80078 9C5.80078 9.55228 6.2485 10 6.80079 10Z" fill="white"/>
<path d="M6.80079 15.9999C7.35308 15.9999 7.80079 15.5523 7.80079 15C7.80079 14.4477 7.35308 14 6.80079 14C6.2485 14 5.80078 14.4477 5.80078 15C5.80078 15.5523 6.2485 15.9999 6.80079 15.9999Z" fill="white"/>
<path d="M4.20118 13C4.75346 13 5.20118 12.5524 5.20118 12C5.20118 11.4477 4.75346 11 4.20118 11C3.64888 11 3.20117 11.4477 3.20117 12C3.20117 12.5524 3.64888 13 4.20118 13Z" fill="white"/>
<path d="M15.9004 6.19922C16.4527 6.19922 16.9004 5.7515 16.9004 5.19921C16.9004 4.64693 16.4527 4.19922 15.9004 4.19922C15.3481 4.19922 14.9004 4.64693 14.9004 5.19921C14.9004 5.7515 15.3481 6.19922 15.9004 6.19922Z" fill="white"/>
<path d="M8.09962 6.19922C8.65189 6.19922 9.09961 5.7515 9.09961 5.19921C9.09961 4.64693 8.65189 4.19922 8.09962 4.19922C7.54732 4.19922 7.09961 4.64693 7.09961 5.19921C7.09961 5.7515 7.54732 6.19922 8.09962 6.19922Z" fill="white"/>
<path d="M12.0508 7C12.6031 7 13.0508 6.55228 13.0508 6C13.0508 5.44772 12.6031 5 12.0508 5C11.4985 5 11.0508 5.44772 11.0508 6C11.0508 6.55228 11.4985 7 12.0508 7Z" fill="white"/>
<path d="M15.9004 20C16.4527 20 16.9004 19.5523 16.9004 19C16.9004 18.4477 16.4527 18 15.9004 18C15.3481 18 14.9004 18.4477 14.9004 19C14.9004 19.5523 15.3481 20 15.9004 20Z" fill="white"/>
<path d="M8.09962 20C8.65189 20 9.09961 19.5523 9.09961 19C9.09961 18.4477 8.65189 18 8.09962 18C7.54732 18 7.09961 18.4477 7.09961 19C7.09961 19.5523 7.54732 20 8.09962 20Z" fill="white"/>
<path d="M12.0508 19.1993C12.6031 19.1993 13.0508 18.7515 13.0508 18.1993C13.0508 17.6469 12.6031 17.1992 12.0508 17.1992C11.4985 17.1992 11.0508 17.6469 11.0508 18.1993C11.0508 18.7515 11.4985 19.1993 12.0508 19.1993Z" fill="white"/>
<path d="M13.75 10.25C14.4404 10.25 15 9.69036 15 9C15 8.30964 14.4404 7.75 13.75 7.75C13.0596 7.75 12.5 8.30964 12.5 9C12.5 9.69036 13.0596 10.25 13.75 10.25Z" fill="white"/>
<path d="M10.25 10.25C10.9404 10.25 11.5 9.69036 11.5 9C11.5 8.30964 10.9404 7.75 10.25 7.75C9.55964 7.75 9 8.30964 9 9C9 9.69036 9.55964 10.25 10.25 10.25Z" fill="white"/>
<path d="M15.5 13.25C16.1904 13.25 16.75 12.6904 16.75 12C16.75 11.3096 16.1904 10.75 15.5 10.75C14.8096 10.75 14.25 11.3096 14.25 12C14.25 12.6904 14.8096 13.25 15.5 13.25Z" fill="white"/>
<path d="M8.5 13.25C9.19036 13.25 9.75001 12.6904 9.75001 12C9.75001 11.3096 9.19036 10.75 8.5 10.75C7.80964 10.75 7.25 11.3096 7.25 12C7.25 12.6904 7.80964 13.25 8.5 13.25Z" fill="white"/>
<path d="M10.25 16.2501C10.9404 16.2501 11.5 15.6904 11.5 15C11.5 14.3097 10.9404 13.75 10.25 13.75C9.55964 13.75 9 14.3097 9 15C9 15.6904 9.55964 16.2501 10.25 16.2501Z" fill="white"/>
<path d="M13.75 16.2501C14.4404 16.2501 15 15.6904 15 15C15 14.3097 14.4404 13.75 13.75 13.75C13.0596 13.75 12.5 14.3097 12.5 15C12.5 15.6904 13.0596 16.2501 13.75 16.2501Z" fill="white"/>
<path d="M11.9991 3.33032C11.5091 3.33032 11.1191 2.94032 11.1191 2.45032C11.1191 1.96031 11.5091 1.57031 11.9991 1.57031C12.4892 1.57031 12.8792 1.96031 12.8792 2.45032C12.8792 2.94032 12.4892 3.33032 11.9991 3.33032Z" fill="white"/>
<path d="M17.2502 3.60156C16.8302 3.60156 16.4902 3.26157 16.4902 2.85156C16.4902 2.44156 16.8302 2.10156 17.2402 2.10156C17.6503 2.10156 18.0002 2.44156 18.0002 2.85156C18.0002 3.26157 17.6702 3.60156 17.2502 3.60156Z" fill="white"/>
<path d="M6.75 3.60156C6.34 3.60156 6 3.26157 6 2.85156C6 2.44156 6.33 2.10156 6.75 2.10156H6.76001C7.17001 2.10156 7.51001 2.44156 7.51001 2.85156C7.51001 3.26157 7.17 3.60156 6.75 3.60156Z" fill="white"/>
<path d="M11.9991 22.3811C11.5091 22.3811 11.1191 21.9911 11.1191 21.5011C11.1191 21.0111 11.5091 20.6211 11.9991 20.6211C12.4892 20.6211 12.8792 21.0111 12.8792 21.5011C12.8792 21.9911 12.4892 22.3811 11.9991 22.3811Z" fill="white"/>
<path d="M17.2502 21.8477C16.8302 21.8477 16.4902 21.5077 16.4902 21.0977C16.4902 20.6877 16.8302 20.3477 17.2402 20.3477C17.6503 20.3477 18.0002 20.6877 18.0002 21.0977C18.0002 21.5077 17.6702 21.8477 17.2502 21.8477Z" fill="white"/>
<path d="M6.75 21.8477C6.34 21.8477 6 21.5077 6 21.0977C6 20.6877 6.33 20.3477 6.75 20.3477H6.76001C7.17001 20.3477 7.51001 20.6877 7.51001 21.0977C7.51001 21.5077 7.17 21.8477 6.75 21.8477Z" fill="white"/>
<path d="M1.5499 12.8772C1.0699 12.8772 0.669922 12.4872 0.669922 12.0072V11.9972C0.669922 11.5172 1.0599 11.1172 1.5499 11.1172C2.0399 11.1172 2.4299 11.5072 2.4299 11.9972C2.4299 12.4872 2.0299 12.8772 1.5499 12.8772Z" fill="white"/>
<path d="M3.75 17.7521C3.34 17.7521 3 17.4221 3 17.0021V16.9922C3 16.5821 3.34 16.2422 3.75 16.2422C4.16 16.2422 4.5 16.5821 4.5 16.9922C4.5 17.4021 4.16 17.7521 3.75 17.7521Z" fill="white"/>
<path d="M3.75 7.75781C3.34 7.75781 3 7.41782 3 7.00781C3 6.59782 3.34 6.25781 3.75 6.25781C4.16 6.25781 4.5 6.58781 4.5 6.99782V7.00781C4.5 7.41782 4.16 7.75781 3.75 7.75781Z" fill="white"/>
<path d="M22.4991 12.8772C22.0191 12.8772 21.6191 12.4872 21.6191 12.0072V11.9972C21.6191 11.5172 22.0091 11.1172 22.4991 11.1172C22.9892 11.1172 23.3792 11.5072 23.3792 11.9972C23.3792 12.4872 22.9791 12.8772 22.4991 12.8772Z" fill="white"/>
<path d="M20.2988 17.7521C19.8888 17.7521 19.5488 17.4221 19.5488 17.0021V16.9922C19.5488 16.5821 19.8888 16.2422 20.2988 16.2422C20.7089 16.2422 21.0488 16.5821 21.0488 16.9922C21.0488 17.4021 20.7089 17.7521 20.2988 17.7521Z" fill="white"/>
<path d="M20.2988 7.75781C19.8888 7.75781 19.5488 7.41782 19.5488 7.00781C19.5488 6.59782 19.8888 6.25781 20.2988 6.25781C20.7089 6.25781 21.0488 6.58781 21.0488 7.00781V7.01782C21.0488 7.41782 20.7089 7.75781 20.2988 7.75781Z" fill="white"/>
</svg>
