<svg width="24" height="24" viewBox="0 0 24 24" fill="none" xmlns="http://www.w3.org/2000/svg">
<path d="M7.24 2H5.34001C3.15001 2 2 3.15 2 5.33V7.23C2 9.41 3.15001 10.56 5.33 10.56H7.23001C9.41 10.56 10.56 9.41 10.56 7.23V5.33C10.57 3.15 9.42001 2 7.24 2Z" fill="white"/>
<path d="M18.6694 2H16.7695C14.5894 2 13.4395 3.15 13.4395 5.33V7.23C13.4395 9.41 14.5894 10.56 16.7695 10.56H18.6694C20.8495 10.56 21.9994 9.41 21.9994 7.23V5.33C21.9994 3.15 20.8495 2 18.6694 2Z" fill="white"/>
<path d="M18.6694 13.4297H16.7695C14.5894 13.4297 13.4395 14.5796 13.4395 16.7597V18.6596C13.4395 20.8397 14.5894 21.9896 16.7695 21.9896H18.6694C20.8495 21.9896 21.9994 20.8397 21.9994 18.6596V16.7597C21.9994 14.5796 20.8495 13.4297 18.6694 13.4297Z" fill="white"/>
<path d="M7.24 13.4297H5.34001C3.15001 13.4297 2 14.5796 2 16.7597V18.6596C2 20.8496 3.15001 21.9997 5.33 21.9997H7.23001C9.41 21.9997 10.56 20.8496 10.56 18.6697V16.7696C10.57 14.5796 9.42001 13.4297 7.24 13.4297Z" fill="white"/>
</svg>
