<svg width="24" height="24" viewBox="0 0 24 24" fill="none" xmlns="http://www.w3.org/2000/svg">
<path d="M9.00001 22C12.866 22 16.0001 18.866 16.0001 15C16.0001 11.134 12.866 8 9.00001 8C5.13402 8 2 11.134 2 15C2 18.866 5.13402 22 9.00001 22Z" fill="white"/>
<path d="M21.9998 9C21.9998 11.74 20.4299 14.11 18.14 15.25C17.8299 15.41 17.4798 15.16 17.4498 14.82C17.1098 10.37 13.5998 6.89 9.17983 6.55C8.82983 6.52 8.58984 6.17 8.74983 5.86C9.88983 3.57 12.2598 2 14.9998 2C18.8698 2 21.9998 5.13 21.9998 9Z" fill="white"/>
</svg>
