<svg width="24" height="24" viewBox="0 0 24 24" fill="none" xmlns="http://www.w3.org/2000/svg">
<path d="M21.9701 7.21C21.69 4.48 19.52 2.31 16.79 2.03C16.59 2.01 16.3901 2 16.19 2H7.81C7.61 2 7.41001 2.01 7.21 2.03C4.48 2.31 2.31001 4.48 2.03 7.21C2.01001 7.41 2 7.61 2 7.81V16.19C2 16.39 2.01001 16.59 2.03 16.79C2.31001 19.52 4.48 21.69 7.21 21.97C7.41001 21.99 7.61 22 7.81 22H14C14.55 22 15 21.55 15 21V18.03C15 16.36 16.3601 15 18.03 15H21C21.55 15 22.0001 14.55 22.0001 14V7.81C22.0001 7.61 21.99 7.41 21.9701 7.21ZM7.75 13.5C7.75 13.91 7.41001 14.25 7 14.25C6.59 14.25 6.25 13.91 6.25 13.5V10.5C6.25 10.09 6.59 9.75 7 9.75C7.41001 9.75 7.75 10.09 7.75 10.5V13.5ZM12.75 13.5C12.75 13.91 12.41 14.25 12 14.25C11.59 14.25 11.25 13.91 11.25 13.5V10.5C11.25 10.09 11.59 9.75 12 9.75C12.41 9.75 12.75 10.09 12.75 10.5V13.5Z" fill="white"/>
<path d="M20.97 16H18.03C16.76 16 16 16.7601 16 18.03V20.97C16 22.24 16.76 23.0001 18.03 23.0001H20.97C22.24 23.0001 23 22.24 23 20.97V18.03C23 16.7601 22.24 16 20.97 16ZM21.47 20.56C21.72 20.8101 21.72 21.22 21.47 21.4701C21.34 21.5901 21.17 21.6501 21.01 21.6501C20.85 21.6501 20.68 21.5901 20.55 21.4701L19.49 20.41L18.45 21.4701C18.32 21.5901 18.16 21.6501 17.98 21.6501C17.83 21.6501 17.66 21.5901 17.54 21.4701C17.29 21.22 17.29 20.8101 17.54 20.56L18.6 19.5L17.54 18.45C17.29 18.2001 17.29 17.79 17.54 17.5401C17.79 17.29 18.2 17.29 18.45 17.5401L19.49 18.6L20.55 17.5401C20.8 17.29 21.22 17.29 21.47 17.5401C21.72 17.79 21.72 18.2001 21.47 18.45L20.41 19.5L21.47 20.56Z" fill="white"/>
</svg>
