<svg width="24" height="24" viewBox="0 0 24 24" fill="none" xmlns="http://www.w3.org/2000/svg">
<path d="M12 2C6.48001 2 2 6.48 2 12C2 17.52 6.48001 22 12 22C17.52 22 22.0001 17.52 22.0001 12C22.0001 6.48 17.52 2 12 2ZM12 8.75C11.59 8.75 11.25 8.41 11.25 8C11.25 7.59 11.59 7.25 12 7.25C14.6201 7.25 16.7501 9.38 16.7501 12C16.7501 14.62 14.6201 16.75 12 16.75C11.59 16.75 11.25 16.41 11.25 16C11.25 15.59 11.59 15.25 12 15.25C13.79 15.25 15.2501 13.79 15.2501 12C15.2501 10.21 13.79 8.75 12 8.75ZM12 19.75C7.73 19.75 4.25 16.27 4.25 12C4.25 11.59 4.59001 11.25 5 11.25C5.41 11.25 5.75 11.59 5.75 12C5.75 15.45 8.55001 18.25 12 18.25C15.45 18.25 18.2501 15.45 18.2501 12C18.2501 8.55 15.45 5.75 12 5.75C11.59 5.75 11.25 5.41 11.25 5C11.25 4.59 11.59 4.25 12 4.25C16.2701 4.25 19.7501 7.73 19.7501 12C19.7501 16.27 16.2701 19.75 12 19.75Z" fill="white"/>
</svg>
