<svg width="24" height="24" viewBox="0 0 24 24" fill="none" xmlns="http://www.w3.org/2000/svg">
<path fill-rule="evenodd" clip-rule="evenodd" d="M5.10039 2.39844C3.60922 2.39844 2.40039 3.60727 2.40039 5.09844V18.8984C2.40039 20.3896 3.60922 21.5984 5.10039 21.5984H18.9004C20.3915 21.5984 21.6004 20.3896 21.6004 18.8984V5.09844C21.6004 3.60727 20.3915 2.39844 18.9004 2.39844H5.10039ZM18.0004 6.89844C18.0004 6.40139 17.5974 5.99844 17.1004 5.99844C16.6034 5.99844 16.2004 6.40139 16.2004 6.89844V17.0984C16.2004 17.5955 16.6034 17.9984 17.1004 17.9984C17.5974 17.9984 18.0004 17.5955 18.0004 17.0984V6.89844ZM7.80039 14.0984C7.80039 13.6014 7.39744 13.1984 6.90039 13.1984C6.40334 13.1984 6.00039 13.6014 6.00039 14.0984V17.0984C6.00039 17.5955 6.40334 17.9984 6.90039 17.9984C7.39744 17.9984 7.80039 17.5955 7.80039 17.0984V14.0984ZM10.3006 10.7984C10.7976 10.7984 11.2006 11.2014 11.2006 11.6984V17.0984C11.2006 17.5955 10.7976 17.9984 10.3006 17.9984C9.80353 17.9984 9.40059 17.5955 9.40059 17.0984V11.6984C9.40059 11.2014 9.80353 10.7984 10.3006 10.7984ZM14.5967 9.29844C14.5967 8.80139 14.1938 8.39844 13.6967 8.39844C13.1997 8.39844 12.7967 8.80139 12.7967 9.29844V17.0984C12.7967 17.5955 13.1997 17.9984 13.6967 17.9984C14.1938 17.9984 14.5967 17.5955 14.5967 17.0984V9.29844Z" fill="#0F172A"/>
</svg>
