<svg width="24" height="24" viewBox="0 0 24 24" fill="none" xmlns="http://www.w3.org/2000/svg">
<path d="M14.3992 10.7986C13.7365 10.7986 13.1992 10.2613 13.1992 9.59857V3.59857C13.1992 2.93583 13.7396 2.38957 14.3956 2.48313C18.0773 3.00814 20.9896 5.92044 21.5146 9.60213C21.6082 10.2582 21.062 10.7986 20.3992 10.7986H14.3992Z" fill="#0F172A"/>
<path d="M9.60395 4.88548C10.2601 4.79191 10.8004 5.33818 10.8004 6.00091V12.0009C10.8004 12.6636 11.3377 13.2009 12.0004 13.2009H18.0004C18.6632 13.2009 19.2094 13.7412 19.1158 14.3974C18.5351 18.4698 15.0334 21.6009 10.8004 21.6009C6.1612 21.6009 2.40039 17.8401 2.40039 13.2009C2.40039 8.96791 5.53147 5.46622 9.60395 4.88548Z" fill="#0F172A"/>
</svg>
