<svg width="24" height="24" viewBox="0 0 24 24" fill="none" xmlns="http://www.w3.org/2000/svg">
<path d="M16.19 2H7.81C4.17001 2 2 4.17 2 7.81V16.18C2 19.83 4.17001 22 7.81 22H16.1801C19.82 22 21.99 19.83 21.99 16.19V7.81C22.0001 4.17 19.83 2 16.19 2ZM9.11 16.9C9.11 17.18 8.89 17.4 8.61001 17.4H5.82001C5.54 17.4 5.32 17.18 5.32 16.9V12.28C5.32 11.65 5.83 11.14 6.46 11.14H8.61001C8.89 11.14 9.11 11.36 9.11 11.64V16.9ZM13.89 16.9C13.89 17.18 13.67 17.4 13.3901 17.4H10.6C10.32 17.4 10.1 17.18 10.1 16.9V7.74C10.1 7.11 10.61 6.6 11.24 6.6H12.7601C13.3901 6.6 13.9001 7.11 13.9001 7.74V16.9H13.89ZM18.68 16.9C18.68 17.18 18.4601 17.4 18.18 17.4H15.39C15.11 17.4 14.8901 17.18 14.8901 16.9V13.35C14.8901 13.07 15.11 12.85 15.39 12.85H17.54C18.17 12.85 18.68 13.36 18.68 13.99V16.9Z" fill="white"/>
</svg>
