<svg width="24" height="24" viewBox="0 0 24 24" fill="none" xmlns="http://www.w3.org/2000/svg">
<path d="M21 22.75H3C2.59 22.75 2.25 22.41 2.25 22C2.25 21.5901 2.59 21.25 3 21.25H21C21.41 21.25 21.75 21.5901 21.75 22C21.75 22.41 21.41 22.75 21 22.75Z" fill="white"/>
<path d="M5.6 8.38281H4C3.45 8.38281 3 8.8328 3 9.38281V18.0029C3 18.5528 3.45 19.0028 4 19.0028H5.6C6.15 19.0028 6.6 18.5528 6.6 18.0029V9.38281C6.6 8.8228 6.15 8.38281 5.6 8.38281Z" fill="white"/>
<path d="M12.7993 5.1875H11.1992C10.6492 5.1875 10.1992 5.6375 10.1992 6.1875V17.9976C10.1992 18.5476 10.6492 18.9976 11.1992 18.9976H12.7993C13.3492 18.9976 13.7992 18.5476 13.7992 17.9976V6.1875C13.7992 5.6375 13.3492 5.1875 12.7993 5.1875Z" fill="white"/>
<path d="M20.0004 2H18.4004C17.8504 2 17.4004 2.45 17.4004 3V18C17.4004 18.55 17.8504 19 18.4004 19H20.0004C20.5504 19 21.0004 18.55 21.0004 18V3C21.0004 2.45 20.5504 2 20.0004 2Z" fill="white"/>
</svg>
