<svg width="24" height="24" viewBox="0 0 24 24" fill="none" xmlns="http://www.w3.org/2000/svg">
<path d="M18.6008 2.39844C17.6067 2.39844 16.8008 3.20432 16.8008 4.19844V19.7984C16.8008 20.7925 17.6067 21.5984 18.6008 21.5984H19.8008C20.7949 21.5984 21.6008 20.7925 21.6008 19.7984V4.19844C21.6008 3.20432 20.7949 2.39844 19.8008 2.39844H18.6008Z" fill="#0F172A"/>
<path d="M11.3996 7.19922C10.4055 7.19922 9.59961 8.0051 9.59961 8.99922V19.7992C9.59961 20.7933 10.4055 21.5992 11.3996 21.5992H12.5996C13.5937 21.5992 14.3996 20.7933 14.3996 19.7992V8.99922C14.3996 8.0051 13.5937 7.19922 12.5996 7.19922H11.3996Z" fill="#0F172A"/>
<path d="M4.20039 12C3.20627 12 2.40039 12.8059 2.40039 13.8V19.8C2.40039 20.7941 3.20627 21.6 4.20039 21.6H5.40039C6.39451 21.6 7.20039 20.7941 7.20039 19.8V13.8C7.20039 12.8059 6.39451 12 5.40039 12H4.20039Z" fill="#0F172A"/>
</svg>
