<svg width="24" height="24" viewBox="0 0 24 24" fill="none" xmlns="http://www.w3.org/2000/svg">
<path fill-rule="evenodd" clip-rule="evenodd" d="M2.40039 12.0016C2.40039 7.24164 6.82846 3.60156 12.0004 3.60156C17.1723 3.60156 21.6004 7.24164 21.6004 12.0016C21.6004 16.7615 17.1723 20.4016 12.0004 20.4016C11.3843 20.4016 10.781 20.3508 10.1958 20.2535C9.01451 21.1016 7.56483 21.6016 6.00039 21.6016C5.82323 21.6016 5.64741 21.5952 5.47317 21.5825C5.15905 21.5597 4.87969 21.3744 4.73655 21.0938C4.59343 20.8133 4.60736 20.4784 4.77329 20.2106C5.1541 19.5964 5.38084 18.8768 5.39918 18.1033C3.57458 16.5919 2.40039 14.4308 2.40039 12.0016Z" fill="#0F172A"/>
</svg>
