<svg width="24" height="24" viewBox="0 0 24 24" fill="none" xmlns="http://www.w3.org/2000/svg">
<path fill-rule="evenodd" clip-rule="evenodd" d="M4.11493 3.02693C6.68253 2.6133 9.3161 2.39844 11.9992 2.39844C14.6823 2.39844 17.3159 2.6133 19.8835 3.02693C21.6071 3.30459 22.7992 4.81434 22.7992 6.50949V12.6874C22.7992 14.3825 21.6071 15.8923 19.8835 16.17C18.4821 16.3957 17.0609 16.5623 15.6227 16.667C15.2871 16.6914 14.9978 16.8828 14.8522 17.1626L12.7977 21.1136C12.6428 21.4116 12.335 21.5984 11.9992 21.5984C11.6635 21.5984 11.3556 21.4116 11.2007 21.1136L9.14618 17.1626C9.00066 16.8828 8.71134 16.6914 8.3757 16.667C6.93754 16.5623 5.51639 16.3957 4.11493 16.17C2.39127 15.8923 1.19922 14.3825 1.19922 12.6874V6.50949C1.19922 4.81434 2.39129 3.30459 4.11493 3.02693Z" fill="#0F172A"/>
</svg>
