<svg width="24" height="24" viewBox="0 0 24 24" fill="none" xmlns="http://www.w3.org/2000/svg">
<path fill-rule="evenodd" clip-rule="evenodd" d="M11.9992 2.39844C9.3161 2.39844 6.68253 2.6133 4.11493 3.02693C2.39129 3.30459 1.19922 4.81434 1.19922 6.50949V12.6874C1.19922 14.3825 2.39127 15.8923 4.11493 16.17C5.51639 16.3957 6.93754 16.5623 8.3757 16.667C8.71134 16.6914 9.00066 16.8828 9.14618 17.1626L11.2007 21.1136C11.3556 21.4116 11.6635 21.5984 11.9992 21.5984C12.335 21.5984 12.6428 21.4116 12.7977 21.1136L14.8522 17.1626C14.9978 16.8828 15.2871 16.6914 15.6227 16.667C17.0609 16.5623 18.4821 16.3957 19.8835 16.17C21.6071 15.8923 22.7992 14.3825 22.7992 12.6874V6.50949C22.7992 4.81434 21.6071 3.30459 19.8835 3.02693C17.3159 2.6133 14.6823 2.39844 11.9992 2.39844ZM8.09922 7.19844C7.60217 7.19844 7.19922 7.60139 7.19922 8.09844C7.19922 8.59549 7.60217 8.99844 8.09922 8.99844H15.8992C16.3963 8.99844 16.7992 8.59549 16.7992 8.09844C16.7992 7.60139 16.3963 7.19844 15.8992 7.19844H8.09922ZM8.09922 10.1984C7.60217 10.1984 7.19922 10.6014 7.19922 11.0984C7.19922 11.5955 7.60217 11.9984 8.09922 11.9984H12.2992C12.7963 11.9984 13.1992 11.5955 13.1992 11.0984C13.1992 10.6014 12.7963 10.1984 12.2992 10.1984H8.09922Z" fill="#0F172A"/>
</svg>
