<svg width="24" height="24" viewBox="0 0 24 24" fill="none" xmlns="http://www.w3.org/2000/svg">
<path fill-rule="evenodd" clip-rule="evenodd" d="M11.9992 2.39844C9.3161 2.39844 6.68253 2.6133 4.11493 3.02693C2.39129 3.30459 1.19922 4.81434 1.19922 6.50949V12.6874C1.19922 14.3826 2.39129 15.8923 4.11493 16.17C5.13299 16.3339 6.16142 16.4668 7.19922 16.5672V20.6984C7.19922 21.0624 7.41849 21.3906 7.75481 21.5299C8.09111 21.6692 8.47822 21.5922 8.73562 21.3348L13.0305 17.04C13.1936 16.8769 13.4191 16.7789 13.6635 16.7708C15.7729 16.7006 17.8489 16.4977 19.8835 16.17C21.6071 15.8923 22.7992 14.3825 22.7992 12.6874V6.50949C22.7992 4.81434 21.6071 3.30459 19.8835 3.02693C17.3159 2.6133 14.6823 2.39844 11.9992 2.39844ZM11.9992 10.7984C12.662 10.7984 13.1992 10.2612 13.1992 9.59844C13.1992 8.9357 12.662 8.39844 11.9992 8.39844C11.3365 8.39844 10.7992 8.9357 10.7992 9.59844C10.7992 10.2612 11.3365 10.7984 11.9992 10.7984ZM9.59922 9.59844C9.59922 10.2612 9.06196 10.7984 8.39922 10.7984C7.73648 10.7984 7.19922 10.2612 7.19922 9.59844C7.19922 8.9357 7.73648 8.39844 8.39922 8.39844C9.06196 8.39844 9.59922 8.9357 9.59922 9.59844ZM15.5992 10.7984C16.262 10.7984 16.7992 10.2612 16.7992 9.59844C16.7992 8.9357 16.262 8.39844 15.5992 8.39844C14.9365 8.39844 14.3992 8.9357 14.3992 9.59844C14.3992 10.2612 14.9365 10.7984 15.5992 10.7984Z" fill="#0F172A"/>
</svg>
