<svg width="24" height="24" viewBox="0 0 24 24" fill="none" xmlns="http://www.w3.org/2000/svg">
<path fill-rule="evenodd" clip-rule="evenodd" d="M12.0004 3.60156C6.82846 3.60156 2.40039 7.24164 2.40039 12.0016C2.40039 14.4308 3.57458 16.5919 5.39918 18.1033C5.38084 18.8768 5.1541 19.5964 4.77329 20.2106C4.60736 20.4784 4.59343 20.8133 4.73655 21.0938C4.87969 21.3744 5.15905 21.5597 5.47317 21.5825C5.64741 21.5952 5.82323 21.6016 6.00039 21.6016C7.56483 21.6016 9.01451 21.1016 10.1958 20.2535C10.781 20.3508 11.3843 20.4016 12.0004 20.4016C17.1723 20.4016 21.6004 16.7615 21.6004 12.0016C21.6004 7.24164 17.1723 3.60156 12.0004 3.60156ZM12.0004 13.2016C12.6632 13.2016 13.2004 12.6643 13.2004 12.0016C13.2004 11.3388 12.6632 10.8016 12.0004 10.8016C11.3377 10.8016 10.8004 11.3388 10.8004 12.0016C10.8004 12.6643 11.3377 13.2016 12.0004 13.2016ZM9.60039 12.0016C9.60039 12.6643 9.06313 13.2016 8.40039 13.2016C7.73765 13.2016 7.20039 12.6643 7.20039 12.0016C7.20039 11.3388 7.73765 10.8016 8.40039 10.8016C9.06313 10.8016 9.60039 11.3388 9.60039 12.0016ZM15.6004 13.2016C16.2632 13.2016 16.8004 12.6643 16.8004 12.0016C16.8004 11.3388 16.2632 10.8016 15.6004 10.8016C14.9376 10.8016 14.4004 11.3388 14.4004 12.0016C14.4004 12.6643 14.9376 13.2016 15.6004 13.2016Z" fill="#0F172A"/>
</svg>
