<svg width="24" height="24" viewBox="0 0 24 24" fill="none" xmlns="http://www.w3.org/2000/svg">
<path d="M4.20511 2.83662C6.36245 2.5476 8.56364 2.39844 10.7992 2.39844C13.0348 2.39844 15.236 2.5476 17.3933 2.83662C18.8894 3.03705 20.0081 4.1664 20.315 5.5584C20.0902 5.51631 19.8593 5.48827 19.6229 5.47536C18.6879 5.42429 17.7465 5.39844 16.7992 5.39844C15.8519 5.39844 14.9105 5.42429 13.9755 5.47536C11.0742 5.63382 8.99922 8.07131 8.99922 10.796V13.4837C8.99922 15.1798 9.80331 16.7656 11.1117 17.7587L7.53562 21.3348C7.27822 21.5922 6.89111 21.6692 6.55481 21.5299C6.21849 21.3906 5.99922 21.0624 5.99922 20.6984V16.5672C5.39798 16.509 4.79989 16.44 4.20513 16.3603C2.4393 16.1237 1.19922 14.5931 1.19922 12.8638V6.33307C1.19922 4.60386 2.43926 3.0732 4.20511 2.83662Z" fill="#0F172A"/>
<path d="M16.8008 7.19922C15.8863 7.19922 14.9776 7.22418 14.0752 7.27346C12.1894 7.37646 10.8008 8.96576 10.8008 10.7967V13.4845C10.8008 15.307 12.1768 16.8916 14.053 17.0063C14.3093 17.0221 14.5663 17.0357 14.8237 17.0474C15.0639 17.0584 15.2847 17.156 15.445 17.3163L18.2644 20.1356C18.5218 20.393 18.9089 20.47 19.2452 20.3307C19.5815 20.1914 19.8008 19.8632 19.8008 19.4992V17.0146C21.5438 16.7809 22.8008 15.259 22.8008 13.517V10.7967C22.8008 8.96576 21.4121 7.37646 19.5263 7.27346C18.6239 7.22418 17.7153 7.19922 16.8008 7.19922Z" fill="#0F172A"/>
</svg>
