<svg width="24" height="24" viewBox="0 0 24 24" fill="none" xmlns="http://www.w3.org/2000/svg">
<path fill-rule="evenodd" clip-rule="evenodd" d="M4.11493 3.02693C6.68253 2.6133 9.3161 2.39844 11.9992 2.39844C14.6823 2.39844 17.3159 2.6133 19.8835 3.02693C21.6071 3.30459 22.7992 4.81434 22.7992 6.50949V12.6874C22.7992 14.3825 21.6071 15.8923 19.8835 16.17C17.8489 16.4977 15.7729 16.7006 13.6635 16.7708C13.4191 16.7789 13.1936 16.8769 13.0305 17.04L8.73562 21.3348C8.47822 21.5922 8.09111 21.6692 7.75481 21.5299C7.41849 21.3906 7.19922 21.0624 7.19922 20.6984V16.5672C6.16142 16.4668 5.13299 16.3339 4.11493 16.17C2.39129 15.8923 1.19922 14.3826 1.19922 12.6874V6.50949C1.19922 4.81434 2.39129 3.30459 4.11493 3.02693Z" fill="#0F172A"/>
</svg>
