<svg width="24" height="24" viewBox="0 0 24 24" fill="none" xmlns="http://www.w3.org/2000/svg">
<path fill-rule="evenodd" clip-rule="evenodd" d="M12.0004 21.5984C17.3024 21.5984 21.6004 17.3004 21.6004 11.9984C21.6004 6.6965 17.3024 2.39844 12.0004 2.39844C6.69845 2.39844 2.40039 6.6965 2.40039 11.9984C2.40039 17.3004 6.69845 21.5984 12.0004 21.5984ZM16.6283 9.82779C16.9206 9.42581 16.8317 8.86293 16.4297 8.57058C16.0277 8.27822 15.4649 8.36709 15.1725 8.76908L10.992 14.5172L8.73679 12.2621C8.38532 11.9106 7.81546 11.9106 7.46399 12.2621C7.11253 12.6136 7.11253 13.1833 7.46399 13.5348L10.464 16.5348C10.6501 16.7209 10.9084 16.8163 11.1708 16.7957C11.4332 16.775 11.6734 16.6406 11.8283 16.4278L16.6283 9.82779Z" fill="#0F172A"/>
</svg>
