<svg width="24" height="24" viewBox="0 0 24 24" fill="none" xmlns="http://www.w3.org/2000/svg">
<path fill-rule="evenodd" clip-rule="evenodd" d="M11.3636 5.66204C11.7151 5.31057 12.2849 5.31057 12.6364 5.66204L17.7364 10.762C18.0878 11.1135 18.0878 11.6834 17.7364 12.0348C17.3849 12.3863 16.8151 12.3863 16.4636 12.0348L12 7.57123L7.53639 12.0348C7.18493 12.3863 6.61507 12.3863 6.2636 12.0348C5.91213 11.6834 5.91213 11.1135 6.2636 10.762L11.3636 5.66204ZM6.2636 16.7621L11.3636 11.662C11.7151 11.3106 12.2849 11.3106 12.6364 11.662L17.7364 16.7621C18.0878 17.1136 18.0878 17.6833 17.7364 18.0348C17.3849 18.3863 16.8151 18.3863 16.4636 18.0348L12 13.5713L7.53639 18.0348C7.18493 18.3863 6.61507 18.3863 6.2636 18.0348C5.91213 17.6833 5.91213 17.1136 6.2636 16.7621Z" fill="#0F172A"/>
</svg>
