<svg width="24" height="24" viewBox="0 0 24 24" fill="none" xmlns="http://www.w3.org/2000/svg">
<path fill-rule="evenodd" clip-rule="evenodd" d="M5.66399 11.3636C5.31252 11.7151 5.31252 12.2849 5.66399 12.6364L10.764 17.7364C11.1155 18.0878 11.6853 18.0878 12.0367 17.7364C12.3882 17.3849 12.3882 16.8151 12.0367 16.4636L7.57318 12L12.0367 7.53639C12.3882 7.18493 12.3882 6.61507 12.0367 6.2636C11.6853 5.91213 11.1155 5.91213 10.764 6.2636L5.66399 11.3636ZM16.764 6.2636L11.664 11.3636C11.3125 11.7151 11.3125 12.2849 11.664 12.6364L16.764 17.7364C17.1155 18.0878 17.6853 18.0878 18.0367 17.7364C18.3882 17.3849 18.3882 16.8151 18.0367 16.4636L13.5732 12L18.0367 7.53639C18.3882 7.18493 18.3882 6.61507 18.0367 6.2636C17.6853 5.91213 17.1155 5.91213 16.764 6.2636Z" fill="#0F172A"/>
</svg>
