<svg width="24" height="24" viewBox="0 0 24 24" fill="none" xmlns="http://www.w3.org/2000/svg">
<path fill-rule="evenodd" clip-rule="evenodd" d="M18.3356 11.3636C18.6871 11.7151 18.6871 12.2849 18.3356 12.6364L13.2356 17.7364C12.8841 18.0878 12.3143 18.0878 11.9628 17.7364C11.6114 17.3849 11.6114 16.8151 11.9628 16.4636L16.4264 12L11.9628 7.53639C11.6114 7.18493 11.6114 6.61507 11.9628 6.2636C12.3143 5.91213 12.8841 5.91213 13.2356 6.2636L18.3356 11.3636ZM7.23561 6.2636L12.3356 11.3636C12.6871 11.7151 12.6871 12.2849 12.3356 12.6364L7.23561 17.7364C6.88414 18.0878 6.31429 18.0878 5.96282 17.7364C5.61135 17.3849 5.61135 16.8151 5.96282 16.4636L10.4264 12L5.96282 7.53639C5.61135 7.18493 5.61135 6.61507 5.96282 6.2636C6.31429 5.91213 6.88414 5.91213 7.23561 6.2636Z" fill="#0F172A"/>
</svg>
