<svg width="24" height="24" viewBox="0 0 24 24" fill="none" xmlns="http://www.w3.org/2000/svg">
<path fill-rule="evenodd" clip-rule="evenodd" d="M12.6356 4.16204C12.2841 3.81057 11.7143 3.81057 11.3628 4.16204L7.46282 8.06204C7.11135 8.41351 7.11135 8.98336 7.46282 9.33483C7.81429 9.6863 8.38414 9.6863 8.73561 9.33483L11.9992 6.07123L15.2629 9.33483C15.6143 9.6863 16.1841 9.6863 16.5356 9.33483C16.8871 8.98336 16.8871 8.41351 16.5356 8.06204L12.6356 4.16204ZM7.46282 15.9348L11.3628 19.8348C11.7143 20.1863 12.2841 20.1863 12.6356 19.8348L16.5356 15.9348C16.8871 15.5833 16.8871 15.0136 16.5356 14.6621C16.1841 14.3106 15.6143 14.3106 15.2629 14.6621L11.9992 17.9256L8.73561 14.6621C8.38414 14.3106 7.81429 14.3106 7.46282 14.6621C7.11135 15.0136 7.11135 15.5833 7.46282 15.9348Z" fill="#0F172A"/>
</svg>
