<svg width="24" height="24" viewBox="0 0 24 24" fill="none" xmlns="http://www.w3.org/2000/svg">
<path fill-rule="evenodd" clip-rule="evenodd" d="M11.3636 18.3356C11.7151 18.6871 12.2849 18.6871 12.6364 18.3356L17.7364 13.2356C18.0878 12.8841 18.0878 12.3143 17.7364 11.9628C17.3849 11.6114 16.8151 11.6114 16.4636 11.9628L12 16.4264L7.53639 11.9628C7.18493 11.6114 6.61507 11.6114 6.2636 11.9628C5.91213 12.3143 5.91213 12.8841 6.2636 13.2356L11.3636 18.3356ZM6.2636 7.23561L11.3636 12.3356C11.7151 12.6871 12.2849 12.6871 12.6364 12.3356L17.7364 7.23561C18.0878 6.88414 18.0878 6.31429 17.7364 5.96282C17.3849 5.61135 16.8151 5.61135 16.4636 5.96282L12 10.4264L7.53639 5.96282C7.18493 5.61135 6.61507 5.61135 6.2636 5.96282C5.91213 6.31429 5.91213 6.88414 6.2636 7.23561Z" fill="#0F172A"/>
</svg>
