<svg width="24" height="24" viewBox="0 0 24 24" fill="none" xmlns="http://www.w3.org/2000/svg">
<path d="M11.8195 6.9C14.6795 6.28 17.5795 6.19 20.4495 6.66C18.6795 3.86 15.5595 2 11.9995 2C8.88953 2 6.10953 3.42 4.26953 5.65C4.70952 6.95 5.26953 8.19 5.93952 9.37C6.31953 10.05 7.28952 10.02 7.67952 9.35C8.52953 7.92 10.0595 6.96 11.8195 6.9Z" fill="white"/>
<path d="M7.72001 14.7175C5.72002 12.5776 4.16002 10.1375 3.09002 7.4375C1.59002 10.3976 1.60001 14.0275 3.43001 17.0776C5.03002 19.7476 7.67002 21.4075 10.53 21.8376C11.42 20.7876 12.2 19.6675 12.87 18.4975C13.26 17.8176 12.73 17.0076 11.95 17.0076C10.28 17.0176 8.67002 16.1976 7.72001 14.7175Z" fill="white"/>
<path d="M8.57031 11.9981C8.57031 12.6082 8.72031 13.1782 9.03031 13.7182C9.64032 14.7682 10.7703 15.4282 11.9903 15.4282C13.2104 15.4282 14.3504 14.7682 14.9504 13.7182C15.2603 13.1782 15.4203 12.6082 15.4203 11.9981C15.4203 10.1081 13.8803 8.57817 11.9903 8.57817C10.1103 8.56817 8.57031 10.1081 8.57031 11.9981Z" fill="white"/>
<path d="M21.3402 8.41931C19.9701 8.1293 18.5802 7.96931 17.2002 7.94931C16.4102 7.93931 15.9602 8.79931 16.3502 9.48931C16.7502 10.1993 16.9802 11.0193 16.9802 11.8893C16.9802 12.7293 16.7601 13.5593 16.3502 14.2993C15.4101 17.1793 14.0102 19.7393 12.1602 21.9993C17.6102 21.9093 22.0002 17.4693 22.0002 11.9993C22.0002 10.7393 21.7701 9.52931 21.3402 8.41931Z" fill="white"/>
</svg>
