<svg width="24" height="24" viewBox="0 0 24 24" fill="none" xmlns="http://www.w3.org/2000/svg">
<path fill-rule="evenodd" clip-rule="evenodd" d="M11.9996 1.19922C16.6388 1.19922 20.3996 3.34825 20.3996 5.99922C20.3996 8.65019 16.6388 10.7992 11.9996 10.7992C7.36042 10.7992 3.59961 8.65019 3.59961 5.99922C3.59961 3.34825 7.36042 1.19922 11.9996 1.19922ZM18.8324 10.9562C19.3887 10.6383 19.9249 10.2561 20.3996 9.81252V11.9992C20.3996 14.6501 16.6388 16.7992 11.9996 16.7992C7.36042 16.7992 3.59961 14.6501 3.59961 11.9992V9.81252C4.07433 10.2561 4.61054 10.6383 5.16686 10.9562C7.00525 12.0067 9.42481 12.5992 11.9996 12.5992C14.5744 12.5992 16.994 12.0067 18.8324 10.9562ZM3.59961 15.8125V17.9992C3.59961 20.6501 7.36042 22.7992 11.9996 22.7992C16.6388 22.7992 20.3996 20.6501 20.3996 17.9992V15.8125C19.9249 16.2561 19.3887 16.6383 18.8324 16.9562C16.994 18.0067 14.5744 18.5992 11.9996 18.5992C9.42481 18.5992 7.00525 18.0067 5.16686 16.9562C4.61054 16.6383 4.07433 16.2561 3.59961 15.8125Z" fill="#0F172A"/>
</svg>
