<svg width="24" height="24" viewBox="0 0 24 24" fill="none" xmlns="http://www.w3.org/2000/svg">
<path d="M14.2991 10.1325C14.5791 11.2326 14.0891 12.2525 13.2491 12.7725V14.7525C13.2491 15.4425 12.6891 16.0024 11.9991 16.0024C11.3091 16.0024 10.7491 15.4425 10.7491 14.7525V12.7725C10.0691 12.3525 9.61914 11.6025 9.61914 10.7525C9.61914 9.2325 11.0591 8.0525 12.6392 8.4725C13.4391 8.6825 14.0891 9.33249 14.2991 10.1325Z" fill="white"/>
<path d="M12 22.75C6.07 22.75 1.25 17.93 1.25 12C1.25 6.07 6.07 1.25 12 1.25C16.74 1.25 20.8601 4.29 22.2701 8.8C22.3901 9.2 22.17 9.62001 21.78 9.74001C21.38 9.86001 20.96 9.64 20.84 9.25C19.6301 5.36 16.08 2.75 12.0101 2.75C6.90999 2.75 2.76 6.9 2.76 12C2.76 17.1 6.90999 21.25 12.0101 21.25C16.07 21.25 19.62 18.65 20.8301 14.78C20.9501 14.38 21.3701 14.17 21.77 14.29C22.17 14.41 22.38 14.84 22.26 15.23C20.84 19.73 16.7201 22.75 12 22.75Z" fill="white"/>
</svg>
