<svg width="24" height="24" viewBox="0 0 24 24" fill="none" xmlns="http://www.w3.org/2000/svg">
<path fill-rule="evenodd" clip-rule="evenodd" d="M19.1854 3.6141C20.5426 3.75654 21.6003 4.90435 21.6003 6.29922V14.0992C21.6003 15.5903 20.3914 16.7992 18.9003 16.7992H16.2003V8.39922C16.2003 6.74237 14.8571 5.39922 13.2003 5.39922H9.75391C10.0942 4.43645 10.965 3.72431 12.0151 3.6141C12.1576 2.25696 13.3054 1.19922 14.7003 1.19922H16.5003C17.8951 1.19922 19.043 2.25696 19.1854 3.6141ZM13.8003 3.89922C13.8003 3.40217 14.2032 2.99922 14.7003 2.99922H16.5003C16.9973 2.99922 17.4003 3.40217 17.4003 3.89922V4.19922H13.8003V3.89922Z" fill="#0F172A"/>
<path fill-rule="evenodd" clip-rule="evenodd" d="M2.40039 8.39922C2.40039 7.73647 2.93765 7.19922 3.60039 7.19922H13.2004C13.8632 7.19922 14.4004 7.73648 14.4004 8.39922V20.3992C14.4004 21.062 13.8632 21.5992 13.2004 21.5992H3.60039C2.93765 21.5992 2.40039 21.062 2.40039 20.3992V8.39922ZM4.80039 12.2992C4.80039 11.8022 5.20334 11.3992 5.70039 11.3992H11.1004C11.5974 11.3992 12.0004 11.8022 12.0004 12.2992C12.0004 12.7963 11.5974 13.1992 11.1004 13.1992H5.70039C5.20334 13.1992 4.80039 12.7963 4.80039 12.2992ZM4.80039 16.4992C4.80039 16.0022 5.20334 15.5992 5.70039 15.5992H11.1004C11.5974 15.5992 12.0004 16.0022 12.0004 16.4992C12.0004 16.9963 11.5974 17.3992 11.1004 17.3992H5.70039C5.20334 17.3992 4.80039 16.9963 4.80039 16.4992Z" fill="#0F172A"/>
</svg>
