<svg width="24" height="24" viewBox="0 0 24 24" fill="none" xmlns="http://www.w3.org/2000/svg">
<path fill-rule="evenodd" clip-rule="evenodd" d="M19.185 3.6141C20.5421 3.75654 21.5999 4.90435 21.5999 6.29922V14.0992C21.5999 15.5903 20.391 16.7992 18.8999 16.7992H16.1999V12.7448C16.1999 11.79 15.8206 10.8744 15.1455 10.1992L11.3999 6.45364C10.9325 5.98626 10.3499 5.66066 9.71875 5.50453C10.0311 4.48869 10.9267 3.72829 12.0148 3.6141C12.1572 2.25696 13.305 1.19922 14.6999 1.19922H16.4999C17.8948 1.19922 19.0426 2.25696 19.185 3.6141ZM13.7999 3.89922C13.7999 3.40217 14.2029 2.99922 14.6999 2.99922H16.4999C16.997 2.99922 17.3999 3.40217 17.3999 3.89922V4.19922H13.7999V3.89922Z" fill="#0F172A"/>
<path d="M4.20039 7.19922C3.20627 7.19922 2.40039 8.0051 2.40039 8.99922V19.7992C2.40039 20.7933 3.20627 21.5992 4.20039 21.5992H12.6004C13.5945 21.5992 14.4004 20.7933 14.4004 19.7992V12.7448C14.4004 12.2674 14.2108 11.8096 13.8732 11.472L10.1276 7.72643C9.79004 7.38887 9.33219 7.19922 8.85481 7.19922H4.20039Z" fill="#0F172A"/>
</svg>
