<svg width="24" height="24" viewBox="0 0 24 24" fill="none" xmlns="http://www.w3.org/2000/svg">
<path d="M14.3498 2H9.64976C8.60976 2 7.75977 2.84 7.75977 3.88V4.82C7.75977 5.86 8.59977 6.7 9.63976 6.7H14.3498C15.3898 6.7 16.2298 5.86 16.2298 4.82V3.88C16.2398 2.84 15.3898 2 14.3498 2Z" fill="white"/>
<path d="M17.241 4.81949C17.241 6.40949 15.9409 7.70949 14.3509 7.70949H9.65102C8.06102 7.70949 6.76101 6.40949 6.76101 4.81949C6.76101 4.25949 6.16101 3.90949 5.66102 4.16949C4.25102 4.91949 3.29102 6.40949 3.29102 8.11949V17.5295C3.29102 19.9895 5.30102 21.9995 7.76102 21.9995H16.2409C18.7009 21.9995 20.7109 19.9895 20.7109 17.5295V8.11949C20.7109 6.40949 19.7509 4.91949 18.3409 4.16949C17.841 3.90949 17.241 4.25949 17.241 4.81949ZM15.3409 12.7295L11.341 16.7295C11.191 16.8795 11.001 16.9495 10.811 16.9495C10.621 16.9495 10.431 16.8795 10.281 16.7295L8.78102 15.2295C8.49101 14.9395 8.49101 14.4595 8.78102 14.1695C9.07101 13.8795 9.55101 13.8795 9.84101 14.1695L10.811 15.1395L14.281 11.6695C14.571 11.3795 15.051 11.3795 15.3409 11.6695C15.631 11.9595 15.631 12.4395 15.3409 12.7295Z" fill="white"/>
</svg>
