<svg width="24" height="24" viewBox="0 0 24 24" fill="none" xmlns="http://www.w3.org/2000/svg">
<path fill-rule="evenodd" clip-rule="evenodd" d="M21.6003 6.29922C21.6003 4.90435 20.5426 3.75654 19.1854 3.6141C19.043 2.25696 17.8951 1.19922 16.5003 1.19922H14.7003C13.3054 1.19922 12.1576 2.25696 12.0151 3.6141C10.965 3.72431 10.0942 4.43645 9.75391 5.39922H13.2003C14.8571 5.39922 16.2003 6.74237 16.2003 8.39922V16.7992H18.9003C20.3914 16.7992 21.6003 15.5903 21.6003 14.0992V6.29922ZM14.7003 2.99922C14.2032 2.99922 13.8003 3.40217 13.8003 3.89922V4.19922H17.4003V3.89922C17.4003 3.40217 16.9973 2.99922 16.5003 2.99922H14.7003Z" fill="#0F172A"/>
<path fill-rule="evenodd" clip-rule="evenodd" d="M3.60039 7.19922C2.93765 7.19922 2.40039 7.73647 2.40039 8.39922V20.3992C2.40039 21.062 2.93765 21.5992 3.60039 21.5992H13.2004C13.8632 21.5992 14.4004 21.062 14.4004 20.3992V8.39922C14.4004 7.73648 13.8632 7.19922 13.2004 7.19922H3.60039ZM11.8492 12.1984C12.125 11.7849 12.0132 11.2261 11.5996 10.9504C11.186 10.6747 10.6273 10.7864 10.3515 11.2L7.36051 15.6866L6.33679 14.6629C5.98532 14.3114 5.41546 14.3114 5.06399 14.6629C4.71253 15.0143 4.71253 15.5841 5.06399 15.9356L6.86399 17.7356C7.05465 17.9263 7.32075 18.0214 7.58907 17.9948C7.85739 17.9683 8.09967 17.8228 8.24924 17.5984L11.8492 12.1984Z" fill="#0F172A"/>
</svg>
