<svg width="24" height="24" viewBox="0 0 24 24" fill="none" xmlns="http://www.w3.org/2000/svg">
<path d="M14.3498 2H9.64976C8.60976 2 7.75977 2.84 7.75977 3.88V4.82C7.75977 5.86 8.59977 6.7 9.63976 6.7H14.3498C15.3898 6.7 16.2298 5.86 16.2298 4.82V3.88C16.2398 2.84 15.3898 2 14.3498 2Z" fill="white"/>
<path d="M17.241 4.81949C17.241 6.40949 15.9409 7.70949 14.3509 7.70949H9.65102C8.06102 7.70949 6.76101 6.40949 6.76101 4.81949C6.76101 4.25949 6.16101 3.90949 5.66102 4.16949C4.25102 4.91949 3.29102 6.40949 3.29102 8.11949V17.5295C3.29102 19.9895 5.30102 21.9995 7.76102 21.9995H16.2409C18.7009 21.9995 20.7109 19.9895 20.7109 17.5295V8.11949C20.7109 6.40949 19.7509 4.91949 18.3409 4.16949C17.841 3.90949 17.241 4.25949 17.241 4.81949ZM12.381 16.9495H8.00102C7.59101 16.9495 7.25102 16.6095 7.25102 16.1995C7.25102 15.7895 7.59101 15.4495 8.00102 15.4495H12.381C12.7909 15.4495 13.131 15.7895 13.131 16.1995C13.131 16.6095 12.7909 16.9495 12.381 16.9495ZM15.001 12.9495H8.00102C7.59101 12.9495 7.25102 12.6095 7.25102 12.1995C7.25102 11.7895 7.59101 11.4495 8.00102 11.4495H15.001C15.411 11.4495 15.751 11.7895 15.751 12.1995C15.751 12.6095 15.411 12.9495 15.001 12.9495Z" fill="white"/>
</svg>
