<svg width="24" height="24" viewBox="0 0 24 24" fill="none" xmlns="http://www.w3.org/2000/svg">
<path fill-rule="evenodd" clip-rule="evenodd" d="M16.6641 3.81749C17.1392 3.86217 17.6124 3.91362 18.0836 3.97173C19.4326 4.13815 20.3996 5.29567 20.3996 6.61913V20.0992C20.3996 21.5903 19.1907 22.7992 17.6996 22.7992H6.29961C4.80844 22.7992 3.59961 21.5903 3.59961 20.0992V6.61913C3.59961 5.29567 4.56656 4.13815 5.91567 3.97173C6.3868 3.91363 6.85997 3.86217 7.3351 3.81749C7.76244 2.30642 9.15172 1.19922 10.7996 1.19922H13.1996C14.8474 1.19922 16.2368 2.30642 16.6641 3.81749ZM8.99961 4.79922C8.99961 3.8051 9.80549 2.99922 10.7996 2.99922H13.1996C14.1937 2.99922 14.9996 3.8051 14.9996 4.79922V5.39922H8.99961V4.79922Z" fill="#0F172A"/>
</svg>
