<svg width="24" height="24" viewBox="0 0 24 24" fill="none" xmlns="http://www.w3.org/2000/svg">
<path d="M14.3498 2H9.64976C8.60976 2 7.75977 2.84 7.75977 3.88V4.82C7.75977 5.86 8.59977 6.7 9.63976 6.7H14.3498C15.3898 6.7 16.2298 5.86 16.2298 4.82V3.88C16.2398 2.84 15.3898 2 14.3498 2Z" fill="white"/>
<path d="M17.241 4.81949C17.241 6.40949 15.9409 7.70949 14.3509 7.70949H9.65102C8.06102 7.70949 6.76101 6.40949 6.76101 4.81949C6.76101 4.25949 6.16101 3.90949 5.66102 4.16949C4.25102 4.91949 3.29102 6.40949 3.29102 8.11949V17.5295C3.29102 19.9895 5.30102 21.9995 7.76102 21.9995H16.2409C18.7009 21.9995 20.7109 19.9895 20.7109 17.5295V8.11949C20.7109 6.40949 19.7509 4.91949 18.3409 4.16949C17.841 3.90949 17.241 4.25949 17.241 4.81949ZM14.5309 16.6895C14.3809 16.8395 14.191 16.9095 14.001 16.9095C13.8109 16.9095 13.621 16.8395 13.471 16.6895L12.021 15.2395L10.531 16.7295C10.381 16.8795 10.191 16.9495 10.001 16.9495C9.81101 16.9495 9.62102 16.8795 9.47102 16.7295C9.18101 16.4395 9.18101 15.9595 9.47102 15.6695L10.961 14.1795L9.51101 12.7295C9.22101 12.4395 9.22101 11.9595 9.51101 11.6695C9.80102 11.3795 10.281 11.3795 10.571 11.6695L12.021 13.1195L13.4209 11.7195C13.711 11.4295 14.191 11.4295 14.481 11.7195C14.7709 12.0095 14.7709 12.4895 14.481 12.7795L13.081 14.1795L14.5309 15.6295C14.821 15.9195 14.821 16.3895 14.5309 16.6895Z" fill="white"/>
</svg>
