<svg width="24" height="24" viewBox="0 0 24 24" fill="none" xmlns="http://www.w3.org/2000/svg">
<path d="M14.3498 2H9.64976C8.60976 2 7.75977 2.84 7.75977 3.88V4.82C7.75977 5.86 8.59977 6.7 9.63976 6.7H14.3498C15.3898 6.7 16.2298 5.86 16.2298 4.82V3.88C16.2398 2.84 15.3898 2 14.3498 2Z" fill="white"/>
<path d="M17.241 4.81949C17.241 6.40949 15.9409 7.70949 14.3509 7.70949H9.65102C8.06102 7.70949 6.76101 6.40949 6.76101 4.81949C6.76101 4.25949 6.16101 3.90949 5.66102 4.16949C4.25102 4.91949 3.29102 6.40949 3.29102 8.11949V17.5295C3.29102 19.9895 5.30102 21.9995 7.76102 21.9995H16.2409C18.7009 21.9995 20.7109 19.9895 20.7109 17.5295V8.11949C20.7109 6.40949 19.7509 4.91949 18.3409 4.16949C17.841 3.90949 17.241 4.25949 17.241 4.81949ZM15.531 17.5295C15.381 17.6795 15.1909 17.7495 15.001 17.7495C14.811 17.7495 14.6209 17.6795 14.4709 17.5295L9.75101 12.8095V13.9995C9.75101 14.4095 9.41102 14.7495 9.00101 14.7495C8.59101 14.7495 8.25101 14.4095 8.25101 13.9995V10.9995C8.25101 10.5895 8.59101 10.2495 9.00101 10.2495H12.001C12.411 10.2495 12.751 10.5895 12.751 10.9995C12.751 11.4095 12.411 11.7495 12.001 11.7495H10.811L15.531 16.4695C15.8209 16.7595 15.8209 17.2395 15.531 17.5295Z" fill="white"/>
</svg>
