<svg width="24" height="24" viewBox="0 0 24 24" fill="none" xmlns="http://www.w3.org/2000/svg">
<path d="M14.3498 2H9.64976C8.60976 2 7.75977 2.84 7.75977 3.88V4.82C7.75977 5.86 8.59977 6.7 9.63976 6.7H14.3498C15.3898 6.7 16.2298 5.86 16.2298 4.82V3.88C16.2398 2.84 15.3898 2 14.3498 2Z" fill="white"/>
<path d="M17.241 4.81949C17.241 6.40949 15.9409 7.70949 14.3509 7.70949H9.65102C8.06102 7.70949 6.76101 6.40949 6.76101 4.81949C6.76101 4.25949 6.16101 3.90949 5.66102 4.16949C4.25102 4.91949 3.29102 6.40949 3.29102 8.11949V17.5295C3.29102 19.9895 5.30102 21.9995 7.76102 21.9995H16.2409C18.7009 21.9995 20.7109 19.9895 20.7109 17.5295V8.11949C20.7109 6.40949 19.7509 4.91949 18.3409 4.16949C17.841 3.90949 17.241 4.25949 17.241 4.81949ZM15.751 16.9995C15.751 17.4095 15.411 17.7495 15.001 17.7495H12.001C11.591 17.7495 11.251 17.4095 11.251 16.9995C11.251 16.5895 11.591 16.2495 12.001 16.2495H13.191L8.47101 11.5295C8.18102 11.2395 8.18102 10.7595 8.47101 10.4695C8.76101 10.1795 9.24101 10.1795 9.53102 10.4695L14.251 15.1895V13.9995C14.251 13.5895 14.5909 13.2495 15.001 13.2495C15.411 13.2495 15.751 13.5895 15.751 13.9995V16.9995Z" fill="white"/>
</svg>
