<svg width="24" height="24" viewBox="0 0 24 24" fill="none" xmlns="http://www.w3.org/2000/svg">
<path fill-rule="evenodd" clip-rule="evenodd" d="M12.0004 21.5984C17.3024 21.5984 21.6004 17.3004 21.6004 11.9984C21.6004 6.6965 17.3024 2.39844 12.0004 2.39844C6.69845 2.39844 2.40039 6.6965 2.40039 11.9984C2.40039 17.3004 6.69845 21.5984 12.0004 21.5984ZM12.9004 5.99844C12.9004 5.50139 12.4974 5.09844 12.0004 5.09844C11.5033 5.09844 11.1004 5.50139 11.1004 5.99844V11.9984C11.1004 12.4955 11.5033 12.8984 12.0004 12.8984H16.8004C17.2974 12.8984 17.7004 12.4955 17.7004 11.9984C17.7004 11.5014 17.2974 11.0984 16.8004 11.0984H12.9004V5.99844Z" fill="#0F172A"/>
</svg>
