<svg width="24" height="24" viewBox="0 0 24 24" fill="none" xmlns="http://www.w3.org/2000/svg">
<path d="M14.7174 18.9991C15.1152 18.8441 15.5746 19.1831 15.4894 19.6014C14.9995 21.5015 13.8994 22.0014 12.5494 22.0014H11.4595C10.1095 22.0014 8.99945 21.5015 8.51945 19.5914C8.43721 19.1724 8.89447 18.8362 9.29209 18.9919C10.1468 19.3267 11.0603 19.5014 11.9995 19.5014C12.9432 19.5014 13.8613 19.3328 14.7174 18.9991Z" fill="white"/>
<path d="M15.4901 4.4C15.5785 4.82271 15.1125 5.1669 14.7107 5.00871C13.8729 4.6789 12.9589 4.5 12.0001 4.5C11.0425 4.5 10.1302 4.68112 9.29176 5.01127C8.89389 5.16793 8.43477 4.82901 8.52011 4.41C9.00011 2.5 10.1101 2 11.4601 2H12.5501C13.9001 2 15.0001 2.5 15.4901 4.4Z" fill="white"/>
<path d="M12 5.5C8.41 5.5 5.5 8.41 5.5 12C5.5 14.1 6.49 15.96 8.03 17.15H8.03999C9.14 18 10.51 18.5 12 18.5C13.51 18.5 14.89 17.99 15.99 17.13H16C17.52 15.94 18.4999 14.08 18.4999 12C18.4999 8.41 15.5899 5.5 12 5.5ZM13.93 14.38C13.78 14.53 13.59 14.6 13.3999 14.6C13.21 14.6 13.02 14.53 12.87 14.38L11.47 12.98C11.33 12.84 11.25 12.65 11.25 12.45V9.66C11.25 9.25 11.59 8.91 12 8.91C12.4099 8.91 12.75 9.25 12.75 9.66V12.14L13.93 13.32C14.22 13.61 14.22 14.09 13.93 14.38Z" fill="white"/>
</svg>
