<svg width="24" height="24" viewBox="0 0 24 24" fill="none" xmlns="http://www.w3.org/2000/svg">
<path d="M8.1093 11.8498C5.2893 12.0497 5.2993 16.1498 8.1093 16.3498H14.7793C15.5893 16.3598 16.3694 16.0498 16.9694 15.5098C18.9494 13.7798 17.8893 10.3098 15.2894 9.97976C14.3594 4.33976 6.2093 6.47976 8.1393 11.8498" fill="white"/>
<path d="M9.00001 22.75C4.73 22.75 1.25 19.27 1.25 15C1.25 14.59 1.59001 14.25 2 14.25C2.41 14.25 2.75 14.59 2.75 15C2.75 17.96 4.81 20.44 7.58 21.09L7.31 20.64C7.1 20.28 7.21 19.82 7.57 19.61C7.92001 19.4 8.39 19.51 8.6 19.87L9.65 21.62C9.79 21.85 9.79 22.14 9.66001 22.37C9.52 22.6 9.27001 22.75 9.00001 22.75Z" fill="white"/>
<path d="M22.0005 9.75C21.5904 9.75 21.2505 9.41 21.2505 9C21.2505 6.04 19.1904 3.56 16.4204 2.91L16.6904 3.36C16.9004 3.72 16.7904 4.18 16.4304 4.39C16.0805 4.6 15.6104 4.49 15.4004 4.13L14.3504 2.38C14.2104 2.15 14.2104 1.86 14.3405 1.63C14.4804 1.4 14.7305 1.25 15.0005 1.25C19.2704 1.25 22.7505 4.73 22.7505 9C22.7505 9.41 22.4105 9.75 22.0005 9.75Z" fill="white"/>
</svg>
