<svg width="24" height="24" viewBox="0 0 24 24" fill="none" xmlns="http://www.w3.org/2000/svg">
<path d="M19.799 12.0013H4.19908C3.97907 12.0013 3.77908 11.8513 3.70907 11.6413C0.959076 2.55125 14.8391 -0.938743 16.4492 8.82125C18.1091 9.03125 19.4191 9.97126 20.2291 11.2313C20.4391 11.5613 20.189 12.0013 19.799 12.0013Z" fill="white"/>
<path d="M19.9999 15.7773H4C3.59 15.7773 3.25 15.4374 3.25 15.0273C3.25 14.6174 3.59 14.2773 4 14.2773H19.9999C20.41 14.2773 20.7499 14.6174 20.7499 15.0273C20.7499 15.4374 20.41 15.7773 19.9999 15.7773Z" fill="white"/>
<path d="M18 18.7773H6C5.59 18.7773 5.25 18.4374 5.25 18.0273C5.25 17.6174 5.59 17.2773 6 17.2773H18C18.41 17.2773 18.75 17.6174 18.75 18.0273C18.75 18.4374 18.41 18.7773 18 18.7773Z" fill="white"/>
<path d="M15 21.7773H9C8.59 21.7773 8.25 21.4374 8.25 21.0273C8.25 20.6174 8.59 20.2773 9 20.2773H15C15.41 20.2773 15.75 20.6174 15.75 21.0273C15.75 21.4374 15.41 21.7773 15 21.7773Z" fill="white"/>
</svg>
