<svg width="24" height="24" viewBox="0 0 24 24" fill="none" xmlns="http://www.w3.org/2000/svg">
<path d="M12 11.5312C9.23999 11.5312 7 13.7712 7 16.5312C7 17.2712 7.16 17.9712 7.46 18.5912C7.54 18.7712 7.63 18.9413 7.73 19.1012C8.59 20.5512 10.18 21.5312 12 21.5312C13.8199 21.5312 15.4099 20.5512 16.27 19.1012C16.3699 18.9413 16.4599 18.7712 16.54 18.5912C16.84 17.9712 16.9999 17.2712 16.9999 16.5312C16.9999 13.7712 14.76 11.5312 12 11.5312ZM13.5 18.1412C13.35 18.2912 13.1599 18.3612 12.97 18.3612C12.78 18.3612 12.5899 18.2912 12.4399 18.1412L11.91 17.6112L11.36 18.1613C11.21 18.3113 11.02 18.3812 10.83 18.3812C10.64 18.3812 10.45 18.3113 10.3 18.1613C10.01 17.8712 10.01 17.3912 10.3 17.1012L10.85 16.5512L10.32 16.0212C10.03 15.7313 10.03 15.2513 10.32 14.9612C10.61 14.6712 11.09 14.6712 11.38 14.9612L11.91 15.4913L12.4099 14.9912C12.7 14.7012 13.18 14.7012 13.47 14.9912C13.7599 15.2813 13.7599 15.7613 13.47 16.0512L12.97 16.5512L13.5 17.0813C13.7899 17.3813 13.7899 17.8512 13.5 18.1412Z" fill="white"/>
<path d="M20.2012 17.2909C19.8412 17.611 19.4512 17.881 19.0312 18.1009C18.6712 18.2809 18.3112 17.9309 18.3712 17.5309C18.4113 17.2409 18.4312 16.9409 18.4312 16.6309C18.4312 13.051 15.5113 10.1309 11.9313 10.1309C8.3513 10.1309 5.43128 13.051 5.43128 16.6309C5.43128 17.0909 5.48129 17.5309 5.57129 17.9609C5.64128 18.3109 5.37128 18.661 5.02129 18.571C1.07129 17.611 1.05129 11.5309 5.47129 11.2109H5.52128C2.31128 2.29095 15.8512 -1.27905 17.4013 8.10094C21.7312 8.65095 23.4813 14.4209 20.2012 17.2909Z" fill="white"/>
</svg>
