<svg width="24" height="24" viewBox="0 0 24 24" fill="none" xmlns="http://www.w3.org/2000/svg">
<path d="M20.1701 17.567C19.64 18.057 19.0301 18.427 18.3701 18.677C17.7101 18.927 17 18.447 17 17.737V16.417C17 14.467 15.42 12.887 13.47 12.887H10.53C8.58001 12.887 7 14.467 7 16.417V17.997C7 18.547 6.55 18.997 6.00001 18.997H5.55001C3.1 18.627 2 16.637 2 14.857C2 13.177 2.98 11.317 5.11 10.797C4.52 8.467 5.02 6.277 6.54001 4.687C8.27 2.87701 11.03 2.15701 13.41 2.89701C15.6 3.56701 17.1401 5.36701 17.69 7.867C19.6001 8.29701 21.1301 9.73701 21.74 11.737C22.4 13.907 21.8 16.137 20.1701 17.567Z" fill="white"/>
<path d="M13.47 14.3906H10.53C9.26 14.3906 8.5 15.1506 8.5 16.4207V19.3607C8.5 20.6306 9.26 21.3906 10.53 21.3906H13.47C14.74 21.3906 15.4999 20.6306 15.4999 19.3607V16.4207C15.4999 15.1506 14.74 14.3906 13.47 14.3906ZM10.5 17.6306C10.08 17.6306 9.74999 17.2907 9.74999 16.8806C9.74999 16.4706 10.08 16.1306 10.5 16.1306C10.92 16.1306 11.25 16.4706 11.25 16.8806C11.25 17.2907 10.91 17.6306 10.5 17.6306ZM12 19.8806C11.59 19.8806 11.25 19.5407 11.25 19.1306C11.25 18.7206 11.59 18.3806 12 18.3806C12.4099 18.3806 12.75 18.7206 12.75 19.1306C12.75 19.5407 12.42 19.8806 12 19.8806ZM13.51 17.6306C13.09 17.6306 12.76 17.2907 12.76 16.8806C12.76 16.4706 13.09 16.1306 13.51 16.1306C13.93 16.1306 14.26 16.4706 14.26 16.8806C14.26 17.2907 13.92 17.6306 13.51 17.6306Z" fill="white"/>
</svg>
