<svg width="24" height="24" viewBox="0 0 24 24" fill="none" xmlns="http://www.w3.org/2000/svg">
<path d="M12 11.5312C9.23999 11.5312 7 13.7712 7 16.5312C7 17.2712 7.16 17.9712 7.46 18.5912C7.54 18.7712 7.63 18.9413 7.73 19.1012C8.59 20.5512 10.18 21.5312 12 21.5312C13.8199 21.5312 15.4099 20.5512 16.27 19.1012C16.3699 18.9413 16.4599 18.7712 16.54 18.5912C16.84 17.9712 16.9999 17.2712 16.9999 16.5312C16.9999 13.7712 14.76 11.5312 12 11.5312ZM14.07 16.1012L11.94 18.0713C11.8 18.2012 11.61 18.2712 11.43 18.2712C11.24 18.2712 11.05 18.2012 10.9 18.0512L9.91 17.0612C9.62 16.7712 9.62 16.2912 9.91 16.0013C10.2 15.7112 10.68 15.7112 10.97 16.0013L11.45 16.4813L13.05 15.0012C13.36 14.7212 13.83 14.7413 14.11 15.0413C14.3899 15.3413 14.37 15.8112 14.07 16.1012Z" fill="white"/>
<path d="M20.2012 17.0675C19.8412 17.3876 19.4512 17.6576 19.0312 17.8775C18.6712 18.0575 18.3112 17.7075 18.3712 17.3075C18.4113 17.0175 18.4312 16.7175 18.4312 16.4075C18.4312 12.8276 15.5113 9.90758 11.9313 9.90758C8.3513 9.90758 5.43128 12.8276 5.43128 16.4075C5.43128 16.8675 5.48129 17.3075 5.57129 17.7375C5.64128 18.0875 5.37128 18.4376 5.02129 18.3476C1.07129 17.3876 1.05129 11.3076 5.47129 10.9975H5.52128C2.31128 2.06759 15.8512 -1.50241 17.4013 7.87759C21.7312 8.42759 23.4813 14.1975 20.2012 17.0675Z" fill="white"/>
</svg>
