<svg width="24" height="24" viewBox="0 0 24 24" fill="none" xmlns="http://www.w3.org/2000/svg">
<path d="M21.2698 8.75782C21.2698 9.77782 20.7997 10.6978 20.0398 11.2978C19.4898 11.7478 18.7798 12.0179 18.0097 12.0179C16.2198 12.0179 14.7598 10.5578 14.7598 8.76782C14.7598 7.87781 15.1198 7.06781 15.7198 6.47782V6.46781C16.3098 5.87782 17.1198 5.50781 18.0097 5.50781C19.8097 5.50781 21.2698 6.96782 21.2698 8.75782Z" fill="white"/>
<path d="M20.1798 18.7289C19.1298 19.6889 17.7798 20.2188 16.3498 20.2188H5.96977C3.22977 20.0189 2.00977 17.9088 2.00977 16.0289C2.00977 14.3489 2.97977 12.4889 5.10977 11.9689C4.17977 8.38889 5.95977 5.88888 8.03977 4.69887C10.0998 3.52888 12.9998 3.33887 15.1798 4.94887C14.9898 5.08887 14.8198 5.23887 14.6498 5.40887L14.2198 5.85888V5.91888C13.5998 6.72888 13.2598 7.71888 13.2598 8.75888C13.2598 11.3789 15.3998 13.5089 18.0198 13.5089C19.0998 13.5089 20.1498 13.1388 20.9698 12.4688C21.1198 12.3488 21.2698 12.2189 21.3998 12.0788C22.3898 14.1588 22.2498 16.9188 20.1798 18.7289Z" fill="white"/>
</svg>
