<svg width="24" height="24" viewBox="0 0 24 24" fill="none" xmlns="http://www.w3.org/2000/svg">
<path d="M13.47 14.3906H10.53C9.26 14.3906 8.5 15.1506 8.5 16.4207V19.3607C8.5 20.6306 9.26 21.3906 10.53 21.3906H13.47C14.74 21.3906 15.4999 20.6306 15.4999 19.3607V16.4207C15.4999 15.1506 14.74 14.3906 13.47 14.3906ZM14.41 18.3206C14.31 18.4206 14.16 18.4907 13.9999 18.5006H12.5899L12.6 19.8906C12.5899 20.0606 12.5299 20.2007 12.4099 20.3207C12.31 20.4206 12.16 20.4906 12 20.4906C11.67 20.4906 11.4 20.2206 11.4 19.8906V18.4907L10 18.5006C9.67 18.5006 9.4 18.2207 9.4 17.8907C9.4 17.5607 9.67 17.2907 10 17.2907L11.4 17.3006V15.9006C11.4 15.5706 11.67 15.2906 12 15.2906C12.33 15.2906 12.6 15.5706 12.6 15.9006L12.5899 17.2907H13.9999C14.3299 17.2907 14.5999 17.5607 14.5999 17.8907C14.59 18.0606 14.52 18.2006 14.41 18.3206Z" fill="white"/>
<path d="M20.1701 17.567C19.64 18.057 19.0301 18.427 18.3701 18.677C17.7101 18.927 17 18.447 17 17.737V16.417C17 14.467 15.42 12.887 13.47 12.887H10.53C8.58001 12.887 7 14.467 7 16.417V17.997C7 18.547 6.55 18.997 6.00001 18.997H5.55001C3.1 18.627 2 16.637 2 14.857C2 13.177 2.98 11.317 5.11 10.797C4.52 8.467 5.02 6.277 6.54001 4.687C8.27 2.87701 11.03 2.15701 13.41 2.89701C15.6 3.56701 17.1401 5.36701 17.69 7.867C19.6001 8.29701 21.1301 9.73701 21.74 11.737C22.4 13.907 21.8 16.137 20.1701 17.567Z" fill="white"/>
</svg>
