<svg width="24" height="24" viewBox="0 0 24 24" fill="none" xmlns="http://www.w3.org/2000/svg">
<path d="M20.1701 17.567C19.64 18.057 19.0301 18.427 18.3701 18.677C17.7101 18.927 17 18.447 17 17.737V16.417C17 14.467 15.42 12.887 13.47 12.887H10.53C8.58001 12.887 7 14.467 7 16.417V17.997C7 18.547 6.55 18.997 6.00001 18.997H5.55001C3.1 18.627 2 16.637 2 14.857C2 13.177 2.98 11.317 5.11 10.797C4.52 8.467 5.02 6.277 6.54001 4.687C8.27 2.87701 11.03 2.15701 13.41 2.89701C15.6 3.56701 17.1401 5.36701 17.69 7.867C19.6001 8.29701 21.1301 9.73701 21.74 11.737C22.4 13.907 21.8 16.137 20.1701 17.567Z" fill="white"/>
<path d="M13.47 14.3906H10.53C9.26 14.3906 8.5 15.1506 8.5 16.4207V19.3607C8.5 20.6306 9.26 21.3906 10.53 21.3906H13.47C14.74 21.3906 15.4999 20.6306 15.4999 19.3607V16.4207C15.4999 15.1506 14.74 14.3906 13.47 14.3906ZM11.71 18.8406L10.47 20.0706C10.38 20.1606 10.26 20.2106 10.15 20.2106C10.02 20.2106 9.91 20.1606 9.82 20.0706C9.64 19.8906 9.64 19.6007 9.82 19.4207L11.05 18.1806C11.24 18.0006 11.53 18.0006 11.71 18.1806C11.89 18.3606 11.89 18.6606 11.71 18.8406ZM11.71 16.3607L10.47 17.6006C10.38 17.6906 10.26 17.7407 10.15 17.7407C10.02 17.7407 9.91 17.6906 9.82 17.6006C9.64 17.4206 9.64 17.1206 9.82 16.9406L11.05 15.7106C11.24 15.5306 11.53 15.5306 11.71 15.7106C11.89 15.8906 11.89 16.1807 11.71 16.3607ZM14.1799 18.8406L12.9499 20.0706C12.85 20.1606 12.7399 20.2106 12.6199 20.2106C12.4999 20.2106 12.3799 20.1606 12.2899 20.0706C12.1099 19.8906 12.1099 19.6007 12.2899 19.4207L13.53 18.1806C13.71 18.0006 13.9999 18.0006 14.1799 18.1806C14.3599 18.3606 14.3599 18.6606 14.1799 18.8406ZM14.1799 16.3607L12.9499 17.6006C12.85 17.6906 12.7399 17.7407 12.6199 17.7407C12.4999 17.7407 12.3799 17.6906 12.2899 17.6006C12.1099 17.4206 12.1099 17.1206 12.2899 16.9406L13.53 15.7106C13.71 15.5306 13.9999 15.5306 14.1799 15.7106C14.3599 15.8906 14.3599 16.1807 14.1799 16.3607Z" fill="white"/>
</svg>
