<svg width="24" height="24" viewBox="0 0 24 24" fill="none" xmlns="http://www.w3.org/2000/svg">
<path fill-rule="evenodd" clip-rule="evenodd" d="M6.59922 20.4016C3.61688 20.4016 1.19922 17.9839 1.19922 15.0016C1.19922 12.6236 2.73623 10.6047 4.87097 9.88404C4.82377 9.59688 4.79922 9.30209 4.79922 9.00156C4.79922 6.01923 7.21688 3.60156 10.1992 3.60156C12.1677 3.60156 13.8902 4.65481 14.8337 6.22852C15.2619 6.08142 15.7213 6.00156 16.1992 6.00156C18.5188 6.00156 20.3992 7.88196 20.3992 10.2016C20.3992 10.6016 20.3433 10.9885 20.2389 11.355C21.7616 12.1597 22.7992 13.7594 22.7992 15.6016C22.7992 18.2525 20.6501 20.4016 17.9992 20.4016H6.59922ZM12.8992 9.30156C12.8992 8.80451 12.4963 8.40156 11.9992 8.40156C11.5022 8.40156 11.0992 8.80451 11.0992 9.30156V14.8097L8.75873 12.2892C8.42051 11.9249 7.85105 11.9038 7.48681 12.242C7.12257 12.5803 7.10148 13.1497 7.43971 13.5139L11.3397 17.7139C11.51 17.8974 11.749 18.0016 11.9992 18.0016C12.2495 18.0016 12.4885 17.8974 12.6587 17.7139L16.5587 13.5139C16.8969 13.1497 16.8759 12.5803 16.5116 12.242C16.1474 11.9038 15.578 11.9249 15.2397 12.2892L12.8992 14.8097V9.30156Z" fill="#0F172A"/>
</svg>
