<svg width="24" height="24" viewBox="0 0 24 24" fill="none" xmlns="http://www.w3.org/2000/svg">
<path fill-rule="evenodd" clip-rule="evenodd" d="M6.59922 20.4016C3.61688 20.4016 1.19922 17.9839 1.19922 15.0016C1.19922 12.6236 2.73623 10.6047 4.87097 9.88404C4.82377 9.59688 4.79922 9.30209 4.79922 9.00156C4.79922 6.01923 7.21688 3.60156 10.1992 3.60156C12.1677 3.60156 13.8902 4.65481 14.8337 6.22852C15.2619 6.08142 15.7213 6.00156 16.1992 6.00156C18.5188 6.00156 20.3992 7.88196 20.3992 10.2016C20.3992 10.6016 20.3433 10.9885 20.2389 11.355C21.7616 12.1597 22.7992 13.7594 22.7992 15.6016C22.7992 18.2525 20.6501 20.4016 17.9992 20.4016H6.59922ZM11.0992 17.1016C11.0992 17.5986 11.5022 18.0016 11.9992 18.0016C12.4963 18.0016 12.8992 17.5986 12.8992 17.1016V11.5934L15.2397 14.1139C15.578 14.4782 16.1474 14.4992 16.5116 14.1611C16.8759 13.8228 16.8969 13.2534 16.5587 12.8892L12.6587 8.68915C12.4885 8.50577 12.2495 8.40156 11.9992 8.40156C11.749 8.40156 11.51 8.50577 11.3397 8.68915L7.43971 12.8892C7.10148 13.2534 7.12257 13.8228 7.48681 14.1611C7.85105 14.4992 8.42051 14.4782 8.75874 14.1139L11.0992 11.5934V17.1016Z" fill="#0F172A"/>
</svg>
