<svg width="24" height="24" viewBox="0 0 24 24" fill="none" xmlns="http://www.w3.org/2000/svg">
<path d="M1.19922 15.0016C1.19922 17.9839 3.61688 20.4016 6.59922 20.4016H17.9992C20.6501 20.4016 22.7992 18.2525 22.7992 15.6016C22.7992 13.7594 21.7616 12.1597 20.2389 11.355C20.3433 10.9885 20.3992 10.6016 20.3992 10.2016C20.3992 7.88196 18.5188 6.00156 16.1992 6.00156C15.7213 6.00156 15.2619 6.08142 14.8337 6.22852C13.8902 4.65481 12.1677 3.60156 10.1992 3.60156C7.21688 3.60156 4.79922 6.01923 4.79922 9.00156C4.79922 9.30209 4.82377 9.59688 4.87097 9.88404C2.73623 10.6047 1.19922 12.6236 1.19922 15.0016Z" fill="#0F172A"/>
</svg>
