<svg width="24" height="24" viewBox="0 0 24 24" fill="none" xmlns="http://www.w3.org/2000/svg">
<path fill-rule="evenodd" clip-rule="evenodd" d="M7.53679 6.2636C7.88825 6.61508 7.88825 7.18492 7.53679 7.53639L3.07318 12L7.53679 16.4636C7.88825 16.8151 7.88825 17.385 7.53679 17.7365C7.18532 18.0878 6.61546 18.0878 6.26399 17.7365L1.16399 12.6365C0.812523 12.285 0.812523 11.7151 1.16399 11.3636L6.26399 6.2636C6.61546 5.91213 7.18532 5.91213 7.53679 6.2636ZM16.464 6.2636C16.8155 5.91213 17.3853 5.91213 17.7368 6.2636L22.8368 11.3636C23.1882 11.7151 23.1882 12.285 22.8368 12.6365L17.7368 17.7365C17.3853 18.0878 16.8155 18.0878 16.464 17.7365C16.1126 17.385 16.1126 16.8151 16.464 16.4636L20.9276 12L16.464 7.53639C16.1126 7.18492 16.1126 6.61508 16.464 6.2636Z" fill="#0F172A"/>
<path fill-rule="evenodd" clip-rule="evenodd" d="M13.6526 2.41167C14.1425 2.49611 14.4712 2.96167 14.3867 3.45149L11.3867 20.8516C11.3022 21.3413 10.8367 21.67 10.3468 21.5855C9.85702 21.501 9.5284 21.0355 9.61284 20.5457L12.6128 3.14566C12.6973 2.65583 13.1628 2.32721 13.6526 2.41167Z" fill="#0F172A"/>
</svg>
