<svg width="24" height="24" viewBox="0 0 24 24" fill="none" xmlns="http://www.w3.org/2000/svg">
<path d="M12 2C6.48001 2 2 6.48 2 12C2 17.52 6.48001 22 12 22C17.52 22 22.0001 17.52 22.0001 12C22.0001 6.48 17.52 2 12 2ZM8.53 13.47C8.82001 13.76 8.82001 14.24 8.53 14.53C8.38 14.68 8.19001 14.75 8 14.75C7.81 14.75 7.62001 14.68 7.47001 14.53L5.47 12.53C5.18 12.24 5.18 11.76 5.47 11.47L7.47001 9.47C7.76 9.18 8.24 9.18 8.53 9.47C8.82001 9.76 8.82001 10.24 8.53 10.53L7.06 12L8.53 13.47ZM13.6901 9.96L11.69 14.63C11.57 14.91 11.29 15.08 11 15.08C10.9 15.08 10.8 15.06 10.71 15.02C10.33 14.86 10.15 14.42 10.32 14.03L12.32 9.36C12.48 8.97999 12.92 8.8 13.3001 8.97C13.68 9.14 13.85 9.58 13.6901 9.96ZM18.53 12.53L16.53 14.53C16.38 14.68 16.19 14.75 16.0001 14.75C15.81 14.75 15.62 14.68 15.47 14.53C15.18 14.24 15.18 13.76 15.47 13.47L16.94 12L15.47 10.53C15.18 10.24 15.18 9.76 15.47 9.47C15.7601 9.18 16.2401 9.18 16.53 9.47L18.53 11.47C18.8201 11.76 18.8201 12.24 18.53 12.53Z" fill="white"/>
</svg>
