<svg width="24" height="24" viewBox="0 0 24 24" fill="none" xmlns="http://www.w3.org/2000/svg">
<path fill-rule="evenodd" clip-rule="evenodd" d="M5.10039 2.39844C3.60922 2.39844 2.40039 3.60727 2.40039 5.09844V18.8984C2.40039 20.3896 3.60922 21.5984 5.10039 21.5984H18.9004C20.3915 21.5984 21.6004 20.3896 21.6004 18.8984V5.09844C21.6004 3.60727 20.3915 2.39844 18.9004 2.39844H5.10039ZM9.93679 9.93483C10.2883 9.58337 10.2883 9.01351 9.93679 8.66204C9.58532 8.31057 9.01546 8.31057 8.66399 8.66204L5.96399 11.362C5.61253 11.7135 5.61253 12.2833 5.96399 12.6348L8.66399 15.3348C9.01546 15.6863 9.58532 15.6863 9.93679 15.3348C10.2883 14.9833 10.2883 14.4136 9.93679 14.0621L7.87318 11.9984L9.93679 9.93483ZM15.3368 8.66204C14.9853 8.31057 14.4155 8.31057 14.064 8.66204C13.7126 9.01351 13.7126 9.58337 14.064 9.93483L16.1276 11.9984L14.064 14.0621C13.7126 14.4136 13.7126 14.9833 14.064 15.3348C14.4155 15.6863 14.9853 15.6863 15.3368 15.3348L18.0368 12.6348C18.3882 12.2833 18.3882 11.7135 18.0368 11.362L15.3368 8.66204Z" fill="#0F172A"/>
</svg>
