<svg width="24" height="24" viewBox="0 0 24 24" fill="none" xmlns="http://www.w3.org/2000/svg">
<path d="M6 5.1211C5.59 5.1211 5.25 4.78109 5.25 4.3711V2.62109C5.25 2.2111 5.59 1.87109 6 1.87109C6.41 1.87109 6.75 2.2111 6.75 2.62109V4.3711C6.75 4.7911 6.41 5.1211 6 5.1211Z" fill="white"/>
<path d="M10 5.1211C9.59 5.1211 9.25 4.78109 9.25 4.3711V2.62109C9.25 2.2111 9.59 1.87109 10 1.87109C10.41 1.87109 10.75 2.2111 10.75 2.62109V4.3711C10.75 4.7911 10.41 5.1211 10 5.1211Z" fill="white"/>
<path d="M14 5.1211C13.59 5.1211 13.25 4.78109 13.25 4.3711V2.62109C13.25 2.2111 13.59 1.87109 14 1.87109C14.41 1.87109 14.75 2.2111 14.75 2.62109V4.3711C14.75 4.7911 14.41 5.1211 14 5.1211Z" fill="white"/>
<path d="M22.2499 13.2479C22.2499 10.6279 20.22 8.50781 17.6599 8.28782C16.92 7.07782 15.6 6.25781 14.08 6.25781H6.71C4.39 6.25781 2.5 8.14781 2.5 10.4678V10.9978H18.2899V10.4678C18.2899 10.2778 18.2599 10.0879 18.2299 9.90782C19.68 10.3378 20.7499 11.6578 20.7499 13.2479C20.7499 14.8178 19.71 16.1279 18.2899 16.5678V11.9978H2.5V17.7878C2.5 20.1078 4.39 21.9978 6.71 21.9978H14.08C16.2799 21.9978 18.07 20.2979 18.25 18.1379C20.53 17.6778 22.2499 15.6578 22.2499 13.2479Z" fill="white"/>
</svg>
