<svg width="24" height="24" viewBox="0 0 24 24" fill="none" xmlns="http://www.w3.org/2000/svg">
<path fill-rule="evenodd" clip-rule="evenodd" d="M10.0063 2.16387C10.1185 1.60297 10.611 1.19922 11.183 1.19922H12.8155C13.3875 1.19922 13.88 1.60297 13.9922 2.16387L14.3456 3.93132C14.9419 4.10443 15.5108 4.34185 16.0443 4.63557L17.5447 3.63539C18.0206 3.31808 18.6543 3.38084 19.0588 3.78531L20.2131 4.93964C20.6176 5.34413 20.6804 5.97787 20.3631 6.45381L19.3629 7.95411C19.6565 8.48765 19.894 9.05656 20.0671 9.6528L21.8345 10.0063C22.3954 10.1185 22.7992 10.611 22.7992 11.183V12.8155C22.7992 13.3875 22.3954 13.88 21.8345 13.9922L20.0671 14.3456C19.894 14.9419 19.6567 15.5107 19.3629 16.0442L20.3632 17.5447C20.6805 18.0206 20.6177 18.6543 20.2132 19.0588L19.0589 20.2131C18.6544 20.6176 18.0207 20.6804 17.5448 20.3631L16.0444 19.3628C15.5109 19.6565 14.9419 19.894 14.3457 20.0671L13.9922 21.8345C13.88 22.3954 13.3875 22.7992 12.8155 22.7992H11.183C10.611 22.7992 10.1185 22.3954 10.0063 21.8345L9.6528 20.0671C9.05656 19.894 8.48766 19.6565 7.95411 19.3629L6.4538 20.3631C5.97786 20.6804 5.34412 20.6176 4.93963 20.2131L3.7853 19.0588C3.38083 18.6543 3.31807 18.0206 3.63537 17.5447L4.63557 16.0443C4.34185 15.5108 4.10443 14.9419 3.93132 14.3457L2.16387 13.9922C1.60297 13.88 1.19922 13.3875 1.19922 12.8155V11.183C1.19922 10.611 1.60297 10.1185 2.16387 10.0063L3.93132 9.6528C4.10444 9.05651 4.34189 8.48758 4.63563 7.954L3.63551 6.4538C3.3182 5.97786 3.38096 5.34412 3.78543 4.93963L4.93976 3.7853C5.34425 3.38083 5.97799 3.31807 6.45394 3.63537L7.95417 4.63553C8.48769 4.34183 9.05658 4.10443 9.6528 3.93132L10.0063 2.16387ZM15.5992 11.9992C15.5992 13.9875 13.9875 15.5992 11.9992 15.5992C10.011 15.5992 8.39922 13.9875 8.39922 11.9992C8.39922 10.011 10.011 8.39922 11.9992 8.39922C13.9875 8.39922 15.5992 10.011 15.5992 11.9992Z" fill="#0F172A"/>
</svg>
