<svg width="24" height="24" viewBox="0 0 24 24" fill="none" xmlns="http://www.w3.org/2000/svg">
<path fill-rule="evenodd" clip-rule="evenodd" d="M9.40667 2.16387C9.51885 1.60297 10.0113 1.19922 10.5834 1.19922H13.4158C13.9879 1.19922 14.4804 1.60297 14.5926 2.16387L14.9892 4.14677C15.8343 4.46871 16.6141 4.9232 17.3031 5.48482L19.2211 4.836C19.7629 4.6527 20.3588 4.87733 20.6448 5.37271L22.061 7.8257C22.3471 8.32109 22.2436 8.94948 21.8139 9.32708L20.2939 10.663C20.3635 11.0981 20.3996 11.5445 20.3996 11.9992C20.3996 12.454 20.3635 12.9003 20.2939 13.3354L21.8139 14.6714C22.2436 15.0489 22.3471 15.6773 22.061 16.1727L20.6448 18.6257C20.3588 19.1211 19.7629 19.3457 19.2211 19.1624L17.3031 18.5137C16.6141 19.0753 15.8343 19.5297 14.9892 19.8517L14.5926 21.8345C14.4804 22.3954 13.9879 22.7992 13.4158 22.7992H10.5834C10.0113 22.7992 9.51885 22.3954 9.40667 21.8345L9.01009 19.8517C8.16492 19.5297 7.38512 19.0753 6.69612 18.5137L4.77817 19.1625C4.23632 19.3457 3.64041 19.1211 3.35441 18.6257L1.93817 16.1727C1.65216 15.6773 1.75556 15.049 2.18523 14.6714L3.7053 13.3354C3.63575 12.9003 3.5996 12.454 3.5996 11.9992C3.5996 11.5445 3.63575 11.0981 3.7053 10.663L2.18523 9.32711C1.75557 8.9495 1.65216 8.32111 1.93817 7.82573L3.35441 5.37273C3.64041 4.87735 4.23632 4.65271 4.77817 4.83601L6.69611 5.48483C7.38511 4.9232 8.16491 4.46873 9.01009 4.14677L9.40667 2.16387ZM11.9996 15.5992C13.9879 15.5992 15.5996 13.9875 15.5996 11.9992C15.5996 10.011 13.9879 8.39922 11.9996 8.39922C10.0114 8.39922 8.3996 10.011 8.3996 11.9992C8.3996 13.9875 10.0114 15.5992 11.9996 15.5992Z" fill="#0F172A"/>
</svg>
