<svg width="24" height="24" viewBox="0 0 24 24" fill="none" xmlns="http://www.w3.org/2000/svg">
<path d="M15.6289 11.0992C16.1932 11.0992 16.6215 10.5798 16.3936 10.0636C15.6493 8.37666 13.9621 7.19922 11.9999 7.19922C11.8244 7.19922 11.6511 7.20864 11.4805 7.22699C10.9191 7.28741 10.6829 7.91807 10.9653 8.40713L12.2597 10.6492C12.4205 10.9277 12.7176 11.0992 13.0391 11.0992H15.6289Z" fill="#0F172A"/>
<path d="M9.40659 9.30796C9.12415 8.81876 8.45954 8.70788 8.12555 9.16345C7.54315 9.95785 7.19922 10.938 7.19922 11.9985C7.19922 13.0591 7.54316 14.0393 8.12559 14.8337C8.45959 15.2893 9.1242 15.1784 9.40664 14.6892L10.7002 12.4487C10.861 12.1701 10.861 11.8271 10.7002 11.5486L9.40659 9.30796Z" fill="#0F172A"/>
<path d="M10.9653 15.5905C10.6829 16.0796 10.9191 16.7102 11.4805 16.7707C11.6511 16.7891 11.8244 16.7984 11.9998 16.7984C13.9621 16.7984 15.6493 15.621 16.3935 13.934C16.6214 13.4178 16.1931 12.8984 15.6289 12.8984H13.0392C12.7177 12.8984 12.4206 13.0699 12.2598 13.3484L10.9653 15.5905Z" fill="#0F172A"/>
<path fill-rule="evenodd" clip-rule="evenodd" d="M16.9546 5.21591L17.7285 3.87555C17.977 3.44509 17.8295 2.89465 17.3991 2.64613C16.9687 2.3976 16.4182 2.54509 16.1697 2.97555L15.3965 4.3146C14.6191 3.97034 13.7794 3.74063 12.8992 3.64687V2.09922C12.8992 1.60217 12.4963 1.19922 11.9992 1.19922C11.5022 1.19922 11.0992 1.60217 11.0992 2.09922V3.64687C10.219 3.74063 9.37942 3.97034 8.60185 4.31461L7.82876 2.97558C7.58024 2.54511 7.0298 2.39762 6.59934 2.64615C6.16889 2.89469 6.0214 3.44511 6.26993 3.87558L7.04377 5.21592C6.34463 5.72754 5.72753 6.34463 5.21592 7.04377L3.87533 6.26978C3.44486 6.02125 2.89442 6.16874 2.6459 6.59921C2.39737 7.02967 2.54486 7.5801 2.97533 7.82863L4.3146 8.60186C3.97034 9.37942 3.74063 10.219 3.64687 11.0992H2.09922C1.60217 11.0992 1.19922 11.5022 1.19922 11.9992C1.19922 12.4963 1.60217 12.8992 2.09922 12.8992H3.64687C3.74063 13.7794 3.97033 14.6191 4.31459 15.3965L2.97533 16.1698C2.54486 16.4183 2.39737 16.9688 2.6459 17.3992C2.89442 17.8297 3.44486 17.9771 3.87533 17.7286L5.21589 16.9546C5.72748 17.6537 6.34452 18.2708 7.04359 18.7823L6.26967 20.1229C6.02114 20.5533 6.16863 21.1037 6.5991 21.3523C7.02955 21.6008 7.57999 21.4533 7.82851 21.0229L8.60166 19.6838C9.37927 20.0281 10.2189 20.2579 11.0992 20.3516V21.8992C11.0992 22.3963 11.5022 22.7992 11.9992 22.7992C12.4963 22.7992 12.8992 22.3963 12.8992 21.8992V20.3516C13.7795 20.2579 14.6192 20.0281 15.3968 19.6838L16.1699 21.0229C16.4185 21.4533 16.9689 21.6008 17.3993 21.3523C17.8298 21.1037 17.9773 20.5533 17.7287 20.1229L16.9549 18.7823C17.6539 18.2708 18.2709 17.6537 18.7825 16.9547L20.123 17.7286C20.5534 17.9771 21.1039 17.8297 21.3524 17.3992C21.6009 16.9688 21.4534 16.4183 21.023 16.1698L19.6838 15.3967C20.0281 14.6191 20.2579 13.7794 20.3516 12.8992H21.8992C22.3963 12.8992 22.7992 12.4963 22.7992 11.9992C22.7992 11.5022 22.3963 11.0992 21.8992 11.0992H20.3516C20.2579 10.219 20.0281 9.37935 19.6838 8.60177L21.023 7.82863C21.4534 7.5801 21.6009 7.02967 21.3524 6.59921C21.1039 6.16874 20.5534 6.02125 20.123 6.26978L18.7825 7.0437C18.2709 6.34458 17.6537 5.72751 16.9546 5.21591ZM11.9992 5.39922C10.8127 5.39922 9.69923 5.71235 8.73705 6.26046C8.72473 6.26839 8.71217 6.27606 8.69934 6.28346C8.68696 6.29061 8.67446 6.29744 8.66189 6.30394C7.68724 6.8763 6.87253 7.6917 6.301 8.6669C6.29531 8.67774 6.28938 8.6885 6.28321 8.69921C6.27678 8.71033 6.27015 8.72126 6.26334 8.73201C5.71344 9.69534 5.39922 10.8106 5.39922 11.9992C5.39922 13.1877 5.71337 14.3029 6.26316 15.2661C6.27005 15.2769 6.27673 15.2879 6.28321 15.2992C6.28944 15.31 6.29541 15.3208 6.30115 15.3319C6.87305 16.3076 7.6884 17.1232 8.66382 17.6956C8.67565 17.7017 8.68742 17.7082 8.6991 17.7149C8.71122 17.722 8.72312 17.7292 8.7348 17.7367C9.69749 18.2857 10.8117 18.5992 11.9992 18.5992C13.1869 18.5992 14.3013 18.2855 15.2641 17.7364C15.2756 17.7291 15.2873 17.7219 15.2993 17.7151C15.3109 17.7083 15.3225 17.702 15.3343 17.6959C16.3088 17.1241 17.1237 16.3094 17.6955 15.3349C17.7017 15.3229 17.7082 15.311 17.7151 15.2992C17.7221 15.287 17.7293 15.275 17.7369 15.2632C18.2857 14.3007 18.5992 13.1865 18.5992 11.9992C18.5992 10.8118 18.2857 9.69757 17.7368 8.73491C17.7293 8.72323 17.722 8.71133 17.7151 8.69921C17.7083 8.68752 17.7019 8.67575 17.6957 8.6639C17.1242 7.68991 16.31 6.87551 15.3362 6.30372C15.3237 6.29727 15.3113 6.29052 15.2991 6.28344C15.2864 6.27611 15.2739 6.26851 15.2618 6.26067C14.2995 5.71242 13.1859 5.39922 11.9992 5.39922Z" fill="#0F172A"/>
</svg>
