<svg width="24" height="24" viewBox="0 0 24 24" fill="none" xmlns="http://www.w3.org/2000/svg">
<path d="M12 22.7523C8 22.7523 4.75 19.8824 4.75 16.3523V12.6524C4.75 12.2423 5.09 11.9023 5.5 11.9023C5.90999 11.9023 6.25 12.2423 6.25 12.6524C6.25 15.2723 8.72 17.2523 12 17.2523C15.28 17.2523 17.7499 15.2723 17.7499 12.6524C17.7499 12.2423 18.09 11.9023 18.4999 11.9023C18.91 11.9023 19.2499 12.2423 19.2499 12.6524V16.3523C19.2499 19.8824 16 22.7523 12 22.7523ZM6.25 16.4624C6.32 19.1123 8.87 21.2523 12 21.2523C15.13 21.2523 17.68 19.1123 17.7499 16.4624C16.45 17.8724 14.3899 18.7523 12 18.7523C9.61 18.7523 7.55999 17.8724 6.25 16.4624Z" fill="white"/>
<path d="M12 13.75C9.23999 13.75 6.75999 12.51 5.54999 10.51C5.02998 9.66 4.75 8.67 4.75 7.65C4.75 5.93 5.51999 4.31 6.91 3.09C8.27 1.9 10.08 1.25 12 1.25C13.92 1.25 15.72 1.9 17.0899 3.08C18.48 4.31 19.2499 5.93 19.2499 7.65C19.2499 8.67 18.97 9.65 18.45 10.51C17.2399 12.51 14.76 13.75 12 13.75ZM12 2.75C10.44 2.75 8.98001 3.27 7.89 4.23C6.83001 5.15 6.25 6.37 6.25 7.65C6.25 8.4 6.44999 9.1 6.82998 9.73C7.77999 11.29 9.76 12.25 12 12.25C14.2399 12.25 16.2199 11.28 17.17 9.73C17.56 9.1 17.7499 8.4 17.7499 7.65C17.7499 6.37 17.17 5.15 16.0999 4.21C15.01 3.27 13.56 2.75 12 2.75Z" fill="white"/>
<path d="M12 18.75C7.87 18.75 4.75 16.13 4.75 12.65V7.65C4.75 4.12 8 1.25 12 1.25C13.92 1.25 15.72 1.9 17.0899 3.08C18.48 4.31 19.2499 5.93 19.2499 7.65V12.65C19.2499 16.13 16.1299 18.75 12 18.75ZM12 2.75C8.83 2.75 6.25 4.95 6.25 7.65V12.65C6.25 15.27 8.72 17.25 12 17.25C15.28 17.25 17.7499 15.27 17.7499 12.65V7.65C17.7499 6.37 17.17 5.15 16.0999 4.21C15.01 3.27 13.56 2.75 12 2.75Z" fill="white"/>
</svg>
