<svg width="24" height="24" viewBox="0 0 24 24" fill="none" xmlns="http://www.w3.org/2000/svg">
<path d="M21.9989 16.5V19.5C21.9989 20.88 20.879 21.9999 19.499 21.9999H12.359C11.4689 21.9999 11.0289 20.93 11.6489 20.3L17.519 14.3C17.7089 14.1099 17.969 14 18.2289 14H19.499C20.879 14 21.9989 15.12 21.9989 16.5Z" fill="white"/>
<path d="M18.3702 11.2895L15.6602 13.9995L13.2002 16.4495C12.5702 17.0795 11.4902 16.6395 11.4902 15.7495C11.4902 12.5395 11.4902 7.25953 11.4902 7.25953C11.4902 6.98953 11.6002 6.73954 11.7802 6.54953L12.7002 5.62953C13.6802 4.64953 15.2603 4.64953 16.2402 5.62953L18.3602 7.74953C19.3502 8.72953 19.3502 10.3095 18.3702 11.2895Z" fill="white"/>
<path d="M7.50001 2H4.50001C3.00001 2 2 3 2 4.5V18C2 18.27 2.03 18.54 2.08 18.8C2.11 18.93 2.14 19.06 2.18 19.19C2.23 19.34 2.28001 19.49 2.34001 19.63C2.35 19.64 2.35 19.65 2.35 19.65C2.36 19.65 2.36 19.65 2.35 19.66C2.49001 19.94 2.65 20.21 2.84 20.46C2.95 20.59 3.06001 20.71 3.17 20.83C3.28 20.95 3.4 21.05 3.53 21.15L3.54001 21.16C3.79 21.35 4.06 21.51 4.34 21.65C4.35001 21.64 4.35001 21.64 4.35001 21.65C4.50001 21.72 4.65001 21.77 4.81 21.82C4.94 21.86 5.07001 21.89 5.2 21.92C5.46001 21.97 5.73001 22 6.00001 22C6.41 22 6.83 21.94 7.22 21.81C7.33 21.77 7.44001 21.73 7.55 21.68C7.9 21.54 8.24 21.34 8.54 21.08C8.63 21.01 8.73001 20.92 8.82001 20.83L8.86 20.79C9.56 20.07 10 19.08 10 18V4.5C10 3 9.00001 2 7.50001 2ZM6.00001 19.5C5.17 19.5 4.50001 18.83 4.50001 18C4.50001 17.17 5.17 16.5 6.00001 16.5C6.83 16.5 7.50001 17.17 7.50001 18C7.50001 18.83 6.83 19.5 6.00001 19.5Z" fill="white"/>
</svg>
