<svg width="24" height="24" viewBox="0 0 24 24" fill="none" xmlns="http://www.w3.org/2000/svg">
<path d="M14 16.0002C14 17.7702 13.23 19.3702 12 20.4602C10.94 21.4202 9.54001 22.0002 8 22.0002C4.69 22.0002 2 19.3102 2 16.0002C2 13.9754 3.01398 12.1814 4.5554 11.0975C4.80358 10.923 5.13931 11.0424 5.27324 11.3146C6.21715 13.2332 7.9542 14.6701 10.02 15.2302C10.65 15.4102 11.31 15.5002 12 15.5002C12.4872 15.5002 12.9539 15.454 13.4075 15.3689C13.6958 15.3148 13.9829 15.4996 13.9955 15.7927C13.9985 15.8622 14 15.9316 14 16.0002Z" fill="white"/>
<path d="M18 8C18 8.78 17.85 9.53 17.58 10.21C16.89 11.95 15.41 13.29 13.58 13.79C13.08 13.93 12.55 14 12 14C11.45 14 10.92 13.93 10.42 13.79C8.59 13.29 7.11 11.95 6.42 10.21C6.15 9.53 6 8.78 6 8C6 4.69 8.69 2 12 2C15.31 2 18 4.69 18 8Z" fill="white"/>
<path d="M21.9995 15.9998C21.9995 19.3098 19.3096 21.9998 15.9996 21.9998C15.2551 21.9998 14.5389 21.864 13.8807 21.6138C13.562 21.4927 13.5026 21.0848 13.7244 20.826C14.8664 19.4935 15.4996 17.7857 15.4996 15.9998C15.4996 15.6599 15.4696 15.3198 15.4196 14.9999C15.3898 14.8153 15.484 14.634 15.6474 14.5435C16.9716 13.8106 18.0528 12.6874 18.7265 11.3151C18.8605 11.0425 19.1963 10.9228 19.4447 11.0975C20.9859 12.1817 21.9995 13.9753 21.9995 15.9998Z" fill="white"/>
</svg>
