<svg width="24" height="24" viewBox="0 0 24 24" fill="none" xmlns="http://www.w3.org/2000/svg">
<path fill-rule="evenodd" clip-rule="evenodd" d="M3.89922 3.60156C2.40805 3.60156 1.19922 4.81039 1.19922 6.30156V17.7016C1.19922 19.1927 2.40805 20.4016 3.89922 20.4016H20.0992C21.5903 20.4016 22.7992 19.1927 22.7992 17.7016V6.30156C22.7992 4.81039 21.5903 3.60156 20.0992 3.60156H3.89922ZM5.03026 14.1036C4.69775 13.7341 4.72769 13.1651 5.09715 12.8326L7.35385 10.8016L5.09715 8.77053C4.72769 8.43802 4.69774 7.86895 5.03026 7.4995C5.36276 7.13003 5.93183 7.10009 6.30128 7.4326L9.30128 10.1326C9.49093 10.3033 9.59922 10.5464 9.59922 10.8016C9.59922 11.0567 9.49093 11.2999 9.30128 11.4705L6.30128 14.1706C5.93183 14.5031 5.36276 14.4731 5.03026 14.1036ZM11.6992 12.3016C11.2022 12.3016 10.7992 12.7045 10.7992 13.2016C10.7992 13.6986 11.2022 14.1016 11.6992 14.1016H14.6992C15.1963 14.1016 15.5992 13.6986 15.5992 13.2016C15.5992 12.7045 15.1963 12.3016 14.6992 12.3016H11.6992Z" fill="#0F172A"/>
</svg>
