<svg width="24" height="24" viewBox="0 0 24 24" fill="none" xmlns="http://www.w3.org/2000/svg">
<path d="M20.9489 4.12891L4.12891 20.9489C5.0789 21.6389 6.31891 21.9989 7.8089 21.9989H16.1889C19.829 21.9989 21.9989 19.829 21.9989 16.1889V7.8089C21.9989 6.31891 21.6389 5.0789 20.9489 4.12891ZM18.4989 16.2489H16.8089V17.999C16.8089 18.4089 16.469 18.749 16.0589 18.749C15.6489 18.749 15.3089 18.4089 15.3089 17.999V16.2489H13.499C13.0889 16.2489 12.749 15.9089 12.749 15.4989C12.749 15.089 13.0889 14.7489 13.499 14.7489H15.3089V12.9989C15.3089 12.5889 15.6489 12.2489 16.0589 12.2489C16.469 12.2489 16.8089 12.5889 16.8089 12.9989V14.7489H18.4989C18.9089 14.7489 19.2489 15.089 19.2489 15.4989C19.2489 15.9089 18.9089 16.2489 18.4989 16.2489Z" fill="white"/>
<path d="M16.19 2H7.81C4.17001 2 2 4.17 2 7.81V16.19C2 17.68 2.36 18.92 3.05 19.87L19.8701 3.05C18.92 2.36 17.6801 2 16.19 2ZM10.5 8.25H5.5C5.09 8.25 4.75 7.91 4.75 7.5C4.75 7.09 5.09 6.75 5.5 6.75H10.5C10.91 6.75 11.25 7.09 11.25 7.5C11.25 7.91 10.91 8.25 10.5 8.25Z" fill="white"/>
</svg>
