<svg width="24" height="24" viewBox="0 0 24 24" fill="none" xmlns="http://www.w3.org/2000/svg">
<path fill-rule="evenodd" clip-rule="evenodd" d="M2.40039 5.09844C2.40039 3.60727 3.60922 2.39844 5.10039 2.39844H18.9004C20.3915 2.39844 21.6004 3.60727 21.6004 5.09844V15.2984C21.6004 16.7896 20.3915 17.9984 18.9004 17.9984H15.1742C15.4104 18.7927 15.8754 19.4886 16.4943 20.0105C16.7831 20.2542 16.889 20.6524 16.7592 21.0073C16.6295 21.3623 16.2918 21.5984 15.914 21.5984H8.08696C7.70903 21.5984 7.37137 21.3623 7.24163 21.0073C7.11191 20.6524 7.21778 20.2542 7.50665 20.0105C8.12542 19.4886 8.59045 18.7927 8.82669 17.9984H5.10039C3.60922 17.9984 2.40039 16.7896 2.40039 15.2984V5.09844ZM4.20039 5.09844C4.20039 4.60139 4.60334 4.19844 5.10039 4.19844H18.9004C19.3974 4.19844 19.8004 4.60139 19.8004 5.09844V14.0984C19.8004 14.5955 19.3974 14.9984 18.9004 14.9984H5.10039C4.60334 14.9984 4.20039 14.5955 4.20039 14.0984V5.09844Z" fill="#0F172A"/>
</svg>
