<svg width="24" height="24" viewBox="0 0 24 24" fill="none" xmlns="http://www.w3.org/2000/svg">
<path d="M12.0292 2.03125C10.0793 2.03125 8.25929 2.59124 6.72929 3.55124L13.5892 10.4212L13.5993 7.68125C13.5993 7.27124 13.9393 6.93125 14.3493 6.93125C14.7693 6.93125 15.0993 7.27124 15.0993 7.68125L15.0892 12.2312C15.0892 12.5412 14.8993 12.8112 14.6193 12.9212C14.5293 12.9612 14.4292 12.9812 14.3392 12.9812C14.1393 12.9812 13.9492 12.9012 13.8093 12.7613L5.61929 4.56125C5.57929 4.52125 5.54929 4.48124 5.51929 4.44125C3.3793 6.28124 2.0293 9.00125 2.0293 12.0312C2.0293 17.5512 6.50929 22.0313 12.0292 22.0313C13.9792 22.0313 15.7993 21.4712 17.3293 20.5112L10.4693 13.6412L10.4593 16.3812C10.4593 16.7912 10.1193 17.1312 9.7093 17.1312C9.2893 17.1312 8.9593 16.7912 8.9593 16.3812L8.96929 11.8312C8.96929 11.5212 9.15929 11.2512 9.4393 11.1412C9.7093 11.0212 10.0393 11.0812 10.2493 11.3012L18.4393 19.5012C18.4792 19.5413 18.5092 19.5812 18.5392 19.6212C20.6793 17.7812 22.0293 15.0612 22.0293 12.0312C22.0293 6.51125 17.5492 2.03125 12.0292 2.03125Z" fill="white"/>
</svg>
