<svg width="24" height="24" viewBox="0 0 24 24" fill="none" xmlns="http://www.w3.org/2000/svg">
<path d="M15.0002 22.75C14.7302 22.75 14.4802 22.6 14.3503 22.37C14.2202 22.14 14.2202 21.85 14.3602 21.62L15.4102 19.87C15.6202 19.51 16.0802 19.4 16.4402 19.61C16.8002 19.82 16.9102 20.28 16.7002 20.64L16.4302 21.09C19.1902 20.44 21.2602 17.96 21.2602 15C21.2602 14.59 21.6002 14.25 22.0102 14.25C22.4203 14.25 22.7602 14.59 22.7602 15C22.7503 19.27 19.2703 22.75 15.0002 22.75Z" fill="white"/>
<path d="M2 9.75C1.59001 9.75 1.25 9.41 1.25 9C1.25 4.73 4.73 1.25 9.00001 1.25C9.27001 1.25 9.52 1.4 9.65 1.63C9.78001 1.86 9.78001 2.15 9.64 2.38L8.59 4.14C8.38 4.49 7.92001 4.61 7.56001 4.39C7.21 4.18 7.09 3.72 7.31 3.36L7.58 2.91C4.81 3.56 2.75 6.04 2.75 9C2.75 9.41 2.41 9.75 2 9.75Z" fill="white"/>
<path d="M10.671 13.8485L7.53093 12.1584C7.20093 11.9784 6.80094 11.9784 6.47094 12.1584L3.33093 13.8485C3.10093 13.9685 2.96094 14.2185 2.96094 14.4885C2.96094 14.7585 3.10093 15.0084 3.33093 15.1284L6.47094 16.8185C6.64093 16.9085 6.82093 16.9485 7.00093 16.9485C7.18093 16.9485 7.36093 16.9085 7.53093 16.8185L10.671 15.1284C10.901 15.0084 11.041 14.7585 11.041 14.4885C11.041 14.2185 10.891 13.9785 10.671 13.8485Z" fill="white"/>
<path d="M5.95 17.4107L3.03001 15.9506C2.81 15.8406 2.55001 15.8507 2.33 15.9806C2.13001 16.1106 2 16.3406 2 16.5906V19.3506C2 19.8306 2.26 20.2607 2.69 20.4707L5.61001 21.9306C5.71 21.9707 5.82001 22.0007 5.93 22.0007C6.06001 22.0007 6.19 21.9606 6.31 21.8906C6.52 21.7607 6.65 21.5306 6.65 21.2807V18.5207C6.65 18.0506 6.38 17.6207 5.95 17.4107Z" fill="white"/>
<path d="M11.6596 15.9806C11.4496 15.8507 11.1896 15.8406 10.9596 15.9506L8.03961 17.4107C7.60961 17.6207 7.34961 18.0506 7.34961 18.5306V21.2906C7.34961 21.5406 7.47961 21.7706 7.68961 21.9006C7.80961 21.9606 7.93961 22.0007 8.06961 22.0007C8.17961 22.0007 8.28961 21.9707 8.38961 21.9206L11.3096 20.4606C11.7396 20.2506 11.9996 19.8206 11.9996 19.3406V16.5806C11.9996 16.3406 11.8696 16.1106 11.6596 15.9806Z" fill="white"/>
<path d="M20.669 3.83282L17.5289 2.14282C17.1989 1.96281 16.799 1.96281 16.469 2.14282L13.3289 3.83282C13.099 3.95282 12.959 4.20281 12.959 4.47281C12.959 4.74281 13.099 4.99281 13.3289 5.11281L16.469 6.80282C16.639 6.89282 16.819 6.93281 16.999 6.93281C17.179 6.93281 17.359 6.89282 17.5289 6.80282L20.669 5.11281C20.899 4.99281 21.0389 4.74281 21.0389 4.47281C21.0389 4.19282 20.8889 3.95282 20.669 3.83282Z" fill="white"/>
<path d="M15.95 7.37937L13.03 5.91938C12.81 5.80938 12.55 5.81937 12.33 5.94937C12.13 6.07936 12 6.30937 12 6.55936V9.31936C12 9.79936 12.26 10.2294 12.69 10.4394L15.61 11.8994C15.71 11.9494 15.82 11.9794 15.93 11.9794C16.06 11.9794 16.19 11.9394 16.31 11.8694C16.52 11.7394 16.65 11.5094 16.65 11.2594V8.49938C16.65 8.01938 16.38 7.58937 15.95 7.37937Z" fill="white"/>
<path d="M21.6596 5.94937C21.4496 5.81937 21.1896 5.80938 20.9596 5.91938L18.0396 7.37937C17.6096 7.58937 17.3496 8.01938 17.3496 8.49938V11.2594C17.3496 11.5094 17.4796 11.7394 17.6896 11.8694C17.8096 11.9394 17.9396 11.9794 18.0696 11.9794C18.1796 11.9794 18.2896 11.9494 18.3896 11.8994L21.3096 10.4394C21.7396 10.2194 21.9996 9.78937 21.9996 9.31936V6.55936C21.9996 6.30937 21.8696 6.07936 21.6596 5.94937Z" fill="white"/>
</svg>
