<svg width="24" height="24" viewBox="0 0 24 24" fill="none" xmlns="http://www.w3.org/2000/svg">
<path d="M17.1005 2H12.9005C9.81743 2 8.37149 3.09409 8.07026 5.73901C8.00724 6.29235 8.46551 6.75 9.02243 6.75H11.1006C15.3005 6.75 17.2505 8.7 17.2505 12.9V14.9782C17.2505 15.535 17.7081 15.9934 18.2615 15.9304C20.9065 15.629 22.0005 14.1832 22.0005 11.1V6.9C22.0005 3.4 20.6006 2 17.1005 2Z" fill="white"/>
<path d="M11.1 8H6.90001C3.4 8 2 9.4 2 12.9V17.1C2 20.6 3.4 22 6.90001 22H11.1C14.6 22 16.0001 20.6 16.0001 17.1V12.9C16.0001 9.4 14.6 8 11.1 8ZM12.29 13.65L8.58001 17.36C8.44 17.5 8.26 17.57 8.07001 17.57C7.88 17.57 7.7 17.5 7.56001 17.36L5.70001 15.5C5.42 15.22 5.42 14.77 5.70001 14.49C5.98 14.21 6.43 14.21 6.71 14.49L8.06 15.84L11.27 12.63C11.55 12.35 12 12.35 12.2801 12.63C12.56 12.91 12.57 13.37 12.29 13.65Z" fill="white"/>
</svg>
