<svg width="24" height="24" viewBox="0 0 24 24" fill="none" xmlns="http://www.w3.org/2000/svg">
<path d="M16.0001 12.9V17.1C16.0001 20.6 14.6 22 11.1 22H6.90001C3.4 22 2 20.6 2 17.1V12.9C2 9.4 3.4 8 6.90001 8H11.1C14.6 8 16.0001 9.4 16.0001 12.9Z" fill="white"/>
<path d="M17.1005 2H12.9005C9.81743 2 8.37149 3.09409 8.07026 5.73901C8.00724 6.29235 8.46551 6.75 9.02243 6.75H11.1006C15.3005 6.75 17.2505 8.7 17.2505 12.9V14.9782C17.2505 15.535 17.7081 15.9934 18.2615 15.9304C20.9065 15.629 22.0005 14.1832 22.0005 11.1V6.9C22.0005 3.4 20.6006 2 17.1005 2Z" fill="white"/>
</svg>
