<svg width="24" height="24" viewBox="0 0 24 24" fill="none" xmlns="http://www.w3.org/2000/svg">
<path d="M22.0001 21.2473H20.75V10.9972C20.75 8.57726 19.4201 7.24725 17 7.24725H12.75V6.01725C13.3301 6.15726 13.91 6.23726 14.5001 6.23726C15.44 6.23726 16.38 6.05726 17.28 5.69726C17.5601 5.58726 17.75 5.30726 17.75 4.99725V1.99725C17.75 1.74726 17.63 1.51725 17.42 1.37726C17.21 1.23726 16.95 1.20726 16.7201 1.29726C15.29 1.86726 13.71 1.86726 12.2801 1.29726C12.05 1.20726 11.79 1.23726 11.58 1.37726C11.37 1.51725 11.25 1.74726 11.25 1.99725V4.99725V7.24725H7C4.58 7.24725 3.25 8.57726 3.25 10.9972V21.2473H2C1.59001 21.2473 1.25 21.5872 1.25 21.9973C1.25 22.4073 1.59001 22.7473 2 22.7473H4H20H22.0001C22.41 22.7473 22.7501 22.4073 22.7501 21.9973C22.7501 21.5872 22.41 21.2473 22.0001 21.2473ZM7.24 21.2473H4.75V12.7473H7.24V21.2473ZM11.24 21.2473H8.74V12.7473H11.24V21.2473ZM15.24 21.2473H12.74V12.7473H15.24V21.2473ZM19.25 21.2473H16.74V12.7473H19.25V21.2473Z" fill="white"/>
</svg>
