<svg width="24" height="24" viewBox="0 0 24 24" fill="none" xmlns="http://www.w3.org/2000/svg">
<path d="M16.7992 7.19922H7.19922V16.7992H16.7992V7.19922Z" fill="#0F172A"/>
<path fill-rule="evenodd" clip-rule="evenodd" d="M11.0992 3.59922V2.09922C11.0992 1.60217 11.5022 1.19922 11.9992 1.19922C12.4963 1.19922 12.8992 1.60217 12.8992 2.09922V3.59922H14.6992V2.09922C14.6992 1.60217 15.1022 1.19922 15.5992 1.19922C16.0963 1.19922 16.4992 1.60217 16.4992 2.09922V3.59922H17.0992C18.9218 3.59922 20.3992 5.07668 20.3992 6.89922V7.49922H21.8992C22.3963 7.49922 22.7992 7.90217 22.7992 8.39922C22.7992 8.89627 22.3963 9.29922 21.8992 9.29922H20.3992V11.0992H21.8992C22.3963 11.0992 22.7992 11.5022 22.7992 11.9992C22.7992 12.4963 22.3963 12.8992 21.8992 12.8992H20.3992V14.6992H21.8992C22.3963 14.6992 22.7992 15.1022 22.7992 15.5992C22.7992 16.0963 22.3963 16.4992 21.8992 16.4992H20.3992V17.0992C20.3992 18.9218 18.9218 20.3992 17.0992 20.3992H16.4992V21.8992C16.4992 22.3963 16.0963 22.7992 15.5992 22.7992C15.1022 22.7992 14.6992 22.3963 14.6992 21.8992V20.3992H12.8992V21.8992C12.8992 22.3963 12.4963 22.7992 11.9992 22.7992C11.5022 22.7992 11.0992 22.3963 11.0992 21.8992V20.3992H9.29922V21.8992C9.29922 22.3963 8.89627 22.7992 8.39922 22.7992C7.90217 22.7992 7.49922 22.3963 7.49922 21.8992V20.3992H6.89922C5.07668 20.3992 3.59922 18.9218 3.59922 17.0992V16.4992H2.09922C1.60217 16.4992 1.19922 16.0963 1.19922 15.5992C1.19922 15.1022 1.60217 14.6992 2.09922 14.6992H3.59922V12.8992H2.09922C1.60217 12.8992 1.19922 12.4963 1.19922 11.9992C1.19922 11.5022 1.60217 11.0992 2.09922 11.0992H3.59922V9.29922H2.09922C1.60217 9.29922 1.19922 8.89627 1.19922 8.39922C1.19922 7.90217 1.60217 7.49922 2.09922 7.49922H3.59922V6.89922C3.59922 5.07668 5.07668 3.59922 6.89922 3.59922H7.49922V2.09922C7.49922 1.60217 7.90217 1.19922 8.39922 1.19922C8.89627 1.19922 9.29922 1.60217 9.29922 2.09922V3.59922H11.0992ZM5.39922 6.89922C5.39922 6.07079 6.07079 5.39922 6.89922 5.39922H17.0992C17.9277 5.39922 18.5992 6.07079 18.5992 6.89922V17.0992C18.5992 17.9277 17.9277 18.5992 17.0992 18.5992H6.89922C6.07079 18.5992 5.39922 17.9277 5.39922 17.0992V6.89922Z" fill="#0F172A"/>
</svg>
