<svg width="24" height="24" viewBox="0 0 24 24" fill="none" xmlns="http://www.w3.org/2000/svg">
<path d="M13.9802 7.75H10.0102C8.76022 7.75 7.74023 8.76 7.74023 10.02V13.99C7.74023 15.24 8.75023 16.26 10.0102 16.26H13.9802C15.2302 16.26 16.2502 15.25 16.2502 13.99V10.02C16.2502 8.76 15.2402 7.75 13.9802 7.75ZM13.5002 12.98L12.6102 14.53C12.4802 14.76 12.2402 14.88 12.0002 14.88C11.8802 14.88 11.7502 14.85 11.6502 14.79C11.3102 14.6 11.1902 14.17 11.3902 13.83L12.0302 12.72H11.4702C11.0202 12.72 10.6502 12.52 10.4502 12.18C10.2502 11.84 10.2702 11.42 10.5002 11.03L11.3902 9.48C11.5902 9.14 12.0202 9.03 12.3502 9.22C12.6902 9.41 12.8102 9.84 12.6102 10.18L11.9702 11.29H12.5302C12.9802 11.29 13.3502 11.49 13.5502 11.83C13.7502 12.17 13.7302 12.59 13.5002 12.98Z" fill="white"/>
<path d="M21.2501 12.75C21.6701 12.75 22.0001 12.41 22.0001 12C22.0001 11.58 21.6701 11.25 21.2501 11.25H20V9.05H21.2501C21.6701 9.05 22.0001 8.72 22.0001 8.3C22.0001 7.89 21.6701 7.55 21.2501 7.55H19.77C19.29 5.96 18.0401 4.71 16.4501 4.23V2.75C16.4501 2.34 16.11 2 15.7001 2C15.29 2 14.9501 2.34 14.9501 2.75V4H12.75V2.75C12.75 2.34 12.41 2 12 2C11.59 2 11.25 2.34 11.25 2.75V4H9.06001V2.75C9.06001 2.34 8.72 2 8.31001 2C7.89001 2 7.56001 2.34 7.56001 2.75V4.23C5.96 4.71 4.71001 5.96 4.23001 7.55H2.75C2.34001 7.55 2 7.89 2 8.3C2 8.72 2.34001 9.05 2.75 9.05H4V11.25H2.75C2.34001 11.25 2 11.58 2 12C2 12.41 2.34001 12.75 2.75 12.75H4V14.95H2.75C2.34001 14.95 2 15.28 2 15.7C2 16.11 2.34001 16.45 2.75 16.45H4.23001C4.7 18.04 5.96 19.29 7.56001 19.77V21.25C7.56001 21.66 7.89001 22 8.31001 22C8.72 22 9.06001 21.66 9.06001 21.25V20H11.26V21.25C11.26 21.66 11.59 22 12.0101 22C12.42 22 12.7601 21.66 12.7601 21.25V20H14.9501V21.25C14.9501 21.66 15.29 22 15.7001 22C16.11 22 16.4501 21.66 16.4501 21.25V19.77C18.0401 19.29 19.29 18.04 19.77 16.45H21.2501C21.6701 16.45 22.0001 16.11 22.0001 15.7C22.0001 15.28 21.6701 14.95 21.2501 14.95H20V12.75H21.2501ZM17.2601 14.26C17.2601 15.91 15.9101 17.26 14.2601 17.26H9.74C8.09 17.26 6.74 15.91 6.74 14.26V9.74C6.74 8.09 8.09 6.74 9.74 6.74H14.2601C15.9101 6.74 17.2601 8.09 17.2601 9.74V14.26Z" fill="white"/>
</svg>
