<svg width="24" height="24" viewBox="0 0 24 24" fill="none" xmlns="http://www.w3.org/2000/svg">
<path d="M21.2501 12.75C21.6701 12.75 22.0001 12.41 22.0001 12C22.0001 11.58 21.6701 11.25 21.2501 11.25H20V9.05H21.2501C21.6701 9.05 22.0001 8.72 22.0001 8.3C22.0001 7.89 21.6701 7.55 21.2501 7.55H19.77C19.29 5.96 18.0401 4.71 16.4501 4.23V2.75C16.4501 2.34 16.11 2 15.7001 2C15.29 2 14.9501 2.34 14.9501 2.75V4H12.75V2.75C12.75 2.34 12.41 2 12 2C11.59 2 11.25 2.34 11.25 2.75V4H9.06001V2.75C9.06001 2.34 8.72 2 8.31001 2C7.89001 2 7.56001 2.34 7.56001 2.75V4.23C5.96 4.71 4.71001 5.96 4.23001 7.55H2.75C2.34001 7.55 2 7.89 2 8.3C2 8.72 2.34001 9.05 2.75 9.05H4V11.25H2.75C2.34001 11.25 2 11.58 2 12C2 12.41 2.34001 12.75 2.75 12.75H4V14.95H2.75C2.34001 14.95 2 15.28 2 15.7C2 16.11 2.34001 16.45 2.75 16.45H4.23001C4.7 18.04 5.96 19.29 7.56001 19.77V21.25C7.56001 21.66 7.89001 22 8.31001 22C8.72 22 9.06001 21.66 9.06001 21.25V20H11.26V21.25C11.26 21.66 11.59 22 12.0101 22C12.42 22 12.7601 21.66 12.7601 21.25V20H14.9501V21.25C14.9501 21.66 15.29 22 15.7001 22C16.11 22 16.4501 21.66 16.4501 21.25V19.77C18.0401 19.29 19.29 18.04 19.77 16.45H21.2501C21.6701 16.45 22.0001 16.11 22.0001 15.7C22.0001 15.28 21.6701 14.95 21.2501 14.95H20V12.75H21.2501ZM17.2601 14.26C17.2601 15.91 15.9101 17.26 14.2601 17.26H9.74C8.09 17.26 6.74 15.91 6.74 14.26V9.74C6.74 8.09 8.09 6.74 9.74 6.74H14.2601C15.9101 6.74 17.2601 8.09 17.2601 9.74V14.26Z" fill="white"/>
<path d="M10.02 16.2483H13.99C15.24 16.2483 16.26 15.2383 16.26 13.9783V10.0082C16.26 8.75828 15.25 7.73828 13.99 7.73828H10.02C8.77 7.73828 7.75 8.74827 7.75 10.0082V13.9783C7.75 15.2383 8.75999 16.2483 10.02 16.2483Z" fill="white"/>
</svg>
