<svg width="24" height="24" viewBox="0 0 24 24" fill="none" xmlns="http://www.w3.org/2000/svg">
<path fill-rule="evenodd" clip-rule="evenodd" d="M2.99922 4.80078C2.0051 4.80078 1.19922 5.60667 1.19922 6.60078V7.20078H22.7992V6.60078C22.7992 5.60667 21.9933 4.80078 20.9992 4.80078H2.99922ZM22.7992 10.2008H1.19922V17.4008C1.19922 18.3949 2.0051 19.2008 2.99922 19.2008H20.9992C21.9933 19.2008 22.7992 18.3949 22.7992 17.4008V10.2008ZM3.59922 15.9008C3.59922 15.4037 4.00217 15.0008 4.49922 15.0008H6.29922C6.79627 15.0008 7.19922 15.4037 7.19922 15.9008C7.19922 16.3978 6.79627 16.8008 6.29922 16.8008H4.49922C4.00217 16.8008 3.59922 16.3978 3.59922 15.9008ZM9.29922 15.0008C8.80217 15.0008 8.39922 15.4037 8.39922 15.9008C8.39922 16.3978 8.80217 16.8008 9.29922 16.8008H13.4992C13.9963 16.8008 14.3992 16.3978 14.3992 15.9008C14.3992 15.4037 13.9963 15.0008 13.4992 15.0008H9.29922Z" fill="#0F172A"/>
</svg>
