<svg width="24" height="24" viewBox="0 0 24 24" fill="none" xmlns="http://www.w3.org/2000/svg">
<path d="M22.0003 5.7095V15.2895C22.0003 18.0495 19.7603 20.2895 17.0003 20.2895H7.00032C6.54032 20.2895 6.10032 20.2295 5.67032 20.1095C5.05032 19.9395 4.85031 19.1495 5.31032 18.6895L15.9403 8.05951C16.1603 7.8395 16.4903 7.78951 16.8003 7.84951C17.1203 7.90951 17.4703 7.81951 17.7203 7.57951L20.2903 4.99951C21.2303 4.0595 22.0003 4.36951 22.0003 5.7095Z" fill="white"/>
<path d="M14.64 7.35953L4.17001 17.8295C3.69001 18.3095 2.89 18.1895 2.57 17.5895C2.2 16.9095 2 16.1195 2 15.2895V5.70953C2 4.36954 2.77 4.05953 3.71 4.99954L6.29 7.58954C6.68 7.96954 7.32001 7.96954 7.71001 7.58954L11.29 3.99953C11.68 3.60953 12.32 3.60953 12.71 3.99953L14.6501 5.93954C15.03 6.32954 15.03 6.96953 14.64 7.35953Z" fill="white"/>
</svg>
