<svg width="24" height="24" viewBox="0 0 24 24" fill="none" xmlns="http://www.w3.org/2000/svg">
<path d="M22.0001 9.75C21.59 9.75 21.2501 9.41 21.2501 9V7C21.2501 4.42 19.58 2.75 17 2.75H7C4.42 2.75 2.75 4.42 2.75 7V9C2.75 9.41 2.41 9.75 2 9.75C1.59001 9.75 1.25 9.41 1.25 9V7C1.25 3.56 3.56 1.25 7 1.25H17C20.4401 1.25 22.7501 3.56 22.7501 7V9C22.7501 9.41 22.41 9.75 22.0001 9.75Z" fill="white"/>
<path d="M17 22.75H7C3.56 22.75 1.25 20.44 1.25 17V15C1.25 14.59 1.59001 14.25 2 14.25C2.41 14.25 2.75 14.59 2.75 15V17C2.75 19.58 4.42 21.25 7 21.25H17C19.58 21.25 21.2501 19.58 21.2501 17V15C21.2501 14.59 21.59 14.25 22.0001 14.25C22.41 14.25 22.7501 14.59 22.7501 15V17C22.7501 20.44 20.4401 22.75 17 22.75Z" fill="white"/>
<path d="M16.4002 8.21094L12.6402 6.18094C12.2402 5.97094 11.7702 5.97094 11.3702 6.18094L7.60015 8.21094C7.33015 8.36094 7.16016 8.65093 7.16016 8.97094C7.16016 9.30094 7.33015 9.59094 7.60015 9.74094L11.3602 11.7709C11.5602 11.8809 11.7802 11.9309 12.0002 11.9309C12.2202 11.9309 12.4402 11.8809 12.6402 11.7709L16.4002 9.74094C16.6702 9.59094 16.8402 9.30094 16.8402 8.97094C16.8402 8.65093 16.6702 8.36094 16.4002 8.21094Z" fill="white"/>
<path d="M10.74 12.4723L7.24 10.7224C6.97 10.5924 6.66 10.6024 6.4 10.7624C6.15 10.9224 6 11.1924 6 11.4924V14.8024C6 15.3724 6.32 15.8923 6.83 16.1424L10.33 17.8924C10.45 17.9524 10.58 17.9824 10.72 17.9824C10.88 17.9824 11.03 17.9424 11.17 17.8524C11.43 17.6923 11.58 17.4223 11.58 17.1223V13.8124C11.57 13.2424 11.26 12.7324 10.74 12.4723Z" fill="white"/>
<path d="M17.5899 10.7624C17.33 10.6024 17.0199 10.5924 16.7499 10.7224L13.25 12.4723C12.74 12.7324 12.4199 13.2424 12.4199 13.8124V17.1223C12.4199 17.4223 12.5699 17.6923 12.83 17.8524C12.9699 17.9424 13.1199 17.9824 13.28 17.9824C13.4099 17.9824 13.5399 17.9524 13.67 17.8924L17.1699 16.1424C17.6799 15.8824 17.9999 15.3724 17.9999 14.8024V11.4924C17.9999 11.1924 17.8499 10.9224 17.5899 10.7624Z" fill="white"/>
</svg>
