<svg width="24" height="24" viewBox="0 0 24 24" fill="none" xmlns="http://www.w3.org/2000/svg">
<path fill-rule="evenodd" clip-rule="evenodd" d="M11.5656 1.3112C11.8362 1.16189 12.1646 1.16189 12.4352 1.3112L14.8352 2.63533C15.2704 2.87545 15.4286 3.42291 15.1884 3.85813C14.9483 4.29333 14.4009 4.45149 13.9656 4.21137L12.0004 3.12711L10.0352 4.21137C9.59995 4.45149 9.05248 4.29333 8.81237 3.85813C8.57225 3.42291 8.73041 2.87545 9.16562 2.63533L11.5656 1.3112ZM6.48349 5.14303C6.72361 5.57823 6.56545 6.1257 6.13024 6.36582L5.16345 6.89922L6.13024 7.43262C6.56545 7.67274 6.72361 8.2202 6.48349 8.65541C6.24337 9.09062 5.69592 9.24878 5.2607 9.00866L4.20039 8.42366V9.29922C4.20039 9.79627 3.79744 10.1992 3.30039 10.1992C2.80334 10.1992 2.40039 9.79627 2.40039 9.29922V6.89922C2.40039 6.57143 2.57861 6.26955 2.86562 6.1112L5.2607 4.78977C5.69592 4.54965 6.24337 4.70781 6.48349 5.14303ZM17.5173 5.14303C17.7574 4.70781 18.3048 4.54965 18.7401 4.78977L21.1352 6.1112C21.4222 6.26955 21.6004 6.57143 21.6004 6.89922V9.29922C21.6004 9.79627 21.1974 10.1992 20.7004 10.1992C20.2034 10.1992 19.8004 9.79627 19.8004 9.29922V8.42366L18.7401 9.00866C18.3048 9.24878 17.7574 9.09062 17.5173 8.65541C17.2772 8.2202 17.4353 7.67274 17.8706 7.43262L18.8374 6.89922L17.8706 6.36582C17.4353 6.1257 17.2772 5.57823 17.5173 5.14303ZM8.81237 9.94031C9.05248 9.5051 9.59995 9.34694 10.0352 9.58706L12.0004 10.6713L13.9656 9.58706C14.4009 9.34694 14.9483 9.5051 15.1884 9.94031C15.4286 10.3755 15.2704 10.923 14.8352 11.1631L12.9004 12.2306V14.0992C12.9004 14.5963 12.4974 14.9992 12.0004 14.9992C11.5033 14.9992 11.1004 14.5963 11.1004 14.0992V12.2306L9.16562 11.1631C8.73041 10.923 8.57225 10.3755 8.81237 9.94031ZM3.30039 13.7992C3.79744 13.7992 4.20039 14.2022 4.20039 14.6992V16.5679L6.13024 17.6326C6.56545 17.8727 6.72361 18.4202 6.48349 18.8554C6.24337 19.2907 5.69592 19.4488 5.2607 19.2087L2.86562 17.8873C2.57861 17.7289 2.40039 17.4271 2.40039 17.0992V14.6992C2.40039 14.2022 2.80334 13.7992 3.30039 13.7992ZM20.7004 13.7992C21.1974 13.7992 21.6004 14.2022 21.6004 14.6992V17.0992C21.6004 17.4271 21.4222 17.7289 21.1352 17.8873L18.7401 19.2087C18.3048 19.4488 17.7574 19.2907 17.5173 18.8554C17.2772 18.4202 17.4353 17.8727 17.8706 17.6326L19.8004 16.5679V14.6992C19.8004 14.2022 20.2034 13.7992 20.7004 13.7992ZM12.0004 18.5992C12.4974 18.5992 12.9004 19.0022 12.9004 19.4992V20.3747L13.9656 19.7871C14.4009 19.547 14.9483 19.7051 15.1884 20.1403C15.4286 20.5755 15.2704 21.1229 14.8352 21.3631L12.4352 22.6873C12.1646 22.8365 11.8362 22.8365 11.5656 22.6873L9.16562 21.3631C8.7304 21.1229 8.57225 20.5755 8.81237 20.1403C9.05248 19.7051 9.59995 19.547 10.0352 19.7871L11.1004 20.3747V19.4992C11.1004 19.0022 11.5033 18.5992 12.0004 18.5992Z" fill="#0F172A"/>
</svg>
