<svg width="24" height="24" viewBox="0 0 24 24" fill="none" xmlns="http://www.w3.org/2000/svg">
<path d="M11.25 18.2509H9C7.9 18.2509 7 19.1509 7 20.2509V20.5009H6C5.59 20.5009 5.25 20.8409 5.25 21.2509C5.25 21.6609 5.59 22.0009 6 22.0009H18C18.41 22.0009 18.75 21.6609 18.75 21.2509C18.75 20.8409 18.41 20.5009 18 20.5009H17V20.2509C17 19.1509 16.1 18.2509 15 18.2509H12.75V15.9609C12.5 15.9909 12.25 16.0009 12 16.0009C11.75 16.0009 11.5 15.9909 11.25 15.9609V18.2509Z" fill="white"/>
<path d="M18.4813 11.64C19.1413 11.39 19.7212 10.98 20.1813 10.52C21.1113 9.49 21.7213 8.26 21.7213 6.82C21.7213 5.38 20.5912 4.25 19.1512 4.25H18.5913C17.9413 2.92 16.5813 2 15.0013 2H9.00125C7.42125 2 6.06125 2.92 5.41125 4.25H4.85125C3.41125 4.25 2.28125 5.38 2.28125 6.82C2.28125 8.26 2.89125 9.49 3.82125 10.52C4.28125 10.98 4.86125 11.39 5.52125 11.64C6.56125 14.2 9.06125 16 12.0013 16C14.9413 16 17.4412 14.2 18.4813 11.64ZM14.8413 8.45L14.2213 9.21C14.1213 9.32 14.0512 9.54 14.0613 9.69L14.1213 10.67C14.1613 11.27 13.7313 11.58 13.1713 11.36L12.2613 11C12.1213 10.95 11.8813 10.95 11.7413 11L10.8313 11.36C10.2713 11.58 9.84125 11.27 9.88125 10.67L9.94125 9.69C9.95125 9.54 9.88124 9.32 9.78125 9.21L9.16125 8.45C8.77125 7.99 8.94125 7.48 9.52125 7.33L10.4713 7.09C10.6213 7.05 10.8013 6.91 10.8813 6.78L11.4113 5.96C11.7413 5.45 12.2613 5.45 12.5913 5.96L13.1212 6.78C13.2013 6.91 13.3813 7.05 13.5313 7.09L14.4813 7.33C15.0613 7.48 15.2313 7.99 14.8413 8.45Z" fill="white"/>
</svg>
