<svg width="24" height="24" viewBox="0 0 24 24" fill="none" xmlns="http://www.w3.org/2000/svg">
<path d="M12.9004 12.9805V16.1182C13.4184 16.0226 13.8899 15.8449 14.2656 15.5992C14.8443 15.2209 15.0004 14.8217 15.0004 14.5493C15.0004 14.2769 14.8443 13.8778 14.2656 13.4995C13.8899 13.2538 13.4184 13.0761 12.9004 12.9805Z" fill="#0F172A"/>
<path d="M9.99514 10.3415C10.0597 10.4086 10.1332 10.4747 10.2165 10.5391C10.466 10.7319 10.7679 10.8794 11.0996 10.9744V7.92188C11.0101 7.94748 10.9229 7.97691 10.8382 8.01002C10.7843 8.0311 10.7314 8.05368 10.6797 8.07772C10.5116 8.15589 10.3558 8.24946 10.2165 8.35716C9.76351 8.70718 9.59961 9.10913 9.59961 9.44813C9.59961 9.66874 9.66902 9.91601 9.84235 10.1583C9.88639 10.2198 9.93712 10.2811 9.99514 10.3415Z" fill="#0F172A"/>
<path fill-rule="evenodd" clip-rule="evenodd" d="M21.6004 11.9984C21.6004 17.3004 17.3024 21.5984 12.0004 21.5984C6.69845 21.5984 2.40039 17.3004 2.40039 11.9984C2.40039 6.6965 6.69845 2.39844 12.0004 2.39844C17.3024 2.39844 21.6004 6.6965 21.6004 11.9984ZM12.0003 4.79844C12.4974 4.79844 12.9003 5.20139 12.9003 5.69844V6.07745C13.6112 6.20371 14.3022 6.48356 14.8841 6.93315C15.3956 7.32839 15.7764 7.82047 15.9942 8.37319C16.1765 8.83562 15.9494 9.35826 15.487 9.54053C15.0245 9.72279 14.5019 9.49568 14.3196 9.03325C14.2323 8.81168 14.0644 8.57454 13.7835 8.35747C13.534 8.16467 13.2321 8.01714 12.9003 7.92218V11.1578C13.738 11.2692 14.5596 11.5403 15.2506 11.992C16.195 12.6096 16.8003 13.5157 16.8003 14.5484C16.8003 15.5812 16.195 16.4873 15.2506 17.1048C14.5596 17.5566 13.738 17.8277 12.9003 17.9392V18.2984C12.9003 18.7955 12.4974 19.1984 12.0003 19.1984C11.5033 19.1984 11.1003 18.7955 11.1003 18.2984V17.9392C10.2626 17.8277 9.44103 17.5566 8.75008 17.1048C8.17103 16.7262 7.72083 16.2436 7.45643 15.6791C7.24563 15.2288 7.43963 14.693 7.88978 14.4823C8.33991 14.2715 8.87572 14.4655 9.08653 14.9156C9.18349 15.1226 9.3807 15.3665 9.73514 15.5983C10.1108 15.844 10.5824 16.0216 11.1003 16.1173V12.8195C10.3895 12.6931 9.69839 12.4133 9.11656 11.9637C8.28079 11.3179 7.80032 10.4146 7.80032 9.44844C7.80032 8.48223 8.2808 7.57898 9.11656 6.93315C9.69839 6.48356 10.3895 6.20371 11.1003 6.07745V5.69844C11.1003 5.20139 11.5033 4.79844 12.0003 4.79844Z" fill="#0F172A"/>
</svg>
