<svg width="24" height="24" viewBox="0 0 24 24" fill="none" xmlns="http://www.w3.org/2000/svg">
<path fill-rule="evenodd" clip-rule="evenodd" d="M12.0004 21.5984C17.3024 21.5984 21.6004 17.3004 21.6004 11.9984C21.6004 6.6965 17.3024 2.39844 12.0004 2.39844C6.69845 2.39844 2.40039 6.6965 2.40039 11.9984C2.40039 17.3004 6.69845 21.5984 12.0004 21.5984ZM10.5576 8.93889C11.1728 8.13444 11.9198 7.79844 12.6004 7.79844C13.281 7.79844 14.028 8.13444 14.6432 8.93889C14.9451 9.33374 15.51 9.40905 15.9048 9.10711C16.2996 8.80518 16.375 8.24033 16.0731 7.84549C15.1652 6.65827 13.916 5.99844 12.6004 5.99844C11.2848 5.99844 10.0356 6.65827 9.12775 7.84549C8.72641 8.37032 8.41609 8.96523 8.19676 9.59844H6.90039C6.40334 9.59844 6.00039 10.0014 6.00039 10.4984C6.00039 10.9955 6.40334 11.3984 6.90039 11.3984H7.82412C7.79248 11.7974 7.79248 12.1996 7.82412 12.5984H6.90039C6.40334 12.5984 6.00039 13.0014 6.00039 13.4984C6.00039 13.9955 6.40334 14.3984 6.90039 14.3984H8.19676C8.41609 15.0317 8.72641 15.6265 9.12775 16.1514C10.0356 17.3386 11.2848 17.9984 12.6004 17.9984C13.916 17.9984 15.1652 17.3386 16.0731 16.1514C16.375 15.7566 16.2996 15.1916 15.9048 14.8897C15.51 14.5878 14.9451 14.6632 14.6432 15.058C14.028 15.8624 13.281 16.1984 12.6004 16.1984C11.9198 16.1984 11.1728 15.8624 10.5576 15.058C10.4012 14.8535 10.264 14.6322 10.1459 14.3984H12.3004C12.7974 14.3984 13.2004 13.9955 13.2004 13.4984C13.2004 13.0014 12.7974 12.5984 12.3004 12.5984H9.63149C9.59002 12.2006 9.59002 11.7963 9.63149 11.3984H12.3004C12.7974 11.3984 13.2004 10.9955 13.2004 10.4984C13.2004 10.0014 12.7974 9.59844 12.3004 9.59844H10.1459C10.264 9.36462 10.4012 9.14341 10.5576 8.93889Z" fill="#0F172A"/>
</svg>
