<svg width="24" height="24" viewBox="0 0 24 24" fill="none" xmlns="http://www.w3.org/2000/svg">
<path fill-rule="evenodd" clip-rule="evenodd" d="M12.0004 21.5984C17.3024 21.5984 21.6004 17.3004 21.6004 11.9984C21.6004 6.6965 17.3024 2.39844 12.0004 2.39844C6.69845 2.39844 2.40039 6.6965 2.40039 11.9984C2.40039 17.3004 6.69845 21.5984 12.0004 21.5984ZM8.81536 6.35171C8.51342 5.95687 7.94858 5.88156 7.55373 6.18349C7.15889 6.48542 7.08358 7.05027 7.38552 7.44512L10.8674 11.9984H8.10044C7.60339 11.9984 7.20044 12.4014 7.20044 12.8984C7.20044 13.3955 7.60339 13.7984 8.10044 13.7984H11.1004V14.9984H8.10044C7.60339 14.9984 7.20044 15.4014 7.20044 15.8984C7.20044 16.3955 7.60339 16.7984 8.10044 16.7984H11.1004V18.2984C11.1004 18.7955 11.5034 19.1984 12.0004 19.1984C12.4976 19.1984 12.9004 18.7955 12.9004 18.2984V16.7984H15.9004C16.3976 16.7984 16.8004 16.3955 16.8004 15.8984C16.8004 15.4014 16.3976 14.9984 15.9004 14.9984H12.9004V13.7984H15.9004C16.3976 13.7984 16.8004 13.3955 16.8004 12.8984C16.8004 12.4014 16.3976 11.9984 15.9004 11.9984H13.1334L16.6154 7.44512C16.9173 7.05027 16.842 6.48542 16.4471 6.18349C16.0523 5.88156 15.4875 5.95687 15.1856 6.35171L12.0004 10.5168L8.81536 6.35171Z" fill="#0F172A"/>
</svg>
