<svg width="24" height="24" viewBox="0 0 24 24" fill="none" xmlns="http://www.w3.org/2000/svg">
<path fill-rule="evenodd" clip-rule="evenodd" d="M12.0004 21.5984C17.3024 21.5984 21.6004 17.3004 21.6004 11.9984C21.6004 6.6965 17.3024 2.39844 12.0004 2.39844C6.69845 2.39844 2.40039 6.6965 2.40039 11.9984C2.40039 17.3004 6.69845 21.5984 12.0004 21.5984ZM7.20041 6.89844C7.20041 6.40139 7.60336 5.99844 8.10041 5.99844H15.9004C16.3974 5.99844 16.8004 6.40139 16.8004 6.89844C16.8004 7.39549 16.3974 7.79844 15.9004 7.79844H13.3476C13.8279 8.3975 14.1675 9.1142 14.3162 9.89844H15.9004C16.3974 9.89844 16.8004 10.3014 16.8004 10.7984C16.8004 11.2955 16.3974 11.6984 15.9004 11.6984H14.3162C13.9334 13.7164 12.2876 15.287 10.232 15.5573L12.3369 17.6621C12.6882 18.0136 12.6882 18.5833 12.3369 18.9348C11.9853 19.2863 11.4155 19.2863 11.064 18.9348L7.46402 15.3348C7.20662 15.0774 7.12963 14.6903 7.26892 14.354C7.40823 14.0177 7.73641 13.7984 8.10041 13.7984H9.60041C10.9437 13.7984 12.0808 12.9156 12.4631 11.6984H8.10039C7.60334 11.6984 7.20039 11.2955 7.20039 10.7984C7.20039 10.3014 7.60334 9.89844 8.10039 9.89844H12.4631C12.0808 8.6813 10.9437 7.79844 9.60041 7.79844H8.10041C7.60336 7.79844 7.20041 7.39549 7.20041 6.89844Z" fill="#0F172A"/>
</svg>
