<svg width="24" height="24" viewBox="0 0 24 24" fill="none" xmlns="http://www.w3.org/2000/svg">
<path fill-rule="evenodd" clip-rule="evenodd" d="M12.0004 21.5984C17.3024 21.5984 21.6004 17.3004 21.6004 11.9984C21.6004 6.6965 17.3024 2.39844 12.0004 2.39844C6.69845 2.39844 2.40039 6.6965 2.40039 11.9984C2.40039 17.3004 6.69845 21.5984 12.0004 21.5984ZM10.4791 7.47711C11.6506 6.30554 13.5502 6.30554 14.7218 7.47711C15.0732 7.82859 15.643 7.82859 15.9945 7.47711C16.346 7.12565 16.346 6.5558 15.9945 6.20432C14.12 4.32981 11.0808 4.32981 9.20627 6.20432C8.26919 7.1414 7.80039 8.3714 7.80039 9.59844V9.79621C7.80039 10.2338 7.84097 10.6697 7.92125 11.0984H7.50039C7.00334 11.0984 6.60039 11.5014 6.60039 11.9984C6.60039 12.4955 7.00334 12.8984 7.50039 12.8984H8.38508C8.61039 14.1368 8.46058 15.422 7.94382 16.5847L7.87796 16.7329C7.73995 17.0435 7.78861 17.4053 8.00377 17.6683C8.21893 17.9314 8.56389 18.0508 8.89563 17.977L10.4228 17.6376C11.0577 17.4966 11.7167 17.5052 12.3477 17.6629C13.3014 17.9014 14.2994 17.9014 15.2531 17.6629L16.4187 17.3716C16.9008 17.251 17.1941 16.7623 17.0735 16.2802C16.9529 15.798 16.4643 15.5047 15.9821 15.6253L14.8166 15.9167C14.1494 16.0835 13.4514 16.0835 12.7842 15.9167C11.8959 15.6947 10.9687 15.6792 10.0738 15.8714C10.3017 14.8975 10.3472 13.8893 10.208 12.8984H11.7004C12.1974 12.8984 12.6004 12.4955 12.6004 11.9984C12.6004 11.5014 12.1974 11.0984 11.7004 11.0984H9.76363C9.65535 10.6733 9.60039 10.2359 9.60039 9.79621V9.59844C9.60039 8.82927 9.89311 8.06309 10.4791 7.47711Z" fill="#0F172A"/>
</svg>
