<svg width="24" height="24" viewBox="0 0 24 24" fill="none" xmlns="http://www.w3.org/2000/svg">
<path fill-rule="evenodd" clip-rule="evenodd" d="M12.0004 2.39844C6.69845 2.39844 2.40039 6.6965 2.40039 11.9984C2.40039 17.3004 6.69845 21.5984 12.0004 21.5984C17.3024 21.5984 21.6004 17.3004 21.6004 11.9984C21.6004 6.6965 17.3024 2.39844 12.0004 2.39844ZM7.1276 6.59839C8.26153 5.46446 10.2004 6.26755 10.2004 7.87118V9.59844H17.1004C17.5974 9.59844 18.0004 10.0014 18.0004 10.4984C18.0004 10.9955 17.5974 11.3984 17.1004 11.3984H10.2004V16.5284C10.2004 16.8838 10.3727 17.0744 10.5115 17.1271C10.9731 17.3022 11.4745 17.3984 12.0004 17.3984C13.6727 17.3984 15.1187 16.4208 15.7943 15.0029H15.3004C14.8034 15.0029 14.4004 14.5999 14.4004 14.1029C14.4004 13.6058 14.8034 13.2029 15.3004 13.2029H15.945C16.4997 13.2029 17.0097 13.4563 17.3325 13.8703C17.6651 14.297 17.7918 14.8934 17.553 15.4753C16.6571 17.6584 14.5096 19.1984 12.0004 19.1984C11.253 19.1984 10.5356 19.0613 9.87326 18.8101C8.85163 18.4228 8.40039 17.414 8.40039 16.5284V11.3984H6.90039C6.40334 11.3984 6.00039 10.9955 6.00039 10.4984C6.00039 10.0014 6.40334 9.59844 6.90039 9.59844H8.40039V7.87118L8.13679 8.13479C7.78532 8.48627 7.21546 8.48627 6.86399 8.13479C6.51253 7.78332 6.51253 7.21347 6.86399 6.86199L7.1276 6.59839Z" fill="#0F172A"/>
</svg>
