<svg width="24" height="24" viewBox="0 0 24 24" fill="none" xmlns="http://www.w3.org/2000/svg">
<path d="M12 7.75H8.75V9.25H15.21C14.43 8.34 13.29 7.75 12 7.75Z" fill="white"/>
<path d="M16.25 12C16.25 11.56 16.16 11.15 16.04 10.75H8.75V13.25H16.04C16.16 12.85 16.25 12.44 16.25 12Z" fill="white"/>
<path d="M12 2C6.48001 2 2 6.48 2 12C2 17.52 6.48001 22 12 22C17.52 22 22.0001 17.52 22.0001 12C22.0001 6.48 17.52 2 12 2ZM18.5201 14.75H17.0501C16.07 16.54 14.18 17.75 12 17.75H8C7.59001 17.75 7.25 17.41 7.25 17V14.75H6.47998C6.06998 14.75 5.72998 14.41 5.72998 14C5.72998 13.59 6.06998 13.25 6.47998 13.25H7.25V10.75H6.47998C6.06998 10.75 5.72998 10.41 5.72998 10C5.72998 9.59 6.06998 9.25 6.47998 9.25H7.25V7C7.25 6.59 7.59001 6.25 8 6.25H12C14.18 6.25 16.07 7.46 17.0501 9.25H18.5201C18.93 9.25 19.2701 9.59 19.2701 10C19.2701 10.41 18.93 10.75 18.5201 10.75H17.61C17.7 11.15 17.75 11.57 17.75 12C17.75 12.43 17.7 12.85 17.61 13.25H18.5201C18.93 13.25 19.2701 13.59 19.2701 14C19.2701 14.41 18.93 14.75 18.5201 14.75Z" fill="white"/>
<path d="M8.75 16.25H12C13.29 16.25 14.43 15.66 15.21 14.75H8.75V16.25Z" fill="white"/>
</svg>
