<svg width="24" height="24" viewBox="0 0 24 24" fill="none" xmlns="http://www.w3.org/2000/svg">
<path d="M7.11945 3.5H15.9995C19.9994 3.5 21.9995 6 21.9995 9.5V12C21.9995 17 18.9995 20.5 13.4994 20.5H3.93945L4.99946 16.25H12.4394C15.9995 16.25 17.7494 14 17.7494 10.94V10.75C17.7494 9 16.9994 7.75 14.7494 7.75H6.05946L7.11945 3.5Z" fill="white"/>
<path d="M12.4095 10.2344H4.69952C3.61952 10.2344 2.67951 10.9744 2.40951 12.0144L2.15952 13.0344C2.06952 13.4044 2.34951 13.7644 2.72952 13.7644H10.4395C11.5195 13.7644 12.4595 13.0243 12.7295 11.9844L12.9795 10.9644C13.0795 10.5944 12.7895 10.2344 12.4095 10.2344Z" fill="white"/>
</svg>
