<svg width="24" height="24" viewBox="0 0 24 24" fill="none" xmlns="http://www.w3.org/2000/svg">
<path d="M20 6V6.24H14.87C11.9 6.24 10.52 7.62 10.52 10.59V15.7H9.75001V19.25H10.52V20.75H4.95001C4.54 20.75 4.20001 20.41 4.20001 20C4.20001 19.59 4.54 19.25 4.95001 19.25H8.25001V15.7H6.00001C2.87 15.7 2.03 14.93 2 11.9V6C2 2.8 2.8 2 6.00001 2H16.0001C19.2 2 20 2.8 20 6Z" fill="white"/>
<path d="M19.9995 7.78829C19.7496 7.75829 19.4595 7.73828 19.1496 7.73828H14.8695C12.7296 7.73828 12.0195 8.44829 12.0195 10.5882V19.2483C12.0295 19.8682 12.0996 20.3583 12.2496 20.7483C12.5995 21.6583 13.3896 21.9982 14.8695 21.9982H19.1496C21.2895 21.9982 21.9996 21.2883 21.9996 19.1482V10.5882C21.9996 8.75828 21.4795 7.97828 19.9995 7.78829ZM17.0095 10.0883C17.8795 10.0883 18.5796 10.7882 18.5796 11.6582C18.5796 12.5283 17.8795 13.2283 17.0095 13.2283C16.1395 13.2283 15.4395 12.5283 15.4395 11.6582C15.4395 10.7882 16.1395 10.0883 17.0095 10.0883ZM17.0095 19.1482C15.8295 19.1482 14.8695 18.1882 14.8695 17.0083C14.8695 16.5183 15.0396 16.0582 15.3195 15.6982C15.7095 15.1983 16.3195 14.8683 17.0095 14.8683C17.5495 14.8683 18.0396 15.0682 18.4095 15.3883C18.8595 15.7882 19.1496 16.3683 19.1496 17.0083C19.1496 18.1882 18.1896 19.1482 17.0095 19.1482Z" fill="white"/>
<path d="M19.9995 7.78829C19.7496 7.75829 19.4595 7.73828 19.1496 7.73828H14.8695C12.7296 7.73828 12.0195 8.44829 12.0195 10.5882V19.2483C12.0295 19.8682 12.0996 20.3583 12.2496 20.7483C12.5995 21.6583 13.3896 21.9982 14.8695 21.9982H19.1496C21.2895 21.9982 21.9996 21.2883 21.9996 19.1482V10.5882C21.9996 8.75828 21.4795 7.97828 19.9995 7.78829ZM17.0095 10.0883C17.8795 10.0883 18.5796 10.7882 18.5796 11.6582C18.5796 12.5283 17.8795 13.2283 17.0095 13.2283C16.1395 13.2283 15.4395 12.5283 15.4395 11.6582C15.4395 10.7882 16.1395 10.0883 17.0095 10.0883ZM17.0095 19.1482C15.8295 19.1482 14.8695 18.1882 14.8695 17.0083C14.8695 16.5183 15.0396 16.0582 15.3195 15.6982C15.7095 15.1983 16.3195 14.8683 17.0095 14.8683C17.5495 14.8683 18.0396 15.0682 18.4095 15.3883C18.8595 15.7882 19.1496 16.3683 19.1496 17.0083C19.1496 18.1882 18.1896 19.1482 17.0095 19.1482Z" fill="white"/>
</svg>
