<svg width="24" height="24" viewBox="0 0 24 24" fill="none" xmlns="http://www.w3.org/2000/svg">
<path d="M9.59961 19.5016C9.59961 19.0045 10.0026 18.6016 10.4996 18.6016H13.4996C13.9966 18.6016 14.3996 19.0045 14.3996 19.5016C14.3996 19.9986 13.9966 20.4016 13.4996 20.4016H10.4996C10.0026 20.4016 9.59961 19.9986 9.59961 19.5016Z" fill="#0F172A"/>
<path fill-rule="evenodd" clip-rule="evenodd" d="M4.80078 4.79922C4.80078 2.811 6.41256 1.19922 8.40078 1.19922H15.6008C17.5891 1.19922 19.2008 2.811 19.2008 4.79922V19.1992C19.2008 21.1875 17.5891 22.7992 15.6008 22.7992H8.40078C6.41256 22.7992 4.80078 21.1875 4.80078 19.1992V4.79922ZM9.60078 2.99922V3.89922C9.60078 4.39627 10.0037 4.79922 10.5008 4.79922H13.5008C13.9978 4.79922 14.4008 4.39627 14.4008 3.89922V2.99922H15.6008C16.5949 2.99922 17.4008 3.8051 17.4008 4.79922V19.1992C17.4008 20.1933 16.5949 20.9992 15.6008 20.9992H8.40078C7.40667 20.9992 6.60078 20.1933 6.60078 19.1992V4.79922C6.60078 3.8051 7.40667 2.99922 8.40078 2.99922H9.60078Z" fill="#0F172A"/>
</svg>
