<svg width="24" height="24" viewBox="0 0 24 24" fill="none" xmlns="http://www.w3.org/2000/svg">
<path fill-rule="evenodd" clip-rule="evenodd" d="M6.00039 1.19922C4.01217 1.19922 2.40039 2.811 2.40039 4.79922V19.1992C2.40039 21.1875 4.01217 22.7992 6.00039 22.7992H18.0004C19.9887 22.7992 21.6004 21.1875 21.6004 19.1992V4.79922C21.6004 2.811 19.9887 1.19922 18.0004 1.19922H6.00039ZM4.20039 4.79922C4.20039 3.8051 5.00627 2.99922 6.00039 2.99922H18.0004C18.9945 2.99922 19.8004 3.8051 19.8004 4.79922V19.1992C19.8004 20.1933 18.9945 20.9992 18.0004 20.9992H6.00039C5.00627 20.9992 4.20039 20.1933 4.20039 19.1992V4.79922ZM10.5004 18.5992C10.0033 18.5992 9.60039 19.0022 9.60039 19.4992C9.60039 19.9963 10.0033 20.3992 10.5004 20.3992H13.5004C13.9974 20.3992 14.4004 19.9963 14.4004 19.4992C14.4004 19.0022 13.9974 18.5992 13.5004 18.5992H10.5004Z" fill="#0F172A"/>
</svg>
