<svg width="24" height="24" viewBox="0 0 24 24" fill="none" xmlns="http://www.w3.org/2000/svg">
<path d="M15.7194 9.68563C13.6694 7.62562 10.3294 7.62562 8.27937 9.68563C6.21938 11.7456 6.21938 15.0756 8.27937 17.1256C10.3394 19.1856 13.6694 19.1856 15.7194 17.1256C17.7794 15.0656 17.7794 11.7356 15.7194 9.68563ZM12.5294 13.9356L10.9394 15.5256C10.7894 15.6756 10.5994 15.7456 10.4094 15.7456C10.2194 15.7456 10.0194 15.6756 9.87938 15.5256C9.58937 15.2356 9.58937 14.7556 9.87938 14.4556L11.4694 12.8656C11.7594 12.5756 12.2394 12.5756 12.5394 12.8656C12.8294 13.1656 12.8294 13.6456 12.5294 13.9356Z" fill="white"/>
<path d="M19.6001 5.80876C19.3801 5.58875 19.1 5.46875 18.7901 5.46875C18.4801 5.46875 18.2 5.58875 17.9801 5.79875C17.5301 6.24875 17.5301 6.96875 17.9801 7.41875C18.2 7.63876 18.4801 7.75876 18.7901 7.75876C19.1 7.75876 19.3801 7.63876 19.6001 7.42876C19.82 7.20875 19.94 6.92875 19.94 6.61876C19.94 6.30875 19.82 6.01876 19.6001 5.80876Z" fill="white"/>
<path d="M6.0186 19.3907C5.79859 19.1708 5.5186 19.0508 5.2086 19.0508C4.89859 19.0508 4.6186 19.1708 4.3986 19.3808C4.17859 19.6007 4.05859 19.8808 4.05859 20.1908C4.05859 20.5007 4.17859 20.7808 4.3986 21.0008C4.6186 21.2207 4.9186 21.3308 5.2086 21.3308C5.49859 21.3308 5.79859 21.2207 6.0186 20.9908C6.45859 20.5607 6.45859 19.8308 6.0186 19.3907Z" fill="white"/>
<path d="M22.4087 12.5979C22.1987 12.3778 21.9088 12.2679 21.5987 12.2578C21.2887 12.2578 21.0088 12.3778 20.7887 12.5979C20.3387 13.0479 20.3387 13.7679 20.7887 14.2179C21.0088 14.4379 21.3088 14.5479 21.5987 14.5479C21.8887 14.5479 22.1887 14.4379 22.4087 14.2179C22.8587 13.7679 22.8587 13.0378 22.4087 12.5979Z" fill="white"/>
<path d="M3.20946 12.5994C2.76945 12.1594 2.03946 12.1494 1.58946 12.5994C1.13945 13.0494 1.13945 13.7694 1.58946 14.2194C1.80945 14.4394 2.10945 14.5494 2.39946 14.5494C2.68945 14.5494 2.98945 14.4394 3.20946 14.2194C3.64945 13.7694 3.64945 13.0394 3.20946 12.5994Z" fill="white"/>
<path d="M19.6001 19.3922C19.1501 18.9422 18.4301 18.9422 17.9801 19.3922C17.5301 19.8422 17.5301 20.5622 17.9801 21.0122C18.2 21.2321 18.5 21.3422 18.7901 21.3422C19.0801 21.3422 19.3801 21.2321 19.6001 21.0122C19.82 20.7921 19.94 20.5022 19.94 20.2022C19.94 19.8921 19.82 19.6022 19.6001 19.3922Z" fill="white"/>
<path d="M6.0186 5.80876C5.79859 5.58875 5.5186 5.46875 5.2086 5.46875C4.89859 5.46875 4.6186 5.58875 4.3986 5.79875C4.17859 6.01876 4.05859 6.29875 4.05859 6.60875C4.05859 6.91876 4.17859 7.20875 4.3986 7.41875C4.6186 7.63876 4.89859 7.75876 5.2086 7.75876C5.5186 7.75876 5.79859 7.63876 6.0186 7.42876C6.45859 6.97876 6.45859 6.24875 6.0186 5.80876Z" fill="white"/>
<path d="M12.8095 3.00156C12.8095 2.99157 12.8095 2.99157 12.8095 3.00156C12.3595 2.55156 11.6396 2.55156 11.1896 3.00156C10.9696 3.22156 10.8496 3.51156 10.8496 3.81156C10.8496 4.12156 10.9696 4.40157 11.1796 4.62156C11.3996 4.84156 11.6796 4.96156 11.9896 4.96156C12.2995 4.96156 12.5796 4.84156 12.7996 4.62156C13.2595 4.17156 13.2595 3.44157 12.8095 3.00156Z" fill="white"/>
</svg>
