<svg width="24" height="24" viewBox="0 0 24 24" fill="none" xmlns="http://www.w3.org/2000/svg">
<path d="M18.6896 11.5308C18.1196 11.3808 17.4497 11.3008 16.6496 11.3008C15.5396 11.3008 15.1297 11.5708 14.5597 12.0008C14.5297 12.0208 14.4997 12.0508 14.4697 12.0808L13.5197 13.0907C12.7297 13.9408 11.2797 13.9408 10.4797 13.0907L9.52969 12.0908C9.49969 12.0508 9.46969 12.0208 9.43969 12.0008C8.85968 11.5708 8.44969 11.3008 7.34968 11.3008C6.54968 11.3008 5.87968 11.3708 5.30968 11.5308C2.92969 12.1708 2.92969 14.0608 2.92969 15.7208V16.6508C2.92969 19.1608 2.92969 22.0007 8.27968 22.0007H15.7196C19.2697 22.0007 21.0697 20.2007 21.0697 16.6508V15.7208C21.0697 14.0608 21.0697 12.1708 18.6896 11.5308Z" fill="white"/>
<path d="M14.791 2H9.21101C4.79102 2 4.79102 4.35 4.79102 6.42V10.12C4.83101 10.1 4.88102 10.09 4.92101 10.08C5.62101 9.89 6.41102 9.8 7.35101 9.8C8.89101 9.8 9.62102 10.25 10.341 10.8C10.441 10.87 10.541 10.96 10.631 11.06L11.571 12.05C11.671 12.16 11.831 12.22 12.001 12.22C12.171 12.22 12.331 12.16 12.421 12.06L13.381 11.05C13.461 10.97 13.551 10.88 13.651 10.81C14.391 10.25 15.111 9.8 16.651 9.8C17.5909 9.8 18.381 9.89 19.081 10.08C19.1209 10.09 19.171 10.1 19.2109 10.12V6.42C19.2109 4.35 19.2109 2 14.791 2ZM13.551 8.5H10.451C10.071 8.5 9.75101 8.18 9.75101 7.8C9.75101 7.41 10.071 7.1 10.451 7.1H13.551C13.9309 7.1 14.251 7.41 14.251 7.8C14.251 8.18 13.9309 8.5 13.551 8.5ZM14.331 5.71H9.67101C9.29102 5.71 8.98101 5.39 8.98101 5.01C8.98101 4.62 9.29102 4.31 9.67101 4.31H14.331C14.7109 4.31 15.021 4.62 15.021 5.01C15.021 5.39 14.7109 5.71 14.331 5.71Z" fill="white"/>
</svg>
