<svg width="24" height="24" viewBox="0 0 24 24" fill="none" xmlns="http://www.w3.org/2000/svg">
<path d="M17.0192 2.72215L13.5392 4.46215C12.5692 4.94215 11.4392 4.94215 10.4692 4.46215L6.97925 2.71215C3.99924 1.22215 0.849242 4.44215 2.40924 7.39216L3.22925 8.93215C3.33924 9.14215 3.51924 9.31216 3.73925 9.41215L16.3892 15.1021C16.9093 15.3322 17.5192 15.1222 17.7793 14.6221L21.5893 7.38215C23.1392 4.44215 19.9993 1.22215 17.0192 2.72215Z" fill="white"/>
<path d="M15.6004 16.3131L7.32044 12.5832C6.39044 12.1632 5.45045 13.1631 5.93045 14.0631L8.97044 19.8331C10.2604 22.2831 13.7604 22.2831 15.0504 19.8331L16.1204 17.7931C16.4004 17.2431 16.1604 16.5732 15.6004 16.3131Z" fill="white"/>
</svg>
