<svg width="24" height="24" viewBox="0 0 24 24" fill="none" xmlns="http://www.w3.org/2000/svg">
<path d="M21.3 12.2305H17.82C16.8401 12.2305 15.9701 12.7705 15.53 13.6504L14.69 15.3105C14.49 15.7105 14.09 15.9604 13.65 15.9604H10.37C10.06 15.9604 9.62 15.8905 9.33001 15.3105L8.49001 13.6605C8.05 12.7905 7.17001 12.2404 6.2 12.2404H2.70001C2.31001 12.2404 2 12.5505 2 12.9405V16.2004C2 19.8304 4.18 22.0005 7.82 22.0005H16.2C19.6301 22.0005 21.74 20.1205 22.0001 16.7805V12.9304C22.0001 12.5505 21.69 12.2305 21.3 12.2305Z" fill="white"/>
<path d="M12.75 2C12.75 1.59 12.41 1.25 12 1.25C11.59 1.25 11.25 1.59 11.25 2V4H12.75V2Z" fill="white"/>
<path d="M22.0001 9.81V10.85C21.78 10.77 21.54 10.73 21.3 10.73H17.82C16.2701 10.73 14.88 11.59 14.19 12.97L13.44 14.45H10.58L9.83 12.98C9.14 11.59 7.75 10.73 6.2 10.73H2.70001C2.46001 10.73 2.22001 10.77 2 10.85V9.81C2 6.17 4.17001 4 7.81 4H11.25V7.19L10.53 6.47C10.24 6.18 9.76 6.18 9.47 6.47C9.18001 6.76 9.18001 7.24 9.47 7.53L11.47 9.53C11.48 9.54 11.49 9.54 11.49 9.55C11.56 9.61 11.63 9.66 11.71 9.69C11.81 9.73 11.9 9.75 12 9.75C12.1001 9.75 12.1901 9.73 12.2801 9.69C12.3701 9.66 12.4601 9.6 12.53 9.53L14.5301 7.53C14.82 7.24 14.82 6.76 14.5301 6.47C14.24 6.18 13.76 6.18 13.47 6.47L12.75 7.19V4H16.19C19.83 4 22.0001 6.17 22.0001 9.81Z" fill="white"/>
</svg>
