<svg width="24" height="24" viewBox="0 0 24 24" fill="none" xmlns="http://www.w3.org/2000/svg">
<path d="M2.71106 17.0192L4.45106 13.5392C4.93106 12.5692 4.93106 11.4392 4.45106 10.4692L2.71106 6.97925C1.22106 3.99924 4.43106 0.849244 7.38105 2.40924L8.92106 3.22925C9.14106 3.33924 9.31105 3.51924 9.40105 3.73925L15.091 16.3892C15.3211 16.9093 15.1111 17.5192 14.611 17.7793L7.37106 21.5893C4.43106 23.1493 1.22106 19.9993 2.71106 17.0192Z" fill="white"/>
<path d="M16.3112 15.6043L12.5812 7.32435C12.1612 6.39435 13.1612 5.45435 14.0612 5.93435L19.8312 8.97435C22.2812 10.2643 22.2812 13.7642 19.8312 15.0542L17.7912 16.1243C17.2412 16.4042 16.5712 16.1743 16.3112 15.6043Z" fill="white"/>
</svg>
