<svg width="24" height="24" viewBox="0 0 24 24" fill="none" xmlns="http://www.w3.org/2000/svg">
<path d="M21.2897 17.0218L19.5497 13.5418C19.0697 12.5718 19.0697 11.4417 19.5497 10.4718L21.2897 6.99178C22.7797 4.00179 19.5697 0.861781 16.6196 2.42178L15.0797 3.24178C14.8697 3.35178 14.6996 3.53178 14.5997 3.75178L8.89968 16.3918C8.66969 16.9117 8.87969 17.5218 9.37969 17.7817L16.6196 21.5917C19.5697 23.1517 22.7797 20.0017 21.2897 17.0218Z" fill="white"/>
<path d="M7.68953 15.6043L11.4195 7.32435C11.8395 6.39435 10.8395 5.45435 9.93953 5.93435L4.16953 8.96435C1.71953 10.2543 1.71953 13.7543 4.16953 15.0443L6.20953 16.1143C6.75953 16.4042 7.42954 16.1743 7.68953 15.6043Z" fill="white"/>
</svg>
