<svg width="24" height="24" viewBox="0 0 24 24" fill="none" xmlns="http://www.w3.org/2000/svg">
<path d="M19 8C20.657 8 22 6.65685 22 5C22 3.34315 20.657 2 19 2C17.3432 2 16 3.34315 16 5C16 6.65685 17.3432 8 19 8Z" fill="white"/>
<path d="M20.34 12.7171H17.03C16.1 12.7171 15.27 13.2371 14.85 14.057L14.0501 15.6371C13.86 16.0171 13.4801 16.247 13.0601 16.247H9.95C9.66001 16.247 9.23 16.187 8.96 15.6271L8.17 14.057C7.75 13.2271 6.92 12.707 5.99 12.707H2.66C2.3 12.7171 2 13.0171 2 13.3771V16.4671C2 19.937 4.07 21.9971 7.53001 21.9971H15.4901C18.75 21.9971 20.76 20.207 21 17.0371V13.3771C21 13.0171 20.7 12.7171 20.34 12.7171Z" fill="white"/>
<path d="M21 10.4V11.33C20.79 11.26 20.57 11.22 20.34 11.22H17.03C15.53 11.22 14.18 12.05 13.52 13.39L12.8201 14.76H10.19L9.51001 13.4C8.83 12.05 7.49 11.22 5.99 11.22H2.66C2.43001 11.22 2.21 11.26 2 11.33V8.52C2 5.47 4.47001 3 7.52 3H13.6001C14.24 3 14.7 3.58 14.58 4.2C14.42 5 14.49 5.87 14.88 6.79C15.33 7.83 16.17 8.67 17.21 9.12C18.1301 9.51 19.0001 9.58 19.8 9.42C20.42 9.3 21 9.76 21 10.4Z" fill="white"/>
</svg>
