<svg width="24" height="24" viewBox="0 0 24 24" fill="none" xmlns="http://www.w3.org/2000/svg">
<path d="M17.0192 21.2917L13.5392 19.5517C12.5692 19.0717 11.4392 19.0717 10.4692 19.5517L6.98918 21.2917C3.99918 22.7817 0.849179 19.5717 2.40918 16.6216L3.22919 15.0817C3.33918 14.8717 3.51918 14.7016 3.73919 14.6017L16.3792 8.90164C16.8992 8.67164 17.5093 8.88165 17.7692 9.38164L21.5792 16.6216C23.1392 19.5717 19.9993 22.7817 17.0192 21.2917Z" fill="white"/>
<path d="M15.6004 7.68562L7.32044 11.4156C6.39044 11.8356 5.45045 10.8356 5.93045 9.93562L8.97044 4.16563C10.2604 1.71562 13.7604 1.71562 15.0504 4.16563L16.1204 6.20563C16.4004 6.75562 16.1604 7.43563 15.6004 7.68562Z" fill="white"/>
</svg>
