<svg width="24" height="24" viewBox="0 0 24 24" fill="none" xmlns="http://www.w3.org/2000/svg">
<path d="M18.6896 11.5308C18.1196 11.3808 17.4497 11.3008 16.6496 11.3008C15.5396 11.3008 15.1297 11.5708 14.5597 12.0008C14.5297 12.0208 14.4997 12.0508 14.4697 12.0808L13.5197 13.0907C12.7196 13.9307 11.2797 13.9408 10.4797 13.0808L9.52969 12.0808C9.49969 12.0508 9.46969 12.0208 9.43969 12.0008C8.86969 11.5708 8.45968 11.3008 7.34968 11.3008C6.54968 11.3008 5.87968 11.3808 5.30968 11.5308C2.92969 12.1708 2.92969 14.0608 2.92969 15.7208V16.6508C2.92969 19.1608 2.92969 22.0007 8.27968 22.0007H15.7196C19.2697 22.0007 21.0697 20.2007 21.0697 16.6508V15.7208C21.0697 14.0608 21.0697 12.1708 18.6896 11.5308ZM14.3297 18.4007H9.66968C9.28969 18.4007 8.97968 18.0908 8.97968 17.7008C8.97968 17.3108 9.28969 17.0008 9.66968 17.0008H14.3297C14.7097 17.0008 15.0197 17.3108 15.0197 17.7008C15.0197 18.0908 14.7097 18.4007 14.3297 18.4007Z" fill="white"/>
<path d="M19.2109 6.42V10.12C19.171 10.1 19.1209 10.09 19.081 10.08C18.381 9.89 17.5909 9.8 16.651 9.8C15.111 9.8 14.391 10.25 13.651 10.81C13.551 10.88 13.461 10.97 13.381 11.05L12.421 12.06C12.331 12.16 12.171 12.22 12.001 12.22C11.831 12.22 11.671 12.16 11.571 12.05L10.631 11.06C10.541 10.96 10.441 10.87 10.341 10.8C9.62102 10.25 8.89101 9.8 7.35101 9.8C6.41102 9.8 5.62101 9.89 4.92101 10.08C4.88102 10.09 4.83101 10.1 4.79102 10.12V6.42C4.79102 4.35 4.79102 2 9.21101 2H14.791C19.2109 2 19.2109 4.35 19.2109 6.42Z" fill="white"/>
</svg>
