<svg width="24" height="24" viewBox="0 0 24 24" fill="none" xmlns="http://www.w3.org/2000/svg">
<path d="M21.3 12.2305H17.82C16.8401 12.2305 15.9701 12.7705 15.53 13.6504L14.69 15.3105C14.49 15.7105 14.09 15.9604 13.65 15.9604H10.37C10.06 15.9604 9.62 15.8905 9.33001 15.3105L8.49001 13.6605C8.05 12.7905 7.17001 12.2404 6.2 12.2404H2.70001C2.31001 12.2404 2 12.5505 2 12.9405V16.2004C2 19.8304 4.18 22.0005 7.82 22.0005H16.2C19.6301 22.0005 21.74 20.1205 22.0001 16.7805V12.9304C22.0001 12.5505 21.69 12.2305 21.3 12.2305Z" fill="white"/>
<path d="M12.7492 3.81218L13.4692 4.53218C13.6192 4.68218 13.8092 4.75219 13.9993 4.75219C14.1892 4.75219 14.3792 4.68218 14.5292 4.53218C14.8192 4.24219 14.8192 3.76219 14.5292 3.47218L12.5293 1.47218C12.5192 1.46218 12.5092 1.46218 12.5092 1.45219C12.4492 1.39219 12.3692 1.34218 12.2893 1.30219C12.2792 1.30219 12.2792 1.30219 12.2692 1.29218C12.1892 1.26218 12.1093 1.25218 12.0292 1.24219C11.9992 1.24219 11.9792 1.24219 11.9492 1.24219C11.8892 1.24219 11.8292 1.26218 11.7692 1.28218C11.7392 1.29218 11.7192 1.30219 11.6992 1.31218C11.6192 1.35218 11.5392 1.39219 11.4792 1.46218L9.47922 3.46219C9.18922 3.75218 9.18922 4.23218 9.47922 4.52218C9.76923 4.81219 10.2492 4.81219 10.5392 4.52218L11.2592 3.80218V5.00218H12.7592V3.81218H12.7492Z" fill="white"/>
<path d="M22.0001 10.81V10.85C21.78 10.77 21.54 10.73 21.3 10.73H17.82C16.2701 10.73 14.88 11.59 14.19 12.97L13.44 14.45H10.58L9.83 12.98C9.14 11.59 7.75 10.73 6.2 10.73H2.70001C2.46001 10.73 2.22001 10.77 2 10.85V10.81C2 7.17 4.17001 5 7.81 5H11.25V9C11.25 9.41 11.59 9.75 12 9.75C12.41 9.75 12.75 9.41 12.75 9V5H16.19C19.83 5 22.0001 7.17 22.0001 10.81Z" fill="white"/>
</svg>
