<svg width="24" height="24" viewBox="0 0 24 24" fill="none" xmlns="http://www.w3.org/2000/svg">
<path d="M21.5308 10.8729L20.0109 9.35281C19.7509 9.09281 19.5409 8.58281 19.5409 8.22281V6.06281C19.5409 5.18281 18.8209 4.46281 17.9409 4.46281H15.7909C15.4309 4.46281 14.9209 4.25281 14.6608 3.99281L13.1409 2.47281C12.5209 1.85281 11.5009 1.85281 10.8809 2.47281L9.34086 3.99281C9.09085 4.25281 8.58085 4.46281 8.21086 4.46281H6.06085C5.18086 4.46281 4.46086 5.18281 4.46086 6.06281V8.21281C4.46086 8.57281 4.25086 9.08281 3.99087 9.34282L2.47086 10.8628C1.85086 11.4829 1.85086 12.5028 2.47086 13.1228L3.99087 14.6429C4.25086 14.9028 4.46086 15.4128 4.46086 15.7728V17.9228C4.46086 18.8028 5.18086 19.5228 6.06085 19.5228H8.21086C8.57086 19.5228 9.08086 19.7328 9.34086 19.9928L10.8609 21.5129C11.4809 22.1328 12.5008 22.1328 13.1209 21.5129L14.6409 19.9928C14.9008 19.7328 15.4108 19.5228 15.7708 19.5228H17.9209C18.8008 19.5228 19.5208 18.8028 19.5208 17.9228V15.7728C19.5208 15.4128 19.7308 14.9028 19.9909 14.6429L21.5109 13.1228C22.1608 12.5129 22.1608 11.4928 21.5308 10.8729ZM8.00086 9.00281C8.00086 8.45281 8.45086 8.00281 9.00085 8.00281C9.55086 8.00281 10.0009 8.45281 10.0009 9.00281C10.0009 9.55282 9.56086 10.0029 9.00085 10.0029C8.45086 10.0029 8.00086 9.55282 8.00086 9.00281ZM9.53086 15.5328C9.38086 15.6828 9.19086 15.7529 9.00085 15.7529C8.81086 15.7529 8.62086 15.6828 8.47086 15.5328C8.18086 15.2429 8.18086 14.7629 8.47086 14.4728L14.4709 8.47281C14.7609 8.18281 15.2409 8.18281 15.5308 8.47281C15.8209 8.76281 15.8209 9.24281 15.5308 9.53281L9.53086 15.5328ZM15.0009 16.0028C14.4409 16.0028 13.9909 15.5528 13.9909 15.0029C13.9909 14.4528 14.4409 14.0028 14.9908 14.0028C15.5409 14.0028 15.9909 14.4528 15.9909 15.0029C15.9909 15.5528 15.5509 16.0028 15.0009 16.0028Z" fill="white"/>
</svg>
