<svg width="24" height="24" viewBox="0 0 24 24" fill="none" xmlns="http://www.w3.org/2000/svg">
<path d="M20.9789 3.02475C20.1089 2.15475 18.8789 1.81474 17.6889 2.11474L7.88889 4.56474C6.23889 4.97475 4.96889 6.25474 4.55889 7.89475L2.10888 17.7047C1.80888 18.8947 2.14889 20.1247 3.01889 20.9947C3.67889 21.6448 4.54889 22.0046 5.44889 22.0046C5.72889 22.0046 6.01889 21.9746 6.29889 21.8947L16.109 19.4447C17.7489 19.0346 19.0289 17.7647 19.439 16.1147L21.8889 6.30474C22.1889 5.11474 21.8489 3.88474 20.9789 3.02475ZM11.9989 15.8846C9.85889 15.8846 8.11889 14.1446 8.11889 12.0047C8.11889 9.86475 9.85889 8.12475 11.9989 8.12475C14.1389 8.12475 15.8789 9.86475 15.8789 12.0047C15.8789 14.1446 14.1389 15.8846 11.9989 15.8846Z" fill="white"/>
</svg>
