<svg width="24" height="24" viewBox="0 0 24 24" fill="none" xmlns="http://www.w3.org/2000/svg">
<path d="M12 2C6.48001 2 2 6.48 2 12C2 17.52 6.48001 22 12 22C17.52 22 22.0001 17.52 22.0001 12C22.0001 6.48 17.52 2 12 2ZM9.00001 8C9.55 8 10 8.45 10 9C10 9.55 9.56 10 9.00001 10C8.45 10 8 9.55 8 9C8 8.45 8.45 8 9.00001 8ZM9.53 15.53C9.38 15.68 9.19 15.75 9.00001 15.75C8.81 15.75 8.62 15.68 8.47 15.53C8.18 15.24 8.18 14.76 8.47 14.47L14.4701 8.47C14.76 8.18 15.24 8.18 15.53 8.47C15.8201 8.76 15.8201 9.24 15.53 9.53L9.53 15.53ZM15 16C14.4401 16 13.9901 15.55 13.9901 15C13.9901 14.45 14.4401 14 14.99 14C15.54 14 15.99 14.45 15.99 15C15.99 15.55 15.5501 16 15 16Z" fill="white"/>
</svg>
