<svg width="24" height="24" viewBox="0 0 24 24" fill="none" xmlns="http://www.w3.org/2000/svg">
<path fill-rule="evenodd" clip-rule="evenodd" d="M3.59961 4.19844C3.59961 3.20432 4.40549 2.39844 5.39961 2.39844H13.654C14.1314 2.39844 14.5892 2.58809 14.9268 2.92565L19.8724 7.87123C20.21 8.2088 20.3996 8.66664 20.3996 9.14402V19.7984C20.3996 20.7925 19.5937 21.5984 18.5996 21.5984H5.39961C4.40549 21.5984 3.59961 20.7925 3.59961 19.7984V4.19844ZM15.8996 10.7984C16.3966 10.7984 16.7996 11.2014 16.7996 11.6984V17.0984C16.7996 17.5955 16.3966 17.9984 15.8996 17.9984C15.4026 17.9984 14.9996 17.5955 14.9996 17.0984V11.6984C14.9996 11.2014 15.4026 10.7984 15.8996 10.7984ZM8.09961 15.5984C8.59666 15.5984 8.99961 16.0014 8.99961 16.4984V17.0984C8.99961 17.5955 8.59666 17.9984 8.09961 17.9984C7.60256 17.9984 7.19961 17.5955 7.19961 17.0984V16.4984C7.19961 16.0014 7.60256 15.5984 8.09961 15.5984ZM12.8996 14.0984C12.8996 13.6014 12.4966 13.1984 11.9996 13.1984C11.5026 13.1984 11.0996 13.6014 11.0996 14.0984V17.0984C11.0996 17.5955 11.5026 17.9984 11.9996 17.9984C12.4966 17.9984 12.8996 17.5955 12.8996 17.0984V14.0984Z" fill="#0F172A"/>
</svg>
