<svg width="24" height="24" viewBox="0 0 24 24" fill="none" xmlns="http://www.w3.org/2000/svg">
<path fill-rule="evenodd" clip-rule="evenodd" d="M5.39961 2.39844C4.40549 2.39844 3.59961 3.20432 3.59961 4.19844V19.7984C3.59961 20.7925 4.40549 21.5984 5.39961 21.5984H18.5996C19.5937 21.5984 20.3996 20.7925 20.3996 19.7984V9.14402C20.3996 8.66664 20.21 8.2088 19.8724 7.87123L14.9268 2.92565C14.5892 2.58809 14.1314 2.39844 13.654 2.39844H5.39961ZM11.0996 15.8984C11.0996 16.3955 11.5026 16.7984 11.9996 16.7984C12.4966 16.7984 12.8996 16.3955 12.8996 15.8984V12.8438L14.0306 14.1005C14.3631 14.47 14.9322 14.5 15.3016 14.1674C15.6711 13.8349 15.7011 13.2659 15.3686 12.8964L12.6686 9.89637C12.4978 9.70673 12.2547 9.59844 11.9996 9.59844C11.7445 9.59844 11.5013 9.70673 11.3306 9.89637L8.63065 12.8964C8.29814 13.2659 8.32808 13.8349 8.69755 14.1674C9.067 14.5 9.63607 14.47 9.96857 14.1005L11.0996 12.8438V15.8984Z" fill="#0F172A"/>
</svg>
