<svg width="24" height="24" viewBox="0 0 24 24" fill="none" xmlns="http://www.w3.org/2000/svg">
<path d="M9.59961 11.9992C9.59961 11.0051 10.4055 10.1992 11.3996 10.1992C12.3937 10.1992 13.1996 11.0051 13.1996 11.9992C13.1996 12.4965 12.9991 12.9453 12.6724 13.2721C12.3457 13.5987 11.8969 13.7992 11.3996 13.7992C10.4055 13.7992 9.59961 12.9933 9.59961 11.9992Z" fill="#0F172A"/>
<path fill-rule="evenodd" clip-rule="evenodd" d="M5.39961 2.39844C4.40549 2.39844 3.59961 3.20432 3.59961 4.19844V19.7984C3.59961 20.7925 4.40549 21.5984 5.39961 21.5984H18.5996C19.5937 21.5984 20.3996 20.7925 20.3996 19.7984V9.14402C20.3996 8.66664 20.21 8.2088 19.8724 7.87123L14.9268 2.92565C14.5892 2.58809 14.1314 2.39844 13.654 2.39844H5.39961ZM11.3996 8.39844C9.41139 8.39844 7.79961 10.0102 7.79961 11.9984C7.79961 13.9867 9.41139 15.5984 11.3996 15.5984C12.0668 15.5984 12.6924 15.4164 13.2283 15.0998L14.6632 16.5348C15.0147 16.8863 15.5845 16.8863 15.936 16.5348C16.2874 16.1833 16.2874 15.6136 15.936 15.2621L14.501 13.8271C14.8176 13.2912 14.9996 12.6656 14.9996 11.9984C14.9996 10.0102 13.3879 8.39844 11.3996 8.39844Z" fill="#0F172A"/>
</svg>
