<svg width="24" height="24" viewBox="0 0 24 24" fill="none" xmlns="http://www.w3.org/2000/svg">
<path d="M16 2H8C4.5 2 3 4 3 7V11.47C3 11.82 3.34 12.06 3.66 11.94C4.76 11.51 6.01 11.37 7.3 11.63C9.9 12.15 11.97 14.29 12.4 16.9C12.66 18.49 12.34 20 11.61 21.25C11.41 21.58 11.65 22 12.04 22H16C19.5 22 21 20 21 17V7C21 4 19.5 2 16 2ZM18.5 9.25H16.5C14.98 9.25 13.75 8.02 13.75 6.5V4.5C13.75 4.09 14.09 3.75 14.5 3.75C14.91 3.75 15.25 4.09 15.25 4.5V6.5C15.25 7.19 15.81 7.75 16.5 7.75H18.5C18.91 7.75 19.25 8.09 19.25 8.5C19.25 8.91 18.91 9.25 18.5 9.25Z" fill="white"/>
<path d="M5.99999 13C3.23999 13 1 15.24 1 18C1 20.76 3.23999 23.0001 5.99999 23.0001C8.75999 23.0001 11 20.76 11 18C11 15.24 8.75999 13 5.99999 13ZM5.15999 19.27C5.41 19.5201 5.41 19.93 5.15999 20.19C5.03 20.32 4.87 20.38 4.7 20.38C4.52999 20.38 4.37 20.32 4.24 20.19L2.51 18.46C2.26 18.21 2.26 17.8 2.51 17.5401L4.24 15.81C4.49 15.5601 4.9 15.5601 5.15999 15.81C5.41 16.06 5.41 16.47 5.15999 16.7301L3.89 18L5.15999 19.27ZM9.47999 18.46L7.75 20.19C7.61999 20.32 7.46 20.38 7.28999 20.38C7.12 20.38 6.95999 20.32 6.83 20.19C6.58 19.9401 6.58 19.53 6.83 19.27L8.11 18L6.83999 16.7301C6.59 16.48 6.59 16.0701 6.83999 15.81C7.09 15.5601 7.49999 15.5601 7.76 15.81L9.49 17.5401C9.73 17.8 9.73 18.2001 9.47999 18.46Z" fill="white"/>
</svg>
