<svg width="24" height="24" viewBox="0 0 24 24" fill="none" xmlns="http://www.w3.org/2000/svg">
<path d="M15.5 13.15H13.3301C11.55 13.15 10.1 11.71 10.1 9.92V7.75C10.1 7.34 9.77 7 9.35 7H6.18001C3.87001 7 2 8.5 2 11.18V17.82C2 20.5 3.87001 22 6.18001 22H12.0701C14.3801 22 16.25 20.5 16.25 17.82V13.9C16.25 13.48 15.9101 13.15 15.5 13.15Z" fill="white"/>
<path d="M17.8198 2H15.8498H14.7598H11.9298C9.66976 2 7.83976 3.44 7.75977 6.01C7.81977 6.01 7.86976 6 7.92976 6H10.7598H11.8498H13.8198C16.1298 6 17.9998 7.5 17.9998 10.18V12.15V14.86V16.83C17.9998 16.89 17.9898 16.94 17.9898 16.99C20.2198 16.92 21.9998 15.44 21.9998 12.83V10.86V8.15V6.18C21.9998 3.5 20.1298 2 17.8198 2Z" fill="white"/>
<path d="M11.9806 7.1517C11.6706 6.84171 11.1406 7.05171 11.1406 7.4817V10.1018C11.1406 11.2018 12.0706 12.1017 13.2106 12.1017C13.9207 12.1118 14.9107 12.1118 15.7606 12.1118C16.1906 12.1118 16.4107 11.6118 16.1107 11.3118C15.0206 10.2218 13.0807 8.27171 11.9806 7.1517Z" fill="white"/>
</svg>
