<svg width="24" height="24" viewBox="0 0 24 24" fill="none" xmlns="http://www.w3.org/2000/svg">
<path fill-rule="evenodd" clip-rule="evenodd" d="M3.59961 4.19844C3.59961 3.20432 4.40549 2.39844 5.39961 2.39844H13.654C14.1314 2.39844 14.5892 2.58809 14.9268 2.92565L19.8724 7.87123C20.21 8.2088 20.3996 8.66664 20.3996 9.14402V19.7984C20.3996 20.7925 19.5937 21.5984 18.5996 21.5984H5.39961C4.40549 21.5984 3.59961 20.7925 3.59961 19.7984V4.19844ZM16.6275 11.0278C16.9198 10.6258 16.8309 10.0629 16.4289 9.77058C16.0269 9.47822 15.4641 9.56709 15.1717 9.96908L10.9912 15.7172L8.73601 13.4621C8.38454 13.1106 7.81468 13.1106 7.46321 13.4621C7.11174 13.8136 7.11174 14.3833 7.46321 14.7348L10.4632 17.7348C10.6493 17.9209 10.9076 18.0163 11.17 17.9957C11.4324 17.975 11.6727 17.8406 11.8275 17.6278L16.6275 11.0278Z" fill="#0F172A"/>
</svg>
