<svg width="24" height="24" viewBox="0 0 24 24" fill="none" xmlns="http://www.w3.org/2000/svg">
<path d="M20.5 10.19H17.61C15.24 10.19 13.3099 8.26 13.3099 5.89V3C13.3099 2.45 12.8599 2 12.31 2H8.06999C4.99 2 2.5 4 2.5 7.57V16.43C2.5 20 4.99 22 8.06999 22H15.93C19.0099 22 21.4999 20 21.4999 16.43V11.19C21.4999 10.64 21.0499 10.19 20.5 10.19ZM12.28 15.78L10.28 17.78C10.21 17.85 10.12 17.91 10.03 17.94C9.94 17.98 9.85 18 9.74999 18C9.65 18 9.56 17.98 9.47 17.94C9.38999 17.91 9.31 17.85 9.25 17.79C9.23999 17.78 9.23 17.78 9.23 17.77L7.22999 15.77C6.94 15.48 6.94 15 7.22999 14.71C7.52 14.42 8 14.42 8.29 14.71L8.99999 15.44V11.25C8.99999 10.84 9.34 10.5 9.74999 10.5C10.16 10.5 10.5 10.84 10.5 11.25V15.44L11.22 14.72C11.51 14.43 11.99 14.43 12.28 14.72C12.57 15.01 12.57 15.49 12.28 15.78Z" fill="white"/>
<path d="M17.4297 8.81049C18.3796 8.82048 19.6996 8.82048 20.8297 8.82048C21.3997 8.82048 21.6997 8.15049 21.2997 7.75048C19.8597 6.30048 17.2797 3.69048 15.7996 2.21049C15.3897 1.80048 14.6797 2.08048 14.6797 2.65048V6.14049C14.6797 7.60048 15.9196 8.81049 17.4297 8.81049Z" fill="white"/>
</svg>
