<svg width="24" height="24" viewBox="0 0 24 24" fill="none" xmlns="http://www.w3.org/2000/svg">
<path d="M8.40039 4.19844C8.40039 3.20432 9.20627 2.39844 10.2004 2.39844H14.8548C15.3322 2.39844 15.79 2.58809 16.1276 2.92565L19.8732 6.67123C20.2108 7.0088 20.4004 7.46664 20.4004 7.94402V14.9984C20.4004 15.9925 19.5945 16.7984 18.6004 16.7984H17.4004V12.744C17.4004 11.7892 17.0211 10.8736 16.346 10.1984L12.6004 6.45285C11.9253 5.77772 11.0096 5.39844 10.0548 5.39844H8.40039V4.19844Z" fill="#0F172A"/>
<path d="M5.39961 7.19922C4.40549 7.19922 3.59961 8.0051 3.59961 8.99922V19.7992C3.59961 20.7933 4.40549 21.5992 5.39961 21.5992H13.7996C14.7937 21.5992 15.5996 20.7933 15.5996 19.7992V12.7448C15.5996 12.2674 15.41 11.8096 15.0725 11.472L11.3268 7.72643C10.9893 7.38887 10.5314 7.19922 10.054 7.19922H5.39961Z" fill="#0F172A"/>
</svg>
