<svg width="24" height="24" viewBox="0 0 24 24" fill="none" xmlns="http://www.w3.org/2000/svg">
<path d="M20.5 10.19H17.61C15.24 10.19 13.3099 8.26 13.3099 5.89V3C13.3099 2.45 12.8599 2 12.31 2H8.06999C4.99 2 2.5 4 2.5 7.57V16.43C2.5 20 4.99 22 8.06999 22H15.93C19.0099 22 21.4999 20 21.4999 16.43V11.19C21.4999 10.64 21.0499 10.19 20.5 10.19ZM11.53 13.53C11.38 13.68 11.19 13.75 11 13.75C10.81 13.75 10.62 13.68 10.47 13.53L9.74999 12.81V17C9.74999 17.41 9.41 17.75 8.99999 17.75C8.59 17.75 8.24999 17.41 8.24999 17V12.81L7.52999 13.53C7.24 13.82 6.76 13.82 6.47 13.53C6.17999 13.24 6.17999 12.76 6.47 12.47L8.47 10.47C8.54 10.41 8.60999 10.36 8.69 10.32C8.71 10.31 8.74 10.3 8.75999 10.29C8.81999 10.27 8.87999 10.26 8.95 10.25C8.98 10.25 8.99999 10.25 9.02999 10.25C9.11 10.25 9.19 10.27 9.26999 10.3C9.28 10.3 9.28 10.3 9.29 10.3C9.37 10.33 9.44999 10.39 9.50999 10.45C9.52 10.46 9.53 10.46 9.53 10.47L11.53 12.47C11.82 12.76 11.82 13.24 11.53 13.53Z" fill="white"/>
<path d="M17.4297 8.81049C18.3796 8.82048 19.6996 8.82048 20.8297 8.82048C21.3997 8.82048 21.6997 8.15049 21.2997 7.75048C19.8597 6.30048 17.2797 3.69048 15.7996 2.21049C15.3897 1.80048 14.6797 2.08048 14.6797 2.65048V6.14049C14.6797 7.60048 15.9196 8.81049 17.4297 8.81049Z" fill="white"/>
</svg>
