<svg width="24" height="24" viewBox="0 0 24 24" fill="none" xmlns="http://www.w3.org/2000/svg">
<path fill-rule="evenodd" clip-rule="evenodd" d="M5.39961 2.39844C4.40549 2.39844 3.59961 3.20432 3.59961 4.19844V19.7984C3.59961 20.7925 4.40549 21.5984 5.39961 21.5984H18.5996C19.5937 21.5984 20.3996 20.7925 20.3996 19.7984V9.14402C20.3996 8.66664 20.21 8.2088 19.8724 7.87123L14.9268 2.92565C14.5892 2.58809 14.1314 2.39844 13.654 2.39844H5.39961ZM11.0996 10.4984C11.0996 10.0014 11.5026 9.59844 11.9996 9.59844C12.4966 9.59844 12.8996 10.0014 12.8996 10.4984V13.553L14.0306 12.2964C14.3631 11.9269 14.9322 11.897 15.3016 12.2294C15.6711 12.562 15.7011 13.131 15.3686 13.5005L12.6686 16.5005C12.4978 16.6902 12.2547 16.7984 11.9996 16.7984C11.7445 16.7984 11.5013 16.6902 11.3306 16.5005L8.63065 13.5005C8.29814 13.131 8.32808 12.562 8.69755 12.2294C9.067 11.897 9.63607 11.9269 9.96857 12.2964L11.0996 13.553V10.4984Z" fill="#0F172A"/>
</svg>
