<svg width="24" height="24" viewBox="0 0 24 24" fill="none" xmlns="http://www.w3.org/2000/svg">
<path d="M20.7109 8.11949V17.5295C20.7109 19.9895 18.7009 21.9995 16.2409 21.9995H7.76102C5.30102 21.9995 3.29102 19.9895 3.29102 17.5295V8.11949C3.29102 6.40949 4.25102 4.91949 5.66102 4.16949C6.15101 3.90949 6.76101 4.25949 6.76101 4.81949C6.76101 6.40949 8.06102 7.70949 9.65102 7.70949H14.3509C15.9409 7.70949 17.241 6.40949 17.241 4.81949C17.241 4.25949 17.841 3.90949 18.3409 4.16949C19.7509 4.91949 20.7109 6.40949 20.7109 8.11949Z" fill="white"/>
<path d="M14.3498 2H9.64976C8.60976 2 7.75977 2.84 7.75977 3.88V4.82C7.75977 5.86 8.59977 6.7 9.63976 6.7H14.3498C15.3898 6.7 16.2298 5.86 16.2298 4.82V3.88C16.2398 2.84 15.3898 2 14.3498 2Z" fill="white"/>
</svg>
