<svg width="24" height="24" viewBox="0 0 24 24" fill="none" xmlns="http://www.w3.org/2000/svg">
<path fill-rule="evenodd" clip-rule="evenodd" d="M5.39961 2.39844C4.40549 2.39844 3.59961 3.20432 3.59961 4.19844V19.7984C3.59961 20.7925 4.40549 21.5984 5.39961 21.5984H18.5996C19.5937 21.5984 20.3996 20.7925 20.3996 19.7984V9.14402C20.3996 8.66664 20.21 8.2088 19.8724 7.87123L14.9268 2.92565C14.5892 2.58809 14.1314 2.39844 13.654 2.39844H5.39961ZM11.9996 9.59844C12.4966 9.59844 12.8996 10.0014 12.8996 10.4984V12.2984H14.6996C15.1966 12.2984 15.5996 12.7014 15.5996 13.1984C15.5996 13.6955 15.1966 14.0984 14.6996 14.0984H12.8996V15.8984C12.8996 16.3955 12.4966 16.7984 11.9996 16.7984C11.5026 16.7984 11.0996 16.3955 11.0996 15.8984V14.0984H9.29961C8.80256 14.0984 8.39961 13.6955 8.39961 13.1984C8.39961 12.7014 8.80256 12.2984 9.29961 12.2984H11.0996V10.4984C11.0996 10.0014 11.5026 9.59844 11.9996 9.59844Z" fill="#0F172A"/>
</svg>
