<svg width="24" height="24" viewBox="0 0 24 24" fill="none" xmlns="http://www.w3.org/2000/svg">
<path d="M20.5 10.19H17.61C15.24 10.19 13.3099 8.26 13.3099 5.89V3C13.3099 2.45 12.8599 2 12.31 2H8.06999C4.99 2 2.5 4 2.5 7.57V16.43C2.5 20 4.99 22 8.06999 22H15.93C19.0099 22 21.4999 20 21.4999 16.43V11.19C21.4999 10.64 21.0499 10.19 20.5 10.19ZM12.4 15.58L10.54 17.44C10.31 17.67 9.98999 17.8 9.65 17.8C9.31 17.8 8.99999 17.67 8.75999 17.44L6.89999 15.58C6.49 15.17 6.41999 14.48 6.74999 14L7.6 12.72C7.81 12.39 8.24999 12.16 8.63999 12.16H10.65C11.04 12.16 11.47 12.39 11.69 12.72L12.55 14C12.8599 14.48 12.7999 15.17 12.4 15.58Z" fill="white"/>
<path d="M17.4297 8.81049C18.3796 8.82048 19.6996 8.82048 20.8297 8.82048C21.3997 8.82048 21.6997 8.15049 21.2997 7.75048C19.8597 6.30048 17.2797 3.69048 15.7996 2.21049C15.3897 1.80048 14.6797 2.08048 14.6797 2.65048V6.14049C14.6797 7.60048 15.9196 8.81049 17.4297 8.81049Z" fill="white"/>
</svg>
