<svg width="24" height="24" viewBox="0 0 24 24" fill="none" xmlns="http://www.w3.org/2000/svg">
<path d="M15.7996 2.21049C15.3897 1.80048 14.6797 2.08048 14.6797 2.65048V6.14049C14.6797 7.60048 15.9196 8.81049 17.4297 8.81049C18.3796 8.82048 19.6996 8.82048 20.8297 8.82048C21.3997 8.82048 21.6997 8.15049 21.2997 7.75048C19.8597 6.30048 17.2797 3.69048 15.7996 2.21049Z" fill="white"/>
<path d="M14.7605 19.2618C12.4106 19.4317 12.4106 22.8318 14.7605 23.0017H20.3205C20.9906 23.0017 21.6506 22.7518 22.1405 22.3018C23.7905 20.8618 22.9106 17.9818 20.7405 17.7118C19.9605 13.0218 13.1805 14.8018 14.7806 19.2718" fill="white"/>
<path d="M21.4999 11.19V14.44C21.4999 14.74 21.06 14.88 20.8399 14.67C20.3599 14.2 19.77 13.84 19.09 13.63C17.41 13.11 15.46 13.62 14.25 14.9C13.44 15.74 13.03 16.81 13.0399 17.97C13.0399 18.16 12.9499 18.33 12.7999 18.44C12 19.05 11.5 20.01 11.5 21.12C11.5 21.2 11.5 21.28 11.51 21.36C11.53 21.68 11.3 21.99 10.97 21.99H8.06999C4.99 21.99 2.5 19.99 2.5 16.42V7.57C2.5 4 4.99 2 8.06999 2H12.31C12.8599 2 13.3099 2.45 13.3099 3V5.89C13.3099 8.27 15.2299 10.19 17.61 10.19H20.5C21.0499 10.19 21.4999 10.64 21.4999 11.19Z" fill="white"/>
</svg>
