<svg width="24" height="24" viewBox="0 0 24 24" fill="none" xmlns="http://www.w3.org/2000/svg">
<path fill-rule="evenodd" clip-rule="evenodd" d="M5.39961 2.39844C4.40549 2.39844 3.59961 3.20432 3.59961 4.19844V19.7984C3.59961 20.7925 4.40549 21.5984 5.39961 21.5984H18.5996C19.5937 21.5984 20.3996 20.7925 20.3996 19.7984V9.14402C20.3996 8.66664 20.21 8.2088 19.8724 7.87123L14.9268 2.92565C14.5892 2.58809 14.1314 2.39844 13.654 2.39844H5.39961ZM8.09961 12.5984C7.60256 12.5984 7.19961 13.0014 7.19961 13.4984C7.19961 13.9955 7.60256 14.3984 8.09961 14.3984H15.8996C16.3966 14.3984 16.7996 13.9955 16.7996 13.4984C16.7996 13.0014 16.3966 12.5984 15.8996 12.5984H8.09961ZM8.09961 16.1984C7.60256 16.1984 7.19961 16.6014 7.19961 17.0984C7.19961 17.5955 7.60256 17.9984 8.09961 17.9984H15.8996C16.3966 17.9984 16.7996 17.5955 16.7996 17.0984C16.7996 16.6014 16.3966 16.1984 15.8996 16.1984H8.09961Z" fill="#0F172A"/>
</svg>
