<svg width="24" height="24" viewBox="0 0 24 24" fill="none" xmlns="http://www.w3.org/2000/svg">
<path d="M12.75 15.9203H13.4C14.05 15.9203 14.59 15.3404 14.59 14.6404C14.59 13.7704 14.28 13.6004 13.77 13.4204L12.76 13.0703V15.9203H12.75Z" fill="white"/>
<path d="M11.9701 1.89845C6.45006 1.91845 1.98006 6.40845 2.00007 11.9284C2.02006 17.4485 6.51006 21.9185 12.0301 21.8984C17.5501 21.8784 22.0201 17.3885 22 11.8684C21.9801 6.34845 17.4901 1.88845 11.9701 1.89845ZM14.26 11.9984C15.04 12.2684 16.09 12.8484 16.09 14.6384C16.09 16.1784 14.8801 17.4185 13.4001 17.4185H12.7501V17.9984C12.7501 18.4085 12.4101 18.7484 12.0001 18.7484C11.5901 18.7484 11.2501 18.4085 11.2501 17.9984V17.4185H10.8901C9.25006 17.4185 7.92006 16.0385 7.92006 14.3384C7.92006 13.9284 8.26006 13.5884 8.67006 13.5884C9.08007 13.5884 9.42006 13.9284 9.42006 14.3384C9.42006 15.2084 10.0801 15.9185 10.8901 15.9185H11.2501V12.5384L9.74007 11.9984C8.96007 11.7284 7.91007 11.1484 7.91007 9.35845C7.91007 7.81845 9.12006 6.57845 10.6001 6.57845H11.2501V5.99845C11.2501 5.58845 11.5901 5.24845 12.0001 5.24845C12.4101 5.24845 12.7501 5.58845 12.7501 5.99845V6.57845H13.1101C14.7501 6.57845 16.0801 7.95845 16.0801 9.65845C16.0801 10.0684 15.7401 10.4084 15.3301 10.4084C14.92 10.4084 14.5801 10.0684 14.5801 9.65845C14.5801 8.78845 13.9201 8.07845 13.1101 8.07845H12.7501V11.4584L14.26 11.9984Z" fill="white"/>
<path d="M9.41992 9.37202C9.41992 10.242 9.72992 10.412 10.2399 10.592L11.2499 10.942V8.08203H10.5999C9.94993 8.08203 9.41992 8.66203 9.41992 9.37202Z" fill="white"/>
</svg>
