<svg width="24" height="24" viewBox="0 0 24 24" fill="none" xmlns="http://www.w3.org/2000/svg">
<path fill-rule="evenodd" clip-rule="evenodd" d="M15.8804 20.9208C15.9104 21.0808 15.8204 21.2508 15.6704 21.3108C14.5405 21.7608 13.3004 22.0008 12.0205 22.0008C9.81048 22.0008 7.77045 21.2908 6.12045 20.0708C5.98045 19.9708 5.94049 19.7708 6.03049 19.6208C6.58049 18.6408 8.73043 15.4908 13.4804 13.7308C13.6604 13.6608 13.8605 13.7508 13.9205 13.9308C15.1105 17.1208 15.6704 19.8208 15.8804 20.9208Z" fill="white"/>
<path fill-rule="evenodd" clip-rule="evenodd" d="M21.8198 13.8881C21.3597 16.3481 19.9796 18.4881 18.0496 19.9481C17.8396 20.1081 17.5396 19.9881 17.4896 19.7381C17.2796 18.6581 16.7696 16.3281 15.7897 13.5581C15.7196 13.3481 15.8597 13.1181 16.0797 13.0881C18.5697 12.7881 20.7497 13.2681 21.5697 13.4882C21.7397 13.5482 21.8498 13.7181 21.8198 13.8881Z" fill="white"/>
<path fill-rule="evenodd" clip-rule="evenodd" d="M21.5902 11.8187C20.5702 11.6387 17.9703 11.2587 15.3103 11.5487C15.1503 11.5686 15.0103 11.4786 14.9403 11.3286C14.9002 11.2386 14.8702 11.1486 14.8303 11.0586C14.6703 10.6887 14.5003 10.3086 14.3302 9.93868C14.2402 9.75868 14.3302 9.53867 14.5102 9.45868C17.3103 8.24867 18.8703 6.68867 19.4803 5.98867C19.6303 5.81867 19.8903 5.82869 20.0302 6.00869C21.1803 7.53869 21.8902 9.40867 22.0003 11.4287C22.0102 11.6787 21.8103 11.8587 21.5902 11.8187Z" fill="white"/>
<path fill-rule="evenodd" clip-rule="evenodd" d="M18.44 4.79171C17.92 5.42171 16.46 6.92169 13.69 8.02169C13.53 8.0917 13.34 8.02169 13.25 7.86169C11.97 5.54169 10.6099 3.5917 9.97994 2.7117C9.82994 2.5017 9.94997 2.20171 10.2 2.16171C10.78 2.06171 11.39 2.01172 12.01 2.01172C14.43 2.01172 16.66 2.8717 18.39 4.3117C18.54 4.4217 18.56 4.64171 18.44 4.79171Z" fill="white"/>
<path fill-rule="evenodd" clip-rule="evenodd" d="M11.0188 8.83942C7.22879 9.78942 3.87874 9.91944 2.65875 9.93943C2.42875 9.93943 2.25879 9.71943 2.31879 9.49944C3.03879 6.69943 4.95877 4.35943 7.48876 3.06943C7.63876 2.98944 7.82877 3.03942 7.92877 3.17942C8.44876 3.89942 9.85876 5.92944 11.2387 8.31943C11.3487 8.51943 11.2488 8.77942 11.0188 8.83942Z" fill="white"/>
<path fill-rule="evenodd" clip-rule="evenodd" d="M12.9197 11.5986C13.0097 11.7886 12.8998 12.0186 12.6998 12.0887C8.26977 13.5186 5.61976 17.0687 4.81976 18.2886C4.68976 18.4886 4.40977 18.4986 4.25977 18.3186C2.85977 16.5986 2.00977 14.6286 2.00977 12.2387V12.0587C2.00977 11.8586 2.16975 11.6986 2.36975 11.7086C3.62975 11.7586 7.73977 11.5886 12.0098 10.3586C12.1698 10.3086 12.3497 10.3886 12.4196 10.5386C12.5897 10.8886 12.7597 11.2386 12.9197 11.5986Z" fill="white"/>
</svg>
