<svg width="24" height="24" viewBox="0 0 24 24" fill="none" xmlns="http://www.w3.org/2000/svg">
<path d="M12 18.75C11.59 18.75 11.25 18.41 11.25 18V17C11.25 16.59 11.59 16.25 12 16.25C12.41 16.25 12.75 16.59 12.75 17V18C12.75 18.41 12.41 18.75 12 18.75Z" fill="white"/>
<path d="M12 22.75C11.59 22.75 11.25 22.41 11.25 22V21C11.25 20.59 11.59 20.25 12 20.25C12.41 20.25 12.75 20.59 12.75 21V22C12.75 22.41 12.41 22.75 12 22.75Z" fill="white"/>
<path d="M2.0001 22.752C1.9401 22.752 1.8801 22.742 1.8201 22.7321C1.4201 22.632 1.1701 22.2221 1.2701 21.822L2.2701 17.822C2.3701 17.4221 2.7701 17.172 3.1801 17.2721C3.5801 17.372 3.8301 17.7821 3.7301 18.182L2.7301 22.182C2.6401 22.5221 2.3401 22.752 2.0001 22.752Z" fill="white"/>
<path d="M21.7526 22.5027C21.4126 22.5027 21.1126 22.2726 21.0226 21.9327L20.0227 17.9327C19.9226 17.5326 20.1626 17.1227 20.5726 17.0226C20.9726 16.9227 21.3826 17.1627 21.4826 17.5727L22.4827 21.5727C22.5826 21.9726 22.3426 22.3827 21.9326 22.4826C21.8726 22.4927 21.8126 22.5027 21.7526 22.5027Z" fill="white"/>
<path d="M19.1402 5.29999C19.1402 5.59999 18.8902 5.84 18.6002 5.84H5.53023C5.23023 5.84 4.99023 5.59 4.99023 5.29999C4.99023 4.99999 5.24024 4.75999 5.53023 4.75999H6.27024L6.55023 3.45C6.81024 2.17 7.35024 1 9.51024 1H14.6002C16.7602 1 17.3102 2.17 17.5702 3.43999L17.8502 4.75H18.5902C18.8902 4.75 19.1402 4.99999 19.1402 5.29999Z" fill="white"/>
<path d="M19.4501 9.39968C19.3401 8.19968 19.0202 6.92969 16.6901 6.92969H7.43015C5.10014 6.92969 4.79015 8.20968 4.67015 9.39968L4.26014 13.8197C4.21015 14.3696 4.39015 14.9197 4.77014 15.3397C5.16014 15.7597 5.70014 15.9997 6.28015 15.9997H7.64015C8.82014 15.9997 9.04015 15.3296 9.19015 14.8796L9.34015 14.4397C9.51014 13.9397 9.55015 13.8197 10.2001 13.8197H13.9202C14.5701 13.8197 14.5901 13.8896 14.7801 14.4397L14.9301 14.8796C15.0701 15.3296 15.3002 15.9997 16.4702 15.9997H17.8301C18.4001 15.9997 18.9501 15.7597 19.3401 15.3397C19.7201 14.9297 19.9001 14.3696 19.8501 13.8197L19.4501 9.39968ZM9.88015 10.9197H7.71014C7.41014 10.9197 7.17014 10.6697 7.17014 10.3797C7.17014 10.0897 7.42015 9.83969 7.71014 9.83969H9.89015C10.1901 9.83969 10.4301 10.0897 10.4301 10.3797C10.4301 10.6697 10.1801 10.9197 9.88015 10.9197ZM16.4102 10.9197H14.2301C13.9301 10.9197 13.6901 10.6697 13.6901 10.3797C13.6901 10.0897 13.9401 9.83969 14.2301 9.83969H16.4102C16.7102 9.83969 16.9502 10.0897 16.9502 10.3797C16.9502 10.6697 16.7102 10.9197 16.4102 10.9197Z" fill="white"/>
</svg>
