<svg width="24" height="24" viewBox="0 0 24 24" fill="none" xmlns="http://www.w3.org/2000/svg">
<path d="M19.32 2H4.68001C3.21001 2 2 3.21 2 4.68V7.31C2 8.79 3.21001 10 4.68001 10H19.31C20.79 10 22.0001 8.79 22.0001 7.32V4.68C22.0001 3.21 20.79 2 19.32 2ZM6.75001 7C6.75001 7.41 6.41 7.75 6.00001 7.75C5.59 7.75 5.25001 7.41 5.25001 7V5C5.25001 4.59 5.59 4.25 6.00001 4.25C6.41 4.25 6.75001 4.59 6.75001 5V7ZM10.75 7C10.75 7.41 10.41 7.75 10 7.75C9.59 7.75 9.25 7.41 9.25 7V5C9.25 4.59 9.59 4.25 10 4.25C10.41 4.25 10.75 4.59 10.75 5V7ZM18 6.75H14C13.59 6.75 13.25 6.41 13.25 6C13.25 5.59 13.59 5.25 14 5.25H18C18.41 5.25 18.75 5.59 18.75 6C18.75 6.41 18.41 6.75 18 6.75Z" fill="white"/>
<path d="M19.32 14H4.68001C3.21001 14 2 15.21 2 16.68V19.31C2 20.79 3.21001 21.9999 4.68001 21.9999H19.31C20.79 21.9999 21.99 20.79 21.99 19.32V16.6899C22.0001 15.21 20.79 14 19.32 14ZM6.75001 18.9999C6.75001 19.41 6.41 19.7499 6.00001 19.7499C5.59 19.7499 5.25001 19.41 5.25001 18.9999V17C5.25001 16.59 5.59 16.25 6.00001 16.25C6.41 16.25 6.75001 16.59 6.75001 17V18.9999ZM10.75 18.9999C10.75 19.41 10.41 19.7499 10 19.7499C9.59 19.7499 9.25 19.41 9.25 18.9999V17C9.25 16.59 9.59 16.25 10 16.25C10.41 16.25 10.75 16.59 10.75 17V18.9999ZM18 18.75H14C13.59 18.75 13.25 18.41 13.25 18C13.25 17.5899 13.59 17.25 14 17.25H18C18.41 17.25 18.75 17.5899 18.75 18C18.75 18.41 18.41 18.75 18 18.75Z" fill="white"/>
</svg>
