<svg width="24" height="24" viewBox="0 0 24 24" fill="none" xmlns="http://www.w3.org/2000/svg">
<path d="M9.93001 12.75H3.00001C2.45 12.75 2 13.2 2 13.75V16.19C2 19.4 4.6 22 7.81 22H9.51001C10.28 22 10.75 21.18 10.38 20.5C9.59 19.03 9.28 17.26 9.67 15.4C9.81001 14.72 10.05 14.08 10.37 13.48C10.54 13.15 10.31 12.75 9.93001 12.75ZM6.75001 18C6.75001 18.41 6.41 18.75 6.00001 18.75C5.59 18.75 5.25001 18.41 5.25001 18V16C5.25001 15.59 5.59 15.25 6.00001 15.25C6.41 15.25 6.75001 15.59 6.75001 16V18Z" fill="white"/>
<path d="M16.19 2H7.81C4.6 2 2 4.6 2 7.81V10.25C2 10.8 2.45 11.25 3.00001 11.25H11.84C12.06 11.25 12.27 11.17 12.45 11.03C13.31 10.37 14.3201 9.89 15.4001 9.67C17.2601 9.28 19.0301 9.59 20.5001 10.38C21.18 10.74 22.0001 10.28 22.0001 9.51V7.81C22.0001 4.6 19.4 2 16.19 2ZM6.75001 8.25C6.75001 8.66 6.41 9 6.00001 9C5.59 9 5.25001 8.66 5.25001 8.25V6.25C5.25001 5.84 5.59 5.5 6.00001 5.5C6.41 5.5 6.75001 5.84 6.75001 6.25V8.25ZM10.75 8.25C10.75 8.66 10.41 9 10 9C9.59 9 9.25 8.66 9.25 8.25V6.25C9.25 5.84 9.59 5.5 10 5.5C10.41 5.5 10.75 5.84 10.75 6.25V8.25ZM18 8H14C13.59 8 13.25 7.66 13.25 7.25C13.25 6.84 13.59 6.5 14 6.5H18C18.41 6.5 18.75 6.84 18.75 7.25C18.75 7.66 18.41 8 18 8Z" fill="white"/>
<path d="M17 11C13.6901 11 11 13.69 11 17C11 20.31 13.6901 23 17 23C20.31 23 23 20.31 23 17C23 13.69 20.31 11 17 11ZM19.9301 18.2C19.77 18.59 19.5401 18.94 19.2401 19.24C18.6401 19.84 17.85 20.17 17 20.17C16.32 20.17 15.68 19.95 15.14 19.55V19.69C15.14 20 14.8901 20.26 14.57 20.26C14.25 20.25 14 20 14 19.68V18.24C14 17.93 14.25 17.67 14.57 17.67H16.01C16.32 17.67 16.58 17.92 16.58 18.24C16.58 18.53 16.37 18.75 16.0901 18.79C16.85 19.16 17.82 19.04 18.4301 18.43C18.62 18.24 18.77 18.01 18.87 17.76C18.99 17.47 19.32 17.33 19.61 17.45C19.91 17.57 20.0501 17.91 19.9301 18.2ZM20 15.76C20 16.07 19.7501 16.33 19.43 16.33H17.99C17.6801 16.33 17.42 16.08 17.42 15.76C17.42 15.47 17.63 15.25 17.91 15.21C17.15 14.84 16.1801 14.96 15.56 15.57C15.39 15.74 15.26 15.93 15.1601 16.14C15.06 16.35 14.8601 16.47 14.6501 16.47C14.57 16.47 14.49 16.45 14.4101 16.42C14.13 16.29 14 15.95 14.1401 15.66C14.3 15.33 14.51 15.03 14.76 14.77C15.36 14.17 16.1501 13.84 17 13.84C17.6801 13.84 18.32 14.06 18.86 14.46V14.33C18.86 14.02 19.11 13.76 19.43 13.76C19.7501 13.76 20 14 20 14.32V15.76Z" fill="white"/>
</svg>
