<svg width="24" height="24" viewBox="0 0 24 24" fill="none" xmlns="http://www.w3.org/2000/svg">
<path d="M11.9994 5.99737L6.43937 9.99737L3.18936 7.79736C2.60936 7.40736 2.59938 6.56737 3.16938 6.15737L6.99936 3.39736C7.33937 3.15736 7.79938 3.14737 8.13937 3.37738L11.9994 5.99737Z" fill="white"/>
<path d="M20.81 7.7988L17.56 9.99884L12 5.99881L15.86 3.38884C16.21 3.15883 16.66 3.15882 17 3.40883L20.83 6.16884C21.4 6.56884 21.39 7.4088 20.81 7.7988Z" fill="white"/>
<path d="M11.9999 14L7.55992 17L4.99993 15.16L3.15992 13.84C2.59993 13.43 2.60991 12.59 3.17991 12.2L6.42992 10L11.9999 14Z" fill="white"/>
<path d="M20.8102 12.2C21.3902 12.59 21.4003 13.43 20.8303 13.84L18.9902 15.16L16.4302 17L11.9902 14L17.5502 10L20.8102 12.2Z" fill="white"/>
<path d="M18.68 17.3381C18.81 17.2382 19.0001 17.3381 19.0001 17.4982V18.2282C19.0001 18.6182 18.77 18.9682 18.42 19.1381L12.42 21.9082C12.15 22.0282 11.85 22.0282 11.58 21.9082L5.58 19.1381C5.22999 18.9682 5 18.6182 5 18.2282V17.4982C5 17.3381 5.18001 17.2382 5.32002 17.3381L7.25 18.7282C7.42 18.8482 7.65001 18.8582 7.82001 18.7382L11.72 16.0982C11.89 15.9881 12.11 15.9881 12.2801 16.0982L16.1801 18.7382C16.35 18.8582 16.58 18.8482 16.7501 18.7282L18.68 17.3381Z" fill="white"/>
</svg>
