<svg width="24" height="24" viewBox="0 0 24 24" fill="none" xmlns="http://www.w3.org/2000/svg">
<path d="M21 22H3C2.59 22 2.25 21.66 2.25 21.25C2.25 20.8401 2.59 20.5 3 20.5H21C21.41 20.5 21.75 20.8401 21.75 21.25C21.75 21.66 21.41 22 21 22Z" fill="white"/>
<path d="M19.0186 3.48162C17.0786 1.54162 15.1786 1.49163 13.1887 3.48162L11.9786 4.69162C11.8786 4.79163 11.8386 4.95162 11.8786 5.09163C12.6386 7.74162 14.7586 9.86163 17.4086 10.6216C17.4487 10.6317 17.4886 10.6417 17.5286 10.6417C17.6386 10.6417 17.7386 10.6017 17.8186 10.5217L19.0186 9.31162C20.0086 8.33163 20.4886 7.38162 20.4886 6.42162C20.4986 5.43162 20.0186 4.47162 19.0186 3.48162Z" fill="white"/>
<path d="M15.6103 11.5282C15.3203 11.3882 15.0403 11.2482 14.7703 11.0882C14.5503 10.9582 14.3403 10.8182 14.1303 10.6682C13.9603 10.5582 13.7603 10.3982 13.5703 10.2382C13.5503 10.2282 13.4803 10.1682 13.4003 10.0882C13.0703 9.80817 12.7003 9.44817 12.3703 9.04818C12.3403 9.02817 12.2903 8.95818 12.2203 8.86818C12.1203 8.74818 11.9503 8.54817 11.8003 8.31817C11.6803 8.16817 11.5403 7.94817 11.4103 7.72818C11.2503 7.45818 11.1103 7.18818 10.9703 6.90817C10.9491 6.86278 10.9286 6.81762 10.9088 6.77271C10.7612 6.43939 10.3265 6.34195 10.0688 6.59971L4.34033 12.3282C4.21032 12.4582 4.09032 12.7082 4.06032 12.8782L3.52032 16.7082C3.42032 17.3882 3.61032 18.0282 4.03032 18.4582C4.39032 18.8082 4.89032 18.9982 5.43032 18.9982C5.55032 18.9982 5.67032 18.9882 5.79032 18.9682L9.63032 18.4282C9.81032 18.3982 10.0603 18.2782 10.1803 18.1482L15.9017 12.4268C16.1612 12.1673 16.0633 11.7219 15.7257 11.5778C15.6877 11.5616 15.6492 11.545 15.6103 11.5282Z" fill="white"/>
</svg>
