<svg width="24" height="24" viewBox="0 0 24 24" fill="none" xmlns="http://www.w3.org/2000/svg">
<path d="M7.93005 5.4775L11.0601 8.6075C11.5801 9.1275 12.43 9.1275 12.9501 8.6075L16.0801 5.4775C16.9201 4.6375 16.33 3.1875 15.13 3.1875H8.87006C7.68007 3.1875 7.08005 4.6375 7.93005 5.4775Z" fill="white"/>
<path d="M7.93005 18.5199L11.0601 15.39C11.5801 14.87 12.43 14.87 12.9501 15.39L16.0801 18.5199C16.9201 19.3599 16.33 20.81 15.13 20.81H8.87006C7.68007 20.81 7.08005 19.3599 7.93005 18.5199Z" fill="white"/>
<path d="M2.15945 11.4301L4.44949 7.83008C4.80949 7.26008 5.6095 7.17008 6.0895 7.65008L9.68948 11.2501C10.0995 11.6601 10.0995 12.3301 9.68948 12.7401L6.0895 16.3401C5.6095 16.8201 4.81949 16.7301 4.44949 16.1601L2.15945 12.5601C1.94945 12.2201 1.94945 11.7801 2.15945 11.4301Z" fill="white"/>
<path d="M21.8396 11.4301L19.5495 7.83008C19.1895 7.26008 18.3895 7.17008 17.9095 7.65008L14.3095 11.2501C13.8994 11.6601 13.8994 12.3301 14.3095 12.7401L17.9095 16.3401C18.3895 16.8201 19.1794 16.7301 19.5495 16.1601L21.8396 12.5601C22.0496 12.2201 22.0496 11.7801 21.8396 11.4301Z" fill="white"/>
</svg>
