<svg width="24" height="24" viewBox="0 0 24 24" fill="none" xmlns="http://www.w3.org/2000/svg">
<path d="M20.5 16.75H18.25V14.5C18.25 14.0901 17.91 13.75 17.5 13.75C17.09 13.75 16.75 14.0901 16.75 14.5V16.75H14.5C14.09 16.75 13.75 17.0901 13.75 17.5C13.75 17.91 14.09 18.25 14.5 18.25H16.75V20.5C16.75 20.91 17.09 21.25 17.5 21.25C17.91 21.25 18.25 20.91 18.25 20.5V18.25H20.5C20.91 18.25 21.25 17.91 21.25 17.5C21.25 17.0901 20.91 16.75 20.5 16.75Z" fill="white"/>
<path d="M22 8.52V3.98C22 2.57 21.36 2 19.77 2H15.73C14.14 2 13.5 2.57 13.5 3.98V8.51C13.5 9.93 14.14 10.49 15.73 10.49H19.77C21.36 10.5 22 9.92999 22 8.52Z" fill="white"/>
<path d="M10.5 8.52V3.98C10.5 2.57 9.86 2 8.27 2H4.23001C2.64001 2 2 2.57 2 3.98V8.51C2 9.93 2.64001 10.49 4.23001 10.49H8.27C9.86 10.5 10.5 9.92999 10.5 8.52Z" fill="white"/>
<path d="M10.5 19.77V15.73C10.5 14.14 9.86 13.5 8.27 13.5H4.23001C2.64001 13.5 2 14.14 2 15.73V19.77C2 21.36 2.64001 22 4.23001 22H8.27C9.86 22 10.5 21.36 10.5 19.77Z" fill="white"/>
</svg>
