<svg width="24" height="24" viewBox="0 0 24 24" fill="none" xmlns="http://www.w3.org/2000/svg">
<path fill-rule="evenodd" clip-rule="evenodd" d="M2.40039 11.9984C2.40039 6.6965 6.69845 2.39844 12.0004 2.39844C17.3024 2.39844 21.6004 6.6965 21.6004 11.9984C21.6004 17.3004 17.3024 21.5984 12.0004 21.5984C6.69845 21.5984 2.40039 17.3004 2.40039 11.9984ZM12.0004 13.1984C12.6632 13.1984 13.2004 12.6612 13.2004 11.9984C13.2004 11.3357 12.6632 10.7984 12.0004 10.7984C11.3377 10.7984 10.8004 11.3357 10.8004 11.9984C10.8004 12.6612 11.3377 13.1984 12.0004 13.1984ZM8.40039 11.9984C8.40039 12.6612 7.86313 13.1984 7.20039 13.1984C6.53765 13.1984 6.00039 12.6612 6.00039 11.9984C6.00039 11.3357 6.53765 10.7984 7.20039 10.7984C7.86313 10.7984 8.40039 11.3357 8.40039 11.9984ZM16.8004 13.1984C17.4632 13.1984 18.0004 12.6612 18.0004 11.9984C18.0004 11.3357 17.4632 10.7984 16.8004 10.7984C16.1376 10.7984 15.6004 11.3357 15.6004 11.9984C15.6004 12.6612 16.1376 13.1984 16.8004 13.1984Z" fill="#0F172A"/>
</svg>
