<svg width="24" height="24" viewBox="0 0 24 24" fill="none" xmlns="http://www.w3.org/2000/svg">
<path d="M11.9992 3.60156C12.9933 3.60156 13.7992 4.40745 13.7992 5.40156C13.7992 6.39568 12.9933 7.20156 11.9992 7.20156C11.0051 7.20156 10.1992 6.39568 10.1992 5.40156C10.1992 4.40745 11.0051 3.60156 11.9992 3.60156Z" fill="#0F172A"/>
<path d="M11.9992 10.1992C12.9933 10.1992 13.7992 11.0051 13.7992 11.9992C13.7992 12.9933 12.9933 13.7992 11.9992 13.7992C11.0051 13.7992 10.1992 12.9933 10.1992 11.9992C10.1992 11.0051 11.0051 10.1992 11.9992 10.1992Z" fill="#0F172A"/>
<path d="M13.7992 18.6008C13.7992 17.6067 12.9933 16.8008 11.9992 16.8008C11.0051 16.8008 10.1992 17.6067 10.1992 18.6008C10.1992 19.5949 11.0051 20.4008 11.9992 20.4008C12.9933 20.4008 13.7992 19.5949 13.7992 18.6008Z" fill="#0F172A"/>
</svg>
