<svg width="24" height="24" viewBox="0 0 24 24" fill="none" xmlns="http://www.w3.org/2000/svg">
<path d="M3.59961 11.9992C3.59961 11.0051 4.40549 10.1992 5.39961 10.1992C6.39373 10.1992 7.19961 11.0051 7.19961 11.9992C7.19961 12.9933 6.39373 13.7992 5.39961 13.7992C4.40549 13.7992 3.59961 12.9933 3.59961 11.9992Z" fill="#0F172A"/>
<path d="M10.1992 11.9992C10.1992 11.0051 11.0051 10.1992 11.9992 10.1992C12.9933 10.1992 13.7992 11.0051 13.7992 11.9992C13.7992 12.9933 12.9933 13.7992 11.9992 13.7992C11.0051 13.7992 10.1992 12.9933 10.1992 11.9992Z" fill="#0F172A"/>
<path d="M18.6008 10.1992C17.6067 10.1992 16.8008 11.0051 16.8008 11.9992C16.8008 12.9933 17.6067 13.7992 18.6008 13.7992C19.5949 13.7992 20.4008 12.9933 20.4008 11.9992C20.4008 11.0051 19.5949 10.1992 18.6008 10.1992Z" fill="#0F172A"/>
</svg>
