<svg width="24" height="24" viewBox="0 0 24 24" fill="none" xmlns="http://www.w3.org/2000/svg">
<path d="M16.19 2H7.81C4.17001 2 2 4.17 2 7.81V16.18C2 19.83 4.17001 22 7.81 22H16.1801C19.82 22 21.99 19.83 21.99 16.19V7.81C22.0001 4.17 19.83 2 16.19 2ZM6.47 7.72C6.76 7.43 7.24 7.43 7.53001 7.72C8.24 8.43 9.4 8.43 10.11 7.72C10.4 7.43 10.88 7.43 11.17 7.72C11.46 8.01 11.46 8.49 11.17 8.78C10.52 9.43 9.67 9.75 8.82001 9.75C7.97 9.75 7.12 9.43 6.47 8.78C6.18001 8.48 6.18001 8.01 6.47 7.72ZM12 18.78C9.31 18.78 7.12 16.59 7.12 13.9C7.12 13.2 7.69 12.62 8.39 12.62H15.59C16.29 12.62 16.86 13.19 16.86 13.9C16.88 16.59 14.69 18.78 12 18.78ZM17.5301 8.78C16.88 9.43 16.0301 9.75 15.18 9.75C14.33 9.75 13.4801 9.43 12.83 8.78C12.54 8.49 12.54 8.01 12.83 7.72C13.1201 7.43 13.6001 7.43 13.89 7.72C14.6 8.43 15.7601 8.43 16.47 7.72C16.76 7.43 17.24 7.43 17.5301 7.72C17.82 8.01 17.82 8.48 17.5301 8.78Z" fill="white"/>
</svg>
