<svg width="24" height="24" viewBox="0 0 24 24" fill="none" xmlns="http://www.w3.org/2000/svg">
<path d="M5 15C3.98 15 3.04 15.39 2.33 16.03C2.17 16.17 2.02 16.32 1.88999 16.49C1.33 17.18 1 18.05 1 19C1 21.21 2.8 23 5 23C5.96 23 6.83 22.66 7.52 22.11C8.08 21.64 8.52 21.03 8.76 20.33C8.92 19.92 8.99999 19.47 8.99999 19C8.99999 16.8 7.21 15 5 15ZM7.4 18.23C7.4 18.51 7.18 18.72 6.91 18.72C6.64 18.72 6.41999 18.51 6.41999 18.23V18.13C6.41999 18.02 6.34 17.93 6.23 17.93H4.22999C4.33 18.12 4.31 18.35 4.15 18.51C4.06 18.6 3.94 18.65 3.8 18.65C3.68 18.65 3.55 18.6 3.46 18.51L2.74 17.79C2.69999 17.75 2.66 17.69 2.63 17.63C2.59 17.51 2.59 17.38 2.63 17.26C2.66 17.21 2.69 17.14 2.74 17.1L3.46 16.39C3.65 16.19 3.95999 16.19 4.13999 16.39C4.3 16.54 4.31999 16.78 4.22 16.96H6.23C6.86999 16.96 7.39 17.48 7.39 18.13V18.23H7.4ZM6.2 21.76C6.07 21.76 5.93999 21.72 5.84999 21.62C5.69 21.47 5.66999 21.23 5.77 21.05H3.76C3.11999 21.05 2.6 20.53 2.6 19.88V19.78C2.6 19.5 2.81999 19.29 3.08999 19.29C3.35999 19.29 3.58 19.5 3.58 19.78V19.88C3.58 19.99 3.65999 20.08 3.77 20.08H5.78C5.68 19.89 5.69999 19.66 5.86 19.5C6.05 19.31 6.35999 19.31 6.53999 19.5L7.26 20.22C7.3 20.26 7.34 20.32 7.37 20.38C7.40999 20.5 7.40999 20.63 7.37 20.75C7.34 20.8 7.3 20.86 7.26 20.9L6.53999 21.61C6.44999 21.71 6.32 21.76 6.2 21.76Z" fill="white"/>
<path d="M14.85 3.94687V7.74687H13.35V3.94687C13.35 3.67687 13.11 3.54687 12.9499 3.54687C12.9 3.54687 12.85 3.55687 12.7999 3.57687L4.87 6.56688C4.34 6.76687 4 7.26687 4 7.83687V8.50687C3.08999 9.18687 2.5 10.2769 2.5 11.5069V7.83687C2.5 6.64687 3.23 5.58687 4.34 5.16687L12.28 2.16687C12.4999 2.08687 12.73 2.04688 12.9499 2.04688C13.95 2.04688 14.85 2.85687 14.85 3.94687Z" fill="white"/>
<path d="M21.5007 14.4999V15.5C21.5007 15.77 21.2907 15.99 21.0107 15.9999H19.5507C19.0206 15.9999 18.5406 15.6099 18.5007 15.09C18.4707 14.78 18.5907 14.49 18.7907 14.2899C18.9707 14.1 19.2207 14 19.4907 14H21.0006C21.2907 14.01 21.5007 14.2299 21.5007 14.4999Z" fill="white"/>
<path d="M19.48 12.95H20.5C21.0499 12.95 21.4999 12.5 21.4999 11.95V11.51C21.4999 9.44 19.81 7.75 17.74 7.75H6.26C5.41 7.75 4.63 8.03 4 8.51C3.08999 9.19 2.5 10.28 2.5 11.51V13.29C2.5 13.67 2.9 13.91 3.26 13.79C3.82 13.6 4.40999 13.5 5 13.5C8.03 13.5 10.5 15.97 10.5 19C10.5 19.72 10.31 20.51 10.01 21.21C9.85 21.57 10.1 22 10.49 22H17.74C19.81 22 21.4999 20.31 21.4999 18.24V18.05C21.4999 17.5 21.0499 17.05 20.5 17.05H19.63C18.67 17.05 17.7499 16.46 17.5 15.53C17.2999 14.77 17.5399 14.03 18.04 13.55C18.4099 13.17 18.9199 12.95 19.48 12.95ZM13.9999 12.75H8.99999C8.59 12.75 8.24999 12.41 8.24999 12C8.24999 11.59 8.59 11.25 8.99999 11.25H13.9999C14.41 11.25 14.7499 11.59 14.7499 12C14.7499 12.41 14.41 12.75 13.9999 12.75Z" fill="white"/>
</svg>
