<svg width="24" height="24" viewBox="0 0 24 24" fill="none" xmlns="http://www.w3.org/2000/svg">
<path d="M5 15C4.06 15 3.19 15.33 2.5 15.88C1.58 16.61 1 17.74 1 19C1 21.21 2.78999 23 5 23C6.01 23 6.93 22.62 7.64 22C8.47 21.27 8.99999 20.2 8.99999 19C8.99999 16.79 7.21 15 5 15ZM5.99999 19.25C5.99999 19.51 5.86 19.76 5.63999 19.89L4.39 20.64C4.27 20.72 4.13 20.75 4 20.75C3.74999 20.75 3.5 20.62 3.35999 20.39C3.14999 20.03 3.26 19.57 3.62 19.36L4.51 18.83V17.75C4.49999 17.34 4.84 17 5.24999 17C5.66 17 5.99999 17.34 5.99999 17.75V19.25Z" fill="white"/>
<path d="M14.85 3.94687V7.74687H13.35V3.94687C13.35 3.67687 13.11 3.54687 12.9499 3.54687C12.9 3.54687 12.85 3.55687 12.7999 3.57687L4.87 6.56688C4.34 6.76687 4 7.26687 4 7.83687V8.50687C3.08999 9.18687 2.5 10.2769 2.5 11.5069V7.83687C2.5 6.64687 3.23 5.58687 4.34 5.16687L12.28 2.16687C12.4999 2.08687 12.73 2.04688 12.9499 2.04688C13.95 2.04688 14.85 2.85687 14.85 3.94687Z" fill="white"/>
<path d="M21.5007 14.4999V15.5C21.5007 15.77 21.2907 15.99 21.0107 15.9999H19.5507C19.0206 15.9999 18.5406 15.6099 18.5007 15.09C18.4707 14.78 18.5907 14.49 18.7907 14.2899C18.9707 14.1 19.2207 14 19.4907 14H21.0006C21.2907 14.01 21.5007 14.2299 21.5007 14.4999Z" fill="white"/>
<path d="M19.48 12.95H20.5C21.0499 12.95 21.4999 12.5 21.4999 11.95V11.51C21.4999 9.44 19.81 7.75 17.74 7.75H6.26C5.41 7.75 4.63 8.03 4 8.51C3.08999 9.19 2.5 10.28 2.5 11.51V13.29C2.5 13.67 2.9 13.91 3.26 13.79C3.82 13.6 4.40999 13.5 5 13.5C8.03 13.5 10.5 15.97 10.5 19C10.5 19.72 10.31 20.51 10.01 21.21C9.85 21.57 10.1 22 10.49 22H17.74C19.81 22 21.4999 20.31 21.4999 18.24V18.05C21.4999 17.5 21.0499 17.05 20.5 17.05H19.63C18.67 17.05 17.7499 16.46 17.5 15.53C17.2999 14.77 17.5399 14.03 18.04 13.55C18.4099 13.17 18.9199 12.95 19.48 12.95ZM13.9999 12.75H8.99999C8.59 12.75 8.24999 12.41 8.24999 12C8.24999 11.59 8.59 11.25 8.99999 11.25H13.9999C14.41 11.25 14.7499 11.59 14.7499 12C14.7499 12.41 14.41 12.75 13.9999 12.75Z" fill="white"/>
</svg>
