<svg width="24" height="24" viewBox="0 0 24 24" fill="none" xmlns="http://www.w3.org/2000/svg">
<path d="M5 15C4.05999 15 3.19 15.33 2.5 15.88C1.58 16.61 1 17.74 1 19C1 19.75 1.21 20.46 1.58 21.06C2.27 22.22 3.54 23 5 23C6.00999 23 6.93 22.63 7.63 22C7.94 21.74 8.21 21.42 8.42 21.06C8.79 20.46 9 19.75 9 19C9 16.79 7.20999 15 5 15ZM7.07 18.57L4.94 20.54C4.8 20.67 4.61 20.74 4.43 20.74C4.23999 20.74 4.05 20.67 3.9 20.52L2.91 19.53C2.61999 19.24 2.61999 18.76 2.91 18.47C3.2 18.18 3.68 18.18 3.97 18.47L4.45 18.95L6.05 17.47C6.35 17.19 6.83 17.21 7.11 17.51C7.39 17.81 7.37 18.29 7.07 18.57Z" fill="white"/>
<path d="M14.8501 3.94687V7.74688H13.3501V3.94687C13.3501 3.67687 13.1101 3.54688 12.95 3.54688C12.9001 3.54688 12.85 3.55687 12.8 3.57687L4.87 6.56689C4.34001 6.76688 4 7.26687 4 7.83688V8.50687C3.09 9.18688 2.5 10.2769 2.5 11.5069V7.83688C2.5 6.64687 3.23001 5.58688 4.34001 5.16688L12.28 2.16687C12.5 2.08687 12.73 2.04688 12.95 2.04688C13.9501 2.04688 14.8501 2.85687 14.8501 3.94687Z" fill="white"/>
<path d="M21.5007 14.4999V15.5C21.5007 15.77 21.2907 15.99 21.0107 15.9999H19.5507C19.0206 15.9999 18.5406 15.6099 18.5007 15.09C18.4707 14.78 18.5907 14.49 18.7907 14.2899C18.9707 14.1 19.2207 14 19.4907 14H21.0006C21.2907 14.01 21.5007 14.2299 21.5007 14.4999Z" fill="white"/>
<path d="M19.48 12.95H20.5C21.05 12.95 21.5 12.5 21.5 11.95V11.51C21.5 9.44 19.81 7.75 17.74 7.75H6.26001C5.41 7.75 4.63 8.03 4 8.51C3.09 9.19 2.5 10.28 2.5 11.51V13.29C2.5 13.67 2.90001 13.91 3.26001 13.79C3.82 13.6 4.41 13.5 5.00001 13.5C8.03001 13.5 10.5 15.97 10.5 19C10.5 19.72 10.31 20.51 10.01 21.21C9.85 21.57 10.1 22 10.49 22H17.74C19.81 22 21.5 20.31 21.5 18.24V18.05C21.5 17.5 21.05 17.05 20.5 17.05H19.63C18.67 17.05 17.75 16.46 17.5 15.53C17.3 14.77 17.54 14.03 18.04 13.55C18.41 13.17 18.92 12.95 19.48 12.95ZM14 12.75H9C8.59 12.75 8.25 12.41 8.25 12C8.25 11.59 8.59 11.25 9 11.25H14C14.41 11.25 14.75 11.59 14.75 12C14.75 12.41 14.41 12.75 14 12.75Z" fill="white"/>
</svg>
