<svg width="24" height="24" viewBox="0 0 24 24" fill="none" xmlns="http://www.w3.org/2000/svg">
<path d="M8.25814 21.245C8.90511 20.598 9.27677 19.7721 9.37313 18.9186C9.50391 17.783 9.12535 16.6061 8.25814 15.7388C7.74193 15.2226 7.10872 14.8785 6.4411 14.7203C5.1678 14.3967 3.75685 14.7339 2.75197 15.7388C2.05683 16.434 1.67827 17.3219 1.63009 18.2372C1.59568 18.6295 1.63009 19.0356 1.73334 19.428C1.89165 20.0957 2.23577 20.7288 2.75197 21.245C4.27306 22.766 6.73705 22.766 8.25814 21.245ZM6.96418 17.7762C7.36338 17.7762 7.69375 18.1065 7.69375 18.5058C7.68688 18.9117 7.36338 19.2353 6.9573 19.2421L6.23463 19.2353L6.2415 19.9304C6.23463 20.3365 5.91113 20.6599 5.50505 20.6669C5.09897 20.6599 4.7755 20.3365 4.7686 19.9304L4.7755 19.2353L4.0528 19.2421C3.64672 19.2353 3.32325 18.9117 3.31636 18.5058C3.32325 18.3061 3.40583 18.1272 3.53661 17.9964C3.66737 17.8656 3.84633 17.783 4.04592 17.7762H4.7755V17.019C4.7755 16.8126 4.85808 16.6337 4.98886 16.5029C5.11962 16.3721 5.29858 16.2894 5.50505 16.2894C5.90425 16.2894 6.23463 16.6199 6.23463 17.019V17.7762H6.96418Z" fill="white"/>
<path d="M15.0932 3.84549V7.54426H13.6332V3.84549C13.6332 3.58267 13.3996 3.45613 13.2439 3.45613C13.1952 3.45613 13.1466 3.46588 13.098 3.48534L5.37913 6.39569C4.86324 6.59035 4.53231 7.07704 4.53231 7.63186V8.28401C3.64654 8.94589 3.07227 10.0068 3.07227 11.2041V7.63186C3.07227 6.47356 3.78282 5.4418 4.86324 5.03298L12.5917 2.1129C12.8058 2.03503 13.0297 1.99609 13.2439 1.99609C14.2172 1.99609 15.0932 2.78453 15.0932 3.84549Z" fill="white"/>
<path d="M21.5672 14.1117V15.0849C21.5672 15.3478 21.3627 15.5619 21.0902 15.5716H19.6691C19.1533 15.5716 18.686 15.1921 18.647 14.6859C18.6179 14.3841 18.7346 14.102 18.9294 13.9072C19.1046 13.7223 19.3478 13.625 19.6106 13.625H21.0805C21.3627 13.6347 21.5672 13.8489 21.5672 14.1117Z" fill="white"/>
<path d="M19.5999 12.6044H20.5927C21.1281 12.6044 21.5661 12.1664 21.5661 11.6311V11.2028C21.5661 9.18793 19.9212 7.54297 17.9064 7.54297H6.7321C5.90475 7.54297 5.14552 7.8155 4.53231 8.28271C3.64654 8.94459 3.07227 10.0055 3.07227 11.2028V12.9355C3.07227 13.3052 3.46162 13.5388 3.81202 13.4221C4.35711 13.2371 4.93138 13.1398 5.50566 13.1398C8.45494 13.1398 10.8591 15.544 10.8591 18.4933C10.8591 19.1941 10.6742 19.963 10.3822 20.6444C10.2264 20.9948 10.4698 21.4133 10.8494 21.4133H17.9064C19.9212 21.4133 21.5661 19.7683 21.5661 17.7535V17.5687C21.5661 17.0332 21.1281 16.5952 20.5927 16.5952H19.746C18.8115 16.5952 17.916 16.0209 17.6726 15.1157C17.478 14.3759 17.7116 13.6556 18.1983 13.1884C18.5584 12.8186 19.0548 12.6044 19.5999 12.6044ZM14.2659 12.4097H9.3991C9.00003 12.4097 8.66908 12.0788 8.66908 11.6797C8.66908 11.2806 9.00003 10.9497 9.3991 10.9497H14.2659C14.665 10.9497 14.9959 11.2806 14.9959 11.6797C14.9959 12.0788 14.665 12.4097 14.2659 12.4097Z" fill="white"/>
</svg>
