<svg width="24" height="24" viewBox="0 0 24 24" fill="none" xmlns="http://www.w3.org/2000/svg">
<path d="M14.85 3.94687V7.74688H13.35V3.94687C13.35 3.67687 13.11 3.54688 12.9499 3.54688C12.9 3.54688 12.85 3.55687 12.7999 3.57687L4.87 6.56689C4.34 6.76688 4 7.26687 4 7.83688V8.50687C3.08999 9.18688 2.5 10.2769 2.5 11.5069V7.83688C2.5 6.64687 3.23 5.58688 4.34 5.16688L12.28 2.16687C12.4999 2.08687 12.73 2.04688 12.9499 2.04688C13.95 2.04688 14.85 2.85687 14.85 3.94687Z" fill="white"/>
<path d="M21.5007 14.4999V15.5C21.5007 15.77 21.2907 15.99 21.0107 15.9999H19.5507C19.0206 15.9999 18.5406 15.6099 18.5007 15.09C18.4707 14.78 18.5907 14.49 18.7907 14.2899C18.9707 14.1 19.2207 14 19.4907 14H21.0006C21.2907 14.01 21.5007 14.2299 21.5007 14.4999Z" fill="white"/>
<path d="M19.48 12.95H20.5C21.0499 12.95 21.4999 12.5 21.4999 11.95V11.51C21.4999 9.44 19.81 7.75 17.74 7.75H6.26C5.41 7.75 4.63 8.03 4 8.51C3.08999 9.19 2.5 10.28 2.5 11.51V18.24C2.5 20.31 4.19 22 6.26 22H17.74C19.81 22 21.4999 20.31 21.4999 18.24V18.05C21.4999 17.5 21.0499 17.05 20.5 17.05H19.63C18.67 17.05 17.7499 16.46 17.5 15.53C17.29 14.77 17.5399 14.04 18.04 13.55C18.4099 13.17 18.9199 12.95 19.48 12.95ZM13.9999 12.75H7C6.59 12.75 6.25 12.41 6.25 12C6.25 11.59 6.59 11.25 7 11.25H13.9999C14.41 11.25 14.7499 11.59 14.7499 12C14.7499 12.41 14.41 12.75 13.9999 12.75Z" fill="white"/>
</svg>
