<svg width="24" height="24" viewBox="0 0 24 24" fill="none" xmlns="http://www.w3.org/2000/svg">
<path d="M14.85 3.94687V7.74688H13.35V3.94687C13.35 3.67687 13.11 3.54688 12.9499 3.54688C12.9 3.54688 12.85 3.55687 12.7999 3.57687L4.87 6.56689C4.34 6.76688 4 7.26687 4 7.83688V8.50687C3.08999 9.18688 2.5 10.2769 2.5 11.5069V7.83688C2.5 6.64687 3.23 5.58688 4.34 5.16688L12.28 2.16687C12.4999 2.08687 12.73 2.04688 12.9499 2.04688C13.95 2.04688 14.85 2.85687 14.85 3.94687Z" fill="white"/>
<path d="M21.5007 14.4999V15.5C21.5007 15.77 21.2907 15.99 21.0107 15.9999H19.5507C19.0206 15.9999 18.5406 15.6099 18.5007 15.09C18.4707 14.78 18.5907 14.49 18.7907 14.2899C18.9707 14.1 19.2207 14 19.4907 14H21.0006C21.2907 14.01 21.5007 14.2299 21.5007 14.4999Z" fill="white"/>
<path d="M5 15C4.06 15 3.19 15.33 2.5 15.88C1.58 16.61 1 17.74 1 19C1 19.75 1.21 20.46 1.58 21.06C2.27 22.22 3.53999 23 5 23C6.01 23 6.92999 22.63 7.63 22C7.94 21.74 8.21 21.42 8.42 21.06C8.78999 20.46 8.99999 19.75 8.99999 19C8.99999 16.79 7.21 15 5 15ZM3.41999 18.46C3.13 18.17 3.13 17.69 3.41999 17.4C3.71999 17.11 4.19 17.11 4.49 17.4L5.00999 17.93L5.51 17.42C5.81 17.13 6.28 17.13 6.58 17.42C6.86999 17.72 6.86999 18.19 6.58 18.49L6.07 18.99L6.59999 19.51C6.89 19.81 6.89 20.28 6.59999 20.58C6.44999 20.72 6.26 20.79 6.07 20.79C5.87999 20.79 5.69 20.72 5.54 20.58L5.00999 20.05L4.46 20.6C4.31 20.75 4.12 20.82 3.92999 20.82C3.74 20.82 3.55 20.75 3.4 20.6C3.11 20.31 3.11 19.83 3.4 19.54L3.95 18.99L3.41999 18.46Z" fill="white"/>
<path d="M19.48 12.95H20.5C21.0499 12.95 21.4999 12.5 21.4999 11.95V11.51C21.4999 9.44 19.81 7.75 17.74 7.75H6.26C5.41 7.75 4.63 8.03 4 8.51C3.08999 9.19 2.5 10.28 2.5 11.51V13.29C2.5 13.67 2.9 13.91 3.26 13.79C3.82 13.6 4.40999 13.5 5 13.5C8.03 13.5 10.5 15.97 10.5 19C10.5 19.72 10.31 20.51 10.01 21.21C9.85 21.57 10.1 22 10.49 22H17.74C19.81 22 21.4999 20.31 21.4999 18.24V18.05C21.4999 17.5 21.0499 17.05 20.5 17.05H19.63C18.67 17.05 17.7499 16.46 17.5 15.53C17.2999 14.77 17.5399 14.03 18.04 13.55C18.4099 13.17 18.9199 12.95 19.48 12.95ZM13.9999 12.75H8.99999C8.59 12.75 8.24999 12.41 8.24999 12C8.24999 11.59 8.59 11.25 8.99999 11.25H13.9999C14.41 11.25 14.7499 11.59 14.7499 12C14.7499 12.41 14.41 12.75 13.9999 12.75Z" fill="white"/>
</svg>
