<svg width="24" height="24" viewBox="0 0 24 24" fill="none" xmlns="http://www.w3.org/2000/svg">
<path fill-rule="evenodd" clip-rule="evenodd" d="M2.5259 7.73853C1.71282 8.14507 1.19922 8.97611 1.19922 9.88515V19.2019C1.19922 20.5274 2.27373 21.6019 3.59922 21.6019H20.3992C21.7247 21.6019 22.7992 20.5274 22.7992 19.2019V9.88515C22.7992 8.97611 22.2856 8.14507 21.4725 7.73853L13.0725 3.53853C12.3969 3.2007 11.6016 3.2007 10.9259 3.53853L2.5259 7.73853ZM4.30171 12.5469C3.85713 12.3247 3.31652 12.5048 3.09423 12.9494C2.87195 13.394 3.05215 13.9346 3.49673 14.1568L10.5234 17.6702C11.4525 18.1347 12.5459 18.1347 13.475 17.6702L20.498 14.1587C20.9426 13.9365 21.1227 13.3959 20.9005 12.9513C20.6782 12.5067 20.1375 12.3265 19.693 12.5488L12.67 16.0603C12.2477 16.2713 11.7507 16.2713 11.3284 16.0603L4.30171 12.5469Z" fill="#0F172A"/>
</svg>
