<svg width="24" height="24" viewBox="0 0 24 24" fill="none" xmlns="http://www.w3.org/2000/svg">
<path d="M9.27914 20.3074C9.44915 20.7874 8.92914 21.2274 8.48913 20.9674L5.33915 19.1775C4.76915 18.8475 4.41915 18.0574 4.53915 17.4174L5.47915 12.7474C5.58915 12.1974 6.34915 12.1474 6.53916 12.6675L9.27914 20.3074Z" fill="white"/>
<path d="M18.6589 19.1827L15.4988 20.9827C15.0589 21.2327 14.5388 20.8027 14.7088 20.3227L17.4589 12.6127C17.6488 12.0928 18.4088 12.1427 18.5188 12.6928L19.4689 17.4227C19.5788 18.0628 19.2289 18.8527 18.6589 19.1827Z" fill="white"/>
<path d="M17.08 7.32031C17.32 7.62031 17.39 8.02031 17.26 8.38031L12.52 21.6302C12.35 22.1203 11.66 22.1203 11.49 21.6302L6.74999 8.39032C6.61999 8.03032 6.68999 7.63031 6.92999 7.33031L10.75 2.63031C11.44 1.80031 12.58 1.80031 13.28 2.63031L17.08 7.32031Z" fill="white"/>
</svg>
