<svg width="24" height="24" viewBox="0 0 24 24" fill="none" xmlns="http://www.w3.org/2000/svg">
<path d="M21.0303 22H13.9902C13.5702 22 13.2402 21.66 13.2402 21.25C13.2402 20.8401 13.5802 20.5 13.9902 20.5H21.0303C21.4503 20.5 21.7803 20.8401 21.7803 21.25C21.7803 21.66 21.4503 22 21.0303 22Z" fill="white"/>
<path d="M13.64 16.6894C14.03 17.0794 14.03 17.7094 13.64 18.1094L10.66 21.0894C9.55 22.1994 7.77 22.2594 6.59 21.2694C6.52 21.2094 6.46 21.1494 6.4 21.0894L5.53 20.2194L3.74 18.4294L2.88 17.5694C2.81 17.4994 2.75 17.4294 2.69 17.3594C1.71 16.1794 1.78 14.4194 2.88 13.3194L5.86 10.3394C6.25 9.94937 6.88 9.94937 7.27 10.3394L13.64 16.6894Z" fill="white"/>
<path d="M21.1194 10.6376L16.1195 15.6376C15.7295 16.0276 15.0995 16.0276 14.7095 15.6376L8.33937 9.28749C7.94938 8.89749 7.94938 8.2675 8.33937 7.8675L13.3394 2.8775C14.5094 1.7075 16.4294 1.7075 17.5994 2.8775L21.1194 6.3875C22.2894 7.5575 22.2894 9.46749 21.1194 10.6376Z" fill="white"/>
</svg>
