<svg width="24" height="24" viewBox="0 0 24 24" fill="none" xmlns="http://www.w3.org/2000/svg">
<path d="M8.77011 14.4302L10.3801 15.1502C11.4101 15.6101 12.5901 15.6101 13.6301 15.1502L15.2401 14.4302C16.6801 13.7901 18.0101 15.5301 17.0101 16.7501L13.5501 20.9801C12.7001 22.0202 11.3101 22.0202 10.4501 20.9801L7.00011 16.7501C5.99011 15.5301 7.32012 13.7901 8.77011 14.4302Z" fill="white"/>
<path d="M8.56929 11.6719C8.26929 11.8919 8.30929 12.3518 8.64929 12.5219L10.9993 13.6919C11.5493 13.9718 12.4393 13.9718 12.9793 13.6919L15.3293 12.5219C15.6593 12.3518 15.6994 11.9019 15.4093 11.6719L12.2993 9.33187C12.1193 9.20188 11.8793 9.20188 11.6993 9.33187L8.56929 11.6719Z" fill="white"/>
<path d="M17.8804 8.23728L13.7104 3.03728C13.6303 2.93727 13.5403 2.84727 13.4503 2.75727C13.1903 2.50728 12.8203 2.73728 12.8203 3.09728V7.39728C12.8203 7.55727 12.8903 7.70728 13.0204 7.79728L17.1703 10.9173L17.3503 11.0472C17.5303 11.1772 17.7803 11.1772 17.9303 11.0172C18.6304 10.2573 18.6203 9.15728 17.8804 8.23728Z" fill="white"/>
<path d="M6.10985 8.33082L10.2599 3.05082C10.3399 2.95083 10.4199 2.86083 10.5099 2.77083C10.7699 2.52082 11.1399 2.74083 11.1399 3.11082V7.48083C11.1399 7.64082 11.0699 7.78083 10.9399 7.88082L6.80985 11.0508L6.63984 11.1808C6.45984 11.3108 6.20986 11.3108 6.04985 11.1408C5.36986 10.3708 5.37986 9.27082 6.10985 8.33082Z" fill="white"/>
</svg>
