<svg width="24" height="24" viewBox="0 0 24 24" fill="none" xmlns="http://www.w3.org/2000/svg">
<path d="M6.90012 9.09718L11.6701 6.97718C11.8801 6.88718 12.1201 6.88718 12.3202 6.97718L17.09 9.09718C17.51 9.28718 17.9 8.77718 17.6101 8.41718L12.6101 2.30719C12.2701 1.88719 11.7101 1.88719 11.3701 2.30719L6.37009 8.41718C6.09009 8.77718 6.48012 9.28718 6.90012 9.09718Z" fill="white"/>
<path d="M6.90056 14.9005L11.6805 17.0204C11.8905 17.1104 12.1306 17.1104 12.3305 17.0204L17.1105 14.9005C17.5305 14.7104 17.9205 15.2204 17.6305 15.5804L12.6305 21.6905C12.2905 22.1105 11.7306 22.1105 11.3906 21.6905L6.39054 15.5804C6.09054 15.2204 6.47056 14.7104 6.90056 14.9005Z" fill="white"/>
<path d="M11.7806 9.49L7.65054 11.55C7.28055 11.73 7.28055 12.26 7.65054 12.44L11.7806 14.5C11.9206 14.57 12.0905 14.57 12.2305 14.5L16.3605 12.44C16.7305 12.26 16.7305 11.73 16.3605 11.55L12.2305 9.49C12.0805 9.42 11.9206 9.42 11.7806 9.49Z" fill="white"/>
</svg>
