<svg width="24" height="24" viewBox="0 0 24 24" fill="none" xmlns="http://www.w3.org/2000/svg">
<path fill-rule="evenodd" clip-rule="evenodd" d="M10.1822 2.99531C10.9905 1.59531 13.0112 1.59531 13.8195 2.99532L21.3539 16.0453C22.1621 17.4454 21.1519 19.1953 19.5352 19.1953H4.46641C2.84983 19.1953 1.83947 17.4454 2.64776 16.0453L10.1822 2.99531ZM12.0008 6.00132C12.4978 6.00132 12.9008 6.40426 12.9008 6.90132V11.1013C12.9008 11.5984 12.4978 12.0013 12.0008 12.0013C11.5037 12.0013 11.1008 11.5984 11.1008 11.1013V6.90132C11.1008 6.40426 11.5037 6.00132 12.0008 6.00132ZM12.0008 16.8013C12.6635 16.8013 13.2008 16.2641 13.2008 15.6013C13.2008 14.9386 12.6635 14.4013 12.0008 14.4013C11.338 14.4013 10.8008 14.9386 10.8008 15.6013C10.8008 16.2641 11.338 16.8013 12.0008 16.8013Z" fill="#0F172A"/>
</svg>
