<svg width="24" height="24" viewBox="0 0 24 24" fill="none" xmlns="http://www.w3.org/2000/svg">
<path fill-rule="evenodd" clip-rule="evenodd" d="M21.6004 11.9984C21.6004 17.3004 17.3024 21.5984 12.0004 21.5984C6.69845 21.5984 2.40039 17.3004 2.40039 11.9984C2.40039 6.6965 6.69845 2.39844 12.0004 2.39844C17.3024 2.39844 21.6004 6.6965 21.6004 11.9984ZM12.0004 5.99844C12.4974 5.99844 12.9004 6.40139 12.9004 6.89844V12.2984C12.9004 12.7955 12.4974 13.1984 12.0004 13.1984C11.5033 13.1984 11.1004 12.7955 11.1004 12.2984V6.89844C11.1004 6.40139 11.5033 5.99844 12.0004 5.99844ZM12.0004 17.9984C12.6632 17.9984 13.2004 17.4612 13.2004 16.7984C13.2004 16.1357 12.6632 15.5984 12.0004 15.5984C11.3376 15.5984 10.8004 16.1357 10.8004 16.7984C10.8004 17.4612 11.3376 17.9984 12.0004 17.9984Z" fill="#0F172A"/>
</svg>
