<svg width="24" height="24" viewBox="0 0 24 24" fill="none" xmlns="http://www.w3.org/2000/svg">
<path d="M16.8 9H12.75V15.25C12.75 15.66 12.41 16 12 16C11.59 16 11.25 15.66 11.25 15.25V9H7.20001C4 9 2 11 2 14.2V16.79C2 20 4 22 7.20001 22H16.79C19.9901 22 21.99 20 21.99 16.8V14.2C22.0001 11 20 9 16.8 9Z" fill="white"/>
<path d="M12.7498 4.5575L14.8198 6.6275C14.9698 6.7775 15.1598 6.8475 15.3498 6.8475C15.5398 6.8475 15.7298 6.7775 15.8798 6.6275C16.1698 6.3375 16.1698 5.8575 15.8798 5.56751L12.5298 2.2175C12.2398 1.9275 11.7598 1.9275 11.4698 2.2175L8.11985 5.56751C7.82984 5.8575 7.82984 6.3375 8.11985 6.6275C8.40985 6.91751 8.88985 6.91751 9.17984 6.6275L11.2498 4.5575V8.9975H12.7498V4.5575Z" fill="white"/>
</svg>
