<svg width="24" height="24" viewBox="0 0 24 24" fill="none" xmlns="http://www.w3.org/2000/svg">
<path d="M21.14 9.89844H12.75V15.3785C12.75 15.7884 12.41 16.1285 12 16.1285C11.59 16.1285 11.25 15.7884 11.25 15.3785V9.89844H2.86C2.38 9.89844 2 10.2785 2 10.7585C2 16.6484 6.11 20.7584 12 20.7584C17.8901 20.7584 22.0001 16.6484 22.0001 10.7585C22.0001 10.2785 21.62 9.89844 21.14 9.89844Z" fill="white"/>
<path d="M12.7504 5.79968L14.3104 7.35969C14.6004 7.64969 15.0804 7.64969 15.3704 7.35969C15.6604 7.06969 15.6604 6.58969 15.3704 6.29969L12.5204 3.45968C12.2304 3.16969 11.7504 3.16969 11.4604 3.45968L8.62039 6.30968C8.48039 6.45968 8.40039 6.64969 8.40039 6.83969C8.40039 7.02968 8.47039 7.21969 8.62039 7.36969C8.91039 7.65968 9.39039 7.65968 9.6804 7.36969L11.2404 5.80969V9.89969H12.7404V5.79968H12.7504Z" fill="white"/>
</svg>
