<svg width="24" height="24" viewBox="0 0 24 24" fill="none" xmlns="http://www.w3.org/2000/svg">
<path fill-rule="evenodd" clip-rule="evenodd" d="M14.519 4.39923C14.9677 2.56242 16.6243 1.19922 18.5992 1.19922C18.6167 1.19922 18.6343 1.19933 18.6518 1.19954C19.118 1.20525 19.5659 1.28695 19.9838 1.4328C20.5629 1.63434 21.1067 1.96638 21.5697 2.42925C22.6696 3.52922 23.0308 5.08703 22.6574 6.48549C22.4731 7.17617 22.1096 7.82897 21.5697 8.36894C21.2042 8.73444 20.7869 9.01904 20.3414 9.22199C20.1142 9.32569 19.8761 9.40974 19.6294 9.47195L19.1992 9.58722V11.9992C19.1992 12.2379 19.1044 12.4669 18.9356 12.6356L18.6356 12.9356C18.2841 13.2871 17.7143 13.2871 17.3629 12.9356L16.3492 11.922L8.66282 19.6084C8.15647 20.1147 7.46971 20.3992 6.75363 20.3992H6.1448C5.90611 20.3992 5.67719 20.494 5.50841 20.6627L3.63561 22.5356C3.28415 22.8871 2.71429 22.8871 2.36282 22.5356L1.46282 21.6356C1.11135 21.2841 1.11135 20.7142 1.46282 20.3627L3.33561 18.49C3.50439 18.3212 3.59922 18.0923 3.59922 17.8537V17.2448C3.59922 16.5287 3.88368 15.842 4.39003 15.3356L12.0764 7.64919L11.0628 6.63559C10.7114 6.28411 10.7114 5.71427 11.0628 5.3628L11.3628 5.0628C11.5316 4.89401 11.7605 4.79919 11.9992 4.79919H14.4118L14.519 4.39923ZM5.66282 16.6084L13.3492 8.92199L15.0764 10.6492L7.39003 18.3356C7.22125 18.5044 6.99233 18.5992 6.75363 18.5992H6.1448C5.83525 18.5992 5.53118 18.6524 5.2448 18.7537C5.34606 18.4672 5.39922 18.1631 5.39922 17.8537V17.2448C5.39922 17.0061 5.49404 16.7771 5.66282 16.6084Z" fill="#0F172A"/>
</svg>
