<svg width="24" height="24" viewBox="0 0 24 24" fill="none" xmlns="http://www.w3.org/2000/svg">
<path fill-rule="evenodd" clip-rule="evenodd" d="M3.93678 2.66204C3.58532 2.31057 3.01546 2.31057 2.66399 2.66204C2.31252 3.01351 2.31252 3.58336 2.66399 3.93483L20.064 21.3348C20.4155 21.6863 20.9853 21.6863 21.3367 21.3348C21.6882 20.9833 21.6882 20.4136 21.3367 20.0621L19.2426 17.9678C21.0081 16.6297 22.3918 14.8142 23.2017 12.7135C23.3781 12.2557 23.3783 11.748 23.202 11.29C21.4708 6.79105 17.1076 3.59843 11.9987 3.59843C9.93887 3.59843 8.00027 4.11742 6.30651 5.03176L3.93678 2.66204ZM9.30272 8.02797L10.6128 9.33805C11.0278 9.12111 11.4999 8.99843 12.0006 8.99843C13.6575 8.99843 15.0006 10.3416 15.0006 11.9984C15.0006 12.4992 14.878 12.9713 14.661 13.3862L15.9713 14.6965C16.4949 13.9277 16.8009 12.9988 16.8009 11.9984C16.8009 9.34747 14.6518 7.19843 12.0009 7.19843C11.0005 7.19843 10.0716 7.50445 9.30272 8.02797Z" fill="#0F172A"/>
<path d="M12.8991 16.7153L15.9263 19.7425C14.6964 20.1679 13.3759 20.399 12.0015 20.399C6.89255 20.399 2.52935 17.2064 0.798082 12.7075C0.621847 12.2495 0.621998 11.7418 0.798508 11.2839C1.38821 9.75421 2.28227 8.37571 3.40647 7.22266L7.28522 11.1014C7.23021 11.3922 7.20142 11.6922 7.20142 11.999C7.20142 14.6499 9.35045 16.799 12.0015 16.799C12.3082 16.799 12.6083 16.7702 12.8991 16.7153Z" fill="#0F172A"/>
</svg>
