<svg width="24" height="24" viewBox="0 0 24 24" fill="none" xmlns="http://www.w3.org/2000/svg">
<path d="M12 15C13.6568 15 15 13.6568 15 12C15 10.3431 13.6568 9 12 9C10.3431 9 9 10.3431 9 12C9 13.6568 10.3431 15 12 15Z" fill="#0F172A"/>
<path fill-rule="evenodd" clip-rule="evenodd" d="M0.798082 12.71C0.621847 12.252 0.621998 11.7443 0.798508 11.2865C2.53151 6.79102 6.89294 3.60156 11.9993 3.60156C17.1082 3.60156 21.4714 6.79417 23.2026 11.2931C23.3789 11.7511 23.3787 12.2588 23.2023 12.7166C21.4692 17.2121 17.1078 20.4016 12.0015 20.4016C6.89255 20.4016 2.52935 17.209 0.798082 12.71ZM16.8015 12.0016C16.8015 14.6525 14.6524 16.8016 12.0015 16.8016C9.35045 16.8016 7.20142 14.6525 7.20142 12.0016C7.20142 9.35059 9.35045 7.20156 12.0015 7.20156C14.6524 7.20156 16.8015 9.35059 16.8015 12.0016Z" fill="#0F172A"/>
</svg>
