<svg width="24" height="24" viewBox="0 0 24 24" fill="none" xmlns="http://www.w3.org/2000/svg">
<path d="M22.0001 16.19C22.0001 19.83 19.83 22 16.19 22H15C14.45 22 14 21.55 14 21V15.23C14 14.96 14.22 14.73 14.49 14.73L16.25 14.7C16.3901 14.69 16.5101 14.59 16.5401 14.45L16.89 12.54C16.92 12.36 16.7801 12.19 16.59 12.19L14.46 12.22C14.18 12.22 13.9601 12 13.95 11.73L13.91 9.28C13.91 9.12 14.04 8.98 14.21 8.98L16.61 8.94C16.7801 8.94 16.91 8.81001 16.91 8.64001L16.8701 6.23998C16.8701 6.06999 16.74 5.94 16.5701 5.94L13.8701 5.98C12.21 6.01 10.89 7.37 10.92 9.03L10.97 11.78C10.98 12.06 10.76 12.28 10.48 12.29L9.28 12.31C9.11 12.31 8.98002 12.44 8.98002 12.61L9.01002 14.51C9.01002 14.68 9.14 14.81 9.31 14.81L10.51 14.79C10.79 14.79 11.01 15.01 11.02 15.28L11.11 20.98C11.12 21.54 10.67 22 10.11 22H7.81C4.17001 22 2 19.83 2 16.18V7.81C2 4.17 4.17001 2 7.81 2H16.19C19.83 2 22.0001 4.17 22.0001 7.81V16.19Z" fill="white"/>
</svg>
