<svg width="24" height="24" viewBox="0 0 24 24" fill="none" xmlns="http://www.w3.org/2000/svg">
<path fill-rule="evenodd" clip-rule="evenodd" d="M12.0004 21.5984C17.3024 21.5984 21.6004 17.3004 21.6004 11.9984C21.6004 6.6965 17.3024 2.39844 12.0004 2.39844C6.69845 2.39844 2.40039 6.6965 2.40039 11.9984C2.40039 17.3004 6.69845 21.5984 12.0004 21.5984ZM7.75775 17.4286C8.10922 17.78 8.67907 17.78 9.03055 17.4286C10.6707 15.7884 13.33 15.7884 14.9703 17.4286C15.3218 17.78 15.8915 17.78 16.243 17.4286C16.5945 17.0772 16.5945 16.5073 16.243 16.1558C13.8999 13.8127 10.1009 13.8127 7.75775 16.1558C7.40627 16.5073 7.40627 17.0772 7.75775 17.4286ZM10.8004 10.1984C10.8004 11.1926 10.2631 11.9984 9.60039 11.9984C8.93765 11.9984 8.40039 11.1926 8.40039 10.1984C8.40039 9.20432 8.93765 8.39844 9.60039 8.39844C10.2631 8.39844 10.8004 9.20432 10.8004 10.1984ZM14.4004 11.9984C15.0632 11.9984 15.6004 11.1926 15.6004 10.1984C15.6004 9.20432 15.0632 8.39844 14.4004 8.39844C13.7376 8.39844 13.2004 9.20432 13.2004 10.1984C13.2004 11.1926 13.7376 11.9984 14.4004 11.9984Z" fill="#0F172A"/>
</svg>
