<svg width="24" height="24" viewBox="0 0 24 24" fill="none" xmlns="http://www.w3.org/2000/svg">
<path d="M19.1199 14.9374L19.44 15.5875C19.5999 15.9075 20.01 16.2075 20.3499 16.2675L20.7799 16.3375C22.0899 16.5574 22.3899 17.5174 21.4599 18.4575L21.06 18.8575C20.79 19.1275 20.6499 19.6474 20.73 20.0275L20.7799 20.2675C21.1399 21.8475 20.2999 22.4575 18.93 21.6274L18.6399 21.4474C18.2899 21.2374 17.7099 21.2374 17.3599 21.4474L17.07 21.6274C15.69 22.4575 14.8599 21.8475 15.2199 20.2675L15.27 20.0275C15.3499 19.6575 15.21 19.1275 14.94 18.8575L14.5399 18.4575C13.6099 17.5075 13.9099 16.5574 15.2199 16.3375L15.6499 16.2675C15.9999 16.2075 16.3999 15.9075 16.56 15.5875L16.8799 14.9374C17.4999 13.6875 18.4999 13.6875 19.1199 14.9374Z" fill="white"/>
<path d="M16.19 2H7.81C4.17001 2 2 4.17 2 7.81V16.19C2 19.83 4.17001 22 7.81 22H13.0901C13.44 22 13.6901 21.64 13.65 21.29C13.61 20.91 13.6301 20.46 13.7501 19.94C13.77 19.87 13.7501 19.79 13.6901 19.73L13.47 19.51C12.62 18.65 12.3101 17.61 12.6101 16.66C12.92 15.72 13.7801 15.06 14.97 14.86L15.27 14.81L15.54 14.27C16.0901 13.15 16.9901 12.5 18 12.5C19.01 12.5 19.91 13.15 20.46 14.27L20.61 14.58C20.6801 14.73 20.82 14.83 20.9801 14.86C21.0701 14.88 21.1601 14.9 21.2501 14.92C21.6 15.01 22.0001 14.73 22.0001 14.36V7.81C22.0001 4.17 19.83 2 16.19 2ZM16.26 8.96L13.95 11.94C13.6601 12.31 13.25 12.55 12.78 12.6C12.32 12.66 11.85 12.53 11.49 12.24L9.66001 10.82C9.59 10.76 9.51001 10.76 9.47 10.77C9.43 10.77 9.36001 10.79 9.30001 10.87L6.92 13.96C6.77 14.15 6.55 14.25 6.32 14.25C6.16 14.25 6.00001 14.2 5.86 14.09C5.53 13.84 5.47 13.37 5.72 13.04L8.10001 9.95C8.39 9.58 8.8 9.34 9.27001 9.28C9.74 9.22 10.2 9.35 10.57 9.64001L12.4001 11.08C12.47 11.14 12.54 11.13 12.59 11.13C12.63 11.13 12.7001 11.11 12.7601 11.03L15.0701 8.05C15.32 7.72 15.7901 7.66 16.1201 7.92C16.46 8.17 16.5101 8.64 16.26 8.96Z" fill="white"/>
</svg>
