<svg width="24" height="24" viewBox="0 0 24 24" fill="none" xmlns="http://www.w3.org/2000/svg">
<path fill-rule="evenodd" clip-rule="evenodd" d="M1.19922 5.70156C1.19922 4.54176 2.13942 3.60156 3.29922 3.60156H20.6992C21.859 3.60156 22.7992 4.54176 22.7992 5.70156V18.3196C22.7992 19.4794 21.859 20.4196 20.6992 20.4196H18.8992C18.8055 20.4196 18.7133 20.4134 18.6229 20.4016H5.37554C5.28512 20.4134 5.19289 20.4196 5.09922 20.4196H3.29922C2.13942 20.4196 1.19922 19.4794 1.19922 18.3196V5.70156ZM20.9992 14.5636V13.2136C20.9992 13.0478 20.8649 12.9136 20.6992 12.9136H18.8992C18.7335 12.9136 18.5992 13.0478 18.5992 13.2136V14.5636C18.5992 14.7293 18.7335 14.8636 18.8992 14.8636H20.6992C20.8649 14.8636 20.9992 14.7293 20.9992 14.5636ZM20.9992 16.9696C20.9992 16.8038 20.8649 16.6696 20.6992 16.6696H18.8992C18.7335 16.6696 18.5992 16.8038 18.5992 16.9696V18.3196C18.5992 18.4492 18.6814 18.5597 18.7966 18.6016H20.6992C20.8649 18.6016 20.9992 18.4673 20.9992 18.3016V16.9696ZM2.99922 18.3016V16.9696C2.99922 16.8038 3.13353 16.6696 3.29922 16.6696H5.09922C5.2649 16.6696 5.39922 16.8038 5.39922 16.9696V18.3196C5.39922 18.4492 5.31699 18.5597 5.20185 18.6016H3.29922C3.13353 18.6016 2.99922 18.4673 2.99922 18.3016ZM5.39922 13.2136V14.5636C5.39922 14.7293 5.2649 14.8636 5.09922 14.8636H3.29922C3.13353 14.8636 2.99922 14.7293 2.99922 14.5636V13.2136C2.99922 13.0478 3.13353 12.9136 3.29922 12.9136H5.09922C5.2649 12.9136 5.39922 13.0478 5.39922 13.2136ZM20.9992 10.8076V9.45756C20.9992 9.29188 20.8649 9.15756 20.6992 9.15756H18.8992C18.7335 9.15756 18.5992 9.29188 18.5992 9.45756V10.8076C18.5992 10.9733 18.7335 11.1076 18.8992 11.1076H20.6992C20.8649 11.1076 20.9992 10.9733 20.9992 10.8076ZM5.09922 9.15756C5.2649 9.15756 5.39922 9.29188 5.39922 9.45756V10.8076C5.39922 10.9733 5.2649 11.1076 5.09922 11.1076H3.29922C3.13353 11.1076 2.99922 10.9733 2.99922 10.8076V9.45756C2.99922 9.29188 3.13353 9.15756 3.29922 9.15756H5.09922ZM5.09922 5.40156C5.2649 5.40156 5.39922 5.53588 5.39922 5.70156V7.05156C5.39922 7.21725 5.2649 7.35156 5.09922 7.35156H3.29922C3.13353 7.35156 2.99922 7.21725 2.99922 7.05156V5.70156C2.99922 5.53588 3.13353 5.40156 3.29922 5.40156H5.09922ZM18.8992 7.35156C18.7335 7.35156 18.5992 7.21725 18.5992 7.05156V5.70156C18.5992 5.53588 18.7335 5.40156 18.8992 5.40156H20.6992C20.8649 5.40156 20.9992 5.53588 20.9992 5.70156V7.05156C20.9992 7.21725 20.8649 7.35156 20.6992 7.35156H18.8992ZM8.09922 11.1016C7.60217 11.1016 7.19922 11.5045 7.19922 12.0016C7.19922 12.4986 7.60217 12.9016 8.09922 12.9016H15.8992C16.3963 12.9016 16.7992 12.4986 16.7992 12.0016C16.7992 11.5045 16.3963 11.1016 15.8992 11.1016H8.09922Z" fill="#0F172A"/>
</svg>
