<svg width="24" height="24" viewBox="0 0 24 24" fill="none" xmlns="http://www.w3.org/2000/svg">
<path d="M16.8808 10C14.2609 10 12.1309 12.13 12.1309 14.75C12.1309 15.64 12.3808 16.48 12.8209 17.2C13.6408 18.58 15.1509 19.5 16.8808 19.5C18.6109 19.5 20.1208 18.57 20.9409 17.2C21.3808 16.49 21.6309 15.64 21.6309 14.75C21.6309 12.13 19.5109 10 16.8808 10ZM18.6609 15.48H17.6308V16.55C17.6308 16.96 17.2909 17.3 16.8808 17.3C16.4709 17.3 16.1308 16.96 16.1308 16.55V15.48H15.1108C14.7009 15.48 14.3608 15.14 14.3608 14.73C14.3608 14.32 14.7009 13.98 15.1108 13.98H16.1308V13C16.1308 12.59 16.4709 12.25 16.8808 12.25C17.2909 12.25 17.6308 12.59 17.6308 13V13.98H18.6609C19.0708 13.98 19.4109 14.32 19.4109 14.73C19.4109 15.14 19.0708 15.48 18.6609 15.48Z" fill="white"/>
<path d="M20.5799 4.02V6.24C20.5799 7.05 20.0799 8.06 19.5799 8.57L19.3999 8.73C19.2599 8.85999 19.0499 8.89 18.8699 8.83C18.6699 8.76 18.4699 8.71 18.2699 8.66C17.8299 8.55 17.36 8.5 16.88 8.5C13.43 8.5 10.6299 11.3 10.6299 14.75C10.6299 15.89 10.9399 17.01 11.5299 17.97C12.0299 18.81 12.7299 19.51 13.4899 19.98C13.7199 20.13 13.8099 20.45 13.6099 20.63C13.5399 20.69 13.4699 20.74 13.3999 20.79L11.9999 21.7C10.6999 22.51 8.90992 21.6 8.90992 19.98V14.63C8.90992 13.92 8.50993 13.01 8.10992 12.51L4.31992 8.47C3.81992 7.96 3.41992 7.05 3.41992 6.45V4.12C3.41992 2.91 4.31992 2 5.40992 2H18.5899C19.6799 2 20.5799 2.91 20.5799 4.02Z" fill="white"/>
</svg>
