<svg width="24" height="24" viewBox="0 0 24 24" fill="none" xmlns="http://www.w3.org/2000/svg">
<path d="M20.6008 4.10157V6.30156C20.6008 7.10157 20.1009 8.10156 19.6009 8.60157L15.3009 12.4015C14.7009 12.9016 14.3008 13.9015 14.3008 14.7016V19.0015C14.3008 19.6015 13.9009 20.4016 13.4008 20.7016L12.0009 21.6016C10.7009 22.4016 8.90086 21.5016 8.90086 19.9015V14.6016C8.90086 13.9015 8.50086 13.0015 8.10086 12.5016L7.63086 12.0115C7.32086 11.6815 7.26086 11.1816 7.51086 10.7916L12.6309 2.57157C12.8109 2.28156 13.1308 2.10156 13.4809 2.10156H18.6009C19.7008 2.10156 20.6008 3.00156 20.6008 4.10157Z" fill="white"/>
<path d="M10.3504 3.63156L6.8004 9.32157C6.46039 9.87156 5.68039 9.95157 5.23039 9.48156L4.30039 8.50156C3.8004 8.00157 3.40039 7.10157 3.40039 6.50157V4.20156C3.40039 3.00156 4.30039 2.10156 5.40039 2.10156H9.5004C10.2804 2.10156 10.7604 2.96157 10.3504 3.63156Z" fill="white"/>
</svg>
