<svg width="24" height="24" viewBox="0 0 24 24" fill="none" xmlns="http://www.w3.org/2000/svg">
<path d="M20.9501 4.13C20.66 3.71 20.2901 3.34 19.8701 3.05C18.92 2.36 17.6801 2 16.19 2H7.81C7.61 2 7.41001 2.01 7.22 2.03C3.94 2.24 2 4.37 2 7.81V16.19C2 17.68 2.36 18.92 3.05 19.87C3.34 20.29 3.71 20.66 4.13 20.95C4.95001 21.55 5.99 21.9 7.22 21.98C7.41001 21.99 7.61 22 7.81 22H16.19C19.83 22 22.0001 19.83 22.0001 16.19V7.81C22.0001 6.32 21.6401 5.08 20.9501 4.13ZM8.46001 10.68L7.97 10.17C7.71001 9.91 7.50001 9.44 7.50001 9.12V7.92C7.50001 7.29 7.97 6.82 8.55001 6.82H10.69C11.1 6.82 11.35 7.27 11.13 7.62L9.28 10.6C9.1 10.89 8.69 10.93 8.46001 10.68ZM16.5 9.02C16.5 9.44 16.2401 9.96 15.98 10.22L13.73 12.21C13.4201 12.47 13.2101 12.99 13.2101 13.41V15.66C13.2101 15.97 13.0001 16.39 12.74 16.55L12 17.02C11.32 17.44 10.38 16.97 10.38 16.13V13.36C10.38 12.99 10.17 12.52 9.96001 12.26L9.72001 12C9.56 11.83 9.53 11.57 9.65 11.36L12.33 7.06C12.4301 6.91 12.59 6.81 12.77 6.81H15.45C16.0301 6.81 16.5 7.28 16.5 7.86V9.02Z" fill="white"/>
</svg>
