<svg width="24" height="24" viewBox="0 0 24 24" fill="none" xmlns="http://www.w3.org/2000/svg">
<path fill-rule="evenodd" clip-rule="evenodd" d="M11.9996 2.99922C10.4282 2.99922 8.96788 3.46296 7.74467 4.2608C7.32834 4.53235 6.77071 4.41498 6.49916 3.99866C6.22762 3.58233 6.34498 3.02469 6.7613 2.75315C8.2681 1.77035 10.0685 1.19922 11.9996 1.19922C17.3016 1.19922 21.5996 5.49728 21.5996 10.7992C21.5996 13.8868 21.081 16.8553 20.1253 19.6209C19.963 20.0907 19.4506 20.3399 18.9808 20.1776C18.511 20.0153 18.2617 19.5028 18.4241 19.033C19.3152 16.454 19.7996 13.6841 19.7996 10.7992C19.7996 6.4914 16.3075 2.99922 11.9996 2.99922ZM5.19908 5.29874C5.6154 5.57029 5.73277 6.12792 5.46122 6.54425C4.66338 7.76745 4.19964 9.22781 4.19964 10.7992C4.19964 12.7286 3.62953 14.5276 2.64832 16.0336C2.37697 16.45 1.81939 16.5676 1.40294 16.2963C0.986478 16.025 0.868836 15.4675 1.14018 15.0509C1.93672 13.8284 2.39964 12.3693 2.39964 10.7992C2.39964 8.86812 2.97077 7.06767 3.95358 5.56088C4.22513 5.14455 4.78276 5.02719 5.19908 5.29874ZM11.9996 7.34322C10.0114 7.34322 8.39964 8.95499 8.39964 10.9432C8.39964 10.9598 8.3992 10.9762 8.39832 10.9925C8.35288 14.2995 7.1432 17.3273 5.16162 19.6814C4.84152 20.0617 4.27376 20.1104 3.8935 19.7903C3.51323 19.4702 3.46446 18.9025 3.78455 18.5222C5.54176 16.4347 6.59964 13.7416 6.59964 10.7992C6.59964 10.7658 6.60146 10.7329 6.605 10.7004C6.73198 7.83076 9.09866 5.54322 11.9996 5.54322C14.9005 5.54322 17.2672 7.83057 17.3942 10.7003C17.3978 10.7334 17.3998 10.7671 17.3996 10.8012L17.3994 10.897L17.3996 10.9388C17.3996 10.9523 17.3995 10.9657 17.3989 10.979C17.3981 11.0983 17.3962 11.2173 17.3934 11.3362C17.382 11.8331 16.9698 12.2266 16.4729 12.2151C15.976 12.2037 15.5825 11.7915 15.5939 11.2946C15.597 11.1637 15.5988 11.0325 15.5994 10.901C15.5768 8.93233 13.9738 7.34322 11.9996 7.34322ZM11.9996 9.89922C12.4967 9.89922 12.8996 10.3022 12.8996 10.7992C12.8996 15.0116 11.4753 18.8938 9.08246 21.9871C8.77834 22.3803 8.21306 22.4524 7.81992 22.1483C7.42676 21.8441 7.3546 21.2789 7.65872 20.8857C9.81624 18.0967 11.0996 14.5991 11.0996 10.7992C11.0996 10.3022 11.5026 9.89922 11.9996 9.89922ZM16.2342 14.3366C16.7212 14.4363 17.0351 14.912 16.9352 15.3989C16.4207 17.9105 15.4931 20.2717 14.2271 22.4078C13.9736 22.8355 13.4216 22.9766 12.994 22.7231C12.5664 22.4697 12.4252 21.9177 12.6786 21.4901C13.8445 19.5229 14.6982 17.3494 15.172 15.0376C15.2717 14.5507 15.7474 14.2367 16.2342 14.3366Z" fill="#0F172A"/>
</svg>
