<svg width="24" height="24" viewBox="0 0 24 24" fill="none" xmlns="http://www.w3.org/2000/svg">
<path d="M22 9.75C21.59 9.75 21.25 9.41 21.25 9V7C21.25 4.42 19.58 2.75 17 2.75H15C14.59 2.75 14.25 2.41 14.25 2C14.25 1.59 14.59 1.25 15 1.25H17C20.44 1.25 22.75 3.56 22.75 7V9C22.75 9.41 22.41 9.75 22 9.75Z" fill="white"/>
<path d="M2 9.75C1.59001 9.75 1.25 9.41 1.25 9V7C1.25 3.56 3.56 1.25 7 1.25H9.00001C9.41 1.25 9.75001 1.59 9.75001 2C9.75001 2.41 9.41 2.75 9.00001 2.75H7C4.42 2.75 2.75 4.42 2.75 7V9C2.75 9.41 2.41 9.75 2 9.75Z" fill="white"/>
<path d="M17 22.75H15C14.59 22.75 14.25 22.41 14.25 22C14.25 21.59 14.59 21.25 15 21.25H17C19.58 21.25 21.25 19.58 21.25 17V15C21.25 14.59 21.59 14.25 22 14.25C22.41 14.25 22.75 14.59 22.75 15V17C22.75 20.44 20.44 22.75 17 22.75Z" fill="white"/>
<path d="M9.00001 22.75H7C3.56 22.75 1.25 20.44 1.25 17V15C1.25 14.59 1.59001 14.25 2 14.25C2.41 14.25 2.75 14.59 2.75 15V17C2.75 19.58 4.42 21.25 7 21.25H9.00001C9.41 21.25 9.75001 21.59 9.75001 22C9.75001 22.41 9.41 22.75 9.00001 22.75Z" fill="white"/>
<path d="M11.9996 9.86719C11.5096 9.86719 11.0996 10.2671 11.0996 10.7671V13.2372C11.0996 13.7371 11.4996 14.1372 11.9996 14.1372C12.4996 14.1372 12.8996 13.7371 12.8996 13.2372V10.7671C12.8996 10.2671 12.4896 9.86719 11.9996 9.86719Z" fill="white"/>
<path d="M15.5298 7.39969C15.1898 7.05968 14.7998 6.76969 14.3798 6.52969C14.2398 6.45968 14.0898 6.38968 13.9398 6.31969C13.7898 6.25969 13.6398 6.19969 13.4798 6.15968C13.3198 6.10969 13.1598 6.06968 12.9998 6.02968C12.9898 6.02968 12.9698 6.02968 12.9598 6.01969C12.6498 5.95969 12.3298 5.92969 12.0098 5.92969H11.9898C11.6698 5.92969 11.3598 5.95969 11.0498 6.01969C11.0098 6.02968 10.9698 6.02968 10.9398 6.04969C10.7998 6.07969 10.6598 6.10969 10.5198 6.15968C10.3498 6.19969 10.1798 6.26968 10.0098 6.33968C9.87976 6.39968 9.74976 6.46969 9.62976 6.52969C9.47976 6.60968 9.34977 6.69968 9.20976 6.78968C8.94976 6.96968 8.69976 7.16968 8.46976 7.39969C8.35977 7.50968 8.24976 7.62968 8.14977 7.74968C8.04976 7.87969 7.94976 7.99969 7.85976 8.13968C7.76976 8.26969 7.68976 8.40968 7.60977 8.54968C7.22976 9.25969 7.00977 10.0697 7.00977 10.9297V13.0697C7.00977 14.7997 7.88976 16.3196 9.20976 17.2097C9.32976 17.2997 9.45976 17.3696 9.58977 17.4497L10.1398 17.7097C10.4198 17.8196 10.7098 17.9096 10.9998 17.9696C11.3198 18.0296 11.6498 18.0697 11.9898 18.0697C11.9998 18.0697 11.9998 18.0697 12.0098 18.0697C12.3498 18.0697 12.6798 18.0296 12.9998 17.9696C13.2998 17.9096 13.5898 17.8196 13.8698 17.7097C14.0598 17.6297 14.2398 17.5397 14.4098 17.4497C15.9498 16.5997 16.9898 14.9497 16.9898 13.0697V10.9297C16.9898 9.54968 16.4298 8.29969 15.5298 7.39969ZM14.3998 13.2397C14.3998 14.5597 13.3198 15.6397 11.9998 15.6397C10.6798 15.6397 9.59976 14.5597 9.59976 13.2397V10.7697C9.59976 9.44968 10.6798 8.36968 11.9998 8.36968C13.3198 8.36968 14.3998 9.44968 14.3998 10.7697V13.2397Z" fill="white"/>
</svg>
