<svg width="24" height="24" viewBox="0 0 24 24" fill="none" xmlns="http://www.w3.org/2000/svg">
<path fill-rule="evenodd" clip-rule="evenodd" d="M16.1991 5.92398C20.2168 8.24358 21.5933 13.381 19.2737 17.3986C16.9541 21.4163 11.8167 22.7928 7.79905 20.4732C3.7814 18.1536 2.40485 13.0163 4.72445 8.99859C4.92652 8.64859 5.14998 8.31862 5.39222 8.00941C5.63416 7.70057 6.10097 7.74728 6.34398 8.05525C6.67726 8.47761 7.05684 8.86175 7.47506 9.2C7.87423 9.52283 8.41917 9.14215 8.40306 8.62903C8.40065 8.55257 8.39945 8.47582 8.39945 8.39879C8.39945 7.29655 8.64713 6.25215 9.08988 5.31821C9.72966 3.96869 10.7767 2.84983 12.0724 2.12041C12.3688 1.95355 12.7329 2.10147 12.8848 2.40584C13.5951 3.83007 14.7175 5.06859 16.1991 5.92398ZM16.7994 14.3988C16.7994 17.0498 14.6505 19.1988 11.9994 19.1988C9.7035 19.1988 7.77433 17.5208 7.30762 15.3808C7.19533 14.8661 7.83502 14.6087 8.28416 14.8842C8.86739 15.2418 9.52418 15.4745 10.2059 15.561C10.569 15.607 10.8427 15.2735 10.8172 14.9084C10.8054 14.7401 10.7994 14.5702 10.7994 14.3988C10.7994 12.6866 11.3972 11.1139 12.3953 9.87806C12.5199 9.72383 12.7182 9.64813 12.9129 9.68563C15.127 10.1122 16.7994 12.0602 16.7994 14.3988Z" fill="#0F172A"/>
</svg>
