<svg width="24" height="24" viewBox="0 0 24 24" fill="none" xmlns="http://www.w3.org/2000/svg">
<path d="M4.20039 3.29844C4.20039 2.80139 3.79744 2.39844 3.30039 2.39844C2.80334 2.39844 2.40039 2.80139 2.40039 3.29844V20.6984C2.40039 21.1955 2.80334 21.5984 3.30039 21.5984C3.79744 21.5984 4.20039 21.1955 4.20039 20.6984V15.4286L6.18929 15.01C7.92589 14.6443 9.73537 14.8868 11.3145 15.6966C13.5272 16.8313 16.0954 17.057 18.472 16.3258L20.9651 15.5586C21.3428 15.4424 21.6004 15.0936 21.6004 14.6984V4.49844C21.6004 4.22721 21.4781 3.97045 21.2675 3.79956C21.0568 3.62867 20.7804 3.56186 20.515 3.61775L17.6592 4.21895C15.9785 4.57278 14.2306 4.42121 12.6359 3.78331L12.0334 3.5423C10.1087 2.77243 7.99918 2.58949 5.97068 3.01655L4.20039 3.38923V3.29844Z" fill="#0F172A"/>
</svg>
