<svg width="24" height="24" viewBox="0 0 24 24" fill="none" xmlns="http://www.w3.org/2000/svg">
<path d="M21.7708 2.23282C21.4708 1.93281 20.9809 1.93281 20.6809 2.23282L2.23086 20.6928C1.93086 20.9928 1.93086 21.4829 2.23086 21.7829C2.38086 21.9228 2.57086 22.0028 2.77086 22.0028C2.97086 22.0028 3.16086 21.9228 3.31086 21.7728L21.7708 3.31282C22.0809 3.01281 22.0809 2.53282 21.7708 2.23282Z" fill="white"/>
<path d="M14.8204 3.52087V9.18087L9.1805 14.821V13.2809H6.0905C4.6905 13.2809 4.3005 12.421 5.2305 11.3709L12.0005 3.67087L12.8005 2.76088C13.9105 1.50088 14.8204 1.84087 14.8204 3.52087Z" fill="white"/>
<path d="M18.7697 12.6288L11.9997 20.3287L11.1997 21.2388C10.0897 22.4988 9.17969 22.1587 9.17969 20.4787V17.8188L16.2797 10.7188H17.9097C19.3097 10.7188 19.6997 11.5788 18.7697 12.6288Z" fill="white"/>
</svg>
