<svg width="24" height="24" viewBox="0 0 24 24" fill="none" xmlns="http://www.w3.org/2000/svg">
<path d="M21.0169 7.99174C21.4148 8.55832 20.9405 9.25 20.2482 9.25H3.00001C2.44772 9.25 2 8.80228 2 8.25V6.42C2 3.98 3.98 2 6.42001 2H8.74C10.37 2 10.88 2.53 11.53 3.4L12.93 5.26C13.2401 5.67 13.28 5.72 13.86 5.72H16.65C18.4547 5.72 20.0516 6.61708 21.0169 7.99174Z" fill="white"/>
<path d="M21.9834 11.7466C21.9814 11.1957 21.5343 10.75 20.9834 10.75L2.99998 10.7503C2.44771 10.7503 2 11.198 2 11.7503V16.6502C2 19.6003 4.4 22.0003 7.35001 22.0003H16.65C19.6001 22.0003 22.0001 19.6003 22.0001 16.6502L21.9834 11.7466ZM14.34 18.2803C14.19 18.4202 14 18.5003 13.8101 18.5003C13.62 18.5003 13.4201 18.4202 13.28 18.2803L12.0401 17.0402L10.76 18.3203C10.62 18.4603 10.42 18.5402 10.23 18.5402C10.04 18.5402 9.85 18.4603 9.7 18.3203C9.41 18.0302 9.41 17.5502 9.7 17.2603L10.98 15.9803L9.74 14.7403C9.45001 14.4503 9.45001 13.9703 9.74 13.6802C10.04 13.3903 10.51 13.3903 10.8 13.6802L12.0401 14.9203L13.2401 13.7203C13.53 13.4303 14 13.4303 14.3 13.7203C14.5901 14.0203 14.5901 14.4902 14.3 14.7803L13.1 15.9803L14.34 17.2202C14.63 17.5103 14.63 17.9903 14.34 18.2803Z" fill="white"/>
</svg>
