<svg width="24" height="24" viewBox="0 0 24 24" fill="none" xmlns="http://www.w3.org/2000/svg">
<path d="M4.50039 3.60156C3.34059 3.60156 2.40039 4.54176 2.40039 5.70156V9.61465C3.00657 9.22656 3.72721 9.00156 4.50039 9.00156H19.5004C20.2736 9.00156 20.9943 9.22656 21.6004 9.61465V8.10156C21.6004 6.94176 20.6602 6.00156 19.5004 6.00156H13.6974C13.6179 6.00156 13.5416 5.96995 13.4853 5.9137L11.7883 4.21663C11.3944 3.82281 10.8603 3.60156 10.3033 3.60156H4.50039Z" fill="#0F172A"/>
<path d="M4.50039 10.8008C3.34059 10.8008 2.40039 11.741 2.40039 12.9008V18.3008C2.40039 19.4606 3.34059 20.4008 4.50039 20.4008H19.5004C20.6602 20.4008 21.6004 19.4606 21.6004 18.3008V12.9008C21.6004 11.741 20.6602 10.8008 19.5004 10.8008H4.50039Z" fill="#0F172A"/>
</svg>
