<svg width="24" height="24" viewBox="0 0 24 24" fill="none" xmlns="http://www.w3.org/2000/svg">
<path d="M19.4339 4.03448C19.5663 4.2424 19.3396 4.48461 19.0992 4.43C18.6293 4.29 18.1092 4.22 17.5793 4.22H14.2791C14.1218 4.22 13.9738 4.14604 13.8792 4.02037L12.7293 2.49C12.5885 2.29044 12.7216 2 12.9659 2H15.7193C17.2803 2 18.6554 2.81073 19.4339 4.03448Z" fill="white"/>
<path d="M20.1401 6.54C19.71 6.23 19.22 6 18.69 5.87C18.33 5.77 17.96 5.72 17.58 5.72H13.86C13.28 5.72 13.2401 5.67 12.93 5.26L11.53 3.4C10.88 2.53 10.37 2 8.74 2H6.42001C3.98 2 2 3.98 2 6.42V17.58C2 20.02 3.98 22 6.42001 22H17.58C20.0201 22 22.0001 20.02 22.0001 17.58V10.14C22.0001 8.65 21.27 7.34 20.1401 6.54ZM14.39 16.34H9.60001C9.21001 16.34 8.91001 16.03 8.91001 15.64C8.91001 15.26 9.21001 14.94 9.60001 14.94H14.39C14.78 14.94 15.09 15.26 15.09 15.64C15.09 16.03 14.78 16.34 14.39 16.34Z" fill="white"/>
</svg>
