<svg width="24" height="24" viewBox="0 0 24 24" fill="none" xmlns="http://www.w3.org/2000/svg">
<path fill-rule="evenodd" clip-rule="evenodd" d="M2.40039 5.70156C2.40039 4.54176 3.34059 3.60156 4.50039 3.60156H10.3033C10.8603 3.60156 11.3944 3.82281 11.7883 4.21663L13.4853 5.9137C13.5416 5.96995 13.6179 6.00156 13.6974 6.00156H19.5004C20.6602 6.00156 21.6004 6.94176 21.6004 8.10156V18.3016C21.6004 19.4614 20.6602 20.4016 19.5004 20.4016H4.50039C3.34059 20.4016 2.40039 19.4614 2.40039 18.3016V5.70156ZM14.7004 14.1016C15.1974 14.1016 15.6004 13.6986 15.6004 13.2016C15.6004 12.7045 15.1974 12.3016 14.7004 12.3016H9.30039C8.80334 12.3016 8.40039 12.7045 8.40039 13.2016C8.40039 13.6986 8.80334 14.1016 9.30039 14.1016H14.7004Z" fill="#0F172A"/>
</svg>
