<svg width="24" height="24" viewBox="0 0 24 24" fill="none" xmlns="http://www.w3.org/2000/svg">
<path d="M5.69961 3.60156C4.53981 3.60156 3.59961 4.54176 3.59961 5.70156V9.00347C3.64093 9.0022 3.68243 9.00156 3.72415 9.00156H20.2747C20.3164 9.00156 20.3581 9.00221 20.3996 9.00349V8.10156C20.3996 6.94176 19.4594 6.00156 18.2996 6.00156H13.6966C13.6171 6.00156 13.5408 5.96995 13.4845 5.9137L11.7875 4.21663C11.3937 3.82281 10.8595 3.60156 10.3026 3.60156H5.69961Z" fill="#0F172A"/>
<path d="M3.72447 10.8008C2.31158 10.8008 1.30183 12.1679 1.71734 13.5184L3.37887 18.9184C3.65 19.7995 4.46411 20.4008 5.38602 20.4008H18.6134C19.5354 20.4008 20.3495 19.7995 20.6206 18.9184L22.2821 13.5184C22.6976 12.1679 21.6878 10.8008 20.275 10.8008H3.72447Z" fill="#0F172A"/>
</svg>
