<svg width="24" height="24" viewBox="0 0 24 24" fill="none" xmlns="http://www.w3.org/2000/svg">
<path fill-rule="evenodd" clip-rule="evenodd" d="M4.50039 3.60156C3.34059 3.60156 2.40039 4.54176 2.40039 5.70156V18.3016C2.40039 19.4614 3.34059 20.4016 4.50039 20.4016H19.5004C20.6602 20.4016 21.6004 19.4614 21.6004 18.3016V8.10156C21.6004 6.94176 20.6602 6.00156 19.5004 6.00156H13.6974C13.6179 6.00156 13.5416 5.96995 13.4853 5.9137L11.7883 4.21663C11.3944 3.82281 10.8603 3.60156 10.3033 3.60156H4.50039ZM12.0004 9.60156C12.4974 9.60156 12.9004 10.0045 12.9004 10.5016V12.3016H14.7004C15.1974 12.3016 15.6004 12.7045 15.6004 13.2016C15.6004 13.6986 15.1974 14.1016 14.7004 14.1016H12.9004V15.9016C12.9004 16.3986 12.4974 16.8016 12.0004 16.8016C11.5033 16.8016 11.1004 16.3986 11.1004 15.9016V14.1016H9.30039C8.80334 14.1016 8.40039 13.6986 8.40039 13.2016C8.40039 12.7045 8.80334 12.3016 9.30039 12.3016H11.1004V10.5016C11.1004 10.0045 11.5033 9.60156 12.0004 9.60156Z" fill="#0F172A"/>
</svg>
