<svg width="24" height="24" viewBox="0 0 24 24" fill="none" xmlns="http://www.w3.org/2000/svg">
<path fill-rule="evenodd" clip-rule="evenodd" d="M2.40039 5.70156C2.40039 4.54176 3.34059 3.60156 4.50039 3.60156H10.3033C10.8603 3.60156 11.3944 3.82281 11.7883 4.21663L13.4853 5.9137C13.5416 5.96995 13.6179 6.00156 13.6974 6.00156H19.5004C20.6602 6.00156 21.6004 6.94176 21.6004 8.10156V18.3016C21.6004 19.4614 20.6602 20.4016 19.5004 20.4016H4.50039C3.34059 20.4016 2.40039 19.4614 2.40039 18.3016V5.70156ZM12.9004 10.5016C12.9004 10.0045 12.4974 9.60156 12.0004 9.60156C11.5033 9.60156 11.1004 10.0045 11.1004 10.5016V13.5562L9.96936 12.2995C9.63685 11.93 9.06778 11.9001 8.69833 12.2326C8.32886 12.5651 8.29892 13.1341 8.63143 13.5036L11.3314 16.5036C11.5021 16.6933 11.7452 16.8016 12.0004 16.8016C12.2555 16.8016 12.4986 16.6933 12.6694 16.5036L15.3694 13.5036C15.7019 13.1341 15.6719 12.5651 15.3024 12.2326C14.933 11.9001 14.3639 11.93 14.0314 12.2995L12.9004 13.5562V10.5016Z" fill="#0F172A"/>
</svg>
