<svg width="24" height="24" viewBox="0 0 24 24" fill="none" xmlns="http://www.w3.org/2000/svg">
<path d="M17.0201 2.88C16.5401 2.4 15.5801 2 14.9 2H9.1C8.42 2 7.46 2.4 6.98 2.88L2.88001 6.98C2.40001 7.46 2 8.42 2 9.1V14.9C2 15.58 2.40001 16.54 2.88001 17.02L4.41001 18.55L18.5501 4.41L17.0201 2.88Z" fill="white"/>
<path d="M21.1206 6.97876L19.6107 5.46875L5.4707 19.6087L6.98071 21.1188C7.46071 21.5988 8.42071 21.9988 9.1007 21.9988H14.9007C15.5807 21.9988 16.5407 21.5988 17.0207 21.1188L21.1206 17.0188C21.6006 16.5388 22.0007 15.5788 22.0007 14.8987V9.09875C22.0007 8.41876 21.6006 7.45876 21.1206 6.97876Z" fill="white"/>
<path d="M2.48898 20.4747C2.19899 20.7647 2.19899 21.2447 2.48898 21.5348C2.63898 21.6848 2.82899 21.7547 3.01898 21.7547C3.20898 21.7547 3.39899 21.6848 3.54899 21.5348L5.46899 19.6148L4.40898 18.5547L2.48898 20.4747Z" fill="white"/>
<path d="M21.5288 3.55094C21.8188 3.26094 21.8188 2.78094 21.5288 2.49094C21.2389 2.20094 20.7589 2.20094 20.4688 2.49094L18.5488 4.41094L19.6088 5.47094L21.5288 3.55094Z" fill="white"/>
</svg>
