<svg width="24" height="24" viewBox="0 0 24 24" fill="none" xmlns="http://www.w3.org/2000/svg">
<path d="M21.2498 5.77V9C21.2498 11.1146 20.5419 11.899 18.6304 12.0068C18.3548 12.0223 18.1298 11.7961 18.1298 11.52V10.38C18.1298 7.26 16.7397 5.87 13.6197 5.87H12.4797C12.2036 5.87 11.9773 5.64494 11.9929 5.36924C12.1006 3.45772 12.8852 2.75 14.9997 2.75H18.2297C20.5197 2.75 21.2498 3.48 21.2498 5.77Z" fill="white"/>
<path d="M16.6292 10.3771V13.6171C16.6292 15.8971 15.8991 16.6272 13.6191 16.6272H10.3791C8.09915 16.6272 7.36914 15.8971 7.36914 13.6171V10.3771C7.36914 8.0972 8.09915 7.36719 10.3791 7.36719H13.6191C15.8991 7.36719 16.6292 8.0972 16.6292 10.3771Z" fill="white"/>
<path d="M11.52 18.1297C11.7961 18.1297 12.0223 18.3547 12.0068 18.6305C11.899 20.542 11.1146 21.2497 9.00001 21.2497H5.77C3.48001 21.2497 2.75 20.5198 2.75 18.2298V14.9998C2.75 12.8851 3.45774 12.1007 5.36924 11.9929C5.64494 11.9773 5.87 12.2035 5.87 12.4798V13.6198C5.87 16.7398 7.26001 18.1297 10.38 18.1297H11.52Z" fill="white"/>
</svg>
