<svg width="24" height="24" viewBox="0 0 24 24" fill="none" xmlns="http://www.w3.org/2000/svg">
<path d="M19.4791 7.09053C19.219 6.77052 18.749 6.72052 18.4291 6.98052C18.109 7.24053 18.059 7.71052 18.319 8.03052C19.4491 9.43053 20.0791 11.0905 20.1391 12.8305C20.299 17.3105 16.7791 21.0905 12.289 21.2405C7.79905 21.4004 4.02906 17.8805 3.86905 13.4005C3.70906 8.92052 7.22905 5.14053 11.719 4.99053C12.289 4.97052 12.889 5.02053 13.5391 5.15052C13.579 5.16052 13.619 5.15052 13.6591 5.15052C13.759 5.20053 13.879 5.23053 13.9891 5.23053C14.159 5.23053 14.3191 5.18052 14.459 5.06052C14.779 4.80052 14.8291 4.33053 14.579 4.01052L12.599 1.54053C12.3391 1.22052 11.869 1.16052 11.549 1.42053C11.229 1.68052 11.179 2.15052 11.429 2.47053L12.259 3.50052C12.0691 3.49053 11.869 3.48052 11.679 3.49053C6.36906 3.67053 2.19906 8.15052 2.38906 13.4605C2.57905 18.7705 7.04905 22.9405 12.359 22.7506C17.669 22.5605 21.839 18.0905 21.649 12.7805C21.559 10.7105 20.819 8.74053 19.4791 7.09053Z" fill="white"/>
<path d="M12.3787 16.9204H10.0886C9.67866 16.9204 9.33866 16.5803 9.33866 16.1704C9.33866 15.7603 9.67866 15.4204 10.0886 15.4204H12.3787C12.8086 15.4204 13.1587 15.0703 13.1587 14.6404C13.1587 14.2103 12.8086 13.8604 12.3787 13.8604H10.0886C9.84866 13.8604 9.61866 13.7404 9.47867 13.5503C9.33866 13.3603 9.29867 13.1003 9.37866 12.8704L10.1386 10.5803C10.2386 10.2703 10.5286 10.0703 10.8486 10.0703H13.9087C14.3186 10.0703 14.6587 10.4103 14.6587 10.8203C14.6587 11.2303 14.3186 11.5703 13.9087 11.5703H11.3886L11.1286 12.3604H12.3787C13.6387 12.3604 14.6587 13.3804 14.6587 14.6404C14.6587 15.9004 13.6387 16.9204 12.3787 16.9204Z" fill="white"/>
</svg>
