<svg width="24" height="24" viewBox="0 0 24 24" fill="none" xmlns="http://www.w3.org/2000/svg">
<path d="M8.02 4.61719H6.98C5.39 4.61719 4.75 5.21719 4.75 6.73718V18.6172H10.25V6.73718C10.24 5.21719 9.6 4.61719 8.02 4.61719Z" fill="white"/>
<path d="M16.52 9.61719H15.48C13.89 9.61719 13.25 10.2272 13.25 11.7372V18.6172H18.75V11.7372C18.75 10.2272 18.1 9.61719 16.52 9.61719Z" fill="white"/>
<path d="M2.75 17.8828H21.2501C21.66 17.8828 22.0001 18.2229 22.0001 18.6328C22.0001 19.0429 21.66 19.3828 21.2501 19.3828H2.75C2.34001 19.3828 2 19.0429 2 18.6229C2 18.2029 2.34001 17.8828 2.75 17.8828Z" fill="white"/>
</svg>
