<svg width="24" height="24" viewBox="0 0 24 24" fill="none" xmlns="http://www.w3.org/2000/svg">
<path d="M4.5 10.492V16.4321C4.5 16.742 4.64 17.042 4.87 17.2421L10.23 21.832C10.93 22.432 12 21.932 12 21.0221V16.922H16.91C17.86 16.922 18.34 15.7721 17.67 15.092L12 9.42203H5.57002C4.98001 9.41203 4.5 9.892 4.5 10.492Z" fill="white"/>
<path d="M18.4298 1.91406H7.08981C6.1398 1.91406 5.65979 3.06405 6.32979 3.74404L11.9998 9.41406H18.4298C19.0198 9.41406 19.4998 8.93405 19.4998 8.34405V2.98407C19.4998 2.39406 19.0198 1.91406 18.4298 1.91406Z" fill="white"/>
</svg>
