<svg width="24" height="24" viewBox="0 0 24 24" fill="none" xmlns="http://www.w3.org/2000/svg">
<path d="M19 8C20.657 8 22 6.65685 22 5C22 3.34315 20.657 2 19 2C17.3432 2 16 3.34315 16 5C16 6.65685 17.3432 8 19 8Z" fill="white"/>
<path d="M17.7892 9.33927C16.2792 8.93926 15.0592 7.71927 14.6592 6.20926C14.3992 5.24926 14.4592 4.32927 14.7492 3.50926C14.9492 2.94927 14.6092 2.32927 14.0292 2.20927C12.5592 1.89927 10.9692 1.90927 9.30923 2.35927C5.52923 3.41926 2.63923 6.68926 2.09923 10.5792C1.17923 17.1992 6.78923 22.8092 13.4092 21.8992C17.3092 21.3592 20.5692 18.4693 21.6192 14.6792C22.0792 13.0292 22.0892 11.4392 21.7792 9.95926C21.6592 9.37927 21.0392 9.04927 20.4792 9.23926C19.6692 9.52927 18.7492 9.58927 17.7892 9.33927Z" fill="white"/>
</svg>
