<svg width="24" height="24" viewBox="0 0 24 24" fill="none" xmlns="http://www.w3.org/2000/svg">
<path d="M20.4097 6.9575V8.7875C20.4097 9.4275 20.1097 10.0275 19.5898 10.3976L8.58985 18.4576C7.87984 18.9775 6.90985 18.9775 6.20984 18.4476L4.76984 17.3676C4.11985 16.8775 3.58984 15.8176 3.58984 15.0076V6.9575C3.58984 5.83749 4.44985 4.5975 5.49985 4.2075L10.9698 2.1575C11.5398 1.9475 12.4598 1.9475 13.0298 2.1575L18.4998 4.2075C19.5498 4.5975 20.4097 5.83749 20.4097 6.9575Z" fill="white"/>
<path d="M18.8196 12.3375C19.4796 11.8575 20.4096 12.3275 20.4096 13.1475V15.0275C20.4096 15.8375 19.8796 16.8875 19.2296 17.3775L13.7596 21.4674C13.2796 21.8175 12.6396 21.9975 11.9996 21.9975C11.3596 21.9975 10.7196 21.8175 10.2396 21.4575L9.40962 20.8374C8.86962 20.4375 8.86962 19.6275 9.41961 19.2275L18.8196 12.3375Z" fill="white"/>
</svg>
