<svg width="24" height="24" viewBox="0 0 24 24" fill="none" xmlns="http://www.w3.org/2000/svg">
<path d="M12 2C9.38 2 7.25 4.13 7.25 6.75C7.25 9.32 9.26 11.4 11.88 11.49C11.96 11.48 12.0401 11.48 12.1001 11.49C12.12 11.49 12.1301 11.49 12.15 11.49C12.1601 11.49 12.1601 11.49 12.17 11.49C14.73 11.4 16.74 9.32 16.7501 6.75C16.7501 4.13 14.6201 2 12 2Z" fill="white"/>
<path d="M17.079 14.1489C14.289 12.2889 9.73899 12.2889 6.92899 14.1489C5.65899 14.9989 4.95898 16.1489 4.95898 17.3789C4.95898 18.6089 5.65899 19.7489 6.91899 20.5889C8.31898 21.5289 10.159 21.9989 11.999 21.9989C13.839 21.9989 15.6791 21.5289 17.079 20.5889C18.339 19.7389 19.0391 18.5989 19.0391 17.3589C19.029 16.1289 18.339 14.9889 17.079 14.1489Z" fill="white"/>
</svg>
