<svg width="24" height="24" viewBox="0 0 24 24" fill="none" xmlns="http://www.w3.org/2000/svg">
<path d="M21 2H9.00001C8.45 2 8 2.45 8 3V6C8 6.55 8.45 7 9.00001 7H21C21.5501 7 22.0001 6.55 22.0001 6V3C22.0001 2.45 21.5501 2 21 2Z" fill="white"/>
<path d="M11 17H8C7.45 17 7 17.45 7 18V21C7 21.5499 7.45 21.9999 8 21.9999H11C11.55 21.9999 12 21.5499 12 21V18C12 17.45 11.55 17 11 17Z" fill="white"/>
<path d="M6.00001 9.5H3.00001C2.45 9.5 2 9.95 2 10.5V13.5C2 14.05 2.45 14.5 3.00001 14.5H6.00001C6.55 14.5 7 14.05 7 13.5V10.5C7 9.95 6.55 9.5 6.00001 9.5Z" fill="white"/>
<path d="M17 9.64062H10.5C9.95 9.64062 9.5 10.0906 9.5 10.6406V13.3606C9.5 13.9106 9.95 14.3606 10.5 14.3606H17C17.55 14.3606 18 13.9106 18 13.3606V10.6406C18 10.0906 17.55 9.64062 17 9.64062Z" fill="white"/>
</svg>
