<svg width="24" height="24" viewBox="0 0 24 24" fill="none" xmlns="http://www.w3.org/2000/svg">
<path fill-rule="evenodd" clip-rule="evenodd" d="M3.15403 1.92044C6.03301 1.44594 8.98822 1.19922 12.0004 1.19922C15.0125 1.19922 17.9678 1.44594 20.8468 1.92044C21.2814 1.99208 21.6004 2.36789 21.6004 2.80845V5.55363C21.6004 6.26972 21.3159 6.95647 20.8096 7.46282L15.1912 13.0813C14.6849 13.5875 14.4004 14.2743 14.4004 14.9903V18.6341C14.4004 19.4543 14.0276 20.23 13.3871 20.7424L11.0626 22.6021C10.7925 22.8182 10.4223 22.8603 10.1105 22.7104C9.7987 22.5605 9.60039 22.2452 9.60039 21.8992V14.9903C9.60039 14.2743 9.31593 13.5875 8.80958 13.0813L3.1912 7.46282C2.68485 6.95647 2.40039 6.26972 2.40039 5.55363V2.80845C2.40039 2.36789 2.71933 1.99208 3.15403 1.92044Z" fill="#0F172A"/>
</svg>
