<svg width="24" height="24" viewBox="0 0 24 24" fill="none" xmlns="http://www.w3.org/2000/svg">
<path d="M21.7708 2.23282C21.4708 1.93281 20.9809 1.93281 20.6809 2.23282L2.23086 20.6928C1.93086 20.9928 1.93086 21.4829 2.23086 21.7829C2.38086 21.9228 2.57086 22.0028 2.77086 22.0028C2.97086 22.0028 3.16086 21.9228 3.31086 21.7728L21.7708 3.31282C22.0809 3.01281 22.0809 2.53282 21.7708 2.23282Z" fill="white"/>
<path d="M8.99915 10.3811C10.3136 10.3811 11.3791 9.31553 11.3791 8.0011C11.3791 6.68666 10.3136 5.62109 8.99915 5.62109C7.6847 5.62109 6.61914 6.68666 6.61914 8.0011C6.61914 9.31553 7.6847 10.3811 8.99915 10.3811Z" fill="white"/>
<path d="M21.6104 5.39062L20.3904 6.61063C20.4704 6.98064 20.5004 7.38063 20.5004 7.81063V12.6106L20.3704 12.5006C19.5904 11.8306 18.3304 11.8306 17.5504 12.5006L13.3904 16.0706C12.6804 16.6806 11.5604 16.7406 10.7804 16.2206L5.40039 21.6006C5.44039 21.6206 5.48039 21.6306 5.52039 21.6406C5.79039 21.7306 6.06039 21.8006 6.35039 21.8606C6.45039 21.8806 6.55039 21.9006 6.66039 21.9106C7.03039 21.9606 7.41039 22.0006 7.81039 22.0006H16.1904C19.8304 22.0006 22.0004 19.8306 22.0004 16.1906V7.81063C22.0004 6.91063 21.8704 6.10062 21.6104 5.39062Z" fill="white"/>
<path d="M21.6086 5.39062L20.3887 6.61063C20.4686 6.98064 20.4986 7.38063 20.4986 7.81063V12.6106L20.3686 12.5006C19.5886 11.8306 18.3286 11.8306 17.5486 12.5006L13.3886 16.0706C12.6787 16.6806 11.5586 16.7406 10.7786 16.2206L5.38867 21.6106C6.09868 21.8706 6.90868 22.0006 7.80868 22.0006H16.1887C19.8286 22.0006 21.9986 19.8306 21.9986 16.1906V7.81063C21.9986 6.91063 21.8686 6.10062 21.6086 5.39062Z" fill="white"/>
<path d="M20.46 3.54L19.4 4.6C18.68 3.87 17.6 3.5 16.19 3.5H7.81C4.99 3.5 3.5 4.99 3.5 7.81V16.19C3.5 16.95 3.63001 17.6 3.85 18.16L7.59001 15.65C7.93 15.42 8.32 15.3 8.71 15.29L3.54001 20.46C3.14 20.06 2.81 19.58 2.56 19.03C2.19001 18.23 2 17.28 2 16.19V7.81C2 4.17 4.17001 2 7.81 2H16.19C18.0101 2 19.46 2.54 20.46 3.54Z" fill="white"/>
</svg>
