<svg width="24" height="24" viewBox="0 0 24 24" fill="none" xmlns="http://www.w3.org/2000/svg">
<path d="M20.97 1H18.03C16.76 1 16 1.75999 16 3.03V5.97C16 7.24 16.76 8 18.03 8H20.97C22.24 8 23 7.24 23 5.97V3.03C23 1.75999 22.24 1 20.97 1ZM21.19 4.30999C21.07 4.42999 20.91 4.48999 20.75 4.48999C20.59 4.48999 20.43 4.42999 20.31 4.30999L20.13 4.12999V6.37C20.13 6.72 19.85 7 19.5 7C19.15 7 18.87 6.72 18.87 6.37V4.12999L18.69 4.30999C18.45 4.54999 18.05 4.54999 17.81 4.30999C17.57 4.06999 17.57 3.67 17.81 3.43L19.06 2.17999C19.11 2.13 19.18 2.08999 19.25 2.05999C19.27 2.05 19.29 2.05 19.31 2.04C19.36 2.02 19.41 2.01 19.47 2.01C19.49 2.01 19.51 2.01 19.53 2.01C19.6 2.01 19.66 2.02 19.73 2.05C19.74 2.05 19.74 2.05 19.75 2.05C19.82 2.08 19.88 2.11999 19.93 2.17C19.94 2.17999 19.94 2.17999 19.95 2.17999L21.2 3.43C21.44 3.67 21.44 4.06999 21.19 4.30999Z" fill="white"/>
<path d="M8.99915 10.3811C10.3136 10.3811 11.3791 9.31553 11.3791 8.0011C11.3791 6.68666 10.3136 5.62109 8.99915 5.62109C7.6847 5.62109 6.61914 6.68666 6.61914 8.0011C6.61914 9.31553 7.6847 10.3811 8.99915 10.3811Z" fill="white"/>
<path d="M20.97 8H20.5001V12.61L20.37 12.5C19.59 11.83 18.33 11.83 17.55 12.5L13.3901 16.07C12.6101 16.74 11.35 16.74 10.57 16.07L10.23 15.79C9.52 15.17 8.39 15.11 7.59001 15.65L3.85 18.16C3.63001 17.6 3.5 16.95 3.5 16.19V7.81C3.5 4.99 4.99 3.5 7.81 3.5H16.0001V3.03C16.0001 2.63 16.07 2.29 16.23 2H7.81C4.17001 2 2 4.17 2 7.81V16.19C2 17.28 2.19001 18.23 2.56 19.03C3.42001 20.93 5.26 22 7.81 22H16.19C19.83 22 22.0001 19.83 22.0001 16.19V7.77C21.71 7.93 21.3701 8 20.97 8Z" fill="white"/>
</svg>
