<svg width="24" height="24" viewBox="0 0 24 24" fill="none" xmlns="http://www.w3.org/2000/svg">
<path d="M2.57882 19.0113L2.55883 19.0313C2.28883 18.4413 2.11882 17.7713 2.04883 17.0312C2.11882 17.7612 2.30882 18.4212 2.57882 19.0113Z" fill="white"/>
<path d="M8.99915 10.3811C10.3136 10.3811 11.3791 9.31553 11.3791 8.0011C11.3791 6.68666 10.3136 5.62109 8.99915 5.62109C7.6847 5.62109 6.61914 6.68666 6.61914 8.0011C6.61914 9.31553 7.6847 10.3811 8.99915 10.3811Z" fill="white"/>
<path d="M16.19 2H7.81C4.17001 2 2 4.17 2 7.81V16.19C2 17.28 2.19001 18.23 2.56 19.03C3.42001 20.93 5.26 22 7.81 22H16.19C19.83 22 22.0001 19.83 22.0001 16.19V13.9V7.81C22.0001 4.17 19.83 2 16.19 2ZM20.37 12.5C19.59 11.83 18.33 11.83 17.55 12.5L13.3901 16.07C12.6101 16.74 11.35 16.74 10.57 16.07L10.23 15.79C9.52 15.17 8.39 15.11 7.59001 15.65L3.85 18.16C3.63001 17.6 3.5 16.95 3.5 16.19V7.81C3.5 4.99 4.99 3.5 7.81 3.5H16.19C19.01 3.5 20.5001 4.99 20.5001 7.81V12.61L20.37 12.5Z" fill="white"/>
</svg>
