<svg width="24" height="24" viewBox="0 0 24 24" fill="none" xmlns="http://www.w3.org/2000/svg">
<path d="M16.65 5.71875H7.35001C4.4 5.71875 2 8.11875 2 11.0688V16.6488C2 19.5988 4.4 21.9988 7.35001 21.9988H16.65C19.6001 21.9988 22.0001 19.5988 22.0001 16.6488V11.0688C22.0001 8.11875 19.6001 5.71875 16.65 5.71875ZM14.5001 12.0187C14.5001 11.4688 14.9501 11.0188 15.5 11.0188C16.05 11.0188 16.5 11.4688 16.5 12.0187C16.5 12.5688 16.05 13.0288 15.5 13.0288C14.9501 13.0288 14.5001 12.5887 14.5001 12.0388V12.0187ZM10.13 16.0687C9.98 16.2187 9.79 16.2888 9.60001 16.2888C9.41 16.2888 9.22 16.2187 9.07 16.0687L8.04001 15.0388L7.05001 16.0288C6.90001 16.1788 6.71 16.2487 6.52 16.2487C6.33001 16.2487 6.14 16.1788 5.99 16.0288C5.70001 15.7387 5.70001 15.2587 5.99 14.9688L6.98 13.9788L6.02 13.0188C5.73001 12.7288 5.73001 12.2488 6.02 11.9588C6.31 11.6688 6.79 11.6688 7.08001 11.9588L8.04001 12.9187L9.03001 11.9288C9.32 11.6388 9.8 11.6388 10.09 11.9288C10.38 12.2188 10.38 12.6988 10.09 12.9888L9.1 13.9788L10.13 15.0088C10.42 15.2988 10.42 15.7788 10.13 16.0687ZM13.5401 14.9988C12.99 14.9988 12.53 14.5488 12.53 13.9987C12.53 13.4488 12.9701 12.9988 13.52 12.9988H13.5401C14.09 12.9988 14.54 13.4488 14.54 13.9987C14.54 14.5488 14.1 14.9988 13.5401 14.9988ZM15.5 16.9687C14.9501 16.9687 14.5001 16.5288 14.5001 15.9787V15.9588C14.5001 15.4087 14.9501 14.9587 15.5 14.9587C16.05 14.9587 16.5 15.4087 16.5 15.9588C16.5 16.5088 16.0601 16.9687 15.5 16.9687ZM17.48 14.9988C16.9301 14.9988 16.47 14.5488 16.47 13.9987C16.47 13.4488 16.91 12.9988 17.46 12.9988H17.48C18.03 12.9988 18.48 13.4488 18.48 13.9987C18.48 14.5488 18.0401 14.9988 17.48 14.9988Z" fill="white"/>
<path d="M13.6413 2.71L13.6313 3.65C13.6214 4.53 12.8913 5.26 12.0014 5.26C11.8513 5.26 11.7613 5.36 11.7613 5.49C11.7613 5.62 11.8613 5.72 11.9913 5.72H10.3813C10.3713 5.65 10.3613 5.57 10.3613 5.49C10.3613 4.59 11.0913 3.86 11.9813 3.86C12.1313 3.86 12.2313 3.76 12.2313 3.63L12.2414 2.69C12.2513 2.31 12.5613 2 12.9413 2H12.9513C13.3413 2 13.6413 2.32 13.6413 2.71Z" fill="white"/>
</svg>
