<svg width="24" height="24" viewBox="0 0 24 24" fill="none" xmlns="http://www.w3.org/2000/svg">
<path d="M22.34 9.33L20.34 8.33C19.97 8.15 19.5101 8.29 19.3301 8.66C19.14 9.04 19.29 9.49 19.66 9.67L21.2501 10.46V15.25L17.5001 15.26V5C17.5001 3 16.16 2 14.5001 2H6.5C4.84 2 3.5 3 3.5 5V21.25H2C1.59001 21.25 1.25 21.59 1.25 22C1.25 22.41 1.59001 22.75 2 22.75H19.0001C19.41 22.75 19.7501 22.41 19.7501 22C19.7501 21.59 19.41 21.25 19.0001 21.25H17.5001V16.76L22.0001 16.75C22.4201 16.75 22.7501 16.41 22.7501 16V10C22.7501 9.72 22.59 9.46 22.34 9.33ZM6.00001 6.89C6.00001 5.5 6.85 5 7.89001 5H13.1201C14.15 5 15 5.5 15 6.89V8.12C15 9.5 14.15 10 13.11 10H7.89001C6.85 10 6.00001 9.5 6.00001 8.11V6.89ZM6.5 12.25H9.5C9.91 12.25 10.25 12.59 10.25 13C10.25 13.41 9.91 13.75 9.5 13.75H6.5C6.09001 13.75 5.75 13.41 5.75 13C5.75 12.59 6.09001 12.25 6.5 12.25Z" fill="white"/>
</svg>
