<svg width="24" height="24" viewBox="0 0 24 24" fill="none" xmlns="http://www.w3.org/2000/svg">
<path fill-rule="evenodd" clip-rule="evenodd" d="M1.19922 6.30156C1.19922 4.81039 2.40805 3.60156 3.89922 3.60156H20.0992C21.5903 3.60156 22.7992 4.81039 22.7992 6.30156V17.7016C22.7992 19.1927 21.5903 20.4016 20.0992 20.4016H3.89922C2.40805 20.4016 1.19922 19.1927 1.19922 17.7016V6.30156ZM6.03 9.75613C6.42717 9.18245 6.86466 9.00156 7.19922 9.00156C7.53378 9.00156 7.97128 9.18245 8.36844 9.75613C8.65136 10.1648 9.21202 10.2667 9.6207 9.98382C10.0294 9.70089 10.1313 9.14023 9.84838 8.73156C9.19114 7.78219 8.24664 7.20156 7.19922 7.20156C6.1518 7.20156 5.2073 7.78219 4.55006 8.73156C3.89881 9.67224 3.59922 10.8586 3.59922 12.0016C3.59922 13.1444 3.89881 14.3309 4.55006 15.2716C5.2073 16.2209 6.1518 16.8016 7.19922 16.8016C8.24664 16.8016 9.19114 16.2209 9.84838 15.2716C9.95258 15.1211 10.0084 14.9424 10.0084 14.7593V12.0016C10.0084 11.5045 9.60546 11.1016 9.10841 11.1016H7.49922C7.00217 11.1016 6.59922 11.5045 6.59922 12.0016C6.59922 12.4986 7.00217 12.9016 7.49922 12.9016H8.20841V14.4552C7.85689 14.8655 7.48935 15.0016 7.19922 15.0016C6.86466 15.0016 6.42717 14.8207 6.03 14.247C5.62683 13.6646 5.39922 12.8549 5.39922 12.0016C5.39922 11.1483 5.62683 10.3385 6.03 9.75613ZM12.8992 7.20156C13.3963 7.20156 13.7992 7.60451 13.7992 8.10156V15.9016C13.7992 16.3986 13.3963 16.8016 12.8992 16.8016C12.4022 16.8016 11.9992 16.3986 11.9992 15.9016V8.10156C11.9992 7.60451 12.4022 7.20156 12.8992 7.20156ZM16.4992 7.20156H19.4992C19.9963 7.20156 20.3992 7.60451 20.3992 8.10156C20.3992 8.59861 19.9963 9.00156 19.4992 9.00156H17.3992V11.1016H18.2992C18.7963 11.1016 19.1992 11.5045 19.1992 12.0016C19.1992 12.4986 18.7963 12.9016 18.2992 12.9016H17.3992V15.9016C17.3992 16.3986 16.9963 16.8016 16.4992 16.8016C16.0022 16.8016 15.5992 16.3986 15.5992 15.9016V8.10156C15.5992 7.60451 16.0022 7.20156 16.4992 7.20156Z" fill="#0F172A"/>
</svg>
