<svg width="24" height="24" viewBox="0 0 24 24" fill="none" xmlns="http://www.w3.org/2000/svg">
<path fill-rule="evenodd" clip-rule="evenodd" d="M11.1004 3.60156H4.20039C3.20627 3.60156 2.40039 4.40745 2.40039 5.40156V11.1016H6.43836C5.23471 9.80742 5.26286 7.78215 6.5228 6.52221C7.78216 5.26284 9.80618 5.23415 11.1004 6.43613V3.60156ZM2.40039 12.9016V18.6016C2.40039 19.5956 3.20627 20.4016 4.20039 20.4016H11.1004V14.5499C10.1648 16.4186 8.23243 17.7016 6.00039 17.7016C5.50334 17.7016 5.10039 17.2986 5.10039 16.8016C5.10039 16.3045 5.50334 15.9016 6.00039 15.9016C7.84454 15.9016 9.38973 14.6216 9.79603 12.9016H2.40039ZM12.9004 20.4016H19.8004C20.7945 20.4016 21.6004 19.5956 21.6004 18.6016V12.9016H14.2048C14.611 14.6216 16.1562 15.9016 18.0004 15.9016C18.4974 15.9016 18.9004 16.3045 18.9004 16.8016C18.9004 17.2986 18.4974 17.7016 18.0004 17.7016C15.7684 17.7016 13.8359 16.4186 12.9004 14.5499V20.4016ZM21.6004 11.1016V5.40156C21.6004 4.40745 20.7945 3.60156 19.8004 3.60156H12.9004V6.43613C14.1946 5.23415 16.2186 5.26284 17.478 6.52221C18.7379 7.78215 18.7661 9.80742 17.5624 11.1016H21.6004ZM16.2052 7.795C15.6194 7.20922 14.6697 7.20922 14.0838 7.795C13.6526 8.2263 13.453 8.99417 13.413 9.83185C13.4001 10.1055 13.4051 10.363 13.4175 10.5827C13.6372 10.5951 13.8946 10.6002 14.1683 10.5871C15.006 10.5472 15.7739 10.3476 16.2052 9.91632C16.791 9.33053 16.791 8.38079 16.2052 7.795ZM9.91692 7.795C9.33112 7.20922 8.38137 7.20922 7.79559 7.795C7.2098 8.38079 7.2098 9.33053 7.79559 9.91632C8.22689 10.3476 8.99476 10.5472 9.83243 10.5871C10.1061 10.6002 10.3636 10.5951 10.5833 10.5827C10.5956 10.363 10.6007 10.1055 10.5877 9.83185C10.5478 8.99417 10.3482 8.2263 9.91692 7.795Z" fill="#0F172A"/>
</svg>
