<svg width="24" height="24" viewBox="0 0 24 24" fill="none" xmlns="http://www.w3.org/2000/svg">
<path fill-rule="evenodd" clip-rule="evenodd" d="M16.8006 7.19844C17.1772 6.69704 17.4004 6.0738 17.4004 5.39844C17.4004 3.74159 16.0572 2.39844 14.4004 2.39844C13.419 2.39844 12.5477 2.86964 12.0004 3.59815C11.4531 2.86964 10.5818 2.39844 9.60039 2.39844C7.94354 2.39844 6.60039 3.74159 6.60039 5.39844C6.60039 6.0738 6.82356 6.69704 7.20018 7.19844H3.90039C3.07196 7.19844 2.40039 7.87001 2.40039 8.69844V9.29844C2.40039 10.1269 3.07196 10.7984 3.90039 10.7984H11.1004V7.19844H12.9004V10.7984H20.1004C20.9289 10.7984 21.6004 10.1269 21.6004 9.29844V8.69844C21.6004 7.87001 20.9289 7.19844 20.1004 7.19844H16.8006ZM15.6004 5.39844C15.6004 6.06117 15.0632 6.59844 14.4004 6.59844H13.2004V5.39844C13.2004 4.7357 13.7376 4.19844 14.4004 4.19844C15.0632 4.19844 15.6004 4.7357 15.6004 5.39844ZM8.40039 5.39844C8.40039 6.06117 8.93765 6.59844 9.60039 6.59844H10.8004V5.39844C10.8004 4.7357 10.2631 4.19844 9.60039 4.19844C8.93765 4.19844 8.40039 4.7357 8.40039 5.39844Z" fill="#0F172A"/>
<path d="M11.0996 12.6016H3.59961V18.3016C3.59961 20.1241 5.07707 21.6016 6.89961 21.6016H11.0996V12.6016Z" fill="#0F172A"/>
<path d="M12.9004 21.6016V12.6016H20.4004V18.3016C20.4004 20.1241 18.923 21.6016 17.1004 21.6016H12.9004Z" fill="#0F172A"/>
</svg>
