<svg width="24" height="24" viewBox="0 0 24 24" fill="none" xmlns="http://www.w3.org/2000/svg">
<path d="M15.8405 21.9984H8.16059C3.97058 21.9984 3.14059 19.4683 4.50059 16.3884L5.94059 13.1184C5.94059 13.1184 9.00059 12.9984 12.0006 13.9983C15.0005 14.9983 17.8306 13.1083 17.8306 13.1083L18.0206 12.9883L19.5106 16.3983C20.8505 19.4784 19.9706 21.9984 15.8405 21.9984Z" fill="white"/>
<path d="M15.4403 6.74H15.2803L17.4103 11.6L17.0003 11.86C16.9804 11.87 14.7203 13.32 12.4703 12.58C10.1203 11.79 7.76032 11.65 6.60032 11.63L8.74031 6.74H8.44031C7.79032 6.74 7.19032 6.48 6.76031 6.05C6.33032 5.62 6.07031 5.02 6.07031 4.37C6.07031 3.07 7.13032 2 8.44031 2H15.5503C16.2103 2 16.8004 2.27 17.2303 2.7C17.7904 3.26 18.0803 4.08 17.8603 4.95C17.6003 6.03 16.5604 6.74 15.4403 6.74Z" fill="white"/>
</svg>
