<svg width="24" height="24" viewBox="0 0 24 24" fill="none" xmlns="http://www.w3.org/2000/svg">
<path fill-rule="evenodd" clip-rule="evenodd" d="M21.6004 11.9984C21.6004 17.3004 17.3024 21.5984 12.0004 21.5984C6.69845 21.5984 2.40039 17.3004 2.40039 11.9984C2.40039 6.6965 6.69845 2.39844 12.0004 2.39844C17.3024 2.39844 21.6004 6.6965 21.6004 11.9984ZM13.8004 19.5898C13.2226 19.7262 12.62 19.7984 12.0004 19.7984C9.58037 19.7984 7.41777 18.6964 5.98708 16.9667L6.57578 15.7894C6.71241 15.516 7.05763 15.4243 7.31184 15.5939L7.66502 15.8293C8.13706 16.144 8.7656 16.0818 9.16676 15.6806C9.48551 15.3618 9.59682 14.8903 9.45427 14.4626L9.217 13.7509C9.16947 13.6084 9.23403 13.4525 9.36848 13.3852L11.7366 12.2011C12.3419 11.8985 12.5451 11.1337 12.1696 10.5706C11.9918 10.3039 12.1416 9.94206 12.456 9.87919L12.606 9.84919C13.6286 9.6447 14.463 8.90803 14.7927 7.91883L14.8523 7.73996C14.9961 7.30877 14.8839 6.83336 14.5624 6.51197L12.7761 4.72565C12.6636 4.61312 12.6004 4.46051 12.6004 4.30139V4.22117C16.6278 4.52755 19.8004 7.89251 19.8004 11.9984C19.8004 13.1771 19.5389 14.2948 19.0709 15.2965C18.8354 15.1338 18.5565 15.0294 18.2548 15.0043L17.5761 14.3256C17.2385 13.988 16.7807 13.7984 16.3034 13.7984H16.0974C15.6201 13.7984 15.1623 13.988 14.8247 14.3256L14.1138 15.0365C14.0682 15.0821 14.0156 15.12 13.9578 15.1489L12.0638 16.096C11.6572 16.2992 11.4004 16.7147 11.4004 17.1692V17.3984C11.4004 18.0612 11.9377 18.5984 12.6004 18.5984H13.2004C13.5317 18.5984 13.8004 18.8671 13.8004 19.1984V19.5898Z" fill="#0F172A"/>
</svg>
