<svg width="24" height="24" viewBox="0 0 24 24" fill="none" xmlns="http://www.w3.org/2000/svg">
<path fill-rule="evenodd" clip-rule="evenodd" d="M21.6004 11.9984C21.6004 17.3004 17.3024 21.5984 12.0004 21.5984C6.69845 21.5984 2.40039 17.3004 2.40039 11.9984C2.40039 6.6965 6.69845 2.39844 12.0004 2.39844C17.3024 2.39844 21.6004 6.6965 21.6004 11.9984ZM19.7967 12.2434C19.6672 16.4378 16.2263 19.7984 12.0004 19.7984C7.69257 19.7984 4.20039 16.3063 4.20039 11.9984C4.20039 8.55031 6.4378 5.62477 9.54002 4.59441L8.31244 6.74267C7.92244 7.42517 8.0375 8.28426 8.59333 8.8401C9.12387 9.37064 9.93439 9.50216 10.6055 9.16662L10.8152 9.06179C10.8985 9.02012 10.9903 8.99844 11.0835 8.99844H11.2586C11.4858 8.99844 11.6936 9.12684 11.7952 9.33011C11.8797 9.49903 11.8797 9.69785 11.7952 9.86677L11.7619 9.93347C11.6807 10.0959 11.5147 10.1984 11.3331 10.1984H10.7306C9.82376 10.1984 8.97697 10.6516 8.47396 11.4061L8.4214 11.485C7.99033 12.1316 7.88193 12.941 8.12768 13.6782C8.3788 14.4316 8.97384 15.0221 9.72445 15.2723C10.0084 15.367 10.2002 15.6335 10.2002 15.9283V17.188C10.2002 17.967 10.8317 18.5984 11.6107 18.5984C12.0392 18.5984 12.4444 18.4037 12.7121 18.0691L14.6457 15.652C14.8752 15.3652 15.0002 15.0088 15.0002 14.6414C15.0002 14.2624 15.1539 13.8934 15.4241 13.6231C15.971 13.0763 16.0641 12.2125 15.6312 11.5633L15.0744 10.7282C15.0261 10.6555 15.0002 10.5702 15.0002 10.4829C15.0002 10.1185 15.4162 9.91046 15.7078 10.1291L16.119 10.4375C16.498 10.7217 17.0049 10.7669 17.428 10.5554C17.699 10.4199 18.0263 10.4731 18.2399 10.6867L19.7967 12.2434Z" fill="#0F172A"/>
</svg>
