<svg width="24" height="24" viewBox="0 0 24 24" fill="none" xmlns="http://www.w3.org/2000/svg">
<path d="M7.65055 20.9098C7.62055 20.9098 7.58055 20.9298 7.55055 20.9298C5.61055 19.9698 4.03055 18.3798 3.06055 16.4398C3.06055 16.4098 3.08055 16.3698 3.08055 16.3398C4.30055 16.6998 5.56055 16.9698 6.81055 17.1798C7.03055 18.4398 7.29055 19.6899 7.65055 20.9098Z" fill="white"/>
<path d="M20.941 16.4499C19.951 18.4398 18.301 20.0499 16.291 21.0198C16.6711 19.7499 16.991 18.4698 17.201 17.1798C18.461 16.9698 19.7011 16.6998 20.921 16.3398C20.911 16.3798 20.941 16.4199 20.941 16.4499Z" fill="white"/>
<path d="M21.0211 7.71046C19.7611 7.33047 18.491 7.02046 17.201 6.80046C16.991 5.51046 16.681 4.23046 16.291 2.98047C18.361 3.97046 20.0311 5.64046 21.0211 7.71046Z" fill="white"/>
<path d="M7.65047 3.0925C7.29047 4.3125 7.03047 5.5525 6.82047 6.8125C5.53047 7.0125 4.25046 7.3325 2.98047 7.7125C3.95046 5.7025 5.56047 4.0525 7.55046 3.0625C7.58046 3.0625 7.62047 3.0925 7.65047 3.0925Z" fill="white"/>
<path d="M15.4898 6.59C13.1698 6.33 10.8298 6.33 8.50977 6.59C8.75976 5.22 9.07977 3.85 9.52977 2.53C9.54976 2.45 9.53976 2.39 9.54976 2.31C10.3398 2.12 11.1498 2 11.9998 2C12.8398 2 13.6598 2.12 14.4398 2.31C14.4498 2.39 14.4498 2.45 14.4698 2.53C14.9198 3.86 15.2398 5.22 15.4898 6.59Z" fill="white"/>
<path d="M6.59 15.4878C5.21 15.2378 3.85 14.9178 2.53 14.4678C2.45 14.4479 2.39 14.4578 2.31001 14.4479C2.12 13.6578 2 12.8478 2 11.9978C2 11.1578 2.12 10.3378 2.31001 9.55781C2.39 9.54782 2.45 9.54782 2.53 9.52781C3.86 9.08782 5.21 8.75782 6.59 8.50781C6.34 10.8278 6.34 13.1678 6.59 15.4878Z" fill="white"/>
<path d="M22.0002 11.9978C22.0002 12.8478 21.8802 13.6578 21.6902 14.4479C21.6102 14.4578 21.5502 14.4479 21.4701 14.4678C20.1402 14.9078 18.7802 15.2378 17.4102 15.4878C17.6702 13.1678 17.6702 10.8278 17.4102 8.50781C18.7802 8.75782 20.1501 9.07781 21.4701 9.52781C21.5502 9.54782 21.6102 9.55781 21.6902 9.55781C21.8802 10.3478 22.0002 11.1578 22.0002 11.9978Z" fill="white"/>
<path d="M15.4898 17.4102C15.2398 18.7902 14.9198 20.1501 14.4698 21.4701C14.4498 21.5502 14.4498 21.6102 14.4398 21.6902C13.6598 21.8802 12.8398 22.0002 11.9998 22.0002C11.1498 22.0002 10.3398 21.8802 9.54976 21.6902C9.53976 21.6102 9.54976 21.5502 9.52977 21.4701C9.08976 20.1402 8.75976 18.7902 8.50977 17.4102C9.66976 17.5401 10.8298 17.6301 11.9998 17.6301C13.1698 17.6301 14.3398 17.5401 15.4898 17.4102Z" fill="white"/>
<path d="M15.7633 15.7633C13.2622 16.0789 10.7378 16.0789 8.23667 15.7633C7.92111 13.2622 7.92111 10.7378 8.23667 8.23666C10.7378 7.92111 13.2622 7.92111 15.7633 8.23666C16.0789 10.7378 16.0789 13.2622 15.7633 15.7633Z" fill="white"/>
</svg>
