<svg width="24" height="24" viewBox="0 0 24 24" fill="none" xmlns="http://www.w3.org/2000/svg">
<path d="M18.7305 14.6672L14.5804 18.8171C14.4204 18.9771 14.2704 19.2872 14.2305 19.5071L14.0004 21.0971C13.9204 21.6671 14.3205 22.0772 14.8905 21.9872L16.4805 21.7571C16.7004 21.7271 17.0104 21.5672 17.1705 21.4071L21.3204 17.2571C22.0305 16.5471 22.3704 15.7071 21.3204 14.6571C20.2804 13.6172 19.4505 13.9472 18.7305 14.6672Z" fill="white"/>
<path d="M18.1387 15.2578C18.4887 16.5178 19.4787 17.4979 20.7387 17.8579L18.1387 15.2578Z" fill="white"/>
<path d="M2.02977 14.6289C2.02977 14.6589 2.00977 14.6989 2.00977 14.7289C2.92977 16.5689 4.42977 18.0789 6.26977 18.9889C6.29977 18.9889 6.33977 18.9689 6.36977 18.9689C6.02977 17.8089 5.76977 16.6189 5.57977 15.4289C4.37977 15.2289 3.18977 14.9689 2.02977 14.6289Z" fill="white"/>
<path d="M19.0701 6.4314C18.13 4.46141 16.54 2.87141 14.5801 1.94141C14.9401 3.1314 15.2401 4.3514 15.4401 5.57141C16.66 5.7714 17.8801 6.0614 19.0701 6.4314Z" fill="white"/>
<path d="M1.92969 6.42953C3.12969 6.06953 4.34969 5.76953 5.56968 5.56954C5.76969 4.37954 6.01968 3.19954 6.35969 2.03954C6.32969 2.03954 6.28968 2.01953 6.25968 2.01953C4.37968 2.94953 2.84969 4.51954 1.92969 6.42953Z" fill="white"/>
<path d="M13.8196 5.35999C13.5796 4.06 13.2796 2.76 12.8497 1.5C12.8296 1.42999 12.8296 1.36999 12.8197 1.29C12.0796 1.11 11.2997 1 10.4997 1C9.68968 1 8.91969 1.11 8.16969 1.3C8.15969 1.36999 8.16969 1.42999 8.14968 1.51C7.72968 2.77 7.41969 4.06 7.17969 5.35999C9.38969 5.11999 11.6097 5.11999 13.8196 5.35999Z" fill="white"/>
<path d="M5.36 7.17969C4.04999 7.41968 2.77 7.72968 1.49999 8.14968C1.43 8.16968 1.37 8.16969 1.3 8.17968C1.11 8.91969 1 9.69968 1 10.4997C1 11.3097 1.11 12.0797 1.3 12.8297C1.37 12.8398 1.43 12.8297 1.51 12.8497C2.77 13.2697 4.06 13.5797 5.36999 13.8197C5.12 11.6097 5.12 9.38968 5.36 7.17969Z" fill="white"/>
<path d="M19.7009 8.17968C19.6308 8.17968 19.5708 8.16968 19.4909 8.14968C18.2309 7.72968 16.9308 7.41968 15.6309 7.17969C15.8808 9.38968 15.8808 11.6097 15.6309 13.8097C16.9308 13.5697 18.2309 13.2697 19.4909 12.8396C19.5609 12.8197 19.6209 12.8297 19.7009 12.8197C19.8809 12.0697 20.0009 11.2997 20.0009 10.4897C20.0009 9.69969 19.8909 8.92968 19.7009 8.17968Z" fill="white"/>
<path d="M7.17969 15.6429C7.41969 16.9528 7.71969 18.2428 8.14968 19.5028C8.16969 19.5729 8.15969 19.6329 8.16969 19.7128C8.91969 19.8928 9.68968 20.0029 10.4997 20.0029C11.2997 20.0029 12.0796 19.8928 12.8197 19.7029C12.8296 19.6329 12.8296 19.5729 12.8497 19.4929C13.2697 18.2329 13.5796 16.9429 13.8196 15.6328C12.7197 15.7528 11.6097 15.8428 10.4997 15.8428C9.38968 15.8428 8.27969 15.7629 7.17969 15.6429Z" fill="white"/>
<path d="M6.94961 6.95156C6.64961 9.31157 6.64961 11.6916 6.94961 14.0616C9.3096 14.3616 11.6896 14.3616 14.0596 14.0616C14.3596 11.7015 14.3596 9.32156 14.0596 6.95156C11.6896 6.65156 9.3096 6.65156 6.94961 6.95156Z" fill="white"/>
</svg>
