<svg width="24" height="24" viewBox="0 0 24 24" fill="none" xmlns="http://www.w3.org/2000/svg">
<path d="M19.865 6.49612C18.8209 5.0072 17.3648 3.82831 15.6621 3.125C16.5961 4.76926 17.2784 6.57501 17.6571 8.48995C18.4869 7.93574 19.231 7.26308 19.865 6.49612Z" fill="#0F172A"/>
<path d="M15.9914 9.38817C15.5767 6.82814 14.5621 4.46919 13.0964 2.4603C12.7368 2.41944 12.3711 2.39844 12.0006 2.39844C11.63 2.39844 11.2644 2.41944 10.9048 2.4603C9.43908 4.46919 8.42445 6.82813 8.00977 9.38817C9.23554 9.90981 10.5844 10.1984 12.0006 10.1984C13.4168 10.1984 14.7656 9.90981 15.9914 9.38817Z" fill="#0F172A"/>
<path d="M7.8178 11.25C9.12027 11.7344 10.5296 11.9992 12.0008 11.9992C13.472 11.9992 14.8813 11.7344 16.1837 11.25C16.195 11.4983 16.2008 11.7481 16.2008 11.9992C16.2008 13.294 16.0489 14.5533 15.7619 15.7603C14.5549 16.0473 13.2956 16.1992 12.0008 16.1992C10.706 16.1992 9.44664 16.0473 8.23964 15.7603C7.95269 14.5533 7.80078 13.294 7.80078 11.9992C7.80078 11.7481 7.80649 11.4983 7.8178 11.25Z" fill="#0F172A"/>
<path d="M6.34261 8.48995C6.72129 6.57501 7.40371 4.76926 8.33757 3.125C6.63499 3.8283 5.17886 5.0072 4.13477 6.49612C4.76875 7.26308 5.51276 7.93574 6.34261 8.48995Z" fill="#0F172A"/>
<path d="M20.7995 8.15625C21.3138 9.33267 21.5991 10.6321 21.5991 11.9981C21.5991 12.3687 21.5781 12.7343 21.5372 13.094C20.3736 13.943 19.0923 14.6407 17.7227 15.1581C17.9043 14.1321 17.9991 13.0762 17.9991 11.9981C17.9991 11.4703 17.9765 10.9477 17.9319 10.4314C19.0014 9.82187 19.9681 9.05269 20.7995 8.15625Z" fill="#0F172A"/>
<path d="M3.20002 8.15625C4.03143 9.05269 4.99811 9.82187 6.06764 10.4314C6.02312 10.9477 6.00039 11.4703 6.00039 11.9981C6.00039 13.0762 6.09517 14.1321 6.27683 15.1581C4.90715 14.6407 3.62597 13.943 2.46225 13.094C2.42139 12.7343 2.40039 12.3687 2.40039 11.9981C2.40039 10.6321 2.68571 9.33267 3.20002 8.15625Z" fill="#0F172A"/>
<path d="M11.9998 17.9991C13.0778 17.9991 14.1337 17.9043 15.1597 17.7227C14.6423 19.0923 13.9446 20.3736 13.0956 21.5373C12.736 21.5781 12.3703 21.5991 11.9998 21.5991C11.6292 21.5991 11.2636 21.5781 10.9039 21.5373C10.0549 20.3736 9.35722 19.0923 8.83984 17.7227C9.86576 17.9043 10.9217 17.9991 11.9998 17.9991Z" fill="#0F172A"/>
<path d="M17.2282 17.2302C16.8395 18.5125 16.3117 19.7343 15.6621 20.8779C18.0184 19.9046 19.9027 18.0204 20.876 15.6641C19.7324 16.3136 18.5105 16.8415 17.2282 17.2302Z" fill="#0F172A"/>
<path d="M8.3369 20.8779C5.98062 19.9046 4.09638 18.0204 3.12305 15.6641C4.26671 16.3136 5.48849 16.8415 6.77081 17.2302C7.15946 18.5125 7.68737 19.7343 8.3369 20.8779Z" fill="#0F172A"/>
</svg>
