<svg width="24" height="24" viewBox="0 0 24 24" fill="none" xmlns="http://www.w3.org/2000/svg">
<path d="M22.6497 18.1342C22.5498 17.7341 22.1498 17.4841 21.7497 17.5841C21.3498 17.6842 21.0998 18.0841 21.1898 18.4841C21.2298 18.6541 21.2498 18.8242 21.2498 19.0042C21.2498 20.2441 20.2398 21.2542 18.9998 21.2542C17.7597 21.2542 16.7498 20.2441 16.7498 19.0042C16.7498 17.9041 17.5398 16.9942 18.5898 16.7941C18.4898 17.0242 18.4998 17.3041 18.6597 17.5241C18.8097 17.7241 19.0398 17.8342 19.2698 17.8342C19.4198 17.8342 19.5798 17.7841 19.7097 17.6941L20.8797 16.8442C20.8898 16.8341 20.8898 16.8241 20.8998 16.8241C20.9097 16.8142 20.9198 16.8142 20.9298 16.8041C20.9598 16.7741 20.9798 16.7441 20.9997 16.7041C21.0297 16.6642 21.0698 16.6342 21.0897 16.5841C21.1098 16.5442 21.1197 16.4941 21.1398 16.4542C21.1497 16.4041 21.1698 16.3642 21.1797 16.3141C21.1898 16.2641 21.1797 16.2241 21.1698 16.1741C21.1698 16.1242 21.1698 16.0741 21.1497 16.0241C21.1398 15.9742 21.1098 15.9341 21.0897 15.8941C21.0698 15.8542 21.0597 15.8141 21.0398 15.7841C21.0297 15.7741 21.0198 15.7741 21.0098 15.7642C20.9997 15.7642 20.9997 15.7541 20.9997 15.7441L19.9998 14.5942C19.7298 14.2841 19.2498 14.2441 18.9398 14.5241C18.7197 14.7241 18.6398 15.0142 18.7197 15.2842C16.7898 15.4342 15.2598 17.0341 15.2598 19.0042C15.2598 21.0742 16.9398 22.7542 19.0098 22.7542C21.0798 22.7542 22.7598 21.0742 22.7598 19.0042C22.7498 18.7141 22.7198 18.4141 22.6497 18.1342Z" fill="white"/>
<path d="M2.02977 14.6289C2.02977 14.6589 2.00977 14.6989 2.00977 14.7289C2.92977 16.5689 4.42977 18.0789 6.26977 18.9889C6.29977 18.9889 6.33977 18.9689 6.36977 18.9689C6.02977 17.8089 5.76977 16.6189 5.57977 15.4289C4.37977 15.2289 3.18977 14.9689 2.02977 14.6289Z" fill="white"/>
<path d="M19.0701 6.4314C18.13 4.46141 16.54 2.87141 14.5801 1.94141C14.9401 3.1314 15.2401 4.3514 15.4401 5.57141C16.66 5.7714 17.8801 6.0614 19.0701 6.4314Z" fill="white"/>
<path d="M1.92969 6.42953C3.12969 6.06953 4.34969 5.76953 5.56968 5.56954C5.76969 4.37954 6.01968 3.19954 6.35969 2.03954C6.32969 2.03954 6.28968 2.01953 6.25968 2.01953C4.37968 2.94953 2.84969 4.51954 1.92969 6.42953Z" fill="white"/>
<path d="M13.8196 5.35999C13.5796 4.06 13.2796 2.76 12.8497 1.5C12.8296 1.42999 12.8296 1.36999 12.8197 1.29C12.0796 1.11 11.2997 1 10.4997 1C9.68968 1 8.91969 1.11 8.16969 1.3C8.15969 1.36999 8.16969 1.42999 8.14968 1.51C7.72968 2.77 7.41969 4.06 7.17969 5.35999C9.38969 5.11999 11.6097 5.11999 13.8196 5.35999Z" fill="white"/>
<path d="M5.36 7.17969C4.04999 7.41968 2.77 7.72968 1.49999 8.14968C1.43 8.16968 1.37 8.16969 1.3 8.17968C1.11 8.91969 1 9.69968 1 10.4997C1 11.3097 1.11 12.0797 1.3 12.8297C1.37 12.8398 1.43 12.8297 1.51 12.8497C2.77 13.2697 4.06 13.5797 5.36999 13.8197C5.12 11.6097 5.12 9.38968 5.36 7.17969Z" fill="white"/>
<path d="M19.7009 8.17968C19.6308 8.17968 19.5708 8.16968 19.4909 8.14968C18.2309 7.72968 16.9308 7.41968 15.6309 7.17969C15.8808 9.38968 15.8808 11.6097 15.6309 13.8097C16.9308 13.5697 18.2309 13.2697 19.4909 12.8396C19.5609 12.8197 19.6209 12.8297 19.7009 12.8197C19.8809 12.0697 20.0009 11.2997 20.0009 10.4897C20.0009 9.69969 19.8909 8.92968 19.7009 8.17968Z" fill="white"/>
<path d="M7.17969 15.6429C7.41969 16.9528 7.71969 18.2428 8.14968 19.5028C8.16969 19.5729 8.15969 19.6329 8.16969 19.7128C8.91969 19.8928 9.68968 20.0029 10.4997 20.0029C11.2997 20.0029 12.0796 19.8928 12.8197 19.7029C12.8296 19.6329 12.8296 19.5729 12.8497 19.4929C13.2697 18.2329 13.5796 16.9429 13.8196 15.6328C12.7197 15.7528 11.6097 15.8428 10.4997 15.8428C9.38968 15.8428 8.27969 15.7629 7.17969 15.6429Z" fill="white"/>
<path d="M6.94961 6.95156C6.64961 9.31157 6.64961 11.6916 6.94961 14.0616C9.3096 14.3616 11.6896 14.3616 14.0596 14.0616C14.3596 11.7015 14.3596 9.32156 14.0596 6.95156C11.6896 6.65156 9.3096 6.65156 6.94961 6.95156Z" fill="white"/>
</svg>
