<svg width="24" height="24" viewBox="0 0 24 24" fill="none" xmlns="http://www.w3.org/2000/svg">
<path fill-rule="evenodd" clip-rule="evenodd" d="M21.6004 11.9984C21.6004 17.3004 17.3024 21.5984 12.0004 21.5984C6.69845 21.5984 2.40039 17.3004 2.40039 11.9984C2.40039 6.6965 6.69845 2.39844 12.0004 2.39844C17.3024 2.39844 21.6004 6.6965 21.6004 11.9984ZM19.8004 11.9984C19.8004 16.3063 16.3083 19.7984 12.0004 19.7984C7.69257 19.7984 4.20039 16.3063 4.20039 11.9984C4.20039 9.78641 5.12119 7.78944 6.60039 6.36992V6.90727C6.60039 8.02118 7.04289 9.08947 7.83055 9.87711L9.95186 11.9984L9.60039 12.3499C9.13175 12.8185 9.13177 13.5784 9.60039 14.047L10.8732 15.3198C11.2108 15.6574 11.4004 16.1152 11.4004 16.5925V17.0276C11.4004 17.4822 11.6572 17.8976 12.0638 18.1009L12.3954 18.2668C12.9882 18.5632 13.709 18.3229 14.0054 17.7301L15.7503 14.2404C16.0967 13.5474 15.9609 12.7104 15.4131 12.1626L14.4869 11.2364C14.1654 10.915 13.6901 10.8028 13.2588 10.9465L12.798 11.1001C12.5147 11.1945 12.2051 11.0663 12.0716 10.7992L11.7165 10.0891C11.6054 9.86682 11.649 9.5984 11.8247 9.4227C12.0004 9.24701 12.2687 9.20345 12.491 9.31457L12.8054 9.47175C12.972 9.55506 13.1558 9.59844 13.342 9.59844H13.568C14.387 9.59844 14.9654 8.796 14.7064 8.01896L14.6248 7.77417C14.5476 7.54274 14.6183 7.28765 14.8035 7.12889L16.5309 5.64829C18.5102 7.06296 19.8004 9.38003 19.8004 11.9984Z" fill="#0F172A"/>
</svg>
