<svg width="24" height="24" viewBox="0 0 24 24" fill="none" xmlns="http://www.w3.org/2000/svg">
<path d="M5.94062 16.7712L4.28065 19.5912C4.16065 19.8012 3.85059 19.8012 3.72059 19.5912L2.03065 16.7712C1.90065 16.5513 2.06062 16.2812 2.31062 16.2812H5.66059C5.91059 16.2812 6.06062 16.5612 5.94062 16.7712Z" fill="white"/>
<path d="M11.6904 8.40845L7.74039 14.8784C7.65039 15.0284 7.49041 15.1085 7.32041 15.1085H2.25041C1.87041 15.1085 1.63041 14.7084 1.82041 14.3885L8.28044 3.72845C8.47044 3.41845 8.94041 3.40846 9.13041 3.72845L11.6904 7.93844C11.7804 8.07845 11.7804 8.25845 11.6904 8.40845Z" fill="white"/>
<path d="M13.721 14.4892H10.241C10.041 14.4892 9.91102 14.2693 10.0111 14.0893L11.7511 11.1392C11.8511 10.9692 12.1011 10.9692 12.201 11.1392L13.941 14.0893C14.0511 14.2693 13.921 14.4892 13.721 14.4892Z" fill="white"/>
<path d="M13.6594 3.4L12.2096 5.87C12.1095 6.04 11.8496 6.04 11.7495 5.87L10.2995 3.4C10.1994 3.22 10.3196 3 10.5296 3H13.4295C13.6395 3 13.7595 3.22 13.6594 3.4Z" fill="white"/>
<path d="M22.1695 14.3684C22.3695 14.6984 22.1196 15.1184 21.7395 15.1184H16.8696C16.6995 15.1184 16.5495 15.0284 16.4595 14.8884L12.6495 8.41846C12.5595 8.26846 12.5595 8.08844 12.6495 7.93844L15.1195 3.72845C15.2995 3.41845 15.7596 3.40846 15.9396 3.72845C17.1595 5.83846 20.8896 12.1784 22.1695 14.3684Z" fill="white"/>
<path d="M21.9306 16.7696C21.3807 17.6996 20.7906 18.6995 20.2506 19.6095C20.1207 19.8296 19.8106 19.8195 19.6806 19.5995L18.0208 16.7696C17.8907 16.5495 18.0507 16.2695 18.3106 16.2695H21.6407C21.9007 16.2795 22.0606 16.5495 21.9306 16.7696Z" fill="white"/>
<path d="M18.0207 20.9994H5.94067C5.58067 20.9994 5.36065 20.6094 5.54065 20.2993L7.87066 16.3393C7.95066 16.1994 8.10069 16.1094 8.27069 16.1094H15.6906C15.8507 16.1094 16.0107 16.1994 16.0907 16.3393L18.4206 20.2993C18.6006 20.6094 18.3807 20.9994 18.0207 20.9994Z" fill="white"/>
</svg>
