<svg width="24" height="24" viewBox="0 0 24 24" fill="none" xmlns="http://www.w3.org/2000/svg">
<path d="M22.7489 12.0026C22.7489 12.4127 22.409 12.7526 21.9989 12.7526H19.9589C19.6089 16.5626 16.559 19.6127 12.749 19.9626V22.0026C12.749 22.4126 12.4089 22.7526 11.9989 22.7526C11.5889 22.7526 11.2489 22.4126 11.2489 22.0026V19.9626C10.6389 19.9127 10.0389 19.7826 9.46896 19.5926C8.75897 19.3526 8.53896 18.4526 9.06897 17.9226L11.8789 15.1127C11.9189 15.1226 11.9489 15.1226 11.9889 15.1226C13.7189 15.1226 15.1089 13.7327 15.1089 12.0026C15.1089 11.9627 15.1089 11.9327 15.0989 11.8927L17.909 9.08263C18.4389 8.55264 19.3389 8.77264 19.5789 9.48264C19.769 10.0527 19.8989 10.6427 19.949 11.2627H21.9989C22.409 11.2527 22.7489 11.5927 22.7489 12.0026Z" fill="white"/>
<path d="M21.77 2.23C21.47 1.93 20.9801 1.93 20.6801 2.23L17.07 5.84C15.87 4.85 14.37 4.2 12.74 4.05V2C12.74 1.59 12.4001 1.25 11.99 1.25C11.58 1.25 11.24 1.59 11.24 2V4.04C7.43 4.4 4.38001 7.44 4.03 11.25H2C1.59001 11.25 1.25 11.59 1.25 12C1.25 12.41 1.59001 12.75 2 12.75H4.04C4.19 14.38 4.84 15.88 5.83 17.08L2.22001 20.69C1.92001 20.99 1.92001 21.48 2.22001 21.78C2.38 21.92 2.57 22 2.77 22C2.97001 22 3.16 21.92 3.31 21.77L21.77 3.31C22.08 3.01 22.08 2.53 21.77 2.23ZM8.88001 12C8.88001 10.28 10.28 8.88 12 8.88C12.5801 8.88 13.1201 9.05 13.58 9.33L9.33001 13.58C9.05 13.12 8.88001 12.58 8.88001 12Z" fill="white"/>
</svg>
