<svg width="24" height="24" viewBox="0 0 24 24" fill="none" xmlns="http://www.w3.org/2000/svg">
<path d="M19.1104 4.95594C15.2005 1.04594 8.85045 1.04594 4.94045 4.95594C0.960456 8.93594 1.03045 15.4259 5.14046 19.3259C8.94045 22.9159 15.1005 22.9159 18.9004 19.3259C23.0205 15.4259 23.0905 8.93594 19.1104 4.95594ZM16.3804 16.6459C15.1804 17.7859 13.6005 18.3559 12.0205 18.3559C10.4405 18.3559 8.86046 17.7859 7.66046 16.6459C7.36046 16.3559 7.35045 15.886 7.63046 15.586C7.92045 15.286 8.39045 15.2759 8.69045 15.556C10.5205 17.2859 13.5105 17.296 15.3505 15.556C15.6505 15.2759 16.1305 15.286 16.4104 15.586C16.7005 15.886 16.6804 16.3559 16.3804 16.6459Z" fill="white"/>
</svg>
