<svg width="24" height="24" viewBox="0 0 24 24" fill="none" xmlns="http://www.w3.org/2000/svg">
<path d="M21.6702 6.94941C21.0301 4.77942 19.2202 2.96942 17.0502 2.32941C15.4002 1.84941 14.2602 1.88942 13.4701 2.47941C12.5202 3.18942 12.4102 4.46941 12.4102 5.37942V7.86942C12.4102 10.3294 13.5301 11.5794 15.7302 11.5794H18.6001C19.5001 11.5794 20.7901 11.4694 21.5002 10.5194C22.1101 9.73941 22.1602 8.59941 21.6702 6.94941Z" fill="white"/>
<path d="M18.9094 13.3612C18.6494 13.0612 18.2695 12.8911 17.8795 12.8911H14.2994C12.5395 12.8911 11.1094 11.4612 11.1094 9.70113V6.12113C11.1094 5.73113 10.9394 5.35113 10.6394 5.09112C10.3494 4.83113 9.94941 4.71113 9.56941 4.76112C7.21941 5.06112 5.05941 6.35112 3.64941 8.29113C2.22941 10.2412 1.70941 12.6211 2.15941 15.0012C2.80941 18.4411 5.55941 21.1912 9.00941 21.8412C9.55941 21.9511 10.1094 22.0012 10.6594 22.0012C12.4694 22.0012 14.2195 21.4411 15.7094 20.3512C17.6494 18.9412 18.9394 16.7812 19.2394 14.4312C19.2895 14.0412 19.1695 13.6512 18.9094 13.3612Z" fill="white"/>
</svg>
