<svg width="24" height="24" viewBox="0 0 24 24" fill="none" xmlns="http://www.w3.org/2000/svg">
<path d="M21.5297 17.31V17.15C21.5297 15.22 20.5498 14.25 18.6298 14.25C16.7098 14.25 15.7298 15.23 15.7298 17.15V17.31C14.6798 17.57 14.2598 18.29 14.2598 19.73V20.47C14.2598 22.32 14.9498 23 16.7897 23H20.4698C22.3198 23 22.9997 22.31 22.9997 20.47V19.73C22.9997 18.3 22.5797 17.57 21.5297 17.31ZM18.6197 15.63C19.9097 15.63 20.1398 16.12 20.1398 17.15V17.2H17.0998V17.15C17.0998 16.12 17.3297 15.63 18.6197 15.63Z" fill="white"/>
<path d="M6.74742 2.06594C7.29729 1.99471 7.7506 2.45157 7.7506 3.00602V6.80045C7.7506 7.35274 7.30288 7.80045 6.7506 7.80045H3.0006C2.44832 7.80045 1.9924 7.35073 2.05926 6.80249C2.38692 4.11593 4.07247 2.4125 6.74742 2.06594Z" fill="white"/>
<path d="M20.93 7.7997H17.25C16.6977 7.7997 16.25 7.35198 16.25 6.7997V3.00595C16.25 2.45124 16.7041 1.99429 17.2542 2.06604C19.8878 2.40948 21.5644 4.06781 21.93 6.6797C22.01 7.26971 21.53 7.7997 20.93 7.7997Z" fill="white"/>
<path d="M6.74904 16.3047C7.30132 16.3047 7.74904 16.7524 7.74904 17.3048V20.9247C7.74904 21.5247 7.21903 22.0047 6.61903 21.9248C4.04992 21.5424 2.42911 19.8957 2.07277 17.3148C1.99656 16.7628 2.45454 16.3047 3.01177 16.3047H6.74904Z" fill="white"/>
<path d="M7.75 10.3008C7.75 9.7485 7.30228 9.30078 6.75001 9.30078H3.00001C2.44772 9.30078 2 9.7485 2 10.3008V13.8008C2 14.3531 2.44772 14.8009 3.00001 14.8009H6.75001C7.30228 14.8009 7.75 14.3531 7.75 13.8008V10.3008Z" fill="white"/>
<path d="M14.7499 10.3008C14.7499 9.7485 14.3023 9.30078 13.75 9.30078H10.25C9.69772 9.30078 9.25 9.7485 9.25 10.3008V13.8008C9.25 14.3531 9.69772 14.8009 10.25 14.8009H13.75C14.2999 14.8009 14.7499 14.3509 14.7499 13.8008V10.3008Z" fill="white"/>
<path d="M14.7499 3C14.7499 2.44771 14.3023 2 13.75 2H10.25C9.69772 2 9.25 2.44772 9.25 3V6.8C9.25 7.35229 9.69772 7.8 10.25 7.8H13.75C14.3023 7.8 14.7499 7.35228 14.7499 6.8V3Z" fill="white"/>
</svg>
