<svg width="24" height="24" viewBox="0 0 24 24" fill="none" xmlns="http://www.w3.org/2000/svg">
<path d="M7.75 2V7.8H2C2 4.19 4.15 2.02 7.75 2Z" fill="white"/>
<path d="M22 7.8H16.25V2C19.85 2.02 22 4.19 22 7.8Z" fill="white"/>
<path d="M22 16.3047C21.96 19.8548 19.82 21.9848 16.25 22.0047V16.3047H22Z" fill="white"/>
<path d="M7.75 16.3047V22.0047C4.18 21.9848 2.04001 19.8548 2 16.3047H7.75Z" fill="white"/>
<path d="M7.75 9.30078H2V14.8009H7.75V9.30078Z" fill="white"/>
<path d="M22 9.30078H16.25V14.8009H22V9.30078Z" fill="white"/>
<path d="M14.7499 9.30078H9.25V14.8009H14.7499V9.30078Z" fill="white"/>
<path d="M14.7499 2H9.25V7.8H14.7499V2Z" fill="white"/>
<path d="M14.7499 16.3047H9.25V22.0047H14.7499V16.3047Z" fill="white"/>
</svg>
