<svg width="24" height="24" viewBox="0 0 24 24" fill="none" xmlns="http://www.w3.org/2000/svg">
<path fill-rule="evenodd" clip-rule="evenodd" d="M13.1996 2.39922C13.1996 1.73648 12.6624 1.19922 11.9996 1.19922C11.3369 1.19922 10.7996 1.73648 10.7996 2.39922V9.59922V10.1992C10.7996 10.5306 10.531 10.7992 10.1996 10.7992C9.86824 10.7992 9.59961 10.5306 9.59961 10.1992V9.59922V3.59922C9.59961 2.93648 9.06236 2.39922 8.39961 2.39922C7.73686 2.39922 7.19961 2.93648 7.19961 3.59922V9.59922V10.1992C7.19961 10.5306 6.93098 10.7992 6.59961 10.7992C6.26824 10.7992 5.99961 10.5306 5.99961 10.1992V9.59922V5.99922C5.99961 5.33648 5.46236 4.79922 4.79961 4.79922C4.13686 4.79922 3.59961 5.33648 3.59961 5.99922V13.1992V14.3992C3.59961 19.0384 7.36042 22.7992 11.9996 22.7992C16.6388 22.7992 20.3996 19.0384 20.3996 14.3992V13.1992V9.59922C20.3996 8.93648 19.8624 8.39922 19.1996 8.39922C18.5368 8.39922 17.9996 8.93648 17.9996 9.59922V13.1992V13.7992C17.9996 14.1305 17.7309 14.3992 17.3996 14.3992C17.0683 14.3992 16.7996 14.1305 16.7996 13.7992V13.1992V11.9992V9.59922V3.59922C16.7996 2.93648 16.2624 2.39922 15.5996 2.39922C14.9368 2.39922 14.3996 2.93648 14.3996 3.59922V9.59922V10.1992C14.3996 10.5306 14.1309 10.7992 13.7996 10.7992C13.4683 10.7992 13.1996 10.5306 13.1996 10.1992V9.59922V2.39922Z" fill="#0F172A"/>
</svg>
