<svg width="24" height="24" viewBox="0 0 24 24" fill="none" xmlns="http://www.w3.org/2000/svg">
<path d="M22.6855 15.3008C22.6855 16.1293 22.014 16.8008 21.1855 16.8008C20.3572 16.8008 19.6855 16.1293 19.6855 15.3008V6.30078C19.6855 5.47235 20.3572 4.80078 21.1855 4.80078C22.014 4.80078 22.6855 5.47235 22.6855 6.30078V15.3008Z" fill="#0F172A"/>
<path d="M10.6853 20.4016V21.9613C10.6853 22.2827 10.5176 22.5926 10.2114 22.6897C9.98231 22.7624 9.73838 22.8016 9.4853 22.8016C8.15981 22.8016 7.0853 21.7271 7.0853 20.4016C7.0853 19.2076 7.30329 18.0644 7.70165 17.0098C7.9466 16.3614 7.50241 15.6016 6.80925 15.6016H3.7853C2.29413 15.6016 1.07199 14.39 1.20985 12.9053C1.44157 10.4096 1.99171 8.00633 2.81926 5.73643C3.30117 4.41459 4.59854 3.60156 6.00549 3.60156H9.83546C10.3943 3.60156 10.9455 3.73168 11.4454 3.98163L14.7252 5.6215C15.2251 5.87143 15.7763 6.00156 16.3351 6.00156H17.8853V14.4016H16.7294C15.9081 14.4016 15.2201 14.9806 14.7948 15.6833C14.2087 16.6518 13.2897 17.3965 12.1965 17.7588C11.6772 17.931 11.1722 18.2224 10.9823 18.7355C10.7902 19.2545 10.6853 19.8158 10.6853 20.4016Z" fill="#0F172A"/>
</svg>
