<svg width="24" height="24" viewBox="0 0 24 24" fill="none" xmlns="http://www.w3.org/2000/svg">
<path d="M1.19922 9.89844C1.19922 9.07001 1.87079 8.39844 2.69922 8.39844C3.52765 8.39844 4.19922 9.07001 4.19922 9.89844V18.8984C4.19922 19.7269 3.52765 20.3984 2.69922 20.3984C1.87079 20.3984 1.19922 19.7269 1.19922 18.8984V9.89844Z" fill="#0F172A"/>
<path d="M13.2 3.59922V2.03941C13.2 1.71813 13.3676 1.40809 13.6739 1.31101C13.903 1.23839 14.1469 1.19922 14.4 1.19922C15.7255 1.19922 16.8 2.27373 16.8 3.59922C16.8 4.79327 16.582 5.93639 16.1837 6.99097C15.9388 7.63941 16.3829 8.39922 17.076 8.39922H20.1C21.5911 8.39922 22.8133 9.6107 22.6754 11.0955C22.4437 13.5911 21.8936 15.9945 21.066 18.2643C20.5841 19.5862 19.2868 20.3992 17.8798 20.3992H14.0498C13.491 20.3992 12.9397 20.2691 12.4399 20.0192L9.16013 18.3793C8.66024 18.1293 8.10904 17.9992 7.55016 17.9992H6V9.59922H7.15584C7.97716 9.59922 8.66526 9.0202 9.09049 8.31754C9.67664 7.34898 10.5956 6.6043 11.6887 6.24197C12.2081 6.06983 12.713 5.77836 12.903 5.26525C13.0951 4.74626 13.2 4.185 13.2 3.59922Z" fill="#0F172A"/>
</svg>
