<svg width="24" height="24" viewBox="0 0 24 24" fill="none" xmlns="http://www.w3.org/2000/svg">
<path d="M22 5.74219V18.2622C22 20.3221 20.32 22.0021 18.26 22.0021H17.74C15.68 22.0021 14 20.3221 14 18.2622V11.8822C14.35 11.8421 14.69 11.7922 15.01 11.7221C17.05 11.3522 18.6 10.6522 19.72 9.94219C21.16 9.04219 22 7.44218 22 5.74219Z" fill="white"/>
<path d="M22.0001 5.74C22.0001 7.44001 21.1601 9.03999 19.7201 9.93999C18.6 10.65 17.0501 11.35 15.0101 11.72C14.69 11.79 14.3501 11.84 14 11.88V12.63C12.81 12.78 11.54 12.7 10.07 12.85L10 12.86V18.26C10 20.32 8.32002 22 6.26001 22H5.73999C3.67999 22 2 20.32 2 18.26C2 18.17 2.00002 18.07 2.02003 17.98C2.10002 16.38 2.92003 14.91 4.28004 14.06C5.40003 13.35 6.94999 12.65 8.97998 12.28C9.29998 12.21 9.65 12.16 10 12.12V11.35C11.56 11.21 12.75 11.29 13.91 11.14L14 11.13V5.74C14 3.68001 15.68 2 17.7401 2H18.26C20.09 2 21.63 3.33 21.9401 5.08C21.98 5.29 22.0001 5.51001 22.0001 5.74Z" fill="white"/>
<path d="M10 5.74V12.12C9.65 12.16 9.29998 12.21 8.97998 12.28C6.94999 12.65 5.40003 13.35 4.28004 14.06C2.92003 14.91 2.10002 16.38 2.02003 17.98C2.01002 17.99 2 18 2 18V5.74C2 3.68001 3.67999 2 5.73999 2H6.26001C8.32002 2 10 3.68001 10 5.74Z" fill="white"/>
</svg>
