<svg width="24" height="24" viewBox="0 0 24 24" fill="none" xmlns="http://www.w3.org/2000/svg">
<path fill-rule="evenodd" clip-rule="evenodd" d="M11.3921 3.42153C11.46 2.92913 11.1159 2.47491 10.6235 2.40699C10.1311 2.33908 9.67685 2.68318 9.60893 3.17557L9.05404 7.19855H5.03836C4.54131 7.19855 4.13836 7.6015 4.13836 8.09855C4.13836 8.5956 4.54131 8.99855 5.03836 8.99855H8.80577L7.97818 14.9986H3.9625C3.46544 14.9986 3.0625 15.4015 3.0625 15.8986C3.0625 16.3956 3.46544 16.7986 3.9625 16.7986H7.72991L7.20894 20.5755C7.14102 21.0679 7.48512 21.5222 7.97752 21.5902C8.46992 21.6581 8.92414 21.3139 8.99206 20.8216L9.54695 16.7986H13.1299L12.6089 20.5755C12.541 21.0679 12.8851 21.5222 13.3775 21.5902C13.8699 21.6581 14.3242 21.3139 14.3921 20.8216L14.947 16.7986H18.9625C19.4596 16.7986 19.8625 16.3956 19.8625 15.8986C19.8625 15.4015 19.4596 14.9986 18.9625 14.9986H15.1953L16.0228 8.99855H20.0383C20.5354 8.99855 20.9383 8.5956 20.9383 8.09855C20.9383 7.6015 20.5354 7.19855 20.0383 7.19855H16.2711L16.7921 3.42153C16.86 2.92913 16.5159 2.47491 16.0235 2.40699C15.531 2.33908 15.0768 2.68318 15.0089 3.17557L14.454 7.19855H10.8711L11.3921 3.42153ZM10.6228 8.99855L9.79522 14.9986H13.3782L14.2057 8.99855H10.6228Z" fill="#0F172A"/>
</svg>
