<svg width="24" height="24" viewBox="0 0 24 24" fill="none" xmlns="http://www.w3.org/2000/svg">
<path d="M8.04883 10.1369V11.2969H11.3088V8.04688H10.1488C8.98882 8.04688 8.04883 8.98687 8.04883 10.1369Z" fill="white"/>
<path d="M8.04883 13.8593C8.04883 15.0092 8.98882 15.9493 10.1388 15.9493H11.2988V12.6992H8.04883V13.8593Z" fill="white"/>
<path d="M12.7012 15.9493H13.8612C15.0112 15.9493 15.9511 15.0092 15.9511 13.8593V12.6992H12.7012V15.9493Z" fill="white"/>
<path d="M16.19 2H7.81C4.17001 2 2 4.17 2 7.81V16.18C2 19.83 4.17001 22 7.81 22H16.1801C19.82 22 21.99 19.83 21.99 16.19V7.81C22.0001 4.17 19.83 2 16.19 2ZM17.3501 13.86C17.3501 15.78 15.78 17.35 13.86 17.35H10.14C8.22001 17.35 6.65 15.79 6.65 13.86V10.14C6.65 8.22 8.22001 6.65 10.14 6.65H13.86C15.78 6.65 17.3501 8.21 17.3501 10.14V13.86Z" fill="white"/>
<path d="M13.8612 8.04688H12.7012V11.3069H15.9612V10.1469C15.9511 8.98687 15.0112 8.04688 13.8612 8.04688Z" fill="white"/>
</svg>
