<svg width="24" height="24" viewBox="0 0 24 24" fill="none" xmlns="http://www.w3.org/2000/svg">
<path d="M8.5 12.75C8.09 12.75 7.75 12.41 7.75 12V6C7.75 5.59 8.09 5.25 8.5 5.25C8.90999 5.25 9.25 5.59 9.25 6V12C9.25 12.41 8.90999 12.75 8.5 12.75Z" fill="white"/>
<path d="M8.5 22.75C8.09 22.75 7.75 22.41 7.75 22V18C7.75 17.59 8.09 17.25 8.5 17.25C8.90999 17.25 9.25 17.59 9.25 18V22C9.25 22.41 8.90999 22.75 8.5 22.75Z" fill="white"/>
<path d="M15.5 22.75C15.09 22.75 14.75 22.41 14.75 22V6C14.75 5.59 15.09 5.25 15.5 5.25C15.91 5.25 16.25 5.59 16.25 6V22C16.25 22.41 15.91 22.75 15.5 22.75Z" fill="white"/>
<path d="M10.0988 5.3C10.0988 5.79 9.89882 6.24 9.56882 6.57C9.23882 6.9 8.78882 7.1 8.29883 7.1H6.04883C6.32882 6.73 6.49883 6.25 6.49883 5.75V4.85C6.49883 4.35 6.32882 3.87 6.04883 3.5H8.29883C9.28883 3.5 10.0988 4.31 10.0988 5.3Z" fill="white"/>
<path d="M6.5 4.84835V5.74835C6.5 6.24834 6.33001 6.72834 6.05 7.09835C5.29 8.10834 3.73 8.44834 2.28001 7.15835C2.12 7.01834 2 6.71834 2 6.50834V4.16834C2 3.96834 2.10001 3.69834 2.23 3.55835C3.49 2.23834 5.01001 2.42834 5.84 3.25835C5.91001 3.32834 5.99 3.40835 6.05 3.49835C6.33001 3.86834 6.5 4.34834 6.5 4.84835Z" fill="white"/>
<path d="M13.9004 5.3C13.9004 5.79 14.1004 6.24 14.4304 6.57C14.7604 6.9 15.2104 7.1 15.7004 7.1H17.9504C17.6704 6.73 17.5004 6.25 17.5004 5.75V4.85C17.5004 4.35 17.6704 3.87 17.9504 3.5H15.7004C14.7104 3.5 13.9004 4.31 13.9004 5.3Z" fill="white"/>
<path d="M17.5 4.84835V5.74835C17.5 6.24834 17.67 6.72834 17.95 7.09835C18.71 8.10834 20.27 8.44834 21.72 7.15835C21.88 7.01834 22 6.71834 22 6.50834V4.16834C22 3.97835 21.9 3.69834 21.77 3.55835C20.51 2.23834 18.99 2.42834 18.16 3.25835C18.09 3.32834 18.02 3.40835 17.95 3.49835C17.67 3.86834 17.5 4.34834 17.5 4.84835Z" fill="white"/>
<path d="M10 13.5V17.5C10 18.33 9.32999 19 8.5 19C7.67 19 7 18.33 7 17.5V13.5C7 12.67 7.67 12 8.5 12C9.32999 12 10 12.67 10 13.5Z" fill="white"/>
</svg>
