<svg width="24" height="24" viewBox="0 0 24 24" fill="none" xmlns="http://www.w3.org/2000/svg">
<path d="M2.74982 18.6469C2.33981 18.6469 1.99982 18.3068 1.99982 17.8969V12.1969C1.94981 9.48687 2.95982 6.92688 4.83981 5.00688C6.71981 3.09687 9.23981 2.04688 11.9498 2.04688C17.4898 2.04688 21.9998 6.55687 21.9998 12.0968V17.7968C21.9998 18.2069 21.6598 18.5468 21.2498 18.5468C20.8398 18.5468 20.4998 18.2069 20.4998 17.7968V12.0968C20.4998 7.38687 16.6698 3.54687 11.9498 3.54687C9.63981 3.54687 7.49981 4.43688 5.90981 6.05688C4.30982 7.68687 3.45981 9.85687 3.49982 12.1769V17.8868C3.49982 18.3068 3.16982 18.6469 2.74982 18.6469Z" fill="white"/>
<path d="M5.94001 12.4492H5.81C3.71 12.4492 2 14.1592 2 16.2592V18.1393C2 20.2393 3.71 21.9493 5.81 21.9493H5.94001C8.04001 21.9493 9.75001 20.2393 9.75001 18.1393V16.2592C9.75001 14.1592 8.04001 12.4492 5.94001 12.4492Z" fill="white"/>
<path d="M18.19 12.4492H18.06C15.96 12.4492 14.25 14.1592 14.25 16.2592V18.1393C14.25 20.2393 15.96 21.9493 18.06 21.9493H18.19C20.29 21.9493 22 20.2393 22 18.1393V16.2592C22 14.1592 20.29 12.4492 18.19 12.4492Z" fill="white"/>
</svg>
