<svg width="24" height="24" viewBox="0 0 24 24" fill="none" xmlns="http://www.w3.org/2000/svg">
<path d="M22.0001 7.81V12.5H17.9201C17.8001 12.49 17.54 12.34 17.48 12.23L16.44 10.26C16.0301 9.48 15.32 9.04 14.5601 9.08C13.8 9.12 13.1501 9.63 12.8201 10.46L11.44 13.92L11.24 13.4C10.75 12.13 9.35 11.17 7.97 11.17L2 11.2V7.81C2 4.17 4.17001 2 7.81 2H16.19C19.83 2 22.0001 4.17 22.0001 7.81Z" fill="white"/>
<path d="M22.0001 16.1887V13.9987H17.9201C17.25 13.9987 16.46 13.5187 16.1501 12.9287L15.11 10.9587C14.8301 10.4287 14.43 10.4587 14.21 11.0087L11.91 16.8187C11.66 17.4686 11.24 17.4686 10.98 16.8187L9.84001 13.9387C9.57001 13.2386 8.73001 12.6686 7.98001 12.6686L2 12.6986V16.1887C2 19.7687 4.1 21.9287 7.63 21.9887C7.74001 21.9986 7.86001 21.9986 7.97 21.9986H15.9701C16.1201 21.9986 16.2701 21.9986 16.41 21.9887C19.92 21.9086 22.0001 19.7587 22.0001 16.1887Z" fill="white"/>
<path d="M2.0007 12.6992V16.0093C1.9807 15.6893 1.9707 15.3493 1.9707 14.9993V12.6992H2.0007Z" fill="white"/>
</svg>
