<svg width="24" height="24" viewBox="0 0 24 24" fill="none" xmlns="http://www.w3.org/2000/svg">
<path d="M20.6804 13.9085V13.8984C19.8004 12.9684 18.5704 12.3984 17.2004 12.3984C14.5504 12.3984 12.4004 14.5485 12.4004 17.1984C12.4004 18.4284 12.8704 19.5485 13.6304 20.3985C14.5104 21.3785 15.7804 21.9984 17.2004 21.9984C19.8504 21.9984 22.0004 19.8485 22.0004 17.1984C22.0004 15.9285 21.5004 14.7684 20.6804 13.9085ZM18.9904 18.0084H17.9504V19.0985C17.9504 19.5084 17.6104 19.8485 17.2004 19.8485C16.7904 19.8485 16.4504 19.5084 16.4504 19.0985V18.0084H15.4104C14.9904 18.0084 14.6604 17.6784 14.6604 17.2584C14.6604 16.8485 14.9804 16.5185 15.4004 16.5084H16.4504V15.5085C16.4504 15.4884 16.4504 15.4685 16.4604 15.4485C16.4804 15.0684 16.8104 14.7585 17.2004 14.7585C17.6004 14.7585 17.9304 15.0785 17.9504 15.4785V16.5084H18.9904C19.4104 16.5084 19.7404 16.8485 19.7404 17.2584C19.7404 17.6784 19.4104 18.0084 18.9904 18.0084Z" fill="white"/>
<path d="M22.0001 8.73061C22.0001 9.92061 21.81 11.0206 21.48 12.0406C21.42 12.2506 21.17 12.3106 20.99 12.1806C19.9001 11.3706 18.57 10.9406 17.2001 10.9406C13.73 10.9406 10.9 13.7706 10.9 17.2406C10.9 18.3206 11.18 19.3806 11.71 20.3206C11.87 20.6006 11.68 20.9606 11.38 20.8506C8.97001 20.0306 4.1 17.0406 2.52001 12.0406C2.19001 11.0206 2 9.92061 2 8.73061C2 5.64061 4.49 3.14063 7.56001 3.14063C9.37 3.14063 10.99 4.02061 12 5.37061C13.01 4.02061 14.63 3.14063 16.44 3.14063C19.5101 3.14061 22.0001 5.64061 22.0001 8.73061Z" fill="white"/>
</svg>
