<svg width="24" height="24" viewBox="0 0 24 24" fill="none" xmlns="http://www.w3.org/2000/svg">
<path d="M16.44 3.09766C14.63 3.09766 13.01 3.97765 12 5.32765C10.99 3.97765 9.37 3.09766 7.56001 3.09766C4.49 3.09766 2 5.59765 2 8.68765C2 9.87766 2.19001 10.9776 2.52001 11.9976C4.1 16.9977 8.97001 19.9876 11.38 20.8077C11.72 20.9277 12.2801 20.9277 12.62 20.8077C15.03 19.9876 19.9 16.9977 21.48 11.9976C21.81 10.9776 22.0001 9.87766 22.0001 8.68765C22.0001 5.59765 19.5101 3.09766 16.44 3.09766ZM14.84 11.3776L11.3 14.9176C11.16 15.0577 10.9 15.1876 10.71 15.2176L9.36001 15.3976C8.87 15.4677 8.53 15.1276 8.6 14.6377L8.79001 13.2877C8.82001 13.0977 8.95 12.8277 9.09001 12.6976L12.63 9.15766C13.2401 8.54766 13.95 8.25766 14.85 9.15766C15.74 10.0576 15.45 10.7676 14.84 11.3776Z" fill="white"/>
</svg>
