<svg width="24" height="24" viewBox="0 0 24 24" fill="none" xmlns="http://www.w3.org/2000/svg">
<path d="M17.2004 12.3984C14.5504 12.3984 12.4004 14.5485 12.4004 17.1984C12.4004 18.0984 12.6504 18.9485 13.1004 19.6685C13.9304 21.0585 15.4504 21.9984 17.2004 21.9984C18.9504 21.9984 20.4804 21.0585 21.3004 19.6685C21.7404 18.9485 22.0004 18.0984 22.0004 17.1984C22.0004 14.5485 19.8504 12.3984 17.2004 12.3984ZM19.5804 16.5684L17.0204 18.9285C16.8804 19.0584 16.6904 19.1285 16.5104 19.1285C16.3204 19.1285 16.1304 19.0584 15.9804 18.9084L14.8004 17.7285C14.5104 17.4384 14.5104 16.9584 14.8004 16.6685C15.0904 16.3785 15.5704 16.3785 15.8604 16.6685L16.5304 17.3385L18.5604 15.4584C18.8604 15.1785 19.3404 15.1985 19.6204 15.4985C19.9004 15.8085 19.8804 16.2885 19.5804 16.5684Z" fill="white"/>
<path d="M22.0001 8.73061C22.0001 9.92061 21.81 11.0206 21.48 12.0406C21.42 12.2506 21.17 12.3106 20.99 12.1806C19.9001 11.3706 18.57 10.9406 17.2001 10.9406C13.73 10.9406 10.9 13.7706 10.9 17.2406C10.9 18.3206 11.18 19.3806 11.71 20.3206C11.87 20.6006 11.68 20.9606 11.38 20.8506C8.97001 20.0306 4.1 17.0406 2.52001 12.0406C2.19001 11.0206 2 9.92061 2 8.73061C2 5.64061 4.49 3.14063 7.56001 3.14063C9.37 3.14063 10.99 4.02061 12 5.37061C13.01 4.02061 14.63 3.14063 16.44 3.14063C19.5101 3.14061 22.0001 5.64061 22.0001 8.73061Z" fill="white"/>
</svg>
