<svg width="24" height="24" viewBox="0 0 24 24" fill="none" xmlns="http://www.w3.org/2000/svg">
<path d="M11.584 20.2994L11.5775 20.2961L11.5553 20.2844C11.5365 20.2745 11.5096 20.2602 11.4752 20.2416C11.4065 20.2045 11.3078 20.1504 11.1833 20.08C10.9344 19.9391 10.5819 19.7326 10.1603 19.4663C9.31906 18.9348 8.19316 18.1592 7.06286 17.1852C4.85375 15.2814 2.40039 12.4243 2.40039 9.00156C2.40039 6.01923 4.81805 3.60156 7.80039 3.60156C9.49767 3.60156 11.0109 4.38442 12.0004 5.60746C12.9899 4.38442 14.5031 3.60156 16.2004 3.60156C19.1828 3.60156 21.6004 6.01923 21.6004 9.00156C21.6004 12.4243 19.147 15.2814 16.9379 17.1852C15.8076 18.1592 14.6817 18.9348 13.8405 19.4663C13.4189 19.7326 13.0665 19.9391 12.8175 20.08C12.693 20.1504 12.5943 20.2045 12.5255 20.2416C12.4912 20.2602 12.4643 20.2745 12.4455 20.2844L12.4233 20.2961L12.4168 20.2994L12.4148 20.3005C12.1564 20.4376 11.8444 20.4376 11.5867 20.3009L11.584 20.2994Z" fill="#0F172A"/>
</svg>
