<svg width="24" height="24" viewBox="0 0 24 24" fill="none" xmlns="http://www.w3.org/2000/svg">
<path d="M22.0008 8.69105C22.0008 9.88105 21.8109 10.9811 21.4809 12.0011C19.9008 17.001 15.0309 19.991 12.6209 20.811C12.2808 20.931 11.7209 20.931 11.3809 20.811C10.7409 20.591 9.93085 20.2211 9.06085 19.701C8.50085 19.371 8.41085 18.591 8.87085 18.131L20.1509 6.85105C20.6909 6.31105 21.6408 6.54106 21.8309 7.28105C21.9408 7.73105 22.0008 8.20105 22.0008 8.69105Z" fill="white"/>
<path d="M22.5295 1.4675C22.2394 1.1775 21.7594 1.1775 21.4694 1.4675L19.1294 3.8075C18.3394 3.3575 17.4194 3.0975 16.4395 3.0975C14.6294 3.0975 13.0094 3.9775 11.9995 5.3275C10.9894 3.9775 9.36945 3.0975 7.55946 3.0975C4.48945 3.0975 1.99945 5.5975 1.99945 8.6875C1.99945 9.8775 2.18946 10.9775 2.51946 11.9975C3.16945 14.0676 4.38945 15.7975 5.76945 17.1676L1.46946 21.4675C1.17945 21.7576 1.17945 22.2376 1.46946 22.5276C1.61946 22.6776 1.80945 22.7476 1.99945 22.7476C2.18946 22.7476 2.37945 22.6776 2.52945 22.5276L22.5295 2.5275C22.8194 2.23751 22.8194 1.75751 22.5295 1.4675Z" fill="white"/>
</svg>
