<svg width="24" height="24" viewBox="0 0 24 24" fill="none" xmlns="http://www.w3.org/2000/svg">
<path opacity="0.13" d="M10.8698 14L12.7998 17.33L10.8799 20.66H6.99986L5.08984 17.3499L7.02986 14H10.8698Z" fill="white"/>
<path d="M10.5396 14.082H7.11959C6.93959 14.082 6.7796 14.182 6.6896 14.332L4.97961 17.292C4.88961 17.442 4.88961 17.642 4.97961 17.792L6.6896 20.752C6.7796 20.902 6.93959 21.002 7.11959 21.002H10.5396C10.7196 21.002 10.8796 20.902 10.9696 20.752L12.6796 17.792C12.7696 17.642 12.7696 17.442 12.6796 17.292L10.9696 14.332C10.8796 14.172 10.7196 14.082 10.5396 14.082Z" fill="white"/>
<path d="M22.2401 11.7422C22.3301 11.9022 22.3301 12.1021 22.2401 12.2622L17.3102 20.7922C17.2403 20.9221 17.1002 21.0022 16.9502 21.0022C16.6302 21.0022 16.4303 20.6521 16.5902 20.3821L19.8803 14.6821C19.9703 14.5222 19.9703 14.3221 19.8803 14.1622L15.4802 6.5422C15.3902 6.3822 15.2202 6.28219 15.0302 6.28219H6.22016C6.03016 6.28219 5.87014 6.3822 5.77014 6.5422L2.50016 12.2221C2.33016 12.5221 1.90016 12.5221 1.72016 12.2221C1.64016 12.0822 1.64016 11.9122 1.72016 11.7722L6.64017 3.25219C6.72016 3.0922 6.90015 2.99219 7.09015 2.99219H16.8803C17.0702 2.99219 17.2301 3.0922 17.3301 3.25219L22.2401 11.7422Z" fill="white"/>
<path d="M18.091 14.6815L14.5909 20.7415C14.5009 20.9016 14.331 21.0016 14.1409 21.0016H13.5409C13.141 21.0016 12.891 20.5716 13.0909 20.2216L14.491 17.8015C14.581 17.6416 14.581 17.4415 14.491 17.2816L11.891 12.7816C11.791 12.6216 11.611 12.5215 11.421 12.5215H6.22101C6.031 12.5215 5.87098 12.6216 5.77098 12.7816L4.37099 15.2016C4.17099 15.5515 3.67101 15.5515 3.471 15.2016L3.17102 14.6916C3.08102 14.5315 3.08102 14.3316 3.17102 14.1715L6.661 8.11157C6.751 7.95156 6.92098 7.85156 7.11099 7.85156H14.101C14.2909 7.85156 14.451 7.95156 14.551 8.11157L18.051 14.1715C18.171 14.3215 18.171 14.5315 18.091 14.6815Z" fill="white"/>
</svg>
