<svg width="24" height="24" viewBox="0 0 24 24" fill="none" xmlns="http://www.w3.org/2000/svg">
<path d="M16.19 2H7.81C4.17001 2 2 4.17 2 7.81V16.18C2 19.83 4.17001 22 7.81 22H16.1801C19.82 22 21.99 19.83 21.99 16.19V7.81C22.0001 4.17 19.83 2 16.19 2ZM16.2 18.25C15.0701 18.25 14.15 17.33 14.15 16.2C14.15 15.54 14.4701 14.96 14.96 14.58C14.54 13.48 13.49 12.72 12.3101 12.76L10.25 12.77H10.24C9.63001 12.77 9.05 12.59 8.56 12.28V14.3C9.32 14.6 9.86 15.34 9.86 16.2C9.86 17.33 8.94001 18.25 7.81 18.25C6.68 18.25 5.76001 17.33 5.76001 16.2C5.76001 15.33 6.30001 14.6 7.06 14.3V9.95C6.30001 9.6 5.76001 8.84 5.76001 7.95C5.76001 6.74 6.75001 5.75 7.96 5.75C9.17 5.75 10.16 6.74 10.16 7.95C10.16 8.93 9.51001 9.75 8.62 10.04C8.82001 10.77 9.48001 11.28 10.24 11.28C10.24 11.28 10.24 11.28 10.25 11.28L12.3101 11.27C12.32 11.27 12.32 11.27 12.33 11.27C14.1701 11.27 15.8201 12.44 16.4201 14.18C17.45 14.29 18.26 15.15 18.26 16.21C18.2501 17.33 17.33 18.25 16.2 18.25Z" fill="white"/>
</svg>
