<svg width="24" height="24" viewBox="0 0 24 24" fill="none" xmlns="http://www.w3.org/2000/svg">
<path d="M16.19 2H7.81C4.17001 2 2 4.17 2 7.81V16.18C2 19.83 4.17001 22 7.81 22H16.1801C19.82 22 21.99 19.83 21.99 16.19V7.81C22.0001 4.17 19.83 2 16.19 2ZM9.85 16.45C9.85 17.58 8.93 18.5 7.80001 18.5C6.67 18.5 5.75 17.58 5.75 16.45C5.75 15.58 6.29 14.85 7.05001 14.55V10.26C6.21001 9.95 5.6 9.15 5.6 8.2C5.6 6.99 6.59 6 7.80001 6C9.01 6 10 6.99 10 8.2C10 9.15 9.39001 9.95 8.55001 10.26V14.55C9.31 14.85 9.85 15.59 9.85 16.45ZM16.7501 18.5C15.62 18.5 14.7 17.58 14.7 16.45C14.7 15.58 15.24 14.85 16.0001 14.55V8.75C16.0001 8.61 15.89 8.5 15.75 8.5H14.6201L14.8301 8.67C15.15 8.94 15.1901 9.41 14.93 9.72999C14.78 9.90999 14.5601 10 14.3501 10C14.18 10 14.01 9.94001 13.8701 9.83L12.0701 8.33C11.9 8.18 11.8 7.97 11.8 7.75C11.8 7.53 11.9 7.32 12.0701 7.17L13.8701 5.67C14.19 5.41 14.66 5.45 14.93 5.77C15.2 6.09 15.15 6.56 14.8301 6.83L14.6201 7H15.75C16.71 7 17.5001 7.79 17.5001 8.75V14.55C18.26 14.85 18.8 15.59 18.8 16.45C18.8 17.58 17.88 18.5 16.7501 18.5Z" fill="white"/>
</svg>
