<svg width="24" height="24" viewBox="0 0 24 24" fill="none" xmlns="http://www.w3.org/2000/svg">
<path d="M20.0402 6.81774L14.2802 2.78774C12.7102 1.68774 10.3002 1.74774 8.79024 2.91774L3.78024 6.82775C2.78024 7.60775 1.99023 9.20774 1.99023 10.4678V17.3677C1.99023 19.9177 4.06023 21.9978 6.61023 21.9978H17.3902C19.9402 21.9978 22.0102 19.9278 22.0102 17.3778V10.5978C22.0102 9.24774 21.1402 7.58774 20.0402 6.81774ZM16.8802 16.1878C16.8802 16.2778 16.8602 16.3678 16.8302 16.4578C16.7602 16.6278 16.6202 16.7677 16.4502 16.8378C16.3602 16.8778 16.2702 16.8877 16.1802 16.8877H14.3202C13.9302 16.8877 13.6202 16.5778 13.6202 16.1878C13.6202 15.7978 13.9302 15.4878 14.3202 15.4878H14.5002L12.3902 13.3777L11.3702 14.8978C11.2502 15.0678 11.0702 15.1878 10.8602 15.2077C10.6402 15.2278 10.4502 15.1578 10.3002 15.0078L7.32024 12.0277C7.05024 11.7578 7.05024 11.3178 7.32024 11.0378C7.59024 10.7577 8.03024 10.7678 8.31025 11.0378L10.6902 13.4178L11.7102 11.8977C11.8302 11.7278 12.0102 11.6078 12.2202 11.5878C12.4402 11.5677 12.6302 11.6378 12.7802 11.7878L15.5002 14.5078V14.3278C15.5002 13.9378 15.8102 13.6278 16.2002 13.6278C16.5902 13.6278 16.9002 13.9378 16.9002 14.3278V16.1878H16.8802Z" fill="white"/>
</svg>
