<svg width="24" height="24" viewBox="0 0 24 24" fill="none" xmlns="http://www.w3.org/2000/svg">
<path d="M20.0402 6.81774L14.2802 2.78774C12.7102 1.68774 10.3002 1.74774 8.79024 2.91774L3.78024 6.82775C2.78024 7.60775 1.99023 9.20774 1.99023 10.4678V17.3677C1.99023 19.9177 4.06023 21.9978 6.61023 21.9978H17.3902C19.9402 21.9978 22.0102 19.9278 22.0102 17.3778V10.5978C22.0102 9.24774 21.1402 7.58774 20.0402 6.81774ZM16.8802 13.3978C16.8802 13.7878 16.5702 14.0977 16.1802 14.0977C15.7902 14.0977 15.4802 13.7878 15.4802 13.3978V13.2178L12.7602 15.9378C12.6102 16.0878 12.4102 16.1578 12.2002 16.1377C12.0002 16.1178 11.8102 15.9978 11.7002 15.8278L10.6802 14.3077L8.30024 16.6878C8.16024 16.8277 7.99024 16.8877 7.81024 16.8877C7.63024 16.8877 7.45024 16.8178 7.32024 16.6878C7.05024 16.4178 7.05024 15.9778 7.32024 15.6978L10.3002 12.7177C10.4502 12.5677 10.6502 12.4978 10.8602 12.5178C11.0702 12.5377 11.2602 12.6478 11.3702 12.8278L12.3902 14.3478L14.5002 12.2377H14.3202C13.9302 12.2377 13.6202 11.9277 13.6202 11.5377C13.6202 11.1477 13.9302 10.8378 14.3202 10.8378H16.1802C16.2702 10.8378 16.3602 10.8578 16.4502 10.8878C16.6202 10.9578 16.7602 11.0978 16.8302 11.2677C16.8702 11.3577 16.8802 11.4477 16.8802 11.5377V13.3978Z" fill="white"/>
</svg>
