<svg width="24" height="24" viewBox="0 0 24 24" fill="none" xmlns="http://www.w3.org/2000/svg">
<path fill-rule="evenodd" clip-rule="evenodd" d="M11.1519 2.74991C11.6205 2.28128 12.3803 2.28128 12.8489 2.74991L21.2489 11.1499C21.5921 11.4931 21.6948 12.0092 21.5091 12.4577C21.3233 12.9061 20.8858 13.1984 20.4004 13.1984H19.2004V20.3984C19.2004 21.0612 18.6632 21.5984 18.0004 21.5984H15.6004C14.9376 21.5984 14.4004 21.0612 14.4004 20.3984V16.7984C14.4004 16.1357 13.8632 15.5984 13.2004 15.5984H10.8004C10.1377 15.5984 9.60043 16.1357 9.60043 16.7984V20.3984C9.60043 21.0612 9.06316 21.5984 8.40043 21.5984H6.00043C5.33768 21.5984 4.80043 21.0612 4.80043 20.3984V13.1984H3.60043C3.11508 13.1984 2.67751 12.9061 2.49177 12.4577C2.30604 12.0092 2.4087 11.4931 2.7519 11.1499L11.1519 2.74991Z" fill="#0F172A"/>
</svg>
