<svg width="24" height="24" viewBox="0 0 24 24" fill="none" xmlns="http://www.w3.org/2000/svg">
<path d="M17.8979 2.88341C18.1273 3.3244 17.9557 3.8678 17.5147 4.09711L16.7992 4.46912V20.3986C16.7992 21.0614 16.262 21.5986 15.5992 21.5986H12.8872C12.3902 21.5986 11.9872 21.1957 11.9872 20.6986V16.4986C11.9872 16.0016 11.5843 15.5986 11.0872 15.5986H8.09922C7.60217 15.5986 7.19922 16.0016 7.19922 16.4986V20.6986C7.19922 21.1957 6.79627 21.5986 6.29922 21.5986H2.09922C1.60217 21.5986 1.19922 21.1957 1.19922 20.6986C1.19922 20.2016 1.60217 19.7986 2.09922 19.7986H2.39922V11.9473C1.98277 12.095 1.51057 11.917 1.30091 11.5138C1.07159 11.0728 1.24319 10.5294 1.68419 10.3001L2.39922 9.92831V6.89862C2.39922 6.40157 2.80217 5.99862 3.29922 5.99862C3.79627 5.99862 4.19922 6.40157 4.19922 6.89862V8.99231L16.6841 2.50013C17.1251 2.27081 17.6686 2.44241 17.8979 2.88341Z" fill="#0F172A"/>
<path d="M19.0334 10.283C19.3021 10.1198 19.6367 10.1088 19.9157 10.2538L22.3148 11.5014C22.7558 11.7308 22.9274 12.2741 22.6981 12.7151C22.4884 13.1183 22.0164 13.2963 21.6 13.1487V19.7999H21.8996C22.3966 19.7999 22.7996 20.2029 22.7996 20.6999C22.7996 21.197 22.3966 21.5999 21.8996 21.5999H19.4996C19.2609 21.5999 19.032 21.5051 18.8631 21.3363C18.6944 21.1675 18.5996 20.9386 18.5996 20.6998L18.6003 11.0523C18.6004 10.7378 18.7646 10.4462 19.0334 10.283Z" fill="#0F172A"/>
</svg>
