<svg width="24" height="24" viewBox="0 0 24 24" fill="none" xmlns="http://www.w3.org/2000/svg">
<path d="M20.8593 8.36986L13.9293 2.82985C12.8594 1.96985 11.1293 1.96985 10.0693 2.81986L3.13929 8.36986C2.35929 8.98985 1.85929 10.2998 2.02929 11.2798L3.35929 19.2398C3.59929 20.6599 4.95929 21.8098 6.39929 21.8098H17.5994C19.0293 21.8098 20.3993 20.6498 20.6393 19.2398L21.9693 11.2798C22.1294 10.2998 21.6293 8.98985 20.8593 8.36986ZM12.7094 17.1999C12.5093 17.3999 12.2594 17.4998 11.9993 17.4998C11.7393 17.4998 11.4893 17.3998 11.2893 17.2099C10.8993 16.8199 10.8993 16.1897 11.2893 15.7997C11.6793 15.4097 12.3194 15.4097 12.7094 15.7997C13.0994 16.1798 13.0994 16.8099 12.7094 17.1999ZM14.6594 14.8999C14.5094 15.0499 14.3193 15.1298 14.1194 15.1298C13.9293 15.1298 13.7493 15.0598 13.5993 14.9198C12.6293 13.9898 11.3693 13.9898 10.3893 14.9198C10.0893 15.2098 9.61929 15.1999 9.32929 14.8999C9.03929 14.5999 9.0493 14.1298 9.3493 13.8398C10.8993 12.3497 13.0694 12.3497 14.6294 13.8398C14.9393 14.1197 14.9493 14.5999 14.6594 14.8999ZM16.7793 12.7798C16.6293 12.9298 16.4393 13.0097 16.2393 13.0097C16.0493 13.0097 15.8594 12.9398 15.7193 12.7997C15.2493 12.3398 14.7194 11.9698 14.1593 11.6998C12.7593 11.0298 11.2293 11.0298 9.83929 11.6998C9.27929 11.9698 8.75928 12.3398 8.27928 12.7997C7.98928 13.0898 7.50928 13.0898 7.21929 12.7898C6.92928 12.4898 6.93929 12.0199 7.22929 11.7298C7.81929 11.1498 8.47929 10.6898 9.18928 10.3498C10.9993 9.47986 12.9993 9.47986 14.7993 10.3498C15.5093 10.6898 16.1693 11.1498 16.7594 11.7298C17.0594 12.0098 17.0693 12.4898 16.7793 12.7798Z" fill="white"/>
</svg>
