<svg width="24" height="24" viewBox="0 0 24 24" fill="none" xmlns="http://www.w3.org/2000/svg">
<path d="M12.7012 16.8798H13.4011C14.5512 16.8798 15.4912 15.9399 15.4912 14.7898V14.0898H12.7012V16.8798Z" fill="white"/>
<path d="M8.50977 14.7898C8.50977 15.9399 9.44976 16.8798 10.5998 16.8798H11.2998V14.0898H8.50977V14.7898Z" fill="white"/>
<path d="M8.50977 12.0002V12.7001H11.2998V9.91016H10.5998C9.44976 9.91016 8.50977 10.8502 8.50977 12.0002Z" fill="white"/>
<path d="M20.03 6.81774L14.28 2.78774C12.71 1.68774 10.31 1.74774 8.8 2.91774L3.79 6.82775C2.78 7.60775 2 9.20774 2 10.4678V17.3677C2 19.9177 4.07 21.9978 6.61 21.9978H17.3801C19.92 21.9978 21.99 19.9278 21.99 17.3778V10.5978C22.0001 9.24774 21.1301 7.58774 20.03 6.81774ZM16.88 14.7877C16.88 16.7077 15.3101 18.2778 13.3901 18.2778H10.6C8.68 18.2778 7.11001 16.7178 7.11001 14.7877V11.9978C7.11001 10.0778 8.68 8.50775 10.6 8.50775H13.3901C15.3101 8.50775 16.88 10.0677 16.88 11.9978V14.7877Z" fill="white"/>
<path d="M13.4011 9.91016H12.7012V12.7001H15.4912V12.0002C15.4912 10.8502 14.5512 9.91016 13.4011 9.91016Z" fill="white"/>
</svg>
