<svg width="24" height="24" viewBox="0 0 24 24" fill="none" xmlns="http://www.w3.org/2000/svg">
<path d="M22.0001 21.2488H21V9.97874C21 9.35875 20.72 8.77874 20.2301 8.39875L19.0001 7.43875L18.98 4.98874C18.98 4.43875 18.53 3.99874 17.9801 3.99874H14.57L13.23 2.95875C12.51 2.38875 11.49 2.38875 10.77 2.95875L3.77 8.39875C3.28 8.77874 3.00001 9.35875 3.00001 9.96874L2.95 21.2488H2C1.59001 21.2488 1.25 21.5887 1.25 21.9988C1.25 22.4088 1.59001 22.7488 2 22.7488H22.0001C22.41 22.7488 22.7501 22.4088 22.7501 21.9988C22.7501 21.5887 22.41 21.2488 22.0001 21.2488ZM6.5 12.7488V11.2487C6.5 10.6987 6.95 10.2487 7.50001 10.2487H9.5C10.05 10.2487 10.5 10.6987 10.5 11.2487V12.7488C10.5 13.2988 10.05 13.7488 9.5 13.7488H7.50001C6.95 13.7488 6.5 13.2988 6.5 12.7488ZM14.5001 21.2488H9.5V18.4987C9.5 17.6688 10.17 16.9987 11 16.9987H13.0001C13.83 16.9987 14.5001 17.6688 14.5001 18.4987V21.2488ZM17.5001 12.7488C17.5001 13.2988 17.0501 13.7488 16.5 13.7488H14.5001C13.95 13.7488 13.5 13.2988 13.5 12.7488V11.2487C13.5 10.6987 13.95 10.2487 14.5001 10.2487H16.5C17.0501 10.2487 17.5001 10.6987 17.5001 11.2487V12.7488Z" fill="white"/>
</svg>
