<svg width="24" height="24" viewBox="0 0 24 24" fill="none" xmlns="http://www.w3.org/2000/svg">
<path d="M12 2C6.48001 2 2 6.48 2 12C2 17.52 6.48001 22 12 22C17.52 22 22.0001 17.52 22.0001 12C22.0001 6.48 17.52 2 12 2ZM12 7.12C13.31 7.12 14.3801 8.19 14.3801 9.5C14.3801 10.81 13.31 11.88 12 11.88C10.69 11.88 9.62 10.81 9.62 9.5C9.62 8.19 10.69 7.12 12 7.12ZM14.4701 17.09C14.33 17.2 14.1701 17.25 14.01 17.25C13.79 17.25 13.5701 17.15 13.4201 16.97L12.0101 15.19L10.6 16.97C10.35 17.29 9.87 17.35 9.54999 17.09C9.22999 16.83 9.16999 16.36 9.42999 16.04L10.62 14.53C10.3 14.44 9.97999 14.33 9.67999 14.18C9.30999 13.99 9.15998 13.54 9.34999 13.17C9.52999 12.8 9.97999 12.65 10.36 12.84C11.4 13.36 12.6401 13.36 13.68 12.84C14.04 12.66 14.5001 12.8 14.6801 13.16C14.87 13.52 14.7401 13.97 14.3801 14.16C14.07 14.32 13.74 14.43 13.41 14.52L14.61 16.03C14.84 16.36 14.79 16.83 14.4701 17.09Z" fill="white"/>
</svg>
