<svg width="24" height="24" viewBox="0 0 24 24" fill="none" xmlns="http://www.w3.org/2000/svg">
<path fill-rule="evenodd" clip-rule="evenodd" d="M1.19922 7.20156C1.19922 5.21334 2.811 3.60156 4.79922 3.60156H19.1992C21.1875 3.60156 22.7992 5.21334 22.7992 7.20156V16.8016C22.7992 18.7898 21.1875 20.4016 19.1992 20.4016H4.79922C2.811 20.4016 1.19922 18.7898 1.19922 16.8016V7.20156ZM5.99922 9.00156C5.99922 7.67608 7.07373 6.60156 8.39922 6.60156C9.7247 6.60156 10.7992 7.67608 10.7992 9.00156C10.7992 10.327 9.7247 11.4016 8.39922 11.4016C7.07373 11.4016 5.99922 10.327 5.99922 9.00156ZM8.39906 12.6016C6.43154 12.6016 4.74248 13.7852 4.00134 15.4756C3.90273 15.7004 3.9003 15.9558 3.99457 16.1826C4.08884 16.4093 4.27165 16.5876 4.50062 16.6763C5.71107 17.145 7.02617 17.4016 8.39906 17.4016C9.77196 17.4016 11.0871 17.145 12.2975 16.6763C12.5265 16.5876 12.7093 16.4093 12.8036 16.1826C12.8978 15.9558 12.8954 15.7004 12.7969 15.4756C12.0556 13.7852 10.3666 12.6016 8.39906 12.6016ZM14.3992 8.10156C14.3992 7.60451 14.8022 7.20156 15.2992 7.20156H18.2992C18.7963 7.20156 19.1992 7.60451 19.1992 8.10156C19.1992 8.59861 18.7963 9.00156 18.2992 9.00156H15.2992C14.8022 9.00156 14.3992 8.59861 14.3992 8.10156ZM14.3992 15.9016C14.3992 15.4045 14.8022 15.0016 15.2992 15.0016H18.2992C18.7963 15.0016 19.1992 15.4045 19.1992 15.9016C19.1992 16.3986 18.7963 16.8016 18.2992 16.8016H15.2992C14.8022 16.8016 14.3992 16.3986 14.3992 15.9016ZM15.2992 11.1016C14.8022 11.1016 14.3992 11.5045 14.3992 12.0016C14.3992 12.4986 14.8022 12.9016 15.2992 12.9016H18.2992C18.7963 12.9016 19.1992 12.4986 19.1992 12.0016C19.1992 11.5045 18.7963 11.1016 18.2992 11.1016H15.2992Z" fill="#0F172A"/>
</svg>
