<svg width="24" height="24" viewBox="0 0 24 24" fill="none" xmlns="http://www.w3.org/2000/svg">
<path d="M16.19 2H7.81C4.17001 2 2 4.17 2 7.81V16.18C2 19.82 4.17001 21.99 7.81 21.99H16.1801C19.82 21.99 21.99 19.82 21.99 16.18V7.81C22.0001 4.17 19.83 2 16.19 2ZM13.0601 16.68C12.98 16.71 12.9 16.72 12.8201 16.72C12.51 16.72 12.21 16.52 12.11 16.21L11.4 14.08H8.32L7.34 16.28C7.17001 16.66 6.73 16.83 6.35 16.66C5.97001 16.49 5.8 16.05 5.97001 15.67L9.5 7.73998C9.63001 7.45999 9.90001 7.26999 10.22 7.29999C10.53 7.30999 10.8 7.52 10.9 7.81L13.5401 15.74C13.6601 16.12 13.4501 16.55 13.0601 16.68ZM17.1 15.97C17.1 16.38 16.76 16.72 16.35 16.72C15.9401 16.72 15.6 16.38 15.6 15.97V10.68C15.6 10.27 15.9401 9.92998 16.35 9.92998C16.76 9.92998 17.1 10.27 17.1 10.68V15.97ZM17.27 8.42001C17.22 8.54001 17.15 8.64999 17.0501 8.73999C16.9601 8.82999 16.85 8.90998 16.73 8.95999C16.61 9.00999 16.4801 9.03 16.35 9.03C16.08 9.03 15.83 8.92999 15.6401 8.73999C15.5501 8.64999 15.47 8.54001 15.42 8.42001C15.3701 8.29 15.35 8.17 15.35 8.03C15.35 7.9 15.3701 7.76998 15.42 7.64998C15.48 7.52998 15.5501 7.41999 15.6401 7.32999C15.7301 7.22998 15.84 7.15999 15.96 7.10998C16.3301 6.95998 16.7801 7.04998 17.0501 7.32999C17.15 7.41999 17.22 7.52998 17.27 7.64998C17.3201 7.76998 17.3501 7.9 17.3501 8.03C17.3501 8.17 17.3201 8.30001 17.27 8.42001Z" fill="white"/>
<path d="M8.98047 12.5694H10.9005L10.0805 10.1094L8.98047 12.5694Z" fill="white"/>
</svg>
