<svg width="24" height="24" viewBox="0 0 24 24" fill="none" xmlns="http://www.w3.org/2000/svg">
<path d="M22.0205 16.8242L18.8906 9.50417C18.3206 8.16417 17.4706 7.40417 16.5005 7.35417C15.5405 7.30418 14.6105 7.97417 13.9006 9.25418L12.0006 12.6642C11.6006 13.3842 11.0306 13.8142 10.4106 13.8642C9.78062 13.9242 9.15062 13.5942 8.64062 12.9442L8.42063 12.6642C7.71062 11.7742 6.83063 11.3442 5.93063 11.4342C5.03063 11.5242 4.26062 12.1442 3.75062 13.1542L2.02062 16.6042C1.40063 17.8542 1.46063 19.3042 2.19062 20.4842C2.92062 21.6642 4.19063 22.3742 5.58062 22.3742H18.3406C19.6805 22.3742 20.9306 21.7042 21.6706 20.5842C22.4306 19.4642 22.5506 18.0542 22.0205 16.8242Z" fill="white"/>
<path d="M6.96985 8.37718C8.83658 8.37718 10.3498 6.8639 10.3498 4.99718C10.3498 3.13046 8.83658 1.61719 6.96985 1.61719C5.10313 1.61719 3.58984 3.13046 3.58984 4.99718C3.58984 6.8639 5.10313 8.37718 6.96985 8.37718Z" fill="white"/>
</svg>
