<svg width="24" height="24" viewBox="0 0 24 24" fill="none" xmlns="http://www.w3.org/2000/svg">
<path d="M12 2C6.48001 2 2 6.48 2 12C2 17.52 6.48001 22 12 22C17.52 22 22.0001 17.52 22.0001 12C22.0001 6.48 17.52 2 12 2ZM17.5301 7.53L9.81001 15.25H12.83C13.2401 15.25 13.58 15.59 13.58 16C13.58 16.41 13.2401 16.75 12.83 16.75H8C7.59001 16.75 7.25 16.41 7.25 16V11.17C7.25 10.76 7.59001 10.42 8 10.42C8.41 10.42 8.75 10.76 8.75 11.17V14.19L16.47 6.47C16.62 6.32 16.8101 6.25 17 6.25C17.19 6.25 17.3801 6.32 17.5301 6.47C17.82 6.76 17.82 7.24 17.5301 7.53Z" fill="white"/>
</svg>
