<svg width="24" height="24" viewBox="0 0 24 24" fill="none" xmlns="http://www.w3.org/2000/svg">
<path d="M11.9992 2.39844C12.4963 2.39844 12.8992 2.80139 12.8992 3.29844V10.0066L15.2397 7.48603C15.578 7.12179 16.1474 7.1007 16.5116 7.43893C16.8759 7.77715 16.8969 8.34661 16.5587 8.71085L12.6587 12.9108C12.4885 13.0943 12.2495 13.1984 11.9992 13.1984C11.749 13.1984 11.51 13.0943 11.3397 12.9108L7.43971 8.71085C7.10148 8.34661 7.12258 7.77715 7.48681 7.43893C7.85105 7.1007 8.42051 7.12179 8.75873 7.48603L11.0992 10.0066V3.29844C11.0992 2.80139 11.5022 2.39844 11.9992 2.39844Z" fill="#0F172A"/>
<path d="M6.3268 5.40156C5.652 5.40156 5.06025 5.85216 4.88081 6.50267L3.05323 13.1276C3.04647 13.1521 3.04034 13.1768 3.03485 13.2016H7.19922C7.65374 13.2016 8.06927 13.4584 8.27254 13.8649L8.80919 14.9382C9.01246 15.3448 9.42798 15.6016 9.8825 15.6016H14.008C14.4315 15.6016 14.8237 15.3784 15.0399 15.0142L15.7673 13.789C15.9836 13.4248 16.3757 13.2016 16.7992 13.2016H20.9636C20.9581 13.1768 20.9519 13.1521 20.9452 13.1276L19.1176 6.50267C18.9382 5.85216 18.3465 5.40156 17.6716 5.40156H16.4992C16.0022 5.40156 15.5992 4.99861 15.5992 4.50156C15.5992 4.00451 16.0022 3.60156 16.4992 3.60156H17.6716C19.1563 3.60156 20.458 4.59288 20.8528 6.024L22.6804 12.649C22.7593 12.9348 22.7992 13.23 22.7992 13.5265V18.0016C22.7992 19.3271 21.7247 20.4016 20.3992 20.4016H3.59922C2.27373 20.4016 1.19922 19.3271 1.19922 18.0016V13.5265C1.19922 13.23 1.23919 12.9348 1.31804 12.649L3.14562 6.024C3.54041 4.59289 4.84223 3.60156 6.3268 3.60156H7.49922C7.99627 3.60156 8.39922 4.00451 8.39922 4.50156C8.39922 4.99861 7.99627 5.40156 7.49922 5.40156H6.3268Z" fill="#0F172A"/>
</svg>
