<svg width="24" height="24" viewBox="0 0 24 24" fill="none" xmlns="http://www.w3.org/2000/svg">
<path fill-rule="evenodd" clip-rule="evenodd" d="M1.25275 8.34294C1.30387 8.06257 1.39125 7.78917 1.51332 7.52979L3.03637 4.29331C3.58067 3.13668 4.74397 2.39844 6.02227 2.39844H17.9762C19.2544 2.39844 20.4178 3.13668 20.962 4.29331L22.4852 7.52979C22.6072 7.78917 22.6946 8.06257 22.7457 8.34294C22.7805 8.45527 22.7992 8.57467 22.7992 8.69844V10.4984C22.7992 12.321 21.3218 13.7984 19.4992 13.7984H4.49922C2.67668 13.7984 1.19922 12.321 1.19922 10.4984V8.69844C1.19922 8.57467 1.21796 8.45527 1.25275 8.34294ZM4.66505 5.05974C4.91245 4.53401 5.44123 4.19844 6.02227 4.19844H17.9762C18.5572 4.19844 19.0859 4.53401 19.3334 5.05974L20.4811 7.49844H16.7992C16.3757 7.49844 15.9836 7.72165 15.7673 8.08579L15.0399 9.31109C14.8237 9.67523 14.4315 9.89844 14.008 9.89844H9.8825C9.42798 9.89844 9.01246 9.64164 8.80919 9.23509L8.27254 8.16179C8.06927 7.75524 7.65374 7.49844 7.19922 7.49844H3.51743L4.66505 5.05974Z" fill="#0F172A"/>
<path d="M1.19922 16.8016C1.19922 16.1388 1.73648 15.6016 2.39922 15.6016H7.19922C7.65374 15.6016 8.06927 15.8584 8.27254 16.2649L8.80919 17.3382C9.01246 17.7448 9.42798 18.0016 9.8825 18.0016H14.008C14.4315 18.0016 14.8237 17.7784 15.0399 17.4142L15.7673 16.189C15.9836 15.8248 16.3757 15.6016 16.7992 15.6016H21.5992C22.262 15.6016 22.7992 16.1388 22.7992 16.8016V19.2016C22.7992 20.5271 21.7247 21.6016 20.3992 21.6016H3.59922C2.27373 21.6016 1.19922 20.5271 1.19922 19.2016V16.8016Z" fill="#0F172A"/>
</svg>
