<svg width="24" height="24" viewBox="0 0 24 24" fill="none" xmlns="http://www.w3.org/2000/svg">
<path fill-rule="evenodd" clip-rule="evenodd" d="M1.19922 13.5265C1.19922 13.23 1.23919 12.9348 1.31804 12.649L3.14562 6.024C3.54041 4.59289 4.84223 3.60156 6.3268 3.60156H17.6716C19.1563 3.60156 20.458 4.59288 20.8528 6.024L22.6804 12.649C22.7593 12.9348 22.7992 13.23 22.7992 13.5265V18.0016C22.7992 19.3271 21.7247 20.4016 20.3992 20.4016H3.59922C2.27373 20.4016 1.19922 19.3271 1.19922 18.0016V13.5265ZM4.88081 6.50267C5.06025 5.85216 5.652 5.40156 6.3268 5.40156H17.6716C18.3465 5.40156 18.9382 5.85216 19.1176 6.50267L20.9452 13.1276C20.9519 13.1521 20.9581 13.1768 20.9636 13.2016H16.7992C16.3757 13.2016 15.9836 13.4248 15.7673 13.789L15.0399 15.0142C14.8237 15.3784 14.4315 15.6016 14.008 15.6016H9.8825C9.42798 15.6016 9.01246 15.3448 8.80919 14.9382L8.27254 13.8649C8.06927 13.4584 7.65374 13.2016 7.19922 13.2016H3.03485C3.04034 13.1768 3.04647 13.1521 3.05323 13.1276L4.88081 6.50267Z" fill="#0F172A"/>
</svg>
