<svg width="24" height="24" viewBox="0 0 24 24" fill="none" xmlns="http://www.w3.org/2000/svg">
<path d="M21.5609 10.7381L20.2108 9.15812C19.9609 8.85812 19.7509 8.29812 19.7509 7.89812V6.19812C19.7509 5.13812 18.8809 4.26812 17.8209 4.26812H16.1209C15.7209 4.26812 15.1509 4.05812 14.8509 3.80813L13.2709 2.45813C12.5809 1.86812 11.4509 1.86812 10.7609 2.45813L9.16086 3.80813C8.86086 4.05812 8.30085 4.26812 7.90086 4.26812H6.17085C5.11086 4.26812 4.24086 5.13812 4.24086 6.19812V7.89812C4.24086 8.28812 4.04085 8.84813 3.79086 9.14813L2.44086 10.7381C1.86086 11.4381 1.86086 12.5581 2.44086 13.2382L3.79086 14.8282C4.04085 15.1182 4.24086 15.6882 4.24086 16.0782V17.7882C4.24086 18.8482 5.11086 19.7182 6.17085 19.7182H7.91085C8.30085 19.7182 8.87085 19.9282 9.17085 20.1781L10.7509 21.5281C11.4409 22.1182 12.5709 22.1182 13.2609 21.5281L14.8408 20.1781C15.1408 19.9282 15.7009 19.7182 16.1008 19.7182H17.8009C18.8608 19.7182 19.7309 18.8482 19.7309 17.7882V16.0882C19.7309 15.6882 19.9408 15.1282 20.1909 14.8282L21.5409 13.2481C22.1509 12.5682 22.1509 11.4381 21.5609 10.7381ZM11.2509 8.12813C11.2509 7.71812 11.5909 7.37813 12.0009 7.37813C12.4108 7.37813 12.7509 7.71812 12.7509 8.12813V12.9582C12.7509 13.3681 12.4108 13.7082 12.0009 13.7082C11.5909 13.7082 11.2509 13.3681 11.2509 12.9582V8.12813ZM12.0009 16.8682C11.4509 16.8682 11.0009 16.4182 11.0009 15.8682C11.0009 15.3181 11.4409 14.8681 12.0009 14.8681C12.5509 14.8681 13.0009 15.3181 13.0009 15.8682C13.0009 16.4182 12.5608 16.8682 12.0009 16.8682Z" fill="white"/>
</svg>
