<svg width="24" height="24" viewBox="0 0 24 24" fill="none" xmlns="http://www.w3.org/2000/svg">
<path fill-rule="evenodd" clip-rule="evenodd" d="M21.6004 11.9984C21.6004 17.3004 17.3024 21.5984 12.0004 21.5984C6.69845 21.5984 2.40039 17.3004 2.40039 11.9984C2.40039 6.6965 6.69845 2.39844 12.0004 2.39844C17.3024 2.39844 21.6004 6.6965 21.6004 11.9984ZM13.2004 7.19844C13.2004 7.86117 12.6632 8.39844 12.0004 8.39844C11.3376 8.39844 10.8004 7.86117 10.8004 7.19844C10.8004 6.5357 11.3376 5.99844 12.0004 5.99844C12.6632 5.99844 13.2004 6.5357 13.2004 7.19844ZM10.8004 10.7984C10.3033 10.7984 9.90039 11.2014 9.90039 11.6984C9.90039 12.1955 10.3033 12.5984 10.8004 12.5984H11.1044C11.2964 12.5984 11.4389 12.7762 11.3973 12.9635L10.8463 15.4429C10.5549 16.7544 11.5529 17.9984 12.8963 17.9984H13.2004C13.6974 17.9984 14.1004 17.5955 14.1004 17.0984C14.1004 16.6014 13.6974 16.1984 13.2004 16.1984H12.8963C12.7044 16.1984 12.5619 16.0207 12.6035 15.8334L13.1544 13.354C13.4459 12.0425 12.4479 10.7984 11.1044 10.7984H10.8004Z" fill="#0F172A"/>
</svg>
