<svg width="24" height="24" viewBox="0 0 24 24" fill="none" xmlns="http://www.w3.org/2000/svg">
<path d="M16.19 2H7.81C4.17001 2 2 4.17 2 7.81V16.18C2 19.83 4.17001 22 7.81 22H16.1801C19.82 22 21.99 19.83 21.99 16.19V7.81C22.0001 4.17 19.83 2 16.19 2ZM12 15.88C9.86 15.88 8.12 14.14 8.12 12C8.12 9.86 9.86 8.12 12 8.12C14.1401 8.12 15.8801 9.86 15.8801 12C15.8801 14.14 14.1401 15.88 12 15.88ZM17.9201 6.88C17.87 7 17.8001 7.11 17.7101 7.21C17.61 7.3 17.5001 7.37 17.3801 7.42C17.2601 7.47 17.13 7.5 17 7.5C16.73 7.5 16.4801 7.4 16.29 7.21C16.2 7.11 16.13 7 16.08 6.88C16.0301 6.76 16.0001 6.63 16.0001 6.5C16.0001 6.37 16.0301 6.24 16.08 6.12C16.13 5.99 16.2 5.89 16.29 5.79C16.52 5.56 16.8701 5.45 17.19 5.52C17.2601 5.53 17.3201 5.55 17.3801 5.58C17.4401 5.6 17.5001 5.63 17.5601 5.67C17.61 5.7 17.66 5.75 17.7101 5.79C17.8001 5.89 17.87 5.99 17.9201 6.12C17.97 6.24 18 6.37 18 6.5C18 6.63 17.97 6.76 17.9201 6.88Z" fill="white"/>
</svg>
