<svg width="24" height="24" viewBox="0 0 24 24" fill="none" xmlns="http://www.w3.org/2000/svg">
<path d="M19.5104 6.41781L13.0103 2.59781C12.3803 2.22781 11.6102 2.22781 10.9802 2.59781L4.48022 6.41781C3.87023 6.77781 3.49023 7.43781 3.49023 8.1378V15.8478C3.49023 16.5578 3.87023 17.2079 4.48022 17.5679L10.9802 21.3878C11.6102 21.7578 12.3803 21.7578 13.0103 21.3878L19.5104 17.5679C20.1203 17.2079 20.5002 16.5479 20.5002 15.8478V8.1378C20.5002 7.43781 20.1203 6.77781 19.5104 6.41781ZM17.3903 15.6378L12.3903 18.6378C12.2703 18.7079 12.1402 18.7478 12.0002 18.7478C11.8602 18.7478 11.7302 18.7079 11.6102 18.6378L6.61023 15.6378C6.25023 15.4278 6.14023 14.9678 6.35023 14.6078C6.56023 14.2478 7.02026 14.1378 7.38026 14.3478L11.9902 17.1179L15.5303 14.9879L13.6702 13.8678L13.0203 14.5178C12.8703 14.6678 12.6802 14.7378 12.4902 14.7378C12.3002 14.7378 12.1103 14.6678 11.9603 14.5178C11.6703 14.2278 11.6703 13.7478 11.9603 13.4579L12.3404 13.0778L10.5402 11.9978L10.0203 12.5178C9.87026 12.6678 9.68024 12.7379 9.49023 12.7379C9.30024 12.7379 9.11028 12.6678 8.96028 12.5178C8.67027 12.2279 8.67027 11.7478 8.96028 11.4578L9.22022 11.1978L6.61023 9.62781C6.38024 9.4878 6.25025 9.24781 6.25025 8.98781C6.25025 8.72781 6.39024 8.47781 6.61023 8.34781L11.6102 5.34781C11.8502 5.20781 12.1502 5.20781 12.3802 5.34781L17.3802 8.34781C17.7402 8.55781 17.8503 9.01781 17.6403 9.37781C17.4303 9.7278 16.9702 9.8478 16.6102 9.6378L12.0002 6.86779L8.46027 8.99781L10.3203 10.1178L10.9702 9.46781C11.2602 9.17781 11.7403 9.17781 12.0303 9.46781C12.3203 9.7578 12.3203 10.2379 12.0303 10.5278L11.6503 10.9078L13.4504 11.9878L13.9702 11.4678C14.2602 11.1778 14.7404 11.1778 15.0303 11.4678C15.3203 11.7578 15.3203 12.2378 15.0303 12.5279L14.7704 12.7878L17.3802 14.3579C17.6102 14.4978 17.7402 14.7378 17.7402 14.9978C17.7402 15.2579 17.6103 15.5078 17.3903 15.6378Z" fill="white"/>
</svg>
