<svg width="24" height="24" viewBox="0 0 24 24" fill="none" xmlns="http://www.w3.org/2000/svg">
<path d="M15.2501 16.75H13.5C12.12 16.75 11 15.63 11 14.25C11 13.84 11.34 13.5 11.75 13.5C12.1601 13.5 12.5 13.84 12.5 14.25C12.5 14.8 12.95 15.25 13.5 15.25H15.2501C15.8 15.25 16.25 14.8 16.25 14.25C16.25 13.7 15.8 13.25 15.2501 13.25H13.5C12.12 13.25 11 12.13 11 10.75C11 9.37 12.12 8.25 13.5 8.25H15.2501C16.6301 8.25 17.75 9.37 17.75 10.75C17.75 11.16 17.4101 11.5 17 11.5C16.59 11.5 16.25 11.16 16.25 10.75C16.25 10.2 15.8 9.75 15.2501 9.75H13.5C12.95 9.75 12.5 10.2 12.5 10.75C12.5 11.3 12.95 11.75 13.5 11.75H15.2501C16.6301 11.75 17.75 12.87 17.75 14.25C17.75 15.63 16.6301 16.75 15.2501 16.75Z" fill="white"/>
<path d="M12.0002 22.6056C11.7102 22.6056 11.4203 22.5356 11.1503 22.3856L9.67023 21.6756C9.30023 21.4956 9.14025 21.0456 9.32025 20.6756C9.50025 20.3056 9.94025 20.1456 10.3203 20.3256L11.8303 21.0556C11.9403 21.1156 12.0402 21.1156 12.1102 21.0756L20.1102 16.6357C20.1902 16.5956 20.2402 16.5056 20.2402 16.4156V7.59563C20.2402 7.50563 20.1902 7.42563 20.1102 7.37562L12.1102 2.93562C12.0302 2.89563 11.9402 2.89563 11.8702 2.93562L3.87024 7.37562C3.79024 7.41563 3.74023 7.50563 3.74023 7.59563V16.4156C3.74023 16.5056 3.79024 16.5857 3.87024 16.6357L6.38025 18.0256C6.77025 18.2456 7.23024 18.2356 7.62024 18.0056C8.01024 17.7756 8.24023 17.3756 8.24023 16.9256L8.25024 8.99562C8.25024 8.58563 8.59024 8.24562 9.00024 8.24562C9.41025 8.24562 9.75024 8.58563 9.75024 8.99562L9.74023 16.9256C9.74023 17.9056 9.23025 18.7956 8.38025 19.2956C7.53025 19.7956 6.51027 19.8056 5.65027 19.3256L3.14026 17.9356C2.58027 17.6256 2.24023 17.0356 2.24023 16.4056V7.58562C2.24023 6.95562 2.58027 6.36562 3.14026 6.05562L11.1403 1.61562C11.6703 1.31563 12.3103 1.31563 12.8403 1.61562L20.8402 6.05562C21.4003 6.36562 21.7402 6.95562 21.7402 7.58562V16.4056C21.7402 17.0356 21.4003 17.6256 20.8402 17.9356L12.8403 22.3756C12.5803 22.5256 12.2902 22.6056 12.0002 22.6056Z" fill="white"/>
</svg>
