<svg width="24" height="24" viewBox="0 0 24 24" fill="none" xmlns="http://www.w3.org/2000/svg">
<path fill-rule="evenodd" clip-rule="evenodd" d="M9.60039 8.39844C9.60039 5.08473 12.2867 2.39844 15.6004 2.39844C18.9141 2.39844 21.6004 5.08473 21.6004 8.39844C21.6004 11.7121 18.9141 14.3984 15.6004 14.3984C15.0216 14.3984 14.462 14.3165 13.9324 14.1635L11.6489 16.447C11.4239 16.672 11.1187 16.7984 10.8004 16.7984H9.60039V17.9984C9.60039 18.6612 9.06313 19.1984 8.40039 19.1984H7.20039V20.3984C7.20039 21.0612 6.66313 21.5984 6.00039 21.5984H3.60039C2.93765 21.5984 2.40039 21.0612 2.40039 20.3984V17.9984C2.40039 17.6802 2.52682 17.3749 2.75186 17.1499L9.8353 10.0665C9.68235 9.53693 9.60039 8.97725 9.60039 8.39844ZM15.6004 4.79844C15.1034 4.79844 14.7004 5.20139 14.7004 5.69844C14.7004 6.19549 15.1034 6.59844 15.6004 6.59844C16.5945 6.59844 17.4004 7.40432 17.4004 8.39844C17.4004 8.89549 17.8034 9.29844 18.3004 9.29844C18.7974 9.29844 19.2004 8.89549 19.2004 8.39844C19.2004 6.41022 17.5887 4.79844 15.6004 4.79844Z" fill="#0F172A"/>
</svg>
