<svg width="24" height="24" viewBox="0 0 24 24" fill="none" xmlns="http://www.w3.org/2000/svg">
<path d="M16.9999 22.75H7C6.59 22.75 6.25 22.41 6.25 22C6.25 21.5901 6.59 21.25 7 21.25H16.9999C17.41 21.25 17.7499 21.5901 17.7499 22C17.7499 22.41 17.41 22.75 16.9999 22.75Z" fill="white"/>
<path d="M18 2H6.00001C3.79 2 2 3.79 2 6V15C2 17.21 3.79 19 6.00001 19H18C20.21 19 22.0001 17.21 22.0001 15V6C22.0001 3.79 20.21 2 18 2ZM9.99001 7.32C10.55 7.32 11 7.77 11 8.32C11 8.87 10.55 9.32 10 9.32C9.45001 9.32 9.00001 8.87 9.00001 8.32C9.00001 7.77 9.44 7.32 9.99001 7.32ZM6.84001 7.32C7.4 7.32 7.85 7.77 7.85 8.32C7.85 8.87 7.4 9.32 6.85 9.32C6.30001 9.32 5.85001 8.87 5.85001 8.32C5.85001 7.77 6.28 7.32 6.84001 7.32ZM17.2601 14.86H6.76C6.34 14.86 6.00001 14.52 6.00001 14.11C6.00001 13.7 6.33001 13.36 6.74 13.36H17.27C17.6801 13.36 18.02 13.7 18.02 14.11C18.02 14.52 17.6801 14.86 17.2601 14.86ZM17.2601 9.07H13.58C13.17 9.07 12.83 8.73 12.83 8.32C12.83 7.91 13.17 7.57 13.58 7.57H17.2601C17.67 7.57 18.0101 7.91 18.0101 8.32C18.0101 8.73 17.6801 9.07 17.2601 9.07Z" fill="white"/>
</svg>
