<svg width="24" height="24" viewBox="0 0 24 24" fill="none" xmlns="http://www.w3.org/2000/svg">
<path d="M18.27 3.35C17.8 3.28 17.26 3.25 16.5 3.25H7.49999C6.74999 3.25 6.2 3.28 5.75999 3.34C2.41 3.71 1.75 5.7 1.75 9V15C1.75 18.3 2.41 20.29 5.72999 20.65C6.2 20.72 6.74 20.75 7.49999 20.75H16.5C17.25 20.75 17.8 20.72 18.24 20.66C21.5899 20.29 22.2499 18.31 22.2499 15V9C22.2499 5.7 21.5899 3.71 18.27 3.35ZM10.09 9C10.65 9 11.1 9.45 11.1 10C11.1 10.55 10.65 11 10.1 11C9.55 11 9.1 10.55 9.1 10C9.1 9.45 9.53999 9 10.09 9ZM7.09 9C7.66 9 8.1 9.45 8.1 10C8.1 10.55 7.64999 11 7.1 11C6.55 11 6.1 10.55 6.1 10C6.1 9.45 6.53999 9 7.09 9ZM16.9999 16.25H7.01999C6.61 16.25 6.26 15.91 6.26 15.5C6.26 15.09 6.59 14.75 7 14.75H16.9999C17.41 14.75 17.7499 15.09 17.7499 15.5C17.7499 15.91 17.41 16.25 16.9999 16.25ZM16.9999 10.75H13.5C13.09 10.75 12.75 10.41 12.75 10C12.75 9.59 13.09 9.25 13.5 9.25H16.9999C17.41 9.25 17.7499 9.59 17.7499 10C17.7499 10.41 17.41 10.75 16.9999 10.75Z" fill="white"/>
</svg>
