<svg width="24" height="24" viewBox="0 0 24 24" fill="none" xmlns="http://www.w3.org/2000/svg">
<path d="M17.8206 8.69613C18.5305 8.30613 19.4005 8.81613 19.3906 9.62613L19.3506 15.0461C19.3405 15.8662 18.4506 16.3661 17.7505 15.9461L13.0705 13.1461C12.3706 12.7261 12.3906 11.7061 13.1005 11.3161L17.8206 8.69613Z" fill="white"/>
<path d="M19.2505 6.28065C19.4005 6.66065 19.1705 7.05065 18.8105 7.25066L13.1806 10.3607C12.3805 10.8007 11.4405 10.0907 11.6405 9.21066L12.8605 3.68066C13.0105 2.98065 13.8005 2.64066 14.4205 2.99066L18.3407 5.23065C18.7706 5.48066 19.0805 5.85065 19.2505 6.28065Z" fill="white"/>
<path d="M12.0096 2.67165L9.93962 11.9717C9.90962 12.1116 9.90962 12.2616 9.93962 12.4116L11.6696 21.0917C11.7896 21.6917 11.2797 22.2617 10.7797 21.8916L5.48961 18.1217C4.92962 17.7216 4.59961 17.0816 4.59961 16.4016V7.09166C4.59961 6.33166 4.99961 5.63165 5.6696 5.25166L10.9596 2.24166C11.1096 2.15166 11.2696 2.09165 11.4296 2.04165C11.8096 1.91165 12.0896 2.29166 12.0096 2.67165Z" fill="white"/>
<path d="M17.6308 16.8097C18.2809 17.1997 18.3208 18.1298 17.7109 18.5699L14.2408 21.0897C13.6209 21.5397 12.7309 21.1997 12.5809 20.4397L11.5609 15.2399C11.3809 14.3399 12.3508 13.6597 13.1409 14.1298L17.6308 16.8097Z" fill="white"/>
</svg>
