<svg width="24" height="24" viewBox="0 0 24 24" fill="none" xmlns="http://www.w3.org/2000/svg">
<path d="M15.7007 4.34908L6.4007 13.6492C5.93071 14.1191 5.1107 14.0191 4.8107 13.4191C4.2707 12.3491 3.9707 11.1791 3.9707 10.0491C3.9707 7.59909 5.06071 5.30908 6.9707 3.76909C8.88071 2.22909 11.3807 1.65909 13.8306 2.19909C14.3706 2.31909 14.9007 2.48908 15.4007 2.71909C16.0407 3.00909 16.2006 3.84909 15.7007 4.34908Z" fill="white"/>
<path d="M15.4513 20.6324C13.1914 19.9923 10.8114 19.9923 8.55136 20.6324C8.18137 20.7423 7.96137 21.1224 8.07136 21.4923C8.18137 21.8624 8.56137 22.0724 8.93137 21.9723C10.9414 21.4023 13.0514 21.4023 15.0614 21.9723C15.1214 21.9924 15.1914 22.0023 15.2514 22.0023C15.5514 22.0023 15.8314 21.8024 15.9214 21.4923C16.0314 21.1224 15.8214 20.7423 15.4513 20.6324Z" fill="white"/>
<path d="M20.5592 1.95187C20.2691 1.66188 19.7891 1.66188 19.4991 1.95187L3.64914 17.8019C3.35914 18.0918 3.35914 18.5718 3.64914 18.8618C3.79914 19.0118 3.98914 19.0818 4.17915 19.0818C4.36914 19.0818 4.55915 19.0118 4.70915 18.8618L7.16914 16.4018C7.38915 16.5818 7.61914 16.7618 7.85914 16.9218V17.7518C7.84914 18.0318 7.83915 18.4619 8.16915 18.8118C8.51915 19.1618 9.03915 19.2119 9.44915 19.2119H14.5791C15.1191 19.2119 15.5291 19.0619 15.8091 18.7818C16.1991 18.3818 16.1792 17.8818 16.1691 17.6219V16.9218C19.2791 14.8319 21.2291 10.4219 19.2092 6.36187C18.9891 5.93187 18.7191 5.52187 18.4191 5.14188L20.5491 3.01188C20.8491 2.72187 20.8491 2.24187 20.5592 1.95187Z" fill="white"/>
</svg>
