<svg width="24" height="24" viewBox="0 0 24 24" fill="none" xmlns="http://www.w3.org/2000/svg">
<path d="M15.2612 22.0023C15.2012 22.0023 15.1312 21.9924 15.0712 21.9723C13.0612 21.4023 10.9512 21.4023 8.94113 21.9723C8.57114 22.0724 8.18114 21.8624 8.08113 21.4923C7.97114 21.1224 8.19113 20.7324 8.56113 20.6324C10.8212 19.9923 13.2011 19.9923 15.4612 20.6324C15.8312 20.7423 16.0511 21.1224 15.9412 21.4923C15.8411 21.8024 15.5612 22.0023 15.2612 22.0023Z" fill="white"/>
<path d="M19.2107 6.35757C18.1707 4.25757 16.1607 2.70757 13.8306 2.19757C11.3907 1.65757 8.8907 2.23757 6.98071 3.77757C5.06071 5.30757 3.9707 7.59757 3.9707 10.0475C3.9707 12.6376 5.52071 15.3475 7.86071 16.9176V17.7475C7.85071 18.0276 7.8407 18.4576 8.18071 18.8076C8.5307 19.1676 9.05071 19.2076 9.4607 19.2076H14.5907C15.1307 19.2076 15.5406 19.0576 15.8207 18.7776C16.2006 18.3876 16.1907 17.8876 16.1807 17.6176V16.9176C19.2807 14.8276 21.2307 10.4175 19.2107 6.35757ZM13.7207 11.6175L12.6507 13.4776C12.5106 13.7176 12.2607 13.8576 12.0006 13.8576C11.8707 13.8576 11.7407 13.8276 11.6307 13.7575C11.2707 13.5475 11.1507 13.0876 11.3507 12.7375L12.2007 11.2575H11.3607C10.8607 11.2575 10.4507 11.0375 10.2307 10.6676C10.0107 10.2875 10.0307 9.82757 10.2807 9.38757L11.3507 7.52757C11.5607 7.16757 12.0207 7.04757 12.3707 7.24757C12.7307 7.45757 12.8507 7.91757 12.6507 8.26757L11.8007 9.74757H12.6407C13.1406 9.74757 13.5507 9.96757 13.7706 10.3376C13.9907 10.7175 13.9707 11.1875 13.7207 11.6175Z" fill="white"/>
</svg>
