<svg width="24" height="24" viewBox="0 0 24 24" fill="none" xmlns="http://www.w3.org/2000/svg">
<path d="M12.5007 5.48125C12.5807 5.48125 12.6606 5.48125 12.7506 5.49124V2.53124C12.7506 2.12125 12.4107 1.78125 12.0006 1.78125C11.5907 1.78125 11.2507 2.12125 11.2507 2.53124V5.49124C11.3307 5.48125 11.4107 5.48125 11.5007 5.48125C6.89071 5.71124 3.2207 9.51124 3.2207 14.1812V16.1213C3.2207 17.2212 4.1207 18.1212 5.22071 18.1212H18.7806C19.8807 18.1212 20.7807 17.2212 20.7807 16.1213V14.1812C20.7807 9.51124 17.1107 5.71124 12.5007 5.48125Z" fill="white"/>
<path d="M14.7291 19.1094C15.0591 19.1094 15.2991 19.4193 15.2192 19.7394C14.8391 21.1693 13.5392 22.2193 11.9991 22.2193C10.4591 22.2193 9.15916 21.1693 8.77915 19.7394C8.69916 19.4193 8.93916 19.1094 9.26916 19.1094H14.7291Z" fill="white"/>
</svg>
