<svg width="24" height="24" viewBox="0 0 24 24" fill="none" xmlns="http://www.w3.org/2000/svg">
<path d="M20.4287 11.78L18.2286 3.7C17.9786 2.77 16.9686 2 16.0086 2H7.98864C7.02864 2 6.01864 2.77 5.76864 3.7L3.56865 11.78C3.12864 13.38 4.12864 14.69 5.78865 14.69H11.2486V20.5H7.99864C7.58865 20.5 7.24864 20.84 7.24864 21.25C7.24864 21.66 7.58865 22 7.99864 22H15.9986C16.4087 22 16.7486 21.66 16.7486 21.25C16.7486 20.84 16.4087 20.5 15.9986 20.5H12.7486V14.69H18.2087C19.8686 14.69 20.8686 13.38 20.4287 11.78Z" fill="white"/>
</svg>
