<svg width="24" height="24" viewBox="0 0 24 24" fill="none" xmlns="http://www.w3.org/2000/svg">
<path d="M19.2107 6.35757C18.1707 4.25757 16.1607 2.70757 13.8306 2.19757C11.3907 1.65757 8.8907 2.23757 6.98071 3.77757C5.06071 5.30757 3.9707 7.59757 3.9707 10.0475C3.9707 12.6376 5.52071 15.3475 7.86071 16.9176V17.7475C7.85071 18.0276 7.8407 18.4576 8.18071 18.8076C8.5307 19.1676 9.05071 19.2076 9.4607 19.2076H14.5907C15.1307 19.2076 15.5406 19.0576 15.8207 18.7776C16.2006 18.3876 16.1907 17.8876 16.1807 17.6176V16.9176C19.2807 14.8276 21.2307 10.4175 19.2107 6.35757Z" fill="white"/>
<path d="M15.2612 22.0023C15.2012 22.0023 15.1312 21.9924 15.0712 21.9723C13.0612 21.4023 10.9512 21.4023 8.94113 21.9723C8.57114 22.0724 8.18114 21.8624 8.08113 21.4923C7.97114 21.1224 8.19113 20.7324 8.56113 20.6324C10.8212 19.9923 13.2011 19.9923 15.4612 20.6324C15.8312 20.7423 16.0511 21.1224 15.9412 21.4923C15.8411 21.8024 15.5612 22.0023 15.2612 22.0023Z" fill="white"/>
</svg>
