<svg width="24" height="24" viewBox="0 0 24 24" fill="none" xmlns="http://www.w3.org/2000/svg">
<path d="M9.3005 3.29844C9.3005 2.80139 8.89756 2.39844 8.4005 2.39844C7.90344 2.39844 7.5005 2.80139 7.5005 3.29844V4.80854C6.04027 4.84137 4.5994 4.95389 3.1821 5.14196C2.68937 5.20735 2.34293 5.6598 2.40832 6.15253C2.4737 6.64526 2.92615 6.9917 3.4189 6.92631C5.04829 6.71009 6.71113 6.59844 8.4005 6.59844C9.08518 6.59844 9.76549 6.61677 10.441 6.65299C9.93952 8.34667 9.25139 9.96045 8.40035 11.4704C7.95346 10.6775 7.5515 9.85603 7.19791 9.00938C7.00636 8.55072 6.47926 8.33419 6.02059 8.52573C5.56193 8.71729 5.34539 9.2444 5.53694 9.70305C6.0444 10.9181 6.6442 12.0848 7.32751 13.1945C6.04427 15.0702 4.49486 16.75 2.73343 18.1792C2.34745 18.4924 2.28844 19.0591 2.60162 19.445C2.9148 19.8311 3.48158 19.8901 3.86756 19.5769C5.57813 18.189 7.10342 16.5811 8.40035 14.7961C8.51488 14.9538 8.63119 15.11 8.74925 15.2648C9.05064 15.6601 9.61538 15.7362 10.0106 15.4349C10.4059 15.1334 10.482 14.5687 10.1806 14.1734C9.93664 13.8535 9.70073 13.5271 9.4732 13.1945C10.686 11.2251 11.6356 9.0759 12.2728 6.79587C12.6442 6.83396 13.014 6.87747 13.3821 6.92631C13.8748 6.9917 14.3273 6.64526 14.3927 6.15253C14.4581 5.6598 14.1117 5.20735 13.6188 5.14196C12.9741 5.05639 12.3244 4.98647 11.6703 4.93257C10.8865 4.868 10.0964 4.82643 9.3005 4.80854V3.29844Z" fill="#0F172A"/>
<path fill-rule="evenodd" clip-rule="evenodd" d="M15.5999 9.60156C15.9407 9.60156 16.2523 9.79416 16.4048 10.0991L21.5048 20.2991C21.7271 20.7437 21.5469 21.2843 21.1023 21.5065C20.6577 21.7289 20.1171 21.5486 19.8948 21.104L18.9435 19.2016H12.2561L11.3048 21.104C11.0825 21.5486 10.5419 21.7289 10.0973 21.5065C9.65274 21.2843 9.47253 20.7437 9.69482 20.2991L14.7948 10.0991C14.9473 9.79416 15.2589 9.60156 15.5999 9.60156ZM18.0435 17.4016L15.5999 12.5141L13.1561 17.4016H18.0435Z" fill="#0F172A"/>
</svg>
