<svg width="24" height="24" viewBox="0 0 24 24" fill="none" xmlns="http://www.w3.org/2000/svg">
<path d="M19.3697 4.88719L13.5097 2.27719C12.6497 1.89719 11.3497 1.89719 10.4897 2.27719L4.62968 4.88719C3.14968 5.54719 2.92969 6.44719 2.92969 6.92719C2.92969 7.40719 3.14968 8.30719 4.62968 8.96719L10.4897 11.5771C10.9197 11.7671 11.4597 11.8671 11.9997 11.8671C12.5396 11.8671 13.0796 11.7671 13.5097 11.5771L19.3697 8.96719C20.8496 8.30719 21.0697 7.40719 21.0697 6.92719C21.0697 6.44719 20.8597 5.54719 19.3697 4.88719Z" fill="white"/>
<path d="M12.0004 17.04C11.6203 17.04 11.2403 16.96 10.8903 16.81L4.15031 13.81C3.12032 13.35 2.32031 12.12 2.32031 10.99C2.32031 10.58 2.65031 10.25 3.06032 10.25C3.47032 10.25 3.80032 10.58 3.80032 10.99C3.80032 11.53 4.25032 12.23 4.75031 12.45L11.4903 15.45C11.8103 15.59 12.1804 15.59 12.5003 15.45L19.2403 12.45C19.7404 12.23 20.1904 11.54 20.1904 10.99C20.1904 10.58 20.5204 10.25 20.9303 10.25C21.3403 10.25 21.6703 10.58 21.6703 10.99C21.6703 12.11 20.8703 13.35 19.8403 13.81L13.1003 16.81C12.7603 16.96 12.3803 17.04 12.0004 17.04Z" fill="white"/>
<path d="M12.0004 22.0009C11.6203 22.0009 11.2403 21.9209 10.8903 21.7709L4.15031 18.7709C3.04031 18.2809 2.32031 17.1709 2.32031 15.9509C2.32031 15.5409 2.65031 15.2109 3.06032 15.2109C3.47032 15.2109 3.80032 15.5409 3.80032 15.9509C3.80032 16.5809 4.17032 17.1509 4.75031 17.4109L11.4903 20.4109C11.8103 20.5509 12.1804 20.5509 12.5003 20.4109L19.2403 17.4109C19.8103 17.1609 20.1904 16.5809 20.1904 15.9509C20.1904 15.5409 20.5204 15.2109 20.9303 15.2109C21.3403 15.2109 21.6703 15.5409 21.6703 15.9509C21.6703 17.1709 20.9503 18.2709 19.8403 18.7709L13.1003 21.7709C12.7603 21.9209 12.3803 22.0009 12.0004 22.0009Z" fill="white"/>
</svg>
