<svg width="24" height="24" viewBox="0 0 24 24" fill="none" xmlns="http://www.w3.org/2000/svg">
<path fill-rule="evenodd" clip-rule="evenodd" d="M8.60572 4.97327L10.9426 7.93328C11.6356 7.75348 12.3652 7.75348 13.0582 7.93328L15.3951 4.97327C13.257 3.94016 10.7437 3.94016 8.60572 4.97327ZM19.0255 8.60377L16.0655 10.9406C16.2454 11.6336 16.2454 12.3632 16.0655 13.0562L19.0255 15.3931C20.0586 13.2551 20.0586 10.7417 19.0255 8.60377ZM15.3951 19.0236L13.0582 16.0636C12.3652 16.2434 11.6356 16.2434 10.9426 16.0636L8.60572 19.0236C10.7437 20.0567 13.257 20.0567 15.3951 19.0236ZM4.97523 15.3931L7.93523 13.0562C7.75544 12.3632 7.75544 11.6336 7.93523 10.9406L4.97523 8.60377C3.94211 10.7417 3.94211 13.2551 4.97523 15.3931ZM6.75748 3.95444C9.9342 1.87977 14.0665 1.87977 17.2433 3.95444C17.7907 4.31197 18.3091 4.73071 18.7887 5.21021C19.2681 5.68971 19.6869 6.20809 20.0443 6.75553C22.119 9.93224 22.119 14.0646 20.0443 17.2414C19.6869 17.7888 19.2681 18.3072 18.7887 18.7867C18.3091 19.2661 17.7907 19.6849 17.2433 20.0424C14.0665 22.1171 9.9342 22.1171 6.75748 20.0424C6.21003 19.6849 5.69166 19.2661 5.21217 18.7867C4.73266 18.3072 4.31392 17.7888 3.95639 17.2414C1.88172 14.0646 1.88172 9.93225 3.95639 6.75553C4.31392 6.20809 4.73266 5.68971 5.21217 5.21021C5.69166 4.73071 6.21004 4.31197 6.75748 3.95444ZM12.9948 9.8132C12.3653 9.52686 11.6354 9.52686 11.0059 9.8132C10.7524 9.92851 10.514 10.0907 10.3033 10.3014C10.0927 10.512 9.93046 10.7504 9.81515 11.0039C9.52881 11.6335 9.52881 12.3634 9.81515 12.9929C9.93046 13.2464 10.0927 13.4849 10.3033 13.6955C10.514 13.9062 10.7524 14.0683 11.0059 14.1836C11.6354 14.4701 12.3653 14.4701 12.9948 14.1836C13.2484 14.0683 13.4868 13.9062 13.6974 13.6955C13.9081 13.4849 14.0703 13.2464 14.1856 12.9929C14.472 12.3634 14.472 11.6335 14.1856 11.0039C14.0703 10.7504 13.9081 10.512 13.6974 10.3014C13.4868 10.0907 13.2484 9.92851 12.9948 9.8132Z" fill="#0F172A"/>
</svg>
