<svg width="24" height="24" viewBox="0 0 24 24" fill="none" xmlns="http://www.w3.org/2000/svg">
<path d="M12.0008 1.19922C8.02433 1.19922 4.80078 4.42277 4.80078 8.39922C4.80078 10.6374 5.82315 12.6376 7.42301 13.9568C8.68575 14.9979 9.60078 16.1305 9.60078 17.3461V18.1196C9.60078 18.5343 9.88428 18.8954 10.2872 18.9939C10.8373 19.1282 11.4114 19.1992 12.0008 19.1992C12.5902 19.1992 13.1642 19.1282 13.7144 18.9939C14.1172 18.8954 14.4008 18.5343 14.4008 18.1196V17.3461C14.4008 16.1305 15.3158 14.9979 16.5785 13.9568C18.1784 12.6376 19.2008 10.6374 19.2008 8.39922C19.2008 4.42277 15.9772 1.19922 12.0008 1.19922Z" fill="#0F172A"/>
<path d="M10.635 20.897C10.1436 20.8224 9.68464 21.1602 9.60995 21.6516C9.53526 22.143 9.87308 22.602 10.3645 22.6766C10.8983 22.7578 11.4444 22.7998 11.9997 22.7998C12.5551 22.7998 13.1012 22.7578 13.635 22.6766C14.1264 22.602 14.4642 22.143 14.3895 21.6516C14.3148 21.1602 13.8559 20.8224 13.3645 20.897C12.9199 20.9647 12.4642 20.9998 11.9997 20.9998C11.5352 20.9998 11.0795 20.9647 10.635 20.897Z" fill="#0F172A"/>
</svg>
