<svg width="24" height="24" viewBox="0 0 24 24" fill="none" xmlns="http://www.w3.org/2000/svg">
<path d="M8.38867 18.4907V8.3307C8.38867 7.93071 8.50867 7.54071 8.72867 7.21071L11.4586 3.15071C11.8886 2.50071 12.9586 2.04071 13.8686 2.38071C14.8486 2.71071 15.4987 3.81071 15.2887 4.7907L14.7686 8.0607C14.7286 8.3607 14.8087 8.6307 14.9786 8.8407C15.1486 9.03071 15.3986 9.15071 15.6686 9.15071H19.7786C20.5687 9.15071 21.2486 9.4707 21.6487 10.0307C22.0286 10.5707 22.0987 11.2707 21.8486 11.9807L19.3886 19.4707C19.0786 20.7107 17.7286 21.7207 16.3886 21.7207H12.4886C11.8186 21.7207 10.8786 21.4907 10.4486 21.0607L9.16867 20.0707C8.67868 19.7006 8.38867 19.1107 8.38867 18.4907Z" fill="white"/>
<path d="M5.21 6.37891H4.18C2.63 6.37891 2 6.97891 2 8.4589V18.5189C2 19.9989 2.63 20.5989 4.18 20.5989H5.21C6.76 20.5989 7.39 19.9989 7.39 18.5189V8.4589C7.39 6.97891 6.76 6.37891 5.21 6.37891Z" fill="white"/>
</svg>
