<svg width="24" height="24" viewBox="0 0 24 24" fill="none" xmlns="http://www.w3.org/2000/svg">
<path d="M21.5608 10.7385L20.2009 9.15859C19.9408 8.85859 19.7308 8.2986 19.7308 7.89859V6.1986C19.7308 5.13859 18.8608 4.26859 17.8009 4.26859H16.1008C15.7108 4.26859 15.1408 4.05859 14.8408 3.7986L13.2609 2.43859C12.5709 1.8486 11.4409 1.8486 10.7409 2.43859L9.17085 3.80859C8.87085 4.05859 8.30085 4.26859 7.91085 4.26859H6.18086C5.12085 4.26859 4.25085 5.13859 4.25085 6.1986V7.9086C4.25085 8.2986 4.04085 8.85859 3.79086 9.15859L2.44086 10.7485C1.86086 11.4385 1.86086 12.5585 2.44086 13.2485L3.79086 14.8385C4.04085 15.1385 4.25085 15.6986 4.25085 16.0886V17.7986C4.25085 18.8585 5.12085 19.7285 6.18086 19.7285H7.91085C8.30085 19.7285 8.87085 19.9385 9.17085 20.1986L10.7509 21.5585C11.4409 22.1486 12.5709 22.1486 13.2709 21.5585L14.8509 20.1986C15.1509 19.9385 15.7108 19.7285 16.1109 19.7285H17.8108C18.8709 19.7285 19.7409 18.8585 19.7409 17.7986V16.0985C19.7409 15.7085 19.9509 15.1385 20.2108 14.8385L21.5709 13.2585C22.1509 12.5685 22.1509 11.4285 21.5608 10.7385ZM16.6809 11.9985L15.5109 15.5585C15.3609 16.1486 14.7309 16.6286 14.0908 16.6286H12.2409C11.9209 16.6286 11.4709 16.5185 11.2709 16.3185L9.80085 15.1685C9.77085 15.8085 9.48086 16.0785 8.77086 16.0785H8.29086C7.55085 16.0785 7.25085 15.7886 7.25085 15.0885V10.3085C7.25085 9.60859 7.55085 9.3186 8.29086 9.3186H8.78085C9.52086 9.3186 9.82086 9.60859 9.82086 10.3085V10.6685L11.7609 7.7886C11.9609 7.47859 12.4708 7.25859 12.9009 7.4286C13.3708 7.58859 13.6708 8.10859 13.5709 8.5686L13.3309 10.1285C13.3108 10.2685 13.3408 10.3985 13.4308 10.4985C13.5109 10.5885 13.6309 10.6485 13.7608 10.6485H15.7108C16.0909 10.6485 16.4109 10.7985 16.6009 11.0685C16.7709 11.3285 16.8009 11.6585 16.6809 11.9985Z" fill="white"/>
</svg>
