<svg width="24" height="24" viewBox="0 0 24 24" fill="none" xmlns="http://www.w3.org/2000/svg">
<path d="M13.1501 15.3748C12.93 15.0547 12.54 14.8747 12.09 14.8747H9.76C9.61 14.8747 9.46 14.8147 9.37 14.6947C9.27001 14.5747 9.23 14.4247 9.25 14.2548L9.54001 12.3948C9.66001 11.8448 9.29 11.2148 8.74 11.0248C8.22001 10.8348 7.62001 11.0948 7.37 11.4648L5.06 14.9047V14.4748C5.06 13.6348 4.7 13.2948 3.82 13.2948H3.24001C2.36 13.3048 2 13.6447 2 14.4847V20.1948C2 21.0348 2.36 21.3748 3.24001 21.3748H3.82C4.66 21.3748 5.01001 21.0448 5.04001 20.2848L6.79 21.6348C7.04 21.8748 7.57 22.0048 7.95001 22.0048H10.16C10.92 22.0048 11.68 21.4348 11.86 20.7348L13.26 16.4848C13.41 16.0747 13.37 15.6847 13.1501 15.3748Z" fill="white"/>
<path d="M21.1107 2.61437H20.5307C19.6907 2.61437 19.3407 2.94437 19.3007 3.70438L17.5508 2.35438C17.3108 2.11438 16.7708 1.98438 16.3907 1.98438H14.1807C13.4207 1.98438 12.6608 2.55437 12.4808 3.25438L11.0808 7.50438C10.9308 7.91438 10.9808 8.30438 11.1908 8.61438C11.4108 8.93438 11.8008 9.11438 12.2507 9.11438H14.5808C14.7308 9.11438 14.8808 9.17438 14.9708 9.29438C15.0707 9.41438 15.1107 9.56438 15.0908 9.73438L14.8007 11.5944C14.6807 12.1444 15.0507 12.7744 15.6008 12.9644C16.1207 13.1544 16.7207 12.8944 16.9707 12.5244L19.2807 9.08438V9.51438C19.2807 10.3544 19.6407 10.6944 20.5208 10.6944H21.1007C21.9807 10.6944 22.3407 10.3544 22.3407 9.51438V3.78437C22.3508 2.95438 21.9908 2.61437 21.1107 2.61437Z" fill="white"/>
</svg>
