<svg width="24" height="24" viewBox="0 0 24 24" fill="none" xmlns="http://www.w3.org/2000/svg">
<path d="M16.19 2H7.81C4.17001 2 2 4.17 2 7.81V16.18C2 19.83 4.17001 22 7.81 22H16.1801C19.82 22 21.99 19.83 21.99 16.19V7.81C22.0001 4.17 19.83 2 16.19 2ZM8.18 16.77C8.16001 16.77 8.13001 16.77 8.11 16.77C7.14001 16.68 6.23 16.23 5.55001 15.51C3.95 13.83 3.95 11.1 5.55001 9.42L7.74001 7.12C8.52001 6.3 9.57001 5.84 10.69 5.84C11.81 5.84 12.86 6.29 13.64 7.12C15.24 8.8 15.24 11.53 13.64 13.21L12.5501 14.36C12.26 14.66 11.79 14.67 11.49 14.39C11.19 14.1 11.18 13.63 11.46 13.33L12.5501 12.18C13.61 11.07 13.61 9.26 12.5501 8.16C11.56 7.12 9.82 7.12 8.82001 8.16L6.63001 10.46C5.57 11.57 5.57 13.38 6.63001 14.48C7.06 14.94 7.64 15.22 8.25001 15.28C8.66 15.32 8.96 15.69 8.92 16.1C8.89 16.48 8.56 16.77 8.18 16.77ZM18.45 14.59L16.26 16.89C15.48 17.71 14.43 18.17 13.31 18.17C12.1901 18.17 11.14 17.72 10.36 16.89C8.76001 15.21 8.76001 12.48 10.36 10.8L11.45 9.65C11.74 9.35 12.21 9.34 12.51 9.62C12.81 9.91 12.8201 10.38 12.54 10.68L11.45 11.83C10.39 12.94 10.39 14.75 11.45 15.85C12.44 16.89 14.18 16.9 15.18 15.85L17.37 13.55C18.4301 12.44 18.4301 10.63 17.37 9.53C16.94 9.07 16.3601 8.79 15.75 8.73C15.3401 8.69 15.0401 8.32 15.08 7.91C15.12 7.5 15.48 7.19 15.9 7.24C16.8701 7.34 17.78 7.78 18.4601 8.5C20.0501 10.17 20.0501 12.91 18.45 14.59Z" fill="white"/>
</svg>
