<svg width="24" height="24" viewBox="0 0 24 24" fill="none" xmlns="http://www.w3.org/2000/svg">
<path d="M14.679 5.07711C15.8506 3.90554 17.7502 3.90554 18.9217 5.07711C20.0933 6.24868 20.0933 8.14819 18.9217 9.31976L17.4525 10.789C17.101 11.1404 17.101 11.7103 17.4525 12.0618C17.8039 12.4133 18.3738 12.4133 18.7253 12.0618L20.1945 10.5926C22.069 8.71803 22.069 5.67884 20.1945 3.80432C18.3199 1.92981 15.2808 1.92981 13.4063 3.80432L9.80627 7.40432C7.93176 9.27884 7.93176 12.318 9.80627 14.1925C9.89378 14.28 9.98394 14.3635 10.0765 14.4431C10.4537 14.7668 11.0219 14.7236 11.3457 14.3465C11.6695 13.9694 11.6263 13.4012 11.2491 13.0774C11.1911 13.0276 11.1343 12.975 11.0791 12.9198C9.90749 11.7482 9.90749 9.84868 11.0791 8.67711L14.679 5.07711Z" fill="#0F172A"/>
<path d="M13.9242 9.55702C13.5471 9.23323 12.9789 9.27645 12.6551 9.65357C12.3313 10.0307 12.3745 10.5989 12.7516 10.9227C12.8097 10.9726 12.8664 11.0251 12.9217 11.0803C14.0933 12.2519 14.0933 14.1514 12.9217 15.323L9.32171 18.923C8.15014 20.0946 6.25064 20.0946 5.07906 18.923C3.90749 17.7514 3.90749 15.8519 5.07906 14.6803L6.54827 13.2112C6.89974 12.8597 6.89974 12.2898 6.54827 11.9384C6.19679 11.5869 5.62695 11.5869 5.27548 11.9384L3.80627 13.4076C1.93176 15.2821 1.93176 18.3212 3.80627 20.1958C5.68079 22.0703 8.71998 22.0703 10.5945 20.1958L14.1945 16.5958C16.069 14.7212 16.069 11.6821 14.1945 9.80756C14.107 9.72005 14.0169 9.63653 13.9242 9.55702Z" fill="#0F172A"/>
</svg>
