<svg width="24" height="24" viewBox="0 0 24 24" fill="none" xmlns="http://www.w3.org/2000/svg">
<path d="M15.41 18.5879C15.0101 18.5879 14.6801 18.2579 14.6801 17.858C14.6801 17.4579 15.0101 17.1279 15.41 17.1279C18.23 17.1279 20.5301 14.828 20.5301 12.008C20.5301 9.18797 18.23 6.88798 15.41 6.88798C12.59 6.88798 10.2901 9.18797 10.2901 12.008C10.2901 12.4079 9.96007 12.7379 9.56007 12.7379C9.16008 12.7379 8.83008 12.4079 8.83008 12.008C8.83008 8.37797 11.7801 5.41797 15.4201 5.41797C19.0601 5.41797 22.0001 8.36798 22.0001 11.998C22.0001 15.6279 19.0501 18.5879 15.41 18.5879Z" fill="white"/>
<path d="M8.59 5.41016C8.99 5.41016 9.32 5.74016 9.32 6.14016C9.32 6.54016 8.99 6.87016 8.59 6.87016C5.77 6.87016 3.47 9.17016 3.47 11.9902C3.47 14.8102 5.77 17.1101 8.59 17.1101C11.41 17.1101 13.71 14.8102 13.71 11.9902C13.71 11.5902 14.04 11.2602 14.4401 11.2602C14.84 11.2602 15.17 11.5902 15.17 11.9902C15.17 15.6202 12.2201 18.5801 8.58001 18.5801C4.94 18.5801 2 15.6302 2 12.0002C2 8.37016 4.95001 5.41016 8.59 5.41016Z" fill="white"/>
</svg>
