<svg width="24" height="24" viewBox="0 0 24 24" fill="none" xmlns="http://www.w3.org/2000/svg">
<path d="M19.0693 14.2377C18.7794 14.5276 18.3193 14.5276 18.0393 14.2377C17.7493 13.9477 17.7493 13.4877 18.0393 13.2076C20.0394 11.2076 20.0394 7.95765 18.0393 5.96766C16.0393 3.97766 12.7893 3.96765 10.7993 5.96766C8.8093 7.96766 8.79929 11.2176 10.7993 13.2076C11.0893 13.4977 11.0893 13.9576 10.7993 14.2377C10.5093 14.5276 10.0493 14.5276 9.7693 14.2377C7.1993 11.6676 7.1993 7.48766 9.7693 4.92765C12.3393 2.36766 16.5193 2.35766 19.0794 4.92765C21.6393 7.49766 21.6393 11.6676 19.0693 14.2377Z" fill="white"/>
<path d="M4.93071 9.76047C5.22071 9.47047 5.68071 9.47047 5.9607 9.76047C6.25071 10.0505 6.25071 10.5105 5.9607 10.7905C3.96071 12.7905 3.96071 16.0405 5.9607 18.0305C7.96071 20.0205 11.2107 20.0305 13.2007 18.0305C15.1906 16.0305 15.2007 12.7805 13.2007 10.7905C12.9106 10.5005 12.9106 10.0405 13.2007 9.76047C13.4907 9.47047 13.9507 9.47047 14.2306 9.76047C16.8007 12.3305 16.8007 16.5105 14.2306 19.0705C11.6607 21.6305 7.48071 21.6405 4.92071 19.0705C2.3607 16.5005 2.3607 12.3305 4.93071 9.76047Z" fill="white"/>
</svg>
