<svg width="24" height="24" viewBox="0 0 24 24" fill="none" xmlns="http://www.w3.org/2000/svg">
<path fill-rule="evenodd" clip-rule="evenodd" d="M7.19922 5.70078C7.19922 5.20373 7.60217 4.80078 8.09922 4.80078H20.6992C21.1963 4.80078 21.5992 5.20373 21.5992 5.70078C21.5992 6.19783 21.1963 6.60078 20.6992 6.60078H8.09922C7.60217 6.60078 7.19922 6.19783 7.19922 5.70078ZM7.19922 12.0008C7.19922 11.5037 7.60217 11.1008 8.09922 11.1008H20.6992C21.1963 11.1008 21.5992 11.5037 21.5992 12.0008C21.5992 12.4978 21.1963 12.9008 20.6992 12.9008H8.09922C7.60217 12.9008 7.19922 12.4978 7.19922 12.0008ZM7.19922 18.3008C7.19922 17.8037 7.60217 17.4008 8.09922 17.4008H20.6992C21.1963 17.4008 21.5992 17.8037 21.5992 18.3008C21.5992 18.7978 21.1963 19.2008 20.6992 19.2008H8.09922C7.60217 19.2008 7.19922 18.7978 7.19922 18.3008Z" fill="#0F172A"/>
<path fill-rule="evenodd" clip-rule="evenodd" d="M2.38867 5.7C2.38867 5.03726 2.92594 4.5 3.58867 4.5H3.60067C4.26342 4.5 4.80067 5.03726 4.80067 5.7V5.712C4.80067 6.37474 4.26342 6.912 3.60067 6.912H3.58867C2.92594 6.912 2.38867 6.37474 2.38867 5.712V5.7Z" fill="#0F172A"/>
<path fill-rule="evenodd" clip-rule="evenodd" d="M2.38867 18.3016C2.38867 17.6388 2.92594 17.1016 3.58867 17.1016H3.60067C4.26342 17.1016 4.80067 17.6388 4.80067 18.3016V18.3136C4.80067 18.9763 4.26342 19.5136 3.60067 19.5136H3.58867C2.92594 19.5136 2.38867 18.9763 2.38867 18.3136V18.3016Z" fill="#0F172A"/>
<path fill-rule="evenodd" clip-rule="evenodd" d="M2.38867 12.0008C2.38867 11.338 2.92594 10.8008 3.58867 10.8008H3.60067C4.26342 10.8008 4.80067 11.338 4.80067 12.0008V12.0128C4.80067 12.6755 4.26342 13.2128 3.60067 13.2128H3.58867C2.92594 13.2128 2.38867 12.6755 2.38867 12.0128V12.0008Z" fill="#0F172A"/>
</svg>
