<svg width="24" height="24" viewBox="0 0 24 24" fill="none" xmlns="http://www.w3.org/2000/svg">
<path d="M15.7806 20.9809C14.7205 22.0009 13.3606 22.5109 12.0006 22.5109C10.6406 22.5109 9.28062 21.9908 8.22063 20.9708C7.86063 20.6309 7.50063 20.2508 7.14062 19.8608L20.0406 6.96094C20.2906 7.50094 20.4805 8.07094 20.6206 8.70094C21.7906 13.8608 18.6306 18.2209 15.7806 20.9809Z" fill="white"/>
<path d="M21.7708 2.23282C21.4708 1.93281 20.9809 1.93281 20.6809 2.23282L2.23086 20.6928C1.93086 20.9928 1.93086 21.4829 2.23086 21.7829C2.38086 21.9228 2.57086 22.0028 2.77086 22.0028C2.97086 22.0028 3.16086 21.9228 3.31086 21.7728L21.7708 3.31282C22.0809 3.01281 22.0809 2.53282 21.7708 2.23282Z" fill="white"/>
<path d="M8.85061 10.31C8.85061 8.57 10.2606 7.16 12.0006 7.16C13.3106 7.16 14.4306 7.96 14.9106 9.1L18.8906 5.12C17.1206 2.98 14.4406 2 12.0006 2C10.2306 2 8.34061 2.52 6.76061 3.61C5.1806 4.71 3.90061 6.38 3.3806 8.69C2.5406 12.36 3.90061 15.64 5.79061 18.21L10.7906 13.21C9.6506 12.74 8.85061 11.61 8.85061 10.31Z" fill="white"/>
</svg>
