<svg width="24" height="24" viewBox="0 0 24 24" fill="none" xmlns="http://www.w3.org/2000/svg">
<path d="M13.6288 15.7196C13.6288 16.6196 12.8988 17.3496 11.9988 17.3496C11.3588 17.3496 10.8088 16.9796 10.5488 16.4496L12.7288 14.2695C13.2588 14.5296 13.6288 15.0795 13.6288 15.7196Z" fill="white"/>
<path d="M21.771 2.23C21.471 1.93 20.9811 1.93 20.6811 2.23L17.871 5.04C17.1011 3.02 15.1311 2 12.0011 2C6.37109 2 5.72109 5.58 5.72109 8.28V9.53C5.73109 9.53 5.74109 9.53 5.75109 9.53C2.92109 9.87 2.00109 11.28 2.00109 14.79V16.65C2.00109 18.25 2.19109 19.41 2.67109 20.24L2.22109 20.69C1.92109 20.99 1.92109 21.48 2.22109 21.78C2.38109 21.92 2.57109 22 2.77109 22C2.97109 22 3.16109 21.92 3.31109 21.77L21.771 3.31C22.0811 3.01 22.0811 2.53 21.771 2.23ZM7.35109 9.44C7.27109 9.44 7.20109 9.44 7.12109 9.44V8.28C7.12109 5.35 7.95109 3.4 12.0011 3.4C15.4011 3.4 16.4711 4.7 16.7711 6.15L13.4811 9.44H7.35109Z" fill="white"/>
<path d="M21.9986 14.7891V16.6491C21.9986 20.749 20.7486 21.9991 16.6487 21.9991H7.40859C6.51859 21.9991 6.07859 20.9191 6.70859 20.2891L9.52859 17.4691C9.59859 17.569 9.67859 17.659 9.75859 17.749C10.4586 18.5091 11.4986 18.9091 12.6486 18.6691C12.7386 18.649 12.8286 18.6291 12.9186 18.589C13.0086 18.5691 13.0886 18.5391 13.1687 18.499C13.3686 18.4291 13.5587 18.319 13.7387 18.1891C13.8086 18.1491 13.8686 18.0991 13.9187 18.049C14.0687 17.929 14.2086 17.7891 14.3286 17.6391C14.3786 17.5891 14.4287 17.5291 14.4686 17.4591C14.5986 17.2791 14.7086 17.089 14.7786 16.8891C14.8187 16.8091 14.8487 16.729 14.8686 16.639C14.9087 16.549 14.9286 16.459 14.9486 16.369C15.1886 15.2191 14.7887 14.179 14.0286 13.4791C13.9487 13.399 13.8486 13.3191 13.7486 13.249L16.8686 10.129C16.9187 10.079 16.9586 10.0391 17.0087 9.99905C17.4086 9.669 17.9186 9.509 18.4286 9.549C18.5186 9.55899 18.6186 9.569 18.7086 9.58899C18.8786 9.61899 19.0487 9.659 19.2086 9.699C19.3686 9.73899 19.5186 9.789 19.6686 9.839C19.9586 9.94899 20.2086 10.0791 20.4386 10.2291C20.6687 10.3791 20.8586 10.5591 21.0386 10.7691C21.1286 10.8791 21.2186 10.999 21.2886 11.1291C21.3587 11.239 21.4187 11.3591 21.4787 11.489C21.5387 11.619 21.5886 11.759 21.6386 11.8991C21.6986 12.0691 21.7487 12.259 21.7886 12.4591C21.8286 12.5991 21.8486 12.7491 21.8786 12.9091C21.8987 13.0591 21.9186 13.219 21.9386 13.3891C21.9786 13.8091 21.9986 14.2791 21.9986 14.7891Z" fill="white"/>
</svg>
