<svg width="24" height="24" viewBox="0 0 24 24" fill="none" xmlns="http://www.w3.org/2000/svg">
<path fill-rule="evenodd" clip-rule="evenodd" d="M11.9996 1.19922C9.01727 1.19922 6.59961 3.61688 6.59961 6.59922V10.7992H5.99961C4.67413 10.7992 3.59961 11.8737 3.59961 13.1992V20.3992C3.59961 21.7247 4.67413 22.7992 5.99961 22.7992H17.9996C19.3251 22.7992 20.3996 21.7247 20.3996 20.3992V13.1992C20.3996 11.8737 19.3251 10.7992 17.9996 10.7992H17.3996V6.59922C17.3996 3.61688 14.982 1.19922 11.9996 1.19922ZM15.5996 10.7992V6.59922C15.5996 4.611 13.9879 2.99922 11.9996 2.99922C10.0114 2.99922 8.39961 4.611 8.39961 6.59922V10.7992H15.5996Z" fill="#0F172A"/>
</svg>
