<svg width="24" height="24" viewBox="0 0 24 24" fill="none" xmlns="http://www.w3.org/2000/svg">
<path fill-rule="evenodd" clip-rule="evenodd" d="M17.3992 1.19922C14.4169 1.19922 11.9992 3.61688 11.9992 6.59922V10.7992H3.59922C2.27373 10.7992 1.19922 11.8737 1.19922 13.1992V20.3992C1.19922 21.7247 2.27373 22.7992 3.59922 22.7992H15.5992C16.9247 22.7992 17.9992 21.7247 17.9992 20.3992V13.1992C17.9992 11.8737 16.9247 10.7992 15.5992 10.7992H13.7992V6.59922C13.7992 4.611 15.4109 2.99922 17.3992 2.99922C19.3875 2.99922 20.9992 4.611 20.9992 6.59922V9.89922C20.9992 10.3963 21.4022 10.7992 21.8992 10.7992C22.3963 10.7992 22.7992 10.3963 22.7992 9.89922V6.59922C22.7992 3.61688 20.3816 1.19922 17.3992 1.19922Z" fill="#0F172A"/>
</svg>
