<svg width="24" height="24" viewBox="0 0 24 24" fill="none" xmlns="http://www.w3.org/2000/svg">
<path d="M12 7.75C10.11 7.75 9.75 8.54 9.75 10V10.62H14.25V10C14.25 8.54 13.89 7.75 12 7.75Z" fill="white"/>
<path d="M12.0005 15.0984C12.6079 15.0984 13.1004 14.6059 13.1004 13.9985C13.1004 13.3909 12.6079 12.8984 12.0005 12.8984C11.3929 12.8984 10.9004 13.3909 10.9004 13.9985C10.9004 14.6059 11.3929 15.0984 12.0005 15.0984Z" fill="white"/>
<path d="M12 2C6.48001 2 2 6.48 2 12C2 17.52 6.48001 22 12 22C17.52 22 22.0001 17.52 22.0001 12C22.0001 6.48 17.52 2 12 2ZM17.3801 14.5C17.3801 16.7 16.7 17.38 14.5001 17.38H9.5C7.3 17.38 6.62 16.7 6.62 14.5V13.5C6.62 11.79 7.03 11 8.25001 10.73V10C8.25001 9.07 8.25001 6.25 12 6.25C15.75 6.25 15.75 9.07 15.75 10V10.73C16.97 11 17.3801 11.79 17.3801 13.5V14.5Z" fill="white"/>
</svg>
