<svg width="24" height="24" viewBox="0 0 24 24" fill="none" xmlns="http://www.w3.org/2000/svg">
<path d="M7.88023 12.07C7.88023 11.66 8.22023 11.32 8.63023 11.32H14.1102V2.86C14.1002 2.38 13.7202 2 13.2402 2C7.35022 2 3.24023 6.11 3.24023 12C3.24023 17.89 7.35022 22 13.2402 22C13.7102 22 14.1002 21.62 14.1002 21.14V12.81H8.63023C8.21023 12.82 7.88023 12.48 7.88023 12.07Z" fill="white"/>
<path d="M20.5396 11.5441L17.6996 8.69407C17.4096 8.40406 16.9296 8.40406 16.6396 8.69407C16.3496 8.98407 16.3496 9.46407 16.6396 9.75406L18.1996 11.3141H14.0996V12.8141H18.1896L16.6296 14.3741C16.3396 14.6641 16.3396 15.1441 16.6296 15.4342C16.7796 15.5842 16.9696 15.6541 17.1596 15.6541C17.3496 15.6541 17.5396 15.5842 17.6896 15.4342L20.5296 12.5842C20.8296 12.3041 20.8296 11.8341 20.5396 11.5441Z" fill="white"/>
</svg>
