<svg width="24" height="24" viewBox="0 0 24 24" fill="none" xmlns="http://www.w3.org/2000/svg">
<path d="M16.8 2H14.2C11 2 9 4 9 7.2V11.25H15.25C15.66 11.25 16 11.59 16 12C16 12.41 15.66 12.75 15.25 12.75H9V16.8C9 20 11 22 14.2 22H16.79C19.99 22 21.99 20 21.99 16.8V7.2C22 4 20 2 16.8 2Z" fill="white"/>
<path d="M4.55946 11.2498L6.62946 9.17984C6.77946 9.02984 6.84945 8.83985 6.84945 8.64984C6.84945 8.45984 6.77946 8.25984 6.62946 8.11985C6.33945 7.82984 5.85945 7.82984 5.56945 8.11985L2.21946 11.4698C1.92945 11.7598 1.92945 12.2398 2.21946 12.5299L5.56945 15.8798C5.85945 16.1698 6.33945 16.1698 6.62946 15.8798C6.91945 15.5899 6.91945 15.1099 6.62946 14.8198L4.55946 12.7498H8.99946V11.2498H4.55946Z" fill="white"/>
</svg>
