<svg width="24" height="24" viewBox="0 0 24 24" fill="none" xmlns="http://www.w3.org/2000/svg">
<path d="M18.7988 9.91016C17.6688 9.91016 16.6588 10.4602 16.0288 11.3002C15.3988 10.4602 14.3888 9.91016 13.2588 9.91016C11.3488 9.91016 9.79883 11.4702 9.79883 13.3901C9.79883 14.1302 9.91883 14.8202 10.1188 15.4502C11.0988 18.5602 14.1388 20.4302 15.6388 20.9402C15.8488 21.0101 16.1988 21.0101 16.4088 20.9402C17.9088 20.4302 20.9488 18.5702 21.9288 15.4502C22.1388 14.8102 22.2488 14.1302 22.2488 13.3901C22.2588 11.4702 20.7088 9.91016 18.7988 9.91016Z" fill="white"/>
<path d="M20.75 8.33766C20.75 8.56765 20.52 8.71765 20.3 8.65765C18.95 8.30766 17.4701 8.59765 16.35 9.39766C16.13 9.55765 15.83 9.55765 15.62 9.39766C14.8301 8.81766 13.8701 8.49766 12.86 8.49766C10.28 8.49766 8.18 10.6077 8.18 13.2076C8.18 16.0276 9.53 18.1377 10.89 19.5477C10.96 19.6177 10.9 19.7377 10.81 19.6977C8.08 18.7677 2 14.9077 2 8.33766C2 5.43766 4.33 3.09766 7.21 3.09766C8.92 3.09766 10.43 3.91765 11.38 5.18766C12.3401 3.91765 13.85 3.09766 15.5501 3.09766C18.42 3.09766 20.75 5.43766 20.75 8.33766Z" fill="white"/>
</svg>
