<svg width="24" height="24" viewBox="0 0 24 24" fill="none" xmlns="http://www.w3.org/2000/svg">
<path d="M19.4998 7.5028L18.0098 8.99281L15.0098 5.99281L16.4998 4.5028C16.9198 4.0828 17.4598 3.88281 17.9998 3.88281C18.5398 3.88281 19.0798 4.0828 19.4998 4.5028C20.3297 5.33281 20.3297 6.67281 19.4998 7.5028Z" fill="white"/>
<path d="M17.3114 9.69922L6.50141 20.4992C5.67141 21.3292 4.3314 21.3292 3.50141 20.4992C2.67141 19.6693 2.67141 18.3292 3.50141 17.4992L14.3114 6.69922L17.3114 9.69922Z" fill="white"/>
<path d="M9.9505 3.4966L10.3605 2.1066C10.4005 1.97661 10.3605 1.8366 10.2705 1.73661C10.1805 1.6366 10.0205 1.5966 9.8905 1.6366L8.5005 2.0466L7.11051 1.6366C6.9805 1.5966 6.84051 1.6366 6.7405 1.7266C6.6405 1.82661 6.6105 1.9666 6.6505 2.09661L7.05051 3.4966L6.6405 4.88661C6.60051 5.0166 6.6405 5.1566 6.7305 5.2566C6.8305 5.3566 6.9705 5.3866 7.1005 5.3466L8.5005 4.94661L9.8905 5.3566C9.93051 5.36661 9.96051 5.3766 10.0005 5.3766C10.1005 5.3766 10.1905 5.33661 10.2705 5.2666C10.3705 5.1666 10.4005 5.0266 10.3605 4.8966L9.9505 3.4966Z" fill="white"/>
<path d="M5.94856 9.4966L6.35855 8.1066C6.39856 7.9766 6.35855 7.8366 6.26855 7.73661C6.16855 7.6366 6.02855 7.6066 5.89855 7.64661L4.49855 8.0466L3.10855 7.6366C2.97856 7.5966 2.83855 7.6366 2.73856 7.7266C2.63855 7.82661 2.60855 7.9666 2.64856 8.09661L3.04855 9.4966L2.63855 10.8866C2.59855 11.0166 2.63855 11.1566 2.72855 11.2566C2.82856 11.3566 2.96855 11.3866 3.09856 11.3466L4.48855 10.9366L5.87855 11.3466C5.90855 11.3566 5.94856 11.3566 5.98855 11.3566C6.08855 11.3566 6.17855 11.3166 6.25855 11.2466C6.35855 11.1466 6.38855 11.0066 6.34855 10.8766L5.94856 9.4966Z" fill="white"/>
<path d="M20.9497 14.5L21.3598 13.11C21.3997 12.9799 21.3598 12.84 21.2698 12.7399C21.1697 12.64 21.0298 12.61 20.8997 12.6499L19.5097 13.06L18.1198 12.6499C17.9897 12.61 17.8498 12.6499 17.7497 12.7399C17.6497 12.84 17.6197 12.9799 17.6597 13.11L18.0697 14.5L17.6597 15.8899C17.6197 16.02 17.6597 16.1599 17.7497 16.26C17.8498 16.36 17.9897 16.39 18.1198 16.35L19.5097 15.94L20.8997 16.35C20.9297 16.36 20.9698 16.36 21.0097 16.36C21.1097 16.36 21.1997 16.32 21.2797 16.2499C21.3797 16.15 21.4097 16.0099 21.3697 15.88L20.9497 14.5Z" fill="white"/>
</svg>
