<svg width="24" height="24" viewBox="0 0 24 24" fill="none" xmlns="http://www.w3.org/2000/svg">
<path fill-rule="evenodd" clip-rule="evenodd" d="M10.8004 4.19844C7.15531 4.19844 4.20039 7.15335 4.20039 10.7984C4.20039 14.4436 7.15531 17.3984 10.8004 17.3984C12.6232 17.3984 14.272 16.6607 15.4673 15.4654C16.6626 14.27 17.4004 12.6212 17.4004 10.7984C17.4004 7.15335 14.4455 4.19844 10.8004 4.19844ZM2.40039 10.7984C2.40039 6.15925 6.1612 2.39844 10.8004 2.39844C15.4396 2.39844 19.2004 6.15925 19.2004 10.7984C19.2004 12.7934 18.504 14.6272 17.3424 16.0678L21.3368 20.0621C21.6882 20.4136 21.6882 20.9833 21.3368 21.3348C20.9853 21.6863 20.4155 21.6863 20.064 21.3348L16.0697 17.3405C14.6291 18.5021 12.7954 19.1984 10.8004 19.1984C6.1612 19.1984 2.40039 15.4376 2.40039 10.7984Z" fill="#0F172A"/>
</svg>
