<svg width="24" height="24" viewBox="0 0 24 24" fill="none" xmlns="http://www.w3.org/2000/svg">
<path d="M7.80078 10.8008C7.80078 9.14393 9.14393 7.80078 10.8008 7.80078C12.4576 7.80078 13.8008 9.14393 13.8008 10.8008C13.8008 11.6295 13.466 12.3782 12.9221 12.9221C12.3782 13.466 11.6295 13.8008 10.8008 13.8008C9.14393 13.8008 7.80078 12.4576 7.80078 10.8008Z" fill="#0F172A"/>
<path fill-rule="evenodd" clip-rule="evenodd" d="M12.0004 21.5984C17.3024 21.5984 21.6004 17.3004 21.6004 11.9984C21.6004 6.6965 17.3024 2.39844 12.0004 2.39844C6.69845 2.39844 2.40039 6.6965 2.40039 11.9984C2.40039 17.3004 6.69845 21.5984 12.0004 21.5984ZM10.8004 5.99844C8.14942 5.99844 6.00039 8.14747 6.00039 10.7984C6.00039 13.4494 8.14942 15.5984 10.8004 15.5984C11.8002 15.5984 12.7295 15.2921 13.4981 14.769L15.264 16.5348C15.6155 16.8863 16.1853 16.8863 16.5368 16.5348C16.8882 16.1833 16.8882 15.6136 16.5368 15.2621L14.771 13.4962C15.294 12.7276 15.6004 11.7983 15.6004 10.7984C15.6004 8.14747 13.4513 5.99844 10.8004 5.99844Z" fill="#0F172A"/>
</svg>
