<svg width="24" height="24" viewBox="0 0 24 24" fill="none" xmlns="http://www.w3.org/2000/svg">
<path d="M8.09922 9.89844C7.60217 9.89844 7.19922 10.3014 7.19922 10.7984C7.19922 11.2955 7.60217 11.6984 8.09922 11.6984H13.4992C13.9963 11.6984 14.3992 11.2955 14.3992 10.7984C14.3992 10.3014 13.9963 9.89844 13.4992 9.89844H8.09922Z" fill="#0F172A"/>
<path fill-rule="evenodd" clip-rule="evenodd" d="M10.8004 2.39844C6.1612 2.39844 2.40039 6.15925 2.40039 10.7984C2.40039 15.4376 6.1612 19.1984 10.8004 19.1984C12.7954 19.1984 14.6291 18.5021 16.0697 17.3405L20.064 21.3348C20.4155 21.6863 20.9853 21.6863 21.3368 21.3348C21.6882 20.9833 21.6882 20.4136 21.3368 20.0621L17.3424 16.0678C18.504 14.6272 19.2004 12.7934 19.2004 10.7984C19.2004 6.15925 15.4396 2.39844 10.8004 2.39844ZM4.20039 10.7984C4.20039 7.15335 7.15531 4.19844 10.8004 4.19844C14.4455 4.19844 17.4004 7.15335 17.4004 10.7984C17.4004 12.6212 16.6626 14.27 15.4673 15.4654C14.272 16.6607 12.6232 17.3984 10.8004 17.3984C7.15531 17.3984 4.20039 14.4436 4.20039 10.7984Z" fill="#0F172A"/>
</svg>
