<svg width="24" height="24" viewBox="0 0 24 24" fill="none" xmlns="http://www.w3.org/2000/svg">
<path d="M16.5098 5.01L14.5498 3.05C13.1498 1.65 10.8498 1.65 9.44976 3.05L7.48977 5.01C7.09977 5.4 7.09977 6.04001 7.48977 6.43001L11.2998 10.24C11.6898 10.63 12.3198 10.63 12.7098 10.24L16.5198 6.43001C16.8998 6.04001 16.8998 5.4 16.5098 5.01Z" fill="white"/>
<path d="M5.01 7.48781L3.04999 9.44782C1.65 10.8478 1.65 13.1478 3.04999 14.5478L5.01 16.5078C5.4 16.8978 6.03 16.8978 6.42 16.5078L10.23 12.6978C10.62 12.3078 10.62 11.6779 10.23 11.2879L6.43 7.48781C6.04 7.09781 5.4 7.09781 5.01 7.48781Z" fill="white"/>
<path d="M20.951 9.44782L18.991 7.48781C18.601 7.09781 17.971 7.09781 17.581 7.48781L13.771 11.2978C13.381 11.6878 13.381 12.3179 13.771 12.7079L17.581 16.5179C17.971 16.9079 18.601 16.9079 18.991 16.5179L20.951 14.5578C22.351 13.1478 22.351 10.8478 20.951 9.44782Z" fill="white"/>
<path d="M7.49103 18.9891L9.45103 20.9491C10.8511 22.3491 13.1511 22.3491 14.551 20.9491L16.5111 18.9891C16.9011 18.5991 16.9011 17.9691 16.5111 17.5791L12.7011 13.7691C12.3111 13.3791 11.6811 13.3791 11.2911 13.7691L7.48103 17.5791C7.10103 17.9591 7.10103 18.5991 7.49103 18.9891Z" fill="white"/>
</svg>
