<svg width="24" height="24" viewBox="0 0 24 24" fill="none" xmlns="http://www.w3.org/2000/svg">
<path d="M22.1899 2.21C22.12 2.03 21.97 1.88 21.79 1.81C21.69 1.77 21.6 1.75 21.4999 1.75H15C14.59 1.75 14.25 2.09 14.25 2.5C14.25 2.91 14.59 3.25 15 3.25H19.69L15.18 7.77H15.1699C13.83 6.66 12.12 6 10.25 6C5.96999 6 2.5 9.47 2.5 13.75C2.5 18.03 5.96999 21.5 10.25 21.5C14.53 21.5 18 18.03 18 13.75C18 11.88 17.34 10.17 16.23 8.83L20.7499 4.31V9C20.7499 9.41 21.09 9.75 21.4999 9.75C21.91 9.75 22.2499 9.41 22.2499 9V2.5C22.2499 2.4 22.23 2.31 22.1899 2.21Z" fill="white"/>
</svg>
