<svg width="24" height="24" viewBox="0 0 24 24" fill="none" xmlns="http://www.w3.org/2000/svg">
<path fill-rule="evenodd" clip-rule="evenodd" d="M11.6277 22.718L11.6311 22.7195C11.8676 22.8224 11.9996 22.7984 11.9996 22.7984C11.9996 22.7984 12.1316 22.8224 12.3691 22.7191L12.3715 22.718L12.3784 22.7149L12.4002 22.7048C12.4182 22.6964 12.4432 22.6847 12.4747 22.6696C12.5377 22.6392 12.6266 22.5952 12.738 22.5371C12.9606 22.421 13.273 22.2487 13.6456 22.0178C14.389 21.557 15.3805 20.8576 16.3742 19.8997C18.3622 17.9836 20.3996 14.9894 20.3996 10.7984C20.3996 6.15925 16.6388 2.39844 11.9996 2.39844C7.36042 2.39844 3.59961 6.15925 3.59961 10.7984C3.59961 14.9894 5.63701 17.9836 7.62503 19.8997C8.61878 20.8576 9.61013 21.557 10.3536 22.0178C10.7262 22.2487 11.0387 22.421 11.2612 22.5371C11.3725 22.5952 11.4616 22.6392 11.5245 22.6696C11.556 22.6847 11.581 22.6964 11.599 22.7048L11.6208 22.7149L11.6277 22.718ZM11.9996 13.4984C13.4907 13.4984 14.6996 12.2896 14.6996 10.7984C14.6996 9.30727 13.4907 8.09844 11.9996 8.09844C10.5084 8.09844 9.29961 9.30727 9.29961 10.7984C9.29961 12.2896 10.5084 13.4984 11.9996 13.4984Z" fill="#0F172A"/>
</svg>
