<svg width="24" height="24" viewBox="0 0 24 24" fill="none" xmlns="http://www.w3.org/2000/svg">
<path d="M7.62906 3.56966C7.80845 3.47182 7.99907 3.62234 7.99907 3.82668V17.3825C7.99907 17.6058 7.84665 17.7946 7.64927 17.8987C7.64249 17.9023 7.63576 17.9059 7.62906 17.9096L5.27907 19.2497C3.63906 20.1896 2.28906 19.4096 2.28906 17.5097V7.77966C2.28906 7.14966 2.73906 6.36966 3.29907 6.04967L7.62906 3.56966Z" fill="white"/>
<path d="M14.7218 6.10264C14.8922 6.187 15 6.36064 15 6.55071V19.7039C15 20.0724 14.615 20.3142 14.283 20.1544L10.033 18.1068C9.85998 18.0234 9.75 17.8482 9.75 17.6562V4.44595C9.75 4.07509 10.1396 3.8333 10.4719 3.99789L14.7218 6.10264Z" fill="white"/>
<path d="M22 6.49006V16.2202C22 16.8502 21.55 17.6302 20.99 17.9501L17.4986 19.951C17.1653 20.1421 16.75 19.9014 16.75 19.5172V6.33039C16.75 6.15088 16.8462 5.98513 17.0021 5.89615L19.01 4.75007C20.65 3.81006 22 4.59006 22 6.49006Z" fill="white"/>
</svg>
