<svg width="24" height="24" viewBox="0 0 24 24" fill="none" xmlns="http://www.w3.org/2000/svg">
<path fill-rule="evenodd" clip-rule="evenodd" d="M9.78862 2.60943C9.34792 2.42707 8.85286 2.42707 8.41216 2.60943L3.51215 4.63702C2.83923 4.91547 2.40039 5.57198 2.40039 6.30025V19.3523C2.40039 20.6347 3.70352 21.5058 4.88863 21.0155L9.10039 19.2726L14.2121 21.3878C14.6529 21.5702 15.1479 21.5702 15.5886 21.3878L20.4886 19.3603C21.1616 19.0818 21.6004 18.4253 21.6004 17.697V4.64507C21.6004 3.36253 20.2973 2.49146 19.1122 2.98184L14.9004 4.72465L9.78862 2.60943ZM9.09649 5.99869C9.59354 5.99869 9.99649 6.40163 9.99649 6.89869V14.6987C9.99649 15.1957 9.59354 15.5987 9.09649 15.5987C8.59942 15.5987 8.19649 15.1957 8.19649 14.6987V6.89869C8.19649 6.40163 8.59942 5.99869 9.09649 5.99869ZM15.8043 9.29869C15.8043 8.80163 15.4013 8.39869 14.9043 8.39869C14.4072 8.39869 14.0043 8.80163 14.0043 9.29869V17.0987C14.0043 17.5957 14.4072 17.9987 14.9043 17.9987C15.4013 17.9987 15.8043 17.5957 15.8043 17.0987V9.29869Z" fill="#0F172A"/>
</svg>
