<svg width="24" height="24" viewBox="0 0 24 24" fill="none" xmlns="http://www.w3.org/2000/svg">
<path d="M16.2401 9.52364L20.9501 14.2336C21.2301 14.5136 21.7202 14.3636 21.8001 13.9736C21.9302 13.3336 22.0001 12.6736 22.0001 12.0036C22.0001 9.71364 21.2201 7.60364 19.9301 5.92364C19.7501 5.68364 19.3901 5.67365 19.1801 5.88365L16.2401 8.82365C16.0502 9.01364 16.0502 9.33365 16.2401 9.52364Z" fill="white"/>
<path d="M14.4806 10.58L12.7106 12.35C12.5105 12.55 12.5105 12.86 12.7106 13.06L18.5306 18.88C18.7306 19.08 19.0505 19.08 19.2406 18.88C19.8605 18.23 20.3906 17.5 20.8205 16.71C20.9206 16.52 20.8805 16.27 20.7305 16.12L15.1906 10.58C14.9906 10.39 14.6705 10.39 14.4806 10.58Z" fill="white"/>
<path d="M10.9413 14.1204L9.18125 15.8803C8.98125 16.0804 8.98125 16.3903 9.18125 16.5904L14.1013 21.5203C14.2312 21.6503 14.4213 21.7003 14.5912 21.6503C15.5212 21.4003 16.4013 21.0203 17.2012 20.5204C17.4712 20.3503 17.5113 19.9703 17.2813 19.7404L11.6513 14.1103C11.4513 13.9303 11.1313 13.9303 10.9413 14.1204Z" fill="white"/>
<path d="M18.0797 4.06967C16.0997 2.53967 13.5297 1.73967 10.7697 2.06967C6.25967 2.60968 2.60967 6.26968 2.06967 10.7697C1.73967 13.5297 2.53967 16.0897 4.06967 18.0797C4.24967 18.3197 4.60967 18.3297 4.81967 18.1197L18.1197 4.81967C18.3297 4.60967 18.3197 4.24967 18.0797 4.06967Z" fill="white"/>
<path d="M7.39974 17.6657L5.87974 19.1856C5.66974 19.3956 5.67974 19.7556 5.91974 19.9356C7.42974 21.1056 9.27974 21.8456 11.3097 21.9857C11.7397 22.0157 11.9497 21.5057 11.6397 21.1956L8.10974 17.6657C7.91974 17.4656 7.59974 17.4656 7.39974 17.6657Z" fill="white"/>
</svg>
