<svg width="24" height="24" viewBox="0 0 24 24" fill="none" xmlns="http://www.w3.org/2000/svg">
<path d="M18.6493 4.59125C16.8894 2.99125 14.5593 2.03125 11.9993 2.03125C6.4993 2.03125 2.0293 6.50125 2.0293 12.0012C2.0293 17.5013 6.4993 21.9713 11.9993 21.9713C14.5593 21.9713 16.8894 21.0113 18.6493 19.4112C20.6893 17.6012 21.9693 14.9412 21.9693 12.0012C21.9693 9.06125 20.6893 6.40124 18.6493 4.59125ZM11.9693 16.3913C11.9493 18.0413 10.7193 18.4412 9.56929 17.9813C7.19929 17.0312 5.52929 14.7113 5.52929 12.0012C5.52929 9.29125 7.19929 6.97124 9.56929 6.01124C10.7193 5.55125 11.9493 5.96125 11.9693 7.60124V16.3913Z" fill="white"/>
</svg>
