<svg width="24" height="24" viewBox="0 0 24 24" fill="none" xmlns="http://www.w3.org/2000/svg">
<path d="M21.6895 2.71C21.6095 2.53 21.4694 2.38 21.2795 2.3C21.1895 2.27 21.0995 2.25 20.9995 2.25H16.9994C16.5895 2.25 16.2494 2.59 16.2494 3C16.2494 3.41 16.5895 3.75 16.9994 3.75H19.1894L14.4695 8.47C14.1794 8.76 14.1794 9.24 14.4695 9.53C14.6195 9.68 14.8094 9.75 14.9995 9.75C15.1895 9.75 15.3794 9.68 15.5294 9.53L20.2495 4.81V7C20.2495 7.41 20.5895 7.75 20.9995 7.75C21.4094 7.75 21.7495 7.41 21.7495 7V3C21.7495 2.9 21.7295 2.81 21.6895 2.71Z" fill="white"/>
<path d="M8.47 14.4674L3.75 19.1875V16.9975C3.75 16.5875 3.41 16.2475 3 16.2475C2.59 16.2475 2.25 16.5875 2.25 16.9975V20.9975C2.25 21.0976 2.27 21.1874 2.31 21.2875C2.39 21.4675 2.53 21.6175 2.72 21.6974C2.8 21.7274 2.9 21.7475 3 21.7475H7C7.41 21.7475 7.75 21.4075 7.75 20.9975C7.75 20.5876 7.41 20.2475 7 20.2475H4.81L9.53 15.5275C9.82 15.2375 9.82 14.7575 9.53 14.4674C9.24 14.1775 8.76 14.1775 8.47 14.4674Z" fill="white"/>
<path d="M2.2 14.75C1.85 14.75 1.54 14.5 1.47001 14.15C1.33 13.45 1.25 12.72 1.25 12C1.25 6.07 6.07 1.25 12 1.25C12.7301 1.25 13.46 1.32 14.1701 1.47C14.58 1.55 14.84 1.95 14.76 2.35C14.6801 2.76 14.27 3.01 13.88 2.94C13.25 2.81 12.63 2.75 12 2.75C6.90001 2.75 2.75 6.9 2.75 12C2.75 12.62 2.81 13.25 2.94001 13.85C3.02 14.26 2.76001 14.65 2.35 14.73C2.3 14.75 2.25001 14.75 2.2 14.75Z" fill="white"/>
<path d="M12.001 22.7522C11.271 22.7522 10.541 22.6823 9.83101 22.5323C9.421 22.4522 9.16101 22.0523 9.241 21.6522C9.32101 21.2423 9.73101 20.9922 10.121 21.0623C10.731 21.1823 11.361 21.2522 11.991 21.2522C17.091 21.2522 21.241 17.1023 21.241 12.0023C21.241 11.3823 21.181 10.7623 21.061 10.1523C20.981 9.74226 21.241 9.35226 21.651 9.27226C22.061 9.19225 22.451 9.45226 22.531 9.86226C22.671 10.5623 22.741 11.2823 22.741 12.0023C22.751 17.9322 17.931 22.7522 12.001 22.7522Z" fill="white"/>
</svg>
