<svg width="24" height="24" viewBox="0 0 24 24" fill="none" xmlns="http://www.w3.org/2000/svg">
<path d="M12 15C15.7279 15 18.75 12.0899 18.75 8.5C18.75 4.91014 15.7279 2 12 2C8.27208 2 5.25 4.91014 5.25 8.5C5.25 12.0899 8.27208 15 12 15Z" fill="white"/>
<path d="M15.79 15.6091C16.12 15.4391 16.5 15.689 16.5 16.0591V20.909C16.5 21.809 15.87 22.2491 15.09 21.8791L12.41 20.609C12.18 20.5091 11.82 20.5091 11.59 20.609L8.91 21.8791C8.13 22.2391 7.5 21.7991 7.5 20.8991L7.52 16.0591C7.52 15.689 7.91 15.449 8.23 15.6091C9.36 16.1791 10.64 16.499 12 16.499C13.36 16.499 14.65 16.1791 15.79 15.6091Z" fill="white"/>
</svg>
