<svg width="24" height="24" viewBox="0 0 24 24" fill="none" xmlns="http://www.w3.org/2000/svg">
<path d="M16.7035 4.61328C14.3823 5.80947 11.8356 6.62856 9.14387 6.98999C8.11573 7.12804 7.06604 7.19937 5.99922 7.19937C3.34825 7.19937 1.19922 9.3484 1.19922 11.9994C1.19922 14.4454 3.02894 16.4642 5.39438 16.7617C5.7446 18.1269 6.25097 19.4716 6.91967 20.7711C7.39554 21.696 8.53004 21.9697 9.38037 21.4788L10.4196 20.8788C11.2914 20.3755 11.5482 19.2934 11.126 18.4532C10.9266 18.0566 10.7474 17.6548 10.5879 17.249C12.7484 17.6784 14.8016 18.4053 16.7033 19.3855C17.5419 17.0811 17.9992 14.5936 17.9992 11.9994C17.9992 9.4051 17.5419 6.91767 16.7035 4.61328Z" fill="#0F172A"/>
<path d="M18.2923 3.71756C19.2673 6.29275 19.801 9.0849 19.801 12.0017C19.801 14.9185 19.2673 17.7107 18.2923 20.2859L18.2572 20.3785C18.0792 20.8426 18.3112 21.3631 18.7752 21.5411C19.2394 21.7192 19.7598 21.4872 19.9379 21.023C20.0412 20.7536 20.14 20.4821 20.2343 20.2084C20.8992 18.2768 21.3359 16.2396 21.5124 14.1292C22.2784 13.7282 22.801 12.9265 22.801 12.0017C22.801 11.0768 22.2784 10.2751 21.5124 9.87427C21.3359 7.76379 20.8992 5.72652 20.2343 3.79506C20.14 3.5213 20.0412 3.24969 19.9379 2.98032C19.7598 2.51622 19.2394 2.28428 18.7752 2.46226C18.3112 2.64026 18.0792 3.16077 18.2572 3.62487L18.2923 3.71756C18.2923 3.71751 18.2922 3.7176 18.2923 3.71756Z" fill="#0F172A"/>
</svg>
