<svg width="24" height="24" viewBox="0 0 24 24" fill="none" xmlns="http://www.w3.org/2000/svg">
<path d="M17.5401 8.81063C19.1748 8.81063 20.5 7.48539 20.5 5.85062C20.5 4.21586 19.1748 2.89062 17.5401 2.89062C15.9052 2.89062 14.5801 4.21586 14.5801 5.85062C14.5801 7.48539 15.9052 8.81063 17.5401 8.81063Z" fill="white"/>
<path d="M6.46 8.81063C8.09476 8.81063 9.42001 7.48539 9.42001 5.85062C9.42001 4.21586 8.09476 2.89062 6.46 2.89062C4.82524 2.89062 3.5 4.21586 3.5 5.85062C3.5 7.48539 4.82524 8.81063 6.46 8.81063Z" fill="white"/>
<path d="M17.5401 21.1076C19.1748 21.1076 20.5 19.7823 20.5 18.1475C20.5 16.5128 19.1748 15.1875 17.5401 15.1875C15.9052 15.1875 14.5801 16.5128 14.5801 18.1475C14.5801 19.7823 15.9052 21.1076 17.5401 21.1076Z" fill="white"/>
<path d="M6.46 21.1076C8.09476 21.1076 9.42001 19.7823 9.42001 18.1475C9.42001 16.5128 8.09476 15.1875 6.46 15.1875C4.82524 15.1875 3.5 16.5128 3.5 18.1475C3.5 19.7823 4.82524 21.1076 6.46 21.1076Z" fill="white"/>
</svg>
