<svg width="24" height="24" viewBox="0 0 24 24" fill="none" xmlns="http://www.w3.org/2000/svg">
<path d="M20.8989 9.85L21.4889 19.74C21.5089 20.01 21.3789 20.19 21.3089 20.27C21.2289 20.36 21.0589 20.5 20.7789 20.5H18.0489L20.2089 9.85H20.8989ZM21.9989 6L21.9889 6.02C22.0089 6.26 21.9889 6.51 21.9289 6.76L14.5589 20.29C14.3189 21.3 13.4189 22 12.3789 22H20.7789C22.0689 22 23.0889 20.91 22.9889 19.62L21.9989 6Z" fill="white"/>
<path d="M11.4502 2.24136C11.5502 1.84136 11.3002 1.43136 10.9002 1.33136C10.5002 1.24136 10.0902 1.48136 9.99024 1.88136L9.49023 3.95136H11.0302L11.4502 2.24136Z" fill="white"/>
<path d="M18.0489 2.21249C18.1389 1.8025 17.8789 1.4125 17.4689 1.3225C17.0689 1.2325 16.6689 1.49249 16.5789 1.90249L16.1289 3.97249H17.6689L18.0489 2.21249Z" fill="white"/>
<path d="M21.8198 5.3275C21.4898 4.5275 20.7098 3.9575 19.7498 3.9575H17.6698L17.1098 6.5475C17.0298 6.8975 16.7198 7.1375 16.3798 7.1375C16.3298 7.1375 16.2698 7.1375 16.2198 7.1175C15.8198 7.0275 15.5598 6.6275 15.6398 6.2275L16.1298 3.9475H11.0298L10.3998 6.5475C10.3198 6.8875 10.0098 7.1175 9.66975 7.1175C9.60975 7.1175 9.54975 7.1075 9.48975 7.0975C9.08976 6.9975 8.83976 6.5975 8.93975 6.1875L9.47975 3.9375H7.44975C6.46976 3.9375 5.59976 4.5775 5.30975 5.5175L1.09975 19.0675C0.659757 20.5176 1.72976 21.9976 3.23975 21.9976H16.3798C17.4198 21.9976 18.3198 21.2976 18.5598 20.2876L21.9298 6.7575C21.9898 6.5075 22.0098 6.2575 21.9898 6.0175C21.9698 5.7775 21.9198 5.5375 21.8198 5.3275ZM14.6998 16.7476H6.69975C6.28976 16.7476 5.94975 16.4076 5.94975 15.9976C5.94975 15.5875 6.28976 15.2476 6.69975 15.2476H14.6998C15.1098 15.2476 15.4498 15.5875 15.4498 15.9976C15.4498 16.4076 15.1098 16.7476 14.6998 16.7476ZM15.6998 12.7476H7.69976C7.28975 12.7476 6.94976 12.4075 6.94976 11.9976C6.94976 11.5875 7.28975 11.2476 7.69976 11.2476H15.6998C16.1098 11.2476 16.4498 11.5875 16.4498 11.9976C16.4498 12.4075 16.1098 12.7476 15.6998 12.7476Z" fill="white"/>
</svg>
