<svg width="24" height="24" viewBox="0 0 24 24" fill="none" xmlns="http://www.w3.org/2000/svg">
<path d="M15.59 12.4V16.47C15.59 16.83 15.5501 17.17 15.4601 17.48C15.09 18.95 13.8701 19.87 12.1901 19.87H9.47L6.45001 21.88C6.00001 22.19 5.40001 21.86 5.40001 21.32V19.87C4.38001 19.87 3.53 19.53 2.94001 18.94C2.34001 18.34 2 17.49 2 16.47V12.4C2 10.5 3.18001 9.19 5 9.02C5.13001 9.01 5.26 9 5.40001 9H12.1901C14.2301 9 15.59 10.36 15.59 12.4Z" fill="white"/>
<path d="M17.75 15.6C19.02 15.6 20.09 15.18 20.8301 14.43C21.5801 13.69 22.0001 12.62 22.0001 11.35V6.25C22.0001 3.9 20.1 2 17.75 2H9.25C6.90001 2 5 3.9 5 6.25V7C5 7.28 5.22001 7.5 5.5 7.5H12.1901C14.9 7.5 17.09 9.69 17.09 12.4V15.1C17.09 15.38 17.31 15.6 17.5901 15.6H17.75Z" fill="white"/>
</svg>
