<svg width="24" height="24" viewBox="0 0 24 24" fill="none" xmlns="http://www.w3.org/2000/svg">
<path d="M5.21 13.5078C4.12 13.4379 2.99999 13.8378 2.17 14.6679C0.609999 16.2279 0.609999 18.7578 2.17 20.3279C2.69999 20.8578 3.35 21.2079 4.04 21.3779C4.42 21.4779 4.82 21.5079 5.21999 21.4878C6.17 21.4479 7.1 21.0678 7.82999 20.3379C8.86 19.3079 9.20999 17.8578 8.87999 16.5479C8.72 15.8579 8.36 15.2079 7.82999 14.6778C7.10999 13.9479 6.17 13.5579 5.21 13.5078ZM7.24 17.4779C7.24 17.6879 7.16 17.8679 7.01999 18.0078C6.88 18.1479 6.7 18.2279 6.49 18.2279H5.75V19.0079C5.75 19.2179 5.66999 19.3979 5.53 19.5378C5.39 19.6779 5.21 19.7579 5 19.7579C4.58999 19.7579 4.25 19.4178 4.25 19.0079V18.2279H3.5C3.08999 18.2279 2.75 17.8878 2.75 17.4779C2.75 17.0679 3.08999 16.7279 3.5 16.7279H4.25V16.0179C4.25 15.6078 4.58999 15.2679 5 15.2679C5.41 15.2679 5.75 15.6078 5.75 16.0179V16.7279H6.49C6.91 16.7279 7.24 17.0679 7.24 17.4779Z" fill="white"/>
<path d="M17.25 2.42969H7.75C4.9 2.42969 3 4.32968 3 7.17968V11.6397C3 11.9897 3.36 12.2396 3.7 12.1496C4.12 12.0497 4.55 11.9997 5 11.9997C7.86 11.9997 10.22 14.3197 10.48 17.1296C10.5 17.4097 10.73 17.6297 11 17.6297H11.55L15.78 20.4497C16.4 20.8697 17.25 20.4097 17.25 19.6496V17.6297C18.67 17.6297 19.86 17.1497 20.69 16.3297C21.52 15.4897 22 14.2997 22 12.8797V7.17968C22 4.32968 20.1 2.42969 17.25 2.42969ZM15.83 10.8097H9.17C8.78 10.8097 8.46 10.4897 8.46 10.0997C8.46 9.69968 8.78 9.37968 9.17 9.37968H15.83C16.22 9.37968 16.54 9.69968 16.54 10.0997C16.54 10.4897 16.22 10.8097 15.83 10.8097Z" fill="white"/>
</svg>
