<svg width="24" height="24" viewBox="0 0 24 24" fill="none" xmlns="http://www.w3.org/2000/svg">
<path d="M7.97 14.83C7.25 14.01 6.17999 13.5 5 13.5C2.78999 13.5 1 15.29 1 17.5C1 18.25 1.21 18.96 1.58 19.56C1.78 19.9 2.03999 20.21 2.33999 20.47C3.04 21.11 3.97 21.5 5 21.5C6.46 21.5 7.73 20.72 8.42 19.56C8.78999 18.96 8.99999 18.25 8.99999 17.5C8.99999 16.48 8.60999 15.54 7.97 14.83ZM6.59999 19.08C6.44999 19.23 6.26 19.3 6.07 19.3C5.87999 19.3 5.69 19.23 5.54 19.08L5.00999 18.55L4.46 19.1C4.31 19.25 4.12 19.32 3.92999 19.32C3.74 19.32 3.55 19.25 3.4 19.1C3.11 18.81 3.11 18.33 3.4 18.04L3.95 17.49L3.41999 16.96C3.13 16.67 3.13 16.19 3.41999 15.9C3.71 15.61 4.19 15.61 4.48 15.9L5.00999 16.43L5.51 15.93C5.8 15.64 6.28 15.64 6.56999 15.93C6.86 16.22 6.86 16.7 6.56999 16.99L6.07 17.49L6.59999 18.02C6.89 18.31 6.89 18.78 6.59999 19.08Z" fill="white"/>
<path d="M17.25 2.42969H7.75C4.9 2.42969 3 4.32968 3 7.17968V11.6397C3 11.9897 3.36 12.2396 3.7 12.1496C4.12 12.0497 4.55 11.9997 5 11.9997C7.86 11.9997 10.22 14.3197 10.48 17.1296C10.5 17.4097 10.73 17.6297 11 17.6297H11.55L15.78 20.4497C16.4 20.8697 17.25 20.4097 17.25 19.6496V17.6297C18.67 17.6297 19.86 17.1497 20.69 16.3297C21.52 15.4897 22 14.2997 22 12.8797V7.17968C22 4.32968 20.1 2.42969 17.25 2.42969ZM15.83 10.8097H9.17C8.78 10.8097 8.46 10.4897 8.46 10.0997C8.46 9.69968 8.78 9.37968 9.17 9.37968H15.83C16.22 9.37968 16.54 9.69968 16.54 10.0997C16.54 10.4897 16.22 10.8097 15.83 10.8097Z" fill="white"/>
</svg>
