<svg width="24" height="24" viewBox="0 0 24 24" fill="none" xmlns="http://www.w3.org/2000/svg">
<path d="M20 6.75C21.5188 6.75 22.75 5.51878 22.75 4C22.75 2.48122 21.5188 1.25 20 1.25C18.4812 1.25 17.25 2.48122 17.25 4C17.25 5.51878 18.4812 6.75 20 6.75Z" fill="white"/>
<path d="M19.04 8.15C17.4701 7.80999 16.19 6.53 15.8501 4.96C15.72 4.35 15.71 3.76 15.8201 3.2C15.95 2.58 15.4901 2 14.85 2H7C4.24 2 2 4.24 2 7V13.95C2 16.71 4.24 18.95 7 18.95H8.5C8.78 18.95 9.14 19.13 9.30001 19.35L10.8 21.34C11.46 22.22 12.54 22.22 13.2 21.34L14.7 19.35C14.8901 19.1 15.18 18.95 15.5 18.95H17.01C19.77 18.95 22.0001 16.72 22.0001 13.96V9.15C22.0001 8.52 21.42 8.06 20.8001 8.18C20.24 8.28 19.65 8.28 19.04 8.15ZM8 12C7.44001 12 7 11.55 7 11C7 10.45 7.44001 10 8 10C8.55001 10 9.00001 10.45 9.00001 11C9.00001 11.55 8.56 12 8 12ZM12 12C11.44 12 11 11.55 11 11C11 10.45 11.44 10 12 10C12.5501 10 13.0001 10.45 13.0001 11C13.0001 11.55 12.56 12 12 12ZM16.0001 12C15.44 12 15 11.55 15 11C15 10.45 15.44 10 16.0001 10C16.55 10 17 10.45 17 11C17 11.55 16.56 12 16.0001 12Z" fill="white"/>
</svg>
