<svg width="24" height="24" viewBox="0 0 24 24" fill="none" xmlns="http://www.w3.org/2000/svg">
<path d="M16.0001 1.96875H8C4 1.96875 2 3.96875 2 7.96875V12.9688C2 17.9688 4 18.9688 8 18.9688H8.5C8.78 18.9688 9.14 19.1488 9.30001 19.3687L10.8 21.3688C11.46 22.2487 12.54 22.2487 13.2 21.3688L14.7 19.3687C14.8901 19.1188 15.1901 18.9688 15.5 18.9688H16.0001C20 18.9688 22.0001 16.9687 22.0001 12.9688V7.96875C22.0001 3.96875 20 1.96875 16.0001 1.96875ZM8.53 12.1687C8.82001 12.4588 8.82001 12.9388 8.53 13.2288C8.38 13.3788 8.19001 13.4488 8 13.4488C7.81 13.4488 7.62001 13.3788 7.47001 13.2288L5.47 11.2288C5.18 10.9387 5.18 10.4587 5.47 10.1688L7.47001 8.16875C7.76 7.87875 8.24 7.87875 8.53 8.16875C8.82001 8.45876 8.82001 8.93876 8.53 9.22875L7.06 10.6987L8.53 12.1687ZM13.6901 8.65875L11.69 13.3288C11.57 13.6087 11.29 13.7788 11 13.7788C10.9 13.7788 10.8 13.7587 10.7 13.7188C10.32 13.5588 10.14 13.1188 10.31 12.7288L12.3101 8.05876C12.47 7.67876 12.9101 7.49876 13.3001 7.66875C13.68 7.83875 13.85 8.27876 13.6901 8.65875ZM18.53 11.2288L16.53 13.2288C16.38 13.3788 16.19 13.4488 16.0001 13.4488C15.81 13.4488 15.62 13.3788 15.47 13.2288C15.18 12.9388 15.18 12.4588 15.47 12.1687L16.94 10.6987L15.47 9.22875C15.18 8.93876 15.18 8.45876 15.47 8.16875C15.7601 7.87875 16.2401 7.87875 16.53 8.16875L18.53 10.1688C18.8201 10.4587 18.8201 10.9387 18.53 11.2288Z" fill="white"/>
</svg>
