<svg width="24" height="24" viewBox="0 0 24 24" fill="none" xmlns="http://www.w3.org/2000/svg">
<path d="M16.0001 2H8C4 2 2 4 2 8V21C2 21.55 2.45 22 3.00001 22H16.0001C20 22 22.0001 20 22.0001 16V8C22.0001 4 20 2 16.0001 2ZM15.5 12.75H12.75V15.5C12.75 15.91 12.41 16.25 12 16.25C11.59 16.25 11.25 15.91 11.25 15.5V12.75H8.5C8.09 12.75 7.75 12.41 7.75 12C7.75 11.59 8.09 11.25 8.5 11.25H11.25V8.5C11.25 8.09 11.59 7.75 12 7.75C12.41 7.75 12.75 8.09 12.75 8.5V11.25H15.5C15.9101 11.25 16.25 11.59 16.25 12C16.25 12.41 15.9101 12.75 15.5 12.75Z" fill="white"/>
</svg>
