<svg width="24" height="24" viewBox="0 0 24 24" fill="none" xmlns="http://www.w3.org/2000/svg">
<path d="M18.4704 16.83L18.8604 19.99C18.9605 20.82 18.0704 21.4 17.3604 20.97L13.9004 18.91C13.6604 18.77 13.6004 18.47 13.7304 18.23C14.2304 17.31 14.5004 16.27 14.5004 15.23C14.5004 11.57 11.3604 8.59 7.50038 8.59C6.71038 8.59 5.94038 8.71 5.22038 8.95C4.85038 9.07 4.49038 8.73 4.58038 8.35C5.49038 4.71 8.99038 2 13.1705 2C18.0504 2 22.0004 5.69 22.0004 10.24C22.0004 12.94 20.6105 15.33 18.4704 16.83Z" fill="white"/>
<path d="M13.0001 15.226C13.0001 16.416 12.56 17.5159 11.82 18.3859C10.83 19.5859 9.26 20.356 7.50001 20.356L4.89001 21.9059C4.45 22.1759 3.89 21.8059 3.95 21.2959L4.20001 19.3259C2.86 18.3959 2 16.906 2 15.226C2 13.4659 2.94001 11.9159 4.38001 10.9959C5.27 10.4159 6.34 10.0859 7.50001 10.0859C10.54 10.0859 13.0001 12.3859 13.0001 15.226Z" fill="white"/>
</svg>
