<svg width="24" height="24" viewBox="0 0 24 24" fill="none" xmlns="http://www.w3.org/2000/svg">
<path d="M16.19 2H7.81C4.17001 2 2 4.17 2 7.81V16.18C2 19.83 4.17001 22 7.81 22H16.1801C19.82 22 21.99 19.83 21.99 16.19V7.81C22.0001 4.17 19.83 2 16.19 2ZM18.2801 12.91C18.2801 13.11 18.27 13.31 18.2501 13.5C18.0701 15.62 16.82 16.68 14.52 16.68H14.2001C14 16.68 13.8101 16.77 13.7 16.93L12.7601 18.19C12.3401 18.75 11.67 18.75 11.25 18.19L10.31 16.93C10.21 16.8 9.98 16.68 9.81001 16.68H9.49C6.98 16.68 5.73001 16.06 5.73001 12.92V9.76C5.73001 7.46 6.79 6.21 8.91001 6.03C9.08 6.01 9.28 6 9.49 6H14.52C17.03 6 18.2801 7.26 18.2801 9.76V12.91Z" fill="white"/>
</svg>
