<svg width="24" height="24" viewBox="0 0 24 24" fill="none" xmlns="http://www.w3.org/2000/svg">
<path d="M13.19 6H6.79C6.53 6 6.28 6.01 6.04 6.04C3.35 6.27 2 7.86 2 10.79V14.79C2 18.79 3.60001 19.58 6.79 19.58H7.19C7.41001 19.58 7.7 19.73 7.83001 19.9L9.03001 21.5C9.56 22.21 10.42 22.21 10.95 21.5L12.15 19.9C12.3 19.7 12.54 19.58 12.7901 19.58H13.19C16.1201 19.58 17.7101 18.24 17.94 15.54C17.97 15.3 17.9801 15.05 17.9801 14.79V10.79C17.9801 7.6 16.38 6 13.19 6ZM6.5 14C5.94001 14 5.5 13.55 5.5 13C5.5 12.45 5.95 12 6.5 12C7.05001 12 7.50001 12.45 7.50001 13C7.50001 13.55 7.05001 14 6.5 14ZM9.99001 14C9.43 14 8.99 13.55 8.99 13C8.99 12.45 9.44 12 9.99001 12C10.54 12 10.99 12.45 10.99 13C10.99 13.55 10.55 14 9.99001 14ZM13.49 14C12.93 14 12.4901 13.55 12.4901 13C12.4901 12.45 12.9401 12 13.49 12C14.04 12 14.49 12.45 14.49 13C14.49 13.55 14.04 14 13.49 14Z" fill="white"/>
<path d="M21.9802 6.79V10.79C21.9802 12.79 21.3602 14.15 20.1203 14.9C19.8203 15.08 19.4702 14.84 19.4702 14.49L19.4802 10.79C19.4802 6.79001 17.1902 4.5 13.1903 4.5L7.10025 4.51C6.75025 4.51 6.51025 4.16 6.69025 3.86C7.44025 2.62 8.80024 2 10.7902 2H17.1902C20.3802 2 21.9802 3.6 21.9802 6.79Z" fill="white"/>
</svg>
