<svg width="24" height="24" viewBox="0 0 24 24" fill="none" xmlns="http://www.w3.org/2000/svg">
<path d="M17 2.42969H7C4 2.42969 2 4.42968 2 7.42968V13.4297C2 16.4297 4 18.4297 7 18.4297V20.5597C7 21.3596 7.89001 21.8396 8.55001 21.3896L13.0001 18.4297H17C20 18.4297 22.0001 16.4297 22.0001 13.4297V7.42968C22.0001 4.42968 20 2.42969 17 2.42969ZM12 14.5997C11.58 14.5997 11.25 14.2597 11.25 13.8497C11.25 13.4396 11.58 13.0997 12 13.0997C12.42 13.0997 12.75 13.4396 12.75 13.8497C12.75 14.2597 12.42 14.5997 12 14.5997ZM13.26 10.4497C12.87 10.7097 12.75 10.8797 12.75 11.1597V11.3697C12.75 11.7797 12.41 12.1196 12 12.1196C11.59 12.1196 11.25 11.7797 11.25 11.3697V11.1597C11.25 9.99968 12.1001 9.42968 12.42 9.20969C12.7901 8.95968 12.9101 8.78969 12.9101 8.52968C12.9101 8.02968 12.5 7.61969 12 7.61969C11.5 7.61969 11.09 8.02968 11.09 8.52968C11.09 8.93969 10.75 9.27968 10.34 9.27968C9.93001 9.27968 9.59 8.93969 9.59 8.52968C9.59 7.19969 10.67 6.11969 12 6.11969C13.3301 6.11969 14.4101 7.19969 14.4101 8.52968C14.4101 9.66968 13.5701 10.2397 13.26 10.4497Z" fill="white"/>
</svg>
