<svg width="24" height="24" viewBox="0 0 24 24" fill="none" xmlns="http://www.w3.org/2000/svg">
<path d="M19.1197 9.12328C18.7297 9.12328 18.4197 9.43329 18.4197 9.82329V11.4033C18.4197 14.9433 15.5397 17.8233 11.9997 17.8233C8.45968 17.8233 5.57969 14.9433 5.57969 11.4033V9.81328C5.57969 9.42328 5.26968 9.11328 4.87968 9.11328C4.48968 9.11328 4.17969 9.42328 4.17969 9.81328V11.3933C4.17969 15.4634 7.30968 18.8133 11.2997 19.1733V21.3033C11.2997 21.6933 11.6097 22.0034 11.9997 22.0034C12.3897 22.0034 12.6997 21.6933 12.6997 21.3033V19.1733C16.6797 18.8234 19.8196 15.4634 19.8196 11.3933V9.81328C19.8097 9.43329 19.4997 9.12328 19.1197 9.12328Z" fill="white"/>
<path d="M12.0001 2C9.56008 2 7.58008 3.98 7.58008 6.42V11.54C7.58008 13.98 9.56008 15.96 12.0001 15.96C14.4401 15.96 16.4201 13.98 16.4201 11.54V6.42C16.4201 3.98 14.4401 2 12.0001 2ZM13.3101 8.95C13.2401 9.21 13.0101 9.38 12.7501 9.38C12.7001 9.38 12.6501 9.36999 12.6001 9.36C12.2101 9.24999 11.8001 9.24999 11.4101 9.36C11.0901 9.45 10.7801 9.26 10.7001 8.95C10.6101 8.64 10.8001 8.32 11.1101 8.24C11.7001 8.08 12.3201 8.08 12.9101 8.24C13.2101 8.32 13.3901 8.64 13.3101 8.95ZM13.8401 7.01C13.7501 7.25 13.5301 7.39 13.2901 7.39C13.2201 7.39 13.1601 7.38 13.0901 7.36C12.3901 7.1 11.6101 7.1 10.9101 7.36C10.6101 7.47 10.2701 7.31 10.1601 7.01C10.0501 6.71 10.2101 6.37 10.5101 6.27C11.4701 5.92 12.5301 5.92 13.4901 6.27C13.7901 6.38 13.9501 6.71 13.8401 7.01Z" fill="white"/>
</svg>
