<svg width="24" height="24" viewBox="0 0 24 24" fill="none" xmlns="http://www.w3.org/2000/svg">
<path d="M14.8387 10.9026L20.4987 7.11252C21.0687 6.73253 21.2187 5.95253 20.8387 5.39252L19.0186 2.68253C18.6387 2.11253 17.8587 1.96253 17.2987 2.34252L11.6387 6.13253L14.8387 10.9026Z" fill="white"/>
<path d="M14.5197 10.4215L12.7597 11.6016L10.0897 13.3915L9.73968 13.6216L9.57969 13.3816L7.33968 10.0416L7.17969 9.80157L11.9597 6.60156L14.5197 10.4215Z" fill="white"/>
<path d="M5.63912 16.019L9.58913 13.379L7.34912 10.0391L3.39912 12.6791C2.93912 12.989 2.81912 13.6091 3.12912 14.069L4.25912 15.749C4.55912 16.2091 5.17913 16.3291 5.63912 16.019Z" fill="white"/>
<path d="M16.5595 21.8116C16.4594 21.8515 16.3495 21.8815 16.2494 21.8815C15.9595 21.8815 15.6895 21.7116 15.5594 21.4315L11.8294 13.1916L8.04941 21.4416C7.91941 21.7116 7.64941 21.8815 7.35941 21.8815C7.25941 21.8815 7.14941 21.8515 7.04941 21.8116C6.6794 21.6316 6.50941 21.1915 6.6794 20.8116L10.0894 13.3915L12.7594 11.6016L16.9294 20.8216C17.0995 21.1915 16.9294 21.6415 16.5595 21.8116Z" fill="white"/>
</svg>
