<svg width="24" height="24" viewBox="0 0 24 24" fill="none" xmlns="http://www.w3.org/2000/svg">
<path d="M17.619 5.72L7.00891 16.33C6.27891 15.34 5.87891 14.13 5.87891 12.82V8.11C5.87891 6.27 6.69891 4.62 7.99891 3.5V7.64C7.99891 8.03 8.31891 8.35 8.69891 8.35C9.08891 8.35 9.40891 8.03 9.40891 7.64V2.57C9.86891 2.34 10.3589 2.18 10.8689 2.09V5.75C10.8689 6.15 11.1889 6.46 11.5789 6.46C11.9689 6.46 12.2889 6.15 12.2889 5.75V2C14.679 2.11 16.7389 3.61 17.619 5.72Z" fill="white"/>
<path d="M18.1202 8.87891V12.8189C18.1202 16.1889 15.3702 18.9389 12.0002 18.9389C11.8202 18.9389 11.6402 18.929 11.4602 18.9089C11.3802 18.9089 11.3002 18.899 11.2302 18.8889C11.1002 18.869 10.9702 18.8489 10.8502 18.8289C10.8002 18.8289 10.7602 18.809 10.7002 18.7989C10.5602 18.7689 10.4202 18.7289 10.2902 18.689C10.0702 18.629 9.86016 18.5489 9.66016 18.4689C9.53016 18.419 9.41016 18.3689 9.29016 18.299C9.26016 18.2889 9.24016 18.269 9.21016 18.2589C9.11016 18.209 9.01016 18.1589 8.91016 18.089L18.1202 8.87891Z" fill="white"/>
<path d="M21.7497 11V13C21.7497 18.38 17.3798 22.75 11.9997 22.75C9.8797 22.75 7.84969 22.07 6.17969 20.82L7.25969 19.74C8.63969 20.72 10.2797 21.25 11.9997 21.25C16.5497 21.25 20.2497 17.55 20.2497 13V11C20.2497 10.59 20.5898 10.25 20.9997 10.25C21.4097 10.25 21.7497 10.59 21.7497 11Z" fill="white"/>
<path d="M21.7708 2.23282C21.4708 1.93281 20.9809 1.93281 20.6809 2.23282L2.23086 20.6928C1.93086 20.9928 1.93086 21.4829 2.23086 21.7829C2.38086 21.9228 2.57086 22.0028 2.77086 22.0028C2.97086 22.0028 3.16086 21.9228 3.31086 21.7728L21.7708 3.31282C22.0809 3.01281 22.0809 2.53282 21.7708 2.23282Z" fill="white"/>
</svg>
