<svg width="24" height="24" viewBox="0 0 24 24" fill="none" xmlns="http://www.w3.org/2000/svg">
<path d="M16.4201 6.4216V7.5816L9.14008 14.8616C8.18008 13.9916 7.58008 12.7115 7.58008 11.3416V6.4216C7.58008 4.36161 8.98007 2.65161 10.8801 2.1616C11.0701 2.11161 11.2501 2.2716 11.2501 2.4616V4.00161C11.2501 4.4116 11.5901 4.75161 12.0001 4.75161C12.4101 4.75161 12.7501 4.4116 12.7501 4.00161V2.4616C12.7501 2.2716 12.9301 2.11161 13.1201 2.1616C15.0201 2.65161 16.4201 4.36161 16.4201 6.4216Z" fill="white"/>
<path d="M19.8098 9.81109V11.4011C19.8098 15.4711 16.6798 18.8211 12.6998 19.171V21.301C12.6998 21.691 12.3898 22.0011 11.9998 22.0011C11.6098 22.0011 11.2998 21.691 11.2998 21.301V19.171C10.2098 19.0711 9.17977 18.751 8.25977 18.241L9.28977 17.2111C10.1098 17.5911 11.0298 17.8111 11.9998 17.8111C15.5398 17.8111 18.4198 14.9311 18.4198 11.4011V9.81109C18.4198 9.4311 18.7298 9.12109 19.1198 9.12109C19.4998 9.12109 19.8098 9.4311 19.8098 9.81109Z" fill="white"/>
<path d="M16.4202 10.0781V11.5281C16.4202 14.1082 14.2002 16.1782 11.5602 15.9281C11.2802 15.8981 11.0002 15.8482 10.7402 15.7582L16.4202 10.0781Z" fill="white"/>
<path d="M21.771 2.23282C21.471 1.93281 20.9811 1.93281 20.6811 2.23282L7.23109 15.6828C6.20109 14.5529 5.58109 13.0529 5.58109 11.4028V9.81281C5.58109 9.43282 5.27109 9.12281 4.88109 9.12281C4.50109 9.12281 4.19109 9.43282 4.19109 9.81281V11.4028C4.19109 13.4328 4.97109 15.2828 6.24109 16.6728L2.22109 20.6928C1.92109 20.9928 1.92109 21.4829 2.22109 21.7829C2.38109 21.9228 2.57109 22.0028 2.77109 22.0028C2.97109 22.0028 3.16109 21.9228 3.31109 21.7728L21.771 3.31282C22.0811 3.01281 22.0811 2.53282 21.771 2.23282Z" fill="white"/>
</svg>
