<svg width="24" height="24" viewBox="0 0 24 24" fill="none" xmlns="http://www.w3.org/2000/svg">
<path d="M8.40039 4.79922C8.40039 2.811 10.0122 1.19922 12.0004 1.19922C13.9887 1.19922 15.6004 2.811 15.6004 4.79922V11.9992C15.6004 13.9875 13.9887 15.5992 12.0004 15.5992C10.0122 15.5992 8.40039 13.9875 8.40039 11.9992V4.79922Z" fill="#0F172A"/>
<path d="M6.60078 11.5719C6.60078 11.0748 6.19783 10.6719 5.70078 10.6719C5.20373 10.6719 4.80078 11.0748 4.80078 11.5719V12.0005C4.80078 15.6721 7.54911 18.7019 11.1008 19.1447V21.0005H9.30078C8.80373 21.0005 8.40078 21.4034 8.40078 21.9005C8.40078 22.3975 8.80373 22.8005 9.30078 22.8005H14.7008C15.1978 22.8005 15.6008 22.3975 15.6008 21.9005C15.6008 21.4034 15.1978 21.0005 14.7008 21.0005H12.9008V19.1447C16.4524 18.7019 19.2008 15.6721 19.2008 12.0005V11.5719C19.2008 11.0748 18.7978 10.6719 18.3008 10.6719C17.8037 10.6719 17.4008 11.0748 17.4008 11.5719V12.0005C17.4008 14.9827 14.9831 17.4005 12.0008 17.4005C9.01844 17.4005 6.60078 14.9827 6.60078 12.0005V11.5719Z" fill="#0F172A"/>
</svg>
