<svg width="24" height="24" viewBox="0 0 24 24" fill="none" xmlns="http://www.w3.org/2000/svg">
<path opacity="0.4" d="M20.7097 17.5156C20.3398 18.7355 19.6098 19.6756 18.5698 20.2556C18.5298 20.0956 18.5098 19.9256 18.5098 19.7555C18.5098 18.5356 19.4998 17.5355 20.7097 17.5156Z" fill="white"/>
<path d="M21 7.52V9.48397C21 10.0065 20.586 10.4294 20.0801 10.56L17.13 11.38C15.57 11.78 14.5301 13.13 14.5301 14.74V16.285C14.5301 16.7596 14.1873 17.1556 13.7612 17.3644C12.7457 17.8619 11.9698 18.8714 11.677 20.0107C11.5395 20.5456 11.1023 21 10.55 21H7.52C4.07 21 2 18.94 2 15.48V7.52C2 4.06 4.07 2 7.52 2H15.48C18.93 2 21 4.06 21 7.52Z" fill="white"/>
<path d="M22.3091 12.2471C22.049 12.0571 21.629 11.8571 20.999 11.9171C20.8391 11.9271 20.669 11.9571 20.4791 12.0071L17.4991 12.827C16.6091 13.0571 16.0291 13.8071 16.0291 14.7371V18.647C15.7991 18.5671 15.5491 18.5171 15.2891 18.5171C14.0491 18.5171 13.0391 19.517 13.0391 20.7571C13.0391 20.837 13.0391 20.9171 13.049 20.9971C13.169 22.1171 14.129 22.997 15.2891 22.997C16.5091 22.997 17.4991 22.007 17.519 20.7971C17.519 20.777 17.5291 20.7671 17.5291 20.7571V17.0671L20.9791 16.1171L21.4991 15.977V17.657C21.269 17.5771 21.0191 17.5171 20.7491 17.5171H20.7091C19.499 17.537 18.509 18.5371 18.509 19.757C18.509 19.9271 18.5291 20.0971 18.569 20.2571C18.7991 21.257 19.6891 22.007 20.7491 22.007C21.9791 22.007 22.9691 21.017 22.9891 19.7971C22.9891 19.787 22.9991 19.7771 22.9991 19.757V13.9271C22.9991 13.1671 22.769 12.6071 22.3091 12.2471ZM15.2891 21.497C14.9591 21.497 14.6791 21.287 14.5891 20.9971C14.549 20.927 14.5391 20.837 14.5391 20.7571C14.5391 20.3471 14.879 20.0171 15.2891 20.0171C15.689 20.0171 16.0291 20.3471 16.0291 20.7571C16.0291 20.837 16.019 20.9071 15.989 20.9771C15.899 21.2771 15.6191 21.497 15.2891 21.497ZM20.7491 20.507C20.3491 20.507 20.009 20.1671 20.009 19.757C20.009 19.3571 20.3491 19.0171 20.7491 19.0171C21.1591 19.0171 21.4991 19.3571 21.4991 19.757C21.4991 20.1671 21.1591 20.507 20.7491 20.507Z" fill="white"/>
</svg>
