<svg width="24" height="24" viewBox="0 0 24 24" fill="none" xmlns="http://www.w3.org/2000/svg">
<path d="M17 3.5H7C4 3.5 2 5 2 8.5V15.5C2 19 4 20.5 7 20.5H17C20 20.5 22.0001 19 22.0001 15.5V8.5C22.0001 5 20 3.5 17 3.5ZM8 17.75H5C4.59001 17.75 4.25 17.41 4.25 17C4.25 16.59 4.59001 16.25 5 16.25H8C8.41 16.25 8.75 16.59 8.75 17C8.75 17.41 8.41 17.75 8 17.75ZM12 15C10.34 15 9.00001 13.66 9.00001 12C9.00001 10.34 10.34 9 12 9C13.6601 9 15 10.34 15 12C15 13.66 13.6601 15 12 15ZM19.0001 7.75H16.0001C15.59 7.75 15.2501 7.41 15.2501 7C15.2501 6.59 15.59 6.25 16.0001 6.25H19.0001C19.41 6.25 19.7501 6.59 19.7501 7C19.7501 7.41 19.41 7.75 19.0001 7.75Z" fill="white"/>
</svg>
