<svg width="24" height="24" viewBox="0 0 24 24" fill="none" xmlns="http://www.w3.org/2000/svg">
<path d="M3.18069 15.029C2.83069 15.029 2.58069 15.379 2.71069 15.6991C4.18069 19.399 7.7907 21.9991 12.0006 21.9991C16.2207 21.9991 19.8306 19.379 21.3006 15.6691C21.4307 15.349 21.1707 14.999 20.8307 14.999H17.5007C17.2206 14.999 17.0007 14.779 17.0007 14.4991V11.759C17.0007 10.839 15.8507 10.409 15.2507 11.109L12.3807 14.539C12.1806 14.779 11.8107 14.779 11.6107 14.539L8.74069 11.109C8.1507 10.409 7.00069 10.839 7.00069 11.759V14.4991C7.00069 14.779 6.78069 14.999 6.5007 14.999L3.18069 15.029Z" fill="white"/>
<path d="M22.0001 12.1397C22.0001 12.4498 21.98 12.7597 21.9401 13.0597C21.9101 13.3097 21.69 13.4998 21.4301 13.4998H19.0001C18.72 13.4998 18.5 13.2797 18.5 12.9997V11.8997C18.5 10.8897 17.96 9.90973 17.04 9.48973C16.01 9.01974 14.84 9.27973 14.1 10.1497L12.38 12.1997C12.18 12.4397 11.81 12.4397 11.61 12.1997L9.88 10.1297C9.16 9.27973 8 9.01974 6.96001 9.48973C6.04 9.90973 5.5 10.8897 5.5 11.8997V12.8797C5.5 13.2997 5.28001 13.5197 5 13.5197L2.56 13.5298C2.31001 13.5298 2.08 13.3397 2.05 13.0897C2.02 12.7297 2 12.3697 2 11.9998C2 5.94973 7.39 1.13973 13.6301 2.12972C18.4601 2.88973 22.07 7.23973 22.0001 12.1397Z" fill="white"/>
</svg>
