<svg width="24" height="24" viewBox="0 0 24 24" fill="none" xmlns="http://www.w3.org/2000/svg">
<path d="M17 4H7C4 4 2 5.5 2 9V12.56C2 12.93 2.38 13.16 2.71 13.01C3.69001 12.56 4.82 12.39 6.01 12.6C8.64001 13.07 10.57 15.51 10.5 18.18C10.49 18.6 10.43 19.01 10.32 19.41C10.24 19.72 10.49 20.01 10.81 20.01H17C20 20.01 22.0001 18.51 22.0001 15.01V9C22.0001 5.5 20 4 17 4ZM12 14.5C10.62 14.5 9.5 13.38 9.5 12C9.5 10.62 10.62 9.5 12 9.5C13.38 9.5 14.5001 10.62 14.5001 12C14.5001 13.38 13.38 14.5 12 14.5ZM19.25 14C19.25 14.41 18.9101 14.75 18.5 14.75C18.09 14.75 17.75 14.41 17.75 14V10C17.75 9.59 18.09 9.25 18.5 9.25C18.9101 9.25 19.25 9.59 19.25 10V14Z" fill="white"/>
<path d="M5 14C3.74999 14 2.62 14.5899 1.88999 15.4899C1.33 16.1799 1 17.0499 1 18C1 20.21 2.8 21.9999 5 21.9999C6.74 21.9999 8.23 20.8899 8.77 19.3299C8.92 18.92 8.99999 18.47 8.99999 18C8.99999 15.8 7.21 14 5 14ZM7.36 19.74C7.34 19.8 7.3 19.86 7.26 19.8999L6.53999 20.61C6.44999 20.7099 6.32999 20.75 6.2 20.75C6.07 20.75 5.93999 20.7099 5.84999 20.61C5.69 20.46 5.66999 20.22 5.77 20.04H3.76C3.11999 20.04 2.6 19.52 2.6 18.87V18.77C2.6 18.4899 2.81999 18.2799 3.08999 18.2799C3.35999 18.2799 3.58 18.4899 3.58 18.77V18.87C3.58 18.98 3.65999 19.07 3.77 19.07H5.78C5.68 18.8799 5.69999 18.65 5.86 18.4899C6.05 18.3 6.35999 18.3 6.53999 18.4899L7.26 19.2099C7.3 19.25 7.34 19.31 7.37 19.37C7.40999 19.4799 7.40999 19.62 7.36 19.74ZM7.4 17.2299C7.4 17.51 7.18 17.72 6.91 17.72C6.64 17.72 6.41999 17.51 6.41999 17.2299V17.13C6.41999 17.0199 6.34 16.9299 6.23 16.9299H4.22999C4.33 17.12 4.31 17.3499 4.15 17.51C4.06 17.6 3.94 17.6499 3.8 17.6499C3.68 17.6499 3.55 17.6 3.46 17.51L2.74 16.79C2.69999 16.7499 2.66 16.6899 2.63 16.6299C2.59 16.5099 2.59 16.38 2.63 16.26C2.66 16.2099 2.69 16.14 2.74 16.1L3.46 15.39C3.65 15.1899 3.95999 15.1899 4.13999 15.39C4.3 15.54 4.31999 15.78 4.22 15.96H6.23C6.86999 15.96 7.39 16.4799 7.39 17.13V17.2299H7.4Z" fill="white"/>
</svg>
