<svg width="24" height="24" viewBox="0 0 24 24" fill="none" xmlns="http://www.w3.org/2000/svg">
<path d="M1.7 20.24C1.70999 20.2299 1.70999 20.22 1.70999 20.22L7.21 14.72C7.22 14.7099 7.22999 14.7099 7.24 14.7C6.61 14.2599 5.84 14 5 14C2.78999 14 1 15.7899 1 18C1 18.75 1.21 19.46 1.58 20.06C1.61999 20.12 1.66 20.18 1.7 20.24Z" fill="white"/>
<path d="M8.3 15.75C8.29 15.76 8.29 15.77 8.28001 15.78L2.78 21.28C2.77 21.29 2.76001 21.29 2.75 21.3C3.39001 21.74 4.16 22 5 22C6.46 22 7.73 21.22 8.42 20.06C8.79001 19.46 9.00001 18.75 9.00001 18C9.00001 17.16 8.74 16.39 8.3 15.75Z" fill="white"/>
<path d="M17 4H7C4 4 2 5.5 2 9V12.56C2 12.93 2.38 13.16 2.71 13.01C3.69001 12.56 4.82 12.39 6.01 12.6C8.64001 13.07 10.57 15.51 10.5 18.18C10.49 18.6 10.43 19.01 10.32 19.41C10.24 19.72 10.49 20.01 10.81 20.01H17C20 20.01 22.0001 18.51 22.0001 15.01V9C22.0001 5.5 20 4 17 4ZM12 14.5C10.62 14.5 9.5 13.38 9.5 12C9.5 10.62 10.62 9.5 12 9.5C13.38 9.5 14.5001 10.62 14.5001 12C14.5001 13.38 13.38 14.5 12 14.5ZM19.25 14C19.25 14.41 18.9101 14.75 18.5 14.75C18.09 14.75 17.75 14.41 17.75 14V10C17.75 9.59 18.09 9.25 18.5 9.25C18.9101 9.25 19.25 9.59 19.25 10V14Z" fill="white"/>
</svg>
