<svg width="24" height="24" viewBox="0 0 24 24" fill="none" xmlns="http://www.w3.org/2000/svg">
<path d="M17 4H7C4 4 2 5.5 2 9V12.56C2 12.93 2.38 13.16 2.71 13.01C3.69001 12.56 4.82 12.39 6.01 12.6C8.64001 13.07 10.57 15.51 10.5 18.18C10.49 18.6 10.43 19.01 10.32 19.41C10.24 19.72 10.49 20.01 10.81 20.01H17C20 20.01 22.0001 18.51 22.0001 15.01V9C22.0001 5.5 20 4 17 4ZM12 14.5C10.62 14.5 9.5 13.38 9.5 12C9.5 10.62 10.62 9.5 12 9.5C13.38 9.5 14.5001 10.62 14.5001 12C14.5001 13.38 13.38 14.5 12 14.5ZM19.25 14C19.25 14.41 18.9101 14.75 18.5 14.75C18.09 14.75 17.75 14.41 17.75 14V10C17.75 9.59 18.09 9.25 18.5 9.25C18.9101 9.25 19.25 9.59 19.25 10V14Z" fill="white"/>
<path d="M5 14C3.8 14 2.72999 14.5299 2 15.36C1.37999 16.07 1 16.9899 1 18C1 18.75 1.21 19.46 1.58 20.06C2.27 21.2199 3.53999 21.9999 5 21.9999C6.01 21.9999 6.92999 21.63 7.63 21C7.94 20.7399 8.21 20.42 8.42 20.06C8.78999 19.46 8.99999 18.75 8.99999 18C8.99999 15.7899 7.21 14 5 14ZM6.59999 19.58C6.44999 19.73 6.26 19.8 6.07 19.8C5.87999 19.8 5.69 19.73 5.54 19.58L5.00999 19.05L4.46 19.5999C4.31 19.7499 4.12 19.82 3.92999 19.82C3.74 19.82 3.55 19.7499 3.4 19.5999C3.11 19.31 3.11 18.83 3.4 18.54L3.95 17.99L3.41999 17.46C3.13 17.1699 3.13 16.6899 3.41999 16.4C3.71 16.11 4.19 16.11 4.48 16.4L5.00999 16.9299L5.51 16.43C5.8 16.14 6.28 16.14 6.56999 16.43C6.86 16.7199 6.86 17.1999 6.56999 17.49L6.07 17.99L6.59999 18.5199C6.89 18.81 6.89 19.28 6.59999 19.58Z" fill="white"/>
</svg>
