<svg width="24" height="24" viewBox="0 0 24 24" fill="none" xmlns="http://www.w3.org/2000/svg">
<path d="M18.8105 6.25046H20.1705C19.9805 5.98046 19.7805 5.73046 19.5705 5.48047L18.8105 6.25046Z" fill="white"/>
<path d="M18.52 4.42031C18.27 4.21031 18.02 4.01032 17.75 3.82031V5.18032L18.52 4.42031Z" fill="white"/>
<path d="M19.5796 5.47751L22.5296 2.5275C22.8195 2.23751 22.8195 1.75751 22.5296 1.4675C22.2395 1.1775 21.7595 1.1775 21.4695 1.4675L18.5195 4.4175C18.8996 4.7475 19.2496 5.1075 19.5796 5.47751Z" fill="white"/>
<path d="M17.7498 3C17.7498 2.59 17.4097 2.25 16.9998 2.25C16.5997 2.25 16.2798 2.57 16.2598 2.96C16.7797 3.21 17.2798 3.49 17.7498 3.82V3Z" fill="white"/>
<path d="M21.75 7C21.75 6.59 21.4099 6.25 21 6.25H20.1699C20.4999 6.72 20.79 7.22 21.03 7.74C21.4299 7.72 21.75 7.4 21.75 7Z" fill="white"/>
<path d="M12.75 14.7508H13.05C13.44 14.7508 13.75 14.4008 13.75 13.9708C13.75 13.4308 13.6 13.3508 13.26 13.2308L12.75 13.0508V14.7508Z" fill="white"/>
<path d="M21.0401 7.74C21.03 7.74 21.02 7.75 21 7.75H17C16.9001 7.75 16.8101 7.73 16.71 7.69C16.53 7.61 16.38 7.47 16.3001 7.28C16.2701 7.19 16.25 7.1 16.25 7V3C16.25 2.99 16.26 2.98 16.26 2.96C14.96 2.35 13.52 2 12 2C6.48001 2 2 6.48 2 12C2 17.52 6.48001 22 12 22C17.52 22 22.0001 17.52 22.0001 12C22.0001 10.48 21.65 9.04 21.0401 7.74ZM13.7501 11.82C14.39 12.04 15.2501 12.51 15.2501 13.98C15.2501 15.23 14.2601 16.26 13.05 16.26H12.75V16.51C12.75 16.92 12.41 17.26 12 17.26C11.59 17.26 11.25 16.92 11.25 16.51V16.26H11.17C9.84001 16.26 8.75 15.14 8.75 13.76C8.75 13.34 9.09001 13 9.5 13C9.91 13 10.25 13.34 10.25 13.75C10.25 14.3 10.66 14.75 11.17 14.75H11.25V12.53L10.25 12.18C9.61 11.96 8.75 11.49 8.75 10.02C8.75 8.77 9.74 7.74 10.95 7.74H11.25V7.5C11.25 7.09 11.59 6.75 12 6.75C12.41 6.75 12.75 7.09 12.75 7.5V7.75H12.83C14.16 7.75 15.2501 8.87 15.2501 10.25C15.2501 10.66 14.91 11 14.5001 11C14.09 11 13.7501 10.66 13.7501 10.25C13.7501 9.7 13.34 9.25 12.83 9.25H12.75V11.47L13.7501 11.82Z" fill="white"/>
<path d="M10.25 10.03C10.25 10.57 10.4 10.65 10.74 10.77L11.25 10.95V9.25H10.95C10.57 9.25 10.25 9.6 10.25 10.03Z" fill="white"/>
</svg>
