<svg width="24" height="24" viewBox="0 0 24 24" fill="none" xmlns="http://www.w3.org/2000/svg">
<path d="M19.169 6.63953C18.739 4.46954 17.129 3.51953 14.8891 3.51953H6.10899C3.46899 3.51953 1.70898 4.83953 1.70898 7.91953V13.0695C1.70898 15.2895 2.61899 16.5895 4.11899 17.1495C4.33899 17.2295 4.57899 17.2995 4.82898 17.3395C5.22899 17.4295 5.65899 17.4695 6.10899 17.4695H14.899C17.539 17.4695 19.2991 16.1495 19.2991 13.0695V7.91953C19.2991 7.44953 19.259 7.02953 19.169 6.63953ZM5.52899 11.9995C5.52899 12.4095 5.18898 12.7495 4.77899 12.7495C4.36899 12.7495 4.02899 12.4095 4.02899 11.9995V8.99953C4.02899 8.58953 4.36899 8.24953 4.77899 8.24953C5.18898 8.24953 5.52899 8.58953 5.52899 8.99953V11.9995ZM10.499 13.1395C9.03899 13.1395 7.85898 11.9595 7.85898 10.4995C7.85898 9.03953 9.03899 7.85954 10.499 7.85954C11.959 7.85954 13.139 9.03953 13.139 10.4995C13.139 11.9595 11.959 13.1395 10.499 13.1395ZM16.9591 11.9995C16.9591 12.4095 16.619 12.7495 16.2091 12.7495C15.799 12.7495 15.4591 12.4095 15.4591 11.9995V8.99953C15.4591 8.58953 15.799 8.24953 16.2091 8.24953C16.619 8.24953 16.9591 8.58953 16.9591 8.99953V11.9995Z" fill="white"/>
<path d="M22.2998 10.9222V16.0722C22.2998 19.1522 20.5398 20.4822 17.8898 20.4822H9.10977C8.35977 20.4822 7.68977 20.3723 7.10978 20.1522C6.63977 19.9823 6.22977 19.7322 5.89977 19.4123C5.71977 19.2422 5.85977 18.9722 6.10977 18.9722H14.8898C18.5898 18.9722 20.7898 16.7723 20.7898 13.0823V7.92223C20.7898 7.68223 21.0598 7.53223 21.2298 7.71223C21.9098 8.43223 22.2998 9.48223 22.2998 10.9222Z" fill="white"/>
</svg>
