<svg width="24" height="24" viewBox="0 0 24 24" fill="none" xmlns="http://www.w3.org/2000/svg">
<path d="M5 14C2.78999 14 1 15.7899 1 18C1 20.21 2.78999 21.9999 5 21.9999C7.21 21.9999 8.99999 20.21 8.99999 18C8.99999 15.7899 7.21 14 5 14ZM5.99999 17.6799C5.99999 18.29 5.66999 18.87 5.15 19.1799L4.39 19.64C4.27 19.7199 4.13 19.7499 4 19.7499C3.74999 19.7499 3.5 19.62 3.35999 19.3899C3.14999 19.04 3.26 18.57 3.62 18.36L4.37999 17.9C4.45 17.8599 4.49999 17.7699 4.49999 17.69V16.76C4.49999 16.34 4.84 15.9999 5.24999 15.9999C5.66 15.9999 5.99999 16.34 5.99999 16.7499V17.6799Z" fill="white"/>
<path d="M17 4H7C4 4 2 5.5 2 9V12.56C2 12.93 2.38 13.16 2.71 13.01C3.69001 12.56 4.82 12.39 6.01 12.6C8.64001 13.07 10.57 15.51 10.5 18.18C10.49 18.6 10.43 19.01 10.32 19.41C10.24 19.72 10.49 20.01 10.81 20.01H17C20 20.01 22.0001 18.51 22.0001 15.01V9C22.0001 5.5 20 4 17 4ZM12 14.5C10.62 14.5 9.5 13.38 9.5 12C9.5 10.62 10.62 9.5 12 9.5C13.38 9.5 14.5001 10.62 14.5001 12C14.5001 13.38 13.38 14.5 12 14.5ZM19.25 14C19.25 14.41 18.9101 14.75 18.5 14.75C18.09 14.75 17.75 14.41 17.75 14V10C17.75 9.59 18.09 9.25 18.5 9.25C18.9101 9.25 19.25 9.59 19.25 10V14Z" fill="white"/>
</svg>
