<svg width="24" height="24" viewBox="0 0 24 24" fill="none" xmlns="http://www.w3.org/2000/svg">
<path d="M17 4H7C4 4 2 5.5 2 9V12.56C2 12.93 2.38 13.16 2.71 13.01C3.69001 12.56 4.82 12.39 6.01 12.6C8.64001 13.07 10.57 15.51 10.5 18.18C10.49 18.6 10.43 19.01 10.32 19.41C10.24 19.72 10.49 20.01 10.81 20.01H17C20 20.01 22.0001 18.51 22.0001 15.01V9C22.0001 5.5 20 4 17 4ZM12 14.5C10.62 14.5 9.5 13.38 9.5 12C9.5 10.62 10.62 9.5 12 9.5C13.38 9.5 14.5001 10.62 14.5001 12C14.5001 13.38 13.38 14.5 12 14.5ZM19.25 14C19.25 14.41 18.9101 14.75 18.5 14.75C18.09 14.75 17.75 14.41 17.75 14V10C17.75 9.59 18.09 9.25 18.5 9.25C18.9101 9.25 19.25 9.59 19.25 10V14Z" fill="white"/>
<path d="M5 14C2.78999 14 1 15.7899 1 18C1 18.75 1.21 19.46 1.58 20.06C2.27 21.2199 3.53999 21.9999 5 21.9999C6.46 21.9999 7.73 21.2199 8.42 20.06C8.78999 19.46 8.99999 18.75 8.99999 18C8.99999 15.7899 7.21 14 5 14ZM6.49 18.7299H5.75V19.5099C5.75 19.92 5.41 20.2599 5 20.2599C4.58999 20.2599 4.25 19.92 4.25 19.5099V18.7299H3.50999C3.1 18.7299 2.75999 18.39 2.75999 17.9799C2.75999 17.57 3.1 17.2299 3.50999 17.2299H4.25V16.52C4.25 16.11 4.58999 15.77 5 15.77C5.41 15.77 5.75 16.11 5.75 16.52V17.2299H6.49C6.89999 17.2299 7.24 17.57 7.24 17.9799C7.24 18.39 6.91 18.7299 6.49 18.7299Z" fill="white"/>
</svg>
