<svg width="24" height="24" viewBox="0 0 24 24" fill="none" xmlns="http://www.w3.org/2000/svg">
<path d="M20.97 10.37V13.56C20.97 15.88 19.0901 17.76 16.77 17.76H13.2101C12.66 17.76 12.21 18.2 12.21 18.76V19.58C12.21 20.13 12.66 20.58 13.2101 20.58H15.47C15.86 20.58 16.1801 20.89 16.1801 21.29C16.1801 21.68 15.86 22 15.47 22H7.53001C7.14001 22 6.82 21.68 6.82 21.29C6.82 20.89 7.14001 20.58 7.53001 20.58H9.79C10.34 20.58 10.79 20.13 10.79 19.58V18.76C10.79 18.2 10.34 17.76 9.79 17.76H6.19C3.88 17.76 2 15.88 2 13.56V7.19C2 4.88 3.88 3 6.19 3H10.5C11.05 3 11.5 3.45 11.5 4V6.15C11.5 8.08 12.7901 9.37 14.7101 9.37H19.97C20.52 9.37 20.97 9.82 20.97 10.37Z" fill="white"/>
<path d="M21.99 2.36352L20.86 3.15353V2.73353C20.86 1.78353 20.09 1.02353 19.15 1.02353H14.87C13.84 1.01353 13 1.85352 13 2.88353V6.16353C13 7.02353 13.43 7.87353 14.71 7.87353H19.14C20.09 7.87353 20.85 7.10352 20.85 6.16353V5.73353L21.98 6.52353C22.55 6.91353 23 6.67353 23 5.99352V2.89353C23 2.21352 22.55 1.98353 21.99 2.36352Z" fill="white"/>
</svg>
