<svg width="24" height="24" viewBox="0 0 24 24" fill="none" xmlns="http://www.w3.org/2000/svg">
<path d="M17.5601 2H6.41C3.98 2 2 3.98 2 6.41V12.91V13.11C2 15.55 3.98 17.52 6.41 17.52H10.25C10.8 17.52 11.25 17.97 11.25 18.52V19.49C11.25 20.04 10.8 20.49 10.25 20.49H7.83001C7.42 20.49 7.08001 20.83 7.08001 21.24C7.08001 21.65 7.41001 22 7.83001 22H16.1801C16.59 22 16.9301 21.66 16.9301 21.25C16.9301 20.84 16.59 20.5 16.1801 20.5H13.76C13.2101 20.5 12.7601 20.05 12.7601 19.5V18.53C12.7601 17.98 13.2101 17.53 13.76 17.53H17.57C20.01 17.53 21.98 15.55 21.98 13.12V12.92V6.42C21.9701 3.98 19.9901 2 17.5601 2Z" fill="white"/>
</svg>
