<svg width="24" height="24" viewBox="0 0 24 24" fill="none" xmlns="http://www.w3.org/2000/svg">
<path fill-rule="evenodd" clip-rule="evenodd" d="M8.94662 2.40381C9.22261 2.62425 9.34414 2.98575 9.25736 3.32815C9.08971 3.98964 9.00039 4.68325 9.00039 5.39903C9.00039 10.0382 12.7612 13.7991 17.4004 13.7991C18.7726 13.7991 20.0656 13.4706 21.2073 12.8891C21.522 12.7287 21.9015 12.7673 22.1775 12.9878C22.4535 13.2082 22.575 13.5698 22.4883 13.9121C21.3687 18.3297 17.3674 21.5991 12.6004 21.5991C6.96709 21.5991 2.40039 17.0324 2.40039 11.399C2.40039 7.42874 4.66897 3.98988 7.97644 2.30509C8.29119 2.14476 8.67062 2.18337 8.94662 2.40381Z" fill="#0F172A"/>
</svg>
