<svg width="24" height="24" viewBox="0 0 24 24" fill="none" xmlns="http://www.w3.org/2000/svg">
<path d="M16.19 2H7.81C4.17001 2 2 4.17 2 7.81V16.18C2 19.83 4.17001 22 7.81 22H16.1801C19.82 22 21.99 19.83 21.99 16.19V7.81C22.0001 4.17 19.83 2 16.19 2ZM8 13C7.44001 13 7 12.55 7 12C7 11.45 7.45 11 8 11C8.55001 11 9.00001 11.45 9.00001 12C9.00001 12.55 8.56 13 8 13ZM12 13C11.44 13 11 12.55 11 12C11 11.45 11.45 11 12 11C12.5501 11 13.0001 11.45 13.0001 12C13.0001 12.55 12.56 13 12 13ZM16.0001 13C15.44 13 15 12.55 15 12C15 11.45 15.45 11 16.0001 11C16.55 11 17 11.45 17 12C17 12.55 16.56 13 16.0001 13Z" fill="white"/>
</svg>
