<svg width="24" height="24" viewBox="0 0 24 24" fill="none" xmlns="http://www.w3.org/2000/svg">
<path d="M13.2978 2.1165C13.0064 2.06521 12.75 2.29775 12.75 2.59367V5.45444C12.75 5.6528 12.8708 5.82746 13.0358 5.93765C13.5391 6.27384 13.87 6.84779 13.87 7.50087V9.50088C13.87 10.5309 13.03 11.3809 12 11.3809C10.96 11.3809 10.12 10.5309 10.12 9.50088V7.50087C10.12 6.84759 10.4583 6.2735 10.9639 5.93736C11.1291 5.82753 11.25 5.6528 11.25 5.45444V2.5943C11.25 2.29815 10.9935 2.06552 10.7019 2.11694C9.15242 2.39016 7.76579 3.13508 6.7 4.20087C5.34 5.56088 4.5 7.44087 4.5 9.50088V14.5009C4.5 18.631 7.87 22.0009 12 22.0009C16.13 22.0009 19.5 18.631 19.5 14.5009V9.50088C19.5 5.81039 16.813 2.7351 13.2978 2.1165Z" fill="white"/>
</svg>
