<svg width="24" height="24" viewBox="0 0 24 24" fill="none" xmlns="http://www.w3.org/2000/svg">
<path d="M20.9596 17.8385L19.3296 18.3886C18.8796 18.5386 18.5196 18.8885 18.3696 19.3486L17.8197 20.9785C17.3496 22.3885 15.3696 22.3585 14.9296 20.9485L13.0797 14.9986C12.7197 13.8185 13.8096 12.7186 14.9796 13.0885L20.9397 14.9386C22.3396 15.3785 22.3596 17.3686 20.9596 17.8385Z" fill="white"/>
<path d="M20.9995 11.4994C20.9995 11.9294 20.9695 12.3593 20.9194 12.7793C20.8795 13.0793 20.5694 13.2593 20.2795 13.1693L15.4294 11.6594C14.3494 11.3294 13.1995 11.6094 12.3994 12.3994C11.5994 13.1993 11.3094 14.3693 11.6494 15.4493L13.1494 20.2793C13.2394 20.5694 13.0495 20.8793 12.7495 20.9194C12.3295 20.9693 11.9194 20.9993 11.4994 20.9993C6.15942 20.9993 1.85943 16.6094 1.99942 11.2294C2.13942 6.26943 6.26943 2.13942 11.2294 1.99942C16.6094 1.85943 20.9995 6.15942 20.9995 11.4994Z" fill="white"/>
</svg>
