<svg width="24" height="24" viewBox="0 0 24 24" fill="none" xmlns="http://www.w3.org/2000/svg">
<path d="M21 7.52V13.4C21 13.74 20.67 13.98 20.3501 13.88L16.4201 12.66C15.3401 12.33 14.18 12.61 13.3901 13.4C12.59 14.2 12.3 15.37 12.6401 16.45L13.85 20.35C13.95 20.67 13.71 21 13.37 21H7.52C4.07 21 2 18.94 2 15.48V7.52C2 4.06 4.07 2 7.52 2H15.48C18.93 2 21 4.06 21 7.52Z" fill="white"/>
<path d="M21.9596 18.8386L20.3296 19.3885C19.8796 19.5385 19.5196 19.8886 19.3696 20.3485L18.8197 21.9785C18.3496 23.3885 16.3696 23.3585 15.9296 21.9485L14.0797 15.9985C13.7197 14.8186 14.8096 13.7185 15.9796 14.0885L21.9397 15.9385C23.3396 16.3786 23.3596 18.3685 21.9596 18.8386Z" fill="white"/>
</svg>
