<svg width="24" height="24" viewBox="0 0 24 24" fill="none" xmlns="http://www.w3.org/2000/svg">
<path d="M14.5387 13.668C14.1787 13.668 13.8887 13.958 13.8887 14.318C13.8887 14.678 14.1787 14.968 14.5387 14.968C14.8987 14.968 15.1888 14.678 15.1888 14.318C15.1787 13.958 14.8888 13.668 14.5387 13.668Z" fill="white"/>
<path d="M9.06016 14.6641C8.70016 14.6641 8.41016 14.954 8.41016 15.314C8.41016 15.674 8.70016 15.964 9.06016 15.964C9.42016 15.964 9.71015 15.674 9.71015 15.314C9.71015 14.954 9.42016 14.6641 9.06016 14.6641Z" fill="white"/>
<path d="M16.19 2H7.81C4.17001 2 2 4.17 2 7.81V16.18C2 19.83 4.17001 22 7.81 22H16.1801C19.82 22 21.99 19.83 21.99 16.19V7.81C22.0001 4.17 19.83 2 16.19 2ZM16.88 9.55V14.31C16.88 15.6 15.83 16.65 14.54 16.65C13.25 16.65 12.2 15.6 12.2 14.31C12.2 13.02 13.25 11.97 14.54 11.97C14.7701 11.97 14.9801 12.01 15.1901 12.07V10.65L11.41 11.68V15.3C11.41 15.31 11.4 15.32 11.4 15.33C11.39 16.61 10.34 17.64 9.06001 17.64C7.77001 17.64 6.72001 16.59 6.72001 15.3C6.72001 14.01 7.77001 12.96 9.06001 12.96C9.29 12.96 9.5 13 9.71 13.06V11.03V9.29C9.71 8.32 10.31 7.53 11.25 7.28L14.24 6.46C15.2 6.2 15.8 6.45 16.14 6.71C16.47 6.97 16.88 7.47999 16.88 8.48V9.55Z" fill="white"/>
</svg>
