<svg width="24" height="24" viewBox="0 0 24 24" fill="none" xmlns="http://www.w3.org/2000/svg">
<path d="M19.21 15.0078C18.12 14.9379 17 15.3378 16.17 16.1679C14.61 17.7279 14.61 20.2578 16.17 21.8279C16.7 22.3578 17.35 22.7079 18.04 22.8779C18.42 22.9779 18.82 23.0079 19.22 22.9878C20.17 22.9479 21.1 22.5678 21.83 21.8379C22.86 20.8079 23.21 19.3578 22.88 18.0479C22.72 17.3579 22.36 16.7079 21.83 16.1778C21.11 15.4479 20.17 15.0579 19.21 15.0078ZM21.24 18.9779C21.24 19.1879 21.16 19.3679 21.02 19.5078C20.88 19.6479 20.7 19.7279 20.49 19.7279H19.75V20.5079C19.75 20.7179 19.67 20.8979 19.53 21.0378C19.39 21.1779 19.21 21.2579 19 21.2579C18.59 21.2579 18.25 20.9178 18.25 20.5079V19.7279H17.5C17.09 19.7279 16.75 19.3878 16.75 18.9779C16.75 18.5679 17.09 18.2279 17.5 18.2279H18.25V17.5179C18.25 17.1078 18.59 16.7679 19 16.7679C19.41 16.7679 19.75 17.1078 19.75 17.5179V18.2279H20.49C20.91 18.2279 21.24 18.5679 21.24 18.9779Z" fill="white"/>
<path d="M12.2303 12.0703C11.8202 12.0703 11.4902 12.4003 11.4902 12.8104C11.4902 13.2203 11.8202 13.5503 12.2303 13.5503C12.6402 13.5503 12.9702 13.2203 12.9702 12.8104C12.9702 12.4003 12.6402 12.0703 12.2303 12.0703Z" fill="white"/>
<path d="M6.75953 13.0586C6.34953 13.0586 6.01953 13.3886 6.01953 13.7986C6.01953 14.2086 6.34953 14.5386 6.75953 14.5386C7.16954 14.5386 7.49953 14.2086 7.49953 13.7986C7.49953 13.3886 7.16954 13.0586 6.75953 13.0586Z" fill="white"/>
<path d="M16.19 2H7.81C7.53001 2 7.26001 2.01 7 2.05C3.85 2.34 2 4.45 2 7.81V16.19C2 19.55 3.85 21.66 7 21.95C7.26001 21.99 7.53001 22 7.81 22H13.5C13.89 22 14.1401 21.56 13.9901 21.2C13.7 20.51 13.5 19.71 13.5 19C13.5 15.97 15.9701 13.5 19.0001 13.5C19.76 13.5 20.5 13.65 21.18 13.95C21.55 14.11 22.0001 13.86 22.0001 13.46V7.81C22.0001 4.17 19.83 2 16.19 2ZM14.48 8.05V12.81C14.48 12.82 14.4701 12.83 14.4701 12.85C14.45 14.07 13.46 15.06 12.23 15.06C10.99 15.06 9.99001 14.05 9.99001 12.82C9.99001 11.58 11 10.58 12.23 10.58C12.4901 10.58 12.74 10.63 12.98 10.72V9.03L9.01 10.11V13.81C9.01 13.82 9.00001 13.83 9.00001 13.84C8.98 15.06 7.99 16.04 6.76 16.04C5.52001 16.04 4.52 15.03 4.52 13.8C4.52 12.57 5.53 11.56 6.76 11.56C7.02001 11.56 7.27 11.61 7.50001 11.7V9.54V7.79C7.50001 6.86 8.08 6.11 8.97001 5.87L11.95 5.05C12.8801 4.8 13.4501 5.05 13.77 5.29C14.2301 5.64 14.46 6.21 14.46 6.97V8.05H14.48Z" fill="white"/>
</svg>
