<svg width="24" height="24" viewBox="0 0 24 24" fill="none" xmlns="http://www.w3.org/2000/svg">
<path d="M17 4.75H16.0001V3.26C16.0001 2.43 15.32 1.75 14.49 1.75H9.51001C8.68 1.75 8 2.43 8 3.26V4.75H7C5.9 4.75 5 5.65 5 6.75V6.88C5.32 6.79 5.65 6.75 6.00001 6.75H18C18.35 6.75 18.68 6.79 19.0001 6.88V6.75C19.0001 5.65 18.1001 4.75 17 4.75Z" fill="white"/>
<path d="M13.9313 16.9297C13.6113 16.9297 13.3613 17.1896 13.3613 17.4997C13.3613 17.8096 13.6214 18.0697 13.9313 18.0697C14.2413 18.0697 14.5013 17.8096 14.5013 17.4997C14.5013 17.1896 14.2413 16.9297 13.9313 16.9297Z" fill="white"/>
<path d="M9.07 17.8125C8.75 17.8125 8.5 18.0724 8.5 18.3825C8.5 18.6925 8.75999 18.9525 9.07 18.9525C9.38 18.9525 9.64 18.6925 9.64 18.3825C9.64 18.0724 9.38999 17.8125 9.07 17.8125Z" fill="white"/>
<path d="M19.0001 8.38C18.68 8.29 18.35 8.25 18 8.25H6.00001C5.65 8.25 5.32 8.29 5 8.38C3.28 8.83 2 10.4 2 12.25V18.25C2 20.45 3.8 22.25 6.00001 22.25H18C20.2001 22.25 22.0001 20.45 22.0001 18.25V12.25C22.0001 10.4 20.72 8.83 19.0001 8.38ZM16.0001 13.28V17.5C16.0001 18.64 15.0701 19.57 13.9301 19.57C12.7901 19.57 11.86 18.64 11.86 17.5C11.86 16.36 12.7901 15.43 13.9301 15.43C14.13 15.43 14.3201 15.47 14.5001 15.52V14.26L11.15 15.17V18.38C11.15 18.39 11.15 18.4 11.14 18.41C11.13 19.54 10.2 20.46 9.07 20.46C7.93 20.46 7 19.53 7 18.38C7 17.23 7.93 16.31 9.07 16.31C9.27001 16.31 9.46 16.35 9.65 16.4V14.6V13.05C9.65 12.19 10.19 11.49 11.01 11.27L13.6601 10.54C14.51 10.31 15.05 10.53 15.35 10.76C15.65 10.99 16.0001 11.44 16.0001 12.33V13.28Z" fill="white"/>
</svg>
