<svg width="24" height="24" viewBox="0 0 24 24" fill="none" xmlns="http://www.w3.org/2000/svg">
<path d="M2.57963 9.41928C2.49963 9.41928 2.40963 9.40928 2.32963 9.37928C1.93963 9.23928 1.73963 8.80928 1.86963 8.41928C2.53963 6.53928 3.69963 4.88928 5.24963 3.63928C5.56963 3.37928 6.03963 3.42928 6.29963 3.74928C6.55963 4.06928 6.50963 4.53928 6.18963 4.80928C4.86963 5.87928 3.85963 7.29928 3.28963 8.91928C3.17963 9.22928 2.88963 9.41928 2.57963 9.41928Z" fill="white"/>
<path d="M2.58001 16.08C2.27 16.08 1.98001 15.89 1.87 15.58C1.46 14.42 1.25 13.21 1.25 12C1.25 11.59 1.59001 11.25 2 11.25C2.41 11.25 2.75 11.59 2.75 12C2.75 13.04 2.93 14.08 3.29 15.08C3.43 15.47 3.22 15.9 2.83 16.04C2.75 16.07 2.66 16.08 2.58001 16.08Z" fill="white"/>
<path d="M11.9986 22.7477C10.9386 22.7477 9.88865 22.5876 8.86865 22.2776C8.46864 22.1576 8.24864 21.7376 8.36864 21.3377C8.48864 20.9376 8.90864 20.7176 9.30864 20.8376C10.1786 21.1076 11.0886 21.2376 11.9986 21.2376C17.0986 21.2376 21.2486 17.0876 21.2486 11.9876C21.2486 11.4677 21.1987 10.9277 21.0986 10.3577C21.0286 9.9476 21.2986 9.5576 21.7087 9.4876C22.1086 9.41759 22.5086 9.68759 22.5787 10.0976C22.6987 10.7576 22.7587 11.3777 22.7587 11.9976C22.7486 17.9276 17.9287 22.7477 11.9986 22.7477Z" fill="white"/>
<path d="M5.72021 20.502C5.55022 20.502 5.39021 20.452 5.25022 20.332C4.68022 19.872 4.22021 19.432 3.83021 18.982C3.56021 18.672 3.60022 18.192 3.91021 17.922C4.23022 17.652 4.70021 17.692 4.97021 18.0021C5.30021 18.382 5.70022 18.762 6.19021 19.162C6.51022 19.422 6.56021 19.8921 6.30022 20.212C6.16021 20.4021 5.94022 20.502 5.72021 20.502Z" fill="white"/>
<path d="M20.2404 7.09C20.0004 7.09 19.7704 6.98 19.6204 6.76C17.9004 4.25 15.0404 2.75 12.0004 2.75C11.0904 2.75 10.1804 2.88 9.31039 3.15C8.92039 3.27 8.50039 3.05 8.3704 2.65C8.2404 2.25 8.47039 1.83 8.8704 1.71C9.8904 1.41 10.9404 1.25 12.0004 1.25C15.5404 1.25 18.8504 3 20.8604 5.92C21.0904 6.26 21.0104 6.73 20.6704 6.96C20.5404 7.05 20.3904 7.09 20.2404 7.09Z" fill="white"/>
<path d="M16.03 6.49851C15.7 6.24851 15.1 5.99851 14.14 6.2585L10.95 7.11851C10.03 7.37851 9.43 8.15851 9.43 9.11851V10.7586V13.3386C9.17 13.2385 8.89 13.1785 8.59 13.1785C7.3 13.1785 6.25 14.2285 6.25 15.5185C6.25 16.8085 7.3 17.8585 8.59 17.8585C9.86999 17.8585 10.9 16.8286 10.92 15.5586C10.92 15.5485 10.93 15.5386 10.93 15.5185V11.3286L15.25 10.1486V12.2785C14.9899 12.1786 14.71 12.1186 14.41 12.1186C13.12 12.1186 12.07 13.1686 12.07 14.4586C12.07 15.7486 13.12 16.7986 14.41 16.7986C15.7 16.7986 16.75 15.7486 16.75 14.4586V9.1685V8.24851C16.75 7.44851 16.51 6.85851 16.03 6.49851ZM8.59 16.3585C8.12999 16.3585 7.75 15.9786 7.75 15.5185C7.75 15.0586 8.12999 14.6785 8.59 14.6785C9.05 14.6785 9.43 15.0586 9.43 15.5185C9.43 15.9786 9.05 16.3585 8.59 16.3585ZM14.41 15.2986C13.95 15.2986 13.57 14.9185 13.57 14.4586C13.57 13.9986 13.95 13.6186 14.41 13.6186C14.8699 13.6186 15.25 13.9986 15.25 14.4586C15.25 14.9185 14.8699 15.2986 14.41 15.2986Z" fill="white"/>
</svg>
