<svg width="24" height="24" viewBox="0 0 24 24" fill="none" xmlns="http://www.w3.org/2000/svg">
<path d="M7 3.24787V20.7479C7 21.3878 6.39001 21.8978 5.77 21.7278C3.37 21.0479 2 19.0878 2 16.1879V7.80787C2 4.90788 3.37 2.94787 5.77 2.26788C6.39001 2.09787 7 2.59788 7 3.24787Z" fill="white"/>
<path d="M12.4711 14.3672C12.091 14.3672 11.791 14.6771 11.791 15.0471C11.791 15.4172 12.101 15.7271 12.4711 15.7271C12.851 15.7271 13.1611 15.4172 13.1611 15.0471C13.1611 14.6771 12.851 14.3672 12.4711 14.3672Z" fill="white"/>
<path d="M17.5201 13.4492C17.14 13.4492 16.8301 13.7593 16.8301 14.1392C16.8301 14.5193 17.14 14.8193 17.5201 14.8193C17.9001 14.8193 18.2101 14.5093 18.2101 14.1392C18.2101 13.7693 17.9001 13.4492 17.5201 13.4492Z" fill="white"/>
<path d="M16.1899 2H9.5C8.95 2 8.5 2.45 8.5 3V21C8.5 21.55 8.95 22 9.5 22H16.1899C19.3999 22 22 19.4 22 16.19V7.81C22 4.6 19.3999 2 16.1899 2ZM19.6 9.74V14.14C19.6 14.15 19.59 14.16 19.59 14.17C19.57 15.3 18.6499 16.21 17.52 16.21C16.38 16.21 15.45 15.28 15.45 14.14C15.45 13 16.38 12.07 17.52 12.07C17.76 12.07 17.9899 12.12 18.21 12.2V10.65L14.5399 11.65V15.07C14.5399 15.08 14.53 15.09 14.53 15.1C14.5099 16.23 13.59 17.14 12.46 17.14C11.32 17.14 10.39 16.21 10.39 15.07C10.39 13.93 11.32 13 12.46 13C12.7 13 12.93 13.05 13.15 13.13V11.13V9.5C13.15 8.64 13.68 7.94 14.5099 7.73L17.26 6.97C18.12 6.74 18.6499 6.97 18.9499 7.2C19.38 7.53 19.59 8.05 19.59 8.75V9.74H19.6Z" fill="white"/>
</svg>
