<svg width="24" height="24" viewBox="0 0 24 24" fill="none" xmlns="http://www.w3.org/2000/svg">
<path d="M22.79 21.7599L22.07 21.0399C22.44 20.48 22.66 19.8 22.66 19.08C22.66 17.1 21.06 15.5 19.08 15.5C17.1 15.5 15.5 17.1 15.5 19.08C15.5 21.06 17.1 22.6599 19.08 22.6599C19.81 22.6599 20.48 22.44 21.04 22.07L21.76 22.79C21.9 22.9299 22.09 23 22.27 23C22.46 23 22.64 22.9299 22.78 22.79C23.07 22.5 23.07 22.04 22.79 21.7599Z" fill="white"/>
<path d="M12.2303 12.0703C11.8202 12.0703 11.4902 12.4003 11.4902 12.8104C11.4902 13.2203 11.8202 13.5503 12.2303 13.5503C12.6402 13.5503 12.9702 13.2203 12.9702 12.8104C12.9702 12.4003 12.6402 12.0703 12.2303 12.0703Z" fill="white"/>
<path d="M6.75953 13.0586C6.34953 13.0586 6.01953 13.3886 6.01953 13.7986C6.01953 14.2086 6.34953 14.5386 6.75953 14.5386C7.16954 14.5386 7.49953 14.2086 7.49953 13.7986C7.49953 13.3886 7.16954 13.0586 6.75953 13.0586Z" fill="white"/>
<path d="M16.19 2H7.81C7.53001 2 7.26001 2.01 7 2.05C3.85 2.34 2 4.45 2 7.81V16.19C2 19.55 3.85 21.66 7 21.95C7.26001 21.99 7.53001 22 7.81 22H13.5C13.89 22 14.1401 21.56 13.9901 21.2C13.7 20.51 13.5 19.71 13.5 19C13.5 15.97 15.9701 13.5 19.0001 13.5C19.76 13.5 20.5 13.65 21.18 13.95C21.55 14.11 22.0001 13.86 22.0001 13.46V7.81C22.0001 4.17 19.83 2 16.19 2ZM14.48 8.05V12.81C14.48 12.82 14.4701 12.83 14.4701 12.85C14.45 14.07 13.46 15.06 12.23 15.06C10.99 15.06 9.99001 14.05 9.99001 12.82C9.99001 11.58 11 10.58 12.23 10.58C12.4901 10.58 12.74 10.63 12.98 10.72V9.03L9.01 10.11V13.81C9.01 13.82 9.00001 13.83 9.00001 13.84C8.98 15.06 7.99 16.04 6.76 16.04C5.52001 16.04 4.52 15.03 4.52 13.8C4.52 12.57 5.53 11.56 6.76 11.56C7.02001 11.56 7.27 11.61 7.50001 11.7V9.54V7.79C7.50001 6.86 8.08 6.11 8.97001 5.87L11.95 5.05C12.8801 4.8 13.4501 5.05 13.77 5.29C14.2301 5.64 14.46 6.21 14.46 6.97V8.05H14.48Z" fill="white"/>
</svg>
