<svg width="24" height="24" viewBox="0 0 24 24" fill="none" xmlns="http://www.w3.org/2000/svg">
<path d="M21.7206 6.27879V7.44879C21.7206 8.42879 21.3306 9.26879 20.6406 9.75879C20.2107 10.0788 19.6806 10.2287 19.1307 10.2287C18.7907 10.2287 18.4506 10.1787 18.1007 10.0587L12.7206 8.26879V17.9987C12.7206 20.6187 10.5907 22.7487 7.97071 22.7487C5.3507 22.7487 3.2207 20.6187 3.2207 17.9987C3.2207 15.3788 5.3507 13.2488 7.97071 13.2488C9.23071 13.2488 10.3707 13.7487 11.2207 14.5487V3.99879C11.2207 3.02879 11.6207 2.18879 12.3107 1.68879C13.0007 1.19879 13.9206 1.08879 14.8407 1.38879L19.2606 2.86879C20.6207 3.31879 21.7206 4.84879 21.7206 6.27879Z" fill="white"/>
</svg>
