<svg width="24" height="24" viewBox="0 0 24 24" fill="none" xmlns="http://www.w3.org/2000/svg">
<path d="M22.0001 3.75H2C1.59001 3.75 1.25 3.41 1.25 3C1.25 2.59 1.59001 2.25 2 2.25H22.0001C22.41 2.25 22.7501 2.59 22.7501 3C22.7501 3.41 22.41 3.75 22.0001 3.75Z" fill="white"/>
<path d="M11 9.75H2C1.59001 9.75 1.25 9.41 1.25 9C1.25 8.59 1.59001 8.25 2 8.25H11C11.41 8.25 11.75 8.59 11.75 9C11.75 9.41 11.41 9.75 11 9.75Z" fill="white"/>
<path d="M8 15.75H2C1.59001 15.75 1.25 15.41 1.25 15C1.25 14.59 1.59001 14.25 2 14.25H8C8.41 14.25 8.75 14.59 8.75 15C8.75 15.41 8.41 15.75 8 15.75Z" fill="white"/>
<path d="M6.00001 21.75H2C1.59001 21.75 1.25 21.41 1.25 21C1.25 20.59 1.59001 20.25 2 20.25H6.00001C6.41 20.25 6.75001 20.59 6.75001 21C6.75001 21.41 6.41 21.75 6.00001 21.75Z" fill="white"/>
<path d="M21.8602 7.68216C21.2702 7.23216 20.4602 7.14216 19.5102 7.40216L15.1602 8.58216C13.9902 8.90216 13.2702 9.85216 13.2702 11.0521V13.6021V17.2822C12.8502 17.0422 12.3602 16.8922 11.8402 16.8922C10.2302 16.8922 8.91016 18.2022 8.91016 19.8222C8.91016 21.4321 10.2202 22.7521 11.8402 22.7521C13.4602 22.7521 14.7702 21.4422 14.7702 19.8222V14.1721L21.2502 12.4021V15.8322C20.8302 15.5922 20.3402 15.4422 19.8202 15.4422C18.2102 15.4422 16.8902 16.7521 16.8902 18.3721C16.8902 19.9822 18.2002 21.3022 19.8202 21.3022C21.4402 21.3022 22.7502 19.9921 22.7502 18.3721V11.4222V9.87216C22.7502 8.86216 22.4502 8.12216 21.8602 7.68216ZM11.8402 21.2521C11.0502 21.2521 10.4102 20.6122 10.4102 19.8222C10.4102 19.0321 11.0502 18.3922 11.8402 18.3922C12.6302 18.3922 13.2702 19.0321 13.2702 19.8222C13.2702 20.6122 12.6302 21.2521 11.8402 21.2521ZM19.8202 19.8022C19.0302 19.8022 18.3902 19.1622 18.3902 18.3721C18.3902 17.5822 19.0302 16.9422 19.8202 16.9422C20.6102 16.9422 21.2502 17.5822 21.2502 18.3721C21.2502 19.1622 20.6102 19.8022 19.8202 19.8022Z" fill="white"/>
</svg>
