<svg width="24" height="24" viewBox="0 0 24 24" fill="none" xmlns="http://www.w3.org/2000/svg">
<path fill-rule="evenodd" clip-rule="evenodd" d="M21.2656 1.91834C21.4773 2.0892 21.6004 2.34667 21.6004 2.61876V16.1663C21.6004 17.4376 20.7136 18.5367 19.471 18.8053L17.0222 19.3349C15.3652 19.6931 13.8004 18.4306 13.8004 16.7352C13.8004 15.4834 14.6734 14.401 15.8968 14.1359L19.091 13.4437C19.505 13.3541 19.8004 12.9877 19.8004 12.5641V7.33415L10.2004 9.40982V18.6312C10.2004 19.9025 9.31356 21.0016 8.07099 21.2703L5.62115 21.7999C3.96467 22.1581 2.40039 20.8959 2.40039 19.2011C2.40039 17.9485 3.27464 16.8658 4.49912 16.6019L7.68999 15.9143C8.10447 15.825 8.40039 15.4585 8.40039 15.0345V5.08362C8.40039 4.65986 8.696 4.2935 9.11019 4.20395L20.5102 1.73909C20.7761 1.68158 21.0538 1.74748 21.2656 1.91834Z" fill="#0F172A"/>
</svg>
