<svg width="24" height="24" viewBox="0 0 24 24" fill="none" xmlns="http://www.w3.org/2000/svg">
<path d="M15.0707 17.8792L14.0607 20.0992C13.8007 20.6593 13.4207 21.1492 12.9107 21.4893C12.3907 21.8392 11.7107 21.8692 11.1707 21.5293C9.53068 20.4892 5.95072 17.8192 3.78071 13.1893C3.70072 13.0293 3.92068 12.8692 4.06068 12.9693C4.63068 13.3693 5.24067 13.6492 5.91066 13.8093C6.32067 13.8993 6.7407 13.9393 7.1407 13.9393C9.0007 13.9393 10.6807 12.9892 11.8007 12.1693C12.1307 11.9293 12.5707 11.8793 12.9107 12.0892C14.0307 12.7893 14.7807 13.6293 15.1507 14.5792C15.7907 16.2592 15.0907 17.8093 15.0707 17.8792Z" fill="white"/>
<path d="M16.8512 18.0497C16.7711 18.1397 16.6112 18.0397 16.6511 17.9297C17.0912 16.4697 17.6612 12.6197 12.5612 10.1797C12.2512 10.0297 12.0212 9.74967 11.9812 9.40967C11.3612 3.84967 16.1512 2.84967 16.1512 2.84967C16.5412 2.76967 16.9511 2.76966 17.3312 2.87966C18.4112 3.16965 19.5112 3.56967 20.6212 4.10967C21.5711 4.56967 22.1212 5.56966 21.9812 6.61966C21.6512 9.09967 20.5511 13.8797 16.8512 18.0497Z" fill="white"/>
<path d="M10.56 10.2105L10.5901 10.4105C10.6601 10.7905 10.5 11.1805 10.18 11.3805C8.03003 12.7304 4.51003 13.7504 2.36002 7.84046C2.16002 7.30046 2.04003 6.90047 2.00003 6.32047C1.95003 5.56047 2.38004 4.69047 3.06003 4.37047C4.82003 3.55047 8.54006 2.12047 13.0301 2.25048C13.2301 2.26047 13.3 2.52047 13.14 2.63046C11.41 3.95046 9.92003 6.33047 10.56 10.2105Z" fill="white"/>
</svg>
