<svg width="24" height="24" viewBox="0 0 24 24" fill="none" xmlns="http://www.w3.org/2000/svg">
<path fill-rule="evenodd" clip-rule="evenodd" d="M2.40039 4.19844C2.40039 3.20432 3.20627 2.39844 4.20039 2.39844H15.0004C15.9945 2.39844 16.8004 3.20432 16.8004 4.19844V18.2984C16.8004 20.121 18.2778 21.5984 20.1004 21.5984H5.70039C3.87785 21.5984 2.40039 20.121 2.40039 18.2984V4.19844ZM6.90039 12.5984C6.40334 12.5984 6.00039 13.0014 6.00039 13.4984C6.00039 13.9955 6.40334 14.3984 6.90039 14.3984H12.3004C12.7974 14.3984 13.2004 13.9955 13.2004 13.4984C13.2004 13.0014 12.7974 12.5984 12.3004 12.5984H6.90039ZM6.90039 16.1984C6.40334 16.1984 6.00039 16.6014 6.00039 17.0984C6.00039 17.5955 6.40334 17.9984 6.90039 17.9984H12.3004C12.7974 17.9984 13.2004 17.5955 13.2004 17.0984C13.2004 16.6014 12.7974 16.1984 12.3004 16.1984H6.90039ZM6.00039 6.89844C6.00039 6.40139 6.40334 5.99844 6.90039 5.99844H12.3004C12.7974 5.99844 13.2004 6.40139 13.2004 6.89844V9.89844C13.2004 10.3955 12.7974 10.7984 12.3004 10.7984H6.90039C6.40334 10.7984 6.00039 10.3955 6.00039 9.89844V6.89844Z" fill="#0F172A"/>
<path d="M19.7996 7.80078H18.5996V18.3008C18.5996 19.1293 19.2711 19.8008 20.0996 19.8008C20.9281 19.8008 21.5996 19.1293 21.5996 18.3008V9.60078C21.5996 8.60667 20.7937 7.80078 19.7996 7.80078Z" fill="#0F172A"/>
</svg>
