<svg width="24" height="24" viewBox="0 0 24 24" fill="none" xmlns="http://www.w3.org/2000/svg">
<path d="M22 6.27968V17.7097C22 17.8897 21.91 18.0497 21.76 18.1397L18.87 19.8697C18.7099 19.9597 18.52 19.9597 18.36 19.8697L8.75 14.2798C8.6 14.1898 8.5 14.0297 8.5 13.8497V12.5197C8.5 12.1297 8.91999 11.8897 9.25998 12.0896L17.7499 17.1797C18.0799 17.3797 18.51 17.1397 18.51 16.7497V8.41968C18.51 8.23968 18.42 8.07969 18.27 7.98969L14.19 5.53968C13.87 5.34968 13.87 4.87968 14.19 4.67967L16.7599 3.12969C16.92 3.02969 17.1199 3.02969 17.28 3.12969L21.78 5.82968C21.91 5.93967 22 6.10968 22 6.27968Z" fill="white"/>
<path d="M11.2898 18.4309L7.25977 20.8508C7.09977 20.9509 6.89977 20.9509 6.74977 20.8508L2.24977 18.1508C2.09977 18.0608 2.00977 17.9009 2.00977 17.7209V6.29093C2.00977 6.11093 2.09977 5.95092 2.24977 5.86092L6.74977 3.16093C6.90977 3.06094 7.10977 3.06094 7.25977 3.16093L16.7598 8.86092C16.9098 8.95092 16.9998 9.11093 16.9998 9.29093V14.1209C16.9998 14.5109 16.5798 14.7509 16.2398 14.5508L7.74977 9.46093C7.41977 9.26094 6.98978 9.50093 6.98978 9.89093V14.7209C6.98978 14.9009 7.07977 15.0608 7.22977 15.1508L11.2698 17.5808C11.6098 17.7709 11.6098 18.2309 11.2898 18.4309Z" fill="white"/>
</svg>
