<svg width="24" height="24" viewBox="0 0 24 24" fill="none" xmlns="http://www.w3.org/2000/svg">
<path fill-rule="evenodd" clip-rule="evenodd" d="M7.15792 5.88318L18.1156 16.8409C19.171 15.5102 19.8004 13.8284 19.8004 11.9984C19.8004 7.69062 16.3083 4.19844 12.0004 4.19844C10.1704 4.19844 8.48863 4.82779 7.15792 5.88318ZM16.8429 18.1136L5.88513 7.15597C4.82974 8.48667 4.20039 10.1684 4.20039 11.9984C4.20039 16.3063 7.69257 19.7984 12.0004 19.7984C13.8304 19.7984 15.5122 19.169 16.8429 18.1136ZM5.21217 5.21022C6.94844 3.47394 9.34967 2.39844 12.0004 2.39844C17.3024 2.39844 21.6004 6.6965 21.6004 11.9984C21.6004 14.6491 20.5248 17.0504 18.7887 18.7867C17.0524 20.5229 14.6511 21.5984 12.0004 21.5984C6.69845 21.5984 2.40039 17.3004 2.40039 11.9984C2.40039 9.34772 3.47589 6.94649 5.21217 5.21022Z" fill="#0F172A"/>
</svg>
