<svg width="24" height="24" viewBox="0 0 24 24" fill="none" xmlns="http://www.w3.org/2000/svg">
<path d="M8.28906 6.29C7.86906 6.29 7.53906 5.95 7.53906 5.54V2.75C7.53906 2.34 7.86906 2 8.28906 2C8.70906 2 9.03906 2.34 9.03906 2.75V5.53C9.03906 5.95 8.70906 6.29 8.28906 6.29Z" fill="white"/>
<path d="M15.7109 6.29C15.2909 6.29 14.9609 5.95 14.9609 5.54V2.75C14.9609 2.33 15.3009 2 15.7109 2C16.1309 2 16.4609 2.34 16.4609 2.75V5.53C16.4609 5.95 16.1309 6.29 15.7109 6.29Z" fill="white"/>
<path d="M19.57 4.5C18.91 4.01 17.9599 4.48 17.9599 5.31V5.41C17.9599 6.58 17.1199 7.66 15.9499 7.78C14.5999 7.92 13.4599 6.86 13.4599 5.54V4.5C13.4599 3.95 13.0099 3.5 12.46 3.5H11.54C10.99 3.5 10.54 3.95 10.54 4.5V5.54C10.54 6.33 10.13 7.03 9.50999 7.42C9.41999 7.48 9.32 7.53 9.22 7.58C9.13 7.63 9.02999 7.67 8.92 7.7C8.8 7.74 8.66999 7.77 8.53 7.78C8.36999 7.8 8.21 7.8 8.05 7.78C7.91 7.77 7.78 7.74 7.66 7.7C7.55999 7.67 7.46 7.63 7.36 7.58C7.25999 7.53 7.16 7.48 7.07 7.42C6.44 6.98 6.04 6.22 6.04 5.41V5.31C6.04 4.54 5.21999 4.08 4.57 4.41C4.55999 4.42 4.55 4.42 4.54 4.43C4.49999 4.45 4.46999 4.47 4.43 4.5C4.4 4.53 4.36 4.55 4.33 4.58C4.04999 4.8 3.8 5.05 3.59 5.32C3.47999 5.44 3.38999 5.57 3.31 5.7C3.29999 5.71 3.29 5.72 3.28 5.74C3.19 5.87 3.11 6.02 3.04 6.16C3.02 6.18 3.01 6.19 3.01 6.21C2.95 6.33 2.89 6.45 2.84999 6.58C2.81999 6.63 2.81 6.67 2.78999 6.72C2.72999 6.87 2.69 7.02 2.65 7.17C2.60999 7.31 2.57999 7.46 2.56 7.61C2.54 7.72 2.53 7.83 2.51999 7.95C2.51 8.09 2.5 8.23 2.5 8.37V17.13C2.5 19.82 4.67999 22 7.37 22H16.63C19.32 22 21.4999 19.82 21.4999 17.13V8.37C21.4999 6.78 20.74 5.39 19.57 4.5ZM12 17.42H7.36C6.95 17.42 6.61 17.08 6.61 16.67C6.61 16.25 6.95 15.91 7.36 15.91H12C12.42 15.91 12.75 16.25 12.75 16.67C12.75 17.08 12.42 17.42 12 17.42ZM14.7799 13.71H7.36C6.95 13.71 6.61 13.37 6.61 12.96C6.61 12.54 6.95 12.2 7.36 12.2H14.7799C15.1999 12.2 15.54 12.54 15.54 12.96C15.54 13.37 15.1999 13.71 14.7799 13.71Z" fill="white"/>
</svg>
