<svg width="24" height="24" viewBox="0 0 24 24" fill="none" xmlns="http://www.w3.org/2000/svg">
<path d="M12.678 19.9531C12.9528 20.0171 12.9779 20.3768 12.7103 20.466L11.1303 20.9861C7.16034 22.266 5.07034 21.1961 3.78034 17.226L2.50034 13.2761C1.22034 9.30605 2.28034 7.20605 6.25034 5.92605L6.77434 5.75253C7.1772 5.6191 7.56928 6.02317 7.45487 6.43185C7.39817 6.63441 7.34362 6.84581 7.29034 7.06605L6.31034 11.256C5.21034 15.966 6.82034 18.566 11.5303 19.686L12.678 19.9531Z" fill="white"/>
<path d="M17.1702 3.21245L15.5002 2.82245C12.1602 2.03245 10.1702 2.68244 9.00018 5.10245C8.70018 5.71244 8.46018 6.45245 8.26018 7.30245L7.28018 11.4924C6.30018 15.6724 7.59017 17.7325 11.7602 18.7225L13.4402 19.1224C14.0202 19.2625 14.5602 19.3525 15.0602 19.3924C18.1802 19.6924 19.8402 18.2325 20.6802 14.6224L21.6602 10.4424C22.6402 6.26245 21.3602 4.19245 17.1702 3.21245ZM15.2902 13.3324C15.2002 13.6725 14.9002 13.8925 14.5602 13.8925C14.5002 13.8925 14.4402 13.8825 14.3702 13.8724L11.4602 13.1325C11.0602 13.0324 10.8202 12.6225 10.9202 12.2224C11.0202 11.8224 11.4302 11.5824 11.8302 11.6824L14.7402 12.4225C15.1502 12.5224 15.3902 12.9325 15.2902 13.3324ZM18.2202 9.95245C18.1302 10.2924 17.8302 10.5124 17.4902 10.5124C17.4302 10.5124 17.3702 10.5024 17.3002 10.4925L12.4502 9.26245C12.0502 9.16244 11.8102 8.75245 11.9102 8.35245C12.0102 7.95245 12.4202 7.71245 12.8202 7.81244L17.6702 9.04244C18.0802 9.13244 18.3202 9.54245 18.2202 9.95245Z" fill="white"/>
</svg>
