<svg width="24" height="24" viewBox="0 0 24 24" fill="none" xmlns="http://www.w3.org/2000/svg">
<path d="M5.96999 1H3.02999C1.76 1 1 1.75999 1 3.03V5.97C1 7.24 1.76 8 3.02999 8H5.96999C7.24 8 8 7.24 8 5.97V3.03C8 1.75999 7.24 1 5.96999 1ZM6.47 5.56C6.71999 5.80999 6.71999 6.22 6.47 6.46999C6.34 6.58999 6.17 6.65 6.01 6.65C5.84999 6.65 5.69 6.58999 5.56 6.46999L4.49 5.41L3.44999 6.46999C3.32 6.58999 3.16 6.65 2.98 6.65C2.81999 6.65 2.66 6.58999 2.53 6.46999C2.27999 6.22 2.27999 5.80999 2.53 5.56L3.59999 4.5L2.54 3.45C2.29 3.19999 2.29 2.79 2.54 2.53999C2.78999 2.29 3.2 2.29 3.44999 2.53999L4.49 3.6L5.54999 2.53999C5.8 2.29 6.20999 2.29 6.46 2.53999C6.71 2.79 6.71 3.19999 6.46 3.45L5.41 4.5L6.47 5.56Z" fill="white"/>
<path d="M21.5014 15.8198C21.5014 15.9698 21.4514 16.1198 21.3214 16.2497C19.8714 17.7098 17.2914 20.3097 15.8114 21.7997C15.6814 21.9398 15.5114 21.9998 15.3414 21.9998C15.0114 21.9998 14.6914 21.7397 14.6914 21.3597V17.8598C14.6914 16.3997 15.9314 15.1898 17.4514 15.1898C18.4014 15.1797 19.7214 15.1797 20.8514 15.1797C21.2414 15.1797 21.5014 15.4898 21.5014 15.8198Z" fill="white"/>
<path d="M21.5014 15.8198C21.5014 15.9698 21.4514 16.1198 21.3214 16.2497C19.8714 17.7098 17.2914 20.3097 15.8114 21.7997C15.6814 21.9398 15.5114 21.9998 15.3414 21.9998C15.0114 21.9998 14.6914 21.7397 14.6914 21.3597V17.8598C14.6914 16.3997 15.9314 15.1898 17.4514 15.1898C18.4014 15.1797 19.7214 15.1797 20.8514 15.1797C21.2414 15.1797 21.5014 15.4898 21.5014 15.8198Z" fill="white"/>
<path d="M16.63 2H10.5C9.95 2 9.5 2.45 9.5 3V6.5C9.5 8.16 8.15999 9.5 6.5 9.5H3.5C2.95 9.5 2.5 9.95 2.5 10.5V17.13C2.5 19.82 4.67999 22 7.37 22H12.19C12.7399 22 13.1899 21.55 13.1899 21V17.86C13.1899 15.56 15.1 13.69 17.4499 13.69C17.98 13.68 19.27 13.68 20.5 13.68C21.0499 13.68 21.4999 13.24 21.4999 12.68V6.87C21.4999 4.18 19.32 2 16.63 2ZM8.72 17.01H6.08C5.66999 17.01 5.33 16.67 5.33 16.26C5.33 15.84 5.66999 15.5 6.08 15.5H8.72C9.14999 15.5 9.47 15.84 9.47 16.26C9.47 16.67 9.14999 17.01 8.72 17.01ZM11.51 13.3H6.08C5.66999 13.3 5.33 12.96 5.33 12.55C5.33 12.13 5.66999 11.79 6.08 11.79H11.51C11.92 11.79 12.27 12.13 12.27 12.55C12.27 12.96 11.92 13.3 11.51 13.3Z" fill="white"/>
</svg>
