<svg width="24" height="24" viewBox="0 0 24 24" fill="none" xmlns="http://www.w3.org/2000/svg">
<path d="M13.5503 20.1579C13.2904 20.2679 13.0103 20.3679 12.7103 20.468L11.1303 20.9879C7.16034 22.268 5.07034 21.1979 3.78034 17.228L2.50034 13.2779C1.22034 9.30797 2.28034 7.20797 6.25034 5.92798L7.79034 5.41797C7.60034 5.89798 7.44034 6.44798 7.29034 7.06798L6.31034 11.258C5.21034 15.968 6.82034 18.5679 11.5303 19.688L13.2103 20.0879C13.3204 20.1179 13.4404 20.138 13.5503 20.1579Z" fill="white"/>
<path d="M17.1702 3.21245L15.5002 2.82245C12.1602 2.03245 10.1702 2.68244 9.00018 5.10245C8.70018 5.71244 8.46018 6.45245 8.26018 7.30245L7.28018 11.4924C6.30018 15.6724 7.59017 17.7325 11.7602 18.7225L13.4402 19.1224C14.0202 19.2625 14.5602 19.3525 15.0602 19.3924C18.1802 19.6924 19.8402 18.2325 20.6802 14.6224L21.6602 10.4424C22.6402 6.26245 21.3602 4.19245 17.1702 3.21245Z" fill="white"/>
</svg>
