<svg width="24" height="24" viewBox="0 0 24 24" fill="none" xmlns="http://www.w3.org/2000/svg">
<path d="M21.6208 12.099L21.0009 11.889L19.3309 11.339C18.7509 11.149 18.1609 11.219 17.7109 11.539C17.2708 11.869 17.0109 12.399 17.0109 13.019V17.809C16.6108 17.589 16.1608 17.449 15.6709 17.449C14.1309 17.449 12.8809 18.709 12.8809 20.249C12.8809 20.509 12.9208 20.759 12.9808 20.999C13.3108 22.189 14.3908 23.049 15.6709 23.049C17.2009 23.049 18.4408 21.829 18.4708 20.309V15.699C18.4909 15.699 18.5008 15.709 18.5209 15.719L20.8009 16.479C20.8408 16.489 20.8909 16.509 20.9308 16.509C21.1108 16.559 21.2709 16.579 21.4408 16.579C21.8008 16.579 22.1409 16.479 22.4209 16.269C22.8709 15.949 23.1208 15.419 23.1208 14.799V14.199C23.1208 13.289 22.4809 12.389 21.6208 12.099ZM15.6709 21.589C15.2109 21.589 14.8108 21.359 14.5708 20.999C14.4208 20.789 14.3409 20.529 14.3409 20.249C14.3409 19.519 14.9409 18.919 15.6709 18.919C16.4109 18.919 17.0109 19.519 17.0109 20.249C17.0109 20.479 16.9509 20.689 16.8508 20.869C16.6309 21.299 16.1809 21.589 15.6709 21.589Z" fill="white"/>
<path d="M23.1208 14.199V14.799C23.1208 15.419 22.8709 15.949 22.4209 16.269C22.1409 16.479 21.8008 16.579 21.4408 16.579C21.2709 16.579 21.1108 16.559 20.9308 16.509C20.8909 16.509 20.8408 16.489 20.8009 16.479L18.5209 15.719C18.5008 15.709 18.4909 15.699 18.4708 15.699V20.309C18.4408 21.829 17.2009 23.049 15.6709 23.049C14.3908 23.049 13.3108 22.189 12.9808 20.999C12.9208 20.759 12.8809 20.509 12.8809 20.249C12.8809 18.709 14.1309 17.449 15.6709 17.449C16.1608 17.449 16.6108 17.589 17.0109 17.809V13.019C17.0109 12.399 17.2708 11.869 17.7109 11.539C18.1609 11.219 18.7509 11.149 19.3309 11.339L21.0009 11.889L21.6208 12.099C22.4809 12.389 23.1208 13.289 23.1208 14.199Z" fill="white"/>
<path d="M21 7.52V9.62C21 9.96 20.67 10.2 20.34 10.09L19.8 9.91C18.75 9.58 17.6801 9.72 16.8101 10.34C15.98 10.96 15.51 11.94 15.51 13.02V15.47C15.51 15.74 15.3 15.96 15.03 16C12.9701 16.31 11.38 18.1 11.38 20.25C11.38 20.3 11.38 20.35 11.38 20.4C11.39 20.71 11.16 21 10.84 21H7.52C4.07 21 2 18.94 2 15.48V7.52C2 4.06 4.07 2 7.52 2H15.48C18.93 2 21 4.06 21 7.52Z" fill="white"/>
</svg>
