<svg width="24" height="24" viewBox="0 0 24 24" fill="none" xmlns="http://www.w3.org/2000/svg">
<path d="M19.3399 14.49L18.3399 12.83C18.1299 12.46 17.9399 11.76 17.9399 11.35V8.82C17.9399 6.47 16.5599 4.44 14.5699 3.49C14.0499 2.57 13.0899 2 11.9899 2C10.8999 2 9.91994 2.59 9.39994 3.52C7.44994 4.49 6.09994 6.5 6.09994 8.82V11.35C6.09994 11.76 5.90994 12.46 5.69994 12.82L4.68994 14.49C4.28994 15.16 4.19994 15.9 4.44994 16.58C4.68994 17.25 5.25994 17.77 5.99994 18.02C7.93994 18.68 9.97994 19 12.0199 19C14.0599 19 16.0999 18.68 18.0399 18.03C18.7399 17.8 19.2799 17.27 19.5399 16.58C19.7999 15.89 19.7299 15.13 19.3399 14.49Z" fill="white"/>
<path d="M14.8298 20.01C14.4098 21.17 13.2998 21.9999 11.9997 21.9999C11.2097 21.9999 10.4297 21.68 9.8797 21.11C9.55969 20.81 9.31969 20.4099 9.17969 20C9.3097 20.0199 9.43969 20.03 9.5797 20.0499C9.80969 20.0799 10.0497 20.1099 10.2897 20.13C10.8597 20.18 11.4397 20.21 12.0197 20.21C12.5897 20.21 13.1597 20.18 13.7198 20.13C13.9298 20.1099 14.1398 20.1 14.3397 20.07C14.4998 20.0499 14.6597 20.03 14.8298 20.01Z" fill="white"/>
</svg>
