<svg width="24" height="24" viewBox="0 0 24 24" fill="none" xmlns="http://www.w3.org/2000/svg">
<path d="M19 8C20.657 8 22 6.65685 22 5C22 3.34315 20.657 2 19 2C17.3432 2 16 3.34315 16 5C16 6.65685 17.3432 8 19 8Z" fill="white"/>
<path d="M21 10.4V16.48C21 16.62 20.99 16.76 20.9801 16.89C20.97 17.01 20.96 17.12 20.94 17.24C20.93 17.36 20.91 17.48 20.8901 17.59C20.54 20.01 19.0001 21.54 16.59 21.89C16.4801 21.91 16.3601 21.93 16.2401 21.94C16.1201 21.96 16.01 21.97 15.89 21.98C15.7601 21.99 15.62 22 15.48 22H7.52C7.38001 22 7.24 21.99 7.11001 21.98C6.99001 21.97 6.88 21.96 6.76 21.94C6.64 21.93 6.52 21.91 6.41 21.89C4 21.54 2.46001 20.01 2.11 17.59C2.09 17.48 2.07001 17.36 2.06 17.24C2.04001 17.12 2.03 17.01 2.02 16.89C2.01001 16.76 2 16.62 2 16.48V8.52C2 8.38 2.01001 8.24 2.02 8.11C2.03 7.99 2.04001 7.88 2.06 7.76C2.07001 7.64 2.09 7.52 2.11 7.41C2.46001 4.99 4 3.46 6.41 3.11C6.52 3.09 6.64 3.07 6.76 3.06C6.88 3.04 6.99001 3.03 7.11001 3.02C7.24 3.01 7.38001 3 7.52 3H13.6001C14.24 3 14.7 3.58 14.58 4.2C14.58 4.22 14.57 4.24 14.57 4.26C14.55 4.36 14.54 4.46 14.52 4.57C14.48 4.99 14.5001 5.44 14.5901 5.9C14.6201 6.02 14.64 6.12 14.6801 6.23C14.76 6.56 14.8901 6.87 15.06 7.16C15.12 7.28 15.2 7.4 15.27 7.51C15.6 7.99 16.01 8.4 16.49 8.73C16.6001 8.8 16.7201 8.88 16.8401 8.94C17.13 9.11 17.4401 9.24 17.7701 9.32C17.88 9.36 17.9801 9.38 18.1001 9.41C18.56 9.5 19.01 9.52 19.43 9.48C19.5401 9.46 19.64 9.45 19.74 9.43C19.76 9.43 19.7801 9.42 19.8 9.42C20.42 9.3 21 9.76 21 10.4Z" fill="white"/>
</svg>
