<svg width="24" height="24" viewBox="0 0 24 24" fill="none" xmlns="http://www.w3.org/2000/svg">
<path d="M19 8C20.657 8 22 6.65685 22 5C22 3.34315 20.657 2 19 2C17.3432 2 16 3.34315 16 5C16 6.65685 17.3432 8 19 8Z" fill="white"/>
<path d="M19.8 9.42C19.7801 9.42 19.76 9.43 19.74 9.43C19.64 9.45 19.5401 9.46 19.43 9.48C19.01 9.52 18.56 9.5 18.1001 9.41C17.9801 9.38 17.88 9.36 17.7701 9.32C17.4401 9.24 17.13 9.11 16.8401 8.94C16.7201 8.88 16.6001 8.8 16.49 8.73C16.01 8.4 15.6 7.99 15.27 7.51C15.2 7.4 15.12 7.28 15.06 7.16C14.8901 6.87 14.76 6.56 14.6801 6.23C14.64 6.12 14.6201 6.02 14.5901 5.9C14.5001 5.44 14.48 4.99 14.52 4.57C14.54 4.46 14.55 4.36 14.57 4.26C14.57 4.24 14.58 4.22 14.58 4.2C14.7 3.58 14.24 3 13.6001 3H7.52C7.38001 3 7.24 3.01 7.11001 3.02C6.99001 3.03 6.88 3.04 6.76 3.06C6.64 3.07 6.52 3.09 6.41 3.11C4 3.46 2.46001 4.99 2.11 7.41C2.09 7.52 2.07001 7.64 2.06 7.76C2.04001 7.88 2.03 7.99 2.02 8.11C2.01001 8.24 2 8.38 2 8.52V16.48C2 16.62 2.01001 16.76 2.02 16.89C2.03 17.01 2.04001 17.12 2.06 17.24C2.07001 17.36 2.09 17.48 2.11 17.59C2.46001 20.01 4 21.54 6.41 21.89C6.52 21.91 6.64 21.93 6.76 21.94C6.88 21.96 6.99001 21.97 7.11001 21.98C7.24 21.99 7.38001 22 7.52 22H15.48C15.62 22 15.7601 21.99 15.89 21.98C16.01 21.97 16.1201 21.96 16.2401 21.94C16.3601 21.93 16.4801 21.91 16.59 21.89C19.0001 21.54 20.54 20.01 20.8901 17.59C20.91 17.48 20.93 17.36 20.94 17.24C20.96 17.12 20.97 17.01 20.9801 16.89C20.99 16.76 21 16.62 21 16.48V10.4C21 9.76 20.42 9.3 19.8 9.42ZM6.75001 12.5H11.75C12.1601 12.5 12.5 12.84 12.5 13.25C12.5 13.66 12.1601 14 11.75 14H6.75001C6.34 14 6.00001 13.66 6.00001 13.25C6.00001 12.84 6.34 12.5 6.75001 12.5ZM15.75 18H6.75001C6.34 18 6.00001 17.66 6.00001 17.25C6.00001 16.84 6.34 16.5 6.75001 16.5H15.75C16.16 16.5 16.5 16.84 16.5 17.25C16.5 17.66 16.16 18 15.75 18Z" fill="white"/>
</svg>
