<svg width="24" height="24" viewBox="0 0 24 24" fill="none" xmlns="http://www.w3.org/2000/svg">
<path d="M20.1911 14.0569L19.0612 12.1769C18.8111 11.7669 18.5912 10.9769 18.5912 10.4969V8.62687C18.5912 4.99687 15.6412 2.04688 12.0212 2.04688C8.39118 2.05687 5.44117 4.99687 5.44117 8.62687V10.4869C5.44117 10.9669 5.22118 11.7569 4.98118 12.1669L3.85118 14.0468C3.42118 14.7769 3.32118 15.6068 3.59118 16.3268C3.86118 17.0569 4.47118 17.6369 5.27118 17.8969C6.35118 18.2569 7.44118 18.5168 8.55118 18.7069C8.66118 18.7268 8.77118 18.7369 8.88118 18.7568C9.02118 18.7769 9.17118 18.7969 9.32118 18.8168C9.58117 18.8569 9.84118 18.8869 10.1112 18.9068C10.7412 18.9668 11.3812 18.9968 12.0212 18.9968C12.6512 18.9968 13.2812 18.9668 13.9012 18.9068C14.1311 18.8869 14.3612 18.8669 14.5811 18.8369C14.7611 18.8168 14.9411 18.7969 15.1211 18.7669C15.2312 18.7568 15.3412 18.7369 15.4511 18.7169C16.5712 18.5369 17.6812 18.2569 18.7612 17.8969C19.5311 17.6369 20.1212 17.0569 20.4011 16.3169C20.6812 15.5669 20.6012 14.7469 20.1911 14.0569ZM12.7511 9.99687C12.7511 10.4169 12.4112 10.7569 11.9912 10.7569C11.5712 10.7569 11.2312 10.4169 11.2312 9.99687V6.89689C11.2312 6.47689 11.5712 6.13687 11.9912 6.13687C12.4112 6.13687 12.7511 6.47689 12.7511 6.89689V9.99687Z" fill="white"/>
<path d="M14.8298 20.01C14.4098 21.17 13.2998 21.9999 11.9997 21.9999C11.2097 21.9999 10.4297 21.68 9.8797 21.11C9.55969 20.81 9.31969 20.4099 9.17969 20C9.3097 20.0199 9.43969 20.03 9.5797 20.0499C9.80969 20.0799 10.0497 20.1099 10.2897 20.13C10.8597 20.18 11.4397 20.21 12.0197 20.21C12.5897 20.21 13.1597 20.18 13.7198 20.13C13.9298 20.1099 14.1398 20.1 14.3397 20.07C14.4998 20.0499 14.6597 20.03 14.8298 20.01Z" fill="white"/>
</svg>
