<svg width="24" height="24" viewBox="0 0 24 24" fill="none" xmlns="http://www.w3.org/2000/svg">
<path d="M12 4.74937C11.9 4.74937 11.8 4.73938 11.71 4.71937C11.61 4.69937 11.52 4.66936 11.43 4.63936C11.34 4.59936 11.25 4.54937 11.17 4.49938C11.09 4.43938 11.01 4.37937 10.94 4.30936C10.66 4.02936 10.5 3.64937 10.5 3.24937C10.5 2.84938 10.66 2.46937 10.94 2.18938C11.01 2.11937 11.09 2.05937 11.17 1.99937C11.25 1.94938 11.34 1.89936 11.43 1.86936C11.52 1.82937 11.61 1.79937 11.71 1.77936C12.19 1.67937 12.71 1.83937 13.06 2.18938C13.34 2.46937 13.5 2.84938 13.5 3.24937C13.5 3.64937 13.34 4.02936 13.06 4.30936C12.78 4.58937 12.39 4.74937 12 4.74937Z" fill="white"/>
<path d="M12 9.25C11.9 9.25 11.8 9.24 11.71 9.22C11.61 9.19999 11.52 9.16999 11.43 9.13999C11.34 9.1 11.25 9.04999 11.17 9C11.09 8.94 11.01 8.88 10.94 8.80999C10.66 8.53 10.5 8.14999 10.5 7.75C10.5 7.35 10.66 6.97 10.94 6.69C11.01 6.61999 11.09 6.55999 11.17 6.49999C11.25 6.45 11.34 6.4 11.43 6.37C11.52 6.33 11.61 6.3 11.71 6.28C11.9 6.24 12.1 6.24 12.29 6.28C12.39 6.3 12.48 6.33 12.57 6.37C12.66 6.4 12.75 6.45 12.83 6.49999C12.91 6.55999 12.99 6.61999 13.06 6.69C13.34 6.97 13.5 7.35 13.5 7.75C13.5 8.14999 13.34 8.53 13.06 8.80999C12.99 8.88 12.91 8.94 12.83 9C12.75 9.04999 12.66 9.1 12.57 9.13999C12.48 9.16999 12.39 9.19999 12.29 9.22C12.2 9.24 12.1 9.25 12 9.25Z" fill="white"/>
<path d="M12 13.2493C11.9 13.2493 11.8 13.2394 11.71 13.2193C11.61 13.1994 11.52 13.1694 11.43 13.1394C11.34 13.0993 11.25 13.0494 11.17 12.9994C11.09 12.9394 11.01 12.8794 10.94 12.8094C10.87 12.7393 10.81 12.6694 10.75 12.5794C10.7 12.4993 10.65 12.4093 10.61 12.3193C10.58 12.2293 10.55 12.1393 10.53 12.0394C10.51 11.9494 10.5 11.8494 10.5 11.7494C10.5 11.3494 10.66 10.9694 10.94 10.6894C11.01 10.6194 11.09 10.5594 11.17 10.4994C11.25 10.4494 11.34 10.3994 11.43 10.3594C11.52 10.3294 11.61 10.2994 11.71 10.2794C12.19 10.1794 12.71 10.3394 13.06 10.6894C13.34 10.9694 13.5 11.3494 13.5 11.7494C13.5 11.8494 13.49 11.9494 13.47 12.0394C13.45 12.1393 13.42 12.2293 13.38 12.3193C13.35 12.4093 13.3 12.4993 13.25 12.5794C13.19 12.6694 13.13 12.7393 13.06 12.8094C12.99 12.8794 12.91 12.9394 12.83 12.9994C12.75 13.0494 12.66 13.0993 12.57 13.1394C12.48 13.1694 12.39 13.1994 12.29 13.2193C12.2 13.2394 12.1 13.2493 12 13.2493Z" fill="white"/>
<path d="M12 16.7549C11.74 16.7549 11.48 16.6449 11.29 16.4649C11.11 16.2749 11 16.0149 11 15.7549C11 15.4949 11.11 15.2349 11.29 15.0449C11.52 14.8149 11.87 14.7149 12.1901 14.7749C12.26 14.7849 12.32 14.8049 12.38 14.8349C12.44 14.8549 12.5 14.8849 12.5501 14.9249C12.6101 14.9649 12.66 15.0049 12.71 15.0449C12.89 15.2349 13.0001 15.4949 13.0001 15.7549C13.0001 16.0149 12.89 16.2749 12.71 16.4649C12.66 16.5049 12.6101 16.5449 12.5501 16.5849C12.5 16.6249 12.44 16.6549 12.38 16.6749C12.32 16.7049 12.26 16.7249 12.1901 16.7349C12.1301 16.7449 12.06 16.7549 12 16.7549Z" fill="white"/>
<path d="M12 20C11.9 20 11.8 19.98 11.71 19.94C11.62 19.8999 11.54 19.85 11.47 19.7799C11.4 19.71 11.34 19.6299 11.31 19.5399C11.27 19.4499 11.25 19.35 11.25 19.25C11.25 19.05 11.33 18.86 11.47 18.72C11.54 18.65 11.62 18.6 11.71 18.56C11.9 18.48 12.1 18.48 12.29 18.56C12.38 18.6 12.46 18.65 12.53 18.72C12.6 18.7899 12.65 18.87 12.69 18.96C12.73 19.05 12.75 19.1499 12.75 19.25C12.75 19.35 12.73 19.4499 12.69 19.5399C12.65 19.6299 12.6 19.71 12.53 19.7799C12.46 19.85 12.38 19.8999 12.29 19.94C12.19 19.98 12.1 20 12 20Z" fill="white"/>
<path d="M12 22.0706C11.87 22.0706 11.74 22.0206 11.65 21.9206C11.55 21.8306 11.5 21.7007 11.5 21.5706C11.5 21.4406 11.55 21.3107 11.65 21.2207C11.83 21.0306 12.1699 21.0306 12.3499 21.2207C12.45 21.3107 12.4999 21.4406 12.4999 21.5706C12.4999 21.7007 12.45 21.8306 12.3499 21.9206C12.2599 22.0206 12.13 22.0706 12 22.0706Z" fill="white"/>
<path d="M3.5 9.24562C3.1 9.24562 2.72 9.08563 2.44 8.80562C2.16001 8.52562 2 8.14562 2 7.74562C2 7.35562 2.16001 6.96562 2.44 6.68563C2.99 6.12562 4 6.12562 4.56001 6.68563C4.84 6.96562 5 7.35562 5 7.74562C5 8.14562 4.84 8.52562 4.56001 8.80562C4.49 8.87563 4.41002 8.93563 4.33003 8.99563C4.25002 9.04562 4.16001 9.09562 4.07001 9.12562C3.98001 9.16562 3.88999 9.19562 3.78998 9.21562C3.69998 9.23563 3.60001 9.24562 3.5 9.24562Z" fill="white"/>
<path d="M20.5 9.25C20.11 9.25 19.72 9.09 19.44 8.80999C19.16 8.53 19 8.14 19 7.75C19 7.65 19.01 7.55001 19.03 7.46001C19.05 7.36001 19.08 7.26998 19.11 7.17998C19.15 7.08998 19.2 7 19.25 6.91999C19.31 6.84 19.37 6.76 19.44 6.69C19.51 6.61999 19.59 6.55999 19.67 6.49999C19.75 6.45 19.84 6.4 19.93 6.37C20.02 6.33 20.11 6.3 20.21 6.28C20.4 6.24 20.6 6.24 20.79 6.28C20.89 6.3 20.98 6.33 21.07 6.37C21.16 6.4 21.25 6.45 21.33 6.49999C21.41 6.55999 21.49 6.61999 21.56 6.69C21.63 6.76 21.69 6.84 21.75 6.91999C21.8 7 21.85 7.08998 21.88 7.17998C21.92 7.26998 21.95 7.36001 21.97 7.46001C21.99 7.55001 22 7.65 22 7.75C22 8.14999 21.84 8.53 21.56 8.80999C21.49 8.88 21.41 8.94 21.33 9C21.25 9.04999 21.16 9.1 21.07 9.13999C20.98 9.16999 20.89 9.19999 20.79 9.22C20.69 9.24 20.6 9.25 20.5 9.25Z" fill="white"/>
<path d="M20.5 12.7525C20.44 12.7525 20.37 12.7424 20.31 12.7325C20.24 12.7225 20.18 12.7025 20.12 12.6725C20.06 12.6524 20 12.6224 19.94 12.5825C19.89 12.5525 19.84 12.5024 19.79 12.4625C19.75 12.4124 19.7 12.3625 19.67 12.3125C19.63 12.2525 19.6 12.1925 19.58 12.1325C19.55 12.0725 19.53 12.0125 19.52 11.9525C19.51 11.8825 19.5 11.8225 19.5 11.7525C19.5 11.4925 19.61 11.2325 19.79 11.0425C19.84 11.0025 19.89 10.9625 19.94 10.9225C20 10.8825 20.06 10.8525 20.12 10.8325C20.18 10.8025 20.24 10.7825 20.31 10.7725C20.43 10.7425 20.56 10.7425 20.69 10.7725C20.76 10.7825 20.82 10.8025 20.88 10.8325C20.94 10.8525 21 10.8825 21.05 10.9225C21.11 10.9625 21.16 11.0025 21.21 11.0425C21.39 11.2325 21.5 11.4925 21.5 11.7525C21.5 11.8225 21.49 11.8825 21.48 11.9525C21.47 12.0125 21.45 12.0725 21.42 12.1325C21.4 12.1925 21.37 12.2525 21.33 12.3125C21.29 12.3625 21.25 12.4124 21.21 12.4625C21.16 12.5024 21.11 12.5525 21.05 12.5825C21 12.6224 20.94 12.6524 20.88 12.6725C20.82 12.7025 20.76 12.7225 20.69 12.7325C20.63 12.7424 20.56 12.7525 20.5 12.7525Z" fill="white"/>
<path d="M3.5 12.7528C3.23999 12.7528 2.97998 12.6428 2.78998 12.4628C2.60998 12.2728 2.5 12.0128 2.5 11.7528C2.5 11.4928 2.60998 11.2328 2.78998 11.0428C3.06998 10.7628 3.50999 10.6728 3.88 10.8328C4.01 10.8828 4.11002 10.9528 4.21001 11.0428C4.39001 11.2328 4.49999 11.4928 4.49999 11.7528C4.49999 12.0128 4.39001 12.2728 4.21001 12.4628C4.02002 12.6428 3.76 12.7528 3.5 12.7528Z" fill="white"/>
<path d="M20.5 15.4985C20.3 15.4985 20.11 15.4186 19.97 15.2785C19.83 15.1385 19.75 14.9485 19.75 14.7485C19.75 14.6485 19.77 14.5585 19.81 14.4586C19.85 14.3686 19.9 14.2885 19.97 14.2186C20.18 14.0086 20.51 13.9385 20.79 14.0585C20.88 14.0986 20.96 14.1485 21.03 14.2186C21.1 14.2885 21.15 14.3686 21.19 14.4586C21.23 14.5585 21.25 14.6485 21.25 14.7485C21.25 14.9485 21.17 15.1385 21.03 15.2785C20.96 15.3485 20.88 15.3985 20.79 15.4385C20.69 15.4786 20.6 15.4985 20.5 15.4985Z" fill="white"/>
<path d="M3.5 15.5017C3.30001 15.5017 3.10998 15.4218 2.96997 15.2817C2.89998 15.2118 2.84 15.1317 2.81 15.0417C2.77 14.9517 2.75 14.8518 2.75 14.7517C2.75 14.6517 2.77 14.5617 2.81 14.4618C2.84 14.3718 2.89998 14.2917 2.96997 14.2218C3.23997 13.9417 3.75003 13.9417 4.03003 14.2218C4.10004 14.2917 4.15 14.3718 4.19 14.4618C4.23001 14.5617 4.25 14.6517 4.25 14.7517C4.25 14.8518 4.23001 14.9517 4.19 15.0417C4.15 15.1317 4.10004 15.2118 4.03003 15.2817C3.89004 15.4218 3.7 15.5017 3.5 15.5017Z" fill="white"/>
<path d="M20.5 18.0004C20.43 18.0004 20.37 17.9903 20.31 17.9603C20.25 17.9404 20.19 17.9003 20.15 17.8504C20.05 17.7604 20 17.6303 20 17.5003C20 17.3704 20.05 17.2403 20.15 17.1503C20.33 16.9603 20.67 16.9603 20.85 17.1503C20.95 17.2403 21 17.3704 21 17.5003C21 17.6303 20.95 17.7604 20.85 17.8504C20.76 17.9503 20.63 18.0004 20.5 18.0004Z" fill="white"/>
<path d="M3.5 18.0004C3.37 18.0004 3.24002 17.9503 3.15002 17.8504C3.05002 17.7604 3 17.6303 3 17.5003C3 17.3704 3.05002 17.2403 3.15002 17.1503C3.33002 16.9603 3.66998 16.9603 3.84998 17.1503C3.94998 17.2403 4 17.3704 4 17.5003C4 17.6303 3.94998 17.7604 3.84998 17.8504C3.75998 17.9503 3.63 18.0004 3.5 18.0004Z" fill="white"/>
<path d="M7.75 6.99562C7.64999 6.99562 7.55002 6.98563 7.46002 6.96562C7.36001 6.94562 7.26999 6.91562 7.17999 6.87562C7.07999 6.84562 6.99998 6.79562 6.91997 6.74563C6.82997 6.68563 6.76 6.62563 6.68999 6.55562C6.41 6.27562 6.25 5.88562 6.25 5.49562C6.25 5.10562 6.41 4.71562 6.68999 4.43563C7.25 3.87562 8.24999 3.87562 8.81 4.43563C9.08999 4.71562 9.25 5.09563 9.25 5.49562C9.25 5.89562 9.08999 6.27562 8.81 6.55562C8.74 6.62563 8.66002 6.68563 8.58002 6.74563C8.50001 6.79562 8.41001 6.84562 8.32001 6.87562C8.23001 6.91562 8.13998 6.94562 8.03998 6.96562C7.94998 6.98563 7.85 6.99562 7.75 6.99562Z" fill="white"/>
<path d="M16.25 7C16.15 7 16.05 6.99 15.96 6.97C15.86 6.94999 15.77 6.92001 15.68 6.88001C15.59 6.85001 15.5 6.79999 15.42 6.75C15.34 6.69 15.26 6.63 15.19 6.55999C15.12 6.49 15.06 6.40999 15 6.33C14.95 6.25 14.9 6.16001 14.86 6.07001C14.83 5.98001 14.8 5.88999 14.78 5.78999C14.76 5.69999 14.75 5.59999 14.75 5.5C14.75 5.11 14.91 4.72 15.19 4.44C15.26 4.36999 15.34 4.30999 15.42 4.24999C15.5 4.2 15.59 4.15 15.68 4.12C15.77 4.08 15.86 4.05 15.96 4.03C16.15 3.99 16.35 3.99 16.54 4.03C16.64 4.05 16.73 4.08 16.82 4.12C16.91 4.15 17 4.2 17.08 4.24999C17.16 4.30999 17.24 4.36999 17.31 4.44C17.59 4.72 17.75 5.11 17.75 5.5C17.75 5.59999 17.74 5.69999 17.72 5.78999C17.7 5.88999 17.67 5.98001 17.64 6.07001C17.6 6.16001 17.55 6.25 17.5 6.33C17.44 6.40999 17.38 6.49 17.31 6.55999C17.24 6.63 17.16 6.69 17.08 6.75C17 6.79999 16.91 6.85001 16.82 6.88001C16.73 6.92001 16.64 6.94999 16.54 6.97C16.45 6.99 16.35 7 16.25 7Z" fill="white"/>
<path d="M7.75 11.2495C7.64999 11.2495 7.55002 11.2395 7.46002 11.2195C7.36001 11.1995 7.26999 11.1695 7.17999 11.1395C7.08999 11.0995 6.99998 11.0495 6.91997 10.9995C6.82997 10.9395 6.76 10.8795 6.68999 10.8095C6.41 10.5295 6.25 10.1395 6.25 9.74953C6.25 9.34952 6.41 8.96953 6.68999 8.68953C7.25 8.12953 8.24999 8.12953 8.81 8.68953C9.08999 8.96953 9.25 9.34952 9.25 9.74953C9.25 10.1495 9.08999 10.5295 8.81 10.8095C8.53 11.0895 8.14 11.2495 7.75 11.2495Z" fill="white"/>
<path d="M16.25 11.25C16.15 11.25 16.05 11.24 15.96 11.22C15.86 11.2 15.77 11.17 15.68 11.13C15.59 11.1 15.5 11.05 15.42 11C15.34 10.94 15.26 10.88 15.19 10.81C15.12 10.74 15.06 10.66 15 10.58C14.95 10.5 14.9 10.41 14.86 10.32C14.83 10.23 14.8 10.14 14.78 10.04C14.76 9.94999 14.75 9.84999 14.75 9.75C14.75 9.36 14.91 8.97 15.19 8.69C15.26 8.61999 15.34 8.55999 15.42 8.49999C15.5 8.45 15.59 8.4 15.68 8.37C15.77 8.33 15.86 8.3 15.96 8.28C16.15 8.24 16.35 8.24 16.54 8.28C16.64 8.3 16.73 8.33 16.82 8.37C16.91 8.4 17 8.45 17.08 8.49999C17.16 8.55999 17.24 8.61999 17.31 8.69C17.59 8.97 17.75 9.36 17.75 9.75C17.75 9.84999 17.74 9.94999 17.72 10.04C17.7 10.14 17.67 10.23 17.64 10.32C17.6 10.41 17.55 10.5 17.5 10.58C17.44 10.66 17.38 10.74 17.31 10.81C17.24 10.88 17.16 10.94 17.08 11C17 11.05 16.91 11.1 16.82 11.13C16.73 11.17 16.64 11.2 16.54 11.22C16.45 11.24 16.35 11.25 16.25 11.25Z" fill="white"/>
<path d="M7.75 14.7454C7.62 14.7454 7.49 14.7154 7.37 14.6653C7.24 14.6153 7.12998 14.5453 7.03998 14.4553C6.94998 14.3554 6.88002 14.2453 6.83002 14.1253C6.78002 14.0053 6.75 13.8754 6.75 13.7453C6.75 13.4854 6.85998 13.2253 7.03998 13.0354C7.40998 12.6653 8.09002 12.6653 8.46002 13.0354C8.64002 13.2253 8.75 13.4854 8.75 13.7453C8.75 13.8754 8.71998 14.0053 8.66998 14.1253C8.61998 14.2453 8.55002 14.3554 8.46002 14.4553C8.27002 14.6353 8.01 14.7454 7.75 14.7454Z" fill="white"/>
<path d="M16.25 14.7454C15.99 14.7454 15.73 14.6353 15.54 14.4553C15.36 14.2654 15.25 14.0053 15.25 13.7453C15.25 13.4854 15.36 13.2253 15.54 13.0354C15.91 12.6653 16.58 12.6653 16.96 13.0354C17.14 13.2253 17.25 13.4854 17.25 13.7453C17.25 13.8154 17.24 13.8754 17.23 13.9453C17.22 14.0053 17.2 14.0653 17.17 14.1253C17.15 14.1853 17.12 14.2453 17.08 14.2954C17.04 14.3554 17 14.4053 16.96 14.4553C16.77 14.6353 16.51 14.7454 16.25 14.7454Z" fill="white"/>
<path d="M7.75 17.75C7.55 17.75 7.35996 17.67 7.21997 17.5299C7.14996 17.46 7.1 17.3799 7.06 17.2899C7.01999 17.1999 7 17.1 7 17C7 16.8999 7.01999 16.8099 7.06 16.71C7.1 16.62 7.14996 16.5399 7.21997 16.47C7.28997 16.4 7.37002 16.35 7.46002 16.31C7.64002 16.23 7.84997 16.23 8.03998 16.31C8.12998 16.35 8.21003 16.4 8.28003 16.47C8.42003 16.61 8.5 16.8 8.5 17C8.5 17.1 8.48 17.1999 8.44 17.2899C8.39999 17.3799 8.35002 17.46 8.28003 17.5299C8.14002 17.67 7.94999 17.75 7.75 17.75Z" fill="white"/>
<path d="M16.25 17.75C16.15 17.75 16.05 17.73 15.96 17.69C15.87 17.6499 15.79 17.6 15.72 17.5299C15.65 17.46 15.59 17.3799 15.56 17.2899C15.52 17.1999 15.5 17.1 15.5 17C15.5 16.8999 15.52 16.8 15.56 16.71C15.6 16.62 15.65 16.5399 15.72 16.47C15.79 16.4 15.87 16.35 15.96 16.31C16.14 16.23 16.35 16.23 16.54 16.31C16.63 16.35 16.71 16.4 16.78 16.47C16.85 16.5399 16.9 16.62 16.94 16.71C16.98 16.8 17 16.8999 17 17C17 17.1 16.98 17.1999 16.94 17.2899C16.9 17.3799 16.85 17.46 16.78 17.5299C16.64 17.67 16.45 17.75 16.25 17.75Z" fill="white"/>
<path d="M7.75 20.0002C7.62001 20.0002 7.49002 19.9503 7.40002 19.8502C7.30003 19.7602 7.25 19.6303 7.25 19.5003C7.25 19.3702 7.30003 19.2403 7.40002 19.1503C7.58002 18.9603 7.91998 18.9603 8.09998 19.1503C8.19998 19.2403 8.25001 19.3702 8.25001 19.5003C8.25001 19.6303 8.19998 19.7602 8.09998 19.8502C8.00998 19.9503 7.88 20.0002 7.75 20.0002Z" fill="white"/>
<path d="M16.25 20.0002C16.18 20.0002 16.12 19.9903 16.06 19.9603C16 19.9402 15.94 19.9003 15.9 19.8502C15.85 19.8103 15.81 19.7503 15.79 19.6903C15.76 19.6303 15.75 19.5703 15.75 19.5003C15.75 19.3702 15.8 19.2403 15.9 19.1503C16.08 18.9603 16.42 18.9603 16.6 19.1503C16.7 19.2403 16.75 19.3702 16.75 19.5003C16.75 19.5703 16.74 19.6303 16.71 19.6903C16.69 19.7503 16.65 19.8103 16.6 19.8502C16.51 19.9503 16.38 20.0002 16.25 20.0002Z" fill="white"/>
</svg>
