<svg width="24" height="24" viewBox="0 0 24 24" fill="none" xmlns="http://www.w3.org/2000/svg">
<path d="M12 2C6.48001 2 2 6.48 2 12C2 17.52 6.48001 22 12 22C17.52 22 22.0001 17.52 22.0001 12C22.0001 6.48 17.52 2 12 2ZM17 17.25H13.9001C13.6001 17.25 13.3301 17.08 13.2101 16.8C13.0901 16.52 13.14 16.21 13.34 15.99L14.96 14.2C15.63 13.45 16.01 12.5 16.01 11.52C16.01 10.52 15.6 9.58 14.85 8.87C14.1 8.16 13.0601 7.75 12 7.75C10.94 7.75 9.90001 8.16 9.15001 8.87C8.40001 9.58 7.99 10.52 7.99 11.52C7.99 12.5 8.36 13.45 9.04 14.2L10.65 16C10.85 16.22 10.9 16.54 10.78 16.81C10.66 17.08 10.39 17.26 10.09 17.26H7C6.59 17.26 6.25 16.92 6.25 16.51C6.25 16.1 6.59 15.75 7 15.75H8.41L7.92001 15.21C7 14.19 6.49 12.88 6.49 11.52C6.49 10.13 7.08001 8.76 8.12 7.78C9.16 6.79 10.53 6.25 12 6.25C13.47 6.25 14.84 6.79 15.8801 7.78C16.91 8.76 17.51 10.13 17.51 11.52C17.51 12.87 17 14.18 16.08 15.21L15.59 15.75H17C17.4101 15.75 17.75 16.09 17.75 16.5C17.75 16.91 17.4101 17.25 17 17.25Z" fill="white"/>
</svg>
