<svg width="24" height="24" viewBox="0 0 24 24" fill="none" xmlns="http://www.w3.org/2000/svg">
<path d="M19.11 7.46754L15.59 3.94754C12.43 0.797546 10.77 1.95755 8.77004 3.94754L3.11005 9.60755C1.96004 10.7576 1.33004 11.4976 1.10005 12.3176C1.10005 12.3275 1.09005 12.3275 1.09005 12.3275C1.09005 12.3376 1.09005 12.3376 1.09005 12.3376C1.09005 12.3476 1.09005 12.3476 1.09005 12.3476V12.3776C0.680046 13.8376 1.76005 15.0776 3.11005 16.4276L6.64004 19.9376C7.90004 21.2075 8.92004 21.9976 10.05 21.9976C11.18 21.9976 12.15 21.2375 13.45 19.9376L19.11 14.2876C19.6 13.7876 19.96 13.3775 20.24 12.9875C20.24 12.9776 20.24 12.9776 20.24 12.9776C20.24 12.9776 20.24 12.9776 20.25 12.9776C21.53 11.1876 21.19 9.53754 19.11 7.46754ZM18.08 11.3676H18.07C17.77 11.2976 17.46 11.2376 17.15 11.1776C17.13 11.1776 17.11 11.1676 17.08 11.1676C16.38 11.0376 15.67 10.9276 14.95 10.8376H14.91C14.19 10.7476 13.46 10.6776 12.73 10.6376H12.65C12.01 10.5976 11.36 10.5776 10.72 10.5776C9.94004 10.5776 9.16004 10.6176 8.39005 10.6676C8.26004 10.6776 8.14004 10.6876 8.02004 10.6976C7.44005 10.7376 6.86005 10.7976 6.29005 10.8676C6.13004 10.8876 5.98004 10.9076 5.83004 10.9276C5.25005 11.0176 4.68005 11.1076 4.11005 11.2176C3.98005 11.2476 3.86005 11.2676 3.73004 11.2876C3.68005 11.2976 3.62005 11.3076 3.57005 11.3176C3.75005 11.1176 3.96005 10.9076 4.19005 10.6776L9.84005 5.02754C11.66 3.22754 12.28 2.79755 14.52 5.02754L18.03 8.54754C18.57 9.07754 18.93 9.52754 19.15 9.91754C19.15 9.91754 19.15 9.92754 19.16 9.92754C19.58 10.6576 18.9 11.5276 18.08 11.3676Z" fill="white"/>
<path d="M20.9498 16.87C20.5699 16.4001 20.2399 16 19.4999 16C18.7598 16 18.4298 16.4001 18.0599 16.87C17.2598 17.86 16.8998 18.94 17.0299 19.98C17.1799 21.1701 18.1999 22 19.4999 22C20.7998 22 21.8198 21.1701 21.9698 19.9701C22.0999 18.93 21.7499 17.86 20.9498 16.87Z" fill="white"/>
</svg>
