<svg width="24" height="24" viewBox="0 0 24 24" fill="none" xmlns="http://www.w3.org/2000/svg">
<path d="M19.1922 1.66083C19.5838 1.36143 20.063 1.19922 20.5558 1.19922C21.7955 1.19922 22.8006 2.20423 22.8006 3.44397C22.8006 3.93685 22.6384 4.41602 22.339 4.80755L17.5031 11.1313C16.1361 12.9191 14.3978 14.3751 12.4192 15.406C11.9232 13.5434 10.4564 12.0766 8.59375 11.5807C9.62467 9.60205 11.0807 7.86378 12.8685 6.49665L19.1922 1.66083Z" fill="#0F172A"/>
<path d="M7.2007 13.1992C5.21248 13.1992 3.6007 14.8109 3.6007 16.7992C3.6007 17.1305 3.33207 17.3992 3.0007 17.3992C2.90415 17.3992 2.81534 17.377 2.73674 17.3384C2.40651 17.176 2.01068 17.231 1.73721 17.4772C1.46375 17.7235 1.36778 18.1114 1.49486 18.4568C2.16928 20.2897 3.93092 21.5992 6.0007 21.5992C8.64988 21.5992 10.7978 19.4528 10.8007 16.8043V16.7992C10.8007 16.2232 10.6647 15.6763 10.4223 15.1913C10.0737 14.4939 9.50604 13.9262 8.8086 13.5776C8.32362 13.3352 7.77675 13.1992 7.2007 13.1992Z" fill="#0F172A"/>
</svg>
