<svg width="24" height="24" viewBox="0 0 24 24" fill="none" xmlns="http://www.w3.org/2000/svg">
<path fill-rule="evenodd" clip-rule="evenodd" d="M18.746 5.25285C17.34 3.84697 15.0608 3.84697 13.6548 5.25285L5.25481 13.6529C3.84892 15.0588 3.84892 17.3381 5.25481 18.744C6.66033 20.1496 8.93893 20.1499 10.3449 18.7451L10.346 18.744L10.9419 18.1441C11.2922 17.7916 11.8621 17.7896 12.2147 18.1399C12.5673 18.4902 12.5692 19.0601 12.2189 19.4128L11.6209 20.0147L11.6188 20.0168C9.50994 22.1256 6.09085 22.1256 3.98201 20.0168C1.87318 17.908 1.87318 14.4889 3.98201 12.38L12.382 3.98006C14.4909 1.87123 17.9099 1.87123 20.0188 3.98006C22.126 6.08732 22.1276 9.50289 20.0235 11.6121L15.8778 15.8759C14.6477 17.1061 12.6532 17.106 11.423 15.8759C10.1929 14.6456 10.1929 12.6512 11.423 11.4211L15.564 7.28009C15.9155 6.92862 16.4853 6.92862 16.8368 7.28009C17.1882 7.63157 17.1882 8.20141 16.8368 8.55288L12.6958 12.6938C12.1686 13.2211 12.1686 14.0759 12.6958 14.603C13.2218 15.129 14.0735 15.1303 14.601 14.607L18.746 10.344C20.1518 8.93808 20.1519 6.65874 18.746 5.25285Z" fill="#0F172A"/>
</svg>
