<svg width="24" height="24" viewBox="0 0 24 24" fill="none" xmlns="http://www.w3.org/2000/svg">
<path d="M3.72553 2.7472C3.42357 2.7044 3.12047 2.81744 2.92027 3.04751C2.72008 3.2776 2.65002 3.59341 2.73415 3.88655L4.43053 9.79761C4.65202 10.5693 5.35782 11.1011 6.16069 11.1011H13.4992C13.9963 11.1011 14.3992 11.504 14.3992 12.0011C14.3992 12.4981 13.9963 12.9011 13.4992 12.9011H6.16071C5.35782 12.9011 4.65202 13.4328 4.43055 14.2045L2.73415 20.1156C2.65002 20.4088 2.72008 20.7246 2.92027 20.9546C3.12047 21.1848 3.42357 21.2978 3.72553 21.255C10.7309 20.2621 17.0644 17.1835 22.0772 12.67C22.2668 12.4992 22.375 12.2562 22.375 12.0011C22.375 11.746 22.2668 11.5029 22.0772 11.3323C17.0644 6.81862 10.7309 3.74009 3.72553 2.7472Z" fill="#0F172A"/>
</svg>
