<svg width="24" height="24" viewBox="0 0 24 24" fill="none" xmlns="http://www.w3.org/2000/svg">
<path d="M18 4H15.75V2.75C15.75 2.34 15.41 2 15 2C14.59 2 14.25 2.34 14.25 2.75V21.25C14.25 21.66 14.59 22 15 22C15.41 22 15.75 21.66 15.75 21.25V20H18C20.21 20 22 18.21 22 16V8C22 5.79 20.21 4 18 4Z" fill="white"/>
<path d="M6.5 4C4.28999 4 2.5 5.79 2.5 8V16C2.5 18.21 4.28999 20 6.5 20H11.5C12.0499 20 12.4999 19.55 12.4999 19V5C12.4999 4.45 12.0499 4 11.5 4H6.5ZM6.67 12.38C6.62 12.5 6.55 12.61 6.46 12.71C6.35999 12.8 6.25 12.87 6.13 12.92C6.01 12.97 5.87999 13 5.75 13C5.62 13 5.48999 12.97 5.36999 12.92C5.24999 12.87 5.14 12.8 5.03999 12.71C4.94999 12.61 4.88 12.5 4.82 12.38C4.76999 12.26 4.75 12.13 4.75 12C4.75 11.74 4.85999 11.48 5.03999 11.29C5.09 11.25 5.14 11.21 5.18999 11.17C5.24999 11.13 5.30999 11.1 5.36999 11.08C5.42999 11.05 5.48999 11.03 5.54999 11.02C5.89 10.95 6.23 11.06 6.46 11.29C6.64 11.48 6.74999 11.74 6.74999 12C6.74999 12.13 6.71999 12.26 6.67 12.38ZM10.17 12.38C10.12 12.5 10.05 12.61 9.95999 12.71C9.86 12.8 9.74999 12.87 9.62999 12.92C9.50999 12.97 9.38 13 9.25 13C9.11999 13 8.99 12.97 8.87 12.92C8.75 12.87 8.63999 12.8 8.54 12.71C8.35 12.52 8.24999 12.27 8.24999 12C8.24999 11.87 8.27999 11.74 8.33 11.62C8.38 11.49 8.45 11.39 8.54 11.29C8.90999 10.92 9.58 10.92 9.95999 11.29C10.14 11.48 10.25 11.74 10.25 12C10.25 12.13 10.22 12.26 10.17 12.38Z" fill="white"/>
</svg>
