<svg width="24" height="24" viewBox="0 0 24 24" fill="none" xmlns="http://www.w3.org/2000/svg">
<path d="M20.0198 10.7004L17.8999 12.0404C17.4998 12.2904 16.9898 12.2304 16.6598 11.9004L12.1298 7.37041C11.7999 7.04041 11.7399 6.53041 11.9899 6.13041L13.3298 4.01041C14.1499 2.72041 15.7898 2.66041 16.9999 3.86041L20.1799 7.04041C21.2999 8.1704 21.2299 9.93041 20.0198 10.7004Z" fill="white"/>
<path d="M14.7092 19.9498L5.98917 20.9698C5.91149 20.9801 5.83483 20.9875 5.75923 20.9919C5.0741 21.0323 4.90423 20.2247 5.38952 19.7395L7.97918 17.1499C8.29917 16.8398 8.29917 16.3498 7.97918 16.0399C7.67918 15.7298 7.18917 15.7298 6.86918 16.0399L4.27952 18.6295C3.79423 19.1147 2.99409 18.9441 3.0305 18.2588C3.03433 18.1868 3.04053 18.1138 3.04917 18.0398L4.07918 9.31975C4.33917 7.13975 5.13917 6.41975 7.43918 6.55975L8.93918 6.64975C9.42917 6.67975 9.88917 6.88975 10.2392 7.23976L16.7892 13.7899C17.1392 14.1398 17.3492 14.5999 17.3692 15.0898L17.4592 16.5898C17.6892 18.8998 16.8992 19.6999 14.7092 19.9498Z" fill="white"/>
</svg>
