<svg width="24" height="24" viewBox="0 0 24 24" fill="none" xmlns="http://www.w3.org/2000/svg">
<path d="M14.1505 22.0003H9.83046C8.29047 22.0003 7.15047 20.7502 7.45047 19.4203L7.97046 17.1003C8.07046 16.6402 8.48046 16.3203 8.95047 16.3203H15.0405C15.5104 16.3203 15.9105 16.6402 16.0204 17.1003L16.5405 19.4103C16.8604 20.8402 15.7905 22.0003 14.1505 22.0003Z" fill="white"/>
<path d="M18.8198 13.6897L17.7498 14.6296C17.3798 14.9497 16.9098 15.1297 16.4298 15.1297H7.58983C7.09983 15.1297 6.61983 14.9497 6.25983 14.6197L5.20983 13.6797C3.48984 12.2697 3.47983 11.1897 4.79983 9.52967L10.0298 2.91966C10.0664 2.8706 10.1039 2.82341 10.1423 2.77802C10.5832 2.25702 11.2698 2.70454 11.2698 3.3871V6.85967C11.2598 7.28966 11.5998 7.62966 12.0198 7.61966C12.4398 7.62966 12.7698 7.28966 12.7798 6.85967V3.3871C12.7798 2.70454 13.4562 2.26727 13.9088 2.77814C13.9463 2.82043 13.9833 2.86427 14.0198 2.90966L19.2298 9.52967C20.5298 11.1897 20.4798 12.2197 18.8198 13.6897Z" fill="white"/>
</svg>
