<svg width="24" height="24" viewBox="0 0 24 24" fill="none" xmlns="http://www.w3.org/2000/svg">
<path d="M6.9 3.60156C6.40295 3.60156 6 4.00451 6 4.50156V19.5016C6 19.9986 6.40295 20.4016 6.9 20.4016H8.7C9.19705 20.4016 9.6 19.9986 9.6 19.5016V4.50156C9.6 4.00451 9.19705 3.60156 8.7 3.60156H6.9Z" fill="#0F172A"/>
<path d="M15.3004 3.60156C14.8034 3.60156 14.4004 4.00451 14.4004 4.50156V19.5016C14.4004 19.9986 14.8034 20.4016 15.3004 20.4016H17.1004C17.5974 20.4016 18.0004 19.9986 18.0004 19.5016V4.50156C18.0004 4.00451 17.5974 3.60156 17.1004 3.60156H15.3004Z" fill="#0F172A"/>
</svg>
