<svg width="24" height="24" viewBox="0 0 24 24" fill="none" xmlns="http://www.w3.org/2000/svg">
<path d="M18.9992 7C18.9992 7.18 18.9892 7.34998 18.9692 7.51999C18.8492 8.96998 18.2092 10.28 17.2393 11.24C16.1593 12.33 14.6593 13 12.9992 13H9.86925C9.36924 13 8.94925 13.37 8.87925 13.86L8.11924 19.14C8.05924 19.53 7.77925 19.85 7.40925 19.95C7.31925 19.99 7.22924 20 7.12925 20H5.17922C4.55923 20 4.08924 19.45 4.18924 18.84L6.57923 4.51C6.81923 3.06001 8.06924 2 9.53924 2H13.9993C16.7593 2 18.9992 4.24 18.9992 7Z" fill="white"/>
<path d="M21.0007 10.9997C21.0007 12.3797 20.4407 13.6297 19.5407 14.5397C18.6307 15.4397 17.3807 15.9997 16.0007 15.9997H13.8507C13.3607 15.9997 12.9407 16.3498 12.8607 16.8397L12.1407 21.1597C12.0607 21.6497 11.6407 21.9997 11.1507 21.9997H8.22072C8.04072 21.9997 7.8807 21.9596 7.74071 21.8797C7.5207 21.7597 7.66071 21.4697 7.90071 21.3697C8.80071 21.0797 9.46072 20.3098 9.60072 19.3498L10.2407 14.9297C10.2807 14.6797 10.4907 14.4997 10.7307 14.4997H13.0007C15.0107 14.4997 16.9007 13.7197 18.3007 12.3097C19.1307 11.4897 19.7507 10.4797 20.1107 9.38967C20.1907 9.13966 20.5207 9.08967 20.6307 9.31966C20.8707 9.83967 21.0007 10.3997 21.0007 10.9997Z" fill="white"/>
</svg>
