<svg width="24" height="24" viewBox="0 0 24 24" fill="none" xmlns="http://www.w3.org/2000/svg">
<path d="M16.0003 21.2941L6.64034 22.3942C5.99034 22.4741 5.41034 22.3741 4.92034 22.1341C4.40034 21.8741 3.99034 21.4741 3.73034 20.9441C3.49034 20.4541 3.40034 19.8841 3.47034 19.2442L4.32034 12.0941C4.40034 12.1241 4.48034 12.1541 4.56034 12.1741C5.17034 12.3941 5.82034 12.5041 6.50034 12.5041C7.96034 12.5041 9.37034 11.9741 10.4403 11.0241C10.9003 10.6241 11.3103 10.1441 11.6403 9.59406C11.9203 9.12406 12.1303 8.62407 12.2703 8.13406C12.3403 7.87407 12.4003 7.59406 12.4402 7.31406C12.4503 7.26406 12.4503 7.21407 12.4503 7.16406L12.6202 7.17406L18.7003 13.2641L18.9603 17.6842C19.2103 20.1641 18.3502 21.0241 16.0003 21.2941Z" fill="white"/>
<path d="M6.5 2C5.44 2 4.46 2.37 3.69001 2.99C2.65 3.81 2 5.08 2 6.5C2 7.34 2.24 8.14 2.65 8.82C3.09001 9.55 3.73 10.15 4.51 10.53C4.68001 10.62 4.87 10.7 5.06 10.76C5.51 10.92 5.99 11 6.5 11C7.64 11 8.67001 10.58 9.46 9.88C9.81001 9.58 10.11 9.22 10.35 8.82C10.56 8.47 10.72 8.1 10.83 7.7C10.89 7.5 10.93 7.29 10.96 7.07C10.99 6.88 11 6.69 11 6.5C11 4.01 8.99 2 6.5 2ZM8.23 8.21C8.09 8.35 7.89001 8.43 7.7 8.43C7.51 8.43 7.32001 8.35 7.17001 8.21L6.51001 7.55L5.83 8.22999C5.68 8.37999 5.49001 8.45 5.3 8.45C5.11 8.45 4.91 8.37999 4.77001 8.22999C4.48 7.94 4.48 7.46 4.77001 7.17L5.46001 6.48L4.79 5.83C4.50001 5.54 4.50001 5.06 4.79 4.77C5.08 4.48 5.56 4.48 5.85001 4.77L6.51001 5.43L7.14001 4.8C7.43 4.51 7.91 4.51 8.2 4.8C8.49001 5.09 8.49001 5.57 8.2 5.86L7.57 6.49L8.23 7.15C8.53 7.44 8.53 7.91 8.23 8.21Z" fill="white"/>
<path d="M21.9985 10.278L19.9285 11.588C19.5385 11.828 19.0386 11.778 18.7186 11.448L14.2885 7.01795C13.9686 6.69795 13.9086 6.19795 14.1486 5.80795L15.4585 3.73795C16.2586 2.47795 17.8585 2.41795 19.0486 3.58795L22.1586 6.69796C23.2486 7.80796 23.1786 9.52795 21.9985 10.278Z" fill="white"/>
</svg>
