<svg width="24" height="24" viewBox="0 0 24 24" fill="none" xmlns="http://www.w3.org/2000/svg">
<path d="M20.551 9.43906H19.4511C19.3011 9.43906 19.1511 9.46906 19.0111 9.50906L14.0211 4.51906C14.5011 3.89906 14.461 3.00906 13.891 2.44906L13.111 1.66906C12.5211 1.07906 11.4811 1.07906 10.8811 1.66906L10.1011 2.44906C9.5411 3.00906 9.5011 3.89906 9.9811 4.51906L4.99109 9.50906C4.8511 9.46906 4.7011 9.43906 4.5511 9.43906H3.4511C2.5811 9.43906 1.87109 10.149 1.87109 11.019V12.119C1.87109 12.989 2.5811 13.6991 3.4511 13.6991H4.5511C5.4211 13.6991 6.13109 12.989 6.13109 12.119V11.019C6.13109 10.869 6.10109 10.719 6.0611 10.579L11.0511 5.58906C11.3211 5.79906 11.6611 5.90906 12.001 5.90906C12.3411 5.90906 12.6811 5.78906 12.961 5.57906L17.9511 10.569C17.911 10.709 17.881 10.859 17.881 11.009V12.1091C17.881 12.9791 18.5911 13.689 19.4611 13.689H20.5611C21.4311 13.689 22.141 12.9791 22.141 12.1091V11.009C22.1211 10.139 21.421 9.43906 20.551 9.43906Z" fill="white"/>
<path d="M15.751 16.5493L14.111 17.9992H9.85103L8.21103 16.5493C7.26103 15.7693 7.26103 15.1693 7.98103 14.2492L10.871 10.5892C11.071 10.3392 11.3011 10.1692 11.5611 10.0792C11.8311 9.98922 12.121 9.98922 12.401 10.0792C12.6509 10.1692 12.881 10.3392 13.091 10.5892L15.9809 14.2492C16.7009 15.1592 16.6709 15.7292 15.751 16.5493Z" fill="white"/>
<path d="M13.2909 21.9999H10.7009C9.78087 21.9999 9.09087 21.2499 9.27087 20.4498L9.58088 19.0599C9.64088 18.7798 9.89087 18.5898 10.1709 18.5898H13.8208C14.1009 18.5898 14.3409 18.7798 14.4109 19.0599L14.7208 20.4498C14.9209 21.2998 14.2708 21.9999 13.2909 21.9999Z" fill="white"/>
</svg>
