<svg width="24" height="24" viewBox="0 0 24 24" fill="none" xmlns="http://www.w3.org/2000/svg">
<path d="M6.51908 16.6988L8.03323 12.9134C8.27465 12.3098 8.63615 11.7616 9.09581 11.302L17.3988 2.99948C18.3929 2.00538 20.0047 2.00538 20.9988 2.99949C21.9929 3.9936 21.9929 5.60538 20.9988 6.59949L12.6958 14.9019C12.2362 15.3616 11.6879 15.7231 11.0844 15.9645L7.299 17.4787C6.80922 17.6746 6.32317 17.1885 6.51908 16.6988Z" fill="#0F172A"/>
<path d="M4.20039 6.90156C4.20039 6.07313 4.87196 5.40156 5.70039 5.40156H12.0004C12.4974 5.40156 12.9004 4.99861 12.9004 4.50156C12.9004 4.00451 12.4974 3.60156 12.0004 3.60156H5.70039C3.87785 3.60156 2.40039 5.07903 2.40039 6.90156V18.3016C2.40039 20.1241 3.87785 21.6016 5.70039 21.6016H17.1004C18.923 21.6016 20.4004 20.1241 20.4004 18.3016V12.0016C20.4004 11.5045 19.9974 11.1016 19.5004 11.1016C19.0034 11.1016 18.6004 11.5045 18.6004 12.0016V18.3016C18.6004 19.13 17.9289 19.8016 17.1004 19.8016H5.70039C4.87196 19.8016 4.20039 19.13 4.20039 18.3016V6.90156Z" fill="#0F172A"/>
</svg>
