<svg width="24" height="24" viewBox="0 0 24 24" fill="none" xmlns="http://www.w3.org/2000/svg">
<path d="M18 3H6.00001C3.79 3 2 4.78 2 6.97V17.03C2 19.22 3.79 21 6.00001 21H18C20.21 21 22.0001 19.22 22.0001 17.03V6.97C22.0001 4.78 20.21 3 18 3ZM8.5 7.17C9.77 7.17 10.81 8.21 10.81 9.48C10.81 10.75 9.77 11.79 8.5 11.79C7.23001 11.79 6.19 10.75 6.19 9.48C6.19 8.21 7.23001 7.17 8.5 7.17ZM12.3701 16.66C12.2801 16.76 12.14 16.82 12 16.82H5C4.86001 16.82 4.72 16.76 4.63 16.66C4.54 16.56 4.49 16.42 4.50001 16.28C4.67 14.6 6.01 13.27 7.69 13.11C8.22001 13.06 8.77 13.06 9.30001 13.11C10.98 13.27 12.33 14.6 12.4901 16.28C12.51 16.42 12.4601 16.56 12.3701 16.66ZM19.0001 16.75H17C16.59 16.75 16.25 16.41 16.25 16C16.25 15.59 16.59 15.25 17 15.25H19.0001C19.41 15.25 19.7501 15.59 19.7501 16C19.7501 16.41 19.41 16.75 19.0001 16.75ZM19.0001 12.75H15C14.5901 12.75 14.25 12.41 14.25 12C14.25 11.59 14.5901 11.25 15 11.25H19.0001C19.41 11.25 19.7501 11.59 19.7501 12C19.7501 12.41 19.41 12.75 19.0001 12.75ZM19.0001 8.75H14C13.59 8.75 13.25 8.41 13.25 8C13.25 7.59 13.59 7.25 14 7.25H19.0001C19.41 7.25 19.7501 7.59 19.7501 8C19.7501 8.41 19.41 8.75 19.0001 8.75Z" fill="white"/>
</svg>
