<svg width="24" height="24" viewBox="0 0 24 24" fill="none" xmlns="http://www.w3.org/2000/svg">
<path d="M19.0803 15.7202C18.4904 12.1903 15.1004 9.32031 11.5203 9.32031C7.63028 9.32031 4.21028 12.4703 3.88028 16.3504C3.75027 17.8502 4.23027 19.2703 5.22027 20.3402C6.20027 21.4103 7.58027 22.0003 9.08027 22.0003H13.7603C15.4503 22.0003 16.9303 21.3403 17.9403 20.1503C18.9503 18.9602 19.3503 17.3803 19.0803 15.7202Z" fill="white"/>
<path d="M10.2796 7.86C11.8978 7.86 13.2096 6.54819 13.2096 4.93C13.2096 3.3118 11.8978 2 10.2796 2C8.66141 2 7.34961 3.3118 7.34961 4.93C7.34961 6.54819 8.66141 7.86 10.2796 7.86Z" fill="white"/>
<path d="M16.94 9.02844C18.2876 9.02844 19.38 7.93602 19.38 6.58843C19.38 5.24087 18.2876 4.14844 16.94 4.14844C15.5924 4.14844 14.5 5.24087 14.5 6.58843C14.5 7.93602 15.5924 9.02844 16.94 9.02844Z" fill="white"/>
<path d="M20.5496 12.9273C21.6266 12.9273 22.4996 12.0543 22.4996 10.9773C22.4996 9.90038 21.6266 9.02734 20.5496 9.02734C19.4727 9.02734 18.5996 9.90038 18.5996 10.9773C18.5996 12.0543 19.4727 12.9273 20.5496 12.9273Z" fill="white"/>
<path d="M3.94 10.9776C5.28757 10.9776 6.38 9.88523 6.38 8.53765C6.38 7.19008 5.28757 6.09766 3.94 6.09766C2.59243 6.09766 1.5 7.19008 1.5 8.53765C1.5 9.88523 2.59243 10.9776 3.94 10.9776Z" fill="white"/>
</svg>
