<svg width="24" height="24" viewBox="0 0 24 24" fill="none" xmlns="http://www.w3.org/2000/svg">
<path fill-rule="evenodd" clip-rule="evenodd" d="M2.40039 4.19844C2.40039 3.20432 3.20627 2.39844 4.20039 2.39844H5.57843C6.42209 2.39844 7.15256 2.9844 7.33557 3.80796L8.19503 7.67552C8.40165 8.60529 7.8482 9.53508 6.93239 9.79674L5.81305 10.1165C5.32011 10.2574 5.04167 10.7824 5.23714 11.2563C6.6364 14.6489 9.3499 17.3624 12.7425 18.7616C13.2165 18.9571 13.7415 18.6787 13.8822 18.1858L14.2022 17.0664C14.4638 16.1507 15.3935 15.5972 16.3233 15.8038L20.1909 16.6632C21.0144 16.8463 21.6004 17.5768 21.6004 18.4204V19.7984C21.6004 20.7925 20.7945 21.5984 19.8004 21.5984H18.0004C16.6221 21.5984 15.2843 21.4195 14.0094 21.083C8.60037 19.6555 4.34329 15.3985 2.91578 9.98935C2.57935 8.71453 2.40039 7.37671 2.40039 5.99844V4.19844Z" fill="#0F172A"/>
</svg>
