<svg width="24" height="24" viewBox="0 0 24 24" fill="none" xmlns="http://www.w3.org/2000/svg">
<path d="M4.20039 2.39844C3.20627 2.39844 2.40039 3.20432 2.40039 4.19844V5.99844C2.40039 7.37671 2.57935 8.71453 2.91578 9.98935C4.34329 15.3985 8.60037 19.6555 14.0094 21.083C15.2843 21.4195 16.6221 21.5984 18.0004 21.5984H19.8004C20.7945 21.5984 21.6004 20.7925 21.6004 19.7984V18.4204C21.6004 17.5768 21.0144 16.8463 20.1909 16.6632L16.3233 15.8038C15.3935 15.5972 14.4638 16.1507 14.2022 17.0664L13.8822 18.1858C13.7415 18.6787 13.2165 18.9571 12.7425 18.7616C9.3499 17.3624 6.6364 14.6489 5.23714 11.2563C5.04167 10.7824 5.32011 10.2574 5.81305 10.1165L6.93239 9.79674C7.8482 9.53508 8.40165 8.60529 8.19503 7.67552L7.33557 3.80796C7.15256 2.9844 6.42209 2.39844 5.57843 2.39844H4.20039Z" fill="#0F172A"/>
<path d="M19.8004 5.47123L15.9368 9.33483C15.5853 9.6863 15.0155 9.6863 14.664 9.33483C14.3126 8.98337 14.3126 8.41351 14.664 8.06204L18.5275 4.19844H15.3004C14.8034 4.19844 14.4004 3.79549 14.4004 3.29844C14.4004 2.80139 14.8034 2.39844 15.3004 2.39844H20.7004C21.1974 2.39844 21.6004 2.80139 21.6004 3.29844V8.69844C21.6004 9.19549 21.1974 9.59844 20.7004 9.59844C20.2034 9.59844 19.8004 9.19549 19.8004 8.69844V5.47123Z" fill="#0F172A"/>
</svg>
