<svg width="24" height="24" viewBox="0 0 24 24" fill="none" xmlns="http://www.w3.org/2000/svg">
<path fill-rule="evenodd" clip-rule="evenodd" d="M1.19922 6.30156C1.19922 4.81039 2.40805 3.60156 3.89922 3.60156H20.0992C21.5903 3.60156 22.7992 4.81039 22.7992 6.30156V17.7016C22.7992 19.1927 21.5903 20.4016 20.0992 20.4016H3.89922C2.40805 20.4016 1.19922 19.1927 1.19922 17.7016V6.30156ZM2.99922 13.2744V17.7016C2.99922 18.1986 3.40217 18.6016 3.89922 18.6016H20.0992C20.5963 18.6016 20.9992 18.1986 20.9992 17.7016V14.4744L18.3356 11.8108C17.9841 11.4593 17.4143 11.4593 17.0629 11.8108L14.7721 14.1016L15.3356 14.6652C15.6871 15.0167 15.6871 15.5864 15.3356 15.9379C14.9841 16.2894 14.4143 16.2894 14.0629 15.9379L7.83562 9.71075C7.48415 9.35928 6.91429 9.35928 6.56282 9.71075L2.99922 13.2744ZM14.3992 8.40156C14.3992 9.0643 13.862 9.60156 13.1992 9.60156C12.5365 9.60156 11.9992 9.0643 11.9992 8.40156C11.9992 7.73883 12.5365 7.20156 13.1992 7.20156C13.862 7.20156 14.3992 7.73883 14.3992 8.40156Z" fill="#0F172A"/>
</svg>
