<svg width="24" height="24" viewBox="0 0 24 24" fill="none" xmlns="http://www.w3.org/2000/svg">
<path d="M15.3004 4.80078C14.8034 4.80078 14.4004 5.20373 14.4004 5.70078V18.3008C14.4004 18.7978 14.8034 19.2008 15.3004 19.2008H15.9004C16.3974 19.2008 16.8004 18.7978 16.8004 18.3008V5.70078C16.8004 5.20373 16.3974 4.80078 15.9004 4.80078H15.3004Z" fill="#0F172A"/>
<path d="M21.3004 4.80078C20.8034 4.80078 20.4004 5.20373 20.4004 5.70078V18.3008C20.4004 18.7978 20.8034 19.2008 21.3004 19.2008H21.9004C22.3974 19.2008 22.8004 18.7978 22.8004 18.3008V5.70078C22.8004 5.20373 22.3974 4.80078 21.9004 4.80078H21.3004Z" fill="#0F172A"/>
<path d="M3.94511 5.78314C2.74591 5.04245 1.19922 5.90507 1.19922 7.31456V16.6872C1.19922 18.0966 2.7459 18.9593 3.94511 18.2186L11.5324 13.5323C12.6712 12.8289 12.6712 11.1728 11.5324 10.4694L3.94511 5.78314Z" fill="#0F172A"/>
</svg>
