<svg width="24" height="24" viewBox="0 0 24 24" fill="none" xmlns="http://www.w3.org/2000/svg">
<path d="M19.0698 19.8172C18.8798 19.8172 18.6898 19.7472 18.5398 19.5972C18.2498 19.3072 18.2498 18.8272 18.5398 18.5371C22.1498 14.9272 22.1498 9.05719 18.5398 5.45719C18.2498 5.16718 18.2498 4.68718 18.5398 4.39719C18.8298 4.10719 19.3098 4.10719 19.5998 4.39719C23.7898 8.58718 23.7898 15.4072 19.5998 19.5972C19.4498 19.7472 19.2598 19.8172 19.0698 19.8172Z" fill="white"/>
<path d="M4.93032 19.8172C4.74031 19.8172 4.55031 19.7472 4.40031 19.5972C0.210313 15.4072 0.210313 8.58718 4.40031 4.39719C4.69032 4.10719 5.17032 4.10719 5.46031 4.39719C5.75031 4.68718 5.75031 5.16718 5.46031 5.45719C1.85031 9.06718 1.85031 14.9371 5.46031 18.5371C5.75031 18.8272 5.75031 19.3072 5.46031 19.5972C5.31031 19.7472 5.12031 19.8172 4.93032 19.8172Z" fill="white"/>
<path d="M12.0008 22.7119C10.7508 22.7019 9.56073 22.5019 8.45073 22.1119C8.06073 21.9718 7.85073 21.5419 7.99074 21.1519C8.13073 20.7619 8.55073 20.5519 8.95074 20.6919C9.91074 21.0219 10.9308 21.2019 12.0107 21.2019C13.0808 21.2019 14.1107 21.0219 15.0608 20.6919C15.4508 20.5618 15.8807 20.7619 16.0208 21.1519C16.1608 21.5419 15.9508 21.9718 15.5608 22.1119C14.4407 22.5019 13.2508 22.7119 12.0008 22.7119Z" fill="white"/>
<path d="M15.3008 3.33906C15.2207 3.33906 15.1307 3.32906 15.0508 3.29906C14.1008 2.95907 13.0708 2.78906 12.0008 2.78906C10.9308 2.78906 9.91074 2.96906 8.95074 3.29906C8.55073 3.42906 8.13073 3.22907 7.99074 2.83907C7.85073 2.44907 8.06073 2.01906 8.45073 1.87907C9.57073 1.48907 10.7608 1.28906 12.0008 1.28906C13.2407 1.28906 14.4407 1.48907 15.5507 1.87907C15.9407 2.01906 16.1507 2.44907 16.0108 2.83907C15.9008 3.14906 15.6107 3.33906 15.3008 3.33906Z" fill="white"/>
<path d="M8.74023 12.0001V10.3301C8.74023 8.25014 10.2102 7.40015 12.0102 8.44014L13.4602 9.28015L14.9102 10.1201C16.7102 11.1601 16.7102 12.8601 14.9102 13.9001L13.4602 14.7401L12.0102 15.5801C10.2102 16.6201 8.74023 15.7701 8.74023 13.6901V12.0001Z" fill="white"/>
</svg>
