<svg width="24" height="24" viewBox="0 0 24 24" fill="none" xmlns="http://www.w3.org/2000/svg">
<path d="M21.8487 10.2545C21.0687 5.80456 17.2388 2.35456 12.7287 2.03455C6.62874 1.59455 1.58874 6.64456 2.02874 12.7345C2.34875 17.2445 5.79875 21.0646 10.2487 21.8446C11.3987 22.0445 12.5187 22.0445 13.5887 21.8645C13.8987 21.8146 14.0787 21.4745 13.9587 21.1945C13.6587 20.5145 13.4987 19.7645 13.4987 18.9946C13.4987 17.3045 14.2487 15.7445 15.5687 14.7046C16.5387 13.9246 17.7587 13.4945 18.9987 13.4945C19.7787 13.4945 20.5187 13.6546 21.1887 13.9546C21.4787 14.0845 21.8087 13.8946 21.8687 13.5845C22.0487 12.5245 22.0487 11.4045 21.8487 10.2545ZM14.4987 13.5745L13.2987 14.2645L12.0987 14.9545C10.6087 15.8146 9.38874 15.1145 9.38874 13.3846V12.0046V10.6145C9.38874 8.89456 10.6087 8.18455 12.0987 9.04456L13.2987 9.73456L14.4987 10.4245C15.9887 11.3045 15.9887 12.7045 14.4987 13.5745Z" fill="white"/>
<path d="M19 15C18.06 15 17.19 15.33 16.5 15.88C15.58 16.61 15 17.74 15 19C15 19.75 15.21 20.46 15.58 21.06C16.27 22.22 17.54 23 19 23C20.01 23 20.93 22.63 21.63 22C21.94 21.74 22.21 21.42 22.42 21.06C22.79 20.46 23 19.75 23 19C23 16.79 21.21 15 19 15ZM20.5 19.73H19.75V20.51C19.75 20.92 19.41 21.26 19 21.26C18.59 21.26 18.25 20.92 18.25 20.51V19.73H17.5C17.09 19.73 16.75 19.39 16.75 18.98C16.75 18.57 17.09 18.23 17.5 18.23H18.25V17.52C18.25 17.11 18.59 16.77 19 16.77C19.41 16.77 19.75 17.11 19.75 17.52V18.23H20.5C20.91 18.23 21.25 18.57 21.25 18.98C21.25 19.39 20.91 19.73 20.5 19.73Z" fill="white"/>
</svg>
