<svg width="24" height="24" viewBox="0 0 24 24" fill="none" xmlns="http://www.w3.org/2000/svg">
<path fill-rule="evenodd" clip-rule="evenodd" d="M2.40039 11.9984C2.40039 6.6965 6.69845 2.39844 12.0004 2.39844C17.3024 2.39844 21.6004 6.6965 21.6004 11.9984C21.6004 17.3004 17.3024 21.5984 12.0004 21.5984C6.69845 21.5984 2.40039 17.3004 2.40039 11.9984ZM10.0691 8.5085C10.3581 8.35074 10.7101 8.36335 10.9871 8.54138L15.1871 11.2414C15.4446 11.407 15.6004 11.6922 15.6004 11.9984C15.6004 12.3047 15.4446 12.5899 15.1871 12.7555L10.9871 15.4555C10.7101 15.6335 10.3581 15.6462 10.0691 15.4884C9.78015 15.3306 9.60039 15.0277 9.60039 14.6984V9.29844C9.60039 8.96922 9.78015 8.66625 10.0691 8.5085Z" fill="#0F172A"/>
</svg>
