<svg width="24" height="24" viewBox="0 0 24 24" fill="none" xmlns="http://www.w3.org/2000/svg">
<path fill-rule="evenodd" clip-rule="evenodd" d="M12.0004 21.5984C17.3024 21.5984 21.6004 17.3004 21.6004 11.9984C21.6004 6.6965 17.3024 2.39844 12.0004 2.39844C6.69845 2.39844 2.40039 6.6965 2.40039 11.9984C2.40039 17.3004 6.69845 21.5984 12.0004 21.5984ZM12.9004 8.09844C12.9004 7.60139 12.4974 7.19844 12.0004 7.19844C11.5033 7.19844 11.1004 7.60139 11.1004 8.09844V11.0984H8.10039C7.60334 11.0984 7.20039 11.5014 7.20039 11.9984C7.20039 12.4955 7.60334 12.8984 8.10039 12.8984H11.1004V15.8984C11.1004 16.3955 11.5033 16.7984 12.0004 16.7984C12.4974 16.7984 12.9004 16.3955 12.9004 15.8984V12.8984H15.9004C16.3974 12.8984 16.8004 12.4955 16.8004 11.9984C16.8004 11.5014 16.3974 11.0984 15.9004 11.0984H12.9004V8.09844Z" fill="#0F172A"/>
</svg>
