<svg width="24" height="24" viewBox="0 0 24 24" fill="none" xmlns="http://www.w3.org/2000/svg">
<path d="M12.8992 8.09922C12.8992 7.60217 12.4963 7.19922 11.9992 7.19922C11.5022 7.19922 11.0992 7.60217 11.0992 8.09922V11.0992H8.09922C7.60217 11.0992 7.19922 11.5022 7.19922 11.9992C7.19922 12.4963 7.60217 12.8992 8.09922 12.8992H11.0992V15.8992C11.0992 16.3963 11.5022 16.7992 11.9992 16.7992C12.4963 16.7992 12.8992 16.3963 12.8992 15.8992V12.8992H15.8992C16.3963 12.8992 16.7992 12.4963 16.7992 11.9992C16.7992 11.5022 16.3963 11.0992 15.8992 11.0992H12.8992V8.09922Z" fill="#0F172A"/>
</svg>
