<svg width="24" height="24" viewBox="0 0 24 24" fill="none" xmlns="http://www.w3.org/2000/svg">
<path d="M12.9008 5.70078C12.9008 5.20373 12.4978 4.80078 12.0008 4.80078C11.5037 4.80078 11.1008 5.20373 11.1008 5.70078V11.1008H5.70078C5.20373 11.1008 4.80078 11.5037 4.80078 12.0008C4.80078 12.4978 5.20373 12.9008 5.70078 12.9008H11.1008V18.3008C11.1008 18.7978 11.5037 19.2008 12.0008 19.2008C12.4978 19.2008 12.9008 18.7978 12.9008 18.3008V12.9008H18.3008C18.7978 12.9008 19.2008 12.4978 19.2008 12.0008C19.2008 11.5037 18.7978 11.1008 18.3008 11.1008H12.9008V5.70078Z" fill="#0F172A"/>
</svg>
