<svg width="24" height="24" viewBox="0 0 24 24" fill="none" xmlns="http://www.w3.org/2000/svg">
<path d="M21.3802 11.4522L16.8802 8.85219C16.6502 8.72219 16.3602 8.72219 16.1302 8.85219L11.6302 11.4522C11.6302 11.4522 11.6302 11.4622 11.6202 11.4622L7.50023 13.8421L3.75023 11.6722V7.34219L7.50023 5.17219L11.2502 7.34219V8.48221C11.2502 8.8922 11.5902 9.23221 12.0002 9.23221C12.4102 9.23221 12.7502 8.8922 12.7502 8.48221V6.90219C12.7502 6.63219 12.6102 6.38219 12.3702 6.25219L7.87023 3.65219C7.64022 3.52219 7.35022 3.52219 7.12023 3.65219L2.62023 6.25219C2.39022 6.38219 2.24023 6.63219 2.24023 6.90219V12.1021C2.24023 12.3721 2.38023 12.6222 2.62023 12.7522L7.12023 15.3522C7.24023 15.4222 7.37023 15.4522 7.50023 15.4522C7.63023 15.4522 7.76023 15.4222 7.88023 15.3522L12.3802 12.7522C12.3802 12.7522 12.3802 12.7422 12.3902 12.7422L16.5102 10.3622L20.2602 12.5322V16.8622L16.5102 19.0321L12.7602 16.8622V15.6421C12.7602 15.2322 12.4202 14.8921 12.0102 14.8921C11.6002 14.8921 11.2602 15.2322 11.2602 15.6421V17.2921C11.2602 17.5621 11.4002 17.8122 11.6402 17.9422L16.1402 20.5422C16.2602 20.6122 16.3902 20.6422 16.5202 20.6422C16.6502 20.6422 16.7802 20.6122 16.9002 20.5422L21.4002 17.9422C21.6302 17.8122 21.7802 17.5621 21.7802 17.2921V12.0922C21.7502 11.8322 21.6102 11.5822 21.3802 11.4522Z" fill="white"/>
<path d="M4.5 8.35032V10.6603C4.5 11.0203 4.69 11.3503 5 11.5303L7 12.6803C7.31 12.8603 7.69 12.8603 8 12.6803L10 11.5303C10.31 11.3503 10.5 11.0203 10.5 10.6603V8.35032C10.5 7.99032 10.31 7.66032 10 7.48032L8 6.33031C7.69 6.15031 7.31 6.15031 7 6.33031L5 7.48032C4.69 7.66032 4.5 7.99032 4.5 8.35032Z" fill="white"/>
<path d="M13.5 13.5495V15.8595C13.5 16.2195 13.69 16.5495 14 16.7295L16 17.8796C16.31 18.0596 16.69 18.0596 17 17.8796L19 16.7295C19.31 16.5495 19.5 16.2195 19.5 15.8595V13.5495C19.5 13.1895 19.31 12.8595 19 12.6795L17 11.5295C16.69 11.3495 16.31 11.3495 16 11.5295L14 12.6795C13.69 12.8595 13.5 13.1895 13.5 13.5495Z" fill="white"/>
</svg>
