<svg width="24" height="24" viewBox="0 0 24 24" fill="none" xmlns="http://www.w3.org/2000/svg">
<path d="M14.5001 18H3.5C3.09001 18 2.75 17.66 2.75 17.25C2.75 16.84 3.09001 16.5 3.5 16.5H14.5001C17.9501 16.5 20.75 13.7 20.75 10.25C20.75 6.8 17.9501 4 14.5001 4H9.5C9.09001 4 8.75 3.66 8.75 3.25C8.75 2.84 9.09001 2.5 9.5 2.5H14.5001C18.77 2.5 22.25 5.98 22.25 10.25C22.25 14.52 18.77 18 14.5001 18Z" fill="white"/>
<path d="M13.81 14.8878H7.99995C7.58994 14.8878 7.24995 14.5478 7.24995 14.1378C7.24995 13.7279 7.58994 13.3878 7.99995 13.3878H13.81C15.43 13.3878 16.75 12.0678 16.75 10.4478C16.75 8.82781 15.43 7.50781 13.81 7.50781H3.16992C2.75992 7.50781 2.41992 7.16782 2.41992 6.75781C2.41992 6.34782 2.75992 6.00781 3.16992 6.00781H13.81C16.2599 6.00781 18.25 7.99782 18.25 10.4478C18.25 12.8978 16.2599 14.8878 13.81 14.8878Z" fill="white"/>
<path d="M8.5 11.5H5.5C5.09 11.5 4.75 11.16 4.75 10.75C4.75 10.34 5.09 10 5.5 10H8.5C8.90999 10 9.25 10.34 9.25 10.75C9.25 11.16 8.90999 11.5 8.5 11.5Z" fill="white"/>
<path d="M6.5 21.5H2.5C2.09 21.5 1.75 21.1599 1.75 20.75C1.75 20.34 2.09 20 2.5 20H6.5C6.91 20 7.25 20.34 7.25 20.75C7.25 21.1599 6.91 21.5 6.5 21.5Z" fill="white"/>
</svg>
