<svg width="24" height="24" viewBox="0 0 24 24" fill="none" xmlns="http://www.w3.org/2000/svg">
<path fill-rule="evenodd" clip-rule="evenodd" d="M12.0004 2.39844C12.4974 2.39844 12.9004 2.80139 12.9004 3.29844V12.2984C12.9004 12.7955 12.4974 13.1984 12.0004 13.1984C11.5033 13.1984 11.1004 12.7955 11.1004 12.2984V3.29844C11.1004 2.80139 11.5033 2.39844 12.0004 2.39844ZM6.48496 5.21022C6.83643 5.56169 6.83643 6.13153 6.48496 6.48301C3.43887 9.52909 3.43887 14.4678 6.48496 17.5139C9.53104 20.56 14.4698 20.56 17.5158 17.5139C20.5619 14.4678 20.5619 9.52909 17.5158 6.48301C17.1644 6.13153 17.1644 5.56169 17.5158 5.21022C17.8673 4.85874 18.4372 4.85874 18.7887 5.21022C22.5376 8.95925 22.5376 15.0377 18.7887 18.7867C15.0396 22.5356 8.9612 22.5356 5.21217 18.7867C1.46313 15.0377 1.46313 8.95925 5.21217 5.21022C5.56364 4.85874 6.13348 4.85874 6.48496 5.21022Z" fill="#0F172A"/>
</svg>
