<svg width="24" height="24" viewBox="0 0 24 24" fill="none" xmlns="http://www.w3.org/2000/svg">
<path d="M22.0001 2.75H2C1.59001 2.75 1.25 2.41 1.25 2C1.25 1.59 1.59001 1.25 2 1.25H22.0001C22.41 1.25 22.7501 1.59 22.7501 2C22.7501 2.41 22.41 2.75 22.0001 2.75Z" fill="white"/>
<path d="M16.6703 22.34C16.5403 22.5999 16.2703 22.7499 16.0003 22.7499C15.8903 22.7499 15.7703 22.7199 15.6703 22.67L12.0002 20.84L8.33026 22.67C8.23026 22.7199 8.11026 22.7499 8.00026 22.7499C7.73026 22.7499 7.46026 22.5999 7.33026 22.34C7.14025 21.96 7.29025 21.51 7.67026 21.33L11.2503 19.5399V17H12.7502V19.5399L16.3303 21.33C16.7102 21.51 16.8602 21.96 16.6703 22.34Z" fill="white"/>
<path d="M3 2V14.1C3 16 4 17 5.9 17H18.1C20 17 21 16 21 14.1V2H3ZM16.98 8.58L13.83 11.21C13.54 11.45 13.17 11.55 12.82 11.49C12.46 11.43 12.15 11.21 11.96 10.89L10.91 9.14L7.98 11.58C7.84 11.7 7.67 11.75 7.5 11.75C7.29 11.75 7.07 11.66 6.92 11.48C6.65 11.16 6.7 10.69 7.02 10.42L10.17 7.79C10.46 7.55 10.83 7.45 11.18 7.51C11.54 7.57 11.85 7.79 12.04 8.11L13.09 9.86L16.02 7.42C16.34 7.15 16.81 7.2 17.08 7.52C17.34 7.84 17.3 8.31 16.98 8.58Z" fill="white"/>
</svg>
