<svg width="24" height="24" viewBox="0 0 24 24" fill="none" xmlns="http://www.w3.org/2000/svg">
<path fill-rule="evenodd" clip-rule="evenodd" d="M1.19922 3.29844C1.19922 2.80139 1.60217 2.39844 2.09922 2.39844H21.8992C22.3963 2.39844 22.7992 2.80139 22.7992 3.29844C22.7992 3.79549 22.3963 4.19844 21.8992 4.19844H21.5992V14.6984C21.5992 16.521 20.1218 17.9984 18.2992 17.9984H17.0122L17.9703 21.6712C18.0958 22.1521 17.8076 22.6438 17.3266 22.7693C16.8457 22.8947 16.354 22.6066 16.2286 22.1256L16.0911 21.5983H7.90782L7.7703 22.1256C7.64483 22.6066 7.15322 22.8947 6.67226 22.7693C6.1913 22.6438 5.90311 22.1521 6.02858 21.6712L6.98669 17.9984H5.69922C3.87668 17.9984 2.39922 16.521 2.39922 14.6984V4.19844H2.09922C1.60217 4.19844 1.19922 3.79549 1.19922 3.29844ZM8.84693 17.9984L8.37738 19.7983H15.6215L15.152 17.9984H8.84693ZM15.8992 5.99844C16.3963 5.99844 16.7992 6.40139 16.7992 6.89844V13.4984C16.7992 13.9955 16.3963 14.3984 15.8992 14.3984C15.4022 14.3984 14.9992 13.9955 14.9992 13.4984V6.89844C14.9992 6.40139 15.4022 5.99844 15.8992 5.99844ZM8.09922 10.7984C8.59627 10.7984 8.99922 11.2014 8.99922 11.6984V13.4984C8.99922 13.9955 8.59627 14.3984 8.09922 14.3984C7.60217 14.3984 7.19922 13.9955 7.19922 13.4984V11.6984C7.19922 11.2014 7.60217 10.7984 8.09922 10.7984ZM12.8992 9.29844C12.8992 8.80139 12.4963 8.39844 11.9992 8.39844C11.5022 8.39844 11.0992 8.80139 11.0992 9.29844V13.4984C11.0992 13.9955 11.5022 14.3984 11.9992 14.3984C12.4963 14.3984 12.8992 13.9955 12.8992 13.4984V9.29844Z" fill="#0F172A"/>
</svg>
