<svg width="24" height="24" viewBox="0 0 24 24" fill="none" xmlns="http://www.w3.org/2000/svg">
<path fill-rule="evenodd" clip-rule="evenodd" d="M1.19922 3.29844C1.19922 2.80139 1.60217 2.39844 2.09922 2.39844H21.8992C22.3963 2.39844 22.7992 2.80139 22.7992 3.29844C22.7992 3.79549 22.3963 4.19844 21.8992 4.19844H21.5992V14.6984C21.5992 16.521 20.1218 17.9984 18.2992 17.9984H17.0122L17.9703 21.6712C18.0958 22.1521 17.8076 22.6438 17.3266 22.7693C16.8457 22.8947 16.354 22.6066 16.2286 22.1256L16.0911 21.5983H7.90782L7.7703 22.1256C7.64483 22.6066 7.15322 22.8947 6.67226 22.7693C6.1913 22.6438 5.90311 22.1521 6.02858 21.6712L6.98669 17.9984H5.69922C3.87668 17.9984 2.39922 16.521 2.39922 14.6984V4.19844H2.09922C1.60217 4.19844 1.19922 3.79549 1.19922 3.29844ZM8.84693 17.9984L8.37738 19.7983H15.6215L15.152 17.9984H8.84693ZM17.8342 7.281C18.1229 7.68563 18.029 8.24767 17.6243 8.53635C16.1123 9.61512 14.7467 10.867 13.5478 12.2545C13.3843 12.4438 13.1494 12.5564 12.8996 12.5656C12.6496 12.5746 12.4072 12.4793 12.2305 12.3025L10.1992 10.2713L7.53562 12.9349C7.18415 13.2864 6.61429 13.2864 6.26282 12.9349C5.91135 12.5834 5.91135 12.0136 6.26282 11.6621L9.56282 8.36211C9.91429 8.01065 10.4841 8.01065 10.8356 8.36211L12.8318 10.3583C13.9609 9.14861 15.214 8.04485 16.5789 7.07107C16.9835 6.78237 17.5455 6.87637 17.8342 7.281Z" fill="#0F172A"/>
</svg>
