<svg width="24" height="24" viewBox="0 0 24 24" fill="none" xmlns="http://www.w3.org/2000/svg">
<path fill-rule="evenodd" clip-rule="evenodd" d="M6.00039 3.29922C6.00039 2.13942 6.94059 1.19922 8.10039 1.19922H15.9004C17.0602 1.19922 18.0004 2.13942 18.0004 3.29922V7.49922C18.0004 7.52002 18 7.54073 17.9994 7.56138C18.4522 7.61642 18.903 7.67762 19.352 7.74488C20.6699 7.94238 21.6004 9.08488 21.6004 10.3828V15.2992C21.6004 16.7903 20.3915 17.9992 18.9004 17.9992H18.6107L18.977 20.3799C19.1727 21.652 18.1884 22.7992 16.9014 22.7992H7.09888C5.81183 22.7992 4.82761 21.652 5.0233 20.3799L5.38957 17.9992H5.10039C3.60922 17.9992 2.40039 16.7903 2.40039 15.2992V10.3828C2.40039 9.08487 3.33085 7.94238 4.64881 7.74488C5.0977 7.67762 5.54855 7.61642 6.00129 7.56138C6.00069 7.54073 6.00039 7.52002 6.00039 7.49922V3.29922ZM16.2004 7.37603C14.8157 7.25894 13.415 7.19922 12.0004 7.19922C10.5858 7.19922 9.18502 7.25894 7.80039 7.37603V3.29922C7.80039 3.13353 7.93471 2.99922 8.10039 2.99922H15.9004C16.0661 2.99922 16.2004 3.13353 16.2004 3.29922V7.37603ZM7.92965 14.9992C7.78159 14.9992 7.65566 15.1072 7.63315 15.2536L6.80238 20.6536C6.77442 20.8353 6.91502 20.9992 7.09888 20.9992H16.9014C17.0853 20.9992 17.2259 20.8353 17.198 20.6536L16.3672 15.2536C16.3446 15.1072 16.2188 14.9992 16.0707 14.9992H7.92965Z" fill="#0F172A"/>
</svg>
