<svg width="24" height="24" viewBox="0 0 24 24" fill="none" xmlns="http://www.w3.org/2000/svg">
<path d="M6 7C4 7 3 8 3 10V15C3 17 4 18 6 18L8 16V15H9L17 7H6ZM7 11.75C6.59 11.75 6.25 11.41 6.25 11C6.25 10.59 6.59 10.25 7 10.25H9C9.41 10.25 9.75 10.59 9.75 11C9.75 11.41 9.41 11.75 9 11.75H7Z" fill="white"/>
<path d="M9.00001 15L8 16V15H9.00001Z" fill="white"/>
<path d="M16.9999 5V7H7V5C7 3.34 8.33999 2 10 2H13.9999C15.66 2 16.9999 3.34 16.9999 5Z" fill="white"/>
<path d="M22.5295 1.4675C22.2394 1.1775 21.7594 1.1775 21.4694 1.4675L1.46946 21.4675C1.17945 21.7576 1.17945 22.2376 1.46946 22.5276C1.61946 22.6776 1.80945 22.7476 1.99945 22.7476C2.18946 22.7476 2.37945 22.6776 2.52945 22.5276L22.5295 2.5275C22.8194 2.23751 22.8194 1.75751 22.5295 1.4675Z" fill="white"/>
<path d="M17.0001 14.25H12.9572C12.8246 14.25 12.6974 14.3027 12.6037 14.3964L12.0001 15L11.2501 15.75L8.80011 18.2C8.16011 18.84 8.03011 20 8.55011 20.74C9.09011 21.5 9.99011 22 11.0001 22H13C14.6601 22 16 20.66 16 19V15.75H17.0001C17.41 15.75 17.7501 15.41 17.7501 15C17.7501 14.59 17.41 14.25 17.0001 14.25Z" fill="white"/>
<path d="M19.0199 7.97914L15.46 11.5391C14.83 12.1691 15.28 13.2491 16.1699 13.2491H16.91C17.78 13.2491 18.59 13.8391 18.73 14.6992C18.8812 15.6145 18.313 16.4382 17.4934 16.6786C17.2284 16.7564 17 16.973 17 17.2492V17.4991C17 17.7754 17.2239 17.9992 17.5 17.9992H18C19.66 17.9992 20.9999 16.6591 20.9999 14.9992V9.99915C20.9999 9.20914 20.84 8.56914 20.53 8.08914C20.1899 7.57914 19.45 7.54914 19.0199 7.97914Z" fill="white"/>
</svg>
