<svg width="24" height="24" viewBox="0 0 24 24" fill="none" xmlns="http://www.w3.org/2000/svg">
<path d="M9.00001 2C6.38 2 4.25 4.13 4.25 6.75C4.25 9.32 6.26 11.4 8.88001 11.49C8.96 11.48 9.04 11.48 9.1 11.49C9.12001 11.49 9.13 11.49 9.15001 11.49C9.16 11.49 9.16 11.49 9.17 11.49C11.73 11.4 13.74 9.32 13.7501 6.75C13.7501 4.13 11.62 2 9.00001 2Z" fill="white"/>
<path d="M14.079 14.1489C11.289 12.2889 6.73899 12.2889 3.92899 14.1489C2.65899 14.9989 1.95898 16.1489 1.95898 17.3789C1.95898 18.6089 2.65899 19.7489 3.91899 20.5889C5.31898 21.5289 7.15899 21.9989 8.99899 21.9989C10.839 21.9989 12.6791 21.5289 14.079 20.5889C15.339 19.7389 16.0391 18.5989 16.0391 17.3589C16.029 16.1289 15.339 14.9889 14.079 14.1489Z" fill="white"/>
<path d="M19.9913 7.33815C20.1513 9.27815 18.7713 10.9782 16.8614 11.2081C16.8513 11.2081 16.8513 11.2081 16.8413 11.2081H16.8113C16.7513 11.2081 16.6913 11.2081 16.6413 11.2281C15.6713 11.2782 14.7813 10.9681 14.1113 10.3981C15.1413 9.47815 15.7313 8.09815 15.6113 6.59815C15.5414 5.78815 15.2613 5.04815 14.8413 4.41815C15.2213 4.22815 15.6614 4.10815 16.1114 4.06815C18.0713 3.89815 19.8213 5.35815 19.9913 7.33815Z" fill="white"/>
<path d="M21.9903 16.5904C21.9102 17.5604 21.2902 18.4004 20.2503 18.9704C19.2502 19.5204 17.9902 19.7804 16.7403 19.7504C17.4603 19.1004 17.8803 18.2904 17.9602 17.4304C18.0603 16.1904 17.4702 15.0004 16.2903 14.0504C15.6202 13.5204 14.8402 13.1004 13.9902 12.7904C16.2003 12.1504 18.9802 12.5804 20.6902 13.9604C21.6102 14.7004 22.0803 15.6304 21.9903 16.5904Z" fill="white"/>
</svg>
