<svg width="24" height="24" viewBox="0 0 24 24" fill="none" xmlns="http://www.w3.org/2000/svg">
<path d="M19.73 16.1008C19.73 16.0708 19.7501 16.0408 19.7501 16.0007V6.50066C19.7501 4.98067 18.5201 3.75067 17 3.75067H13.07L14.48 2.58067C14.8001 2.31067 14.84 1.84066 14.58 1.52066C14.31 1.20067 13.8401 1.16066 13.52 1.42066L10.52 3.92066C10.35 4.06066 10.25 4.27066 10.25 4.50067C10.25 4.73066 10.35 4.93066 10.52 5.08066L13.52 7.58066C13.6601 7.70066 13.83 7.75066 14 7.75066C14.21 7.75066 14.43 7.66066 14.58 7.48066C14.85 7.16066 14.8001 6.69067 14.48 6.42067L13.07 5.25067H17C17.69 5.25067 18.2501 5.81066 18.2501 6.50066V16.0007C18.2501 16.0408 18.27 16.0708 18.27 16.1008C16.97 16.4308 16.0001 17.6008 16.0001 19.0007C16.0001 20.6608 17.34 22.0007 19.0001 22.0007C20.66 22.0007 22.0001 20.6608 22.0001 19.0007C22.0001 17.6008 21.03 16.4308 19.73 16.1008Z" fill="white"/>
<path d="M13.4801 18.92L10.48 16.42C10.16 16.15 9.69001 16.2 9.42001 16.52C9.15001 16.84 9.2 17.31 9.52 17.58L10.93 18.75H7C6.31 18.75 5.75 18.19 5.75 17.5V8C5.75 7.96 5.73001 7.93 5.73001 7.9C7.03 7.57 8 6.4 8 5C8 3.34 6.66001 2 5 2C3.34 2 2 3.34 2 5C2 6.4 2.97001 7.57 4.27 7.9C4.27 7.93 4.25 7.96 4.25 8V17.5C4.25 19.02 5.48 20.25 7 20.25H10.93L9.52 21.42C9.2 21.69 9.16 22.16 9.42001 22.48C9.57001 22.66 9.78001 22.75 10 22.75C10.17 22.75 10.34 22.69 10.48 22.58L13.4801 20.08C13.65 19.94 13.7501 19.73 13.7501 19.5C13.7501 19.27 13.65 19.07 13.4801 18.92Z" fill="white"/>
</svg>
