<svg width="24" height="24" viewBox="0 0 24 24" fill="none" xmlns="http://www.w3.org/2000/svg">
<path d="M14.3992 5.35951C14.3992 4.87313 14.714 4.45861 15.0698 4.12704C15.401 3.81845 15.5992 3.42619 15.5992 2.99922C15.5992 2.0051 14.5247 1.19922 13.1992 1.19922C11.8737 1.19922 10.7992 2.0051 10.7992 2.99922C10.7992 3.43362 11.0044 3.83209 11.346 4.14307C11.6951 4.46082 11.9992 4.86385 11.9992 5.33588C11.9992 6.00756 11.4413 6.54637 10.7709 6.50412C9.55189 6.42728 8.34548 6.30438 7.15342 6.13716C6.87367 6.09791 6.59174 6.19229 6.39199 6.39203C6.19225 6.59178 6.09787 6.87371 6.13712 7.15345C6.30434 8.34552 6.42725 9.55192 6.50408 10.771C6.54634 11.4413 6.00753 11.9992 5.33587 11.9992C4.86384 11.9992 4.46082 11.6951 4.14308 11.346C3.83209 11.0044 3.43363 10.7992 2.99922 10.7992C2.0051 10.7992 1.19922 11.8737 1.19922 13.1992C1.19922 14.5247 2.0051 15.5992 2.99922 15.5992C3.4262 15.5992 3.81846 15.401 4.12705 15.0698C4.45861 14.714 4.87313 14.3992 5.3595 14.3992C6.03963 14.3992 6.59022 14.9552 6.56435 15.6349C6.50675 17.1481 6.37824 18.6428 6.1821 20.116C6.11677 20.6067 6.45985 21.0579 6.95005 21.1262C8.20911 21.3016 9.48331 21.4293 10.7707 21.5075C11.4415 21.5483 11.9992 21.0091 11.9992 20.3369C11.9992 19.8643 11.6946 19.4607 11.3452 19.1423C11.0041 18.8314 10.7992 18.4333 10.7992 17.9992C10.7992 17.0051 11.8737 16.1992 13.1992 16.1992C14.5247 16.1992 15.5992 17.0051 15.5992 17.9992C15.5992 18.4261 15.4011 18.8183 15.07 19.1269C14.7141 19.4585 14.3992 19.8733 14.3992 20.3597C14.3992 21.0399 14.9551 21.5906 15.6347 21.5656C17.2401 21.5067 18.826 21.3709 20.389 21.1617C20.7913 21.1078 21.1078 20.7914 21.1616 20.389C21.3709 18.8261 21.5067 17.2401 21.5656 15.6347C21.5906 14.9551 21.0399 14.3992 20.3597 14.3992C19.8733 14.3992 19.4585 14.7141 19.1269 15.07C18.8183 15.4011 18.4261 15.5992 17.9992 15.5992C17.0051 15.5992 16.1992 14.5247 16.1992 13.1992C16.1992 11.8737 17.0051 10.7992 17.9992 10.7992C18.4333 10.7992 18.8314 11.0041 19.1423 11.3452C19.4607 11.6946 19.8643 11.9992 20.3369 11.9992C21.0089 11.9992 21.5482 11.4415 21.5075 10.7708C21.4293 9.48334 21.3016 8.20915 21.1262 6.95009C21.0579 6.45989 20.6066 6.11681 20.116 6.18214C18.6428 6.37828 17.1481 6.50678 15.6349 6.56438C14.9552 6.59026 14.3992 6.03966 14.3992 5.35951Z" fill="#0F172A"/>
</svg>
