<svg width="24" height="24" viewBox="0 0 24 24" fill="none" xmlns="http://www.w3.org/2000/svg">
<path d="M15.0205 2.22859C13.0205 1.91859 10.9806 1.91859 8.98054 2.22859C8.16055 2.3586 7.56054 3.05858 7.56054 3.87858V7.55857H3.88053C3.06054 7.55857 2.36054 8.15859 2.23054 8.97859C1.92055 10.9785 1.92055 13.0185 2.23054 15.0185C2.36054 15.8385 3.06054 16.4385 3.88053 16.4385H5.56053C5.84053 16.4385 6.06054 16.2185 6.06054 15.9386V14.2185C6.06054 12.1685 7.73053 10.4985 9.78054 10.4985H14.2205C14.6204 10.4985 14.9406 10.1785 14.9406 9.77857V6.55857C14.9406 6.27858 15.1606 6.05857 15.4406 6.05857H15.9406C16.2205 6.05857 16.4406 5.83857 16.4406 5.55858V3.87858C16.4406 3.05858 15.8405 2.3586 15.0205 2.22859ZM10.3305 5.57856C9.92052 5.57856 9.53053 5.18857 9.53053 4.77858C9.53053 4.35858 9.92052 3.96858 10.3305 3.96858C10.5305 3.96858 10.7506 4.05859 10.8906 4.19859C11.0406 4.3386 11.1406 4.56858 11.1406 4.77858C11.1406 5.18857 10.7505 5.57856 10.3305 5.57856Z" fill="white"/>
<path d="M21.7706 8.98251C21.6405 8.16251 20.9405 7.5625 20.1206 7.5625H16.9406C16.6606 7.5625 16.4405 7.7825 16.4405 8.0625V9.7825C16.4405 11.0025 15.4505 12.0024 14.2205 12.0024H9.78055C8.55055 12.0024 7.56055 12.9925 7.56055 14.2225V20.1224C7.56055 20.9424 8.16056 21.6425 8.98057 21.7724C10.9806 22.0824 13.0205 22.0824 15.0206 21.7724C15.8405 21.6425 16.4405 20.9424 16.4405 20.1224V16.4425H20.1206C20.9405 16.4425 21.6405 15.8424 21.7706 15.0224C22.0805 13.0224 22.0805 10.9825 21.7706 8.98251ZM13.6706 20.0324C13.2605 20.0324 12.8605 19.6426 12.8605 19.2226C12.8605 18.8026 13.2506 18.4126 13.6706 18.4126C13.8605 18.4126 14.0906 18.5026 14.2306 18.6325C14.3806 18.7726 14.4806 19.0124 14.4806 19.2125C14.4706 19.6424 14.0806 20.0324 13.6706 20.0324Z" fill="white"/>
</svg>
