<svg width="24" height="24" viewBox="0 0 24 24" fill="none" xmlns="http://www.w3.org/2000/svg">
<path fill-rule="evenodd" clip-rule="evenodd" d="M4.50039 2.39844C3.34059 2.39844 2.40039 3.33864 2.40039 4.49844V8.69844C2.40039 9.85824 3.34059 10.7984 4.50039 10.7984H8.70039C9.86019 10.7984 10.8004 9.85824 10.8004 8.69844V4.49844C10.8004 3.33864 9.86019 2.39844 8.70039 2.39844H4.50039ZM4.20039 4.49844C4.20039 4.33275 4.33471 4.19844 4.50039 4.19844H8.70039C8.86607 4.19844 9.00039 4.33275 9.00039 4.49844V8.69844C9.00039 8.86412 8.86607 8.99844 8.70039 8.99844H4.50039C4.33471 8.99844 4.20039 8.86412 4.20039 8.69844V4.49844ZM4.50039 13.1984C3.34059 13.1984 2.40039 14.1386 2.40039 15.2984V19.4984C2.40039 20.6582 3.34059 21.5984 4.50039 21.5984H8.70039C9.86019 21.5984 10.8004 20.6582 10.8004 19.4984V15.2984C10.8004 14.1386 9.86019 13.1984 8.70039 13.1984H4.50039ZM4.20039 15.2984C4.20039 15.1327 4.33471 14.9984 4.50039 14.9984H8.70039C8.86607 14.9984 9.00039 15.1327 9.00039 15.2984V19.4984C9.00039 19.6642 8.86607 19.7984 8.70039 19.7984H4.50039C4.33471 19.7984 4.20039 19.6642 4.20039 19.4984V15.2984ZM13.2004 4.49844C13.2004 3.33864 14.1406 2.39844 15.3004 2.39844H19.5004C20.6602 2.39844 21.6004 3.33864 21.6004 4.49844V8.69844C21.6004 9.85824 20.6602 10.7984 19.5004 10.7984H15.3004C14.1406 10.7984 13.2004 9.85824 13.2004 8.69844V4.49844ZM15.3004 4.19844C15.1347 4.19844 15.0004 4.33275 15.0004 4.49844V8.69844C15.0004 8.86412 15.1347 8.99844 15.3004 8.99844H19.5004C19.6661 8.99844 19.8004 8.86412 19.8004 8.69844V4.49844C19.8004 4.33275 19.6661 4.19844 19.5004 4.19844H15.3004ZM6.58867 5.39844C5.92593 5.39844 5.38867 5.9357 5.38867 6.59844V6.61044C5.38867 7.27317 5.92593 7.81044 6.58867 7.81044H6.60067C7.26341 7.81044 7.80067 7.27317 7.80067 6.61044V6.59844C7.80067 5.9357 7.26341 5.39844 6.60067 5.39844H6.58867ZM17.3886 5.39844C16.7259 5.39844 16.1886 5.9357 16.1886 6.59844V6.61044C16.1886 7.27317 16.7259 7.81044 17.3886 7.81044H17.4006C18.0634 7.81044 18.6006 7.27317 18.6006 6.61044V6.59844C18.6006 5.9357 18.0634 5.39844 17.4006 5.39844H17.3886ZM6.58867 16.1984C5.92593 16.1984 5.38867 16.7357 5.38867 17.3984V17.4104C5.38867 18.0732 5.92593 18.6104 6.58867 18.6104H6.60067C7.26341 18.6104 7.80067 18.0732 7.80067 17.4104V17.3984C7.80067 16.7357 7.26341 16.1984 6.60067 16.1984H6.58867ZM17.3886 16.1984C16.7259 16.1984 16.1886 16.7357 16.1886 17.3984V17.4104C16.1886 18.0732 16.7259 18.6104 17.3886 18.6104H17.4006C18.0634 18.6104 18.6006 18.0732 18.6006 17.4104V17.3984C18.6006 16.7357 18.0634 16.1984 17.4006 16.1984H17.3886ZM13.1886 14.3984C13.1886 13.7357 13.7259 13.1984 14.3886 13.1984H14.4006C15.0634 13.1984 15.6006 13.7357 15.6006 14.3984V14.4104C15.6006 15.0732 15.0634 15.6104 14.4006 15.6104H14.3886C13.7259 15.6104 13.1886 15.0732 13.1886 14.4104V14.3984ZM20.3886 13.1984C19.7259 13.1984 19.1886 13.7357 19.1886 14.3984V14.4104C19.1886 15.0732 19.7259 15.6104 20.3886 15.6104H20.4006C21.0634 15.6104 21.6006 15.0732 21.6006 14.4104V14.3984C21.6006 13.7357 21.0634 13.1984 20.4006 13.1984H20.3886ZM19.1886 20.3984C19.1886 19.7357 19.7259 19.1984 20.3886 19.1984H20.4006C21.0634 19.1984 21.6006 19.7357 21.6006 20.3984V20.4104C21.6006 21.0732 21.0634 21.6104 20.4006 21.6104H20.3886C19.7259 21.6104 19.1886 21.0732 19.1886 20.4104V20.3984ZM14.3886 19.1984C13.7259 19.1984 13.1886 19.7357 13.1886 20.3984V20.4104C13.1886 21.0732 13.7259 21.6104 14.3886 21.6104H14.4006C15.0634 21.6104 15.6006 21.0732 15.6006 20.4104V20.3984C15.6006 19.7357 15.0634 19.1984 14.4006 19.1984H14.3886Z" fill="#0F172A"/>
</svg>
