<svg width="24" height="24" viewBox="0 0 24 24" fill="none" xmlns="http://www.w3.org/2000/svg">
<path d="M20.4897 6.70813L12.4898 2.26813C12.1898 2.09812 11.8198 2.09812 11.5198 2.26813L3.51978 6.70813C3.19977 6.88813 3.00977 7.21813 3.00977 7.57813V16.3981C3.00977 16.7581 3.20978 17.0982 3.51978 17.2681L11.5397 21.7282C11.8297 21.8881 12.1797 21.8982 12.4697 21.7482L16.4998 19.7382C16.8098 19.5781 17.1797 19.5982 17.4797 19.7881L19.4697 21.0382C20.1398 21.4582 20.9998 20.9782 20.9998 20.1882V17.5782C20.9998 17.2182 20.7998 16.8781 20.4897 16.7082L17.4897 15.0481C17.1897 14.8782 16.8198 14.8782 16.5198 15.0481L12.4898 17.2882C12.1898 17.4582 11.8198 17.4582 11.5198 17.2882L7.51977 15.0682C7.19978 14.8882 7.00977 14.5582 7.00977 14.1982V9.81812C7.00977 9.45812 7.20978 9.11811 7.51977 8.94812L11.5198 6.72811C11.8198 6.55812 12.1898 6.55812 12.4898 6.72811L16.4897 8.94812C16.8098 9.12812 16.9998 9.45812 16.9998 9.81812V12.8782C16.9998 13.6882 17.9098 14.1582 18.5698 13.6981L20.5698 12.3082C20.8398 12.1182 20.9998 11.8181 20.9998 11.4881V7.59812C20.9998 7.22812 20.7998 6.88813 20.4897 6.70813Z" fill="white"/>
<path d="M15.8606 10.4216V13.5715C15.8606 13.9216 15.6706 14.2416 15.3605 14.4115L12.4706 16.0216C12.1805 16.1815 11.8207 16.1815 11.5307 16.0216L8.64063 14.4115C8.33063 14.2416 8.14062 13.9216 8.14062 13.5715V10.4216C8.14062 10.0715 8.33063 9.75156 8.64063 9.58156L11.5307 7.97156C11.8207 7.81156 12.1805 7.81156 12.4706 7.97156L15.3605 9.58156C15.6706 9.75156 15.8606 10.0715 15.8606 10.4216Z" fill="white"/>
</svg>
