<svg width="24" height="24" viewBox="0 0 24 24" fill="none" xmlns="http://www.w3.org/2000/svg">
<path fill-rule="evenodd" clip-rule="evenodd" d="M21.6004 11.9984C21.6004 17.3004 17.3024 21.5984 12.0004 21.5984C6.69845 21.5984 2.40039 17.3004 2.40039 11.9984C2.40039 6.6965 6.69845 2.39844 12.0004 2.39844C17.3024 2.39844 21.6004 6.6965 21.6004 11.9984ZM10.7276 8.32561C10.3761 8.67709 9.80628 8.67709 9.45481 8.32561C9.10334 7.97414 9.10334 7.4043 9.45481 7.05282C10.8607 5.64693 13.14 5.64693 14.546 7.05282C15.9519 8.45871 15.9519 10.7381 14.546 12.144C14.075 12.615 13.5038 12.9292 12.9004 13.0846V13.4984C12.9004 13.9955 12.4974 14.3984 12.0004 14.3984C11.5033 14.3984 11.1004 13.9955 11.1004 13.4984V12.8984C11.1004 12.0341 11.7843 11.4923 12.398 11.3543C12.7182 11.2823 13.0223 11.1221 13.2732 10.8712C13.9761 10.1683 13.9761 9.02856 13.2732 8.32561C12.5703 7.62267 11.4305 7.62267 10.7276 8.32561ZM12.0004 17.9984C12.6632 17.9984 13.2004 17.4612 13.2004 16.7984C13.2004 16.1357 12.6632 15.5984 12.0004 15.5984C11.3376 15.5984 10.8004 16.1357 10.8004 16.7984C10.8004 17.4612 11.3376 17.9984 12.0004 17.9984Z" fill="#0F172A"/>
</svg>
