<svg width="24" height="24" viewBox="0 0 24 24" fill="none" xmlns="http://www.w3.org/2000/svg">
<path d="M2.40039 5.39844C2.40039 3.74159 3.74354 2.39844 5.40039 2.39844H18.6004C20.2572 2.39844 21.6004 3.74159 21.6004 5.39844C21.6004 7.05529 20.2572 8.39844 18.6004 8.39844H5.40039C3.74354 8.39844 2.40039 7.05529 2.40039 5.39844Z" fill="#0F172A"/>
<path d="M3.30039 10.8984C2.80334 10.8984 2.40039 11.3014 2.40039 11.7984C2.40039 12.2955 2.80334 12.6985 3.30039 12.6985H20.7004C21.1974 12.6985 21.6004 12.2955 21.6004 11.7984C21.6004 11.3014 21.1974 10.8984 20.7004 10.8984H3.30039Z" fill="#0F172A"/>
<path d="M3.30039 15.1953C2.80334 15.1953 2.40039 15.5983 2.40039 16.0953C2.40039 16.5924 2.80334 16.9953 3.30039 16.9953H20.7004C21.1974 16.9953 21.6004 16.5924 21.6004 16.0953C21.6004 15.5983 21.1974 15.1953 20.7004 15.1953H3.30039Z" fill="#0F172A"/>
<path d="M3.30039 19.5C2.80334 19.5 2.40039 19.903 2.40039 20.4C2.40039 20.8972 2.80334 21.3 3.30039 21.3H20.7004C21.1974 21.3 21.6004 20.8972 21.6004 20.4C21.6004 19.903 21.1974 19.5 20.7004 19.5H3.30039Z" fill="#0F172A"/>
</svg>
