<svg width="24" height="24" viewBox="0 0 24 24" fill="none" xmlns="http://www.w3.org/2000/svg">
<path d="M15.9101 12.3676H20.6001C20.5201 17.0376 19.6001 17.8075 16.7301 19.5076C16.4001 19.7076 16.2901 20.1276 16.4901 20.4676C16.6901 20.7976 17.1101 20.9076 17.4501 20.7076C20.8301 18.7075 22.0101 17.4876 22.0101 11.6676V6.2775C22.0101 4.5675 20.6201 3.1875 18.9201 3.1875H15.9201C14.1601 3.1875 12.8301 4.5175 12.8301 6.2775V9.2775C12.8201 11.0376 14.1501 12.3676 15.9101 12.3676Z" fill="white"/>
<path d="M5.09 12.3676H9.78001C9.7 17.0376 8.78 17.8075 5.91001 19.5076C5.58001 19.7076 5.47 20.1276 5.67001 20.4676C5.87 20.7976 6.29 20.9076 6.63001 20.7076C10.01 18.7075 11.19 17.4876 11.19 11.6676V6.2775C11.19 4.5675 9.8 3.1875 8.10001 3.1875H5.10001C3.33001 3.1875 2 4.5175 2 6.2775V9.2775C2 11.0376 3.33001 12.3676 5.09 12.3676Z" fill="white"/>
</svg>
