<svg width="24" height="24" viewBox="0 0 24 24" fill="none" xmlns="http://www.w3.org/2000/svg">
<path d="M8.09 11.6276H3.4C3.48001 6.95753 4.4 6.18754 7.27 4.48753C7.6 4.28753 7.71001 3.86753 7.51 3.52753C7.32001 3.19753 6.89 3.08753 6.56 3.28753C3.18001 5.28752 2 6.50753 2 12.3175V17.7076C2 19.4176 3.39001 20.7976 5.09 20.7976H8.09C9.85 20.7976 11.18 19.4676 11.18 17.7076V14.7076C11.18 12.9576 9.85 11.6276 8.09 11.6276Z" fill="white"/>
<path d="M18.9105 11.6275H14.2205C14.3006 6.95753 15.2205 6.18752 18.0905 4.48753C18.4205 4.28753 18.5306 3.86753 18.3305 3.52753C18.1305 3.19753 17.7105 3.08753 17.3705 3.28753C13.9905 5.28752 12.8105 6.50753 12.8105 12.3276V17.7175C12.8105 19.4275 14.2005 20.8075 15.9005 20.8075H18.9005C20.6606 20.8075 21.9905 19.4776 21.9905 17.7175V14.7175C22.0005 12.9576 20.6705 11.6275 18.9105 11.6275Z" fill="white"/>
</svg>
