<svg width="24" height="24" viewBox="0 0 24 24" fill="none" xmlns="http://www.w3.org/2000/svg">
<path d="M11.9991 14.3772C13.3136 14.3772 14.3792 13.3116 14.3792 11.9972C14.3792 10.6828 13.3136 9.61719 11.9991 9.61719C10.6847 9.61719 9.61914 10.6828 9.61914 11.9972C9.61914 13.3116 10.6847 14.3772 11.9991 14.3772Z" fill="white"/>
<path d="M20.0003 18.7504C19.8403 18.7504 19.6903 18.7003 19.5503 18.6004C19.2203 18.3503 19.1503 17.8804 19.4003 17.5504C20.6103 15.9403 21.2503 14.0203 21.2503 12.0004C21.2503 9.98027 20.6103 8.06027 19.4003 6.45028C19.1503 6.12028 19.2203 5.65027 19.5503 5.40028C19.8803 5.15027 20.3503 5.22028 20.6003 5.55028C22.0103 7.42027 22.7503 9.65027 22.7503 12.0004C22.7503 14.3503 22.0103 16.5803 20.6003 18.4504C20.4503 18.6503 20.2303 18.7504 20.0003 18.7504Z" fill="white"/>
<path d="M4 18.7504C3.77 18.7504 3.55 18.6503 3.4 18.4504C1.99 16.5803 1.25 14.3503 1.25 12.0004C1.25 9.65027 1.99 7.42027 3.4 5.55028C3.65 5.22028 4.12 5.15027 4.45 5.40028C4.78 5.65027 4.85 6.12028 4.6 6.45028C3.39001 8.06027 2.75 9.98027 2.75 12.0004C2.75 14.0203 3.39001 15.9403 4.6 17.5504C4.85 17.8804 4.78 18.3503 4.45 18.6004C4.32001 18.7003 4.16 18.7504 4 18.7504Z" fill="white"/>
<path d="M16.801 16.3488C16.6411 16.3488 16.4911 16.2988 16.351 16.1988C16.021 15.9487 15.9511 15.4788 16.201 15.1488C16.891 14.2387 17.251 13.1488 17.251 11.9988C17.251 10.8488 16.891 9.75871 16.201 8.84871C15.9511 8.51871 16.021 8.04871 16.351 7.79871C16.681 7.54871 17.1511 7.61871 17.401 7.94871C18.2811 9.12871 18.751 10.5288 18.751 11.9988C18.751 13.4688 18.2811 14.8788 17.401 16.0488C17.251 16.2487 17.0311 16.3488 16.801 16.3488Z" fill="white"/>
<path d="M7.2 16.3488C6.97 16.3488 6.75 16.2487 6.6 16.0488C5.72 14.8788 5.25 13.4688 5.25 11.9988C5.25 10.5288 5.72 9.11871 6.6 7.94871C6.85 7.61871 7.32 7.54871 7.65 7.79871C7.98 8.04871 8.05 8.51871 7.8 8.84871C7.11 9.75871 6.75 10.8488 6.75 11.9988C6.75 13.1488 7.11 14.2387 7.8 15.1488C8.05 15.4788 7.98 15.9487 7.65 16.1988C7.52 16.2988 7.36 16.3488 7.2 16.3488Z" fill="white"/>
</svg>
