<svg width="24" height="24" viewBox="0 0 24 24" fill="none" xmlns="http://www.w3.org/2000/svg">
<path fill-rule="evenodd" clip-rule="evenodd" d="M20.9389 4.16626C21.418 4.03408 21.6993 3.53849 21.5671 3.05933C21.4349 2.58017 20.9393 2.29889 20.4602 2.43107L6.37418 6.31685C5.36659 6.43156 4.36814 6.57671 3.37982 6.75138C2.09377 6.97866 1.19922 8.10562 1.19922 9.37794V18.8987C1.19922 20.3898 2.40805 21.5987 3.89922 21.5987H20.0992C21.5903 21.5987 22.7992 20.3898 22.7992 18.8987V9.37794C22.7992 8.10561 21.9046 6.97866 20.6186 6.75138C18.4996 6.37689 16.3341 6.13807 14.1316 6.04413L20.9389 4.16626ZM19.1992 11.3987C19.1992 12.3928 18.3933 13.1987 17.3992 13.1987C16.4051 13.1987 15.5992 12.3928 15.5992 11.3987C15.5992 10.4046 16.4051 9.59873 17.3992 9.59873C18.3933 9.59873 19.1992 10.4046 19.1992 11.3987ZM17.3992 19.1987C18.3933 19.1987 19.1992 18.3928 19.1992 17.3987C19.1992 16.4046 18.3933 15.5987 17.3992 15.5987C16.4051 15.5987 15.5992 16.4046 15.5992 17.3987C15.5992 18.3928 16.4051 19.1987 17.3992 19.1987ZM6.2875 13.1987C6.2875 12.7017 6.69044 12.2987 7.1875 12.2987H7.19949C7.69656 12.2987 8.09949 12.7017 8.09949 13.1987V13.2107C8.09949 13.7078 7.69656 14.1107 7.19949 14.1107H7.1875C6.69044 14.1107 6.2875 13.7078 6.2875 13.2107V13.1987ZM9.5875 12.2987C9.09044 12.2987 8.6875 12.7017 8.6875 13.1987V13.2107C8.6875 13.7078 9.09044 14.1107 9.5875 14.1107H9.59949C10.0966 14.1107 10.4995 13.7078 10.4995 13.2107V13.1987C10.4995 12.7017 10.0966 12.2987 9.59949 12.2987H9.5875ZM7.4875 10.4987C7.4875 10.0017 7.89044 9.59873 8.3875 9.59873H8.39949C8.89656 9.59873 9.29949 10.0017 9.29949 10.4987V10.5107C9.29949 11.0078 8.89656 11.4107 8.39949 11.4107H8.3875C7.89044 11.4107 7.4875 11.0078 7.4875 10.5107V10.4987ZM11.7872 11.0021C11.4357 10.6507 10.8659 10.6507 10.5144 11.0021L10.5059 11.0106C10.1544 11.3621 10.1544 11.9319 10.5059 12.2834L10.5144 12.2919C10.8659 12.6434 11.4357 12.6434 11.7872 12.2919L11.7957 12.2834C12.1472 11.9319 12.1472 11.3621 11.7957 11.0106L11.7872 11.0021ZM12.2992 13.4987C12.7963 13.4987 13.1992 13.9017 13.1992 14.3987V14.4107C13.1992 14.9078 12.7963 15.3107 12.2992 15.3107H12.2872C11.7902 15.3107 11.3872 14.9078 11.3872 14.4107V14.3987C11.3872 13.9017 11.7902 13.4987 12.2872 13.4987H12.2992ZM11.7958 17.7988C12.1473 17.4473 12.1473 16.8776 11.7958 16.5261L11.7873 16.5176C11.4359 16.1661 10.866 16.1661 10.5146 16.5176L10.5061 16.5261C10.1546 16.8776 10.1546 17.4473 10.5061 17.7988L10.5146 17.8073C10.866 18.1588 11.4359 18.1588 11.7873 17.8073L11.7958 17.7988ZM7.4875 18.2987C7.4875 17.8017 7.89044 17.3987 8.3875 17.3987H8.39949C8.89656 17.3987 9.29949 17.8017 9.29949 18.2987V18.3107C9.29949 18.8078 8.89656 19.2107 8.39949 19.2107H8.3875C7.89044 19.2107 7.4875 18.8078 7.4875 18.3107V18.2987ZM6.27175 16.5176C5.92027 16.1661 5.35043 16.1661 4.99896 16.5176L4.99047 16.5261C4.63899 16.8775 4.63899 17.4473 4.99047 17.7988L4.99896 17.8073C5.35043 18.1588 5.92027 18.1588 6.27175 17.8073L6.28023 17.7988C6.6317 17.4473 6.6317 16.8775 6.28023 16.5261L6.27175 16.5176ZM4.49922 13.4987C4.99627 13.4987 5.39922 13.9017 5.39922 14.3987V14.4107C5.39922 14.9078 4.99627 15.3107 4.49922 15.3107H4.48722C3.99017 15.3107 3.58722 14.9078 3.58722 14.4107V14.3987C3.58722 13.9017 3.99017 13.4987 4.48722 13.4987H4.49922ZM6.2804 12.2834C6.63187 11.9319 6.63187 11.3621 6.2804 11.0106L6.27192 11.0021C5.92044 10.6507 5.3506 10.6507 4.99913 11.0021L4.99064 11.0106C4.63916 11.3621 4.63916 11.9319 4.99064 12.2834L4.99913 12.2919C5.3506 12.6434 5.92044 12.6434 6.27192 12.2919L6.2804 12.2834ZM8.6875 15.5987C8.6875 15.1017 9.09044 14.6987 9.5875 14.6987H9.59949C10.0966 14.6987 10.4995 15.1017 10.4995 15.5987V15.6107C10.4995 16.1078 10.0966 16.5107 9.59949 16.5107H9.5875C9.09044 16.5107 8.6875 16.1078 8.6875 15.6107V15.5987ZM7.1875 14.6987C6.69044 14.6987 6.2875 15.1017 6.2875 15.5987V15.6107C6.2875 16.1078 6.69044 16.5107 7.1875 16.5107H7.19949C7.69656 16.5107 8.09949 16.1078 8.09949 15.6107V15.5987C8.09949 15.1017 7.69656 14.6987 7.19949 14.6987H7.1875Z" fill="#0F172A"/>
</svg>
