<svg width="24" height="24" viewBox="0 0 24 24" fill="none" xmlns="http://www.w3.org/2000/svg">
<path d="M16.0103 20.97C16.0159 21.526 15.5666 21.98 15.0104 21.98H8.99374C8.44406 21.98 7.99742 21.5364 7.99376 20.9866L7.98047 18.9999C7.98047 17.9 8.87047 17 9.98047 17H13.9904C15.0905 17 15.9805 17.8899 15.9905 18.99L16.0103 20.97Z" fill="white"/>
<path d="M18.5 9.99672V12.1668C18.5 12.6967 18.71 13.2067 19.0901 13.5868L19.91 14.4067C20.29 14.7868 20.5001 15.2968 20.5001 15.8268V16.9968C20.5001 19.2978 19.5911 20.9904 17.6057 21.6629C17.3045 21.765 17.0089 21.527 17.0078 21.209L17 18.9768C16.98 17.3368 15.63 15.9967 14 15.9967H9.99001C8.33 15.9967 6.99001 17.3467 6.99001 18.9967V21.2208C6.99001 21.5383 6.6963 21.7771 6.3949 21.6774C4.38601 21.0126 3.5 19.3098 3.5 16.9968V6.99672C3.5 4.59069 4.45179 2.8305 6.64524 2.23324C6.94579 2.15139 7.2259 2.39295 7.22143 2.70441L7.19 4.89672C7.18 5.36673 7.35001 5.81673 7.67 6.15672C8 6.49672 8.43001 6.68673 8.94001 6.69672C9.45417 6.69672 9.91203 6.48396 10.2245 6.13767C10.3367 6.01329 10.5516 6.00827 10.67 6.12672C10.99 6.46672 11.43 6.66671 11.94 6.67672C12.4543 6.67672 12.9235 6.45066 13.2437 6.0868C13.3488 5.96722 13.5642 5.95768 13.67 6.07672C13.9901 6.41673 14.43 6.61672 14.94 6.62673C15.9 6.62673 16.67 5.87672 16.6901 4.90672L16.7297 2.68336C16.7351 2.37906 17.0106 2.1481 17.3047 2.22628C19.5087 2.81205 20.5001 4.58391 20.5001 6.99672V7.99672C20.5001 8.54673 20.0501 8.99673 19.5 8.99673C18.95 8.99673 18.5 9.44673 18.5 9.99672Z" fill="white"/>
<path d="M9.22789 2.00001C9.50858 1.9982 9.73578 2.22778 9.73104 2.50845L9.68967 4.9567C9.67968 5.36671 9.34968 5.69671 8.93967 5.69671H8.92969C8.50969 5.68671 8.17968 5.3467 8.18967 4.9267V2.50349C8.18967 2.22861 8.41158 2.00528 8.68646 2.0035L9.22789 2.00001Z" fill="white"/>
<path d="M12.231 2C12.5106 2 12.7358 2.22906 12.7311 2.50846L12.6897 4.95C12.6797 5.35 12.3497 5.68 11.9397 5.68H11.9297C11.5097 5.67 11.1797 5.33 11.1897 4.92V2.5C11.1897 2.22386 11.4135 2 11.6897 2H12.231Z" fill="white"/>
<path d="M15.234 2.00342C15.5124 2.00517 15.7356 2.23383 15.7308 2.51209L15.6897 4.88661C15.6797 5.2966 15.3497 5.6266 14.9397 5.6266H14.9297C14.5097 5.61661 14.1797 5.27661 14.1897 4.86661V2.5C14.1897 2.22262 14.4155 1.99826 14.6928 2.00001L15.234 2.00342Z" fill="white"/>
</svg>
