<svg width="24" height="24" viewBox="0 0 24 24" fill="none" xmlns="http://www.w3.org/2000/svg">
<path d="M6.67 14H4C2.9 14 2 14.9 2 15.9999V21C2 21.5499 2.45 21.9999 3.00001 21.9999H6.67C7.22 21.9999 7.67 21.5499 7.67 21V15C7.67 14.45 7.22 14 6.67 14Z" fill="white"/>
<path d="M13.3302 10H10.6602C9.56016 10 8.66016 10.9 8.66016 12V21C8.66016 21.55 9.11016 22 9.66015 22H14.3302C14.8802 22 15.3302 21.55 15.3302 21V12C15.3302 10.9 14.4402 10 13.3302 10Z" fill="white"/>
<path d="M20 17H17.33C16.7801 17 16.3301 17.45 16.3301 18V21C16.3301 21.5499 16.7801 21.9999 17.33 21.9999H21.0001C21.5501 21.9999 22.0001 21.5499 22.0001 21V18.9999C22.0001 17.9 21.1001 17 20 17Z" fill="white"/>
<path d="M15.0113 4.85047C15.3214 4.54047 15.4414 4.17047 15.3413 3.85047C15.2414 3.53047 14.9314 3.30046 14.4914 3.23047L13.5314 3.07047C13.4914 3.07047 13.4014 3.00047 13.3814 2.96047L12.8513 1.90047C12.4514 1.09047 11.5414 1.09047 11.1414 1.90047L10.6114 2.96047C10.6014 3.00047 10.5114 3.07047 10.4714 3.07047L9.51141 3.23047C9.0714 3.30046 8.7714 3.53047 8.66141 3.85047C8.5614 4.17047 8.6814 4.54047 8.99141 4.85047L9.7314 5.60047C9.77141 5.63047 9.80141 5.75047 9.7914 5.79046L9.5814 6.71047C9.42141 7.40047 9.68141 7.71046 9.8514 7.83046C10.0214 7.95046 10.3914 8.11047 11.0014 7.75047L11.9014 7.22047C11.9414 7.19047 12.0713 7.19047 12.1114 7.22047L13.0013 7.75047C13.2814 7.92046 13.5113 7.97047 13.6913 7.97047C13.9013 7.97047 14.0513 7.89046 14.1413 7.83046C14.3114 7.71046 14.5714 7.40047 14.4113 6.71047L14.2013 5.79046C14.1914 5.74047 14.2214 5.63047 14.2613 5.60047L15.0113 4.85047Z" fill="white"/>
</svg>
