<svg width="24" height="24" viewBox="0 0 24 24" fill="none" xmlns="http://www.w3.org/2000/svg">
<path d="M16.19 2H7.81C4.17001 2 2 4.17 2 7.81V16.18C2 19.83 4.17001 22 7.81 22H16.1801C19.82 22 21.99 19.83 21.99 16.19V7.81C22.0001 4.17 19.83 2 16.19 2ZM8.64001 7.15C8.93 6.86 9.41 6.86 9.7 7.15L14.0801 11.53V9.1C14.0801 8.69 14.42 8.35 14.8301 8.35C15.24 8.35 15.5801 8.69 15.5801 9.1V13.34C15.5801 13.44 15.56 13.53 15.5201 13.63C15.44 13.81 15.3 13.96 15.11 14.04C15.02 14.08 14.9201 14.1 14.82 14.1H10.58C10.17 14.1 9.83 13.76 9.83 13.35C9.83 12.94 10.17 12.6 10.58 12.6H13.01L8.64001 8.21C8.35 7.92 8.35 7.45 8.64001 7.15ZM18.24 17.22C16.23 17.89 14.12 18.23 12 18.23C9.88 18.23 7.77001 17.89 5.76001 17.22C5.37001 17.09 5.16001 16.66 5.29 16.27C5.42 15.88 5.84 15.66 6.24001 15.8C9.96001 17.04 14.0501 17.04 17.7701 15.8C18.1601 15.67 18.59 15.88 18.72 16.27C18.84 16.67 18.63 17.09 18.24 17.22Z" fill="white"/>
</svg>
