<svg width="24" height="24" viewBox="0 0 24 24" fill="none" xmlns="http://www.w3.org/2000/svg">
<path d="M7.00196 2H6.00195C3.00195 2 2.00195 3.79 2.00195 6V7V21C2.00195 21.83 2.94195 22.3 3.60195 21.8L5.31195 20.52C5.71196 20.22 6.27195 20.26 6.63195 20.62L8.29196 22.29C8.68196 22.68 9.32195 22.68 9.71195 22.29L11.392 20.61C11.742 20.26 12.3019 20.22 12.6919 20.52L14.4019 21.8C15.0619 22.29 16.002 21.82 16.002 21V4C16.002 2.9 16.902 2 18.0019 2H7.00196ZM11.752 10.75H6.25196C5.84195 10.75 5.50196 10.41 5.50196 10C5.50196 9.59 5.84195 9.25 6.25196 9.25H11.752C12.162 9.25 12.502 9.59 12.502 10C12.502 10.41 12.162 10.75 11.752 10.75Z" fill="white"/>
<path d="M18.01 3.5C18.67 3.5 19.3 3.77 19.76 4.22C20.24 4.71 20.5 5.34 20.5 6V8.42C20.5 9.16 20.17 9.5 19.42 9.5H17.5V4.01C17.5 3.73 17.73 3.5 18.01 3.5ZM18.01 2C16.9 2 16 2.9 16 4.01V11H19.42C21 11 22 10 22 8.42V6C22 4.9 21.55 3.9 20.83 3.17C20.1 2.45 19.11 2.01 18.01 2Z" fill="white"/>
</svg>
