<svg width="24" height="24" viewBox="0 0 24 24" fill="none" xmlns="http://www.w3.org/2000/svg">
<path d="M4.71001 18.1876C4.81 18.2275 4.9 18.2476 5 18.2476H15.27C15.68 18.2476 16.02 17.9076 16.02 17.4976C16.02 17.0875 15.68 16.7476 15.27 16.7476H6.81001L19.53 4.0275C19.82 3.73751 19.82 3.25751 19.53 2.9675C19.2401 2.6775 18.7601 2.6775 18.47 2.9675L5.75 15.6876V7.2275C5.75 6.8175 5.41 6.4775 5 6.4775C4.59001 6.4775 4.25 6.8175 4.25 7.2275V17.4976C4.25 17.5975 4.27 17.6875 4.31 17.7876C4.38001 17.9676 4.53001 18.1176 4.71001 18.1876Z" fill="white"/>
<path d="M20.5001 21.25H3.5C3.09001 21.25 2.75 21.5901 2.75 22C2.75 22.41 3.09001 22.75 3.5 22.75H20.5001C20.91 22.75 21.2501 22.41 21.2501 22C21.2501 21.5901 20.91 21.25 20.5001 21.25Z" fill="white"/>
</svg>
