<svg width="24" height="24" viewBox="0 0 24 24" fill="none" xmlns="http://www.w3.org/2000/svg">
<path d="M7 2H6.00001C3.00001 2 2 3.79 2 6V7V21C2 21.83 2.94001 22.3 3.60001 21.8L5.31001 20.52C5.71 20.22 6.27001 20.26 6.63001 20.62L8.29 22.29C8.68 22.68 9.32 22.68 9.71 22.29L11.39 20.61C11.74 20.26 12.3 20.22 12.69 20.52L14.4 21.8C15.06 22.29 16.0001 21.82 16.0001 21V4C16.0001 2.9 16.9001 2 18 2H7ZM11.25 13.75H6.75001C6.34 13.75 6.00001 13.41 6.00001 13C6.00001 12.59 6.34 12.25 6.75001 12.25H11.25C11.66 12.25 12 12.59 12 13C12 13.41 11.66 13.75 11.25 13.75ZM12 9.75H6.00001C5.59 9.75 5.25001 9.41 5.25001 9C5.25001 8.59 5.59 8.25 6.00001 8.25H12C12.41 8.25 12.75 8.59 12.75 9C12.75 9.41 12.41 9.75 12 9.75Z" fill="white"/>
<path d="M18.01 3.5C18.67 3.5 19.3 3.77 19.76 4.22C20.24 4.71 20.5 5.34 20.5 6V8.42C20.5 9.16 20.17 9.5 19.42 9.5H17.5V4.01C17.5 3.73 17.73 3.5 18.01 3.5ZM18.01 2C16.9 2 16 2.9 16 4.01V11H19.42C21 11 22 10 22 8.42V6C22 4.9 21.55 3.9 20.83 3.17C20.1 2.45 19.11 2.01 18.01 2Z" fill="white"/>
</svg>
