<svg width="24" height="24" viewBox="0 0 24 24" fill="none" xmlns="http://www.w3.org/2000/svg">
<path fill-rule="evenodd" clip-rule="evenodd" d="M5.91567 2.77099C7.90953 2.52505 9.93999 2.39844 11.9996 2.39844C14.0592 2.39844 16.0897 2.52505 18.0836 2.77099C19.4326 2.93739 20.3996 4.09493 20.3996 5.41837V20.6984C20.3996 21.0078 20.2407 21.2954 19.9789 21.4602C19.717 21.625 19.389 21.6437 19.1102 21.5098L15.7496 19.8967L12.389 21.5098C12.1429 21.628 11.8563 21.628 11.6101 21.5098L8.24961 19.8967L4.88907 21.5098C4.61019 21.6437 4.28211 21.625 4.02029 21.4602C3.75848 21.2954 3.59961 21.0078 3.59961 20.6984V5.41837C3.59961 4.09493 4.56656 2.93739 5.91567 2.77099ZM16.536 8.73483C16.8874 8.38337 16.8874 7.81351 16.536 7.46204C16.1845 7.11057 15.6147 7.11057 15.2632 7.46204L7.46321 15.2621C7.11174 15.6136 7.11174 16.1833 7.46321 16.5348C7.81468 16.8863 8.38454 16.8863 8.73601 16.5348L16.536 8.73483ZM10.7996 9.59844C10.7996 10.2612 10.2623 10.7984 9.59961 10.7984C8.93687 10.7984 8.39961 10.2612 8.39961 9.59844C8.39961 8.9357 8.93687 8.39844 9.59961 8.39844C10.2623 8.39844 10.7996 8.9357 10.7996 9.59844ZM14.3996 15.5984C15.0624 15.5984 15.5996 15.0612 15.5996 14.3984C15.5996 13.7357 15.0624 13.1984 14.3996 13.1984C13.7368 13.1984 13.1996 13.7357 13.1996 14.3984C13.1996 15.0612 13.7368 15.5984 14.3996 15.5984Z" fill="#0F172A"/>
</svg>
