<svg width="24" height="24" viewBox="0 0 24 24" fill="none" xmlns="http://www.w3.org/2000/svg">
<path fill-rule="evenodd" clip-rule="evenodd" d="M5.91567 2.77099C7.90953 2.52505 9.93999 2.39844 11.9996 2.39844C14.0592 2.39844 16.0897 2.52505 18.0836 2.77099C19.4326 2.93739 20.3996 4.09493 20.3996 5.41837V20.6984C20.3996 21.0078 20.2407 21.2954 19.9789 21.4602C19.717 21.625 19.389 21.6437 19.1102 21.5098L15.7496 19.8967L12.389 21.5098C12.1429 21.628 11.8563 21.628 11.6101 21.5098L8.24961 19.8967L4.88907 21.5098C4.61019 21.6437 4.28211 21.625 4.02029 21.4602C3.75848 21.2954 3.59961 21.0078 3.59961 20.6984V5.41837C3.59961 4.09493 4.56656 2.93739 5.91567 2.77099ZM11.7017 7.5674C12.0711 7.23489 12.1011 6.66583 11.7686 6.29637C11.4361 5.92691 10.867 5.89697 10.4975 6.22947L7.49755 8.92947C7.3079 9.10015 7.19961 9.34329 7.19961 9.59844C7.19961 9.85358 7.3079 10.0967 7.49755 10.2674L10.4975 12.9674C10.867 13.3 11.4361 13.27 11.7686 12.9005C12.1011 12.531 12.0711 11.962 11.7017 11.6295L10.445 10.4984H12.7496C13.9922 10.4984 14.9996 11.5058 14.9996 12.7484C14.9996 13.991 13.9922 14.9984 12.7496 14.9984C12.2526 14.9984 11.8496 15.4014 11.8496 15.8984C11.8496 16.3955 12.2526 16.7984 12.7496 16.7984C14.9864 16.7984 16.7996 14.9852 16.7996 12.7484C16.7996 10.5117 14.9864 8.69844 12.7496 8.69844H10.445L11.7017 7.5674Z" fill="#0F172A"/>
</svg>
