<svg width="24" height="24" viewBox="0 0 24 24" fill="none" xmlns="http://www.w3.org/2000/svg">
<path d="M15.78 2H8.22001C4.44001 2 3.5 3.01 3.5 7.04V18.3C3.5 20.96 4.96 21.59 6.73 19.69L6.74 19.68C7.56001 18.81 8.81 18.88 9.52 19.83L10.53 21.18C11.34 22.25 12.65 22.25 13.46 21.18L14.4701 19.83C15.1901 18.87 16.44 18.8 17.2601 19.68C19.04 21.58 20.49 20.95 20.49 18.29V7.04C20.5001 3.01 19.56 2 15.78 2ZM15 11.75H9.00001C8.59 11.75 8.25001 11.41 8.25001 11C8.25001 10.59 8.59 10.25 9.00001 10.25H15C15.41 10.25 15.75 10.59 15.75 11C15.75 11.41 15.41 11.75 15 11.75ZM16.0001 7.75H8C7.59001 7.75 7.25 7.41 7.25 7C7.25 6.59 7.59001 6.25 8 6.25H16.0001C16.41 6.25 16.7501 6.59 16.7501 7C16.7501 7.41 16.41 7.75 16.0001 7.75Z" fill="white"/>
</svg>
