<svg width="24" height="24" viewBox="0 0 24 24" fill="none" xmlns="http://www.w3.org/2000/svg">
<path d="M19.6297 7.24234C19.9297 7.71235 19.7696 8.34235 19.2896 8.63234L18.6997 8.98234L5.58967 16.8424C5.10967 17.1324 4.47967 16.9723 4.19966 16.4824C3.19967 14.7424 2.74967 12.6223 3.13967 10.4024C3.79967 6.63235 6.89967 3.63235 10.6897 3.09235C14.4397 2.56234 17.8297 4.36234 19.6297 7.24234Z" fill="white"/>
<path d="M20.8892 13.4308C20.2093 17.6808 16.4492 20.9308 12.1393 21.0008C10.2392 21.0308 8.47917 20.4808 7.01917 19.4908C6.39918 19.0808 6.41917 18.1608 7.05918 17.7808L19.4691 10.4908C20.1191 10.1108 20.9192 10.5508 20.9792 11.3008C21.0292 12.0008 20.9992 12.7108 20.8892 13.4308Z" fill="white"/>
</svg>
