<svg width="24" height="24" viewBox="0 0 24 24" fill="none" xmlns="http://www.w3.org/2000/svg">
<path d="M15.0002 22.7522C14.7302 22.7522 14.4802 22.6022 14.3503 22.3722C14.2202 22.1322 14.2202 21.8522 14.3602 21.6122L15.4102 19.8621C15.6202 19.5021 16.0903 19.3922 16.4402 19.6022C16.8002 19.8122 16.9102 20.2722 16.7002 20.6322L16.4302 21.0822C19.1902 20.4321 21.2602 17.9522 21.2602 14.9922C21.2602 14.5821 21.6002 14.2422 22.0102 14.2422C22.4203 14.2422 22.7602 14.5821 22.7602 14.9922C22.7503 19.2722 19.2703 22.7522 15.0002 22.7522Z" fill="white"/>
<path d="M2 9.75C1.59001 9.75 1.25 9.41 1.25 9C1.25 4.73 4.73 1.25 9.00001 1.25C9.27001 1.25 9.52 1.4 9.65 1.63C9.78001 1.87 9.78001 2.15 9.64 2.39L8.59 4.14C8.38 4.49 7.92001 4.61 7.56001 4.39C7.21 4.18 7.09 3.72 7.31 3.36L7.58 2.91C4.81 3.56 2.75 6.04 2.75 9C2.75 9.41 2.41 9.75 2 9.75Z" fill="white"/>
<path d="M14.8001 12.6331V15.5731C14.8001 18.0232 13.82 19.0031 11.37 19.0031H8.43001C5.98 19.0031 5 18.0232 5 15.5731V12.6331C5 10.1831 5.98 9.20312 8.43001 9.20312H11.37C13.82 9.20312 14.8001 10.1831 14.8001 12.6331Z" fill="white"/>
<path d="M15.569 5H12.629C10.219 5 9.23898 5.96 9.20898 8.32H11.369C14.309 8.32 15.6691 9.69 15.6691 12.62V14.78C18.0391 14.75 18.989 13.77 18.989 11.36V8.43C18.9991 5.98 18.019 5 15.569 5Z" fill="white"/>
</svg>
