<svg width="24" height="24" viewBox="0 0 24 24" fill="none" xmlns="http://www.w3.org/2000/svg">
<path d="M6.15234 4.2008C6.20122 4.19923 6.25029 4.19844 6.29955 4.19844H17.6995C17.7489 4.19844 17.7978 4.19923 17.8468 4.2008C17.4768 3.1509 16.476 2.39844 15.2995 2.39844H8.69955C7.52307 2.39844 6.52233 3.1509 6.15234 4.2008Z" fill="#0F172A"/>
<path d="M1.19922 12.3016C1.19922 10.8104 2.40805 9.60156 3.89922 9.60156H20.0992C21.5903 9.60156 22.7992 10.8104 22.7992 12.3016V18.9016C22.7992 20.3927 21.5903 21.6016 20.0992 21.6016H3.89922C2.40805 21.6016 1.19922 20.3927 1.19922 18.9016V12.3016Z" fill="#0F172A"/>
<path d="M3.89916 7.8C3.8499 7.8 3.80083 7.80079 3.75195 7.80236C4.12194 6.75246 5.12268 6 6.29916 6H17.6991C18.8756 6 19.8764 6.75246 20.2464 7.80236C20.1974 7.80079 20.1485 7.8 20.0991 7.8H3.89916Z" fill="#0F172A"/>
</svg>
