<svg width="24" height="24" viewBox="0 0 24 24" fill="none" xmlns="http://www.w3.org/2000/svg">
<path fill-rule="evenodd" clip-rule="evenodd" d="M2.99922 3.60156C2.0051 3.60156 1.19922 4.40745 1.19922 5.40156V10.2016C1.19922 11.1957 2.0051 12.0016 2.99922 12.0016H10.1992C11.1933 12.0016 11.9992 11.1957 11.9992 10.2016V5.40156C11.9992 4.40745 11.1933 3.60156 10.1992 3.60156H2.99922ZM16.1992 6.00156C15.2051 6.00156 14.3992 6.80745 14.3992 7.80156V16.2016C14.3992 17.1956 15.2051 18.0016 16.1992 18.0016H20.9992C21.9933 18.0016 22.7992 17.1956 22.7992 16.2016V7.80156C22.7992 6.80745 21.9933 6.00156 20.9992 6.00156H16.1992ZM4.19922 14.4016C3.2051 14.4016 2.39922 15.2075 2.39922 16.2016V18.6016C2.39922 19.5956 3.2051 20.4016 4.19922 20.4016H11.3992C12.3933 20.4016 13.1992 19.5956 13.1992 18.6016V16.2016C13.1992 15.2075 12.3933 14.4016 11.3992 14.4016H4.19922Z" fill="#0F172A"/>
</svg>
