<svg width="24" height="24" viewBox="0 0 24 24" fill="none" xmlns="http://www.w3.org/2000/svg">
<path d="M16.19 2H7.81C4.17001 2 2 4.17 2 7.81V16.18C2 19.83 4.17001 22 7.81 22H16.1801C19.82 22 21.99 19.83 21.99 16.19V7.81C22.0001 4.17 19.83 2 16.19 2ZM12 18.25C10.21 18.25 8.81 17.36 7.86001 16.48V17.19C7.86001 17.6 7.52 17.94 7.11001 17.94C6.7 17.94 6.36001 17.6 6.36001 17.19V14.44C6.36001 14.03 6.7 13.69 7.11001 13.69H9.59C10 13.69 10.34 14.03 10.34 14.44C10.34 14.85 10 15.19 9.59 15.19H8.69C9.43 15.93 10.58 16.75 12 16.75C14.6201 16.75 16.7501 14.62 16.7501 12C16.7501 11.59 17.09 11.25 17.5001 11.25C17.91 11.25 18.2501 11.59 18.2501 12C18.2501 15.45 15.45 18.25 12 18.25ZM18.2501 9.54C18.2501 9.57 18.2501 9.6 18.2501 9.62C18.24 9.73 18.21 9.83 18.1601 9.92C18.11 10.01 18.0401 10.09 17.9501 10.16C17.88 10.21 17.8001 10.25 17.7101 10.28C17.64 10.3 17.57 10.31 17.5001 10.31H15.0701C14.66 10.31 14.3201 9.97 14.3201 9.56C14.3201 9.15 14.66 8.81 15.0701 8.81H15.9C15.1001 8.07 13.8101 7.25 12.02 7.25C9.4 7.25 7.27 9.38 7.27 12C7.27 12.41 6.93001 12.75 6.52 12.75C6.11 12.75 5.75 12.41 5.75 12C5.75 8.55 8.55001 5.75 12 5.75C14.15 5.75 15.7301 6.68 16.7501 7.57V6.81C16.7501 6.4 17.09 6.06 17.5001 6.06C17.91 6.06 18.2501 6.4 18.2501 6.81V9.54Z" fill="white"/>
</svg>
