<svg width="24" height="24" viewBox="0 0 24 24" fill="none" xmlns="http://www.w3.org/2000/svg">
<path d="M17.42 4.4075H5.39007L7.27008 2.5275C7.56008 2.23751 7.56008 1.75751 7.27008 1.4675C6.98007 1.1775 6.50007 1.1775 6.21008 1.4675L3.05007 4.6275C2.98008 4.6975 2.93007 4.7775 2.89008 4.8675C2.85008 4.9575 2.83008 5.05751 2.83008 5.1575C2.83008 5.2575 2.85008 5.35751 2.89008 5.44751C2.93007 5.53751 2.98008 5.6175 3.05007 5.6875L6.21008 8.8475C6.36008 8.9975 6.55008 9.0675 6.74007 9.0675C6.93007 9.0675 7.12008 8.9975 7.27008 8.8475C7.56008 8.5575 7.56008 8.0775 7.27008 7.7875L5.39007 5.9075H17.42C18.6601 5.9075 19.67 6.9175 19.67 8.1575V11.4776C19.67 11.8875 20.0101 12.2275 20.42 12.2275C20.8301 12.2275 21.17 11.8875 21.17 11.4776V8.1575C21.17 6.0875 19.49 4.4075 17.42 4.4075Z" fill="white"/>
<path d="M21.17 18.8396C21.17 18.7395 21.1501 18.6395 21.11 18.5495C21.0701 18.4595 21.02 18.3795 20.9501 18.3095L17.7901 15.1496C17.5001 14.8595 17.0201 14.8595 16.73 15.1496C16.4401 15.4395 16.4401 15.9195 16.73 16.2095L18.6101 18.0896H6.58008C5.34008 18.0896 4.33008 17.0795 4.33008 15.8396V12.5195C4.33008 12.1095 3.99008 11.7695 3.58008 11.7695C3.17007 11.7695 2.83008 12.1095 2.83008 12.5195V15.8396C2.83008 17.9096 4.51008 19.5896 6.58008 19.5896H18.6101L16.73 21.4695C16.4401 21.7595 16.4401 22.2395 16.73 22.5296C16.88 22.6796 17.0701 22.7495 17.2601 22.7495C17.45 22.7495 17.6401 22.6796 17.7901 22.5296L20.9501 19.3695C21.02 19.2995 21.0701 19.2195 21.11 19.1295C21.1501 19.0395 21.17 18.9395 21.17 18.8396Z" fill="white"/>
</svg>
