<svg width="24" height="24" viewBox="0 0 24 24" fill="none" xmlns="http://www.w3.org/2000/svg">
<path d="M3.91 17.1814C3.72001 17.1814 3.53 17.1114 3.38 16.9614C2.01001 15.5814 1.25 13.7614 1.25 11.8314C1.25 7.8214 4.50001 4.56139 8.5 4.56139L14.57 4.5814L13.4801 3.54139C13.1801 3.25139 13.17 2.7814 13.46 2.4814C13.7501 2.1814 14.22 2.17139 14.52 2.46139L16.9601 4.80139C17.18 5.01139 17.25 5.34139 17.1401 5.62139C17.03 5.9014 16.7501 6.09139 16.44 6.09139L8.5 6.07139C5.33 6.07139 2.75 8.6614 2.75 11.8413C2.75 13.3714 3.35 14.8213 4.44001 15.9114C4.73 16.2013 4.73 16.6813 4.44001 16.9714C4.29001 17.1114 4.1 17.1814 3.91 17.1814Z" fill="white"/>
<path d="M9.9999 21.75C9.8099 21.75 9.6299 21.68 9.4799 21.54L7.0399 19.2C6.8199 18.99 6.7499 18.66 6.8599 18.38C6.9799 18.1 7.2599 17.95 7.5599 17.91L15.5099 17.93C18.6799 17.93 21.2599 15.34 21.2599 12.16C21.2599 10.63 20.6599 9.18001 19.57 8.09C19.2799 7.80001 19.2799 7.32001 19.57 7.03C19.8599 6.74 20.3399 6.74 20.6299 7.03C22 8.41 22.7599 10.23 22.7599 12.16C22.7599 16.17 19.51 19.43 15.5099 19.43L9.4399 19.41L10.5299 20.45C10.8299 20.74 10.8399 21.21 10.5499 21.51C10.3899 21.67 10.1999 21.75 9.9999 21.75Z" fill="white"/>
<path d="M12.2504 15.4192C11.8405 15.4192 11.5005 15.0791 11.5005 14.6692V11.2791L11.3105 11.4891C11.0305 11.7991 10.5605 11.8191 10.2505 11.5491C9.94049 11.2791 9.92048 10.7991 10.1905 10.4891L11.6905 8.81909C11.9005 8.58909 12.2305 8.50909 12.5204 8.6191C12.8105 8.7391 13.0004 9.0091 13.0004 9.32909V14.6791C13.0004 15.0892 12.6605 15.4192 12.2504 15.4192Z" fill="white"/>
</svg>
