<svg width="24" height="24" viewBox="0 0 24 24" fill="none" xmlns="http://www.w3.org/2000/svg">
<path d="M21.9706 18V18.9999C21.9706 20.6499 21.9706 21.9999 18.9706 21.9999H4.9707C1.9707 21.9999 1.9707 20.6499 1.9707 18.9999V18C1.9707 17.45 2.4207 17 2.9707 17H20.9707C21.5206 17 21.9706 17.45 21.9706 18Z" fill="white"/>
<path d="M14.4095 5.17586C14.4595 4.97587 14.4895 4.78586 14.4995 4.57586C14.5295 3.41587 13.8196 2.39587 12.6995 2.09587C11.0195 1.63586 9.49953 2.89586 9.49953 4.49587C9.49953 4.73587 9.52954 4.95586 9.58954 5.17586C5.97953 5.94586 3.26953 9.15586 3.26953 12.9959V14.4959C3.26953 15.0458 3.71953 15.4958 4.26953 15.4958H19.7195C20.2696 15.4958 20.7196 15.0458 20.7196 14.4959V12.9959C20.7196 9.15586 18.0196 5.95586 14.4095 5.17586ZM14.9995 11.7459H8.99953C8.58953 11.7459 8.24953 11.4059 8.24953 10.9959C8.24953 10.5859 8.58953 10.2459 8.99953 10.2459H14.9995C15.4096 10.2459 15.7495 10.5859 15.7495 10.9959C15.7495 11.4059 15.4096 11.7459 14.9995 11.7459Z" fill="white"/>
</svg>
