<svg width="24" height="24" viewBox="0 0 24 24" fill="none" xmlns="http://www.w3.org/2000/svg">
<path fill-rule="evenodd" clip-rule="evenodd" d="M5.52755 15.5641C5.83174 15.9572 5.75965 16.5225 5.36654 16.8267C4.65549 17.3769 4.20039 18.2356 4.20039 19.2011C4.20039 19.3894 4.21763 19.5731 4.25051 19.751C4.42834 19.7839 4.61207 19.8011 4.80039 19.8011C5.76589 19.8011 6.62467 19.3461 7.17487 18.635C7.47906 18.2419 8.04433 18.1697 8.43743 18.4739C8.83054 18.7781 8.90264 19.3435 8.59845 19.7366C7.72203 20.8691 6.34647 21.6011 4.80039 21.6011C4.24843 21.6011 3.71639 21.5077 3.22047 21.3347C2.96105 21.2444 2.75713 21.0405 2.66673 20.7811C2.49392 20.2851 2.40039 19.7531 2.40039 19.2011C2.40039 17.6551 3.13235 16.2795 4.26499 15.4031C4.65809 15.0989 5.22337 15.1709 5.52755 15.5641Z" fill="#0F172A"/>
<path fill-rule="evenodd" clip-rule="evenodd" d="M6.90205 14.3992C7.68779 15.4043 8.59406 16.3107 9.59922 17.0963V21.8992C9.59922 22.3963 10.0022 22.7992 10.4992 22.7992C13.8129 22.7992 16.4992 20.1129 16.4992 16.7992C16.4992 16.2109 16.4143 15.6412 16.2557 15.1025C20.2153 12.2749 22.7992 7.63903 22.7992 2.39922C22.7992 2.29403 22.7981 2.18905 22.7961 2.08433C22.7865 1.60124 22.3972 1.21191 21.9141 1.20234C21.8093 1.20026 21.7045 1.19922 21.5992 1.19922C16.3594 1.19922 11.7236 3.78319 8.89586 7.74271C8.35717 7.58415 7.78756 7.49922 7.19922 7.49922C3.88551 7.49922 1.19922 10.1855 1.19922 13.4992C1.19922 13.9963 1.60217 14.3992 2.09922 14.3992H6.90205ZM15.5992 10.7992C16.9247 10.7992 17.9992 9.7247 17.9992 8.39922C17.9992 7.07373 16.9247 5.99922 15.5992 5.99922C14.2737 5.99922 13.1992 7.07373 13.1992 8.39922C13.1992 9.7247 14.2737 10.7992 15.5992 10.7992Z" fill="#0F172A"/>
</svg>
