<svg width="24" height="24" viewBox="0 0 24 24" fill="none" xmlns="http://www.w3.org/2000/svg">
<path d="M15.0002 22.7522C14.7302 22.7522 14.4802 22.6022 14.3503 22.3722C14.2202 22.1322 14.2202 21.8522 14.3602 21.6122L15.4102 19.8621C15.6202 19.5122 16.0802 19.3922 16.4402 19.6022C16.8002 19.8122 16.9102 20.2722 16.7002 20.6322L16.4302 21.0822C19.1902 20.4321 21.2602 17.9522 21.2602 14.9922C21.2602 14.5821 21.6002 14.2422 22.0102 14.2422C22.4203 14.2422 22.7602 14.5821 22.7602 14.9922C22.7503 19.2722 19.2703 22.7522 15.0002 22.7522Z" fill="white"/>
<path d="M2 9.75C1.59001 9.75 1.25 9.41 1.25 9C1.25 4.73 4.73 1.25 9.00001 1.25C9.27001 1.25 9.52 1.4 9.65 1.63C9.78001 1.87 9.78001 2.15 9.64 2.39L8.59 4.14C8.38 4.49 7.92001 4.61 7.56001 4.39C7.21 4.18 7.09 3.72 7.31 3.36L7.58 2.91C4.81 3.56 2.75 6.04 2.75 9C2.75 9.41 2.41 9.75 2 9.75Z" fill="white"/>
<path d="M16.4002 8.21094L12.6402 6.18094C12.2402 5.97094 11.7702 5.97094 11.3702 6.18094L7.60015 8.21094C7.33015 8.36094 7.16016 8.65093 7.16016 8.97094C7.16016 9.30094 7.33015 9.59094 7.60015 9.74094L11.3602 11.7709C11.5602 11.8809 11.7802 11.9309 12.0002 11.9309C12.2202 11.9309 12.4402 11.8809 12.6402 11.7709L16.4002 9.74094C16.6702 9.59094 16.8402 9.30094 16.8402 8.97094C16.8402 8.65093 16.6702 8.36094 16.4002 8.21094Z" fill="white"/>
<path d="M10.74 12.4723L7.24 10.7224C6.97 10.5924 6.66 10.6024 6.4 10.7624C6.15 10.9224 6 11.1924 6 11.4924V14.8024C6 15.3724 6.32 15.8923 6.83 16.1424L10.33 17.8924C10.45 17.9524 10.58 17.9824 10.72 17.9824C10.88 17.9824 11.03 17.9424 11.17 17.8524C11.43 17.6923 11.58 17.4223 11.58 17.1223V13.8124C11.57 13.2424 11.26 12.7324 10.74 12.4723Z" fill="white"/>
<path d="M17.5899 10.7624C17.33 10.6024 17.0199 10.5924 16.7499 10.7224L13.25 12.4723C12.74 12.7324 12.4199 13.2424 12.4199 13.8124V17.1223C12.4199 17.4223 12.5699 17.6923 12.83 17.8524C12.9699 17.9424 13.1199 17.9824 13.28 17.9824C13.4099 17.9824 13.5399 17.9524 13.67 17.8924L17.1699 16.1424C17.6799 15.8824 17.9999 15.3724 17.9999 14.8024V11.4924C17.9999 11.1924 17.8499 10.9224 17.5899 10.7624Z" fill="white"/>
</svg>
