<svg width="24" height="24" viewBox="0 0 24 24" fill="none" xmlns="http://www.w3.org/2000/svg">
<path d="M16.19 2H7.81C4.17001 2 2 4.17 2 7.81V16.18C2 19.83 4.17001 22 7.81 22H16.1801C19.82 22 21.99 19.83 21.99 16.19V7.81C22.0001 4.17 19.83 2 16.19 2ZM12 18.58C8.83 18.58 6.25 16 6.25 12.83C6.25 9.72 8.73001 7.19 11.81 7.08L11.44 6.65C11.17 6.34 11.2 5.86 11.51 5.59C11.82 5.32 12.3 5.35 12.57 5.66L14.2301 7.56C14.25 7.58 14.2601 7.6 14.28 7.62C14.3201 7.68 14.36 7.75 14.3801 7.82C14.39 7.86 14.4 7.9 14.4101 7.94C14.43 8.03 14.42 8.13 14.4 8.22C14.3801 8.3 14.3501 8.38 14.31 8.46C14.3 8.48 14.28 8.5 14.27 8.52C14.2301 8.58 14.1701 8.63 14.1101 8.67C14.1101 8.67 14.1 8.67 14.1 8.68L12.1601 10.1C11.82 10.34 11.36 10.27 11.11 9.93999C10.87 9.60999 10.94 9.14 11.27 8.89L11.68 8.59C9.48001 8.75 7.74001 10.59 7.74001 12.83C7.74001 15.17 9.65 17.08 11.99 17.08C14.33 17.08 16.2401 15.17 16.2401 12.83C16.2401 11.99 15.99 11.17 15.53 10.47C15.3 10.13 15.39 9.66 15.74 9.43C16.0901 9.2 16.55 9.29 16.7801 9.64001C17.4101 10.59 17.75 11.69 17.75 12.83C17.75 16 15.17 18.58 12 18.58Z" fill="white"/>
</svg>
