<svg width="24" height="24" viewBox="0 0 24 24" fill="none" xmlns="http://www.w3.org/2000/svg">
<path d="M4.49961 3.60156C4.00256 3.60156 3.59961 4.00451 3.59961 4.50156V5.10156C3.59961 5.59861 4.00256 6.00156 4.49961 6.00156H4.79961C12.0897 6.00156 17.9996 11.9114 17.9996 19.2016V19.5016C17.9996 19.9986 18.4026 20.4016 18.8996 20.4016H19.4996C19.9966 20.4016 20.3996 19.9986 20.3996 19.5016V19.2016C20.3996 10.5859 13.4152 3.60156 4.79961 3.60156H4.49961Z" fill="#0F172A"/>
<path d="M3.59961 10.5016C3.59961 10.0045 4.00256 9.60156 4.49961 9.60156H4.79961C10.1015 9.60156 14.3996 13.8996 14.3996 19.2016V19.5016C14.3996 19.9986 13.9966 20.4016 13.4996 20.4016H12.8996C12.4026 20.4016 11.9996 19.9986 11.9996 19.5016V19.2016C11.9996 15.2251 8.77606 12.0016 4.79961 12.0016H4.49961C4.00256 12.0016 3.59961 11.5986 3.59961 11.1016V10.5016Z" fill="#0F172A"/>
<path d="M8.39961 18.0016C8.39961 19.3271 7.32509 20.4016 5.99961 20.4016C4.67413 20.4016 3.59961 19.3271 3.59961 18.0016C3.59961 16.676 4.67413 15.6016 5.99961 15.6016C7.32509 15.6016 8.39961 16.676 8.39961 18.0016Z" fill="#0F172A"/>
</svg>
