<svg width="24" height="24" viewBox="0 0 24 24" fill="none" xmlns="http://www.w3.org/2000/svg">
<path d="M18.4688 2H14.4687C12.9759 2 11.7419 3.28581 11.5085 4.75204C11.4652 5.02474 11.6926 5.25 11.9687 5.25H16.4688C16.8788 5.25 17.2188 5.59 17.2188 6C17.2188 6.41 16.8788 6.75 16.4688 6.75H11.9687C11.6926 6.75 11.4688 6.97386 11.4688 7.25V8.75C11.4688 9.02614 11.6926 9.25 11.9687 9.25H14.2788C14.6888 9.25 15.0288 9.59 15.0288 10C15.0288 10.41 14.6888 10.75 14.2788 10.75H11.9687C11.6926 10.75 11.4688 10.9739 11.4688 11.25V12.705C11.4688 12.9792 11.6896 13.2022 11.9638 13.2049L16.4688 13.25C16.8888 13.25 17.2188 13.59 17.2188 14.01C17.2088 14.42 16.8788 14.75 16.4688 14.75C16.4588 14.75 16.4588 14.75 16.4588 14.75L11.9737 14.7052C11.6956 14.7023 11.4688 14.9269 11.4688 15.205V16.75C11.4688 17.0261 11.6926 17.25 11.9687 17.25H15.3687C15.7887 17.25 16.1187 17.59 16.1187 18C16.1187 18.41 15.7887 18.75 15.3687 18.75H11.9687C11.6926 18.75 11.4652 18.9754 11.5085 19.248C11.7419 20.7142 12.9759 22 14.4687 22H18.4688C20.1188 22 21.4688 20.66 21.4688 19V5C21.4688 3.34 20.1188 2 18.4688 2Z" fill="white"/>
<path d="M8.4393 4.95V5.75C8.4393 6.02614 8.21545 6.25 7.93929 6.25H3.0293C2.75316 6.25 2.5293 6.02614 2.5293 5.75V4.95C2.5293 3.33 3.85929 2 5.4893 2C7.1093 2 8.4393 3.33 8.4393 4.95Z" fill="white"/>
<path d="M2.5293 17.91C2.5293 18.36 2.71929 19.05 2.95929 19.43L3.76929 20.79C4.7193 22.37 6.25929 22.37 7.1993 20.79L8.0193 19.43C8.2493 19.05 8.4393 18.36 8.4393 17.91V8.25C8.4393 7.97386 8.21545 7.75 7.93929 7.75H3.0293C2.75316 7.75 2.5293 7.97386 2.5293 8.25V17.91Z" fill="white"/>
</svg>
