<svg width="24" height="24" viewBox="0 0 24 24" fill="none" xmlns="http://www.w3.org/2000/svg">
<path d="M19.0001 7C18.86 7 18.75 7.11 18.75 7.25V12C18.75 12.41 18.41 12.75 18 12.75C17.5901 12.75 17.25 12.41 17.25 12V7.25C17.25 7.11 17.1401 7 17 7H15C14.8601 7 14.75 7.11 14.75 7.25V9.6C14.75 10.01 14.4101 10.35 14 10.35C13.59 10.35 13.25 10.01 13.25 9.6V7.25C13.25 7.11 13.14 7 13.0001 7H11.04C10.9 7 10.79 7.11 10.79 7.25L10.75 12.01C10.75 12.42 10.41 12.75 10 12.75C10 12.75 10 12.75 9.99001 12.75C9.58 12.75 9.25 12.41 9.25 11.99L9.29 7.25C9.29 7.11 9.18001 7 9.04 7H7C6.86 7 6.75001 7.11 6.75001 7.25V10.8C6.75001 11.21 6.41 11.55 6.00001 11.55C5.59 11.55 5.25001 11.21 5.25001 10.8V7.25C5.25001 7.11 5.14 7 5 7C3.34 7 2 8.34 2 10V14C2 15.66 3.34 17 5 17H19.0001C20.66 17 22.0001 15.66 22.0001 14V10C22.0001 8.34 20.66 7 19.0001 7Z" fill="white"/>
</svg>
