<svg width="24" height="24" viewBox="0 0 24 24" fill="none" xmlns="http://www.w3.org/2000/svg">
<path d="M22.9998 15.3714V17.5614C22.9998 20.0014 21.2199 22.3014 18.7998 22.9714C18.6298 23.0113 18.4498 23.0113 18.2898 22.9714C17.1099 22.6513 16.0698 21.9313 15.3399 21.0013C14.5498 20.0214 14.0898 18.8113 14.0898 17.5614V15.3714C14.0898 14.9514 14.3998 14.4913 14.7798 14.3314L17.5599 13.1914C18.1899 12.9414 18.8898 12.9414 19.5198 13.1914L20.5198 13.6014L22.3098 14.3314C22.6899 14.4913 22.9998 14.9514 22.9998 15.3714Z" fill="white"/>
<path d="M20.9512 11.0073L20.7712 12.0773L20.0713 11.7974C19.0813 11.3973 18.0013 11.3973 16.9912 11.7974L14.2012 12.9473C13.2513 13.3473 12.5913 14.3373 12.5913 15.3674V17.5574C12.5913 18.7473 12.9213 19.9373 13.5313 20.9973H6.18126C4.81126 20.9973 3.52126 19.9073 3.29125 18.5573L2.03126 11.0073C1.87126 10.0773 2.34126 8.82735 3.08126 8.23735L9.66126 2.97735C10.6713 2.16735 12.3112 2.16735 13.3213 2.98735L19.9012 8.23735C20.6313 8.82735 21.1113 10.0773 20.9512 11.0073Z" fill="white"/>
</svg>
