<svg width="24" height="24" viewBox="0 0 24 24" fill="none" xmlns="http://www.w3.org/2000/svg">
<path d="M21.6894 2.71C21.6094 2.53 21.4694 2.38 21.2794 2.3C21.1894 2.27 21.0994 2.25 20.9994 2.25H11.9994C11.5894 2.25 11.2494 2.59 11.2494 3C11.2494 3.41 11.5894 3.75 11.9994 3.75H19.1894L2.46945 20.47C2.17946 20.76 2.17946 21.24 2.46945 21.53C2.61945 21.68 2.80946 21.75 2.99945 21.75C3.18945 21.75 3.37946 21.68 3.52946 21.53L20.2494 4.81V12C20.2494 12.41 20.5894 12.75 20.9994 12.75C21.4094 12.75 21.7494 12.41 21.7494 12V3C21.7494 2.9 21.7294 2.81 21.6894 2.71Z" fill="white"/>
<path d="M17.399 18.149C17.209 18.149 17.0191 18.0791 16.8691 17.9291L6.06906 7.12906C5.77906 6.83907 5.77906 6.35907 6.06906 6.06907C6.35906 5.77906 6.83906 5.77906 7.12906 6.06907L17.929 16.8691C18.2191 17.1592 18.2191 17.6392 17.929 17.9291C17.779 18.0791 17.5891 18.149 17.399 18.149Z" fill="white"/>
</svg>
