<svg width="24" height="24" viewBox="0 0 24 24" fill="none" xmlns="http://www.w3.org/2000/svg">
<path d="M21.9997 5.11V16.47C21.9997 17.92 20.9598 18.53 19.6898 17.83L17.7598 16.75C17.5998 16.66 17.4997 16.49 17.4997 16.31V8.99C17.4997 6.45 15.4298 4.38 12.8898 4.38H8.81984C8.44984 4.38 8.18984 3.99 8.35984 3.67C8.87984 2.68 9.91984 2 11.1098 2H18.8898C20.5998 2 21.9997 3.4 21.9997 5.11Z" fill="white"/>
<path d="M12.89 5.88281H5.11C3.4 5.88281 2 7.28282 2 8.99282V20.3528C2 21.8028 3.04 22.4129 4.31 21.7128L8.24 19.5228C8.66 19.2929 9.34 19.2929 9.76 19.5228L13.6901 21.7128C14.96 22.4129 16.0001 21.8028 16.0001 20.3528V8.99282C16.0001 7.28282 14.6 5.88281 12.89 5.88281ZM11 12.7529H7C6.59 12.7529 6.25 12.4128 6.25 12.0029C6.25 11.5929 6.59 11.2529 7 11.2529H11C11.41 11.2529 11.75 11.5929 11.75 12.0029C11.75 12.4128 11.41 12.7529 11 12.7529Z" fill="white"/>
</svg>
