<svg width="24" height="24" viewBox="0 0 24 24" fill="none" xmlns="http://www.w3.org/2000/svg">
<path d="M21.9997 5.11V16.47C21.9997 17.92 20.9598 18.53 19.6898 17.83L17.7598 16.75C17.5998 16.66 17.4997 16.49 17.4997 16.31V8.99C17.4997 6.45 15.4298 4.38 12.8898 4.38H8.81984C8.44984 4.38 8.18984 3.99 8.35984 3.67C8.87984 2.68 9.91984 2 11.1098 2H18.8898C20.5998 2 21.9997 3.4 21.9997 5.11Z" fill="white"/>
<path d="M12.89 5.88281H5.11C3.4 5.88281 2 7.28282 2 8.99282V20.3528C2 21.8028 3.04 22.4129 4.31 21.7128L8.24 19.5228C8.66 19.2929 9.34 19.2929 9.76 19.5228L13.6901 21.7128C14.96 22.4129 16.0001 21.8028 16.0001 20.3528V8.99282C16.0001 7.28282 14.6 5.88281 12.89 5.88281ZM10.94 12.8828C11.23 13.1729 11.23 13.6529 10.94 13.9428C10.79 14.0928 10.6 14.1629 10.41 14.1629C10.22 14.1629 10.03 14.0928 9.88 13.9428L9.00001 13.0628L8.12 13.9428C7.97 14.0928 7.78 14.1629 7.59001 14.1629C7.4 14.1629 7.21 14.0928 7.06 13.9428C6.77 13.6529 6.77 13.1729 7.06 12.8828L7.94 12.0029L7.06 11.1229C6.77 10.8329 6.77 10.3529 7.06 10.0629C7.35001 9.77282 7.83001 9.77282 8.12 10.0629L9.00001 10.9429L9.88 10.0629C10.17 9.77282 10.65 9.77282 10.94 10.0629C11.23 10.3529 11.23 10.8329 10.94 11.1229L10.06 12.0029L10.94 12.8828Z" fill="white"/>
</svg>
