<svg width="24" height="24" viewBox="0 0 24 24" fill="none" xmlns="http://www.w3.org/2000/svg">
<path fill-rule="evenodd" clip-rule="evenodd" d="M12.0005 2.39844C12.4977 2.39844 12.9005 2.80139 12.9005 3.29844V3.60847C14.6777 3.64812 16.4264 3.80489 18.139 4.07147C19.0712 4.21655 19.9925 4.39416 20.9021 4.60309C21.3866 4.71437 21.689 5.19731 21.5777 5.68173C21.4665 6.16617 20.9835 6.46868 20.4991 6.35739C20.0607 6.25669 19.6195 6.16361 19.1753 6.0783L21.2182 15.1332C21.3083 15.5327 21.1175 15.9426 20.7538 16.1306C19.9282 16.5577 18.9913 16.7984 18.0005 16.7984C17.0099 16.7984 16.073 16.5577 15.2474 16.1306C14.8837 15.9426 14.6929 15.5327 14.783 15.1332L16.9081 5.71399C15.5925 5.54348 14.2555 5.44058 12.9005 5.40894V19.215C14.4541 19.2724 15.9705 19.4773 17.4361 19.8168C17.9203 19.9289 18.2219 20.4124 18.1097 20.8966C17.9977 21.3809 17.5142 21.6824 17.03 21.5704C15.4148 21.1963 13.7314 20.9984 12.0005 20.9984C10.2698 20.9984 8.58637 21.1963 6.97125 21.5704C6.48701 21.6824 6.00355 21.3809 5.89141 20.8966C5.77927 20.4124 6.08093 19.9289 6.56516 19.8168C8.03073 19.4773 9.54717 19.2724 11.1006 19.215V5.40894C9.74569 5.44058 8.40869 5.54348 7.09315 5.71399L9.21824 15.1332C9.30836 15.5327 9.11749 15.9426 8.75378 16.1306C7.92822 16.5577 6.99121 16.7984 6.00059 16.7984C5.00997 16.7984 4.07296 16.5577 3.2474 16.1306C2.88369 15.9426 2.69281 15.5327 2.78293 15.1332L4.82583 6.0783C4.38176 6.16361 3.94046 6.25669 3.50209 6.35739C3.01765 6.46868 2.53472 6.16617 2.42343 5.68173C2.31216 5.19731 2.61465 4.71437 3.09909 4.60309C4.00861 4.39416 4.93003 4.21655 5.86218 4.07147C7.57484 3.80489 9.32348 3.64812 11.1006 3.60847V3.29844C11.1006 2.80139 11.5035 2.39844 12.0005 2.39844ZM6.00059 9.05015L4.7045 14.7949C5.11208 14.9269 5.54743 14.9984 6.00059 14.9984C6.45375 14.9984 6.8891 14.9269 7.29668 14.7949L6.00059 9.05015ZM18.0005 9.05016L16.7045 14.7949C17.1121 14.9269 17.5474 14.9984 18.0005 14.9984C18.4538 14.9984 18.8891 14.9269 19.2967 14.7949L18.0005 9.05016Z" fill="#0F172A"/>
</svg>
