<svg width="24" height="24" viewBox="0 0 24 24" fill="none" xmlns="http://www.w3.org/2000/svg">
<path d="M2 9.75C1.59001 9.75 1.25 9.41 1.25 9V6.5C1.25 3.6 3.61 1.25 6.5 1.25H9.00001C9.41 1.25 9.75001 1.59 9.75001 2C9.75001 2.41 9.41 2.75 9.00001 2.75H6.5C4.43 2.75 2.75 4.43 2.75 6.5V9C2.75 9.41 2.41 9.75 2 9.75Z" fill="white"/>
<path d="M22 9.75C21.59 9.75 21.25 9.41 21.25 9V6.5C21.25 4.43 19.57 2.75 17.5 2.75H15C14.59 2.75 14.25 2.41 14.25 2C14.25 1.59 14.59 1.25 15 1.25H17.5C20.39 1.25 22.75 3.6 22.75 6.5V9C22.75 9.41 22.41 9.75 22 9.75Z" fill="white"/>
<path d="M17.5 22.75H16C15.59 22.75 15.25 22.41 15.25 22C15.25 21.5901 15.59 21.25 16 21.25H17.5C19.57 21.25 21.25 19.57 21.25 17.5V16C21.25 15.5901 21.59 15.25 22 15.25C22.41 15.25 22.75 15.5901 22.75 16V17.5C22.75 20.4 20.39 22.75 17.5 22.75Z" fill="white"/>
<path d="M9.00001 22.75H6.5C3.61 22.75 1.25 20.4 1.25 17.5V15C1.25 14.59 1.59001 14.25 2 14.25C2.41 14.25 2.75 14.59 2.75 15V17.5C2.75 19.57 4.43 21.25 6.5 21.25H9.00001C9.41 21.25 9.75001 21.59 9.75001 22C9.75001 22.41 9.41 22.75 9.00001 22.75Z" fill="white"/>
<path d="M8.50109 11.3811C10.0917 11.3811 11.3811 10.0917 11.3811 8.50109C11.3811 6.91052 10.0917 5.62109 8.50109 5.62109C6.91052 5.62109 5.62109 6.91052 5.62109 8.50109C5.62109 10.0917 6.91052 11.3811 8.50109 11.3811Z" fill="white"/>
<path d="M7.5011 18.3811C8.53939 18.3811 9.3811 17.5394 9.3811 16.5011C9.3811 15.4628 8.53939 14.6211 7.5011 14.6211C6.4628 14.6211 5.62109 15.4628 5.62109 16.5011C5.62109 17.5394 6.4628 18.3811 7.5011 18.3811Z" fill="white"/>
<path d="M16.5011 9.3811C17.5394 9.3811 18.3811 8.5394 18.3811 7.5011C18.3811 6.46281 17.5394 5.62109 16.5011 5.62109C15.4628 5.62109 14.6211 6.46281 14.6211 7.5011C14.6211 8.5394 15.4628 9.3811 16.5011 9.3811Z" fill="white"/>
<path d="M15.4991 18.3772C17.0897 18.3772 18.3791 17.0878 18.3791 15.4972C18.3791 13.9067 17.0897 12.6172 15.4991 12.6172C13.9085 12.6172 12.6191 13.9067 12.6191 15.4972C12.6191 17.0878 13.9085 18.3772 15.4991 18.3772Z" fill="white"/>
</svg>
