<svg width="24" height="24" viewBox="0 0 24 24" fill="none" xmlns="http://www.w3.org/2000/svg">
<path d="M2.77 10C2.34001 10 2 9.66 2 9.23V6.92C2 4.21 4.21 2 6.92 2H9.23C9.66 2 10 2.34 10 2.77C10 3.2 9.66 3.54 9.23 3.54H6.92C5.05 3.54 3.54001 5.06 3.54001 6.92V9.23C3.54001 9.66 3.19 10 2.77 10Z" fill="white"/>
<path d="M21.23 10C20.81 10 20.46 9.66 20.46 9.23V6.92C20.46 5.05 18.94 3.54 17.08 3.54H14.77C14.34 3.54 14 3.19 14 2.77C14 2.35 14.34 2 14.77 2H17.08C19.79 2 22 4.21 22 6.92V9.23C22 9.66 21.66 10 21.23 10Z" fill="white"/>
<path d="M17.0799 21.9997H15.69C15.27 21.9997 14.9199 21.6596 14.9199 21.2297C14.9199 20.8097 15.2599 20.4596 15.69 20.4596H17.0799C18.9499 20.4596 20.46 18.9397 20.46 17.0797V15.6997C20.46 15.2797 20.7999 14.9297 21.2299 14.9297C21.6499 14.9297 21.9999 15.2696 21.9999 15.6997V17.0797C21.9999 19.7897 19.7899 21.9997 17.0799 21.9997Z" fill="white"/>
<path d="M9.23 21.9999H6.92C4.21 21.9999 2 19.79 2 17.0799V14.7699C2 14.34 2.34001 14 2.77 14C3.2 14 3.54001 14.34 3.54001 14.7699V17.0799C3.54001 18.95 5.06 20.46 6.92 20.46H9.23C9.65 20.46 10 20.7999 10 21.23C10 21.66 9.66 21.9999 9.23 21.9999Z" fill="white"/>
<path d="M18.4595 11.2305H17.0995H6.89953H5.53954C5.10953 11.2305 4.76953 11.5805 4.76953 12.0004C4.76953 12.4204 5.10953 12.7705 5.53954 12.7705H6.89953H17.0995H18.4595C18.8896 12.7705 19.2295 12.4204 19.2295 12.0004C19.2295 11.5805 18.8896 11.2305 18.4595 11.2305Z" fill="white"/>
<path d="M6.90039 13.9405V14.2705C6.90039 15.9304 8.24039 17.2705 9.90039 17.2705H14.1004C15.7604 17.2705 17.1004 15.9304 17.1004 14.2705V13.9405C17.1004 13.8205 17.0104 13.7305 16.8904 13.7305H7.11039C6.99039 13.7305 6.90039 13.8205 6.90039 13.9405Z" fill="white"/>
<path d="M6.90039 10.0605V9.73046C6.90039 8.07046 8.24039 6.73047 9.90039 6.73047H14.1004C15.7604 6.73047 17.1004 8.07046 17.1004 9.73046V10.0605C17.1004 10.1805 17.0104 10.2705 16.8904 10.2705H7.11039C6.99039 10.2705 6.90039 10.1805 6.90039 10.0605Z" fill="white"/>
</svg>
