<svg width="24" height="24" viewBox="0 0 24 24" fill="none" xmlns="http://www.w3.org/2000/svg">
<path d="M22.0001 9.75C21.59 9.75 21.2501 9.41 21.2501 9V7C21.2501 4.42 19.58 2.75 17 2.75H7C4.42 2.75 2.75 4.42 2.75 7V9C2.75 9.41 2.41 9.75 2 9.75C1.59001 9.75 1.25 9.41 1.25 9V7C1.25 3.56 3.56 1.25 7 1.25H17C20.4401 1.25 22.7501 3.56 22.7501 7V9C22.7501 9.41 22.41 9.75 22.0001 9.75Z" fill="white"/>
<path d="M17 22.75H7C3.56 22.75 1.25 20.44 1.25 17V15C1.25 14.59 1.59001 14.25 2 14.25C2.41 14.25 2.75 14.59 2.75 15V17C2.75 19.58 4.42 21.25 7 21.25H17C19.58 21.25 21.2501 19.58 21.2501 17V15C21.2501 14.59 21.59 14.25 22.0001 14.25C22.41 14.25 22.7501 14.59 22.7501 15V17C22.7501 20.44 20.4401 22.75 17 22.75Z" fill="white"/>
<path d="M22.0001 12.75H2C1.59001 12.75 1.25 12.41 1.25 12C1.25 11.59 1.59001 11.25 2 11.25H22.0001C22.41 11.25 22.7501 11.59 22.7501 12C22.7501 12.41 22.41 12.75 22.0001 12.75Z" fill="white"/>
<path d="M16.5 9H7.49999C7.22 9 7 8.78 7 8.5V6.5C7 5.67 7.67 5 8.5 5H15.4999C16.33 5 16.9999 5.67 16.9999 6.5V8.5C16.9999 8.78 16.78 9 16.5 9Z" fill="white"/>
<path d="M16.5 15H7.49999C7.22 15 7 15.22 7 15.5V17.5C7 18.33 7.67 19 8.5 19H15.4999C16.32 19 16.9999 18.33 16.9999 17.5V15.5C16.9999 15.22 16.78 15 16.5 15Z" fill="white"/>
</svg>
