<svg width="24" height="24" viewBox="0 0 24 24" fill="none" xmlns="http://www.w3.org/2000/svg">
<path d="M5.5 10C7.433 10 9.00001 8.433 9.00001 6.5C9.00001 4.567 7.433 3 5.5 3C3.56701 3 2 4.567 2 6.5C2 8.433 3.56701 10 5.5 10Z" fill="white"/>
<path d="M5.5 21C7.433 21 9.00001 19.433 9.00001 17.4999C9.00001 15.567 7.433 14 5.5 14C3.56701 14 2 15.567 2 17.4999C2 19.433 3.56701 21 5.5 21Z" fill="white"/>
<path d="M15.2492 11.9803L22.4492 6.60028C22.7792 6.35027 22.8491 5.88028 22.5992 5.55028C22.3491 5.22028 21.8792 5.15027 21.5492 5.40028L13.9991 11.0503L8.4491 6.89027C8.1191 6.65027 7.6491 6.71027 7.3991 7.04027C7.1491 7.37027 7.2191 7.84027 7.5491 8.09027L12.7491 11.9803L6.8491 16.4003C6.5191 16.6504 6.4491 17.1203 6.6991 17.4503C6.8491 17.6503 7.0691 17.7503 7.2991 17.7503C7.4591 17.7503 7.6091 17.7004 7.7491 17.6003L13.9991 12.9203L21.5492 18.5704C21.6791 18.6703 21.8391 18.7204 21.9992 18.7204C22.2291 18.7204 22.4492 18.6203 22.5992 18.4204C22.8491 18.0904 22.7792 17.6203 22.4492 17.3704L15.2492 11.9803Z" fill="white"/>
</svg>
