<svg width="24" height="24" viewBox="0 0 24 24" fill="none" xmlns="http://www.w3.org/2000/svg">
<path fill-rule="evenodd" clip-rule="evenodd" d="M1.76261 4.49913C0.602816 6.50797 1.29109 9.07664 3.29992 10.2364C5.04121 11.2418 7.20317 10.8585 8.50353 9.43022L9.5635 10.0422C9.59327 10.1533 9.73929 10.1825 9.81421 10.0951C9.9957 9.88365 10.1968 9.68903 10.4151 9.5141C10.7586 9.23872 10.7749 8.66313 10.3936 8.44298L9.40353 7.87137C9.99027 6.03109 9.24121 3.96716 7.49992 2.96183C5.49109 1.80203 2.92241 2.49031 1.76261 4.49913ZM4.19992 8.6776C3.05202 8.01485 2.65872 6.54704 3.32146 5.39913C3.98421 4.25123 5.45202 3.85793 6.59992 4.52067C7.74783 5.18342 8.14113 6.65123 7.47838 7.79913C6.81564 8.94704 5.34783 9.34034 4.19992 8.6776Z" fill="#0F172A"/>
<path fill-rule="evenodd" clip-rule="evenodd" d="M11.9468 9.98611C11.0085 10.382 10.3056 11.1888 10.042 12.1724L9.56382 13.9571L8.50363 14.5692C7.20328 13.1408 5.04126 12.7574 3.29992 13.7628C1.29109 14.9226 0.602816 17.4913 1.76261 19.5001C2.92241 21.5089 5.49109 22.1972 7.49992 21.0374C9.24117 20.0321 9.99023 17.9683 9.40357 16.128L22.2182 8.72949C22.5335 8.54749 22.7081 8.1935 22.6605 7.8326C22.613 7.4717 22.3527 7.17495 22.0011 7.08074L21.1573 6.85464C20.4485 6.6647 19.6965 6.71646 19.0205 7.00172L11.9468 9.98611ZM3.32146 18.6001C2.65872 17.4522 3.05202 15.9845 4.19992 15.3217C5.34783 14.6589 6.81564 15.0522 7.47838 16.2001C8.14113 17.348 7.74783 18.8159 6.59992 19.4786C5.45202 20.1414 3.98421 19.748 3.32146 18.6001Z" fill="#0F172A"/>
<path d="M15.0246 14.2678C14.5954 14.5156 14.6347 15.1475 15.0915 15.3403L19.0205 16.9979C19.6966 17.2832 20.4485 17.3349 21.1573 17.1451L22.0012 16.9189C22.3528 16.8247 22.6131 16.5279 22.6606 16.1671C22.7081 15.8061 22.5335 15.4522 22.2183 15.2702L18.0534 12.8656C17.8678 12.7583 17.6391 12.7583 17.4534 12.8656L15.0246 14.2678Z" fill="#0F172A"/>
</svg>
