<svg width="24" height="24" viewBox="0 0 24 24" fill="none" xmlns="http://www.w3.org/2000/svg">
<path d="M16.19 2H7.81C4.17001 2 2 4.17 2 7.81V16.18C2 19.83 4.17001 22 7.81 22H16.1801C19.82 22 21.99 19.83 21.99 16.19V7.81C22.0001 4.17 19.83 2 16.19 2ZM10.13 14.5C10.42 14.79 10.42 15.27 10.13 15.56C9.98 15.71 9.79 15.78 9.60001 15.78C9.41 15.78 9.22 15.71 9.07 15.56L6.58 13.07C5.99 12.48 5.99 11.53 6.58 10.94L9.07 8.45C9.36001 8.16 9.84001 8.16 10.13 8.45C10.42 8.74 10.42 9.22 10.13 9.51L7.64 12L10.13 14.5ZM17.42 13.06L14.93 15.55C14.78 15.7 14.5901 15.77 14.4 15.77C14.21 15.77 14.0201 15.7 13.8701 15.55C13.58 15.26 13.58 14.78 13.8701 14.49L16.3601 12L13.8701 9.5C13.58 9.21 13.58 8.73 13.8701 8.43999C14.16 8.15 14.64 8.15 14.93 8.43999L17.42 10.93C18.0101 11.52 18.0101 12.48 17.42 13.06Z" fill="white"/>
</svg>
