<svg width="24" height="24" viewBox="0 0 24 24" fill="none" xmlns="http://www.w3.org/2000/svg">
<path d="M11.5 21C16.7467 21 21 16.7467 21 11.5C21 6.25329 16.7467 2 11.5 2C6.25329 2 2 6.25329 2 11.5C2 16.7467 6.25329 21 11.5 21Z" fill="white"/>
<path d="M21.3005 22.0024C21.1205 22.0024 20.9405 21.9325 20.8105 21.8025L18.9505 19.9424C18.6805 19.6724 18.6805 19.2325 18.9505 18.9525C19.2205 18.6825 19.6606 18.6825 19.9405 18.9525L21.8005 20.8124C22.0705 21.0824 22.0705 21.5224 21.8005 21.8025C21.6605 21.9325 21.4805 22.0024 21.3005 22.0024Z" fill="white"/>
</svg>
