<svg width="24" height="24" viewBox="0 0 24 24" fill="none" xmlns="http://www.w3.org/2000/svg">
<path d="M11.0002 1.99219C6.03024 1.99219 1.99023 6.03218 1.99023 11.0021C1.99023 15.9721 6.03024 20.0122 11.0002 20.0122C15.9702 20.0122 20.0102 15.9721 20.0102 11.0021C20.0102 6.03218 15.9702 1.99219 11.0002 1.99219ZM14.1802 11.5622C13.6202 13.3422 11.6702 14.3122 11.0002 14.3122C10.3102 14.3122 8.40024 13.3822 7.82024 11.5622C7.44024 10.3721 7.87023 8.82218 9.23024 8.39218C9.85023 8.19218 10.5102 8.31218 11.0002 8.68219C11.4802 8.31218 12.1502 8.19218 12.7802 8.39218C14.1302 8.83219 14.5602 10.3822 14.1802 11.5622Z" fill="white"/>
<path d="M21.99 18.95C21.66 18.34 20.96 18 20.0201 18C19.31 18 18.7001 18.29 18.3401 18.79C17.9801 19.29 17.9 19.96 18.12 20.63C18.5501 21.93 19.3001 22.22 19.71 22.27C19.77 22.28 19.83 22.28 19.9001 22.28C20.34 22.28 21.02 22.09 21.68 21.1C22.2101 20.33 22.31 19.56 21.99 18.95Z" fill="white"/>
</svg>
