<svg width="24" height="24" viewBox="0 0 24 24" fill="none" xmlns="http://www.w3.org/2000/svg">
<path d="M11.0002 1.99219C6.03024 1.99219 1.99023 6.03218 1.99023 11.0021C1.99023 15.9721 6.03024 20.0122 11.0002 20.0122C15.9702 20.0122 20.0102 15.9721 20.0102 11.0021C20.0102 6.03218 15.9702 1.99219 11.0002 1.99219ZM11.0002 13.2522H8.00024C7.59024 13.2522 7.25024 12.9121 7.25024 12.5022C7.25024 12.0922 7.59024 11.7521 8.00024 11.7521H11.0002C11.4102 11.7521 11.7502 12.0922 11.7502 12.5022C11.7502 12.9121 11.4102 13.2522 11.0002 13.2522ZM14.0002 10.2521H8.00024C7.59024 10.2521 7.25024 9.91219 7.25024 9.50218C7.25024 9.09218 7.59024 8.75218 8.00024 8.75218H14.0002C14.4102 8.75218 14.7502 9.09218 14.7502 9.50218C14.7502 9.91219 14.4102 10.2521 14.0002 10.2521Z" fill="white"/>
<path d="M21.99 18.95C21.66 18.34 20.96 18 20.0201 18C19.31 18 18.7001 18.29 18.3401 18.79C17.9801 19.29 17.9 19.96 18.12 20.63C18.5501 21.93 19.3001 22.22 19.71 22.27C19.77 22.28 19.83 22.28 19.9001 22.28C20.34 22.28 21.02 22.09 21.68 21.1C22.2101 20.33 22.31 19.56 21.99 18.95Z" fill="white"/>
</svg>
