<svg width="24" height="24" viewBox="0 0 24 24" fill="none" xmlns="http://www.w3.org/2000/svg">
<path d="M21.3005 22.0024C21.1205 22.0024 20.9405 21.9325 20.8105 21.8025L18.9505 19.9424C18.6805 19.6724 18.6805 19.2325 18.9505 18.9525C19.2205 18.6825 19.6606 18.6825 19.9405 18.9525L21.8005 20.8124C22.0705 21.0824 22.0705 21.5224 21.8005 21.8025C21.6605 21.9325 21.4805 22.0024 21.3005 22.0024Z" fill="white"/>
<path d="M11.5 2C6.26 2 2 6.26 2 11.5C2 16.74 6.26 21 11.5 21C16.74 21 21 16.74 21 11.5C21 6.26 16.74 2 11.5 2ZM14 12.45H9.00001C8.59 12.45 8.25001 12.11 8.25001 11.7C8.25001 11.29 8.59 10.95 9.00001 10.95H14C14.4101 10.95 14.75 11.29 14.75 11.7C14.75 12.11 14.4101 12.45 14 12.45Z" fill="white"/>
</svg>
