<svg width="24" height="24" viewBox="0 0 24 24" fill="none" xmlns="http://www.w3.org/2000/svg">
<path d="M11.5 2C6.26 2 2 6.26 2 11.5C2 16.74 6.26 21 11.5 21C16.74 21 21 16.74 21 11.5C21 6.26 16.74 2 11.5 2ZM11.5 13.75H8.5C8.09 13.75 7.75 13.41 7.75 13C7.75 12.59 8.09 12.25 8.5 12.25H11.5C11.91 12.25 12.2501 12.59 12.2501 13C12.2501 13.41 11.91 13.75 11.5 13.75ZM14.5001 10.75H8.5C8.09 10.75 7.75 10.41 7.75 10C7.75 9.59 8.09 9.25 8.5 9.25H14.5001C14.91 9.25 15.2501 9.59 15.2501 10C15.2501 10.41 14.91 10.75 14.5001 10.75Z" fill="white"/>
<path d="M21.3005 21.9986C21.1205 21.9986 20.9405 21.9287 20.8105 21.7986L18.9505 19.9386C18.6805 19.6686 18.6805 19.2287 18.9505 18.9486C19.2205 18.6786 19.6606 18.6786 19.9405 18.9486L21.8005 20.8086C22.0705 21.0786 22.0705 21.5186 21.8005 21.7986C21.6605 21.9287 21.4805 21.9986 21.3005 21.9986Z" fill="white"/>
</svg>
