<svg width="24" height="24" viewBox="0 0 24 24" fill="none" xmlns="http://www.w3.org/2000/svg">
<path d="M11.01 2C6.04 2 2 6.04 2 11.01C2 15.98 6.04 20.02 11.01 20.02C15.98 20.02 20.0201 15.98 20.0201 11.01C20.0201 6.04 15.98 2 11.01 2ZM13.5 11.75H11.75V13.5C11.75 13.91 11.41 14.25 11 14.25C10.59 14.25 10.25 13.91 10.25 13.5V11.75H8.5C8.09 11.75 7.75 11.41 7.75 11C7.75 10.59 8.09 10.25 8.5 10.25H10.25V8.5C10.25 8.09 10.59 7.75 11 7.75C11.41 7.75 11.75 8.09 11.75 8.5V10.25H13.5C13.91 10.25 14.25 10.59 14.25 11C14.25 11.41 13.91 11.75 13.5 11.75Z" fill="white"/>
<path d="M21.99 18.95C21.66 18.34 20.96 18 20.0201 18C19.31 18 18.7001 18.29 18.3401 18.79C17.9801 19.29 17.9 19.96 18.12 20.63C18.5501 21.93 19.3001 22.22 19.71 22.27C19.77 22.28 19.83 22.28 19.9001 22.28C20.34 22.28 21.02 22.09 21.68 21.1C22.2101 20.33 22.31 19.56 21.99 18.95Z" fill="white"/>
</svg>
