<svg width="24" height="24" viewBox="0 0 24 24" fill="none" xmlns="http://www.w3.org/2000/svg">
<path d="M13.4909 13.3828H11.0009C10.7009 13.3828 10.4609 13.6228 10.4609 13.9228C10.4609 14.2228 10.7009 14.4628 11.0009 14.4628H13.4909C13.7909 14.4628 14.0309 14.2228 14.0309 13.9228C14.0309 13.6228 13.7909 13.3828 13.4909 13.3828Z" fill="white"/>
<path d="M9.44039 13.3828H8.19039C7.89039 13.3828 7.65039 13.6228 7.65039 13.9228C7.65039 14.2228 7.89039 14.4628 8.19039 14.4628H9.44039C9.74039 14.4628 9.98039 14.2228 9.98039 13.9228C9.98039 13.6228 9.74039 13.3828 9.44039 13.3828Z" fill="white"/>
<path d="M18.5389 4.2175L13.0388 2.1575C12.4688 1.9475 11.5388 1.9475 10.9688 2.1575L5.46883 4.2175C4.40882 4.6175 3.54883 5.8575 3.54883 6.9875V15.0876C3.54883 15.8976 4.07882 16.9675 4.72882 17.4475L10.2288 21.5575C11.1988 22.2876 12.7888 22.2876 13.7588 21.5575L19.2589 17.4475C19.9088 16.9576 20.4388 15.8976 20.4388 15.0876V6.9875C20.4488 5.8575 19.5889 4.6175 18.5389 4.2175ZM18.1688 13.6476C18.1489 15.7176 17.5789 16.2376 15.4288 16.2376H8.57882C6.38882 16.2376 5.83882 15.6976 5.83882 13.5276V11.1975C5.83882 10.9175 6.05882 10.6976 6.33883 10.6976H17.6689C17.9488 10.6976 18.1688 10.9175 18.1688 11.1975V13.6476ZM18.1688 9.1075C18.1688 9.3875 17.9488 9.6075 17.6689 9.6075H6.33883C6.05882 9.6075 5.83882 9.3875 5.83882 9.1075V8.4675C5.83882 6.5075 6.29882 5.8775 8.00882 5.7675C8.18882 5.7675 8.37883 5.7575 8.57882 5.7575H15.4288C17.6188 5.7575 18.1688 6.2975 18.1688 8.4675V9.1075Z" fill="white"/>
</svg>
