<svg width="24" height="24" viewBox="0 0 24 24" fill="none" xmlns="http://www.w3.org/2000/svg">
<path d="M20.9098 11.1203V6.73031C20.9098 5.91031 20.2898 4.98031 19.5198 4.6703L13.9498 2.3903C12.6998 1.88032 11.2898 1.88032 10.0398 2.3903L4.46984 4.6703C3.70984 4.98031 3.08984 5.91031 3.08984 6.73031V11.1203C3.08984 16.0103 6.63984 20.5903 11.4898 21.9302C11.8198 22.0202 12.1798 22.0202 12.5098 21.9302C17.3598 20.5903 20.9098 16.0103 20.9098 11.1203ZM12.7498 12.8704V15.5003C12.7498 15.9103 12.4098 16.2503 11.9998 16.2503C11.5898 16.2503 11.2498 15.9103 11.2498 15.5003V12.8704C10.2398 12.5503 9.49984 11.6103 9.49984 10.5003C9.49984 9.12031 10.6198 8.0003 11.9998 8.0003C13.3798 8.0003 14.4998 9.12031 14.4998 10.5003C14.4998 11.6203 13.7598 12.5503 12.7498 12.8704Z" fill="white"/>
</svg>
