<svg width="24" height="24" viewBox="0 0 24 24" fill="none" xmlns="http://www.w3.org/2000/svg">
<path d="M18.3301 5.66999L6.59008 17.41C6.15007 17.85 5.41007 17.79 5.05007 17.27C3.81007 15.46 3.08008 13.32 3.08008 11.12V6.73C3.08008 5.90999 3.70007 4.97999 4.46008 4.67L10.0301 2.39C11.2901 1.87 12.6901 1.87 13.9501 2.39L18.0001 4.04C18.6601 4.31 18.8301 5.17 18.3301 5.66999Z" fill="white"/>
<path d="M19.2701 7.03768C19.92 6.48768 20.91 6.95768 20.91 7.80768V11.1177C20.91 16.0077 17.36 20.5876 12.51 21.9277C12.18 22.0177 11.82 22.0177 11.48 21.9277C10.06 21.5277 8.74 20.8576 7.61001 19.9777C7.13001 19.6077 7.08001 18.9076 7.50001 18.4777C9.68001 16.2477 16.0601 9.74768 19.2701 7.03768Z" fill="white"/>
</svg>
