<svg width="24" height="24" viewBox="0 0 24 24" fill="none" xmlns="http://www.w3.org/2000/svg">
<path d="M12 8.25C10.21 8.25 8.75 9.71 8.75 11.5C8.75 13.29 10.21 14.75 12 14.75C13.79 14.75 15.2501 13.29 15.2501 11.5C15.2501 9.71 13.79 8.25 12 8.25ZM13.0001 11.18C13.0001 11.79 12.6701 12.37 12.15 12.68L11.38 13.14C11.26 13.21 11.13 13.25 10.99 13.25C10.74 13.25 10.49 13.12 10.35 12.89C10.14 12.53 10.25 12.07 10.61 11.86L11.37 11.4C11.45 11.35 11.49 11.27 11.49 11.19V10.26C11.49 9.85 11.83 9.51 12.24 9.51C12.65 9.51 13.0001 9.84 13.0001 10.25V11.18Z" fill="white"/>
<path d="M18.5389 4.17062L13.0388 2.11062C12.4688 1.90063 11.5388 1.90063 10.9688 2.11062L5.46883 4.17062C4.40882 4.57063 3.54883 5.81062 3.54883 6.94063V15.0406C3.54883 15.8506 4.07882 16.9206 4.72882 17.4006L10.2288 21.5106C11.1988 22.2406 12.7888 22.2406 13.7588 21.5106L19.2589 17.4006C19.9088 16.9106 20.4388 15.8506 20.4388 15.0406V6.94063C20.4488 5.81062 19.5889 4.57063 18.5389 4.17062ZM11.9988 16.2506C9.37882 16.2506 7.24882 14.1206 7.24882 11.5006C7.24882 8.88062 9.37882 6.75063 11.9988 6.75063C14.6188 6.75063 16.7488 8.88062 16.7488 11.5006C16.7488 14.1206 14.6188 16.2506 11.9988 16.2506Z" fill="white"/>
</svg>
