<svg width="24" height="24" viewBox="0 0 24 24" fill="none" xmlns="http://www.w3.org/2000/svg">
<path d="M16.19 2H7.81C4.17001 2 2 4.17 2 7.81V16.18C2 19.83 4.17001 22 7.81 22H16.1801C19.82 22 21.99 19.83 21.99 16.19V7.81C22.0001 4.17 19.83 2 16.19 2ZM8.64001 12.81L13.02 8.43H10.59C10.18 8.43 9.84001 8.09 9.84001 7.68C9.84001 7.27 10.18 6.93 10.59 6.93H14.8301C14.93 6.93 15.02 6.95 15.12 6.99C15.3 7.07 15.45 7.21 15.53 7.4C15.57 7.49 15.59 7.59 15.59 7.69V11.93C15.59 12.34 15.2501 12.68 14.84 12.68C14.43 12.68 14.09 12.34 14.09 11.93V9.5L9.7 13.87C9.55 14.02 9.36001 14.09 9.17 14.09C8.98 14.09 8.79001 14.02 8.64001 13.87C8.35 13.58 8.35 13.1 8.64001 12.81ZM18.24 17.22C16.23 17.89 14.12 18.23 12 18.23C9.88 18.23 7.77001 17.89 5.76001 17.22C5.37001 17.09 5.16001 16.66 5.29 16.27C5.42 15.88 5.84 15.66 6.24001 15.8C9.96001 17.04 14.0501 17.04 17.7701 15.8C18.1601 15.67 18.59 15.88 18.72 16.27C18.84 16.67 18.63 17.09 18.24 17.22Z" fill="white"/>
</svg>
