<svg width="24" height="24" viewBox="0 0 24 24" fill="none" xmlns="http://www.w3.org/2000/svg">
<path d="M18.0693 8.50867L9.50928 4.22867C3.75928 1.34867 1.39929 3.70867 4.27929 9.45866L5.14929 11.1987C5.39928 11.7087 5.39928 12.2987 5.14929 12.8087L4.27929 14.5386C1.39929 20.2886 3.74928 22.6487 9.50928 19.7687L18.0693 15.4886C21.9093 13.5686 21.9093 10.4286 18.0693 8.50867ZM14.8393 12.7487H9.43929C9.02928 12.7487 8.68929 12.4086 8.68929 11.9987C8.68929 11.5887 9.02928 11.2486 9.43929 11.2486H14.8393C15.2493 11.2486 15.5893 11.5887 15.5893 11.9987C15.5893 12.4086 15.2493 12.7487 14.8393 12.7487Z" fill="white"/>
</svg>
