<svg width="24" height="24" viewBox="0 0 24 24" fill="none" xmlns="http://www.w3.org/2000/svg">
<path d="M16.19 2H7.81C4.17001 2 2 4.17 2 7.81V16.18C2 19.83 4.17001 22 7.81 22H16.1801C19.82 22 21.99 19.83 21.99 16.19V7.81C22.0001 4.17 19.83 2 16.19 2ZM8.47 8.97999L11.47 5.98C11.54 5.91 11.62 5.86 11.71 5.82C11.89 5.74 12.1001 5.74 12.2801 5.82C12.3701 5.86 12.45 5.91 12.5201 5.98L15.5201 8.97999C15.81 9.27 15.81 9.75 15.5201 10.04C15.3701 10.19 15.18 10.26 14.99 10.26C14.8001 10.26 14.61 10.19 14.46 10.04L12.74 8.32V14.51C12.74 14.92 12.4001 15.26 11.99 15.26C11.58 15.26 11.24 14.92 11.24 14.51V8.32L9.52 10.04C9.23 10.33 8.75 10.33 8.46001 10.04C8.17 9.75 8.18 9.27999 8.47 8.97999ZM18.24 17.22C16.23 17.89 14.12 18.23 12 18.23C9.88 18.23 7.77001 17.89 5.76001 17.22C5.37001 17.09 5.16001 16.66 5.29 16.27C5.42 15.88 5.85001 15.66 6.24001 15.8C9.96001 17.04 14.0501 17.04 17.7701 15.8C18.1601 15.67 18.59 15.88 18.72 16.27C18.84 16.67 18.63 17.09 18.24 17.22Z" fill="white"/>
</svg>
