<svg width="24" height="24" viewBox="0 0 24 24" fill="none" xmlns="http://www.w3.org/2000/svg">
<path d="M5.35577 3.79269C5.74806 2.94273 6.59876 2.39844 7.53488 2.39844H16.4637C17.3998 2.39844 18.2505 2.94273 18.6427 3.79269L20.0274 6.79269C20.1075 6.96626 20.1651 7.14252 20.2017 7.3188C19.8804 7.24015 19.5448 7.19844 19.1993 7.19844H4.79928C4.45382 7.19844 4.11809 7.24015 3.79688 7.31881C3.83352 7.14252 3.89105 6.96627 3.97116 6.79269L5.35577 3.79269Z" fill="#0F172A"/>
<path fill-rule="evenodd" clip-rule="evenodd" d="M2.40039 11.4C2.40039 10.0745 3.47491 9 4.80039 9H19.2004C20.5259 9 21.6004 10.0745 21.6004 11.4C21.6004 12.7255 20.5259 13.8 19.2004 13.8H4.80039C3.47491 13.8 2.40039 12.7255 2.40039 11.4ZM18.2886 11.4C18.2886 10.9029 18.6916 10.5 19.1886 10.5H19.2006C19.6977 10.5 20.1006 10.9029 20.1006 11.4V11.412C20.1006 11.9091 19.6977 12.312 19.2006 12.312H19.1886C18.6916 12.312 18.2886 11.9091 18.2886 11.412V11.4ZM15.5886 10.5C15.0916 10.5 14.6886 10.9029 14.6886 11.4V11.412C14.6886 11.9091 15.0916 12.312 15.5886 12.312H15.6006C16.0977 12.312 16.5006 11.9091 16.5006 11.412V11.4C16.5006 10.9029 16.0977 10.5 15.6006 10.5H15.5886Z" fill="#0F172A"/>
<path fill-rule="evenodd" clip-rule="evenodd" d="M2.40039 18.0016C2.40039 16.676 3.47491 15.6016 4.80039 15.6016H19.2004C20.5259 15.6016 21.6004 16.676 21.6004 18.0016C21.6004 19.3271 20.5259 20.4016 19.2004 20.4016H4.80039C3.47491 20.4016 2.40039 19.3271 2.40039 18.0016ZM18.2886 18.0016C18.2886 17.5045 18.6916 17.1016 19.1886 17.1016H19.2006C19.6977 17.1016 20.1006 17.5045 20.1006 18.0016V18.0136C20.1006 18.5106 19.6977 18.9136 19.2006 18.9136H19.1886C18.6916 18.9136 18.2886 18.5106 18.2886 18.0136V18.0016ZM15.5886 17.1016C15.0916 17.1016 14.6886 17.5045 14.6886 18.0016V18.0136C14.6886 18.5106 15.0916 18.9136 15.5886 18.9136H15.6006C16.0977 18.9136 16.5006 18.5106 16.5006 18.0136V18.0016C16.5006 17.5045 16.0977 17.1016 15.6006 17.1016H15.5886Z" fill="#0F172A"/>
</svg>
