<svg width="24" height="24" viewBox="0 0 24 24" fill="none" xmlns="http://www.w3.org/2000/svg">
<path d="M5.55894 4.23835C5.81792 3.15926 6.78294 2.39844 7.89268 2.39844H16.1083C17.2181 2.39844 18.1831 3.15925 18.4421 4.23834L20.8135 14.1193C20.3169 13.9126 19.772 13.7984 19.2005 13.7984H4.80052C4.229 13.7984 3.68414 13.9126 3.1875 14.1193L5.55894 4.23835Z" fill="#0F172A"/>
<path fill-rule="evenodd" clip-rule="evenodd" d="M4.80039 15.6016C3.47491 15.6016 2.40039 16.676 2.40039 18.0016C2.40039 19.3271 3.47491 20.4016 4.80039 20.4016H19.2004C20.5259 20.4016 21.6004 19.3271 21.6004 18.0016C21.6004 16.676 20.5259 15.6016 19.2004 15.6016H4.80039ZM18.2886 18.0016C18.2886 17.5045 18.6916 17.1016 19.1886 17.1016H19.2006C19.6977 17.1016 20.1006 17.5045 20.1006 18.0016V18.0136C20.1006 18.5106 19.6977 18.9136 19.2006 18.9136H19.1886C18.6916 18.9136 18.2886 18.5106 18.2886 18.0136V18.0016ZM15.5886 17.1016C15.0916 17.1016 14.6886 17.5045 14.6886 18.0016V18.0136C14.6886 18.5106 15.0916 18.9136 15.5886 18.9136H15.6006C16.0977 18.9136 16.5006 18.5106 16.5006 18.0136V18.0016C16.5006 17.5045 16.0977 17.1016 15.6006 17.1016H15.5886Z" fill="#0F172A"/>
</svg>
