<svg width="24" height="24" viewBox="0 0 24 24" fill="none" xmlns="http://www.w3.org/2000/svg">
<path d="M18.9401 5.4175L13.7701 2.4275C12.7801 1.8575 11.2301 1.8575 10.2401 2.4275L5.02008 5.4375C2.95008 6.8375 2.83008 7.0475 2.83008 9.2775V14.7076C2.83008 16.9375 2.95008 17.1576 5.06007 18.5776L10.2301 21.5676C10.7301 21.8575 11.3701 21.9976 12.0001 21.9976C12.6301 21.9976 13.2701 21.8575 13.76 21.5676L18.98 18.5575C21.05 17.1576 21.17 16.9476 21.17 14.7175V9.2775C21.17 7.0475 21.05 6.8375 18.9401 5.4175ZM12.0001 15.2476C10.2101 15.2476 8.75007 13.7875 8.75007 11.9975C8.75007 10.2075 10.2101 8.74749 12.0001 8.74749C13.79 8.74749 15.2501 10.2075 15.2501 11.9975C15.2501 13.7875 13.79 15.2476 12.0001 15.2476Z" fill="white"/>
</svg>
