<svg width="24" height="24" viewBox="0 0 24 24" fill="none" xmlns="http://www.w3.org/2000/svg">
<path d="M20.1 9.2175C18.29 9.2175 17.55 7.9375 18.45 6.3675C18.9701 5.45749 18.66 4.2975 17.75 3.77749L16.02 2.78749C15.23 2.3175 14.21 2.59749 13.74 3.38749L13.6301 3.5775C12.7301 5.14749 11.25 5.14749 10.34 3.5775L10.23 3.38749C9.78 2.59749 8.76001 2.3175 7.97 2.78749L6.24001 3.77749C5.33 4.2975 5.02 5.4675 5.54 6.37749C6.45001 7.93749 5.71 9.2175 3.90001 9.2175C2.86 9.2175 2 10.0674 2 11.1174V12.8775C2 13.9174 2.85001 14.7775 3.90001 14.7775C5.71 14.7775 6.45001 16.0575 5.54 17.6275C5.02 18.5374 5.33 19.6975 6.24001 20.2174L7.97 21.2074C8.76001 21.6775 9.78001 21.3975 10.25 20.6074L10.36 20.4175C11.26 18.8475 12.74 18.8475 13.65 20.4175L13.76 20.6074C14.2301 21.3975 15.2501 21.6775 16.04 21.2074L17.7701 20.2174C18.68 19.6975 18.99 18.5275 18.47 17.6275C17.5601 16.0575 18.3 14.7775 20.11 14.7775C21.15 14.7775 22.01 13.9275 22.01 12.8775V11.1174C22 10.0774 21.15 9.2175 20.1 9.2175ZM12 15.2475C10.21 15.2475 8.75 13.7875 8.75 11.9974C8.75 10.2075 10.21 8.74749 12 8.74749C13.79 8.74749 15.2501 10.2075 15.2501 11.9974C15.2501 13.7875 13.79 15.2475 12 15.2475Z" fill="white"/>
</svg>
