<svg width="24" height="24" viewBox="0 0 24 24" fill="none" xmlns="http://www.w3.org/2000/svg">
<path d="M21.2995 7.57968H15.7195C15.3295 7.57968 15.0195 7.26968 15.0195 6.87968C15.0195 6.48968 15.3295 6.17969 15.7195 6.17969H21.2995C21.6895 6.17969 21.9996 6.48968 21.9996 6.87968C21.9996 7.26968 21.6895 7.57968 21.2995 7.57968Z" fill="white"/>
<path d="M6.42001 7.57968H2.70001C2.31001 7.57968 2 7.26968 2 6.87968C2 6.48968 2.31001 6.17969 2.70001 6.17969H6.42001C6.81001 6.17969 7.12 6.48968 7.12 6.87968C7.12 7.26968 6.8 7.57968 6.42001 7.57968Z" fill="white"/>
<path d="M10.1414 10.8297C12.323 10.8297 14.0914 9.06121 14.0914 6.87968C14.0914 4.69815 12.323 2.92969 10.1414 2.92969C7.95988 2.92969 6.19141 4.69815 6.19141 6.87968C6.19141 9.06121 7.95988 10.8297 10.1414 10.8297Z" fill="white"/>
<path d="M21.2989 17.8101H17.5789C17.1889 17.8101 16.8789 17.5001 16.8789 17.1101C16.8789 16.7201 17.1889 16.4102 17.5789 16.4102H21.2989C21.6889 16.4102 21.9989 16.7201 21.9989 17.1101C21.9989 17.5001 21.6889 17.8101 21.2989 17.8101Z" fill="white"/>
<path d="M8.28001 17.8101H2.70001C2.31001 17.8101 2 17.5001 2 17.1101C2 16.7201 2.31001 16.4102 2.70001 16.4102H8.28001C8.67001 16.4102 8.98 16.7201 8.98 17.1101C8.98 17.5001 8.66 17.8101 8.28001 17.8101Z" fill="white"/>
<path d="M13.8602 21.0718C16.0417 21.0718 17.8102 19.3033 17.8102 17.1218C17.8102 14.9403 16.0417 13.1719 13.8602 13.1719C11.6786 13.1719 9.91016 14.9403 9.91016 17.1218C9.91016 19.3033 11.6786 21.0718 13.8602 21.0718Z" fill="white"/>
</svg>
