<svg width="24" height="24" viewBox="0 0 24 24" fill="none" xmlns="http://www.w3.org/2000/svg">
<path d="M11.75 7H11H7C4.24 7 2 9.24 2 12V17C2 19.76 4.24 22 7 22H12C14.76 22 17 19.76 17 17V13V12.25C17 9.35 14.6501 7 11.75 7Z" fill="white"/>
<path d="M21.8791 6.33034C22.4037 8.88991 21.1615 11.2123 19.1583 12.306C18.8508 12.4739 18.4992 12.2344 18.4992 11.8838V11.7503C18.4992 8.31034 15.6891 5.50033 12.2491 5.50033H12.1156C11.7652 5.50033 11.5255 5.14879 11.6935 4.8412C12.7873 2.8381 15.1096 1.59574 17.6691 2.12033C19.7592 2.55034 21.4491 4.24033 21.8791 6.33034Z" fill="white"/>
</svg>
