<svg width="24" height="24" viewBox="0 0 24 24" fill="none" xmlns="http://www.w3.org/2000/svg">
<path d="M13.4302 14.9975H4.40033C2.58034 14.9975 1.42034 13.0475 2.30033 11.4475L4.63034 7.2075L6.81033 3.2375C7.72034 1.5875 10.1003 1.5875 11.0103 3.2375L13.2003 7.2075L14.2503 9.1175L15.5302 11.4475C16.4103 13.0475 15.2503 14.9975 13.4302 14.9975Z" fill="white"/>
<path d="M22.6508 16.003C22.6508 19.5929 19.7408 22.5029 16.1507 22.5029C13.1008 22.5029 10.5508 20.413 9.84075 17.5729C9.77075 17.2729 10.0008 17.0029 10.3108 17.0029H14.0807C15.4708 17.0029 16.7308 16.2829 17.4407 15.0929C18.1408 13.8929 18.1708 12.4529 17.4908 11.2329L16.9907 10.3129C16.8008 9.97289 17.0708 9.56289 17.4508 9.63288C20.4107 10.2329 22.6508 12.853 22.6508 16.003Z" fill="white"/>
</svg>
