<svg width="24" height="24" viewBox="0 0 24 24" fill="none" xmlns="http://www.w3.org/2000/svg">
<path d="M15.6004 5.39844C15.6004 3.74159 16.9436 2.39844 18.6004 2.39844C20.2572 2.39844 21.6004 3.74159 21.6004 5.39844C21.6004 7.05529 20.2572 8.39844 18.6004 8.39844C17.7536 8.39844 16.9887 8.04758 16.4433 7.48331L8.363 11.5234C8.38761 11.6781 8.40039 11.8368 8.40039 11.9984C8.40039 12.1601 8.3876 12.3188 8.36297 12.4735L16.4432 16.5137C16.9887 15.9493 17.7536 15.5984 18.6004 15.5984C20.2572 15.5984 21.6004 16.9416 21.6004 18.5984C21.6004 20.2553 20.2572 21.5984 18.6004 21.5984C16.9436 21.5984 15.6004 20.2553 15.6004 18.5984C15.6004 18.4368 15.6132 18.2782 15.6378 18.1234L7.55756 14.0833C7.01207 14.6476 6.24721 14.9984 5.40039 14.9984C3.74354 14.9984 2.40039 13.6553 2.40039 11.9984C2.40039 10.3416 3.74354 8.99844 5.40039 8.99844C6.24724 8.99844 7.01213 9.34933 7.55762 9.91364L15.6378 5.87355C15.6132 5.7188 15.6004 5.56011 15.6004 5.39844Z" fill="#0F172A"/>
</svg>
