<svg width="24" height="24" viewBox="0 0 24 24" fill="none" xmlns="http://www.w3.org/2000/svg">
<path d="M19.4509 6.94063V9.45062C19.4509 10.1606 18.7309 10.6206 18.061 10.3706C17.221 10.0606 16.291 9.94062 15.3109 10.0406C12.931 10.3006 10.491 12.5906 10.091 14.9606C9.76101 16.9306 10.391 18.7706 11.601 20.0706C12.151 20.6706 11.781 21.6406 10.971 21.7306C10.281 21.8106 9.60101 21.7906 9.22101 21.5106L3.72101 17.4006C3.07101 16.9106 2.54102 15.8506 2.54102 15.0306V6.94063C2.54102 5.81062 3.40101 4.57063 4.45101 4.17062L9.95101 2.11062C10.521 1.90063 11.461 1.90063 12.031 2.11062L17.5309 4.17062C18.591 4.57063 19.4509 5.81062 19.4509 6.94063Z" fill="white"/>
<path d="M16 11.5078C13.5199 11.5078 11.5 13.5278 11.5 16.0078C11.5 18.4878 13.5199 20.5078 16 20.5078C18.48 20.5078 20.5 18.4878 20.5 16.0078C20.5 13.5178 18.48 11.5078 16 11.5078Z" fill="white"/>
<path d="M21 22.0009C20.73 22.0009 20.48 21.8909 20.29 21.7109C20.25 21.6608 20.2 21.6109 20.17 21.5509C20.13 21.5009 20.1 21.4409 20.08 21.3809C20.05 21.3209 20.03 21.2609 20.02 21.2009C20.01 21.1309 20 21.0709 20 21.0008C20 20.8709 20.03 20.7409 20.08 20.6209C20.13 20.4908 20.2 20.3909 20.29 20.2909C20.52 20.0609 20.87 19.9508 21.19 20.0209C21.26 20.0309 21.32 20.0509 21.38 20.0809C21.44 20.1008 21.5 20.1308 21.55 20.1709C21.61 20.2009 21.66 20.2508 21.71 20.2909C21.8 20.3909 21.87 20.4908 21.92 20.6209C21.97 20.7409 22 20.8709 22 21.0008C22 21.2609 21.89 21.5209 21.71 21.7109C21.66 21.7508 21.61 21.7909 21.55 21.8309C21.5 21.8708 21.44 21.9008 21.38 21.9209C21.32 21.9509 21.26 21.9709 21.19 21.9809C21.13 21.9908 21.06 22.0009 21 22.0009Z" fill="white"/>
</svg>
