<svg width="24" height="24" viewBox="0 0 24 24" fill="none" xmlns="http://www.w3.org/2000/svg">
<path d="M19.3588 4.63984L5.82883 18.1699L4.72882 17.3498C4.07882 16.8598 3.54883 15.7999 3.54883 14.9798V6.88984C3.54883 5.75984 4.40882 4.51984 5.45882 4.11984L10.9588 2.05984C11.5288 1.84984 12.4688 1.84984 13.0388 2.05984L18.5389 4.11984C18.8288 4.22984 19.1089 4.40984 19.3588 4.63984Z" fill="white"/>
<path d="M20.449 14.9827C20.449 15.8028 19.919 16.8628 19.2691 17.3527L13.769 21.4627C12.7891 22.1827 11.209 22.1827 10.229 21.4627L8.46901 20.1528C7.97901 19.7928 7.92901 19.0728 8.35901 18.6427L18.739 8.26276C19.369 7.63276 20.449 8.08276 20.449 8.97277V14.9827Z" fill="white"/>
<path d="M21.7708 2.23282C21.4708 1.93281 20.9809 1.93281 20.6809 2.23282L2.23086 20.6928C1.93086 20.9928 1.93086 21.4829 2.23086 21.7829C2.38086 21.9228 2.57086 22.0028 2.77086 22.0028C2.97086 22.0028 3.16086 21.9228 3.31086 21.7728L21.7708 3.31282C22.0809 3.01281 22.0809 2.53282 21.7708 2.23282Z" fill="white"/>
</svg>
