<svg width="24" height="24" viewBox="0 0 24 24" fill="none" xmlns="http://www.w3.org/2000/svg">
<path d="M18.5389 4.11984L13.0388 2.05984C12.4688 1.84984 11.5388 1.84984 10.9688 2.05984L5.46883 4.11984C4.40882 4.51984 3.54883 5.75984 3.54883 6.88984V14.9899C3.54883 15.7999 4.07882 16.8698 4.72882 17.3498L10.2288 21.4598C11.1988 22.1899 12.7888 22.1899 13.7588 21.4598L19.2589 17.3498C19.9088 16.8598 20.4388 15.7999 20.4388 14.9899V6.88984C20.4488 5.75984 19.5889 4.51984 18.5389 4.11984ZM14.6788 13.9699C14.5288 14.1199 14.3389 14.1898 14.1488 14.1898C13.9588 14.1898 13.7689 14.1199 13.6189 13.9699L12.0289 12.3799L10.3888 14.0198C10.2388 14.1698 10.0488 14.2399 9.85882 14.2399C9.66883 14.2399 9.47882 14.1698 9.32882 14.0198C9.03883 13.7299 9.03883 13.2499 9.32882 12.9598L10.9688 11.3198L9.36883 9.71984C9.07882 9.42984 9.07882 8.94984 9.36883 8.65984C9.65882 8.36984 10.1388 8.36984 10.4288 8.65984L12.0188 10.2498L13.5688 8.69984C13.8589 8.40984 14.3389 8.40984 14.6288 8.69984C14.9188 8.98984 14.9188 9.46984 14.6288 9.75984L13.0789 11.3098L14.6689 12.8998C14.9689 13.1998 14.9689 13.6699 14.6788 13.9699Z" fill="white"/>
</svg>
