<svg width="24" height="24" viewBox="0 0 24 24" fill="none" xmlns="http://www.w3.org/2000/svg">
<path fill-rule="evenodd" clip-rule="evenodd" d="M12.4071 2.68555C12.1719 2.49023 11.8289 2.49023 11.5937 2.68555C9.26716 4.61738 6.32259 5.83064 3.10043 5.98487C2.81081 5.99873 2.56351 6.20793 2.52548 6.49539C2.44297 7.11916 2.40039 7.75553 2.40039 8.40185C2.40039 14.597 6.31244 19.8783 11.8009 21.9104C11.9296 21.958 12.0716 21.958 12.2002 21.9104C17.6885 19.8782 21.6004 14.597 21.6004 8.40201C21.6004 7.75563 21.5578 7.11921 21.4752 6.49538C21.4373 6.20793 21.19 5.99873 20.9003 5.98487C17.6782 5.83064 14.7336 4.61738 12.4071 2.68555ZM12.0004 7.20159C12.4974 7.20159 12.9004 7.60454 12.9004 8.10159V12.3016C12.9004 12.7986 12.4974 13.2016 12.0004 13.2016C11.5033 13.2016 11.1004 12.7986 11.1004 12.3016V8.10159C11.1004 7.60454 11.5033 7.20159 12.0004 7.20159ZM12.0004 18.0016C12.6632 18.0016 13.2004 17.4644 13.2004 16.8016C13.2004 16.1388 12.6632 15.6016 12.0004 15.6016C11.3377 15.6016 10.8004 16.1388 10.8004 16.8016C10.8004 17.4644 11.3377 18.0016 12.0004 18.0016Z" fill="#0F172A"/>
</svg>
