<svg width="24" height="24" viewBox="0 0 24 24" fill="none" xmlns="http://www.w3.org/2000/svg">
<path d="M18.5389 4.11984L13.0388 2.05984C12.4688 1.84984 11.5388 1.84984 10.9688 2.05984L5.46883 4.11984C4.40882 4.51984 3.54883 5.75984 3.54883 6.88984V14.9899C3.54883 15.7999 4.07882 16.8698 4.72882 17.3498L10.2288 21.4598C11.1988 22.1899 12.7888 22.1899 13.7588 21.4598L19.2589 17.3498C19.9088 16.8598 20.4388 15.7999 20.4388 14.9899V6.88984C20.4488 5.75984 19.5889 4.51984 18.5389 4.11984ZM15.4789 9.71984L11.1788 14.0198C11.0288 14.1698 10.8388 14.2399 10.6488 14.2399C10.4588 14.2399 10.2688 14.1698 10.1188 14.0198L8.51882 12.3998C8.22883 12.1099 8.22883 11.6298 8.51882 11.3398C8.80882 11.0498 9.28882 11.0498 9.57883 11.3398L10.6588 12.4198L14.4289 8.64984C14.7188 8.35984 15.1988 8.35984 15.4888 8.64984C15.7789 8.93984 15.7789 9.42984 15.4789 9.71984Z" fill="white"/>
</svg>
