<svg width="24" height="24" viewBox="0 0 24 24" fill="none" xmlns="http://www.w3.org/2000/svg">
<path fill-rule="evenodd" clip-rule="evenodd" d="M11.5937 2.68555C11.8289 2.49023 12.1719 2.49023 12.4071 2.68555C14.7336 4.61737 17.6782 5.83063 20.9003 5.98487C21.19 5.99873 21.4373 6.20793 21.4752 6.49538C21.5578 7.11921 21.6004 7.75563 21.6004 8.402C21.6004 14.5969 17.6885 19.8781 12.2002 21.9103C12.0716 21.9579 11.9296 21.9579 11.8009 21.9103C6.31244 19.8782 2.40039 14.5969 2.40039 8.40185C2.40039 7.75553 2.44297 7.11916 2.52548 6.49539C2.56351 6.20793 2.81081 5.99873 3.10043 5.98487C6.32259 5.83064 9.26716 4.61738 11.5937 2.68555ZM16.6283 9.83102C16.9206 9.42903 16.8317 8.86616 16.4297 8.5738C16.0277 8.28145 15.4649 8.37032 15.1725 8.77231L10.992 14.5205L8.73679 12.2653C8.38532 11.9138 7.81546 11.9138 7.46399 12.2653C7.11253 12.6168 7.11253 13.1865 7.46399 13.538L10.464 16.538C10.6501 16.7241 10.9084 16.8195 11.1708 16.7989C11.4332 16.7783 11.6734 16.6439 11.8283 16.431L16.6283 9.83102Z" fill="#0F172A"/>
</svg>
