<svg width="24" height="24" viewBox="0 0 24 24" fill="none" xmlns="http://www.w3.org/2000/svg">
<path d="M21.6297 14.6608L21.2197 16.5208C20.5096 19.7207 17.9997 22.0007 14.3797 22.0007H9.61973C5.99974 22.0007 3.48974 19.7207 2.77973 16.5208L2.36974 14.6608C2.16974 13.7507 2.70974 12.7208 3.57974 12.3707L4.99973 11.8008L10.5097 9.59079C10.9897 9.40078 11.4997 9.30078 11.9997 9.30078C12.4996 9.30078 13.0096 9.40078 13.4896 9.59079L18.9997 11.8008L20.4196 12.3707C21.2896 12.7208 21.8296 13.7507 21.6297 14.6608Z" fill="white"/>
<path d="M19.0001 8V9.44C19.0001 9.78999 18.6401 10.04 18.3101 9.9L14.04 8.19C12.7301 7.68 11.27 7.68 9.95 8.2L5.69 9.91C5.36 10.05 5 9.8 5 9.45V8C5 6.35 6.35 5 8 5H16.0001C17.6501 5 19.0001 6.35 19.0001 8Z" fill="white"/>
<path d="M14.5001 5H9.5V3C9.5 2.45 9.95 2 10.5 2H13.5C14.0501 2 14.5001 2.45 14.5001 3V5Z" fill="white"/>
</svg>
