<svg width="24" height="24" viewBox="0 0 24 24" fill="none" xmlns="http://www.w3.org/2000/svg">
<path d="M1.19922 2.09922C1.19922 1.60217 1.60217 1.19922 2.09922 1.19922H4.05337C5.10229 1.19922 5.99035 1.97319 6.13368 3.01227L6.21468 3.59951C11.7102 3.61437 17.0729 4.19768 22.247 5.29405C22.7266 5.39569 23.0367 5.86257 22.9443 6.3441C22.4566 8.88579 21.8053 11.3694 21.0016 13.7835C20.8792 14.1512 20.5353 14.3992 20.1477 14.3992H7.19922C7.06202 14.3992 6.92743 14.4083 6.79593 14.426C5.74176 14.5672 4.86032 15.2576 4.44877 16.1992H20.6992C21.1963 16.1992 21.5992 16.6022 21.5992 17.0992C21.5992 17.5963 21.1963 17.9992 20.6992 17.9992H3.31059C3.06003 17.9992 2.82081 17.8948 2.6505 17.711C2.48018 17.5273 2.39418 17.2808 2.41319 17.0309C2.56201 15.0746 3.88153 13.4475 5.67317 12.8471L4.35056 3.25823C4.33009 3.10979 4.20321 2.99922 4.05337 2.99922H2.09922C1.60217 2.99922 1.19922 2.59627 1.19922 2.09922Z" fill="#0F172A"/>
<path d="M7.19961 20.9992C7.19961 21.9933 6.39373 22.7992 5.39961 22.7992C4.40549 22.7992 3.59961 21.9933 3.59961 20.9992C3.59961 20.0051 4.40549 19.1992 5.39961 19.1992C6.39373 19.1992 7.19961 20.0051 7.19961 20.9992Z" fill="#0F172A"/>
<path d="M18.6008 22.7992C19.5949 22.7992 20.4008 21.9933 20.4008 20.9992C20.4008 20.0051 19.5949 19.1992 18.6008 19.1992C17.6067 19.1992 16.8008 20.0051 16.8008 20.9992C16.8008 21.9933 17.6067 22.7992 18.6008 22.7992Z" fill="#0F172A"/>
</svg>
