<svg width="24" height="24" viewBox="0 0 24 24" fill="none" xmlns="http://www.w3.org/2000/svg">
<path d="M7.80023 22.1522C5.15023 22.1522 2.99023 20.0022 2.99023 17.3421V14.5022C2.99023 13.8321 3.65023 13.3821 4.28023 13.6022C4.54023 13.6922 4.80023 13.7522 5.07023 13.7922C5.19023 13.8122 5.31023 13.8321 5.43023 13.8321C5.58023 13.8522 5.74023 13.8621 5.89023 13.8621C7.00023 13.8621 8.10023 13.4522 8.97023 12.7422C9.80023 13.4522 10.8702 13.8621 12.0102 13.8621C13.1502 13.8621 14.2102 13.4721 15.0402 12.7521C15.9002 13.4522 16.9802 13.8621 18.0802 13.8621C18.2502 13.8621 18.4302 13.8522 18.5902 13.8321C18.7102 13.8222 18.8102 13.8122 18.9202 13.7922C19.2202 13.7522 19.4902 13.6722 19.7602 13.5822C20.3802 13.3722 21.0302 13.8321 21.0302 14.4822V17.3421C21.0302 19.9922 18.8802 22.1522 16.2202 22.1522H7.80023Z" fill="white"/>
<path d="M21.9799 8.59157L21.6999 5.93156C21.2998 3.03156 19.9798 1.85156 17.1598 1.85156H14.8999H13.4799H10.5599H9.12985H6.81985C3.99985 1.85156 2.68985 3.03156 2.27985 5.96156L2.01985 8.60156C1.91985 9.63156 2.19985 10.6316 2.80985 11.4116C3.53985 12.3616 4.65985 12.9016 5.90985 12.9016C7.11985 12.9016 8.27985 12.2916 9.00985 11.3216C9.65985 12.2916 10.7799 12.9016 12.0199 12.9016C13.2598 12.9016 14.3499 12.3216 15.0099 11.3616C15.7498 12.3115 16.8898 12.9016 18.0898 12.9016C19.3699 12.9016 20.5198 12.3316 21.2398 11.3316C21.8199 10.5615 22.0798 9.59156 21.9799 8.59157ZM13.4998 7.73156H12.7498V8.51156C12.7498 8.93156 12.4099 9.26156 11.9998 9.26156C11.5899 9.26156 11.2499 8.93156 11.2499 8.51156V7.73156H10.4999C10.0899 7.73156 9.74985 7.40156 9.74985 6.98156C9.74985 6.57156 10.0899 6.23156 10.4999 6.23156H11.2499V5.52156C11.2499 5.11157 11.5899 4.77156 11.9998 4.77156C12.4099 4.77156 12.7498 5.11157 12.7498 5.52156V6.23156H13.4998C13.9099 6.23156 14.2498 6.57156 14.2498 6.98156C14.2498 7.40156 13.9099 7.73156 13.4998 7.73156Z" fill="white"/>
</svg>
