<svg width="24" height="24" viewBox="0 0 24 24" fill="none" xmlns="http://www.w3.org/2000/svg">
<path d="M22.3596 8.27L22.0696 5.5C21.6496 2.48 20.2798 1.25 17.3497 1.25H14.9896H13.5097H10.4697H8.98964H6.58966C3.64966 1.25 2.28965 2.48 1.85965 5.53L1.58965 8.28C1.48964 9.35 1.77965 10.39 2.40965 11.2C3.16964 12.19 4.33964 12.75 5.63965 12.75C6.89965 12.75 8.10965 12.12 8.86964 11.11C9.54965 12.12 10.7097 12.75 11.9997 12.75C13.2896 12.75 14.4196 12.15 15.1096 11.15C15.8796 12.14 17.0696 12.75 18.3096 12.75C19.6396 12.75 20.8396 12.16 21.5896 11.12C22.1896 10.32 22.4596 9.31 22.3596 8.27Z" fill="white"/>
<path d="M11.3511 16.6602C10.0811 16.7903 9.12109 17.8703 9.12109 19.1502V21.8903C9.12109 22.1603 9.34109 22.3803 9.61109 22.3803H14.3811C14.6511 22.3803 14.871 22.1603 14.871 21.8903V19.5003C14.8811 17.4102 13.6511 16.4202 11.3511 16.6602Z" fill="white"/>
<path d="M21.3689 14.402V17.382C21.3689 20.142 19.1289 22.382 16.3689 22.382C16.0989 22.382 15.8789 22.162 15.8789 21.892V19.502C15.8789 18.222 15.4889 17.222 14.729 16.542C14.0589 15.932 13.1489 15.632 12.0189 15.632C11.7689 15.632 11.5189 15.642 11.2489 15.672C9.46891 15.852 8.11891 17.352 8.11891 19.152V21.892C8.11891 22.162 7.8989 22.382 7.6289 22.382C4.8689 22.382 2.62891 20.142 2.62891 17.382V14.422C2.62891 13.722 3.31891 13.252 3.9689 13.482C4.2389 13.572 4.5089 13.642 4.78891 13.682C4.90891 13.702 5.0389 13.722 5.1589 13.722C5.3189 13.742 5.47891 13.752 5.6389 13.752C6.79891 13.752 7.93891 13.322 8.83891 12.582C9.6989 13.322 10.8189 13.752 11.9989 13.752C13.1889 13.752 14.2889 13.342 15.149 12.602C16.049 13.332 17.1689 13.752 18.3089 13.752C18.4889 13.752 18.6689 13.742 18.839 13.722C18.959 13.712 19.0689 13.702 19.1789 13.682C19.4889 13.642 19.769 13.552 20.0489 13.462C20.699 13.242 21.3689 13.722 21.3689 14.402Z" fill="white"/>
</svg>
