<svg width="24" height="24" viewBox="0 0 24 24" fill="none" xmlns="http://www.w3.org/2000/svg">
<path fill-rule="evenodd" clip-rule="evenodd" d="M7.20078 5.99922V7.19922H5.60123C4.51194 7.19922 3.60348 8.0321 3.50913 9.1173L2.51782 20.5173C2.41113 21.7443 3.37834 22.7992 4.60992 22.7992H19.3922C20.6237 22.7992 21.5909 21.7443 21.4843 20.5173L20.4929 9.1173C20.3986 8.0321 19.4901 7.19922 18.4009 7.19922H16.8008V5.99922C16.8008 3.34825 14.6517 1.19922 12.0008 1.19922C9.34981 1.19922 7.20078 3.34825 7.20078 5.99922ZM12.0008 2.99922C10.3439 2.99922 9.00078 4.34237 9.00078 5.99922V7.19922H15.0008V5.99922C15.0008 4.34237 13.6576 2.99922 12.0008 2.99922ZM9.00078 11.9992C9.00078 13.6561 10.3439 14.9992 12.0008 14.9992C13.6576 14.9992 15.0008 13.6561 15.0008 11.9992V10.4992C15.0008 10.0022 15.4037 9.59922 15.9008 9.59922C16.3978 9.59922 16.8008 10.0022 16.8008 10.4992V11.9992C16.8008 14.6501 14.6517 16.7992 12.0008 16.7992C9.34981 16.7992 7.20078 14.6501 7.20078 11.9992V10.4992C7.20078 10.0022 7.60373 9.59922 8.10078 9.59922C8.59783 9.59922 9.00078 10.0022 9.00078 10.4992V11.9992Z" fill="#0F172A"/>
</svg>
