<svg width="24" height="24" viewBox="0 0 24 24" fill="none" xmlns="http://www.w3.org/2000/svg">
<path d="M21.7507 17.9809C21.7507 17.9608 21.7407 17.9409 21.7407 17.9209C21.7308 17.8408 21.7207 17.7609 21.6907 17.6908C21.6507 17.6008 21.6007 17.5309 21.5407 17.4609C21.5407 17.4609 21.5407 17.4508 21.5307 17.4508C21.4608 17.3809 21.3807 17.3308 21.2907 17.2909C21.2007 17.2509 21.1008 17.2309 21.0007 17.2309L16.3308 17.2509C16.3308 17.2509 16.3308 17.2509 16.3207 17.2509C15.7207 17.2509 15.1407 16.9708 14.7807 16.4908L13.5607 14.9209C13.3107 14.5909 12.8407 14.5309 12.5107 14.7909C12.1807 15.0508 12.1207 15.5109 12.3807 15.8409L13.6008 17.4109C14.2507 18.2509 15.2707 18.7509 16.3308 18.7509H16.3407L19.1907 18.7408L18.4807 19.4509C18.1908 19.7409 18.1908 20.2209 18.4807 20.5108C18.6307 20.6608 18.8208 20.7309 19.0107 20.7309C19.2007 20.7309 19.3908 20.6608 19.5408 20.5108L21.5407 18.5109C21.6108 18.4408 21.6607 18.3609 21.7008 18.2709C21.7308 18.1708 21.7507 18.0709 21.7507 17.9809Z" fill="white"/>
<path d="M8.42 6.68782C7.77 5.78782 6.73 5.25781 5.62 5.25781C5.61 5.25781 5.61 5.25781 5.6 5.25781L3 5.26782C2.59 5.26782 2.25 5.60782 2.25 6.01782C2.25 6.42781 2.59 6.76782 3 6.76782L5.61 6.75781H5.62C6.25 6.75781 6.84 7.05781 7.2 7.56781L8.28 9.06781C8.43 9.26782 8.66 9.37782 8.89 9.37782C9.04 9.37782 9.2 9.32782 9.33 9.23782C9.67 8.98782 9.74 8.5178 9.5 8.1878L8.42 6.68782Z" fill="white"/>
<path d="M21.74 6.07874C21.74 6.05875 21.75 6.03875 21.75 6.02875C21.75 5.92876 21.73 5.82875 21.69 5.73875C21.65 5.64875 21.6 5.56874 21.53 5.49875L19.53 3.49874C19.24 3.20875 18.76 3.20875 18.47 3.49874C18.18 3.78875 18.18 4.26875 18.47 4.55875L19.18 5.26874L16.45 5.25875C16.44 5.25875 16.44 5.25875 16.43 5.25875C15.28 5.25875 14.2 5.82875 13.56 6.79876L7.17 16.3788C6.81 16.9188 6.2 17.2488 5.55 17.2488H5.54L3 17.2288C2.59 17.2288 2.25 17.5588 2.25 17.9788C2.25 18.3888 2.58 18.7288 3 18.7288L5.55 18.7387C5.56 18.7387 5.56 18.7387 5.57 18.7387C6.73 18.7387 7.8 18.1687 8.44 17.1988L14.83 7.61875C15.19 7.07875 15.8 6.74875 16.45 6.74875H16.46L21 6.76874C21.1 6.76874 21.19 6.74875 21.29 6.70874C21.38 6.66875 21.46 6.61876 21.53 6.54875C21.53 6.54875 21.53 6.53875 21.54 6.53875C21.6 6.46874 21.66 6.39875 21.69 6.30875C21.72 6.23875 21.73 6.15875 21.74 6.07874Z" fill="white"/>
</svg>
