<svg width="24" height="24" viewBox="0 0 24 24" fill="none" xmlns="http://www.w3.org/2000/svg">
<path d="M12 22.75C6.07 22.75 1.25 17.93 1.25 12C1.25 10.51 1.55001 9.08 2.14002 7.72C2.31001 7.34 2.75 7.17 3.13 7.33C3.51001 7.5 3.68002 7.94001 3.52003 8.32C3.02002 9.48001 2.76001 10.72 2.76001 12C2.76001 17.1 6.91002 21.25 12.0101 21.25C17.1101 21.25 21.26 17.1 21.26 12C21.26 6.9 17.1101 2.75 12.0101 2.75C10.72 2.75 9.45998 3.01 8.28998 3.53C7.91998 3.7 7.47 3.52999 7.29999 3.14998C7.12999 2.76999 7.29999 2.33 7.68 2.16C9.04999 1.56 10.5 1.25 12.0101 1.25C17.94 1.25 22.76 6.07 22.76 12C22.76 17.93 17.93 22.75 12 22.75Z" fill="white"/>
<path d="M16 15.25V12C16 9.65 14.1 7.75 11.75 7.75C9.4 7.75 7.5 9.65 7.5 12C7.5 14.35 9.4 16.25 11.75 16.25H15C15.55 16.25 16 15.8 16 15.25Z" fill="white"/>
<path d="M5.00109 6.8772C6.03939 6.8772 6.8811 6.03548 6.8811 4.99719C6.8811 3.95889 6.03939 3.11719 5.00109 3.11719C3.9628 3.11719 3.12109 3.95889 3.12109 4.99719C3.12109 6.03548 3.9628 6.8772 5.00109 6.8772Z" fill="white"/>
</svg>
