<svg width="24" height="24" viewBox="0 0 24 24" fill="none" xmlns="http://www.w3.org/2000/svg">
<path d="M20.9493 4.13C20.6593 3.71 20.2893 3.34 19.8693 3.05C18.9193 2.36 17.6793 2 16.1893 2H7.80929C4.3693 2 2.2393 3.94 2.0293 7.22H21.9793C21.8994 5.99 21.5493 4.95 20.9493 4.13Z" fill="white"/>
<path d="M2 16.1887C2 17.6788 2.36 18.9187 3.05 19.8688C3.34 20.2888 3.71 20.6587 4.13 20.9488C5.08 21.6388 6.32 21.9988 7.81 21.9988H16.19C19.83 21.9988 22.0001 19.8288 22.0001 16.1887V8.71875H2V16.1887ZM8.91001 14.4388L11.47 11.8788C11.76 11.5888 12.24 11.5888 12.53 11.8788L15.09 14.4388C15.24 14.5888 15.3101 14.7787 15.3101 14.9688C15.3101 15.1588 15.24 15.3487 15.09 15.4987C14.8001 15.7888 14.3201 15.7888 14.03 15.4987L12 13.4788L9.97 15.4987C9.68 15.7888 9.2 15.7888 8.91001 15.4987C8.62 15.2088 8.62 14.7388 8.91001 14.4388Z" fill="white"/>
</svg>
