<svg width="24" height="24" viewBox="0 0 24 24" fill="none" xmlns="http://www.w3.org/2000/svg">
<path d="M19.6361 4.36516C19.2846 4.0137 18.7147 4.0137 18.3632 4.36516C18.0117 4.71664 18.0117 5.28649 18.3632 5.63796C21.8779 9.15267 21.8779 14.8512 18.3632 18.3659C18.0117 18.7173 18.0117 19.2872 18.3632 19.6387C18.7147 19.9902 19.2846 19.9902 19.6361 19.6387C23.8537 15.4211 23.8537 8.58283 19.6361 4.36516Z" fill="#0F172A"/>
<path d="M5.63526 5.63796C5.98673 5.28649 5.98673 4.71664 5.63526 4.36516C5.28379 4.0137 4.71393 4.0137 4.36247 4.36516C0.144803 8.58283 0.144803 15.4211 4.36247 19.6387C4.71393 19.9902 5.28379 19.9902 5.63526 19.6387C5.98673 19.2872 5.98673 18.7173 5.63526 18.3659C2.12054 14.8512 2.12054 9.15267 5.63526 5.63796Z" fill="#0F172A"/>
<path d="M14.9706 7.75579C15.3221 7.40432 15.8919 7.40432 16.2434 7.75579C18.5866 10.0989 18.5866 13.8979 16.2434 16.2411C15.8919 16.5925 15.3221 16.5925 14.9706 16.2411C14.6192 15.8897 14.6192 15.3198 14.9706 14.9683C16.6108 13.3281 16.6108 10.6688 14.9706 9.02859C14.6192 8.67711 14.6192 8.10727 14.9706 7.75579Z" fill="#0F172A"/>
<path d="M9.03016 7.75579C9.38163 8.10727 9.38163 8.67711 9.03016 9.02859C7.38995 10.6688 7.38995 13.3281 9.03016 14.9683C9.38163 15.3198 9.38163 15.8897 9.03016 16.2411C8.67868 16.5925 8.10884 16.5925 7.75737 16.2411C5.41421 13.8979 5.41421 10.0989 7.75737 7.75579C8.10884 7.40432 8.67868 7.40432 9.03016 7.75579Z" fill="#0F172A"/>
<path d="M13.2008 12.0008C13.2008 12.6635 12.6635 13.2008 12.0008 13.2008C11.338 13.2008 10.8008 12.6635 10.8008 12.0008C10.8008 11.338 11.338 10.8008 12.0008 10.8008C12.6635 10.8008 13.2008 11.338 13.2008 12.0008Z" fill="#0F172A"/>
</svg>
