<svg width="24" height="24" viewBox="0 0 24 24" fill="none" xmlns="http://www.w3.org/2000/svg">
<path d="M2.66399 2.66204C3.01546 2.31057 3.58532 2.31057 3.93678 2.66204L12.0755 10.8008C12.6784 10.838 13.1608 11.3204 13.1981 11.9233L21.3367 20.0621C21.6882 20.4136 21.6882 20.9833 21.3367 21.3348C20.9853 21.6863 20.4155 21.6863 20.064 21.3348L11.9253 13.1962C11.3224 13.1588 10.8399 12.6764 10.8027 12.0736L2.66399 3.93483C2.31252 3.58336 2.31252 3.01351 2.66399 2.66204Z" fill="#0F172A"/>
<path d="M4.36247 19.6355C0.804041 16.077 0.247844 10.6533 2.69388 6.51172L4.01742 7.83526C2.24642 11.2281 2.7857 15.5131 5.63526 18.3626C5.98673 18.7141 5.98673 19.284 5.63526 19.6355C5.28379 19.987 4.71393 19.987 4.36247 19.6355Z" fill="#0F172A"/>
<path d="M7.75736 16.2444C6.10093 14.588 5.61547 12.2039 6.30099 10.1211L7.81586 11.636C7.71216 12.8292 8.11693 14.0584 9.03016 14.9716C9.38162 15.3231 9.38162 15.893 9.03016 16.2444C8.67868 16.5958 8.10883 16.5958 7.75736 16.2444Z" fill="#0F172A"/>
<path d="M19.6361 4.36516C23.1944 7.92358 23.7506 13.3473 21.3047 17.4889L19.9811 16.1653C21.752 12.7724 21.2127 8.48751 18.3632 5.63796C18.0117 5.28649 18.0117 4.71664 18.3632 4.36516C18.7147 4.0137 19.2846 4.0137 19.6361 4.36516Z" fill="#0F172A"/>
<path d="M16.2434 7.7558C17.8998 9.41222 18.3852 11.7962 17.6998 13.879L16.1849 12.3642C16.2886 11.1709 15.8838 9.9418 14.9706 9.02859C14.6192 8.67711 14.6192 8.10727 14.9706 7.7558C15.3221 7.40432 15.8919 7.40432 16.2434 7.7558Z" fill="#0F172A"/>
</svg>
