<svg width="24" height="24" viewBox="0 0 24 24" fill="none" xmlns="http://www.w3.org/2000/svg">
<path d="M16.0001 12.6918V18.0818C16.0001 20.4218 14.4401 21.9719 12.11 21.9719H5.89C3.56 21.9719 2 20.4218 2 18.0818V10.3119C2 7.97188 3.56 6.42188 5.89 6.42188H9.72001C10.75 6.42188 11.74 6.83188 12.47 7.56187L14.8601 9.94188C15.59 10.6719 16.0001 11.6619 16.0001 12.6918Z" fill="white"/>
<path d="M21.9995 8.24876V13.6387C21.9995 15.9688 20.4395 17.5288 18.1095 17.5288H16.9995V12.6888C16.9995 11.3988 16.4795 10.1388 15.5695 9.22875L13.1795 6.84875C12.2695 5.93876 11.0095 5.41876 9.71952 5.41876H8.01953C8.19953 3.33875 9.70953 1.96875 11.8895 1.96875H15.7195C16.7495 1.96875 17.7395 2.37875 18.4695 3.10875L20.8595 5.49875C21.5895 6.22876 21.9995 7.21876 21.9995 8.24876Z" fill="white"/>
</svg>
