<svg width="24" height="24" viewBox="0 0 24 24" fill="none" xmlns="http://www.w3.org/2000/svg">
<path d="M21.969 5.5V9.5C21.969 11.2615 20.6695 12.7232 18.9675 12.9649C18.6942 13.0038 18.4689 12.7762 18.4689 12.5V12.25C18.4689 8.53001 15.449 5.5 11.719 5.5H11.469C11.1929 5.5 10.9653 5.27486 11.0044 5.0015C11.2471 3.30678 12.7082 2 14.469 2H18.4689C20.409 2 21.969 3.57 21.969 5.5Z" fill="white"/>
<path d="M11.7207 7H10.9707H6.97071C4.21071 7 1.9707 9.24 1.9707 12V17C1.9707 19.76 4.21071 22 6.97071 22H11.9707C14.7307 22 16.9707 19.76 16.9707 17V13V12.25C16.9707 9.35 14.6206 7 11.7207 7Z" fill="white"/>
</svg>
