<svg width="24" height="24" viewBox="0 0 24 24" fill="none" xmlns="http://www.w3.org/2000/svg">
<path d="M14.5405 1.87891C13.3105 1.87891 12.3105 2.87888 12.3105 4.10888V8.74889C12.3105 9.97889 13.3105 10.9789 14.5405 10.9789C15.7705 10.9789 16.7706 9.97889 16.7706 8.74889V4.10888C16.7706 2.88889 15.7705 1.87891 14.5405 1.87891Z" fill="white"/>
<path d="M20.1803 7.10938C19.1102 7.10938 18.2402 7.97938 18.2402 9.04938V10.6194C18.2402 10.8294 18.4103 10.9994 18.6203 10.9994H20.1902C21.2603 10.9994 22.1303 10.1294 22.1303 9.05939C22.1303 7.98938 21.2502 7.10938 20.1803 7.10938Z" fill="white"/>
<path d="M8.50086 6.98828H3.86086C2.63086 6.98828 1.63086 7.9883 1.63086 9.2183C1.63086 10.4483 2.63086 11.4483 3.86086 11.4483H8.50086C9.73086 11.4483 10.7309 10.4483 10.7309 9.2183C10.7309 7.9883 9.73086 6.98828 8.50086 6.98828Z" fill="white"/>
<path d="M8.78959 1.61719C7.71958 1.61719 6.84961 2.48719 6.84961 3.55718C6.84961 4.62718 7.71958 5.4972 8.78959 5.4972H10.3596C10.5696 5.4972 10.7396 5.32718 10.7396 5.11718V3.54717C10.7296 2.49717 9.85959 1.61719 8.78959 1.61719Z" fill="white"/>
<path d="M9.4292 13.0312C8.1992 13.0312 7.19922 14.0312 7.19922 15.2612V19.9013C7.19922 21.1312 8.1992 22.1312 9.4292 22.1312C10.6592 22.1312 11.6592 21.1312 11.6592 19.9013V15.2612C11.6592 14.0312 10.6592 13.0312 9.4292 13.0312Z" fill="white"/>
<path d="M5.3596 13.0312H3.78959C2.7196 13.0312 1.84961 13.9013 1.84961 14.9712C1.84961 16.0412 2.7196 16.9112 3.78959 16.9112C4.85961 16.9112 5.72961 16.0412 5.72961 14.9712V13.4012C5.72961 13.2012 5.5596 13.0312 5.3596 13.0312Z" fill="white"/>
<path d="M20.1102 12.5703H15.4702C14.2402 12.5703 13.2402 13.5703 13.2402 14.8003C13.2402 16.0303 14.2402 17.0302 15.4702 17.0302H20.1102C21.3402 17.0302 22.3402 16.0303 22.3402 14.8003C22.3402 13.5703 21.3402 12.5703 20.1102 12.5703Z" fill="white"/>
<path d="M15.1805 18.4688H13.6105C13.4005 18.4688 13.2305 18.6388 13.2305 18.8488V20.4187C13.2305 21.4888 14.1005 22.3588 15.1705 22.3588C16.2404 22.3588 17.1104 21.4888 17.1104 20.4187C17.1205 19.3387 16.2505 18.4688 15.1805 18.4688Z" fill="white"/>
</svg>
