<svg width="24" height="24" viewBox="0 0 24 24" fill="none" xmlns="http://www.w3.org/2000/svg">
<path d="M19.53 5.53L5.53 19.53C5.51 19.55 5.5 19.56 5.48 19.57C5.10001 19.25 4.75 18.9 4.43 18.52C2.91001 16.77 2 14.49 2 12C2 6.48 6.48001 2 12 2C14.49 2 16.77 2.91 18.5201 4.43C18.9 4.75 19.25 5.1 19.5701 5.48C19.56 5.5 19.55 5.51 19.53 5.53Z" fill="white"/>
<path d="M21.999 12.0008C21.999 17.4908 17.4889 22.0007 11.9989 22.0007C10.4989 22.0007 9.07888 21.6707 7.79889 21.0707C7.17888 20.7808 7.05888 19.9508 7.53888 19.4608L19.4589 7.54084C19.9389 7.06084 20.7789 7.18084 21.069 7.80084C21.669 9.07084 21.999 10.5008 21.999 12.0008Z" fill="white"/>
<path d="M21.7708 2.23282C21.4708 1.93281 20.9809 1.93281 20.6809 2.23282L2.23086 20.6928C1.93086 20.9928 1.93086 21.4829 2.23086 21.7829C2.38086 21.9228 2.57086 22.0028 2.77086 22.0028C2.97086 22.0028 3.16086 21.9228 3.31086 21.7728L21.7708 3.31282C22.0809 3.01281 22.0809 2.53282 21.7708 2.23282Z" fill="white"/>
</svg>
