<svg width="24" height="24" viewBox="0 0 24 24" fill="none" xmlns="http://www.w3.org/2000/svg">
<path d="M18.9386 3.5H5.05859C4.64859 3.5 4.30859 3.16 4.30859 2.75C4.30859 2.34 4.64859 2 5.05859 2H18.9386C19.3486 2 19.6886 2.34 19.6886 2.75C19.6886 3.16 19.3486 3.5 18.9386 3.5Z" fill="white"/>
<path d="M18.9386 22H5.05859C4.64859 22 4.30859 21.66 4.30859 21.25C4.30859 20.8401 4.64859 20.5 5.05859 20.5H18.9386C19.3486 20.5 19.6886 20.8401 19.6886 21.25C19.6886 21.66 19.3486 22 18.9386 22Z" fill="white"/>
<path d="M2.75 8V16C2.75 17.66 4.09 19 5.75 19H18.2501C19.91 19 21.2501 17.66 21.2501 16V8C21.2501 6.34 19.91 5 18.2501 5H5.75C4.09 5 2.75 6.34 2.75 8Z" fill="white"/>
</svg>
