<svg width="24" height="24" viewBox="0 0 24 24" fill="none" xmlns="http://www.w3.org/2000/svg">
<path d="M3.5 5.0625V18.9425C3.5 19.3524 3.16 19.6925 2.75 19.6925C2.34001 19.6925 2 19.3524 2 18.9425V5.0625C2 4.6525 2.34001 4.3125 2.75 4.3125C3.16 4.3125 3.5 4.6525 3.5 5.0625Z" fill="white"/>
<path d="M22 5.0625V18.9425C22 19.3524 21.66 19.6925 21.25 19.6925C20.84 19.6925 20.5 19.3524 20.5 18.9425V5.0625C20.5 4.6525 20.84 4.3125 21.25 4.3125C21.66 4.3125 22 4.6525 22 5.0625Z" fill="white"/>
<path d="M8 21.25H16.0001C17.66 21.25 19.0001 19.91 19.0001 18.25V5.75C19.0001 4.09 17.66 2.75 16.0001 2.75H8C6.34 2.75 5 4.09 5 5.75V18.25C5 19.91 6.34 21.25 8 21.25Z" fill="white"/>
</svg>
