<svg width="24" height="24" viewBox="0 0 24 24" fill="none" xmlns="http://www.w3.org/2000/svg">
<path d="M22.0001 15V9C22.0001 7.34 20.66 6 19.0001 6H5C3.34 6 2 7.34 2 9V15C2 16.66 3.34 18 5 18H19.0001C20.66 18 22.0001 16.66 22.0001 15Z" fill="white"/>
<path d="M5.92924 19.5H18.0692C18.3892 19.5 18.6193 19.79 18.5593 20.1C18.2893 21.58 17.4193 22 15.3292 22H8.66924C6.56924 22 5.70923 21.58 5.43923 20.1C5.37923 19.79 5.60924 19.5 5.92924 19.5Z" fill="white"/>
<path d="M8.66924 2H15.3292C17.4292 2 18.2893 2.42 18.5593 3.9C18.6193 4.21 18.3793 4.5 18.0692 4.5H5.92924C5.60924 4.5 5.37923 4.21 5.43923 3.9C5.70923 2.42 6.56924 2 8.66924 2Z" fill="white"/>
</svg>
