<svg width="24" height="24" viewBox="0 0 24 24" fill="none" xmlns="http://www.w3.org/2000/svg">
<path d="M18 16.0078C18.5501 16.0078 19.0001 16.4578 19.0001 17.0079V17.9979C19.0001 20.1979 17.5001 21.9979 15 21.9979H9.00001C6.5 21.9979 5 20.1979 5 17.9979V17.0079C5 16.4578 5.45 16.0078 6.00001 16.0078H18Z" fill="white"/>
<path d="M19.0001 6V13.5C19.0001 14.05 18.5501 14.5 18 14.5H6.00001C5.45 14.5 5 14.05 5 13.5V6C5 3.8 6.5 2 9.00001 2H15C17.5001 2 19.0001 3.8 19.0001 6Z" fill="white"/>
<path d="M3 20.75C2.59 20.75 2.25 20.41 2.25 20V4C2.25 3.59 2.59 3.25 3 3.25C3.41 3.25 3.75 3.59 3.75 4V20C3.75 20.41 3.41 20.75 3 20.75Z" fill="white"/>
<path d="M21 20.75C20.59 20.75 20.25 20.41 20.25 20V4C20.25 3.59 20.59 3.25 21 3.25C21.41 3.25 21.75 3.59 21.75 4V20C21.75 20.41 21.41 20.75 21 20.75Z" fill="white"/>
</svg>
