<svg width="24" height="24" viewBox="0 0 24 24" fill="none" xmlns="http://www.w3.org/2000/svg">
<path d="M9 22H15C16.66 22 18 20.66 18 19V5C18 3.34 16.66 2 15 2H9C7.34 2 6 3.34 6 5V19C6 20.66 7.34 22 9 22Z" fill="white"/>
<path d="M4.50001 5.92923V18.0692C4.50001 18.3892 4.21 18.6192 3.90001 18.5592C2.42 18.2892 2 17.4292 2 15.3292V8.66924C2 6.56924 2.42 5.70923 3.90001 5.43923C4.21 5.37923 4.50001 5.60924 4.50001 5.92923Z" fill="white"/>
<path d="M22 8.66924V15.3292C22 17.4292 21.58 18.2892 20.1 18.5592C19.79 18.6192 19.5 18.3792 19.5 18.0692V5.92923C19.5 5.60924 19.79 5.37923 20.1 5.43923C21.58 5.70923 22 6.56924 22 8.66924Z" fill="white"/>
</svg>
