<svg width="24" height="24" viewBox="0 0 24 24" fill="none" xmlns="http://www.w3.org/2000/svg">
<path d="M20.8593 8.55736L13.9293 3.01735C12.8594 2.15735 11.1293 2.15735 10.0693 3.00736L3.13929 8.55736C2.35929 9.17735 1.85929 10.4874 2.02929 11.4674L3.35929 19.4273C3.59929 20.8473 4.95929 21.9974 6.39929 21.9974H17.5994C19.0293 21.9974 20.3993 20.8373 20.6393 19.4273L21.9693 11.4674C22.1294 10.4874 21.6293 9.17735 20.8593 8.55736ZM9.37929 17.3774C8.81929 17.3774 8.37929 16.9274 8.37929 16.3773C8.37929 15.8273 8.82929 15.3773 9.37929 15.3773C9.92929 15.3773 10.3793 15.8273 10.3793 16.3773C10.3793 16.9274 9.92929 17.3774 9.37929 17.3774ZM12.3893 17.1173C12.3794 17.1173 12.3794 17.1173 12.3693 17.1173C11.9593 17.1173 11.6293 16.7873 11.6193 16.3874C11.5893 15.0374 10.6993 14.1473 9.3493 14.1173C8.93929 14.1074 8.60929 13.7673 8.61929 13.3473C8.62929 12.9374 8.95929 12.6173 9.36929 12.6173C9.37929 12.6173 9.3793 12.6173 9.38929 12.6173C11.5393 12.6674 13.0793 14.1974 13.1193 16.3473C13.1294 16.7673 12.8093 17.1173 12.3893 17.1173ZM15.3794 17.1173C14.9594 17.1173 14.6294 16.7873 14.6193 16.3773C14.6093 15.7173 14.4993 15.0873 14.2994 14.4974C13.7894 13.0373 12.6993 11.9574 11.2393 11.4374C10.6493 11.2274 10.0193 11.1174 9.35928 11.1174C8.94928 11.1174 8.60929 10.7774 8.61929 10.3574C8.61929 9.94735 8.95929 9.61735 9.36929 9.61735H9.37929C10.2093 9.62735 10.9993 9.76735 11.7393 10.0274C13.6293 10.6974 15.0393 12.1073 15.7094 13.9973C15.9693 14.7374 16.1093 15.5373 16.1193 16.3574C16.1294 16.7774 15.7994 17.1173 15.3794 17.1173Z" fill="white"/>
</svg>
