<svg width="24" height="24" viewBox="0 0 24 24" fill="none" xmlns="http://www.w3.org/2000/svg">
<path d="M18.7109 9.49049C18.6108 9.49049 18.5109 9.4705 18.4109 9.43049C18.0309 9.2605 17.8608 8.82049 18.0209 8.44049C18.2109 8.01049 18.1008 7.38049 17.7509 6.8605C17.4009 6.33049 16.8708 5.97049 16.3908 6.00049C15.9509 6.00049 15.6408 5.67049 15.6309 5.26049C15.6309 4.84049 15.9609 4.51049 16.3709 4.50049C17.4009 4.48049 18.3708 5.07049 19.0008 6.0205C19.6409 6.9805 19.7909 8.13049 19.4009 9.03049C19.2809 9.3205 19.0008 9.49049 18.7109 9.49049Z" fill="white"/>
<path d="M21.8201 10.4794C21.7501 10.4794 21.6901 10.4694 21.6202 10.4494C21.2201 10.3394 20.9902 9.92936 21.1001 9.52937C21.4801 8.16937 21.1601 6.54937 20.2501 5.18936C19.3402 3.82937 17.9602 2.91937 16.5502 2.74937C16.1401 2.69936 15.8501 2.32937 15.9001 1.91936C15.9502 1.50937 16.3301 1.20937 16.7302 1.26937C18.5602 1.48937 20.3401 2.64937 21.4901 4.36937C22.6402 6.08936 23.0302 8.16937 22.5401 9.94937C22.4501 10.2594 22.1501 10.4794 21.8201 10.4794Z" fill="white"/>
<path d="M17.1189 11.7809C17.1189 12.0809 16.869 12.331 16.569 12.331H3.42891C3.12891 12.331 2.87891 12.0809 2.87891 11.7809C2.87891 11.4809 3.12891 11.2309 3.42891 11.2309H4.16891L4.44891 9.91094C4.70891 8.63094 5.25891 7.46094 7.43891 7.46094H12.5689C14.7489 7.46094 15.2889 8.64093 15.5589 9.91094L15.8389 11.2309H16.5789C16.869 11.2309 17.1189 11.4809 17.1189 11.7809Z" fill="white"/>
<path d="M17.4305 15.9119C17.3206 14.7119 17.0006 13.4219 14.6606 13.4219H5.34053C3.00053 13.4219 2.68054 14.7119 2.57054 15.9119L2.16053 20.3618C2.11054 20.9119 2.29054 21.4718 2.67053 21.8918C3.06053 22.3118 3.60053 22.5518 4.19054 22.5518H5.56054C6.74054 22.5518 6.97054 21.8719 7.12054 21.4319L7.27054 20.9918C7.44053 20.4919 7.48054 20.3618 8.14054 20.3618H11.8806C12.5405 20.3618 12.5606 20.4319 12.7505 20.9918L12.9005 21.4319C13.0505 21.8819 13.2706 22.5518 14.4605 22.5518H15.8306C16.4105 22.5518 16.9606 22.3118 17.3506 21.8918C17.7305 21.4718 17.9105 20.9219 17.8606 20.3618L17.4305 15.9119ZM7.81054 17.4319H5.62054C5.32054 17.4319 5.07053 17.1818 5.07053 16.8818C5.07053 16.5818 5.32054 16.3319 5.62054 16.3319H7.81054C8.11054 16.3319 8.36054 16.5818 8.36054 16.8818C8.36054 17.1818 8.11054 17.4319 7.81054 17.4319ZM14.3806 17.4319H12.1906C11.8906 17.4319 11.6406 17.1818 11.6406 16.8818C11.6406 16.5818 11.8906 16.3319 12.1906 16.3319H14.3806C14.6806 16.3319 14.9306 16.5818 14.9306 16.8818C14.9306 17.1818 14.6806 17.4319 14.3806 17.4319Z" fill="white"/>
</svg>
