<svg width="24" height="24" viewBox="0 0 24 24" fill="none" xmlns="http://www.w3.org/2000/svg">
<path d="M10 1H4C2.33999 1 1 2.34 1 4V10C1 11.66 2.33999 13 4 13H8.5C8.5 10.52 10.52 8.5 13 8.5V4C13 2.34 11.66 1 10 1ZM3.77 4.27C4.54 3.72 5.59 3.70999 6.38 4.24999C6.71999 4.48 6.80999 4.95 6.58 5.29C6.35 5.62999 5.87999 5.71999 5.54 5.49C5.27 5.29999 4.9 5.29999 4.63 5.5C4.49999 5.59 4.34999 5.62999 4.19999 5.62999C3.97 5.62999 3.73 5.52 3.59 5.32C3.35 4.98 3.43 4.51 3.77 4.27ZM9.26999 8.23999C9.01 8.56999 8.54 8.62 8.21999 8.35999C7.87 8.08 7.45 7.93 7 7.93C5.99999 7.93 5.17 8.68999 5.06 9.67H7.16C7.57 9.67 7.91 10.01 7.91 10.42C7.91 10.83 7.57 11.17 7.16 11.17H4.84C4.13 11.17 3.55 10.59 3.55 9.88C3.55 7.98 5.09999 6.43 7 6.43C7.78 6.43 8.54999 6.7 9.16 7.18999C9.47999 7.45 9.53 7.92 9.26999 8.23999ZM10.58 5.29C10.35 5.62999 9.88 5.71999 9.53999 5.49C9.26999 5.29999 8.9 5.29999 8.63 5.5C8.5 5.59 8.35 5.62999 8.2 5.62999C7.97 5.62999 7.73 5.52 7.58999 5.32C7.34999 4.98 7.43 4.51 7.76999 4.27C8.54 3.72 9.59 3.70999 10.38 4.24999C10.72 4.48 10.81 4.95 10.58 5.29Z" fill="white"/>
<path d="M18.2188 16.6825C18.1488 16.6025 18.0487 16.5625 17.9388 16.5625H14.0587C13.9488 16.5625 13.8487 16.6025 13.7788 16.6825C13.7088 16.7624 13.6687 16.8725 13.6888 16.9724C13.8187 18.1525 14.8087 19.0525 15.9988 19.0525C17.1888 19.0525 18.1788 18.1625 18.3088 16.9724C18.3187 16.8625 18.2887 16.7624 18.2188 16.6825Z" fill="white"/>
<path d="M19 10H13C11.35 10 10 11.35 10 13V19C10 20.65 11.35 22 13 22H19C20.65 22 22 20.65 22 19V13C22 11.35 20.65 10 19 10ZM12.5899 13.17C12.8299 12.83 13.3 12.75 13.6399 12.99C13.9099 13.18 14.2699 13.18 14.5399 13C14.88 12.76 15.3499 12.85 15.58 13.2C15.81 13.54 15.73 14.01 15.3799 14.24C14.9899 14.5 14.5399 14.64 14.0899 14.64C13.62 14.64 13.1599 14.5 12.7699 14.22C12.43 13.97 12.3499 13.5 12.5899 13.17ZM16 20.17C14.1 20.17 12.55 18.62 12.55 16.72C12.55 16.01 13.1299 15.43 13.84 15.43H18.16C18.87 15.43 19.45 16.01 19.45 16.72C19.45 18.62 17.8999 20.17 16 20.17ZM19.38 14.23C18.99 14.49 18.54 14.63 18.09 14.63C17.62 14.63 17.16 14.49 16.77 14.21C16.4299 13.97 16.35 13.5 16.59 13.16C16.83 12.82 17.2999 12.74 17.64 12.98C17.91 13.17 18.27 13.17 18.54 12.99C18.88 12.75 19.35 12.84 19.5799 13.19C19.81 13.54 19.72 14 19.38 14.23Z" fill="white"/>
</svg>
