<svg width="24" height="24" viewBox="0 0 24 24" fill="none" xmlns="http://www.w3.org/2000/svg">
<path d="M5.99999 13C3.23999 13 1 15.2301 1 18C1 20.77 3.23999 23.0001 5.99999 23.0001C8.75999 23.0001 11 20.76 11 18C11 15.24 8.77 13 5.99999 13ZM3.95999 15.96H5.99999C6.38 15.96 6.68 16.27 6.68 16.6401C6.68 17.01 6.38 17.32 5.99999 17.32H3.95999C3.58 17.32 3.28 17.01 3.28 16.6401C3.28 16.27 3.58 15.96 3.95999 15.96ZM8.03999 20.04H3.95999C3.58 20.04 3.28 19.7301 3.28 19.36C3.28 18.99 3.59 18.6801 3.95999 18.6801H8.05C8.42999 18.6801 8.72999 18.99 8.72999 19.36C8.72999 19.7301 8.42 20.04 8.03999 20.04Z" fill="white"/>
<path d="M17 3H7C4 3 2 4.5 2 8V11.14C2 11.87 2.75 12.33 3.42001 12.04C4.52 11.56 5.77 11.38 7.08001 11.59C9.7 12.02 11.84 14.09 12.3701 16.69C12.5201 17.45 12.54 18.19 12.44 18.9C12.36 19.49 12.84 20.01 13.43 20.01H17C20 20.01 22.0001 18.51 22.0001 15.01V8C22.0001 4.5 20 3 17 3ZM17.4701 8.59L14.34 11.09C13.68 11.62 12.84 11.88 12 11.88C11.16 11.88 10.31 11.62 9.66001 11.09L6.53 8.59C6.21001 8.33 6.16 7.85 6.41 7.53C6.67 7.21 7.14001 7.15 7.46 7.41L10.59 9.91C11.35 10.52 12.6401 10.52 13.4 9.91L16.53 7.41C16.85 7.15 17.33 7.2 17.58 7.53C17.84 7.85 17.79 8.33 17.4701 8.59Z" fill="white"/>
</svg>
