<svg width="24" height="24" viewBox="0 0 24 24" fill="none" xmlns="http://www.w3.org/2000/svg">
<path d="M19.5 8C20.8807 8 22 6.8807 22 5.5C22 4.11929 20.8807 3 19.5 3C18.1192 3 17 4.11929 17 5.5C17 6.8807 18.1192 8 19.5 8Z" fill="white"/>
<path d="M19.5 8C20.8807 8 22 6.8807 22 5.5C22 4.11929 20.8807 3 19.5 3C18.1192 3 17 4.11929 17 5.5C17 6.8807 18.1192 8 19.5 8Z" fill="white"/>
<path d="M20.72 9.31C20.0201 9.53 19.25 9.57 18.45 9.37C17.1101 9.02 16.02 7.95 15.65 6.61C15.47 5.96 15.4601 5.32 15.57 4.74C15.7001 4.1 15.2501 3.5 14.61 3.5H7C4 3.5 2 5 2 8.5V15.5C2 19 4 20.5 7 20.5H17C20 20.5 22.0001 19 22.0001 15.5V10.26C22.0001 9.6 21.36 9.1 20.72 9.31ZM15.5201 11.15L14.34 12.09C13.68 12.62 12.84 12.88 12 12.88C11.16 12.88 10.31 12.62 9.66001 12.09L6.53 9.59C6.21001 9.33 6.16 8.85 6.41 8.53C6.67 8.21 7.14001 8.15 7.46 8.41L10.59 10.91C11.35 11.52 12.6401 11.52 13.4 10.91L14.58 9.97C14.9 9.71 15.38 9.76 15.63 10.09C15.89 10.41 15.84 10.89 15.5201 11.15Z" fill="white"/>
</svg>
