<svg width="24" height="24" viewBox="0 0 24 24" fill="none" xmlns="http://www.w3.org/2000/svg">
<path d="M19.4812 2.81875L19.7612 3.38875C19.9012 3.66876 20.2511 3.92875 20.5612 3.98875L20.9411 4.04875C22.0811 4.23876 22.3511 5.07876 21.5312 5.90875L21.1811 6.25875C20.9512 6.49876 20.8211 6.95875 20.8912 7.27875L20.9411 7.48875C21.2512 8.86875 20.5211 9.39876 19.3211 8.67876L19.0612 8.52876C18.7511 8.34876 18.2512 8.34876 17.9411 8.52876L17.6812 8.67876C16.4711 9.40876 15.7412 8.86875 16.0612 7.48875L16.1111 7.27875C16.1812 6.95875 16.0511 6.49876 15.8212 6.25875L15.4712 5.89876C14.6512 5.06875 14.9212 4.22875 16.0612 4.03875L16.4411 3.97875C16.7411 3.92875 17.1011 3.65875 17.2412 3.37875L17.5211 2.80875C18.0611 1.72875 18.9412 1.72875 19.4812 2.81875Z" fill="white"/>
<path d="M21.57 10.09C21.21 10.35 20.2001 10.83 18.7601 10.09C18.6 10.01 18.4001 10 18.24 10.09C17.67 10.38 17.15 10.5 16.74 10.5C16.1 10.5 15.65 10.25 15.4301 10.09C15.06 9.82 14.28 9.05 14.55 7.42C14.58 7.25 14.5301 7.08 14.42 6.95C13.73 6.16 13.35 5.1 13.62 4.27C13.7201 3.94 13.5101 3.5 13.17 3.5H7C4 3.5 2 5 2 8.5V15.5C2 19 4 20.5 7 20.5H17C20 20.5 22.0001 19 22.0001 15.5V10.27C22.0001 10.08 21.7301 9.98 21.57 10.09ZM14.34 12.09C13.68 12.62 12.84 12.88 12 12.88C11.16 12.88 10.31 12.62 9.66001 12.09L6.53 9.59C6.21001 9.33 6.16 8.85 6.41 8.53C6.67 8.21 7.14001 8.15 7.46 8.41L10.59 10.91C11.35 11.52 12.6401 11.52 13.4 10.91C13.7201 10.65 14.19 10.7 14.45 11.03C14.72 11.35 14.67 11.83 14.34 12.09Z" fill="white"/>
</svg>
