<svg width="24" height="24" viewBox="0 0 24 24" fill="none" xmlns="http://www.w3.org/2000/svg">
<path fill-rule="evenodd" clip-rule="evenodd" d="M12 2C6.48001 2 2 6.48 2 12C2 17.52 6.48001 22 12 22C17.52 22 22.0001 17.52 22.0001 12C22.0001 6.48 17.52 2 12 2ZM17.31 15.31C17.0201 15.47 16.7801 15.54 16.58 15.59C16.41 15.63 16.2701 15.67 16.1501 15.75C16.02 15.83 16.01 15.96 15.99 16.08C15.9701 16.19 15.96 16.28 15.8801 16.34C15.7901 16.4 15.62 16.41 15.39 16.42C15.09 16.44 14.7101 16.45 14.25 16.59C14.03 16.67 13.83 16.79 13.6301 16.91C13.23 17.16 12.78 17.43 11.99 17.43C11.21 17.43 10.76 17.16 10.36 16.91C10.16 16.78 9.96001 16.66 9.73002 16.58C9.28002 16.44 8.89 16.42 8.59 16.41C8.36 16.4 8.20002 16.39 8.10001 16.33C8.02002 16.28 8.01 16.18 7.98999 16.07C7.96999 15.95 7.95999 15.82 7.83 15.74C7.71 15.66 7.56 15.62 7.39999 15.57C7.2 15.52 6.96001 15.46 6.67002 15.3C6.33001 15.11 6.53001 15 6.64002 14.94C8.57001 14.01 8.87 12.57 8.88001 12.46C8.88001 12.45 8.88001 12.45 8.88001 12.44C8.9 12.32 8.91 12.22 8.76999 12.09C8.67999 12 8.37001 11.8 8.12 11.64C8.01 11.56 7.91001 11.5 7.85001 11.47C7.57002 11.27 7.45002 11.08 7.54002 10.83C7.60002 10.66 7.76001 10.6 7.92001 10.6C7.97001 10.6 8.03001 10.61 8.07001 10.62C8.25001 10.66 8.43001 10.73 8.59 10.79C8.70001 10.84 8.79 10.87 8.85999 10.89C8.88 10.9 8.91001 10.9 8.92002 10.9C9.02001 10.9 9.05001 10.85 9.04002 10.75C9.04002 10.72 9.04 10.69 9.03001 10.66C9.01 10.31 8.97999 9.7 9.01999 9.14001C9.09999 8.30001 9.37 7.87 9.69001 7.51C9.85 7.33 10.58 6.56 11.97 6.56C13.37 6.56 14.09 7.33 14.25 7.5C14.57 7.87 14.84 8.29 14.9201 9.14001C14.97 9.73 14.93 10.36 14.9 10.71V10.74C14.8901 10.85 14.9201 10.89 15.02 10.89C15.0401 10.89 15.06 10.89 15.08 10.88C15.15 10.86 15.24 10.83 15.35 10.79C15.5 10.73 15.68 10.66 15.87 10.62C15.92 10.6 15.9701 10.6 16.02 10.6C16.19 10.6 16.34 10.67 16.4 10.84C16.49 11.08 16.37 11.27 16.0901 11.47C16.04 11.51 15.9401 11.58 15.8201 11.64C15.5801 11.8 15.26 12 15.17 12.09C15.03 12.22 15.0401 12.32 15.06 12.44C15.06 12.45 15.06 12.46 15.06 12.46C15.08 12.57 15.38 14.01 17.3 14.94C17.45 15 17.6501 15.12 17.31 15.31Z" fill="white"/>
</svg>
