<svg width="24" height="24" viewBox="0 0 24 24" fill="none" xmlns="http://www.w3.org/2000/svg">
<path d="M20.0012 3.5H5.50115C5.19114 3.5 4.89115 3.65 4.70116 3.9L3.20116 5.9C2.71115 6.56 3.18114 7.5 4.00115 7.5H18.5012C18.8111 7.5 19.1111 7.35 19.3012 7.1L20.8012 5.1C21.2912 4.44 20.8211 3.5 20.0012 3.5Z" fill="white"/>
<path d="M4.00115 10H18.5012C18.8111 10 19.1111 10.15 19.3012 10.4L20.8012 12.4C21.2912 13.06 20.8211 14 20.0012 14H5.50115C5.19114 14 4.89115 13.85 4.70116 13.6L3.20116 11.6C2.71115 10.94 3.18114 10 4.00115 10Z" fill="white"/>
<path d="M20.0012 16.5H5.50115C5.19114 16.5 4.89115 16.65 4.70116 16.9L3.20116 18.9C2.71115 19.56 3.18114 20.5 4.00115 20.5H18.5012C18.8111 20.5 19.1111 20.35 19.3012 20.1L20.8012 18.1C21.2912 17.44 20.8211 16.5 20.0012 16.5Z" fill="white"/>
</svg>
