<svg width="24" height="24" viewBox="0 0 24 24" fill="none" xmlns="http://www.w3.org/2000/svg">
<path d="M16.19 2H7.81C4.17001 2 2 4.17 2 7.81V16.18C2 19.83 4.17001 22 7.81 22H16.1801C19.82 22 21.99 19.83 21.99 16.19V7.81C22.0001 4.17 19.83 2 16.19 2ZM13.3301 17H10.66C10.25 17 9.91 16.66 9.91 16.25C9.91 15.84 10.25 15.5 10.66 15.5H13.3301C13.74 15.5 14.0801 15.84 14.0801 16.25C14.0801 16.66 13.7501 17 13.3301 17ZM16.0001 12.75H8C7.59001 12.75 7.25 12.41 7.25 12C7.25 11.59 7.59001 11.25 8 11.25H16.0001C16.41 11.25 16.7501 11.59 16.7501 12C16.7501 12.41 16.41 12.75 16.0001 12.75ZM18 8.5H6.00001C5.59 8.5 5.25001 8.16 5.25001 7.75C5.25001 7.34 5.59 7 6.00001 7H18C18.41 7 18.75 7.34 18.75 7.75C18.75 8.16 18.41 8.5 18 8.5Z" fill="white"/>
</svg>
