<svg width="24" height="24" viewBox="0 0 24 24" fill="none" xmlns="http://www.w3.org/2000/svg">
<path d="M19.1759 2.16387C19.0637 1.60297 18.5713 1.19922 17.9992 1.19922C17.4272 1.19922 16.9347 1.60297 16.8225 2.16387L16.5363 3.59495C16.4413 4.06998 16.07 4.44131 15.5949 4.53631L14.1639 4.82252C13.603 4.9347 13.1992 5.4272 13.1992 5.99922C13.1992 6.57123 13.603 7.06374 14.1639 7.17591L15.5949 7.46213C16.07 7.55713 16.4413 7.92846 16.5363 8.40349L16.8225 9.83456C16.9347 10.3955 17.4272 10.7992 17.9992 10.7992C18.5713 10.7992 19.0637 10.3955 19.1759 9.83456L19.4621 8.40349C19.5572 7.92846 19.9285 7.55713 20.4035 7.46213L21.8345 7.17591C22.3954 7.06374 22.7992 6.57123 22.7992 5.99922C22.7992 5.4272 22.3954 4.9347 21.8345 4.82252L20.4035 4.53631C19.9285 4.44131 19.5572 4.06998 19.4621 3.59495L19.1759 2.16387Z" fill="#0F172A"/>
<path d="M8.33763 6.82052C8.1743 6.33052 7.71574 6 7.19922 6C6.6827 6 6.22414 6.33052 6.0608 6.82052L5.24027 9.28211C5.12083 9.64043 4.83965 9.92161 4.48133 10.041L2.01974 10.8616C1.52973 11.0249 1.19922 11.4835 1.19922 12C1.19922 12.5165 1.52973 12.9751 2.01974 13.1384L4.48133 13.959C4.83965 14.0784 5.12083 14.3596 5.24027 14.7179L6.0608 17.1794C6.22414 17.6695 6.6827 18 7.19922 18C7.71574 18 8.1743 17.6695 8.33763 17.1794L9.15817 14.7179C9.27761 14.3596 9.55879 14.0784 9.91711 13.959L12.3787 13.1384C12.8687 12.9751 13.1992 12.5165 13.1992 12C13.1992 11.4835 12.8687 11.0249 12.3787 10.8616L9.91711 10.041C9.55879 9.92161 9.27761 9.64043 9.15817 9.28211L8.33763 6.82052Z" fill="#0F172A"/>
<path d="M16.7384 16.4221C16.5751 15.932 16.1165 15.6016 15.6 15.6016C15.0835 15.6016 14.6249 15.932 14.4616 16.4221L14.241 17.0837C14.1216 17.442 13.8404 17.7232 13.4821 17.8426L12.8206 18.0631C12.3305 18.2264 12 18.6851 12 19.2016C12 19.718 12.3305 20.1767 12.8206 20.34L13.4821 20.5606C13.8404 20.68 14.1216 20.9611 14.241 21.3194L14.4616 21.981C14.6249 22.4711 15.0835 22.8016 15.6 22.8016C16.1165 22.8016 16.5751 22.4711 16.7384 21.981L16.959 21.3194C17.0784 20.9611 17.3596 20.68 17.7179 20.5606L18.3794 20.34C18.8695 20.1767 19.2 19.718 19.2 19.2016C19.2 18.6851 18.8695 18.2264 18.3794 18.0631L17.7179 17.8426C17.3596 17.7232 17.0784 17.442 16.959 17.0837L16.7384 16.4221Z" fill="#0F172A"/>
</svg>
