<svg width="24" height="24" viewBox="0 0 24 24" fill="none" xmlns="http://www.w3.org/2000/svg">
<path d="M15.0011 1.61719H9.00109C5.81109 1.61719 4.62109 2.80718 4.62109 5.99719V17.9971C4.62109 21.1872 5.81109 22.3771 9.00109 22.3771H15.0011C18.1911 22.3771 19.3811 21.1872 19.3811 17.9971V5.99719C19.3811 2.80718 18.1911 1.61719 15.0011 1.61719ZM12.0011 5.99719C12.831 5.99719 13.5011 6.66718 13.5011 7.49719C13.5011 8.32718 12.831 8.99719 12.0011 8.99719C11.1711 8.99719 10.5011 8.32718 10.5011 7.49719C10.5011 6.66718 11.1711 5.99719 12.0011 5.99719ZM12.0011 17.9971C10.3411 17.9971 9.00109 16.6572 9.00109 14.9971C9.00109 13.3372 10.3411 11.9971 12.0011 11.9971C13.6611 11.9971 15.0011 13.3372 15.0011 14.9971C15.0011 16.6572 13.6611 17.9971 12.0011 17.9971Z" fill="white"/>
</svg>
