<svg width="24" height="24" viewBox="0 0 24 24" fill="none" xmlns="http://www.w3.org/2000/svg">
<path d="M12.0578 3.6754C12.3873 3.81781 12.6008 4.14252 12.6008 4.50159V19.5016C12.6008 19.8606 12.3873 20.1853 12.0578 20.3278C11.7281 20.4702 11.3454 20.403 11.084 20.157L6.24387 15.6016H3.20147C2.82948 15.6016 2.49582 15.3727 2.36185 15.0257C1.99919 14.0862 1.80078 13.066 1.80078 12.0016C1.80078 10.9372 1.99919 9.91701 2.36185 8.97748C2.49582 8.63045 2.82948 8.40159 3.20147 8.40159H6.24387L11.084 3.84621C11.3454 3.60011 11.7281 3.53299 12.0578 3.6754Z" fill="#0F172A"/>
<path d="M16.5363 8.66204C16.1849 8.31057 15.6151 8.31057 15.2636 8.66204C14.9121 9.01351 14.9121 9.58336 15.2636 9.93483L17.3271 11.9984L15.2636 14.062C14.9121 14.4135 14.9121 14.9834 15.2636 15.3349C15.6151 15.6864 16.1849 15.6864 16.5363 15.3349L18.6 13.2712L20.6636 15.3349C21.0151 15.6864 21.5849 15.6864 21.9363 15.3349C22.2878 14.9834 22.2878 14.4135 21.9363 14.062L19.8728 11.9984L21.9363 9.93483C22.2878 9.58336 22.2878 9.01351 21.9363 8.66204C21.5849 8.31057 21.0151 8.31057 20.6636 8.66204L18.6 10.7256L16.5363 8.66204Z" fill="#0F172A"/>
</svg>
