<svg width="24" height="24" viewBox="0 0 24 24" fill="none" xmlns="http://www.w3.org/2000/svg">
<path d="M12.6008 4.50159C12.6008 4.14252 12.3873 3.81781 12.0578 3.6754C11.7281 3.53299 11.3454 3.60011 11.084 3.84621L6.24387 8.40159H3.20147C2.82948 8.40159 2.49582 8.63045 2.36185 8.97748C1.99919 9.91701 1.80078 10.9372 1.80078 12.0016C1.80078 13.066 1.99919 14.0862 2.36185 15.0257C2.49582 15.3727 2.82948 15.6016 3.20147 15.6016H6.24387L11.084 20.157C11.3454 20.403 11.7281 20.4702 12.0578 20.3278C12.3873 20.1853 12.6008 19.8606 12.6008 19.5016V4.50159Z" fill="#0F172A"/>
<path d="M19.7396 6.06048C19.3881 5.70901 18.8182 5.70901 18.4667 6.06048C18.1153 6.41194 18.1153 6.9818 18.4667 7.33327C21.0442 9.91072 21.0442 14.0896 18.4667 16.667C18.1153 17.0185 18.1153 17.5884 18.4667 17.9399C18.8182 18.2914 19.3881 18.2914 19.7396 17.9399C23.0199 14.6594 23.0199 9.34088 19.7396 6.06048Z" fill="#0F172A"/>
<path d="M17.1947 8.60736C16.8432 8.25588 16.2733 8.25588 15.9218 8.60736C15.5703 8.95883 15.5703 9.52867 15.9218 9.88015C17.0934 11.0517 17.0934 12.9512 15.9218 14.1228C15.5703 14.4743 15.5703 15.0442 15.9218 15.3956C16.2733 15.747 16.8432 15.747 17.1947 15.3956C19.0692 13.5211 19.0692 10.4819 17.1947 8.60736Z" fill="#0F172A"/>
</svg>
