<svg width="24" height="24" viewBox="0 0 24 24" fill="none" xmlns="http://www.w3.org/2000/svg">
<path d="M3.83522 15.4414L2.84524 16.0217C2.56969 16.1832 2.40039 16.4787 2.40039 16.7981C2.40039 17.1176 2.56969 17.413 2.84524 17.5745L11.5452 22.6745C11.8263 22.8393 12.1745 22.8393 12.4556 22.6745L21.1556 17.5745C21.4311 17.413 21.6004 17.1176 21.6004 16.7981C21.6004 16.4787 21.4311 16.1832 21.1556 16.0217L20.1656 15.4414L13.3659 19.4274C12.5226 19.9217 11.4781 19.9217 10.6349 19.4274L3.83522 15.4414Z" fill="#0F172A"/>
<path d="M3.83522 10.6445L2.84524 11.2249C2.56969 11.3864 2.40039 11.6819 2.40039 12.0013C2.40039 12.3207 2.56969 12.6162 2.84524 12.7777L11.5452 17.8777C11.8263 18.0424 12.1745 18.0424 12.4556 17.8777L21.1556 12.7777C21.4311 12.6162 21.6004 12.3207 21.6004 12.0013C21.6004 11.6819 21.4311 11.3864 21.1556 11.2249L20.1656 10.6445L13.3659 14.6306C12.5226 15.1249 11.4781 15.1249 10.6349 14.6306L3.83522 10.6445Z" fill="#0F172A"/>
<path d="M12.4556 1.32279C12.1745 1.15803 11.8263 1.15803 11.5452 1.32279L2.84524 6.42279C2.56969 6.58433 2.40039 6.8798 2.40039 7.19922C2.40039 7.51863 2.56969 7.81411 2.84524 7.97564L11.5452 13.0756C11.8263 13.2404 12.1745 13.2404 12.4556 13.0756L21.1556 7.97564C21.4311 7.81411 21.6004 7.51863 21.6004 7.19922C21.6004 6.8798 21.4311 6.58433 21.1556 6.42279L12.4556 1.32279Z" fill="#0F172A"/>
</svg>
