<svg width="24" height="24" viewBox="0 0 24 24" fill="none" xmlns="http://www.w3.org/2000/svg">
<path fill-rule="evenodd" clip-rule="evenodd" d="M5.10039 2.39844C3.60922 2.39844 2.40039 3.60727 2.40039 5.09844V8.09844C2.40039 9.58961 3.60922 10.7984 5.10039 10.7984H8.10039C9.59156 10.7984 10.8004 9.58961 10.8004 8.09844V5.09844C10.8004 3.60727 9.59156 2.39844 8.10039 2.39844H5.10039ZM5.10039 13.1984C3.60922 13.1984 2.40039 14.4073 2.40039 15.8984V18.8984C2.40039 20.3896 3.60922 21.5984 5.10039 21.5984H8.10039C9.59156 21.5984 10.8004 20.3896 10.8004 18.8984V15.8984C10.8004 14.4073 9.59156 13.1984 8.10039 13.1984H5.10039ZM15.9004 2.39844C14.4093 2.39844 13.2004 3.60727 13.2004 5.09844V8.09844C13.2004 9.58961 14.4093 10.7984 15.9004 10.7984H18.9004C20.3915 10.7984 21.6004 9.58961 21.6004 8.09844V5.09844C21.6004 3.60727 20.3915 2.39844 18.9004 2.39844H15.9004ZM15.9004 13.1984C14.4093 13.1984 13.2004 14.4073 13.2004 15.8984V18.8984C13.2004 20.3896 14.4093 21.5984 15.9004 21.5984H18.9004C20.3915 21.5984 21.6004 20.3896 21.6004 18.8984V15.8984C21.6004 14.4073 20.3915 13.1984 18.9004 13.1984H15.9004Z" fill="#0F172A"/>
</svg>
