<svg width="24" height="24" viewBox="0 0 24 24" fill="none" xmlns="http://www.w3.org/2000/svg">
<path d="M16.19 2.32812H7.81C4.17001 2.32812 2 4.50812 2 8.14812V16.5181C2 20.1582 4.17001 22.3282 7.81 22.3282H16.1801C19.82 22.3282 21.99 20.1582 21.99 16.5181V8.14812C22.0001 4.50812 19.83 2.32812 16.19 2.32812ZM11.57 17.1181C11.57 17.4181 11.42 17.6881 11.16 17.8482C11.02 17.9382 10.87 17.9782 10.71 17.9782C10.58 17.9782 10.45 17.9482 10.32 17.8882L6.82 16.1382C6.32 15.8782 6.00001 15.3682 6.00001 14.7982V11.4881C6.00001 11.1881 6.15001 10.9181 6.41 10.7581C6.67 10.5981 6.98 10.5881 7.25 10.7181L10.75 12.4681C11.26 12.7282 11.58 13.2382 11.58 13.8082V17.1181H11.57ZM11.36 11.7681L7.6 9.73812C7.33 9.58812 7.16 9.29812 7.16 8.96812C7.16 8.64812 7.33 8.34812 7.6 8.19812L11.36 6.16812C11.76 5.95812 12.23 5.95812 12.63 6.16812L16.3901 8.19812C16.6601 8.34812 16.83 8.63812 16.83 8.96812C16.83 9.29812 16.6601 9.58812 16.3901 9.73812L12.63 11.7681C12.4301 11.8781 12.21 11.9281 11.99 11.9281C11.77 11.9281 11.56 11.8781 11.36 11.7681ZM18 14.7982C18 15.3682 17.6801 15.8881 17.1701 16.1382L13.67 17.8882C13.55 17.9482 13.4201 17.9782 13.28 17.9782C13.1201 17.9782 12.9701 17.9382 12.83 17.8482C12.57 17.6881 12.42 17.4181 12.42 17.1181V13.8082C12.42 13.2382 12.74 12.7182 13.25 12.4681L16.7501 10.7181C17.0201 10.5881 17.33 10.5981 17.5901 10.7581C17.85 10.9181 18 11.1881 18 11.4881V14.7982Z" fill="white"/>
</svg>
