<svg width="24" height="24" viewBox="0 0 24 24" fill="none" xmlns="http://www.w3.org/2000/svg">
<path d="M2.40039 5.09844C2.40039 3.60727 3.60922 2.39844 5.10039 2.39844H12.9004C14.3915 2.39844 15.6004 3.60727 15.6004 5.09844V6.59844H11.1004C8.61511 6.59844 6.60039 8.61315 6.60039 11.0984V15.5984H5.10039C3.60922 15.5984 2.40039 14.3896 2.40039 12.8984V5.09844Z" fill="#0F172A"/>
<path d="M11.1004 8.39844C9.60922 8.39844 8.40039 9.60727 8.40039 11.0984V18.8984C8.40039 20.3896 9.60922 21.5984 11.1004 21.5984H18.9004C20.3915 21.5984 21.6004 20.3896 21.6004 18.8984V11.0984C21.6004 9.60727 20.3915 8.39844 18.9004 8.39844H11.1004Z" fill="#0F172A"/>
</svg>
