<svg width="24" height="24" viewBox="0 0 24 24" fill="none" xmlns="http://www.w3.org/2000/svg">
<path d="M2.40039 5.09844C2.40039 3.60727 3.60922 2.39844 5.10039 2.39844H8.10039C9.59156 2.39844 10.8004 3.60727 10.8004 5.09844V8.09844C10.8004 9.58961 9.59156 10.7984 8.10039 10.7984H5.10039C3.60922 10.7984 2.40039 9.58961 2.40039 8.09844V5.09844Z" fill="#0F172A"/>
<path d="M2.40039 15.8992C2.40039 14.4081 3.60922 13.1992 5.10039 13.1992H8.10039C9.59156 13.1992 10.8004 14.4081 10.8004 15.8992V18.8992C10.8004 20.3903 9.59156 21.5992 8.10039 21.5992H5.10039C3.60922 21.5992 2.40039 20.3903 2.40039 18.8992V15.8992Z" fill="#0F172A"/>
<path d="M13.1992 5.09844C13.1992 3.60727 14.4081 2.39844 15.8992 2.39844H18.8992C20.3903 2.39844 21.5992 3.60727 21.5992 5.09844V8.09844C21.5992 9.58961 20.3903 10.7984 18.8992 10.7984H15.8992C14.4081 10.7984 13.1992 9.58961 13.1992 8.09844V5.09844Z" fill="#0F172A"/>
<path d="M18.2992 14.0992C18.2992 13.6022 17.8963 13.1992 17.3992 13.1992C16.9022 13.1992 16.4992 13.6022 16.4992 14.0992V16.4992H14.0992C13.6022 16.4992 13.1992 16.9022 13.1992 17.3992C13.1992 17.8963 13.6022 18.2992 14.0992 18.2992H16.4992V20.6992C16.4992 21.1963 16.9022 21.5992 17.3992 21.5992C17.8963 21.5992 18.2992 21.1963 18.2992 20.6992V18.2992H20.6992C21.1963 18.2992 21.5992 17.8963 21.5992 17.3992C21.5992 16.9022 21.1963 16.4992 20.6992 16.4992H18.2992V14.0992Z" fill="#0F172A"/>
</svg>
