<svg width="24" height="24" viewBox="0 0 24 24" fill="none" xmlns="http://www.w3.org/2000/svg">
<path d="M12 2C6.48001 2 2 6.48 2 12C2 17.52 6.48001 22 12 22C17.52 22 22.0001 17.52 22.0001 12C22.0001 6.48 17.52 2 12 2ZM16.5 14.25H13.4501L15.44 17.07C15.68 17.41 15.6 17.88 15.26 18.11C15.1301 18.2 14.9801 18.25 14.8301 18.25C14.5901 18.25 14.36 18.14 14.22 17.93L11.92 14.67L9.62 17.93C9.47 18.14 9.24001 18.25 9.01002 18.25C8.86002 18.25 8.70999 18.21 8.58 18.11C8.23999 17.87 8.16 17.4 8.4 17.07L10.39 14.25H7.51999C7.11 14.25 6.76999 13.91 6.76999 13.5C6.76999 13.09 7.11 12.75 7.51999 12.75H16.52C16.9301 12.75 17.27 13.09 17.27 13.5C17.27 13.91 16.91 14.25 16.5 14.25ZM16.5 11.25H7.50001C7.09 11.25 6.75001 10.91 6.75001 10.5C6.75001 10.09 7.09 9.75 7.50001 9.75H10.37L8.38 6.92998C8.14002 6.58999 8.22001 6.12 8.56 5.89C8.9 5.65 9.37002 5.73001 9.60001 6.07L11.9 9.33L14.2001 6.07C14.4401 5.73001 14.91 5.65 15.24 5.89C15.5801 6.13 15.66 6.59998 15.42 6.92998L13.43 9.75H16.4801C16.89 9.75 17.2301 10.09 17.2301 10.5C17.2301 10.91 16.91 11.25 16.5 11.25Z" fill="white"/>
</svg>
