<svg width="24" height="24" viewBox="0 0 24 24" fill="none" xmlns="http://www.w3.org/2000/svg">
<path d="M5.74133 16C5.85133 15.51 5.65133 14.81 5.30132 14.46L2.87132 12.03C2.11133 11.27 1.81133 10.46 2.03132 9.76C2.26133 9.06 2.97133 8.58 4.03133 8.4L7.15132 7.88C7.60132 7.8 8.15132 7.4 8.36132 6.99L10.0813 3.54C10.5813 2.55 11.2613 2 12.0012 2C12.7413 2 13.4213 2.55 13.9212 3.54L15.6413 6.99C15.7713 7.25 16.0413 7.5 16.3313 7.67L5.56133 18.44C5.42132 18.58 5.18132 18.45 5.22133 18.25L5.74133 16Z" fill="white"/>
<path d="M18.6988 14.4618C18.3388 14.8218 18.1388 15.5118 18.2588 16.0019L18.9488 19.0118C19.2388 20.2619 19.0588 21.2018 18.4388 21.6518C18.1888 21.8318 17.8888 21.9218 17.5388 21.9218C17.0288 21.9218 16.4288 21.7319 15.7688 21.3419L12.8389 19.6019C12.3788 19.3319 11.6188 19.3319 11.1588 19.6019L8.22883 21.3419C7.11883 21.9918 6.16882 22.1018 5.55883 21.6518C5.32882 21.4818 5.15882 21.2519 5.04883 20.9519L17.2088 8.79184C17.6689 8.33185 18.3188 8.12185 18.9488 8.23185L19.9588 8.40184C21.0188 8.58184 21.7288 9.06184 21.9589 9.76184C22.1788 10.4618 21.8788 11.2718 21.1189 12.0318L18.6988 14.4618Z" fill="white"/>
</svg>
