<svg width="24" height="24" viewBox="0 0 24 24" fill="none" xmlns="http://www.w3.org/2000/svg">
<path d="M18.7012 14.4624C18.3512 14.8124 18.1511 15.5124 18.2612 15.9924L18.9512 19.0124C19.2412 20.2625 19.0612 21.2024 18.4412 21.6524C18.1912 21.8324 17.8912 21.9224 17.5412 21.9224C17.0312 21.9224 16.4312 21.7325 15.7712 21.3425L12.8411 19.6025C12.3812 19.3325 11.6212 19.3325 11.1612 19.6025L8.23118 21.3425C7.12118 21.9924 6.17117 22.1024 5.56118 21.6524C5.52118 21.6224 5.48117 21.5924 5.45117 21.5525L18.0712 8.93248C18.5312 8.47248 19.1812 8.26248 19.8212 8.37247L19.9712 8.40247C21.0311 8.58247 21.7412 9.06247 21.9712 9.76248C22.1912 10.4625 21.8912 11.2725 21.1312 12.0324L18.7012 14.4624Z" fill="white"/>
<path d="M5.74133 16C5.85133 15.52 5.65133 14.81 5.30132 14.46L2.87132 12.03C2.11133 11.27 1.81133 10.46 2.03132 9.76C2.26133 9.06 2.97133 8.58 4.03133 8.4L7.15132 7.88C7.60132 7.8 8.15132 7.4 8.36132 6.99L10.0813 3.54C10.5813 2.55 11.2613 2 12.0012 2C12.7413 2 13.4213 2.55 13.9212 3.54L15.6413 6.99C15.7713 7.25 16.0413 7.5 16.3313 7.67L5.07133 18.93L5.74133 16Z" fill="white"/>
<path d="M21.7708 2.23282C21.4708 1.93281 20.9809 1.93281 20.6809 2.23282L2.23086 20.6928C1.93086 20.9928 1.93086 21.4829 2.23086 21.7829C2.38086 21.9228 2.57086 22.0028 2.77086 22.0028C2.97086 22.0028 3.16086 21.9228 3.31086 21.7728L21.7708 3.31282C22.0809 3.01281 22.0809 2.53282 21.7708 2.23282Z" fill="white"/>
</svg>
