<svg width="24" height="24" viewBox="0 0 24 24" fill="none" xmlns="http://www.w3.org/2000/svg">
<path d="M9.00085 14.2227H3.92084C3.31084 14.2227 2.75084 14.5326 2.43085 15.0526C2.11084 15.5626 2.08084 16.1727 2.34085 16.7127C3.57085 19.2327 5.79085 21.2127 8.43085 22.1427C8.61085 22.2027 8.81084 22.2426 9.00085 22.2426C9.35084 22.2426 9.70084 22.1326 10.0008 21.9226C10.4709 21.5926 10.7509 21.0526 10.7509 20.4826L10.7609 15.9826C10.7609 15.5127 10.5809 15.0726 10.2509 14.7426C9.91084 14.4126 9.47084 14.2227 9.00085 14.2227Z" fill="white"/>
<path d="M22.4799 9.6C21.3599 4.68 17.0499 1.25 11.9999 1.25C6.94993 1.25 2.63992 4.68 1.51993 9.6C1.39993 10.12 1.51993 10.65 1.85992 11.07C2.19993 11.49 2.69992 11.73 3.23992 11.73H20.7699C21.3099 11.73 21.8099 11.49 22.1499 11.07C22.4799 10.65 22.5999 10.11 22.4799 9.6Z" fill="white"/>
<path d="M20.06 14.2678L15 14.2578C14.53 14.2578 14.09 14.4378 13.76 14.7678C13.43 15.0978 13.25 15.5379 13.25 16.0078L13.26 20.4879C13.26 21.0579 13.54 21.5979 14.01 21.9279C14.31 22.1379 14.66 22.2478 15.01 22.2478C15.2 22.2478 15.39 22.2178 15.57 22.1478C18.19 21.2278 20.41 19.2579 21.64 16.7679C21.9 16.2378 21.87 15.6178 21.56 15.1179C21.23 14.5779 20.67 14.2678 20.06 14.2678Z" fill="white"/>
</svg>
