<svg width="24" height="24" viewBox="0 0 24 24" fill="none" xmlns="http://www.w3.org/2000/svg">
<path d="M8.28906 6.29C7.86906 6.29 7.53906 5.95 7.53906 5.54V2.75C7.53906 2.34 7.86906 2 8.28906 2C8.70906 2 9.03906 2.34 9.03906 2.75V5.53C9.03906 5.95 8.70906 6.29 8.28906 6.29Z" fill="white"/>
<path d="M15.7109 6.29C15.2909 6.29 14.9609 5.95 14.9609 5.54V2.75C14.9609 2.33 15.3009 2 15.7109 2C16.1309 2 16.4609 2.34 16.4609 2.75V5.53C16.4609 5.95 16.1309 6.29 15.7109 6.29Z" fill="white"/>
<path d="M21.5014 15.8198C21.5014 15.9698 21.4514 16.1198 21.3214 16.2497C19.8714 17.7098 17.2914 20.3097 15.8114 21.7997C15.6814 21.9398 15.5114 21.9998 15.3414 21.9998C15.0114 21.9998 14.6914 21.7397 14.6914 21.3597V17.8598C14.6914 16.3997 15.9314 15.1898 17.4514 15.1898C18.4014 15.1797 19.7214 15.1797 20.8514 15.1797C21.2414 15.1797 21.5014 15.4898 21.5014 15.8198Z" fill="white"/>
<path d="M21.5014 15.8198C21.5014 15.9698 21.4514 16.1198 21.3214 16.2497C19.8714 17.7098 17.2914 20.3097 15.8114 21.7997C15.6814 21.9398 15.5114 21.9998 15.3414 21.9998C15.0114 21.9998 14.6914 21.7397 14.6914 21.3597V17.8598C14.6914 16.3997 15.9314 15.1898 17.4514 15.1898C18.4014 15.1797 19.7214 15.1797 20.8514 15.1797C21.2414 15.1797 21.5014 15.4898 21.5014 15.8198Z" fill="white"/>
<path d="M19.57 4.5C18.91 4.01 17.9599 4.48 17.9599 5.31V5.41C17.9599 6.58 17.1199 7.66 15.9499 7.78C14.5999 7.92 13.4599 6.86 13.4599 5.54V4.5C13.4599 3.95 13.0099 3.5 12.46 3.5H11.54C10.99 3.5 10.54 3.95 10.54 4.5V5.41C10.54 6.29 10.07 7.11 9.34 7.51C9.29999 7.54 9.26 7.56 9.22 7.58C9.20999 7.58 9.20999 7.59 9.2 7.59C9.13 7.62 9.05999 7.65 8.98 7.68C8.96 7.69 8.93999 7.69 8.92 7.7C8.8 7.74 8.66999 7.77 8.53 7.78H8.51999C8.36999 7.8 8.21 7.8 8.06 7.78H8.05C7.91 7.77 7.78 7.74 7.66 7.7C7.55999 7.67 7.46 7.63 7.36 7.58C6.58 7.23 6.04 6.45 6.04 5.54V5.31C6.04 4.54 5.21999 4.08 4.57 4.41C4.55999 4.42 4.55 4.42 4.54 4.43H4.52999C4.46 4.48 4.4 4.53 4.33 4.58C4.22 4.67 4.10999 4.76 4.01 4.86C3.94 4.93 3.86999 5 3.80999 5.07C3.73 5.15 3.65999 5.23 3.59 5.32C3.53999 5.38 3.47999 5.44 3.44 5.51C3.38999 5.57 3.35 5.64 3.31 5.7C3.29999 5.71 3.29 5.72 3.28 5.74C3.19 5.87 3.11 6.02 3.04 6.16C3.02 6.18 3.01 6.19 3.01 6.21C2.95 6.33 2.89 6.45 2.84999 6.58C2.81999 6.63 2.81 6.67 2.78999 6.72C2.77 6.76 2.75999 6.81 2.74 6.85C2.71 6.95 2.68 7.06 2.65 7.17C2.60999 7.31 2.57999 7.46 2.56 7.61C2.54 7.72 2.53 7.83 2.51999 7.95C2.51 8.09 2.5 8.23 2.5 8.37V17.13C2.5 19.82 4.67999 22 7.37 22H12.19C12.7399 22 13.1899 21.55 13.1899 21V17.86C13.1899 15.56 15.1 13.69 17.4499 13.69C17.98 13.68 19.27 13.68 20.5 13.68C21.0499 13.68 21.4999 13.23 21.4999 12.68V8.37C21.4999 6.78 20.74 5.39 19.57 4.5ZM11.13 15.91C11.04 16.21 10.76 16.42 10.43 16.42H6.79C6.74 16.42 6.7 16.42 6.65999 16.4C6.29999 16.35 6.04 16.04 6.04 15.67C6.04 15.25 6.37 14.91 6.79 14.91H10.43C10.84 14.91 11.18 15.25 11.18 15.67C11.18 15.75 11.17 15.84 11.13 15.91ZM13.9099 12.2C13.8199 12.5 13.54 12.71 13.21 12.71H6.79C6.74 12.71 6.7 12.71 6.65999 12.69C6.29999 12.64 6.04 12.33 6.04 11.96C6.04 11.54 6.37 11.2 6.79 11.2H13.21C13.63 11.2 13.96 11.54 13.96 11.96C13.96 12.04 13.95 12.13 13.9099 12.2Z" fill="white"/>
</svg>
