<svg width="24" height="24" viewBox="0 0 24 24" fill="none" xmlns="http://www.w3.org/2000/svg">
<path d="M21.9615 11.6608C20.7715 10.9108 19.3915 10.5008 17.9715 10.5008C13.8315 10.5008 10.4715 13.8608 10.4715 18.0008C10.4715 19.4208 10.8715 20.7908 11.6215 21.9808C11.1615 21.9708 10.6915 21.9208 10.2115 21.8508C6.10146 21.1508 2.79145 17.8208 2.11146 13.7008C0.981449 6.85075 6.82146 1.01075 13.6714 2.14075C17.7915 2.82076 21.1215 6.13075 21.8215 10.2408C21.9015 10.7208 21.9514 11.2008 21.9615 11.6608Z" fill="white"/>
<path d="M13.3787 21.86C12.4988 20.82 11.9688 19.47 11.9688 18C11.9688 14.69 14.6588 12 17.9687 12C19.4387 12 20.7887 12.53 21.8288 13.41" fill="white"/>
</svg>
