<svg width="24" height="24" viewBox="0 0 24 24" fill="none" xmlns="http://www.w3.org/2000/svg">
<path d="M16.42 7.94719C18.86 10.3872 18.86 14.3472 16.42 16.7872C13.98 19.2271 10.02 19.2271 7.58 16.7872C5.14 14.3472 5.14 10.3872 7.58 7.94719C10.02 5.50719 13.98 5.50719 16.42 7.94719Z" fill="white"/>
<path d="M8.24905 22.3889C8.15905 22.3889 8.05906 22.3689 7.96906 22.3389C5.71906 21.4389 3.89905 19.8489 2.67906 17.7489C1.49905 15.6989 1.02905 13.3789 1.33906 11.0189C1.38906 10.6089 1.77906 10.3189 2.17906 10.3689C2.58906 10.4189 2.87905 10.7989 2.82906 11.2089C2.56906 13.2389 2.96905 15.2389 3.97906 16.9989C5.01906 18.7989 6.58906 20.1689 8.51905 20.9389C8.89906 21.0989 9.08905 21.5289 8.93905 21.9189C8.82906 22.2089 8.53906 22.3889 8.24905 22.3889Z" fill="white"/>
<path d="M5.84961 5.22937C5.62962 5.22937 5.40961 5.12937 5.25961 4.93938C4.99962 4.61937 5.05962 4.14938 5.38962 3.88938C7.28961 2.39938 9.57961 1.60938 11.9996 1.60938C14.3596 1.60938 16.6096 2.36937 18.4996 3.80937C18.8296 4.05937 18.8896 4.52937 18.6396 4.85938C18.3896 5.18938 17.9196 5.24937 17.5896 4.99938C15.9596 3.75937 14.0296 3.10937 11.9996 3.10937C9.91962 3.10937 7.94961 3.78938 6.30961 5.06938C6.16962 5.17938 6.00961 5.22937 5.84961 5.22937Z" fill="white"/>
<path d="M15.7488 22.3906C15.4488 22.3906 15.1687 22.2106 15.0487 21.9206C14.8987 21.5406 15.0787 21.1006 15.4687 20.9406C17.3988 20.1606 18.9688 18.8006 20.0088 17.0006C21.0288 15.2406 21.4288 13.2406 21.1588 11.2206C21.1087 10.8106 21.3988 10.4306 21.8088 10.3806C22.2088 10.3306 22.5988 10.6206 22.6488 11.0306C22.9488 13.3806 22.4887 15.7106 21.3088 17.7606C20.0988 19.8606 18.2688 21.4406 16.0188 22.3506C15.9388 22.3706 15.8488 22.3906 15.7488 22.3906Z" fill="white"/>
</svg>
