<svg width="24" height="24" viewBox="0 0 24 24" fill="none" xmlns="http://www.w3.org/2000/svg">
<path d="M16.192 2H7.81196C4.17195 2 2.00195 4.17 2.00195 7.81V16.18C2.00195 19.83 4.17195 22 7.81196 22H16.182C19.822 22 21.9919 19.83 21.9919 16.19V7.81C22.002 4.17 19.832 2 16.192 2ZM19.002 8.24C19.002 8.79 18.552 9.24 18.0019 9.24H16.002C15.592 9.24 15.252 9.58 15.252 9.99C15.252 10.41 15.592 10.74 16.002 10.74H18.0019C18.552 10.74 19.002 11.19 19.002 11.74V12.25C19.002 12.8 18.552 13.25 18.0019 13.25H16.002C15.592 13.25 15.252 13.59 15.252 14C15.252 14.41 15.592 14.75 16.002 14.75H18.0019C18.552 14.75 19.002 15.2 19.002 15.75V16C19.002 17.66 17.662 19 16.002 19H8.00195C6.34196 19 5.00195 17.66 5.00195 16V15.5C5.00195 14.95 5.45195 14.5 6.00195 14.5H7.48196C8.95196 14.5 10.122 13.24 9.97196 11.74C9.84195 10.44 8.65196 9.5 7.34195 9.5H6.00195C5.45195 9.5 5.00195 9.05 5.00195 8.5V8C5.00195 6.34 6.34196 5 8.00195 5H16.002C17.662 5 19.002 6.34 19.002 8V8.24ZM5.00195 12C5.00195 11.45 5.45195 11 6.00195 11H7.00196C7.55195 11 8.00195 11.45 8.00195 12C8.00195 12.55 7.55195 13 7.00196 13H6.00195C5.45195 13 5.00195 12.55 5.00195 12Z" fill="white"/>
</svg>
