<svg width="24" height="24" viewBox="0 0 24 24" fill="none" xmlns="http://www.w3.org/2000/svg">
<path d="M13.25 12.584V14.564C13.25 15.254 12.69 15.8141 12 15.8141C11.31 15.8141 10.75 15.254 10.75 14.564V12.584C10.39 12.3641 10.11 12.044 9.91 11.6641H3.00001C2.45 11.6641 2 12.114 2 12.6641V16.1941C2 19.4041 4.6 22.004 7.81 22.004H16.1801C19.4 22.004 22.0001 19.4041 22.0001 16.1941V12.6641C22.0001 12.114 21.55 11.6641 21 11.6641H14.09C13.89 12.044 13.61 12.3641 13.25 12.584Z" fill="white"/>
<path d="M16.19 2H7.81C4.6 2 2 4.6 2 7.81V9.16C2 9.71 2.45 10.16 3.00001 10.16H9.67C9.90001 8.84 11.21 7.9 12.6401 8.28C13.44 8.49 14.09 9.14 14.3 9.93999C14.3201 10.01 14.3201 10.09 14.33 10.16H21C21.55 10.16 22.0001 9.71 22.0001 9.16V7.81C22.0001 4.6 19.4 2 16.19 2Z" fill="white"/>
</svg>
