<svg width="24" height="24" viewBox="0 0 24 24" fill="none" xmlns="http://www.w3.org/2000/svg">
<path d="M16.19 2H7.81C4.17001 2 2 4.17 2 7.81V16.18C2 19.83 4.17001 22 7.81 22H16.1801C19.82 22 21.99 19.83 21.99 16.19V7.81C22.0001 4.17 19.83 2 16.19 2ZM6.5 12.57H9.27001C9.68 12.57 10.02 12.91 10.02 13.32C10.02 13.73 9.68 14.07 9.27001 14.07H6.5C6.09001 14.07 5.75 13.73 5.75 13.32C5.75 12.91 6.09001 12.57 6.5 12.57ZM12.9701 17.83H6.5C6.09001 17.83 5.75 17.49 5.75 17.08C5.75 16.67 6.09001 16.33 6.5 16.33H12.9701C13.38 16.33 13.7201 16.67 13.7201 17.08C13.7201 17.49 13.3901 17.83 12.9701 17.83ZM17.5001 17.83H15.65C15.24 17.83 14.9 17.49 14.9 17.08C14.9 16.67 15.24 16.33 15.65 16.33H17.5001C17.91 16.33 18.2501 16.67 18.2501 17.08C18.2501 17.49 17.91 17.83 17.5001 17.83ZM17.5001 14.07H11.97C11.56 14.07 11.22 13.73 11.22 13.32C11.22 12.91 11.56 12.57 11.97 12.57H17.5001C17.91 12.57 18.2501 12.91 18.2501 13.32C18.2501 13.73 17.91 14.07 17.5001 14.07Z" fill="white"/>
</svg>
