<svg width="24" height="24" viewBox="0 0 24 24" fill="none" xmlns="http://www.w3.org/2000/svg">
<path d="M18.4788 12.25C18.7587 12.25 18.9987 12.01 18.9787 11.73C18.7087 8.1 15.6888 5.25 11.9987 5.25C8.30875 5.25 5.28874 8.1 5.01874 11.73C4.99875 12.01 5.23875 12.25 5.51875 12.25H18.4788Z" fill="white"/>
<path d="M22 13H21.9199C21.37 13 20.92 12.55 20.92 12C20.92 11.45 21.37 11 21.9199 11C22.47 11 22.96 11.45 22.96 12C22.96 12.55 22.5499 13 22 13ZM2.08 13H2C1.45 13 1 12.55 1 12C1 11.45 1.45 11 2 11C2.54999 11 3.04 11.45 3.04 12C3.04 12.55 2.63 13 2.08 13ZM19.0099 5.98999C18.75 5.98999 18.4999 5.89 18.3 5.7C17.91 5.31 17.91 4.68 18.3 4.29L18.43 4.15999C18.82 3.76999 19.45 3.76999 19.84 4.15999C20.23 4.54999 20.23 5.17999 19.84 5.56999L19.71 5.7C19.5199 5.89 19.27 5.98999 19.0099 5.98999ZM4.99 5.98999C4.73 5.98999 4.48 5.89 4.28 5.7L4.15 5.56C3.76 5.17 3.76 4.54 4.15 4.15C4.54 3.76 5.17 3.76 5.56 4.15L5.69 4.27999C6.08 4.66999 6.08 5.29999 5.69 5.68999C5.5 5.89 5.24 5.98999 4.99 5.98999ZM12 3.04C11.45 3.04 11 2.62999 11 2.08V1.99999C11 1.45 11.45 1 12 1C12.55 1 13 1.45 13 1.99999C13 2.55 12.55 3.04 12 3.04Z" fill="white"/>
<path d="M19.9999 15.75H4C3.59 15.75 3.25 15.41 3.25 15C3.25 14.59 3.59 14.25 4 14.25H19.9999C20.41 14.25 20.7499 14.59 20.7499 15C20.7499 15.41 20.41 15.75 19.9999 15.75Z" fill="white"/>
<path d="M18 18.75H6C5.59 18.75 5.25 18.41 5.25 18C5.25 17.59 5.59 17.25 6 17.25H18C18.41 17.25 18.75 17.59 18.75 18C18.75 18.41 18.41 18.75 18 18.75Z" fill="white"/>
<path d="M15 21.75H9C8.59 21.75 8.25 21.41 8.25 21C8.25 20.59 8.59 20.25 9 20.25H15C15.41 20.25 15.75 20.59 15.75 21C15.75 21.41 15.41 21.75 15 21.75Z" fill="white"/>
</svg>
