<svg width="24" height="24" viewBox="0 0 24 24" fill="none" xmlns="http://www.w3.org/2000/svg">
<g clip-path="url(#clip0_13_15672)">
<mask id="mask0_13_15672" style="mask-type:luminance" maskUnits="userSpaceOnUse" x="0" y="0" width="24" height="24">
<path d="M24 0H0V24H24V0Z" fill="white"/>
</mask>
<g mask="url(#mask0_13_15672)">
<path d="M12 19.0039C15.866 19.0039 19.0001 15.8699 19.0001 12.0039C19.0001 8.13791 15.866 5.00391 12 5.00391C8.13402 5.00391 5 8.13791 5 12.0039C5 15.8699 8.13402 19.0039 12 19.0039Z" fill="white"/>
<path d="M12 22.96C11.45 22.96 11 22.55 11 22V21.92C11 21.37 11.45 20.92 12 20.92C12.55 20.92 13 21.37 13 21.92C13 22.47 12.55 22.96 12 22.96ZM19.14 20.14C18.88 20.14 18.63 20.04 18.43 19.85L18.3 19.72C17.91 19.33 17.91 18.7 18.3 18.31C18.69 17.92 19.32 17.92 19.71 18.31L19.84 18.44C20.23 18.83 20.23 19.46 19.84 19.85C19.65 20.04 19.3999 20.14 19.14 20.14ZM4.85999 20.14C4.6 20.14 4.34999 20.04 4.15 19.85C3.76 19.46 3.76 18.83 4.15 18.44L4.28 18.31C4.67 17.92 5.3 17.92 5.69 18.31C6.08 18.7 6.08 19.33 5.69 19.72L5.56 19.85C5.36999 20.04 5.11 20.14 4.85999 20.14ZM22 13H21.9199C21.37 13 20.92 12.55 20.92 12C20.92 11.45 21.37 11 21.9199 11C22.47 11 22.96 11.45 22.96 12C22.96 12.55 22.5499 13 22 13ZM2.08 13H2C1.45 13 1 12.55 1 12C1 11.45 1.45 11 2 11C2.54999 11 3.04 11.45 3.04 12C3.04 12.55 2.63 13 2.08 13ZM19.0099 5.99C18.75 5.99 18.4999 5.89 18.3 5.7C17.91 5.31 17.91 4.68 18.3 4.29L18.43 4.15999C18.82 3.76999 19.45 3.76999 19.84 4.15999C20.23 4.54999 20.23 5.17999 19.84 5.56999L19.71 5.7C19.5199 5.89 19.27 5.99 19.0099 5.99ZM4.99 5.99C4.73 5.99 4.48 5.89 4.28 5.7L4.15 5.56C3.76 5.17 3.76 4.54 4.15 4.15C4.54 3.76 5.17 3.76 5.56 4.15L5.69 4.27999C6.08 4.67 6.08 5.29999 5.69 5.68999C5.5 5.89 5.24 5.99 4.99 5.99ZM12 3.04C11.45 3.04 11 2.62999 11 2.08V1.99999C11 1.45 11.45 1 12 1C12.55 1 13 1.45 13 1.99999C13 2.55 12.55 3.04 12 3.04Z" fill="white"/>
</g>
</g>
<defs>
<clipPath id="clip0_13_15672">
<rect width="24" height="24" fill="white"/>
</clipPath>
</defs>
</svg>
