<svg width="24" height="24" viewBox="0 0 24 24" fill="none" xmlns="http://www.w3.org/2000/svg">
<path d="M11.9996 2.39844C12.4966 2.39844 12.8996 2.80139 12.8996 3.29844V5.09844C12.8996 5.59549 12.4966 5.99844 11.9996 5.99844C11.5026 5.99844 11.0996 5.59549 11.0996 5.09844V3.29844C11.0996 2.80139 11.5026 2.39844 11.9996 2.39844Z" fill="#0F172A"/>
<path d="M11.9996 18C12.4966 18 12.8996 18.403 12.8996 18.9V20.7C12.8996 21.197 12.4966 21.6 11.9996 21.6C11.5026 21.6 11.0996 21.197 11.0996 20.7V18.9C11.0996 18.403 11.5026 18 11.9996 18Z" fill="#0F172A"/>
<path d="M12.0004 8.39844C10.0122 8.39844 8.40039 10.0102 8.40039 11.9984C8.40039 13.9867 10.0122 15.5984 12.0004 15.5984C13.9887 15.5984 15.6004 13.9867 15.6004 11.9984C15.6004 10.0102 13.9887 8.39844 12.0004 8.39844Z" fill="#0F172A"/>
<path d="M18.7877 6.48562C19.1392 6.13414 19.1392 5.5643 18.7877 5.21283C18.4362 4.86135 17.8663 4.86135 17.5148 5.21283L16.2421 6.48562C15.8906 6.83709 15.8906 7.40693 16.2421 7.75841C16.5936 8.10988 17.1634 8.10988 17.5148 7.75841L18.7877 6.48562Z" fill="#0F172A"/>
<path d="M7.75646 17.5168C8.10793 17.1654 8.10793 16.5956 7.75646 16.2441C7.40498 15.8926 6.83514 15.8926 6.48367 16.2441L5.21088 17.5168C4.8594 17.8683 4.8594 18.4382 5.21088 18.7896C5.56234 19.1411 6.13219 19.1411 6.48367 18.7896L7.75646 17.5168Z" fill="#0F172A"/>
<path d="M21.6 12.0016C21.6 12.4986 21.197 12.9016 20.7 12.9016H18.9C18.403 12.9016 18 12.4986 18 12.0016C18 11.5045 18.403 11.1016 18.9 11.1016H20.7C21.197 11.1016 21.6 11.5045 21.6 12.0016Z" fill="#0F172A"/>
<path d="M6.00039 12.0016C6.00039 12.4986 5.59744 12.9016 5.10039 12.9016H3.30039C2.80334 12.9016 2.40039 12.4986 2.40039 12.0016C2.40039 11.5045 2.80334 11.1016 3.30039 11.1016H5.10039C5.59744 11.1016 6.00039 11.5045 6.00039 12.0016Z" fill="#0F172A"/>
<path d="M17.5148 18.7896C17.8663 19.1411 18.4362 19.1411 18.7877 18.7896C19.1392 18.4382 19.1392 17.8683 18.7877 17.5168L17.5148 16.2441C17.1634 15.8926 16.5936 15.8926 16.2421 16.2441C15.8906 16.5956 15.8906 17.1653 16.2421 17.5168L17.5148 18.7896Z" fill="#0F172A"/>
<path d="M6.48366 7.75841C6.83514 8.10988 7.40498 8.10988 7.75645 7.75841C8.10793 7.40693 8.10793 6.83709 7.75645 6.48562L6.48366 5.21283C6.13219 4.86135 5.56235 4.86135 5.21087 5.21283C4.8594 5.5643 4.8594 6.13414 5.21087 6.48562L6.48366 7.75841Z" fill="#0F172A"/>
</svg>
