<svg width="24" height="24" viewBox="0 0 24 24" fill="none" xmlns="http://www.w3.org/2000/svg">
<path fill-rule="evenodd" clip-rule="evenodd" d="M4.20039 2.39844C3.20627 2.39844 2.40039 3.20432 2.40039 4.19844V17.9984C2.40039 19.9867 4.01217 21.5984 6.00039 21.5984C7.98861 21.5984 9.60039 19.9867 9.60039 17.9984V4.19844C9.60039 3.20432 8.79451 2.39844 7.80039 2.39844H4.20039ZM18.304 10.7859L11.4004 17.6896V7.50721L13.2129 5.69475C13.9158 4.99181 15.0555 4.99181 15.7584 5.69475L18.304 8.24034C19.007 8.94327 19.007 10.083 18.304 10.7859ZM10.0371 21.5984H19.8004C20.7945 21.5984 21.6004 20.7925 21.6004 19.7984V16.1984C21.6004 15.2044 20.7945 14.3984 19.8004 14.3984H17.2372L10.0371 21.5984ZM6.00039 19.1984C6.66313 19.1984 7.20039 18.6612 7.20039 17.9984C7.20039 17.3357 6.66313 16.7984 6.00039 16.7984C5.33765 16.7984 4.80039 17.3357 4.80039 17.9984C4.80039 18.6612 5.33765 19.1984 6.00039 19.1984Z" fill="#0F172A"/>
</svg>
