<svg width="24" height="24" viewBox="0 0 24 24" fill="none" xmlns="http://www.w3.org/2000/svg">
<path fill-rule="evenodd" clip-rule="evenodd" d="M1.1875 6.28955C1.1875 4.79838 2.40834 3.60156 3.89951 3.60156H20.0995C21.5906 3.60156 22.7995 4.81039 22.7995 6.30156L22.8115 17.7016C22.8115 19.1927 21.6028 20.4016 20.1115 20.4016C15.5116 20.4016 8.51152 20.4016 3.91152 20.4016C2.42036 20.4016 1.19951 19.1807 1.19951 17.6896L1.1875 6.28955ZM11.0995 17.7136V16.9636C11.0995 16.4665 10.6966 16.0636 10.1995 16.0636H3.89951C3.40246 16.0636 2.99951 16.4665 2.99951 16.9636V17.7016C2.99951 18.1986 3.40246 18.6016 3.89951 18.6016H10.3469C10.7738 18.5312 11.0995 18.1604 11.0995 17.7136ZM12.8995 17.7136C12.8995 18.1604 13.2252 18.5312 13.6522 18.6016H20.0995C20.5966 18.6016 20.9995 18.1986 20.9995 17.7016V16.9636C20.9995 16.4665 20.5966 16.0636 20.0995 16.0636H13.7995C13.3025 16.0636 12.8995 16.4665 12.8995 16.9636V17.7136ZM20.9995 13.3576V12.6076C20.9995 12.1105 20.5966 11.7076 20.0995 11.7076H13.7995C13.3025 11.7076 12.8995 12.1105 12.8995 12.6076V13.3576C12.8995 13.8546 13.3025 14.2576 13.7995 14.2576H20.0995C20.5966 14.2576 20.9995 13.8546 20.9995 13.3576ZM11.0995 13.3576V12.6076C11.0995 12.1105 10.6966 11.7076 10.1995 11.7076H3.89951C3.40246 11.7076 2.99951 12.1105 2.99951 12.6076V13.3576C2.99951 13.8546 3.40246 14.2576 3.89951 14.2576H10.1995C10.6966 14.2576 11.0995 13.8546 11.0995 13.3576ZM20.9995 9.00156V8.25156C20.9995 7.75451 20.5966 7.35156 20.0995 7.35156H13.7995C13.3025 7.35156 12.8995 7.75451 12.8995 8.25156V9.00156C12.8995 9.49861 13.3025 9.90156 13.7995 9.90156H20.0995C20.5966 9.90156 20.9995 9.49861 20.9995 9.00156ZM11.0995 9.00156V8.25156C11.0995 7.75451 10.6966 7.35156 10.1995 7.35156H3.89951C3.40246 7.35156 2.99951 7.75451 2.99951 8.25156V9.00156C2.99951 9.49861 3.40246 9.90156 3.89951 9.90156H10.1995C10.6966 9.90156 11.0995 9.49861 11.0995 9.00156Z" fill="#0F172A"/>
</svg>
