<svg width="24" height="24" viewBox="0 0 24 24" fill="none" xmlns="http://www.w3.org/2000/svg">
<path d="M17.8796 6.11766L3.9196 20.0776C3.48961 20.5077 2.76961 20.4676 2.4196 19.9777C1.9196 19.2877 1.8196 18.3277 2.3396 17.4976L5.0996 13.0677C5.46961 12.4777 5.46961 11.5176 5.0996 10.9276L2.3396 6.49765C1.4096 5.01766 2.4796 3.09766 4.2196 3.09766H15.6696C16.3496 3.09766 17.1896 3.56766 17.5496 4.13766L18.0196 4.87765C18.2596 5.27766 18.2096 5.78766 17.8796 6.11766Z" fill="white"/>
<path d="M21.6299 13.108L16.4499 20.008C16.0899 20.4981 15.2899 20.8981 14.6699 20.8981H7.50987C6.61987 20.8981 6.16987 19.8181 6.79987 19.1881L18.3199 7.67804C18.7699 7.22804 19.5399 7.30803 19.8799 7.85804L21.7299 10.8281C22.1299 11.4681 22.0899 12.4981 21.6299 13.108Z" fill="white"/>
</svg>
