<svg width="24" height="24" viewBox="0 0 24 24" fill="none" xmlns="http://www.w3.org/2000/svg">
<path d="M19.8305 8.6998L15.3005 4.1698C14.3506 3.2198 13.0405 2.7098 11.7005 2.77981L6.70046 3.01981C4.70046 3.10981 3.11046 4.69981 3.01046 6.6898L2.77046 11.6898C2.71046 13.0298 3.21047 14.3398 4.16046 15.2898L8.69046 19.8198C10.5505 21.6798 13.5706 21.6798 15.4405 19.8198L19.8305 15.4298C21.7006 13.5798 21.7006 10.5598 19.8305 8.6998ZM9.50046 12.3798C7.92047 12.3798 6.62046 11.0898 6.62046 9.49981C6.62046 7.90981 7.92047 6.61981 9.50046 6.61981C11.0805 6.61981 12.3805 7.90981 12.3805 9.49981C12.3805 11.0898 11.0805 12.3798 9.50046 12.3798ZM17.5306 13.5298L13.5305 17.5298C13.3805 17.6798 13.1905 17.7498 13.0006 17.7498C12.8105 17.7498 12.6205 17.6798 12.4705 17.5298C12.1805 17.2398 12.1805 16.7598 12.4705 16.4698L16.4705 12.4698C16.7605 12.1798 17.2405 12.1798 17.5306 12.4698C17.8205 12.7598 17.8205 13.2398 17.5306 13.5298Z" fill="white"/>
</svg>
