<svg width="24" height="24" viewBox="0 0 24 24" fill="none" xmlns="http://www.w3.org/2000/svg">
<path fill-rule="evenodd" clip-rule="evenodd" d="M5.40039 2.39844C3.74354 2.39844 2.40039 3.74159 2.40039 5.39844V10.0529C2.40039 10.8485 2.71646 11.6116 3.27907 12.1741L12.279 21.1741C13.4506 22.3458 15.3502 22.3458 16.5218 21.1741L21.1761 16.5198C22.3477 15.3482 22.3477 13.4486 21.1761 12.2771L12.1761 3.27711C11.6135 2.71451 10.8505 2.39844 10.0548 2.39844H5.40039ZM6.00039 7.19844C6.66313 7.19844 7.20039 6.66117 7.20039 5.99844C7.20039 5.3357 6.66313 4.79844 6.00039 4.79844C5.33765 4.79844 4.80039 5.3357 4.80039 5.99844C4.80039 6.66117 5.33765 7.19844 6.00039 7.19844Z" fill="#0F172A"/>
</svg>
