<svg width="24" height="24" viewBox="0 0 24 24" fill="none" xmlns="http://www.w3.org/2000/svg">
<path d="M16.19 2H7.81C4.17001 2 2 4.17 2 7.81V16.19C2 19.83 4.17001 22 7.81 22H16.19C19.83 22 22.0001 19.83 22.0001 16.19V7.81C22.0001 4.17 19.83 2 16.19 2ZM9.97 14.9L7.72 17.15C7.57 17.3 7.38001 17.37 7.19 17.37C7 17.37 6.8 17.3 6.66001 17.15L5.91001 16.4C5.61001 16.11 5.61001 15.63 5.91001 15.34C6.2 15.05 6.67 15.05 6.97 15.34L7.19 15.56L8.91001 13.84C9.2 13.55 9.67 13.55 9.97 13.84C10.26 14.13 10.26 14.61 9.97 14.9ZM9.97 7.9L7.72 10.15C7.57 10.3 7.38001 10.37 7.19 10.37C7 10.37 6.8 10.3 6.66001 10.15L5.91001 9.39999C5.61001 9.11 5.61001 8.63 5.91001 8.34C6.2 8.05 6.67 8.05 6.97 8.34L7.19 8.56L8.91001 6.84C9.2 6.55 9.67 6.55 9.97 6.84C10.26 7.13 10.26 7.61 9.97 7.9ZM17.5601 16.62H12.3101C11.9 16.62 11.56 16.28 11.56 15.87C11.56 15.46 11.9 15.12 12.3101 15.12H17.5601C17.9801 15.12 18.3101 15.46 18.3101 15.87C18.3101 16.28 17.9801 16.62 17.5601 16.62ZM17.5601 9.62H12.3101C11.9 9.62 11.56 9.28 11.56 8.87C11.56 8.46 11.9 8.12 12.3101 8.12H17.5601C17.9801 8.12 18.3101 8.46 18.3101 8.87C18.3101 9.28 17.9801 9.62 17.5601 9.62Z" fill="white"/>
</svg>
