<svg width="24" height="24" viewBox="0 0 24 24" fill="none" xmlns="http://www.w3.org/2000/svg">
<path d="M20.0013 19.2611H10.9313C10.4813 19.2611 10.1113 18.8911 10.1113 18.4411C10.1113 17.9911 10.4813 17.6211 10.9313 17.6211H20.0013C20.4513 17.6211 20.8214 17.9911 20.8214 18.4411C20.8214 18.9011 20.4513 19.2611 20.0013 19.2611Z" fill="white"/>
<path d="M20.0013 12.9682H10.9313C10.4813 12.9682 10.1113 12.5981 10.1113 12.1481C10.1113 11.6981 10.4813 11.3281 10.9313 11.3281H20.0013C20.4513 11.3281 20.8214 11.6981 20.8214 12.1481C20.8214 12.5981 20.4513 12.9682 20.0013 12.9682Z" fill="white"/>
<path d="M20.0013 6.67124H10.9313C10.4813 6.67124 10.1113 6.30125 10.1113 5.85125C10.1113 5.40125 10.4813 5.03125 10.9313 5.03125H20.0013C20.4513 5.03125 20.8214 5.40125 20.8214 5.85125C20.8214 6.30125 20.4513 6.67124 20.0013 6.67124Z" fill="white"/>
<path d="M4.90969 8.03188C4.68969 8.03188 4.47969 7.94188 4.32969 7.79188L3.41968 6.88187C3.09969 6.56188 3.09969 6.04187 3.41968 5.72188C3.73969 5.40187 4.25968 5.40187 4.57969 5.72188L4.90969 6.05188L7.04968 3.91187C7.36969 3.59188 7.88968 3.59188 8.20969 3.91187C8.52969 4.23187 8.52969 4.75187 8.20969 5.07187L5.48968 7.79188C5.32969 7.94188 5.12968 8.03188 4.90969 8.03188Z" fill="white"/>
<path d="M4.90969 14.3287C4.69969 14.3287 4.48969 14.2488 4.32969 14.0887L3.41968 13.1788C3.09969 12.8587 3.09969 12.3388 3.41968 12.0187C3.73969 11.6987 4.25968 11.6987 4.57969 12.0187L4.90969 12.3487L7.04968 10.2087C7.36969 9.88875 7.88968 9.88875 8.20969 10.2087C8.52969 10.5287 8.52969 11.0487 8.20969 11.3687L5.48968 14.0887C5.32969 14.2488 5.11969 14.3287 4.90969 14.3287Z" fill="white"/>
<path d="M4.90969 20.3287C4.69969 20.3287 4.48969 20.2488 4.32969 20.0887L3.41968 19.1788C3.09969 18.8587 3.09969 18.3388 3.41968 18.0187C3.73969 17.6988 4.25968 17.6988 4.57969 18.0187L4.90969 18.3487L7.04968 16.2088C7.36969 15.8887 7.88968 15.8887 8.20969 16.2088C8.52969 16.5288 8.52969 17.0488 8.20969 17.3688L5.48968 20.0887C5.32969 20.2488 5.11969 20.3287 4.90969 20.3287Z" fill="white"/>
</svg>
