<svg width="24" height="24" viewBox="0 0 24 24" fill="none" xmlns="http://www.w3.org/2000/svg">
<path d="M16.831 15.6402C17.5011 15.2002 18.3811 15.6802 18.3811 16.4802V17.7702C18.3811 19.0402 17.3911 20.4001 16.201 20.8002L13.0111 21.8602C12.451 22.0501 11.5411 22.0501 10.9911 21.8602L7.8011 20.8002C6.6011 20.4001 5.62109 19.0402 5.62109 17.7702V16.4701C5.62109 15.6802 6.5011 15.2002 7.1611 15.6301L9.22109 16.9702C10.0111 17.5002 11.0111 17.7601 12.0111 17.7601C13.0111 17.7601 14.011 17.5002 14.8011 16.9702L16.831 15.6402Z" fill="white"/>
<path d="M19.9796 6.45859L13.9895 2.52859C12.9095 1.8186 11.1295 1.8186 10.0495 2.52859L4.02954 6.45859C2.09953 7.70859 2.09953 10.5385 4.02954 11.7985L5.62953 12.8385L10.0495 15.7185C11.1295 16.4285 12.9095 16.4285 13.9895 15.7185L18.3795 12.8385L19.7495 11.9385V14.9985C19.7495 15.4085 20.0895 15.7485 20.4995 15.7485C20.9096 15.7485 21.2495 15.4085 21.2495 14.9985V10.0785C21.6495 8.78859 21.2396 7.28859 19.9796 6.45859Z" fill="white"/>
</svg>
