<svg width="24" height="24" viewBox="0 0 24 24" fill="none" xmlns="http://www.w3.org/2000/svg">
<path d="M21.7101 9.89936L19.3101 5.07937C18.8401 4.12938 17.5901 3.35938 16.5301 3.35938H7.4701C6.4101 3.35938 5.1601 4.12938 4.6901 5.07937L2.2901 9.89936C1.71009 11.0594 2.03009 12.7094 2.9801 13.5794L9.9101 19.8694C11.0601 20.9094 12.9301 20.9094 14.08 19.8694L21.01 13.5794C21.97 12.7094 22.2901 11.0494 21.7101 9.89936ZM16.0001 9.24937H12.7501V14.4994C12.7501 14.9094 12.4101 15.2494 12.0001 15.2494C11.5901 15.2494 11.2501 14.9094 11.2501 14.4994V9.24937H8.0001C7.5901 9.24937 7.2501 8.90937 7.2501 8.49937C7.2501 8.08938 7.5901 7.74937 8.0001 7.74937H16.0001C16.4101 7.74937 16.7501 8.08938 16.7501 8.49937C16.7501 8.90937 16.4101 9.24937 16.0001 9.24937Z" fill="white"/>
</svg>
