<svg width="24" height="24" viewBox="0 0 24 24" fill="none" xmlns="http://www.w3.org/2000/svg">
<path d="M20.9501 4.13C20.66 3.71 20.2901 3.34 19.8701 3.05C18.92 2.36 17.6801 2 16.19 2H7.81C7.61 2 7.41001 2.01 7.22 2.03C3.94 2.24 2 4.37 2 7.81V16.19C2 17.68 2.36 18.92 3.05 19.87C3.34 20.29 3.71 20.66 4.13 20.95C4.95001 21.55 5.99 21.9 7.22 21.98C7.41001 21.99 7.61 22 7.81 22H16.19C19.83 22 22.0001 19.83 22.0001 16.19V7.81C22.0001 6.32 21.6401 5.08 20.9501 4.13ZM16.83 18.96H7.17001C6.76 18.96 6.42001 18.62 6.42001 18.21C6.42001 17.8 6.76 17.46 7.17001 17.46H16.8401C17.25 17.46 17.5901 17.8 17.5901 18.21C17.5901 18.62 17.25 18.96 16.83 18.96ZM17.58 10.62C17.58 13.7 15.08 16.2 12 16.2C8.92 16.2 6.42001 13.7 6.42001 10.62V5.79C6.42001 5.38 6.76 5.04 7.17001 5.04C7.58 5.04 7.92001 5.38 7.92001 5.79V10.62C7.92001 12.87 9.75001 14.7 12 14.7C14.25 14.7 16.08 12.87 16.08 10.62V5.79C16.08 5.38 16.4201 5.04 16.83 5.04C17.24 5.04 17.58 5.38 17.58 5.79V10.62Z" fill="white"/>
</svg>
