<svg width="24" height="24" viewBox="0 0 24 24" fill="none" xmlns="http://www.w3.org/2000/svg">
<path d="M16.19 2H7.81C4.17001 2 2 4.17 2 7.81V16.18C2 19.83 4.17001 22 7.81 22H16.1801C19.82 22 21.99 19.83 21.99 16.19V7.81C22.0001 4.17 19.83 2 16.19 2ZM17.67 9.22C17.48 9.59 17.04 9.74 16.6601 9.56C15.4301 8.94 14.1 8.6 12.75 8.5V16.29C12.75 16.7 12.41 17.04 12 17.04C11.59 17.04 11.25 16.7 11.25 16.29V8.5C9.90001 8.6 8.57 8.94 7.34 9.56C7.23001 9.61 7.11001 9.63 7 9.63C6.73 9.63 6.46 9.48 6.33001 9.22C6.14 8.85 6.29 8.4 6.66001 8.21C10 6.54 13.9901 6.54 17.33 8.21C17.7101 8.4 17.8601 8.85 17.67 9.22Z" fill="white"/>
</svg>
