<svg width="24" height="24" viewBox="0 0 24 24" fill="none" xmlns="http://www.w3.org/2000/svg">
<path d="M20.9501 4.13C20.66 3.71 20.2901 3.34 19.8701 3.05C18.92 2.36 17.6801 2 16.19 2H7.81C7.61 2 7.41001 2.01 7.22 2.03C3.94 2.24 2 4.37 2 7.81V16.19C2 17.68 2.36 18.92 3.05 19.87C3.34 20.29 3.71 20.66 4.13 20.95C4.95001 21.55 5.99 21.9 7.22 21.98C7.41001 21.99 7.61 22 7.81 22H16.19C19.83 22 22.0001 19.83 22.0001 16.19V7.81C22.0001 6.32 21.6401 5.08 20.9501 4.13ZM15.87 7.51H13.92L11.68 16.48H13.52C13.9301 16.48 14.27 16.82 14.27 17.23C14.27 17.64 13.9301 17.98 13.52 17.98H8.13001C7.72 17.98 7.38001 17.64 7.38001 17.23C7.38001 16.82 7.72 16.48 8.13001 16.48H10.13L12.3701 7.51H10.48C10.07 7.51 9.73 7.17 9.73 6.76C9.73 6.35 10.07 6.01 10.48 6.01H15.86C16.2701 6.01 16.61 6.35 16.61 6.76C16.61 7.17 16.28 7.51 15.87 7.51Z" fill="white"/>
</svg>
