<svg width="24" height="24" viewBox="0 0 24 24" fill="none" xmlns="http://www.w3.org/2000/svg">
<path fill-rule="evenodd" clip-rule="evenodd" d="M18.9004 3.60156C20.3915 3.60156 21.6004 4.81039 21.6004 6.30156V7.7578C21.6004 8.26638 21.2675 8.70379 20.841 8.98097C19.8534 9.62287 19.2004 10.7359 19.2004 12.0016C19.2004 13.2672 19.8534 14.3802 20.841 15.0222C21.2675 15.2993 21.6004 15.7368 21.6004 16.2454V17.7016C21.6004 19.1927 20.3915 20.4016 18.9004 20.4016H5.10039C3.60922 20.4016 2.40039 19.1927 2.40039 17.7016V16.2454C2.40039 15.7368 2.73332 15.2993 3.15974 15.0222C4.14729 14.3802 4.80039 13.2672 4.80039 12.0016C4.80039 10.7359 4.14729 9.62287 3.15974 8.98097C2.73332 8.70379 2.40039 8.26638 2.40039 7.7578V6.30156C2.40039 4.81039 3.60922 3.60156 5.10039 3.60156H18.9004ZM16.2004 8.87656C16.2004 8.37951 15.7974 7.97656 15.3004 7.97656C14.8034 7.97656 14.4004 8.37951 14.4004 8.87656V10.1266C14.4004 10.6236 14.8034 11.0266 15.3004 11.0266C15.7974 11.0266 16.2004 10.6236 16.2004 10.1266V8.87656ZM16.2004 13.8766C16.2004 13.3795 15.7974 12.9766 15.3004 12.9766C14.8034 12.9766 14.4004 13.3795 14.4004 13.8766V15.1266C14.4004 15.6236 14.8034 16.0266 15.3004 16.0266C15.7974 16.0266 16.2004 15.6236 16.2004 15.1266V13.8766Z" fill="#0F172A"/>
</svg>
