<svg width="24" height="24" viewBox="0 0 24 24" fill="none" xmlns="http://www.w3.org/2000/svg">
<path d="M17.1907 4.96C17.1907 4.97 17.1907 4.97 17.1907 4.98C16.9407 4.97 16.6906 4.96 16.4206 4.96H8.7207L9.79071 3.9C10.7707 2.91 11.8507 2 13.1007 2C14.3607 2 15.4407 2.91 16.4206 3.9L16.9807 4.46C17.1207 4.59 17.1907 4.77 17.1907 4.96Z" fill="white"/>
<path d="M20.839 13.1692C21.229 13.1692 21.539 12.8492 21.539 12.4492V11.5692C21.539 7.63922 20.339 6.44922 16.4191 6.44922H10.119H7.57899C3.65898 6.44922 2.45898 7.64922 2.45898 11.5692V11.9992C2.45898 12.3992 2.76899 12.7091 3.15899 12.7091C3.99899 12.7091 4.66899 13.3892 4.66899 14.2192C4.66899 15.0491 3.99899 15.7391 3.15899 15.7391C2.76899 15.7391 2.45898 16.0492 2.45898 16.4492V16.8791C2.45898 20.8091 3.65898 21.9992 7.57899 21.9992H10.109H16.409C20.329 21.9992 21.529 20.7992 21.529 16.8791C21.529 16.4891 21.2191 16.1692 20.8291 16.1692C19.9891 16.1692 19.319 15.4993 19.319 14.6692C19.3291 13.8392 19.999 13.1692 20.839 13.1692ZM10.819 18.8591C10.819 19.2491 10.499 19.5692 10.109 19.5692C9.71898 19.5692 9.39899 19.2491 9.39899 18.8591V16.1792C9.39899 15.7892 9.71898 15.4691 10.109 15.4691C10.499 15.4691 10.819 15.7892 10.819 16.1792V18.8591ZM10.819 12.2692C10.819 12.6592 10.499 12.9793 10.109 12.9793C9.71898 12.9793 9.39899 12.6592 9.39899 12.2692V9.58922C9.39899 9.19922 9.71898 8.87922 10.109 8.87922C10.499 8.87922 10.819 9.19922 10.819 9.58922V12.2692Z" fill="white"/>
</svg>
