<svg width="24" height="24" viewBox="0 0 24 24" fill="none" xmlns="http://www.w3.org/2000/svg">
<path d="M16.6486 3.85938H9.90865V6.87938C9.90865 7.26938 9.58866 7.57937 9.20865 7.57937C8.82865 7.57937 8.50866 7.26938 8.50866 6.87938V3.85938H7.34865C3.39865 3.85938 2.09865 5.03937 2.00865 8.72937C1.99866 8.90937 2.07865 9.09937 2.20866 9.22937C2.33865 9.36937 2.50866 9.43937 2.70865 9.43937C4.10865 9.43937 5.25865 10.5994 5.25865 11.9994C5.25865 13.3994 4.10865 14.5594 2.70865 14.5594C2.51865 14.5594 2.33865 14.6294 2.20866 14.7694C2.07865 14.8994 1.99866 15.0894 2.00865 15.2694C2.09865 18.9594 3.39865 20.1394 7.34865 20.1394H8.50866V17.1194C8.50866 16.7294 8.82865 16.4194 9.20865 16.4194C9.58866 16.4194 9.90865 16.7294 9.90865 17.1194V20.1394H16.6486C20.7487 20.1394 21.9986 18.8894 21.9986 14.7894V9.20938C21.9986 5.10938 20.7487 3.85938 16.6486 3.85938ZM18.4687 11.8994L17.5387 12.7994C17.4986 12.8294 17.4886 12.8894 17.4986 12.9394L17.7187 14.2094C17.7586 14.4394 17.6686 14.6794 17.4686 14.8194C17.2786 14.9594 17.0287 14.9794 16.8187 14.8694L15.6686 14.2694C15.6286 14.2494 15.5686 14.2494 15.5287 14.2694L14.3786 14.8694C14.2886 14.9194 14.1886 14.9394 14.0887 14.9394C13.9586 14.9394 13.8386 14.8994 13.7287 14.8194C13.5386 14.6794 13.4386 14.4494 13.4786 14.2094L13.6987 12.9394C13.7086 12.8894 13.6886 12.8394 13.6586 12.7994L12.7286 11.8994C12.5587 11.7394 12.4987 11.4894 12.5686 11.2694C12.6386 11.0394 12.8287 10.8794 13.0687 10.8494L14.3486 10.6594C14.3986 10.6494 14.4386 10.6194 14.4686 10.5794L15.0386 9.41938C15.1486 9.20938 15.3586 9.07937 15.5986 9.07937C15.8386 9.07937 16.0486 9.20938 16.1486 9.41938L16.7186 10.5794C16.7386 10.6294 16.7786 10.6594 16.8286 10.6594L18.1087 10.8494C18.3487 10.8794 18.5386 11.0494 18.6086 11.2694C18.6986 11.4894 18.6386 11.7294 18.4687 11.8994Z" fill="white"/>
</svg>
