<svg width="24" height="24" viewBox="0 0 24 24" fill="none" xmlns="http://www.w3.org/2000/svg">
<path d="M19.8502 12.9408C19.8502 13.7408 20.5001 14.4008 21.3001 14.4008C21.6802 14.4008 22.0001 14.7108 22.0001 15.0908C22.0001 18.9308 20.8402 20.0908 17.0002 20.0908H11.7501V18.5008C11.7501 18.1108 11.4501 17.7908 11.0701 17.7608C11.0501 17.7508 11.0201 17.7508 11.0001 17.7508C10.5901 17.7508 10.2501 18.0908 10.2501 18.5008V20.0908H8.4901C6.61009 20.0908 5.6401 18.6808 4.76009 16.5508L4.5901 16.1308C4.45009 15.7708 4.6201 15.3608 4.9801 15.2208C5.35009 15.0808 5.6401 14.7908 5.7901 14.4108C5.95009 14.0408 5.95009 13.6308 5.80009 13.2608C5.48009 12.4908 4.60009 12.1208 3.82009 12.4308C3.65009 12.5108 3.4501 12.5108 3.28009 12.4308C3.11009 12.3608 2.98009 12.2208 2.90009 12.0408L2.75009 11.6408C1.2601 8.02079 1.91009 6.47078 5.53009 4.97078L7.9801 3.96079C8.3401 3.81079 8.75009 3.98078 8.89009 4.34078L11.0701 9.09079C10.6601 9.09079 10.2501 9.42079 10.2501 9.83078V14.1708C10.2501 14.5808 10.5901 14.9208 11.0001 14.9208C11.0201 14.9208 11.0501 14.9208 11.0701 14.9108C11.4501 14.8808 11.7501 14.5608 11.7501 14.1708V9.83078C11.7501 9.44078 11.4501 9.12079 11.0701 9.09079V4.93079H17.0002C20.8402 4.93079 22.0001 6.09079 22.0001 9.93079V10.7808C22.0001 11.1708 21.6802 11.4808 21.3001 11.4808C20.5001 11.4808 19.8502 12.1308 19.8502 12.9408Z" fill="white"/>
</svg>
