<svg width="24" height="24" viewBox="0 0 24 24" fill="none" xmlns="http://www.w3.org/2000/svg">
<path d="M12.0001 4.64844C7.22008 4.64844 3.33008 8.53844 3.33008 13.3184C3.33008 18.0984 7.22008 21.9984 12.0001 21.9984C16.7801 21.9984 20.6701 18.1085 20.6701 13.3284C20.6701 8.54844 16.7801 4.64844 12.0001 4.64844ZM12.7501 12.9984C12.7501 13.4084 12.4101 13.7484 12.0001 13.7484C11.5901 13.7484 11.2501 13.4084 11.2501 12.9984V7.99844C11.2501 7.58844 11.5901 7.24844 12.0001 7.24844C12.4101 7.24844 12.7501 7.58844 12.7501 7.99844V12.9984Z" fill="white"/>
<path d="M14.8886 3.45H9.10867C8.70868 3.45 8.38867 3.13 8.38867 2.73C8.38867 2.33 8.70868 2 9.10867 2H14.8886C15.2887 2 15.6086 2.32 15.6086 2.72C15.6086 3.12 15.2887 3.45 14.8886 3.45Z" fill="white"/>
</svg>
