<svg width="24" height="24" viewBox="0 0 24 24" fill="none" xmlns="http://www.w3.org/2000/svg">
<path d="M17.3915 15.67L13.3515 12H10.6415L6.60144 15.67C5.47144 16.69 5.10145 18.26 5.65144 19.68C6.20144 21.09 7.54144 22 9.05144 22H14.9415C16.4615 22 17.7915 21.09 18.3414 19.68C18.8915 18.26 18.5214 16.69 17.3915 15.67ZM13.8215 18.14H10.1815C9.80144 18.14 9.50144 17.83 9.50144 17.46C9.50144 17.09 9.81144 16.78 10.1815 16.78H13.8215C14.2014 16.78 14.5014 17.09 14.5014 17.46C14.5014 17.83 14.1915 18.14 13.8215 18.14Z" fill="white"/>
<path d="M18.3487 4.32C17.7987 2.91 16.4587 2 14.9487 2H9.0487C7.53869 2 6.1987 2.91 5.64869 4.32C5.10869 5.74 5.4787 7.31 6.60869 8.33L10.6487 12H13.3587L17.3988 8.33C18.5187 7.31 18.8887 5.74 18.3487 4.32ZM13.8187 7.23H10.1787C9.7987 7.23 9.4987 6.92 9.4987 6.55C9.4987 6.18 9.8087 5.87 10.1787 5.87H13.8187C14.1987 5.87 14.4987 6.18 14.4987 6.55C14.4987 6.92 14.1888 7.23 13.8187 7.23Z" fill="white"/>
</svg>
