<svg width="24" height="24" viewBox="0 0 24 24" fill="none" xmlns="http://www.w3.org/2000/svg">
<path d="M8.93 2H5.02C3.00001 2 2 3 2 5.02V8.94C2 11 3.00001 12 5.02 11.95H8.94001C11 12 12 11 11.95 8.93V5.02C12 3 11 2 8.93 2ZM9.01 9.76C8.33 9.76 7.67 9.5 7.12 9.04C6.5 9.49 5.75 9.76 4.94 9.76C4.53001 9.76 4.19 9.42 4.19 9.01C4.19 8.6 4.53001 8.26 4.94 8.26C5.96 8.26 6.81001 7.56 7.12 6.6H4.94C4.53001 6.6 4.19 6.26 4.19 5.85C4.19 5.44 4.53001 5.1 4.94 5.1H6.23C6.27001 4.72 6.58 4.42 6.97 4.42C7.36 4.42 7.67 4.72 7.71001 5.1H7.97C7.98001 5.1 7.99 5.1 7.99 5.1H8.01001H9.00001C9.41 5.1 9.75001 5.44 9.75001 5.85C9.75001 6.26 9.42001 6.6 9.00001 6.6H8.67001C8.58001 7.08 8.39 7.53 8.14 7.94C8.41 8.14 8.70001 8.26 9.01 8.26C9.42001 8.26 9.76 8.6 9.76 9.01C9.76 9.42 9.42001 9.76 9.01 9.76Z" fill="white"/>
<path d="M9.00001 22.75C4.73 22.75 1.25 19.27 1.25 15C1.25 14.59 1.59001 14.25 2 14.25C2.41 14.25 2.75 14.59 2.75 15C2.75 17.96 4.81 20.44 7.58 21.09L7.31 20.64C7.1 20.28 7.21 19.82 7.57 19.61C7.92001 19.4 8.39 19.51 8.6 19.87L9.65 21.62C9.79 21.85 9.79 22.14 9.66001 22.37C9.52 22.6 9.27001 22.75 9.00001 22.75Z" fill="white"/>
<path d="M22.0005 9.75C21.5904 9.75 21.2505 9.41 21.2505 9C21.2505 6.04 19.1904 3.56 16.4204 2.91L16.6904 3.36C16.9004 3.72 16.7904 4.18 16.4304 4.39C16.0805 4.6 15.6104 4.49 15.4004 4.13L14.3504 2.38C14.2104 2.15 14.2104 1.86 14.3405 1.63C14.4804 1.4 14.7305 1.25 15.0005 1.25C19.2704 1.25 22.7505 4.73 22.7505 9C22.7505 9.41 22.4105 9.75 22.0005 9.75Z" fill="white"/>
<path d="M16.9198 11.8516C14.1198 11.8516 11.8398 14.1216 11.8398 16.9315C11.8398 19.7316 14.1099 22.0116 16.9198 22.0116C19.7199 22.0116 21.9999 19.7416 21.9999 16.9315C21.9999 14.1216 19.7298 11.8516 16.9198 11.8516ZM19.3998 19.3416C19.0299 19.5216 18.5799 19.3816 18.3898 19.0015L18.2199 18.6616H15.6298L15.4599 19.0015C15.3298 19.2616 15.0598 19.4116 14.7898 19.4116C14.6799 19.4116 14.5599 19.3816 14.4598 19.3315C14.0898 19.1416 13.9398 18.6916 14.1198 18.3216L16.2598 14.0515C16.3899 13.8016 16.6498 13.6416 16.9299 13.6416C17.2098 13.6416 17.4699 13.8016 17.5998 14.0616L19.7398 18.3316C19.9198 18.7015 19.7698 19.1515 19.3998 19.3416Z" fill="white"/>
<path d="M16.3809 17.1604H17.4708L16.9209 16.0703L16.3809 17.1604Z" fill="white"/>
</svg>
