<svg width="24" height="24" viewBox="0 0 24 24" fill="none" xmlns="http://www.w3.org/2000/svg">
<path fill-rule="evenodd" clip-rule="evenodd" d="M10.4996 1.19922C8.67707 1.19922 7.19961 2.67668 7.19961 4.49922V5.03046C6.24527 5.12288 5.29883 5.24258 4.36111 5.38877C3.86998 5.46534 3.53391 5.92554 3.61048 6.41666C3.68704 6.90779 4.14725 7.24386 4.63838 7.16729L4.81587 7.13996L5.82566 19.7624C5.96287 21.4774 7.39466 22.7992 9.11516 22.7992H14.8838C16.6042 22.7992 18.0361 21.4774 18.1732 19.7624L19.183 7.13988L19.3611 7.16729C19.8522 7.24386 20.3125 6.90779 20.389 6.41666C20.4656 5.92554 20.1295 5.46534 19.6383 5.38877C18.7005 5.24257 17.7541 5.12286 16.7996 5.03043V4.49922C16.7996 2.67668 15.3222 1.19922 13.4996 1.19922H10.4996ZM11.9997 4.79922C13.007 4.79922 14.0072 4.82949 14.9996 4.88921V4.49922C14.9996 3.67079 14.3281 2.99922 13.4996 2.99922H10.4996C9.67118 2.99922 8.99961 3.67079 8.99961 4.49922V4.88922C9.99209 4.82951 10.9924 4.79922 11.9997 4.79922ZM10.295 9.26324C10.2751 8.76659 9.85638 8.38007 9.35973 8.39994C8.86307 8.41981 8.47655 8.83853 8.49642 9.3352L8.85644 18.3352C8.87631 18.8319 9.29504 19.2184 9.79169 19.1985C10.2883 19.1786 10.6749 18.7599 10.655 18.2632L10.295 9.26324ZM15.503 9.3352C15.5228 8.83853 15.1364 8.4198 14.6397 8.39994C14.143 8.38007 13.7242 8.76659 13.7044 9.26324L13.3444 18.2632C13.3245 18.7599 13.711 19.1786 14.2077 19.1985C14.7044 19.2184 15.1231 18.8319 15.143 18.3352L15.503 9.3352Z" fill="#0F172A"/>
</svg>
