<svg width="24" height="24" viewBox="0 0 24 24" fill="none" xmlns="http://www.w3.org/2000/svg">
<path d="M16.1712 10.0603H7.83129C6.6513 10.0603 6.24129 9.27031 6.93129 8.31031L11.1013 2.47031C11.5913 1.77031 12.4113 1.77031 12.9012 2.47031L17.0712 8.31031C17.7612 9.27031 17.3513 10.0603 16.1712 10.0603Z" fill="white"/>
<path d="M17.5896 17.9986H6.40959C4.8296 17.9986 4.2896 16.9486 5.2196 15.6686L9.2096 10.0586H14.7896L18.7796 15.6686C19.7096 16.9486 19.1696 17.9986 17.5896 17.9986Z" fill="white"/>
<path d="M12.75 18V22C12.75 22.41 12.41 22.75 12 22.75C11.59 22.75 11.25 22.41 11.25 22V18H12.75Z" fill="white"/>
</svg>
