<svg width="24" height="24" viewBox="0 0 24 24" fill="none" xmlns="http://www.w3.org/2000/svg">
<path d="M11.2497 3.89863V12.9187C11.2497 13.2487 11.0897 13.5487 10.8197 13.7386L3.60969 18.7887C3.01968 19.1986 2.17968 18.8787 2.04969 18.1687C1.89969 17.3086 2.09968 16.2987 2.69968 15.2086L5.81968 9.59863L8.75968 4.30863C8.98968 3.89863 9.23968 3.53863 9.49968 3.22863C10.0997 2.52864 11.2497 2.97864 11.2497 3.89863Z" fill="white"/>
<path d="M20.39 18.7887L13.18 13.7386C12.91 13.5487 12.75 13.2487 12.75 12.9187V3.89863C12.75 2.97864 13.9 2.52864 14.5 3.22863C14.76 3.53863 15.01 3.89863 15.24 4.30863L18.18 9.59863L21.3 15.2086C21.9 16.2987 22.1 17.3086 21.95 18.1687C21.82 18.8787 20.98 19.1986 20.39 18.7887Z" fill="white"/>
<path d="M5.26019 19.14L11.4102 15.04C11.7402 14.82 12.2802 14.82 12.6102 15.04L18.7602 19.14C20.3902 20.23 20.1202 21.12 18.1602 21.12H5.85018C3.90018 21.11 3.63018 20.22 5.26019 19.14Z" fill="white"/>
</svg>
