<svg width="24" height="24" viewBox="0 0 24 24" fill="none" xmlns="http://www.w3.org/2000/svg">
<path d="M19.3997 10.5308C19.9196 10.4307 20.2796 11.0208 19.9596 11.4408L13.0097 20.2907C12.6596 20.7407 11.9396 20.4507 11.9996 19.8908L12.6996 12.2907C12.7196 12.0407 12.9096 11.8308 13.1597 11.7807L19.3997 10.5308Z" fill="white"/>
<path d="M21.6388 7.69117C21.8588 7.93117 21.7388 8.32117 21.4288 8.39118L12.9889 10.0812C12.4388 10.1912 12.0788 9.52117 12.4789 9.12118L17.4988 4.10117C17.7289 3.87118 18.0988 3.88117 18.3188 4.11118L21.6388 7.69117Z" fill="white"/>
<path d="M14.689 3.18714C15.159 3.24714 15.3492 3.81714 15.0192 4.15713L11.4591 7.71713C11.2491 7.92713 10.909 7.93713 10.679 7.73713L5.33908 2.98713C4.91908 2.61714 5.23904 1.92714 5.78903 1.99713L14.689 3.18714Z" fill="white"/>
<path d="M10.7207 10.069C10.9907 10.309 11.1207 10.659 11.1007 11.009L10.2408 21.469C10.1908 22.069 9.36075 22.189 9.14075 21.629L2.29072 3.95896C2.07073 3.39897 2.75075 2.92896 3.20075 3.32896L10.7207 10.069Z" fill="white"/>
</svg>
