<svg width="24" height="24" viewBox="0 0 24 24" fill="none" xmlns="http://www.w3.org/2000/svg">
<path d="M7.80039 3.60156C6.53895 3.60156 5.28842 3.64906 4.05053 3.74237C3.10781 3.81343 2.40039 4.60299 2.40039 5.5291V12.6016H13.2004V5.5291C13.2004 4.60299 12.493 3.81343 11.5502 3.74237C10.3124 3.64906 9.06183 3.60156 7.80039 3.60156Z" fill="#0F172A"/>
<path d="M2.40039 14.3984V17.3984C2.40039 18.3925 3.20627 19.1984 4.20039 19.1984H4.25017C4.53581 17.4958 6.01659 16.1984 7.80039 16.1984C9.58419 16.1984 11.065 17.4958 11.3506 19.1984H12.3004C12.7974 19.1984 13.2004 18.7955 13.2004 18.2984V14.3984H2.40039Z" fill="#0F172A"/>
<path d="M7.8 21.6C8.79412 21.6 9.6 20.7941 9.6 19.8C9.6 18.8059 8.79412 18 7.8 18C6.80588 18 6 18.8059 6 19.8C6 20.7941 6.80588 21.6 7.8 21.6Z" fill="#0F172A"/>
<path d="M15.9 6C15.403 6 15 6.40295 15 6.9V17.1167C15.637 16.5467 16.4779 16.2 17.4 16.2C19.0577 16.2 20.4536 17.3203 20.872 18.8452C21.3167 18.5147 21.6044 17.9822 21.586 17.3726C21.476 13.7567 20.726 10.3001 19.4448 7.1137C19.1692 6.42826 18.5047 6 17.7875 6H15.9Z" fill="#0F172A"/>
<path d="M17.3996 21.6C18.3937 21.6 19.1996 20.7941 19.1996 19.8C19.1996 18.8059 18.3937 18 17.3996 18C16.4055 18 15.5996 18.8059 15.5996 19.8C15.5996 20.7941 16.4055 21.6 17.3996 21.6Z" fill="#0F172A"/>
</svg>
