<svg width="24" height="24" viewBox="0 0 24 24" fill="none" xmlns="http://www.w3.org/2000/svg">
<path d="M21.5 15.5C21.78 15.5 22.0001 15.72 22.0001 16V17C22.0001 18.66 20.66 20 19.0001 20C19.0001 18.35 17.6501 17 16.0001 17C14.3501 17 13.0001 18.35 13.0001 20H11C11 18.35 9.65 17 8 17C6.35 17 5 18.35 5 20C3.34 20 2 18.66 2 17V15C2 14.45 2.45 14 3.00001 14H12.5C13.88 14 15 12.88 15 11.5V6C15 5.45 15.45 5 16.0001 5H16.8401C17.5601 5 18.2201 5.39 18.5801 6.01L19.22 7.13C19.31 7.29 19.19 7.5 19.0001 7.5C17.6201 7.5 16.5 8.62 16.5 10V13C16.5 14.38 17.6201 15.5 19.0001 15.5H21.5Z" fill="white"/>
<path d="M8 22C9.10457 22 10 21.1046 10 20C10 18.8954 9.10457 18 8 18C6.89543 18 6 18.8954 6 20C6 21.1046 6.89543 22 8 22Z" fill="white"/>
<path d="M16 22C17.1046 22 18 21.1046 18 20C18 18.8954 17.1046 18 16 18C14.8954 18 14 18.8954 14 20C14 21.1046 14.8954 22 16 22Z" fill="white"/>
<path d="M22 12.53V14H19C18.45 14 18 13.55 18 13V10C18 9.45 18.45 9 19 9H20.29L21.74 11.54C21.91 11.84 22 12.18 22 12.53Z" fill="white"/>
<path d="M13.08 1.98438H5.69C3.65 1.98438 2 3.63438 2 5.67438V12.0644C2 12.6144 2.45 13.0644 3.00001 13.0644H12.15C13.17 13.0644 14 12.2344 14 11.2144V2.90438C14 2.39438 13.59 1.98438 13.08 1.98438ZM9.60001 9.10438C9.45001 9.24438 9.26 9.31438 9.07 9.31438C8.88001 9.31438 8.69 9.24438 8.54 9.10438L8.01001 8.57438L7.46 9.12438C7.31 9.27438 7.12 9.34438 6.93001 9.34438C6.74 9.34438 6.55 9.27438 6.4 9.12438C6.11 8.83438 6.11 8.35438 6.4 8.06438L6.95 7.51438L6.42001 6.98438C6.13 6.69438 6.13 6.21438 6.42001 5.92438C6.72001 5.63438 7.19 5.63438 7.49 5.92438L8.01001 6.45438L8.51 5.94438C8.81 5.65438 9.28 5.65438 9.58 5.94438C9.87001 6.24438 9.87001 6.71438 9.58 7.01438L9.07 7.51438L9.60001 8.03438C9.89 8.33438 9.89 8.80438 9.60001 9.10438Z" fill="white"/>
</svg>
