<svg width="24" height="24" viewBox="0 0 24 24" fill="none" xmlns="http://www.w3.org/2000/svg">
<path d="M16.19 2H7.81C4.17001 2 2 4.17 2 7.81V16.18C2 19.83 4.17001 22 7.81 22H16.1801C19.82 22 21.99 19.83 21.99 16.19V7.81C22.0001 4.17 19.83 2 16.19 2ZM15.7601 15.76C15.7001 16.61 15.63 17.67 13.71 17.67H10.29C8.38 17.67 8.3 16.61 8.24 15.76L7.93 11.8C7.91 11.54 8 11.29 8.17 11.1C8.34001 10.91 8.59 10.81 8.84 10.81H15.1601C15.41 10.81 15.66 10.92 15.83 11.1C16.0001 11.29 16.0901 11.54 16.07 11.79L15.7601 15.76ZM16.8 9.82C16.7801 9.82 16.76 9.82 16.74 9.82C15.7001 9.72 14.75 9.65 13.8401 9.60999C12.62 9.54999 11.4 9.53 10.17 9.58C9.57001 9.61 8.96 9.65 8.36 9.71L7.27 9.82C7.25 9.82 7.22 9.82 7.20001 9.82C6.85 9.82 6.55 9.56 6.52 9.2C6.48001 8.83 6.76 8.49 7.13 8.46L8.22001 8.35C8.65 8.31 9.07 8.28 9.5 8.26L9.58 7.79C9.66001 7.29 9.81001 6.33 11.31 6.33H12.7001C14.21 6.33 14.36 7.32 14.43 7.8L14.51 8.28C15.26 8.32 16.0301 8.38 16.8701 8.46C17.25 8.5 17.52 8.83 17.49 9.21C17.45 9.56 17.15 9.82 16.8 9.82Z" fill="white"/>
</svg>
