<svg width="24" height="24" viewBox="0 0 24 24" fill="none" xmlns="http://www.w3.org/2000/svg">
<path d="M4.80078 6H19.2008V14.4H4.80078V6Z" fill="#0F172A"/>
<path fill-rule="evenodd" clip-rule="evenodd" d="M1.19922 4.19844C1.19922 3.20432 2.0051 2.39844 2.99922 2.39844H20.9992C21.9933 2.39844 22.7992 3.20432 22.7992 4.19844V16.1984C22.7992 17.1925 21.9933 17.9984 20.9992 17.9984H14.3992V19.7984H18.2992C18.7963 19.7984 19.1992 20.2014 19.1992 20.6984C19.1992 21.1955 18.7963 21.5984 18.2992 21.5984H5.69922C5.20217 21.5984 4.79922 21.1955 4.79922 20.6984C4.79922 20.2014 5.20217 19.7984 5.69922 19.7984H9.59922V17.9984H2.99922C2.0051 17.9984 1.19922 17.1925 1.19922 16.1984V4.19844ZM20.9992 4.19844H2.99922V16.1984H20.9992V4.19844Z" fill="#0F172A"/>
</svg>
