<svg width="24" height="24" viewBox="0 0 24 24" fill="none" xmlns="http://www.w3.org/2000/svg">
<path d="M17.9999 6.33594C17.86 6.33594 17.4199 6.36596 17.4199 6.78596C17.4199 7.07595 17.6399 7.24595 17.9999 7.24595C18.3599 7.24595 18.58 7.07595 18.58 6.78596C18.58 6.45596 18.28 6.33594 17.9999 6.33594Z" fill="white"/>
<path d="M18.0006 5.50781C18.2706 5.50781 18.4405 5.35781 18.4405 5.12781C18.4405 4.84781 18.2106 4.75781 18.0006 4.75781C17.7906 4.75781 17.5605 4.85781 17.5605 5.12781C17.5605 5.35781 17.7306 5.50781 18.0006 5.50781Z" fill="white"/>
<path d="M18 2C15.9 2 14.19 3.61 14.02 5.66C14 5.77 14 5.89 14 6C14 8.21 15.79 10 18 10C18.35 10 18.68 9.96 19 9.87C20.73 9.43 22 7.86 22 6C22 3.79 20.21 2 18 2ZM18 8.2C17.01 8.2 16.4 7.70001 16.4 6.89001C16.4 6.50001 16.58 6.15 16.9 5.91C16.66 5.7 16.53 5.40999 16.53 5.07999C16.53 4.30999 17.12 3.79999 17.99 3.79999C18.86 3.79999 19.45 4.31998 19.45 5.07999C19.45 5.40999 19.33 5.7 19.08 5.91C19.41 6.14 19.59 6.49 19.59 6.89001C19.6 7.70001 18.99 8.2 18 8.2Z" fill="white"/>
<path d="M18 11.5023C16.85 11.5023 15.78 11.1524 14.9 10.5423C14.8301 10.4924 14.7401 10.5423 14.7401 10.6223L14.75 15.4424C14.75 15.8624 14.4101 16.1924 14 16.1924C13.59 16.1924 13.25 15.8624 13.25 15.4424V10.5023C13.25 10.1723 13.47 9.89236 13.77 9.79236C13.85 9.76236 13.9001 9.65234 13.8401 9.59234C13.01 8.63234 12.5 7.38236 12.5 6.01236C12.5 5.84237 12.51 5.66234 12.53 5.49234C12.53 5.45234 12.54 5.42235 12.54 5.38235C12.57 5.15235 12.45 4.93233 12.2501 4.83232L11.35 4.40234C10.81 4.15234 10.19 4.15234 9.64999 4.40234L3.15 7.46234C2.44999 7.79234 2 8.49234 2 9.27234V16.7324C2 17.5124 2.44999 18.2123 3.15 18.5423L9.64999 21.6023C10.19 21.8523 10.81 21.8523 11.35 21.6023L17.85 18.5423C18.5501 18.2123 19.0001 17.5124 19.0001 16.7324V12.0224C19.0001 11.7123 18.71 11.4723 18.4001 11.4923C18.27 11.5023 18.14 11.5023 18 11.5023ZM11.75 13.5023C11.75 15.0224 10.52 16.2524 9.00001 16.2524C7.48 16.2524 6.25 15.0224 6.25 13.5023V10.5023C6.25 10.0923 6.59 9.75235 7 9.75235C7.41001 9.75235 7.75 10.0923 7.75 10.5023V13.5023C7.75 14.1923 8.31001 14.7524 9.00001 14.7524C9.69001 14.7524 10.25 14.1923 10.25 13.5023V10.5023C10.25 10.0923 10.59 9.75235 11 9.75235C11.41 9.75235 11.75 10.0923 11.75 10.5023V13.5023Z" fill="white"/>
</svg>
