<svg width="24" height="24" viewBox="0 0 24 24" fill="none" xmlns="http://www.w3.org/2000/svg">
<path d="M17.4502 17.3018C15.7702 17.3018 14.2202 16.5119 13.2102 15.1218C12.9702 14.7918 13.0402 14.3219 13.3702 14.0718C13.7002 13.8218 14.1702 13.9019 14.4202 14.2319C15.1502 15.2219 16.2502 15.7919 17.4502 15.7919C19.5402 15.7919 21.2502 14.0918 21.2502 11.9919C21.2502 9.89188 19.5502 8.19188 17.4502 8.19188C16.0302 8.19188 14.6902 8.95188 13.9602 10.1619L11.3102 14.5718C10.3102 16.2419 8.48024 17.2718 6.54024 17.2718C3.62024 17.2718 1.24023 14.8919 1.24023 11.9719C1.24023 9.05188 3.62024 6.67188 6.54024 6.67188C8.22024 6.67188 9.77024 7.46188 10.7802 8.85188C11.0202 9.18188 10.9502 9.65188 10.6202 9.90188C10.2802 10.1519 9.82024 10.0719 9.57024 9.74188C8.85024 8.77187 7.75023 8.20188 6.55023 8.20188C4.46024 8.20188 2.75024 9.90188 2.75024 12.0018C2.75024 14.1018 4.45023 15.8018 6.55023 15.8018C7.97024 15.8018 9.31023 15.0419 10.0402 13.8318L12.6902 9.42188C13.6902 7.75187 15.5202 6.72188 17.4602 6.72188C20.3802 6.72188 22.7602 9.10187 22.7602 12.0218C22.7602 14.9418 20.3702 17.3018 17.4502 17.3018Z" fill="white"/>
<path d="M6.5 14C7.60457 14 8.5 13.1046 8.5 12C8.5 10.8954 7.60457 10 6.5 10C5.39543 10 4.5 10.8954 4.5 12C4.5 13.1046 5.39543 14 6.5 14Z" fill="white"/>
<path d="M17.5 14C18.6046 14 19.5 13.1046 19.5 12C19.5 10.8954 18.6046 10 17.5 10C16.3954 10 15.5 10.8954 15.5 12C15.5 13.1046 16.3954 14 17.5 14Z" fill="white"/>
</svg>
