<svg width="24" height="24" viewBox="0 0 24 24" fill="none" xmlns="http://www.w3.org/2000/svg">
<path d="M11.9991 17.3499C12.8993 17.3499 13.6292 16.6202 13.6292 15.7198C13.6292 14.8197 12.8993 14.0898 11.9991 14.0898C11.0989 14.0898 10.3691 14.8197 10.3691 15.7198C10.3691 16.6202 11.0989 17.3499 11.9991 17.3499Z" fill="white"/>
<path d="M16.65 9.44H7.35001C7.27 9.44 7.20001 9.44 7.12 9.44V8.28C7.12 5.35 7.95001 3.4 12 3.4C16.3301 3.4 16.88 5.51 16.88 7.35C16.88 7.74 17.19 8.05 17.58 8.05C17.97 8.05 18.2801 7.74 18.2801 7.35C18.2801 3.8 16.17 2 12 2C6.37 2 5.72 5.58 5.72 8.28V9.53C2.92 9.88 2 11.3 2 14.79V16.65C2 20.75 3.25 22 7.35001 22H16.65C20.75 22 22.0001 20.75 22.0001 16.65V14.79C22.0001 10.69 20.75 9.44 16.65 9.44ZM12 18.74C10.33 18.74 8.98 17.38 8.98 15.72C8.98 14.05 10.34 12.7 12 12.7C13.6601 12.7 15.02 14.06 15.02 15.72C15.02 17.39 13.67 18.74 12 18.74Z" fill="white"/>
</svg>
