<svg width="24" height="24" viewBox="0 0 24 24" fill="none" xmlns="http://www.w3.org/2000/svg">
<path d="M12.75 14.5204H12.98C13.31 14.5204 13.59 14.2204 13.59 13.8503C13.59 13.3804 13.48 13.3204 13.16 13.2104L12.75 13.0703V14.5204Z" fill="white"/>
<path d="M12 2C6.48001 2 2 6.48 2 12C2 17.52 6.48001 22 12 22C17.52 22 22.0001 17.52 22.0001 12C22.0001 6.48 17.52 2 12 2ZM7.57999 16.42C7.86999 16.71 7.86999 17.19 7.57999 17.48C7.42999 17.63 7.23999 17.7 7.05 17.7C6.85999 17.7 6.66999 17.63 6.51999 17.48C5.05999 16.02 4.25 14.07 4.25 12C4.25 9.93 5.05999 7.98 6.51999 6.52C6.81 6.23 7.29 6.23 7.57999 6.52C7.86999 6.81 7.86999 7.29 7.57999 7.58C6.39999 8.76 5.75 10.33 5.75 12C5.75 13.67 6.39999 15.24 7.57999 16.42ZM13.65 11.78C14.61 12.12 15.08 12.79 15.08 13.84C15.08 15.04 14.1401 16.01 12.9701 16.01H12.74V16.19C12.74 16.6 12.4001 16.94 11.99 16.94C11.58 16.94 11.24 16.6 11.24 16.19V16.01H11.21C9.93999 16.01 8.89999 14.94 8.89999 13.63C8.89999 13.22 9.23999 12.88 9.64999 12.88C10.06 12.88 10.4 13.22 10.4 13.63C10.4 14.12 10.76 14.51 11.21 14.51H11.24V12.53L10.34 12.21C9.38 11.87 8.91001 11.2 8.91001 10.15C8.91001 8.94999 9.84999 7.98 11.02 7.98H11.25V7.8C11.25 7.39 11.59 7.05 12 7.05C12.41 7.05 12.75 7.39 12.75 7.8V7.98H12.78C14.0501 7.98 15.09 9.05 15.09 10.36C15.09 10.77 14.75 11.11 14.34 11.11C13.9301 11.11 13.59 10.77 13.59 10.36C13.59 9.87 13.23 9.48 12.78 9.48H12.75V11.46L13.65 11.78ZM17.48 17.48C17.33 17.63 17.1401 17.7 16.95 17.7C16.76 17.7 16.5701 17.63 16.4201 17.48C16.13 17.19 16.13 16.71 16.4201 16.42C17.6 15.24 18.2501 13.67 18.2501 12C18.2501 10.33 17.6 8.76 16.4201 7.58C16.13 7.29 16.13 6.81 16.4201 6.52C16.71 6.23 17.19 6.23 17.48 6.52C18.9401 7.98 19.7501 9.93 19.7501 12C19.7501 14.07 18.9401 16.02 17.48 17.48Z" fill="white"/>
<path d="M10.4199 10.1644C10.4199 10.6344 10.5299 10.6944 10.8499 10.8044L11.2599 10.9444V9.48438H11.0299C10.6899 9.48438 10.4199 9.79438 10.4199 10.1644Z" fill="white"/>
</svg>
