<svg width="24" height="24" viewBox="0 0 24 24" fill="none" xmlns="http://www.w3.org/2000/svg">
<path d="M12.0002 14C6.99017 14 2.91016 17.36 2.91016 21.5C2.91016 21.78 3.13016 21.9999 3.41016 21.9999H20.5902C20.8702 21.9999 21.0902 21.78 21.0902 21.5C21.0902 17.36 17.0102 14 12.0002 14Z" fill="white"/>
<path d="M16.8486 5.80204C16.7286 5.31204 16.5287 4.83204 16.2486 4.39204C16.0586 4.07203 15.8087 3.75204 15.5387 3.47203C14.6387 2.57203 13.4687 2.08204 12.2687 2.02204C10.9086 1.93204 9.51862 2.43204 8.46862 3.47203C7.47862 4.45204 6.97863 5.76204 6.99862 7.08204C7.00863 8.33203 7.50862 9.58204 8.45863 10.5421C9.11863 11.2021 9.92863 11.6421 10.7986 11.8421C11.2686 11.9621 11.7686 12.022 12.2687 11.9821C13.4586 11.9321 14.6186 11.4621 15.5286 10.5421C16.8186 9.25204 17.2586 7.44204 16.8486 5.80204ZM13.9986 9.00204C13.6386 9.36204 13.0386 9.36204 12.6786 9.00204L11.9886 8.31204L11.3286 8.97204C10.9686 9.33204 10.3686 9.33204 10.0086 8.97204C9.63862 8.60203 9.63862 8.01204 9.99862 7.65204L10.6586 6.99204L10.0186 6.37204C9.65863 6.00204 9.65863 5.41204 10.0186 5.03203C10.3886 4.67203 10.9786 4.67203 11.3586 5.03203L11.9786 5.67204L12.6486 5.00203C13.0086 4.64203 13.5986 4.64203 13.9686 5.00203C14.3286 5.36203 14.3286 5.96203 13.9686 6.32203L13.3086 6.98203L13.9986 7.68204C14.3586 8.04204 14.3586 8.64204 13.9986 9.00204Z" fill="white"/>
</svg>
