<svg width="24" height="24" viewBox="0 0 24 24" fill="none" xmlns="http://www.w3.org/2000/svg">
<path d="M12.0008 5.99844C12.0008 7.98666 10.389 9.59844 8.40078 9.59844C6.41256 9.59844 4.80078 7.98666 4.80078 5.99844C4.80078 4.01022 6.41256 2.39844 8.40078 2.39844C10.389 2.39844 12.0008 4.01022 12.0008 5.99844Z" fill="#0F172A"/>
<path d="M1.93795 19.7136C1.46119 19.4083 1.18503 18.8652 1.25487 18.3035C1.6966 14.7504 4.72694 12 8.39949 12C12.0721 12 15.1023 14.7497 15.544 18.3026C15.614 18.8644 15.3378 19.4075 14.861 19.7128C12.9958 20.907 10.7785 21.6 8.39949 21.6C6.02045 21.6 3.80312 20.9077 1.93795 19.7136Z" fill="#0F172A"/>
<path d="M19.5004 6.9C19.5004 6.40295 19.0974 6 18.6004 6C18.1034 6 17.7004 6.40295 17.7004 6.9V9.3H15.3004C14.8034 9.3 14.4004 9.70295 14.4004 10.2C14.4004 10.6971 14.8034 11.1 15.3004 11.1H17.7004V13.5C17.7004 13.997 18.1034 14.4 18.6004 14.4C19.0974 14.4 19.5004 13.997 19.5004 13.5V11.1H21.9004C22.3974 11.1 22.8004 10.6971 22.8004 10.2C22.8004 9.70295 22.3974 9.3 21.9004 9.3H19.5004V6.9Z" fill="#0F172A"/>
</svg>
