<svg width="24" height="24" viewBox="0 0 24 24" fill="none" xmlns="http://www.w3.org/2000/svg">
<path d="M13.2 5.99844C13.2 7.98666 11.5882 9.59844 9.6 9.59844C7.61178 9.59844 6 7.98666 6 5.99844C6 4.01022 7.61178 2.39844 9.6 2.39844C11.5882 2.39844 13.2 4.01022 13.2 5.99844Z" fill="#0F172A"/>
<path d="M2.45604 18.3035C2.3862 18.8652 2.66236 19.4083 3.13912 19.7136C5.00429 20.9077 7.22162 21.6 9.60066 21.6C11.9797 21.6 14.197 20.907 16.0622 19.7128C16.5389 19.4075 16.8152 18.8644 16.7452 18.3026C16.3035 14.7497 13.2733 12 9.60066 12C5.92811 12 2.89777 14.7504 2.45604 18.3035Z" fill="#0F172A"/>
<path d="M15.3004 9.30078C14.8034 9.30078 14.4004 9.70373 14.4004 10.2008C14.4004 10.6978 14.8034 11.1008 15.3004 11.1008H21.9004C22.3974 11.1008 22.8004 10.6978 22.8004 10.2008C22.8004 9.70373 22.3974 9.30078 21.9004 9.30078H15.3004Z" fill="#0F172A"/>
</svg>
