<svg width="24" height="24" viewBox="0 0 24 24" fill="none" xmlns="http://www.w3.org/2000/svg">
<path fill-rule="evenodd" clip-rule="evenodd" d="M21.6004 11.9984C21.6004 17.3004 17.3024 21.5984 12.0004 21.5984C6.69845 21.5984 2.40039 17.3004 2.40039 11.9984C2.40039 6.6965 6.69845 2.39844 12.0004 2.39844C17.3024 2.39844 21.6004 6.6965 21.6004 11.9984ZM15.0004 8.99844C15.0004 10.6553 13.6572 11.9984 12.0004 11.9984C10.3435 11.9984 9.00039 10.6553 9.00039 8.99844C9.00039 7.34159 10.3435 5.99844 12.0004 5.99844C13.6572 5.99844 15.0004 7.34159 15.0004 8.99844ZM12.0004 14.3984C9.64999 14.3984 7.56263 15.5246 6.24854 17.2669C7.6745 18.8228 9.72351 19.7984 12.0004 19.7984C14.2773 19.7984 16.3263 18.8228 17.7522 17.2669C16.4381 15.5246 14.3508 14.3984 12.0004 14.3984Z" fill="#0F172A"/>
</svg>
