<svg width="24" height="24" viewBox="0 0 24 24" fill="none" xmlns="http://www.w3.org/2000/svg">
<path d="M8.40078 9.59844C10.389 9.59844 12.0008 7.98666 12.0008 5.99844C12.0008 4.01022 10.389 2.39844 8.40078 2.39844C6.41256 2.39844 4.80078 4.01022 4.80078 5.99844C4.80078 7.98666 6.41256 9.59844 8.40078 9.59844Z" fill="#0F172A"/>
<path d="M17.4004 10.8008C19.0572 10.8008 20.4004 9.45763 20.4004 7.80078C20.4004 6.14393 19.0572 4.80078 17.4004 4.80078C15.7436 4.80078 14.4004 6.14393 14.4004 7.80078C14.4004 9.45763 15.7436 10.8008 17.4004 10.8008Z" fill="#0F172A"/>
<path d="M1.93795 19.7136C1.46119 19.4083 1.18503 18.8652 1.25487 18.3035C1.6966 14.7504 4.72694 12 8.39949 12C12.0721 12 15.1023 14.7497 15.544 18.3026C15.614 18.8644 15.3378 19.4075 14.861 19.7128C12.9958 20.907 10.7785 21.6 8.39949 21.6C6.02045 21.6 3.80312 20.9077 1.93795 19.7136Z" fill="#0F172A"/>
<path d="M17.3991 19.1992C17.3567 19.1992 17.3144 19.199 17.2722 19.1984C17.3547 18.8422 17.3777 18.4654 17.3298 18.0797C17.1192 16.3867 16.4391 14.8396 15.4238 13.5731C16.0365 13.3318 16.704 13.1992 17.4024 13.1992C19.7301 13.1992 21.7137 14.672 22.4725 16.7366C22.6356 17.1803 22.4444 17.6681 22.0395 17.9122C20.6845 18.7292 19.0967 19.1992 17.3991 19.1992Z" fill="#0F172A"/>
</svg>
