<svg width="24" height="24" viewBox="0 0 24 24" fill="none" xmlns="http://www.w3.org/2000/svg">
<path d="M12.0004 9.59844C13.9887 9.59844 15.6004 7.98666 15.6004 5.99844C15.6004 4.01022 13.9887 2.39844 12.0004 2.39844C10.0122 2.39844 8.40039 4.01022 8.40039 5.99844C8.40039 7.98666 10.0122 9.59844 12.0004 9.59844Z" fill="#0F172A"/>
<path d="M4.15781 17.3922C3.92396 18.0019 4.13283 18.6852 4.64865 19.0855C6.67948 20.6616 9.23003 21.6 11.9997 21.6C14.7723 21.6 17.3252 20.6597 19.357 19.0807C19.8726 18.68 20.081 17.9965 19.8468 17.387C18.6357 14.2362 15.5806 12 12.0033 12C8.42399 12 5.36756 14.2387 4.15781 17.3922Z" fill="#0F172A"/>
</svg>
