<svg width="24" height="24" viewBox="0 0 24 24" fill="none" xmlns="http://www.w3.org/2000/svg">
<path d="M12.0002 14C6.99017 14 2.91016 17.36 2.91016 21.5C2.91016 21.78 3.13016 21.9999 3.41016 21.9999H20.5902C20.8702 21.9999 21.0902 21.78 21.0902 21.5C21.0902 17.36 17.0102 14 12.0002 14Z" fill="white"/>
<path d="M16.72 10.35L15.76 9.39C16.26 8.64 16.5499 7.74 16.5499 6.77C16.5499 4.13 14.41 2 11.78 2C9.14999 2 7 4.14 7 6.77C7 9.4 9.14 11.54 11.77 11.54C12.7399 11.54 13.6399 11.25 14.3899 10.75L15.3499 11.71C15.54 11.9 15.79 11.99 16.03 11.99C16.2799 11.99 16.53 11.9 16.71 11.71C17.0899 11.34 17.0899 10.73 16.72 10.35Z" fill="white"/>
</svg>
