<svg width="24" height="24" viewBox="0 0 24 24" fill="none" xmlns="http://www.w3.org/2000/svg">
<path d="M12.0004 10.8016C13.9887 10.8016 15.6004 9.18978 15.6004 7.20156C15.6004 5.21334 13.9887 3.60156 12.0004 3.60156C10.0122 3.60156 8.40039 5.21334 8.40039 7.20156C8.40039 9.18978 10.0122 10.8016 12.0004 10.8016Z" fill="#0F172A"/>
<path d="M7.20039 9.59922C7.20039 10.9247 6.12587 11.9992 4.80039 11.9992C3.47491 11.9992 2.40039 10.9247 2.40039 9.59922C2.40039 8.27373 3.47491 7.19922 4.80039 7.19922C6.12587 7.19922 7.20039 8.27373 7.20039 9.59922Z" fill="#0F172A"/>
<path d="M1.78799 18.3901C1.5845 18.2717 1.42747 18.0854 1.35818 17.8604C1.25485 17.525 1.19922 17.1686 1.19922 16.7992C1.19922 14.8109 2.811 13.1992 4.79922 13.1992C5.42562 13.1992 6.01466 13.3592 6.5277 13.6406C5.27117 14.8779 4.43219 16.5382 4.24095 18.3913C4.21338 18.6585 4.22489 18.9223 4.27117 19.1763C3.37195 19.0979 2.52955 18.8211 1.78799 18.3901Z" fill="#0F172A"/>
<path d="M19.7294 19.1763C20.6284 19.0978 21.4706 18.8211 22.2121 18.3901C22.4155 18.2717 22.5725 18.0854 22.6418 17.8604C22.7451 17.525 22.8008 17.1686 22.8008 16.7992C22.8008 14.8109 21.1891 13.1992 19.2008 13.1992C18.5745 13.1992 17.9855 13.3592 17.4727 13.6403C18.7293 14.8777 19.5683 16.5381 19.7595 18.3913C19.7871 18.6585 19.7756 18.9223 19.7294 19.1763Z" fill="#0F172A"/>
<path d="M21.6008 9.59922C21.6008 10.9247 20.5263 11.9992 19.2008 11.9992C17.8753 11.9992 16.8008 10.9247 16.8008 9.59922C16.8008 8.27373 17.8753 7.19922 19.2008 7.19922C20.5263 7.19922 21.6008 8.27373 21.6008 9.59922Z" fill="#0F172A"/>
<path d="M6.36499 19.4283C6.12607 19.2119 5.99945 18.8966 6.03254 18.5761C6.34427 15.5552 8.89729 13.1992 12.0005 13.1992C15.1038 13.1992 17.6568 15.5552 17.9686 18.5761C18.0017 18.8966 17.8751 19.2121 17.6362 19.4283C16.1458 20.7775 14.1692 21.5992 12.0005 21.5992C9.83197 21.5992 7.8553 20.7775 6.36499 19.4283Z" fill="#0F172A"/>
</svg>
