<svg width="24" height="24" viewBox="0 0 24 24" fill="none" xmlns="http://www.w3.org/2000/svg">
<path fill-rule="evenodd" clip-rule="evenodd" d="M18.2548 2.49344C18.6994 2.27138 19.24 2.45186 19.462 2.89656C20.8308 5.63762 21.6004 8.72954 21.6004 11.9986C21.6004 15.2677 20.8308 18.3597 19.462 21.1007C19.24 21.5454 18.6994 21.7259 18.2548 21.5038C17.8101 21.2818 17.6296 20.7413 17.8516 20.2966C19.0985 17.7996 19.8004 14.9824 19.8004 11.9986C19.8004 9.01489 19.0985 6.19769 17.8516 3.7007C17.6296 3.25601 17.8101 2.7155 18.2548 2.49344ZM5.74603 2.49344C6.19072 2.7155 6.3712 3.25601 6.14915 3.7007C4.90228 6.19767 4.20039 9.01489 4.20039 11.9986C4.20039 14.9824 4.90228 17.7996 6.14915 20.2966C6.3712 20.7413 6.19072 21.2818 5.74603 21.5038C5.30133 21.7259 4.76083 21.5454 4.53877 21.1007C3.17001 18.3597 2.40039 15.2677 2.40039 11.9986C2.40039 8.72954 3.17001 5.63762 4.53877 2.89656C4.76083 2.45186 5.30133 2.27138 5.74603 2.49344ZM8.48772 6.75875C9.43284 6.12867 10.7181 6.52076 11.1506 7.57109L12.1784 10.067L13.5534 7.94178C14.3714 6.67769 16.0652 6.32684 17.318 7.16202L17.5996 7.34979C18.0132 7.62551 18.125 8.18429 17.8492 8.59787C17.5736 9.01143 17.0147 9.12319 16.6012 8.84748L16.3196 8.65971C15.902 8.38131 15.3374 8.49827 15.0647 8.91963L13.0121 12.0918L14.5146 15.7408L15.4012 15.1498C15.8147 14.874 16.3736 14.9859 16.6492 15.3994C16.925 15.813 16.8132 16.3717 16.3996 16.6475L15.513 17.2385C14.5679 17.8686 13.2827 17.4765 12.8502 16.4262L11.8225 13.9303L10.4473 16.0555C9.62941 17.3196 7.93557 17.6704 6.68282 16.8353L6.40115 16.6475C5.98759 16.3717 5.87583 15.813 6.15154 15.3994C6.42727 14.9859 6.98605 14.874 7.39963 15.1498L7.68128 15.3376C8.09887 15.616 8.66347 15.499 8.93612 15.0777L10.9887 11.9054L9.48617 8.25644L8.59963 8.84748C8.18605 9.12319 7.62727 9.01143 7.35154 8.59787C7.07583 8.18429 7.18759 7.62551 7.60115 7.34978L8.48772 6.75875Z" fill="#0F172A"/>
</svg>
