<svg width="24" height="24" viewBox="0 0 24 24" fill="none" xmlns="http://www.w3.org/2000/svg">
<path d="M21.5608 10.7385L20.2009 9.15859C19.9408 8.85859 19.7308 8.2986 19.7308 7.89859V6.1986C19.7308 5.13859 18.8608 4.26859 17.8009 4.26859H16.1008C15.7108 4.26859 15.1408 4.05859 14.8408 3.7986L13.2609 2.43859C12.5709 1.8486 11.4409 1.8486 10.7409 2.43859L9.17085 3.80859C8.87085 4.05859 8.30085 4.26859 7.91085 4.26859H6.18086C5.12085 4.26859 4.25085 5.13859 4.25085 6.1986V7.9086C4.25085 8.2986 4.04085 8.85859 3.79086 9.15859L2.44086 10.7485C1.86086 11.4385 1.86086 12.5585 2.44086 13.2485L3.79086 14.8385C4.04085 15.1385 4.25085 15.6986 4.25085 16.0886V17.7986C4.25085 18.8585 5.12085 19.7285 6.18086 19.7285H7.91085C8.30085 19.7285 8.87085 19.9385 9.17085 20.1986L10.7509 21.5585C11.4409 22.1486 12.5709 22.1486 13.2709 21.5585L14.8509 20.1986C15.1509 19.9385 15.7108 19.7285 16.1109 19.7285H17.8108C18.8709 19.7285 19.7409 18.8585 19.7409 17.7986V16.0985C19.7409 15.7085 19.9509 15.1385 20.2108 14.8385L21.5709 13.2585C22.1509 12.5685 22.1509 11.4285 21.5608 10.7385ZM16.1608 10.1085L11.3309 14.9385C11.1909 15.0785 11.0009 15.1586 10.8009 15.1586C10.6009 15.1586 10.4109 15.0785 10.2709 14.9385L7.85085 12.5186C7.56086 12.2285 7.56086 11.7485 7.85085 11.4585C8.14086 11.1685 8.62086 11.1685 8.91085 11.4585L10.8009 13.3485L15.1009 9.0486C15.3909 8.75859 15.8709 8.75859 16.1608 9.0486C16.4509 9.33859 16.4509 9.81859 16.1608 10.1085Z" fill="white"/>
</svg>
