<svg width="24" height="24" viewBox="0 0 24 24" fill="none" xmlns="http://www.w3.org/2000/svg">
<path opacity="0.4" d="M17.7404 7.57031C17.7505 7.64032 17.7505 7.72031 17.7404 7.79032C17.7404 7.72031 17.7305 7.65032 17.7305 7.58032L17.7404 7.57031Z" fill="white"/>
<path d="M17.279 6.56L3.82891 20.01C2.4289 19.12 1.87891 17.53 1.87891 16V8C1.87891 4.58 3.2089 3.25 6.6289 3.25H12.629C15.5189 3.25 16.9089 4.2 17.279 6.56Z" fill="white"/>
<path d="M21.4001 2.23282C21.1001 1.93281 20.61 1.93281 20.31 2.23282L1.85 20.6928C1.55 20.9928 1.55 21.4829 1.85 21.7829C2 21.9228 2.2 22.0028 2.39 22.0028C2.59 22.0028 2.78 21.9228 2.93 21.7728L21.4001 3.31282C21.7001 3.01281 21.7001 2.53282 21.4001 2.23282Z" fill="white"/>
<path d="M22.3802 8.38047V15.6205C22.3802 17.0505 21.6802 17.6205 21.2802 17.8305C21.0902 17.9305 20.7902 18.0405 20.4202 18.0405C19.9902 18.0405 19.4602 17.9005 18.8402 17.4605L17.3602 16.4205C17.2902 18.6305 16.5902 19.8905 15.0002 20.4205C14.3602 20.6505 13.5702 20.7505 12.6202 20.7505H6.62016C6.38016 20.7505 6.15016 20.7405 5.91016 20.7105L15.0002 11.6305L20.6502 5.98047C20.9102 6.00046 21.1202 6.08047 21.2802 6.17047C21.6802 6.38047 22.3802 6.95046 22.3802 8.38047Z" fill="white"/>
</svg>
