<svg width="24" height="24" viewBox="0 0 24 24" fill="none" xmlns="http://www.w3.org/2000/svg">
<path d="M21.98 15.6699C21.94 15.6099 21.89 15.5499 21.84 15.5C21.03 14.57 19.83 14 18.5 14C17.24 14 16.09 14.52 15.27 15.36C14.48 16.17 14 17.28 14 18.5C14 19.34 14.24 20.1399 14.65 20.82C14.88 21.2 15.17 21.5499 15.51 21.84C15.56 21.89 15.61 21.93 15.67 21.98C15.67 21.98 15.67 21.98 15.68 21.98C16.44 22.62 17.42 23 18.5 23C20.14 23 21.57 22.1199 22.35 20.82C22.58 20.43 22.76 20 22.87 19.55C22.96 19.2099 23 18.86 23 18.5C23 17.43 22.62 16.44 21.98 15.6699ZM20.23 20.21C20.08 20.36 19.89 20.43 19.7 20.43C19.51 20.43 19.32 20.36 19.17 20.21L18.51 19.55L17.82 20.24C17.67 20.39 17.48 20.46 17.29 20.46C17.1 20.46 16.91 20.39 16.76 20.24C16.47 19.95 16.47 19.47 16.76 19.1799L17.45 18.4899L16.79 17.8299C16.5 17.54 16.5 17.06 16.79 16.77C17.08 16.4799 17.56 16.4799 17.85 16.77L18.51 17.43L19.14 16.8C19.43 16.5099 19.91 16.5099 20.2 16.8C20.49 17.09 20.49 17.57 20.2 17.8599L19.57 18.4899L20.23 19.1499C20.53 19.44 20.53 19.91 20.23 20.21Z" fill="white"/>
<path d="M14.7295 5.86V2.5C14.7295 2.22 14.5096 2 14.2295 2H9.76954C9.48953 2 9.26953 2.22 9.26953 2.5V5.86C9.26953 6.14 9.48953 6.36 9.76954 6.36H14.2295C14.5096 6.36 14.7295 6.14 14.7295 5.86Z" fill="white"/>
<path d="M7.25047 2.0207C4.69047 2.18069 2.94047 3.50069 2.29047 5.70069C2.19047 6.03069 2.43047 6.36069 2.77047 6.36069H7.27047C7.55047 6.36069 7.77047 6.14069 7.77047 5.8607V2.52069C7.77047 2.24069 7.53047 2.00069 7.25047 2.0207Z" fill="white"/>
<path d="M16.7504 2.01288C19.3105 2.17289 21.0605 3.49289 21.7105 5.69289C21.8105 6.02289 21.5705 6.35289 21.2305 6.35289H16.7305C16.4504 6.35289 16.2305 6.13289 16.2305 5.85288V2.51289C16.2305 2.23289 16.4705 1.99289 16.7504 2.01288Z" fill="white"/>
<path d="M22.0001 8.35937V12.7394C22.0001 13.1094 21.6101 13.3494 21.2801 13.1794C20.4401 12.7394 19.4801 12.4994 18.5 12.4994C16.89 12.4994 15.32 13.1594 14.2001 14.3094C13.1 15.4294 12.5 16.9194 12.5 18.4994C12.5 19.3094 12.8201 20.3494 13.22 21.2194C13.38 21.5694 13.14 21.9994 12.75 21.9994H7.81C4.6 21.9994 2 19.3994 2 16.1894V8.35937C2 8.07937 2.22001 7.85938 2.5 7.85938H21.5C21.78 7.85938 22.0001 8.07937 22.0001 8.35937Z" fill="white"/>
</svg>
