<svg width="24" height="24" viewBox="0 0 24 24" fill="none" xmlns="http://www.w3.org/2000/svg">
<path d="M21.98 15.65C21.16 14.64 19.91 14 18.5 14C17.44 14 16.46 14.37 15.69 14.99C14.65 15.81 14 17.0799 14 18.5C14 19.91 14.64 21.1599 15.65 21.98C16.42 22.62 17.42 23 18.5 23C19.64 23 20.67 22.5699 21.47 21.8799C22.4 21.05 23 19.85 23 18.5C23 17.42 22.62 16.4199 21.98 15.65ZM19.53 18.78C19.53 19.04 19.39 19.29 19.17 19.4199L17.76 20.2599C17.64 20.33 17.51 20.37 17.37 20.37C17.12 20.37 16.87 20.24 16.73 20.01C16.52 19.65 16.63 19.19 16.99 18.98L18.03 18.36V17.1C18.03 16.6899 18.37 16.35 18.78 16.35C19.19 16.35 19.53 16.6899 19.53 17.1V18.78Z" fill="white"/>
<path d="M14.7295 5.86V2.5C14.7295 2.22 14.5096 2 14.2295 2H9.76954C9.48953 2 9.26953 2.22 9.26953 2.5V5.86C9.26953 6.14 9.48953 6.36 9.76954 6.36H14.2295C14.5096 6.36 14.7295 6.14 14.7295 5.86Z" fill="white"/>
<path d="M7.25047 2.0207C4.69047 2.18069 2.94047 3.50069 2.29047 5.70069C2.19047 6.03069 2.43047 6.36069 2.77047 6.36069H7.27047C7.55047 6.36069 7.77047 6.14069 7.77047 5.8607V2.52069C7.77047 2.24069 7.53047 2.00069 7.25047 2.0207Z" fill="white"/>
<path d="M16.7504 2.01288C19.3105 2.17289 21.0605 3.49289 21.7105 5.69289C21.8105 6.02289 21.5705 6.35289 21.2305 6.35289H16.7305C16.4504 6.35289 16.2305 6.13289 16.2305 5.85288V2.51289C16.2305 2.23289 16.4705 1.99289 16.7504 2.01288Z" fill="white"/>
<path d="M22.0001 8.35937V12.7394C22.0001 13.1094 21.6101 13.3494 21.2801 13.1794C20.4401 12.7394 19.4801 12.4994 18.5 12.4994C16.89 12.4994 15.32 13.1594 14.2001 14.3094C13.1 15.4294 12.5 16.9194 12.5 18.4994C12.5 19.3094 12.8201 20.3494 13.22 21.2194C13.38 21.5694 13.14 21.9994 12.75 21.9994H7.81C4.6 21.9994 2 19.3994 2 16.1894V8.35937C2 8.07937 2.22001 7.85938 2.5 7.85938H21.5C21.78 7.85938 22.0001 8.07937 22.0001 8.35937Z" fill="white"/>
</svg>
