<svg width="24" height="24" viewBox="0 0 24 24" fill="none" xmlns="http://www.w3.org/2000/svg">
<path d="M3.89922 4.80078C2.40805 4.80078 1.19922 6.00961 1.19922 7.50078V16.5008C1.19922 17.9919 2.40805 19.2008 3.89922 19.2008H12.8992C14.3903 19.2008 15.5992 17.9919 15.5992 16.5008V7.50078C15.5992 6.00961 14.3903 4.80078 12.8992 4.80078H3.89922Z" fill="#0F172A"/>
<path d="M22.8004 5.70081C22.8004 5.3368 22.5812 5.00862 22.2448 4.86931C21.9086 4.73002 21.5214 4.80701 21.264 5.06441L17.664 8.66441C17.4952 8.83319 17.4004 9.06211 17.4004 9.30081V14.7008C17.4004 14.9395 17.4952 15.1684 17.664 15.3373L21.264 18.9373C21.5214 19.1947 21.9086 19.2716 22.2448 19.1323C22.5812 18.9929 22.8004 18.6649 22.8004 18.3008V5.70081Z" fill="#0F172A"/>
</svg>
