<svg width="24" height="24" viewBox="0 0 24 24" fill="none" xmlns="http://www.w3.org/2000/svg">
<path d="M1.19922 16.4988V8.61719L11.7808 19.1988H3.89922C2.40805 19.1988 1.19922 17.9899 1.19922 16.4988Z" fill="#0F172A"/>
<path d="M15.5992 7.50078V15.3824L5.01758 4.80078H12.8992C14.3903 4.80078 15.5992 6.00961 15.5992 7.50078Z" fill="#0F172A"/>
<path d="M22.8004 5.70081C22.8004 5.3368 22.5812 5.00862 22.2448 4.86931C21.9086 4.73002 21.5214 4.80701 21.264 5.06441L17.664 8.66441C17.4952 8.83319 17.4004 9.06211 17.4004 9.30081V14.7008C17.4004 14.9395 17.4952 15.1684 17.664 15.3373L21.264 18.9373C21.5214 19.1947 21.9086 19.2716 22.2448 19.1323C22.5812 18.9929 22.8004 18.6649 22.8004 18.3008V5.70081Z" fill="#0F172A"/>
<path d="M2.73561 5.06438C2.38415 4.71291 1.81429 4.71291 1.46282 5.06438C1.11135 5.41585 1.11135 5.98571 1.46282 6.33717L14.0629 18.9371C14.4143 19.2886 14.9841 19.2886 15.3356 18.9371C15.6871 18.5857 15.6871 18.0159 15.3356 17.6644L2.73561 5.06438Z" fill="#0F172A"/>
</svg>
