<svg width="24" height="24" viewBox="0 0 24 24" fill="none" xmlns="http://www.w3.org/2000/svg">
<path d="M11.25 7.85938H2V16.1894C2 16.2494 2 16.3094 2.01001 16.3594H11.25V7.85938Z" fill="white"/>
<path d="M7.69141 6.36H11.2514V2H7.72141V6.24C7.72141 6.28 7.7014 6.32 7.69141 6.36Z" fill="white"/>
<path d="M6.21891 6.24016V2.16016C3.99891 2.62015 2.54891 4.10016 2.12891 6.36016H6.23891C6.22891 6.32016 6.21891 6.28015 6.21891 6.24016Z" fill="white"/>
<path d="M16.22 2H12.75V6.36H16.22V2Z" fill="white"/>
<path d="M17.7109 6.36234H21.871C21.451 4.08234 19.981 2.59235 17.7209 2.15234V6.33234C17.7209 6.34235 17.7109 6.35234 17.7109 6.36234Z" fill="white"/>
<path d="M17.7207 21.8494C19.9107 21.4194 21.3507 20.0194 21.8207 17.8594H17.7207V21.8494Z" fill="white"/>
<path d="M16.22 17.8594H12.75V21.9994H16.22V17.8594Z" fill="white"/>
<path d="M12.75 16.3594H21.99C22 16.3094 22 16.2494 22 16.1894V7.85938H12.75V16.3594Z" fill="white"/>
<path d="M11.2507 17.8594H7.7207V21.9994H11.2507V17.8594Z" fill="white"/>
<path d="M2.17969 17.8594C2.64968 19.9993 4.06969 21.3994 6.21968 21.8394V17.8594H2.17969Z" fill="white"/>
</svg>
