<svg width="24" height="24" viewBox="0 0 24 24" fill="none" xmlns="http://www.w3.org/2000/svg">
<path d="M6.36001 7.78125H2V11.2512H6.36001V7.78125Z" fill="white"/>
<path d="M6.3604 6.29282V2.13281C4.0804 2.55281 2.59039 4.02281 2.15039 6.28282H6.3304C6.34039 6.28282 6.35039 6.29282 6.3604 6.29282Z" fill="white"/>
<path d="M6.36001 16.31V12.75H2V16.28H6.24001C6.28 16.28 6.32 16.3 6.36001 16.31Z" fill="white"/>
<path d="M21.8513 6.27968C21.4214 4.08968 20.0213 2.64968 17.8613 2.17969V6.27968H21.8513Z" fill="white"/>
<path d="M16.3595 11.25V2.01C16.3094 2 16.2494 2 16.1894 2H7.85938V11.25H16.3595Z" fill="white"/>
<path d="M22.0013 12.75H17.8613V16.28H22.0013V12.75Z" fill="white"/>
<path d="M17.8613 21.8213C20.0013 21.3512 21.4013 19.9313 21.8414 17.7812H17.8613V21.8213Z" fill="white"/>
<path d="M6.24016 17.7816H2.16016C2.62016 20.0016 4.10016 21.4517 6.36016 21.8717V17.7617C6.32016 17.7717 6.28016 17.7816 6.24016 17.7816Z" fill="white"/>
<path d="M22.0013 7.78125H17.8613V11.2512H22.0013V7.78125Z" fill="white"/>
<path d="M7.85938 12.75V22H16.1894C16.2494 22 16.3094 22 16.3595 21.99V12.75H7.85938Z" fill="white"/>
</svg>
