<svg width="24" height="24" viewBox="0 0 24 24" fill="none" xmlns="http://www.w3.org/2000/svg">
<path d="M5.10039 2.39844C3.60922 2.39844 2.40039 3.60727 2.40039 5.09844V7.49844C2.40039 7.99549 2.80334 8.39844 3.30039 8.39844C3.79744 8.39844 4.20039 7.99549 4.20039 7.49844V5.09844C4.20039 4.60139 4.60334 4.19844 5.10039 4.19844H7.50039C7.99744 4.19844 8.40039 3.79549 8.40039 3.29844C8.40039 2.80139 7.99744 2.39844 7.50039 2.39844H5.10039Z" fill="#0F172A"/>
<path d="M16.4996 2.39844C16.0026 2.39844 15.5996 2.80139 15.5996 3.29844C15.5996 3.79549 16.0026 4.19844 16.4996 4.19844H18.8996C19.3966 4.19844 19.7996 4.60139 19.7996 5.09844V7.49844C19.7996 7.99549 20.2026 8.39844 20.6996 8.39844C21.1966 8.39844 21.5996 7.99549 21.5996 7.49844V5.09844C21.5996 3.60727 20.3907 2.39844 18.8996 2.39844H16.4996Z" fill="#0F172A"/>
<path d="M4.20039 16.5016C4.20039 16.0045 3.79744 15.6016 3.30039 15.6016C2.80334 15.6016 2.40039 16.0045 2.40039 16.5016V18.9016C2.40039 20.3927 3.60922 21.6016 5.10039 21.6016H7.50039C7.99744 21.6016 8.40039 21.1986 8.40039 20.7016C8.40039 20.2045 7.99744 19.8016 7.50039 19.8016H5.10039C4.60334 19.8016 4.20039 19.3986 4.20039 18.9016V16.5016Z" fill="#0F172A"/>
<path d="M21.5996 16.5016C21.5996 16.0045 21.1966 15.6016 20.6996 15.6016C20.2026 15.6016 19.7996 16.0045 19.7996 16.5016V18.9016C19.7996 19.3986 19.3966 19.8016 18.8996 19.8016H16.4996C16.0026 19.8016 15.5996 20.2045 15.5996 20.7016C15.5996 21.1986 16.0026 21.6016 16.4996 21.6016H18.8996C20.3907 21.6016 21.5996 20.3927 21.5996 18.9016V16.5016Z" fill="#0F172A"/>
<path d="M8.40039 11.9984C8.40039 10.0102 10.0122 8.39844 12.0004 8.39844C13.9887 8.39844 15.6004 10.0102 15.6004 11.9984C15.6004 13.9867 13.9887 15.5984 12.0004 15.5984C10.0122 15.5984 8.40039 13.9867 8.40039 11.9984Z" fill="#0F172A"/>
</svg>
