<svg width="24" height="24" viewBox="0 0 24 24" fill="none" xmlns="http://www.w3.org/2000/svg">
<path d="M18.0003 16.7503C17.8403 16.7503 17.6903 16.7003 17.5503 16.6003C17.2203 16.3502 17.1503 15.8803 17.4003 15.5503C18.6603 13.8703 18.9303 11.6403 18.1203 9.71032C17.9603 9.33031 18.1403 8.89032 18.5203 8.73031C18.9003 8.57032 19.3403 8.75032 19.5003 9.13032C20.5203 11.5503 20.1703 14.3603 18.6003 16.4603C18.4503 16.6502 18.2303 16.7503 18.0003 16.7503Z" fill="white"/>
<path d="M19.8303 19.2493C19.6704 19.2493 19.5204 19.1992 19.3803 19.0993C19.0503 18.8492 18.9804 18.3793 19.2303 18.0493C21.3704 15.1993 21.8403 11.3792 20.4603 8.08922C20.3004 7.70922 20.4804 7.26922 20.8604 7.10922C21.2403 6.94922 21.6804 7.12922 21.8403 7.50922C23.4303 11.2892 22.8903 15.6692 20.4303 18.9493C20.2904 19.1492 20.0604 19.2493 19.8303 19.2493Z" fill="white"/>
<path d="M14.0404 12.9581C14.6704 12.3281 15.7504 12.7781 15.7504 13.6681V16.598C15.7504 18.3181 15.1305 19.6081 14.0205 20.228C13.5705 20.4781 13.0705 20.5981 12.5505 20.5981C11.7505 20.5981 10.8905 20.3281 10.0105 19.778L9.37047 19.3781C8.83047 19.0381 8.74047 18.278 9.19047 17.828L14.0404 12.9581Z" fill="white"/>
<path d="M21.77 2.23282C21.47 1.93281 20.9801 1.93281 20.6801 2.23282L15.7301 7.18282C15.6701 5.58281 15.0701 4.38281 14.01 3.79282C12.89 3.17282 11.46 3.33281 10 4.24282L7.09 6.06281C6.89 6.18281 6.66001 6.25282 6.43 6.25282H5.5H5C2.58001 6.25282 1.25 7.58282 1.25 10.0028V14.0028C1.25 16.4228 2.58001 17.7528 5 17.7528H5.16001L2.22001 20.6928C1.92001 20.9928 1.92001 21.4829 2.22001 21.7829C2.38 21.9228 2.57 22.0028 2.77 22.0028C2.97001 22.0028 3.16 21.9228 3.31 21.7728L21.77 3.31282C22.08 3.01281 22.08 2.53282 21.77 2.23282Z" fill="white"/>
</svg>
