<svg width="24" height="24" viewBox="0 0 24 24" fill="none" xmlns="http://www.w3.org/2000/svg">
<path d="M19.3303 16.7503C19.1704 16.7503 19.0204 16.7003 18.8803 16.6003C18.5503 16.3504 18.4804 15.8803 18.7303 15.5503C20.3004 13.4603 20.3004 10.5403 18.7303 8.45028C18.4804 8.12028 18.5503 7.65027 18.8803 7.40028C19.2103 7.15027 19.6804 7.22028 19.9303 7.55028C21.9004 10.1703 21.9004 13.8304 19.9303 16.4503C19.7904 16.6504 19.5604 16.7503 19.3303 16.7503Z" fill="white"/>
<path d="M15.3501 3.77777C14.2301 3.15777 12.8001 3.31777 11.3401 4.22777L8.42008 6.05777C8.22008 6.17777 7.99007 6.24777 7.76008 6.24777H6.83008H6.33008C3.91007 6.24777 2.58008 7.57777 2.58008 9.99777V13.9978C2.58008 16.4178 3.91007 17.7478 6.33008 17.7478H6.83008H7.76008C7.99007 17.7478 8.22008 17.8177 8.42008 17.9377L11.3401 19.7677C12.2201 20.3178 13.0801 20.5878 13.8801 20.5878C14.4001 20.5878 14.9001 20.4678 15.3501 20.2177C16.4601 19.5978 17.0801 18.3078 17.0801 16.5877V7.40777C17.0801 5.68777 16.4601 4.39777 15.3501 3.77777Z" fill="white"/>
</svg>
