<svg width="24" height="24" viewBox="0 0 24 24" fill="none" xmlns="http://www.w3.org/2000/svg">
<path d="M18.0003 16.7503C17.8403 16.7503 17.6903 16.7003 17.5503 16.6003C17.2203 16.3504 17.1503 15.8803 17.4003 15.5503C18.9703 13.4603 18.9703 10.5403 17.4003 8.45028C17.1503 8.12028 17.2203 7.65027 17.5503 7.40028C17.8803 7.15027 18.3503 7.22028 18.6003 7.55028C20.5603 10.1703 20.5603 13.8304 18.6003 16.4503C18.4503 16.6504 18.2303 16.7503 18.0003 16.7503Z" fill="white"/>
<path d="M19.8303 19.2503C19.6704 19.2503 19.5204 19.2004 19.3803 19.1003C19.0503 18.8503 18.9804 18.3803 19.2303 18.0503C21.9003 14.4904 21.9003 9.51027 19.2303 5.95027C18.9804 5.62027 19.0503 5.15027 19.3803 4.90027C19.7103 4.65028 20.1804 4.72027 20.4303 5.05027C23.5004 9.14027 23.5004 14.8603 20.4303 18.9503C20.2904 19.1503 20.0604 19.2503 19.8303 19.2503Z" fill="white"/>
<path d="M14.0201 3.77777C12.9 3.15777 11.47 3.31777 10.01 4.22777L7.09 6.05777C6.89 6.17777 6.66001 6.24777 6.43 6.24777H5.5H5C2.58001 6.24777 1.25 7.57777 1.25 9.99777V13.9978C1.25 16.4178 2.58001 17.7478 5 17.7478H5.5H6.43C6.66001 17.7478 6.89 17.8177 7.09 17.9377L10.01 19.7677C10.89 20.3178 11.75 20.5878 12.5501 20.5878C13.07 20.5878 13.5701 20.4678 14.0201 20.2177C15.1301 19.5978 15.75 18.3078 15.75 16.5877V7.40777C15.75 5.68777 15.1301 4.39777 14.0201 3.77777Z" fill="white"/>
</svg>
