<svg width="24" height="24" viewBox="0 0 24 24" fill="none" xmlns="http://www.w3.org/2000/svg">
<path d="M22 12.75H18C17.59 12.75 17.25 12.41 17.25 12C17.25 11.59 17.59 11.25 18 11.25H22C22.41 11.25 22.75 11.59 22.75 12C22.75 12.41 22.41 12.75 22 12.75Z" fill="white"/>
<path d="M14.0201 3.77777C12.9 3.15777 11.47 3.31777 10.01 4.22777L7.09 6.05777C6.89 6.17777 6.66001 6.24777 6.43 6.24777H5.5H5C2.58001 6.24777 1.25 7.57777 1.25 9.99777V13.9978C1.25 16.4178 2.58001 17.7478 5 17.7478H5.5H6.43C6.66001 17.7478 6.89 17.8177 7.09 17.9377L10.01 19.7677C10.89 20.3178 11.75 20.5878 12.5501 20.5878C13.07 20.5878 13.5701 20.4678 14.0201 20.2177C15.1301 19.5978 15.75 18.3078 15.75 16.5877V7.40777C15.75 5.68777 15.1301 4.39777 14.0201 3.77777Z" fill="white"/>
</svg>
