<svg width="24" height="24" viewBox="0 0 24 24" fill="none" xmlns="http://www.w3.org/2000/svg">
<path d="M22.5295 13.4197L21.0794 11.9697L22.4795 10.5697C22.7695 10.2797 22.7695 9.79969 22.4795 9.50968C22.1894 9.21969 21.7094 9.21969 21.4195 9.50968L20.0195 10.9097L18.5695 9.45969C18.2795 9.16969 17.7995 9.16969 17.5094 9.45969C17.2195 9.74968 17.2195 10.2297 17.5094 10.5197L18.9595 11.9697L17.4695 13.4597C17.1794 13.7497 17.1794 14.2297 17.4695 14.5198C17.6195 14.6698 17.8094 14.7397 17.9995 14.7397C18.1895 14.7397 18.3794 14.6698 18.5294 14.5198L20.0195 13.0297L21.4694 14.4797C21.6194 14.6297 21.8095 14.6998 21.9995 14.6998C22.1894 14.6998 22.3795 14.6297 22.5295 14.4797C22.8194 14.1898 22.8194 13.7197 22.5295 13.4197Z" fill="white"/>
<path d="M14.0201 3.77777C12.9 3.15777 11.47 3.31777 10.01 4.22777L7.09 6.05777C6.89 6.17777 6.66001 6.24777 6.43 6.24777H5.5H5C2.58001 6.24777 1.25 7.57777 1.25 9.99777V13.9978C1.25 16.4178 2.58001 17.7478 5 17.7478H5.5H6.43C6.66001 17.7478 6.89 17.8177 7.09 17.9377L10.01 19.7677C10.89 20.3178 11.75 20.5878 12.5501 20.5878C13.07 20.5878 13.5701 20.4678 14.0201 20.2177C15.1301 19.5978 15.75 18.3078 15.75 16.5877V7.40777C15.75 5.68777 15.1301 4.39777 14.0201 3.77777Z" fill="white"/>
</svg>
