<svg width="24" height="24" viewBox="0 0 24 24" fill="none" xmlns="http://www.w3.org/2000/svg">
<path d="M17.52 3.77777C16.3999 3.15777 14.97 3.31777 13.51 4.22777L10.59 6.05777C10.39 6.17777 10.16 6.24777 9.92999 6.24777H8.99999H8.5C6.08 6.24777 4.75 7.57777 4.75 9.99777V13.9978C4.75 16.4178 6.08 17.7478 8.5 17.7478H8.99999H9.92999C10.16 17.7478 10.39 17.8177 10.59 17.9377L13.51 19.7677C14.3899 20.3178 15.25 20.5878 16.05 20.5878C16.57 20.5878 17.07 20.4678 17.52 20.2177C18.63 19.5978 19.2499 18.3078 19.2499 16.5877V7.40777C19.2499 5.68777 18.63 4.39777 17.52 3.77777Z" fill="white"/>
</svg>
