<svg width="24" height="24" viewBox="0 0 24 24" fill="none" xmlns="http://www.w3.org/2000/svg">
<path d="M1.19922 5.09811C1.95132 4.53319 2.88618 4.19844 3.89922 4.19844H20.0992C21.1123 4.19844 22.0472 4.53319 22.7992 5.09811C22.7991 3.60709 21.5903 2.39844 20.0992 2.39844H3.89922C2.40816 2.39844 1.1994 3.60709 1.19922 5.09811Z" fill="#0F172A"/>
<path d="M1.19922 8.69968C1.95132 8.13475 2.88618 7.8 3.89922 7.8H20.0992C21.1123 7.8 22.0472 8.13475 22.7992 8.69968C22.7991 7.20865 21.5903 6 20.0992 6H3.89922C2.40816 6 1.1994 7.20865 1.19922 8.69968Z" fill="#0F172A"/>
<path d="M8.39922 9.60156C9.06196 9.60156 9.59922 10.1388 9.59922 10.8016C9.59922 12.1271 10.6737 13.2016 11.9992 13.2016C13.3247 13.2016 14.3992 12.1271 14.3992 10.8016C14.3992 10.1388 14.9365 9.60156 15.5992 9.60156H20.0992C21.5903 9.60156 22.7992 10.8104 22.7992 12.3016V18.9016C22.7992 20.3927 21.5903 21.6016 20.0992 21.6016H3.89922C2.40805 21.6016 1.19922 20.3927 1.19922 18.9016V12.3016C1.19922 10.8104 2.40805 9.60156 3.89922 9.60156H8.39922Z" fill="#0F172A"/>
</svg>
