<svg width="24" height="24" viewBox="0 0 24 24" fill="none" xmlns="http://www.w3.org/2000/svg">
<path d="M22.0001 10.9731V13.0331C22.0001 13.5832 21.5602 14.0332 21.0002 14.0531H19.0402C17.9602 14.0531 16.9702 13.2631 16.8802 12.1831C16.8202 11.5531 17.0602 10.9631 17.4802 10.5531C17.8502 10.1731 18.3602 9.95312 18.9202 9.95312H21.0002C21.5602 9.97313 22.0001 10.4231 22.0001 10.9731Z" fill="white"/>
<path d="M20.4701 15.55H19.04C17.1401 15.55 15.54 14.12 15.38 12.3C15.29 11.26 15.6701 10.22 16.43 9.48C17.07 8.82 17.96 8.45 18.92 8.45H20.4701C20.76 8.45 21 8.21 20.97 7.92C20.75 5.49 19.14 3.83 16.7501 3.55C16.5101 3.51 16.26 3.5 16.0001 3.5H7C6.72001 3.5 6.45001 3.52 6.19 3.56C3.64 3.88 2 5.78 2 8.5V15.5C2 18.26 4.24 20.5 7 20.5H16.0001C18.8 20.5 20.73 18.75 20.97 16.08C21 15.79 20.76 15.55 20.4701 15.55ZM13.0001 9.75H7C6.59 9.75 6.25 9.41 6.25 9C6.25 8.59 6.59 8.25 7 8.25H13.0001C13.41 8.25 13.7501 8.59 13.7501 9C13.7501 9.41 13.41 9.75 13.0001 9.75Z" fill="white"/>
</svg>
