<svg width="24" height="24" viewBox="0 0 24 24" fill="none" xmlns="http://www.w3.org/2000/svg">
<path d="M21.5 12.5H19C17.9 12.5 17 13.4 17 14.4999C17 15.6 17.9 16.5 19 16.5H21.5C21.78 16.5 22 16.28 22 15.9999V12.9999C22 12.72 21.78 12.5 21.5 12.5Z" fill="white"/>
<path d="M5 15C3.8 15 2.72999 15.53 2 16.36C1.37999 17.07 1 17.99 1 19C1 19.75 1.21 20.46 1.58 21.06C2.27 22.22 3.53999 23 5 23C6.01 23 6.92999 22.63 7.63 22C7.94 21.74 8.21 21.42 8.42 21.06C8.78999 20.46 8.99999 19.75 8.99999 19C8.99999 16.79 7.21 15 5 15ZM6.59999 20.58C6.44999 20.73 6.26 20.8 6.07 20.8C5.87999 20.8 5.69 20.73 5.54 20.58L5.00999 20.05L4.46 20.6C4.31 20.75 4.12 20.82 3.92999 20.82C3.74 20.82 3.55 20.75 3.4 20.6C3.11 20.31 3.11 19.83 3.4 19.54L3.95 18.99L3.41999 18.46C3.13 18.17 3.13 17.69 3.41999 17.4C3.71 17.11 4.19 17.11 4.48 17.4L5.00999 17.93L5.51 17.43C5.8 17.14 6.28 17.14 6.56999 17.43C6.86 17.72 6.86 18.2 6.56999 18.49L6.07 18.99L6.59999 19.52C6.89 19.81 6.89 20.28 6.59999 20.58Z" fill="white"/>
<path d="M16.5292 5.40016C16.8292 5.69016 16.5793 6.14016 16.1593 6.14016L7.87923 6.13015C7.39923 6.13015 7.15923 5.55016 7.49923 5.21016L9.24922 3.45016C10.7292 1.98016 13.1192 1.98016 14.5993 3.45016L16.4893 5.36016C16.4992 5.37016 16.5193 5.39016 16.5292 5.40016Z" fill="white"/>
<path d="M21.8714 18.66C21.2614 20.72 19.5014 22 17.1014 22H10.6014C10.2114 22 9.96133 21.57 10.1214 21.21C10.4214 20.51 10.6114 19.72 10.6114 19C10.6114 15.97 8.14133 13.5 5.11133 13.5C4.35133 13.5 3.61133 13.66 2.93132 13.96C2.56133 14.12 2.11133 13.87 2.11133 13.47V12C2.11133 9.28 3.75133 7.38 6.30133 7.06C6.55133 7.02 6.82133 7 7.10132 7H17.1014C17.3614 7 17.6114 7.01 17.8514 7.05C19.8713 7.28 21.3314 8.51 21.8714 10.34C21.9713 10.67 21.7313 11 21.3914 11H19.1014C16.9313 11 15.2114 12.98 15.6814 15.23C16.0114 16.87 17.5313 18 19.2014 18H21.3914C21.7414 18 21.9713 18.34 21.8714 18.66Z" fill="white"/>
</svg>
