<svg width="24" height="24" viewBox="0 0 24 24" fill="none" xmlns="http://www.w3.org/2000/svg">
<path d="M1.23181 21.6778L1.99181 20.9178C1.59181 20.3178 1.36181 19.5978 1.36181 18.8278C1.36181 16.7178 3.07181 15.0078 5.18182 15.0078C7.29181 15.0078 9.00181 16.7079 9.00181 18.8178C9.00181 20.9278 7.29181 22.6378 5.18182 22.6378C4.41181 22.6378 3.69181 22.4079 3.09181 22.0078L2.33182 22.7679C2.17182 22.9179 1.97182 22.9978 1.77181 22.9978C1.57182 22.9978 1.37182 22.9179 1.22182 22.7679C0.921811 22.4679 0.921811 21.9778 1.23181 21.6778Z" fill="white"/>
<path d="M21.502 12.5H19.0019C17.902 12.5 17.002 13.4 17.002 14.4999C17.002 15.6 17.902 16.5 19.0019 16.5H21.502C21.7819 16.5 22.0019 16.28 22.0019 15.9999V12.9999C22.0019 12.72 21.7819 12.5 21.502 12.5Z" fill="white"/>
<path d="M16.5312 5.40016C16.8312 5.69016 16.5812 6.14016 16.1612 6.14016L7.88118 6.13015C7.40118 6.13015 7.16118 5.55016 7.50119 5.21016L9.25118 3.45016C10.7312 1.98016 13.1212 1.98016 14.6012 3.45016L16.4912 5.36016C16.5012 5.37016 16.5212 5.39016 16.5312 5.40016Z" fill="white"/>
<path d="M21.8713 18.66C21.2613 20.72 19.5013 22 17.1013 22H10.6013C10.2113 22 9.96132 21.57 10.1213 21.21C10.4213 20.51 10.6113 19.72 10.6113 19C10.6113 15.97 8.14133 13.5 5.11133 13.5C4.35132 13.5 3.61133 13.66 2.93132 13.96C2.56133 14.12 2.11133 13.87 2.11133 13.47V12C2.11133 9.28 3.75132 7.38 6.30132 7.06C6.55133 7.02 6.82133 7 7.10132 7H17.1013C17.3613 7 17.6113 7.01 17.8513 7.05C19.8712 7.28 21.3313 8.51 21.8713 10.34C21.9712 10.67 21.7312 11 21.3913 11H19.1013C16.9312 11 15.2113 12.98 15.6813 15.23C16.0113 16.87 17.5312 18 19.2013 18H21.3913C21.7413 18 21.9712 18.34 21.8713 18.66Z" fill="white"/>
</svg>
