<svg width="24" height="24" viewBox="0 0 24 24" fill="none" xmlns="http://www.w3.org/2000/svg">
<path d="M20.97 16.08C20.73 18.75 18.8 20.5 16.0001 20.5H7C4.24 20.5 2 18.26 2 15.5V8.5C2 5.78 3.64 3.88 6.19 3.56C6.45001 3.52 6.72001 3.5 7 3.5H16.0001C16.26 3.5 16.5101 3.51 16.7501 3.55C19.14 3.83 20.76 5.5 20.97 7.92C21 8.21 20.76 8.45 20.4701 8.45H18.92C17.96 8.45 17.07 8.82 16.43 9.48C15.6701 10.22 15.29 11.26 15.38 12.3C15.54 14.12 17.1401 15.55 19.04 15.55H20.4701C20.76 15.55 21 15.79 20.97 16.08Z" fill="white"/>
<path d="M22.0001 10.9731V13.0331C22.0001 13.5832 21.5602 14.0332 21.0002 14.0531H19.0402C17.9602 14.0531 16.9702 13.2631 16.8802 12.1831C16.8202 11.5531 17.0602 10.9631 17.4802 10.5531C17.8502 10.1731 18.3602 9.95312 18.9202 9.95312H21.0002C21.5602 9.97313 22.0001 10.4231 22.0001 10.9731Z" fill="white"/>
</svg>
