<svg width="24" height="24" viewBox="0 0 24 24" fill="none" xmlns="http://www.w3.org/2000/svg">
<path d="M11.9412 2.21178L9.53118 7.82178H7.12117C6.72118 7.82178 6.33118 7.85178 5.95117 7.93179L6.95118 5.53179L6.99118 5.44179L7.05118 5.28178C7.08118 5.21178 7.10118 5.15178 7.13118 5.10178C8.29117 2.41179 9.59118 1.57179 11.9412 2.21178Z" fill="white"/>
<path d="M18.7291 8.08562L18.7092 8.07562C18.1092 7.90562 17.4991 7.81562 16.8792 7.81562H10.6191L12.8691 2.58562L12.8991 2.51562C13.0392 2.56562 13.1892 2.63562 13.3392 2.68562L15.5491 3.61562C16.7791 4.12562 17.6391 4.65562 18.1692 5.29562C18.2592 5.41562 18.3391 5.52562 18.4191 5.65562C18.5091 5.79562 18.5791 5.93562 18.6192 6.08562C18.6591 6.17562 18.6891 6.25562 18.7092 6.34562C18.8592 6.85562 18.8691 7.43562 18.7291 8.08562Z" fill="white"/>
<path d="M18.2902 9.52032C17.8402 9.39032 17.3702 9.32031 16.8802 9.32031H7.12023C6.44023 9.32031 5.80023 9.45032 5.20023 9.71032C3.46023 10.4603 2.24023 12.1903 2.24023 14.2003V16.1503C2.24023 16.3903 2.26023 16.6204 2.29023 16.8604C2.51023 20.0404 4.21023 21.7403 7.39023 21.9503C7.62023 21.9803 7.85024 22.0003 8.10023 22.0003H15.9002C19.6002 22.0003 21.5502 20.2403 21.7402 16.7402C21.7502 16.5503 21.7602 16.3502 21.7602 16.1503V14.2003C21.7602 11.9903 20.2902 10.1303 18.2902 9.52032ZM14.5002 16.7503H9.50023C9.09023 16.7503 8.75023 16.4102 8.75023 16.0003C8.75023 15.5903 9.09023 15.2503 9.50023 15.2503H14.5002C14.9102 15.2503 15.2502 15.5903 15.2502 16.0003C15.2502 16.4102 14.9102 16.7503 14.5002 16.7503Z" fill="white"/>
</svg>
