<svg width="24" height="24" viewBox="0 0 24 24" fill="none" xmlns="http://www.w3.org/2000/svg">
<path d="M11.9412 2.21178L9.53118 7.82178H7.12117C6.72118 7.82178 6.33118 7.85178 5.95117 7.93179L6.95118 5.53179L6.99118 5.44179L7.05118 5.28178C7.08118 5.21178 7.10118 5.15178 7.13118 5.10178C8.29117 2.41179 9.59118 1.57179 11.9412 2.21178Z" fill="white"/>
<path d="M18.7291 8.08562L18.7092 8.07562C18.1092 7.90562 17.4991 7.81562 16.8792 7.81562H10.6191L12.8691 2.58562L12.8991 2.51562C13.0392 2.56562 13.1892 2.63562 13.3392 2.68562L15.5491 3.61562C16.7791 4.12562 17.6391 4.65562 18.1692 5.29562C18.2592 5.41562 18.3391 5.52562 18.4191 5.65562C18.5091 5.79562 18.5791 5.93562 18.6192 6.08562C18.6591 6.17562 18.6891 6.25562 18.7092 6.34562C18.8592 6.85562 18.8691 7.43562 18.7291 8.08562Z" fill="white"/>
<path d="M12.5195 17.662H12.7696C13.0696 17.662 13.3196 17.392 13.3196 17.062C13.3196 16.642 13.1996 16.582 12.9395 16.482L12.5195 16.332V17.662Z" fill="white"/>
<path d="M18.2902 9.52032C17.8402 9.39032 17.3702 9.32031 16.8802 9.32031H7.12023C6.44023 9.32031 5.80023 9.45032 5.20023 9.71032C3.46023 10.4603 2.24023 12.1903 2.24023 14.2003V16.1503C2.24023 16.3903 2.26023 16.6204 2.29023 16.8604C2.51023 20.0404 4.21023 21.7403 7.39023 21.9503C7.62023 21.9803 7.85024 22.0003 8.10023 22.0003H15.9002C19.6002 22.0003 21.5502 20.2403 21.7402 16.7402C21.7502 16.5503 21.7602 16.3502 21.7602 16.1503V14.2003C21.7602 11.9903 20.2902 10.1303 18.2902 9.52032ZM13.2802 15.5003C13.7402 15.6604 14.3602 16.0003 14.3602 17.0603C14.3602 17.9704 13.6502 18.7003 12.7702 18.7003H12.5202V18.9203C12.5202 19.2103 12.2902 19.4404 12.0002 19.4404C11.7102 19.4404 11.4802 19.2103 11.4802 18.9203V18.7003H11.3902C10.4302 18.7003 9.64023 17.8903 9.64023 16.8904C9.64023 16.6003 9.87023 16.3703 10.1602 16.3703C10.4502 16.3703 10.6802 16.6003 10.6802 16.8904C10.6802 17.3104 11.0002 17.6603 11.3902 17.6603H11.4802V15.9703L10.7202 15.7003C10.2602 15.5404 9.64023 15.2003 9.64023 14.1403C9.64023 13.2304 10.3502 12.5003 11.2302 12.5003H11.4802V12.2803C11.4802 11.9903 11.7102 11.7603 12.0002 11.7603C12.2902 11.7603 12.5202 11.9903 12.5202 12.2803V12.5003H12.6102C13.5702 12.5003 14.3602 13.3103 14.3602 14.3104C14.3602 14.6003 14.1302 14.8303 13.8402 14.8303C13.5502 14.8303 13.3202 14.6003 13.3202 14.3104C13.3202 13.8904 13.0002 13.5403 12.6102 13.5403H12.5202V15.2303L13.2802 15.5003Z" fill="white"/>
<path d="M10.6797 14.1392C10.6797 14.5592 10.7997 14.6192 11.0597 14.7191L11.4797 14.8691V13.5391H11.2297C10.9197 13.5391 10.6797 13.8092 10.6797 14.1392Z" fill="white"/>
</svg>
