<svg width="24" height="24" viewBox="0 0 24 24" fill="none" xmlns="http://www.w3.org/2000/svg">
<path d="M5 15C2.78999 15 1 16.79 1 19C1 19.75 1.21 20.46 1.58 21.06C2.27 22.22 3.53999 23 5 23C6.46 23 7.73 22.22 8.42 21.06C8.78999 20.46 8.99999 19.75 8.99999 19C8.99999 16.79 7.21 15 5 15ZM6.49 19.73H5.75V20.51C5.75 20.92 5.41 21.26 5 21.26C4.58999 21.26 4.25 20.92 4.25 20.51V19.73H3.50999C3.1 19.73 2.75999 19.39 2.75999 18.98C2.75999 18.57 3.1 18.23 3.50999 18.23H4.25V17.52C4.25 17.11 4.58999 16.77 5 16.77C5.41 16.77 5.75 17.11 5.75 17.52V18.23H6.49C6.89999 18.23 7.24 18.57 7.24 18.98C7.24 19.39 6.91 19.73 6.49 19.73Z" fill="white"/>
<path d="M21.5 12.5H19C17.9 12.5 17 13.4 17 14.4999C17 15.6 17.9 16.5 19 16.5H21.5C21.78 16.5 22 16.28 22 15.9999V12.9999C22 12.72 21.78 12.5 21.5 12.5Z" fill="white"/>
<path d="M16.5292 5.40016C16.8292 5.69016 16.5793 6.14016 16.1593 6.14016L7.87923 6.13015C7.39923 6.13015 7.15923 5.55016 7.49923 5.21016L9.24922 3.45016C10.7292 1.98016 13.1192 1.98016 14.5993 3.45016L16.4893 5.36016C16.4992 5.37016 16.5193 5.39016 16.5292 5.40016Z" fill="white"/>
<path d="M21.8714 18.66C21.2614 20.72 19.5014 22 17.1014 22H10.6014C10.2114 22 9.96133 21.57 10.1214 21.21C10.4214 20.51 10.6114 19.72 10.6114 19C10.6114 15.97 8.14133 13.5 5.11133 13.5C4.35133 13.5 3.61133 13.66 2.93132 13.96C2.56133 14.12 2.11133 13.87 2.11133 13.47V12C2.11133 9.28 3.75133 7.38 6.30133 7.06C6.55133 7.02 6.82133 7 7.10132 7H17.1014C17.3614 7 17.6114 7.01 17.8514 7.05C19.8713 7.28 21.3314 8.51 21.8714 10.34C21.9713 10.67 21.7313 11 21.3914 11H19.1014C16.9313 11 15.2114 12.98 15.6814 15.23C16.0114 16.87 17.5313 18 19.2014 18H21.3914C21.7414 18 21.9713 18.34 21.8714 18.66Z" fill="white"/>
</svg>
