<svg width="24" height="24" viewBox="0 0 24 24" fill="none" xmlns="http://www.w3.org/2000/svg">
<path d="M12 2C6.48001 2 2 6.48 2 12C2 17.52 6.48001 22 12 22C17.52 22 22.0001 17.52 22.0001 12C22.0001 6.48 17.52 2 12 2ZM14.67 16.43L12.42 17.93C12.29 18.01 12.15 18.06 12 18.06C11.85 18.06 11.71 18.02 11.58 17.93L9.33001 16.43C8.99 16.2 8.89 15.73 9.12001 15.39C9.35 15.04 9.82 14.95 10.16 15.18L11.99 16.4L13.82 15.18C14.16 14.95 14.63 15.04 14.8601 15.39C15.1001 15.74 15.0101 16.2 14.67 16.43ZM16.5 12.99C16.5 13.77 15.65 14.25 14.99 13.85L12.5201 12.37C12.2 12.18 11.81 12.18 11.49 12.37L9.02 13.85C8.35 14.25 7.50999 13.77 7.50999 12.99V9.16C7.50999 8.82 7.69 8.5 7.97 8.32L11.47 6.1C11.8 5.89 12.21 5.89 12.54 6.1L16.04 8.32C16.3301 8.5 16.5 8.82 16.5 9.16V12.99Z" fill="white"/>
</svg>
