<svg width="24" height="24" viewBox="0 0 24 24" fill="none" xmlns="http://www.w3.org/2000/svg">
<path d="M11.7502 9.42998L8.50016 15L7.87016 16.09L5.40016 20.31C5.22016 20.63 4.76015 20.64 4.56016 20.33L1.18016 15.28C1.07016 15.11 1.07016 14.89 1.18016 14.72L4.85017 9.22C4.94017 9.08 5.10015 9 5.27014 9H11.5002L11.7502 9.42998Z" fill="white"/>
<path d="M22.8411 14.73L16.141 3.25C16.0611 3.09 15.8911 3 15.7111 3H8.8711C8.4811 3 8.2411 3.42 8.44109 3.75L11.5011 9L11.7511 9.42998L14.5611 14.25C14.761 14.58 14.521 15 14.131 15H8.50109L7.87109 16.09C8.05109 15.77 8.51109 15.76 8.71109 16.07L11.8511 20.78C11.9411 20.92 12.1011 21 12.271 21H18.7311C18.901 21 19.0611 20.92 19.1511 20.78L22.831 15.26C22.9311 15.1 22.9411 14.9 22.8411 14.73Z" fill="white"/>
</svg>
