<svg width="24" height="24" viewBox="0 0 24 24" fill="none" xmlns="http://www.w3.org/2000/svg">
<path d="M16.0001 3.75H8C7.59001 3.75 7.25 3.41 7.25 3C7.25 2.59 7.59001 2.25 8 2.25H16.0001C16.41 2.25 16.7501 2.59 16.7501 3C16.7501 3.41 16.41 3.75 16.0001 3.75Z" fill="white"/>
<path d="M16.0001 21.75H8C7.59001 21.75 7.25 21.41 7.25 21C7.25 20.59 7.59001 20.25 8 20.25H16.0001C16.41 20.25 16.7501 20.59 16.7501 21C16.7501 21.41 16.41 21.75 16.0001 21.75Z" fill="white"/>
<path d="M15.5 5H8.5C6.17 5 5 6.17 5 8.5V15.5C5 17.83 6.17 19 8.5 19H15.5C17.8301 19 19.0001 17.83 19.0001 15.5V8.5C19.0001 6.17 17.8301 5 15.5 5ZM14.5001 13.25H11.5C11.09 13.25 10.75 12.91 10.75 12.5V9.5C10.75 9.09 11.09 8.75 11.5 8.75C11.91 8.75 12.2501 9.09 12.2501 9.5V11.75H14.5001C14.91 11.75 15.2501 12.09 15.2501 12.5C15.2501 12.91 14.91 13.25 14.5001 13.25Z" fill="white"/>
</svg>
