<svg width="24" height="24" viewBox="0 0 24 24" fill="none" xmlns="http://www.w3.org/2000/svg">
<path fill-rule="evenodd" clip-rule="evenodd" d="M0.811183 8.33097C3.64474 5.41495 7.61141 3.60156 12 3.60156C16.3886 3.60156 20.3554 5.41495 23.1889 8.33097C23.5318 8.68383 23.5277 9.24665 23.1798 9.59457L22.7555 10.0189C22.5851 10.1893 22.3534 10.2843 22.1124 10.2825C21.8713 10.2807 21.6412 10.1823 21.4733 10.0093C19.0733 7.53645 15.7168 6.00156 12 6.00156C8.28337 6.00156 4.92677 7.53645 2.52679 10.0093C2.35892 10.1823 2.1287 10.2807 1.88768 10.2825C1.64666 10.2843 1.41499 10.1893 1.24456 10.0189L0.820244 9.59457C0.472332 9.24665 0.468296 8.68383 0.811183 8.33097ZM4.20148 11.7301C6.16618 9.67989 8.93458 8.40156 12 8.40156C15.0655 8.40156 17.8339 9.67989 19.7986 11.7301C20.1373 12.0836 20.1314 12.643 19.7852 12.9892L19.3608 13.4136C19.1896 13.5848 18.9564 13.6799 18.7142 13.6771C18.472 13.6744 18.2411 13.574 18.0738 13.399C16.5432 11.7974 14.3887 10.8016 12 10.8016C9.61141 10.8016 7.45687 11.7974 5.9263 13.399C5.75894 13.574 5.52806 13.6744 5.28584 13.6771C5.04362 13.6799 4.81052 13.5848 4.63925 13.4136L4.21488 12.9892C3.86869 12.643 3.86273 12.0836 4.20148 11.7301ZM7.58473 15.1388C8.68002 13.949 10.2534 13.2016 12 13.2016C13.7467 13.2016 15.32 13.949 16.4153 15.1388C16.7422 15.4939 16.7308 16.0435 16.3896 16.3848L15.9649 16.8095C15.7909 16.9835 15.5533 17.0786 15.3074 17.0729C15.0614 17.0671 14.8286 16.9609 14.663 16.779C14.0033 16.0543 13.0552 15.6016 12 15.6016C10.9449 15.6016 9.99679 16.0543 9.33708 16.779C9.17147 16.9609 8.93861 17.0671 8.69266 17.0729C8.44672 17.0786 8.20913 16.9835 8.03518 16.8095L7.6105 16.3848C7.26925 16.0435 7.25789 15.4939 7.58473 15.1388ZM10.9394 18.4409C11.2098 18.1704 11.5861 18.0016 12 18.0016C12.414 18.0016 12.7902 18.1704 13.0607 18.4409C13.4122 18.7924 13.4122 19.3622 13.0607 19.7137L12.6365 20.1379C12.285 20.4894 11.7151 20.4894 11.3636 20.1379L10.9394 19.7137C10.5879 19.3622 10.5879 18.7924 10.9394 18.4409Z" fill="#0F172A"/>
</svg>
