<svg width="24" height="24" viewBox="0 0 24 24" fill="none" xmlns="http://www.w3.org/2000/svg">
<path fill-rule="evenodd" clip-rule="evenodd" d="M20.8 2.24144L12.8 3.84144C12.33 3.93144 12 4.34144 12 4.82144V10.0014C12 10.5514 12.45 11.0014 13 11.0014H21C21.55 11.0014 22 10.5514 22 10.0014V3.22144C22 2.59144 21.42 2.12144 20.8 2.24144Z" fill="white"/>
<path fill-rule="evenodd" clip-rule="evenodd" d="M20.8 21.76L12.8 20.16C12.33 20.07 12 19.66 12 19.18V14.0001C12 13.45 12.45 13 13 13H21C21.55 13 22 13.45 22 14.0001V20.7801C22 21.4101 21.42 21.88 20.8 21.76Z" fill="white"/>
<path fill-rule="evenodd" clip-rule="evenodd" d="M8.78998 4.5635L2.78998 5.83349C2.32999 5.93349 2 6.34349 2 6.8135V10.0035C2 10.5535 2.45 11.0035 3.00001 11.0035H9.00001C9.55 11.0035 10 10.5535 10 10.0035V5.53349C10 4.90349 9.40999 4.42349 8.78998 4.5635Z" fill="white"/>
<path fill-rule="evenodd" clip-rule="evenodd" d="M8.78998 19.44L2.78998 18.1701C2.32999 18.07 2 17.6601 2 17.19V14.0001C2 13.45 2.45 13 3.00001 13H9.00001C9.55 13 10 13.45 10 14.0001V18.4701C10 19.1001 9.40999 19.5801 8.78998 19.44Z" fill="white"/>
</svg>
