<svg width="24" height="24" viewBox="0 0 24 24" fill="none" xmlns="http://www.w3.org/2000/svg">
<path d="M18.5 22.75C16.16 22.75 14.25 20.84 14.25 18.5V18C14.25 17.59 14.5901 17.25 15 17.25C15.41 17.25 15.75 17.59 15.75 18V18.5C15.75 20.02 16.98 21.25 18.5 21.25C20.0201 21.25 21.2501 20.02 21.2501 18.5C21.2501 16.98 20.0201 15.75 18.5 15.75H2C1.59001 15.75 1.25 15.41 1.25 15C1.25 14.59 1.59001 14.25 2 14.25H18.5C20.84 14.25 22.7501 16.16 22.7501 18.5C22.7501 20.84 20.84 22.75 18.5 22.75Z" fill="white"/>
<path d="M18.5 12.75H2C1.59001 12.75 1.25 12.41 1.25 12C1.25 11.59 1.59001 11.25 2 11.25H18.5C20.0201 11.25 21.2501 10.02 21.2501 8.5C21.2501 6.98 20.0201 5.75 18.5 5.75C16.98 5.75 15.75 6.98 15.75 8.5V9C15.75 9.41 15.41 9.75 15 9.75C14.5901 9.75 14.25 9.41 14.25 9V8.5C14.25 6.16 16.16 4.25 18.5 4.25C20.84 4.25 22.7501 6.16 22.7501 8.5C22.7501 10.84 20.84 12.75 18.5 12.75Z" fill="white"/>
<path d="M9.31 9.74719H2C1.59001 9.74719 1.25 9.4072 1.25 8.9972C1.25 8.58719 1.59001 8.2472 2 8.2472H9.31C10.38 8.2472 11.25 7.3772 11.25 6.30719C11.25 5.2372 10.38 4.3672 9.31 4.3672C8.24 4.3672 7.37 5.2372 7.37 6.30719V6.6872C7.37 7.0972 7.03 7.4372 6.62 7.4372C6.21001 7.4372 5.87 7.1072 5.87 6.6872V6.30719C5.87 4.4072 7.41001 2.86719 9.31 2.86719C11.21 2.86719 12.75 4.4072 12.75 6.30719C12.75 8.2072 11.21 9.74719 9.31 9.74719Z" fill="white"/>
</svg>
