<svg width="24" height="24" viewBox="0 0 24 24" fill="none" xmlns="http://www.w3.org/2000/svg">
<path fill-rule="evenodd" clip-rule="evenodd" d="M5.10039 2.39844C3.60922 2.39844 2.40039 3.60727 2.40039 5.09844V18.8984C2.40039 20.3896 3.60922 21.5984 5.10039 21.5984H18.9004C20.3915 21.5984 21.6004 20.3896 21.6004 18.8984V5.09844C21.6004 3.60727 20.3915 2.39844 18.9004 2.39844H5.10039ZM4.20039 9.59844V18.8984C4.20039 19.3955 4.60334 19.7984 5.10039 19.7984H18.9004C19.3974 19.7984 19.8004 19.3955 19.8004 18.8984V9.59844H4.20039ZM6.00039 5.09844C5.50334 5.09844 5.10039 5.50139 5.10039 5.99844V6.01044C5.10039 6.50749 5.50334 6.91044 6.00039 6.91044H6.01239C6.50944 6.91044 6.91239 6.50749 6.91239 6.01044V5.99844C6.91239 5.50139 6.50944 5.09844 6.01239 5.09844H6.00039ZM8.70039 5.99844C8.70039 5.50139 9.10334 5.09844 9.60039 5.09844H9.61239C10.1094 5.09844 10.5124 5.50139 10.5124 5.99844V6.01044C10.5124 6.50749 10.1094 6.91044 9.61239 6.91044H9.60039C9.10334 6.91044 8.70039 6.50749 8.70039 6.01044V5.99844ZM13.2004 5.09844C12.7034 5.09844 12.3004 5.50139 12.3004 5.99844V6.01044C12.3004 6.50749 12.7034 6.91044 13.2004 6.91044H13.2124C13.7094 6.91044 14.1124 6.50749 14.1124 6.01044V5.99844C14.1124 5.50139 13.7094 5.09844 13.2124 5.09844H13.2004Z" fill="#0F172A"/>
</svg>
