<svg width="24" height="24" viewBox="0 0 24 24" fill="none" xmlns="http://www.w3.org/2000/svg">
<path d="M22 13.8509C21.8699 13.8509 21.7399 13.8209 21.6199 13.741L19.12 12.241C17.8199 11.4609 16.1999 11.4609 14.89 12.241C13.1099 13.3109 10.8999 13.3109 9.11988 12.241C7.81988 11.4609 6.19988 11.4609 4.88988 12.241L2.38988 13.741C2.02988 13.951 1.56989 13.8409 1.35989 13.4809C1.14988 13.1309 1.25988 12.661 1.61988 12.451L4.11989 10.9509C5.89988 9.88095 8.10988 9.88095 9.88988 10.9509C11.1899 11.7309 12.8099 11.7309 14.1199 10.9509C15.8999 9.88095 18.1099 9.88095 19.8899 10.9509L22.39 12.451C22.75 12.661 22.8599 13.1209 22.6499 13.4809C22.4999 13.7209 22.2499 13.8509 22 13.8509Z" fill="white"/>
<path d="M7.00081 6.85223C6.00082 6.85223 5.00082 6.58223 4.11082 6.05222L1.61082 4.55222C1.26082 4.33223 1.14082 3.87222 1.36081 3.52223C1.57081 3.16223 2.03082 3.05222 2.39082 3.26222L4.89082 4.76222C6.19081 5.54222 7.81081 5.54222 9.12082 4.76222C10.9008 3.69222 13.1108 3.69222 14.8907 4.76222C16.1908 5.54222 17.8108 5.54222 19.1207 4.76222L21.6208 3.26222C21.9808 3.05222 22.4408 3.16223 22.6508 3.52223C22.8608 3.87222 22.7507 4.34222 22.3907 4.55222L19.8908 6.05222C18.1108 7.12223 15.9008 7.12223 14.1208 6.05222C12.8207 5.27222 11.2008 5.27222 9.89082 6.05222C9.00082 6.58223 8.00082 6.85223 7.00081 6.85223Z" fill="white"/>
<path d="M22 20.851C21.8699 20.851 21.7399 20.821 21.6199 20.741L19.12 19.241C17.8199 18.461 16.1999 18.461 14.89 19.241C13.1099 20.311 10.8999 20.311 9.11988 19.241C7.81988 18.461 6.19988 18.461 4.88988 19.241L2.38988 20.741C2.02988 20.951 1.56989 20.8409 1.35989 20.4809C1.14988 20.131 1.25988 19.661 1.61988 19.451L4.11989 17.951C5.89988 16.8809 8.10988 16.8809 9.88988 17.951C11.1899 18.731 12.8099 18.731 14.1199 17.951C15.8999 16.8809 18.1099 16.8809 19.8899 17.951L22.39 19.451C22.75 19.661 22.8599 20.1209 22.6499 20.4809C22.4999 20.7209 22.2499 20.851 22 20.851Z" fill="white"/>
</svg>
