<svg width="24" height="24" viewBox="0 0 24 24" fill="none" xmlns="http://www.w3.org/2000/svg">
<path d="M19.0001 9C19.0001 5.13 15.87 2 12 2C8.13001 2 5 5.13 5 9C5 12.62 7.74001 15.59 11.25 15.96V18.25H9.00001C8.59 18.25 8.25001 18.59 8.25001 19C8.25001 19.41 8.59 19.75 9.00001 19.75H11.25V22C11.25 22.41 11.59 22.75 12 22.75C12.41 22.75 12.75 22.41 12.75 22V19.75H15C15.41 19.75 15.75 19.41 15.75 19C15.75 18.59 15.41 18.25 15 18.25H12.75V15.96C16.26 15.59 19.0001 12.62 19.0001 9Z" fill="white"/>
</svg>
