<svg width="24" height="24" viewBox="0 0 24 24" fill="none" xmlns="http://www.w3.org/2000/svg">
<path fill-rule="evenodd" clip-rule="evenodd" d="M22.7992 6.59922C22.7992 9.58156 20.3816 11.9992 17.3992 11.9992C17.2819 11.9992 17.1653 11.9955 17.0498 11.9881C16.0022 11.9212 14.8809 12.1412 14.2089 12.9476L6.97939 21.623C6.35832 22.3683 5.43829 22.7992 4.46814 22.7992C2.66276 22.7992 1.19922 21.3357 1.19922 19.5303C1.19922 18.5601 1.63014 17.6402 2.37542 17.0191L11.0509 9.78948C11.8573 9.11748 12.0772 7.99624 12.0104 6.94868C12.0029 6.83315 11.9992 6.71661 11.9992 6.59922C11.9992 3.61688 14.4169 1.19922 17.3992 1.19922C17.978 1.19922 18.5355 1.29027 19.0582 1.45885C19.4473 1.58432 19.5274 2.07128 19.2385 2.36034L16.007 5.59172C15.8505 5.74827 15.7891 5.98006 15.8743 6.18439C16.2393 7.05943 16.9399 7.75956 17.8151 8.12411C18.0194 8.20918 18.251 8.14771 18.4075 7.99124L21.6382 4.76048C21.9273 4.47141 22.4143 4.55162 22.5398 4.94071C22.7083 5.46327 22.7992 6.02061 22.7992 6.59922ZM4.79922 20.3992C5.46195 20.3992 5.99922 19.862 5.99922 19.1992C5.99922 18.5365 5.46195 17.9992 4.79922 17.9992C4.13648 17.9992 3.59922 18.5365 3.59922 19.1992C3.59922 19.862 4.13648 20.3992 4.79922 20.3992Z" fill="#0F172A"/>
</svg>
