<svg width="24" height="24" viewBox="0 0 24 24" fill="none" xmlns="http://www.w3.org/2000/svg">
<path fill-rule="evenodd" clip-rule="evenodd" d="M17.3992 11.9992C20.3816 11.9992 22.7992 9.58156 22.7992 6.59922C22.7992 6.02061 22.7083 5.46327 22.5398 4.94071C22.4143 4.55162 21.9273 4.47141 21.6382 4.76048L18.4075 7.99124C18.251 8.14771 18.0194 8.20918 17.8151 8.12411C16.9399 7.75956 16.2393 7.05943 15.8743 6.18439C15.7891 5.98006 15.8505 5.74827 16.007 5.59172L19.2385 2.36034C19.5274 2.07128 19.4473 1.58432 19.0582 1.45885C18.5355 1.29027 17.978 1.19922 17.3992 1.19922C14.4169 1.19922 11.9992 3.61688 11.9992 6.59922C11.9992 6.71661 12.0029 6.83315 12.0104 6.94868C12.0772 7.99624 11.8573 9.11748 11.0509 9.78948L2.37542 17.0191C1.63014 17.6402 1.19922 18.5601 1.19922 19.5303C1.19922 21.3357 2.66276 22.7992 4.46814 22.7992C5.43829 22.7992 6.35832 22.3683 6.97939 21.623L14.2089 12.9476C14.8809 12.1412 16.0022 11.9212 17.0498 11.9881C17.1653 11.9955 17.2819 11.9992 17.3992 11.9992ZM5.99922 19.1992C5.99922 19.862 5.46195 20.3992 4.79922 20.3992C4.13648 20.3992 3.59922 19.862 3.59922 19.1992C3.59922 18.5365 4.13648 17.9992 4.79922 17.9992C5.46195 17.9992 5.99922 18.5365 5.99922 19.1992Z" fill="#0F172A"/>
<path d="M17.4004 13.7995C17.6081 13.7995 17.8138 13.7907 18.017 13.7734L22.5218 18.2782C23.6933 19.4498 23.6933 21.3493 22.5218 22.5208C21.3502 23.6924 19.4507 23.6924 18.2792 22.5208L12.9863 17.228L15.593 14.1001C15.655 14.0257 15.77 13.9352 16.0032 13.8657C16.2458 13.7936 16.5664 13.7611 16.9362 13.7847C17.09 13.7946 17.2446 13.7995 17.4004 13.7995Z" fill="#0F172A"/>
<path d="M7.20004 5.50494L9.99667 8.30157C9.96324 8.34948 9.92995 8.38392 9.89935 8.40942L8.15993 9.85893L5.50298 7.20199H3.97086C3.74359 7.20199 3.53584 7.07359 3.43421 6.87032L1.39344 2.7888C1.27794 2.5578 1.32322 2.27882 1.50583 2.0962L2.09425 1.50778C2.27687 1.32517 2.55584 1.27989 2.78684 1.39539L6.86837 3.43616C7.07164 3.53779 7.20004 3.74554 7.20004 3.97281V5.50494Z" fill="#0F172A"/>
</svg>
