<svg width="24" height="24" viewBox="0 0 24 24" fill="none" xmlns="http://www.w3.org/2000/svg">
<path fill-rule="evenodd" clip-rule="evenodd" d="M12.0004 21.5984C17.3024 21.5984 21.6004 17.3004 21.6004 11.9984C21.6004 6.6965 17.3024 2.39844 12.0004 2.39844C6.69845 2.39844 2.40039 6.6965 2.40039 11.9984C2.40039 17.3004 6.69845 21.5984 12.0004 21.5984ZM9.93679 8.66204C9.58532 8.31057 9.01546 8.31057 8.66399 8.66204C8.31253 9.01351 8.31253 9.58337 8.66399 9.93483L10.7276 11.9984L8.66399 14.0621C8.31253 14.4136 8.31253 14.9833 8.66399 15.3348C9.01546 15.6863 9.58532 15.6863 9.93679 15.3348L12.0004 13.2713L14.064 15.3348C14.4155 15.6863 14.9853 15.6863 15.3368 15.3348C15.6882 14.9833 15.6882 14.4136 15.3368 14.0621L13.2732 11.9984L15.3368 9.93483C15.6882 9.58337 15.6882 9.01351 15.3368 8.66204C14.9853 8.31057 14.4155 8.31057 14.064 8.66204L12.0004 10.7256L9.93679 8.66204Z" fill="#0F172A"/>
</svg>
