<svg width="24" height="24" viewBox="0 0 24 24" fill="none" xmlns="http://www.w3.org/2000/svg">
<path d="M7.53639 6.2636C7.18493 5.91213 6.61507 5.91213 6.2636 6.2636C5.91213 6.61507 5.91213 7.18493 6.2636 7.53639L10.7272 12L6.2636 16.4636C5.91213 16.8151 5.91213 17.3849 6.2636 17.7364C6.61507 18.0878 7.18493 18.0878 7.53639 17.7364L12 13.2728L16.4636 17.7364C16.8151 18.0878 17.3849 18.0878 17.7364 17.7364C18.0878 17.3849 18.0878 16.8151 17.7364 16.4636L13.2728 12L17.7364 7.53639C18.0878 7.18493 18.0878 6.61507 17.7364 6.2636C17.3849 5.91213 16.8151 5.91213 16.4636 6.2636L12 10.7272L7.53639 6.2636Z" fill="#0F172A"/>
</svg>
