<svg width="24" height="24" viewBox="0 0 24 24" fill="none" xmlns="http://www.w3.org/2000/svg">
<path d="M12 2C6.48001 2 2 6.48 2 12C2 17.52 6.48001 22 12 22C17.52 22 22.0001 17.52 22.0001 12C22.0001 6.48 17.52 2 12 2ZM18.5 14.02C18.5 14.2 18.4001 14.36 18.2501 14.45L16.25 15.6C16.1 15.69 15.9101 15.69 15.75 15.6L13.7501 14.45C13.59 14.36 13.5 14.2 13.5 14.02V13.19L12.2501 13.91C12.1001 14 11.91 14 11.75 13.91L10.5 13.19V14.02C10.5 14.2 10.4 14.36 10.25 14.45L8.25001 15.6C8.10001 15.69 7.91 15.69 7.75 15.6L5.75 14.45C5.59 14.36 5.5 14.2 5.5 14.02V11.74C5.5 11.56 5.6 11.4 5.75 11.31L7.75 10.16C7.9 10.07 8.10001 10.07 8.25001 10.16L9.25 10.74V9.60999C9.25 9.42999 9.35 9.26998 9.5 9.17998L11.75 7.89C11.9 7.8 12.09 7.8 12.2501 7.89L14.5001 9.17998C14.66 9.26998 14.75 9.42999 14.75 9.60999V10.74L15.75 10.16C15.9 10.07 16.0901 10.07 16.25 10.16L18.2501 11.31C18.41 11.4 18.5 11.56 18.5 11.74V14.02Z" fill="white"/>
</svg>
