<svg width="24" height="24" viewBox="0 0 24 24" fill="none" xmlns="http://www.w3.org/2000/svg">
<path d="M12 2C6.48001 2 2 6.48 2 12C2 17.52 6.48001 22 12 22C17.52 22 22.0001 17.52 22.0001 12C22.0001 6.48 17.52 2 12 2ZM13.6301 14.29C13.6301 14.8 13.22 15.21 12.71 15.21L9.03001 15.24C7.49 15.25 6.24 14.01 6.24 12.47V9.67C6.24 9.16 6.65 8.75 7.16 8.75H10.85C12.38 8.75 13.62 9.98998 13.62 11.52V14.29H13.6301ZM17.75 14C17.75 14.43 17.27 14.69 16.91 14.45L14.99 13.17C14.84 13.07 14.75 12.9 14.75 12.72V11.3C14.75 11.12 14.84 10.95 14.99 10.85L16.91 9.57001C17.27 9.33001 17.75 9.58999 17.75 10.02V14Z" fill="white"/>
</svg>
