<svg width="20" height="20" viewBox="0 0 20 20" fill="none" xmlns="http://www.w3.org/2000/svg">
<path d="M10.0003 1.66797C5.40033 1.66797 1.66699 5.4013 1.66699 10.0013C1.66699 14.6013 5.40033 18.3346 10.0003 18.3346C14.6003 18.3346 18.3337 14.6013 18.3337 10.0013C18.3337 5.4013 14.6003 1.66797 10.0003 1.66797ZM13.5837 13.9096C13.5003 13.943 13.417 13.9596 13.3337 13.9596C13.092 13.9596 12.867 13.818 12.7587 13.5846L10.0003 7.3763L9.10866 9.3763H10.0003C10.342 9.3763 10.6253 9.65964 10.6253 10.0013C10.6253 10.343 10.342 10.6263 10.0003 10.6263H8.55866L7.24199 13.5846C7.10033 13.9013 6.72533 14.043 6.417 13.9013C6.10033 13.7596 5.95867 13.393 6.10033 13.0763L7.19199 10.618H6.66699C6.32533 10.618 6.04199 10.3346 6.04199 9.99297C6.04199 9.6513 6.32533 9.36797 6.66699 9.36797H7.74198L9.42533 5.5763C9.62533 5.1263 10.367 5.1263 10.567 5.5763L13.9003 13.0763C14.042 13.393 13.9003 13.768 13.5837 13.9096Z" fill="white"/>
</svg>
