<svg width="20" height="20" viewBox="0 0 20 20" fill="none" xmlns="http://www.w3.org/2000/svg">
<path d="M13.492 1.66797H6.50866C3.47533 1.66797 1.66699 3.4763 1.66699 6.50964V13.4846C1.66699 16.5263 3.47533 18.3346 6.50866 18.3346H13.4837C16.517 18.3346 18.3253 16.5263 18.3253 13.493V6.50964C18.3337 3.4763 16.5253 1.66797 13.492 1.66797ZM14.3837 8.3013L12.4587 10.7846C12.217 11.093 11.8753 11.293 11.4837 11.3346C11.092 11.3846 10.7087 11.2763 10.4003 11.0346L8.87533 9.83464C8.81699 9.78464 8.75033 9.78464 8.71699 9.79297C8.68366 9.79297 8.62533 9.80964 8.57533 9.8763L6.59199 12.4513C6.46699 12.6096 6.28366 12.693 6.10033 12.693C5.96699 12.693 5.83366 12.6513 5.71699 12.5596C5.44199 12.3513 5.39199 11.9596 5.60033 11.6846L7.58366 9.10964C7.82533 8.8013 8.16699 8.6013 8.55866 8.5513C8.94199 8.5013 9.33366 8.60964 9.64199 8.8513L11.167 10.0513C11.2253 10.1013 11.2837 10.1013 11.3253 10.093C11.3587 10.093 11.417 10.0763 11.467 10.0096L13.392 7.5263C13.6003 7.2513 14.0003 7.2013 14.267 7.41797C14.542 7.64297 14.592 8.03464 14.3837 8.3013Z" fill="white"/>
</svg>
