<svg width="20" height="20" viewBox="0 0 20 20" fill="none" xmlns="http://www.w3.org/2000/svg">
<path d="M13.492 1.66797H6.50866C3.47533 1.66797 1.66699 3.4763 1.66699 6.50964V13.4846C1.66699 16.5263 3.47533 18.3346 6.50866 18.3346H13.4837C16.517 18.3346 18.3253 16.5263 18.3253 13.493V6.50964C18.3337 3.4763 16.5253 1.66797 13.492 1.66797ZM13.3337 10.6263H10.6253V13.3346C10.6253 13.6763 10.342 13.9596 10.0003 13.9596C9.65866 13.9596 9.37533 13.6763 9.37533 13.3346V10.6263H6.66699C6.32533 10.6263 6.04199 10.343 6.04199 10.0013C6.04199 9.65964 6.32533 9.3763 6.66699 9.3763H9.37533V6.66797C9.37533 6.3263 9.65866 6.04297 10.0003 6.04297C10.342 6.04297 10.6253 6.3263 10.6253 6.66797V9.3763H13.3337C13.6753 9.3763 13.9587 9.65964 13.9587 10.0013C13.9587 10.343 13.6753 10.6263 13.3337 10.6263Z" fill="white"/>
</svg>
