<svg width="20" height="20" viewBox="0 0 20 20" fill="none" xmlns="http://www.w3.org/2000/svg">
<path d="M13.492 1.66797H6.50866C3.47533 1.66797 1.66699 3.4763 1.66699 6.50964V13.4846C1.66699 16.5263 3.47533 18.3346 6.50866 18.3346H13.4837C16.517 18.3346 18.3253 16.5263 18.3253 13.493V6.50964C18.3337 3.4763 16.5253 1.66797 13.492 1.66797ZM15.0003 10.6263H10.6253V15.0013C10.6253 15.343 10.342 15.6263 10.0003 15.6263C9.65866 15.6263 9.37533 15.343 9.37533 15.0013V10.6263H5.00033C4.65866 10.6263 4.37533 10.343 4.37533 10.0013C4.37533 9.65964 4.65866 9.3763 5.00033 9.3763H9.37533V5.0013C9.37533 4.65964 9.65866 4.3763 10.0003 4.3763C10.342 4.3763 10.6253 4.65964 10.6253 5.0013V9.3763H15.0003C15.342 9.3763 15.6253 9.65964 15.6253 10.0013C15.6253 10.343 15.342 10.6263 15.0003 10.6263Z" fill="white"/>
</svg>
