<svg width="20" height="20" viewBox="0 0 20 20" fill="none" xmlns="http://www.w3.org/2000/svg">
<path d="M11.192 4.5263V5.64297C9.00866 5.81797 7.76699 7.21797 7.76699 9.5263V13.3346H4.52533C2.61699 13.3346 1.66699 12.3846 1.66699 10.4763V4.5263C1.66699 2.61797 2.61699 1.66797 4.52533 1.66797H8.33366C10.242 1.66797 11.192 2.61797 11.192 4.5263Z" fill="white"/>
<path d="M15.4753 6.66797H11.6669C9.75859 6.66797 8.80859 7.61797 8.80859 9.5263V15.4763C8.80859 17.3846 9.75859 18.3346 11.6669 18.3346H15.4753C17.3836 18.3346 18.3336 17.3846 18.3336 15.4763V9.5263C18.3336 7.61797 17.3836 6.66797 15.4753 6.66797ZM15.1086 13.1263H14.3753V13.8596C14.3753 14.2013 14.0919 14.4846 13.7503 14.4846C13.4086 14.4846 13.1253 14.2013 13.1253 13.8596V13.1263H12.3919C12.0503 13.1263 11.7669 12.843 11.7669 12.5013C11.7669 12.1596 12.0503 11.8763 12.3919 11.8763H13.1253V11.143C13.1253 10.8013 13.4086 10.518 13.7503 10.518C14.0919 10.518 14.3753 10.8013 14.3753 11.143V11.8763H15.1086C15.4503 11.8763 15.7336 12.1596 15.7336 12.5013C15.7336 12.843 15.4503 13.1263 15.1086 13.1263Z" fill="white"/>
</svg>
