<svg width="20" height="20" viewBox="0 0 20 20" fill="none" xmlns="http://www.w3.org/2000/svg">
<path d="M11.7744 9.45139C12.0994 8.08474 10.9078 6.89307 9.54109 7.21807C8.89942 7.37641 8.37442 7.90141 8.21612 8.54306C7.89112 9.90972 9.08276 11.1014 10.4494 10.7764C11.0994 10.6181 11.6244 10.0931 11.7744 9.45139Z" fill="white"/>
<path d="M5.01647 14.9763C4.86647 14.9763 4.70814 14.918 4.59147 14.8096C2.9748 13.3096 2.0498 11.193 2.0498 8.99297C2.0498 4.60964 5.61647 1.04297 9.99984 1.04297C14.3832 1.04297 17.9498 4.60964 17.9498 8.99297C17.9498 11.2096 17.0582 13.2596 15.4415 14.7846C15.1915 15.018 14.7915 15.0096 14.5582 14.7596C14.3248 14.5096 14.3332 14.1096 14.5832 13.8763C15.9498 12.593 16.6998 10.868 16.6998 9.0013C16.6998 5.30964 13.6915 2.3013 9.99984 2.3013C6.30814 2.3013 3.2998 5.30964 3.2998 9.0013C3.2998 10.8846 4.05814 12.618 5.44147 13.9013C5.69147 14.1346 5.70814 14.5346 5.4748 14.7846C5.3498 14.9096 5.18314 14.9763 5.01647 14.9763Z" fill="white"/>
<path d="M13.3326 12.7507C13.1826 12.7507 13.0243 12.6924 12.9076 12.5841C12.6576 12.3507 12.6409 11.9507 12.8826 11.7007C13.5743 10.9674 13.9576 10.0007 13.9576 9.00074C13.9576 6.81745 12.1826 5.05078 10.0076 5.05078C7.83262 5.05078 6.05762 6.82578 6.05762 9.00074C6.05762 10.0091 6.44095 10.9674 7.13262 11.7007C7.36595 11.9507 7.35762 12.3507 7.10762 12.5841C6.85762 12.8257 6.45762 12.8091 6.22428 12.5591C5.31595 11.5924 4.80762 10.3257 4.80762 9.00074C4.80762 6.13411 7.14095 3.80078 10.0076 3.80078C12.8743 3.80078 15.2076 6.13411 15.2076 9.00074C15.2076 10.3257 14.7076 11.5924 13.7909 12.5591C13.6659 12.6841 13.4993 12.7507 13.3326 12.7507Z" fill="white"/>
<path d="M8.58341 13.8833L7.3834 15.375C6.4334 16.5667 7.28341 18.3333 8.80008 18.3333H11.1917C12.7167 18.3333 13.5667 16.5667 12.6084 15.3833L11.4084 13.8917C10.6917 12.975 9.30841 12.975 8.58341 13.8833Z" fill="white"/>
</svg>
