<svg width="20" height="20" viewBox="0 0 20 20" fill="none" xmlns="http://www.w3.org/2000/svg">
<path d="M6.39199 1.66797H4.81699C3.95033 1.66797 3.16699 2.01797 2.59199 2.59297C2.01699 3.16797 1.66699 3.9513 1.66699 4.81797C1.66699 6.5513 3.08366 7.96797 4.81699 7.96797H5.60033V14.2596C5.60033 14.868 5.95033 15.393 6.45866 15.6513C6.66699 15.768 6.91699 15.8346 7.17533 15.8346C7.35866 15.8346 7.54199 15.8013 7.70866 15.7346C8.31699 15.518 8.75033 14.943 8.75033 14.2596V4.0263C8.75033 2.73464 7.68366 1.66797 6.39199 1.66797ZM4.81699 4.9763C5.15866 4.9763 5.44199 5.25964 5.44199 5.6013C5.44199 5.94297 5.15866 6.2263 4.81699 6.2263C4.04199 6.2263 3.40866 5.59297 3.40866 4.80964C3.40866 4.0263 4.04199 3.4013 4.81699 3.4013C5.15866 3.4013 5.44199 3.68464 5.44199 4.0263C5.44199 4.36797 5.15866 4.6513 4.81699 4.6513C4.72533 4.6513 4.65866 4.7263 4.65866 4.80964C4.65866 4.89297 4.72533 4.9763 4.81699 4.9763Z" fill="white"/>
<path d="M17.4083 2.59297C16.8333 2.01797 16.05 1.66797 15.1833 1.66797H13.6083C12.3083 1.66797 11.25 2.73464 11.25 4.0263V14.2596C11.25 14.943 11.6833 15.518 12.2917 15.7346C12.4583 15.8013 12.6417 15.8346 12.825 15.8346C13.0833 15.8346 13.3333 15.768 13.5417 15.6513C14.05 15.393 14.4 14.868 14.4 14.2596V7.96797H15.1833C16.9167 7.96797 18.3333 6.5513 18.3333 4.81797C18.3333 3.9513 17.9833 3.16797 17.4083 2.59297ZM15.1833 6.2263C14.8417 6.2263 14.5583 5.94297 14.5583 5.6013C14.5583 5.25964 14.8417 4.9763 15.1833 4.9763C15.275 4.9763 15.3417 4.9013 15.3417 4.80964C15.3417 4.71797 15.2667 4.6513 15.1833 4.6513C14.8417 4.6513 14.5583 4.36797 14.5583 4.0263C14.5583 3.68464 14.8417 3.4013 15.1833 3.4013C15.9583 3.4013 16.5917 4.03464 16.5917 4.80964C16.5917 5.58464 15.9667 6.2263 15.1833 6.2263Z" fill="white"/>
<path d="M7.70801 15.7318V18.3318C7.70801 18.6734 7.42467 18.9568 7.08301 18.9568C6.74134 18.9568 6.45801 18.6734 6.45801 18.3318V15.6484C6.66634 15.7651 6.91634 15.8318 7.17467 15.8318C7.35801 15.8318 7.54134 15.7984 7.70801 15.7318Z" fill="white"/>
<path d="M13.542 15.6484V18.3318C13.542 18.6734 13.2587 18.9568 12.917 18.9568C12.5753 18.9568 12.292 18.6734 12.292 18.3318V15.7318C12.4587 15.7984 12.642 15.8318 12.8253 15.8318C13.0837 15.8318 13.3337 15.7651 13.542 15.6484Z" fill="white"/>
</svg>
