<svg width="20" height="20" viewBox="0 0 20 20" fill="none" xmlns="http://www.w3.org/2000/svg">
<path d="M13.492 1.66797H6.50866C3.47533 1.66797 1.66699 3.4763 1.66699 6.50964V13.4846C1.66699 16.5263 3.47533 18.3346 6.50866 18.3346H13.4837C16.517 18.3346 18.3253 16.5263 18.3253 13.493V6.50964C18.3337 3.4763 16.5253 1.66797 13.492 1.66797ZM15.4253 10.993C15.4253 11.493 15.042 11.743 14.5837 11.543L11.792 10.343C11.467 10.2096 11.2087 10.3763 11.2087 10.7263V12.268C11.2087 12.4013 11.2837 12.593 11.3837 12.693L12.7503 14.068C12.892 14.2096 12.9587 14.493 12.892 14.6846L12.6253 15.4846C12.5087 15.8346 12.1087 16.0013 11.7837 15.8346L10.392 14.6513C10.1753 14.4763 9.82533 14.4763 9.61699 14.6513L8.21699 15.8346C7.88366 16.0013 7.49199 15.8346 7.37533 15.4763L7.10866 14.6763C7.04199 14.4846 7.10866 14.2013 7.25033 14.0596L8.64199 12.693C8.73366 12.6013 8.81699 12.4096 8.81699 12.268V10.7263C8.81699 10.3763 8.55033 10.2013 8.23366 10.343L5.44199 11.543C4.97533 11.743 4.60033 11.493 4.60033 10.993V10.218C4.60033 9.81797 4.90866 9.3513 5.27533 9.19297L8.55866 7.7763C8.69199 7.71797 8.80866 7.54297 8.80866 7.39297V5.66797C8.80866 5.1013 9.21699 4.4263 9.72533 4.1763C9.90866 4.08464 10.117 4.08464 10.3003 4.1763C10.8003 4.43464 11.217 5.1013 11.217 5.66797V7.39297C11.217 7.54297 11.3253 7.71797 11.467 7.7763L14.7503 9.19297C15.1253 9.3513 15.4253 9.81797 15.4253 10.218V10.993Z" fill="white"/>
</svg>
