<svg width="20" height="20" viewBox="0 0 20 20" fill="none" xmlns="http://www.w3.org/2000/svg">
<path d="M16.7075 8.85777L12.8158 7.18281L11.9492 6.81615C11.8158 6.74948 11.6992 6.57448 11.6992 6.42448V3.87448C11.6992 3.07448 11.1075 2.12448 10.3908 1.75781C10.1408 1.63281 9.84084 1.63281 9.59084 1.75781C8.88251 2.12448 8.29082 3.08281 8.29082 3.88281V6.43281C8.29082 6.58281 8.17415 6.75781 8.04082 6.82448L3.29082 8.8661C2.76582 9.08277 2.34082 9.7411 2.34082 10.3078V11.4078C2.34082 12.1161 2.87415 12.4661 3.53249 12.1828L7.70749 10.3828C8.03249 10.2411 8.29915 10.4161 8.29915 10.7744V11.6994V13.1994C8.29915 13.3911 8.19082 13.6661 8.05749 13.7994L6.12415 15.7411C5.92415 15.9411 5.83249 16.3328 5.92415 16.6161L6.29915 17.7494C6.44915 18.2411 7.00749 18.4744 7.46582 18.2411L9.44918 16.5744C9.74918 16.3161 10.2408 16.3161 10.5408 16.5744L12.5242 18.2411C12.9825 18.4661 13.5408 18.2411 13.7075 17.7494L14.0825 16.6161C14.1742 16.3411 14.0825 15.9411 13.8825 15.7411L11.9492 13.7994C11.8075 13.6661 11.6992 13.3911 11.6992 13.1994V10.7744C11.6992 10.4161 11.9575 10.2494 12.2908 10.3828L16.4658 12.1828C17.1242 12.4661 17.6575 12.1161 17.6575 11.4078V10.3078C17.6575 9.7411 17.2325 9.08277 16.7075 8.85777Z" fill="white"/>
</svg>
