<svg width="20" height="20" viewBox="0 0 20 20" fill="none" xmlns="http://www.w3.org/2000/svg">
<path d="M12.5663 9.45024H7.43301C6.89967 9.45024 6.37467 9.23358 5.99967 8.85024C5.88301 8.73358 5.78301 8.60858 5.69967 8.46691C5.54967 8.21693 5.28301 8.05859 4.99134 8.05859H2.91634C2.45801 8.05859 2.08301 8.43358 2.08301 8.89191V14.5836C2.08301 16.6586 3.75801 18.3336 5.83301 18.3336H14.1663C16.2413 18.3336 17.9163 16.6586 17.9163 14.5836V8.89191C17.9163 8.43358 17.5413 8.05859 17.083 8.05859H14.9997C14.6997 8.05859 14.433 8.22526 14.283 8.48358C13.933 9.05858 13.2913 9.45024 12.5663 9.45024Z" fill="white"/>
<path d="M14.1663 1.66797H5.83301C3.75801 1.66797 2.08301 3.34297 2.08301 5.41797V5.9763C2.08301 6.43464 2.45801 6.80964 2.91634 6.80964H4.99967C5.29967 6.80964 5.56634 6.64297 5.71634 6.38464C6.06634 5.80964 6.70801 5.41797 7.43301 5.41797H12.4247C12.933 5.41797 13.6663 5.68464 14.0163 6.04297C14.1247 6.1513 14.208 6.26797 14.2913 6.39297C14.4413 6.64297 14.708 6.80964 15.008 6.80964H17.0913C17.5497 6.80964 17.9247 6.43464 17.9247 5.9763V5.41797C17.9163 3.34297 16.2413 1.66797 14.1663 1.66797Z" fill="white"/>
</svg>
