<svg width="20" height="20" viewBox="0 0 20 20" fill="none" xmlns="http://www.w3.org/2000/svg">
<path d="M18.3337 17.7083H17.5003V12.5C17.5003 8.35833 14.142 5 10.0003 5C5.85866 5 2.50033 8.35833 2.50033 12.5V17.7083H1.66699C1.32533 17.7083 1.04199 17.9917 1.04199 18.3333C1.04199 18.675 1.32533 18.9583 1.66699 18.9583H18.3337C18.6753 18.9583 18.9587 18.675 18.9587 18.3333C18.9587 17.9917 18.6753 17.7083 18.3337 17.7083Z" fill="white"/>
<path d="M10 3.1263C9.65833 3.1263 9.375 2.84297 9.375 2.5013V1.66797C9.375 1.3263 9.65833 1.04297 10 1.04297C10.3417 1.04297 10.625 1.3263 10.625 1.66797V2.5013C10.625 2.84297 10.3417 3.1263 10 3.1263Z" fill="white"/>
<path d="M4.16719 4.79219C4.00885 4.79219 3.85052 4.73385 3.72552 4.60885L2.89219 3.77552C2.65052 3.53385 2.65052 3.13385 2.89219 2.89219C3.13385 2.65052 3.53385 2.65052 3.77552 2.89219L4.60885 3.72552C4.85052 3.96719 4.85052 4.36719 4.60885 4.60885C4.48385 4.73385 4.32552 4.79219 4.16719 4.79219Z" fill="white"/>
<path d="M15.8339 4.79219C15.6755 4.79219 15.5172 4.73385 15.3922 4.60885C15.1505 4.36719 15.1505 3.96719 15.3922 3.72552L16.2255 2.89219C16.4672 2.65052 16.8672 2.65052 17.1089 2.89219C17.3505 3.13385 17.3505 3.53385 17.1089 3.77552L16.2755 4.60885C16.1505 4.73385 15.9922 4.79219 15.8339 4.79219Z" fill="white"/>
</svg>
