<svg width="20" height="20" viewBox="0 0 20 20" fill="none" xmlns="http://www.w3.org/2000/svg">
<path d="M14.5 16.0404H5.5C4.25 16.0404 3.75 15.507 3.75 14.182V13.3154C3.75 11.9904 4.25 11.457 5.5 11.457H14.5C15.75 11.457 16.25 11.9904 16.25 13.3154V14.182C16.25 15.507 15.75 16.0404 14.5 16.0404Z" fill="white"/>
<path d="M10.625 16.043V17.7096C10.625 18.0513 10.3417 18.3346 10 18.3346C9.65833 18.3346 9.375 18.0513 9.375 17.7096V16.043H10.625Z" fill="white"/>
<path d="M10.625 8.95703H9.375V11.457H10.625V8.95703Z" fill="white"/>
<path d="M10.625 2.29297V4.3763H9.375V2.29297C9.375 1.9513 9.65833 1.66797 10 1.66797C10.3417 1.66797 10.625 1.9513 10.625 2.29297Z" fill="white"/>
<path d="M12.8337 8.95833H7.16699C5.91699 8.95833 5.41699 8.425 5.41699 7.1V6.23333C5.41699 4.90833 5.91699 4.375 7.16699 4.375H12.8337C14.0837 4.375 14.5837 4.90833 14.5837 6.23333V7.1C14.5837 8.425 14.0837 8.95833 12.8337 8.95833Z" fill="white"/>
</svg>
