<svg width="20" height="20" viewBox="0 0 20 20" fill="none" xmlns="http://www.w3.org/2000/svg">
<path d="M13.3163 16.1511H14.183C15.508 16.1511 16.0413 15.6511 16.0413 14.3844V4.48438H11.458V14.3844C11.4663 15.6511 11.9997 16.1511 13.3163 16.1511Z" fill="white"/>
<path d="M6.23333 11.9844H7.1C8.425 11.9844 8.95833 11.4761 8.95833 10.2177V4.48438H4.375V10.2177C4.38333 11.4761 4.91667 11.9844 6.23333 11.9844Z" fill="white"/>
<path d="M17.7087 5.10104H2.29199C1.95033 5.10104 1.66699 4.82604 1.66699 4.48438C1.66699 4.14271 1.95033 3.85938 2.29199 3.85938H17.7087C18.0503 3.85938 18.3337 4.14271 18.3337 4.48438C18.3337 4.82604 18.0503 5.10104 17.7087 5.10104Z" fill="white"/>
</svg>
