<svg width="20" height="20" viewBox="0 0 20 20" fill="none" xmlns="http://www.w3.org/2000/svg">
<path d="M3.95801 14.5V5.5C3.95801 4.25 4.49134 3.75 5.81634 3.75H6.68301C8.00801 3.75 8.54134 4.25 8.54134 5.5V14.5C8.54134 15.75 8.00801 16.25 6.68301 16.25H5.81634C4.49134 16.25 3.95801 15.75 3.95801 14.5Z" fill="white"/>
<path d="M3.95866 10.625H2.29199C1.95033 10.625 1.66699 10.3417 1.66699 10C1.66699 9.65833 1.95033 9.375 2.29199 9.375H3.95866V10.625Z" fill="white"/>
<path d="M11.042 9.375H8.54199V10.625H11.042V9.375Z" fill="white"/>
<path d="M17.7083 10.625H15.625V9.375H17.7083C18.05 9.375 18.3333 9.65833 18.3333 10C18.3333 10.3417 18.05 10.625 17.7083 10.625Z" fill="white"/>
<path d="M11.042 12.8346V7.16797C11.042 5.91797 11.5753 5.41797 12.9003 5.41797H13.767C15.092 5.41797 15.6253 5.91797 15.6253 7.16797V12.8346C15.6253 14.0846 15.092 14.5846 13.767 14.5846H12.9003C11.5753 14.5846 11.042 14.0846 11.042 12.8346Z" fill="white"/>
</svg>
