<svg width="20" height="20" viewBox="0 0 20 20" fill="none" xmlns="http://www.w3.org/2000/svg">
<path d="M3.85059 13.3154V14.182C3.85059 15.507 4.35059 16.0404 5.61725 16.0404H15.5172V11.457H5.61725C4.35059 11.457 3.85059 11.9904 3.85059 13.3154Z" fill="white"/>
<path d="M8.0166 6.23333V7.1C8.0166 8.425 8.52492 8.95833 9.78325 8.95833H15.5166V4.375H9.78325C8.52492 4.375 8.0166 4.90833 8.0166 6.23333Z" fill="white"/>
<path d="M15.5166 18.3346C15.1749 18.3346 14.8916 18.0513 14.8916 17.7096V2.29297C14.8916 1.9513 15.1749 1.66797 15.5166 1.66797C15.8583 1.66797 16.1416 1.9513 16.1416 2.29297V17.7096C16.1499 18.0513 15.8666 18.3346 15.5166 18.3346Z" fill="white"/>
</svg>
