<svg width="20" height="20" viewBox="0 0 20 20" fill="none" xmlns="http://www.w3.org/2000/svg">
<path d="M16.1501 13.3154V14.182C16.1501 15.507 15.6501 16.0404 14.3834 16.0404H4.4834V11.457H14.3834C15.6501 11.457 16.1501 11.9904 16.1501 13.3154Z" fill="white"/>
<path d="M11.9834 6.23333V7.1C11.9834 8.425 11.4751 8.95833 10.2167 8.95833H4.4834V4.375H10.2167C11.4751 4.375 11.9834 4.90833 11.9834 6.23333Z" fill="white"/>
<path d="M4.48358 18.3346C4.14191 18.3346 3.85858 18.0513 3.85858 17.7096V2.29297C3.85024 1.94297 4.13358 1.66797 4.48358 1.66797C4.83358 1.66797 5.10858 1.9513 5.10858 2.29297V17.7096C5.10024 18.0513 4.82524 18.3346 4.48358 18.3346Z" fill="white"/>
</svg>
