<svg width="20" height="20" viewBox="0 0 20 20" fill="none" xmlns="http://www.w3.org/2000/svg">
<path d="M9.16667 15V17.5C9.16667 17.9583 8.79167 18.3333 8.33333 18.3333C7.875 18.3333 7.5 17.9583 7.5 17.5V15H9.16667Z" fill="white"/>
<path d="M12.4997 15V17.5C12.4997 17.9583 12.1247 18.3333 11.6663 18.3333C11.208 18.3333 10.833 17.9583 10.833 17.5V15H12.4997Z" fill="white"/>
<path d="M14.1663 9.16667V13.3333C14.1663 14.25 13.4163 15 12.4997 15H7.49967C6.58301 15 5.83301 14.25 5.83301 13.3333V9.16667C5.83301 8.25 6.58301 7.5 7.49967 7.5H12.4997C13.4163 7.5 14.1663 8.25 14.1663 9.16667Z" fill="white"/>
<path d="M4.16667 9.16536V12.4987C4.16667 12.957 3.79167 13.332 3.33333 13.332C2.875 13.332 2.5 12.957 2.5 12.4987V9.16536C2.5 8.70703 2.875 8.33203 3.33333 8.33203C3.79167 8.33203 4.16667 8.70703 4.16667 9.16536Z" fill="white"/>
<path d="M17.4997 9.16536V12.4987C17.4997 12.957 17.1247 13.332 16.6663 13.332C16.208 13.332 15.833 12.957 15.833 12.4987V9.16536C15.833 8.70703 16.208 8.33203 16.6663 8.33203C17.1247 8.33203 17.4997 8.70703 17.4997 9.16536Z" fill="white"/>
<path d="M8.00031 6.33464H12.0003C12.7337 6.33464 13.3337 5.73464 13.3337 5.0013C13.3337 3.15964 11.842 1.66797 10.0003 1.66797C8.15866 1.66797 6.66699 3.15964 6.66699 5.0013C6.66699 5.73464 7.26698 6.33464 8.00031 6.33464Z" fill="white"/>
</svg>
