<svg width="20" height="20" viewBox="0 0 20 20" fill="none" xmlns="http://www.w3.org/2000/svg">
<path d="M17.4085 8.77395C17.0668 8.77395 16.7835 8.49062 16.7835 8.14897V5.7573L10.0002 2.36563L3.2168 5.7573V8.14897C3.2168 8.49062 2.93346 8.77395 2.5918 8.77395C2.25013 8.77395 1.9668 8.49062 1.9668 8.14897V5.37396C1.9668 5.14063 2.10017 4.92397 2.31684 4.81563L9.72516 1.11562C9.90016 1.02396 10.1085 1.02396 10.2835 1.11562L17.6918 4.81563C17.9002 4.92397 18.0418 5.14063 18.0418 5.37396V8.14897C18.0335 8.49062 17.7502 8.77395 17.4085 8.77395Z" fill="white"/>
<path d="M10.0002 18.9594C9.90016 18.9594 9.8085 18.9344 9.72516 18.8927L2.31684 15.1927C2.10851 15.0844 1.9668 14.8677 1.9668 14.6344V11.8594C1.9668 11.5177 2.25013 11.2344 2.5918 11.2344C2.93346 11.2344 3.2168 11.5177 3.2168 11.8594V14.251L10.0002 17.6427L16.7835 14.251V11.8594C16.7835 11.5177 17.0668 11.2344 17.4085 11.2344C17.7502 11.2344 18.0335 11.5177 18.0335 11.8594V14.6344C18.0335 14.8677 17.9001 15.0844 17.6834 15.1927L10.2752 18.8927C10.1918 18.9344 10.1002 18.9594 10.0002 18.9594Z" fill="white"/>
<path d="M13.6998 10.0007C13.6998 7.95911 12.0415 6.30078 9.99984 6.30078C7.95814 6.30078 6.2998 7.95911 6.2998 10.0007C6.2998 11.8341 7.64149 13.3507 9.3915 13.6424C9.3915 13.6674 9.38317 13.6842 9.38317 13.7008V18.3341C9.38317 18.6757 9.6665 18.9591 10.0082 18.9591C10.3498 18.9591 10.6332 18.6757 10.6332 18.3341V13.7008C10.6332 13.6758 10.6248 13.6591 10.6248 13.6424C12.3665 13.3507 13.6998 11.8341 13.6998 10.0007Z" fill="white"/>
</svg>
