<svg width="20" height="20" viewBox="0 0 20 20" fill="none" xmlns="http://www.w3.org/2000/svg">
<path fill-rule="evenodd" clip-rule="evenodd" d="M15.9167 15.9654C16.4084 15.2154 16.5917 14.832 16.9667 13.9904C14.2001 12.9404 13.7584 8.9987 16.4917 7.49036C15.6584 6.44036 14.4834 5.83203 13.3751 5.83203C12.5751 5.83203 12.0251 6.04037 11.5334 6.23204C11.1167 6.39037 10.7417 6.53203 10.2751 6.53203C9.77508 6.53203 9.33341 6.37371 8.86675 6.20704C8.35841 6.02371 7.82505 5.83203 7.15838 5.83203C5.91671 5.83203 4.59172 6.59036 3.75006 7.89036C2.56672 9.7237 2.77506 13.157 4.68339 16.0904C5.36672 17.1404 6.28339 18.3154 7.47506 18.332C7.97506 18.3404 8.30006 18.1904 8.65841 18.032C9.06675 17.8487 9.50841 17.6487 10.2834 17.6487C11.0584 17.6404 11.4917 17.8487 11.9001 18.032C12.2501 18.1904 12.5667 18.3404 13.0584 18.332C14.2667 18.3154 15.2334 17.0154 15.9167 15.9654Z" fill="white"/>
<path fill-rule="evenodd" clip-rule="evenodd" d="M13.2004 1.66797C13.3337 2.58464 12.9587 3.49298 12.467 4.12631C11.942 4.80964 11.0254 5.34297 10.142 5.30964C9.98369 4.4263 10.392 3.51796 10.892 2.90963C11.4504 2.24296 12.392 1.7263 13.2004 1.66797Z" fill="white"/>
</svg>
