<svg width="20" height="20" viewBox="0 0 20 20" fill="none" xmlns="http://www.w3.org/2000/svg">
<path d="M16.4587 7.5013C16.4587 3.94297 13.5587 1.04297 10.0003 1.04297C6.44199 1.04297 3.54199 3.94297 3.54199 7.5013C3.54199 7.84297 3.82533 8.1263 4.16699 8.1263C4.50866 8.1263 4.79199 7.84297 4.79199 7.5013C4.79199 4.6263 7.12533 2.29297 10.0003 2.29297C12.8753 2.29297 15.2087 4.6263 15.2087 7.5013C15.2087 10.3763 12.8753 12.7096 10.0003 12.7096C9.65866 12.7096 9.37533 12.993 9.37533 13.3346V18.3346C9.37533 18.6763 9.65866 18.9596 10.0003 18.9596C10.342 18.9596 10.6253 18.6763 10.6253 18.3346V13.9263C13.892 13.6096 16.4587 10.8513 16.4587 7.5013Z" fill="white"/>
<path d="M12.5 16.457H7.5C7.15833 16.457 6.875 16.1737 6.875 15.832C6.875 15.4904 7.15833 15.207 7.5 15.207H12.5C12.8417 15.207 13.125 15.4904 13.125 15.832C13.125 16.1737 12.8417 16.457 12.5 16.457Z" fill="white"/>
</svg>
