<svg width="20" height="20" viewBox="0 0 20 20" fill="none" xmlns="http://www.w3.org/2000/svg">
<path d="M13.3333 8.125H6.66667C6.09167 8.125 5.625 8.59167 5.625 9.16667V10.0417C5.65 10.0333 5.66667 10.025 5.69167 10.0167C5.79167 9.96667 5.9 9.93333 6.00833 9.9C6.05833 9.88333 6.10833 9.86667 6.16667 9.85C6.33333 9.81667 6.5 9.79167 6.675 9.79167H13.3417C13.5167 9.79167 13.6833 9.81667 13.85 9.85C13.9 9.85833 13.95 9.88333 14.0083 9.9C14.1167 9.93333 14.225 9.96667 14.325 10.0167C14.35 10.025 14.375 10.0333 14.3917 10.0417V9.16667C14.375 8.59167 13.9083 8.125 13.3333 8.125Z" fill="white"/>
<path d="M13.3333 11.043H6.66667C6.09167 11.043 5.625 11.5096 5.625 12.0846V12.5013H7.91667C8.25833 12.5013 8.54167 12.7846 8.54167 13.1263C8.54167 13.9263 9.2 14.5846 10 14.5846C10.8 14.5846 11.4583 13.9263 11.4583 13.1263C11.4583 12.7846 11.7417 12.5013 12.0833 12.5013H14.375V12.0846C14.375 11.5096 13.9083 11.043 13.3333 11.043Z" fill="white"/>
<path d="M13.3333 5.41797H6.66667C6.09167 5.41797 5.625 5.88464 5.625 6.45964V7.13464C5.94167 6.9763 6.29167 6.8763 6.66667 6.8763H13.3333C13.7083 6.8763 14.0583 6.9763 14.375 7.13464V6.45964C14.375 5.88464 13.9083 5.41797 13.3333 5.41797Z" fill="white"/>
<path d="M13.492 1.66797H6.50866C3.47533 1.66797 1.66699 3.4763 1.66699 6.50964V13.4846C1.66699 16.5263 3.47533 18.3346 6.50866 18.3346H13.4837C16.517 18.3346 18.3253 16.5263 18.3253 13.493V6.50964C18.3337 3.4763 16.5253 1.66797 13.492 1.66797ZM15.8337 13.7513H15.0003H12.6337C12.3503 14.943 11.2753 15.8346 10.0003 15.8346C8.72533 15.8346 7.65033 14.943 7.36699 13.7513H5.00033H4.16699C3.82533 13.7513 3.54199 13.468 3.54199 13.1263C3.54199 12.7846 3.82533 12.5013 4.16699 12.5013H4.37533V12.0846V11.668V9.16797V6.45964C4.37533 5.19297 5.40033 4.16797 6.66699 4.16797H13.3337C14.6003 4.16797 15.6253 5.19297 15.6253 6.45964V9.16797V11.668V12.0846V12.5013H15.8337C16.1753 12.5013 16.4587 12.7846 16.4587 13.1263C16.4587 13.468 16.1753 13.7513 15.8337 13.7513Z" fill="white"/>
</svg>
