<svg width="20" height="20" viewBox="0 0 20 20" fill="none" xmlns="http://www.w3.org/2000/svg">
<path d="M12.4419 2.08464V7.0013C12.4419 7.36797 12.0086 7.5513 11.7419 7.30964L10.2836 5.96797C10.1253 5.81797 9.87525 5.81797 9.71692 5.96797L8.25859 7.3013C7.99193 7.5513 7.55859 7.35964 7.55859 7.0013V2.08464C7.55859 1.8513 7.74193 1.66797 7.97526 1.66797H12.0253C12.2586 1.66797 12.4419 1.8513 12.4419 2.08464Z" fill="white"/>
<path d="M14.15 1.71836C13.9083 1.68503 13.6917 1.89336 13.6917 2.13503V7.1517C13.6917 7.78503 13.3167 8.36006 12.7333 8.6184C12.15 8.8684 11.475 8.76006 11.0083 8.3267L10.2833 7.66003C10.125 7.51003 9.88333 7.51003 9.71667 7.66003L8.99167 8.3267C8.69167 8.61006 8.3 8.75173 7.90833 8.75173C7.69167 8.75173 7.475 8.71006 7.26667 8.6184C6.68333 8.36006 6.30833 7.78503 6.30833 7.1517V2.13503C6.30833 1.89336 6.09167 1.68503 5.85 1.71836C3.51667 2.01003 2.5 3.58503 2.5 5.83503V14.1684C2.5 16.6684 3.75 18.3351 6.66667 18.3351H13.3333C16.25 18.3351 17.5 16.6684 17.5 14.1684V5.83503C17.5 3.58503 16.4833 2.01003 14.15 1.71836ZM14.5833 15.6267H7.5C7.15833 15.6267 6.875 15.3434 6.875 15.0017C6.875 14.6601 7.15833 14.3767 7.5 14.3767H14.5833C14.925 14.3767 15.2083 14.6601 15.2083 15.0017C15.2083 15.3434 14.925 15.6267 14.5833 15.6267ZM14.5833 12.2934H11.0417C10.7 12.2934 10.4167 12.0101 10.4167 11.6684C10.4167 11.3267 10.7 11.0434 11.0417 11.0434H14.5833C14.925 11.0434 15.2083 11.3267 15.2083 11.6684C15.2083 12.0101 14.925 12.2934 14.5833 12.2934Z" fill="white"/>
</svg>
