<svg width="20" height="20" viewBox="0 0 20 20" fill="none" xmlns="http://www.w3.org/2000/svg">
<path d="M16.7666 3.23464L2.82493 17.1763C2.78327 17.0096 2.7666 16.8263 2.7666 16.6263V4.88464C2.7666 3.11797 4.20827 1.66797 5.98327 1.66797H14.0166C15.1833 1.66797 16.2083 2.29297 16.7666 3.23464Z" fill="white"/>
<path d="M18.1417 1.85938C17.8917 1.60937 17.4834 1.60937 17.2334 1.85938L1.8584 17.2427C1.6084 17.4927 1.6084 17.9011 1.8584 18.1511C1.9834 18.2677 2.14173 18.3344 2.3084 18.3344C2.47507 18.3344 2.6334 18.2677 2.7584 18.1427L18.1417 2.75938C18.4001 2.50937 18.4001 2.10938 18.1417 1.85938Z" fill="white"/>
<path d="M16.0749 6.42675L9.91647 12.5851C9.53313 12.9684 9.60813 13.6101 10.0748 13.8851L16.2331 17.5767C16.7915 17.9101 17.4915 17.5101 17.4915 16.8601V7.01009C17.4998 6.26842 16.5999 5.90175 16.0749 6.42675Z" fill="white"/>
</svg>
