<svg width="20" height="20" viewBox="0 0 20 20" fill="none" xmlns="http://www.w3.org/2000/svg">
<path d="M14.0166 1.66797H5.98327C4.20827 1.66797 2.7666 3.11797 2.7666 4.88464V16.6263C2.7666 18.1263 3.8416 18.7596 5.15827 18.0346L9.22493 15.7763C9.65826 15.5346 10.3583 15.5346 10.7833 15.7763L14.8499 18.0346C16.1666 18.768 17.2416 18.1346 17.2416 16.6263V4.88464C17.2333 3.11797 15.7916 1.66797 14.0166 1.66797ZM12.0833 9.5013H10.6249V11.0096C10.6249 11.3513 10.3416 11.6346 9.99993 11.6346C9.65826 11.6346 9.37493 11.3513 9.37493 11.0096V9.5013H7.9166C7.57493 9.5013 7.2916 9.21797 7.2916 8.8763C7.2916 8.53463 7.57493 8.2513 7.9166 8.2513H9.37493V6.84297C9.37493 6.5013 9.65826 6.21797 9.99993 6.21797C10.3416 6.21797 10.6249 6.5013 10.6249 6.84297V8.2513H12.0833C12.4249 8.2513 12.7083 8.53463 12.7083 8.8763C12.7083 9.21797 12.4249 9.5013 12.0833 9.5013Z" fill="white"/>
</svg>
