<svg width="20" height="20" viewBox="0 0 20 20" fill="none" xmlns="http://www.w3.org/2000/svg">
<path d="M18.3337 4.16797V5.83464C18.3337 7.35964 17.642 8.18464 16.2503 8.30964C16.117 8.3263 15.9753 8.33464 15.8337 8.33464H4.16699C4.02533 8.33464 3.88366 8.3263 3.75033 8.30964C2.35866 8.18464 1.66699 7.35964 1.66699 5.83464V4.16797C1.66699 2.5013 2.50033 1.66797 4.16699 1.66797H15.8337C17.5003 1.66797 18.3337 2.5013 18.3337 4.16797Z" fill="white"/>
<path d="M4.58333 9.375C4.125 9.375 3.75 9.75 3.75 10.2083V15.8333C3.75 17.5 4.16667 18.3333 6.25 18.3333H13.75C15.8333 18.3333 16.25 17.5 16.25 15.8333V10.2083C16.25 9.75 15.875 9.375 15.4167 9.375H4.58333ZM11.5167 13.125H8.48333C8.14167 13.125 7.85833 12.8417 7.85833 12.5C7.85833 12.1583 8.14167 11.875 8.48333 11.875H11.5167C11.8583 11.875 12.1417 12.1583 12.1417 12.5C12.1417 12.8417 11.8583 13.125 11.5167 13.125Z" fill="white"/>
</svg>
