<svg width="20" height="20" viewBox="0 0 20 20" fill="none" xmlns="http://www.w3.org/2000/svg">
<path d="M14.0166 1.66797H5.98327C4.20827 1.66797 2.7666 3.11797 2.7666 4.88464V16.6263C2.7666 18.1263 3.8416 18.7596 5.15827 18.0346L9.22493 15.7763C9.65826 15.5346 10.3583 15.5346 10.7833 15.7763L14.8499 18.0346C16.1666 18.768 17.2416 18.1346 17.2416 16.6263V4.88464C17.2333 3.11797 15.7916 1.66797 14.0166 1.66797ZM12.5083 8.1263C11.6999 8.41797 10.8499 8.56797 9.99993 8.56797C9.14993 8.56797 8.29993 8.41797 7.4916 8.1263C7.1666 8.00964 6.99993 7.6513 7.1166 7.3263C7.2416 7.0013 7.59993 6.83464 7.92493 6.9513C9.26659 7.43464 10.7416 7.43464 12.0833 6.9513C12.4083 6.83464 12.7666 7.0013 12.8833 7.3263C12.9999 7.6513 12.8333 8.00964 12.5083 8.1263Z" fill="white"/>
</svg>
