<svg width="20" height="20" viewBox="0 0 20 20" fill="none" xmlns="http://www.w3.org/2000/svg">
<path d="M14.0166 1.59375H5.98327C4.2166 1.59375 2.7666 3.04375 2.7666 4.81042V16.5521C2.7666 18.0521 3.8416 18.6855 5.15827 17.9605L9.22493 15.7021C9.65826 15.4605 10.3583 15.4605 10.7833 15.7021L14.8499 17.9605C16.1666 18.6938 17.2416 18.0605 17.2416 16.5521V4.81042C17.2333 3.04375 15.7916 1.59375 14.0166 1.59375ZM13.0166 7.52708L9.68326 10.8605C9.55826 10.9855 9.39993 11.0438 9.24159 11.0438C9.08326 11.0438 8.92493 10.9855 8.79993 10.8605L7.54993 9.61045C7.30827 9.36878 7.30827 8.96878 7.54993 8.72712C7.7916 8.48545 8.1916 8.48545 8.43326 8.72712L9.24159 9.53545L12.1333 6.64375C12.3749 6.40208 12.7749 6.40208 13.0166 6.64375C13.2583 6.88542 13.2583 7.28542 13.0166 7.52708Z" fill="white"/>
</svg>
