<svg width="20" height="20" viewBox="0 0 20 20" fill="none" xmlns="http://www.w3.org/2000/svg">
<path d="M10.0003 1.66797C5.40033 1.66797 1.66699 5.4013 1.66699 10.0013C1.66699 14.6013 5.40033 18.3346 10.0003 18.3346C14.6003 18.3346 18.3337 14.6013 18.3337 10.0013C18.3337 5.4013 14.6003 1.66797 10.0003 1.66797ZM9.10866 14.293C9.10866 14.3763 9.09199 14.4513 9.05866 14.5346C8.99199 14.6846 8.87533 14.8096 8.71699 14.8763C8.64199 14.9096 8.55866 14.9263 8.47533 14.9263C8.39199 14.9263 8.31699 14.9096 8.23366 14.8763C8.15866 14.843 8.09199 14.8013 8.03366 14.743L5.50033 12.2096C5.25866 11.968 5.25866 11.568 5.50033 11.3263C5.74199 11.0846 6.14199 11.0846 6.38366 11.3263L7.85033 12.793V5.70964C7.85033 5.36797 8.13366 5.08464 8.47533 5.08464C8.81699 5.08464 9.10033 5.36797 9.10033 5.70964V14.293H9.10866ZM14.492 8.68464C14.367 8.80964 14.2087 8.86797 14.0503 8.86797C13.892 8.86797 13.7337 8.80964 13.6087 8.68464L12.142 7.21797V14.3013C12.142 14.643 11.8587 14.9263 11.517 14.9263C11.1753 14.9263 10.892 14.643 10.892 14.3013V5.70964C10.892 5.6263 10.9087 5.5513 10.942 5.46797C11.0087 5.31797 11.1253 5.19297 11.2837 5.1263C11.4337 5.05964 11.6087 5.05964 11.7587 5.1263C11.8337 5.15964 11.9003 5.2013 11.9587 5.25964L14.492 7.79297C14.7337 8.04297 14.7337 8.43464 14.492 8.68464Z" fill="white"/>
</svg>
