<svg width="20" height="20" viewBox="0 0 20 20" fill="none" xmlns="http://www.w3.org/2000/svg">
<path d="M10.0003 1.66797C5.40033 1.66797 1.66699 5.4013 1.66699 10.0013C1.66699 14.6013 5.40033 18.3346 10.0003 18.3346C14.6003 18.3346 18.3337 14.6013 18.3337 10.0013C18.3337 5.4013 14.6003 1.66797 10.0003 1.66797ZM14.8753 11.7513C14.842 11.8263 14.8003 11.893 14.742 11.9513L12.2087 14.4846C12.0837 14.6096 11.9253 14.668 11.767 14.668C11.6087 14.668 11.4503 14.6096 11.3253 14.4846C11.0837 14.243 11.0837 13.843 11.3253 13.6013L12.792 12.1346H5.70866C5.36699 12.1346 5.08366 11.8513 5.08366 11.5096C5.08366 11.168 5.36699 10.8846 5.70866 10.8846H14.3003C14.3837 10.8846 14.4587 10.9013 14.542 10.9346C14.692 11.0013 14.817 11.118 14.8837 11.2763C14.9337 11.4263 14.9337 11.6013 14.8753 11.7513ZM14.292 9.10964H5.70866C5.62533 9.10964 5.54199 9.09297 5.46699 9.05964C5.31699 8.99297 5.19199 8.8763 5.12533 8.71797C5.05866 8.56797 5.05866 8.39297 5.12533 8.24297C5.15866 8.16797 5.20033 8.1013 5.25866 8.04297L7.79199 5.50964C8.03366 5.26797 8.43366 5.26797 8.67533 5.50964C8.91699 5.7513 8.91699 6.1513 8.67533 6.39297L7.21699 7.85964H14.3003C14.642 7.85964 14.9253 8.14297 14.9253 8.48464C14.9253 8.8263 14.642 9.10964 14.292 9.10964Z" fill="white"/>
</svg>
