<svg width="20" height="20" viewBox="0 0 20 20" fill="none" xmlns="http://www.w3.org/2000/svg">
<path d="M10.0003 1.66797C5.40033 1.66797 1.66699 5.4013 1.66699 10.0013C1.66699 14.6013 5.40033 18.3346 10.0003 18.3346C14.6003 18.3346 18.3337 14.6013 18.3337 10.0013C18.3337 5.4013 14.6003 1.66797 10.0003 1.66797ZM12.942 10.8596L10.442 13.3596C10.317 13.4846 10.1587 13.543 10.0003 13.543C9.84199 13.543 9.68366 13.4846 9.55866 13.3596L7.05866 10.8596C6.81699 10.618 6.81699 10.218 7.05866 9.9763C7.30033 9.73464 7.70033 9.73464 7.94199 9.9763L9.37533 11.4096V7.08464C9.37533 6.74297 9.65866 6.45964 10.0003 6.45964C10.342 6.45964 10.6253 6.74297 10.6253 7.08464V11.4096L12.0587 9.9763C12.3003 9.73464 12.7003 9.73464 12.942 9.9763C13.1837 10.218 13.1837 10.618 12.942 10.8596Z" fill="white"/>
</svg>
