<svg width="20" height="20" viewBox="0 0 20 20" fill="none" xmlns="http://www.w3.org/2000/svg">
<path d="M18.125 5.60964C18.125 5.44297 18.0583 5.28464 17.9417 5.16797L14.8417 2.06797C14.6 1.8263 14.2 1.8263 13.9583 2.06797C13.7167 2.30964 13.7167 2.70964 13.9583 2.9513L16 4.99297H2.5C2.15833 4.99297 1.875 5.2763 1.875 5.61797C1.875 5.95964 2.15833 6.23464 2.5 6.23464H15.9917L13.9583 8.26797C13.7167 8.50962 13.7167 8.90962 13.9583 9.15129C14.0833 9.27629 14.2417 9.33462 14.4 9.33462C14.5583 9.33462 14.7167 9.27629 14.8417 9.15129L17.9333 6.05964C17.9917 6.0013 18.0417 5.9263 18.075 5.84297C18.075 5.83464 18.075 5.8263 18.0833 5.81797C18.1083 5.7513 18.125 5.68464 18.125 5.60964Z" fill="white"/>
<path d="M17.5 13.7659H4.00833L6.04167 11.7326C6.28333 11.4909 6.28333 11.0909 6.04167 10.8492C5.8 10.6076 5.4 10.6076 5.15833 10.8492L2.06667 13.9409C2.00833 13.9992 1.95833 14.0742 1.925 14.1576C1.925 14.1659 1.925 14.1742 1.91667 14.1826C1.89167 14.2492 1.875 14.3242 1.875 14.3992C1.875 14.5659 1.94167 14.7242 2.05833 14.8409L5.15833 17.9409C5.28333 18.0659 5.44167 18.1242 5.6 18.1242C5.75833 18.1242 5.91667 18.0659 6.04167 17.9409C6.28333 17.6992 6.28333 17.2992 6.04167 17.0576L4 15.0159H17.5C17.8417 15.0159 18.125 14.7326 18.125 14.3909C18.125 14.0492 17.8417 13.7659 17.5 13.7659Z" fill="white"/>
</svg>
