<svg width="20" height="20" viewBox="0 0 20 20" fill="none" xmlns="http://www.w3.org/2000/svg">
<path d="M13.492 1.66797H6.50866C3.47533 1.66797 1.66699 3.4763 1.66699 6.50964V13.4846C1.66699 16.5263 3.47533 18.3346 6.50866 18.3346H13.4837C16.517 18.3346 18.3253 16.5263 18.3253 13.493V6.50964C18.3337 3.4763 16.5253 1.66797 13.492 1.66797ZM13.3837 9.30964L10.442 12.2513C10.317 12.3763 10.1587 12.4346 10.0003 12.4346C9.84199 12.4346 9.68366 12.3763 9.55866 12.2513L6.61699 9.30964C6.37533 9.06797 6.37533 8.66797 6.61699 8.4263C6.85866 8.18463 7.25866 8.18463 7.50033 8.4263L10.0003 10.9263L12.5003 8.4263C12.742 8.18463 13.142 8.18463 13.3837 8.4263C13.6253 8.66797 13.6253 9.05964 13.3837 9.30964Z" fill="white"/>
</svg>
