<svg width="20" height="20" viewBox="0 0 20 20" fill="none" xmlns="http://www.w3.org/2000/svg">
<path d="M13.492 1.66797H6.50866C3.47533 1.66797 1.66699 3.4763 1.66699 6.50964V13.4846C1.66699 16.5263 3.47533 18.3346 6.50866 18.3346H13.4837C16.517 18.3346 18.3253 16.5263 18.3253 13.493V6.50964C18.3337 3.4763 16.5253 1.66797 13.492 1.66797ZM9.15866 14.168C9.15866 14.2513 9.14199 14.3263 9.10866 14.4096C9.04199 14.5596 8.92533 14.6846 8.76699 14.7513C8.69199 14.7846 8.60866 14.8013 8.52532 14.8013C8.44199 14.8013 8.36699 14.7846 8.28366 14.7513C8.20866 14.718 8.14199 14.6763 8.08366 14.618L5.62533 12.1596C5.38366 11.918 5.38366 11.518 5.62533 11.2763C5.86699 11.0346 6.26699 11.0346 6.50866 11.2763L7.90032 12.668V5.83464C7.90032 5.49297 8.18366 5.20964 8.52532 5.20964C8.86699 5.20964 9.15866 5.49297 9.15866 5.83464V14.168ZM14.367 8.73463C14.242 8.85963 14.0837 8.91797 13.9253 8.91797C13.767 8.91797 13.6087 8.85963 13.4837 8.73463L12.092 7.34297V14.168C12.092 14.5096 11.8087 14.793 11.467 14.793C11.1253 14.793 10.842 14.5096 10.842 14.168V5.83464C10.842 5.7513 10.8587 5.6763 10.892 5.59297C10.9587 5.44297 11.0753 5.31797 11.2337 5.2513C11.3837 5.18464 11.5587 5.18464 11.7087 5.2513C11.7837 5.28464 11.8503 5.3263 11.9087 5.38464L14.367 7.84297C14.6087 8.09297 14.6087 8.49297 14.367 8.73463Z" fill="white"/>
</svg>
