<svg width="20" height="20" viewBox="0 0 20 20" fill="none" xmlns="http://www.w3.org/2000/svg">
<path d="M13.492 1.66797H6.50866C3.47533 1.66797 1.66699 3.4763 1.66699 6.50964V13.4846C1.66699 16.5263 3.47533 18.3346 6.50866 18.3346H13.4837C16.517 18.3346 18.3253 16.5263 18.3253 13.493V6.50964C18.3337 3.4763 16.5253 1.66797 13.492 1.66797ZM14.017 11.868L10.442 15.443C10.3253 15.5596 10.167 15.6263 10.0003 15.6263C9.83366 15.6263 9.67533 15.5596 9.55866 15.443L5.98366 11.868C5.74199 11.6263 5.74199 11.2263 5.98366 10.9846C6.22533 10.743 6.62533 10.743 6.86699 10.9846L9.37533 13.493V5.0013C9.37533 4.65964 9.65866 4.3763 10.0003 4.3763C10.342 4.3763 10.6253 4.65964 10.6253 5.0013V13.493L13.1337 10.9846C13.3753 10.743 13.7753 10.743 14.017 10.9846C14.142 11.1096 14.2003 11.268 14.2003 11.4263C14.2003 11.5846 14.1337 11.7513 14.017 11.868Z" fill="white"/>
</svg>
