<svg width="20" height="20" viewBox="0 0 20 20" fill="none" xmlns="http://www.w3.org/2000/svg">
<path d="M10.0003 1.66797C5.40866 1.66797 1.66699 5.40964 1.66699 10.0013C1.66699 14.593 5.40866 18.3346 10.0003 18.3346C14.592 18.3346 18.3337 14.593 18.3337 10.0013C18.3337 5.40964 14.592 1.66797 10.0003 1.66797ZM13.3837 9.39297L10.442 12.3346C10.317 12.4596 10.1587 12.518 10.0003 12.518C9.84199 12.518 9.68366 12.4596 9.55866 12.3346L6.61699 9.39297C6.37533 9.1513 6.37533 8.7513 6.61699 8.50964C6.85866 8.26797 7.25866 8.26797 7.50033 8.50964L10.0003 11.0096L12.5003 8.50964C12.742 8.26797 13.142 8.26797 13.3837 8.50964C13.6253 8.7513 13.6253 9.14297 13.3837 9.39297Z" fill="white"/>
</svg>
