<svg width="20" height="20" viewBox="0 0 20 20" fill="none" xmlns="http://www.w3.org/2000/svg">
<path d="M13.492 1.66797H6.50866C3.47533 1.66797 1.66699 3.4763 1.66699 6.50964V13.4846C1.66699 16.5263 3.47533 18.3346 6.50866 18.3346H13.4837C16.517 18.3346 18.3253 16.5263 18.3253 13.493V6.50964C18.3337 3.4763 16.5253 1.66797 13.492 1.66797ZM13.3837 11.668C13.2587 11.793 13.1003 11.8513 12.942 11.8513C12.7837 11.8513 12.6253 11.7846 12.5003 11.668L10.0003 9.16797L7.50033 11.668C7.25866 11.9096 6.85866 11.9096 6.61699 11.668C6.37533 11.4263 6.37533 11.0263 6.61699 10.7846L9.55866 7.84297C9.80033 7.6013 10.2003 7.6013 10.442 7.84297L13.3837 10.7846C13.6253 11.0263 13.6253 11.418 13.3837 11.668Z" fill="white"/>
</svg>
