<svg width="20" height="20" viewBox="0 0 20 20" fill="none" xmlns="http://www.w3.org/2000/svg">
<path d="M10.0003 1.66797C5.40866 1.66797 1.66699 5.40964 1.66699 10.0013C1.66699 14.593 5.40866 18.3346 10.0003 18.3346C14.592 18.3346 18.3337 14.593 18.3337 10.0013C18.3337 5.40964 14.592 1.66797 10.0003 1.66797ZM11.492 12.5013C11.7337 12.743 11.7337 13.143 11.492 13.3846C11.367 13.5096 11.2087 13.568 11.0503 13.568C10.892 13.568 10.7337 13.5096 10.6087 13.3846L7.66699 10.443C7.42533 10.2013 7.42533 9.8013 7.66699 9.55964L10.6087 6.61797C10.8503 6.3763 11.2503 6.3763 11.492 6.61797C11.7337 6.85964 11.7337 7.25964 11.492 7.5013L8.99199 10.0013L11.492 12.5013Z" fill="white"/>
</svg>
