<svg width="20" height="20" viewBox="0 0 20 20" fill="none" xmlns="http://www.w3.org/2000/svg">
<path d="M13.492 1.66797H6.50866C3.47533 1.66797 1.66699 3.4763 1.66699 6.50964V13.4846C1.66699 16.5263 3.47533 18.3346 6.50866 18.3346H13.4837C16.517 18.3346 18.3253 16.5263 18.3253 13.493V6.50964C18.3337 3.4763 16.5253 1.66797 13.492 1.66797ZM16.1253 7.36797C16.092 7.44297 16.0503 7.50964 15.992 7.56797L14.492 9.06797C14.367 9.19297 14.2087 9.2513 14.0503 9.2513C13.892 9.2513 13.7337 9.19297 13.6087 9.06797C13.367 8.8263 13.367 8.4263 13.6087 8.18464L14.042 7.7513H13.917C12.167 7.7513 10.7337 9.1763 10.7337 10.9263V12.5596V14.368C10.7337 14.7096 10.4503 14.993 10.1087 14.993C9.76699 14.993 9.48366 14.7096 9.48366 14.368V12.5596V10.9263C9.48366 9.1763 8.05866 7.7513 6.30866 7.7513H5.95866L6.39199 8.18464C6.63366 8.4263 6.63366 8.8263 6.39199 9.06797C6.26699 9.19297 6.10866 9.2513 5.95033 9.2513C5.79199 9.2513 5.63366 9.19297 5.50866 9.06797L4.00866 7.56797C3.76699 7.3263 3.76699 6.9263 4.00866 6.68464L5.50866 5.18464C5.75033 4.94297 6.15033 4.94297 6.39199 5.18464C6.63366 5.4263 6.63366 5.8263 6.39199 6.06797L5.95866 6.5013H6.31699C7.94199 6.5013 9.35033 7.39297 10.117 8.7013C10.8837 7.39297 12.292 6.5013 13.9253 6.5013H14.0503L13.617 6.06797C13.3753 5.8263 13.3753 5.4263 13.617 5.18464C13.8587 4.94297 14.2587 4.94297 14.5003 5.18464L16.0003 6.68464C16.0587 6.74297 16.1003 6.80964 16.1337 6.88464C16.192 7.04297 16.192 7.21797 16.1253 7.36797Z" fill="white"/>
</svg>
