<svg width="20" height="20" viewBox="0 0 20 20" fill="none" xmlns="http://www.w3.org/2000/svg">
<path d="M13.492 1.66797H6.50866C3.47533 1.66797 1.66699 3.4763 1.66699 6.50964V13.4846C1.66699 16.5263 3.47533 18.3346 6.50866 18.3346H13.4837C16.517 18.3346 18.3253 16.5263 18.3253 13.493V6.50964C18.3337 3.4763 16.5253 1.66797 13.492 1.66797ZM15.442 10.443L11.867 14.018C11.742 14.143 11.5837 14.2013 11.4253 14.2013C11.267 14.2013 11.1087 14.143 10.9837 14.018C10.742 13.7763 10.742 13.3763 10.9837 13.1346L13.492 10.6263H5.00033C4.65866 10.6263 4.37533 10.343 4.37533 10.0013C4.37533 9.65964 4.65866 9.3763 5.00033 9.3763H13.492L10.9837 6.86797C10.742 6.6263 10.742 6.2263 10.9837 5.98464C11.2253 5.74297 11.6253 5.74297 11.867 5.98464L15.442 9.55964C15.5587 9.6763 15.6253 9.83464 15.6253 10.0013C15.6253 10.168 15.5587 10.3263 15.442 10.443Z" fill="white"/>
</svg>
