<svg width="20" height="20" viewBox="0 0 20 20" fill="none" xmlns="http://www.w3.org/2000/svg">
<path d="M10.0003 1.66797C5.40866 1.66797 1.66699 5.40964 1.66699 10.0013C1.66699 14.593 5.40866 18.3346 10.0003 18.3346C14.592 18.3346 18.3337 14.593 18.3337 10.0013C18.3337 5.40964 14.592 1.66797 10.0003 1.66797ZM12.3253 10.443L9.38366 13.3846C9.25866 13.5096 9.10032 13.568 8.94199 13.568C8.78366 13.568 8.62533 13.5096 8.50033 13.3846C8.25866 13.143 8.25866 12.743 8.50033 12.5013L11.0003 10.0013L8.50033 7.5013C8.25866 7.25964 8.25866 6.85964 8.50033 6.61797C8.74199 6.3763 9.14199 6.3763 9.38366 6.61797L12.3253 9.55964C12.5753 9.8013 12.5753 10.2013 12.3253 10.443Z" fill="white"/>
</svg>
