<svg width="20" height="20" viewBox="0 0 20 20" fill="none" xmlns="http://www.w3.org/2000/svg">
<path d="M13.492 1.66797H6.50866C3.47533 1.66797 1.66699 3.4763 1.66699 6.50964V13.4846C1.66699 16.5263 3.47533 18.3346 6.50866 18.3346H13.4837C16.517 18.3346 18.3253 16.5263 18.3253 13.493V6.50964C18.3337 3.4763 16.5253 1.66797 13.492 1.66797ZM11.492 12.5013C11.7337 12.743 11.7337 13.143 11.492 13.3846C11.367 13.5096 11.2087 13.568 11.0503 13.568C10.892 13.568 10.7337 13.5096 10.6087 13.3846L7.66699 10.443C7.42533 10.2013 7.42533 9.8013 7.66699 9.55964L10.6087 6.61797C10.8503 6.3763 11.2503 6.3763 11.492 6.61797C11.7337 6.85964 11.7337 7.25964 11.492 7.5013L8.99199 10.0013L11.492 12.5013Z" fill="white"/>
</svg>
