<svg width="20" height="20" viewBox="0 0 20 20" fill="none" xmlns="http://www.w3.org/2000/svg">
<path d="M9.15082 5.15833L6.05918 2.06667C6.00085 2.00833 5.92585 1.95833 5.84251 1.925C5.83418 1.925 5.82585 1.925 5.81751 1.91667C5.75085 1.89167 5.68418 1.875 5.60918 1.875C5.44251 1.875 5.28418 1.94167 5.16751 2.05833L2.05918 5.15833C1.81751 5.4 1.81751 5.8 2.05918 6.04167C2.30085 6.28333 2.70085 6.28333 2.94251 6.04167L4.98418 4V17.5C4.98418 17.8417 5.26751 18.125 5.60918 18.125C5.95085 18.125 6.23418 17.8417 6.23418 17.5V4.00833L8.26751 6.04167C8.39249 6.16667 8.55082 6.225 8.70916 6.225C8.86749 6.225 9.02582 6.16667 9.15082 6.04167C9.39249 5.8 9.39249 5.40833 9.15082 5.15833Z" fill="white"/>
<path d="M17.9419 13.9583C17.7002 13.7167 17.3002 13.7167 17.0585 13.9583L15.0169 16V2.5C15.0169 2.15833 14.7335 1.875 14.3919 1.875C14.0502 1.875 13.7669 2.15833 13.7669 2.5V15.9917L11.7335 13.9583C11.4919 13.7167 11.0919 13.7167 10.8502 13.9583C10.6085 14.2 10.6085 14.6 10.8502 14.8417L13.9419 17.9333C14.0002 17.9917 14.0752 18.0417 14.1585 18.075C14.1669 18.075 14.1752 18.075 14.1835 18.0833C14.2502 18.1083 14.3252 18.125 14.4002 18.125C14.5669 18.125 14.7252 18.0583 14.8419 17.9417L17.9419 14.8417C18.1835 14.5917 18.1835 14.2 17.9419 13.9583Z" fill="white"/>
</svg>
