<svg width="20" height="20" viewBox="0 0 20 20" fill="none" xmlns="http://www.w3.org/2000/svg">
<path d="M13.492 1.66797H6.50866C3.47533 1.66797 1.66699 3.4763 1.66699 6.50964V13.4846C1.66699 16.5263 3.47533 18.3346 6.50866 18.3346H13.4837C16.517 18.3346 18.3253 16.5263 18.3253 13.493V6.50964C18.3337 3.4763 16.5253 1.66797 13.492 1.66797ZM15.0003 10.6263H6.50866L9.01699 13.1346C9.25866 13.3763 9.25866 13.7763 9.01699 14.018C8.89199 14.143 8.73366 14.2013 8.57533 14.2013C8.41699 14.2013 8.25866 14.143 8.13366 14.018L4.55866 10.443C4.44199 10.3263 4.37533 10.168 4.37533 10.0013C4.37533 9.83464 4.44199 9.6763 4.55866 9.55964L8.13366 5.98464C8.37533 5.74297 8.77533 5.74297 9.01699 5.98464C9.25866 6.2263 9.25866 6.6263 9.01699 6.86797L6.50866 9.3763H15.0003C15.342 9.3763 15.6253 9.65964 15.6253 10.0013C15.6253 10.343 15.342 10.6263 15.0003 10.6263Z" fill="white"/>
</svg>
