<svg width="20" height="20" viewBox="0 0 20 20" fill="none" xmlns="http://www.w3.org/2000/svg">
<path d="M13.492 1.66797H6.50866C3.47533 1.66797 1.66699 3.4763 1.66699 6.50964V13.4846C1.66699 16.5263 3.47533 18.3346 6.50866 18.3346H13.4837C16.517 18.3346 18.3253 16.5263 18.3253 13.493V6.50964C18.3337 3.4763 16.5253 1.66797 13.492 1.66797ZM14.742 11.7096C14.7087 11.7846 14.667 11.8513 14.6087 11.9096L12.1503 14.368C12.0253 14.493 11.867 14.5513 11.7087 14.5513C11.5503 14.5513 11.392 14.493 11.267 14.368C11.0253 14.1263 11.0253 13.7263 11.267 13.4846L12.6587 12.093H5.83366C5.49199 12.093 5.20866 11.8096 5.20866 11.468C5.20866 11.1263 5.49199 10.843 5.83366 10.843H14.167C14.2503 10.843 14.3253 10.8596 14.4087 10.893C14.5587 10.9596 14.6837 11.0763 14.7503 11.2346C14.8087 11.3846 14.8087 11.5513 14.742 11.7096ZM14.167 9.15964H5.83366C5.75033 9.15964 5.67533 9.14297 5.59199 9.10964C5.44199 9.04297 5.31699 8.9263 5.25033 8.76797C5.18366 8.61797 5.18366 8.44297 5.25033 8.29297C5.29199 8.21797 5.33366 8.1513 5.39199 8.09297L7.85033 5.63464C8.09199 5.39297 8.49199 5.39297 8.73366 5.63464C8.97532 5.8763 8.97532 6.2763 8.73366 6.51797L7.34199 7.90964H14.167C14.5087 7.90964 14.792 8.19297 14.792 8.53464C14.792 8.8763 14.5087 9.15964 14.167 9.15964Z" fill="white"/>
</svg>
