<svg width="20" height="20" viewBox="0 0 20 20" fill="none" xmlns="http://www.w3.org/2000/svg">
<path d="M10.0003 1.66797C5.40866 1.66797 1.66699 5.40964 1.66699 10.0013C1.66699 14.593 5.40866 18.3346 10.0003 18.3346C14.592 18.3346 18.3337 14.593 18.3337 10.0013C18.3337 5.40964 14.592 1.66797 10.0003 1.66797ZM13.3837 11.493C13.2587 11.618 13.1003 11.6763 12.942 11.6763C12.7837 11.6763 12.6253 11.618 12.5003 11.493L10.0003 8.99297L7.50033 11.493C7.25866 11.7346 6.85866 11.7346 6.61699 11.493C6.37533 11.2513 6.37533 10.8513 6.61699 10.6096L9.55866 7.66797C9.80033 7.4263 10.2003 7.4263 10.442 7.66797L13.3837 10.6096C13.6253 10.8596 13.6253 11.2513 13.3837 11.493Z" fill="white"/>
</svg>
