<svg width="20" height="20" viewBox="0 0 20 20" fill="none" xmlns="http://www.w3.org/2000/svg">
<path d="M10.0003 1.66797C5.40033 1.66797 1.66699 5.4013 1.66699 10.0013C1.66699 14.6013 5.40033 18.3346 10.0003 18.3346C14.6003 18.3346 18.3337 14.6013 18.3337 10.0013C18.3337 5.4013 14.6003 1.66797 10.0003 1.66797ZM12.917 10.6263H8.59199L10.0253 12.0596C10.267 12.3013 10.267 12.7013 10.0253 12.943C9.90033 13.068 9.74199 13.1263 9.58366 13.1263C9.42533 13.1263 9.26699 13.068 9.14199 12.943L6.64199 10.443C6.40033 10.2013 6.40033 9.8013 6.64199 9.55964L9.14199 7.05964C9.38366 6.81797 9.78366 6.81797 10.0253 7.05964C10.267 7.3013 10.267 7.7013 10.0253 7.94297L8.59199 9.3763H12.917C13.2587 9.3763 13.542 9.65964 13.542 10.0013C13.542 10.343 13.2587 10.6263 12.917 10.6263Z" fill="white"/>
</svg>
