<svg width="20" height="20" viewBox="0 0 20 20" fill="none" xmlns="http://www.w3.org/2000/svg">
<path d="M13.492 1.66797H6.50866C3.47533 1.66797 1.66699 3.4763 1.66699 6.50964V13.4846C1.66699 16.5263 3.47533 18.3346 6.50866 18.3346H13.4837C16.517 18.3346 18.3253 16.5263 18.3253 13.493V6.50964C18.3337 3.4763 16.5253 1.66797 13.492 1.66797ZM14.017 9.01797C13.7753 9.25963 13.3753 9.25963 13.1337 9.01797L10.6253 6.50964V15.0013C10.6253 15.343 10.342 15.6263 10.0003 15.6263C9.65866 15.6263 9.37533 15.343 9.37533 15.0013V6.50964L6.86699 9.01797C6.62533 9.25963 6.22533 9.25963 5.98366 9.01797C5.85866 8.89297 5.80033 8.73464 5.80033 8.5763C5.80033 8.41797 5.86699 8.2513 5.98366 8.13464L9.55866 4.55964C9.67533 4.44297 9.83366 4.3763 10.0003 4.3763C10.167 4.3763 10.3253 4.44297 10.442 4.55964L14.017 8.13464C14.2587 8.3763 14.2587 8.76797 14.017 9.01797Z" fill="white"/>
</svg>
