<svg width="20" height="20" viewBox="0 0 20 20" fill="none" xmlns="http://www.w3.org/2000/svg">
<path opacity="0.93" d="M10.0003 1.66797C5.40033 1.66797 1.66699 5.4013 1.66699 10.0013C1.66699 14.6013 5.40033 18.3346 10.0003 18.3346C14.6003 18.3346 18.3337 14.6013 18.3337 10.0013C18.3337 5.4013 14.6003 1.66797 10.0003 1.66797ZM13.642 11.9596L11.792 13.8096C11.342 14.2596 10.7587 14.4763 10.1753 14.4763C9.59199 14.4763 9.00033 14.2513 8.55866 13.8096C8.12533 13.3763 7.88366 12.8013 7.88366 12.193C7.88366 11.5846 8.12533 11.0013 8.55866 10.5763L9.73366 9.4013C9.97533 9.15964 10.3753 9.15964 10.617 9.4013C10.8587 9.64297 10.8587 10.043 10.617 10.2846L9.44199 11.4596C9.24199 11.6596 9.13366 11.918 9.13366 12.193C9.13366 12.468 9.24199 12.7346 9.44199 12.9263C9.85033 13.3346 10.5087 13.3346 10.917 12.9263L12.767 11.0763C13.8253 10.018 13.8253 8.3013 12.767 7.24297C11.7087 6.18463 9.99199 6.18463 8.93366 7.24297L6.91699 9.25963C6.49199 9.68463 6.25866 10.243 6.25866 10.8346C6.25866 11.4263 6.49199 11.993 6.91699 12.4096C7.15866 12.6513 7.15866 13.0513 6.91699 13.293C6.67533 13.5346 6.27533 13.5346 6.03366 13.293C5.36699 12.6513 5.00033 11.7763 5.00033 10.843C5.00033 9.90964 5.35866 9.03464 6.01699 8.3763L8.03366 6.35964C9.57533 4.81797 12.092 4.81797 13.6337 6.35964C15.1837 7.9013 15.1837 10.418 13.642 11.9596Z" fill="white"/>
</svg>
