<svg width="20" height="20" viewBox="0 0 20 20" fill="none" xmlns="http://www.w3.org/2000/svg">
<path d="M8.05853 11.6016C7.44186 11.6016 6.9502 12.1016 6.9502 12.7182C6.9502 13.3349 7.4502 13.8266 8.05853 13.8266C8.67516 13.8266 9.17516 13.3266 9.17516 12.7182C9.17516 12.1016 8.67516 11.6016 8.05853 11.6016Z" fill="white"/>
<path d="M13.492 1.66797H6.50866C3.47533 1.66797 1.66699 3.4763 1.66699 6.50964V13.4846C1.66699 16.5263 3.47533 18.3346 6.50866 18.3346H13.4837C16.517 18.3346 18.3253 16.5263 18.3253 13.493V6.50964C18.3337 3.4763 16.5253 1.66797 13.492 1.66797ZM14.267 8.16797C14.267 8.6763 14.0503 9.1263 13.6837 9.39297C13.4503 9.55964 13.167 9.6513 12.867 9.6513C12.692 9.6513 12.517 9.61797 12.3337 9.55964L10.4253 8.9263C10.417 8.9263 10.4003 8.91797 10.392 8.90963V12.7096C10.392 13.993 9.34199 15.043 8.05866 15.043C6.77533 15.043 5.72533 13.993 5.72533 12.7096C5.72533 11.4263 6.77533 10.3763 8.05866 10.3763C8.46699 10.3763 8.84199 10.493 9.17533 10.668V7.19297V6.68464C9.17533 6.1763 9.39199 5.7263 9.75866 5.45964C10.1337 5.19297 10.6253 5.1263 11.1087 5.29297L13.017 5.9263C13.7337 6.16797 14.2753 6.91797 14.2753 7.66797V8.16797H14.267Z" fill="white"/>
</svg>
