<svg width="20" height="20" viewBox="0 0 20 20" fill="none" xmlns="http://www.w3.org/2000/svg">
<path d="M10.0003 1.66797C5.40033 1.66797 1.66699 5.4013 1.66699 10.0013C1.66699 14.6013 5.40033 18.3346 10.0003 18.3346C14.6003 18.3346 18.3337 14.6013 18.3337 10.0013C18.3337 5.4013 14.6003 1.66797 10.0003 1.66797ZM6.94199 8.88464L9.02533 4.71797C9.13366 4.50964 9.35033 4.3763 9.58366 4.3763H10.417C10.6503 4.3763 10.867 4.50964 10.9753 4.71797L13.0587 8.88464C13.217 9.19297 13.092 9.56797 12.7753 9.7263C12.6837 9.76797 12.592 9.79297 12.5003 9.79297C12.2753 9.79297 12.0503 9.66797 11.942 9.4513L10.0337 5.6263H9.97533L8.06699 9.4513C7.91699 9.75964 7.54199 9.88464 7.22533 9.73464C6.90866 9.5763 6.78366 9.2013 6.94199 8.88464ZM14.492 13.0346L10.3253 15.5346C10.2253 15.593 10.117 15.6263 10.0003 15.6263C9.88366 15.6263 9.77533 15.593 9.67533 15.5346L5.50866 13.0346C5.22533 12.868 5.12533 12.5096 5.26699 12.218L6.10033 10.5513C6.25866 10.243 6.63366 10.118 6.94199 10.268C7.25033 10.4263 7.37533 10.8013 7.22533 11.1096L6.65033 12.2596L10.0003 14.268L13.3503 12.2596L12.7753 11.1096C12.617 10.8013 12.742 10.4263 13.0587 10.268C13.367 10.118 13.742 10.2346 13.9003 10.5513L14.7337 12.218C14.8753 12.5096 14.767 12.868 14.492 13.0346Z" fill="white"/>
</svg>
