<svg width="20" height="20" viewBox="0 0 20 20" fill="none" xmlns="http://www.w3.org/2000/svg">
<path d="M10.0003 1.66797C5.40033 1.66797 1.66699 5.4013 1.66699 10.0013C1.66699 14.6013 5.40033 18.3346 10.0003 18.3346C14.6003 18.3346 18.3337 14.6013 18.3337 10.0013C18.3337 5.4013 14.6003 1.66797 10.0003 1.66797ZM8.91699 13.4513H5.36699C5.20866 13.4513 5.10864 13.2763 5.19198 13.1346L6.96698 10.1763C7.05032 10.043 7.24198 10.043 7.32531 10.1763L9.10033 13.1346C9.18366 13.2763 9.08366 13.4513 8.91699 13.4513ZM8.22533 8.4513C8.06699 8.4513 7.96697 8.27629 8.0503 8.13463L9.82533 5.17631C9.90866 5.04298 10.1003 5.04298 10.1837 5.17631L11.9587 8.13463C12.042 8.27629 11.942 8.4513 11.7837 8.4513H8.22533ZM14.6337 13.4513H11.0837C10.9253 13.4513 10.8253 13.2763 10.9087 13.1346L12.6837 10.1763C12.767 10.043 12.9587 10.043 13.042 10.1763L14.817 13.1346C14.892 13.2763 14.792 13.4513 14.6337 13.4513Z" fill="white"/>
</svg>
