<svg width="20" height="20" viewBox="0 0 20 20" fill="none" xmlns="http://www.w3.org/2000/svg">
<path d="M17.9668 8.94845L16.8417 7.63177C16.6334 7.38177 16.4584 6.9151 16.4584 6.58177V5.1651C16.4584 4.28177 15.7334 3.55677 14.8501 3.55677H13.4334C13.1001 3.55677 12.6251 3.38177 12.3751 3.17344L11.0584 2.04844C10.4834 1.55677 9.54175 1.55677 8.96675 2.04844L7.6334 3.17344C7.3834 3.38177 6.91673 3.55677 6.5834 3.55677H5.14173C4.2584 3.55677 3.5334 4.28177 3.5334 5.1651V6.58177C3.5334 6.90677 3.36673 7.37344 3.1584 7.62344L2.0334 8.94845C1.55007 9.53179 1.55007 10.4651 2.0334 11.0318L3.1584 12.3568C3.36673 12.5985 3.5334 13.0735 3.5334 13.3985V14.8235C3.5334 15.7068 4.2584 16.4318 5.14173 16.4318H6.59173C6.91673 16.4318 7.39173 16.6068 7.64173 16.8151L8.95842 17.9401C9.53342 18.4318 10.4751 18.4318 11.0501 17.9401L12.3667 16.8151C12.6167 16.6068 13.0834 16.4318 13.4167 16.4318H14.8334C15.7167 16.4318 16.4418 15.7068 16.4418 14.8235V13.4068C16.4418 13.0735 16.6167 12.6068 16.8251 12.3568L17.9501 11.0401C18.4584 10.4735 18.4584 9.53179 17.9668 8.94845ZM12.3417 13.5318L11.5251 11.6985C11.5001 11.6985 11.4751 11.7151 11.4501 11.7151H8.53342C8.50842 11.7151 8.48342 11.7068 8.45842 11.6985L7.64173 13.5318L6.50007 13.0235L9.41675 6.45677H10.5584L13.4751 13.0235L12.3417 13.5318Z" fill="white"/>
<path d="M9.0166 10.4662H10.9833L9.99994 8.25781L9.0166 10.4662Z" fill="white"/>
</svg>
