<svg width="20" height="20" viewBox="0 0 20 20" fill="none" xmlns="http://www.w3.org/2000/svg">
<path d="M10.0003 1.66797C5.40033 1.66797 1.66699 5.4013 1.66699 10.0013C1.66699 14.6013 5.40033 18.3346 10.0003 18.3346C14.6003 18.3346 18.3337 14.6013 18.3337 10.0013C18.3337 5.4013 14.6003 1.66797 10.0003 1.66797ZM8.93366 12.843C8.65866 13.2846 8.17532 13.5513 7.65032 13.5513H5.36699C5.07533 13.5513 4.89198 13.2346 5.04198 12.9846L9.71699 4.9763C9.85033 4.74297 10.1837 4.7263 10.342 4.94297L11.642 6.68464C12.017 7.18464 12.042 7.85964 11.717 8.39297L8.93366 12.843ZM14.6253 13.5513H11.4253C11.1337 13.5513 10.9503 13.2346 11.1003 12.9763L12.7003 10.3096C12.8503 10.068 13.2003 10.068 13.3503 10.3096L14.9503 12.9763C15.1003 13.2263 14.917 13.5513 14.6253 13.5513Z" fill="white"/>
</svg>
