<svg width="20" height="20" viewBox="0 0 20 20" fill="none" xmlns="http://www.w3.org/2000/svg">
<path d="M12.0252 14.099H10.1169C9.77519 14.099 9.49186 13.8156 9.49186 13.474C9.49186 13.1323 9.77519 12.849 10.1169 12.849H12.0252C12.3835 12.849 12.6752 12.5573 12.6752 12.199C12.6752 11.8406 12.3835 11.549 12.0252 11.549H10.1169C9.91686 11.549 9.72519 11.449 9.60852 11.2906C9.49186 11.1323 9.45852 10.9156 9.52519 10.724L10.1585 8.81563C10.2419 8.55729 10.4835 8.39062 10.7502 8.39062H13.3002C13.6419 8.39062 13.9252 8.67396 13.9252 9.01563C13.9252 9.35729 13.6419 9.64063 13.3002 9.64063H11.2002L10.9835 10.299H12.0252C13.0752 10.299 13.9252 11.149 13.9252 12.199C13.9252 13.249 13.0669 14.099 12.0252 14.099Z" fill="white"/>
<path d="M7.95067 14.1013C7.609 14.1013 7.32567 13.818 7.32567 13.4763V10.6513L7.16733 10.8347C6.934 11.093 6.54233 11.1097 6.284 10.8847C6.034 10.6513 6.009 10.2597 6.24233 10.0013L7.49233 8.60966C7.66733 8.41799 7.94233 8.35133 8.184 8.44299C8.42566 8.53466 8.58399 8.76799 8.58399 9.02633V13.4847C8.57566 13.8263 8.30067 14.1013 7.95067 14.1013Z" fill="white"/>
<path d="M9.99967 2.89824C9.933 2.89824 9.86633 2.90657 9.79967 2.90657L10.483 2.05657C10.6997 1.78991 10.658 1.38991 10.383 1.18157C10.108 0.97324 9.72467 1.00657 9.508 1.28157L7.86634 3.33157C7.85801 3.33991 7.85801 3.34824 7.84967 3.36491C7.82467 3.39824 7.80801 3.43991 7.79134 3.47324C7.77467 3.51491 7.75801 3.54824 7.74967 3.58157C7.74134 3.62324 7.74134 3.65657 7.74134 3.69824C7.74134 3.73991 7.74134 3.78157 7.74134 3.82324C7.74134 3.83991 7.74134 3.84824 7.74134 3.86491C7.74967 3.88991 7.76634 3.90657 7.77467 3.93157C7.79134 3.97324 7.80801 4.00657 7.82467 4.04824C7.84967 4.08157 7.87467 4.11491 7.90801 4.13991C7.92467 4.16491 7.93301 4.18991 7.95801 4.20657C7.97467 4.21491 7.98301 4.22324 7.99967 4.23157C8.01634 4.24824 8.04134 4.25657 8.06634 4.26491C8.10801 4.28991 8.15801 4.30657 8.19967 4.31491C8.23301 4.33157 8.25801 4.33157 8.28301 4.33157C8.30801 4.33157 8.32467 4.33991 8.34967 4.33991C8.37467 4.33991 8.39133 4.33157 8.408 4.32324C8.433 4.32324 8.458 4.33157 8.483 4.32324C9.01633 4.19824 9.51633 4.13991 9.99133 4.13991C13.733 4.13991 16.7747 7.18157 16.7747 10.9233C16.7747 14.6649 13.733 17.7066 9.99133 17.7066C6.24967 17.7066 3.20801 14.6649 3.20801 10.9233C3.20801 9.47328 3.68301 8.07324 4.58301 6.87324C4.79134 6.59824 4.73301 6.20657 4.45801 5.99824C4.18301 5.78991 3.79134 5.84824 3.58301 6.12324C2.51634 7.53991 1.95801 9.19828 1.95801 10.9233C1.95801 15.3483 5.55801 18.9566 9.99133 18.9566C14.4247 18.9566 18.0247 15.3566 18.0247 10.9233C18.0247 6.48991 14.4247 2.89824 9.99967 2.89824Z" fill="white"/>
</svg>
