<svg width="20" height="20" viewBox="0 0 20 20" fill="none" xmlns="http://www.w3.org/2000/svg">
<path d="M17.708 4.29297V6.54297C17.708 8.0763 17.2413 8.54297 15.708 8.54297H13.458C11.9247 8.54297 11.458 8.0763 11.458 6.54297V4.29297C11.458 2.75964 11.9247 2.29297 13.458 2.29297H15.708C17.2413 2.29297 17.708 2.75964 17.708 4.29297Z" fill="white"/>
<path d="M8.54199 13.457V15.707C8.54199 17.2404 8.07533 17.707 6.54199 17.707H4.29199C2.75866 17.707 2.29199 17.2404 2.29199 15.707V13.457C2.29199 11.9237 2.75866 11.457 4.29199 11.457H6.54199C8.07533 11.457 8.54199 11.9237 8.54199 13.457Z" fill="white"/>
<path d="M13.4583 9.79059C13.6792 9.79059 13.8583 9.96967 13.8583 10.1906V11.3489C13.8583 13.2489 13.2499 13.8573 11.3499 13.8573H10.1916C9.97067 13.8573 9.79158 13.6782 9.79158 13.4573C9.79158 11.2406 8.75825 10.2073 6.5416 10.2073C6.32068 10.2073 6.1416 10.0282 6.1416 9.80726V8.64892C6.1416 6.74896 6.74994 6.14062 8.64992 6.14062H9.80825C10.0292 6.14062 10.2083 6.31971 10.2083 6.54063C10.2083 8.75726 11.2416 9.79059 13.4583 9.79059Z" fill="white"/>
</svg>
