<svg width="20" height="20" viewBox="0 0 20 20" fill="none" xmlns="http://www.w3.org/2000/svg">
<path d="M10.3162 14.099H8.40784C8.0662 14.099 7.78287 13.8156 7.78287 13.474C7.78287 13.1323 8.0662 12.849 8.40784 12.849H10.3162C10.6745 12.849 10.9662 12.5573 10.9662 12.199C10.9662 11.8406 10.6745 11.549 10.3162 11.549H8.40784C8.20787 11.549 8.0162 11.449 7.89954 11.2906C7.78287 11.1323 7.74954 10.9156 7.8162 10.724L8.4495 8.81563C8.53284 8.55729 8.7745 8.39062 9.04117 8.39062H11.5912C11.9328 8.39062 12.2162 8.67396 12.2162 9.01563C12.2162 9.35729 11.9328 9.64063 11.5912 9.64063H9.49117L9.2745 10.299H10.3162C11.3662 10.299 12.2162 11.149 12.2162 12.199C12.2162 13.249 11.3662 14.099 10.3162 14.099Z" fill="white"/>
<path d="M9.99967 2.89824C9.933 2.89824 9.86633 2.90657 9.79967 2.90657L10.483 2.05657C10.6997 1.78991 10.658 1.38991 10.383 1.18157C10.108 0.97324 9.72467 1.00657 9.508 1.28157L7.86634 3.33157C7.85801 3.33991 7.85801 3.34824 7.84967 3.36491C7.82467 3.39824 7.80801 3.43991 7.79134 3.47324C7.77467 3.51491 7.75801 3.54824 7.74967 3.58157C7.74134 3.62324 7.74134 3.65657 7.74134 3.69824C7.74134 3.73991 7.74134 3.78157 7.74134 3.82324C7.74134 3.83991 7.74134 3.84824 7.74134 3.86491C7.74967 3.88991 7.76634 3.90657 7.77467 3.93157C7.79134 3.97324 7.80801 4.00657 7.82467 4.04824C7.84967 4.08157 7.87467 4.11491 7.90801 4.13991C7.92467 4.16491 7.93301 4.18991 7.95801 4.20657C7.97467 4.21491 7.98301 4.22324 7.99967 4.23157C8.02467 4.24824 8.04134 4.25657 8.06634 4.26491C8.10801 4.28991 8.15801 4.30657 8.20801 4.31491C8.23301 4.33157 8.25801 4.33157 8.28301 4.33157C8.30801 4.33157 8.32467 4.33991 8.34967 4.33991C8.37467 4.33991 8.39133 4.33157 8.408 4.32324C8.433 4.32324 8.458 4.33157 8.483 4.32324C9.01633 4.19824 9.51633 4.13991 9.99133 4.13991C13.733 4.13991 16.7747 7.18157 16.7747 10.9233C16.7747 14.6649 13.733 17.7066 9.99133 17.7066C6.24967 17.7066 3.20801 14.6649 3.20801 10.9233C3.20801 9.47328 3.68301 8.07324 4.58301 6.87324C4.79134 6.59824 4.73301 6.20657 4.45801 5.99824C4.18301 5.78991 3.79134 5.84824 3.58301 6.12324C2.51634 7.53991 1.95801 9.19828 1.95801 10.9233C1.95801 15.3483 5.55801 18.9566 9.99133 18.9566C14.4247 18.9566 18.0247 15.3566 18.0247 10.9233C18.0247 6.48991 14.4247 2.89824 9.99967 2.89824Z" fill="white"/>
</svg>
