<svg width="20" height="20" viewBox="0 0 20 20" fill="none" xmlns="http://www.w3.org/2000/svg">
<path d="M7.94995 13.8904C7.60828 13.8904 7.32495 13.607 7.32495 13.2654V10.4404L7.16662 10.6237C6.93328 10.882 6.54162 10.8987 6.28328 10.6737C6.02495 10.4404 6.00828 10.0487 6.23328 9.79038L7.48328 8.39872C7.65828 8.20706 7.93328 8.14039 8.17495 8.23206C8.41666 8.32372 8.57499 8.55705 8.57499 8.81538V13.2737C8.57499 13.6154 8.29995 13.8904 7.94995 13.8904Z" fill="white"/>
<path d="M10.0006 2.90173C9.9339 2.90173 9.86724 2.91007 9.80057 2.91007L10.4839 2.06007C10.7006 1.7934 10.6589 1.3934 10.3839 1.18507C10.1172 0.968401 9.72557 1.01007 9.5089 1.28507L7.86725 3.33507C7.85892 3.3434 7.85892 3.35173 7.85059 3.3684C7.82559 3.40173 7.80892 3.4434 7.79225 3.47673C7.77559 3.5184 7.75892 3.55173 7.75059 3.58507C7.74225 3.62673 7.74225 3.66007 7.74225 3.70173C7.74225 3.7434 7.74225 3.78507 7.74225 3.82673C7.74225 3.8434 7.74225 3.85173 7.74225 3.8684C7.75059 3.8934 7.76725 3.91007 7.77559 3.9434C7.79225 3.98507 7.80059 4.0184 7.82559 4.05173C7.85059 4.08507 7.87559 4.1184 7.90892 4.15173C7.92559 4.1684 7.94225 4.1934 7.95892 4.21007C7.96725 4.2184 7.98392 4.2184 7.99225 4.22673C8.01725 4.2434 8.04225 4.26007 8.07559 4.2684C8.11725 4.2934 8.15892 4.31007 8.20059 4.3184C8.23392 4.33507 8.25892 4.33507 8.29225 4.33507C8.31725 4.33507 8.3339 4.3434 8.3589 4.3434C8.37557 4.3434 8.40057 4.33507 8.41724 4.32673C8.44224 4.32673 8.46724 4.32673 8.50057 4.32673C9.0339 4.20173 9.5339 4.1434 10.0089 4.1434C13.7506 4.1434 16.7922 7.18507 16.7922 10.9267C16.7922 14.6684 13.7506 17.71 10.0089 17.71C6.26725 17.71 3.22559 14.6684 3.22559 10.9267C3.22559 9.4767 3.70059 8.07673 4.60059 6.87673C4.80892 6.60173 4.75059 6.21007 4.47559 6.00173C4.20059 5.7934 3.80892 5.85173 3.60059 6.12673C2.53392 7.5434 1.97559 9.2017 1.97559 10.9267C1.97559 15.3517 5.57559 18.96 10.0089 18.96C14.4422 18.96 18.0422 15.36 18.0422 10.9267C18.0422 6.4934 14.4256 2.90173 10.0006 2.90173Z" fill="white"/>
<path d="M11.6667 13.8919C10.4 13.8919 9.375 12.8669 9.375 11.6003V10.4753C9.375 9.20859 10.4 8.18359 11.6667 8.18359C12.9333 8.18359 13.9583 9.20859 13.9583 10.4753V11.6003C13.9583 12.8669 12.9333 13.8919 11.6667 13.8919ZM11.6667 9.44192C11.0917 9.44192 10.625 9.90859 10.625 10.4836V11.6086C10.625 12.1836 11.0917 12.6503 11.6667 12.6503C12.2417 12.6503 12.7083 12.1836 12.7083 11.6086V10.4836C12.7083 9.90859 12.2417 9.44192 11.6667 9.44192Z" fill="white"/>
</svg>
