<svg width="20" height="20" viewBox="0 0 20 20" fill="none" xmlns="http://www.w3.org/2000/svg">
<path d="M13.492 1.66797H6.50866C3.47533 1.66797 1.66699 3.4763 1.66699 6.50964V13.4846C1.66699 16.5263 3.47533 18.3346 6.50866 18.3346H13.4837C16.517 18.3346 18.3253 16.5263 18.3253 13.493V6.50964C18.3337 3.4763 16.5253 1.66797 13.492 1.66797ZM11.6003 13.443H7.50033C7.15866 13.443 6.87533 13.1596 6.87533 12.818C6.87533 12.4763 7.15866 12.193 7.50033 12.193H11.6003C12.667 12.193 13.542 11.3263 13.542 10.2513C13.542 9.1763 12.6753 8.30964 11.6003 8.30964H7.37533L7.59199 8.5263C7.83366 8.7763 7.83366 9.16797 7.58366 9.41797C7.45866 9.54297 7.30033 9.6013 7.14199 9.6013C6.98366 9.6013 6.82533 9.54297 6.70033 9.41797L5.39199 8.1013C5.15033 7.85964 5.15033 7.45964 5.39199 7.21797L6.70033 5.90964C6.94199 5.66797 7.34199 5.66797 7.58366 5.90964C7.82533 6.1513 7.82533 6.5513 7.58366 6.79297L7.30866 7.06797H11.6003C13.3587 7.06797 14.792 8.5013 14.792 10.2596C14.792 12.018 13.3587 13.443 11.6003 13.443Z" fill="white"/>
</svg>
