<svg width="20" height="20" viewBox="0 0 20 20" fill="none" xmlns="http://www.w3.org/2000/svg">
<path d="M16.0337 4.64948H15.7003L12.8837 1.83281C12.6587 1.60781 12.292 1.60781 12.0587 1.83281C11.8337 2.05781 11.8337 2.42448 12.0587 2.65781L14.0503 4.64948H5.95033L7.94199 2.65781C8.16699 2.43281 8.16699 2.06615 7.94199 1.83281C7.71699 1.60781 7.35033 1.60781 7.11699 1.83281L4.30866 4.64948H3.97533C3.22533 4.64948 1.66699 4.64948 1.66699 6.78281C1.66699 7.59115 1.83366 8.12448 2.18366 8.47444C2.38366 8.68277 2.62533 8.7911 2.88366 8.84944C3.12533 8.90777 3.38366 8.9161 3.63366 8.9161H16.367C16.6253 8.9161 16.867 8.89944 17.1003 8.84944C17.8003 8.68277 18.3337 8.18281 18.3337 6.78281C18.3337 4.64948 16.7753 4.64948 16.0337 4.64948Z" fill="white"/>
<path d="M15.9078 10H4.0911C3.57443 10 3.18276 10.4583 3.2661 10.9667L3.9661 15.25C4.19943 16.6833 4.82443 18.3333 7.59943 18.3333H12.2744C15.0828 18.3333 15.5828 16.925 15.8828 15.35L16.7244 10.9917C16.8244 10.475 16.4328 10 15.9078 10ZM11.5994 15.7417C11.4828 15.8667 11.3244 15.925 11.1578 15.925C10.9994 15.925 10.8411 15.8667 10.7161 15.7417L10.0161 15.0333L9.28275 15.7667C9.15775 15.8917 8.99942 15.95 8.84109 15.95C8.67442 15.95 8.51609 15.8917 8.39942 15.7667C8.14943 15.525 8.14943 15.1333 8.39942 14.8833L9.13275 14.15L8.42442 13.45C8.17443 13.2 8.17443 12.8083 8.42442 12.5667C8.66609 12.3167 9.05775 12.3167 9.30775 12.5667L10.0161 13.2667L10.6911 12.5917C10.9411 12.3417 11.3328 12.3417 11.5744 12.5917C11.8244 12.8333 11.8244 13.225 11.5744 13.475L10.8994 14.15L11.5994 14.8583C11.8494 15.1083 11.8494 15.5 11.5994 15.7417Z" fill="white"/>
</svg>
