<svg width="20" height="20" viewBox="0 0 20 20" fill="none" xmlns="http://www.w3.org/2000/svg">
<path d="M16.6328 7.46601C16.0744 6.84935 15.2328 6.49101 14.0661 6.36601V5.73268C14.0661 4.59101 13.5828 3.49101 12.7328 2.72435C11.8744 1.94101 10.7578 1.57435 9.59942 1.68268C7.6078 1.87435 5.9328 3.79935 5.9328 5.88268V6.36601C4.76613 6.49101 3.92446 6.84935 3.36613 7.46601C2.5578 8.36602 2.5828 9.56602 2.67446 10.3994L3.2578 15.041C3.4328 16.666 4.09113 18.3327 7.67446 18.3327H12.3244C15.9078 18.3327 16.5661 16.666 16.7411 15.0494L17.3244 10.391C17.4161 9.56602 17.4411 8.36602 16.6328 7.46601ZM9.71609 2.84101C10.5494 2.76601 11.3411 3.02435 11.9578 3.58268C12.5661 4.13268 12.9078 4.91601 12.9078 5.73268V6.31601H7.09113V5.88268C7.09113 4.39935 8.31613 2.97435 9.71609 2.84101ZM9.99942 15.4827C8.2578 15.4827 6.84113 14.066 6.84113 12.3244C6.84113 10.5827 8.2578 9.16602 9.99942 9.16602C11.7411 9.16602 13.1578 10.5827 13.1578 12.3244C13.1578 14.066 11.7411 15.4827 9.99942 15.4827Z" fill="white"/>
<path d="M11.3333 12.7604L10.8916 12.3188L11.3083 11.9021C11.5499 11.6604 11.5499 11.2604 11.3083 11.0187C11.0666 10.7771 10.6666 10.7771 10.4249 11.0187L10.0083 11.4354L9.5666 10.9938C9.32493 10.7521 8.92494 10.7521 8.68327 10.9938C8.4416 11.2354 8.4416 11.6354 8.68327 11.8771L9.12494 12.3188L8.6666 12.7771C8.42493 13.0188 8.42493 13.4187 8.6666 13.6604C8.7916 13.7854 8.94994 13.8438 9.10827 13.8438C9.2666 13.8438 9.42494 13.7854 9.54994 13.6604L10.0083 13.2021L10.4499 13.6437C10.5749 13.7687 10.7333 13.8271 10.8916 13.8271C11.0499 13.8271 11.2083 13.7687 11.3333 13.6437C11.5749 13.4021 11.5749 13.0104 11.3333 12.7604Z" fill="white"/>
</svg>
