<svg width="20" height="20" viewBox="0 0 20 20" fill="none" xmlns="http://www.w3.org/2000/svg">
<path d="M16.6328 7.46601C16.0744 6.84935 15.2328 6.49101 14.0661 6.36601V5.73268C14.0661 4.59101 13.5828 3.49101 12.7328 2.72435C11.8744 1.94101 10.7578 1.57435 9.59942 1.68268C7.6078 1.87435 5.9328 3.79935 5.9328 5.88268V6.36601C4.76613 6.49101 3.92446 6.84935 3.36613 7.46601C2.5578 8.36602 2.5828 9.56602 2.67446 10.3994L3.2578 15.041C3.4328 16.666 4.09113 18.3327 7.67446 18.3327H12.3244C15.9078 18.3327 16.5661 16.666 16.7411 15.0494L17.3244 10.391C17.4161 9.56602 17.4328 8.36602 16.6328 7.46601ZM9.71609 2.84101C10.5494 2.76601 11.3411 3.02435 11.9578 3.58268C12.5661 4.13268 12.9078 4.91601 12.9078 5.73268V6.31601H7.09113V5.88268C7.09113 4.39935 8.31613 2.97435 9.71609 2.84101ZM7.01613 10.9577H7.0078C6.54946 10.9577 6.17446 10.5827 6.17446 10.1244C6.17446 9.66602 6.54946 9.29102 7.0078 9.29102C7.47446 9.29102 7.84946 9.66602 7.84946 10.1244C7.84946 10.5827 7.47446 10.9577 7.01613 10.9577ZM12.8494 10.9577H12.8411C12.3828 10.9577 12.0078 10.5827 12.0078 10.1244C12.0078 9.66602 12.3828 9.29102 12.8411 9.29102C13.3078 9.29102 13.6828 9.66602 13.6828 10.1244C13.6828 10.5827 13.3078 10.9577 12.8494 10.9577Z" fill="white"/>
</svg>
