<svg width="20" height="20" viewBox="0 0 20 20" fill="none" xmlns="http://www.w3.org/2000/svg">
<path d="M16.0337 4.64948H15.7003L12.8837 1.83281C12.6587 1.60781 12.292 1.60781 12.0587 1.83281C11.8337 2.05781 11.8337 2.42448 12.0587 2.65781L14.0503 4.64948H5.95033L7.94199 2.65781C8.16699 2.43281 8.16699 2.06615 7.94199 1.83281C7.71699 1.60781 7.35033 1.60781 7.11699 1.83281L4.30866 4.64948H3.97533C3.22533 4.64948 1.66699 4.64948 1.66699 6.78281C1.66699 7.59115 1.83366 8.12448 2.18366 8.47444C2.38366 8.68277 2.62533 8.7911 2.88366 8.84944C3.12533 8.90777 3.38366 8.9161 3.63366 8.9161H16.367C16.6253 8.9161 16.867 8.89944 17.1003 8.84944C17.8003 8.68277 18.3337 8.18281 18.3337 6.78281C18.3337 4.64948 16.7753 4.64948 16.0337 4.64948Z" fill="white"/>
<path d="M15.9078 10H4.0911C3.57443 10 3.18276 10.4583 3.2661 10.9667L3.9661 15.25C4.19943 16.6833 4.82443 18.3333 7.59943 18.3333H12.2744C15.0828 18.3333 15.5828 16.925 15.8828 15.35L16.7244 10.9917C16.8244 10.475 16.4328 10 15.9078 10ZM12.3994 13.375L9.69109 15.875C9.57442 15.9833 9.42442 16.0417 9.26609 16.0417C9.10775 16.0417 8.94942 15.9833 8.82442 15.8583L7.57443 14.6083C7.33276 14.3667 7.33276 13.9667 7.57443 13.725C7.82443 13.4833 8.2161 13.4833 8.46609 13.725L9.29109 14.55L11.5578 12.4583C11.8078 12.225 12.2078 12.2417 12.4411 12.4917C12.6744 12.75 12.6578 13.1417 12.3994 13.375Z" fill="white"/>
</svg>
