<svg width="20" height="20" viewBox="0 0 20 20" fill="none" xmlns="http://www.w3.org/2000/svg">
<path d="M16.6328 7.46601C16.0744 6.84935 15.2328 6.49101 14.0661 6.36601V5.73268C14.0661 4.59101 13.5828 3.49101 12.7328 2.72435C11.8744 1.94101 10.7578 1.57435 9.59942 1.68268C7.6078 1.87435 5.9328 3.79935 5.9328 5.88268V6.36601C4.76613 6.49101 3.92446 6.84935 3.36613 7.46601C2.5578 8.36602 2.5828 9.56602 2.67446 10.3994L3.2578 15.041C3.4328 16.666 4.09113 18.3327 7.67446 18.3327H12.3244C15.9078 18.3327 16.5661 16.666 16.7411 15.0494L17.3244 10.391C17.4161 9.56602 17.4411 8.36602 16.6328 7.46601ZM9.71609 2.84101C10.5494 2.76601 11.3411 3.02435 11.9578 3.58268C12.5661 4.13268 12.9078 4.91601 12.9078 5.73268V6.31601H7.09113V5.88268C7.09113 4.39935 8.31613 2.97435 9.71609 2.84101ZM9.99942 15.4827C8.2578 15.4827 6.84113 14.066 6.84113 12.3244C6.84113 10.5827 8.2578 9.16602 9.99942 9.16602C11.7411 9.16602 13.1578 10.5827 13.1578 12.3244C13.1578 14.066 11.7411 15.4827 9.99942 15.4827Z" fill="white"/>
<path d="M9.52508 13.8666C9.36675 13.8666 9.20842 13.8083 9.08342 13.6833L8.2584 12.8583C8.01673 12.6166 8.01673 12.2166 8.2584 11.975C8.50008 11.7333 8.90008 11.7333 9.14175 11.975L9.54175 12.375L10.8751 11.1416C11.1251 10.9083 11.5251 10.925 11.7584 11.175C11.9917 11.425 11.9751 11.825 11.7251 12.0583L9.95008 13.7C9.82508 13.8083 9.67508 13.8666 9.52508 13.8666Z" fill="white"/>
</svg>
