<svg width="20" height="20" viewBox="0 0 20 20" fill="none" xmlns="http://www.w3.org/2000/svg">
<path d="M16.6328 7.46601C16.0744 6.84935 15.2328 6.49101 14.0661 6.36601V5.73268C14.0661 4.59101 13.5828 3.49101 12.7328 2.72435C11.8744 1.94101 10.7578 1.57435 9.59942 1.68268C7.6078 1.87435 5.9328 3.79935 5.9328 5.88268V6.36601C4.76613 6.49101 3.92446 6.84935 3.36613 7.46601C2.5578 8.36602 2.5828 9.56602 2.67446 10.3994L3.2578 15.041C3.4328 16.666 4.09113 18.3327 7.67446 18.3327H12.3244C15.9078 18.3327 16.5661 16.666 16.7411 15.0494L17.3244 10.391C17.4161 9.56602 17.4411 8.36602 16.6328 7.46601ZM9.71609 2.84101C10.5494 2.76601 11.3411 3.02435 11.9578 3.58268C12.5661 4.13268 12.9078 4.91601 12.9078 5.73268V6.31601H7.09113V5.88268C7.09113 4.39935 8.31613 2.97435 9.71609 2.84101ZM9.99942 15.4827C8.2578 15.4827 6.84113 14.066 6.84113 12.3244C6.84113 10.5827 8.2578 9.16602 9.99942 9.16602C11.7411 9.16602 13.1578 10.5827 13.1578 12.3244C13.1578 14.066 11.7411 15.4827 9.99942 15.4827Z" fill="white"/>
<path d="M9.16657 13.8164C8.95823 13.8164 8.7499 13.7081 8.63324 13.5164C8.45824 13.2247 8.5499 12.8331 8.8499 12.6581L9.59157 12.2164V11.3164C9.59157 10.9747 9.8749 10.6914 10.2166 10.6914C10.5582 10.6914 10.8332 10.9664 10.8332 11.3164V12.5664C10.8332 12.7831 10.7166 12.9914 10.5332 13.0997L9.49157 13.7247C9.39157 13.7831 9.2749 13.8164 9.16657 13.8164Z" fill="white"/>
</svg>
