<svg width="20" height="20" viewBox="0 0 20 20" fill="none" xmlns="http://www.w3.org/2000/svg">
<path d="M16.0337 4.64948H15.7003L12.8837 1.83281C12.6587 1.60781 12.292 1.60781 12.0587 1.83281C11.8337 2.05781 11.8337 2.42448 12.0587 2.65781L14.0503 4.64948H5.95033L7.94199 2.65781C8.16699 2.43281 8.16699 2.06615 7.94199 1.83281C7.71699 1.60781 7.35033 1.60781 7.11699 1.83281L4.30866 4.64948H3.97533C3.22533 4.64948 1.66699 4.64948 1.66699 6.78281C1.66699 7.59115 1.83366 8.12448 2.18366 8.47444C2.38366 8.68277 2.62533 8.7911 2.88366 8.84944C3.12533 8.90777 3.38366 8.9161 3.63366 8.9161H16.367C16.6253 8.9161 16.867 8.89944 17.1003 8.84944C17.8003 8.68277 18.3337 8.18281 18.3337 6.78281C18.3337 4.64948 16.7753 4.64948 16.0337 4.64948Z" fill="white"/>
<path d="M15.8746 10H4.05789C3.54123 10 3.14956 10.4583 3.23289 10.9667L3.93289 15.25C4.16623 16.6833 4.79123 18.3333 7.56623 18.3333H12.2413C15.0496 18.3333 15.5496 16.925 15.8496 15.35L16.6912 10.9917C16.7912 10.475 16.3996 10 15.8746 10ZM8.84125 15.375C8.84125 15.7 8.58292 15.9583 8.26623 15.9583C7.94123 15.9583 7.68289 15.7 7.68289 15.375V12.625C7.68289 12.3083 7.94123 12.0417 8.26623 12.0417C8.58292 12.0417 8.84125 12.3083 8.84125 12.625V15.375ZM12.4079 15.375C12.4079 15.7 12.1496 15.9583 11.8246 15.9583C11.5079 15.9583 11.2413 15.7 11.2413 15.375V12.625C11.2413 12.3083 11.5079 12.0417 11.8246 12.0417C12.1496 12.0417 12.4079 12.3083 12.4079 12.625V15.375Z" fill="white"/>
</svg>
