<svg width="20" height="20" viewBox="0 0 20 20" fill="none" xmlns="http://www.w3.org/2000/svg">
<path d="M18.3337 15.8333V18.3333H1.66699V15.8333C1.66699 15.375 2.04199 15 2.50033 15H17.5003C17.9587 15 18.3337 15.375 18.3337 15.8333Z" fill="white" stroke="white" stroke-width="1.5" stroke-miterlimit="10" stroke-linecap="round" stroke-linejoin="round"/>
<path d="M5.83366 9.16797H4.16699V15.0013H5.83366V9.16797Z" fill="white"/>
<path d="M9.16667 9.16797H7.5V15.0013H9.16667V9.16797Z" fill="white"/>
<path d="M12.4997 9.16797H10.833V15.0013H12.4997V9.16797Z" fill="white"/>
<path d="M15.8337 9.16797H14.167V15.0013H15.8337V9.16797Z" fill="white"/>
<path d="M19.1663 18.957H0.833008C0.491341 18.957 0.208008 18.6737 0.208008 18.332C0.208008 17.9904 0.491341 17.707 0.833008 17.707H19.1663C19.508 17.707 19.7913 17.9904 19.7913 18.332C19.7913 18.6737 19.508 18.957 19.1663 18.957Z" fill="white"/>
<path d="M17.8087 4.79219L10.3087 1.79219C10.142 1.72552 9.85866 1.72552 9.69199 1.79219L2.19199 4.79219C1.90033 4.90885 1.66699 5.25052 1.66699 5.56719V8.33385C1.66699 8.79215 2.04199 9.16715 2.50033 9.16715H17.5003C17.9587 9.16715 18.3337 8.79215 18.3337 8.33385V5.56719C18.3337 5.25052 18.1003 4.90885 17.8087 4.79219ZM10.0003 7.08385C9.30866 7.08385 8.75033 6.52552 8.75033 5.83385C8.75033 5.14219 9.30866 4.58385 10.0003 4.58385C10.692 4.58385 11.2503 5.14219 11.2503 5.83385C11.2503 6.52552 10.692 7.08385 10.0003 7.08385Z" fill="white"/>
</svg>
