<svg width="20" height="20" viewBox="0 0 20 20" fill="none" xmlns="http://www.w3.org/2000/svg">
<path d="M14.167 2.91797H5.83366C3.33366 2.91797 1.66699 4.16797 1.66699 7.08464V12.918C1.66699 15.8346 3.33366 17.0846 5.83366 17.0846H14.167C16.667 17.0846 18.3337 15.8346 18.3337 12.918V7.08464C18.3337 4.16797 16.667 2.91797 14.167 2.91797ZM5.62533 13.3346C5.62533 13.6763 5.34199 13.9596 5.00033 13.9596C4.65866 13.9596 4.37533 13.6763 4.37533 13.3346V6.66797C4.37533 6.3263 4.65866 6.04297 5.00033 6.04297C5.34199 6.04297 5.62533 6.3263 5.62533 6.66797V13.3346ZM8.12533 13.3346C8.12533 13.6763 7.84199 13.9596 7.50033 13.9596C7.15866 13.9596 6.87533 13.6763 6.87533 13.3346V12.5013C6.87533 12.1596 7.15866 11.8763 7.50033 11.8763C7.84199 11.8763 8.12533 12.1596 8.12533 12.5013V13.3346ZM8.12533 10.0013C8.12533 10.343 7.84199 10.6263 7.50033 10.6263C7.15866 10.6263 6.87533 10.343 6.87533 10.0013V6.66797C6.87533 6.3263 7.15866 6.04297 7.50033 6.04297C7.84199 6.04297 8.12533 6.3263 8.12533 6.66797V10.0013ZM10.6253 13.3346C10.6253 13.6763 10.342 13.9596 10.0003 13.9596C9.65866 13.9596 9.37533 13.6763 9.37533 13.3346V6.66797C9.37533 6.3263 9.65866 6.04297 10.0003 6.04297C10.342 6.04297 10.6253 6.3263 10.6253 6.66797V13.3346ZM13.1253 13.3346C13.1253 13.6763 12.842 13.9596 12.5003 13.9596C12.1587 13.9596 11.8753 13.6763 11.8753 13.3346V10.0013C11.8753 9.65964 12.1587 9.3763 12.5003 9.3763C12.842 9.3763 13.1253 9.65964 13.1253 10.0013V13.3346ZM13.1253 7.5013C13.1253 7.84297 12.842 8.1263 12.5003 8.1263C12.1587 8.1263 11.8753 7.84297 11.8753 7.5013V6.66797C11.8753 6.3263 12.1587 6.04297 12.5003 6.04297C12.842 6.04297 13.1253 6.3263 13.1253 6.66797V7.5013ZM15.6253 13.3346C15.6253 13.6763 15.342 13.9596 15.0003 13.9596C14.6587 13.9596 14.3753 13.6763 14.3753 13.3346V6.66797C14.3753 6.3263 14.6587 6.04297 15.0003 6.04297C15.342 6.04297 15.6253 6.3263 15.6253 6.66797V13.3346Z" fill="white"/>
</svg>
