<svg width="20" height="20" viewBox="0 0 20 20" fill="none" xmlns="http://www.w3.org/2000/svg">
<path d="M10.7753 3.99219H6.12533C2.70866 3.99219 1.66699 5.03385 1.66699 8.45055V11.5506C1.66699 14.9672 2.70866 16.0089 6.12533 16.0089H10.7753C14.192 16.0089 15.2337 14.9672 15.2337 11.5506V8.45055C15.2337 5.03385 14.192 3.99219 10.7753 3.99219Z" fill="white"/>
<path d="M17.0167 7.50104C16.9 7.49271 16.75 7.48438 16.5833 7.48438C16.2583 7.48438 16 7.74271 16 8.06771V11.9427C16 12.2677 16.2583 12.5261 16.5833 12.5261C16.75 12.5261 16.8917 12.5177 17.0333 12.5094C18.3333 12.3594 18.3333 11.4427 18.3333 10.7761V9.22607C18.3333 8.5594 18.3333 7.64271 17.0167 7.50104Z" fill="white"/>
</svg>
