<svg width="20" height="20" viewBox="0 0 20 20" fill="none" xmlns="http://www.w3.org/2000/svg">
<path d="M17.0167 7.50104C16.9 7.49271 16.75 7.48438 16.5833 7.48438C16.2583 7.48438 16 7.74271 16 8.06771V11.9427C16 12.2677 16.2583 12.5261 16.5833 12.5261C16.75 12.5261 16.8917 12.5177 17.0333 12.5094C18.3333 12.3594 18.3333 11.4427 18.3333 10.7761V9.22607C18.3333 8.5594 18.3333 7.64271 17.0167 7.50104Z" fill="white"/>
<path d="M15.2335 8.44977V11.5498C15.2335 14.0081 13.2335 16.0081 10.7752 16.0081H7.71684C7.0585 16.0081 6.6585 15.2831 7.0085 14.7331L13.0585 5.16643C13.3585 4.69143 14.0335 4.64977 14.4085 5.07477C15.0085 5.76643 15.2335 6.84143 15.2335 8.44977Z" fill="white"/>
<path d="M13.667 1.55798C13.3753 1.37465 12.992 1.45798 12.8087 1.74965L11.3837 4.00798C11.192 3.99965 10.992 3.99132 10.7753 3.99132H6.12533C2.70866 3.99132 1.66699 5.03298 1.66699 8.44968V11.5497C1.66699 14.0913 2.25033 15.308 3.95033 15.7663L2.80866 17.583C2.62533 17.8747 2.70866 18.258 3.00033 18.4413C3.10033 18.508 3.21699 18.5413 3.33366 18.5413C3.54199 18.5413 3.74199 18.4413 3.85866 18.2497L13.8587 2.41632C14.0503 2.12465 13.9587 1.74132 13.667 1.55798Z" fill="white"/>
</svg>
