<svg width="20" height="20" viewBox="0 0 20 20" fill="none" xmlns="http://www.w3.org/2000/svg">
<path d="M17.0167 7.50104C16.9 7.49271 16.75 7.48438 16.5833 7.48438C16.2583 7.48438 16 7.74271 16 8.06771V11.9427C16 12.2677 16.2583 12.5261 16.5833 12.5261C16.75 12.5261 16.8917 12.5177 17.0333 12.5094C18.3333 12.3594 18.3333 11.4427 18.3333 10.7761V9.22607C18.3333 8.5594 18.3333 7.64271 17.0167 7.50104Z" fill="white"/>
<path d="M10.7753 3.99219H6.12533C2.70866 3.99219 1.66699 5.03385 1.66699 8.45055V11.5506C1.66699 14.9672 2.70866 16.0089 6.12533 16.0089H10.7753C14.192 16.0089 15.2337 14.9672 15.2337 11.5506V8.45055C15.2337 5.03385 14.192 3.99219 10.7753 3.99219ZM5.91699 11.8172C5.85033 12.1006 5.59199 12.2922 5.30866 12.2922C5.25866 12.2922 5.20866 12.2839 5.15866 12.2756C4.82533 12.1922 4.61699 11.8506 4.70033 11.5172C4.95033 10.5256 4.95033 9.47555 4.70033 8.48389C4.61699 8.15052 4.81699 7.80885 5.15866 7.72552C5.50033 7.64219 5.83366 7.85052 5.91699 8.18385C6.21699 9.37555 6.21699 10.6256 5.91699 11.8172ZM8.83366 11.8172C8.76699 12.1006 8.50866 12.2922 8.22533 12.2922C8.17533 12.2922 8.12533 12.2839 8.07533 12.2756C7.74199 12.1922 7.53366 11.8506 7.61699 11.5172C7.86699 10.5256 7.86699 9.47555 7.61699 8.48389C7.53366 8.15052 7.73366 7.80885 8.07533 7.72552C8.40866 7.64219 8.75033 7.84219 8.83366 8.18385C9.13366 9.37555 9.13366 10.6256 8.83366 11.8172ZM11.7503 11.8172C11.6837 12.1006 11.4253 12.2922 11.142 12.2922C11.092 12.2922 11.042 12.2839 10.992 12.2756C10.6587 12.1922 10.4503 11.8506 10.5337 11.5172C10.7837 10.5256 10.7837 9.47555 10.5337 8.48389C10.4503 8.15052 10.6503 7.80885 10.992 7.72552C11.3253 7.64219 11.667 7.84219 11.7503 8.18385C12.0503 9.37555 12.0503 10.6256 11.7503 11.8172Z" fill="white"/>
</svg>
