<svg width="20" height="20" viewBox="0 0 20 20" fill="none" xmlns="http://www.w3.org/2000/svg">
<path d="M17.0167 7.50104C16.9 7.49271 16.75 7.48438 16.5833 7.48438C16.2583 7.48438 16 7.74271 16 8.06771V11.9427C16 12.2677 16.2583 12.5261 16.5833 12.5261C16.75 12.5261 16.8917 12.5177 17.0333 12.5094C18.3333 12.3594 18.3333 11.4427 18.3333 10.7761V9.22607C18.3333 8.5594 18.3333 7.64271 17.0167 7.50104Z" fill="white"/>
<path d="M10.7753 3.99219H6.12533C2.70866 3.99219 1.66699 5.03385 1.66699 8.45055V11.5506C1.66699 14.9672 2.70866 16.0089 6.12533 16.0089H10.7753C14.192 16.0089 15.2337 14.9672 15.2337 11.5506V8.45055C15.2337 5.03385 14.192 3.99219 10.7753 3.99219ZM10.442 11.4006C10.4253 11.4339 10.4003 11.4672 10.3753 11.4922L8.81699 13.3172C8.69199 13.4589 8.51699 13.5339 8.34199 13.5339C8.20033 13.5339 8.05033 13.4839 7.93366 13.3839C7.67533 13.1589 7.64199 12.7672 7.86699 12.5006L9.36699 10.7422C9.37533 10.7172 9.36699 10.6922 9.35033 10.6672C9.33366 10.6339 9.30033 10.6172 9.25866 10.6172H7.60033C7.10866 10.6172 6.67533 10.3672 6.42533 9.94222C6.18366 9.51722 6.18366 9.01722 6.42533 8.59222L7.85033 6.70885C8.05866 6.43385 8.45033 6.37552 8.72533 6.58385C9.00033 6.79219 9.05866 7.18385 8.85033 7.45885L7.47533 9.28389C7.50033 9.25055 7.50033 9.28389 7.51699 9.32555C7.53366 9.35889 7.56699 9.37555 7.60866 9.37555H9.28366C9.77533 9.37555 10.2087 9.62555 10.4587 10.0506C10.6837 10.4756 10.6837 10.9756 10.442 11.4006Z" fill="white"/>
</svg>
