<svg width="20" height="20" viewBox="0 0 20 20" fill="none" xmlns="http://www.w3.org/2000/svg">
<path d="M7.50033 15.625H2.50033C1.70033 15.625 1.04199 14.9667 1.04199 14.1667V5.83333C1.04199 5.03333 1.70033 4.375 2.50033 4.375H6.66699C8.39199 4.375 9.79199 5.775 9.79199 7.5C9.79199 8.35833 9.44199 9.13333 8.88366 9.7C9.91699 10.2083 10.6253 11.275 10.6253 12.5C10.6253 14.225 9.22533 15.625 7.50033 15.625ZM2.29199 10.625V14.1667C2.29199 14.2833 2.38366 14.375 2.50033 14.375H7.50033C8.53366 14.375 9.37533 13.5333 9.37533 12.5C9.37533 11.4667 8.53366 10.625 7.50033 10.625H2.29199ZM2.29199 9.375H6.66699C7.70033 9.375 8.54199 8.53333 8.54199 7.5C8.54199 6.46667 7.70033 5.625 6.66699 5.625H2.50033C2.38366 5.625 2.29199 5.71667 2.29199 5.83333V9.375Z" fill="white"/>
<path d="M16.392 15.6237H15.0003C12.817 15.6237 11.042 13.8487 11.042 11.6654C11.042 9.48203 12.817 7.70703 15.0003 7.70703C17.1837 7.70703 18.9587 9.48203 18.9587 11.6654C18.9587 12.007 18.6753 12.2904 18.3337 12.2904H12.367C12.6503 13.482 13.7253 14.3737 15.0003 14.3737H16.392C16.7337 14.3737 17.017 14.657 17.017 14.9987C17.017 15.3404 16.7337 15.6237 16.392 15.6237ZM12.367 11.0404H17.642C17.3587 9.8487 16.2837 8.95703 15.0087 8.95703C13.7337 8.95703 12.6503 9.8487 12.367 11.0404Z" fill="white"/>
<path d="M16.25 6.875H13.75C13.4083 6.875 13.125 6.59167 13.125 6.25C13.125 5.90833 13.4083 5.625 13.75 5.625H16.25C16.5917 5.625 16.875 5.90833 16.875 6.25C16.875 6.59167 16.5917 6.875 16.25 6.875Z" fill="white"/>
</svg>
