<svg width="20" height="20" viewBox="0 0 20 20" fill="none" xmlns="http://www.w3.org/2000/svg">
<path d="M15.9497 6.43203C16.1913 7.05703 16.7913 7.4987 17.4997 7.4987C18.4163 7.4987 19.1663 6.7487 19.1663 5.83203C19.1663 4.91536 18.4163 4.16536 17.4997 4.16536C16.7913 4.16536 16.1913 4.60703 15.9497 5.23203C15.908 5.2237 15.8747 5.20703 15.833 5.20703H12.4997V4.58203C12.4997 3.8987 11.933 3.33203 11.2497 3.33203H8.74967C8.06634 3.33203 7.49967 3.8987 7.49967 4.58203V5.20703H4.16634C4.12467 5.20703 4.09134 5.2237 4.04967 5.23203C3.80801 4.60703 3.20801 4.16536 2.49967 4.16536C1.58301 4.16536 0.833008 4.91536 0.833008 5.83203C0.833008 6.7487 1.58301 7.4987 2.49967 7.4987C3.20801 7.4987 3.80801 7.05703 4.04967 6.43203C4.09134 6.44036 4.12467 6.45703 4.16634 6.45703H6.30801C4.59967 7.7237 3.54134 9.8237 3.54134 12.082C3.54134 12.2237 3.54967 12.357 3.56634 12.4987H3.33301C2.64134 12.4987 2.08301 13.057 2.08301 13.7487V15.4154C2.08301 16.107 2.64134 16.6654 3.33301 16.6654H4.99967C5.18301 16.6654 5.34967 16.6237 5.50801 16.5487C5.94134 16.3654 6.24967 15.9237 6.24967 15.4154V13.7487C6.24967 13.057 5.69134 12.4987 4.99967 12.4987H4.80801C4.80801 12.4737 4.81634 12.4487 4.81634 12.4237C4.79967 12.307 4.79967 12.1987 4.79967 12.082C4.79967 10.0237 5.85801 8.14036 7.51634 7.16536C7.54968 7.80703 8.09134 8.33203 8.74967 8.33203H11.2497C11.908 8.33203 12.4497 7.80703 12.4913 7.16536C14.1497 8.14036 15.208 10.032 15.208 12.082C15.208 12.1987 15.1997 12.307 15.1913 12.4237C15.1913 12.4487 15.1997 12.4737 15.1997 12.4987H14.9997C14.308 12.4987 13.7497 13.057 13.7497 13.7487V15.4154C13.7497 15.9237 14.058 16.3654 14.4913 16.5487C14.6497 16.6237 14.8163 16.6654 14.9997 16.6654H16.6663C17.358 16.6654 17.9163 16.107 17.9163 15.4154V13.7487C17.9163 13.057 17.358 12.4987 16.6663 12.4987H16.433C16.4497 12.357 16.458 12.2237 16.458 12.082C16.458 9.8237 15.3997 7.7237 13.6913 6.45703H15.833C15.8747 6.45703 15.908 6.44036 15.9497 6.43203Z" fill="white"/>
</svg>
