<svg width="20" height="20" viewBox="0 0 20 20" fill="none" xmlns="http://www.w3.org/2000/svg">
<path d="M18.3337 2.70703H1.66699C1.32533 2.70703 1.04199 2.4237 1.04199 2.08203C1.04199 1.74036 1.32533 1.45703 1.66699 1.45703H18.3337C18.6753 1.45703 18.9587 1.74036 18.9587 2.08203C18.9587 2.4237 18.6753 2.70703 18.3337 2.70703Z" fill="white"/>
<path d="M3.05859 2.08203V12.057C3.05859 12.8737 3.44193 13.6487 4.10026 14.1404L8.44191 17.3904C9.36691 18.082 10.6419 18.082 11.5669 17.3904L15.9086 14.1404C16.5669 13.6487 16.9502 12.8737 16.9502 12.057V2.08203H3.05859ZM13.3336 11.457H6.66693C6.32526 11.457 6.04193 11.1737 6.04193 10.832C6.04193 10.4904 6.32526 10.207 6.66693 10.207H13.3336C13.6752 10.207 13.9586 10.4904 13.9586 10.832C13.9586 11.1737 13.6752 11.457 13.3336 11.457ZM13.3336 7.29036H6.66693C6.32526 7.29036 6.04193 7.00703 6.04193 6.66536C6.04193 6.3237 6.32526 6.04036 6.66693 6.04036H13.3336C13.6752 6.04036 13.9586 6.3237 13.9586 6.66536C13.9586 7.00703 13.6752 7.29036 13.3336 7.29036Z" fill="white"/>
</svg>
