<svg width="20" height="20" viewBox="0 0 20 20" fill="none" xmlns="http://www.w3.org/2000/svg">
<path d="M9.49967 1.95859L5.20801 6.25026C5.04134 6.41693 5.04134 6.67526 5.20801 6.84193L6.64968 8.28359C6.81635 8.45024 7.07467 8.45024 7.24134 8.28359L11.533 3.99193C11.6997 3.82526 11.6997 3.56693 11.533 3.40026L10.0913 1.95859C9.92467 1.80026 9.66634 1.80026 9.49967 1.95859Z" fill="white"/>
<path d="M12.7497 5.21484L5.20801 12.7565C5.04134 12.9232 5.04134 13.1815 5.20801 13.3482L6.64968 14.7899C6.81635 14.9565 7.07467 14.9565 7.24134 14.7899L14.783 7.24817C14.9497 7.0815 14.9497 6.82317 14.783 6.6565L13.3413 5.21484C13.183 5.04818 12.9163 5.04818 12.7497 5.21484Z" fill="white"/>
<path d="M16.0085 8.46486L8.46682 16.0065C8.30012 16.1732 8.30012 16.4315 8.46682 16.5982L9.90848 18.0399C10.0751 18.2065 10.3335 18.2065 10.5001 18.0399L18.0418 10.4982C18.2085 10.3315 18.2085 10.0732 18.0418 9.90653L16.6001 8.46486C16.4335 8.29817 16.1668 8.29817 16.0085 8.46486Z" fill="white"/>
<path d="M3.40847 11.5336L1.9668 10.0919C1.80013 9.92524 1.80013 9.6669 1.9668 9.50024L3.40847 8.05859C3.57514 7.89193 3.83346 7.89193 4.00013 8.05859L5.44181 9.50024C5.60847 9.6669 5.60847 9.92524 5.44181 10.0919L4.00013 11.5336C3.83346 11.7002 3.56681 11.7002 3.40847 11.5336Z" fill="white"/>
</svg>
