<svg width="20" height="20" viewBox="0 0 20 20" fill="none" xmlns="http://www.w3.org/2000/svg">
<path d="M9.70817 1.95859L5.2998 6.36693C5.13314 6.53359 5.13314 6.79193 5.2998 6.95859L6.3748 8.03359C6.54146 8.20026 6.7998 8.20026 6.96647 8.03359L9.70817 5.29193C9.87484 5.12526 10.1332 5.12526 10.2998 5.29193L13.0415 8.03359C13.2082 8.20026 13.4665 8.20026 13.6332 8.03359L14.7082 6.95859C14.8748 6.79193 14.8748 6.53359 14.7082 6.36693L10.2998 1.95859C10.1332 1.80026 9.8665 1.80026 9.70817 1.95859Z" fill="white"/>
<path d="M9.70817 18.0437L5.2998 13.6354C5.13314 13.4688 5.13314 13.2104 5.2998 13.0437L6.3748 11.9688C6.54146 11.8021 6.7998 11.8021 6.96647 11.9688L9.70817 14.7104C9.87484 14.8771 10.1332 14.8771 10.2998 14.7104L13.0415 11.9688C13.2082 11.8021 13.4665 11.8021 13.6332 11.9688L14.7082 13.0437C14.8748 13.2104 14.8748 13.4688 14.7082 13.6354L10.2998 18.0437C10.1332 18.2021 9.8665 18.2021 9.70817 18.0437Z" fill="white"/>
<path d="M16.75 8.41561L18.0333 9.69894C18.2 9.86561 18.2 10.1239 18.0333 10.2906L16.75 11.5739C16.5833 11.7406 16.325 11.7406 16.1583 11.5739L14.875 10.2906C14.7083 10.1239 14.7083 9.86561 14.875 9.69894L16.1583 8.41561C16.325 8.2573 16.5917 8.2573 16.75 8.41561Z" fill="white"/>
<path d="M3.83398 8.41561L5.11731 9.69894C5.28398 9.86561 5.28398 10.1239 5.11731 10.2906L3.83398 11.5739C3.66732 11.7406 3.40898 11.7406 3.24231 11.5739L1.95898 10.2906C1.79232 10.1239 1.79232 9.86561 1.95898 9.69894L3.24231 8.41561C3.40898 8.2573 3.67565 8.2573 3.83398 8.41561Z" fill="white"/>
<path d="M10.2922 8.23438L11.7672 9.7094C11.9339 9.87607 11.9339 10.1344 11.7672 10.3011L10.2922 11.7761C10.1256 11.9427 9.86724 11.9427 9.70058 11.7761L8.22559 10.3011C8.05892 10.1344 8.05892 9.87607 8.22559 9.7094L9.70058 8.23438C9.86724 8.06771 10.1339 8.06771 10.2922 8.23438Z" fill="white"/>
</svg>
