<svg width="20" height="20" viewBox="0 0 20 20" fill="none" xmlns="http://www.w3.org/2000/svg">
<path d="M12.4747 10.625H11.8331H7.94141V12.9833H9.03308H12.4747C13.2664 12.9833 13.9164 12.45 13.9164 11.8C13.9164 11.15 13.2664 10.625 12.4747 10.625Z" fill="white"/>
<path d="M10.0003 1.66797C5.40033 1.66797 1.66699 5.4013 1.66699 10.0013C1.66699 14.6013 5.40033 18.3346 10.0003 18.3346C14.6003 18.3346 18.3337 14.6013 18.3337 10.0013C18.3337 5.4013 14.6003 1.66797 10.0003 1.66797ZM12.4753 14.2346H11.1003V15.418C11.1003 15.7596 10.817 16.043 10.4753 16.043C10.1337 16.043 9.85033 15.7596 9.85033 15.418V14.2346H9.03366H8.84199V15.418C8.84199 15.7596 8.55866 16.043 8.21699 16.043C7.87533 16.043 7.59199 15.7596 7.59199 15.418V14.2346H7.31699H5.87533C5.53366 14.2346 5.25033 13.9513 5.25033 13.6096C5.25033 13.268 5.53366 12.9846 5.87533 12.9846H6.69199V10.0013V7.01797H5.87533C5.53366 7.01797 5.25033 6.73464 5.25033 6.39297C5.25033 6.0513 5.53366 5.76797 5.87533 5.76797H7.31699H7.59199V4.58464C7.59199 4.24297 7.87533 3.95964 8.21699 3.95964C8.55866 3.95964 8.84199 4.24297 8.84199 4.58464V5.76797H9.03366H9.85033V4.58464C9.85033 4.24297 10.1337 3.95964 10.4753 3.95964C10.817 3.95964 11.1003 4.24297 11.1003 4.58464V5.76797H11.8337C13.1253 5.76797 14.267 6.9013 14.267 8.2013C14.267 8.75964 14.067 9.26797 13.7503 9.68464C14.592 10.093 15.167 10.893 15.167 11.818C15.167 13.143 13.9587 14.2346 12.4753 14.2346Z" fill="white"/>
<path d="M13.0164 8.19115C13.0164 7.64115 12.4997 7.00781 11.8331 7.00781H9.03308H7.94141V9.36618H11.8331C12.4831 9.37451 13.0164 8.84118 13.0164 8.19115Z" fill="white"/>
</svg>
