<svg width="20" height="20" viewBox="0 0 20 20" fill="none" xmlns="http://www.w3.org/2000/svg">
<path d="M19.6083 10.0435C19.3667 9.8018 18.9667 9.8018 18.725 10.0435L18.3417 10.4268V10.0018C18.3417 5.40182 14.6 1.66016 10 1.66016C7.45838 1.66016 5.08338 2.80182 3.49171 4.78516C3.27504 5.05182 3.3167 5.45182 3.59171 5.66849C3.85838 5.87682 4.25004 5.83516 4.46671 5.56849C5.82504 3.87682 7.84171 2.91016 10 2.91016C13.9083 2.91016 17.0917 6.09349 17.0917 10.0018V10.4185L16.7083 10.0351C16.4667 9.79346 16.0667 9.79346 15.825 10.0351C15.5833 10.2768 15.5833 10.6768 15.825 10.9185L17.275 12.3685C17.3333 12.4268 17.4 12.4685 17.475 12.5018C17.55 12.5351 17.6333 12.5518 17.7167 12.5518C17.8 12.5518 17.875 12.5351 17.9583 12.5018C18.0333 12.4685 18.1 12.4268 18.1583 12.3685L19.6083 10.9185C19.85 10.6851 19.85 10.2851 19.6083 10.0435Z" fill="white"/>
<path d="M16.4088 14.3331C16.1422 14.1164 15.7422 14.1581 15.5338 14.4331C14.1755 16.1247 12.1588 17.0914 10.0005 17.0914C6.09219 17.0914 2.90885 13.9081 2.90885 9.99975V9.58308L3.29219 9.96641C3.41719 10.0914 3.57552 10.1497 3.73385 10.1497C3.89219 10.1497 4.05052 10.0831 4.16719 9.95808C4.40885 9.71641 4.40885 9.31641 4.16719 9.07475L2.72552 7.62474C2.66719 7.57474 2.59219 7.52474 2.51719 7.49141C2.36719 7.42474 2.19219 7.42474 2.04219 7.49141C1.96719 7.52474 1.90052 7.57474 1.84219 7.62474L0.392188 9.07475C0.150521 9.31641 0.150521 9.71641 0.392188 9.95808C0.633854 10.1997 1.03385 10.1997 1.27552 9.95808L1.65885 9.57475V9.99975C1.65885 14.5997 5.40052 18.3414 10.0005 18.3414C12.5422 18.3414 14.9172 17.1997 16.5088 15.2164C16.7255 14.9497 16.6838 14.5497 16.4088 14.3331Z" fill="white"/>
<path d="M12.875 9.7C13.1 9.36667 13.225 8.975 13.225 8.54167C13.225 7.43333 12.25 6.45833 11.1417 6.45833H10.4583V5.625C10.4583 5.28333 10.175 5 9.83333 5C9.49167 5 9.20833 5.28333 9.20833 5.625V6.45833H7.5C7.15833 6.45833 6.875 6.74167 6.875 7.08333V10V12.9167C6.875 13.2583 7.15833 13.5417 7.5 13.5417H9.20833V14.375C9.20833 14.7167 9.49167 15 9.83333 15C10.175 15 10.4583 14.7167 10.4583 14.375V13.5417H11.6667C12.9333 13.5417 13.9583 12.6083 13.9583 11.4583C13.9583 10.7167 13.525 10.0667 12.875 9.7ZM8.125 7.70833H11.1417C11.6 7.70833 11.975 8.16667 11.975 8.54167C11.975 9 11.6 9.375 11.1417 9.375H8.125V7.70833ZM11.6667 12.2917H8.125V10.625H11.1417H11.6667C12.2417 10.625 12.7083 11 12.7083 11.4583C12.7083 11.9167 12.2417 12.2917 11.6667 12.2917Z" fill="white"/>
</svg>
