<svg width="20" height="20" viewBox="0 0 20 20" fill="none" xmlns="http://www.w3.org/2000/svg">
<path d="M14.483 8.95964C14.483 8.7763 14.283 8.54297 14.0663 8.54297H12.4497H12.083V9.3763H14.0663C14.2913 9.3763 14.483 9.19297 14.483 8.95964Z" fill="white"/>
<path d="M14.433 10.625H14.058H12.083V11.4583H12.4497H14.433C14.7413 11.4583 14.9997 11.2667 14.9997 11.0417C14.9997 10.8167 14.7413 10.625 14.433 10.625Z" fill="white"/>
<path d="M14.8753 2.83203H5.12533C3.21699 2.83203 1.66699 4.3737 1.66699 6.28203V13.7154C1.66699 15.6237 3.21699 17.1654 5.12533 17.1654H14.8753C16.7837 17.1654 18.3337 15.6237 18.3337 13.7154V6.28203C18.3337 4.3737 16.7837 2.83203 14.8753 2.83203ZM7.70866 10.6237H4.37533C4.03366 10.6237 3.75033 10.3404 3.75033 9.99871C3.75033 9.65704 4.03366 9.37371 4.37533 9.37371H7.70866C8.05033 9.37371 8.33366 9.65704 8.33366 9.99871C8.33366 10.3404 8.05033 10.6237 7.70866 10.6237ZM14.4337 12.707H13.5503V13.1237C13.5503 13.4654 13.267 13.7487 12.9253 13.7487C12.5837 13.7487 12.3003 13.4654 12.3003 13.1237V12.707H11.4587H10.6253C10.2837 12.707 10.0003 12.4237 10.0003 12.082C10.0003 11.7404 10.2837 11.457 10.6253 11.457H10.8337V9.99871V8.54037H10.6253C10.2837 8.54037 10.0003 8.25703 10.0003 7.91536C10.0003 7.5737 10.2837 7.29036 10.6253 7.29036H11.4587H12.3003V6.8737C12.3003 6.53203 12.5837 6.2487 12.9253 6.2487C13.267 6.2487 13.5503 6.53203 13.5503 6.8737V7.29036H14.0587C14.9503 7.29036 15.7253 8.06536 15.7253 8.95704C15.7253 9.23204 15.6503 9.49037 15.5337 9.72371C15.967 10.032 16.2503 10.507 16.2503 11.0404C16.2503 11.957 15.4337 12.707 14.4337 12.707Z" fill="white"/>
</svg>
