<svg width="20" height="20" viewBox="0 0 20 20" fill="none" xmlns="http://www.w3.org/2000/svg">
<g clip-path="url(#clip0_10_9937)">
<path d="M19.1667 12.6836C18.825 12.6836 18.5417 12.9669 18.5417 13.3086C18.5417 15.7753 16.825 17.8419 14.5167 18.3836L14.7417 18.0086C14.9167 17.7086 14.825 17.3253 14.525 17.1503C14.2334 16.9753 13.8417 17.0669 13.6667 17.3669L12.7917 18.8253C12.675 19.0169 12.675 19.2586 12.7834 19.4503C12.8917 19.6503 13.1 19.7669 13.325 19.7669C16.8834 19.7669 19.7834 16.8669 19.7834 13.3086C19.7917 12.9669 19.5084 12.6836 19.1667 12.6836Z" fill="white"/>
<path d="M6.66634 0.183594C3.10801 0.183594 0.208008 3.08359 0.208008 6.64192C0.208008 6.98359 0.491341 7.26693 0.833008 7.26693C1.17467 7.26693 1.45801 6.98359 1.45801 6.64192C1.45801 4.17526 3.17467 2.10859 5.48301 1.56692L5.25801 1.94192C5.08301 2.24192 5.17467 2.62526 5.47467 2.80026C5.76634 2.97526 6.15801 2.88359 6.33301 2.58359L7.20801 1.12526C7.31634 0.933591 7.32467 0.70026 7.20801 0.50026C7.09967 0.308594 6.89134 0.183594 6.66634 0.183594Z" fill="white"/>
<path d="M17.9168 7.2237C17.9168 9.79036 16.0502 11.907 13.6085 12.2987C13.6085 12.2904 13.6085 12.2904 13.6085 12.282C13.3668 9.1737 10.8502 6.64036 7.7002 6.39036C8.09186 3.9487 10.2085 2.08203 12.7752 2.08203C15.6168 2.08203 17.9168 4.38203 17.9168 7.2237Z" fill="white"/>
<path d="M8.17493 11.8323C8.17493 11.7073 8.03327 11.5156 7.85827 11.5156H6.1416V12.1406H7.85827C8.03327 12.149 8.17493 12.0073 8.17493 11.8323Z" fill="white"/>
<path d="M8.1916 13.3984H7.85827H6.1416V14.0234H8.19994C8.46659 14.0234 8.64992 13.8568 8.64992 13.7068C8.64992 13.5568 8.45825 13.3984 8.1916 13.3984Z" fill="white"/>
<path d="M12.358 12.375C12.1663 9.85001 10.1497 7.83333 7.62467 7.64167C7.49134 7.63333 7.36634 7.625 7.22467 7.625C4.38301 7.625 2.08301 9.92501 2.08301 12.775C2.08301 15.6167 4.38301 17.9167 7.22467 17.9167C10.0663 17.9167 12.3747 15.6167 12.3747 12.775C12.3747 12.6333 12.3663 12.5083 12.358 12.375ZM8.19134 15.275H7.64134V15.5917C7.64134 15.9333 7.35801 16.2167 7.01634 16.2167C6.67467 16.2167 6.39134 15.9333 6.39134 15.5917V15.275H5.51634C5.17467 15.275 4.89134 14.9917 4.89134 14.65V12.775V10.9C4.89134 10.5583 5.17467 10.275 5.51634 10.275H6.39134V9.95834C6.39134 9.61668 6.67467 9.33334 7.01634 9.33334C7.35801 9.33334 7.64134 9.61668 7.64134 9.95834V10.275H7.85801C8.69134 10.275 9.42467 11.0083 9.42467 11.8417C9.42467 12.0833 9.36634 12.3083 9.26634 12.5167C9.64967 12.8 9.89134 13.2333 9.89134 13.7167C9.89134 14.575 9.13301 15.275 8.19134 15.275Z" fill="white"/>
</g>
<defs>
<clipPath id="clip0_10_9937">
<rect width="20" height="20" fill="white"/>
</clipPath>
</defs>
</svg>
