<svg width="20" height="20" viewBox="0 0 20 20" fill="none" xmlns="http://www.w3.org/2000/svg">
<path d="M18.3082 10C18.3082 12.7583 16.0666 15 13.3082 15C12.6878 15 12.091 14.8869 11.5425 14.6784C11.2769 14.5774 11.2274 14.2376 11.4123 14.0218C12.3639 12.9115 12.8916 11.4883 12.8916 10C12.8916 8.50683 12.3592 7.0786 11.4148 5.97889C11.2293 5.76286 11.2784 5.42184 11.5446 5.32078C12.0926 5.11281 12.6886 5 13.3082 5C16.0666 5 18.3082 7.24167 18.3082 10Z" fill="white"/>
<path d="M11.6416 10C11.6416 11.475 10.9999 12.8083 9.97491 13.7167C9.09158 14.5167 7.92493 15 6.6416 15C3.88327 15 1.6416 12.7583 1.6416 10C1.6416 7.24167 3.88327 5 6.6416 5C7.92493 5 9.09158 5.48333 9.97491 6.28333C10.9999 7.19167 11.6416 8.525 11.6416 10Z" fill="white"/>
</svg>
