<svg width="20" height="20" viewBox="0 0 20 20" fill="none" xmlns="http://www.w3.org/2000/svg">
<path d="M13.2499 6.7263C12.8749 3.86797 10.4332 1.66797 7.47494 1.66797C4.24994 1.66797 1.6416 4.2763 1.6416 7.5013C1.6416 10.4596 3.8416 12.9013 6.69993 13.2763C6.94993 13.318 7.20827 13.3346 7.47494 13.3346C7.57191 13.3346 7.66763 13.3321 7.76258 13.3271C7.94623 13.3174 8.02164 13.098 7.8916 12.968C7.64994 12.718 7.64994 12.3263 7.8916 12.0846C8.13327 11.8346 8.53324 11.8346 8.77491 12.0846L9.42449 12.7342C9.54124 12.851 9.71658 12.8891 9.86741 12.8219C10.1861 12.6801 10.4877 12.5099 10.7719 12.3132C10.9754 12.1724 10.9883 11.8831 10.8124 11.7091L10.3916 11.293C10.1499 11.0513 10.1416 10.6596 10.3916 10.4096C10.6332 10.168 11.0249 10.1596 11.2749 10.4013L11.6987 10.8204C11.8736 10.9933 12.1607 10.9786 12.3007 10.7765C12.493 10.4987 12.6603 10.2039 12.7978 9.89214C12.864 9.74214 12.8254 9.56847 12.7095 9.45255L12.0582 8.8013C11.8166 8.5513 11.8166 8.15964 12.0582 7.91797C12.2999 7.66797 12.6999 7.66797 12.9416 7.91797C13.0717 8.048 13.2911 7.9726 13.3007 7.78896C13.3057 7.694 13.3082 7.59828 13.3082 7.5013C13.3082 7.23464 13.2916 6.9763 13.2499 6.7263Z" fill="white"/>
<path d="M18.308 12.4986C18.308 15.7236 15.6996 18.3319 12.4746 18.3319C10.0328 18.3319 7.93769 16.8319 7.07591 14.6926C6.97157 14.4335 7.19533 14.1652 7.4746 14.1652C7.76626 14.1652 8.04126 14.1486 8.3246 14.1069L8.74545 14.0507C8.87412 14.0336 9.00345 14.0774 9.0952 14.1692L9.53295 14.6069C9.65795 14.7319 9.81629 14.7902 9.97462 14.7902C10.1413 14.7902 10.2996 14.7319 10.4163 14.6069C10.6663 14.3652 10.6663 13.9652 10.4163 13.7236C10.336 13.6432 10.3612 13.5072 10.4628 13.4565C10.7953 13.2908 11.136 13.0796 11.4426 12.8517C11.6158 12.7231 11.8589 12.7313 12.0124 12.8829L12.4163 13.2819C12.5413 13.3986 12.6996 13.4652 12.858 13.4652C13.0163 13.4652 13.183 13.3986 13.2996 13.2736C13.5413 13.0319 13.5413 12.6319 13.2913 12.3902L12.8929 11.9968C12.7406 11.8464 12.728 11.6057 12.854 11.4327C13.0735 11.1317 13.2797 10.8041 13.4436 10.4833C13.493 10.3867 13.6229 10.3635 13.6996 10.4402C13.8246 10.5652 13.983 10.6236 14.1413 10.6236C14.308 10.6236 14.4663 10.5652 14.583 10.4402C14.833 10.1986 14.833 9.79858 14.583 9.55691L14.1452 9.11916C14.0535 9.02741 14.0096 8.89808 14.0268 8.76941L14.083 8.34858C14.1246 8.06521 14.1413 7.79021 14.1413 7.49854C14.1413 7.21941 14.4095 6.99586 14.6684 7.10045C16.8015 7.96259 18.308 10.0573 18.308 12.4986Z" fill="white"/>
</svg>
