<svg width="20" height="20" viewBox="0 0 20 20" fill="none" xmlns="http://www.w3.org/2000/svg">
<path d="M11.6663 11.043H8.33301C7.99134 11.043 7.70801 11.3263 7.70801 11.668C7.70801 12.0096 7.99134 12.293 8.33301 12.293H11.6663C12.008 12.293 12.2913 12.0096 12.2913 11.668C12.2913 11.3263 12.008 11.043 11.6663 11.043Z" fill="white"/>
<path d="M8.33301 8.95703H9.99967C10.3413 8.95703 10.6247 8.6737 10.6247 8.33203C10.6247 7.99036 10.3413 7.70703 9.99967 7.70703H8.33301C7.99134 7.70703 7.70801 7.99036 7.70801 8.33203C7.70801 8.6737 7.99134 8.95703 8.33301 8.95703Z" fill="white"/>
<path d="M13.4915 1.66797H6.51646C3.48313 1.66797 1.6748 3.4763 1.6748 6.50964V13.4846C1.6748 16.518 3.48313 18.3263 6.51646 18.3263H13.4915C16.5248 18.3263 18.3332 16.518 18.3332 13.4846V6.50964C18.3332 3.4763 16.5248 1.66797 13.4915 1.66797ZM14.9998 12.5013C14.9998 14.168 14.1665 15.0013 12.4998 15.0013H7.4998C5.83313 15.0013 4.9998 14.168 4.9998 12.5013V7.5013C4.9998 5.83464 5.83313 5.0013 7.4998 5.0013H10.8332C12.4998 5.0013 13.3332 5.83464 13.3332 7.5013V8.33464C13.3332 8.79297 13.7082 9.16797 14.1665 9.16797C14.6248 9.16797 14.9998 9.54297 14.9998 10.0013V12.5013Z" fill="white"/>
</svg>
