<svg width="20" height="20" viewBox="0 0 20 20" fill="none" xmlns="http://www.w3.org/2000/svg">
<path d="M10.75 8.82394L12.1417 7.54896L10.75 6.39062V8.82394Z" fill="white"/>
<path d="M10.75 13.6091L12.1417 12.4508L10.75 11.1758V13.6091Z" fill="white"/>
<path d="M10.0003 1.66797C5.40033 1.66797 1.66699 5.4013 1.66699 10.0013C1.66699 14.6013 5.40033 18.3346 10.0003 18.3346C14.6003 18.3346 18.3337 14.6013 18.3337 10.0013C18.3337 5.4013 14.6003 1.66797 10.0003 1.66797ZM13.1003 11.6263C13.342 11.8513 13.4753 12.1596 13.467 12.4763C13.4587 12.793 13.3087 13.1013 13.0587 13.3096L11.3337 14.7513C11.017 15.018 10.7253 15.093 10.5003 15.093C10.317 15.093 10.1753 15.043 10.092 15.0096C9.90866 14.9263 9.49199 14.6513 9.49199 13.893V11.668L7.57533 13.4263C7.32533 13.6596 6.92533 13.643 6.69199 13.3846C6.45866 13.1263 6.47533 12.7346 6.73366 12.5013L9.46699 10.0013L6.73366 7.49297C6.48366 7.25964 6.46699 6.86797 6.70033 6.60964C6.93366 6.35964 7.33366 6.33464 7.58366 6.56797L9.50033 8.33464V6.10964C9.50033 5.35964 9.91699 5.08464 10.1003 4.99297C10.2753 4.90964 10.7587 4.76797 11.342 5.24297L13.0587 6.6763C13.3087 6.88464 13.4587 7.19297 13.467 7.50964C13.4753 7.8263 13.342 8.14297 13.1003 8.35964L11.317 10.0013L13.1003 11.6263Z" fill="white"/>
</svg>
