<svg width="20" height="20" viewBox="0 0 20 20" fill="none" xmlns="http://www.w3.org/2000/svg">
<path d="M10.25 14.4359L12.175 12.8276L10.25 11.0859V14.4359Z" fill="white"/>
<path d="M10.25 5.56641V8.86641L12.175 7.09974L10.25 5.56641Z" fill="white"/>
<path d="M13.492 1.66797H6.50866C3.47533 1.66797 1.66699 3.4763 1.66699 6.50964V13.4846C1.66699 16.5263 3.47533 18.3346 6.50866 18.3346H13.4837C16.517 18.3346 18.3253 16.5263 18.3253 13.493V6.50964C18.3337 3.4763 16.5253 1.66797 13.492 1.66797ZM4.37533 10.0013C4.37533 9.36797 4.89199 8.8513 5.52533 8.8513C6.15866 8.8513 6.66699 9.36797 6.66699 10.0013C6.66699 10.6346 6.15033 11.1513 5.51699 11.1513C4.88366 11.1513 4.37533 10.6346 4.37533 10.0013ZM12.9753 13.7846L10.967 15.4596C10.6253 15.7513 10.3087 15.8346 10.067 15.8346C9.87533 15.8346 9.72533 15.7846 9.64199 15.743C9.45033 15.6513 9.00033 15.3596 9.00033 14.543V11.718L6.58366 13.9263C6.33366 14.1596 5.93366 14.143 5.70033 13.8846C5.46699 13.6263 5.48366 13.2346 5.74199 13.0013L9.00033 10.018V9.9513L5.74199 7.0013C5.48366 6.76797 5.46699 6.3763 5.70033 6.11797C5.93366 5.86797 6.33366 5.84297 6.58366 6.0763L9.00033 8.28463V5.46797C9.00033 4.6513 9.45033 4.3513 9.64199 4.26797C9.83366 4.1763 10.3503 4.0263 10.9753 4.5513L12.9837 6.2263C13.2587 6.4513 13.417 6.7763 13.4253 7.11797C13.4337 7.45964 13.292 7.79297 13.0337 8.03464L10.867 10.0013L13.0253 11.9763C13.2837 12.218 13.4337 12.5513 13.4253 12.893C13.4087 13.2346 13.2503 13.5596 12.9753 13.7846ZM14.4837 11.1513C13.8503 11.1513 13.3337 10.6346 13.3337 10.0013C13.3337 9.36797 13.8503 8.8513 14.4837 8.8513C15.117 8.8513 15.6337 9.36797 15.6337 10.0013C15.6337 10.6346 15.1087 11.1513 14.4837 11.1513Z" fill="white"/>
</svg>
