<svg width="20" height="20" viewBox="0 0 20 20" fill="none" xmlns="http://www.w3.org/2000/svg">
<path d="M10.7744 8.86847L12.7161 7.0935L10.7744 5.53516V8.86847Z" fill="white"/>
<path d="M13.492 1.66797H6.50866C3.47533 1.66797 1.66699 3.4763 1.66699 6.50964V13.4846C1.66699 16.5263 3.47533 18.3346 6.50866 18.3346H13.4837C16.517 18.3346 18.3253 16.5263 18.3253 13.493V6.50964C18.3337 3.4763 16.5253 1.66797 13.492 1.66797ZM13.5587 11.993C13.817 12.2346 13.967 12.568 13.9587 12.9096C13.9503 13.2513 13.792 13.5763 13.517 13.8096L11.5003 15.493C11.1503 15.7846 10.8337 15.868 10.592 15.868C10.4003 15.868 10.2503 15.818 10.167 15.7763C9.97533 15.6846 9.52533 15.3846 9.52533 14.568V11.718L7.09199 13.9513C6.84199 14.1846 6.44199 14.168 6.20866 13.9096C5.97533 13.6513 5.99199 13.2596 6.25033 13.0263L9.52533 10.0263V9.95964L6.24199 6.98464C5.99199 6.7513 5.97533 6.3513 6.20866 6.1013C6.44199 5.8513 6.84199 5.8263 7.09199 6.05964L9.52533 8.29297V5.44297C9.52533 4.6263 9.97533 4.3263 10.167 4.23464C10.3587 4.14297 10.8753 3.99297 11.5003 4.51797L13.517 6.2013C13.792 6.4263 13.9503 6.75964 13.9587 7.1013C13.967 7.44297 13.8253 7.7763 13.5587 8.01797L11.392 10.0013L13.5587 11.993Z" fill="white"/>
<path d="M10.7744 14.4693L12.7161 12.8443L10.7744 11.0859V14.4693Z" fill="white"/>
</svg>
