<svg width="20" height="20" viewBox="0 0 20 20" fill="none" xmlns="http://www.w3.org/2000/svg">
<path d="M10.75 13.6091L12.1417 12.4508L10.75 11.1758V13.6091Z" fill="white"/>
<path d="M10.75 8.82394L12.1417 7.54896L10.75 6.39062V8.82394Z" fill="white"/>
<path d="M12.4997 1.66797H7.49967C4.99967 1.66797 3.33301 3.33464 3.33301 5.83464V14.168C3.33301 16.668 4.99967 18.3346 7.49967 18.3346H12.4997C14.9997 18.3346 16.6663 16.668 16.6663 14.168V5.83464C16.6663 3.33464 14.9997 1.66797 12.4997 1.66797ZM13.0997 11.6263C13.3413 11.8513 13.4747 12.1596 13.4663 12.4763C13.458 12.793 13.308 13.1013 13.058 13.3096L11.333 14.7513C11.0163 15.018 10.7247 15.093 10.4997 15.093C10.3163 15.093 10.1747 15.043 10.0913 15.0096C9.90801 14.9263 9.49134 14.6513 9.49134 13.893V11.668L7.57467 13.4263C7.32467 13.6596 6.92467 13.643 6.69134 13.3846C6.45801 13.1263 6.47467 12.7346 6.73301 12.5013L9.46634 10.0013L6.73301 7.49297C6.48301 7.25964 6.46634 6.86797 6.69967 6.60964C6.93301 6.35964 7.33301 6.33464 7.58301 6.56797L9.49967 8.33464V6.10964C9.49967 5.35964 9.91634 5.08464 10.0997 4.99297C10.2747 4.90964 10.758 4.75964 11.3413 5.24297L13.058 6.6763C13.308 6.88464 13.458 7.19297 13.4663 7.50964C13.4747 7.8263 13.3413 8.14297 13.0997 8.35964L11.3163 10.0013L13.0997 11.6263Z" fill="white"/>
</svg>
