<svg width="20" height="20" viewBox="0 0 20 20" fill="none" xmlns="http://www.w3.org/2000/svg">
<path d="M11.225 6.17567L13.275 5.16733C13.525 5.04233 13.5917 4.71733 13.4 4.51733C12.6583 3.70067 11.9083 3.01733 11.3083 2.50067C11.0333 2.26733 10.625 2.459 10.625 2.81733V5.80067C10.625 6.109 10.95 6.309 11.225 6.17567Z" fill="white"/>
<path d="M10.625 16.4493V17.8242C10.625 18.0742 10.85 18.2826 11.1 18.2409C13.375 17.8659 15.275 16.3409 16.175 14.2909C16.3333 13.9409 15.95 13.591 15.6 13.7577L10.8583 16.0826C10.7167 16.1492 10.625 16.291 10.625 16.4493Z" fill="white"/>
<path d="M9.37509 2.80067C9.37509 2.44234 8.96676 2.25067 8.69176 2.47567C6.72506 4.12567 3.23339 7.60067 3.25006 11.584C3.25006 14.934 5.70006 17.709 8.90009 18.2423C9.15009 18.284 9.37509 18.0756 9.37509 17.8256V2.80067Z" fill="white"/>
<path d="M11.2005 10.3909L15.6089 8.54092C15.8339 8.44092 15.9422 8.18256 15.8339 7.96589C15.5255 7.35756 15.1672 6.76589 14.7755 6.21589C14.6589 6.04922 14.4422 5.99922 14.2589 6.08256L10.8505 7.74089C10.7089 7.80756 10.6172 7.95756 10.6172 8.11589V10.0076C10.6255 10.2993 10.9255 10.5076 11.2005 10.3909Z" fill="white"/>
<path d="M16.525 11.9243C16.6583 11.8576 16.7417 11.7326 16.7417 11.5909C16.7417 11.0576 16.675 10.5326 16.5583 10.0159C16.5 9.76595 16.225 9.63261 15.9917 9.73261L10.875 11.9159C10.725 11.9826 10.625 12.1326 10.625 12.2993V14.1326C10.625 14.4409 10.95 14.6409 11.225 14.5076L16.1417 12.1159L16.525 11.9243Z" fill="white"/>
</svg>
