<svg width="20" height="20" viewBox="0 0 20 20" fill="none" xmlns="http://www.w3.org/2000/svg">
<path d="M14.1663 4.13464V10.068C14.1663 11.7263 12.9913 12.368 11.5497 11.5013L10.4497 10.8346C10.1997 10.6846 9.79967 10.6846 9.54967 10.8346L8.44967 11.5013C7.00801 12.368 5.83301 11.7263 5.83301 10.068V4.15964C5.84134 2.5013 6.67467 1.66797 8.33301 1.66797H11.6663C13.3163 1.66797 14.1497 2.49297 14.1663 4.13464Z" fill="white"/>
<path d="M18.3337 9.91668V12.4417C18.3337 16.65 16.667 18.3334 12.5003 18.3334H7.50033C3.33366 18.3334 1.66699 16.65 1.66699 12.4417V9.91668C1.66699 7.67504 2.14199 6.15004 3.20866 5.21671C3.75033 4.75838 4.58366 5.15838 4.58366 5.86671V10.0667C4.58366 11.3084 5.09199 12.3084 5.97533 12.8084C6.86699 13.3167 8.00033 13.225 9.10033 12.5667L10.0003 12.025L10.9087 12.5667C11.5253 12.9417 12.167 13.1334 12.767 13.1334C13.217 13.1334 13.642 13.025 14.0253 12.8084C14.9087 12.3084 15.417 11.3084 15.417 10.0667V5.85838C15.417 5.15004 16.2587 4.75004 16.792 5.21671C17.8587 6.15004 18.3337 7.67504 18.3337 9.91668Z" fill="white"/>
</svg>
