<svg width="20" height="20" viewBox="0 0 20 20" fill="none" xmlns="http://www.w3.org/2000/svg">
<path d="M18.3333 4.04271V13.9511C18.3333 14.7594 17.675 15.5011 16.8667 15.6011L16.6083 15.6344C15.2417 15.8177 13.3167 16.3844 11.7667 17.0344C11.225 17.2594 10.625 16.8511 10.625 16.2594V4.66771C10.625 4.35938 10.8 4.07604 11.075 3.92604C12.6 3.10104 14.9083 2.36771 16.475 2.23438H16.525C17.525 2.23438 18.3333 3.04271 18.3333 4.04271Z" fill="white"/>
<path d="M8.92485 3.92604C7.39987 3.10104 5.09154 2.36771 3.52487 2.23438H3.46654C2.46654 2.23438 1.6582 3.04271 1.6582 4.04271V13.9511C1.6582 14.7594 2.31654 15.5011 3.12487 15.6011L3.3832 15.6344C4.74987 15.8177 6.67487 16.3844 8.22487 17.0344C8.76651 17.2594 9.36651 16.8511 9.36651 16.2594V4.66771C9.36651 4.35104 9.19985 4.07604 8.92485 3.92604ZM4.16654 6.45104H6.04154C6.3832 6.45104 6.66654 6.73437 6.66654 7.07604C6.66654 7.42604 6.3832 7.70104 6.04154 7.70104H4.16654C3.82487 7.70104 3.54154 7.42604 3.54154 7.07604C3.54154 6.73437 3.82487 6.45104 4.16654 6.45104ZM6.66654 10.2011H4.16654C3.82487 10.2011 3.54154 9.92605 3.54154 9.57605C3.54154 9.23438 3.82487 8.95105 4.16654 8.95105H6.66654C7.0082 8.95105 7.29154 9.23438 7.29154 9.57605C7.29154 9.92605 7.0082 10.2011 6.66654 10.2011Z" fill="white"/>
</svg>
