<svg width="20" height="20" viewBox="0 0 20 20" fill="none" xmlns="http://www.w3.org/2000/svg">
<path d="M17.0837 13.3333V15.4167C17.0837 17.025 15.7753 18.3333 14.167 18.3333H5.83366C4.22533 18.3333 2.91699 17.025 2.91699 15.4167V14.875C2.91699 13.5667 3.98366 12.5 5.29199 12.5H16.2503C16.7087 12.5 17.0837 12.875 17.0837 13.3333Z" fill="white"/>
<path d="M12.917 1.66797H7.08366C3.75033 1.66797 2.91699 2.5013 2.91699 5.83464V12.1513C3.55033 11.593 4.38366 11.2513 5.29199 11.2513H16.2503C16.7087 11.2513 17.0837 10.8763 17.0837 10.418V5.83464C17.0837 2.5013 16.2503 1.66797 12.917 1.66797ZM10.8337 8.95964H6.66699C6.32533 8.95964 6.04199 8.6763 6.04199 8.33464C6.04199 7.99297 6.32533 7.70964 6.66699 7.70964H10.8337C11.1753 7.70964 11.4587 7.99297 11.4587 8.33464C11.4587 8.6763 11.1753 8.95964 10.8337 8.95964ZM13.3337 6.04297H6.66699C6.32533 6.04297 6.04199 5.75964 6.04199 5.41797C6.04199 5.0763 6.32533 4.79297 6.66699 4.79297H13.3337C13.6753 4.79297 13.9587 5.0763 13.9587 5.41797C13.9587 5.75964 13.6753 6.04297 13.3337 6.04297Z" fill="white"/>
</svg>
