<svg width="20" height="20" viewBox="0 0 20 20" fill="none" xmlns="http://www.w3.org/2000/svg">
<path d="M9.37533 4.99974V16.5914C9.37533 17.1831 8.77533 17.5914 8.23366 17.3664C6.68366 16.7164 4.75866 16.1498 3.39199 15.9664L3.13366 15.9331C2.32533 15.8331 1.66699 15.0914 1.66699 14.2831V4.37474C1.66699 3.37474 2.47533 2.56641 3.47533 2.56641H3.53366C5.10033 2.69974 7.40866 3.43307 8.93366 4.25807C9.20866 4.40807 9.37533 4.68307 9.37533 4.99974Z" fill="white"/>
<path d="M16.525 2.56641H16.475C16.275 2.58307 16.0583 2.60807 15.8333 2.64974C14.8083 2.81641 13.5917 3.16641 12.5 3.59974C11.9833 3.80807 11.5 4.03307 11.075 4.25807C10.8 4.40807 10.625 4.69141 10.625 4.99974V16.5914C10.625 17.1831 11.225 17.5914 11.7667 17.3664C13.3167 16.7164 15.2417 16.1498 16.6083 15.9664L16.8667 15.9331C17.675 15.8331 18.3333 15.0914 18.3333 14.2831V4.37474C18.3333 3.37474 17.525 2.56641 16.525 2.56641ZM16.0583 11.4414C16.0583 11.7664 15.825 11.9081 15.5417 11.7498L14.6583 11.2581C14.5667 11.2081 14.4167 11.2081 14.3167 11.2581L13.4333 11.7498C13.15 11.9081 12.9167 11.7664 12.9167 11.4414V8.88309C12.9167 8.49976 13.2333 8.18307 13.6167 8.18307H15.3667C15.75 8.18307 16.0667 8.49976 16.0667 8.88309V11.4414H16.0583Z" fill="white"/>
</svg>
