<svg width="20" height="20" viewBox="0 0 20 20" fill="none" xmlns="http://www.w3.org/2000/svg">
<path d="M13.492 1.66797H6.50866C3.47533 1.66797 1.66699 3.4763 1.66699 6.50964V13.4846C1.66699 16.5263 3.47533 18.3346 6.50866 18.3346H13.4837C16.517 18.3346 18.3253 16.5263 18.3253 13.493V6.50964C18.3337 3.4763 16.5253 1.66797 13.492 1.66797ZM9.58366 14.3763C9.58366 14.6763 9.28366 14.8763 9.00866 14.7596C8.00033 14.3263 6.68366 13.9263 5.76699 13.8096L5.60866 13.793C5.10033 13.7263 4.68366 13.2513 4.68366 12.7346V6.31797C4.68366 5.6763 5.20033 5.2013 5.83366 5.2513C6.87533 5.33464 8.41699 5.83464 9.38366 6.38464C9.51699 6.45964 9.58366 6.6013 9.58366 6.74297V14.3763ZM15.317 12.7263C15.317 13.243 14.9003 13.718 14.392 13.7846L14.217 13.8013C13.3087 13.9263 12.0003 14.318 10.992 14.743C10.717 14.8596 10.417 14.6596 10.417 14.3596V6.73464C10.417 6.58464 10.492 6.44297 10.6253 6.36797C11.592 5.8263 13.1003 5.34297 14.1253 5.2513H14.1587C14.8003 5.2513 15.317 5.76797 15.317 6.40964V12.7263Z" fill="white"/>
</svg>
