<svg width="20" height="20" viewBox="0 0 20 20" fill="none" xmlns="http://www.w3.org/2000/svg">
<path d="M10.5583 10.625H8.75V12.85H10.5583C11.175 12.85 11.6667 12.35 11.6667 11.7417C11.6667 11.1333 11.1667 10.625 10.5583 10.625Z" fill="white"/>
<path d="M10.5583 7.14844H8.75V9.37345H10.5583C11.175 9.37345 11.6667 8.87345 11.6667 8.26512C11.6667 7.65679 11.1667 7.14844 10.5583 7.14844Z" fill="white"/>
<path d="M19.1663 9.16667C18.1747 9.16667 17.2913 8.53333 16.9747 7.58334C16.7747 6.97501 16.6663 6.33332 16.6663 5.69166V5C16.6663 3.61667 15.5497 2.5 14.1663 2.5H5.83301C4.44967 2.5 3.33301 3.61667 3.33301 5V5.7C3.33301 6.34167 3.23301 6.97499 3.02467 7.59166C2.70801 8.53333 1.82467 9.175 0.833008 9.175V10.8417C1.82467 10.8417 2.70801 11.475 3.02467 12.425C3.22467 13.0333 3.33301 13.675 3.33301 14.3083V15C3.33301 16.3833 4.44967 17.5 5.83301 17.5H14.1663C15.5497 17.5 16.6663 16.3833 16.6663 15V14.3C16.6663 13.6583 16.7663 13.025 16.9747 12.4167C17.2913 11.475 18.1747 10.8333 19.1663 10.8333V9.16667ZM12.9163 11.7333C12.9163 13.0333 11.858 14.0917 10.558 14.0917H8.12467C7.78301 14.0917 7.49967 13.8083 7.49967 13.4667V6.52499C7.49967 6.18332 7.78301 5.89999 8.12467 5.89999H10.558C11.858 5.89999 12.9163 6.95833 12.9163 8.25833C12.9163 8.94167 12.6247 9.56667 12.1497 9.99167C12.6247 10.4333 12.9163 11.05 12.9163 11.7333Z" fill="white"/>
</svg>
