<svg width="20" height="20" viewBox="0 0 20 20" fill="none" xmlns="http://www.w3.org/2000/svg">
<path d="M16.75 5.78464C16.75 6.23464 16.5083 6.64297 16.125 6.8513L14.675 7.63464L13.4417 8.29297L10.8833 9.6763C10.6083 9.8263 10.3083 9.9013 10 9.9013C9.69167 9.9013 9.39168 9.8263 9.11668 9.6763L3.875 6.8513C3.49167 6.64297 3.25 6.23464 3.25 5.78464C3.25 5.33464 3.49167 4.9263 3.875 4.71797L5.51667 3.83464L6.825 3.1263L9.11668 1.89297C9.66668 1.59297 10.3333 1.59297 10.8833 1.89297L16.125 4.71797C16.5083 4.9263 16.75 5.33464 16.75 5.78464Z" fill="white"/>
<path d="M8.24993 10.6565L3.37493 8.22316C2.99993 8.0315 2.5666 8.0565 2.20827 8.27316C1.84993 8.4898 1.6416 8.87313 1.6416 9.2898V13.8981C1.6416 14.6981 2.08327 15.4148 2.79993 15.7731L7.67493 18.2065C7.8416 18.2898 8.02493 18.3315 8.20827 18.3315C8.42491 18.3315 8.64158 18.2731 8.83324 18.1481C9.19158 17.9315 9.39991 17.5481 9.39991 17.1315V12.5231C9.40824 11.7315 8.96658 11.0148 8.24993 10.6565Z" fill="white"/>
<path d="M18.3585 9.29263V13.901C18.3585 14.6926 17.9168 15.4093 17.2001 15.7676L12.3251 18.2093C12.1585 18.2926 11.9751 18.3343 11.7918 18.3343C11.5751 18.3343 11.3585 18.276 11.1585 18.151C10.8085 17.9343 10.5918 17.551 10.5918 17.1343V12.5343C10.5918 11.7343 11.0335 11.0176 11.7501 10.6593L13.5418 9.76763L14.7918 9.14263L16.6251 8.226C17.0001 8.03433 17.4335 8.051 17.7918 8.276C18.1418 8.49263 18.3585 8.87597 18.3585 9.29263Z" fill="white"/>
<path d="M14.6749 7.63333L13.4416 8.29167L5.5166 3.83333L6.82493 3.125L14.4749 7.44167C14.5583 7.49167 14.6249 7.55833 14.6749 7.63333Z" fill="white"/>
<path d="M14.792 9.14062V11.0323C14.792 11.374 14.5087 11.6573 14.167 11.6573C13.8253 11.6573 13.542 11.374 13.542 11.0323V9.76562L14.792 9.14062Z" fill="white"/>
</svg>
