<svg width="20" height="20" viewBox="0 0 20 20" fill="none" xmlns="http://www.w3.org/2000/svg">
<path d="M14.6668 4.42474L9.95842 1.89141C9.45842 1.62474 8.86676 1.62474 8.36676 1.89141L3.66673 4.42474C3.32506 4.61641 3.1084 4.98307 3.1084 5.38307C3.1084 5.79141 3.31673 6.15807 3.66673 6.34141L8.37509 8.87474C8.62509 9.00807 8.90009 9.07474 9.16676 9.07474C9.43342 9.07474 9.71676 9.00807 9.95842 8.87474L14.6668 6.34141C15.0084 6.15807 15.2251 5.79141 15.2251 5.38307C15.2251 4.98307 15.0084 4.61641 14.6668 4.42474Z" fill="white"/>
<path d="M7.60033 9.75814L3.22533 7.57483C2.88366 7.39983 2.50033 7.42483 2.17533 7.6165C1.85866 7.8165 1.66699 8.15816 1.66699 8.53314V12.6665C1.66699 13.3831 2.06699 14.0248 2.70866 14.3498L7.08366 16.5331C7.23366 16.6081 7.40033 16.6498 7.56699 16.6498C7.75866 16.6498 7.95866 16.5915 8.13366 16.4915C8.45033 16.2915 8.64199 15.9498 8.64199 15.5748V11.4415C8.63366 10.7248 8.23366 10.0831 7.60033 9.75814Z" fill="white"/>
<path d="M16.6659 8.53314V10.5831C16.2659 10.4665 15.8409 10.4165 15.4159 10.4165C14.2826 10.4165 13.1742 10.8081 12.2992 11.5081C11.0992 12.4498 10.4159 13.8748 10.4159 15.4165C10.4159 15.8248 10.4659 16.2331 10.5742 16.6248C10.4492 16.6081 10.3242 16.5581 10.2076 16.4831C9.89089 16.2915 9.69922 15.9498 9.69922 15.5748V11.4415C9.69922 10.7248 10.0992 10.0831 10.7326 9.75814L15.1076 7.57483C15.4492 7.39983 15.8326 7.42483 16.1576 7.6165C16.4742 7.8165 16.6659 8.15816 16.6659 8.53314Z" fill="white"/>
<path d="M18.0672 12.7685C17.3255 12.0268 16.3421 11.6518 15.3671 11.6685C14.4255 11.6768 13.4838 12.0518 12.7672 12.7685C12.2672 13.2602 11.9422 13.8768 11.7838 14.5185C11.6922 14.8685 11.6588 15.2268 11.6838 15.5852V15.6268C11.6838 15.6852 11.6921 15.7352 11.7005 15.8018C11.7005 15.8018 11.7005 15.8018 11.7088 15.8102V15.8352C11.7838 16.6518 12.1338 17.4435 12.7672 18.0685C13.7338 19.0352 15.0922 19.3602 16.3172 19.0518C16.6838 18.9602 17.0422 18.8102 17.3755 18.6102C17.6255 18.4685 17.8588 18.2852 18.0672 18.0685C18.6922 17.4435 19.0505 16.6518 19.1255 15.8268C19.1338 15.8268 19.1338 15.8102 19.1338 15.8018C19.1505 15.7435 19.1505 15.6768 19.1505 15.6185C19.1505 15.6102 19.1588 15.5935 19.1588 15.5768C19.2088 14.5685 18.8422 13.5352 18.0672 12.7685ZM16.8588 16.8435C16.6172 17.0852 16.2255 17.0852 15.9755 16.8435L15.4255 16.2935L14.8588 16.8602C14.6088 17.1102 14.2171 17.1102 13.9755 16.8602C13.7255 16.6185 13.7255 16.2268 13.9755 15.9768L14.5421 15.4102L13.9921 14.8602C13.7505 14.6102 13.7505 14.2185 13.9921 13.9768C14.2421 13.7268 14.6338 13.7268 14.8838 13.9768L15.4255 14.5268L15.9505 13.9935C16.2005 13.7518 16.5922 13.7518 16.8422 13.9935C17.0838 14.2435 17.0838 14.6352 16.8422 14.8852L16.3088 15.4102L16.8588 15.9518C17.1088 16.2018 17.1088 16.5935 16.8588 16.8435Z" fill="white"/>
</svg>
