<svg width="20" height="20" viewBox="0 0 20 20" fill="none" xmlns="http://www.w3.org/2000/svg">
<path d="M14.6668 4.42474L9.95842 1.89141C9.45842 1.62474 8.86676 1.62474 8.36676 1.89141L3.66673 4.42474C3.32506 4.61641 3.1084 4.98307 3.1084 5.38307C3.1084 5.79141 3.31673 6.15807 3.66673 6.34141L8.37509 8.87474C8.62509 9.00807 8.90009 9.07474 9.16676 9.07474C9.43342 9.07474 9.71676 9.00807 9.95842 8.87474L14.6668 6.34141C15.0084 6.15807 15.2251 5.79141 15.2251 5.38307C15.2251 4.98307 15.0084 4.61641 14.6668 4.42474Z" fill="white"/>
<path d="M7.60033 9.75814L3.22533 7.57483C2.88366 7.39983 2.50033 7.42483 2.17533 7.6165C1.85866 7.8165 1.66699 8.15816 1.66699 8.53314V12.6665C1.66699 13.3831 2.06699 14.0248 2.70866 14.3498L7.08366 16.5331C7.23366 16.6081 7.40033 16.6498 7.56699 16.6498C7.75866 16.6498 7.95866 16.5915 8.13366 16.4915C8.45033 16.2915 8.64199 15.9498 8.64199 15.5748V11.4415C8.63366 10.7248 8.23366 10.0831 7.60033 9.75814Z" fill="white"/>
<path d="M16.6659 8.53314V10.5831C16.2659 10.4665 15.8409 10.4165 15.4159 10.4165C14.2826 10.4165 13.1742 10.8081 12.2992 11.5081C11.0992 12.4498 10.4159 13.8748 10.4159 15.4165C10.4159 15.8248 10.4659 16.2331 10.5742 16.6248C10.4492 16.6081 10.3242 16.5581 10.2076 16.4831C9.89089 16.2915 9.69922 15.9498 9.69922 15.5748V11.4415C9.69922 10.7248 10.0992 10.0831 10.7326 9.75814L15.1076 7.57483C15.4492 7.39983 15.8326 7.42483 16.1576 7.6165C16.4742 7.8165 16.6659 8.15816 16.6659 8.53314Z" fill="white"/>
<path d="M18.317 13.0586C17.6337 12.2169 16.592 11.6836 15.417 11.6836C14.5337 11.6836 13.717 11.9919 13.0753 12.5086C12.2087 13.1919 11.667 14.2503 11.667 15.4336C11.667 16.1336 11.867 16.8003 12.2087 17.3669C12.4337 17.7419 12.717 18.0669 13.0503 18.3336H13.0587C13.7003 18.8669 14.5253 19.1836 15.417 19.1836C16.367 19.1836 17.2253 18.8336 17.8837 18.2503C18.1753 18.0003 18.4253 17.7003 18.6253 17.3669C18.967 16.8003 19.167 16.1336 19.167 15.4336C19.167 14.5336 18.8503 13.7003 18.317 13.0586ZM17.3003 14.9669L15.3003 16.8169C15.1837 16.9253 15.0253 16.9836 14.8753 16.9836C14.717 16.9836 14.5587 16.9253 14.4337 16.8003L13.5087 15.8753C13.267 15.6336 13.267 15.2336 13.5087 14.9919C13.7503 14.7503 14.1503 14.7503 14.392 14.9919L14.892 15.4919L16.4503 14.0503C16.7003 13.8169 17.1003 13.8336 17.3337 14.0836C17.5753 14.3419 17.5587 14.7336 17.3003 14.9669Z" fill="white"/>
</svg>
