<svg width="20" height="20" viewBox="0 0 20 20" fill="none" xmlns="http://www.w3.org/2000/svg">
<path d="M14.6668 4.42474L9.95842 1.89141C9.45842 1.62474 8.86676 1.62474 8.36676 1.89141L3.66673 4.42474C3.32506 4.61641 3.1084 4.98307 3.1084 5.38307C3.1084 5.79141 3.31673 6.15807 3.66673 6.34141L8.37509 8.87474C8.62509 9.00807 8.90009 9.07474 9.16676 9.07474C9.43342 9.07474 9.71676 9.00807 9.95842 8.87474L14.6668 6.34141C15.0084 6.15807 15.2251 5.79141 15.2251 5.38307C15.2251 4.98307 15.0084 4.61641 14.6668 4.42474Z" fill="white"/>
<path d="M7.60033 9.75814L3.22533 7.57483C2.88366 7.39983 2.50033 7.42483 2.17533 7.6165C1.85866 7.8165 1.66699 8.15816 1.66699 8.53314V12.6665C1.66699 13.3831 2.06699 14.0248 2.70866 14.3498L7.08366 16.5331C7.23366 16.6081 7.40033 16.6498 7.56699 16.6498C7.75866 16.6498 7.95866 16.5915 8.13366 16.4915C8.45033 16.2915 8.64199 15.9498 8.64199 15.5748V11.4415C8.63366 10.7248 8.23366 10.0831 7.60033 9.75814Z" fill="white"/>
<path d="M16.6659 8.53314V10.5831C16.2659 10.4665 15.8409 10.4165 15.4159 10.4165C14.2826 10.4165 13.1742 10.8081 12.2992 11.5081C11.0992 12.4498 10.4159 13.8748 10.4159 15.4165C10.4159 15.8248 10.4659 16.2331 10.5742 16.6248C10.4492 16.6081 10.3242 16.5581 10.2076 16.4831C9.89089 16.2915 9.69922 15.9498 9.69922 15.5748V11.4415C9.69922 10.7248 10.0992 10.0831 10.7326 9.75814L15.1076 7.57483C15.4492 7.39983 15.8326 7.42483 16.1576 7.6165C16.4742 7.8165 16.6659 8.15816 16.6659 8.53314Z" fill="white"/>
<path d="M18.3337 13.0846C18.3337 13.0763 18.3253 13.068 18.317 13.0596C18.2837 13.0096 18.242 12.9596 18.2003 12.918C18.192 12.9096 18.1837 12.893 18.1753 12.8846C17.5003 12.1346 16.5087 11.668 15.417 11.668C14.367 11.668 13.4087 12.1013 12.7253 12.8013C12.067 13.4763 11.667 14.4013 11.667 15.418C11.667 16.118 11.867 16.7846 12.2087 17.3513C12.392 17.6596 12.6253 17.943 12.892 18.1763C12.9087 18.1846 12.917 18.193 12.9253 18.2013C12.967 18.243 13.0087 18.2763 13.0587 18.318C13.0587 18.318 13.0587 18.318 13.067 18.318C13.0753 18.3263 13.0837 18.3346 13.092 18.3346C13.717 18.8596 14.5253 19.168 15.417 19.168C16.7837 19.168 17.9753 18.4346 18.6253 17.3513C18.817 17.0263 18.967 16.668 19.0587 16.293C19.1337 16.0096 19.167 15.718 19.167 15.418C19.167 14.5346 18.8587 13.718 18.3337 13.0846ZM16.817 16.0263H16.042V16.8346C16.042 17.1763 15.7587 17.4596 15.417 17.4596C15.0753 17.4596 14.792 17.1763 14.792 16.8346V16.0263H14.017C13.6753 16.0263 13.392 15.743 13.392 15.4013C13.392 15.0596 13.6753 14.7763 14.017 14.7763H14.792V14.0346C14.792 13.693 15.0753 13.4096 15.417 13.4096C15.7587 13.4096 16.042 13.693 16.042 14.0346V14.7763H16.817C17.1587 14.7763 17.442 15.0596 17.442 15.4013C17.442 15.743 17.167 16.0263 16.817 16.0263Z" fill="white"/>
</svg>
