<svg width="20" height="20" viewBox="0 0 20 20" fill="none" xmlns="http://www.w3.org/2000/svg">
<path d="M14.6668 4.42474L9.95842 1.89141C9.45842 1.62474 8.86676 1.62474 8.36676 1.89141L3.66673 4.42474C3.32506 4.61641 3.1084 4.98307 3.1084 5.38307C3.1084 5.79141 3.31673 6.15807 3.66673 6.34141L8.37509 8.87474C8.62509 9.00807 8.90009 9.07474 9.16676 9.07474C9.43342 9.07474 9.71676 9.00807 9.95842 8.87474L14.6668 6.34141C15.0084 6.15807 15.2251 5.79141 15.2251 5.38307C15.2251 4.98307 15.0084 4.61641 14.6668 4.42474Z" fill="white"/>
<path d="M7.60033 9.75814L3.22533 7.57483C2.88366 7.39983 2.50033 7.42483 2.17533 7.6165C1.85866 7.8165 1.66699 8.15816 1.66699 8.53314V12.6665C1.66699 13.3831 2.06699 14.0248 2.70866 14.3498L7.08366 16.5331C7.23366 16.6081 7.40033 16.6498 7.56699 16.6498C7.75866 16.6498 7.95866 16.5915 8.13366 16.4915C8.45033 16.2915 8.64199 15.9498 8.64199 15.5748V11.4415C8.63366 10.7248 8.23366 10.0831 7.60033 9.75814Z" fill="white"/>
<path d="M16.6659 8.53314V10.5831C16.2659 10.4665 15.8409 10.4165 15.4159 10.4165C14.2826 10.4165 13.1742 10.8081 12.2992 11.5081C11.0992 12.4498 10.4159 13.8748 10.4159 15.4165C10.4159 15.8248 10.4659 16.2331 10.5742 16.6248C10.4492 16.6081 10.3242 16.5581 10.2076 16.4831C9.89089 16.2915 9.69922 15.9498 9.69922 15.5748V11.4415C9.69922 10.7248 10.0992 10.0831 10.7326 9.75814L15.1076 7.57483C15.4492 7.39983 15.8326 7.42483 16.1576 7.6165C16.4742 7.8165 16.6659 8.15816 16.6659 8.53314Z" fill="white"/>
<path d="M18.317 13.043C17.6337 12.2013 16.592 11.668 15.417 11.668C14.5337 11.668 13.717 11.9763 13.0753 12.493C12.2087 13.1763 11.667 14.2346 11.667 15.418C11.667 16.593 12.2003 17.6346 13.042 18.318C13.6837 18.8513 14.517 19.168 15.417 19.168C16.367 19.168 17.2253 18.8096 17.892 18.2346C18.667 17.543 19.167 16.543 19.167 15.418C19.167 14.518 18.8503 13.6846 18.317 13.043ZM16.2753 15.6513C16.2753 15.868 16.1587 16.0763 15.9753 16.1846L14.8003 16.8846C14.7003 16.943 14.592 16.9763 14.4753 16.9763C14.267 16.9763 14.0587 16.868 13.942 16.6763C13.767 16.3763 13.8587 15.993 14.1587 15.818L15.0253 15.3013V14.2513C15.0253 13.9096 15.3087 13.6263 15.6503 13.6263C15.992 13.6263 16.2753 13.9096 16.2753 14.2513V15.6513Z" fill="white"/>
</svg>
