<svg width="20" height="20" viewBox="0 0 20 20" fill="none" xmlns="http://www.w3.org/2000/svg">
<path d="M4.44225 16.1831C4.35059 16.1831 4.25059 16.1581 4.16725 16.1164L2.31725 15.1914C2.10892 15.0831 1.97559 14.8664 1.97559 14.6331V12.3164C1.97559 11.9747 2.25892 11.6914 2.60059 11.6914C2.94225 11.6914 3.22559 11.9747 3.22559 12.3164V14.2414L4.72559 14.9997C5.03392 15.1497 5.15892 15.5247 5.00059 15.8331C4.89225 16.0497 4.67559 16.1831 4.44225 16.1831Z" fill="white"/>
<path d="M10.0005 18.9573C9.9505 18.9573 9.9005 18.949 9.85883 18.9406C9.80883 18.9323 9.75883 18.9073 9.70883 18.8823L7.8672 17.9656C7.55887 17.8073 7.43387 17.4323 7.58387 17.124C7.7422 16.8156 8.1172 16.6906 8.4255 16.8406L9.3755 17.3156V16.0156C9.3755 15.674 9.65883 15.3906 10.0005 15.3906C10.3422 15.3906 10.6255 15.674 10.6255 16.0156V17.3156L11.5755 16.8406C11.8838 16.6906 12.2588 16.8156 12.4172 17.124C12.5755 17.4323 12.4505 17.8073 12.1338 17.9656L10.2922 18.8823C10.2422 18.9073 10.1922 18.924 10.1422 18.9406C10.0922 18.949 10.0505 18.9573 10.0005 18.9573Z" fill="white"/>
<path d="M15.5585 16.1826C15.3335 16.1826 15.1085 16.0576 15.0001 15.8409C14.8418 15.5326 14.9668 15.1576 15.2835 14.9992L16.7918 14.2492V12.3242C16.7918 11.9826 17.0751 11.6992 17.4168 11.6992C17.7585 11.6992 18.0418 11.9826 18.0418 12.3242V14.6409C18.0418 14.8742 17.9085 15.0909 17.7001 15.1992L15.8335 16.1159C15.7418 16.1576 15.6501 16.1826 15.5585 16.1826Z" fill="white"/>
<path d="M10.0005 12.0172C9.65883 12.0172 9.3755 11.7339 9.3755 11.3922V9.46722L7.8672 8.71722C7.55887 8.55888 7.43387 8.18386 7.58387 7.87553C7.7422 7.56719 8.1172 7.44219 8.4255 7.59219L10.0005 8.37555L11.5755 7.59219C11.8838 7.44219 12.2588 7.55886 12.4172 7.87553C12.5755 8.18386 12.4505 8.55888 12.1338 8.71722L10.6255 9.46722V11.3922C10.6255 11.7339 10.3422 12.0172 10.0005 12.0172Z" fill="white"/>
<path d="M2.5918 8.30868C2.25013 8.30868 1.9668 8.02534 1.9668 7.68368V5.38368V5.37534C1.9668 5.32534 1.97513 5.27534 1.98346 5.23368C2.00013 5.15868 2.02513 5.10034 2.05846 5.04201C2.08346 5.00034 2.1168 4.96701 2.15013 4.93368C2.18346 4.90034 2.22513 4.86701 2.2668 4.84201C2.28346 4.83368 2.30846 4.81701 2.32513 4.80868L4.1668 3.88368C4.47513 3.73368 4.85013 3.85868 5.00013 4.16701C5.15846 4.47534 5.03346 4.85034 4.72513 5.00034L3.9918 5.36701L4.72513 5.73368C5.03346 5.89201 5.15846 6.26701 5.00013 6.57534C4.85013 6.88368 4.47513 7.00867 4.1668 6.85867L3.2168 6.38368V7.68368C3.2168 8.03368 2.9418 8.30868 2.5918 8.30868Z" fill="white"/>
<path d="M11.8495 3.21615C11.7578 3.21615 11.6578 3.19115 11.5745 3.14948L9.99951 2.36615L8.42451 3.14948C8.11618 3.30781 7.74118 3.18281 7.59118 2.87448C7.43285 2.56615 7.55785 2.19115 7.86618 2.03281L9.71617 1.10781C9.89117 1.01615 10.0995 1.01615 10.2745 1.10781L12.1245 2.03281C12.4328 2.19115 12.5578 2.56615 12.4078 2.87448C12.2995 3.09115 12.0828 3.21615 11.8495 3.21615Z" fill="white"/>
<path d="M17.4087 8.30868C17.067 8.30868 16.7837 8.02534 16.7837 7.68368V6.38368L15.8337 6.85867C15.5254 7.00867 15.1504 6.88368 15.0004 6.57534C14.842 6.26701 14.967 5.89201 15.2837 5.73368L16.017 5.36701L15.2754 5.00034C14.967 4.85034 14.842 4.47534 15.0004 4.16701C15.1587 3.85868 15.5254 3.73368 15.8337 3.88368L17.6754 4.80034C17.692 4.80868 17.717 4.81701 17.7337 4.83368C17.7837 4.85868 17.8254 4.90034 17.867 4.94201C17.892 4.97534 17.917 5.00868 17.942 5.04201C17.9754 5.10034 18.0004 5.15868 18.017 5.22534C18.0254 5.27534 18.0337 5.32534 18.0337 5.36701V5.37534V7.67534C18.0337 8.03368 17.7504 8.30868 17.4087 8.30868Z" fill="white"/>
</svg>
