<svg width="20" height="20" viewBox="0 0 20 20" fill="none" xmlns="http://www.w3.org/2000/svg">
<path d="M16.8418 6.51589L10.4252 10.2326C10.1668 10.3826 9.84184 10.3826 9.57517 10.2326L3.15851 6.51589C2.70018 6.24922 2.58351 5.62422 2.93351 5.23255C3.17518 4.95755 3.45018 4.73255 3.74185 4.57422L8.25851 2.07422C9.22517 1.53255 10.7918 1.53255 11.7585 2.07422L16.2752 4.57422C16.5668 4.73255 16.8418 4.96589 17.0835 5.23255C17.4168 5.62422 17.3002 6.24922 16.8418 6.51589Z" fill="white"/>
<path d="M9.52509 11.7831V17.4664C9.52509 18.0998 8.88342 18.5164 8.31673 18.2414C6.60007 17.3998 3.7084 15.8248 3.7084 15.8248C2.69173 15.2498 1.8584 13.7998 1.8584 12.6081V8.30807C1.8584 7.64974 2.55007 7.23307 3.11673 7.55807L9.10842 11.0331C9.35842 11.1914 9.52509 11.4748 9.52509 11.7831Z" fill="white"/>
<path d="M10.4756 11.7831V17.4664C10.4756 18.0998 11.1173 18.5164 11.6839 18.2414C13.4006 17.3998 16.2923 15.8248 16.2923 15.8248C17.3089 15.2498 18.1423 13.7998 18.1423 12.6081V8.30807C18.1423 7.64974 17.4506 7.23307 16.8839 7.55807L10.8923 11.0331C10.6423 11.1914 10.4756 11.4748 10.4756 11.7831Z" fill="white"/>
</svg>
