<svg width="20" height="20" viewBox="0 0 20 20" fill="none" xmlns="http://www.w3.org/2000/svg">
<path d="M9.27497 13.2344C9.06663 13.2344 8.8583 13.126 8.74163 12.9344C8.56663 12.6427 8.6583 12.251 8.9583 12.076L9.69997 11.6344V10.7344C9.69997 10.3927 9.9833 10.1094 10.325 10.1094C10.6666 10.1094 10.95 10.3927 10.95 10.7344V11.9844C10.95 12.201 10.8333 12.4094 10.65 12.5177L9.6083 13.1427C9.49163 13.201 9.3833 13.2344 9.27497 13.2344Z" fill="white"/>
<path d="M17.5748 5.81432C16.8665 5.03099 15.6915 4.63932 13.9665 4.63932H13.7665V4.60599C13.7665 3.20599 13.7665 1.47266 10.6332 1.47266H9.3665C6.2332 1.47266 6.2332 3.20599 6.2332 4.60599V4.63932H6.0332C4.3082 4.63932 3.12487 5.03099 2.42487 5.81432C1.59987 6.73932 1.62487 7.96432 1.7082 8.80596L1.71654 8.8643L1.7741 9.53596C1.7851 9.66421 1.85472 9.7803 1.96282 9.8503C2.19923 10.0033 2.45074 10.1639 2.69154 10.2976C2.8082 10.3726 2.9332 10.4393 3.0582 10.506C3.99987 11.0226 5.0082 11.431 6.04154 11.7143C6.06654 13.8726 7.8332 15.6226 9.99984 15.6226C12.1832 15.6226 13.9582 13.8476 13.9582 11.6643V11.631C15.0082 11.3143 16.0165 10.8726 16.9582 10.3226C17.0082 10.2976 17.0415 10.2726 17.0832 10.2476C17.4123 10.0688 17.7536 9.83471 18.065 9.61388C18.1616 9.54538 18.224 9.43871 18.2371 9.32105L18.2498 9.20596L18.2915 8.8143C18.2998 8.7643 18.2998 8.72263 18.3082 8.6643C18.3748 7.83099 18.3582 6.68099 17.5748 5.81432ZM7.42487 4.60599C7.42487 3.18932 7.42487 2.65599 9.3665 2.65599H10.6332C12.5748 2.65599 12.5748 3.18932 12.5748 4.60599V4.63932H7.42487V4.60599ZM9.99984 14.3726C8.62484 14.3726 7.4832 13.3393 7.31654 12.006C7.29987 11.8976 7.29154 11.781 7.29154 11.6643C7.29154 10.1726 8.50817 8.95596 9.99984 8.95596C11.4915 8.95596 12.7082 10.1726 12.7082 11.6643C12.7082 11.7643 12.6998 11.856 12.6915 11.9476V11.956C12.5415 13.3143 11.3915 14.3726 9.99984 14.3726Z" fill="white"/>
<path d="M17.5327 11.4396C17.7399 11.3246 18.0089 11.4914 17.9873 11.7275L17.691 14.9646C17.516 16.6313 16.8327 18.3313 13.166 18.3313H6.81603C3.14936 18.3313 2.46603 16.6313 2.29936 14.973L2.01113 11.8869C1.98876 11.6473 2.24502 11.4854 2.45769 11.598C3.10769 11.9563 3.78269 12.273 4.47436 12.523C4.73269 12.6146 4.91603 12.8313 4.99103 13.098C5.61603 15.2646 7.63269 16.873 9.99935 16.873C12.4077 16.873 14.441 15.2313 15.0327 12.9813C15.0994 12.7146 15.2827 12.498 15.541 12.398C16.241 12.123 16.9077 11.798 17.5327 11.4396Z" fill="white"/>
</svg>
