<svg width="20" height="20" viewBox="0 0 20 20" fill="none" xmlns="http://www.w3.org/2000/svg">
<path d="M11.3333 12.0924L10.8916 11.6508L11.3083 11.2341C11.5499 10.9924 11.5499 10.5924 11.3083 10.3508C11.0666 10.1091 10.6666 10.1091 10.4249 10.3508L10.0083 10.7674L9.5666 10.3258C9.32493 10.0841 8.92494 10.0841 8.68327 10.3258C8.4416 10.5674 8.4416 10.9674 8.68327 11.2091L9.12494 11.6508L8.6666 12.1091C8.42493 12.3508 8.42493 12.7508 8.6666 12.9924C8.7916 13.1174 8.94994 13.1758 9.10827 13.1758C9.2666 13.1758 9.42494 13.1174 9.54994 12.9924L10.0083 12.5341L10.4499 12.9758C10.5749 13.1008 10.7333 13.1591 10.8916 13.1591C11.0499 13.1591 11.2083 13.1008 11.3333 12.9758C11.5749 12.7341 11.5749 12.3424 11.3333 12.0924Z" fill="white"/>
<path d="M17.5748 5.81432C16.8665 5.03099 15.6915 4.63932 13.9665 4.63932H13.7665V4.60599C13.7665 3.20599 13.7665 1.47266 10.6332 1.47266H9.3665C6.2332 1.47266 6.2332 3.20599 6.2332 4.60599V4.63932H6.0332C4.3082 4.63932 3.12487 5.03099 2.42487 5.81432C1.59987 6.73932 1.62487 7.96432 1.7082 8.80596L1.71654 8.8643L1.7741 9.53596C1.7851 9.66421 1.85472 9.7803 1.96282 9.8503C2.19923 10.0033 2.45074 10.1639 2.69154 10.2976C2.8082 10.3726 2.9332 10.4393 3.0582 10.506C3.99987 11.0226 5.0082 11.431 6.04154 11.7143C6.06654 13.8726 7.8332 15.6226 9.99984 15.6226C12.1832 15.6226 13.9582 13.8476 13.9582 11.6643V11.631C15.0082 11.3143 16.0165 10.8726 16.9582 10.3226C17.0082 10.2976 17.0415 10.2726 17.0832 10.2476C17.4123 10.0688 17.7536 9.83471 18.065 9.61388C18.1616 9.54538 18.224 9.43871 18.2371 9.32105L18.2498 9.20596L18.2915 8.8143C18.2998 8.7643 18.2998 8.72263 18.3082 8.6643C18.3748 7.83099 18.3582 6.68099 17.5748 5.81432ZM7.42487 4.60599C7.42487 3.18932 7.42487 2.65599 9.3665 2.65599H10.6332C12.5748 2.65599 12.5748 3.18932 12.5748 4.60599V4.63932H7.42487V4.60599ZM9.99984 14.3726C8.62484 14.3726 7.4832 13.3393 7.31654 12.006C7.29987 11.8976 7.29154 11.781 7.29154 11.6643C7.29154 10.1726 8.50817 8.95596 9.99984 8.95596C11.4915 8.95596 12.7082 10.1726 12.7082 11.6643C12.7082 11.7643 12.6998 11.856 12.6915 11.9476V11.956C12.5415 13.3143 11.3915 14.3726 9.99984 14.3726Z" fill="white"/>
<path d="M17.5347 11.4436C17.7419 11.3284 18.0108 11.4953 17.9892 11.7314L17.693 14.9686C17.518 16.6353 16.8347 18.3353 13.168 18.3353H6.81798C3.15131 18.3353 2.46798 16.6353 2.30131 14.9769L2.01309 11.8908C1.99071 11.6512 2.24697 11.4893 2.45965 11.6019C3.10965 11.9603 3.78465 12.2769 4.47631 12.5269C4.73465 12.6186 4.91798 12.8353 4.99298 13.1019C5.61798 15.2686 7.63465 16.8769 10.0013 16.8769C12.4097 16.8769 14.443 15.2353 15.0347 12.9853C15.1013 12.7186 15.2847 12.5019 15.543 12.4019C16.243 12.1269 16.9097 11.8019 17.5347 11.4436Z" fill="white"/>
</svg>
