<svg width="20" height="20" viewBox="0 0 20 20" fill="none" xmlns="http://www.w3.org/2000/svg">
<path d="M7.35004 4.08222L6.28338 2.31556C5.88338 1.66556 5.09171 1.29889 4.35004 1.51556C3.23338 1.84889 2.80004 3.10722 3.35838 4.03222L4.45838 5.84056C4.58338 6.03222 4.84171 6.09889 5.03338 5.98222L7.20838 4.65722C7.40838 4.53222 7.47504 4.27389 7.35004 4.08222Z" fill="white"/>
<path d="M16.4507 11.8415L14.109 8.67483C13.2923 7.57487 11.8757 7.0582 10.5423 7.41653C10.5423 7.4082 10.534 7.4082 10.534 7.39987L9.15066 5.12487C8.90066 4.7332 8.38399 4.6082 7.9923 4.84987L5.10063 6.6082C4.70063 6.84153 4.57563 7.36653 4.8173 7.76653L6.1923 10.0415C6.1923 10.0415 6.1923 10.0498 6.20063 10.0498C5.27563 11.0748 5.07563 12.5665 5.6923 13.8082L7.42563 17.3415C7.95896 18.4332 9.21732 18.8498 10.284 18.2998C10.3673 18.2582 10.3923 18.1582 10.3423 18.0748L9.04232 15.9248C8.85899 15.6248 8.95066 15.2415 9.25066 15.0498C9.55066 14.8748 9.93399 14.9665 10.1257 15.2582L11.434 17.4082C11.484 17.4832 11.584 17.5082 11.659 17.4665L12.459 16.9832C12.534 16.9332 12.559 16.8332 12.5173 16.7582L11.209 14.6082C11.034 14.3082 11.1257 13.9248 11.4173 13.7332C11.7257 13.5582 12.109 13.6498 12.2923 13.9415L13.6007 16.0915C13.6507 16.1665 13.7507 16.1915 13.8257 16.1498L14.6257 15.6665C14.7007 15.6165 14.7257 15.5165 14.684 15.4415L13.3757 13.2915C13.2007 12.9915 13.2923 12.6082 13.584 12.4165C13.8923 12.2415 14.2757 12.3332 14.459 12.6248L15.7757 14.7665C15.8257 14.8415 15.9257 14.8665 16.0007 14.8165C16.9673 14.1248 17.184 12.8248 16.4507 11.8415Z" fill="white"/>
</svg>
