<svg width="20" height="20" viewBox="0 0 20 20" fill="none" xmlns="http://www.w3.org/2000/svg">
<path d="M7.91634 16.2513V15.0013H3.74967C3.29134 15.0013 2.87467 14.818 2.57467 14.5096C2.26634 14.2096 2.08301 13.793 2.08301 13.3346C2.08301 12.4763 2.74967 11.7596 3.59134 11.6763C3.64134 11.668 3.69134 11.668 3.74967 11.668H16.2497C16.308 11.668 16.358 11.668 16.408 11.6763C16.808 11.7096 17.158 11.8846 17.4247 12.1596C17.7663 12.493 17.9497 12.968 17.908 13.4846C17.833 14.3596 17.0413 15.0013 16.158 15.0013H12.083V16.2513C12.083 17.4013 11.1497 18.3346 9.99967 18.3346C8.84967 18.3346 7.91634 17.4013 7.91634 16.2513Z" fill="white"/>
<path d="M14.3245 1.66797H11.0412C10.8078 1.66797 10.6245 1.8513 10.6245 2.08464V3.33464C10.6245 3.6763 10.3412 3.95964 9.9995 3.95964C9.9245 3.95964 9.85784 3.94297 9.79117 3.91797C9.5495 3.83464 9.3745 3.6013 9.3745 3.33464V2.08464C9.3745 1.8513 9.19117 1.66797 8.95784 1.66797H7.6995C7.46617 1.66797 7.28284 1.8513 7.28284 2.08464V5.83464C7.28284 6.1763 6.9995 6.45964 6.65784 6.45964C6.31617 6.45964 6.03284 6.1763 6.03284 5.83464V3.95964V2.08464C6.03284 1.85964 5.86617 1.68464 5.64117 1.66797H5.61617C4.16617 1.7013 3.04117 2.95964 3.19117 4.41797L3.4995 10.043C3.5245 10.4846 3.89117 10.8346 4.33284 10.8346H15.6662C16.1078 10.8346 16.4745 10.4846 16.4995 10.043L16.8078 4.41797C16.9578 2.94297 15.7995 1.66797 14.3245 1.66797Z" fill="white"/>
</svg>
