<svg width="20" height="20" viewBox="0 0 20 20" fill="none" xmlns="http://www.w3.org/2000/svg">
<path d="M13.8752 3.99297H13.6418C13.5585 3.33464 13.3168 2.80964 12.9335 2.41797C12.4335 1.91797 11.7085 1.66797 10.7752 1.66797H6.12513C4.25013 1.66797 3.2168 2.7013 3.2168 4.5763C3.2168 5.50964 3.4668 6.23464 3.9668 6.73464C4.4668 7.23464 5.1918 7.48463 6.12513 7.48463H10.7752C12.4418 7.48463 13.4418 6.65964 13.6418 5.15964H13.8752C15.6168 5.15964 15.6168 5.39297 15.6168 6.9013V8.4513C15.6168 9.95964 15.6168 10.193 13.8752 10.193H10.7752C8.28346 10.193 7.92513 11.3763 7.87513 12.5263C7.12513 12.5763 6.3168 12.9263 6.3168 14.2596V16.5846C6.3168 18.0263 7.2668 18.3263 8.05846 18.3263H8.83351C9.62517 18.3263 10.5752 18.0263 10.5752 16.5846V14.2596C10.5752 12.943 9.78351 12.5763 9.03351 12.5263C9.07517 11.6846 9.31684 11.3513 10.7668 11.3513H13.8668C16.5752 11.3513 16.7752 10.2513 16.7752 8.44297V6.9013C16.7835 5.09297 16.5835 3.99297 13.8752 3.99297Z" fill="white"/>
</svg>
