<svg width="20" height="20" viewBox="0 0 20 20" fill="none" xmlns="http://www.w3.org/2000/svg">
<path d="M18.1745 3.28308C17.0828 6.00808 14.5912 9.56642 12.2162 11.8914C11.8745 9.74142 10.1578 8.05808 7.99121 7.75808C10.3245 5.37475 13.9078 2.84975 16.6412 1.74975C17.1245 1.56642 17.6078 1.70808 17.9078 2.00808C18.2245 2.32475 18.3745 2.79975 18.1745 3.28308Z" fill="white"/>
<path d="M11.4839 12.5745C11.3172 12.7161 11.1506 12.8578 10.9839 12.9911L9.49224 14.1828C9.49224 14.1578 9.4839 14.1245 9.4839 14.0911C9.36724 13.1995 8.95057 12.3745 8.27559 11.6995C7.59225 11.0161 6.74225 10.5995 5.80892 10.4828C5.78392 10.4828 5.75059 10.4745 5.72559 10.4745L6.93392 8.94948C7.05059 8.79948 7.17559 8.65781 7.30892 8.50781L7.87559 8.58281C9.66724 8.83281 11.1089 10.2411 11.3922 12.0245L11.4839 12.5745Z" fill="white"/>
<path d="M8.69183 14.684C8.69183 15.6007 8.34183 16.4757 7.67513 17.134C7.1668 17.6507 6.48347 18.0007 5.65014 18.1007L3.60846 18.3257C2.4918 18.4507 1.53346 17.4923 1.65846 16.3673L1.88346 14.3173C2.08346 12.4923 3.60846 11.3257 5.22513 11.2923C5.38346 11.284 5.55846 11.2923 5.72513 11.309C6.43346 11.4007 7.1168 11.7257 7.6918 12.2923C8.25013 12.8507 8.56683 13.509 8.6585 14.2007C8.67516 14.3673 8.69183 14.5257 8.69183 14.684Z" fill="white"/>
</svg>
