<svg width="20" height="20" viewBox="0 0 20 20" fill="none" xmlns="http://www.w3.org/2000/svg">
<path d="M4.99967 1.66797H14.9997C15.9163 1.66797 16.6663 2.41797 16.6663 3.33464V6.1013C16.6663 6.55964 16.2913 6.93464 15.833 6.93464H4.16634C3.70801 6.93464 3.33301 6.55964 3.33301 6.1013V3.33464C3.33301 2.41797 4.08301 1.66797 4.99967 1.66797Z" fill="white"/>
<path d="M3.33301 8.59895V9.89895C3.33301 10.7989 3.81634 11.6323 4.60801 12.074L7.07467 13.4656C7.59967 13.7573 7.92467 14.3156 7.92467 14.9156V16.6656C7.92467 17.5823 8.67467 18.3323 9.59134 18.3323H10.4247C11.3413 18.3323 12.0913 17.5823 12.0913 16.6656V14.9156C12.0913 14.3156 12.4163 13.7573 12.9413 13.4656L15.408 12.074C16.1913 11.6323 16.683 10.7989 16.683 9.89895V8.59895C16.683 8.14063 16.308 7.76562 15.8497 7.76562H4.16634C3.70801 7.76562 3.33301 8.13229 3.33301 8.59895Z" fill="white"/>
</svg>
