<svg width="20" height="20" viewBox="0 0 20 20" fill="none" xmlns="http://www.w3.org/2000/svg">
<path d="M13.492 1.66797H6.50866C3.47533 1.66797 1.66699 3.4763 1.66699 6.50964V13.4846C1.66699 16.5263 3.47533 18.3346 6.50866 18.3346H13.4837C16.517 18.3346 18.3253 16.5263 18.3253 13.493V6.50964C18.3337 3.4763 16.5253 1.66797 13.492 1.66797ZM8.74199 13.9346C8.45866 14.218 8.08366 14.4096 7.62533 14.468L6.50033 14.593C5.88366 14.6596 5.35866 14.1346 5.42533 13.5096L5.55033 12.3763C5.65866 11.368 6.50033 10.7263 7.39199 10.7096C7.47533 10.7013 7.57533 10.7096 7.66699 10.718C8.05866 10.768 8.43366 10.9513 8.75033 11.2596C9.05866 11.568 9.23366 11.9346 9.28366 12.3096C9.29199 12.4013 9.30033 12.493 9.30033 12.5763C9.30033 13.093 9.10866 13.568 8.74199 13.9346ZM14.5337 6.29297C13.9337 7.79297 12.5587 9.75964 11.2503 11.043C11.0587 9.85964 10.117 8.9263 8.91699 8.75964C10.2003 7.44297 12.1837 6.0513 13.692 5.44297C13.9587 5.34297 14.2253 5.41797 14.392 5.58464C14.5587 5.76797 14.642 6.0263 14.5337 6.29297Z" fill="white"/>
</svg>
