<svg width="20" height="20" viewBox="0 0 20 20" fill="none" xmlns="http://www.w3.org/2000/svg">
<path d="M12.9921 1.45703C10.5171 1.45703 8.50879 3.46536 8.50879 5.94036C8.50879 8.41537 10.5171 10.4237 12.9921 10.4237C15.4671 10.4237 17.4755 8.41537 17.4755 5.94036C17.4755 3.46536 15.4671 1.45703 12.9921 1.45703Z" fill="white"/>
<path d="M5.30039 10.8594C3.77539 10.8594 2.52539 12.101 2.52539 13.6344C2.52539 15.1677 3.76706 16.4094 5.30039 16.4094C6.82539 16.4094 8.07539 15.1677 8.07539 13.6344C8.07539 12.101 6.82539 10.8594 5.30039 10.8594Z" fill="white"/>
<path d="M13.8495 13.8477C12.5578 13.8477 11.5078 14.8977 11.5078 16.1893C11.5078 17.481 12.5578 18.531 13.8495 18.531C15.1411 18.531 16.1911 17.481 16.1911 16.1893C16.1911 14.8977 15.1411 13.8477 13.8495 13.8477Z" fill="white"/>
</svg>
