<svg width="20" height="20" viewBox="0 0 20 20" fill="none" xmlns="http://www.w3.org/2000/svg">
<path d="M14.2001 8.86715L8.07504 2.74219L7.35004 2.01719C7.10838 1.77552 6.70838 1.77552 6.46671 2.01719C6.22504 2.25885 6.22504 2.65885 6.46671 2.90052L7.19171 3.62552L2.50004 8.31719C1.96671 8.85048 1.68338 9.39214 1.66671 9.93381C1.65004 10.5088 1.93338 11.0838 2.50004 11.6588L5.84171 15.0005C6.95838 16.1088 8.07504 16.1088 9.18341 15.0005L14.2001 9.98381C14.3667 9.81715 14.4417 9.59215 14.4251 9.37548C14.4167 9.19215 14.3334 9.00048 14.2001 8.86715Z" fill="white"/>
<path d="M13.3333 18.957H2.5C2.15833 18.957 1.875 18.6737 1.875 18.332C1.875 17.9904 2.15833 17.707 2.5 17.707H13.3333C13.675 17.707 13.9583 17.9904 13.9583 18.332C13.9583 18.6737 13.675 18.957 13.3333 18.957Z" fill="white"/>
<path d="M16.125 12.3156C15.9083 12.0823 15.5083 12.0823 15.2917 12.3156C15.0333 12.599 13.75 14.0406 13.75 15.1406C13.75 16.224 14.625 17.099 15.7083 17.099C16.7917 17.099 17.6667 16.224 17.6667 15.1406C17.6667 14.049 16.3833 12.599 16.125 12.3156Z" fill="white"/>
</svg>
