<svg width="20" height="20" viewBox="0 0 20 20" fill="none" xmlns="http://www.w3.org/2000/svg">
<path d="M13.492 1.66797H6.50866C3.47533 1.66797 1.66699 3.4763 1.66699 6.50964V13.4846C1.66699 16.5263 3.47533 18.3346 6.50866 18.3346H13.4837C16.517 18.3346 18.3253 16.5263 18.3253 13.493V6.50964C18.3337 3.4763 16.5253 1.66797 13.492 1.66797ZM7.55033 13.543L5.41699 11.4013C5.05033 11.0346 4.87533 10.668 4.88366 10.293C4.89199 9.94297 5.07533 9.6013 5.41699 9.25963L8.41699 6.25964L7.95033 5.8013C7.79199 5.64297 7.79199 5.39297 7.95033 5.23464C8.10866 5.0763 8.35866 5.0763 8.51699 5.23464L8.97533 5.69297L12.892 9.60964C12.9753 9.69297 13.0337 9.81797 13.0337 9.93464C13.042 10.0763 13.0003 10.218 12.892 10.3263L9.68366 13.5346C8.98366 14.2513 8.26699 14.2513 7.55033 13.543ZM13.867 14.8846C13.1753 14.8846 12.617 14.3263 12.617 13.6346C12.617 12.9346 13.442 12.0096 13.6087 11.8263C13.742 11.6763 14.0003 11.6763 14.142 11.8263C14.3087 12.0013 15.1337 12.9346 15.1337 13.6346C15.117 14.3263 14.5587 14.8846 13.867 14.8846Z" fill="white"/>
</svg>
