<svg width="20" height="20" viewBox="0 0 20 20" fill="none" xmlns="http://www.w3.org/2000/svg">
<path d="M8.83366 3.45964C8.83366 3.61797 8.70033 3.7513 8.54199 3.7513H7.60033C5.80033 3.7513 4.33366 5.21797 4.33366 7.01797V14.7096C4.33366 14.868 4.20033 15.0013 4.04199 15.0013H3.45866C2.46699 15.0013 1.66699 14.2013 1.66699 13.2096V3.45964C1.66699 2.46797 2.46699 1.66797 3.45866 1.66797H7.04199C8.03366 1.66797 8.83366 2.46797 8.83366 3.45964Z" fill="white"/>
<path d="M18.3337 3.45964V13.2096C18.3337 14.2013 17.5337 15.0013 16.542 15.0013H16.017C15.8587 15.0013 15.7253 14.868 15.7253 14.7096V7.01797C15.7253 5.21797 14.2587 3.7513 12.4587 3.7513H11.4587C11.3003 3.7513 11.167 3.61797 11.167 3.45964C11.167 2.46797 11.967 1.66797 12.9587 1.66797H16.542C17.5337 1.66797 18.3337 2.46797 18.3337 3.45964Z" fill="white"/>
<path d="M12.459 5H7.60065C6.48398 5 5.58398 5.9 5.58398 7.01667V16.3167C5.58398 17.4333 6.48398 18.3333 7.60065 18.3333H8.95898C9.19232 18.3333 9.37565 18.15 9.37565 17.9167V15.8333C9.37565 15.4917 9.65898 15.2083 10.0007 15.2083C10.3423 15.2083 10.6257 15.4917 10.6257 15.8333V17.9167C10.6257 18.15 10.809 18.3333 11.0423 18.3333H12.4673C13.5757 18.3333 14.4757 17.4333 14.4757 16.325V7.01667C14.4757 5.9 13.5757 5 12.459 5ZM11.6673 12.2917H8.33398C7.99232 12.2917 7.70898 12.0083 7.70898 11.6667C7.70898 11.325 7.99232 11.0417 8.33398 11.0417H11.6673C12.009 11.0417 12.2923 11.325 12.2923 11.6667C12.2923 12.0083 12.009 12.2917 11.6673 12.2917ZM11.6673 9.79167H8.33398C7.99232 9.79167 7.70898 9.50833 7.70898 9.16667C7.70898 8.825 7.99232 8.54167 8.33398 8.54167H11.6673C12.009 8.54167 12.2923 8.825 12.2923 9.16667C12.2923 9.50833 12.009 9.79167 11.6673 9.79167Z" fill="white"/>
</svg>
