<svg width="20" height="20" viewBox="0 0 20 20" fill="none" xmlns="http://www.w3.org/2000/svg">
<path d="M12.5 5.88958C12.5 5.33125 12.225 4.81458 11.7583 4.50625L8.425 2.28125C7.86667 1.90625 7.13333 1.90625 6.575 2.28125L3.24167 4.50625C2.78333 4.81458 2.5 5.33125 2.5 5.88958V10.6229C2.5 10.8562 2.68333 11.0395 2.91667 11.0395H12.0833C12.3167 11.0395 12.5 10.8562 12.5 10.6229V5.88958ZM7.5 8.95622C6.7 8.95622 6.04167 8.29792 6.04167 7.49792C6.04167 6.69792 6.7 6.03958 7.5 6.03958C8.3 6.03958 8.95833 6.69792 8.95833 7.49792C8.95833 8.29792 8.3 8.95622 7.5 8.95622Z" fill="white"/>
<path d="M18.3337 17.7086H17.2753V15.2086C18.067 14.9503 18.642 14.2086 18.642 13.3336V11.6669C18.642 10.5753 17.7503 9.68359 16.6587 9.68359C15.567 9.68359 14.6753 10.5753 14.6753 11.6669V13.3336C14.6753 14.2003 15.242 14.9336 16.017 15.2003V17.7086H12.5003V12.7086C12.5003 12.4753 12.317 12.2919 12.0837 12.2919H2.91699C2.68366 12.2919 2.50033 12.4753 2.50033 12.7086V17.7086H1.66699C1.32533 17.7086 1.04199 17.9919 1.04199 18.3336C1.04199 18.6753 1.32533 18.9586 1.66699 18.9586H16.6087C16.6253 18.9586 16.6337 18.9669 16.6503 18.9669C16.667 18.9669 16.6753 18.9586 16.692 18.9586H18.3337C18.6753 18.9586 18.9587 18.6753 18.9587 18.3336C18.9587 17.9919 18.6753 17.7086 18.3337 17.7086ZM6.87533 15.2086C6.87533 14.8669 7.15866 14.5836 7.50033 14.5836C7.84199 14.5836 8.12533 14.8669 8.12533 15.2086V17.7086H6.87533V15.2086Z" fill="white"/>
</svg>
