<svg width="20" height="20" viewBox="0 0 20 20" fill="none" xmlns="http://www.w3.org/2000/svg">
<path d="M8.95826 3.86826L5.26661 2.04326C3.27494 1.06826 1.6416 2.05993 1.6416 4.24326V16.6099C1.6416 17.5599 2.43327 18.3349 3.39994 18.3349H9.58326C10.0416 18.3349 10.4166 17.9599 10.4166 17.5015V6.17659C10.4166 5.30159 9.75826 4.25993 8.95826 3.86826ZM7.47494 11.4599H4.58327C4.2416 11.4599 3.95827 11.1766 3.95827 10.8349C3.95827 10.4932 4.2416 10.2099 4.58327 10.2099H7.47494C7.8166 10.2099 8.09994 10.4932 8.09994 10.8349C8.09994 11.1766 7.82494 11.4599 7.47494 11.4599ZM7.47494 8.12659H4.58327C4.2416 8.12659 3.95827 7.84326 3.95827 7.50159C3.95827 7.15993 4.2416 6.87659 4.58327 6.87659H7.47494C7.8166 6.87659 8.09994 7.15993 8.09994 7.50159C8.09994 7.84326 7.82494 8.12659 7.47494 8.12659Z" fill="white"/>
<path d="M18.3337 15.0312V16.2479C18.3337 17.3979 17.4003 18.3312 16.2503 18.3312H12.4753C12.0253 18.3312 11.667 17.9729 11.667 17.5229V15.7229C12.5587 15.8312 13.5003 15.5729 14.1753 15.0312C14.742 15.4896 15.467 15.7646 16.2587 15.7646C17.0337 15.7646 17.7587 15.4896 18.3337 15.0312Z" fill="white"/>
<path d="M18.3337 12.5427V12.5511C18.267 13.6427 17.3753 14.5177 16.2587 14.5177C15.1003 14.5177 14.1753 13.5761 14.1753 12.4344C14.1753 13.7094 13.0003 14.7344 11.667 14.4761V10.0011C11.667 9.46774 12.1587 9.06774 12.6837 9.18441L14.1753 9.51774L14.5753 9.60941L16.2753 9.99274C16.6837 10.0761 17.0587 10.2177 17.3837 10.4261C17.3837 10.4344 17.392 10.4344 17.392 10.4344C17.4753 10.4927 17.5587 10.5594 17.6337 10.6344C18.017 11.0177 18.267 11.5761 18.3253 12.3927C18.3253 12.4427 18.3337 12.4927 18.3337 12.5427Z" fill="white"/>
</svg>
