<svg width="20" height="20" viewBox="0 0 20 20" fill="none" xmlns="http://www.w3.org/2000/svg">
<path d="M4.16699 6.66797C2.78366 6.66797 1.66699 7.78464 1.66699 9.16797V15.8346C1.66699 17.218 2.78366 18.3346 4.16699 18.3346H5.41699C6.33366 18.3346 7.08366 17.5846 7.08366 16.668V8.33464C7.08366 7.41797 6.33366 6.66797 5.41699 6.66797H4.16699ZM5.00033 14.168C5.00033 14.5096 4.71699 14.793 4.37533 14.793C4.03366 14.793 3.75033 14.5096 3.75033 14.168V10.8346C3.75033 10.493 4.03366 10.2096 4.37533 10.2096C4.71699 10.2096 5.00033 10.493 5.00033 10.8346V14.168Z" fill="white"/>
<path d="M15.833 1.66797H10.833C9.44967 1.66797 8.33301 2.78464 8.33301 4.16797V15.8346C8.33301 17.218 9.44967 18.3346 10.833 18.3346H11.2497C11.483 18.3346 11.6663 18.1513 11.6663 17.918V15.0013C11.6663 14.543 12.0413 14.168 12.4997 14.168H14.1663C14.6247 14.168 14.9997 14.543 14.9997 15.0013V17.918C14.9997 18.1513 15.183 18.3346 15.4163 18.3346H15.833C17.2163 18.3346 18.333 17.218 18.333 15.8346V4.16797C18.333 2.78464 17.2163 1.66797 15.833 1.66797ZM12.2913 10.8346C12.2913 11.1763 12.008 11.4596 11.6663 11.4596C11.3247 11.4596 11.0413 11.1763 11.0413 10.8346V6.66797C11.0413 6.3263 11.3247 6.04297 11.6663 6.04297C12.008 6.04297 12.2913 6.3263 12.2913 6.66797V10.8346ZM15.6247 10.8346C15.6247 11.1763 15.3413 11.4596 14.9997 11.4596C14.658 11.4596 14.3747 11.1763 14.3747 10.8346V6.66797C14.3747 6.3263 14.658 6.04297 14.9997 6.04297C15.3413 6.04297 15.6247 6.3263 15.6247 6.66797V10.8346Z" fill="white"/>
</svg>
