<svg width="20" height="20" viewBox="0 0 20 20" fill="none" xmlns="http://www.w3.org/2000/svg">
<path d="M3.33301 11.2487V15.7487C3.33301 17.1654 4.49134 18.332 5.91634 18.332H14.083C15.4997 18.332 16.6663 17.1737 16.6663 15.7487V11.2487C16.6663 11.0154 16.483 10.832 16.2497 10.832H3.74967C3.51634 10.832 3.33301 11.0154 3.33301 11.2487ZM7.39967 15.3154C7.20801 15.5154 6.94134 15.6237 6.66634 15.6237C6.59967 15.6237 6.53301 15.6154 6.46634 15.607C6.39967 15.5904 6.33301 15.5737 6.26634 15.5404C6.20801 15.5154 6.14134 15.482 6.09134 15.4487C6.03301 15.407 5.97467 15.3654 5.93301 15.3154C5.73301 15.1237 5.62467 14.857 5.62467 14.582C5.62467 14.307 5.73301 14.0404 5.93301 13.8487C5.97467 13.7987 6.03301 13.757 6.09134 13.7154C6.14134 13.682 6.20801 13.6487 6.26634 13.6237C6.33301 13.5904 6.39967 13.5737 6.46634 13.557C6.79967 13.4904 7.15801 13.607 7.39967 13.8487C7.59967 14.0404 7.70801 14.307 7.70801 14.582C7.70801 14.857 7.59967 15.1237 7.39967 15.3154ZM14.0663 15.3154C14.0247 15.3654 13.9663 15.407 13.908 15.4487C13.858 15.482 13.7913 15.5154 13.733 15.5404C13.6663 15.5737 13.5997 15.5904 13.5413 15.607C13.4663 15.6154 13.3997 15.6237 13.333 15.6237C13.2663 15.6237 13.1997 15.6154 13.133 15.607C13.0663 15.5904 12.9997 15.5737 12.933 15.5404C12.8747 15.5154 12.808 15.482 12.758 15.4487C12.6997 15.407 12.6413 15.3654 12.5997 15.3154C12.3997 15.1237 12.2913 14.857 12.2913 14.582C12.2913 14.307 12.3997 14.0404 12.5997 13.8487C12.6413 13.7987 12.6997 13.757 12.758 13.7154C12.808 13.682 12.8747 13.6487 12.933 13.6237C12.9997 13.5904 13.0663 13.5737 13.133 13.557C13.2663 13.532 13.3997 13.532 13.5413 13.557C13.5997 13.5737 13.6663 13.5904 13.733 13.6237C13.7913 13.6487 13.858 13.682 13.908 13.7154C13.9663 13.757 14.0247 13.7987 14.0663 13.8487C14.2663 14.0404 14.3747 14.307 14.3747 14.582C14.3747 14.857 14.2663 15.1237 14.0663 15.3154Z" fill="white"/>
<path d="M14.083 1.66797H5.91634C4.49134 1.66797 3.33301 2.8263 3.33301 4.2513V6.2513C3.33301 6.48464 3.51634 6.66797 3.74967 6.66797H16.2497C16.483 6.66797 16.6663 6.48464 16.6663 6.2513V4.2513C16.6663 2.8263 15.508 1.66797 14.083 1.66797ZM12.083 4.79297H7.91634C7.57467 4.79297 7.29134 4.50964 7.29134 4.16797C7.29134 3.8263 7.57467 3.54297 7.91634 3.54297H12.083C12.4247 3.54297 12.708 3.8263 12.708 4.16797C12.708 4.50964 12.4247 4.79297 12.083 4.79297Z" fill="white"/>
<path d="M16.2497 10H3.74967C3.51634 10 3.33301 9.81667 3.33301 9.58333V7.91667C3.33301 7.68333 3.51634 7.5 3.74967 7.5H16.2497C16.483 7.5 16.6663 7.68333 16.6663 7.91667V9.58333C16.6663 9.81667 16.483 10 16.2497 10Z" fill="white"/>
</svg>
