<svg width="20" height="20" viewBox="0 0 20 20" fill="none" xmlns="http://www.w3.org/2000/svg">
<path d="M18.3331 7.08464C18.3331 9.8013 16.3331 12.043 13.7331 12.4346V12.3846C13.4748 9.1513 10.8498 6.5263 7.59141 6.26797H7.56641C7.95807 3.66797 10.1998 1.66797 12.9164 1.66797C15.9081 1.66797 18.3331 4.09297 18.3331 7.08464Z" fill="white"/>
<path d="M12.4837 12.4833C12.2753 9.84167 10.1587 7.725 7.51699 7.51667C7.37533 7.50833 7.22533 7.5 7.08366 7.5C4.09199 7.5 1.66699 9.925 1.66699 12.9167C1.66699 15.9083 4.09199 18.3333 7.08366 18.3333C10.0753 18.3333 12.5003 15.9083 12.5003 12.9167C12.5003 12.775 12.492 12.625 12.4837 12.4833ZM7.81699 13.65L7.08366 15L6.35033 13.65L5.00033 12.9167L6.35033 12.1833L7.08366 10.8333L7.81699 12.1833L9.16699 12.9167L7.81699 13.65Z" fill="white"/>
</svg>
