<svg width="20" height="20" viewBox="0 0 20 20" fill="none" xmlns="http://www.w3.org/2000/svg">
<path d="M13.9582 2.96797V1.66797C13.9582 1.3263 13.6748 1.04297 13.3332 1.04297C12.9915 1.04297 12.7082 1.3263 12.7082 1.66797V2.91797H7.29153V1.66797C7.29153 1.3263 7.0082 1.04297 6.66653 1.04297C6.32487 1.04297 6.04153 1.3263 6.04153 1.66797V2.96797C3.79153 3.1763 2.69987 4.51797 2.5332 6.50964C2.51653 6.7513 2.71653 6.9513 2.94987 6.9513H17.0498C17.2915 6.9513 17.4915 6.74297 17.4665 6.50964C17.2998 4.51797 16.2082 3.1763 13.9582 2.96797Z" fill="white"/>
<path d="M16.6667 8.19922H3.33333C2.875 8.19922 2.5 8.57419 2.5 9.03252V14.1659C2.5 16.6659 3.75 18.3325 6.66667 18.3325H10.775C11.35 18.3325 11.75 17.7742 11.5667 17.2325C11.4 16.7492 11.2583 16.2159 11.2583 15.8325C11.2583 13.3075 13.3167 11.2492 15.8417 11.2492C16.0833 11.2492 16.325 11.2659 16.5583 11.3075C17.0583 11.3825 17.5083 10.9909 17.5083 10.4909V9.04085C17.5 8.57419 17.125 8.19922 16.6667 8.19922ZM7.675 14.7575C7.51667 14.9075 7.3 14.9992 7.08333 14.9992C6.975 14.9992 6.86667 14.9742 6.76667 14.9325C6.66667 14.8909 6.575 14.8325 6.49167 14.7575C6.34167 14.5992 6.25 14.3909 6.25 14.1659C6.25 14.0575 6.275 13.9492 6.31667 13.8492C6.35833 13.7409 6.41667 13.6575 6.49167 13.5742C6.575 13.4992 6.66667 13.4409 6.76667 13.3992C7.06667 13.2659 7.44167 13.3409 7.675 13.5742C7.75 13.6575 7.80833 13.7409 7.85 13.8492C7.89167 13.9492 7.91667 14.0575 7.91667 14.1659C7.91667 14.3909 7.825 14.5992 7.675 14.7575ZM7.675 11.8409C7.51667 11.9909 7.3 12.0825 7.08333 12.0825C6.975 12.0825 6.86667 12.0659 6.76667 12.0159C6.66667 11.9742 6.575 11.9159 6.49167 11.8409C6.34167 11.6825 6.25 11.4659 6.25 11.2492C6.25 11.1409 6.275 11.0325 6.31667 10.9325C6.35833 10.8325 6.41667 10.7409 6.49167 10.6575C6.575 10.5825 6.66667 10.5242 6.76667 10.4825C7.06667 10.3575 7.44167 10.4242 7.675 10.6575C7.75 10.7409 7.80833 10.8325 7.85 10.9325C7.89167 11.0325 7.91667 11.1409 7.91667 11.2492C7.91667 11.4659 7.825 11.6825 7.675 11.8409ZM10.7667 11.5659C10.725 11.6659 10.6667 11.7575 10.5917 11.8409C10.5083 11.9159 10.4167 11.9742 10.3167 12.0159C10.2167 12.0659 10.1083 12.0825 10 12.0825C9.78333 12.0825 9.56667 11.9909 9.40833 11.8409C9.33333 11.7575 9.275 11.6659 9.23333 11.5659C9.19167 11.4659 9.16667 11.3575 9.16667 11.2492C9.16667 11.0325 9.25833 10.8159 9.40833 10.6575C9.64167 10.4242 10.0083 10.3492 10.3167 10.4825C10.4167 10.5242 10.5083 10.5825 10.5917 10.6575C10.7417 10.8159 10.8333 11.0325 10.8333 11.2492C10.8333 11.3575 10.8167 11.4659 10.7667 11.5659Z" fill="white"/>
<path d="M15.8333 12.5C13.9917 12.5 12.5 13.9917 12.5 15.8333C12.5 17.675 13.9917 19.1667 15.8333 19.1667C17.675 19.1667 19.1667 17.675 19.1667 15.8333C19.1667 13.9917 17.675 12.5 15.8333 12.5ZM17.1667 17.2C17.0417 17.325 16.8833 17.3833 16.725 17.3833C16.5667 17.3833 16.4083 17.325 16.2833 17.2L15.8417 16.7583L15.3833 17.2167C15.2583 17.3417 15.1 17.4 14.9417 17.4C14.7833 17.4 14.625 17.3417 14.5 17.2167C14.2583 16.975 14.2583 16.575 14.5 16.3333L14.9583 15.875L14.5167 15.4333C14.275 15.1917 14.275 14.7917 14.5167 14.55C14.7583 14.3083 15.1583 14.3083 15.4 14.55L15.8417 15L16.2583 14.5833C16.5 14.3417 16.9 14.3417 17.1417 14.5833C17.3833 14.825 17.3833 15.225 17.1417 15.4667L16.725 15.8833L17.1667 16.325C17.4083 16.5667 17.4083 16.9583 17.1667 17.2Z" fill="white"/>
</svg>
