<svg width="20" height="20" viewBox="0 0 20 20" fill="none" xmlns="http://www.w3.org/2000/svg">
<path d="M6.875 4.79297C6.53333 4.79297 6.25 4.50964 6.25 4.16797V1.66797C6.25 1.3263 6.53333 1.04297 6.875 1.04297C7.21667 1.04297 7.5 1.3263 7.5 1.66797V4.16797C7.5 4.50964 7.21667 4.79297 6.875 4.79297Z" fill="white"/>
<path d="M13.125 4.79297C12.7833 4.79297 12.5 4.50964 12.5 4.16797V1.66797C12.5 1.3263 12.7833 1.04297 13.125 1.04297C13.4667 1.04297 13.75 1.3263 13.75 1.66797V4.16797C13.75 4.50964 13.4667 4.79297 13.125 4.79297Z" fill="white"/>
<path d="M10 11.743C10.4333 11.743 10.75 11.4846 10.75 11.0763C10.75 10.6596 10.4333 10.418 10 10.418C9.56667 10.418 9.25 10.6596 9.25 11.0763C9.25 11.4846 9.56667 11.743 10 11.743Z" fill="white"/>
<path d="M10.0008 14.1672C10.5254 14.1672 10.9508 13.8202 10.9508 13.3922C10.9508 12.9642 10.5254 12.6172 10.0008 12.6172C9.47603 12.6172 9.05078 12.9642 9.05078 13.3922C9.05078 13.8202 9.47603 14.1672 10.0008 14.1672Z" fill="white"/>
<path d="M16.308 3.7513C15.758 3.34297 14.9663 3.73464 14.9663 4.4263V4.50964C14.9663 5.48464 14.2663 6.38464 13.2913 6.48464C12.1663 6.6013 11.2163 5.71797 11.2163 4.61797V3.7513C11.2163 3.29297 10.8413 2.91797 10.383 2.91797H9.61634C9.15801 2.91797 8.78301 3.29297 8.78301 3.7513V4.61797C8.78301 5.2763 8.44134 5.85964 7.92467 6.18464C7.84967 6.23464 7.76634 6.2763 7.68301 6.31797C7.60801 6.35964 7.52467 6.39297 7.43301 6.41797C7.33301 6.4513 7.22467 6.4763 7.10801 6.48464C6.97467 6.5013 6.84134 6.5013 6.70801 6.48464C6.59134 6.4763 6.48301 6.4513 6.38301 6.41797C6.29967 6.39297 6.21634 6.35964 6.13301 6.31797C6.04967 6.2763 5.96634 6.23464 5.89134 6.18464C5.36634 5.81797 5.03301 5.18464 5.03301 4.50964V4.4263C5.03301 3.78464 4.34967 3.4013 3.80801 3.6763C3.79967 3.68464 3.79134 3.68464 3.78301 3.69297C3.74967 3.70964 3.72467 3.7263 3.69134 3.7513C3.66634 3.7763 3.63301 3.79297 3.60801 3.81797C3.37467 4.0013 3.16634 4.20964 2.99134 4.43464C2.89967 4.53464 2.82467 4.64297 2.75801 4.7513C2.74967 4.75964 2.74134 4.76797 2.73301 4.78464C2.65801 4.89297 2.59134 5.01797 2.53301 5.13464C2.51634 5.1513 2.50801 5.15964 2.50801 5.1763C2.45801 5.2763 2.40801 5.3763 2.37467 5.48464C2.34967 5.5263 2.34134 5.55964 2.32467 5.6013C2.27467 5.7263 2.24134 5.8513 2.20801 5.9763C2.17467 6.09297 2.14967 6.21797 2.13301 6.34297C2.11634 6.43464 2.10801 6.5263 2.09967 6.6263C2.09134 6.74297 2.08301 6.85964 2.08301 6.9763V14.2763C2.08301 16.518 3.89967 18.3346 6.14134 18.3346H13.858C16.0997 18.3346 17.9163 16.518 17.9163 14.2763V6.9763C17.9163 5.6513 17.283 4.49297 16.308 3.7513ZM9.99967 15.2096C8.70801 15.2096 7.91634 14.568 7.91634 13.5346C7.91634 12.968 8.20801 12.4763 8.71634 12.1846C8.34967 11.9263 8.10801 11.543 8.10801 11.018C8.10801 9.93464 8.97467 9.3763 9.99967 9.3763C11.0247 9.3763 11.883 9.93464 11.883 11.018C11.883 11.543 11.6497 11.9263 11.2747 12.1846C11.7913 12.4763 12.083 12.968 12.083 13.5346C12.083 14.568 11.283 15.2096 9.99967 15.2096Z" fill="white"/>
</svg>
