<svg width="20" height="20" viewBox="0 0 20 20" fill="none" xmlns="http://www.w3.org/2000/svg">
<path d="M13.9582 2.96797V1.66797C13.9582 1.3263 13.6748 1.04297 13.3332 1.04297C12.9915 1.04297 12.7082 1.3263 12.7082 1.66797V2.91797H7.29153V1.66797C7.29153 1.3263 7.0082 1.04297 6.66653 1.04297C6.32487 1.04297 6.04153 1.3263 6.04153 1.66797V2.96797C3.79153 3.1763 2.69987 4.51797 2.5332 6.50964C2.51653 6.7513 2.71653 6.9513 2.94987 6.9513H17.0498C17.2915 6.9513 17.4915 6.74297 17.4665 6.50964C17.2998 4.51797 16.2082 3.1763 13.9582 2.96797Z" fill="white"/>
<path d="M16.6667 8.19922H3.33333C2.875 8.19922 2.5 8.57419 2.5 9.03252V14.1659C2.5 16.6659 3.75 18.3325 6.66667 18.3325H13.3333C16.25 18.3325 17.5 16.6659 17.5 14.1659V9.03252C17.5 8.57419 17.125 8.19922 16.6667 8.19922ZM13.05 16.2742C12.925 16.3992 12.7667 16.4575 12.6083 16.4575C12.45 16.4575 12.2917 16.3992 12.1667 16.2742L11.55 15.6575C11.0667 15.9742 10.4833 16.1659 9.85833 16.1659C8.15833 16.1659 6.775 14.7825 6.775 13.0825C6.775 11.3825 8.15833 9.99919 9.85833 9.99919C11.5583 9.99919 12.9417 11.3825 12.9417 13.0825C12.9417 13.7075 12.75 14.2909 12.4333 14.7742L13.05 15.3909C13.2917 15.6325 13.2917 16.0325 13.05 16.2742Z" fill="white"/>
</svg>
