<svg width="20" height="20" viewBox="0 0 20 20" fill="none" xmlns="http://www.w3.org/2000/svg">
<path d="M13.9582 2.96797V1.66797C13.9582 1.3263 13.6748 1.04297 13.3332 1.04297C12.9915 1.04297 12.7082 1.3263 12.7082 1.66797V2.91797H7.29153V1.66797C7.29153 1.3263 7.0082 1.04297 6.66653 1.04297C6.32487 1.04297 6.04153 1.3263 6.04153 1.66797V2.96797C3.79153 3.1763 2.69987 4.51797 2.5332 6.50964C2.51653 6.7513 2.71653 6.9513 2.94987 6.9513H17.0498C17.2915 6.9513 17.4915 6.74297 17.4665 6.50964C17.2998 4.51797 16.2082 3.1763 13.9582 2.96797Z" fill="white"/>
<path d="M16.6667 8.19922H3.33333C2.875 8.19922 2.5 8.57419 2.5 9.03252V14.1659C2.5 16.6659 3.75 18.3325 6.66667 18.3325H13.3333C16.25 18.3325 17.5 16.6659 17.5 14.1659V9.03252C17.5 8.57419 17.125 8.19922 16.6667 8.19922ZM12.3667 12.4909L11.95 12.9159H11.9417L9.41667 15.4409C9.30833 15.5492 9.08333 15.6659 8.925 15.6825L7.8 15.8492C7.39167 15.9075 7.10833 15.6159 7.16667 15.2159L7.325 14.0825C7.35 13.9242 7.45833 13.7075 7.56667 13.5909L10.1 11.0659L10.5167 10.6409C10.7917 10.3659 11.1 10.1659 11.4333 10.1659C11.7167 10.1659 12.025 10.2992 12.3667 10.6409C13.1167 11.3909 12.875 11.9825 12.3667 12.4909Z" fill="white"/>
</svg>
