<svg width="20" height="20" viewBox="0 0 20 20" fill="none" xmlns="http://www.w3.org/2000/svg">
<path d="M10.0003 1.66797C5.40033 1.66797 1.66699 5.4013 1.66699 10.0013C1.66699 14.6013 5.40033 18.3346 10.0003 18.3346C14.6003 18.3346 18.3337 14.6013 18.3337 10.0013C18.3337 5.4013 14.6003 1.66797 10.0003 1.66797ZM5.70866 7.86797C6.05866 7.05963 6.71699 6.43464 7.62533 6.1513V5.48464C7.62533 5.14297 7.90866 4.85964 8.25033 4.85964C8.59199 4.85964 8.87533 5.14297 8.87533 5.48464V5.9763H11.1337V5.48464C11.1337 5.14297 11.417 4.85964 11.7587 4.85964C12.1003 4.85964 12.3837 5.14297 12.3837 5.48464V6.14297C13.292 6.4263 13.9503 7.0513 14.3003 7.85964C14.417 8.13464 14.217 8.4513 13.917 8.4513H6.09199C5.79199 8.4513 5.59199 8.14297 5.70866 7.86797ZM14.5837 11.8096C14.5837 13.643 13.3337 15.143 11.2503 15.143H8.75033C6.66699 15.143 5.41699 13.643 5.41699 11.8096V9.7013C5.41699 9.46797 5.60033 9.28464 5.83366 9.28464H14.167C14.4003 9.28464 14.5837 9.46797 14.5837 9.7013V11.8096Z" fill="white"/>
</svg>
