<svg width="20" height="20" viewBox="0 0 20 20" fill="none" xmlns="http://www.w3.org/2000/svg">
<path d="M13.9582 2.96797V1.66797C13.9582 1.3263 13.6748 1.04297 13.3332 1.04297C12.9915 1.04297 12.7082 1.3263 12.7082 1.66797V2.91797H7.29153V1.66797C7.29153 1.3263 7.0082 1.04297 6.66653 1.04297C6.32487 1.04297 6.04153 1.3263 6.04153 1.66797V2.96797C3.79153 3.1763 2.69987 4.51797 2.5332 6.50964C2.51653 6.7513 2.71653 6.9513 2.94987 6.9513H17.0498C17.2915 6.9513 17.4915 6.74297 17.4665 6.50964C17.2998 4.51797 16.2082 3.1763 13.9582 2.96797Z" fill="white"/>
<path d="M16.6667 8.19922H3.33333C2.875 8.19922 2.5 8.57419 2.5 9.03252V14.1659C2.5 16.6659 3.75 18.3325 6.66667 18.3325H10.775C11.35 18.3325 11.75 17.7742 11.5667 17.2325C11.4 16.7492 11.2583 16.2159 11.2583 15.8325C11.2583 13.3075 13.3167 11.2492 15.8417 11.2492C16.0833 11.2492 16.325 11.2659 16.5583 11.3075C17.0583 11.3825 17.5083 10.9909 17.5083 10.4909V9.04085C17.5 8.57419 17.125 8.19922 16.6667 8.19922ZM7.675 14.7575C7.59167 14.8325 7.5 14.8909 7.4 14.9325C7.3 14.9742 7.19167 14.9992 7.08333 14.9992C6.975 14.9992 6.86667 14.9742 6.76667 14.9325C6.66667 14.8909 6.575 14.8325 6.49167 14.7575C6.34167 14.5992 6.25 14.3825 6.25 14.1659C6.25 14.1159 6.25833 14.0575 6.26667 14.0075C6.275 13.9492 6.29167 13.8992 6.31667 13.8492C6.33333 13.7992 6.35833 13.7492 6.39167 13.6992C6.41667 13.6575 6.45833 13.6159 6.49167 13.5742C6.575 13.4992 6.66667 13.4409 6.76667 13.3992C6.96667 13.3159 7.2 13.3159 7.4 13.3992C7.5 13.4409 7.59167 13.4992 7.675 13.5742C7.70833 13.6159 7.75 13.6575 7.775 13.6992C7.80833 13.7492 7.83333 13.7992 7.85 13.8492C7.875 13.8992 7.89167 13.9492 7.9 14.0075C7.90833 14.0575 7.91667 14.1159 7.91667 14.1659C7.91667 14.3825 7.825 14.5992 7.675 14.7575ZM7.675 11.8409C7.59167 11.9159 7.5 11.9742 7.4 12.0159C7.3 12.0575 7.19167 12.0825 7.08333 12.0825C6.975 12.0825 6.86667 12.0575 6.76667 12.0159C6.65833 11.9742 6.575 11.9159 6.49167 11.8409C6.34167 11.6825 6.25 11.4659 6.25 11.2492C6.25 11.0325 6.34167 10.8159 6.49167 10.6575C6.575 10.5825 6.66667 10.5242 6.76667 10.4825C6.96667 10.3992 7.2 10.3992 7.4 10.4825C7.5 10.5242 7.59167 10.5825 7.675 10.6575C7.70833 10.6992 7.75 10.7409 7.775 10.7825C7.80833 10.8325 7.83333 10.8825 7.85 10.9325C7.875 10.9825 7.89167 11.0325 7.9 11.0825C7.90833 11.1409 7.91667 11.1992 7.91667 11.2492C7.91667 11.4659 7.825 11.6825 7.675 11.8409ZM10.5917 11.8409C10.4333 11.9909 10.225 12.0825 10 12.0825C9.89167 12.0825 9.78333 12.0575 9.68333 12.0159C9.575 11.9742 9.49167 11.9159 9.40833 11.8409C9.25833 11.6825 9.16667 11.4659 9.16667 11.2492C9.16667 11.1992 9.175 11.1409 9.18333 11.0825C9.19167 11.0325 9.20833 10.9825 9.23333 10.9325C9.25 10.8825 9.275 10.8325 9.30833 10.7825C9.34167 10.7409 9.375 10.6992 9.40833 10.6575C9.71667 10.3492 10.275 10.3492 10.5917 10.6575C10.625 10.6992 10.6583 10.7409 10.6917 10.7825C10.725 10.8325 10.75 10.8825 10.7667 10.9325C10.7917 10.9825 10.8083 11.0325 10.8167 11.0825C10.825 11.1409 10.8333 11.1992 10.8333 11.2492C10.8333 11.4659 10.7417 11.6825 10.5917 11.8409Z" fill="white"/>
<path d="M18.1917 13.475C16.8917 12.175 14.775 12.175 13.475 13.475C12.175 14.775 12.175 16.8917 13.475 18.1917C14.775 19.4917 16.8917 19.4917 18.1917 18.1917C19.4917 16.8917 19.4917 14.775 18.1917 13.475ZM17.5583 16.3C17.45 16.4167 17.2917 16.4833 17.1167 16.4833H16.5V17.1333C16.5 17.3083 16.4333 17.4583 16.3167 17.575C16.2 17.6917 16.05 17.7583 15.875 17.7583C15.5333 17.7583 15.25 17.475 15.25 17.1333V16.4833H14.625C14.2833 16.4833 14 16.2083 14 15.8583C14 15.5167 14.2833 15.2333 14.625 15.2333H15.25V14.6417C15.25 14.3 15.525 14.0167 15.875 14.0167C16.2167 14.0167 16.5 14.3 16.5 14.6417V15.2333H17.1167C17.4667 15.2333 17.7417 15.5167 17.7417 15.8583C17.7417 16.0333 17.675 16.1917 17.5583 16.3Z" fill="white"/>
</svg>
