<svg width="20" height="20" viewBox="0 0 20 20" fill="none" xmlns="http://www.w3.org/2000/svg">
<path d="M13.9582 2.96797V1.66797C13.9582 1.3263 13.6748 1.04297 13.3332 1.04297C12.9915 1.04297 12.7082 1.3263 12.7082 1.66797V2.91797H7.29153V1.66797C7.29153 1.3263 7.0082 1.04297 6.66653 1.04297C6.32487 1.04297 6.04153 1.3263 6.04153 1.66797V2.96797C3.79153 3.1763 2.69987 4.51797 2.5332 6.50964C2.51653 6.7513 2.71653 6.9513 2.94987 6.9513H17.0498C17.2915 6.9513 17.4915 6.74297 17.4665 6.50964C17.2998 4.51797 16.2082 3.1763 13.9582 2.96797Z" fill="white"/>
<path d="M16.6667 8.19922H3.33333C2.875 8.19922 2.5 8.57419 2.5 9.03252V14.1659C2.5 16.6659 3.75 18.3325 6.66667 18.3325H13.3333C16.25 18.3325 17.5 16.6659 17.5 14.1659V9.03252C17.5 8.57419 17.125 8.19922 16.6667 8.19922ZM7.675 15.1742C7.59167 15.2492 7.5 15.3075 7.4 15.3492C7.3 15.3909 7.19167 15.4159 7.08333 15.4159C6.975 15.4159 6.86667 15.3909 6.76667 15.3492C6.66667 15.3075 6.575 15.2492 6.49167 15.1742C6.34167 15.0159 6.25 14.7992 6.25 14.5825C6.25 14.3659 6.34167 14.1492 6.49167 13.9909C6.575 13.9159 6.66667 13.8575 6.76667 13.8159C6.96667 13.7325 7.2 13.7325 7.4 13.8159C7.5 13.8575 7.59167 13.9159 7.675 13.9909C7.825 14.1492 7.91667 14.3659 7.91667 14.5825C7.91667 14.7992 7.825 15.0159 7.675 15.1742ZM7.85 11.9825C7.80833 12.0825 7.75 12.1742 7.675 12.2575C7.59167 12.3325 7.5 12.3909 7.4 12.4325C7.3 12.4742 7.19167 12.4992 7.08333 12.4992C6.975 12.4992 6.86667 12.4742 6.76667 12.4325C6.66667 12.3909 6.575 12.3325 6.49167 12.2575C6.41667 12.1742 6.35833 12.0825 6.31667 11.9825C6.275 11.8825 6.25 11.7742 6.25 11.6659C6.25 11.5575 6.275 11.4492 6.31667 11.3492C6.35833 11.2492 6.41667 11.1575 6.49167 11.0742C6.575 10.9992 6.66667 10.9409 6.76667 10.8992C6.96667 10.8159 7.2 10.8159 7.4 10.8992C7.5 10.9409 7.59167 10.9992 7.675 11.0742C7.75 11.1575 7.80833 11.2492 7.85 11.3492C7.89167 11.4492 7.91667 11.5575 7.91667 11.6659C7.91667 11.7742 7.89167 11.8825 7.85 11.9825ZM10.5917 12.2575C10.5083 12.3325 10.4167 12.3909 10.3167 12.4325C10.2167 12.4742 10.1083 12.4992 10 12.4992C9.89167 12.4992 9.78333 12.4742 9.68333 12.4325C9.58333 12.3909 9.49167 12.3325 9.40833 12.2575C9.25833 12.0992 9.16667 11.8825 9.16667 11.6659C9.16667 11.4492 9.25833 11.2325 9.40833 11.0742C9.49167 10.9992 9.58333 10.9409 9.68333 10.8992C9.88333 10.8075 10.1167 10.8075 10.3167 10.8992C10.4167 10.9409 10.5083 10.9992 10.5917 11.0742C10.7417 11.2325 10.8333 11.4492 10.8333 11.6659C10.8333 11.8825 10.7417 12.0992 10.5917 12.2575Z" fill="white"/>
</svg>
