<svg width="20" height="20" viewBox="0 0 20 20" fill="none" xmlns="http://www.w3.org/2000/svg">
<path d="M13.9582 2.96797V1.66797C13.9582 1.3263 13.6748 1.04297 13.3332 1.04297C12.9915 1.04297 12.7082 1.3263 12.7082 1.66797V2.91797H7.29153V1.66797C7.29153 1.3263 7.0082 1.04297 6.66653 1.04297C6.32487 1.04297 6.04153 1.3263 6.04153 1.66797V2.96797C3.79153 3.1763 2.69987 4.51797 2.5332 6.50964C2.51653 6.7513 2.71653 6.9513 2.94987 6.9513H17.0498C17.2915 6.9513 17.4915 6.74297 17.4665 6.50964C17.2998 4.51797 16.2082 3.1763 13.9582 2.96797Z" fill="white"/>
<path d="M15.8333 12.5C13.9917 12.5 12.5 13.9917 12.5 15.8333C12.5 16.4583 12.675 17.05 12.9833 17.55C13.5583 18.5167 14.6167 19.1667 15.8333 19.1667C17.05 19.1667 18.1083 18.5167 18.6833 17.55C18.9917 17.05 19.1667 16.4583 19.1667 15.8333C19.1667 13.9917 17.675 12.5 15.8333 12.5ZM17.5583 15.475L15.7833 17.1167C15.6667 17.225 15.5083 17.2833 15.3583 17.2833C15.2 17.2833 15.0417 17.225 14.9167 17.1L14.0917 16.275C13.85 16.0333 13.85 15.6333 14.0917 15.3917C14.3333 15.15 14.7333 15.15 14.975 15.3917L15.375 15.7917L16.7083 14.5583C16.9583 14.325 17.3583 14.3417 17.5917 14.5917C17.825 14.8417 17.8083 15.2333 17.5583 15.475Z" fill="white"/>
<path d="M16.6667 8.19922H3.33333C2.875 8.19922 2.5 8.57419 2.5 9.03252V14.1659C2.5 16.6659 3.75 18.3325 6.66667 18.3325H10.775C11.35 18.3325 11.75 17.7742 11.5667 17.2325C11.4 16.7492 11.2583 16.2159 11.2583 15.8325C11.2583 13.3075 13.3167 11.2492 15.8417 11.2492C16.0833 11.2492 16.325 11.2659 16.5583 11.3075C17.0583 11.3825 17.5083 10.9909 17.5083 10.4909V9.04085C17.5 8.57419 17.125 8.19922 16.6667 8.19922ZM7.675 15.1742C7.51667 15.3242 7.3 15.4159 7.08333 15.4159C6.86667 15.4159 6.65 15.3242 6.49167 15.1742C6.34167 15.0159 6.25 14.7992 6.25 14.5825C6.25 14.3659 6.34167 14.1492 6.49167 13.9909C6.575 13.9159 6.65833 13.8575 6.76667 13.8159C7.075 13.6825 7.44167 13.7575 7.675 13.9909C7.825 14.1492 7.91667 14.3659 7.91667 14.5825C7.91667 14.7992 7.825 15.0159 7.675 15.1742ZM7.675 12.2575C7.63333 12.2909 7.59167 12.3242 7.55 12.3575C7.5 12.3909 7.45 12.4159 7.4 12.4325C7.35 12.4575 7.3 12.4742 7.25 12.4825C7.19167 12.4909 7.13333 12.4992 7.08333 12.4992C6.86667 12.4992 6.65 12.4075 6.49167 12.2575C6.34167 12.0992 6.25 11.8825 6.25 11.6659C6.25 11.4492 6.34167 11.2325 6.49167 11.0742C6.68333 10.8825 6.975 10.7909 7.25 10.8492C7.3 10.8575 7.35 10.8742 7.4 10.8992C7.45 10.9159 7.5 10.9409 7.55 10.9742C7.59167 11.0075 7.63333 11.0409 7.675 11.0742C7.825 11.2325 7.91667 11.4492 7.91667 11.6659C7.91667 11.8825 7.825 12.0992 7.675 12.2575ZM10.5917 12.2575C10.4333 12.4075 10.2167 12.4992 10 12.4992C9.78333 12.4992 9.56667 12.4075 9.40833 12.2575C9.25833 12.0992 9.16667 11.8825 9.16667 11.6659C9.16667 11.4492 9.25833 11.2325 9.40833 11.0742C9.725 10.7659 10.2833 10.7659 10.5917 11.0742C10.7417 11.2325 10.8333 11.4492 10.8333 11.6659C10.8333 11.8825 10.7417 12.0992 10.5917 12.2575Z" fill="white"/>
</svg>
