<svg width="20" height="20" viewBox="0 0 20 20" fill="none" xmlns="http://www.w3.org/2000/svg">
<path d="M18.3332 15.2742C18.3332 15.5742 18.2665 15.8826 18.1248 16.1826C17.9832 16.4826 17.7998 16.7659 17.5582 17.0326C17.1498 17.4826 16.6998 17.8076 16.1915 18.0159C15.6915 18.2242 15.1415 18.3326 14.5582 18.3326C13.7082 18.3326 12.7998 18.1326 11.8415 17.7242C10.8832 17.3159 9.91651 16.7659 8.96651 16.0742C8.48317 15.7159 8.00814 15.3492 7.5498 14.9492L10.2665 12.2326C10.2748 12.2326 10.2748 12.2326 10.2832 12.2409C10.7165 12.6076 11.0748 12.8576 11.3582 13.0076C11.3998 13.0242 11.4498 13.0492 11.5082 13.0742C11.5748 13.0992 11.6415 13.1076 11.7165 13.1076C11.8582 13.1076 11.9665 13.0576 12.0582 12.9659L12.6915 12.3409C12.8998 12.1326 13.0998 11.9742 13.2915 11.8742C13.4832 11.7576 13.6748 11.6992 13.8832 11.6992C14.0415 11.6992 14.2082 11.7326 14.3915 11.8076C14.5748 11.8826 14.7665 11.9909 14.9748 12.1326L17.7415 14.0909C17.9582 14.2409 18.1082 14.4159 18.1998 14.6242C18.2832 14.8326 18.3332 15.0409 18.3332 15.2742Z" fill="white"/>
<path d="M8.96699 11.0346L6.25033 13.7513C6.24199 13.7513 6.24199 13.7513 6.23366 13.743C5.37533 12.8763 4.60033 11.968 3.90033 11.018C3.22533 10.0846 2.68366 9.14297 2.28366 8.21797C2.27533 8.2013 2.27533 8.19297 2.26699 8.1763C1.86699 7.2263 1.66699 6.31797 1.66699 5.4513C1.66699 4.88464 1.76699 4.34297 1.96699 3.84297C2.13366 3.41797 2.38366 3.01797 2.72533 2.65964C2.78366 2.59297 2.85033 2.51797 2.92533 2.4513C3.05866 2.31797 3.19199 2.2013 3.33366 2.10964C3.34199 2.10964 3.34199 2.10964 3.34199 2.10964C3.75866 1.80964 4.20033 1.66797 4.66699 1.66797C4.90033 1.66797 5.13366 1.71797 5.34199 1.81797C5.54199 1.90964 5.71699 2.04297 5.85866 2.23464C5.87533 2.2513 5.88366 2.26797 5.90033 2.28464L7.83366 5.00964C7.98366 5.21797 8.09199 5.40964 8.16699 5.59297C8.24199 5.76797 8.28366 5.94297 8.28366 6.1013C8.28366 6.3013 8.22532 6.5013 8.10866 6.69297C8.00032 6.88464 7.84199 7.08464 7.64199 7.28464L7.00866 7.94297C6.91699 8.03464 6.87533 8.14297 6.87533 8.2763C6.87533 8.34297 6.88366 8.4013 6.90033 8.46797C6.92533 8.53464 6.95033 8.58463 6.96699 8.63463C7.11699 8.90963 7.37533 9.26797 7.74199 9.7013C8.11699 10.1346 8.51699 10.5763 8.95033 11.018C8.95866 11.0263 8.95866 11.0263 8.96699 11.0346Z" fill="white"/>
<path d="M18.1417 1.85938C17.8917 1.60937 17.4834 1.60937 17.2334 1.85938L1.8584 17.2427C1.6084 17.4927 1.6084 17.9011 1.8584 18.1511C1.9834 18.2677 2.14173 18.3344 2.3084 18.3344C2.47507 18.3344 2.6334 18.2677 2.7584 18.1427L18.1417 2.75938C18.4001 2.50937 18.4001 2.10938 18.1417 1.85938Z" fill="white"/>
</svg>
