<svg width="20" height="20" viewBox="0 0 20 20" fill="none" xmlns="http://www.w3.org/2000/svg">
<path d="M18.1417 1.85938C17.8917 1.60937 17.4834 1.60937 17.2334 1.85938L1.8584 17.2427C1.6084 17.4927 1.6084 17.9011 1.8584 18.1511C1.9834 18.2677 2.14173 18.3344 2.3084 18.3344C2.47507 18.3344 2.6334 18.2677 2.7584 18.1427L18.1417 2.75938C18.4001 2.50937 18.4001 2.10938 18.1417 1.85938Z" fill="white"/>
<path d="M13.7915 4.25964L13.1915 3.0513C12.8082 2.29297 11.8082 1.66797 10.9582 1.66797H9.04984C8.19148 1.66797 7.19148 2.29297 6.80815 3.0513L6.20815 4.25964C5.97481 4.70964 5.50815 5.0013 4.99981 5.0013C3.19148 5.0013 1.75815 6.5263 1.87481 8.3263L2.30815 15.2096C2.34981 15.918 2.52481 16.5763 2.89981 17.1013L14.9998 5.0013C14.4915 5.0013 14.0248 4.70964 13.7915 4.25964ZM7.91648 8.95964H5.41648C5.07481 8.95964 4.79148 8.6763 4.79148 8.33464C4.79148 7.99297 5.07481 7.70964 5.41648 7.70964H7.91648C8.25815 7.70964 8.54151 7.99297 8.54151 8.33464C8.54151 8.6763 8.25815 8.95964 7.91648 8.95964Z" fill="white"/>
<path d="M18.1256 8.32623L17.6922 15.2096C17.5839 16.9262 16.6672 18.3346 14.3672 18.3346H6.17554C5.43388 18.3346 5.05888 17.4346 5.58388 16.9096L7.64221 14.8512C7.90054 14.5929 8.30054 14.5596 8.62558 14.7429C9.20058 15.0679 9.89224 15.1929 10.6256 15.0346C11.6839 14.8096 12.5422 13.9429 12.7506 12.8762C12.8922 12.1596 12.7672 11.4846 12.4506 10.9262C12.2672 10.6012 12.2922 10.1929 12.5589 9.93456L16.3089 6.18456C16.6506 5.84289 17.2256 5.88456 17.5172 6.27623C17.9506 6.84289 18.1756 7.55956 18.1256 8.32623Z" fill="white"/>
</svg>
