<svg width="20" height="20" viewBox="0 0 20 20" fill="none" xmlns="http://www.w3.org/2000/svg">
<path d="M6.25 3.7513H6.04167V1.66797C6.04167 1.3263 5.75833 1.04297 5.41667 1.04297C5.075 1.04297 4.79167 1.3263 4.79167 1.66797V3.7513H4.58333C3.25833 3.7513 2.5 4.50964 2.5 5.83464V10.8346C2.5 12.1596 3.25833 12.918 4.58333 12.918H4.79167V18.3346C4.79167 18.6763 5.075 18.9596 5.41667 18.9596C5.75833 18.9596 6.04167 18.6763 6.04167 18.3346V12.918H6.25C7.575 12.918 8.33333 12.1596 8.33333 10.8346V5.83464C8.33333 4.50964 7.575 3.7513 6.25 3.7513Z" fill="white"/>
<path d="M15.417 7.08464H15.2087V1.66797C15.2087 1.3263 14.9253 1.04297 14.5837 1.04297C14.242 1.04297 13.9587 1.3263 13.9587 1.66797V7.08464H13.7503C12.4253 7.08464 11.667 7.84297 11.667 9.16797V14.168C11.667 15.493 12.4253 16.2513 13.7503 16.2513H13.9587V18.3346C13.9587 18.6763 14.242 18.9596 14.5837 18.9596C14.9253 18.9596 15.2087 18.6763 15.2087 18.3346V16.2513H15.417C16.742 16.2513 17.5003 15.493 17.5003 14.168V9.16797C17.5003 7.84297 16.742 7.08464 15.417 7.08464Z" fill="white"/>
</svg>
