<svg width="20" height="20" viewBox="0 0 20 20" fill="none" xmlns="http://www.w3.org/2000/svg">
<path d="M18.9587 14.582C18.9587 14.9237 18.6753 15.207 18.3337 15.207H12.5003V15.4154C12.5003 16.6654 11.7503 17.082 10.8337 17.082H5.83366C4.91699 17.082 4.16699 16.6654 4.16699 15.4154V15.207H1.66699C1.32533 15.207 1.04199 14.9237 1.04199 14.582C1.04199 14.2404 1.32533 13.957 1.66699 13.957H4.16699V13.7487C4.16699 12.4987 4.91699 12.082 5.83366 12.082H10.8337C11.7503 12.082 12.5003 12.4987 12.5003 13.7487V13.957H18.3337C18.6753 13.957 18.9587 14.2404 18.9587 14.582Z" fill="white"/>
<path d="M18.9587 5.41797C18.9587 5.75964 18.6753 6.04297 18.3337 6.04297H15.8337V6.2513C15.8337 7.5013 15.0837 7.91797 14.167 7.91797H9.16699C8.25033 7.91797 7.50033 7.5013 7.50033 6.2513V6.04297H1.66699C1.32533 6.04297 1.04199 5.75964 1.04199 5.41797C1.04199 5.0763 1.32533 4.79297 1.66699 4.79297H7.50033V4.58464C7.50033 3.33464 8.25033 2.91797 9.16699 2.91797H14.167C15.0837 2.91797 15.8337 3.33464 15.8337 4.58464V4.79297H18.3337C18.6753 4.79297 18.9587 5.0763 18.9587 5.41797Z" fill="white"/>
</svg>
