<svg width="20" height="20" viewBox="0 0 20 20" fill="none" xmlns="http://www.w3.org/2000/svg">
<path d="M18.125 6.66771C18.125 7.00937 17.8417 7.29271 17.5 7.29271H2.5C2.15833 7.29271 1.875 7.00937 1.875 6.66771C1.875 6.32604 2.15833 6.04271 2.5 6.04271H3.35L3.66667 4.53438C3.96667 3.07604 4.59167 1.73438 7.075 1.73438H12.925C15.4083 1.73438 16.0333 3.07604 16.3333 4.53438L16.65 6.04271H17.5C17.8417 6.04271 18.125 6.32604 18.125 6.66771Z" fill="white"/>
<path d="M18.483 11.3846C18.358 10.0096 17.9913 8.54297 15.3163 8.54297H4.683C2.008 8.54297 1.64966 10.0096 1.51633 11.3846L1.04966 16.4596C0.991331 17.093 1.19966 17.7263 1.633 18.2013C2.07466 18.6846 2.69966 18.9596 3.36633 18.9596H4.933C6.283 18.9596 6.54133 18.1846 6.708 17.6763L6.87466 17.1763C7.06633 16.6013 7.11633 16.4596 7.86633 16.4596H12.133C12.883 16.4596 12.908 16.543 13.1247 17.1763L13.2913 17.6763C13.458 18.1846 13.7163 18.9596 15.0663 18.9596H16.633C17.2913 18.9596 17.9247 18.6846 18.3663 18.2013C18.7997 17.7263 19.008 17.093 18.9497 16.4596L18.483 11.3846ZM7.49966 13.1263H4.99966C4.658 13.1263 4.37466 12.843 4.37466 12.5013C4.37466 12.1596 4.658 11.8763 4.99966 11.8763H7.49966C7.84133 11.8763 8.12466 12.1596 8.12466 12.5013C8.12466 12.843 7.84133 13.1263 7.49966 13.1263ZM14.9997 13.1263H12.4997C12.158 13.1263 11.8747 12.843 11.8747 12.5013C11.8747 12.1596 12.158 11.8763 12.4997 11.8763H14.9997C15.3413 11.8763 15.6247 12.1596 15.6247 12.5013C15.6247 12.843 15.3413 13.1263 14.9997 13.1263Z" fill="white"/>
</svg>
