<svg width="20" height="20" viewBox="0 0 20 20" fill="none" xmlns="http://www.w3.org/2000/svg">
<path d="M1.66699 9.5513V13.718C1.66699 15.6263 3.20866 17.168 5.11699 17.168H14.8753C16.7837 17.168 18.3337 15.618 18.3337 13.7096V9.5513C18.3337 8.99297 17.8837 8.54297 17.3253 8.54297H2.67533C2.11699 8.54297 1.66699 8.99297 1.66699 9.5513ZM6.66699 14.3763H5.00033C4.65866 14.3763 4.37533 14.093 4.37533 13.7513C4.37533 13.4096 4.65866 13.1263 5.00033 13.1263H6.66699C7.00866 13.1263 7.29199 13.4096 7.29199 13.7513C7.29199 14.093 7.00866 14.3763 6.66699 14.3763ZM12.0837 14.3763H8.75033C8.40866 14.3763 8.12533 14.093 8.12533 13.7513C8.12533 13.4096 8.40866 13.1263 8.75033 13.1263H12.0837C12.4253 13.1263 12.7087 13.4096 12.7087 13.7513C12.7087 14.093 12.4253 14.3763 12.0837 14.3763Z" fill="white"/>
<path d="M11.2503 3.84036V6.28203C11.2503 6.84036 10.8003 7.29036 10.242 7.29036H2.67533C2.10866 7.29036 1.66699 6.8237 1.66699 6.26536C1.67533 5.3237 2.05033 4.46536 2.67533 3.84036C3.30033 3.21536 4.16699 2.83203 5.11699 2.83203H10.242C10.8003 2.83203 11.2503 3.28203 11.2503 3.84036Z" fill="white"/>
<path d="M16.6417 1.66797H14.1917C13.1333 1.66797 12.5 2.3013 12.5 3.35964V5.80964C12.5 6.86797 13.1333 7.5013 14.1917 7.5013H16.6417C17.7 7.5013 18.3333 6.86797 18.3333 5.80964V3.35964C18.3333 2.3013 17.7 1.66797 16.6417 1.66797ZM17.1917 3.70964L15.2167 6.01797C15.1417 6.10964 15.025 6.16797 14.9083 6.16797C14.9 6.16797 14.9 6.16797 14.8917 6.16797C14.775 6.16797 14.6667 6.1263 14.5833 6.04297L13.6667 5.14297C13.5 4.9763 13.5 4.7013 13.6667 4.53464C13.8333 4.36797 14.1083 4.35964 14.275 4.53464L14.8583 5.10964L16.525 3.15964C16.6833 2.9763 16.95 2.95964 17.1333 3.10964C17.325 3.25964 17.3417 3.53464 17.1917 3.70964Z" fill="white"/>
</svg>
