<svg width="20" height="20" viewBox="0 0 20 20" fill="none" xmlns="http://www.w3.org/2000/svg">
<path d="M18.3337 17.707C18.3337 18.0487 18.0503 18.332 17.7087 18.332H2.29199C1.95033 18.332 1.66699 18.0487 1.66699 17.707C1.66699 17.3654 1.95033 17.082 2.29199 17.082H17.7087C18.0503 17.082 18.3337 17.3654 18.3337 17.707Z" fill="white"/>
<path d="M12.8255 3.76745L3.87552 12.7175C3.53385 13.0591 2.98385 13.0591 2.65052 12.7175H2.64219C1.48385 11.5508 1.48385 9.66747 2.64219 8.50914L8.6005 2.55078C9.76716 1.38411 11.6505 1.38411 12.8172 2.55078C13.1588 2.87578 13.1588 3.43411 12.8255 3.76745Z" fill="white"/>
<path d="M17.3508 7.07526L14.8092 4.53359C14.4675 4.19193 13.9175 4.19193 13.5842 4.53359L4.63418 13.4836C4.29251 13.8169 4.29251 14.3669 4.63418 14.7086L7.17585 17.2586C8.34249 18.4169 10.2258 18.4169 11.3925 17.2586L17.3425 11.3003C18.5258 10.1336 18.5258 8.24193 17.3508 7.07526ZM10.6342 14.6003L9.62582 15.6169C9.41749 15.8253 9.07582 15.8253 8.85915 15.6169C8.65082 15.4086 8.65082 15.0669 8.85915 14.8503L9.87582 13.8336C10.0758 13.6336 10.4258 13.6336 10.6342 13.8336C10.8425 14.0419 10.8425 14.4003 10.6342 14.6003ZM13.9425 11.2919L11.9092 13.3336C11.7008 13.5336 11.3592 13.5336 11.1425 13.3336C10.9342 13.1253 10.9342 12.7836 11.1425 12.5669L13.1842 10.5253C13.3842 10.3253 13.7342 10.3253 13.9425 10.5253C14.1508 10.7419 14.1508 11.0836 13.9425 11.2919Z" fill="white"/>
</svg>
