<svg width="20" height="20" viewBox="0 0 20 20" fill="none" xmlns="http://www.w3.org/2000/svg">
<path d="M11.2503 3.84036V6.28203C11.2503 6.84036 10.8003 7.29036 10.242 7.29036H2.67533C2.10866 7.29036 1.66699 6.8237 1.66699 6.26536C1.67533 5.3237 2.05033 4.46536 2.67533 3.84036C3.30033 3.21536 4.16699 2.83203 5.11699 2.83203H10.242C10.8003 2.83203 11.2503 3.28203 11.2503 3.84036Z" fill="white"/>
<path d="M1.66699 9.5513V13.718C1.66699 15.6263 3.20866 17.168 5.11699 17.168H14.8753C16.7837 17.168 18.3337 15.618 18.3337 13.7096V9.5513C18.3337 8.99297 17.8837 8.54297 17.3253 8.54297H2.67533C2.11699 8.54297 1.66699 8.99297 1.66699 9.5513ZM6.66699 14.3763H5.00033C4.65866 14.3763 4.37533 14.093 4.37533 13.7513C4.37533 13.4096 4.65866 13.1263 5.00033 13.1263H6.66699C7.00866 13.1263 7.29199 13.4096 7.29199 13.7513C7.29199 14.093 7.00866 14.3763 6.66699 14.3763ZM12.0837 14.3763H8.75033C8.40866 14.3763 8.12533 14.093 8.12533 13.7513C8.12533 13.4096 8.40866 13.1263 8.75033 13.1263H12.0837C12.4253 13.1263 12.7087 13.4096 12.7087 13.7513C12.7087 14.093 12.4253 14.3763 12.0837 14.3763Z" fill="white"/>
<path d="M16.6417 1.45703H14.1917C13.1333 1.45703 12.5 2.09036 12.5 3.1487V5.5987C12.5 6.65703 13.1333 7.29036 14.1917 7.29036H16.6417C17.7 7.29036 18.3333 6.65703 18.3333 5.5987V3.1487C18.3333 2.09036 17.7 1.45703 16.6417 1.45703ZM15.0083 6.0987C14.9833 6.1237 14.925 6.15703 14.8833 6.15703L14.0167 6.28203C13.9917 6.29036 13.9583 6.29036 13.9333 6.29036C13.8083 6.29036 13.7 6.2487 13.625 6.16536C13.525 6.06536 13.4833 5.9237 13.5083 5.7737L13.6333 4.90703C13.6417 4.86536 13.6667 4.80703 13.6917 4.78203L15.1083 3.36536C15.1333 3.4237 15.1583 3.49036 15.1833 3.55703C15.2167 3.6237 15.25 3.68203 15.2833 3.74036C15.3083 3.79036 15.3417 3.84036 15.375 3.8737C15.4083 3.9237 15.4417 3.9737 15.4667 3.9987C15.4833 4.0237 15.4917 4.03203 15.5 4.04036C15.575 4.13203 15.6583 4.21536 15.7333 4.2737C15.75 4.29036 15.7667 4.30703 15.775 4.30703C15.8167 4.34036 15.8667 4.38203 15.9 4.40703C15.95 4.44036 15.9917 4.4737 16.0417 4.4987C16.1 4.53203 16.1667 4.56536 16.2333 4.5987C16.3 4.63203 16.3667 4.65703 16.425 4.6737L15.0083 6.0987ZM17 4.10703L16.725 4.38203C16.7167 4.3987 16.6917 4.40703 16.6667 4.40703C16.6583 4.40703 16.65 4.40703 16.6417 4.40703C16.0417 4.23203 15.5667 3.75703 15.3917 3.15703C15.3833 3.1237 15.3917 3.09036 15.4167 3.06536L15.6917 2.79036C16.1417 2.34036 16.5667 2.3487 17.0083 2.79036C17.2333 3.01536 17.3417 3.23203 17.3417 3.4487C17.3333 3.66536 17.225 3.88203 17 4.10703Z" fill="white"/>
</svg>
