<svg width="20" height="20" viewBox="0 0 20 20" fill="none" xmlns="http://www.w3.org/2000/svg">
<path d="M18.3337 6.29036C18.3337 6.84036 17.8837 7.29036 17.3337 7.29036H2.66699C2.11699 7.29036 1.66699 6.84036 1.66699 6.29036V6.28203C1.66699 4.3737 3.20866 2.83203 5.11699 2.83203H14.8753C16.7837 2.83203 18.3337 4.38203 18.3337 6.29036Z" fill="white"/>
<path d="M1.66699 9.54297V13.718C1.66699 15.6263 3.20866 17.168 5.11699 17.168H14.8753C16.7837 17.168 18.3337 15.618 18.3337 13.7096V9.54297C18.3337 8.99297 17.8837 8.54297 17.3337 8.54297H2.66699C2.11699 8.54297 1.66699 8.99297 1.66699 9.54297ZM6.66699 14.3763H5.00033C4.65866 14.3763 4.37533 14.093 4.37533 13.7513C4.37533 13.4096 4.65866 13.1263 5.00033 13.1263H6.66699C7.00866 13.1263 7.29199 13.4096 7.29199 13.7513C7.29199 14.093 7.00866 14.3763 6.66699 14.3763ZM12.0837 14.3763H8.75033C8.40866 14.3763 8.12533 14.093 8.12533 13.7513C8.12533 13.4096 8.40866 13.1263 8.75033 13.1263H12.0837C12.4253 13.1263 12.7087 13.4096 12.7087 13.7513C12.7087 14.093 12.4253 14.3763 12.0837 14.3763Z" fill="white"/>
</svg>
