<svg width="20" height="20" viewBox="0 0 20 20" fill="none" xmlns="http://www.w3.org/2000/svg">
<path d="M1.66699 9.5513V13.718C1.66699 15.6263 3.20866 17.168 5.11699 17.168H14.8753C16.7837 17.168 18.3337 15.618 18.3337 13.7096V9.5513C18.3337 8.99297 17.8837 8.54297 17.3253 8.54297H2.67533C2.11699 8.54297 1.66699 8.99297 1.66699 9.5513ZM6.66699 14.3763H5.00033C4.65866 14.3763 4.37533 14.093 4.37533 13.7513C4.37533 13.4096 4.65866 13.1263 5.00033 13.1263H6.66699C7.00866 13.1263 7.29199 13.4096 7.29199 13.7513C7.29199 14.093 7.00866 14.3763 6.66699 14.3763ZM12.0837 14.3763H8.75033C8.40866 14.3763 8.12533 14.093 8.12533 13.7513C8.12533 13.4096 8.40866 13.1263 8.75033 13.1263H12.0837C12.4253 13.1263 12.7087 13.4096 12.7087 13.7513C12.7087 14.093 12.4253 14.3763 12.0837 14.3763Z" fill="white"/>
<path d="M11.2503 3.84036V6.28203C11.2503 6.84036 10.8003 7.29036 10.242 7.29036H2.67533C2.10866 7.29036 1.66699 6.8237 1.66699 6.26536C1.67533 5.3237 2.05033 4.46536 2.67533 3.84036C3.30033 3.21536 4.16699 2.83203 5.11699 2.83203H10.242C10.8003 2.83203 11.2503 3.28203 11.2503 3.84036Z" fill="white"/>
<path d="M16.6417 1.66797H14.1917C13.1333 1.66797 12.5 2.3013 12.5 3.35964V5.80964C12.5 6.86797 13.1333 7.5013 14.1917 7.5013H16.6417C17.7 7.5013 18.3333 6.86797 18.3333 5.80964V3.35964C18.3333 2.3013 17.7 1.66797 16.6417 1.66797ZM17.425 4.94297C17.3417 5.0263 17.2167 5.08464 17.0833 5.09297H15.9083L15.9167 6.2513C15.9083 6.39297 15.8583 6.50964 15.7583 6.60964C15.675 6.69297 15.55 6.7513 15.4167 6.7513C15.1417 6.7513 14.9167 6.5263 14.9167 6.2513V5.08464L13.75 5.09297C13.475 5.09297 13.25 4.85964 13.25 4.58464C13.25 4.30964 13.475 4.08464 13.75 4.08464L14.9167 4.09297V2.9263C14.9167 2.6513 15.1417 2.41797 15.4167 2.41797C15.6917 2.41797 15.9167 2.6513 15.9167 2.9263L15.9083 4.08464H17.0833C17.3583 4.08464 17.5833 4.30964 17.5833 4.58464C17.575 4.7263 17.5167 4.84297 17.425 4.94297Z" fill="white"/>
</svg>
