<svg width="20" height="20" viewBox="0 0 20 20" fill="none" xmlns="http://www.w3.org/2000/svg">
<path d="M12.6837 5.45703H4.81699C4.58366 5.45703 4.36699 5.46536 4.16699 5.4737C2.19199 5.59036 1.66699 6.31536 1.66699 8.56538V9.04871C1.66699 9.50705 2.04199 9.88205 2.50033 9.88205H15.0003C15.4587 9.88205 15.8337 9.50705 15.8337 9.04871V8.56538C15.8337 6.08203 15.2003 5.45703 12.6837 5.45703Z" fill="white"/>
<path d="M2.50033 11.1328C2.04199 11.1328 1.66699 11.5078 1.66699 11.9661V14.3911C1.66699 16.8745 2.30033 17.4995 4.81699 17.4995H12.6837C15.1587 17.4995 15.8087 16.8995 15.8337 14.5245V11.9661C15.8337 11.5078 15.4587 11.1328 15.0003 11.1328H2.50033ZM5.80033 15.4661H4.37533C4.03366 15.4661 3.75033 15.1828 3.75033 14.8411C3.75033 14.4995 4.03366 14.2161 4.37533 14.2161H5.80866C6.15033 14.2161 6.43366 14.4995 6.43366 14.8411C6.43366 15.1828 6.15033 15.4661 5.80033 15.4661ZM10.4587 15.4661H7.59199C7.25033 15.4661 6.96699 15.1828 6.96699 14.8411C6.96699 14.4995 7.25033 14.2161 7.59199 14.2161H10.4587C10.8003 14.2161 11.0837 14.4995 11.0837 14.8411C11.0837 15.1828 10.8087 15.4661 10.4587 15.4661Z" fill="white"/>
<path d="M18.3333 11.1083V6.74167C18.3333 4.13333 16.8417 3 14.5917 3H7.15001C6.51668 3 5.95001 3.09167 5.45001 3.28333C5.05834 3.425 4.70834 3.63333 4.42501 3.90833C4.27501 4.05 4.39168 4.28333 4.60834 4.28333H13.6667C15.5417 4.28333 17.0583 5.8 17.0583 7.675V13.65C17.0583 13.8583 17.2833 13.975 17.4333 13.825C18.0083 13.2167 18.3333 12.325 18.3333 11.1083Z" fill="white"/>
</svg>
