<svg width="20" height="20" viewBox="0 0 20 20" fill="none" xmlns="http://www.w3.org/2000/svg">
<path d="M14.2923 8.33464C14.7526 8.33464 15.1257 7.96154 15.1257 7.5013C15.1257 7.04107 14.7526 6.66797 14.2923 6.66797C13.8321 6.66797 13.459 7.04107 13.459 7.5013C13.459 7.96154 13.8321 8.33464 14.2923 8.33464Z" fill="white"/>
<path d="M14.2923 13.3346C14.7526 13.3346 15.1257 12.9616 15.1257 12.5013C15.1257 12.0411 14.7526 11.668 14.2923 11.668C13.8321 11.668 13.459 12.0411 13.459 12.5013C13.459 12.9616 13.8321 13.3346 14.2923 13.3346Z" fill="white"/>
<path d="M16.4583 10.8346C16.9186 10.8346 17.2917 10.4616 17.2917 10.0013C17.2917 9.54105 16.9186 9.16797 16.4583 9.16797C15.9981 9.16797 15.625 9.54105 15.625 10.0013C15.625 10.4616 15.9981 10.8346 16.4583 10.8346Z" fill="white"/>
<path d="M5.66732 8.33464C6.12756 8.33464 6.50065 7.96154 6.50065 7.5013C6.50065 7.04107 6.12756 6.66797 5.66732 6.66797C5.20708 6.66797 4.83398 7.04107 4.83398 7.5013C4.83398 7.96154 5.20708 8.33464 5.66732 8.33464Z" fill="white"/>
<path d="M5.66732 13.3346C6.12756 13.3346 6.50065 12.9616 6.50065 12.5013C6.50065 12.0411 6.12756 11.668 5.66732 11.668C5.20708 11.668 4.83398 12.0411 4.83398 12.5013C4.83398 12.9616 5.20708 13.3346 5.66732 13.3346Z" fill="white"/>
<path d="M3.50033 10.8346C3.96056 10.8346 4.33366 10.4616 4.33366 10.0013C4.33366 9.54105 3.96056 9.16797 3.50033 9.16797C3.04008 9.16797 2.66699 9.54105 2.66699 10.0013C2.66699 10.4616 3.04008 10.8346 3.50033 10.8346Z" fill="white"/>
<path d="M13.2503 5.16667C13.7106 5.16667 14.0837 4.79357 14.0837 4.33333C14.0837 3.87309 13.7106 3.5 13.2503 3.5C12.7901 3.5 12.417 3.87309 12.417 4.33333C12.417 4.79357 12.7901 5.16667 13.2503 5.16667Z" fill="white"/>
<path d="M6.75033 5.16667C7.21056 5.16667 7.58366 4.79357 7.58366 4.33333C7.58366 3.87309 7.21056 3.5 6.75033 3.5C6.29008 3.5 5.91699 3.87309 5.91699 4.33333C5.91699 4.79357 6.29008 5.16667 6.75033 5.16667Z" fill="white"/>
<path d="M10.0423 5.83464C10.5026 5.83464 10.8757 5.46154 10.8757 5.0013C10.8757 4.54107 10.5026 4.16797 10.0423 4.16797C9.58207 4.16797 9.20898 4.54107 9.20898 5.0013C9.20898 5.46154 9.58207 5.83464 10.0423 5.83464Z" fill="white"/>
<path d="M13.2503 16.6667C13.7106 16.6667 14.0837 16.2936 14.0837 15.8333C14.0837 15.3731 13.7106 15 13.2503 15C12.7901 15 12.417 15.3731 12.417 15.8333C12.417 16.2936 12.7901 16.6667 13.2503 16.6667Z" fill="white"/>
<path d="M6.75033 16.6667C7.21056 16.6667 7.58366 16.2936 7.58366 15.8333C7.58366 15.3731 7.21056 15 6.75033 15C6.29008 15 5.91699 15.3731 5.91699 15.8333C5.91699 16.2936 6.29008 16.6667 6.75033 16.6667Z" fill="white"/>
<path d="M10.0423 15.9987C10.5026 15.9987 10.8757 15.6256 10.8757 15.1654C10.8757 14.7051 10.5026 14.332 10.0423 14.332C9.58207 14.332 9.20898 14.7051 9.20898 15.1654C9.20898 15.6256 9.58207 15.9987 10.0423 15.9987Z" fill="white"/>
<path d="M11.4587 8.54036C12.034 8.54036 12.5003 8.074 12.5003 7.4987C12.5003 6.9234 12.034 6.45703 11.4587 6.45703C10.8833 6.45703 10.417 6.9234 10.417 7.4987C10.417 8.074 10.8833 8.54036 11.4587 8.54036Z" fill="white"/>
<path d="M8.54167 8.54036C9.117 8.54036 9.58333 8.074 9.58333 7.4987C9.58333 6.9234 9.117 6.45703 8.54167 6.45703C7.96637 6.45703 7.5 6.9234 7.5 7.4987C7.5 8.074 7.96637 8.54036 8.54167 8.54036Z" fill="white"/>
<path d="M12.9167 11.0404C13.492 11.0404 13.9583 10.574 13.9583 9.9987C13.9583 9.42336 13.492 8.95703 12.9167 8.95703C12.3413 8.95703 11.875 9.42336 11.875 9.9987C11.875 10.574 12.3413 11.0404 12.9167 11.0404Z" fill="white"/>
<path d="M7.08366 11.0404C7.65896 11.0404 8.12533 10.574 8.12533 9.9987C8.12533 9.42336 7.65896 8.95703 7.08366 8.95703C6.50836 8.95703 6.04199 9.42336 6.04199 9.9987C6.04199 10.574 6.50836 11.0404 7.08366 11.0404Z" fill="white"/>
<path d="M8.54167 13.5404C9.117 13.5404 9.58333 13.074 9.58333 12.4987C9.58333 11.9234 9.117 11.457 8.54167 11.457C7.96637 11.457 7.5 11.9234 7.5 12.4987C7.5 13.074 7.96637 13.5404 8.54167 13.5404Z" fill="white"/>
<path d="M11.4587 13.5404C12.034 13.5404 12.5003 13.074 12.5003 12.4987C12.5003 11.9234 12.034 11.457 11.4587 11.457C10.8833 11.457 10.417 11.9234 10.417 12.4987C10.417 13.074 10.8833 13.5404 11.4587 13.5404Z" fill="white"/>
<path d="M9.99993 2.77526C9.5916 2.77526 9.2666 2.45026 9.2666 2.04193C9.2666 1.63359 9.5916 1.30859 9.99993 1.30859C10.4083 1.30859 10.7333 1.63359 10.7333 2.04193C10.7333 2.45026 10.4083 2.77526 9.99993 2.77526Z" fill="white"/>
<path d="M14.3755 3C14.0255 3 13.7422 2.71667 13.7422 2.375C13.7422 2.03333 14.0255 1.75 14.3672 1.75C14.7089 1.75 15.0005 2.03333 15.0005 2.375C15.0005 2.71667 14.7255 3 14.3755 3Z" fill="white"/>
<path d="M5.625 3C5.28333 3 5 2.71667 5 2.375C5 2.03333 5.275 1.75 5.625 1.75H5.63334C5.97501 1.75 6.25834 2.03333 6.25834 2.375C6.25834 2.71667 5.975 3 5.625 3Z" fill="white"/>
<path d="M9.99993 18.6503C9.5916 18.6503 9.2666 18.3253 9.2666 17.9169C9.2666 17.5086 9.5916 17.1836 9.99993 17.1836C10.4083 17.1836 10.7333 17.5086 10.7333 17.9169C10.7333 18.3253 10.4083 18.6503 9.99993 18.6503Z" fill="white"/>
<path d="M14.3755 18.207C14.0255 18.207 13.7422 17.9237 13.7422 17.582C13.7422 17.2404 14.0255 16.957 14.3672 16.957C14.7089 16.957 15.0005 17.2404 15.0005 17.582C15.0005 17.9237 14.7255 18.207 14.3755 18.207Z" fill="white"/>
<path d="M5.625 18.207C5.28333 18.207 5 17.9237 5 17.582C5 17.2404 5.275 16.957 5.625 16.957H5.63334C5.97501 16.957 6.25834 17.2404 6.25834 17.582C6.25834 17.9237 5.975 18.207 5.625 18.207Z" fill="white"/>
<path d="M1.29191 10.7323C0.891909 10.7323 0.558594 10.4073 0.558594 10.0073V9.99896C0.558594 9.59896 0.883575 9.26562 1.29191 9.26562C1.70024 9.26562 2.02524 9.59063 2.02524 9.99896C2.02524 10.4073 1.69191 10.7323 1.29191 10.7323Z" fill="white"/>
<path d="M3.125 14.7935C2.78333 14.7935 2.5 14.5185 2.5 14.1685V14.1602C2.5 13.8185 2.78333 13.5352 3.125 13.5352C3.46667 13.5352 3.75 13.8185 3.75 14.1602C3.75 14.5018 3.46667 14.7935 3.125 14.7935Z" fill="white"/>
<path d="M3.125 6.46484C2.78333 6.46484 2.5 6.18151 2.5 5.83984C2.5 5.49818 2.78333 5.21484 3.125 5.21484C3.46667 5.21484 3.75 5.48984 3.75 5.83151V5.83984C3.75 6.18151 3.46667 6.46484 3.125 6.46484Z" fill="white"/>
<path d="M18.7499 10.7323C18.3499 10.7323 18.0166 10.4073 18.0166 10.0073V9.99896C18.0166 9.59896 18.3416 9.26562 18.7499 9.26562C19.1583 9.26562 19.4833 9.59063 19.4833 9.99896C19.4833 10.4073 19.1499 10.7323 18.7499 10.7323Z" fill="white"/>
<path d="M16.916 14.7935C16.5743 14.7935 16.291 14.5185 16.291 14.1685V14.1602C16.291 13.8185 16.5743 13.5352 16.916 13.5352C17.2577 13.5352 17.541 13.8185 17.541 14.1602C17.541 14.5018 17.2577 14.7935 16.916 14.7935Z" fill="white"/>
<path d="M16.916 6.46484C16.5743 6.46484 16.291 6.18151 16.291 5.83984C16.291 5.49818 16.5743 5.21484 16.916 5.21484C17.2577 5.21484 17.541 5.48984 17.541 5.83984V5.84818C17.541 6.18151 17.2577 6.46484 16.916 6.46484Z" fill="white"/>
</svg>
