<svg width="20" height="20" viewBox="0 0 20 20" fill="none" xmlns="http://www.w3.org/2000/svg">
<path d="M16.0587 3.04036L11.8087 7.29036H2.66699C2.11699 7.29036 1.66699 6.84036 1.66699 6.29036V6.28203C1.66699 4.3737 3.20866 2.83203 5.11699 2.83203H14.8753C15.292 2.83203 15.692 2.90703 16.0587 3.04036Z" fill="white"/>
<path d="M10.5587 8.54297L5.97533 13.1263H5.00033C4.65866 13.1263 4.37533 13.4096 4.37533 13.7513C4.37533 14.0096 4.54199 14.243 4.77533 14.3263L2.81699 16.2846C2.10866 15.6596 1.66699 14.743 1.66699 13.718V9.54297C1.66699 8.99297 2.11699 8.54297 2.66699 8.54297H10.5587Z" fill="white"/>
<path d="M18.3332 9.16536V13.7154C18.3332 15.6237 16.7916 17.1654 14.8832 17.1654H7.34156C6.59989 17.1654 6.22489 16.2654 6.74989 15.7404L7.87489 14.6154C8.03323 14.457 8.24156 14.3737 8.46658 14.3737H12.0832C12.4249 14.3737 12.7082 14.0904 12.7082 13.7487C12.7082 13.407 12.4249 13.1237 12.0832 13.1237H11.3832C10.6416 13.1237 10.2666 12.2237 10.7916 11.6987L13.6749 8.81536C13.9916 8.50703 14.4166 8.33203 14.8582 8.33203H17.4999C17.9582 8.33203 18.3332 8.70703 18.3332 9.16536Z" fill="white"/>
<path d="M18.1417 1.85938C17.8917 1.60937 17.4834 1.60937 17.2334 1.85938L1.8584 17.2427C1.6084 17.4927 1.6084 17.9011 1.8584 18.1511C1.9834 18.2677 2.14173 18.3344 2.3084 18.3344C2.47507 18.3344 2.6334 18.2677 2.7584 18.1427L18.1417 2.75938C18.4001 2.50937 18.4001 2.10938 18.1417 1.85938Z" fill="white"/>
<path d="M18.1412 2.75781L17.1745 3.72448L13.6078 7.29115L2.75781 18.1411C2.63281 18.2661 2.47448 18.3328 2.30781 18.3328C2.14115 18.3328 1.98281 18.2661 1.85781 18.1411C1.59948 17.8911 1.59948 17.4911 1.85781 17.2411L2.81615 16.2828L4.77448 14.3244L16.0578 3.04115L17.2412 1.85781C17.4912 1.59948 17.8912 1.59948 18.1412 1.85781C18.3995 2.10781 18.3995 2.50781 18.1412 2.75781Z" fill="white"/>
<path d="M18.3331 6.17652C18.3331 5.43485 17.4331 5.05985 16.9081 5.58485L16.6665 5.83485L16.4248 6.07652C15.8998 6.60152 16.2665 7.50152 17.0081 7.50152H17.4998C17.9581 7.50152 18.3331 7.12652 18.3331 6.66819V6.17652Z" fill="white"/>
</svg>
