<svg width="20" height="20" viewBox="0 0 20 20" fill="none" xmlns="http://www.w3.org/2000/svg">
<path d="M16.6417 7.29036H14.1917C13.1333 7.29036 12.5 6.65703 12.5 5.5987V3.1487C12.5 2.09036 13.1333 1.45703 14.1917 1.45703H16.6417C17.7 1.45703 18.3333 2.09036 18.3333 3.1487V5.5987C18.3333 6.65703 17.7 7.29036 16.6417 7.29036ZM16.825 4.53203C16.725 4.43203 16.5917 4.38203 16.4583 4.38203C16.325 4.38203 16.1917 4.43203 16.0917 4.53203L15.9417 4.68203V2.81536C15.9417 2.5237 15.7083 2.29036 15.4167 2.29036C15.125 2.29036 14.8917 2.5237 14.8917 2.81536V4.68203L14.7417 4.53203C14.5417 4.33203 14.2083 4.33203 14.0083 4.53203C13.8083 4.73203 13.8083 5.06536 14.0083 5.26536L15.05 6.30703C15.0917 6.3487 15.15 6.38203 15.2083 6.40703C15.225 6.41536 15.2417 6.41536 15.2583 6.4237C15.3 6.44036 15.3417 6.4487 15.3917 6.4487C15.4083 6.4487 15.425 6.4487 15.4417 6.4487C15.5 6.4487 15.55 6.44036 15.6083 6.41536C15.6167 6.41536 15.6167 6.41536 15.625 6.41536C15.6833 6.39036 15.7333 6.35703 15.775 6.31536C15.7833 6.30703 15.7833 6.30703 15.7917 6.30703L16.8333 5.26536C17.0333 5.06536 17.0333 4.73203 16.825 4.53203Z" fill="white"/>
<path d="M1.66699 9.5513V13.718C1.66699 15.6263 3.20866 17.168 5.11699 17.168H14.8753C16.7837 17.168 18.3337 15.618 18.3337 13.7096V9.5513C18.3337 8.99297 17.8837 8.54297 17.3253 8.54297H2.67533C2.11699 8.54297 1.66699 8.99297 1.66699 9.5513ZM6.66699 14.3763H5.00033C4.65866 14.3763 4.37533 14.093 4.37533 13.7513C4.37533 13.4096 4.65866 13.1263 5.00033 13.1263H6.66699C7.00866 13.1263 7.29199 13.4096 7.29199 13.7513C7.29199 14.093 7.00866 14.3763 6.66699 14.3763ZM12.0837 14.3763H8.75033C8.40866 14.3763 8.12533 14.093 8.12533 13.7513C8.12533 13.4096 8.40866 13.1263 8.75033 13.1263H12.0837C12.4253 13.1263 12.7087 13.4096 12.7087 13.7513C12.7087 14.093 12.4253 14.3763 12.0837 14.3763Z" fill="white"/>
<path d="M11.2503 3.84036V6.28203C11.2503 6.84036 10.8003 7.29036 10.242 7.29036H2.67533C2.10866 7.29036 1.66699 6.8237 1.66699 6.26536C1.67533 5.3237 2.05033 4.46536 2.67533 3.84036C3.30033 3.21536 4.16699 2.83203 5.11699 2.83203H10.242C10.8003 2.83203 11.2503 3.28203 11.2503 3.84036Z" fill="white"/>
</svg>
