<svg width="20" height="20" viewBox="0 0 20 20" fill="none" xmlns="http://www.w3.org/2000/svg">
<path d="M15.8333 12.5C13.9917 12.5 12.5 13.9917 12.5 15.8333C12.5 16.4583 12.675 17.05 12.9833 17.55C13.5583 18.5167 14.6167 19.1667 15.8333 19.1667C17.05 19.1667 18.1083 18.5167 18.6833 17.55C18.9917 17.05 19.1667 16.4583 19.1667 15.8333C19.1667 13.9917 17.675 12.5 15.8333 12.5ZM17.5583 15.475L15.7833 17.1167C15.6667 17.225 15.5083 17.2833 15.3583 17.2833C15.2 17.2833 15.0417 17.225 14.9167 17.1L14.0917 16.275C13.85 16.0333 13.85 15.6333 14.0917 15.3917C14.3333 15.15 14.7333 15.15 14.975 15.3917L15.375 15.7917L16.7083 14.5583C16.9583 14.325 17.3583 14.3417 17.5917 14.5917C17.825 14.8417 17.8083 15.2333 17.5583 15.475Z" fill="white"/>
<path d="M18.3337 6.29036V6.66536C18.3337 7.1237 17.9587 7.4987 17.5003 7.4987H2.50033C2.04199 7.4987 1.66699 7.1237 1.66699 6.66536V6.28203C1.66699 4.3737 3.20866 2.83203 5.11699 2.83203H14.8753C16.7837 2.83203 18.3337 4.38203 18.3337 6.29036Z" fill="white"/>
<path d="M1.66699 9.58385V13.7172C1.66699 15.6255 3.20866 17.1672 5.11699 17.1672H10.3337C10.817 17.1672 11.2337 16.7589 11.192 16.2755C11.0753 15.0005 11.4837 13.6172 12.617 12.5172C13.0837 12.0589 13.6587 11.7089 14.2837 11.5089C15.3253 11.1755 16.3337 11.2172 17.2253 11.5172C17.767 11.7005 18.3337 11.3089 18.3337 10.7339V9.57552C18.3337 9.11719 17.9587 8.74219 17.5003 8.74219H2.50033C2.04199 8.75052 1.66699 9.12552 1.66699 9.58385ZM6.66699 14.3755H5.00033C4.65866 14.3755 4.37533 14.0922 4.37533 13.7505C4.37533 13.4089 4.65866 13.1255 5.00033 13.1255H6.66699C7.00866 13.1255 7.29199 13.4089 7.29199 13.7505C7.29199 14.0922 7.00866 14.3755 6.66699 14.3755Z" fill="white"/>
</svg>
