<svg width="20" height="20" viewBox="0 0 20 20" fill="none" xmlns="http://www.w3.org/2000/svg">
<path d="M16.6417 1.45703H14.1917C13.1333 1.45703 12.5 2.09036 12.5 3.1487V5.5987C12.5 6.65703 13.1333 7.29036 14.1917 7.29036H16.6417C17.7 7.29036 18.3333 6.65703 18.3333 5.5987V3.1487C18.3333 2.09036 17.7 1.45703 16.6417 1.45703ZM16.825 4.21536C16.725 4.31536 16.5917 4.36536 16.4583 4.36536C16.325 4.36536 16.1917 4.31536 16.0917 4.21536L15.9417 4.06536V5.93203C15.9417 6.2237 15.7083 6.45703 15.4167 6.45703C15.125 6.45703 14.8917 6.2237 14.8917 5.93203V4.06536L14.7417 4.21536C14.5417 4.41536 14.2083 4.41536 14.0083 4.21536C13.8083 4.01536 13.8083 3.68203 14.0083 3.48203L15.05 2.44036C15.0917 2.3987 15.15 2.36536 15.2083 2.34036C15.225 2.33203 15.2417 2.33203 15.2583 2.3237C15.3 2.30703 15.3417 2.2987 15.3917 2.2987C15.4083 2.2987 15.425 2.2987 15.4417 2.2987C15.5 2.2987 15.55 2.30703 15.6083 2.33203C15.6167 2.33203 15.6167 2.33203 15.625 2.33203C15.6833 2.35703 15.7333 2.39036 15.775 2.43203C15.7833 2.44036 15.7833 2.44036 15.7917 2.44036L16.8333 3.48203C17.0333 3.68203 17.0333 4.01536 16.825 4.21536Z" fill="white"/>
<path d="M1.66699 9.5513V13.718C1.66699 15.6263 3.20866 17.168 5.11699 17.168H14.8753C16.7837 17.168 18.3337 15.618 18.3337 13.7096V9.5513C18.3337 8.99297 17.8837 8.54297 17.3253 8.54297H2.67533C2.11699 8.54297 1.66699 8.99297 1.66699 9.5513ZM6.66699 14.3763H5.00033C4.65866 14.3763 4.37533 14.093 4.37533 13.7513C4.37533 13.4096 4.65866 13.1263 5.00033 13.1263H6.66699C7.00866 13.1263 7.29199 13.4096 7.29199 13.7513C7.29199 14.093 7.00866 14.3763 6.66699 14.3763ZM12.0837 14.3763H8.75033C8.40866 14.3763 8.12533 14.093 8.12533 13.7513C8.12533 13.4096 8.40866 13.1263 8.75033 13.1263H12.0837C12.4253 13.1263 12.7087 13.4096 12.7087 13.7513C12.7087 14.093 12.4253 14.3763 12.0837 14.3763Z" fill="white"/>
<path d="M11.2503 3.84036V6.28203C11.2503 6.84036 10.8003 7.29036 10.242 7.29036H2.67533C2.10866 7.29036 1.66699 6.8237 1.66699 6.26536C1.67533 5.3237 2.05033 4.46536 2.67533 3.84036C3.30033 3.21536 4.16699 2.83203 5.11699 2.83203H10.242C10.8003 2.83203 11.2503 3.28203 11.2503 3.84036Z" fill="white"/>
</svg>
