<svg width="20" height="20" viewBox="0 0 20 20" fill="none" xmlns="http://www.w3.org/2000/svg">
<path d="M15.7503 12.5234C13.9087 12.5234 12.417 14.0151 12.417 15.8568C12.417 17.6984 13.9087 19.1901 15.7503 19.1901C17.592 19.1901 19.0837 17.6984 19.0837 15.8568C19.0837 14.0151 17.592 12.5234 15.7503 12.5234ZM17.0837 17.2318C16.9587 17.3568 16.8003 17.4151 16.642 17.4151C16.4837 17.4151 16.3253 17.3568 16.2003 17.2318L15.7587 16.7901L15.3003 17.2484C15.1753 17.3734 15.017 17.4318 14.8587 17.4318C14.7003 17.4318 14.542 17.3734 14.417 17.2484C14.1753 17.0068 14.1753 16.6068 14.417 16.3651L14.8753 15.9068L14.4337 15.4651C14.192 15.2234 14.192 14.8234 14.4337 14.5818C14.6753 14.3401 15.0753 14.3401 15.317 14.5818L15.7587 15.0234L16.1753 14.6068C16.417 14.3651 16.817 14.3651 17.0587 14.6068C17.3003 14.8484 17.3003 15.2484 17.0587 15.4901L16.642 15.9068L17.0837 16.3484C17.3253 16.5901 17.3253 16.9901 17.0837 17.2318Z" fill="white"/>
<path d="M18.3337 6.29036V6.66536C18.3337 7.1237 17.9587 7.4987 17.5003 7.4987H2.50033C2.04199 7.4987 1.66699 7.1237 1.66699 6.66536V6.28203C1.66699 4.3737 3.20866 2.83203 5.11699 2.83203H14.8753C16.7837 2.83203 18.3337 4.38203 18.3337 6.29036Z" fill="white"/>
<path d="M1.66699 9.58385V13.7172C1.66699 15.6255 3.20866 17.1672 5.11699 17.1672H10.3337C10.817 17.1672 11.2337 16.7589 11.192 16.2755C11.0753 15.0005 11.4837 13.6172 12.617 12.5172C13.0837 12.0589 13.6587 11.7089 14.2837 11.5089C15.3253 11.1755 16.3337 11.2172 17.2253 11.5172C17.767 11.7005 18.3337 11.3089 18.3337 10.7339V9.57552C18.3337 9.11719 17.9587 8.74219 17.5003 8.74219H2.50033C2.04199 8.75052 1.66699 9.12552 1.66699 9.58385ZM6.66699 14.3755H5.00033C4.65866 14.3755 4.37533 14.0922 4.37533 13.7505C4.37533 13.4089 4.65866 13.1255 5.00033 13.1255H6.66699C7.00866 13.1255 7.29199 13.4089 7.29199 13.7505C7.29199 14.0922 7.00866 14.3755 6.66699 14.3755Z" fill="white"/>
</svg>
