<svg width="20" height="20" viewBox="0 0 20 20" fill="none" xmlns="http://www.w3.org/2000/svg">
<g clip-path="url(#clip0_10_10245)">
<path d="M10.0003 13.0833V13.175C10.0003 13.4083 9.81699 13.5917 9.58366 13.5917H2.08366C1.85033 13.5917 1.66699 13.4083 1.66699 13.175V13.0833C1.66699 11.6167 2.03366 11.25 3.51699 11.25H8.15033C9.63366 11.25 10.0003 11.6167 10.0003 13.0833Z" fill="white"/>
<path d="M2.08366 14.4258C1.85033 14.4258 1.66699 14.6091 1.66699 14.8424V15.6758V16.5008C1.66699 17.9674 2.03366 18.3341 3.51699 18.3341H8.15033C9.63366 18.3341 10.0003 17.9674 10.0003 16.5008V15.6758V14.8424C10.0003 14.6091 9.81699 14.4258 9.58366 14.4258H2.08366Z" fill="white"/>
<path d="M18.3333 12.5C18.3333 15.725 15.725 18.3333 12.5 18.3333L13.375 16.875" stroke="white" stroke-width="1.5" stroke-linecap="round" stroke-linejoin="round"/>
<path d="M1.66699 7.5013C1.66699 4.2763 4.27533 1.66797 7.50033 1.66797L6.62533 3.1263" stroke="white" stroke-width="1.5" stroke-linecap="round" stroke-linejoin="round"/>
<path d="M15.417 9.16797C17.4881 9.16797 19.167 7.48904 19.167 5.41797C19.167 3.3469 17.4881 1.66797 15.417 1.66797C13.3459 1.66797 11.667 3.3469 11.667 5.41797C11.667 7.48904 13.3459 9.16797 15.417 9.16797Z" fill="white"/>
</g>
<defs>
<clipPath id="clip0_10_10245">
<rect width="20" height="20" fill="white"/>
</clipPath>
</defs>
</svg>
