<svg width="20" height="20" viewBox="0 0 20 20" fill="none" xmlns="http://www.w3.org/2000/svg">
<path d="M15.5585 1.66797H13.9752C12.1585 1.66797 11.2002 2.6263 11.2002 4.44297V6.0263C11.2002 7.84297 12.1585 8.8013 13.9752 8.8013H15.5585C17.3752 8.8013 18.3335 7.84297 18.3335 6.0263V4.44297C18.3335 2.6263 17.3752 1.66797 15.5585 1.66797Z" fill="white"/>
<path d="M6.03366 11.1914H4.45033C2.62533 11.1914 1.66699 12.1497 1.66699 13.9664V15.5497C1.66699 17.3747 2.62533 18.3331 4.44199 18.3331H6.02533C7.84199 18.3331 8.80033 17.3747 8.80033 15.5581V13.9747C8.80866 12.1497 7.85033 11.1914 6.03366 11.1914Z" fill="white"/>
<path d="M5.24199 8.81797C7.21641 8.81797 8.81699 7.21739 8.81699 5.24297C8.81699 3.26855 7.21641 1.66797 5.24199 1.66797C3.26758 1.66797 1.66699 3.26855 1.66699 5.24297C1.66699 7.21739 3.26758 8.81797 5.24199 8.81797Z" fill="white"/>
<path d="M14.7586 18.3336C16.733 18.3336 18.3336 16.733 18.3336 14.7586C18.3336 12.7842 16.733 11.1836 14.7586 11.1836C12.7842 11.1836 11.1836 12.7842 11.1836 14.7586C11.1836 16.733 12.7842 18.3336 14.7586 18.3336Z" fill="white"/>
</svg>
