<svg width="20" height="20" viewBox="0 0 20 20" fill="none" xmlns="http://www.w3.org/2000/svg">
<path d="M6.03366 1.66797H4.45033C2.62533 1.66797 1.66699 2.6263 1.66699 4.44297V6.0263C1.66699 7.84297 2.62533 8.8013 4.44199 8.8013H6.02533C7.84199 8.8013 8.80033 7.84297 8.80033 6.0263V4.44297C8.80866 2.6263 7.85033 1.66797 6.03366 1.66797Z" fill="white"/>
<path d="M15.5585 1.66797H13.9752C12.1585 1.66797 11.2002 2.6263 11.2002 4.44297V6.0263C11.2002 7.84297 12.1585 8.8013 13.9752 8.8013H15.5585C17.3752 8.8013 18.3335 7.84297 18.3335 6.0263V4.44297C18.3335 2.6263 17.3752 1.66797 15.5585 1.66797Z" fill="white"/>
<path d="M15.5585 11.1914H13.9752C12.1585 11.1914 11.2002 12.1497 11.2002 13.9664V15.5497C11.2002 17.3664 12.1585 18.3247 13.9752 18.3247H15.5585C17.3752 18.3247 18.3335 17.3664 18.3335 15.5497V13.9664C18.3335 12.1497 17.3752 11.1914 15.5585 11.1914Z" fill="white"/>
<path d="M6.03366 11.1914H4.45033C2.62533 11.1914 1.66699 12.1497 1.66699 13.9664V15.5497C1.66699 17.3747 2.62533 18.3331 4.44199 18.3331H6.02533C7.84199 18.3331 8.80033 17.3747 8.80033 15.5581V13.9747C8.80866 12.1497 7.85033 11.1914 6.03366 11.1914Z" fill="white"/>
</svg>
