<svg width="20" height="20" viewBox="0 0 20 20" fill="none" xmlns="http://www.w3.org/2000/svg">
<path d="M7.50033 18.3346C10.722 18.3346 13.3337 15.723 13.3337 12.5013C13.3337 9.27964 10.722 6.66797 7.50033 6.66797C4.27867 6.66797 1.66699 9.27964 1.66699 12.5013C1.66699 15.723 4.27867 18.3346 7.50033 18.3346Z" fill="white"/>
<path d="M18.3328 7.5013C18.3328 9.78464 17.0246 11.7596 15.1163 12.7096C14.8579 12.843 14.5662 12.6346 14.5412 12.3513C14.2578 8.64297 11.3328 5.74297 7.64953 5.45964C7.35786 5.43464 7.15787 5.14297 7.2912 4.88464C8.2412 2.9763 10.2162 1.66797 12.4995 1.66797C15.7245 1.66797 18.3328 4.2763 18.3328 7.5013Z" fill="white"/>
</svg>
