<svg width="20" height="20" viewBox="0 0 20 20" fill="none" xmlns="http://www.w3.org/2000/svg">
<path d="M10.0003 1.66797C5.40033 1.66797 1.66699 5.4013 1.66699 10.0013C1.66699 14.6013 5.40033 18.3346 10.0003 18.3346C14.6003 18.3346 18.3337 14.6013 18.3337 10.0013C18.3337 5.4013 14.6003 1.66797 10.0003 1.66797ZM14.1087 13.118C13.1253 14.418 11.6253 15.1596 10.0003 15.1596C7.15866 15.1596 4.84199 12.843 4.84199 10.0013C4.84199 7.15964 7.15866 4.84297 10.0003 4.84297C11.1253 4.84297 12.2003 5.2013 13.1003 5.8763C13.3753 6.08464 13.4337 6.47631 13.2253 6.75131C13.017 7.02631 12.6253 7.08464 12.3503 6.8763C11.667 6.35964 10.8587 6.09297 10.0003 6.09297C7.85033 6.09297 6.09199 7.84297 6.09199 10.0013C6.09199 12.1596 7.84199 13.9096 10.0003 13.9096C11.2337 13.9096 12.367 13.343 13.117 12.3596C13.3253 12.0846 13.717 12.0346 13.992 12.243C14.267 12.4513 14.317 12.843 14.1087 13.118ZM14.517 9.4513C13.9753 9.4513 13.542 9.01797 13.542 8.4763C13.542 7.93464 13.9753 7.5013 14.517 7.5013C15.0587 7.5013 15.492 7.93464 15.492 8.4763C15.492 9.01797 15.0587 9.4513 14.517 9.4513Z" fill="white"/>
</svg>
