<svg width="20" height="20" viewBox="0 0 20 20" fill="none" xmlns="http://www.w3.org/2000/svg">
<path d="M13.492 1.66797H6.50866C3.47533 1.66797 1.66699 3.4763 1.66699 6.50964V13.493C1.66699 16.5263 3.47533 18.3346 6.50866 18.3346H13.492C16.5253 18.3346 18.3337 16.5263 18.3337 13.493V6.50964C18.3337 3.4763 16.5253 1.66797 13.492 1.66797ZM6.45866 11.3346C6.45866 11.6763 6.17533 11.9596 5.83366 11.9596C5.49199 11.9596 5.20866 11.6763 5.20866 11.3346V8.66797C5.20866 8.3263 5.49199 8.04297 5.83366 8.04297C6.17533 8.04297 6.45866 8.3263 6.45866 8.66797V11.3346ZM10.6253 12.7846C10.6253 13.1263 10.342 13.4096 10.0003 13.4096C9.65866 13.4096 9.37533 13.1263 9.37533 12.7846V7.21797C9.37533 6.8763 9.65866 6.59297 10.0003 6.59297C10.342 6.59297 10.6253 6.8763 10.6253 7.21797V12.7846ZM14.792 11.3346C14.792 11.6763 14.5087 11.9596 14.167 11.9596C13.8253 11.9596 13.542 11.6763 13.542 11.3346V8.66797C13.542 8.3263 13.8253 8.04297 14.167 8.04297C14.5087 8.04297 14.792 8.3263 14.792 8.66797V11.3346Z" fill="white"/>
</svg>
