<svg width="20" height="20" viewBox="0 0 20 20" fill="none" xmlns="http://www.w3.org/2000/svg">
<path d="M17.4747 13.332H15.0247C13.9663 13.332 13.333 13.9654 13.333 15.0237V17.4737C13.333 18.532 13.9663 19.1654 15.0247 19.1654H17.4747C18.533 19.1654 19.1663 18.532 19.1663 17.4737V15.0237C19.1663 13.9654 18.533 13.332 17.4747 13.332ZM18.0247 15.3737L16.0497 17.682C15.9663 17.7737 15.858 17.832 15.733 17.832C15.733 17.832 15.7247 17.832 15.7163 17.832C15.608 17.832 15.4913 17.7904 15.4163 17.707L14.4997 16.807C14.333 16.6404 14.333 16.3654 14.4997 16.1904C14.6663 16.0237 14.9413 16.0237 15.1163 16.1904L15.6913 16.7654L17.3663 14.8154C17.5163 14.632 17.7913 14.607 17.9747 14.7654C18.158 14.9237 18.1747 15.1987 18.0247 15.3737Z" fill="white"/>
<path d="M17.4747 13.332H15.0247C13.9663 13.332 13.333 13.9654 13.333 15.0237V17.4737C13.333 18.532 13.9663 19.1654 15.0247 19.1654H17.4747C18.533 19.1654 19.1663 18.532 19.1663 17.4737V15.0237C19.1663 13.9654 18.533 13.332 17.4747 13.332ZM18.0247 15.3737L16.0497 17.682C15.9663 17.7737 15.858 17.832 15.733 17.832C15.733 17.832 15.7247 17.832 15.7163 17.832C15.608 17.832 15.4913 17.7904 15.4163 17.707L14.4997 16.807C14.333 16.6404 14.333 16.3654 14.4997 16.1904C14.6663 16.0237 14.9413 16.0237 15.1163 16.1904L15.6913 16.7654L17.3663 14.8154C17.5163 14.632 17.7913 14.607 17.9747 14.7654C18.158 14.9237 18.1747 15.1987 18.0247 15.3737Z" fill="white"/>
<path d="M18.3087 6.00964C18.0753 3.73464 16.267 1.9263 13.992 1.69297C13.8253 1.6763 13.6587 1.66797 13.492 1.66797H6.50866C6.34199 1.66797 6.17533 1.6763 6.00866 1.69297C3.73366 1.9263 1.92533 3.73464 1.69199 6.00964C1.67533 6.1763 1.66699 6.34297 1.66699 6.50964V13.493C1.66699 13.6596 1.67533 13.8263 1.69199 13.993C1.92533 16.268 3.73366 18.0763 6.00866 18.3096C6.17533 18.3263 6.34199 18.3346 6.50866 18.3346H11.667C12.1253 18.3346 12.5003 17.9596 12.5003 17.5013V15.0263C12.5003 13.6346 13.6337 12.5013 15.0253 12.5013H17.5003C17.9587 12.5013 18.3337 12.1263 18.3337 11.668V6.50964C18.3337 6.34297 18.3253 6.1763 18.3087 6.00964ZM6.45866 11.2513C6.45866 11.593 6.17533 11.8763 5.83366 11.8763C5.49199 11.8763 5.20866 11.593 5.20866 11.2513V8.7513C5.20866 8.40964 5.49199 8.1263 5.83366 8.1263C6.17533 8.1263 6.45866 8.40964 6.45866 8.7513V11.2513ZM10.6253 11.2513C10.6253 11.593 10.342 11.8763 10.0003 11.8763C9.65866 11.8763 9.37533 11.593 9.37533 11.2513V8.7513C9.37533 8.40964 9.65866 8.1263 10.0003 8.1263C10.342 8.1263 10.6253 8.40964 10.6253 8.7513V11.2513Z" fill="white"/>
</svg>
