<svg width="20" height="20" viewBox="0 0 20 20" fill="none" xmlns="http://www.w3.org/2000/svg">
<path d="M17.5 18.957H2.5C2.15833 18.957 1.875 18.6737 1.875 18.332C1.875 17.9904 2.15833 17.707 2.5 17.707H17.5C17.8417 17.707 18.125 17.9904 18.125 18.332C18.125 18.6737 17.8417 18.957 17.5 18.957Z" fill="white"/>
<path d="M4.66667 6.98438H3.33333C2.875 6.98438 2.5 7.35937 2.5 7.81771V15.0011C2.5 15.4594 2.875 15.8344 3.33333 15.8344H4.66667C5.125 15.8344 5.5 15.4594 5.5 15.0011V7.81771C5.5 7.35104 5.125 6.98438 4.66667 6.98438Z" fill="white"/>
<path d="M10.6667 4.32422H9.33333C8.875 4.32422 8.5 4.69922 8.5 5.15755V14.9993C8.5 15.4576 8.875 15.8326 9.33333 15.8326H10.6667C11.125 15.8326 11.5 15.4576 11.5 14.9993V5.15755C11.5 4.69922 11.125 4.32422 10.6667 4.32422Z" fill="white"/>
<path d="M16.6667 1.66797H15.3333C14.875 1.66797 14.5 2.04297 14.5 2.5013V15.0013C14.5 15.4596 14.875 15.8346 15.3333 15.8346H16.6667C17.125 15.8346 17.5 15.4596 17.5 15.0013V2.5013C17.5 2.04297 17.125 1.66797 16.6667 1.66797Z" fill="white"/>
</svg>
