<svg width="20" height="20" viewBox="0 0 20 20" fill="none" xmlns="http://www.w3.org/2000/svg">
<path d="M18.3337 18.332H1.66699C1.32533 18.332 1.04199 18.0487 1.04199 17.707C1.04199 17.3654 1.32533 17.082 1.66699 17.082H18.3337C18.6753 17.082 18.9587 17.3654 18.9587 17.707C18.9587 18.0487 18.6753 18.332 18.3337 18.332Z" fill="white"/>
<path d="M8.125 3.33464V18.3346H11.875V3.33464C11.875 2.41797 11.5 1.66797 10.375 1.66797H9.625C8.5 1.66797 8.125 2.41797 8.125 3.33464Z" fill="white"/>
<path d="M2.5 8.33464V18.3346H5.83333V8.33464C5.83333 7.41797 5.5 6.66797 4.5 6.66797H3.83333C2.83333 6.66797 2.5 7.41797 2.5 8.33464Z" fill="white"/>
<path d="M14.167 12.4987V18.332H17.5003V12.4987C17.5003 11.582 17.167 10.832 16.167 10.832H15.5003C14.5003 10.832 14.167 11.582 14.167 12.4987Z" fill="white"/>
</svg>
