<svg width="20" height="20" viewBox="0 0 20 20" fill="none" xmlns="http://www.w3.org/2000/svg">
<path d="M13.492 1.66797H6.50866C3.47533 1.66797 1.66699 3.4763 1.66699 6.50964V13.4846C1.66699 16.5263 3.47533 18.3346 6.50866 18.3346H13.4837C16.517 18.3346 18.3253 16.5263 18.3253 13.493V6.50964C18.3337 3.4763 16.5253 1.66797 13.492 1.66797ZM7.59199 14.0846C7.59199 14.318 7.40866 14.5013 7.17533 14.5013H4.85033C4.61699 14.5013 4.43366 14.318 4.43366 14.0846V10.2346C4.43366 9.70964 4.85866 9.28464 5.38366 9.28464H7.17533C7.40866 9.28464 7.59199 9.46797 7.59199 9.7013V14.0846ZM11.5753 14.0846C11.5753 14.318 11.392 14.5013 11.1587 14.5013H8.83366C8.60033 14.5013 8.41699 14.318 8.41699 14.0846V6.4513C8.41699 5.9263 8.84199 5.5013 9.36699 5.5013H10.6337C11.1587 5.5013 11.5837 5.9263 11.5837 6.4513V14.0846H11.5753ZM15.567 14.0846C15.567 14.318 15.3837 14.5013 15.1503 14.5013H12.8253C12.592 14.5013 12.4087 14.318 12.4087 14.0846V11.1263C12.4087 10.893 12.592 10.7096 12.8253 10.7096H14.617C15.142 10.7096 15.567 11.1346 15.567 11.6596V14.0846Z" fill="white"/>
</svg>
