<svg width="20" height="20" viewBox="0 0 20 20" fill="none" xmlns="http://www.w3.org/2000/svg">
<path d="M18.3087 6.00964C18.0753 3.73464 16.267 1.9263 13.992 1.69297C13.8253 1.6763 13.6587 1.66797 13.492 1.66797H6.50866C6.34199 1.66797 6.17533 1.6763 6.00866 1.69297C3.73366 1.9263 1.92533 3.73464 1.69199 6.00964C1.67533 6.1763 1.66699 6.34297 1.66699 6.50964V13.493C1.66699 13.6596 1.67533 13.8263 1.69199 13.993C1.92533 16.268 3.73366 18.0763 6.00866 18.3096C6.17533 18.3263 6.34199 18.3346 6.50866 18.3346H11.667C12.1253 18.3346 12.5003 17.9596 12.5003 17.5013V15.0263C12.5003 13.6346 13.6337 12.5013 15.0253 12.5013H17.5003C17.9587 12.5013 18.3337 12.1263 18.3337 11.668V6.50964C18.3337 6.34297 18.3253 6.1763 18.3087 6.00964ZM6.45866 11.2513C6.45866 11.593 6.17533 11.8763 5.83366 11.8763C5.49199 11.8763 5.20866 11.593 5.20866 11.2513V8.7513C5.20866 8.40964 5.49199 8.1263 5.83366 8.1263C6.17533 8.1263 6.45866 8.40964 6.45866 8.7513V11.2513ZM10.6253 11.2513C10.6253 11.593 10.342 11.8763 10.0003 11.8763C9.65866 11.8763 9.37533 11.593 9.37533 11.2513V8.7513C9.37533 8.40964 9.65866 8.1263 10.0003 8.1263C10.342 8.1263 10.6253 8.40964 10.6253 8.7513V11.2513Z" fill="white"/>
<path d="M17.4747 13.332H15.0247C13.9663 13.332 13.333 13.9654 13.333 15.0237V17.4737C13.333 18.532 13.9663 19.1654 15.0247 19.1654H17.4747C18.533 19.1654 19.1663 18.532 19.1663 17.4737V15.0237C19.1663 13.9654 18.533 13.332 17.4747 13.332ZM17.8913 17.132C18.0997 17.3404 18.0997 17.682 17.8913 17.8904C17.783 17.9904 17.6413 18.0404 17.508 18.0404C17.3747 18.0404 17.233 17.9904 17.1247 17.8904L16.2413 17.007L15.3747 17.8904C15.2663 17.9904 15.133 18.0404 14.983 18.0404C14.858 18.0404 14.7163 17.9904 14.6163 17.8904C14.408 17.682 14.408 17.3404 14.6163 17.132L15.4997 16.2487L14.6163 15.3737C14.408 15.1654 14.408 14.8237 14.6163 14.6154C14.8247 14.407 15.1663 14.407 15.3747 14.6154L16.2413 15.4987L17.1247 14.6154C17.333 14.407 17.683 14.407 17.8913 14.6154C18.0997 14.8237 18.0997 15.1654 17.8913 15.3737L17.008 16.2487L17.8913 17.132Z" fill="white"/>
</svg>
