<svg width="20" height="20" viewBox="0 0 20 20" fill="none" xmlns="http://www.w3.org/2000/svg">
<path d="M10.0003 1.66797C5.40033 1.66797 1.66699 5.4013 1.66699 10.0013C1.66699 14.6013 5.40033 18.3346 10.0003 18.3346C14.6003 18.3346 18.3337 14.6013 18.3337 10.0013C18.3337 5.4013 14.6003 1.66797 10.0003 1.66797ZM10.0003 7.29297C9.65866 7.29297 9.37533 7.00964 9.37533 6.66797C9.37533 6.3263 9.65866 6.04297 10.0003 6.04297C12.1837 6.04297 13.9587 7.81797 13.9587 10.0013C13.9587 12.1846 12.1837 13.9596 10.0003 13.9596C9.65866 13.9596 9.37533 13.6763 9.37533 13.3346C9.37533 12.993 9.65866 12.7096 10.0003 12.7096C11.492 12.7096 12.7087 11.493 12.7087 10.0013C12.7087 8.50964 11.492 7.29297 10.0003 7.29297ZM10.0003 16.4596C6.44199 16.4596 3.54199 13.5596 3.54199 10.0013C3.54199 9.65964 3.82533 9.3763 4.16699 9.3763C4.50866 9.3763 4.79199 9.65964 4.79199 10.0013C4.79199 12.8763 7.12533 15.2096 10.0003 15.2096C12.8753 15.2096 15.2087 12.8763 15.2087 10.0013C15.2087 7.1263 12.8753 4.79297 10.0003 4.79297C9.65866 4.79297 9.37533 4.50964 9.37533 4.16797C9.37533 3.8263 9.65866 3.54297 10.0003 3.54297C13.5587 3.54297 16.4587 6.44297 16.4587 10.0013C16.4587 13.5596 13.5587 16.4596 10.0003 16.4596Z" fill="white"/>
</svg>
