<svg width="20" height="20" viewBox="0 0 20 20" fill="none" xmlns="http://www.w3.org/2000/svg">
<path d="M13.492 1.66797H6.50866C3.47533 1.66797 1.66699 3.4763 1.66699 6.50964V13.4846C1.66699 16.5263 3.47533 18.3346 6.50866 18.3346H13.4837C16.517 18.3346 18.3253 16.5263 18.3253 13.493V6.50964C18.3337 3.4763 16.5253 1.66797 13.492 1.66797ZM8.25866 13.493C8.25866 14.0263 7.82533 14.4596 7.28366 14.4596C6.75033 14.4596 6.31699 14.0263 6.31699 13.493V10.7763C6.31699 10.243 6.75033 9.80964 7.28366 9.80964C7.82533 9.80964 8.25866 10.243 8.25866 10.7763V13.493ZM13.6837 13.493C13.6837 14.0263 13.2503 14.4596 12.717 14.4596C12.1753 14.4596 11.742 14.0263 11.742 13.493V6.50964C11.742 5.9763 12.1753 5.54297 12.717 5.54297C13.2503 5.54297 13.6837 5.9763 13.6837 6.50964V13.493Z" fill="white"/>
</svg>
