<svg width="20" height="20" viewBox="0 0 20 20" fill="none" xmlns="http://www.w3.org/2000/svg">
<path d="M9.84926 5.7513C12.2326 5.23464 14.6493 5.15964 17.0409 5.5513C15.5659 3.21797 12.9659 1.66797 9.99926 1.66797C7.40762 1.66797 5.09095 2.8513 3.55762 4.70964C3.92428 5.79297 4.39095 6.8263 4.94928 7.80964C5.26595 8.3763 6.07428 8.3513 6.39928 7.79297C7.10762 6.6013 8.38259 5.8013 9.84926 5.7513Z" fill="white"/>
<path d="M6.43302 12.2659C4.76636 10.4826 3.46636 8.44926 2.57469 6.19922C1.32469 8.66593 1.33302 11.6909 2.85802 14.2326C4.19136 16.4576 6.39136 17.8409 8.77467 18.1993C9.51634 17.3243 10.1663 16.3909 10.7247 15.4159C11.0497 14.8493 10.608 14.1743 9.95801 14.1743C8.56634 14.1826 7.22469 13.4993 6.43302 12.2659Z" fill="white"/>
<path d="M7.1416 9.99845C7.1416 10.5068 7.2666 10.9818 7.52493 11.4318C8.03327 12.3068 8.97493 12.8568 9.99159 12.8568C11.0083 12.8568 11.9583 12.3068 12.4583 11.4318C12.7166 10.9818 12.8499 10.5068 12.8499 9.99845C12.8499 8.42345 11.5666 7.14848 9.99159 7.14848C8.42493 7.14014 7.1416 8.42345 7.1416 9.99845Z" fill="white"/>
<path d="M17.7838 7.01674C16.6421 6.77507 15.4838 6.64174 14.3338 6.62507C13.6755 6.61674 13.3005 7.33341 13.6255 7.90841C13.9588 8.50006 14.1505 9.1834 14.1505 9.9084C14.1505 10.6084 13.9671 11.3001 13.6255 11.9167C12.8421 14.3167 11.6755 16.4501 10.1338 18.3334C14.6755 18.2584 18.3338 14.5584 18.3338 10.0001C18.3338 8.95006 18.1421 7.94174 17.7838 7.01674Z" fill="white"/>
</svg>
