<svg width="20" height="20" viewBox="0 0 20 20" fill="none" xmlns="http://www.w3.org/2000/svg">
<path d="M11.9166 8.44314C12.1499 9.35981 11.7416 10.2098 11.0416 10.6431V12.2931C11.0416 12.8681 10.5749 13.3347 9.99992 13.3347C9.42492 13.3347 8.95825 12.8681 8.95825 12.2931V10.6431C8.39158 10.2931 8.0166 9.66806 8.0166 8.95973C8.0166 7.6931 9.21658 6.70977 10.5333 7.05977C11.1999 7.23477 11.7416 7.77643 11.9166 8.44314Z" fill="white"/>
<path d="M10.0003 18.9596C5.05866 18.9596 1.04199 14.943 1.04199 10.0013C1.04199 5.05964 5.05866 1.04297 10.0003 1.04297C13.9503 1.04297 17.3837 3.5763 18.5587 7.33464C18.6587 7.66797 18.4753 8.01798 18.1503 8.11798C17.817 8.21798 17.467 8.03464 17.367 7.70964C16.3587 4.46797 13.4003 2.29297 10.0087 2.29297C5.75865 2.29297 2.30032 5.7513 2.30032 10.0013C2.30032 14.2513 5.75865 17.7096 10.0087 17.7096C13.392 17.7096 16.3503 15.543 17.3587 12.318C17.4587 11.9846 17.8087 11.8096 18.142 11.9096C18.4753 12.0096 18.6503 12.368 18.5503 12.693C17.367 16.443 13.9337 18.9596 10.0003 18.9596Z" fill="white"/>
</svg>
