<svg width="20" height="20" viewBox="0 0 20 20" fill="none" xmlns="http://www.w3.org/2000/svg">
<path d="M11.9585 1.66797H8.0418C7.17513 1.66797 6.4668 2.36797 6.4668 3.23464V4.01797C6.4668 4.88464 7.1668 5.58464 8.03346 5.58464H11.9585C12.8252 5.58464 13.5252 4.88464 13.5252 4.01797V3.23464C13.5335 2.36797 12.8252 1.66797 11.9585 1.66797Z" fill="white"/>
<path d="M14.3672 4.01689C14.3672 5.34189 13.2838 6.42523 11.9588 6.42523H8.04219C6.71719 6.42523 5.63385 5.34189 5.63385 4.01689C5.63385 3.55023 5.13385 3.25856 4.71719 3.47523C3.54219 4.10023 2.74219 5.34189 2.74219 6.76689V14.6086C2.74219 16.6586 4.41719 18.3336 6.46719 18.3336H13.5338C15.5838 18.3336 17.2588 16.6586 17.2588 14.6086V6.76689C17.2588 5.34189 16.4588 4.10023 15.2838 3.47523C14.8672 3.25856 14.3672 3.55023 14.3672 4.01689ZM13.1255 14.1669C13.1255 14.5086 12.8422 14.7919 12.5005 14.7919H10.0005C9.65882 14.7919 9.37549 14.5086 9.37549 14.1669C9.37549 13.8252 9.65882 13.5419 10.0005 13.5419H10.9922L7.05885 9.60857C6.81719 9.3669 6.81719 8.9669 7.05885 8.72524C7.30052 8.48357 7.70052 8.48357 7.94219 8.72524L11.8755 12.6586V11.6669C11.8755 11.3252 12.1588 11.0419 12.5005 11.0419C12.8422 11.0419 13.1255 11.3252 13.1255 11.6669V14.1669Z" fill="white"/>
</svg>
