<svg width="20" height="20" viewBox="0 0 20 20" fill="none" xmlns="http://www.w3.org/2000/svg">
<path d="M11.9585 1.66797H8.0418C7.17513 1.66797 6.4668 2.36797 6.4668 3.23464V4.01797C6.4668 4.88464 7.1668 5.58464 8.03346 5.58464H11.9585C12.8252 5.58464 13.5252 4.88464 13.5252 4.01797V3.23464C13.5335 2.36797 12.8252 1.66797 11.9585 1.66797Z" fill="white"/>
<path d="M14.3672 4.01689C14.3672 5.34189 13.2838 6.42523 11.9588 6.42523H8.04219C6.71719 6.42523 5.63385 5.34189 5.63385 4.01689C5.63385 3.55023 5.13385 3.25856 4.71719 3.47523C3.54219 4.10023 2.74219 5.34189 2.74219 6.76689V14.6086C2.74219 16.6586 4.41719 18.3336 6.46719 18.3336H13.5338C15.5838 18.3336 17.2588 16.6586 17.2588 14.6086V6.76689C17.2588 5.34189 16.4588 4.10023 15.2838 3.47523C14.8672 3.25856 14.3672 3.55023 14.3672 4.01689ZM10.3172 14.1252H6.66719C6.32552 14.1252 6.04219 13.8419 6.04219 13.5002C6.04219 13.1586 6.32552 12.8752 6.66719 12.8752H10.3172C10.6588 12.8752 10.9422 13.1586 10.9422 13.5002C10.9422 13.8419 10.6588 14.1252 10.3172 14.1252ZM12.5005 10.7919H6.66719C6.32552 10.7919 6.04219 10.5086 6.04219 10.1669C6.04219 9.82524 6.32552 9.5419 6.66719 9.5419H12.5005C12.8422 9.5419 13.1255 9.82524 13.1255 10.1669C13.1255 10.5086 12.8422 10.7919 12.5005 10.7919Z" fill="white"/>
</svg>
