<svg width="20" height="20" viewBox="0 0 20 20" fill="none" xmlns="http://www.w3.org/2000/svg">
<path d="M11.9585 1.66797H8.0418C7.17513 1.66797 6.4668 2.36797 6.4668 3.23464V4.01797C6.4668 4.88464 7.1668 5.58464 8.03346 5.58464H11.9585C12.8252 5.58464 13.5252 4.88464 13.5252 4.01797V3.23464C13.5335 2.36797 12.8252 1.66797 11.9585 1.66797Z" fill="white"/>
<path d="M14.3672 4.01689C14.3672 5.34189 13.2838 6.42523 11.9588 6.42523H8.04219C6.71719 6.42523 5.63385 5.34189 5.63385 4.01689C5.63385 3.55023 5.13385 3.25856 4.71719 3.47523C3.54219 4.10023 2.74219 5.34189 2.74219 6.76689V14.6086C2.74219 16.6586 4.41719 18.3336 6.46719 18.3336H13.5338C15.5838 18.3336 17.2588 16.6586 17.2588 14.6086V6.76689C17.2588 5.34189 16.4588 4.10023 15.2838 3.47523C14.8672 3.25856 14.3672 3.55023 14.3672 4.01689ZM12.7838 10.6086L9.45049 13.9419C9.32549 14.0669 9.16715 14.1252 9.00882 14.1252C8.85049 14.1252 8.69215 14.0669 8.56715 13.9419L7.31719 12.6919C7.07552 12.4502 7.07552 12.0502 7.31719 11.8086C7.55885 11.5669 7.95885 11.5669 8.20052 11.8086L9.00882 12.6169L11.9005 9.72524C12.1422 9.48357 12.5422 9.48357 12.7838 9.72524C13.0255 9.9669 13.0255 10.3669 12.7838 10.6086Z" fill="white"/>
</svg>
