<svg width="20" height="20" viewBox="0 0 20 20" fill="none" xmlns="http://www.w3.org/2000/svg">
<path d="M11.9585 1.66797H8.0418C7.17513 1.66797 6.4668 2.36797 6.4668 3.23464V4.01797C6.4668 4.88464 7.1668 5.58464 8.03346 5.58464H11.9585C12.8252 5.58464 13.5252 4.88464 13.5252 4.01797V3.23464C13.5335 2.36797 12.8252 1.66797 11.9585 1.66797Z" fill="white"/>
<path d="M14.3672 4.01689C14.3672 5.34189 13.2838 6.42523 11.9588 6.42523H8.04219C6.71719 6.42523 5.63385 5.34189 5.63385 4.01689C5.63385 3.55023 5.13385 3.25856 4.71719 3.47523C3.54219 4.10023 2.74219 5.34189 2.74219 6.76689V14.6086C2.74219 16.6586 4.41719 18.3336 6.46719 18.3336H13.5338C15.5838 18.3336 17.2588 16.6586 17.2588 14.6086V6.76689C17.2588 5.34189 16.4588 4.10023 15.2838 3.47523C14.8672 3.25856 14.3672 3.55023 14.3672 4.01689ZM12.1088 13.9086C11.9838 14.0336 11.8255 14.0919 11.6672 14.0919C11.5088 14.0919 11.3505 14.0336 11.2255 13.9086L10.0172 12.7002L8.77549 13.9419C8.65049 14.0669 8.49215 14.1252 8.33382 14.1252C8.17552 14.1252 8.01719 14.0669 7.89219 13.9419C7.65052 13.7002 7.65052 13.3002 7.89219 13.0586L9.13382 11.8169L7.92552 10.6086C7.68385 10.3669 7.68385 9.9669 7.92552 9.72524C8.16719 9.48357 8.56715 9.48357 8.80882 9.72524L10.0172 10.9336L11.1838 9.7669C11.4255 9.52524 11.8255 9.52524 12.0672 9.7669C12.3088 10.0086 12.3088 10.4086 12.0672 10.6502L10.9005 11.8169L12.1088 13.0252C12.3505 13.2669 12.3505 13.6586 12.1088 13.9086Z" fill="white"/>
</svg>
