<svg width="20" height="20" viewBox="0 0 20 20" fill="none" xmlns="http://www.w3.org/2000/svg">
<path d="M11.9585 1.66797H8.0418C7.17513 1.66797 6.4668 2.36797 6.4668 3.23464V4.01797C6.4668 4.88464 7.1668 5.58464 8.03346 5.58464H11.9585C12.8252 5.58464 13.5252 4.88464 13.5252 4.01797V3.23464C13.5335 2.36797 12.8252 1.66797 11.9585 1.66797Z" fill="white"/>
<path d="M14.3672 4.01689C14.3672 5.34189 13.2838 6.42523 11.9588 6.42523H8.04219C6.71719 6.42523 5.63385 5.34189 5.63385 4.01689C5.63385 3.55023 5.13385 3.25856 4.71719 3.47523C3.54219 4.10023 2.74219 5.34189 2.74219 6.76689V14.6086C2.74219 16.6586 4.41719 18.3336 6.46719 18.3336H13.5338C15.5838 18.3336 17.2588 16.6586 17.2588 14.6086V6.76689C17.2588 5.34189 16.4588 4.10023 15.2838 3.47523C14.8672 3.25856 14.3672 3.55023 14.3672 4.01689ZM12.9422 14.6086C12.8172 14.7336 12.6588 14.7919 12.5005 14.7919C12.3422 14.7919 12.1838 14.7336 12.0588 14.6086L8.12552 10.6752V11.6669C8.12552 12.0086 7.84219 12.2919 7.50052 12.2919C7.15885 12.2919 6.87552 12.0086 6.87552 11.6669V9.1669C6.87552 8.82524 7.15885 8.5419 7.50052 8.5419H10.0005C10.3422 8.5419 10.6255 8.82524 10.6255 9.1669C10.6255 9.50857 10.3422 9.7919 10.0005 9.7919H9.00882L12.9422 13.7252C13.1838 13.9669 13.1838 14.3669 12.9422 14.6086Z" fill="white"/>
</svg>
