<svg width="20" height="20" viewBox="0 0 20 20" fill="none" xmlns="http://www.w3.org/2000/svg">
<path d="M12.2648 15.8313C12.5963 15.7021 12.9792 15.9846 12.9082 16.3332C12.4999 17.9166 11.5832 18.3332 10.4582 18.3332H9.54989C8.42489 18.3332 7.49987 17.9166 7.09987 16.3249C7.03134 15.9757 7.41239 15.6955 7.74374 15.8253C8.45598 16.1043 9.21723 16.2499 9.99989 16.2499C10.7863 16.2499 11.5514 16.1094 12.2648 15.8313Z" fill="white"/>
<path d="M12.9078 3.66797C12.9814 4.02023 12.5931 4.30705 12.2583 4.17523C11.5601 3.90039 10.7984 3.7513 9.99944 3.7513C9.20144 3.7513 8.44119 3.90224 7.74248 4.17736C7.41092 4.30791 7.02832 4.02548 7.09944 3.6763C7.49944 2.08464 8.42444 1.66797 9.54944 1.66797H10.4578C11.5828 1.66797 12.4994 2.08464 12.9078 3.66797Z" fill="white"/>
<path d="M9.99967 4.58203C7.00801 4.58203 4.58301 7.00703 4.58301 9.9987C4.58301 11.7487 5.40801 13.2987 6.69134 14.2904H6.69967C7.61634 14.9987 8.75801 15.4154 9.99967 15.4154C11.258 15.4154 12.408 14.9904 13.3247 14.2737H13.333C14.5997 13.282 15.4163 11.732 15.4163 9.9987C15.4163 7.00703 12.9913 4.58203 9.99967 4.58203ZM11.608 11.982C11.483 12.107 11.3247 12.1654 11.1663 12.1654C11.008 12.1654 10.8497 12.107 10.7247 11.982L9.55801 10.8154C9.44134 10.6987 9.37467 10.5404 9.37467 10.3737V8.0487C9.37467 7.70703 9.65801 7.4237 9.99967 7.4237C10.3413 7.4237 10.6247 7.70703 10.6247 8.0487V10.1154L11.608 11.0987C11.8497 11.3404 11.8497 11.7404 11.608 11.982Z" fill="white"/>
</svg>
