<svg width="20" height="20" viewBox="0 0 20 20" fill="none" xmlns="http://www.w3.org/2000/svg">
<path d="M10.0003 1.66797C5.40866 1.66797 1.66699 5.40964 1.66699 10.0013C1.66699 14.593 5.40866 18.3346 10.0003 18.3346C14.592 18.3346 18.3337 14.593 18.3337 10.0013C18.3337 5.40964 14.592 1.66797 10.0003 1.66797ZM12.8003 11.918C13.042 12.1596 13.042 12.5596 12.8003 12.8013C12.6753 12.9263 12.517 12.9846 12.3587 12.9846C12.2003 12.9846 12.042 12.9263 11.917 12.8013L10.0003 10.8846L8.08366 12.8013C7.95866 12.9263 7.80033 12.9846 7.64199 12.9846C7.48366 12.9846 7.32533 12.9263 7.20033 12.8013C6.95866 12.5596 6.95866 12.1596 7.20033 11.918L9.11699 10.0013L7.20033 8.08464C6.95866 7.84297 6.95866 7.44297 7.20033 7.2013C7.44199 6.95964 7.84199 6.95964 8.08366 7.2013L10.0003 9.11797L11.917 7.2013C12.1587 6.95964 12.5587 6.95964 12.8003 7.2013C13.042 7.44297 13.042 7.84297 12.8003 8.08464L10.8837 10.0013L12.8003 11.918Z" fill="white"/>
</svg>
