<svg width="20" height="20" viewBox="0 0 20 20" fill="none" xmlns="http://www.w3.org/2000/svg">
<path d="M11.2247 11.9922H8.77467C7.71634 11.9922 7.08301 12.6255 7.08301 13.6839V16.1339C7.08301 17.1922 7.71634 17.8255 8.77467 17.8255H11.2247C12.283 17.8255 12.9163 17.1922 12.9163 16.1339V13.6839C12.9163 12.6255 12.283 11.9922 11.2247 11.9922ZM12.008 15.2672C11.9247 15.3505 11.7997 15.4089 11.6663 15.4172H10.4913L10.4997 16.5755C10.4913 16.7172 10.4413 16.8339 10.3413 16.9339C10.258 17.0172 10.133 17.0755 9.99967 17.0755C9.72467 17.0755 9.49967 16.8505 9.49967 16.5755V15.4089L8.33301 15.4172C8.05801 15.4172 7.83301 15.1839 7.83301 14.9089C7.83301 14.6339 8.05801 14.4089 8.33301 14.4089L9.49967 14.4172V13.2505C9.49967 12.9755 9.72467 12.7422 9.99967 12.7422C10.2747 12.7422 10.4997 12.9755 10.4997 13.2505L10.4913 14.4089H11.6663C11.9413 14.4089 12.1663 14.6339 12.1663 14.9089C12.158 15.0505 12.0997 15.1672 12.008 15.2672Z" fill="white"/>
<path d="M16.8087 14.6405C16.367 15.0488 15.8587 15.3571 15.3087 15.5655C14.7587 15.7738 14.167 15.3738 14.167 14.7821V13.6821C14.167 12.0571 12.8503 10.7405 11.2253 10.7405H8.77533C7.15033 10.7405 5.83366 12.0571 5.83366 13.6821V14.9988C5.83366 15.4571 5.45866 15.8321 5.00033 15.8321H4.62533C2.58366 15.5238 1.66699 13.8655 1.66699 12.3821C1.66699 10.9821 2.48366 9.43213 4.25866 8.9988C3.76699 7.05714 4.18366 5.23214 5.45033 3.90714C6.89199 2.39881 9.19199 1.79881 11.1753 2.41548C13.0003 2.97381 14.2837 4.47381 14.742 6.55714C16.3337 6.91548 17.6087 8.11548 18.117 9.78213C18.667 11.5905 18.167 13.4488 16.8087 14.6405Z" fill="white"/>
</svg>
