<svg width="20" height="20" viewBox="0 0 20 20" fill="none" xmlns="http://www.w3.org/2000/svg">
<path d="M16.8087 14.6405C16.367 15.0488 15.8587 15.3571 15.3087 15.5655C14.7587 15.7738 14.167 15.3738 14.167 14.7821V13.6821C14.167 12.0571 12.8503 10.7405 11.2253 10.7405H8.77533C7.15033 10.7405 5.83366 12.0571 5.83366 13.6821V14.9988C5.83366 15.4571 5.45866 15.8321 5.00033 15.8321H4.62533C2.58366 15.5238 1.66699 13.8655 1.66699 12.3821C1.66699 10.9821 2.48366 9.43213 4.25866 8.9988C3.76699 7.05714 4.18366 5.23214 5.45033 3.90714C6.89199 2.39881 9.19199 1.79881 11.1753 2.41548C13.0003 2.97381 14.2837 4.47381 14.742 6.55714C16.3337 6.91548 17.6087 8.11548 18.117 9.78213C18.667 11.5905 18.167 13.4488 16.8087 14.6405Z" fill="white"/>
<path d="M11.2247 11.9922H8.77467C7.71634 11.9922 7.08301 12.6255 7.08301 13.6839V16.1339C7.08301 17.1922 7.71634 17.8255 8.77467 17.8255H11.2247C12.283 17.8255 12.9163 17.1922 12.9163 16.1339V13.6839C12.9163 12.6255 12.283 11.9922 11.2247 11.9922ZM9.75801 15.7005L8.72467 16.7255C8.64967 16.8005 8.54967 16.8422 8.45801 16.8422C8.34967 16.8422 8.25801 16.8005 8.18301 16.7255C8.03301 16.5755 8.03301 16.3339 8.18301 16.1839L9.20801 15.1505C9.36634 15.0005 9.60801 15.0005 9.75801 15.1505C9.90801 15.3005 9.90801 15.5505 9.75801 15.7005ZM9.75801 13.6339L8.72467 14.6672C8.64967 14.7422 8.54967 14.7839 8.45801 14.7839C8.34967 14.7839 8.25801 14.7422 8.18301 14.6672C8.03301 14.5172 8.03301 14.2672 8.18301 14.1172L9.20801 13.0922C9.36634 12.9422 9.60801 12.9422 9.75801 13.0922C9.90801 13.2422 9.90801 13.4839 9.75801 13.6339ZM11.8163 15.7005L10.7913 16.7255C10.708 16.8005 10.6163 16.8422 10.5163 16.8422C10.4163 16.8422 10.3163 16.8005 10.2413 16.7255C10.0913 16.5755 10.0913 16.3339 10.2413 16.1839L11.2747 15.1505C11.4247 15.0005 11.6663 15.0005 11.8163 15.1505C11.9663 15.3005 11.9663 15.5505 11.8163 15.7005ZM11.8163 13.6339L10.7913 14.6672C10.708 14.7422 10.6163 14.7839 10.5163 14.7839C10.4163 14.7839 10.3163 14.7422 10.2413 14.6672C10.0913 14.5172 10.0913 14.2672 10.2413 14.1172L11.2747 13.0922C11.4247 12.9422 11.6663 12.9422 11.8163 13.0922C11.9663 13.2422 11.9663 13.4839 11.8163 13.6339Z" fill="white"/>
</svg>
