<svg width="20" height="20" viewBox="0 0 20 20" fill="none" xmlns="http://www.w3.org/2000/svg">
<path d="M6.7584 9.87418C4.4084 10.0408 4.41673 13.4575 6.7584 13.6242H12.3167C12.9917 13.6325 13.6418 13.3742 14.1418 12.9242C15.7918 11.4825 14.9084 8.59085 12.7418 8.31581C11.9668 3.61581 5.17507 5.39915 6.7834 9.87418" fill="white"/>
<path d="M7.50033 18.9583C3.94199 18.9583 1.04199 16.0583 1.04199 12.5C1.04199 12.1583 1.32533 11.875 1.66699 11.875C2.00866 11.875 2.29199 12.1583 2.29199 12.5C2.29199 14.9667 4.00866 17.0333 6.31699 17.575L6.09199 17.2C5.91699 16.9 6.00866 16.5167 6.30866 16.3417C6.60033 16.1667 6.99199 16.2583 7.16699 16.5583L8.04199 18.0167C8.15866 18.2083 8.15866 18.45 8.05033 18.6417C7.93366 18.8333 7.72533 18.9583 7.50033 18.9583Z" fill="white"/>
<path d="M18.3337 8.1263C17.992 8.1263 17.7087 7.84297 17.7087 7.5013C17.7087 5.03464 15.992 2.96797 13.6837 2.4263L13.9087 2.8013C14.0837 3.1013 13.992 3.48464 13.692 3.65964C13.4004 3.83464 13.0087 3.74297 12.8337 3.44297L11.9587 1.98464C11.842 1.79297 11.842 1.5513 11.9504 1.35964C12.067 1.16797 12.2754 1.04297 12.5004 1.04297C16.0587 1.04297 18.9587 3.94297 18.9587 7.5013C18.9587 7.84297 18.6754 8.1263 18.3337 8.1263Z" fill="white"/>
</svg>
