<svg width="20" height="20" viewBox="0 0 20 20" fill="none" xmlns="http://www.w3.org/2000/svg">
<path d="M16.8087 14.6405C16.367 15.0488 15.8587 15.3571 15.3087 15.5655C14.7587 15.7738 14.167 15.3738 14.167 14.7821V13.6821C14.167 12.0571 12.8503 10.7405 11.2253 10.7405H8.77533C7.15033 10.7405 5.83366 12.0571 5.83366 13.6821V14.9988C5.83366 15.4571 5.45866 15.8321 5.00033 15.8321H4.62533C2.58366 15.5238 1.66699 13.8655 1.66699 12.3821C1.66699 10.9821 2.48366 9.43213 4.25866 8.9988C3.76699 7.05714 4.18366 5.23214 5.45033 3.90714C6.89199 2.39881 9.19199 1.79881 11.1753 2.41548C13.0003 2.97381 14.2837 4.47381 14.742 6.55714C16.3337 6.91548 17.6087 8.11548 18.117 9.78213C18.667 11.5905 18.167 13.4488 16.8087 14.6405Z" fill="white"/>
<path d="M11.2247 11.9922H8.77467C7.71634 11.9922 7.08301 12.6255 7.08301 13.6839V16.1339C7.08301 17.1922 7.71634 17.8255 8.77467 17.8255H11.2247C12.283 17.8255 12.9163 17.1922 12.9163 16.1339V13.6839C12.9163 12.6255 12.283 11.9922 11.2247 11.9922ZM11.4247 15.3839H8.58301C8.28301 15.3839 8.04134 15.1422 8.04134 14.8422C8.04134 14.5505 8.28301 14.3089 8.58301 14.3089H11.433C11.7247 14.3089 11.9663 14.5505 11.9663 14.8422C11.958 15.1505 11.7163 15.3839 11.4247 15.3839Z" fill="white"/>
</svg>
