<svg width="20" height="20" viewBox="0 0 20 20" fill="none" xmlns="http://www.w3.org/2000/svg">
<path d="M9.99967 9.60938C7.69967 9.60938 5.83301 11.476 5.83301 13.776C5.83301 14.3927 5.96634 14.976 6.21634 15.4927C6.28301 15.6427 6.35801 15.7844 6.44134 15.9177C7.15801 17.126 8.48301 17.9427 9.99967 17.9427C11.5163 17.9427 12.8413 17.126 13.558 15.9177C13.6413 15.7844 13.7163 15.6427 13.783 15.4927C14.033 14.976 14.1663 14.3927 14.1663 13.776C14.1663 11.476 12.2997 9.60938 9.99967 9.60938ZM11.2497 15.1177C11.1247 15.2427 10.9663 15.301 10.808 15.301C10.6497 15.301 10.4913 15.2427 10.3663 15.1177L9.92467 14.676L9.46634 15.1344C9.34134 15.2594 9.18301 15.3177 9.02467 15.3177C8.86634 15.3177 8.70801 15.2594 8.58301 15.1344C8.34134 14.8927 8.34134 14.4927 8.58301 14.251L9.04134 13.7927L8.59967 13.351C8.35801 13.1094 8.35801 12.7094 8.59967 12.4677C8.84134 12.226 9.24134 12.226 9.48301 12.4677L9.92467 12.9094L10.3413 12.4927C10.583 12.251 10.983 12.251 11.2247 12.4927C11.4663 12.7344 11.4663 13.1344 11.2247 13.376L10.808 13.7927L11.2497 14.2344C11.4913 14.4844 11.4913 14.876 11.2497 15.1177Z" fill="white"/>
<path d="M16.8337 14.4078C16.5337 14.6745 16.2087 14.8995 15.8587 15.0828C15.5587 15.2328 15.2587 14.9411 15.3087 14.6078C15.3421 14.3661 15.3587 14.1161 15.3587 13.8578C15.3587 10.8745 12.9254 8.44112 9.94208 8.44112C6.95877 8.44112 4.52542 10.8745 4.52542 13.8578C4.52542 14.2411 4.56709 14.6078 4.64209 14.9661C4.70042 15.2578 4.47542 15.5495 4.18376 15.4745C0.892091 14.6745 0.875425 9.60778 4.55876 9.34112H4.60042C1.92542 1.90782 13.2087 -1.06718 14.5004 6.74948C18.1087 7.20782 19.5671 12.0161 16.8337 14.4078Z" fill="white"/>
</svg>
