<svg width="20" height="20" viewBox="0 0 20 20" fill="none" xmlns="http://www.w3.org/2000/svg">
<path d="M17.7248 7.29818C17.7248 8.14818 17.3331 8.91487 16.6998 9.41487C16.2415 9.78987 15.6498 10.0149 15.0081 10.0149C13.5165 10.0149 12.2998 8.7982 12.2998 7.30651C12.2998 6.56484 12.5998 5.88984 13.0998 5.39818V5.38984C13.5915 4.89818 14.2665 4.58984 15.0081 4.58984C16.5081 4.58984 17.7248 5.80651 17.7248 7.29818Z" fill="white"/>
<path d="M16.8165 15.6087C15.9415 16.4087 14.8165 16.8503 13.6248 16.8503H4.9748C2.69147 16.6837 1.6748 14.9253 1.6748 13.3587C1.6748 11.9587 2.48314 10.4087 4.25814 9.97535C3.48314 6.99204 4.96647 4.9087 6.6998 3.91703C8.4165 2.94203 10.8332 2.78369 12.6498 4.12536C12.4915 4.24203 12.3498 4.36703 12.2082 4.50869L11.8498 4.8837V4.9337C11.3332 5.6087 11.0498 6.4337 11.0498 7.30037C11.0498 9.48368 12.8332 11.2587 15.0165 11.2587C15.9165 11.2587 16.7915 10.9503 17.4748 10.392C17.5998 10.292 17.7248 10.1837 17.8332 10.067C18.6582 11.8003 18.5415 14.1003 16.8165 15.6087Z" fill="white"/>
</svg>
