<svg width="20" height="20" viewBox="0 0 20 20" fill="none" xmlns="http://www.w3.org/2000/svg">
<path d="M16.0002 12.315C15.2836 12.9734 14.3336 13.34 13.3586 13.3317H5.30859C1.91693 13.09 1.90859 8.16501 5.30859 7.92334H5.34193C3.01693 1.45668 12.8419 -1.11832 13.9669 5.66501C17.1086 6.06501 18.3836 10.24 16.0002 12.315Z" fill="white"/>
<path d="M15.625 17.4987C15.625 17.8404 15.3417 18.1237 15 18.1237H11.6667C11.625 18.1237 11.5917 18.1237 11.55 18.107C11.3083 18.7237 10.7 19.1654 10 19.1654C9.3 19.1654 8.69167 18.7237 8.45 18.107C8.40833 18.1237 8.375 18.1237 8.33333 18.1237H5C4.65833 18.1237 4.375 17.8404 4.375 17.4987C4.375 17.157 4.65833 16.8737 5 16.8737H8.33333C8.375 16.8737 8.40833 16.8737 8.45 16.8904C8.61667 16.457 8.95833 16.1154 9.39167 15.9487C9.375 15.907 9.375 15.8737 9.375 15.832V13.332H10.625V15.832C10.625 15.8737 10.625 15.907 10.6083 15.9487C11.0417 16.1154 11.3833 16.457 11.55 16.8904C11.5917 16.8737 11.625 16.8737 11.6667 16.8737H15C15.3417 16.8737 15.625 17.157 15.625 17.4987Z" fill="white"/>
</svg>
