<svg width="20" height="20" viewBox="0 0 20 20" fill="none" xmlns="http://www.w3.org/2000/svg">
<path d="M9.99967 9.60938C7.69967 9.60938 5.83301 11.476 5.83301 13.776C5.83301 14.3927 5.96634 14.976 6.21634 15.4927C6.28301 15.6427 6.35801 15.7844 6.44134 15.9177C7.15801 17.126 8.48301 17.9427 9.99967 17.9427C11.5163 17.9427 12.8413 17.126 13.558 15.9177C13.6413 15.7844 13.7163 15.6427 13.783 15.4927C14.033 14.976 14.1663 14.3927 14.1663 13.776C14.1663 11.476 12.2997 9.60938 9.99967 9.60938ZM11.7247 13.4177L9.94967 15.0594C9.83301 15.1677 9.67467 15.226 9.52467 15.226C9.36634 15.226 9.20801 15.1677 9.08301 15.0427L8.25801 14.2177C8.01634 13.976 8.01634 13.576 8.25801 13.3344C8.49967 13.0927 8.89967 13.0927 9.14134 13.3344L9.54134 13.7344L10.8747 12.501C11.133 12.2677 11.5247 12.2844 11.758 12.5344C11.9913 12.7844 11.9747 13.176 11.7247 13.4177Z" fill="white"/>
<path d="M16.8337 14.2236C16.5337 14.4903 16.2087 14.7153 15.8587 14.8986C15.5587 15.0486 15.2587 14.7569 15.3087 14.4236C15.3421 14.1819 15.3587 13.9319 15.3587 13.6736C15.3587 10.6903 12.9254 8.25697 9.94208 8.25697C6.95877 8.25697 4.52542 10.6903 4.52542 13.6736C4.52542 14.0569 4.56709 14.4236 4.64209 14.7819C4.70042 15.0736 4.47542 15.3653 4.18376 15.2903C0.892091 14.4903 0.875425 9.42361 4.55876 9.16527H4.60042C1.92542 1.72364 13.2087 -1.25136 14.5004 6.56531C18.1087 7.02364 19.5671 11.8319 16.8337 14.2236Z" fill="white"/>
</svg>
