<svg width="20" height="20" viewBox="0 0 20 20" fill="none" xmlns="http://www.w3.org/2000/svg">
<path d="M16.8087 14.6405C16.367 15.0488 15.8587 15.3571 15.3087 15.5655C14.7587 15.7738 14.167 15.3738 14.167 14.7821V13.6821C14.167 12.0571 12.8503 10.7405 11.2253 10.7405H8.77533C7.15033 10.7405 5.83366 12.0571 5.83366 13.6821V14.9988C5.83366 15.4571 5.45866 15.8321 5.00033 15.8321H4.62533C2.58366 15.5238 1.66699 13.8655 1.66699 12.3821C1.66699 10.9821 2.48366 9.43213 4.25866 8.9988C3.76699 7.05714 4.18366 5.23214 5.45033 3.90714C6.89199 2.39881 9.19199 1.79881 11.1753 2.41548C13.0003 2.97381 14.2837 4.47381 14.742 6.55714C16.3337 6.91548 17.6087 8.11548 18.117 9.78213C18.667 11.5905 18.167 13.4488 16.8087 14.6405Z" fill="white"/>
<path d="M11.2247 11.9922H8.77467C7.71634 11.9922 7.08301 12.6255 7.08301 13.6839V16.1339C7.08301 17.1922 7.71634 17.8255 8.77467 17.8255H11.2247C12.283 17.8255 12.9163 17.1922 12.9163 16.1339V13.6839C12.9163 12.6255 12.283 11.9922 11.2247 11.9922ZM11.6413 15.7839C11.8497 15.9922 11.8497 16.3339 11.6413 16.5422C11.533 16.6422 11.3997 16.6922 11.258 16.6922C11.1247 16.6922 10.9913 16.6422 10.883 16.5422L9.99967 15.6589L9.12467 16.5422C9.01634 16.6422 8.88301 16.6922 8.74134 16.6922C8.60801 16.6922 8.47467 16.6422 8.36634 16.5422C8.15801 16.3339 8.15801 15.9922 8.36634 15.7839L9.24967 14.9005L8.36634 14.0255C8.15801 13.8172 8.15801 13.4755 8.36634 13.2672C8.57467 13.0589 8.91634 13.0589 9.12467 13.2672L9.99967 14.1505L10.883 13.2672C11.0913 13.0589 11.433 13.0589 11.6413 13.2672C11.8497 13.4755 11.8497 13.8172 11.6413 14.0255L10.758 14.9005L11.6413 15.7839Z" fill="white"/>
</svg>
