<svg width="20" height="20" viewBox="0 0 20 20" fill="none" xmlns="http://www.w3.org/2000/svg">
<path d="M16.4998 9.99974H3.49988C3.31654 9.99974 3.14988 9.87474 3.09154 9.69974C0.799878 2.12474 12.3666 -0.78359 13.7083 7.34974C15.0916 7.52474 16.1832 8.30808 16.8582 9.35808C17.0332 9.63308 16.8248 9.99974 16.4998 9.99974Z" fill="white"/>
<path d="M16.6663 13.1484H3.33301C2.99134 13.1484 2.70801 12.8651 2.70801 12.5234C2.70801 12.1818 2.99134 11.8984 3.33301 11.8984H16.6663C17.008 11.8984 17.2913 12.1818 17.2913 12.5234C17.2913 12.8651 17.008 13.1484 16.6663 13.1484Z" fill="white"/>
<path d="M15 15.6484H5C4.65833 15.6484 4.375 15.3651 4.375 15.0234C4.375 14.6818 4.65833 14.3984 5 14.3984H15C15.3417 14.3984 15.625 14.6818 15.625 15.0234C15.625 15.3651 15.3417 15.6484 15 15.6484Z" fill="white"/>
<path d="M12.5 18.1484H7.5C7.15833 18.1484 6.875 17.8651 6.875 17.5234C6.875 17.1818 7.15833 16.8984 7.5 16.8984H12.5C12.8417 16.8984 13.125 17.1818 13.125 17.5234C13.125 17.8651 12.8417 18.1484 12.5 18.1484Z" fill="white"/>
</svg>
