<svg width="20" height="20" viewBox="0 0 20 20" fill="none" xmlns="http://www.w3.org/2000/svg">
<path d="M17.1748 9.02477C16.5332 8.25806 15.7082 7.75806 14.7498 7.54139C14.5332 6.57472 14.1582 5.74139 13.6082 5.04972C13.5915 5.02472 13.5748 4.99972 13.5582 4.98306C11.7248 2.76639 8.72483 2.77472 6.69981 3.92472C4.96647 4.91639 3.49147 7.00806 4.26647 9.99135C2.49147 10.4247 1.6748 11.9747 1.6748 13.3747C1.6748 14.9413 2.6998 16.6997 4.98314 16.8663H13.5998C13.6082 16.8663 13.6248 16.8663 13.6332 16.8663C14.8165 16.8663 15.9498 16.4248 16.8248 15.6248C18.9165 13.7748 18.6415 10.758 17.1748 9.02477Z" fill="white"/>
<path d="M18.1337 7.28411C18.1337 7.56745 18.1003 7.84244 18.017 8.10911C17.4087 7.40077 16.6337 6.87578 15.7753 6.55078C15.5087 5.71745 15.1253 4.97578 14.6253 4.32578C14.6003 4.29245 14.5753 4.25911 14.542 4.21745C14.7003 4.18411 14.867 4.17578 15.0253 4.17578C16.742 4.17578 18.1337 5.56745 18.1337 7.28411Z" fill="white"/>
</svg>
