<svg width="20" height="20" viewBox="0 0 20 20" fill="none" xmlns="http://www.w3.org/2000/svg">
<path d="M10.0003 1.66797C5.40033 1.66797 1.66699 5.4013 1.66699 10.0013C1.66699 14.6013 5.40033 18.3346 10.0003 18.3346C14.6003 18.3346 18.3337 14.6013 18.3337 10.0013C18.3337 5.4013 14.6003 1.66797 10.0003 1.66797ZM7.10866 11.2263C7.35033 11.468 7.35033 11.868 7.10866 12.1096C6.98366 12.2346 6.82533 12.293 6.66699 12.293C6.50866 12.293 6.35033 12.2346 6.22533 12.1096L4.55866 10.443C4.31699 10.2013 4.31699 9.8013 4.55866 9.55964L6.22533 7.89297C6.46699 7.6513 6.86699 7.6513 7.10866 7.89297C7.35033 8.13464 7.35033 8.53464 7.10866 8.7763L5.88366 10.0013L7.10866 11.2263ZM11.4087 8.3013L9.74199 12.193C9.64199 12.4263 9.40866 12.568 9.16699 12.568C9.08366 12.568 9.00033 12.5513 8.92533 12.518C8.60866 12.3846 8.45866 12.018 8.60033 11.693L10.267 7.8013C10.4003 7.48463 10.767 7.33464 11.0837 7.4763C11.4003 7.61797 11.542 7.98464 11.4087 8.3013ZM15.442 10.443L13.7753 12.1096C13.6503 12.2346 13.492 12.293 13.3337 12.293C13.1753 12.293 13.017 12.2346 12.892 12.1096C12.6503 11.868 12.6503 11.468 12.892 11.2263L14.117 10.0013L12.892 8.7763C12.6503 8.53464 12.6503 8.13464 12.892 7.89297C13.1337 7.6513 13.5337 7.6513 13.7753 7.89297L15.442 9.55964C15.6837 9.8013 15.6837 10.2013 15.442 10.443Z" fill="white"/>
</svg>
