<svg width="20" height="20" viewBox="0 0 20 20" fill="none" xmlns="http://www.w3.org/2000/svg">
<path d="M17.5003 8.33203H2.50033C2.04199 8.33203 1.66699 8.70703 1.66699 9.16536V13.4904C1.66699 13.657 1.67533 13.8237 1.69199 13.9904C1.85866 16.557 3.44199 18.1404 6.00866 18.307C6.17533 18.3237 6.34199 18.332 6.50866 18.332H13.492C13.6587 18.332 13.8253 18.3237 13.992 18.307C16.5587 18.1404 18.142 16.557 18.3087 13.9904C18.3253 13.8237 18.3337 13.657 18.3337 13.4904V9.16536C18.3337 8.70703 17.9587 8.33203 17.5003 8.33203ZM6.66699 13.457C6.95033 13.8737 7.33366 14.2154 7.77533 14.4404C8.09199 14.5904 8.21699 14.9654 8.05866 15.282C7.95033 15.4987 7.72533 15.6237 7.50033 15.6237C7.40866 15.6237 7.30866 15.5987 7.22533 15.557C6.57533 15.2404 6.02533 14.7487 5.63366 14.157C5.30033 13.657 5.30033 13.007 5.63366 12.507C6.02533 11.9154 6.57533 11.4237 7.22533 11.107C7.53366 10.9487 7.90866 11.0737 8.05866 11.382C8.21699 11.6987 8.09199 12.0737 7.77533 12.2237C7.33366 12.4487 6.95033 12.7904 6.66699 13.207C6.61699 13.282 6.61699 13.382 6.66699 13.457ZM14.542 14.157C14.142 14.7487 13.592 15.2404 12.9503 15.557C12.8587 15.5987 12.767 15.6237 12.6753 15.6237C12.442 15.6237 12.2253 15.4987 12.117 15.282C11.9587 14.9654 12.0837 14.5904 12.392 14.4404C12.842 14.2154 13.2253 13.8737 13.5003 13.457C13.5587 13.382 13.5587 13.282 13.5003 13.207C13.2253 12.7904 12.842 12.4487 12.392 12.2237C12.0837 12.0737 11.9587 11.6987 12.117 11.382C12.267 11.0737 12.642 10.9487 12.9503 11.107C13.592 11.4237 14.142 11.9154 14.542 12.507C14.8753 13.007 14.8753 13.657 14.542 14.157Z" fill="white"/>
<path d="M18.3337 6.50964V6.66797C18.3337 7.1263 17.9587 7.5013 17.5003 7.5013L2.50033 7.50964C2.04199 7.50964 1.66699 7.13464 1.66699 6.6763V6.50964C1.66699 6.34297 1.67533 6.1763 1.69199 6.00964C1.85866 3.44297 3.44199 1.85964 6.00866 1.69297C6.17533 1.6763 6.34199 1.66797 6.50866 1.66797H13.492C13.6587 1.66797 13.8253 1.6763 13.992 1.69297C16.5587 1.85964 18.142 3.44297 18.3087 6.00964C18.3253 6.1763 18.3337 6.34297 18.3337 6.50964Z" fill="white"/>
</svg>
