<svg width="20" height="20" viewBox="0 0 20 20" fill="none" xmlns="http://www.w3.org/2000/svg">
<path d="M13.492 1.66797H6.50866C3.47533 1.66797 1.66699 3.4763 1.66699 6.50964V13.4846C1.66699 16.5263 3.47533 18.3346 6.50866 18.3346H13.4837C16.517 18.3346 18.3253 16.5263 18.3253 13.493V6.50964C18.3337 3.4763 16.5253 1.66797 13.492 1.66797ZM8.28366 11.0596C7.71699 11.9096 6.93366 12.6013 6.01699 13.0596C5.93366 13.1013 5.83366 13.1263 5.74199 13.1263C5.50866 13.1263 5.29199 13.0013 5.18366 12.7846C5.02533 12.4763 5.15033 12.1013 5.46699 11.943C6.19199 11.5846 6.80866 11.0346 7.25033 10.368C7.40033 10.143 7.40033 9.85964 7.25033 9.63464C6.80033 8.96797 6.18366 8.41797 5.46699 8.05964C5.15033 7.90964 5.02533 7.53464 5.18366 7.21797C5.33366 6.90964 5.70866 6.78464 6.01699 6.94297C6.93366 7.4013 7.71699 8.09297 8.28366 8.94297C8.71699 9.58463 8.71699 10.418 8.28366 11.0596ZM14.167 13.1263H10.8337C10.492 13.1263 10.2087 12.843 10.2087 12.5013C10.2087 12.1596 10.492 11.8763 10.8337 11.8763H14.167C14.5087 11.8763 14.792 12.1596 14.792 12.5013C14.792 12.843 14.5087 13.1263 14.167 13.1263Z" fill="white"/>
</svg>
