<svg width="20" height="20" viewBox="0 0 20 20" fill="none" xmlns="http://www.w3.org/2000/svg">
<path d="M9.99967 18.9596C6.66634 18.9596 3.95801 16.568 3.95801 13.6263V10.543C3.95801 10.2013 4.24134 9.91797 4.58301 9.91797C4.92467 9.91797 5.20801 10.2013 5.20801 10.543C5.20801 12.7263 7.26634 14.3763 9.99967 14.3763C12.733 14.3763 14.7913 12.7263 14.7913 10.543C14.7913 10.2013 15.0747 9.91797 15.4163 9.91797C15.758 9.91797 16.0413 10.2013 16.0413 10.543V13.6263C16.0413 16.568 13.333 18.9596 9.99967 18.9596ZM5.20801 13.718C5.26634 15.9263 7.39134 17.7096 9.99967 17.7096C12.608 17.7096 14.733 15.9263 14.7913 13.718C13.708 14.893 11.9913 15.6263 9.99967 15.6263C8.00801 15.6263 6.29967 14.893 5.20801 13.718Z" fill="white"/>
<path d="M9.99967 11.4596C7.69967 11.4596 5.633 10.4263 4.62467 8.75964C4.19133 8.0513 3.95801 7.2263 3.95801 6.3763C3.95801 4.94297 4.59967 3.59297 5.75801 2.5763C6.89134 1.58464 8.39967 1.04297 9.99967 1.04297C11.5997 1.04297 13.0997 1.58464 14.2413 2.56797C15.3997 3.59297 16.0413 4.94297 16.0413 6.3763C16.0413 7.2263 15.808 8.04297 15.3747 8.75964C14.3663 10.4263 12.2997 11.4596 9.99967 11.4596ZM9.99967 2.29297C8.69967 2.29297 7.48302 2.7263 6.57468 3.5263C5.69135 4.29297 5.20801 5.30964 5.20801 6.3763C5.20801 7.0013 5.37467 7.58464 5.69133 8.10964C6.483 9.40964 8.13301 10.2096 9.99967 10.2096C11.8663 10.2096 13.5163 9.4013 14.308 8.10964C14.633 7.58464 14.7913 7.0013 14.7913 6.3763C14.7913 5.30964 14.308 4.29297 13.4163 3.50964C12.508 2.7263 11.2997 2.29297 9.99967 2.29297Z" fill="white"/>
<path d="M9.99967 15.6263C6.55801 15.6263 3.95801 13.443 3.95801 10.543V6.3763C3.95801 3.43464 6.66634 1.04297 9.99967 1.04297C11.5997 1.04297 13.0997 1.58464 14.2413 2.56797C15.3997 3.59297 16.0413 4.94297 16.0413 6.3763V10.543C16.0413 13.443 13.4413 15.6263 9.99967 15.6263ZM9.99967 2.29297C7.35801 2.29297 5.20801 4.1263 5.20801 6.3763V10.543C5.20801 12.7263 7.26634 14.3763 9.99967 14.3763C12.733 14.3763 14.7913 12.7263 14.7913 10.543V6.3763C14.7913 5.30964 14.308 4.29297 13.4163 3.50964C12.508 2.7263 11.2997 2.29297 9.99967 2.29297Z" fill="white"/>
</svg>
