<svg width="20" height="20" viewBox="0 0 20 20" fill="none" xmlns="http://www.w3.org/2000/svg">
<path d="M18.2662 13.9572C17.9912 16.1739 16.1746 17.9905 13.9579 18.2655C12.6162 18.4322 11.3662 18.0655 10.3912 17.3489C9.83289 16.9405 9.96623 16.0739 10.6329 15.8739C13.1412 15.1155 15.1162 13.1322 15.8829 10.6239C16.0829 9.96553 16.9496 9.83219 17.3579 10.3822C18.0662 11.3655 18.4329 12.6155 18.2662 13.9572Z" fill="white"/>
<path d="M8.32533 1.66797C4.65033 1.66797 1.66699 4.6513 1.66699 8.3263C1.66699 12.0013 4.65033 14.9846 8.32533 14.9846C12.0003 14.9846 14.9837 12.0013 14.9837 8.3263C14.9753 4.6513 12.0003 1.66797 8.32533 1.66797ZM7.54199 7.39297L9.55033 8.09297C10.2753 8.3513 10.6253 8.85964 10.6253 9.64297C10.6253 10.543 9.90866 11.2846 9.03366 11.2846H8.95866V11.3263C8.95866 11.668 8.67533 11.9513 8.33366 11.9513C7.99199 11.9513 7.70866 11.668 7.70866 11.3263V11.2763C6.78366 11.2346 6.04199 10.4596 6.04199 9.49297C6.04199 9.1513 6.32533 8.86797 6.66699 8.86797C7.00866 8.86797 7.29199 9.1513 7.29199 9.49297C7.29199 9.79297 7.50866 10.0346 7.77533 10.0346H9.02533C9.21699 10.0346 9.36699 9.85964 9.36699 9.64297C9.36699 9.3513 9.31699 9.33464 9.12533 9.26797L7.11699 8.56797C6.40033 8.31797 6.04199 7.80964 6.04199 7.01797C6.04199 6.11797 6.75866 5.3763 7.63366 5.3763H7.70866V5.34297C7.70866 5.0013 7.99199 4.71797 8.33366 4.71797C8.67533 4.71797 8.95866 5.0013 8.95866 5.34297V5.39297C9.88366 5.43464 10.6253 6.20964 10.6253 7.1763C10.6253 7.51797 10.342 7.8013 10.0003 7.8013C9.65866 7.8013 9.37533 7.51797 9.37533 7.1763C9.37533 6.8763 9.15866 6.63464 8.89199 6.63464H7.64199C7.45033 6.63464 7.30033 6.80964 7.30033 7.0263C7.29199 7.30964 7.34199 7.3263 7.54199 7.39297Z" fill="white"/>
</svg>
