<svg width="20" height="20" viewBox="0 0 20 20" fill="none" xmlns="http://www.w3.org/2000/svg">
<path d="M11.667 13.3335C11.667 14.8085 11.0253 16.1418 10.0003 17.0502C9.11699 17.8502 7.95033 18.3335 6.66699 18.3335C3.90866 18.3335 1.66699 16.0918 1.66699 13.3335C1.66699 11.6462 2.51197 10.1512 3.79649 9.2479C4.00331 9.10249 4.28308 9.20199 4.39469 9.42882C5.18128 11.0277 6.62882 12.2251 8.35033 12.6918C8.87533 12.8418 9.42533 12.9168 10.0003 12.9168C10.4063 12.9168 10.7952 12.8783 11.1732 12.8074C11.4135 12.7623 11.6527 12.9163 11.6632 13.1606C11.6657 13.2185 11.667 13.2763 11.667 13.3335Z" fill="white"/>
<path d="M15 6.66797C15 7.31797 14.875 7.94297 14.65 8.50964C14.075 9.95964 12.8417 11.0763 11.3167 11.493C10.9 11.6096 10.4583 11.668 10 11.668C9.54167 11.668 9.1 11.6096 8.68333 11.493C7.15833 11.0763 5.925 9.95964 5.35 8.50964C5.125 7.94297 5 7.31797 5 6.66797C5 3.90964 7.24167 1.66797 10 1.66797C12.7583 1.66797 15 3.90964 15 6.66797Z" fill="white"/>
<path d="M18.3336 13.3332C18.3336 16.0915 16.092 18.3332 13.3336 18.3332C12.7132 18.3332 12.1164 18.22 11.5679 18.0115C11.3023 17.9106 11.2528 17.5707 11.4376 17.355C12.3893 16.2446 12.917 14.8214 12.917 13.3332C12.917 13.0499 12.892 12.7665 12.8503 12.4999C12.8255 12.3461 12.904 12.195 13.0401 12.1196C14.1436 11.5088 15.0446 10.5728 15.6061 9.42928C15.7177 9.20211 15.9976 9.10236 16.2046 9.24795C17.4889 10.1514 18.3336 11.6461 18.3336 13.3332Z" fill="white"/>
</svg>
