<svg width="20" height="20" viewBox="0 0 20 20" fill="none" xmlns="http://www.w3.org/2000/svg">
<path d="M18.3331 13.7513V16.2513C18.3331 17.4013 17.3998 18.3346 16.2498 18.3346H10.2998C9.55811 18.3346 9.19144 17.443 9.70811 16.918L14.5998 11.918C14.7581 11.7596 14.9748 11.668 15.1914 11.668H16.2498C17.3998 11.668 18.3331 12.6013 18.3331 13.7513Z" fill="white"/>
<path d="M15.3085 9.40727L13.0502 11.6656L11.0002 13.7073C10.4752 14.2323 9.5752 13.8656 9.5752 13.1239C9.5752 10.4489 9.5752 6.04896 9.5752 6.04896C9.5752 5.82396 9.66686 5.61563 9.81686 5.45729L10.5835 4.69062C11.4002 3.87396 12.7169 3.87396 13.5335 4.69062L15.3002 6.45729C16.1252 7.27396 16.1252 8.5906 15.3085 9.40727Z" fill="white"/>
<path d="M6.25033 1.66797H3.75033C2.50033 1.66797 1.66699 2.5013 1.66699 3.7513V15.0013C1.66699 15.2263 1.69199 15.4513 1.73366 15.668C1.75866 15.7763 1.78366 15.8846 1.81699 15.993C1.85866 16.118 1.90033 16.243 1.95033 16.3596C1.95866 16.368 1.95866 16.3763 1.95866 16.3763C1.96699 16.3763 1.96699 16.3763 1.95866 16.3846C2.07533 16.618 2.20866 16.843 2.36699 17.0513C2.45866 17.1596 2.55033 17.2596 2.64199 17.3596C2.73366 17.4596 2.83366 17.543 2.94199 17.6263L2.95033 17.6346C3.15866 17.793 3.38366 17.9263 3.61699 18.043C3.62533 18.0346 3.62533 18.0346 3.62533 18.043C3.75033 18.1013 3.87533 18.143 4.00866 18.1846C4.11699 18.218 4.22533 18.243 4.33366 18.268C4.55033 18.3096 4.77533 18.3346 5.00033 18.3346C5.34199 18.3346 5.69199 18.2846 6.01699 18.1763C6.10866 18.143 6.20033 18.1096 6.29199 18.068C6.58366 17.9513 6.86699 17.7846 7.11699 17.568C7.19199 17.5096 7.27533 17.4346 7.35033 17.3596L7.38366 17.3263C7.96699 16.7263 8.33366 15.9013 8.33366 15.0013V3.7513C8.33366 2.5013 7.50033 1.66797 6.25033 1.66797ZM5.00033 16.2513C4.30866 16.2513 3.75033 15.693 3.75033 15.0013C3.75033 14.3096 4.30866 13.7513 5.00033 13.7513C5.69199 13.7513 6.25033 14.3096 6.25033 15.0013C6.25033 15.693 5.69199 16.2513 5.00033 16.2513Z" fill="white"/>
</svg>
