<svg width="20" height="20" viewBox="0 0 20 20" fill="none" xmlns="http://www.w3.org/2000/svg">
<path d="M13.492 1.66797H6.50866C3.47533 1.66797 1.66699 3.4763 1.66699 6.50964V13.4846C1.66699 16.5263 3.47533 18.3346 6.50866 18.3346H13.4837C16.517 18.3346 18.3253 16.5263 18.3253 13.493V6.50964C18.3337 3.4763 16.5253 1.66797 13.492 1.66797ZM10.0003 5.0013C11.6587 5.0013 13.0003 6.34297 13.0003 8.0013C13.0003 8.39297 12.9253 8.76797 12.792 9.10964C12.4503 9.9763 11.7087 10.6513 10.792 10.9013C10.542 10.968 10.2753 11.0096 10.0003 11.0096C9.72533 11.0096 9.45866 10.9763 9.20866 10.9013C8.29199 10.6513 7.55033 9.98464 7.20866 9.10964C7.07533 8.76797 7.00033 8.39297 7.00033 8.0013C7.00033 6.34297 8.34199 5.0013 10.0003 5.0013ZM8.00033 15.0013C6.34199 15.0013 5.00033 13.6596 5.00033 12.0013C5.00033 11.0576 5.44083 10.2149 6.1206 9.66472C6.31787 9.50505 6.59963 9.60563 6.72319 9.8273C7.2105 10.7015 8.03828 11.3509 9.00866 11.6096C9.32533 11.7013 9.65033 11.743 10.0003 11.743C10.2077 11.743 10.406 11.7276 10.5987 11.6969C10.7965 11.6654 11.0003 11.7927 11.0003 11.993C11.0003 12.8763 10.617 13.6763 10.0003 14.2263C9.46699 14.7096 8.76699 15.0013 8.00033 15.0013ZM12.0003 15.0013C11.7099 15.0013 11.4253 14.9606 11.1568 14.8826C10.8847 14.8036 10.8349 14.4646 11.0052 14.2382C11.4845 13.6015 11.7503 12.815 11.7503 12.0013C11.7503 11.8346 11.7337 11.6596 11.7087 11.5013C11.6937 11.407 11.7418 11.3143 11.8252 11.2677C12.4287 10.9309 12.9341 10.4366 13.2705 9.8298C13.3939 9.6073 13.6758 9.5048 13.8742 9.66405C14.5595 10.2142 15.0003 11.0571 15.0003 12.0013C15.0003 13.6596 13.6587 15.0013 12.0003 15.0013Z" fill="white"/>
</svg>
