<svg width="20" height="20" viewBox="0 0 20 20" fill="none" xmlns="http://www.w3.org/2000/svg">
<path d="M13.492 1.66797H6.50866C3.47533 1.66797 1.66699 3.4763 1.66699 6.50964V13.4846C1.66699 16.5263 3.47533 18.3346 6.50866 18.3346H13.4837C16.517 18.3346 18.3253 16.5263 18.3253 13.493V6.50964C18.3337 3.4763 16.5253 1.66797 13.492 1.66797ZM8.00033 13.5013C8.00033 14.3263 7.32533 15.0013 6.50033 15.0013C5.67533 15.0013 5.00033 14.3263 5.00033 13.5013C5.00033 12.6763 5.67533 12.0013 6.50033 12.0013H7.16699C7.62533 12.0013 8.00033 12.3763 8.00033 12.8346V13.5013ZM8.00033 7.16797C8.00033 7.6263 7.62533 8.0013 7.16699 8.0013H6.50033C5.67533 8.0013 5.00033 7.3263 5.00033 6.5013C5.00033 5.6763 5.67533 5.0013 6.50033 5.0013C7.32533 5.0013 8.00033 5.6763 8.00033 6.5013V7.16797ZM11.792 11.043C11.792 11.4513 11.4587 11.793 11.042 11.793H8.95033C8.54199 11.793 8.20033 11.4596 8.20033 11.043V8.9513C8.20033 8.54297 8.53366 8.2013 8.95033 8.2013H11.042C11.4503 8.2013 11.792 8.53464 11.792 8.9513V11.043ZM13.5003 15.0013C12.6753 15.0013 12.0003 14.3263 12.0003 13.5013V12.8346C12.0003 12.3763 12.3753 12.0013 12.8337 12.0013H13.5003C14.3253 12.0013 15.0003 12.6763 15.0003 13.5013C15.0003 14.3263 14.3253 15.0013 13.5003 15.0013ZM13.5003 8.0013H12.8337C12.3753 8.0013 12.0003 7.6263 12.0003 7.16797V6.5013C12.0003 5.6763 12.6753 5.0013 13.5003 5.0013C14.3253 5.0013 15.0003 5.6763 15.0003 6.5013C15.0003 7.3263 14.3253 8.0013 13.5003 8.0013Z" fill="white"/>
</svg>
