<svg width="20" height="20" viewBox="0 0 20 20" fill="none" xmlns="http://www.w3.org/2000/svg">
<path d="M13.3337 6.66797H6.66699V13.3346H13.3337V6.66797Z" fill="white"/>
<path d="M1.66699 15.832C1.66699 17.207 2.79199 18.332 4.16699 18.332C5.54199 18.332 6.66699 17.207 6.66699 15.832V13.332H4.16699C2.79199 13.332 1.66699 14.457 1.66699 15.832Z" fill="white"/>
<path d="M4.16699 1.66797C2.79199 1.66797 1.66699 2.79297 1.66699 4.16797C1.66699 5.54297 2.79199 6.66797 4.16699 6.66797H6.66699V4.16797C6.66699 2.79297 5.54199 1.66797 4.16699 1.66797Z" fill="white"/>
<path d="M18.333 4.16797C18.333 2.79297 17.208 1.66797 15.833 1.66797C14.458 1.66797 13.333 2.79297 13.333 4.16797V6.66797H15.833C17.208 6.66797 18.333 5.54297 18.333 4.16797Z" fill="white"/>
<path d="M15.833 13.332H13.333V15.832C13.333 17.207 14.458 18.332 15.833 18.332C17.208 18.332 18.333 17.207 18.333 15.832C18.333 14.457 17.208 13.332 15.833 13.332Z" fill="white"/>
</svg>
