<svg width="20" height="20" viewBox="0 0 20 20" fill="none" xmlns="http://www.w3.org/2000/svg">
<path d="M17.4581 3.44141L3.44141 17.4581C4.23307 18.0331 5.26641 18.3331 6.50807 18.3331H13.4914C16.5248 18.3331 18.3331 16.5248 18.3331 13.4914V6.50807C18.3331 5.26641 18.0331 4.23307 17.4581 3.44141ZM15.4164 13.5414H14.0081V14.9998C14.0081 15.3414 13.7248 15.6248 13.3831 15.6248C13.0414 15.6248 12.7581 15.3414 12.7581 14.9998V13.5414H11.2498C10.9081 13.5414 10.6248 13.2581 10.6248 12.9164C10.6248 12.5748 10.9081 12.2914 11.2498 12.2914H12.7581V10.8331C12.7581 10.4914 13.0414 10.2081 13.3831 10.2081C13.7248 10.2081 14.0081 10.4914 14.0081 10.8331V12.2914H15.4164C15.7581 12.2914 16.0414 12.5748 16.0414 12.9164C16.0414 13.2581 15.7581 13.5414 15.4164 13.5414Z" fill="white"/>
<path d="M13.492 1.66797H6.50866C3.47533 1.66797 1.66699 3.4763 1.66699 6.50964V13.493C1.66699 14.7346 1.96699 15.768 2.54199 16.5596L16.5587 2.54297C15.767 1.96797 14.7337 1.66797 13.492 1.66797ZM8.75033 6.8763H4.58366C4.24199 6.8763 3.95866 6.59297 3.95866 6.2513C3.95866 5.90964 4.24199 5.6263 4.58366 5.6263H8.75033C9.09199 5.6263 9.37533 5.90964 9.37533 6.2513C9.37533 6.59297 9.09199 6.8763 8.75033 6.8763Z" fill="white"/>
</svg>
