<svg width="20" height="20" viewBox="0 0 20 20" fill="none" xmlns="http://www.w3.org/2000/svg">
<path d="M12.4998 18.9583C12.2748 18.9583 12.0665 18.8333 11.9582 18.6417C11.8498 18.45 11.8498 18.2083 11.9665 18.0167L12.8415 16.5583C13.0165 16.2583 13.3998 16.1667 13.6998 16.3417C13.9998 16.5167 14.0915 16.9 13.9165 17.2L13.6915 17.575C15.9915 17.0333 17.7165 14.9667 17.7165 12.5C17.7165 12.1583 17.9998 11.875 18.3415 11.875C18.6832 11.875 18.9665 12.1583 18.9665 12.5C18.9582 16.0583 16.0582 18.9583 12.4998 18.9583Z" fill="white"/>
<path d="M1.66699 8.1263C1.32533 8.1263 1.04199 7.84297 1.04199 7.5013C1.04199 3.94297 3.94199 1.04297 7.50033 1.04297C7.72533 1.04297 7.93366 1.16797 8.04199 1.35964C8.15033 1.5513 8.15033 1.79297 8.03366 1.98464L7.15866 3.4513C6.98366 3.74297 6.60033 3.84297 6.30033 3.65964C6.00866 3.48464 5.90866 3.1013 6.09199 2.8013L6.31699 2.4263C4.00866 2.96797 2.29199 5.03464 2.29199 7.5013C2.29199 7.84297 2.00866 8.1263 1.66699 8.1263Z" fill="white"/>
<path d="M8.89183 11.5404L6.27513 10.132C6.00013 9.98203 5.6668 9.98203 5.3918 10.132L2.77513 11.5404C2.58346 11.6404 2.4668 11.8487 2.4668 12.0737C2.4668 12.2987 2.58346 12.507 2.77513 12.607L5.3918 14.0154C5.53346 14.0904 5.68346 14.1237 5.83346 14.1237C5.98346 14.1237 6.13346 14.0904 6.27513 14.0154L8.89183 12.607C9.0835 12.507 9.20016 12.2987 9.20016 12.0737C9.20016 11.8487 9.07516 11.6487 8.89183 11.5404Z" fill="white"/>
<path d="M4.95866 14.5102L2.52533 13.2935C2.34199 13.2018 2.12533 13.2102 1.94199 13.3185C1.77533 13.4268 1.66699 13.6185 1.66699 13.8268V16.1268C1.66699 16.5268 1.88366 16.8852 2.24199 17.0602L4.67533 18.2768C4.75866 18.3102 4.85033 18.3352 4.94199 18.3352C5.05033 18.3352 5.15866 18.3018 5.25866 18.2435C5.43366 18.1352 5.54199 17.9435 5.54199 17.7352V15.4352C5.54199 15.0435 5.31699 14.6852 4.95866 14.5102Z" fill="white"/>
<path d="M9.71666 13.3185C9.54166 13.2102 9.32499 13.2018 9.13333 13.2935L6.7 14.5102C6.34167 14.6852 6.125 15.0435 6.125 15.4435V17.7435C6.125 17.9518 6.23333 18.1435 6.40833 18.2518C6.50833 18.3018 6.61667 18.3352 6.725 18.3352C6.81667 18.3352 6.90833 18.3102 6.99167 18.2685L9.42499 17.0518C9.78332 16.8768 9.99999 16.5185 9.99999 16.1185V13.8185C9.99999 13.6185 9.89166 13.4268 9.71666 13.3185Z" fill="white"/>
<path d="M17.2248 3.19271L14.6081 1.78438C14.3331 1.63437 13.9998 1.63437 13.7248 1.78438L11.1081 3.19271C10.9165 3.29271 10.7998 3.50104 10.7998 3.72604C10.7998 3.95104 10.9165 4.15937 11.1081 4.25937L13.7248 5.66771C13.8665 5.74271 14.0165 5.77604 14.1665 5.77604C14.3165 5.77604 14.4665 5.74271 14.6081 5.66771L17.2248 4.25937C17.4165 4.15937 17.5331 3.95104 17.5331 3.72604C17.5331 3.49271 17.4081 3.29271 17.2248 3.19271Z" fill="white"/>
<path d="M13.2917 6.15078L10.8583 4.93412C10.675 4.84245 10.4583 4.85078 10.275 4.95911C10.1083 5.06744 10 5.25911 10 5.46744V7.76744C10 8.16744 10.2167 8.5258 10.575 8.7008L13.0083 9.91747C13.0917 9.95913 13.1833 9.98413 13.275 9.98413C13.3833 9.98413 13.4917 9.9508 13.5917 9.89247C13.7667 9.78413 13.875 9.59247 13.875 9.38414V7.08412C13.875 6.68412 13.65 6.32578 13.2917 6.15078Z" fill="white"/>
<path d="M18.0497 4.95911C17.8747 4.85078 17.658 4.84245 17.4663 4.93412L15.033 6.15078C14.6747 6.32578 14.458 6.68412 14.458 7.08412V9.38414C14.458 9.59247 14.5663 9.78413 14.7413 9.89247C14.8413 9.9508 14.9497 9.98413 15.058 9.98413C15.1497 9.98413 15.2413 9.95913 15.3247 9.91747L17.758 8.7008C18.1163 8.51747 18.333 8.15911 18.333 7.76744V5.46744C18.333 5.25911 18.2247 5.06744 18.0497 4.95911Z" fill="white"/>
</svg>
