<svg width="20" height="20" viewBox="0 0 20 20" fill="none" xmlns="http://www.w3.org/2000/svg">
<path d="M10.0247 1.69141C8.39974 1.69141 6.88307 2.15807 5.60807 2.95807L11.3247 8.68307L11.3331 6.39974C11.3331 6.05807 11.6164 5.77474 11.9581 5.77474C12.3081 5.77474 12.5831 6.05807 12.5831 6.39974L12.5747 10.1914C12.5747 10.4497 12.4164 10.6747 12.1831 10.7664C12.1081 10.7997 12.0247 10.8164 11.9497 10.8164C11.7831 10.8164 11.6247 10.7497 11.5081 10.6331L4.68307 3.79974C4.64974 3.76641 4.62474 3.73307 4.59974 3.69974C2.81641 5.23307 1.69141 7.49974 1.69141 10.0247C1.69141 14.6247 5.42474 18.3581 10.0247 18.3581C11.6497 18.3581 13.1664 17.8914 14.4414 17.0914L8.72474 11.3664L8.71641 13.6497C8.71641 13.9914 8.43307 14.2747 8.09141 14.2747C7.74141 14.2747 7.46641 13.9914 7.46641 13.6497L7.47474 9.85807C7.47474 9.59974 7.63307 9.37474 7.86641 9.28307C8.09141 9.18307 8.36641 9.23307 8.54141 9.41641L15.3664 16.2497C15.3997 16.2831 15.4247 16.3164 15.4497 16.3497C17.2331 14.8164 18.3581 12.5497 18.3581 10.0247C18.3581 5.42474 14.6247 1.69141 10.0247 1.69141Z" fill="white"/>
</svg>
