<svg width="20" height="20" viewBox="0 0 20 20" fill="none" xmlns="http://www.w3.org/2000/svg">
<path d="M18.333 4.29297V7.3763C18.333 9.2513 17.583 10.0013 15.708 10.0013H13.458C11.583 10.0013 10.833 9.2513 10.833 7.3763V4.29297C10.833 2.41797 11.583 1.66797 13.458 1.66797H15.708C17.583 1.66797 18.333 2.41797 18.333 4.29297Z" fill="white"/>
<path d="M9.16699 12.625V15.7083C9.16699 17.5833 8.41699 18.3333 6.54199 18.3333H4.29199C2.41699 18.3333 1.66699 17.5833 1.66699 15.7083V12.625C1.66699 10.75 2.41699 10 4.29199 10H6.54199C8.41699 10 9.16699 10.75 9.16699 12.625Z" fill="white"/>
<path d="M12.3172 18.3336C12.0922 18.3336 11.8839 18.2086 11.7755 18.0169C11.6672 17.8169 11.6672 17.5836 11.7839 17.3836L12.5922 16.0336C12.7672 15.7336 13.1505 15.6419 13.4505 15.8169C13.7505 15.9919 13.8422 16.3753 13.6672 16.6753L13.5172 16.9253C15.5756 16.3919 17.0922 14.5253 17.0922 12.3086C17.0922 11.9669 17.3755 11.6836 17.7172 11.6836C18.0589 11.6836 18.3339 11.9669 18.3339 12.3169C18.3339 15.6336 15.6339 18.3336 12.3172 18.3336Z" fill="white"/>
<path d="M2.29199 8.30964C1.95033 8.30964 1.66699 8.03464 1.66699 7.68464C1.66699 4.36797 4.36699 1.66797 7.68366 1.66797C7.91699 1.66797 8.11699 1.79297 8.23366 1.98464C8.34199 2.18464 8.34199 2.41797 8.22533 2.61797L7.41699 3.95964C7.23366 4.25964 6.85033 4.35964 6.55866 4.1763C6.25866 4.0013 6.16699 3.61797 6.34199 3.31797L6.49199 3.06797C4.44199 3.6013 2.91699 5.46797 2.91699 7.68464C2.91699 8.03464 2.63366 8.30964 2.29199 8.30964Z" fill="white"/>
</svg>
