<svg width="20" height="20" viewBox="0 0 20 20" fill="none" xmlns="http://www.w3.org/2000/svg">
<path d="M13.3337 10.7513V14.2513C13.3337 17.168 12.167 18.3346 9.25033 18.3346H5.75033C2.83366 18.3346 1.66699 17.168 1.66699 14.2513V10.7513C1.66699 7.83464 2.83366 6.66797 5.75033 6.66797H9.25033C12.167 6.66797 13.3337 7.83464 13.3337 10.7513Z" fill="white"/>
<path d="M14.2498 1.66797H10.7498C8.18054 1.66797 6.97559 2.57971 6.72457 4.78381C6.67205 5.24493 7.05394 5.6263 7.51804 5.6263H9.24981C12.7498 5.6263 14.3748 7.2513 14.3748 10.7513V12.4831C14.3748 12.9471 14.7561 13.3291 15.2173 13.2766C17.4214 13.0255 18.3331 11.8206 18.3331 9.2513V5.7513C18.3331 2.83464 17.1665 1.66797 14.2498 1.66797Z" fill="white"/>
</svg>
