<svg width="20" height="20" viewBox="0 0 20 20" fill="none" xmlns="http://www.w3.org/2000/svg">
<path d="M10.0003 1.66797C5.40033 1.66797 1.66699 5.4013 1.66699 10.0013C1.66699 14.6013 5.40033 18.3346 10.0003 18.3346C14.6003 18.3346 18.3337 14.6013 18.3337 10.0013C18.3337 5.4013 14.6003 1.66797 10.0003 1.66797ZM10.2003 12.7096C10.8503 12.7096 11.492 12.468 11.9837 12.0346C12.242 11.8096 12.642 11.8346 12.867 12.093C13.092 12.3513 13.067 12.7513 12.8087 12.9763C12.0837 13.618 11.1587 13.968 10.2003 13.968C8.01699 13.968 6.24199 12.193 6.24199 10.0096C6.24199 7.8263 8.01699 6.0513 10.2003 6.0513C11.1587 6.0513 12.092 6.4013 12.8087 7.04297C13.067 7.26797 13.092 7.66797 12.867 7.9263C12.6337 8.18464 12.242 8.20964 11.9837 7.98464C11.492 7.5513 10.8587 7.30964 10.2003 7.30964C8.70866 7.30964 7.49199 8.5263 7.49199 10.018C7.49199 11.5096 8.70866 12.7096 10.2003 12.7096Z" fill="white"/>
</svg>
