<svg width="20" height="20" viewBox="0 0 20 20" fill="none" xmlns="http://www.w3.org/2000/svg">
<path d="M18.3337 17.7067H17.292V9.16502C17.292 7.14837 16.1837 6.04003 14.167 6.04003H10.6253V5.01503C11.1087 5.1317 11.592 5.19837 12.0837 5.19837C12.867 5.19837 13.6503 5.04837 14.4003 4.74837C14.6337 4.6567 14.792 4.42337 14.792 4.16503V1.66503C14.792 1.4567 14.692 1.26503 14.517 1.14837C14.342 1.0317 14.1253 1.0067 13.9337 1.0817C12.742 1.5567 11.4253 1.5567 10.2337 1.0817C10.042 1.0067 9.82533 1.0317 9.65033 1.14837C9.47533 1.26503 9.37533 1.4567 9.37533 1.66503V4.16503V6.04003H5.83366C3.81699 6.04003 2.70866 7.14837 2.70866 9.16502V17.7067H1.66699C1.32533 17.7067 1.04199 17.99 1.04199 18.3317C1.04199 18.6734 1.32533 18.9567 1.66699 18.9567H3.33366H16.667H18.3337C18.6753 18.9567 18.9587 18.6734 18.9587 18.3317C18.9587 17.99 18.6753 17.7067 18.3337 17.7067ZM6.03366 17.7067H3.95866V10.6234H6.03366V17.7067ZM9.36699 17.7067H7.28366V10.6234H9.36699V17.7067ZM12.7003 17.7067H10.617V10.6234H12.7003V17.7067ZM16.042 17.7067H13.9503V10.6234H16.042V17.7067Z" fill="white"/>
</svg>
