<svg width="20" height="20" viewBox="0 0 20 20" fill="none" xmlns="http://www.w3.org/2000/svg">
<path d="M11.6502 6.45703H8.34184C7.30019 6.45703 6.4502 7.2987 6.4502 8.3487V11.657C6.4502 12.6987 7.29186 13.5487 8.34184 13.5487H11.6502C12.6918 13.5487 13.5418 12.707 13.5418 11.657V8.3487C13.5418 7.2987 12.7002 6.45703 11.6502 6.45703ZM11.2502 10.8154L10.5085 12.107C10.4002 12.2987 10.2002 12.3987 10.0002 12.3987C9.90017 12.3987 9.79184 12.3737 9.7085 12.3237C9.42517 12.1654 9.32517 11.807 9.49184 11.5237L10.0252 10.5987H9.5585C9.1835 10.5987 8.87517 10.432 8.7085 10.1487C8.54184 9.86536 8.5585 9.51536 8.75017 9.19036L9.49184 7.8987C9.6585 7.61536 10.0168 7.5237 10.2918 7.68203C10.5752 7.84036 10.6752 8.1987 10.5085 8.48203L9.97517 9.40703H10.4418C10.8168 9.40703 11.1252 9.5737 11.2918 9.85703C11.4585 10.1404 11.4418 10.4904 11.2502 10.8154Z" fill="white"/>
<path d="M17.7087 10.6263C18.0587 10.6263 18.3337 10.343 18.3337 10.0013C18.3337 9.6513 18.0587 9.3763 17.7087 9.3763H16.667V7.54297H17.7087C18.0587 7.54297 18.3337 7.26797 18.3337 6.91797C18.3337 6.5763 18.0587 6.29297 17.7087 6.29297H16.4753C16.0753 4.96797 15.0337 3.9263 13.7087 3.5263V2.29297C13.7087 1.9513 13.4253 1.66797 13.0837 1.66797C12.742 1.66797 12.4587 1.9513 12.4587 2.29297V3.33464H10.6253V2.29297C10.6253 1.9513 10.342 1.66797 10.0003 1.66797C9.65866 1.66797 9.37533 1.9513 9.37533 2.29297V3.33464H7.55033V2.29297C7.55033 1.9513 7.26699 1.66797 6.92533 1.66797C6.57533 1.66797 6.30033 1.9513 6.30033 2.29297V3.5263C4.96699 3.9263 3.92533 4.96797 3.52533 6.29297H2.29199C1.95033 6.29297 1.66699 6.5763 1.66699 6.91797C1.66699 7.26797 1.95033 7.54297 2.29199 7.54297H3.33366V9.3763H2.29199C1.95033 9.3763 1.66699 9.6513 1.66699 10.0013C1.66699 10.343 1.95033 10.6263 2.29199 10.6263H3.33366V12.4596H2.29199C1.95033 12.4596 1.66699 12.7346 1.66699 13.0846C1.66699 13.4263 1.95033 13.7096 2.29199 13.7096H3.52533C3.91699 15.0346 4.96699 16.0763 6.30033 16.4763V17.7096C6.30033 18.0513 6.57533 18.3346 6.92533 18.3346C7.26699 18.3346 7.55033 18.0513 7.55033 17.7096V16.668H9.38366V17.7096C9.38366 18.0513 9.65866 18.3346 10.0087 18.3346C10.3503 18.3346 10.6337 18.0513 10.6337 17.7096V16.668H12.4587V17.7096C12.4587 18.0513 12.742 18.3346 13.0837 18.3346C13.4253 18.3346 13.7087 18.0513 13.7087 17.7096V16.4763C15.0337 16.0763 16.0753 15.0346 16.4753 13.7096H17.7087C18.0587 13.7096 18.3337 13.4263 18.3337 13.0846C18.3337 12.7346 18.0587 12.4596 17.7087 12.4596H16.667V10.6263H17.7087ZM14.3837 11.8846C14.3837 13.2596 13.2587 14.3846 11.8837 14.3846H8.11699C6.74199 14.3846 5.61699 13.2596 5.61699 11.8846V8.11797C5.61699 6.74297 6.74199 5.61797 8.11699 5.61797H11.8837C13.2587 5.61797 14.3837 6.74297 14.3837 8.11797V11.8846Z" fill="white"/>
</svg>
