<svg width="20" height="20" viewBox="0 0 20 20" fill="none" xmlns="http://www.w3.org/2000/svg">
<path d="M3.40801 6.73203C3.36634 6.98203 3.33301 7.23203 3.33301 7.4987C3.33301 7.24036 3.36634 6.98203 3.40801 6.73203ZM3.33301 12.4987C3.33301 12.7654 3.36634 13.0154 3.40801 13.2654C3.36634 13.0154 3.33301 12.757 3.33301 12.4987ZM6.74134 16.5904C6.98301 16.632 7.24134 16.6654 7.49967 16.6654C7.24134 16.6654 6.99134 16.632 6.74134 16.5904ZM6.74134 3.40703C6.99134 3.36536 7.24134 3.33203 7.49967 3.33203C7.24134 3.33203 6.98301 3.36536 6.74134 3.40703ZM13.2663 3.40703C13.0163 3.36536 12.7663 3.33203 12.4997 3.33203C12.758 3.33203 13.0163 3.36536 13.2663 3.40703ZM16.5913 6.73203C16.633 6.98203 16.6663 7.24036 16.6663 7.4987C16.6663 7.23203 16.633 6.98203 16.5913 6.73203Z" fill="white"/>
<path d="M18.3337 6.91797C18.3337 7.26797 18.0587 7.54297 17.7087 7.54297H16.667V9.07389C16.667 9.35189 16.3653 9.52497 16.1253 9.38464C15.767 9.1763 15.3503 9.10964 14.9503 9.21797C14.6937 9.27955 14.3837 9.11372 14.3837 8.84989V8.11797C14.3837 6.74297 13.2587 5.61797 11.8837 5.61797H8.11699C6.74199 5.61797 5.61699 6.74297 5.61699 8.11797V11.8846C5.61699 13.2596 6.74199 14.3846 8.11699 14.3846H8.49199C8.58866 14.3846 8.66699 14.463 8.66699 14.5596C8.66699 15.3626 9.24883 16.0376 10.0149 16.1928C10.159 16.222 10.2564 16.3943 10.2087 16.5332C10.1813 16.6127 10.1088 16.668 10.0247 16.668H7.55033V17.7096C7.55033 18.0513 7.26699 18.3346 6.92533 18.3346C6.57533 18.3346 6.30033 18.0513 6.30033 17.7096V16.4846C4.96699 16.0763 3.92533 15.0346 3.52533 13.7096H2.29199C1.95033 13.7096 1.66699 13.4263 1.66699 13.0846C1.66699 12.7346 1.95033 12.4596 2.29199 12.4596H3.33366V10.6263H2.29199C1.95033 10.6263 1.66699 10.343 1.66699 10.0013C1.66699 9.6513 1.95033 9.3763 2.29199 9.3763H3.33366V7.54297H2.29199C1.95033 7.54297 1.66699 7.26797 1.66699 6.91797C1.66699 6.5763 1.95033 6.29297 2.29199 6.29297H3.52533C3.92533 4.96797 4.96699 3.9263 6.30033 3.51797V2.29297C6.30033 1.9513 6.57533 1.66797 6.92533 1.66797C7.26699 1.66797 7.55033 1.9513 7.55033 2.29297V3.33464H9.37533V2.29297C9.37533 1.9513 9.65866 1.66797 10.0003 1.66797C10.342 1.66797 10.6253 1.9513 10.6253 2.29297V3.33464H12.4587V2.29297C12.4587 1.9513 12.742 1.66797 13.0837 1.66797C13.4253 1.66797 13.7087 1.9513 13.7087 2.29297V3.5263C15.0337 3.9263 16.0753 4.96797 16.4753 6.29297H17.7087C18.0587 6.29297 18.3337 6.5763 18.3337 6.91797Z" fill="white"/>
<path d="M17.4917 12.9429C16.925 12.9429 16.6 12.6596 16.6 12.2429C16.6 12.0762 16.65 11.8846 16.7667 11.6846C17 11.2846 16.8583 10.7679 16.4583 10.5429L15.7 10.1012C15.35 9.89291 14.9 10.0179 14.6917 10.3679L14.6417 10.4512C14.2417 11.1429 13.5917 11.1429 13.1917 10.4512L13.1417 10.3679C12.9417 10.0179 12.4833 9.89291 12.1417 10.1012L11.375 10.5429C11.1083 10.6929 10.95 10.9762 10.95 11.2679C10.95 11.4096 10.9917 11.5512 11.0667 11.6846C11.1833 11.8846 11.2417 12.0762 11.2417 12.2429C11.2417 12.6596 10.9083 12.9429 10.3417 12.9429C9.88333 12.9429 9.5 13.3179 9.5 13.7762V14.5596C9.5 15.0179 9.88333 15.3929 10.3417 15.3929C10.9083 15.3929 11.2417 15.6762 11.2417 16.0929C11.2417 16.2596 11.1833 16.4512 11.0667 16.6512C10.8333 17.0512 10.975 17.5679 11.375 17.7929L12.1417 18.2346C12.4833 18.4429 12.9417 18.3179 13.1417 17.9679L13.1917 17.8846C13.5917 17.1929 14.2417 17.1929 14.6417 17.8846L14.6917 17.9679C14.9 18.3179 15.35 18.4429 15.7 18.2346L16.4583 17.7929C16.725 17.6429 16.8833 17.3596 16.8833 17.0679C16.8833 16.9262 16.8417 16.7846 16.7667 16.6512C16.65 16.4512 16.6 16.2596 16.6 16.0929C16.6 15.6762 16.925 15.3929 17.4917 15.3929C17.9583 15.3929 18.3333 15.0179 18.3333 14.5596V13.7762C18.3333 13.3179 17.9583 12.9429 17.4917 12.9429ZM13.9167 15.6012C13.125 15.6012 12.4833 14.9596 12.4833 14.1679C12.4833 13.3762 13.125 12.7346 13.9167 12.7346C14.7083 12.7346 15.35 13.3762 15.35 14.1679C15.35 14.9596 14.7083 15.6012 13.9167 15.6012Z" fill="white"/>
<path d="M13.5413 8.3487V8.82578C13.5413 9.1042 13.1703 9.2807 12.8997 9.21537C12.483 9.10703 12.0663 9.16536 11.7247 9.3737L10.9663 9.81536C10.4413 10.107 10.1163 10.6654 10.1163 11.2654C10.1163 11.315 10.1184 11.365 10.1226 11.415C10.1499 11.7369 9.92493 12.1274 9.63242 12.2646C9.23026 12.4532 8.91459 12.7968 8.76342 13.2174C8.69876 13.3974 8.54101 13.5404 8.34967 13.5404C7.29967 13.5404 6.45801 12.6987 6.45801 11.6487V8.3487C6.45801 7.2987 7.29967 6.45703 8.34967 6.45703H11.6497C12.6997 6.45703 13.5413 7.2987 13.5413 8.3487Z" fill="white"/>
</svg>
