<svg width="20" height="20" viewBox="0 0 20 20" fill="none" xmlns="http://www.w3.org/2000/svg">
<path d="M17.7087 10.6263C18.0587 10.6263 18.3337 10.343 18.3337 10.0013C18.3337 9.6513 18.0587 9.3763 17.7087 9.3763H16.667V7.54297H17.7087C18.0587 7.54297 18.3337 7.26797 18.3337 6.91797C18.3337 6.5763 18.0587 6.29297 17.7087 6.29297H16.4753C16.0753 4.96797 15.0337 3.9263 13.7087 3.5263V2.29297C13.7087 1.9513 13.4253 1.66797 13.0837 1.66797C12.742 1.66797 12.4587 1.9513 12.4587 2.29297V3.33464H10.6253V2.29297C10.6253 1.9513 10.342 1.66797 10.0003 1.66797C9.65866 1.66797 9.37533 1.9513 9.37533 2.29297V3.33464H7.55033V2.29297C7.55033 1.9513 7.26699 1.66797 6.92533 1.66797C6.57533 1.66797 6.30033 1.9513 6.30033 2.29297V3.5263C4.96699 3.9263 3.92533 4.96797 3.52533 6.29297H2.29199C1.95033 6.29297 1.66699 6.5763 1.66699 6.91797C1.66699 7.26797 1.95033 7.54297 2.29199 7.54297H3.33366V9.3763H2.29199C1.95033 9.3763 1.66699 9.6513 1.66699 10.0013C1.66699 10.343 1.95033 10.6263 2.29199 10.6263H3.33366V12.4596H2.29199C1.95033 12.4596 1.66699 12.7346 1.66699 13.0846C1.66699 13.4263 1.95033 13.7096 2.29199 13.7096H3.52533C3.91699 15.0346 4.96699 16.0763 6.30033 16.4763V17.7096C6.30033 18.0513 6.57533 18.3346 6.92533 18.3346C7.26699 18.3346 7.55033 18.0513 7.55033 17.7096V16.668H9.38366V17.7096C9.38366 18.0513 9.65866 18.3346 10.0087 18.3346C10.3503 18.3346 10.6337 18.0513 10.6337 17.7096V16.668H12.4587V17.7096C12.4587 18.0513 12.742 18.3346 13.0837 18.3346C13.4253 18.3346 13.7087 18.0513 13.7087 17.7096V16.4763C15.0337 16.0763 16.0753 15.0346 16.4753 13.7096H17.7087C18.0587 13.7096 18.3337 13.4263 18.3337 13.0846C18.3337 12.7346 18.0587 12.4596 17.7087 12.4596H16.667V10.6263H17.7087ZM14.3837 11.8846C14.3837 13.2596 13.2587 14.3846 11.8837 14.3846H8.11699C6.74199 14.3846 5.61699 13.2596 5.61699 11.8846V8.11797C5.61699 6.74297 6.74199 5.61797 8.11699 5.61797H11.8837C13.2587 5.61797 14.3837 6.74297 14.3837 8.11797V11.8846Z" fill="white"/>
<path d="M8.34967 13.5409H11.658C12.6997 13.5409 13.5497 12.6992 13.5497 11.6492V8.34086C13.5497 7.29922 12.708 6.44922 11.658 6.44922H8.34967C7.30801 6.44922 6.45801 7.29088 6.45801 8.34086V11.6492C6.45801 12.6992 7.29967 13.5409 8.34967 13.5409Z" fill="white"/>
</svg>
