<svg width="20" height="20" viewBox="0 0 20 20" fill="none" xmlns="http://www.w3.org/2000/svg">
<path d="M10.0003 1.66797C5.40033 1.66797 1.66699 5.4013 1.66699 10.0013C1.66699 14.6013 5.40033 18.3346 10.0003 18.3346C14.6003 18.3346 18.3337 14.6013 18.3337 10.0013C18.3337 5.4013 14.6003 1.66797 10.0003 1.66797ZM7.49199 11.768C7.91699 11.768 8.33366 11.6096 8.65866 11.3263C8.91699 11.1013 9.31699 11.1263 9.54199 11.3846C9.76699 11.643 9.74199 12.043 9.48366 12.268C8.93366 12.7513 8.22533 13.018 7.49199 13.018C5.82533 13.018 4.47533 11.668 4.47533 10.0013C4.47533 8.33464 5.82533 6.98464 7.49199 6.98464C8.22533 6.98464 8.92533 7.2513 9.48366 7.73464C9.74199 7.95964 9.76699 8.35964 9.54199 8.61797C9.31699 8.8763 8.91699 8.9013 8.65866 8.6763C8.33366 8.39297 7.91699 8.23464 7.49199 8.23464C6.51699 8.23464 5.72533 9.0263 5.72533 10.0013C5.72533 10.9763 6.51699 11.768 7.49199 11.768ZM13.3253 11.768C13.7503 11.768 14.167 11.6096 14.492 11.3263C14.7503 11.1013 15.1503 11.1263 15.3753 11.3846C15.6003 11.643 15.5753 12.043 15.317 12.268C14.767 12.7513 14.0587 13.018 13.3253 13.018C11.6587 13.018 10.3087 11.668 10.3087 10.0013C10.3087 8.33464 11.6587 6.98464 13.3253 6.98464C14.0587 6.98464 14.7587 7.2513 15.317 7.73464C15.5753 7.95964 15.6003 8.35964 15.3753 8.61797C15.1503 8.8763 14.7503 8.9013 14.492 8.6763C14.167 8.39297 13.7587 8.23464 13.3253 8.23464C12.3503 8.23464 11.5587 9.0263 11.5587 10.0013C11.5587 10.9763 12.3503 11.768 13.3253 11.768Z" fill="white"/>
</svg>
