<svg width="20" height="20" viewBox="0 0 20 20" fill="none" xmlns="http://www.w3.org/2000/svg">
<path d="M4.60866 1.66797C4.25866 1.66797 3.98366 1.9513 3.98366 2.29297V3.98464H2.29199C1.95033 3.98464 1.66699 4.25964 1.66699 4.60964C1.66699 4.95964 1.95033 5.23464 2.29199 5.23464H4.60866C4.95033 5.23464 5.23366 4.9513 5.23366 4.60964V2.29297C5.23366 1.9513 4.95033 1.66797 4.60866 1.66797Z" fill="white"/>
<path d="M17.7083 14.7656H15.3916C15.0499 14.7656 14.7666 15.049 14.7666 15.3906V17.7073C14.7666 18.049 15.0499 18.3323 15.3916 18.3323C15.7333 18.3323 16.0166 18.049 16.0166 17.7073V16.0156H17.7083C18.0499 16.0156 18.3333 15.7323 18.3333 15.3906C18.3333 15.049 18.0499 14.7656 17.7083 14.7656Z" fill="white"/>
<path d="M13.9337 15.3906C13.9337 14.5906 14.5921 13.9323 15.3921 13.9323H15.9671V8.37395C15.9671 5.96562 14.0171 4.01562 11.6087 4.01562H6.06706V4.59063C6.06706 5.39062 5.40872 6.04896 4.60872 6.04896H4.02539V11.6073C4.02539 14.0156 5.97539 15.9656 8.38374 15.9656H13.9421V15.3906H13.9337Z" fill="white"/>
</svg>
