<svg width="20" height="20" viewBox="0 0 20 20" fill="none" xmlns="http://www.w3.org/2000/svg">
<path d="M18.3339 4.75857V12.7419C18.3339 15.0419 16.4672 16.9086 14.1672 16.9086H5.83392C5.45059 16.9086 5.08392 16.8586 4.72559 16.7586C4.20892 16.6169 4.04225 15.9586 4.42559 15.5752L13.2839 6.71691C13.4672 6.53357 13.7422 6.49191 14.0006 6.54191C14.2672 6.59191 14.5589 6.51691 14.7672 6.31691L16.9089 4.16691C17.6922 3.38357 18.3339 3.64191 18.3339 4.75857Z" fill="white"/>
<path d="M12.2003 6.13359L3.47533 14.8586C3.07533 15.2586 2.40866 15.1586 2.14199 14.6586C1.83366 14.0919 1.66699 13.4336 1.66699 12.7419V4.75859C1.66699 3.64193 2.30866 3.38359 3.09199 4.16693L5.24199 6.32526C5.56699 6.64193 6.10033 6.64193 6.42533 6.32526L9.40866 3.33359C9.73366 3.00859 10.267 3.00859 10.592 3.33359L12.2087 4.95026C12.5253 5.27526 12.5253 5.80859 12.2003 6.13359Z" fill="white"/>
</svg>
