<svg width="20" height="20" viewBox="0 0 20 20" fill="none" xmlns="http://www.w3.org/2000/svg">
<path d="M18.3337 8.1263C17.992 8.1263 17.7087 7.84297 17.7087 7.5013V5.83464C17.7087 3.68464 16.317 2.29297 14.167 2.29297H5.83366C3.68366 2.29297 2.29199 3.68464 2.29199 5.83464V7.5013C2.29199 7.84297 2.00866 8.1263 1.66699 8.1263C1.32533 8.1263 1.04199 7.84297 1.04199 7.5013V5.83464C1.04199 2.96797 2.96699 1.04297 5.83366 1.04297H14.167C17.0337 1.04297 18.9587 2.96797 18.9587 5.83464V7.5013C18.9587 7.84297 18.6753 8.1263 18.3337 8.1263Z" fill="white"/>
<path d="M14.167 18.9583H5.83366C2.96699 18.9583 1.04199 17.0333 1.04199 14.1667V12.5C1.04199 12.1583 1.32533 11.875 1.66699 11.875C2.00866 11.875 2.29199 12.1583 2.29199 12.5V14.1667C2.29199 16.3167 3.68366 17.7083 5.83366 17.7083H14.167C16.317 17.7083 17.7087 16.3167 17.7087 14.1667V12.5C17.7087 12.1583 17.992 11.875 18.3337 11.875C18.6753 11.875 18.9587 12.1583 18.9587 12.5V14.1667C18.9587 17.0333 17.0337 18.9583 14.167 18.9583Z" fill="white"/>
<path d="M13.6668 6.84245L10.5335 5.15078C10.2002 4.97578 9.8085 4.97578 9.47516 5.15078L6.33346 6.84245C6.10846 6.96745 5.9668 7.20911 5.9668 7.47578C5.9668 7.75078 6.10846 7.99245 6.33346 8.11745L9.46683 9.80908C9.6335 9.90075 9.81683 9.94241 10.0002 9.94241C10.1835 9.94241 10.3668 9.90075 10.5335 9.80908L13.6668 8.11745C13.8918 7.99245 14.0335 7.75078 14.0335 7.47578C14.0335 7.20911 13.8918 6.96745 13.6668 6.84245Z" fill="white"/>
<path d="M8.95 10.3923L6.03333 8.93401C5.80833 8.82567 5.55 8.83401 5.33333 8.96734C5.125 9.10067 5 9.32567 5 9.57567V12.334C5 12.809 5.26667 13.2423 5.69167 13.4507L8.60833 14.909C8.70833 14.959 8.81667 14.984 8.93333 14.984C9.06667 14.984 9.19167 14.9507 9.30833 14.8757C9.525 14.7423 9.65 14.5173 9.65 14.2673V11.509C9.64167 11.034 9.38333 10.609 8.95 10.3923Z" fill="white"/>
<path d="M14.6579 8.96734C14.4413 8.83401 14.1829 8.82567 13.9579 8.93401L11.0413 10.3923C10.6163 10.609 10.3496 11.034 10.3496 11.509V14.2673C10.3496 14.5173 10.4746 14.7423 10.6913 14.8757C10.8079 14.9507 10.9329 14.984 11.0663 14.984C11.1746 14.984 11.2829 14.959 11.3913 14.909L14.3079 13.4507C14.7329 13.234 14.9996 12.809 14.9996 12.334V9.57567C14.9996 9.32567 14.8746 9.10067 14.6579 8.96734Z" fill="white"/>
</svg>
