<svg width="20" height="20" viewBox="0 0 20 20" fill="none" xmlns="http://www.w3.org/2000/svg">
<path d="M9.375 15.2091H7.5C6.58333 15.2091 5.83333 15.9591 5.83333 16.8758V17.0841H5C4.65833 17.0841 4.375 17.3674 4.375 17.7091C4.375 18.0508 4.65833 18.3341 5 18.3341H15C15.3417 18.3341 15.625 18.0508 15.625 17.7091C15.625 17.3674 15.3417 17.0841 15 17.0841H14.1667V16.8758C14.1667 15.9591 13.4167 15.2091 12.5 15.2091H10.625V13.3008C10.4167 13.3258 10.2083 13.3341 10 13.3341C9.79167 13.3341 9.58333 13.3258 9.375 13.3008V15.2091Z" fill="white"/>
<path d="M15.4004 9.7013C15.9504 9.49297 16.4337 9.1513 16.8171 8.76797C17.5921 7.90964 18.1004 6.88464 18.1004 5.68464C18.1004 4.48464 17.1587 3.54297 15.9587 3.54297H15.4921C14.9504 2.43464 13.8171 1.66797 12.5004 1.66797H7.50039C6.18372 1.66797 5.05039 2.43464 4.50872 3.54297H4.04206C2.84206 3.54297 1.90039 4.48464 1.90039 5.68464C1.90039 6.88464 2.40872 7.90964 3.18372 8.76797C3.56706 9.1513 4.05039 9.49297 4.60039 9.7013C5.46706 11.8346 7.55039 13.3346 10.0004 13.3346C12.4504 13.3346 14.5337 11.8346 15.4004 9.7013ZM12.3671 7.04297L11.8504 7.6763C11.7671 7.76797 11.7087 7.9513 11.7171 8.0763L11.7671 8.89297C11.8004 9.39297 11.4421 9.6513 10.9754 9.46797L10.2171 9.16797C10.1004 9.1263 9.90042 9.1263 9.78375 9.16797L9.02542 9.46797C8.55875 9.6513 8.20039 9.39297 8.23372 8.89297L8.28372 8.0763C8.29206 7.9513 8.23372 7.76797 8.15039 7.6763L7.63372 7.04297C7.30872 6.65964 7.45039 6.23464 7.93372 6.10964L8.72541 5.90964C8.85041 5.8763 9.00041 5.75964 9.06708 5.6513L9.50875 4.96797C9.78375 4.54297 10.2171 4.54297 10.4921 4.96797L10.9337 5.6513C11.0004 5.75964 11.1504 5.8763 11.2754 5.90964L12.0671 6.10964C12.5504 6.23464 12.6921 6.65964 12.3671 7.04297Z" fill="white"/>
</svg>
