<svg width="20" height="20" viewBox="0 0 20 20" fill="none" xmlns="http://www.w3.org/2000/svg">
<path d="M10.0003 6.45703H7.29199V7.70703H12.6753C12.0253 6.9487 11.0753 6.45703 10.0003 6.45703Z" fill="white"/>
<path d="M13.542 9.9987C13.542 9.63203 13.467 9.29036 13.367 8.95703H7.29199V11.0404H13.367C13.467 10.707 13.542 10.3654 13.542 9.9987Z" fill="white"/>
<path d="M10.0003 1.66797C5.40033 1.66797 1.66699 5.4013 1.66699 10.0013C1.66699 14.6013 5.40033 18.3346 10.0003 18.3346C14.6003 18.3346 18.3337 14.6013 18.3337 10.0013C18.3337 5.4013 14.6003 1.66797 10.0003 1.66797ZM15.4337 12.293H14.2087C13.392 13.7846 11.817 14.793 10.0003 14.793H6.66699C6.32533 14.793 6.04199 14.5096 6.04199 14.168V12.293H5.40031C5.05864 12.293 4.77531 12.0096 4.77531 11.668C4.77531 11.3263 5.05864 11.043 5.40031 11.043H6.04199V8.95964H5.40031C5.05864 8.95964 4.77531 8.6763 4.77531 8.33464C4.77531 7.99297 5.05864 7.70964 5.40031 7.70964H6.04199V5.83464C6.04199 5.49297 6.32533 5.20964 6.66699 5.20964H10.0003C11.817 5.20964 13.392 6.21797 14.2087 7.70964H15.4337C15.7753 7.70964 16.0587 7.99297 16.0587 8.33464C16.0587 8.6763 15.7753 8.95964 15.4337 8.95964H14.6753C14.7503 9.29297 14.792 9.64297 14.792 10.0013C14.792 10.3596 14.7503 10.7096 14.6753 11.043H15.4337C15.7753 11.043 16.0587 11.3263 16.0587 11.668C16.0587 12.0096 15.7753 12.293 15.4337 12.293Z" fill="white"/>
<path d="M7.29199 13.543H10.0003C11.0753 13.543 12.0253 13.0513 12.6753 12.293H7.29199V13.543Z" fill="white"/>
</svg>
