<svg width="20" height="20" viewBox="0 0 20 20" fill="none" xmlns="http://www.w3.org/2000/svg">
<path d="M18.1341 13.268L12.8007 3.66797C12.0841 2.3763 11.0924 1.66797 10.0007 1.66797C8.90907 1.66797 7.91738 2.3763 7.20071 3.66797L1.86738 13.268C1.19238 14.493 1.11738 15.668 1.65905 16.593C2.20071 17.518 3.26738 18.0263 4.66738 18.0263H15.3341C16.7341 18.0263 17.8007 17.518 18.3424 16.593C18.8841 15.668 18.8091 14.4846 18.1341 13.268ZM9.37574 7.5013C9.37574 7.15964 9.65907 6.8763 10.0007 6.8763C10.3424 6.8763 10.6257 7.15964 10.6257 7.5013V11.668C10.6257 12.0096 10.3424 12.293 10.0007 12.293C9.65907 12.293 9.37574 12.0096 9.37574 11.668V7.5013ZM10.5924 14.7596C10.5507 14.793 10.5091 14.8263 10.4674 14.8596C10.4174 14.893 10.3674 14.918 10.3174 14.9346C10.2674 14.9596 10.2174 14.9763 10.1591 14.9846C10.1091 14.993 10.0507 15.0013 10.0007 15.0013C9.95074 15.0013 9.89241 14.993 9.83407 14.9846C9.78407 14.9763 9.73407 14.9596 9.68407 14.9346C9.63407 14.918 9.58407 14.893 9.53407 14.8596C9.49241 14.8263 9.45074 14.793 9.40907 14.7596C9.25907 14.6013 9.16741 14.3846 9.16741 14.168C9.16741 13.9513 9.25907 13.7346 9.40907 13.5763C9.45074 13.543 9.49241 13.5096 9.53407 13.4763C9.58407 13.443 9.63407 13.418 9.68407 13.4013C9.73407 13.3763 9.78407 13.3596 9.83407 13.3513C9.94241 13.3263 10.0591 13.3263 10.1591 13.3513C10.2174 13.3596 10.2674 13.3763 10.3174 13.4013C10.3674 13.418 10.4174 13.443 10.4674 13.4763C10.5091 13.5096 10.5507 13.543 10.5924 13.5763C10.7424 13.7346 10.8341 13.9513 10.8341 14.168C10.8341 14.3846 10.7424 14.6013 10.5924 14.7596Z" fill="white"/>
</svg>
