<svg width="20" height="20" viewBox="0 0 20 20" fill="none" xmlns="http://www.w3.org/2000/svg">
<path d="M5.9332 2.91797H13.3332C16.6665 2.91797 18.3332 5.0013 18.3332 7.91797V10.0013C18.3332 14.168 15.8332 17.0846 11.2498 17.0846H3.2832L4.16654 13.543H10.3665C13.3332 13.543 14.7915 11.668 14.7915 9.11797V8.95964C14.7915 7.5013 14.1665 6.45964 12.2915 6.45964H5.04987L5.9332 2.91797Z" fill="white"/>
<path d="M10.3419 8.52734H3.91692C3.01692 8.52734 2.23358 9.14401 2.00858 10.0107L1.80025 10.8607C1.72525 11.169 1.95858 11.469 2.27525 11.469H8.70024C9.60024 11.469 10.3836 10.8523 10.6086 9.98568L10.8169 9.13568C10.9002 8.82734 10.6586 8.52734 10.3419 8.52734Z" fill="white"/>
</svg>
