<svg width="20" height="20" viewBox="0 0 20 20" fill="none" xmlns="http://www.w3.org/2000/svg">
<path d="M16.667 11.875C17.7025 11.875 18.542 11.0355 18.542 10C18.542 8.9645 17.7025 8.125 16.667 8.125C15.6315 8.125 14.792 8.9645 14.792 10C14.792 11.0355 15.6315 11.875 16.667 11.875Z" fill="white"/>
<path d="M16.667 5.20703C17.7025 5.20703 18.542 4.36756 18.542 3.33203C18.542 2.2965 17.7025 1.45703 16.667 1.45703C15.6315 1.45703 14.792 2.2965 14.792 3.33203C14.792 4.36756 15.6315 5.20703 16.667 5.20703Z" fill="white"/>
<path d="M16.667 18.543C17.7025 18.543 18.542 17.7035 18.542 16.668C18.542 15.6325 17.7025 14.793 16.667 14.793C15.6315 14.793 14.792 15.6325 14.792 16.668C14.792 17.7035 15.6315 18.543 16.667 18.543Z" fill="white"/>
<path d="M3.33301 11.875C4.36854 11.875 5.20801 11.0355 5.20801 10C5.20801 8.9645 4.36854 8.125 3.33301 8.125C2.29747 8.125 1.45801 8.9645 1.45801 10C1.45801 11.0355 2.29747 11.875 3.33301 11.875Z" fill="white"/>
<path d="M15.8337 10.6237C16.1753 10.6237 16.4587 10.3404 16.4587 9.9987C16.4587 9.65703 16.1753 9.3737 15.8337 9.3737H9.79199V5.83203C9.79199 4.51536 10.3503 3.95703 11.667 3.95703H15.8337C16.1753 3.95703 16.4587 3.6737 16.4587 3.33203C16.4587 2.99036 16.1753 2.70703 15.8337 2.70703H11.667C9.65033 2.70703 8.54199 3.81536 8.54199 5.83203V9.3737H4.16699C3.82533 9.3737 3.54199 9.65703 3.54199 9.9987C3.54199 10.3404 3.82533 10.6237 4.16699 10.6237H8.54199V14.1654C8.54199 16.182 9.65033 17.2904 11.667 17.2904H15.8337C16.1753 17.2904 16.4587 17.007 16.4587 16.6654C16.4587 16.3237 16.1753 16.0404 15.8337 16.0404H11.667C10.3503 16.0404 9.79199 15.482 9.79199 14.1654V10.6237H15.8337Z" fill="white"/>
</svg>
