<svg width="20" height="20" viewBox="0 0 20 20" fill="none" xmlns="http://www.w3.org/2000/svg">
<path d="M4.70812 6.37369L2.3748 4.04037C2.11646 3.78204 2.2998 3.33203 2.66647 3.33203H5.65813C5.76646 3.33203 5.8748 3.37369 5.9498 3.45702L10.1165 7.62369C10.3748 7.88202 10.1915 8.33203 9.82483 8.33203H7.08313C5.4748 8.33203 4.16646 9.64036 4.16646 11.2487C4.16646 12.857 5.4748 14.1654 7.08313 14.1654H8.33313L10.1247 15.957C10.3832 16.2154 10.1997 16.6654 9.83308 16.6654H7.09147C4.09981 16.6654 1.6748 14.2404 1.6748 11.2487C1.6748 9.1737 2.84147 7.36536 4.56647 6.45703L4.70812 6.37369Z" fill="white"/>
<path d="M15.2914 13.6237L17.6247 15.957C17.883 16.2154 17.6997 16.6654 17.333 16.6654H14.3414C14.233 16.6654 14.1247 16.6237 14.0497 16.5404L9.88303 12.3737C9.6247 12.1154 9.80803 11.6654 10.1747 11.6654H12.9164C14.5247 11.6654 15.833 10.357 15.833 8.7487C15.833 7.14036 14.5247 5.83203 12.9164 5.83203H11.6664L9.8747 4.04037C9.61637 3.78204 9.7997 3.33203 10.1664 3.33203H12.908C15.8997 3.33203 18.3247 5.75703 18.3247 8.7487C18.3247 10.8237 17.158 12.632 15.433 13.5404L15.2914 13.6237Z" fill="white"/>
</svg>
