<svg width="20" height="20" viewBox="0 0 20 20" fill="none" xmlns="http://www.w3.org/2000/svg">
<path d="M10.0003 1.66797C5.40033 1.66797 1.66699 5.4013 1.66699 10.0013C1.66699 14.6013 5.40033 18.3346 10.0003 18.3346C14.6003 18.3346 18.3337 14.6013 18.3337 10.0013C18.3337 5.4013 14.6003 1.66797 10.0003 1.66797ZM12.817 10.3596L14.0337 11.0596C14.5587 11.3596 14.7337 12.0346 14.4337 12.5596C14.1337 13.0846 13.4587 13.2596 12.9337 12.9596L11.717 12.2596C11.442 12.1013 11.092 12.3013 11.092 12.618V14.018C11.092 14.618 10.6003 15.118 9.99199 15.118C9.38366 15.118 8.89199 14.6263 8.89199 14.018V12.618C8.89199 12.3013 8.54199 12.093 8.26699 12.2596L7.05033 12.9596C6.52533 13.2596 5.85033 13.0846 5.55033 12.5596C5.25033 12.0346 5.42533 11.3596 5.95033 11.0596L7.16699 10.3596C7.44199 10.2013 7.44199 9.8013 7.16699 9.63464L5.95033 8.93464C5.42533 8.63464 5.25033 7.95964 5.55033 7.43464C5.85033 6.90964 6.52533 6.73463 7.05033 7.03463L8.26699 7.73464C8.54199 7.89297 8.89199 7.69298 8.89199 7.37631V5.9763C8.89199 5.3763 9.38366 4.87631 9.99199 4.87631C10.6003 4.87631 11.092 5.36797 11.092 5.9763V7.37631C11.092 7.69298 11.442 7.9013 11.717 7.73464L12.9337 7.03463C13.4587 6.73463 14.1337 6.90964 14.4337 7.43464C14.7337 7.95964 14.5587 8.63464 14.0337 8.93464L12.817 9.63464C12.542 9.8013 12.542 10.2013 12.817 10.3596Z" fill="white"/>
</svg>
