<svg width="20" height="20" viewBox="0 0 20 20" fill="none" xmlns="http://www.w3.org/2000/svg">
<path d="M13.0998 8.07266C11.3915 6.35599 8.60818 6.35599 6.8998 8.07266C5.18314 9.7893 5.18314 12.5643 6.8998 14.2726C8.61651 15.9893 11.3915 15.9893 13.0998 14.2726C14.8165 12.556 14.8165 9.78096 13.0998 8.07266ZM10.4415 11.6143L9.11651 12.9393C8.99151 13.0643 8.83318 13.1226 8.67485 13.1226C8.51651 13.1226 8.34985 13.0643 8.23314 12.9393C7.99147 12.6976 7.99147 12.2976 8.23314 12.0476L9.55818 10.7226C9.79985 10.481 10.1998 10.481 10.4498 10.7226C10.6915 10.9726 10.6915 11.3726 10.4415 11.6143Z" fill="white"/>
<path d="M16.3334 4.84193C16.1501 4.65859 15.9167 4.55859 15.6584 4.55859C15.4001 4.55859 15.1667 4.65859 14.9834 4.83359C14.6084 5.20859 14.6084 5.80859 14.9834 6.18359C15.1667 6.36693 15.4001 6.46693 15.6584 6.46693C15.9167 6.46693 16.1501 6.36693 16.3334 6.19193C16.5167 6.00859 16.6167 5.77526 16.6167 5.51693C16.6167 5.25859 16.5167 5.01693 16.3334 4.84193Z" fill="white"/>
<path d="M5.01615 16.1583C4.83281 15.975 4.59948 15.875 4.34115 15.875C4.08281 15.875 3.84948 15.975 3.66615 16.15C3.48281 16.3333 3.38281 16.5667 3.38281 16.825C3.38281 17.0833 3.48281 17.3167 3.66615 17.5C3.84948 17.6833 4.09948 17.775 4.34115 17.775C4.58281 17.775 4.83281 17.6833 5.01615 17.4917C5.38281 17.1333 5.38281 16.525 5.01615 16.1583Z" fill="white"/>
<path d="M18.6742 10.4982C18.4992 10.3148 18.2576 10.2232 17.9992 10.2148C17.7409 10.2148 17.5076 10.3148 17.3242 10.4982C16.9492 10.8732 16.9492 11.4732 17.3242 11.8482C17.5076 12.0315 17.7576 12.1232 17.9992 12.1232C18.2409 12.1232 18.4909 12.0315 18.6742 11.8482C19.0492 11.4732 19.0492 10.8648 18.6742 10.4982Z" fill="white"/>
<path d="M2.6752 10.5008C2.30853 10.1341 1.7002 10.1258 1.3252 10.5008C0.950195 10.8758 0.950195 11.4758 1.3252 11.8508C1.50853 12.0341 1.75853 12.1258 2.0002 12.1258C2.24186 12.1258 2.49186 12.0341 2.6752 11.8508C3.04186 11.4758 3.04186 10.8675 2.6752 10.5008Z" fill="white"/>
<path d="M16.3334 16.1602C15.9584 15.7852 15.3584 15.7852 14.9834 16.1602C14.6084 16.5352 14.6084 17.1352 14.9834 17.5102C15.1667 17.6935 15.4167 17.7852 15.6584 17.7852C15.9001 17.7852 16.1501 17.6935 16.3334 17.5102C16.5167 17.3268 16.6167 17.0852 16.6167 16.8352C16.6167 16.5768 16.5167 16.3352 16.3334 16.1602Z" fill="white"/>
<path d="M5.01615 4.84193C4.83281 4.65859 4.59948 4.55859 4.34115 4.55859C4.08281 4.55859 3.84948 4.65859 3.66615 4.83359C3.48281 5.01693 3.38281 5.25026 3.38281 5.50859C3.38281 5.76693 3.48281 6.00859 3.66615 6.18359C3.84948 6.36693 4.08281 6.46693 4.34115 6.46693C4.59948 6.46693 4.83281 6.36693 5.01615 6.19193C5.38281 5.81693 5.38281 5.20859 5.01615 4.84193Z" fill="white"/>
<path d="M10.6743 2.5C10.6743 2.49167 10.6743 2.49167 10.6743 2.5C10.2993 2.125 9.69935 2.125 9.32435 2.5C9.14102 2.68333 9.04102 2.925 9.04102 3.175C9.04102 3.43333 9.14102 3.66667 9.31602 3.85C9.49935 4.03333 9.73268 4.13333 9.99102 4.13333C10.2493 4.13333 10.4827 4.03333 10.666 3.85C11.0493 3.475 11.0493 2.86667 10.6743 2.5Z" fill="white"/>
</svg>
