<svg width="20" height="20" viewBox="0 0 20 20" fill="none" xmlns="http://www.w3.org/2000/svg">
<path d="M16.667 5.0013V5.2013H12.392C9.91699 5.2013 8.76699 6.3513 8.76699 8.8263V13.0846H8.12533V16.043H8.76699V17.293H4.12533C3.78366 17.293 3.50033 17.0096 3.50033 16.668C3.50033 16.3263 3.78366 16.043 4.12533 16.043H6.87533V13.0846H5.00033C2.39199 13.0846 1.69199 12.443 1.66699 9.91797V5.0013C1.66699 2.33464 2.33366 1.66797 5.00033 1.66797H13.3337C16.0003 1.66797 16.667 2.33464 16.667 5.0013Z" fill="white"/>
<path d="M16.6666 6.49089C16.4583 6.46589 16.2166 6.44922 15.9583 6.44922H12.3916C10.6083 6.44922 10.0166 7.04089 10.0166 8.82419V16.0409C10.0249 16.5575 10.0833 16.9659 10.2083 17.2909C10.4999 18.0492 11.1583 18.3325 12.3916 18.3325H15.9583C17.7416 18.3325 18.3333 17.7409 18.3333 15.9575V8.82419C18.3333 7.29922 17.8999 6.64922 16.6666 6.49089ZM14.1749 8.40753C14.8999 8.40753 15.4833 8.99086 15.4833 9.71586C15.4833 10.4409 14.8999 11.0242 14.1749 11.0242C13.4499 11.0242 12.8666 10.4409 12.8666 9.71586C12.8666 8.99086 13.4499 8.40753 14.1749 8.40753ZM14.1749 15.9575C13.1916 15.9575 12.3916 15.1575 12.3916 14.1742C12.3916 13.7659 12.5333 13.3825 12.7666 13.0825C13.0916 12.6659 13.5999 12.3909 14.1749 12.3909C14.6249 12.3909 15.0333 12.5575 15.3416 12.8242C15.7166 13.1575 15.9583 13.6409 15.9583 14.1742C15.9583 15.1575 15.1583 15.9575 14.1749 15.9575Z" fill="white"/>
<path d="M16.6666 6.49089C16.4583 6.46589 16.2166 6.44922 15.9583 6.44922H12.3916C10.6083 6.44922 10.0166 7.04089 10.0166 8.82419V16.0409C10.0249 16.5575 10.0833 16.9659 10.2083 17.2909C10.4999 18.0492 11.1583 18.3325 12.3916 18.3325H15.9583C17.7416 18.3325 18.3333 17.7409 18.3333 15.9575V8.82419C18.3333 7.29922 17.8999 6.64922 16.6666 6.49089ZM14.1749 8.40753C14.8999 8.40753 15.4833 8.99086 15.4833 9.71586C15.4833 10.4409 14.8999 11.0242 14.1749 11.0242C13.4499 11.0242 12.8666 10.4409 12.8666 9.71586C12.8666 8.99086 13.4499 8.40753 14.1749 8.40753ZM14.1749 15.9575C13.1916 15.9575 12.3916 15.1575 12.3916 14.1742C12.3916 13.7659 12.5333 13.3825 12.7666 13.0825C13.0916 12.6659 13.5999 12.3909 14.1749 12.3909C14.6249 12.3909 15.0333 12.5575 15.3416 12.8242C15.7166 13.1575 15.9583 13.6409 15.9583 14.1742C15.9583 15.1575 15.1583 15.9575 14.1749 15.9575Z" fill="white"/>
</svg>
