<svg width="20" height="20" viewBox="0 0 20 20" fill="none" xmlns="http://www.w3.org/2000/svg">
<path d="M18.3337 18.9596H4.16699C2.44199 18.9596 1.04199 17.5596 1.04199 15.8346V1.66797C1.04199 1.3263 1.32533 1.04297 1.66699 1.04297C2.00866 1.04297 2.29199 1.3263 2.29199 1.66797V15.8346C2.29199 16.868 3.13366 17.7096 4.16699 17.7096H18.3337C18.6753 17.7096 18.9587 17.993 18.9587 18.3346C18.9587 18.6763 18.6753 18.9596 18.3337 18.9596Z" fill="white"/>
<path d="M4.16684 14.7902C4.02518 14.7902 3.87518 14.7402 3.75851 14.6402C3.50018 14.4152 3.46684 14.0235 3.69184 13.7569L7.51684 9.2902C7.93351 8.80687 8.53349 8.5152 9.16683 8.4902C9.80016 8.47353 10.4252 8.70687 10.8752 9.15687L11.6668 9.94853C11.8752 10.1569 12.1418 10.2569 12.4418 10.2569C12.7335 10.2485 13.0002 10.1152 13.1918 9.8902L17.0168 5.42355C17.2418 5.16522 17.6335 5.13188 17.9002 5.35688C18.1585 5.58188 18.1918 5.97355 17.9668 6.24022L14.1418 10.7069C13.7252 11.1902 13.1252 11.4819 12.4918 11.5069C11.8502 11.5235 11.2335 11.2902 10.7835 10.8402L10.0002 10.0485C9.79183 9.8402 9.51683 9.73187 9.22516 9.7402C8.93349 9.74853 8.66683 9.88187 8.47516 10.1069L4.65018 14.5735C4.51684 14.7152 4.34184 14.7902 4.16684 14.7902Z" fill="white"/>
</svg>
