<svg width="20" height="20" viewBox="0 0 20 20" fill="none" xmlns="http://www.w3.org/2000/svg">
<path d="M15.833 6.66797C17.2138 6.66797 18.333 5.54868 18.333 4.16797C18.333 2.78726 17.2138 1.66797 15.833 1.66797C14.4523 1.66797 13.333 2.78726 13.333 4.16797C13.333 5.54868 14.4523 6.66797 15.833 6.66797Z" fill="white"/>
<path d="M16.9503 10.5982H14.192C13.417 10.5982 12.7253 11.0315 12.3753 11.7148L11.7087 13.0315C11.5503 13.3482 11.2337 13.5398 10.8837 13.5398H8.29199C8.05033 13.5398 7.69199 13.4898 7.46699 13.0232L6.80866 11.7148C6.45866 11.0232 5.76699 10.5898 4.99199 10.5898H2.21699C1.91699 10.5982 1.66699 10.8482 1.66699 11.1482V13.7232C1.66699 16.6148 3.39199 18.3315 6.27533 18.3315H12.9087C15.6253 18.3315 17.3003 16.8398 17.5003 14.1982V11.1482C17.5003 10.8482 17.2503 10.5982 16.9503 10.5982Z" fill="white"/>
<path d="M17.5003 8.66667V9.44167C17.3253 9.38333 17.142 9.35 16.9503 9.35H14.192C12.942 9.35 11.817 10.0417 11.267 11.1583L10.6837 12.3H8.49199L7.92533 11.1667C7.35866 10.0417 6.24199 9.35 4.99199 9.35H2.21699C2.02533 9.35 1.84199 9.38333 1.66699 9.44167V7.1C1.66699 4.55833 3.72533 2.5 6.26699 2.5H11.3337C11.867 2.5 12.2503 2.98333 12.1503 3.5C12.017 4.16667 12.0753 4.89167 12.4003 5.65833C12.7753 6.525 13.4753 7.225 14.342 7.6C15.1087 7.925 15.8337 7.98333 16.5003 7.85C17.017 7.75 17.5003 8.13333 17.5003 8.66667Z" fill="white"/>
</svg>
