<svg width="20" height="20" viewBox="0 0 20 20" fill="none" xmlns="http://www.w3.org/2000/svg">
<path d="M14.1833 2.26716L11.2833 3.71716C10.475 4.11716 9.53334 4.11716 8.725 3.71716L5.81669 2.25883C3.33335 1.01716 0.708351 3.70049 2.00835 6.15883L2.69169 7.44216C2.78335 7.61716 2.93335 7.75883 3.11669 7.84216L13.6583 12.5838C14.0917 12.7755 14.6 12.6005 14.8167 12.1838L17.9917 6.15049C19.2833 3.70049 16.6667 1.01716 14.1833 2.26716Z" fill="white"/>
<path d="M13.0003 13.593L6.10037 10.4847C5.32537 10.1347 4.54204 10.968 4.94204 11.718L7.47537 16.5263C8.55033 18.568 11.467 18.568 12.542 16.5263L13.4337 14.8263C13.667 14.368 13.467 13.8097 13.0003 13.593Z" fill="white"/>
</svg>
