<svg width="20" height="20" viewBox="0 0 20 20" fill="none" xmlns="http://www.w3.org/2000/svg">
<path d="M15.5747 9.60964C15.0997 9.48464 14.5414 9.41797 13.8747 9.41797C12.9497 9.41797 12.6081 9.64297 12.1331 10.0013C12.1081 10.018 12.0831 10.043 12.0581 10.068L11.2664 10.9096C10.5997 11.6096 9.39975 11.618 8.73308 10.9013L7.94141 10.068C7.91641 10.043 7.89141 10.018 7.86641 10.0013C7.39141 9.64297 7.04974 9.41797 6.12474 9.41797C5.45807 9.41797 4.89974 9.48464 4.42474 9.60964C2.44141 10.143 2.44141 11.718 2.44141 13.1013V13.8763C2.44141 15.968 2.44141 18.3346 6.89974 18.3346H13.0997C16.0581 18.3346 17.5581 16.8346 17.5581 13.8763V13.1013C17.5581 11.718 17.5581 10.143 15.5747 9.60964ZM11.9414 15.3346H8.05807C7.74141 15.3346 7.48307 15.0763 7.48307 14.7513C7.48307 14.4263 7.74141 14.168 8.05807 14.168H11.9414C12.2581 14.168 12.5164 14.4263 12.5164 14.7513C12.5164 15.0763 12.2581 15.3346 11.9414 15.3346Z" fill="white"/>
<path d="M10.5581 2.2263C10.5581 1.91797 10.3081 1.66797 9.99974 1.66797C9.69141 1.66797 9.44141 1.91797 9.44141 2.2263V3.33464H10.5664V2.2263H10.5581Z" fill="white"/>
<path d="M16.0088 7.01536V8.43203C15.9755 8.41536 15.9338 8.40703 15.9005 8.3987H15.8922C15.3005 8.24036 14.6422 8.16536 13.8755 8.16536C12.5922 8.16536 11.9838 8.54036 11.4338 8.95703C11.3172 9.04036 11.2338 9.1237 11.1505 9.20703L10.3588 10.0487C10.2755 10.132 10.1422 10.182 10.0005 10.182C9.93382 10.182 9.76715 10.1737 9.64215 10.0404L8.82549 9.18203C8.74215 9.09037 8.64215 9.01537 8.61715 8.9987C8.01719 8.54036 7.40885 8.16536 6.12552 8.16536C5.35885 8.16536 4.70052 8.24036 4.10052 8.3987C4.06719 8.40703 4.02552 8.41536 3.99219 8.43203V7.01536C3.99219 5.29036 3.99219 3.33203 7.67552 3.33203H9.44215V6.20703L8.90049 5.66536C8.67549 5.44036 8.32552 5.44036 8.10052 5.66536C7.88385 5.88203 7.88385 6.24036 8.10052 6.45703L9.60049 7.95703C9.60882 7.96536 9.61715 7.96536 9.61715 7.9737C9.66715 8.01536 9.72549 8.05703 9.78382 8.08203C9.85882 8.10703 9.92549 8.1237 10.0005 8.1237C10.0755 8.1237 10.1422 8.10703 10.2172 8.08203C10.2838 8.05703 10.3422 8.01536 10.4005 7.95703L11.9005 6.45703C12.1172 6.24036 12.1172 5.88203 11.9005 5.66536C11.6755 5.44036 11.3255 5.44036 11.1005 5.66536L10.5588 6.20703V3.33203H12.3255C16.0088 3.33203 16.0088 5.29036 16.0088 7.01536Z" fill="white"/>
</svg>
