<svg width="20" height="20" viewBox="0 0 20 20" fill="none" xmlns="http://www.w3.org/2000/svg">
<path d="M14.1833 17.7424L11.2833 16.2924C10.475 15.8924 9.53334 15.8924 8.725 16.2924L5.82497 17.7424C3.3333 18.9841 0.708299 16.3091 2.0083 13.8507L2.69164 12.5674C2.7833 12.3924 2.9333 12.2507 3.11664 12.1674L13.65 7.41738C14.0833 7.22571 14.5917 7.40072 14.8083 7.81738L17.9833 13.8507C19.2833 16.3091 16.6667 18.9841 14.1833 17.7424Z" fill="white"/>
<path d="M13.0003 6.40599L6.10037 9.5143C5.32537 9.8643 4.54204 9.03097 4.94204 8.28099L7.47537 3.47266C8.55033 1.43099 11.467 1.43099 12.542 3.47266L13.4337 5.17266C13.667 5.63099 13.467 6.19766 13.0003 6.40599Z" fill="white"/>
</svg>
