<svg width="20" height="20" viewBox="0 0 20 20" fill="none" xmlns="http://www.w3.org/2000/svg">
<path d="M17.7503 10.1914H14.8503C14.0337 10.1914 13.3087 10.6414 12.942 11.3747L12.242 12.7581C12.0753 13.0914 11.742 13.2997 11.3753 13.2997H8.64199C8.38366 13.2997 8.01699 13.2414 7.77533 12.7581L7.07533 11.3831C6.70866 10.6581 5.97533 10.1997 5.16699 10.1997H2.25033C1.92533 10.1997 1.66699 10.4581 1.66699 10.7831V13.4997C1.66699 16.5247 3.48366 18.3331 6.51699 18.3331H13.5003C16.3587 18.3331 18.117 16.7664 18.3337 13.9831V10.7747C18.3337 10.4581 18.0753 10.1914 17.7503 10.1914Z" fill="white"/>
<path d="M18.3337 6.50964V9.04297C18.1503 8.9763 17.9503 8.94297 17.7503 8.94297H14.8503C13.5587 8.94297 12.4003 9.65964 11.8253 10.8096L11.2003 12.043H8.81699L8.19199 10.818C7.61699 9.65964 6.45866 8.94297 5.16699 8.94297H2.25033C2.05033 8.94297 1.85033 8.9763 1.66699 9.04297V6.50964C1.66699 3.4763 3.47533 1.66797 6.50866 1.66797H13.492C16.5253 1.66797 18.3337 3.4763 18.3337 6.50964Z" fill="white"/>
</svg>
