<svg width="20" height="20" viewBox="0 0 20 20" fill="none" xmlns="http://www.w3.org/2000/svg">
<path d="M15.5747 9.60964C15.0997 9.48464 14.5414 9.41797 13.8747 9.41797C12.9497 9.41797 12.6081 9.64297 12.1331 10.0013C12.1081 10.018 12.0831 10.043 12.0581 10.068L11.2664 10.9096C10.5997 11.6096 9.39975 11.618 8.73308 10.9013L7.94141 10.068C7.91641 10.043 7.89141 10.018 7.86641 10.0013C7.39141 9.64297 7.04974 9.41797 6.12474 9.41797C5.45807 9.41797 4.89974 9.48464 4.42474 9.60964C2.44141 10.143 2.44141 11.718 2.44141 13.1013V13.8763C2.44141 15.968 2.44141 18.3346 6.89974 18.3346H13.0997C16.0581 18.3346 17.5581 16.8346 17.5581 13.8763V13.1013C17.5581 11.718 17.5581 10.143 15.5747 9.60964ZM11.9414 15.3346H8.05807C7.74141 15.3346 7.48307 15.0763 7.48307 14.7513C7.48307 14.4263 7.74141 14.168 8.05807 14.168H11.9414C12.2581 14.168 12.5164 14.4263 12.5164 14.7513C12.5164 15.0763 12.2581 15.3346 11.9414 15.3346Z" fill="white"/>
<path d="M16.0088 5.3513V8.43464C15.9755 8.41797 15.9338 8.40964 15.9005 8.4013C15.3172 8.24297 14.6588 8.16797 13.8755 8.16797C12.5922 8.16797 11.9922 8.54297 11.3755 9.00964C11.2922 9.06797 11.2172 9.14297 11.1505 9.20964L10.3505 10.0513C10.2755 10.1346 10.1422 10.1846 10.0005 10.1846C9.85882 10.1846 9.72549 10.1346 9.64215 10.043L8.85882 9.21797C8.78382 9.13464 8.70049 9.05964 8.61715 9.0013C8.01719 8.54297 7.40885 8.16797 6.12552 8.16797C5.34219 8.16797 4.68385 8.24297 4.10052 8.4013C4.06719 8.40964 4.02552 8.41797 3.99219 8.43464V5.3513C3.99219 3.6263 3.99219 1.66797 7.67552 1.66797H12.3255C16.0088 1.66797 16.0088 3.6263 16.0088 5.3513Z" fill="white"/>
</svg>
