<svg width="20" height="20" viewBox="0 0 20 20" fill="none" xmlns="http://www.w3.org/2000/svg">
<path d="M2.25857 14.1833L3.70857 11.2833C4.10857 10.475 4.10857 9.53332 3.70857 8.72499L2.25857 5.81669C1.0169 3.33335 3.6919 0.708353 6.15023 2.00835L7.43357 2.69169C7.6169 2.78335 7.75856 2.93335 7.83356 3.11669L12.5752 13.6583C12.7669 14.0917 12.5919 14.6 12.1752 14.8167L6.1419 17.9917C3.6919 19.2917 1.0169 16.6667 2.25857 14.1833Z" fill="white"/>
<path d="M13.592 13.0023L10.4837 6.10232C10.1337 5.32732 10.967 4.54399 11.717 4.94399L16.5254 7.47732C18.567 8.55228 18.567 11.4689 16.5254 12.5439L14.8254 13.4356C14.367 13.6689 13.8087 13.4773 13.592 13.0023Z" fill="white"/>
</svg>
