<svg width="20" height="20" viewBox="0 0 20 20" fill="none" xmlns="http://www.w3.org/2000/svg">
<path d="M17.7503 10.1914H14.8503C14.0337 10.1914 13.3087 10.6414 12.942 11.3747L12.242 12.7581C12.0753 13.0914 11.742 13.2997 11.3753 13.2997H8.64199C8.38366 13.2997 8.01699 13.2414 7.77533 12.7581L7.07533 11.3831C6.70866 10.6581 5.97533 10.1997 5.16699 10.1997H2.25033C1.92533 10.1997 1.66699 10.4581 1.66699 10.7831V13.4997C1.66699 16.5247 3.48366 18.3331 6.51699 18.3331H13.5003C16.3587 18.3331 18.117 16.7664 18.3337 13.9831V10.7747C18.3337 10.4581 18.0753 10.1914 17.7503 10.1914Z" fill="white"/>
<path d="M10.625 1.66797C10.625 1.3263 10.3417 1.04297 10 1.04297C9.65833 1.04297 9.375 1.3263 9.375 1.66797V3.33464H10.625V1.66797Z" fill="white"/>
<path d="M18.3337 8.1737V9.04036C18.1503 8.9737 17.9503 8.94036 17.7503 8.94036H14.8503C13.5587 8.94036 12.4003 9.65703 11.8253 10.807L11.2003 12.0404H8.81699L8.19199 10.8154C7.61699 9.65703 6.45866 8.94036 5.16699 8.94036H2.25033C2.05033 8.94036 1.85033 8.9737 1.66699 9.04036V8.1737C1.66699 5.14036 3.47533 3.33203 6.50866 3.33203H9.37533V5.99036L8.77533 5.39036C8.53366 5.1487 8.13366 5.1487 7.89199 5.39036C7.65033 5.63203 7.65033 6.03203 7.89199 6.2737L9.55866 7.94036C9.56699 7.9487 9.57533 7.9487 9.57533 7.95703C9.63366 8.00703 9.69199 8.0487 9.75866 8.0737C9.84199 8.10703 9.91699 8.1237 10.0003 8.1237C10.0837 8.1237 10.1587 8.10703 10.2337 8.0737C10.3087 8.0487 10.3837 7.9987 10.442 7.94036L12.1087 6.2737C12.3503 6.03203 12.3503 5.63203 12.1087 5.39036C11.867 5.1487 11.467 5.1487 11.2253 5.39036L10.6253 5.99036V3.33203H13.492C16.5253 3.33203 18.3337 5.14036 18.3337 8.1737Z" fill="white"/>
</svg>
