<svg width="20" height="20" viewBox="0 0 20 20" fill="none" xmlns="http://www.w3.org/2000/svg">
<path d="M17.7414 14.1835L16.2914 11.2835C15.8914 10.4752 15.8914 9.53349 16.2914 8.72516L17.7414 5.82518C18.9831 3.33352 16.3081 0.716849 13.8497 2.01685L12.5664 2.70018C12.3914 2.79185 12.2497 2.94185 12.1664 3.12518L7.4164 13.6585C7.22474 14.0918 7.39974 14.6002 7.81641 14.8168L13.8497 17.9918C16.3081 19.2918 18.9831 16.6668 17.7414 14.1835Z" fill="white"/>
<path d="M6.40794 13.0023L9.51625 6.10232C9.86625 5.32732 9.03292 4.54399 8.28294 4.94399L3.47461 7.46899C1.43294 8.54395 1.43294 11.4606 3.47461 12.5356L5.17461 13.4273C5.63294 13.6689 6.19128 13.4773 6.40794 13.0023Z" fill="white"/>
</svg>
