<svg width="20" height="20" viewBox="0 0 20 20" fill="none" xmlns="http://www.w3.org/2000/svg">
<path d="M17.7503 10.1914H14.8503C14.0337 10.1914 13.3087 10.6414 12.942 11.3747L12.242 12.7581C12.0753 13.0914 11.742 13.2997 11.3753 13.2997H8.64199C8.38366 13.2997 8.01699 13.2414 7.77533 12.7581L7.07533 11.3831C6.70866 10.6581 5.97533 10.1997 5.16699 10.1997H2.25033C1.92533 10.1997 1.66699 10.4581 1.66699 10.7831V13.4997C1.66699 16.5247 3.48366 18.3331 6.51699 18.3331H13.5003C16.3587 18.3331 18.117 16.7664 18.3337 13.9831V10.7747C18.3337 10.4581 18.0753 10.1914 17.7503 10.1914Z" fill="white"/>
<path d="M10.625 3.17682L11.225 3.77682C11.35 3.90182 11.5083 3.96016 11.6667 3.96016C11.825 3.96016 11.9833 3.90182 12.1083 3.77682C12.35 3.53516 12.35 3.13516 12.1083 2.89349L10.4417 1.22682C10.4333 1.21849 10.425 1.21849 10.425 1.21016C10.375 1.16016 10.3083 1.11849 10.2417 1.08516C10.2333 1.08516 10.2333 1.08516 10.225 1.07682C10.1583 1.05182 10.0917 1.04349 10.025 1.03516C10 1.03516 9.98333 1.03516 9.95833 1.03516C9.90833 1.03516 9.85833 1.05182 9.80833 1.06849C9.78333 1.07682 9.76667 1.08516 9.75 1.09349C9.68333 1.12682 9.61667 1.16016 9.56667 1.21849L7.9 2.88516C7.65833 3.12682 7.65833 3.52682 7.9 3.76849C8.14167 4.01016 8.54167 4.01016 8.78333 3.76849L9.38333 3.16849V4.16849H10.6333V3.17682H10.625Z" fill="white"/>
<path d="M18.3337 9.00964V9.04297C18.1503 8.9763 17.9503 8.94297 17.7503 8.94297H14.8503C13.5587 8.94297 12.4003 9.65964 11.8253 10.8096L11.2003 12.043H8.81699L8.19199 10.818C7.61699 9.65964 6.45866 8.94297 5.16699 8.94297H2.25033C2.05033 8.94297 1.85033 8.9763 1.66699 9.04297V9.00964C1.66699 5.9763 3.47533 4.16797 6.50866 4.16797H9.37533V7.5013C9.37533 7.84297 9.65866 8.1263 10.0003 8.1263C10.342 8.1263 10.6253 7.84297 10.6253 7.5013V4.16797H13.492C16.5253 4.16797 18.3337 5.9763 18.3337 9.00964Z" fill="white"/>
</svg>
