<svg width="20" height="20" viewBox="0 0 20 20" fill="none" xmlns="http://www.w3.org/2000/svg">
<path d="M15.5747 9.60964C15.0997 9.48464 14.5414 9.41797 13.8747 9.41797C12.9497 9.41797 12.6081 9.64297 12.1331 10.0013C12.1081 10.018 12.0831 10.043 12.0581 10.068L11.2664 10.9096C10.6081 11.618 9.39975 11.618 8.73308 10.9096L7.94141 10.0763C7.91641 10.043 7.89141 10.018 7.86641 10.0013C7.38307 9.64297 7.04141 9.41797 6.12474 9.41797C5.45807 9.41797 4.89974 9.4763 4.42474 9.60964C2.44141 10.143 2.44141 11.718 2.44141 13.1013V13.8763C2.44141 15.968 2.44141 18.3346 6.89974 18.3346H13.0997C16.0581 18.3346 17.5581 16.8346 17.5581 13.8763V13.1013C17.5581 11.718 17.5581 10.143 15.5747 9.60964Z" fill="white"/>
<path d="M12.3255 1.66797H7.67552C3.99219 1.66797 3.99219 3.6263 3.99219 5.3513V8.43464C4.02552 8.41797 4.06719 8.40964 4.10052 8.4013C4.68385 8.24297 5.34219 8.16797 6.12552 8.16797C7.40885 8.16797 8.01719 8.54297 8.61715 9.0013C8.70049 9.05964 8.78382 9.13464 8.85882 9.21797L9.64215 10.043C9.72549 10.1346 9.85882 10.1846 10.0005 10.1846C10.1422 10.1846 10.2755 10.1346 10.3505 10.0513L11.1505 9.20964C11.2172 9.14297 11.2922 9.06797 11.3755 9.00964C11.9922 8.54297 12.5922 8.16797 13.8755 8.16797C14.6588 8.16797 15.3172 8.24297 15.9005 8.4013C15.9338 8.40964 15.9755 8.41797 16.0088 8.43464V5.3513C16.0088 3.6263 16.0088 1.66797 12.3255 1.66797ZM11.2922 7.08464H8.70882C8.39215 7.08464 8.12552 6.81797 8.12552 6.5013C8.12552 6.1763 8.39215 5.91797 8.70882 5.91797H11.2922C11.6088 5.91797 11.8755 6.1763 11.8755 6.5013C11.8755 6.81797 11.6088 7.08464 11.2922 7.08464ZM11.9422 4.75964H8.05885C7.74219 4.75964 7.48385 4.49297 7.48385 4.1763C7.48385 3.8513 7.74219 3.59297 8.05885 3.59297H11.9422C12.2588 3.59297 12.5172 3.8513 12.5172 4.1763C12.5172 4.49297 12.2588 4.75964 11.9422 4.75964Z" fill="white"/>
</svg>
