<svg width="20" height="20" viewBox="0 0 20 20" fill="none" xmlns="http://www.w3.org/2000/svg">
<path d="M15.5747 9.60964C15.0997 9.48464 14.5414 9.41797 13.8747 9.41797C12.9497 9.41797 12.6081 9.64297 12.1331 10.0013C12.1081 10.018 12.0831 10.043 12.0581 10.068L11.2664 10.9096C10.5997 11.6096 9.39975 11.618 8.73308 10.9013L7.94141 10.068C7.91641 10.043 7.89141 10.018 7.86641 10.0013C7.39141 9.64297 7.04974 9.41797 6.12474 9.41797C5.45807 9.41797 4.89974 9.48464 4.42474 9.60964C2.44141 10.143 2.44141 11.718 2.44141 13.1013V13.8763C2.44141 15.968 2.44141 18.3346 6.89974 18.3346H13.0997C16.0581 18.3346 17.5581 16.8346 17.5581 13.8763V13.1013C17.5581 11.718 17.5581 10.143 15.5747 9.60964ZM11.9414 15.3346H8.05807C7.74141 15.3346 7.48307 15.0763 7.48307 14.7513C7.48307 14.4263 7.74141 14.168 8.05807 14.168H11.9414C12.2581 14.168 12.5164 14.4263 12.5164 14.7513C12.5164 15.0763 12.2581 15.3346 11.9414 15.3346Z" fill="white"/>
<path d="M10.5583 3.58464L11.1 4.1263C11.3167 4.34297 11.675 4.34297 11.8917 4.1263C12.1083 3.90964 12.1083 3.5513 11.8917 3.33464L10.3917 1.83464C10.3417 1.78464 10.275 1.74297 10.2083 1.70964C10.1417 1.68464 10.075 1.66797 10 1.66797C9.92501 1.66797 9.85834 1.68464 9.78334 1.70964C9.71667 1.73464 9.66667 1.7763 9.61667 1.81797C9.60834 1.8263 9.60834 1.8263 9.60001 1.8263L8.1 3.33464C7.88333 3.5513 7.88333 3.90964 8.1 4.1263C8.31667 4.34297 8.67501 4.34297 8.89167 4.1263L9.43334 3.58464V5.0013H10.5583V3.58464Z" fill="white"/>
<path d="M16.0088 8.43333C15.9755 8.41667 15.9338 8.40833 15.9005 8.4H15.8922C15.3005 8.24167 14.6422 8.16667 13.8755 8.16667C12.5922 8.16667 11.9838 8.54167 11.4338 8.95833C11.3172 9.04167 11.2338 9.125 11.1505 9.20833L10.3588 10.05C10.2755 10.1333 10.1422 10.1833 10.0005 10.1833C9.95049 10.1833 9.76715 10.175 9.64215 10.0417L8.82549 9.18333C8.74215 9.09167 8.64215 9.01667 8.61715 9C8.01719 8.54167 7.40885 8.16667 6.12552 8.16667C5.35885 8.16667 4.70052 8.24167 4.10052 8.4C4.06719 8.40833 4.02552 8.41667 3.99219 8.43333C4.00052 6.775 4.16719 5 7.67552 5H9.44215V7.56667C9.44215 7.875 9.69215 8.125 10.0005 8.125C10.3088 8.125 10.5588 7.875 10.5588 7.56667V5H12.3255C15.8338 5 16.0005 6.775 16.0088 8.43333Z" fill="white"/>
</svg>
