<svg width="20" height="20" viewBox="0 0 20 20" fill="none" xmlns="http://www.w3.org/2000/svg">
<path d="M17.7503 10.1914H14.8503C14.0337 10.1914 13.3087 10.6414 12.942 11.3747L12.242 12.7581C12.0753 13.0914 11.742 13.2997 11.3753 13.2997H8.64199C8.38366 13.2997 8.01699 13.2414 7.77533 12.7581L7.07533 11.3831C6.70866 10.6581 5.97533 10.1997 5.16699 10.1997H2.25033C1.92533 10.1997 1.66699 10.4581 1.66699 10.7831V13.4997C1.66699 16.5247 3.48366 18.3331 6.51699 18.3331H13.5003C16.3587 18.3331 18.117 16.7664 18.3337 13.9831V10.7747C18.3337 10.4581 18.0753 10.1914 17.7503 10.1914Z" fill="white"/>
<path d="M13.492 1.66797H6.50866C3.47533 1.66797 1.66699 3.4763 1.66699 6.50964V9.04297C1.85033 8.9763 2.05033 8.94297 2.25033 8.94297H5.16699C6.45866 8.94297 7.61699 9.65964 8.19199 10.818L8.81699 12.043H11.2003L11.8253 10.8096C12.4003 9.65964 13.5587 8.94297 14.8503 8.94297H17.7503C17.9503 8.94297 18.1503 8.9763 18.3337 9.04297V6.50964C18.3337 3.4763 16.5253 1.66797 13.492 1.66797ZM8.70866 4.50964H11.292C11.6087 4.50964 11.8753 4.76797 11.8753 5.08464C11.8753 5.40964 11.6087 5.66797 11.292 5.66797H8.70866C8.39199 5.66797 8.12533 5.40964 8.12533 5.08464C8.12533 4.76797 8.39199 4.50964 8.70866 4.50964ZM11.942 7.99297H8.05866C7.74199 7.99297 7.48366 7.73464 7.48366 7.41797C7.48366 7.09297 7.74199 6.83464 8.05866 6.83464H11.942C12.2587 6.83464 12.517 7.09297 12.517 7.41797C12.517 7.73464 12.2587 7.99297 11.942 7.99297Z" fill="white"/>
</svg>
