<svg width="20" height="20" viewBox="0 0 20 20" fill="none" xmlns="http://www.w3.org/2000/svg">
<path d="M10.0003 1.66797C5.40033 1.66797 1.66699 5.4013 1.66699 10.0013C1.66699 14.6013 5.40033 18.3346 10.0003 18.3346C14.6003 18.3346 18.3337 14.6013 18.3337 10.0013C18.3337 5.4013 14.6003 1.66797 10.0003 1.66797ZM7.50033 6.66797C7.95866 6.66797 8.33366 7.04297 8.33366 7.5013C8.33366 7.95964 7.96699 8.33464 7.50033 8.33464C7.04199 8.33464 6.66699 7.95964 6.66699 7.5013C6.66699 7.04297 7.04199 6.66797 7.50033 6.66797ZM7.94199 12.943C7.81699 13.068 7.65866 13.1263 7.50033 13.1263C7.34199 13.1263 7.18366 13.068 7.05866 12.943C6.81699 12.7013 6.81699 12.3013 7.05866 12.0596L12.0587 7.05964C12.3003 6.81797 12.7003 6.81797 12.942 7.05964C13.1837 7.3013 13.1837 7.7013 12.942 7.94297L7.94199 12.943ZM12.5003 13.3346C12.0337 13.3346 11.6587 12.9596 11.6587 12.5013C11.6587 12.043 12.0337 11.668 12.492 11.668C12.9503 11.668 13.3253 12.043 13.3253 12.5013C13.3253 12.9596 12.9587 13.3346 12.5003 13.3346Z" fill="white"/>
</svg>
