<svg width="20" height="20" viewBox="0 0 20 20" fill="none" xmlns="http://www.w3.org/2000/svg">
<path d="M17.9417 9.05941L16.6751 7.79271C16.4584 7.57604 16.2834 7.15104 16.2834 6.85104V5.05104C16.2834 4.31771 15.6834 3.71771 14.9501 3.71771H13.1584C12.8584 3.71771 12.4334 3.54271 12.2167 3.32604L10.9501 2.05937C10.4334 1.54271 9.58341 1.54271 9.06675 2.05937L7.7834 3.32604C7.57506 3.54271 7.15006 3.71771 6.84173 3.71771H5.05006C4.31673 3.71771 3.71673 4.31771 3.71673 5.05104V6.84271C3.71673 7.14271 3.54173 7.56771 3.32507 7.78438L2.0584 9.05107C1.54173 9.56774 1.54173 10.4177 2.0584 10.9344L3.32507 12.2011C3.54173 12.4177 3.71673 12.8427 3.71673 13.1427V14.9344C3.71673 15.6677 4.31673 16.2677 5.05006 16.2677H6.84173C7.14173 16.2677 7.56673 16.4427 7.7834 16.6594L9.05008 17.9261C9.56675 18.4427 10.4167 18.4427 10.9334 17.9261L12.2001 16.6594C12.4167 16.4427 12.8417 16.2677 13.1417 16.2677H14.9334C15.6667 16.2677 16.2667 15.6677 16.2667 14.9344V13.1427C16.2667 12.8427 16.4417 12.4177 16.6584 12.2011L17.9251 10.9344C18.4667 10.4261 18.4667 9.57607 17.9417 9.05941ZM6.66673 7.50104C6.66673 7.04271 7.04173 6.66771 7.50006 6.66771C7.9584 6.66771 8.3334 7.04271 8.3334 7.50104C8.3334 7.95938 7.96673 8.33441 7.50006 8.33441C7.04173 8.33441 6.66673 7.95938 6.66673 7.50104ZM7.94173 12.9427C7.81673 13.0677 7.6584 13.1261 7.50006 13.1261C7.34173 13.1261 7.1834 13.0677 7.0584 12.9427C6.81673 12.7011 6.81673 12.3011 7.0584 12.0594L12.0584 7.05937C12.3001 6.81771 12.7001 6.81771 12.9417 7.05937C13.1834 7.30104 13.1834 7.70104 12.9417 7.94271L7.94173 12.9427ZM12.5001 13.3344C12.0334 13.3344 11.6584 12.9594 11.6584 12.5011C11.6584 12.0427 12.0334 11.6677 12.4917 11.6677C12.9501 11.6677 13.3251 12.0427 13.3251 12.5011C13.3251 12.9594 12.9584 13.3344 12.5001 13.3344Z" fill="white"/>
</svg>
