<svg width="20" height="20" viewBox="0 0 20 20" fill="none" xmlns="http://www.w3.org/2000/svg">
<path d="M17.4831 2.51932C16.7581 1.79432 15.7331 1.51098 14.7414 1.76098L6.57472 3.80265C5.19972 4.14432 4.14139 5.21098 3.79972 6.57765L1.75805 14.7526C1.50805 15.7443 1.79139 16.7693 2.51639 17.4943C3.06639 18.036 3.79139 18.3359 4.54139 18.3359C4.77472 18.3359 5.01639 18.3109 5.24972 18.2443L13.4248 16.2026C14.7914 15.8609 15.8581 14.8026 16.1998 13.4276L18.2414 5.25265C18.4914 4.26098 18.2081 3.23598 17.4831 2.51932ZM9.99975 13.2359C8.21639 13.2359 6.76639 11.7859 6.76639 10.0026C6.76639 8.21932 8.21639 6.76932 9.99975 6.76932C11.7831 6.76932 13.2331 8.21932 13.2331 10.0026C13.2331 11.7859 11.7831 13.2359 9.99975 13.2359Z" fill="white"/>
</svg>
