<svg width="20" height="20" viewBox="0 0 20 20" fill="none" xmlns="http://www.w3.org/2000/svg">
<path d="M13.0082 4.58229V13.0489C13.0082 13.3823 12.9082 13.7073 12.7248 13.9823L10.4498 17.3656C10.0915 17.9073 9.19983 18.2906 8.4415 18.0073C7.62485 17.7323 7.08318 16.8156 7.25818 15.9989L7.69152 13.2739C7.72485 13.0239 7.65818 12.7989 7.51652 12.6239C7.37485 12.4656 7.16652 12.3656 6.94152 12.3656H3.51652C2.85818 12.3656 2.29152 12.0989 1.95818 11.6323C1.64152 11.1823 1.58318 10.5989 1.79152 10.0073L3.84152 3.76562C4.09985 2.73229 5.22485 1.89062 6.34152 1.89062H9.5915C10.1498 1.89062 10.9332 2.08229 11.2915 2.44062L12.3582 3.26562C12.7665 3.58229 13.0082 4.06562 13.0082 4.58229Z" fill="white"/>
<path d="M15.6585 14.6737H16.5168C17.8085 14.6737 18.3335 14.1737 18.3335 12.9404V4.56536C18.3335 3.33203 17.8085 2.83203 16.5168 2.83203H15.6585C14.3668 2.83203 13.8418 3.33203 13.8418 4.56536V12.9487C13.8418 14.1737 14.3668 14.6737 15.6585 14.6737Z" fill="white"/>
</svg>
