<svg width="20" height="20" viewBox="0 0 20 20" fill="none" xmlns="http://www.w3.org/2000/svg">
<path d="M12.917 10.957H11.1087C9.62533 10.957 8.41699 9.75703 8.41699 8.26536V6.45703C8.41699 6.11536 8.14199 5.83203 7.79199 5.83203H5.15033C3.22533 5.83203 1.66699 7.08203 1.66699 9.31536V14.8487C1.66699 17.082 3.22533 18.332 5.15033 18.332H10.0587C11.9837 18.332 13.542 17.082 13.542 14.8487V11.582C13.542 11.232 13.2587 10.957 12.917 10.957Z" fill="white"/>
<path d="M14.8502 1.66797H13.2085H12.3002H9.94182C8.05846 1.66797 6.53346 2.86797 6.4668 5.00964C6.5168 5.00964 6.55846 5.0013 6.60846 5.0013H8.96682H9.87516H11.5168C13.4418 5.0013 15.0002 6.2513 15.0002 8.48464V10.1263V12.3846V14.0263C15.0002 14.0763 14.9918 14.118 14.9918 14.1596C16.8502 14.1013 18.3335 12.868 18.3335 10.693V9.0513V6.79297V5.1513C18.3335 2.91797 16.7752 1.66797 14.8502 1.66797Z" fill="white"/>
<path d="M9.9832 5.9591C9.72487 5.70077 9.2832 5.87577 9.2832 6.2341V8.41748C9.2832 9.33414 10.0582 10.0841 11.0082 10.0841C11.5999 10.0925 12.4249 10.0925 13.1332 10.0925C13.4915 10.0925 13.6749 9.67581 13.4249 9.42581C12.5165 8.51748 10.8999 6.89244 9.9832 5.9591Z" fill="white"/>
</svg>
