<svg width="20" height="20" viewBox="0 0 20 20" fill="none" xmlns="http://www.w3.org/2000/svg">
<path d="M17.083 8.49297H14.6747C12.6997 8.49297 11.0913 6.88464 11.0913 4.90964V2.5013C11.0913 2.04297 10.7163 1.66797 10.258 1.66797H6.72467C4.15801 1.66797 2.08301 3.33464 2.08301 6.30964V13.693C2.08301 16.668 4.15801 18.3346 6.72467 18.3346H13.2747C15.8413 18.3346 17.9163 16.668 17.9163 13.693V9.3263C17.9163 8.86797 17.5413 8.49297 17.083 8.49297ZM10.333 12.9846L8.78301 14.5346C8.59134 14.7263 8.32467 14.8346 8.04134 14.8346C7.75801 14.8346 7.49967 14.7263 7.29967 14.5346L5.74967 12.9846C5.40801 12.643 5.34967 12.068 5.62467 11.668L6.33301 10.6013C6.50801 10.3263 6.87467 10.1346 7.19967 10.1346H8.87467C9.19967 10.1346 9.55801 10.3263 9.74134 10.6013L10.458 11.668C10.7163 12.068 10.6663 12.643 10.333 12.9846Z" fill="white"/>
<path d="M14.5251 7.34207C15.3167 7.3504 16.4167 7.3504 17.3584 7.3504C17.8334 7.3504 18.0834 6.79207 17.7501 6.45873C16.5501 5.2504 14.4001 3.0754 13.1667 1.84207C12.8251 1.5004 12.2334 1.73373 12.2334 2.20873V5.11707C12.2334 6.33373 13.2667 7.34207 14.5251 7.34207Z" fill="white"/>
</svg>
