<svg width="20" height="20" viewBox="0 0 20 20" fill="none" xmlns="http://www.w3.org/2000/svg">
<path d="M17.2588 6.76689V14.6086C17.2588 16.6586 15.5838 18.3336 13.5338 18.3336H6.46719C4.41719 18.3336 2.74219 16.6586 2.74219 14.6086V6.76689C2.74219 5.34189 3.54219 4.10023 4.71719 3.47523C5.12552 3.25856 5.63385 3.55023 5.63385 4.01689C5.63385 5.34189 6.71719 6.42523 8.04219 6.42523H11.9588C13.2838 6.42523 14.3672 5.34189 14.3672 4.01689C14.3672 3.55023 14.8672 3.25856 15.2838 3.47523C16.4588 4.10023 17.2588 5.34189 17.2588 6.76689Z" fill="white"/>
<path d="M11.9585 1.66797H8.0418C7.17513 1.66797 6.4668 2.36797 6.4668 3.23464V4.01797C6.4668 4.88464 7.1668 5.58464 8.03346 5.58464H11.9585C12.8252 5.58464 13.5252 4.88464 13.5252 4.01797V3.23464C13.5335 2.36797 12.8252 1.66797 11.9585 1.66797Z" fill="white"/>
</svg>
