<svg width="20" height="20" viewBox="0 0 20 20" fill="none" xmlns="http://www.w3.org/2000/svg">
<path d="M2.69199 0.832031H9.46699C10.0337 0.832031 10.492 1.2987 10.492 1.8737V3.01536C10.492 3.43203 10.2337 3.9487 9.97533 4.20703L7.77533 6.19036C7.46699 6.4487 7.26699 6.96536 7.26699 7.38203V9.61536C7.26699 9.9237 7.05866 10.3404 6.80866 10.4987L6.08366 10.9737C5.41699 11.3904 4.49199 10.9237 4.49199 10.0904V7.33203C4.49199 6.96536 4.28366 6.4987 4.08366 6.24036L2.13366 4.15703C1.87533 3.8987 1.66699 3.43203 1.66699 3.1237V1.9237C1.66699 1.2987 2.12533 0.832031 2.69199 0.832031Z" fill="white"/>
<path d="M14.167 1.66797H12.167C11.9337 1.66797 11.7503 1.8513 11.7503 2.08464C11.7503 2.48464 11.7503 3.01797 11.7503 3.01797C11.7503 3.84297 11.3087 4.6513 10.8753 5.09297L8.60866 7.11797C8.58366 7.1763 8.54199 7.25964 8.51699 7.3263V9.61797C8.51699 10.3763 8.06699 11.2013 7.45033 11.5763L6.76699 12.018C6.38366 12.2596 5.95866 12.3763 5.53366 12.3763C5.15033 12.3763 4.76699 12.2763 4.41699 12.0846C3.98578 11.8458 3.66018 11.4855 3.46124 11.0626C3.3596 10.8466 3.33366 10.6051 3.33366 10.3663V8.50964C3.33366 8.4013 3.29199 8.29297 3.20866 8.21797L2.37533 7.38463C2.11699 7.11797 1.66699 7.3013 1.66699 7.6763V14.168C1.66699 16.468 3.53366 18.3346 5.83366 18.3346H14.167C16.467 18.3346 18.3337 16.468 18.3337 14.168V5.83464C18.3337 3.53464 16.467 1.66797 14.167 1.66797ZM15.0003 14.793H9.16699C8.82533 14.793 8.54199 14.5096 8.54199 14.168C8.54199 13.8263 8.82533 13.543 9.16699 13.543H15.0003C15.342 13.543 15.6253 13.8263 15.6253 14.168C15.6253 14.5096 15.342 14.793 15.0003 14.793ZM15.0003 11.4596H10.8337C10.492 11.4596 10.2087 11.1763 10.2087 10.8346C10.2087 10.493 10.492 10.2096 10.8337 10.2096H15.0003C15.342 10.2096 15.6253 10.493 15.6253 10.8346C15.6253 11.1763 15.342 11.4596 15.0003 11.4596Z" fill="white"/>
</svg>
