<svg width="20" height="20" viewBox="0 0 20 20" fill="none" xmlns="http://www.w3.org/2000/svg">
<path d="M13.1667 1.84207C12.8251 1.5004 12.2334 1.73373 12.2334 2.20873V5.11707C12.2334 6.33373 13.2667 7.34207 14.5251 7.34207C15.3167 7.3504 16.4167 7.3504 17.3584 7.3504C17.8334 7.3504 18.0834 6.79207 17.7501 6.45873C16.5501 5.2504 14.4001 3.0754 13.1667 1.84207Z" fill="white"/>
<path d="M12.2998 16.0502C10.3415 16.1918 10.3415 19.0252 12.2998 19.1668H16.9331C17.4915 19.1668 18.0415 18.9585 18.4498 18.5835C19.8248 17.3835 19.0915 14.9835 17.2831 14.7585C16.6331 10.8502 10.9831 12.3335 12.3165 16.0585" fill="white"/>
<path d="M17.9163 9.3263V12.0346C17.9163 12.2846 17.5497 12.4013 17.3663 12.2263C16.9663 11.8346 16.4747 11.5346 15.908 11.3596C14.508 10.9263 12.883 11.3513 11.8747 12.418C11.1997 13.118 10.858 14.0096 10.8663 14.9763C10.8663 15.1346 10.7913 15.2763 10.6663 15.368C9.99967 15.8763 9.58301 16.6763 9.58301 17.6013C9.58301 17.668 9.58301 17.7346 9.59134 17.8013C9.60801 18.068 9.41634 18.3263 9.14134 18.3263H6.72467C4.15801 18.3263 2.08301 16.6596 2.08301 13.6846V6.30964C2.08301 3.33464 4.15801 1.66797 6.72467 1.66797H10.258C10.7163 1.66797 11.0913 2.04297 11.0913 2.5013V4.90964C11.0913 6.89297 12.6913 8.49297 14.6747 8.49297H17.083C17.5413 8.49297 17.9163 8.86797 17.9163 9.3263Z" fill="white"/>
</svg>
