<svg width="20" height="20" viewBox="0 0 20 20" fill="none" xmlns="http://www.w3.org/2000/svg">
<path d="M17.083 8.49297H14.6747C12.6997 8.49297 11.0913 6.88464 11.0913 4.90964V2.5013C11.0913 2.04297 10.7163 1.66797 10.258 1.66797H6.72467C4.15801 1.66797 2.08301 3.33464 2.08301 6.30964V13.693C2.08301 16.668 4.15801 18.3346 6.72467 18.3346H13.2747C15.8413 18.3346 17.9163 16.668 17.9163 13.693V9.3263C17.9163 8.86797 17.5413 8.49297 17.083 8.49297ZM10.3997 13.0846C9.96634 14.4763 8.44134 15.2263 7.91634 15.2263C7.38301 15.2263 5.89134 14.5013 5.43301 13.0846C5.13301 12.1596 5.47467 10.9513 6.53301 10.6096C7.01634 10.4513 7.53301 10.543 7.90801 10.8346C8.28301 10.543 8.79967 10.4513 9.29134 10.6096C10.358 10.9513 10.6913 12.1596 10.3997 13.0846Z" fill="white"/>
<path d="M14.5251 7.34207C15.3167 7.3504 16.4167 7.3504 17.3584 7.3504C17.8334 7.3504 18.0834 6.79207 17.7501 6.45873C16.5501 5.2504 14.4001 3.0754 13.1667 1.84207C12.8251 1.5004 12.2334 1.73373 12.2334 2.20873V5.11707C12.2334 6.33373 13.2667 7.34207 14.5251 7.34207Z" fill="white"/>
</svg>
