<svg width="20" height="20" viewBox="0 0 20 20" fill="none" xmlns="http://www.w3.org/2000/svg">
<path d="M17.083 8.49297H14.6747C12.6997 8.49297 11.0913 6.88464 11.0913 4.90964V2.5013C11.0913 2.04297 10.7163 1.66797 10.258 1.66797H6.72467C4.15801 1.66797 2.08301 3.33464 2.08301 6.30964V13.693C2.08301 16.668 4.15801 18.3346 6.72467 18.3346H13.2747C15.8413 18.3346 17.9163 16.668 17.9163 13.693V9.3263C17.9163 8.86797 17.5413 8.49297 17.083 8.49297ZM10.233 13.1513L8.56634 14.818C8.50801 14.8763 8.43301 14.9263 8.35801 14.9513C8.28301 14.9846 8.20801 15.0013 8.12467 15.0013C8.04134 15.0013 7.96634 14.9846 7.89134 14.9513C7.82467 14.9263 7.75801 14.8763 7.70801 14.8263C7.69967 14.818 7.69134 14.818 7.69134 14.8096L6.02467 13.143C5.78301 12.9013 5.78301 12.5013 6.02467 12.2596C6.26634 12.018 6.66634 12.018 6.90801 12.2596L7.49967 12.868V9.3763C7.49967 9.03464 7.78301 8.7513 8.12467 8.7513C8.46634 8.7513 8.74967 9.03464 8.74967 9.3763V12.868L9.34967 12.268C9.59134 12.0263 9.99134 12.0263 10.233 12.268C10.4747 12.5096 10.4747 12.9096 10.233 13.1513Z" fill="white"/>
<path d="M14.5251 7.34207C15.3167 7.3504 16.4167 7.3504 17.3584 7.3504C17.8334 7.3504 18.0834 6.79207 17.7501 6.45873C16.5501 5.2504 14.4001 3.0754 13.1667 1.84207C12.8251 1.5004 12.2334 1.73373 12.2334 2.20873V5.11707C12.2334 6.33373 13.2667 7.34207 14.5251 7.34207Z" fill="white"/>
</svg>
