<svg width="20" height="20" viewBox="0 0 20 20" fill="none" xmlns="http://www.w3.org/2000/svg">
<path d="M13.1667 1.84207C12.8251 1.5004 12.2334 1.73373 12.2334 2.20873V5.11707C12.2334 6.33373 13.2667 7.34207 14.5251 7.34207C15.3167 7.3504 16.4167 7.3504 17.3584 7.3504C17.8334 7.3504 18.0834 6.79207 17.7501 6.45873C16.5501 5.2504 14.4001 3.0754 13.1667 1.84207Z" fill="white"/>
<path d="M17.083 8.49297H14.6747C12.6997 8.49297 11.0913 6.88464 11.0913 4.90964V2.5013C11.0913 2.04297 10.7163 1.66797 10.258 1.66797H6.72467C4.15801 1.66797 2.08301 3.33464 2.08301 6.30964V13.693C2.08301 16.668 4.15801 18.3346 6.72467 18.3346H13.2747C15.8413 18.3346 17.9163 16.668 17.9163 13.693V9.3263C17.9163 8.86797 17.5413 8.49297 17.083 8.49297ZM10.833 13.1263H7.34134L7.94134 13.7263C8.18301 13.968 8.18301 14.368 7.94134 14.6096C7.81634 14.7346 7.65801 14.793 7.49967 14.793C7.34134 14.793 7.18301 14.7346 7.05801 14.6096L5.39134 12.943C5.33301 12.8846 5.29967 12.8263 5.26634 12.7596C5.25801 12.743 5.24967 12.718 5.24134 12.7013C5.22467 12.6513 5.21634 12.6013 5.20801 12.5513C5.20801 12.5263 5.20801 12.5096 5.20801 12.4846C5.20801 12.418 5.22467 12.3513 5.24967 12.2846C5.24967 12.2763 5.24967 12.2763 5.25801 12.268C5.28301 12.2013 5.33301 12.1346 5.38301 12.0846C5.39134 12.0763 5.39134 12.068 5.39967 12.068L7.06634 10.4013C7.30801 10.1596 7.70801 10.1596 7.94967 10.4013C8.19134 10.643 8.19134 11.043 7.94967 11.2846L7.34967 11.8846H10.833C11.1747 11.8846 11.458 12.168 11.458 12.5096C11.458 12.8513 11.1747 13.1263 10.833 13.1263Z" fill="white"/>
</svg>
