<svg width="20" height="20" viewBox="0 0 20 20" fill="none" xmlns="http://www.w3.org/2000/svg">
<path d="M13.3333 1.66797H6.66667C3.75 1.66797 2.5 3.33464 2.5 5.83464V14.168C2.5 16.668 3.75 18.3346 6.66667 18.3346H13.3333C16.25 18.3346 17.5 16.668 17.5 14.168V5.83464C17.5 3.33464 16.25 1.66797 13.3333 1.66797ZM8.775 13.7263C9.01667 13.968 9.01667 14.368 8.775 14.6096C8.65 14.7346 8.49167 14.793 8.33333 14.793C8.175 14.793 8.01667 14.7346 7.89167 14.6096L6.225 12.943C5.98333 12.7013 5.98333 12.3013 6.225 12.0596L7.89167 10.393C8.13333 10.1513 8.53333 10.1513 8.775 10.393C9.01667 10.6346 9.01667 11.0346 8.775 11.2763L7.55 12.5013L8.775 13.7263ZM13.775 12.943L12.1083 14.6096C11.9833 14.7346 11.825 14.793 11.6667 14.793C11.5083 14.793 11.35 14.7346 11.225 14.6096C10.9833 14.368 10.9833 13.968 11.225 13.7263L12.45 12.5013L11.225 11.2763C10.9833 11.0346 10.9833 10.6346 11.225 10.393C11.4667 10.1513 11.8667 10.1513 12.1083 10.393L13.775 12.0596C14.0167 12.3013 14.0167 12.7013 13.775 12.943ZM15.4167 7.70964H13.75C12.4833 7.70964 11.4583 6.68464 11.4583 5.41797V3.7513C11.4583 3.40964 11.7417 3.1263 12.0833 3.1263C12.425 3.1263 12.7083 3.40964 12.7083 3.7513V5.41797C12.7083 5.99297 13.175 6.45964 13.75 6.45964H15.4167C15.7583 6.45964 16.0417 6.74297 16.0417 7.08464C16.0417 7.4263 15.7583 7.70964 15.4167 7.70964Z" fill="white"/>
</svg>
