<svg width="20" height="20" viewBox="0 0 20 20" fill="none" xmlns="http://www.w3.org/2000/svg">
<path d="M17.083 8.49297H14.6747C12.6997 8.49297 11.0913 6.88464 11.0913 4.90964V2.5013C11.0913 2.04297 10.7163 1.66797 10.258 1.66797H6.72467C4.15801 1.66797 2.08301 3.33464 2.08301 6.30964V13.693C2.08301 16.668 4.15801 18.3346 6.72467 18.3346H13.2747C15.8413 18.3346 17.9163 16.668 17.9163 13.693V9.3263C17.9163 8.86797 17.5413 8.49297 17.083 8.49297ZM9.60801 11.2763C9.48301 11.4013 9.32467 11.4596 9.16634 11.4596C9.00801 11.4596 8.84967 11.4013 8.72467 11.2763L8.12467 10.6763V14.168C8.12467 14.5096 7.84134 14.793 7.49967 14.793C7.15801 14.793 6.87467 14.5096 6.87467 14.168V10.6763L6.27467 11.2763C6.03301 11.518 5.63301 11.518 5.39134 11.2763C5.14967 11.0346 5.14967 10.6346 5.39134 10.393L7.05801 8.7263C7.11634 8.6763 7.17467 8.63463 7.24134 8.6013C7.25801 8.59297 7.28301 8.58464 7.29967 8.5763C7.34967 8.55964 7.39967 8.5513 7.45801 8.54297C7.48301 8.54297 7.49967 8.54297 7.52467 8.54297C7.59134 8.54297 7.65801 8.55964 7.72467 8.58464C7.73301 8.58464 7.73301 8.58464 7.74134 8.58464C7.80801 8.60964 7.87467 8.65964 7.92467 8.70964C7.93301 8.71797 7.94134 8.71797 7.94134 8.7263L9.60801 10.393C9.84967 10.6346 9.84967 11.0346 9.60801 11.2763Z" fill="white"/>
<path d="M14.5251 7.34207C15.3167 7.3504 16.4167 7.3504 17.3584 7.3504C17.8334 7.3504 18.0834 6.79207 17.7501 6.45873C16.5501 5.2504 14.4001 3.0754 13.1667 1.84207C12.8251 1.5004 12.2334 1.73373 12.2334 2.20873V5.11707C12.2334 6.33373 13.2667 7.34207 14.5251 7.34207Z" fill="white"/>
</svg>
