<svg width="20" height="20" viewBox="0 0 20 20" fill="none" xmlns="http://www.w3.org/2000/svg">
<path d="M13.3333 1.66797H6.66667C3.75 1.66797 2.5 3.33464 2.5 5.83464V14.168C2.5 16.668 3.75 18.3346 6.66667 18.3346H13.3333C16.25 18.3346 17.5 16.668 17.5 14.168V5.83464C17.5 3.33464 16.25 1.66797 13.3333 1.66797ZM6.66667 10.2096H10C10.3417 10.2096 10.625 10.493 10.625 10.8346C10.625 11.1763 10.3417 11.4596 10 11.4596H6.66667C6.325 11.4596 6.04167 11.1763 6.04167 10.8346C6.04167 10.493 6.325 10.2096 6.66667 10.2096ZM13.3333 14.793H6.66667C6.325 14.793 6.04167 14.5096 6.04167 14.168C6.04167 13.8263 6.325 13.543 6.66667 13.543H13.3333C13.675 13.543 13.9583 13.8263 13.9583 14.168C13.9583 14.5096 13.675 14.793 13.3333 14.793ZM15.4167 7.70964H13.75C12.4833 7.70964 11.4583 6.68464 11.4583 5.41797V3.7513C11.4583 3.40964 11.7417 3.1263 12.0833 3.1263C12.425 3.1263 12.7083 3.40964 12.7083 3.7513V5.41797C12.7083 5.99297 13.175 6.45964 13.75 6.45964H15.4167C15.7583 6.45964 16.0417 6.74297 16.0417 7.08464C16.0417 7.4263 15.7583 7.70964 15.4167 7.70964Z" fill="white"/>
</svg>
