<svg width="20" height="20" viewBox="0 0 20 20" fill="none" xmlns="http://www.w3.org/2000/svg">
<path d="M17.083 8.49297H14.6747C12.6997 8.49297 11.0913 6.88464 11.0913 4.90964V2.5013C11.0913 2.04297 10.7163 1.66797 10.258 1.66797H6.72467C4.15801 1.66797 2.08301 3.33464 2.08301 6.30964V13.693C2.08301 16.668 4.15801 18.3346 6.72467 18.3346H13.2747C15.8413 18.3346 17.9163 16.668 17.9163 13.693V9.3263C17.9163 8.86797 17.5413 8.49297 17.083 8.49297ZM11.458 12.4513C11.458 12.493 11.458 12.543 11.458 12.5846C11.4413 12.7013 11.3913 12.8096 11.308 12.9096C11.2997 12.918 11.283 12.9346 11.2747 12.943L9.60801 14.6096C9.48301 14.7346 9.32467 14.793 9.16634 14.793C9.00801 14.793 8.84967 14.7346 8.72467 14.6096C8.48301 14.368 8.48301 13.968 8.72467 13.7263L9.32467 13.1263H5.83301C5.49134 13.1263 5.20801 12.843 5.20801 12.5013C5.20801 12.1596 5.49134 11.8763 5.83301 11.8763H9.32467L8.72467 11.2763C8.59967 11.1513 8.54134 10.993 8.54134 10.8346C8.54134 10.6763 8.59967 10.518 8.72467 10.393C8.96634 10.1513 9.36634 10.1513 9.60801 10.393L11.2747 12.0596C11.383 12.1763 11.4413 12.3096 11.458 12.4513Z" fill="white"/>
<path d="M14.5251 7.34207C15.3167 7.3504 16.4167 7.3504 17.3584 7.3504C17.8334 7.3504 18.0834 6.79207 17.7501 6.45873C16.5501 5.2504 14.4001 3.0754 13.1667 1.84207C12.8251 1.5004 12.2334 1.73373 12.2334 2.20873V5.11707C12.2334 6.33373 13.2667 7.34207 14.5251 7.34207Z" fill="white"/>
</svg>
