<svg width="20" height="20" viewBox="0 0 20 20" fill="none" xmlns="http://www.w3.org/2000/svg">
<path d="M13.3333 1.66797H6.66667C3.75 1.66797 2.5 3.33464 2.5 5.83464V14.168C2.5 16.668 3.75 18.3346 6.66667 18.3346H13.3333C16.25 18.3346 17.5 16.668 17.5 14.168V5.83464C17.5 3.33464 16.25 1.66797 13.3333 1.66797ZM10.8917 12.9096C10.4667 14.268 8.975 14.9763 8.55833 14.9763C8.15 14.968 6.675 14.2763 6.23333 12.9096C5.95833 12.0513 6.28333 10.993 7.175 10.7013C7.65 10.5513 8.23333 10.6763 8.55833 11.1346C8.86667 10.6596 9.475 10.5513 9.94167 10.7013C10.8417 10.993 11.1583 12.0513 10.8917 12.9096ZM15.4167 7.70964H13.75C12.4833 7.70964 11.4583 6.68464 11.4583 5.41797V3.7513C11.4583 3.40964 11.7417 3.1263 12.0833 3.1263C12.425 3.1263 12.7083 3.40964 12.7083 3.7513V5.41797C12.7083 5.99297 13.175 6.45964 13.75 6.45964H15.4167C15.7583 6.45964 16.0417 6.74297 16.0417 7.08464C16.0417 7.4263 15.7583 7.70964 15.4167 7.70964Z" fill="white"/>
</svg>
