<svg width="20" height="20" viewBox="0 0 20 20" fill="none" xmlns="http://www.w3.org/2000/svg">
<path d="M13.3333 1.66797H6.66667C3.75 1.66797 2.5 3.33464 2.5 5.83464V9.55964C2.5 9.8513 2.78333 10.0513 3.05 9.9513C3.96667 9.59297 5.00833 9.4763 6.08333 9.69297C8.25 10.1263 9.975 11.9096 10.3333 14.0846C10.55 15.4096 10.2833 16.668 9.675 17.7096C9.50833 17.9846 9.70833 18.3346 10.0333 18.3346H13.3333C16.25 18.3346 17.5 16.668 17.5 14.168V5.83464C17.5 3.33464 16.25 1.66797 13.3333 1.66797ZM15.4167 7.70964H13.75C12.4833 7.70964 11.4583 6.68464 11.4583 5.41797V3.7513C11.4583 3.40964 11.7417 3.1263 12.0833 3.1263C12.425 3.1263 12.7083 3.40964 12.7083 3.7513V5.41797C12.7083 5.99297 13.175 6.45964 13.75 6.45964H15.4167C15.7583 6.45964 16.0417 6.74297 16.0417 7.08464C16.0417 7.4263 15.7583 7.70964 15.4167 7.70964Z" fill="white"/>
<path d="M4.99967 10.832C2.69967 10.832 0.833008 12.6987 0.833008 14.9987C0.833008 17.2987 2.69967 19.1654 4.99967 19.1654C7.29967 19.1654 9.16634 17.2987 9.16634 14.9987C9.16634 12.6987 7.29967 10.832 4.99967 10.832ZM4.29967 16.057C4.50801 16.2654 4.50801 16.607 4.29967 16.8237C4.19134 16.932 4.05801 16.982 3.91634 16.982C3.77467 16.982 3.64134 16.932 3.53301 16.8237L2.09134 15.382C1.88301 15.1737 1.88301 14.832 2.09134 14.6154L3.53301 13.1737C3.74134 12.9654 4.08301 12.9654 4.29967 13.1737C4.50801 13.382 4.50801 13.7237 4.29967 13.9404L3.24134 14.9987L4.29967 16.057ZM7.89967 15.382L6.45801 16.8237C6.34967 16.932 6.21634 16.982 6.07467 16.982C5.93301 16.982 5.79967 16.932 5.69134 16.8237C5.48301 16.6154 5.48301 16.2737 5.69134 16.057L6.75801 14.9987L5.69967 13.9404C5.49134 13.732 5.49134 13.3904 5.69967 13.1737C5.90801 12.9654 6.24967 12.9654 6.46634 13.1737L7.90801 14.6154C8.10801 14.832 8.10801 15.1654 7.89967 15.382Z" fill="white"/>
</svg>
