<svg width="20" height="20" viewBox="0 0 20 20" fill="none" xmlns="http://www.w3.org/2000/svg">
<path d="M10.625 13.2656H11.1667C11.7083 13.2656 12.1583 12.7823 12.1583 12.199C12.1583 11.474 11.9 11.3323 11.475 11.1823L10.6333 10.8906V13.2656H10.625Z" fill="white"/>
<path d="M9.97541 1.58205C5.37538 1.59871 1.65038 5.34038 1.66705 9.94037C1.68371 14.5404 5.42538 18.2654 10.0254 18.2487C14.6254 18.232 18.3504 14.4904 18.3337 9.89037C18.3171 5.29038 14.5754 1.57371 9.97541 1.58205ZM11.8837 9.9987C12.5337 10.2237 13.4087 10.707 13.4087 12.1987C13.4087 13.482 12.4004 14.5154 11.1671 14.5154H10.6254V14.9987C10.6254 15.3404 10.3421 15.6237 10.0004 15.6237C9.65874 15.6237 9.37541 15.3404 9.37541 14.9987V14.5154H9.07541C7.70871 14.5154 6.60038 13.3654 6.60038 11.9487C6.60038 11.607 6.88371 11.3237 7.22538 11.3237C7.56705 11.3237 7.85038 11.607 7.85038 11.9487C7.85038 12.6737 8.40041 13.2654 9.07541 13.2654H9.37541V10.4487L8.11705 9.9987C7.46705 9.7737 6.59205 9.29037 6.59205 7.79871C6.59205 6.51538 7.60038 5.48205 8.83374 5.48205H9.37541V4.99871C9.37541 4.65705 9.65874 4.37371 10.0004 4.37371C10.3421 4.37371 10.6254 4.65705 10.6254 4.99871V5.48205H10.9254C12.2921 5.48205 13.4004 6.63205 13.4004 8.04871C13.4004 8.39037 13.1171 8.6737 12.7754 8.6737C12.4337 8.6737 12.1504 8.39037 12.1504 8.04871C12.1504 7.32371 11.6004 6.73205 10.9254 6.73205H10.6254V9.5487L11.8837 9.9987Z" fill="white"/>
<path d="M7.84961 7.80937C7.84961 8.53439 8.10794 8.67606 8.53293 8.82606L9.37459 9.11772V6.73438H8.83293C8.29128 6.73438 7.84961 7.21771 7.84961 7.80937Z" fill="white"/>
</svg>
