<svg width="20" height="20" viewBox="0 0 20 20" fill="none" xmlns="http://www.w3.org/2000/svg">
<path d="M9.37459 6.73438V9.11772L8.53293 8.82606C8.10794 8.67606 7.84961 8.53439 7.84961 7.80937C7.84961 7.21771 8.29128 6.73438 8.83293 6.73438H9.37459Z" fill="white"/>
<path d="M12.15 12.1911C12.15 12.7828 11.7083 13.2661 11.1667 13.2661H10.625V10.8828L11.4667 11.1745C11.8917 11.3245 12.15 11.4661 12.15 12.1911Z" fill="white"/>
<path d="M13.492 1.66797H6.50866C3.47533 1.66797 1.66699 3.4763 1.66699 6.50964V13.493C1.66699 16.5263 3.47533 18.3346 6.50866 18.3346H13.492C16.5253 18.3346 18.3337 16.5263 18.3337 13.493V6.50964C18.3337 3.4763 16.5253 1.66797 13.492 1.66797ZM11.8837 10.0013C12.5337 10.2263 13.4003 10.7013 13.4003 12.193C13.4003 13.4763 12.4003 14.518 11.167 14.518H10.6253V15.0013C10.6253 15.343 10.342 15.6263 10.0003 15.6263C9.65866 15.6263 9.37533 15.343 9.37533 15.0013V14.518H9.07533C7.70866 14.518 6.60033 13.3596 6.60033 11.943C6.60033 11.6013 6.87533 11.318 7.22533 11.318C7.56699 11.318 7.85033 11.6013 7.85033 11.943C7.85033 12.6763 8.40033 13.268 9.07533 13.268H9.37533V10.443L8.11699 10.0013C7.46699 9.7763 6.60033 9.3013 6.60033 7.80964C6.60033 6.5263 7.60033 5.48464 8.83366 5.48464H9.37533V5.0013C9.37533 4.65964 9.65866 4.3763 10.0003 4.3763C10.342 4.3763 10.6253 4.65964 10.6253 5.0013V5.48464H10.9253C12.292 5.48464 13.4003 6.64297 13.4003 8.05964C13.4003 8.4013 13.1253 8.68464 12.7753 8.68464C12.4337 8.68464 12.1503 8.4013 12.1503 8.05964C12.1503 7.3263 11.6003 6.73464 10.9253 6.73464H10.6253V9.55964L11.8837 10.0013Z" fill="white"/>
</svg>
