<svg width="20" height="20" viewBox="0 0 20 20" fill="none" xmlns="http://www.w3.org/2000/svg">
<path fill-rule="evenodd" clip-rule="evenodd" d="M13.2337 17.4333C13.2587 17.5667 13.1837 17.7083 13.0587 17.7583C12.1171 18.1333 11.0837 18.3333 10.0171 18.3333C8.1754 18.3333 6.47538 17.7417 5.10038 16.725C4.98371 16.6417 4.95041 16.475 5.02541 16.35C5.48374 15.5333 7.27536 12.9083 11.2337 11.4417C11.3837 11.3833 11.5504 11.4583 11.6004 11.6083C12.5921 14.2667 13.0587 16.5167 13.2337 17.4333Z" fill="white"/>
<path fill-rule="evenodd" clip-rule="evenodd" d="M18.1838 11.5747C17.8004 13.6247 16.6503 15.408 15.042 16.6247C14.867 16.758 14.617 16.658 14.5753 16.4497C14.4003 15.5497 13.9753 13.608 13.1587 11.2997C13.1003 11.1247 13.2171 10.933 13.4004 10.908C15.4754 10.658 17.2921 11.058 17.9754 11.2414C18.1171 11.2914 18.2088 11.433 18.1838 11.5747Z" fill="white"/>
<path fill-rule="evenodd" clip-rule="evenodd" d="M17.9915 9.85018C17.1415 9.70018 14.9749 9.38351 12.7582 9.62518C12.6249 9.64184 12.5082 9.56684 12.4499 9.44184C12.4165 9.36684 12.3915 9.29184 12.3582 9.21684C12.2249 8.90851 12.0832 8.59184 11.9415 8.28353C11.8665 8.13353 11.9415 7.95019 12.0915 7.88353C14.4249 6.87519 15.7249 5.57519 16.2332 4.99186C16.3582 4.85019 16.5749 4.85854 16.6915 5.00854C17.6499 6.28354 18.2415 7.84186 18.3332 9.52518C18.3415 9.73351 18.1749 9.88351 17.9915 9.85018Z" fill="white"/>
<path fill-rule="evenodd" clip-rule="evenodd" d="M15.3667 3.99244C14.9333 4.51744 13.7167 5.76742 11.4083 6.68409C11.275 6.74243 11.1167 6.68409 11.0417 6.55076C9.975 4.61742 8.84158 2.99243 8.31661 2.2591C8.19161 2.0841 8.29164 1.83411 8.5 1.80077C8.98333 1.71744 9.49166 1.67578 10.0083 1.67578C12.025 1.67578 13.8833 2.39243 15.325 3.59243C15.45 3.6841 15.4667 3.86744 15.3667 3.99244Z" fill="white"/>
<path fill-rule="evenodd" clip-rule="evenodd" d="M9.183 7.36749C6.02465 8.15915 3.23294 8.2675 2.21628 8.28416C2.02461 8.28416 1.88298 8.10083 1.93298 7.9175C2.53298 5.58416 4.13296 3.63416 6.24129 2.55916C6.36629 2.4925 6.52463 2.53415 6.60796 2.65082C7.04129 3.25082 8.21629 4.9425 9.36625 6.93416C9.45792 7.10083 9.37467 7.31749 9.183 7.36749Z" fill="white"/>
<path fill-rule="evenodd" clip-rule="evenodd" d="M10.7664 9.66683C10.8414 9.82516 10.7498 10.0168 10.5832 10.0752C6.89147 11.2668 4.68313 14.2252 4.01646 15.2418C3.90813 15.4085 3.6748 15.4168 3.5498 15.2668C2.38314 13.8335 1.6748 12.1918 1.6748 10.2002V10.0502C1.6748 9.88349 1.80812 9.75016 1.97479 9.75849C3.02479 9.80016 6.4498 9.65849 10.0082 8.63349C10.1415 8.59183 10.2914 8.65849 10.3497 8.78349C10.4914 9.07516 10.6331 9.36683 10.7664 9.66683Z" fill="white"/>
</svg>
