<svg width="20" height="20" viewBox="0 0 20 20" fill="none" xmlns="http://www.w3.org/2000/svg">
<path d="M16.1003 1.66797H3.90033C2.67533 1.66797 1.66699 2.6763 1.66699 3.9013V6.09297C1.66699 7.3263 2.67533 8.33464 3.90033 8.33464H16.092C17.3253 8.33464 18.3337 7.3263 18.3337 6.1013V3.9013C18.3337 2.6763 17.3253 1.66797 16.1003 1.66797ZM5.62533 5.83464C5.62533 6.1763 5.34199 6.45964 5.00033 6.45964C4.65866 6.45964 4.37533 6.1763 4.37533 5.83464V4.16797C4.37533 3.8263 4.65866 3.54297 5.00033 3.54297C5.34199 3.54297 5.62533 3.8263 5.62533 4.16797V5.83464ZM8.95866 5.83464C8.95866 6.1763 8.67533 6.45964 8.33366 6.45964C7.99199 6.45964 7.70866 6.1763 7.70866 5.83464V4.16797C7.70866 3.8263 7.99199 3.54297 8.33366 3.54297C8.67533 3.54297 8.95866 3.8263 8.95866 4.16797V5.83464ZM15.0003 5.6263H11.667C11.3253 5.6263 11.042 5.34297 11.042 5.0013C11.042 4.65964 11.3253 4.3763 11.667 4.3763H15.0003C15.342 4.3763 15.6253 4.65964 15.6253 5.0013C15.6253 5.34297 15.342 5.6263 15.0003 5.6263Z" fill="white"/>
<path d="M16.1003 11.668H3.90033C2.67533 11.668 1.66699 12.6763 1.66699 13.9013V16.093C1.66699 17.3263 2.67533 18.3346 3.90033 18.3346H16.092C17.3253 18.3346 18.3253 17.3263 18.3253 16.1013V13.9096C18.3337 12.6763 17.3253 11.668 16.1003 11.668ZM5.62533 15.8346C5.62533 16.1763 5.34199 16.4596 5.00033 16.4596C4.65866 16.4596 4.37533 16.1763 4.37533 15.8346V14.168C4.37533 13.8263 4.65866 13.543 5.00033 13.543C5.34199 13.543 5.62533 13.8263 5.62533 14.168V15.8346ZM8.95866 15.8346C8.95866 16.1763 8.67533 16.4596 8.33366 16.4596C7.99199 16.4596 7.70866 16.1763 7.70866 15.8346V14.168C7.70866 13.8263 7.99199 13.543 8.33366 13.543C8.67533 13.543 8.95866 13.8263 8.95866 14.168V15.8346ZM15.0003 15.6263H11.667C11.3253 15.6263 11.042 15.343 11.042 15.0013C11.042 14.6596 11.3253 14.3763 11.667 14.3763H15.0003C15.342 14.3763 15.6253 14.6596 15.6253 15.0013C15.6253 15.343 15.342 15.6263 15.0003 15.6263Z" fill="white"/>
</svg>
