<svg width="20" height="20" viewBox="0 0 20 20" fill="none" xmlns="http://www.w3.org/2000/svg">
<path d="M10 15.6263C9.65833 15.6263 9.375 15.343 9.375 15.0013V14.168C9.375 13.8263 9.65833 13.543 10 13.543C10.3417 13.543 10.625 13.8263 10.625 14.168V15.0013C10.625 15.343 10.3417 15.6263 10 15.6263Z" fill="white"/>
<path d="M10 18.9583C9.65833 18.9583 9.375 18.675 9.375 18.3333V17.5C9.375 17.1583 9.65833 16.875 10 16.875C10.3417 16.875 10.625 17.1583 10.625 17.5V18.3333C10.625 18.675 10.3417 18.9583 10 18.9583Z" fill="white"/>
<path d="M1.66675 18.96C1.61675 18.96 1.56675 18.9517 1.51675 18.9434C1.18341 18.86 0.975081 18.5184 1.05841 18.185L1.89175 14.8517C1.97508 14.5184 2.30841 14.31 2.65008 14.3934C2.98341 14.4767 3.19175 14.8184 3.10841 15.1517L2.27508 18.485C2.20008 18.7684 1.95008 18.96 1.66675 18.96Z" fill="white"/>
<path d="M18.1275 18.7535C17.8442 18.7535 17.5942 18.5618 17.5192 18.2785L16.6859 14.9452C16.6025 14.6118 16.8025 14.2702 17.1442 14.1868C17.4775 14.1035 17.8192 14.3035 17.9025 14.6452L18.7359 17.9785C18.8192 18.3118 18.6192 18.6535 18.2775 18.7368C18.2275 18.7452 18.1775 18.7535 18.1275 18.7535Z" fill="white"/>
<path d="M15.9498 4.41536C15.9498 4.66536 15.7415 4.86536 15.4998 4.86536H4.6082C4.3582 4.86536 4.1582 4.65703 4.1582 4.41536C4.1582 4.16536 4.36654 3.96536 4.6082 3.96536H5.22487L5.4582 2.8737C5.67487 1.80703 6.12487 0.832031 7.92487 0.832031H12.1665C13.9665 0.832031 14.4248 1.80703 14.6415 2.86536L14.8748 3.95703H15.4915C15.7415 3.95703 15.9498 4.16536 15.9498 4.41536Z" fill="white"/>
<path d="M16.2081 7.83177C16.1164 6.83177 15.8498 5.77344 13.9081 5.77344H6.19146C4.24979 5.77344 3.99146 6.8401 3.89146 7.83177L3.54979 11.5151C3.50813 11.9734 3.65813 12.4318 3.97479 12.7818C4.29979 13.1318 4.74979 13.3318 5.23313 13.3318H6.36646C7.34979 13.3318 7.53313 12.7734 7.65813 12.3984L7.78313 12.0318C7.92479 11.6151 7.95813 11.5151 8.49976 11.5151H11.5998C12.1414 11.5151 12.1581 11.5734 12.3164 12.0318L12.4414 12.3984C12.5581 12.7734 12.7498 13.3318 13.7248 13.3318H14.8581C15.3331 13.3318 15.7914 13.1318 16.1164 12.7818C16.4331 12.4401 16.5831 11.9734 16.5414 11.5151L16.2081 7.83177ZM8.23313 9.09845H6.42479C6.17479 9.09845 5.97479 8.89011 5.97479 8.64845C5.97479 8.40678 6.18313 8.19844 6.42479 8.19844H8.24146C8.49143 8.19844 8.69143 8.40678 8.69143 8.64845C8.69143 8.89011 8.48309 9.09845 8.23313 9.09845ZM13.6748 9.09845H11.8581C11.6081 9.09845 11.4081 8.89011 11.4081 8.64845C11.4081 8.40678 11.6164 8.19844 11.8581 8.19844H13.6748C13.9248 8.19844 14.1248 8.40678 14.1248 8.64845C14.1248 8.89011 13.9248 9.09845 13.6748 9.09845Z" fill="white"/>
</svg>
