<svg width="20" height="20" viewBox="0 0 20 20" fill="none" xmlns="http://www.w3.org/2000/svg">
<path d="M13.492 1.66797H6.50866C3.83366 1.66797 1.66699 3.83464 1.66699 6.50964V8.54297C1.66699 9.0013 2.04199 9.3763 2.50033 9.3763H17.5003C17.9587 9.3763 18.3337 9.0013 18.3337 8.54297V6.50964C18.3337 3.83464 16.167 1.66797 13.492 1.66797ZM5.62533 6.8763C5.62533 7.21797 5.34199 7.5013 5.00033 7.5013C4.65866 7.5013 4.37533 7.21797 4.37533 6.8763V5.20964C4.37533 4.86797 4.65866 4.58464 5.00033 4.58464C5.34199 4.58464 5.62533 4.86797 5.62533 5.20964V6.8763ZM8.95866 6.8763C8.95866 7.21797 8.67533 7.5013 8.33366 7.5013C7.99199 7.5013 7.70866 7.21797 7.70866 6.8763V5.20964C7.70866 4.86797 7.99199 4.58464 8.33366 4.58464C8.67533 4.58464 8.95866 4.86797 8.95866 5.20964V6.8763ZM15.0003 6.66797H11.667C11.3253 6.66797 11.042 6.38464 11.042 6.04297C11.042 5.7013 11.3253 5.41797 11.667 5.41797H15.0003C15.342 5.41797 15.6253 5.7013 15.6253 6.04297C15.6253 6.38464 15.342 6.66797 15.0003 6.66797Z" fill="white"/>
<path d="M1.66699 13.4917C1.66699 16.1667 3.83366 18.3333 6.50866 18.3333H13.4837C16.167 18.3333 18.3337 16.1667 18.3337 13.4917V11.4583C18.3337 11 17.9587 10.625 17.5003 10.625H2.50033C2.04199 10.625 1.66699 11 1.66699 11.4583V13.4917ZM11.667 13.5417H15.0003C15.342 13.5417 15.6253 13.825 15.6253 14.1667C15.6253 14.5083 15.342 14.7917 15.0003 14.7917H11.667C11.3253 14.7917 11.042 14.5083 11.042 14.1667C11.042 13.825 11.3253 13.5417 11.667 13.5417ZM7.70866 13.3333C7.70866 12.9917 7.99199 12.7083 8.33366 12.7083C8.67533 12.7083 8.95866 12.9917 8.95866 13.3333V15C8.95866 15.3417 8.67533 15.625 8.33366 15.625C7.99199 15.625 7.70866 15.3417 7.70866 15V13.3333ZM4.37533 13.3333C4.37533 12.9917 4.65866 12.7083 5.00033 12.7083C5.34199 12.7083 5.62533 12.9917 5.62533 13.3333V15C5.62533 15.3417 5.34199 15.625 5.00033 15.625C4.65866 15.625 4.37533 15.3417 4.37533 15V13.3333Z" fill="white"/>
</svg>
