<svg width="20" height="20" viewBox="0 0 20 20" fill="none" xmlns="http://www.w3.org/2000/svg">
<path d="M8.27533 10.625H2.50033C2.04199 10.625 1.66699 11 1.66699 11.4583V13.4917C1.66699 16.1667 3.83366 18.3333 6.50866 18.3333H7.92533C8.56699 18.3333 8.95866 17.65 8.65033 17.0833C7.99199 15.8583 7.73366 14.3833 8.05866 12.8333C8.17533 12.2667 8.37533 11.7333 8.64199 11.2333C8.78366 10.9583 8.59199 10.625 8.27533 10.625ZM5.62533 15C5.62533 15.3417 5.34199 15.625 5.00033 15.625C4.65866 15.625 4.37533 15.3417 4.37533 15V13.3333C4.37533 12.9917 4.65866 12.7083 5.00033 12.7083C5.34199 12.7083 5.62533 12.9917 5.62533 13.3333V15Z" fill="white"/>
<path d="M13.492 1.66797H6.50866C3.83366 1.66797 1.66699 3.83464 1.66699 6.50964V8.54297C1.66699 9.0013 2.04199 9.3763 2.50033 9.3763H9.86699C10.0503 9.3763 10.2253 9.30964 10.3753 9.19297C11.092 8.64297 11.9337 8.24297 12.8337 8.05964C14.3837 7.73464 15.8587 7.99297 17.0837 8.6513C17.6503 8.9513 18.3337 8.56797 18.3337 7.9263V6.50964C18.3337 3.83464 16.167 1.66797 13.492 1.66797ZM5.62533 6.8763C5.62533 7.21797 5.34199 7.5013 5.00033 7.5013C4.65866 7.5013 4.37533 7.21797 4.37533 6.8763V5.20964C4.37533 4.86797 4.65866 4.58464 5.00033 4.58464C5.34199 4.58464 5.62533 4.86797 5.62533 5.20964V6.8763ZM8.95866 6.8763C8.95866 7.21797 8.67533 7.5013 8.33366 7.5013C7.99199 7.5013 7.70866 7.21797 7.70866 6.8763V5.20964C7.70866 4.86797 7.99199 4.58464 8.33366 4.58464C8.67533 4.58464 8.95866 4.86797 8.95866 5.20964V6.8763ZM15.0003 6.66797H11.667C11.3253 6.66797 11.042 6.38464 11.042 6.04297C11.042 5.7013 11.3253 5.41797 11.667 5.41797H15.0003C15.342 5.41797 15.6253 5.7013 15.6253 6.04297C15.6253 6.38464 15.342 6.66797 15.0003 6.66797Z" fill="white"/>
<path d="M14.167 9.16797C11.4087 9.16797 9.16699 11.4096 9.16699 14.168C9.16699 16.9263 11.4087 19.168 14.167 19.168C16.9253 19.168 19.167 16.9263 19.167 14.168C19.167 11.4096 16.9253 9.16797 14.167 9.16797ZM16.6087 15.168C16.4753 15.493 16.2837 15.7846 16.0337 16.0346C15.5337 16.5346 14.8753 16.8096 14.167 16.8096C13.6003 16.8096 13.067 16.6263 12.617 16.293V16.4096C12.617 16.668 12.4087 16.8846 12.142 16.8846C11.8753 16.8763 11.667 16.668 11.667 16.4013V15.2013C11.667 14.943 11.8753 14.7263 12.142 14.7263H13.342C13.6003 14.7263 13.817 14.9346 13.817 15.2013C13.817 15.443 13.642 15.6263 13.4087 15.6596C14.042 15.968 14.8503 15.868 15.3587 15.3596C15.517 15.2013 15.642 15.0096 15.7253 14.8013C15.8253 14.5596 16.1003 14.443 16.342 14.543C16.592 14.643 16.7087 14.9263 16.6087 15.168ZM16.667 13.1346C16.667 13.393 16.4587 13.6096 16.192 13.6096H14.992C14.7337 13.6096 14.517 13.4013 14.517 13.1346C14.517 12.893 14.692 12.7096 14.9253 12.6763C14.292 12.368 13.4837 12.468 12.967 12.9763C12.8253 13.118 12.717 13.2763 12.6337 13.4513C12.5503 13.6263 12.3837 13.7263 12.2087 13.7263C12.142 13.7263 12.0753 13.7096 12.0087 13.6846C11.7753 13.5763 11.667 13.293 11.7837 13.0513C11.917 12.7763 12.092 12.5263 12.3003 12.3096C12.8003 11.8096 13.4587 11.5346 14.167 11.5346C14.7337 11.5346 15.267 11.718 15.717 12.0513V11.943C15.717 11.6846 15.9253 11.468 16.192 11.468C16.4587 11.468 16.667 11.668 16.667 11.9346V13.1346Z" fill="white"/>
</svg>
