<svg width="20" height="20" viewBox="0 0 20 20" fill="none" xmlns="http://www.w3.org/2000/svg">
<path d="M9.99951 4.99781L5.36614 8.33114L2.6578 6.4978C2.17447 6.1728 2.16615 5.47281 2.64115 5.13114L5.8328 2.83113C6.11614 2.63113 6.49948 2.62281 6.78281 2.81448L9.99951 4.99781Z" fill="white"/>
<path d="M17.3417 6.5003L14.6333 8.33367L10 5.00031L13.2167 2.82533C13.5083 2.63366 13.8833 2.63365 14.1667 2.84199L17.3583 5.142C17.8333 5.47533 17.825 6.1753 17.3417 6.5003Z" fill="white"/>
<path d="M9.99959 11.6654L6.29961 14.1654L4.16628 12.632L2.63294 11.532C2.16628 11.1904 2.1746 10.4904 2.6496 10.1654L5.35794 8.33203L9.99959 11.6654Z" fill="white"/>
<path d="M17.3422 10.1654C17.8255 10.4904 17.8339 11.1904 17.3589 11.532L15.8255 12.632L13.6922 14.1654L9.99219 11.6654L14.6255 8.33203L17.3422 10.1654Z" fill="white"/>
<path d="M15.567 14.4497C15.6753 14.3664 15.8337 14.4497 15.8337 14.5831V15.1914C15.8337 15.5164 15.642 15.8081 15.3503 15.9497L10.3503 18.2581C10.1253 18.3581 9.87533 18.3581 9.65033 18.2581L4.65032 15.9497C4.35865 15.8081 4.16699 15.5164 4.16699 15.1914V14.5831C4.16699 14.4497 4.317 14.3664 4.43367 14.4497L6.04199 15.6081C6.18366 15.7081 6.37533 15.7164 6.517 15.6164L9.76699 13.4164C9.90866 13.3247 10.092 13.3247 10.2337 13.4164L13.4837 15.6164C13.6253 15.7164 13.817 15.7081 13.9587 15.6081L15.567 14.4497Z" fill="white"/>
</svg>
