<svg width="20" height="20" viewBox="0 0 20 20" fill="none" xmlns="http://www.w3.org/2000/svg">
<path d="M17.5 18.332H2.5C2.15833 18.332 1.875 18.0487 1.875 17.707C1.875 17.3654 2.15833 17.082 2.5 17.082H17.5C17.8417 17.082 18.125 17.3654 18.125 17.707C18.125 18.0487 17.8417 18.332 17.5 18.332Z" fill="white"/>
<path d="M15.8495 2.90005C14.2328 1.28338 12.6495 1.24172 10.9912 2.90005L9.98283 3.90838C9.89949 3.99172 9.86616 4.12505 9.89949 4.24172C10.5328 6.45005 12.2995 8.21672 14.5078 8.85007C14.5412 8.85841 14.5745 8.86674 14.6078 8.86674C14.6995 8.86674 14.7828 8.83341 14.8495 8.76674L15.8495 7.75838C16.6745 6.94172 17.0745 6.15005 17.0745 5.35005C17.0828 4.52505 16.6828 3.72505 15.8495 2.90005Z" fill="white"/>
<path d="M13.0089 9.60813C12.7672 9.49146 12.5339 9.3748 12.3089 9.24146C12.1256 9.13313 11.9506 9.01646 11.7756 8.89146C11.6339 8.7998 11.4672 8.66646 11.3089 8.53313C11.2922 8.5248 11.2339 8.4748 11.1672 8.40813C10.8922 8.17478 10.5839 7.87478 10.3089 7.54145C10.2839 7.52478 10.2422 7.46645 10.1839 7.39145C10.1006 7.29145 9.95891 7.12478 9.83391 6.93311C9.73391 6.80811 9.61724 6.62478 9.50891 6.44145C9.37557 6.21645 9.25891 5.99145 9.14224 5.75811C9.12457 5.72029 9.10749 5.68265 9.09099 5.64523C8.96799 5.36746 8.60574 5.28626 8.39099 5.50106L3.61726 10.2748C3.50892 10.3831 3.40892 10.5915 3.38392 10.7331L2.93392 13.9248C2.85059 14.4915 3.00892 15.0248 3.35892 15.3831C3.65892 15.6748 4.07559 15.8331 4.52559 15.8331C4.62559 15.8331 4.72559 15.8248 4.82559 15.8081L8.02559 15.3581C8.17559 15.3331 8.38391 15.2331 8.48391 15.1248L13.2517 10.357C13.468 10.1407 13.3864 9.76955 13.1051 9.64946C13.0734 9.63596 13.0413 9.62213 13.0089 9.60813Z" fill="white"/>
</svg>
