<svg width="20" height="20" viewBox="0 0 20 20" fill="none" xmlns="http://www.w3.org/2000/svg">
<path d="M13.492 1.66797H6.50866C3.47533 1.66797 1.66699 3.4763 1.66699 6.50964V13.4846C1.66699 16.5263 3.47533 18.3346 6.50866 18.3346H13.4837C16.517 18.3346 18.3253 16.5263 18.3253 13.493V6.50964C18.3337 3.4763 16.5253 1.66797 13.492 1.66797ZM9.12533 14.593C8.88366 14.8346 8.42533 15.068 8.09199 15.118L6.04199 15.4096C5.96699 15.418 5.89199 15.4263 5.81699 15.4263C5.47533 15.4263 5.15866 15.3096 4.93366 15.0846C4.65866 14.8096 4.54199 14.4096 4.60866 13.968L4.90033 11.918C4.95033 11.5763 5.17533 11.1263 5.42533 10.8846L9.14199 7.16797C9.20866 7.34297 9.27533 7.51797 9.36699 7.71797C9.45033 7.89297 9.54199 8.0763 9.64199 8.24297C9.72533 8.38464 9.81699 8.51797 9.89199 8.61797C9.98366 8.75964 10.092 8.89297 10.1587 8.96797C10.2003 9.0263 10.2337 9.06797 10.2503 9.08463C10.4587 9.33463 10.7003 9.56797 10.9087 9.74297C10.967 9.8013 11.0003 9.83464 11.017 9.84297C11.142 9.94297 11.267 10.043 11.3753 10.118C11.5087 10.218 11.642 10.3096 11.7837 10.3846C11.9503 10.4846 12.1337 10.5763 12.317 10.668C12.5087 10.7513 12.6837 10.8263 12.8587 10.8846L9.12533 14.593ZM14.4753 9.24297L13.7087 10.018C13.6587 10.068 13.592 10.093 13.5253 10.093C13.5003 10.093 13.467 10.093 13.4503 10.0846C11.7587 9.6013 10.4087 8.2513 9.92533 6.55964C9.90033 6.46797 9.92533 6.36797 9.99199 6.30964L10.767 5.53464C12.0337 4.26797 13.242 4.29297 14.4837 5.53464C15.117 6.16797 15.4253 6.7763 15.4253 7.40964C15.417 8.00964 15.1087 8.60964 14.4753 9.24297Z" fill="white"/>
</svg>
