<svg width="20" height="20" viewBox="0 0 20 20" fill="none" xmlns="http://www.w3.org/2000/svg">
<path d="M6.6087 4.56458L9.21708 7.17292C9.65041 7.60625 10.3587 7.60625 10.7921 7.17292L13.4004 4.56458C14.1004 3.86458 13.6087 2.65625 12.6087 2.65625H7.39204C6.40038 2.65625 5.90037 3.86458 6.6087 4.56458Z" fill="white"/>
<path d="M6.6087 15.4333L9.21708 12.825C9.65041 12.3917 10.3587 12.3917 10.7921 12.825L13.4004 15.4333C14.1004 16.1333 13.6087 17.3417 12.6087 17.3417H7.39204C6.40038 17.3417 5.90037 16.1333 6.6087 15.4333Z" fill="white"/>
<path d="M1.8002 9.52573L3.70856 6.52572C4.00856 6.05072 4.67524 5.97572 5.07524 6.37572L8.07522 9.37573C8.41691 9.7174 8.41691 10.2757 8.07522 10.6174L5.07524 13.6174C4.67524 14.0174 4.0169 13.9424 3.70856 13.4674L1.8002 10.4674C1.6252 10.1841 1.6252 9.8174 1.8002 9.52573Z" fill="white"/>
<path d="M18.2003 9.52573L16.2919 6.52572C15.9919 6.05072 15.3252 5.97572 14.9252 6.37572L11.9252 9.37573C11.5835 9.7174 11.5835 10.2757 11.9252 10.6174L14.9252 13.6174C15.3252 14.0174 15.9835 13.9424 16.2919 13.4674L18.2003 10.4674C18.3753 10.1841 18.3753 9.8174 18.2003 9.52573Z" fill="white"/>
</svg>
