<svg width="20" height="20" viewBox="0 0 20 20" fill="none" xmlns="http://www.w3.org/2000/svg">
<path d="M12.992 4.16797H12.7087V1.66797C12.7087 1.3263 12.4253 1.04297 12.0837 1.04297C11.742 1.04297 11.4587 1.3263 11.4587 1.66797V4.16797H8.54199V1.66797C8.54199 1.3263 8.25866 1.04297 7.91699 1.04297C7.57533 1.04297 7.29199 1.3263 7.29199 1.66797V4.16797H7.00866C6.13366 4.16797 5.41699 4.88464 5.41699 5.75964V10.0013C5.41699 11.8346 6.66699 13.3346 8.75033 13.3346H9.37533V18.3346C9.37533 18.6763 9.65866 18.9596 10.0003 18.9596C10.342 18.9596 10.6253 18.6763 10.6253 18.3346V13.3346H11.2503C13.3337 13.3346 14.5837 11.8346 14.5837 10.0013V5.75964C14.5837 4.88464 13.867 4.16797 12.992 4.16797Z" fill="white"/>
</svg>
