<svg width="20" height="20" viewBox="0 0 20 20" fill="none" xmlns="http://www.w3.org/2000/svg">
<path d="M17.083 13.957H15.208V12.082C15.208 11.7404 14.9247 11.457 14.583 11.457C14.2413 11.457 13.958 11.7404 13.958 12.082V13.957H12.083C11.7413 13.957 11.458 14.2404 11.458 14.582C11.458 14.9237 11.7413 15.207 12.083 15.207H13.958V17.082C13.958 17.4237 14.2413 17.707 14.583 17.707C14.9247 17.707 15.208 17.4237 15.208 17.082V15.207H17.083C17.4247 15.207 17.708 14.9237 17.708 14.582C17.708 14.2404 17.4247 13.957 17.083 13.957Z" fill="white"/>
<path d="M18.3333 7.1013V3.31797C18.3333 2.14297 17.8 1.66797 16.475 1.66797H13.1083C11.7833 1.66797 11.25 2.14297 11.25 3.31797V7.09297C11.25 8.2763 11.7833 8.74297 13.1083 8.74297H16.475C17.8 8.7513 18.3333 8.2763 18.3333 7.1013Z" fill="white"/>
<path d="M8.75033 7.1013V3.31797C8.75033 2.14297 8.21699 1.66797 6.89199 1.66797H3.52533C2.20033 1.66797 1.66699 2.14297 1.66699 3.31797V7.09297C1.66699 8.2763 2.20033 8.74297 3.52533 8.74297H6.89199C8.21699 8.7513 8.75033 8.2763 8.75033 7.1013Z" fill="white"/>
<path d="M8.75033 16.475V13.1083C8.75033 11.7833 8.21699 11.25 6.89199 11.25H3.52533C2.20033 11.25 1.66699 11.7833 1.66699 13.1083V16.475C1.66699 17.8 2.20033 18.3333 3.52533 18.3333H6.89199C8.21699 18.3333 8.75033 17.8 8.75033 16.475Z" fill="white"/>
</svg>
