<svg width="20" height="20" viewBox="0 0 20 20" fill="none" xmlns="http://www.w3.org/2000/svg">
<path d="M17.9163 9.08464V3.41797C17.9163 2.16797 17.383 1.66797 16.058 1.66797H12.6913C11.3663 1.66797 10.833 2.16797 10.833 3.41797V9.08464C10.833 10.3346 11.3663 10.8346 12.6913 10.8346H16.058C17.383 10.8346 17.9163 10.3346 17.9163 9.08464Z" fill="white"/>
<path d="M9.16634 10.918V16.5846C9.16634 17.8346 8.63301 18.3346 7.30801 18.3346H3.94134C2.61634 18.3346 2.08301 17.8346 2.08301 16.5846V10.918C2.08301 9.66797 2.61634 9.16797 3.94134 9.16797H7.30801C8.63301 9.16797 9.16634 9.66797 9.16634 10.918Z" fill="white"/>
<path d="M17.9163 16.5833V14.25C17.9163 13 17.383 12.5 16.058 12.5H12.6913C11.3663 12.5 10.833 13 10.833 14.25V16.5833C10.833 17.8333 11.3663 18.3333 12.6913 18.3333H16.058C17.383 18.3333 17.9163 17.8333 17.9163 16.5833Z" fill="white"/>
<path d="M9.16634 5.7513V3.41797C9.16634 2.16797 8.63301 1.66797 7.30801 1.66797H3.94134C2.61634 1.66797 2.08301 2.16797 2.08301 3.41797V5.7513C2.08301 7.0013 2.61634 7.5013 3.94134 7.5013H7.30801C8.63301 7.5013 9.16634 7.0013 9.16634 5.7513Z" fill="white"/>
</svg>
