<svg width="20" height="20" viewBox="0 0 20 20" fill="none" xmlns="http://www.w3.org/2000/svg">
<path d="M17.5 13.543H12.5C12.1583 13.543 11.875 13.2596 11.875 12.918C11.875 12.5763 12.1583 12.293 12.5 12.293H17.5C17.8417 12.293 18.125 12.5763 18.125 12.918C18.125 13.2596 17.8417 13.543 17.5 13.543Z" fill="white"/>
<path d="M17.5 16.875H12.5C12.1583 16.875 11.875 16.5917 11.875 16.25C11.875 15.9083 12.1583 15.625 12.5 15.625H17.5C17.8417 15.625 18.125 15.9083 18.125 16.25C18.125 16.5917 17.8417 16.875 17.5 16.875Z" fill="white"/>
<path d="M18.3333 7.1013V3.31797C18.3333 2.14297 17.8 1.66797 16.475 1.66797H13.1083C11.7833 1.66797 11.25 2.14297 11.25 3.31797V7.09297C11.25 8.2763 11.7833 8.74297 13.1083 8.74297H16.475C17.8 8.7513 18.3333 8.2763 18.3333 7.1013Z" fill="white"/>
<path d="M8.75033 7.1013V3.31797C8.75033 2.14297 8.21699 1.66797 6.89199 1.66797H3.52533C2.20033 1.66797 1.66699 2.14297 1.66699 3.31797V7.09297C1.66699 8.2763 2.20033 8.74297 3.52533 8.74297H6.89199C8.21699 8.7513 8.75033 8.2763 8.75033 7.1013Z" fill="white"/>
<path d="M8.75033 16.475V13.1083C8.75033 11.7833 8.21699 11.25 6.89199 11.25H3.52533C2.20033 11.25 1.66699 11.7833 1.66699 13.1083V16.475C1.66699 17.8 2.20033 18.3333 3.52533 18.3333H6.89199C8.21699 18.3333 8.75033 17.8 8.75033 16.475Z" fill="white"/>
</svg>
