<svg width="20" height="20" viewBox="0 0 20 20" fill="none" xmlns="http://www.w3.org/2000/svg">
<path d="M10.0003 1.66797C5.40033 1.66797 1.66699 5.4013 1.66699 10.0013C1.66699 14.6013 5.40033 18.3346 10.0003 18.3346C14.6003 18.3346 18.3337 14.6013 18.3337 10.0013C18.3337 5.4013 14.6003 1.66797 10.0003 1.66797ZM14.3753 13.3346C14.3753 13.6763 14.092 13.9596 13.7503 13.9596H6.25033C5.90866 13.9596 5.62533 13.6763 5.62533 13.3346C5.62533 12.993 5.90866 12.7096 6.25033 12.7096H13.1253V7.29297H11.042V10.0013C11.042 10.343 10.7587 10.6263 10.417 10.6263H6.25033C5.90866 10.6263 5.62533 10.343 5.62533 10.0013C5.62533 9.65964 5.90866 9.3763 6.25033 9.3763H9.79199V7.29297H6.25033C5.90866 7.29297 5.62533 7.00964 5.62533 6.66797C5.62533 6.3263 5.90866 6.04297 6.25033 6.04297H13.7503C14.092 6.04297 14.3753 6.3263 14.3753 6.66797V13.3346Z" fill="white"/>
</svg>
