<svg width="20" height="20" viewBox="0 0 20 20" fill="none" xmlns="http://www.w3.org/2000/svg">
<path d="M13.492 1.66797H6.50866C3.47533 1.66797 1.66699 3.4763 1.66699 6.50964V13.4846C1.66699 16.5263 3.47533 18.3346 6.50866 18.3346H13.4837C16.517 18.3346 18.3253 16.5263 18.3253 13.493V6.50964C18.3337 3.4763 16.5253 1.66797 13.492 1.66797ZM7.08366 5.31797C7.94199 5.31797 8.65033 6.01797 8.65033 6.88464C8.65033 7.7513 7.95033 8.4513 7.08366 8.4513C6.21699 8.4513 5.51699 7.73464 5.51699 6.8763C5.51699 6.01797 6.22533 5.31797 7.08366 5.31797ZM10.0003 15.9013C7.75866 15.9013 5.93366 14.0763 5.93366 11.8346C5.93366 11.2513 6.40866 10.768 6.99199 10.768H12.992C13.5753 10.768 14.0503 11.243 14.0503 11.8346C14.067 14.0763 12.242 15.9013 10.0003 15.9013ZM12.917 8.43464C12.0587 8.43464 11.3503 7.73464 11.3503 6.86797C11.3503 6.0013 12.0503 5.3013 12.917 5.3013C13.7837 5.3013 14.4837 6.0013 14.4837 6.86797C14.4837 7.73464 13.7753 8.43464 12.917 8.43464Z" fill="white"/>
</svg>
