<svg width="20" height="20" viewBox="0 0 20 20" fill="none" xmlns="http://www.w3.org/2000/svg">
<path d="M13.492 1.66797H6.50866C3.47533 1.66797 1.66699 3.4763 1.66699 6.50964V13.4846C1.66699 16.5263 3.47533 18.3346 6.50866 18.3346H13.4837C16.517 18.3346 18.3253 16.5263 18.3253 13.493V6.50964C18.3337 3.4763 16.5253 1.66797 13.492 1.66797ZM5.39199 7.73464C5.15033 7.49297 5.15033 7.09297 5.39199 6.8513C6.46699 5.7763 8.22533 5.7763 9.30866 6.8513C9.55033 7.09297 9.55033 7.49297 9.30866 7.73464C9.18366 7.85964 9.02533 7.91797 8.86699 7.91797C8.70866 7.91797 8.55033 7.85964 8.42533 7.73464C7.83366 7.14297 6.86699 7.14297 6.27533 7.73464C6.03366 7.98464 5.63366 7.98464 5.39199 7.73464ZM13.0003 15.068H7.00033C6.41699 15.068 5.94199 14.593 5.94199 14.0013C5.94199 11.7596 7.76699 9.93464 10.0087 9.93464C12.2503 9.93464 14.0753 11.7596 14.0753 14.0013C14.067 14.5846 13.5837 15.068 13.0003 15.068ZM14.6087 7.73464C14.367 7.9763 13.967 7.9763 13.7253 7.73464C13.1337 7.14297 12.167 7.14297 11.5753 7.73464C11.4503 7.85964 11.292 7.91797 11.1337 7.91797C10.9753 7.91797 10.817 7.85964 10.692 7.73464C10.4503 7.49297 10.4503 7.09297 10.692 6.8513C11.767 5.7763 13.5253 5.7763 14.6087 6.8513C14.8503 7.1013 14.8503 7.49297 14.6087 7.73464Z" fill="white"/>
</svg>
