<svg width="20" height="20" viewBox="0 0 20 20" fill="none" xmlns="http://www.w3.org/2000/svg">
<path d="M13.492 1.66797H6.50866C3.47533 1.66797 1.66699 3.4763 1.66699 6.50964V13.4846C1.66699 16.5263 3.47533 18.3346 6.50866 18.3346H13.4837C16.517 18.3346 18.3253 16.5263 18.3253 13.493V6.50964C18.3337 3.4763 16.5253 1.66797 13.492 1.66797ZM5.39199 6.43464C5.63366 6.19297 6.03366 6.19297 6.27533 6.43464C6.86699 7.0263 7.83366 7.0263 8.42533 6.43464C8.66699 6.19297 9.06699 6.19297 9.30866 6.43464C9.55033 6.6763 9.55033 7.0763 9.30866 7.31797C8.76699 7.85964 8.05866 8.1263 7.35033 8.1263C6.64199 8.1263 5.93366 7.85964 5.39199 7.31797C5.15033 7.06797 5.15033 6.6763 5.39199 6.43464ZM10.0003 15.6513C7.75866 15.6513 5.93366 13.8263 5.93366 11.5846C5.93366 11.0013 6.40866 10.518 6.99199 10.518H12.992C13.5753 10.518 14.0503 10.993 14.0503 11.5846C14.067 13.8263 12.242 15.6513 10.0003 15.6513ZM14.6087 7.31797C14.067 7.85964 13.3587 8.1263 12.6503 8.1263C11.942 8.1263 11.2337 7.85964 10.692 7.31797C10.4503 7.0763 10.4503 6.6763 10.692 6.43464C10.9337 6.19297 11.3337 6.19297 11.5753 6.43464C12.167 7.0263 13.1337 7.0263 13.7253 6.43464C13.967 6.19297 14.367 6.19297 14.6087 6.43464C14.8503 6.6763 14.8503 7.06797 14.6087 7.31797Z" fill="white"/>
</svg>
