<svg width="20" height="20" viewBox="0 0 20 20" fill="none" xmlns="http://www.w3.org/2000/svg">
<path d="M12.3747 3.29036V6.45703H11.1247V3.29036C11.1247 3.06536 10.9247 2.95703 10.7913 2.95703C10.7497 2.95703 10.708 2.96536 10.6663 2.98203L4.05801 5.47371C3.61634 5.64037 3.33301 6.05703 3.33301 6.53203V7.09036C2.57467 7.65703 2.08301 8.56536 2.08301 9.59036V6.53203C2.08301 5.54036 2.69134 4.65703 3.61634 4.30703L10.233 1.80703C10.4163 1.74036 10.608 1.70703 10.7913 1.70703C11.6247 1.70703 12.3747 2.38203 12.3747 3.29036Z" fill="white"/>
<path d="M17.9169 12.0846V12.918C17.9169 13.143 17.7419 13.3263 17.5086 13.3346H16.2919C15.8502 13.3346 15.4502 13.0096 15.4169 12.5763C15.3919 12.318 15.4919 12.0763 15.6586 11.9096C15.8086 11.7513 16.0169 11.668 16.2419 11.668H17.5002C17.7419 11.6763 17.9169 11.8596 17.9169 12.0846Z" fill="white"/>
<path d="M4.16634 12.5C3.38301 12.5 2.65801 12.775 2.08301 13.2333C1.31634 13.8417 0.833008 14.7833 0.833008 15.8333C0.833008 16.4583 1.00801 17.05 1.31634 17.55C1.89134 18.5167 2.94967 19.1667 4.16634 19.1667C5.00801 19.1667 5.77467 18.8583 6.35801 18.3333C6.61634 18.1167 6.84134 17.85 7.01634 17.55C7.32467 17.05 7.49967 16.4583 7.49967 15.8333C7.49967 13.9917 6.00801 12.5 4.16634 12.5ZM2.84967 15.3833C2.60801 15.1417 2.60801 14.7417 2.84967 14.5C3.09967 14.2583 3.49134 14.2583 3.74134 14.5L4.17467 14.9417L4.59134 14.5167C4.84134 14.275 5.23301 14.275 5.48301 14.5167C5.72467 14.7667 5.72467 15.1583 5.48301 15.4083L5.05801 15.825L5.49967 16.2583C5.74134 16.5083 5.74134 16.9 5.49967 17.15C5.37467 17.2667 5.21634 17.325 5.05801 17.325C4.89967 17.325 4.74134 17.2667 4.61634 17.15L4.17467 16.7083L3.71634 17.1667C3.59134 17.2917 3.43301 17.35 3.27467 17.35C3.11634 17.35 2.95801 17.2917 2.83301 17.1667C2.59134 16.925 2.59134 16.525 2.83301 16.2833L3.29134 15.825L2.84967 15.3833Z" fill="white"/>
<path d="M16.233 10.7904H17.083C17.5413 10.7904 17.9163 10.4154 17.9163 9.95703V9.59036C17.9163 7.86536 16.508 6.45703 14.783 6.45703H5.21634C4.50801 6.45703 3.85801 6.69036 3.33301 7.09036C2.57467 7.65703 2.08301 8.56536 2.08301 9.59036V11.0737C2.08301 11.3904 2.41634 11.5904 2.71634 11.4904C3.18301 11.332 3.67467 11.2487 4.16634 11.2487C6.69134 11.2487 8.74967 13.307 8.74967 15.832C8.74967 16.432 8.59134 17.0904 8.34134 17.6737C8.20801 17.9737 8.41634 18.332 8.74134 18.332H14.783C16.508 18.332 17.9163 16.9237 17.9163 15.1987V15.0404C17.9163 14.582 17.5413 14.207 17.083 14.207H16.358C15.558 14.207 14.7913 13.7154 14.583 12.9404C14.4163 12.307 14.6163 11.6904 15.033 11.2904C15.3413 10.9737 15.7663 10.7904 16.233 10.7904ZM11.6663 10.6237H7.49967C7.15801 10.6237 6.87467 10.3404 6.87467 9.9987C6.87467 9.65703 7.15801 9.3737 7.49967 9.3737H11.6663C12.008 9.3737 12.2913 9.65703 12.2913 9.9987C12.2913 10.3404 12.008 10.6237 11.6663 10.6237Z" fill="white"/>
</svg>
