<svg width="20" height="20" viewBox="0 0 20 20" fill="none" xmlns="http://www.w3.org/2000/svg">
<path d="M6.88178 17.7042C7.42092 17.165 7.73064 16.4768 7.81094 15.7655C7.91992 14.8192 7.60446 13.8384 6.88178 13.1157C6.45161 12.6855 5.92393 12.3988 5.36758 12.2669C4.3065 11.9973 3.13071 12.2783 2.29331 13.1157C1.71402 13.695 1.39856 14.4349 1.35841 15.1977C1.32973 15.5246 1.35841 15.863 1.44445 16.19C1.57637 16.7464 1.86314 17.274 2.29331 17.7042C3.56088 18.9717 5.61421 18.9717 6.88178 17.7042ZM5.80348 14.8135C6.13615 14.8135 6.41146 15.0888 6.41146 15.4215C6.40573 15.7598 6.13615 16.0294 5.79775 16.0351L5.19552 16.0294L5.20125 16.6087C5.19552 16.9471 4.92594 17.2166 4.58754 17.2224C4.24914 17.2166 3.97958 16.9471 3.97383 16.6087L3.97958 16.0294L3.37733 16.0351C3.03893 16.0294 2.76937 15.7598 2.76363 15.4215C2.76937 15.2551 2.83819 15.106 2.94717 14.997C3.05614 14.888 3.20527 14.8192 3.3716 14.8135H3.97958V14.1825C3.97958 14.0105 4.0484 13.8614 4.15738 13.7524C4.26635 13.6434 4.41548 13.5745 4.58754 13.5745C4.92021 13.5745 5.19552 13.8499 5.19552 14.1825V14.8135H5.80348Z" fill="white"/>
<path d="M12.578 3.20522V6.28753H11.3613V3.20522C11.3613 2.98621 11.1667 2.88076 11.0369 2.88076C10.9963 2.88076 10.9558 2.88888 10.9153 2.9051L4.48294 5.33039C4.05303 5.49261 3.77725 5.89818 3.77725 6.36053V6.90399C3.03911 7.45556 2.56055 8.33965 2.56055 9.3374V6.36053C2.56055 5.39528 3.15268 4.53548 4.05303 4.1948L10.4934 1.7614C10.6718 1.69651 10.8584 1.66406 11.0369 1.66406C11.848 1.66406 12.578 2.32109 12.578 3.20522Z" fill="white"/>
<path d="M17.9733 11.7611V12.5721C17.9733 12.7912 17.8029 12.9696 17.5758 12.9777H16.3915C15.9617 12.9777 15.5723 12.6614 15.5398 12.2396C15.5155 11.9881 15.6128 11.753 15.7751 11.5907C15.9211 11.4366 16.1238 11.3555 16.3428 11.3555H17.5677C17.8029 11.3636 17.9733 11.5421 17.9733 11.7611Z" fill="white"/>
<path d="M16.3336 10.503H17.1609C17.6071 10.503 17.9721 10.138 17.9721 9.69195V9.33503C17.9721 7.65596 16.6013 6.28516 14.9223 6.28516H5.61041C4.92095 6.28516 4.28826 6.51227 3.77725 6.90161C3.03911 7.45318 2.56055 8.33728 2.56055 9.33503V10.7789C2.56055 11.087 2.88501 11.2817 3.17701 11.1844C3.63125 11.0303 4.10981 10.9492 4.58838 10.9492C7.04611 10.9492 9.0496 12.9527 9.0496 15.4104C9.0496 15.9944 8.89551 16.6352 8.65218 17.203C8.52235 17.495 8.72518 17.8438 9.04151 17.8438H14.9223C16.6013 17.8438 17.9721 16.4729 17.9721 14.7939V14.6399C17.9721 14.1937 17.6071 13.8287 17.1609 13.8287H16.4553C15.6766 13.8287 14.9303 13.3501 14.7275 12.5958C14.5653 11.9793 14.76 11.379 15.1656 10.9897C15.4657 10.6815 15.8793 10.503 16.3336 10.503ZM11.8886 10.3408H7.83291C7.50035 10.3408 7.22456 10.065 7.22456 9.73245C7.22456 9.39986 7.50035 9.12411 7.83291 9.12411H11.8886C12.2212 9.12411 12.4969 9.39986 12.4969 9.73245C12.4969 10.065 12.2212 10.3408 11.8886 10.3408Z" fill="white"/>
</svg>
