<svg width="20" height="20" viewBox="0 0 20 20" fill="none" xmlns="http://www.w3.org/2000/svg">
<path d="M12.3747 3.29036V6.45703H11.1247V3.29036C11.1247 3.06536 10.9247 2.95703 10.7913 2.95703C10.7497 2.95703 10.708 2.96536 10.6663 2.98203L4.05801 5.47371C3.61634 5.64037 3.33301 6.05703 3.33301 6.53203V7.09036C2.57467 7.65703 2.08301 8.56536 2.08301 9.59036V6.53203C2.08301 5.54036 2.69134 4.65703 3.61634 4.30703L10.233 1.80703C10.4163 1.74036 10.608 1.70703 10.7913 1.70703C11.6247 1.70703 12.3747 2.38203 12.3747 3.29036Z" fill="white"/>
<path d="M17.9169 12.0846V12.918C17.9169 13.143 17.7419 13.3263 17.5086 13.3346H16.2919C15.8502 13.3346 15.4502 13.0096 15.4169 12.5763C15.3919 12.318 15.4919 12.0763 15.6586 11.9096C15.8086 11.7513 16.0169 11.668 16.2419 11.668H17.5002C17.7419 11.6763 17.9169 11.8596 17.9169 12.0846Z" fill="white"/>
<path d="M16.233 10.7904H17.083C17.5413 10.7904 17.9163 10.4154 17.9163 9.95703V9.59036C17.9163 7.86536 16.508 6.45703 14.783 6.45703H5.21634C4.50801 6.45703 3.85801 6.69036 3.33301 7.09036C2.57467 7.65703 2.08301 8.56536 2.08301 9.59036V15.1987C2.08301 16.9237 3.49134 18.332 5.21634 18.332H14.783C16.508 18.332 17.9163 16.9237 17.9163 15.1987V15.0404C17.9163 14.582 17.5413 14.207 17.083 14.207H16.358C15.558 14.207 14.7913 13.7154 14.583 12.9404C14.408 12.307 14.6163 11.6987 15.033 11.2904C15.3413 10.9737 15.7663 10.7904 16.233 10.7904ZM11.6663 10.6237H5.83301C5.49134 10.6237 5.20801 10.3404 5.20801 9.9987C5.20801 9.65703 5.49134 9.3737 5.83301 9.3737H11.6663C12.008 9.3737 12.2913 9.65703 12.2913 9.9987C12.2913 10.3404 12.008 10.6237 11.6663 10.6237Z" fill="white"/>
</svg>
