<svg width="20" height="20" viewBox="0 0 20 20" fill="none" xmlns="http://www.w3.org/2000/svg">
<path d="M4.16634 12.5C3.31634 12.5 2.53301 12.825 1.94134 13.3583C1.80801 13.475 1.68301 13.6 1.57467 13.7417C1.10801 14.3167 0.833008 15.0417 0.833008 15.8333C0.833008 17.675 2.33301 19.1667 4.16634 19.1667C4.96634 19.1667 5.69134 18.8833 6.26634 18.425C6.73301 18.0333 7.09967 17.525 7.29967 16.9417C7.43301 16.6 7.49967 16.225 7.49967 15.8333C7.49967 14 6.00801 12.5 4.16634 12.5ZM6.16634 15.1917C6.16634 15.425 5.98301 15.6 5.75801 15.6C5.53301 15.6 5.34967 15.425 5.34967 15.1917V15.1083C5.34967 15.0167 5.28301 14.9417 5.19134 14.9417H3.52467C3.60801 15.1 3.59134 15.2917 3.45801 15.425C3.38301 15.5 3.28301 15.5417 3.16634 15.5417C3.06634 15.5417 2.95801 15.5 2.88301 15.425L2.28301 14.825C2.24967 14.7917 2.21634 14.7417 2.19134 14.6917C2.15801 14.5917 2.15801 14.4833 2.19134 14.3833C2.21634 14.3417 2.24134 14.2833 2.28301 14.25L2.88301 13.6583C3.04134 13.4917 3.29967 13.4917 3.44967 13.6583C3.58301 13.7833 3.59967 13.9833 3.51634 14.1333H5.19134C5.72467 14.1333 6.15801 14.5667 6.15801 15.1083V15.1917H6.16634ZM5.16634 18.1333C5.05801 18.1333 4.94967 18.1 4.87467 18.0167C4.74134 17.8917 4.72467 17.6917 4.80801 17.5417H3.13301C2.59967 17.5417 2.16634 17.1083 2.16634 16.5667V16.4833C2.16634 16.25 2.34967 16.075 2.57467 16.075C2.79967 16.075 2.98301 16.25 2.98301 16.4833V16.5667C2.98301 16.6583 3.04967 16.7333 3.14134 16.7333H4.81634C4.73301 16.575 4.74967 16.3833 4.88301 16.25C5.04134 16.0917 5.29967 16.0917 5.44967 16.25L6.04967 16.85C6.08301 16.8833 6.11634 16.9333 6.14134 16.9833C6.17467 17.0833 6.17467 17.1917 6.14134 17.2917C6.11634 17.3333 6.08301 17.3833 6.04967 17.4167L5.44967 18.0083C5.37467 18.0917 5.26634 18.1333 5.16634 18.1333Z" fill="white"/>
<path d="M12.3747 3.29036V6.45703H11.1247V3.29036C11.1247 3.06536 10.9247 2.95703 10.7913 2.95703C10.7497 2.95703 10.708 2.96536 10.6663 2.98203L4.05801 5.4737C3.61634 5.64036 3.33301 6.05703 3.33301 6.53203V7.09036C2.57467 7.65703 2.08301 8.56538 2.08301 9.59038V6.53203C2.08301 5.54036 2.69134 4.65703 3.61634 4.30703L10.233 1.80703C10.4163 1.74036 10.608 1.70703 10.7913 1.70703C11.6247 1.70703 12.3747 2.38203 12.3747 3.29036Z" fill="white"/>
<path d="M17.9169 12.0846V12.918C17.9169 13.143 17.7419 13.3263 17.5086 13.3346H16.2919C15.8502 13.3346 15.4502 13.0096 15.4169 12.5763C15.3919 12.318 15.4919 12.0763 15.6586 11.9096C15.8086 11.7513 16.0169 11.668 16.2419 11.668H17.5002C17.7419 11.6763 17.9169 11.8596 17.9169 12.0846Z" fill="white"/>
<path d="M16.233 10.7904H17.083C17.5413 10.7904 17.9163 10.4154 17.9163 9.95703V9.59036C17.9163 7.86536 16.508 6.45703 14.783 6.45703H5.21634C4.50801 6.45703 3.85801 6.69036 3.33301 7.09036C2.57467 7.65703 2.08301 8.56536 2.08301 9.59036V11.0737C2.08301 11.3904 2.41634 11.5904 2.71634 11.4904C3.18301 11.332 3.67467 11.2487 4.16634 11.2487C6.69134 11.2487 8.74967 13.307 8.74967 15.832C8.74967 16.432 8.59134 17.0904 8.34134 17.6737C8.20801 17.9737 8.41634 18.332 8.74134 18.332H14.783C16.508 18.332 17.9163 16.9237 17.9163 15.1987V15.0404C17.9163 14.582 17.5413 14.207 17.083 14.207H16.358C15.558 14.207 14.7913 13.7154 14.583 12.9404C14.4163 12.307 14.6163 11.6904 15.033 11.2904C15.3413 10.9737 15.7663 10.7904 16.233 10.7904ZM11.6663 10.6237H7.49967C7.15801 10.6237 6.87467 10.3404 6.87467 9.9987C6.87467 9.65703 7.15801 9.3737 7.49967 9.3737H11.6663C12.008 9.3737 12.2913 9.65703 12.2913 9.9987C12.2913 10.3404 12.008 10.6237 11.6663 10.6237Z" fill="white"/>
</svg>
