<svg width="20" height="20" viewBox="0 0 20 20" fill="none" xmlns="http://www.w3.org/2000/svg">
<path d="M4.16732 12.5C3.38398 12.5 2.65898 12.775 2.08398 13.2333C1.31732 13.8417 0.833984 14.7833 0.833984 15.8333C0.833984 16.4583 1.00898 17.05 1.31732 17.55C1.89232 18.5167 2.95065 19.1667 4.16732 19.1667C5.00898 19.1667 5.77565 18.8583 6.35898 18.3333C6.61732 18.1167 6.84232 17.85 7.01732 17.55C7.32565 17.05 7.50065 16.4583 7.50065 15.8333C7.50065 13.9917 6.00898 12.5 4.16732 12.5ZM5.89232 15.475L4.11732 17.1167C4.00065 17.225 3.84232 17.2833 3.69232 17.2833C3.53398 17.2833 3.37565 17.225 3.25065 17.1L2.42565 16.275C2.18398 16.0333 2.18398 15.6333 2.42565 15.3917C2.66732 15.15 3.06732 15.15 3.30898 15.3917L3.70898 15.7917L5.04232 14.5583C5.29232 14.325 5.69232 14.3417 5.92565 14.5917C6.15898 14.8417 6.14232 15.2417 5.89232 15.475Z" fill="white"/>
<path d="M12.3757 3.29036V6.45703H11.1257V3.29036C11.1257 3.06536 10.9257 2.95703 10.7923 2.95703C10.7507 2.95703 10.709 2.96536 10.6673 2.98203L4.05898 5.47371C3.61732 5.64037 3.33398 6.05703 3.33398 6.53203V7.09036C2.57565 7.65703 2.08398 8.56536 2.08398 9.59036V6.53203C2.08398 5.54036 2.69232 4.65703 3.61732 4.30703L10.234 1.80703C10.4173 1.74036 10.609 1.70703 10.7923 1.70703C11.6257 1.70703 12.3757 2.38203 12.3757 3.29036Z" fill="white"/>
<path d="M17.9169 12.0846V12.918C17.9169 13.143 17.7419 13.3263 17.5086 13.3346H16.2919C15.8502 13.3346 15.4502 13.0096 15.4169 12.5763C15.3919 12.318 15.4919 12.0763 15.6586 11.9096C15.8086 11.7513 16.0169 11.668 16.2419 11.668H17.5002C17.7419 11.6763 17.9169 11.8596 17.9169 12.0846Z" fill="white"/>
<path d="M16.234 10.7904H17.084C17.5423 10.7904 17.9173 10.4154 17.9173 9.95703V9.59036C17.9173 7.86536 16.509 6.45703 14.784 6.45703H5.21732C4.50898 6.45703 3.85898 6.69036 3.33398 7.09036C2.57565 7.65703 2.08398 8.56536 2.08398 9.59036V11.0737C2.08398 11.3904 2.41732 11.5904 2.71732 11.4904C3.18398 11.332 3.67565 11.2487 4.16732 11.2487C6.69232 11.2487 8.75067 13.307 8.75067 15.832C8.75067 16.432 8.59233 17.0904 8.34233 17.6737C8.20898 17.9737 8.41733 18.332 8.74233 18.332H14.784C16.509 18.332 17.9173 16.9237 17.9173 15.1987V15.0404C17.9173 14.582 17.5423 14.207 17.084 14.207H16.359C15.559 14.207 14.7923 13.7154 14.584 12.9404C14.4173 12.307 14.6173 11.6904 15.034 11.2904C15.3423 10.9737 15.7673 10.7904 16.234 10.7904ZM11.6673 10.6237H7.50065C7.15898 10.6237 6.87565 10.3404 6.87565 9.9987C6.87565 9.65703 7.15898 9.3737 7.50065 9.3737H11.6673C12.009 9.3737 12.2923 9.65703 12.2923 9.9987C12.2923 10.3404 12.009 10.6237 11.6673 10.6237Z" fill="white"/>
</svg>
