<svg width="20" height="20" viewBox="0 0 20 20" fill="none" xmlns="http://www.w3.org/2000/svg">
<path d="M10.0003 1.66797C5.40033 1.66797 1.66699 5.4013 1.66699 10.0013C1.66699 14.6013 5.40033 18.3346 10.0003 18.3346C14.6003 18.3346 18.3337 14.6013 18.3337 10.0013C18.3337 5.4013 14.6003 1.66797 10.0003 1.66797ZM13.1253 9.3763C13.467 9.3763 13.7503 9.65964 13.7503 10.0013C13.7503 10.343 13.467 10.6263 13.1253 10.6263H7.08366V10.8346C7.08366 11.868 7.92533 12.7096 8.95866 12.7096H13.1253C13.467 12.7096 13.7503 12.993 13.7503 13.3346C13.7503 13.6763 13.467 13.9596 13.1253 13.9596H8.95866C7.23366 13.9596 5.83366 12.5596 5.83366 10.8346V9.16797C5.83366 7.44297 7.23366 6.04297 8.95866 6.04297H13.1253C13.467 6.04297 13.7503 6.3263 13.7503 6.66797C13.7503 7.00964 13.467 7.29297 13.1253 7.29297H8.95866C7.92533 7.29297 7.08366 8.13464 7.08366 9.16797V9.3763H13.1253Z" fill="white"/>
</svg>
