<svg width="20" height="20" viewBox="0 0 20 20" fill="none" xmlns="http://www.w3.org/2000/svg">
<path d="M7.73327 16.9228C7.87494 17.3228 7.4416 17.6895 7.07493 17.4728L4.44994 15.9812C3.97494 15.7062 3.68328 15.0478 3.78328 14.5145L4.56661 10.6228C4.65828 10.1645 5.29161 10.1228 5.44995 10.5562L7.73327 16.9228Z" fill="white"/>
<path d="M15.5497 15.9843L12.9163 17.4843C12.5497 17.6926 12.1163 17.3343 12.258 16.9343L14.5497 10.5093C14.708 10.076 15.3413 10.1176 15.433 10.576L16.2247 14.5176C16.3163 15.051 16.0247 15.7093 15.5497 15.9843Z" fill="white"/>
<path d="M14.2333 6.09896C14.4333 6.34896 14.4917 6.68229 14.3833 6.98229L10.4333 18.0239C10.2917 18.4323 9.71667 18.4323 9.575 18.0239L5.62499 6.99063C5.51666 6.69063 5.57499 6.35729 5.77499 6.10729L8.95833 2.19062C9.53333 1.49896 10.4833 1.49896 11.0667 2.19062L14.2333 6.09896Z" fill="white"/>
</svg>
