<svg width="20" height="20" viewBox="0 0 20 20" fill="none" xmlns="http://www.w3.org/2000/svg">
<path d="M17.5249 18.332H11.6582C11.3082 18.332 11.0332 18.0487 11.0332 17.707C11.0332 17.3654 11.3165 17.082 11.6582 17.082H17.5249C17.8749 17.082 18.1499 17.3654 18.1499 17.707C18.1499 18.0487 17.8749 18.332 17.5249 18.332Z" fill="white"/>
<path d="M11.3663 13.9065C11.6913 14.2315 11.6913 14.7565 11.3663 15.0899L8.88301 17.5732C7.95801 18.4982 6.47467 18.5482 5.49134 17.7232C5.43301 17.6732 5.38301 17.6232 5.33301 17.5732L4.60801 16.8482L3.11634 15.3565L2.39967 14.6399C2.34134 14.5815 2.29134 14.5232 2.24134 14.4649C1.42467 13.4815 1.48301 12.0149 2.39967 11.0982L4.88301 8.61486C5.20801 8.28984 5.73301 8.28984 6.05801 8.61486L11.3663 13.9065Z" fill="white"/>
<path d="M17.5998 8.86593L13.4332 13.0326C13.1082 13.3576 12.5832 13.3576 12.2582 13.0326L6.9498 7.74088C6.6248 7.41588 6.6248 6.89089 6.9498 6.55755L11.1165 2.39922C12.0915 1.42422 13.6915 1.42422 14.6665 2.39922L17.5998 5.32422C18.5748 6.29922 18.5748 7.89088 17.5998 8.86593Z" fill="white"/>
</svg>
