<svg width="20" height="20" viewBox="0 0 20 20" fill="none" xmlns="http://www.w3.org/2000/svg">
<path d="M13.492 1.66797H6.50866C3.47533 1.66797 1.66699 3.4763 1.66699 6.50964V13.4846C1.66699 16.5263 3.47533 18.3346 6.50866 18.3346H13.4837C16.517 18.3346 18.3253 16.5263 18.3253 13.493V6.50964C18.3337 3.4763 16.5253 1.66797 13.492 1.66797ZM10.4337 13.1263L9.38366 14.1763C8.85033 14.718 7.97533 14.718 7.43366 14.1763L5.82533 12.568C5.28366 12.0263 5.29199 11.1596 5.82533 10.618L6.88366 9.56797C7.05033 9.40963 7.30866 9.40963 7.47533 9.56797L10.442 12.5346C10.6003 12.7013 10.6003 12.968 10.4337 13.1263ZM14.1753 9.38464L11.6087 11.9513C11.442 12.118 11.1837 12.118 11.017 11.9513L8.05033 8.98464C7.88366 8.81797 7.88366 8.55964 8.05033 8.39297L10.617 5.8263C11.1503 5.28464 12.0253 5.28464 12.567 5.8263L14.1753 7.43464C14.717 7.9763 14.717 8.8513 14.1753 9.38464Z" fill="white"/>
</svg>
