<svg width="20" height="20" viewBox="0 0 20 20" fill="none" xmlns="http://www.w3.org/2000/svg">
<path d="M7.30875 12.0245L8.65041 12.6245C9.50874 13.0078 10.4921 13.0078 11.3587 12.6245L12.7004 12.0245C13.9004 11.4911 15.0087 12.9411 14.1754 13.9578L11.2921 17.4828C10.5837 18.3495 9.42541 18.3495 8.70874 17.4828L5.83375 13.9578C4.99208 12.9411 6.10042 11.4911 7.30875 12.0245Z" fill="white"/>
<path d="M7.14108 9.72655C6.89108 9.90988 6.92441 10.2932 7.20774 10.4349L9.16609 11.4099C9.62443 11.6432 10.3661 11.6432 10.8161 11.4099L12.7744 10.4349C13.0494 10.2932 13.0828 9.91821 12.8411 9.72655L10.2494 7.77656C10.0994 7.66823 9.89943 7.66823 9.74943 7.77656L7.14108 9.72655Z" fill="white"/>
<path d="M14.9003 6.86505L11.4253 2.53172C11.3586 2.44838 11.2836 2.37338 11.2086 2.29838C10.9919 2.09005 10.6836 2.28172 10.6836 2.58172V6.16505C10.6836 6.29838 10.7419 6.42338 10.8503 6.49838L14.3086 9.09836L14.4586 9.20669C14.6086 9.31502 14.8169 9.31502 14.9419 9.18169C15.5253 8.54836 15.5169 7.63172 14.9003 6.86505Z" fill="white"/>
<path d="M5.09187 6.94105L8.55024 2.54105C8.61691 2.45772 8.68357 2.38272 8.75857 2.30772C8.97524 2.09938 9.28357 2.28272 9.28357 2.59105V6.23272C9.28357 6.36605 9.22524 6.48272 9.11691 6.56605L5.6752 9.2077L5.53353 9.31603C5.38353 9.42437 5.17521 9.42437 5.04187 9.2827C4.47521 8.64103 4.48354 7.72438 5.09187 6.94105Z" fill="white"/>
</svg>
