<svg width="20" height="20" viewBox="0 0 20 20" fill="none" xmlns="http://www.w3.org/2000/svg">
<path d="M5.7501 7.58099L9.72508 5.81432C9.90008 5.73932 10.1001 5.73932 10.2668 5.81432L14.2417 7.58099C14.5917 7.73932 14.9167 7.31432 14.6751 7.01432L10.5084 1.92266C10.2251 1.57266 9.75842 1.57266 9.47508 1.92266L5.30841 7.01432C5.07508 7.31432 5.4001 7.73932 5.7501 7.58099Z" fill="white"/>
<path d="M5.74981 12.4171L9.73309 14.1837C9.90809 14.2587 10.1082 14.2587 10.2748 14.1837L14.2581 12.4171C14.6081 12.2587 14.9331 12.6837 14.6914 12.9837L10.5248 18.0754C10.2414 18.4254 9.77484 18.4254 9.4915 18.0754L5.3248 12.9837C5.0748 12.6837 5.39148 12.2587 5.74981 12.4171Z" fill="white"/>
<path d="M9.8165 7.90703L6.3748 9.6237C6.06647 9.7737 6.06647 10.2154 6.3748 10.3654L9.8165 12.082C9.93317 12.1404 10.0748 12.1404 10.1914 12.082L13.6331 10.3654C13.9414 10.2154 13.9414 9.7737 13.6331 9.6237L10.1914 7.90703C10.0664 7.8487 9.93317 7.8487 9.8165 7.90703Z" fill="white"/>
</svg>
