<svg width="20" height="20" viewBox="0 0 20 20" fill="none" xmlns="http://www.w3.org/2000/svg">
<path d="M14.0003 7.5H10.6253V12.7083C10.6253 13.05 10.342 13.3333 10.0003 13.3333C9.65866 13.3333 9.37533 13.05 9.37533 12.7083V7.5H6.00033C3.33366 7.5 1.66699 9.16667 1.66699 11.8333V13.9917C1.66699 16.6667 3.33366 18.3333 6.00033 18.3333H13.992C16.6587 18.3333 18.3253 16.6667 18.3253 14V11.8333C18.3337 9.16667 16.667 7.5 14.0003 7.5Z" fill="white"/>
<path d="M10.6245 3.79922L12.3495 5.52422C12.4745 5.64922 12.6328 5.70755 12.7912 5.70755C12.9495 5.70755 13.1078 5.64922 13.2328 5.52422C13.4745 5.28255 13.4745 4.88255 13.2328 4.64089L10.4412 1.84922C10.1995 1.60755 9.79951 1.60755 9.55784 1.84922L6.76621 4.64089C6.52454 4.88255 6.52454 5.28255 6.76621 5.52422C7.00788 5.76589 7.40788 5.76589 7.64954 5.52422L9.37451 3.79922V7.49922H10.6245V3.79922Z" fill="white"/>
</svg>
