<svg width="20" height="20" viewBox="0 0 20 20" fill="none" xmlns="http://www.w3.org/2000/svg">
<path d="M10.0003 1.66797C5.40033 1.66797 1.66699 5.4013 1.66699 10.0013C1.66699 14.6013 5.40033 18.3346 10.0003 18.3346C14.6003 18.3346 18.3337 14.6013 18.3337 10.0013C18.3337 5.4013 14.6003 1.66797 10.0003 1.66797ZM14.3753 10.2763C14.3753 10.618 14.092 10.9013 13.7503 10.9013C13.4087 10.9013 13.1253 10.618 13.1253 10.2763V7.75964L6.69199 14.193C6.56699 14.318 6.40866 14.3763 6.25033 14.3763C6.09199 14.3763 5.93366 14.318 5.80866 14.193C5.56699 13.9513 5.56699 13.5513 5.80866 13.3096L12.242 6.8763H9.72533C9.38366 6.8763 9.10033 6.59297 9.10033 6.2513C9.10033 5.90964 9.38366 5.6263 9.72533 5.6263H13.7503C14.092 5.6263 14.3753 5.90964 14.3753 6.2513V10.2763Z" fill="white"/>
</svg>
