<svg width="20" height="20" viewBox="0 0 20 20" fill="none" xmlns="http://www.w3.org/2000/svg">
<path d="M17.617 8.25H10.6253V12.8167C10.6253 13.1583 10.342 13.4417 10.0003 13.4417C9.65866 13.4417 9.37533 13.1583 9.37533 12.8167V8.25H2.38366C1.98366 8.25 1.66699 8.56668 1.66699 8.96668C1.66699 13.875 5.09199 17.3 10.0003 17.3C14.9087 17.3 18.3337 13.875 18.3337 8.96668C18.3337 8.56668 18.017 8.25 17.617 8.25Z" fill="white"/>
<path d="M10.625 4.83437L11.925 6.13438C12.1667 6.37604 12.5667 6.37604 12.8083 6.13438C13.05 5.89271 13.05 5.49271 12.8083 5.25104L10.4333 2.88437C10.1917 2.64271 9.79168 2.64271 9.55001 2.88437L7.18333 5.25937C7.06667 5.38437 7 5.54271 7 5.70104C7 5.85937 7.05833 6.01771 7.18333 6.14271C7.425 6.38437 7.825 6.38437 8.06667 6.14271L9.36668 4.84271V8.25104H10.6167V4.83437H10.625Z" fill="white"/>
</svg>
