<svg width="20" height="20" viewBox="0 0 20 20" fill="none" xmlns="http://www.w3.org/2000/svg">
<path d="M14.1663 1.66797H6.66634C4.82467 1.66797 3.33301 3.15964 3.33301 5.0013V11.043C3.33301 11.5013 3.70801 11.8763 4.16634 11.8763H16.6663C17.1247 11.8763 17.4997 11.5013 17.4997 11.043V5.0013C17.4997 3.15964 16.008 1.66797 14.1663 1.66797ZM6.66634 10.6263H5.83301C5.49134 10.6263 5.20801 10.343 5.20801 10.0013C5.20801 9.65964 5.49134 9.3763 5.83301 9.3763H6.66634C7.00801 9.3763 7.29134 9.65964 7.29134 10.0013C7.29134 10.343 7.00801 10.6263 6.66634 10.6263ZM6.66634 8.54297H5.83301C5.49134 8.54297 5.20801 8.25964 5.20801 7.91797C5.20801 7.5763 5.49134 7.29297 5.83301 7.29297H6.66634C7.00801 7.29297 7.29134 7.5763 7.29134 7.91797C7.29134 8.25964 7.00801 8.54297 6.66634 8.54297ZM6.66634 6.45964H5.83301C5.49134 6.45964 5.20801 6.1763 5.20801 5.83464C5.20801 5.49297 5.49134 5.20964 5.83301 5.20964H6.66634C7.00801 5.20964 7.29134 5.49297 7.29134 5.83464C7.29134 6.1763 7.00801 6.45964 6.66634 6.45964Z" fill="white"/>
<path d="M3.33301 13.9583V15C3.33301 16.8417 4.82467 18.3333 6.66634 18.3333H14.1663C16.008 18.3333 17.4997 16.8417 17.4997 15V13.9583C17.4997 13.5 17.1247 13.125 16.6663 13.125H4.16634C3.70801 13.125 3.33301 13.5 3.33301 13.9583ZM14.758 16.2167C14.5997 16.3667 14.383 16.4583 14.1663 16.4583C13.9497 16.4583 13.733 16.3667 13.5747 16.2167C13.4247 16.0583 13.333 15.8417 13.333 15.625C13.333 15.4083 13.4247 15.1917 13.5747 15.0333C13.883 14.725 14.4413 14.725 14.758 15.0333C14.908 15.1917 14.9997 15.4083 14.9997 15.625C14.9997 15.8417 14.908 16.0583 14.758 16.2167Z" fill="white"/>
</svg>
