<svg width="20" height="20" viewBox="0 0 20 20" fill="none" xmlns="http://www.w3.org/2000/svg">
<path d="M18.3337 13.493C18.3337 16.5263 16.5253 18.3346 13.492 18.3346H12.5003C12.042 18.3346 11.667 17.9596 11.667 17.5013V12.693C11.667 12.468 11.8503 12.2763 12.0753 12.2763L13.542 12.2513C13.6587 12.243 13.7587 12.1596 13.7837 12.043L14.0753 10.4513C14.1003 10.3013 13.9837 10.1596 13.8253 10.1596L12.0503 10.1846C11.817 10.1846 11.6337 10.0013 11.6253 9.7763L11.592 7.73464C11.592 7.6013 11.7003 7.48464 11.842 7.48464L13.842 7.4513C13.9837 7.4513 14.092 7.34298 14.092 7.20131L14.0587 5.20129C14.0587 5.05963 13.9503 4.9513 13.8087 4.9513L11.5587 4.98464C10.1753 5.00964 9.07533 6.14297 9.10033 7.5263L9.14199 9.81797C9.15033 10.0513 8.96699 10.2346 8.73366 10.243L7.73366 10.2596C7.59199 10.2596 7.48367 10.368 7.48367 10.5096L7.50867 12.093C7.50867 12.2346 7.61699 12.343 7.75866 12.343L8.75866 12.3263C8.99199 12.3263 9.17533 12.5096 9.18366 12.7346L9.25866 17.4846C9.26699 17.9513 8.89199 18.3346 8.42533 18.3346H6.50866C3.47533 18.3346 1.66699 16.5263 1.66699 13.4846V6.50964C1.66699 3.4763 3.47533 1.66797 6.50866 1.66797H13.492C16.5253 1.66797 18.3337 3.4763 18.3337 6.50964V13.493Z" fill="white"/>
</svg>
