<svg width="20" height="20" viewBox="0 0 20 20" fill="none" xmlns="http://www.w3.org/2000/svg">
<path d="M15.9336 12.4492L16.2003 12.9909C16.3336 13.2576 16.6753 13.5076 16.9586 13.5576L17.3169 13.6159C18.4086 13.7992 18.6586 14.5992 17.8836 15.3826L17.5503 15.7159C17.3253 15.9409 17.2086 16.3742 17.2753 16.6909L17.3169 16.8909C17.6169 18.2076 16.9169 18.7159 15.7753 18.0242L15.5336 17.8742C15.2419 17.6992 14.7586 17.6992 14.4669 17.8742L14.2253 18.0242C13.0753 18.7159 12.3836 18.2076 12.6836 16.8909L12.7253 16.6909C12.7919 16.3826 12.6753 15.9409 12.4503 15.7159L12.1169 15.3826C11.3419 14.5909 11.5919 13.7992 12.6836 13.6159L13.0419 13.5576C13.3336 13.5076 13.6669 13.2576 13.8003 12.9909L14.0669 12.4492C14.5836 11.4076 15.4169 11.4076 15.9336 12.4492Z" fill="white"/>
<path d="M13.492 1.66797H6.50866C3.47533 1.66797 1.66699 3.4763 1.66699 6.50964V13.493C1.66699 16.5263 3.47533 18.3346 6.50866 18.3346H10.9087C11.2003 18.3346 11.4087 18.0346 11.3753 17.743C11.342 17.4263 11.3587 17.0513 11.4587 16.618C11.4753 16.5596 11.4587 16.493 11.4087 16.443L11.2253 16.2596C10.517 15.543 10.2587 14.6763 10.5087 13.8846C10.767 13.1013 11.4837 12.5513 12.4753 12.3846L12.7253 12.343L12.9503 11.893C13.4087 10.9596 14.1587 10.418 15.0003 10.418C15.842 10.418 16.592 10.9596 17.0503 11.893L17.1753 12.1513C17.2337 12.2763 17.3503 12.3596 17.4837 12.3846C17.5587 12.4013 17.6337 12.418 17.7087 12.4346C18.0003 12.5096 18.3337 12.2763 18.3337 11.968V6.50964C18.3337 3.4763 16.5253 1.66797 13.492 1.66797ZM13.5503 7.46797L11.6253 9.9513C11.3837 10.2596 11.042 10.4596 10.6503 10.5013C10.267 10.5513 9.87533 10.443 9.57533 10.2013L8.05033 9.01797C7.99199 8.96797 7.92533 8.96797 7.89199 8.9763C7.85866 8.9763 7.80033 8.99297 7.75033 9.05964L5.76699 11.6346C5.64199 11.793 5.45866 11.8763 5.26699 11.8763C5.13366 11.8763 5.00033 11.8346 4.88366 11.743C4.60866 11.5346 4.55866 11.143 4.76699 10.868L6.75033 8.29297C6.99199 7.98464 7.33366 7.78464 7.72533 7.73464C8.11699 7.68464 8.50033 7.79297 8.80866 8.03464L10.3337 9.23464C10.392 9.28464 10.4503 9.2763 10.492 9.2763C10.5253 9.2763 10.5837 9.25964 10.6337 9.19297L12.5587 6.70964C12.767 6.43464 13.1587 6.38464 13.4337 6.6013C13.717 6.80964 13.7587 7.2013 13.5503 7.46797Z" fill="white"/>
</svg>
