<svg width="20" height="20" viewBox="0 0 20 20" fill="none" xmlns="http://www.w3.org/2000/svg">
<path d="M10.0002 1.66797H7.22516C5.69183 1.66797 4.4502 2.90963 4.4502 4.44296C4.4502 5.97629 5.69183 7.21797 7.22516 7.21797H10.0002V1.66797Z" fill="white"/>
<path d="M10.0002 7.22656H7.22516C5.69183 7.22656 4.4502 8.46821 4.4502 10.0015C4.4502 11.5349 5.69183 12.7765 7.22516 12.7765H10.0002V7.22656Z" fill="white"/>
<path d="M10.0002 12.7734H7.22516C5.69183 12.7734 4.4502 14.0151 4.4502 15.5484C4.4502 17.0818 5.69183 18.3234 7.22516 18.3234C8.7585 18.3234 10.0002 17.0818 10.0002 15.5484V12.7734Z" fill="white"/>
<path d="M10 1.66797H12.775C14.3083 1.66797 15.55 2.90963 15.55 4.44296C15.55 5.97629 14.3083 7.21797 12.775 7.21797H10V1.66797Z" fill="white"/>
<path d="M12.775 7.22656C14.3083 7.22656 15.55 8.46821 15.55 10.0015C15.55 11.5349 14.3083 12.7765 12.775 12.7765C11.2417 12.7765 10 11.5349 10 10.0015C10 8.46821 11.2417 7.22656 12.775 7.22656Z" fill="white"/>
</svg>
