<svg width="20" height="20" viewBox="0 0 20 20" fill="none" xmlns="http://www.w3.org/2000/svg">
<path d="M10 9.9987C10 9.08203 10.75 8.33203 11.6667 8.33203H10V9.9987Z" fill="white"/>
<path d="M10.0003 1.66797C5.40033 1.66797 1.66699 5.4013 1.66699 10.0013C1.66699 14.6013 5.40033 18.3346 10.0003 18.3346C14.6003 18.3346 18.3337 14.6013 18.3337 10.0013C18.3337 5.4013 14.6003 1.66797 10.0003 1.66797ZM13.3337 10.0013C13.3337 10.918 12.5837 11.668 11.667 11.668C10.7503 11.668 10.0003 10.918 10.0003 10.0013V11.668V13.3346C10.0003 14.2513 9.25033 15.0013 8.33366 15.0013C7.41699 15.0013 6.66699 14.2513 6.66699 13.3346C6.66699 12.418 7.41699 11.668 8.33366 11.668C7.41699 11.668 6.66699 10.918 6.66699 10.0013C6.66699 9.08464 7.41699 8.33464 8.33366 8.33464C7.41699 8.33464 6.66699 7.58464 6.66699 6.66797C6.66699 5.7513 7.41699 5.0013 8.33366 5.0013H10.0003H11.667C12.5837 5.0013 13.3337 5.7513 13.3337 6.66797C13.3337 7.58464 12.5837 8.33464 11.667 8.33464C12.5837 8.33464 13.3337 9.08464 13.3337 10.0013Z" fill="white"/>
</svg>
