<svg width="20" height="20" viewBox="0 0 20 20" fill="none" xmlns="http://www.w3.org/2000/svg">
<path d="M14.9334 5.30703C14.6584 5.24036 14.3667 5.20703 14.0667 5.20703C11.8834 5.20703 10.1084 6.98203 10.1084 9.16536C10.1084 9.90703 10.3167 10.607 10.6834 11.207C10.9917 11.7237 11.4167 12.1654 11.9334 12.482C12.5501 12.8904 13.2834 13.1237 14.0667 13.1237C15.5167 13.1237 16.7751 12.3487 17.4584 11.207C17.8251 10.607 18.0251 9.90703 18.0251 9.16536C18.0251 7.28203 16.7084 5.6987 14.9334 5.30703ZM15.6917 8.80703L13.6667 10.832C13.5917 10.907 13.4334 10.982 13.3251 10.9987L12.5501 11.107C12.2667 11.1487 12.0751 10.9487 12.1167 10.6737L12.2251 9.8987C12.2417 9.79036 12.3167 9.64036 12.3917 9.55703L14.1251 7.8237L14.4167 7.53203C14.7667 7.18203 15.1751 7.01536 15.6834 7.53203C16.1917 8.0487 16.0417 8.45703 15.6917 8.80703Z" fill="white"/>
<path d="M17.1496 3.3513V4.1513C17.1496 4.49297 16.7579 4.7013 16.4496 4.54297C16.0663 4.34297 15.6579 4.19297 15.2246 4.09297C14.8579 4.0013 14.4663 3.95964 14.0663 3.95964C11.1913 3.95964 8.85793 6.29297 8.85793 9.16797C8.85793 10.118 9.11626 11.0513 9.60793 11.8513C10.0246 12.5513 10.6079 13.1346 11.2413 13.5263C11.3829 13.618 11.5329 13.7013 11.6746 13.7846C11.8163 13.8596 11.9163 14.0096 11.9163 14.168V15.893C11.9163 16.4013 11.5829 17.0763 11.1663 17.3263L9.99959 18.0846C8.91626 18.7596 7.42461 18.0013 7.42461 16.6513V12.193C7.42461 11.6013 7.09128 10.843 6.75794 10.4263L3.59961 7.05964C3.18294 6.63464 2.84961 5.8763 2.84961 5.3763V3.43464C2.84961 2.4263 3.59961 1.66797 4.50794 1.66797H15.4913C16.3996 1.66797 17.1496 2.4263 17.1496 3.3513Z" fill="white"/>
</svg>
