<svg width="20" height="20" viewBox="0 0 20 20" fill="none" xmlns="http://www.w3.org/2000/svg">
<path d="M14.9334 8.43203C14.6584 8.36536 14.3667 8.33203 14.0667 8.33203C11.8834 8.33203 10.1084 10.107 10.1084 12.2904C10.1084 13.032 10.3167 13.732 10.6834 14.332C10.9917 14.8487 11.4167 15.2904 11.9334 15.607C12.5501 16.0154 13.2834 16.2487 14.0667 16.2487C15.5167 16.2487 16.7751 15.4737 17.4584 14.332C17.8251 13.732 18.0251 13.032 18.0251 12.2904C18.0251 10.407 16.7084 8.8237 14.9334 8.43203ZM16.0417 11.7737L13.9251 13.7237C13.8084 13.832 13.6501 13.8904 13.5001 13.8904C13.3417 13.8904 13.1834 13.832 13.0584 13.707L12.0834 12.732C11.8417 12.4904 11.8417 12.0904 12.0834 11.8487C12.3251 11.607 12.7251 11.607 12.9667 11.8487L13.5167 12.3987L15.1917 10.857C15.4501 10.6237 15.8417 10.6404 16.0751 10.8904C16.3084 11.1487 16.2917 11.5404 16.0417 11.7737Z" fill="white"/>
<path d="M17.1496 3.3513V5.2013C17.1496 5.8763 16.7329 6.71797 16.3163 7.14297L16.1663 7.2763C16.0496 7.38463 15.8746 7.40964 15.7246 7.35964C15.5579 7.3013 15.3913 7.25964 15.2246 7.21797C14.8579 7.1263 14.4663 7.08464 14.0663 7.08464C11.1913 7.08464 8.85793 9.41797 8.85793 12.293C8.85793 13.243 9.11626 14.1763 9.60793 14.9763C10.0246 15.6763 10.6079 16.2596 11.2413 16.6513C11.4329 16.7763 11.5079 17.043 11.3413 17.193C11.2829 17.243 11.2246 17.2846 11.1663 17.3263L9.99959 18.0846C8.91626 18.7596 7.42461 18.0013 7.42461 16.6513V12.193C7.42461 11.6013 7.09128 10.843 6.75794 10.4263L3.59961 7.05964C3.18294 6.63464 2.84961 5.8763 2.84961 5.3763V3.43464C2.84961 2.4263 3.59961 1.66797 4.50794 1.66797H15.4913C16.3996 1.66797 17.1496 2.4263 17.1496 3.3513Z" fill="white"/>
</svg>
