<svg width="20" height="20" viewBox="0 0 20 20" fill="none" xmlns="http://www.w3.org/2000/svg">
<path d="M17.4587 3.44297C17.217 3.09297 16.9087 2.78464 16.5587 2.54297C15.767 1.96797 14.7337 1.66797 13.492 1.66797H6.50866C6.34199 1.66797 6.17533 1.6763 6.01699 1.69297C3.28366 1.86797 1.66699 3.64297 1.66699 6.50964V13.493C1.66699 14.7346 1.96699 15.768 2.54199 16.5596C2.78366 16.9096 3.09199 17.218 3.44199 17.4596C4.12533 17.9596 4.99199 18.2513 6.01699 18.318C6.17533 18.3263 6.34199 18.3346 6.50866 18.3346H13.492C16.5253 18.3346 18.3337 16.5263 18.3337 13.493V6.50964C18.3337 5.26797 18.0337 4.23464 17.4587 3.44297ZM7.05033 8.9013L6.64199 8.4763C6.42533 8.25964 6.25033 7.86797 6.25033 7.6013V6.6013C6.25033 6.0763 6.64199 5.68464 7.12533 5.68464H8.90866C9.25032 5.68464 9.45866 6.05964 9.27533 6.3513L7.73366 8.83464C7.58366 9.0763 7.24199 9.10964 7.05033 8.9013ZM13.7503 7.51797C13.7503 7.86797 13.5337 8.3013 13.317 8.51797L11.442 10.1763C11.1837 10.393 11.0087 10.8263 11.0087 11.1763V13.0513C11.0087 13.3096 10.8337 13.6596 10.617 13.793L10.0003 14.1846C9.43366 14.5346 8.65033 14.143 8.65033 13.443V11.1346C8.65033 10.8263 8.47533 10.4346 8.30033 10.218L8.10033 10.0013C7.96699 9.85964 7.94199 9.64297 8.04199 9.46797L10.2753 5.88464C10.3587 5.75964 10.492 5.6763 10.642 5.6763H12.8753C13.3587 5.6763 13.7503 6.06797 13.7503 6.5513V7.51797Z" fill="white"/>
</svg>
