<svg width="20" height="20" viewBox="0 0 20 20" fill="none" xmlns="http://www.w3.org/2000/svg">
<path d="M17.2665 15.1987L16.4832 14.4154C16.8915 13.7987 17.1332 13.057 17.1332 12.257C17.1332 10.0904 15.3749 8.33203 13.2082 8.33203C11.0415 8.33203 9.2832 10.0904 9.2832 12.257C9.2832 14.4237 11.0415 16.182 13.2082 16.182C14.0082 16.182 14.7415 15.9404 15.3665 15.532L16.1499 16.3154C16.3082 16.4737 16.5082 16.5487 16.7165 16.5487C16.9249 16.5487 17.1249 16.4737 17.2832 16.3154C17.5749 16.0154 17.5749 15.5154 17.2665 15.1987Z" fill="white"/>
<path d="M16.3166 3.3513V5.2013C16.3166 5.8763 15.8999 6.71797 15.4833 7.14297L15.3333 7.2763C15.2166 7.38463 15.0416 7.40964 14.8916 7.35964C14.7249 7.3013 14.5583 7.25964 14.3916 7.21797C14.0249 7.1263 13.6333 7.08464 13.2333 7.08464C10.3583 7.08464 8.02493 9.41797 8.02493 12.293C8.02493 13.243 8.28327 14.1763 8.77492 14.9763C9.19158 15.6763 9.77492 16.2596 10.4083 16.6513C10.5999 16.7763 10.6749 17.043 10.5083 17.193C10.4499 17.243 10.3916 17.2846 10.3333 17.3263L9.16658 18.0846C8.08327 18.7596 6.5916 18.0013 6.5916 16.6513V12.193C6.5916 11.6013 6.25827 10.843 5.92493 10.4263L2.7666 7.05964C2.34993 6.63464 2.0166 5.8763 2.0166 5.3763V3.43464C2.0166 2.4263 2.7666 1.66797 3.67494 1.66797H14.6583C15.5666 1.66797 16.3166 2.4263 16.3166 3.3513Z" fill="white"/>
</svg>
