<svg width="20" height="20" viewBox="0 0 20 20" fill="none" xmlns="http://www.w3.org/2000/svg">
<path d="M14.0667 8.33203C11.8834 8.33203 10.1084 10.107 10.1084 12.2904C10.1084 13.032 10.3167 13.732 10.6834 14.332C11.3667 15.482 12.6251 16.2487 14.0667 16.2487C15.5084 16.2487 16.7667 15.4737 17.4501 14.332C17.8167 13.7404 18.0251 13.032 18.0251 12.2904C18.0251 10.107 16.2584 8.33203 14.0667 8.33203ZM15.5667 13.7654C15.4417 13.8904 15.2834 13.9487 15.1251 13.9487C14.9667 13.9487 14.8084 13.8904 14.6834 13.7654L14.0834 13.1654L13.4584 13.7904C13.3334 13.9154 13.1751 13.9737 13.0167 13.9737C12.8584 13.9737 12.7001 13.9154 12.5751 13.7904C12.3334 13.5487 12.3334 13.1487 12.5751 12.907L13.2001 12.282L12.6001 11.6737C12.3584 11.432 12.3584 11.032 12.6001 10.7904C12.8417 10.5487 13.2417 10.5487 13.4834 10.7904L14.0834 11.3904L14.6667 10.807C14.9084 10.5654 15.3084 10.5654 15.5501 10.807C15.7917 11.0487 15.7917 11.4487 15.5501 11.6904L14.9667 12.2737L15.5667 12.882C15.8167 13.1237 15.8167 13.5237 15.5667 13.7654Z" fill="white"/>
<path d="M17.1496 3.3513V5.2013C17.1496 5.8763 16.7329 6.71797 16.3163 7.14297L16.1663 7.2763C16.0496 7.38463 15.8746 7.40964 15.7246 7.35964C15.5579 7.3013 15.3913 7.25964 15.2246 7.21797C14.8579 7.1263 14.4663 7.08464 14.0663 7.08464C11.1913 7.08464 8.85793 9.41797 8.85793 12.293C8.85793 13.243 9.11626 14.1763 9.60793 14.9763C10.0246 15.6763 10.6079 16.2596 11.2413 16.6513C11.4329 16.7763 11.5079 17.043 11.3413 17.193C11.2829 17.243 11.2246 17.2846 11.1663 17.3263L9.99959 18.0846C8.91626 18.7596 7.42461 18.0013 7.42461 16.6513V12.193C7.42461 11.6013 7.09128 10.843 6.75794 10.4263L3.59961 7.05964C3.18294 6.63464 2.84961 5.8763 2.84961 5.3763V3.43464C2.84961 2.4263 3.59961 1.66797 4.50794 1.66797H15.4913C16.3996 1.66797 17.1496 2.4263 17.1496 3.3513Z" fill="white"/>
</svg>
