<svg width="20" height="20" viewBox="0 0 20 20" fill="none" xmlns="http://www.w3.org/2000/svg">
<path d="M18.3333 8.1263C17.9917 8.1263 17.7083 7.84297 17.7083 7.5013V5.83464C17.7083 3.68464 16.3167 2.29297 14.1667 2.29297H12.5C12.1583 2.29297 11.875 2.00964 11.875 1.66797C11.875 1.3263 12.1583 1.04297 12.5 1.04297H14.1667C17.0333 1.04297 18.9583 2.96797 18.9583 5.83464V7.5013C18.9583 7.84297 18.675 8.1263 18.3333 8.1263Z" fill="white"/>
<path d="M1.66699 8.1263C1.32533 8.1263 1.04199 7.84297 1.04199 7.5013V5.83464C1.04199 2.96797 2.96699 1.04297 5.83366 1.04297H7.50033C7.84199 1.04297 8.12533 1.3263 8.12533 1.66797C8.12533 2.00964 7.84199 2.29297 7.50033 2.29297H5.83366C3.68366 2.29297 2.29199 3.68464 2.29199 5.83464V7.5013C2.29199 7.84297 2.00866 8.1263 1.66699 8.1263Z" fill="white"/>
<path d="M14.1667 18.9583H12.5C12.1583 18.9583 11.875 18.675 11.875 18.3333C11.875 17.9917 12.1583 17.7083 12.5 17.7083H14.1667C16.3167 17.7083 17.7083 16.3167 17.7083 14.1667V12.5C17.7083 12.1583 17.9917 11.875 18.3333 11.875C18.675 11.875 18.9583 12.1583 18.9583 12.5V14.1667C18.9583 17.0333 17.0333 18.9583 14.1667 18.9583Z" fill="white"/>
<path d="M7.50033 18.9583H5.83366C2.96699 18.9583 1.04199 17.0333 1.04199 14.1667V12.5C1.04199 12.1583 1.32533 11.875 1.66699 11.875C2.00866 11.875 2.29199 12.1583 2.29199 12.5V14.1667C2.29199 16.3167 3.68366 17.7083 5.83366 17.7083H7.50033C7.84199 17.7083 8.12533 17.9917 8.12533 18.3333C8.12533 18.675 7.84199 18.9583 7.50033 18.9583Z" fill="white"/>
<path d="M10 8.22266C9.59167 8.22266 9.25 8.55596 9.25 8.97262V11.031C9.25 11.4476 9.58333 11.781 10 11.781C10.4167 11.781 10.75 11.4476 10.75 11.031V8.97262C10.75 8.55596 10.4083 8.22266 10 8.22266Z" fill="white"/>
<path d="M12.9418 6.16641C12.6585 5.88307 12.3335 5.64141 11.9835 5.44141C11.8668 5.38307 11.7418 5.32474 11.6168 5.26641C11.4918 5.21641 11.3668 5.16641 11.2335 5.13307C11.1002 5.09141 10.9668 5.05807 10.8335 5.02474C10.8252 5.02474 10.8085 5.02474 10.8002 5.01641C10.5418 4.96641 10.2752 4.94141 10.0085 4.94141H9.99182C9.72516 4.94141 9.46682 4.96641 9.20849 5.01641C9.17516 5.02474 9.14182 5.02474 9.11682 5.04141C9.00016 5.06641 8.88349 5.09141 8.76682 5.13307C8.62516 5.16641 8.48349 5.22474 8.34182 5.28307C8.23346 5.33307 8.12513 5.39141 8.02513 5.44141C7.90013 5.50807 7.7918 5.58307 7.67513 5.65807C7.45846 5.80807 7.25013 5.97474 7.05846 6.16641C6.9668 6.25807 6.87513 6.35807 6.7918 6.45807C6.70846 6.56641 6.62513 6.66641 6.55013 6.78307C6.47513 6.89141 6.40846 7.00807 6.3418 7.12474C6.02513 7.71641 5.8418 8.39141 5.8418 9.10808V10.8914C5.8418 12.3331 6.57513 13.5997 7.67513 14.3414C7.77513 14.4164 7.88346 14.4747 7.9918 14.5414L8.45016 14.7581C8.68349 14.8497 8.92515 14.9247 9.16682 14.9747C9.43349 15.0247 9.70849 15.0581 9.99182 15.0581C10.0002 15.0581 10.0002 15.0581 10.0085 15.0581C10.2918 15.0581 10.5668 15.0247 10.8335 14.9747C11.0835 14.9247 11.3252 14.8497 11.5585 14.7581C11.7168 14.6914 11.8668 14.6164 12.0085 14.5414C13.2918 13.8331 14.1585 12.4581 14.1585 10.8914V9.10808C14.1585 7.95807 13.6918 6.91641 12.9418 6.16641ZM12.0002 11.0331C12.0002 12.1331 11.1002 13.0331 10.0002 13.0331C8.90015 13.0331 8.00013 12.1331 8.00013 11.0331V8.97475C8.00013 7.87474 8.90015 6.97474 10.0002 6.97474C11.1002 6.97474 12.0002 7.87474 12.0002 8.97475V11.0331Z" fill="white"/>
</svg>
