<svg width="20" height="20" viewBox="0 0 20 20" fill="none" xmlns="http://www.w3.org/2000/svg">
<path d="M10.0003 6.625C8.50866 6.625 7.29199 7.84167 7.29199 9.33332V10.6666C7.29199 12.1583 8.50866 13.375 10.0003 13.375C11.492 13.375 12.7087 12.1583 12.7087 10.6666V9.33332C12.7087 7.84167 11.492 6.625 10.0003 6.625ZM10.7503 11.0333C10.7503 11.45 10.417 11.7833 10.0003 11.7833C9.58366 11.7833 9.25033 11.45 9.25033 11.0333V8.97498C9.25033 8.56665 9.58366 8.225 10.0003 8.225C10.417 8.225 10.7503 8.55832 10.7503 8.97498V11.0333Z" fill="white"/>
<path d="M10.0003 1.66797C5.40033 1.66797 1.66699 5.4013 1.66699 10.0013C1.66699 14.6013 5.40033 18.3346 10.0003 18.3346C14.6003 18.3346 18.3337 14.6013 18.3337 10.0013C18.3337 5.4013 14.6003 1.66797 10.0003 1.66797ZM13.9587 10.668C13.9587 12.8513 12.1837 14.6263 10.0003 14.6263C7.81699 14.6263 6.04199 12.8513 6.04199 10.668V9.33464C6.04199 7.1513 7.81699 5.3763 10.0003 5.3763C12.1837 5.3763 13.9587 7.1513 13.9587 9.33464V10.668Z" fill="white"/>
</svg>
