<svg width="20" height="20" viewBox="0 0 20 20" fill="none" xmlns="http://www.w3.org/2000/svg">
<path d="M17.5003 4.375H11.667C11.3253 4.375 11.042 4.09167 11.042 3.75C11.042 3.40833 11.3253 3.125 11.667 3.125H17.5003C17.842 3.125 18.1253 3.40833 18.1253 3.75C18.1253 4.09167 17.842 4.375 17.5003 4.375Z" fill="white"/>
<path d="M17.5003 8.54297H11.667C11.3253 8.54297 11.042 8.25964 11.042 7.91797C11.042 7.5763 11.3253 7.29297 11.667 7.29297H17.5003C17.842 7.29297 18.1253 7.5763 18.1253 7.91797C18.1253 8.25964 17.842 8.54297 17.5003 8.54297Z" fill="white"/>
<path d="M17.5 12.707H2.5C2.15833 12.707 1.875 12.4237 1.875 12.082C1.875 11.7404 2.15833 11.457 2.5 11.457H17.5C17.8417 11.457 18.125 11.7404 18.125 12.082C18.125 12.4237 17.8417 12.707 17.5 12.707Z" fill="white"/>
<path d="M17.5 16.875H2.5C2.15833 16.875 1.875 16.5917 1.875 16.25C1.875 15.9083 2.15833 15.625 2.5 15.625H17.5C17.8417 15.625 18.125 15.9083 18.125 16.25C18.125 16.5917 17.8417 16.875 17.5 16.875Z" fill="white"/>
<path d="M6.6 2.91797H4.23333C3.06667 2.91797 2.5 3.48464 2.5 4.6513V7.0263C2.5 8.19297 3.06667 8.75964 4.23333 8.75964H6.60833C7.775 8.75964 8.34167 8.19297 8.34167 7.0263V4.6513C8.33333 3.48464 7.76667 2.91797 6.6 2.91797Z" fill="white"/>
</svg>
