<svg width="20" height="20" viewBox="0 0 20 20" fill="none" xmlns="http://www.w3.org/2000/svg">
<path d="M10.0003 1.66797C5.40033 1.66797 1.66699 5.4013 1.66699 10.0013C1.66699 14.6013 5.40033 18.3346 10.0003 18.3346C14.6003 18.3346 18.3337 14.6013 18.3337 10.0013C18.3337 5.4013 14.6003 1.66797 10.0003 1.66797ZM12.942 11.0263L8.62533 14.018C7.99199 14.4596 7.62533 14.2013 7.80866 13.4596L8.60033 10.2596L7.22533 9.91797C6.60033 9.76797 6.52533 9.33464 7.05033 8.96797L11.367 5.9763C12.0003 5.53464 12.367 5.79297 12.1837 6.53464L11.392 9.73464L12.767 10.0763C13.392 10.2346 13.467 10.6596 12.942 11.0263Z" fill="white"/>
</svg>
