<svg width="20" height="20" viewBox="0 0 20 20" fill="none" xmlns="http://www.w3.org/2000/svg">
<path d="M9.97491 1.66797C5.37493 1.66797 1.6416 5.4013 1.6416 10.0013C1.6416 14.6013 5.37493 18.3346 9.97491 18.3346C14.5749 18.3346 18.3082 14.6013 18.3082 10.0013C18.3082 5.4013 14.5832 1.66797 9.97491 1.66797ZM13.0999 10.293L9.99991 13.818L9.63324 14.2346C9.12491 14.8096 8.70824 14.6596 8.70824 13.8846V10.5846H7.2916C6.64993 10.5846 6.47493 10.193 6.89993 9.70963L9.99991 6.18464L10.3666 5.76797C10.8749 5.19297 11.2916 5.34297 11.2916 6.11797V9.41797H12.7082C13.3499 9.41797 13.5249 9.80964 13.0999 10.293Z" fill="white"/>
</svg>
