<svg width="20" height="20" viewBox="0 0 20 20" fill="none" xmlns="http://www.w3.org/2000/svg">
<path d="M7.76694 11.0679H10.3419V17.0679C10.3419 17.9512 11.4419 18.3679 12.0252 17.7012L18.3336 10.5345C18.8836 9.90955 18.4419 8.93455 17.6086 8.93455H15.0336V2.93453C15.0336 2.0512 13.9336 1.63453 13.3502 2.3012L7.04194 9.46788C6.50027 10.0929 6.94194 11.0679 7.76694 11.0679Z" fill="white"/>
<path d="M7.08333 3.95703H1.25C0.908333 3.95703 0.625 3.6737 0.625 3.33203C0.625 2.99036 0.908333 2.70703 1.25 2.70703H7.08333C7.425 2.70703 7.70833 2.99036 7.70833 3.33203C7.70833 3.6737 7.425 3.95703 7.08333 3.95703Z" fill="white"/>
<path d="M6.25 17.293H1.25C0.908333 17.293 0.625 17.0096 0.625 16.668C0.625 16.3263 0.908333 16.043 1.25 16.043H6.25C6.59167 16.043 6.875 16.3263 6.875 16.668C6.875 17.0096 6.59167 17.293 6.25 17.293Z" fill="white"/>
<path d="M3.75 10.625H1.25C0.908333 10.625 0.625 10.3417 0.625 10C0.625 9.65833 0.908333 9.375 1.25 9.375H3.75C4.09167 9.375 4.375 9.65833 4.375 10C4.375 10.3417 4.09167 10.625 3.75 10.625Z" fill="white"/>
</svg>
