<svg width="20" height="20" viewBox="0 0 20 20" fill="none" xmlns="http://www.w3.org/2000/svg">
<path d="M18.1417 1.85938C17.8917 1.60937 17.4834 1.60937 17.2334 1.85938L1.8584 17.2427C1.6084 17.4927 1.6084 17.9011 1.8584 18.1511C1.9834 18.2677 2.14173 18.3344 2.3084 18.3344C2.47507 18.3344 2.6334 18.2677 2.7584 18.1427L18.1417 2.75938C18.4001 2.50937 18.4001 2.10938 18.1417 1.85938Z" fill="white"/>
<path d="M12.3497 2.93536V7.65203L7.64977 12.3521V11.0687H5.07477C3.9081 11.0687 3.5831 10.3521 4.3581 9.47706L9.99975 3.06036L10.6664 2.30203C11.5914 1.25203 12.3497 1.53536 12.3497 2.93536Z" fill="white"/>
<path d="M15.6411 10.5253L9.99942 16.9419L9.33276 17.7003C8.40776 18.7503 7.64941 18.4669 7.64941 17.0669V14.8503L13.5661 8.93359H14.9244C16.0911 8.93359 16.4161 9.65026 15.6411 10.5253Z" fill="white"/>
</svg>
