<svg width="20" height="20" viewBox="0 0 20 20" fill="none" xmlns="http://www.w3.org/2000/svg">
<path d="M17.5144 6.66109C17.846 7.13324 17.4507 7.70964 16.8738 7.70964H2.50033C2.04009 7.70964 1.66699 7.33654 1.66699 6.8763V5.3513C1.66699 3.31797 3.31699 1.66797 5.35033 1.66797H7.28366C8.64199 1.66797 9.06699 2.10964 9.60866 2.83464L10.7753 4.38464C11.0337 4.7263 11.067 4.76797 11.5503 4.76797H13.8753C15.3792 4.76797 16.71 5.51554 17.5144 6.66109Z" fill="white"/>
<path d="M18.3198 9.78753C18.3182 9.32845 17.9456 8.95703 17.4865 8.95703H2.50033C2.04009 8.95703 1.66699 9.33011 1.66699 9.79036V13.8737C1.66699 16.332 3.66699 18.332 6.12533 18.332H13.8753C16.3337 18.332 18.3337 16.332 18.3337 13.8737L18.3198 9.78753ZM12.117 14.1404L10.3253 15.707C10.2337 15.7904 10.117 15.832 10.0003 15.832C9.88366 15.832 9.76699 15.7904 9.67533 15.707L7.88366 14.1404C7.31699 13.6404 7.24199 12.7904 7.71699 12.1987C8.19199 11.5987 9.05033 11.4904 9.66699 11.9487L10.0003 12.1987L10.3337 11.9487C10.9503 11.4904 11.8087 11.5987 12.2837 12.1987C12.7587 12.7904 12.6837 13.6404 12.117 14.1404Z" fill="white"/>
</svg>
