<svg width="20" height="20" viewBox="0 0 20 20" fill="none" xmlns="http://www.w3.org/2000/svg">
<path d="M12.9828 16.4174C11.2245 16.5424 11.2245 19.0924 12.9828 19.2174H17.1578C17.6661 19.2174 18.1495 19.0341 18.5245 18.6924C19.7578 17.6174 19.0995 15.4508 17.4745 15.2508C16.8911 11.7341 11.7995 13.0674 13.0078 16.4174" fill="white"/>
<path d="M12.9828 16.4174C11.2245 16.5424 11.2245 19.0924 12.9828 19.2174H17.1578C17.6661 19.2174 18.1495 19.0341 18.5245 18.6924C19.7578 17.6174 19.0995 15.4508 17.4745 15.2508C16.8911 11.7341 11.7995 13.0674 13.0078 16.4174" fill="white"/>
<path d="M18.3337 9.2263V12.7846C18.3337 13.0513 17.9087 13.168 17.7253 12.9763C17.3337 12.568 16.842 12.2596 16.2753 12.0846C14.967 11.6763 13.4587 12.0763 12.5087 13.0596C11.9087 13.7013 11.5837 14.5013 11.567 15.368C11.567 15.518 11.492 15.6513 11.3753 15.743C10.7753 16.218 10.4087 16.9596 10.4087 17.8096V17.818C10.4087 18.0846 10.217 18.3263 9.95032 18.3263H6.11699C3.66699 18.3346 1.66699 16.3346 1.66699 13.8763V5.3513C1.66699 3.31797 3.31699 1.66797 5.35033 1.66797H7.28366C8.64199 1.66797 9.06699 2.10964 9.60866 2.83464L10.7753 4.38464C11.0337 4.7263 11.067 4.76797 11.5503 4.76797H13.8753C15.8587 4.76797 17.542 6.06797 18.117 7.86797C18.242 8.24297 18.3087 8.6263 18.3253 9.03464C18.3337 9.09297 18.3337 9.16797 18.3337 9.2263Z" fill="white"/>
</svg>
