<svg width="20" height="20" viewBox="0 0 20 20" fill="none" xmlns="http://www.w3.org/2000/svg">
<path d="M17.5144 6.66109C17.846 7.13324 17.4507 7.70964 16.8738 7.70964H2.50033C2.04009 7.70964 1.66699 7.33654 1.66699 6.8763V5.3513C1.66699 3.31797 3.31699 1.66797 5.35033 1.66797H7.28366C8.64199 1.66797 9.06699 2.10964 9.60866 2.83464L10.7753 4.38464C11.0337 4.7263 11.067 4.76797 11.5503 4.76797H13.8753C15.3792 4.76797 16.71 5.51554 17.5144 6.66109Z" fill="white"/>
<path d="M18.3198 9.78753C18.3182 9.32845 17.9456 8.95703 17.4865 8.95703L2.50031 8.95728C2.04008 8.95728 1.66699 9.33036 1.66699 9.79061V13.8739C1.66699 16.3323 3.66699 18.3323 6.12533 18.3323H13.8753C16.3337 18.3323 18.3337 16.3323 18.3337 13.8739L18.3198 9.78753ZM11.9503 15.2323C11.8253 15.3489 11.667 15.4156 11.5087 15.4156C11.3503 15.4156 11.1837 15.3489 11.067 15.2323L10.0337 14.1989L8.96699 15.2656C8.85033 15.3823 8.68366 15.4489 8.52532 15.4489C8.36699 15.4489 8.20866 15.3823 8.08366 15.2656C7.84199 15.0239 7.84199 14.6239 8.08366 14.3823L9.15032 13.3156L8.11699 12.2823C7.87533 12.0406 7.87533 11.6406 8.11699 11.3989C8.36699 11.1573 8.75866 11.1573 9.00033 11.3989L10.0337 12.4323L11.0337 11.4323C11.2753 11.1906 11.667 11.1906 11.917 11.4323C12.1587 11.6823 12.1587 12.0739 11.917 12.3156L10.917 13.3156L11.9503 14.3489C12.192 14.5906 12.192 14.9906 11.9503 15.2323Z" fill="white"/>
</svg>
