<svg width="20" height="20" viewBox="0 0 20 20" fill="none" xmlns="http://www.w3.org/2000/svg">
<path d="M16.1956 3.36337C16.3059 3.53664 16.117 3.73848 15.9167 3.69297C15.5251 3.5763 15.0917 3.51797 14.6501 3.51797H11.8999C11.7688 3.51797 11.6455 3.45634 11.5667 3.35161L10.6084 2.0763C10.4911 1.91 10.602 1.66797 10.8056 1.66797H13.1001C14.4009 1.66797 15.5468 2.34358 16.1956 3.36337Z" fill="white"/>
<path d="M16.7837 5.4513C16.4253 5.19297 16.017 5.0013 15.5753 4.89297C15.2753 4.80964 14.967 4.76797 14.6503 4.76797H11.5503C11.067 4.76797 11.0337 4.7263 10.7753 4.38464L9.60866 2.83464C9.06699 2.10964 8.64199 1.66797 7.28366 1.66797H5.35033C3.31699 1.66797 1.66699 3.31797 1.66699 5.3513V14.6513C1.66699 16.6846 3.31699 18.3346 5.35033 18.3346H14.6503C16.6837 18.3346 18.3337 16.6846 18.3337 14.6513V8.4513C18.3337 7.20964 17.7253 6.11797 16.7837 5.4513ZM11.992 13.618H8.00033C7.67533 13.618 7.42533 13.3596 7.42533 13.0346C7.42533 12.718 7.67533 12.4513 8.00033 12.4513H11.992C12.317 12.4513 12.5753 12.718 12.5753 13.0346C12.5753 13.3596 12.317 13.618 11.992 13.618Z" fill="white"/>
</svg>
