<svg width="20" height="20" viewBox="0 0 20 20" fill="none" xmlns="http://www.w3.org/2000/svg">
<path d="M10.6253 13.3346H12.917C15.2503 13.3346 15.8337 12.7513 15.8337 10.418V6.91797C15.8337 4.58464 15.2503 4.0013 12.917 4.0013H11.167C10.5837 4.0013 10.4587 3.8263 10.2337 3.53464L9.35866 2.36797C9.02533 1.9263 8.83366 1.66797 7.95866 1.66797H7.08366C4.75033 1.66797 4.16699 2.2513 4.16699 4.58464V10.418C4.16699 12.7513 4.75033 13.3346 7.08366 13.3346H9.37533V15.8346C9.37533 15.8763 9.39199 15.9096 9.40033 15.9513C8.96699 16.118 8.61699 16.468 8.45033 16.9013C8.40866 16.893 8.37533 16.8763 8.33366 16.8763H5.00033C4.65866 16.8763 4.37533 17.1596 4.37533 17.5013C4.37533 17.843 4.65866 18.1263 5.00033 18.1263H8.33366C8.37533 18.1263 8.40866 18.1096 8.45033 18.1013C8.69199 18.7263 9.29199 19.168 10.0003 19.168C10.7087 19.168 11.3087 18.7263 11.5503 18.1013C11.592 18.1096 11.6253 18.1263 11.667 18.1263H15.0003C15.342 18.1263 15.6253 17.843 15.6253 17.5013C15.6253 17.1596 15.342 16.8763 15.0003 16.8763H11.667C11.6253 16.8763 11.592 16.893 11.5503 16.9013C11.3837 16.468 11.0337 16.118 10.6003 15.9513C10.6087 15.9096 10.6253 15.8763 10.6253 15.8346V13.3346Z" fill="white"/>
</svg>
