<svg width="20" height="20" viewBox="0 0 20 20" fill="none" xmlns="http://www.w3.org/2000/svg">
<path d="M17.5144 6.66109C17.846 7.13324 17.4507 7.70964 16.8738 7.70964H2.50033C2.04009 7.70964 1.66699 7.33654 1.66699 6.8763V5.3513C1.66699 3.31797 3.31699 1.66797 5.35033 1.66797H7.28366C8.64199 1.66797 9.06699 2.10964 9.60866 2.83464L10.7753 4.38464C11.0337 4.7263 11.067 4.76797 11.5503 4.76797H13.8753C15.3792 4.76797 16.71 5.51554 17.5144 6.66109Z" fill="white"/>
<path d="M18.3198 9.78753C18.3182 9.32845 17.9456 8.95703 17.4865 8.95703L2.50031 8.95728C2.04008 8.95728 1.66699 9.33045 1.66699 9.79061V13.874C1.66699 16.3324 3.66699 18.3324 6.12533 18.3324H13.8753C16.3337 18.3324 18.3337 16.3324 18.3337 13.874L18.3198 9.78753ZM12.0837 13.9574H10.6753V15.4157C10.6753 15.7574 10.392 16.0407 10.0503 16.0407C9.70033 16.0407 9.42533 15.7574 9.42533 15.4157V13.9574H7.91699C7.57533 13.9574 7.29199 13.674 7.29199 13.3324C7.29199 12.9907 7.57533 12.7074 7.91699 12.7074H9.42533V11.249C9.42533 10.9074 9.70033 10.624 10.0503 10.624C10.392 10.624 10.6753 10.9074 10.6753 11.249V12.7074H12.0837C12.4253 12.7074 12.7087 12.9907 12.7087 13.3324C12.7087 13.674 12.4253 13.9574 12.0837 13.9574Z" fill="white"/>
</svg>
