<svg width="20" height="20" viewBox="0 0 20 20" fill="none" xmlns="http://www.w3.org/2000/svg">
<path d="M17.6003 5.81797L14.1837 2.4013C13.7837 2.0013 12.9837 1.66797 12.417 1.66797H7.58366C7.01699 1.66797 6.21699 2.0013 5.81699 2.4013L2.40033 5.81797C2.00033 6.21797 1.66699 7.01797 1.66699 7.58464V12.418C1.66699 12.9846 2.00033 13.7846 2.40033 14.1846L5.81699 17.6013C6.21699 18.0013 7.01699 18.3346 7.58366 18.3346H12.417C12.9837 18.3346 13.7837 18.0013 14.1837 17.6013L17.6003 14.1846C18.0003 13.7846 18.3337 12.9846 18.3337 12.418V7.58464C18.3337 7.01797 18.0003 6.21797 17.6003 5.81797ZM13.3587 12.4763C13.6003 12.718 13.6003 13.118 13.3587 13.3596C13.2337 13.4846 13.0753 13.543 12.917 13.543C12.7587 13.543 12.6003 13.4846 12.4753 13.3596L10.0003 10.8846L7.52533 13.3596C7.40033 13.4846 7.24199 13.543 7.08366 13.543C6.92533 13.543 6.76699 13.4846 6.64199 13.3596C6.40033 13.118 6.40033 12.718 6.64199 12.4763L9.11699 10.0013L6.64199 7.5263C6.40033 7.28464 6.40033 6.88464 6.64199 6.64297C6.88366 6.4013 7.28366 6.4013 7.52533 6.64297L10.0003 9.11797L12.4753 6.64297C12.717 6.4013 13.117 6.4013 13.3587 6.64297C13.6003 6.88464 13.6003 7.28464 13.3587 7.5263L10.8837 10.0013L13.3587 12.4763Z" fill="white"/>
</svg>
