<svg width="20" height="20" viewBox="0 0 20 20" fill="none" xmlns="http://www.w3.org/2000/svg">
<path d="M14.1837 2.4013C13.7837 2.0013 12.9837 1.66797 12.417 1.66797H7.58366C7.01699 1.66797 6.21699 2.0013 5.81699 2.4013L2.40033 5.81797C2.00033 6.21797 1.66699 7.01797 1.66699 7.58464V12.418C1.66699 12.9846 2.00033 13.7846 2.40033 14.1846L3.67533 15.4596L15.4587 3.6763L14.1837 2.4013Z" fill="white"/>
<path d="M17.6002 5.81693L16.3419 4.55859L4.55859 16.3419L5.81693 17.6003C6.21693 18.0003 7.01693 18.3336 7.58359 18.3336H12.4169C12.9836 18.3336 13.7836 18.0003 14.1836 17.6003L17.6002 14.1836C18.0002 13.7836 18.3336 12.9836 18.3336 12.4169V7.58359C18.3336 7.01693 18.0002 6.21693 17.6002 5.81693Z" fill="white"/>
<path d="M2.0748 17.0609C1.83314 17.3026 1.83314 17.7026 2.0748 17.9443C2.1998 18.0693 2.35814 18.1276 2.51647 18.1276C2.6748 18.1276 2.83314 18.0693 2.95814 17.9443L4.55814 16.3443L3.6748 15.4609L2.0748 17.0609Z" fill="white"/>
<path d="M17.9413 2.95911C18.183 2.71745 18.183 2.31745 17.9413 2.07578C17.6997 1.83411 17.2997 1.83411 17.058 2.07578L15.458 3.67578L16.3413 4.55911L17.9413 2.95911Z" fill="white"/>
</svg>
