<svg width="20" height="20" viewBox="0 0 20 20" fill="none" xmlns="http://www.w3.org/2000/svg">
<path d="M17.5837 6.55964C18.067 6.0263 18.3337 5.33464 18.3337 4.60964C18.3337 2.98464 17.017 1.66797 15.392 1.66797C14.667 1.66797 13.9837 1.93464 13.4503 2.41797C12.3753 1.91797 11.217 1.66797 10.0003 1.66797C8.80866 1.66797 7.62533 1.9263 6.55866 2.41797C6.02533 1.93464 5.33366 1.66797 4.60866 1.66797C2.98366 1.66797 1.66699 2.98464 1.66699 4.60964C1.66699 5.33464 1.93366 6.0263 2.41699 6.55964C1.92533 7.6263 1.66699 8.80964 1.66699 10.0013C1.66699 11.218 1.91699 12.3763 2.41699 13.4513C1.93366 13.9846 1.66699 14.668 1.66699 15.393C1.66699 17.018 2.98366 18.3346 4.60866 18.3346C5.33366 18.3346 6.02533 18.068 6.55866 17.5846C7.62533 18.0763 8.80866 18.3346 10.0003 18.3346C11.217 18.3346 12.3753 18.0846 13.4503 17.5846C13.9837 18.068 14.667 18.3346 15.392 18.3346C17.017 18.3346 18.3337 17.018 18.3337 15.393C18.3337 14.668 18.067 13.9846 17.5837 13.4513C18.0837 12.3763 18.3337 11.218 18.3337 10.0013C18.3337 8.80964 18.0753 7.6263 17.5837 6.55964ZM16.4003 12.643C16.3087 12.6096 16.217 12.5763 16.1253 12.5513C15.9837 12.518 15.8337 12.493 15.692 12.4763C15.592 12.468 15.492 12.4596 15.392 12.4596C13.7753 12.4596 12.4587 13.7763 12.4587 15.393C12.4587 15.493 12.467 15.593 12.4753 15.693C12.492 15.8346 12.517 15.9846 12.5503 16.1263C12.5753 16.218 12.6087 16.3096 12.642 16.4013C12.642 16.4263 12.6503 16.4513 12.667 16.4763C12.6753 16.5013 12.6837 16.5263 12.692 16.5513C11.017 17.2513 9.01699 17.2596 7.30866 16.5513C7.31699 16.5263 7.32533 16.5013 7.33366 16.4763C7.35033 16.4513 7.35866 16.4263 7.35866 16.4013C7.39199 16.3096 7.42533 16.218 7.45033 16.1263C7.48366 15.9846 7.50866 15.8346 7.52533 15.693C7.53366 15.593 7.54199 15.493 7.54199 15.393C7.54199 13.7763 6.22533 12.4596 4.60866 12.4596C4.50866 12.4596 4.40866 12.468 4.30866 12.4763C4.16699 12.493 4.01699 12.518 3.87533 12.5513C3.78366 12.5763 3.69199 12.6096 3.60033 12.643C3.57533 12.643 3.55033 12.6513 3.52533 12.668C3.50033 12.6763 3.47533 12.6846 3.45033 12.693C3.09199 11.8513 2.91699 10.943 2.91699 10.0013C2.91699 9.0763 3.10033 8.1513 3.45033 7.30964C3.45866 7.30964 3.47533 7.31797 3.48366 7.31797C3.38366 7.2763 3.27533 7.2263 3.18366 7.1763C3.05033 7.1013 2.91699 7.01797 2.79199 6.91797C3.04199 7.10964 3.30866 7.25964 3.60033 7.35964C3.70033 7.4013 3.80866 7.43464 3.90866 7.45964C3.97533 7.4763 4.03366 7.48464 4.09199 7.49297C4.16699 7.50964 4.23366 7.51797 4.30866 7.5263C4.40866 7.53464 4.50866 7.54297 4.60866 7.54297C6.22533 7.54297 7.54199 6.2263 7.54199 4.60964C7.54199 4.50964 7.53366 4.40964 7.52533 4.30964C7.51699 4.23464 7.50866 4.16797 7.49199 4.09297C7.48366 4.03464 7.47533 3.9763 7.45866 3.90964C7.43366 3.80964 7.40033 3.7013 7.35866 3.6013C7.25866 3.30964 7.10866 3.04297 6.91699 2.79297C7.01699 2.91797 7.10033 3.0513 7.17533 3.18464C7.22533 3.2763 7.27533 3.38464 7.31699 3.48464C7.31699 3.4763 7.30866 3.45964 7.30866 3.4513C9.00866 2.74297 11.017 2.7513 12.692 3.4513C12.6837 3.4763 12.6753 3.5013 12.667 3.5263C12.6503 3.5513 12.642 3.5763 12.642 3.6013C12.6087 3.69297 12.5753 3.78464 12.5503 3.8763C12.517 4.01797 12.492 4.16797 12.4753 4.30964C12.467 4.40964 12.4587 4.50964 12.4587 4.60964C12.4587 6.2263 13.7753 7.54297 15.392 7.54297C15.492 7.54297 15.592 7.53464 15.692 7.5263C15.8337 7.50964 15.9837 7.48463 16.1253 7.4513C16.217 7.4263 16.3087 7.39297 16.4003 7.35964C16.4253 7.35964 16.4503 7.3513 16.4753 7.33464C16.5003 7.3263 16.5253 7.31797 16.5503 7.30964C16.9003 8.1513 17.0837 9.0763 17.0837 10.0013C17.0837 10.943 16.9087 11.8513 16.5503 12.693C16.5253 12.6846 16.5003 12.6763 16.4753 12.668C16.4503 12.6513 16.4253 12.643 16.4003 12.643Z" fill="white"/>
</svg>
