<svg width="20" height="20" viewBox="0 0 20 20" fill="none" xmlns="http://www.w3.org/2000/svg">
<path d="M17.292 13.7513V6.2513C18.2837 5.83464 18.9587 4.85964 18.9587 3.7513C18.9587 2.25964 17.742 1.04297 16.2503 1.04297C15.1503 1.04297 14.167 1.71797 13.7503 2.70964H6.25033C5.83366 1.71797 4.85866 1.04297 3.75033 1.04297C2.25866 1.04297 1.04199 2.25964 1.04199 3.7513C1.04199 4.8513 1.71699 5.83464 2.70866 6.2513V13.7513C1.71699 14.168 1.04199 15.143 1.04199 16.2513C1.04199 17.743 2.25866 18.9596 3.75033 18.9596C4.85033 18.9596 5.83366 18.2846 6.25033 17.293H13.7503C14.167 18.2846 15.142 18.9596 16.2503 18.9596C17.742 18.9596 18.9587 17.743 18.9587 16.2513C18.9587 15.1513 18.2837 14.168 17.292 13.7513ZM15.967 13.5596C15.8753 13.568 15.792 13.5846 15.7003 13.6013C15.4753 13.643 15.2587 13.718 15.0503 13.8263C15.0003 13.8513 14.9503 13.8763 14.9003 13.9096C14.4837 14.143 14.142 14.4846 13.9087 14.9013C13.8753 14.9513 13.8503 15.0013 13.8253 15.0513C13.717 15.2596 13.642 15.4763 13.6003 15.7013C13.5837 15.793 13.567 15.8763 13.5587 15.968C13.5503 15.993 13.5503 16.018 13.5503 16.043H6.45033C6.43366 15.8346 6.39199 15.6346 6.33366 15.443C6.31699 15.3763 6.29199 15.3013 6.25866 15.2346C6.23366 15.1763 6.20866 15.118 6.17533 15.0513C6.15033 15.0013 6.12533 14.9513 6.09199 14.9013C5.85866 14.4846 5.51699 14.143 5.10033 13.9096C5.05033 13.8763 5.00033 13.8513 4.95033 13.8263C4.88366 13.793 4.82533 13.768 4.76699 13.743C4.70033 13.7096 4.62533 13.6846 4.55866 13.668C4.36699 13.6096 4.16699 13.568 3.95866 13.5513V6.4513C4.17533 6.43464 4.37533 6.39297 4.57533 6.3263C4.65033 6.30964 4.73366 6.2763 4.80866 6.24297C4.85033 6.2263 4.90033 6.2013 4.95033 6.1763C5.00033 6.1513 5.05033 6.1263 5.10033 6.09297C5.51699 5.85964 5.85866 5.51797 6.09199 5.1013C6.12533 5.0513 6.15033 5.0013 6.17533 4.9513C6.20033 4.9013 6.22533 4.8513 6.24199 4.80964C6.27533 4.73464 6.30866 4.6513 6.32533 4.5763C6.39199 4.3763 6.43366 4.1763 6.45033 3.95964H13.5503C13.567 4.18464 13.6087 4.39297 13.6837 4.6013C13.7003 4.66797 13.7253 4.74297 13.7587 4.80964C13.7753 4.85964 13.8003 4.9013 13.8253 4.9513C13.8503 5.0013 13.8753 5.0513 13.9087 5.1013C14.142 5.51797 14.4837 5.85964 14.9003 6.09297C14.9503 6.1263 15.0003 6.1513 15.0503 6.1763C15.1003 6.2013 15.142 6.2263 15.192 6.24297C15.2587 6.2763 15.3337 6.3013 15.4003 6.31797C15.6087 6.39297 15.817 6.43464 16.042 6.4513V13.5513C16.017 13.5513 15.992 13.5513 15.967 13.5596Z" fill="white"/>
</svg>
