<svg width="20" height="20" viewBox="0 0 20 20" fill="none" xmlns="http://www.w3.org/2000/svg">
<path d="M16.408 6.12504C16.1997 5.85004 15.808 5.79171 15.533 6.00004C15.258 6.20838 15.1997 6.60004 15.408 6.87504C16.308 8.07504 16.783 9.47501 16.783 10.925C16.783 14.6667 13.7413 17.7083 9.99967 17.7083C6.25801 17.7083 3.21634 14.6667 3.21634 10.925C3.21634 7.18338 6.25801 4.15004 9.99967 4.15004C10.483 4.15004 10.9747 4.20838 11.508 4.33338C11.533 4.34171 11.558 4.33338 11.5913 4.33338C11.608 4.33338 11.633 4.35004 11.6497 4.35004C11.6747 4.35004 11.6913 4.34171 11.7163 4.34171C11.7497 4.34171 11.7747 4.33338 11.7997 4.32504C11.8413 4.31671 11.883 4.30004 11.9247 4.27504C11.9497 4.25838 11.983 4.25004 12.008 4.23338C12.0163 4.22504 12.033 4.22504 12.0413 4.21671C12.0663 4.20004 12.0747 4.17504 12.0913 4.15838C12.1247 4.12504 12.1497 4.10004 12.1747 4.05838C12.1997 4.02504 12.208 3.98338 12.2247 3.95004C12.233 3.92504 12.2497 3.90004 12.258 3.87504C12.258 3.85838 12.258 3.85004 12.258 3.83338C12.2663 3.79171 12.2663 3.75004 12.258 3.70838C12.258 3.66671 12.258 3.63338 12.2497 3.59171C12.2413 3.55838 12.2247 3.52504 12.208 3.48338C12.1913 3.44171 12.1747 3.40004 12.1497 3.36671C12.1413 3.35004 12.1413 3.34171 12.133 3.33338L10.483 1.27504C10.2663 1.00838 9.87467 0.966711 9.608 1.17504C9.34133 1.39171 9.29967 1.78338 9.508 2.05004L10.1913 2.90004C10.1247 2.90004 10.058 2.89171 9.99133 2.89171C5.56634 2.89171 1.95801 6.49171 1.95801 10.925C1.95801 15.3583 5.55801 18.9583 9.99133 18.9583C14.4247 18.9583 18.0247 15.3583 18.0247 10.925C18.033 9.20001 17.4663 7.54171 16.408 6.12504Z" fill="white"/>
<path d="M7.94995 13.8904C7.60828 13.8904 7.32495 13.607 7.32495 13.2654V10.4404L7.16662 10.6237C6.93328 10.882 6.54162 10.8987 6.28328 10.6737C6.02495 10.4404 6.00828 10.0487 6.23328 9.79038L7.48328 8.39872C7.65828 8.20706 7.93328 8.14039 8.17495 8.23206C8.41666 8.32372 8.57499 8.55705 8.57499 8.81538V13.2737C8.57499 13.6154 8.29995 13.8904 7.94995 13.8904Z" fill="white"/>
<path d="M11.6667 13.8919C10.4 13.8919 9.375 12.8669 9.375 11.6003V10.4753C9.375 9.20859 10.4 8.18359 11.6667 8.18359C12.9333 8.18359 13.9583 9.20859 13.9583 10.4753V11.6003C13.9583 12.8669 12.9333 13.8919 11.6667 13.8919ZM11.6667 9.44192C11.0917 9.44192 10.625 9.90859 10.625 10.4836V11.6086C10.625 12.1836 11.0917 12.6503 11.6667 12.6503C12.2417 12.6503 12.7083 12.1836 12.7083 11.6086V10.4836C12.7083 9.90859 12.2417 9.44192 11.6667 9.44192Z" fill="white"/>
</svg>
