<svg width="20" height="20" viewBox="0 0 20 20" fill="none" xmlns="http://www.w3.org/2000/svg">
<path d="M17.7088 4.80964V7.5013C17.7088 9.26347 17.1189 9.91713 15.526 10.007C15.2963 10.0199 15.1088 9.83139 15.1088 9.6013V8.6513C15.1088 6.0513 13.9504 4.89297 11.3504 4.89297H10.4004C10.1703 4.89297 9.98178 4.70542 9.99478 4.47567C10.0845 2.88274 10.7383 2.29297 12.5004 2.29297H15.1921C17.1004 2.29297 17.7088 2.9013 17.7088 4.80964Z" fill="white"/>
<path d="M13.8583 8.64892V11.3489C13.8583 13.2489 13.2499 13.8573 11.3499 13.8573H8.64992C6.74994 13.8573 6.1416 13.2489 6.1416 11.3489V8.64892C6.1416 6.74896 6.74994 6.14062 8.64992 6.14062H11.3499C13.2499 6.14062 13.8583 6.74896 13.8583 8.64892Z" fill="white"/>
<path d="M9.60033 15.1068C9.83041 15.1068 10.0189 15.2943 10.006 15.5241C9.91616 17.117 9.26249 17.7068 7.50033 17.7068H4.80866C2.90033 17.7068 2.29199 17.0985 2.29199 15.1902V12.4985C2.29199 10.7363 2.88177 10.0826 4.47469 9.99282C4.70444 9.97982 4.89199 10.1683 4.89199 10.3985V11.3485C4.89199 13.9485 6.05033 15.1068 8.65033 15.1068H9.60033Z" fill="white"/>
</svg>
