<svg width="20" height="20" viewBox="0 0 20 20" fill="none" xmlns="http://www.w3.org/2000/svg">
<path d="M13.492 1.66797H6.50866C3.47533 1.66797 1.66699 3.4763 1.66699 6.50964V13.4846C1.66699 16.5263 3.47533 18.3346 6.50866 18.3346H13.4837C16.517 18.3346 18.3253 16.5263 18.3253 13.493V6.50964C18.3337 3.4763 16.5253 1.66797 13.492 1.66797ZM14.6087 8.1013L13.3003 9.40964C13.1753 9.53464 13.017 9.59297 12.8587 9.59297C12.7003 9.59297 12.542 9.53464 12.417 9.40964C12.1753 9.16797 12.1753 8.76797 12.417 8.5263L12.6337 8.30964H8.40033C7.33366 8.30964 6.45866 9.1763 6.45866 10.2513C6.45866 11.3263 7.32533 12.193 8.40033 12.193H12.5003C12.842 12.193 13.1253 12.4763 13.1253 12.818C13.1253 13.1596 12.842 13.443 12.5003 13.443H8.40033C6.64199 13.443 5.20866 12.0096 5.20866 10.2513C5.20866 8.49297 6.64199 7.05964 8.40033 7.05964H12.692L12.417 6.79297C12.1753 6.5513 12.1753 6.1513 12.417 5.90964C12.6587 5.66797 13.0587 5.66797 13.3003 5.90964L14.6087 7.21797C14.8503 7.46797 14.8503 7.85964 14.6087 8.1013Z" fill="white"/>
</svg>
