<svg width="20" height="20" viewBox="0 0 20 20" fill="none" xmlns="http://www.w3.org/2000/svg">
<path d="M16.2332 5.90747C16.0165 5.6408 15.6248 5.59913 15.3582 5.8158C15.0915 6.03247 15.0498 6.42413 15.2665 6.6908C16.2082 7.85747 16.7332 9.24078 16.7832 10.6908C16.9165 14.4241 13.9832 17.5741 10.2415 17.6991C6.49986 17.8324 3.3582 14.8991 3.22486 11.1658C3.09153 7.43247 6.02486 4.28247 9.76651 4.15747C10.2415 4.1408 10.7415 4.18247 11.2832 4.2908C11.3165 4.29913 11.3498 4.2908 11.3832 4.2908C11.4665 4.33247 11.5665 4.35747 11.6582 4.35747C11.7998 4.35747 11.9332 4.3158 12.0498 4.2158C12.3165 3.99913 12.3582 3.60747 12.1498 3.3408L10.4998 1.28247C10.2832 1.0158 9.89151 0.965799 9.62484 1.18247C9.35817 1.39913 9.31651 1.7908 9.52484 2.05747L10.2165 2.9158C10.0582 2.90747 9.89151 2.89913 9.73317 2.90747C5.3082 3.05747 1.8332 6.7908 1.99153 11.2158C2.14986 15.6408 5.87486 19.1158 10.2998 18.9575C14.7248 18.7991 18.1998 15.0741 18.0415 10.6491C17.9665 8.92412 17.3498 7.28247 16.2332 5.90747Z" fill="white"/>
<path d="M10.3162 14.099H8.40784C8.0662 14.099 7.78287 13.8156 7.78287 13.474C7.78287 13.1323 8.0662 12.849 8.40784 12.849H10.3162C10.6745 12.849 10.9662 12.5573 10.9662 12.199C10.9662 11.8406 10.6745 11.549 10.3162 11.549H8.40784C8.20787 11.549 8.0162 11.449 7.89954 11.2906C7.78287 11.1323 7.74954 10.9156 7.8162 10.724L8.4495 8.81563C8.53284 8.55729 8.7745 8.39062 9.04117 8.39062H11.5912C11.9328 8.39062 12.2162 8.67396 12.2162 9.01563C12.2162 9.35729 11.9328 9.64063 11.5912 9.64063H9.49117L9.2745 10.299H10.3162C11.3662 10.299 12.2162 11.149 12.2162 12.199C12.2162 13.249 11.3662 14.099 10.3162 14.099Z" fill="white"/>
</svg>
