<svg width="20" height="20" viewBox="0 0 20 20" fill="none" xmlns="http://www.w3.org/2000/svg">
<path d="M12.0252 14.099H10.1169C9.77519 14.099 9.49186 13.8156 9.49186 13.474C9.49186 13.1323 9.77519 12.849 10.1169 12.849H12.0252C12.3835 12.849 12.6752 12.5573 12.6752 12.199C12.6752 11.8406 12.3835 11.549 12.0252 11.549H10.1169C9.91686 11.549 9.72519 11.449 9.60852 11.2906C9.49186 11.1323 9.45852 10.9156 9.52519 10.724L10.1585 8.81563C10.2419 8.55729 10.4835 8.39062 10.7502 8.39062H13.3002C13.6419 8.39062 13.9252 8.67396 13.9252 9.01563C13.9252 9.35729 13.6419 9.64063 13.3002 9.64063H11.2002L10.9835 10.299H12.0252C13.0752 10.299 13.9252 11.149 13.9252 12.199C13.9252 13.249 13.0669 14.099 12.0252 14.099Z" fill="white"/>
<path d="M7.95067 14.1013C7.609 14.1013 7.32567 13.818 7.32567 13.4763V10.6513L7.16733 10.8347C6.934 11.093 6.54233 11.1097 6.284 10.8847C6.034 10.6513 6.009 10.2597 6.24233 10.0013L7.49233 8.60966C7.66733 8.41799 7.94233 8.35133 8.184 8.44299C8.42566 8.53466 8.58399 8.76799 8.58399 9.02633V13.4847C8.57566 13.8263 8.30067 14.1013 7.95067 14.1013Z" fill="white"/>
<path d="M16.408 6.12465C16.1997 5.84965 15.808 5.79132 15.533 5.99965C15.258 6.20799 15.1997 6.59965 15.408 6.87465C16.308 8.07465 16.783 9.47469 16.783 10.9247C16.783 14.6664 13.7413 17.708 9.99967 17.708C6.25801 17.708 3.21634 14.6664 3.21634 10.9247C3.21634 7.18299 6.25801 4.14965 9.99967 4.14965C10.483 4.14965 10.9747 4.20799 11.508 4.33299C11.533 4.34132 11.558 4.33299 11.583 4.33299C11.608 4.33299 11.6247 4.34965 11.6413 4.34965C11.6663 4.34965 11.683 4.34132 11.708 4.34132C11.733 4.34132 11.758 4.33299 11.7913 4.32465C11.8413 4.31632 11.883 4.29132 11.9247 4.27465C11.9497 4.25799 11.9747 4.24965 11.9997 4.23299C12.008 4.22465 12.0247 4.22465 12.033 4.21632C12.058 4.19965 12.0663 4.17465 12.083 4.15799C12.1163 4.12465 12.1413 4.09965 12.1663 4.05799C12.1913 4.02465 12.1997 3.98299 12.2163 3.94132C12.2247 3.91632 12.2413 3.89132 12.2497 3.86632C12.2497 3.84965 12.2497 3.84132 12.2497 3.82465C12.258 3.78299 12.258 3.74132 12.2497 3.69965C12.2497 3.65799 12.2497 3.62465 12.2413 3.58299C12.233 3.54965 12.2163 3.51632 12.1997 3.47465C12.183 3.43299 12.1663 3.39132 12.1413 3.35799C12.1413 3.34965 12.1413 3.34132 12.133 3.33299L10.483 1.27465C10.2663 1.00799 9.87467 0.957987 9.608 1.17465C9.34133 1.39132 9.29967 1.78299 9.508 2.04965L10.1913 2.89965C10.1247 2.89965 10.058 2.89132 9.99133 2.89132C5.56634 2.89132 1.95801 6.49132 1.95801 10.9247C1.95801 15.358 5.55801 18.958 9.99133 18.958C14.4247 18.958 18.0247 15.358 18.0247 10.9247C18.033 9.19969 17.4663 7.54132 16.408 6.12465Z" fill="white"/>
</svg>
