<svg width="20" height="20" viewBox="0 0 20 20" fill="none" xmlns="http://www.w3.org/2000/svg">
<path d="M6.68301 3.84766H5.81634C4.49134 3.84766 3.95801 4.34766 3.95801 5.61432V15.5143H8.54134V5.61432C8.53301 4.34766 7.99968 3.84766 6.68301 3.84766Z" fill="white"/>
<path d="M13.767 8.01562H12.9003C11.5753 8.01562 11.042 8.52393 11.042 9.78226V15.5156H15.6253V9.78226C15.6253 8.52393 15.0837 8.01562 13.767 8.01562Z" fill="white"/>
<path d="M2.29199 14.9023H17.7087C18.0503 14.9023 18.3337 15.1857 18.3337 15.5273C18.3337 15.869 18.0503 16.1523 17.7087 16.1523H2.29199C1.95033 16.1523 1.66699 15.869 1.66699 15.519C1.66699 15.169 1.95033 14.9023 2.29199 14.9023Z" fill="white"/>
</svg>
