<svg width="20" height="20" viewBox="0 0 20 20" fill="none" xmlns="http://www.w3.org/2000/svg">
<path d="M17.0078 5.79922V7.32422C17.0078 7.85755 16.7578 8.35759 16.3245 8.66593L7.15788 15.3826C6.56621 15.8159 5.75788 15.8159 5.17454 15.3743L3.97454 14.4743C3.43288 14.0659 2.99121 13.1826 2.99121 12.5076V5.79922C2.99121 4.86588 3.70788 3.83255 4.58288 3.50755L9.14118 1.79922C9.61618 1.62422 10.3828 1.62422 10.8578 1.79922L15.4162 3.50755C16.2912 3.83255 17.0078 4.86588 17.0078 5.79922Z" fill="white"/>
<path d="M15.683 10.2819C16.233 9.88189 17.008 10.2736 17.008 10.9569V12.5236C17.008 13.1986 16.5663 14.0736 16.0247 14.4819L11.4663 17.8902C11.0663 18.1819 10.533 18.3319 9.99967 18.3319C9.46633 18.3319 8.933 18.1819 8.533 17.8819L7.84135 17.3652C7.39135 17.0319 7.39135 16.3569 7.84968 16.0236L15.683 10.2819Z" fill="white"/>
</svg>
