<svg width="20" height="20" viewBox="0 0 20 20" fill="none" xmlns="http://www.w3.org/2000/svg">
<path d="M9.16634 16.5846V3.41797C9.16634 2.16797 8.63301 1.66797 7.30801 1.66797H3.94134C2.61634 1.66797 2.08301 2.16797 2.08301 3.41797V16.5846C2.08301 17.8346 2.61634 18.3346 3.94134 18.3346H7.30801C8.63301 18.3346 9.16634 17.8346 9.16634 16.5846Z" fill="white"/>
<path d="M17.9163 16.3654V12.7987C17.9163 11.7154 17.083 10.832 16.058 10.832H12.6913C11.6663 10.832 10.833 11.7154 10.833 12.7987V16.3654C10.833 17.4487 11.6663 18.332 12.6913 18.332H16.058C17.083 18.332 17.9163 17.4487 17.9163 16.3654Z" fill="white"/>
<path d="M17.9163 7.2013V3.63464C17.9163 2.5513 17.083 1.66797 16.058 1.66797H12.6913C11.6663 1.66797 10.833 2.5513 10.833 3.63464V7.2013C10.833 8.28464 11.6663 9.16797 12.6913 9.16797H16.058C17.083 9.16797 17.9163 8.28464 17.9163 7.2013Z" fill="white"/>
</svg>
