<svg width="20" height="20" viewBox="0 0 20 20" fill="none" xmlns="http://www.w3.org/2000/svg">
<path d="M3.75 8.74337V13.6934C3.75 13.9517 3.86667 14.2017 4.05833 14.3684L8.525 18.1933C9.10833 18.6933 10 18.2767 10 17.5184V14.1017H14.0917C14.8833 14.1017 15.2833 13.1434 14.725 12.5767L10 7.85169H4.64168C4.15001 7.84336 3.75 8.24333 3.75 8.74337Z" fill="white"/>
<path d="M15.3582 1.59375H5.90817C5.1165 1.59375 4.71649 2.55207 5.27482 3.11873L9.99983 7.84375H15.3582C15.8498 7.84375 16.2498 7.44374 16.2498 6.95207V2.48542C16.2498 1.99375 15.8498 1.59375 15.3582 1.59375Z" fill="white"/>
</svg>
