<svg width="20" height="20" viewBox="0 0 20 20" fill="none" xmlns="http://www.w3.org/2000/svg">
<path d="M10.0003 1.66797C7.81699 1.66797 6.04199 3.44297 6.04199 5.6263C6.04199 7.76797 7.71699 9.5013 9.90033 9.5763C9.96699 9.56797 10.0337 9.56797 10.0837 9.5763C10.1003 9.5763 10.1087 9.5763 10.1253 9.5763C10.1337 9.5763 10.1337 9.5763 10.142 9.5763C12.2753 9.5013 13.9503 7.76797 13.9587 5.6263C13.9587 3.44297 12.1837 1.66797 10.0003 1.66797Z" fill="white"/>
<path d="M14.2328 11.7914C11.9078 10.2414 8.11615 10.2414 5.77448 11.7914C4.71615 12.4997 4.13281 13.4581 4.13281 14.4831C4.13281 15.5081 4.71615 16.4581 5.76615 17.1581C6.93281 17.9414 8.46618 18.3331 9.99951 18.3331C11.5328 18.3331 13.0662 17.9414 14.2328 17.1581C15.2828 16.4497 15.8662 15.4997 15.8662 14.4664C15.8578 13.4414 15.2828 12.4914 14.2328 11.7914Z" fill="white"/>
</svg>
