<svg width="20" height="20" viewBox="0 0 20 20" fill="none" xmlns="http://www.w3.org/2000/svg">
<path d="M15.833 6.66797C17.2138 6.66797 18.333 5.54868 18.333 4.16797C18.333 2.78726 17.2138 1.66797 15.833 1.66797C14.4523 1.66797 13.333 2.78726 13.333 4.16797C13.333 5.54868 14.4523 6.66797 15.833 6.66797Z" fill="white"/>
<path d="M14.8247 7.78338C13.5663 7.45004 12.5497 6.43338 12.2163 5.17504C11.9997 4.37504 12.0497 3.60838 12.2913 2.92504C12.458 2.45838 12.1747 1.94171 11.6913 1.84171C10.4663 1.58338 9.14135 1.59171 7.75802 1.96671C4.60802 2.85004 2.19969 5.57504 1.74969 8.81667C0.983021 14.3333 5.65802 19.0083 11.1747 18.25C14.4247 17.8 17.1413 15.3917 18.0163 12.2333C18.3997 10.8583 18.408 9.53333 18.1497 8.30004C18.0497 7.81671 17.533 7.54171 17.0663 7.70004C16.3913 7.94171 15.6247 7.99171 14.8247 7.78338Z" fill="white"/>
</svg>
