<svg width="20" height="20" viewBox="0 0 20 20" fill="none" xmlns="http://www.w3.org/2000/svg">
<path d="M17.5003 1.66797H7.50033C7.04199 1.66797 6.66699 2.04297 6.66699 2.5013V5.0013C6.66699 5.45964 7.04199 5.83464 7.50033 5.83464H17.5003C17.9587 5.83464 18.3337 5.45964 18.3337 5.0013V2.5013C18.3337 2.04297 17.9587 1.66797 17.5003 1.66797Z" fill="white"/>
<path d="M9.16634 14.168H6.66634C6.20801 14.168 5.83301 14.543 5.83301 15.0013V17.5013C5.83301 17.9596 6.20801 18.3346 6.66634 18.3346H9.16634C9.62467 18.3346 9.99967 17.9596 9.99967 17.5013V15.0013C9.99967 14.543 9.62467 14.168 9.16634 14.168Z" fill="white"/>
<path d="M5.00033 7.91797H2.50033C2.04199 7.91797 1.66699 8.29297 1.66699 8.7513V11.2513C1.66699 11.7096 2.04199 12.0846 2.50033 12.0846H5.00033C5.45866 12.0846 5.83366 11.7096 5.83366 11.2513V8.7513C5.83366 8.29297 5.45866 7.91797 5.00033 7.91797Z" fill="white"/>
<path d="M14.167 8.03516H8.75033C8.29199 8.03516 7.91699 8.41014 7.91699 8.86847V11.1351C7.91699 11.5935 8.29199 11.9685 8.75033 11.9685H14.167C14.6253 11.9685 15.0003 11.5935 15.0003 11.1351V8.86847C15.0003 8.41014 14.6253 8.03516 14.167 8.03516Z" fill="white"/>
</svg>
