<svg width="20" height="20" viewBox="0 0 20 20" fill="none" xmlns="http://www.w3.org/2000/svg">
<path d="M17.4747 0.832031H15.0247C13.9663 0.832031 13.333 1.46536 13.333 2.5237V4.9737C13.333 6.03203 13.9663 6.66536 15.0247 6.66536H17.4747C18.533 6.66536 19.1663 6.03203 19.1663 4.9737V2.5237C19.1663 1.46536 18.533 0.832031 17.4747 0.832031ZM17.658 3.59036C17.558 3.69036 17.4247 3.74036 17.2913 3.74036C17.158 3.74036 17.0247 3.69036 16.9247 3.59036L16.7747 3.44036V5.30703C16.7747 5.5987 16.5413 5.83203 16.2497 5.83203C15.958 5.83203 15.7247 5.5987 15.7247 5.30703V3.44036L15.5747 3.59036C15.3747 3.79036 15.0413 3.79036 14.8413 3.59036C14.6413 3.39036 14.6413 3.05703 14.8413 2.85703L15.883 1.81536C15.9247 1.7737 15.983 1.74036 16.0413 1.71536C16.058 1.70703 16.0747 1.70703 16.0913 1.6987C16.133 1.68203 16.1747 1.6737 16.2247 1.6737C16.2413 1.6737 16.258 1.6737 16.2747 1.6737C16.333 1.6737 16.383 1.68203 16.4413 1.70703C16.4497 1.70703 16.4497 1.70703 16.458 1.70703C16.5163 1.73203 16.5663 1.76536 16.608 1.80703C16.6163 1.81536 16.6163 1.81536 16.6247 1.81536L17.6663 2.85703C17.8663 3.05703 17.8663 3.39036 17.658 3.59036Z" fill="white"/>
<path d="M7.49994 8.65023C8.59534 8.65023 9.48325 7.76229 9.48325 6.66693C9.48325 5.57156 8.59534 4.68359 7.49994 4.68359C6.40457 4.68359 5.5166 5.57156 5.5166 6.66693C5.5166 7.76229 6.40457 8.65023 7.49994 8.65023Z" fill="white"/>
<path d="M17.4753 6.66797H17.0837V10.5096L16.9753 10.418C16.3253 9.85964 15.2753 9.85964 14.6253 10.418L11.1587 13.393C10.5087 13.9513 9.45866 13.9513 8.80866 13.393L8.52532 13.1596C7.93366 12.643 6.99199 12.593 6.32533 13.043L3.20866 15.1346C3.02533 14.668 2.91699 14.1263 2.91699 13.493V6.50964C2.91699 4.15964 4.15866 2.91797 6.50866 2.91797H13.3337V2.5263C13.3337 2.19297 13.392 1.90964 13.5253 1.66797H6.50866C3.47533 1.66797 1.66699 3.4763 1.66699 6.50964V13.493C1.66699 14.4013 1.82533 15.193 2.13366 15.8596C2.85033 17.443 4.38366 18.3346 6.50866 18.3346H13.492C16.5253 18.3346 18.3337 16.5263 18.3337 13.493V6.4763C18.092 6.60964 17.8087 6.66797 17.4753 6.66797Z" fill="white"/>
</svg>
