<svg width="20" height="20" viewBox="0 0 20 20" fill="none" xmlns="http://www.w3.org/2000/svg">
<path d="M17.4747 0.832031H15.0247C14.2997 0.832031 13.7663 1.13203 13.5247 1.66536C13.3913 1.90703 13.333 2.19036 13.333 2.5237V4.9737C13.333 6.03203 13.9663 6.66536 15.0247 6.66536H17.4747C17.808 6.66536 18.0913 6.60703 18.333 6.4737C18.8663 6.23203 19.1663 5.6987 19.1663 4.9737V2.5237C19.1663 1.46536 18.533 0.832031 17.4747 0.832031ZM18.258 4.10703C18.1747 4.19036 18.0497 4.2487 17.9163 4.25703H16.7413V4.68203L16.7497 5.41536C16.7413 5.55703 16.6913 5.6737 16.5913 5.7737C16.508 5.85703 16.383 5.91536 16.2497 5.91536C15.9747 5.91536 15.7497 5.69036 15.7497 5.41536V4.2487L14.583 4.25703C14.308 4.25703 14.083 4.0237 14.083 3.7487C14.083 3.4737 14.308 3.2487 14.583 3.2487L15.3163 3.25703H15.7497V2.09036C15.7497 1.81536 15.9747 1.58203 16.2497 1.58203C16.5247 1.58203 16.7497 1.81536 16.7497 2.09036L16.7413 2.68203V3.2487H17.9163C18.1913 3.2487 18.4163 3.4737 18.4163 3.7487C18.408 3.89036 18.3497 4.00703 18.258 4.10703Z" fill="white"/>
<path d="M7.49994 8.65023C8.59534 8.65023 9.48325 7.76229 9.48325 6.66693C9.48325 5.57156 8.59534 4.68359 7.49994 4.68359C6.40457 4.68359 5.5166 5.57156 5.5166 6.66693C5.5166 7.76229 6.40457 8.65023 7.49994 8.65023Z" fill="white"/>
<path d="M17.4753 6.66797H17.0837V10.5096L16.9753 10.418C16.3253 9.85964 15.2753 9.85964 14.6253 10.418L11.1587 13.393C10.5087 13.9513 9.45866 13.9513 8.80866 13.393L8.52532 13.1596C7.93366 12.643 6.99199 12.593 6.32533 13.043L3.20866 15.1346C3.02533 14.668 2.91699 14.1263 2.91699 13.493V6.50964C2.91699 4.15964 4.15866 2.91797 6.50866 2.91797H13.3337V2.5263C13.3337 2.19297 13.392 1.90964 13.5253 1.66797H6.50866C3.47533 1.66797 1.66699 3.4763 1.66699 6.50964V13.493C1.66699 14.4013 1.82533 15.193 2.13366 15.8596C2.85033 17.443 4.38366 18.3346 6.50866 18.3346H13.492C16.5253 18.3346 18.3337 16.5263 18.3337 13.493V6.4763C18.092 6.60964 17.8087 6.66797 17.4753 6.66797Z" fill="white"/>
</svg>
