<svg width="20" height="20" viewBox="0 0 20 20" fill="none" xmlns="http://www.w3.org/2000/svg">
<path d="M17.4747 0.832031H15.0247C13.9663 0.832031 13.333 1.46536 13.333 2.5237V4.9737C13.333 6.03203 13.9663 6.66536 15.0247 6.66536H17.4747C18.533 6.66536 19.1663 6.03203 19.1663 4.9737V2.5237C19.1663 1.46536 18.533 0.832031 17.4747 0.832031ZM18.0247 2.8737L16.0497 5.18203C15.9747 5.2737 15.858 5.33203 15.7413 5.33203C15.733 5.33203 15.733 5.33203 15.7247 5.33203C15.608 5.33203 15.4997 5.29036 15.4163 5.20703L14.4997 4.30703C14.333 4.14036 14.333 3.86536 14.4997 3.6987C14.6663 3.53203 14.9413 3.5237 15.108 3.6987L15.6913 4.2737L17.358 2.3237C17.5163 2.14036 17.783 2.1237 17.9663 2.2737C18.158 2.4237 18.1747 2.6987 18.0247 2.8737Z" fill="white"/>
<path d="M7.49994 8.65023C8.59534 8.65023 9.48325 7.76229 9.48325 6.66693C9.48325 5.57156 8.59534 4.68359 7.49994 4.68359C6.40457 4.68359 5.5166 5.57156 5.5166 6.66693C5.5166 7.76229 6.40457 8.65023 7.49994 8.65023Z" fill="white"/>
<path d="M17.4753 6.66797H17.0837V10.5096L16.9753 10.418C16.3253 9.85964 15.2753 9.85964 14.6253 10.418L11.1587 13.393C10.5087 13.9513 9.45866 13.9513 8.80866 13.393L8.52532 13.1596C7.93366 12.643 6.99199 12.593 6.32533 13.043L3.20866 15.1346C3.02533 14.668 2.91699 14.1263 2.91699 13.493V6.50964C2.91699 4.15964 4.15866 2.91797 6.50866 2.91797H13.3337V2.5263C13.3337 2.19297 13.392 1.90964 13.5253 1.66797H6.50866C3.47533 1.66797 1.66699 3.4763 1.66699 6.50964V13.493C1.66699 14.4013 1.82533 15.193 2.13366 15.8596C2.85033 17.443 4.38366 18.3346 6.50866 18.3346H13.492C16.5253 18.3346 18.3337 16.5263 18.3337 13.493V6.4763C18.092 6.60964 17.8087 6.66797 17.4753 6.66797Z" fill="white"/>
</svg>
