<svg width="20" height="20" viewBox="0 0 20 20" fill="none" xmlns="http://www.w3.org/2000/svg">
<path d="M17.4747 0.832031H15.0247C13.9663 0.832031 13.333 1.46536 13.333 2.5237V4.9737C13.333 6.03203 13.9663 6.66536 15.0247 6.66536H17.4747C18.533 6.66536 19.1663 6.03203 19.1663 4.9737V2.5237C19.1663 1.46536 18.533 0.832031 17.4747 0.832031ZM17.8913 4.63203C18.0997 4.84036 18.0997 5.18203 17.8913 5.39036C17.783 5.49036 17.6497 5.54036 17.508 5.54036C17.3747 5.54036 17.2413 5.49036 17.133 5.39036L16.2497 4.50703L15.3747 5.39036C15.2663 5.49036 15.133 5.54036 14.9913 5.54036C14.858 5.54036 14.7247 5.49036 14.6163 5.39036C14.408 5.18203 14.408 4.84036 14.6163 4.63203L15.4997 3.7487L14.6163 2.8737C14.408 2.66536 14.408 2.3237 14.6163 2.11536C14.8247 1.90703 15.1663 1.90703 15.3747 2.11536L16.2497 2.9987L17.133 2.11536C17.3413 1.90703 17.683 1.90703 17.8913 2.11536C18.0997 2.3237 18.0997 2.66536 17.8913 2.8737L17.008 3.7487L17.8913 4.63203Z" fill="white"/>
<path d="M7.49994 8.65023C8.59534 8.65023 9.48325 7.76229 9.48325 6.66693C9.48325 5.57156 8.59534 4.68359 7.49994 4.68359C6.40457 4.68359 5.5166 5.57156 5.5166 6.66693C5.5166 7.76229 6.40457 8.65023 7.49994 8.65023Z" fill="white"/>
<path d="M17.4753 6.66797H17.0837V10.5096L16.9753 10.418C16.3253 9.85964 15.2753 9.85964 14.6253 10.418L11.1587 13.393C10.5087 13.9513 9.45866 13.9513 8.80866 13.393L8.52532 13.1596C7.93366 12.643 6.99199 12.593 6.32533 13.043L3.20866 15.1346C3.02533 14.668 2.91699 14.1263 2.91699 13.493V6.50964C2.91699 4.15964 4.15866 2.91797 6.50866 2.91797H13.3337V2.5263C13.3337 2.19297 13.392 1.90964 13.5253 1.66797H6.50866C3.47533 1.66797 1.66699 3.4763 1.66699 6.50964V13.493C1.66699 14.4013 1.82533 15.193 2.13366 15.8596C2.85033 17.443 4.38366 18.3346 6.50866 18.3346H13.492C16.5253 18.3346 18.3337 16.5263 18.3337 13.493V6.4763C18.092 6.60964 17.8087 6.66797 17.4753 6.66797Z" fill="white"/>
</svg>
