<svg width="20" height="20" viewBox="0 0 20 20" fill="none" xmlns="http://www.w3.org/2000/svg">
<path d="M18.1417 1.85938C17.8917 1.60937 17.4834 1.60937 17.2334 1.85938L1.8584 17.2427C1.6084 17.4927 1.6084 17.9011 1.8584 18.1511C1.9834 18.2677 2.14173 18.3344 2.3084 18.3344C2.47507 18.3344 2.6334 18.2677 2.7584 18.1427L18.1417 2.75938C18.4001 2.50937 18.4001 2.10938 18.1417 1.85938Z" fill="white"/>
<path d="M7.49994 8.65023C8.59534 8.65023 9.48325 7.76229 9.48325 6.66693C9.48325 5.57156 8.59534 4.68359 7.49994 4.68359C6.40457 4.68359 5.5166 5.57156 5.5166 6.66693C5.5166 7.76229 6.40457 8.65023 7.49994 8.65023Z" fill="white"/>
<path d="M18.0083 4.49219L16.9917 5.50886C17.0583 5.8172 17.0833 6.15053 17.0833 6.50886V10.5088L16.975 10.4172C16.325 9.85884 15.275 9.85884 14.625 10.4172L11.1583 13.3922C10.5667 13.9005 9.63334 13.9505 8.98334 13.5172L4.5 18.0005C4.53333 18.0172 4.56667 18.0255 4.6 18.0338C4.825 18.1088 5.05 18.1672 5.29167 18.2172C5.375 18.2338 5.45833 18.2505 5.55 18.2588C5.85833 18.3005 6.175 18.3338 6.50833 18.3338H13.4917C16.525 18.3338 18.3333 16.5255 18.3333 13.4922V6.50886C18.3333 5.75886 18.225 5.08385 18.0083 4.49219Z" fill="white"/>
<path d="M18.0078 4.49219L16.9912 5.50886C17.0578 5.8172 17.0828 6.15053 17.0828 6.50886V10.5088L16.9745 10.4172C16.3245 9.85884 15.2745 9.85884 14.6245 10.4172L11.1578 13.3922C10.5662 13.9005 9.63284 13.9505 8.98284 13.5172L4.49121 18.0088C5.08288 18.2255 5.75788 18.3338 6.50788 18.3338H13.4912C16.5245 18.3338 18.3328 16.5255 18.3328 13.4922V6.50886C18.3328 5.75886 18.2245 5.08385 18.0078 4.49219Z" fill="white"/>
<path d="M17.0503 2.9513L16.167 3.83464C15.567 3.2263 14.667 2.91797 13.492 2.91797H6.50866C4.15866 2.91797 2.91699 4.15964 2.91699 6.50964V13.493C2.91699 14.1263 3.02533 14.668 3.20866 15.1346L6.32533 13.043C6.60866 12.8513 6.93366 12.7513 7.25866 12.743L2.95033 17.0513C2.61699 16.718 2.34199 16.318 2.13366 15.8596C1.82533 15.193 1.66699 14.4013 1.66699 13.493V6.50964C1.66699 3.4763 3.47533 1.66797 6.50866 1.66797H13.492C15.0087 1.66797 16.217 2.11797 17.0503 2.9513Z" fill="white"/>
</svg>
