<svg width="20" height="20" viewBox="0 0 20 20" fill="none" xmlns="http://www.w3.org/2000/svg">
<path d="M17.4747 6.66536H15.0247C13.9663 6.66536 13.333 6.03203 13.333 4.9737V2.5237C13.333 1.46536 13.9663 0.832031 15.0247 0.832031H17.4747C18.533 0.832031 19.1663 1.46536 19.1663 2.5237V4.9737C19.1663 6.03203 18.533 6.66536 17.4747 6.66536ZM17.658 3.90703C17.558 3.80703 17.4247 3.75703 17.2913 3.75703C17.158 3.75703 17.0247 3.80703 16.9247 3.90703L16.7747 4.05703V2.19036C16.7747 1.8987 16.5413 1.66536 16.2497 1.66536C15.958 1.66536 15.7247 1.8987 15.7247 2.19036V4.05703L15.5747 3.90703C15.3747 3.70703 15.0413 3.70703 14.8413 3.90703C14.6413 4.10703 14.6413 4.44036 14.8413 4.64036L15.883 5.68203C15.9247 5.7237 15.983 5.75703 16.0413 5.78203C16.058 5.79036 16.0747 5.79036 16.0913 5.7987C16.133 5.81536 16.1747 5.8237 16.2247 5.8237C16.2413 5.8237 16.258 5.8237 16.2747 5.8237C16.333 5.8237 16.383 5.81536 16.4413 5.79036C16.4497 5.79036 16.4497 5.79036 16.458 5.79036C16.5163 5.76536 16.5663 5.73203 16.608 5.69036C16.6163 5.68203 16.6163 5.68203 16.6247 5.68203L17.6663 4.64036C17.8663 4.44036 17.8663 4.10703 17.658 3.90703Z" fill="white"/>
<path d="M7.49994 8.65023C8.59534 8.65023 9.48325 7.76229 9.48325 6.66693C9.48325 5.57156 8.59534 4.68359 7.49994 4.68359C6.40457 4.68359 5.5166 5.57156 5.5166 6.66693C5.5166 7.76229 6.40457 8.65023 7.49994 8.65023Z" fill="white"/>
<path d="M17.4753 6.66797H17.0837V10.5096L16.9753 10.418C16.3253 9.85964 15.2753 9.85964 14.6253 10.418L11.1587 13.393C10.5087 13.9513 9.45866 13.9513 8.80866 13.393L8.52532 13.1596C7.93366 12.643 6.99199 12.593 6.32533 13.043L3.20866 15.1346C3.02533 14.668 2.91699 14.1263 2.91699 13.493V6.50964C2.91699 4.15964 4.15866 2.91797 6.50866 2.91797H13.3337V2.5263C13.3337 2.19297 13.392 1.90964 13.5253 1.66797H6.50866C3.47533 1.66797 1.66699 3.4763 1.66699 6.50964V13.493C1.66699 14.4013 1.82533 15.193 2.13366 15.8596C2.85033 17.443 4.38366 18.3346 6.50866 18.3346H13.492C16.5253 18.3346 18.3337 16.5263 18.3337 13.493V6.4763C18.092 6.60964 17.8087 6.66797 17.4753 6.66797Z" fill="white"/>
</svg>
