<svg width="20" height="20" viewBox="0 0 20 20" fill="none" xmlns="http://www.w3.org/2000/svg">
<path d="M17.4747 0.832031H15.0247C13.9663 0.832031 13.333 1.46536 13.333 2.5237V4.9737C13.333 6.03203 13.9663 6.66536 15.0247 6.66536H17.4747C18.533 6.66536 19.1663 6.03203 19.1663 4.9737V2.5237C19.1663 1.46536 18.533 0.832031 17.4747 0.832031ZM15.8413 5.4737C15.8163 5.4987 15.758 5.53203 15.7163 5.53203L14.8497 5.65703C14.8247 5.66536 14.7913 5.66536 14.7663 5.66536C14.6413 5.66536 14.533 5.6237 14.458 5.54036C14.358 5.44036 14.3163 5.2987 14.3413 5.1487L14.4663 4.28203C14.4747 4.24036 14.4997 4.18203 14.5247 4.15703L15.9413 2.74036C15.9663 2.7987 15.9913 2.86536 16.0163 2.93203C16.0497 2.9987 16.083 3.05703 16.1163 3.11536C16.1413 3.16536 16.1747 3.21536 16.208 3.2487C16.2413 3.2987 16.2747 3.3487 16.2997 3.3737C16.3163 3.3987 16.3247 3.40703 16.333 3.41536C16.408 3.50703 16.4913 3.59036 16.5663 3.6487C16.583 3.66536 16.5997 3.68203 16.608 3.68203C16.6497 3.71536 16.6997 3.75703 16.733 3.78203C16.783 3.81536 16.8247 3.8487 16.8747 3.8737C16.933 3.90703 16.9997 3.94036 17.0663 3.9737C17.133 4.00703 17.1997 4.03203 17.258 4.0487L15.8413 5.4737ZM17.833 3.48203L17.5663 3.7487C17.5497 3.7737 17.5247 3.78203 17.4997 3.78203C17.4913 3.78203 17.483 3.78203 17.4747 3.78203C16.8747 3.60703 16.3997 3.13203 16.2247 2.53203C16.2163 2.4987 16.2247 2.46536 16.2497 2.44036L16.5247 2.16536C16.9747 1.71536 17.3997 1.7237 17.8413 2.16536C18.0663 2.39036 18.1747 2.60703 18.1747 2.8237C18.1663 3.04036 18.058 3.25703 17.833 3.48203Z" fill="white"/>
<path d="M7.49994 8.65023C8.59534 8.65023 9.48325 7.76229 9.48325 6.66693C9.48325 5.57156 8.59534 4.68359 7.49994 4.68359C6.40457 4.68359 5.5166 5.57156 5.5166 6.66693C5.5166 7.76229 6.40457 8.65023 7.49994 8.65023Z" fill="white"/>
<path d="M17.4753 6.66797H17.0837V10.5096L16.9753 10.418C16.3253 9.85964 15.2753 9.85964 14.6253 10.418L11.1587 13.393C10.5087 13.9513 9.45866 13.9513 8.80866 13.393L8.52532 13.1596C7.93366 12.643 6.99199 12.593 6.32533 13.043L3.20866 15.1346C3.02533 14.668 2.91699 14.1263 2.91699 13.493V6.50964C2.91699 4.15964 4.15866 2.91797 6.50866 2.91797H13.3337V2.5263C13.3337 2.19297 13.392 1.90964 13.5253 1.66797H6.50866C3.47533 1.66797 1.66699 3.4763 1.66699 6.50964V13.493C1.66699 14.4013 1.82533 15.193 2.13366 15.8596C2.85033 17.443 4.38366 18.3346 6.50866 18.3346H13.492C16.5253 18.3346 18.3337 16.5263 18.3337 13.493V6.4763C18.092 6.60964 17.8087 6.66797 17.4753 6.66797Z" fill="white"/>
</svg>
