<svg width="20" height="20" viewBox="0 0 20 20" fill="none" xmlns="http://www.w3.org/2000/svg">
<path d="M13.8753 4.76562H6.12533C3.66699 4.76562 1.66699 6.76562 1.66699 9.22396V13.874C1.66699 16.3323 3.66699 18.3323 6.12533 18.3323H13.8753C16.3337 18.3323 18.3337 16.3323 18.3337 13.874V9.22396C18.3337 6.76562 16.3337 4.76562 13.8753 4.76562ZM12.0837 10.0156C12.0837 9.55729 12.4587 9.18229 12.917 9.18229C13.3753 9.18229 13.7503 9.55729 13.7503 10.0156C13.7503 10.474 13.3753 10.8573 12.917 10.8573C12.4587 10.8573 12.0837 10.4906 12.0837 10.0323V10.0156ZM8.44199 13.3906C8.31699 13.5156 8.15866 13.574 8.00033 13.574C7.84199 13.574 7.68366 13.5156 7.55866 13.3906L6.70033 12.5323L5.87533 13.3573C5.75033 13.4823 5.59199 13.5406 5.43366 13.5406C5.27533 13.5406 5.11699 13.4823 4.99199 13.3573C4.75033 13.1156 4.75033 12.7156 4.99199 12.474L5.81699 11.649L5.01699 10.849C4.77533 10.6073 4.77533 10.2073 5.01699 9.96563C5.25866 9.72396 5.65866 9.72396 5.90033 9.96563L6.70033 10.7656L7.52533 9.94063C7.76699 9.69896 8.16699 9.69896 8.40866 9.94063C8.65033 10.1823 8.65033 10.5823 8.40866 10.824L7.58366 11.649L8.44199 12.5073C8.68366 12.749 8.68366 13.149 8.44199 13.3906ZM11.2837 12.499C10.8253 12.499 10.442 12.124 10.442 11.6656C10.442 11.2073 10.8087 10.8323 11.267 10.8323H11.2837C11.742 10.8323 12.117 11.2073 12.117 11.6656C12.117 12.124 11.7503 12.499 11.2837 12.499ZM12.917 14.1406C12.4587 14.1406 12.0837 13.774 12.0837 13.3156V13.299C12.0837 12.8406 12.4587 12.4656 12.917 12.4656C13.3753 12.4656 13.7503 12.8406 13.7503 13.299C13.7503 13.7573 13.3837 14.1406 12.917 14.1406ZM14.567 12.499C14.1087 12.499 13.7253 12.124 13.7253 11.6656C13.7253 11.2073 14.092 10.8323 14.5503 10.8323H14.567C15.0253 10.8323 15.4003 11.2073 15.4003 11.6656C15.4003 12.124 15.0337 12.499 14.567 12.499Z" fill="white"/>
<path d="M11.3671 2.25964L11.3588 3.04297C11.3505 3.7763 10.7421 4.38464 10.0005 4.38464C9.87546 4.38464 9.80046 4.46797 9.80046 4.5763C9.80046 4.68464 9.88379 4.76797 9.99212 4.76797H8.65046C8.64212 4.70964 8.63379 4.64297 8.63379 4.5763C8.63379 3.8263 9.24212 3.21797 9.98379 3.21797C10.1088 3.21797 10.1921 3.13464 10.1921 3.0263L10.2005 2.24297C10.2088 1.9263 10.4671 1.66797 10.7838 1.66797H10.7921C11.1171 1.66797 11.3671 1.93464 11.3671 2.25964Z" fill="white"/>
</svg>
