<svg width="20" height="20" viewBox="0 0 20 20" fill="none" xmlns="http://www.w3.org/2000/svg">
<path d="M14.1667 1.66797H5.83333C4 1.66797 2.5 3.16797 2.5 5.0013V15.0013C2.5 16.8346 4 18.3346 5.83333 18.3346H14.1667C16 18.3346 17.5 16.8346 17.5 15.0013V5.0013C17.5 3.16797 16 1.66797 14.1667 1.66797ZM9.05 15.118C8.925 15.243 8.76667 15.3013 8.60833 15.3013C8.45 15.3013 8.29167 15.243 8.16667 15.118L7.625 14.5763L7.10833 15.093C6.98333 15.218 6.825 15.2763 6.66667 15.2763C6.50833 15.2763 6.35 15.218 6.225 15.093C5.98333 14.8513 5.98333 14.4513 6.225 14.2096L6.74167 13.693L6.25 13.2013C6.00833 12.9596 6.00833 12.5596 6.25 12.318C6.49167 12.0763 6.89167 12.0763 7.13333 12.318L7.625 12.8096L8.14167 12.293C8.38333 12.0513 8.78333 12.0513 9.025 12.293C9.26667 12.5346 9.26667 12.9346 9.025 13.1763L8.50833 13.693L9.05 14.2346C9.29167 14.4763 9.29167 14.8763 9.05 15.118ZM12.075 15.4096C11.6167 15.4096 11.2417 15.043 11.2417 14.5846V14.568C11.2417 14.1096 11.6167 13.7346 12.075 13.7346C12.5333 13.7346 12.9083 14.1096 12.9083 14.568C12.9083 15.0263 12.5333 15.4096 12.075 15.4096ZM13.7583 13.6096C13.3 13.6096 12.9167 13.2346 12.9167 12.7763C12.9167 12.318 13.2833 11.943 13.7417 11.943H13.7583C14.2167 11.943 14.5917 12.318 14.5917 12.7763C14.5917 13.2346 14.2167 13.6096 13.7583 13.6096ZM15 7.70964C15 8.50964 14.3417 9.16797 13.5417 9.16797H6.45833C5.65833 9.16797 5 8.50964 5 7.70964V5.6263C5 4.8263 5.65833 4.16797 6.45833 4.16797H13.5417C14.3417 4.16797 15 4.8263 15 5.6263V7.70964Z" fill="white"/>
</svg>
