<svg width="20" height="20" viewBox="0 0 20 20" fill="none" xmlns="http://www.w3.org/2000/svg">
<path d="M18.617 7.7763L16.9503 6.94297C16.642 6.79297 16.2587 6.90964 16.1087 7.21797C15.9503 7.53464 16.0753 7.90964 16.3837 8.05964L17.7087 8.71797V12.7096L14.5837 12.718V4.16797C14.5837 2.5013 13.467 1.66797 12.0837 1.66797H5.41699C4.03366 1.66797 2.91699 2.5013 2.91699 4.16797V17.7096H1.66699C1.32533 17.7096 1.04199 17.993 1.04199 18.3346C1.04199 18.6763 1.32533 18.9596 1.66699 18.9596H15.8337C16.1753 18.9596 16.4587 18.6763 16.4587 18.3346C16.4587 17.993 16.1753 17.7096 15.8337 17.7096H14.5837V13.968L18.3337 13.9596C18.6837 13.9596 18.9587 13.6763 18.9587 13.3346V8.33464C18.9587 8.1013 18.8253 7.88464 18.617 7.7763ZM5.00033 5.74297C5.00033 4.58464 5.70866 4.16797 6.57533 4.16797H10.9337C11.792 4.16797 12.5003 4.58464 12.5003 5.74297V6.76797C12.5003 7.91797 11.792 8.33464 10.9253 8.33464H6.57533C5.70866 8.33464 5.00033 7.91797 5.00033 6.75964V5.74297ZM5.41699 10.2096H7.91699C8.25866 10.2096 8.54199 10.493 8.54199 10.8346C8.54199 11.1763 8.25866 11.4596 7.91699 11.4596H5.41699C5.07533 11.4596 4.79199 11.1763 4.79199 10.8346C4.79199 10.493 5.07533 10.2096 5.41699 10.2096Z" fill="white"/>
</svg>
