<svg width="20" height="20" viewBox="0 0 20 20" fill="none" xmlns="http://www.w3.org/2000/svg">
<path d="M10.0003 1.66797C5.41699 1.66797 1.66699 5.48464 1.66699 10.1513V16.7263C1.66699 17.7763 2.29199 18.0596 3.05866 17.3596L3.89199 16.6013C4.20033 16.318 4.70033 16.318 5.00866 16.6013L6.67533 18.1263C6.98366 18.4096 7.48366 18.4096 7.79199 18.1263L9.45866 16.6013C9.76699 16.318 10.267 16.318 10.5753 16.6013L12.242 18.1263C12.5503 18.4096 13.0503 18.4096 13.3587 18.1263L15.0253 16.6013C15.3337 16.318 15.8337 16.318 16.142 16.6013L16.9753 17.3596C17.742 18.0596 18.367 17.7763 18.367 16.7263V10.1513C18.3337 5.48464 14.5837 1.66797 10.0003 1.66797ZM10.0003 5.51797C11.092 5.51797 11.9837 6.40964 11.9837 7.5013C11.9837 8.59297 11.092 9.48464 10.0003 9.48464C8.90866 9.48464 8.01699 8.59297 8.01699 7.5013C8.01699 6.40964 8.90866 5.51797 10.0003 5.51797ZM13.7087 12.168C12.617 12.9846 11.3087 13.393 10.0003 13.393C8.69199 13.393 7.38366 12.9846 6.29199 12.168C6.01699 11.9596 5.95866 11.568 6.16699 11.293C6.37533 11.018 6.76699 10.9596 7.04199 11.168C8.78366 12.4763 11.217 12.4763 12.9587 11.168C13.2337 10.9596 13.6253 11.018 13.8337 11.293C14.042 11.568 13.9837 11.9596 13.7087 12.168Z" fill="white"/>
</svg>
