<svg width="20" height="20" viewBox="0 0 20 20" fill="none" xmlns="http://www.w3.org/2000/svg">
<path d="M13.1998 18.3326H6.79984C3.30817 18.3326 2.61651 16.2242 3.74984 13.6576L4.94984 10.9326C4.94984 10.9326 7.49984 10.8326 9.99983 11.6659C12.4998 12.4992 14.8582 10.9242 14.8582 10.9242L15.0165 10.8242L16.2582 13.6659C17.3748 16.2326 16.6415 18.3326 13.1998 18.3326Z" fill="white"/>
<path d="M12.8669 5.61797H12.7336L14.5086 9.66797L14.1669 9.88463C14.1503 9.89297 12.2669 11.1013 10.3919 10.4846C8.43359 9.8263 6.46693 9.70964 5.50026 9.69297L7.28359 5.61797H7.03359C6.49193 5.61797 5.99193 5.4013 5.63359 5.04297C5.27526 4.68464 5.05859 4.18464 5.05859 3.64297C5.05859 2.55964 5.94193 1.66797 7.03359 1.66797H12.9586C13.5086 1.66797 14.0003 1.89297 14.3586 2.2513C14.8253 2.71797 15.0669 3.4013 14.8836 4.1263C14.6669 5.0263 13.8003 5.61797 12.8669 5.61797Z" fill="white"/>
</svg>
