<svg width="20" height="20" viewBox="0 0 20 20" fill="none" xmlns="http://www.w3.org/2000/svg">
<path d="M14.7585 1.66797H13.9668C13.6418 1.66797 13.3752 1.93464 13.3752 2.25964C13.3752 2.59297 13.6418 2.85964 13.9668 2.85964H14.7585C16.1835 2.85964 17.3418 4.01797 17.3418 5.43464V10.3346C17.0418 10.1763 16.7085 10.093 16.3502 10.093H13.1752C11.9752 10.093 10.9918 11.068 10.9918 12.2763V13.5763H9.00849V12.2763C9.00849 11.068 8.02513 10.093 6.82512 10.093H3.65013C3.2918 10.093 2.95846 10.1763 2.65846 10.3346V5.43464C2.65846 4.01797 3.8168 2.85964 5.2418 2.85964H6.03346C6.35846 2.85964 6.62513 2.59297 6.62513 2.25964C6.62513 1.93464 6.35846 1.66797 6.03346 1.66797H5.2418C3.15846 1.66797 1.4668 3.35964 1.4668 5.43464V12.2763V16.1513C1.4668 17.3596 2.45013 18.3346 3.65013 18.3346H6.82512C8.02513 18.3346 9.00849 17.3596 9.00849 16.1513V14.7596H10.9918V16.1513C10.9918 17.3596 11.9752 18.3346 13.1752 18.3346H16.3502C17.5502 18.3346 18.5335 17.3596 18.5335 16.1513V12.2763V5.43464C18.5335 3.35964 16.8418 1.66797 14.7585 1.66797Z" fill="white"/>
</svg>
