<svg width="20" height="20" viewBox="0 0 20 20" fill="none" xmlns="http://www.w3.org/2000/svg">
<path d="M15.6084 12.2233L12.15 15.6816C12.0167 15.8149 11.8917 16.0733 11.8584 16.2566L11.6667 17.5816C11.6 18.0566 11.9334 18.3983 12.4084 18.3233L13.7334 18.1316C13.9167 18.1066 14.175 17.9733 14.3084 17.8399L17.7667 14.3816C18.3584 13.7899 18.6417 13.0899 17.7667 12.2149C16.9 11.3483 16.2084 11.6233 15.6084 12.2233Z" fill="white"/>
<path d="M15.1162 12.7148C15.4079 13.7648 16.2329 14.5815 17.2829 14.8815L15.1162 12.7148Z" fill="white"/>
<path d="M1.69147 12.1914C1.69147 12.2164 1.6748 12.2497 1.6748 12.2747C2.44147 13.8081 3.69147 15.0664 5.2248 15.8247C5.2498 15.8247 5.28314 15.8081 5.30814 15.8081C5.0248 14.8414 4.80814 13.8497 4.6498 12.8581C3.6498 12.6914 2.65814 12.4747 1.69147 12.1914Z" fill="white"/>
<path d="M15.8921 5.35885C15.1087 3.71719 13.7837 2.39219 12.1504 1.61719C12.4504 2.60885 12.7004 3.62552 12.8671 4.64219C13.8837 4.80885 14.9004 5.05052 15.8921 5.35885Z" fill="white"/>
<path d="M1.6084 5.35859C2.6084 5.05859 3.62507 4.80859 4.64173 4.64193C4.8084 3.65026 5.01673 2.66693 5.30007 1.70026C5.27507 1.70026 5.24173 1.68359 5.21673 1.68359C3.65006 2.45859 2.37507 3.76693 1.6084 5.35859Z" fill="white"/>
<path d="M11.5167 4.46536C11.3167 3.38203 11.0667 2.2987 10.7084 1.2487C10.6917 1.19036 10.6917 1.14036 10.6834 1.0737C10.0667 0.923698 9.41674 0.832031 8.75007 0.832031C8.07506 0.832031 7.4334 0.923698 6.8084 1.08203C6.80007 1.14036 6.8084 1.19036 6.79173 1.25703C6.44173 2.30703 6.1834 3.38203 5.9834 4.46536C7.82507 4.26536 9.67507 4.26536 11.5167 4.46536Z" fill="white"/>
<path d="M4.46634 5.98438C3.37467 6.18437 2.30801 6.44271 1.24967 6.79271C1.19134 6.80937 1.14134 6.80938 1.08301 6.81771C0.924674 7.43438 0.833008 8.08437 0.833008 8.75105C0.833008 9.42605 0.924674 10.0677 1.08301 10.6927C1.14134 10.7011 1.19134 10.6927 1.25801 10.7094C2.30801 11.0594 3.38301 11.3177 4.47467 11.5177C4.26634 9.67605 4.26634 7.82604 4.46634 5.98438Z" fill="white"/>
<path d="M16.4171 6.81771C16.3587 6.81771 16.3087 6.80937 16.2421 6.79271C15.1921 6.44271 14.1087 6.18437 13.0254 5.98438C13.2337 7.82604 13.2337 9.67605 13.0254 11.5094C14.1087 11.3094 15.1921 11.0594 16.2421 10.701C16.3004 10.6844 16.3504 10.6927 16.4171 10.6844C16.5671 10.0594 16.6671 9.41772 16.6671 8.74272C16.6671 8.08438 16.5754 7.44271 16.4171 6.81771Z" fill="white"/>
<path d="M5.9834 13.0357C6.1834 14.1273 6.4334 15.2023 6.79173 16.2523C6.8084 16.3107 6.80007 16.3607 6.8084 16.4273C7.4334 16.5773 8.07506 16.669 8.75007 16.669C9.41674 16.669 10.0667 16.5773 10.6834 16.419C10.6917 16.3607 10.6917 16.3107 10.7084 16.244C11.0584 15.194 11.3167 14.119 11.5167 13.0273C10.6001 13.1273 9.67507 13.2023 8.75007 13.2023C7.82506 13.2023 6.90007 13.1357 5.9834 13.0357Z" fill="white"/>
<path d="M5.79102 5.79297C5.54102 7.75964 5.54102 9.74296 5.79102 11.718C7.75768 11.968 9.74101 11.968 11.716 11.718C11.966 9.75129 11.966 7.76797 11.716 5.79297C9.74101 5.54297 7.75768 5.54297 5.79102 5.79297Z" fill="white"/>
</svg>
