<svg width="20" height="20" viewBox="0 0 20 20" fill="none" xmlns="http://www.w3.org/2000/svg">
<path d="M6.3748 17.4255C6.3498 17.4255 6.31647 17.4422 6.29147 17.4422C4.6748 16.6422 3.35814 15.3172 2.5498 13.7005C2.5498 13.6755 2.56647 13.6422 2.56647 13.6172C3.58314 13.9172 4.63314 14.1422 5.6748 14.3172C5.85814 15.3672 6.0748 16.4089 6.3748 17.4255Z" fill="white"/>
<path d="M17.4502 13.7089C16.6252 15.3672 15.2502 16.7089 13.5752 17.5172C13.8919 16.4589 14.1585 15.3922 14.3335 14.3172C15.3835 14.1422 16.4169 13.9172 17.4335 13.6172C17.4252 13.6505 17.4502 13.6839 17.4502 13.7089Z" fill="white"/>
<path d="M17.5169 6.42604C16.4669 6.10938 15.4085 5.85104 14.3335 5.66771C14.1585 4.59271 13.9002 3.52604 13.5752 2.48438C15.3002 3.30937 16.6919 4.70104 17.5169 6.42604Z" fill="white"/>
<path d="M6.37507 2.57578C6.07507 3.59245 5.8584 4.62578 5.6834 5.67578C4.6084 5.84245 3.54173 6.10911 2.4834 6.42578C3.29173 4.75078 4.6334 3.37578 6.29173 2.55078C6.31673 2.55078 6.35007 2.57578 6.37507 2.57578Z" fill="white"/>
<path d="M12.9085 5.49297C10.9752 5.2763 9.02516 5.2763 7.0918 5.49297C7.30013 4.3513 7.5668 3.20964 7.9418 2.10964C7.95846 2.04297 7.95013 1.99297 7.95846 1.9263C8.61682 1.76797 9.29182 1.66797 10.0002 1.66797C10.7002 1.66797 11.3835 1.76797 12.0335 1.9263C12.0418 1.99297 12.0418 2.04297 12.0585 2.10964C12.4335 3.21797 12.7002 4.3513 12.9085 5.49297Z" fill="white"/>
<path d="M5.49199 12.9065C4.34199 12.6982 3.20866 12.4315 2.10866 12.0565C2.04199 12.0399 1.99199 12.0482 1.92533 12.0399C1.76699 11.3815 1.66699 10.7065 1.66699 9.9982C1.66699 9.2982 1.76699 8.61487 1.92533 7.96484C1.99199 7.95651 2.04199 7.95651 2.10866 7.93984C3.21699 7.57318 4.34199 7.29818 5.49199 7.08984C5.28366 9.0232 5.28366 10.9732 5.49199 12.9065Z" fill="white"/>
<path d="M18.3338 9.9982C18.3338 10.7065 18.2338 11.3815 18.0755 12.0399C18.0088 12.0482 17.9588 12.0399 17.8921 12.0565C16.7838 12.4232 15.6505 12.6982 14.5088 12.9065C14.7255 10.9732 14.7255 9.0232 14.5088 7.08984C15.6505 7.29818 16.7921 7.56484 17.8921 7.93984C17.9588 7.95651 18.0088 7.96484 18.0755 7.96484C18.2338 8.6232 18.3338 9.2982 18.3338 9.9982Z" fill="white"/>
<path d="M12.9085 14.5078C12.7002 15.6578 12.4335 16.7911 12.0585 17.8911C12.0418 17.9578 12.0418 18.0078 12.0335 18.0745C11.3835 18.2328 10.7002 18.3328 10.0002 18.3328C9.29182 18.3328 8.61682 18.2328 7.95846 18.0745C7.95013 18.0078 7.95846 17.9578 7.9418 17.8911C7.57513 16.7828 7.30013 15.6578 7.0918 14.5078C8.05846 14.6161 9.02515 14.6911 10.0002 14.6911C10.9752 14.6911 11.9502 14.6161 12.9085 14.5078Z" fill="white"/>
<path d="M13.1364 13.1374C11.0522 13.4004 8.94849 13.4004 6.86422 13.1374C6.60125 11.0531 6.60125 8.94947 6.86422 6.86519C8.94849 6.60223 11.0522 6.60223 13.1364 6.86519C13.3994 8.94947 13.3994 11.0531 13.1364 13.1374Z" fill="white"/>
</svg>
