<svg width="20" height="20" viewBox="0 0 20 20" fill="none" xmlns="http://www.w3.org/2000/svg">
<path d="M18.8751 15.1105C18.7918 14.7771 18.4585 14.5688 18.1251 14.6521C17.7918 14.7355 17.5835 15.0688 17.6585 15.4021C17.6918 15.5438 17.7085 15.6855 17.7085 15.8355C17.7085 16.8688 16.8668 17.7105 15.8335 17.7105C14.8001 17.7105 13.9585 16.8688 13.9585 15.8355C13.9585 14.9188 14.6168 14.1605 15.4918 13.9938C15.4085 14.1855 15.4168 14.4188 15.5501 14.6021C15.6751 14.7688 15.8668 14.8605 16.0585 14.8605C16.1835 14.8605 16.3168 14.8188 16.4251 14.7438L17.4001 14.0355C17.4085 14.0271 17.4085 14.0188 17.4168 14.0188C17.4251 14.0105 17.4335 14.0105 17.4418 14.0021C17.4668 13.9771 17.4835 13.9521 17.5001 13.9188C17.5251 13.8855 17.5585 13.8605 17.5751 13.8188C17.5918 13.7855 17.6001 13.7438 17.6168 13.7105C17.6251 13.6688 17.6418 13.6355 17.6501 13.5938C17.6585 13.5521 17.6501 13.5188 17.6418 13.4771C17.6418 13.4355 17.6418 13.3938 17.6251 13.3521C17.6168 13.3105 17.5918 13.2771 17.5751 13.2438C17.5585 13.2105 17.5501 13.1771 17.5335 13.1521C17.5251 13.1438 17.5168 13.1438 17.5085 13.1355C17.5001 13.1355 17.5001 13.1271 17.5001 13.1188L16.6668 12.1605C16.4418 11.9021 16.0418 11.8688 15.7835 12.1021C15.6001 12.2688 15.5335 12.5105 15.6001 12.7355C13.9918 12.8605 12.7168 14.1938 12.7168 15.8355C12.7168 17.5605 14.1168 18.9605 15.8418 18.9605C17.5668 18.9605 18.9668 17.5605 18.9668 15.8355C18.9585 15.5938 18.9335 15.3438 18.8751 15.1105Z" fill="white"/>
<path d="M1.69147 12.1914C1.69147 12.2164 1.6748 12.2497 1.6748 12.2747C2.44147 13.8081 3.69147 15.0664 5.2248 15.8247C5.2498 15.8247 5.28314 15.8081 5.30814 15.8081C5.0248 14.8414 4.80814 13.8497 4.6498 12.8581C3.6498 12.6914 2.65814 12.4747 1.69147 12.1914Z" fill="white"/>
<path d="M15.8921 5.35885C15.1087 3.71719 13.7837 2.39219 12.1504 1.61719C12.4504 2.60885 12.7004 3.62552 12.8671 4.64219C13.8837 4.80885 14.9004 5.05052 15.8921 5.35885Z" fill="white"/>
<path d="M1.6084 5.35859C2.6084 5.05859 3.62507 4.80859 4.64173 4.64193C4.8084 3.65026 5.01673 2.66693 5.30007 1.70026C5.27507 1.70026 5.24173 1.68359 5.21673 1.68359C3.65006 2.45859 2.37507 3.76693 1.6084 5.35859Z" fill="white"/>
<path d="M11.5167 4.46536C11.3167 3.38203 11.0667 2.2987 10.7084 1.2487C10.6917 1.19036 10.6917 1.14036 10.6834 1.0737C10.0667 0.923698 9.41674 0.832031 8.75007 0.832031C8.07506 0.832031 7.4334 0.923698 6.8084 1.08203C6.80007 1.14036 6.8084 1.19036 6.79173 1.25703C6.44173 2.30703 6.1834 3.38203 5.9834 4.46536C7.82507 4.26536 9.67507 4.26536 11.5167 4.46536Z" fill="white"/>
<path d="M4.46634 5.98438C3.37467 6.18437 2.30801 6.44271 1.24967 6.79271C1.19134 6.80937 1.14134 6.80938 1.08301 6.81771C0.924674 7.43438 0.833008 8.08437 0.833008 8.75105C0.833008 9.42605 0.924674 10.0677 1.08301 10.6927C1.14134 10.7011 1.19134 10.6927 1.25801 10.7094C2.30801 11.0594 3.38301 11.3177 4.47467 11.5177C4.26634 9.67605 4.26634 7.82604 4.46634 5.98438Z" fill="white"/>
<path d="M16.4171 6.81771C16.3587 6.81771 16.3087 6.80937 16.2421 6.79271C15.1921 6.44271 14.1087 6.18437 13.0254 5.98438C13.2337 7.82604 13.2337 9.67605 13.0254 11.5094C14.1087 11.3094 15.1921 11.0594 16.2421 10.701C16.3004 10.6844 16.3504 10.6927 16.4171 10.6844C16.5671 10.0594 16.6671 9.41772 16.6671 8.74272C16.6671 8.08438 16.5754 7.44271 16.4171 6.81771Z" fill="white"/>
<path d="M5.9834 13.0357C6.1834 14.1273 6.4334 15.2023 6.79173 16.2523C6.8084 16.3107 6.80007 16.3607 6.8084 16.4273C7.4334 16.5773 8.07506 16.669 8.75007 16.669C9.41674 16.669 10.0667 16.5773 10.6834 16.419C10.6917 16.3607 10.6917 16.3107 10.7084 16.244C11.0584 15.194 11.3167 14.119 11.5167 13.0273C10.6001 13.1273 9.67507 13.2023 8.75007 13.2023C7.82506 13.2023 6.90007 13.1357 5.9834 13.0357Z" fill="white"/>
<path d="M5.79102 5.79297C5.54102 7.75964 5.54102 9.74296 5.79102 11.718C7.75768 11.968 9.74101 11.968 11.716 11.718C11.966 9.75129 11.966 7.76797 11.716 5.79297C9.74101 5.54297 7.75768 5.54297 5.79102 5.79297Z" fill="white"/>
</svg>
