<svg width="20" height="20" viewBox="0 0 20 20" fill="none" xmlns="http://www.w3.org/2000/svg">
<path d="M4.95019 13.9747L3.56688 16.3247C3.46688 16.4997 3.2085 16.4997 3.10017 16.3247L1.69188 13.9747C1.58355 13.7914 1.71686 13.5664 1.92519 13.5664H4.71683C4.92517 13.5664 5.05019 13.7997 4.95019 13.9747Z" fill="white"/>
<path d="M9.74134 7.00704L6.44968 12.3987C6.37468 12.5237 6.24136 12.5904 6.09969 12.5904H1.87469C1.55803 12.5904 1.35803 12.257 1.51636 11.9904L6.89972 3.10704C7.05805 2.84871 7.44969 2.84038 7.60803 3.10704L9.74134 6.61537C9.81634 6.73204 9.81634 6.88204 9.74134 7.00704Z" fill="white"/>
<path d="M11.4338 12.0737H8.53381C8.36715 12.0737 8.25886 11.8904 8.34223 11.7404L9.79223 9.28203C9.87556 9.14036 10.0839 9.14036 10.1672 9.28203L11.6172 11.7404C11.7089 11.8904 11.6005 12.0737 11.4338 12.0737Z" fill="white"/>
<path d="M11.3835 2.83333L10.1753 4.89167C10.0919 5.03333 9.87528 5.03333 9.79194 4.89167L8.58353 2.83333C8.50019 2.68333 8.60028 2.5 8.77528 2.5H11.1919C11.3669 2.5 11.4669 2.68333 11.3835 2.83333Z" fill="white"/>
<path d="M18.4749 11.9737C18.6416 12.2487 18.4333 12.5987 18.1166 12.5987H14.0583C13.9166 12.5987 13.7916 12.5237 13.7166 12.407L10.5416 7.01538C10.4666 6.89038 10.4666 6.74037 10.5416 6.61537L12.5999 3.10704C12.7499 2.84871 13.1333 2.84038 13.2833 3.10704C14.2999 4.86538 17.4083 10.1487 18.4749 11.9737Z" fill="white"/>
<path d="M18.2752 13.9753C17.8169 14.7503 17.3252 15.5836 16.8752 16.3419C16.7669 16.5253 16.5085 16.5169 16.4002 16.3336L15.017 13.9753C14.9086 13.7919 15.0419 13.5586 15.2585 13.5586H18.0336C18.2503 13.5669 18.3835 13.7919 18.2752 13.9753Z" fill="white"/>
<path d="M15.0169 17.5008H4.95024C4.65024 17.5008 4.46689 17.1758 4.61689 16.9174L6.55856 13.6174C6.62523 13.5008 6.75025 13.4258 6.89192 13.4258H13.0752C13.2086 13.4258 13.3419 13.5008 13.4086 13.6174L15.3502 16.9174C15.5002 17.1758 15.3169 17.5008 15.0169 17.5008Z" fill="white"/>
</svg>
