<svg width="20" height="20" viewBox="0 0 20 20" fill="none" xmlns="http://www.w3.org/2000/svg">
<path d="M18.9581 10.0022C18.9581 10.3439 18.6748 10.6272 18.3331 10.6272H16.6331C16.3414 13.8022 13.7998 16.3439 10.6248 16.6355V18.3355C10.6248 18.6772 10.3414 18.9605 9.99975 18.9605C9.65809 18.9605 9.37475 18.6772 9.37475 18.3355V16.6355C8.86642 16.5939 8.36642 16.4855 7.89145 16.3272C7.29979 16.1272 7.11645 15.3772 7.55812 14.9355L9.89975 12.5939C9.93309 12.6022 9.95809 12.6022 9.99142 12.6022C11.4331 12.6022 12.5914 11.4439 12.5914 10.0022C12.5914 9.96888 12.5914 9.94388 12.5831 9.91055L14.9248 7.56886C15.3664 7.1272 16.1164 7.31053 16.3164 7.9022C16.4748 8.37721 16.5831 8.86888 16.6248 9.38555H18.3331C18.6748 9.37721 18.9581 9.66055 18.9581 10.0022Z" fill="white"/>
<path d="M18.142 1.85964C17.892 1.60964 17.4837 1.60964 17.2337 1.85964L14.2253 4.86797C13.2253 4.04297 11.9753 3.5013 10.617 3.3763V1.66797C10.617 1.3263 10.3337 1.04297 9.99199 1.04297C9.65033 1.04297 9.36699 1.3263 9.36699 1.66797V3.36797C6.19199 3.66797 3.65033 6.2013 3.35866 9.3763H1.66699C1.32533 9.3763 1.04199 9.65964 1.04199 10.0013C1.04199 10.343 1.32533 10.6263 1.66699 10.6263H3.36699C3.49199 11.9846 4.03366 13.2346 4.85866 14.2346L1.85033 17.243C1.60033 17.493 1.60033 17.9013 1.85033 18.1513C1.98366 18.268 2.14199 18.3346 2.30866 18.3346C2.47533 18.3346 2.63366 18.268 2.75866 18.143L18.142 2.75964C18.4003 2.50964 18.4003 2.10964 18.142 1.85964ZM7.40033 10.0013C7.40033 8.56797 8.56699 7.4013 10.0003 7.4013C10.4837 7.4013 10.9337 7.54297 11.317 7.7763L7.77533 11.318C7.54199 10.9346 7.40033 10.4846 7.40033 10.0013Z" fill="white"/>
</svg>
