<svg width="20" height="20" viewBox="0 0 20 20" fill="none" xmlns="http://www.w3.org/2000/svg">
<path d="M18.3337 9.3763H16.6337C16.3337 6.2013 13.8003 3.65964 10.6253 3.36797V1.66797C10.6253 1.3263 10.342 1.04297 10.0003 1.04297C9.65866 1.04297 9.37533 1.3263 9.37533 1.66797V3.36797C6.20033 3.66797 3.65866 6.2013 3.36699 9.3763H1.66699C1.32533 9.3763 1.04199 9.65964 1.04199 10.0013C1.04199 10.343 1.32533 10.6263 1.66699 10.6263H3.36699C3.66699 13.8013 6.20033 16.343 9.37533 16.6346V18.3346C9.37533 18.6763 9.65866 18.9596 10.0003 18.9596C10.342 18.9596 10.6253 18.6763 10.6253 18.3346V16.6346C13.8003 16.3346 16.342 13.8013 16.6337 10.6263H18.3337C18.6753 10.6263 18.9587 10.343 18.9587 10.0013C18.9587 9.65964 18.6753 9.3763 18.3337 9.3763ZM10.0003 12.6013C8.56699 12.6013 7.40033 11.4346 7.40033 10.0013C7.40033 8.56797 8.56699 7.4013 10.0003 7.4013C11.4337 7.4013 12.6003 8.56797 12.6003 10.0013C12.6003 11.4346 11.4337 12.6013 10.0003 12.6013Z" fill="white"/>
</svg>
