<svg width="20" height="20" viewBox="0 0 20 20" fill="none" xmlns="http://www.w3.org/2000/svg">
<path d="M15.9257 4.13125C12.6674 0.872917 7.3757 0.872917 4.11737 4.13125C0.800706 7.44792 0.859036 12.8562 4.28404 16.1062C7.4507 19.0979 12.5841 19.0979 15.7507 16.1062C19.1841 12.8562 19.2424 7.44792 15.9257 4.13125ZM13.6507 13.8729C12.6507 14.8229 11.3341 15.2979 10.0174 15.2979C8.70075 15.2979 7.38404 14.8229 6.38404 13.8729C6.13404 13.6312 6.1257 13.2396 6.35904 12.9896C6.6007 12.7396 6.99237 12.7312 7.24237 12.9646C8.76741 14.4062 11.2591 14.4146 12.7924 12.9646C13.0424 12.7312 13.4424 12.7396 13.6757 12.9896C13.9174 13.2396 13.9007 13.6312 13.6507 13.8729Z" fill="white"/>
</svg>
