<svg width="20" height="20" viewBox="0 0 20 20" fill="none" xmlns="http://www.w3.org/2000/svg">
<path d="M17.775 12.2269C16.9 11.3519 16.2084 11.6352 15.6084 12.2269L12.15 15.6852C12.0167 15.8186 11.8917 16.0769 11.8584 16.2602L11.6667 17.5852C11.6 18.0602 11.9334 18.4019 12.4084 18.3269L13.7334 18.1352C13.9167 18.1102 14.175 17.9769 14.3084 17.8436L17.7667 14.3852C18.375 13.7936 18.65 13.1019 17.775 12.2269Z" fill="white"/>
<path d="M5.6222 1.72096C6.08042 1.6616 6.45818 2.04232 6.45818 2.50436V5.66639C6.45818 6.12663 6.08508 6.49972 5.62485 6.49972H2.49985C2.03961 6.49972 1.65968 6.12495 1.7154 5.66809C1.98845 3.42929 3.39307 2.00976 5.6222 1.72096Z" fill="white"/>
<path d="M17.442 6.4991H14.3753C13.9151 6.4991 13.542 6.126 13.542 5.66577V2.50431C13.542 2.04205 13.9204 1.66126 14.3788 1.72105C16.5735 2.00725 17.9707 3.38919 18.2753 5.56577C18.342 6.05744 17.942 6.4991 17.442 6.4991Z" fill="white"/>
<path d="M5.62453 13.5859C6.08476 13.5859 6.45786 13.959 6.45786 14.4193V17.4359C6.45786 17.9359 6.01619 18.3359 5.51619 18.2693C3.37526 17.9507 2.02459 16.5784 1.72764 14.4277C1.66413 13.9677 2.04578 13.5859 2.51014 13.5859H5.62453Z" fill="white"/>
<path d="M6.45866 8.58335C6.45866 8.1231 6.08556 7.75 5.62533 7.75H2.50033C2.04009 7.75 1.66699 8.1231 1.66699 8.58335V11.5C1.66699 11.9603 2.04009 12.3334 2.50033 12.3334H5.62533C6.08556 12.3334 6.45866 11.9603 6.45866 11.5V8.58335Z" fill="white"/>
<path d="M12.2913 8.58335C12.2913 8.1231 11.9183 7.75 11.458 7.75H8.54134C8.08111 7.75 7.70801 8.1231 7.70801 8.58335V11.5C7.70801 11.9603 8.08111 12.3334 8.54134 12.3334H11.458C11.9163 12.3334 12.2913 11.9584 12.2913 11.5V8.58335Z" fill="white"/>
<path d="M12.2913 2.5013C12.2913 2.04106 11.9183 1.66797 11.458 1.66797H8.54134C8.08111 1.66797 7.70801 2.04107 7.70801 2.5013V5.66797C7.70801 6.12821 8.08111 6.5013 8.54134 6.5013H11.458C11.9183 6.5013 12.2913 6.1282 12.2913 5.66797V2.5013Z" fill="white"/>
</svg>
