<svg width="20" height="20" viewBox="0 0 20 20" fill="none" xmlns="http://www.w3.org/2000/svg">
<path d="M6.45866 1.66797V6.5013H1.66699C1.66699 3.49297 3.45866 1.68464 6.45866 1.66797Z" fill="white"/>
<path d="M18.3337 6.5013H13.542V1.66797C16.542 1.68464 18.3337 3.49297 18.3337 6.5013Z" fill="white"/>
<path d="M18.3337 13.5859C18.3003 16.5443 16.517 18.3193 13.542 18.3359V13.5859H18.3337Z" fill="white"/>
<path d="M6.45866 13.5859V18.3359C3.48366 18.3193 1.70033 16.5443 1.66699 13.5859H6.45866Z" fill="white"/>
<path d="M6.45866 7.75H1.66699V12.3334H6.45866V7.75Z" fill="white"/>
<path d="M18.3337 7.75H13.542V12.3334H18.3337V7.75Z" fill="white"/>
<path d="M12.2913 7.75H7.70801V12.3334H12.2913V7.75Z" fill="white"/>
<path d="M12.2913 1.66797H7.70801V6.5013H12.2913V1.66797Z" fill="white"/>
<path d="M12.2913 13.5859H7.70801V18.3359H12.2913V13.5859Z" fill="white"/>
</svg>
