<svg width="20" height="20" viewBox="0 0 20 20" fill="none" xmlns="http://www.w3.org/2000/svg">
<path d="M9.97491 1.66797C5.37493 1.66797 1.6416 5.4013 1.6416 10.0013C1.6416 14.6013 5.37493 18.3346 9.97491 18.3346C14.5749 18.3346 18.3082 14.6013 18.3082 10.0013C18.3082 5.4013 14.5832 1.66797 9.97491 1.66797ZM14.4999 13.693C13.4749 15.168 11.7916 16.043 9.99991 16.043C8.20827 16.043 6.52493 15.168 5.49993 13.693C5.29993 13.4096 5.37493 13.018 5.65827 12.8263C5.9416 12.6263 6.33327 12.7013 6.52493 12.9846C7.3166 14.118 8.61658 14.8013 9.99991 14.8013C11.3832 14.8013 12.6832 14.1263 13.4749 12.9846C13.6749 12.7013 14.0582 12.6346 14.3416 12.8263C14.6332 13.018 14.6999 13.4096 14.4999 13.693Z" fill="white"/>
</svg>
