<svg width="20" height="20" viewBox="0 0 20 20" fill="none" xmlns="http://www.w3.org/2000/svg">
<path d="M18.3337 4.78516V15.2185C18.3337 16.9351 16.9337 18.3351 15.217 18.3351H14.7837C13.067 18.3351 11.667 16.9351 11.667 15.2185V9.9018C11.9587 9.86846 12.242 9.8268 12.5087 9.76846C14.2087 9.46013 15.5003 8.8768 16.4337 8.28516C17.6337 7.53516 18.3337 6.20182 18.3337 4.78516Z" fill="white"/>
<path d="M18.3337 4.78464C18.3337 6.20131 17.6337 7.53463 16.4337 8.28463C15.5003 8.8763 14.2087 9.45964 12.5087 9.76797C12.242 9.8263 11.9587 9.86797 11.667 9.9013V10.5263C10.6753 10.6513 9.61699 10.5846 8.39199 10.7096L8.33366 10.718V15.218C8.33366 16.9346 6.93367 18.3346 5.217 18.3346H4.78365C3.06698 18.3346 1.66699 16.9346 1.66699 15.218C1.66699 15.143 1.66701 15.0596 1.68368 14.9846C1.75034 13.6513 2.43368 12.4263 3.56702 11.718C4.50035 11.1263 5.79198 10.543 7.48364 10.2346C7.75031 10.1763 8.04199 10.1346 8.33366 10.1013V9.45964C9.63366 9.34297 10.6253 9.40964 11.592 9.28464L11.667 9.2763V4.78464C11.667 3.06798 13.067 1.66797 14.7837 1.66797H15.217C16.742 1.66797 18.0253 2.7763 18.2837 4.23464C18.317 4.40964 18.3337 4.59298 18.3337 4.78464Z" fill="white"/>
<path d="M8.33366 4.78464V10.1013C8.04199 10.1346 7.75031 10.1763 7.48364 10.2346C5.79198 10.543 4.50035 11.1263 3.56702 11.718C2.43368 12.4263 1.75034 13.6513 1.68368 14.9846C1.67534 14.993 1.66699 15.0013 1.66699 15.0013V4.78464C1.66699 3.06798 3.06698 1.66797 4.78365 1.66797H5.217C6.93367 1.66797 8.33366 3.06798 8.33366 4.78464Z" fill="white"/>
</svg>
