<svg width="20" height="20" viewBox="0 0 20 20" fill="none" xmlns="http://www.w3.org/2000/svg">
<path d="M8.40039 9.8599H9.77539L9.93372 8.47656H8.55872L8.40039 9.8599Z" fill="white"/>
<path d="M18.3087 6.00964C18.142 3.44297 16.5587 1.85964 13.992 1.69297C13.8253 1.6763 13.6587 1.66797 13.492 1.66797H6.50866C6.34199 1.66797 6.17533 1.6763 6.00866 1.69297C3.44199 1.85964 1.85866 3.44297 1.69199 6.00964C1.67533 6.1763 1.66699 6.34297 1.66699 6.50964V13.493C1.66699 13.6596 1.67533 13.8263 1.69199 13.993C1.85866 16.5596 3.44199 18.143 6.00866 18.3096C6.17533 18.3263 6.34199 18.3346 6.50866 18.3346H11.2503C11.7087 18.3346 12.0837 17.9596 12.0837 17.5013V15.0263C12.0837 13.4013 13.4003 12.0846 15.0253 12.0846H17.5003C17.9587 12.0846 18.3337 11.7096 18.3337 11.2513V6.50964C18.3337 6.34297 18.3253 6.1763 18.3087 6.00964ZM13.3337 8.4763H11.192L11.0337 9.85964H12.892C13.242 9.85964 13.517 10.143 13.517 10.4846C13.517 10.8263 13.242 11.1096 12.892 11.1096H10.9003L10.667 13.1846C10.6337 13.5013 10.3587 13.743 10.042 13.743C10.0253 13.743 10.0003 13.743 9.97533 13.7346C9.63366 13.7013 9.38366 13.393 9.42533 13.043L9.64199 11.1096H8.26699L8.03366 13.1846C8.00033 13.5013 7.72533 13.743 7.41699 13.743C7.39199 13.743 7.36699 13.743 7.34199 13.7346C7.00033 13.7013 6.75033 13.393 6.79199 13.043L7.00866 11.1096H5.00033C4.65866 11.1096 4.37533 10.8263 4.37533 10.4846C4.37533 10.143 4.65866 9.85964 5.00033 9.85964H7.14199L7.30033 8.4763H5.44199C5.09199 8.4763 4.81699 8.19297 4.81699 7.8513C4.81699 7.50964 5.09199 7.2263 5.44199 7.2263H7.43366L7.66699 5.1513C7.70866 4.80964 8.01699 4.55964 8.35866 4.6013C8.70033 4.63464 8.95032 4.94297 8.90866 5.29297L8.69199 7.2263H10.067L10.3003 5.1513C10.342 4.80964 10.6503 4.55964 10.992 4.6013C11.3337 4.63464 11.5837 4.94297 11.542 5.29297L11.3253 7.2263H13.3337C13.6753 7.2263 13.9587 7.50964 13.9587 7.8513C13.9587 8.19297 13.6753 8.4763 13.3337 8.4763Z" fill="white"/>
<path d="M17.4747 19.1654H15.0247C13.9663 19.1654 13.333 18.532 13.333 17.4737V15.0237C13.333 13.9654 13.9663 13.332 15.0247 13.332H17.4747C18.533 13.332 19.1663 13.9654 19.1663 15.0237V17.4737C19.1663 18.532 18.533 19.1654 17.4747 19.1654ZM17.658 16.407C17.558 16.307 17.4247 16.257 17.2913 16.257C17.158 16.257 17.0247 16.307 16.9247 16.407L16.7747 16.557V14.6904C16.7747 14.3987 16.5413 14.1654 16.2497 14.1654C15.958 14.1654 15.7247 14.3987 15.7247 14.6904V16.557L15.5747 16.407C15.3747 16.207 15.0413 16.207 14.8413 16.407C14.6413 16.607 14.6413 16.9404 14.8413 17.1404L15.883 18.182C15.9247 18.2237 15.983 18.257 16.0413 18.282C16.058 18.2904 16.0747 18.2904 16.0913 18.2987C16.133 18.3154 16.1747 18.3237 16.2247 18.3237C16.2413 18.3237 16.258 18.3237 16.2747 18.3237C16.333 18.3237 16.383 18.3154 16.4413 18.2904C16.4497 18.2904 16.4497 18.2904 16.458 18.2904C16.5163 18.2654 16.5663 18.232 16.608 18.1904C16.6163 18.182 16.6163 18.182 16.6247 18.182L17.6663 17.1404C17.8663 16.9404 17.8663 16.607 17.658 16.407Z" fill="white"/>
</svg>
