<svg width="20" height="20" viewBox="0 0 20 20" fill="none" xmlns="http://www.w3.org/2000/svg">
<path d="M6.70801 8.44871V9.41538H9.42467V6.70703H8.45801C7.49134 6.70703 6.70801 7.49036 6.70801 8.44871Z" fill="white"/>
<path d="M6.70801 11.5487C6.70801 12.507 7.49134 13.2904 8.44967 13.2904H9.41634V10.582H6.70801V11.5487Z" fill="white"/>
<path d="M10.584 13.2904H11.5507C12.509 13.2904 13.2923 12.507 13.2923 11.5487V10.582H10.584V13.2904Z" fill="white"/>
<path d="M13.492 1.66797H6.50866C3.47533 1.66797 1.66699 3.4763 1.66699 6.50964V13.4846C1.66699 16.5263 3.47533 18.3346 6.50866 18.3346H13.4837C16.517 18.3346 18.3253 16.5263 18.3253 13.493V6.50964C18.3337 3.4763 16.5253 1.66797 13.492 1.66797ZM14.4587 11.5513C14.4587 13.1513 13.1503 14.4596 11.5503 14.4596H8.45033C6.85033 14.4596 5.54199 13.1596 5.54199 11.5513V8.4513C5.54199 6.8513 6.85033 5.54297 8.45033 5.54297H11.5503C13.1503 5.54297 14.4587 6.84297 14.4587 8.4513V11.5513Z" fill="white"/>
<path d="M11.5507 6.70703H10.584V9.42371H13.3007V8.45705C13.2923 7.49036 12.509 6.70703 11.5507 6.70703Z" fill="white"/>
</svg>
