<svg width="20" height="20" viewBox="0 0 20 20" fill="none" xmlns="http://www.w3.org/2000/svg">
<path d="M7.08301 10.625C6.74134 10.625 6.45801 10.3417 6.45801 10V5C6.45801 4.65833 6.74134 4.375 7.08301 4.375C7.42467 4.375 7.70801 4.65833 7.70801 5V10C7.70801 10.3417 7.42467 10.625 7.08301 10.625Z" fill="white"/>
<path d="M7.08301 18.9583C6.74134 18.9583 6.45801 18.675 6.45801 18.3333V15C6.45801 14.6583 6.74134 14.375 7.08301 14.375C7.42467 14.375 7.70801 14.6583 7.70801 15V18.3333C7.70801 18.675 7.42467 18.9583 7.08301 18.9583Z" fill="white"/>
<path d="M12.917 18.9583C12.5753 18.9583 12.292 18.675 12.292 18.3333V5C12.292 4.65833 12.5753 4.375 12.917 4.375C13.2587 4.375 13.542 4.65833 13.542 5V18.3333C13.542 18.675 13.2587 18.9583 12.917 18.9583Z" fill="white"/>
<path d="M8.41602 4.41797C8.41602 4.8263 8.24935 5.2013 7.97435 5.4763C7.69935 5.7513 7.32435 5.91797 6.91602 5.91797H5.04102C5.27435 5.60964 5.41602 5.20964 5.41602 4.79297V4.04297C5.41602 3.6263 5.27435 3.2263 5.04102 2.91797H6.91602C7.74102 2.91797 8.41602 3.59297 8.41602 4.41797Z" fill="white"/>
<path d="M5.41699 4.04029V4.79029C5.41699 5.20695 5.27533 5.60695 5.04199 5.91529C4.40866 6.75695 3.10866 7.04028 1.90033 5.96529C1.76699 5.84862 1.66699 5.59862 1.66699 5.42362V3.47362C1.66699 3.30695 1.75033 3.08195 1.85866 2.96529C2.90866 1.86528 4.17533 2.02362 4.86699 2.71529C4.92533 2.77362 4.99199 2.84029 5.04199 2.91529C5.27533 3.22362 5.41699 3.62362 5.41699 4.04029Z" fill="white"/>
<path d="M11.584 4.41797C11.584 4.8263 11.7507 5.2013 12.0257 5.4763C12.3007 5.7513 12.6757 5.91797 13.084 5.91797H14.959C14.7257 5.60964 14.584 5.20964 14.584 4.79297V4.04297C14.584 3.6263 14.7257 3.2263 14.959 2.91797H13.084C12.259 2.91797 11.584 3.59297 11.584 4.41797Z" fill="white"/>
<path d="M14.583 4.04029V4.79029C14.583 5.20695 14.7247 5.60695 14.958 5.91529C15.5913 6.75695 16.8913 7.04028 18.0997 5.96529C18.233 5.84862 18.333 5.59862 18.333 5.42362V3.47362C18.333 3.31529 18.2497 3.08195 18.1413 2.96529C17.0913 1.86528 15.8247 2.02362 15.133 2.71529C15.0747 2.77362 15.0163 2.84029 14.958 2.91529C14.7247 3.22362 14.583 3.62362 14.583 4.04029Z" fill="white"/>
<path d="M8.33301 11.25V14.5833C8.33301 15.275 7.77467 15.8333 7.08301 15.8333C6.39134 15.8333 5.83301 15.275 5.83301 14.5833V11.25C5.83301 10.5583 6.39134 10 7.08301 10C7.77467 10 8.33301 10.5583 8.33301 11.25Z" fill="white"/>
</svg>
