<svg width="20" height="20" viewBox="0 0 20 20" fill="none" xmlns="http://www.w3.org/2000/svg">
<path d="M18.3337 7.24124C18.3337 8.23291 18.1754 9.14958 17.9004 9.99958C16.5837 14.1662 12.5254 16.6579 10.5171 17.3412C10.2337 17.4412 9.76707 17.4412 9.48373 17.3412C8.9504 17.1579 8.27538 16.8496 7.55038 16.4162C7.08372 16.1412 7.00872 15.4912 7.39205 15.1079L16.7921 5.70791C17.2421 5.25791 18.0337 5.44958 18.1921 6.06624C18.2837 6.44124 18.3337 6.83291 18.3337 7.24124Z" fill="white"/>
<path d="M18.7752 1.22422C18.5335 0.982552 18.1335 0.982552 17.8918 1.22422L15.9418 3.17422C15.2835 2.79922 14.5168 2.58255 13.7002 2.58255C12.1918 2.58255 10.8418 3.31589 10.0002 4.44089C9.1585 3.31589 7.80853 2.58255 6.3002 2.58255C3.74186 2.58255 1.66686 4.66589 1.66686 7.24089C1.66686 8.23255 1.8252 9.14926 2.1002 9.99926C2.64186 11.7243 3.65853 13.1659 4.80853 14.3076L1.2252 17.8909C0.983529 18.1326 0.983529 18.5326 1.2252 18.7743C1.3502 18.8993 1.50853 18.9576 1.66686 18.9576C1.8252 18.9576 1.98353 18.8993 2.10853 18.7743L18.7752 2.10755C19.0168 1.86589 19.0168 1.46589 18.7752 1.22422Z" fill="white"/>
</svg>
