<svg width="20" height="20" viewBox="0 0 20 20" fill="none" xmlns="http://www.w3.org/2000/svg">
<path d="M10.0003 1.66797C5.40033 1.66797 1.66699 5.4013 1.66699 10.0013C1.66699 14.6013 5.40033 18.3346 10.0003 18.3346C14.6003 18.3346 18.3337 14.6013 18.3337 10.0013C18.3337 5.4013 14.6003 1.66797 10.0003 1.66797ZM10.2753 14.168C10.1253 14.218 9.86699 14.218 9.71699 14.168C8.41699 13.7263 5.50033 11.868 5.50033 8.71797C5.50033 7.3263 6.61699 6.2013 8.00033 6.2013C8.81699 6.2013 9.54199 6.59297 10.0003 7.20963C10.4503 6.6013 11.1837 6.2013 12.0003 6.2013C13.3837 6.2013 14.5003 7.3263 14.5003 8.71797C14.5003 11.868 11.5837 13.7263 10.2753 14.168Z" fill="white"/>
</svg>
