<svg width="20" height="20" viewBox="0 0 20 20" fill="none" xmlns="http://www.w3.org/2000/svg">
<path d="M17.234 11.5904V11.582C16.5007 10.807 15.4757 10.332 14.334 10.332C12.1257 10.332 10.334 12.1237 10.334 14.332C10.334 15.357 10.7257 16.2904 11.359 16.9987C12.0923 17.8154 13.1507 18.332 14.334 18.332C16.5423 18.332 18.334 16.5404 18.334 14.332C18.334 13.2737 17.9173 12.307 17.234 11.5904ZM15.8257 15.007H14.959V15.9154C14.959 16.257 14.6757 16.5404 14.334 16.5404C13.9923 16.5404 13.709 16.257 13.709 15.9154V15.007H12.8423C12.4923 15.007 12.2173 14.732 12.2173 14.382C12.2173 14.0404 12.484 13.7654 12.834 13.757H13.709V12.9237C13.709 12.907 13.709 12.8904 13.7173 12.8737C13.734 12.557 14.009 12.2987 14.334 12.2987C14.6673 12.2987 14.9423 12.5654 14.959 12.8987V13.757H15.8257C16.1757 13.757 16.4507 14.0404 16.4507 14.382C16.4507 14.732 16.1757 15.007 15.8257 15.007Z" fill="white"/>
<path d="M18.3337 7.27551C18.3337 8.26718 18.1753 9.18383 17.9003 10.0338C17.8503 10.2088 17.642 10.2588 17.492 10.1505C16.5837 9.4755 15.4753 9.11716 14.3337 9.11716C11.442 9.11716 9.08366 11.4755 9.08366 14.3672C9.08366 15.2672 9.31699 16.1505 9.75866 16.9338C9.89199 17.1672 9.73366 17.4672 9.48366 17.3755C7.47533 16.6922 3.41699 14.2005 2.10033 10.0338C1.82533 9.18383 1.66699 8.26718 1.66699 7.27551C1.66699 4.70051 3.74199 2.61719 6.30033 2.61719C7.80866 2.61719 9.15866 3.35051 10.0003 4.47551C10.842 3.35051 12.192 2.61719 13.7003 2.61719C16.2587 2.61718 18.3337 4.70051 18.3337 7.27551Z" fill="white"/>
</svg>
