<svg width="20" height="20" viewBox="0 0 20 20" fill="none" xmlns="http://www.w3.org/2000/svg">
<path d="M17.2423 11.5987C17.234 11.5987 17.234 11.5904 17.234 11.5904V11.582C16.5007 10.8154 15.4757 10.332 14.334 10.332C12.1257 10.332 10.334 12.1237 10.334 14.332C10.334 15.357 10.7257 16.2904 11.359 16.9987C12.0923 17.8154 13.1507 18.332 14.334 18.332C16.5423 18.332 18.334 16.5404 18.334 14.332C18.334 13.2737 17.9173 12.3154 17.2423 11.5987ZM15.8423 15.8904C15.7257 16.007 15.559 16.0737 15.4007 16.0737C15.2423 16.0737 15.084 16.007 14.959 15.8904L14.3423 15.2737L13.709 15.9154C13.584 16.032 13.4257 16.0987 13.2673 16.0987C13.184 16.0987 13.109 16.082 13.034 16.0487C12.959 16.0237 12.884 15.9737 12.8257 15.9154C12.5757 15.6654 12.5757 15.2737 12.8257 15.032L13.459 14.3904L12.8507 13.7737C12.6007 13.532 12.6007 13.132 12.8507 12.8904C13.0923 12.6487 13.484 12.6487 13.734 12.8904L14.3423 13.507L14.934 12.9154C15.184 12.6737 15.5757 12.6737 15.8173 12.9154C15.959 13.057 16.0173 13.2404 15.9923 13.4237C15.984 13.5654 15.9257 13.6987 15.8173 13.7987L15.2257 14.3904L15.8423 15.007C16.0923 15.2487 16.0923 15.6404 15.8423 15.8904Z" fill="white"/>
<path d="M18.3337 7.27551C18.3337 8.26718 18.1753 9.18383 17.9003 10.0338C17.8503 10.2088 17.642 10.2588 17.492 10.1505C16.5837 9.4755 15.4753 9.11716 14.3337 9.11716C11.442 9.11716 9.08366 11.4755 9.08366 14.3672C9.08366 15.2672 9.31699 16.1505 9.75866 16.9338C9.89199 17.1672 9.73366 17.4672 9.48366 17.3755C7.47533 16.6922 3.41699 14.2005 2.10033 10.0338C1.82533 9.18383 1.66699 8.26718 1.66699 7.27551C1.66699 4.70051 3.74199 2.61719 6.30033 2.61719C7.80866 2.61719 9.15866 3.35051 10.0003 4.47551C10.842 3.35051 12.192 2.61719 13.7003 2.61719C16.2587 2.61718 18.3337 4.70051 18.3337 7.27551Z" fill="white"/>
</svg>
