<svg width="20" height="20" viewBox="0 0 20 20" fill="none" xmlns="http://www.w3.org/2000/svg">
<path d="M18.1163 17.0909L17.3997 16.3742C17.7747 15.8076 17.9913 15.1326 17.9913 14.4076C17.9913 12.4326 16.3913 10.8242 14.408 10.8242C12.4247 10.8242 10.833 12.4326 10.833 14.4159C10.833 16.3992 12.433 17.9992 14.4163 17.9992C15.1413 17.9992 15.8163 17.7826 16.383 17.4076L17.0997 18.1242C17.2413 18.2659 17.4247 18.3409 17.6163 18.3409C17.808 18.3409 17.9913 18.2659 18.133 18.1242C18.408 17.8326 18.408 17.3742 18.1163 17.0909Z" fill="white"/>
<path d="M18.3337 7.27551C18.3337 8.26718 18.1753 9.18383 17.9003 10.0338C17.8503 10.2088 17.642 10.2588 17.492 10.1505C16.5837 9.4755 15.4753 9.11716 14.3337 9.11716C11.442 9.11716 9.08366 11.4755 9.08366 14.3672C9.08366 15.2672 9.31699 16.1505 9.75866 16.9338C9.89199 17.1672 9.73366 17.4672 9.48366 17.3755C7.47533 16.6922 3.41699 14.2005 2.10033 10.0338C1.82533 9.18383 1.66699 8.26718 1.66699 7.27551C1.66699 4.70051 3.74199 2.61719 6.30033 2.61719C7.80866 2.61719 9.15866 3.35051 10.0003 4.47551C10.842 3.35051 12.192 2.61719 13.7003 2.61719C16.2587 2.61718 18.3337 4.70051 18.3337 7.27551Z" fill="white"/>
</svg>
