<svg width="20" height="20" viewBox="0 0 20 20" fill="none" xmlns="http://www.w3.org/2000/svg">
<path d="M14.334 10.332C12.1257 10.332 10.334 12.1237 10.334 14.332C10.334 15.082 10.5423 15.7904 10.9173 16.3904C11.609 17.5487 12.8757 18.332 14.334 18.332C15.7923 18.332 17.0673 17.5487 17.7507 16.3904C18.1173 15.7904 18.334 15.082 18.334 14.332C18.334 12.1237 16.5423 10.332 14.334 10.332ZM16.3173 13.807L14.184 15.7737C14.0673 15.882 13.909 15.9404 13.759 15.9404C13.6007 15.9404 13.4423 15.882 13.3173 15.757L12.334 14.7737C12.0923 14.532 12.0923 14.132 12.334 13.8904C12.5757 13.6487 12.9757 13.6487 13.2173 13.8904L13.7757 14.4487L15.4673 12.882C15.7173 12.6487 16.1173 12.6654 16.3507 12.9154C16.584 13.1737 16.5673 13.5737 16.3173 13.807Z" fill="white"/>
<path d="M18.3337 7.27551C18.3337 8.26718 18.1753 9.18383 17.9003 10.0338C17.8503 10.2088 17.642 10.2588 17.492 10.1505C16.5837 9.4755 15.4753 9.11716 14.3337 9.11716C11.442 9.11716 9.08366 11.4755 9.08366 14.3672C9.08366 15.2672 9.31699 16.1505 9.75866 16.9338C9.89199 17.1672 9.73366 17.4672 9.48366 17.3755C7.47533 16.6922 3.41699 14.2005 2.10033 10.0338C1.82533 9.18383 1.66699 8.26718 1.66699 7.27551C1.66699 4.70051 3.74199 2.61719 6.30033 2.61719C7.80866 2.61719 9.15866 3.35051 10.0003 4.47551C10.842 3.35051 12.192 2.61719 13.7003 2.61719C16.2587 2.61718 18.3337 4.70051 18.3337 7.27551Z" fill="white"/>
</svg>
