<svg width="20" height="20" viewBox="0 0 20 20" fill="none" xmlns="http://www.w3.org/2000/svg">
<path d="M13.7003 2.58203C12.192 2.58203 10.842 3.31536 10.0003 4.44036C9.15866 3.31536 7.80866 2.58203 6.30033 2.58203C3.74199 2.58203 1.66699 4.66536 1.66699 7.24036C1.66699 8.23203 1.82533 9.14869 2.10033 9.99869C3.41699 14.1654 7.47533 16.657 9.48366 17.3404C9.76699 17.4404 10.2337 17.4404 10.517 17.3404C12.5253 16.657 16.5837 14.1654 17.9003 9.99869C18.1753 9.14869 18.3337 8.23203 18.3337 7.24036C18.3337 4.66536 16.2587 2.58203 13.7003 2.58203ZM12.367 9.48202L9.41699 12.432C9.30033 12.5487 9.08366 12.657 8.92533 12.682L7.80033 12.832C7.39199 12.8904 7.10866 12.607 7.16699 12.1987L7.32533 11.0737C7.35033 10.9154 7.45866 10.6904 7.57533 10.582L10.5253 7.63203C11.0337 7.1237 11.6253 6.88203 12.3753 7.63203C13.117 8.38202 12.8753 8.97369 12.367 9.48202Z" fill="white"/>
</svg>
