<svg width="20" height="20" viewBox="0 0 20 20" fill="none" xmlns="http://www.w3.org/2000/svg">
<path d="M12.5 9.06641H7.5V10.9414H12.5V9.06641Z" fill="white"/>
<path d="M10.0003 1.66797C5.40033 1.66797 1.66699 5.4013 1.66699 10.0013C1.66699 14.6013 5.40033 18.3346 10.0003 18.3346C14.6003 18.3346 18.3337 14.6013 18.3337 10.0013C18.3337 5.4013 14.6003 1.66797 10.0003 1.66797ZM13.7503 13.7513C13.7503 14.093 13.467 14.3763 13.1253 14.3763C12.7837 14.3763 12.5003 14.093 12.5003 13.7513V12.1846H7.50033V13.7513C7.50033 14.093 7.21699 14.3763 6.87533 14.3763C6.53366 14.3763 6.25033 14.093 6.25033 13.7513V6.2513C6.25033 5.90964 6.53366 5.6263 6.87533 5.6263C7.21699 5.6263 7.50033 5.90964 7.50033 6.2513V7.81797H12.5003V6.2513C12.5003 5.90964 12.7837 5.6263 13.1253 5.6263C13.467 5.6263 13.7503 5.90964 13.7503 6.2513V13.7513Z" fill="white"/>
</svg>
