<svg width="20" height="20" viewBox="0 0 20 20" fill="none" xmlns="http://www.w3.org/2000/svg">
<path opacity="0.13" d="M9.05784 11.668L10.6662 14.443L9.06626 17.218H5.83289L4.24121 14.4596L5.85789 11.668H9.05784Z" fill="white"/>
<path d="M8.78333 11.7344H5.93332C5.78332 11.7344 5.64999 11.8177 5.57499 11.9427L4.15 14.4094C4.075 14.5344 4.075 14.701 4.15 14.826L5.57499 17.2927C5.64999 17.4177 5.78332 17.501 5.93332 17.501H8.78333C8.93333 17.501 9.06667 17.4177 9.14167 17.2927L10.5667 14.826C10.6417 14.701 10.6417 14.5344 10.5667 14.4094L9.14167 11.9427C9.06667 11.8094 8.93333 11.7344 8.78333 11.7344Z" fill="white"/>
<path d="M18.5337 9.78383C18.6087 9.91716 18.6087 10.0838 18.5337 10.2172L14.4255 17.3255C14.3672 17.4338 14.2505 17.5005 14.1255 17.5005C13.8588 17.5005 13.6922 17.2088 13.8255 16.9838L16.5672 12.2338C16.6422 12.1005 16.6422 11.9338 16.5672 11.8005L12.9005 5.45053C12.8255 5.3172 12.6838 5.23386 12.5255 5.23386H5.18379C5.02546 5.23386 4.89211 5.3172 4.80877 5.45053L2.08379 10.1838C1.94212 10.4338 1.58379 10.4338 1.43379 10.1838C1.36712 10.0672 1.36712 9.9255 1.43379 9.80883L5.5338 2.70886C5.60046 2.57553 5.75045 2.49219 5.90878 2.49219H14.0672C14.2255 2.49219 14.3587 2.57553 14.4421 2.70886L18.5337 9.78383Z" fill="white"/>
<path d="M15.0755 12.2346L12.1588 17.2846C12.0838 17.418 11.9422 17.5013 11.7838 17.5013H11.2838C10.9505 17.5013 10.7422 17.143 10.9088 16.8513L12.0755 14.8346C12.1505 14.7013 12.1505 14.5346 12.0755 14.4013L9.90882 10.6513C9.82549 10.518 9.67549 10.4346 9.51715 10.4346H5.18385C5.02551 10.4346 4.89216 10.518 4.80883 10.6513L3.64217 12.668C3.4755 12.9596 3.05885 12.9596 2.89218 12.668L2.64219 12.243C2.56719 12.1096 2.56719 11.943 2.64219 11.8096L5.55051 6.75964C5.62551 6.6263 5.76716 6.54297 5.9255 6.54297H11.7505C11.9088 6.54297 12.0422 6.6263 12.1255 6.75964L15.0422 11.8096C15.1422 11.9346 15.1422 12.1096 15.0755 12.2346Z" fill="white"/>
</svg>
