<svg width="20" height="20" viewBox="0 0 20 20" fill="none" xmlns="http://www.w3.org/2000/svg">
<path d="M13.492 1.66797H6.50866C3.47533 1.66797 1.66699 3.4763 1.66699 6.50964V13.4846C1.66699 16.5263 3.47533 18.3346 6.50866 18.3346H13.4837C16.517 18.3346 18.3253 16.5263 18.3253 13.493V6.50964C18.3337 3.4763 16.5253 1.66797 13.492 1.66797ZM13.5003 15.2096C12.5587 15.2096 11.792 14.443 11.792 13.5013C11.792 12.9513 12.0587 12.468 12.467 12.1513C12.117 11.2346 11.242 10.6013 10.2587 10.6346L8.54199 10.643H8.53366C8.02533 10.643 7.54199 10.493 7.13366 10.2346V11.918C7.76699 12.168 8.21699 12.7846 8.21699 13.5013C8.21699 14.443 7.45033 15.2096 6.50866 15.2096C5.56699 15.2096 4.80033 14.443 4.80033 13.5013C4.80033 12.7763 5.25033 12.168 5.88366 11.918V8.29297C5.25033 8.0013 4.80033 7.36797 4.80033 6.6263C4.80033 5.61797 5.62533 4.79297 6.63366 4.79297C7.64199 4.79297 8.46699 5.61797 8.46699 6.6263C8.46699 7.44297 7.92533 8.1263 7.18366 8.36797C7.35033 8.9763 7.90033 9.4013 8.53366 9.4013C8.53366 9.4013 8.53366 9.4013 8.54199 9.4013L10.2587 9.39297C10.267 9.39297 10.267 9.39297 10.2753 9.39297C11.8087 9.39297 13.1837 10.368 13.6837 11.818C14.542 11.9096 15.217 12.6263 15.217 13.5096C15.2087 14.443 14.442 15.2096 13.5003 15.2096Z" fill="white"/>
</svg>
