<svg width="20" height="20" viewBox="0 0 20 20" fill="none" xmlns="http://www.w3.org/2000/svg">
<path d="M15.6253 18.3346C17.1211 18.3346 18.3337 17.1221 18.3337 15.6263C18.3337 14.1306 17.1211 12.918 15.6253 12.918C14.1296 12.918 12.917 14.1306 12.917 15.6263C12.917 17.1221 14.1296 18.3346 15.6253 18.3346Z" fill="white"/>
<path d="M15.833 6.66797C17.2138 6.66797 18.333 5.54868 18.333 4.16797C18.333 2.78726 17.2138 1.66797 15.833 1.66797C14.4523 1.66797 13.333 2.78726 13.333 4.16797C13.333 5.54868 14.4523 6.66797 15.833 6.66797Z" fill="white"/>
<path d="M4.16699 6.66797C5.5477 6.66797 6.66699 5.54868 6.66699 4.16797C6.66699 2.78726 5.5477 1.66797 4.16699 1.66797C2.78628 1.66797 1.66699 2.78726 1.66699 4.16797C1.66699 5.54868 2.78628 6.66797 4.16699 6.66797Z" fill="white"/>
<path d="M4.02541 6.68464C4.83374 9.0013 7.01707 10.5596 9.47541 10.5596C9.48375 10.5596 9.49208 10.5596 9.50041 10.5596L12.4421 10.5513C13.7087 10.5346 14.8421 11.393 15.1837 12.6263V14.168C15.1837 14.518 15.4671 14.8013 15.8254 14.8013C16.1754 14.8013 16.4587 14.518 16.4587 14.168V4.8013C16.4587 4.4513 16.1754 4.16797 15.8254 4.16797C15.4754 4.16797 15.1837 4.4513 15.1837 4.8013V10.318C14.4504 9.66797 13.4921 9.26797 12.4504 9.26797C12.4421 9.26797 12.4421 9.26797 12.4337 9.26797L9.49208 9.2763C9.48375 9.2763 9.48375 9.2763 9.47541 9.2763C7.56707 9.2763 5.85874 8.06797 5.23374 6.25964C5.13374 6.0013 4.89207 5.83464 4.62541 5.83464C4.55874 5.83464 4.48374 5.8513 4.41707 5.86797C4.08374 5.98464 3.90874 6.3513 4.02541 6.68464Z" fill="white"/>
</svg>
