<svg width="20" height="20" viewBox="0 0 20 20" fill="none" xmlns="http://www.w3.org/2000/svg">
<path d="M13.492 1.66797H6.50866C3.47533 1.66797 1.66699 3.4763 1.66699 6.50964V13.4846C1.66699 16.5263 3.47533 18.3346 6.50866 18.3346H13.4837C16.517 18.3346 18.3253 16.5263 18.3253 13.493V6.50964C18.3337 3.4763 16.5253 1.66797 13.492 1.66797ZM8.20866 13.7096C8.20866 14.6513 7.44199 15.418 6.50033 15.418C5.55866 15.418 4.79199 14.6513 4.79199 13.7096C4.79199 12.9846 5.24199 12.3763 5.87533 12.1263V8.5513C5.17533 8.29297 4.66699 7.6263 4.66699 6.83464C4.66699 5.8263 5.49199 5.0013 6.50033 5.0013C7.50866 5.0013 8.33366 5.8263 8.33366 6.83464C8.33366 7.6263 7.82533 8.29297 7.12533 8.5513V12.1263C7.75866 12.3763 8.20866 12.993 8.20866 13.7096ZM13.9587 15.418C13.017 15.418 12.2503 14.6513 12.2503 13.7096C12.2503 12.9846 12.7003 12.3763 13.3337 12.1263V7.29297C13.3337 7.1763 13.242 7.08464 13.1253 7.08464H12.1837L12.3587 7.2263C12.6253 7.4513 12.6587 7.84297 12.442 8.10963C12.317 8.25963 12.1337 8.33464 11.9587 8.33464C11.817 8.33464 11.6753 8.28464 11.5587 8.19297L10.0587 6.94297C9.91699 6.81797 9.83366 6.64297 9.83366 6.45964C9.83366 6.2763 9.91699 6.1013 10.0587 5.9763L11.5587 4.7263C11.8253 4.50964 12.217 4.54297 12.442 4.80964C12.667 5.0763 12.6253 5.46797 12.3587 5.69297L12.1837 5.83464H13.1253C13.9253 5.83464 14.5837 6.49297 14.5837 7.29297V12.1263C15.217 12.3763 15.667 12.993 15.667 13.7096C15.667 14.6513 14.9003 15.418 13.9587 15.418Z" fill="white"/>
</svg>
