<svg width="20" height="20" viewBox="0 0 20 20" fill="none" xmlns="http://www.w3.org/2000/svg">
<path d="M4.37533 7.08464C5.8711 7.08464 7.08366 5.87208 7.08366 4.3763C7.08366 2.88053 5.8711 1.66797 4.37533 1.66797C2.87955 1.66797 1.66699 2.88053 1.66699 4.3763C1.66699 5.87208 2.87955 7.08464 4.37533 7.08464Z" fill="white"/>
<path d="M4.16699 18.332C5.5477 18.332 6.66699 17.2128 6.66699 15.832C6.66699 14.4513 5.5477 13.332 4.16699 13.332C2.78628 13.332 1.66699 14.4513 1.66699 15.832C1.66699 17.2128 2.78628 18.332 4.16699 18.332Z" fill="white"/>
<path d="M15.833 18.332C17.2138 18.332 18.333 17.2128 18.333 15.832C18.333 14.4513 17.2138 13.332 15.833 13.332C14.4523 13.332 13.333 14.4513 13.333 15.832C13.333 17.2128 14.4523 18.332 15.833 18.332Z" fill="white"/>
<path d="M15.9753 13.3154C15.167 10.9987 12.9837 9.44036 10.5253 9.44036C10.517 9.44036 10.5087 9.44036 10.5003 9.44036L7.55866 9.4487C6.29199 9.46536 5.15866 8.60703 4.81699 7.3737V5.84036C4.81699 5.49036 4.53366 5.20703 4.17533 5.20703C3.81699 5.20703 3.54199 5.49036 3.54199 5.84036V15.1904C3.54199 15.5404 3.82533 15.8237 4.17533 15.8237C4.52533 15.8237 4.81699 15.5404 4.81699 15.1904V9.6737C5.55033 10.3237 6.50866 10.7237 7.55033 10.7237C7.55866 10.7237 7.55866 10.7237 7.56699 10.7237L10.5087 10.7154C10.517 10.7154 10.517 10.7154 10.5253 10.7154C12.4337 10.7154 14.142 11.9237 14.767 13.732C14.867 13.9987 15.1087 14.1654 15.3753 14.1654C15.442 14.1654 15.517 14.157 15.5837 14.132C15.917 14.0154 16.092 13.6487 15.9753 13.3154Z" fill="white"/>
</svg>
