<svg width="20" height="20" viewBox="0 0 20 20" fill="none" xmlns="http://www.w3.org/2000/svg">
<path d="M13.492 1.66797H6.50866C3.47533 1.66797 1.66699 3.4763 1.66699 6.50964V13.4846C1.66699 16.5263 3.47533 18.3346 6.50866 18.3346H13.4837C16.517 18.3346 18.3253 16.5263 18.3253 13.493V6.50964C18.3337 3.4763 16.5253 1.66797 13.492 1.66797ZM13.6753 8.19297C13.167 9.64297 11.8003 10.618 10.267 10.618C10.2587 10.618 10.2587 10.618 10.2503 10.618L8.53366 10.6096C8.53366 10.6096 8.53366 10.6096 8.52532 10.6096C7.89199 10.6096 7.34199 11.0346 7.17533 11.643C7.91699 11.8763 8.45866 12.568 8.45866 13.3846C8.45866 14.393 7.63366 15.218 6.62533 15.218C5.61699 15.218 4.79199 14.393 4.79199 13.3846C4.79199 12.643 5.24199 12.0013 5.87533 11.718V8.08464C5.24199 7.83464 4.79199 7.21797 4.79199 6.5013C4.79199 5.55964 5.55866 4.79297 6.50033 4.79297C7.44199 4.79297 8.20866 5.55964 8.20866 6.5013C8.20866 7.2263 7.75866 7.83464 7.12533 8.08464V9.76797C7.53366 9.50964 8.01699 9.35963 8.52532 9.35963H8.53366L10.2503 9.36797C11.2337 9.4013 12.1087 8.76797 12.4587 7.8513C12.0503 7.53464 11.7837 7.0513 11.7837 6.5013C11.7837 5.55964 12.5503 4.79297 13.492 4.79297C14.4337 4.79297 15.2003 5.55964 15.2003 6.5013C15.2087 7.38464 14.5337 8.1013 13.6753 8.19297Z" fill="white"/>
</svg>
