<svg width="20" height="20" viewBox="0 0 20 20" fill="none" xmlns="http://www.w3.org/2000/svg">
<path d="M4.16699 6.66797C5.5477 6.66797 6.66699 5.54868 6.66699 4.16797C6.66699 2.78726 5.5477 1.66797 4.16699 1.66797C2.78628 1.66797 1.66699 2.78726 1.66699 4.16797C1.66699 5.54868 2.78628 6.66797 4.16699 6.66797Z" fill="white"/>
<path d="M15.833 12.5C17.2138 12.5 18.333 11.3807 18.333 10C18.333 8.61925 17.2138 7.5 15.833 7.5C14.4523 7.5 13.333 8.61925 13.333 10C13.333 11.3807 14.4523 12.5 15.833 12.5Z" fill="white"/>
<path d="M4.16699 18.332C5.5477 18.332 6.66699 17.2128 6.66699 15.832C6.66699 14.4513 5.5477 13.332 4.16699 13.332C2.78628 13.332 1.66699 14.4513 1.66699 15.832C1.66699 17.2128 2.78628 18.332 4.16699 18.332Z" fill="white"/>
<path d="M4.16699 13.9596C3.82533 13.9596 3.54199 13.6763 3.54199 13.3346V6.66797C3.54199 6.3263 3.82533 6.04297 4.16699 6.04297C4.50866 6.04297 4.79199 6.3263 4.79199 6.66797C4.79199 8.49297 5.67533 9.3763 7.50033 9.3763H13.3337C13.6753 9.3763 13.9587 9.65964 13.9587 10.0013C13.9587 10.343 13.6753 10.6263 13.3337 10.6263H7.50033C6.36699 10.6263 5.45866 10.3346 4.79199 9.78464V13.3346C4.79199 13.6763 4.50866 13.9596 4.16699 13.9596Z" fill="white"/>
</svg>
