<svg width="20" height="20" viewBox="0 0 20 20" fill="none" xmlns="http://www.w3.org/2000/svg">
<path d="M10.584 14.0672H11.1673C12.1257 14.0672 12.909 13.2839 12.909 12.3255V11.7422H10.584V14.0672Z" fill="white"/>
<path d="M7.0918 12.3255C7.0918 13.2839 7.87513 14.0672 8.83349 14.0672H9.41682V11.7422H7.0918V12.3255Z" fill="white"/>
<path d="M7.0918 9.99951V10.5828H9.41682V8.25781H8.83349C7.87513 8.25781 7.0918 9.04118 7.0918 9.99951Z" fill="white"/>
<path d="M16.692 5.68275L11.9003 2.32442C10.592 1.40775 8.59199 1.45775 7.33366 2.43275L3.15866 5.69109C2.31699 6.34109 1.66699 7.67442 1.66699 8.72443V14.4744C1.66699 16.5994 3.39199 18.3328 5.50866 18.3328H14.4837C16.6003 18.3328 18.3253 16.6078 18.3253 14.4828V8.83276C18.3337 7.70775 17.6087 6.32442 16.692 5.68275ZM14.067 12.3244C14.067 13.9244 12.7587 15.2328 11.1587 15.2328H8.83366C7.23366 15.2328 5.92533 13.9328 5.92533 12.3244V9.99943C5.92533 8.39943 7.23366 7.09109 8.83366 7.09109H11.1587C12.7587 7.09109 14.067 8.39109 14.067 9.99943V12.3244Z" fill="white"/>
<path d="M11.1673 8.25781H10.584V10.5828H12.909V9.99951C12.909 9.04118 12.1257 8.25781 11.1673 8.25781Z" fill="white"/>
</svg>
