<svg width="20" height="20" viewBox="0 0 20 20" fill="none" xmlns="http://www.w3.org/2000/svg">
<path d="M16.6998 5.68275L11.8998 2.32442C10.5915 1.40775 8.58318 1.45775 7.32487 2.43275L3.14987 5.69109C2.31654 6.34109 1.6582 7.67442 1.6582 8.72443V14.4744C1.6582 16.5994 3.3832 18.3328 5.5082 18.3328H14.4915C16.6165 18.3328 18.3415 16.6078 18.3415 14.4828V8.83276C18.3415 7.70775 17.6165 6.32442 16.6998 5.68275ZM14.0665 13.4911C14.0665 13.5661 14.0498 13.6411 14.0248 13.7161C13.9665 13.8578 13.8498 13.9744 13.7082 14.0328C13.6332 14.0661 13.5582 14.0744 13.4832 14.0744H11.9332C11.6082 14.0744 11.3498 13.8161 11.3498 13.4911C11.3498 13.1661 11.6082 12.9078 11.9332 12.9078H12.0832L10.3248 11.1494L9.47485 12.4161C9.37485 12.5578 9.22484 12.6578 9.04984 12.6744C8.86651 12.6911 8.70818 12.6328 8.58318 12.5078L6.09987 10.0244C5.87487 9.79943 5.87487 9.43276 6.09987 9.19943C6.32487 8.96609 6.69154 8.97443 6.92488 9.19943L8.90818 11.1828L9.75818 9.91609C9.85818 9.77443 10.0082 9.67443 10.1832 9.65776C10.3665 9.64109 10.5248 9.69943 10.6498 9.82443L12.9165 12.0911V11.9411C12.9165 11.6161 13.1748 11.3578 13.4998 11.3578C13.8248 11.3578 14.0832 11.6161 14.0832 11.9411V13.4911H14.0665Z" fill="white"/>
</svg>
