<svg width="20" height="20" viewBox="0 0 20 20" fill="none" xmlns="http://www.w3.org/2000/svg">
<path d="M17.3587 6.67632L11.9003 2.30965C10.8337 1.45965 9.16699 1.45132 8.10863 2.30132L2.65029 6.67632C1.86696 7.30132 1.39196 8.5513 1.55863 9.53463L2.60863 15.818C2.85029 17.2263 4.15863 18.3346 5.58363 18.3346H14.417C15.8253 18.3346 17.1587 17.2013 17.4003 15.8096L18.4503 9.5263C18.6003 8.5513 18.1253 7.30132 17.3587 6.67632ZM10.6253 15.0013C10.6253 15.343 10.342 15.6263 10.0003 15.6263C9.65866 15.6263 9.37533 15.343 9.37533 15.0013V12.5013C9.37533 12.1596 9.65866 11.8763 10.0003 11.8763C10.342 11.8763 10.6253 12.1596 10.6253 12.5013V15.0013Z" fill="white"/>
</svg>
