<svg width="20" height="20" viewBox="0 0 20 20" fill="none" xmlns="http://www.w3.org/2000/svg">
<path d="M17.3834 6.97553L11.6084 2.35886C10.7168 1.64219 9.27508 1.64219 8.39175 2.35053L2.61672 6.97553C1.96672 7.49219 1.55006 8.58382 1.69172 9.40048L2.80006 16.0338C3.00006 17.2172 4.13339 18.1755 5.33339 18.1755H14.6668C15.8584 18.1755 17.0001 17.2088 17.2001 16.0338L18.3084 9.40048C18.4418 8.58382 18.0251 7.49219 17.3834 6.97553ZM10.5918 14.3339C10.4251 14.5006 10.2168 14.5838 10.0001 14.5838C9.78342 14.5838 9.57508 14.5005 9.40842 14.3422C9.08342 14.0172 9.08342 13.4921 9.40842 13.1671C9.73342 12.8421 10.2668 12.8421 10.5918 13.1671C10.9168 13.4838 10.9168 14.0089 10.5918 14.3339ZM12.2168 12.4172C12.0918 12.5422 11.9334 12.6088 11.7668 12.6088C11.6084 12.6088 11.4584 12.5505 11.3334 12.4338C10.5251 11.6588 9.47508 11.6588 8.65842 12.4338C8.40842 12.6755 8.01672 12.6672 7.77506 12.4172C7.53339 12.1672 7.54173 11.7755 7.79173 11.5338C9.08342 10.2921 10.8918 10.2921 12.1918 11.5338C12.4501 11.7671 12.4584 12.1672 12.2168 12.4172ZM13.9834 10.6505C13.8584 10.7755 13.7001 10.8421 13.5334 10.8421C13.3751 10.8421 13.2168 10.7838 13.1001 10.6671C12.7084 10.2838 12.2668 9.97548 11.8001 9.75048C10.6334 9.19215 9.35842 9.19215 8.20006 9.75048C7.73339 9.97548 7.30005 10.2838 6.90005 10.6671C6.65838 10.9088 6.25838 10.9088 6.01672 10.6588C5.77505 10.4088 5.78339 10.0172 6.02506 9.77548C6.51672 9.29215 7.06672 8.90882 7.65838 8.62548C9.16675 7.90053 10.8334 7.90053 12.3334 8.62548C12.9251 8.90882 13.4751 9.29215 13.9668 9.77548C14.2168 10.0088 14.2251 10.4088 13.9834 10.6505Z" fill="white"/>
</svg>
