<svg width="20" height="20" viewBox="0 0 20 20" fill="none" xmlns="http://www.w3.org/2000/svg">
<path d="M16.6998 5.68275L11.8998 2.32442C10.5915 1.40775 8.58318 1.45775 7.32487 2.43275L3.14987 5.69109C2.31654 6.34109 1.6582 7.67442 1.6582 8.72443V14.4744C1.6582 16.5994 3.3832 18.3328 5.5082 18.3328H14.4915C16.6165 18.3328 18.3415 16.6078 18.3415 14.4828V8.83276C18.3415 7.70775 17.6165 6.32442 16.6998 5.68275ZM14.0665 11.1661C14.0665 11.4911 13.8082 11.7494 13.4832 11.7494C13.1582 11.7494 12.8998 11.4911 12.8998 11.1661V11.0161L10.6332 13.2828C10.5082 13.4078 10.3415 13.4661 10.1665 13.4494C9.99984 13.4328 9.84151 13.3328 9.74984 13.1911L8.89984 11.9244L6.91654 13.9078C6.79987 14.0244 6.6582 14.0744 6.5082 14.0744C6.3582 14.0744 6.2082 14.0161 6.09987 13.9078C5.87487 13.6828 5.87487 13.3161 6.09987 13.0828L8.58318 10.5994C8.70818 10.4744 8.87484 10.4161 9.04984 10.4328C9.22484 10.4494 9.38318 10.5411 9.47485 10.6911L10.3248 11.9578L12.0832 10.1994H11.9332C11.6082 10.1994 11.3498 9.94109 11.3498 9.61609C11.3498 9.29109 11.6082 9.03276 11.9332 9.03276H13.4832C13.5582 9.03276 13.6332 9.04943 13.7082 9.07443C13.8498 9.13276 13.9665 9.24943 14.0248 9.39109C14.0582 9.46609 14.0665 9.54109 14.0665 9.61609V11.1661Z" fill="white"/>
</svg>
