<svg width="20" height="20" viewBox="0 0 20 20" fill="none" xmlns="http://www.w3.org/2000/svg">
<path d="M16.6998 5.68275L11.8998 2.32442C10.5915 1.40775 8.58318 1.45775 7.32487 2.43275L3.14987 5.69109C2.31654 6.34109 1.6582 7.67442 1.6582 8.72443V14.4744C1.6582 16.5994 3.3832 18.3328 5.5082 18.3328H14.4915C16.6165 18.3328 18.3415 16.6078 18.3415 14.4828V8.83276C18.3415 7.70775 17.6165 6.32442 16.6998 5.68275ZM10.6248 14.9994C10.6248 15.3411 10.3415 15.6244 9.99985 15.6244C9.65818 15.6244 9.37485 15.3411 9.37485 14.9994V12.4994C9.37485 12.1578 9.65818 11.8744 9.99985 11.8744C10.3415 11.8744 10.6248 12.1578 10.6248 12.4994V14.9994Z" fill="white"/>
</svg>
