<svg width="20" height="20" viewBox="0 0 20 20" fill="none" xmlns="http://www.w3.org/2000/svg">
<path d="M18.3337 17.707H1.66699C1.32533 17.707 1.04199 17.9904 1.04199 18.332C1.04199 18.6737 1.32533 18.957 1.66699 18.957H18.3337C18.6753 18.957 18.9587 18.6737 18.9587 18.332C18.9587 17.9904 18.6753 17.707 18.3337 17.707Z" fill="white"/>
<path d="M14.1667 1.66797H5.83333C3.33333 1.66797 2.5 3.15964 2.5 5.0013V18.3346H7.5V13.2846C7.5 12.8513 7.85 12.5013 8.28333 12.5013H11.725C12.15 12.5013 12.5083 12.8513 12.5083 13.2846V18.3346H17.5083V5.0013C17.5 3.15964 16.6667 1.66797 14.1667 1.66797ZM12.0833 7.70964H10.625V9.16797C10.625 9.50964 10.3417 9.79297 10 9.79297C9.65833 9.79297 9.375 9.50964 9.375 9.16797V7.70964H7.91667C7.575 7.70964 7.29167 7.4263 7.29167 7.08464C7.29167 6.74297 7.575 6.45964 7.91667 6.45964H9.375V5.0013C9.375 4.65964 9.65833 4.3763 10 4.3763C10.3417 4.3763 10.625 4.65964 10.625 5.0013V6.45964H12.0833C12.425 6.45964 12.7083 6.74297 12.7083 7.08464C12.7083 7.4263 12.425 7.70964 12.0833 7.70964Z" fill="white"/>
</svg>
