<svg width="20" height="20" viewBox="0 0 20 20" fill="none" xmlns="http://www.w3.org/2000/svg">
<path d="M8.33301 12.918C7.99134 12.918 7.70801 13.2013 7.70801 13.543V14.793C7.70801 15.1346 7.99134 15.418 8.33301 15.418C8.67467 15.418 8.95801 15.1346 8.95801 14.793V13.543C8.95801 13.2013 8.67467 12.918 8.33301 12.918Z" fill="white"/>
<path d="M18.3337 17.7073H17.5003V8.31562C17.5003 7.79896 17.267 7.31562 16.8587 6.99896L11.0253 2.46563C10.4253 1.99063 9.57533 1.99063 8.97533 2.46563L3.14199 6.99896C2.73366 7.31562 2.50033 7.79896 2.50033 8.30729L2.45866 17.7073H1.66699C1.32533 17.7073 1.04199 17.9823 1.04199 18.3323C1.04199 18.674 1.32533 18.9573 1.66699 18.9573H18.3337C18.6753 18.9573 18.9587 18.674 18.9587 18.3323C18.9587 17.9823 18.6753 17.7073 18.3337 17.7073ZM8.75033 5.62396H11.2503C11.592 5.62396 11.8753 5.90729 11.8753 6.24896C11.8753 6.59062 11.592 6.87396 11.2503 6.87396H8.75033C8.40866 6.87396 8.12533 6.59062 8.12533 6.24896C8.12533 5.90729 8.40866 5.62396 8.75033 5.62396ZM14.167 17.7073H5.83366V10.4156C5.83366 9.72396 6.39199 9.16563 7.08366 9.16563H12.917C13.6087 9.16563 14.167 9.72396 14.167 10.4156V17.7073Z" fill="white"/>
</svg>
