<svg width="20" height="20" viewBox="0 0 20 20" fill="none" xmlns="http://www.w3.org/2000/svg">
<path d="M18.3337 17.7073H17.5003V8.31562C17.5003 7.79896 17.267 7.31562 16.8587 6.99896L15.8337 6.19896L15.817 4.15729C15.817 3.69896 15.442 3.33229 14.9837 3.33229H12.142L11.0253 2.46563C10.4253 1.99063 9.57533 1.99063 8.97533 2.46563L3.14199 6.99896C2.73366 7.31562 2.50033 7.79896 2.50033 8.30729L2.45866 17.7073H1.66699C1.32533 17.7073 1.04199 17.9906 1.04199 18.3323C1.04199 18.674 1.32533 18.9573 1.66699 18.9573H18.3337C18.6753 18.9573 18.9587 18.674 18.9587 18.3323C18.9587 17.9906 18.6753 17.7073 18.3337 17.7073ZM5.41699 10.624V9.37396C5.41699 8.91563 5.79199 8.54063 6.25033 8.54063H7.91699C8.37533 8.54063 8.75033 8.91563 8.75033 9.37396V10.624C8.75033 11.0823 8.37533 11.4573 7.91699 11.4573H6.25033C5.79199 11.4573 5.41699 11.0823 5.41699 10.624ZM12.0837 17.7073H7.91699V15.4156C7.91699 14.724 8.47533 14.1656 9.16699 14.1656H10.8337C11.5253 14.1656 12.0837 14.724 12.0837 15.4156V17.7073ZM14.5837 10.624C14.5837 11.0823 14.2087 11.4573 13.7503 11.4573H12.0837C11.6253 11.4573 11.2503 11.0823 11.2503 10.624V9.37396C11.2503 8.91563 11.6253 8.54063 12.0837 8.54063H13.7503C14.2087 8.54063 14.5837 8.91563 14.5837 9.37396V10.624Z" fill="white"/>
</svg>
