<svg width="20" height="20" viewBox="0 0 20 20" fill="none" xmlns="http://www.w3.org/2000/svg">
<path d="M16.5663 1.66797H3.42462C2.92462 1.66797 2.54129 2.1013 2.59963 2.59297L4.09962 16.1096C4.13295 16.443 4.37464 16.7263 4.69964 16.818L9.76626 18.268C9.91626 18.3096 10.0747 18.3096 10.2247 18.268L15.2913 16.818C15.6163 16.7263 15.8497 16.443 15.8913 16.1096L17.3913 2.59297C17.4496 2.1013 17.0663 1.66797 16.5663 1.66797ZM13.5413 6.2513H7.15799L7.43295 8.7513H13.1246C13.2996 8.7513 13.4663 8.8263 13.5913 8.95964C13.7079 9.09297 13.7663 9.26797 13.7496 9.44297L13.3329 13.6096C13.3079 13.868 13.133 14.0763 12.883 14.1513L9.96634 14.9846C9.90801 15.0013 9.84959 15.0096 9.79126 15.0096C9.73293 15.0096 9.67459 15.0013 9.61626 14.9846L6.69962 14.1513C6.43295 14.0763 6.24963 13.8263 6.24963 13.5513V11.8846C6.24963 11.543 6.53297 11.2596 6.87463 11.2596C7.2163 11.2596 7.49963 11.543 7.49963 11.8846V13.0763L9.79126 13.7346L12.1246 13.068L12.4329 10.0096H6.87463C6.55797 10.0096 6.2913 9.76797 6.24963 9.4513L5.83297 5.7013C5.8163 5.5263 5.8663 5.35129 5.9913 5.21796C6.10797 5.08463 6.28297 5.00963 6.45797 5.00963H13.5413C13.8829 5.00963 14.1663 5.29296 14.1663 5.63463C14.1663 5.97629 13.8829 6.2513 13.5413 6.2513Z" fill="white"/>
</svg>
