<svg width="20" height="20" viewBox="0 0 20 20" fill="none" xmlns="http://www.w3.org/2000/svg">
<path d="M16.5667 1.66797H3.43341C2.93341 1.66797 2.55008 2.10129 2.60841 2.59296L4.10841 16.1096C4.14175 16.443 4.38341 16.7263 4.70841 16.818L9.77508 18.268C9.92508 18.3096 10.0834 18.3096 10.2334 18.268L15.3001 16.818C15.6251 16.7263 15.8584 16.443 15.9001 16.1096L17.4001 2.59296C17.4501 2.10129 17.0667 1.66797 16.5667 1.66797ZM13.5417 13.4013C13.5167 13.6513 13.3334 13.8596 13.0917 13.9346L10.1751 14.768C10.1167 14.7846 10.0584 14.793 10.0001 14.793C9.94175 14.793 9.88341 14.7846 9.82508 14.768L6.90841 13.9346C6.69175 13.8763 6.52508 13.7013 6.47508 13.4846L6.05841 11.818C5.97508 11.4846 6.17508 11.143 6.51675 11.0596C6.85008 10.9763 7.19175 11.1763 7.27508 11.518L7.60841 12.8346L10.0084 13.518L12.3501 12.8513L12.6917 9.79297H6.66675C6.32508 9.79297 6.04175 9.50964 6.04175 9.16797C6.04175 8.8263 6.32508 8.54297 6.66675 8.54297H12.8167L13.0501 6.45964L6.25008 6.44298C5.90841 6.44298 5.62508 6.15964 5.62508 5.81798C5.62508 5.47631 5.90841 5.19298 6.25008 5.19298L13.7501 5.20964C13.9251 5.20964 14.1001 5.28464 14.2167 5.41797C14.3334 5.5513 14.3917 5.72629 14.3751 5.90129L13.5417 13.4013Z" fill="white"/>
</svg>
