<svg width="20" height="20" viewBox="0 0 20 20" fill="none" xmlns="http://www.w3.org/2000/svg">
<path d="M13.4668 8.33203C13.4668 8.33203 13.3418 9.16536 10.7585 12.4987C8.3335 15.6404 11.8418 18.032 12.2585 18.307C12.2835 18.3237 12.3085 18.3237 12.3418 18.307C12.9085 17.957 19.2168 13.8987 13.4668 8.33203Z" fill="white"/>
<path d="M11.4665 6.49172C11.4665 4.57505 10.7165 2.82505 9.9665 1.82505C9.7165 1.57505 9.29983 1.65838 9.2165 1.99172C8.88316 3.24172 7.88314 5.90838 5.46647 9.07508C2.38314 13.0751 5.21648 17.4084 8.13315 18.2417C9.7165 18.6584 7.71649 17.4084 7.46649 14.8251C7.21649 11.5751 11.4665 9.15842 11.4665 6.49172Z" fill="white"/>
</svg>
