<svg width="20" height="20" viewBox="0 0 20 20" fill="none" xmlns="http://www.w3.org/2000/svg">
<path d="M10.0003 1.66797C5.40033 1.66797 1.66699 5.4013 1.66699 10.0013C1.66699 14.6013 5.40033 18.3346 10.0003 18.3346C14.6003 18.3346 18.3337 14.6013 18.3337 10.0013C18.3337 5.4013 14.6003 1.66797 10.0003 1.66797ZM10.0003 5.93464C11.092 5.93464 11.9837 6.8263 11.9837 7.91797C11.9837 9.00964 11.092 9.9013 10.0003 9.9013C8.90866 9.9013 8.01699 9.00964 8.01699 7.91797C8.01699 6.8263 8.90866 5.93464 10.0003 5.93464ZM12.0587 14.243C11.942 14.3346 11.8087 14.3763 11.6753 14.3763C11.492 14.3763 11.3087 14.293 11.1837 14.143L10.0087 12.6596L8.83366 14.143C8.62533 14.4096 8.22532 14.4596 7.95865 14.243C7.69198 14.0263 7.64198 13.6346 7.85865 13.368L8.85033 12.1096C8.58366 12.0346 8.31698 11.943 8.06698 11.818C7.75865 11.6596 7.63364 11.2846 7.79198 10.9763C7.94198 10.668 8.31698 10.543 8.63366 10.7013C9.50033 11.1346 10.5337 11.1346 11.4003 10.7013C11.7003 10.5513 12.0837 10.668 12.2337 10.968C12.392 11.268 12.2837 11.643 11.9837 11.8013C11.7253 11.9346 11.4503 12.0263 11.1753 12.1013L12.1753 13.3596C12.367 13.6346 12.3253 14.0263 12.0587 14.243Z" fill="white"/>
</svg>
