<svg width="20" height="20" viewBox="0 0 20 20" fill="none" xmlns="http://www.w3.org/2000/svg">
<path d="M13.4915 1.66797H6.51648C3.48315 1.66797 1.6748 3.4763 1.6748 6.50964V13.4846C1.6748 16.518 3.48315 18.3263 6.51648 18.3263H13.4915C16.5248 18.3263 18.3332 16.518 18.3332 13.4846V6.50964C18.3332 3.4763 16.5248 1.66797 13.4915 1.66797ZM9.1665 6.2513C9.1665 6.48464 8.98316 6.66797 8.74983 6.66797H7.49981C7.04147 6.66797 6.66647 7.04297 6.66647 7.5013V8.7513C6.66647 8.98464 6.48314 9.16797 6.24981 9.16797H4.58314C4.34981 9.16797 4.16647 8.98464 4.16647 8.7513V7.5013C4.16647 5.65964 5.65814 4.16797 7.49981 4.16797H8.74983C8.98316 4.16797 9.1665 4.3513 9.1665 4.58464V6.2513ZM15.8332 12.5013C15.8332 14.343 14.3415 15.8346 12.4998 15.8346H11.2498C11.0165 15.8346 10.8332 15.6513 10.8332 15.418V13.7513C10.8332 13.518 11.0165 13.3346 11.2498 13.3346H12.4998C12.9582 13.3346 13.3332 12.9596 13.3332 12.5013V11.2513C13.3332 11.018 13.5165 10.8346 13.7498 10.8346H15.4165C15.6498 10.8346 15.8332 11.018 15.8332 11.2513V12.5013Z" fill="white"/>
</svg>
