<svg width="20" height="20" viewBox="0 0 20 20" fill="none" xmlns="http://www.w3.org/2000/svg">
<path d="M16.8828 4.375C16.1911 4.375 15.6328 3.81667 15.6328 3.125C15.6328 2.43333 16.1911 1.875 16.8828 1.875H16.8911C17.5827 1.875 18.1411 2.43333 18.1411 3.125C18.1411 3.81667 17.5745 4.375 16.8828 4.375Z" fill="white"/>
<path d="M3.13281 18.125C2.44115 18.125 1.88281 17.5667 1.88281 16.875C1.88281 16.1833 2.44115 15.625 3.13281 15.625H3.14112C3.83279 15.625 4.39112 16.1833 4.39112 16.875C4.39112 17.5667 3.82448 18.125 3.13281 18.125Z" fill="white"/>
<path d="M5.02533 13.668C4.81699 13.668 4.60867 13.5596 4.492 13.368C3.87533 12.3596 3.54199 11.193 3.54199 10.0013C3.54199 6.44297 6.44199 3.54297 10.0003 3.54297C11.1753 3.54297 12.3253 3.85964 13.3253 4.45964C13.617 4.63464 13.717 5.01797 13.542 5.31797C13.367 5.60964 12.9837 5.70964 12.6837 5.53464C11.8753 5.0513 10.9503 4.79297 10.0087 4.79297C7.13367 4.79297 4.80033 7.1263 4.80033 10.0013C4.80033 10.9596 5.06698 11.9013 5.56698 12.718C5.75032 13.0096 5.65865 13.393 5.35865 13.5763C5.25032 13.643 5.13366 13.668 5.02533 13.668Z" fill="white"/>
<path d="M10.0001 16.4599C8.80008 16.4599 7.63344 16.1266 6.6251 15.5099C6.33344 15.3266 6.24177 14.9432 6.41677 14.6516C6.6001 14.3599 6.98343 14.2682 7.2751 14.4432C8.09176 14.9432 9.03341 15.2099 10.0001 15.2099C12.8751 15.2099 15.2084 12.8766 15.2084 10.0016C15.2084 9.04322 14.9417 8.10154 14.4417 7.28487C14.2584 6.9932 14.3501 6.60987 14.6501 6.42654C14.9417 6.25154 15.3251 6.33487 15.5084 6.63487C16.1251 7.65154 16.4584 8.80989 16.4584 10.0099C16.4584 13.5599 13.5584 16.4599 10.0001 16.4599Z" fill="white"/>
</svg>
