<svg width="20" height="20" viewBox="0 0 20 20" fill="none" xmlns="http://www.w3.org/2000/svg">
<path d="M13.492 1.66797H6.50866C3.47533 1.66797 1.66699 3.4763 1.66699 6.50964V13.4846C1.66699 16.518 3.47533 18.3263 6.50866 18.3263H13.4837C16.517 18.3263 18.3253 16.518 18.3253 13.4846V6.50964C18.3337 3.4763 16.5253 1.66797 13.492 1.66797ZM10.8837 13.9013C10.817 13.9263 10.7503 13.9346 10.6837 13.9346C10.4253 13.9346 10.1753 13.768 10.092 13.5096L9.50033 11.7346H6.93366L6.11699 13.568C5.97533 13.8846 5.60866 14.0263 5.29199 13.8846C4.97533 13.743 4.83366 13.3763 4.97533 13.0596L7.91699 6.45129C8.02533 6.21796 8.25033 6.05963 8.51699 6.08463C8.77533 6.09296 9.00033 6.26797 9.08366 6.50964L11.2837 13.118C11.3837 13.4346 11.2087 13.793 10.8837 13.9013ZM14.2503 13.3096C14.2503 13.6513 13.967 13.9346 13.6253 13.9346C13.2837 13.9346 13.0003 13.6513 13.0003 13.3096V8.9013C13.0003 8.55964 13.2837 8.27629 13.6253 8.27629C13.967 8.27629 14.2503 8.55964 14.2503 8.9013V13.3096ZM14.392 7.01798C14.3503 7.11798 14.292 7.20963 14.2087 7.28463C14.1337 7.35963 14.042 7.42629 13.942 7.46796C13.842 7.50963 13.7337 7.5263 13.6253 7.5263C13.4003 7.5263 13.192 7.44296 13.0337 7.28463C12.9587 7.20963 12.892 7.11798 12.8503 7.01798C12.8087 6.90964 12.792 6.80964 12.792 6.69297C12.792 6.58464 12.8087 6.47629 12.8503 6.37629C12.9003 6.27629 12.9587 6.18463 13.0337 6.10963C13.1087 6.02629 13.2003 5.96796 13.3003 5.92629C13.6087 5.80129 13.9837 5.87629 14.2087 6.10963C14.292 6.18463 14.3503 6.27629 14.392 6.37629C14.4337 6.47629 14.4587 6.58464 14.4587 6.69297C14.4587 6.80964 14.4337 6.91798 14.392 7.01798Z" fill="white"/>
<path d="M7.4834 10.4758H9.08341L8.40008 8.42578L7.4834 10.4758Z" fill="white"/>
</svg>
