<svg width="20" height="20" viewBox="0 0 20 20" fill="none" xmlns="http://www.w3.org/2000/svg">
<path d="M18.3498 14.0189L15.7415 7.91884C15.2665 6.80217 14.5582 6.16884 13.7498 6.12717C12.9498 6.08551 12.1748 6.64384 11.5832 7.71051L9.99983 10.5522C9.6665 11.1522 9.1915 11.5105 8.67483 11.5522C8.14987 11.6022 7.62487 11.3272 7.19987 10.7855L7.01654 10.5522C6.42487 9.81053 5.69154 9.4522 4.94154 9.5272C4.19154 9.6022 3.54987 10.1189 3.12487 10.9605L1.6832 13.8355C1.16654 14.8772 1.21654 16.0855 1.82487 17.0689C2.4332 18.0522 3.49154 18.6439 4.64987 18.6439H15.2832C16.3998 18.6439 17.4415 18.0855 18.0582 17.1522C18.6915 16.2189 18.7915 15.0439 18.3498 14.0189Z" fill="white"/>
<path d="M5.80788 6.98099C7.36349 6.98099 8.62451 5.71992 8.62451 4.16432C8.62451 2.60872 7.36349 1.34766 5.80788 1.34766C4.25228 1.34766 2.99121 2.60872 2.99121 4.16432C2.99121 5.71992 4.25228 6.98099 5.80788 6.98099Z" fill="white"/>
</svg>
