<svg width="20" height="20" viewBox="0 0 20 20" fill="none" xmlns="http://www.w3.org/2000/svg">
<path d="M13.492 1.66797H6.50866C3.47533 1.66797 1.66699 3.4763 1.66699 6.50964V13.4846C1.66699 16.5263 3.47533 18.3346 6.50866 18.3346H13.4837C16.517 18.3346 18.3253 16.5263 18.3253 13.493V6.50964C18.3337 3.4763 16.5253 1.66797 13.492 1.66797ZM14.6087 6.2763L8.17533 12.7096H10.692C11.0337 12.7096 11.317 12.993 11.317 13.3346C11.317 13.6763 11.0337 13.9596 10.692 13.9596H6.66699C6.32533 13.9596 6.04199 13.6763 6.04199 13.3346V9.30964C6.04199 8.96797 6.32533 8.68464 6.66699 8.68464C7.00866 8.68464 7.29199 8.96797 7.29199 9.30964V11.8263L13.7253 5.39297C13.8503 5.26797 14.0087 5.20964 14.167 5.20964C14.3253 5.20964 14.4837 5.26797 14.6087 5.39297C14.8503 5.63464 14.8503 6.03464 14.6087 6.2763Z" fill="white"/>
</svg>
