<svg width="20" height="20" viewBox="0 0 20 20" fill="none" xmlns="http://www.w3.org/2000/svg">
<path d="M10.0003 1.66797C5.40033 1.66797 1.66699 5.4013 1.66699 10.0013C1.66699 14.6013 5.40033 18.3346 10.0003 18.3346C14.6003 18.3346 18.3337 14.6013 18.3337 10.0013C18.3337 5.4013 14.6003 1.66797 10.0003 1.66797ZM14.6087 6.2763L8.17533 12.7096H10.692C11.0337 12.7096 11.317 12.993 11.317 13.3346C11.317 13.6763 11.0337 13.9596 10.692 13.9596H6.66699C6.32533 13.9596 6.04199 13.6763 6.04199 13.3346V9.30964C6.04199 8.96797 6.32533 8.68464 6.66699 8.68464C7.00866 8.68464 7.29199 8.96797 7.29199 9.30964V11.8263L13.7253 5.39297C13.8503 5.26797 14.0087 5.20964 14.167 5.20964C14.3253 5.20964 14.4837 5.26797 14.6087 5.39297C14.8503 5.63464 14.8503 6.03464 14.6087 6.2763Z" fill="white"/>
</svg>
