<svg width="20" height="20" viewBox="0 0 20 20" fill="none" xmlns="http://www.w3.org/2000/svg">
<path d="M13.492 1.66797H6.50866C3.47533 1.66797 1.66699 3.4763 1.66699 6.50964V13.4846C1.66699 16.5263 3.47533 18.3346 6.50866 18.3346H13.4837C16.517 18.3346 18.3253 16.5263 18.3253 13.493V6.50964C18.3337 3.4763 16.5253 1.66797 13.492 1.66797ZM10.0003 13.2346C8.21699 13.2346 6.76699 11.7846 6.76699 10.0013C6.76699 8.21797 8.21699 6.76797 10.0003 6.76797C11.7837 6.76797 13.2337 8.21797 13.2337 10.0013C13.2337 11.7846 11.7837 13.2346 10.0003 13.2346ZM14.9337 5.73464C14.892 5.83464 14.8337 5.9263 14.7587 6.00964C14.6753 6.08464 14.5837 6.14297 14.4837 6.18464C14.3837 6.2263 14.2753 6.2513 14.167 6.2513C13.942 6.2513 13.7337 6.16797 13.5753 6.00964C13.5003 5.9263 13.442 5.83464 13.4003 5.73464C13.3587 5.63464 13.3337 5.5263 13.3337 5.41797C13.3337 5.30964 13.3587 5.2013 13.4003 5.1013C13.442 4.99297 13.5003 4.90964 13.5753 4.8263C13.767 4.63464 14.0587 4.54297 14.3253 4.6013C14.3837 4.60964 14.4337 4.6263 14.4837 4.6513C14.5337 4.66797 14.5837 4.69297 14.6337 4.7263C14.6753 4.7513 14.717 4.79297 14.7587 4.8263C14.8337 4.90964 14.892 4.99297 14.9337 5.1013C14.9753 5.2013 15.0003 5.30964 15.0003 5.41797C15.0003 5.5263 14.9753 5.63464 14.9337 5.73464Z" fill="white"/>
</svg>
