<svg width="20" height="20" viewBox="0 0 20 20" fill="none" xmlns="http://www.w3.org/2000/svg">
<path d="M16.2583 5.34817L10.8416 2.16484C10.3166 1.85651 9.67484 1.85651 9.14984 2.16484L3.73319 5.34817C3.22486 5.64817 2.9082 6.19817 2.9082 6.7815V13.2065C2.9082 13.7982 3.22486 14.3399 3.73319 14.6399L9.14984 17.8232C9.67484 18.1315 10.3166 18.1315 10.8416 17.8232L16.2583 14.6399C16.7666 14.3399 17.0832 13.7899 17.0832 13.2065V6.7815C17.0832 6.19817 16.7666 5.64817 16.2583 5.34817ZM14.4916 13.0315L10.3249 15.5315C10.2249 15.5899 10.1165 15.6232 9.99984 15.6232C9.88318 15.6232 9.77484 15.5899 9.67484 15.5315L5.5082 13.0315C5.2082 12.8565 5.11653 12.4732 5.29153 12.1732C5.46653 11.8732 5.84989 11.7815 6.14989 11.9565L9.99151 14.2649L12.9416 12.4899L11.3915 11.5565L10.8499 12.0982C10.7249 12.2232 10.5665 12.2815 10.4082 12.2815C10.2498 12.2815 10.0916 12.2232 9.96659 12.0982C9.72493 11.8565 9.72493 11.4565 9.96659 11.2149L10.2833 10.8982L8.78318 9.9982L8.34993 10.4315C8.22489 10.5565 8.06654 10.6149 7.9082 10.6149C7.74987 10.6149 7.59157 10.5565 7.46657 10.4315C7.2249 10.1899 7.2249 9.78987 7.46657 9.5482L7.68319 9.33153L5.5082 8.02317C5.31654 7.9065 5.20821 7.70651 5.20821 7.48984C5.20821 7.27317 5.32487 7.06484 5.5082 6.95651L9.67484 4.45651C9.87484 4.33984 10.1248 4.33984 10.3165 4.45651L14.4832 6.95651C14.7832 7.13151 14.8749 7.51484 14.6999 7.81484C14.5249 8.1065 14.1415 8.2065 13.8415 8.0315L9.99984 5.72316L7.0499 7.49817L8.59993 8.43154L9.14151 7.88984C9.38318 7.64817 9.78326 7.64817 10.0249 7.88984C10.2666 8.1315 10.2666 8.53154 10.0249 8.7732L9.70826 9.08987L11.2083 9.98987L11.6415 9.55653C11.8832 9.31487 12.2833 9.31487 12.5249 9.55653C12.7666 9.7982 12.7666 10.1982 12.5249 10.4399L12.3083 10.6565L14.4832 11.9649C14.6748 12.0815 14.7832 12.2815 14.7832 12.4982C14.7832 12.7149 14.6749 12.9232 14.4916 13.0315Z" fill="white"/>
</svg>
