<svg width="20" height="20" viewBox="0 0 20 20" fill="none" xmlns="http://www.w3.org/2000/svg">
<path d="M16.5663 1.66797H3.42462C2.92462 1.66797 2.54129 2.1013 2.59963 2.59297L4.09962 16.1096C4.13295 16.443 4.37464 16.7263 4.69964 16.818L9.76626 18.268C9.91626 18.3096 10.0747 18.3096 10.2247 18.268L15.2913 16.818C15.6163 16.7263 15.8497 16.443 15.8913 16.1096L17.3913 2.59297C17.4496 2.1013 17.0663 1.66797 16.5663 1.66797ZM9.47459 13.3263C9.47459 13.5263 9.38301 13.7096 9.22468 13.8263C9.11634 13.9096 8.98293 13.9513 8.84959 13.9513C8.79126 13.9513 8.73293 13.943 8.67459 13.9263L6.07462 13.1763C5.74128 13.0763 5.54966 12.7346 5.64966 12.4013C5.74133 12.068 6.09132 11.8846 6.42465 11.9763L8.22463 12.493V5.84296C8.22463 5.50129 8.50793 5.21796 8.84959 5.21796C9.19126 5.21796 9.47459 5.50129 9.47459 5.84296V13.3263ZM14.3746 12.5846C14.3746 12.868 14.1829 13.118 13.8996 13.193L10.8997 13.943C10.8497 13.9596 10.7997 13.9596 10.7497 13.9596C10.4663 13.9596 10.2163 13.768 10.1413 13.4846C10.0579 13.1513 10.2579 12.8096 10.5996 12.7263L13.1246 12.093V10.6763L11.2163 10.9513C11.033 10.9763 10.8579 10.9263 10.7163 10.8013C10.5829 10.6846 10.4996 10.5096 10.4996 10.3263V6.2013C10.4996 5.89297 10.7246 5.6263 11.0329 5.58464L13.658 5.20964C13.9997 5.15964 14.3163 5.4013 14.3663 5.74297C14.4163 6.08464 14.1746 6.40131 13.8329 6.45131L11.7413 6.75131V9.60964L13.6497 9.33464C13.833 9.30964 14.0079 9.35964 14.1496 9.48464C14.2829 9.6013 14.3663 9.7763 14.3663 9.95964V12.5846H14.3746Z" fill="white"/>
</svg>
