<svg width="20" height="20" viewBox="0 0 20 20" fill="none" xmlns="http://www.w3.org/2000/svg">
<path d="M12.7087 13.9583H11.2503C10.1003 13.9583 9.16699 13.025 9.16699 11.875C9.16699 11.5333 9.45033 11.25 9.79199 11.25C10.1337 11.25 10.417 11.5333 10.417 11.875C10.417 12.3333 10.792 12.7083 11.2503 12.7083H12.7087C13.167 12.7083 13.542 12.3333 13.542 11.875C13.542 11.4167 13.167 11.0417 12.7087 11.0417H11.2503C10.1003 11.0417 9.16699 10.1083 9.16699 8.95833C9.16699 7.80833 10.1003 6.875 11.2503 6.875H12.7087C13.8587 6.875 14.792 7.80833 14.792 8.95833C14.792 9.3 14.5087 9.58333 14.167 9.58333C13.8253 9.58333 13.542 9.3 13.542 8.95833C13.542 8.5 13.167 8.125 12.7087 8.125H11.2503C10.792 8.125 10.417 8.5 10.417 8.95833C10.417 9.41667 10.792 9.79167 11.2503 9.79167H12.7087C13.8587 9.79167 14.792 10.725 14.792 11.875C14.792 13.025 13.8587 13.9583 12.7087 13.9583Z" fill="white"/>
<path d="M10.0005 18.8393C9.75883 18.8393 9.51725 18.781 9.29225 18.656L8.05885 18.0643C7.75052 17.9143 7.6172 17.5393 7.7672 17.231C7.9172 16.9226 8.28387 16.7893 8.60058 16.9393L9.85891 17.5476C9.95058 17.5976 10.0338 17.5976 10.0922 17.5643L16.7588 13.8644C16.8255 13.831 16.8672 13.756 16.8672 13.681V6.331C16.8672 6.256 16.8255 6.18933 16.7588 6.14766L10.0922 2.44766C10.0255 2.41433 9.9505 2.41433 9.89216 2.44766L3.22553 6.14766C3.15886 6.181 3.11719 6.256 3.11719 6.331V13.681C3.11719 13.756 3.15886 13.8227 3.22553 13.8644L5.3172 15.0226C5.6422 15.206 6.02553 15.1976 6.35053 15.006C6.67553 14.8143 6.86719 14.481 6.86719 14.106L6.87553 7.49766C6.87553 7.156 7.15886 6.87266 7.50053 6.87266C7.8422 6.87266 8.12553 7.156 8.12553 7.49766L8.11719 14.106C8.11719 14.9226 7.6922 15.6643 6.98387 16.081C6.27554 16.4976 5.42555 16.506 4.70889 16.106L2.61721 14.9476C2.15055 14.6893 1.86719 14.1976 1.86719 13.6726V6.32266C1.86719 5.79766 2.15055 5.30599 2.61721 5.04766L9.28391 1.34766C9.72558 1.09766 10.2589 1.09766 10.7006 1.34766L17.3672 5.04766C17.8339 5.30599 18.1172 5.79766 18.1172 6.32266V13.6726C18.1172 14.1976 17.8339 14.6893 17.3672 14.9476L10.7006 18.6476C10.4839 18.7726 10.2422 18.8393 10.0005 18.8393Z" fill="white"/>
</svg>
