<svg width="20" height="20" viewBox="0 0 20 20" fill="none" xmlns="http://www.w3.org/2000/svg">
<path d="M17.1167 15.8677C16.9917 15.9927 16.8334 16.051 16.6751 16.051C16.5167 16.051 16.3584 15.9927 16.2334 15.8677L12.1084 11.7427L12.5501 11.301L12.9917 10.8594L17.1167 14.9844C17.3584 15.226 17.3584 15.626 17.1167 15.8677Z" fill="white"/>
<path d="M5.39147 7.73308L10.2248 12.5664C10.5498 12.8914 10.5498 13.4164 10.2248 13.7414L9.47485 14.4998C8.79985 15.1664 7.73314 15.1664 7.06647 14.4998L3.4498 10.8831C2.79147 10.2248 2.79147 9.14976 3.4498 8.48309L4.20814 7.72475C4.53314 7.40808 5.06647 7.40808 5.39147 7.73308Z" fill="white"/>
<path d="M15.4915 8.49141L12.3165 11.6581C11.9832 11.9914 11.4498 11.9914 11.1165 11.6581L6.2998 6.84141C5.96647 6.50807 5.96647 5.97474 6.2998 5.64141L9.47483 2.46641C10.1332 1.80807 11.2082 1.80807 11.8748 2.46641L15.4915 6.08307C16.1498 6.74974 16.1498 7.81641 15.4915 8.49141Z" fill="white"/>
<path d="M6.66699 18.125H1.66699C1.32533 18.125 1.04199 17.8417 1.04199 17.5C1.04199 17.1583 1.32533 16.875 1.66699 16.875H6.66699C7.00866 16.875 7.29199 17.1583 7.29199 17.5C7.29199 17.8417 7.00866 18.125 6.66699 18.125Z" fill="white"/>
</svg>
