<svg width="20" height="20" viewBox="0 0 20 20" fill="none" xmlns="http://www.w3.org/2000/svg">
<path d="M8.75033 16.5846V3.41797C8.75033 2.16797 8.21699 1.66797 6.89199 1.66797H3.52533C2.20033 1.66797 1.66699 2.16797 1.66699 3.41797V16.5846C1.66699 17.8346 2.20033 18.3346 3.52533 18.3346H6.89199C8.21699 18.3346 8.75033 17.8346 8.75033 16.5846Z" fill="white"/>
<path d="M18.3333 10.7513V3.41797C18.3333 2.16797 17.8 1.66797 16.475 1.66797H13.1083C11.7833 1.66797 11.25 2.16797 11.25 3.41797V10.7513C11.25 12.0013 11.7833 12.5013 13.1083 12.5013H16.475C17.8 12.5013 18.3333 12.0013 18.3333 10.7513Z" fill="white"/>
</svg>
