<svg width="20" height="20" viewBox="0 0 20 20" fill="none" xmlns="http://www.w3.org/2000/svg">
<path d="M11.0417 10.0013C11.617 10.0013 12.0833 9.53497 12.0833 8.95964C12.0833 8.3843 11.617 7.91797 11.0417 7.91797C10.4663 7.91797 10 8.3843 10 8.95964C10 9.53497 10.4663 10.0013 11.0417 10.0013Z" fill="white"/>
<path d="M13.492 1.66797H6.50866C3.47533 1.66797 1.66699 3.4763 1.66699 6.50964V13.4846C1.66699 16.5263 3.47533 18.3346 6.50866 18.3346H13.4837C16.517 18.3346 18.3253 16.5263 18.3253 13.493V6.50964C18.3337 3.4763 16.5253 1.66797 13.492 1.66797ZM13.242 11.2263C12.3837 12.0763 11.1587 12.343 10.0753 12.0013L9.19199 12.8763C9.11699 12.9513 8.98366 12.9513 8.90033 12.8763L8.09199 12.068C7.97533 11.9513 7.77533 11.9513 7.65033 12.068C7.52533 12.1846 7.53366 12.3846 7.65033 12.5096L8.45866 13.318C8.54199 13.4013 8.54199 13.5346 8.45866 13.6096L8.11699 13.9513C7.97533 14.1013 7.70033 14.193 7.50033 14.168L6.59199 14.043C6.29199 14.0013 6.01699 13.718 5.96699 13.418L5.84199 12.5096C5.80866 12.3096 5.90866 12.0346 6.04199 11.893L8.00033 9.93464C7.66699 8.8513 7.92533 7.6263 8.78366 6.76797C10.0087 5.54297 12.0087 5.54297 13.242 6.76797C14.4753 7.99297 14.4753 9.99297 13.242 11.2263Z" fill="white"/>
</svg>
