<svg width="20" height="20" viewBox="0 0 20 20" fill="none" xmlns="http://www.w3.org/2000/svg">
<path d="M15.2247 2.79036C14.833 2.73203 14.383 2.70703 13.7497 2.70703H6.24967C5.62467 2.70703 5.16634 2.73203 4.79967 2.78203C2.00801 3.09036 1.45801 4.7487 1.45801 7.4987V12.4987C1.45801 15.2487 2.00801 16.907 4.77467 17.207C5.16634 17.2654 5.61634 17.2904 6.24967 17.2904H13.7497C14.3747 17.2904 14.833 17.2654 15.1997 17.2154C17.9913 16.907 18.5413 15.257 18.5413 12.4987V7.4987C18.5413 4.7487 17.9913 3.09036 15.2247 2.79036ZM8.40801 7.4987C8.87467 7.4987 9.24968 7.8737 9.24968 8.33203C9.24968 8.79036 8.87468 9.16536 8.41634 9.16536C7.95801 9.16536 7.58301 8.79036 7.58301 8.33203C7.58301 7.8737 7.94967 7.4987 8.40801 7.4987ZM5.90801 7.4987C6.38301 7.4987 6.74968 7.8737 6.74968 8.33203C6.74968 8.79036 6.37467 9.16536 5.91634 9.16536C5.45801 9.16536 5.08301 8.79036 5.08301 8.33203C5.08301 7.8737 5.44967 7.4987 5.90801 7.4987ZM14.1663 13.5404H5.84967C5.50801 13.5404 5.21634 13.257 5.21634 12.9154C5.21634 12.5737 5.49134 12.2904 5.83301 12.2904H14.1663C14.508 12.2904 14.7913 12.5737 14.7913 12.9154C14.7913 13.257 14.508 13.5404 14.1663 13.5404ZM14.1663 8.95703H11.2497C10.908 8.95703 10.6247 8.6737 10.6247 8.33203C10.6247 7.99036 10.908 7.70703 11.2497 7.70703H14.1663C14.508 7.70703 14.7913 7.99036 14.7913 8.33203C14.7913 8.6737 14.508 8.95703 14.1663 8.95703Z" fill="white"/>
</svg>
