<svg width="20" height="20" viewBox="0 0 20 20" fill="none" xmlns="http://www.w3.org/2000/svg">
<path d="M14.1663 18.957H5.83301C5.49134 18.957 5.20801 18.6737 5.20801 18.332C5.20801 17.9904 5.49134 17.707 5.83301 17.707H14.1663C14.508 17.707 14.7913 17.9904 14.7913 18.332C14.7913 18.6737 14.508 18.957 14.1663 18.957Z" fill="white"/>
<path d="M15.0003 1.66797H5.00033C3.15866 1.66797 1.66699 3.15964 1.66699 5.0013V12.5013C1.66699 14.343 3.15866 15.8346 5.00033 15.8346H15.0003C16.842 15.8346 18.3337 14.343 18.3337 12.5013V5.0013C18.3337 3.15964 16.842 1.66797 15.0003 1.66797ZM8.32533 6.1013C8.79199 6.1013 9.16699 6.4763 9.16699 6.93464C9.16699 7.39297 8.79199 7.76797 8.33366 7.76797C7.87533 7.76797 7.50033 7.39297 7.50033 6.93464C7.50033 6.4763 7.86699 6.1013 8.32533 6.1013ZM5.70033 6.1013C6.16699 6.1013 6.54199 6.4763 6.54199 6.93464C6.54199 7.39297 6.16699 7.76797 5.70866 7.76797C5.25033 7.76797 4.87533 7.39297 4.87533 6.93464C4.87533 6.4763 5.23366 6.1013 5.70033 6.1013ZM14.3837 12.3846H5.63366C5.28366 12.3846 5.00033 12.1013 5.00033 11.7596C5.00033 11.418 5.27533 11.1346 5.61699 11.1346H14.392C14.7337 11.1346 15.017 11.418 15.017 11.7596C15.017 12.1013 14.7337 12.3846 14.3837 12.3846ZM14.3837 7.55964H11.317C10.9753 7.55964 10.692 7.2763 10.692 6.93464C10.692 6.59297 10.9753 6.30964 11.317 6.30964H14.3837C14.7253 6.30964 15.0087 6.59297 15.0087 6.93464C15.0087 7.2763 14.7337 7.55964 14.3837 7.55964Z" fill="white"/>
</svg>
