<svg width="20" height="20" viewBox="0 0 20 20" fill="none" xmlns="http://www.w3.org/2000/svg">
<path d="M14.8505 7.24808C15.4421 6.92308 16.1671 7.34808 16.1588 8.02308L16.1255 12.5397C16.1171 13.2231 15.3755 13.6397 14.7921 13.2897L10.8921 10.9564C10.3088 10.6064 10.3255 9.75638 10.9171 9.43138L14.8505 7.24808Z" fill="white"/>
<path d="M16.0421 5.23257C16.1671 5.54924 15.9754 5.87424 15.6754 6.04091L10.9838 8.63261C10.3171 8.99928 9.53378 8.40761 9.70044 7.67425L10.7171 3.06591C10.8421 2.48257 11.5004 2.19925 12.0171 2.49091L15.2839 4.35757C15.6422 4.56591 15.9004 4.87424 16.0421 5.23257Z" fill="white"/>
<path d="M10.008 2.22637L8.28302 9.97638C8.25802 10.093 8.25802 10.218 8.28302 10.343L9.72467 17.5764C9.82467 18.0764 9.39976 18.5514 8.98309 18.243L4.57468 15.1014C4.10802 14.768 3.83301 14.2347 3.83301 13.668V5.90971C3.83301 5.27638 4.16634 4.69304 4.72467 4.37638L9.13301 1.86805C9.25801 1.79305 9.39134 1.74304 9.52467 1.70137C9.84134 1.59304 10.0747 1.90971 10.008 2.22637Z" fill="white"/>
<path d="M14.6917 14.0094C15.2334 14.3344 15.2667 15.1095 14.7584 15.4762L11.8667 17.5761C11.3501 17.9511 10.6084 17.6677 10.4834 17.0344L9.63341 12.7012C9.48341 11.9512 10.2917 11.3844 10.9501 11.7761L14.6917 14.0094Z" fill="white"/>
</svg>
