<svg width="20" height="20" viewBox="0 0 20 20" fill="none" xmlns="http://www.w3.org/2000/svg">
<path d="M12.717 18.3346C12.667 18.3346 12.6087 18.3263 12.5587 18.3096C10.8837 17.8346 9.12533 17.8346 7.45029 18.3096C7.14196 18.393 6.81696 18.218 6.73362 17.9096C6.64196 17.6013 6.82529 17.2763 7.13362 17.193C9.017 16.6596 11.0003 16.6596 12.8837 17.193C13.192 17.2846 13.3753 17.6013 13.2837 17.9096C13.2003 18.168 12.967 18.3346 12.717 18.3346Z" fill="white"/>
<path d="M16.0086 5.29928C15.1419 3.54928 13.4669 2.25761 11.5252 1.83261C9.4919 1.38261 7.40859 1.86594 5.81693 3.14928C4.21693 4.42428 3.30859 6.33261 3.30859 8.37426C3.30859 10.5326 4.60026 12.7909 6.55026 14.0993V14.7909C6.54193 15.0243 6.53359 15.3826 6.81693 15.6743C7.10859 15.9743 7.54193 16.0076 7.88359 16.0076H12.1586C12.6086 16.0076 12.9502 15.8826 13.1836 15.6493C13.5002 15.3243 13.4919 14.9076 13.4836 14.6826V14.0993C16.0669 12.3576 17.6919 8.68259 16.0086 5.29928ZM11.4336 9.68259L10.5419 11.2326C10.4252 11.4326 10.2169 11.5493 10.0002 11.5493C9.8919 11.5493 9.78357 11.5243 9.6919 11.4659C9.3919 11.2909 9.2919 10.9076 9.45857 10.6159L10.1669 9.38259H9.4669C9.05024 9.38259 8.70857 9.19926 8.52524 8.89093C8.3419 8.57426 8.35857 8.19094 8.5669 7.82428L9.45857 6.27428C9.63357 5.97428 10.0169 5.87428 10.3086 6.04094C10.6086 6.21594 10.7086 6.59928 10.5419 6.89094L9.83357 8.12428H10.5336C10.9502 8.12428 11.2919 8.30761 11.4752 8.61593C11.6586 8.93259 11.6419 9.32426 11.4336 9.68259Z" fill="white"/>
</svg>
