<svg width="20" height="20" viewBox="0 0 20 20" fill="none" xmlns="http://www.w3.org/2000/svg">
<path d="M13.0836 3.62554L5.33359 11.3756C4.94193 11.7672 4.25859 11.6839 4.00859 11.1839C3.55859 10.2922 3.30859 9.31724 3.30859 8.37557C3.30859 6.33388 4.21693 4.42554 5.80859 3.14221C7.40026 1.85888 9.48357 1.38388 11.5252 1.83388C11.9752 1.93388 12.4169 2.07554 12.8336 2.26721C13.3669 2.50888 13.5002 3.20888 13.0836 3.62554Z" fill="white"/>
<path d="M12.8758 17.193C10.9925 16.6596 9.00915 16.6596 7.12581 17.193C6.81748 17.2846 6.63415 17.6013 6.72581 17.9096C6.81748 18.218 7.13415 18.393 7.44248 18.3096C9.11749 17.8346 10.8758 17.8346 12.5508 18.3096C12.6008 18.3263 12.6592 18.3346 12.7092 18.3346C12.9592 18.3346 13.1925 18.168 13.2675 17.9096C13.3592 17.6013 13.1842 17.2846 12.8758 17.193Z" fill="white"/>
<path d="M17.1333 1.62656C16.8916 1.3849 16.4916 1.3849 16.2499 1.62656L3.0416 14.8349C2.79993 15.0765 2.79993 15.4765 3.0416 15.7182C3.1666 15.8432 3.32493 15.9015 3.48327 15.9015C3.6416 15.9015 3.79994 15.8432 3.92494 15.7182L5.97493 13.6682C6.15827 13.8182 6.34993 13.9682 6.54993 14.1015V14.7932C6.5416 15.0265 6.53327 15.3849 6.80827 15.6765C7.09994 15.9682 7.53327 16.0099 7.87494 16.0099H12.1499C12.5999 16.0099 12.9416 15.8849 13.1749 15.6515C13.4999 15.3182 13.4833 14.9015 13.4749 14.6849V14.1015C16.0666 12.3599 17.6916 8.68488 16.0083 5.30156C15.8249 4.94323 15.5999 4.60156 15.3499 4.2849L17.1249 2.5099C17.3749 2.26823 17.3749 1.86823 17.1333 1.62656Z" fill="white"/>
</svg>
