<svg width="20" height="20" viewBox="0 0 20 20" fill="none" xmlns="http://www.w3.org/2000/svg">
<path d="M17.0242 9.81797L15.1908 3.08464C14.9825 2.30964 14.1408 1.66797 13.3408 1.66797H6.65753C5.85753 1.66797 5.01586 2.30964 4.80753 3.08464L2.9742 9.81797C2.60753 11.1513 3.44086 12.243 4.8242 12.243H9.37418V17.0846H6.66586C6.3242 17.0846 6.04086 17.368 6.04086 17.7096C6.04086 18.0513 6.3242 18.3346 6.66586 18.3346H13.3325C13.6742 18.3346 13.9575 18.0513 13.9575 17.7096C13.9575 17.368 13.6742 17.0846 13.3325 17.0846H10.6242V12.243H15.1742C16.5575 12.243 17.3908 11.1513 17.0242 9.81797Z" fill="white"/>
</svg>
