<svg width="20" height="20" viewBox="0 0 20 20" fill="none" xmlns="http://www.w3.org/2000/svg">
<path d="M16.0086 5.29928C15.1419 3.54928 13.4669 2.25761 11.5252 1.83261C9.4919 1.38261 7.40859 1.86594 5.81693 3.14928C4.21693 4.42428 3.30859 6.33261 3.30859 8.37426C3.30859 10.5326 4.60026 12.7909 6.55026 14.0993V14.7909C6.54193 15.0243 6.53359 15.3826 6.81693 15.6743C7.10859 15.9743 7.54193 16.0076 7.88359 16.0076H12.1586C12.6086 16.0076 12.9502 15.8826 13.1836 15.6493C13.5002 15.3243 13.4919 14.9076 13.4836 14.6826V14.0993C16.0669 12.3576 17.6919 8.68259 16.0086 5.29928Z" fill="white"/>
<path d="M12.717 18.3346C12.667 18.3346 12.6087 18.3263 12.5587 18.3096C10.8837 17.8346 9.12533 17.8346 7.45029 18.3096C7.14196 18.393 6.81696 18.218 6.73362 17.9096C6.64196 17.6013 6.82529 17.2763 7.13362 17.193C9.017 16.6596 11.0003 16.6596 12.8837 17.193C13.192 17.2846 13.3753 17.6013 13.2837 17.9096C13.2003 18.168 12.967 18.3346 12.717 18.3346Z" fill="white"/>
</svg>
