<svg width="20" height="20" viewBox="0 0 20 20" fill="none" xmlns="http://www.w3.org/2000/svg">
<path d="M10.4169 4.56771C10.4836 4.56771 10.5502 4.56771 10.6252 4.57604V2.10937C10.6252 1.76771 10.3419 1.48438 10.0002 1.48438C9.65857 1.48438 9.37524 1.76771 9.37524 2.10937V4.57604C9.4419 4.56771 9.50857 4.56771 9.58357 4.56771C5.74193 4.75937 2.68359 7.92604 2.68359 11.8177V13.4344C2.68359 14.351 3.43359 15.101 4.35026 15.101H15.6502C16.5669 15.101 17.3169 14.351 17.3169 13.4344V11.8177C17.3169 7.92604 14.2586 4.75937 10.4169 4.56771Z" fill="white"/>
<path d="M12.2749 15.9258C12.5499 15.9258 12.7499 16.1841 12.6833 16.4508C12.3666 17.6424 11.2833 18.5174 9.99992 18.5174C8.71659 18.5174 7.63328 17.6424 7.31661 16.4508C7.24995 16.1841 7.44995 15.9258 7.72495 15.9258H12.2749Z" fill="white"/>
</svg>
