<svg width="20" height="20" viewBox="0 0 20 20" fill="none" xmlns="http://www.w3.org/2000/svg">
<path d="M13.492 1.66797H6.50866C3.47533 1.66797 1.66699 3.4763 1.66699 6.50964V13.4846C1.66699 16.5263 3.47533 18.3346 6.50866 18.3346H13.4837C16.517 18.3346 18.3253 16.5263 18.3253 13.493V6.50964C18.3337 3.4763 16.5253 1.66797 13.492 1.66797ZM14.167 14.5596C12.742 14.5596 11.4087 13.943 10.342 12.8013C9.13366 13.893 7.55866 14.5596 5.83366 14.5596C5.49199 14.5596 5.20866 14.2763 5.20866 13.9346C5.20866 13.593 5.49199 13.3096 5.83366 13.3096C8.72533 13.3096 11.117 11.018 11.4253 8.08464H10.0003H5.84199C5.50033 8.08464 5.21699 7.8013 5.21699 7.45964C5.21699 7.11797 5.50033 6.84297 5.84199 6.84297H9.37533V6.06797C9.37533 5.7263 9.65866 5.44297 10.0003 5.44297C10.342 5.44297 10.6253 5.7263 10.6253 6.06797V6.84297H12.0337C12.0503 6.84297 12.067 6.83464 12.0837 6.83464C12.1003 6.83464 12.117 6.84297 12.1337 6.84297H14.1587C14.5003 6.84297 14.7837 7.1263 14.7837 7.46797C14.7837 7.80964 14.5003 8.09297 14.1587 8.09297H12.6753C12.5503 9.51797 12.017 10.8263 11.2003 11.893C12.0337 12.818 13.0753 13.318 14.167 13.318C14.5087 13.318 14.792 13.6013 14.792 13.943C14.792 14.2846 14.5087 14.5596 14.167 14.5596Z" fill="white"/>
</svg>
