<svg width="20" height="20" viewBox="0 0 20 20" fill="none" xmlns="http://www.w3.org/2000/svg">
<path d="M16.1414 4.07266L11.2581 1.89766C10.5414 1.58099 9.45808 1.58099 8.74141 1.89766L3.85807 4.07266C2.62474 4.62266 2.44141 5.37266 2.44141 5.77266C2.44141 6.17266 2.62474 6.92266 3.85807 7.47266L8.74141 9.64762C9.09975 9.80596 9.54975 9.88929 9.99975 9.88929C10.4497 9.88929 10.8997 9.80596 11.2581 9.64762L16.1414 7.47266C17.3747 6.92266 17.5581 6.17266 17.5581 5.77266C17.5581 5.37266 17.3831 4.62266 16.1414 4.07266Z" fill="white"/>
<path d="M10.0003 14.2013C9.68359 14.2013 9.36692 14.1346 9.07525 14.0096L3.45859 11.5096C2.60026 11.1263 1.93359 10.1013 1.93359 9.15964C1.93359 8.81797 2.20859 8.54297 2.55026 8.54297C2.89193 8.54297 3.16693 8.81797 3.16693 9.15964C3.16693 9.60964 3.54193 10.193 3.95859 10.3763L9.57525 12.8763C9.84192 12.993 10.1503 12.993 10.4169 12.8763L16.0336 10.3763C16.4503 10.193 16.8253 9.61797 16.8253 9.15964C16.8253 8.81797 17.1003 8.54297 17.4419 8.54297C17.7836 8.54297 18.0586 8.81797 18.0586 9.15964C18.0586 10.093 17.3919 11.1263 16.5336 11.5096L10.9169 14.0096C10.6336 14.1346 10.3169 14.2013 10.0003 14.2013Z" fill="white"/>
<path d="M10.0003 18.3341C9.68359 18.3341 9.36692 18.2674 9.07525 18.1424L3.45859 15.6424C2.53359 15.2341 1.93359 14.3091 1.93359 13.2924C1.93359 12.9508 2.20859 12.6758 2.55026 12.6758C2.89193 12.6758 3.16693 12.9508 3.16693 13.2924C3.16693 13.8174 3.47526 14.2924 3.95859 14.5091L9.57525 17.0091C9.84192 17.1258 10.1503 17.1258 10.4169 17.0091L16.0336 14.5091C16.5086 14.3008 16.8253 13.8174 16.8253 13.2924C16.8253 12.9508 17.1003 12.6758 17.4419 12.6758C17.7836 12.6758 18.0586 12.9508 18.0586 13.2924C18.0586 14.3091 17.4586 15.2258 16.5336 15.6424L10.9169 18.1424C10.6336 18.2674 10.3169 18.3341 10.0003 18.3341Z" fill="white"/>
</svg>
