<svg width="20" height="20" viewBox="0 0 20 20" fill="none" xmlns="http://www.w3.org/2000/svg">
<path d="M10.0003 1.66797C5.40033 1.66797 1.66699 5.4013 1.66699 10.0013C1.66699 14.6013 5.40033 18.3346 10.0003 18.3346C14.6003 18.3346 18.3337 14.6013 18.3337 10.0013C18.3337 5.4013 14.6003 1.66797 10.0003 1.66797ZM5.83366 10.6263H4.16699C3.82533 10.6263 3.54199 10.343 3.54199 10.0013C3.54199 9.65964 3.82533 9.3763 4.16699 9.3763H5.83366C6.17533 9.3763 6.45866 9.65964 6.45866 10.0013C6.45866 10.343 6.17533 10.6263 5.83366 10.6263ZM10.0003 11.8763C8.96699 11.8763 8.12533 11.0346 8.12533 10.0013C8.12533 8.96797 8.96699 8.1263 10.0003 8.1263C11.0337 8.1263 11.8753 8.96797 11.8753 10.0013C11.8753 11.0346 11.0337 11.8763 10.0003 11.8763ZM15.8337 10.6263H14.167C13.8253 10.6263 13.542 10.343 13.542 10.0013C13.542 9.65964 13.8253 9.3763 14.167 9.3763H15.8337C16.1753 9.3763 16.4587 9.65964 16.4587 10.0013C16.4587 10.343 16.1753 10.6263 15.8337 10.6263Z" fill="white"/>
</svg>
