<svg width="20" height="20" viewBox="0 0 20 20" fill="none" xmlns="http://www.w3.org/2000/svg">
<path d="M6.99121 15.4076V6.94095C6.99121 6.60762 7.09121 6.28262 7.27454 6.00762L9.5495 2.62429C9.90784 2.08262 10.7995 1.69929 11.5578 1.98262C12.3745 2.25762 12.9162 3.17429 12.7412 3.99095L12.3078 6.71595C12.2745 6.96595 12.3412 7.19095 12.4828 7.36595C12.6245 7.52429 12.8328 7.62429 13.0578 7.62429H16.4828C17.1412 7.62429 17.7078 7.89095 18.0412 8.35761C18.3578 8.80761 18.4162 9.39095 18.2078 9.98261L16.1578 16.2243C15.8995 17.2576 14.7745 18.0993 13.6578 18.0993H10.4078C9.8495 18.0993 9.06617 17.9076 8.70784 17.5493L7.64121 16.7243C7.23288 16.4159 6.99121 15.9243 6.99121 15.4076Z" fill="white"/>
<path d="M4.34199 5.31641H3.48366C2.19199 5.31641 1.66699 5.81641 1.66699 7.04974V15.4331C1.66699 16.6664 2.19199 17.1664 3.48366 17.1664H4.34199C5.63366 17.1664 6.15866 16.6664 6.15866 15.4331V7.04974C6.15866 5.81641 5.63366 5.31641 4.34199 5.31641Z" fill="white"/>
</svg>
