<svg width="20" height="20" viewBox="0 0 20 20" fill="none" xmlns="http://www.w3.org/2000/svg">
<path d="M10.9587 12.811C10.7753 12.5443 10.4503 12.3943 10.0753 12.3943H8.13366C8.00866 12.3943 7.88366 12.3443 7.80866 12.2443C7.72533 12.1443 7.69199 12.0193 7.70866 11.8777L7.95033 10.3277C8.05033 9.86933 7.74199 9.34433 7.28366 9.186C6.85033 9.02767 6.35033 9.24433 6.14199 9.55267L4.21699 12.4193V12.061C4.21699 11.361 3.91699 11.0777 3.18366 11.0777H2.70033C1.96699 11.086 1.66699 11.3693 1.66699 12.0693V16.8277C1.66699 17.5277 1.96699 17.811 2.70033 17.811H3.18366C3.88366 17.811 4.17533 17.536 4.20033 16.9027L5.65866 18.0277C5.86699 18.2277 6.30866 18.336 6.62533 18.336H8.46699C9.10033 18.336 9.73366 17.861 9.88366 17.2777L11.0503 13.736C11.1753 13.3943 11.142 13.0693 10.9587 12.811Z" fill="white"/>
<path d="M17.5916 2.17734H17.1083C16.4083 2.17734 16.1166 2.45234 16.0833 3.08568L14.625 1.96068C14.425 1.76068 13.975 1.65234 13.6583 1.65234H11.8166C11.1833 1.65234 10.55 2.12734 10.4 2.71068L9.23331 6.25234C9.10831 6.59401 9.14998 6.91901 9.32498 7.17734C9.50831 7.44401 9.83331 7.59401 10.2083 7.59401H12.15C12.275 7.59401 12.4 7.64401 12.475 7.74401C12.5583 7.84401 12.5916 7.96901 12.575 8.11068L12.3333 9.6607C12.2333 10.119 12.5416 10.644 13 10.8024C13.4333 10.9607 13.9333 10.744 14.1416 10.4357L16.0666 7.56901V7.92734C16.0666 8.62737 16.3666 8.9107 17.1 8.9107H17.5833C18.3166 8.9107 18.6166 8.62737 18.6166 7.92734V3.15234C18.625 2.46068 18.325 2.17734 17.5916 2.17734Z" fill="white"/>
</svg>
