<svg width="20" height="20" viewBox="0 0 20 20" fill="none" xmlns="http://www.w3.org/2000/svg">
<path d="M15 1.66797H5C3.61667 1.66797 2.5 2.7763 2.5 4.14297V13.2346C2.5 14.6013 3.61667 15.7096 5 15.7096H5.63333C6.3 15.7096 6.93333 15.968 7.4 16.4346L8.825 17.843C9.475 18.4846 10.5333 18.4846 11.1833 17.843L12.6083 16.4346C13.075 15.968 13.7167 15.7096 14.375 15.7096H15C16.3833 15.7096 17.5 14.6013 17.5 13.2346V4.14297C17.5 2.7763 16.3833 1.66797 15 1.66797ZM10.2333 12.468C10.1083 12.5096 9.9 12.5096 9.76667 12.468C8.68333 12.093 6.25 10.5513 6.25 7.9263C6.25833 6.76797 7.18333 5.83464 8.33333 5.83464C9.01667 5.83464 9.61667 6.15964 10 6.66797C10.3833 6.15964 10.9833 5.83464 11.6667 5.83464C12.8167 5.83464 13.75 6.76797 13.75 7.9263C13.7417 10.5513 11.3167 12.093 10.2333 12.468Z" fill="white"/>
</svg>
