<svg width="20" height="20" viewBox="0 0 20 20" fill="none" xmlns="http://www.w3.org/2000/svg">
<path d="M17.9667 8.94944L16.8334 7.63281C16.6167 7.38281 16.4417 6.91615 16.4417 6.58281V5.16615C16.4417 4.28281 15.7167 3.55781 14.8334 3.55781H13.4167C13.0917 3.55781 12.6167 3.38281 12.3667 3.16615L11.0501 2.03281C10.4751 1.54115 9.53341 1.54115 8.95008 2.03281L7.64173 3.17448C7.39173 3.38281 6.91673 3.55781 6.59173 3.55781H5.15007C4.26673 3.55781 3.54173 4.28281 3.54173 5.16615V6.59115C3.54173 6.91615 3.36673 7.38281 3.1584 7.63281L2.0334 8.95777C1.55007 9.53277 1.55007 10.4661 2.0334 11.0411L3.1584 12.3661C3.36673 12.6161 3.54173 13.0828 3.54173 13.4078V14.8328C3.54173 15.7161 4.26673 16.4411 5.15007 16.4411H6.59173C6.91673 16.4411 7.39173 16.6161 7.64173 16.8328L8.95841 17.9661C9.53341 18.4578 10.4751 18.4578 11.0584 17.9661L12.3751 16.8328C12.6251 16.6161 13.0917 16.4411 13.4251 16.4411H14.8417C15.7251 16.4411 16.4501 15.7161 16.4501 14.8328V13.4161C16.4501 13.0911 16.6251 12.6161 16.8417 12.3661L17.9751 11.0494C18.4584 10.4744 18.4584 9.52444 17.9667 8.94944ZM13.9001 9.99944L12.9251 12.9661C12.8001 13.4578 12.2751 13.8578 11.7417 13.8578H10.2001C9.93341 13.8578 9.55842 13.7661 9.39175 13.5994L8.16673 12.6411C8.14173 13.1744 7.90007 13.3994 7.3084 13.3994H6.9084C6.29173 13.3994 6.04173 13.1578 6.04173 12.5744V8.5911C6.04173 8.00781 6.29173 7.76615 6.9084 7.76615H7.31673C7.9334 7.76615 8.1834 8.00781 8.1834 8.5911V8.8911L9.80008 6.49115C9.96675 6.23281 10.3917 6.04948 10.7501 6.19115C11.1417 6.32448 11.3917 6.75781 11.3084 7.14115L11.1084 8.4411C11.0917 8.55777 11.1167 8.6661 11.1917 8.74944C11.2584 8.82444 11.3584 8.87444 11.4667 8.87444H13.0917C13.4084 8.87444 13.6751 8.99944 13.8334 9.22444C13.9751 9.44111 14.0001 9.7161 13.9001 9.99944Z" fill="white"/>
</svg>
