<svg width="20" height="20" viewBox="0 0 20 20" fill="none" xmlns="http://www.w3.org/2000/svg">
<path d="M15 1.66797H5C3.61667 1.66797 2.5 2.7763 2.5 4.14297V13.2346C2.5 14.6013 3.61667 15.7096 5 15.7096H5.63333C6.3 15.7096 6.93333 15.968 7.4 16.4346L8.825 17.843C9.475 18.4846 10.5333 18.4846 11.1833 17.843L12.6083 16.4346C13.075 15.968 13.7167 15.7096 14.375 15.7096H15C16.3833 15.7096 17.5 14.6013 17.5 13.2346V4.14297C17.5 2.7763 16.3833 1.66797 15 1.66797ZM13.9 8.7513L12.925 11.718C12.8 12.2096 12.275 12.6096 11.7417 12.6096H10.2C9.93333 12.6096 9.55833 12.518 9.39167 12.3513L8.16667 11.393C8.14167 11.9263 7.9 12.1513 7.30833 12.1513H6.90833C6.29167 12.1513 6.04167 11.9096 6.04167 11.3263V7.3513C6.04167 6.76797 6.29167 6.5263 6.90833 6.5263H7.31667C7.93333 6.5263 8.18333 6.76797 8.18333 7.3513V7.6513L9.8 5.2513C9.96667 4.99297 10.3917 4.80964 10.75 4.9513C11.1417 5.08464 11.3917 5.51797 11.3083 5.9013L11.1083 7.2013C11.0833 7.30964 11.1083 7.4263 11.1833 7.5013C11.25 7.5763 11.35 7.6263 11.4583 7.6263H13.0833C13.4 7.6263 13.6667 7.7513 13.825 7.9763C13.975 8.19297 14 8.46797 13.9 8.7513Z" fill="white"/>
</svg>
