<svg width="20" height="20" viewBox="0 0 20 20" fill="none" xmlns="http://www.w3.org/2000/svg">
<path d="M10.0003 1.66797C5.40033 1.66797 1.66699 5.4013 1.66699 10.0013C1.66699 14.6013 5.40033 18.3346 10.0003 18.3346C14.6003 18.3346 18.3337 14.6013 18.3337 10.0013C18.3337 5.4013 14.6003 1.66797 10.0003 1.66797ZM7.20866 12.3096C7.11699 12.5596 6.87533 12.718 6.62533 12.718C6.55033 12.718 6.48366 12.7096 6.40866 12.6763C5.73366 12.4263 5.16699 11.9346 4.80866 11.293C3.97533 9.79297 4.49199 7.83464 5.95033 6.9263L7.90032 5.71797C8.61699 5.2763 9.45866 5.14297 10.2587 5.3513C11.0587 5.55964 11.7337 6.08464 12.142 6.81797C12.9753 8.31797 12.4587 10.2763 11.0003 11.1846L10.7837 11.343C10.5003 11.543 10.1087 11.4763 9.90866 11.2013C9.70866 10.918 9.77533 10.5263 10.0503 10.3263L10.3087 10.143C11.242 9.55964 11.5587 8.3513 11.0503 7.4263C10.8087 6.99297 10.417 6.68464 9.95032 6.55964C9.48366 6.43464 8.99199 6.50964 8.56699 6.7763L6.60033 7.99297C5.70033 8.5513 5.38366 9.75964 5.89199 10.693C6.10033 11.068 6.43366 11.3596 6.83366 11.5096C7.15866 11.6263 7.32533 11.9846 7.20866 12.3096ZM14.1003 13.043L12.1503 14.2513C11.6587 14.5596 11.1087 14.7096 10.5503 14.7096C10.3003 14.7096 10.042 14.6763 9.79199 14.6096C8.99199 14.4013 8.31699 13.8763 7.91699 13.143C7.08366 11.643 7.60033 9.68464 9.05866 8.7763L9.27533 8.61797C9.55866 8.41797 9.95033 8.48464 10.1503 8.75964C10.3503 9.04297 10.2837 9.43464 10.0087 9.63464L9.75033 9.81797C8.81699 10.4013 8.50033 11.6096 9.00866 12.5346C9.25033 12.968 9.64199 13.2763 10.1087 13.4013C10.5753 13.5263 11.067 13.4513 11.492 13.1846L13.442 11.9763C14.342 11.418 14.6587 10.2096 14.1503 9.2763C13.942 8.9013 13.6087 8.60963 13.2087 8.45963C12.8837 8.34297 12.717 7.98463 12.842 7.65963C12.9587 7.33463 13.3253 7.16797 13.642 7.29297C14.317 7.54297 14.8837 8.03464 15.242 8.6763C16.067 10.1763 15.5587 12.1346 14.1003 13.043Z" fill="white"/>
</svg>
