<svg width="20" height="20" viewBox="0 0 20 20" fill="none" xmlns="http://www.w3.org/2000/svg">
<path d="M6.04125 10.0013C6.04125 9.65964 6.32459 9.3763 6.66625 9.3763H9.16626V6.2513C9.16626 5.79297 8.79126 5.41797 8.33292 5.41797H6.47459C3.84959 5.41797 1.56625 7.56797 1.66625 10.1846C1.71625 11.3763 2.21625 12.4513 3.00792 13.243C3.84125 14.068 4.98292 14.5846 6.24959 14.5846H8.33292C8.79126 14.5846 9.16626 14.2096 9.16626 13.7513V10.6263H6.66625C6.32459 10.6263 6.04125 10.343 6.04125 10.0013Z" fill="white"/>
<path d="M16.9913 6.75964C16.158 5.93464 15.0163 5.41797 13.7497 5.41797H11.6663C11.208 5.41797 10.833 5.79297 10.833 6.2513V9.3763H13.333C13.6747 9.3763 13.958 9.65964 13.958 10.0013C13.958 10.343 13.6747 10.6263 13.333 10.6263H10.833V13.7513C10.833 14.2096 11.208 14.5846 11.6663 14.5846H13.5247C16.1497 14.5846 18.433 12.4346 18.3247 9.81797C18.283 8.6263 17.7747 7.5513 16.9913 6.75964Z" fill="white"/>
<path d="M10.8337 9.375H9.16699V10.625H10.8337V9.375Z" fill="white"/>
</svg>
