<svg width="20" height="20" viewBox="0 0 20 20" fill="none" xmlns="http://www.w3.org/2000/svg">
<path d="M13.492 1.66797H6.50866C3.47533 1.66797 1.66699 3.4763 1.66699 6.50964V13.4846C1.66699 16.5263 3.47533 18.3346 6.50866 18.3346H13.4837C16.517 18.3346 18.3253 16.5263 18.3253 13.493V6.50964C18.3337 3.4763 16.5253 1.66797 13.492 1.66797ZM6.81699 13.9763C6.80033 13.9763 6.77533 13.9763 6.75866 13.9763C5.95033 13.9013 5.19199 13.5263 4.62533 12.9263C3.29199 11.5263 3.29199 9.2513 4.62533 7.8513L6.45033 5.93464C7.10033 5.2513 7.97533 4.86797 8.90866 4.86797C9.84199 4.86797 10.717 5.24297 11.367 5.93464C12.7003 7.33464 12.7003 9.60964 11.367 11.0096L10.4587 11.968C10.217 12.218 9.82533 12.2263 9.57533 11.993C9.32533 11.7513 9.31699 11.3596 9.55033 11.1096L10.4587 10.1513C11.342 9.2263 11.342 7.71797 10.4587 6.8013C9.63366 5.93464 8.18366 5.93464 7.35033 6.8013L5.52533 8.71797C4.64199 9.64297 4.64199 11.1513 5.52533 12.068C5.88366 12.4513 6.36699 12.6846 6.87533 12.7346C7.21699 12.768 7.46699 13.0763 7.43366 13.418C7.40866 13.7346 7.13366 13.9763 6.81699 13.9763ZM15.3753 12.1596L13.5503 14.0763C12.9003 14.7596 12.0253 15.143 11.092 15.143C10.1587 15.143 9.28366 14.768 8.63366 14.0763C7.30033 12.6763 7.30033 10.4013 8.63366 9.0013L9.54199 8.04297C9.78366 7.79297 10.1753 7.78464 10.4253 8.01797C10.6753 8.25964 10.6837 8.6513 10.4503 8.9013L9.54199 9.85964C8.65866 10.7846 8.65866 12.293 9.54199 13.2096C10.367 14.0763 11.817 14.0846 12.6503 13.2096L14.4753 11.293C15.3587 10.368 15.3587 8.85964 14.4753 7.94297C14.117 7.55964 13.6337 7.3263 13.1253 7.2763C12.7837 7.24297 12.5337 6.93464 12.567 6.59297C12.6003 6.2513 12.9003 5.99297 13.2503 6.03464C14.0587 6.11797 14.817 6.48464 15.3837 7.08464C16.7087 8.4763 16.7087 10.7596 15.3753 12.1596Z" fill="white"/>
</svg>
