<svg width="20" height="20" viewBox="0 0 20 20" fill="none" xmlns="http://www.w3.org/2000/svg">
<path d="M15.8914 11.8654C15.6498 12.107 15.2664 12.107 15.0331 11.8654C14.7914 11.6237 14.7914 11.2404 15.0331 11.007C16.6998 9.34036 16.6998 6.63203 15.0331 4.9737C13.3664 3.31537 10.6581 3.30703 8.99976 4.9737C7.34141 6.64037 7.33307 9.34869 8.99976 11.007C9.24143 11.2487 9.24143 11.632 8.99976 11.8654C8.7581 12.107 8.37476 12.107 8.14141 11.8654C5.99974 9.72369 5.99974 6.24037 8.14141 4.10703C10.2831 1.9737 13.7664 1.96537 15.8998 4.10703C18.0331 6.2487 18.0331 9.72369 15.8914 11.8654Z" fill="white"/>
<path d="M4.10827 8.13438C4.34994 7.89271 4.73327 7.89271 4.9666 8.13438C5.20827 8.37607 5.20827 8.7594 4.9666 8.99273C3.29994 10.6594 3.29994 13.3677 4.9666 15.0261C6.63327 16.6844 9.34158 16.6927 10.9999 15.0261C12.6582 13.3594 12.6666 10.6511 10.9999 8.99273C10.7582 8.75107 10.7582 8.36773 10.9999 8.13438C11.2416 7.89271 11.6249 7.89271 11.8582 8.13438C13.9999 10.2761 13.9999 13.7594 11.8582 15.8927C9.71658 18.0261 6.23327 18.0344 4.09994 15.8927C1.9666 13.7511 1.9666 10.2761 4.10827 8.13438Z" fill="white"/>
</svg>
