<svg width="20" height="20" viewBox="0 0 20 20" fill="none" xmlns="http://www.w3.org/2000/svg">
<path d="M12.8417 15.4906C12.5084 15.4906 12.2334 15.2156 12.2334 14.8823C12.2334 14.5489 12.5084 14.2739 12.8417 14.2739C15.1917 14.2739 17.1084 12.3573 17.1084 10.0073C17.1084 7.65729 15.1917 5.74063 12.8417 5.74063C10.4917 5.74063 8.57508 7.65729 8.57508 10.0073C8.57508 10.3406 8.30006 10.6156 7.96673 10.6156C7.6334 10.6156 7.3584 10.3406 7.3584 10.0073C7.3584 6.98229 9.81675 4.51562 12.8501 4.51562C15.8834 4.51562 18.3334 6.97396 18.3334 9.99894C18.3334 13.0239 15.8751 15.4906 12.8417 15.4906Z" fill="white"/>
<path d="M7.15866 4.50781C7.49199 4.50781 7.76699 4.78281 7.76699 5.11615C7.76699 5.44948 7.49199 5.72448 7.15866 5.72448C4.80866 5.72448 2.89199 7.64115 2.89199 9.99118C2.89199 12.3412 4.80866 14.2578 7.15866 14.2578C9.50866 14.2578 11.4253 12.3412 11.4253 9.99118C11.4253 9.65785 11.7003 9.38285 12.0337 9.38285C12.367 9.38285 12.642 9.65785 12.642 9.99118C12.642 13.0162 10.1837 15.4828 7.15033 15.4828C4.11699 15.4828 1.66699 13.0245 1.66699 9.99951C1.66699 6.97448 4.12533 4.50781 7.15866 4.50781Z" fill="white"/>
</svg>
