<svg width="20" height="20" viewBox="0 0 20 20" fill="none" xmlns="http://www.w3.org/2000/svg">
<path d="M10.0003 1.66797C5.40033 1.66797 1.66699 5.4013 1.66699 10.0013C1.66699 14.6013 5.40033 18.3346 10.0003 18.3346C14.6003 18.3346 18.3337 14.6013 18.3337 10.0013C18.3337 5.4013 14.6003 1.66797 10.0003 1.66797ZM13.1837 13.6013C13.1087 14.0013 12.767 14.2846 12.367 14.2846H7.75032C7.20032 14.2846 6.80033 13.7513 6.95033 13.2263L7.65032 10.768L6.22533 11.0513C6.18366 11.0596 6.142 11.0596 6.10033 11.0596C5.80867 11.0596 5.55033 10.8513 5.49199 10.5596C5.42533 10.218 5.64198 9.89297 5.98365 9.8263L8.04198 9.41797L9.13366 5.60964C9.18366 5.43464 9.35032 5.30964 9.53366 5.30964H10.667C11.217 5.30964 11.617 5.8263 11.4753 6.35964L10.8003 8.86797L12.4087 8.54297C12.742 8.4763 13.0753 8.69297 13.142 9.03464C13.2087 9.3763 12.992 9.7013 12.6503 9.76797L10.4337 10.2096L9.97533 11.918H12.5003C13.017 11.918 13.4087 12.3846 13.317 12.9013L13.1837 13.6013Z" fill="white"/>
</svg>
