<svg width="20" height="20" viewBox="0 0 20 20" fill="none" xmlns="http://www.w3.org/2000/svg">
<path d="M17.1827 7.2513C16.316 3.39297 12.9493 1.66797 9.99935 1.66797C9.99935 1.66797 9.99926 1.66797 9.99093 1.66797C7.0493 1.66797 3.69097 3.39297 2.81597 7.24297C1.83264 11.543 4.46597 15.1846 6.8493 17.4846C7.73264 18.3346 8.86601 18.7596 9.99935 18.7596C11.1327 18.7596 12.266 18.3346 13.141 17.4846C15.5243 15.1846 18.1577 11.5513 17.1827 7.2513ZM12.1076 11.243C11.9826 11.368 11.8243 11.4263 11.666 11.4263C11.5077 11.4263 11.3493 11.368 11.2243 11.243L10.016 10.0346L8.77426 11.2763C8.64926 11.4013 8.49101 11.4596 8.33264 11.4596C8.1743 11.4596 8.01597 11.4013 7.89097 11.2763C7.6493 11.0346 7.6493 10.6346 7.89097 10.393L9.13268 9.1513L7.9243 7.94297C7.68264 7.7013 7.68264 7.3013 7.9243 7.05964C8.16597 6.81797 8.56593 6.81797 8.8076 7.05964L10.016 8.26797L11.1827 7.1013C11.4243 6.85964 11.8243 6.85964 12.0659 7.1013C12.3076 7.34297 12.3076 7.74297 12.0659 7.98464L10.8993 9.1513L12.1076 10.3596C12.3493 10.6013 12.3493 10.993 12.1076 11.243Z" fill="white"/>
</svg>
