<svg width="20" height="20" viewBox="0 0 20 20" fill="none" xmlns="http://www.w3.org/2000/svg">
<path d="M13.1502 17.4841C12.2668 18.3341 11.1335 18.7591 10.0002 18.7591C8.86682 18.7591 7.73353 18.3257 6.8502 17.4757C6.5502 17.1924 6.2502 16.8757 5.9502 16.5507L16.7002 5.80078C16.9085 6.25078 17.0668 6.72578 17.1835 7.25078C18.1585 11.5507 15.5252 15.1841 13.1502 17.4841Z" fill="white"/>
<path d="M18.1417 1.85938C17.8917 1.60937 17.4834 1.60937 17.2334 1.85938L1.8584 17.2427C1.6084 17.4927 1.6084 17.9011 1.8584 18.1511C1.9834 18.2677 2.14173 18.3344 2.3084 18.3344C2.47507 18.3344 2.6334 18.2677 2.7584 18.1427L18.1417 2.75938C18.4001 2.50937 18.4001 2.10938 18.1417 1.85938Z" fill="white"/>
<path d="M7.37518 8.59297C7.37518 7.14297 8.55015 5.96797 10.0002 5.96797C11.0918 5.96797 12.0252 6.63464 12.4252 7.58464L15.7418 4.26797C14.2668 2.48464 12.0335 1.66797 10.0002 1.66797C8.52515 1.66797 6.95018 2.1013 5.63351 3.00964C4.31684 3.9263 3.25018 5.31797 2.81684 7.24297C2.11684 10.3013 3.25018 13.0346 4.82518 15.1763L8.99182 11.0096C8.04184 10.618 7.37518 9.6763 7.37518 8.59297Z" fill="white"/>
</svg>
