<svg width="20" height="20" viewBox="0 0 20 20" fill="none" xmlns="http://www.w3.org/2000/svg">
<path d="M17.1827 7.2513C16.316 3.39297 12.9493 1.66797 9.99935 1.66797C9.99935 1.66797 9.99926 1.66797 9.99093 1.66797C7.0493 1.66797 3.69097 3.39297 2.81597 7.24297C1.83264 11.543 4.46597 15.1846 6.8493 17.4846C7.73264 18.3346 8.86601 18.7596 9.99935 18.7596C11.1327 18.7596 12.266 18.3346 13.141 17.4846C15.5243 15.1846 18.1577 11.5513 17.1827 7.2513ZM12.291 9.79297H7.70764C7.36597 9.79297 7.08264 9.50964 7.08264 9.16797C7.08264 8.8263 7.36597 8.54297 7.70764 8.54297H12.291C12.6327 8.54297 12.916 8.8263 12.916 9.16797C12.916 9.50964 12.6327 9.79297 12.291 9.79297Z" fill="white"/>
</svg>
