<svg width="20" height="20" viewBox="0 0 20 20" fill="none" xmlns="http://www.w3.org/2000/svg">
<path d="M17.1827 7.2513C16.316 3.39297 12.9493 1.66797 9.99935 1.66797C9.99935 1.66797 9.99926 1.66797 9.99093 1.66797C7.0493 1.66797 3.69097 3.39297 2.81597 7.24297C1.83264 11.543 4.46597 15.1846 6.8493 17.4846C7.73264 18.3346 8.86601 18.7596 9.99935 18.7596C11.1327 18.7596 12.266 18.3346 13.141 17.4846C15.5243 15.1846 18.1577 11.5513 17.1827 7.2513ZM12.7326 7.94297L9.39926 11.2763C9.27426 11.4013 9.11601 11.4596 8.95768 11.4596C8.79935 11.4596 8.64101 11.4013 8.51601 11.2763L7.26597 10.0263C7.0243 9.78464 7.0243 9.38464 7.26597 9.14297C7.50764 8.9013 7.90764 8.9013 8.1493 9.14297L8.95768 9.9513L11.8493 7.05964C12.091 6.81797 12.4909 6.81797 12.7326 7.05964C12.9743 7.3013 12.9743 7.7013 12.7326 7.94297Z" fill="white"/>
</svg>
