<svg width="20" height="20" viewBox="0 0 20 20" fill="none" xmlns="http://www.w3.org/2000/svg">
<path d="M17.1839 7.04036C16.3089 3.19036 12.9506 1.45703 10.0006 1.45703C10.0006 1.45703 10.0006 1.45703 9.99223 1.45703C7.05057 1.45703 3.6839 3.18203 2.8089 7.03203C1.8339 11.332 4.46723 14.9737 6.85057 17.2654C7.7339 18.1154 8.86723 18.5404 10.0006 18.5404C11.1339 18.5404 12.2672 18.1154 13.1422 17.2654C15.5256 14.9737 18.1589 11.3404 17.1839 7.04036ZM10.0006 11.2154C8.55057 11.2154 7.37557 10.0404 7.37557 8.59037C7.37557 7.14037 8.55057 5.96536 10.0006 5.96536C11.4506 5.96536 12.6256 7.14037 12.6256 8.59037C12.6256 10.0404 11.4506 11.2154 10.0006 11.2154Z" fill="white"/>
</svg>
