<svg width="20" height="20" viewBox="0 0 20 20" fill="none" xmlns="http://www.w3.org/2000/svg">
<path d="M15.625 6.66797V8.41797C15.2583 8.36797 14.8417 8.34297 14.375 8.33464V6.66797C14.375 4.04297 13.6333 2.29297 10 2.29297C6.36667 2.29297 5.625 4.04297 5.625 6.66797V8.33464C5.15833 8.34297 4.74167 8.36797 4.375 8.41797V6.66797C4.375 4.2513 4.95833 1.04297 10 1.04297C15.0417 1.04297 15.625 4.2513 15.625 6.66797Z" fill="white"/>
<path d="M15.6253 8.41536C15.2587 8.36536 14.842 8.34036 14.3753 8.33203H5.62533C5.15866 8.34036 4.74199 8.36536 4.37533 8.41536C2.25033 8.6737 1.66699 9.71536 1.66699 12.4987V14.1654C1.66699 17.4987 2.50033 18.332 5.83366 18.332H14.167C17.5003 18.332 18.3337 17.4987 18.3337 14.1654V12.4987C18.3337 9.71536 17.7503 8.6737 15.6253 8.41536ZM7.25866 13.9237C7.10033 14.0737 6.88366 14.1654 6.66699 14.1654C6.55866 14.1654 6.45033 14.1404 6.35033 14.0987C6.24199 14.057 6.15866 13.9987 6.07533 13.9237C5.92533 13.7654 5.83366 13.5487 5.83366 13.332C5.83366 13.2237 5.85866 13.1154 5.90033 13.0154C5.94199 12.9154 6.00033 12.8237 6.07533 12.7404C6.15866 12.6654 6.24199 12.607 6.35033 12.5654C6.65866 12.432 7.02533 12.507 7.25866 12.7404C7.33366 12.8237 7.39199 12.9154 7.43366 13.0154C7.47533 13.1154 7.50033 13.2237 7.50033 13.332C7.50033 13.5487 7.40866 13.7654 7.25866 13.9237ZM10.767 13.6487C10.7253 13.7487 10.667 13.8404 10.592 13.9237C10.4337 14.0737 10.217 14.1654 10.0003 14.1654C9.77533 14.1654 9.56699 14.0737 9.40866 13.9237C9.33366 13.8404 9.27533 13.7487 9.23366 13.6487C9.19199 13.5487 9.16699 13.4404 9.16699 13.332C9.16699 13.107 9.25866 12.8987 9.40866 12.7404C9.71699 12.432 10.2753 12.432 10.592 12.7404C10.742 12.8987 10.8337 13.107 10.8337 13.332C10.8337 13.4404 10.8087 13.5487 10.767 13.6487ZM13.9253 13.9237C13.767 14.0737 13.5503 14.1654 13.3337 14.1654C13.117 14.1654 12.9003 14.0737 12.742 13.9237C12.592 13.7654 12.5003 13.557 12.5003 13.332C12.5003 13.107 12.592 12.8987 12.742 12.7404C13.0587 12.432 13.617 12.432 13.9253 12.7404C13.9587 12.782 13.992 12.8237 14.0253 12.8737C14.0587 12.9154 14.0837 12.9654 14.1003 13.0154C14.1253 13.0654 14.142 13.1154 14.1503 13.1654C14.1587 13.2237 14.167 13.282 14.167 13.332C14.167 13.5487 14.0753 13.7654 13.9253 13.9237Z" fill="white"/>
</svg>
