<svg width="20" height="20" viewBox="0 0 20 20" fill="none" xmlns="http://www.w3.org/2000/svg">
<path d="M10 6.45703C8.425 6.45703 8.125 7.11536 8.125 8.33203V8.8487H11.875V8.33203C11.875 7.11536 11.575 6.45703 10 6.45703Z" fill="white"/>
<path d="M10.0007 12.5833C10.5069 12.5833 10.9173 12.1729 10.9173 11.6667C10.9173 11.1604 10.5069 10.75 10.0007 10.75C9.4944 10.75 9.08398 11.1604 9.08398 11.6667C9.08398 12.1729 9.4944 12.5833 10.0007 12.5833Z" fill="white"/>
<path d="M10.0003 1.66797C5.40033 1.66797 1.66699 5.4013 1.66699 10.0013C1.66699 14.6013 5.40033 18.3346 10.0003 18.3346C14.6003 18.3346 18.3337 14.6013 18.3337 10.0013C18.3337 5.4013 14.6003 1.66797 10.0003 1.66797ZM14.4837 12.0846C14.4837 13.918 13.917 14.4846 12.0837 14.4846H7.91699C6.08366 14.4846 5.51699 13.918 5.51699 12.0846V11.2513C5.51699 9.8263 5.85866 9.16797 6.87533 8.94297V8.33464C6.87533 7.55964 6.87533 5.20964 10.0003 5.20964C13.1253 5.20964 13.1253 7.55964 13.1253 8.33464V8.94297C14.142 9.16797 14.4837 9.8263 14.4837 11.2513V12.0846Z" fill="white"/>
</svg>
