<svg width="20" height="20" viewBox="0 0 20 20" fill="none" xmlns="http://www.w3.org/2000/svg">
<path d="M11.3577 13.099C11.3577 13.849 10.7493 14.4573 9.99935 14.4573C9.46602 14.4573 9.00768 14.149 8.79102 13.7073L10.6077 11.8906C11.0493 12.1073 11.3577 12.5656 11.3577 13.099Z" fill="white"/>
<path d="M18.1422 1.85964C17.8922 1.60964 17.4839 1.60964 17.2339 1.85964L14.8922 4.2013C14.2506 2.51797 12.6089 1.66797 10.0006 1.66797C5.30892 1.66797 4.76725 4.6513 4.76725 6.9013V7.94297C4.77559 7.94297 4.78392 7.94297 4.79225 7.94297C2.43392 8.2263 1.66725 9.4013 1.66725 12.3263V13.8763C1.66725 15.2096 1.82559 16.1763 2.22559 16.868L1.85059 17.243C1.60059 17.493 1.60059 17.9013 1.85059 18.1513C1.98392 18.268 2.14225 18.3346 2.30892 18.3346C2.47559 18.3346 2.63392 18.268 2.75892 18.143L18.1422 2.75964C18.4006 2.50964 18.4006 2.10964 18.1422 1.85964ZM6.12559 7.86797C6.05892 7.86797 6.00059 7.86797 5.93392 7.86797V6.9013C5.93392 4.45964 6.62559 2.83464 10.0006 2.83464C12.8339 2.83464 13.7256 3.91797 13.9756 5.1263L11.2339 7.86797H6.12559Z" fill="white"/>
<path d="M18.3325 12.3249V13.8749C18.3325 17.2915 17.2908 18.3332 13.8742 18.3332H6.17415C5.43248 18.3332 5.06581 17.4332 5.59081 16.9082L7.94081 14.5582C7.99915 14.6415 8.06581 14.7165 8.13248 14.7915C8.71585 15.4249 9.58251 15.7582 10.5408 15.5582C10.6158 15.5415 10.6908 15.5249 10.7658 15.4915C10.8408 15.4749 10.9075 15.4499 10.9742 15.4165C11.1408 15.3582 11.2992 15.2665 11.4492 15.1582C11.5075 15.1249 11.5575 15.0832 11.5992 15.0415C11.7242 14.9415 11.8408 14.8249 11.9408 14.6999C11.9825 14.6582 12.0242 14.6082 12.0575 14.5499C12.1658 14.3999 12.2575 14.2415 12.3158 14.0749C12.3492 14.0082 12.3742 13.9415 12.3908 13.8665C12.4242 13.7915 12.4408 13.7165 12.4575 13.6415C12.6575 12.6832 12.3242 11.8165 11.6908 11.2332C11.6242 11.1665 11.5408 11.0999 11.4575 11.0415L14.0575 8.44152C14.0992 8.39986 14.1325 8.36653 14.1742 8.33319C14.5075 8.05815 14.9325 7.92482 15.3575 7.95815C15.4325 7.96648 15.5158 7.97482 15.5908 7.99148C15.7325 8.01648 15.8742 8.04982 16.0075 8.08315C16.1408 8.11648 16.2658 8.15815 16.3908 8.19982C16.6325 8.29148 16.8408 8.39986 17.0325 8.52486C17.2242 8.64986 17.3825 8.79986 17.5325 8.97486C17.6075 9.06653 17.6825 9.16652 17.7408 9.27486C17.7992 9.36652 17.8492 9.46653 17.8992 9.57486C17.9492 9.68319 17.9908 9.79986 18.0325 9.91653C18.0825 10.0582 18.1242 10.2165 18.1575 10.3832C18.1908 10.4999 18.2075 10.6249 18.2325 10.7582C18.2492 10.8832 18.2658 11.0165 18.2825 11.1582C18.3158 11.5082 18.3325 11.8999 18.3325 12.3249Z" fill="white"/>
</svg>
