<svg width="20" height="20" viewBox="0 0 20 20" fill="none" xmlns="http://www.w3.org/2000/svg">
<path d="M14 1.66797H11.8333C9.16667 1.66797 7.5 3.33464 7.5 6.0013V9.3763H11.2L9.475 7.6513C9.35 7.5263 9.29167 7.36797 9.29167 7.20963C9.29167 7.0513 9.35 6.89297 9.475 6.76797C9.71667 6.5263 10.1167 6.5263 10.3583 6.76797L13.15 9.55964C13.3917 9.8013 13.3917 10.2013 13.15 10.443L10.3583 13.2346C10.1167 13.4763 9.71667 13.4763 9.475 13.2346C9.23333 12.993 9.23333 12.593 9.475 12.3513L11.2 10.6263H7.5V14.0013C7.5 16.668 9.16667 18.3346 11.8333 18.3346H13.9917C16.6583 18.3346 18.325 16.668 18.325 14.0013V6.0013C18.3333 3.33464 16.6667 1.66797 14 1.66797Z" fill="white"/>
<path d="M2.29199 9.375C1.95033 9.375 1.66699 9.65833 1.66699 10C1.66699 10.3417 1.95033 10.625 2.29199 10.625H7.50033V9.375H2.29199Z" fill="white"/>
</svg>
