<svg width="20" height="20" viewBox="0 0 20 20" fill="none" xmlns="http://www.w3.org/2000/svg">
<path d="M8.96668 1.66797C8.56668 1.66797 8.25 1.98464 8.25 2.38464V9.43464H11.3083L10 8.1263C9.75834 7.88464 9.75834 7.48464 10 7.24297C10.2417 7.0013 10.6417 7.0013 10.8833 7.24297L13.25 9.61797C13.4917 9.85964 13.4917 10.2596 13.25 10.5013L10.8833 12.8763C10.7583 13.0013 10.6 13.0596 10.4417 13.0596C10.2833 13.0596 10.125 13.0013 10 12.8763C9.75834 12.6346 9.75834 12.2346 10 11.993L11.3 10.693H8.25V17.6346C8.25 18.0263 8.56668 18.3513 8.96668 18.3513C13.875 18.3513 17.3 14.9263 17.3 10.018C17.3 5.10964 13.8667 1.66797 8.96668 1.66797Z" fill="white"/>
<path d="M3.3252 9.43359C2.98353 9.43359 2.7002 9.71693 2.7002 10.0586C2.7002 10.4003 2.98353 10.6836 3.3252 10.6836H8.24186V9.43359H3.3252Z" fill="white"/>
</svg>
