<svg width="20" height="20" viewBox="0 0 20 20" fill="none" xmlns="http://www.w3.org/2000/svg">
<path d="M6.56686 10.0596C6.56686 9.71797 6.8502 9.43463 7.19186 9.43463H11.7585V2.38464C11.7502 1.98464 11.4335 1.66797 11.0335 1.66797C6.12519 1.66797 2.7002 5.09297 2.7002 10.0013C2.7002 14.9096 6.12519 18.3346 11.0335 18.3346C11.4252 18.3346 11.7502 18.018 11.7502 17.618V10.6763H7.19186C6.84186 10.6846 6.56686 10.4013 6.56686 10.0596Z" fill="white"/>
<path d="M17.1167 9.61878L14.75 7.24375C14.5083 7.00208 14.1083 7.00208 13.8667 7.24375C13.625 7.48542 13.625 7.88542 13.8667 8.12708L15.1667 9.42712H11.75V10.6771H15.1583L13.8583 11.9771C13.6167 12.2188 13.6167 12.6188 13.8583 12.8605C13.9833 12.9855 14.1417 13.0438 14.3 13.0438C14.4583 13.0438 14.6167 12.9855 14.7417 12.8605L17.1083 10.4855C17.3583 10.2521 17.3583 9.86045 17.1167 9.61878Z" fill="white"/>
</svg>
