<svg width="20" height="20" viewBox="0 0 20 20" fill="none" xmlns="http://www.w3.org/2000/svg">
<path d="M14 1.66797H11.8333C9.16667 1.66797 7.5 3.33464 7.5 6.0013V9.3763H12.7083C13.05 9.3763 13.3333 9.65964 13.3333 10.0013C13.3333 10.343 13.05 10.6263 12.7083 10.6263H7.5V14.0013C7.5 16.668 9.16667 18.3346 11.8333 18.3346H13.9917C16.6583 18.3346 18.325 16.668 18.325 14.0013V6.0013C18.3333 3.33464 16.6667 1.66797 14 1.66797Z" fill="white"/>
<path d="M3.8002 9.37549L5.5252 7.65052C5.6502 7.52552 5.70853 7.36719 5.70853 7.20885C5.70853 7.05052 5.6502 6.88385 5.5252 6.76719C5.28353 6.52552 4.88353 6.52552 4.64186 6.76719L1.8502 9.55882C1.60853 9.80049 1.60853 10.2005 1.8502 10.4422L4.64186 13.2338C4.88353 13.4755 5.28353 13.4755 5.5252 13.2338C5.76686 12.9922 5.76686 12.5922 5.5252 12.3505L3.8002 10.6255H7.5002V9.37549H3.8002Z" fill="white"/>
</svg>
