<svg width="20" height="20" viewBox="0 0 20 20" fill="none" xmlns="http://www.w3.org/2000/svg">
<path d="M15.666 8.25781C14.7243 8.25781 13.8827 8.71618 13.3577 9.41618C12.8327 8.71618 11.991 8.25781 11.0493 8.25781C9.45768 8.25781 8.16602 9.55785 8.16602 11.1578C8.16602 11.7745 8.26602 12.3495 8.43268 12.8745C9.24935 15.4662 11.7827 17.0245 13.0327 17.4495C13.2077 17.5078 13.4993 17.5078 13.6743 17.4495C14.9243 17.0245 17.4577 15.4745 18.2743 12.8745C18.4493 12.3412 18.541 11.7745 18.541 11.1578C18.5493 9.55785 17.2577 8.25781 15.666 8.25781Z" fill="white"/>
<path d="M17.292 6.9487C17.292 7.14036 17.1003 7.26536 16.917 7.21536C15.792 6.9237 14.5587 7.16536 13.6253 7.83203C13.442 7.96536 13.192 7.96536 13.017 7.83203C12.3587 7.3487 11.5587 7.08203 10.717 7.08203C8.56699 7.08203 6.81699 8.84036 6.81699 11.007C6.81699 13.357 7.94199 15.1154 9.07533 16.2904C9.13366 16.3487 9.08366 16.4487 9.00866 16.4154C6.73366 15.6404 1.66699 12.4237 1.66699 6.9487C1.66699 4.53203 3.60866 2.58203 6.00866 2.58203C7.43366 2.58203 8.69199 3.26536 9.48366 4.3237C10.2837 3.26536 11.542 2.58203 12.9587 2.58203C15.3503 2.58203 17.292 4.53203 17.292 6.9487Z" fill="white"/>
</svg>
