<svg width="20" height="20" viewBox="0 0 20 20" fill="none" xmlns="http://www.w3.org/2000/svg">
<path d="M16.2495 6.25104L15.0078 7.49271L12.5078 4.99271L13.7495 3.75104C14.0995 3.40104 14.5495 3.23438 14.9995 3.23438C15.4495 3.23438 15.8995 3.40104 16.2495 3.75104C16.9411 4.44271 16.9411 5.55938 16.2495 6.25104Z" fill="white"/>
<path d="M14.4255 8.08203L5.41719 17.082C4.72552 17.7737 3.60885 17.7737 2.91719 17.082C2.22552 16.3904 2.22552 15.2737 2.91719 14.582L11.9255 5.58203L14.4255 8.08203Z" fill="white"/>
<path d="M8.29176 2.91448L8.6334 1.75615C8.66674 1.64782 8.6334 1.53115 8.5584 1.44782C8.4834 1.36448 8.35007 1.33115 8.24176 1.36448L7.08343 1.70615L5.9251 1.36448C5.81676 1.33115 5.7001 1.36448 5.61676 1.43948C5.53343 1.52282 5.50843 1.63948 5.54176 1.74782L5.8751 2.91448L5.53343 4.07282C5.5001 4.18115 5.53343 4.29782 5.60843 4.38115C5.69176 4.46448 5.80843 4.48948 5.91676 4.45615L7.08343 4.12282L8.24176 4.46448C8.2751 4.47282 8.3001 4.48115 8.33343 4.48115C8.41674 4.48115 8.49174 4.44782 8.5584 4.38948C8.64174 4.30615 8.66674 4.18948 8.6334 4.08115L8.29176 2.91448Z" fill="white"/>
<path d="M4.95778 7.91448L5.29944 6.75615C5.33278 6.64782 5.29944 6.53115 5.22444 6.44782C5.14111 6.36448 5.02444 6.33948 4.91611 6.37282L3.74944 6.70615L2.59111 6.36448C2.48278 6.33115 2.36611 6.36448 2.28278 6.43948C2.19944 6.52282 2.17444 6.63948 2.20778 6.74782L2.54111 7.91448L2.19944 9.07279C2.16611 9.18112 2.19944 9.29779 2.27444 9.38112C2.35778 9.46446 2.47444 9.48946 2.58278 9.45613L3.74111 9.11446L4.89944 9.45613C4.92444 9.46446 4.95778 9.46446 4.99111 9.46446C5.07444 9.46446 5.14944 9.43113 5.21611 9.37279C5.29944 9.28946 5.32444 9.17279 5.29111 9.06446L4.95778 7.91448Z" fill="white"/>
<path d="M17.4581 12.0833L17.7998 10.925C17.8331 10.8166 17.7998 10.7 17.7248 10.6166C17.6414 10.5333 17.5248 10.5083 17.4164 10.5416L16.2581 10.8833L15.0998 10.5416C14.9914 10.5083 14.8748 10.5416 14.7914 10.6166C14.7081 10.7 14.6831 10.8166 14.7164 10.925L15.0581 12.0833L14.7164 13.2416C14.6831 13.35 14.7164 13.4666 14.7914 13.55C14.8748 13.6333 14.9914 13.6583 15.0998 13.625L16.2581 13.2833L17.4164 13.625C17.4414 13.6333 17.4748 13.6333 17.5081 13.6333C17.5914 13.6333 17.6664 13.6 17.7331 13.5416C17.8164 13.4583 17.8414 13.3416 17.8081 13.2333L17.4581 12.0833Z" fill="white"/>
</svg>
