<svg width="20" height="20" viewBox="0 0 20 20" fill="none" xmlns="http://www.w3.org/2000/svg">
<path d="M14.4083 3.45134L14.3499 6.60967C14.3416 7.04301 14.6166 7.61801 14.9666 7.87634L17.0333 9.44297C18.3583 10.443 18.1416 11.668 16.5583 12.168L13.8666 13.0096C13.4166 13.1513 12.9416 13.643 12.8249 14.1013L12.1833 16.5513C11.6749 18.4846 10.4083 18.6763 9.35826 16.9763L7.89157 14.6013C7.6249 14.168 6.99157 13.843 6.49157 13.868L3.70823 14.0096C1.71657 14.1096 1.1499 12.9596 2.4499 11.443L4.0999 9.52631C4.40823 9.16797 4.5499 8.50131 4.40823 8.05134L3.55823 5.35134C3.06657 3.76801 3.9499 2.89301 5.5249 3.40967L7.98323 4.21801C8.39993 4.35134 9.02493 4.25967 9.37493 4.00134L11.9416 2.15134C13.3333 1.15967 14.4416 1.74301 14.4083 3.45134Z" fill="white"/>
<path d="M17.8669 17.0578L15.3419 14.5328C15.1003 14.2911 14.7003 14.2911 14.4586 14.5328C14.2169 14.7745 14.2169 15.1745 14.4586 15.4161L16.9836 17.9411C17.1086 18.0661 17.2669 18.1245 17.4253 18.1245C17.5836 18.1245 17.7419 18.0661 17.8669 17.9411C18.1086 17.6995 18.1086 17.2995 17.8669 17.0578Z" fill="white"/>
</svg>
