<svg width="20" height="20" viewBox="0 0 20 20" fill="none" xmlns="http://www.w3.org/2000/svg">
<path d="M13.7585 4.1763L12.1252 2.54297C10.9585 1.3763 9.04182 1.3763 7.87513 2.54297L6.2418 4.1763C5.9168 4.5013 5.9168 5.03464 6.2418 5.35964L9.41682 8.53464C9.74182 8.85964 10.2668 8.85964 10.5918 8.53464L13.7668 5.35964C14.0835 5.03464 14.0835 4.5013 13.7585 4.1763Z" fill="white"/>
<path d="M4.17533 6.23984L2.54199 7.87318C1.37533 9.03987 1.37533 10.9565 2.54199 12.1232L4.17533 13.7565C4.50033 14.0815 5.02533 14.0815 5.35033 13.7565L8.52533 10.5815C8.85033 10.2565 8.85033 9.73154 8.52533 9.40654L5.35866 6.23984C5.03366 5.91484 4.50033 5.91484 4.17533 6.23984Z" fill="white"/>
<path d="M17.4585 7.87318L15.8252 6.23984C15.5002 5.91484 14.9752 5.91484 14.6502 6.23984L11.4752 9.41487C11.1502 9.73987 11.1502 10.2649 11.4752 10.5899L14.6502 13.7649C14.9752 14.0899 15.5002 14.0899 15.8252 13.7649L17.4585 12.1315C18.6252 10.9565 18.6252 9.03987 17.4585 7.87318Z" fill="white"/>
<path d="M6.24187 15.8242L7.87521 17.4576C9.04191 18.6242 10.9586 18.6242 12.1252 17.4576L13.7586 15.8242C14.0836 15.4992 14.0836 14.9742 13.7586 14.6492L10.5836 11.4742C10.2586 11.1492 9.73358 11.1492 9.40858 11.4742L6.23354 14.6492C5.91687 14.9659 5.91687 15.4992 6.24187 15.8242Z" fill="white"/>
</svg>
