<svg width="20" height="20" viewBox="0 0 20 20" fill="none" xmlns="http://www.w3.org/2000/svg">
<path d="M10.0003 1.66797C5.40033 1.66797 1.66699 5.4013 1.66699 10.0013C1.66699 14.6013 5.40033 18.3346 10.0003 18.3346C14.6003 18.3346 18.3337 14.6013 18.3337 10.0013C18.3337 5.4013 14.6003 1.66797 10.0003 1.66797ZM9.58366 12.0846C9.58366 12.4263 9.30033 12.7096 8.95866 12.7096C8.61699 12.7096 8.33366 12.4263 8.33366 12.0846V10.3513L6.10868 9.01797V12.0846C6.10868 12.4263 5.82534 12.7096 5.48368 12.7096C5.14201 12.7096 4.85868 12.4263 4.85868 12.0846V7.91797C4.85868 7.69297 4.98368 7.48464 5.17534 7.3763C5.36701 7.26797 5.60868 7.26797 5.80034 7.38463L9.27533 9.46797C9.46699 9.58463 9.57533 9.78464 9.57533 10.0013V12.0846H9.58366ZM15.142 12.0846C15.142 12.4263 14.8587 12.7096 14.517 12.7096C14.1753 12.7096 13.892 12.4263 13.892 12.0846V9.01797L11.667 10.3513V12.0846C11.667 12.4263 11.3837 12.7096 11.042 12.7096C10.7003 12.7096 10.417 12.4263 10.417 12.0846V10.0013C10.417 9.78464 10.5337 9.5763 10.717 9.46797L14.192 7.38463C14.3837 7.26797 14.6253 7.26797 14.817 7.3763C15.017 7.48464 15.1337 7.69297 15.1337 7.91797V12.0846H15.142Z" fill="white"/>
</svg>
