<svg width="20" height="20" viewBox="0 0 20 20" fill="none" xmlns="http://www.w3.org/2000/svg">
<path d="M18.4913 1.84036C18.433 1.69036 18.308 1.56536 18.158 1.50703C18.0747 1.4737 17.9997 1.45703 17.9163 1.45703H12.4997C12.158 1.45703 11.8747 1.74036 11.8747 2.08203C11.8747 2.4237 12.158 2.70703 12.4997 2.70703H16.408L12.6497 6.4737H12.6413C11.5247 5.5487 10.0997 4.9987 8.54134 4.9987C4.97467 4.9987 2.08301 7.89036 2.08301 11.457C2.08301 15.0237 4.97467 17.9154 8.54134 17.9154C12.108 17.9154 14.9997 15.0237 14.9997 11.457C14.9997 9.8987 14.4497 8.4737 13.5247 7.35703L17.2913 3.59036V7.4987C17.2913 7.84036 17.5747 8.1237 17.9163 8.1237C18.258 8.1237 18.5413 7.84036 18.5413 7.4987V2.08203C18.5413 1.9987 18.5247 1.9237 18.4913 1.84036Z" fill="white"/>
</svg>
