<svg width="20" height="20" viewBox="0 0 20 20" fill="none" xmlns="http://www.w3.org/2000/svg">
<path d="M6.3582 2.97472C6.50769 2.89318 6.66654 3.01862 6.66654 3.1889V14.4854C6.66654 14.6715 6.53952 14.8288 6.37504 14.9156C6.36939 14.9186 6.36378 14.9216 6.3582 14.9247L4.39987 16.0414C3.0332 16.8247 1.9082 16.1747 1.9082 14.5914V6.48305C1.9082 5.95805 2.2832 5.30805 2.74987 5.04139L6.3582 2.97472Z" fill="white"/>
<path d="M12.2682 5.08684C12.4102 5.15714 12.5 5.30184 12.5 5.46023V16.4212C12.5 16.7283 12.1792 16.9298 11.9025 16.7966L8.36083 15.0903C8.21665 15.0208 8.125 14.8748 8.125 14.7148V3.70626C8.125 3.39721 8.44967 3.19572 8.72658 3.33288L12.2682 5.08684Z" fill="white"/>
<path d="M18.333 5.40708V13.5155C18.333 14.0405 17.958 14.6905 17.4913 14.9571L14.5818 16.6245C14.3041 16.7838 13.958 16.5832 13.958 16.263V5.27402C13.958 5.12443 14.0382 4.98631 14.1681 4.91216L15.8413 3.95709C17.208 3.17375 18.333 3.82375 18.333 5.40708Z" fill="white"/>
</svg>
