<svg width="20" height="20" viewBox="0 0 20 20" fill="none" xmlns="http://www.w3.org/2000/svg">
<path d="M13.5338 7.93507L17.4588 11.86C17.6921 12.0934 18.1005 11.9684 18.1671 11.6434C18.2755 11.11 18.3338 10.56 18.3338 10.0017C18.3338 8.0934 17.6838 6.33507 16.6088 4.93507C16.4588 4.73507 16.1588 4.72674 15.9838 4.90174L13.5338 7.35174C13.3755 7.51007 13.3755 7.77674 13.5338 7.93507Z" fill="white"/>
<path d="M12.0668 8.81797L10.5918 10.293C10.4251 10.4596 10.4251 10.718 10.5918 10.8846L15.4418 15.7346C15.6085 15.9013 15.8751 15.9013 16.0335 15.7346C16.5501 15.193 16.9918 14.5846 17.3501 13.9263C17.4335 13.768 17.4001 13.5596 17.2751 13.4346L12.6585 8.81797C12.4918 8.65964 12.2251 8.65964 12.0668 8.81797Z" fill="white"/>
<path d="M9.11708 11.7683L7.65039 13.2349C7.48372 13.4016 7.48372 13.6599 7.65039 13.8266L11.7504 17.9349C11.8587 18.0432 12.0171 18.0849 12.1587 18.0432C12.9337 17.8349 13.6671 17.5182 14.3337 17.1016C14.5587 16.9599 14.5921 16.6432 14.4004 16.4516L9.70875 11.7599C9.54208 11.6099 9.27542 11.6099 9.11708 11.7683Z" fill="white"/>
<path d="M15.0661 3.39204C13.4161 2.11704 11.2744 1.45037 8.97442 1.72537C5.21607 2.17538 2.1744 5.22538 1.7244 8.9754C1.4494 11.2754 2.11607 13.4087 3.39107 15.0671C3.54107 15.2671 3.84107 15.2754 4.01607 15.1004L15.0994 4.01704C15.2744 3.84204 15.2661 3.54204 15.0661 3.39204Z" fill="white"/>
<path d="M6.16645 14.7227L4.89978 15.9893C4.72478 16.1643 4.73312 16.4643 4.93312 16.6143C6.19145 17.5893 7.73312 18.206 9.42475 18.3227C9.78308 18.3477 9.95808 17.9227 9.69975 17.6643L6.75812 14.7227C6.59978 14.556 6.33312 14.556 6.16645 14.7227Z" fill="white"/>
</svg>
