<svg width="20" height="20" viewBox="0 0 20 20" fill="none" xmlns="http://www.w3.org/2000/svg">
<path d="M10.0003 1.66797C5.40033 1.66797 1.66699 5.4013 1.66699 10.0013C1.66699 14.6013 5.40033 18.3346 10.0003 18.3346C14.6003 18.3346 18.3337 14.6013 18.3337 10.0013C18.3337 5.4013 14.6003 1.66797 10.0003 1.66797ZM10.0003 14.168C7.70033 14.168 5.83366 12.3013 5.83366 10.0013C5.83366 7.7013 7.70033 5.83464 10.0003 5.83464C12.3003 5.83464 14.167 7.7013 14.167 10.0013C14.167 12.3013 12.3003 14.168 10.0003 14.168Z" fill="white"/>
<path d="M9.99967 5.83203V14.1654C7.69967 14.1654 5.83301 12.2987 5.83301 9.9987C5.83301 7.6987 7.69967 5.83203 9.99967 5.83203Z" fill="white"/>
</svg>
