<svg width="20" height="20" viewBox="0 0 20 20" fill="none" xmlns="http://www.w3.org/2000/svg">
<path d="M15.5414 3.82474C14.0748 2.49141 12.1331 1.69141 9.99976 1.69141C5.41641 1.69141 1.69141 5.41641 1.69141 9.99974C1.69141 14.5831 5.41641 18.3081 9.99976 18.3081C12.1331 18.3081 14.0748 17.5081 15.5414 16.1747C17.2414 14.6664 18.3081 12.4497 18.3081 9.99974C18.3081 7.54974 17.2414 5.33307 15.5414 3.82474ZM9.97476 13.6581C9.9581 15.0331 8.9331 15.3664 7.97474 14.9831C5.99974 14.1914 4.60807 12.2581 4.60807 9.99974C4.60807 7.74141 5.99974 5.80807 7.97474 5.00807C8.9331 4.62474 9.9581 4.96641 9.97476 6.33307V13.6581Z" fill="white"/>
</svg>
