<svg width="20" height="20" viewBox="0 0 20 20" fill="none" xmlns="http://www.w3.org/2000/svg">
<path d="M13.492 1.66797H6.50866C3.47533 1.66797 1.66699 3.4763 1.66699 6.50964V13.4846C1.66699 16.5263 3.47533 18.3346 6.50866 18.3346H13.4837C16.517 18.3346 18.3253 16.5263 18.3253 13.493V6.50964C18.3337 3.4763 16.5253 1.66797 13.492 1.66797ZM9.19199 14.718C9.43366 14.9596 9.43366 15.3596 9.19199 15.6013C9.06699 15.7263 8.90866 15.7846 8.75033 15.7846C8.59199 15.7846 8.43366 15.7263 8.30866 15.6013L6.87533 14.168L5.44199 15.6013C5.31699 15.718 5.15866 15.7846 5.00033 15.7846C4.84199 15.7846 4.68366 15.7263 4.55866 15.6013C4.31699 15.3596 4.31699 14.9596 4.55866 14.718L5.99199 13.2846L4.55866 11.8513C4.31699 11.6096 4.31699 11.2096 4.55866 10.968C4.80033 10.7263 5.20033 10.7263 5.44199 10.968L6.87533 12.4013L8.30866 10.968C8.55033 10.7263 8.95033 10.7263 9.19199 10.968C9.43366 11.2096 9.43366 11.6096 9.19199 11.8513L7.75866 13.2846L9.19199 14.718ZM8.75033 7.34297H5.00033C4.65866 7.34297 4.37533 7.05964 4.37533 6.71797C4.37533 6.3763 4.65866 6.09297 5.00033 6.09297H8.75033C9.09199 6.09297 9.37533 6.3763 9.37533 6.71797C9.37533 7.05964 9.09199 7.34297 8.75033 7.34297ZM15.0003 15.468H11.2503C10.9087 15.468 10.6253 15.1846 10.6253 14.843C10.6253 14.5013 10.9087 14.218 11.2503 14.218H15.0003C15.342 14.218 15.6253 14.5013 15.6253 14.843C15.6253 15.1846 15.342 15.468 15.0003 15.468ZM15.0003 12.343H11.2503C10.9087 12.343 10.6253 12.0596 10.6253 11.718C10.6253 11.3763 10.9087 11.093 11.2503 11.093H15.0003C15.342 11.093 15.6253 11.3763 15.6253 11.718C15.6253 12.0596 15.342 12.343 15.0003 12.343ZM15.0003 7.34297H13.767V8.59297C13.767 8.93464 13.4837 9.21797 13.142 9.21797C12.8003 9.21797 12.517 8.93464 12.517 8.59297V7.34297H11.2503C10.9087 7.34297 10.6253 7.05964 10.6253 6.71797C10.6253 6.3763 10.9087 6.09297 11.2503 6.09297H12.517V4.84297C12.517 4.5013 12.8003 4.21797 13.142 4.21797C13.4837 4.21797 13.767 4.5013 13.767 4.84297V6.09297H15.0003C15.342 6.09297 15.6253 6.3763 15.6253 6.71797C15.6253 7.05964 15.342 7.34297 15.0003 7.34297Z" fill="white"/>
</svg>
