<svg width="20" height="20" viewBox="0 0 20 20" fill="none" xmlns="http://www.w3.org/2000/svg">
<path d="M13.492 1.66797H6.50866C3.47533 1.66797 1.66699 3.4763 1.66699 6.50964V13.4846C1.66699 16.5263 3.47533 18.3346 6.50866 18.3346H13.4837C16.517 18.3346 18.3253 16.5263 18.3253 13.493V6.50964C18.3337 3.4763 16.5253 1.66797 13.492 1.66797ZM15.6253 11.668C15.6253 12.0096 15.342 12.293 15.0003 12.293C14.6587 12.293 14.3753 12.0096 14.3753 11.668V10.6263H10.6253V14.3763H11.667C12.0087 14.3763 12.292 14.6596 12.292 15.0013C12.292 15.343 12.0087 15.6263 11.667 15.6263H8.33366C7.99199 15.6263 7.70866 15.343 7.70866 15.0013C7.70866 14.6596 7.99199 14.3763 8.33366 14.3763H9.37533V10.6263H5.62533V11.668C5.62533 12.0096 5.34199 12.293 5.00033 12.293C4.65866 12.293 4.37533 12.0096 4.37533 11.668V8.33464C4.37533 7.99297 4.65866 7.70964 5.00033 7.70964C5.34199 7.70964 5.62533 7.99297 5.62533 8.33464V9.3763H9.37533V5.6263H8.33366C7.99199 5.6263 7.70866 5.34297 7.70866 5.0013C7.70866 4.65964 7.99199 4.3763 8.33366 4.3763H11.667C12.0087 4.3763 12.292 4.65964 12.292 5.0013C12.292 5.34297 12.0087 5.6263 11.667 5.6263H10.6253V9.3763H14.3753V8.33464C14.3753 7.99297 14.6587 7.70964 15.0003 7.70964C15.342 7.70964 15.6253 7.99297 15.6253 8.33464V11.668Z" fill="white"/>
</svg>
