<svg width="20" height="20" viewBox="0 0 20 20" fill="none" xmlns="http://www.w3.org/2000/svg">
<path d="M13.492 1.66797H6.50866C3.47533 1.66797 1.66699 3.4763 1.66699 6.50964V13.4846C1.66699 16.5263 3.47533 18.3346 6.50866 18.3346H13.4837C16.517 18.3346 18.3253 16.5263 18.3253 13.493V6.50964C18.3337 3.4763 16.5253 1.66797 13.492 1.66797ZM8.51699 17.5013H6.59199C4.33366 17.5013 2.50033 15.668 2.50033 13.4096V11.4846C2.50033 11.143 2.78366 10.8596 3.12533 10.8596C3.46699 10.8596 3.75033 11.143 3.75033 11.4846V13.4096C3.75033 14.9763 5.02533 16.2513 6.59199 16.2513H8.51699C8.85866 16.2513 9.14199 16.5346 9.14199 16.8763C9.14199 17.218 8.86699 17.5013 8.51699 17.5013ZM8.51699 3.7513H6.59199C5.02533 3.7513 3.75033 5.0263 3.75033 6.59297V8.51797C3.75033 8.85964 3.46699 9.14297 3.12533 9.14297C2.78366 9.14297 2.50033 8.86797 2.50033 8.51797V6.59297C2.50033 4.33464 4.33366 2.5013 6.59199 2.5013H8.51699C8.85866 2.5013 9.14199 2.78464 9.14199 3.1263C9.14199 3.46797 8.86699 3.7513 8.51699 3.7513ZM17.5003 13.4096C17.5003 15.668 15.667 17.5013 13.4087 17.5013H12.2503C11.9087 17.5013 11.6253 17.218 11.6253 16.8763C11.6253 16.5346 11.9087 16.2513 12.2503 16.2513H13.4087C14.9753 16.2513 16.2503 14.9763 16.2503 13.4096V12.2513C16.2503 11.9096 16.5337 11.6263 16.8753 11.6263C17.217 11.6263 17.5003 11.9096 17.5003 12.2513V13.4096ZM17.5003 8.51797C17.5003 8.85964 17.217 9.14297 16.8753 9.14297C16.5337 9.14297 16.2503 8.85964 16.2503 8.51797V6.59297C16.2503 5.0263 14.9753 3.7513 13.4087 3.7513H11.4837C11.142 3.7513 10.8587 3.46797 10.8587 3.1263C10.8587 2.78464 11.1337 2.5013 11.4837 2.5013H13.4087C15.667 2.5013 17.5003 4.33464 17.5003 6.59297V8.51797Z" fill="white"/>
</svg>
