<svg width="20" height="20" viewBox="0 0 20 20" fill="none" xmlns="http://www.w3.org/2000/svg">
<path d="M9.16699 13.457V15.707C9.16699 17.582 8.41699 18.332 6.54199 18.332H4.29199C2.41699 18.332 1.66699 17.582 1.66699 15.707V13.457C1.66699 11.582 2.41699 10.832 4.29199 10.832H6.54199C8.41699 10.832 9.16699 11.582 9.16699 13.457Z" fill="white"/>
<path d="M13.7333 1.66797H7.1C4.55833 1.66797 2.5 3.7263 2.5 6.26797V8.7513C2.5 9.20964 2.875 9.58464 3.33333 9.58464H7.08333C8.925 9.58464 10.4167 11.0763 10.4167 12.918V16.668C10.4167 17.1263 10.7917 17.5013 11.25 17.5013H13.7333C16.6083 17.5013 18.3333 15.7846 18.3333 12.9013V6.26797C18.3333 3.7263 16.275 1.66797 13.7333 1.66797ZM15.6333 8.3263C15.6333 8.66797 15.35 8.9513 15.0083 8.9513C14.6667 8.9513 14.3833 8.66797 14.3833 8.3263V6.49297L11.275 9.60964C11.15 9.73464 10.9917 9.79297 10.8333 9.79297C10.675 9.79297 10.5167 9.73464 10.3917 9.60964C10.15 9.36797 10.15 8.96797 10.3917 8.7263L13.5 5.6013H11.6667C11.3167 5.6013 11.0417 5.3263 11.0417 4.9763C11.0417 4.63464 11.3167 4.3513 11.6667 4.3513H15.0083C15.0833 4.3513 15.1583 4.3763 15.225 4.4013C15.25 4.40964 15.2667 4.41797 15.2833 4.4263C15.3333 4.4513 15.375 4.4763 15.4167 4.51797C15.4333 4.5263 15.45 4.54297 15.4667 4.55964C15.5083 4.60964 15.5417 4.65964 15.575 4.71797C15.575 4.7263 15.5833 4.73464 15.5833 4.74297C15.6167 4.80964 15.625 4.88464 15.625 4.95964C15.6333 4.96797 15.6333 4.96797 15.6333 4.9763V8.3263Z" fill="white"/>
</svg>
