<svg width="20" height="20" viewBox="0 0 20 20" fill="none" xmlns="http://www.w3.org/2000/svg">
<path d="M17.4587 3.44297C17.217 3.09297 16.9087 2.78464 16.5587 2.54297C15.767 1.96797 14.7337 1.66797 13.492 1.66797H6.50866C6.34199 1.66797 6.17533 1.6763 6.01699 1.69297C3.28366 1.86797 1.66699 3.64297 1.66699 6.50964V13.493C1.66699 14.7346 1.96699 15.768 2.54199 16.5596C2.78366 16.9096 3.09199 17.218 3.44199 17.4596C4.12533 17.9596 4.99199 18.2513 6.01699 18.318C6.17533 18.3263 6.34199 18.3346 6.50866 18.3346H13.492C16.5253 18.3346 18.3337 16.5263 18.3337 13.493V6.50964C18.3337 5.26797 18.0337 4.23464 17.4587 3.44297ZM15.6253 8.33464C15.6253 8.6763 15.342 8.95964 15.0003 8.95964C14.6587 8.95964 14.3753 8.6763 14.3753 8.33464V6.50964L10.8837 10.0013L14.3753 13.493V11.668C14.3753 11.3263 14.6587 11.043 15.0003 11.043C15.342 11.043 15.6253 11.3263 15.6253 11.668V15.0013C15.6253 15.0846 15.6087 15.1596 15.5753 15.243C15.5087 15.393 15.392 15.518 15.2337 15.5846C15.1587 15.618 15.0753 15.6346 14.992 15.6346H11.6587C11.317 15.6346 11.0337 15.3513 11.0337 15.0096C11.0337 14.668 11.317 14.3846 11.6587 14.3846H13.4837L10.0003 10.8846L6.50866 14.3763H8.33366C8.67533 14.3763 8.95866 14.6596 8.95866 15.0013C8.95866 15.343 8.67533 15.6263 8.33366 15.6263H5.00033C4.91699 15.6263 4.83366 15.6096 4.75866 15.5763C4.60866 15.5096 4.48366 15.393 4.41699 15.2346C4.39199 15.1596 4.37533 15.0846 4.37533 15.0013V11.668C4.37533 11.3263 4.65866 11.043 5.00033 11.043C5.34199 11.043 5.62533 11.3263 5.62533 11.668V13.493L9.11699 10.0013L5.62533 6.50964V8.33464C5.62533 8.6763 5.34199 8.95964 5.00033 8.95964C4.65866 8.95964 4.37533 8.6763 4.37533 8.33464V5.0013C4.37533 4.91797 4.39199 4.84297 4.42533 4.75964C4.49199 4.60964 4.60866 4.48464 4.76699 4.41797C4.84199 4.39297 4.91699 4.3763 5.00033 4.3763H8.33366C8.67533 4.3763 8.95866 4.65964 8.95866 5.0013C8.95866 5.34297 8.67533 5.6263 8.33366 5.6263H6.50866L10.0003 9.11797L13.492 5.6263H11.667C11.3253 5.6263 11.042 5.34297 11.042 5.0013C11.042 4.65964 11.3253 4.3763 11.667 4.3763H15.0003C15.0837 4.3763 15.1587 4.39297 15.242 4.4263C15.392 4.49297 15.517 4.60964 15.5837 4.76797C15.6087 4.84297 15.6253 4.91797 15.6253 5.0013V8.33464Z" fill="white"/>
</svg>
