<svg width="20" height="20" viewBox="0 0 20 20" fill="none" xmlns="http://www.w3.org/2000/svg">
<path d="M13.492 1.66797H6.50866C3.47533 1.66797 1.66699 3.4763 1.66699 6.50964V13.4846C1.66699 16.5263 3.47533 18.3346 6.50866 18.3346H13.4837C16.517 18.3346 18.3253 16.5263 18.3253 13.493V6.50964C18.3337 3.4763 16.5253 1.66797 13.492 1.66797ZM9.60866 11.2763L6.50866 14.3763H8.33366C8.67533 14.3763 8.95866 14.6596 8.95866 15.0013C8.95866 15.343 8.67533 15.6263 8.33366 15.6263H5.00033C4.91699 15.6263 4.83366 15.6096 4.75866 15.5763C4.60866 15.5096 4.48366 15.393 4.41699 15.2346C4.39199 15.1596 4.37533 15.0846 4.37533 15.0013V11.668C4.37533 11.3263 4.65866 11.043 5.00033 11.043C5.34199 11.043 5.62533 11.3263 5.62533 11.668V13.493L8.72533 10.393C8.96699 10.1513 9.36699 10.1513 9.60866 10.393C9.85033 10.6346 9.85033 11.0346 9.60866 11.2763ZM15.6253 8.33464C15.6253 8.6763 15.342 8.95964 15.0003 8.95964C14.6587 8.95964 14.3753 8.6763 14.3753 8.33464V6.50964L11.2753 9.60964C11.1503 9.73464 10.992 9.79297 10.8337 9.79297C10.6753 9.79297 10.517 9.73464 10.392 9.60964C10.1503 9.36797 10.1503 8.96797 10.392 8.7263L13.492 5.6263H11.667C11.3253 5.6263 11.042 5.34297 11.042 5.0013C11.042 4.65964 11.3253 4.3763 11.667 4.3763H15.0003C15.0837 4.3763 15.1587 4.39297 15.242 4.4263C15.392 4.49297 15.517 4.60964 15.5837 4.76797C15.6087 4.84297 15.6253 4.91797 15.6253 5.0013V8.33464Z" fill="white"/>
</svg>
