<svg width="20" height="20" viewBox="0 0 20 20" fill="none" xmlns="http://www.w3.org/2000/svg">
<path d="M18.0749 2.25833C18.0082 2.10833 17.8915 1.98333 17.7332 1.91667C17.6582 1.89167 17.5832 1.875 17.4999 1.875H14.1665C13.8249 1.875 13.5415 2.15833 13.5415 2.5C13.5415 2.84167 13.8249 3.125 14.1665 3.125H15.9915L12.0582 7.05833C11.8165 7.3 11.8165 7.7 12.0582 7.94167C12.1832 8.06667 12.3415 8.125 12.4999 8.125C12.6582 8.125 12.8165 8.06667 12.9415 7.94167L16.8749 4.00833V5.83333C16.8749 6.175 17.1582 6.45833 17.4999 6.45833C17.8415 6.45833 18.1249 6.175 18.1249 5.83333V2.5C18.1249 2.41667 18.1082 2.34167 18.0749 2.25833Z" fill="white"/>
<path d="M7.05833 12.0562L3.125 15.9896V14.1646C3.125 13.8229 2.84167 13.5396 2.5 13.5396C2.15833 13.5396 1.875 13.8229 1.875 14.1646V17.4979C1.875 17.5813 1.89167 17.6562 1.925 17.7396C1.99167 17.8896 2.10833 18.0146 2.26667 18.0812C2.33333 18.1062 2.41667 18.1229 2.5 18.1229H5.83333C6.175 18.1229 6.45833 17.8396 6.45833 17.4979C6.45833 17.1563 6.175 16.8729 5.83333 16.8729H4.00833L7.94167 12.9396C8.18333 12.6979 8.18333 12.2979 7.94167 12.0562C7.7 11.8146 7.3 11.8146 7.05833 12.0562Z" fill="white"/>
<path d="M1.83366 12.293C1.54199 12.293 1.28366 12.0846 1.22533 11.793C1.10866 11.2096 1.04199 10.6013 1.04199 10.0013C1.04199 5.05964 5.05866 1.04297 10.0003 1.04297C10.6087 1.04297 11.217 1.1013 11.8087 1.2263C12.1503 1.29297 12.367 1.6263 12.3003 1.95964C12.2337 2.3013 11.892 2.50964 11.567 2.4513C11.042 2.34297 10.5253 2.29297 10.0003 2.29297C5.75033 2.29297 2.29199 5.7513 2.29199 10.0013C2.29199 10.518 2.34199 11.043 2.45033 11.543C2.51699 11.8846 2.30033 12.2096 1.95866 12.2763C1.91699 12.293 1.87533 12.293 1.83366 12.293Z" fill="white"/>
<path d="M10.0005 18.9602C9.39215 18.9602 8.78382 18.9019 8.19218 18.7769C7.85051 18.7102 7.63385 18.3769 7.70051 18.0435C7.76718 17.7019 8.10885 17.4935 8.43382 17.5519C8.94215 17.6519 9.46715 17.7102 9.99215 17.7102C14.2422 17.7102 17.7005 14.2519 17.7005 10.0019C17.7005 9.48521 17.6505 8.96855 17.5505 8.46021C17.4838 8.11855 17.7005 7.79355 18.0422 7.72688C18.3838 7.66021 18.7088 7.87688 18.7755 8.21855C18.8922 8.80188 18.9505 9.40188 18.9505 10.0019C18.9588 14.9435 14.9422 18.9602 10.0005 18.9602Z" fill="white"/>
</svg>
