<svg width="20" height="20" viewBox="0 0 20 20" fill="none" xmlns="http://www.w3.org/2000/svg">
<path d="M10 12.5013C13.1066 12.5013 15.625 10.0762 15.625 7.08464C15.625 4.09309 13.1066 1.66797 10 1.66797C6.8934 1.66797 4.375 4.09309 4.375 7.08464C4.375 10.0762 6.8934 12.5013 10 12.5013Z" fill="white"/>
<path d="M13.1583 13.0063C13.4333 12.8646 13.75 13.0729 13.75 13.3813V17.4229C13.75 18.1729 13.225 18.5396 12.575 18.2313L10.3417 17.1729C10.15 17.0896 9.85 17.0896 9.65833 17.1729L7.425 18.2313C6.775 18.5313 6.25 18.1646 6.25 17.4146L6.26667 13.3813C6.26667 13.0729 6.59167 12.8729 6.85833 13.0063C7.8 13.4813 8.86667 13.7479 10 13.7479C11.1333 13.7479 12.2083 13.4813 13.1583 13.0063Z" fill="white"/>
</svg>
