<svg width="20" height="20" viewBox="0 0 20 20" fill="none" xmlns="http://www.w3.org/2000/svg">
<path d="M17.7085 15.3905L16.3335 15.7155C16.0252 15.7905 15.7835 16.0238 15.7169 16.3321L15.4252 17.5571C15.2669 18.2238 14.4169 18.4321 13.9752 17.9071L11.4835 15.0405C11.2835 14.8071 11.3919 14.4405 11.6919 14.3655C13.1669 14.0071 14.4919 13.1821 15.4669 12.0071C15.6252 11.8155 15.9085 11.7905 16.0835 11.9655L17.9335 13.8155C18.5669 14.4488 18.3419 15.2405 17.7085 15.3905Z" fill="white"/>
<path d="M2.24965 15.3905L3.62465 15.7155C3.93298 15.7905 4.17465 16.0238 4.24131 16.3321L4.53298 17.5571C4.69131 18.2238 5.54131 18.4321 5.98298 17.9071L8.47468 15.0405C8.67468 14.8071 8.56635 14.4405 8.26631 14.3655C6.79131 14.0071 5.46631 13.1821 4.49131 12.0071C4.33298 11.8155 4.04965 11.7905 3.87465 11.9655L2.02465 13.8155C1.39131 14.4488 1.61631 15.2405 2.24965 15.3905Z" fill="white"/>
<path d="M10.0003 1.66797C6.77533 1.66797 4.16699 4.2763 4.16699 7.5013C4.16699 8.70964 4.52533 9.81797 5.14199 10.743C6.04199 12.0763 7.46699 13.018 9.12533 13.2596C9.40866 13.3096 9.70033 13.3346 10.0003 13.3346C10.3003 13.3346 10.592 13.3096 10.8753 13.2596C12.5337 13.018 13.9587 12.0763 14.8587 10.743C15.4753 9.81797 15.8337 8.70964 15.8337 7.5013C15.8337 4.2763 13.2253 1.66797 10.0003 1.66797ZM12.5503 7.31797L11.8587 8.00964C11.742 8.1263 11.6753 8.3513 11.717 8.51797L11.917 9.3763C12.0753 10.0513 11.717 10.318 11.117 9.95964L10.2837 9.46797C10.1337 9.3763 9.88366 9.3763 9.73366 9.46797L8.90033 9.95964C8.30033 10.3096 7.94199 10.0513 8.10033 9.3763L8.30033 8.51797C8.33366 8.35964 8.27533 8.1263 8.15866 8.00964L7.45033 7.31797C7.04199 6.90964 7.17533 6.5013 7.74199 6.40964L8.63366 6.25964C8.78366 6.23464 8.95866 6.1013 9.02533 5.96797L9.51699 4.98464C9.78366 4.4513 10.217 4.4513 10.4837 4.98464L10.9753 5.96797C11.042 6.1013 11.217 6.23464 11.3753 6.25964L12.267 6.40964C12.8253 6.5013 12.9587 6.90964 12.5503 7.31797Z" fill="white"/>
</svg>
