<svg width="20" height="20" viewBox="0 0 20 20" fill="none" xmlns="http://www.w3.org/2000/svg">
<path d="M17.4164 8.20833L17.9081 16.45C17.9247 16.675 17.8164 16.825 17.7581 16.8917C17.6914 16.9667 17.5497 17.0833 17.3164 17.0833H15.0414L16.8414 8.20833H17.4164ZM18.3331 5L18.3247 5.01667C18.3414 5.21667 18.3247 5.425 18.2747 5.63333L12.1331 16.9083C11.9331 17.75 11.1831 18.3333 10.3164 18.3333H17.3164C18.3914 18.3333 19.2414 17.425 19.1581 16.35L18.3331 5Z" fill="white"/>
<path d="M9.54151 1.8678C9.62485 1.53447 9.41651 1.1928 9.08318 1.10947C8.74985 1.03447 8.40818 1.23447 8.32487 1.5678L7.9082 3.2928H9.19151L9.54151 1.8678Z" fill="white"/>
<path d="M15.0414 1.84244C15.1164 1.50078 14.8997 1.17578 14.5581 1.10078C14.2247 1.02578 13.8914 1.24244 13.8164 1.58411L13.4414 3.30911H14.7247L15.0414 1.84244Z" fill="white"/>
<path d="M18.1828 4.43958C17.9078 3.77292 17.2578 3.29792 16.4578 3.29792H14.7245L14.2578 5.45625C14.1912 5.74792 13.9328 5.94792 13.6495 5.94792C13.6078 5.94792 13.5578 5.94792 13.5162 5.93125C13.1828 5.85625 12.9662 5.52292 13.0328 5.18958L13.4412 3.28958H9.19118L8.66618 5.45625C8.59951 5.73958 8.34118 5.93125 8.0578 5.93125C8.0078 5.93125 7.9578 5.92292 7.9078 5.91458C7.57447 5.83125 7.36614 5.49792 7.44947 5.15625L7.89947 3.28125H6.2078C5.39114 3.28125 4.66614 3.81458 4.42447 4.59792L0.916135 15.8896C0.549472 17.098 1.44114 18.3313 2.69947 18.3313H13.6495C14.5162 18.3313 15.2662 17.748 15.4662 16.9063L18.2745 5.63125C18.3245 5.42292 18.3412 5.21458 18.3245 5.01458C18.3078 4.81458 18.2662 4.61458 18.1828 4.43958ZM12.2495 13.9563H5.5828C5.24114 13.9563 4.9578 13.673 4.9578 13.3313C4.9578 12.9896 5.24114 12.7063 5.5828 12.7063H12.2495C12.5912 12.7063 12.8745 12.9896 12.8745 13.3313C12.8745 13.673 12.5912 13.9563 12.2495 13.9563ZM13.0828 10.623H6.41614C6.07447 10.623 5.79114 10.3396 5.79114 9.99796C5.79114 9.65629 6.07447 9.37296 6.41614 9.37296H13.0828C13.4245 9.37296 13.7078 9.65629 13.7078 9.99796C13.7078 10.3396 13.4245 10.623 13.0828 10.623Z" fill="white"/>
</svg>
