<svg width="20" height="20" viewBox="0 0 20 20" fill="none" xmlns="http://www.w3.org/2000/svg">
<path d="M14.6171 7.3435C15.9793 7.3435 17.0837 6.23913 17.0837 4.87682C17.0837 3.51452 15.9793 2.41016 14.6171 2.41016C13.2547 2.41016 12.1504 3.51452 12.1504 4.87682C12.1504 6.23913 13.2547 7.3435 14.6171 7.3435Z" fill="white"/>
<path d="M5.38366 7.3435C6.74596 7.3435 7.85033 6.23913 7.85033 4.87682C7.85033 3.51452 6.74596 2.41016 5.38366 2.41016C4.02136 2.41016 2.91699 3.51452 2.91699 4.87682C2.91699 6.23913 4.02136 7.3435 5.38366 7.3435Z" fill="white"/>
<path d="M14.6171 17.5896C15.9793 17.5896 17.0837 16.4852 17.0837 15.1229C17.0837 13.7606 15.9793 12.6562 14.6171 12.6562C13.2547 12.6562 12.1504 13.7606 12.1504 15.1229C12.1504 16.4852 13.2547 17.5896 14.6171 17.5896Z" fill="white"/>
<path d="M5.38366 17.5896C6.74596 17.5896 7.85033 16.4852 7.85033 15.1229C7.85033 13.7606 6.74596 12.6562 5.38366 12.6562C4.02136 12.6562 2.91699 13.7606 2.91699 15.1229C2.91699 16.4852 4.02136 17.5896 5.38366 17.5896Z" fill="white"/>
</svg>
