<svg width="20" height="20" viewBox="0 0 20 20" fill="none" xmlns="http://www.w3.org/2000/svg">
<path d="M13.492 1.66797H6.50866C3.47533 1.66797 1.66699 3.4763 1.66699 6.50964V13.4846C1.66699 16.5263 3.47533 18.3346 6.50866 18.3346H13.4837C16.517 18.3346 18.3253 16.5263 18.3253 13.493V6.50964C18.3337 3.4763 16.5253 1.66797 13.492 1.66797ZM14.167 14.3763H5.83366C5.49199 14.3763 5.20866 14.093 5.20866 13.7513C5.20866 13.4096 5.49199 13.1263 5.83366 13.1263H14.167C14.5087 13.1263 14.792 13.4096 14.792 13.7513C14.792 14.093 14.5087 14.3763 14.167 14.3763ZM14.167 10.6263H5.83366C5.49199 10.6263 5.20866 10.343 5.20866 10.0013C5.20866 9.65964 5.49199 9.3763 5.83366 9.3763H14.167C14.5087 9.3763 14.792 9.65964 14.792 10.0013C14.792 10.343 14.5087 10.6263 14.167 10.6263ZM14.167 6.8763H5.83366C5.49199 6.8763 5.20866 6.59297 5.20866 6.2513C5.20866 5.90964 5.49199 5.6263 5.83366 5.6263H14.167C14.5087 5.6263 14.792 5.90964 14.792 6.2513C14.792 6.59297 14.5087 6.8763 14.167 6.8763Z" fill="white"/>
</svg>
