<svg width="20" height="20" viewBox="0 0 20 20" fill="none" xmlns="http://www.w3.org/2000/svg">
<path d="M17.4747 0.832031H15.0247C13.9663 0.832031 13.333 1.46536 13.333 2.5237V4.9737C13.333 6.03203 13.9663 6.66536 15.0247 6.66536H17.4747C18.533 6.66536 19.1663 6.03203 19.1663 4.9737V2.5237C19.1663 1.46536 18.533 0.832031 17.4747 0.832031ZM18.008 3.8987C17.6997 4.88203 16.6247 5.41536 16.2497 5.41536C15.8747 5.41536 14.808 4.8987 14.4913 3.8987C14.4413 3.7487 14.4163 3.58203 14.4163 3.4237C14.4163 2.88203 14.6913 2.3237 15.2663 2.14036C15.608 2.03203 15.9747 2.09036 16.233 2.30703C16.4997 2.0987 16.8663 2.03203 17.2163 2.14036C17.983 2.38203 18.2247 3.24036 18.008 3.8987Z" fill="white"/>
<path d="M15.0253 7.91797C13.4003 7.91797 12.0837 6.6013 12.0837 4.9763V2.5013C12.0837 2.04297 11.7087 1.66797 11.2503 1.66797H5.83366C3.53366 1.66797 1.66699 3.5263 1.66699 5.81797V11.6263C1.66699 13.9263 3.53366 15.793 5.83366 15.793H7.08366C7.31699 15.793 7.61699 15.943 7.75033 16.1263L9.00033 17.7846C9.55033 18.518 10.4503 18.518 11.0003 17.7846L12.2503 16.1263C12.4087 15.918 12.6587 15.793 12.917 15.793H14.1753C16.4753 15.793 18.3337 13.9346 18.3337 11.6346V8.7513C18.3337 8.29297 17.9587 7.91797 17.5003 7.91797H15.0253ZM6.66699 10.0013C6.20033 10.0013 5.83366 9.6263 5.83366 9.16797C5.83366 8.70964 6.20033 8.33464 6.66699 8.33464C7.12533 8.33464 7.50033 8.70964 7.50033 9.16797C7.50033 9.6263 7.13366 10.0013 6.66699 10.0013ZM10.0003 10.0013C9.53366 10.0013 9.16699 9.6263 9.16699 9.16797C9.16699 8.70964 9.53366 8.33464 10.0003 8.33464C10.4587 8.33464 10.8337 8.70964 10.8337 9.16797C10.8337 9.6263 10.467 10.0013 10.0003 10.0013Z" fill="white"/>
</svg>
