<svg width="20" height="20" viewBox="0 0 20 20" fill="none" xmlns="http://www.w3.org/2000/svg">
<path d="M4.16634 11.25C3.38301 11.25 2.65801 11.525 2.08301 11.9833C1.31634 12.5917 0.833008 13.5333 0.833008 14.5833C0.833008 16.425 2.32467 17.9167 4.16634 17.9167C5.00801 17.9167 5.77467 17.6 6.36634 17.0833C7.05801 16.475 7.49967 15.5833 7.49967 14.5833C7.49967 12.7417 6.00801 11.25 4.16634 11.25ZM4.99967 14.7917C4.99967 15.0083 4.88301 15.2167 4.69967 15.325L3.65801 15.95C3.55801 16.0167 3.44134 16.0417 3.33301 16.0417C3.12467 16.0417 2.91634 15.9333 2.79967 15.7417C2.62467 15.4417 2.71634 15.0583 3.01634 14.8833L3.75801 14.4417V13.5417C3.75801 13.2 4.04134 12.9167 4.38301 12.9167C4.72467 12.9167 4.99967 13.2 4.99967 13.5417V14.7917Z" fill="white"/>
<path d="M14.375 2.02344H6.45833C4.08333 2.02344 2.5 3.60677 2.5 5.98177V9.69845C2.5 9.99011 2.8 10.1984 3.08333 10.1234C3.43333 10.0401 3.79167 9.99845 4.16667 9.99845C6.55 9.99845 8.51667 11.9318 8.73333 14.2734C8.75 14.5068 8.94167 14.6901 9.16667 14.6901H9.625L13.15 17.0401C13.6667 17.3901 14.375 17.0068 14.375 16.3734V14.6901C15.5583 14.6901 16.55 14.2901 17.2417 13.6068C17.9333 12.9068 18.3333 11.9151 18.3333 10.7318V5.98177C18.3333 3.60677 16.75 2.02344 14.375 2.02344ZM13.1917 9.00678H7.64167C7.31667 9.00678 7.05 8.74011 7.05 8.41511C7.05 8.08177 7.31667 7.8151 7.64167 7.8151H13.1917C13.5167 7.8151 13.7833 8.08177 13.7833 8.41511C13.7833 8.74011 13.5167 9.00678 13.1917 9.00678Z" fill="white"/>
</svg>
