<svg width="20" height="20" viewBox="0 0 20 20" fill="none" xmlns="http://www.w3.org/2000/svg">
<path d="M14.167 2.02344H5.83366C3.33366 2.02344 1.66699 3.6901 1.66699 6.1901V11.1901C1.66699 13.6901 3.33366 15.3568 5.83366 15.3568V17.1318C5.83366 17.7984 6.57533 18.1984 7.12533 17.8234L10.8337 15.3568H14.167C16.667 15.3568 18.3337 13.6901 18.3337 11.1901V6.1901C18.3337 3.6901 16.667 2.02344 14.167 2.02344ZM10.0003 12.1651C9.65033 12.1651 9.37533 11.8818 9.37533 11.5401C9.37533 11.1984 9.65033 10.9151 10.0003 10.9151C10.3503 10.9151 10.6253 11.1984 10.6253 11.5401C10.6253 11.8818 10.3503 12.1651 10.0003 12.1651ZM11.0503 8.70678C10.7253 8.92345 10.6253 9.06511 10.6253 9.29845V9.47345C10.6253 9.81511 10.342 10.0984 10.0003 10.0984C9.65866 10.0984 9.37533 9.81511 9.37533 9.47345V9.29845C9.37533 8.33177 10.0837 7.85677 10.3503 7.67344C10.6587 7.4651 10.7587 7.32344 10.7587 7.10677C10.7587 6.6901 10.417 6.34844 10.0003 6.34844C9.58366 6.34844 9.24199 6.6901 9.24199 7.10677C9.24199 7.44844 8.95866 7.73177 8.61699 7.73177C8.27533 7.73177 7.99199 7.44844 7.99199 7.10677C7.99199 5.99844 8.89199 5.09844 10.0003 5.09844C11.1087 5.09844 12.0087 5.99844 12.0087 7.10677C12.0087 8.05677 11.3087 8.53178 11.0503 8.70678Z" fill="white"/>
</svg>
