<svg width="20" height="20" viewBox="0 0 20 20" fill="none" xmlns="http://www.w3.org/2000/svg">
<path d="M13.3337 1.66797H6.66699C3.33366 1.66797 1.66699 3.33464 1.66699 6.66797V17.5013C1.66699 17.9596 2.04199 18.3346 2.50033 18.3346H13.3337C16.667 18.3346 18.3337 16.668 18.3337 13.3346V6.66797C18.3337 3.33464 16.667 1.66797 13.3337 1.66797ZM9.25866 13.8846C9.05033 14.093 8.66699 14.2846 8.38366 14.3263L6.65033 14.568C6.58366 14.5763 6.51699 14.5846 6.45866 14.5846C6.16699 14.5846 5.90033 14.4846 5.70866 14.293C5.47533 14.0596 5.37533 13.718 5.43366 13.3513L5.67533 11.618C5.71699 11.3346 5.90866 10.943 6.11699 10.743L9.25866 7.6013C9.30866 7.7513 9.37533 7.9013 9.45033 8.06797C9.52533 8.21797 9.60033 8.36797 9.68366 8.50964C9.75033 8.6263 9.82533 8.74297 9.89199 8.8263C9.97533 8.9513 10.0587 9.05963 10.117 9.11797C10.1503 9.16797 10.1837 9.2013 10.192 9.21797C10.3753 9.4263 10.567 9.6263 10.7503 9.7763C10.8003 9.8263 10.8337 9.8513 10.842 9.85964C10.9503 9.94297 11.0503 10.0346 11.1503 10.093C11.2587 10.1763 11.3753 10.2513 11.492 10.318C11.6337 10.4013 11.7837 10.4846 11.942 10.5596C12.1003 10.6346 12.2503 10.693 12.4003 10.743L9.25866 13.8846ZM13.792 9.35963L13.142 10.0096C13.1003 10.0513 13.042 10.0763 12.9837 10.0763C12.967 10.0763 12.9337 10.0763 12.917 10.068C11.4837 9.65964 10.342 8.51797 9.93366 7.08464C9.90866 7.00964 9.93366 6.9263 9.99199 6.86797L10.6503 6.20964C11.7253 5.13464 12.742 5.15964 13.792 6.20964C14.3253 6.74297 14.592 7.25964 14.5837 7.79297C14.5837 8.31797 14.3253 8.8263 13.792 9.35963Z" fill="white"/>
</svg>
