<svg width="20" height="20" viewBox="0 0 20 20" fill="none" xmlns="http://www.w3.org/2000/svg">
<path d="M13.3337 1.66797H6.66699C3.33366 1.66797 1.66699 3.33464 1.66699 6.66797V17.5013C1.66699 17.9596 2.04199 18.3346 2.50033 18.3346H13.3337C16.667 18.3346 18.3337 16.668 18.3337 13.3346V6.66797C18.3337 3.33464 16.667 1.66797 13.3337 1.66797ZM11.667 12.7096H5.83366C5.49199 12.7096 5.20866 12.4263 5.20866 12.0846C5.20866 11.743 5.49199 11.4596 5.83366 11.4596H11.667C12.0087 11.4596 12.292 11.743 12.292 12.0846C12.292 12.4263 12.0087 12.7096 11.667 12.7096ZM14.167 8.54297H5.83366C5.49199 8.54297 5.20866 8.25964 5.20866 7.91797C5.20866 7.5763 5.49199 7.29297 5.83366 7.29297H14.167C14.5087 7.29297 14.792 7.5763 14.792 7.91797C14.792 8.25964 14.5087 8.54297 14.167 8.54297Z" fill="white"/>
</svg>
