<svg width="20" height="20" viewBox="0 0 20 20" fill="none" xmlns="http://www.w3.org/2000/svg">
<path d="M13.3337 1.64062H6.66699C3.33366 1.64062 1.66699 3.30729 1.66699 6.64062V10.8073C1.66699 14.974 3.33366 15.8073 6.66699 15.8073H7.08366C7.31699 15.8073 7.61699 15.9573 7.75033 16.1406L9.00033 17.8073C9.55033 18.5406 10.4503 18.5406 11.0003 17.8073L12.2503 16.1406C12.4087 15.9323 12.6587 15.8073 12.917 15.8073H13.3337C16.667 15.8073 18.3337 14.1406 18.3337 10.8073V6.64062C18.3337 3.30729 16.667 1.64062 13.3337 1.64062ZM7.10866 10.1406C7.35033 10.3823 7.35033 10.7823 7.10866 11.024C6.98366 11.149 6.82533 11.2073 6.66699 11.2073C6.50866 11.2073 6.35033 11.149 6.22533 11.024L4.55866 9.35729C4.31699 9.11562 4.31699 8.71562 4.55866 8.47396L6.22533 6.80729C6.46699 6.56562 6.86699 6.56562 7.10866 6.80729C7.35033 7.04896 7.35033 7.44896 7.10866 7.69062L5.88366 8.91562L7.10866 10.1406ZM11.4087 7.21562L9.74199 11.1073C9.64199 11.3406 9.40866 11.4823 9.16699 11.4823C9.08366 11.4823 9.00033 11.4656 8.91699 11.4323C8.60033 11.299 8.45033 10.9323 8.59199 10.6073L10.2587 6.71563C10.392 6.39896 10.7587 6.24896 11.0837 6.39062C11.4003 6.53229 11.542 6.89896 11.4087 7.21562ZM15.442 9.35729L13.7753 11.024C13.6503 11.149 13.492 11.2073 13.3337 11.2073C13.1753 11.2073 13.017 11.149 12.892 11.024C12.6503 10.7823 12.6503 10.3823 12.892 10.1406L14.117 8.91562L12.892 7.69062C12.6503 7.44896 12.6503 7.04896 12.892 6.80729C13.1337 6.56562 13.5337 6.56562 13.7753 6.80729L15.442 8.47396C15.6837 8.71562 15.6837 9.11562 15.442 9.35729Z" fill="white"/>
</svg>
