<svg width="20" height="20" viewBox="0 0 20 20" fill="none" xmlns="http://www.w3.org/2000/svg">
<path d="M14.167 1.66797H5.83366C3.53366 1.66797 1.66699 3.5263 1.66699 5.81797V10.8013V11.6346C1.66699 13.9263 3.53366 15.7846 5.83366 15.7846H7.08366C7.30866 15.7846 7.60866 15.9346 7.75033 16.118L9.00033 17.7763C9.55033 18.5096 10.4503 18.5096 11.0003 17.7763L12.2503 16.118C12.4087 15.9096 12.6587 15.7846 12.917 15.7846H14.167C16.467 15.7846 18.3337 13.9263 18.3337 11.6346V5.81797C18.3337 3.5263 16.467 1.66797 14.167 1.66797ZM6.66699 10.0013C6.20033 10.0013 5.83366 9.6263 5.83366 9.16797C5.83366 8.70964 6.20866 8.33464 6.66699 8.33464C7.12533 8.33464 7.50033 8.70964 7.50033 9.16797C7.50033 9.6263 7.13366 10.0013 6.66699 10.0013ZM10.0003 10.0013C9.53366 10.0013 9.16699 9.6263 9.16699 9.16797C9.16699 8.70964 9.54199 8.33464 10.0003 8.33464C10.4587 8.33464 10.8337 8.70964 10.8337 9.16797C10.8337 9.6263 10.467 10.0013 10.0003 10.0013ZM13.3337 10.0013C12.867 10.0013 12.5003 9.6263 12.5003 9.16797C12.5003 8.70964 12.8753 8.33464 13.3337 8.33464C13.792 8.33464 14.167 8.70964 14.167 9.16797C14.167 9.6263 13.8003 10.0013 13.3337 10.0013Z" fill="white"/>
</svg>
