<svg width="20" height="20" viewBox="0 0 20 20" fill="none" xmlns="http://www.w3.org/2000/svg">
<path d="M15.3923 14.0263L15.7173 16.6596C15.8007 17.3513 15.059 17.8346 14.4673 17.4763L11.584 15.7596C11.384 15.643 11.334 15.393 11.4423 15.193C11.859 14.4263 12.084 13.5596 12.084 12.693C12.084 9.64297 9.46733 7.15964 6.25064 7.15964C5.59231 7.15964 4.95064 7.25964 4.35064 7.45964C4.04231 7.55964 3.74231 7.2763 3.81731 6.95964C4.57564 3.9263 7.49231 1.66797 10.9757 1.66797C15.0423 1.66797 18.334 4.74297 18.334 8.53464C18.334 10.7846 17.1757 12.7763 15.3923 14.0263Z" fill="white"/>
<path d="M10.8337 12.6896C10.8337 13.6813 10.467 14.5979 9.85033 15.3229C9.02533 16.3229 7.71699 16.9646 6.25033 16.9646L4.07533 18.2562C3.70866 18.4812 3.24199 18.1729 3.29199 17.7479L3.50033 16.1062C2.38366 15.3312 1.66699 14.0896 1.66699 12.6896C1.66699 11.2229 2.45033 9.93125 3.65033 9.16458C4.39199 8.68125 5.28366 8.40625 6.25033 8.40625C8.78366 8.40625 10.8337 10.3229 10.8337 12.6896Z" fill="white"/>
</svg>
