<svg width="20" height="20" viewBox="0 0 20 20" fill="none" xmlns="http://www.w3.org/2000/svg">
<path d="M16.6667 5.6263C17.9323 5.6263 18.9583 4.60029 18.9583 3.33464C18.9583 2.06899 17.9323 1.04297 16.6667 1.04297C15.401 1.04297 14.375 2.06899 14.375 3.33464C14.375 4.60029 15.401 5.6263 16.6667 5.6263Z" fill="white"/>
<path d="M15.867 6.79297C14.5587 6.50963 13.492 5.44297 13.2087 4.13464C13.1003 3.6263 13.092 3.13464 13.1837 2.66797C13.292 2.1513 12.9087 1.66797 12.3753 1.66797H5.83366C3.53366 1.66797 1.66699 3.53464 1.66699 5.83464V11.6263C1.66699 13.9263 3.53366 15.793 5.83366 15.793H7.08366C7.31699 15.793 7.61699 15.943 7.75033 16.1263L9.00033 17.7846C9.55033 18.518 10.4503 18.518 11.0003 17.7846L12.2503 16.1263C12.4087 15.918 12.6503 15.793 12.917 15.793H14.1753C16.4753 15.793 18.3337 13.9346 18.3337 11.6346V7.6263C18.3337 7.1013 17.8503 6.71797 17.3337 6.81797C16.867 6.9013 16.3753 6.9013 15.867 6.79297ZM6.66699 10.0013C6.20033 10.0013 5.83366 9.6263 5.83366 9.16797C5.83366 8.70964 6.20033 8.33464 6.66699 8.33464C7.12533 8.33464 7.50033 8.70964 7.50033 9.16797C7.50033 9.6263 7.13366 10.0013 6.66699 10.0013ZM10.0003 10.0013C9.53366 10.0013 9.16699 9.6263 9.16699 9.16797C9.16699 8.70964 9.53366 8.33464 10.0003 8.33464C10.4587 8.33464 10.8337 8.70964 10.8337 9.16797C10.8337 9.6263 10.467 10.0013 10.0003 10.0013ZM13.3337 10.0013C12.867 10.0013 12.5003 9.6263 12.5003 9.16797C12.5003 8.70964 12.867 8.33464 13.3337 8.33464C13.792 8.33464 14.167 8.70964 14.167 9.16797C14.167 9.6263 13.8003 10.0013 13.3337 10.0013Z" fill="white"/>
</svg>
