<svg width="20" height="20" viewBox="0 0 20 20" fill="none" xmlns="http://www.w3.org/2000/svg">
<path d="M14.167 1.66797H5.83366C3.53366 1.66797 1.66699 3.5263 1.66699 5.81797V10.8013V11.6346C1.66699 13.9263 3.53366 15.7846 5.83366 15.7846H7.08366C7.30866 15.7846 7.60866 15.9346 7.75033 16.118L9.00033 17.7763C9.55033 18.5096 10.4503 18.5096 11.0003 17.7763L12.2503 16.118C12.4087 15.9096 12.6587 15.7846 12.917 15.7846H14.167C16.467 15.7846 18.3337 13.9263 18.3337 11.6346V5.81797C18.3337 3.5263 16.467 1.66797 14.167 1.66797ZM10.8337 11.4596H5.83366C5.49199 11.4596 5.20866 11.1763 5.20866 10.8346C5.20866 10.493 5.49199 10.2096 5.83366 10.2096H10.8337C11.1753 10.2096 11.4587 10.493 11.4587 10.8346C11.4587 11.1763 11.1753 11.4596 10.8337 11.4596ZM14.167 7.29297H5.83366C5.49199 7.29297 5.20866 7.00964 5.20866 6.66797C5.20866 6.3263 5.49199 6.04297 5.83366 6.04297H14.167C14.5087 6.04297 14.792 6.3263 14.792 6.66797C14.792 7.00964 14.5087 7.29297 14.167 7.29297Z" fill="white"/>
</svg>
