<svg width="20" height="20" viewBox="0 0 20 20" fill="none" xmlns="http://www.w3.org/2000/svg">
<path d="M14.167 1.66797H5.83366C3.53366 1.66797 1.66699 3.5263 1.66699 5.81797V10.8013V11.6346C1.66699 13.9263 3.53366 15.7846 5.83366 15.7846H7.08366C7.30866 15.7846 7.60866 15.9346 7.75033 16.118L9.00033 17.7763C9.55033 18.5096 10.4503 18.5096 11.0003 17.7763L12.2503 16.118C12.4087 15.9096 12.6587 15.7846 12.917 15.7846H14.167C16.467 15.7846 18.3337 13.9263 18.3337 11.6346V5.81797C18.3337 3.5263 16.467 1.66797 14.167 1.66797ZM13.0503 12.1096C12.9253 12.2346 12.767 12.293 12.6087 12.293C12.4503 12.293 12.292 12.2346 12.167 12.1096L11.5503 11.493C11.067 11.8096 10.4837 12.0013 9.85866 12.0013C8.15866 12.0013 6.77533 10.618 6.77533 8.91797C6.77533 7.21797 8.15033 5.83464 9.85866 5.83464C11.567 5.83464 12.942 7.21797 12.942 8.91797C12.942 9.54297 12.7503 10.1263 12.4337 10.6096L13.0503 11.2263C13.292 11.468 13.292 11.868 13.0503 12.1096Z" fill="white"/>
</svg>
