<svg width="20" height="20" viewBox="0 0 20 20" fill="none" xmlns="http://www.w3.org/2000/svg">
<path d="M10.0003 1.66797C5.40033 1.66797 1.66699 5.4013 1.66699 10.0013C1.66699 14.6013 5.40033 18.3346 10.0003 18.3346C14.6003 18.3346 18.3337 14.6013 18.3337 10.0013C18.3337 5.4013 14.6003 1.66797 10.0003 1.66797ZM14.3753 10.6763C14.3753 10.818 14.367 10.9513 14.3503 11.0846C14.2253 12.5596 13.3503 13.293 11.7503 13.293H11.5337C11.4003 13.293 11.267 13.3596 11.1837 13.468L10.5253 14.343C10.2337 14.7346 9.76699 14.7346 9.47533 14.343L8.81699 13.468C8.74199 13.3763 8.58366 13.293 8.46699 13.293H8.25033C6.50866 13.293 5.62533 12.8596 5.62533 10.668V8.4763C5.62533 6.8763 6.36699 6.0013 7.83366 5.8763C7.96699 5.86797 8.10866 5.86797 8.25033 5.86797H11.7503C13.492 5.86797 14.3753 6.74297 14.3753 8.49297V10.6763Z" fill="white"/>
</svg>
