<svg width="20" height="20" viewBox="0 0 20 20" fill="none" xmlns="http://www.w3.org/2000/svg">
<path d="M13.3337 1.66797H6.66699C3.33366 1.66797 1.66699 3.33464 1.66699 6.66797V17.5013C1.66699 17.9596 2.04199 18.3346 2.50033 18.3346H13.3337C16.667 18.3346 18.3337 16.668 18.3337 13.3346V6.66797C18.3337 3.33464 16.667 1.66797 13.3337 1.66797ZM12.917 10.6263H10.6253V12.918C10.6253 13.2596 10.342 13.543 10.0003 13.543C9.65866 13.543 9.37533 13.2596 9.37533 12.918V10.6263H7.08366C6.74199 10.6263 6.45866 10.343 6.45866 10.0013C6.45866 9.65964 6.74199 9.3763 7.08366 9.3763H9.37533V7.08464C9.37533 6.74297 9.65866 6.45964 10.0003 6.45964C10.342 6.45964 10.6253 6.74297 10.6253 7.08464V9.3763H12.917C13.2587 9.3763 13.542 9.65964 13.542 10.0013C13.542 10.343 13.2587 10.6263 12.917 10.6263Z" fill="white"/>
</svg>
