<svg width="20" height="20" viewBox="0 0 20 20" fill="none" xmlns="http://www.w3.org/2000/svg">
<path d="M12.992 10.3333V13.725C12.992 14.025 12.9587 14.3083 12.8837 14.5667C12.5753 15.7917 11.5587 16.5583 10.1587 16.5583H7.89199L5.37533 18.2333C5.00033 18.4917 4.50033 18.2167 4.50033 17.7667V16.5583C3.65033 16.5583 2.94199 16.275 2.45033 15.7833C1.95033 15.2833 1.66699 14.575 1.66699 13.725V10.3333C1.66699 8.75 2.65033 7.65833 4.16699 7.51667C4.27533 7.50833 4.38366 7.5 4.50033 7.5H10.1587C11.8587 7.5 12.992 8.63333 12.992 10.3333Z" fill="white"/>
<path d="M14.792 13.0013C15.8503 13.0013 16.742 12.6513 17.3587 12.0263C17.9837 11.4096 18.3337 10.518 18.3337 9.45964V5.20964C18.3337 3.2513 16.7503 1.66797 14.792 1.66797H7.70866C5.75033 1.66797 4.16699 3.2513 4.16699 5.20964V5.83464C4.16699 6.06797 4.35033 6.2513 4.58366 6.2513H10.1587C12.417 6.2513 14.242 8.0763 14.242 10.3346V12.5846C14.242 12.818 14.4253 13.0013 14.6587 13.0013H14.792Z" fill="white"/>
</svg>
