<svg width="20" height="20" viewBox="0 0 20 20" fill="none" xmlns="http://www.w3.org/2000/svg">
<path d="M6.64134 12.3583C6.04134 11.675 5.14967 11.25 4.16634 11.25C2.32467 11.25 0.833008 12.7417 0.833008 14.5833C0.833008 15.2083 1.00801 15.8 1.31634 16.3C1.48301 16.5833 1.69967 16.8417 1.94967 17.0583C2.53301 17.5917 3.30801 17.9167 4.16634 17.9167C5.38301 17.9167 6.44134 17.2667 7.01634 16.3C7.32467 15.8 7.49967 15.2083 7.49967 14.5833C7.49967 13.7333 7.17467 12.95 6.64134 12.3583ZM5.49967 15.9C5.37467 16.025 5.21634 16.0833 5.05801 16.0833C4.89967 16.0833 4.74134 16.025 4.61634 15.9L4.17467 15.4583L3.71634 15.9167C3.59134 16.0417 3.43301 16.1 3.27467 16.1C3.11634 16.1 2.95801 16.0417 2.83301 15.9167C2.59134 15.675 2.59134 15.275 2.83301 15.0333L3.29134 14.575L2.84967 14.1333C2.60801 13.8917 2.60801 13.4917 2.84967 13.25C3.09134 13.0083 3.49134 13.0083 3.73301 13.25L4.17467 13.6917L4.59134 13.275C4.83301 13.0333 5.23301 13.0333 5.47467 13.275C5.71634 13.5167 5.71634 13.9167 5.47467 14.1583L5.05801 14.575L5.49967 15.0167C5.74134 15.2583 5.74134 15.65 5.49967 15.9Z" fill="white"/>
<path d="M14.375 2.02344H6.45833C4.08333 2.02344 2.5 3.60677 2.5 5.98177V9.69845C2.5 9.99011 2.8 10.1984 3.08333 10.1234C3.43333 10.0401 3.79167 9.99845 4.16667 9.99845C6.55 9.99845 8.51667 11.9318 8.73333 14.2734C8.75 14.5068 8.94167 14.6901 9.16667 14.6901H9.625L13.15 17.0401C13.6667 17.3901 14.375 17.0068 14.375 16.3734V14.6901C15.5583 14.6901 16.55 14.2901 17.2417 13.6068C17.9333 12.9068 18.3333 11.9151 18.3333 10.7318V5.98177C18.3333 3.60677 16.75 2.02344 14.375 2.02344ZM13.1917 9.00678H7.64167C7.31667 9.00678 7.05 8.74011 7.05 8.41511C7.05 8.08177 7.31667 7.8151 7.64167 7.8151H13.1917C13.5167 7.8151 13.7833 8.08177 13.7833 8.41511C13.7833 8.74011 13.5167 9.00678 13.1917 9.00678Z" fill="white"/>
</svg>
