<svg width="20" height="20" viewBox="0 0 20 20" fill="none" xmlns="http://www.w3.org/2000/svg">
<path d="M13.492 1.66797H6.50866C3.47533 1.66797 1.66699 3.4763 1.66699 6.50964V13.4846C1.66699 16.5263 3.47533 18.3346 6.50866 18.3346H13.4837C16.517 18.3346 18.3253 16.5263 18.3253 13.493V6.50964C18.3337 3.4763 16.5253 1.66797 13.492 1.66797ZM15.2337 10.7596C15.2337 10.9263 15.2253 11.093 15.2087 11.2513C15.0587 13.018 14.017 13.9013 12.1003 13.9013H11.8337C11.667 13.9013 11.5087 13.9763 11.417 14.1096L10.6337 15.1596C10.2837 15.6263 9.72533 15.6263 9.37533 15.1596L8.59199 14.1096C8.50866 14.0013 8.31699 13.9013 8.17533 13.9013H7.90866C5.81699 13.9013 4.77533 13.3846 4.77533 10.768V8.13464C4.77533 6.21797 5.65866 5.1763 7.42533 5.0263C7.56699 5.00964 7.73366 5.0013 7.90866 5.0013H12.1003C14.192 5.0013 15.2337 6.0513 15.2337 8.13464V10.7596Z" fill="white"/>
</svg>
