<svg width="20" height="20" viewBox="0 0 20 20" fill="none" xmlns="http://www.w3.org/2000/svg">
<path d="M4.34134 11.2565C3.43301 11.1982 2.49967 11.5315 1.80801 12.2232C0.508008 13.5232 0.508008 15.6315 1.80801 16.9399C2.24967 17.3815 2.79134 17.6732 3.36634 17.8149C3.68301 17.8982 4.01634 17.9232 4.34967 17.9065C5.14134 17.8732 5.91634 17.5565 6.52467 16.9482C7.38301 16.0899 7.67467 14.8815 7.39967 13.7899C7.26634 13.2149 6.96634 12.6732 6.52467 12.2315C5.92467 11.6232 5.14134 11.2982 4.34134 11.2565ZM6.03301 14.5649C6.03301 14.7399 5.96634 14.8899 5.84967 15.0065C5.73301 15.1232 5.58301 15.1899 5.40801 15.1899H4.79134V15.8399C4.79134 16.0149 4.72467 16.1649 4.60801 16.2815C4.49134 16.3982 4.34134 16.4649 4.16634 16.4649C3.82467 16.4649 3.54134 16.1815 3.54134 15.8399V15.1899H2.91634C2.57467 15.1899 2.29134 14.9065 2.29134 14.5649C2.29134 14.2232 2.57467 13.9399 2.91634 13.9399H3.54134V13.3482C3.54134 13.0065 3.82467 12.7232 4.16634 12.7232C4.50801 12.7232 4.79134 13.0065 4.79134 13.3482V13.9399H5.40801C5.75801 13.9399 6.03301 14.2232 6.03301 14.5649Z" fill="white"/>
<path d="M14.375 2.02344H6.45833C4.08333 2.02344 2.5 3.60677 2.5 5.98177V9.69845C2.5 9.99011 2.8 10.1984 3.08333 10.1234C3.43333 10.0401 3.79167 9.99845 4.16667 9.99845C6.55 9.99845 8.51667 11.9318 8.73333 14.2734C8.75 14.5068 8.94167 14.6901 9.16667 14.6901H9.625L13.15 17.0401C13.6667 17.3901 14.375 17.0068 14.375 16.3734V14.6901C15.5583 14.6901 16.55 14.2901 17.2417 13.6068C17.9333 12.9068 18.3333 11.9151 18.3333 10.7318V5.98177C18.3333 3.60677 16.75 2.02344 14.375 2.02344ZM13.1917 9.00678H7.64167C7.31667 9.00678 7.05 8.74011 7.05 8.41511C7.05 8.08177 7.31667 7.8151 7.64167 7.8151H13.1917C13.5167 7.8151 13.7833 8.08177 13.7833 8.41511C13.7833 8.74011 13.5167 9.00678 13.1917 9.00678Z" fill="white"/>
</svg>
