<svg width="20" height="20" viewBox="0 0 20 20" fill="none" xmlns="http://www.w3.org/2000/svg">
<path d="M4.16634 11.25C2.32467 11.25 0.833008 12.7417 0.833008 14.5833C0.833008 15.2083 1.00801 15.8 1.31634 16.3C1.89134 17.2667 2.94967 17.9167 4.16634 17.9167C5.38301 17.9167 6.44134 17.2667 7.01634 16.3C7.32467 15.8 7.49967 15.2083 7.49967 14.5833C7.49967 12.7417 6.00801 11.25 4.16634 11.25ZM5.80801 14.3083L4.03301 15.95C3.91634 16.0583 3.75801 16.1167 3.60801 16.1167C3.44967 16.1167 3.29134 16.0583 3.16634 15.9333L2.34134 15.1083C2.09967 14.8667 2.09967 14.4667 2.34134 14.225C2.58301 13.9833 2.98301 13.9833 3.22467 14.225L3.62467 14.625L4.95801 13.3917C5.20801 13.1583 5.60801 13.175 5.84134 13.425C6.07467 13.675 6.05801 14.075 5.80801 14.3083Z" fill="white"/>
<path d="M14.375 2.02344H6.45833C4.08333 2.02344 2.5 3.60677 2.5 5.98177V9.69845C2.5 9.99011 2.8 10.1984 3.08333 10.1234C3.43333 10.0401 3.79167 9.99845 4.16667 9.99845C6.55 9.99845 8.51667 11.9318 8.73333 14.2734C8.75 14.5068 8.94167 14.6901 9.16667 14.6901H9.625L13.15 17.0401C13.6667 17.3901 14.375 17.0068 14.375 16.3734V14.6901C15.5583 14.6901 16.55 14.2901 17.2417 13.6068C17.9333 12.9068 18.3333 11.9151 18.3333 10.7318V5.98177C18.3333 3.60677 16.75 2.02344 14.375 2.02344ZM13.1917 9.00678H7.64167C7.31667 9.00678 7.05 8.74011 7.05 8.41511C7.05 8.08177 7.31667 7.8151 7.64167 7.8151H13.1917C13.5167 7.8151 13.7833 8.08177 13.7833 8.41511C13.7833 8.74011 13.5167 9.00678 13.1917 9.00678Z" fill="white"/>
</svg>
