<svg width="20" height="20" viewBox="0 0 20 20" fill="none" xmlns="http://www.w3.org/2000/svg">
<path d="M10.992 5H5.65866C5.44199 5 5.23366 5.00833 5.03366 5.03333C2.79199 5.225 1.66699 6.55 1.66699 8.99167V12.325C1.66699 15.6583 3.00033 16.3167 5.65866 16.3167H5.99199C6.17533 16.3167 6.41699 16.4417 6.52533 16.5833L7.52533 17.9167C7.96699 18.5083 8.68366 18.5083 9.12533 17.9167L10.1253 16.5833C10.2503 16.4167 10.4503 16.3167 10.6587 16.3167H10.992C13.4337 16.3167 14.7587 15.2 14.9503 12.95C14.9753 12.75 14.9837 12.5417 14.9837 12.325V8.99167C14.9837 6.33333 13.6503 5 10.992 5ZM5.41699 11.6667C4.95033 11.6667 4.58366 11.2917 4.58366 10.8333C4.58366 10.375 4.95866 10 5.41699 10C5.87533 10 6.25033 10.375 6.25033 10.8333C6.25033 11.2917 5.87533 11.6667 5.41699 11.6667ZM8.32533 11.6667C7.85866 11.6667 7.49199 11.2917 7.49199 10.8333C7.49199 10.375 7.86699 10 8.32533 10C8.78366 10 9.15866 10.375 9.15866 10.8333C9.15866 11.2917 8.79199 11.6667 8.32533 11.6667ZM11.242 11.6667C10.7753 11.6667 10.4087 11.2917 10.4087 10.8333C10.4087 10.375 10.7837 10 11.242 10C11.7003 10 12.0753 10.375 12.0753 10.8333C12.0753 11.2917 11.7003 11.6667 11.242 11.6667Z" fill="white"/>
<path d="M18.3172 5.65964V8.99297C18.3172 10.6596 17.8005 11.793 16.7672 12.418C16.5172 12.568 16.2255 12.368 16.2255 12.0763L16.2338 8.99297C16.2338 5.65964 14.3255 3.7513 10.9922 3.7513L5.9172 3.75964C5.62553 3.75964 5.42553 3.46797 5.57553 3.21797C6.20053 2.18464 7.33386 1.66797 8.99216 1.66797H14.3255C16.9838 1.66797 18.3172 3.0013 18.3172 5.65964Z" fill="white"/>
</svg>
