<svg width="20" height="20" viewBox="0 0 20 20" fill="none" xmlns="http://www.w3.org/2000/svg">
<path d="M18.3328 10.7156C18.3328 12.6239 17.3494 14.3156 15.8328 15.3823L14.7161 17.8406C14.4578 18.3989 13.7078 18.5073 13.3161 18.0323L12.0828 16.5489C10.5328 16.5489 9.10776 16.0239 8.02441 15.1489L8.52443 14.5573C12.3744 14.2656 15.4161 11.2156 15.4161 7.49896C15.4161 6.86563 15.3244 6.24063 15.1578 5.64062C17.0494 6.64063 18.3328 8.5406 18.3328 10.7156Z" fill="white"/>
<path d="M13.5837 5.05964C12.6087 3.05964 10.4337 1.66797 7.91699 1.66797C4.46699 1.66797 1.66699 4.2763 1.66699 7.5013C1.66699 9.40964 2.65033 11.1013 4.16699 12.168L5.28366 14.6263C5.54199 15.1846 6.29199 15.2846 6.68366 14.818L7.14199 14.268L7.91699 13.3346C11.367 13.3346 14.167 10.7263 14.167 7.5013C14.167 6.6263 13.9587 5.8013 13.5837 5.05964ZM10.0003 8.1263H5.83366C5.49199 8.1263 5.20866 7.84297 5.20866 7.5013C5.20866 7.15964 5.49199 6.8763 5.83366 6.8763H10.0003C10.342 6.8763 10.6253 7.15964 10.6253 7.5013C10.6253 7.84297 10.342 8.1263 10.0003 8.1263Z" fill="white"/>
</svg>
