<svg width="20" height="20" viewBox="0 0 20 20" fill="none" xmlns="http://www.w3.org/2000/svg">
<path d="M10.0003 1.66797C5.40033 1.66797 1.66699 5.12631 1.66699 9.38464C1.66699 11.8013 2.86698 13.9513 4.73365 15.368V16.9096C4.73365 17.5513 5.41698 17.9513 5.97531 17.6346L7.52535 16.7596C8.30868 16.9846 9.13366 17.1013 9.99199 17.1013C14.592 17.1013 18.3253 13.643 18.3253 9.38464C18.3337 5.12631 14.6003 1.66797 10.0003 1.66797ZM12.9253 8.7013L10.842 11.193C10.7087 11.3513 10.492 11.3846 10.317 11.2846L9.47533 10.793C9.38366 10.743 9.27533 10.7263 9.16699 10.7513L7.49198 11.1596C7.10032 11.2513 6.81698 10.793 7.07532 10.4846L9.19199 7.96797C9.31699 7.81797 9.53366 7.7763 9.70866 7.86797L10.692 8.38464C10.7837 8.43464 10.892 8.44297 10.992 8.41797L12.5087 8.0263C12.892 7.9263 13.1837 8.39297 12.9253 8.7013Z" fill="white"/>
</svg>
