<svg width="20" height="20" viewBox="0 0 20 20" fill="none" xmlns="http://www.w3.org/2000/svg">
<path d="M13.6831 5.35068V6.31735L7.61641 12.384C6.81641 11.659 6.31641 10.5923 6.31641 9.45064V5.35068C6.31641 3.63402 7.48307 2.20902 9.06642 1.80068C9.22476 1.75902 9.37476 1.89235 9.37476 2.05068V3.33402C9.37476 3.67568 9.65809 3.95902 9.99976 3.95902C10.3414 3.95902 10.6248 3.67568 10.6248 3.33402V2.05068C10.6248 1.89235 10.7748 1.75902 10.9331 1.80068C12.5164 2.20902 13.6831 3.63402 13.6831 5.35068Z" fill="white"/>
<path d="M16.5078 8.17656V9.50155C16.5078 12.8932 13.8995 15.6849 10.5828 15.9765V17.7515C10.5828 18.0765 10.3245 18.3349 9.9995 18.3349C9.6745 18.3349 9.41617 18.0765 9.41617 17.7515V15.9765C8.50784 15.8932 7.64948 15.6265 6.88281 15.2015L7.74115 14.3432C8.4245 14.6599 9.19117 14.8432 9.9995 14.8432C12.9495 14.8432 15.3495 12.4432 15.3495 9.50155V8.17656C15.3495 7.8599 15.6078 7.60156 15.9328 7.60156C16.2495 7.60156 16.5078 7.8599 16.5078 8.17656Z" fill="white"/>
<path d="M13.6835 8.39844V9.60677C13.6835 11.7568 11.8335 13.4818 9.63353 13.2734C9.4002 13.2484 9.16686 13.2068 8.9502 13.1318L13.6835 8.39844Z" fill="white"/>
<path d="M18.1422 1.85938C17.8922 1.60937 17.4839 1.60937 17.2339 1.85938L6.02559 13.0677C5.16725 12.1261 4.65059 10.8761 4.65059 9.50106V8.17604C4.65059 7.85938 4.39225 7.60104 4.06725 7.60104C3.75059 7.60104 3.49225 7.85938 3.49225 8.17604V9.50106C3.49225 11.1927 4.14225 12.7344 5.20059 13.8927L1.85059 17.2427C1.60059 17.4927 1.60059 17.9011 1.85059 18.1511C1.98392 18.2677 2.14225 18.3344 2.30892 18.3344C2.47559 18.3344 2.63392 18.2677 2.75892 18.1427L18.1422 2.75938C18.4006 2.50937 18.4006 2.10938 18.1422 1.85938Z" fill="white"/>
</svg>
