<svg width="20" height="20" viewBox="0 0 20 20" fill="none" xmlns="http://www.w3.org/2000/svg">
<path d="M15.9334 7.60208C15.6084 7.60208 15.3501 7.86042 15.3501 8.18542V9.50213C15.3501 12.4521 12.9501 14.8521 10.0001 14.8521C7.05006 14.8521 4.65007 12.4521 4.65007 9.50213V8.17708C4.65007 7.85208 4.39173 7.59375 4.06673 7.59375C3.74173 7.59375 3.4834 7.85208 3.4834 8.17708V9.49379C3.4834 12.8855 6.09173 15.6771 9.41674 15.9771V17.7521C9.41674 18.0771 9.67507 18.3355 10.0001 18.3355C10.3251 18.3355 10.5834 18.0771 10.5834 17.7521V15.9771C13.9001 15.6855 16.5167 12.8855 16.5167 9.49379V8.17708C16.5084 7.86042 16.2501 7.60208 15.9334 7.60208Z" fill="white"/>
<path d="M9.99976 1.66797C7.96641 1.66797 6.31641 3.31797 6.31641 5.3513V9.61797C6.31641 11.6513 7.96641 13.3013 9.99976 13.3013C12.0331 13.3013 13.6831 11.6513 13.6831 9.61797V5.3513C13.6831 3.31797 12.0331 1.66797 9.99976 1.66797ZM11.0914 7.45964C11.0331 7.6763 10.8414 7.81797 10.6248 7.81797C10.5831 7.81797 10.5414 7.80963 10.4998 7.8013C10.1748 7.70963 9.83309 7.70963 9.50809 7.8013C9.24142 7.8763 8.98309 7.71797 8.91642 7.45964C8.84142 7.2013 8.99976 6.93464 9.25809 6.86797C9.74976 6.73464 10.2664 6.73464 10.7581 6.86797C11.0081 6.93464 11.1581 7.2013 11.0914 7.45964ZM11.5331 5.84297C11.4581 6.04297 11.2748 6.15964 11.0748 6.15964C11.0164 6.15964 10.9664 6.1513 10.9081 6.13464C10.3248 5.91797 9.67476 5.91797 9.09142 6.13464C8.84142 6.2263 8.55809 6.09297 8.46642 5.84297C8.37476 5.59297 8.50809 5.30964 8.75809 5.2263C9.55809 4.93464 10.4414 4.93464 11.2414 5.2263C11.4914 5.31797 11.6248 5.59297 11.5331 5.84297Z" fill="white"/>
</svg>
