<svg width="20" height="20" viewBox="0 0 20 20" fill="none" xmlns="http://www.w3.org/2000/svg">
<path d="M14.6828 4.76797L5.84108 13.6096C5.23275 12.7846 4.89941 11.7763 4.89941 10.6846V6.75964C4.89941 5.2263 5.58275 3.8513 6.66608 2.91797V6.36797C6.66608 6.69297 6.93275 6.95964 7.24941 6.95964C7.57441 6.95964 7.84108 6.69297 7.84108 6.36797V2.14297C8.22441 1.9513 8.63276 1.81797 9.05776 1.74297V4.79297C9.05776 5.1263 9.32443 5.38464 9.64943 5.38464C9.97443 5.38464 10.2411 5.1263 10.2411 4.79297V1.66797C12.2328 1.75964 13.9494 3.00964 14.6828 4.76797Z" fill="white"/>
<path d="M15.0998 7.39844V10.6818C15.0998 13.4901 12.8082 15.7818 9.99984 15.7818C9.84984 15.7818 9.69984 15.7735 9.54984 15.7568C9.48317 15.7568 9.4165 15.7485 9.35817 15.7401C9.24984 15.7235 9.1415 15.7068 9.0415 15.6901C8.99984 15.6901 8.9665 15.6735 8.9165 15.6651C8.79984 15.6401 8.68317 15.6068 8.57484 15.5735C8.3915 15.5235 8.21647 15.4568 8.0498 15.3901C7.94147 15.3485 7.84147 15.3068 7.74147 15.2485C7.71647 15.2401 7.6998 15.2235 7.6748 15.2151C7.59147 15.1735 7.50814 15.1318 7.4248 15.0735L15.0998 7.39844Z" fill="white"/>
<path d="M18.1244 9.16797V10.8346C18.1244 15.318 14.4828 18.9596 9.99942 18.9596C8.23275 18.9596 6.54108 18.393 5.14941 17.3513L6.04941 16.4513C7.19941 17.268 8.56609 17.7096 9.99942 17.7096C13.7911 17.7096 16.8744 14.6263 16.8744 10.8346V9.16797C16.8744 8.8263 17.1578 8.54297 17.4994 8.54297C17.8411 8.54297 18.1244 8.8263 18.1244 9.16797Z" fill="white"/>
<path d="M18.1417 1.85938C17.8917 1.60937 17.4834 1.60937 17.2334 1.85938L1.8584 17.2427C1.6084 17.4927 1.6084 17.9011 1.8584 18.1511C1.9834 18.2677 2.14173 18.3344 2.3084 18.3344C2.47507 18.3344 2.6334 18.2677 2.7584 18.1427L18.1417 2.75938C18.4001 2.50937 18.4001 2.10938 18.1417 1.85938Z" fill="white"/>
</svg>
