<svg width="20" height="20" viewBox="0 0 20 20" fill="none" xmlns="http://www.w3.org/2000/svg">
<path d="M12.3659 9.08546L17.0826 5.9271C17.5576 5.61044 17.6826 4.96044 17.3659 4.49377L15.8492 2.23544C15.5326 1.76044 14.8826 1.63544 14.4159 1.9521L9.69922 5.11044L12.3659 9.08546Z" fill="white"/>
<path d="M12.1001 8.68332L10.6334 9.66666L8.40841 11.1583L8.11673 11.35L7.9834 11.15L6.11673 8.36666L5.9834 8.16667L9.96674 5.5L12.1001 8.68332Z" fill="white"/>
<path d="M4.69992 13.3505L7.99159 11.1505L6.12492 8.36719L2.83325 10.5672C2.44992 10.8255 2.34992 11.3422 2.60825 11.7255L3.54992 13.1255C3.79992 13.5089 4.31659 13.6089 4.69992 13.3505Z" fill="white"/>
<path d="M13.8002 18.1763C13.7168 18.2096 13.6252 18.2346 13.5418 18.2346C13.3002 18.2346 13.0752 18.093 12.9668 17.8596L9.85851 10.993L6.70849 17.868C6.60016 18.093 6.37516 18.2346 6.13349 18.2346C6.05016 18.2346 5.95849 18.2096 5.87516 18.1763C5.56682 18.0263 5.42516 17.6596 5.56682 17.343L8.40851 11.1596L10.6335 9.66797L14.1085 17.3513C14.2502 17.6596 14.1085 18.0346 13.8002 18.1763Z" fill="white"/>
</svg>
