<svg width="20" height="20" viewBox="0 0 20 20" fill="none" xmlns="http://www.w3.org/2000/svg">
<path d="M15 13.3352V15.8352C15 17.2102 13.875 18.3352 12.5 18.3352H7.5C6.125 18.3352 5 17.2102 5 15.8352V12.4935C5 12.0352 5.375 11.6602 5.84167 11.6602L8.24167 11.6685C8.81667 11.6685 9.38333 11.7935 9.90833 12.0435C10.4833 12.3102 11.0917 12.5018 11.7333 12.5018H14.1667C14.625 12.5018 15 12.8768 15 13.3352Z" fill="white"/>
<path d="M14.5083 7.84297L12.7417 6.0763C12.5833 5.91797 12.5 5.70964 12.5 5.49297V4.09297C12.9833 3.9263 13.3333 3.45964 13.3333 2.91797C13.3333 2.2263 12.775 1.66797 12.0833 1.66797H7.91667C7.225 1.66797 6.66667 2.2263 6.66667 2.91797C6.66667 3.45964 7.01667 3.9263 7.5 4.09297V5.49297C7.5 5.70964 7.41667 5.91797 7.25833 6.0763L5.49167 7.84297C5.225 8.10964 5 8.6513 5 9.0263V9.56797C5 10.0263 5.36667 10.4013 5.825 10.4013L8.25 10.418C9.06667 10.418 9.89167 10.618 10.625 11.0013C10.975 11.1846 11.375 11.2513 11.7667 11.2513H14.1667C14.625 11.2513 15 10.8763 15 10.418V9.0263C15 8.6513 14.775 8.10964 14.5083 7.84297Z" fill="white"/>
</svg>
