<svg width="20" height="20" viewBox="0 0 20 20" fill="none" xmlns="http://www.w3.org/2000/svg">
<path opacity="0.4" d="M17.2581 14.5977C16.9498 15.6143 16.3415 16.3977 15.4748 16.881C15.4415 16.7477 15.4248 16.606 15.4248 16.4643C15.4248 15.4477 16.2498 14.6143 17.2581 14.5977Z" fill="white"/>
<path d="M17.5003 6.26797V7.90461C17.5003 8.34005 17.1553 8.69247 16.7337 8.8013L14.2753 9.48464C12.9753 9.81797 12.1087 10.943 12.1087 12.2846V13.5721C12.1087 13.9676 11.8231 14.2976 11.468 14.4716C10.6217 14.8862 9.97516 15.7275 9.73116 16.6769C9.61658 17.1226 9.25224 17.5013 8.79199 17.5013H6.26699C3.39199 17.5013 1.66699 15.7846 1.66699 12.9013V6.26797C1.66699 3.38464 3.39199 1.66797 6.26699 1.66797H12.9003C15.7753 1.66797 17.5003 3.38464 17.5003 6.26797Z" fill="white"/>
<path d="M18.5912 10.2059C18.3745 10.0476 18.0245 9.88091 17.4995 9.93091C17.3662 9.93924 17.2245 9.96424 17.0662 10.0059L14.5829 10.6892C13.8412 10.8809 13.3579 11.5059 13.3579 12.2809V15.5392C13.1662 15.4726 12.9579 15.4309 12.7412 15.4309C11.7079 15.4309 10.8662 16.2642 10.8662 17.2976C10.8662 17.3642 10.8662 17.4309 10.8745 17.4976C10.9745 18.4309 11.7745 19.1642 12.7412 19.1642C13.7579 19.1642 14.5829 18.3392 14.5995 17.3309C14.5995 17.3142 14.6079 17.3059 14.6079 17.2976V14.2226L17.4829 13.4309L17.9162 13.3142V14.7142C17.7245 14.6476 17.5162 14.5976 17.2912 14.5976H17.2579C16.2495 14.6142 15.4245 15.4476 15.4245 16.4642C15.4245 16.6059 15.4412 16.7476 15.4745 16.8809C15.6662 17.7142 16.4079 18.3392 17.2912 18.3392C18.3162 18.3392 19.1412 17.5142 19.1579 16.4976C19.1579 16.4892 19.1662 16.4809 19.1662 16.4642V11.6059C19.1662 10.9726 18.9745 10.5059 18.5912 10.2059ZM12.7412 17.9142C12.4662 17.9142 12.2329 17.7392 12.1579 17.4976C12.1245 17.4392 12.1162 17.3642 12.1162 17.2976C12.1162 16.9559 12.3995 16.6809 12.7412 16.6809C13.0745 16.6809 13.3579 16.9559 13.3579 17.2976C13.3579 17.3642 13.3495 17.4226 13.3245 17.4809C13.2495 17.7309 13.0162 17.9142 12.7412 17.9142ZM17.2912 17.0892C16.9579 17.0892 16.6745 16.8059 16.6745 16.4642C16.6745 16.1309 16.9579 15.8476 17.2912 15.8476C17.6329 15.8476 17.9162 16.1309 17.9162 16.4642C17.9162 16.8059 17.6329 17.0892 17.2912 17.0892Z" fill="white"/>
</svg>
