<svg width="20" height="20" viewBox="0 0 20 20" fill="none" xmlns="http://www.w3.org/2000/svg">
<path d="M14.9997 10.832C12.6997 10.832 10.833 12.6987 10.833 14.9987C10.833 17.2987 12.6997 19.1654 14.9997 19.1654C17.2997 19.1654 19.1663 17.2987 19.1663 14.9987C19.1663 12.6987 17.2997 10.832 14.9997 10.832ZM14.2997 16.057C14.508 16.2654 14.508 16.607 14.2997 16.8237C14.1913 16.932 14.058 16.982 13.9163 16.982C13.7747 16.982 13.6413 16.932 13.533 16.8237L12.0913 15.382C11.883 15.1737 11.883 14.832 12.0913 14.6154L13.533 13.1737C13.7413 12.9654 14.083 12.9654 14.2997 13.1737C14.508 13.382 14.508 13.7237 14.2997 13.9404L13.2413 14.9987L14.2997 16.057ZM17.8997 15.382L16.458 16.8237C16.3497 16.932 16.2163 16.982 16.0747 16.982C15.933 16.982 15.7997 16.932 15.6913 16.8237C15.483 16.6154 15.483 16.2737 15.6913 16.057L16.758 14.9987L15.6997 13.9404C15.4913 13.732 15.4913 13.3904 15.6997 13.1737C15.908 12.9654 16.2497 12.9654 16.4663 13.1737L17.908 14.6154C18.108 14.832 18.108 15.1654 17.8997 15.382Z" fill="white"/>
<path d="M17.5 5.83463V9.55965C17.5 9.85131 17.2167 10.0513 16.95 9.95131C16.025 9.59298 14.9917 9.47631 13.9083 9.69298C11.7417 10.1263 10.0167 11.9013 9.65833 14.0846C9.44167 15.418 9.70833 16.6763 10.3167 17.7013C10.4833 17.9846 10.2833 18.3346 9.95833 18.3346H6.66667C3.75 18.3346 2.5 16.668 2.5 14.168V5.83463C2.5 3.61796 3.48333 2.05963 5.74167 1.73463C5.98333 1.7013 6.2 1.89296 6.20833 2.14296L6.23333 2.98463C6.25833 4.31796 7.38333 5.41796 8.73333 5.41796H11.25C12.625 5.41796 13.75 4.29296 13.75 2.91796V2.14296C13.75 1.89296 13.9667 1.69296 14.2083 1.7263C16.5 2.03463 17.5 3.6013 17.5 5.83463Z" fill="white"/>
<path d="M12.4997 2.5013V2.91797C12.4997 3.6013 11.933 4.16797 11.2497 4.16797H8.72466C8.04969 4.16797 7.49136 3.6263 7.47469 2.9513L7.46636 2.5263C7.44969 2.0513 7.82469 1.66797 8.29969 1.66797H11.6663C12.1247 1.66797 12.4997 2.04297 12.4997 2.5013Z" fill="white"/>
</svg>
