<svg width="20" height="20" viewBox="0 0 20 20" fill="none" xmlns="http://www.w3.org/2000/svg">
<path d="M13.533 1.66797H6.46634C4.16634 1.66797 3.33301 2.5013 3.33301 4.84297V15.1596C3.33301 17.5013 4.16634 18.3346 6.46634 18.3346H13.5247C15.833 18.3346 16.6663 17.5013 16.6663 15.1596V4.84297C16.6663 2.5013 15.833 1.66797 13.533 1.66797ZM9.99967 16.0846C9.19967 16.0846 8.54134 15.4263 8.54134 14.6263C8.54134 13.8263 9.19967 13.168 9.99967 13.168C10.7997 13.168 11.458 13.8263 11.458 14.6263C11.458 15.4263 10.7997 16.0846 9.99967 16.0846ZM11.6663 5.20964H8.33301C7.99134 5.20964 7.70801 4.9263 7.70801 4.58464C7.70801 4.24297 7.99134 3.95964 8.33301 3.95964H11.6663C12.008 3.95964 12.2913 4.24297 12.2913 4.58464C12.2913 4.9263 12.008 5.20964 11.6663 5.20964Z" fill="white"/>
</svg>
