<svg width="20" height="20" viewBox="0 0 20 20" fill="none" xmlns="http://www.w3.org/2000/svg">
<path d="M14.167 2.91797H5.83366C3.33366 2.91797 1.66699 4.16797 1.66699 7.08464V12.918C1.66699 15.8346 3.33366 17.0846 5.83366 17.0846H14.167C16.667 17.0846 18.3337 15.8346 18.3337 12.918V7.08464C18.3337 4.16797 16.667 2.91797 14.167 2.91797ZM6.66699 14.793H4.16699C3.82533 14.793 3.54199 14.5096 3.54199 14.168C3.54199 13.8263 3.82533 13.543 4.16699 13.543H6.66699C7.00866 13.543 7.29199 13.8263 7.29199 14.168C7.29199 14.5096 7.00866 14.793 6.66699 14.793ZM10.0003 12.5013C8.61699 12.5013 7.50033 11.3846 7.50033 10.0013C7.50033 8.61797 8.61699 7.5013 10.0003 7.5013C11.3837 7.5013 12.5003 8.61797 12.5003 10.0013C12.5003 11.3846 11.3837 12.5013 10.0003 12.5013ZM15.8337 6.45964H13.3337C12.992 6.45964 12.7087 6.1763 12.7087 5.83464C12.7087 5.49297 12.992 5.20964 13.3337 5.20964H15.8337C16.1753 5.20964 16.4587 5.49297 16.4587 5.83464C16.4587 6.1763 16.1753 6.45964 15.8337 6.45964Z" fill="white"/>
</svg>
