<svg width="20" height="20" viewBox="0 0 20 20" fill="none" xmlns="http://www.w3.org/2000/svg">
<path d="M15.9748 5.53359C15.6165 3.72526 14.2748 2.93359 12.4082 2.93359H5.09147C2.89147 2.93359 1.4248 4.03359 1.4248 6.60026V10.8919C1.4248 12.7419 2.18314 13.8252 3.43314 14.2919C3.61647 14.3586 3.81647 14.4169 4.0248 14.4502C4.35814 14.5252 4.71647 14.5586 5.09147 14.5586H12.4165C14.6165 14.5586 16.0832 13.4586 16.0832 10.8919V6.60026C16.0832 6.20859 16.0498 5.85859 15.9748 5.53359ZM4.60814 10.0002C4.60814 10.3419 4.3248 10.6252 3.98314 10.6252C3.64147 10.6252 3.35814 10.3419 3.35814 10.0002V7.50026C3.35814 7.15859 3.64147 6.87526 3.98314 6.87526C4.3248 6.87526 4.60814 7.15859 4.60814 7.50026V10.0002ZM8.74984 10.9502C7.53314 10.9502 6.5498 9.9669 6.5498 8.75024C6.5498 7.53359 7.53314 6.55026 8.74984 6.55026C9.9665 6.55026 10.9498 7.53359 10.9498 8.75024C10.9498 9.9669 9.9665 10.9502 8.74984 10.9502ZM14.1332 10.0002C14.1332 10.3419 13.8498 10.6252 13.5082 10.6252C13.1665 10.6252 12.8832 10.3419 12.8832 10.0002V7.50026C12.8832 7.15859 13.1665 6.87526 13.5082 6.87526C13.8498 6.87526 14.1332 7.15859 14.1332 7.50026V10.0002Z" fill="white"/>
<path d="M18.5832 9.10057V13.3922C18.5832 15.9589 17.1165 17.0672 14.9082 17.0672H7.59147C6.96647 17.0672 6.40814 16.9756 5.92481 16.7922C5.53314 16.6506 5.19147 16.4422 4.91647 16.1756C4.76647 16.0339 4.88314 15.8089 5.09147 15.8089H12.4082C15.4915 15.8089 17.3248 13.9756 17.3248 10.9006V6.60056C17.3248 6.40056 17.5498 6.27556 17.6915 6.42556C18.2582 7.02556 18.5832 7.90056 18.5832 9.10057Z" fill="white"/>
</svg>
