<svg width="20" height="20" viewBox="0 0 20 20" fill="none" xmlns="http://www.w3.org/2000/svg">
<path d="M14.167 2.91797H5.83366C3.33366 2.91797 1.66699 4.16797 1.66699 7.08464V12.918C1.66699 15.8346 3.33366 17.0846 5.83366 17.0846H14.167C16.667 17.0846 18.3337 15.8346 18.3337 12.918V7.08464C18.3337 4.16797 16.667 2.91797 14.167 2.91797ZM3.12533 7.08464C3.12533 5.59297 4.34199 4.3763 5.83366 4.3763H7.08366C7.42533 4.3763 7.70866 4.65964 7.70866 5.0013C7.70866 5.34297 7.42533 5.6263 7.08366 5.6263H5.83366C5.03366 5.6263 4.37533 6.28464 4.37533 7.08464V8.33464C4.37533 8.6763 4.09199 8.95964 3.75033 8.95964C3.40866 8.95964 3.12533 8.6763 3.12533 8.33464V7.08464ZM7.08366 15.6263H5.83366C4.34199 15.6263 3.12533 14.4096 3.12533 12.918V11.668C3.12533 11.3263 3.40866 11.043 3.75033 11.043C4.09199 11.043 4.37533 11.3263 4.37533 11.668V12.918C4.37533 13.718 5.03366 14.3763 5.83366 14.3763H7.08366C7.42533 14.3763 7.70866 14.6596 7.70866 15.0013C7.70866 15.343 7.42533 15.6263 7.08366 15.6263ZM10.0003 12.5013C8.61699 12.5013 7.50033 11.3846 7.50033 10.0013C7.50033 8.61797 8.61699 7.5013 10.0003 7.5013C11.3837 7.5013 12.5003 8.61797 12.5003 10.0013C12.5003 11.3846 11.3837 12.5013 10.0003 12.5013ZM16.8753 12.918C16.8753 14.4096 15.6587 15.6263 14.167 15.6263H12.917C12.5753 15.6263 12.292 15.343 12.292 15.0013C12.292 14.6596 12.5753 14.3763 12.917 14.3763H14.167C14.967 14.3763 15.6253 13.718 15.6253 12.918V11.668C15.6253 11.3263 15.9087 11.043 16.2503 11.043C16.592 11.043 16.8753 11.3263 16.8753 11.668V12.918ZM16.8753 8.33464C16.8753 8.6763 16.592 8.95964 16.2503 8.95964C15.9087 8.95964 15.6253 8.6763 15.6253 8.33464V7.08464C15.6253 6.28464 14.967 5.6263 14.167 5.6263H12.917C12.5753 5.6263 12.292 5.34297 12.292 5.0013C12.292 4.65964 12.5753 4.3763 12.917 4.3763H14.167C15.6587 4.3763 16.8753 5.59297 16.8753 7.08464V8.33464Z" fill="white"/>
</svg>
