<svg width="20" height="20" viewBox="0 0 20 20" fill="none" xmlns="http://www.w3.org/2000/svg">
<path d="M2.65025 12.5248C2.35858 12.5248 2.15025 12.8165 2.25858 13.0832C3.48358 16.1665 6.49192 18.3332 10.0002 18.3332C13.5169 18.3332 16.5252 16.1498 17.7502 13.0582C17.8586 12.7915 17.6419 12.4998 17.3586 12.4998H14.5836C14.3502 12.4998 14.1669 12.3165 14.1669 12.0832V9.79983C14.1669 9.03316 13.2086 8.67483 12.7086 9.25816L10.3169 12.1165C10.1502 12.3165 9.84192 12.3165 9.67525 12.1165L7.28358 9.25816C6.79192 8.67483 5.83358 9.03316 5.83358 9.79983V12.0832C5.83358 12.3165 5.65025 12.4998 5.41692 12.4998L2.65025 12.5248Z" fill="white"/>
<path d="M18.3337 10.1177C18.3337 10.3761 18.317 10.6344 18.2837 10.8844C18.2587 11.0927 18.0753 11.2511 17.8587 11.2511H15.8337C15.6003 11.2511 15.417 11.0677 15.417 10.8344V9.91772C15.417 9.07606 14.967 8.25941 14.2003 7.90941C13.342 7.51775 12.367 7.73441 11.7503 8.45939L10.317 10.1677C10.1503 10.3677 9.84199 10.3677 9.67533 10.1677L8.23366 8.44272C7.63366 7.73441 6.66699 7.51775 5.80033 7.90941C5.03366 8.25941 4.58366 9.07606 4.58366 9.91772V10.7344C4.58366 11.0844 4.40033 11.2677 4.16699 11.2677L2.13366 11.2761C1.92533 11.2761 1.73366 11.1177 1.70866 10.9094C1.68366 10.6094 1.66699 10.3094 1.66699 10.0011C1.66699 4.95941 6.15866 0.951073 11.3587 1.77607C15.3837 2.40941 18.392 6.03441 18.3337 10.1177Z" fill="white"/>
</svg>
