<svg width="20" height="20" viewBox="0 0 20 20" fill="none" xmlns="http://www.w3.org/2000/svg">
<path d="M14.167 2.91797H5.83366C3.33366 2.91797 1.66699 4.16797 1.66699 7.08464V12.918C1.66699 15.8346 3.33366 17.0846 5.83366 17.0846H14.167C16.667 17.0846 18.3337 15.8346 18.3337 12.918V7.08464C18.3337 4.16797 16.667 2.91797 14.167 2.91797ZM5.20866 12.0846C5.20866 12.4263 4.92533 12.7096 4.58366 12.7096C4.24199 12.7096 3.95866 12.4263 3.95866 12.0846V7.91797C3.95866 7.5763 4.24199 7.29297 4.58366 7.29297C4.92533 7.29297 5.20866 7.5763 5.20866 7.91797V12.0846ZM10.0003 12.5013C8.61699 12.5013 7.50033 11.3846 7.50033 10.0013C7.50033 8.61797 8.61699 7.5013 10.0003 7.5013C11.3837 7.5013 12.5003 8.61797 12.5003 10.0013C12.5003 11.3846 11.3837 12.5013 10.0003 12.5013ZM16.042 12.0846C16.042 12.4263 15.7587 12.7096 15.417 12.7096C15.0753 12.7096 14.792 12.4263 14.792 12.0846V7.91797C14.792 7.5763 15.0753 7.29297 15.417 7.29297C15.7587 7.29297 16.042 7.5763 16.042 7.91797V12.0846Z" fill="white"/>
</svg>
