<svg width="20" height="20" viewBox="0 0 20 20" fill="none" xmlns="http://www.w3.org/2000/svg">
<path d="M1.41634 16.868C1.42467 16.8596 1.42467 16.8513 1.42467 16.8513L6.00801 12.268C6.01634 12.2596 6.02467 12.2596 6.03301 12.2513C5.50801 11.8846 4.86634 11.668 4.16634 11.668C2.32467 11.668 0.833008 13.1596 0.833008 15.0013C0.833008 15.6263 1.00801 16.218 1.31634 16.718C1.34967 16.768 1.38301 16.818 1.41634 16.868Z" fill="white"/>
<path d="M6.91699 13.125C6.90866 13.1333 6.90866 13.1417 6.90033 13.15L2.31699 17.7333C2.30866 17.7417 2.30033 17.7417 2.29199 17.75C2.82533 18.1167 3.46699 18.3333 4.16699 18.3333C5.38366 18.3333 6.44199 17.6833 7.01699 16.7167C7.32533 16.2167 7.50033 15.625 7.50033 15C7.50033 14.3 7.28366 13.6583 6.91699 13.125Z" fill="white"/>
<path d="M14.167 3.33203H5.83366C3.33366 3.33203 1.66699 4.58203 1.66699 7.4987V10.4654C1.66699 10.7737 1.98366 10.9654 2.25866 10.8404C3.07533 10.4654 4.01699 10.3237 5.00866 10.4987C7.20033 10.8904 8.80866 12.9237 8.75033 15.1487C8.74199 15.4987 8.69199 15.8404 8.60033 16.1737C8.53366 16.432 8.74199 16.6737 9.00866 16.6737H14.167C16.667 16.6737 18.3337 15.4237 18.3337 12.507V7.4987C18.3337 4.58203 16.667 3.33203 14.167 3.33203ZM10.0003 12.082C8.85033 12.082 7.91699 11.1487 7.91699 9.9987C7.91699 8.8487 8.85033 7.91536 10.0003 7.91536C11.1503 7.91536 12.0837 8.8487 12.0837 9.9987C12.0837 11.1487 11.1503 12.082 10.0003 12.082ZM16.042 11.6654C16.042 12.007 15.7587 12.2904 15.417 12.2904C15.0753 12.2904 14.792 12.007 14.792 11.6654V8.33203C14.792 7.99036 15.0753 7.70703 15.417 7.70703C15.7587 7.70703 16.042 7.99036 16.042 8.33203V11.6654Z" fill="white"/>
</svg>
