<svg width="20" height="20" viewBox="0 0 20 20" fill="none" xmlns="http://www.w3.org/2000/svg">
<path d="M14.167 3.33203H5.83366C3.33366 3.33203 1.66699 4.58203 1.66699 7.4987V10.4654C1.66699 10.7737 1.98366 10.9654 2.25866 10.8404C3.07533 10.4654 4.01699 10.3237 5.00866 10.4987C7.20033 10.8904 8.80866 12.9237 8.75033 15.1487C8.74199 15.4987 8.69199 15.8404 8.60033 16.1737C8.53366 16.432 8.74199 16.6737 9.00866 16.6737H14.167C16.667 16.6737 18.3337 15.4237 18.3337 12.507V7.4987C18.3337 4.58203 16.667 3.33203 14.167 3.33203ZM10.0003 12.082C8.85033 12.082 7.91699 11.1487 7.91699 9.9987C7.91699 8.8487 8.85033 7.91536 10.0003 7.91536C11.1503 7.91536 12.0837 8.8487 12.0837 9.9987C12.0837 11.1487 11.1503 12.082 10.0003 12.082ZM16.042 11.6654C16.042 12.007 15.7587 12.2904 15.417 12.2904C15.0753 12.2904 14.792 12.007 14.792 11.6654V8.33203C14.792 7.99036 15.0753 7.70703 15.417 7.70703C15.7587 7.70703 16.042 7.99036 16.042 8.33203V11.6654Z" fill="white"/>
<path d="M4.16634 11.668C3.12467 11.668 2.18301 12.1596 1.57467 12.9096C1.10801 13.4846 0.833008 14.2096 0.833008 15.0013C0.833008 16.843 2.33301 18.3346 4.16634 18.3346C5.61634 18.3346 6.85801 17.4096 7.30801 16.1096C7.43301 15.768 7.49967 15.393 7.49967 15.0013C7.49967 13.168 6.00801 11.668 4.16634 11.668ZM6.13301 16.4513C6.11634 16.5013 6.08301 16.5513 6.04967 16.5846L5.44967 17.1763C5.37467 17.2596 5.27467 17.293 5.16634 17.293C5.05801 17.293 4.94967 17.2596 4.87467 17.1763C4.74134 17.0513 4.72467 16.8513 4.80801 16.7013H3.13301C2.59967 16.7013 2.16634 16.268 2.16634 15.7263V15.643C2.16634 15.4096 2.34967 15.2346 2.57467 15.2346C2.79967 15.2346 2.98301 15.4096 2.98301 15.643V15.7263C2.98301 15.818 3.04967 15.893 3.14134 15.893H4.81634C4.73301 15.7346 4.74967 15.543 4.88301 15.4096C5.04134 15.2513 5.29967 15.2513 5.44967 15.4096L6.04967 16.0096C6.08301 16.043 6.11634 16.093 6.14134 16.143C6.17467 16.2346 6.17467 16.3513 6.13301 16.4513ZM6.16634 14.3596C6.16634 14.593 5.98301 14.768 5.75801 14.768C5.53301 14.768 5.34967 14.593 5.34967 14.3596V14.2763C5.34967 14.1846 5.28301 14.1096 5.19134 14.1096H3.52467C3.60801 14.268 3.59134 14.4596 3.45801 14.593C3.38301 14.668 3.28301 14.7096 3.16634 14.7096C3.06634 14.7096 2.95801 14.668 2.88301 14.593L2.28301 13.993C2.24967 13.9596 2.21634 13.9096 2.19134 13.8596C2.15801 13.7596 2.15801 13.6513 2.19134 13.5513C2.21634 13.5096 2.24134 13.4513 2.28301 13.418L2.88301 12.8263C3.04134 12.6596 3.29967 12.6596 3.44967 12.8263C3.58301 12.9513 3.59967 13.1513 3.51634 13.3013H5.19134C5.72467 13.3013 6.15801 13.7346 6.15801 14.2763V14.3596H6.16634Z" fill="white"/>
</svg>
