<svg width="20" height="20" viewBox="0 0 20 20" fill="none" xmlns="http://www.w3.org/2000/svg">
<path d="M15.6748 5.20807H16.8081C16.6498 4.98307 16.4831 4.77474 16.3081 4.56641L15.6748 5.20807Z" fill="white"/>
<path d="M15.4337 3.68359C15.2253 3.50859 15.017 3.34193 14.792 3.18359V4.31693L15.4337 3.68359Z" fill="white"/>
<path d="M16.316 4.56589L18.7743 2.10755C19.0159 1.86589 19.0159 1.46589 18.7743 1.22422C18.5326 0.982552 18.1326 0.982552 17.8909 1.22422L15.4326 3.68255C15.7493 3.95755 16.041 4.25755 16.316 4.56589Z" fill="white"/>
<path d="M14.7915 2.5C14.7915 2.15833 14.5081 1.875 14.1665 1.875C13.8331 1.875 13.5665 2.14167 13.5498 2.46667C13.9831 2.675 14.3998 2.90833 14.7915 3.18333V2.5Z" fill="white"/>
<path d="M18.1253 5.83203C18.1253 5.49036 17.8419 5.20703 17.5003 5.20703H16.8086C17.0836 5.5987 17.3253 6.01536 17.5253 6.4487C17.8586 6.43203 18.1253 6.16536 18.1253 5.83203Z" fill="white"/>
<path d="M10.625 12.2917H10.875C11.2 12.2917 11.4583 12 11.4583 11.6417C11.4583 11.1917 11.3333 11.125 11.05 11.025L10.625 10.875V12.2917Z" fill="white"/>
<path d="M17.5337 6.4513C17.5253 6.4513 17.517 6.45964 17.5003 6.45964H14.167C14.0837 6.45964 14.0087 6.44297 13.9253 6.40964C13.7753 6.34297 13.6503 6.2263 13.5837 6.06797C13.5587 5.99297 13.542 5.91797 13.542 5.83464V2.5013C13.542 2.49297 13.5503 2.48464 13.5503 2.46797C12.467 1.95964 11.267 1.66797 10.0003 1.66797C5.40033 1.66797 1.66699 5.4013 1.66699 10.0013C1.66699 14.6013 5.40033 18.3346 10.0003 18.3346C14.6003 18.3346 18.3337 14.6013 18.3337 10.0013C18.3337 8.73464 18.042 7.53464 17.5337 6.4513ZM11.4587 9.8513C11.992 10.0346 12.7087 10.4263 12.7087 11.6513C12.7087 12.693 11.8837 13.5513 10.8753 13.5513H10.6253V13.7596C10.6253 14.1013 10.342 14.3846 10.0003 14.3846C9.65866 14.3846 9.37533 14.1013 9.37533 13.7596V13.5513H9.30866C8.20033 13.5513 7.29199 12.618 7.29199 11.468C7.29199 11.118 7.57533 10.8346 7.91699 10.8346C8.25866 10.8346 8.54199 11.118 8.54199 11.4596C8.54199 11.918 8.88366 12.293 9.30866 12.293H9.37533V10.443L8.54199 10.1513C8.00866 9.96797 7.29199 9.5763 7.29199 8.3513C7.29199 7.30964 8.11699 6.4513 9.12533 6.4513H9.37533V6.2513C9.37533 5.90964 9.65866 5.6263 10.0003 5.6263C10.342 5.6263 10.6253 5.90964 10.6253 6.2513V6.45964H10.692C11.8003 6.45964 12.7087 7.39297 12.7087 8.54297C12.7087 8.88464 12.4253 9.16797 12.0837 9.16797C11.742 9.16797 11.4587 8.88464 11.4587 8.54297C11.4587 8.08464 11.117 7.70964 10.692 7.70964H10.6253V9.55964L11.4587 9.8513Z" fill="white"/>
<path d="M8.54199 8.35703C8.54199 8.80703 8.66699 8.8737 8.95033 8.9737L9.37533 9.1237V7.70703H9.12533C8.80866 7.70703 8.54199 7.9987 8.54199 8.35703Z" fill="white"/>
</svg>
