<svg width="20" height="20" viewBox="0 0 20 20" fill="none" xmlns="http://www.w3.org/2000/svg">
<path d="M14.167 3.33203H5.83366C3.33366 3.33203 1.66699 4.58203 1.66699 7.4987V10.4654C1.66699 10.7737 1.98366 10.9654 2.25866 10.8404C3.07533 10.4654 4.01699 10.3237 5.00866 10.4987C7.20033 10.8904 8.80866 12.9237 8.75033 15.1487C8.74199 15.4987 8.69199 15.8404 8.60033 16.1737C8.53366 16.432 8.74199 16.6737 9.00866 16.6737H14.167C16.667 16.6737 18.3337 15.4237 18.3337 12.507V7.4987C18.3337 4.58203 16.667 3.33203 14.167 3.33203ZM10.0003 12.082C8.85033 12.082 7.91699 11.1487 7.91699 9.9987C7.91699 8.8487 8.85033 7.91536 10.0003 7.91536C11.1503 7.91536 12.0837 8.8487 12.0837 9.9987C12.0837 11.1487 11.1503 12.082 10.0003 12.082ZM16.042 11.6654C16.042 12.007 15.7587 12.2904 15.417 12.2904C15.0753 12.2904 14.792 12.007 14.792 11.6654V8.33203C14.792 7.99036 15.0753 7.70703 15.417 7.70703C15.7587 7.70703 16.042 7.99036 16.042 8.33203V11.6654Z" fill="white"/>
<path d="M4.16634 11.668C3.16634 11.668 2.27467 12.1096 1.66634 12.8013C1.14967 13.393 0.833008 14.1596 0.833008 15.0013C0.833008 15.6263 1.00801 16.218 1.31634 16.718C1.89134 17.6846 2.94967 18.3346 4.16634 18.3346C5.00801 18.3346 5.77467 18.0263 6.35801 17.5013C6.61634 17.2846 6.84134 17.018 7.01634 16.718C7.32467 16.218 7.49967 15.6263 7.49967 15.0013C7.49967 13.1596 6.00801 11.668 4.16634 11.668ZM5.49967 16.318C5.37467 16.443 5.21634 16.5013 5.05801 16.5013C4.89967 16.5013 4.74134 16.443 4.61634 16.318L4.17467 15.8763L3.71634 16.3346C3.59134 16.4596 3.43301 16.518 3.27467 16.518C3.11634 16.518 2.95801 16.4596 2.83301 16.3346C2.59134 16.093 2.59134 15.693 2.83301 15.4513L3.29134 14.993L2.84967 14.5513C2.60801 14.3096 2.60801 13.9096 2.84967 13.668C3.09134 13.4263 3.49134 13.4263 3.73301 13.668L4.17467 14.1096L4.59134 13.693C4.83301 13.4513 5.23301 13.4513 5.47467 13.693C5.71634 13.9346 5.71634 14.3346 5.47467 14.5763L5.05801 14.993L5.49967 15.4346C5.74134 15.6763 5.74134 16.068 5.49967 16.318Z" fill="white"/>
</svg>
