<svg width="20" height="20" viewBox="0 0 20 20" fill="none" xmlns="http://www.w3.org/2000/svg">
<path d="M14.167 3.33203H5.83366C3.33366 3.33203 1.66699 4.58203 1.66699 7.4987V10.4654C1.66699 10.7737 1.98366 10.9654 2.25866 10.8404C3.07533 10.4654 4.01699 10.3237 5.00866 10.4987C7.20033 10.8904 8.80866 12.9237 8.75033 15.1487C8.74199 15.4987 8.69199 15.8404 8.60033 16.1737C8.53366 16.432 8.74199 16.6737 9.00866 16.6737H14.167C16.667 16.6737 18.3337 15.4237 18.3337 12.507V7.4987C18.3337 4.58203 16.667 3.33203 14.167 3.33203ZM10.0003 12.082C8.85033 12.082 7.91699 11.1487 7.91699 9.9987C7.91699 8.8487 8.85033 7.91536 10.0003 7.91536C11.1503 7.91536 12.0837 8.8487 12.0837 9.9987C12.0837 11.1487 11.1503 12.082 10.0003 12.082ZM16.042 11.6654C16.042 12.007 15.7587 12.2904 15.417 12.2904C15.0753 12.2904 14.792 12.007 14.792 11.6654V8.33203C14.792 7.99036 15.0753 7.70703 15.417 7.70703C15.7587 7.70703 16.042 7.99036 16.042 8.33203V11.6654Z" fill="white"/>
<path d="M4.16634 11.668C2.32467 11.668 0.833008 13.1596 0.833008 15.0013C0.833008 15.6263 1.00801 16.218 1.31634 16.718C1.89134 17.6846 2.94967 18.3346 4.16634 18.3346C5.38301 18.3346 6.44134 17.6846 7.01634 16.718C7.32467 16.218 7.49967 15.6263 7.49967 15.0013C7.49967 13.1596 6.00801 11.668 4.16634 11.668ZM5.40801 15.6096H4.79134V16.2596C4.79134 16.6013 4.50801 16.8846 4.16634 16.8846C3.82467 16.8846 3.54134 16.6013 3.54134 16.2596V15.6096H2.92467C2.58301 15.6096 2.29967 15.3263 2.29967 14.9846C2.29967 14.643 2.58301 14.3596 2.92467 14.3596H3.54134V13.768C3.54134 13.4263 3.82467 13.143 4.16634 13.143C4.50801 13.143 4.79134 13.4263 4.79134 13.768V14.3596H5.40801C5.74967 14.3596 6.03301 14.643 6.03301 14.9846C6.03301 15.3263 5.75801 15.6096 5.40801 15.6096Z" fill="white"/>
</svg>
