<svg width="20" height="20" viewBox="0 0 20 20" fill="none" xmlns="http://www.w3.org/2000/svg">
<path d="M10 12.5C11.3807 12.5 12.5 11.3807 12.5 10C12.5 8.61925 11.3807 7.5 10 7.5C8.61925 7.5 7.5 8.61925 7.5 10C7.5 11.3807 8.61925 12.5 10 12.5Z" fill="white"/>
<path d="M14.167 2.91797H5.83366C3.33366 2.91797 1.66699 4.16797 1.66699 7.08464V7.5013V12.5013V12.918C1.66699 15.8346 3.33366 17.0846 5.83366 17.0846H14.167C16.667 17.0846 18.3337 15.8346 18.3337 12.918V12.5013V7.5013V7.08464C18.3337 4.16797 16.667 2.91797 14.167 2.91797ZM5.83366 15.8346C5.83366 13.4846 5.07533 12.618 2.91699 12.518V12.5013V7.5013V7.48464C5.07533 7.38464 5.83366 6.51797 5.83366 4.16797H14.167C14.167 6.51797 14.9253 7.38464 17.0837 7.48464V7.5013V12.5013V12.518C14.9253 12.618 14.167 13.4846 14.167 15.8346H5.83366Z" fill="white"/>
</svg>
