<svg width="20" height="20" viewBox="0 0 20 20" fill="none" xmlns="http://www.w3.org/2000/svg">
<path d="M8.54199 8.35703C8.54199 8.80703 8.66699 8.8737 8.95033 8.9737L9.37533 9.1237V7.70703H9.12533C8.80866 7.70703 8.54199 7.9987 8.54199 8.35703Z" fill="white"/>
<path d="M10.625 12.2917H10.875C11.2 12.2917 11.4583 12 11.4583 11.6417C11.4583 11.1917 11.3333 11.125 11.05 11.025L10.625 10.875V12.2917Z" fill="white"/>
<path d="M16.317 4.56797L14.6087 6.2763C14.4837 6.4013 14.3253 6.45964 14.167 6.45964C14.0087 6.45964 13.8503 6.4013 13.7253 6.2763C13.4837 6.03464 13.4837 5.63464 13.7253 5.39297L15.4337 3.68464C13.967 2.43464 12.0753 1.66797 10.0003 1.66797C5.40033 1.66797 1.66699 5.4013 1.66699 10.0013C1.66699 14.6013 5.40033 18.3346 10.0003 18.3346C14.6003 18.3346 18.3337 14.6013 18.3337 10.0013C18.3337 7.9263 17.567 6.03464 16.317 4.56797ZM11.4587 9.8513C11.992 10.043 12.7087 10.4263 12.7087 11.6513C12.7087 12.693 11.8837 13.5513 10.8753 13.5513H10.6253V13.7596C10.6253 14.1013 10.342 14.3846 10.0003 14.3846C9.65866 14.3846 9.37533 14.1013 9.37533 13.7596V13.5513H9.30866C8.20033 13.5513 7.29199 12.618 7.29199 11.468C7.29199 11.118 7.57533 10.8346 7.91699 10.8346C8.25866 10.8346 8.54199 11.118 8.54199 11.4596C8.54199 11.918 8.88366 12.293 9.30866 12.293H9.37533V10.443L8.54199 10.1513C8.00866 9.95964 7.29199 9.5763 7.29199 8.3513C7.29199 7.30964 8.11699 6.4513 9.12533 6.4513H9.37533V6.2513C9.37533 5.90964 9.65866 5.6263 10.0003 5.6263C10.342 5.6263 10.6253 5.90964 10.6253 6.2513V6.45964H10.692C11.8003 6.45964 12.7087 7.39297 12.7087 8.54297C12.7087 8.88464 12.4253 9.16797 12.0837 9.16797C11.742 9.16797 11.4587 8.88464 11.4587 8.54297C11.4587 8.08464 11.117 7.70964 10.692 7.70964H10.6253V9.55964L11.4587 9.8513Z" fill="white"/>
<path d="M18.9083 1.4263C18.8417 1.2763 18.725 1.1513 18.5667 1.08464C18.4917 1.05964 18.4167 1.04297 18.3333 1.04297H15C14.6583 1.04297 14.375 1.3263 14.375 1.66797C14.375 2.00964 14.6583 2.29297 15 2.29297H16.825L15.4333 3.68464C15.75 3.95964 16.0417 4.2513 16.3167 4.56797L17.7083 3.1763V5.0013C17.7083 5.34297 17.9917 5.6263 18.3333 5.6263C18.675 5.6263 18.9583 5.34297 18.9583 5.0013V1.66797C18.9583 1.58464 18.9417 1.50964 18.9083 1.4263Z" fill="white"/>
</svg>
