<svg width="20" height="20" viewBox="0 0 20 20" fill="none" xmlns="http://www.w3.org/2000/svg">
<path d="M14.6337 1.66797H5.34199C3.31699 1.66797 1.66699 3.31797 1.66699 5.34297V10.7596V10.9263C1.66699 12.9596 3.31699 14.6013 5.34199 14.6013H8.54199C9.00033 14.6013 9.37533 14.9763 9.37533 15.4346V16.243C9.37533 16.7013 9.00033 17.0763 8.54199 17.0763H6.52533C6.18366 17.0763 5.90033 17.3596 5.90033 17.7013C5.90033 18.043 6.17533 18.3346 6.52533 18.3346H13.4837C13.8253 18.3346 14.1087 18.0513 14.1087 17.7096C14.1087 17.368 13.8253 17.0846 13.4837 17.0846H11.467C11.0087 17.0846 10.6337 16.7096 10.6337 16.2513V15.443C10.6337 14.9846 11.0087 14.6096 11.467 14.6096H14.642C16.6753 14.6096 18.317 12.9596 18.317 10.9346V10.768V5.3513C18.3087 3.31797 16.6587 1.66797 14.6337 1.66797Z" fill="white"/>
</svg>
