<svg width="20" height="20" viewBox="0 0 20 20" fill="none" xmlns="http://www.w3.org/2000/svg">
<path d="M17.4917 8.09297C17.2083 7.9763 16.8333 7.91797 16.3667 7.91797H11.9667C10.5167 7.91797 10 8.43464 10 9.9013V16.3513C10 16.8346 10.0583 17.2096 10.1833 17.5013C10.4417 18.1013 10.9917 18.3346 11.9667 18.3346H16.3667C17.8167 18.3346 18.3333 17.8096 18.3333 16.3513V9.9013C18.3333 8.90964 18.1 8.3513 17.4917 8.09297ZM15 16.4596H13.3333C13.3167 16.4596 13.2917 16.4596 13.275 16.4513C13.15 16.443 13.0417 16.4013 12.95 16.318C12.8 16.2096 12.7083 16.0346 12.7083 15.8346C12.7083 15.493 12.9917 15.2096 13.3333 15.2096H15C15.3417 15.2096 15.625 15.493 15.625 15.8346C15.625 16.1763 15.3417 16.4596 15 16.4596Z" fill="white"/>
<path d="M17.4915 5.15964V5.83464C17.4915 6.29297 17.1165 6.66797 16.6582 6.66797H11.9665C9.83316 6.66797 8.74983 7.75964 8.74983 9.9013V17.5013C8.74983 17.9596 8.37483 18.3346 7.91647 18.3346H6.29147C5.95814 18.3346 5.69147 18.068 5.69147 17.743C5.69147 17.4096 5.95814 17.1513 6.29147 17.1513H7.91647V13.9596H4.9998C3.1498 13.868 1.6748 12.343 1.6748 10.468V5.15964C1.6748 3.23464 3.24147 1.66797 5.1748 1.66797H13.9998C15.9248 1.66797 17.4915 3.23464 17.4915 5.15964Z" fill="white"/>
</svg>
