<svg width="20" height="20" viewBox="0 0 20 20" fill="none" xmlns="http://www.w3.org/2000/svg">
<path d="M17.4753 8.64167V11.3C17.4753 13.2333 15.9087 14.8 13.9753 14.8H11.0087C10.5503 14.8 10.1753 15.1667 10.1753 15.6333V16.3167C10.1753 16.775 10.5503 17.15 11.0087 17.15H12.892C13.217 17.15 13.4837 17.4083 13.4837 17.7417C13.4837 18.0667 13.217 18.3333 12.892 18.3333H6.27533C5.95033 18.3333 5.68366 18.0667 5.68366 17.7417C5.68366 17.4083 5.95033 17.15 6.27533 17.15H8.15866C8.61699 17.15 8.99199 16.775 8.99199 16.3167V15.6333C8.99199 15.1667 8.61699 14.8 8.15866 14.8H5.15866C3.23366 14.8 1.66699 13.2333 1.66699 11.3V5.99167C1.66699 4.06667 3.23366 2.5 5.15866 2.5H8.75033C9.20866 2.5 9.58366 2.875 9.58366 3.33333V5.125C9.58366 6.73333 10.6587 7.80833 12.2587 7.80833H16.642C17.1003 7.80833 17.4753 8.18333 17.4753 8.64167Z" fill="white"/>
<path d="M18.3247 1.9683L17.383 2.62664V2.27664C17.383 1.48497 16.7413 0.851636 15.958 0.851636H12.3913C11.533 0.843303 10.833 1.5433 10.833 2.40164V5.13497C10.833 5.85164 11.1913 6.55997 12.258 6.55997H15.9497C16.7413 6.55997 17.3747 5.9183 17.3747 5.13497V4.77664L18.3163 5.43497C18.7913 5.75997 19.1663 5.55997 19.1663 4.9933V2.40997C19.1663 1.8433 18.7913 1.65164 18.3247 1.9683Z" fill="white"/>
</svg>
