<svg width="20" height="20" viewBox="0 0 20 20" fill="none" xmlns="http://www.w3.org/2000/svg">
<path d="M13.492 1.66797H6.50866C3.47533 1.66797 1.66699 3.4763 1.66699 6.50964V13.4846C1.66699 16.5263 3.47533 18.3346 6.50866 18.3346H13.4837C16.517 18.3346 18.3253 16.5263 18.3253 13.493V6.50964C18.3337 3.4763 16.5253 1.66797 13.492 1.66797ZM6.66699 10.8346C6.20033 10.8346 5.83366 10.4596 5.83366 10.0013C5.83366 9.54297 6.20866 9.16797 6.66699 9.16797C7.12533 9.16797 7.50033 9.54297 7.50033 10.0013C7.50033 10.4596 7.13366 10.8346 6.66699 10.8346ZM10.0003 10.8346C9.53366 10.8346 9.16699 10.4596 9.16699 10.0013C9.16699 9.54297 9.54199 9.16797 10.0003 9.16797C10.4587 9.16797 10.8337 9.54297 10.8337 10.0013C10.8337 10.4596 10.467 10.8346 10.0003 10.8346ZM13.3337 10.8346C12.867 10.8346 12.5003 10.4596 12.5003 10.0013C12.5003 9.54297 12.8753 9.16797 13.3337 9.16797C13.792 9.16797 14.167 9.54297 14.167 10.0013C14.167 10.4596 13.8003 10.8346 13.3337 10.8346Z" fill="white"/>
</svg>
