<svg width="20" height="20" viewBox="0 0 20 20" fill="none" xmlns="http://www.w3.org/2000/svg">
<path opacity="0.97" d="M13.492 1.66797H6.50866C3.47533 1.66797 1.66699 3.4763 1.66699 6.50964V13.4846C1.66699 16.5263 3.47533 18.3346 6.50866 18.3346H13.4837C16.517 18.3346 18.3253 16.5263 18.3253 13.493V6.50964C18.3337 3.4763 16.5253 1.66797 13.492 1.66797ZM6.92533 13.593C6.32533 13.593 5.83366 13.1013 5.83366 12.5013C5.83366 11.9013 6.32533 11.4096 6.92533 11.4096C7.52533 11.4096 8.01699 11.9013 8.01699 12.5013C8.01699 13.1013 7.52533 13.593 6.92533 13.593ZM10.0003 8.59297C9.40033 8.59297 8.90866 8.1013 8.90866 7.5013C8.90866 6.9013 9.40033 6.40964 10.0003 6.40964C10.6003 6.40964 11.092 6.9013 11.092 7.5013C11.092 8.1013 10.6003 8.59297 10.0003 8.59297ZM13.0753 13.593C12.4753 13.593 11.9837 13.1013 11.9837 12.5013C11.9837 11.9013 12.4753 11.4096 13.0753 11.4096C13.6753 11.4096 14.167 11.9013 14.167 12.5013C14.167 13.1013 13.6753 13.593 13.0753 13.593Z" fill="white"/>
</svg>
