<svg width="20" height="20" viewBox="0 0 20 20" fill="none" xmlns="http://www.w3.org/2000/svg">
<path d="M13.492 1.66797H6.50866C3.47533 1.66797 1.66699 3.4763 1.66699 6.50964V13.4846C1.66699 16.5263 3.47533 18.3346 6.50866 18.3346H13.4837C16.517 18.3346 18.3253 16.5263 18.3253 13.493V6.50964C18.3337 3.4763 16.5253 1.66797 13.492 1.66797ZM5.83366 11.093C5.23366 11.093 4.74199 10.6013 4.74199 10.0013C4.74199 9.4013 5.23366 8.90963 5.83366 8.90963C6.43366 8.90963 6.92533 9.4013 6.92533 10.0013C6.92533 10.6013 6.43366 11.093 5.83366 11.093ZM10.0003 11.093C9.40033 11.093 8.90866 10.6013 8.90866 10.0013C8.90866 9.4013 9.40033 8.90963 10.0003 8.90963C10.6003 8.90963 11.092 9.4013 11.092 10.0013C11.092 10.6013 10.6003 11.093 10.0003 11.093ZM14.167 11.093C13.567 11.093 13.0753 10.6013 13.0753 10.0013C13.0753 9.4013 13.567 8.90963 14.167 8.90963C14.767 8.90963 15.2587 9.4013 15.2587 10.0013C15.2587 10.6013 14.767 11.093 14.167 11.093Z" fill="white"/>
</svg>
