<svg width="20" height="20" viewBox="0 0 20 20" fill="none" xmlns="http://www.w3.org/2000/svg">
<path d="M10.0003 1.66797C5.40033 1.66797 1.66699 5.4013 1.66699 10.0013C1.66699 14.6013 5.40033 18.3346 10.0003 18.3346C14.6003 18.3346 18.3337 14.6013 18.3337 10.0013C18.3337 5.4013 14.6003 1.66797 10.0003 1.66797ZM13.4587 10.693L12.017 11.1763C11.617 11.3096 11.3087 11.618 11.1753 12.018L10.692 13.4596C10.2837 14.7013 8.53366 14.6763 8.15033 13.4346L6.52533 8.2013C6.20866 7.15964 7.16699 6.2013 8.19199 6.51797L13.4337 8.14297C14.6753 8.53464 14.692 10.2846 13.4587 10.693Z" fill="white"/>
</svg>
