<svg width="20" height="20" viewBox="0 0 20 20" fill="none" xmlns="http://www.w3.org/2000/svg">
<path d="M11.0815 1.76375C10.8387 1.72101 10.625 1.91479 10.625 2.16139V4.54537C10.625 4.71067 10.7257 4.85622 10.8632 4.94804C11.2826 5.2282 11.5583 5.70649 11.5583 6.25073V7.9174C11.5583 8.77577 10.8583 9.4841 10 9.4841C9.13333 9.4841 8.43333 8.77577 8.43333 7.9174V6.25073C8.43333 5.70633 8.71525 5.22792 9.13658 4.9478C9.27425 4.85628 9.375 4.71067 9.375 4.54537V2.16192C9.375 1.91513 9.16125 1.72127 8.91825 1.76412C7.62702 1.9918 6.47149 2.61257 5.58333 3.50073C4.45 4.63407 3.75 6.20073 3.75 7.9174V12.0841C3.75 15.5258 6.55833 18.3341 10 18.3341C13.4417 18.3341 16.25 15.5258 16.25 12.0841V7.9174C16.25 4.84199 14.0108 2.27925 11.0815 1.76375Z" fill="white"/>
</svg>
