<svg width="20" height="20" viewBox="0 0 20 20" fill="none" xmlns="http://www.w3.org/2000/svg">
<path d="M17.5003 6.26797V11.168C17.5003 11.4513 17.2253 11.6513 16.9587 11.568L13.6837 10.5513C12.7837 10.2763 11.817 10.5096 11.1587 11.168C10.492 11.8346 10.2503 12.8096 10.5337 13.7096L11.542 16.9596C11.6253 17.2263 11.4253 17.5013 11.142 17.5013H6.26699C3.39199 17.5013 1.66699 15.7846 1.66699 12.9013V6.26797C1.66699 3.38464 3.39199 1.66797 6.26699 1.66797H12.9003C15.7753 1.66797 17.5003 3.38464 17.5003 6.26797Z" fill="white"/>
<path d="M18.2997 15.6988L16.9414 16.1571C16.5664 16.2821 16.2664 16.5738 16.1414 16.9571L15.6831 18.3154C15.2914 19.4904 13.6414 19.4654 13.2747 18.2904L11.7331 13.3321C11.4331 12.3488 12.3414 11.4321 13.3164 11.7404L18.2831 13.2821C19.4497 13.6488 19.4664 15.3071 18.2997 15.6988Z" fill="white"/>
</svg>
