<svg width="20" height="20" viewBox="0 0 20 20" fill="none" xmlns="http://www.w3.org/2000/svg">
<path d="M12.1159 11.3906C11.8159 11.3906 11.5742 11.6323 11.5742 11.9323C11.5742 12.2323 11.8159 12.474 12.1159 12.474C12.4159 12.474 12.6576 12.2323 12.6576 11.9323C12.6492 11.6323 12.4076 11.3906 12.1159 11.3906Z" fill="white"/>
<path d="M7.55046 12.2188C7.25046 12.2188 7.00879 12.4604 7.00879 12.7604C7.00879 13.0604 7.25046 13.3021 7.55046 13.3021C7.85046 13.3021 8.09212 13.0604 8.09212 12.7604C8.09212 12.4604 7.85046 12.2188 7.55046 12.2188Z" fill="white"/>
<path d="M13.492 1.66797H6.50866C3.47533 1.66797 1.66699 3.4763 1.66699 6.50964V13.4846C1.66699 16.5263 3.47533 18.3346 6.50866 18.3346H13.4837C16.517 18.3346 18.3253 16.5263 18.3253 13.493V6.50964C18.3337 3.4763 16.5253 1.66797 13.492 1.66797ZM14.067 7.95964V11.9263C14.067 13.0013 13.192 13.8763 12.117 13.8763C11.042 13.8763 10.167 13.0013 10.167 11.9263C10.167 10.8513 11.042 9.9763 12.117 9.9763C12.3087 9.9763 12.4837 10.0096 12.6587 10.0596V8.8763L9.50866 9.73464V12.7513C9.50866 12.7596 9.50033 12.768 9.50033 12.7763C9.49199 13.843 8.61699 14.7013 7.55033 14.7013C6.47533 14.7013 5.60033 13.8263 5.60033 12.7513C5.60033 11.6763 6.47533 10.8013 7.55033 10.8013C7.74199 10.8013 7.91699 10.8346 8.09199 10.8846V9.19297V7.74297C8.09199 6.93464 8.59199 6.2763 9.37533 6.06797L11.867 5.38464C12.667 5.16797 13.167 5.3763 13.4503 5.59297C13.7253 5.80964 14.067 6.23463 14.067 7.06797V7.95964Z" fill="white"/>
</svg>
