<svg width="20" height="20" viewBox="0 0 20 20" fill="none" xmlns="http://www.w3.org/2000/svg">
<path d="M5.83366 2.70786V17.2912C5.83366 17.8245 5.32533 18.2495 4.80866 18.1078C2.80866 17.5412 1.66699 15.9078 1.66699 13.4912V6.50786C1.66699 4.0912 2.80866 2.45786 4.80866 1.8912C5.32533 1.74953 5.83366 2.1662 5.83366 2.70786Z" fill="white"/>
<path d="M10.3919 11.9727C10.0752 11.9727 9.8252 12.231 9.8252 12.5393C9.8252 12.8477 10.0835 13.106 10.3919 13.106C10.7085 13.106 10.9669 12.8477 10.9669 12.5393C10.9669 12.231 10.7085 11.9727 10.3919 11.9727Z" fill="white"/>
<path d="M14.6004 11.207C14.2837 11.207 14.0254 11.4654 14.0254 11.782C14.0254 12.0987 14.2837 12.3487 14.6004 12.3487C14.9171 12.3487 15.1754 12.0904 15.1754 11.782C15.1754 11.4737 14.9171 11.207 14.6004 11.207Z" fill="white"/>
<path d="M13.4913 1.66797H7.91634C7.45801 1.66797 7.08301 2.04297 7.08301 2.5013V17.5013C7.08301 17.9596 7.45801 18.3346 7.91634 18.3346H13.4913C16.1663 18.3346 18.333 16.168 18.333 13.493V6.50964C18.333 3.83464 16.1663 1.66797 13.4913 1.66797ZM16.333 8.11797V11.7846C16.333 11.793 16.3247 11.8013 16.3247 11.8096C16.308 12.7513 15.5413 13.5096 14.5997 13.5096C13.6497 13.5096 12.8747 12.7346 12.8747 11.7846C12.8747 10.8346 13.6497 10.0596 14.5997 10.0596C14.7997 10.0596 14.9913 10.1013 15.1747 10.168V8.8763L12.1163 9.70963V12.5596C12.1163 12.568 12.108 12.5763 12.108 12.5846C12.0913 13.5263 11.3247 14.2846 10.383 14.2846C9.43301 14.2846 8.65801 13.5096 8.65801 12.5596C8.65801 11.6096 9.43301 10.8346 10.383 10.8346C10.583 10.8346 10.7747 10.8763 10.958 10.943V9.2763V7.91797C10.958 7.2013 11.3997 6.61797 12.0913 6.44297L14.383 5.80964C15.0997 5.61797 15.5413 5.80964 15.7913 6.0013C16.1497 6.2763 16.3247 6.70964 16.3247 7.29297V8.11797H16.333Z" fill="white"/>
</svg>
