<svg width="20" height="20" viewBox="0 0 20 20" fill="none" xmlns="http://www.w3.org/2000/svg">
<path d="M18.3337 3.125H1.66699C1.32533 3.125 1.04199 2.84167 1.04199 2.5C1.04199 2.15833 1.32533 1.875 1.66699 1.875H18.3337C18.6753 1.875 18.9587 2.15833 18.9587 2.5C18.9587 2.84167 18.6753 3.125 18.3337 3.125Z" fill="white"/>
<path d="M9.16699 8.125H1.66699C1.32533 8.125 1.04199 7.84167 1.04199 7.5C1.04199 7.15833 1.32533 6.875 1.66699 6.875H9.16699C9.50866 6.875 9.79199 7.15833 9.79199 7.5C9.79199 7.84167 9.50866 8.125 9.16699 8.125Z" fill="white"/>
<path d="M6.66699 13.125H1.66699C1.32533 13.125 1.04199 12.8417 1.04199 12.5C1.04199 12.1583 1.32533 11.875 1.66699 11.875H6.66699C7.00866 11.875 7.29199 12.1583 7.29199 12.5C7.29199 12.8417 7.00866 13.125 6.66699 13.125Z" fill="white"/>
<path d="M5.00033 18.125H1.66699C1.32533 18.125 1.04199 17.8417 1.04199 17.5C1.04199 17.1583 1.32533 16.875 1.66699 16.875H5.00033C5.34199 16.875 5.62533 17.1583 5.62533 17.5C5.62533 17.8417 5.34199 18.125 5.00033 18.125Z" fill="white"/>
<path d="M18.2165 6.4005C17.7248 6.0255 17.0498 5.9505 16.2582 6.16717L12.6332 7.1505C11.6582 7.41717 11.0582 8.20883 11.0582 9.20882V11.3338V14.4005C10.7082 14.2005 10.2998 14.0755 9.86651 14.0755C8.52484 14.0755 7.4248 15.1672 7.4248 16.5172C7.4248 17.8588 8.51651 18.9588 9.86651 18.9588C11.2165 18.9588 12.3082 17.8672 12.3082 16.5172V11.8088L17.7082 10.3338V13.1922C17.3582 12.9922 16.9498 12.8672 16.5165 12.8672C15.1748 12.8672 14.0748 13.9588 14.0748 15.3088C14.0748 16.6505 15.1665 17.7505 16.5165 17.7505C17.8665 17.7505 18.9582 16.6588 18.9582 15.3088V9.51716V8.2255C18.9582 7.38383 18.7082 6.76717 18.2165 6.4005ZM9.86651 17.7088C9.20817 17.7088 8.67484 17.1755 8.67484 16.5172C8.67484 15.8588 9.20817 15.3255 9.86651 15.3255C10.5248 15.3255 11.0582 15.8588 11.0582 16.5172C11.0582 17.1755 10.5248 17.7088 9.86651 17.7088ZM16.5165 16.5005C15.8582 16.5005 15.3248 15.9672 15.3248 15.3088C15.3248 14.6505 15.8582 14.1172 16.5165 14.1172C17.1748 14.1172 17.7082 14.6505 17.7082 15.3088C17.7082 15.9672 17.1748 16.5005 16.5165 16.5005Z" fill="white"/>
</svg>
