<svg width="20" height="20" viewBox="0 0 20 20" fill="none" xmlns="http://www.w3.org/2000/svg">
<path d="M14.167 3.95703H13.3337V2.71536C13.3337 2.0237 12.767 1.45703 12.0753 1.45703H7.92533C7.23366 1.45703 6.66699 2.0237 6.66699 2.71536V3.95703H5.83366C4.91699 3.95703 4.16699 4.70703 4.16699 5.6237V5.73203C4.43366 5.65703 4.70866 5.6237 5.00033 5.6237H15.0003C15.292 5.6237 15.567 5.65703 15.8337 5.73203V5.6237C15.8337 4.70703 15.0837 3.95703 14.167 3.95703Z" fill="white"/>
<path d="M11.6088 14.1094C11.3421 14.1094 11.1338 14.326 11.1338 14.5844C11.1338 14.8427 11.3505 15.0594 11.6088 15.0594C11.8671 15.0594 12.0838 14.8427 12.0838 14.5844C12.0838 14.326 11.8671 14.1094 11.6088 14.1094Z" fill="white"/>
<path d="M7.55801 14.8438C7.29134 14.8438 7.08301 15.0604 7.08301 15.3188C7.08301 15.5771 7.29967 15.7938 7.55801 15.7938C7.81634 15.7938 8.03301 15.5771 8.03301 15.3188C8.03301 15.0604 7.82467 14.8438 7.55801 14.8438Z" fill="white"/>
<path d="M15.8337 6.98333C15.567 6.90833 15.292 6.875 15.0003 6.875H5.00033C4.70866 6.875 4.43366 6.90833 4.16699 6.98333C2.73366 7.35833 1.66699 8.66667 1.66699 10.2083V15.2083C1.66699 17.0417 3.16699 18.5417 5.00033 18.5417H15.0003C16.8337 18.5417 18.3337 17.0417 18.3337 15.2083V10.2083C18.3337 8.66667 17.267 7.35833 15.8337 6.98333ZM13.3337 11.0667V14.5833C13.3337 15.5333 12.5587 16.3083 11.6087 16.3083C10.6587 16.3083 9.88366 15.5333 9.88366 14.5833C9.88366 13.6333 10.6587 12.8583 11.6087 12.8583C11.7753 12.8583 11.9337 12.8917 12.0837 12.9333V11.8833L9.29199 12.6417V15.3167C9.29199 15.325 9.29199 15.3333 9.28366 15.3417C9.27533 16.2833 8.50033 17.05 7.55866 17.05C6.60866 17.05 5.83366 16.275 5.83366 15.3167C5.83366 14.3583 6.60866 13.5917 7.55866 13.5917C7.72533 13.5917 7.88366 13.625 8.04199 13.6667V12.1667V10.875C8.04199 10.1583 8.49199 9.575 9.17533 9.39167L11.3837 8.78333C12.092 8.59167 12.542 8.775 12.792 8.96667C13.042 9.15833 13.3337 9.53333 13.3337 10.275V11.0667Z" fill="white"/>
</svg>
