<svg width="20" height="20" viewBox="0 0 20 20" fill="none" xmlns="http://www.w3.org/2000/svg">
<path d="M18.992 18.1346L18.392 17.5346C18.7003 17.068 18.8837 16.5013 18.8837 15.9013C18.8837 14.2513 17.5503 12.918 15.9003 12.918C14.2503 12.918 12.917 14.2513 12.917 15.9013C12.917 17.5513 14.2503 18.8846 15.9003 18.8846C16.5087 18.8846 17.067 18.7013 17.5337 18.393L18.1337 18.993C18.2503 19.1096 18.4087 19.168 18.5587 19.168C18.717 19.168 18.867 19.1096 18.9837 18.993C19.2253 18.7513 19.2253 18.368 18.992 18.1346Z" fill="white"/>
<path d="M10.1919 10.0586C9.8502 10.0586 9.5752 10.3336 9.5752 10.6753C9.5752 11.0169 9.8502 11.2919 10.1919 11.2919C10.5335 11.2919 10.8085 11.0169 10.8085 10.6753C10.8085 10.3336 10.5335 10.0586 10.1919 10.0586Z" fill="white"/>
<path d="M5.63327 10.8828C5.2916 10.8828 5.0166 11.1578 5.0166 11.4995C5.0166 11.8411 5.2916 12.1161 5.63327 12.1161C5.97494 12.1161 6.24993 11.8411 6.24993 11.4995C6.24993 11.1578 5.97494 10.8828 5.63327 10.8828Z" fill="white"/>
<path d="M13.492 1.66797H6.50866C6.27533 1.66797 6.05033 1.6763 5.83366 1.70964C3.20866 1.9513 1.66699 3.70964 1.66699 6.50964V13.493C1.66699 16.293 3.20866 18.0513 5.83366 18.293C6.05033 18.3263 6.27533 18.3346 6.50866 18.3346H11.2503C11.5753 18.3346 11.7837 17.968 11.6587 17.668C11.417 17.093 11.2503 16.4263 11.2503 15.8346C11.2503 13.3096 13.3087 11.2513 15.8337 11.2513C16.467 11.2513 17.0837 11.3763 17.6503 11.6263C17.9587 11.7596 18.3337 11.5513 18.3337 11.218V6.50964C18.3337 3.4763 16.5253 1.66797 13.492 1.66797ZM12.067 6.70964V10.6763C12.067 10.6846 12.0587 10.693 12.0587 10.7096C12.042 11.7263 11.217 12.5513 10.192 12.5513C9.15866 12.5513 8.32533 11.7096 8.32533 10.6846C8.32533 9.6513 9.16699 8.81797 10.192 8.81797C10.4087 8.81797 10.617 8.85964 10.817 8.93464V7.5263L7.50866 8.4263V11.5096C7.50866 11.518 7.50033 11.5263 7.50033 11.5346C7.48366 12.5513 6.65866 13.368 5.63366 13.368C4.60033 13.368 3.76699 12.5263 3.76699 11.5013C3.76699 10.4763 4.60866 9.63464 5.63366 9.63464C5.85033 9.63464 6.05866 9.6763 6.25033 9.7513V7.9513V6.49297C6.25033 5.71797 6.73366 5.09297 7.47533 4.89297L9.95866 4.20964C10.7337 4.0013 11.2087 4.20964 11.4753 4.40964C11.8587 4.7013 12.0503 5.1763 12.0503 5.80964V6.70964H12.067Z" fill="white"/>
</svg>
