<svg width="20" height="20" viewBox="0 0 20 20" fill="none" xmlns="http://www.w3.org/2000/svg">
<path d="M15 4.375H5C4.65833 4.375 4.375 4.09167 4.375 3.75C4.375 3.40833 4.65833 3.125 5 3.125H15C15.3417 3.125 15.625 3.40833 15.625 3.75C15.625 4.09167 15.3417 4.375 15 4.375Z" fill="white"/>
<path d="M12.5 2.29297H7.5C7.15833 2.29297 6.875 2.00964 6.875 1.66797C6.875 1.3263 7.15833 1.04297 7.5 1.04297H12.5C12.8417 1.04297 13.125 1.3263 13.125 1.66797C13.125 2.00964 12.8417 2.29297 12.5 2.29297Z" fill="white"/>
<path d="M11.5919 13.5078C11.3085 13.5078 11.0752 13.7411 11.0752 14.0245C11.0752 14.3078 11.3085 14.5411 11.5919 14.5411C11.8752 14.5411 12.1085 14.3078 12.1085 14.0245C12.1085 13.7411 11.8752 13.5078 11.5919 13.5078Z" fill="white"/>
<path d="M7.92493 14.7857C7.92493 14.5023 7.6916 14.2773 7.40827 14.2773C7.12493 14.2773 6.8916 14.5107 6.8916 14.794C6.8916 15.0773 7.12493 15.3107 7.40827 15.3107C7.6916 15.3023 7.92493 15.069 7.92493 14.7857Z" fill="white"/>
<path d="M15.0003 5.83203H5.00033C3.16699 5.83203 1.66699 7.33203 1.66699 9.16536V14.9987C1.66699 16.832 3.16699 18.332 5.00033 18.332H15.0003C16.8337 18.332 18.3337 16.832 18.3337 14.9987V9.16536C18.3337 7.33203 16.8337 5.83203 15.0003 5.83203ZM13.3587 10.382V14.0237C13.3587 14.0404 13.3503 14.0487 13.3503 14.0654C13.3253 15.0154 12.5503 15.7904 11.592 15.7904C10.617 15.7904 9.82533 14.9987 9.82533 14.0237C9.82533 13.0487 10.617 12.257 11.592 12.257C11.7753 12.257 11.942 12.2904 12.1087 12.3404V11.1987L9.17533 11.9987V14.7737V14.782C9.17533 15.757 8.38366 16.5487 7.40866 16.5487C6.43366 16.5487 5.64199 15.757 5.64199 14.782C5.64199 13.807 6.43366 13.0154 7.40866 13.0154C7.59199 13.0154 7.75866 13.0487 7.92533 13.0987V11.5154V10.182C7.92533 9.44036 8.38366 8.84036 9.09199 8.65703L11.367 8.03203C12.1003 7.84036 12.5503 8.03203 12.8087 8.23203C13.0587 8.4237 13.3587 8.81536 13.3587 9.55703V10.382Z" fill="white"/>
</svg>
