<svg width="20" height="20" viewBox="0 0 20 20" fill="none" xmlns="http://www.w3.org/2000/svg">
<path d="M2.15002 7.85005C2.08335 7.85005 2.00835 7.84172 1.94168 7.81672C1.61668 7.70005 1.45002 7.34172 1.55835 7.01672C2.11668 5.45005 3.08335 4.07505 4.37502 3.03339C4.64168 2.81672 5.03335 2.85839 5.25002 3.12505C5.46668 3.39172 5.42502 3.78339 5.15835 4.00839C4.05835 4.90005 3.21668 6.08339 2.74168 7.43339C2.65002 7.69172 2.40835 7.85005 2.15002 7.85005Z" fill="white"/>
<path d="M2.15033 13.4C1.89199 13.4 1.65033 13.2417 1.55866 12.9833C1.21699 12.0167 1.04199 11.0083 1.04199 10C1.04199 9.65833 1.32533 9.375 1.66699 9.375C2.00866 9.375 2.29199 9.65833 2.29199 10C2.29199 10.8667 2.44199 11.7333 2.74199 12.5667C2.85866 12.8917 2.68366 13.25 2.35866 13.3667C2.29199 13.3917 2.21699 13.4 2.15033 13.4Z" fill="white"/>
<path d="M9.9995 18.9577C9.11617 18.9577 8.24119 18.8243 7.39119 18.566C7.05785 18.466 6.87452 18.116 6.97452 17.7827C7.07452 17.4493 7.42452 17.266 7.75785 17.366C8.48284 17.591 9.24117 17.6993 9.9995 17.6993C14.2495 17.6993 17.7078 14.241 17.7078 9.99101C17.7078 9.55768 17.6662 9.10768 17.5828 8.63268C17.5245 8.29097 17.7495 7.96597 18.0912 7.90764C18.4245 7.8493 18.7578 8.0743 18.8162 8.41601C18.9162 8.96601 18.9662 9.48268 18.9662 9.99934C18.9578 14.941 14.9412 18.9577 9.9995 18.9577Z" fill="white"/>
<path d="M4.76684 17.085C4.62518 17.085 4.49184 17.0433 4.37518 16.9433C3.90018 16.56 3.51684 16.1933 3.19184 15.8183C2.96684 15.56 3.00018 15.16 3.25851 14.935C3.52518 14.71 3.91684 14.7433 4.14184 15.0017C4.41684 15.3183 4.75018 15.635 5.15851 15.9683C5.42518 16.185 5.46684 16.5767 5.25018 16.8433C5.13351 17.0017 4.95018 17.085 4.76684 17.085Z" fill="white"/>
<path d="M16.8673 5.90964C16.6673 5.90964 16.4757 5.81797 16.3507 5.63464C14.9173 3.54297 12.534 2.29297 10.0007 2.29297C9.24232 2.29297 8.48399 2.4013 7.75899 2.6263C7.43399 2.7263 7.08399 2.54297 6.97566 2.20964C6.86733 1.8763 7.05899 1.5263 7.39233 1.4263C8.24233 1.1763 9.11732 1.04297 10.0007 1.04297C12.9507 1.04297 15.709 2.5013 17.384 4.93464C17.5757 5.21797 17.509 5.60964 17.2257 5.8013C17.1173 5.8763 16.9923 5.90964 16.8673 5.90964Z" fill="white"/>
<path d="M13.358 5.41673C13.083 5.20839 12.583 5.00006 11.783 5.21672L9.12467 5.93339C8.35801 6.15006 7.85801 6.80006 7.85801 7.60006V8.96676V11.1168C7.64134 11.0334 7.40801 10.9834 7.15801 10.9834C6.08301 10.9834 5.20801 11.8584 5.20801 12.9334C5.20801 14.0084 6.08301 14.8834 7.15801 14.8834C8.22467 14.8834 9.08301 14.0251 9.09967 12.9668C9.09967 12.9584 9.10801 12.9501 9.10801 12.9334V9.44176L12.708 8.45843V10.2334C12.4913 10.1501 12.258 10.1001 12.008 10.1001C10.933 10.1001 10.058 10.9751 10.058 12.0501C10.058 13.1251 10.933 14.0001 12.008 14.0001C13.083 14.0001 13.958 13.1251 13.958 12.0501V7.64172V6.87506C13.958 6.20839 13.758 5.71673 13.358 5.41673ZM7.15801 13.6334C6.77467 13.6334 6.45801 13.3168 6.45801 12.9334C6.45801 12.5501 6.77467 12.2334 7.15801 12.2334C7.54134 12.2334 7.85801 12.5501 7.85801 12.9334C7.85801 13.3168 7.54134 13.6334 7.15801 13.6334ZM12.008 12.7501C11.6247 12.7501 11.308 12.4334 11.308 12.0501C11.308 11.6668 11.6247 11.3501 12.008 11.3501C12.3913 11.3501 12.708 11.6668 12.708 12.0501C12.708 12.4334 12.3913 12.7501 12.008 12.7501Z" fill="white"/>
</svg>
