<svg width="20" height="20" viewBox="0 0 20 20" fill="none" xmlns="http://www.w3.org/2000/svg">
<path d="M10.9836 9.88514C10.6502 9.88514 10.3502 9.70181 10.2086 9.40181L9.00024 6.99346L8.65024 7.64346C8.45857 8.00179 8.07526 8.22679 7.66693 8.22679H7.05859C6.71693 8.22679 6.43359 7.94346 6.43359 7.60179C6.43359 7.26012 6.71693 6.97679 7.05859 6.97679H7.59193L8.25026 5.76012C8.40857 5.47679 8.72524 5.28512 9.02524 5.30179C9.35024 5.30179 9.6419 5.49346 9.7919 5.77679L10.9836 8.16012L11.2669 7.58512C11.4586 7.20179 11.8336 6.96846 12.2669 6.96846H12.9419C13.2836 6.96846 13.5669 7.25179 13.5669 7.59346C13.5669 7.93512 13.2836 8.21846 12.9419 8.21846H12.3502L11.7586 9.39347C11.6086 9.70181 11.3169 9.88514 10.9836 9.88514Z" fill="white"/>
<path d="M2.29152 15.5404C1.94985 15.5404 1.66652 15.257 1.66652 14.9154V10.1654C1.62485 7.90703 2.46652 5.7737 4.03318 4.1737C5.59985 2.58203 7.69985 1.70703 9.95816 1.70703C14.5748 1.70703 18.3332 5.46536 18.3332 10.082V14.832C18.3332 15.1737 18.0498 15.457 17.7082 15.457C17.3665 15.457 17.0832 15.1737 17.0832 14.832V10.082C17.0832 6.15703 13.8915 2.95703 9.95816 2.95703C8.03318 2.95703 6.24985 3.6987 4.92485 5.0487C3.59152 6.40703 2.88318 8.21536 2.91652 10.1487V14.907C2.91652 15.257 2.64152 15.5404 2.29152 15.5404Z" fill="white"/>
<path d="M4.95033 10.375H4.84199C3.09199 10.375 1.66699 11.8 1.66699 13.55V15.1167C1.66699 16.8667 3.09199 18.2917 4.84199 18.2917H4.95033C6.70033 18.2917 8.12533 16.8667 8.12533 15.1167V13.55C8.12533 11.8 6.70033 10.375 4.95033 10.375Z" fill="white"/>
<path d="M15.1583 10.375H15.05C13.3 10.375 11.875 11.8 11.875 13.55V15.1167C11.875 16.8667 13.3 18.2917 15.05 18.2917H15.1583C16.9083 18.2917 18.3333 16.8667 18.3333 15.1167V13.55C18.3333 11.8 16.9083 10.375 15.1583 10.375Z" fill="white"/>
</svg>
