<svg width="20" height="20" viewBox="0 0 20 20" fill="none" xmlns="http://www.w3.org/2000/svg">
<path d="M16.0083 12.5065C15.1 12.4482 14.1667 12.7815 13.475 13.4732C12.175 14.7732 12.175 16.8815 13.475 18.1899C13.9167 18.6315 14.4583 18.9232 15.0333 19.0649C15.35 19.1482 15.6833 19.1732 16.0167 19.1565C16.8083 19.1232 17.5833 18.8065 18.1917 18.1982C19.05 17.3399 19.3417 16.1315 19.0667 15.0399C18.9333 14.4649 18.6333 13.9232 18.1917 13.4815C17.5917 12.8732 16.8083 12.5482 16.0083 12.5065ZM17.7 15.8149C17.7 15.9899 17.6333 16.1399 17.5167 16.2565C17.4 16.3732 17.25 16.4399 17.075 16.4399H16.4583V17.0899C16.4583 17.2649 16.3917 17.4149 16.275 17.5315C16.1583 17.6482 16.0083 17.7149 15.8333 17.7149C15.4917 17.7149 15.2083 17.4315 15.2083 17.0899V16.4399H14.5833C14.2417 16.4399 13.9583 16.1565 13.9583 15.8149C13.9583 15.4732 14.2417 15.1899 14.5833 15.1899H15.2083V14.5982C15.2083 14.2565 15.4917 13.9732 15.8333 13.9732C16.175 13.9732 16.4583 14.2565 16.4583 14.5982V15.1899H17.075C17.425 15.1899 17.7 15.4732 17.7 15.8149Z" fill="white"/>
<path d="M10.1919 10.0586C9.8502 10.0586 9.5752 10.3336 9.5752 10.6753C9.5752 11.0169 9.8502 11.2919 10.1919 11.2919C10.5335 11.2919 10.8085 11.0169 10.8085 10.6753C10.8085 10.3336 10.5335 10.0586 10.1919 10.0586Z" fill="white"/>
<path d="M5.63327 10.8828C5.2916 10.8828 5.0166 11.1578 5.0166 11.4995C5.0166 11.8411 5.2916 12.1161 5.63327 12.1161C5.97494 12.1161 6.24993 11.8411 6.24993 11.4995C6.24993 11.1578 5.97494 10.8828 5.63327 10.8828Z" fill="white"/>
<path d="M13.492 1.66797H6.50866C6.27533 1.66797 6.05033 1.6763 5.83366 1.70964C3.20866 1.9513 1.66699 3.70964 1.66699 6.50964V13.493C1.66699 16.293 3.20866 18.0513 5.83366 18.293C6.05033 18.3263 6.27533 18.3346 6.50866 18.3346H11.2503C11.5753 18.3346 11.7837 17.968 11.6587 17.668C11.417 17.093 11.2503 16.4263 11.2503 15.8346C11.2503 13.3096 13.3087 11.2513 15.8337 11.2513C16.467 11.2513 17.0837 11.3763 17.6503 11.6263C17.9587 11.7596 18.3337 11.5513 18.3337 11.218V6.50964C18.3337 3.4763 16.5253 1.66797 13.492 1.66797ZM12.067 6.70964V10.6763C12.067 10.6846 12.0587 10.693 12.0587 10.7096C12.042 11.7263 11.217 12.5513 10.192 12.5513C9.15866 12.5513 8.32533 11.7096 8.32533 10.6846C8.32533 9.6513 9.16699 8.81797 10.192 8.81797C10.4087 8.81797 10.617 8.85964 10.817 8.93464V7.5263L7.50866 8.4263V11.5096C7.50866 11.518 7.50033 11.5263 7.50033 11.5346C7.48366 12.5513 6.65866 13.368 5.63366 13.368C4.60033 13.368 3.76699 12.5263 3.76699 11.5013C3.76699 10.4763 4.60866 9.63464 5.63366 9.63464C5.85033 9.63464 6.05866 9.6763 6.25033 9.7513V7.9513V6.49297C6.25033 5.71797 6.73366 5.09297 7.47533 4.89297L9.95866 4.20964C10.7337 4.0013 11.2087 4.20964 11.4753 4.40964C11.8587 4.7013 12.0503 5.1763 12.0503 5.80964V6.70964H12.067Z" fill="white"/>
</svg>
