<svg width="20" height="20" viewBox="0 0 20 20" fill="none" xmlns="http://www.w3.org/2000/svg">
<path d="M18.1002 5.23298V6.20798C18.1002 7.02464 17.7752 7.72464 17.2002 8.13298C16.8419 8.39961 16.4002 8.52461 15.9419 8.52461C15.6586 8.52461 15.3752 8.48294 15.0836 8.38294L10.6002 6.89131V14.9996C10.6002 17.1829 8.82524 18.9579 6.64193 18.9579C4.45859 18.9579 2.68359 17.1829 2.68359 14.9996C2.68359 12.8163 4.45859 11.0413 6.64193 11.0413C7.69193 11.0413 8.6419 11.4579 9.35024 12.1246V3.33298C9.35024 2.52464 9.68357 1.82464 10.2586 1.40798C10.8336 0.999642 11.6002 0.907976 12.3669 1.15798L16.0502 2.39131C17.1836 2.76631 18.1002 4.04131 18.1002 5.23298Z" fill="white"/>
</svg>
