<svg width="20" height="20" viewBox="0 0 20 20" fill="none" xmlns="http://www.w3.org/2000/svg">
<path d="M18.3083 13.6083C17.7083 12.925 16.8167 12.5 15.8333 12.5C13.9917 12.5 12.5 13.9917 12.5 15.8333C12.5 16.4583 12.675 17.05 12.9833 17.55C13.15 17.8333 13.3667 18.0917 13.6167 18.3083C14.2 18.8417 14.975 19.1667 15.8333 19.1667C17.05 19.1667 18.1083 18.5167 18.6833 17.55C18.9917 17.05 19.1667 16.4583 19.1667 15.8333C19.1667 14.9833 18.8417 14.2 18.3083 13.6083ZM17.1667 17.15C17.0417 17.275 16.8833 17.3333 16.725 17.3333C16.5667 17.3333 16.4083 17.275 16.2833 17.15L15.8417 16.7083L15.3833 17.1667C15.2583 17.2917 15.1 17.35 14.9417 17.35C14.7833 17.35 14.625 17.2917 14.5 17.1667C14.2583 16.925 14.2583 16.525 14.5 16.2833L14.9583 15.825L14.5167 15.3833C14.275 15.1417 14.275 14.7417 14.5167 14.5C14.7583 14.2583 15.1583 14.2583 15.4 14.5L15.8417 14.9417L16.2583 14.525C16.5 14.2833 16.9 14.2833 17.1417 14.525C17.3833 14.7667 17.3833 15.1667 17.1417 15.4083L16.725 15.825L17.1667 16.2667C17.4083 16.5083 17.4083 16.9 17.1667 17.15Z" fill="white"/>
<path d="M10.1919 10.0586C9.8502 10.0586 9.5752 10.3336 9.5752 10.6753C9.5752 11.0169 9.8502 11.2919 10.1919 11.2919C10.5335 11.2919 10.8085 11.0169 10.8085 10.6753C10.8085 10.3336 10.5335 10.0586 10.1919 10.0586Z" fill="white"/>
<path d="M5.63327 10.8828C5.2916 10.8828 5.0166 11.1578 5.0166 11.4995C5.0166 11.8411 5.2916 12.1161 5.63327 12.1161C5.97494 12.1161 6.24993 11.8411 6.24993 11.4995C6.24993 11.1578 5.97494 10.8828 5.63327 10.8828Z" fill="white"/>
<path d="M13.492 1.66797H6.50866C6.27533 1.66797 6.05033 1.6763 5.83366 1.70964C3.20866 1.9513 1.66699 3.70964 1.66699 6.50964V13.493C1.66699 16.293 3.20866 18.0513 5.83366 18.293C6.05033 18.3263 6.27533 18.3346 6.50866 18.3346H11.2503C11.5753 18.3346 11.7837 17.968 11.6587 17.668C11.417 17.093 11.2503 16.4263 11.2503 15.8346C11.2503 13.3096 13.3087 11.2513 15.8337 11.2513C16.467 11.2513 17.0837 11.3763 17.6503 11.6263C17.9587 11.7596 18.3337 11.5513 18.3337 11.218V6.50964C18.3337 3.4763 16.5253 1.66797 13.492 1.66797ZM12.067 6.70964V10.6763C12.067 10.6846 12.0587 10.693 12.0587 10.7096C12.042 11.7263 11.217 12.5513 10.192 12.5513C9.15866 12.5513 8.32533 11.7096 8.32533 10.6846C8.32533 9.6513 9.16699 8.81797 10.192 8.81797C10.4087 8.81797 10.617 8.85964 10.817 8.93464V7.5263L7.50866 8.4263V11.5096C7.50866 11.518 7.50033 11.5263 7.50033 11.5346C7.48366 12.5513 6.65866 13.368 5.63366 13.368C4.60033 13.368 3.76699 12.5263 3.76699 11.5013C3.76699 10.4763 4.60866 9.63464 5.63366 9.63464C5.85033 9.63464 6.05866 9.6763 6.25033 9.7513V7.9513V6.49297C6.25033 5.71797 6.73366 5.09297 7.47533 4.89297L9.95866 4.20964C10.7337 4.0013 11.2087 4.20964 11.4753 4.40964C11.8587 4.7013 12.0503 5.1763 12.0503 5.80964V6.70964H12.067Z" fill="white"/>
</svg>
