<svg width="20" height="20" viewBox="0 0 20 20" fill="none" xmlns="http://www.w3.org/2000/svg">
<path d="M17.4085 4.31681V13.7335C17.4085 15.3835 16.0668 16.7252 14.4168 16.7252C12.7752 16.7252 11.4252 15.3835 11.4252 13.7335C11.4252 12.0918 12.7752 10.7502 14.4168 10.7502C15.1168 10.7502 15.7418 10.9918 16.2502 11.3918V6.43347L8.57517 8.61684V15.3418C8.57517 16.9918 7.22513 18.3335 5.58346 18.3335C3.93346 18.3335 2.5918 16.9918 2.5918 15.3418C2.5918 13.7002 3.93346 12.3585 5.58346 12.3585C6.27513 12.3585 6.90013 12.6002 7.40846 12.9918V5.62514C7.40846 4.40014 8.15013 3.45014 9.32517 3.13347L14.1418 1.81681C15.1168 1.55014 15.9418 1.64181 16.5252 2.09181C17.1168 2.53347 17.4085 3.28347 17.4085 4.31681Z" fill="white"/>
</svg>
