<svg width="20" height="20" viewBox="0 0 20 20" fill="none" xmlns="http://www.w3.org/2000/svg">
<path d="M10.0003 1.66797C5.40033 1.66797 1.66699 5.4013 1.66699 10.0013C1.66699 14.6013 5.40033 18.3346 10.0003 18.3346C14.6003 18.3346 18.3337 14.6013 18.3337 10.0013C18.3337 5.4013 14.6003 1.66797 10.0003 1.66797ZM11.2503 12.293L10.992 12.2096L10.8337 12.7096L10.0003 15.2096L7.91699 11.3096L7.83365 11.1513L5.00033 10.2096L6.81698 9.3013L8.33366 8.54297L8.72533 8.36797L10.0003 4.3763L11.292 7.20963L12.0837 8.95964L11.742 9.13464L15.0003 10.2096L11.2503 12.293Z" fill="white"/>
</svg>
