<svg width="20" height="20" viewBox="0 0 20 20" fill="none" xmlns="http://www.w3.org/2000/svg">
<path d="M12.5583 14.9L11.7166 16.75C11.4999 17.2167 11.1833 17.625 10.7583 17.9084C10.3249 18.2 9.75826 18.225 9.30826 17.9417C7.94158 17.075 4.95828 14.85 3.14994 10.9917C3.08328 10.8584 3.26658 10.725 3.38325 10.8084C3.85825 11.1417 4.36657 11.375 4.9249 11.5084C5.26657 11.5834 5.6166 11.6167 5.94993 11.6167C7.49993 11.6167 8.89993 10.825 9.83326 10.1417C10.1083 9.94171 10.4749 9.90005 10.7583 10.075C11.6916 10.6584 12.3166 11.3584 12.6249 12.15C13.1583 13.55 12.5749 14.8417 12.5583 14.9Z" fill="white"/>
<path d="M14.042 15.0421C13.9753 15.1171 13.842 15.0337 13.8753 14.9421C14.242 13.7254 14.717 10.5171 10.467 8.48373C10.2087 8.35873 10.017 8.12538 9.98365 7.84204C9.46699 3.20871 13.4587 2.37538 13.4587 2.37538C13.7837 2.30871 14.1253 2.3087 14.442 2.40037C15.342 2.64203 16.2587 2.97538 17.1837 3.42538C17.9753 3.80871 18.4337 4.64204 18.317 5.51704C18.042 7.58371 17.1253 11.5671 14.042 15.0421Z" fill="white"/>
<path d="M8.79968 8.50744L8.82476 8.67411C8.88309 8.99078 8.74968 9.31578 8.48301 9.48245C6.69137 10.6074 3.75803 11.4574 1.96636 6.53242C1.79969 6.08242 1.6997 5.74909 1.66637 5.26576C1.6247 4.63243 1.98304 3.90743 2.5497 3.64076C4.01637 2.95743 7.11639 1.76576 10.8581 1.8741C11.0248 1.88243 11.083 2.09909 10.9497 2.19075C9.50801 3.29075 8.26637 5.27409 8.79968 8.50744Z" fill="white"/>
</svg>
