<svg width="20" height="20" viewBox="0 0 20 20" fill="none" xmlns="http://www.w3.org/2000/svg">
<path d="M18.333 5.23437V14.7594C18.333 14.9094 18.258 15.0427 18.133 15.1177L15.7247 16.5594C15.5913 16.6344 15.433 16.6344 15.2997 16.5594L7.29134 11.9011C7.16634 11.8261 7.08301 11.6927 7.08301 11.5427V10.4344C7.08301 10.1094 7.433 9.90938 7.71633 10.076L14.7913 14.3177C15.0663 14.4844 15.4247 14.2844 15.4247 13.9594V7.0177C15.4247 6.8677 15.3497 6.73438 15.2247 6.65938L11.8247 4.6177C11.558 4.45937 11.558 4.0677 11.8247 3.90103L13.9663 2.60938C14.0997 2.52604 14.2663 2.52604 14.3997 2.60938L18.1497 4.85937C18.258 4.95103 18.333 5.0927 18.333 5.23437Z" fill="white"/>
<path d="M9.40816 15.3578L6.0498 17.3744C5.91647 17.4578 5.7498 17.4578 5.6248 17.3744L1.8748 15.1244C1.7498 15.0494 1.6748 14.9161 1.6748 14.7661V5.24114C1.6748 5.09114 1.7498 4.9578 1.8748 4.8828L5.6248 2.63281C5.75814 2.54948 5.9248 2.54948 6.0498 2.63281L13.9665 7.3828C14.0915 7.4578 14.1665 7.59114 14.1665 7.74114V11.7661C14.1665 12.0911 13.8165 12.2911 13.5332 12.1244L6.45814 7.88281C6.18314 7.71615 5.82481 7.91614 5.82481 8.24114V12.2661C5.82481 12.4161 5.8998 12.5494 6.0248 12.6244L9.3915 14.6494C9.67483 14.8078 9.67483 15.1911 9.40816 15.3578Z" fill="white"/>
</svg>
