<svg width="20" height="20" viewBox="0 0 20 20" fill="none" xmlns="http://www.w3.org/2000/svg">
<path d="M6.45801 2.91797V1.66797C6.45801 1.3263 6.17467 1.04297 5.83301 1.04297C5.49134 1.04297 5.20801 1.3263 5.20801 1.66797V2.96797C5.41634 2.94297 5.60801 2.91797 5.83301 2.91797H6.45801Z" fill="white"/>
<path d="M13.125 2.96797V1.66797C13.125 1.3263 12.8417 1.04297 12.5 1.04297C12.1583 1.04297 11.875 1.3263 11.875 1.66797V2.91797H12.5C12.725 2.91797 12.9167 2.94297 13.125 2.96797Z" fill="white"/>
<path d="M17.742 12.4763C17.1003 11.968 16.292 11.668 15.417 11.668C14.542 11.668 13.717 11.9763 13.0753 12.493C12.2087 13.1763 11.667 14.243 11.667 15.418C11.667 16.118 11.867 16.793 12.2087 17.343C12.4753 17.7763 12.817 18.1596 13.2253 18.4513C13.842 18.9013 14.592 19.168 15.417 19.168C16.367 19.168 17.2253 18.818 17.8837 18.2346C18.1753 17.993 18.4253 17.693 18.6253 17.3513C18.967 16.793 19.167 16.118 19.167 15.418C19.167 14.2263 18.6087 13.1596 17.742 12.4763ZM15.417 17.2013C15.417 16.218 14.617 15.418 13.6337 15.418C14.617 15.418 15.417 14.618 15.417 13.6346C15.417 14.618 16.217 15.418 17.2003 15.418C16.217 15.418 15.417 16.218 15.417 17.2013Z" fill="white"/>
<path d="M13.1253 2.96797V4.16797C13.1253 4.50964 12.842 4.79297 12.5003 4.79297C12.1587 4.79297 11.8753 4.50964 11.8753 4.16797V2.91797H6.45866V4.16797C6.45866 4.50964 6.17533 4.79297 5.83366 4.79297C5.49199 4.79297 5.20866 4.50964 5.20866 4.16797V2.96797C2.75033 3.19297 1.66699 4.7763 1.66699 7.08464V14.168C1.66699 16.668 2.91699 18.3346 5.83366 18.3346H9.27533C9.90866 18.3346 10.3337 17.6263 10.1753 17.0096C10.0587 16.5596 10.0003 16.093 10.0003 15.6263C10.0003 13.893 10.7753 12.293 12.117 11.2346C13.092 10.443 14.342 10.0013 15.6253 10.0013H15.6587C16.1837 10.0013 16.667 9.61797 16.667 9.09297V7.08464C16.667 4.7763 15.5837 3.19297 13.1253 2.96797ZM7.50033 13.9596H5.83366C5.49199 13.9596 5.20866 13.6763 5.20866 13.3346C5.20866 12.993 5.49199 12.7096 5.83366 12.7096H7.50033C7.84199 12.7096 8.12533 12.993 8.12533 13.3346C8.12533 13.6763 7.84199 13.9596 7.50033 13.9596ZM10.0003 9.79297H5.83366C5.49199 9.79297 5.20866 9.50964 5.20866 9.16797C5.20866 8.8263 5.49199 8.54297 5.83366 8.54297H10.0003C10.342 8.54297 10.6253 8.8263 10.6253 9.16797C10.6253 9.50964 10.342 9.79297 10.0003 9.79297Z" fill="white"/>
</svg>
