<svg width="20" height="20" viewBox="0 0 20 20" fill="none" xmlns="http://www.w3.org/2000/svg">
<path d="M18.0167 10.0838L17.5001 9.9088L16.1084 9.45047C15.6251 9.29214 15.1334 9.35047 14.7584 9.61714C14.3917 9.89214 14.1751 10.3338 14.1751 10.8505V14.8421C13.8417 14.6588 13.4667 14.5421 13.0584 14.5421C11.7751 14.5421 10.7334 15.5921 10.7334 16.8755C10.7334 17.0921 10.7667 17.3005 10.8167 17.5005C11.0917 18.4921 11.9917 19.2088 13.0584 19.2088C14.3334 19.2088 15.3667 18.1921 15.3917 16.9255V13.0838C15.4084 13.0838 15.4167 13.0921 15.4334 13.1005L17.3334 13.7338C17.3667 13.7421 17.4084 13.7588 17.4417 13.7588C17.5917 13.8005 17.7251 13.8171 17.8667 13.8171C18.1667 13.8171 18.4501 13.7338 18.6834 13.5588C19.0584 13.2921 19.2667 12.8505 19.2667 12.3338V11.8338C19.2667 11.0755 18.7334 10.3255 18.0167 10.0838ZM13.0584 17.9921C12.6751 17.9921 12.3417 17.8005 12.1417 17.5005C12.0167 17.3255 11.9501 17.1088 11.9501 16.8755C11.9501 16.2671 12.4501 15.7671 13.0584 15.7671C13.6751 15.7671 14.1751 16.2671 14.1751 16.8755C14.1751 17.0671 14.1251 17.2421 14.0417 17.3921C13.8584 17.7505 13.4834 17.9921 13.0584 17.9921Z" fill="white"/>
<path d="M19.2667 11.8338V12.3338C19.2667 12.8505 19.0584 13.2921 18.6834 13.5588C18.4501 13.7338 18.1667 13.8171 17.8667 13.8171C17.7251 13.8171 17.5917 13.8005 17.4417 13.7588C17.4084 13.7588 17.3667 13.7421 17.3334 13.7338L15.4334 13.1005C15.4167 13.0921 15.4084 13.0838 15.3917 13.0838V16.9255C15.3667 18.1921 14.3334 19.2088 13.0584 19.2088C11.9917 19.2088 11.0917 18.4921 10.8167 17.5005C10.7667 17.3005 10.7334 17.0921 10.7334 16.8755C10.7334 15.5921 11.7751 14.5421 13.0584 14.5421C13.4667 14.5421 13.8417 14.6588 14.1751 14.8421V10.8505C14.1751 10.3338 14.3917 9.89214 14.7584 9.61714C15.1334 9.35047 15.6251 9.29214 16.1084 9.45047L17.5001 9.9088L18.0167 10.0838C18.7334 10.3255 19.2667 11.0755 19.2667 11.8338Z" fill="white"/>
<path d="M17.5003 6.26797V8.01797C17.5003 8.3013 17.2253 8.5013 16.9503 8.40964L16.5003 8.25964C15.6253 7.98464 14.7337 8.1013 14.0087 8.61797C13.317 9.13464 12.9253 9.9513 12.9253 10.8513V12.893C12.9253 13.118 12.7503 13.3013 12.5253 13.3346C10.8087 13.593 9.48366 15.0846 9.48366 16.8763C9.48366 16.918 9.48366 16.9596 9.48366 17.0013C9.49199 17.2596 9.30033 17.5013 9.03366 17.5013H6.26699C3.39199 17.5013 1.66699 15.7846 1.66699 12.9013V6.26797C1.66699 3.38464 3.39199 1.66797 6.26699 1.66797H12.9003C15.7753 1.66797 17.5003 3.38464 17.5003 6.26797Z" fill="white"/>
</svg>
