<svg width="20" height="20" viewBox="0 0 20 20" fill="none" xmlns="http://www.w3.org/2000/svg">
<path d="M11.2919 16.7989C11.0753 16.8906 10.8419 16.9739 10.5919 17.0573L9.27525 17.4906C5.96695 18.5573 4.22528 17.6656 3.15028 14.3573L2.08362 11.0656C1.01695 7.75729 1.90028 6.00729 5.20862 4.94063L6.49195 4.51562C6.33362 4.91563 6.20028 5.37396 6.07528 5.89063L5.25862 9.38228C4.34195 13.3073 5.68362 15.4739 9.60858 16.4073L11.0086 16.7406C11.1003 16.7656 11.2003 16.7823 11.2919 16.7989Z" fill="white"/>
<path d="M14.3088 2.67639L12.9172 2.35139C10.1338 1.69306 8.47549 2.23472 7.50048 4.25139C7.25048 4.75972 7.05048 5.37639 6.88381 6.08472L6.06714 9.57639C5.25048 13.0597 6.32547 14.7764 9.80049 15.6014L11.2005 15.9347C11.6838 16.0514 12.1338 16.1264 12.5505 16.1597C15.1505 16.4097 16.5338 15.1931 17.2338 12.1847L18.0505 8.70139C18.8672 5.21806 17.8005 3.49306 14.3088 2.67639Z" fill="white"/>
</svg>
