<svg width="20" height="20" viewBox="0 0 20 20" fill="none" xmlns="http://www.w3.org/2000/svg">
<path d="M4.97467 0.832031H2.52467C1.46634 0.832031 0.833008 1.46536 0.833008 2.5237V4.9737C0.833008 6.03203 1.46634 6.66536 2.52467 6.66536H4.97467C6.03301 6.66536 6.66634 6.03203 6.66634 4.9737V2.5237C6.66634 1.46536 6.03301 0.832031 4.97467 0.832031ZM5.39134 4.63203C5.59967 4.84036 5.59967 5.18203 5.39134 5.39036C5.28301 5.49036 5.14134 5.54036 5.00801 5.54036C4.87467 5.54036 4.74134 5.49036 4.63301 5.39036L3.74134 4.50703L2.87467 5.39036C2.76634 5.49036 2.63301 5.54036 2.48301 5.54036C2.34967 5.54036 2.21634 5.49036 2.10801 5.39036C1.89967 5.18203 1.89967 4.84036 2.10801 4.63203L2.99967 3.7487L2.11634 2.8737C1.90801 2.66536 1.90801 2.3237 2.11634 2.11536C2.32467 1.90703 2.66634 1.90703 2.87467 2.11536L3.74134 2.9987L4.62467 2.11536C4.83301 1.90703 5.17467 1.90703 5.38301 2.11536C5.59134 2.3237 5.59134 2.66536 5.38301 2.8737L4.50801 3.7487L5.39134 4.63203Z" fill="white"/>
<path d="M17.9172 13.1818C17.9172 13.3068 17.8755 13.4318 17.7672 13.5401C16.5589 14.7568 14.4089 16.9234 13.1755 18.1651C13.0672 18.2818 12.9255 18.3318 12.7839 18.3318C12.5089 18.3318 12.2422 18.1151 12.2422 17.7984V14.8818C12.2422 13.6651 13.2755 12.6568 14.5422 12.6568C15.3339 12.6484 16.4339 12.6484 17.3755 12.6484C17.7005 12.6484 17.9172 12.9068 17.9172 13.1818Z" fill="white"/>
<path d="M17.9172 13.1818C17.9172 13.3068 17.8755 13.4318 17.7672 13.5401C16.5589 14.7568 14.4089 16.9234 13.1755 18.1651C13.0672 18.2818 12.9255 18.3318 12.7839 18.3318C12.5089 18.3318 12.2422 18.1151 12.2422 17.7984V14.8818C12.2422 13.6651 13.2755 12.6568 14.5422 12.6568C15.3339 12.6484 16.4339 12.6484 17.3755 12.6484C17.7005 12.6484 17.9172 12.9068 17.9172 13.1818Z" fill="white"/>
<path d="M13.858 1.66797H8.74967C8.29134 1.66797 7.91634 2.04297 7.91634 2.5013V5.41797C7.91634 6.8013 6.79967 7.91797 5.41634 7.91797H2.91634C2.45801 7.91797 2.08301 8.29297 2.08301 8.7513V14.2763C2.08301 16.518 3.89967 18.3346 6.14134 18.3346H10.158C10.6163 18.3346 10.9913 17.9596 10.9913 17.5013V14.8846C10.9913 12.968 12.583 11.4096 14.5413 11.4096C14.983 11.4013 16.058 11.4013 17.083 11.4013C17.5413 11.4013 17.9163 11.0346 17.9163 10.568V5.7263C17.9163 3.48464 16.0997 1.66797 13.858 1.66797ZM7.26634 14.1763H5.06634C4.72467 14.1763 4.44134 13.893 4.44134 13.5513C4.44134 13.2013 4.72467 12.918 5.06634 12.918H7.26634C7.62467 12.918 7.89134 13.2013 7.89134 13.5513C7.89134 13.893 7.62467 14.1763 7.26634 14.1763ZM9.59134 11.0846H5.06634C4.72467 11.0846 4.44134 10.8013 4.44134 10.4596C4.44134 10.1096 4.72467 9.8263 5.06634 9.8263H9.59134C9.93301 9.8263 10.2247 10.1096 10.2247 10.4596C10.2247 10.8013 9.93301 11.0846 9.59134 11.0846Z" fill="white"/>
</svg>
