<svg width="20" height="20" viewBox="0 0 20 20" fill="none" xmlns="http://www.w3.org/2000/svg">
<path d="M13.3337 3.54297C13.3337 4.5763 12.492 5.41797 11.4587 5.41797H8.54199C8.02533 5.41797 7.55866 5.20964 7.21699 4.86797C6.87533 4.5263 6.66699 4.05964 6.66699 3.54297C6.66699 2.50964 7.50866 1.66797 8.54199 1.66797H11.4587C11.9753 1.66797 12.442 1.8763 12.7837 2.21797C13.1253 2.55964 13.3337 3.0263 13.3337 3.54297Z" fill="white"/>
<path d="M15.6913 4.19127C15.4997 4.03294 15.283 3.90794 15.0497 3.81627C14.808 3.7246 14.5663 3.91627 14.5163 4.16627C14.233 5.59127 12.9747 6.66627 11.458 6.66627H8.54134C7.70801 6.66627 6.92467 6.34127 6.33301 5.7496C5.89967 5.31627 5.59967 4.76627 5.48301 4.1746C5.43301 3.9246 5.18301 3.7246 4.94134 3.8246C3.97467 4.21627 3.33301 5.0996 3.33301 6.8746V14.9996C3.33301 17.4996 4.82467 18.3329 6.66634 18.3329H13.333C15.1747 18.3329 16.6663 17.4996 16.6663 14.9996V6.8746C16.6663 5.51627 16.2913 4.68294 15.6913 4.19127ZM6.66634 10.2079H9.99967C10.3413 10.2079 10.6247 10.4913 10.6247 10.8329C10.6247 11.1746 10.3413 11.4579 9.99967 11.4579H6.66634C6.32467 11.4579 6.04134 11.1746 6.04134 10.8329C6.04134 10.4913 6.32467 10.2079 6.66634 10.2079ZM13.333 14.7913H6.66634C6.32467 14.7913 6.04134 14.5079 6.04134 14.1663C6.04134 13.8246 6.32467 13.5413 6.66634 13.5413H13.333C13.6747 13.5413 13.958 13.8246 13.958 14.1663C13.958 14.5079 13.6747 14.7913 13.333 14.7913Z" fill="white"/>
</svg>
