<svg width="20" height="20" viewBox="0 0 20 20" fill="none" xmlns="http://www.w3.org/2000/svg">
<path d="M7.29199 2.91797V1.66797C7.29199 1.3263 7.00866 1.04297 6.66699 1.04297C6.32533 1.04297 6.04199 1.3263 6.04199 1.66797V2.96797C6.25033 2.94297 6.44199 2.91797 6.66699 2.91797H7.29199Z" fill="white"/>
<path d="M13.958 2.96797V1.66797C13.958 1.3263 13.6747 1.04297 13.333 1.04297C12.9913 1.04297 12.708 1.3263 12.708 1.66797V2.91797H13.333C13.558 2.91797 13.7497 2.94297 13.958 2.96797Z" fill="white"/>
<path d="M13.9583 2.96797V4.16797C13.9583 4.50964 13.675 4.79297 13.3333 4.79297C12.9917 4.79297 12.7083 4.50964 12.7083 4.16797V2.91797H7.29167V4.16797C7.29167 4.50964 7.00833 4.79297 6.66667 4.79297C6.325 4.79297 6.04167 4.50964 6.04167 4.16797V2.96797C3.58333 3.19297 2.5 4.7763 2.5 7.08464V14.168C2.5 16.668 3.75 18.3346 6.66667 18.3346H13.3333C16.25 18.3346 17.5 16.668 17.5 14.168V7.08464C17.5 4.7763 16.4167 3.19297 13.9583 2.96797ZM10 13.9596H6.66667C6.325 13.9596 6.04167 13.6763 6.04167 13.3346C6.04167 12.993 6.325 12.7096 6.66667 12.7096H10C10.3417 12.7096 10.625 12.993 10.625 13.3346C10.625 13.6763 10.3417 13.9596 10 13.9596ZM13.3333 9.79297H6.66667C6.325 9.79297 6.04167 9.50964 6.04167 9.16797C6.04167 8.8263 6.325 8.54297 6.66667 8.54297H13.3333C13.675 8.54297 13.9583 8.8263 13.9583 9.16797C13.9583 9.50964 13.675 9.79297 13.3333 9.79297Z" fill="white"/>
</svg>
