<svg width="20" height="20" viewBox="0 0 20 20" fill="none" xmlns="http://www.w3.org/2000/svg">
<path d="M10.565 16.6289C10.794 16.6822 10.8149 16.982 10.5919 17.0563L9.27525 17.4897C5.96695 18.5563 4.22528 17.6647 3.15028 14.3563L2.08362 11.0647C1.01695 7.75635 1.90028 6.00635 5.20862 4.93968L5.64528 4.79508C5.981 4.68389 6.30773 5.02061 6.21239 5.36118C6.16514 5.52998 6.11968 5.70615 6.07528 5.88968L5.25862 9.38133C4.34195 13.3063 5.68362 15.473 9.60858 16.4063L10.565 16.6289Z" fill="white"/>
<path d="M14.3088 2.67639L12.9172 2.35139C10.1338 1.69306 8.47549 2.23472 7.50048 4.25139C7.25048 4.75972 7.05048 5.37639 6.88381 6.08472L6.06714 9.57639C5.25048 13.0597 6.32547 14.7764 9.80049 15.6014L11.2005 15.9347C11.6838 16.0514 12.1338 16.1264 12.5505 16.1597C15.1505 16.4097 16.5338 15.1931 17.2338 12.1847L18.0505 8.70139C18.8672 5.21806 17.8005 3.49306 14.3088 2.67639ZM12.7422 11.1097C12.6672 11.3931 12.4172 11.5764 12.1338 11.5764C12.0838 11.5764 12.0338 11.5681 11.9755 11.5597L9.55049 10.9431C9.21716 10.8597 9.01716 10.5181 9.10049 10.1847C9.18383 9.85139 9.52549 9.65139 9.85883 9.73472L12.2838 10.3514C12.6255 10.4347 12.8255 10.7764 12.7422 11.1097ZM15.1838 8.29306C15.1088 8.57639 14.8588 8.75972 14.5755 8.75972C14.5255 8.75972 14.4755 8.75139 14.4172 8.74306L10.3755 7.71806C10.0422 7.63472 9.84216 7.29306 9.92549 6.95972C10.0088 6.62639 10.3505 6.42639 10.6838 6.50972L14.7255 7.53472C15.0672 7.60972 15.2672 7.95139 15.1838 8.29306Z" fill="white"/>
</svg>
