<svg width="20" height="20" viewBox="0 0 20 20" fill="none" xmlns="http://www.w3.org/2000/svg">
<path d="M15.833 6.66797C17.2138 6.66797 18.333 5.54868 18.333 4.16797C18.333 2.78726 17.2138 1.66797 15.833 1.66797C14.4523 1.66797 13.333 2.78726 13.333 4.16797C13.333 5.54868 14.4523 6.66797 15.833 6.66797Z" fill="white"/>
<path d="M17.5003 8.66667V13.7333C17.5003 13.85 17.492 13.9667 17.4837 14.075C17.4753 14.175 17.467 14.2667 17.4503 14.3667C17.442 14.4667 17.4253 14.5667 17.4087 14.6583C17.117 16.675 15.8337 17.95 13.8253 18.2417C13.7337 18.2583 13.6337 18.275 13.5337 18.2833C13.4337 18.3 13.342 18.3083 13.242 18.3167C13.1337 18.325 13.017 18.3333 12.9003 18.3333H6.26699C6.15033 18.3333 6.03366 18.325 5.92533 18.3167C5.82533 18.3083 5.73366 18.3 5.63366 18.2833C5.53366 18.275 5.43366 18.2583 5.34199 18.2417C3.33366 17.95 2.05033 16.675 1.75866 14.6583C1.74199 14.5667 1.72533 14.4667 1.71699 14.3667C1.70033 14.2667 1.69199 14.175 1.68366 14.075C1.67533 13.9667 1.66699 13.85 1.66699 13.7333V7.1C1.66699 6.98333 1.67533 6.86667 1.68366 6.75833C1.69199 6.65833 1.70033 6.56667 1.71699 6.46667C1.72533 6.36667 1.74199 6.26667 1.75866 6.175C2.05033 4.15833 3.33366 2.88333 5.34199 2.59167C5.43366 2.575 5.53366 2.55833 5.63366 2.55C5.73366 2.53333 5.82533 2.525 5.92533 2.51667C6.03366 2.50833 6.15033 2.5 6.26699 2.5H11.3337C11.867 2.5 12.2503 2.98333 12.1503 3.5C12.1503 3.51667 12.142 3.53333 12.142 3.55C12.1253 3.63333 12.117 3.71667 12.1003 3.80833C12.067 4.15833 12.0837 4.53333 12.1587 4.91667C12.1837 5.01667 12.2003 5.1 12.2337 5.19167C12.3003 5.46667 12.4087 5.725 12.5503 5.96667C12.6003 6.06667 12.667 6.16667 12.7253 6.25833C13.0003 6.65833 13.342 7 13.742 7.275C13.8337 7.33333 13.9337 7.4 14.0337 7.45C14.2753 7.59167 14.5337 7.7 14.8087 7.76667C14.9003 7.8 14.9837 7.81667 15.0837 7.84167C15.467 7.91667 15.842 7.93333 16.192 7.9C16.2837 7.88333 16.367 7.875 16.4503 7.85833C16.467 7.85833 16.4837 7.85 16.5003 7.85C17.017 7.75 17.5003 8.13333 17.5003 8.66667Z" fill="white"/>
</svg>
