<svg width="20" height="20" viewBox="0 0 20 20" fill="none" xmlns="http://www.w3.org/2000/svg">
<path d="M16.1163 12.0763L15.2829 10.693C15.1079 10.3846 14.9496 9.8013 14.9496 9.45964V7.3513C14.9496 5.39297 13.7996 3.7013 12.1413 2.90964C11.7079 2.14297 10.9079 1.66797 9.99126 1.66797C9.08293 1.66797 8.26629 2.15964 7.83296 2.93464C6.20796 3.74297 5.08296 5.41797 5.08296 7.3513V9.45964C5.08296 9.8013 4.92463 10.3846 4.74963 10.6846L3.90796 12.0763C3.57463 12.6346 3.49963 13.2513 3.70796 13.818C3.90796 14.3763 4.38296 14.8096 4.99963 15.018C6.61629 15.568 8.31629 15.8346 10.0163 15.8346C11.7163 15.8346 13.4163 15.568 15.0329 15.0263C15.6163 14.8346 16.0663 14.393 16.2829 13.818C16.4996 13.243 16.4413 12.6096 16.1163 12.0763Z" fill="white"/>
<path d="M12.3578 16.6763C12.0078 17.643 11.0828 18.3346 9.99942 18.3346C9.34109 18.3346 8.69109 18.068 8.23275 17.593C7.96608 17.343 7.76608 17.0096 7.64941 16.668C7.75775 16.6846 7.86608 16.693 7.98275 16.7096C8.17441 16.7346 8.37442 16.7596 8.57442 16.7763C9.04942 16.818 9.53276 16.843 10.0161 16.843C10.4911 16.843 10.9661 16.818 11.4328 16.7763C11.6078 16.7596 11.7828 16.7513 11.9494 16.7263C12.0828 16.7096 12.2161 16.693 12.3578 16.6763Z" fill="white"/>
</svg>
