<svg width="20" height="20" viewBox="0 0 20 20" fill="none" xmlns="http://www.w3.org/2000/svg">
<path d="M16.8253 11.7154L15.8837 10.1487C15.6753 9.80703 15.492 9.1487 15.492 8.7487V7.19036C15.492 4.16536 13.0337 1.70703 10.017 1.70703C6.992 1.71536 4.53366 4.16536 4.53366 7.19036V8.74037C4.53366 9.14037 4.35033 9.7987 4.15033 10.1404L3.20867 11.707C2.85033 12.3154 2.767 13.007 2.992 13.607C3.217 14.2154 3.72533 14.6987 4.392 14.9154C5.292 15.2154 6.20033 15.432 7.12533 15.5904C7.217 15.607 7.30867 15.6154 7.40033 15.632C7.517 15.6487 7.642 15.6654 7.767 15.682C7.98366 15.7154 8.20033 15.7404 8.42533 15.757C8.95033 15.807 9.48366 15.832 10.017 15.832C10.542 15.832 11.067 15.807 11.5837 15.757C11.7753 15.7404 11.967 15.7237 12.1503 15.6987C12.3003 15.682 12.4503 15.6654 12.6003 15.6404C12.692 15.632 12.7837 15.6154 12.8753 15.5987C13.8087 15.4487 14.7337 15.2154 15.6337 14.9154C16.2753 14.6987 16.767 14.2154 17.0003 13.5987C17.2337 12.9737 17.167 12.2904 16.8253 11.7154ZM10.6253 8.33203C10.6253 8.68203 10.342 8.96536 9.992 8.96536C9.642 8.96536 9.35866 8.68203 9.35866 8.33203V5.74871C9.35866 5.39871 9.642 5.11536 9.992 5.11536C10.342 5.11536 10.6253 5.39871 10.6253 5.74871V8.33203Z" fill="white"/>
<path d="M12.3578 16.6763C12.0078 17.643 11.0828 18.3346 9.99942 18.3346C9.34109 18.3346 8.69109 18.068 8.23275 17.593C7.96608 17.343 7.76608 17.0096 7.64941 16.668C7.75775 16.6846 7.86608 16.693 7.98275 16.7096C8.17441 16.7346 8.37442 16.7596 8.57442 16.7763C9.04942 16.818 9.53276 16.843 10.0161 16.843C10.4911 16.843 10.9661 16.818 11.4328 16.7763C11.6078 16.7596 11.7828 16.7513 11.9494 16.7263C12.0828 16.7096 12.2161 16.693 12.3578 16.6763Z" fill="white"/>
</svg>
