<svg width="20" height="20" viewBox="0 0 20 20" fill="none" xmlns="http://www.w3.org/2000/svg">
<path d="M15.833 6.66797C17.2138 6.66797 18.333 5.54868 18.333 4.16797C18.333 2.78726 17.2138 1.66797 15.833 1.66797C14.4523 1.66797 13.333 2.78726 13.333 4.16797C13.333 5.54868 14.4523 6.66797 15.833 6.66797Z" fill="white"/>
<path d="M16.5003 7.85C16.4753 7.85833 16.4503 7.85833 16.4253 7.86667C16.3587 7.875 16.3003 7.88333 16.2253 7.89167C16.1003 7.90833 15.967 7.91667 15.8337 7.91667C15.4753 7.91667 15.1337 7.86667 14.8087 7.76667C14.667 7.73333 14.5337 7.69167 14.4087 7.63333C14.2837 7.58333 14.1503 7.51667 14.0337 7.45C13.4087 7.10833 12.892 6.59167 12.5503 5.96667C12.4837 5.85 12.417 5.71667 12.367 5.59167C12.3087 5.46667 12.267 5.33333 12.2337 5.19167C12.1337 4.86667 12.0837 4.525 12.0837 4.16667C12.0837 4.03333 12.092 3.9 12.1087 3.775C12.117 3.7 12.1253 3.64167 12.1337 3.575C12.142 3.55 12.142 3.525 12.1503 3.5C12.2503 2.98333 11.867 2.5 11.3337 2.5H6.26699C6.15033 2.5 6.03366 2.50833 5.92533 2.51667C5.82533 2.525 5.73366 2.53333 5.63366 2.55C5.53366 2.55833 5.43366 2.575 5.34199 2.59167C3.33366 2.88333 2.05033 4.15833 1.75866 6.175C1.74199 6.26667 1.72533 6.36667 1.71699 6.46667C1.70033 6.56667 1.69199 6.65833 1.68366 6.75833C1.67533 6.86667 1.66699 6.98333 1.66699 7.1V13.7333C1.66699 13.85 1.67533 13.9667 1.68366 14.075C1.69199 14.175 1.70033 14.2667 1.71699 14.3667C1.72533 14.4667 1.74199 14.5667 1.75866 14.6583C2.05033 16.675 3.33366 17.95 5.34199 18.2417C5.43366 18.2583 5.53366 18.275 5.63366 18.2833C5.73366 18.3 5.82533 18.3083 5.92533 18.3167C6.03366 18.325 6.15033 18.3333 6.26699 18.3333H12.9003C13.017 18.3333 13.1337 18.325 13.242 18.3167C13.342 18.3083 13.4337 18.3 13.5337 18.2833C13.6337 18.275 13.7337 18.2583 13.8253 18.2417C15.8337 17.95 17.117 16.675 17.4087 14.6583C17.4253 14.5667 17.442 14.4667 17.4503 14.3667C17.467 14.2667 17.4753 14.175 17.4837 14.075C17.492 13.9667 17.5003 13.85 17.5003 13.7333V8.66667C17.5003 8.13333 17.017 7.75 16.5003 7.85ZM10.2337 12.7083C9.79199 14.1 8.27533 14.85 7.75033 14.85C7.21699 14.85 5.72533 14.1167 5.27533 12.7083H5.26699C4.97533 11.7833 5.30866 10.575 6.36699 10.2333C6.85033 10.075 7.36699 10.1667 7.74199 10.4583C8.11699 10.1667 8.64199 10.075 9.13366 10.2333C10.192 10.575 10.5253 11.7833 10.2337 12.7083Z" fill="white"/>
</svg>
