<svg width="20" height="20" viewBox="0 0 20 20" fill="none" xmlns="http://www.w3.org/2000/svg">
<path d="M10 3.95651C9.91667 3.95651 9.83333 3.94818 9.75833 3.93151C9.675 3.91484 9.6 3.88983 9.525 3.86483C9.45 3.8315 9.375 3.78984 9.30833 3.74818C9.24167 3.69818 9.175 3.64817 9.11667 3.58983C8.88333 3.3565 8.75 3.03984 8.75 2.70651C8.75 2.37318 8.88333 2.05651 9.11667 1.82318C9.175 1.76484 9.24167 1.71484 9.30833 1.66484C9.375 1.62318 9.45 1.5815 9.525 1.5565C9.6 1.52317 9.675 1.49817 9.75833 1.4815C10.1583 1.39817 10.5917 1.53151 10.8833 1.82318C11.1167 2.05651 11.25 2.37318 11.25 2.70651C11.25 3.03984 11.1167 3.3565 10.8833 3.58983C10.65 3.82317 10.325 3.95651 10 3.95651Z" fill="white"/>
<path d="M10 7.70703C9.91667 7.70703 9.83333 7.6987 9.75833 7.68203C9.675 7.66536 9.6 7.64036 9.525 7.61536C9.45 7.58203 9.375 7.54036 9.30833 7.4987C9.24167 7.4487 9.175 7.3987 9.11667 7.34036C8.88333 7.10703 8.75 6.79036 8.75 6.45703C8.75 6.1237 8.88333 5.80703 9.11667 5.5737C9.175 5.51536 9.24167 5.46536 9.30833 5.41536C9.375 5.3737 9.45 5.33203 9.525 5.30703C9.6 5.2737 9.675 5.2487 9.75833 5.23203C9.91667 5.1987 10.0833 5.1987 10.2417 5.23203C10.325 5.2487 10.4 5.2737 10.475 5.30703C10.55 5.33203 10.625 5.3737 10.6917 5.41536C10.7583 5.46536 10.825 5.51536 10.8833 5.5737C11.1167 5.80703 11.25 6.1237 11.25 6.45703C11.25 6.79036 11.1167 7.10703 10.8833 7.34036C10.825 7.3987 10.7583 7.4487 10.6917 7.4987C10.625 7.54036 10.55 7.58203 10.475 7.61536C10.4 7.64036 10.325 7.66536 10.2417 7.68203C10.1667 7.6987 10.0833 7.70703 10 7.70703Z" fill="white"/>
<path d="M10 11.0424C9.91667 11.0424 9.83333 11.0341 9.75833 11.0174C9.675 11.0008 9.6 10.9758 9.525 10.9508C9.45 10.9174 9.375 10.8758 9.30833 10.8341C9.24167 10.7841 9.175 10.7341 9.11667 10.6758C9.05833 10.6174 9.00833 10.5591 8.95833 10.4841C8.91667 10.4174 8.875 10.3424 8.84167 10.2674C8.81667 10.1924 8.79167 10.1174 8.775 10.0341C8.75833 9.95911 8.75 9.87577 8.75 9.79244C8.75 9.45911 8.88333 9.14244 9.11667 8.90911C9.175 8.85077 9.24167 8.80077 9.30833 8.75077C9.375 8.70911 9.45 8.66744 9.525 8.63411C9.6 8.60911 9.675 8.58411 9.75833 8.56744C10.1583 8.48411 10.5917 8.61744 10.8833 8.90911C11.1167 9.14244 11.25 9.45911 11.25 9.79244C11.25 9.87577 11.2417 9.95911 11.225 10.0341C11.2083 10.1174 11.1833 10.1924 11.15 10.2674C11.125 10.3424 11.0833 10.4174 11.0417 10.4841C10.9917 10.5591 10.9417 10.6174 10.8833 10.6758C10.825 10.7341 10.7583 10.7841 10.6917 10.8341C10.625 10.8758 10.55 10.9174 10.475 10.9508C10.4 10.9758 10.325 11.0008 10.2417 11.0174C10.1667 11.0341 10.0833 11.0424 10 11.0424Z" fill="white"/>
<path d="M10.0003 13.9611C9.78366 13.9611 9.56699 13.8694 9.40866 13.7194C9.25866 13.5611 9.16699 13.3444 9.16699 13.1278C9.16699 12.9111 9.25866 12.6944 9.40866 12.5361C9.60033 12.3444 9.89199 12.2611 10.1587 12.3111C10.217 12.3194 10.267 12.3361 10.317 12.3611C10.367 12.3778 10.417 12.4028 10.4587 12.4361C10.5087 12.4694 10.5503 12.5028 10.592 12.5361C10.742 12.6944 10.8337 12.9111 10.8337 13.1278C10.8337 13.3444 10.742 13.5611 10.592 13.7194C10.5503 13.7528 10.5087 13.7861 10.4587 13.8194C10.417 13.8528 10.367 13.8778 10.317 13.8944C10.267 13.9194 10.217 13.9361 10.1587 13.9444C10.1087 13.9528 10.0503 13.9611 10.0003 13.9611Z" fill="white"/>
<path d="M10 16.668C9.91667 16.668 9.83333 16.6513 9.75833 16.618C9.68333 16.5846 9.61667 16.543 9.55833 16.4846C9.5 16.4263 9.45 16.3596 9.425 16.2846C9.39167 16.2096 9.375 16.1263 9.375 16.043C9.375 15.8763 9.44167 15.718 9.55833 15.6013C9.61667 15.543 9.68333 15.5013 9.75833 15.468C9.91667 15.4013 10.0833 15.4013 10.2417 15.468C10.3167 15.5013 10.3833 15.543 10.4417 15.6013C10.5 15.6596 10.5417 15.7263 10.575 15.8013C10.6083 15.8763 10.625 15.9596 10.625 16.043C10.625 16.1263 10.6083 16.2096 10.575 16.2846C10.5417 16.3596 10.5 16.4263 10.4417 16.4846C10.3833 16.543 10.3167 16.5846 10.2417 16.618C10.1583 16.6513 10.0833 16.668 10 16.668Z" fill="white"/>
<path d="M9.99967 18.3935C9.89134 18.3935 9.78301 18.3518 9.70801 18.2685C9.62467 18.1935 9.58301 18.0852 9.58301 17.9768C9.58301 17.8685 9.62467 17.7602 9.70801 17.6852C9.85801 17.5268 10.1413 17.5268 10.2913 17.6852C10.3747 17.7602 10.4163 17.8685 10.4163 17.9768C10.4163 18.0852 10.3747 18.1935 10.2913 18.2685C10.2163 18.3518 10.108 18.3935 9.99967 18.3935Z" fill="white"/>
<path d="M2.91699 7.70599C2.58366 7.70599 2.26699 7.57266 2.03366 7.33932C1.80033 7.10599 1.66699 6.78932 1.66699 6.45599C1.66699 6.13099 1.80033 5.80599 2.03366 5.57266C2.49199 5.10599 3.33366 5.10599 3.80033 5.57266C4.03366 5.80599 4.16699 6.13099 4.16699 6.45599C4.16699 6.78932 4.03366 7.10599 3.80033 7.33932C3.74199 7.39766 3.67534 7.44766 3.60868 7.49766C3.54201 7.53932 3.467 7.58099 3.392 7.60599C3.317 7.63932 3.24198 7.66432 3.15864 7.68099C3.08364 7.69766 3.00033 7.70599 2.91699 7.70599Z" fill="white"/>
<path d="M17.083 7.70703C16.758 7.70703 16.433 7.5737 16.1997 7.34036C15.9663 7.10703 15.833 6.78203 15.833 6.45703C15.833 6.3737 15.8413 6.29037 15.858 6.21537C15.8747 6.13204 15.8997 6.05702 15.9247 5.98202C15.958 5.90702 15.9997 5.83203 16.0413 5.76536C16.0913 5.6987 16.1413 5.63203 16.1997 5.5737C16.258 5.51536 16.3247 5.46536 16.3913 5.41536C16.458 5.3737 16.533 5.33203 16.608 5.30703C16.683 5.2737 16.758 5.2487 16.8413 5.23203C16.9997 5.1987 17.1663 5.1987 17.3247 5.23203C17.408 5.2487 17.483 5.2737 17.558 5.30703C17.633 5.33203 17.708 5.3737 17.7747 5.41536C17.8413 5.46536 17.908 5.51536 17.9663 5.5737C18.0247 5.63203 18.0747 5.6987 18.1247 5.76536C18.1663 5.83203 18.208 5.90702 18.233 5.98202C18.2663 6.05702 18.2913 6.13204 18.308 6.21537C18.3247 6.29037 18.333 6.3737 18.333 6.45703C18.333 6.79036 18.1997 7.10703 17.9663 7.34036C17.908 7.3987 17.8413 7.4487 17.7747 7.4987C17.708 7.54036 17.633 7.58203 17.558 7.61536C17.483 7.64036 17.408 7.66536 17.3247 7.68203C17.2413 7.6987 17.1663 7.70703 17.083 7.70703Z" fill="white"/>
<path d="M17.0833 10.6258C17.0333 10.6258 16.975 10.6174 16.925 10.6091C16.8667 10.6008 16.8167 10.5841 16.7667 10.5591C16.7167 10.5424 16.6667 10.5174 16.6167 10.4841C16.575 10.4591 16.5333 10.4174 16.4917 10.3841C16.4583 10.3424 16.4167 10.3008 16.3917 10.2591C16.3583 10.2091 16.3333 10.1591 16.3167 10.1091C16.2917 10.0591 16.275 10.0091 16.2667 9.95911C16.2583 9.90078 16.25 9.85078 16.25 9.79245C16.25 9.57578 16.3417 9.35911 16.4917 9.20078C16.5333 9.16745 16.575 9.13411 16.6167 9.10078C16.6667 9.06745 16.7167 9.04245 16.7667 9.02578C16.8167 9.00078 16.8667 8.98411 16.925 8.97578C17.025 8.95078 17.1333 8.95078 17.2417 8.97578C17.3 8.98411 17.35 9.00078 17.4 9.02578C17.45 9.04245 17.5 9.06745 17.5417 9.10078C17.5917 9.13411 17.6333 9.16745 17.675 9.20078C17.825 9.35911 17.9167 9.57578 17.9167 9.79245C17.9167 9.85078 17.9083 9.90078 17.9 9.95911C17.8917 10.0091 17.875 10.0591 17.85 10.1091C17.8333 10.1591 17.8083 10.2091 17.775 10.2591C17.7417 10.3008 17.7083 10.3424 17.675 10.3841C17.6333 10.4174 17.5917 10.4591 17.5417 10.4841C17.5 10.5174 17.45 10.5424 17.4 10.5591C17.35 10.5841 17.3 10.6008 17.2417 10.6091C17.1917 10.6174 17.1333 10.6258 17.0833 10.6258Z" fill="white"/>
<path d="M2.91634 10.6267C2.69967 10.6267 2.48299 10.535 2.32466 10.385C2.17466 10.2267 2.08301 10.01 2.08301 9.79335C2.08301 9.57668 2.17466 9.36001 2.32466 9.20168C2.55799 8.96834 2.92467 8.89334 3.23301 9.02668C3.34134 9.06834 3.42469 9.12668 3.50802 9.20168C3.65802 9.36001 3.74967 9.57668 3.74967 9.79335C3.74967 10.01 3.65802 10.2267 3.50802 10.385C3.34969 10.535 3.13301 10.6267 2.91634 10.6267Z" fill="white"/>
<path d="M17.083 12.9167C16.9163 12.9167 16.758 12.8501 16.6413 12.7334C16.5247 12.6167 16.458 12.4584 16.458 12.2917C16.458 12.2084 16.4747 12.1334 16.508 12.0501C16.5413 11.9751 16.583 11.9084 16.6413 11.8501C16.8163 11.6751 17.0913 11.6167 17.3247 11.7167C17.3997 11.7501 17.4663 11.7917 17.5247 11.8501C17.583 11.9084 17.6247 11.9751 17.658 12.0501C17.6913 12.1334 17.708 12.2084 17.708 12.2917C17.708 12.4584 17.6413 12.6167 17.5247 12.7334C17.4663 12.7917 17.3997 12.8334 17.3247 12.8667C17.2413 12.9001 17.1663 12.9167 17.083 12.9167Z" fill="white"/>
<path d="M2.91699 12.9174C2.75033 12.9174 2.59197 12.8508 2.4753 12.7341C2.41697 12.6758 2.36699 12.6091 2.34199 12.5341C2.30866 12.4591 2.29199 12.3758 2.29199 12.2924C2.29199 12.2091 2.30866 12.1341 2.34199 12.0508C2.36699 11.9758 2.41697 11.9091 2.4753 11.8508C2.7003 11.6174 3.12535 11.6174 3.35868 11.8508C3.41702 11.9091 3.45866 11.9758 3.49199 12.0508C3.52533 12.1341 3.54199 12.2091 3.54199 12.2924C3.54199 12.3758 3.52533 12.4591 3.49199 12.5341C3.45866 12.6091 3.41702 12.6758 3.35868 12.7341C3.24202 12.8508 3.08366 12.9174 2.91699 12.9174Z" fill="white"/>
<path d="M17.0837 14.999C17.0253 14.999 16.9753 14.9906 16.9253 14.9656C16.8753 14.949 16.8253 14.9156 16.792 14.874C16.7087 14.799 16.667 14.6906 16.667 14.5823C16.667 14.474 16.7087 14.3656 16.792 14.2906C16.942 14.1323 17.2253 14.1323 17.3753 14.2906C17.4587 14.3656 17.5003 14.474 17.5003 14.5823C17.5003 14.6906 17.4587 14.799 17.3753 14.874C17.3003 14.9573 17.192 14.999 17.0837 14.999Z" fill="white"/>
<path d="M2.91667 14.999C2.80833 14.999 2.70002 14.9573 2.62502 14.874C2.54168 14.799 2.5 14.6906 2.5 14.5823C2.5 14.474 2.54168 14.3656 2.62502 14.2906C2.77502 14.1323 3.05832 14.1323 3.20832 14.2906C3.29165 14.3656 3.33333 14.474 3.33333 14.5823C3.33333 14.6906 3.29165 14.799 3.20832 14.874C3.13332 14.9573 3.025 14.999 2.91667 14.999Z" fill="white"/>
<path d="M6.45801 5.83099C6.37467 5.83099 6.29136 5.82266 6.21636 5.80599C6.13302 5.78932 6.058 5.76432 5.983 5.73099C5.89967 5.70599 5.83299 5.66432 5.76632 5.62266C5.69132 5.57266 5.63301 5.52266 5.57467 5.46432C5.34134 5.23099 5.20801 4.90599 5.20801 4.58099C5.20801 4.25599 5.34134 3.93099 5.57467 3.69766C6.04134 3.23099 6.87467 3.23099 7.34134 3.69766C7.57467 3.93099 7.70801 4.24766 7.70801 4.58099C7.70801 4.91432 7.57467 5.23099 7.34134 5.46432C7.28301 5.52266 7.21636 5.57266 7.14969 5.62266C7.08302 5.66432 7.00802 5.70599 6.93302 5.73099C6.85802 5.76432 6.78299 5.78932 6.69966 5.80599C6.62466 5.82266 6.54134 5.83099 6.45801 5.83099Z" fill="white"/>
<path d="M13.542 5.83203C13.4587 5.83203 13.3753 5.8237 13.3003 5.80703C13.217 5.79036 13.142 5.76537 13.067 5.73204C12.992 5.70704 12.917 5.66536 12.8503 5.6237C12.7837 5.5737 12.717 5.5237 12.6587 5.46536C12.6003 5.40703 12.5503 5.34036 12.5003 5.2737C12.4587 5.20703 12.417 5.13204 12.3837 5.05704C12.3587 4.98204 12.3337 4.90702 12.317 4.82369C12.3003 4.74869 12.292 4.66536 12.292 4.58203C12.292 4.25703 12.4253 3.93203 12.6587 3.6987C12.717 3.64036 12.7837 3.59036 12.8503 3.54036C12.917 3.4987 12.992 3.45703 13.067 3.43203C13.142 3.3987 13.217 3.3737 13.3003 3.35703C13.4587 3.3237 13.6253 3.3237 13.7837 3.35703C13.867 3.3737 13.942 3.3987 14.017 3.43203C14.092 3.45703 14.167 3.4987 14.2337 3.54036C14.3003 3.59036 14.367 3.64036 14.4253 3.6987C14.6587 3.93203 14.792 4.25703 14.792 4.58203C14.792 4.66536 14.7837 4.74869 14.767 4.82369C14.7503 4.90702 14.7253 4.98204 14.7003 5.05704C14.667 5.13204 14.6253 5.20703 14.5837 5.2737C14.5337 5.34036 14.4837 5.40703 14.4253 5.46536C14.367 5.5237 14.3003 5.5737 14.2337 5.6237C14.167 5.66536 14.092 5.70704 14.017 5.73204C13.942 5.76537 13.867 5.79036 13.7837 5.80703C13.7087 5.8237 13.6253 5.83203 13.542 5.83203Z" fill="white"/>
<path d="M6.45801 9.37393C6.37467 9.37393 6.29136 9.3656 6.21636 9.34893C6.13302 9.33227 6.058 9.30727 5.983 9.28227C5.908 9.24893 5.83299 9.20727 5.76632 9.1656C5.69132 9.1156 5.63301 9.0656 5.57467 9.00727C5.34134 8.77393 5.20801 8.44893 5.20801 8.12396C5.20801 7.79062 5.34134 7.47396 5.57467 7.24063C6.04134 6.77396 6.87467 6.77396 7.34134 7.24063C7.57467 7.47396 7.70801 7.79062 7.70801 8.12396C7.70801 8.45727 7.57467 8.77393 7.34134 9.00727C7.10801 9.2406 6.78301 9.37393 6.45801 9.37393Z" fill="white"/>
<path d="M13.542 9.375C13.4587 9.375 13.3753 9.36667 13.3003 9.35C13.217 9.33333 13.142 9.30833 13.067 9.275C12.992 9.25 12.917 9.20833 12.8503 9.16667C12.7837 9.11667 12.717 9.06667 12.6587 9.00833C12.6003 8.95 12.5503 8.88333 12.5003 8.81667C12.4587 8.75 12.417 8.675 12.3837 8.6C12.3587 8.525 12.3337 8.45 12.317 8.36667C12.3003 8.29166 12.292 8.20833 12.292 8.125C12.292 7.8 12.4253 7.475 12.6587 7.24167C12.717 7.18333 12.7837 7.13333 12.8503 7.08333C12.917 7.04167 12.992 7 13.067 6.975C13.142 6.94167 13.217 6.91667 13.3003 6.9C13.4587 6.86667 13.6253 6.86667 13.7837 6.9C13.867 6.91667 13.942 6.94167 14.017 6.975C14.092 7 14.167 7.04167 14.2337 7.08333C14.3003 7.13333 14.367 7.18333 14.4253 7.24167C14.6587 7.475 14.792 7.8 14.792 8.125C14.792 8.20833 14.7837 8.29166 14.767 8.36667C14.7503 8.45 14.7253 8.525 14.7003 8.6C14.667 8.675 14.6253 8.75 14.5837 8.81667C14.5337 8.88333 14.4837 8.95 14.4253 9.00833C14.367 9.06667 14.3003 9.11667 14.2337 9.16667C14.167 9.20833 14.092 9.25 14.017 9.275C13.942 9.30833 13.867 9.33333 13.7837 9.35C13.7087 9.36667 13.6253 9.375 13.542 9.375Z" fill="white"/>
<path d="M6.45833 12.2891C6.35 12.2891 6.24167 12.2641 6.14167 12.2224C6.03333 12.1807 5.94165 12.1224 5.86665 12.0474C5.79165 11.9641 5.73335 11.8724 5.69168 11.7724C5.65002 11.6724 5.625 11.5641 5.625 11.4557C5.625 11.2391 5.71665 11.0224 5.86665 10.8641C6.17498 10.5557 6.74168 10.5557 7.05002 10.8641C7.20002 11.0224 7.29167 11.2391 7.29167 11.4557C7.29167 11.5641 7.26665 11.6724 7.22498 11.7724C7.18332 11.8724 7.12502 11.9641 7.05002 12.0474C6.89168 12.1974 6.675 12.2891 6.45833 12.2891Z" fill="white"/>
<path d="M13.5413 12.2891C13.3247 12.2891 13.108 12.1974 12.9497 12.0474C12.7997 11.8891 12.708 11.6724 12.708 11.4557C12.708 11.2391 12.7997 11.0224 12.9497 10.8641C13.258 10.5557 13.8163 10.5557 14.133 10.8641C14.283 11.0224 14.3747 11.2391 14.3747 11.4557C14.3747 11.5141 14.3663 11.5641 14.358 11.6224C14.3497 11.6724 14.333 11.7224 14.308 11.7724C14.2913 11.8224 14.2663 11.8724 14.233 11.9141C14.1997 11.9641 14.1663 12.0057 14.133 12.0474C13.9747 12.1974 13.758 12.2891 13.5413 12.2891Z" fill="white"/>
<path d="M6.45801 14.793C6.29134 14.793 6.13298 14.7263 6.01632 14.6096C5.95798 14.5513 5.91634 14.4846 5.88301 14.4096C5.84967 14.3346 5.83301 14.2513 5.83301 14.168C5.83301 14.0846 5.84967 14.0096 5.88301 13.9263C5.91634 13.8513 5.95798 13.7846 6.01632 13.7263C6.07465 13.668 6.14136 13.6263 6.21636 13.593C6.36636 13.5263 6.54132 13.5263 6.69966 13.593C6.77466 13.6263 6.84137 13.668 6.8997 13.7263C7.01637 13.843 7.08301 14.0013 7.08301 14.168C7.08301 14.2513 7.06634 14.3346 7.03301 14.4096C6.99967 14.4846 6.95803 14.5513 6.8997 14.6096C6.78303 14.7263 6.62467 14.793 6.45801 14.793Z" fill="white"/>
<path d="M13.542 14.793C13.4587 14.793 13.3753 14.7763 13.3003 14.743C13.2253 14.7096 13.1587 14.668 13.1003 14.6096C13.042 14.5513 12.992 14.4846 12.967 14.4096C12.9337 14.3346 12.917 14.2513 12.917 14.168C12.917 14.0846 12.9337 14.0013 12.967 13.9263C13.0003 13.8513 13.042 13.7846 13.1003 13.7263C13.1587 13.668 13.2253 13.6263 13.3003 13.593C13.4503 13.5263 13.6253 13.5263 13.7837 13.593C13.8587 13.6263 13.9253 13.668 13.9837 13.7263C14.042 13.7846 14.0837 13.8513 14.117 13.9263C14.1503 14.0013 14.167 14.0846 14.167 14.168C14.167 14.2513 14.1503 14.3346 14.117 14.4096C14.0837 14.4846 14.042 14.5513 13.9837 14.6096C13.867 14.7263 13.7087 14.793 13.542 14.793Z" fill="white"/>
<path d="M6.45866 16.6669C6.35033 16.6669 6.24201 16.6253 6.16701 16.5419C6.08368 16.4669 6.04199 16.3586 6.04199 16.2503C6.04199 16.1419 6.08368 16.0336 6.16701 15.9586C6.31701 15.8003 6.60031 15.8003 6.75031 15.9586C6.83364 16.0336 6.87533 16.1419 6.87533 16.2503C6.87533 16.3586 6.83364 16.4669 6.75031 16.5419C6.67531 16.6253 6.56699 16.6669 6.45866 16.6669Z" fill="white"/>
<path d="M13.5417 16.6669C13.4833 16.6669 13.4333 16.6586 13.3833 16.6336C13.3333 16.6169 13.2833 16.5836 13.25 16.5419C13.2083 16.5086 13.175 16.4586 13.1583 16.4086C13.1333 16.3586 13.125 16.3086 13.125 16.2503C13.125 16.1419 13.1667 16.0336 13.25 15.9586C13.4 15.8003 13.6833 15.8003 13.8333 15.9586C13.9167 16.0336 13.9583 16.1419 13.9583 16.2503C13.9583 16.3086 13.95 16.3586 13.925 16.4086C13.9083 16.4586 13.875 16.5086 13.8333 16.5419C13.7583 16.6253 13.65 16.6669 13.5417 16.6669Z" fill="white"/>
</svg>
