<svg width="20" height="20" viewBox="0 0 20 20" fill="none" xmlns="http://www.w3.org/2000/svg">
<path d="M14.1667 5.83203C14.1667 8.13203 12.3 9.9987 10 9.9987C12.3 9.9987 14.1667 11.8654 14.1667 14.1654C16.4667 14.1654 18.3333 12.2987 18.3333 9.9987C18.3333 7.6987 16.4667 5.83203 14.1667 5.83203Z" fill="white"/>
<path d="M9.99967 10C9.99967 12.3 8.13301 14.1667 5.83301 14.1667C5.83301 16.4667 7.69967 18.3333 9.99967 18.3333C12.2997 18.3333 14.1663 16.4667 14.1663 14.1667C11.8663 14.1667 9.99967 12.3 9.99967 10Z" fill="white"/>
<path d="M9.99967 10.0013C9.99967 7.7013 11.8663 5.83464 14.1663 5.83464C14.1663 3.53464 12.2997 1.66797 9.99967 1.66797C7.69967 1.66797 5.83301 3.53464 5.83301 5.83464C8.13301 5.83464 9.99967 7.7013 9.99967 10.0013Z" fill="white"/>
<path d="M10.0003 9.9987C7.70033 9.9987 5.83366 8.13203 5.83366 5.83203C3.53366 5.83203 1.66699 7.6987 1.66699 9.9987C1.66699 12.2987 3.53366 14.1654 5.83366 14.1654C5.83366 11.8654 7.70033 9.9987 10.0003 9.9987Z" fill="white"/>
</svg>
