<svg width="20" height="20" viewBox="0 0 20 20" fill="none" xmlns="http://www.w3.org/2000/svg">
<path d="M10.0003 1.66797C5.40033 1.66797 1.66699 5.4013 1.66699 10.0013C1.66699 14.6013 5.40033 18.3346 10.0003 18.3346C14.6003 18.3346 18.3337 14.6013 18.3337 10.0013C18.3337 5.4013 14.6003 1.66797 10.0003 1.66797ZM14.167 14.3763H11.5837C11.3337 14.3763 11.1087 14.2346 11.0087 14.0013C10.9087 13.768 10.9503 13.5096 11.117 13.3263L12.467 11.8346C13.0253 11.2096 13.342 10.418 13.342 9.6013C13.342 8.76797 13.0003 7.98464 12.3753 7.39297C11.7503 6.8013 10.8837 6.45964 10.0003 6.45964C9.11699 6.45964 8.25033 6.8013 7.62533 7.39297C7.00033 7.98464 6.65866 8.76797 6.65866 9.6013C6.65866 10.418 6.96699 11.2096 7.53366 11.8346L8.87533 13.3346C9.04199 13.518 9.08366 13.7846 8.98366 14.0096C8.88366 14.2346 8.65866 14.3846 8.40866 14.3846H5.83366C5.49199 14.3846 5.20866 14.1013 5.20866 13.7596C5.20866 13.418 5.49199 13.1263 5.83366 13.1263H7.00866L6.60033 12.6763C5.83366 11.8263 5.40866 10.7346 5.40866 9.6013C5.40866 8.44297 5.90033 7.3013 6.76699 6.48464C7.63366 5.65964 8.77533 5.20964 10.0003 5.20964C11.2253 5.20964 12.367 5.65964 13.2337 6.48464C14.092 7.3013 14.592 8.44297 14.592 9.6013C14.592 10.7263 14.167 11.818 13.4003 12.6763L12.992 13.1263H14.167C14.5087 13.1263 14.792 13.4096 14.792 13.7513C14.792 14.093 14.5087 14.3763 14.167 14.3763Z" fill="white"/>
</svg>
