<svg width="20" height="20" viewBox="0 0 20 20" fill="none" xmlns="http://www.w3.org/2000/svg">
<path d="M13.492 1.66797H6.50866C3.47533 1.66797 1.66699 3.4763 1.66699 6.50964V13.4846C1.66699 16.5263 3.47533 18.3346 6.50866 18.3346H13.4837C16.517 18.3346 18.3253 16.5263 18.3253 13.493V6.50964C18.3337 3.4763 16.5253 1.66797 13.492 1.66797ZM14.167 14.5846H11.5837C11.3337 14.5846 11.1087 14.443 11.0087 14.2096C10.9087 13.9763 10.9503 13.718 11.117 13.5346L12.467 12.043C13.0253 11.418 13.342 10.6263 13.342 9.80964C13.342 8.9763 13.0003 8.19297 12.3753 7.6013C11.7503 7.00964 10.8837 6.66797 10.0003 6.66797C9.11699 6.66797 8.25033 7.00964 7.62533 7.6013C7.00033 8.19297 6.65866 8.9763 6.65866 9.80964C6.65866 10.6263 6.96699 11.418 7.53366 12.043L8.88366 13.5346C9.05033 13.718 9.09199 13.9846 8.99199 14.2096C8.89199 14.4346 8.66699 14.5846 8.41699 14.5846H5.83366C5.49199 14.5846 5.20866 14.3013 5.20866 13.9596C5.20866 13.618 5.49199 13.3346 5.83366 13.3346H7.00866L6.60033 12.8846C5.83366 12.0346 5.40866 10.943 5.40866 9.80964C5.40866 8.6513 5.90033 7.50964 6.76699 6.69297C7.63366 5.86797 8.77533 5.41797 10.0003 5.41797C11.2253 5.41797 12.367 5.86797 13.2337 6.69297C14.092 7.50964 14.592 8.6513 14.592 9.80964C14.592 10.9346 14.167 12.0263 13.4003 12.8846L12.992 13.3346H14.167C14.5087 13.3346 14.792 13.618 14.792 13.9596C14.792 14.3013 14.5087 14.5846 14.167 14.5846Z" fill="white"/>
</svg>
