<svg width="20" height="20" viewBox="0 0 20 20" fill="none" xmlns="http://www.w3.org/2000/svg">
<path d="M15.925 6.2236L12.9917 3.29027C10.3583 0.665274 8.975 1.63194 7.30837 3.29027L2.59171 8.00694C1.63337 8.96529 1.10837 9.58196 0.916707 10.2653C0.916707 10.2736 0.908374 10.2736 0.908374 10.2736C0.908374 10.282 0.908374 10.282 0.908374 10.282C0.908374 10.2903 0.908374 10.2903 0.908374 10.2903V10.3153C0.566705 11.532 1.46671 12.5653 2.59171 13.6903L5.53337 16.6153C6.58337 17.6736 7.43337 18.332 8.375 18.332C9.31667 18.332 10.125 17.6986 11.2083 16.6153L15.925 11.907C16.3333 11.4903 16.6333 11.1486 16.8667 10.8236C16.8667 10.8153 16.8667 10.8153 16.8667 10.8153C16.8667 10.8153 16.8667 10.8153 16.875 10.8153C17.9417 9.32363 17.6583 7.9486 15.925 6.2236ZM15.0667 9.47363H15.0583C14.8083 9.41529 14.55 9.3653 14.2917 9.3153C14.275 9.3153 14.2583 9.30696 14.2333 9.30696C13.65 9.19863 13.0583 9.10696 12.4583 9.03196H12.425C11.825 8.95696 11.2167 8.89863 10.6083 8.8653H10.5417C10.0083 8.83196 9.46667 8.81529 8.93333 8.81529C8.28337 8.81529 7.63337 8.84863 6.99171 8.8903C6.88337 8.89863 6.78337 8.90696 6.68337 8.91529C6.20004 8.94863 5.71671 8.99863 5.24171 9.05696C5.10837 9.07363 4.98337 9.0903 4.85837 9.10696C4.37504 9.18196 3.90004 9.25696 3.42504 9.34863C3.31671 9.37363 3.21671 9.39029 3.10837 9.40696C3.06671 9.41529 3.01671 9.42363 2.97504 9.43196C3.12504 9.2653 3.30004 9.0903 3.49171 8.89863L8.20004 4.19027C9.71667 2.69027 10.2333 2.33194 12.1 4.19027L15.025 7.1236C15.475 7.56527 15.775 7.94027 15.9583 8.26527C15.9583 8.26527 15.9583 8.2736 15.9667 8.2736C16.3167 8.88196 15.75 9.60696 15.0667 9.47363Z" fill="white"/>
<path d="M17.4582 14.057C17.1416 13.6654 16.8666 13.332 16.2499 13.332C15.6332 13.332 15.3582 13.6654 15.0499 14.057C14.3832 14.882 14.0832 15.782 14.1916 16.6487C14.3166 17.6404 15.1666 18.332 16.2499 18.332C17.3332 18.332 18.1832 17.6404 18.3082 16.6404C18.4166 15.7737 18.1249 14.882 17.4582 14.057Z" fill="white"/>
</svg>
