<svg width="20" height="20" viewBox="0 0 20 20" fill="none" xmlns="http://www.w3.org/2000/svg">
<path d="M13.492 1.66797H6.50866C3.47533 1.66797 1.66699 3.4763 1.66699 6.50964V13.4846C1.66699 16.5263 3.47533 18.3346 6.50866 18.3346H13.4837C16.517 18.3346 18.3253 16.5263 18.3253 13.493V6.50964C18.3337 3.4763 16.5253 1.66797 13.492 1.66797ZM13.642 12.193L11.792 14.043C11.342 14.493 10.7587 14.7096 10.1753 14.7096C9.59199 14.7096 9.00033 14.4846 8.55866 14.043C7.66699 13.1513 7.66699 11.693 8.55866 10.8013L9.73366 9.6263C9.97533 9.38464 10.3753 9.38464 10.617 9.6263C10.8587 9.86797 10.8587 10.268 10.617 10.5096L9.44199 11.6846C9.03366 12.093 9.03366 12.7513 9.44199 13.1596C9.85033 13.568 10.5087 13.568 10.917 13.1596L12.767 11.3096C13.2753 10.8013 13.5587 10.118 13.5587 9.39297C13.5587 8.66797 13.2753 7.99297 12.767 7.4763C11.742 6.4513 9.95866 6.4513 8.93366 7.4763L6.90866 9.5013C6.04199 10.368 6.04199 11.7846 6.90866 12.6596C7.15033 12.9013 7.15033 13.3013 6.90866 13.543C6.66699 13.7846 6.26699 13.7846 6.02533 13.543C4.66699 12.1846 4.66699 9.9763 6.02533 8.61797L8.04199 6.6013C8.79199 5.8513 9.78366 5.44297 10.842 5.44297C11.9003 5.44297 12.892 5.8513 13.642 6.6013C14.392 7.3513 14.8003 8.34297 14.8003 9.4013C14.8003 10.4596 14.392 11.4513 13.642 12.193Z" fill="white"/>
</svg>
