<svg width="20" height="20" viewBox="0 0 20 20" fill="none" xmlns="http://www.w3.org/2000/svg">
<path d="M13.492 1.66797H6.50866C3.47533 1.66797 1.66699 3.4763 1.66699 6.50964V13.4846C1.66699 16.5263 3.47533 18.3346 6.50866 18.3346H13.4837C16.517 18.3346 18.3253 16.5263 18.3253 13.493V6.50964C18.3337 3.4763 16.5253 1.66797 13.492 1.66797ZM13.9587 11.4263C13.9587 12.693 12.9337 13.718 11.667 13.718C10.4003 13.718 9.37533 12.693 9.37533 11.4263V9.75964C9.37533 9.41797 9.65866 9.13464 10.0003 9.13464C10.342 9.13464 10.6253 9.41797 10.6253 9.75964V11.4263C10.6253 12.0013 11.092 12.468 11.667 12.468C12.242 12.468 12.7087 12.0013 12.7087 11.4263V8.80963C12.7087 7.31797 11.492 6.1013 10.0003 6.1013C8.50866 6.1013 7.29199 7.31797 7.29199 8.80963V11.668C7.29199 12.9013 8.29199 13.9013 9.52533 13.9013C9.86699 13.9013 10.1503 14.1846 10.1503 14.5263C10.1503 14.868 9.86699 15.1513 9.52533 15.1513C7.60866 15.1513 6.04199 13.5846 6.04199 11.668V8.80963C6.04199 6.6263 7.81699 4.8513 10.0003 4.8513C12.1837 4.8513 13.9587 6.6263 13.9587 8.80963V11.4263Z" fill="white"/>
</svg>
