<svg width="20" height="20" viewBox="0 0 20 20" fill="none" xmlns="http://www.w3.org/2000/svg">
<path d="M15 3.33464H13.125V2.29297C13.125 1.9513 12.8417 1.66797 12.5 1.66797C12.1583 1.66797 11.875 1.9513 11.875 2.29297V17.7096C11.875 18.0513 12.1583 18.3346 12.5 18.3346C12.8417 18.3346 13.125 18.0513 13.125 17.7096V16.668H15C16.8417 16.668 18.3333 15.1763 18.3333 13.3346V6.66797C18.3333 4.8263 16.8417 3.33464 15 3.33464Z" fill="white"/>
<path d="M5.41634 3.33203C3.57467 3.33203 2.08301 4.8237 2.08301 6.66536V13.332C2.08301 15.1737 3.57467 16.6654 5.41634 16.6654H9.58301C10.0413 16.6654 10.4163 16.2904 10.4163 15.832V4.16536C10.4163 3.70703 10.0413 3.33203 9.58301 3.33203H5.41634ZM5.55801 10.3154C5.51634 10.4154 5.45801 10.507 5.38301 10.5904C5.29967 10.6654 5.20801 10.7237 5.10801 10.7654C5.00801 10.807 4.89967 10.832 4.79134 10.832C4.68301 10.832 4.57467 10.807 4.47467 10.7654C4.37467 10.7237 4.28301 10.6654 4.19967 10.5904C4.12467 10.507 4.06634 10.4154 4.01634 10.3154C3.97467 10.2154 3.95801 10.107 3.95801 9.9987C3.95801 9.78203 4.04967 9.56536 4.19967 9.40703C4.24134 9.3737 4.28301 9.34036 4.32467 9.30703C4.37467 9.2737 4.42467 9.2487 4.47467 9.23203C4.52467 9.20703 4.57467 9.19036 4.62467 9.18203C4.90801 9.1237 5.19134 9.21536 5.38301 9.40703C5.53301 9.56536 5.62467 9.78203 5.62467 9.9987C5.62467 10.107 5.59967 10.2154 5.55801 10.3154ZM8.47467 10.3154C8.43301 10.4154 8.37467 10.507 8.29967 10.5904C8.21634 10.6654 8.12467 10.7237 8.02467 10.7654C7.92467 10.807 7.81634 10.832 7.70801 10.832C7.59967 10.832 7.49134 10.807 7.39134 10.7654C7.29134 10.7237 7.19967 10.6654 7.11634 10.5904C6.95801 10.432 6.87467 10.2237 6.87467 9.9987C6.87467 9.89036 6.89967 9.78203 6.94134 9.68203C6.98301 9.5737 7.04134 9.49036 7.11634 9.40703C7.42467 9.0987 7.98301 9.0987 8.29967 9.40703C8.44967 9.56536 8.54134 9.78203 8.54134 9.9987C8.54134 10.107 8.51634 10.2154 8.47467 10.3154Z" fill="white"/>
</svg>
