<svg width="20" height="20" viewBox="0 0 20 20" fill="none" xmlns="http://www.w3.org/2000/svg">
<path d="M13.492 1.66797H6.50866C3.47533 1.66797 1.66699 3.4763 1.66699 6.50964V13.4846C1.66699 16.5263 3.47533 18.3346 6.50866 18.3346H13.4837C16.517 18.3346 18.3253 16.5263 18.3253 13.493V6.50964C18.3337 3.4763 16.5253 1.66797 13.492 1.66797ZM13.8837 9.3763L12.5337 10.2263L12.6503 12.2263C12.7587 13.343 12.3753 13.7263 11.317 13.8513L7.09199 14.3513C6.86013 14.3829 6.78143 14.1202 6.9469 13.9547L8.23366 12.668C8.47533 12.4263 8.47533 12.0263 8.23366 11.7846C7.98366 11.543 7.59199 11.543 7.34199 11.7846L6.06264 13.0705C5.89782 13.2361 5.63542 13.1579 5.66699 12.9263L6.15866 8.7013C6.29199 7.64297 6.67533 7.3013 7.79199 7.36797L9.78366 7.48463L10.642 6.1263C11.0337 5.50964 11.8337 5.4763 12.417 6.05964L13.9587 7.6013C14.5087 8.14297 14.4753 9.0013 13.8837 9.3763Z" fill="white"/>
</svg>
