<svg width="20" height="20" viewBox="0 0 20 20" fill="none" xmlns="http://www.w3.org/2000/svg">
<path d="M11.7924 18.3349H8.19238C6.90905 18.3349 5.95905 17.2932 6.20905 16.1849L6.64238 14.2516C6.72571 13.8682 7.06738 13.6016 7.45905 13.6016H12.5341C12.9257 13.6016 13.2591 13.8682 13.3507 14.2516L13.7841 16.1766C14.0507 17.3682 13.1591 18.3349 11.7924 18.3349Z" fill="white"/>
<path d="M15.6828 11.4074L14.7912 12.1907C14.4828 12.4574 14.0912 12.6074 13.6912 12.6074H6.32453C5.9162 12.6074 5.5162 12.4574 5.2162 12.1824L4.3412 11.3991C2.90787 10.2241 2.89953 9.32407 3.99953 7.94074L8.35784 2.4324C8.38834 2.39152 8.41959 2.35219 8.45159 2.31437C8.81901 1.8802 9.39118 2.25313 9.39118 2.82193V5.71574C9.38284 6.07407 9.66618 6.3574 10.0162 6.34907C10.3662 6.3574 10.6412 6.07407 10.6495 5.71574V2.82193C10.6495 2.25313 11.2132 1.88874 11.5903 2.31447C11.6216 2.34971 11.6524 2.38624 11.6828 2.42407L16.0245 7.94074C17.1078 9.32407 17.0662 10.1824 15.6828 11.4074Z" fill="white"/>
</svg>
