<svg width="20" height="20" viewBox="0 0 20 20" fill="none" xmlns="http://www.w3.org/2000/svg">
<path d="M16.6832 8.917L14.9166 10.0337C14.5832 10.242 14.1582 10.192 13.8832 9.917L10.1082 6.14201C9.83323 5.86701 9.78323 5.44201 9.99156 5.10868L11.1082 3.34201C11.7916 2.26701 13.1582 2.21701 14.1666 3.21701L16.8166 5.86701C17.7499 6.80867 17.6916 8.27534 16.6832 8.917Z" fill="white"/>
<path d="M12.2577 16.6255L4.99097 17.4755C4.92624 17.4841 4.86235 17.4902 4.79935 17.4939C4.22841 17.5276 4.08685 16.8546 4.49126 16.4502L6.64931 14.2922C6.91597 14.0338 6.91597 13.6255 6.64931 13.3672C6.39931 13.1088 5.99097 13.1088 5.72431 13.3672L3.56626 15.5252C3.16185 15.9296 2.49507 15.7874 2.52541 15.2163C2.5286 15.1563 2.53377 15.0955 2.54097 15.0338L3.39931 7.76711C3.61597 5.95044 4.28264 5.35044 6.19931 5.46711L7.44931 5.54211C7.85764 5.56711 8.24097 5.74211 8.53267 6.03378L13.991 11.4922C14.2827 11.7838 14.4577 12.1672 14.4743 12.5755L14.5493 13.8255C14.741 15.7505 14.0827 16.4172 12.2577 16.6255Z" fill="white"/>
</svg>
