<svg width="20" height="20" viewBox="0 0 20 20" fill="none" xmlns="http://www.w3.org/2000/svg">
<path d="M15.8333 5.83464C15.8333 5.98464 15.825 6.12629 15.8083 6.26796C15.7083 7.47629 15.175 8.56797 14.3667 9.36797C13.4667 10.2763 12.2167 10.8346 10.8333 10.8346H8.22502C7.80835 10.8346 7.45836 11.143 7.40002 11.5513L6.76668 15.9513C6.71668 16.2763 6.48336 16.543 6.17502 16.6263C6.10002 16.6596 6.02502 16.668 5.94169 16.668H4.31667C3.80001 16.668 3.40835 16.2096 3.49168 15.7013L5.48334 3.75964C5.68334 2.55131 6.72502 1.66797 7.95002 1.66797H11.6667C13.9667 1.66797 15.8333 3.53464 15.8333 5.83464Z" fill="white"/>
<path d="M17.4999 9.16772C17.4999 10.3177 17.0333 11.3594 16.2833 12.1177C15.5249 12.8677 14.4833 13.3344 13.3333 13.3344H11.5416C11.1333 13.3344 10.7833 13.6261 10.7166 14.0344L10.1166 17.6344C10.0499 18.0427 9.69992 18.3344 9.29159 18.3344H6.84995C6.69995 18.3344 6.5666 18.301 6.44994 18.2344C6.2666 18.1344 6.38327 17.8927 6.58327 17.8094C7.33327 17.5677 7.88328 16.9261 7.99995 16.1261L8.53325 12.4427C8.56659 12.2344 8.74159 12.0844 8.94159 12.0844H10.8333C12.5083 12.0844 14.0833 11.4344 15.2499 10.2594C15.9416 9.57605 16.4583 8.73438 16.7583 7.82603C16.8249 7.61769 17.0999 7.57603 17.1916 7.76769C17.3916 8.20103 17.4999 8.66772 17.4999 9.16772Z" fill="white"/>
</svg>
