<svg width="20" height="20" viewBox="0 0 20 20" fill="none" xmlns="http://www.w3.org/2000/svg">
<path d="M17.1252 7.86719H16.2086C16.0836 7.86719 15.9586 7.89219 15.8419 7.92552L11.6836 3.76719C12.0836 3.25052 12.0502 2.50885 11.5752 2.04219L10.9252 1.39219C10.4336 0.900521 9.56691 0.900521 9.06691 1.39219L8.41691 2.04219C7.95026 2.50885 7.91693 3.25052 8.31693 3.76719L4.15859 7.92552C4.04193 7.89219 3.91693 7.86719 3.79193 7.86719H2.87526C2.15026 7.86719 1.55859 8.45882 1.55859 9.18382V10.1005C1.55859 10.8255 2.15026 11.4172 2.87526 11.4172H3.79193C4.51693 11.4172 5.10859 10.8255 5.10859 10.1005V9.18382C5.10859 9.05882 5.08359 8.93382 5.05026 8.81715L9.20858 4.65885C9.43358 4.83385 9.71691 4.92552 10.0002 4.92552C10.2836 4.92552 10.5669 4.82552 10.8002 4.65052L14.9586 8.80882C14.9252 8.92549 14.9002 9.05049 14.9002 9.17549V10.0922C14.9002 10.8172 15.4919 11.4088 16.2169 11.4088H17.1336C17.8586 11.4088 18.4502 10.8172 18.4502 10.0922V9.17549C18.4336 8.45049 17.8502 7.86719 17.1252 7.86719Z" fill="white"/>
<path d="M13.1252 13.7917L11.7585 15H8.20854L6.84187 13.7917C6.0502 13.1417 6.0502 12.6417 6.6502 11.875L9.0585 8.825C9.22516 8.61667 9.41691 8.475 9.63358 8.4C9.85858 8.325 10.1002 8.325 10.3335 8.4C10.5418 8.475 10.7335 8.61667 10.9085 8.825L13.3168 11.875C13.9168 12.6333 13.8918 13.1083 13.1252 13.7917Z" fill="white"/>
<path d="M11.0751 18.3339H8.91675C8.15007 18.3339 7.57507 17.7089 7.72507 17.0422L7.98341 15.8839C8.03341 15.6505 8.24174 15.4922 8.47508 15.4922H11.5167C11.7501 15.4922 11.9501 15.6505 12.0084 15.8839L12.2667 17.0422C12.4334 17.7505 11.8917 18.3339 11.0751 18.3339Z" fill="white"/>
</svg>
