<svg width="20" height="20" viewBox="0 0 20 20" fill="none" xmlns="http://www.w3.org/2000/svg">
<path d="M17.4829 8.91667C17.2996 5.66667 14.8913 2.95833 11.6746 2.40833C11.6246 1.76667 11.0913 1.25 10.4329 1.25H9.59958C8.94125 1.25 8.41625 1.75833 8.35792 2.4C5.12461 2.93333 2.69961 5.65 2.51628 8.91667C1.92461 9.01667 1.47461 9.525 1.47461 10.1417V10.975C1.47461 11.6667 2.03294 12.225 2.72461 12.225H3.55794C4.24961 12.225 4.80794 11.6667 4.80794 10.975V10.1417C4.80794 9.525 4.35794 9.01667 3.76628 8.91667C3.94128 6.31667 5.84961 4.15833 8.39958 3.65833C8.54125 4.19167 9.02458 4.58333 9.59958 4.58333H10.4329C11.0079 4.58333 11.4829 4.19167 11.6329 3.66667C14.1663 4.175 16.0579 6.33333 16.2329 8.91667C15.6413 9.01667 15.1913 9.525 15.1913 10.1417V10.975C15.1913 11.6667 15.7496 12.225 16.4413 12.225H17.2746C17.9663 12.225 18.5246 11.6667 18.5246 10.975V10.1417C18.5246 9.525 18.0746 9.00833 17.4829 8.91667Z" fill="white"/>
<path d="M13.1422 13.7917L11.7756 15H8.23393L6.86726 13.7917C6.07559 13.1417 6.07559 12.6417 6.67559 11.875L9.08391 8.82499C9.25058 8.61665 9.44224 8.47499 9.65891 8.39999C9.88391 8.325 10.1256 8.325 10.3589 8.39999C10.5672 8.47499 10.7589 8.61665 10.9339 8.82499L13.3339 11.8667C13.9422 12.6333 13.9089 13.1083 13.1422 13.7917Z" fill="white"/>
<path d="M11.1005 18.3339H8.94216C8.17547 18.3339 7.60047 17.7089 7.75047 17.0422L8.0088 15.8839C8.0588 15.6505 8.26713 15.4922 8.50049 15.4922H11.5422C11.7755 15.4922 11.9755 15.6505 12.0338 15.8839L12.2922 17.0422C12.4505 17.7505 11.9172 18.3339 11.1005 18.3339Z" fill="white"/>
</svg>
