<svg width="20" height="20" viewBox="0 0 20 20" fill="none" xmlns="http://www.w3.org/2000/svg">
<path d="M5.41699 1.66797C4.53366 1.66797 3.71699 1.9763 3.07533 2.49297C2.20866 3.1763 1.66699 4.23464 1.66699 5.41797C1.66699 6.11797 1.86699 6.78464 2.20866 7.3513C2.65866 8.1013 3.36699 8.68464 4.21699 8.96797C4.59199 9.1013 4.99199 9.16797 5.41699 9.16797C6.36699 9.16797 7.22533 8.81797 7.88366 8.23464C8.17533 7.98464 8.42533 7.68464 8.62533 7.3513C8.80033 7.05964 8.93366 6.7513 9.02533 6.41797C9.11699 6.1013 9.16699 5.75964 9.16699 5.41797C9.16699 3.34297 7.49199 1.66797 5.41699 1.66797ZM6.80033 6.04297H4.00033C3.65866 6.04297 3.37533 5.75964 3.37533 5.41797C3.37533 5.0763 3.65866 4.79297 4.00033 4.79297H6.80033C7.14199 4.79297 7.42533 5.0763 7.42533 5.41797C7.42533 5.75964 7.15033 6.04297 6.80033 6.04297Z" fill="white"/>
<path d="M13.3339 17.7438L5.53394 18.6605C4.99228 18.7271 4.50894 18.6438 4.10061 18.4438C3.66728 18.2271 3.32561 17.8938 3.10894 17.4521C2.90894 17.0438 2.83394 16.5688 2.89228 16.0355L3.60061 10.0771C3.66728 10.1021 3.73394 10.1271 3.80061 10.1438C4.30894 10.3271 4.85061 10.4188 5.41728 10.4188C6.63394 10.4188 7.80894 9.97712 8.70058 9.18545C9.08391 8.85212 9.42558 8.45212 9.70058 7.99375C9.93391 7.60208 10.1089 7.18542 10.2256 6.77708C10.2839 6.56042 10.3339 6.32708 10.3672 6.09375C10.3756 6.05208 10.3756 6.01042 10.3756 5.96875L10.5172 5.97708L15.5839 11.0521L15.8006 14.7355C16.0089 16.8021 15.2922 17.5188 13.3339 17.7438Z" fill="white"/>
<path d="M18.3328 8.56626L16.6078 9.65793C16.2828 9.85793 15.8662 9.81626 15.5995 9.54126L11.9078 5.84959C11.6412 5.58293 11.5912 5.16626 11.7912 4.84126L12.8828 3.11626C13.5495 2.06626 14.8828 2.01626 15.8745 2.99126L18.4662 5.58293C19.3745 6.50793 19.3162 7.94126 18.3328 8.56626Z" fill="white"/>
</svg>
