<svg width="20" height="20" viewBox="0 0 20 20" fill="none" xmlns="http://www.w3.org/2000/svg">
<path d="M14.6079 6.4763C14.5495 6.46797 14.4912 6.46797 14.4329 6.4763C13.1412 6.43464 12.1162 5.3763 12.1162 4.0763C12.1162 2.7513 13.1912 1.66797 14.5245 1.66797C15.8495 1.66797 16.9329 2.74297 16.9329 4.0763C16.9245 5.3763 15.8995 6.43464 14.6079 6.4763Z" fill="white"/>
<path d="M17.3247 12.2503C16.3913 12.8753 15.083 13.1087 13.8747 12.9503C14.1913 12.267 14.358 11.5087 14.3663 10.7087C14.3663 9.87534 14.183 9.08367 13.833 8.392C15.0663 8.22534 16.3747 8.45867 17.3163 9.08367C18.633 9.95034 18.633 11.3753 17.3247 12.2503Z" fill="white"/>
<path d="M5.36647 6.4763C5.4248 6.46797 5.48314 6.46797 5.54147 6.4763C6.83314 6.43464 7.85814 5.3763 7.85814 4.0763C7.85814 2.74297 6.78314 1.66797 5.4498 1.66797C4.1248 1.66797 3.0498 2.74297 3.0498 4.0763C3.0498 5.3763 4.0748 6.43464 5.36647 6.4763Z" fill="white"/>
<path d="M5.45892 10.7088C5.45892 11.5172 5.63392 12.2838 5.95059 12.9755C4.77559 13.1005 3.55059 12.8505 2.65059 12.2588C1.33392 11.3838 1.33392 9.95883 2.65059 9.08383C3.54225 8.48383 4.80059 8.24215 5.98392 8.3755C5.64225 9.0755 5.45892 9.86716 5.45892 10.7088Z" fill="white"/>
<path d="M10.1 13.225C10.0333 13.2167 9.95833 13.2167 9.88333 13.225C8.35 13.175 7.125 11.9167 7.125 10.3667C7.13333 8.78333 8.40833 7.5 10 7.5C11.5833 7.5 12.8667 8.78333 12.8667 10.3667C12.8583 11.9167 11.6417 13.175 10.1 13.225Z" fill="white"/>
<path d="M7.39102 14.9492C6.13268 15.7909 6.13268 17.1742 7.39102 18.0076C8.82435 18.9659 11.1743 18.9659 12.6077 18.0076C13.866 17.1659 13.866 15.7826 12.6077 14.9492C11.1827 13.9909 8.83268 13.9909 7.39102 14.9492Z" fill="white"/>
</svg>
