<svg width="20" height="20" viewBox="0 0 20 20" fill="none" xmlns="http://www.w3.org/2000/svg">
<path d="M10.0003 1.66797C5.40033 1.66797 1.66699 5.4013 1.66699 10.0013C1.66699 14.6013 5.40033 18.3346 10.0003 18.3346C14.6003 18.3346 18.3337 14.6013 18.3337 10.0013C18.3337 5.4013 14.6003 1.66797 10.0003 1.66797ZM7.27533 6.38464C7.95032 6.38464 8.50866 6.93464 8.50866 7.61797C8.50866 8.29297 7.95866 8.8513 7.27533 8.8513C6.60033 8.8513 6.04199 8.3013 6.04199 7.61797C6.04199 6.93464 6.59199 6.38464 7.27533 6.38464ZM7.37533 13.168C7.25033 13.293 7.09199 13.3513 6.93366 13.3513C6.77533 13.3513 6.61699 13.293 6.49199 13.168C6.25033 12.9263 6.25033 12.5263 6.49199 12.2846L11.9503 6.8263C12.192 6.58463 12.592 6.58463 12.8337 6.8263C13.0753 7.06797 13.0753 7.46797 12.8337 7.70964L7.37533 13.168ZM12.7253 13.618C12.0503 13.618 11.492 13.068 11.492 12.3846C11.492 11.7096 12.042 11.1513 12.7253 11.1513C13.4003 11.1513 13.9587 11.7013 13.9587 12.3846C13.9587 13.068 13.4087 13.618 12.7253 13.618Z" fill="white"/>
</svg>
