<svg width="20" height="20" viewBox="0 0 20 20" fill="none" xmlns="http://www.w3.org/2000/svg">
<path d="M13.492 1.66797H6.50866C3.47533 1.66797 1.66699 3.4763 1.66699 6.50964V13.4846C1.66699 16.5263 3.47533 18.3346 6.50866 18.3346H13.4837C16.517 18.3346 18.3253 16.5263 18.3253 13.493V6.50964C18.3337 3.4763 16.5253 1.66797 13.492 1.66797ZM6.45866 7.61797C6.45866 6.94297 7.00866 6.38464 7.69199 6.38464C8.36699 6.38464 8.92533 6.93464 8.92533 7.61797C8.92533 8.29297 8.37532 8.8513 7.69199 8.8513C7.00866 8.84297 6.45866 8.29297 6.45866 7.61797ZM7.35033 13.3513C7.19199 13.3513 7.03366 13.293 6.90866 13.168C6.66699 12.9263 6.66699 12.5346 6.90866 12.2846L12.367 6.8263C12.6087 6.58463 13.0087 6.58463 13.2503 6.8263C13.492 7.06797 13.492 7.46797 13.2503 7.70964L7.79199 13.168C7.66699 13.293 7.50866 13.3513 7.35033 13.3513ZM13.142 13.618C12.467 13.618 11.9087 13.068 11.9087 12.3846C11.9087 11.7096 12.4587 11.1513 13.142 11.1513C13.817 11.1513 14.3753 11.7013 14.3753 12.3846C14.3753 13.068 13.8253 13.618 13.142 13.618Z" fill="white"/>
</svg>
