<svg width="20" height="20" viewBox="0 0 20 20" fill="none" xmlns="http://www.w3.org/2000/svg">
<path d="M15.0003 2.5H5.00033C3.15866 2.5 1.66699 3.98333 1.66699 5.80833V14.1917C1.66699 16.0167 3.15866 17.5 5.00033 17.5H15.0003C16.842 17.5 18.3337 16.0167 18.3337 14.1917V5.80833C18.3337 3.98333 16.842 2.5 15.0003 2.5ZM7.08366 5.975C8.14199 5.975 9.00866 6.84167 9.00866 7.9C9.00866 8.95833 8.14199 9.825 7.08366 9.825C6.02533 9.825 5.15866 8.95833 5.15866 7.9C5.15866 6.84167 6.02533 5.975 7.08366 5.975ZM10.3087 13.8833C10.2337 13.9667 10.117 14.0167 10.0003 14.0167H4.16699C4.05033 14.0167 3.93366 13.9667 3.85866 13.8833C3.78366 13.8 3.74199 13.6833 3.75033 13.5667C3.89199 12.1667 5.00866 11.0583 6.40866 10.925C6.85033 10.8833 7.30866 10.8833 7.75033 10.925C9.15033 11.0583 10.2753 12.1667 10.4087 13.5667C10.4253 13.6833 10.3837 13.8 10.3087 13.8833ZM15.8337 13.9583H14.167C13.8253 13.9583 13.542 13.675 13.542 13.3333C13.542 12.9917 13.8253 12.7083 14.167 12.7083H15.8337C16.1753 12.7083 16.4587 12.9917 16.4587 13.3333C16.4587 13.675 16.1753 13.9583 15.8337 13.9583ZM15.8337 10.625H12.5003C12.1587 10.625 11.8753 10.3417 11.8753 10C11.8753 9.65833 12.1587 9.375 12.5003 9.375H15.8337C16.1753 9.375 16.4587 9.65833 16.4587 10C16.4587 10.3417 16.1753 10.625 15.8337 10.625ZM15.8337 7.29167H11.667C11.3253 7.29167 11.042 7.00833 11.042 6.66667C11.042 6.325 11.3253 6.04167 11.667 6.04167H15.8337C16.1753 6.04167 16.4587 6.325 16.4587 6.66667C16.4587 7.00833 16.1753 7.29167 15.8337 7.29167Z" fill="white"/>
</svg>
