<svg width="20" height="20" viewBox="0 0 20 20" fill="none" xmlns="http://www.w3.org/2000/svg">
<path d="M15.8999 13.0989C15.4083 10.1573 12.5833 7.76562 9.59992 7.76562C6.35824 7.76562 3.50824 10.3906 3.23324 13.624C3.1249 14.8739 3.5249 16.0573 4.3499 16.9489C5.16657 17.8406 6.31657 18.3323 7.56657 18.3323H11.4666C12.8749 18.3323 14.1083 17.7823 14.9499 16.7906C15.7916 15.7989 16.1249 14.4823 15.8999 13.0989Z" fill="white"/>
<path d="M8.56666 6.5513C9.91516 6.5513 11.0083 5.45813 11.0083 4.10964C11.0083 2.76114 9.91516 1.66797 8.56666 1.66797C7.21817 1.66797 6.125 2.76114 6.125 4.10964C6.125 5.45813 7.21817 6.5513 8.56666 6.5513Z" fill="white"/>
<path d="M14.1163 7.5237C15.2393 7.5237 16.1497 6.61335 16.1497 5.49036C16.1497 4.36739 15.2393 3.45703 14.1163 3.45703C12.9933 3.45703 12.083 4.36739 12.083 5.49036C12.083 6.61335 12.9933 7.5237 14.1163 7.5237Z" fill="white"/>
<path d="M17.125 10.7734C18.0225 10.7734 18.75 10.0459 18.75 9.14844C18.75 8.25097 18.0225 7.52344 17.125 7.52344C16.2276 7.52344 15.5 8.25097 15.5 9.14844C15.5 10.0459 16.2276 10.7734 17.125 10.7734Z" fill="white"/>
<path d="M3.28333 9.14869C4.40631 9.14869 5.31667 8.23834 5.31667 7.11536C5.31667 5.99238 4.40631 5.08203 3.28333 5.08203C2.16036 5.08203 1.25 5.99238 1.25 7.11536C1.25 8.23834 2.16036 9.14869 3.28333 9.14869Z" fill="white"/>
</svg>
