<svg width="20" height="20" viewBox="0 0 20 20" fill="none" xmlns="http://www.w3.org/2000/svg">
<path d="M17.5 18.957H2.5C2.15833 18.957 1.875 18.6737 1.875 18.332C1.875 17.9904 2.15833 17.707 2.5 17.707H17.5C17.8417 17.707 18.125 17.9904 18.125 18.332C18.125 18.6737 17.8417 18.957 17.5 18.957Z" fill="white"/>
<path d="M17.5 2.29297H2.5C2.15833 2.29297 1.875 2.00964 1.875 1.66797C1.875 1.3263 2.15833 1.04297 2.5 1.04297H17.5C17.8417 1.04297 18.125 1.3263 18.125 1.66797C18.125 2.00964 17.8417 2.29297 17.5 2.29297Z" fill="white"/>
<path d="M11.9165 12.7987L10.6248 14.0904V5.58203L11.9165 6.8737C12.0415 6.9987 12.1998 7.05703 12.3582 7.05703C12.5165 7.05703 12.6748 6.9987 12.7998 6.8737C13.0415 6.63203 13.0415 6.23203 12.7998 5.99036L10.4415 3.63203C10.2082 3.3987 9.79151 3.3987 9.55818 3.63203L7.1998 5.99036C6.95814 6.23203 6.95814 6.63203 7.1998 6.8737C7.44147 7.11536 7.84147 7.11536 8.08314 6.8737L9.37485 5.58203V14.0904L8.08314 12.7987C7.84147 12.557 7.44147 12.557 7.1998 12.7987C6.95814 13.0404 6.95814 13.4404 7.1998 13.682L9.55818 16.0404C9.67485 16.157 9.83318 16.2237 9.99985 16.2237C10.1665 16.2237 10.3248 16.157 10.4415 16.0404L12.7998 13.682C13.0415 13.4404 13.0415 13.0404 12.7998 12.7987C12.5582 12.557 12.1582 12.557 11.9165 12.7987Z" fill="white"/>
</svg>
