<svg width="20" height="20" viewBox="0 0 20 20" fill="none" xmlns="http://www.w3.org/2000/svg">
<path d="M7.91667 7.29297H6.875V9.3763H7.91667C8.49167 9.3763 8.95833 8.90964 8.95833 8.33464C8.95833 7.75964 8.49167 7.29297 7.91667 7.29297Z" fill="white"/>
<path d="M13.4915 1.66797H6.51646C3.48313 1.66797 1.6748 3.4763 1.6748 6.50964V13.4846C1.6748 16.518 3.48313 18.3263 6.51646 18.3263H13.4915C16.5248 18.3263 18.3332 16.518 18.3332 13.4846V6.50964C18.3332 3.4763 16.5248 1.66797 13.4915 1.66797ZM7.91646 10.6263H6.8748V13.3346C6.8748 13.6763 6.59146 13.9596 6.2498 13.9596C5.90813 13.9596 5.6248 13.6763 5.6248 13.3346V6.66797C5.6248 6.3263 5.90813 6.04297 6.2498 6.04297H7.91646C9.18316 6.04297 10.2082 7.06797 10.2082 8.33464C10.2082 9.6013 9.18316 10.6263 7.91646 10.6263ZM12.7082 10.6263C13.6248 10.6263 14.3748 11.3763 14.3748 12.293C14.3748 13.2096 13.6248 13.9596 12.7082 13.9596H11.6665C11.3248 13.9596 11.0415 13.6763 11.0415 13.3346C11.0415 12.993 11.3248 12.7096 11.6665 12.7096H12.7082C12.9415 12.7096 13.1248 12.5263 13.1248 12.293C13.1248 12.0596 12.9415 11.8763 12.7082 11.8763C11.7915 11.8763 11.0415 11.1263 11.0415 10.2096C11.0415 9.29297 11.7915 8.54297 12.7082 8.54297H13.7498C14.0915 8.54297 14.3748 8.8263 14.3748 9.16797C14.3748 9.50964 14.0915 9.79297 13.7498 9.79297H12.7082C12.4748 9.79297 12.2915 9.9763 12.2915 10.2096C12.2915 10.443 12.4748 10.6263 12.7082 10.6263Z" fill="white"/>
</svg>
