<svg width="20" height="20" viewBox="0 0 20 20" fill="none" xmlns="http://www.w3.org/2000/svg">
<path d="M8.75866 9.3513L6.92533 1.99297C6.88366 1.8013 6.70866 1.66797 6.50866 1.66797C3.83366 1.66797 1.66699 3.83464 1.66699 6.50964V11.2596C1.66699 11.543 1.94199 11.7513 2.21699 11.668L8.46699 9.85964C8.68366 9.8013 8.81699 9.5763 8.75866 9.3513Z" fill="white"/>
<path d="M9.26699 11.3991C9.20866 11.1657 8.96699 11.0241 8.73366 11.0907L1.97533 13.0574C1.79199 13.1157 1.66699 13.2824 1.66699 13.4741V13.4907C1.66699 16.1657 3.83366 18.3324 6.50866 18.3324H10.442C10.717 18.3324 10.9253 18.0741 10.8587 17.7991L9.26699 11.3991Z" fill="white"/>
<path d="M13.4913 1.66797H8.69967C8.42467 1.66797 8.21636 1.9263 8.28303 2.2013L12.233 18.0096C12.283 18.2013 12.4497 18.3346 12.6497 18.3346H13.483C16.1663 18.3346 18.333 16.168 18.333 13.493V6.50964C18.333 3.83464 16.1663 1.66797 13.4913 1.66797Z" fill="white"/>
</svg>
