<svg width="20" height="20" viewBox="0 0 20 20" fill="none" xmlns="http://www.w3.org/2000/svg">
<path d="M15.8915 16.5156C15.7331 16.5156 15.5748 16.4573 15.4498 16.3323C15.2081 16.0906 15.2081 15.6906 15.4498 15.4489C18.4581 12.4406 18.4581 7.54896 15.4498 4.54896C15.2081 4.30729 15.2081 3.90729 15.4498 3.66563C15.6915 3.42396 16.0915 3.42396 16.3331 3.66563C19.8248 7.15729 19.8248 12.8406 16.3331 16.3323C16.2081 16.4573 16.0498 16.5156 15.8915 16.5156Z" fill="white"/>
<path d="M4.10827 16.5156C3.94993 16.5156 3.7916 16.4573 3.6666 16.3323C0.174935 12.8406 0.174935 7.15729 3.6666 3.66563C3.90827 3.42396 4.30827 3.42396 4.54993 3.66563C4.7916 3.90729 4.7916 4.30729 4.54993 4.54896C1.5416 7.55729 1.5416 12.4489 4.54993 15.4489C4.7916 15.6906 4.7916 16.0906 4.54993 16.3323C4.42493 16.4573 4.2666 16.5156 4.10827 16.5156Z" fill="white"/>
<path d="M10 18.9266C8.95833 18.9183 7.96663 18.7516 7.04163 18.4266C6.71663 18.3099 6.54163 17.9516 6.6583 17.6266C6.77496 17.3016 7.12496 17.1266 7.4583 17.2433C8.2583 17.5183 9.10833 17.6683 10.0083 17.6683C10.9 17.6683 11.7583 17.5183 12.55 17.2433C12.875 17.1349 13.2333 17.3016 13.35 17.6266C13.4667 17.9516 13.2917 18.3099 12.9667 18.4266C12.0333 18.7516 11.0417 18.9266 10 18.9266Z" fill="white"/>
<path d="M12.75 2.78255C12.6833 2.78255 12.6083 2.77422 12.5417 2.74922C11.75 2.46589 10.8917 2.32422 9.99999 2.32422C9.10833 2.32422 8.2583 2.47422 7.4583 2.74922C7.12496 2.85755 6.77496 2.69089 6.6583 2.36589C6.54163 2.04089 6.71663 1.68255 7.04163 1.56589C7.97496 1.24089 8.96666 1.07422 9.99999 1.07422C11.0333 1.07422 12.0333 1.24089 12.9583 1.56589C13.2833 1.68255 13.4583 2.04089 13.3417 2.36589C13.25 2.62422 13.0083 2.78255 12.75 2.78255Z" fill="white"/>
<path d="M7.2832 10.0007V8.60907C7.2832 6.87577 8.50818 6.16744 10.0082 7.0341L11.2165 7.73411L12.4248 8.43407C13.9248 9.30074 13.9248 10.7174 12.4248 11.5841L11.2165 12.2841L10.0082 12.9841C8.50818 13.8507 7.2832 13.1424 7.2832 11.4091V10.0007Z" fill="white"/>
</svg>
