<svg width="20" height="20" viewBox="0 0 20 20" fill="none" xmlns="http://www.w3.org/2000/svg">
<path d="M18.2079 8.54412C17.5579 4.83583 14.3663 1.96083 10.6079 1.69416C5.5246 1.32749 1.3246 5.53583 1.69127 10.6108C1.95794 14.3691 4.83294 17.5525 8.54125 18.2025C9.49959 18.3691 10.4329 18.3691 11.3246 18.2191C11.5829 18.1775 11.7329 17.8941 11.6329 17.6608C11.3829 17.0941 11.2496 16.4691 11.2496 15.8275C11.2496 14.4191 11.8746 13.1191 12.9746 12.2525C13.7829 11.6025 14.7996 11.2441 15.8329 11.2441C16.4829 11.2441 17.0996 11.3775 17.6579 11.6275C17.8996 11.7358 18.1746 11.5775 18.2246 11.3191C18.3746 10.4358 18.3746 9.50245 18.2079 8.54412ZM12.0829 11.3108L11.0829 11.8858L10.0829 12.4608C8.84125 13.1775 7.8246 12.5941 7.8246 11.1525V10.0025V8.84412C7.8246 7.41083 8.84125 6.81916 10.0829 7.53583L11.0829 8.11083L12.0829 8.68578C13.3246 9.41912 13.3246 10.5858 12.0829 11.3108Z" fill="white"/>
<path d="M15.8333 12.5C15.05 12.5 14.325 12.775 13.75 13.2333C12.9833 13.8417 12.5 14.7833 12.5 15.8333C12.5 16.4583 12.675 17.05 12.9833 17.55C13.5583 18.5167 14.6167 19.1667 15.8333 19.1667C16.675 19.1667 17.4417 18.8583 18.025 18.3333C18.2833 18.1167 18.5083 17.85 18.6833 17.55C18.9917 17.05 19.1667 16.4583 19.1667 15.8333C19.1667 13.9917 17.675 12.5 15.8333 12.5ZM17.0833 16.4417H16.4583V17.0917C16.4583 17.4333 16.175 17.7167 15.8333 17.7167C15.4917 17.7167 15.2083 17.4333 15.2083 17.0917V16.4417H14.5833C14.2417 16.4417 13.9583 16.1583 13.9583 15.8167C13.9583 15.475 14.2417 15.1917 14.5833 15.1917H15.2083V14.6C15.2083 14.2583 15.4917 13.975 15.8333 13.975C16.175 13.975 16.4583 14.2583 16.4583 14.6V15.1917H17.0833C17.425 15.1917 17.7083 15.475 17.7083 15.8167C17.7083 16.1583 17.425 16.4417 17.0833 16.4417Z" fill="white"/>
</svg>
