<svg width="20" height="20" viewBox="0 0 20 20" fill="none" xmlns="http://www.w3.org/2000/svg">
<path d="M17.7333 13.1C17.1917 12.725 16.5333 12.5 15.8333 12.5C15.05 12.5 14.325 12.775 13.75 13.2333C12.9833 13.8417 12.5 14.7833 12.5 15.8333C12.5 16.4583 12.675 17.05 12.9833 17.55C13.0167 17.6083 13.0583 17.6667 13.1083 17.725C13.6917 18.5917 14.6917 19.1667 15.8333 19.1667C16.675 19.1667 17.4417 18.8583 18.025 18.3333C18.2833 18.1167 18.5083 17.85 18.6833 17.55C18.9917 17.05 19.1667 16.4583 19.1667 15.8333C19.1667 14.7 18.6 13.7 17.7333 13.1ZM17.1667 17.15C17.0417 17.275 16.8833 17.3333 16.725 17.3333C16.5667 17.3333 16.4083 17.275 16.2833 17.15L15.8417 16.7083L15.3833 17.1667C15.2583 17.2917 15.1 17.35 14.9417 17.35C14.7833 17.35 14.625 17.2917 14.5 17.1667C14.2583 16.925 14.2583 16.525 14.5 16.2833L14.9583 15.825L14.5167 15.3833C14.275 15.1417 14.275 14.7417 14.5167 14.5C14.7583 14.2583 15.1583 14.2583 15.4 14.5L15.8417 14.9417L16.2583 14.525C16.5 14.2833 16.9 14.2833 17.1417 14.525C17.3833 14.7667 17.3833 15.1667 17.1417 15.4083L16.725 15.825L17.1667 16.2667C17.4083 16.5083 17.4083 16.9 17.1667 17.15Z" fill="white"/>
<path d="M18.2079 8.54412C17.5579 4.83583 14.3663 1.96083 10.6079 1.69416C5.5246 1.32749 1.3246 5.53583 1.69127 10.6108C1.95794 14.3691 4.83294 17.5525 8.54125 18.2025C9.49959 18.3691 10.4329 18.3691 11.3246 18.2191C11.5829 18.1775 11.7329 17.8941 11.6329 17.6608C11.3829 17.0941 11.2496 16.4691 11.2496 15.8275C11.2496 14.4191 11.8746 13.1191 12.9746 12.2525C13.7829 11.6025 14.7996 11.2441 15.8329 11.2441C16.4829 11.2441 17.0996 11.3775 17.6579 11.6275C17.8996 11.7358 18.1746 11.5775 18.2246 11.3191C18.3746 10.4358 18.3746 9.50245 18.2079 8.54412ZM12.0829 11.3108L11.0829 11.8858L10.0829 12.4608C8.84125 13.1775 7.8246 12.5941 7.8246 11.1525V10.0025V8.84412C7.8246 7.41083 8.84125 6.81916 10.0829 7.53583L11.0829 8.11083L12.0829 8.68578C13.3246 9.41912 13.3246 10.5858 12.0829 11.3108Z" fill="white"/>
</svg>
