<svg width="20" height="20" viewBox="0 0 20 20" fill="none" xmlns="http://www.w3.org/2000/svg">
<path d="M6.66614 18.1263C6.64947 18.1263 6.6328 18.1263 6.62447 18.1263C6.29947 18.1013 6.04114 17.8346 6.04114 17.5013C6.04114 17.0263 6.09947 16.5846 6.22447 16.1763L7.71615 5.74297C7.76615 5.4013 8.0828 5.16797 8.4245 5.20964C8.76617 5.25964 9.00784 5.5763 8.95784 5.91797L7.77448 14.1763C8.80784 13.5513 9.93284 13.543 9.9995 13.543C13.0995 13.543 15.6245 11.018 15.6245 7.91797C15.6245 4.81797 13.0995 2.29297 9.9995 2.29297C6.89947 2.29297 4.37447 4.81797 4.37447 7.91797C4.37447 8.83464 4.59947 9.74297 5.02447 10.543C5.1828 10.8513 5.06614 11.2263 4.76614 11.3846C4.4578 11.543 4.0828 11.4263 3.92447 11.1263C3.4078 10.143 3.13281 9.03464 3.13281 7.91797C3.13281 4.1263 6.21615 1.04297 10.0078 1.04297C13.7995 1.04297 16.8828 4.1263 16.8828 7.91797C16.8828 11.7096 13.7995 14.793 10.0078 14.793C9.93284 14.793 8.16614 14.8263 7.5328 16.2513C7.5078 16.318 7.47447 16.3846 7.4578 16.4513L7.29948 17.5846C7.24115 17.9013 6.97447 18.1263 6.66614 18.1263Z" fill="white"/>
<path d="M11.6663 18.3337C11.4497 18.3337 11.233 18.242 11.0747 18.092C10.9247 17.9337 10.833 17.717 10.833 17.5004C10.833 17.392 10.858 17.2837 10.8997 17.1837C10.9413 17.0754 10.9997 16.992 11.0747 16.9087C11.308 16.6754 11.6747 16.6004 11.983 16.7337C12.0913 16.7754 12.1747 16.8337 12.258 16.9087C12.333 16.992 12.3913 17.0754 12.433 17.1837C12.4747 17.2837 12.4997 17.392 12.4997 17.5004C12.4997 17.717 12.408 17.9337 12.258 18.092C12.1747 18.167 12.0913 18.2254 11.983 18.267C11.883 18.3087 11.7747 18.3337 11.6663 18.3337Z" fill="white"/>
</svg>
