<svg width="20" height="20" viewBox="0 0 20 20" fill="none" xmlns="http://www.w3.org/2000/svg">
<path d="M17.8172 9.54216L14.0672 7.37552C13.8755 7.26719 13.6338 7.26719 13.4422 7.37552L9.69216 9.54216C9.69216 9.54216 9.69216 9.5505 9.68383 9.5505L6.25052 11.5338L3.12552 9.7255V6.11719L6.25052 4.30885L9.3755 6.11719V7.0672C9.3755 7.40886 9.65883 7.6922 10.0005 7.6922C10.3422 7.6922 10.6255 7.40886 10.6255 7.0672V5.75052C10.6255 5.52552 10.5088 5.31719 10.3088 5.20885L6.55885 3.04219C6.36718 2.93385 6.12551 2.93385 5.93385 3.04219L2.18385 5.20885C1.99218 5.31719 1.86719 5.52552 1.86719 5.75052V10.0838C1.86719 10.3088 1.98385 10.5172 2.18385 10.6255L5.93385 12.7922C6.03385 12.8505 6.14219 12.8755 6.25052 12.8755C6.35885 12.8755 6.46719 12.8505 6.56719 12.7922L10.3172 10.6255C10.3172 10.6255 10.3172 10.6172 10.3255 10.6172L13.7588 8.63383L16.8838 10.4422V14.0505L13.7588 15.8588L10.6338 14.0505V13.0338C10.6338 12.6922 10.3505 12.4088 10.0088 12.4088C9.66716 12.4088 9.38383 12.6922 9.38383 13.0338V14.4088C9.38383 14.6338 9.50049 14.8422 9.70049 14.9505L13.4505 17.1172C13.5505 17.1755 13.6588 17.2005 13.7672 17.2005C13.8755 17.2005 13.9838 17.1755 14.0838 17.1172L17.8338 14.9505C18.0255 14.8422 18.1505 14.6338 18.1505 14.4088V10.0755C18.1255 9.85883 18.0088 9.6505 17.8172 9.54216Z" fill="white"/>
<path d="M3.75 6.9599V8.88489C3.75 9.18489 3.90833 9.45989 4.16667 9.60989L5.83333 10.5682C6.09167 10.7182 6.40833 10.7182 6.66667 10.5682L8.33333 9.60989C8.59167 9.45989 8.75 9.18489 8.75 8.88489V6.9599C8.75 6.6599 8.59167 6.3849 8.33333 6.2349L6.66667 5.27656C6.40833 5.12656 6.09167 5.12656 5.83333 5.27656L4.16667 6.2349C3.90833 6.3849 3.75 6.6599 3.75 6.9599Z" fill="white"/>
<path d="M11.25 11.2919V13.2169C11.25 13.5169 11.4083 13.7919 11.6667 13.9419L13.3333 14.9003C13.5917 15.0503 13.9083 15.0503 14.1667 14.9003L15.8333 13.9419C16.0917 13.7919 16.25 13.5169 16.25 13.2169V11.2919C16.25 10.9919 16.0917 10.7169 15.8333 10.5669L14.1667 9.60859C13.9083 9.45859 13.5917 9.45859 13.3333 9.60859L11.6667 10.5669C11.4083 10.7169 11.25 10.9919 11.25 11.2919Z" fill="white"/>
</svg>
