<svg width="20" height="20" viewBox="0 0 20 20" fill="none" xmlns="http://www.w3.org/2000/svg">
<path d="M12.0837 14.9987H2.91699C2.57533 14.9987 2.29199 14.7154 2.29199 14.3737C2.29199 14.032 2.57533 13.7487 2.91699 13.7487H12.0837C14.9587 13.7487 17.292 11.4154 17.292 8.54036C17.292 5.66536 14.9587 3.33203 12.0837 3.33203H7.91699C7.57533 3.33203 7.29199 3.0487 7.29199 2.70703C7.29199 2.36536 7.57533 2.08203 7.91699 2.08203H12.0837C15.642 2.08203 18.542 4.98203 18.542 8.54036C18.542 12.0987 15.642 14.9987 12.0837 14.9987Z" fill="white"/>
<path d="M11.5083 12.4078H6.66662C6.32495 12.4078 6.04162 12.1245 6.04162 11.7828C6.04162 11.4412 6.32495 11.1578 6.66662 11.1578H11.5083C12.8583 11.1578 13.9583 10.0578 13.9583 8.70784C13.9583 7.35781 12.8583 6.25781 11.5083 6.25781H2.6416C2.29993 6.25781 2.0166 5.97448 2.0166 5.63281C2.0166 5.29115 2.29993 5.00781 2.6416 5.00781H11.5083C13.5499 5.00781 15.2083 6.66615 15.2083 8.70784C15.2083 10.7495 13.5499 12.4078 11.5083 12.4078Z" fill="white"/>
<path d="M7.08301 9.58203H4.58301C4.24134 9.58203 3.95801 9.2987 3.95801 8.95703C3.95801 8.61536 4.24134 8.33203 4.58301 8.33203H7.08301C7.42467 8.33203 7.70801 8.61536 7.70801 8.95703C7.70801 9.2987 7.42467 9.58203 7.08301 9.58203Z" fill="white"/>
<path d="M5.41634 17.918H2.08301C1.74134 17.918 1.45801 17.6346 1.45801 17.293C1.45801 16.9513 1.74134 16.668 2.08301 16.668H5.41634C5.75801 16.668 6.04134 16.9513 6.04134 17.293C6.04134 17.6346 5.75801 17.918 5.41634 17.918Z" fill="white"/>
</svg>
