<svg width="20" height="20" viewBox="0 0 20 20" fill="none" xmlns="http://www.w3.org/2000/svg">
<path d="M18.3337 2.29297H1.66699C1.32533 2.29297 1.04199 2.00964 1.04199 1.66797C1.04199 1.3263 1.32533 1.04297 1.66699 1.04297H18.3337C18.6753 1.04297 18.9587 1.3263 18.9587 1.66797C18.9587 2.00964 18.6753 2.29297 18.3337 2.29297Z" fill="white"/>
<path d="M13.8919 18.618C13.7836 18.8346 13.5586 18.9596 13.3336 18.9596C13.2419 18.9596 13.1419 18.9346 13.0586 18.893L10.0002 17.368L6.94188 18.893C6.85855 18.9346 6.75855 18.9596 6.66688 18.9596C6.44188 18.9596 6.21688 18.8346 6.10855 18.618C5.95021 18.3013 6.07521 17.9263 6.39188 17.7763L9.37524 16.2846V14.168H10.6252V16.2846L13.6086 17.7763C13.9252 17.9263 14.0502 18.3013 13.8919 18.618Z" fill="white"/>
<path d="M2.5 1.66797V11.7513C2.5 13.3346 3.33333 14.168 4.91667 14.168H15.0833C16.6667 14.168 17.5 13.3346 17.5 11.7513V1.66797H2.5ZM14.15 7.1513L11.525 9.34297C11.2833 9.54297 10.975 9.6263 10.6833 9.5763C10.3833 9.5263 10.125 9.34297 9.96667 9.0763L9.09167 7.61797L6.65 9.6513C6.53333 9.7513 6.39167 9.79297 6.25 9.79297C6.075 9.79297 5.89167 9.71797 5.76667 9.56797C5.54167 9.3013 5.58333 8.90964 5.85 8.68464L8.475 6.49297C8.71667 6.29297 9.025 6.20964 9.31667 6.25964C9.61667 6.30964 9.875 6.49297 10.0333 6.75964L10.9083 8.21797L13.35 6.18464C13.6167 5.95964 14.0083 6.0013 14.2333 6.26797C14.45 6.53464 14.4167 6.9263 14.15 7.1513Z" fill="white"/>
</svg>
