<svg width="20" height="20" viewBox="0 0 20 20" fill="none" xmlns="http://www.w3.org/2000/svg">
<path d="M5 5.83203C3.33333 5.83203 2.5 6.66536 2.5 8.33203V12.4987C2.5 14.1654 3.33333 14.9987 5 14.9987L6.66667 13.332V12.4987H7.5L14.1667 5.83203H5ZM5.83333 9.79036C5.49167 9.79036 5.20833 9.50703 5.20833 9.16536C5.20833 8.8237 5.49167 8.54036 5.83333 8.54036H7.5C7.84167 8.54036 8.125 8.8237 8.125 9.16536C8.125 9.50703 7.84167 9.79036 7.5 9.79036H5.83333Z" fill="white"/>
<path d="M7.50033 12.5L6.66699 13.3333V12.5H7.50033Z" fill="white"/>
<path d="M14.1663 4.16797V5.83464H5.83301V4.16797C5.83301 2.78464 6.94967 1.66797 8.33301 1.66797H11.6663C13.0497 1.66797 14.1663 2.78464 14.1663 4.16797Z" fill="white"/>
<path d="M18.7752 1.22422C18.5335 0.982552 18.1335 0.982552 17.8918 1.22422L1.2252 17.8909C0.983529 18.1326 0.983529 18.5326 1.2252 18.7743C1.3502 18.8993 1.50853 18.9576 1.66686 18.9576C1.8252 18.9576 1.98353 18.8993 2.10853 18.7743L18.7752 2.10755C19.0168 1.86589 19.0168 1.46589 18.7752 1.22422Z" fill="white"/>
<path d="M14.1671 11.875H10.798C10.6875 11.875 10.5815 11.9189 10.5034 11.997L10.0004 12.5L9.37541 13.125L7.33375 15.1667C6.80042 15.7 6.69208 16.6667 7.12542 17.2833C7.57542 17.9167 8.32542 18.3333 9.16708 18.3333H10.8337C12.2171 18.3333 13.3337 17.2167 13.3337 15.8333V13.125H14.1671C14.5087 13.125 14.7921 12.8417 14.7921 12.5C14.7921 12.1583 14.5087 11.875 14.1671 11.875Z" fill="white"/>
<path d="M15.8503 6.64798L12.8837 9.61462C12.3587 10.1396 12.7337 11.0396 13.4753 11.0396H14.092C14.817 11.0396 15.492 11.5313 15.6087 12.248C15.7347 13.0108 15.2612 13.6972 14.5782 13.8975C14.3573 13.9624 14.167 14.1429 14.167 14.373V14.5813C14.167 14.8115 14.3536 14.998 14.5837 14.998H15.0003C16.3837 14.998 17.5003 13.8813 17.5003 12.498V8.33132C17.5003 7.67298 17.367 7.13965 17.1087 6.73965C16.8253 6.31465 16.2087 6.28965 15.8503 6.64798Z" fill="white"/>
</svg>
