<svg width="20" height="20" viewBox="0 0 20 20" fill="none" xmlns="http://www.w3.org/2000/svg">
<path d="M16.442 13.4186C16.442 13.3936 16.4587 13.3686 16.4587 13.3352V5.41852C16.4587 4.15186 15.4337 3.12686 14.167 3.12686H10.892L12.067 2.15186C12.3337 1.92686 12.367 1.53519 12.1503 1.26852C11.9253 1.00186 11.5337 0.968522 11.267 1.18519L8.76699 3.26852C8.62533 3.38519 8.54199 3.56019 8.54199 3.75186C8.54199 3.94352 8.62533 4.11019 8.76699 4.23519L11.267 6.31852C11.3837 6.41852 11.5253 6.46019 11.667 6.46019C11.842 6.46019 12.0253 6.38519 12.1503 6.23519C12.3753 5.96852 12.3337 5.57686 12.067 5.35186L10.892 4.37686H14.167C14.742 4.37686 15.2087 4.84352 15.2087 5.41852V13.3352C15.2087 13.3686 15.2253 13.3936 15.2253 13.4186C14.142 13.6936 13.3337 14.6686 13.3337 15.8352C13.3337 17.2186 14.4503 18.3352 15.8337 18.3352C17.217 18.3352 18.3337 17.2186 18.3337 15.8352C18.3337 14.6686 17.5253 13.6936 16.442 13.4186Z" fill="white"/>
<path d="M11.2337 15.768L8.73366 13.6846C8.46699 13.4596 8.07533 13.5013 7.85033 13.768C7.62533 14.0346 7.66699 14.4263 7.93366 14.6513L9.10866 15.6263H5.83366C5.25866 15.6263 4.79199 15.1596 4.79199 14.5846V6.66797C4.79199 6.63464 4.77533 6.60964 4.77533 6.58464C5.85866 6.30964 6.66699 5.33464 6.66699 4.16797C6.66699 2.78464 5.55033 1.66797 4.16699 1.66797C2.78366 1.66797 1.66699 2.78464 1.66699 4.16797C1.66699 5.33464 2.47533 6.30964 3.55866 6.58464C3.55866 6.60964 3.54199 6.63464 3.54199 6.66797V14.5846C3.54199 15.8513 4.56699 16.8763 5.83366 16.8763H9.10866L7.93366 17.8513C7.66699 18.0763 7.63366 18.468 7.85033 18.7346C7.97533 18.8846 8.15033 18.9596 8.33366 18.9596C8.47533 18.9596 8.61699 18.9096 8.73366 18.818L11.2337 16.7346C11.3753 16.618 11.4587 16.443 11.4587 16.2513C11.4587 16.0596 11.3753 15.893 11.2337 15.768Z" fill="white"/>
</svg>
