<svg width="20" height="20" viewBox="0 0 20 20" fill="none" xmlns="http://www.w3.org/2000/svg">
<path d="M4.79199 13.4263V6.5763C5.86699 6.3013 6.66699 5.33464 6.66699 4.16797C6.66699 2.78464 5.55033 1.66797 4.16699 1.66797C2.78366 1.66797 1.66699 2.78464 1.66699 4.16797C1.66699 5.33464 2.46699 6.3013 3.54199 6.5763V13.418C2.46699 13.7013 1.66699 14.668 1.66699 15.8346C1.66699 17.218 2.78366 18.3346 4.16699 18.3346C5.55033 18.3346 6.66699 17.218 6.66699 15.8346C6.66699 14.668 5.86699 13.7013 4.79199 13.4263Z" fill="white"/>
<path d="M16.4583 13.4269V5.41852C16.4583 4.15186 15.4333 3.12686 14.1667 3.12686H11.725L12.9 2.15186C13.1667 1.92686 13.2 1.53519 12.9833 1.26852C12.7583 1.00186 12.3667 0.968522 12.1 1.18519L9.6 3.26852C9.45833 3.38519 9.375 3.56019 9.375 3.75186C9.375 3.94352 9.45833 4.11019 9.6 4.23519L12.1 6.31852C12.2167 6.41852 12.3583 6.46019 12.5 6.46019C12.675 6.46019 12.8583 6.38519 12.9833 6.23519C13.2083 5.96852 13.1667 5.57686 12.9 5.35186L11.725 4.37686H14.1667C14.7417 4.37686 15.2083 4.84352 15.2083 5.41852V13.4269C14.1333 13.7019 13.3333 14.6686 13.3333 15.8352C13.3333 17.2186 14.45 18.3352 15.8333 18.3352C17.2167 18.3352 18.3333 17.2186 18.3333 15.8352C18.3333 14.6686 17.5333 13.7019 16.4583 13.4269Z" fill="white"/>
</svg>
