<svg width="20" height="20" viewBox="0 0 20 20" fill="none" xmlns="http://www.w3.org/2000/svg">
<path d="M12.5171 1.85781C10.8504 1.59948 9.15049 1.59948 7.48379 1.85781C6.80046 1.96615 6.30045 2.54947 6.30045 3.2328V6.29946H3.23378C2.55045 6.29946 1.96712 6.79948 1.85879 7.48281C1.60046 9.14944 1.60046 10.8494 1.85879 12.5161C1.96712 13.1994 2.55045 13.6994 3.23378 13.6994H4.63378C4.86711 13.6994 5.05045 13.5161 5.05045 13.2828V11.8494C5.05045 10.1411 6.44211 8.74944 8.15045 8.74944H11.8504C12.1837 8.74944 12.4505 8.48277 12.4505 8.14946V5.46613C12.4505 5.2328 12.6338 5.04946 12.8672 5.04946H13.2838C13.5171 5.04946 13.7005 4.86613 13.7005 4.6328V3.2328C13.7005 2.54947 13.2004 1.96615 12.5171 1.85781ZM8.60874 4.64945C8.2671 4.64945 7.94211 4.32446 7.94211 3.9828C7.94211 3.6328 8.2671 3.3078 8.60874 3.3078C8.77541 3.3078 8.95882 3.38281 9.07549 3.49948C9.20049 3.61615 9.28382 3.8078 9.28382 3.9828C9.28382 4.32446 8.95874 4.64945 8.60874 4.64945Z" fill="white"/>
<path d="M18.1415 7.48412C18.0331 6.80079 17.4498 6.30078 16.7665 6.30078H14.1165C13.8832 6.30078 13.6998 6.48411 13.6998 6.71745V8.15078C13.6998 9.16741 12.8748 10.0007 11.8498 10.0007H8.1498C7.1248 10.0007 6.2998 10.8258 6.2998 11.8508V16.7674C6.2998 17.4507 6.79981 18.0341 7.48315 18.1424C9.14984 18.4007 10.8498 18.4007 12.5165 18.1424C13.1998 18.0341 13.6998 17.4507 13.6998 16.7674V13.7008H16.7665C17.4498 13.7008 18.0331 13.2007 18.1415 12.5174C18.3998 10.8507 18.3998 9.15082 18.1415 7.48412ZM11.3915 16.6924C11.0498 16.6924 10.7164 16.3675 10.7164 16.0175C10.7164 15.6675 11.0415 15.3425 11.3915 15.3425C11.5498 15.3425 11.7415 15.4175 11.8582 15.5258C11.9832 15.6425 12.0665 15.8424 12.0665 16.0091C12.0582 16.3674 11.7332 16.6924 11.3915 16.6924Z" fill="white"/>
</svg>
