<svg width="20" height="20" viewBox="0 0 20 20" fill="none" xmlns="http://www.w3.org/2000/svg">
<path d="M17.0744 5.59141L10.4078 1.89141C10.1578 1.74974 9.8495 1.74974 9.5995 1.89141L2.93282 5.59141C2.66615 5.74141 2.50781 6.01641 2.50781 6.31641V13.6664C2.50781 13.9664 2.67449 14.2498 2.93282 14.3914L9.61609 18.1081C9.85775 18.2414 10.1494 18.2498 10.3911 18.1248L13.7495 16.4498C14.0078 16.3164 14.3161 16.3331 14.5661 16.4914L16.2244 17.5331C16.7828 17.8831 17.4995 17.4831 17.4995 16.8248V14.6498C17.4995 14.3498 17.3328 14.0664 17.0744 13.9248L14.5744 12.5414C14.3244 12.3998 14.0162 12.3998 13.7662 12.5414L10.4078 14.4081C10.1578 14.5498 9.8495 14.5498 9.5995 14.4081L6.26615 12.5581C5.99949 12.4081 5.84115 12.1331 5.84115 11.8331V8.18307C5.84115 7.88307 6.00782 7.59973 6.26615 7.45807L9.5995 5.60806C9.8495 5.4664 10.1578 5.4664 10.4078 5.60806L13.7411 7.45807C14.0078 7.60807 14.1662 7.88307 14.1662 8.18307V10.7331C14.1662 11.4081 14.9245 11.7998 15.4745 11.4164L17.1412 10.2581C17.3662 10.0998 17.4995 9.84976 17.4995 9.57476V6.33307C17.4995 6.02474 17.3328 5.74141 17.0744 5.59141Z" fill="white"/>
<path d="M13.2165 8.68463V11.3096C13.2165 11.6013 13.0582 11.868 12.7998 12.0096L10.3915 13.3513C10.1498 13.4846 9.84992 13.4846 9.60825 13.3513L7.19987 12.0096C6.94154 11.868 6.7832 11.6013 6.7832 11.3096V8.68463C6.7832 8.39296 6.94154 8.1263 7.19987 7.98464L9.60825 6.64297C9.84992 6.50964 10.1498 6.50964 10.3915 6.64297L12.7998 7.98464C13.0582 8.1263 13.2165 8.39296 13.2165 8.68463Z" fill="white"/>
</svg>
