<svg width="20" height="20" viewBox="0 0 20 20" fill="none" xmlns="http://www.w3.org/2000/svg">
<path d="M13.492 1.66797H6.50866C3.47533 1.66797 1.66699 3.4763 1.66699 6.50964V13.4846C1.66699 16.5263 3.47533 18.3346 6.50866 18.3346H13.4837C16.517 18.3346 18.3253 16.5263 18.3253 13.493V6.50964C18.3337 3.4763 16.5253 1.66797 13.492 1.66797ZM9.67533 12.368C9.67533 13.2763 8.96699 13.9846 8.05866 13.9846H6.82533C5.93366 13.9846 5.20866 13.2596 5.20866 12.368V10.143C5.20866 7.5763 5.76699 7.0013 7.25866 6.11797C7.35866 6.05964 7.46699 6.03464 7.57533 6.03464C7.79199 6.03464 8.00033 6.14297 8.11699 6.34297C8.29199 6.64297 8.19199 7.0263 7.90032 7.2013C6.89199 7.78464 6.54199 8.0013 6.47533 9.50964H8.06699C8.97533 9.50964 9.68366 10.218 9.68366 11.1263V12.368H9.67533ZM14.792 12.368C14.792 13.2763 14.0837 13.9846 13.1753 13.9846H11.9337C11.042 13.9846 10.317 13.2596 10.317 12.368V10.143C10.317 7.5763 10.8753 7.0013 12.367 6.11797C12.467 6.05964 12.5753 6.03464 12.6837 6.03464C12.9003 6.03464 13.1087 6.14297 13.2253 6.34297C13.4003 6.64297 13.3003 7.0263 13.0087 7.2013C12.0003 7.8013 11.6503 8.01797 11.5837 9.5263H13.1753C14.0837 9.5263 14.792 10.2346 14.792 11.143V12.368Z" fill="white"/>
</svg>
