<svg width="20" height="20" viewBox="0 0 20 20" fill="none" xmlns="http://www.w3.org/2000/svg">
<path d="M6.74199 9.68963H2.83366C2.90033 5.79794 3.66699 5.15628 6.05866 3.73961C6.33366 3.57294 6.42533 3.22294 6.25866 2.93961C6.10033 2.66461 5.74199 2.57294 5.46699 2.73961C2.65033 4.40627 1.66699 5.42294 1.66699 10.2646V14.7563C1.66699 16.1813 2.82533 17.3313 4.24199 17.3313H6.74199C8.20866 17.3313 9.31699 16.223 9.31699 14.7563V12.2563C9.31699 10.798 8.20866 9.68963 6.74199 9.68963Z" fill="white"/>
<path d="M15.7581 9.68962H11.8498C11.9165 5.79794 12.6831 5.15627 15.0748 3.73961C15.3498 3.57294 15.4415 3.22294 15.2748 2.93961C15.1081 2.66461 14.7581 2.57294 14.4748 2.73961C11.6581 4.40627 10.6748 5.42294 10.6748 10.273V14.7646C10.6748 16.1896 11.8331 17.3396 13.2498 17.3396H15.7498C17.2165 17.3396 18.3248 16.2313 18.3248 14.7646V12.2646C18.3331 10.798 17.2248 9.68962 15.7581 9.68962Z" fill="white"/>
</svg>
