<svg width="20" height="20" viewBox="0 0 20 20" fill="none" xmlns="http://www.w3.org/2000/svg">
<path d="M10.0003 1.66797C5.40033 1.66797 1.66699 5.4013 1.66699 10.0013C1.66699 14.6013 5.40033 18.3346 10.0003 18.3346C14.6003 18.3346 18.3337 14.6013 18.3337 10.0013C18.3337 5.4013 14.6003 1.66797 10.0003 1.66797ZM9.67533 9.86797C9.67533 12.4346 9.11699 13.0096 7.62533 13.893C7.52533 13.9513 7.41699 13.9763 7.30866 13.9763C7.09199 13.9763 6.88366 13.868 6.76699 13.668C6.59199 13.368 6.69199 12.9846 6.98366 12.8096C7.99199 12.2096 8.34199 11.993 8.40866 10.4846H6.82533C5.91699 10.4846 5.20866 9.7763 5.20866 8.86797V7.63464C5.20866 6.7263 5.91699 6.01797 6.82533 6.01797H8.06699C8.95866 6.01797 9.68366 6.74297 9.68366 7.63464V9.86797H9.67533ZM14.792 9.86797C14.792 12.4346 14.2337 13.0096 12.742 13.893C12.642 13.9513 12.5337 13.9763 12.4253 13.9763C12.2087 13.9763 12.0003 13.868 11.8837 13.668C11.7087 13.368 11.8087 12.9846 12.1003 12.8096C13.1087 12.2096 13.4587 11.993 13.5253 10.4846H11.9337C11.0253 10.4846 10.317 9.7763 10.317 8.86797V7.63464C10.317 6.7263 11.0253 6.01797 11.9337 6.01797H13.1753C14.067 6.01797 14.792 6.74297 14.792 7.63464V9.86797Z" fill="white"/>
</svg>
