<svg width="20" height="20" viewBox="0 0 20 20" fill="none" xmlns="http://www.w3.org/2000/svg">
<path d="M13.2581 10.3063H17.1665C17.0998 14.198 16.3331 14.8396 13.9415 16.2563C13.6665 16.423 13.5748 16.773 13.7415 17.0563C13.9081 17.3313 14.2581 17.423 14.5415 17.2563C17.3581 15.5896 18.3415 14.573 18.3415 9.72296V5.23125C18.3415 3.80625 17.1831 2.65625 15.7665 2.65625H13.2665C11.7998 2.65625 10.6915 3.76458 10.6915 5.23125V7.73125C10.6831 9.19796 11.7915 10.3063 13.2581 10.3063Z" fill="white"/>
<path d="M4.24199 10.3063H8.15033C8.08366 14.198 7.31699 14.8396 4.92533 16.2563C4.65033 16.423 4.55866 16.773 4.72533 17.0563C4.89199 17.3313 5.24199 17.423 5.52533 17.2563C8.34199 15.5896 9.32532 14.573 9.32532 9.72296V5.23125C9.32532 3.80625 8.16699 2.65625 6.75033 2.65625H4.25033C2.77533 2.65625 1.66699 3.76458 1.66699 5.23125V7.73125C1.66699 9.19796 2.77533 10.3063 4.24199 10.3063Z" fill="white"/>
</svg>
