<svg width="20" height="20" viewBox="0 0 20 20" fill="none" xmlns="http://www.w3.org/2000/svg">
<path d="M9.99992 11.9823C11.0953 11.9823 11.9833 11.0943 11.9833 9.99893C11.9833 8.90359 11.0953 8.01562 9.99992 8.01562C8.90459 8.01562 8.0166 8.90359 8.0166 9.99893C8.0166 11.0943 8.90459 11.9823 9.99992 11.9823Z" fill="white"/>
<path d="M16.6672 15.6253C16.5339 15.6253 16.4089 15.5836 16.2922 15.5003C16.0172 15.2919 15.9589 14.9003 16.1672 14.6253C17.1756 13.2836 17.7089 11.6836 17.7089 10.0003C17.7089 8.31689 17.1756 6.71689 16.1672 5.37523C15.9589 5.10023 16.0172 4.70856 16.2922 4.50023C16.5672 4.29189 16.9589 4.35023 17.1672 4.62523C18.3422 6.18356 18.9589 8.04189 18.9589 10.0003C18.9589 11.9586 18.3422 13.8169 17.1672 15.3753C17.0422 15.5419 16.8589 15.6253 16.6672 15.6253Z" fill="white"/>
<path d="M3.33366 15.6253C3.14199 15.6253 2.95866 15.5419 2.83366 15.3753C1.65866 13.8169 1.04199 11.9586 1.04199 10.0003C1.04199 8.04189 1.65866 6.18356 2.83366 4.62523C3.04199 4.35023 3.43366 4.29189 3.70866 4.50023C3.98366 4.70856 4.04199 5.10023 3.83366 5.37523C2.82533 6.71689 2.29199 8.31689 2.29199 10.0003C2.29199 11.6836 2.82533 13.2836 3.83366 14.6253C4.04199 14.9003 3.98366 15.2919 3.70866 15.5003C3.60033 15.5836 3.46699 15.6253 3.33366 15.6253Z" fill="white"/>
<path d="M14.0002 13.6253C13.8669 13.6253 13.7419 13.5836 13.6252 13.5003C13.3502 13.2919 13.2919 12.9003 13.5002 12.6253C14.0752 11.8669 14.3752 10.9586 14.3752 10.0003C14.3752 9.04193 14.0752 8.13356 13.5002 7.37523C13.2919 7.10023 13.3502 6.70856 13.6252 6.50023C13.9002 6.29189 14.2919 6.35023 14.5002 6.62523C15.2336 7.60856 15.6252 8.77526 15.6252 10.0003C15.6252 11.2253 15.2336 12.4003 14.5002 13.3753C14.3752 13.5419 14.1919 13.6253 14.0002 13.6253Z" fill="white"/>
<path d="M6 13.6253C5.80833 13.6253 5.625 13.5419 5.5 13.3753C4.76667 12.4003 4.375 11.2253 4.375 10.0003C4.375 8.77526 4.76667 7.60023 5.5 6.62523C5.70833 6.35023 6.1 6.29189 6.375 6.50023C6.65 6.70856 6.70833 7.10023 6.5 7.37523C5.925 8.13356 5.625 9.04193 5.625 10.0003C5.625 10.9586 5.925 11.8669 6.5 12.6253C6.70833 12.9003 6.65 13.2919 6.375 13.5003C6.26667 13.5836 6.13333 13.6253 6 13.6253Z" fill="white"/>
</svg>
