<svg width="20" height="20" viewBox="0 0 20 20" fill="none" xmlns="http://www.w3.org/2000/svg">
<path d="M10.0003 1.66797C5.40033 1.66797 1.66699 5.4013 1.66699 10.0013C1.66699 14.6013 5.40033 18.3346 10.0003 18.3346C14.6003 18.3346 18.3337 14.6013 18.3337 10.0013C18.3337 5.4013 14.6003 1.66797 10.0003 1.66797ZM10.0003 16.4596C6.44199 16.4596 3.54199 13.5596 3.54199 10.0013C3.54199 8.86797 3.84199 7.75964 4.40033 6.78464C4.56699 6.48464 4.95033 6.38464 5.25033 6.5513L10.3087 9.45964C10.6087 9.63464 10.7087 10.0096 10.542 10.3096C10.367 10.6096 9.99199 10.7096 9.69199 10.543L7.26699 9.1513C7.18366 9.4263 7.12533 9.70964 7.12533 10.0013C7.12533 11.5846 8.41699 12.8763 10.0003 12.8763C11.5837 12.8763 12.8753 11.5846 12.8753 10.0013C12.8753 8.41797 11.5837 7.1263 10.0003 7.1263C9.57533 7.1263 9.15866 7.21797 8.77533 7.4013C8.45866 7.5513 8.09199 7.41797 7.94199 7.1013C7.79199 6.79297 7.92533 6.41797 8.24199 6.26797C8.79199 6.00964 9.38366 5.8763 10.0003 5.8763C12.2753 5.8763 14.1253 7.7263 14.1253 10.0013C14.1253 12.2763 12.2753 14.1263 10.0003 14.1263C7.72533 14.1263 5.87533 12.2763 5.87533 10.0013C5.87533 9.49297 5.97533 8.98464 6.15866 8.50964L5.20033 7.96797C4.93366 8.60964 4.79199 9.3013 4.79199 10.0013C4.79199 12.8763 7.12533 15.2096 10.0003 15.2096C12.8753 15.2096 15.2087 12.8763 15.2087 10.0013C15.2087 7.1263 12.8753 4.79297 10.0003 4.79297C8.86699 4.79297 7.78366 5.1513 6.87533 5.83464C6.60033 6.04297 6.20866 5.98464 6.00033 5.70964C5.79199 5.43464 5.85033 5.04297 6.12533 4.83464C7.25033 3.99297 8.59199 3.54297 10.0003 3.54297C13.5587 3.54297 16.4587 6.44297 16.4587 10.0013C16.4587 13.5596 13.5587 16.4596 10.0003 16.4596Z" fill="white"/>
</svg>
