<svg width="20" height="20" viewBox="0 0 20 20" fill="none" xmlns="http://www.w3.org/2000/svg">
<path d="M13.3419 17.4763C13.3466 17.9397 12.9722 18.318 12.5087 18.318H7.49478C7.03672 18.318 6.66452 17.9483 6.66147 17.4902L6.65039 15.8346C6.65039 14.918 7.39206 14.168 8.31706 14.168H11.6587C12.5754 14.168 13.3171 14.9096 13.3254 15.8263L13.3419 17.4763Z" fill="white"/>
<path d="M15.417 8.33191V10.1403C15.417 10.5819 15.592 11.0069 15.9087 11.3236L16.592 12.0069C16.9087 12.3236 17.0837 12.7486 17.0837 13.1903V14.1653C17.0837 16.0828 16.3262 17.4933 14.6717 18.0537C14.4207 18.1388 14.1744 17.9405 14.1735 17.6755L14.167 15.8153C14.1503 14.4486 13.0253 13.3319 11.667 13.3319H8.32533C6.94199 13.3319 5.82533 14.4569 5.82533 15.8319V17.6853C5.82533 17.9499 5.58057 18.1489 5.32941 18.0658C3.65533 17.5118 2.91699 16.0928 2.91699 14.1653V5.83191C2.91699 3.82688 3.71015 2.36006 5.53802 1.86234C5.78848 1.79413 6.02191 1.99543 6.01818 2.25498L5.99199 4.08191C5.98366 4.47358 6.12533 4.84858 6.39199 5.13191C6.66699 5.41524 7.02533 5.57358 7.45033 5.58191C7.8788 5.58191 8.26035 5.40461 8.52074 5.11603C8.61424 5.01238 8.79333 5.0082 8.89199 5.10691C9.15866 5.39024 9.52533 5.5569 9.95033 5.56524C10.3789 5.56524 10.7699 5.37686 11.0367 5.07364C11.1243 4.97399 11.3038 4.96604 11.392 5.06524C11.6587 5.34858 12.0253 5.51524 12.4503 5.52358C13.2503 5.52358 13.892 4.89857 13.9087 4.09024L13.9417 2.23744C13.9462 1.98386 14.1758 1.79139 14.4209 1.85654C16.2576 2.34468 17.0837 3.82123 17.0837 5.83191V6.66524C17.0837 7.12358 16.7087 7.49858 16.2503 7.49858C15.792 7.49858 15.417 7.87358 15.417 8.33191Z" fill="white"/>
<path d="M7.68958 1.66798C7.92349 1.66647 8.11282 1.85779 8.10887 2.09168L8.0744 4.13189C8.06607 4.47356 7.79107 4.74856 7.4494 4.74856H7.44108C7.09108 4.74023 6.81607 4.45689 6.8244 4.10689V2.08755C6.8244 1.85848 7.00932 1.67237 7.23839 1.67089L7.68958 1.66798Z" fill="white"/>
<path d="M10.1922 1.66797C10.4252 1.66797 10.6128 1.85885 10.6089 2.09169L10.5744 4.1263C10.5661 4.45964 10.2911 4.73464 9.9494 4.73464H9.94107C9.59107 4.7263 9.31607 4.44297 9.3244 4.1013V2.08464C9.3244 1.85452 9.5109 1.66797 9.74107 1.66797H10.1922Z" fill="white"/>
<path d="M12.6947 1.67082C12.9267 1.67228 13.1127 1.86283 13.1087 2.09471L13.0744 4.07348C13.0661 4.41514 12.7911 4.69014 12.4494 4.69014H12.4411C12.0911 4.68181 11.8161 4.39848 11.8244 4.05681V2.08464C11.8244 1.85349 12.0126 1.66652 12.2437 1.66798L12.6947 1.67082Z" fill="white"/>
</svg>
