<svg width="20" height="20" viewBox="0 0 20 20" fill="none" xmlns="http://www.w3.org/2000/svg">
<path d="M16.2503 7.5013C16.7087 7.5013 17.0837 7.1263 17.0837 6.66797V5.83464C17.0837 3.33464 15.8087 1.66797 12.917 1.66797H7.08366C4.14199 1.66797 2.91699 3.33464 2.91699 5.83464V14.168C2.91699 16.0962 3.64888 17.5226 5.32943 18.071C5.58073 18.153 5.82445 17.9531 5.82352 17.6887L5.81699 15.8346C5.81699 14.4513 6.94199 13.3346 8.31699 13.3346H11.6587C13.0253 13.3346 14.1503 14.4513 14.1587 15.818L14.1717 17.6905C14.1736 17.9542 14.4184 18.1514 14.6685 18.0675C16.3252 17.5118 17.0837 16.0869 17.0837 14.168V13.193C17.0837 12.7513 16.9087 12.3263 16.592 12.0096L15.9087 11.3263C15.592 11.0096 15.417 10.5846 15.417 10.143V8.33464C15.417 7.8763 15.792 7.5013 16.2503 7.5013ZM11.642 7.10964H6.64199C6.30033 7.10964 6.01699 6.8263 6.01699 6.48464C6.01699 6.14297 6.30033 5.85964 6.64199 5.85964H11.642C11.9837 5.85964 12.267 6.14297 12.267 6.48464C12.267 6.8263 11.992 7.10964 11.642 7.10964Z" fill="white"/>
<path d="M13.3419 17.4763C13.3466 17.9397 12.9722 18.318 12.5087 18.318H7.49478C7.03672 18.318 6.66452 17.9483 6.66147 17.4902L6.65039 15.8346C6.65039 14.918 7.39206 14.168 8.31706 14.168H11.6587C12.5754 14.168 13.3171 14.9096 13.3254 15.8263L13.3419 17.4763Z" fill="white"/>
</svg>
