<svg width="20" height="20" viewBox="0 0 20 20" fill="none" xmlns="http://www.w3.org/2000/svg">
<path d="M5.55866 11.668H3.33366C2.41699 11.668 1.66699 12.418 1.66699 13.3346V17.5013C1.66699 17.9596 2.04199 18.3346 2.50033 18.3346H5.55866C6.01699 18.3346 6.39199 17.9596 6.39199 17.5013V12.5013C6.39199 12.043 6.01699 11.668 5.55866 11.668Z" fill="white"/>
<path d="M11.1085 8.33203H8.8835C7.9668 8.33203 7.2168 9.08203 7.2168 9.9987V17.4987C7.2168 17.957 7.5918 18.332 8.05013 18.332H11.9418C12.4002 18.332 12.7752 17.957 12.7752 17.4987V9.9987C12.7752 9.08203 12.0335 8.33203 11.1085 8.33203Z" fill="white"/>
<path d="M16.6667 14.168H14.4417C13.9834 14.168 13.6084 14.543 13.6084 15.0013V17.5013C13.6084 17.9596 13.9834 18.3346 14.4417 18.3346H17.5001C17.9584 18.3346 18.3334 17.9596 18.3334 17.5013V15.8346C18.3334 14.918 17.5834 14.168 16.6667 14.168Z" fill="white"/>
<path d="M12.5088 4.04271C12.7672 3.78438 12.8672 3.47604 12.7838 3.20938C12.7005 2.94271 12.4422 2.75104 12.0755 2.69271L11.2755 2.55938C11.2422 2.55938 11.1672 2.50104 11.1505 2.46771L10.7088 1.58438C10.3755 0.909375 9.61716 0.909375 9.28383 1.58438L8.84216 2.46771C8.83383 2.50104 8.75883 2.55938 8.72549 2.55938L7.92552 2.69271C7.55885 2.75104 7.30885 2.94271 7.21719 3.20938C7.13385 3.47604 7.23385 3.78438 7.49219 4.04271L8.10885 4.66771C8.14219 4.69271 8.16719 4.79271 8.15885 4.82604L7.98385 5.59271C7.85052 6.16771 8.06719 6.42604 8.20885 6.52604C8.35049 6.62604 8.65883 6.75938 9.16716 6.45938L9.91716 6.01771C9.95049 5.99271 10.0588 5.99271 10.0922 6.01771L10.8338 6.45938C11.0672 6.60104 11.2588 6.64271 11.4088 6.64271C11.5838 6.64271 11.7088 6.57604 11.7838 6.52604C11.9255 6.42604 12.1422 6.16771 12.0088 5.59271L11.8338 4.82604C11.8255 4.78438 11.8505 4.69271 11.8838 4.66771L12.5088 4.04271Z" fill="white"/>
</svg>
