<svg width="20" height="20" viewBox="0 0 20 20" fill="none" xmlns="http://www.w3.org/2000/svg">
<path d="M11.0837 6.7599L12.1837 8.95988C12.3337 9.25988 12.7337 9.55988 13.067 9.60988L15.0587 9.94321C16.3337 10.1599 16.6337 11.0765 15.717 11.9932L14.167 13.5515C13.9087 13.8099 13.7587 14.3182 13.842 14.6849L14.2837 16.6099C14.6337 18.1265 13.8253 18.7182 12.4837 17.9265L10.617 16.8182C10.2753 16.6182 9.72533 16.6182 9.38366 16.8182L7.50864 17.9182C6.16697 18.7099 5.35864 18.1182 5.70864 16.6015L6.1503 14.6765C6.23364 14.3182 6.08364 13.8099 5.8253 13.5432L4.28364 12.0015C3.36697 11.0849 3.66697 10.1599 4.94197 9.95155L6.93364 9.61822C7.26697 9.55988 7.66697 9.26821 7.81697 8.96821L8.917 6.76823C9.50866 5.56823 10.492 5.56823 11.0837 6.7599Z" fill="white"/>
<path d="M5 8.1263C4.65833 8.1263 4.375 7.84297 4.375 7.5013V1.66797C4.375 1.3263 4.65833 1.04297 5 1.04297C5.34167 1.04297 5.625 1.3263 5.625 1.66797V7.5013C5.625 7.84297 5.34167 8.1263 5 8.1263Z" fill="white"/>
<path d="M15 8.1263C14.6583 8.1263 14.375 7.84297 14.375 7.5013V1.66797C14.375 1.3263 14.6583 1.04297 15 1.04297C15.3417 1.04297 15.625 1.3263 15.625 1.66797V7.5013C15.625 7.84297 15.3417 8.1263 15 8.1263Z" fill="white"/>
<path d="M10 3.95964C9.65833 3.95964 9.375 3.6763 9.375 3.33464V1.66797C9.375 1.3263 9.65833 1.04297 10 1.04297C10.3417 1.04297 10.625 1.3263 10.625 1.66797V3.33464C10.625 3.6763 10.3417 3.95964 10 3.95964Z" fill="white"/>
</svg>
