<svg width="20" height="20" viewBox="0 0 20 20" fill="none" xmlns="http://www.w3.org/2000/svg">
<path d="M16.25 3.05964C16.25 3.0513 16.25 3.04297 16.2333 3.03464C16.05 2.8013 15.8083 2.6763 15.525 2.6763C15.0833 2.6763 14.55 2.96797 13.975 3.58464C13.2917 4.31797 12.2417 4.25964 11.6417 3.45964L10.8 2.34297C10.4667 1.89297 10.025 1.66797 9.58333 1.66797C9.14167 1.66797 8.7 1.89297 8.36667 2.34297L7.51667 3.46797C6.925 4.25964 5.88333 4.31797 5.2 3.59297L5.19167 3.58464C4.25 2.5763 3.40833 2.4263 2.93333 3.03464C2.91667 3.04297 2.91667 3.0513 2.91667 3.05964C2.61667 3.7013 2.5 4.6013 2.5 5.86797V14.1346C2.5 15.4013 2.61667 16.3013 2.91667 16.943C2.91667 16.9513 2.925 16.968 2.93333 16.9763C3.41667 17.5763 4.25 17.4263 5.19167 16.418L5.2 16.4096C5.88333 15.6846 6.925 15.743 7.51667 16.5346L8.36667 17.6596C8.7 18.1096 9.14167 18.3346 9.58333 18.3346C10.025 18.3346 10.4667 18.1096 10.8 17.6596L11.6417 16.543C12.2417 15.743 13.2917 15.6846 13.975 16.418C14.55 17.0346 15.0833 17.3263 15.525 17.3263C15.8083 17.3263 16.05 17.2096 16.2333 16.9763C16.2417 16.968 16.25 16.9513 16.25 16.943C16.55 16.3013 16.6667 15.4013 16.6667 14.1346V5.86797C16.6667 4.6013 16.55 3.7013 16.25 3.05964ZM11.6667 12.0846H6.66667C6.325 12.0846 6.04167 11.8013 6.04167 11.4596C6.04167 11.118 6.325 10.8346 6.66667 10.8346H11.6667C12.0083 10.8346 12.2917 11.118 12.2917 11.4596C12.2917 11.8013 12.0083 12.0846 11.6667 12.0846ZM13.3333 9.16797H6.66667C6.325 9.16797 6.04167 8.88464 6.04167 8.54297C6.04167 8.2013 6.325 7.91797 6.66667 7.91797H13.3333C13.675 7.91797 13.9583 8.2013 13.9583 8.54297C13.9583 8.88464 13.675 9.16797 13.3333 9.16797Z" fill="white"/>
</svg>
