<svg width="20" height="20" viewBox="0 0 20 20" fill="none" xmlns="http://www.w3.org/2000/svg">
<path d="M5.83464 1.66797H5.0013C2.5013 1.66797 1.66797 3.15964 1.66797 5.0013V5.83464V17.5013C1.66797 18.193 2.4513 18.5846 3.0013 18.168L4.4263 17.1013C4.75964 16.8513 5.2263 16.8846 5.5263 17.1846L6.90964 18.5763C7.23464 18.9013 7.76797 18.9013 8.09297 18.5763L9.49299 17.1763C9.78465 16.8846 10.2513 16.8513 10.5763 17.1013L12.0013 18.168C12.5513 18.5763 13.3347 18.1846 13.3347 17.5013V3.33464C13.3347 2.41797 14.0847 1.66797 15.0013 1.66797H5.83464ZM9.79299 8.95964H5.20964C4.86797 8.95964 4.58464 8.6763 4.58464 8.33464C4.58464 7.99297 4.86797 7.70964 5.20964 7.70964H9.79299C10.1347 7.70964 10.418 7.99297 10.418 8.33464C10.418 8.6763 10.1347 8.95964 9.79299 8.95964Z" fill="white"/>
<path d="M15.009 2.91797C15.559 2.91797 16.084 3.14297 16.4673 3.51797C16.8673 3.9263 17.084 4.4513 17.084 5.0013V7.01797C17.084 7.63464 16.809 7.91797 16.184 7.91797H14.584V3.34297C14.584 3.10964 14.7757 2.91797 15.009 2.91797ZM15.009 1.66797C14.084 1.66797 13.334 2.41797 13.334 3.34297V9.16797H16.184C17.5007 9.16797 18.334 8.33464 18.334 7.01797V5.0013C18.334 4.08464 17.959 3.2513 17.359 2.64297C16.7507 2.04297 15.9257 1.6763 15.009 1.66797Z" fill="white"/>
</svg>
