<svg width="20" height="20" viewBox="0 0 20 20" fill="none" xmlns="http://www.w3.org/2000/svg">
<path d="M13.1503 1.66797H6.85033C3.70033 1.66797 2.91699 2.50964 2.91699 5.86797V15.2513C2.91699 17.468 4.13366 17.993 5.60866 16.4096L5.61699 16.4013C6.30033 15.6763 7.34199 15.7346 7.93366 16.5263L8.77533 17.6513C9.45033 18.543 10.542 18.543 11.217 17.6513L12.0587 16.5263C12.6587 15.7263 13.7003 15.668 14.3837 16.4013C15.867 17.9846 17.0753 17.4596 17.0753 15.243V5.86797C17.0837 2.50964 16.3003 1.66797 13.1503 1.66797ZM12.367 8.3263L11.9503 8.7513H11.942L9.41699 11.2763C9.30866 11.3846 9.08366 11.5013 8.92533 11.518L7.80033 11.6846C7.39199 11.743 7.10866 11.4513 7.16699 11.0513L7.32533 9.91797C7.35033 9.75964 7.45866 9.54297 7.56699 9.4263L10.1003 6.9013L10.517 6.4763C10.792 6.2013 11.1003 6.0013 11.4337 6.0013C11.717 6.0013 12.0253 6.13464 12.367 6.4763C13.117 7.2263 12.8753 7.81797 12.367 8.3263Z" fill="white"/>
</svg>
