<svg width="20" height="20" viewBox="0 0 20 20" fill="none" xmlns="http://www.w3.org/2000/svg">
<path d="M13.1503 1.66797H6.85033C3.70033 1.66797 2.91699 2.50964 2.91699 5.86797V15.2513C2.91699 17.468 4.13366 17.993 5.60866 16.4096L5.61699 16.4013C6.30033 15.6763 7.34199 15.7346 7.93366 16.5263L8.77533 17.6513C9.45033 18.543 10.542 18.543 11.217 17.6513L12.0587 16.5263C12.6587 15.7263 13.7003 15.668 14.3837 16.4013C15.867 17.9846 17.0753 17.4596 17.0753 15.243V5.86797C17.0837 2.50964 16.3003 1.66797 13.1503 1.66797ZM13.0503 12.1096C12.9253 12.2346 12.767 12.293 12.6087 12.293C12.4503 12.293 12.292 12.2346 12.167 12.1096L11.5503 11.493C11.067 11.8096 10.4837 12.0013 9.85866 12.0013C8.15866 12.0013 6.77533 10.618 6.77533 8.91797C6.77533 7.21797 8.15033 5.83464 9.85866 5.83464C11.567 5.83464 12.942 7.21797 12.942 8.91797C12.942 9.54297 12.7503 10.1263 12.4337 10.6096L13.0503 11.2263C13.292 11.468 13.292 11.868 13.0503 12.1096Z" fill="white"/>
</svg>
