<svg width="20" height="20" viewBox="0 0 20 20" fill="none" xmlns="http://www.w3.org/2000/svg">
<path d="M13.492 1.66797H6.50866C3.47533 1.66797 1.66699 3.4763 1.66699 6.50964V13.4846C1.66699 16.5263 3.47533 18.3346 6.50866 18.3346H13.4837C16.517 18.3346 18.3253 16.5263 18.3253 13.493V6.50964C18.3337 3.4763 16.5253 1.66797 13.492 1.66797ZM14.167 13.093C14.167 14.4013 13.4503 14.7096 12.5837 13.7763C12.1837 13.3513 11.567 13.3846 11.217 13.8513L10.7253 14.5096C10.3337 15.0346 9.68366 15.0346 9.29199 14.5096L8.79199 13.843C8.44199 13.3763 7.82533 13.343 7.42533 13.768C6.55033 14.7013 5.83366 14.393 5.83366 13.093V7.56797C5.83366 5.59297 6.30033 5.1013 8.15033 5.1013H11.8503C13.7003 5.1013 14.167 5.59297 14.167 7.56797V13.093Z" fill="white"/>
</svg>
