<svg width="20" height="20" viewBox="0 0 20 20" fill="none" xmlns="http://www.w3.org/2000/svg">
<path d="M13.492 1.66797H6.50866C3.47533 1.66797 1.66699 3.4763 1.66699 6.50964V13.4846C1.66699 16.5263 3.47533 18.3346 6.50866 18.3346H13.4837C16.517 18.3346 18.3253 16.5263 18.3253 13.493V6.50964C18.3337 3.4763 16.5253 1.66797 13.492 1.66797ZM7.05866 9.1513C7.30033 8.90963 7.70033 8.90963 7.94199 9.1513L9.37533 10.5846V5.4263C9.37533 5.08464 9.65866 4.8013 10.0003 4.8013C10.342 4.8013 10.6253 5.08464 10.6253 5.4263V10.5846L12.0587 9.1513C12.3003 8.90963 12.7003 8.90963 12.942 9.1513C13.1837 9.39297 13.1837 9.79297 12.942 10.0346L10.442 12.5346C10.3837 12.593 10.317 12.6346 10.242 12.668C10.167 12.7013 10.0837 12.718 10.0003 12.718C9.91699 12.718 9.84199 12.7013 9.75866 12.668C9.68366 12.6346 9.61699 12.593 9.55866 12.5346L7.05866 10.0346C6.81699 9.79297 6.81699 9.4013 7.05866 9.1513ZM15.2003 14.3513C13.5253 14.9096 11.767 15.193 10.0003 15.193C8.23366 15.193 6.47533 14.9096 4.80033 14.3513C4.47533 14.243 4.30033 13.8846 4.40866 13.5596C4.51699 13.2346 4.86699 13.0513 5.20033 13.168C8.30033 14.2013 11.7087 14.2013 14.8087 13.168C15.1337 13.0596 15.492 13.2346 15.6003 13.5596C15.7003 13.893 15.5253 14.243 15.2003 14.3513Z" fill="white"/>
</svg>
