<svg width="20" height="20" viewBox="0 0 20 20" fill="none" xmlns="http://www.w3.org/2000/svg">
<path d="M3.92533 15.1576C4.00866 15.1909 4.08366 15.2076 4.16699 15.2076H12.7253C13.067 15.2076 13.3503 14.9243 13.3503 14.5826C13.3503 14.2409 13.067 13.9576 12.7253 13.9576H5.67533L16.2753 3.35755C16.517 3.11589 16.517 2.71589 16.2753 2.47422C16.0337 2.23255 15.6337 2.23255 15.392 2.47422L4.79199 13.0743V6.02422C4.79199 5.68255 4.50866 5.39922 4.16699 5.39922C3.82533 5.39922 3.54199 5.68255 3.54199 6.02422V14.5826C3.54199 14.6659 3.55866 14.7409 3.59199 14.8243C3.65033 14.9743 3.77533 15.0993 3.92533 15.1576Z" fill="white"/>
<path d="M17.0837 17.707H2.91699C2.57533 17.707 2.29199 17.9904 2.29199 18.332C2.29199 18.6737 2.57533 18.957 2.91699 18.957H17.0837C17.4253 18.957 17.7087 18.6737 17.7087 18.332C17.7087 17.9904 17.4253 17.707 17.0837 17.707Z" fill="white"/>
</svg>
