<svg width="20" height="20" viewBox="0 0 20 20" fill="none" xmlns="http://www.w3.org/2000/svg">
<path d="M13.1503 1.66797H6.85033C3.70033 1.66797 2.91699 2.50964 2.91699 5.86797V15.2513C2.91699 17.468 4.13366 17.993 5.60866 16.4096L5.61699 16.4013C6.30033 15.6763 7.34199 15.7346 7.93366 16.5263L8.77533 17.6513C9.45033 18.543 10.542 18.543 11.217 17.6513L12.0587 16.5263C12.6587 15.7263 13.7003 15.668 14.3837 16.4013C15.867 17.9846 17.0753 17.4596 17.0753 15.243V5.86797C17.0837 2.50964 16.3003 1.66797 13.1503 1.66797ZM7.50033 5.83464C7.95866 5.83464 8.33366 6.20964 8.33366 6.66797C8.33366 7.1263 7.96699 7.5013 7.50033 7.5013C7.03366 7.5013 6.66699 7.1263 6.66699 6.66797C6.66699 6.20964 7.03366 5.83464 7.50033 5.83464ZM12.5003 11.668C12.0337 11.668 11.667 11.293 11.667 10.8346C11.667 10.3763 12.042 10.0013 12.5003 10.0013C12.9587 10.0013 13.3337 10.3763 13.3337 10.8346C13.3337 11.293 12.967 11.668 12.5003 11.668ZM13.2503 6.3263L7.64199 11.9346C7.51699 12.0596 7.35866 12.118 7.20033 12.118C7.04199 12.118 6.88366 12.0596 6.75866 11.9346C6.51699 11.693 6.51699 11.293 6.75866 11.0513L12.367 5.44297C12.6087 5.2013 13.0087 5.2013 13.2503 5.44297C13.492 5.68464 13.492 6.08464 13.2503 6.3263Z" fill="white"/>
</svg>
