<svg width="20" height="20" viewBox="0 0 20 20" fill="none" xmlns="http://www.w3.org/2000/svg">
<path d="M13.492 1.66797H6.50866C3.47533 1.66797 1.66699 3.4763 1.66699 6.50964V13.4846C1.66699 16.5263 3.47533 18.3346 6.50866 18.3346H13.4837C16.517 18.3346 18.3253 16.5263 18.3253 13.493V6.50964C18.3337 3.4763 16.5253 1.66797 13.492 1.66797ZM7.20033 5.95964C7.44199 5.71797 7.84199 5.71797 8.08366 5.95964L11.7337 9.60964V7.58464C11.7337 7.24297 12.017 6.95964 12.3587 6.95964C12.7003 6.95964 12.9837 7.24297 12.9837 7.58464V11.118C12.9837 11.2013 12.967 11.2763 12.9337 11.3596C12.867 11.5096 12.7503 11.6346 12.592 11.7013C12.517 11.7346 12.4337 11.7513 12.3503 11.7513H8.81699C8.47533 11.7513 8.19199 11.468 8.19199 11.1263C8.19199 10.7846 8.47533 10.5013 8.81699 10.5013H10.842L7.20033 6.84297C6.95866 6.6013 6.95866 6.20964 7.20033 5.95964ZM15.2003 14.3513C13.5253 14.9096 11.767 15.193 10.0003 15.193C8.23366 15.193 6.47533 14.9096 4.80033 14.3513C4.47533 14.243 4.30033 13.8846 4.40866 13.5596C4.51699 13.2346 4.86699 13.0513 5.20033 13.168C8.30033 14.2013 11.7087 14.2013 14.8087 13.168C15.1337 13.0596 15.492 13.2346 15.6003 13.5596C15.7003 13.893 15.5253 14.243 15.2003 14.3513Z" fill="white"/>
</svg>
