<svg width="20" height="20" viewBox="0 0 20 20" fill="none" xmlns="http://www.w3.org/2000/svg">
<path d="M13.1503 1.66797H6.85033C3.70033 1.66797 2.91699 2.50964 2.91699 5.86797V15.2513C2.91699 17.468 4.13366 17.993 5.60866 16.4096L5.61699 16.4013C6.30033 15.6763 7.34199 15.7346 7.93366 16.5263L8.77533 17.6513C9.45033 18.543 10.542 18.543 11.217 17.6513L12.0587 16.5263C12.6587 15.7263 13.7003 15.668 14.3837 16.4013C15.867 17.9846 17.0753 17.4596 17.0753 15.243V5.86797C17.0837 2.50964 16.3003 1.66797 13.1503 1.66797ZM12.5003 9.79297H7.50033C7.15866 9.79297 6.87533 9.50964 6.87533 9.16797C6.87533 8.8263 7.15866 8.54297 7.50033 8.54297H12.5003C12.842 8.54297 13.1253 8.8263 13.1253 9.16797C13.1253 9.50964 12.842 9.79297 12.5003 9.79297ZM13.3337 6.45964H6.66699C6.32533 6.45964 6.04199 6.1763 6.04199 5.83464C6.04199 5.49297 6.32533 5.20964 6.66699 5.20964H13.3337C13.6753 5.20964 13.9587 5.49297 13.9587 5.83464C13.9587 6.1763 13.6753 6.45964 13.3337 6.45964Z" fill="white"/>
</svg>
