<svg width="20" height="20" viewBox="0 0 20 20" fill="none" xmlns="http://www.w3.org/2000/svg">
<path d="M5.83366 1.66797H5.00033C2.50033 1.66797 1.66699 3.15964 1.66699 5.0013V5.83464V17.5013C1.66699 18.193 2.45033 18.5846 3.00033 18.168L4.42533 17.1013C4.75866 16.8513 5.22533 16.8846 5.52533 17.1846L6.90866 18.5763C7.23366 18.9013 7.76699 18.9013 8.09199 18.5763L9.49199 17.1763C9.78366 16.8846 10.2503 16.8513 10.5753 17.1013L12.0003 18.168C12.5503 18.5763 13.3337 18.1846 13.3337 17.5013V3.33464C13.3337 2.41797 14.0837 1.66797 15.0003 1.66797H5.83366ZM4.97533 11.6763C4.51699 11.6763 4.14199 11.3013 4.14199 10.843C4.14199 10.3846 4.51699 10.0096 4.97533 10.0096C5.43366 10.0096 5.80866 10.3846 5.80866 10.843C5.80866 11.3013 5.43366 11.6763 4.97533 11.6763ZM4.97533 8.34297C4.51699 8.34297 4.14199 7.96797 4.14199 7.50964C4.14199 7.0513 4.51699 6.6763 4.97533 6.6763C5.43366 6.6763 5.80866 7.0513 5.80866 7.50964C5.80866 7.96797 5.43366 8.34297 4.97533 8.34297ZM10.0003 11.468H7.50033C7.15866 11.468 6.87533 11.1846 6.87533 10.843C6.87533 10.5013 7.15866 10.218 7.50033 10.218H10.0003C10.342 10.218 10.6253 10.5013 10.6253 10.843C10.6253 11.1846 10.342 11.468 10.0003 11.468ZM10.0003 8.13464H7.50033C7.15866 8.13464 6.87533 7.8513 6.87533 7.50964C6.87533 7.16797 7.15866 6.88464 7.50033 6.88464H10.0003C10.342 6.88464 10.6253 7.16797 10.6253 7.50964C10.6253 7.8513 10.342 8.13464 10.0003 8.13464Z" fill="white"/>
<path d="M15.008 2.91797C15.558 2.91797 16.083 3.14297 16.4663 3.51797C16.8663 3.9263 17.083 4.4513 17.083 5.0013V7.01797C17.083 7.63464 16.808 7.91797 16.183 7.91797H14.583V3.34297C14.583 3.10964 14.7747 2.91797 15.008 2.91797ZM15.008 1.66797C14.083 1.66797 13.333 2.41797 13.333 3.34297V9.16797H16.183C17.4997 9.16797 18.333 8.33464 18.333 7.01797V5.0013C18.333 4.08464 17.958 3.2513 17.358 2.64297C16.7497 2.04297 15.9247 1.6763 15.008 1.66797Z" fill="white"/>
</svg>
