<svg width="20" height="20" viewBox="0 0 20 20" fill="none" xmlns="http://www.w3.org/2000/svg">
<path d="M13.1503 1.66797H6.85033C3.70033 1.66797 2.91699 2.50964 2.91699 5.86797V15.2513C2.91699 17.468 4.13366 17.993 5.60866 16.4096L5.61699 16.4013C6.30033 15.6763 7.34199 15.7346 7.93366 16.5263L8.77533 17.6513C9.45033 18.543 10.542 18.543 11.217 17.6513L12.0587 16.5263C12.6587 15.7263 13.7003 15.668 14.3837 16.4013C15.867 17.9846 17.0753 17.4596 17.0753 15.243V5.86797C17.0837 2.50964 16.3003 1.66797 13.1503 1.66797ZM6.48366 10.0013C6.02533 10.0013 5.65033 9.6263 5.65033 9.16797C5.65033 8.70964 6.02533 8.33464 6.48366 8.33464C6.94199 8.33464 7.31699 8.70964 7.31699 9.16797C7.31699 9.6263 6.94199 10.0013 6.48366 10.0013ZM6.48366 6.66797C6.02533 6.66797 5.65033 6.29297 5.65033 5.83464C5.65033 5.3763 6.02533 5.0013 6.48366 5.0013C6.94199 5.0013 7.31699 5.3763 7.31699 5.83464C7.31699 6.29297 6.94199 6.66797 6.48366 6.66797ZM13.5253 9.79297H8.94199C8.60033 9.79297 8.31699 9.50964 8.31699 9.16797C8.31699 8.8263 8.60033 8.54297 8.94199 8.54297H13.5253C13.867 8.54297 14.1503 8.8263 14.1503 9.16797C14.1503 9.50964 13.867 9.79297 13.5253 9.79297ZM13.5253 6.45964H8.94199C8.60033 6.45964 8.31699 6.1763 8.31699 5.83464C8.31699 5.49297 8.60033 5.20964 8.94199 5.20964H13.5253C13.867 5.20964 14.1503 5.49297 14.1503 5.83464C14.1503 6.1763 13.867 6.45964 13.5253 6.45964Z" fill="white"/>
</svg>
