<svg width="20" height="20" viewBox="0 0 20 20" fill="none" xmlns="http://www.w3.org/2000/svg">
<path d="M16.3581 6.03529C16.6081 6.42696 16.4747 6.95196 16.0747 7.19362L15.5831 7.48529L4.65806 14.0353C4.25806 14.277 3.73306 14.1436 3.49972 13.7353C2.66639 12.2853 2.29139 10.5186 2.61639 8.66863C3.16639 5.52696 5.74972 3.02696 8.90808 2.57696C12.0331 2.13529 14.8581 3.63529 16.3581 6.03529Z" fill="white"/>
<path d="M17.4083 11.191C16.8417 14.7327 13.7083 17.441 10.1167 17.4994C8.53334 17.5244 7.06663 17.066 5.84996 16.241C5.3333 15.8994 5.34996 15.1327 5.8833 14.816L16.2249 8.74102C16.7666 8.42435 17.4333 8.79102 17.4833 9.41602C17.525 9.99935 17.5 10.591 17.4083 11.191Z" fill="white"/>
</svg>
