<svg width="20" height="20" viewBox="0 0 20 20" fill="none" xmlns="http://www.w3.org/2000/svg">
<path d="M12.4998 18.9589C12.2748 18.9589 12.0665 18.8339 11.9582 18.6422C11.8498 18.4422 11.8498 18.2089 11.9665 18.0089L12.8415 16.5505C13.0165 16.2505 13.4082 16.1589 13.6998 16.3339C13.9998 16.5089 14.0915 16.8922 13.9165 17.1922L13.6915 17.5672C15.9915 17.0255 17.7165 14.9589 17.7165 12.4922C17.7165 12.1505 17.9998 11.8672 18.3415 11.8672C18.6832 11.8672 18.9665 12.1505 18.9665 12.4922C18.9582 16.0589 16.0582 18.9589 12.4998 18.9589Z" fill="white"/>
<path d="M1.66699 8.1263C1.32533 8.1263 1.04199 7.84297 1.04199 7.5013C1.04199 3.94297 3.94199 1.04297 7.50033 1.04297C7.72533 1.04297 7.93366 1.16797 8.04199 1.35964C8.15033 1.55964 8.15033 1.79297 8.03366 1.99297L7.15866 3.4513C6.98366 3.74297 6.60033 3.84297 6.30033 3.65964C6.00866 3.48464 5.90866 3.1013 6.09199 2.8013L6.31699 2.4263C4.00866 2.96797 2.29199 5.03464 2.29199 7.5013C2.29199 7.84297 2.00866 8.1263 1.66699 8.1263Z" fill="white"/>
<path d="M12.3337 10.5263V12.9763C12.3337 15.018 11.517 15.8346 9.47533 15.8346H7.02533C4.98366 15.8346 4.16699 15.018 4.16699 12.9763V10.5263C4.16699 8.48462 4.98366 7.66797 7.02533 7.66797H9.47533C11.517 7.66797 12.3337 8.48462 12.3337 10.5263Z" fill="white"/>
<path d="M12.9748 4.16797H10.5248C8.5165 4.16797 7.6998 4.96797 7.6748 6.93464H9.47484C11.9248 6.93464 13.0582 8.0763 13.0582 10.518V12.318C15.0332 12.293 15.8248 11.4763 15.8248 9.46797V7.0263C15.8332 4.98464 15.0165 4.16797 12.9748 4.16797Z" fill="white"/>
</svg>
