<svg width="20" height="20" viewBox="0 0 20 20" fill="none" xmlns="http://www.w3.org/2000/svg">
<path d="M13.492 1.66797H6.50866C3.47533 1.66797 1.66699 3.4763 1.66699 6.50964V13.4846C1.66699 16.5263 3.47533 18.3346 6.50866 18.3346H13.4837C16.517 18.3346 18.3253 16.5263 18.3253 13.493V6.50964C18.3337 3.4763 16.5253 1.66797 13.492 1.66797ZM14.6087 8.51797L13.3003 9.8263C13.1753 9.9513 13.017 10.0096 12.8587 10.0096C12.7003 10.0096 12.542 9.9513 12.417 9.8263C12.1753 9.58464 12.1753 9.18463 12.417 8.94297L12.6337 8.7263H8.40033C7.33366 8.7263 6.45866 9.59297 6.45866 10.668C6.45866 11.743 7.32533 12.6096 8.40033 12.6096H12.5003C12.842 12.6096 13.1253 12.893 13.1253 13.2346C13.1253 13.5763 12.842 13.8596 12.5003 13.8596H8.40033C6.64199 13.8596 5.20866 12.4263 5.20866 10.668C5.20866 8.90964 6.64199 7.4763 8.40033 7.4763H12.692L12.417 7.20963C12.1753 6.96797 12.1753 6.56797 12.417 6.3263C12.6587 6.08464 13.0587 6.08464 13.3003 6.3263L14.6087 7.63464C14.8503 7.88464 14.8503 8.2763 14.6087 8.51797Z" fill="white"/>
</svg>
