<svg width="20" height="20" viewBox="0 0 20 20" fill="none" xmlns="http://www.w3.org/2000/svg">
<path d="M13.492 1.66797H6.50866C3.47533 1.66797 1.66699 3.4763 1.66699 6.50964V13.4846C1.66699 16.5263 3.47533 18.3346 6.50866 18.3346H13.4837C16.517 18.3346 18.3253 16.5263 18.3253 13.493V6.50964C18.3337 3.4763 16.5253 1.66797 13.492 1.66797ZM10.0003 15.2096C8.50866 15.2096 7.34199 14.468 6.55033 13.7346V14.3263C6.55033 14.668 6.26699 14.9513 5.92533 14.9513C5.58366 14.9513 5.30033 14.668 5.30033 14.3263V12.0346C5.30033 11.693 5.58366 11.4096 5.92533 11.4096H7.99199C8.33366 11.4096 8.61699 11.693 8.61699 12.0346C8.61699 12.3763 8.33366 12.6596 7.99199 12.6596H7.24199C7.85866 13.2763 8.81699 13.9596 10.0003 13.9596C12.1837 13.9596 13.9587 12.1846 13.9587 10.0013C13.9587 9.65964 14.242 9.3763 14.5837 9.3763C14.9253 9.3763 15.2087 9.65964 15.2087 10.0013C15.2087 12.8763 12.8753 15.2096 10.0003 15.2096ZM15.2087 7.9513C15.2087 7.9763 15.2087 8.0013 15.2087 8.01797C15.2003 8.10964 15.1753 8.19297 15.1337 8.26797C15.092 8.34297 15.0337 8.40964 14.9587 8.46797C14.9003 8.50964 14.8337 8.54297 14.7587 8.56797C14.7003 8.58464 14.642 8.59297 14.5837 8.59297H12.5587C12.217 8.59297 11.9337 8.30964 11.9337 7.96797C11.9337 7.6263 12.217 7.34297 12.5587 7.34297H13.2503C12.5837 6.7263 11.5087 6.04297 10.017 6.04297C7.83366 6.04297 6.05866 7.81797 6.05866 10.0013C6.05866 10.343 5.77533 10.6263 5.43366 10.6263C5.09199 10.6263 4.79199 10.343 4.79199 10.0013C4.79199 7.1263 7.12533 4.79297 10.0003 4.79297C11.792 4.79297 13.1087 5.56797 13.9587 6.30964V5.6763C13.9587 5.33464 14.242 5.0513 14.5837 5.0513C14.9253 5.0513 15.2087 5.33464 15.2087 5.6763V7.9513Z" fill="white"/>
</svg>
