<svg width="20" height="20" viewBox="0 0 20 20" fill="none" xmlns="http://www.w3.org/2000/svg">
<path d="M12.1253 18.6846C11.8503 18.6846 11.592 18.5013 11.517 18.218C11.4337 17.8846 11.6253 17.543 11.9587 17.4513C15.342 16.5596 17.7003 13.493 17.7003 9.99297C17.7003 5.74297 14.242 2.28464 9.99199 2.28464C6.38366 2.28464 4.01699 4.39297 2.90866 5.66797H5.35866C5.70033 5.66797 5.98366 5.9513 5.98366 6.29297C5.98366 6.63464 5.71699 6.9263 5.36699 6.9263H1.67533C1.61699 6.9263 1.55866 6.91797 1.50033 6.9013C1.42533 6.8763 1.35866 6.84297 1.30033 6.8013C1.22533 6.7513 1.16699 6.68464 1.12533 6.60964C1.08366 6.5263 1.05033 6.44297 1.04199 6.3513C1.04199 6.3263 1.04199 6.30964 1.04199 6.28464V2.5013C1.04199 2.15964 1.32533 1.8763 1.66699 1.8763C2.00866 1.8763 2.29199 2.15964 2.29199 2.5013V4.49297C3.65033 3.03464 6.20866 1.04297 10.0003 1.04297C14.942 1.04297 18.9587 5.05964 18.9587 10.0013C18.9587 14.068 16.217 17.6346 12.2837 18.668C12.2337 18.6763 12.1753 18.6846 12.1253 18.6846Z" fill="white"/>
<path d="M9.40866 18.9417C9.39199 18.9417 9.36699 18.9417 9.35033 18.9333C8.45866 18.875 7.58366 18.675 6.75033 18.35C6.50866 18.2583 6.35033 18.0167 6.35033 17.7583C6.35033 17.6833 6.36699 17.6083 6.39199 17.5417C6.51699 17.225 6.88366 17.0583 7.20033 17.1833C7.91699 17.4667 8.67533 17.6333 9.44199 17.6917H9.45033C9.78366 17.7083 10.0337 17.9917 10.0337 18.325C10.0337 18.3333 10.0337 18.35 10.0337 18.3583C10.0087 18.6833 9.73366 18.9417 9.40866 18.9417ZM4.81699 17.15C4.67533 17.15 4.54199 17.1083 4.42533 17.0167C3.72533 16.4583 3.11699 15.8 2.60866 15.0583C2.53366 14.95 2.49199 14.8333 2.49199 14.7083C2.49199 14.5 2.59199 14.3083 2.76699 14.1917C3.04199 14 3.45033 14.075 3.63366 14.35C4.07533 14.9917 4.60033 15.5583 5.20866 16.0333C5.35033 16.15 5.44199 16.325 5.44199 16.5167C5.44199 16.6583 5.40033 16.8 5.30866 16.9167C5.19199 17.0667 5.00866 17.15 4.81699 17.15ZM2.03366 13.0833C1.75866 13.0833 1.51699 12.9083 1.44199 12.65C1.17533 11.7917 1.04199 10.9 1.04199 10C1.04199 9.65833 1.32533 9.375 1.66699 9.375C2.00866 9.375 2.29199 9.65833 2.29199 10C2.29199 10.775 2.40866 11.5417 2.63366 12.275C2.65033 12.3333 2.65866 12.4 2.65866 12.4667C2.65866 12.7417 2.48366 12.975 2.22533 13.0583C2.15866 13.075 2.10033 13.0833 2.03366 13.0833Z" fill="white"/>
<path d="M10.0003 13.3346C11.8412 13.3346 13.3337 11.8422 13.3337 10.0013C13.3337 8.16035 11.8412 6.66797 10.0003 6.66797C8.15938 6.66797 6.66699 8.16035 6.66699 10.0013C6.66699 11.8422 8.15938 13.3346 10.0003 13.3346Z" fill="white"/>
</svg>
