<svg width="20" height="20" viewBox="0 0 20 20" fill="none" xmlns="http://www.w3.org/2000/svg">
<path d="M10.0003 1.66797C5.40033 1.66797 1.66699 5.4013 1.66699 10.0013C1.66699 14.6013 5.40033 18.3346 10.0003 18.3346C14.6003 18.3346 18.3337 14.6013 18.3337 10.0013C18.3337 5.4013 14.6003 1.66797 10.0003 1.66797ZM5.50033 9.35963C5.64199 8.36797 6.08366 7.4763 6.77533 6.7763C8.44199 5.11797 11.067 5.0263 12.8503 6.4763V5.68464C12.8503 5.34297 13.1337 5.05964 13.4753 5.05964C13.817 5.05964 14.1003 5.34297 14.1003 5.68464V7.90964C14.1003 8.2513 13.817 8.53464 13.4753 8.53464H11.2503C10.9087 8.53464 10.6253 8.2513 10.6253 7.90964C10.6253 7.56797 10.9087 7.28464 11.2503 7.28464H11.8753C10.5837 6.38464 8.80033 6.50963 7.65033 7.65963C7.15033 8.15963 6.83366 8.80963 6.72533 9.53463C6.68366 9.84297 6.41699 10.068 6.10866 10.068C6.07533 10.068 6.05033 10.068 6.01699 10.0596C5.69199 10.018 5.45033 9.7013 5.50033 9.35963ZM13.2253 13.2263C12.3337 14.118 11.167 14.5596 10.0003 14.5596C8.98366 14.5596 7.97533 14.2013 7.14199 13.5263V14.3096C7.14199 14.6513 6.85866 14.9346 6.51699 14.9346C6.17533 14.9346 5.89199 14.6513 5.89199 14.3096V12.0846C5.89199 11.743 6.17533 11.4596 6.51699 11.4596H8.74199C9.08366 11.4596 9.36699 11.743 9.36699 12.0846C9.36699 12.4263 9.08366 12.7096 8.74199 12.7096H8.11699C9.40866 13.6096 11.192 13.4846 12.342 12.3346C12.842 11.8346 13.1587 11.1846 13.267 10.4596C13.317 10.118 13.6253 9.8763 13.9753 9.9263C14.317 9.9763 14.5503 10.293 14.5087 10.6346C14.3587 11.643 13.917 12.5346 13.2253 13.2263Z" fill="white"/>
</svg>
