<svg width="20" height="20" viewBox="0 0 20 20" fill="none" xmlns="http://www.w3.org/2000/svg">
<path d="M13.492 1.66797H6.50866C3.47533 1.66797 1.66699 3.4763 1.66699 6.50964V13.4846C1.66699 16.5263 3.47533 18.3346 6.50866 18.3346H13.4837C16.517 18.3346 18.3253 16.5263 18.3253 13.493V6.50964C18.3337 3.4763 16.5253 1.66797 13.492 1.66797ZM10.0003 15.0096C7.35866 15.0096 5.20866 12.8596 5.20866 10.218C5.20866 9.26797 5.48366 8.34297 6.01699 7.55964C6.20866 7.26797 6.60033 7.19297 6.88366 7.38463C7.16699 7.5763 7.25033 7.96797 7.05033 8.2513C6.66699 8.83463 6.45866 9.51797 6.45866 10.218C6.45866 12.168 8.05033 13.7596 10.0003 13.7596C11.9503 13.7596 13.542 12.168 13.542 10.218C13.542 8.26797 11.9503 6.6763 10.0003 6.6763C9.84199 6.6763 9.69199 6.69297 9.53366 6.70964L10.0003 7.0513C10.2753 7.2513 10.342 7.64297 10.1337 7.9263C10.0087 8.09297 9.81699 8.18464 9.62533 8.18464C9.50033 8.18464 9.36699 8.14297 9.25866 8.06797L7.64199 6.8763C7.64199 6.8763 7.63366 6.86797 7.62533 6.85963C7.61699 6.8513 7.60866 6.8513 7.60033 6.84297C7.57533 6.8263 7.56699 6.79297 7.54199 6.76797C7.51699 6.73464 7.49199 6.70964 7.46699 6.66797C7.45033 6.63464 7.44199 6.59297 7.42533 6.55964C7.41699 6.51797 7.40033 6.48464 7.40033 6.44297C7.40033 6.4013 7.40033 6.36797 7.40866 6.3263C7.40866 6.28464 7.40866 6.2513 7.42533 6.20964C7.42533 6.16797 7.45033 6.13464 7.46699 6.09297C7.48366 6.06797 7.48366 6.03464 7.50866 6.0013C7.51699 6.0013 7.52533 5.99297 7.53366 5.98464C7.54199 5.9763 7.54199 5.96797 7.55033 5.95964L8.94199 4.36797C9.16699 4.10964 9.56699 4.0763 9.82533 4.30964C10.0837 4.53464 10.1087 4.93464 9.88366 5.19297L9.65033 5.45964C9.76699 5.4513 9.88366 5.43464 10.0087 5.43464C12.6503 5.43464 14.8003 7.58464 14.8003 10.2263C14.8003 12.868 12.642 15.0096 10.0003 15.0096Z" fill="white"/>
</svg>
