<svg width="20" height="20" viewBox="0 0 20 20" fill="none" xmlns="http://www.w3.org/2000/svg">
<path d="M13.492 1.66797H6.50866C3.47533 1.66797 1.66699 3.4763 1.66699 6.50964V13.4846C1.66699 16.5263 3.47533 18.3346 6.50866 18.3346H13.4837C16.517 18.3346 18.3253 16.5263 18.3253 13.493V6.50964C18.3337 3.4763 16.5253 1.66797 13.492 1.66797ZM4.37533 9.90964C4.40033 8.44297 4.98366 7.05964 6.01699 6.0263C7.08366 4.95964 8.50033 4.3763 10.0003 4.3763C11.5003 4.3763 12.917 4.95964 13.9753 6.0263C14.0003 6.0513 14.0253 6.08464 14.0503 6.11797V5.4013C14.0503 5.05964 14.3337 4.7763 14.6753 4.7763C15.017 4.7763 15.3003 5.05964 15.3003 5.4013V7.60964C15.3003 7.9513 15.017 8.23464 14.6753 8.23464H12.467C12.1253 8.23464 11.842 7.9513 11.842 7.60964C11.842 7.26797 12.1253 6.98464 12.467 6.98464H13.1587C13.1337 6.95964 13.117 6.93464 13.092 6.90964C12.267 6.08464 11.167 5.6263 10.0003 5.6263C8.83366 5.6263 7.73366 6.08464 6.90866 6.90964C6.10033 7.71797 5.65033 8.79297 5.63366 9.93464C5.62533 10.268 5.34199 10.543 5.00033 10.543H4.99199C4.65033 10.543 4.37533 10.2513 4.37533 9.90964ZM13.9753 13.9763C12.917 15.0346 11.5003 15.6263 10.0003 15.6263C8.50033 15.6263 7.08366 15.043 6.02533 13.9763C6.00033 13.9513 5.97533 13.918 5.95033 13.8846V14.593C5.95033 14.9346 5.66699 15.218 5.32533 15.218C4.98366 15.218 4.70033 14.9346 4.70033 14.593V12.3846C4.70033 12.043 4.98366 11.7596 5.32533 11.7596H7.53366C7.87533 11.7596 8.15866 12.043 8.15866 12.3846C8.15866 12.7263 7.87533 13.0096 7.53366 13.0096H6.84199C6.86699 13.0346 6.88366 13.0596 6.90866 13.0846C7.73366 13.9096 8.83366 14.368 10.0003 14.368C11.167 14.368 12.267 13.9096 13.092 13.0846C13.9087 12.268 14.367 11.1763 14.367 10.0096C14.367 9.66797 14.6503 9.38464 14.992 9.38464C15.3337 9.38464 15.617 9.66797 15.617 10.0096C15.617 11.518 15.0337 12.9263 13.9753 13.9763Z" fill="white"/>
</svg>
