<svg width="20" height="20" viewBox="0 0 20 20" fill="none" xmlns="http://www.w3.org/2000/svg">
<path d="M13.492 1.66797H6.50866C3.47533 1.66797 1.66699 3.4763 1.66699 6.50964V13.4846C1.66699 16.5263 3.47533 18.3346 6.50866 18.3346H13.4837C16.517 18.3346 18.3253 16.5263 18.3253 13.493V6.50964C18.3337 3.4763 16.5253 1.66797 13.492 1.66797ZM10.0003 15.0096C7.35866 15.0096 5.20866 12.8596 5.20866 10.218C5.20866 7.5763 7.35866 5.4263 10.0003 5.4263C10.117 5.4263 10.242 5.44297 10.3587 5.4513L10.1253 5.18464C9.90032 4.9263 9.92533 4.5263 10.1837 4.3013C10.442 4.0763 10.842 4.1013 11.067 4.35964L12.4587 5.9513C12.467 5.95964 12.467 5.96797 12.4753 5.9763C12.4837 5.98464 12.492 5.98464 12.492 5.99297C12.5087 6.01797 12.517 6.0513 12.5337 6.08464C12.5503 6.1263 12.5753 6.15964 12.5837 6.2013C12.592 6.24297 12.592 6.2763 12.6003 6.31797C12.6003 6.35964 12.6087 6.39297 12.6087 6.43464C12.6087 6.4763 12.592 6.50964 12.5753 6.5513C12.5587 6.59297 12.5503 6.63464 12.5337 6.66797C12.517 6.7013 12.4837 6.73464 12.4587 6.76797C12.4337 6.79297 12.4253 6.8263 12.4003 6.84297C12.392 6.8513 12.3837 6.8513 12.3753 6.85963C12.367 6.86797 12.367 6.8763 12.3587 6.8763L10.742 8.05964C10.6337 8.14297 10.5003 8.1763 10.3753 8.1763C10.1837 8.1763 9.99199 8.08464 9.86699 7.91797C9.66699 7.64297 9.72533 7.2513 10.0003 7.04297L10.467 6.7013C10.3087 6.69297 10.1587 6.6763 10.0003 6.6763C8.05033 6.6763 6.45866 8.26797 6.45866 10.218C6.45866 12.168 8.05033 13.7596 10.0003 13.7596C11.9503 13.7596 13.542 12.168 13.542 10.218C13.542 9.50964 13.3337 8.83463 12.9503 8.2513C12.7587 7.96797 12.8337 7.5763 13.1253 7.38463C13.4087 7.19297 13.8003 7.26797 13.992 7.55964C14.517 8.3513 14.8003 9.26797 14.8003 10.218C14.792 12.868 12.642 15.0096 10.0003 15.0096Z" fill="white"/>
</svg>
