<svg width="20" height="20" viewBox="0 0 20 20" fill="none" xmlns="http://www.w3.org/2000/svg">
<path d="M10.0003 1.66797C5.40033 1.66797 1.66699 5.4013 1.66699 10.0013C1.66699 14.6013 5.40033 18.3346 10.0003 18.3346C14.6003 18.3346 18.3337 14.6013 18.3337 10.0013C18.3337 5.4013 14.6003 1.66797 10.0003 1.66797ZM14.3253 13.2846C14.292 13.3596 14.2503 13.4263 14.192 13.4846L12.7837 14.893C12.6587 15.018 12.5003 15.0763 12.342 15.0763C12.1837 15.0763 12.0253 15.018 11.9003 14.893C11.6587 14.6513 11.6587 14.2513 11.9003 14.0096L12.242 13.668H7.58366C6.50033 13.668 5.62533 12.7846 5.62533 11.7096V10.2346C5.62533 9.89297 5.90866 9.60964 6.25033 9.60964C6.59199 9.60964 6.87533 9.89297 6.87533 10.2346V11.7096C6.87533 12.1013 7.19199 12.418 7.58366 12.418H12.242L11.9003 12.0763C11.6587 11.8346 11.6587 11.4346 11.9003 11.193C12.142 10.9513 12.542 10.9513 12.7837 11.193L14.192 12.6013C14.2503 12.6596 14.292 12.7263 14.3253 12.8013C14.392 12.9596 14.392 13.1346 14.3253 13.2846ZM14.3753 9.76797C14.3753 10.1096 14.092 10.393 13.7503 10.393C13.4087 10.393 13.1253 10.1096 13.1253 9.76797V8.29297C13.1253 7.9013 12.8087 7.58464 12.417 7.58464H7.75866L8.10033 7.91797C8.34199 8.15964 8.34199 8.55964 8.10033 8.8013C7.97533 8.9263 7.81699 8.98464 7.65866 8.98464C7.50033 8.98464 7.34199 8.9263 7.21699 8.8013L5.80866 7.39297C5.75033 7.33464 5.70866 7.26797 5.67533 7.19297C5.60866 7.04297 5.60866 6.86797 5.67533 6.71797C5.70866 6.64297 5.75033 6.56797 5.80866 6.50964L7.21699 5.1013C7.45866 4.85964 7.85866 4.85964 8.10033 5.1013C8.34199 5.34297 8.34199 5.74297 8.10033 5.98464L7.75866 6.3263H12.417C13.5003 6.3263 14.3753 7.20963 14.3753 8.28463V9.76797Z" fill="white"/>
</svg>
