<svg width="20" height="20" viewBox="0 0 20 20" fill="none" xmlns="http://www.w3.org/2000/svg">
<path d="M3.25866 14.3178C3.10033 14.3178 2.94199 14.2595 2.81699 14.1345C1.67533 12.9845 1.04199 11.4678 1.04199 9.85946C1.04199 6.51783 3.75033 3.80116 7.08366 3.80116L12.142 3.81783L11.2337 2.95116C10.9837 2.70949 10.9753 2.31783 11.217 2.06783C11.4587 1.81783 11.8503 1.80949 12.1003 2.05116L14.1337 4.00116C14.317 4.17616 14.3753 4.45116 14.2837 4.68449C14.192 4.91783 13.9587 5.07616 13.7003 5.07616L7.08366 5.05949C4.44199 5.05949 2.29199 7.21783 2.29199 9.86779C2.29199 11.1428 2.79199 12.3511 3.70033 13.2595C3.94199 13.5011 3.94199 13.9011 3.70033 14.1428C3.57533 14.2595 3.41699 14.3178 3.25866 14.3178Z" fill="white"/>
<path d="M8.33325 18.1237C8.17492 18.1237 8.02492 18.0654 7.89992 17.9487L5.86658 15.9987C5.68325 15.8237 5.62492 15.5487 5.71658 15.3154C5.80825 15.082 6.04158 14.9237 6.29992 14.9237L12.9249 14.9404C15.5666 14.9404 17.7166 12.782 17.7166 10.132C17.7166 8.85703 17.2166 7.6487 16.3083 6.74036C16.0666 6.4987 16.0666 6.0987 16.3083 5.85703C16.5499 5.61536 16.9499 5.61536 17.1916 5.85703C18.3333 7.00703 18.9666 8.5237 18.9666 10.132C18.9666 13.4737 16.2583 16.1904 12.9249 16.1904L7.86658 16.1737L8.77492 17.0404C9.02492 17.282 9.03325 17.6737 8.79158 17.9237C8.65825 18.057 8.49992 18.1237 8.33325 18.1237Z" fill="white"/>
<path d="M7.49967 12.9154H12.4997C14.0997 12.9154 15.4163 11.607 15.4163 9.9987C15.4163 8.3987 14.108 7.08203 12.4997 7.08203H7.49967C5.89967 7.08203 4.58301 8.39036 4.58301 9.9987C4.58301 11.607 5.89134 12.9154 7.49967 12.9154Z" fill="white"/>
</svg>
