<svg width="20" height="20" viewBox="0 0 20 20" fill="none" xmlns="http://www.w3.org/2000/svg">
<path d="M14.5167 3.67422H4.49173L6.0584 2.10755C6.30007 1.86589 6.30007 1.46589 6.0584 1.22422C5.81673 0.982552 5.41673 0.982552 5.17507 1.22422L2.54173 3.85755C2.4834 3.91589 2.44173 3.98255 2.4084 4.05755C2.37507 4.13255 2.3584 4.21589 2.3584 4.29922C2.3584 4.38255 2.37507 4.46589 2.4084 4.54089C2.44173 4.61589 2.4834 4.68255 2.54173 4.74089L5.17507 7.37422C5.30007 7.49922 5.4584 7.55755 5.61673 7.55755C5.77506 7.55755 5.9334 7.49922 6.0584 7.37422C6.30007 7.13255 6.30007 6.73255 6.0584 6.49089L4.49173 4.92422H14.5167C15.5501 4.92422 16.3917 5.76589 16.3917 6.79922V9.56593C16.3917 9.90759 16.6751 10.1909 17.0167 10.1909C17.3584 10.1909 17.6417 9.90759 17.6417 9.56593V6.79922C17.6417 5.07422 16.2417 3.67422 14.5167 3.67422Z" fill="white"/>
<path d="M17.6417 15.7003C17.6417 15.6169 17.6251 15.5336 17.5917 15.4586C17.5584 15.3836 17.5167 15.3169 17.4584 15.2586L14.8251 12.6253C14.5834 12.3836 14.1834 12.3836 13.9417 12.6253C13.7001 12.8669 13.7001 13.2669 13.9417 13.5086L15.5084 15.0753H5.4834C4.45007 15.0753 3.6084 14.2336 3.6084 13.2003V10.4336C3.6084 10.0919 3.32507 9.80859 2.9834 9.80859C2.64173 9.80859 2.3584 10.0919 2.3584 10.4336V13.2003C2.3584 14.9253 3.7584 16.3253 5.4834 16.3253H15.5084L13.9417 17.8919C13.7001 18.1336 13.7001 18.5336 13.9417 18.7753C14.0667 18.9003 14.2251 18.9586 14.3834 18.9586C14.5417 18.9586 14.7001 18.9003 14.8251 18.7753L17.4584 16.1419C17.5167 16.0836 17.5584 16.0169 17.5917 15.9419C17.6251 15.8669 17.6417 15.7836 17.6417 15.7003Z" fill="white"/>
</svg>
