<svg width="20" height="20" viewBox="0 0 20 20" fill="none" xmlns="http://www.w3.org/2000/svg">
<path d="M18.3082 15.0013V15.8346C18.3082 17.2096 18.3082 18.3346 15.8082 18.3346H4.1416C1.6416 18.3346 1.6416 17.2096 1.6416 15.8346V15.0013C1.6416 14.543 2.0166 14.168 2.47493 14.168H17.4749C17.9332 14.168 18.3082 14.543 18.3082 15.0013Z" fill="white"/>
<path d="M12.0079 4.31452C12.0496 4.14786 12.0746 3.98952 12.0829 3.81452C12.1079 2.84786 11.5163 1.99786 10.5829 1.74786C9.18292 1.36452 7.91628 2.41452 7.91628 3.74786C7.91628 3.94786 7.94128 4.13119 7.99128 4.31452C4.98294 4.95619 2.72461 7.63119 2.72461 10.8312V12.0812C2.72461 12.5395 3.09961 12.9145 3.55794 12.9145H16.4329C16.8913 12.9145 17.2663 12.5395 17.2663 12.0812V10.8312C17.2663 7.63119 15.0163 4.96452 12.0079 4.31452ZM12.4996 9.78955H7.49961C7.15794 9.78955 6.87461 9.50621 6.87461 9.16455C6.87461 8.82288 7.15794 8.53955 7.49961 8.53955H12.4996C12.8413 8.53955 13.1246 8.82288 13.1246 9.16455C13.1246 9.50621 12.8413 9.78955 12.4996 9.78955Z" fill="white"/>
</svg>
