<svg width="20" height="20" viewBox="0 0 20 20" fill="none" xmlns="http://www.w3.org/2000/svg">
<path d="M13.958 18.332H10.208C7.08301 18.332 5.83301 17.082 5.83301 13.957V10.207C5.83301 7.08203 7.08301 5.83203 10.208 5.83203H13.958C17.083 5.83203 18.333 7.08203 18.333 10.207V13.957C18.333 17.082 17.083 18.332 13.958 18.332Z" fill="white"/>
<path d="M2.29199 8.7513C2.63366 8.7513 2.91699 8.46797 2.91699 8.1263C2.91699 5.65964 4.63366 3.59297 6.94199 3.0513L6.71699 3.4263C6.54199 3.7263 6.63366 4.10964 6.93366 4.28464C7.23366 4.45964 7.61699 4.36797 7.79199 4.06797L8.66699 2.60964C8.78366 2.41797 8.78366 2.1763 8.67533 1.98464C8.55866 1.79297 8.35033 1.66797 8.12533 1.66797C4.56699 1.66797 1.66699 4.56797 1.66699 8.1263C1.66699 8.46797 1.95033 8.7513 2.29199 8.7513Z" fill="white"/>
</svg>
