<svg width="20" height="20" viewBox="0 0 20 20" fill="none" xmlns="http://www.w3.org/2000/svg">
<path d="M12.4998 18.9589C12.2748 18.9589 12.0665 18.8339 11.9582 18.6422C11.8498 18.4422 11.8498 18.2089 11.9665 18.0089L12.8415 16.5505C13.0165 16.2589 13.3998 16.1589 13.6998 16.3339C13.9998 16.5089 14.0915 16.8922 13.9165 17.1922L13.6915 17.5672C15.9915 17.0255 17.7165 14.9589 17.7165 12.4922C17.7165 12.1505 17.9998 11.8672 18.3415 11.8672C18.6832 11.8672 18.9665 12.1505 18.9665 12.4922C18.9582 16.0589 16.0582 18.9589 12.4998 18.9589Z" fill="white"/>
<path d="M1.66699 8.1263C1.32533 8.1263 1.04199 7.84297 1.04199 7.5013C1.04199 3.94297 3.94199 1.04297 7.50033 1.04297C7.72533 1.04297 7.93366 1.16797 8.04199 1.35964C8.15033 1.55964 8.15033 1.79297 8.03366 1.99297L7.15866 3.4513C6.98366 3.74297 6.60033 3.84297 6.30033 3.65964C6.00866 3.48464 5.90866 3.1013 6.09199 2.8013L6.31699 2.4263C4.00866 2.96797 2.29199 5.03464 2.29199 7.5013C2.29199 7.84297 2.00866 8.1263 1.66699 8.1263Z" fill="white"/>
<path d="M13.6668 6.84245L10.5335 5.15078C10.2002 4.97578 9.8085 4.97578 9.47516 5.15078L6.33346 6.84245C6.10846 6.96745 5.9668 7.20911 5.9668 7.47578C5.9668 7.75078 6.10846 7.99245 6.33346 8.11745L9.46683 9.80908C9.6335 9.90075 9.81683 9.94241 10.0002 9.94241C10.1835 9.94241 10.3668 9.90075 10.5335 9.80908L13.6668 8.11745C13.8918 7.99245 14.0335 7.75078 14.0335 7.47578C14.0335 7.20911 13.8918 6.96745 13.6668 6.84245Z" fill="white"/>
<path d="M8.95 10.3923L6.03333 8.93401C5.80833 8.82567 5.55 8.83401 5.33333 8.96734C5.125 9.10067 5 9.32567 5 9.57567V12.334C5 12.809 5.26667 13.2423 5.69167 13.4507L8.60833 14.909C8.70833 14.959 8.81667 14.984 8.93333 14.984C9.06667 14.984 9.19167 14.9507 9.30833 14.8757C9.525 14.7423 9.65 14.5173 9.65 14.2673V11.509C9.64167 11.034 9.38333 10.609 8.95 10.3923Z" fill="white"/>
<path d="M14.6579 8.96734C14.4413 8.83401 14.1829 8.82567 13.9579 8.93401L11.0413 10.3923C10.6163 10.609 10.3496 11.034 10.3496 11.509V14.2673C10.3496 14.5173 10.4746 14.7423 10.6913 14.8757C10.8079 14.9507 10.9329 14.984 11.0663 14.984C11.1746 14.984 11.2829 14.959 11.3913 14.909L14.3079 13.4507C14.7329 13.234 14.9996 12.809 14.9996 12.334V9.57567C14.9996 9.32567 14.8746 9.10067 14.6579 8.96734Z" fill="white"/>
</svg>
