<svg width="20" height="20" viewBox="0 0 20 20" fill="none" xmlns="http://www.w3.org/2000/svg">
<path d="M13.492 1.66797H6.50866C3.47533 1.66797 1.66699 3.4763 1.66699 6.50964V13.4846C1.66699 16.5263 3.47533 18.3346 6.50866 18.3346H13.4837C16.517 18.3346 18.3253 16.5263 18.3253 13.493V6.50964C18.3337 3.4763 16.5253 1.66797 13.492 1.66797ZM10.0003 15.4846C7.35866 15.4846 5.20866 13.3346 5.20866 10.693C5.20866 8.1013 7.27533 5.99297 9.84199 5.9013L9.53366 5.54297C9.30866 5.28464 9.33366 4.88464 9.59199 4.65964C9.85033 4.43464 10.2503 4.45964 10.4753 4.71797L11.8587 6.3013C11.8753 6.31797 11.8837 6.33464 11.9003 6.3513C11.9337 6.4013 11.967 6.45964 11.9837 6.51797C11.992 6.5513 12.0003 6.58464 12.0087 6.61797C12.0253 6.69297 12.017 6.7763 12.0003 6.8513C11.9837 6.91797 11.9587 6.98464 11.9253 7.0513C11.917 7.06797 11.9003 7.08464 11.892 7.1013C11.8587 7.1513 11.8087 7.19297 11.7587 7.2263C11.7587 7.2263 11.7503 7.2263 11.7503 7.23464L10.1337 8.41797C9.85033 8.61797 9.46699 8.55963 9.25866 8.28463C9.05866 8.00963 9.11699 7.61797 9.39199 7.40964L9.73366 7.15964C7.90033 7.29297 6.45033 8.8263 6.45033 10.693C6.45033 12.643 8.04199 14.2346 9.99199 14.2346C11.942 14.2346 13.5337 12.643 13.5337 10.693C13.5337 9.99297 13.3253 9.30964 12.942 8.7263C12.7503 8.44297 12.8253 8.0513 13.117 7.85964C13.4087 7.66797 13.792 7.74297 13.9837 8.03464C14.5087 8.8263 14.792 9.74297 14.792 10.693C14.792 13.3346 12.642 15.4846 10.0003 15.4846Z" fill="white"/>
</svg>
