<svg width="20" height="20" viewBox="0 0 20 20" fill="none" xmlns="http://www.w3.org/2000/svg">
<path d="M6.04199 18.332H9.79199C12.917 18.332 14.167 17.082 14.167 13.957V10.207C14.167 7.08203 12.917 5.83203 9.79199 5.83203H6.04199C2.91699 5.83203 1.66699 7.08203 1.66699 10.207V13.957C1.66699 17.082 2.91699 18.332 6.04199 18.332Z" fill="white"/>
<path d="M17.7087 8.7513C17.367 8.7513 17.0837 8.46797 17.0837 8.1263C17.0837 5.65964 15.367 3.59297 13.0587 3.0513L13.2837 3.4263C13.4587 3.7263 13.367 4.10964 13.067 4.28464C12.767 4.45964 12.3837 4.36797 12.2087 4.06797L11.3337 2.60964C11.217 2.41797 11.217 2.1763 11.3254 1.98464C11.442 1.79297 11.6504 1.66797 11.8754 1.66797C15.4337 1.66797 18.3337 4.56797 18.3337 8.1263C18.3337 8.46797 18.0504 8.7513 17.7087 8.7513Z" fill="white"/>
</svg>
