<svg width="20" height="20" viewBox="0 0 20 20" fill="none" xmlns="http://www.w3.org/2000/svg">
<path d="M13.492 1.66797H6.50866C3.47533 1.66797 1.66699 3.4763 1.66699 6.50964V13.4846C1.66699 16.5263 3.47533 18.3346 6.50866 18.3346H13.4837C16.517 18.3346 18.3253 16.5263 18.3253 13.493V6.50964C18.3337 3.4763 16.5253 1.66797 13.492 1.66797ZM10.0003 15.4846C7.35866 15.4846 5.20866 13.3346 5.20866 10.693C5.20866 9.74297 5.48366 8.81797 6.01699 8.03464C6.20866 7.7513 6.60033 7.66797 6.88366 7.85964C7.16699 8.0513 7.25033 8.44297 7.05866 8.7263C6.66699 9.30964 6.46699 9.99297 6.46699 10.693C6.46699 12.643 8.05866 14.2346 10.0087 14.2346C11.9587 14.2346 13.5503 12.643 13.5503 10.693C13.5503 8.8263 12.1003 7.29297 10.267 7.15964L10.6087 7.40964C10.8837 7.60964 10.9503 8.0013 10.742 8.28463C10.542 8.55963 10.1503 8.6263 9.86699 8.41797L8.25033 7.24297C8.19199 7.2013 8.14199 7.1513 8.10033 7.09297C8.09199 7.08464 8.08366 7.0763 8.07533 7.05964C8.04199 7.0013 8.01699 6.93464 8.00033 6.86797C7.98366 6.78464 7.98366 6.70964 7.99199 6.6263C8.00033 6.59297 8.00866 6.55964 8.01699 6.5263C8.03366 6.46797 8.06699 6.41797 8.10033 6.35964C8.11699 6.3513 8.13366 6.33464 8.15033 6.31797L9.53366 4.73464C9.75866 4.4763 10.1587 4.4513 10.417 4.6763C10.6753 4.9013 10.7003 5.3013 10.4753 5.55964L10.167 5.91797C12.7337 6.0013 14.8003 8.11797 14.8003 10.7096C14.792 13.3346 12.642 15.4846 10.0003 15.4846Z" fill="white"/>
</svg>
