<svg width="20" height="20" viewBox="0 0 20 20" fill="none" xmlns="http://www.w3.org/2000/svg">
<path d="M7.40035 3.83359C6.73369 0.950261 2.39201 0.941928 1.72535 3.83359C1.33368 5.52526 2.40869 6.9586 3.34202 7.85026C4.02535 8.49193 5.10035 8.49193 5.78369 7.85026C6.71702 6.9586 7.78369 5.52526 7.40035 3.83359ZM4.59202 5.16693C4.13369 5.16693 3.75869 4.79193 3.75869 4.33359C3.75869 3.87526 4.12535 3.50026 4.58369 3.50026H4.59202C5.05869 3.50026 5.42535 3.87526 5.42535 4.33359C5.42535 4.79193 5.05869 5.16693 4.59202 5.16693Z" fill="white"/>
<path d="M18.2583 13.8336C17.5917 10.9503 13.2333 10.9419 12.5583 13.8336C12.1667 15.5253 13.2417 16.9586 14.1833 17.8503C14.8667 18.4919 15.95 18.4919 16.6333 17.8503C17.575 16.9586 18.65 15.5253 18.2583 13.8336ZM15.4417 15.1669C14.9833 15.1669 14.6083 14.7919 14.6083 14.3336C14.6083 13.8753 14.975 13.5003 15.4333 13.5003H15.4417C15.9 13.5003 16.275 13.8753 16.275 14.3336C16.275 14.7919 15.9 15.1669 15.4417 15.1669Z" fill="white"/>
<path d="M9.99959 16.4596H7.76621C6.79954 16.4596 5.95788 15.8763 5.62454 14.9763C5.28288 14.0763 5.53288 13.0846 6.25788 12.443L12.9163 6.61797C13.3163 6.26797 13.3246 5.79297 13.2079 5.46797C13.0829 5.14297 12.7663 4.79297 12.2329 4.79297H9.99959C9.65792 4.79297 9.37459 4.50964 9.37459 4.16797C9.37459 3.8263 9.65792 3.54297 9.99959 3.54297H12.2329C13.1996 3.54297 14.0413 4.1263 14.3746 5.0263C14.7163 5.9263 14.4663 6.91797 13.7413 7.55964L7.08288 13.3846C6.68288 13.7346 6.67454 14.2096 6.79121 14.5346C6.91621 14.8596 7.23288 15.2096 7.76621 15.2096H9.99959C10.3413 15.2096 10.6246 15.493 10.6246 15.8346C10.6246 16.1763 10.3413 16.4596 9.99959 16.4596Z" fill="white"/>
</svg>
