<svg width="20" height="20" viewBox="0 0 20 20" fill="none" xmlns="http://www.w3.org/2000/svg">
<path d="M13.492 1.66797H6.50866C3.47533 1.66797 1.66699 3.4763 1.66699 6.50964V13.4846C1.66699 16.5263 3.47533 18.3346 6.50866 18.3346H13.4837C16.517 18.3346 18.3253 16.5263 18.3253 13.493V6.50964C18.3337 3.4763 16.5253 1.66797 13.492 1.66797ZM14.4587 7.54297L12.5087 13.8263C12.042 15.318 9.95033 15.343 9.45866 13.8596L8.87533 12.1346C8.71699 11.6596 8.34199 11.2763 7.86699 11.1263L6.13366 10.543C4.66699 10.0513 4.68366 7.94297 6.17533 7.49297L12.4587 5.53464C13.692 5.15964 14.8503 6.31797 14.4587 7.54297Z" fill="white"/>
</svg>
