<svg width="20" height="20" viewBox="0 0 20 20" fill="none" xmlns="http://www.w3.org/2000/svg">
<path d="M9.99959 16.4596H7.76621C6.79954 16.4596 5.95788 15.8763 5.62454 14.9763C5.28288 14.0763 5.53288 13.0846 6.25788 12.443L12.9163 6.61797C13.3163 6.26797 13.3246 5.79297 13.2079 5.46797C13.0829 5.14297 12.7663 4.79297 12.2329 4.79297H9.99959C9.65792 4.79297 9.37459 4.50964 9.37459 4.16797C9.37459 3.8263 9.65792 3.54297 9.99959 3.54297H12.2329C13.1996 3.54297 14.0413 4.1263 14.3746 5.0263C14.7163 5.9263 14.4663 6.91797 13.7413 7.55964L7.08288 13.3846C6.68288 13.7346 6.67454 14.2096 6.79121 14.5346C6.91621 14.8596 7.23288 15.2096 7.76621 15.2096H9.99959C10.3413 15.2096 10.6246 15.493 10.6246 15.8346C10.6246 16.1763 10.3413 16.4596 9.99959 16.4596Z" fill="white"/>
<path d="M16.6667 12.5H14.1667C13.25 12.5 12.5 13.25 12.5 14.1667V16.6667C12.5 17.5833 13.25 18.3333 14.1667 18.3333H16.6667C17.5833 18.3333 18.3333 17.5833 18.3333 16.6667V14.1667C18.3333 13.25 17.5833 12.5 16.6667 12.5ZM15.425 16.25C14.9667 16.25 14.5917 15.875 14.5917 15.4167C14.5917 14.9583 14.9583 14.5833 15.425 14.5833H15.4333C15.8917 14.5833 16.2667 14.9583 16.2667 15.4167C16.2667 15.875 15.8917 16.25 15.425 16.25Z" fill="white"/>
<path d="M4.55827 1.66797C2.94994 1.66797 1.6416 2.9763 1.6416 4.58464C1.6416 6.19297 2.94994 7.5013 4.55827 7.5013C6.1666 7.5013 7.47494 6.19297 7.47494 4.58464C7.47494 2.9763 6.17494 1.66797 4.55827 1.66797ZM4.5916 5.41797C4.13327 5.41797 3.75827 5.04297 3.75827 4.58464C3.75827 4.1263 4.12493 3.7513 4.5916 3.7513H4.59994C5.05827 3.7513 5.43327 4.1263 5.43327 4.58464C5.43327 5.04297 5.05827 5.41797 4.5916 5.41797Z" fill="white"/>
</svg>
