<svg width="20" height="20" viewBox="0 0 20 20" fill="none" xmlns="http://www.w3.org/2000/svg">
<path d="M15.391 1.66797H12.0576C10.8136 1.66797 9.78528 2.73948 9.59078 3.96134C9.55462 4.18859 9.7442 4.3763 9.97428 4.3763H13.7243C14.066 4.3763 14.3493 4.65964 14.3493 5.0013C14.3493 5.34297 14.066 5.6263 13.7243 5.6263H9.97428C9.7442 5.6263 9.55762 5.81285 9.55762 6.04297V7.29297C9.55762 7.52309 9.7442 7.70964 9.97428 7.70964H11.8993C12.241 7.70964 12.5243 7.99297 12.5243 8.33464C12.5243 8.6763 12.241 8.95964 11.8993 8.95964H9.97428C9.7442 8.95964 9.55762 9.14622 9.55762 9.3763V10.5888C9.55762 10.8173 9.74162 11.0031 9.97012 11.0054L13.7243 11.043C14.0743 11.043 14.3493 11.3263 14.3493 11.6763C14.341 12.018 14.066 12.293 13.7243 12.293C13.716 12.293 13.716 12.293 13.716 12.293L9.97845 12.2556C9.7467 12.2532 9.55762 12.4404 9.55762 12.6721V13.9596C9.55762 14.1897 9.7442 14.3763 9.97428 14.3763H12.8076C13.1576 14.3763 13.4326 14.6596 13.4326 15.0013C13.4326 15.343 13.1576 15.6263 12.8076 15.6263H9.97428C9.7442 15.6263 9.55462 15.8141 9.59078 16.0413C9.78528 17.2631 10.8136 18.3346 12.0576 18.3346H15.391C16.766 18.3346 17.891 17.218 17.891 15.8346V4.16797C17.891 2.78464 16.766 1.66797 15.391 1.66797Z" fill="white"/>
<path d="M7.0334 4.1263V4.79297C7.0334 5.02309 6.84686 5.20964 6.61673 5.20964H2.52507C2.29495 5.20964 2.1084 5.02309 2.1084 4.79297V4.1263C2.1084 2.7763 3.21673 1.66797 4.57507 1.66797C5.92507 1.66797 7.0334 2.7763 7.0334 4.1263Z" fill="white"/>
<path d="M2.1084 14.9237C2.1084 15.2987 2.26673 15.8737 2.46673 16.1904L3.14173 17.3237C3.9334 18.6404 5.21673 18.6404 6.00007 17.3237L6.6834 16.1904C6.87507 15.8737 7.0334 15.2987 7.0334 14.9237V6.8737C7.0334 6.64358 6.84686 6.45703 6.61673 6.45703H2.52507C2.29495 6.45703 2.1084 6.64358 2.1084 6.8737V14.9237Z" fill="white"/>
</svg>
