<svg width="20" height="20" viewBox="0 0 20 20" fill="none" xmlns="http://www.w3.org/2000/svg">
<path d="M15.8337 5.83203C15.717 5.83203 15.6253 5.9237 15.6253 6.04036V9.9987C15.6253 10.3404 15.342 10.6237 15.0003 10.6237C14.6587 10.6237 14.3753 10.3404 14.3753 9.9987V6.04036C14.3753 5.9237 14.2837 5.83203 14.167 5.83203H12.5003C12.3837 5.83203 12.292 5.9237 12.292 6.04036V7.9987C12.292 8.34036 12.0087 8.6237 11.667 8.6237C11.3253 8.6237 11.042 8.34036 11.042 7.9987V6.04036C11.042 5.9237 10.9503 5.83203 10.8337 5.83203H9.20033C9.08366 5.83203 8.99199 5.9237 8.99199 6.04036L8.95866 10.007C8.95866 10.3487 8.67533 10.6237 8.33366 10.6237C8.33366 10.6237 8.33366 10.6237 8.32533 10.6237C7.98366 10.6237 7.70866 10.3404 7.70866 9.99036L7.74199 6.04036C7.74199 5.9237 7.65033 5.83203 7.53366 5.83203H5.83366C5.71699 5.83203 5.62533 5.9237 5.62533 6.04036V8.9987C5.62533 9.34036 5.34199 9.6237 5.00033 9.6237C4.65866 9.6237 4.37533 9.34036 4.37533 8.9987V6.04036C4.37533 5.9237 4.28366 5.83203 4.16699 5.83203C2.78366 5.83203 1.66699 6.9487 1.66699 8.33203V11.6654C1.66699 13.0487 2.78366 14.1654 4.16699 14.1654H15.8337C17.217 14.1654 18.3337 13.0487 18.3337 11.6654V8.33203C18.3337 6.9487 17.217 5.83203 15.8337 5.83203Z" fill="white"/>
</svg>
