<svg width="20" height="20" viewBox="0 0 20 20" fill="none" xmlns="http://www.w3.org/2000/svg">
<path d="M19.1662 12.8089V14.6339C19.1662 16.6672 17.6829 18.5839 15.6662 19.1422C15.5245 19.1755 15.3745 19.1755 15.2412 19.1422C14.2579 18.8755 13.3912 18.2755 12.7829 17.5005C12.1245 16.6839 11.7412 15.6755 11.7412 14.6339V12.8089C11.7412 12.4589 11.9995 12.0755 12.3162 11.9422L14.6329 10.9922C15.1579 10.7839 15.7412 10.7839 16.2662 10.9922L17.0995 11.3339L18.5912 11.9422C18.9079 12.0755 19.1662 12.4589 19.1662 12.8089Z" fill="white"/>
<path d="M17.4587 9.17344L17.3087 10.0651L16.7254 9.83178C15.9004 9.49844 15.0004 9.49844 14.1587 9.83178L11.8337 10.7901C11.0421 11.1234 10.4921 11.9484 10.4921 12.8068V14.6318C10.4921 15.6234 10.7671 16.6151 11.2754 17.4984H5.1504C4.00873 17.4984 2.93373 16.5901 2.74206 15.4651L1.69206 9.17344C1.55873 8.39844 1.9504 7.35678 2.56706 6.86511L8.0504 2.48178C8.89208 1.80678 10.2587 1.80678 11.1004 2.49011L16.5837 6.86511C17.1921 7.35678 17.5921 8.39844 17.4587 9.17344Z" fill="white"/>
</svg>
