<svg width="20" height="20" viewBox="0 0 20 20" fill="none" xmlns="http://www.w3.org/2000/svg">
<path d="M18.0748 2.25833C18.0082 2.10833 17.8915 1.98333 17.7332 1.91667C17.6582 1.89167 17.5832 1.875 17.4998 1.875H9.99984C9.65817 1.875 9.37484 2.15833 9.37484 2.5C9.37484 2.84167 9.65817 3.125 9.99984 3.125H15.9915L2.0582 17.0583C1.81654 17.3 1.81654 17.7 2.0582 17.9417C2.1832 18.0667 2.34154 18.125 2.49987 18.125C2.6582 18.125 2.81654 18.0667 2.94154 17.9417L16.8748 4.00833V10C16.8748 10.3417 17.1582 10.625 17.4998 10.625C17.8415 10.625 18.1248 10.3417 18.1248 10V2.5C18.1248 2.41667 18.1082 2.34167 18.0748 2.25833Z" fill="white"/>
<path d="M14.4998 15.1229C14.3415 15.1229 14.1832 15.0646 14.0582 14.9396L5.0582 5.93958C4.81654 5.69792 4.81654 5.29792 5.0582 5.05625C5.29987 4.81458 5.69987 4.81458 5.94154 5.05625L14.9415 14.0563C15.1832 14.298 15.1832 14.698 14.9415 14.9396C14.8165 15.0646 14.6582 15.1229 14.4998 15.1229Z" fill="white"/>
</svg>
