<svg width="20" height="20" viewBox="0 0 20 20" fill="none" xmlns="http://www.w3.org/2000/svg">
<path d="M18.3328 4.25964V13.7263C18.3328 14.9346 17.4662 15.443 16.4078 14.8596L14.7995 13.9596C14.6662 13.8846 14.5828 13.743 14.5828 13.593V7.49297C14.5828 5.3763 12.8578 3.6513 10.7412 3.6513H7.34954C7.04121 3.6513 6.82454 3.3263 6.96621 3.05964C7.39954 2.23464 8.26621 1.66797 9.25784 1.66797H15.7412C17.1662 1.66797 18.3328 2.83464 18.3328 4.25964Z" fill="white"/>
<path d="M10.742 4.90234H4.25866C2.83366 4.90234 1.66699 6.06901 1.66699 7.49401V16.9607C1.66699 18.169 2.53366 18.6774 3.59199 18.094L6.86699 16.269C7.21699 16.0774 7.78366 16.0774 8.13366 16.269L11.4087 18.094C12.467 18.6774 13.3337 18.169 13.3337 16.9607V7.49401C13.3337 6.06901 12.167 4.90234 10.742 4.90234ZM9.11699 10.7357C9.35866 10.9774 9.35866 11.3774 9.11699 11.619C8.99199 11.744 8.83366 11.8024 8.67533 11.8024C8.51699 11.8024 8.35866 11.744 8.23366 11.619L7.50033 10.8857L6.76699 11.619C6.64199 11.744 6.48366 11.8024 6.32533 11.8024C6.16699 11.8024 6.00866 11.744 5.88366 11.619C5.64199 11.3774 5.64199 10.9774 5.88366 10.7357L6.61699 10.0024L5.88366 9.26904C5.64199 9.02738 5.64199 8.62738 5.88366 8.38571C6.12533 8.14401 6.52533 8.14401 6.76699 8.38571L7.50033 9.11904L8.23366 8.38571C8.47533 8.14401 8.87533 8.14401 9.11699 8.38571C9.35866 8.62738 9.35866 9.02738 9.11699 9.26904L8.38366 10.0024L9.11699 10.7357Z" fill="white"/>
</svg>
