<svg width="20" height="20" viewBox="0 0 20 20" fill="none" xmlns="http://www.w3.org/2000/svg">
<path d="M18.3328 4.25964V13.7263C18.3328 14.9346 17.4662 15.443 16.4078 14.8596L14.7995 13.9596C14.6662 13.8846 14.5828 13.743 14.5828 13.593V7.49297C14.5828 5.3763 12.8578 3.6513 10.7412 3.6513H7.34954C7.04121 3.6513 6.82454 3.3263 6.96621 3.05964C7.39954 2.23464 8.26621 1.66797 9.25784 1.66797H15.7412C17.1662 1.66797 18.3328 2.83464 18.3328 4.25964Z" fill="white"/>
<path d="M10.742 4.90234H4.25866C2.83366 4.90234 1.66699 6.06901 1.66699 7.49401V16.9607C1.66699 18.169 2.53366 18.6774 3.59199 18.094L6.86699 16.269C7.21699 16.0774 7.78366 16.0774 8.13366 16.269L11.4087 18.094C12.467 18.6774 13.3337 18.169 13.3337 16.9607V7.49401C13.3337 6.06901 12.167 4.90234 10.742 4.90234ZM9.16699 10.6274H8.12533V11.669C8.12533 12.0107 7.84199 12.294 7.50033 12.294C7.15866 12.294 6.87533 12.0107 6.87533 11.669V10.6274H5.83366C5.49199 10.6274 5.20866 10.344 5.20866 10.0024C5.20866 9.66071 5.49199 9.37738 5.83366 9.37738H6.87533V8.33571C6.87533 7.99401 7.15866 7.71068 7.50033 7.71068C7.84199 7.71068 8.12533 7.99401 8.12533 8.33571V9.37738H9.16699C9.50866 9.37738 9.79199 9.66071 9.79199 10.0024C9.79199 10.344 9.50866 10.6274 9.16699 10.6274Z" fill="white"/>
</svg>
