<svg width="20" height="20" viewBox="0 0 20 20" fill="none" xmlns="http://www.w3.org/2000/svg">
<path d="M1.66699 8.1263C1.32533 8.1263 1.04199 7.84297 1.04199 7.5013V5.41797C1.04199 3.0013 3.00866 1.04297 5.41699 1.04297H7.50033C7.84199 1.04297 8.12533 1.3263 8.12533 1.66797C8.12533 2.00964 7.84199 2.29297 7.50033 2.29297H5.41699C3.69199 2.29297 2.29199 3.69297 2.29199 5.41797V7.5013C2.29199 7.84297 2.00866 8.1263 1.66699 8.1263Z" fill="white"/>
<path d="M18.3333 8.1263C17.9917 8.1263 17.7083 7.84297 17.7083 7.5013V5.41797C17.7083 3.69297 16.3083 2.29297 14.5833 2.29297H12.5C12.1583 2.29297 11.875 2.00964 11.875 1.66797C11.875 1.3263 12.1583 1.04297 12.5 1.04297H14.5833C16.9917 1.04297 18.9583 3.0013 18.9583 5.41797V7.5013C18.9583 7.84297 18.675 8.1263 18.3333 8.1263Z" fill="white"/>
<path d="M14.583 18.957H13.333C12.9913 18.957 12.708 18.6737 12.708 18.332C12.708 17.9904 12.9913 17.707 13.333 17.707H14.583C16.308 17.707 17.708 16.307 17.708 14.582V13.332C17.708 12.9904 17.9913 12.707 18.333 12.707C18.6747 12.707 18.958 12.9904 18.958 13.332V14.582C18.958 16.9987 16.9913 18.957 14.583 18.957Z" fill="white"/>
<path d="M7.50033 18.9583H5.41699C3.00866 18.9583 1.04199 17 1.04199 14.5833V12.5C1.04199 12.1583 1.32533 11.875 1.66699 11.875C2.00866 11.875 2.29199 12.1583 2.29199 12.5V14.5833C2.29199 16.3083 3.69199 17.7083 5.41699 17.7083H7.50033C7.84199 17.7083 8.12533 17.9917 8.12533 18.3333C8.12533 18.675 7.84199 18.9583 7.50033 18.9583Z" fill="white"/>
<path d="M7.08359 9.48356C8.40908 9.48356 9.48358 8.40906 9.48358 7.08359C9.48358 5.75811 8.40908 4.68359 7.08359 4.68359C5.75811 4.68359 4.68359 5.75811 4.68359 7.08359C4.68359 8.40906 5.75811 9.48356 7.08359 9.48356Z" fill="white"/>
<path d="M6.25026 15.3169C7.1155 15.3169 7.81693 14.6155 7.81693 13.7503C7.81693 12.885 7.1155 12.1836 6.25026 12.1836C5.38501 12.1836 4.68359 12.885 4.68359 13.7503C4.68359 14.6155 5.38501 15.3169 6.25026 15.3169Z" fill="white"/>
<path d="M13.7503 7.81693C14.6155 7.81693 15.3169 7.11551 15.3169 6.25026C15.3169 5.38502 14.6155 4.68359 13.7503 4.68359C12.885 4.68359 12.1836 5.38502 12.1836 6.25026C12.1836 7.11551 12.885 7.81693 13.7503 7.81693Z" fill="white"/>
<path d="M12.9166 15.3156C14.2421 15.3156 15.3166 14.2411 15.3166 12.9156C15.3166 11.5902 14.2421 10.5156 12.9166 10.5156C11.5911 10.5156 10.5166 11.5902 10.5166 12.9156C10.5166 14.2411 11.5911 15.3156 12.9166 15.3156Z" fill="white"/>
</svg>
