<svg width="20" height="20" viewBox="0 0 20 20" fill="none" xmlns="http://www.w3.org/2000/svg">
<path d="M1.66699 8.1263C1.32533 8.1263 1.04199 7.84297 1.04199 7.5013V5.41797C1.04199 3.0013 3.00866 1.04297 5.41699 1.04297H7.50033C7.84199 1.04297 8.12533 1.3263 8.12533 1.66797C8.12533 2.00964 7.84199 2.29297 7.50033 2.29297H5.41699C3.69199 2.29297 2.29199 3.69297 2.29199 5.41797V7.5013C2.29199 7.84297 2.00866 8.1263 1.66699 8.1263Z" fill="white"/>
<path d="M18.3333 8.1263C17.9917 8.1263 17.7083 7.84297 17.7083 7.5013V5.41797C17.7083 3.69297 16.3083 2.29297 14.5833 2.29297H12.5C12.1583 2.29297 11.875 2.00964 11.875 1.66797C11.875 1.3263 12.1583 1.04297 12.5 1.04297H14.5833C16.9917 1.04297 18.9583 3.0013 18.9583 5.41797V7.5013C18.9583 7.84297 18.675 8.1263 18.3333 8.1263Z" fill="white"/>
<path d="M14.583 18.957H13.333C12.9913 18.957 12.708 18.6737 12.708 18.332C12.708 17.9904 12.9913 17.707 13.333 17.707H14.583C16.308 17.707 17.708 16.307 17.708 14.582V13.332C17.708 12.9904 17.9913 12.707 18.333 12.707C18.6747 12.707 18.958 12.9904 18.958 13.332V14.582C18.958 16.9987 16.9913 18.957 14.583 18.957Z" fill="white"/>
<path d="M7.50033 18.9583H5.41699C3.00866 18.9583 1.04199 17 1.04199 14.5833V12.5C1.04199 12.1583 1.32533 11.875 1.66699 11.875C2.00866 11.875 2.29199 12.1583 2.29199 12.5V14.5833C2.29199 16.3083 3.69199 17.7083 5.41699 17.7083H7.50033C7.84199 17.7083 8.12533 17.9917 8.12533 18.3333C8.12533 18.675 7.84199 18.9583 7.50033 18.9583Z" fill="white"/>
<path d="M7.5 4.375H5.83333C4.88333 4.375 4.375 4.875 4.375 5.83333V7.5C4.375 8.45833 4.88333 8.95833 5.83333 8.95833H7.5C8.45 8.95833 8.95833 8.45833 8.95833 7.5V5.83333C8.95833 4.875 8.45 4.375 7.5 4.375Z" fill="white"/>
<path d="M14.167 4.375H12.5003C11.5503 4.375 11.042 4.875 11.042 5.83333V7.5C11.042 8.45833 11.5503 8.95833 12.5003 8.95833H14.167C15.117 8.95833 15.6253 8.45833 15.6253 7.5V5.83333C15.6253 4.875 15.117 4.375 14.167 4.375Z" fill="white"/>
<path d="M7.5 11.043H5.83333C4.88333 11.043 4.375 11.543 4.375 12.5013V14.168C4.375 15.1263 4.88333 15.6263 5.83333 15.6263H7.5C8.45 15.6263 8.95833 15.1263 8.95833 14.168V12.5013C8.95833 11.543 8.45 11.043 7.5 11.043Z" fill="white"/>
<path d="M14.167 11.043H12.5003C11.5503 11.043 11.042 11.543 11.042 12.5013V14.168C11.042 15.1263 11.5503 15.6263 12.5003 15.6263H14.167C15.117 15.6263 15.6253 15.1263 15.6253 14.168V12.5013C15.6253 11.543 15.117 11.043 14.167 11.043Z" fill="white"/>
</svg>
