<svg width="20" height="20" viewBox="0 0 20 20" fill="none" xmlns="http://www.w3.org/2000/svg">
<path d="M2.30866 8.33464C1.95033 8.33464 1.66699 8.0513 1.66699 7.69297V5.76797C1.66699 3.50964 3.50866 1.66797 5.76699 1.66797H7.69199C8.05032 1.66797 8.33366 1.9513 8.33366 2.30964C8.33366 2.66797 8.05032 2.9513 7.69199 2.9513H5.76699C4.20866 2.9513 2.95033 4.21797 2.95033 5.76797V7.69297C2.95033 8.0513 2.65866 8.33464 2.30866 8.33464Z" fill="white"/>
<path d="M17.692 8.33464C17.342 8.33464 17.0503 8.0513 17.0503 7.69297V5.76797C17.0503 4.20964 15.7837 2.9513 14.2337 2.9513H12.3087C11.9503 2.9513 11.667 2.65964 11.667 2.30964C11.667 1.95964 11.9503 1.66797 12.3087 1.66797H14.2337C16.492 1.66797 18.3337 3.50964 18.3337 5.76797V7.69297C18.3337 8.0513 18.0503 8.33464 17.692 8.33464Z" fill="white"/>
<path d="M14.2336 18.3331H13.0753C12.7253 18.3331 12.4336 18.0497 12.4336 17.6914C12.4336 17.3414 12.7169 17.0497 13.0753 17.0497H14.2336C15.7919 17.0497 17.0503 15.7831 17.0503 14.2331V13.0831C17.0503 12.7331 17.3336 12.4414 17.6919 12.4414C18.0419 12.4414 18.3336 12.7247 18.3336 13.0831V14.2331C18.3336 16.4914 16.4919 18.3331 14.2336 18.3331Z" fill="white"/>
<path d="M7.69199 18.3346H5.76699C3.50866 18.3346 1.66699 16.493 1.66699 14.2346V12.3096C1.66699 11.9513 1.95033 11.668 2.30866 11.668C2.66699 11.668 2.95033 11.9513 2.95033 12.3096V14.2346C2.95033 15.793 4.21699 17.0513 5.76699 17.0513H7.69199C8.04199 17.0513 8.33366 17.3346 8.33366 17.693C8.33366 18.0513 8.05032 18.3346 7.69199 18.3346Z" fill="white"/>
<path d="M15.3829 9.35938H14.2496H5.74961H4.61628C4.25794 9.35938 3.97461 9.65104 3.97461 10.001C3.97461 10.351 4.25794 10.6427 4.61628 10.6427H5.74961H14.2496H15.3829C15.7413 10.6427 16.0246 10.351 16.0246 10.001C16.0246 9.65104 15.7413 9.35938 15.3829 9.35938Z" fill="white"/>
<path d="M5.75 11.6164V11.8914C5.75 13.2747 6.86667 14.3914 8.25 14.3914H11.75C13.1333 14.3914 14.25 13.2747 14.25 11.8914V11.6164C14.25 11.5164 14.175 11.4414 14.075 11.4414H5.925C5.825 11.4414 5.75 11.5164 5.75 11.6164Z" fill="white"/>
<path d="M5.75 8.3844V8.10937C5.75 6.72604 6.86667 5.60938 8.25 5.60938H11.75C13.1333 5.60938 14.25 6.72604 14.25 8.10937V8.3844C14.25 8.4844 14.175 8.5594 14.075 8.5594H5.925C5.825 8.5594 5.75 8.4844 5.75 8.3844Z" fill="white"/>
</svg>
