<svg width="20" height="20" viewBox="0 0 20 20" fill="none" xmlns="http://www.w3.org/2000/svg">
<path d="M18.3337 8.1263C17.992 8.1263 17.7087 7.84297 17.7087 7.5013V5.83464C17.7087 3.68464 16.317 2.29297 14.167 2.29297H5.83366C3.68366 2.29297 2.29199 3.68464 2.29199 5.83464V7.5013C2.29199 7.84297 2.00866 8.1263 1.66699 8.1263C1.32533 8.1263 1.04199 7.84297 1.04199 7.5013V5.83464C1.04199 2.96797 2.96699 1.04297 5.83366 1.04297H14.167C17.0337 1.04297 18.9587 2.96797 18.9587 5.83464V7.5013C18.9587 7.84297 18.6753 8.1263 18.3337 8.1263Z" fill="white"/>
<path d="M14.167 18.9583H5.83366C2.96699 18.9583 1.04199 17.0333 1.04199 14.1667V12.5C1.04199 12.1583 1.32533 11.875 1.66699 11.875C2.00866 11.875 2.29199 12.1583 2.29199 12.5V14.1667C2.29199 16.3167 3.68366 17.7083 5.83366 17.7083H14.167C16.317 17.7083 17.7087 16.3167 17.7087 14.1667V12.5C17.7087 12.1583 17.992 11.875 18.3337 11.875C18.6753 11.875 18.9587 12.1583 18.9587 12.5V14.1667C18.9587 17.0333 17.0337 18.9583 14.167 18.9583Z" fill="white"/>
<path d="M18.3337 10.625H1.66699C1.32533 10.625 1.04199 10.3417 1.04199 10C1.04199 9.65833 1.32533 9.375 1.66699 9.375H18.3337C18.6753 9.375 18.9587 9.65833 18.9587 10C18.9587 10.3417 18.6753 10.625 18.3337 10.625Z" fill="white"/>
<path d="M13.7497 7.5013H6.24967C6.01634 7.5013 5.83301 7.31797 5.83301 7.08464V5.41797C5.83301 4.7263 6.39134 4.16797 7.08301 4.16797H12.9163C13.608 4.16797 14.1663 4.7263 14.1663 5.41797V7.08464C14.1663 7.31797 13.983 7.5013 13.7497 7.5013Z" fill="white"/>
<path d="M13.7497 12.5H6.24967C6.01634 12.5 5.83301 12.6833 5.83301 12.9167V14.5833C5.83301 15.275 6.39134 15.8333 7.08301 15.8333H12.9163C13.5997 15.8333 14.1663 15.275 14.1663 14.5833V12.9167C14.1663 12.6833 13.983 12.5 13.7497 12.5Z" fill="white"/>
</svg>
