<svg width="20" height="20" viewBox="0 0 20 20" fill="none" xmlns="http://www.w3.org/2000/svg">
<path d="M13.492 1.66797H6.50866C3.47533 1.66797 1.66699 3.4763 1.66699 6.50964V13.4846C1.66699 16.5263 3.47533 18.3346 6.50866 18.3346H13.4837C16.517 18.3346 18.3253 16.5263 18.3253 13.493V6.50964C18.3337 3.4763 16.5253 1.66797 13.492 1.66797ZM14.8003 12.2346C15.0753 12.443 15.1337 12.8346 14.9253 13.1096C14.8003 13.2763 14.617 13.3596 14.4253 13.3596C14.292 13.3596 14.167 13.318 14.0503 13.2346L10.7587 10.7763L8.75033 12.2763C8.75866 12.3596 8.77533 12.443 8.77533 12.5263C8.77533 13.5846 7.91699 14.443 6.85866 14.443C5.80033 14.443 4.94199 13.5846 4.94199 12.5263C4.94199 11.468 5.80033 10.6096 6.85866 10.6096C7.37533 10.6096 7.83366 10.818 8.17533 11.143L9.70866 9.99297L8.18366 8.8513C7.84199 9.18464 7.36699 9.39297 6.85033 9.39297C5.79199 9.39297 4.93366 8.53464 4.93366 7.4763C4.93366 6.41797 5.79199 5.55964 6.85033 5.55964C7.90866 5.55964 8.76699 6.41797 8.76699 7.4763C8.76699 7.55964 8.75033 7.63464 8.74199 7.70964L10.742 9.20964L14.0337 6.7513C14.3087 6.54297 14.7003 6.6013 14.9087 6.8763C15.117 7.1513 15.0587 7.54297 14.7837 7.7513L11.7837 9.99297L14.8003 12.2346Z" fill="white"/>
</svg>
