<svg width="20" height="20" viewBox="0 0 20 20" fill="none" xmlns="http://www.w3.org/2000/svg">
<path d="M4.58366 8.33333C6.19449 8.33333 7.50033 7.0275 7.50033 5.41667C7.50033 3.80583 6.19449 2.5 4.58366 2.5C2.97283 2.5 1.66699 3.80583 1.66699 5.41667C1.66699 7.0275 2.97283 8.33333 4.58366 8.33333Z" fill="white"/>
<path d="M4.58366 17.5013C6.19449 17.5013 7.50033 16.1955 7.50033 14.5846C7.50033 12.9738 6.19449 11.668 4.58366 11.668C2.97283 11.668 1.66699 12.9738 1.66699 14.5846C1.66699 16.1955 2.97283 17.5013 4.58366 17.5013Z" fill="white"/>
<path d="M12.7083 9.98359L18.7083 5.50023C18.9833 5.29189 19.0416 4.90023 18.8333 4.62523C18.6249 4.35023 18.2333 4.29189 17.9583 4.50023L11.6666 9.20859L7.04157 5.74189C6.76657 5.54189 6.3749 5.59189 6.16657 5.86689C5.95824 6.14189 6.01657 6.53356 6.29157 6.74189L10.6249 9.98359L5.70824 13.6669C5.43324 13.8753 5.3749 14.2669 5.58324 14.5419C5.70824 14.7086 5.89157 14.7919 6.08324 14.7919C6.21657 14.7919 6.34157 14.7503 6.45824 14.6669L11.6666 10.7669L17.9583 15.4753C18.0666 15.5586 18.1999 15.6003 18.3333 15.6003C18.5249 15.6003 18.7083 15.5169 18.8333 15.3503C19.0416 15.0753 18.9833 14.6836 18.7083 14.4753L12.7083 9.98359Z" fill="white"/>
</svg>
