<svg width="20" height="20" viewBox="0 0 20 20" fill="none" xmlns="http://www.w3.org/2000/svg">
<path d="M13.492 1.66797H6.50866C3.47533 1.66797 1.66699 3.4763 1.66699 6.50964V13.4846C1.66699 16.5263 3.47533 18.3346 6.50866 18.3346H13.4837C16.517 18.3346 18.3253 16.5263 18.3253 13.493V6.50964C18.3337 3.4763 16.5253 1.66797 13.492 1.66797ZM15.417 13.668C15.417 14.918 14.917 15.418 13.667 15.418H10.5003C9.25033 15.418 8.75033 14.918 8.75033 13.668V12.168C8.75033 10.918 9.25033 10.418 10.5003 10.418H13.667C14.917 10.418 15.417 10.918 15.417 12.168V13.668Z" fill="white"/>
</svg>
