<svg width="20" height="20" viewBox="0 0 20 20" fill="none" xmlns="http://www.w3.org/2000/svg">
<path d="M13.492 1.66797H6.50866C3.47533 1.66797 1.66699 3.4763 1.66699 6.50964V13.4846C1.66699 16.5263 3.47533 18.3346 6.50866 18.3346H13.4837C16.517 18.3346 18.3253 16.5263 18.3253 13.493V6.50964C18.3337 3.4763 16.5253 1.66797 13.492 1.66797ZM8.44199 12.0846C8.68366 12.3263 8.68366 12.7263 8.44199 12.968C8.31699 13.093 8.15866 13.1513 8.00033 13.1513C7.84199 13.1513 7.68366 13.093 7.55866 12.968L5.48366 10.893C4.99199 10.4013 4.99199 9.60963 5.48366 9.11797L7.55866 7.04297C7.80033 6.8013 8.20033 6.8013 8.44199 7.04297C8.68366 7.28464 8.68366 7.68464 8.44199 7.9263L6.36699 10.0013L8.44199 12.0846ZM14.517 10.8846L12.442 12.9596C12.317 13.0846 12.1587 13.143 12.0003 13.143C11.842 13.143 11.6837 13.0846 11.5587 12.9596C11.317 12.718 11.317 12.318 11.5587 12.0763L13.6337 10.0013L11.5587 7.91797C11.317 7.6763 11.317 7.2763 11.5587 7.03463C11.8003 6.79297 12.2003 6.79297 12.442 7.03463L14.517 9.10964C15.0087 9.6013 15.0087 10.4013 14.517 10.8846Z" fill="white"/>
</svg>
