<svg width="20" height="20" viewBox="0 0 20 20" fill="none" xmlns="http://www.w3.org/2000/svg">
<path d="M9.58366 17.5013C13.9559 17.5013 17.5003 13.9569 17.5003 9.58464C17.5003 5.21238 13.9559 1.66797 9.58366 1.66797C5.2114 1.66797 1.66699 5.21238 1.66699 9.58464C1.66699 13.9569 5.2114 17.5013 9.58366 17.5013Z" fill="white"/>
<path d="M17.7501 18.3354C17.6001 18.3354 17.4501 18.2771 17.3418 18.1688L15.7918 16.6187C15.5668 16.3937 15.5668 16.0271 15.7918 15.7938C16.0168 15.5688 16.3835 15.5688 16.6168 15.7938L18.1668 17.3437C18.3918 17.5687 18.3918 17.9354 18.1668 18.1688C18.0501 18.2771 17.9001 18.3354 17.7501 18.3354Z" fill="white"/>
</svg>
