<svg width="20" height="20" viewBox="0 0 20 20" fill="none" xmlns="http://www.w3.org/2000/svg">
<path d="M9.16651 1.66016C5.02487 1.66016 1.6582 5.02682 1.6582 9.16846C1.6582 13.3101 5.02487 16.6768 9.16651 16.6768C13.3082 16.6768 16.6748 13.3101 16.6748 9.16846C16.6748 5.02682 13.3082 1.66016 9.16651 1.66016ZM9.16651 11.0435H6.66654C6.32487 11.0435 6.04154 10.7601 6.04154 10.4185C6.04154 10.0768 6.32487 9.79346 6.66654 9.79346H9.16651C9.50818 9.79346 9.79151 10.0768 9.79151 10.4185C9.79151 10.7601 9.50818 11.0435 9.16651 11.0435ZM11.6665 8.54346H6.66654C6.32487 8.54346 6.04154 8.26016 6.04154 7.91849C6.04154 7.57682 6.32487 7.29349 6.66654 7.29349H11.6665C12.0082 7.29349 12.2915 7.57682 12.2915 7.91849C12.2915 8.26016 12.0082 8.54346 11.6665 8.54346Z" fill="white"/>
<path d="M18.3247 15.7917C18.0497 15.2833 17.4664 15 16.6831 15C16.0914 15 15.5831 15.2417 15.2831 15.6583C14.9831 16.075 14.9164 16.6333 15.0997 17.1917C15.4581 18.275 16.0831 18.5167 16.4247 18.5583C16.4747 18.5667 16.5247 18.5667 16.5831 18.5667C16.9497 18.5667 17.5164 18.4083 18.0664 17.5833C18.5081 16.9417 18.5914 16.3 18.3247 15.7917Z" fill="white"/>
</svg>
