<svg width="20" height="20" viewBox="0 0 20 20" fill="none" xmlns="http://www.w3.org/2000/svg">
<path d="M9.17533 16.6846C13.3221 16.6846 16.6837 13.3231 16.6837 9.1763C16.6837 5.02956 13.3221 1.66797 9.17533 1.66797C5.02858 1.66797 1.66699 5.02956 1.66699 9.1763C1.66699 13.3231 5.02858 16.6846 9.17533 16.6846Z" fill="white"/>
<path d="M18.3247 15.7917C18.0497 15.2833 17.4664 15 16.6831 15C16.0914 15 15.5831 15.2417 15.2831 15.6583C14.9831 16.075 14.9164 16.6333 15.0997 17.1917C15.4581 18.275 16.0831 18.5167 16.4247 18.5583C16.4747 18.5667 16.5247 18.5667 16.5831 18.5667C16.9497 18.5667 17.5164 18.4083 18.0664 17.5833C18.5081 16.9417 18.5914 16.3 18.3247 15.7917Z" fill="white"/>
</svg>
