<svg width="20" height="20" viewBox="0 0 20 20" fill="none" xmlns="http://www.w3.org/2000/svg">
<path d="M9.16651 1.66016C5.02487 1.66016 1.6582 5.02682 1.6582 9.16846C1.6582 13.3101 5.02487 16.6768 9.16651 16.6768C13.3082 16.6768 16.6748 13.3101 16.6748 9.16846C16.6748 5.02682 13.3082 1.66016 9.16651 1.66016ZM11.8165 9.63513C11.3498 11.1185 9.72485 11.9268 9.16651 11.9268C8.59151 11.9268 6.99987 11.1518 6.51654 9.63513C6.19987 8.64346 6.5582 7.35182 7.69154 6.99349C8.2082 6.82682 8.75818 6.92682 9.16651 7.23516C9.56651 6.92682 10.1248 6.82682 10.6498 6.99349C11.7748 7.36016 12.1332 8.6518 11.8165 9.63513Z" fill="white"/>
<path d="M18.3247 15.7917C18.0497 15.2833 17.4664 15 16.6831 15C16.0914 15 15.5831 15.2417 15.2831 15.6583C14.9831 16.075 14.9164 16.6333 15.0997 17.1917C15.4581 18.275 16.0831 18.5167 16.4247 18.5583C16.4747 18.5667 16.5247 18.5667 16.5831 18.5667C16.9497 18.5667 17.5164 18.4083 18.0664 17.5833C18.5081 16.9417 18.5914 16.3 18.3247 15.7917Z" fill="white"/>
</svg>
