<svg width="20" height="20" viewBox="0 0 20 20" fill="none" xmlns="http://www.w3.org/2000/svg">
<path d="M17.7501 18.3354C17.6001 18.3354 17.4501 18.2771 17.3418 18.1688L15.7918 16.6187C15.5668 16.3937 15.5668 16.0271 15.7918 15.7938C16.0168 15.5688 16.3835 15.5688 16.6168 15.7938L18.1668 17.3437C18.3918 17.5687 18.3918 17.9354 18.1668 18.1688C18.0501 18.2771 17.9001 18.3354 17.7501 18.3354Z" fill="white"/>
<path d="M9.58366 1.66797C5.21699 1.66797 1.66699 5.21797 1.66699 9.58464C1.66699 13.9513 5.21699 17.5013 9.58366 17.5013C13.9503 17.5013 17.5003 13.9513 17.5003 9.58464C17.5003 5.21797 13.9503 1.66797 9.58366 1.66797ZM12.2337 10.0513C11.767 11.5346 10.142 12.343 9.58366 12.343C9.00866 12.343 7.41699 11.568 6.93366 10.0513C6.61699 9.05964 6.97533 7.76797 8.10866 7.40964C8.62532 7.24297 9.17533 7.34297 9.58366 7.6513C9.98366 7.34297 10.542 7.24297 11.067 7.40964C12.192 7.7763 12.5503 9.06797 12.2337 10.0513Z" fill="white"/>
</svg>
