<svg width="20" height="20" viewBox="0 0 20 20" fill="none" xmlns="http://www.w3.org/2000/svg">
<path d="M17.7501 18.3354C17.6001 18.3354 17.4501 18.2771 17.3418 18.1688L15.7918 16.6187C15.5668 16.3937 15.5668 16.0271 15.7918 15.7938C16.0168 15.5688 16.3835 15.5688 16.6168 15.7938L18.1668 17.3437C18.3918 17.5687 18.3918 17.9354 18.1668 18.1688C18.0501 18.2771 17.9001 18.3354 17.7501 18.3354Z" fill="white"/>
<path d="M9.58366 1.66797C5.21699 1.66797 1.66699 5.21797 1.66699 9.58464C1.66699 13.9513 5.21699 17.5013 9.58366 17.5013C13.9503 17.5013 17.5003 13.9513 17.5003 9.58464C17.5003 5.21797 13.9503 1.66797 9.58366 1.66797ZM11.8337 10.3763H10.3753V11.8346C10.3753 12.1763 10.092 12.4596 9.75033 12.4596C9.40866 12.4596 9.12533 12.1763 9.12533 11.8346V10.3763H7.66699C7.32533 10.3763 7.04199 10.093 7.04199 9.7513C7.04199 9.40964 7.32533 9.1263 7.66699 9.1263H9.12533V7.66797C9.12533 7.3263 9.40866 7.04297 9.75033 7.04297C10.092 7.04297 10.3753 7.3263 10.3753 7.66797V9.1263H11.8337C12.1753 9.1263 12.4587 9.40964 12.4587 9.7513C12.4587 10.093 12.1753 10.3763 11.8337 10.3763Z" fill="white"/>
</svg>
