<svg width="20" height="20" viewBox="0 0 20 20" fill="none" xmlns="http://www.w3.org/2000/svg">
<path d="M9.58366 1.66797C5.21699 1.66797 1.66699 5.21797 1.66699 9.58464C1.66699 13.9513 5.21699 17.5013 9.58366 17.5013C13.9503 17.5013 17.5003 13.9513 17.5003 9.58464C17.5003 5.21797 13.9503 1.66797 9.58366 1.66797ZM9.58366 11.4596H7.08366C6.74199 11.4596 6.45866 11.1763 6.45866 10.8346C6.45866 10.493 6.74199 10.2096 7.08366 10.2096H9.58366C9.92533 10.2096 10.2087 10.493 10.2087 10.8346C10.2087 11.1763 9.92533 11.4596 9.58366 11.4596ZM12.0837 8.95964H7.08366C6.74199 8.95964 6.45866 8.6763 6.45866 8.33464C6.45866 7.99297 6.74199 7.70964 7.08366 7.70964H12.0837C12.4253 7.70964 12.7087 7.99297 12.7087 8.33464C12.7087 8.6763 12.4253 8.95964 12.0837 8.95964Z" fill="white"/>
<path d="M17.7501 18.3315C17.6001 18.3315 17.4501 18.2732 17.3418 18.1648L15.7918 16.6148C15.5668 16.3898 15.5668 16.0232 15.7918 15.7898C16.0168 15.5648 16.3835 15.5648 16.6168 15.7898L18.1668 17.3398C18.3918 17.5648 18.3918 17.9315 18.1668 18.1648C18.0501 18.2732 17.9001 18.3315 17.7501 18.3315Z" fill="white"/>
</svg>
