<svg width="20" height="20" viewBox="0 0 20 20" fill="none" xmlns="http://www.w3.org/2000/svg">
<path d="M11.2418 11.1523H9.1668C8.9168 11.1523 8.7168 11.3523 8.7168 11.6023C8.7168 11.8523 8.9168 12.0523 9.1668 12.0523H11.2418C11.4918 12.0523 11.6918 11.8523 11.6918 11.6023C11.6918 11.3523 11.4918 11.1523 11.2418 11.1523Z" fill="white"/>
<path d="M7.86667 11.1523H6.825C6.575 11.1523 6.375 11.3523 6.375 11.6023C6.375 11.8523 6.575 12.0523 6.825 12.0523H7.86667C8.11667 12.0523 8.31667 11.8523 8.31667 11.6023C8.31667 11.3523 8.11667 11.1523 7.86667 11.1523Z" fill="white"/>
<path d="M15.4497 3.51589L10.8663 1.79922C10.3913 1.62422 9.61634 1.62422 9.14134 1.79922L4.55801 3.51589C3.67467 3.84922 2.95801 4.88255 2.95801 5.82422V12.5743C2.95801 13.2493 3.39967 14.1409 3.94134 14.5409L8.52467 17.9659C9.33301 18.5743 10.658 18.5743 11.4663 17.9659L16.0497 14.5409C16.5913 14.1326 17.033 13.2493 17.033 12.5743V5.82422C17.0413 4.88255 16.3247 3.84922 15.4497 3.51589ZM15.1413 11.3743C15.1247 13.0993 14.6497 13.5326 12.858 13.5326H7.14967C5.32467 13.5326 4.86634 13.0826 4.86634 11.2743V9.33259C4.86634 9.09926 5.04967 8.91593 5.28301 8.91593H14.7247C14.958 8.91593 15.1413 9.09926 15.1413 9.33259V11.3743ZM15.1413 7.59089C15.1413 7.82422 14.958 8.00755 14.7247 8.00755H5.28301C5.04967 8.00755 4.86634 7.82422 4.86634 7.59089V7.05755C4.86634 5.42422 5.24967 4.89922 6.67467 4.80755C6.82467 4.80755 6.98301 4.79922 7.14967 4.79922H12.858C14.683 4.79922 15.1413 5.24922 15.1413 7.05755V7.59089Z" fill="white"/>
</svg>
