<svg width="20" height="20" viewBox="0 0 20 20" fill="none" xmlns="http://www.w3.org/2000/svg">
<path d="M15.2748 4.7263L5.49141 14.5096C5.12474 14.8763 4.50807 14.8263 4.20807 14.393C3.17474 12.8846 2.56641 11.1013 2.56641 9.26797V5.60964C2.56641 4.9263 3.08307 4.1513 3.71641 3.89297L8.35809 1.99297C9.40809 1.55964 10.5748 1.55964 11.6248 1.99297L14.9998 3.36797C15.5498 3.59297 15.6914 4.30964 15.2748 4.7263Z" fill="white"/>
<path d="M16.0587 5.86538C16.6003 5.40705 17.4253 5.79872 17.4253 6.50705V9.26536C17.4253 13.3404 14.467 17.157 10.4253 18.2737C10.1503 18.3487 9.85032 18.3487 9.56699 18.2737C8.38366 17.9404 7.28366 17.382 6.342 16.6487C5.942 16.3404 5.90033 15.757 6.25033 15.3987C8.067 13.5404 13.3837 8.12372 16.0587 5.86538Z" fill="white"/>
</svg>
