<svg width="20" height="20" viewBox="0 0 20 20" fill="none" xmlns="http://www.w3.org/2000/svg">
<path d="M15.4168 3.42396L11.2585 1.86563C10.5668 1.60729 9.4335 1.60729 8.74183 1.86563L4.58346 3.42396C3.62513 3.78229 2.8418 4.91562 2.8418 5.93229V12.124C2.8418 13.1073 3.4918 14.399 4.28346 14.9906L7.8668 17.6656C9.04183 18.549 10.9752 18.549 12.1502 17.6656L15.7335 14.9906C16.5252 14.399 17.1752 13.1073 17.1752 12.124V5.93229C17.1585 4.91562 16.3752 3.78229 15.4168 3.42396ZM9.94183 5.85729C10.9252 5.85729 11.7252 6.65729 11.7252 7.64063C11.7252 8.60728 10.9668 9.38228 10.0085 9.41562H9.99183H9.97516C9.9585 9.41562 9.94183 9.41562 9.92516 9.41562C8.92516 9.38228 8.17513 8.60728 8.17513 7.64063C8.1668 6.65729 8.96683 5.85729 9.94183 5.85729ZM11.8252 13.6323C11.3168 13.9656 10.6585 14.1406 10.0002 14.1406C9.34183 14.1406 8.67516 13.974 8.17513 13.6323C7.70013 13.3156 7.4418 12.8823 7.43346 12.4073C7.43346 11.9406 7.70013 11.4906 8.17513 11.174C9.1835 10.5073 10.8252 10.5073 11.8335 11.174C12.3085 11.4906 12.5752 11.924 12.5752 12.399C12.5668 12.8656 12.3002 13.3156 11.8252 13.6323Z" fill="white"/>
</svg>
