<svg width="20" height="20" viewBox="0 0 20 20" fill="none" xmlns="http://www.w3.org/2000/svg">
<path d="M17.4252 9.26562V5.60729C17.4252 4.92396 16.9085 4.14896 16.2668 3.89062L11.6252 1.99062C10.5835 1.56563 9.40849 1.56563 8.36683 1.99062L3.7252 3.89062C3.09186 4.14896 2.5752 4.92396 2.5752 5.60729V9.26562C2.5752 13.3406 5.53353 17.1573 9.57516 18.2739C9.85016 18.3489 10.1502 18.3489 10.4252 18.2739C14.4668 17.1573 17.4252 13.3406 17.4252 9.26562ZM10.6252 10.724V12.9156C10.6252 13.2573 10.3418 13.5406 10.0002 13.5406C9.65849 13.5406 9.37516 13.2573 9.37516 12.9156V10.724C8.5335 10.4573 7.91686 9.67395 7.91686 8.74895C7.91686 7.59896 8.85016 6.66562 10.0002 6.66562C11.1502 6.66562 12.0835 7.59896 12.0835 8.74895C12.0835 9.68228 11.4668 10.4573 10.6252 10.724Z" fill="white"/>
</svg>
