<svg width="20" height="20" viewBox="0 0 20 20" fill="none" xmlns="http://www.w3.org/2000/svg">
<path d="M10.0003 6.875C8.50866 6.875 7.29199 8.09167 7.29199 9.58333C7.29199 11.075 8.50866 12.2917 10.0003 12.2917C11.492 12.2917 12.7087 11.075 12.7087 9.58333C12.7087 8.09167 11.492 6.875 10.0003 6.875ZM10.8337 9.31667C10.8337 9.825 10.5587 10.3083 10.1253 10.5667L9.48366 10.95C9.38366 11.0083 9.27533 11.0417 9.15866 11.0417C8.95033 11.0417 8.74199 10.9333 8.62533 10.7417C8.45033 10.4417 8.54199 10.0583 8.84199 9.88333L9.47533 9.5C9.54199 9.45833 9.57533 9.39167 9.57533 9.325V8.55C9.57533 8.20833 9.85866 7.925 10.2003 7.925C10.542 7.925 10.8337 8.2 10.8337 8.54167V9.31667Z" fill="white"/>
<path d="M15.4497 3.47682L10.8663 1.76015C10.3913 1.58516 9.61634 1.58516 9.14134 1.76015L4.55801 3.47682C3.67467 3.81016 2.95801 4.84349 2.95801 5.78516V12.5351C2.95801 13.2101 3.39967 14.1018 3.94134 14.5018L8.52467 17.9268C9.33301 18.5351 10.658 18.5351 11.4663 17.9268L16.0497 14.5018C16.5913 14.0935 17.033 13.2101 17.033 12.5351V5.78516C17.0413 4.84349 16.3247 3.81016 15.4497 3.47682ZM9.99967 13.5435C7.81634 13.5435 6.04134 11.7685 6.04134 9.58513C6.04134 7.40182 7.81634 5.62683 9.99967 5.62683C12.183 5.62683 13.958 7.40182 13.958 9.58513C13.958 11.7685 12.183 13.5435 9.99967 13.5435Z" fill="white"/>
</svg>
