<svg width="20" height="20" viewBox="0 0 20 20" fill="none" xmlns="http://www.w3.org/2000/svg">
<path d="M15.0581 7.09056L7.92473 3.52389C3.13306 1.12389 1.1664 3.09056 3.5664 7.88222L4.2914 9.33221C4.49973 9.75721 4.49973 10.2489 4.2914 10.6739L3.5664 12.1155C1.1664 16.9072 3.12473 18.8739 7.92473 16.4739L15.0581 12.9072C18.2581 11.3072 18.2581 8.69054 15.0581 7.09056ZM12.3664 10.6239H7.8664C7.52473 10.6239 7.2414 10.3405 7.2414 9.99888C7.2414 9.65721 7.52473 9.37387 7.8664 9.37387H12.3664C12.7081 9.37387 12.9914 9.65721 12.9914 9.99888C12.9914 10.3405 12.7081 10.6239 12.3664 10.6239Z" fill="white"/>
</svg>
