<svg width="20" height="20" viewBox="0 0 20 20" fill="none" xmlns="http://www.w3.org/2000/svg">
<path d="M17.0837 17.707H2.91699C2.57533 17.707 2.29199 17.9904 2.29199 18.332C2.29199 18.6737 2.57533 18.957 2.91699 18.957H17.0837C17.4253 18.957 17.7087 18.6737 17.7087 18.332C17.7087 17.9904 17.4253 17.707 17.0837 17.707Z" fill="white"/>
<path d="M4.16699 12.1013C4.50866 12.1013 4.79199 11.818 4.79199 11.4763V4.4263L15.392 15.0263C15.517 15.1513 15.6753 15.2096 15.8337 15.2096C15.992 15.2096 16.1503 15.1513 16.2753 15.0263C16.517 14.7846 16.517 14.3846 16.2753 14.143L5.67533 3.54297H12.7253C13.067 3.54297 13.3503 3.25964 13.3503 2.91797C13.3503 2.5763 13.067 2.29297 12.7253 2.29297H4.16699C4.08366 2.29297 4.00866 2.30964 3.92533 2.34297C3.77533 2.4013 3.65033 2.5263 3.59199 2.6763C3.55866 2.75964 3.54199 2.83464 3.54199 2.91797V11.4763C3.54199 11.818 3.82533 12.1013 4.16699 12.1013Z" fill="white"/>
</svg>
