<svg width="20" height="20" viewBox="0 0 20 20" fill="none" xmlns="http://www.w3.org/2000/svg">
<path d="M13.4506 2.46719L5.92559 4.96719C0.867253 6.65886 0.867253 9.41722 5.92559 11.1005L8.15892 11.8422L8.90057 14.0755C10.5839 19.1339 13.3506 19.1339 15.0339 14.0755L17.5422 6.55886C18.6589 3.18386 16.8256 1.34219 13.4506 2.46719ZM13.7172 6.95052L10.5506 10.1339C10.4256 10.2589 10.2672 10.3172 10.1089 10.3172C9.95057 10.3172 9.79224 10.2589 9.66724 10.1339C9.42557 9.89222 9.42557 9.49222 9.66724 9.25055L12.8339 6.06719C13.0756 5.82552 13.4756 5.82552 13.7172 6.06719C13.9589 6.30886 13.9589 6.70886 13.7172 6.95052Z" fill="white"/>
</svg>
