<svg width="20" height="20" viewBox="0 0 20 20" fill="none" xmlns="http://www.w3.org/2000/svg">
<path d="M13.492 1.66797H6.50866C3.47533 1.66797 1.66699 3.4763 1.66699 6.50964V13.4846C1.66699 16.5263 3.47533 18.3346 6.50866 18.3346H13.4837C16.517 18.3346 18.3253 16.5263 18.3253 13.493V6.50964C18.3337 3.4763 16.5253 1.66797 13.492 1.66797ZM7.20033 10.6763L10.8503 7.0263H8.82533C8.48366 7.0263 8.20033 6.74297 8.20033 6.4013C8.20033 6.05964 8.48366 5.7763 8.82533 5.7763H12.3587C12.442 5.7763 12.517 5.79297 12.6003 5.8263C12.7503 5.89297 12.8753 6.00964 12.942 6.16797C12.9753 6.24297 12.992 6.3263 12.992 6.40964V9.94297C12.992 10.2846 12.7087 10.568 12.367 10.568C12.0253 10.568 11.742 10.2846 11.742 9.94297V7.91797L8.08366 11.5596C7.95866 11.6846 7.80033 11.743 7.64199 11.743C7.48366 11.743 7.32533 11.6846 7.20033 11.5596C6.95866 11.318 6.95866 10.918 7.20033 10.6763ZM15.2003 14.3513C13.5253 14.9096 11.767 15.193 10.0003 15.193C8.23366 15.193 6.47533 14.9096 4.80033 14.3513C4.47533 14.243 4.30033 13.8846 4.40866 13.5596C4.51699 13.2346 4.86699 13.0513 5.20033 13.168C8.30033 14.2013 11.7087 14.2013 14.8087 13.168C15.1337 13.0596 15.492 13.2346 15.6003 13.5596C15.7003 13.893 15.5253 14.243 15.2003 14.3513Z" fill="white"/>
</svg>
