<svg width="20" height="20" viewBox="0 0 20 20" fill="none" xmlns="http://www.w3.org/2000/svg">
<path d="M13.492 1.66797H6.50866C3.47533 1.66797 1.66699 3.4763 1.66699 6.50964V13.4846C1.66699 16.5263 3.47533 18.3346 6.50866 18.3346H13.4837C16.517 18.3346 18.3253 16.5263 18.3253 13.493V6.50964C18.3337 3.4763 16.5253 1.66797 13.492 1.66797ZM7.05866 7.48463L9.55866 4.98464C9.61699 4.9263 9.68366 4.88464 9.75866 4.8513C9.90866 4.78464 10.0837 4.78464 10.2337 4.8513C10.3087 4.88464 10.3753 4.9263 10.4337 4.98464L12.9337 7.48463C13.1753 7.7263 13.1753 8.1263 12.9337 8.36797C12.8087 8.49297 12.6503 8.5513 12.492 8.5513C12.3337 8.5513 12.1753 8.49297 12.0503 8.36797L10.617 6.93464V12.093C10.617 12.4346 10.3337 12.718 9.99199 12.718C9.65033 12.718 9.36699 12.4346 9.36699 12.093V6.93464L7.93366 8.36797C7.69199 8.60964 7.29199 8.60964 7.05033 8.36797C6.80866 8.1263 6.81699 7.73463 7.05866 7.48463ZM15.2003 14.3513C13.5253 14.9096 11.767 15.193 10.0003 15.193C8.23366 15.193 6.47533 14.9096 4.80033 14.3513C4.47533 14.243 4.30033 13.8846 4.40866 13.5596C4.51699 13.2346 4.87533 13.0513 5.20033 13.168C8.30033 14.2013 11.7087 14.2013 14.8087 13.168C15.1337 13.0596 15.492 13.2346 15.6003 13.5596C15.7003 13.893 15.5253 14.243 15.2003 14.3513Z" fill="white"/>
</svg>
