<svg width="20" height="20" viewBox="0 0 20 20" fill="none" xmlns="http://www.w3.org/2000/svg">
<path d="M16.7503 7.6819C15.242 7.6819 14.6253 6.61523 15.3753 5.3069C15.8087 4.54856 15.5503 3.5819 14.792 3.14856L13.3503 2.32356C12.692 1.9319 11.842 2.16523 11.4503 2.82356L11.3587 2.9819C10.6087 4.29023 9.37533 4.29023 8.61699 2.9819L8.52532 2.82356C8.15032 2.16523 7.30033 1.9319 6.64199 2.32356L5.20033 3.14856C4.44199 3.5819 4.18366 4.5569 4.61699 5.31523C5.37533 6.61523 4.75866 7.6819 3.25033 7.6819C2.38366 7.6819 1.66699 8.39019 1.66699 9.26519V10.7319C1.66699 11.5985 2.37533 12.3152 3.25033 12.3152C4.75866 12.3152 5.37533 13.3819 4.61699 14.6902C4.18366 15.4485 4.44199 16.4152 5.20033 16.8485L6.64199 17.6735C7.30033 18.0652 8.15033 17.8319 8.54199 17.1735L8.63366 17.0152C9.38366 15.7069 10.617 15.7069 11.3753 17.0152L11.467 17.1735C11.8587 17.8319 12.7087 18.0652 13.367 17.6735L14.8087 16.8485C15.567 16.4152 15.8253 15.4402 15.392 14.6902C14.6337 13.3819 15.2503 12.3152 16.7587 12.3152C17.6253 12.3152 18.342 11.6069 18.342 10.7319V9.26519C18.3337 8.39852 17.6253 7.6819 16.7503 7.6819ZM10.0003 12.7069C8.50866 12.7069 7.29199 11.4902 7.29199 9.99852C7.29199 8.50686 8.50866 7.29023 10.0003 7.29023C11.492 7.29023 12.7087 8.50686 12.7087 9.99852C12.7087 11.4902 11.492 12.7069 10.0003 12.7069Z" fill="white"/>
</svg>
