<svg width="20" height="20" viewBox="0 0 20 20" fill="none" xmlns="http://www.w3.org/2000/svg">
<path d="M15.7834 4.51589L11.4751 2.02422C10.6501 1.54922 9.35841 1.54922 8.53341 2.02422L4.1834 4.53255C2.4584 5.69922 2.3584 5.87422 2.3584 7.73255V12.2576C2.3584 14.1159 2.4584 14.2993 4.21673 15.4826L8.52508 17.9743C8.94175 18.2159 9.47508 18.3326 10.0001 18.3326C10.5251 18.3326 11.0584 18.2159 11.4667 17.9743L15.8167 15.4659C17.5417 14.2993 17.6417 14.1243 17.6417 12.2659V7.73255C17.6417 5.87422 17.5417 5.69922 15.7834 4.51589ZM10.0001 12.7076C8.50842 12.7076 7.29173 11.4909 7.29173 9.99926C7.29173 8.50759 8.50842 7.29088 10.0001 7.29088C11.4917 7.29088 12.7084 8.50759 12.7084 9.99926C12.7084 11.4909 11.4917 12.7076 10.0001 12.7076Z" fill="white"/>
</svg>
