<svg width="20" height="20" viewBox="0 0 20 20" fill="none" xmlns="http://www.w3.org/2000/svg">
<path d="M17.7499 6.3151H13.0999C12.7749 6.3151 12.5166 6.05677 12.5166 5.73177C12.5166 5.40677 12.7749 5.14844 13.0999 5.14844H17.7499C18.0749 5.14844 18.3333 5.40677 18.3333 5.73177C18.3333 6.05677 18.0749 6.3151 17.7499 6.3151Z" fill="white"/>
<path d="M5.35033 6.3151H2.25033C1.92533 6.3151 1.66699 6.05677 1.66699 5.73177C1.66699 5.40677 1.92533 5.14844 2.25033 5.14844H5.35033C5.67533 5.14844 5.93366 5.40677 5.93366 5.73177C5.93366 6.05677 5.66699 6.3151 5.35033 6.3151Z" fill="white"/>
<path d="M8.45082 9.02475C10.2688 9.02475 11.7425 7.55101 11.7425 5.73307C11.7425 3.91513 10.2688 2.44141 8.45082 2.44141C6.63291 2.44141 5.15918 3.91513 5.15918 5.73307C5.15918 7.55101 6.63291 9.02475 8.45082 9.02475Z" fill="white"/>
<path d="M17.7497 14.8424H14.6497C14.3247 14.8424 14.0664 14.5841 14.0664 14.2591C14.0664 13.9341 14.3247 13.6758 14.6497 13.6758H17.7497C18.0747 13.6758 18.3331 13.9341 18.3331 14.2591C18.3331 14.5841 18.0747 14.8424 17.7497 14.8424Z" fill="white"/>
<path d="M6.90033 14.8424H2.25033C1.92533 14.8424 1.66699 14.5841 1.66699 14.2591C1.66699 13.9341 1.92533 13.6758 2.25033 13.6758H6.90033C7.22533 13.6758 7.48366 13.9341 7.48366 14.2591C7.48366 14.5841 7.21699 14.8424 6.90033 14.8424Z" fill="white"/>
<path d="M11.5505 17.5599C13.3684 17.5599 14.8422 16.0861 14.8422 14.2682C14.8422 12.4503 13.3684 10.9766 11.5505 10.9766C9.73249 10.9766 8.25879 12.4503 8.25879 14.2682C8.25879 16.0861 9.73249 17.5599 11.5505 17.5599Z" fill="white"/>
</svg>
