<svg width="20" height="20" viewBox="0 0 20 20" fill="none" xmlns="http://www.w3.org/2000/svg">
<path d="M15.4258 6.875C15.8424 6.875 16.1758 6.54167 16.1758 6.125V2.25C16.1758 1.83333 15.8424 1.5 15.4258 1.5C15.0091 1.5 14.6758 1.83333 14.6758 2.25V6.125C14.6758 6.53333 15.0174 6.875 15.4258 6.875Z" fill="white"/>
<path d="M10 13.125C9.58333 13.125 9.25 13.4583 9.25 13.875V17.75C9.25 18.1667 9.58333 18.5 10 18.5C10.4167 18.5 10.75 18.1667 10.75 17.75V13.875C10.75 13.4667 10.4167 13.125 10 13.125Z" fill="white"/>
<path d="M4.5752 6.875C4.99186 6.875 5.3252 6.54167 5.3252 6.125V2.25C5.3252 1.83333 4.99186 1.5 4.5752 1.5C4.15853 1.5 3.8252 1.83333 3.8252 2.25V6.125C3.8252 6.53333 4.15853 6.875 4.5752 6.875Z" fill="white"/>
<path d="M6.12539 8.47656H3.02539C2.60872 8.47656 2.27539 8.8099 2.27539 9.22656C2.27539 9.64323 2.60872 9.97656 3.02539 9.97656H3.82539V17.7516C3.82539 18.1682 4.15872 18.5016 4.57539 18.5016C4.99206 18.5016 5.32539 18.1682 5.32539 17.7516V9.97656H6.12539C6.54206 9.97656 6.87539 9.64323 6.87539 9.22656C6.87539 8.8099 6.53372 8.47656 6.12539 8.47656Z" fill="white"/>
<path d="M16.975 8.47656H13.875C13.4583 8.47656 13.125 8.8099 13.125 9.22656C13.125 9.64323 13.4583 9.97656 13.875 9.97656H14.675V17.7516C14.675 18.1682 15.0083 18.5016 15.425 18.5016C15.8417 18.5016 16.175 18.1682 16.175 17.7516V9.97656H16.975C17.3917 9.97656 17.725 9.64323 17.725 9.22656C17.725 8.8099 17.3917 8.47656 16.975 8.47656Z" fill="white"/>
<path d="M11.5502 10.025H10.7502V2.25C10.7502 1.83333 10.4168 1.5 10.0002 1.5C9.5835 1.5 9.25017 1.83333 9.25017 2.25V10.025H8.45017C8.03353 10.025 7.7002 10.3584 7.7002 10.775C7.7002 11.1917 8.03353 11.525 8.45017 11.525H11.5502C11.9668 11.525 12.3002 11.1917 12.3002 10.775C12.3002 10.3584 11.9668 10.025 11.5502 10.025Z" fill="white"/>
</svg>
