<svg width="20" height="20" viewBox="0 0 20 20" fill="none" xmlns="http://www.w3.org/2000/svg">
<path d="M10 13.75C12.0711 13.75 13.75 12.0711 13.75 10C13.75 7.92893 12.0711 6.25 10 6.25C7.92893 6.25 6.25 7.92893 6.25 10C6.25 12.0711 7.92893 13.75 10 13.75Z" fill="white"/>
<path d="M8.33366 10.625H1.66699C1.32533 10.625 1.04199 10.3417 1.04199 10C1.04199 9.65833 1.32533 9.375 1.66699 9.375H8.33366C8.67533 9.375 8.95866 9.65833 8.95866 10C8.95866 10.3417 8.67533 10.625 8.33366 10.625Z" fill="white"/>
<path d="M18.3337 10.625H11.667C11.3253 10.625 11.042 10.3417 11.042 10C11.042 9.65833 11.3253 9.375 11.667 9.375H18.3337C18.6753 9.375 18.9587 9.65833 18.9587 10C18.9587 10.3417 18.6753 10.625 18.3337 10.625Z" fill="white"/>
</svg>
