<svg width="20" height="20" viewBox="0 0 20 20" fill="none" xmlns="http://www.w3.org/2000/svg">
<path d="M13.492 1.66797H6.50866C3.47533 1.66797 1.66699 3.4763 1.66699 6.50964V13.4846C1.66699 16.5263 3.47533 18.3346 6.50866 18.3346H13.4837C16.517 18.3346 18.3253 16.5263 18.3253 13.493V6.50964C18.3337 3.4763 16.5253 1.66797 13.492 1.66797ZM6.39199 4.58464C6.39199 4.24297 6.67533 3.95964 7.01699 3.95964C7.35866 3.95964 7.64199 4.24297 7.64199 4.58464V7.83463C7.64199 8.1763 7.35866 8.45963 7.01699 8.45963C6.67533 8.45963 6.39199 8.1763 6.39199 7.83463V4.58464ZM7.93601 13.6941C7.76648 13.7693 7.64199 13.929 7.64199 14.1145V15.418C7.64199 15.7596 7.35866 16.043 7.01699 16.043C6.67533 16.043 6.39199 15.7596 6.39199 15.418V14.1145C6.39199 13.929 6.26749 13.7693 6.09802 13.6939C5.30262 13.34 4.75033 12.5496 4.75033 11.6263C4.75033 10.3763 5.76699 9.3513 7.01699 9.3513C8.26699 9.3513 9.29199 10.368 9.29199 11.6263C9.29199 12.5498 8.73291 13.3401 7.93601 13.6941ZM13.6087 15.418C13.6087 15.7596 13.3253 16.043 12.9837 16.043C12.642 16.043 12.3587 15.7596 12.3587 15.418V12.168C12.3587 11.8263 12.642 11.543 12.9837 11.543C13.3253 11.543 13.6087 11.8263 13.6087 12.168V15.418ZM12.9837 10.643C11.7337 10.643 10.7087 9.6263 10.7087 8.36797C10.7087 7.44451 11.2677 6.65415 12.0647 6.30024C12.2342 6.22496 12.3587 6.06531 12.3587 5.87981V4.58464C12.3587 4.24297 12.642 3.95964 12.9837 3.95964C13.3253 3.95964 13.6087 4.24297 13.6087 4.58464V5.88814C13.6087 6.07364 13.7332 6.23326 13.9027 6.30868C14.698 6.66264 15.2503 7.45293 15.2503 8.3763C15.2503 9.6263 14.2337 10.643 12.9837 10.643Z" fill="white"/>
</svg>
