<svg width="20" height="20" viewBox="0 0 20 20" fill="none" xmlns="http://www.w3.org/2000/svg">
<path d="M11.1922 12.4992H3.66727C2.15061 12.4992 1.18394 10.8742 1.91727 9.54086L3.85894 6.00755L5.6756 2.69922C6.43394 1.32422 8.41724 1.32422 9.17557 2.69922L11.0006 6.00755L11.8756 7.59922L12.9422 9.54086C13.6756 10.8742 12.7089 12.4992 11.1922 12.4992Z" fill="white"/>
<path d="M18.875 13.3345C18.875 16.3261 16.45 18.7511 13.4583 18.7511C10.9167 18.7511 8.79166 17.0095 8.19997 14.6428C8.14164 14.3928 8.33331 14.1678 8.59166 14.1678H11.7333C12.8917 14.1678 13.9417 13.5678 14.5333 12.5761C15.1167 11.5761 15.1417 10.3761 14.575 9.35948L14.1583 8.59281C14 8.30944 14.225 7.96777 14.5417 8.0261C17.0083 8.52614 18.875 10.7095 18.875 13.3345Z" fill="white"/>
</svg>
