<svg width="20" height="20" viewBox="0 0 20 20" fill="none" xmlns="http://www.w3.org/2000/svg">
<path d="M9.79199 5.83203H9.16699H5.83366C3.53366 5.83203 1.66699 7.6987 1.66699 9.9987V14.1654C1.66699 16.4654 3.53366 18.332 5.83366 18.332H10.0003C12.3003 18.332 14.167 16.4654 14.167 14.1654V10.832V10.207C14.167 7.79036 12.2087 5.83203 9.79199 5.83203Z" fill="white"/>
<path d="M18.2329 5.27658C18.6701 7.40956 17.6349 9.34488 15.9656 10.2563C15.7093 10.3962 15.4163 10.1966 15.4163 9.90447V9.79322C15.4163 6.92658 13.0746 4.58491 10.2079 4.58491H10.0967C9.80469 4.58491 9.60494 4.29196 9.74494 4.03563C10.6564 2.36638 12.5917 1.33108 14.7246 1.76824C16.4663 2.12658 17.8746 3.53491 18.2329 5.27658Z" fill="white"/>
</svg>
