<svg width="20" height="20" viewBox="0 0 20 20" fill="none" xmlns="http://www.w3.org/2000/svg">
<path d="M15.4497 3.43385L10.8663 1.71719C10.3913 1.54219 9.61634 1.54219 9.14134 1.71719L4.55801 3.43385C3.67467 3.76719 2.95801 4.80052 2.95801 5.74219V12.4922C2.95801 13.1672 3.39967 14.0588 3.94134 14.4588L8.52467 17.8838C9.33301 18.4922 10.658 18.4922 11.4663 17.8838L16.0497 14.4588C16.5913 14.0505 17.033 13.1672 17.033 12.4922V5.74219C17.0413 4.80052 16.3247 3.76719 15.4497 3.43385ZM12.233 11.6422C12.108 11.7672 11.9497 11.8255 11.7913 11.8255C11.633 11.8255 11.4747 11.7672 11.3497 11.6422L10.0247 10.3172L8.65801 11.6838C8.53301 11.8088 8.37467 11.8672 8.21634 11.8672C8.05801 11.8672 7.89967 11.8088 7.77467 11.6838C7.53301 11.4422 7.53301 11.0422 7.77467 10.8005L9.14134 9.43382L7.80801 8.10052C7.56634 7.85885 7.56634 7.45885 7.80801 7.21719C8.04967 6.97552 8.44967 6.97552 8.69134 7.21719L10.0163 8.54215L11.308 7.25052C11.5497 7.00885 11.9497 7.00885 12.1913 7.25052C12.433 7.49219 12.433 7.89219 12.1913 8.13385L10.8997 9.42549L12.2247 10.7505C12.4747 11.0005 12.4747 11.3922 12.233 11.6422Z" fill="white"/>
</svg>
