<svg width="20" height="20" viewBox="0 0 20 20" fill="none" xmlns="http://www.w3.org/2000/svg">
<path d="M16.2088 5.78516V7.87682C16.2088 8.46847 15.6088 8.8518 15.0505 8.64347C14.3505 8.38513 13.5755 8.28515 12.7588 8.36847C10.7755 8.58513 8.74215 10.4935 8.40882 12.4685C8.13385 14.1101 8.65882 15.6435 9.66715 16.7268C10.1255 17.2268 9.81715 18.0351 9.14215 18.1101C8.56715 18.1768 8.00052 18.1601 7.68385 17.9268L3.10052 14.5018C2.55885 14.0935 2.11719 13.2101 2.11719 12.5268V5.78516C2.11719 4.84349 2.83385 3.81016 3.70885 3.47682L8.29219 1.76015C8.76715 1.58516 9.55049 1.58516 10.0255 1.76015L14.6088 3.47682C15.4922 3.81016 16.2088 4.84349 16.2088 5.78516Z" fill="white"/>
<path d="M13.333 9.58984C11.2663 9.58984 9.58301 11.2732 9.58301 13.3398C9.58301 15.4065 11.2663 17.0898 13.333 17.0898C15.3997 17.0898 17.083 15.4065 17.083 13.3398C17.083 11.2648 15.3997 9.58984 13.333 9.58984Z" fill="white"/>
<path d="M17.5003 18.3354C17.2753 18.3354 17.067 18.2437 16.9087 18.0937C16.8753 18.052 16.8337 18.0104 16.8087 17.9604C16.7753 17.9187 16.7503 17.8687 16.7337 17.8187C16.7087 17.7687 16.692 17.7187 16.6837 17.6687C16.6753 17.6104 16.667 17.5604 16.667 17.502C16.667 17.3937 16.692 17.2854 16.7337 17.1854C16.7753 17.077 16.8337 16.9937 16.9087 16.9104C17.1003 16.7187 17.392 16.627 17.6587 16.6854C17.717 16.6937 17.767 16.7104 17.817 16.7354C17.867 16.752 17.917 16.777 17.9587 16.8104C18.0087 16.8354 18.0503 16.877 18.092 16.9104C18.167 16.9937 18.2253 17.077 18.267 17.1854C18.3087 17.2854 18.3337 17.3937 18.3337 17.502C18.3337 17.7187 18.242 17.9354 18.092 18.0937C18.0503 18.127 18.0087 18.1604 17.9587 18.1937C17.917 18.227 17.867 18.252 17.817 18.2687C17.767 18.2937 17.717 18.3104 17.6587 18.3187C17.6087 18.327 17.5503 18.3354 17.5003 18.3354Z" fill="white"/>
</svg>
