<svg width="20" height="20" viewBox="0 0 20 20" fill="none" xmlns="http://www.w3.org/2000/svg">
<path d="M16.133 3.86719L4.85801 15.1422L3.94134 14.4588C3.39967 14.0505 2.95801 13.1672 2.95801 12.4838V5.74219C2.95801 4.80052 3.67467 3.76719 4.54967 3.43385L9.13301 1.71719C9.60801 1.54219 10.3913 1.54219 10.8663 1.71719L15.4497 3.43385C15.6913 3.52552 15.9247 3.67552 16.133 3.86719Z" fill="white"/>
<path d="M17.0415 12.4856C17.0415 13.169 16.5998 14.0523 16.0582 14.4606L11.4748 17.8856C10.6582 18.4856 9.3415 18.4856 8.52484 17.8856L7.05816 16.794C6.64983 16.494 6.60816 15.894 6.96649 15.5356L15.6165 6.88563C16.1415 6.36063 17.0415 6.73563 17.0415 7.4773V12.4856Z" fill="white"/>
<path d="M18.1417 1.85938C17.8917 1.60937 17.4834 1.60937 17.2334 1.85938L1.8584 17.2427C1.6084 17.4927 1.6084 17.9011 1.8584 18.1511C1.9834 18.2677 2.14173 18.3344 2.3084 18.3344C2.47507 18.3344 2.6334 18.2677 2.7584 18.1427L18.1417 2.75938C18.4001 2.50937 18.4001 2.10938 18.1417 1.85938Z" fill="white"/>
</svg>
