<svg width="20" height="20" viewBox="0 0 20 20" fill="none" xmlns="http://www.w3.org/2000/svg">
<path d="M15.4497 3.43385L10.8663 1.71719C10.3913 1.54219 9.61634 1.54219 9.14134 1.71719L4.55801 3.43385C3.67467 3.76719 2.95801 4.80052 2.95801 5.74219V12.4922C2.95801 13.1672 3.39967 14.0588 3.94134 14.4588L8.52467 17.8838C9.33301 18.4922 10.658 18.4922 11.4663 17.8838L16.0497 14.4588C16.5913 14.0505 17.033 13.1672 17.033 12.4922V5.74219C17.0413 4.80052 16.3247 3.76719 15.4497 3.43385ZM12.8997 8.10052L9.31634 11.6838C9.19134 11.8088 9.03301 11.8672 8.87467 11.8672C8.71634 11.8672 8.55801 11.8088 8.43301 11.6838L7.09967 10.3338C6.85801 10.0922 6.85801 9.69215 7.09967 9.45049C7.34134 9.20882 7.74134 9.20882 7.98301 9.45049L8.88301 10.3505L12.0247 7.20885C12.2663 6.96719 12.6663 6.96719 12.908 7.20885C13.1497 7.45052 13.1497 7.85885 12.8997 8.10052Z" fill="white"/>
</svg>
