<svg width="20" height="20" viewBox="0 0 20 20" fill="none" xmlns="http://www.w3.org/2000/svg">
<path d="M18.0251 12.2167L17.6834 13.7667C17.0917 16.4333 15.0001 18.3333 11.9834 18.3333H8.01677C5.00011 18.3333 2.90844 16.4333 2.31677 13.7667L1.97511 12.2167C1.80844 11.4583 2.25844 10.6 2.98344 10.3083L4.16677 9.83335L8.75841 7.99167C9.15841 7.83333 9.58341 7.75 10.0001 7.75C10.4167 7.75 10.8417 7.83333 11.2417 7.99167L15.8334 9.83335L17.0167 10.3083C17.7417 10.6 18.1917 11.4583 18.0251 12.2167Z" fill="white"/>
<path d="M15.8337 6.66797V7.86797C15.8337 8.15963 15.5337 8.36797 15.2587 8.2513L11.7003 6.8263C10.6087 6.4013 9.39199 6.4013 8.29199 6.83464L4.74199 8.25964C4.46699 8.3763 4.16699 8.16797 4.16699 7.8763V6.66797C4.16699 5.29297 5.29199 4.16797 6.66699 4.16797H13.3337C14.7087 4.16797 15.8337 5.29297 15.8337 6.66797Z" fill="white"/>
<path d="M12.0837 4.16797H7.91699V2.5013C7.91699 2.04297 8.29199 1.66797 8.75033 1.66797H11.2503C11.7087 1.66797 12.0837 2.04297 12.0837 2.5013V4.16797Z" fill="white"/>
</svg>
