<svg width="20" height="20" viewBox="0 0 20 20" fill="none" xmlns="http://www.w3.org/2000/svg">
<path d="M6.50052 18.4589C4.29219 18.4589 2.49219 16.6672 2.49219 14.4505V12.0839C2.49219 11.5255 3.04219 11.1505 3.56719 11.3339C3.78385 11.4089 4.00052 11.4589 4.22552 11.4922C4.32552 11.5089 4.42552 11.5255 4.52552 11.5255C4.65052 11.5422 4.78385 11.5505 4.90885 11.5505C5.83385 11.5505 6.75052 11.2089 7.47552 10.6172C8.16719 11.2089 9.05883 11.5505 10.0088 11.5505C10.9588 11.5505 11.8422 11.2255 12.5338 10.6255C13.2505 11.2089 14.1505 11.5505 15.0672 11.5505C15.2088 11.5505 15.3588 11.5422 15.4922 11.5255C15.5922 11.5172 15.6755 11.5089 15.7672 11.4922C16.0172 11.4589 16.2422 11.3922 16.4672 11.3172C16.9838 11.1422 17.5255 11.5255 17.5255 12.0672V14.4505C17.5255 16.6589 15.7338 18.4589 13.5172 18.4589H6.50052Z" fill="white"/>
<path d="M18.3169 7.15964L18.0836 4.94297C17.7502 2.5263 16.6502 1.54297 14.3002 1.54297H12.4169H11.2336H8.80024H7.60854H5.68354C3.33354 1.54297 2.24187 2.5263 1.9002 4.96797L1.68354 7.16797C1.6002 8.0263 1.83354 8.85963 2.34187 9.50963C2.9502 10.3013 3.88354 10.7513 4.9252 10.7513C5.93354 10.7513 6.9002 10.243 7.50854 9.43463C8.0502 10.243 8.98358 10.7513 10.0169 10.7513C11.0502 10.7513 11.9586 10.268 12.5086 9.46796C13.1252 10.2596 14.0752 10.7513 15.0752 10.7513C16.1419 10.7513 17.1002 10.2763 17.7002 9.44296C18.1836 8.80129 18.4002 7.99297 18.3169 7.15964ZM11.2502 6.44297H10.6252V7.09297C10.6252 7.44297 10.3419 7.71797 10.0002 7.71797C9.65858 7.71797 9.37524 7.44297 9.37524 7.09297V6.44297H8.75024C8.40858 6.44297 8.1252 6.16797 8.1252 5.81797C8.1252 5.4763 8.40858 5.19297 8.75024 5.19297H9.37524V4.6013C9.37524 4.25964 9.65858 3.9763 10.0002 3.9763C10.3419 3.9763 10.6252 4.25964 10.6252 4.6013V5.19297H11.2502C11.5919 5.19297 11.8752 5.4763 11.8752 5.81797C11.8752 6.16797 11.5919 6.44297 11.2502 6.44297Z" fill="white"/>
</svg>
