<svg width="20" height="20" viewBox="0 0 20 20" fill="none" xmlns="http://www.w3.org/2000/svg">
<path d="M18.633 6.89297L18.3913 4.58464C18.0413 2.06797 16.8998 1.04297 14.4581 1.04297H12.4913H11.2581H8.72475H7.49137H5.49138C3.04138 1.04297 1.90804 2.06797 1.54971 4.60964L1.32471 6.9013C1.24137 7.79297 1.48304 8.65964 2.00804 9.33464C2.64137 10.1596 3.61637 10.6263 4.69971 10.6263C5.74971 10.6263 6.75804 10.1013 7.39137 9.25963C7.95804 10.1013 8.92475 10.6263 9.99975 10.6263C11.0747 10.6263 12.0163 10.1263 12.5913 9.29297C13.233 10.118 14.2247 10.6263 15.258 10.6263C16.3663 10.6263 17.3663 10.1346 17.9913 9.26797C18.4913 8.6013 18.7163 7.75964 18.633 6.89297Z" fill="white"/>
<path d="M9.4589 13.8848C8.40057 13.9932 7.60059 14.8932 7.60059 15.9598V18.2432C7.60059 18.4682 7.78392 18.6515 8.00892 18.6515H11.9839C12.2089 18.6515 12.3922 18.4682 12.3922 18.2432V16.2515C12.4006 14.5098 11.3756 13.6848 9.4589 13.8848Z" fill="white"/>
<path d="M17.8081 12.001V14.4844C17.8081 16.7844 15.9414 18.651 13.6414 18.651C13.4164 18.651 13.2331 18.4677 13.2331 18.2427V16.251C13.2331 15.1844 12.9081 14.351 12.2748 13.7844C11.7164 13.276 10.9581 13.026 10.0164 13.026C9.80809 13.026 9.59976 13.0344 9.37476 13.0594C7.89141 13.2094 6.76641 14.4594 6.76641 15.9594V18.2427C6.76641 18.4677 6.58307 18.651 6.35807 18.651C4.05807 18.651 2.19141 16.7844 2.19141 14.4844V12.0177C2.19141 11.4344 2.76641 11.0427 3.30807 11.2344C3.53307 11.3094 3.75807 11.3677 3.99141 11.401C4.09141 11.4177 4.19974 11.4344 4.29974 11.4344C4.43307 11.451 4.56641 11.4594 4.69974 11.4594C5.66641 11.4594 6.61641 11.101 7.36641 10.4844C8.08307 11.101 9.01642 11.4594 9.99976 11.4594C10.9914 11.4594 11.9081 11.1177 12.6248 10.501C13.3748 11.1094 14.3081 11.4594 15.2581 11.4594C15.4081 11.4594 15.5581 11.451 15.6998 11.4344C15.7998 11.426 15.8914 11.4177 15.9831 11.401C16.2414 11.3677 16.4748 11.2927 16.7081 11.2177C17.2498 11.0344 17.8081 11.4344 17.8081 12.001Z" fill="white"/>
</svg>
