<svg width="20" height="20" viewBox="0 0 20 20" fill="none" xmlns="http://www.w3.org/2000/svg">
<path d="M18.1249 14.9847C18.1249 14.968 18.1166 14.9514 18.1166 14.9347C18.1083 14.868 18.0999 14.8014 18.0749 14.743C18.0416 14.668 17.9999 14.6097 17.9499 14.5514C17.9499 14.5514 17.9499 14.543 17.9416 14.543C17.8833 14.4847 17.8166 14.443 17.7416 14.4097C17.6666 14.3764 17.5833 14.3597 17.4999 14.3597L13.6083 14.3764C13.6083 14.3764 13.6083 14.3764 13.5999 14.3764C13.0999 14.3764 12.6166 14.143 12.3166 13.743L11.2999 12.4347C11.0916 12.1597 10.6999 12.1097 10.4249 12.3264C10.1499 12.543 10.0999 12.9264 10.3166 13.2014L11.3333 14.5097C11.8749 15.2097 12.7249 15.6264 13.6083 15.6264H13.6166L15.9916 15.618L15.3999 16.2097C15.1583 16.4514 15.1583 16.8514 15.3999 17.093C15.5249 17.218 15.6833 17.2764 15.8416 17.2764C15.9999 17.2764 16.1583 17.218 16.2833 17.093L17.9499 15.4264C18.0083 15.368 18.0499 15.3014 18.0833 15.2264C18.1083 15.143 18.1249 15.0597 18.1249 14.9847Z" fill="white"/>
<path d="M7.01667 5.57448C6.475 4.82448 5.60833 4.38281 4.68333 4.38281C4.675 4.38281 4.675 4.38281 4.66667 4.38281L2.5 4.39115C2.15833 4.39115 1.875 4.67448 1.875 5.01615C1.875 5.35781 2.15833 5.64115 2.5 5.64115L4.675 5.63281H4.68333C5.20833 5.63281 5.7 5.88281 6 6.30781L6.9 7.55781C7.025 7.72448 7.21667 7.81615 7.40833 7.81615C7.53333 7.81615 7.66667 7.77448 7.775 7.69948C8.05833 7.49115 8.11667 7.09947 7.91667 6.82447L7.01667 5.57448Z" fill="white"/>
<path d="M18.1167 5.06562C18.1167 5.04896 18.125 5.03229 18.125 5.02396C18.125 4.94063 18.1083 4.85729 18.075 4.78229C18.0417 4.70729 18 4.64062 17.9417 4.58229L16.275 2.91562C16.0333 2.67396 15.6333 2.67396 15.3917 2.91562C15.15 3.15729 15.15 3.55729 15.3917 3.79896L15.9833 4.39062L13.7083 4.38229C13.7 4.38229 13.7 4.38229 13.6917 4.38229C12.7333 4.38229 11.8333 4.85729 11.3 5.66563L5.975 13.649C5.675 14.099 5.16667 14.374 4.625 14.374H4.61667L2.5 14.3573C2.15833 14.3573 1.875 14.6323 1.875 14.9823C1.875 15.324 2.15 15.6073 2.5 15.6073L4.625 15.6156C4.63333 15.6156 4.63333 15.6156 4.64167 15.6156C5.60833 15.6156 6.5 15.1406 7.03333 14.3323L12.3583 6.34896C12.6583 5.89896 13.1667 5.62396 13.7083 5.62396H13.7167L17.5 5.64062C17.5833 5.64062 17.6583 5.62396 17.7417 5.59062C17.8167 5.55729 17.8833 5.51563 17.9417 5.45729C17.9417 5.45729 17.9417 5.44896 17.95 5.44896C18 5.39062 18.05 5.33229 18.075 5.25729C18.1 5.19896 18.1083 5.13229 18.1167 5.06562Z" fill="white"/>
</svg>
