<svg width="20" height="20" viewBox="0 0 20 20" fill="none" xmlns="http://www.w3.org/2000/svg">
<path d="M10.0003 18.9596C5.05866 18.9596 1.04199 14.943 1.04199 10.0013C1.04199 8.75964 1.292 7.56797 1.78367 6.43464C1.92533 6.11797 2.29199 5.9763 2.60866 6.10964C2.92533 6.2513 3.06701 6.61798 2.93368 6.93464C2.51701 7.90131 2.30033 8.93464 2.30033 10.0013C2.30033 14.2513 5.75867 17.7096 10.0087 17.7096C14.2587 17.7096 17.717 14.2513 17.717 10.0013C17.717 5.7513 14.2587 2.29297 10.0087 2.29297C8.93366 2.29297 7.88364 2.50964 6.90864 2.94297C6.60031 3.08464 6.22532 2.94296 6.08365 2.62629C5.94198 2.30963 6.08365 1.94297 6.40032 1.8013C7.54198 1.3013 8.75033 1.04297 10.0087 1.04297C14.9503 1.04297 18.967 5.05964 18.967 10.0013C18.967 14.943 14.942 18.9596 10.0003 18.9596Z" fill="white"/>
<path d="M13.3333 12.707V9.9987C13.3333 8.04036 11.75 6.45703 9.79167 6.45703C7.83333 6.45703 6.25 8.04036 6.25 9.9987C6.25 11.957 7.83333 13.5404 9.79167 13.5404H12.5C12.9583 13.5404 13.3333 13.1654 13.3333 12.707Z" fill="white"/>
<path d="M4.16725 5.731C5.0325 5.731 5.73393 5.02957 5.73393 4.16433C5.73393 3.29908 5.0325 2.59766 4.16725 2.59766C3.30201 2.59766 2.60059 3.29908 2.60059 4.16433C2.60059 5.02957 3.30201 5.731 4.16725 5.731Z" fill="white"/>
</svg>
