<svg width="20" height="20" viewBox="0 0 20 20" fill="none" xmlns="http://www.w3.org/2000/svg">
<path d="M1.66699 6.50807V13.4914C1.66699 14.7331 1.96699 15.7664 2.54199 16.5581C2.78366 16.9081 3.09199 17.2164 3.44199 17.4581C4.12533 17.9581 4.99199 18.2497 6.01699 18.3164V1.69141C3.28366 1.86641 1.66699 3.64141 1.66699 6.50807Z" fill="white"/>
<path d="M17.4582 3.44297C17.2166 3.09297 16.9082 2.78464 16.5582 2.54297C15.7666 1.96797 14.7332 1.66797 13.4916 1.66797H7.2666V18.3346H13.4916C16.5249 18.3346 18.3332 16.5263 18.3332 13.493V6.50964C18.3332 5.26797 18.0332 4.23464 17.4582 3.44297ZM12.9166 11.693C13.1582 11.9346 13.1582 12.3346 12.9166 12.5763C12.7916 12.7013 12.6332 12.7596 12.4749 12.7596C12.3166 12.7596 12.1582 12.7013 12.0332 12.5763L9.89991 10.443C9.65824 10.2013 9.65824 9.8013 9.89991 9.55964L12.0332 7.4263C12.2749 7.18464 12.6749 7.18464 12.9166 7.4263C13.1582 7.66797 13.1582 8.06797 12.9166 8.30964L11.2332 10.0013L12.9166 11.693Z" fill="white"/>
</svg>
