<svg width="20" height="20" viewBox="0 0 20 20" fill="none" xmlns="http://www.w3.org/2000/svg">
<path d="M2.54095 16.5594C2.78262 16.9094 3.09095 17.2177 3.44095 17.4594C4.23262 18.0344 5.26595 18.3344 6.50762 18.3344H13.4909C16.3576 18.3344 18.1326 16.7177 18.3076 13.9844H1.68262C1.74928 15.0094 2.04095 15.876 2.54095 16.5594Z" fill="white"/>
<path d="M17.4587 3.44297C17.217 3.09297 16.9087 2.78464 16.5587 2.54297C15.767 1.96797 14.7337 1.66797 13.492 1.66797H6.50866C3.47533 1.66797 1.66699 3.4763 1.66699 6.50964V12.7346H18.3337V6.50964C18.3337 5.26797 18.0337 4.23464 17.4587 3.44297ZM12.5753 7.96797L10.442 10.1013C10.2003 10.343 9.80033 10.343 9.55866 10.1013L7.42533 7.96797C7.30033 7.84297 7.24199 7.68464 7.24199 7.5263C7.24199 7.36797 7.30033 7.2013 7.42533 7.08464C7.66699 6.83464 8.06699 6.83464 8.30866 7.08464L10.0003 8.76797L11.692 7.0763C11.9337 6.83464 12.3337 6.83464 12.5753 7.0763C12.817 7.31797 12.817 7.71797 12.5753 7.96797Z" fill="white"/>
</svg>
