<svg width="20" height="20" viewBox="0 0 20 20" fill="none" xmlns="http://www.w3.org/2000/svg">
<path d="M6.50866 1.66797C5.26699 1.66797 4.23366 1.96797 3.44199 2.54297C3.09199 2.78464 2.78366 3.09297 2.54199 3.44297C1.96699 4.23464 1.66699 5.26797 1.66699 6.50964V13.493C1.66699 16.5263 3.47533 18.3346 6.50866 18.3346H12.7337V1.66797H6.50866ZM10.1003 10.443L7.96699 12.5763C7.84199 12.7013 7.68366 12.7596 7.52533 12.7596C7.36699 12.7596 7.20866 12.7013 7.08366 12.5763C6.84199 12.3346 6.84199 11.9346 7.08366 11.693L8.76699 10.0013L7.08366 8.30964C6.83366 8.06797 6.83366 7.66797 7.08366 7.4263C7.33366 7.18464 7.72533 7.18464 7.96699 7.4263L10.1003 9.55964C10.342 9.8013 10.342 10.2013 10.1003 10.443Z" fill="white"/>
<path d="M13.9834 1.69141V18.3164C15.0084 18.2497 15.8751 17.9581 16.5584 17.4581C16.9084 17.2164 17.2167 16.9081 17.4584 16.5581C18.0334 15.7664 18.3334 14.7331 18.3334 13.4914V6.50807C18.3334 3.64141 16.7167 1.86641 13.9834 1.69141Z" fill="white"/>
</svg>
