<svg width="20" height="20" viewBox="0 0 20 20" fill="none" xmlns="http://www.w3.org/2000/svg">
<path d="M17.4581 3.44297C17.2164 3.09297 16.9081 2.78464 16.5581 2.54297C15.7664 1.96797 14.7331 1.66797 13.4914 1.66797H6.50807C3.64141 1.66797 1.86641 3.28464 1.69141 6.01797H18.3164C18.2498 4.99297 17.9581 4.1263 17.4581 3.44297Z" fill="white"/>
<path d="M1.66699 13.4906C1.66699 14.7323 1.96699 15.7656 2.54199 16.5573C2.78366 16.9073 3.09199 17.2156 3.44199 17.4573C4.23366 18.0323 5.26699 18.3323 6.50866 18.3323H13.492C16.5253 18.3323 18.3337 16.524 18.3337 13.4906V7.26562H1.66699V13.4906ZM7.42533 12.0323L9.55866 9.89896C9.80033 9.65729 10.2003 9.65729 10.442 9.89896L12.5753 12.0323C12.7003 12.1573 12.7587 12.3156 12.7587 12.474C12.7587 12.6323 12.7003 12.7906 12.5753 12.9156C12.3337 13.1573 11.9337 13.1573 11.692 12.9156L10.0003 11.2323L8.30866 12.9156C8.06699 13.1573 7.66699 13.1573 7.42533 12.9156C7.18366 12.674 7.18366 12.2823 7.42533 12.0323Z" fill="white"/>
</svg>
