<svg width="20" height="20" viewBox="0 0 20 20" fill="none" xmlns="http://www.w3.org/2000/svg">
<path d="M15.2832 11.7763L13.4665 10.318C13.2082 10.118 12.8832 10.0013 12.5498 10.0013H10.6248V7.5013H14.3498C15.1582 7.5013 15.8082 6.8513 15.8082 6.04297V3.1263C15.8082 2.31797 15.1582 1.66797 14.3498 1.66797H7.46654C7.14154 1.66797 6.81654 1.78464 6.5582 1.98464L4.7332 3.44297C4.0082 4.0263 4.0082 5.14297 4.7332 5.7263L6.5582 7.18464C6.81654 7.38464 7.14154 7.5013 7.46654 7.5013H9.37484V10.0013H5.66654C4.8582 10.0013 4.2082 10.6513 4.2082 11.4596V14.3763C4.2082 15.1846 4.8582 15.8346 5.66654 15.8346H9.37484V17.7096H7.49987C7.1582 17.7096 6.87487 17.993 6.87487 18.3346C6.87487 18.6763 7.1582 18.9596 7.49987 18.9596H12.4998C12.8415 18.9596 13.1248 18.6763 13.1248 18.3346C13.1248 17.993 12.8415 17.7096 12.4998 17.7096H10.6248V15.8346H12.5498C12.8832 15.8346 13.2082 15.718 13.4665 15.518L15.2832 14.0596C16.0165 13.4763 16.0165 12.3596 15.2832 11.7763Z" fill="white"/>
</svg>
