<svg width="20" height="20" viewBox="0 0 20 20" fill="none" xmlns="http://www.w3.org/2000/svg">
<path d="M16.2833 5.4513L13.725 2.89297C12.9417 2.10964 11.8833 1.66797 10.775 1.66797H6.66667C4.16667 1.66797 2.5 3.33464 2.5 5.83464V14.168C2.5 16.668 4.16667 18.3346 6.66667 18.3346H13.3333C15.8333 18.3346 17.5 16.668 17.5 14.168V8.39297C17.5 7.28463 17.0583 6.2263 16.2833 5.4513ZM8.35833 14.5596C8.6 14.8013 8.6 15.2013 8.35833 15.443C8.23333 15.568 8.075 15.6263 7.91667 15.6263C7.75833 15.6263 7.6 15.568 7.475 15.443L5.80833 13.7763C5.56667 13.5346 5.56667 13.1346 5.80833 12.893L7.475 11.2263C7.71667 10.9846 8.11667 10.9846 8.35833 11.2263C8.6 11.468 8.6 11.868 8.35833 12.1096L7.13333 13.3346L8.35833 14.5596ZM14.1917 13.7763L12.525 15.443C12.4 15.568 12.2417 15.6263 12.0833 15.6263C11.925 15.6263 11.7667 15.568 11.6417 15.443C11.4 15.2013 11.4 14.8013 11.6417 14.5596L12.8667 13.3346L11.6417 12.1096C11.4 11.868 11.4 11.468 11.6417 11.2263C11.8833 10.9846 12.2833 10.9846 12.525 11.2263L14.1917 12.893C14.4333 13.1346 14.4333 13.5346 14.1917 13.7763Z" fill="white"/>
</svg>
