<svg width="20" height="20" viewBox="0 0 20 20" fill="none" xmlns="http://www.w3.org/2000/svg">
<path d="M13.3337 10.5765V15.0682C13.3337 17.0182 12.0337 18.3099 10.092 18.3099H4.90866C2.96699 18.3099 1.66699 17.0182 1.66699 15.0682V8.59321C1.66699 6.64323 2.96699 5.35156 4.90866 5.35156H8.10033C8.95866 5.35156 9.78366 5.69323 10.392 6.30156L12.3837 8.2849C12.992 8.89321 13.3337 9.71821 13.3337 10.5765Z" fill="white"/>
<path d="M18.3326 6.87396V11.3656C18.3326 13.3073 17.0326 14.6073 15.0909 14.6073H14.1659V10.574C14.1659 9.49896 13.7326 8.44896 12.9743 7.69062L10.9826 5.70729C10.2243 4.94896 9.17426 4.51563 8.09928 4.51563H6.68262C6.83262 2.78229 8.09095 1.64062 9.90759 1.64062H13.0993C13.9576 1.64062 14.7826 1.98229 15.3909 2.59062L17.3826 4.58229C17.9909 5.19063 18.3326 6.01563 18.3326 6.87396Z" fill="white"/>
</svg>
