<svg width="20" height="20" viewBox="0 0 20 20" fill="none" xmlns="http://www.w3.org/2000/svg">
<path d="M16.2833 5.4513L13.725 2.89297C12.9417 2.10964 11.8833 1.66797 10.775 1.66797H6.66667C4.16667 1.66797 2.5 3.33464 2.5 5.83464V14.168C2.5 16.668 4.16667 18.3346 6.66667 18.3346H13.3333C15.8333 18.3346 17.5 16.668 17.5 14.168V8.39297C17.5 7.28463 17.0583 6.2263 16.2833 5.4513ZM9.58333 15.0013C9.58333 15.2314 9.39675 15.418 9.16667 15.418H8.33333C6.95833 15.418 5.83333 14.293 5.83333 12.918V12.5013C5.83333 12.2712 6.01988 12.0846 6.25 12.0846H9.375C9.49167 12.0846 9.58333 12.1763 9.58333 12.293V15.0013ZM9.58333 11.043C9.58333 11.1596 9.49167 11.2513 9.375 11.2513H6.25C6.01988 11.2513 5.83333 11.0647 5.83333 10.8346V10.418C5.83333 9.04297 6.95833 7.91797 8.33333 7.91797H9.16667C9.39675 7.91797 9.58333 8.10452 9.58333 8.33464V11.043ZM14.1667 12.918C14.1667 14.293 13.0417 15.418 11.6667 15.418H10.8333C10.6032 15.418 10.4167 15.2314 10.4167 15.0013V12.293C10.4167 12.1763 10.5083 12.0846 10.625 12.0846H13.75C13.9801 12.0846 14.1667 12.2712 14.1667 12.5013V12.918ZM14.1667 10.8346C14.1667 11.0647 13.9801 11.2513 13.75 11.2513H10.625C10.5083 11.2513 10.4167 11.1596 10.4167 11.043V8.33464C10.4167 8.10452 10.6032 7.91797 10.8333 7.91797H11.6667C13.0417 7.91797 14.1667 9.04297 14.1667 10.418V10.8346Z" fill="white"/>
</svg>
