<svg width="20" height="20" viewBox="0 0 20 20" fill="none" xmlns="http://www.w3.org/2000/svg">
<path d="M18.3078 4.58464V7.91797C18.3078 9.38589 17.2249 10.604 15.8066 10.8054C15.5788 10.8378 15.3911 10.6481 15.3911 10.418V10.2096C15.3911 7.10964 12.8745 4.58464 9.76615 4.58464H9.55782C9.32773 4.58464 9.13807 4.39702 9.17065 4.16922C9.3729 2.75695 10.5905 1.66797 12.0578 1.66797H15.3911C17.0078 1.66797 18.3078 2.9763 18.3078 4.58464Z" fill="white"/>
<path d="M9.76658 5.83203H9.14158H5.80827C3.50827 5.83203 1.6416 7.6987 1.6416 9.9987V14.1654C1.6416 16.4654 3.50827 18.332 5.80827 18.332H9.97491C12.2749 18.332 14.1416 16.4654 14.1416 14.1654V10.832V10.207C14.1416 7.79036 12.1832 5.83203 9.76658 5.83203Z" fill="white"/>
</svg>
