<svg width="20" height="20" viewBox="0 0 20 20" fill="none" xmlns="http://www.w3.org/2000/svg">
<path d="M12.1171 1.56641C11.0921 1.56641 10.2588 2.39972 10.2588 3.42472V7.2914C10.2588 8.3164 11.0921 9.14977 12.1171 9.14977C13.1421 9.14977 13.9755 8.3164 13.9755 7.2914V3.42472C13.9755 2.40806 13.1421 1.56641 12.1171 1.56641Z" fill="white"/>
<path d="M16.8169 5.92578C15.9252 5.92578 15.2002 6.65078 15.2002 7.54245V8.8508C15.2002 9.0258 15.3419 9.16747 15.5169 9.16747H16.8252C17.7169 9.16747 18.4419 8.44246 18.4419 7.55079C18.4419 6.65912 17.7085 5.92578 16.8169 5.92578Z" fill="white"/>
<path d="M7.0834 5.82422H3.21673C2.19173 5.82422 1.3584 6.65757 1.3584 7.68257C1.3584 8.70753 2.19173 9.54094 3.21673 9.54094H7.0834C8.1084 9.54094 8.94175 8.70753 8.94175 7.68257C8.94175 6.65757 8.1084 5.82422 7.0834 5.82422Z" fill="white"/>
<path d="M7.32466 1.34766C6.43299 1.34766 5.70801 2.07266 5.70801 2.96432C5.70801 3.85599 6.43299 4.581 7.32466 4.581H8.63301C8.80801 4.581 8.94967 4.43932 8.94967 4.26432V2.95598C8.94134 2.08098 8.21633 1.34766 7.32466 1.34766Z" fill="white"/>
<path d="M7.85832 10.8594C6.83332 10.8594 6 11.6927 6 12.7177V16.5844C6 17.6094 6.83332 18.4427 7.85832 18.4427C8.88333 18.4427 9.71667 17.6094 9.71667 16.5844V12.7177C9.71667 11.6927 8.88333 10.8594 7.85832 10.8594Z" fill="white"/>
<path d="M4.46698 10.8594H3.15864C2.26698 10.8594 1.54199 11.5844 1.54199 12.476C1.54199 13.3677 2.26698 14.0927 3.15864 14.0927C4.05032 14.0927 4.77532 13.3677 4.77532 12.476V11.1677C4.77532 11.001 4.63365 10.8594 4.46698 10.8594Z" fill="white"/>
<path d="M16.7582 10.4766H12.8915C11.8665 10.4766 11.0332 11.3099 11.0332 12.3349C11.0332 13.3599 11.8665 14.1932 12.8915 14.1932H16.7582C17.7832 14.1932 18.6165 13.3599 18.6165 12.3349C18.6165 11.3099 17.7832 10.4766 16.7582 10.4766Z" fill="white"/>
<path d="M12.6504 15.3906H11.3421C11.1671 15.3906 11.0254 15.5323 11.0254 15.7073V17.0156C11.0254 17.9073 11.7504 18.6323 12.6421 18.6323C13.5337 18.6323 14.2587 17.9073 14.2587 17.0156C14.2671 16.1156 13.5421 15.3906 12.6504 15.3906Z" fill="white"/>
</svg>
