<svg width="20" height="20" viewBox="0 0 20 20" fill="none" xmlns="http://www.w3.org/2000/svg">
<path d="M16.2753 4.60964L4.60866 16.2763C4.59199 16.293 4.58366 16.3013 4.56699 16.3096C4.25033 16.043 3.95866 15.7513 3.69199 15.4346C2.42533 13.9763 1.66699 12.0763 1.66699 10.0013C1.66699 5.4013 5.40033 1.66797 10.0003 1.66797C12.0753 1.66797 13.9753 2.4263 15.4337 3.69297C15.7503 3.95964 16.042 4.2513 16.3087 4.56797C16.3003 4.58464 16.292 4.59297 16.2753 4.60964Z" fill="white"/>
<path d="M18.3328 10.0013C18.3328 14.5763 14.5744 18.3346 9.99943 18.3346C8.74943 18.3346 7.56606 18.0596 6.4994 17.5596C5.98273 17.318 5.88273 16.6263 6.28273 16.218L16.2161 6.28468C16.6161 5.88468 17.3161 5.98468 17.5578 6.50135C18.0578 7.55968 18.3328 8.75132 18.3328 10.0013Z" fill="white"/>
<path d="M18.1417 1.85938C17.8917 1.60937 17.4834 1.60937 17.2334 1.85938L1.8584 17.2427C1.6084 17.4927 1.6084 17.9011 1.8584 18.1511C1.9834 18.2677 2.14173 18.3344 2.3084 18.3344C2.47507 18.3344 2.6334 18.2677 2.7584 18.1427L18.1417 2.75938C18.4001 2.50937 18.4001 2.10938 18.1417 1.85938Z" fill="white"/>
</svg>
