<svg width="20" height="20" viewBox="0 0 20 20" fill="none" xmlns="http://www.w3.org/2000/svg">
<path d="M7.5 18.3346H12.5C13.8833 18.3346 15 17.218 15 15.8346V4.16797C15 2.78464 13.8833 1.66797 12.5 1.66797H7.5C6.11667 1.66797 5 2.78464 5 4.16797V15.8346C5 17.218 6.11667 18.3346 7.5 18.3346Z" fill="white"/>
<path d="M3.75033 4.93972V15.0564C3.75033 15.323 3.50866 15.5147 3.25033 15.4647C2.01699 15.2397 1.66699 14.523 1.66699 12.773V7.22306C1.66699 5.47306 2.01699 4.75639 3.25033 4.53139C3.50866 4.48139 3.75033 4.67306 3.75033 4.93972Z" fill="white"/>
<path d="M18.3333 7.22306V12.773C18.3333 14.523 17.9833 15.2397 16.75 15.4647C16.4917 15.5147 16.25 15.3147 16.25 15.0564V4.93972C16.25 4.67306 16.4917 4.48139 16.75 4.53139C17.9833 4.75639 18.3333 5.47306 18.3333 7.22306Z" fill="white"/>
</svg>
