<svg width="20" height="20" viewBox="0 0 20 20" fill="none" xmlns="http://www.w3.org/2000/svg">
<path d="M15.7825 2.91797H4.21582C3.87415 2.91797 3.59082 2.63464 3.59082 2.29297C3.59082 1.9513 3.87415 1.66797 4.21582 1.66797H15.7825C16.1242 1.66797 16.4075 1.9513 16.4075 2.29297C16.4075 2.63464 16.1242 2.91797 15.7825 2.91797Z" fill="white"/>
<path d="M15.7825 18.332H4.21582C3.87415 18.332 3.59082 18.0487 3.59082 17.707C3.59082 17.3654 3.87415 17.082 4.21582 17.082H15.7825C16.1242 17.082 16.4075 17.3654 16.4075 17.707C16.4075 18.0487 16.1242 18.332 15.7825 18.332Z" fill="white"/>
<path d="M2.29199 6.66797V13.3346C2.29199 14.718 3.40866 15.8346 4.79199 15.8346H15.2087C16.592 15.8346 17.7087 14.718 17.7087 13.3346V6.66797C17.7087 5.28464 16.592 4.16797 15.2087 4.16797H4.79199C3.40866 4.16797 2.29199 5.28464 2.29199 6.66797Z" fill="white"/>
</svg>
