<svg width="20" height="20" viewBox="0 0 20 20" fill="none" xmlns="http://www.w3.org/2000/svg">
<path d="M18.3337 12.5V7.5C18.3337 6.11667 17.217 5 15.8337 5H4.16699C2.78366 5 1.66699 6.11667 1.66699 7.5V12.5C1.66699 13.8833 2.78366 15 4.16699 15H15.8337C17.217 15 18.3337 13.8833 18.3337 12.5Z" fill="white"/>
<path d="M4.94168 16.25H15.0583C15.325 16.25 15.5167 16.4917 15.4667 16.75C15.2417 17.9833 14.5167 18.3333 12.775 18.3333H7.22501C5.47501 18.3333 4.75834 17.9833 4.53334 16.75C4.48334 16.4917 4.67501 16.25 4.94168 16.25Z" fill="white"/>
<path d="M7.22501 1.66797H12.775C14.525 1.66797 15.2417 2.01797 15.4667 3.2513C15.5167 3.50964 15.3167 3.7513 15.0583 3.7513H4.94168C4.67501 3.7513 4.48334 3.50964 4.53334 3.2513C4.75834 2.01797 5.47501 1.66797 7.22501 1.66797Z" fill="white"/>
</svg>
