<svg width="20" height="20" viewBox="0 0 20 20" fill="none" xmlns="http://www.w3.org/2000/svg">
<path d="M2.91699 4.21875V15.7854C2.91699 16.127 2.63366 16.4104 2.29199 16.4104C1.95033 16.4104 1.66699 16.127 1.66699 15.7854V4.21875C1.66699 3.87708 1.95033 3.59375 2.29199 3.59375C2.63366 3.59375 2.91699 3.87708 2.91699 4.21875Z" fill="white"/>
<path d="M18.333 4.21875V15.7854C18.333 16.127 18.0497 16.4104 17.708 16.4104C17.3663 16.4104 17.083 16.127 17.083 15.7854V4.21875C17.083 3.87708 17.3663 3.59375 17.708 3.59375C18.0497 3.59375 18.333 3.87708 18.333 4.21875Z" fill="white"/>
<path d="M6.66699 17.7096H13.3337C14.717 17.7096 15.8337 16.593 15.8337 15.2096V4.79297C15.8337 3.40964 14.717 2.29297 13.3337 2.29297H6.66699C5.28366 2.29297 4.16699 3.40964 4.16699 4.79297V15.2096C4.16699 16.593 5.28366 17.7096 6.66699 17.7096Z" fill="white"/>
</svg>
