<svg width="20" height="20" viewBox="0 0 20 20" fill="none" xmlns="http://www.w3.org/2000/svg">
<path d="M15.0003 13.3398C15.4587 13.3398 15.8337 13.7148 15.8337 14.1732V14.9982C15.8337 16.8315 14.5837 18.3315 12.5003 18.3315H7.50033C5.41699 18.3315 4.16699 16.8315 4.16699 14.9982V14.1732C4.16699 13.7148 4.54199 13.3398 5.00033 13.3398H15.0003Z" fill="white"/>
<path d="M15.8337 5.0013V11.2513C15.8337 11.7096 15.4587 12.0846 15.0003 12.0846H5.00033C4.54199 12.0846 4.16699 11.7096 4.16699 11.2513V5.0013C4.16699 3.16797 5.41699 1.66797 7.50033 1.66797H12.5003C14.5837 1.66797 15.8337 3.16797 15.8337 5.0013Z" fill="white"/>
<path d="M2.5 17.2904C2.15833 17.2904 1.875 17.007 1.875 16.6654V3.33203C1.875 2.99036 2.15833 2.70703 2.5 2.70703C2.84167 2.70703 3.125 2.99036 3.125 3.33203V16.6654C3.125 17.007 2.84167 17.2904 2.5 17.2904Z" fill="white"/>
<path d="M17.5 17.2904C17.1583 17.2904 16.875 17.007 16.875 16.6654V3.33203C16.875 2.99036 17.1583 2.70703 17.5 2.70703C17.8417 2.70703 18.125 2.99036 18.125 3.33203V16.6654C18.125 17.007 17.8417 17.2904 17.5 17.2904Z" fill="white"/>
</svg>
