<svg width="20" height="20" viewBox="0 0 20 20" fill="none" xmlns="http://www.w3.org/2000/svg">
<path d="M17.4587 3.44297C17.217 3.09297 16.9087 2.78464 16.5587 2.54297C15.767 1.96797 14.7337 1.66797 13.492 1.66797H6.50866C6.34199 1.66797 6.17533 1.6763 6.01699 1.69297C3.28366 1.86797 1.66699 3.64297 1.66699 6.50964V13.493C1.66699 14.7346 1.96699 15.768 2.54199 16.5596C2.78366 16.9096 3.09199 17.218 3.44199 17.4596C4.12533 17.9596 4.99199 18.2513 6.01699 18.318C6.17533 18.3263 6.34199 18.3346 6.50866 18.3346H13.492C16.5253 18.3346 18.3337 16.5263 18.3337 13.493V6.50964C18.3337 5.26797 18.0337 4.23464 17.4587 3.44297ZM9.49199 13.2346H7.10033C6.75866 13.2346 6.47533 12.9513 6.47533 12.6096C6.47533 12.268 6.75866 11.9846 7.10033 11.9846H7.93366V6.59297H5.79199C5.70033 6.59297 5.62533 6.66797 5.62533 6.75964V7.40964C5.62533 7.7513 5.34199 8.0263 5.00033 8.0263C4.65866 8.0263 4.37533 7.7513 4.37533 7.4013V6.7513C4.37533 5.96797 5.00866 5.33464 5.79199 5.33464H11.3253C12.1087 5.33464 12.742 5.96797 12.742 6.7513V7.4013C12.742 7.74297 12.4587 8.0263 12.117 8.0263C11.7753 8.0263 11.492 7.74297 11.492 7.4013V6.7513C11.492 6.65964 11.417 6.58464 11.3253 6.58464H9.18366V11.9846H9.49199C9.83366 11.9846 10.117 12.268 10.117 12.6096C10.117 12.9513 9.83366 13.2346 9.49199 13.2346ZM15.6253 10.193C15.6253 10.5346 15.342 10.818 15.0003 10.818C14.6587 10.818 14.3753 10.5346 14.3753 10.193V9.91797H13.0837V13.418H13.3753C13.717 13.418 14.0003 13.7013 14.0003 14.043C14.0003 14.3846 13.717 14.668 13.3753 14.668H11.542C11.2003 14.668 10.917 14.3846 10.917 14.043C10.917 13.7013 11.2003 13.418 11.542 13.418H11.8337V9.91797H11.4337C11.092 9.91797 10.8087 9.63463 10.8087 9.29297C10.8087 8.9513 11.092 8.66797 11.4337 8.66797H14.4337C15.092 8.66797 15.6253 9.2013 15.6253 9.85964V10.193Z" fill="white"/>
</svg>
