<svg width="20" height="20" viewBox="0 0 20 20" fill="none" xmlns="http://www.w3.org/2000/svg">
<path d="M17.3834 7.13178L11.6084 2.51511C10.7168 1.79844 9.27508 1.79844 8.39175 2.50678L2.61672 7.13178C1.96672 7.64844 1.55006 8.74011 1.69172 9.55678L2.80006 16.1901C3.00006 17.3734 4.13339 18.3318 5.33339 18.3318H14.6668C15.8584 18.3318 17.0001 17.3651 17.2001 16.1901L18.3084 9.55678C18.4418 8.74011 18.0251 7.64844 17.3834 7.13178ZM7.81672 14.4818C7.35006 14.4818 6.98339 14.1068 6.98339 13.6484C6.98339 13.1901 7.35839 12.8151 7.81672 12.8151C8.27506 12.8151 8.65008 13.1901 8.65008 13.6484C8.65008 14.1068 8.27506 14.4818 7.81672 14.4818ZM10.3251 14.2651C10.3168 14.2651 10.3168 14.2651 10.3084 14.2651C9.96675 14.2651 9.69175 13.9901 9.68342 13.6568C9.65842 12.5318 8.91675 11.7901 7.79173 11.7651C7.45006 11.7568 7.17506 11.4734 7.18339 11.1234C7.19172 10.7818 7.46672 10.5151 7.80839 10.5151C7.81672 10.5151 7.81673 10.5151 7.82506 10.5151C9.61675 10.5568 10.9001 11.8318 10.9334 13.6234C10.9418 13.9734 10.6751 14.2651 10.3251 14.2651ZM12.8168 14.2651C12.4668 14.2651 12.1918 13.9901 12.1834 13.6484C12.1751 13.0984 12.0834 12.5734 11.9168 12.0818C11.4918 10.8651 10.5834 9.96511 9.36675 9.53178C8.87508 9.35678 8.35008 9.26511 7.80005 9.26511C7.45838 9.26511 7.17506 8.98178 7.18339 8.63178C7.18339 8.29011 7.46672 8.01511 7.80839 8.01511H7.81672C8.50842 8.02344 9.16675 8.14011 9.78342 8.35678C11.3584 8.91511 12.5334 10.0901 13.0918 11.6651C13.3084 12.2818 13.4251 12.9484 13.4334 13.6318C13.4418 13.9818 13.1668 14.2651 12.8168 14.2651Z" fill="white"/>
</svg>
