<svg width="20" height="20" viewBox="0 0 20 20" fill="none" xmlns="http://www.w3.org/2000/svg">
<path d="M15.5921 7.90874C15.5087 7.90874 15.4254 7.89208 15.3421 7.85874C15.0254 7.71708 14.8837 7.35041 15.0171 7.03374C15.1754 6.67541 15.0837 6.15041 14.7921 5.71708C14.5004 5.27541 14.0587 4.97541 13.6587 5.00041C13.2921 5.00041 13.0337 4.72541 13.0254 4.38374C13.0254 4.03374 13.3004 3.75874 13.6421 3.75041C14.5004 3.73374 15.3087 4.22541 15.8337 5.01708C16.3671 5.81708 16.4921 6.77541 16.1671 7.52541C16.0671 7.76708 15.8337 7.90874 15.5921 7.90874Z" fill="white"/>
<path d="M18.1831 8.73218C18.1248 8.73218 18.0748 8.72385 18.0165 8.70718C17.6831 8.61552 17.4915 8.27382 17.5831 7.94049C17.8998 6.80716 17.6331 5.45716 16.8748 4.32382C16.1165 3.19049 14.9665 2.43216 13.7915 2.29049C13.4498 2.24882 13.2081 1.94049 13.2498 1.59882C13.2915 1.25716 13.6081 1.00716 13.9415 1.05716C15.4665 1.24049 16.9498 2.20716 17.9081 3.64049C18.8665 5.07382 19.1915 6.80716 18.7831 8.29049C18.7081 8.54885 18.4581 8.73218 18.1831 8.73218Z" fill="white"/>
<path d="M14.2661 9.81872C14.2661 10.0687 14.0578 10.2771 13.8078 10.2771H2.85775C2.60775 10.2771 2.39941 10.0687 2.39941 9.81872C2.39941 9.56872 2.60775 9.36038 2.85775 9.36038H3.47441L3.70775 8.26042C3.92441 7.19375 4.38275 6.21875 6.19941 6.21875H10.4744C12.2911 6.21875 12.7411 7.20208 12.9661 8.26042L13.1994 9.36038H13.8161C14.0578 9.36038 14.2661 9.56872 14.2661 9.81872Z" fill="white"/>
<path d="M14.5248 13.2586C14.4332 12.2586 14.1665 11.1836 12.2165 11.1836H4.44979C2.49979 11.1836 2.23313 12.2586 2.14146 13.2586L1.79979 16.9669C1.75813 17.4253 1.90813 17.8919 2.22479 18.2419C2.54979 18.5919 2.99979 18.7919 3.49146 18.7919H4.63313C5.61646 18.7919 5.80813 18.2253 5.93313 17.8586L6.05813 17.4919C6.19979 17.0753 6.23313 16.9669 6.78313 16.9669H9.89983C10.4498 16.9669 10.4665 17.0253 10.6248 17.4919L10.7498 17.8586C10.8748 18.2336 11.0582 18.7919 12.0498 18.7919H13.1915C13.6748 18.7919 14.1332 18.5919 14.4582 18.2419C14.7748 17.8919 14.9248 17.4336 14.8832 16.9669L14.5248 13.2586ZM6.50813 14.5253H4.68313C4.43313 14.5253 4.22479 14.3169 4.22479 14.0669C4.22479 13.8169 4.43313 13.6086 4.68313 13.6086H6.50813C6.75813 13.6086 6.96646 13.8169 6.96646 14.0669C6.96646 14.3169 6.75813 14.5253 6.50813 14.5253ZM11.9832 14.5253H10.1582C9.90816 14.5253 9.69983 14.3169 9.69983 14.0669C9.69983 13.8169 9.90816 13.6086 10.1582 13.6086H11.9832C12.2332 13.6086 12.4415 13.8169 12.4415 14.0669C12.4415 14.3169 12.2332 14.5253 11.9832 14.5253Z" fill="white"/>
</svg>
