<svg width="20" height="20" viewBox="0 0 20 20" fill="none" xmlns="http://www.w3.org/2000/svg">
<path d="M8.33301 0.832031H3.33301C1.94967 0.832031 0.833008 1.9487 0.833008 3.33203V8.33203C0.833008 9.71536 1.94967 10.832 3.33301 10.832H7.08301C7.08301 8.76536 8.76634 7.08203 10.833 7.08203V3.33203C10.833 1.9487 9.71634 0.832031 8.33301 0.832031ZM3.14134 3.55703C3.78301 3.0987 4.65801 3.09036 5.31634 3.54036C5.59967 3.73203 5.67467 4.1237 5.48301 4.40703C5.29134 4.69036 4.89967 4.76536 4.61634 4.5737C4.39134 4.41536 4.08301 4.41536 3.85801 4.58203C3.74967 4.65703 3.62467 4.69036 3.49967 4.69036C3.30801 4.69036 3.10801 4.5987 2.99134 4.43203C2.79134 4.1487 2.85801 3.75703 3.14134 3.55703ZM7.72467 6.86536C7.50801 7.14036 7.11634 7.18203 6.84967 6.96536C6.55801 6.73203 6.20801 6.60703 5.83301 6.60703C4.99967 6.60703 4.30801 7.24036 4.21634 8.05703H5.96634C6.30801 8.05703 6.59134 8.34036 6.59134 8.68203C6.59134 9.0237 6.30801 9.30703 5.96634 9.30703H4.03301C3.44134 9.30703 2.95801 8.8237 2.95801 8.23203C2.95801 6.6487 4.24967 5.35703 5.83301 5.35703C6.48301 5.35703 7.12467 5.58203 7.63301 5.99036C7.89967 6.20703 7.94134 6.5987 7.72467 6.86536ZM8.81634 4.40703C8.62467 4.69036 8.23301 4.76536 7.94967 4.5737C7.72467 4.41536 7.41634 4.41536 7.19134 4.58203C7.08301 4.65703 6.95801 4.69036 6.83301 4.69036C6.64134 4.69036 6.44134 4.5987 6.32467 4.43203C6.12467 4.1487 6.19134 3.75703 6.47467 3.55703C7.11634 3.0987 7.99134 3.09036 8.64967 3.54036C8.93301 3.73203 9.00801 4.1237 8.81634 4.40703Z" fill="white"/>
<path d="M15.1826 13.9008C15.1243 13.8341 15.0409 13.8008 14.9493 13.8008H11.7159C11.6243 13.8008 11.5409 13.8341 11.4826 13.9008C11.4243 13.9674 11.3909 14.0591 11.4076 14.1424C11.5159 15.1258 12.3409 15.8758 13.3326 15.8758C14.3243 15.8758 15.1493 15.1341 15.2576 14.1424C15.2659 14.0508 15.2409 13.9674 15.1826 13.9008Z" fill="white"/>
<path d="M15.833 8.33203H10.833C9.45801 8.33203 8.33301 9.45703 8.33301 10.832V15.832C8.33301 17.207 9.45801 18.332 10.833 18.332H15.833C17.208 18.332 18.333 17.207 18.333 15.832V10.832C18.333 9.45703 17.208 8.33203 15.833 8.33203ZM10.4913 10.9737C10.6913 10.6904 11.083 10.6237 11.3663 10.8237C11.5913 10.982 11.8913 10.982 12.1163 10.832C12.3997 10.632 12.7913 10.707 12.983 10.9987C13.1747 11.282 13.108 11.6737 12.8163 11.8654C12.4913 12.082 12.1163 12.1987 11.7413 12.1987C11.3497 12.1987 10.9663 12.082 10.6413 11.8487C10.358 11.6404 10.2913 11.2487 10.4913 10.9737ZM13.333 16.807C11.7497 16.807 10.458 15.5154 10.458 13.932C10.458 13.3404 10.9413 12.857 11.533 12.857H15.133C15.7247 12.857 16.208 13.3404 16.208 13.932C16.208 15.5154 14.9163 16.807 13.333 16.807ZM16.1497 11.857C15.8247 12.0737 15.4497 12.1904 15.0747 12.1904C14.683 12.1904 14.2997 12.0737 13.9747 11.8404C13.6913 11.6404 13.6247 11.2487 13.8247 10.9654C14.0247 10.682 14.4163 10.6154 14.6997 10.8154C14.9247 10.9737 15.2247 10.9737 15.4497 10.8237C15.733 10.6237 16.1247 10.6987 16.3163 10.9904C16.508 11.282 16.433 11.6654 16.1497 11.857Z" fill="white"/>
</svg>
