<svg width="20" height="20" viewBox="0 0 20 20" fill="none" xmlns="http://www.w3.org/2000/svg">
<path d="M14.167 2.5H5.83366C3.33366 2.5 1.66699 3.75 1.66699 6.66667V13.3C1.66699 15.2083 3.20866 16.75 5.11699 16.75H10.3337C10.817 16.75 11.2337 16.3417 11.1837 15.8583C11.067 14.5833 11.4837 13.2083 12.617 12.1C13.0837 11.6417 13.6587 11.2917 14.2837 11.0917C15.3253 10.7583 16.3337 10.8 17.2253 11.1083C17.767 11.2917 18.3337 10.9 18.3337 10.325V6.66667C18.3337 3.75 16.667 2.5 14.167 2.5ZM14.5587 7.15833L11.9503 9.24167C11.4003 9.68333 10.7003 9.9 10.0003 9.9C9.30033 9.9 8.59199 9.68333 8.05033 9.24167L5.44199 7.15833C5.17533 6.94167 5.13366 6.55 5.34199 6.275C5.55866 6.00833 5.95033 5.95833 6.21699 6.175L8.82533 8.25833C9.45866 8.76667 10.5337 8.76667 11.167 8.25833L13.7753 6.175C14.042 5.95833 14.442 6 14.6503 6.275C14.867 6.55 14.8253 6.94167 14.5587 7.15833Z" fill="white"/>
<path d="M18.875 17.8773L18.25 17.2523C18.575 16.7607 18.7667 16.169 18.7667 15.5357C18.7667 13.8023 17.3667 12.4023 15.6333 12.4023C13.9 12.4023 12.5 13.8023 12.5 15.5273C12.5 17.2523 13.9 18.6607 15.6333 18.6607C16.2667 18.6607 16.8583 18.469 17.35 18.144L17.975 18.769C18.1 18.894 18.2583 18.9523 18.425 18.9523C18.5917 18.9523 18.75 18.894 18.875 18.769C19.125 18.5273 19.125 18.1273 18.875 17.8773Z" fill="white"/>
</svg>
