<svg width="20" height="20" viewBox="0 0 20 20" fill="none" xmlns="http://www.w3.org/2000/svg">
<path d="M4.99967 10.832C2.69967 10.832 0.833008 12.6904 0.833008 14.9987C0.833008 17.307 2.69967 19.1654 4.99967 19.1654C7.29967 19.1654 9.16634 17.2987 9.16634 14.9987C9.16634 12.6987 7.30801 10.832 4.99967 10.832ZM3.29967 13.2987H4.99967C5.31634 13.2987 5.56634 13.557 5.56634 13.8654C5.56634 14.1737 5.31634 14.432 4.99967 14.432H3.29967C2.98301 14.432 2.73301 14.1737 2.73301 13.8654C2.73301 13.557 2.98301 13.2987 3.29967 13.2987ZM6.69967 16.6987H3.29967C2.98301 16.6987 2.73301 16.4404 2.73301 16.132C2.73301 15.8237 2.99134 15.5654 3.29967 15.5654H6.70801C7.02467 15.5654 7.27467 15.8237 7.27467 16.132C7.27467 16.4404 7.01634 16.6987 6.69967 16.6987Z" fill="white"/>
<path d="M14.167 2.5H5.83366C3.33366 2.5 1.66699 3.75 1.66699 6.66667V9.28333C1.66699 9.89167 2.29199 10.275 2.85033 10.0333C3.76699 9.63333 4.80866 9.48333 5.90033 9.65833C8.08366 10.0167 9.86699 11.7417 10.3087 13.9083C10.4337 14.5417 10.4503 15.1583 10.367 15.75C10.3003 16.2417 10.7003 16.675 11.192 16.675H14.167C16.667 16.675 18.3337 15.425 18.3337 12.5083V6.66667C18.3337 3.75 16.667 2.5 14.167 2.5ZM14.5587 7.15833L11.9503 9.24167C11.4003 9.68333 10.7003 9.9 10.0003 9.9C9.30033 9.9 8.59199 9.68333 8.05033 9.24167L5.44199 7.15833C5.17533 6.94167 5.13366 6.54167 5.34199 6.275C5.55866 6.00833 5.95033 5.95833 6.21699 6.175L8.82533 8.25833C9.45866 8.76667 10.5337 8.76667 11.167 8.25833L13.7753 6.175C14.042 5.95833 14.442 6 14.6503 6.275C14.867 6.54167 14.8253 6.94167 14.5587 7.15833Z" fill="white"/>
</svg>
