<svg width="20" height="20" viewBox="0 0 20 20" fill="none" xmlns="http://www.w3.org/2000/svg">
<path d="M16.2503 6.66667C17.4009 6.66667 18.3337 5.73392 18.3337 4.58333C18.3337 3.43274 17.4009 2.5 16.2503 2.5C15.0997 2.5 14.167 3.43274 14.167 4.58333C14.167 5.73392 15.0997 6.66667 16.2503 6.66667Z" fill="white"/>
<path d="M16.2503 6.66667C17.4009 6.66667 18.3337 5.73392 18.3337 4.58333C18.3337 3.43274 17.4009 2.5 16.2503 2.5C15.0997 2.5 14.167 3.43274 14.167 4.58333C14.167 5.73392 15.0997 6.66667 16.2503 6.66667Z" fill="white"/>
<path d="M17.267 7.75964C16.6837 7.94297 16.042 7.9763 15.3753 7.80964C14.2587 7.51797 13.3503 6.6263 13.042 5.50964C12.892 4.96797 12.8837 4.43464 12.9753 3.9513C13.0837 3.41797 12.7087 2.91797 12.1753 2.91797H5.83366C3.33366 2.91797 1.66699 4.16797 1.66699 7.08464V12.918C1.66699 15.8346 3.33366 17.0846 5.83366 17.0846H14.167C16.667 17.0846 18.3337 15.8346 18.3337 12.918V8.5513C18.3337 8.0013 17.8003 7.58464 17.267 7.75964ZM12.9337 9.29297L11.9503 10.0763C11.4003 10.518 10.7003 10.7346 10.0003 10.7346C9.30033 10.7346 8.59199 10.518 8.05033 10.0763L5.44199 7.99297C5.17533 7.7763 5.13366 7.3763 5.34199 7.10964C5.55866 6.84297 5.95033 6.79297 6.21699 7.00964L8.82533 9.09297C9.45866 9.6013 10.5337 9.6013 11.167 9.09297L12.1503 8.30964C12.417 8.09297 12.817 8.13464 13.0253 8.40964C13.242 8.6763 13.2003 9.0763 12.9337 9.29297Z" fill="white"/>
</svg>
