<svg width="20" height="20" viewBox="0 0 20 20" fill="none" xmlns="http://www.w3.org/2000/svg">
<path d="M16.2337 2.35026L16.467 2.82526C16.5837 3.0586 16.8753 3.27526 17.1337 3.32526L17.4503 3.37526C18.4003 3.5336 18.6253 4.2336 17.942 4.92526L17.6503 5.21693C17.4587 5.41693 17.3503 5.80026 17.4087 6.06693L17.4503 6.24193C17.7087 7.39193 17.1003 7.8336 16.1003 7.2336L15.8837 7.1086C15.6253 6.9586 15.2087 6.9586 14.9503 7.1086L14.7337 7.2336C13.7253 7.84193 13.117 7.39193 13.3837 6.24193L13.4253 6.06693C13.4837 5.80026 13.3753 5.41693 13.1837 5.21693L12.892 4.91693C12.2087 4.22526 12.4337 3.52526 13.3837 3.36693L13.7003 3.31693C13.9503 3.27526 14.2503 3.05026 14.367 2.81693L14.6003 2.34193C15.0503 1.44193 15.7837 1.44193 16.2337 2.35026Z" fill="white"/>
<path d="M17.9753 8.40964C17.6753 8.6263 16.8337 9.0263 15.6337 8.40964C15.5003 8.34297 15.3337 8.33464 15.2003 8.40964C14.7253 8.6513 14.292 8.7513 13.9503 8.7513C13.417 8.7513 13.042 8.54297 12.8587 8.40964C12.5503 8.18464 11.9003 7.54297 12.1253 6.18464C12.1503 6.04297 12.1087 5.9013 12.017 5.79297C11.442 5.13464 11.1253 4.2513 11.3503 3.55964C11.4337 3.28464 11.2587 2.91797 10.9753 2.91797H5.83366C3.33366 2.91797 1.66699 4.16797 1.66699 7.08464V12.918C1.66699 15.8346 3.33366 17.0846 5.83366 17.0846H14.167C16.667 17.0846 18.3337 15.8346 18.3337 12.918V8.55964C18.3337 8.4013 18.1087 8.31797 17.9753 8.40964ZM11.9503 10.0763C11.4003 10.518 10.7003 10.7346 10.0003 10.7346C9.30033 10.7346 8.59199 10.518 8.05033 10.0763L5.44199 7.99297C5.17533 7.7763 5.13366 7.3763 5.34199 7.10964C5.55866 6.84297 5.95033 6.79297 6.21699 7.00964L8.82533 9.09297C9.45866 9.6013 10.5337 9.6013 11.167 9.09297C11.4337 8.8763 11.8253 8.91797 12.042 9.19297C12.267 9.45964 12.2253 9.85964 11.9503 10.0763Z" fill="white"/>
</svg>
