<svg width="20" height="20" viewBox="0 0 20 20" fill="none" xmlns="http://www.w3.org/2000/svg">
<path d="M14.167 2.5H5.83366C3.33366 2.5 1.66699 3.75 1.66699 6.66667V12.5C1.66699 15.4167 3.33366 16.6667 5.83366 16.6667H8.80866C9.30033 16.6667 9.70033 16.2333 9.63366 15.7417C9.55033 15.15 9.56699 14.5333 9.69199 13.9C10.1337 11.7333 11.917 10.0083 14.1003 9.65C15.192 9.475 16.2337 9.625 17.1503 10.025C17.7087 10.2667 18.3337 9.88333 18.3337 9.275V6.66667C18.3337 3.75 16.667 2.5 14.167 2.5ZM14.5587 7.15833L11.9503 9.24167C11.4003 9.68333 10.7003 9.9 10.0003 9.9C9.30033 9.9 8.59199 9.68333 8.05033 9.24167L5.44199 7.15833C5.17533 6.94167 5.13366 6.55 5.34199 6.275C5.55866 6.00833 5.95033 5.95833 6.21699 6.175L8.82533 8.25833C9.45866 8.76667 10.5337 8.76667 11.167 8.25833L13.7753 6.175C14.042 5.95833 14.442 6 14.6503 6.275C14.867 6.55 14.8253 6.94167 14.5587 7.15833Z" fill="white"/>
<path d="M14.9997 10.832C12.6997 10.832 10.833 12.6904 10.833 14.9987C10.833 17.2987 12.6997 19.1654 14.9997 19.1654C17.308 19.1654 19.1663 17.2987 19.1663 14.9987C19.1663 12.6904 17.308 10.832 14.9997 10.832ZM16.708 14.6237L16.3997 14.9237L14.583 16.7487C14.4997 16.8237 14.3413 16.907 14.2247 16.9237L13.408 17.0404C13.1163 17.082 12.908 16.8737 12.9497 16.582L13.0663 15.7654C13.083 15.6487 13.158 15.4904 13.2413 15.407L15.058 13.5987L15.358 13.2904C15.558 13.0904 15.783 12.957 16.0163 12.957C16.2163 12.957 16.4413 13.0487 16.6913 13.2904C17.2497 13.832 17.0747 14.257 16.708 14.6237Z" fill="white"/>
</svg>
