<svg width="20" height="20" viewBox="0 0 20 20" fill="none" xmlns="http://www.w3.org/2000/svg">
<path d="M14.167 2.91797H5.83366C3.33366 2.91797 1.66699 4.16797 1.66699 7.08464V12.918C1.66699 15.8346 3.33366 17.0846 5.83366 17.0846H14.167C16.667 17.0846 18.3337 15.8346 18.3337 12.918V7.08464C18.3337 4.16797 16.667 2.91797 14.167 2.91797ZM14.5587 7.99297L11.9503 10.0763C11.4003 10.518 10.7003 10.7346 10.0003 10.7346C9.30033 10.7346 8.59199 10.518 8.05033 10.0763L5.44199 7.99297C5.17533 7.7763 5.13366 7.3763 5.34199 7.10964C5.55866 6.84297 5.95033 6.79297 6.21699 7.00964L8.82533 9.09297C9.45866 9.6013 10.5337 9.6013 11.167 9.09297L13.7753 7.00964C14.042 6.79297 14.442 6.83464 14.6503 7.10964C14.867 7.3763 14.8253 7.7763 14.5587 7.99297Z" fill="white"/>
</svg>
