<svg width="20" height="20" viewBox="0 0 20 20" fill="none" xmlns="http://www.w3.org/2000/svg">
<path fill-rule="evenodd" clip-rule="evenodd" d="M10.0003 1.66797C5.40033 1.66797 1.66699 5.4013 1.66699 10.0013C1.66699 14.6013 5.40033 18.3346 10.0003 18.3346C14.6003 18.3346 18.3337 14.6013 18.3337 10.0013C18.3337 5.4013 14.6003 1.66797 10.0003 1.66797ZM14.4253 12.7596C14.1837 12.893 13.9837 12.9513 13.817 12.993C13.6753 13.0263 13.5587 13.0596 13.4587 13.1263C13.3503 13.193 13.342 13.3013 13.3253 13.4013C13.3087 13.493 13.3003 13.568 13.2337 13.618C13.1587 13.668 13.017 13.6763 12.8253 13.6846C12.5753 13.7013 12.2587 13.7096 11.8753 13.8263C11.692 13.893 11.5253 13.993 11.3587 14.093C11.0253 14.3013 10.6503 14.5263 9.99199 14.5263C9.34199 14.5263 8.96699 14.3013 8.63366 14.093C8.46699 13.9846 8.30033 13.8846 8.10867 13.818C7.73367 13.7013 7.40866 13.6846 7.15866 13.6763C6.96699 13.668 6.83367 13.6596 6.75033 13.6096C6.68367 13.568 6.67532 13.4846 6.65865 13.393C6.64198 13.293 6.63365 13.1846 6.52532 13.118C6.42532 13.0513 6.30032 13.018 6.16698 12.9763C6.00032 12.9346 5.80033 12.8846 5.55867 12.7513C5.27533 12.593 5.442 12.5013 5.53367 12.4513C7.142 11.6763 7.39199 10.4763 7.40033 10.3846C7.40033 10.3763 7.40033 10.3763 7.40033 10.368C7.41699 10.268 7.42532 10.1846 7.30865 10.0763C7.23365 10.0013 6.97533 9.83464 6.76699 9.7013C6.67532 9.63464 6.592 9.58464 6.542 9.55964C6.30867 9.39297 6.20867 9.23464 6.28367 9.0263C6.33367 8.88464 6.467 8.83464 6.60033 8.83464C6.642 8.83464 6.692 8.84297 6.72533 8.8513C6.87533 8.88464 7.02533 8.94297 7.15866 8.99297C7.25033 9.03464 7.32532 9.05964 7.38365 9.0763C7.40032 9.08464 7.42533 9.08463 7.43367 9.08463C7.517 9.08463 7.542 9.04297 7.53367 8.95964C7.53367 8.93464 7.53366 8.90964 7.52533 8.88464C7.50866 8.59297 7.48365 8.08464 7.51698 7.61798C7.58365 6.91798 7.80866 6.55964 8.07533 6.25964C8.20866 6.10964 8.81699 5.46797 9.97533 5.46797C11.142 5.46797 11.742 6.10964 11.8753 6.2513C12.142 6.55964 12.367 6.90964 12.4337 7.61798C12.4753 8.10964 12.442 8.63464 12.417 8.9263V8.9513C12.4087 9.04297 12.4337 9.0763 12.517 9.0763C12.5337 9.0763 12.5503 9.0763 12.567 9.06797C12.6253 9.0513 12.7003 9.0263 12.792 8.99297C12.917 8.94297 13.067 8.88464 13.2253 8.8513C13.267 8.83464 13.3087 8.83464 13.3503 8.83464C13.492 8.83464 13.617 8.89297 13.667 9.03464C13.742 9.23464 13.642 9.39297 13.4087 9.55964C13.367 9.59297 13.2837 9.6513 13.1837 9.7013C12.9837 9.83464 12.717 10.0013 12.642 10.0763C12.5253 10.1846 12.5337 10.268 12.5503 10.368C12.5503 10.3763 12.5503 10.3846 12.5503 10.3846C12.567 10.4763 12.817 11.6763 14.417 12.4513C14.542 12.5013 14.7087 12.6013 14.4253 12.7596Z" fill="white"/>
</svg>
