<svg width="20" height="20" viewBox="0 0 20 20" fill="none" xmlns="http://www.w3.org/2000/svg">
<path d="M16.667 2.91797H4.58364C4.3253 2.91797 4.07531 3.04297 3.91698 3.2513L2.66698 4.91797C2.25864 5.46797 2.6503 6.2513 3.33364 6.2513H15.417C15.6753 6.2513 15.9253 6.1263 16.0837 5.91797L17.3337 4.2513C17.742 3.7013 17.3503 2.91797 16.667 2.91797Z" fill="white"/>
<path d="M3.33364 8.33203H15.417C15.6753 8.33203 15.9253 8.45703 16.0837 8.66536L17.3337 10.332C17.742 10.882 17.3503 11.6654 16.667 11.6654H4.58364C4.3253 11.6654 4.07531 11.5404 3.91698 11.332L2.66698 9.66536C2.25864 9.11536 2.6503 8.33203 3.33364 8.33203Z" fill="white"/>
<path d="M16.667 13.75H4.58364C4.3253 13.75 4.07531 13.875 3.91698 14.0833L2.66698 15.75C2.25864 16.3 2.6503 17.0833 3.33364 17.0833H15.417C15.6753 17.0833 15.9253 16.9583 16.0837 16.75L17.3337 15.0833C17.742 14.5333 17.3503 13.75 16.667 13.75Z" fill="white"/>
</svg>
