<svg width="20" height="20" viewBox="0 0 20 20" fill="none" xmlns="http://www.w3.org/2000/svg">
<path d="M13.492 1.66797H6.50866C3.47533 1.66797 1.66699 3.4763 1.66699 6.50964V13.4846C1.66699 16.5263 3.47533 18.3346 6.50866 18.3346H13.4837C16.517 18.3346 18.3253 16.5263 18.3253 13.493V6.50964C18.3337 3.4763 16.5253 1.66797 13.492 1.66797ZM11.1087 14.168H8.88366C8.54199 14.168 8.25866 13.8846 8.25866 13.543C8.25866 13.2013 8.54199 12.918 8.88366 12.918H11.1087C11.4503 12.918 11.7337 13.2013 11.7337 13.543C11.7337 13.8846 11.4587 14.168 11.1087 14.168ZM13.3337 10.6263H6.66699C6.32533 10.6263 6.04199 10.343 6.04199 10.0013C6.04199 9.65964 6.32533 9.3763 6.66699 9.3763H13.3337C13.6753 9.3763 13.9587 9.65964 13.9587 10.0013C13.9587 10.343 13.6753 10.6263 13.3337 10.6263ZM15.0003 7.08464H5.00033C4.65866 7.08464 4.37533 6.8013 4.37533 6.45964C4.37533 6.11797 4.65866 5.83464 5.00033 5.83464H15.0003C15.342 5.83464 15.6253 6.11797 15.6253 6.45964C15.6253 6.8013 15.342 7.08464 15.0003 7.08464Z" fill="white"/>
</svg>
