<svg width="20" height="20" viewBox="0 0 20 20" fill="none" xmlns="http://www.w3.org/2000/svg">
<path d="M2.5 13.75C2.15833 13.75 1.875 13.4667 1.875 13.125V6.875C1.875 6.53333 2.15833 6.25 2.5 6.25C2.84167 6.25 3.125 6.53333 3.125 6.875V13.125C3.125 13.4667 2.84167 13.75 2.5 13.75Z" fill="white"/>
<path d="M6.25 15.8346C5.90833 15.8346 5.625 15.5513 5.625 15.2096V4.79297C5.625 4.4513 5.90833 4.16797 6.25 4.16797C6.59167 4.16797 6.875 4.4513 6.875 4.79297V15.2096C6.875 15.5513 6.59167 15.8346 6.25 15.8346Z" fill="white"/>
<path d="M10 17.9154C9.65833 17.9154 9.375 17.632 9.375 17.2904V2.70703C9.375 2.36536 9.65833 2.08203 10 2.08203C10.3417 2.08203 10.625 2.36536 10.625 2.70703V17.2904C10.625 17.632 10.3417 17.9154 10 17.9154Z" fill="white"/>
<path d="M13.75 15.8346C13.4083 15.8346 13.125 15.5513 13.125 15.2096V4.79297C13.125 4.4513 13.4083 4.16797 13.75 4.16797C14.0917 4.16797 14.375 4.4513 14.375 4.79297V15.2096C14.375 15.5513 14.0917 15.8346 13.75 15.8346Z" fill="white"/>
<path d="M17.5 13.75C17.1583 13.75 16.875 13.4667 16.875 13.125V6.875C16.875 6.53333 17.1583 6.25 17.5 6.25C17.8417 6.25 18.125 6.53333 18.125 6.875V13.125C18.125 13.4667 17.8417 13.75 17.5 13.75Z" fill="white"/>
</svg>
