<svg width="20" height="20" viewBox="0 0 20 20" fill="none" xmlns="http://www.w3.org/2000/svg">
<path d="M12.5006 1.34766H7.50059C4.84225 1.34766 3.85059 2.33932 3.85059 4.99766V14.9976C3.85059 17.656 4.84225 18.6476 7.50059 18.6476H12.5006C15.1589 18.6476 16.1506 17.656 16.1506 14.9976V4.99766C16.1506 2.33932 15.1589 1.34766 12.5006 1.34766ZM10.0006 4.99766C10.6922 4.99766 11.2506 5.55599 11.2506 6.24766C11.2506 6.93932 10.6922 7.49766 10.0006 7.49766C9.3089 7.49766 8.75057 6.93932 8.75057 6.24766C8.75057 5.55599 9.3089 4.99766 10.0006 4.99766ZM10.0006 14.9976C8.61724 14.9976 7.50059 13.881 7.50059 12.4976C7.50059 11.1143 8.61724 9.99762 10.0006 9.99762C11.3839 9.99762 12.5006 11.1143 12.5006 12.4976C12.5006 13.881 11.3839 14.9976 10.0006 14.9976Z" fill="white"/>
</svg>
