<svg width="20" height="20" viewBox="0 0 20 20" fill="none" xmlns="http://www.w3.org/2000/svg">
<path d="M15.9503 16.8737C15.792 16.8737 15.6337 16.8154 15.5087 16.6987C15.2587 16.457 15.2587 16.0654 15.5003 15.8154C16.9253 14.3654 17.7087 12.4487 17.7087 10.4154C17.7087 6.16536 14.2503 2.70703 10.0003 2.70703C5.75033 2.70703 2.29199 6.16536 2.29199 10.4154C2.29199 12.4404 3.06699 14.3487 4.48366 15.7987C4.72533 16.0487 4.71699 16.4404 4.47533 16.682C4.22533 16.9237 3.83366 16.9154 3.59199 16.6737C1.95033 14.9904 1.04199 12.7654 1.04199 10.4154C1.04199 5.4737 5.05866 1.45703 10.0003 1.45703C14.942 1.45703 18.9587 5.4737 18.9587 10.4154C18.9587 12.7737 18.0503 15.007 16.392 16.6904C16.2753 16.8154 16.1087 16.8737 15.9503 16.8737Z" fill="white"/>
<path d="M9.99992 18.3339C11.7857 18.3339 13.2333 16.8863 13.2333 15.1005C13.2333 13.3149 11.7857 11.8672 9.99992 11.8672C8.21421 11.8672 6.7666 13.3149 6.7666 15.1005C6.7666 16.8863 8.21421 18.3339 9.99992 18.3339Z" fill="white"/>
<path d="M13.3337 7.08203C12.417 7.08203 11.667 7.83203 11.667 8.7487V9.3737C11.667 9.9487 12.1337 10.4154 12.7087 10.4154H13.3337C14.2503 10.4154 15.0003 9.66536 15.0003 8.7487C15.0003 7.83203 14.2503 7.08203 13.3337 7.08203Z" fill="white"/>
</svg>
