<svg width="20" height="20" viewBox="0 0 20 20" fill="none" xmlns="http://www.w3.org/2000/svg">
<path d="M10.0003 1.66797C5.40033 1.66797 1.66699 5.4013 1.66699 10.0013C1.66699 14.6013 5.40033 18.3346 10.0003 18.3346C14.6003 18.3346 18.3337 14.6013 18.3337 10.0013C18.3337 5.4013 14.6003 1.66797 10.0003 1.66797ZM12.8503 13.818C12.7253 13.993 12.5337 14.0763 12.342 14.0763C12.217 14.0763 12.092 14.0346 11.9753 13.9596C10.692 13.043 9.05033 12.843 7.58367 13.418C7.267 13.543 6.90033 13.3846 6.77533 13.068C6.65033 12.743 6.80866 12.3846 7.12533 12.2596C8.99199 11.518 11.0753 11.7763 12.7003 12.943C12.992 13.1513 13.0503 13.543 12.8503 13.818ZM13.767 11.493C13.642 11.668 13.4503 11.7513 13.2587 11.7513C13.1337 11.7513 13.0087 11.7096 12.892 11.6346C11.1253 10.368 8.86699 10.093 6.842 10.893C6.52533 11.018 6.15867 10.8596 6.03367 10.543C5.90867 10.218 6.06699 9.85964 6.38366 9.73464C8.80033 8.7763 11.5087 9.10964 13.617 10.6263C13.9003 10.8263 13.967 11.218 13.767 11.493ZM15.0753 9.25963C14.9503 9.43463 14.7587 9.51797 14.567 9.51797C14.442 9.51797 14.317 9.4763 14.2003 9.4013C11.717 7.61797 8.53366 7.2263 5.70033 8.35964C5.37533 8.48464 5.01699 8.32629 4.89199 8.00963C4.76699 7.69296 4.92532 7.32631 5.24198 7.20131C8.47533 5.91798 12.1003 6.35964 14.9337 8.39297C15.217 8.58464 15.2837 8.9763 15.0753 9.25963Z" fill="white"/>
</svg>
