<svg width="20" height="20" viewBox="0 0 20 20" fill="none" xmlns="http://www.w3.org/2000/svg">
<path d="M13.492 1.94141H6.50866C3.47533 1.94141 1.66699 3.75807 1.66699 6.79141V13.7664C1.66699 16.7998 3.47533 18.6081 6.50866 18.6081H13.4837C16.517 18.6081 18.3253 16.7998 18.3253 13.7664V6.79141C18.3337 3.75807 16.5253 1.94141 13.492 1.94141ZM9.64199 14.2664C9.64199 14.5164 9.51699 14.7414 9.30033 14.8748C9.18366 14.9498 9.05866 14.9831 8.92533 14.9831C8.81699 14.9831 8.70866 14.9581 8.60033 14.9081L5.68366 13.4498C5.26699 13.2331 5.00033 12.8081 5.00033 12.3331V9.57476C5.00033 9.32476 5.12533 9.09976 5.34199 8.96642C5.55866 8.83309 5.81699 8.82476 6.04199 8.93309L8.95866 10.3914C9.38366 10.6081 9.65033 11.0331 9.65033 11.5081V14.2664H9.64199ZM9.46699 9.80809L6.33366 8.11641C6.10866 7.99141 5.96699 7.74974 5.96699 7.47474C5.96699 7.20807 6.10866 6.95807 6.33366 6.83307L9.46699 5.14141C9.80033 4.96641 10.192 4.96641 10.5253 5.14141L13.6587 6.83307C13.8837 6.95807 14.0253 7.19974 14.0253 7.47474C14.0253 7.74974 13.8837 7.99141 13.6587 8.11641L10.5253 9.80809C10.3587 9.89976 10.1753 9.94142 9.99199 9.94142C9.80866 9.94142 9.63366 9.89976 9.46699 9.80809ZM15.0003 12.3331C15.0003 12.8081 14.7337 13.2414 14.3087 13.4498L11.392 14.9081C11.292 14.9581 11.1837 14.9831 11.067 14.9831C10.9337 14.9831 10.8087 14.9498 10.692 14.8748C10.4753 14.7414 10.3503 14.5164 10.3503 14.2664V11.5081C10.3503 11.0331 10.617 10.5998 11.042 10.3914L13.9587 8.93309C14.1837 8.82476 14.442 8.83309 14.6587 8.96642C14.8753 9.09976 15.0003 9.32476 15.0003 9.57476V12.3331Z" fill="white"/>
</svg>
