<svg width="20" height="20" viewBox="0 0 20 20" fill="none" xmlns="http://www.w3.org/2000/svg">
<path d="M10.0003 15.4167V16.15C10.0003 17.7083 9.37533 18.3333 7.80866 18.3333H3.85033C2.64199 18.3333 1.66699 17.3583 1.66699 16.15V12.1917C1.66699 10.625 2.29199 10 3.85033 10H4.58366V12.9167C4.58366 14.3 5.70033 15.4167 7.08366 15.4167H10.0003Z" fill="white"/>
<path d="M14.1663 11.2487V11.9737C14.1663 13.182 13.183 14.1654 11.9747 14.1654H8.01634C6.45801 14.1654 5.83301 13.5404 5.83301 11.9737V8.01536C5.83301 6.80703 6.80801 5.83203 8.01634 5.83203H8.74967V8.7487C8.74967 10.132 9.86634 11.2487 11.2497 11.2487H14.1663Z" fill="white"/>
<path d="M18.3333 3.8513V7.80964C18.3333 9.3763 17.7083 10.0013 16.1417 10.0013H12.1833C10.625 10.0013 10 9.3763 10 7.80964V3.8513C10 2.29297 10.625 1.66797 12.1833 1.66797H16.1417C17.7083 1.66797 18.3333 2.29297 18.3333 3.8513Z" fill="white"/>
</svg>
