<svg width="20" height="20" viewBox="0 0 20 20" fill="none" xmlns="http://www.w3.org/2000/svg">
<path d="M10.0003 1.66797C5.40033 1.66797 1.66699 5.4013 1.66699 10.0013C1.66699 14.6013 5.40033 18.3346 10.0003 18.3346C14.6003 18.3346 18.3337 14.6013 18.3337 10.0013C18.3337 5.4013 14.6003 1.66797 10.0003 1.66797ZM13.7503 11.8763H11.2087L12.867 14.2263C13.067 14.5096 13.0003 14.9013 12.717 15.093C12.6087 15.168 12.4837 15.2096 12.3587 15.2096C12.1587 15.2096 11.967 15.118 11.8503 14.943L9.93366 12.2263L8.01699 14.943C7.89199 15.118 7.70033 15.2096 7.50867 15.2096C7.38367 15.2096 7.25865 15.1763 7.15032 15.093C6.86698 14.893 6.80032 14.5013 7.00032 14.2263L8.65866 11.8763H6.26698C5.92532 11.8763 5.64198 11.593 5.64198 11.2513C5.64198 10.9096 5.92532 10.6263 6.26698 10.6263H13.767C14.1087 10.6263 14.392 10.9096 14.392 11.2513C14.392 11.593 14.092 11.8763 13.7503 11.8763ZM13.7503 9.3763H6.25033C5.90866 9.3763 5.62533 9.09297 5.62533 8.7513C5.62533 8.40964 5.90866 8.1263 6.25033 8.1263H8.64199L6.98366 5.77629C6.78367 5.49296 6.85033 5.1013 7.13366 4.90964C7.41699 4.70964 7.80867 4.77631 8.00033 5.05964L9.91699 7.7763L11.8337 5.05964C12.0337 4.77631 12.4253 4.70964 12.7003 4.90964C12.9837 5.10964 13.0503 5.50129 12.8503 5.77629L11.192 8.1263H13.7337C14.0753 8.1263 14.3587 8.40964 14.3587 8.7513C14.3587 9.09297 14.092 9.3763 13.7503 9.3763Z" fill="white"/>
</svg>
