<svg width="20" height="20" viewBox="0 0 20 20" fill="none" xmlns="http://www.w3.org/2000/svg">
<path d="M15.5837 12.052C15.292 12.3437 15.1253 12.927 15.217 13.327L15.792 15.8437C16.0337 16.8854 15.8837 17.6687 15.367 18.0437C15.1587 18.1937 14.9087 18.2687 14.617 18.2687C14.192 18.2687 13.692 18.1104 13.142 17.7854L10.7003 16.3354C10.317 16.1104 9.68366 16.1104 9.30033 16.3354L6.85866 17.7854C5.93366 18.327 5.14199 18.4187 4.63366 18.0437C4.60033 18.0187 4.56699 17.9937 4.54199 17.9604L15.0587 7.44373C15.442 7.0604 15.9837 6.8854 16.517 6.97706L16.642 7.00206C17.5253 7.15206 18.117 7.55206 18.3087 8.1354C18.492 8.71871 18.242 9.39371 17.6087 10.027L15.5837 12.052Z" fill="white"/>
<path d="M4.78411 13.3346C4.87578 12.9346 4.70911 12.343 4.41744 12.0513L2.39244 10.0263C1.75911 9.39297 1.50911 8.71797 1.69244 8.13464C1.88411 7.5513 2.47578 7.1513 3.35911 7.0013L5.95911 6.56797C6.33411 6.5013 6.79244 6.16797 6.96744 5.8263L8.40074 2.9513C8.8174 2.1263 9.38407 1.66797 10.0007 1.66797C10.6174 1.66797 11.1841 2.1263 11.6007 2.9513L13.0341 5.8263C13.1424 6.04297 13.3674 6.2513 13.6091 6.39297L4.22578 15.7763L4.78411 13.3346Z" fill="white"/>
<path d="M18.1417 1.85938C17.8917 1.60937 17.4834 1.60937 17.2334 1.85938L1.8584 17.2427C1.6084 17.4927 1.6084 17.9011 1.8584 18.1511C1.9834 18.2677 2.14173 18.3344 2.3084 18.3344C2.47507 18.3344 2.6334 18.2677 2.7584 18.1427L18.1417 2.75938C18.4001 2.50937 18.4001 2.10938 18.1417 1.85938Z" fill="white"/>
</svg>
