<svg width="20" height="20" viewBox="0 0 20 20" fill="none" xmlns="http://www.w3.org/2000/svg">
<path d="M4.78411 13.3346C4.87578 12.9263 4.70911 12.343 4.41744 12.0513L2.39244 10.0263C1.75911 9.39297 1.50911 8.71797 1.69244 8.13464C1.88411 7.5513 2.47578 7.1513 3.35911 7.0013L5.95911 6.56797C6.33411 6.5013 6.79244 6.16797 6.96744 5.8263L8.40074 2.9513C8.8174 2.1263 9.38407 1.66797 10.0007 1.66797C10.6174 1.66797 11.1841 2.1263 11.6007 2.9513L13.0341 5.8263C13.1424 6.04297 13.3674 6.2513 13.6091 6.39297L4.63411 15.368C4.51744 15.4846 4.31744 15.3763 4.35078 15.2096L4.78411 13.3346Z" fill="white"/>
<path d="M15.583 12.0515C15.283 12.3515 15.1163 12.9265 15.2163 13.3349L15.7913 15.8432C16.033 16.8849 15.883 17.6682 15.3663 18.0432C15.158 18.1932 14.908 18.2682 14.6163 18.2682C14.1913 18.2682 13.6913 18.1099 13.1413 17.7849L10.6997 16.3349C10.3163 16.1099 9.68301 16.1099 9.29967 16.3349L6.85801 17.7849C5.93301 18.3265 5.14134 18.4182 4.63301 18.0432C4.44134 17.9015 4.29967 17.7099 4.20801 17.4599L14.3413 7.32654C14.7247 6.94321 15.2663 6.76821 15.7913 6.85988L16.633 7.00154C17.5163 7.15154 18.108 7.55154 18.2997 8.13487C18.483 8.71821 18.233 9.39321 17.5997 10.0265L15.583 12.0515Z" fill="white"/>
</svg>
