<svg width="20" height="20" viewBox="0 0 20 20" fill="none" xmlns="http://www.w3.org/2000/svg">
<path d="M7.50038 11.8516H3.26704C2.75871 11.8516 2.29204 12.1099 2.02538 12.5432C1.75871 12.9682 1.73371 13.4766 1.95038 13.9266C2.97538 16.0266 4.82538 17.6766 7.02538 18.4516C7.17538 18.5016 7.34204 18.5349 7.50038 18.5349C7.79204 18.5349 8.08371 18.4432 8.33371 18.2682C8.7254 17.9932 8.95874 17.5432 8.95874 17.0682L8.96707 13.3182C8.96707 12.9266 8.81707 12.5599 8.54207 12.2849C8.25871 12.0099 7.89204 11.8516 7.50038 11.8516Z" fill="white"/>
<path d="M18.7329 8.0013C17.7996 3.9013 14.2079 1.04297 9.99959 1.04297C5.79128 1.04297 2.19961 3.9013 1.26628 8.0013C1.16628 8.43464 1.26628 8.8763 1.54961 9.2263C1.83295 9.5763 2.24961 9.7763 2.69961 9.7763H17.3079C17.7579 9.7763 18.1746 9.5763 18.4579 9.2263C18.7329 8.8763 18.8329 8.4263 18.7329 8.0013Z" fill="white"/>
<path d="M16.717 11.8911L12.5003 11.8828C12.1087 11.8828 11.742 12.0328 11.467 12.3078C11.192 12.5828 11.042 12.9495 11.042 13.3411L11.0503 17.0745C11.0503 17.5495 11.2837 17.9995 11.6753 18.2745C11.9253 18.4495 12.217 18.5411 12.5087 18.5411C12.667 18.5411 12.8253 18.5161 12.9753 18.4578C15.1587 17.6911 17.0087 16.0495 18.0337 13.9745C18.2503 13.5328 18.2253 13.0161 17.967 12.5995C17.692 12.1495 17.2253 11.8911 16.717 11.8911Z" fill="white"/>
</svg>
