<svg width="20" height="20" viewBox="0 0 20 20" fill="none" xmlns="http://www.w3.org/2000/svg">
<path d="M13.492 1.66797H6.50866C3.47533 1.66797 1.66699 3.4763 1.66699 6.50964V13.4846C1.66699 16.5263 3.47533 18.3346 6.50866 18.3346H13.4837C16.517 18.3346 18.3253 16.5263 18.3253 13.493V6.50964C18.3337 3.4763 16.5253 1.66797 13.492 1.66797ZM6.35866 15.1263C6.35866 15.468 6.07533 15.7513 5.73366 15.7513C5.39199 15.7513 5.10866 15.468 5.10866 15.1263V13.4013C5.10866 13.0596 5.39199 12.7763 5.73366 12.7763C6.07533 12.7763 6.35866 13.0596 6.35866 13.4013V15.1263ZM10.6253 15.1263C10.6253 15.468 10.342 15.7513 10.0003 15.7513C9.65866 15.7513 9.37533 15.468 9.37533 15.1263V11.668C9.37533 11.3263 9.65866 11.043 10.0003 11.043C10.342 11.043 10.6253 11.3263 10.6253 11.668V15.1263ZM14.892 15.1263C14.892 15.468 14.6087 15.7513 14.267 15.7513C13.9253 15.7513 13.642 15.468 13.642 15.1263V9.94297C13.642 9.6013 13.9253 9.31797 14.267 9.31797C14.6087 9.31797 14.892 9.6013 14.892 9.94297V15.1263ZM14.892 7.30964C14.892 7.6513 14.6087 7.93464 14.267 7.93464C13.9253 7.93464 13.642 7.6513 13.642 7.30964V6.5013C11.517 8.68464 8.85866 10.2263 5.88366 10.968C5.83366 10.9846 5.78366 10.9846 5.73366 10.9846C5.45033 10.9846 5.20033 10.793 5.12533 10.5096C5.04199 10.1763 5.24199 9.83464 5.58366 9.7513C8.39199 9.0513 10.892 7.5763 12.8753 5.49297H11.8337C11.492 5.49297 11.2087 5.20964 11.2087 4.86797C11.2087 4.5263 11.492 4.24297 11.8337 4.24297H14.2753C14.3087 4.24297 14.3337 4.25964 14.367 4.25964C14.4087 4.26797 14.4503 4.26797 14.492 4.28464C14.5337 4.3013 14.567 4.3263 14.6087 4.3513C14.6337 4.36797 14.6587 4.3763 14.6837 4.39297C14.692 4.4013 14.692 4.40964 14.7003 4.40964C14.7337 4.44297 14.7587 4.4763 14.7837 4.50964C14.8087 4.54297 14.8337 4.56797 14.842 4.6013C14.8587 4.63464 14.8587 4.66797 14.867 4.70964C14.8753 4.7513 14.892 4.79297 14.892 4.84297C14.892 4.8513 14.9003 4.85964 14.9003 4.86797V7.30964H14.892Z" fill="white"/>
</svg>
