<svg width="20" height="20" viewBox="0 0 20 20" fill="none" xmlns="http://www.w3.org/2000/svg">
<path d="M18.8829 3.86667C18.7163 3.56667 18.333 3.45 18.033 3.61667L3.91633 11.3833C3.81633 10.9333 3.74965 10.4667 3.74965 10C3.74965 6.55 6.54965 3.75 9.99968 3.75C11.1747 3.75 12.3163 4.075 13.2997 4.69167C13.5913 4.875 13.9747 4.78333 14.158 4.49167C14.3413 4.2 14.2497 3.81667 13.958 3.63333C12.7747 2.89167 11.408 2.5 9.99968 2.5C5.86632 2.5 2.49965 5.86667 2.49965 10C2.49965 10.675 2.59132 11.3417 2.76632 11.9917C2.76632 12 2.77466 12 2.77466 12.0083L1.36633 12.7833C1.06633 12.95 0.94967 13.3333 1.11634 13.6333C1.233 13.8417 1.44132 13.9583 1.66632 13.9583C1.76632 13.9583 1.87464 13.9333 1.9663 13.8833L18.633 4.71667C18.933 4.55 19.0496 4.16667 18.8829 3.86667Z" fill="white"/>
<path d="M18.8829 6.78333C18.7163 6.48333 18.333 6.36666 18.033 6.53333L16.2747 7.49999C16.2497 7.51666 16.2163 7.52499 16.1913 7.54999L1.36633 15.7C1.06633 15.8667 0.94967 16.25 1.11634 16.55C1.233 16.7583 1.44132 16.875 1.66632 16.875C1.76632 16.875 1.87464 16.85 1.9663 16.8L16.158 8.99166C16.208 9.32499 16.2497 9.65833 16.2497 9.99999C16.2497 13.45 13.4497 16.25 9.99968 16.25C8.81635 16.25 7.67466 15.9167 6.68299 15.3C6.39133 15.1167 6.00798 15.2083 5.82464 15.5C5.64131 15.7917 5.72464 16.175 6.02464 16.3583C7.2163 17.1083 8.59135 17.5 10.008 17.5C14.1413 17.5 17.508 14.1333 17.508 9.99999C17.508 9.44166 17.4247 8.89999 17.308 8.36666L18.6413 7.63333C18.933 7.46667 19.0496 7.08333 18.8829 6.78333Z" fill="white"/>
</svg>
