<svg width="20" height="20" viewBox="0 0 20 20" fill="none" xmlns="http://www.w3.org/2000/svg">
<path d="M18.3006 9.71864C17.3089 9.09364 16.1589 8.75197 14.9756 8.75197C11.5256 8.75197 8.72558 11.552 8.72558 15.002C8.72558 16.1853 9.05891 17.327 9.68391 18.3186C9.30058 18.3103 8.90891 18.2686 8.50891 18.2103C5.0839 17.627 2.32556 14.852 1.7589 11.4186C0.817227 5.71026 5.6839 0.843595 11.3922 1.78526C14.8256 2.35193 17.6006 5.11026 18.1839 8.5353C18.2506 8.9353 18.2922 9.3353 18.3006 9.71864Z" fill="white"/>
<path d="M11.1496 18.2167C10.4163 17.35 9.97461 16.225 9.97461 15C9.97461 12.2417 12.2163 10 14.9746 10C16.1996 10 17.3246 10.4417 18.1913 11.175" fill="white"/>
</svg>
