<svg width="20" height="20" viewBox="0 0 20 20" fill="none" xmlns="http://www.w3.org/2000/svg">
<path d="M6.9082 5.24297C6.5582 5.24297 6.2832 4.95964 6.2832 4.61797V2.29297C6.2832 1.9513 6.5582 1.66797 6.9082 1.66797C7.2582 1.66797 7.5332 1.9513 7.5332 2.29297V4.60964C7.5332 4.95964 7.2582 5.24297 6.9082 5.24297Z" fill="white"/>
<path d="M13.0918 5.24297C12.7418 5.24297 12.4668 4.95964 12.4668 4.61797V2.29297C12.4668 1.94297 12.7501 1.66797 13.0918 1.66797C13.4418 1.66797 13.7168 1.9513 13.7168 2.29297V4.60964C13.7168 4.95964 13.4418 5.24297 13.0918 5.24297Z" fill="white"/>
<path d="M17.9172 13.1818C17.9172 13.3068 17.8755 13.4318 17.7672 13.5401C16.5589 14.7568 14.4089 16.9234 13.1755 18.1651C13.0672 18.2818 12.9255 18.3318 12.7839 18.3318C12.5089 18.3318 12.2422 18.1151 12.2422 17.7984V14.8818C12.2422 13.6651 13.2755 12.6568 14.5422 12.6568C15.3339 12.6484 16.4339 12.6484 17.3755 12.6484C17.7005 12.6484 17.9172 12.9068 17.9172 13.1818Z" fill="white"/>
<path d="M17.9172 13.1818C17.9172 13.3068 17.8755 13.4318 17.7672 13.5401C16.5589 14.7568 14.4089 16.9234 13.1755 18.1651C13.0672 18.2818 12.9255 18.3318 12.7839 18.3318C12.5089 18.3318 12.2422 18.1151 12.2422 17.7984V14.8818C12.2422 13.6651 13.2755 12.6568 14.5422 12.6568C15.3339 12.6484 16.4339 12.6484 17.3755 12.6484C17.7005 12.6484 17.9172 12.9068 17.9172 13.1818Z" fill="white"/>
<path d="M16.308 3.7513C15.758 3.34297 14.9663 3.73464 14.9663 4.4263V4.50964C14.9663 5.48464 14.2663 6.38464 13.2913 6.48464C12.1663 6.6013 11.2163 5.71797 11.2163 4.61797V3.7513C11.2163 3.29297 10.8413 2.91797 10.383 2.91797H9.61634C9.15801 2.91797 8.78301 3.29297 8.78301 3.7513V4.50964C8.78301 5.24297 8.39134 5.9263 7.78301 6.25964C7.74967 6.28464 7.71634 6.3013 7.68301 6.31797C7.67467 6.31797 7.67467 6.3263 7.66634 6.3263C7.60801 6.3513 7.54967 6.3763 7.48301 6.4013C7.46634 6.40964 7.44967 6.40964 7.43301 6.41797C7.33301 6.4513 7.22467 6.4763 7.10801 6.48464H7.09967C6.97467 6.5013 6.84134 6.5013 6.71634 6.48464H6.70801C6.59134 6.4763 6.48301 6.4513 6.38301 6.41797C6.29967 6.39297 6.21634 6.35964 6.13301 6.31797C5.48301 6.0263 5.03301 5.3763 5.03301 4.61797V4.4263C5.03301 3.78464 4.34967 3.4013 3.80801 3.6763C3.79967 3.68464 3.79134 3.68464 3.78301 3.69297H3.77467C3.71634 3.73464 3.66634 3.7763 3.60801 3.81797C3.51634 3.89297 3.42467 3.96797 3.34134 4.0513C3.28301 4.10964 3.22467 4.16797 3.17467 4.2263C3.10801 4.29297 3.04967 4.35964 2.99134 4.43464C2.94967 4.48464 2.89967 4.53464 2.86634 4.59297C2.82467 4.64297 2.79134 4.7013 2.75801 4.7513C2.74967 4.75964 2.74134 4.76797 2.73301 4.78464C2.65801 4.89297 2.59134 5.01797 2.53301 5.13464C2.51634 5.1513 2.50801 5.15964 2.50801 5.1763C2.45801 5.2763 2.40801 5.3763 2.37467 5.48464C2.34967 5.5263 2.34134 5.55964 2.32467 5.6013C2.30801 5.63464 2.29967 5.6763 2.28301 5.70964C2.25801 5.79297 2.23301 5.88464 2.20801 5.9763C2.17467 6.09297 2.14967 6.21797 2.13301 6.34297C2.11634 6.43464 2.10801 6.5263 2.09967 6.6263C2.09134 6.74297 2.08301 6.85964 2.08301 6.9763V14.2763C2.08301 16.518 3.89967 18.3346 6.14134 18.3346H10.158C10.6163 18.3346 10.9913 17.9596 10.9913 17.5013V14.8846C10.9913 12.968 12.583 11.4096 14.5413 11.4096C14.983 11.4013 16.058 11.4013 17.083 11.4013C17.5413 11.4013 17.9163 11.0263 17.9163 10.568V6.9763C17.9163 5.6513 17.283 4.49297 16.308 3.7513ZM9.27467 13.2596C9.19967 13.5096 8.96634 13.6846 8.69134 13.6846H5.65801C5.61634 13.6846 5.58301 13.6846 5.54967 13.668C5.24967 13.6263 5.03301 13.368 5.03301 13.0596C5.03301 12.7096 5.30801 12.4263 5.65801 12.4263H8.69134C9.03301 12.4263 9.31634 12.7096 9.31634 13.0596C9.31634 13.1263 9.30801 13.2013 9.27467 13.2596ZM11.5913 10.168C11.5163 10.418 11.283 10.593 11.008 10.593H5.65801C5.61634 10.593 5.58301 10.593 5.54967 10.5763C5.24967 10.5346 5.03301 10.2763 5.03301 9.96797C5.03301 9.61797 5.30801 9.33464 5.65801 9.33464H11.008C11.358 9.33464 11.633 9.61797 11.633 9.96797C11.633 10.0346 11.6247 10.1096 11.5913 10.168Z" fill="white"/>
</svg>
