<svg width="20" height="20" viewBox="0 0 20 20" fill="none" xmlns="http://www.w3.org/2000/svg">
<path d="M13.6837 6.62266C15.717 8.65596 15.717 11.956 13.6837 13.9893C11.6503 16.0226 8.35033 16.0226 6.31699 13.9893C4.28366 11.956 4.28366 8.65596 6.31699 6.62266C8.35033 4.58932 11.6503 4.58932 13.6837 6.62266Z" fill="white"/>
<path d="M6.87486 18.6581C6.79986 18.6581 6.71653 18.6414 6.64153 18.6164C4.76653 17.8664 3.24986 16.5414 2.2332 14.7914C1.24986 13.0831 0.858196 11.1497 1.11653 9.18306C1.1582 8.84139 1.4832 8.59972 1.81653 8.64139C2.1582 8.68306 2.39986 8.99972 2.3582 9.34139C2.14153 11.0331 2.47486 12.6997 3.31653 14.1664C4.1832 15.6664 5.49153 16.8081 7.09986 17.4497C7.41653 17.5831 7.57486 17.9414 7.44986 18.2664C7.3582 18.5081 7.11653 18.6581 6.87486 18.6581Z" fill="white"/>
<path d="M4.87468 4.3565C4.69135 4.3565 4.50801 4.27317 4.38301 4.11484C4.16635 3.84817 4.21635 3.45651 4.49135 3.23984C6.07468 1.99818 7.98301 1.33984 9.99966 1.33984C11.9663 1.33984 13.8413 1.97317 15.4163 3.17317C15.6913 3.3815 15.7413 3.77317 15.533 4.04818C15.3247 4.32318 14.933 4.37317 14.658 4.16484C13.2997 3.1315 11.6913 2.58984 9.99966 2.58984C8.26635 2.58984 6.62468 3.15651 5.25801 4.22318C5.14135 4.31484 5.00801 4.3565 4.87468 4.3565Z" fill="white"/>
<path d="M13.1243 18.6575C12.8743 18.6575 12.6409 18.5075 12.5409 18.2659C12.4159 17.9492 12.5659 17.5825 12.8909 17.4492C14.4993 16.7992 15.8076 15.6659 16.6743 14.1659C17.5243 12.6992 17.8576 11.0325 17.6326 9.3492C17.5909 9.00754 17.8326 8.69087 18.1743 8.6492C18.5076 8.60754 18.8326 8.8492 18.8743 9.19087C19.1243 11.1492 18.7409 13.0909 17.7576 14.7992C16.7493 16.5492 15.2243 17.8659 13.3493 18.6242C13.2826 18.6409 13.2076 18.6575 13.1243 18.6575Z" fill="white"/>
</svg>
