<svg width="20" height="20" viewBox="0 0 20 20" fill="none" xmlns="http://www.w3.org/2000/svg">
<path d="M13.493 1.66797H6.50964C3.4763 1.66797 1.66797 3.4763 1.66797 6.50964V13.4846C1.66797 16.5263 3.4763 18.3346 6.50964 18.3346H13.4847C16.518 18.3346 18.3263 16.5263 18.3263 13.493V6.50964C18.3347 3.4763 16.5263 1.66797 13.493 1.66797ZM15.8347 6.86797C15.8347 7.3263 15.4597 7.7013 15.0013 7.7013H13.3347C12.993 7.7013 12.7097 7.98464 12.7097 8.3263C12.7097 8.6763 12.993 8.9513 13.3347 8.9513H15.0013C15.4597 8.9513 15.8347 9.3263 15.8347 9.78464V10.2096C15.8347 10.668 15.4597 11.043 15.0013 11.043H13.3347C12.993 11.043 12.7097 11.3263 12.7097 11.668C12.7097 12.0096 12.993 12.293 13.3347 12.293H15.0013C15.4597 12.293 15.8347 12.668 15.8347 13.1263V13.3346C15.8347 14.718 14.718 15.8346 13.3347 15.8346H6.66797C5.28464 15.8346 4.16797 14.718 4.16797 13.3346V12.918C4.16797 12.4596 4.54297 12.0846 5.0013 12.0846H6.23464C7.45964 12.0846 8.43465 11.0346 8.30964 9.78464C8.2013 8.7013 7.20964 7.91797 6.11797 7.91797H5.0013C4.54297 7.91797 4.16797 7.54297 4.16797 7.08464V6.66797C4.16797 5.28464 5.28464 4.16797 6.66797 4.16797H13.3347C14.718 4.16797 15.8347 5.28464 15.8347 6.66797V6.86797ZM4.16797 10.0013C4.16797 9.54297 4.54297 9.16797 5.0013 9.16797H5.83464C6.29297 9.16797 6.66797 9.54297 6.66797 10.0013C6.66797 10.4596 6.29297 10.8346 5.83464 10.8346H5.0013C4.54297 10.8346 4.16797 10.4596 4.16797 10.0013Z" fill="white"/>
</svg>
