<svg width="20" height="20" viewBox="0 0 20 20" fill="none" xmlns="http://www.w3.org/2000/svg">
<path d="M11.042 10.4854V12.1354C11.042 12.7104 10.5753 13.1771 10.0003 13.1771C9.42533 13.1771 8.95866 12.7104 8.95866 12.1354V10.4854C8.65866 10.3021 8.42533 10.0354 8.25866 9.71875H2.50033C2.04199 9.71875 1.66699 10.0937 1.66699 10.5521V13.4938C1.66699 16.1688 3.83366 18.3354 6.50866 18.3354H13.4837C16.167 18.3354 18.3337 16.1688 18.3337 13.4938V10.5521C18.3337 10.0937 17.9587 9.71875 17.5003 9.71875H11.742C11.5753 10.0354 11.342 10.3021 11.042 10.4854Z" fill="white"/>
<path d="M13.492 1.66797H6.50866C3.83366 1.66797 1.66699 3.83464 1.66699 6.50964V7.63464C1.66699 8.09297 2.04199 8.46797 2.50033 8.46797H8.05866C8.25033 7.36797 9.34199 6.58464 10.5337 6.9013C11.2003 7.0763 11.742 7.61797 11.917 8.28463C11.9337 8.34297 11.9337 8.40964 11.942 8.46797H17.5003C17.9587 8.46797 18.3337 8.09297 18.3337 7.63464V6.50964C18.3337 3.83464 16.167 1.66797 13.492 1.66797Z" fill="white"/>
</svg>
