<svg width="20" height="20" viewBox="0 0 20 20" fill="none" xmlns="http://www.w3.org/2000/svg">
<path d="M13.492 1.66797H6.50866C3.47533 1.66797 1.66699 3.4763 1.66699 6.50964V13.4846C1.66699 16.5263 3.47533 18.3346 6.50866 18.3346H13.4837C16.517 18.3346 18.3253 16.5263 18.3253 13.493V6.50964C18.3337 3.4763 16.5253 1.66797 13.492 1.66797ZM5.41699 10.4763H7.72533C8.06699 10.4763 8.35033 10.7596 8.35033 11.1013C8.35033 11.443 8.06699 11.7263 7.72533 11.7263H5.41699C5.07533 11.7263 4.79199 11.443 4.79199 11.1013C4.79199 10.7596 5.07533 10.4763 5.41699 10.4763ZM10.8087 14.8596H5.41699C5.07533 14.8596 4.79199 14.5763 4.79199 14.2346C4.79199 13.893 5.07533 13.6096 5.41699 13.6096H10.8087C11.1503 13.6096 11.4337 13.893 11.4337 14.2346C11.4337 14.5763 11.1587 14.8596 10.8087 14.8596ZM14.5837 14.8596H13.042C12.7003 14.8596 12.417 14.5763 12.417 14.2346C12.417 13.893 12.7003 13.6096 13.042 13.6096H14.5837C14.9253 13.6096 15.2087 13.893 15.2087 14.2346C15.2087 14.5763 14.9253 14.8596 14.5837 14.8596ZM14.5837 11.7263H9.97533C9.63366 11.7263 9.35033 11.443 9.35033 11.1013C9.35033 10.7596 9.63366 10.4763 9.97533 10.4763H14.5837C14.9253 10.4763 15.2087 10.7596 15.2087 11.1013C15.2087 11.443 14.9253 11.7263 14.5837 11.7263Z" fill="white"/>
</svg>
