<svg width="20" height="20" viewBox="0 0 20 20" fill="none" xmlns="http://www.w3.org/2000/svg">
<g clip-path="url(#clip0_10_9179)">
<path d="M10.0003 15.8346C13.222 15.8346 15.8337 13.223 15.8337 10.0013C15.8337 6.77964 13.222 4.16797 10.0003 4.16797C6.77867 4.16797 4.16699 6.77964 4.16699 10.0013C4.16699 13.223 6.77867 15.8346 10.0003 15.8346Z" fill="white"/>
<path d="M9.99967 19.132C9.54134 19.132 9.16634 18.7904 9.16634 18.332V18.2654C9.16634 17.807 9.54134 17.432 9.99967 17.432C10.458 17.432 10.833 17.807 10.833 18.2654C10.833 18.7237 10.458 19.132 9.99967 19.132ZM15.9497 16.782C15.733 16.782 15.5247 16.6987 15.358 16.5404L15.2497 16.432C14.9247 16.107 14.9247 15.582 15.2497 15.257C15.5747 14.932 16.0997 14.932 16.4247 15.257L16.533 15.3654C16.858 15.6904 16.858 16.2154 16.533 16.5404C16.3747 16.6987 16.1663 16.782 15.9497 16.782ZM4.04967 16.782C3.83301 16.782 3.62467 16.6987 3.45801 16.5404C3.13301 16.2154 3.13301 15.6904 3.45801 15.3654L3.56634 15.257C3.89134 14.932 4.41634 14.932 4.74134 15.257C5.06634 15.582 5.06634 16.107 4.74134 16.432L4.63301 16.5404C4.47467 16.6987 4.25801 16.782 4.04967 16.782ZM18.333 10.832H18.2663C17.808 10.832 17.433 10.457 17.433 9.9987C17.433 9.54036 17.808 9.16536 18.2663 9.16536C18.7247 9.16536 19.133 9.54036 19.133 9.9987C19.133 10.457 18.7913 10.832 18.333 10.832ZM1.73301 10.832H1.66634C1.20801 10.832 0.833008 10.457 0.833008 9.9987C0.833008 9.54036 1.20801 9.16536 1.66634 9.16536C2.12467 9.16536 2.53301 9.54036 2.53301 9.9987C2.53301 10.457 2.19134 10.832 1.73301 10.832ZM15.8413 4.99036C15.6247 4.99036 15.4163 4.90703 15.2497 4.7487C14.9247 4.4237 14.9247 3.8987 15.2497 3.5737L15.358 3.46536C15.683 3.14036 16.208 3.14036 16.533 3.46536C16.858 3.79036 16.858 4.31536 16.533 4.64036L16.4247 4.7487C16.2663 4.90703 16.058 4.99036 15.8413 4.99036ZM4.15801 4.99036C3.94134 4.99036 3.73301 4.90703 3.56634 4.7487L3.45801 4.63203C3.13301 4.30703 3.13301 3.78203 3.45801 3.45703C3.78301 3.13203 4.30801 3.13203 4.63301 3.45703L4.74134 3.56536C5.06634 3.89036 5.06634 4.41536 4.74134 4.74036C4.58301 4.90703 4.36634 4.99036 4.15801 4.99036ZM9.99967 2.53203C9.54134 2.53203 9.16634 2.19036 9.16634 1.73203V1.66536C9.16634 1.20703 9.54134 0.832031 9.99967 0.832031C10.458 0.832031 10.833 1.20703 10.833 1.66536C10.833 2.1237 10.458 2.53203 9.99967 2.53203Z" fill="white"/>
</g>
<defs>
<clipPath id="clip0_10_9179">
<rect width="20" height="20" fill="white"/>
</clipPath>
</defs>
</svg>
