<svg width="20" height="20" viewBox="0 0 20 20" fill="none" xmlns="http://www.w3.org/2000/svg">
<path d="M15.3993 10.2083C15.6326 10.2083 15.8326 10.0083 15.8159 9.775C15.5909 6.75 13.0743 4.375 9.99926 4.375C6.92428 4.375 4.40761 6.75 4.18261 9.775C4.16595 10.0083 4.36595 10.2083 4.59928 10.2083H15.3993Z" fill="white"/>
<path d="M18.333 10.832H18.2663C17.808 10.832 17.433 10.457 17.433 9.9987C17.433 9.54036 17.808 9.16536 18.2663 9.16536C18.7247 9.16536 19.133 9.54036 19.133 9.9987C19.133 10.457 18.7913 10.832 18.333 10.832ZM1.73301 10.832H1.66634C1.20801 10.832 0.833008 10.457 0.833008 9.9987C0.833008 9.54036 1.20801 9.16536 1.66634 9.16536C2.12467 9.16536 2.53301 9.54036 2.53301 9.9987C2.53301 10.457 2.19134 10.832 1.73301 10.832ZM15.8413 4.99036C15.6247 4.99036 15.4163 4.90703 15.2497 4.7487C14.9247 4.4237 14.9247 3.8987 15.2497 3.5737L15.358 3.46536C15.683 3.14036 16.208 3.14036 16.533 3.46536C16.858 3.79036 16.858 4.31536 16.533 4.64036L16.4247 4.7487C16.2663 4.90703 16.058 4.99036 15.8413 4.99036ZM4.15801 4.99036C3.94134 4.99036 3.73301 4.90703 3.56634 4.7487L3.45801 4.63203C3.13301 4.30703 3.13301 3.78203 3.45801 3.45703C3.78301 3.13203 4.30801 3.13203 4.63301 3.45703L4.74134 3.56536C5.06634 3.89036 5.06634 4.41536 4.74134 4.74036C4.58301 4.90703 4.36634 4.99036 4.15801 4.99036ZM9.99967 2.53203C9.54134 2.53203 9.16634 2.19036 9.16634 1.73203V1.66536C9.16634 1.20703 9.54134 0.832031 9.99967 0.832031C10.458 0.832031 10.833 1.20703 10.833 1.66536C10.833 2.1237 10.458 2.53203 9.99967 2.53203Z" fill="white"/>
<path d="M16.6663 13.125H3.33301C2.99134 13.125 2.70801 12.8417 2.70801 12.5C2.70801 12.1583 2.99134 11.875 3.33301 11.875H16.6663C17.008 11.875 17.2913 12.1583 17.2913 12.5C17.2913 12.8417 17.008 13.125 16.6663 13.125Z" fill="white"/>
<path d="M15 15.625H5C4.65833 15.625 4.375 15.3417 4.375 15C4.375 14.6583 4.65833 14.375 5 14.375H15C15.3417 14.375 15.625 14.6583 15.625 15C15.625 15.3417 15.3417 15.625 15 15.625Z" fill="white"/>
<path d="M12.5 18.125H7.5C7.15833 18.125 6.875 17.8417 6.875 17.5C6.875 17.1583 7.15833 16.875 7.5 16.875H12.5C12.8417 16.875 13.125 17.1583 13.125 17.5C13.125 17.8417 12.8417 18.125 12.5 18.125Z" fill="white"/>
</svg>
