<svg width="20" height="20" viewBox="0 0 20 20" fill="none" xmlns="http://www.w3.org/2000/svg">
<path d="M15 1.66797H5C3.61667 1.66797 2.5 2.7763 2.5 4.14297V13.2346C2.5 14.6013 3.61667 15.7096 5 15.7096H5.63333C6.3 15.7096 6.93333 15.968 7.4 16.4346L8.825 17.843C9.475 18.4846 10.5333 18.4846 11.1833 17.843L12.6083 16.4346C13.075 15.968 13.7167 15.7096 14.375 15.7096H15C16.3833 15.7096 17.5 14.6013 17.5 13.2346V4.14297C17.5 2.7763 16.3833 1.66797 15 1.66797ZM8.65 10.843C8.99167 10.843 9.275 11.1263 9.275 11.468C9.275 11.8096 8.99167 12.093 8.65 12.093H6.41667C6.05 12.093 5.70833 11.918 5.49167 11.618C5.28333 11.3346 5.23333 10.9846 5.33333 10.6513C5.625 9.75964 6.34167 9.2763 6.975 8.84297C7.64167 8.39297 8.01667 8.10964 8.01667 7.6263C8.01667 7.19297 7.66667 6.84297 7.23333 6.84297C6.8 6.84297 6.45833 7.2013 6.45833 7.63464C6.45833 7.9763 6.175 8.25964 5.83333 8.25964C5.49167 8.25964 5.20833 7.9763 5.20833 7.63464C5.20833 6.51797 6.11667 5.6013 7.24167 5.6013C8.36667 5.6013 9.275 6.50964 9.275 7.63464C9.275 8.80964 8.39167 9.40964 7.68333 9.89297C7.24167 10.193 6.825 10.4763 6.61667 10.8513H8.65V10.843ZM14.1667 10.9013H13.9917V11.4763C13.9917 11.818 13.7083 12.1013 13.3667 12.1013C13.025 12.1013 12.7417 11.818 12.7417 11.4763V10.9013H11.1083C11.1083 10.9013 11.1083 10.9013 11.1 10.9013C10.6917 10.9013 10.3167 10.6846 10.1083 10.3346C9.9 9.9763 9.9 9.53464 10.1083 9.18464C10.675 8.20964 11.3333 7.1013 11.9333 6.13464C12.2 5.70964 12.7083 5.51797 13.1833 5.6513C13.6583 5.79297 13.9917 6.2263 13.9833 6.7263V9.65964H14.1667C14.5083 9.65964 14.7917 9.94297 14.7917 10.2846C14.7917 10.6263 14.5083 10.9013 14.1667 10.9013Z" fill="white"/>
<path d="M12.7415 9.6492V7.19922C12.2499 7.99922 11.7415 8.85753 11.2832 9.64087H12.7415V9.6492Z" fill="white"/>
</svg>
