<svg width="20" height="20" viewBox="0 0 20 20" fill="none" xmlns="http://www.w3.org/2000/svg">
<path d="M15 1.66797H5C3.61667 1.66797 2.5 2.7763 2.5 4.14297V13.2346C2.5 14.6013 3.61667 15.718 5 15.718H5.63333C6.29167 15.718 6.93333 15.9763 7.4 16.443L8.825 17.8513C9.475 18.493 10.525 18.493 11.175 17.8513L12.6 16.443C13.0667 15.9763 13.7083 15.718 14.3667 15.718H15C16.3833 15.718 17.5 14.6013 17.5 13.2346V4.14297C17.5 2.7763 16.3833 1.66797 15 1.66797ZM10 4.6263C10.9 4.6263 11.625 5.35964 11.625 6.2513C11.625 7.13464 10.925 7.84297 10.0583 7.8763C10.025 7.8763 9.975 7.8763 9.93333 7.8763C9.05833 7.84297 8.36667 7.13464 8.36667 6.2513C8.375 5.35964 9.1 4.6263 10 4.6263ZM12.2917 12.243C11.0333 13.0846 8.96667 13.0846 7.70833 12.243C6.6 11.5096 6.6 10.293 7.70833 9.5513C8.975 8.70964 11.0417 8.70964 12.2917 9.5513C13.4 10.293 13.4 11.5013 12.2917 12.243Z" fill="white"/>
</svg>
