<svg width="20" height="20" viewBox="0 0 20 20" fill="none" xmlns="http://www.w3.org/2000/svg">
<path d="M14.1664 3.125H8.56641C7.39141 3.125 6.27474 3.61667 5.48307 4.49167L2.54141 7.725C1.36641 9.01667 1.36641 10.9833 2.54141 12.275L5.48307 15.5083C6.27474 16.375 7.39141 16.875 8.56641 16.875H14.1664C16.4664 16.875 18.3331 15.0083 18.3331 12.7083V7.29167C18.3331 4.99167 16.4664 3.125 14.1664 3.125ZM13.7747 11.6167C14.0164 11.8583 14.0164 12.2583 13.7747 12.5C13.6497 12.625 13.4914 12.6833 13.3331 12.6833C13.1747 12.6833 13.0164 12.625 12.8914 12.5L11.2747 10.8833L9.65808 12.5C9.53308 12.625 9.37475 12.6833 9.21641 12.6833C9.05808 12.6833 8.89975 12.625 8.77475 12.5C8.53308 12.2583 8.53308 11.8583 8.77475 11.6167L10.3914 10L8.77475 8.38333C8.53308 8.14167 8.53308 7.74167 8.77475 7.5C9.01641 7.25833 9.41641 7.25833 9.65808 7.5L11.2747 9.11667L12.8914 7.5C13.1331 7.25833 13.5331 7.25833 13.7747 7.5C14.0164 7.74167 14.0164 8.14167 13.7747 8.38333L12.1581 10L13.7747 11.6167Z" fill="white"/>
</svg>
