<svg width="20" height="20" viewBox="0 0 20 20" fill="none" xmlns="http://www.w3.org/2000/svg">
<path d="M14.9 5.0987L3.26666 16.732C2.90833 17.0904 2.30833 17.057 2.01666 16.6487C1.59999 16.0737 1.51666 15.2737 1.94999 14.582L4.24999 10.8904C4.55833 10.3987 4.55833 9.59869 4.24999 9.10702L1.94999 5.41536C1.17499 4.18203 2.06666 2.58203 3.51666 2.58203H13.0583C13.625 2.58203 14.325 2.9737 14.625 3.4487L15.0167 4.06536C15.2167 4.3987 15.175 4.8237 14.9 5.0987Z" fill="white"/>
<path d="M18.0252 10.924L13.7086 16.674C13.4086 17.0824 12.7419 17.4157 12.2252 17.4157H6.25855C5.51688 17.4157 5.14188 16.5157 5.66688 15.9907L15.2669 6.39902C15.6419 6.02402 16.2836 6.09068 16.5669 6.54902L18.1086 9.02403C18.4419 9.55736 18.4086 10.4157 18.0252 10.924Z" fill="white"/>
</svg>
