<svg width="20" height="20" viewBox="0 0 20 20" fill="none" xmlns="http://www.w3.org/2000/svg">
<path d="M16.5254 7.25114L12.7504 3.47614C11.9588 2.68447 10.8671 2.25947 9.75042 2.31781L5.58372 2.51781C3.91705 2.59281 2.59205 3.91781 2.50872 5.57614L2.30872 9.74281C2.25872 10.8595 2.67539 11.9511 3.46705 12.7428L7.24205 16.5178C8.79209 18.0678 11.3088 18.0678 12.8671 16.5178L16.5254 12.8595C18.0838 11.3178 18.0838 8.80114 16.5254 7.25114ZM7.91705 10.3178C6.60039 10.3178 5.51705 9.24281 5.51705 7.91781C5.51705 6.59281 6.60039 5.51781 7.91705 5.51781C9.23375 5.51781 10.3171 6.59281 10.3171 7.91781C10.3171 9.24281 9.23375 10.3178 7.91705 10.3178ZM14.6088 11.2761L11.2754 14.6095C11.1504 14.7345 10.9921 14.7928 10.8338 14.7928C10.6754 14.7928 10.5171 14.7345 10.3921 14.6095C10.1504 14.3678 10.1504 13.9678 10.3921 13.7261L13.7254 10.3928C13.9671 10.1511 14.3671 10.1511 14.6088 10.3928C14.8504 10.6345 14.8504 11.0345 14.6088 11.2761Z" fill="white"/>
</svg>
