<svg width="20" height="20" viewBox="0 0 20 20" fill="none" xmlns="http://www.w3.org/2000/svg">
<path d="M13.492 1.66797H6.50866C3.47533 1.66797 1.66699 3.4763 1.66699 6.50964V13.493C1.66699 16.5263 3.47533 18.3346 6.50866 18.3346H13.492C16.5253 18.3346 18.3337 16.5263 18.3337 13.493V6.50964C18.3337 3.4763 16.5253 1.66797 13.492 1.66797ZM8.30866 12.418L6.43366 14.293C6.30866 14.418 6.15033 14.4763 5.99199 14.4763C5.83366 14.4763 5.66699 14.418 5.55033 14.293L4.92533 13.668C4.67533 13.4263 4.67533 13.0263 4.92533 12.7846C5.16699 12.543 5.55866 12.543 5.80866 12.7846L5.99199 12.968L7.42533 11.5346C7.66699 11.293 8.05866 11.293 8.30866 11.5346C8.55033 11.7763 8.55033 12.1763 8.30866 12.418ZM8.30866 6.58464L6.43366 8.45963C6.30866 8.58463 6.15033 8.64297 5.99199 8.64297C5.83366 8.64297 5.66699 8.58463 5.55033 8.45963L4.92533 7.83463C4.67533 7.59297 4.67533 7.19297 4.92533 6.9513C5.16699 6.70964 5.55866 6.70964 5.80866 6.9513L5.99199 7.13464L7.42533 5.7013C7.66699 5.45964 8.05866 5.45964 8.30866 5.7013C8.55033 5.94297 8.55033 6.34297 8.30866 6.58464ZM14.6337 13.8513H10.2587C9.91699 13.8513 9.63366 13.568 9.63366 13.2263C9.63366 12.8846 9.91699 12.6013 10.2587 12.6013H14.6337C14.9837 12.6013 15.2587 12.8846 15.2587 13.2263C15.2587 13.568 14.9837 13.8513 14.6337 13.8513ZM14.6337 8.01797H10.2587C9.91699 8.01797 9.63366 7.73464 9.63366 7.39297C9.63366 7.0513 9.91699 6.76797 10.2587 6.76797H14.6337C14.9837 6.76797 15.2587 7.0513 15.2587 7.39297C15.2587 7.73464 14.9837 8.01797 14.6337 8.01797Z" fill="white"/>
</svg>
