<svg width="20" height="20" viewBox="0 0 20 20" fill="none" xmlns="http://www.w3.org/2000/svg">
<path d="M16.6674 16.0503H9.10911C8.73411 16.0503 8.42578 15.7419 8.42578 15.3669C8.42578 14.9919 8.73411 14.6836 9.10911 14.6836H16.6674C17.0424 14.6836 17.3508 14.9919 17.3508 15.3669C17.3508 15.7503 17.0424 16.0503 16.6674 16.0503Z" fill="white"/>
<path d="M16.6674 10.8081H9.10911C8.73411 10.8081 8.42578 10.4997 8.42578 10.1247C8.42578 9.74974 8.73411 9.44141 9.10911 9.44141H16.6674C17.0424 9.44141 17.3508 9.74974 17.3508 10.1247C17.3508 10.4997 17.0424 10.8081 16.6674 10.8081Z" fill="white"/>
<path d="M16.6674 5.55807H9.10911C8.73411 5.55807 8.42578 5.24974 8.42578 4.87474C8.42578 4.49974 8.73411 4.19141 9.10911 4.19141H16.6674C17.0424 4.19141 17.3508 4.49974 17.3508 4.87474C17.3508 5.24974 17.0424 5.55807 16.6674 5.55807Z" fill="white"/>
<path d="M4.09108 6.69193C3.90775 6.69193 3.73275 6.61693 3.60775 6.49193L2.84941 5.73359C2.58275 5.46693 2.58275 5.03359 2.84941 4.76693C3.11608 4.50026 3.54941 4.50026 3.81608 4.76693L4.09108 5.04193L5.87441 3.25859C6.14108 2.99193 6.57441 2.99193 6.84108 3.25859C7.10775 3.52526 7.10775 3.95859 6.84108 4.22526L4.57441 6.49193C4.44108 6.61693 4.27441 6.69193 4.09108 6.69193Z" fill="white"/>
<path d="M4.09108 11.9419C3.91608 11.9419 3.74108 11.8753 3.60775 11.7419L2.84941 10.9836C2.58275 10.7169 2.58275 10.2836 2.84941 10.0169C3.11608 9.75026 3.54941 9.75026 3.81608 10.0169L4.09108 10.2919L5.87441 8.50859C6.14108 8.24193 6.57441 8.24193 6.84108 8.50859C7.10775 8.77526 7.10775 9.20859 6.84108 9.47526L4.57441 11.7419C4.44108 11.8753 4.26608 11.9419 4.09108 11.9419Z" fill="white"/>
<path d="M4.09108 16.9419C3.91608 16.9419 3.74108 16.8753 3.60775 16.7419L2.84941 15.9836C2.58275 15.7169 2.58275 15.2836 2.84941 15.0169C3.11608 14.7503 3.54941 14.7503 3.81608 15.0169L4.09108 15.2919L5.87441 13.5086C6.14108 13.2419 6.57441 13.2419 6.84108 13.5086C7.10775 13.7753 7.10775 14.2086 6.84108 14.4753L4.57441 16.7419C4.44108 16.8753 4.26608 16.9419 4.09108 16.9419Z" fill="white"/>
</svg>
