<svg width="20" height="20" viewBox="0 0 20 20" fill="none" xmlns="http://www.w3.org/2000/svg">
<path d="M14.0252 13.0335C14.5836 12.6668 15.3169 13.0668 15.3169 13.7335V14.8085C15.3169 15.8668 14.4919 17.0001 13.5002 17.3335L10.8419 18.2168C10.3752 18.3751 9.61691 18.3751 9.15858 18.2168L6.50026 17.3335C5.50026 17.0001 4.68359 15.8668 4.68359 14.8085V13.7251C4.68359 13.0668 5.41693 12.6668 5.96693 13.0251L7.68359 14.1418C8.34191 14.5835 9.17524 14.8001 10.0086 14.8001C10.8419 14.8001 11.6752 14.5835 12.3336 14.1418L14.0252 13.0335Z" fill="white"/>
<path d="M16.6493 5.38281L11.6576 2.10781C10.7576 1.51615 9.27426 1.51615 8.37426 2.10781L3.35762 5.38281C1.74928 6.42448 1.74928 8.78277 3.35762 9.83277L4.69095 10.6994L8.37426 13.0994C9.27426 13.6911 10.7576 13.6911 11.6576 13.0994L15.3159 10.6994L16.4576 9.94944V12.4994C16.4576 12.8411 16.7409 13.1244 17.0826 13.1244C17.4243 13.1244 17.7076 12.8411 17.7076 12.4994V8.39944C18.0409 7.32448 17.6993 6.07448 16.6493 5.38281Z" fill="white"/>
</svg>
