<svg width="20" height="20" viewBox="0 0 20 20" fill="none" xmlns="http://www.w3.org/2000/svg">
<path d="M10.0003 1.66797C5.40033 1.66797 1.66699 5.4013 1.66699 10.0013C1.66699 14.6013 5.40033 18.3346 10.0003 18.3346C14.6003 18.3346 18.3337 14.6013 18.3337 10.0013C18.3337 5.4013 14.6003 1.66797 10.0003 1.66797ZM14.8253 10.593L13.292 12.1263C12.967 12.4513 12.442 12.4513 12.117 12.1263L10.0003 10.0013L7.88365 12.118C7.55865 12.443 7.03365 12.443 6.70865 12.118L5.17532 10.5846C4.85032 10.2596 4.85032 9.73464 5.17532 9.40964L6.70865 7.8763C7.03365 7.5513 7.55865 7.5513 7.88365 7.8763L10.0003 10.0013L12.117 7.88464C12.442 7.55964 12.967 7.55964 13.292 7.88464L14.8253 9.41797C15.1503 9.73464 15.1503 10.268 14.8253 10.593Z" fill="white"/>
</svg>
