<svg width="20" height="20" viewBox="0 0 20 20" fill="none" xmlns="http://www.w3.org/2000/svg">
<path d="M18.0921 8.25077L16.0921 4.23411C15.7004 3.44245 14.6587 2.80078 13.7754 2.80078H6.22541C5.34208 2.80078 4.30041 3.44245 3.90874 4.23411L1.90874 8.25077C1.4254 9.21746 1.69207 10.5925 2.48374 11.3175L8.25874 16.5591C9.21708 17.4258 10.7754 17.4258 11.7337 16.5591L17.5087 11.3175C18.3087 10.5925 18.5754 9.20913 18.0921 8.25077ZM13.3337 7.70911H10.6254V12.0841C10.6254 12.4258 10.3421 12.7091 10.0004 12.7091C9.65874 12.7091 9.37541 12.4258 9.37541 12.0841V7.70911H6.66708C6.32541 7.70911 6.04208 7.42578 6.04208 7.08411C6.04208 6.74245 6.32541 6.45911 6.66708 6.45911H13.3337C13.6754 6.45911 13.9587 6.74245 13.9587 7.08411C13.9587 7.42578 13.6754 7.70911 13.3337 7.70911Z" fill="white"/>
</svg>
