<svg width="20" height="20" viewBox="0 0 20 20" fill="none" xmlns="http://www.w3.org/2000/svg">
<path d="M17.5 4.375H2.5C2.15833 4.375 1.875 4.09167 1.875 3.75C1.875 3.40833 2.15833 3.125 2.5 3.125H17.5C17.8417 3.125 18.125 3.40833 18.125 3.75C18.125 4.09167 17.8417 4.375 17.5 4.375Z" fill="white"/>
<path d="M10.3917 8.54297H2.5C2.15833 8.54297 1.875 8.25964 1.875 7.91797C1.875 7.5763 2.15833 7.29297 2.5 7.29297H10.3917C10.7333 7.29297 11.0167 7.5763 11.0167 7.91797C11.0167 8.25964 10.7417 8.54297 10.3917 8.54297Z" fill="white"/>
<path d="M17.5 12.707H2.5C2.15833 12.707 1.875 12.4237 1.875 12.082C1.875 11.7404 2.15833 11.457 2.5 11.457H17.5C17.8417 11.457 18.125 11.7404 18.125 12.082C18.125 12.4237 17.8417 12.707 17.5 12.707Z" fill="white"/>
<path d="M10.3917 16.875H2.5C2.15833 16.875 1.875 16.5917 1.875 16.25C1.875 15.9083 2.15833 15.625 2.5 15.625H10.3917C10.7333 15.625 11.0167 15.9083 11.0167 16.25C11.0167 16.5917 10.7417 16.875 10.3917 16.875Z" fill="white"/>
</svg>
