<svg width="20" height="20" viewBox="0 0 20 20" fill="none" xmlns="http://www.w3.org/2000/svg">
<path d="M17.4587 3.44297C17.217 3.09297 16.9087 2.78464 16.5587 2.54297C15.767 1.96797 14.7337 1.66797 13.492 1.66797H6.50866C6.34199 1.66797 6.17533 1.6763 6.01699 1.69297C3.28366 1.86797 1.66699 3.64297 1.66699 6.50964V13.493C1.66699 14.7346 1.96699 15.768 2.54199 16.5596C2.78366 16.9096 3.09199 17.218 3.44199 17.4596C4.12533 17.9596 4.99199 18.2513 6.01699 18.318C6.17533 18.3263 6.34199 18.3346 6.50866 18.3346H13.492C16.5253 18.3346 18.3337 16.5263 18.3337 13.493V6.50964C18.3337 5.26797 18.0337 4.23464 17.4587 3.44297ZM13.2253 6.25964H11.6003L9.73366 13.7346H11.267C11.6087 13.7346 11.892 14.018 11.892 14.3596C11.892 14.7013 11.6087 14.9846 11.267 14.9846H6.77533C6.43366 14.9846 6.15033 14.7013 6.15033 14.3596C6.15033 14.018 6.43366 13.7346 6.77533 13.7346H8.44199L10.3087 6.25964H8.73366C8.39199 6.25964 8.10866 5.9763 8.10866 5.63464C8.10866 5.29297 8.39199 5.00964 8.73366 5.00964H13.217C13.5587 5.00964 13.842 5.29297 13.842 5.63464C13.842 5.9763 13.567 6.25964 13.2253 6.25964Z" fill="white"/>
</svg>
