<svg width="20" height="20" viewBox="0 0 20 20" fill="none" xmlns="http://www.w3.org/2000/svg">
<path d="M11.458 10.625H10.208H7.08301V13.95C7.08301 14.1833 7.27467 14.375 7.50801 14.375H11.458C12.4913 14.375 13.333 13.5333 13.333 12.5C13.333 11.4667 12.4913 10.625 11.458 10.625Z" fill="white"/>
<path d="M12.083 7.5C12.083 6.46667 11.2413 5.625 10.208 5.625H7.50801C7.27467 5.625 7.08301 5.81667 7.08301 6.05V9.375H10.208C11.2413 9.375 12.083 8.53333 12.083 7.5Z" fill="white"/>
<path d="M17.4587 3.44297C17.217 3.09297 16.9087 2.78464 16.5587 2.54297C15.767 1.96797 14.7337 1.66797 13.492 1.66797H6.50866C6.34199 1.66797 6.17533 1.6763 6.01699 1.69297C3.28366 1.86797 1.66699 3.64297 1.66699 6.50964V13.493C1.66699 14.7346 1.96699 15.768 2.54199 16.5596C2.78366 16.9096 3.09199 17.218 3.44199 17.4596C4.12533 17.9596 4.99199 18.2513 6.01699 18.318C6.17533 18.3263 6.34199 18.3346 6.50866 18.3346H13.492C16.5253 18.3346 18.3337 16.5263 18.3337 13.493V6.50964C18.3337 5.26797 18.0337 4.23464 17.4587 3.44297ZM11.4587 15.6263H7.50866C6.58366 15.6263 5.83366 14.8763 5.83366 13.9513V10.0013V6.0513C5.83366 5.1263 6.58366 4.3763 7.50866 4.3763H10.2087C11.9337 4.3763 13.3337 5.7763 13.3337 7.5013C13.3337 8.3013 13.0253 9.0263 12.5253 9.5763C13.717 10.018 14.5837 11.1513 14.5837 12.5013C14.5837 14.2263 13.1837 15.6263 11.4587 15.6263Z" fill="white"/>
</svg>
