<svg width="20" height="20" viewBox="0 0 20 20" fill="none" xmlns="http://www.w3.org/2000/svg">
<path d="M17.4587 3.44297C17.217 3.09297 16.9087 2.78464 16.5587 2.54297C15.767 1.96797 14.7337 1.66797 13.492 1.66797H6.50866C6.34199 1.66797 6.17533 1.6763 6.01699 1.69297C3.28366 1.86797 1.66699 3.64297 1.66699 6.50964V13.493C1.66699 14.7346 1.96699 15.768 2.54199 16.5596C2.78366 16.9096 3.09199 17.218 3.44199 17.4596C4.12533 17.9596 4.99199 18.2513 6.01699 18.318C6.17533 18.3263 6.34199 18.3346 6.50866 18.3346H13.492C16.5253 18.3346 18.3337 16.5263 18.3337 13.493V6.50964C18.3337 5.26797 18.0337 4.23464 17.4587 3.44297ZM15.6253 7.41797C15.6253 7.75963 15.342 8.04297 15.0003 8.04297C14.6587 8.04297 14.3753 7.75963 14.3753 7.41797V6.43464C14.3753 6.16797 14.1587 5.9513 13.892 5.9513H10.6253V14.0513H12.1087C12.4503 14.0513 12.7337 14.3346 12.7337 14.6763C12.7337 15.018 12.4503 15.3013 12.1087 15.3013H7.89199C7.55033 15.3013 7.26699 15.018 7.26699 14.6763C7.26699 14.3346 7.55033 14.0513 7.89199 14.0513H9.37533V5.9513H6.10866C5.84199 5.9513 5.62533 6.16797 5.62533 6.43464V7.41797C5.62533 7.75963 5.34199 8.04297 5.00033 8.04297C4.65866 8.04297 4.37533 7.75963 4.37533 7.41797V6.43464C4.37533 5.4763 5.15033 4.7013 6.10866 4.7013H13.8837C14.842 4.7013 15.617 5.4763 15.617 6.43464V7.41797H15.6253Z" fill="white"/>
</svg>
