<svg width="20" height="20" viewBox="0 0 20 20" fill="none" xmlns="http://www.w3.org/2000/svg">
<path d="M17.5 4.375H2.5C2.15833 4.375 1.875 4.09167 1.875 3.75C1.875 3.40833 2.15833 3.125 2.5 3.125H17.5C17.8417 3.125 18.125 3.40833 18.125 3.75C18.125 4.09167 17.8417 4.375 17.5 4.375Z" fill="white"/>
<path d="M17.5001 8.54297H9.6084C9.26673 8.54297 8.9834 8.25964 8.9834 7.91797C8.9834 7.5763 9.26673 7.29297 9.6084 7.29297H17.5001C17.8417 7.29297 18.1251 7.5763 18.1251 7.91797C18.1251 8.25964 17.8417 8.54297 17.5001 8.54297Z" fill="white"/>
<path d="M17.5 12.707H2.5C2.15833 12.707 1.875 12.4237 1.875 12.082C1.875 11.7404 2.15833 11.457 2.5 11.457H17.5C17.8417 11.457 18.125 11.7404 18.125 12.082C18.125 12.4237 17.8417 12.707 17.5 12.707Z" fill="white"/>
<path d="M17.5001 16.875H9.6084C9.26673 16.875 8.9834 16.5917 8.9834 16.25C8.9834 15.9083 9.26673 15.625 9.6084 15.625H17.5001C17.8417 15.625 18.1251 15.9083 18.1251 16.25C18.1251 16.5917 17.8417 16.875 17.5001 16.875Z" fill="white"/>
</svg>
