<svg width="20" height="20" viewBox="0 0 20 20" fill="none" xmlns="http://www.w3.org/2000/svg">
<path d="M17.4587 3.44297C17.217 3.09297 16.9087 2.78464 16.5587 2.54297C15.767 1.96797 14.7337 1.66797 13.492 1.66797H6.50866C6.34199 1.66797 6.17533 1.6763 6.01699 1.69297C3.28366 1.86797 1.66699 3.64297 1.66699 6.50964V13.493C1.66699 14.7346 1.96699 15.768 2.54199 16.5596C2.78366 16.9096 3.09199 17.218 3.44199 17.4596C4.12533 17.9596 4.99199 18.2513 6.01699 18.318C6.17533 18.3263 6.34199 18.3346 6.50866 18.3346H13.492C16.5253 18.3346 18.3337 16.5263 18.3337 13.493V6.50964C18.3337 5.26797 18.0337 4.23464 17.4587 3.44297ZM14.0253 15.8013H5.97533C5.63366 15.8013 5.35033 15.518 5.35033 15.1763C5.35033 14.8346 5.63366 14.5513 5.97533 14.5513H14.0337C14.3753 14.5513 14.6587 14.8346 14.6587 15.1763C14.6587 15.518 14.3753 15.8013 14.0253 15.8013ZM14.6503 8.8513C14.6503 11.418 12.567 13.5013 10.0003 13.5013C7.43366 13.5013 5.35033 11.418 5.35033 8.8513V4.8263C5.35033 4.48464 5.63366 4.2013 5.97533 4.2013C6.31699 4.2013 6.60033 4.48464 6.60033 4.8263V8.8513C6.60033 10.7263 8.12533 12.2513 10.0003 12.2513C11.8753 12.2513 13.4003 10.7263 13.4003 8.8513V4.8263C13.4003 4.48464 13.6837 4.2013 14.0253 4.2013C14.367 4.2013 14.6503 4.48464 14.6503 4.8263V8.8513Z" fill="white"/>
</svg>
