<svg width="20" height="20" viewBox="0 0 20 20" fill="none" xmlns="http://www.w3.org/2000/svg">
<path d="M13.492 1.66797H6.50866C3.47533 1.66797 1.66699 3.4763 1.66699 6.50964V13.4846C1.66699 16.5263 3.47533 18.3346 6.50866 18.3346H13.4837C16.517 18.3346 18.3253 16.5263 18.3253 13.493V6.50964C18.3337 3.4763 16.5253 1.66797 13.492 1.66797ZM14.7253 7.68464C14.567 7.99297 14.2003 8.11797 13.8837 7.96797C12.8587 7.4513 11.7503 7.16797 10.6253 7.08464V13.5763C10.6253 13.918 10.342 14.2013 10.0003 14.2013C9.65866 14.2013 9.37533 13.918 9.37533 13.5763V7.08464C8.25033 7.16797 7.14199 7.4513 6.11699 7.96797C6.02533 8.00964 5.92533 8.0263 5.83366 8.0263C5.60866 8.0263 5.38366 7.9013 5.27533 7.68464C5.11699 7.3763 5.24199 7.0013 5.55033 6.84297C8.33366 5.4513 11.6587 5.4513 14.442 6.84297C14.7587 7.0013 14.8837 7.3763 14.7253 7.68464Z" fill="white"/>
</svg>
