<svg width="20" height="20" viewBox="0 0 20 20" fill="none" xmlns="http://www.w3.org/2000/svg">
<path d="M17.5 4.375H10C9.65833 4.375 9.375 4.09167 9.375 3.75C9.375 3.40833 9.65833 3.125 10 3.125H17.5C17.8417 3.125 18.125 3.40833 18.125 3.75C18.125 4.09167 17.8417 4.375 17.5 4.375Z" fill="white"/>
<path d="M17.5 8.54297H10C9.65833 8.54297 9.375 8.25964 9.375 7.91797C9.375 7.5763 9.65833 7.29297 10 7.29297H17.5C17.8417 7.29297 18.125 7.5763 18.125 7.91797C18.125 8.25964 17.8417 8.54297 17.5 8.54297Z" fill="white"/>
<path d="M17.5 12.707H2.5C2.15833 12.707 1.875 12.4237 1.875 12.082C1.875 11.7404 2.15833 11.457 2.5 11.457H17.5C17.8417 11.457 18.125 11.7404 18.125 12.082C18.125 12.4237 17.8417 12.707 17.5 12.707Z" fill="white"/>
<path d="M17.5 16.875H2.5C2.15833 16.875 1.875 16.5917 1.875 16.25C1.875 15.9083 2.15833 15.625 2.5 15.625H17.5C17.8417 15.625 18.125 15.9083 18.125 16.25C18.125 16.5917 17.8417 16.875 17.5 16.875Z" fill="white"/>
</svg>
