<svg width="20" height="20" viewBox="0 0 20 20" fill="none" xmlns="http://www.w3.org/2000/svg">
<path d="M10.0003 1.66797C5.40033 1.66797 1.66699 5.4013 1.66699 10.0013C1.66699 14.6013 5.40033 18.3346 10.0003 18.3346C14.6003 18.3346 18.3337 14.6013 18.3337 10.0013C18.3337 5.4013 14.6003 1.66797 10.0003 1.66797ZM6.61699 8.8013C6.61699 7.2513 7.87533 5.98464 9.43366 5.98464C10.992 5.98464 12.2503 7.24297 12.2503 8.8013C12.2503 10.3596 10.992 11.618 9.43366 11.618C7.87533 11.618 6.61699 10.3596 6.61699 8.8013ZM12.992 12.7846L10.492 15.2846C10.367 15.4096 10.2087 15.468 10.0503 15.468C9.89199 15.468 9.73366 15.4096 9.60866 15.2846C9.36699 15.043 9.36699 14.643 9.60866 14.4013L12.1087 11.9013C12.3503 11.6596 12.7503 11.6596 12.992 11.9013C13.2337 12.143 13.242 12.543 12.992 12.7846ZM13.7587 6.9263C13.3003 6.9263 12.9253 6.5513 12.9253 6.09297C12.9253 5.63464 13.292 5.25964 13.7587 5.25964H13.767C14.2253 5.25964 14.6003 5.63464 14.6003 6.09297C14.6003 6.5513 14.217 6.9263 13.7587 6.9263Z" fill="white"/>
</svg>
