<svg width="20" height="20" viewBox="0 0 20 20" fill="none" xmlns="http://www.w3.org/2000/svg">
<path d="M11.6663 8.1237H10.6247V7.08203C10.6247 6.74036 10.3413 6.45703 9.99967 6.45703C9.65801 6.45703 9.37467 6.74036 9.37467 7.08203V8.1237H8.33301C7.99134 8.1237 7.70801 8.40703 7.70801 8.7487C7.70801 9.09036 7.99134 9.3737 8.33301 9.3737H11.6663C12.008 9.3737 12.2913 9.09036 12.2913 8.7487C12.2913 8.40703 12.008 8.1237 11.6663 8.1237Z" fill="white"/>
<path d="M11.6663 10.625H8.33301C7.99134 10.625 7.70801 10.9083 7.70801 11.25C7.70801 11.5917 7.99134 11.875 8.33301 11.875H9.37467V12.9167C9.37467 13.2583 9.65801 13.5417 9.99967 13.5417C10.3413 13.5417 10.6247 13.2583 10.6247 12.9167V11.875H11.6663C12.008 11.875 12.2913 11.5917 12.2913 11.25C12.2913 10.9083 12.008 10.625 11.6663 10.625Z" fill="white"/>
<path d="M13.4915 1.66797H6.51646C3.48313 1.66797 1.6748 3.4763 1.6748 6.50964V13.4846C1.6748 16.518 3.48313 18.3263 6.51646 18.3263H13.4915C16.5248 18.3263 18.3332 16.518 18.3332 13.4846V6.50964C18.3332 3.4763 16.5248 1.66797 13.4915 1.66797ZM14.1665 13.4596C14.1665 14.3096 13.4748 15.0013 12.6248 15.0013H7.37477C6.52477 15.0013 5.83313 14.3096 5.83313 13.4596V6.54297C5.83313 5.69297 6.52477 5.0013 7.37477 5.0013H12.6248C13.4748 5.0013 14.1665 5.69297 14.1665 6.54297V13.4596Z" fill="white"/>
</svg>
