<svg width="20" height="20" viewBox="0 0 20 20" fill="none" xmlns="http://www.w3.org/2000/svg">
<path d="M16.5418 10.7827C16.5418 11.4494 17.0834 11.9994 17.7501 11.9994C18.0668 11.9994 18.3334 12.2577 18.3334 12.5744C18.3334 15.7744 17.3668 16.741 14.1668 16.741H9.79175V15.416C9.79175 15.091 9.54175 14.8244 9.22509 14.7994C9.20842 14.791 9.18342 14.791 9.16675 14.791C8.82509 14.791 8.54175 15.0744 8.54175 15.416V16.741H7.07508C5.50841 16.741 4.70008 15.566 3.96674 13.791L3.82508 13.441C3.70841 13.141 3.85008 12.7994 4.15008 12.6827C4.45841 12.566 4.70008 12.3244 4.82508 12.0077C4.95841 11.6994 4.95841 11.3577 4.83341 11.0494C4.56674 10.4077 3.83341 10.0994 3.18341 10.3577C3.04174 10.4244 2.87508 10.4244 2.73341 10.3577C2.59174 10.2994 2.48341 10.1827 2.41674 10.0327L2.29174 9.69937C1.05008 6.68269 1.59174 5.39102 4.60841 4.14102L6.65008 3.29936C6.95008 3.17436 7.29174 3.31602 7.40841 3.61602L9.22509 7.57436C8.88342 7.57436 8.54175 7.84936 8.54175 8.19102V11.8077C8.54175 12.1494 8.82509 12.4327 9.16675 12.4327C9.18342 12.4327 9.20842 12.4327 9.22509 12.4244C9.54175 12.3994 9.79175 12.1327 9.79175 11.8077V8.19102C9.79175 7.86602 9.54175 7.59936 9.22509 7.57436V4.10769H14.1668C17.3668 4.10769 18.3334 5.07436 18.3334 8.27436V8.9827C18.3334 9.3077 18.0668 9.56603 17.7501 9.56603C17.0834 9.56603 16.5418 10.1077 16.5418 10.7827Z" fill="white"/>
</svg>
