<svg width="20" height="20" viewBox="0 0 20 20" fill="none" xmlns="http://www.w3.org/2000/svg">
<path d="M13.492 1.66797H6.50866C3.47533 1.66797 1.66699 3.4763 1.66699 6.50964V13.4846C1.66699 16.5263 3.47533 18.3346 6.50866 18.3346H13.4837C16.517 18.3346 18.3253 16.5263 18.3253 13.493V6.50964C18.3337 3.4763 16.5253 1.66797 13.492 1.66797ZM13.9837 8.08464L9.25866 12.8096C9.14199 12.9263 8.98366 12.993 8.81699 12.993C8.65033 12.993 8.49199 12.9263 8.37533 12.8096L6.01699 10.4513C5.77533 10.2096 5.77533 9.80963 6.01699 9.56797C6.25866 9.3263 6.65866 9.3263 6.90033 9.56797L8.81699 11.4846L13.1003 7.2013C13.342 6.95964 13.742 6.95964 13.9837 7.2013C14.2253 7.44297 14.2253 7.83464 13.9837 8.08464Z" fill="white"/>
</svg>
