<svg width="20" height="20" viewBox="0 0 20 20" fill="none" xmlns="http://www.w3.org/2000/svg">
<path d="M13.8745 3.21484H8.25786V5.73151C8.25786 6.05651 7.9912 6.31484 7.67453 6.31484C7.35786 6.31484 7.0912 6.05651 7.0912 5.73151V3.21484H6.12453C2.83286 3.21484 1.74953 4.19817 1.67453 7.27317C1.6662 7.42317 1.73286 7.5815 1.8412 7.68984C1.94953 7.8065 2.0912 7.86484 2.25786 7.86484C3.42453 7.86484 4.38286 8.83153 4.38286 9.99819C4.38286 11.1649 3.42453 12.1315 2.25786 12.1315C2.09953 12.1315 1.94953 12.1899 1.8412 12.3065C1.73286 12.4149 1.6662 12.5732 1.67453 12.7232C1.74953 15.7982 2.83286 16.7815 6.12453 16.7815H7.0912V14.2649C7.0912 13.9399 7.35786 13.6815 7.67453 13.6815C7.9912 13.6815 8.25786 13.9399 8.25786 14.2649V16.7815H13.8745C17.2912 16.7815 18.3328 15.7399 18.3328 12.3232V7.67318C18.3328 4.25651 17.2912 3.21484 13.8745 3.21484ZM15.3912 9.91486L14.6162 10.6649C14.5828 10.6899 14.5745 10.7399 14.5828 10.7815L14.7662 11.8399C14.7995 12.0315 14.7245 12.2315 14.5578 12.3482C14.3995 12.4649 14.1912 12.4815 14.0162 12.3899L13.0578 11.8899C13.0245 11.8732 12.9745 11.8732 12.9412 11.8899L11.9828 12.3899C11.9078 12.4315 11.8245 12.4482 11.7412 12.4482C11.6328 12.4482 11.5328 12.4149 11.4412 12.3482C11.2828 12.2315 11.1995 12.0399 11.2328 11.8399L11.4162 10.7815C11.4245 10.7399 11.4078 10.6982 11.3828 10.6649L10.6078 9.91486C10.4662 9.78153 10.4162 9.57319 10.4745 9.38986C10.5328 9.19819 10.6912 9.06486 10.8912 9.03986L11.9578 8.88153C11.9995 8.87319 12.0328 8.84819 12.0578 8.81486L12.5328 7.84818C12.6245 7.67318 12.7995 7.56484 12.9995 7.56484C13.1995 7.56484 13.3745 7.67318 13.4578 7.84818L13.9328 8.81486C13.9495 8.85653 13.9828 8.88153 14.0245 8.88153L15.0912 9.03986C15.2912 9.06486 15.4495 9.20653 15.5078 9.38986C15.5828 9.57319 15.5328 9.77319 15.3912 9.91486Z" fill="white"/>
</svg>
