<svg width="20" height="20" viewBox="0 0 20 20" fill="none" xmlns="http://www.w3.org/2000/svg">
<path d="M17.7503 9.03153C18.0753 9.03153 18.3337 8.77319 18.3337 8.44819V7.67318C18.3337 4.25651 17.292 3.21484 13.8753 3.21484H6.12533C2.70866 3.21484 1.66699 4.25651 1.66699 7.67318V8.06484C1.66699 8.38986 1.92533 8.64819 2.25033 8.64819C3.00033 8.64819 3.60866 9.25653 3.60866 10.0065C3.60866 10.7565 3.00033 11.3565 2.25033 11.3565C1.92533 11.3565 1.66699 11.6149 1.66699 11.9399V12.3315C1.66699 15.7482 2.70866 16.7899 6.12533 16.7899H13.8753C17.292 16.7899 18.3337 15.7482 18.3337 12.3315C18.3337 12.0065 18.0753 11.7482 17.7503 11.7482C17.0003 11.7482 16.392 11.1399 16.392 10.3899C16.392 9.63986 17.0003 9.03153 17.7503 9.03153ZM7.50033 7.39818C7.95866 7.39818 8.33366 7.77318 8.33366 8.23151C8.33366 8.68986 7.96699 9.06486 7.50033 9.06486C7.04199 9.06486 6.66699 8.68986 6.66699 8.23151C6.66699 7.77318 7.03366 7.39818 7.50033 7.39818ZM12.5003 13.2315C12.0337 13.2315 11.6587 12.8565 11.6587 12.3982C11.6587 11.9399 12.0337 11.5649 12.492 11.5649C12.9503 11.5649 13.3253 11.9399 13.3253 12.3982C13.3253 12.8565 12.967 13.2315 12.5003 13.2315ZM13.2503 7.89817L7.64199 13.5065C7.51699 13.6315 7.35866 13.6899 7.20033 13.6899C7.04199 13.6899 6.88366 13.6315 6.75866 13.5065C6.51699 13.2649 6.51699 12.8649 6.75866 12.6232L12.367 7.01484C12.6087 6.77318 13.0087 6.77318 13.2503 7.01484C13.492 7.25651 13.492 7.6565 13.2503 7.89817Z" fill="white"/>
</svg>
