<svg width="20" height="20" viewBox="0 0 20 20" fill="none" xmlns="http://www.w3.org/2000/svg">
<path d="M14.3249 4.13464C14.3249 4.14297 14.3249 4.14297 14.3249 4.1513C14.1166 4.14297 13.9082 4.13464 13.6832 4.13464H7.2666L8.15827 3.2513C8.97491 2.4263 9.87491 1.66797 10.9166 1.66797C11.9666 1.66797 12.8666 2.4263 13.6832 3.2513L14.1499 3.71797C14.2666 3.8263 14.3249 3.9763 14.3249 4.13464Z" fill="white"/>
<path d="M17.3665 10.975C17.6915 10.975 17.9498 10.7083 17.9498 10.375V9.64165C17.9498 6.36667 16.9498 5.375 13.6832 5.375H8.43317H6.31647C3.0498 5.375 2.0498 6.375 2.0498 9.64165V9.99998C2.0498 10.3333 2.30814 10.5916 2.63314 10.5916C3.33314 10.5916 3.89147 11.1583 3.89147 11.85C3.89147 12.5416 3.33314 13.1166 2.63314 13.1166C2.30814 13.1166 2.0498 13.375 2.0498 13.7083V14.0666C2.0498 17.3416 3.0498 18.3333 6.31647 18.3333H8.42484H13.6748C16.9415 18.3333 17.9415 17.3333 17.9415 14.0666C17.9415 13.7416 17.6832 13.475 17.3582 13.475C16.6582 13.475 16.0998 12.9167 16.0998 12.225C16.1082 11.5333 16.6665 10.975 17.3665 10.975ZM9.0165 15.7166C9.0165 16.0416 8.74984 16.3083 8.42484 16.3083C8.0998 16.3083 7.83314 16.0416 7.83314 15.7166V13.4833C7.83314 13.1583 8.0998 12.8916 8.42484 12.8916C8.74984 12.8916 9.0165 13.1583 9.0165 13.4833V15.7166ZM9.0165 10.225C9.0165 10.55 8.74984 10.8167 8.42484 10.8167C8.0998 10.8167 7.83314 10.55 7.83314 10.225V7.99167C7.83314 7.66667 8.0998 7.4 8.42484 7.4C8.74984 7.4 9.0165 7.66667 9.0165 7.99167V10.225Z" fill="white"/>
</svg>
