<svg width="20" height="20" viewBox="0 0 20 20" fill="none" xmlns="http://www.w3.org/2000/svg">
<path d="M14.4926 13.0583L11.1259 10H8.86757L5.50088 13.0583C4.55921 13.9083 4.25088 15.2167 4.70921 16.4C5.16754 17.575 6.28421 18.3333 7.54254 18.3333H12.4509C13.7176 18.3333 14.8259 17.575 15.2842 16.4C15.7426 15.2167 15.4342 13.9083 14.4926 13.0583ZM11.5176 15.1167H8.48424C8.16754 15.1167 7.91754 14.8583 7.91754 14.55C7.91754 14.2417 8.17588 13.9833 8.48424 13.9833H11.5176C11.8342 13.9833 12.0842 14.2417 12.0842 14.55C12.0842 14.8583 11.8259 15.1167 11.5176 15.1167Z" fill="white"/>
<path d="M15.2909 3.6013C14.8326 2.4263 13.7159 1.66797 12.4576 1.66797H7.54091C6.28257 1.66797 5.16591 2.4263 4.70757 3.6013C4.25757 4.78464 4.56591 6.09297 5.50757 6.94297L8.87426 10.0013H11.1326L14.4993 6.94297C15.4326 6.09297 15.7409 4.78464 15.2909 3.6013ZM11.5159 6.0263H8.4826C8.16591 6.0263 7.91591 5.76797 7.91591 5.45964C7.91591 5.1513 8.17424 4.89297 8.4826 4.89297H11.5159C11.8326 4.89297 12.0826 5.1513 12.0826 5.45964C12.0826 5.76797 11.8243 6.0263 11.5159 6.0263Z" fill="white"/>
</svg>
