<svg width="20" height="20" viewBox="0 0 20 20" fill="none" xmlns="http://www.w3.org/2000/svg">
<path d="M12.4078 2.8763H7.59121C7.25788 2.8763 6.99121 2.60964 6.99121 2.2763C6.99121 1.94297 7.25788 1.66797 7.59121 1.66797H12.4078C12.7412 1.66797 13.0078 1.93464 13.0078 2.26797C13.0078 2.6013 12.7412 2.8763 12.4078 2.8763Z" fill="white"/>
<path d="M16.6417 12.5H14.1917C13.1333 12.5 12.5 13.1333 12.5 14.1917V16.6417C12.5 17.7 13.1333 18.3333 14.1917 18.3333H16.6417C17.7 18.3333 18.3333 17.7 18.3333 16.6417V14.1917C18.3333 13.1333 17.7 12.5 16.6417 12.5ZM16.4083 16.2167L15.425 16.7833C15.225 16.9 15.025 16.9583 14.8417 16.9583C14.7 16.9583 14.575 16.925 14.4583 16.8583C14.1917 16.7 14.0417 16.3917 14.0417 15.9833V14.85C14.0417 14.4417 14.1917 14.1333 14.4583 13.975C14.725 13.8167 15.0667 13.85 15.425 14.05L16.4083 14.6167C16.7583 14.825 16.9583 15.1083 16.9583 15.4167C16.9583 15.725 16.7667 16.0083 16.4083 16.2167Z" fill="white"/>
<path d="M11.6671 16.6417V14.1917C11.6671 12.6833 12.6837 11.6667 14.1921 11.6667H16.6421C16.8337 11.6667 17.0171 11.6833 17.1921 11.7167C17.2087 11.5167 17.2254 11.3167 17.2254 11.1083C17.2254 7.11667 13.9837 3.875 10.0004 3.875C6.01706 3.875 2.77539 7.11667 2.77539 11.1083C2.77539 15.0917 6.01706 18.3333 10.0004 18.3333C10.7087 18.3333 11.3837 18.2167 12.0337 18.0333C11.8004 17.6417 11.6671 17.175 11.6671 16.6417ZM10.6254 10.8333C10.6254 11.175 10.3421 11.4583 10.0004 11.4583C9.65874 11.4583 9.37541 11.175 9.37541 10.8333V6.66667C9.37541 6.325 9.65874 6.04167 10.0004 6.04167C10.3421 6.04167 10.6254 6.325 10.6254 6.66667V10.8333Z" fill="white"/>
</svg>
