<svg width="20" height="20" viewBox="0 0 20 20" fill="none" xmlns="http://www.w3.org/2000/svg">
<path d="M10.0004 3.875C6.01706 3.875 2.77539 7.11667 2.77539 11.1C2.77539 15.0833 6.01706 18.3333 10.0004 18.3333C13.9837 18.3333 17.2254 15.0917 17.2254 11.1083C17.2254 7.125 13.9837 3.875 10.0004 3.875ZM10.6254 10.8333C10.6254 11.175 10.3421 11.4583 10.0004 11.4583C9.65874 11.4583 9.37541 11.175 9.37541 10.8333V6.66667C9.37541 6.325 9.65874 6.04167 10.0004 6.04167C10.3421 6.04167 10.6254 6.325 10.6254 6.66667V10.8333Z" fill="white"/>
<path d="M12.4078 2.8763H7.59121C7.25788 2.8763 6.99121 2.60964 6.99121 2.2763C6.99121 1.94297 7.25788 1.66797 7.59121 1.66797H12.4078C12.7412 1.66797 13.0078 1.93464 13.0078 2.26797C13.0078 2.6013 12.7412 2.8763 12.4078 2.8763Z" fill="white"/>
</svg>
