<svg width="20" height="20" viewBox="0 0 20 20" fill="none" xmlns="http://www.w3.org/2000/svg">
<path d="M13.8753 3.21484H6.12533C2.70866 3.21484 1.66699 4.25651 1.66699 7.67318V12.3232C1.66699 15.7399 2.70866 16.7815 6.12533 16.7815H13.8753C17.292 16.7815 18.3337 15.7399 18.3337 12.3232V7.67318C18.3337 4.25651 17.292 3.21484 13.8753 3.21484ZM15.617 10.9315C15.617 12.8065 14.742 13.6815 12.867 13.6815H11.0087C9.13366 13.6815 8.25866 12.8065 8.25866 10.9315V9.07319C8.25866 7.19818 9.13366 6.32318 11.0087 6.32318H12.867C14.742 6.32318 15.617 7.19818 15.617 9.07319V10.9315Z" fill="white"/>
</svg>
