<svg width="20" height="20" viewBox="0 0 20 20" fill="none" xmlns="http://www.w3.org/2000/svg">
<path d="M13.8753 3.21484H6.12533C2.70866 3.21484 1.66699 4.25651 1.66699 7.67318V12.3232C1.66699 15.7399 2.70866 16.7815 6.12533 16.7815H13.8753C17.292 16.7815 18.3337 15.7399 18.3337 12.3232V7.67318C18.3337 4.25651 17.292 3.21484 13.8753 3.21484ZM11.742 10.9315C11.742 12.8065 10.867 13.6815 8.99199 13.6815H7.13366C5.25866 13.6815 4.38366 12.8065 4.38366 10.9315V9.07319C4.38366 7.19818 5.25866 6.32318 7.13366 6.32318H8.99199C10.867 6.32318 11.742 7.19818 11.742 9.07319V10.9315Z" fill="white"/>
</svg>
