<svg width="20" height="20" viewBox="0 0 20 20" fill="none" xmlns="http://www.w3.org/2000/svg">
<path d="M12.5003 12.9167C12.5003 15.9083 10.0753 18.3333 7.08366 18.3333C4.09199 18.3333 1.66699 15.9083 1.66699 12.9167C1.66699 9.925 4.09199 7.5 7.08366 7.5C7.22533 7.5 7.37533 7.50833 7.51699 7.51667C10.1587 7.725 12.2753 9.84167 12.4837 12.4833C12.492 12.625 12.5003 12.775 12.5003 12.9167Z" fill="white"/>
<path d="M18.3331 7.08464C18.3331 9.8013 16.3331 12.043 13.7331 12.4346V12.3846C13.4748 9.1513 10.8498 6.5263 7.59141 6.26797H7.56641C7.95807 3.66797 10.1998 1.66797 12.9164 1.66797C15.9081 1.66797 18.3331 4.09297 18.3331 7.08464Z" fill="white"/>
<path d="M4.65866 1.66797H2.50033C2.04199 1.66797 1.66699 2.04297 1.66699 2.5013V4.65964C1.66699 5.4013 2.56699 5.7763 3.09199 5.2513L5.25033 3.09297C5.76699 2.56797 5.40033 1.66797 4.65866 1.66797Z" fill="white"/>
<path d="M15.3418 18.3322H17.5001C17.9584 18.3322 18.3334 17.9572 18.3334 17.4989V15.3406C18.3334 14.5989 17.4334 14.2239 16.9084 14.7489L14.7501 16.9072C14.2334 17.4322 14.6001 18.3322 15.3418 18.3322Z" fill="white"/>
</svg>
