<svg width="20" height="20" viewBox="0 0 20 20" fill="none" xmlns="http://www.w3.org/2000/svg">
<path d="M13.1503 1.66797H6.85033C3.70033 1.66797 2.91699 2.50964 2.91699 5.86797V15.2513C2.91699 17.468 4.13366 17.993 5.60866 16.4096L5.61699 16.4013C6.30033 15.6763 7.34199 15.7346 7.93366 16.5263L8.77533 17.6513C9.45033 18.543 10.542 18.543 11.217 17.6513L12.0587 16.5263C12.6587 15.7263 13.7003 15.668 14.3837 16.4013C15.867 17.9846 17.0753 17.4596 17.0753 15.243V5.86797C17.0837 2.50964 16.3003 1.66797 13.1503 1.66797ZM12.292 8.95964H7.70866C7.36699 8.95964 7.08366 8.6763 7.08366 8.33464C7.08366 7.99297 7.36699 7.70964 7.70866 7.70964H12.292C12.6337 7.70964 12.917 7.99297 12.917 8.33464C12.917 8.6763 12.6337 8.95964 12.292 8.95964Z" fill="white"/>
</svg>
