<svg width="20" height="20" viewBox="0 0 20 20" fill="none" xmlns="http://www.w3.org/2000/svg">
<path d="M7.44199 1.66797H4.18366C2.50033 1.66797 1.66699 2.5013 1.66699 4.18464V7.4513C1.66699 9.16797 2.50033 10.0013 4.18366 9.95964H7.45033C9.16699 10.0013 10.0003 9.16797 9.95866 7.44297V4.18464C10.0003 2.5013 9.16699 1.66797 7.44199 1.66797ZM7.50866 8.13464C6.94199 8.13464 6.39199 7.91797 5.93366 7.53464C5.41699 7.90964 4.79199 8.13464 4.11699 8.13464C3.77533 8.13464 3.49199 7.8513 3.49199 7.50964C3.49199 7.16797 3.77533 6.88464 4.11699 6.88464C4.96699 6.88464 5.67533 6.3013 5.93366 5.5013H4.11699C3.77533 5.5013 3.49199 5.21797 3.49199 4.8763C3.49199 4.53464 3.77533 4.2513 4.11699 4.2513H5.19199C5.22533 3.93464 5.48366 3.68464 5.80866 3.68464C6.13366 3.68464 6.39199 3.93464 6.42533 4.2513H6.64199C6.65033 4.2513 6.65866 4.2513 6.65866 4.2513H6.67533H7.50033C7.84199 4.2513 8.12533 4.53464 8.12533 4.8763C8.12533 5.21797 7.85033 5.5013 7.50033 5.5013H7.22533C7.15033 5.9013 6.99199 6.2763 6.78366 6.61797C7.00866 6.78464 7.25033 6.88464 7.50866 6.88464C7.85033 6.88464 8.13366 7.16797 8.13366 7.50964C8.13366 7.8513 7.85033 8.13464 7.50866 8.13464Z" fill="white"/>
<path d="M7.50033 18.9583C3.94199 18.9583 1.04199 16.0583 1.04199 12.5C1.04199 12.1583 1.32533 11.875 1.66699 11.875C2.00866 11.875 2.29199 12.1583 2.29199 12.5C2.29199 14.9667 4.00866 17.0333 6.31699 17.575L6.09199 17.2C5.91699 16.9 6.00866 16.5167 6.30866 16.3417C6.60033 16.1667 6.99199 16.2583 7.16699 16.5583L8.04199 18.0167C8.15866 18.2083 8.15866 18.45 8.05033 18.6417C7.93366 18.8333 7.72533 18.9583 7.50033 18.9583Z" fill="white"/>
<path d="M18.3337 8.1263C17.992 8.1263 17.7087 7.84297 17.7087 7.5013C17.7087 5.03464 15.992 2.96797 13.6837 2.4263L13.9087 2.8013C14.0837 3.1013 13.992 3.48464 13.692 3.65964C13.4004 3.83464 13.0087 3.74297 12.8337 3.44297L11.9587 1.98464C11.842 1.79297 11.842 1.5513 11.9504 1.35964C12.067 1.16797 12.2754 1.04297 12.5004 1.04297C16.0587 1.04297 18.9587 3.94297 18.9587 7.5013C18.9587 7.84297 18.6754 8.1263 18.3337 8.1263Z" fill="white"/>
<path d="M14.0995 9.875C11.7662 9.875 9.86621 11.7667 9.86621 14.1083C9.86621 16.4417 11.7579 18.3417 14.0995 18.3417C16.4329 18.3417 18.3329 16.45 18.3329 14.1083C18.3329 11.7667 16.4412 9.875 14.0995 9.875ZM16.1662 16.1167C15.8579 16.2667 15.4829 16.15 15.3245 15.8333L15.1829 15.55H13.0245L12.8829 15.8333C12.7745 16.05 12.5495 16.175 12.3245 16.175C12.2329 16.175 12.1329 16.15 12.0495 16.1083C11.7412 15.95 11.6162 15.575 11.7662 15.2667L13.5495 11.7083C13.6579 11.5 13.8745 11.3667 14.1079 11.3667C14.3412 11.3667 14.5579 11.5 14.6662 11.7167L16.4495 15.275C16.5995 15.5833 16.4745 15.9583 16.1662 16.1167Z" fill="white"/>
<path d="M13.6504 14.299H14.5587L14.1004 13.3906L13.6504 14.299Z" fill="white"/>
</svg>
