<svg width="20" height="20" viewBox="0 0 20 20" fill="none" xmlns="http://www.w3.org/2000/svg">
<path d="M13.4757 8.38359H6.52575C5.54242 8.38359 5.20075 7.72526 5.77575 6.92526L9.25073 2.05859C9.65907 1.47526 10.3424 1.47526 10.7507 2.05859L14.2257 6.92526C14.8007 7.72526 14.4591 8.38359 13.4757 8.38359Z" fill="white"/>
<path d="M14.658 14.9995H5.34133C4.02467 14.9995 3.57467 14.1245 4.34967 13.0578L7.67467 8.38281H12.3247L15.6497 13.0578C16.4247 14.1245 15.9747 14.9995 14.658 14.9995Z" fill="white"/>
<path d="M10.625 15V18.3333C10.625 18.675 10.3417 18.9583 10 18.9583C9.65833 18.9583 9.375 18.675 9.375 18.3333V15H10.625Z" fill="white"/>
</svg>
