<svg width="20" height="20" viewBox="0 0 20 20" fill="none" xmlns="http://www.w3.org/2000/svg">
<path d="M13.4915 1.66797H6.51646C3.48313 1.66797 1.6748 3.4763 1.6748 6.50964V13.4846C1.6748 16.518 3.48313 18.3263 6.51646 18.3263H13.4915C16.5248 18.3263 18.3332 16.518 18.3332 13.4846V6.50964C18.3332 3.4763 16.5248 1.66797 13.4915 1.66797ZM8.97483 13.743C8.97483 14.3013 8.51641 14.7596 7.95811 14.7596H5.91644C5.3581 14.7596 4.8998 14.3013 4.8998 13.743V6.25964C4.8998 5.70131 5.3581 5.24298 5.91644 5.24298H7.95811C8.51641 5.24298 8.97483 5.70131 8.97483 6.25964V13.743ZM15.0998 10.543C15.0998 10.993 14.7332 11.3596 14.2832 11.3596H11.8332C11.3832 11.3596 11.0164 10.993 11.0164 10.543V6.05131C11.0164 5.60131 11.3832 5.23464 11.8332 5.23464H14.2832C14.7332 5.23464 15.0998 5.60131 15.0998 6.05131V10.543Z" fill="white"/>
</svg>
