<svg width="20" height="20" viewBox="0 0 20 20" fill="none" xmlns="http://www.w3.org/2000/svg">
<path d="M13.492 1.66797H6.50866C3.47533 1.66797 1.66699 3.4763 1.66699 6.50964V13.4846C1.66699 16.5263 3.47533 18.3346 6.50866 18.3346H13.4837C16.517 18.3346 18.3253 16.5263 18.3253 13.493V6.50964C18.3337 3.4763 16.5253 1.66797 13.492 1.66797ZM14.067 9.60964C14.067 9.93463 13.8087 10.193 13.4837 10.193C13.1587 10.193 12.9003 9.93463 12.9003 9.60964V9.45964L10.6337 11.7263C10.5087 11.8513 10.342 11.9096 10.167 11.893C9.99199 11.8763 9.83366 11.7846 9.74199 11.6346L8.89199 10.368L6.90866 12.3513C6.79199 12.468 6.65033 12.518 6.50033 12.518C6.35033 12.518 6.20033 12.4596 6.09199 12.3513C5.86699 12.1263 5.86699 11.7596 6.09199 11.5263L8.57533 9.04297C8.70033 8.91797 8.86699 8.85963 9.04199 8.8763C9.21699 8.89297 9.37533 8.98464 9.46699 9.13464L10.317 10.4013L12.0753 8.64297H11.9253C11.6003 8.64297 11.342 8.38464 11.342 8.05964C11.342 7.73464 11.6003 7.4763 11.9253 7.4763H13.4753C13.5503 7.4763 13.6253 7.49297 13.7003 7.51797C13.842 7.5763 13.9587 7.69297 14.017 7.83463C14.0503 7.90963 14.0587 7.98464 14.0587 8.05964V9.60964H14.067Z" fill="white"/>
</svg>
