<svg width="20" height="20" viewBox="0 0 20 20" fill="none" xmlns="http://www.w3.org/2000/svg">
<path d="M13.492 1.66797H6.50866C3.47533 1.66797 1.66699 3.4763 1.66699 6.50964V13.4846C1.66699 16.5263 3.47533 18.3346 6.50866 18.3346H13.4837C16.517 18.3346 18.3253 16.5263 18.3253 13.493V6.50964C18.3337 3.4763 16.5253 1.66797 13.492 1.66797ZM14.067 11.943C14.067 12.018 14.0503 12.093 14.0253 12.168C13.967 12.3096 13.8503 12.4263 13.7087 12.4846C13.6337 12.518 13.5587 12.5263 13.4837 12.5263H11.9337C11.6087 12.5263 11.3503 12.268 11.3503 11.943C11.3503 11.618 11.6087 11.3596 11.9337 11.3596H12.0837L10.3253 9.6013L9.47533 10.868C9.37533 11.0096 9.22533 11.1096 9.05033 11.1263C8.87533 11.143 8.70866 11.0846 8.58366 10.9596L6.10033 8.4763C5.87533 8.2513 5.87533 7.88464 6.10033 7.6513C6.32533 7.41797 6.69199 7.4263 6.92533 7.6513L8.90866 9.63464L9.75866 8.36797C9.85866 8.2263 10.0087 8.1263 10.1837 8.10963C10.367 8.09297 10.5253 8.1513 10.6503 8.2763L12.917 10.543V10.393C12.917 10.068 13.1753 9.80964 13.5003 9.80964C13.8253 9.80964 14.0837 10.068 14.0837 10.393V11.943H14.067Z" fill="white"/>
</svg>
