<svg width="20" height="20" viewBox="0 0 20 20" fill="none" xmlns="http://www.w3.org/2000/svg">
<path d="M9.37442 3.24951V10.7662C9.37442 11.0412 9.24109 11.2912 9.01609 11.4495L3.00775 15.6579C2.51608 15.9995 1.81608 15.7329 1.70775 15.1412C1.58275 14.4245 1.74941 13.5829 2.24941 12.6745L4.84941 7.99951L7.29941 3.59118C7.49108 3.24951 7.69941 2.94951 7.91608 2.69118C8.41609 2.10785 9.37442 2.48285 9.37442 3.24951Z" fill="white"/>
<path d="M16.9917 15.6579L10.9833 11.4495C10.7583 11.2912 10.625 11.0412 10.625 10.7662V3.24951C10.625 2.48285 11.5833 2.10785 12.0833 2.69118C12.3 2.94951 12.5083 3.24951 12.7 3.59118L15.15 7.99951L17.75 12.6745C18.25 13.5829 18.4167 14.4245 18.2917 15.1412C18.1833 15.7329 17.4833 15.9995 16.9917 15.6579Z" fill="white"/>
<path d="M4.38316 15.9487L9.50817 12.532C9.78317 12.3487 10.2332 12.3487 10.5082 12.532L15.6332 15.9487C16.9915 16.857 16.7665 17.5987 15.1332 17.5987H4.87482C3.24982 17.5904 3.02482 16.8487 4.38316 15.9487Z" fill="white"/>
</svg>
