<svg width="20" height="20" viewBox="0 0 20 20" fill="none" xmlns="http://www.w3.org/2000/svg">
<path d="M16.1667 8.77498C16.6 8.69164 16.9 9.18331 16.6333 9.53331L10.8417 16.9083C10.55 17.2833 9.95001 17.0416 10 16.575L10.5833 10.2416C10.6 10.0333 10.7583 9.85831 10.9667 9.81664L16.1667 8.77498Z" fill="white"/>
<path d="M18.033 6.40866C18.2163 6.60866 18.1163 6.93366 17.858 6.992L10.8247 8.40031C10.3663 8.49198 10.0663 7.93366 10.3997 7.60033L14.583 3.41699C14.7747 3.22533 15.083 3.23366 15.2663 3.42533L18.033 6.40866Z" fill="white"/>
<path d="M12.2412 2.65595C12.6328 2.70595 12.7913 3.18095 12.5163 3.46428L9.54959 6.43094C9.37459 6.60594 9.09117 6.61428 8.8995 6.44761L4.44956 2.48928C4.09956 2.18095 4.36619 1.60595 4.82452 1.66428L12.2412 2.65595Z" fill="white"/>
<path d="M8.93357 8.38953C9.15857 8.58953 9.2669 8.8812 9.25024 9.17287L8.53365 17.8895C8.49199 18.3895 7.8003 18.4895 7.61697 18.0229L1.90861 3.29783C1.72528 2.83117 2.29197 2.4395 2.66697 2.77283L8.93357 8.38953Z" fill="white"/>
</svg>
