<svg width="20" height="20" viewBox="0 0 20 20" fill="none" xmlns="http://www.w3.org/2000/svg">
<path d="M17.917 12.918C18.1503 12.918 18.3337 13.1013 18.3337 13.3346V14.168C18.3337 15.5513 17.217 16.668 15.8337 16.668C15.8337 15.293 14.7087 14.168 13.3337 14.168C11.9587 14.168 10.8337 15.293 10.8337 16.668H9.16699C9.16699 15.293 8.04199 14.168 6.66699 14.168C5.29199 14.168 4.16699 15.293 4.16699 16.668C2.78366 16.668 1.66699 15.5513 1.66699 14.168V12.5013C1.66699 12.043 2.04199 11.668 2.50033 11.668H10.417C11.567 11.668 12.5003 10.7346 12.5003 9.58464V5.0013C12.5003 4.54297 12.8753 4.16797 13.3337 4.16797H14.0337C14.6337 4.16797 15.1837 4.49297 15.4837 5.00964L16.017 5.94297C16.092 6.0763 15.992 6.2513 15.8337 6.2513C14.6837 6.2513 13.7503 7.18464 13.7503 8.33464V10.8346C13.7503 11.9846 14.6837 12.918 15.8337 12.918H17.917Z" fill="white"/>
<path d="M6.66667 18.3333C7.58714 18.3333 8.33333 17.5872 8.33333 16.6667C8.33333 15.7462 7.58714 15 6.66667 15C5.74619 15 5 15.7462 5 16.6667C5 17.5872 5.74619 18.3333 6.66667 18.3333Z" fill="white"/>
<path d="M13.3337 18.3333C14.2542 18.3333 15.0003 17.5872 15.0003 16.6667C15.0003 15.7462 14.2542 15 13.3337 15C12.4132 15 11.667 15.7462 11.667 16.6667C11.667 17.5872 12.4132 18.3333 13.3337 18.3333Z" fill="white"/>
<path d="M18.3333 10.4417V11.6667H15.8333C15.375 11.6667 15 11.2917 15 10.8333V8.33333C15 7.875 15.375 7.5 15.8333 7.5H16.9083L18.1167 9.61667C18.2583 9.86667 18.3333 10.15 18.3333 10.4417Z" fill="white"/>
<path d="M10.9003 1.66797H4.74199C3.25033 1.66797 2.00033 2.73464 1.72533 4.1513H5.36699C5.68366 4.1513 5.93366 4.40964 5.93366 4.7263C5.93366 5.04297 5.68366 5.29297 5.36699 5.29297H1.66699V6.44297H3.83366C4.15033 6.44297 4.40866 6.7013 4.40866 7.01797C4.40866 7.33464 4.15033 7.58464 3.83366 7.58464H1.66699V8.73464H2.30866C2.62533 8.73464 2.88366 8.99297 2.88366 9.30964C2.88366 9.6263 2.62533 9.8763 2.30866 9.8763H1.66699V10.068C1.66699 10.5263 2.04199 10.9013 2.50033 10.9013H10.1253C10.9753 10.9013 11.667 10.2096 11.667 9.35964V2.43464C11.667 2.00964 11.3253 1.66797 10.9003 1.66797Z" fill="white"/>
<path d="M1.72467 4.15234H1.59967H0.783008C0.466341 4.15234 0.208008 4.41068 0.208008 4.72734C0.208008 5.04401 0.466341 5.29401 0.783008 5.29401H1.54134H1.66634V4.74401C1.66634 4.54401 1.69134 4.34401 1.72467 4.15234Z" fill="white"/>
<path d="M1.54134 6.44141H0.783008C0.466341 6.44141 0.208008 6.69974 0.208008 7.01641C0.208008 7.33307 0.466341 7.58307 0.783008 7.58307H1.54134H1.66634V6.44141H1.54134Z" fill="white"/>
<path d="M1.54134 8.73438H0.783008C0.466341 8.73438 0.208008 8.99271 0.208008 9.30937C0.208008 9.62604 0.466341 9.87604 0.783008 9.87604H1.54134H1.66634V8.73438H1.54134Z" fill="white"/>
</svg>
