<svg width="20" height="20" viewBox="0 0 20 20" fill="none" xmlns="http://www.w3.org/2000/svg">
<path d="M13.492 1.66797H6.50866C3.47533 1.66797 1.66699 3.4763 1.66699 6.50964V13.4846C1.66699 16.5263 3.47533 18.3346 6.50866 18.3346H13.4837C16.517 18.3346 18.3253 16.5263 18.3253 13.493V6.50964C18.3337 3.4763 16.5253 1.66797 13.492 1.66797ZM13.1337 13.1346C13.0837 13.843 13.0253 14.7263 11.4253 14.7263H8.57533C6.98366 14.7263 6.91699 13.843 6.86699 13.1346L6.60866 9.83464C6.59199 9.61797 6.66699 9.40964 6.80866 9.2513C6.95033 9.09297 7.15866 9.00964 7.36699 9.00964H12.6337C12.842 9.00964 13.0503 9.1013 13.192 9.2513C13.3337 9.40964 13.4087 9.61797 13.392 9.8263L13.1337 13.1346ZM14.0003 8.18464C13.9837 8.18464 13.967 8.18464 13.9503 8.18464C13.0837 8.1013 12.292 8.04297 11.5337 8.00963C10.517 7.95963 9.50033 7.94297 8.47533 7.98464C7.97533 8.00964 7.46699 8.04297 6.96699 8.09297L6.05866 8.18464C6.04199 8.18464 6.01699 8.18464 6.00033 8.18464C5.70866 8.18464 5.45866 7.96797 5.43366 7.66797C5.40033 7.35964 5.63366 7.0763 5.94199 7.0513L6.85033 6.95964C7.20866 6.9263 7.55866 6.9013 7.91699 6.88464L7.98366 6.49297C8.05033 6.0763 8.17533 5.2763 9.42533 5.2763H10.5837C11.842 5.2763 11.967 6.1013 12.0253 6.5013L12.092 6.9013C12.717 6.93464 13.3587 6.98464 14.0587 7.0513C14.3753 7.08464 14.6003 7.35964 14.5753 7.6763C14.542 7.96797 14.292 8.18464 14.0003 8.18464Z" fill="white"/>
</svg>
