<svg width="20" height="20" viewBox="0 0 20 20" fill="none" xmlns="http://www.w3.org/2000/svg">
<path fill-rule="evenodd" clip-rule="evenodd" d="M17.083 1.66797H4.19967C3.92467 1.66797 3.65802 1.80964 3.50802 2.04298L2.22467 3.95964C2.13301 4.09297 2.08301 4.25963 2.08301 4.41796V15.0013C2.08301 15.4596 2.45801 15.8346 2.91634 15.8346H4.58301C5.04134 15.8346 5.41634 16.2096 5.41634 16.668V17.5013C5.41634 17.9596 5.79134 18.3346 6.24967 18.3346H7.46635C7.74135 18.3346 8.008 18.193 8.158 17.9596L9.33301 16.2013C9.49134 15.968 9.74967 15.8263 10.0247 15.8263H13.3997C13.6247 15.8263 13.833 15.7346 13.9913 15.5846L17.6663 11.9096C17.8247 11.7513 17.908 11.543 17.908 11.318V2.5013C17.9163 2.04297 17.5413 1.66797 17.083 1.66797ZM8.99134 10.718C8.99134 10.9846 8.77467 11.193 8.51634 11.193H7.56634C7.29967 11.193 7.09133 10.9763 7.09133 10.718V5.95963C7.09133 5.69296 7.30801 5.48463 7.56634 5.48463H8.51634C8.78301 5.48463 8.99134 5.70129 8.99134 5.95963V10.718ZM13.7497 10.718C13.7497 10.9846 13.533 11.193 13.2747 11.193H12.3247C12.058 11.193 11.8497 10.9763 11.8497 10.718V5.95963C11.8497 5.69296 12.0663 5.48463 12.3247 5.48463H13.2747C13.5413 5.48463 13.7497 5.70129 13.7497 5.95963V10.718Z" fill="white"/>
</svg>
