<svg width="20" height="20" viewBox="0 0 20 20" fill="none" xmlns="http://www.w3.org/2000/svg">
<path d="M14.9999 5.28125C14.8833 5.28125 14.5166 5.30627 14.5166 5.65627C14.5166 5.89793 14.6999 6.03959 14.9999 6.03959C15.2999 6.03959 15.4833 5.89793 15.4833 5.65627C15.4833 5.38127 15.2333 5.28125 14.9999 5.28125Z" fill="white"/>
<path d="M15.0005 4.58984C15.2255 4.58984 15.3671 4.46484 15.3671 4.27317C15.3671 4.03984 15.1755 3.96484 15.0005 3.96484C14.8255 3.96484 14.6338 4.04817 14.6338 4.27317C14.6338 4.46484 14.7755 4.58984 15.0005 4.58984Z" fill="white"/>
<path d="M15.0003 1.66797C13.2503 1.66797 11.8253 3.00964 11.6837 4.71797C11.667 4.80964 11.667 4.90964 11.667 5.0013C11.667 6.84297 13.1587 8.33464 15.0003 8.33464C15.292 8.33464 15.567 8.3013 15.8337 8.2263C17.2753 7.85964 18.3337 6.5513 18.3337 5.0013C18.3337 3.15964 16.842 1.66797 15.0003 1.66797ZM15.0003 6.83464C14.1753 6.83464 13.667 6.41798 13.667 5.74298C13.667 5.41798 13.817 5.1263 14.0837 4.9263C13.8837 4.7513 13.7753 4.50963 13.7753 4.23463C13.7753 3.59296 14.267 3.16796 14.992 3.16796C15.717 3.16796 16.2087 3.60129 16.2087 4.23463C16.2087 4.50963 16.1087 4.7513 15.9003 4.9263C16.1753 5.11797 16.3253 5.40964 16.3253 5.74298C16.3337 6.41798 15.8253 6.83464 15.0003 6.83464Z" fill="white"/>
<path d="M15.0003 9.58464C14.042 9.58464 13.1503 9.29298 12.417 8.78464C12.3587 8.74298 12.2837 8.78464 12.2837 8.85131L12.292 12.868C12.292 13.218 12.0087 13.493 11.667 13.493C11.3253 13.493 11.042 13.218 11.042 12.868V8.75131C11.042 8.47631 11.2253 8.24299 11.4753 8.15965C11.542 8.13465 11.5837 8.04297 11.5337 7.99297C10.842 7.19297 10.417 6.15132 10.417 5.00965C10.417 4.86799 10.4253 4.71797 10.442 4.5763C10.442 4.54297 10.4503 4.51798 10.4503 4.48464C10.4753 4.29298 10.3753 4.10963 10.2087 4.02629L9.45866 3.66797C9.00866 3.45964 8.49199 3.45964 8.04198 3.66797L2.62532 6.21797C2.04198 6.49297 1.66699 7.0763 1.66699 7.7263V13.943C1.66699 14.593 2.04198 15.1763 2.62532 15.4513L8.04198 18.0013C8.49199 18.2096 9.00866 18.2096 9.45866 18.0013L14.8753 15.4513C15.4587 15.1763 15.8337 14.593 15.8337 13.943V10.018C15.8337 9.75964 15.592 9.55964 15.3337 9.57631C15.2253 9.58464 15.117 9.58464 15.0003 9.58464ZM9.79199 11.2513C9.79199 12.518 8.76699 13.543 7.50033 13.543C6.23366 13.543 5.20866 12.518 5.20866 11.2513V8.75131C5.20866 8.40964 5.49199 8.12631 5.83366 8.12631C6.17533 8.12631 6.45866 8.40964 6.45866 8.75131V11.2513C6.45866 11.8263 6.92533 12.293 7.50033 12.293C8.07533 12.293 8.54199 11.8263 8.54199 11.2513V8.75131C8.54199 8.40964 8.82533 8.12631 9.16699 8.12631C9.50866 8.12631 9.79199 8.40964 9.79199 8.75131V11.2513Z" fill="white"/>
</svg>
