<svg width="20" height="20" viewBox="0 0 20 20" fill="none" xmlns="http://www.w3.org/2000/svg">
<path d="M13.492 1.66797H6.50866C3.47533 1.66797 1.66699 3.4763 1.66699 6.50964V13.4846C1.66699 16.5263 3.47533 18.3346 6.50866 18.3346H13.4837C16.517 18.3346 18.3253 16.5263 18.3253 13.493V6.50964C18.3337 3.4763 16.5253 1.66797 13.492 1.66797ZM11.6003 13.8596H7.50033C7.15866 13.8596 6.87533 13.5763 6.87533 13.2346C6.87533 12.893 7.15866 12.6096 7.50033 12.6096H11.6003C12.667 12.6096 13.542 11.743 13.542 10.668C13.542 9.59297 12.6753 8.7263 11.6003 8.7263H7.37533L7.59199 8.94297C7.83366 9.18463 7.83366 9.58464 7.59199 9.8263C7.46699 9.9513 7.30866 10.0096 7.15033 10.0096C6.99199 10.0096 6.83366 9.9513 6.70866 9.8263L5.40033 8.51797C5.15866 8.2763 5.15866 7.8763 5.40033 7.63464L6.70866 6.3263C6.95033 6.08464 7.35033 6.08464 7.59199 6.3263C7.83366 6.56797 7.83366 6.96797 7.59199 7.20963L7.30866 7.48463H11.6003C13.3587 7.48463 14.792 8.91797 14.792 10.6763C14.792 12.4346 13.3587 13.8596 11.6003 13.8596Z" fill="white"/>
</svg>
