<svg width="20" height="20" viewBox="0 0 20 20" fill="none" xmlns="http://www.w3.org/2000/svg">
<path d="M14.5415 14.4169C13.1415 14.4169 11.8498 13.7586 11.0082 12.6002C10.8082 12.3252 10.8665 11.9336 11.1415 11.7252C11.4165 11.5169 11.8082 11.5836 12.0165 11.8586C12.6248 12.6836 13.5415 13.1586 14.5415 13.1586C16.2832 13.1586 17.7082 11.7419 17.7082 9.99191C17.7082 8.24193 16.2915 6.82526 14.5415 6.82526C13.3582 6.82526 12.2415 7.45859 11.6332 8.46691L9.42484 12.1419C8.59151 13.5336 7.06654 14.3919 5.44987 14.3919C3.01654 14.3919 1.0332 12.4086 1.0332 9.97524C1.0332 7.54193 3.01654 5.55859 5.44987 5.55859C6.84987 5.55859 8.14154 6.21693 8.98318 7.37526C9.18318 7.65026 9.12485 8.04193 8.84985 8.25026C8.56651 8.45858 8.1832 8.39191 7.97487 8.11693C7.37487 7.30859 6.4582 6.83359 5.4582 6.83359C3.71654 6.83359 2.29154 8.25026 2.29154 10.0002C2.29154 11.7502 3.7082 13.1669 5.4582 13.1669C6.64154 13.1669 7.7582 12.5336 8.36651 11.5252L10.5748 7.85026C11.4082 6.45859 12.9332 5.60026 14.5498 5.60026C16.9832 5.60026 18.9665 7.58359 18.9665 10.0169C18.9665 12.4502 16.9748 14.4169 14.5415 14.4169Z" fill="white"/>
<path d="M5.41667 11.6654C6.33714 11.6654 7.08333 10.9192 7.08333 9.9987C7.08333 9.0782 6.33714 8.33203 5.41667 8.33203C4.49619 8.33203 3.75 9.0782 3.75 9.9987C3.75 10.9192 4.49619 11.6654 5.41667 11.6654Z" fill="white"/>
<path d="M14.5837 11.6654C15.5042 11.6654 16.2503 10.9192 16.2503 9.9987C16.2503 9.0782 15.5042 8.33203 14.5837 8.33203C13.6632 8.33203 12.917 9.0782 12.917 9.9987C12.917 10.9192 13.6632 11.6654 14.5837 11.6654Z" fill="white"/>
</svg>
