<svg width="20" height="20" viewBox="0 0 20 20" fill="none" xmlns="http://www.w3.org/2000/svg">
<path d="M9.99994 14.4589C10.7501 14.4589 11.3583 13.8508 11.3583 13.1005C11.3583 12.3504 10.7501 11.7422 9.99994 11.7422C9.24977 11.7422 8.6416 12.3504 8.6416 13.1005C8.6416 13.8508 9.24977 14.4589 9.99994 14.4589Z" fill="white"/>
<path d="M13.8753 7.86797H6.12533C6.05866 7.86797 6.00033 7.86797 5.93366 7.86797V6.9013C5.93366 4.45964 6.62533 2.83464 10.0003 2.83464C13.6087 2.83464 14.067 4.59297 14.067 6.1263C14.067 6.4513 14.3253 6.70964 14.6503 6.70964C14.9753 6.70964 15.2337 6.4513 15.2337 6.1263C15.2337 3.16797 13.4753 1.66797 10.0003 1.66797C5.30866 1.66797 4.76699 4.6513 4.76699 6.9013V7.94297C2.43366 8.23464 1.66699 9.41797 1.66699 12.3263V13.8763C1.66699 17.293 2.70866 18.3346 6.12533 18.3346H13.8753C17.292 18.3346 18.3337 17.293 18.3337 13.8763V12.3263C18.3337 8.90964 17.292 7.86797 13.8753 7.86797ZM10.0003 15.618C8.60866 15.618 7.48366 14.4846 7.48366 13.1013C7.48366 11.7096 8.61699 10.5846 10.0003 10.5846C11.3837 10.5846 12.517 11.718 12.517 13.1013C12.517 14.493 11.392 15.618 10.0003 15.618Z" fill="white"/>
</svg>
