<svg width="20" height="20" viewBox="0 0 20 20" fill="none" xmlns="http://www.w3.org/2000/svg">
<path d="M10.625 12.099H10.8167C11.0917 12.099 11.325 11.849 11.325 11.5406C11.325 11.149 11.2333 11.099 10.9667 11.0073L10.625 10.8906V12.099Z" fill="white"/>
<path d="M10.0003 1.66797C5.40033 1.66797 1.66699 5.4013 1.66699 10.0013C1.66699 14.6013 5.40033 18.3346 10.0003 18.3346C14.6003 18.3346 18.3337 14.6013 18.3337 10.0013C18.3337 5.4013 14.6003 1.66797 10.0003 1.66797ZM6.31698 13.6846C6.55865 13.9263 6.55865 14.3263 6.31698 14.568C6.19198 14.693 6.03365 14.7513 5.87532 14.7513C5.71698 14.7513 5.55865 14.693 5.43365 14.568C4.21698 13.3513 3.54199 11.7263 3.54199 10.0013C3.54199 8.2763 4.21698 6.6513 5.43365 5.43464C5.67532 5.19297 6.07532 5.19297 6.31698 5.43464C6.55865 5.6763 6.55865 6.0763 6.31698 6.31797C5.33365 7.3013 4.79199 8.60964 4.79199 10.0013C4.79199 11.393 5.33365 12.7013 6.31698 13.6846ZM11.3753 9.81797C12.1753 10.1013 12.567 10.6596 12.567 11.5346C12.567 12.5346 11.7837 13.343 10.8087 13.343H10.617V13.493C10.617 13.8346 10.3337 14.118 9.99199 14.118C9.65033 14.118 9.36699 13.8346 9.36699 13.493V13.343H9.34199C8.28365 13.343 7.41698 12.4513 7.41698 11.3596C7.41698 11.018 7.70032 10.7346 8.04198 10.7346C8.38366 10.7346 8.66699 11.018 8.66699 11.3596C8.66699 11.768 8.96699 12.093 9.34199 12.093H9.36699V10.443L8.61699 10.1763C7.81699 9.89297 7.42533 9.33463 7.42533 8.45963C7.42533 7.45963 8.20865 6.6513 9.18366 6.6513H9.37533V6.5013C9.37533 6.15964 9.65866 5.8763 10.0003 5.8763C10.342 5.8763 10.6253 6.15964 10.6253 6.5013V6.6513H10.6503C11.7087 6.6513 12.5753 7.54297 12.5753 8.63463C12.5753 8.9763 12.292 9.25963 11.9503 9.25963C11.6087 9.25963 11.3253 8.9763 11.3253 8.63463C11.3253 8.2263 11.0253 7.9013 10.6503 7.9013H10.6253V9.5513L11.3753 9.81797ZM14.567 14.568C14.442 14.693 14.2837 14.7513 14.1253 14.7513C13.967 14.7513 13.8087 14.693 13.6837 14.568C13.442 14.3263 13.442 13.9263 13.6837 13.6846C14.667 12.7013 15.2087 11.393 15.2087 10.0013C15.2087 8.60964 14.667 7.3013 13.6837 6.31797C13.442 6.0763 13.442 5.6763 13.6837 5.43464C13.9253 5.19297 14.3253 5.19297 14.567 5.43464C15.7837 6.6513 16.4587 8.2763 16.4587 10.0013C16.4587 11.7263 15.7837 13.3513 14.567 14.568Z" fill="white"/>
<path d="M8.68359 8.46904C8.68359 8.8607 8.77526 8.9107 9.04193 9.00237L9.38359 9.11904V7.90234H9.19193C8.90859 7.90234 8.68359 8.16068 8.68359 8.46904Z" fill="white"/>
</svg>
