<svg width="20" height="20" viewBox="0 0 20 20" fill="none" xmlns="http://www.w3.org/2000/svg">
<path d="M15 1.66797H5C3.61667 1.66797 2.5 2.7763 2.5 4.14297V13.2346C2.5 14.6013 3.61667 15.7096 5 15.7096H5.63333C6.3 15.7096 6.93333 15.968 7.4 16.4346L8.825 17.843C9.475 18.4846 10.5333 18.4846 11.1833 17.843L12.6083 16.4346C13.075 15.968 13.7167 15.7096 14.375 15.7096H15C16.3833 15.7096 17.5 14.6013 17.5 13.2346V4.14297C17.5 2.7763 16.3833 1.66797 15 1.66797ZM10 4.79297C11.075 4.79297 11.9417 5.65964 11.9417 6.73464C11.9417 7.80964 11.075 8.6763 10 8.6763C8.925 8.6763 8.05833 7.8013 8.05833 6.73464C8.05833 5.65964 8.925 4.79297 10 4.79297ZM12.2333 12.5513H7.76667C7.09167 12.5513 6.7 11.8013 7.075 11.243C7.64167 10.4013 8.74167 9.83464 10 9.83464C11.2583 9.83464 12.3583 10.4013 12.925 11.243C13.3 11.8013 12.9 12.5513 12.2333 12.5513Z" fill="white"/>
</svg>
