<svg width="20" height="20" viewBox="0 0 20 20" fill="none" xmlns="http://www.w3.org/2000/svg">
<path d="M9.99984 12.5C5.82481 12.5 2.4248 15.3 2.4248 18.75C2.4248 18.9833 2.60814 19.1667 2.84147 19.1667H17.1582C17.3915 19.1667 17.5748 18.9833 17.5748 18.75C17.5748 15.3 14.1748 12.5 9.99984 12.5Z" fill="white"/>
<path d="M13.0913 3.0513C12.3413 2.2013 11.2247 1.66797 9.99967 1.66797C8.83301 1.66797 7.76634 2.14297 7.00801 2.9263C6.28301 3.6763 5.83301 4.70964 5.83301 5.83464C5.83301 6.61797 6.04967 7.3513 6.44134 7.9763C6.64967 8.33464 6.91634 8.65964 7.23301 8.9263C7.95801 9.59297 8.92467 10.0013 9.99967 10.0013C11.5247 10.0013 12.8413 9.18464 13.5663 7.9763C13.783 7.61797 13.9497 7.21797 14.0413 6.8013C14.1247 6.49297 14.1663 6.16797 14.1663 5.83464C14.1663 4.76797 13.758 3.79297 13.0913 3.0513ZM11.558 6.6013H10.783V7.40964C10.783 7.84297 10.433 8.19297 9.99967 8.19297C9.56634 8.19297 9.21634 7.84297 9.21634 7.40964V6.6013H8.44134C8.00801 6.6013 7.65801 6.2513 7.65801 5.81797C7.65801 5.38464 8.00801 5.03464 8.44134 5.03464H9.21634V4.29297C9.21634 3.85964 9.56634 3.50964 9.99967 3.50964C10.433 3.50964 10.783 3.85964 10.783 4.29297V5.03464H11.558C11.9913 5.03464 12.3413 5.38464 12.3413 5.81797C12.3413 6.2513 11.9913 6.6013 11.558 6.6013Z" fill="white"/>
</svg>
