<svg width="20" height="20" viewBox="0 0 20 20" fill="none" xmlns="http://www.w3.org/2000/svg">
<path d="M9.99984 11.668C5.82481 11.668 2.4248 14.468 2.4248 17.918C2.4248 18.1513 2.60814 18.3346 2.84147 18.3346H17.1582C17.3915 18.3346 17.5748 18.1513 17.5748 17.918C17.5748 14.468 14.1748 11.668 9.99984 11.668Z" fill="white"/>
<path d="M9.99967 1.66797C9.01634 1.66797 8.11634 2.00964 7.39967 2.58464C6.44134 3.34297 5.83301 4.51797 5.83301 5.83464C5.83301 6.61797 6.04967 7.3513 6.44134 7.9763C7.15801 9.18464 8.47467 10.0013 9.99967 10.0013C11.0497 10.0013 12.008 9.61797 12.7413 8.95964C13.0663 8.68464 13.3497 8.3513 13.5663 7.9763C13.9497 7.3513 14.1663 6.61797 14.1663 5.83464C14.1663 3.53464 12.2997 1.66797 9.99967 1.66797ZM12.158 5.38464L9.93301 7.43464C9.78301 7.5763 9.59134 7.64297 9.39967 7.64297C9.19967 7.64297 8.99967 7.56797 8.84967 7.41797L7.82467 6.38464C7.51634 6.0763 7.51634 5.58464 7.82467 5.2763C8.13301 4.96797 8.62467 4.96797 8.93301 5.2763L9.42467 5.76797L11.0997 4.2263C11.4163 3.93464 11.908 3.9513 12.1997 4.26797C12.4913 4.59297 12.4747 5.09297 12.158 5.38464Z" fill="white"/>
</svg>
