<svg width="20" height="20" viewBox="0 0 20 20" fill="none" xmlns="http://www.w3.org/2000/svg">
<path d="M18.3083 1.94036C17.7083 1.25703 16.8167 0.832031 15.8333 0.832031C14.9 0.832031 14.05 1.21536 13.4417 1.84036C13.0917 2.1987 12.825 2.63203 12.6667 3.11536C12.5583 3.4487 12.5 3.7987 12.5 4.16536C12.5 4.79036 12.675 5.38203 12.9833 5.88203C13.15 6.16536 13.3667 6.4237 13.6167 6.64036C14.2 7.1737 14.975 7.4987 15.8333 7.4987C16.2 7.4987 16.55 7.44036 16.875 7.3237C17.6417 7.08203 18.2833 6.55703 18.6833 5.88203C18.8583 5.5987 18.9917 5.2737 19.0667 4.94036C19.1333 4.69036 19.1667 4.43203 19.1667 4.16536C19.1667 3.31536 18.8417 2.53203 18.3083 1.94036ZM17.075 4.7737H16.4583V5.4237C16.4583 5.76536 16.175 6.0487 15.8333 6.0487C15.4917 6.0487 15.2083 5.76536 15.2083 5.4237V4.7737H14.5917C14.25 4.7737 13.9667 4.49036 13.9667 4.1487C13.9667 3.80703 14.25 3.5237 14.5917 3.5237H15.2083V2.93203C15.2083 2.59036 15.4917 2.30703 15.8333 2.30703C16.175 2.30703 16.4583 2.59036 16.4583 2.93203V3.5237H17.075C17.4167 3.5237 17.7 3.80703 17.7 4.1487C17.7 4.49036 17.425 4.7737 17.075 4.7737Z" fill="white"/>
<path d="M18.3337 10.0013C18.3337 8.90964 18.1253 7.85964 17.7337 6.9013C17.4753 7.08464 17.1837 7.2263 16.8753 7.3263C16.7837 7.35964 16.692 7.38464 16.592 7.40964C16.9087 8.20964 17.0837 9.08464 17.0837 10.0013C17.0837 11.9346 16.3003 13.693 15.0337 14.9763C14.792 14.668 14.4837 14.3846 14.117 14.143C11.8587 12.6263 8.15866 12.6263 5.88366 14.143C5.51699 14.3846 5.21699 14.668 4.96699 14.9763C3.70033 13.693 2.91699 11.9346 2.91699 10.0013C2.91699 6.09297 6.09199 2.91797 10.0003 2.91797C10.9087 2.91797 11.7837 3.09297 12.5837 3.40964C12.6087 3.30964 12.6337 3.21797 12.667 3.11797C12.767 2.80964 12.9087 2.5263 13.1003 2.26797C12.142 1.8763 11.092 1.66797 10.0003 1.66797C5.40866 1.66797 1.66699 5.40964 1.66699 10.0013C1.66699 12.418 2.70866 14.593 4.35866 16.118C4.35866 16.1263 4.35866 16.1263 4.35033 16.1346C4.43366 16.218 4.53366 16.2846 4.61699 16.3596C4.66699 16.4013 4.70866 16.443 4.75866 16.4763C4.90866 16.6013 5.07533 16.718 5.23366 16.8346C5.29199 16.8763 5.34199 16.9096 5.40033 16.9513C5.55866 17.0596 5.72533 17.1596 5.90033 17.2513C5.95866 17.2846 6.02533 17.3263 6.08366 17.3596C6.25033 17.4513 6.42533 17.5346 6.60866 17.6096C6.67533 17.643 6.74199 17.6763 6.80866 17.7013C6.99199 17.7763 7.17533 17.843 7.35866 17.9013C7.42533 17.9263 7.49199 17.9513 7.55866 17.968C7.75866 18.0263 7.95866 18.0763 8.15866 18.1263C8.21699 18.143 8.27533 18.1596 8.34199 18.168C8.57533 18.218 8.80866 18.2513 9.05033 18.2763C9.08366 18.2763 9.11699 18.2846 9.15032 18.293C9.43366 18.318 9.71699 18.3346 10.0003 18.3346C10.2837 18.3346 10.567 18.318 10.842 18.293C10.8753 18.293 10.9087 18.2846 10.942 18.2763C11.1837 18.2513 11.417 18.218 11.6503 18.168C11.7087 18.1596 11.767 18.1346 11.8337 18.1263C12.0337 18.0763 12.242 18.0346 12.4337 17.968C12.5003 17.943 12.567 17.918 12.6337 17.9013C12.817 17.8346 13.0087 17.7763 13.1837 17.7013C13.2503 17.6763 13.317 17.643 13.3837 17.6096C13.5587 17.5346 13.7337 17.4513 13.9087 17.3596C13.9753 17.3263 14.0337 17.2846 14.092 17.2513C14.2587 17.1513 14.4253 17.0596 14.592 16.9513C14.6503 16.918 14.7003 16.8763 14.7587 16.8346C14.9253 16.718 15.0837 16.6013 15.2337 16.4763C15.2837 16.4346 15.3253 16.393 15.3753 16.3596C15.467 16.2846 15.5587 16.2096 15.642 16.1346C15.642 16.1263 15.642 16.1263 15.6337 16.118C17.292 14.593 18.3337 12.418 18.3337 10.0013Z" fill="white"/>
<path d="M10 5.77344C8.275 5.77344 6.875 7.17344 6.875 8.89845C6.875 10.5901 8.2 11.9651 9.95833 12.0151C9.98333 12.0151 10.0167 12.0151 10.0333 12.0151C10.05 12.0151 10.075 12.0151 10.0917 12.0151C10.1 12.0151 10.1083 12.0151 10.1083 12.0151C11.7917 11.9568 13.1167 10.5901 13.125 8.89845C13.125 7.17344 11.725 5.77344 10 5.77344Z" fill="white"/>
</svg>
