<svg width="20" height="20" viewBox="0 0 20 20" fill="none" xmlns="http://www.w3.org/2000/svg">
<path d="M13.492 1.66797H6.50866C3.47533 1.66797 1.66699 3.4763 1.66699 6.50964V13.493C1.66699 15.8346 2.74199 17.443 4.63366 18.0513C5.18366 18.243 5.81699 18.3346 6.50866 18.3346H13.492C14.1837 18.3346 14.817 18.243 15.367 18.0513C17.2587 17.443 18.3337 15.8346 18.3337 13.493V6.50964C18.3337 3.4763 16.5253 1.66797 13.492 1.66797ZM17.0837 13.493C17.0837 15.2763 16.3837 16.4013 14.9753 16.868C14.167 15.2763 12.2503 14.143 10.0003 14.143C7.75033 14.143 5.84199 15.268 5.02533 16.868H5.01699C3.62533 16.418 2.91699 15.2846 2.91699 13.5013V6.50964C2.91699 4.15964 4.15866 2.91797 6.50866 2.91797H13.492C15.842 2.91797 17.0837 4.15964 17.0837 6.50964V13.493Z" fill="white"/>
<path d="M9.99992 6.66797C8.34992 6.66797 7.0166 8.0013 7.0166 9.6513C7.0166 11.3013 8.34992 12.643 9.99992 12.643C11.6499 12.643 12.9833 11.3013 12.9833 9.6513C12.9833 8.0013 11.6499 6.66797 9.99992 6.66797Z" fill="white"/>
</svg>
