<svg width="20" height="20" viewBox="0 0 20 20" fill="none" xmlns="http://www.w3.org/2000/svg">
<path d="M9.99967 1.66797C7.69967 1.66797 5.83301 3.53464 5.83301 5.83464C5.83301 8.13464 7.69967 10.0013 9.99967 10.0013C12.2997 10.0013 14.1663 8.13464 14.1663 5.83464C14.1663 3.53464 12.2997 1.66797 9.99967 1.66797ZM11.808 5.4263L9.55801 7.6763C9.47467 7.75964 9.29967 7.84297 9.18301 7.86797L8.32467 7.98464C8.00801 8.0263 7.79134 7.80964 7.84134 7.5013L7.96634 6.64297C7.98301 6.5263 8.06634 6.3513 8.15801 6.26797L10.408 4.01797C10.7913 3.63464 11.2497 3.4513 11.8163 4.01797C12.3747 4.59297 12.1913 5.04297 11.808 5.4263Z" fill="white"/>
<path d="M9.99984 11.668C5.82481 11.668 2.4248 14.468 2.4248 17.918C2.4248 18.1513 2.60814 18.3346 2.84147 18.3346H17.1582C17.3915 18.3346 17.5748 18.1513 17.5748 17.918C17.5748 14.468 14.1748 11.668 9.99984 11.668Z" fill="white"/>
</svg>
