<svg width="20" height="20" viewBox="0 0 20 20" fill="none" xmlns="http://www.w3.org/2000/svg">
<path d="M9.99984 11.668C5.82481 11.668 2.4248 14.468 2.4248 17.918C2.4248 18.1513 2.60814 18.3346 2.84147 18.3346H17.1582C17.3915 18.3346 17.5748 18.1513 17.5748 17.918C17.5748 14.468 14.1748 11.668 9.99984 11.668Z" fill="white"/>
<path d="M14.0408 4.83438C13.9408 4.42605 13.7742 4.02605 13.5408 3.65938C13.3825 3.39271 13.1742 3.12605 12.9492 2.89271C12.1992 2.14271 11.2242 1.73438 10.2242 1.68438C9.09085 1.60938 7.93251 2.02605 7.05751 2.89271C6.23251 3.70938 5.81585 4.80105 5.83251 5.90105C5.84085 6.94271 6.25751 7.98438 7.04918 8.7844C7.59918 9.3344 8.27418 9.70106 8.99918 9.86773C9.39085 9.96773 9.80751 10.0177 10.2242 9.9844C11.2158 9.94273 12.1825 9.55106 12.9408 8.7844C14.0158 7.70938 14.3825 6.20105 14.0408 4.83438ZM11.6658 7.50105C11.3658 7.80105 10.8658 7.80105 10.5658 7.50105L9.99085 6.92605L9.44085 7.47605C9.14085 7.77605 8.64085 7.77605 8.34085 7.47605C8.03251 7.16771 8.03251 6.67605 8.33251 6.37605L8.88251 5.82605L8.34918 5.30938C8.04918 5.00105 8.04918 4.50938 8.34918 4.19271C8.65751 3.89271 9.14918 3.89271 9.46585 4.19271L9.98251 4.72605L10.5408 4.16771C10.8408 3.86771 11.3325 3.86771 11.6408 4.16771C11.9408 4.46771 11.9408 4.96771 11.6408 5.26771L11.0908 5.81771L11.6658 6.40105C11.9658 6.70105 11.9658 7.20105 11.6658 7.50105Z" fill="white"/>
</svg>
