<svg width="20" height="20" viewBox="0 0 20 20" fill="none" xmlns="http://www.w3.org/2000/svg">
<path d="M17.9667 8.94944L16.8334 7.63281C16.6167 7.38281 16.4417 6.91615 16.4417 6.58281V5.16615C16.4417 4.28281 15.7167 3.55781 14.8334 3.55781H13.4167C13.0917 3.55781 12.6167 3.38281 12.3667 3.16615L11.0501 2.03281C10.4751 1.54115 9.53341 1.54115 8.95008 2.03281L7.64173 3.17448C7.39173 3.38281 6.91673 3.55781 6.59173 3.55781H5.15007C4.26673 3.55781 3.54173 4.28281 3.54173 5.16615V6.59115C3.54173 6.91615 3.36673 7.38281 3.1584 7.63281L2.0334 8.95777C1.55007 9.53277 1.55007 10.4661 2.0334 11.0411L3.1584 12.3661C3.36673 12.6161 3.54173 13.0828 3.54173 13.4078V14.8328C3.54173 15.7161 4.26673 16.4411 5.15007 16.4411H6.59173C6.91673 16.4411 7.39173 16.6161 7.64173 16.8328L8.95841 17.9661C9.53341 18.4578 10.4751 18.4578 11.0584 17.9661L12.3751 16.8328C12.6251 16.6161 13.0917 16.4411 13.4251 16.4411H14.8417C15.7251 16.4411 16.4501 15.7161 16.4501 14.8328V13.4161C16.4501 13.0911 16.6251 12.6161 16.8417 12.3661L17.9751 11.0494C18.4584 10.4744 18.4584 9.52444 17.9667 8.94944ZM13.4667 8.42444L9.44175 12.4494C9.32508 12.5661 9.16675 12.6328 9.00008 12.6328C8.83342 12.6328 8.67508 12.5661 8.55842 12.4494L6.54173 10.4328C6.30007 10.1911 6.30007 9.7911 6.54173 9.54944C6.7834 9.30777 7.1834 9.30777 7.42506 9.54944L9.00008 11.1244L12.5834 7.54115C12.8251 7.29948 13.2251 7.29948 13.4667 7.54115C13.7084 7.78281 13.7084 8.18281 13.4667 8.42444Z" fill="white"/>
</svg>
