<svg width="20" height="20" viewBox="0 0 20 20" fill="none" xmlns="http://www.w3.org/2000/svg">
<path d="M10.0003 1.66797C5.40033 1.66797 1.66699 5.4013 1.66699 10.0013C1.66699 14.6013 5.40033 18.3346 10.0003 18.3346C14.6003 18.3346 18.3337 14.6013 18.3337 10.0013C18.3337 5.4013 14.6003 1.66797 10.0003 1.66797ZM7.54198 6.90963C7.60865 6.76796 7.75866 6.67629 7.91699 6.67629H12.0837C12.242 6.67629 12.3837 6.76796 12.4587 6.90963C12.5337 7.05129 12.517 7.21797 12.417 7.34297L10.3337 10.118C10.2587 10.2263 10.1337 10.2846 10.0003 10.2846C9.86699 10.2846 9.74199 10.2263 9.66699 10.118L7.58364 7.34297C7.49198 7.2263 7.47532 7.05129 7.54198 6.90963ZM14.6753 8.7013L10.5087 14.5346C10.392 14.7013 10.2003 14.793 10.0003 14.793C9.80033 14.793 9.60866 14.693 9.49199 14.5346L5.32533 8.7013C5.12533 8.41797 5.19199 8.0263 5.46699 7.8263C5.75033 7.6263 6.14198 7.69297 6.34198 7.96797L10.0003 13.093L13.6587 7.96797C13.8587 7.68464 14.2503 7.61797 14.5337 7.8263C14.8087 8.0263 14.8753 8.41797 14.6753 8.7013Z" fill="white"/>
</svg>
