<svg width="20" height="20" viewBox="0 0 20 20" fill="none" xmlns="http://www.w3.org/2000/svg">
<path d="M16.2586 4.8763L11.3086 2.01797C10.5002 1.5513 9.50024 1.5513 8.68358 2.01797L3.74193 4.8763C2.93359 5.34297 2.43359 6.20964 2.43359 7.1513V12.8513C2.43359 13.7846 2.93359 14.6513 3.74193 15.1263L8.69191 17.9846C9.50024 18.4513 10.5002 18.4513 11.3169 17.9846L16.2669 15.1263C17.0752 14.6596 17.5752 13.793 17.5752 12.8513V7.1513C17.5669 6.20964 17.0669 5.3513 16.2586 4.8763ZM11.8752 11.168L11.0086 11.668L10.1419 12.168C9.03358 12.8096 8.12526 12.2846 8.12526 11.0013V10.0013V9.0013C8.12526 7.71797 9.03358 7.19297 10.1419 7.83463L11.0086 8.33464L11.8752 8.83464C12.9836 9.4763 12.9836 10.5263 11.8752 11.168Z" fill="white"/>
</svg>
