<svg width="20" height="20" viewBox="0 0 20 20" fill="none" xmlns="http://www.w3.org/2000/svg">
<path d="M17.6247 5.14036C17.283 4.95703 16.5663 4.76536 15.5913 5.4487L14.3663 6.31536C14.2747 3.7237 13.1497 2.70703 10.4163 2.70703H5.41634C2.56634 2.70703 1.45801 3.81536 1.45801 6.66536V13.332C1.45801 15.2487 2.49967 17.2904 5.41634 17.2904H10.4163C13.1497 17.2904 14.2747 16.2737 14.3663 13.682L15.5913 14.5487C16.108 14.9154 16.558 15.032 16.9163 15.032C17.2247 15.032 17.4663 14.9404 17.6247 14.857C17.9663 14.682 18.5413 14.207 18.5413 13.0154V6.98203C18.5413 5.79036 17.9663 5.31536 17.6247 5.14036ZM9.16634 9.48203C8.30801 9.48203 7.59967 8.78203 7.59967 7.91536C7.59967 7.0487 8.30801 6.3487 9.16634 6.3487C10.0247 6.3487 10.733 7.0487 10.733 7.91536C10.733 8.78203 10.0247 9.48203 9.16634 9.48203Z" fill="white"/>
</svg>
