<svg width="20" height="20" viewBox="0 0 20 20" fill="none" xmlns="http://www.w3.org/2000/svg">
<path d="M18.317 13.0596C18.2837 13.0096 18.242 12.9596 18.2003 12.918C17.5253 12.143 16.5253 11.668 15.417 11.668C14.367 11.668 13.4087 12.1013 12.7253 12.8013C12.067 13.4763 11.667 14.4013 11.667 15.418C11.667 16.118 11.867 16.7846 12.2087 17.3513C12.4003 17.668 12.642 17.9596 12.9253 18.2013C12.967 18.243 13.0087 18.2763 13.0587 18.318C13.0587 18.318 13.0587 18.318 13.067 18.318C13.7003 18.8513 14.517 19.168 15.417 19.168C16.7837 19.168 17.9753 18.4346 18.6253 17.3513C18.817 17.0263 18.967 16.668 19.0587 16.293C19.1337 16.0096 19.167 15.718 19.167 15.418C19.167 14.5263 18.8503 13.7013 18.317 13.0596ZM16.8587 16.843C16.7337 16.968 16.5753 17.0263 16.417 17.0263C16.2587 17.0263 16.1003 16.968 15.9753 16.843L15.4253 16.293L14.8503 16.868C14.7253 16.993 14.567 17.0513 14.4087 17.0513C14.2503 17.0513 14.092 16.993 13.967 16.868C13.7253 16.6263 13.7253 16.2263 13.967 15.9846L14.542 15.4096L13.992 14.8596C13.7503 14.618 13.7503 14.218 13.992 13.9763C14.2337 13.7346 14.6337 13.7346 14.8753 13.9763L15.4253 14.5263L15.9503 14.0013C16.192 13.7596 16.592 13.7596 16.8337 14.0013C17.0753 14.243 17.0753 14.643 16.8337 14.8846L16.3087 15.4096L16.8587 15.9596C17.1087 16.2013 17.1087 16.593 16.8587 16.843Z" fill="white"/>
<path d="M12.2746 4.88464V2.08464C12.2746 1.8513 12.0913 1.66797 11.8579 1.66797H8.14128C7.90794 1.66797 7.72461 1.8513 7.72461 2.08464V4.88464C7.72461 5.11797 7.90794 5.3013 8.14128 5.3013H11.8579C12.0913 5.3013 12.2746 5.11797 12.2746 4.88464Z" fill="white"/>
<path d="M6.04206 1.68457C3.90872 1.8179 2.45039 2.9179 1.90872 4.75123C1.82539 5.02623 2.02539 5.30123 2.30872 5.30123H6.05872C6.29206 5.30123 6.47539 5.1179 6.47539 4.88457V2.10123C6.47539 1.8679 6.27539 1.6679 6.04206 1.68457Z" fill="white"/>
<path d="M13.9587 1.67675C16.0921 1.81009 17.5504 2.91009 18.0921 4.74342C18.1754 5.01842 17.9754 5.29342 17.6921 5.29342H13.9421C13.7087 5.29342 13.5254 5.11009 13.5254 4.87675V2.09342C13.5254 1.86009 13.7254 1.66009 13.9587 1.67675Z" fill="white"/>
<path d="M18.3337 6.96744V10.6175C18.3337 10.9258 18.0087 11.1258 17.7337 10.9841C17.0337 10.6175 16.2337 10.4175 15.417 10.4175C14.0753 10.4175 12.767 10.9675 11.8337 11.9258C10.917 12.8591 10.417 14.1008 10.417 15.4175C10.417 16.0925 10.6837 16.9591 11.017 17.6841C11.1503 17.9758 10.9503 18.3341 10.6253 18.3341H6.50866C3.83366 18.3341 1.66699 16.1675 1.66699 13.4925V6.96744C1.66699 6.73411 1.85033 6.55078 2.08366 6.55078H17.917C18.1503 6.55078 18.3337 6.73411 18.3337 6.96744Z" fill="white"/>
</svg>
