<svg width="20" height="20" viewBox="0 0 20 20" fill="none" xmlns="http://www.w3.org/2000/svg">
<path d="M18.317 13.043C17.6337 12.2013 16.592 11.668 15.417 11.668C14.5337 11.668 13.717 11.9763 13.0753 12.493C12.2087 13.1763 11.667 14.2346 11.667 15.418C11.667 16.593 12.2003 17.6346 13.042 18.318C13.6837 18.8513 14.517 19.168 15.417 19.168C16.367 19.168 17.2253 18.8096 17.892 18.2346C18.667 17.543 19.167 16.543 19.167 15.418C19.167 14.518 18.8503 13.6846 18.317 13.043ZM16.2753 15.6513C16.2753 15.868 16.1587 16.0763 15.9753 16.1846L14.8003 16.8846C14.7003 16.943 14.592 16.9763 14.4753 16.9763C14.267 16.9763 14.0587 16.868 13.942 16.6763C13.767 16.3763 13.8587 15.993 14.1587 15.818L15.0253 15.3013V14.2513C15.0253 13.9096 15.3087 13.6263 15.6503 13.6263C15.992 13.6263 16.2753 13.9096 16.2753 14.2513V15.6513Z" fill="white"/>
<path d="M12.2746 4.88464V2.08464C12.2746 1.8513 12.0913 1.66797 11.8579 1.66797H8.14128C7.90794 1.66797 7.72461 1.8513 7.72461 2.08464V4.88464C7.72461 5.11797 7.90794 5.3013 8.14128 5.3013H11.8579C12.0913 5.3013 12.2746 5.11797 12.2746 4.88464Z" fill="white"/>
<path d="M6.04206 1.68457C3.90872 1.8179 2.45039 2.9179 1.90872 4.75123C1.82539 5.02623 2.02539 5.30123 2.30872 5.30123H6.05872C6.29206 5.30123 6.47539 5.1179 6.47539 4.88457V2.10123C6.47539 1.8679 6.27539 1.6679 6.04206 1.68457Z" fill="white"/>
<path d="M13.9587 1.67675C16.0921 1.81009 17.5504 2.91009 18.0921 4.74342C18.1754 5.01842 17.9754 5.29342 17.6921 5.29342H13.9421C13.7087 5.29342 13.5254 5.11009 13.5254 4.87675V2.09342C13.5254 1.86009 13.7254 1.66009 13.9587 1.67675Z" fill="white"/>
<path d="M18.3337 6.96744V10.6175C18.3337 10.9258 18.0087 11.1258 17.7337 10.9841C17.0337 10.6175 16.2337 10.4175 15.417 10.4175C14.0753 10.4175 12.767 10.9675 11.8337 11.9258C10.917 12.8591 10.417 14.1008 10.417 15.4175C10.417 16.0925 10.6837 16.9591 11.017 17.6841C11.1503 17.9758 10.9503 18.3341 10.6253 18.3341H6.50866C3.83366 18.3341 1.66699 16.1675 1.66699 13.4925V6.96744C1.66699 6.73411 1.85033 6.55078 2.08366 6.55078H17.917C18.1503 6.55078 18.3337 6.73411 18.3337 6.96744Z" fill="white"/>
</svg>
