<svg width="20" height="20" viewBox="0 0 20 20" fill="none" xmlns="http://www.w3.org/2000/svg">
<path d="M13.492 1.66797H6.50866C3.47533 1.66797 1.66699 3.4763 1.66699 6.50964V13.4846C1.66699 16.5263 3.47533 18.3346 6.50866 18.3346H13.4837C16.517 18.3346 18.3253 16.5263 18.3253 13.493V6.50964C18.3337 3.4763 16.5253 1.66797 13.492 1.66797ZM12.217 11.443L11.1503 12.0596L10.0837 12.6763C8.70866 13.468 7.58366 12.818 7.58366 11.2346V10.0013V8.76797C7.58366 7.1763 8.70866 6.53464 10.0837 7.3263L11.1503 7.94297L12.217 8.55964C13.592 9.3513 13.592 10.6513 12.217 11.443Z" fill="white"/>
</svg>
