<svg width="20" height="20" viewBox="0 0 20 20" fill="none" xmlns="http://www.w3.org/2000/svg">
<path opacity="0.4" d="M14.7837 6.30859C14.7921 6.36693 14.7921 6.43359 14.7837 6.49193C14.7837 6.43359 14.7754 6.37526 14.7754 6.31693L14.7837 6.30859Z" fill="white"/>
<path d="M14.3998 5.46536L3.19141 16.6737C2.02474 15.932 1.56641 14.607 1.56641 13.332V6.66536C1.56641 3.81536 2.67474 2.70703 5.52474 2.70703H10.5248C12.9331 2.70703 14.0914 3.4987 14.3998 5.46536Z" fill="white"/>
<path d="M17.8337 1.85938C17.5837 1.60937 17.1753 1.60937 16.9253 1.85938L1.54199 17.2427C1.29199 17.4927 1.29199 17.9011 1.54199 18.1511C1.66699 18.2677 1.83366 18.3344 1.99199 18.3344C2.15866 18.3344 2.31699 18.2677 2.44199 18.1427L17.8337 2.75938C18.0837 2.50937 18.0837 2.10938 17.8337 1.85938Z" fill="white"/>
<path d="M18.6498 6.98438V13.0177C18.6498 14.2094 18.0665 14.6844 17.7332 14.8594C17.5748 14.9427 17.3248 15.0344 17.0165 15.0344C16.6582 15.0344 16.2165 14.9177 15.6998 14.5511L14.4665 13.6844C14.4082 15.5261 13.8248 16.5761 12.4998 17.0177C11.9665 17.2094 11.3082 17.2927 10.5165 17.2927H5.51647C5.31647 17.2927 5.1248 17.2844 4.9248 17.2594L12.4998 9.69273L17.2082 4.98438C17.4248 5.00104 17.5998 5.06771 17.7332 5.14271C18.0665 5.31771 18.6498 5.79271 18.6498 6.98438Z" fill="white"/>
</svg>
