<svg width="20" height="20" viewBox="0 0 20 20" fill="none" xmlns="http://www.w3.org/2000/svg">
<path d="M9.37533 6.55078H1.66699V13.4925C1.66699 13.5425 1.66699 13.5925 1.67533 13.6341H9.37533V6.55078Z" fill="white"/>
<path d="M6.40918 5.3013H9.37582V1.66797H6.43418V5.2013C6.43418 5.23464 6.41751 5.26797 6.40918 5.3013Z" fill="white"/>
<path d="M5.18275 5.20078V1.80078C3.33275 2.18411 2.12441 3.41745 1.77441 5.30078H5.19941C5.19108 5.26745 5.18275 5.23411 5.18275 5.20078Z" fill="white"/>
<path d="M13.5167 1.66797H10.625V5.3013H13.5167V1.66797Z" fill="white"/>
<path d="M14.7588 5.3013H18.2255C17.8755 3.4013 16.6505 2.15964 14.7671 1.79297V5.2763C14.7671 5.28464 14.7588 5.29297 14.7588 5.3013Z" fill="white"/>
<path d="M14.7666 18.2078C16.5916 17.8495 17.7916 16.6828 18.1833 14.8828H14.7666V18.2078Z" fill="white"/>
<path d="M13.5167 14.8828H10.625V18.3328H13.5167V14.8828Z" fill="white"/>
<path d="M10.625 13.6341H18.325C18.3333 13.5925 18.3333 13.5425 18.3333 13.4925V6.55078H10.625V13.6341Z" fill="white"/>
<path d="M9.37524 14.8828H6.43359V18.3328H9.37524V14.8828Z" fill="white"/>
<path d="M1.81641 14.8828C2.20807 16.6661 3.39141 17.8328 5.18307 18.1995V14.8828H1.81641Z" fill="white"/>
</svg>
