<svg width="20" height="20" viewBox="0 0 20 20" fill="none" xmlns="http://www.w3.org/2000/svg">
<path d="M12.2746 4.88464V2.08464C12.2746 1.8513 12.0913 1.66797 11.8579 1.66797H8.14128C7.90794 1.66797 7.72461 1.8513 7.72461 2.08464V4.88464C7.72461 5.11797 7.90794 5.3013 8.14128 5.3013H11.8579C12.0913 5.3013 12.2746 5.11797 12.2746 4.88464Z" fill="white"/>
<path d="M6.04206 1.68457C3.90872 1.8179 2.45039 2.9179 1.90872 4.75123C1.82539 5.02623 2.02539 5.30123 2.30872 5.30123H6.05872C6.29206 5.30123 6.47539 5.1179 6.47539 4.88457V2.10123C6.47539 1.8679 6.27539 1.6679 6.04206 1.68457Z" fill="white"/>
<path d="M13.9587 1.67675C16.0921 1.81009 17.5504 2.91009 18.0921 4.74342C18.1754 5.01842 17.9754 5.29342 17.6921 5.29342H13.9421C13.7087 5.29342 13.5254 5.11009 13.5254 4.87675V2.09342C13.5254 1.86009 13.7254 1.66009 13.9587 1.67675Z" fill="white"/>
<path d="M18.3337 13.0846C18.3337 13.0763 18.3253 13.068 18.317 13.0596C18.2837 13.0096 18.242 12.9596 18.2003 12.918C18.192 12.9096 18.1837 12.893 18.1753 12.8846C17.5003 12.1346 16.5087 11.668 15.417 11.668C14.367 11.668 13.4087 12.1013 12.7253 12.8013C12.067 13.4763 11.667 14.4013 11.667 15.418C11.667 16.118 11.867 16.7846 12.2087 17.3513C12.392 17.6596 12.6253 17.943 12.892 18.1763C12.9087 18.1846 12.917 18.193 12.9253 18.2013C12.967 18.243 13.0087 18.2763 13.0587 18.318C13.0587 18.318 13.0587 18.318 13.067 18.318C13.0753 18.3263 13.0837 18.3346 13.092 18.3346C13.717 18.8596 14.5253 19.168 15.417 19.168C16.7837 19.168 17.9753 18.4346 18.6253 17.3513C18.817 17.0263 18.967 16.668 19.0587 16.293C19.1337 16.0096 19.167 15.718 19.167 15.418C19.167 14.5346 18.8587 13.718 18.3337 13.0846ZM16.817 16.0263H16.042V16.8346C16.042 17.1763 15.7587 17.4596 15.417 17.4596C15.0753 17.4596 14.792 17.1763 14.792 16.8346V16.0263H14.017C13.6753 16.0263 13.392 15.743 13.392 15.4013C13.392 15.0596 13.6753 14.7763 14.017 14.7763H14.792V14.0346C14.792 13.693 15.0753 13.4096 15.417 13.4096C15.7587 13.4096 16.042 13.693 16.042 14.0346V14.7763H16.817C17.1587 14.7763 17.442 15.0596 17.442 15.4013C17.442 15.743 17.167 16.0263 16.817 16.0263Z" fill="white"/>
<path d="M18.3337 6.96744V10.6175C18.3337 10.9258 18.0087 11.1258 17.7337 10.9841C17.0337 10.6175 16.2337 10.4175 15.417 10.4175C14.0753 10.4175 12.767 10.9675 11.8337 11.9258C10.917 12.8591 10.417 14.1008 10.417 15.4175C10.417 16.0925 10.6837 16.9591 11.017 17.6841C11.1503 17.9758 10.9503 18.3341 10.6253 18.3341H6.50866C3.83366 18.3341 1.66699 16.1675 1.66699 13.4925V6.96744C1.66699 6.73411 1.85033 6.55078 2.08366 6.55078H17.917C18.1503 6.55078 18.3337 6.73411 18.3337 6.96744Z" fill="white"/>
</svg>
