<svg width="20" height="20" viewBox="0 0 20 20" fill="none" xmlns="http://www.w3.org/2000/svg">
<path d="M5.30033 6.48438H1.66699V9.37604H5.30033V6.48438Z" fill="white"/>
<path d="M5.30033 5.24401V1.77734C3.40033 2.12734 2.15866 3.35234 1.79199 5.23568H5.27533C5.28366 5.23568 5.29199 5.24401 5.30033 5.24401Z" fill="white"/>
<path d="M5.30033 13.5917V10.625H1.66699V13.5667H5.20033C5.23366 13.5667 5.26699 13.5833 5.30033 13.5917Z" fill="white"/>
<path d="M18.2088 5.23307C17.8505 3.40807 16.6838 2.20807 14.8838 1.81641V5.23307H18.2088Z" fill="white"/>
<path d="M13.6332 9.3763V1.6763C13.5915 1.66797 13.5415 1.66797 13.4915 1.66797H6.5498V9.3763H13.6332Z" fill="white"/>
<path d="M18.3338 10.625H14.8838V13.5667H18.3338V10.625Z" fill="white"/>
<path d="M14.8838 18.1831C16.6671 17.7914 17.8338 16.6081 18.2005 14.8164H14.8838V18.1831Z" fill="white"/>
<path d="M5.1998 14.8174H1.7998C2.18314 16.6674 3.41647 17.8758 5.2998 18.2258V14.8008C5.26647 14.8091 5.23314 14.8174 5.1998 14.8174Z" fill="white"/>
<path d="M18.3338 6.48438H14.8838V9.37604H18.3338V6.48438Z" fill="white"/>
<path d="M6.5498 10.625V18.3333H13.4915C13.5415 18.3333 13.5915 18.3333 13.6332 18.325V10.625H6.5498Z" fill="white"/>
</svg>
