<svg width="20" height="20" viewBox="0 0 20 20" fill="none" xmlns="http://www.w3.org/2000/svg">
<path d="M12.2746 1.66797H7.72461V5.3013H12.2746V1.66797Z" fill="white"/>
<path d="M13.5254 1.66797V5.3013H18.2254C17.8004 3.00964 16.1087 1.6763 13.5254 1.66797Z" fill="white"/>
<path d="M1.66699 6.55078V13.4925C1.66699 16.5258 3.47533 18.3341 6.50866 18.3341H13.492C16.5253 18.3341 18.3337 16.5258 18.3337 13.4925V6.55078H1.66699ZM12.0337 13.4841L10.3003 14.4841C9.93366 14.6925 9.57533 14.8008 9.24199 14.8008C8.99199 14.8008 8.76699 14.7425 8.55866 14.6258C8.07533 14.3508 7.80866 13.7841 7.80866 13.0508V11.0508C7.80866 10.3175 8.07533 9.7508 8.55866 9.4758C9.04199 9.19246 9.65866 9.24246 10.3003 9.61746L12.0337 10.6175C12.6753 10.9841 13.0253 11.5008 13.0253 12.0591C13.0253 12.6175 12.667 13.1091 12.0337 13.4841Z" fill="white"/>
<path d="M6.47441 1.66797C3.89108 1.6763 2.19941 3.00964 1.77441 5.3013H6.47441V1.66797Z" fill="white"/>
</svg>
