<svg width="20" height="20" viewBox="0 0 20 20" fill="none" xmlns="http://www.w3.org/2000/svg">
<path d="M10.0003 1.66797C5.40033 1.66797 1.66699 5.4013 1.66699 10.0013C1.66699 14.6013 5.40033 18.3346 10.0003 18.3346C14.6003 18.3346 18.3337 14.6013 18.3337 10.0013C18.3337 5.4013 14.6003 1.66797 10.0003 1.66797ZM5.62533 11.7846C5.62533 12.1263 5.34199 12.4096 5.00033 12.4096C4.65866 12.4096 4.37533 12.1263 4.37533 11.7846V8.21797C4.37533 7.8763 4.65866 7.59297 5.00033 7.59297C5.34199 7.59297 5.62533 7.8763 5.62533 8.21797V11.7846ZM8.12533 12.9763C8.12533 13.318 7.84199 13.6013 7.50033 13.6013C7.15866 13.6013 6.87533 13.318 6.87533 12.9763V7.0263C6.87533 6.68464 7.15866 6.4013 7.50033 6.4013C7.84199 6.4013 8.12533 6.68464 8.12533 7.0263V12.9763ZM10.6253 14.168C10.6253 14.5096 10.342 14.793 10.0003 14.793C9.65866 14.793 9.37533 14.5096 9.37533 14.168V5.83464C9.37533 5.49297 9.65866 5.20964 10.0003 5.20964C10.342 5.20964 10.6253 5.49297 10.6253 5.83464V14.168ZM13.1253 12.9763C13.1253 13.318 12.842 13.6013 12.5003 13.6013C12.1587 13.6013 11.8753 13.318 11.8753 12.9763V7.0263C11.8753 6.68464 12.1587 6.4013 12.5003 6.4013C12.842 6.4013 13.1253 6.68464 13.1253 7.0263V12.9763ZM15.6253 11.7846C15.6253 12.1263 15.342 12.4096 15.0003 12.4096C14.6587 12.4096 14.3753 12.1263 14.3753 11.7846V8.21797C14.3753 7.8763 14.6587 7.59297 15.0003 7.59297C15.342 7.59297 15.6253 7.8763 15.6253 8.21797V11.7846Z" fill="white"/>
</svg>
