<svg width="20" height="20" viewBox="0 0 20 20" fill="none" xmlns="http://www.w3.org/2000/svg">
<path d="M15.0002 13.9586C14.8669 13.9586 14.7419 13.9169 14.6252 13.8336C14.3502 13.6252 14.2919 13.2336 14.5002 12.9586C15.5502 11.5586 15.7752 9.70025 15.1002 8.09193C14.9669 7.77526 15.1169 7.4086 15.4336 7.27526C15.7502 7.14193 16.1169 7.29193 16.2502 7.6086C17.1002 9.62525 16.8086 11.9669 15.5002 13.7169C15.3752 13.8752 15.1919 13.9586 15.0002 13.9586Z" fill="white"/>
<path d="M16.5256 16.0404C16.3923 16.0404 16.2673 15.9987 16.1506 15.9154C15.8756 15.707 15.8173 15.3154 16.0256 15.0404C17.809 12.6654 18.2006 9.48203 17.0506 6.74037C16.9173 6.4237 17.0673 6.05703 17.384 5.9237C17.7006 5.79037 18.0673 5.94037 18.2006 6.25703C19.5256 9.40703 19.0756 13.057 17.0256 15.7904C16.909 15.957 16.7173 16.0404 16.5256 16.0404Z" fill="white"/>
<path d="M11.7007 10.7997C12.2257 10.2747 13.1257 10.6497 13.1257 11.3914V13.833C13.1257 15.2664 12.6091 16.3414 11.6841 16.858C11.3091 17.0664 10.8924 17.1664 10.4591 17.1664C9.79241 17.1664 9.07574 16.9414 8.34241 16.483L7.80905 16.1497C7.35905 15.8664 7.28405 15.233 7.65905 14.858L11.7007 10.7997Z" fill="white"/>
<path d="M18.142 1.85938C17.892 1.60937 17.4837 1.60937 17.2337 1.85938L13.1087 5.98438C13.0587 4.65104 12.5587 3.65104 11.6753 3.15938C10.742 2.64271 9.55033 2.77604 8.33366 3.53438L5.90866 5.05104C5.74199 5.15104 5.55033 5.20938 5.35866 5.20938H4.58366H4.16699C2.15033 5.20938 1.04199 6.31771 1.04199 8.33438V11.6677C1.04199 13.6844 2.15033 14.7927 4.16699 14.7927H4.30033L1.85033 17.2427C1.60033 17.4927 1.60033 17.9011 1.85033 18.1511C1.98366 18.2677 2.14199 18.3344 2.30866 18.3344C2.47533 18.3344 2.63366 18.2677 2.75866 18.1427L18.142 2.75938C18.4003 2.50937 18.4003 2.10938 18.142 1.85938Z" fill="white"/>
</svg>
