<svg width="20" height="20" viewBox="0 0 20 20" fill="none" xmlns="http://www.w3.org/2000/svg">
<path d="M18.7749 11.1844L17.5665 9.97605L18.7332 8.80938C18.9749 8.56772 18.9749 8.16771 18.7332 7.92604C18.4915 7.68438 18.0915 7.68438 17.8499 7.92604L16.6832 9.09272L15.4749 7.88438C15.2332 7.64271 14.8332 7.64271 14.5915 7.88438C14.3499 8.12604 14.3499 8.52605 14.5915 8.76772L15.7999 9.97605L14.5582 11.2177C14.3165 11.4594 14.3165 11.8594 14.5582 12.1011C14.6832 12.2261 14.8415 12.2844 14.9999 12.2844C15.1582 12.2844 15.3165 12.2261 15.4415 12.1011L16.6832 10.8594L17.8915 12.0677C18.0165 12.1927 18.1749 12.2511 18.3332 12.2511C18.4915 12.2511 18.6499 12.1927 18.7749 12.0677C19.0165 11.8261 19.0165 11.4344 18.7749 11.1844Z" fill="white"/>
<path d="M11.6837 3.14944C10.7503 2.63278 9.55866 2.76611 8.34199 3.52444L5.90866 5.04944C5.74199 5.14944 5.55033 5.20778 5.35866 5.20778H4.58366H4.16699C2.15033 5.20778 1.04199 6.31611 1.04199 8.33278V11.6661C1.04199 13.6828 2.15033 14.7911 4.16699 14.7911H4.58366H5.35866C5.55033 14.7911 5.74199 14.8494 5.90866 14.9494L8.34199 16.4744C9.07533 16.9328 9.79199 17.1578 10.4587 17.1578C10.892 17.1578 11.3087 17.0578 11.6837 16.8494C12.6087 16.3328 13.1253 15.2578 13.1253 13.8244V6.17444C13.1253 4.74111 12.6087 3.66611 11.6837 3.14944Z" fill="white"/>
</svg>
