<svg width="20" height="20" viewBox="0 0 20 20" fill="none" xmlns="http://www.w3.org/2000/svg">
<path d="M15.0002 13.9599C14.8669 13.9599 14.7419 13.9182 14.6252 13.8349C14.3502 13.6266 14.2919 13.2349 14.5002 12.9599C15.8086 11.2182 15.8086 8.78489 14.5002 7.0432C14.2919 6.7682 14.3502 6.37653 14.6252 6.1682C14.9002 5.95986 15.2919 6.0182 15.5002 6.2932C17.1336 8.47655 17.1336 11.5266 15.5002 13.7099C15.3752 13.8766 15.1919 13.9599 15.0002 13.9599Z" fill="white"/>
<path d="M16.5256 16.0406C16.3923 16.0406 16.2673 15.999 16.1506 15.9156C15.8756 15.7073 15.8173 15.3156 16.0256 15.0406C18.2506 12.074 18.2506 7.92393 16.0256 4.95726C15.8173 4.68226 15.8756 4.29059 16.1506 4.08226C16.4256 3.87393 16.8173 3.93226 17.0256 4.20726C19.584 7.61559 19.584 12.3823 17.0256 15.7906C16.909 15.9573 16.7173 16.0406 16.5256 16.0406Z" fill="white"/>
<path d="M11.6837 3.14944C10.7503 2.63278 9.55866 2.76611 8.34199 3.52444L5.90866 5.04944C5.74199 5.14944 5.55033 5.20778 5.35866 5.20778H4.58366H4.16699C2.15033 5.20778 1.04199 6.31611 1.04199 8.33278V11.6661C1.04199 13.6828 2.15033 14.7911 4.16699 14.7911H4.58366H5.35866C5.55033 14.7911 5.74199 14.8494 5.90866 14.9494L8.34199 16.4744C9.07533 16.9328 9.79199 17.1578 10.4587 17.1578C10.892 17.1578 11.3087 17.0578 11.6837 16.8494C12.6087 16.3328 13.1253 15.2578 13.1253 13.8244V6.17444C13.1253 4.74111 12.6087 3.66611 11.6837 3.14944Z" fill="white"/>
</svg>
