<svg width="20" height="20" viewBox="0 0 20 20" fill="none" xmlns="http://www.w3.org/2000/svg">
<path d="M16.1086 13.9599C15.9753 13.9599 15.8503 13.9182 15.7336 13.8349C15.4586 13.6266 15.4003 13.2349 15.6086 12.9599C16.917 11.2182 16.917 8.78489 15.6086 7.0432C15.4003 6.7682 15.4586 6.37653 15.7336 6.1682C16.0086 5.95986 16.4003 6.0182 16.6086 6.2932C18.2503 8.47655 18.2503 11.5266 16.6086 13.7099C16.492 13.8766 16.3003 13.9599 16.1086 13.9599Z" fill="white"/>
<path d="M12.7921 3.14944C11.8587 2.63278 10.6671 2.76611 9.45041 3.52444L7.01706 5.04944C6.85039 5.14944 6.65872 5.20778 6.46706 5.20778H5.69206H5.27539C3.25872 5.20778 2.15039 6.31611 2.15039 8.33278V11.6661C2.15039 13.6828 3.25872 14.7911 5.27539 14.7911H5.69206H6.46706C6.65872 14.7911 6.85039 14.8494 7.01706 14.9494L9.45041 16.4744C10.1837 16.9328 10.9004 17.1578 11.5671 17.1578C12.0004 17.1578 12.4171 17.0578 12.7921 16.8494C13.7171 16.3328 14.2337 15.2578 14.2337 13.8244V6.17444C14.2337 4.74111 13.7171 3.66611 12.7921 3.14944Z" fill="white"/>
</svg>
