<svg width="20" height="20" viewBox="0 0 20 20" fill="none" xmlns="http://www.w3.org/2000/svg">
<path d="M14.5997 3.14944C13.6663 2.63278 12.4747 2.76611 11.258 3.52444L8.82467 5.04944C8.65801 5.14944 8.46634 5.20778 8.27467 5.20778H7.49967H7.08301C5.06634 5.20778 3.95801 6.31611 3.95801 8.33278V11.6661C3.95801 13.6828 5.06634 14.7911 7.08301 14.7911H7.49967H8.27467C8.46634 14.7911 8.65801 14.8494 8.82467 14.9494L11.258 16.4744C11.9913 16.9328 12.708 17.1578 13.3747 17.1578C13.808 17.1578 14.2247 17.0578 14.5997 16.8494C15.5247 16.3328 16.0413 15.2578 16.0413 13.8244V6.17444C16.0413 4.74111 15.5247 3.66611 14.5997 3.14944Z" fill="white"/>
</svg>
