<svg width="20" height="20" viewBox="0 0 20 20" fill="none" xmlns="http://www.w3.org/2000/svg">
<path d="M18.3333 10.625H15C14.6583 10.625 14.375 10.3417 14.375 10C14.375 9.65833 14.6583 9.375 15 9.375H18.3333C18.675 9.375 18.9583 9.65833 18.9583 10C18.9583 10.3417 18.675 10.625 18.3333 10.625Z" fill="white"/>
<path d="M11.6837 3.14944C10.7503 2.63278 9.55866 2.76611 8.34199 3.52444L5.90866 5.04944C5.74199 5.14944 5.55033 5.20778 5.35866 5.20778H4.58366H4.16699C2.15033 5.20778 1.04199 6.31611 1.04199 8.33278V11.6661C1.04199 13.6828 2.15033 14.7911 4.16699 14.7911H4.58366H5.35866C5.55033 14.7911 5.74199 14.8494 5.90866 14.9494L8.34199 16.4744C9.07533 16.9328 9.79199 17.1578 10.4587 17.1578C10.892 17.1578 11.3087 17.0578 11.6837 16.8494C12.6087 16.3328 13.1253 15.2578 13.1253 13.8244V6.17444C13.1253 4.74111 12.6087 3.66611 11.6837 3.14944Z" fill="white"/>
</svg>
