<svg width="20" height="20" viewBox="0 0 20 20" fill="none" xmlns="http://www.w3.org/2000/svg">
<path d="M9.99951 18.9572C9.79117 18.9572 9.59117 18.8489 9.47451 18.6739L1.94118 7.00722C1.75785 6.71555 1.84118 6.33221 2.12451 6.14054C2.41618 5.95721 2.79952 6.03221 2.99119 6.32387L9.99117 17.1739L16.9662 6.32387C17.1495 6.03221 17.5412 5.94887 17.8328 6.1322C18.1245 6.31553 18.2078 6.70721 18.0245 6.99887L10.5245 18.6655C10.4078 18.8489 10.2162 18.9572 9.99951 18.9572Z" fill="white"/>
<path d="M3.26645 3.33203H4.7831C4.92477 3.33203 5.04979 3.3987 5.13311 3.51536L9.66643 10.307C9.83309 10.557 10.1914 10.557 10.3581 10.307L14.8914 3.51536C14.9664 3.3987 15.0998 3.33203 15.2414 3.33203H16.7581C17.0914 3.33203 17.2831 3.69869 17.1081 3.97369L10.3748 14.457C10.2081 14.7154 9.84143 14.7154 9.67476 14.457L2.94144 3.97369C2.73311 3.69869 2.93312 3.33203 3.26645 3.33203Z" fill="white"/>
<path d="M7.85025 2.91797C7.47525 2.78464 7.14191 3.20964 7.36691 3.54297L9.65857 6.98464C9.82524 7.23464 10.1836 7.23464 10.3502 6.98464L12.6419 3.55131C12.8669 3.21798 12.5336 2.79298 12.1586 2.92631L11.0086 3.33464V2.08464C11.0086 1.8513 10.8252 1.66797 10.5919 1.66797H9.42524C9.19191 1.66797 9.00857 1.8513 9.00857 2.08464V3.33464L7.85025 2.91797Z" fill="white"/>
</svg>
