<svg width="20" height="20" viewBox="0 0 20 20" fill="none" xmlns="http://www.w3.org/2000/svg">
<path d="M17.4753 13.4013C17.2753 15.6263 15.667 17.0846 13.3337 17.0846H5.83366C3.53366 17.0846 1.66699 15.218 1.66699 12.918V7.08464C1.66699 4.81797 3.03366 3.23464 5.15866 2.96797C5.37533 2.93464 5.60033 2.91797 5.83366 2.91797H13.3337C13.5503 2.91797 13.7587 2.9263 13.9587 2.95964C15.9503 3.19297 17.3003 4.58464 17.4753 6.6013C17.5003 6.84297 17.3003 7.04297 17.0587 7.04297H15.767C14.967 7.04297 14.2253 7.3513 13.692 7.9013C13.0587 8.51797 12.742 9.38464 12.817 10.2513C12.9503 11.768 14.2837 12.9596 15.867 12.9596H17.0587C17.3003 12.9596 17.5003 13.1596 17.4753 13.4013Z" fill="white"/>
<path d="M18.3338 9.14295V10.8596C18.3338 11.318 17.9672 11.693 17.5005 11.7096H15.8672C14.9672 11.7096 14.1422 11.0513 14.0672 10.1513C14.0172 9.62629 14.2172 9.13462 14.5672 8.79295C14.8755 8.47629 15.3005 8.29297 15.7672 8.29297H17.5005C17.9672 8.30964 18.3338 8.68462 18.3338 9.14295Z" fill="white"/>
</svg>
