<svg width="20" height="20" viewBox="0 0 20 20" fill="none" xmlns="http://www.w3.org/2000/svg">
<path d="M17.917 10.418H15.8337C14.917 10.418 14.167 11.168 14.167 12.0846C14.167 13.0013 14.917 13.7513 15.8337 13.7513H17.917C18.1503 13.7513 18.3337 13.568 18.3337 13.3346V10.8346C18.3337 10.6013 18.1503 10.418 17.917 10.418Z" fill="white"/>
<path d="M4.16634 12.5C3.16634 12.5 2.27467 12.9417 1.66634 13.6333C1.14967 14.225 0.833008 14.9917 0.833008 15.8333C0.833008 16.4583 1.00801 17.05 1.31634 17.55C1.89134 18.5167 2.94967 19.1667 4.16634 19.1667C5.00801 19.1667 5.77467 18.8583 6.35801 18.3333C6.61634 18.1167 6.84134 17.85 7.01634 17.55C7.32467 17.05 7.49967 16.4583 7.49967 15.8333C7.49967 13.9917 6.00801 12.5 4.16634 12.5ZM5.49967 17.15C5.37467 17.275 5.21634 17.3333 5.05801 17.3333C4.89967 17.3333 4.74134 17.275 4.61634 17.15L4.17467 16.7083L3.71634 17.1667C3.59134 17.2917 3.43301 17.35 3.27467 17.35C3.11634 17.35 2.95801 17.2917 2.83301 17.1667C2.59134 16.925 2.59134 16.525 2.83301 16.2833L3.29134 15.825L2.84967 15.3833C2.60801 15.1417 2.60801 14.7417 2.84967 14.5C3.09134 14.2583 3.49134 14.2583 3.73301 14.5L4.17467 14.9417L4.59134 14.525C4.83301 14.2833 5.23301 14.2833 5.47467 14.525C5.71634 14.7667 5.71634 15.1667 5.47467 15.4083L5.05801 15.825L5.49967 16.2667C5.74134 16.5083 5.74134 16.9 5.49967 17.15Z" fill="white"/>
<path d="M13.775 4.50078C14.025 4.74245 13.8167 5.11745 13.4667 5.11745L6.56668 5.10911C6.16668 5.10911 5.96668 4.62578 6.25001 4.34245L7.70834 2.87578C8.94167 1.65078 10.9333 1.65078 12.1667 2.87578L13.7417 4.46745C13.75 4.47578 13.7667 4.49245 13.775 4.50078Z" fill="white"/>
<path d="M18.2255 15.5487C17.7172 17.2654 16.2505 18.332 14.2505 18.332H8.83383C8.50883 18.332 8.30046 17.9737 8.43383 17.6737C8.68383 17.0904 8.84216 16.432 8.84216 15.832C8.84216 13.307 6.78379 11.2487 4.25879 11.2487C3.62546 11.2487 3.00879 11.382 2.44212 11.632C2.13379 11.7654 1.75879 11.557 1.75879 11.2237V9.9987C1.75879 7.73203 3.12546 6.1487 5.25046 5.88203C5.45879 5.8487 5.68379 5.83203 5.91712 5.83203H14.2505C14.4672 5.83203 14.6755 5.84036 14.8755 5.8737C16.5588 6.06536 17.7755 7.09036 18.2255 8.61536C18.3088 8.89036 18.1088 9.16536 17.8255 9.16536H15.9172C14.1088 9.16536 12.6755 10.8154 13.0672 12.6904C13.3422 14.057 14.6088 14.9987 16.0005 14.9987H17.8255C18.1172 14.9987 18.3088 15.282 18.2255 15.5487Z" fill="white"/>
</svg>
