<svg width="20" height="20" viewBox="0 0 20 20" fill="none" xmlns="http://www.w3.org/2000/svg">
<path d="M9.95065 1.84185L7.94232 6.51685H5.93398C5.60065 6.51685 5.27565 6.54185 4.95898 6.60852L5.79232 4.60852L5.82565 4.53352L5.87565 4.40018C5.90065 4.34185 5.91732 4.29185 5.94232 4.25018C6.90898 2.00852 7.99232 1.30852 9.95065 1.84185Z" fill="white"/>
<path d="M15.6079 6.73932L15.5913 6.73099C15.0913 6.58932 14.5829 6.51432 14.0663 6.51432H8.84961L10.7246 2.15599L10.7496 2.09766C10.8663 2.13932 10.9913 2.19766 11.1163 2.23932L12.9579 3.01432C13.9829 3.43932 14.6996 3.88099 15.1413 4.41432C15.2163 4.51432 15.2829 4.60599 15.3496 4.71432C15.4246 4.83099 15.4829 4.94766 15.5163 5.07266C15.5496 5.14766 15.5746 5.21432 15.5913 5.28932C15.7163 5.71432 15.7246 6.19766 15.6079 6.73932Z" fill="white"/>
<path d="M10.4326 14.7177H10.641C10.891 14.7177 11.0993 14.4927 11.0993 14.2177C11.0993 13.8677 10.9993 13.8177 10.7826 13.7344L10.4326 13.6094V14.7177Z" fill="white"/>
<path d="M15.2422 7.93229C14.8672 7.82396 14.4755 7.76562 14.0672 7.76562H5.93385C5.36719 7.76562 4.83385 7.87396 4.33385 8.09063C2.88385 8.71562 1.86719 10.1573 1.86719 11.8323V13.4573C1.86719 13.6573 1.88385 13.849 1.90885 14.049C2.09219 16.699 3.50885 18.1156 6.15885 18.2906C6.35052 18.3156 6.54219 18.3323 6.75052 18.3323H13.2505C16.3338 18.3323 17.9588 16.8656 18.1172 13.9489C18.1255 13.7906 18.1338 13.6239 18.1338 13.4573V11.8323C18.1338 9.99062 16.9088 8.44062 15.2422 7.93229ZM11.0672 12.9156C11.4505 13.049 11.9672 13.3323 11.9672 14.2156C11.9672 14.974 11.3755 15.5823 10.6422 15.5823H10.4338V15.7656C10.4338 16.0073 10.2422 16.199 10.0005 16.199C9.75883 16.199 9.56716 16.0073 9.56716 15.7656V15.5823H9.49216C8.69216 15.5823 8.03385 14.9073 8.03385 14.074C8.03385 13.8323 8.22552 13.6406 8.46716 13.6406C8.70883 13.6406 8.9005 13.8323 8.9005 14.074C8.9005 14.424 9.16716 14.7156 9.49216 14.7156H9.56716V13.3073L8.93383 13.0823C8.55049 12.949 8.03385 12.6656 8.03385 11.7823C8.03385 11.024 8.6255 10.4156 9.35883 10.4156H9.56716V10.2323C9.56716 9.99062 9.75883 9.79895 10.0005 9.79895C10.2422 9.79895 10.4338 9.99062 10.4338 10.2323V10.4156H10.5088C11.3088 10.4156 11.9672 11.0906 11.9672 11.924C11.9672 12.1656 11.7755 12.3573 11.5338 12.3573C11.2922 12.3573 11.1005 12.1656 11.1005 11.924C11.1005 11.574 10.8338 11.2823 10.5088 11.2823H10.4338V12.6906L11.0672 12.9156Z" fill="white"/>
<path d="M8.89941 11.7813C8.89941 12.1313 8.99941 12.1813 9.21608 12.2646L9.56608 12.3896V11.2812H9.35775C9.09941 11.2812 8.89941 11.5063 8.89941 11.7813Z" fill="white"/>
</svg>
