<svg width="20" height="20" viewBox="0 0 20 20" fill="none" xmlns="http://www.w3.org/2000/svg">
<path d="M18.3338 10.518V12.2346C18.3338 12.7013 17.9505 13.0846 17.4755 13.0846H15.8672C14.9672 13.0846 14.1422 12.4263 14.0672 11.5263C14.0172 11.0013 14.2172 10.5096 14.5672 10.168C14.8755 9.8513 15.3005 9.66797 15.7672 9.66797H17.4755C17.9505 9.66797 18.3338 10.0513 18.3338 10.518Z" fill="white"/>
<path d="M12.817 11.6333C12.742 10.7583 13.0587 9.90001 13.692 9.27501C14.2253 8.73334 14.967 8.41667 15.767 8.41667H16.242C16.4753 8.41667 16.667 8.225 16.6337 7.99167C16.4087 6.375 15.0087 5.125 13.3337 5.125H5.00033C3.15866 5.125 1.66699 6.61667 1.66699 8.45834V14.2917C1.66699 16.1333 3.15866 17.625 5.00033 17.625H13.3337C15.017 17.625 16.4087 16.375 16.6337 14.7583C16.667 14.525 16.4753 14.3333 16.242 14.3333H15.867C14.2837 14.3333 12.9503 13.15 12.817 11.6333ZM10.8337 9.91667H5.83366C5.49199 9.91667 5.20866 9.64167 5.20866 9.29167C5.20866 8.94167 5.49199 8.66667 5.83366 8.66667H10.8337C11.1753 8.66667 11.4587 8.95001 11.4587 9.29167C11.4587 9.63334 11.1753 9.91667 10.8337 9.91667Z" fill="white"/>
<path d="M11.8409 3.31667C12.0576 3.54167 11.8659 3.875 11.5493 3.875H5.02423C4.1159 3.875 3.2659 4.14167 2.55756 4.6C2.23256 4.80833 1.7909 4.58333 1.94923 4.225C2.4159 3.13333 3.50756 2.375 4.7659 2.375H9.44926C10.4159 2.375 11.2743 2.71667 11.8409 3.31667Z" fill="white"/>
</svg>
