<svg width="20" height="20" viewBox="0 0 20 20" fill="none" xmlns="http://www.w3.org/2000/svg">
<path d="M9.95065 1.84185L7.94232 6.51685H5.93398C5.60065 6.51685 5.27565 6.54185 4.95898 6.60852L5.79232 4.60852L5.82565 4.53352L5.87565 4.40018C5.90065 4.34185 5.91732 4.29185 5.94232 4.25018C6.90898 2.00852 7.99232 1.30852 9.95065 1.84185Z" fill="white"/>
<path d="M15.6079 6.73932L15.5913 6.73099C15.0913 6.58932 14.5829 6.51432 14.0663 6.51432H8.84961L10.7246 2.15599L10.7496 2.09766C10.8663 2.13932 10.9913 2.19766 11.1163 2.23932L12.9579 3.01432C13.9829 3.43932 14.6996 3.88099 15.1413 4.41432C15.2163 4.51432 15.2829 4.60599 15.3496 4.71432C15.4246 4.83099 15.4829 4.94766 15.5163 5.07266C15.5496 5.14766 15.5746 5.21432 15.5913 5.28932C15.7163 5.71432 15.7246 6.19766 15.6079 6.73932Z" fill="white"/>
<path d="M15.2422 7.93229C14.8672 7.82396 14.4755 7.76562 14.0672 7.76562H5.93385C5.36719 7.76562 4.83385 7.87396 4.33385 8.09063C2.88385 8.71562 1.86719 10.1573 1.86719 11.8323V13.4573C1.86719 13.6573 1.88385 13.849 1.90885 14.049C2.09219 16.699 3.50885 18.1156 6.15885 18.2906C6.35052 18.3156 6.54219 18.3323 6.75052 18.3323H13.2505C16.3338 18.3323 17.9588 16.8656 18.1172 13.9489C18.1255 13.7906 18.1338 13.6239 18.1338 13.4573V11.8323C18.1338 9.99062 16.9088 8.44062 15.2422 7.93229ZM12.0838 13.4906H10.6255V14.9989C10.6255 15.3406 10.3422 15.6239 10.0005 15.6239C9.65883 15.6239 9.3755 15.3406 9.3755 14.9989V13.4906H7.91719C7.57552 13.4906 7.29219 13.2156 7.29219 12.8656C7.29219 12.524 7.57552 12.2406 7.91719 12.2406H9.3755V10.8323C9.3755 10.4906 9.65883 10.2073 10.0005 10.2073C10.3422 10.2073 10.6255 10.4906 10.6255 10.8323V12.2406H12.0838C12.4255 12.2406 12.7088 12.524 12.7088 12.8656C12.7088 13.2156 12.4255 13.4906 12.0838 13.4906Z" fill="white"/>
</svg>
