<svg width="20" height="20" viewBox="0 0 20 20" fill="none" xmlns="http://www.w3.org/2000/svg">
<path d="M1.02586 18.0661L1.65919 17.4328C1.32586 16.9328 1.13419 16.3328 1.13419 15.6911C1.13419 13.9328 2.55919 12.5078 4.31753 12.5078C6.07586 12.5078 7.50086 13.9245 7.50086 15.6828C7.50086 17.4411 6.07586 18.8661 4.31753 18.8661C3.67586 18.8661 3.07586 18.6745 2.57586 18.3411L1.94253 18.9745C1.8092 19.0995 1.64253 19.1661 1.47586 19.1661C1.3092 19.1661 1.14253 19.0995 1.01753 18.9745C0.767525 18.7245 0.767525 18.3161 1.02586 18.0661Z" fill="white"/>
<path d="M17.918 10.418H15.8346C14.918 10.418 14.168 11.168 14.168 12.0846C14.168 13.0013 14.918 13.7513 15.8346 13.7513H17.918C18.1513 13.7513 18.3346 13.568 18.3346 13.3346V10.8346C18.3346 10.6013 18.1513 10.418 17.918 10.418Z" fill="white"/>
<path d="M13.776 4.50078C14.026 4.74245 13.8177 5.11745 13.4677 5.11745L6.56765 5.10911C6.16765 5.10911 5.96765 4.62578 6.25099 4.34245L7.70932 2.87578C8.94267 1.65078 10.9343 1.65078 12.1677 2.87578L13.7427 4.46745C13.751 4.47578 13.7677 4.49245 13.776 4.50078Z" fill="white"/>
<path d="M18.2264 15.5487C17.7181 17.2654 16.2514 18.332 14.2514 18.332H8.83474C8.50974 18.332 8.30143 17.9737 8.43474 17.6737C8.68474 17.0904 8.84307 16.432 8.84307 15.832C8.84307 13.307 6.78477 11.2487 4.25977 11.2487C3.62643 11.2487 3.00977 11.382 2.4431 11.632C2.13477 11.7654 1.75977 11.557 1.75977 11.2237V9.9987C1.75977 7.73203 3.12643 6.1487 5.25143 5.88203C5.45977 5.8487 5.68477 5.83203 5.9181 5.83203H14.2514C14.4681 5.83203 14.6764 5.84036 14.8764 5.8737C16.5597 6.06536 17.7764 7.09036 18.2264 8.61536C18.3097 8.89036 18.1097 9.16536 17.8264 9.16536H15.9181C14.1097 9.16536 12.6764 10.8154 13.0681 12.6904C13.3431 14.057 14.6097 14.9987 16.0014 14.9987H17.8264C18.1181 14.9987 18.3097 15.282 18.2264 15.5487Z" fill="white"/>
</svg>
