<svg width="20" height="20" viewBox="0 0 20 20" fill="none" xmlns="http://www.w3.org/2000/svg">
<path d="M18.3338 9.14295V10.8596C18.3338 11.318 17.9672 11.693 17.5005 11.7096H15.8672C14.9672 11.7096 14.1422 11.0513 14.0672 10.1513C14.0172 9.62629 14.2172 9.13462 14.5672 8.79295C14.8755 8.47629 15.3005 8.29297 15.7672 8.29297H17.5005C17.9672 8.30964 18.3338 8.68462 18.3338 9.14295Z" fill="white"/>
<path d="M17.0587 12.9596H15.867C14.2837 12.9596 12.9503 11.768 12.817 10.2513C12.742 9.38464 13.0587 8.51797 13.692 7.9013C14.2253 7.3513 14.967 7.04297 15.767 7.04297H17.0587C17.3003 7.04297 17.5003 6.84297 17.4753 6.6013C17.292 4.5763 15.9503 3.19297 13.9587 2.95964C13.7587 2.9263 13.5503 2.91797 13.3337 2.91797H5.83366C5.60033 2.91797 5.37533 2.93464 5.15866 2.96797C3.03366 3.23464 1.66699 4.81797 1.66699 7.08464V12.918C1.66699 15.218 3.53366 17.0846 5.83366 17.0846H13.3337C15.667 17.0846 17.2753 15.6263 17.4753 13.4013C17.5003 13.1596 17.3003 12.9596 17.0587 12.9596ZM10.8337 8.1263H5.83366C5.49199 8.1263 5.20866 7.84297 5.20866 7.5013C5.20866 7.15964 5.49199 6.8763 5.83366 6.8763H10.8337C11.1753 6.8763 11.4587 7.15964 11.4587 7.5013C11.4587 7.84297 11.1753 8.1263 10.8337 8.1263Z" fill="white"/>
</svg>
