<svg width="20" height="20" viewBox="0 0 20 20" fill="none" xmlns="http://www.w3.org/2000/svg">
<path d="M4.16634 12.5C2.32467 12.5 0.833008 13.9917 0.833008 15.8333C0.833008 16.4583 1.00801 17.05 1.31634 17.55C1.89134 18.5167 2.94967 19.1667 4.16634 19.1667C5.38301 19.1667 6.44134 18.5167 7.01634 17.55C7.32467 17.05 7.49967 16.4583 7.49967 15.8333C7.49967 13.9917 6.00801 12.5 4.16634 12.5ZM5.40801 16.4417H4.79134V17.0917C4.79134 17.4333 4.50801 17.7167 4.16634 17.7167C3.82467 17.7167 3.54134 17.4333 3.54134 17.0917V16.4417H2.92467C2.58301 16.4417 2.29967 16.1583 2.29967 15.8167C2.29967 15.475 2.58301 15.1917 2.92467 15.1917H3.54134V14.6C3.54134 14.2583 3.82467 13.975 4.16634 13.975C4.50801 13.975 4.79134 14.2583 4.79134 14.6V15.1917H5.40801C5.74967 15.1917 6.03301 15.475 6.03301 15.8167C6.03301 16.1583 5.75801 16.4417 5.40801 16.4417Z" fill="white"/>
<path d="M17.917 10.418H15.8337C14.917 10.418 14.167 11.168 14.167 12.0846C14.167 13.0013 14.917 13.7513 15.8337 13.7513H17.917C18.1503 13.7513 18.3337 13.568 18.3337 13.3346V10.8346C18.3337 10.6013 18.1503 10.418 17.917 10.418Z" fill="white"/>
<path d="M13.775 4.50078C14.025 4.74245 13.8167 5.11745 13.4667 5.11745L6.56668 5.10911C6.16668 5.10911 5.96668 4.62578 6.25001 4.34245L7.70834 2.87578C8.94167 1.65078 10.9333 1.65078 12.1667 2.87578L13.7417 4.46745C13.75 4.47578 13.7667 4.49245 13.775 4.50078Z" fill="white"/>
<path d="M18.2255 15.5487C17.7172 17.2654 16.2505 18.332 14.2505 18.332H8.83383C8.50883 18.332 8.30046 17.9737 8.43383 17.6737C8.68383 17.0904 8.84216 16.432 8.84216 15.832C8.84216 13.307 6.78379 11.2487 4.25879 11.2487C3.62546 11.2487 3.00879 11.382 2.44212 11.632C2.13379 11.7654 1.75879 11.557 1.75879 11.2237V9.9987C1.75879 7.73203 3.12546 6.1487 5.25046 5.88203C5.45879 5.8487 5.68379 5.83203 5.91712 5.83203H14.2505C14.4672 5.83203 14.6755 5.84036 14.8755 5.8737C16.5588 6.06536 17.7755 7.09036 18.2255 8.61536C18.3088 8.89036 18.1088 9.16536 17.8255 9.16536H15.9172C14.1088 9.16536 12.6755 10.8154 13.0672 12.6904C13.3422 14.057 14.6088 14.9987 16.0005 14.9987H17.8255C18.1172 14.9987 18.3088 15.282 18.2255 15.5487Z" fill="white"/>
</svg>
