<svg width="20" height="20" viewBox="0 0 20 20" fill="none" xmlns="http://www.w3.org/2000/svg">
<path d="M9.79216 7.85832L7.08379 12.5L6.55879 13.4083L4.50046 16.925C4.35046 17.1917 3.96712 17.2 3.80046 16.9417L0.983789 12.7333C0.892122 12.5917 0.892122 12.4083 0.983789 12.2667L4.04213 7.68333C4.11713 7.56667 4.25045 7.5 4.39211 7.5H9.58382L9.79216 7.85832Z" fill="white"/>
<path d="M19.0336 12.275L13.4502 2.70833C13.3836 2.575 13.2419 2.5 13.0919 2.5H7.39193C7.06693 2.5 6.86693 2.85 7.03359 3.125L9.58358 7.5L9.79191 7.85832L12.1336 11.875C12.3002 12.15 12.1002 12.5 11.7752 12.5H7.08359L6.55859 13.4083C6.70859 13.1417 7.09192 13.1333 7.25859 13.3917L9.87524 17.3167C9.95024 17.4333 10.0836 17.5 10.2252 17.5H15.6086C15.7502 17.5 15.8836 17.4333 15.9586 17.3167L19.0252 12.7167C19.1086 12.5833 19.1169 12.4167 19.0336 12.275Z" fill="white"/>
</svg>
