<svg width="20" height="20" viewBox="0 0 20 20" fill="none" xmlns="http://www.w3.org/2000/svg">
<path d="M10.0003 1.66797C5.40033 1.66797 1.66699 5.4013 1.66699 10.0013C1.66699 14.6013 5.40033 18.3346 10.0003 18.3346C14.6003 18.3346 18.3337 14.6013 18.3337 10.0013C18.3337 5.4013 14.6003 1.66797 10.0003 1.66797ZM12.2253 13.693L10.3503 14.943C10.242 15.0096 10.1253 15.0513 10.0003 15.0513C9.87533 15.0513 9.75866 15.018 9.65033 14.943L7.77533 13.693C7.49199 13.5013 7.40866 13.1096 7.60033 12.8263C7.79199 12.5346 8.18366 12.4596 8.46699 12.6513L9.99199 13.668L11.517 12.6513C11.8003 12.4596 12.192 12.5346 12.3837 12.8263C12.5837 13.118 12.5087 13.5013 12.2253 13.693ZM13.7503 10.8263C13.7503 11.4763 13.042 11.8763 12.492 11.543L10.4337 10.3096C10.167 10.1513 9.84199 10.1513 9.57533 10.3096L7.51699 11.543C6.95866 11.8763 6.25865 11.4763 6.25865 10.8263V7.63464C6.25865 7.3513 6.40866 7.08464 6.64199 6.93464L9.55866 5.08464C9.83366 4.90964 10.1753 4.90964 10.4503 5.08464L13.367 6.93464C13.6087 7.08464 13.7503 7.3513 13.7503 7.63464V10.8263Z" fill="white"/>
</svg>
