<svg width="20" height="20" viewBox="0 0 20 20" fill="none" xmlns="http://www.w3.org/2000/svg">
<path d="M13.3337 3.125H6.66699C6.32533 3.125 6.04199 2.84167 6.04199 2.5C6.04199 2.15833 6.32533 1.875 6.66699 1.875H13.3337C13.6753 1.875 13.9587 2.15833 13.9587 2.5C13.9587 2.84167 13.6753 3.125 13.3337 3.125Z" fill="white"/>
<path d="M13.3337 18.125H6.66699C6.32533 18.125 6.04199 17.8417 6.04199 17.5C6.04199 17.1583 6.32533 16.875 6.66699 16.875H13.3337C13.6753 16.875 13.9587 17.1583 13.9587 17.5C13.9587 17.8417 13.6753 18.125 13.3337 18.125Z" fill="white"/>
<path d="M12.917 4.16797H7.08366C5.14199 4.16797 4.16699 5.14297 4.16699 7.08464V12.918C4.16699 14.8596 5.14199 15.8346 7.08366 15.8346H12.917C14.8587 15.8346 15.8337 14.8596 15.8337 12.918V7.08464C15.8337 5.14297 14.8587 4.16797 12.917 4.16797ZM8.12533 11.668C8.12533 12.0096 7.84199 12.293 7.50033 12.293C7.15866 12.293 6.87533 12.018 6.87533 11.668V10.8346C6.87533 10.493 7.15866 10.2096 7.50033 10.2096C7.84199 10.2096 8.12533 10.493 8.12533 10.8346V11.668ZM10.6253 11.668C10.6253 12.0096 10.342 12.293 10.0003 12.293C9.65866 12.293 9.37533 12.0096 9.37533 11.668V8.33464C9.37533 7.99297 9.65866 7.70964 10.0003 7.70964C10.342 7.70964 10.6253 7.99297 10.6253 8.33464V11.668ZM13.1253 11.668C13.1253 12.0096 12.842 12.293 12.5003 12.293C12.1587 12.293 11.8753 12.0096 11.8753 11.668V10.0013C11.8753 9.65964 12.1587 9.3763 12.5003 9.3763C12.842 9.3763 13.1253 9.65964 13.1253 10.0013V11.668Z" fill="white"/>
</svg>
