<svg width="20" height="20" viewBox="0 0 20 20" fill="none" xmlns="http://www.w3.org/2000/svg">
<path d="M13.3337 3.125H6.66699C6.32533 3.125 6.04199 2.84167 6.04199 2.5C6.04199 2.15833 6.32533 1.875 6.66699 1.875H13.3337C13.6753 1.875 13.9587 2.15833 13.9587 2.5C13.9587 2.84167 13.6753 3.125 13.3337 3.125Z" fill="white"/>
<path d="M13.3337 18.125H6.66699C6.32533 18.125 6.04199 17.8417 6.04199 17.5C6.04199 17.1583 6.32533 16.875 6.66699 16.875H13.3337C13.6753 16.875 13.9587 17.1583 13.9587 17.5C13.9587 17.8417 13.6753 18.125 13.3337 18.125Z" fill="white"/>
<path d="M12.917 4.16797H7.08366C5.14199 4.16797 4.16699 5.14297 4.16699 7.08464V12.918C4.16699 14.8596 5.14199 15.8346 7.08366 15.8346H12.917C14.8587 15.8346 15.8337 14.8596 15.8337 12.918V7.08464C15.8337 5.14297 14.8587 4.16797 12.917 4.16797ZM12.0837 11.043H9.58366C9.24199 11.043 8.95866 10.7596 8.95866 10.418V7.91797C8.95866 7.5763 9.24199 7.29297 9.58366 7.29297C9.92533 7.29297 10.2087 7.5763 10.2087 7.91797V9.79297H12.0837C12.4253 9.79297 12.7087 10.0763 12.7087 10.418C12.7087 10.7596 12.4253 11.043 12.0837 11.043Z" fill="white"/>
</svg>
