<svg width="20" height="20" viewBox="0 0 20 20" fill="none" xmlns="http://www.w3.org/2000/svg">
<path d="M14.3164 4.375C12.8914 4.375 11.1914 4.91667 11.1914 7.5V12.5C11.1914 15.0833 12.8914 15.625 14.3164 15.625C15.7414 15.625 17.4414 15.0833 17.4414 12.5V7.5C17.4414 4.91667 15.7414 4.375 14.3164 4.375Z" fill="white"/>
<path d="M5.68359 4.375C4.25859 4.375 2.55859 4.91667 2.55859 7.5V12.5C2.55859 15.0833 4.25859 15.625 5.68359 15.625C7.10859 15.625 8.80859 15.0833 8.80859 12.5V7.5C8.80859 4.91667 7.10859 4.375 5.68359 4.375Z" fill="white"/>
<path d="M11.1919 9.375H8.80859V10.625H11.1919V9.375Z" fill="white"/>
<path d="M18.75 12.7096C18.4083 12.7096 18.125 12.4263 18.125 12.0846V7.91797C18.125 7.5763 18.4083 7.29297 18.75 7.29297C19.0917 7.29297 19.375 7.5763 19.375 7.91797V12.0846C19.375 12.4263 19.0917 12.7096 18.75 12.7096Z" fill="white"/>
<path d="M1.25 12.7096C0.908333 12.7096 0.625 12.4263 0.625 12.0846V7.91797C0.625 7.5763 0.908333 7.29297 1.25 7.29297C1.59167 7.29297 1.875 7.5763 1.875 7.91797V12.0846C1.875 12.4263 1.59167 12.7096 1.25 12.7096Z" fill="white"/>
</svg>
