<svg width="20" height="20" viewBox="0 0 20 20" fill="none" xmlns="http://www.w3.org/2000/svg">
<path d="M13.3333 1.66797H6.66667C4.16667 1.66797 2.5 3.33464 2.5 5.83464V14.168C2.5 16.668 4.16667 18.3346 6.66667 18.3346H13.3333C15.8333 18.3346 17.5 16.668 17.5 14.168V5.83464C17.5 3.33464 15.8333 1.66797 13.3333 1.66797ZM14.6417 7.06797L12.825 9.98463C12.775 10.0596 12.6917 10.118 12.6083 10.1263C12.5917 10.1263 12.575 10.1263 12.5667 10.1263C12.4917 10.1263 12.4167 10.1013 12.3583 10.0513C11.0167 8.85964 9 8.85964 7.65833 10.0513C7.59167 10.1096 7.5 10.143 7.40833 10.1263C7.31667 10.1096 7.23333 10.0596 7.19167 9.98463L5.375 7.06797C5.275 6.94297 5.3 6.7763 5.41667 6.66797C8.025 4.34297 11.9667 4.34297 14.5833 6.66797C14.7 6.7763 14.725 6.94297 14.6417 7.06797Z" fill="white"/>
</svg>
