<svg width="20" height="20" viewBox="0 0 20 20" fill="none" xmlns="http://www.w3.org/2000/svg">
<path d="M18.3163 9.50997C18.0329 4.67667 13.6413 0.951677 8.58292 1.78501C5.09959 2.36001 2.30793 5.18499 1.76626 8.6683C1.44959 10.685 1.86628 12.5933 2.77462 14.1683L2.03293 16.9266C1.86627 17.5516 2.44125 18.1183 3.05792 17.9433L5.77459 17.1933C7.00793 17.9183 8.44959 18.335 9.99126 18.335C14.6913 18.335 18.5913 14.1933 18.3163 9.50997ZM14.0663 13.1016C13.9913 13.2516 13.8996 13.3933 13.7829 13.5266C13.5746 13.7516 13.3496 13.9183 13.0996 14.0183C12.8496 14.1266 12.5746 14.1766 12.2829 14.1766C11.8579 14.1766 11.3996 14.0767 10.9246 13.8684C10.4413 13.6601 9.96626 13.385 9.49126 13.0433C9.00792 12.6933 8.55793 12.3016 8.1246 11.8766C7.69127 11.4433 7.30791 10.985 6.95791 10.51C6.61625 10.035 6.34126 9.55997 6.14126 9.08497C5.94126 8.60997 5.84128 8.15168 5.84128 7.71834C5.84128 7.435 5.89127 7.16 5.99127 6.91C6.09127 6.65167 6.24962 6.41834 6.47462 6.21001C6.74128 5.94334 7.03293 5.81834 7.34127 5.81834C7.45793 5.81834 7.57458 5.84334 7.68291 5.89334C7.79124 5.94334 7.89127 6.01834 7.96627 6.12667L8.93292 7.49333C9.00792 7.60166 9.06626 7.69333 9.09959 7.78499C9.14126 7.87666 9.15793 7.95999 9.15793 8.04333C9.15793 8.14333 9.12459 8.24334 9.06626 8.3433C9.00792 8.4433 8.93292 8.5433 8.83292 8.6433L8.51626 8.97664C8.46626 9.02664 8.44959 9.07664 8.44959 9.1433C8.44959 9.17664 8.45792 9.20997 8.46626 9.2433C8.48292 9.27664 8.49126 9.30164 8.49959 9.32664C8.57459 9.4683 8.70792 9.6433 8.89126 9.85997C9.08292 10.0766 9.28292 10.3016 9.49959 10.5183C9.72459 10.7433 9.94126 10.9433 10.1663 11.135C10.3829 11.3183 10.5663 11.4433 10.7079 11.5183C10.7329 11.5266 10.7579 11.5433 10.7829 11.5516C10.8163 11.5683 10.8496 11.5683 10.8913 11.5683C10.9663 11.5683 11.0163 11.5433 11.0663 11.4933L11.3829 11.1766C11.4913 11.0683 11.5913 10.9933 11.6829 10.9433C11.7829 10.885 11.8746 10.8516 11.9829 10.8516C12.0663 10.8516 12.1496 10.8683 12.2413 10.91C12.3329 10.9516 12.4329 11.0016 12.5329 11.0766L13.9163 12.06C14.0246 12.135 14.0996 12.2266 14.1496 12.3266C14.1913 12.435 14.2163 12.535 14.2163 12.6516C14.1663 12.7933 14.1329 12.9516 14.0663 13.1016Z" fill="white"/>
</svg>
