<svg width="20" height="20" viewBox="0 0 20 20" fill="none" xmlns="http://www.w3.org/2000/svg">
<path d="M13.492 1.66797H6.50866C3.47533 1.66797 1.66699 3.4763 1.66699 6.50964V13.4846C1.66699 16.5263 3.47533 18.3346 6.50866 18.3346H13.4837C16.517 18.3346 18.3253 16.5263 18.3253 13.493V6.50964C18.3337 3.4763 16.5253 1.66797 13.492 1.66797ZM12.3253 13.8346C12.2003 13.993 12.017 14.0763 11.8337 14.0763C11.7003 14.0763 11.567 14.0346 11.4503 13.943C10.567 13.2596 9.42533 13.2596 8.54199 13.943C8.26699 14.1513 7.87533 14.1013 7.66699 13.8346C7.45866 13.5596 7.50866 13.168 7.77533 12.9596C9.10033 11.9346 10.8837 11.9346 12.2087 12.9596C12.492 13.168 12.542 13.5596 12.3253 13.8346ZM14.167 11.2596C14.042 11.418 13.8587 11.5013 13.6753 11.5013C13.542 11.5013 13.4087 11.4596 13.292 11.368C11.292 9.8263 8.71699 9.8263 6.71699 11.368C6.44199 11.5846 6.05033 11.5346 5.83366 11.2596C5.61699 10.9846 5.67533 10.593 5.94199 10.3846C8.40033 8.48464 11.5837 8.48464 14.042 10.3846C14.3253 10.593 14.3753 10.9846 14.167 11.2596ZM15.492 8.68464C15.367 8.84297 15.1837 8.9263 15.0003 8.9263C14.867 8.9263 14.7337 8.88464 14.617 8.79297C11.8087 6.6263 8.18366 6.6263 5.38366 8.79297C5.10866 9.0013 4.71699 8.9513 4.50866 8.68464C4.30033 8.40964 4.35033 8.01797 4.61699 7.80964C7.88366 5.28464 12.1087 5.28464 15.3837 7.80964C15.6587 8.01797 15.7087 8.40964 15.492 8.68464Z" fill="white"/>
</svg>
