<svg width="20" height="20" viewBox="0 0 20 20" fill="none" xmlns="http://www.w3.org/2000/svg">
<path d="M18.3333 11.5424C18.2249 11.5424 18.1166 11.5174 18.0166 11.4508L15.9333 10.2008C14.8499 9.55076 13.4999 9.55076 12.4083 10.2008C10.9249 11.0924 9.08325 11.0924 7.5999 10.2008C6.51657 9.55076 5.16657 9.55076 4.0749 10.2008L1.99157 11.4508C1.69157 11.6258 1.30824 11.5341 1.13324 11.2341C0.958235 10.9424 1.0499 10.5508 1.3499 10.3758L3.43324 9.12576C4.91657 8.23412 6.75823 8.23412 8.24157 9.12576C9.32492 9.77576 10.6749 9.77576 11.7666 9.12576C13.2499 8.23412 15.0916 8.23412 16.5749 9.12576L18.6583 10.3758C18.9583 10.5508 19.0499 10.9341 18.8749 11.2341C18.7499 11.4341 18.5416 11.5424 18.3333 11.5424Z" fill="white"/>
<path d="M5.83336 5.70889C5.00003 5.70889 4.1667 5.48389 3.42503 5.04222L1.3417 3.79222C1.05003 3.60889 0.95003 3.22555 1.13336 2.93389C1.30836 2.63389 1.6917 2.54222 1.9917 2.71722L4.07503 3.96722C5.15836 4.61722 6.50836 4.61722 7.60003 3.96722C9.08333 3.07555 10.925 3.07555 12.4083 3.96722C13.4917 4.61722 14.8417 4.61722 15.9333 3.96722L18.0167 2.71722C18.3167 2.54222 18.7 2.63389 18.875 2.93389C19.05 3.22555 18.9583 3.61722 18.6583 3.79222L16.575 5.04222C15.0917 5.93389 13.25 5.93389 11.7667 5.04222C10.6833 4.39222 9.33333 4.39222 8.2417 5.04222C7.50003 5.48389 6.6667 5.70889 5.83336 5.70889Z" fill="white"/>
<path d="M18.3333 17.3745C18.2249 17.3745 18.1166 17.3495 18.0166 17.2828L15.9333 16.0328C14.8499 15.3828 13.4999 15.3828 12.4083 16.0328C10.9249 16.9245 9.08325 16.9245 7.5999 16.0328C6.51657 15.3828 5.16657 15.3828 4.0749 16.0328L1.99157 17.2828C1.69157 17.4578 1.30824 17.3661 1.13324 17.0661C0.958235 16.7745 1.0499 16.3828 1.3499 16.2078L3.43324 14.9578C4.91657 14.0661 6.75823 14.0661 8.24157 14.9578C9.32492 15.6078 10.6749 15.6078 11.7666 14.9578C13.2499 14.0661 15.0916 14.0661 16.5749 14.9578L18.6583 16.2078C18.9583 16.3828 19.0499 16.7661 18.8749 17.0661C18.7499 17.2661 18.5416 17.3745 18.3333 17.3745Z" fill="white"/>
</svg>
