<svg width="20" height="20" viewBox="0 0 20 20" fill="none" xmlns="http://www.w3.org/2000/svg">
<path fill-rule="evenodd" clip-rule="evenodd" d="M17.3333 1.86722L10.6667 3.20055C10.275 3.27555 10 3.61722 10 4.01722V8.33389C10 8.79222 10.375 9.16722 10.8333 9.16722H17.5C17.9583 9.16722 18.3333 8.79222 18.3333 8.33389V2.68389C18.3333 2.15889 17.85 1.76722 17.3333 1.86722Z" fill="white"/>
<path fill-rule="evenodd" clip-rule="evenodd" d="M17.3333 18.132L10.6667 16.7987C10.275 16.7237 10 16.382 10 15.982V11.6654C10 11.207 10.375 10.832 10.8333 10.832H17.5C17.9583 10.832 18.3333 11.207 18.3333 11.6654V17.3154C18.3333 17.8404 17.85 18.232 17.3333 18.132Z" fill="white"/>
<path fill-rule="evenodd" clip-rule="evenodd" d="M7.32531 3.80161L2.32531 4.85994C1.94198 4.94327 1.66699 5.28494 1.66699 5.67661V8.33494C1.66699 8.79329 2.04199 9.16829 2.50033 9.16829H7.50033C7.95866 9.16829 8.33366 8.79329 8.33366 8.33494V4.60994C8.33366 4.08494 7.84198 3.68494 7.32531 3.80161Z" fill="white"/>
<path fill-rule="evenodd" clip-rule="evenodd" d="M7.32531 16.1987L2.32531 15.1404C1.94198 15.057 1.66699 14.7154 1.66699 14.3237V11.6654C1.66699 11.207 2.04199 10.832 2.50033 10.832H7.50033C7.95866 10.832 8.33366 11.207 8.33366 11.6654V15.3904C8.33366 15.9154 7.84198 16.3154 7.32531 16.1987Z" fill="white"/>
</svg>
