<svg width="20" height="20" viewBox="0 0 20 20" fill="none" xmlns="http://www.w3.org/2000/svg">
<path d="M15.417 18.9583C13.467 18.9583 11.8753 17.3667 11.8753 15.4167V15C11.8753 14.6583 12.1587 14.375 12.5003 14.375C12.842 14.375 13.1253 14.6583 13.1253 15V15.4167C13.1253 16.6833 14.1503 17.7083 15.417 17.7083C16.6837 17.7083 17.7087 16.6833 17.7087 15.4167C17.7087 14.15 16.6837 13.125 15.417 13.125H1.66699C1.32533 13.125 1.04199 12.8417 1.04199 12.5C1.04199 12.1583 1.32533 11.875 1.66699 11.875H15.417C17.367 11.875 18.9587 13.4667 18.9587 15.4167C18.9587 17.3667 17.367 18.9583 15.417 18.9583Z" fill="white"/>
<path d="M15.417 10.6263H1.66699C1.32533 10.6263 1.04199 10.343 1.04199 10.0013C1.04199 9.65964 1.32533 9.3763 1.66699 9.3763H15.417C16.6837 9.3763 17.7087 8.3513 17.7087 7.08464C17.7087 5.81797 16.6837 4.79297 15.417 4.79297C14.1503 4.79297 13.1253 5.81797 13.1253 7.08464V7.5013C13.1253 7.84297 12.842 8.1263 12.5003 8.1263C12.1587 8.1263 11.8753 7.84297 11.8753 7.5013V7.08464C11.8753 5.13464 13.467 3.54297 15.417 3.54297C17.367 3.54297 18.9587 5.13464 18.9587 7.08464C18.9587 9.03464 17.367 10.6263 15.417 10.6263Z" fill="white"/>
<path d="M7.75866 8.12396H1.66699C1.32533 8.12396 1.04199 7.84063 1.04199 7.49896C1.04199 7.15729 1.32533 6.87396 1.66699 6.87396H7.75866C8.65033 6.87396 9.37533 6.14896 9.37533 5.25729C9.37533 4.36563 8.65033 3.64063 7.75866 3.64063C6.86699 3.64063 6.14199 4.36563 6.14199 5.25729V5.57396C6.14199 5.91563 5.85866 6.19896 5.51699 6.19896C5.17533 6.19896 4.89199 5.92396 4.89199 5.57396V5.25729C4.89199 3.67396 6.17533 2.39062 7.75866 2.39062C9.34199 2.39062 10.6253 3.67396 10.6253 5.25729C10.6253 6.84063 9.34199 8.12396 7.75866 8.12396Z" fill="white"/>
</svg>
