<svg width="20" height="20" viewBox="0 0 20 20" fill="none" xmlns="http://www.w3.org/2000/svg">
<path d="M14.0497 4.16797H16.008C16.158 4.16797 16.2913 4.2513 16.3663 4.3763L18.3747 7.8763C18.4497 8.0013 18.4497 8.15963 18.3747 8.28463L14.508 15.2013C14.3497 15.4846 13.9497 15.4846 13.783 15.2096L12.733 13.4513C12.658 13.318 12.658 13.1596 12.733 13.0346L15.4497 8.28463C15.5247 8.15963 15.5247 8.0013 15.4497 7.86797L13.6747 4.78464C13.533 4.51798 13.733 4.16797 14.0497 4.16797Z" fill="white"/>
<path d="M8.21666 4.16797H10.175C10.325 4.16797 10.4583 4.2513 10.5333 4.3763L12.5417 7.8763C12.6167 8.0013 12.6167 8.15963 12.5417 8.28463L8.675 15.2013C8.51667 15.4846 8.11668 15.4846 7.95001 15.2096L6.9 13.4513C6.825 13.318 6.825 13.1596 6.9 13.0346L9.61667 8.28463C9.69167 8.15963 9.69167 8.0013 9.61667 7.86797L7.84168 4.78464C7.70001 4.51798 7.89999 4.16797 8.21666 4.16797Z" fill="white"/>
<path d="M1.5 4.16797H4.17503C4.32503 4.16797 4.46669 4.2513 4.54169 4.3763L6.55834 7.95129C6.63334 8.07629 6.63334 8.23463 6.55834 8.36797L5.62502 9.96797C5.46668 10.243 5.06669 10.243 4.90836 9.96797L1.5 4.16797Z" fill="white"/>
</svg>
