<svg width="20" height="20" viewBox="0 0 20 20" fill="none" xmlns="http://www.w3.org/2000/svg">
<path d="M15.8337 7.5013C15.8337 4.2763 13.2253 1.66797 10.0003 1.66797C6.77533 1.66797 4.16699 4.2763 4.16699 7.5013C4.16699 10.518 6.45033 12.993 9.37533 13.3013V15.2096H7.50033C7.15866 15.2096 6.87533 15.493 6.87533 15.8346C6.87533 16.1763 7.15866 16.4596 7.50033 16.4596H9.37533V18.3346C9.37533 18.6763 9.65866 18.9596 10.0003 18.9596C10.342 18.9596 10.6253 18.6763 10.6253 18.3346V16.4596H12.5003C12.842 16.4596 13.1253 16.1763 13.1253 15.8346C13.1253 15.493 12.842 15.2096 12.5003 15.2096H10.6253V13.3013C13.5503 12.993 15.8337 10.518 15.8337 7.5013Z" fill="white"/>
</svg>
