<svg width="20" height="20" viewBox="0 0 20 20" fill="none" xmlns="http://www.w3.org/2000/svg">
<path d="M12.6416 11.4746C12.6416 11.9413 13.0249 12.3246 13.4916 12.3246H14.3416V10.6329H13.4916C13.0249 10.6246 12.6416 11.0079 12.6416 11.4746Z" fill="white"/>
<path d="M13.4915 1.66797H6.51648C3.48315 1.66797 1.6748 3.4763 1.6748 6.50964V13.4846C1.6748 16.518 3.48315 18.3263 6.51648 18.3263H13.4915C16.5248 18.3263 18.3332 16.518 18.3332 13.4846V6.50964C18.3332 3.4763 16.5248 1.66797 13.4915 1.66797ZM10.2332 12.5513C10.4498 12.818 10.4082 13.218 10.1332 13.4263C10.0165 13.518 9.88316 13.5596 9.7415 13.5596C9.55816 13.5596 9.37483 13.4763 9.24983 13.3263L7.38314 10.993L5.51647 13.3263C5.39147 13.4763 5.20814 13.5596 5.0248 13.5596C4.89147 13.5596 4.7498 13.518 4.63314 13.4263C4.36647 13.2096 4.31647 12.818 4.53314 12.5513L6.57481 10.0013L4.53314 7.4513C4.31647 7.18463 4.35814 6.78464 4.63314 6.57631C4.8998 6.35964 5.2998 6.40131 5.50814 6.67631L7.37481 9.00964L9.2415 6.67631C9.45816 6.40964 9.84983 6.35964 10.1165 6.57631C10.3832 6.79298 10.4332 7.18463 10.2165 7.4513L8.1748 10.0013L10.2332 12.5513ZM15.5915 12.943C15.5915 13.2846 15.3082 13.568 14.9665 13.568H13.4915C12.3332 13.568 11.3915 12.6263 11.3915 11.468C11.3915 10.3096 12.3332 9.36797 13.4915 9.36797H14.3415V7.05129C14.3415 6.70963 14.6248 6.42629 14.9665 6.42629C15.3082 6.42629 15.5915 6.70963 15.5915 7.05129V12.943Z" fill="white"/>
</svg>
