<svg width="20" height="20" viewBox="0 0 20 20" fill="none" xmlns="http://www.w3.org/2000/svg">
<path d="M10.0003 1.66797C5.40033 1.66797 1.66699 5.4013 1.66699 10.0013C1.66699 14.6013 5.40033 18.3346 10.0003 18.3346C14.6003 18.3346 18.3337 14.6013 18.3337 10.0013C18.3337 5.4013 14.6003 1.66797 10.0003 1.66797ZM9.37533 12.5013C9.37533 12.843 9.09199 13.1263 8.75033 13.1263C8.40866 13.1263 8.12533 12.843 8.12533 12.5013V10.0013C8.12533 9.65964 8.40866 9.3763 8.75033 9.3763C9.09199 9.3763 9.37533 9.65964 9.37533 10.0013V12.5013ZM11.8753 12.5013C11.8753 12.843 11.592 13.1263 11.2503 13.1263C10.9087 13.1263 10.6253 12.843 10.6253 12.5013V9.16797C10.6253 8.59297 10.1587 8.1263 9.58366 8.1263H6.87533V12.5013C6.87533 12.843 6.59199 13.1263 6.25033 13.1263C5.90866 13.1263 5.62533 12.843 5.62533 12.5013V7.5013C5.62533 7.15964 5.90866 6.8763 6.25033 6.8763H9.58366C10.8503 6.8763 11.8753 7.9013 11.8753 9.16797V12.5013ZM14.3753 12.5013C14.3753 12.843 14.092 13.1263 13.7503 13.1263C13.4087 13.1263 13.1253 12.843 13.1253 12.5013V7.5013C13.1253 7.15964 13.4087 6.8763 13.7503 6.8763C14.092 6.8763 14.3753 7.15964 14.3753 7.5013V12.5013Z" fill="white"/>
</svg>
