<svg width="20" height="20" viewBox="0 0 20 20" fill="none" xmlns="http://www.w3.org/2000/svg">
<path d="M4.5497 1.66797H3.37467C2.59967 1.66797 2.20801 2.60964 2.75801 3.15964L7.533 7.93464C8.89967 9.3013 11.108 9.3013 12.4747 7.93464L17.2497 3.15964C17.7997 2.60964 17.408 1.66797 16.633 1.66797H15.458C14.7663 1.66797 14.0997 1.94297 13.608 2.43464L10.6247 5.41797C10.283 5.75964 9.73301 5.75964 9.39134 5.41797L6.40801 2.43464C5.90801 1.94297 5.24136 1.66797 4.5497 1.66797Z" fill="white"/>
<path d="M4.5497 18.3073H3.37467C2.59967 18.3073 2.20801 17.3656 2.75801 16.8156L7.533 12.0406C8.89967 10.674 11.108 10.674 12.4747 12.0406L17.2497 16.8156C17.7997 17.3656 17.408 18.3073 16.633 18.3073H15.458C14.7663 18.3073 14.0997 18.0323 13.608 17.5406L10.6247 14.5573C10.283 14.2156 9.73301 14.2156 9.39134 14.5573L6.40801 17.5406C5.90801 18.0323 5.24136 18.3073 4.5497 18.3073Z" fill="white"/>
</svg>
