<svg width="20" height="20" viewBox="0 0 20 20" fill="none" xmlns="http://www.w3.org/2000/svg">
<path d="M10.0003 1.66797C5.40033 1.66797 1.66699 5.4013 1.66699 10.0013C1.66699 14.6013 5.40033 18.3346 10.0003 18.3346C14.6003 18.3346 18.3337 14.6013 18.3337 10.0013C18.3337 5.4013 14.6003 1.66797 10.0003 1.66797ZM15.417 11.6846C15.417 11.8346 15.3337 11.968 15.2087 12.043L13.542 13.0013C13.417 13.0763 13.2587 13.0763 13.1253 13.0013L11.4587 12.043C11.3253 11.968 11.2503 11.8346 11.2503 11.6846V10.993L10.2087 11.593C10.0837 11.668 9.92533 11.668 9.79199 11.593L8.75033 10.993V11.6846C8.75033 11.8346 8.66699 11.968 8.54199 12.043L6.87533 13.0013C6.75033 13.0763 6.59199 13.0763 6.45866 13.0013L4.79199 12.043C4.65866 11.968 4.58366 11.8346 4.58366 11.6846V9.78464C4.58366 9.63464 4.66699 9.5013 4.79199 9.4263L6.45866 8.46797C6.58366 8.39297 6.75033 8.39297 6.87533 8.46797L7.70866 8.9513V8.00963C7.70866 7.85963 7.79199 7.72629 7.91699 7.65129L9.79199 6.5763C9.91699 6.5013 10.0753 6.5013 10.2087 6.5763L12.0837 7.65129C12.217 7.72629 12.292 7.85963 12.292 8.00963V8.9513L13.1253 8.46797C13.2503 8.39297 13.4087 8.39297 13.542 8.46797L15.2087 9.4263C15.342 9.5013 15.417 9.63464 15.417 9.78464V11.6846Z" fill="white"/>
</svg>
