<svg width="20" height="20" viewBox="0 0 20 20" fill="none" xmlns="http://www.w3.org/2000/svg">
<path d="M10.0003 1.66797C5.40033 1.66797 1.66699 5.4013 1.66699 10.0013C1.66699 14.6013 5.40033 18.3346 10.0003 18.3346C14.6003 18.3346 18.3337 14.6013 18.3337 10.0013C18.3337 5.4013 14.6003 1.66797 10.0003 1.66797ZM11.3587 11.9096C11.3587 12.3346 11.017 12.6763 10.592 12.6763L7.52533 12.7013C6.24199 12.7096 5.20032 11.6763 5.20032 10.393V8.05964C5.20032 7.63464 5.54199 7.29297 5.96699 7.29297H9.04199C10.317 7.29297 11.3503 8.32629 11.3503 9.6013V11.9096H11.3587ZM14.792 11.668C14.792 12.0263 14.392 12.243 14.092 12.043L12.492 10.9763C12.367 10.893 12.292 10.7513 12.292 10.6013V9.41797C12.292 9.26797 12.367 9.1263 12.492 9.04297L14.092 7.97631C14.392 7.77631 14.792 7.99296 14.792 8.3513V11.668Z" fill="white"/>
</svg>
